<svg xmlns="http://www.w3.org/2000/svg" width="300" height="300" viewBox="0 0 300 300">
<path d="M 207.77 79.02 L 206.72 79.18 C 205.87 79.32 205.29 80.12 205.42 80.97 C 205.56 81.82 206.36 82.40 207.21 82.27 L 208.25 82.10 C 209.11 81.97 209.69 81.17 209.55 80.32 C 209.42 79.46 208.62 78.88 207.77 79.02 Z M 206.72 79.18 L 205.69 79.35 C 204.84 79.48 204.25 80.28 204.39 81.13 C 204.52 81.98 205.32 82.56 206.17 82.43 L 207.21 82.27 C 208.06 82.13 208.64 81.34 208.51 80.48 C 208.37 79.63 207.57 79.05 206.72 79.18 Z M 205.69 79.35 L 204.68 79.50 C 203.83 79.63 203.24 80.43 203.38 81.28 C 203.51 82.13 204.30 82.72 205.16 82.59 L 206.17 82.43 C 207.02 82.30 207.60 81.50 207.47 80.65 C 207.34 79.80 206.54 79.21 205.69 79.35 Z M 204.69 79.50 L 203.71 79.65 C 202.85 79.78 202.27 80.57 202.39 81.42 C 202.52 82.28 203.32 82.86 204.17 82.74 L 205.15 82.59 C 206.00 82.46 206.59 81.67 206.46 80.81 C 206.33 79.96 205.54 79.37 204.69 79.50 Z M 203.72 79.65 L 202.78 79.78 C 201.93 79.90 201.33 80.70 201.46 81.55 C 201.58 82.40 202.37 82.99 203.22 82.87 L 204.16 82.74 C 205.01 82.61 205.61 81.82 205.48 80.97 C 205.36 80.12 204.57 79.52 203.72 79.65 Z M 202.79 79.78 L 201.83 79.91 C 200.98 80.02 200.38 80.81 200.49 81.66 C 200.61 82.52 201.39 83.12 202.25 83.00 L 203.21 82.87 C 204.06 82.76 204.66 81.97 204.55 81.12 C 204.43 80.26 203.65 79.66 202.79 79.78 Z M 201.85 79.91 L 200.80 80.04 C 199.94 80.14 199.34 80.92 199.44 81.78 C 199.55 82.64 200.33 83.24 201.19 83.14 L 202.23 83.01 C 203.09 82.90 203.70 82.12 203.59 81.26 C 203.48 80.41 202.70 79.80 201.85 79.91 Z M 200.80 80.04 L 199.82 80.16 C 198.96 80.26 198.35 81.04 198.46 81.89 C 198.56 82.75 199.34 83.36 200.19 83.26 L 201.18 83.14 C 202.04 83.03 202.65 82.26 202.54 81.40 C 202.44 80.54 201.66 79.93 200.80 80.04 Z M 199.81 80.16 L 198.86 80.28 C 198.00 80.39 197.40 81.17 197.51 82.02 C 197.61 82.88 198.40 83.48 199.25 83.38 L 200.20 83.26 C 201.06 83.15 201.66 82.37 201.56 81.51 C 201.45 80.65 200.67 80.05 199.81 80.16 Z M 198.83 80.28 L 197.89 80.42 C 197.03 80.54 196.44 81.33 196.56 82.18 C 196.68 83.04 197.47 83.63 198.33 83.51 L 199.27 83.37 C 200.13 83.25 200.72 82.46 200.60 81.61 C 200.48 80.75 199.69 80.16 198.83 80.28 Z M 197.85 80.42 L 196.89 80.58 C 196.04 80.72 195.46 81.52 195.60 82.37 C 195.74 83.23 196.55 83.80 197.40 83.66 L 198.36 83.50 C 199.21 83.36 199.79 82.56 199.65 81.71 C 199.51 80.86 198.70 80.28 197.85 80.42 Z M 196.86 80.59 L 195.88 80.77 C 195.03 80.92 194.47 81.73 194.63 82.58 C 194.78 83.43 195.59 83.99 196.44 83.84 L 197.42 83.66 C 198.27 83.50 198.83 82.69 198.68 81.84 C 198.52 80.99 197.71 80.43 196.86 80.59 Z M 195.86 80.77 L 194.87 80.96 C 194.03 81.13 193.47 81.94 193.64 82.79 C 193.80 83.64 194.62 84.19 195.47 84.03 L 196.46 83.83 C 197.31 83.67 197.86 82.85 197.69 82.00 C 197.53 81.16 196.71 80.60 195.86 80.77 Z M 194.87 80.96 L 193.87 81.16 C 193.03 81.33 192.48 82.15 192.65 83.00 C 192.82 83.84 193.64 84.39 194.48 84.22 L 195.48 84.02 C 196.32 83.86 196.87 83.03 196.70 82.19 C 196.53 81.34 195.71 80.79 194.87 80.96 Z M 193.88 81.16 L 192.96 81.34 C 192.11 81.51 191.56 82.33 191.73 83.18 C 191.90 84.02 192.72 84.57 193.56 84.40 L 194.48 84.22 C 195.33 84.05 195.88 83.23 195.71 82.39 C 195.54 81.54 194.72 80.99 193.88 81.16 Z M 192.96 81.34 L 192.11 81.51 C 191.27 81.67 190.71 82.49 190.88 83.34 C 191.04 84.18 191.86 84.73 192.71 84.57 L 193.56 84.41 C 194.40 84.24 194.96 83.42 194.79 82.58 C 194.63 81.73 193.81 81.18 192.96 81.34 Z M 192.12 81.50 L 191.23 81.67 C 190.38 81.84 189.83 82.65 189.99 83.50 C 190.15 84.35 190.97 84.90 191.81 84.74 L 192.70 84.57 C 193.55 84.41 194.11 83.59 193.95 82.75 C 193.78 81.90 192.97 81.34 192.12 81.50 Z M 191.23 81.67 L 190.26 81.86 C 189.41 82.02 188.85 82.83 189.01 83.68 C 189.17 84.53 189.99 85.08 190.84 84.93 L 191.81 84.74 C 192.66 84.58 193.21 83.77 193.05 82.92 C 192.90 82.07 192.08 81.51 191.23 81.67 Z M 190.26 81.86 L 189.17 82.06 C 188.32 82.22 187.76 83.03 187.92 83.88 C 188.08 84.73 188.89 85.29 189.74 85.13 L 190.83 84.93 C 191.68 84.77 192.24 83.95 192.08 83.10 C 191.92 82.26 191.11 81.70 190.26 81.86 Z M 189.17 82.06 L 188.02 82.28 C 187.17 82.43 186.61 83.25 186.77 84.10 C 186.93 84.94 187.74 85.50 188.59 85.34 L 189.74 85.13 C 190.59 84.97 191.15 84.16 190.99 83.31 C 190.83 82.46 190.02 81.90 189.17 82.06 Z M 188.02 82.27 L 187.09 82.45 C 186.24 82.61 185.68 83.42 185.84 84.27 C 186.00 85.12 186.81 85.68 187.66 85.52 L 188.59 85.34 C 189.44 85.19 190.00 84.37 189.84 83.52 C 189.68 82.68 188.87 82.12 188.02 82.27 Z M 187.09 82.45 L 186.10 82.63 C 185.25 82.79 184.69 83.60 184.85 84.45 C 185.00 85.30 185.82 85.86 186.67 85.70 L 187.66 85.52 C 188.50 85.36 189.06 84.55 188.91 83.70 C 188.75 82.85 187.93 82.29 187.09 82.45 Z M 186.10 82.63 L 185.07 82.82 C 184.22 82.98 183.66 83.79 183.82 84.64 C 183.98 85.49 184.79 86.05 185.64 85.89 L 186.66 85.70 C 187.51 85.55 188.07 84.73 187.92 83.88 C 187.76 83.04 186.95 82.48 186.10 82.63 Z M 185.07 82.82 L 184.04 83.01 C 183.19 83.17 182.63 83.98 182.78 84.83 C 182.94 85.68 183.75 86.24 184.60 86.08 L 185.64 85.89 C 186.48 85.74 187.05 84.92 186.89 84.08 C 186.74 83.23 185.92 82.67 185.07 82.82 Z M 184.04 83.01 L 183.01 83.20 C 182.16 83.35 181.60 84.16 181.75 85.01 C 181.91 85.86 182.72 86.42 183.57 86.27 L 184.60 86.08 C 185.44 85.93 186.01 85.12 185.85 84.27 C 185.70 83.42 184.89 82.86 184.04 83.01 Z M 183.01 83.20 L 182.02 83.37 C 181.17 83.52 180.60 84.34 180.75 85.18 C 180.91 86.03 181.72 86.60 182.57 86.45 L 183.56 86.27 C 184.41 86.12 184.98 85.31 184.83 84.46 C 184.67 83.61 183.86 83.04 183.01 83.20 Z M 182.02 83.37 L 181.08 83.54 C 180.23 83.68 179.66 84.49 179.81 85.34 C 179.96 86.19 180.77 86.76 181.62 86.61 L 182.56 86.45 C 183.41 86.30 183.98 85.49 183.83 84.64 C 183.68 83.79 182.87 83.22 182.02 83.37 Z M 181.09 83.53 L 180.01 83.72 C 179.16 83.86 178.59 84.67 178.73 85.52 C 178.88 86.37 179.68 86.94 180.53 86.80 L 181.61 86.61 C 182.46 86.47 183.03 85.67 182.89 84.82 C 182.75 83.96 181.94 83.39 181.09 83.53 Z M 180.02 83.71 L 178.90 83.89 C 178.05 84.03 177.47 84.83 177.61 85.68 C 177.74 86.53 178.54 87.11 179.40 86.98 L 180.52 86.80 C 181.37 86.66 181.95 85.86 181.81 85.01 C 181.68 84.16 180.88 83.58 180.02 83.71 Z M 178.92 83.89 L 177.92 84.04 C 177.07 84.17 176.48 84.97 176.61 85.82 C 176.74 86.67 177.54 87.26 178.39 87.13 L 179.38 86.98 C 180.24 86.85 180.82 86.05 180.69 85.20 C 180.56 84.35 179.77 83.76 178.92 83.89 Z M 177.93 84.04 L 177.02 84.17 C 176.17 84.30 175.58 85.09 175.70 85.94 C 175.83 86.80 176.62 87.39 177.47 87.26 L 178.38 87.13 C 179.23 87.01 179.83 86.21 179.70 85.36 C 179.58 84.51 178.78 83.92 177.93 84.04 Z M 177.03 84.17 L 176.16 84.30 C 175.30 84.42 174.71 85.21 174.83 86.07 C 174.96 86.92 175.75 87.51 176.60 87.39 L 177.47 87.26 C 178.32 87.14 178.92 86.35 178.79 85.50 C 178.67 84.64 177.88 84.05 177.03 84.17 Z M 176.15 84.30 L 175.26 84.43 C 174.40 84.56 173.81 85.35 173.94 86.20 C 174.06 87.05 174.86 87.64 175.71 87.52 L 176.61 87.39 C 177.46 87.26 178.05 86.47 177.92 85.62 C 177.80 84.76 177.01 84.17 176.15 84.30 Z M 175.25 84.43 L 174.29 84.58 C 173.43 84.71 172.85 85.50 172.98 86.35 C 173.11 87.21 173.90 87.79 174.75 87.66 L 175.72 87.52 C 176.57 87.39 177.16 86.59 177.03 85.74 C 176.90 84.89 176.10 84.30 175.25 84.43 Z M 174.28 84.58 L 173.30 84.73 C 172.44 84.86 171.86 85.66 171.99 86.51 C 172.12 87.36 172.92 87.95 173.77 87.82 L 174.76 87.66 C 175.61 87.53 176.19 86.74 176.06 85.88 C 175.93 85.03 175.13 84.45 174.28 84.58 Z M 173.29 84.73 L 172.29 84.89 C 171.44 85.02 170.86 85.81 170.99 86.67 C 171.12 87.52 171.92 88.10 172.77 87.97 L 173.77 87.82 C 174.62 87.68 175.21 86.89 175.08 86.03 C 174.94 85.18 174.15 84.60 173.29 84.73 Z M 172.29 84.88 L 171.28 85.04 C 170.43 85.17 169.85 85.97 169.98 86.82 C 170.11 87.67 170.90 88.26 171.76 88.13 L 172.77 87.97 C 173.62 87.84 174.20 87.04 174.07 86.19 C 173.94 85.34 173.15 84.75 172.29 84.88 Z M 171.29 85.04 L 170.28 85.19 C 169.43 85.32 168.84 86.11 168.97 86.96 C 169.10 87.82 169.89 88.40 170.75 88.28 L 171.75 88.13 C 172.60 88.00 173.19 87.20 173.06 86.35 C 172.94 85.50 172.14 84.91 171.29 85.04 Z M 170.29 85.19 L 169.29 85.33 C 168.44 85.46 167.85 86.25 167.97 87.10 C 168.10 87.96 168.89 88.55 169.74 88.42 L 170.74 88.28 C 171.59 88.15 172.18 87.36 172.06 86.51 C 171.94 85.65 171.14 85.06 170.29 85.19 Z M 169.29 85.33 L 168.30 85.48 C 167.45 85.60 166.86 86.39 166.98 87.25 C 167.11 88.10 167.90 88.69 168.75 88.57 L 169.74 88.42 C 170.60 88.30 171.19 87.51 171.06 86.65 C 170.94 85.80 170.15 85.21 169.29 85.33 Z M 168.30 85.48 L 167.31 85.62 C 166.46 85.75 165.87 86.54 166.00 87.39 C 166.12 88.25 166.91 88.84 167.77 88.71 L 168.75 88.57 C 169.61 88.44 170.20 87.65 170.07 86.80 C 169.95 85.94 169.15 85.35 168.30 85.48 Z M 167.31 85.62 L 166.33 85.77 C 165.48 85.90 164.89 86.69 165.02 87.55 C 165.15 88.40 165.94 88.99 166.79 88.86 L 167.77 88.71 C 168.63 88.58 169.21 87.79 169.09 86.93 C 168.96 86.08 168.16 85.49 167.31 85.62 Z M 166.32 85.77 L 165.33 85.93 C 164.48 86.06 163.89 86.86 164.03 87.71 C 164.16 88.56 164.96 89.14 165.81 89.01 L 166.80 88.86 C 167.65 88.72 168.24 87.92 168.10 87.07 C 167.97 86.22 167.17 85.64 166.32 85.77 Z M 165.32 85.93 L 164.33 86.09 C 163.47 86.23 162.90 87.03 163.03 87.88 C 163.17 88.73 163.97 89.31 164.82 89.17 L 165.82 89.01 C 166.67 88.87 167.25 88.07 167.11 87.22 C 166.97 86.37 166.17 85.79 165.32 85.93 Z M 164.32 86.09 L 163.33 86.25 C 162.48 86.40 161.91 87.20 162.05 88.05 C 162.19 88.90 162.99 89.48 163.84 89.33 L 164.83 89.17 C 165.68 89.03 166.26 88.22 166.12 87.37 C 165.97 86.52 165.17 85.95 164.32 86.09 Z M 163.33 86.25 L 162.35 86.42 C 161.50 86.57 160.92 87.37 161.07 88.22 C 161.21 89.07 162.02 89.64 162.87 89.50 L 163.85 89.33 C 164.70 89.19 165.27 88.38 165.13 87.53 C 164.98 86.68 164.18 86.11 163.33 86.25 Z M 162.34 86.42 L 161.37 86.59 C 160.52 86.74 159.95 87.54 160.09 88.39 C 160.24 89.24 161.05 89.81 161.90 89.67 L 162.87 89.50 C 163.72 89.35 164.29 88.54 164.15 87.70 C 164.00 86.85 163.19 86.28 162.34 86.42 Z M 161.36 86.59 L 160.34 86.77 C 159.49 86.92 158.92 87.73 159.07 88.58 C 159.22 89.43 160.03 89.99 160.88 89.85 L 161.90 89.67 C 162.75 89.52 163.32 88.71 163.17 87.86 C 163.02 87.01 162.21 86.44 161.36 86.59 Z M 160.33 86.77 L 159.33 86.95 C 158.48 87.10 157.91 87.91 158.07 88.76 C 158.22 89.61 159.03 90.18 159.88 90.02 L 160.88 89.84 C 161.73 89.69 162.30 88.88 162.14 88.03 C 161.99 87.18 161.18 86.62 160.33 86.77 Z M 159.31 86.95 L 158.33 87.14 C 157.49 87.30 156.93 88.11 157.09 88.96 C 157.25 89.81 158.06 90.37 158.91 90.21 L 159.89 90.02 C 160.74 89.86 161.30 89.05 161.14 88.20 C 160.98 87.35 160.16 86.79 159.31 86.95 Z M 158.32 87.14 L 157.37 87.33 C 156.52 87.50 155.98 88.32 156.15 89.17 C 156.32 90.01 157.14 90.56 157.98 90.39 L 158.93 90.20 C 159.77 90.03 160.32 89.21 160.15 88.37 C 159.98 87.52 159.16 86.97 158.32 87.14 Z M 157.34 87.34 L 156.38 87.55 C 155.54 87.73 155.00 88.56 155.19 89.40 C 155.37 90.25 156.20 90.78 157.04 90.60 L 158.01 90.39 C 158.85 90.20 159.39 89.37 159.20 88.53 C 159.02 87.69 158.19 87.15 157.34 87.34 Z M 156.35 87.55 L 155.39 87.78 C 154.55 87.98 154.03 88.82 154.23 89.66 C 154.43 90.49 155.27 91.02 156.11 90.82 L 157.07 90.59 C 157.91 90.39 158.43 89.55 158.23 88.71 C 158.03 87.87 157.19 87.35 156.35 87.55 Z M 155.37 87.78 L 154.42 88.02 C 153.58 88.22 153.07 89.07 153.28 89.91 C 153.48 90.74 154.33 91.26 155.17 91.05 L 156.12 90.81 C 156.96 90.61 157.47 89.76 157.26 88.92 C 157.06 88.09 156.21 87.58 155.37 87.78 Z M 154.42 88.02 L 153.44 88.26 C 152.61 88.47 152.10 89.32 152.31 90.15 C 152.51 90.99 153.36 91.50 154.20 91.29 L 155.17 91.05 C 156.01 90.84 156.52 89.99 156.31 89.16 C 156.10 88.32 155.25 87.81 154.42 88.02 Z M 153.45 88.26 L 152.51 88.49 C 151.68 88.69 151.16 89.54 151.37 90.38 C 151.57 91.21 152.42 91.73 153.26 91.52 L 154.19 91.29 C 155.03 91.09 155.54 90.24 155.34 89.40 C 155.13 88.57 154.29 88.05 153.45 88.26 Z M 152.52 88.49 L 151.59 88.71 C 150.75 88.91 150.24 89.75 150.44 90.59 C 150.64 91.43 151.48 91.95 152.32 91.75 L 153.25 91.52 C 154.09 91.32 154.61 90.48 154.40 89.64 C 154.20 88.80 153.36 88.29 152.52 88.49 Z M 151.60 88.71 L 150.63 88.94 C 149.79 89.14 149.27 89.98 149.47 90.82 C 149.67 91.66 150.51 92.18 151.35 91.98 L 152.32 91.75 C 153.16 91.55 153.68 90.70 153.48 89.87 C 153.28 89.03 152.43 88.51 151.60 88.71 Z M 150.63 88.94 L 149.62 89.18 C 148.78 89.38 148.26 90.22 148.46 91.06 C 148.67 91.90 149.51 92.42 150.35 92.22 L 151.35 91.98 C 152.19 91.78 152.71 90.93 152.51 90.10 C 152.31 89.26 151.46 88.74 150.63 88.94 Z M 149.62 89.18 L 148.58 89.43 C 147.74 89.63 147.23 90.48 147.43 91.32 C 147.63 92.15 148.48 92.67 149.32 92.47 L 150.35 92.22 C 151.19 92.01 151.70 91.17 151.50 90.33 C 151.30 89.49 150.45 88.98 149.62 89.18 Z M 148.57 89.43 L 147.63 89.66 C 146.80 89.87 146.29 90.72 146.49 91.55 C 146.70 92.39 147.55 92.90 148.38 92.70 L 149.32 92.46 C 150.16 92.26 150.67 91.41 150.46 90.57 C 150.26 89.74 149.41 89.23 148.57 89.43 Z M 147.63 89.67 L 146.67 89.91 C 145.83 90.11 145.33 90.96 145.54 91.80 C 145.74 92.64 146.59 93.14 147.43 92.93 L 148.39 92.69 C 149.22 92.49 149.73 91.64 149.52 90.80 C 149.31 89.96 148.47 89.46 147.63 89.67 Z M 146.67 89.91 L 145.69 90.15 C 144.86 90.36 144.35 91.21 144.56 92.05 C 144.77 92.88 145.62 93.39 146.46 93.18 L 147.43 92.93 C 148.27 92.72 148.77 91.87 148.56 91.04 C 148.35 90.20 147.50 89.70 146.67 89.91 Z M 145.69 90.15 L 144.71 90.40 C 143.87 90.62 143.37 91.47 143.58 92.30 C 143.79 93.14 144.64 93.64 145.48 93.43 L 146.46 93.18 C 147.30 92.97 147.80 92.12 147.59 91.28 C 147.38 90.45 146.53 89.94 145.69 90.15 Z M 144.71 90.40 L 143.72 90.66 C 142.88 90.87 142.38 91.72 142.59 92.56 C 142.80 93.39 143.65 93.90 144.49 93.68 L 145.48 93.43 C 146.31 93.22 146.82 92.37 146.60 91.53 C 146.39 90.69 145.54 90.19 144.71 90.40 Z M 143.72 90.66 L 142.77 90.90 C 141.94 91.11 141.43 91.96 141.65 92.80 C 141.86 93.63 142.71 94.14 143.55 93.92 L 144.49 93.68 C 145.32 93.47 145.83 92.62 145.62 91.78 C 145.40 90.95 144.55 90.44 143.72 90.66 Z M 142.77 90.90 L 141.84 91.14 C 141.00 91.35 140.50 92.20 140.71 93.04 C 140.92 93.87 141.77 94.38 142.61 94.16 L 143.55 93.92 C 144.38 93.71 144.89 92.86 144.67 92.02 C 144.46 91.19 143.61 90.68 142.77 90.90 Z M 141.84 91.14 L 140.89 91.38 C 140.05 91.59 139.55 92.44 139.76 93.28 C 139.97 94.11 140.82 94.62 141.66 94.40 L 142.61 94.16 C 143.44 93.95 143.95 93.10 143.74 92.26 C 143.52 91.43 142.67 90.92 141.84 91.14 Z M 140.89 91.38 L 139.92 91.63 C 139.08 91.84 138.58 92.69 138.79 93.52 C 139.00 94.36 139.85 94.86 140.69 94.65 L 141.66 94.41 C 142.49 94.19 143.00 93.34 142.79 92.51 C 142.57 91.67 141.72 91.17 140.89 91.38 Z M 139.92 91.63 L 138.92 91.88 C 138.08 92.09 137.58 92.94 137.79 93.77 C 138.00 94.61 138.85 95.12 139.68 94.91 L 140.68 94.65 C 141.52 94.44 142.03 93.59 141.81 92.76 C 141.60 91.92 140.75 91.41 139.92 91.63 Z M 138.92 91.88 L 137.92 92.13 C 137.08 92.34 136.57 93.19 136.78 94.02 C 136.99 94.86 137.84 95.37 138.68 95.16 L 139.68 94.91 C 140.52 94.70 141.02 93.85 140.81 93.01 C 140.60 92.17 139.76 91.67 138.92 91.88 Z M 137.92 92.13 L 136.98 92.36 C 136.15 92.57 135.64 93.42 135.85 94.26 C 136.06 95.09 136.90 95.60 137.74 95.39 L 138.67 95.16 C 139.51 94.95 140.02 94.10 139.81 93.27 C 139.60 92.43 138.75 91.92 137.92 92.13 Z M 136.98 92.36 L 136.03 92.60 C 135.19 92.81 134.68 93.65 134.89 94.49 C 135.09 95.33 135.94 95.84 136.78 95.63 L 137.74 95.39 C 138.57 95.19 139.08 94.34 138.88 93.50 C 138.67 92.67 137.82 92.16 136.98 92.36 Z M 136.03 92.60 L 135.05 92.84 C 134.21 93.05 133.70 93.89 133.91 94.73 C 134.11 95.57 134.96 96.08 135.80 95.87 L 136.77 95.63 C 137.61 95.43 138.12 94.58 137.92 93.74 C 137.71 92.91 136.87 92.39 136.03 92.60 Z M 135.06 92.84 L 134.07 93.08 C 133.23 93.28 132.72 94.13 132.92 94.96 C 133.12 95.80 133.97 96.32 134.81 96.11 L 135.79 95.87 C 136.63 95.67 137.14 94.83 136.94 93.99 C 136.74 93.15 135.89 92.64 135.06 92.84 Z M 134.07 93.08 L 133.08 93.32 C 132.24 93.52 131.73 94.36 131.93 95.20 C 132.13 96.04 132.97 96.55 133.81 96.35 L 134.80 96.11 C 135.64 95.91 136.16 95.07 135.95 94.23 C 135.75 93.39 134.91 92.88 134.07 93.08 Z M 133.09 93.31 L 132.10 93.55 C 131.26 93.74 130.74 94.59 130.94 95.42 C 131.13 96.26 131.97 96.78 132.81 96.59 L 133.80 96.35 C 134.64 96.16 135.16 95.31 134.96 94.48 C 134.77 93.64 133.93 93.12 133.09 93.31 Z M 132.10 93.55 L 131.09 93.78 C 130.25 93.97 129.72 94.81 129.92 95.65 C 130.11 96.49 130.95 97.02 131.79 96.82 L 132.81 96.59 C 133.65 96.39 134.17 95.56 133.98 94.72 C 133.78 93.87 132.94 93.35 132.10 93.55 Z M 131.09 93.78 L 130.08 94.01 C 129.24 94.20 128.72 95.03 128.91 95.88 C 129.10 96.72 129.93 97.24 130.77 97.05 L 131.78 96.82 C 132.62 96.63 133.15 95.80 132.96 94.96 C 132.77 94.12 131.93 93.59 131.09 93.78 Z M 130.09 94.01 L 129.10 94.23 C 128.25 94.42 127.72 95.25 127.91 96.09 C 128.10 96.93 128.93 97.46 129.77 97.28 L 130.77 97.05 C 131.61 96.87 132.14 96.03 131.95 95.19 C 131.76 94.35 130.93 93.82 130.09 94.01 Z M 129.10 94.23 L 128.13 94.44 C 127.28 94.63 126.75 95.46 126.94 96.30 C 127.12 97.14 127.95 97.68 128.80 97.49 L 129.77 97.28 C 130.61 97.09 131.14 96.26 130.96 95.42 C 130.78 94.58 129.94 94.04 129.10 94.23 Z M 128.13 94.44 L 127.18 94.65 C 126.33 94.83 125.80 95.66 125.98 96.50 C 126.16 97.35 127.00 97.88 127.84 97.70 L 128.79 97.49 C 129.63 97.31 130.17 96.48 129.99 95.64 C 129.80 94.79 128.97 94.26 128.13 94.44 Z M 127.18 94.65 L 126.25 94.84 C 125.41 95.03 124.87 95.86 125.05 96.70 C 125.23 97.54 126.06 98.08 126.91 97.90 L 127.83 97.70 C 128.68 97.52 129.21 96.69 129.03 95.85 C 128.85 95.00 128.02 94.47 127.18 94.65 Z M 126.25 94.84 L 125.24 95.06 C 124.40 95.24 123.86 96.07 124.04 96.91 C 124.22 97.75 125.05 98.29 125.89 98.11 L 126.90 97.90 C 127.75 97.72 128.29 96.89 128.11 96.05 C 127.93 95.20 127.10 94.67 126.25 94.84 Z M 125.24 95.06 L 124.22 95.27 C 123.38 95.45 122.84 96.28 123.02 97.12 C 123.20 97.97 124.02 98.51 124.87 98.33 L 125.89 98.11 C 126.73 97.94 127.27 97.11 127.09 96.27 C 126.92 95.42 126.09 94.88 125.24 95.06 Z M 124.23 95.27 L 123.24 95.48 C 122.40 95.65 121.86 96.48 122.03 97.32 C 122.21 98.17 123.03 98.71 123.88 98.53 L 124.86 98.33 C 125.71 98.15 126.25 97.33 126.07 96.48 C 125.90 95.64 125.07 95.10 124.23 95.27 Z M 123.25 95.48 L 122.29 95.67 C 121.44 95.84 120.90 96.67 121.07 97.51 C 121.24 98.36 122.07 98.90 122.91 98.73 L 123.87 98.54 C 124.72 98.36 125.26 97.54 125.09 96.69 C 124.92 95.85 124.09 95.30 123.25 95.48 Z M 122.30 95.67 L 121.36 95.86 C 120.52 96.03 119.97 96.85 120.14 97.69 C 120.31 98.54 121.13 99.09 121.98 98.92 L 122.91 98.73 C 123.75 98.56 124.30 97.74 124.13 96.90 C 123.96 96.05 123.14 95.50 122.30 95.67 Z M 121.37 95.86 L 120.40 96.04 C 119.55 96.21 119.00 97.03 119.17 97.88 C 119.33 98.72 120.15 99.27 121.00 99.11 L 121.97 98.92 C 122.81 98.75 123.37 97.93 123.20 97.09 C 123.04 96.24 122.22 95.69 121.37 95.86 Z M 120.41 96.04 L 119.40 96.23 C 118.56 96.39 118.00 97.21 118.16 98.06 C 118.32 98.90 119.14 99.46 119.99 99.30 L 120.99 99.11 C 121.84 98.95 122.39 98.13 122.23 97.29 C 122.07 96.44 121.25 95.88 120.41 96.04 Z M 119.41 96.23 L 118.43 96.41 C 117.58 96.57 117.02 97.38 117.17 98.23 C 117.33 99.08 118.14 99.64 118.99 99.48 L 119.98 99.30 C 120.82 99.15 121.39 98.33 121.23 97.49 C 121.07 96.64 120.26 96.08 119.41 96.23 Z M 118.44 96.41 L 117.47 96.58 C 116.62 96.73 116.05 97.54 116.20 98.39 C 116.35 99.24 117.16 99.81 118.01 99.66 L 118.98 99.48 C 119.83 99.33 120.40 98.52 120.25 97.68 C 120.10 96.83 119.29 96.26 118.44 96.41 Z M 117.48 96.58 L 116.52 96.74 C 115.67 96.89 115.10 97.70 115.24 98.55 C 115.39 99.40 116.19 99.97 117.04 99.82 L 118.00 99.66 C 118.85 99.51 119.42 98.71 119.28 97.86 C 119.13 97.01 118.33 96.44 117.48 96.58 Z M 116.53 96.74 L 115.52 96.91 C 114.67 97.05 114.09 97.85 114.23 98.70 C 114.37 99.55 115.18 100.13 116.03 99.99 L 117.03 99.82 C 117.88 99.68 118.46 98.88 118.32 98.03 C 118.18 97.18 117.38 96.60 116.53 96.74 Z M 115.54 96.90 L 114.53 97.06 C 113.68 97.19 113.10 97.99 113.23 98.84 C 113.36 99.69 114.16 100.28 115.01 100.15 L 116.01 99.99 C 116.86 99.86 117.45 99.06 117.32 98.21 C 117.19 97.36 116.39 96.77 115.54 96.90 Z M 114.55 97.06 L 113.56 97.20 C 112.71 97.32 112.12 98.11 112.24 98.96 C 112.36 99.82 113.15 100.41 114.00 100.29 L 114.99 100.15 C 115.85 100.03 116.44 99.24 116.32 98.38 C 116.20 97.53 115.41 96.94 114.55 97.06 Z M 113.59 97.19 L 112.61 97.32 C 111.76 97.43 111.15 98.21 111.26 99.06 C 111.37 99.92 112.15 100.53 113.01 100.42 L 113.98 100.29 C 114.84 100.18 115.44 99.40 115.33 98.55 C 115.22 97.69 114.44 97.09 113.59 97.19 Z M 112.64 97.32 L 111.64 97.42 C 110.78 97.52 110.17 98.29 110.26 99.15 C 110.35 100.00 111.12 100.62 111.98 100.53 L 112.98 100.42 C 113.84 100.33 114.45 99.56 114.36 98.70 C 114.27 97.84 113.50 97.22 112.64 97.32 Z M 111.67 97.42 L 110.66 97.51 C 109.80 97.59 109.16 98.34 109.24 99.20 C 109.31 100.06 110.07 100.70 110.93 100.62 L 111.95 100.53 C 112.81 100.46 113.44 99.70 113.37 98.84 C 113.29 97.98 112.53 97.35 111.67 97.42 Z M 110.69 97.51 L 109.69 97.58 C 108.83 97.64 108.18 98.38 108.24 99.24 C 108.30 100.10 109.04 100.75 109.90 100.69 L 110.90 100.62 C 111.76 100.56 112.41 99.82 112.35 98.96 C 112.29 98.10 111.55 97.45 110.69 97.51 Z M 109.72 97.57 L 108.74 97.62 C 107.88 97.67 107.22 98.40 107.26 99.26 C 107.31 100.12 108.04 100.78 108.90 100.74 L 109.88 100.69 C 110.74 100.65 111.40 99.92 111.36 99.06 C 111.31 98.20 110.58 97.53 109.72 97.57 Z M 108.77 97.62 L 107.78 97.65 C 106.91 97.68 106.24 98.40 106.27 99.27 C 106.29 100.13 107.02 100.80 107.88 100.78 L 108.87 100.74 C 109.73 100.71 110.41 99.99 110.38 99.13 C 110.35 98.27 109.63 97.59 108.77 97.62 Z M 107.80 97.65 L 106.79 97.67 C 105.92 97.69 105.24 98.40 105.25 99.26 C 105.27 100.12 105.98 100.81 106.84 100.79 L 107.85 100.78 C 108.72 100.76 109.40 100.05 109.39 99.19 C 109.37 98.32 108.66 97.64 107.80 97.65 Z M 106.80 97.67 L 105.81 97.68 C 104.94 97.69 104.25 98.39 104.26 99.25 C 104.26 100.11 104.97 100.81 105.83 100.80 L 106.83 100.79 C 107.69 100.79 108.38 100.08 108.38 99.22 C 108.37 98.36 107.67 97.67 106.80 97.67 Z M 105.82 97.68 L 104.83 97.68 C 103.97 97.68 103.27 98.38 103.27 99.24 C 103.27 100.11 103.97 100.80 104.84 100.80 L 105.82 100.80 C 106.68 100.80 107.38 100.10 107.38 99.24 C 107.38 98.38 106.68 97.68 105.82 97.68 Z M 104.84 97.68 L 103.82 97.68 C 102.96 97.68 102.26 98.38 102.26 99.24 C 102.26 100.10 102.96 100.80 103.82 100.80 L 104.83 100.80 C 105.70 100.80 106.40 100.10 106.40 99.24 C 106.40 98.38 105.70 97.68 104.84 97.68 Z M 103.83 97.68 L 102.82 97.68 C 101.96 97.68 101.26 98.37 101.25 99.24 C 101.25 100.10 101.95 100.80 102.81 100.80 L 103.82 100.80 C 104.68 100.81 105.38 100.11 105.38 99.25 C 105.39 98.38 104.69 97.68 103.83 97.68 Z M 102.83 97.68 L 101.83 97.67 C 100.97 97.66 100.27 98.36 100.26 99.22 C 100.25 100.08 100.95 100.79 101.81 100.79 L 102.80 100.80 C 103.67 100.81 104.37 100.11 104.38 99.25 C 104.38 98.39 103.69 97.68 102.83 97.68 Z M 101.85 97.67 L 100.89 97.66 C 100.03 97.64 99.32 98.33 99.30 99.19 C 99.29 100.05 99.98 100.76 100.84 100.78 L 101.80 100.79 C 102.66 100.81 103.37 100.12 103.38 99.26 C 103.40 98.39 102.71 97.68 101.85 97.67 Z M 100.92 97.66 L 100.02 97.63 C 99.15 97.60 98.43 98.27 98.40 99.13 C 98.37 100.00 99.05 100.72 99.91 100.75 L 100.81 100.78 C 101.67 100.81 102.40 100.13 102.42 99.27 C 102.45 98.41 101.78 97.69 100.92 97.66 Z M 100.08 97.63 L 99.13 97.56 C 98.27 97.50 97.52 98.15 97.46 99.01 C 97.40 99.87 98.04 100.61 98.90 100.68 L 99.85 100.74 C 100.71 100.81 101.46 100.16 101.52 99.30 C 101.58 98.44 100.94 97.69 100.08 97.63 Z M 99.21 97.57 L 98.16 97.44 C 97.30 97.33 96.52 97.94 96.42 98.80 C 96.31 99.65 96.92 100.43 97.77 100.54 L 98.82 100.67 C 99.68 100.77 100.46 100.17 100.56 99.31 C 100.67 98.45 100.06 97.67 99.21 97.57 Z M 98.23 97.45 L 97.20 97.27 C 96.35 97.12 95.54 97.69 95.40 98.54 C 95.25 99.39 95.82 100.20 96.66 100.35 L 97.70 100.53 C 98.55 100.68 99.35 100.11 99.50 99.26 C 99.65 98.41 99.08 97.60 98.23 97.45 Z M 97.26 97.28 L 96.39 97.10 C 95.55 96.92 94.72 97.46 94.54 98.30 C 94.36 99.15 94.90 99.97 95.74 100.15 L 96.61 100.34 C 97.45 100.51 98.28 99.97 98.46 99.13 C 98.64 98.29 98.10 97.46 97.26 97.28 Z M 96.42 97.11 L 95.49 96.89 C 94.65 96.69 93.81 97.21 93.62 98.05 C 93.42 98.89 93.94 99.73 94.78 99.93 L 95.71 100.15 C 96.55 100.34 97.39 99.82 97.59 98.98 C 97.78 98.14 97.26 97.30 96.42 97.11 Z M 95.52 96.89 L 94.53 96.65 C 93.70 96.43 92.85 96.94 92.64 97.78 C 92.43 98.61 92.93 99.46 93.77 99.67 L 94.75 99.92 C 95.59 100.13 96.44 99.63 96.65 98.79 C 96.86 97.95 96.35 97.10 95.52 96.89 Z M 94.55 96.65 L 93.53 96.38 C 92.70 96.16 91.84 96.65 91.62 97.48 C 91.40 98.32 91.89 99.17 92.73 99.40 L 93.75 99.67 C 94.58 99.89 95.44 99.39 95.66 98.56 C 95.88 97.73 95.39 96.87 94.55 96.65 Z M 93.54 96.38 L 92.49 96.09 C 91.66 95.86 90.80 96.35 90.57 97.18 C 90.34 98.01 90.83 98.87 91.66 99.10 L 92.71 99.39 C 93.54 99.62 94.40 99.13 94.63 98.30 C 94.86 97.47 94.37 96.61 93.54 96.38 Z M 92.50 96.09 L 91.45 95.79 C 90.62 95.56 89.75 96.04 89.52 96.87 C 89.28 97.70 89.76 98.56 90.59 98.80 L 91.64 99.10 C 92.47 99.33 93.34 98.85 93.57 98.02 C 93.81 97.19 93.33 96.33 92.50 96.09 Z M 91.46 95.80 L 90.42 95.49 C 89.59 95.25 88.73 95.73 88.49 96.56 C 88.25 97.38 88.72 98.25 89.55 98.49 L 90.58 98.79 C 91.41 99.04 92.28 98.56 92.52 97.73 C 92.76 96.90 92.29 96.04 91.46 95.80 Z M 90.43 95.50 L 89.41 95.19 C 88.59 94.94 87.72 95.41 87.47 96.24 C 87.22 97.07 87.69 97.94 88.52 98.18 L 89.54 98.49 C 90.36 98.74 91.23 98.27 91.48 97.44 C 91.73 96.62 91.26 95.75 90.43 95.50 Z M 89.43 95.20 L 88.44 94.89 C 87.62 94.64 86.75 95.10 86.49 95.92 C 86.24 96.75 86.70 97.62 87.52 97.88 L 88.51 98.18 C 89.33 98.43 90.20 97.97 90.46 97.15 C 90.71 96.32 90.25 95.45 89.43 95.20 Z M 88.46 94.90 L 87.53 94.60 C 86.71 94.34 85.83 94.79 85.56 95.61 C 85.30 96.43 85.75 97.31 86.58 97.57 L 87.51 97.87 C 88.33 98.13 89.21 97.68 89.47 96.86 C 89.73 96.04 89.28 95.16 88.46 94.90 Z M 87.55 94.61 L 86.69 94.32 C 85.87 94.04 84.98 94.49 84.71 95.30 C 84.44 96.12 84.88 97.00 85.70 97.28 L 86.56 97.57 C 87.37 97.84 88.26 97.40 88.53 96.58 C 88.81 95.76 88.36 94.88 87.55 94.61 Z M 86.72 94.33 L 85.75 93.98 C 84.94 93.69 84.05 94.12 83.76 94.93 C 83.47 95.74 83.89 96.63 84.70 96.92 L 85.67 97.27 C 86.48 97.56 87.37 97.14 87.66 96.32 C 87.95 95.51 87.53 94.62 86.72 94.33 Z M 85.80 94.00 L 84.76 93.59 C 83.96 93.28 83.05 93.67 82.74 94.47 C 82.42 95.27 82.81 96.18 83.62 96.50 L 84.66 96.91 C 85.46 97.22 86.37 96.83 86.68 96.03 C 87.00 95.22 86.60 94.32 85.80 94.00 Z M 84.81 93.61 L 83.94 93.23 C 83.15 92.89 82.23 93.25 81.89 94.04 C 81.54 94.83 81.90 95.75 82.69 96.10 L 83.56 96.48 C 84.35 96.82 85.27 96.46 85.62 95.67 C 85.96 94.88 85.60 93.96 84.81 93.61 Z M 83.98 93.25 L 83.20 92.89 C 82.42 92.52 81.49 92.86 81.13 93.64 C 80.76 94.42 81.10 95.35 81.88 95.71 L 82.65 96.08 C 83.44 96.44 84.36 96.11 84.73 95.33 C 85.10 94.54 84.76 93.62 83.98 93.25 Z M 83.21 92.89 L 83.01 92.79 C 82.23 92.42 81.30 92.75 80.93 93.53 C 80.55 94.31 80.88 95.24 81.66 95.61 L 81.87 95.71 C 82.65 96.08 83.58 95.75 83.95 94.97 C 84.32 94.20 83.99 93.26 83.21 92.89 Z"
      fill="black"
      fill-rule="nonzero" /><path d="M 65.32 161.25 L 66.15 161.69 C 66.92 162.09 67.86 161.80 68.26 161.04 C 68.66 160.27 68.37 159.33 67.61 158.93 L 66.77 158.49 C 66.01 158.08 65.07 158.38 64.67 159.14 C 64.26 159.90 64.56 160.85 65.32 161.25 Z M 66.22 161.72 L 67.08 162.13 C 67.86 162.50 68.79 162.16 69.16 161.38 C 69.53 160.60 69.19 159.67 68.41 159.30 L 67.55 158.90 C 66.77 158.53 65.84 158.86 65.47 159.64 C 65.10 160.42 65.44 161.35 66.22 161.72 Z M 67.21 162.18 L 68.14 162.53 C 68.95 162.83 69.85 162.42 70.15 161.61 C 70.45 160.80 70.04 159.90 69.23 159.60 L 68.29 159.25 C 67.48 158.95 66.59 159.37 66.29 160.17 C 65.99 160.98 66.40 161.88 67.21 162.18 Z M 68.31 162.58 L 69.35 162.84 C 70.19 163.04 71.03 162.53 71.24 161.69 C 71.45 160.85 70.93 160.01 70.10 159.80 L 69.06 159.55 C 68.22 159.34 67.38 159.85 67.17 160.69 C 66.96 161.53 67.48 162.37 68.31 162.58 Z M 69.53 162.87 L 70.48 162.99 C 71.33 163.10 72.11 162.49 72.22 161.64 C 72.33 160.78 71.73 160.00 70.87 159.89 L 69.92 159.77 C 69.07 159.66 68.29 160.27 68.18 161.12 C 68.07 161.98 68.67 162.76 69.53 162.87 Z M 70.60 163.00 L 71.58 163.05 C 72.44 163.09 73.17 162.42 73.21 161.56 C 73.25 160.70 72.58 159.97 71.72 159.93 L 70.75 159.88 C 69.89 159.84 69.16 160.51 69.12 161.37 C 69.08 162.23 69.74 162.96 70.60 163.00 Z M 71.67 163.05 L 72.69 163.04 C 73.55 163.02 74.24 162.32 74.23 161.46 C 74.22 160.59 73.51 159.90 72.65 159.91 L 71.63 159.93 C 70.77 159.94 70.08 160.64 70.09 161.50 C 70.10 162.37 70.81 163.06 71.67 163.05 Z M 72.75 163.03 L 73.79 162.98 C 74.65 162.93 75.31 162.19 75.26 161.33 C 75.21 160.47 74.47 159.81 73.61 159.86 L 72.58 159.92 C 71.72 159.96 71.06 160.70 71.11 161.56 C 71.16 162.42 71.89 163.08 72.75 163.03 Z M 73.84 162.97 L 74.86 162.88 C 75.72 162.81 76.36 162.05 76.28 161.19 C 76.20 160.33 75.45 159.70 74.59 159.77 L 73.56 159.86 C 72.70 159.94 72.07 160.70 72.15 161.55 C 72.22 162.41 72.98 163.05 73.84 162.97 Z M 74.90 162.88 L 75.91 162.76 C 76.77 162.67 77.38 161.89 77.29 161.04 C 77.19 160.18 76.42 159.56 75.56 159.66 L 74.55 159.78 C 73.69 159.87 73.08 160.64 73.17 161.50 C 73.27 162.36 74.04 162.97 74.90 162.88 Z M 75.94 162.76 L 76.93 162.63 C 77.79 162.52 78.39 161.73 78.28 160.88 C 78.16 160.02 77.38 159.42 76.52 159.53 L 75.53 159.66 C 74.68 159.78 74.08 160.56 74.19 161.42 C 74.30 162.27 75.09 162.87 75.94 162.76 Z M 76.95 162.63 L 77.93 162.48 C 78.78 162.36 79.37 161.56 79.24 160.71 C 79.12 159.86 78.33 159.27 77.47 159.39 L 76.50 159.54 C 75.65 159.66 75.06 160.45 75.18 161.31 C 75.31 162.16 76.10 162.75 76.95 162.63 Z M 77.94 162.48 L 78.91 162.33 C 79.76 162.20 80.35 161.40 80.21 160.55 C 80.08 159.70 79.28 159.11 78.43 159.24 L 77.46 159.40 C 76.61 159.53 76.02 160.33 76.16 161.18 C 76.29 162.03 77.09 162.61 77.94 162.48 Z M 78.91 162.33 L 79.90 162.17 C 80.75 162.04 81.34 161.24 81.20 160.39 C 81.07 159.54 80.27 158.96 79.42 159.09 L 78.43 159.25 C 77.58 159.38 76.99 160.18 77.13 161.03 C 77.26 161.88 78.06 162.46 78.91 162.33 Z M 79.89 162.18 L 80.89 162.02 C 81.74 161.89 82.33 161.10 82.20 160.25 C 82.07 159.39 81.27 158.81 80.42 158.94 L 79.43 159.09 C 78.57 159.22 77.99 160.01 78.12 160.87 C 78.25 161.72 79.04 162.31 79.89 162.18 Z M 80.88 162.03 L 81.85 161.89 C 82.70 161.76 83.29 160.97 83.17 160.12 C 83.04 159.26 82.25 158.67 81.40 158.80 L 80.43 158.94 C 79.57 159.06 78.98 159.85 79.11 160.71 C 79.23 161.56 80.02 162.15 80.88 162.03 Z M 81.84 161.89 L 82.83 161.75 C 83.69 161.63 84.28 160.84 84.16 159.98 C 84.04 159.13 83.26 158.53 82.40 158.65 L 81.41 158.79 C 80.55 158.91 79.96 159.70 80.08 160.56 C 80.20 161.41 80.99 162.01 81.84 161.89 Z M 82.83 161.75 L 83.84 161.61 C 84.69 161.49 85.29 160.71 85.17 159.85 C 85.06 159.00 84.27 158.40 83.41 158.52 L 82.41 158.65 C 81.55 158.77 80.95 159.56 81.07 160.41 C 81.19 161.27 81.97 161.86 82.83 161.75 Z M 83.83 161.61 L 84.84 161.48 C 85.69 161.36 86.29 160.58 86.18 159.72 C 86.07 158.87 85.28 158.27 84.43 158.38 L 83.42 158.52 C 82.56 158.63 81.96 159.42 82.08 160.27 C 82.19 161.12 82.98 161.73 83.83 161.61 Z M 84.84 161.48 L 85.83 161.34 C 86.68 161.23 87.29 160.45 87.17 159.59 C 87.06 158.74 86.28 158.14 85.42 158.25 L 84.43 158.38 C 83.57 158.49 82.97 159.28 83.08 160.13 C 83.20 160.99 83.98 161.59 84.84 161.48 Z M 85.83 161.35 L 86.81 161.22 C 87.67 161.10 88.27 160.32 88.16 159.46 C 88.04 158.61 87.26 158.01 86.41 158.12 L 85.42 158.25 C 84.57 158.36 83.96 159.15 84.08 160.00 C 84.19 160.86 84.97 161.46 85.83 161.35 Z M 86.81 161.22 L 87.79 161.09 C 88.64 160.97 89.24 160.19 89.13 159.33 C 89.01 158.48 88.23 157.88 87.38 157.99 L 86.40 158.12 C 85.55 158.23 84.95 159.02 85.06 159.87 C 85.18 160.73 85.96 161.33 86.81 161.22 Z M 87.79 161.09 L 88.75 160.96 C 89.61 160.84 90.21 160.06 90.09 159.20 C 89.98 158.35 89.19 157.75 88.34 157.86 L 87.37 157.99 C 86.52 158.11 85.92 158.89 86.03 159.75 C 86.15 160.60 86.93 161.20 87.79 161.09 Z M 88.76 160.96 L 89.74 160.82 C 90.59 160.71 91.19 159.92 91.07 159.06 C 90.96 158.21 90.17 157.61 89.31 157.73 L 88.34 157.86 C 87.48 157.98 86.88 158.77 87.00 159.62 C 87.12 160.47 87.90 161.07 88.76 160.96 Z M 89.74 160.82 L 90.75 160.68 C 91.60 160.56 92.20 159.77 92.08 158.92 C 91.96 158.06 91.17 157.47 90.32 157.59 L 89.31 157.73 C 88.46 157.85 87.86 158.64 87.98 159.49 C 88.10 160.35 88.89 160.94 89.74 160.82 Z M 90.75 160.68 L 91.78 160.53 C 92.63 160.41 93.22 159.62 93.10 158.77 C 92.98 157.91 92.19 157.32 91.33 157.44 L 90.31 157.59 C 89.46 157.71 88.86 158.50 88.99 159.36 C 89.11 160.21 89.90 160.80 90.75 160.68 Z M 91.78 160.53 L 92.75 160.39 C 93.60 160.27 94.19 159.47 94.06 158.62 C 93.94 157.77 93.15 157.18 92.29 157.30 L 91.33 157.44 C 90.48 157.57 89.89 158.36 90.01 159.21 C 90.14 160.07 90.93 160.66 91.78 160.53 Z M 92.75 160.39 L 93.74 160.24 C 94.59 160.12 95.18 159.32 95.06 158.47 C 94.93 157.62 94.14 157.03 93.28 157.15 L 92.29 157.30 C 91.44 157.43 90.85 158.22 90.98 159.07 C 91.10 159.93 91.90 160.52 92.75 160.39 Z M 93.74 160.24 L 94.75 160.10 C 95.60 159.97 96.19 159.18 96.06 158.32 C 95.94 157.47 95.14 156.88 94.29 157.01 L 93.28 157.15 C 92.43 157.28 91.84 158.07 91.97 158.93 C 92.09 159.78 92.89 160.37 93.74 160.24 Z M 94.74 160.10 L 95.75 159.95 C 96.61 159.82 97.20 159.03 97.07 158.18 C 96.95 157.33 96.16 156.74 95.30 156.86 L 94.29 157.01 C 93.44 157.13 92.85 157.92 92.97 158.78 C 93.10 159.63 93.89 160.22 94.74 160.10 Z M 95.75 159.95 L 96.75 159.81 C 97.60 159.69 98.20 158.90 98.08 158.04 C 97.95 157.19 97.16 156.60 96.31 156.72 L 95.31 156.86 C 94.46 156.98 93.86 157.77 93.98 158.62 C 94.10 159.48 94.89 160.07 95.75 159.95 Z M 96.74 159.81 L 97.72 159.68 C 98.57 159.56 99.17 158.78 99.05 157.92 C 98.94 157.07 98.15 156.47 97.30 156.58 L 96.32 156.72 C 95.47 156.83 94.87 157.62 94.98 158.47 C 95.10 159.33 95.88 159.93 96.74 159.81 Z M 97.70 159.68 L 98.74 159.55 C 99.60 159.44 100.20 158.66 100.09 157.80 C 99.98 156.95 99.20 156.34 98.35 156.45 L 97.31 156.58 C 96.45 156.69 95.85 157.47 95.96 158.33 C 96.07 159.18 96.85 159.79 97.70 159.68 Z M 98.73 159.55 L 99.74 159.43 C 100.60 159.33 101.21 158.55 101.11 157.69 C 101.00 156.84 100.23 156.22 99.37 156.33 L 98.36 156.45 C 97.50 156.55 96.89 157.33 96.99 158.18 C 97.09 159.04 97.87 159.65 98.73 159.55 Z M 99.73 159.43 L 100.72 159.32 C 101.57 159.23 102.19 158.45 102.10 157.59 C 102.00 156.73 101.22 156.12 100.37 156.21 L 99.38 156.32 C 98.52 156.42 97.90 157.19 98.00 158.05 C 98.10 158.91 98.87 159.53 99.73 159.43 Z M 100.71 159.32 L 101.68 159.22 C 102.54 159.13 103.16 158.35 103.07 157.49 C 102.98 156.63 102.21 156.01 101.35 156.11 L 100.37 156.21 C 99.51 156.30 98.89 157.08 98.98 157.94 C 99.08 158.80 99.85 159.42 100.71 159.32 Z M 101.68 159.22 L 102.65 159.12 C 103.51 159.03 104.14 158.25 104.04 157.39 C 103.95 156.53 103.18 155.91 102.32 156.00 L 101.35 156.10 C 100.49 156.20 99.86 156.97 99.96 157.83 C 100.05 158.69 100.82 159.31 101.68 159.22 Z M 102.65 159.12 L 103.62 159.02 C 104.48 158.92 105.10 158.15 105.01 157.29 C 104.92 156.43 104.14 155.80 103.28 155.90 L 102.32 156.00 C 101.46 156.09 100.83 156.86 100.93 157.73 C 101.02 158.59 101.79 159.21 102.65 159.12 Z M 103.62 159.02 L 104.55 158.92 C 105.41 158.82 106.04 158.05 105.94 157.19 C 105.85 156.32 105.08 155.70 104.21 155.79 L 103.28 155.89 C 102.42 155.99 101.79 156.76 101.89 157.62 C 101.98 158.49 102.75 159.11 103.62 159.02 Z M 104.55 158.92 L 105.50 158.82 C 106.37 158.73 106.99 157.95 106.90 157.09 C 106.81 156.22 106.03 155.60 105.17 155.69 L 104.21 155.79 C 103.35 155.88 102.72 156.66 102.81 157.52 C 102.91 158.39 103.68 159.01 104.55 158.92 Z M 105.49 158.82 L 106.47 158.73 C 107.34 158.64 107.97 157.86 107.88 156.99 C 107.80 156.13 107.02 155.50 106.15 155.58 L 105.17 155.68 C 104.31 155.77 103.68 156.55 103.76 157.41 C 103.85 158.28 104.63 158.91 105.49 158.82 Z M 106.46 158.73 L 107.47 158.63 C 108.34 158.55 108.98 157.78 108.90 156.91 C 108.82 156.04 108.04 155.40 107.17 155.48 L 106.16 155.58 C 105.29 155.66 104.66 156.43 104.74 157.30 C 104.82 158.17 105.59 158.81 106.46 158.73 Z M 107.46 158.64 L 108.50 158.55 C 109.38 158.48 110.02 157.71 109.95 156.83 C 109.88 155.96 109.11 155.32 108.24 155.39 L 107.19 155.48 C 106.32 155.55 105.67 156.32 105.74 157.19 C 105.82 158.07 106.59 158.71 107.46 158.64 Z M 108.49 158.55 L 109.54 158.48 C 110.41 158.41 111.07 157.65 111.00 156.77 C 110.94 155.90 110.18 155.24 109.30 155.31 L 108.25 155.39 C 107.38 155.45 106.72 156.21 106.79 157.09 C 106.85 157.96 107.61 158.62 108.49 158.55 Z M 109.52 158.48 L 110.43 158.42 C 111.31 158.36 111.97 157.61 111.92 156.73 C 111.86 155.86 111.11 155.19 110.23 155.25 L 109.32 155.30 C 108.44 155.36 107.78 156.12 107.83 156.99 C 107.89 157.87 108.65 158.53 109.52 158.48 Z M 110.42 158.42 L 111.36 158.37 C 112.24 158.32 112.91 157.57 112.86 156.69 C 112.81 155.82 112.06 155.15 111.18 155.19 L 110.24 155.25 C 109.37 155.29 108.70 156.04 108.74 156.92 C 108.79 157.80 109.54 158.47 110.42 158.42 Z M 111.35 158.37 L 112.32 158.32 C 113.20 158.28 113.87 157.54 113.83 156.66 C 113.79 155.78 113.04 155.10 112.17 155.15 L 111.20 155.19 C 110.32 155.24 109.64 155.98 109.68 156.86 C 109.73 157.73 110.47 158.41 111.35 158.37 Z M 112.31 158.32 L 113.31 158.28 C 114.18 158.24 114.87 157.50 114.83 156.63 C 114.79 155.75 114.05 155.07 113.17 155.11 L 112.18 155.15 C 111.30 155.18 110.62 155.92 110.65 156.80 C 110.69 157.68 111.43 158.36 112.31 158.32 Z M 113.30 158.28 L 114.32 158.24 C 115.20 158.21 115.89 157.48 115.86 156.60 C 115.82 155.72 115.09 155.04 114.21 155.07 L 113.18 155.10 C 112.31 155.14 111.62 155.87 111.65 156.75 C 111.68 157.63 112.42 158.31 113.30 158.28 Z M 114.32 158.24 L 115.37 158.21 C 116.25 158.18 116.94 157.45 116.91 156.57 C 116.88 155.70 116.15 155.01 115.27 155.03 L 114.22 155.07 C 113.34 155.10 112.65 155.83 112.68 156.71 C 112.71 157.58 113.44 158.27 114.32 158.24 Z M 115.36 158.21 L 116.44 158.18 C 117.32 158.16 118.01 157.43 117.99 156.55 C 117.96 155.67 117.23 154.98 116.36 155.01 L 115.28 155.03 C 114.40 155.06 113.71 155.79 113.73 156.67 C 113.76 157.54 114.49 158.24 115.36 158.21 Z M 116.44 158.18 L 117.45 158.16 C 118.33 158.14 119.02 157.41 119.00 156.53 C 118.98 155.65 118.25 154.96 117.37 154.98 L 116.36 155.00 C 115.48 155.03 114.79 155.75 114.81 156.63 C 114.83 157.51 115.56 158.20 116.44 158.18 Z M 117.45 158.16 L 118.43 158.14 C 119.31 158.12 120.01 157.39 119.99 156.51 C 119.97 155.64 119.24 154.94 118.36 154.96 L 117.38 154.98 C 116.50 155.00 115.80 155.73 115.82 156.60 C 115.84 157.48 116.57 158.18 117.45 158.16 Z M 118.43 158.14 L 119.42 158.12 C 120.30 158.10 121.00 157.38 120.99 156.50 C 120.97 155.62 120.24 154.92 119.36 154.94 L 118.37 154.96 C 117.49 154.97 116.79 155.70 116.80 156.58 C 116.82 157.46 117.55 158.16 118.43 158.14 Z M 119.42 158.12 L 120.43 158.10 C 121.31 158.09 122.01 157.36 121.99 156.48 C 121.98 155.60 121.25 154.90 120.37 154.92 L 119.37 154.94 C 118.49 154.95 117.79 155.68 117.80 156.56 C 117.82 157.44 118.54 158.14 119.42 158.12 Z M 120.42 158.11 L 121.44 158.09 C 122.32 158.08 123.02 157.35 123.01 156.47 C 122.99 155.59 122.27 154.89 121.39 154.90 L 120.38 154.92 C 119.49 154.93 118.79 155.65 118.81 156.54 C 118.82 157.42 119.54 158.12 120.42 158.11 Z M 121.43 158.09 L 122.45 158.08 C 123.33 158.07 124.03 157.34 124.02 156.46 C 124.01 155.58 123.28 154.87 122.40 154.89 L 121.39 154.90 C 120.51 154.91 119.80 155.64 119.82 156.52 C 119.83 157.40 120.55 158.10 121.43 158.09 Z M 122.44 158.08 L 123.45 158.07 C 124.34 158.06 125.04 157.33 125.03 156.45 C 125.02 155.57 124.30 154.86 123.42 154.87 L 122.41 154.88 C 121.52 154.89 120.82 155.62 120.83 156.50 C 120.84 157.38 121.56 158.09 122.44 158.08 Z M 123.45 158.07 L 124.45 158.06 C 125.34 158.05 126.05 157.33 126.04 156.44 C 126.03 155.56 125.31 154.85 124.42 154.86 L 123.42 154.87 C 122.54 154.88 121.83 155.60 121.83 156.49 C 121.84 157.37 122.57 158.08 123.45 158.07 Z M 124.45 158.06 L 125.45 158.05 C 126.33 158.05 127.04 157.32 127.04 156.44 C 127.03 155.56 126.31 154.84 125.42 154.85 L 124.42 154.86 C 123.54 154.87 122.83 155.59 122.84 156.47 C 122.84 157.36 123.57 158.07 124.45 158.06 Z M 125.44 158.05 L 126.47 158.05 C 127.36 158.04 128.07 157.32 128.06 156.44 C 128.06 155.55 127.33 154.84 126.45 154.84 L 125.42 154.85 C 124.54 154.86 123.83 155.58 123.83 156.46 C 123.84 157.35 124.56 158.06 125.44 158.05 Z M 126.47 158.05 L 127.48 158.04 C 128.37 158.04 129.08 157.32 129.08 156.43 C 129.07 155.55 128.35 154.83 127.47 154.84 L 126.45 154.84 C 125.57 154.85 124.85 155.57 124.86 156.45 C 124.86 157.34 125.58 158.05 126.47 158.05 Z M 127.48 158.04 L 128.48 158.04 C 129.37 158.04 130.08 157.32 130.08 156.43 C 130.08 155.55 129.36 154.83 128.47 154.83 L 127.47 154.84 C 126.58 154.84 125.87 155.56 125.87 156.45 C 125.87 157.33 126.59 158.05 127.48 158.04 Z M 128.48 158.04 L 129.48 158.04 C 130.36 158.04 131.08 157.32 131.08 156.43 C 131.07 155.55 130.35 154.83 129.47 154.83 L 128.47 154.83 C 127.59 154.84 126.87 155.56 126.87 156.44 C 126.88 157.33 127.60 158.04 128.48 158.04 Z M 129.47 158.04 L 130.47 158.04 C 131.35 158.04 132.07 157.32 132.07 156.43 C 132.06 155.55 131.35 154.83 130.46 154.83 L 129.47 154.83 C 128.58 154.83 127.87 155.55 127.87 156.44 C 127.87 157.32 128.59 158.04 129.47 158.04 Z M 130.46 158.04 L 131.45 158.04 C 132.34 158.04 133.06 157.32 133.06 156.43 C 133.05 155.55 132.34 154.83 131.45 154.83 L 130.46 154.83 C 129.58 154.83 128.86 155.55 128.86 156.43 C 128.86 157.32 129.58 158.04 130.46 158.04 Z M 131.45 158.04 L 132.44 158.04 C 133.33 158.04 134.04 157.32 134.04 156.43 C 134.04 155.55 133.33 154.83 132.44 154.83 L 131.45 154.83 C 130.56 154.83 129.85 155.55 129.85 156.43 C 129.85 157.32 130.57 158.04 131.45 158.04 Z M 132.44 158.04 L 133.43 158.04 C 134.32 158.04 135.04 157.32 135.04 156.43 C 135.04 155.55 134.32 154.83 133.43 154.83 L 132.44 154.83 C 131.55 154.83 130.83 155.55 130.84 156.43 C 130.84 157.32 131.55 158.04 132.44 158.04 Z M 133.43 158.04 L 134.44 158.04 C 135.32 158.04 136.04 157.32 136.04 156.43 C 136.04 155.55 135.32 154.83 134.44 154.83 L 133.43 154.83 C 132.55 154.83 131.83 155.55 131.83 156.43 C 131.83 157.32 132.54 158.04 133.43 158.04 Z M 134.44 158.04 L 135.45 158.04 C 136.33 158.04 137.05 157.32 137.06 156.43 C 137.06 155.55 136.34 154.83 135.45 154.83 L 134.44 154.83 C 133.55 154.82 132.83 155.54 132.83 156.43 C 132.83 157.32 133.55 158.04 134.44 158.04 Z M 135.44 158.04 L 136.46 158.04 C 137.34 158.05 138.07 157.33 138.07 156.44 C 138.07 155.55 137.35 154.83 136.47 154.83 L 135.45 154.83 C 134.57 154.82 133.84 155.54 133.84 156.43 C 133.84 157.32 134.56 158.04 135.44 158.04 Z M 136.45 158.04 L 137.46 158.05 C 138.35 158.06 139.07 157.34 139.08 156.45 C 139.08 155.56 138.37 154.84 137.48 154.83 L 136.47 154.83 C 135.58 154.82 134.86 155.54 134.85 156.43 C 134.85 157.32 135.56 158.04 136.45 158.04 Z M 137.45 158.05 L 138.46 158.06 C 139.35 158.07 140.08 157.36 140.09 156.47 C 140.09 155.58 139.38 154.85 138.49 154.84 L 137.49 154.83 C 136.60 154.82 135.87 155.54 135.86 156.43 C 135.85 157.32 136.57 158.04 137.45 158.05 Z M 138.45 158.06 L 139.45 158.08 C 140.34 158.09 141.07 157.38 141.08 156.49 C 141.10 155.60 140.39 154.87 139.50 154.86 L 138.50 154.84 C 137.61 154.83 136.88 155.54 136.87 156.43 C 136.85 157.32 137.56 158.05 138.45 158.06 Z M 139.44 158.08 L 140.43 158.10 C 141.32 158.12 142.05 157.41 142.07 156.52 C 142.09 155.63 141.39 154.89 140.50 154.88 L 139.51 154.86 C 138.62 154.84 137.88 155.54 137.86 156.43 C 137.84 157.32 138.55 158.06 139.44 158.08 Z M 140.42 158.10 L 141.39 158.13 C 142.28 158.15 143.02 157.45 143.05 156.56 C 143.07 155.67 142.37 154.93 141.48 154.90 L 140.51 154.88 C 139.62 154.85 138.88 155.55 138.85 156.44 C 138.82 157.33 139.53 158.07 140.42 158.10 Z M 141.38 158.13 L 142.40 158.16 C 143.29 158.20 144.04 157.50 144.07 156.61 C 144.11 155.72 143.41 154.97 142.52 154.94 L 141.50 154.90 C 140.61 154.87 139.86 155.56 139.82 156.45 C 139.79 157.35 140.49 158.09 141.38 158.13 Z M 142.39 158.16 L 143.41 158.21 C 144.30 158.25 145.05 157.56 145.10 156.67 C 145.14 155.78 144.45 155.03 143.56 154.99 L 142.53 154.94 C 141.64 154.90 140.89 155.59 140.85 156.48 C 140.81 157.37 141.50 158.12 142.39 158.16 Z M 143.40 158.21 L 144.41 158.27 C 145.29 158.31 146.06 157.63 146.10 156.74 C 146.15 155.85 145.47 155.09 144.58 155.04 L 143.57 154.99 C 142.68 154.94 141.92 155.62 141.87 156.51 C 141.82 157.40 142.51 158.16 143.40 158.21 Z M 144.39 158.26 L 145.39 158.33 C 146.28 158.38 147.05 157.70 147.10 156.81 C 147.15 155.92 146.48 155.16 145.59 155.10 L 144.59 155.04 C 143.70 154.99 142.94 155.67 142.88 156.56 C 142.83 157.45 143.51 158.21 144.39 158.26 Z M 145.38 158.32 L 146.37 158.39 C 147.26 158.45 148.03 157.77 148.09 156.89 C 148.14 156.00 147.47 155.23 146.58 155.17 L 145.59 155.10 C 144.71 155.05 143.94 155.72 143.88 156.61 C 143.82 157.50 144.49 158.27 145.38 158.32 Z M 146.36 158.39 L 147.34 158.46 C 148.23 158.52 149.00 157.85 149.07 156.96 C 149.13 156.07 148.46 155.30 147.57 155.24 L 146.59 155.17 C 145.70 155.11 144.93 155.78 144.87 156.67 C 144.80 157.56 145.47 158.33 146.36 158.39 Z M 147.34 158.46 L 148.32 158.53 C 149.21 158.59 149.98 157.92 150.04 157.03 C 150.11 156.15 149.44 155.37 148.55 155.31 L 147.57 155.24 C 146.68 155.17 145.91 155.84 145.85 156.73 C 145.78 157.62 146.45 158.39 147.34 158.46 Z M 148.32 158.53 L 149.29 158.60 C 150.18 158.66 150.96 158.00 151.02 157.11 C 151.09 156.22 150.42 155.45 149.53 155.38 L 148.55 155.31 C 147.66 155.24 146.89 155.91 146.82 156.80 C 146.76 157.69 147.43 158.46 148.32 158.53 Z M 149.29 158.60 L 150.28 158.67 C 151.17 158.74 151.95 158.07 152.01 157.18 C 152.08 156.29 151.41 155.52 150.52 155.45 L 149.53 155.38 C 148.64 155.32 147.87 155.98 147.80 156.87 C 147.74 157.76 148.41 158.53 149.29 158.60 Z M 150.28 158.67 L 151.27 158.74 C 152.16 158.81 152.94 158.14 153.00 157.25 C 153.07 156.36 152.40 155.59 151.51 155.53 L 150.52 155.45 C 149.63 155.39 148.86 156.06 148.79 156.94 C 148.73 157.83 149.39 158.61 150.28 158.67 Z M 151.27 158.74 L 152.27 158.82 C 153.15 158.88 153.93 158.21 153.99 157.33 C 154.06 156.44 153.39 155.66 152.50 155.60 L 151.51 155.53 C 150.62 155.46 149.85 156.13 149.78 157.02 C 149.72 157.91 150.38 158.68 151.27 158.74 Z M 152.27 158.82 L 153.26 158.89 C 154.15 158.95 154.92 158.29 154.99 157.40 C 155.05 156.51 154.38 155.74 153.50 155.67 L 152.50 155.60 C 151.61 155.53 150.84 156.20 150.77 157.09 C 150.71 157.98 151.38 158.75 152.27 158.82 Z M 153.26 158.89 L 154.26 158.96 C 155.15 159.03 155.92 158.36 155.99 157.47 C 156.05 156.58 155.38 155.81 154.50 155.74 L 153.50 155.67 C 152.61 155.61 151.83 156.27 151.77 157.16 C 151.71 158.05 152.37 158.82 153.26 158.89 Z M 154.26 158.96 L 155.27 159.03 C 156.16 159.10 156.93 158.43 156.99 157.54 C 157.06 156.65 156.39 155.88 155.50 155.82 L 154.50 155.74 C 153.61 155.68 152.83 156.35 152.77 157.24 C 152.71 158.13 153.37 158.90 154.26 158.96 Z M 155.27 159.03 L 156.28 159.11 C 157.17 159.17 157.94 158.50 158.00 157.61 C 158.07 156.72 157.40 155.95 156.51 155.89 L 155.50 155.82 C 154.61 155.75 153.84 156.42 153.78 157.31 C 153.71 158.20 154.38 158.97 155.27 159.03 Z M 156.28 159.11 L 157.25 159.17 C 158.13 159.24 158.91 158.57 158.97 157.68 C 159.03 156.79 158.36 156.02 157.47 155.96 L 156.51 155.89 C 155.62 155.83 154.85 156.50 154.79 157.38 C 154.72 158.27 155.39 159.04 156.28 159.11 Z M 157.25 159.17 L 158.22 159.24 C 159.10 159.30 159.87 158.63 159.94 157.75 C 160.00 156.86 159.33 156.09 158.44 156.03 L 157.47 155.96 C 156.59 155.90 155.82 156.57 155.75 157.45 C 155.69 158.34 156.36 159.11 157.25 159.17 Z M 158.22 159.24 L 159.20 159.31 C 160.09 159.37 160.85 158.70 160.91 157.81 C 160.97 156.92 160.30 156.16 159.42 156.09 L 158.44 156.03 C 157.55 155.97 156.78 156.64 156.72 157.52 C 156.66 158.41 157.33 159.18 158.22 159.24 Z M 159.20 159.30 L 160.19 159.37 C 161.08 159.43 161.84 158.76 161.90 157.87 C 161.96 156.98 161.29 156.22 160.40 156.16 L 159.41 156.10 C 158.53 156.04 157.76 156.71 157.70 157.60 C 157.65 158.48 158.32 159.25 159.20 159.30 Z M 160.20 159.37 L 161.20 159.43 C 162.08 159.49 162.85 158.81 162.90 157.93 C 162.96 157.04 162.28 156.28 161.40 156.22 L 160.40 156.16 C 159.51 156.11 158.75 156.78 158.69 157.67 C 158.64 158.55 159.31 159.31 160.20 159.37 Z M 161.20 159.43 L 162.22 159.49 C 163.10 159.54 163.86 158.87 163.92 157.98 C 163.97 157.10 163.29 156.34 162.41 156.29 L 161.39 156.23 C 160.51 156.17 159.75 156.85 159.70 157.73 C 159.64 158.62 160.32 159.38 161.20 159.43 Z M 162.23 159.49 L 163.26 159.54 C 164.14 159.59 164.90 158.92 164.94 158.03 C 164.99 157.15 164.31 156.39 163.43 156.34 L 162.40 156.29 C 161.52 156.24 160.76 156.92 160.71 157.80 C 160.66 158.68 161.34 159.44 162.23 159.49 Z M 163.26 159.54 L 164.30 159.60 C 165.19 159.64 165.94 158.96 165.98 158.08 C 166.03 157.19 165.34 156.44 164.46 156.40 L 163.42 156.34 C 162.54 156.30 161.79 156.98 161.74 157.86 C 161.70 158.75 162.38 159.50 163.26 159.54 Z M 164.31 159.59 L 165.32 159.64 C 166.20 159.68 166.95 159.00 166.99 158.11 C 167.03 157.23 166.35 156.48 165.46 156.44 L 164.45 156.40 C 163.57 156.36 162.82 157.04 162.78 157.92 C 162.74 158.81 163.43 159.56 164.31 159.59 Z M 165.32 159.64 L 166.34 159.68 C 167.23 159.72 167.97 159.03 168.01 158.15 C 168.04 157.27 167.36 156.52 166.47 156.48 L 165.46 156.44 C 164.57 156.41 163.83 157.09 163.79 157.98 C 163.76 158.86 164.44 159.60 165.32 159.64 Z M 166.35 159.68 L 167.37 159.72 C 168.25 159.75 168.99 159.06 169.03 158.18 C 169.06 157.30 168.37 156.56 167.49 156.52 L 166.47 156.48 C 165.59 156.45 164.84 157.14 164.81 158.02 C 164.78 158.91 165.47 159.65 166.35 159.68 Z M 167.37 159.72 L 168.39 159.75 C 169.28 159.78 170.01 159.09 170.04 158.21 C 170.07 157.33 169.38 156.59 168.50 156.56 L 167.48 156.52 C 166.60 156.49 165.86 157.18 165.83 158.07 C 165.80 158.95 166.49 159.69 167.37 159.72 Z M 168.40 159.75 L 169.41 159.78 C 170.29 159.81 171.03 159.12 171.05 158.24 C 171.08 157.36 170.39 156.62 169.51 156.59 L 168.50 156.56 C 167.62 156.53 166.88 157.22 166.85 158.11 C 166.82 158.99 167.52 159.72 168.40 159.75 Z M 169.41 159.78 L 170.41 159.81 C 171.29 159.84 172.02 159.14 172.05 158.26 C 172.07 157.38 171.38 156.65 170.50 156.62 L 169.50 156.59 C 168.62 156.57 167.89 157.26 167.86 158.14 C 167.84 159.02 168.53 159.76 169.41 159.78 Z M 170.41 159.81 L 171.39 159.84 C 172.27 159.86 173.00 159.17 173.02 158.29 C 173.05 157.41 172.35 156.67 171.47 156.65 L 170.50 156.62 C 169.62 156.60 168.88 157.29 168.86 158.17 C 168.84 159.05 169.53 159.79 170.41 159.81 Z M 171.39 159.84 L 172.34 159.86 C 173.22 159.88 173.95 159.19 173.97 158.31 C 174.00 157.43 173.30 156.70 172.42 156.67 L 171.47 156.65 C 170.59 156.63 169.86 157.32 169.84 158.20 C 169.82 159.08 170.51 159.81 171.39 159.84 Z M 172.34 159.86 L 173.44 159.88 C 174.31 159.91 175.04 159.21 175.07 158.33 C 175.09 157.45 174.39 156.72 173.51 156.70 L 172.42 156.68 C 171.54 156.65 170.81 157.35 170.79 158.23 C 170.77 159.11 171.46 159.84 172.34 159.86 Z M 173.44 159.88 L 174.50 159.91 C 175.38 159.93 176.11 159.23 176.13 158.35 C 176.15 157.48 175.45 156.75 174.57 156.73 L 173.51 156.70 C 172.63 156.68 171.90 157.38 171.88 158.26 C 171.86 159.14 172.56 159.86 173.44 159.88 Z M 174.51 159.91 L 175.53 159.93 C 176.41 159.95 177.13 159.25 177.15 158.37 C 177.17 157.49 176.48 156.77 175.60 156.75 L 174.57 156.73 C 173.69 156.71 172.97 157.41 172.95 158.28 C 172.93 159.16 173.63 159.89 174.51 159.91 Z M 175.53 159.93 L 176.53 159.94 C 177.40 159.96 178.13 159.26 178.14 158.39 C 178.16 157.51 177.46 156.79 176.59 156.77 L 175.59 156.75 C 174.72 156.74 173.99 157.43 173.98 158.31 C 173.96 159.19 174.66 159.91 175.53 159.93 Z M 176.53 159.94 L 177.49 159.96 C 178.37 159.97 179.09 159.28 179.10 158.40 C 179.12 157.52 178.42 156.80 177.54 156.79 L 176.58 156.77 C 175.71 156.76 174.99 157.46 174.97 158.33 C 174.96 159.21 175.65 159.93 176.53 159.94 Z M 177.49 159.96 L 178.43 159.97 C 179.30 159.98 180.02 159.28 180.04 158.41 C 180.05 157.53 179.35 156.82 178.47 156.80 L 177.54 156.79 C 176.66 156.78 175.95 157.48 175.93 158.35 C 175.92 159.23 176.62 159.95 177.49 159.96 Z M 178.43 159.97 L 179.36 159.98 C 180.24 159.99 180.95 159.29 180.96 158.42 C 180.97 157.54 180.27 156.82 179.40 156.82 L 178.47 156.80 C 177.60 156.79 176.88 157.49 176.87 158.37 C 176.86 159.24 177.56 159.96 178.43 159.97 Z M 179.37 159.98 L 180.41 159.99 C 181.28 159.99 182.00 159.29 182.01 158.42 C 182.01 157.55 181.31 156.83 180.44 156.83 L 179.39 156.82 C 178.52 156.81 177.81 157.51 177.80 158.38 C 177.79 159.26 178.50 159.97 179.37 159.98 Z M 180.42 159.98 L 181.44 159.99 C 182.31 160.00 183.02 159.29 183.02 158.42 C 183.03 157.55 182.33 156.84 181.45 156.83 L 180.43 156.83 C 179.56 156.82 178.85 157.53 178.85 158.40 C 178.84 159.27 179.54 159.98 180.42 159.98 Z M 181.44 159.99 L 182.44 159.99 C 183.31 159.99 184.02 159.29 184.02 158.42 C 184.03 157.55 183.32 156.84 182.45 156.84 L 181.45 156.84 C 180.58 156.83 179.87 157.54 179.87 158.41 C 179.87 159.28 180.57 159.99 181.44 159.99 Z M 182.44 159.99 L 183.43 159.99 C 184.30 159.99 185.00 159.29 185.01 158.42 C 185.01 157.55 184.30 156.84 183.43 156.84 L 182.45 156.84 C 181.58 156.84 180.87 157.54 180.87 158.41 C 180.87 159.28 181.57 159.99 182.44 159.99 Z M 183.43 159.99 L 184.40 159.99 C 185.27 159.99 185.97 159.29 185.98 158.42 C 185.98 157.55 185.27 156.84 184.40 156.84 L 183.43 156.84 C 182.56 156.84 181.86 157.55 181.86 158.42 C 181.86 159.28 182.56 159.99 183.43 159.99 Z M 184.40 159.99 L 185.39 159.99 C 186.26 159.99 186.96 159.28 186.96 158.42 C 186.96 157.55 186.26 156.85 185.39 156.85 L 184.40 156.85 C 183.53 156.85 182.83 157.55 182.83 158.42 C 182.83 159.28 183.53 159.99 184.40 159.99 Z M 185.39 159.99 L 186.44 159.99 C 187.31 159.99 188.01 159.28 188.01 158.42 C 188.01 157.55 187.31 156.85 186.44 156.85 L 185.39 156.85 C 184.53 156.85 183.82 157.55 183.82 158.42 C 183.82 159.28 184.53 159.99 185.39 159.99 Z M 186.44 159.98 L 187.47 159.98 C 188.34 159.98 189.04 159.28 189.04 158.42 C 189.04 157.55 188.34 156.85 187.47 156.85 L 186.44 156.85 C 185.58 156.85 184.88 157.55 184.88 158.42 C 184.88 159.28 185.58 159.98 186.44 159.98 Z M 187.47 159.98 L 188.48 159.98 C 189.34 159.98 190.04 159.28 190.04 158.42 C 190.04 157.55 189.34 156.85 188.48 156.85 L 187.47 156.85 C 186.61 156.85 185.91 157.55 185.91 158.42 C 185.91 159.28 186.61 159.98 187.47 159.98 Z M 188.48 159.98 L 189.44 159.98 C 190.31 159.98 191.01 159.28 191.01 158.42 C 191.01 157.55 190.31 156.85 189.44 156.85 L 188.48 156.85 C 187.61 156.85 186.91 157.55 186.91 158.42 C 186.91 159.28 187.61 159.98 188.48 159.98 Z M 189.44 159.98 L 190.38 159.98 C 191.24 159.98 191.94 159.28 191.94 158.42 C 191.94 157.55 191.24 156.86 190.38 156.86 L 189.44 156.86 C 188.58 156.86 187.88 157.55 187.88 158.42 C 187.88 159.28 188.58 159.98 189.44 159.98 Z M 190.38 159.98 L 191.44 159.98 C 192.30 159.98 193.00 159.28 193.00 158.42 C 193.00 157.56 192.30 156.86 191.44 156.86 L 190.38 156.86 C 189.52 156.86 188.82 157.56 188.82 158.42 C 188.82 159.28 189.52 159.98 190.38 159.98 Z M 191.44 159.98 L 192.44 159.98 C 193.31 159.98 194.00 159.28 194.00 158.42 C 194.00 157.56 193.31 156.86 192.44 156.86 L 191.44 156.86 C 190.57 156.86 189.87 157.56 189.87 158.42 C 189.87 159.28 190.57 159.98 191.44 159.98 Z M 192.44 159.98 L 193.42 159.98 C 194.28 159.98 194.98 159.28 194.98 158.42 C 194.98 157.56 194.28 156.86 193.42 156.86 L 192.44 156.86 C 191.58 156.86 190.88 157.56 190.88 158.42 C 190.88 159.28 191.58 159.98 192.44 159.98 Z M 193.42 159.98 L 194.38 159.98 C 195.25 159.98 195.95 159.28 195.95 158.42 C 195.95 157.56 195.25 156.86 194.38 156.86 L 193.42 156.86 C 192.56 156.86 191.86 157.56 191.86 158.42 C 191.86 159.28 192.56 159.98 193.42 159.98 Z M 194.38 159.98 L 195.37 159.98 C 196.24 159.98 196.93 159.28 196.93 158.42 C 196.93 157.56 196.24 156.86 195.37 156.86 L 194.38 156.86 C 193.52 156.86 192.82 157.56 192.82 158.42 C 192.82 159.28 193.52 159.98 194.38 159.98 Z M 195.37 159.98 L 196.38 159.98 C 197.24 159.98 197.94 159.28 197.94 158.42 C 197.94 157.56 197.24 156.86 196.38 156.86 L 195.37 156.86 C 194.51 156.86 193.81 157.56 193.81 158.42 C 193.81 159.28 194.51 159.98 195.37 159.98 Z M 196.38 159.98 L 197.38 159.98 C 198.25 159.98 198.95 159.28 198.95 158.42 C 198.95 157.56 198.25 156.86 197.38 156.86 L 196.38 156.86 C 195.52 156.86 194.82 157.56 194.82 158.42 C 194.82 159.28 195.52 159.98 196.38 159.98 Z M 197.38 159.98 L 198.38 159.98 C 199.25 159.98 199.94 159.28 199.94 158.42 C 199.94 157.56 199.25 156.86 198.38 156.86 L 197.38 156.86 C 196.52 156.86 195.82 157.56 195.82 158.42 C 195.82 159.28 196.52 159.98 197.38 159.98 Z M 198.38 159.98 L 199.39 159.98 C 200.26 159.98 200.96 159.28 200.96 158.42 C 200.96 157.56 200.26 156.86 199.39 156.86 L 198.38 156.86 C 197.52 156.86 196.82 157.56 196.82 158.42 C 196.82 159.28 197.52 159.98 198.38 159.98 Z M 199.39 159.98 L 200.42 159.98 C 201.28 159.98 201.98 159.28 201.98 158.42 C 201.98 157.56 201.28 156.86 200.42 156.86 L 199.39 156.86 C 198.53 156.86 197.83 157.56 197.83 158.42 C 197.83 159.28 198.53 159.98 199.39 159.98 Z M 200.42 159.98 L 201.42 159.98 C 202.28 159.98 202.98 159.28 202.98 158.42 C 202.98 157.56 202.28 156.86 201.42 156.86 L 200.42 156.86 C 199.56 156.86 198.86 157.56 198.86 158.42 C 198.86 159.28 199.56 159.98 200.42 159.98 Z M 201.42 159.98 L 202.40 159.98 C 203.26 159.98 203.96 159.28 203.96 158.42 C 203.96 157.56 203.26 156.86 202.40 156.86 L 201.42 156.86 C 200.56 156.86 199.86 157.56 199.86 158.42 C 199.86 159.28 200.56 159.98 201.42 159.98 Z M 202.40 159.98 L 203.35 159.98 C 204.21 159.98 204.91 159.28 204.91 158.42 C 204.91 157.56 204.21 156.86 203.35 156.86 L 202.40 156.86 C 201.54 156.86 200.84 157.56 200.84 158.42 C 200.84 159.28 201.54 159.98 202.40 159.98 Z M 203.35 159.98 L 204.29 159.98 C 205.16 159.98 205.86 159.28 205.86 158.42 C 205.86 157.56 205.16 156.86 204.29 156.86 L 203.35 156.86 C 202.49 156.86 201.79 157.56 201.79 158.42 C 201.79 159.28 202.49 159.98 203.35 159.98 Z M 204.29 159.98 L 205.27 159.98 C 206.13 159.98 206.83 159.28 206.83 158.42 C 206.83 157.56 206.13 156.86 205.27 156.86 L 204.29 156.86 C 203.43 156.86 202.73 157.56 202.73 158.42 C 202.73 159.28 203.43 159.98 204.29 159.98 Z M 205.27 159.98 L 206.31 159.98 C 207.18 159.98 207.87 159.28 207.87 158.42 C 207.87 157.56 207.18 156.86 206.31 156.86 L 205.27 156.86 C 204.41 156.86 203.71 157.56 203.71 158.42 C 203.71 159.28 204.41 159.98 205.27 159.98 Z M 206.31 159.98 L 207.34 159.98 C 208.20 159.98 208.90 159.28 208.90 158.42 C 208.90 157.56 208.20 156.86 207.34 156.86 L 206.31 156.86 C 205.45 156.86 204.75 157.55 204.75 158.42 C 204.75 159.28 205.45 159.98 206.31 159.98 Z M 207.34 159.98 L 208.31 159.98 C 209.18 159.98 209.88 159.28 209.88 158.42 C 209.88 157.56 209.18 156.86 208.32 156.86 L 207.34 156.86 C 206.48 156.85 205.78 157.55 205.78 158.41 C 205.78 159.28 206.48 159.98 207.34 159.98 Z M 208.31 159.98 L 209.32 159.99 C 210.19 159.99 210.89 159.30 210.89 158.44 C 210.90 157.57 210.21 156.87 209.34 156.86 L 208.33 156.86 C 207.46 156.85 206.76 157.55 206.76 158.41 C 206.75 159.27 207.44 159.97 208.31 159.98 Z M 209.31 159.99 L 210.34 160.00 C 211.20 160.01 211.91 159.32 211.92 158.46 C 211.94 157.60 211.25 156.89 210.38 156.88 L 209.36 156.86 C 208.49 156.85 207.78 157.54 207.77 158.40 C 207.76 159.27 208.45 159.97 209.31 159.99 Z M 210.32 160.00 L 211.34 160.03 C 212.20 160.05 212.92 159.37 212.94 158.51 C 212.96 157.64 212.28 156.93 211.42 156.91 L 210.40 156.88 C 209.54 156.86 208.82 157.54 208.80 158.40 C 208.78 159.26 209.46 159.98 210.32 160.00 Z M 211.31 160.03 L 212.35 160.07 C 213.21 160.10 213.94 159.44 213.97 158.57 C 214.01 157.71 213.34 156.99 212.48 156.95 L 211.44 156.91 C 210.58 156.87 209.86 157.54 209.82 158.40 C 209.78 159.26 210.45 159.99 211.31 160.03 Z M 212.31 160.07 L 213.35 160.14 C 214.21 160.19 214.96 159.54 215.01 158.68 C 215.07 157.82 214.42 157.08 213.56 157.02 L 212.52 156.95 C 211.66 156.89 210.92 157.54 210.86 158.40 C 210.80 159.26 211.45 160.01 212.31 160.07 Z M 213.29 160.13 L 214.29 160.24 C 215.14 160.33 215.91 159.70 216.00 158.85 C 216.09 157.99 215.47 157.22 214.61 157.13 L 213.62 157.03 C 212.76 156.94 211.99 157.56 211.90 158.42 C 211.81 159.27 212.44 160.04 213.29 160.13 Z M 214.21 160.23 L 215.17 160.37 C 216.02 160.50 216.82 159.92 216.95 159.06 C 217.08 158.21 216.49 157.42 215.64 157.29 L 214.68 157.14 C 213.83 157.01 213.04 157.60 212.91 158.45 C 212.78 159.30 213.36 160.10 214.21 160.23 Z M 215.08 160.36 L 216.01 160.55 C 216.86 160.73 217.68 160.19 217.86 159.35 C 218.04 158.50 217.50 157.68 216.66 157.50 L 215.73 157.30 C 214.88 157.12 214.05 157.66 213.88 158.51 C 213.70 159.35 214.24 160.18 215.08 160.36 Z M 215.92 160.53 L 216.91 160.81 C 217.75 161.04 218.61 160.55 218.84 159.72 C 219.07 158.89 218.58 158.03 217.75 157.80 L 216.75 157.52 C 215.92 157.29 215.06 157.78 214.83 158.61 C 214.60 159.44 215.09 160.30 215.92 160.53 Z M 216.84 160.78 L 217.82 161.10 C 218.63 161.37 219.52 160.93 219.79 160.11 C 220.06 159.29 219.61 158.41 218.79 158.14 L 217.82 157.82 C 217.00 157.55 216.12 157.99 215.85 158.81 C 215.58 159.63 216.03 160.52 216.84 160.78 Z M 217.78 161.09 L 218.71 161.43 C 219.52 161.72 220.42 161.29 220.71 160.48 C 221.00 159.67 220.58 158.78 219.77 158.49 L 218.83 158.15 C 218.02 157.86 217.12 158.28 216.83 159.09 C 216.54 159.91 216.96 160.80 217.78 161.09 Z M 218.70 161.42 L 219.60 161.75 C 220.41 162.04 221.30 161.63 221.60 160.82 C 221.89 160.01 221.48 159.11 220.67 158.81 L 219.77 158.49 C 218.96 158.19 218.07 158.61 217.77 159.42 C 217.48 160.23 217.89 161.13 218.70 161.42 Z M 219.62 161.76 L 220.62 162.10 C 221.43 162.39 222.32 161.95 222.61 161.14 C 222.89 160.33 222.46 159.44 221.64 159.15 L 220.64 158.81 C 219.83 158.52 218.94 158.95 218.66 159.77 C 218.37 160.58 218.80 161.47 219.62 161.76 Z M 220.65 162.11 L 221.60 162.42 C 222.42 162.69 223.30 162.24 223.57 161.42 C 223.83 160.60 223.38 159.72 222.57 159.45 L 221.61 159.14 C 220.79 158.88 219.91 159.32 219.65 160.14 C 219.38 160.96 219.83 161.85 220.65 162.11 Z M 221.62 162.43 L 222.53 162.71 C 223.36 162.97 224.23 162.51 224.49 161.69 C 224.75 160.87 224.29 159.99 223.46 159.73 L 222.55 159.45 C 221.72 159.19 220.85 159.65 220.59 160.47 C 220.33 161.30 220.79 162.17 221.62 162.43 Z M 222.54 162.72 L 222.93 162.84 C 223.75 163.09 224.62 162.63 224.88 161.80 C 225.13 160.98 224.67 160.11 223.85 159.85 L 223.46 159.73 C 222.63 159.48 221.76 159.94 221.51 160.77 C 221.25 161.59 221.71 162.46 222.54 162.72 Z"
      fill="black"
      fill-rule="nonzero" /><path d="M 153.94 91.93 L 153.37 92.67 C 152.84 93.35 152.97 94.33 153.66 94.86 C 154.34 95.38 155.32 95.25 155.85 94.57 L 156.41 93.83 C 156.94 93.15 156.81 92.17 156.12 91.64 C 155.44 91.12 154.46 91.24 153.94 91.93 Z M 153.34 92.71 L 152.77 93.50 C 152.27 94.20 152.43 95.17 153.13 95.68 C 153.83 96.18 154.81 96.02 155.31 95.32 L 155.88 94.53 C 156.38 93.83 156.22 92.85 155.52 92.35 C 154.82 91.85 153.84 92.01 153.34 92.71 Z M 152.72 93.57 L 152.16 94.47 C 151.69 95.19 151.91 96.16 152.64 96.62 C 153.37 97.08 154.33 96.86 154.79 96.14 L 155.36 95.24 C 155.82 94.51 155.61 93.55 154.88 93.09 C 154.15 92.63 153.18 92.84 152.72 93.57 Z M 152.11 94.55 L 151.63 95.43 C 151.21 96.18 151.49 97.13 152.24 97.55 C 153.00 97.96 153.95 97.68 154.36 96.93 L 154.84 96.05 C 155.26 95.30 154.98 94.35 154.23 93.93 C 153.47 93.52 152.52 93.79 152.11 94.55 Z M 151.59 95.50 L 151.15 96.40 C 150.78 97.17 151.10 98.11 151.88 98.48 C 152.66 98.86 153.59 98.53 153.96 97.76 L 154.40 96.86 C 154.78 96.08 154.45 95.15 153.67 94.77 C 152.90 94.40 151.96 94.72 151.59 95.50 Z M 151.13 96.46 L 150.72 97.40 C 150.38 98.20 150.74 99.11 151.54 99.45 C 152.33 99.80 153.25 99.43 153.59 98.64 L 153.99 97.69 C 154.33 96.90 153.97 95.98 153.18 95.64 C 152.38 95.30 151.47 95.67 151.13 96.46 Z M 150.69 97.47 L 150.33 98.42 C 150.03 99.23 150.43 100.13 151.24 100.43 C 152.05 100.74 152.95 100.33 153.25 99.52 L 153.61 98.57 C 153.92 97.77 153.51 96.87 152.71 96.56 C 151.90 96.25 151.00 96.66 150.69 97.47 Z M 150.31 98.49 L 150.00 99.46 C 149.73 100.28 150.18 101.16 151.00 101.42 C 151.83 101.69 152.70 101.24 152.97 100.42 L 153.28 99.45 C 153.54 98.63 153.09 97.75 152.27 97.49 C 151.45 97.22 150.57 97.67 150.31 98.49 Z M 149.97 99.55 L 149.72 100.51 C 149.50 101.35 150.01 102.20 150.84 102.41 C 151.67 102.63 152.53 102.13 152.74 101.30 L 152.99 100.33 C 153.21 99.50 152.71 98.64 151.87 98.43 C 151.04 98.21 150.19 98.71 149.97 99.55 Z M 149.70 100.59 L 149.51 101.55 C 149.34 102.40 149.88 103.22 150.73 103.39 C 151.57 103.57 152.39 103.02 152.57 102.17 L 152.76 101.21 C 152.93 100.37 152.39 99.55 151.54 99.37 C 150.70 99.20 149.87 99.75 149.70 100.59 Z M 149.49 101.62 L 149.34 102.60 C 149.20 103.45 149.78 104.25 150.63 104.39 C 151.49 104.52 152.29 103.94 152.42 103.09 L 152.58 102.11 C 152.71 101.26 152.13 100.46 151.28 100.32 C 150.43 100.19 149.63 100.77 149.49 101.62 Z M 149.33 102.65 L 149.20 103.64 C 149.09 104.49 149.69 105.28 150.55 105.39 C 151.40 105.50 152.19 104.90 152.30 104.04 L 152.43 103.05 C 152.54 102.19 151.94 101.41 151.08 101.30 C 150.23 101.19 149.44 101.79 149.33 102.65 Z M 149.20 103.67 L 149.09 104.68 C 148.99 105.54 149.61 106.31 150.47 106.41 C 151.33 106.50 152.10 105.88 152.19 105.02 L 152.30 104.01 C 152.40 103.15 151.78 102.38 150.92 102.29 C 150.06 102.20 149.29 102.81 149.20 103.67 Z M 149.09 104.71 L 148.99 105.72 C 148.91 106.58 149.54 107.34 150.40 107.42 C 151.26 107.50 152.02 106.87 152.10 106.01 L 152.19 105.00 C 152.27 104.14 151.64 103.38 150.78 103.30 C 149.93 103.22 149.17 103.85 149.09 104.71 Z M 148.99 105.74 L 148.91 106.72 C 148.84 107.58 149.49 108.33 150.35 108.40 C 151.21 108.47 151.96 107.83 152.02 106.97 L 152.10 105.99 C 152.17 105.13 151.53 104.38 150.67 104.31 C 149.81 104.24 149.06 104.88 148.99 105.74 Z M 148.91 106.75 L 148.84 107.78 C 148.79 108.64 149.44 109.38 150.30 109.44 C 151.16 109.49 151.91 108.84 151.96 107.98 L 152.03 106.95 C 152.08 106.09 151.43 105.34 150.57 105.29 C 149.71 105.23 148.97 105.89 148.91 106.75 Z M 148.84 107.81 L 148.79 108.81 C 148.75 109.67 149.42 110.40 150.28 110.45 C 151.14 110.49 151.87 109.82 151.91 108.96 L 151.96 107.95 C 152.00 107.09 151.34 106.36 150.48 106.32 C 149.61 106.28 148.88 106.94 148.84 107.81 Z M 148.79 108.84 L 148.76 109.80 C 148.74 110.67 149.41 111.39 150.27 111.41 C 151.14 111.44 151.86 110.77 151.88 109.90 L 151.91 108.94 C 151.94 108.07 151.27 107.35 150.40 107.33 C 149.54 107.30 148.82 107.97 148.79 108.84 Z M 148.76 109.82 L 148.74 110.78 C 148.73 111.64 149.41 112.35 150.28 112.37 C 151.14 112.38 151.85 111.70 151.87 110.84 L 151.88 109.88 C 151.90 109.02 151.22 108.31 150.35 108.29 C 149.49 108.28 148.78 108.96 148.76 109.82 Z M 148.74 110.79 L 148.74 111.74 C 148.73 112.60 149.42 113.31 150.28 113.32 C 151.14 113.32 151.85 112.63 151.86 111.77 L 151.87 110.82 C 151.88 109.96 151.18 109.25 150.32 109.25 C 149.46 109.24 148.75 109.93 148.74 110.79 Z M 148.74 111.75 L 148.73 112.74 C 148.73 113.60 149.42 114.30 150.29 114.31 C 151.15 114.31 151.85 113.62 151.85 112.75 L 151.86 111.76 C 151.86 110.90 151.16 110.20 150.30 110.19 C 149.44 110.19 148.74 110.89 148.74 111.75 Z M 148.73 112.75 L 148.73 113.80 C 148.73 114.66 149.43 115.36 150.29 115.36 C 151.15 115.36 151.85 114.66 151.85 113.80 L 151.85 112.75 C 151.85 111.89 151.16 111.19 150.29 111.19 C 149.43 111.18 148.73 111.88 148.73 112.75 Z M 148.73 113.80 L 148.73 114.78 C 148.73 115.64 149.43 116.34 150.29 116.34 C 151.15 116.34 151.85 115.64 151.85 114.78 L 151.85 113.80 C 151.85 112.94 151.15 112.24 150.29 112.24 C 149.43 112.24 148.73 112.94 148.73 113.80 Z M 148.73 114.78 L 148.73 115.74 C 148.73 116.61 149.43 117.31 150.29 117.31 C 151.15 117.31 151.85 116.61 151.85 115.74 L 151.85 114.78 C 151.85 113.91 151.15 113.21 150.29 113.21 C 149.43 113.21 148.73 113.91 148.73 114.78 Z M 148.73 115.74 L 148.73 116.75 C 148.73 117.62 149.43 118.31 150.29 118.31 C 151.15 118.31 151.85 117.62 151.85 116.75 L 151.85 115.74 C 151.85 114.88 151.15 114.18 150.29 114.18 C 149.43 114.18 148.73 114.88 148.73 115.74 Z M 148.73 116.75 L 148.73 117.79 C 148.73 118.65 149.43 119.35 150.29 119.35 C 151.15 119.35 151.85 118.65 151.85 117.79 L 151.85 116.75 C 151.85 115.89 151.15 115.19 150.29 115.19 C 149.43 115.19 148.73 115.89 148.73 116.75 Z M 148.73 117.79 L 148.73 118.81 C 148.73 119.67 149.43 120.37 150.29 120.37 C 151.15 120.37 151.85 119.67 151.85 118.81 L 151.85 117.79 C 151.85 116.93 151.15 116.23 150.29 116.23 C 149.43 116.23 148.73 116.93 148.73 117.79 Z M 148.73 118.81 L 148.73 119.78 C 148.73 120.64 149.43 121.34 150.29 121.34 C 151.15 121.34 151.85 120.64 151.85 119.78 L 151.85 118.81 C 151.85 117.95 151.15 117.25 150.29 117.25 C 149.43 117.25 148.73 117.95 148.73 118.81 Z M 148.73 119.78 L 148.73 120.76 C 148.73 121.62 149.43 122.32 150.29 122.32 C 151.15 122.32 151.85 121.62 151.85 120.76 L 151.85 119.78 C 151.85 118.92 151.15 118.22 150.29 118.22 C 149.43 118.22 148.73 118.92 148.73 119.78 Z M 148.73 120.76 L 148.73 121.77 C 148.73 122.63 149.43 123.33 150.29 123.33 C 151.15 123.33 151.85 122.63 151.85 121.77 L 151.85 120.76 C 151.85 119.90 151.15 119.20 150.29 119.20 C 149.43 119.20 148.73 119.90 148.73 120.76 Z M 148.73 121.77 L 148.73 122.80 C 148.73 123.66 149.43 124.36 150.29 124.36 C 151.15 124.36 151.85 123.66 151.85 122.80 L 151.85 121.77 C 151.85 120.90 151.15 120.21 150.29 120.21 C 149.43 120.21 148.73 120.90 148.73 121.77 Z M 148.73 122.80 L 148.73 123.78 C 148.73 124.65 149.43 125.34 150.29 125.34 C 151.15 125.34 151.85 124.65 151.85 123.78 L 151.85 122.80 C 151.85 121.94 151.15 121.24 150.29 121.24 C 149.43 121.24 148.73 121.94 148.73 122.80 Z M 148.73 123.78 L 148.73 124.72 C 148.73 125.58 149.43 126.28 150.29 126.28 C 151.15 126.28 151.85 125.58 151.85 124.72 L 151.85 123.78 C 151.85 122.92 151.15 122.22 150.29 122.22 C 149.43 122.22 148.73 122.92 148.73 123.78 Z M 148.73 124.72 L 148.73 125.68 C 148.73 126.54 149.43 127.24 150.29 127.24 C 151.15 127.24 151.85 126.54 151.85 125.68 L 151.85 124.72 C 151.85 123.85 151.15 123.16 150.29 123.16 C 149.43 123.16 148.73 123.85 148.73 124.72 Z M 148.73 125.68 L 148.73 126.68 C 148.73 127.54 149.43 128.24 150.29 128.24 C 151.15 128.24 151.85 127.54 151.85 126.68 L 151.85 125.68 C 151.85 124.82 151.15 124.12 150.29 124.12 C 149.43 124.12 148.73 124.82 148.73 125.68 Z M 148.73 126.68 L 148.73 127.72 C 148.73 128.58 149.43 129.28 150.29 129.28 C 151.15 129.28 151.85 128.58 151.85 127.72 L 151.85 126.68 C 151.85 125.82 151.15 125.12 150.29 125.12 C 149.43 125.12 148.73 125.82 148.73 126.68 Z M 148.73 127.72 L 148.73 128.80 C 148.73 129.67 149.43 130.37 150.29 130.37 C 151.15 130.37 151.85 129.67 151.85 128.80 L 151.85 127.72 C 151.85 126.86 151.15 126.16 150.29 126.16 C 149.43 126.16 148.73 126.86 148.73 127.72 Z M 148.73 128.80 L 148.73 129.78 C 148.73 130.64 149.43 131.34 150.29 131.34 C 151.15 131.34 151.85 130.64 151.85 129.78 L 151.85 128.80 C 151.85 127.94 151.15 127.24 150.29 127.24 C 149.43 127.24 148.73 127.94 148.73 128.80 Z M 148.73 129.78 L 148.73 130.75 C 148.73 131.61 149.43 132.31 150.29 132.31 C 151.15 132.31 151.85 131.61 151.85 130.75 L 151.85 129.78 C 151.85 128.92 151.15 128.22 150.29 128.22 C 149.43 128.22 148.73 128.92 148.73 129.78 Z M 148.73 130.75 L 148.73 131.74 C 148.73 132.60 149.43 133.30 150.29 133.30 C 151.15 133.30 151.85 132.60 151.85 131.74 L 151.85 130.75 C 151.85 129.89 151.15 129.19 150.29 129.19 C 149.43 129.19 148.73 129.89 148.73 130.75 Z M 148.73 131.74 L 148.73 132.75 C 148.73 133.61 149.43 134.31 150.29 134.31 C 151.15 134.31 151.85 133.61 151.85 132.75 L 151.85 131.74 C 151.85 130.88 151.15 130.18 150.29 130.18 C 149.43 130.18 148.73 130.88 148.73 131.74 Z M 148.73 132.75 L 148.73 133.77 C 148.73 134.63 149.43 135.33 150.29 135.33 C 151.15 135.33 151.85 134.63 151.85 133.77 L 151.85 132.75 C 151.85 131.89 151.15 131.19 150.29 131.19 C 149.43 131.19 148.73 131.89 148.73 132.75 Z M 148.73 133.77 L 148.73 134.80 C 148.73 135.66 149.43 136.36 150.29 136.36 C 151.15 136.36 151.85 135.66 151.85 134.80 L 151.85 133.77 C 151.85 132.91 151.15 132.21 150.29 132.21 C 149.43 132.21 148.73 132.91 148.73 133.77 Z M 148.73 134.80 L 148.73 135.83 C 148.73 136.69 149.43 137.39 150.29 137.39 C 151.15 137.39 151.85 136.69 151.85 135.83 L 151.85 134.80 C 151.85 133.94 151.15 133.24 150.29 133.24 C 149.43 133.24 148.73 133.94 148.73 134.80 Z M 148.73 135.83 L 148.73 136.84 C 148.73 137.71 149.43 138.41 150.29 138.41 C 151.15 138.41 151.85 137.71 151.85 136.84 L 151.85 135.83 C 151.85 134.96 151.15 134.26 150.29 134.26 C 149.43 134.26 148.73 134.96 148.73 135.83 Z M 148.73 136.84 L 148.73 137.85 C 148.73 138.72 149.43 139.42 150.29 139.42 C 151.15 139.42 151.85 138.72 151.85 137.85 L 151.85 136.84 C 151.85 135.98 151.15 135.28 150.29 135.28 C 149.43 135.28 148.73 135.98 148.73 136.84 Z M 148.73 137.85 L 148.73 138.86 C 148.73 139.72 149.43 140.42 150.29 140.42 C 151.16 140.42 151.86 139.72 151.86 138.86 L 151.86 137.85 C 151.86 136.99 151.16 136.29 150.29 136.29 C 149.43 136.29 148.73 136.99 148.73 137.85 Z M 148.73 138.86 L 148.73 139.86 C 148.73 140.72 149.43 141.42 150.29 141.42 C 151.16 141.42 151.86 140.72 151.86 139.86 L 151.86 138.86 C 151.86 138.00 151.16 137.30 150.29 137.30 C 149.43 137.30 148.73 138.00 148.73 138.86 Z M 148.73 139.86 L 148.73 140.85 C 148.73 141.72 149.43 142.42 150.29 142.42 C 151.16 142.42 151.86 141.72 151.86 140.85 L 151.86 139.86 C 151.86 138.99 151.16 138.29 150.29 138.29 C 149.43 138.29 148.73 138.99 148.73 139.86 Z M 148.72 140.85 L 148.72 141.84 C 148.72 142.71 149.43 143.41 150.29 143.41 C 151.16 143.41 151.86 142.71 151.86 141.84 L 151.86 140.85 C 151.86 139.99 151.16 139.29 150.29 139.29 C 149.43 139.29 148.72 139.99 148.72 140.85 Z M 148.72 141.84 L 148.72 142.83 C 148.72 143.69 149.43 144.40 150.29 144.40 C 151.16 144.40 151.86 143.69 151.86 142.83 L 151.86 141.84 C 151.86 140.98 151.16 140.27 150.29 140.27 C 149.43 140.27 148.72 140.98 148.72 141.84 Z M 148.72 142.83 L 148.72 143.84 C 148.72 144.71 149.42 145.41 150.29 145.41 C 151.16 145.41 151.86 144.71 151.86 143.84 L 151.86 142.83 C 151.86 141.96 151.16 141.26 150.29 141.26 C 149.42 141.26 148.72 141.96 148.72 142.83 Z M 148.72 143.84 L 148.72 144.85 C 148.72 145.72 149.42 146.42 150.29 146.42 C 151.16 146.42 151.86 145.72 151.86 144.85 L 151.86 143.84 C 151.86 142.97 151.16 142.27 150.29 142.27 C 149.42 142.27 148.72 142.97 148.72 143.84 Z M 148.72 144.85 L 148.72 145.85 C 148.72 146.72 149.42 147.42 150.29 147.42 C 151.16 147.42 151.86 146.72 151.86 145.85 L 151.86 144.85 C 151.86 143.98 151.16 143.28 150.29 143.28 C 149.42 143.28 148.72 143.98 148.72 144.85 Z M 148.72 145.85 L 148.72 146.85 C 148.72 147.72 149.42 148.42 150.29 148.42 C 151.16 148.42 151.86 147.72 151.86 146.85 L 151.86 145.85 C 151.86 144.98 151.16 144.28 150.29 144.28 C 149.42 144.28 148.72 144.98 148.72 145.85 Z M 148.72 146.85 L 148.72 147.84 C 148.72 148.71 149.42 149.41 150.29 149.41 C 151.16 149.41 151.86 148.71 151.86 147.84 L 151.86 146.85 C 151.86 145.98 151.16 145.28 150.29 145.28 C 149.42 145.28 148.72 145.98 148.72 146.85 Z M 148.72 147.84 L 148.72 148.83 C 148.72 149.70 149.42 150.40 150.29 150.40 C 151.16 150.40 151.86 149.70 151.86 148.83 L 151.86 147.84 C 151.86 146.98 151.16 146.27 150.29 146.27 C 149.42 146.27 148.72 146.98 148.72 147.84 Z M 148.72 148.83 L 148.72 149.83 C 148.72 150.70 149.42 151.40 150.29 151.40 C 151.16 151.40 151.86 150.70 151.86 149.83 L 151.86 148.83 C 151.86 147.97 151.16 147.26 150.29 147.26 C 149.42 147.26 148.72 147.97 148.72 148.83 Z M 148.72 149.83 L 148.72 150.83 C 148.72 151.70 149.42 152.41 150.29 152.41 C 151.16 152.41 151.87 151.70 151.87 150.83 L 151.87 149.83 C 151.87 148.96 151.16 148.26 150.29 148.26 C 149.42 148.26 148.72 148.96 148.72 149.83 Z M 148.72 150.83 L 148.72 151.84 C 148.72 152.71 149.42 153.41 150.29 153.41 C 151.16 153.41 151.87 152.71 151.87 151.84 L 151.87 150.83 C 151.87 149.96 151.16 149.26 150.29 149.26 C 149.42 149.26 148.72 149.96 148.72 150.83 Z M 148.71 151.84 L 148.71 152.83 C 148.71 153.71 149.42 154.41 150.29 154.41 C 151.16 154.41 151.87 153.71 151.87 152.83 L 151.87 151.84 C 151.87 150.96 151.16 150.26 150.29 150.26 C 149.42 150.26 148.71 150.96 148.71 151.84 Z M 148.71 152.83 L 148.71 153.83 C 148.71 154.71 149.42 155.41 150.29 155.41 C 151.16 155.41 151.87 154.71 151.87 153.83 L 151.87 152.83 C 151.87 151.96 151.16 151.26 150.29 151.26 C 149.42 151.26 148.71 151.96 148.71 152.83 Z M 148.71 153.83 L 148.71 154.83 C 148.71 155.70 149.42 156.41 150.29 156.41 C 151.17 156.41 151.87 155.70 151.87 154.83 L 151.87 153.83 C 151.87 152.96 151.17 152.25 150.29 152.25 C 149.42 152.25 148.71 152.96 148.71 153.83 Z M 148.71 154.83 L 148.71 155.83 C 148.71 156.70 149.42 157.41 150.29 157.41 C 151.17 157.41 151.88 156.70 151.88 155.83 L 151.88 154.83 C 151.88 153.96 151.17 153.25 150.29 153.25 C 149.42 153.25 148.71 153.96 148.71 154.83 Z M 148.71 155.83 L 148.71 156.84 C 148.71 157.72 149.42 158.43 150.29 158.43 C 151.17 158.43 151.88 157.72 151.88 156.84 L 151.88 155.83 C 151.88 154.95 151.17 154.24 150.29 154.24 C 149.42 154.24 148.71 154.95 148.71 155.83 Z M 148.71 156.84 L 148.71 157.86 C 148.71 158.73 149.42 159.44 150.29 159.44 C 151.17 159.44 151.88 158.73 151.88 157.86 L 151.88 156.84 C 151.88 155.97 151.17 155.26 150.29 155.26 C 149.42 155.26 148.71 155.97 148.71 156.84 Z M 148.71 157.86 L 148.71 158.87 C 148.71 159.74 149.42 160.45 150.29 160.45 C 151.17 160.45 151.88 159.74 151.88 158.87 L 151.88 157.86 C 151.88 156.98 151.17 156.27 150.29 156.27 C 149.42 156.27 148.71 156.98 148.71 157.86 Z M 148.71 158.87 L 148.71 159.87 C 148.71 160.74 149.42 161.45 150.29 161.45 C 151.17 161.45 151.87 160.74 151.87 159.87 L 151.87 158.87 C 151.87 157.99 151.17 157.28 150.29 157.28 C 149.42 157.28 148.71 157.99 148.71 158.87 Z M 148.71 159.87 L 148.71 160.86 C 148.71 161.74 149.42 162.44 150.29 162.44 C 151.17 162.44 151.87 161.74 151.87 160.86 L 151.87 159.87 C 151.87 159.00 151.17 158.29 150.29 158.29 C 149.42 158.29 148.71 159.00 148.71 159.87 Z M 148.71 160.86 L 148.71 161.84 C 148.71 162.72 149.42 163.42 150.29 163.42 C 151.17 163.42 151.87 162.72 151.87 161.84 L 151.87 160.86 C 151.87 159.99 151.17 159.28 150.29 159.28 C 149.42 159.28 148.71 159.99 148.71 160.86 Z M 148.71 161.84 L 148.71 162.82 C 148.71 163.69 149.42 164.40 150.29 164.40 C 151.17 164.40 151.87 163.69 151.87 162.82 L 151.87 161.84 C 151.87 160.97 151.17 160.26 150.29 160.26 C 149.42 160.26 148.71 160.97 148.71 161.84 Z M 148.71 162.82 L 148.71 163.79 C 148.71 164.67 149.42 165.37 150.29 165.37 C 151.17 165.37 151.88 164.67 151.88 163.79 L 151.88 162.82 C 151.88 161.94 151.17 161.23 150.29 161.23 C 149.42 161.23 148.71 161.94 148.71 162.82 Z M 148.71 163.79 L 148.71 164.76 C 148.71 165.64 149.42 166.35 150.29 166.35 C 151.17 166.35 151.88 165.64 151.88 164.76 L 151.88 163.79 C 151.88 162.92 151.17 162.21 150.29 162.21 C 149.42 162.21 148.71 162.92 148.71 163.79 Z M 148.71 164.76 L 148.71 165.75 C 148.71 166.62 149.42 167.33 150.29 167.33 C 151.17 167.33 151.88 166.62 151.88 165.75 L 151.88 164.76 C 151.88 163.89 151.17 163.18 150.29 163.18 C 149.42 163.18 148.71 163.89 148.71 164.76 Z M 148.70 165.75 L 148.70 166.75 C 148.70 167.63 149.41 168.34 150.29 168.34 C 151.17 168.34 151.88 167.63 151.88 166.75 L 151.88 165.75 C 151.88 164.87 151.17 164.16 150.29 164.16 C 149.41 164.16 148.70 164.87 148.70 165.75 Z M 148.70 166.75 L 148.70 167.78 C 148.70 168.66 149.41 169.37 150.29 169.37 C 151.17 169.37 151.88 168.66 151.88 167.78 L 151.88 166.75 C 151.88 165.87 151.17 165.16 150.29 165.16 C 149.41 165.16 148.70 165.87 148.70 166.75 Z M 148.70 167.78 L 148.70 168.81 C 148.70 169.68 149.41 170.40 150.29 170.40 C 151.17 170.40 151.88 169.68 151.88 168.81 L 151.88 167.78 C 151.88 166.90 151.17 166.19 150.29 166.19 C 149.41 166.19 148.70 166.90 148.70 167.78 Z M 148.70 168.81 L 148.70 169.76 C 148.70 170.64 149.41 171.35 150.29 171.35 C 151.17 171.35 151.88 170.64 151.88 169.76 L 151.88 168.81 C 151.88 167.93 151.17 167.22 150.29 167.22 C 149.41 167.22 148.70 167.93 148.70 168.81 Z M 148.70 169.76 L 148.70 170.74 C 148.70 171.62 149.41 172.33 150.29 172.33 C 151.17 172.33 151.88 171.62 151.88 170.74 L 151.88 169.76 C 151.88 168.88 151.17 168.17 150.29 168.17 C 149.41 168.17 148.70 168.88 148.70 169.76 Z M 148.70 170.74 L 148.70 171.74 C 148.70 172.62 149.41 173.33 150.29 173.33 C 151.17 173.33 151.88 172.62 151.88 171.74 L 151.88 170.74 C 151.88 169.86 151.17 169.15 150.29 169.15 C 149.41 169.15 148.70 169.86 148.70 170.74 Z M 148.70 171.74 L 148.70 172.76 C 148.70 173.63 149.41 174.34 150.29 174.34 C 151.17 174.34 151.88 173.63 151.88 172.76 L 151.88 171.74 C 151.88 170.86 151.17 170.15 150.29 170.15 C 149.41 170.15 148.70 170.86 148.70 171.74 Z M 148.70 172.76 L 148.70 173.78 C 148.70 174.66 149.41 175.37 150.29 175.37 C 151.17 175.37 151.88 174.66 151.88 173.78 L 151.88 172.76 C 151.88 171.88 151.17 171.17 150.29 171.17 C 149.41 171.17 148.70 171.88 148.70 172.76 Z M 148.70 173.78 L 148.70 174.81 C 148.70 175.68 149.41 176.39 150.29 176.39 C 151.17 176.39 151.88 175.68 151.88 174.81 L 151.88 173.78 C 151.88 172.90 151.17 172.19 150.29 172.19 C 149.41 172.19 148.70 172.90 148.70 173.78 Z M 148.70 174.81 L 148.70 175.83 C 148.70 176.70 149.41 177.42 150.29 177.42 C 151.17 177.42 151.88 176.70 151.88 175.83 L 151.88 174.81 C 151.88 173.93 151.17 173.22 150.29 173.22 C 149.41 173.22 148.70 173.93 148.70 174.81 Z M 148.70 175.83 L 148.70 176.86 C 148.70 177.73 149.41 178.44 150.29 178.44 C 151.17 178.45 151.88 177.73 151.88 176.86 L 151.88 175.83 C 151.88 174.95 151.17 174.24 150.29 174.24 C 149.41 174.24 148.70 174.95 148.70 175.83 Z M 148.70 176.86 L 148.70 177.87 C 148.70 178.75 149.41 179.46 150.29 179.46 C 151.17 179.46 151.88 178.75 151.88 177.88 L 151.88 176.86 C 151.88 175.98 151.17 175.27 150.29 175.27 C 149.41 175.27 148.70 175.98 148.70 176.86 Z M 148.70 177.87 L 148.70 178.88 C 148.70 179.76 149.41 180.47 150.29 180.47 C 151.17 180.48 151.88 179.76 151.88 178.89 L 151.88 177.88 C 151.88 177.00 151.17 176.29 150.29 176.29 C 149.42 176.28 148.70 177.00 148.70 177.87 Z M 148.70 178.88 L 148.70 179.88 C 148.69 180.76 149.41 181.47 150.28 181.47 C 151.16 181.48 151.88 180.77 151.88 179.89 L 151.88 178.89 C 151.88 178.01 151.17 177.30 150.29 177.29 C 149.42 177.29 148.70 178.00 148.70 178.88 Z M 148.70 179.88 L 148.69 180.87 C 148.69 181.75 149.40 182.46 150.28 182.47 C 151.16 182.47 151.87 181.76 151.87 180.88 L 151.88 179.89 C 151.88 179.01 151.17 178.30 150.29 178.29 C 149.42 178.29 148.70 179.00 148.70 179.88 Z M 148.69 180.87 L 148.69 181.85 C 148.68 182.73 149.39 183.44 150.27 183.45 C 151.15 183.45 151.86 182.75 151.87 181.87 L 151.87 180.89 C 151.88 180.01 151.17 179.29 150.29 179.28 C 149.41 179.28 148.70 179.99 148.69 180.87 Z M 148.69 181.84 L 148.68 182.82 C 148.67 183.70 149.38 184.42 150.26 184.42 C 151.13 184.43 151.85 183.72 151.86 182.85 L 151.87 181.87 C 151.88 180.99 151.17 180.27 150.29 180.27 C 149.41 180.26 148.69 180.97 148.69 181.84 Z M 148.68 182.81 L 148.67 183.83 C 148.66 184.71 149.36 185.43 150.24 185.44 C 151.12 185.45 151.84 184.74 151.85 183.86 L 151.86 182.85 C 151.87 181.97 151.17 181.25 150.29 181.24 C 149.41 181.23 148.69 181.93 148.68 182.81 Z M 148.67 183.82 L 148.65 184.84 C 148.64 185.72 149.34 186.44 150.22 186.45 C 151.10 186.46 151.82 185.76 151.83 184.88 L 151.85 183.87 C 151.86 182.99 151.16 182.27 150.28 182.26 C 149.40 182.24 148.68 182.95 148.67 183.82 Z M 148.65 184.84 L 148.64 185.84 C 148.62 186.72 149.33 187.44 150.20 187.46 C 151.08 187.47 151.80 186.77 151.82 185.89 L 151.83 184.89 C 151.85 184.01 151.15 183.29 150.27 183.27 C 149.39 183.26 148.67 183.96 148.65 184.84 Z M 148.64 185.84 L 148.62 186.84 C 148.61 187.72 149.31 188.44 150.19 188.45 C 151.06 188.47 151.79 187.77 151.80 186.89 L 151.82 185.89 C 151.83 185.02 151.13 184.29 150.25 184.28 C 149.38 184.27 148.65 184.96 148.64 185.84 Z M 148.62 186.84 L 148.61 187.83 C 148.60 188.71 149.29 189.43 150.17 189.45 C 151.05 189.46 151.77 188.76 151.78 187.88 L 151.80 186.89 C 151.81 186.02 151.11 185.29 150.24 185.28 C 149.36 185.27 148.64 185.97 148.62 186.84 Z M 148.61 187.84 L 148.60 188.82 C 148.58 189.70 149.28 190.42 150.16 190.43 C 151.03 190.44 151.75 189.74 151.77 188.87 L 151.78 187.88 C 151.79 187.01 151.09 186.29 150.22 186.27 C 149.34 186.26 148.62 186.96 148.61 187.84 Z M 148.60 188.83 L 148.59 189.81 C 148.57 190.68 149.27 191.40 150.15 191.41 C 151.02 191.42 151.74 190.72 151.75 189.85 L 151.77 188.86 C 151.78 187.99 151.08 187.27 150.20 187.26 C 149.33 187.25 148.61 187.95 148.60 188.83 Z M 148.59 189.81 L 148.58 190.85 C 148.57 191.73 149.27 192.44 150.14 192.45 C 151.02 192.46 151.73 191.76 151.74 190.88 L 151.75 189.84 C 151.76 188.97 151.06 188.25 150.18 188.25 C 149.31 188.24 148.59 188.94 148.59 189.81 Z M 148.58 190.86 L 148.57 191.88 C 148.56 192.76 149.27 193.47 150.14 193.48 C 151.02 193.48 151.73 192.78 151.74 191.90 L 151.74 190.88 C 151.75 190.00 151.04 189.29 150.17 189.28 C 149.30 189.28 148.58 189.98 148.58 190.86 Z M 148.57 191.88 L 148.56 192.90 C 148.56 193.77 149.26 194.49 150.14 194.49 C 151.01 194.50 151.72 193.79 151.73 192.92 L 151.73 191.90 C 151.74 191.03 151.04 190.32 150.16 190.31 C 149.29 190.31 148.58 191.01 148.57 191.88 Z M 148.56 192.90 L 148.56 193.90 C 148.55 194.77 149.26 195.48 150.13 195.49 C 151.00 195.49 151.72 194.79 151.72 193.92 L 151.73 192.92 C 151.73 192.04 151.03 191.33 150.16 191.33 C 149.28 191.32 148.57 192.03 148.56 192.90 Z M 148.56 193.90 L 148.55 194.87 C 148.55 195.75 149.25 196.46 150.12 196.47 C 151.00 196.47 151.71 195.77 151.71 194.90 L 151.72 193.92 C 151.73 193.04 151.02 192.33 150.15 192.33 C 149.28 192.32 148.57 193.02 148.56 193.90 Z M 148.55 194.87 L 148.54 195.83 C 148.54 196.70 149.24 197.41 150.11 197.42 C 150.98 197.43 151.70 196.73 151.70 195.86 L 151.71 194.90 C 151.72 194.03 151.02 193.31 150.15 193.31 C 149.28 193.30 148.56 194.00 148.55 194.87 Z M 148.55 195.82 L 148.53 196.83 C 148.52 197.71 149.22 198.42 150.09 198.43 C 150.96 198.44 151.68 197.75 151.69 196.88 L 151.70 195.86 C 151.72 194.99 151.02 194.28 150.15 194.26 C 149.27 194.25 148.56 194.95 148.55 195.82 Z M 148.53 196.83 L 148.52 197.84 C 148.50 198.71 149.20 199.43 150.07 199.45 C 150.94 199.46 151.66 198.77 151.67 197.90 L 151.69 196.88 C 151.70 196.01 151.01 195.29 150.14 195.28 C 149.27 195.26 148.55 195.96 148.53 196.83 Z M 148.52 197.84 L 148.50 198.84 C 148.48 199.71 149.17 200.43 150.04 200.44 C 150.91 200.46 151.63 199.77 151.65 198.90 L 151.67 197.90 C 151.69 197.03 151.00 196.31 150.13 196.30 C 149.26 196.28 148.54 196.97 148.52 197.84 Z M 148.50 198.83 L 148.48 199.82 C 148.46 200.69 149.15 201.41 150.02 201.43 C 150.88 201.45 151.60 200.76 151.62 199.89 L 151.65 198.90 C 151.67 198.03 150.98 197.31 150.11 197.29 C 149.24 197.27 148.52 197.96 148.50 198.83 Z M 148.48 199.82 L 148.46 200.80 C 148.44 201.67 149.12 202.39 149.99 202.41 C 150.86 202.43 151.58 201.74 151.60 200.87 L 151.62 199.89 C 151.64 199.02 150.96 198.30 150.09 198.28 C 149.22 198.26 148.50 198.95 148.48 199.82 Z M 148.46 200.80 L 148.43 201.79 C 148.41 202.65 149.10 203.37 149.97 203.39 C 150.84 203.41 151.56 202.73 151.58 201.86 L 151.60 200.87 C 151.62 200.01 150.93 199.29 150.06 199.27 C 149.20 199.25 148.48 199.93 148.46 200.80 Z M 148.44 201.79 L 148.41 202.78 C 148.39 203.65 149.08 204.36 149.95 204.38 C 150.82 204.40 151.53 203.72 151.55 202.85 L 151.57 201.86 C 151.59 200.99 150.91 200.27 150.04 200.25 C 149.17 200.24 148.45 200.92 148.44 201.79 Z M 148.41 202.78 L 148.39 203.78 C 148.37 204.65 149.06 205.36 149.93 205.38 C 150.79 205.40 151.51 204.71 151.53 203.85 L 151.55 202.85 C 151.57 201.98 150.88 201.26 150.02 201.24 C 149.15 201.22 148.43 201.91 148.41 202.78 Z M 148.39 203.78 L 148.37 204.78 C 148.35 205.65 149.04 206.37 149.90 206.39 C 150.77 206.41 151.49 205.72 151.51 204.85 L 151.53 203.85 C 151.55 202.98 150.86 202.26 150.00 202.24 C 149.13 202.22 148.41 202.91 148.39 203.78 Z M 148.37 204.78 L 148.34 205.78 C 148.32 206.65 149.01 207.37 149.88 207.39 C 150.74 207.41 151.47 206.73 151.49 205.86 L 151.51 204.85 C 151.53 203.99 150.85 203.26 149.98 203.24 C 149.11 203.22 148.39 203.91 148.37 204.78 Z M 148.34 205.78 L 148.31 206.78 C 148.29 207.65 148.98 208.37 149.84 208.40 C 150.71 208.42 151.44 207.74 151.46 206.87 L 151.49 205.86 C 151.51 204.99 150.83 204.27 149.96 204.25 C 149.09 204.22 148.36 204.91 148.34 205.78 Z M 148.31 206.77 L 148.28 207.78 C 148.26 208.65 148.94 209.38 149.81 209.40 C 150.68 209.43 151.40 208.75 151.43 207.88 L 151.46 206.87 C 151.49 206.00 150.80 205.28 149.94 205.25 C 149.07 205.22 148.34 205.91 148.31 206.77 Z M 148.28 207.78 L 148.25 208.80 C 148.22 209.66 148.89 210.39 149.76 210.42 C 150.63 210.45 151.36 209.78 151.39 208.91 L 151.43 207.89 C 151.46 207.02 150.78 206.29 149.91 206.26 C 149.04 206.23 148.31 206.91 148.28 207.78 Z M 148.25 208.79 L 148.21 209.80 C 148.17 210.67 148.85 211.40 149.72 211.43 C 150.58 211.47 151.31 210.79 151.35 209.92 L 151.39 208.91 C 151.42 208.05 150.75 207.32 149.88 207.28 C 149.01 207.25 148.28 207.92 148.25 208.79 Z M 148.21 209.79 L 148.17 210.79 C 148.13 211.66 148.80 212.39 149.67 212.43 C 150.53 212.47 151.26 211.80 151.30 210.93 L 151.35 209.93 C 151.38 209.06 150.71 208.33 149.85 208.29 C 148.98 208.26 148.25 208.93 148.21 209.79 Z M 148.17 210.79 L 148.12 211.78 C 148.08 212.64 148.75 213.37 149.62 213.42 C 150.48 213.46 151.21 212.79 151.25 211.92 L 151.30 210.94 C 151.34 210.07 150.67 209.34 149.81 209.30 C 148.94 209.26 148.21 209.92 148.17 210.79 Z M 148.13 211.77 L 148.08 212.75 C 148.03 213.61 148.70 214.35 149.56 214.39 C 150.43 214.43 151.16 213.77 151.20 212.90 L 151.25 211.93 C 151.29 211.06 150.63 210.33 149.77 210.29 C 148.90 210.24 148.17 210.91 148.13 211.77 Z M 148.08 212.74 L 148.03 213.76 C 147.98 214.62 148.65 215.35 149.51 215.40 C 150.37 215.44 151.11 214.78 151.15 213.92 L 151.20 212.91 C 151.25 212.04 150.58 211.31 149.72 211.26 C 148.86 211.22 148.12 211.88 148.08 212.74 Z M 148.03 213.75 L 147.97 214.76 C 147.93 215.63 148.59 216.36 149.45 216.41 C 150.31 216.45 151.05 215.79 151.10 214.93 L 151.15 213.92 C 151.20 213.06 150.53 212.32 149.67 212.28 C 148.81 212.23 148.07 212.89 148.03 213.75 Z M 147.97 214.76 L 147.92 215.76 C 147.87 216.62 148.53 217.36 149.40 217.41 C 150.26 217.45 150.99 216.79 151.04 215.93 L 151.10 214.93 C 151.14 214.07 150.48 213.33 149.62 213.29 C 148.76 213.24 148.02 213.90 147.97 214.76 Z M 147.92 215.76 L 147.87 216.75 C 147.82 217.61 148.48 218.35 149.34 218.40 C 150.20 218.44 150.94 217.78 150.99 216.92 L 151.04 215.93 C 151.09 215.07 150.43 214.33 149.57 214.29 C 148.70 214.24 147.97 214.90 147.92 215.76 Z M 147.87 216.75 L 147.81 217.73 C 147.77 218.60 148.43 219.33 149.29 219.38 C 150.15 219.43 150.89 218.77 150.93 217.90 L 150.99 216.92 C 151.03 216.06 150.37 215.32 149.51 215.28 C 148.65 215.23 147.91 215.89 147.87 216.75 Z M 147.81 217.74 L 147.76 218.75 C 147.71 219.61 148.37 220.35 149.23 220.39 C 150.10 220.44 150.83 219.78 150.88 218.92 L 150.93 217.90 C 150.98 217.04 150.32 216.31 149.46 216.26 C 148.59 216.21 147.86 216.87 147.81 217.74 Z M 147.76 218.75 L 147.70 219.78 C 147.66 220.64 148.32 221.38 149.18 221.43 C 150.04 221.47 150.78 220.81 150.82 219.95 L 150.88 218.92 C 150.92 218.05 150.26 217.32 149.40 217.27 C 148.54 217.23 147.80 217.89 147.76 218.75 Z M 147.70 219.78 L 147.65 220.80 C 147.61 221.66 148.27 222.40 149.13 222.44 C 149.99 222.49 150.72 221.82 150.77 220.96 L 150.82 219.95 C 150.87 219.09 150.21 218.35 149.35 218.31 C 148.48 218.26 147.75 218.92 147.70 219.78 Z M 147.65 220.80 L 147.60 221.79 C 147.55 222.65 148.21 223.38 149.07 223.43 C 149.94 223.48 150.67 222.81 150.72 221.95 L 150.77 220.96 C 150.82 220.10 150.15 219.37 149.29 219.32 C 148.43 219.28 147.70 219.94 147.65 220.80 Z M 147.60 221.78 L 147.55 222.74 C 147.50 223.60 148.16 224.34 149.02 224.38 C 149.88 224.43 150.62 223.77 150.66 222.91 L 150.72 221.96 C 150.76 221.09 150.10 220.36 149.24 220.31 C 148.38 220.26 147.65 220.92 147.60 221.78 Z M 147.55 222.74 L 147.50 223.61 C 147.45 224.47 148.11 225.21 148.97 225.26 C 149.83 225.31 150.56 224.65 150.61 223.79 L 150.66 222.91 C 150.71 222.05 150.06 221.32 149.19 221.27 C 148.33 221.22 147.60 221.88 147.55 222.74 Z M 147.50 223.61 L 147.45 224.47 C 147.39 225.33 148.05 226.07 148.91 226.12 C 149.77 226.17 150.51 225.51 150.56 224.65 L 150.61 223.80 C 150.66 222.94 150.01 222.20 149.15 222.14 C 148.29 222.09 147.55 222.75 147.50 223.61 Z M 147.45 224.46 L 147.39 225.37 C 147.34 226.23 147.99 226.97 148.85 227.02 C 149.71 227.07 150.45 226.42 150.51 225.56 L 150.56 224.65 C 150.62 223.79 149.96 223.05 149.10 223.00 C 148.24 222.95 147.50 223.60 147.45 224.46 Z M 147.39 225.37 L 147.33 226.37 C 147.27 227.23 147.93 227.97 148.79 228.03 C 149.65 228.08 150.39 227.43 150.44 226.57 L 150.51 225.56 C 150.56 224.70 149.91 223.96 149.05 223.91 C 148.19 223.85 147.44 224.50 147.39 225.37 Z M 147.33 226.37 L 147.25 227.53 C 147.20 228.39 147.85 229.13 148.71 229.19 C 149.57 229.24 150.31 228.59 150.37 227.73 L 150.44 226.57 C 150.50 225.71 149.84 224.97 148.98 224.91 C 148.12 224.86 147.38 225.51 147.33 226.37 Z M 147.25 227.53 L 147.18 228.63 C 147.13 229.49 147.78 230.24 148.64 230.29 C 149.50 230.35 150.24 229.69 150.30 228.83 L 150.37 227.73 C 150.42 226.87 149.77 226.13 148.91 226.07 C 148.05 226.02 147.31 226.67 147.25 227.53 Z M 147.18 228.63 L 147.12 229.56 C 147.07 230.42 147.72 231.16 148.58 231.22 C 149.44 231.27 150.19 230.62 150.24 229.76 L 150.30 228.83 C 150.35 227.97 149.70 227.23 148.84 227.18 C 147.98 227.12 147.24 227.77 147.18 228.63 Z M 147.12 229.56 L 147.06 230.55 C 147.01 231.41 147.66 232.16 148.52 232.21 C 149.38 232.26 150.12 231.61 150.18 230.75 L 150.24 229.76 C 150.29 228.90 149.64 228.16 148.78 228.10 C 147.92 228.05 147.18 228.70 147.12 229.56 Z M 147.06 230.56 L 147.00 231.59 C 146.95 232.45 147.60 233.19 148.46 233.24 C 149.32 233.29 150.06 232.64 150.12 231.78 L 150.18 230.75 C 150.23 229.89 149.58 229.15 148.72 229.09 C 147.86 229.04 147.11 229.69 147.06 230.56 Z M 147.00 231.59 L 146.94 232.64 C 146.89 233.50 147.54 234.24 148.40 234.29 C 149.26 234.34 150.00 233.69 150.05 232.83 L 150.12 231.77 C 150.17 230.91 149.51 230.17 148.65 230.12 C 147.79 230.07 147.05 230.73 147.00 231.59 Z M 146.94 232.65 L 146.88 233.70 C 146.83 234.56 147.48 235.30 148.35 235.35 C 149.21 235.40 149.94 234.74 149.99 233.88 L 150.05 232.82 C 150.10 231.96 149.44 231.23 148.58 231.18 C 147.72 231.13 146.99 231.79 146.94 232.65 Z M 146.88 233.71 L 146.82 234.74 C 146.77 235.60 147.43 236.34 148.29 236.39 C 149.15 236.43 149.89 235.77 149.94 234.91 L 149.99 233.87 C 150.04 233.01 149.38 232.28 148.52 232.23 C 147.66 232.18 146.92 232.84 146.88 233.71 Z M 146.82 234.75 L 146.77 235.75 C 146.73 236.61 147.39 237.35 148.25 237.39 C 149.11 237.43 149.84 236.77 149.89 235.91 L 149.94 234.91 C 149.98 234.05 149.32 233.31 148.46 233.27 C 147.60 233.23 146.86 233.89 146.82 234.75 Z M 146.77 235.76 L 146.72 236.73 C 146.69 237.59 147.35 238.32 148.21 238.36 C 149.07 238.40 149.80 237.73 149.84 236.87 L 149.89 235.90 C 149.93 235.04 149.26 234.31 148.40 234.27 C 147.54 234.23 146.81 234.90 146.77 235.76 Z M 146.72 236.74 L 146.68 237.99 C 146.65 238.85 147.32 239.58 148.18 239.61 C 149.04 239.64 149.77 238.97 149.80 238.11 L 149.84 236.86 C 149.88 236.00 149.20 235.27 148.34 235.24 C 147.48 235.21 146.76 235.88 146.72 236.74 Z M 146.68 238.01 L 146.65 239.12 C 146.62 239.98 147.30 240.70 148.16 240.72 C 149.03 240.75 149.74 240.07 149.77 239.20 L 149.80 238.09 C 149.82 237.23 149.14 236.51 148.28 236.49 C 147.42 236.46 146.70 237.14 146.68 238.01 Z M 146.65 239.13 L 146.63 240.13 C 146.61 241.00 147.30 241.71 148.16 241.72 C 149.02 241.74 149.74 241.05 149.75 240.19 L 149.77 239.19 C 149.78 238.33 149.10 237.62 148.23 237.60 C 147.37 237.58 146.66 238.27 146.65 239.13 Z M 146.63 240.15 L 146.62 241.06 C 146.61 241.92 147.30 242.62 148.17 242.63 C 149.03 242.64 149.73 241.95 149.74 241.09 L 149.75 240.18 C 149.76 239.31 149.07 238.61 148.20 238.60 C 147.34 238.59 146.64 239.28 146.63 240.15 Z M 146.62 241.07 L 146.62 241.91 C 146.61 242.77 147.31 243.47 148.17 243.48 C 149.04 243.48 149.74 242.78 149.74 241.92 L 149.74 241.08 C 149.74 240.21 149.05 239.51 148.19 239.51 C 147.32 239.51 146.62 240.20 146.62 241.07 Z M 146.62 241.92 L 146.62 242.80 C 146.62 243.66 147.32 244.36 148.18 244.36 C 149.04 244.36 149.74 243.66 149.74 242.80 L 149.74 241.92 C 149.74 241.05 149.04 240.35 148.18 240.35 C 147.32 240.35 146.62 241.05 146.62 241.92 Z M 146.62 242.80 L 146.62 243.83 C 146.62 244.70 147.32 245.40 148.18 245.40 C 149.04 245.40 149.74 244.70 149.74 243.83 L 149.74 242.80 C 149.74 241.94 149.04 241.24 148.18 241.24 C 147.32 241.24 146.62 241.94 146.62 242.80 Z M 146.62 243.83 L 146.62 244.83 C 146.62 245.70 147.32 246.40 148.18 246.40 C 149.04 246.40 149.74 245.70 149.74 244.83 L 149.74 243.83 C 149.74 242.97 149.04 242.27 148.18 242.27 C 147.32 242.27 146.62 242.97 146.62 243.83 Z M 146.62 244.83 L 146.62 245.81 C 146.62 246.67 147.32 247.37 148.18 247.37 C 149.04 247.37 149.74 246.67 149.74 245.81 L 149.74 244.83 C 149.74 243.97 149.04 243.27 148.18 243.27 C 147.32 243.27 146.62 243.97 146.62 244.83 Z M 146.62 245.81 L 146.62 246.73 C 146.62 247.60 147.32 248.30 148.18 248.30 C 149.04 248.30 149.74 247.60 149.74 246.73 L 149.74 245.81 C 149.74 244.95 149.04 244.25 148.18 244.25 C 147.32 244.25 146.62 244.95 146.62 245.81 Z"
      fill="black"
      fill-rule="nonzero" /></svg>