<svg xmlns="http://www.w3.org/2000/svg" width="300" height="300" viewBox="0 0 300 300">
<path d="M 149.93 95.20 L 149.74 96.10 C 149.56 96.94 150.10 97.77 150.95 97.95 C 151.79 98.12 152.62 97.58 152.80 96.74 L 152.99 95.85 C 153.16 95.00 152.62 94.18 151.78 94.00 C 150.94 93.82 150.11 94.36 149.93 95.20 Z M 149.74 96.12 L 149.56 97.05 C 149.39 97.90 149.94 98.72 150.79 98.88 C 151.64 99.05 152.46 98.49 152.62 97.65 L 152.80 96.72 C 152.97 95.87 152.41 95.05 151.57 94.89 C 150.72 94.72 149.90 95.27 149.74 96.12 Z M 149.55 97.09 L 149.38 98.09 C 149.24 98.94 149.82 99.75 150.67 99.89 C 151.52 100.03 152.32 99.46 152.46 98.61 L 152.63 97.60 C 152.77 96.75 152.20 95.95 151.34 95.81 C 150.49 95.67 149.69 96.24 149.55 97.09 Z M 149.37 98.15 L 149.23 99.25 C 149.12 100.11 149.72 100.89 150.57 101.01 C 151.43 101.12 152.21 100.51 152.33 99.66 L 152.47 98.55 C 152.58 97.70 151.98 96.91 151.12 96.80 C 150.27 96.69 149.49 97.29 149.37 98.15 Z M 149.22 99.30 L 149.13 100.27 C 149.04 101.13 149.67 101.89 150.53 101.98 C 151.39 102.06 152.15 101.44 152.23 100.58 L 152.33 99.61 C 152.42 98.75 151.79 97.99 150.93 97.90 C 150.07 97.82 149.31 98.45 149.22 99.30 Z M 149.13 100.30 L 149.04 101.31 C 148.98 102.17 149.62 102.93 150.48 102.99 C 151.34 103.06 152.09 102.42 152.16 101.56 L 152.24 100.55 C 152.31 99.69 151.67 98.94 150.81 98.87 C 149.95 98.80 149.19 99.44 149.13 100.30 Z M 149.04 101.33 L 148.97 102.36 C 148.91 103.22 149.56 103.97 150.42 104.03 C 151.28 104.09 152.03 103.44 152.09 102.58 L 152.16 101.55 C 152.22 100.69 151.57 99.94 150.71 99.88 C 149.85 99.82 149.10 100.47 149.04 101.33 Z M 148.97 102.37 L 148.90 103.39 C 148.85 104.25 149.50 104.99 150.36 105.05 C 151.22 105.11 151.96 104.45 152.02 103.59 L 152.09 102.57 C 152.14 101.71 151.49 100.97 150.63 100.91 C 149.77 100.86 149.03 101.51 148.97 102.37 Z M 148.90 103.39 L 148.84 104.36 C 148.78 105.22 149.43 105.97 150.29 106.02 C 151.15 106.08 151.90 105.43 151.96 104.57 L 152.02 103.60 C 152.08 102.74 151.43 101.99 150.57 101.93 C 149.71 101.88 148.96 102.53 148.90 103.39 Z M 148.84 104.35 L 148.76 105.43 C 148.69 106.29 149.33 107.04 150.19 107.11 C 151.05 107.18 151.80 106.53 151.87 105.67 L 151.95 104.59 C 152.02 103.73 151.38 102.98 150.52 102.91 C 149.66 102.84 148.91 103.49 148.84 104.35 Z M 148.76 105.42 L 148.67 106.45 C 148.59 107.31 149.22 108.07 150.08 108.14 C 150.94 108.22 151.70 107.58 151.78 106.72 L 151.87 105.69 C 151.94 104.83 151.31 104.08 150.45 104.00 C 149.59 103.92 148.83 104.56 148.76 105.42 Z M 148.67 106.44 L 148.58 107.39 C 148.49 108.25 149.12 109.01 149.98 109.09 C 150.84 109.18 151.60 108.55 151.68 107.69 L 151.78 106.74 C 151.86 105.88 151.23 105.11 150.37 105.03 C 149.51 104.95 148.75 105.58 148.67 106.44 Z M 148.58 107.39 L 148.49 108.31 C 148.41 109.16 149.04 109.93 149.89 110.01 C 150.75 110.09 151.52 109.46 151.60 108.60 L 151.68 107.69 C 151.77 106.83 151.14 106.07 150.28 105.99 C 149.42 105.90 148.66 106.53 148.58 107.39 Z M 148.49 108.32 L 148.41 109.23 C 148.33 110.08 148.97 110.84 149.83 110.92 C 150.69 110.99 151.44 110.36 151.52 109.50 L 151.60 108.59 C 151.67 107.73 151.04 106.97 150.18 106.90 C 149.32 106.82 148.56 107.46 148.49 108.32 Z M 148.41 109.23 L 148.33 110.17 C 148.26 111.03 148.90 111.79 149.76 111.86 C 150.62 111.93 151.37 111.29 151.44 110.43 L 151.52 109.49 C 151.59 108.63 150.95 107.88 150.09 107.81 C 149.23 107.74 148.48 108.38 148.41 109.23 Z M 148.33 110.17 L 148.25 111.17 C 148.18 112.03 148.82 112.78 149.67 112.85 C 150.53 112.92 151.29 112.28 151.36 111.43 L 151.44 110.43 C 151.51 109.57 150.87 108.82 150.02 108.74 C 149.16 108.67 148.40 109.31 148.33 110.17 Z M 148.25 111.16 L 148.15 112.24 C 148.08 113.10 148.71 113.86 149.57 113.93 C 150.43 114.01 151.19 113.38 151.26 112.52 L 151.36 111.43 C 151.44 110.58 150.80 109.82 149.94 109.74 C 149.08 109.66 148.33 110.30 148.25 111.16 Z M 148.15 112.23 L 148.06 113.22 C 147.97 114.08 148.60 114.84 149.46 114.92 C 150.31 115.01 151.08 114.38 151.16 113.52 L 151.26 112.53 C 151.34 111.67 150.72 110.91 149.86 110.83 C 149.00 110.74 148.24 111.37 148.15 112.23 Z M 148.06 113.21 L 147.95 114.19 C 147.86 115.05 148.48 115.81 149.34 115.90 C 150.20 115.99 150.97 115.37 151.06 114.52 L 151.16 113.53 C 151.25 112.68 150.63 111.91 149.77 111.82 C 148.92 111.73 148.15 112.35 148.06 113.21 Z M 147.95 114.18 L 147.84 115.19 C 147.75 116.05 148.37 116.82 149.22 116.92 C 150.08 117.01 150.85 116.39 150.95 115.54 L 151.06 114.52 C 151.15 113.67 150.53 112.89 149.68 112.80 C 148.82 112.71 148.05 113.32 147.95 114.18 Z M 147.84 115.19 L 147.73 116.21 C 147.63 117.07 148.24 117.84 149.10 117.94 C 149.96 118.04 150.73 117.42 150.83 116.57 L 150.94 115.54 C 151.04 114.69 150.43 113.91 149.57 113.81 C 148.71 113.72 147.94 114.33 147.84 115.19 Z M 147.73 116.21 L 147.61 117.21 C 147.51 118.07 148.12 118.84 148.98 118.95 C 149.83 119.05 150.61 118.43 150.71 117.58 L 150.83 116.57 C 150.93 115.71 150.32 114.94 149.46 114.84 C 148.60 114.74 147.83 115.35 147.73 116.21 Z M 147.61 117.21 L 147.49 118.21 C 147.39 119.06 148.00 119.84 148.85 119.94 C 149.71 120.05 150.49 119.43 150.59 118.58 L 150.71 117.58 C 150.81 116.72 150.20 115.95 149.34 115.84 C 148.49 115.74 147.71 116.35 147.61 117.21 Z M 147.49 118.20 L 147.37 119.19 C 147.27 120.04 147.88 120.82 148.73 120.92 C 149.59 121.03 150.37 120.42 150.47 119.56 L 150.59 118.58 C 150.69 117.72 150.08 116.95 149.23 116.84 C 148.37 116.74 147.59 117.35 147.49 118.20 Z M 147.37 119.19 L 147.25 120.15 C 147.15 121.01 147.76 121.79 148.62 121.89 C 149.47 121.99 150.25 121.38 150.35 120.53 L 150.47 119.56 C 150.57 118.71 149.96 117.93 149.11 117.82 C 148.25 117.72 147.47 118.33 147.37 119.19 Z M 147.25 120.15 L 147.14 121.13 C 147.03 121.99 147.64 122.77 148.50 122.87 C 149.36 122.97 150.13 122.36 150.24 121.50 L 150.35 120.53 C 150.46 119.67 149.85 118.89 148.99 118.79 C 148.13 118.69 147.36 119.30 147.25 120.15 Z M 147.14 121.14 L 147.02 122.15 C 146.91 123.01 147.53 123.78 148.38 123.88 C 149.24 123.98 150.02 123.37 150.12 122.52 L 150.24 121.50 C 150.34 120.64 149.72 119.87 148.87 119.77 C 148.01 119.67 147.24 120.28 147.14 121.14 Z M 147.02 122.16 L 146.90 123.12 C 146.81 123.98 147.42 124.75 148.28 124.85 C 149.13 124.95 149.91 124.33 150.01 123.48 L 150.12 122.51 C 150.22 121.65 149.60 120.88 148.74 120.78 C 147.89 120.68 147.11 121.30 147.02 122.16 Z M 146.90 123.13 L 146.80 124.08 C 146.70 124.94 147.32 125.71 148.18 125.81 C 149.03 125.90 149.81 125.28 149.90 124.43 L 150.01 123.47 C 150.10 122.61 149.48 121.84 148.63 121.75 C 147.77 121.65 147.00 122.27 146.90 123.13 Z M 146.80 124.09 L 146.69 125.08 C 146.60 125.93 147.22 126.70 148.08 126.80 C 148.93 126.89 149.70 126.27 149.80 125.41 L 149.90 124.42 C 149.99 123.56 149.37 122.79 148.52 122.70 C 147.66 122.61 146.89 123.23 146.80 124.09 Z M 146.69 125.08 L 146.59 126.10 C 146.50 126.96 147.12 127.72 147.98 127.81 C 148.84 127.90 149.60 127.28 149.69 126.42 L 149.80 125.40 C 149.88 124.55 149.26 123.78 148.40 123.69 C 147.55 123.60 146.78 124.23 146.69 125.08 Z M 146.58 126.11 L 146.48 127.13 C 146.40 127.99 147.03 128.76 147.88 128.84 C 148.74 128.92 149.51 128.30 149.59 127.44 L 149.69 126.41 C 149.78 125.55 149.15 124.79 148.29 124.70 C 147.43 124.62 146.67 125.25 146.58 126.11 Z M 146.48 127.14 L 146.39 128.17 C 146.31 129.03 146.94 129.79 147.80 129.87 C 148.66 129.95 149.42 129.32 149.50 128.46 L 149.59 127.43 C 149.67 126.57 149.04 125.81 148.18 125.73 C 147.32 125.65 146.56 126.28 146.48 127.14 Z M 146.39 128.18 L 146.30 129.20 C 146.22 130.06 146.86 130.81 147.72 130.89 C 148.58 130.96 149.34 130.33 149.41 129.47 L 149.50 128.45 C 149.57 127.59 148.94 126.84 148.08 126.76 C 147.22 126.69 146.46 127.32 146.39 128.18 Z M 146.30 129.21 L 146.22 130.22 C 146.15 131.08 146.79 131.83 147.65 131.90 C 148.51 131.96 149.26 131.32 149.33 130.46 L 149.41 129.46 C 149.48 128.60 148.84 127.85 147.98 127.78 C 147.12 127.71 146.37 128.35 146.30 129.21 Z M 146.22 130.23 L 146.14 131.23 C 146.08 132.09 146.73 132.83 147.59 132.90 C 148.45 132.96 149.20 132.31 149.26 131.45 L 149.33 130.45 C 149.39 129.59 148.75 128.85 147.89 128.78 C 147.03 128.72 146.28 129.37 146.22 130.23 Z M 146.14 131.24 L 146.08 132.23 C 146.02 133.09 146.68 133.84 147.54 133.89 C 148.40 133.95 149.14 133.29 149.20 132.43 L 149.26 131.44 C 149.32 130.58 148.66 129.84 147.80 129.78 C 146.94 129.73 146.20 130.38 146.14 131.24 Z M 146.08 132.25 L 146.02 133.23 C 145.97 134.09 146.63 134.83 147.49 134.88 C 148.35 134.93 149.09 134.27 149.14 133.41 L 149.20 132.42 C 149.25 131.56 148.59 130.82 147.73 130.77 C 146.87 130.73 146.13 131.38 146.08 132.25 Z M 146.02 133.25 L 145.97 134.23 C 145.93 135.09 146.60 135.83 147.46 135.87 C 148.32 135.91 149.05 135.24 149.09 134.38 L 149.14 133.40 C 149.18 132.54 148.52 131.80 147.66 131.76 C 146.80 131.72 146.06 132.39 146.02 133.25 Z M 145.97 134.25 L 145.93 135.31 C 145.90 136.17 146.57 136.90 147.43 136.94 C 148.29 136.97 149.02 136.30 149.05 135.44 L 149.09 134.37 C 149.13 133.51 148.46 132.78 147.60 132.75 C 146.73 132.71 146.01 133.38 145.97 134.25 Z M 145.93 135.33 L 145.90 136.38 C 145.87 137.24 146.55 137.96 147.41 137.99 C 148.27 138.01 148.99 137.34 149.02 136.48 L 149.05 135.43 C 149.08 134.56 148.40 133.84 147.54 133.82 C 146.68 133.79 145.96 134.46 145.93 135.33 Z M 145.90 136.39 L 145.87 137.41 C 145.85 138.27 146.53 138.99 147.39 139.01 C 148.25 139.03 148.97 138.35 148.99 137.49 L 149.02 136.47 C 149.04 135.60 148.36 134.89 147.50 134.87 C 146.64 134.84 145.92 135.52 145.90 136.39 Z M 145.87 137.42 L 145.85 138.40 C 145.83 139.26 146.52 139.97 147.38 139.99 C 148.24 140.00 148.96 139.32 148.97 138.46 L 148.99 137.48 C 149.01 136.62 148.32 135.90 147.46 135.89 C 146.60 135.87 145.89 136.55 145.87 137.42 Z M 145.85 138.40 L 145.84 139.33 C 145.82 140.19 146.51 140.90 147.38 140.91 C 148.24 140.92 148.95 140.23 148.96 139.37 L 148.97 138.45 C 148.99 137.59 148.30 136.88 147.44 136.86 C 146.57 136.85 145.86 137.54 145.85 138.40 Z M 145.84 139.33 L 145.83 140.39 C 145.82 141.25 146.51 141.96 147.37 141.97 C 148.23 141.98 148.94 141.29 148.95 140.43 L 148.96 139.37 C 148.97 138.50 148.28 137.80 147.42 137.79 C 146.55 137.78 145.85 138.47 145.84 139.33 Z M 145.83 140.40 L 145.82 141.46 C 145.81 142.32 146.50 143.03 147.36 143.03 C 148.23 143.04 148.93 142.35 148.94 141.49 L 148.95 140.42 C 148.96 139.56 148.26 138.86 147.40 138.85 C 146.54 138.84 145.83 139.53 145.83 140.40 Z M 145.82 141.46 L 145.81 142.42 C 145.80 143.29 146.49 143.99 147.35 144.00 C 148.22 144.01 148.92 143.31 148.93 142.45 L 148.94 141.49 C 148.95 140.63 148.25 139.92 147.39 139.91 C 146.53 139.90 145.82 140.60 145.82 141.46 Z M 145.81 142.42 L 145.79 143.31 C 145.78 144.17 146.47 144.88 147.33 144.89 C 148.19 144.91 148.90 144.22 148.92 143.36 L 148.93 142.46 C 148.94 141.60 148.25 140.89 147.39 140.88 C 146.53 140.86 145.82 141.55 145.81 142.42 Z M 145.80 143.29 L 145.77 144.26 C 145.75 145.12 146.43 145.84 147.29 145.86 C 148.15 145.89 148.87 145.21 148.89 144.34 L 148.92 143.37 C 148.94 142.51 148.26 141.80 147.40 141.77 C 146.54 141.75 145.82 142.43 145.80 143.29 Z M 145.77 144.23 L 145.73 145.22 C 145.69 146.08 146.36 146.81 147.22 146.84 C 148.08 146.88 148.81 146.21 148.85 145.35 L 148.89 144.37 C 148.93 143.51 148.26 142.78 147.40 142.74 C 146.54 142.71 145.81 143.37 145.77 144.23 Z M 145.73 145.19 L 145.67 146.19 C 145.61 147.05 146.27 147.79 147.13 147.84 C 147.99 147.89 148.73 147.24 148.78 146.38 L 148.85 145.38 C 148.90 144.52 148.24 143.78 147.38 143.73 C 146.52 143.67 145.78 144.33 145.73 145.19 Z M 145.67 146.16 L 145.59 147.14 C 145.52 148.00 146.16 148.75 147.02 148.82 C 147.88 148.89 148.63 148.25 148.70 147.39 L 148.78 146.41 C 148.85 145.55 148.21 144.80 147.35 144.73 C 146.49 144.66 145.74 145.30 145.67 146.16 Z M 145.59 147.11 L 145.50 148.08 C 145.42 148.94 146.04 149.70 146.90 149.78 C 147.76 149.87 148.52 149.24 148.61 148.38 L 148.70 147.41 C 148.78 146.56 148.16 145.79 147.30 145.71 C 146.44 145.63 145.68 146.25 145.59 147.11 Z M 145.50 148.05 L 145.38 149.05 C 145.28 149.91 145.89 150.68 146.75 150.78 C 147.60 150.89 148.38 150.28 148.48 149.42 L 148.60 148.41 C 148.70 147.56 148.09 146.78 147.24 146.68 C 146.38 146.58 145.60 147.19 145.50 148.05 Z M 145.39 149.01 L 145.24 150.04 C 145.11 150.89 145.71 151.68 146.56 151.81 C 147.41 151.93 148.20 151.34 148.33 150.49 L 148.48 149.46 C 148.60 148.61 148.01 147.81 147.16 147.69 C 146.30 147.57 145.51 148.16 145.39 149.01 Z M 145.25 149.99 L 145.07 151.01 C 144.92 151.86 145.49 152.67 146.33 152.82 C 147.18 152.97 147.99 152.40 148.14 151.55 L 148.32 150.53 C 148.47 149.68 147.90 148.88 147.05 148.73 C 146.20 148.58 145.39 149.14 145.25 149.99 Z M 145.07 150.98 L 144.87 151.98 C 144.71 152.83 145.25 153.65 146.10 153.82 C 146.95 153.98 147.77 153.43 147.94 152.59 L 148.14 151.59 C 148.30 150.74 147.75 149.92 146.91 149.75 C 146.06 149.58 145.24 150.13 145.07 150.98 Z M 144.88 151.96 L 144.67 152.94 C 144.49 153.79 145.03 154.61 145.88 154.79 C 146.72 154.97 147.55 154.43 147.73 153.59 L 147.93 152.61 C 148.11 151.76 147.57 150.94 146.73 150.76 C 145.88 150.58 145.06 151.12 144.88 151.96 Z M 144.67 152.94 L 144.47 153.88 C 144.29 154.72 144.83 155.55 145.67 155.73 C 146.52 155.91 147.35 155.37 147.53 154.53 L 147.72 153.59 C 147.90 152.75 147.37 151.92 146.52 151.74 C 145.68 151.56 144.85 152.10 144.67 152.94 Z M 144.47 153.90 L 144.26 154.92 C 144.09 155.77 144.64 156.59 145.48 156.76 C 146.33 156.93 147.15 156.38 147.32 155.54 L 147.53 154.51 C 147.70 153.67 147.15 152.84 146.31 152.67 C 145.46 152.50 144.64 153.05 144.47 153.90 Z M 144.26 154.95 L 144.08 155.93 C 143.92 156.77 144.48 157.59 145.33 157.75 C 146.18 157.90 146.99 157.34 147.15 156.49 L 147.33 155.51 C 147.48 154.66 146.92 153.85 146.08 153.69 C 145.23 153.54 144.41 154.10 144.26 154.95 Z M 144.07 155.95 L 143.91 156.91 C 143.77 157.76 144.35 158.56 145.20 158.70 C 146.05 158.84 146.85 158.27 146.99 157.42 L 147.15 156.47 C 147.29 155.62 146.72 154.81 145.87 154.67 C 145.02 154.53 144.21 155.10 144.07 155.95 Z M 143.91 156.93 L 143.77 157.89 C 143.64 158.74 144.23 159.53 145.08 159.66 C 145.93 159.79 146.73 159.20 146.85 158.35 L 147.00 157.39 C 147.12 156.54 146.54 155.75 145.68 155.62 C 144.83 155.49 144.04 156.08 143.91 156.93 Z M 143.76 157.92 L 143.63 158.89 C 143.52 159.75 144.13 160.53 144.98 160.64 C 145.84 160.75 146.62 160.15 146.73 159.29 L 146.86 158.32 C 146.97 157.46 146.37 156.68 145.51 156.57 C 144.66 156.46 143.87 157.06 143.76 157.92 Z M 143.63 158.93 L 143.52 159.93 C 143.43 160.79 144.05 161.56 144.91 161.65 C 145.77 161.74 146.54 161.12 146.63 160.26 L 146.74 159.26 C 146.83 158.40 146.20 157.63 145.35 157.54 C 144.49 157.45 143.72 158.07 143.63 158.93 Z M 143.52 159.97 L 143.44 160.99 C 143.37 161.85 144.01 162.60 144.87 162.67 C 145.73 162.74 146.48 162.09 146.55 161.23 L 146.63 160.22 C 146.70 159.36 146.06 158.61 145.20 158.54 C 144.34 158.47 143.59 159.11 143.52 159.97 Z M 143.44 161.03 L 143.38 162.02 C 143.34 162.88 144.00 163.62 144.86 163.67 C 145.72 163.71 146.45 163.05 146.50 162.19 L 146.56 161.20 C 146.60 160.34 145.94 159.60 145.08 159.55 C 144.22 159.51 143.48 160.17 143.44 161.03 Z M 143.38 162.05 L 143.35 163.06 C 143.32 163.92 143.99 164.65 144.85 164.68 C 145.71 164.71 146.44 164.03 146.47 163.17 L 146.50 162.16 C 146.53 161.30 145.86 160.58 145.00 160.55 C 144.14 160.52 143.41 161.19 143.38 162.05 Z M 143.35 163.08 L 143.32 164.08 C 143.30 164.95 143.99 165.66 144.85 165.68 C 145.71 165.70 146.42 165.02 146.44 164.15 L 146.47 163.15 C 146.49 162.29 145.80 161.58 144.94 161.56 C 144.08 161.54 143.36 162.22 143.35 163.08 Z M 143.32 164.10 L 143.31 165.12 C 143.30 165.98 143.99 166.69 144.85 166.70 C 145.71 166.71 146.42 166.02 146.43 165.16 L 146.44 164.14 C 146.46 163.28 145.77 162.57 144.90 162.56 C 144.04 162.55 143.33 163.24 143.32 164.10 Z M 143.31 165.13 L 143.30 166.13 C 143.30 166.99 143.99 167.70 144.85 167.70 C 145.72 167.71 146.42 167.01 146.43 166.15 L 146.43 165.15 C 146.44 164.29 145.74 163.58 144.88 163.58 C 144.02 163.57 143.31 164.27 143.31 165.13 Z M 143.30 166.14 L 143.30 167.12 C 143.30 167.99 144.00 168.69 144.86 168.69 C 145.72 168.69 146.42 167.99 146.42 167.13 L 146.43 166.14 C 146.43 165.28 145.73 164.58 144.87 164.58 C 144.00 164.58 143.30 165.28 143.30 166.14 Z M 143.30 167.13 L 143.30 168.12 C 143.30 168.98 144.00 169.68 144.86 169.68 C 145.72 169.68 146.42 168.98 146.42 168.12 L 146.42 167.13 C 146.42 166.27 145.72 165.57 144.86 165.57 C 144.00 165.57 143.30 166.27 143.30 167.13 Z M 143.30 168.12 L 143.30 169.12 C 143.30 169.98 144.00 170.68 144.86 170.68 C 145.72 170.68 146.42 169.98 146.42 169.12 L 146.42 168.12 C 146.42 167.25 145.72 166.56 144.86 166.56 C 144.00 166.56 143.30 167.25 143.30 168.12 Z M 143.30 169.12 L 143.30 170.12 C 143.30 170.98 144.00 171.68 144.86 171.68 C 145.72 171.68 146.42 170.98 146.42 170.12 L 146.42 169.12 C 146.42 168.25 145.72 167.56 144.86 167.56 C 144.00 167.56 143.30 168.25 143.30 169.12 Z M 143.30 170.12 L 143.30 171.12 C 143.30 171.98 144.00 172.68 144.86 172.68 C 145.72 172.68 146.42 171.98 146.42 171.12 L 146.42 170.12 C 146.42 169.25 145.72 168.56 144.86 168.56 C 144.00 168.56 143.30 169.25 143.30 170.12 Z M 143.30 171.11 L 143.30 172.12 C 143.29 172.98 143.99 173.68 144.85 173.68 C 145.72 173.69 146.42 172.99 146.42 172.13 L 146.42 171.12 C 146.43 170.26 145.73 169.56 144.87 169.56 C 144.01 169.55 143.30 170.25 143.30 171.11 Z M 143.30 172.09 L 143.28 173.09 C 143.26 173.95 143.94 174.67 144.80 174.68 C 145.67 174.70 146.38 174.02 146.40 173.16 L 146.42 172.16 C 146.44 171.29 145.75 170.58 144.89 170.56 C 144.03 170.54 143.32 171.23 143.30 172.09 Z M 143.28 173.04 L 143.23 174.03 C 143.18 174.89 143.84 175.63 144.70 175.68 C 145.56 175.72 146.30 175.06 146.34 174.20 L 146.40 173.21 C 146.44 172.35 145.78 171.61 144.92 171.56 C 144.06 171.52 143.33 172.18 143.28 173.04 Z M 143.23 173.96 L 143.13 174.97 C 143.04 175.83 143.66 176.60 144.52 176.69 C 145.38 176.77 146.14 176.15 146.23 175.29 L 146.34 174.28 C 146.43 173.42 145.80 172.65 144.95 172.56 C 144.09 172.47 143.32 173.10 143.23 173.96 Z M 143.14 174.87 L 142.97 175.87 C 142.83 176.72 143.40 177.53 144.25 177.67 C 145.10 177.81 145.91 177.24 146.05 176.39 L 146.22 175.39 C 146.36 174.54 145.79 173.74 144.94 173.59 C 144.09 173.45 143.28 174.02 143.14 174.87 Z M 143.00 175.76 L 142.76 176.71 C 142.56 177.54 143.07 178.39 143.90 178.60 C 144.74 178.80 145.59 178.29 145.79 177.45 L 146.03 176.50 C 146.23 175.66 145.72 174.82 144.89 174.61 C 144.05 174.41 143.20 174.92 143.00 175.76 Z M 142.80 176.57 L 142.47 177.51 C 142.19 178.33 142.62 179.22 143.44 179.50 C 144.25 179.78 145.14 179.35 145.42 178.54 L 145.75 177.59 C 146.04 176.78 145.60 175.89 144.79 175.61 C 143.98 175.32 143.09 175.75 142.80 176.57 Z M 142.52 177.39 L 142.12 178.31 C 141.77 179.09 142.12 180.02 142.91 180.37 C 143.70 180.72 144.62 180.36 144.97 179.58 L 145.38 178.66 C 145.73 177.87 145.37 176.95 144.58 176.60 C 143.80 176.25 142.87 176.60 142.52 177.39 Z M 142.15 178.24 L 141.70 179.12 C 141.32 179.89 141.62 180.82 142.39 181.21 C 143.16 181.60 144.10 181.29 144.49 180.52 L 144.94 179.64 C 145.32 178.87 145.02 177.94 144.25 177.55 C 143.48 177.16 142.54 177.47 142.15 178.24 Z M 141.71 179.10 L 141.62 179.28 C 141.22 180.04 141.52 180.99 142.28 181.39 C 143.05 181.78 143.99 181.49 144.39 180.72 L 144.48 180.54 C 144.88 179.78 144.58 178.83 143.82 178.44 C 143.05 178.04 142.11 178.34 141.71 179.10 Z"
      fill="black"
      fill-rule="nonzero" /><path d="M 148.34 232.28 L 148.08 231.33 C 147.86 230.50 147.01 230.01 146.17 230.23 C 145.34 230.45 144.85 231.31 145.07 232.14 L 145.32 233.09 C 145.55 233.92 146.40 234.42 147.23 234.19 C 148.07 233.97 148.56 233.11 148.34 232.28 Z M 148.10 231.40 L 147.89 230.44 C 147.70 229.59 146.87 229.06 146.03 229.25 C 145.19 229.43 144.65 230.26 144.84 231.10 L 145.05 232.07 C 145.24 232.92 146.07 233.45 146.91 233.26 C 147.75 233.08 148.29 232.25 148.10 231.40 Z M 147.91 230.57 L 147.78 229.56 C 147.67 228.70 146.89 228.10 146.04 228.21 C 145.18 228.32 144.58 229.10 144.69 229.95 L 144.82 230.97 C 144.93 231.82 145.71 232.43 146.56 232.32 C 147.42 232.21 148.02 231.43 147.91 230.57 Z M 147.80 229.74 L 147.78 228.80 C 147.77 227.94 147.07 227.25 146.20 227.26 C 145.34 227.27 144.65 227.98 144.66 228.84 L 144.67 229.78 C 144.68 230.64 145.39 231.33 146.25 231.32 C 147.12 231.31 147.81 230.60 147.80 229.74 Z M 147.77 229.02 L 147.89 228.05 C 148.00 227.20 147.40 226.42 146.55 226.31 C 145.69 226.20 144.91 226.80 144.80 227.66 L 144.67 228.62 C 144.56 229.47 145.17 230.26 146.02 230.37 C 146.88 230.48 147.66 229.87 147.77 229.02 Z M 147.84 228.31 L 148.14 227.33 C 148.39 226.51 147.93 225.63 147.11 225.38 C 146.28 225.13 145.41 225.59 145.16 226.42 L 144.85 227.40 C 144.60 228.22 145.06 229.10 145.89 229.35 C 146.71 229.60 147.59 229.14 147.84 228.31 Z M 148.03 227.60 L 148.55 226.62 C 148.95 225.86 148.66 224.92 147.90 224.51 C 147.14 224.11 146.19 224.40 145.79 225.16 L 145.27 226.14 C 144.87 226.91 145.16 227.85 145.92 228.25 C 146.68 228.66 147.62 228.37 148.03 227.60 Z M 148.40 226.85 L 149.11 225.94 C 149.63 225.26 149.51 224.28 148.83 223.75 C 148.14 223.22 147.16 223.35 146.64 224.03 L 145.93 224.94 C 145.40 225.62 145.53 226.60 146.21 227.13 C 146.89 227.66 147.87 227.53 148.40 226.85 Z M 148.94 226.13 L 149.71 225.40 C 150.34 224.81 150.37 223.83 149.78 223.20 C 149.19 222.57 148.21 222.53 147.58 223.12 L 146.80 223.84 C 146.17 224.43 146.14 225.42 146.73 226.05 C 147.32 226.68 148.31 226.71 148.94 226.13 Z M 149.41 225.62 L 150.12 225.22 C 150.87 224.80 151.14 223.85 150.72 223.09 C 150.29 222.34 149.34 222.08 148.59 222.50 L 147.88 222.90 C 147.13 223.33 146.86 224.28 147.28 225.03 C 147.71 225.78 148.66 226.05 149.41 225.62 Z M 149.05 225.39 L 149.72 225.53 C 150.57 225.70 151.39 225.15 151.56 224.30 C 151.73 223.46 151.18 222.63 150.34 222.46 L 149.67 222.33 C 148.82 222.16 148.00 222.71 147.83 223.55 C 147.66 224.40 148.20 225.22 149.05 225.39 Z M 148.61 224.64 L 149.00 225.49 C 149.36 226.28 150.28 226.62 151.07 226.27 C 151.85 225.91 152.20 224.98 151.84 224.20 L 151.45 223.35 C 151.09 222.56 150.17 222.22 149.38 222.57 C 148.60 222.93 148.25 223.86 148.61 224.64 Z M 148.87 225.05 L 149.02 226.22 C 149.13 227.07 149.91 227.67 150.77 227.56 C 151.62 227.45 152.23 226.67 152.12 225.82 L 151.97 224.65 C 151.86 223.79 151.07 223.19 150.22 223.30 C 149.36 223.41 148.76 224.19 148.87 225.05 Z M 149.01 226.03 L 149.02 227.05 C 149.03 227.92 149.73 228.61 150.59 228.60 C 151.46 228.59 152.15 227.89 152.14 227.02 L 152.13 226.00 C 152.12 225.14 151.42 224.45 150.55 224.45 C 149.69 224.46 149.00 225.17 149.01 226.03 Z M 149.03 226.82 L 148.89 227.82 C 148.77 228.67 149.37 229.46 150.22 229.58 C 151.08 229.70 151.87 229.11 151.99 228.25 L 152.12 227.26 C 152.24 226.40 151.65 225.61 150.80 225.49 C 149.94 225.37 149.15 225.97 149.03 226.82 Z M 148.98 227.47 L 148.64 228.37 C 148.33 229.17 148.73 230.07 149.53 230.39 C 150.33 230.70 151.24 230.30 151.55 229.49 L 151.90 228.60 C 152.21 227.79 151.81 226.89 151.00 226.58 C 150.20 226.27 149.29 226.67 148.98 227.47 Z M 148.89 227.94 L 148.25 228.71 C 147.70 229.37 147.80 230.36 148.46 230.91 C 149.13 231.46 150.11 231.36 150.66 230.70 L 151.30 229.92 C 151.85 229.26 151.75 228.27 151.09 227.73 C 150.42 227.18 149.44 227.27 148.89 227.94 Z M 148.62 228.38 L 147.78 228.92 C 147.05 229.38 146.83 230.34 147.29 231.07 C 147.75 231.80 148.72 232.02 149.44 231.56 L 150.29 231.02 C 151.02 230.56 151.24 229.60 150.77 228.87 C 150.31 228.14 149.35 227.92 148.62 228.38 Z M 148.21 228.73 L 147.26 228.98 C 146.43 229.20 145.93 230.06 146.15 230.89 C 146.37 231.72 147.23 232.22 148.06 232.00 L 149.01 231.75 C 149.84 231.52 150.34 230.67 150.12 229.84 C 149.90 229.00 149.04 228.51 148.21 228.73 Z M 147.77 228.93 L 146.77 228.86 C 145.91 228.80 145.16 229.44 145.10 230.30 C 145.04 231.16 145.68 231.91 146.54 231.97 L 147.55 232.05 C 148.41 232.11 149.16 231.46 149.22 230.60 C 149.28 229.74 148.63 228.99 147.77 228.93 Z M 147.31 229.00 L 146.41 228.59 C 145.63 228.23 144.70 228.57 144.34 229.36 C 143.98 230.14 144.33 231.07 145.11 231.43 L 146.00 231.84 C 146.79 232.20 147.71 231.85 148.07 231.07 C 148.43 230.28 148.09 229.36 147.31 229.00 Z M 146.90 228.94 L 146.24 228.23 C 145.66 227.60 144.67 227.56 144.04 228.15 C 143.41 228.73 143.37 229.72 143.95 230.35 L 144.61 231.07 C 145.20 231.70 146.19 231.74 146.82 231.15 C 147.45 230.56 147.49 229.58 146.90 228.94 Z M 146.55 228.73 L 146.22 227.86 C 145.90 227.06 145.00 226.66 144.20 226.97 C 143.39 227.29 142.99 228.19 143.31 229.00 L 143.64 229.86 C 143.96 230.66 144.86 231.06 145.67 230.75 C 146.47 230.44 146.87 229.53 146.55 228.73 Z M 146.32 228.27 L 146.21 227.27 C 146.13 226.41 145.36 225.79 144.50 225.87 C 143.64 225.96 143.02 226.73 143.11 227.59 L 143.21 228.59 C 143.30 229.45 144.06 230.07 144.92 229.98 C 145.78 229.89 146.40 229.13 146.32 228.27 Z M 146.21 227.59 L 146.32 226.54 C 146.41 225.68 145.79 224.91 144.93 224.82 C 144.08 224.73 143.31 225.35 143.22 226.21 L 143.11 227.26 C 143.02 228.12 143.64 228.89 144.50 228.98 C 145.35 229.07 146.12 228.45 146.21 227.59 Z M 146.27 226.81 L 146.54 225.87 C 146.78 225.04 146.30 224.17 145.47 223.94 C 144.65 223.70 143.78 224.17 143.54 225.00 L 143.27 225.94 C 143.03 226.77 143.51 227.63 144.34 227.87 C 145.17 228.11 146.03 227.63 146.27 226.81 Z M 146.45 226.12 L 146.87 225.24 C 147.25 224.46 146.93 223.53 146.15 223.15 C 145.38 222.77 144.44 223.10 144.07 223.87 L 143.64 224.75 C 143.26 225.53 143.58 226.46 144.36 226.84 C 145.14 227.22 146.07 226.89 146.45 226.12 Z M 146.73 225.47 L 147.33 224.65 C 147.83 223.96 147.68 222.98 146.98 222.47 C 146.28 221.97 145.31 222.12 144.80 222.82 L 144.21 223.64 C 143.70 224.33 143.85 225.31 144.55 225.82 C 145.25 226.32 146.23 226.17 146.73 225.47 Z M 147.14 224.86 L 147.93 224.11 C 148.55 223.52 148.57 222.53 147.98 221.90 C 147.38 221.28 146.39 221.26 145.77 221.86 L 144.98 222.61 C 144.36 223.20 144.34 224.19 144.94 224.81 C 145.53 225.44 146.52 225.46 147.14 224.86 Z M 147.71 224.29 L 148.66 223.66 C 149.38 223.19 149.58 222.22 149.10 221.50 C 148.63 220.78 147.66 220.58 146.94 221.05 L 145.99 221.68 C 145.27 222.16 145.07 223.12 145.54 223.84 C 146.02 224.56 146.99 224.76 147.71 224.29 Z M 148.33 223.83 L 149.27 223.49 C 150.08 223.19 150.50 222.30 150.20 221.49 C 149.91 220.68 149.01 220.26 148.20 220.55 L 147.27 220.89 C 146.46 221.18 146.04 222.08 146.33 222.89 C 146.62 223.70 147.52 224.12 148.33 223.83 Z M 148.56 223.57 L 149.32 223.65 C 150.18 223.75 150.95 223.13 151.05 222.28 C 151.14 221.42 150.53 220.65 149.67 220.55 L 148.91 220.47 C 148.05 220.37 147.28 220.99 147.18 221.85 C 147.09 222.70 147.71 223.48 148.56 223.57 Z M 148.26 223.06 L 148.72 223.65 C 149.25 224.33 150.23 224.46 150.91 223.93 C 151.59 223.40 151.72 222.42 151.19 221.74 L 150.73 221.15 C 150.20 220.47 149.22 220.34 148.54 220.87 C 147.86 221.40 147.73 222.38 148.26 223.06 Z M 148.42 222.98 L 148.60 223.95 C 148.76 224.80 149.58 225.36 150.42 225.20 C 151.27 225.04 151.83 224.22 151.67 223.38 L 151.49 222.41 C 151.33 221.56 150.52 221.00 149.67 221.16 C 148.82 221.32 148.26 222.14 148.42 222.98 Z M 148.58 223.61 L 148.54 224.75 C 148.51 225.61 149.19 226.34 150.05 226.36 C 150.91 226.39 151.63 225.72 151.66 224.85 L 151.70 223.71 C 151.73 222.85 151.05 222.13 150.19 222.10 C 149.33 222.07 148.60 222.75 148.58 223.61 Z M 148.56 224.54 L 148.36 225.67 C 148.22 226.51 148.78 227.32 149.63 227.47 C 150.48 227.62 151.29 227.05 151.44 226.20 L 151.64 225.07 C 151.79 224.22 151.22 223.41 150.37 223.27 C 149.52 223.12 148.71 223.69 148.56 224.54 Z M 148.42 225.44 L 148.09 226.44 C 147.81 227.26 148.26 228.14 149.07 228.42 C 149.89 228.69 150.78 228.25 151.05 227.43 L 151.38 226.43 C 151.66 225.61 151.21 224.73 150.40 224.45 C 149.58 224.18 148.69 224.62 148.42 225.44 Z M 148.22 226.15 L 147.74 226.97 C 147.31 227.71 147.56 228.67 148.30 229.10 C 149.05 229.54 150.00 229.29 150.44 228.54 L 150.92 227.72 C 151.35 226.98 151.10 226.02 150.35 225.59 C 149.61 225.15 148.65 225.40 148.22 226.15 Z M 148.04 226.60 L 147.38 227.19 C 146.74 227.77 146.69 228.76 147.27 229.40 C 147.85 230.04 148.84 230.09 149.48 229.51 L 150.14 228.91 C 150.78 228.33 150.83 227.35 150.25 226.71 C 149.67 226.07 148.68 226.02 148.04 226.60 Z M 147.99 226.85 L 147.09 227.12 C 146.27 227.37 145.80 228.23 146.04 229.06 C 146.29 229.89 147.16 230.36 147.98 230.11 L 148.88 229.85 C 149.70 229.60 150.17 228.73 149.93 227.90 C 149.68 227.08 148.81 226.61 147.99 226.85 Z M 147.94 227.11 L 147.00 226.86 C 146.17 226.63 145.31 227.13 145.09 227.96 C 144.87 228.80 145.36 229.65 146.20 229.87 L 147.14 230.12 C 147.97 230.35 148.82 229.85 149.05 229.02 C 149.27 228.18 148.77 227.33 147.94 227.11 Z M 147.65 227.22 L 146.92 226.54 C 146.29 225.96 145.30 226.00 144.72 226.63 C 144.13 227.27 144.17 228.26 144.81 228.84 L 145.54 229.51 C 146.18 230.10 147.16 230.06 147.75 229.42 C 148.33 228.79 148.29 227.80 147.65 227.22 Z M 147.19 226.86 L 146.69 226.07 C 146.23 225.34 145.27 225.12 144.54 225.58 C 143.81 226.03 143.59 227.00 144.05 227.73 L 144.54 228.52 C 145.00 229.25 145.96 229.47 146.69 229.01 C 147.42 228.56 147.65 227.59 147.19 226.86 Z M 146.79 226.25 L 146.36 225.31 C 146.00 224.52 145.07 224.18 144.29 224.54 C 143.50 224.90 143.16 225.82 143.52 226.61 L 143.95 227.55 C 144.31 228.33 145.23 228.68 146.02 228.32 C 146.80 227.96 147.15 227.03 146.79 226.25 Z M 146.41 225.43 L 146.04 224.42 C 145.75 223.61 144.86 223.19 144.05 223.48 C 143.24 223.77 142.81 224.67 143.11 225.48 L 143.47 226.48 C 143.76 227.30 144.65 227.72 145.47 227.43 C 146.28 227.13 146.70 226.24 146.41 225.43 Z M 146.07 224.51 L 145.78 223.51 C 145.54 222.68 144.67 222.21 143.84 222.45 C 143.01 222.70 142.54 223.57 142.78 224.39 L 143.08 225.39 C 143.32 226.22 144.19 226.69 145.02 226.45 C 145.84 226.21 146.32 225.34 146.07 224.51 Z M 145.80 223.59 L 145.54 222.50 C 145.35 221.67 144.50 221.15 143.66 221.35 C 142.83 221.54 142.31 222.38 142.51 223.22 L 142.76 224.31 C 142.96 225.15 143.80 225.67 144.64 225.47 C 145.48 225.27 146.00 224.43 145.80 223.59 Z M 145.56 222.59 L 145.38 221.61 C 145.23 220.76 144.42 220.19 143.57 220.35 C 142.72 220.50 142.16 221.32 142.31 222.16 L 142.49 223.14 C 142.64 223.99 143.45 224.55 144.30 224.40 C 145.15 224.25 145.71 223.43 145.56 222.59 Z M 145.39 221.67 L 145.26 220.75 C 145.14 219.90 144.35 219.30 143.50 219.43 C 142.64 219.55 142.05 220.34 142.17 221.19 L 142.30 222.10 C 142.42 222.96 143.21 223.55 144.07 223.43 C 144.92 223.31 145.51 222.52 145.39 221.67 Z M 145.27 220.77 L 145.21 220.32 C 145.10 219.47 144.32 218.86 143.46 218.97 C 142.61 219.08 142.00 219.86 142.11 220.72 L 142.17 221.17 C 142.28 222.02 143.06 222.63 143.91 222.52 C 144.77 222.41 145.37 221.63 145.27 220.77 Z"
      fill="black"
      fill-rule="nonzero" /></svg>