<svg xmlns="http://www.w3.org/2000/svg" width="300" height="300" viewBox="0 0 300 300">
<path d="M 115.86 141.38 L 115.11 142.07 C 114.47 142.65 114.42 143.63 115.00 144.27 C 115.58 144.91 116.57 144.96 117.21 144.38 L 117.96 143.69 C 118.60 143.11 118.65 142.12 118.07 141.49 C 117.49 140.85 116.50 140.80 115.86 141.38 Z M 115.07 142.10 L 114.34 142.81 C 113.73 143.41 113.71 144.40 114.31 145.01 C 114.91 145.63 115.90 145.65 116.52 145.05 L 117.24 144.34 C 117.86 143.74 117.88 142.75 117.28 142.14 C 116.68 141.52 115.69 141.50 115.07 142.10 Z M 114.27 142.89 L 113.61 143.62 C 113.04 144.26 113.09 145.25 113.73 145.83 C 114.37 146.40 115.36 146.35 115.94 145.70 L 116.60 144.97 C 117.17 144.33 117.12 143.34 116.47 142.76 C 115.83 142.19 114.84 142.24 114.27 142.89 Z M 113.50 143.76 L 112.93 144.55 C 112.43 145.25 112.60 146.23 113.30 146.73 C 114.00 147.23 114.98 147.07 115.48 146.37 L 116.04 145.57 C 116.55 144.87 116.38 143.89 115.68 143.39 C 114.98 142.89 114.00 143.05 113.50 143.76 Z M 112.82 144.73 L 112.36 145.62 C 111.96 146.38 112.25 147.33 113.02 147.73 C 113.78 148.13 114.72 147.83 115.12 147.07 L 115.59 146.18 C 115.99 145.42 115.69 144.48 114.93 144.08 C 114.17 143.68 113.22 143.97 112.82 144.73 Z M 112.28 145.80 L 111.93 146.73 C 111.63 147.54 112.04 148.44 112.85 148.74 C 113.65 149.04 114.55 148.63 114.85 147.82 L 115.20 146.89 C 115.51 146.08 115.10 145.18 114.29 144.88 C 113.48 144.58 112.58 144.99 112.28 145.80 Z M 111.88 146.89 L 111.63 147.86 C 111.42 148.69 111.92 149.54 112.76 149.76 C 113.59 149.97 114.44 149.47 114.66 148.63 L 114.90 147.66 C 115.12 146.83 114.61 145.98 113.78 145.76 C 112.94 145.55 112.09 146.05 111.88 146.89 Z M 111.60 147.99 L 111.46 148.86 C 111.32 149.71 111.89 150.51 112.74 150.65 C 113.59 150.80 114.40 150.22 114.54 149.37 L 114.68 148.50 C 114.83 147.65 114.25 146.85 113.40 146.71 C 112.55 146.56 111.75 147.14 111.60 147.99 Z M 111.45 148.96 L 111.36 149.86 C 111.27 150.71 111.89 151.48 112.75 151.57 C 113.61 151.65 114.38 151.03 114.46 150.17 L 114.55 149.27 C 114.64 148.41 114.01 147.65 113.16 147.56 C 112.30 147.47 111.53 148.10 111.45 148.96 Z M 111.35 149.93 L 111.30 150.93 C 111.25 151.79 111.91 152.52 112.77 152.57 C 113.63 152.62 114.37 151.96 114.41 151.09 L 114.47 150.10 C 114.51 149.24 113.85 148.50 112.99 148.45 C 112.13 148.41 111.40 149.07 111.35 149.93 Z M 111.29 150.97 L 111.27 152.12 C 111.24 152.98 111.93 153.69 112.79 153.72 C 113.65 153.74 114.37 153.06 114.39 152.19 L 114.42 151.05 C 114.44 150.19 113.76 149.47 112.89 149.45 C 112.03 149.43 111.32 150.11 111.29 150.97 Z M 111.27 152.13 L 111.25 153.17 C 111.24 154.03 111.93 154.74 112.79 154.75 C 113.66 154.76 114.36 154.07 114.37 153.21 L 114.39 152.17 C 114.40 151.31 113.71 150.60 112.85 150.59 C 111.98 150.58 111.28 151.27 111.27 152.13 Z M 111.25 153.17 L 111.24 154.18 C 111.24 155.04 111.93 155.75 112.79 155.76 C 113.66 155.76 114.36 155.07 114.37 154.21 L 114.37 153.20 C 114.38 152.34 113.69 151.63 112.83 151.63 C 111.96 151.62 111.26 152.31 111.25 153.17 Z M 111.24 154.19 L 111.24 155.23 C 111.24 156.10 111.93 156.80 112.79 156.80 C 113.66 156.81 114.36 156.11 114.36 155.25 L 114.37 154.20 C 114.37 153.34 113.67 152.64 112.81 152.63 C 111.95 152.63 111.25 153.33 111.24 154.19 Z M 111.24 155.24 L 111.24 156.28 C 111.23 157.15 111.93 157.85 112.79 157.85 C 113.66 157.85 114.36 157.15 114.36 156.29 L 114.36 155.24 C 114.36 154.38 113.67 153.68 112.80 153.68 C 111.94 153.68 111.24 154.37 111.24 155.24 Z M 111.24 156.29 L 111.24 157.30 C 111.23 158.16 111.93 158.86 112.80 158.86 C 113.66 158.86 114.36 158.16 114.36 157.30 L 114.36 156.29 C 114.36 155.43 113.66 154.73 112.80 154.73 C 111.94 154.73 111.24 155.42 111.24 156.29 Z M 111.24 157.30 L 111.24 158.24 C 111.24 159.10 111.93 159.80 112.80 159.80 C 113.66 159.80 114.36 159.10 114.36 158.24 L 114.36 157.30 C 114.36 156.44 113.66 155.74 112.80 155.74 C 111.94 155.74 111.24 156.44 111.24 157.30 Z M 111.24 158.24 L 111.24 159.44 C 111.24 160.30 111.93 161.00 112.80 161.00 C 113.66 161.00 114.36 160.30 114.36 159.44 L 114.36 158.24 C 114.36 157.37 113.66 156.67 112.80 156.67 C 111.93 156.67 111.24 157.37 111.24 158.24 Z M 111.24 159.44 L 111.24 160.48 C 111.24 161.34 111.93 162.04 112.80 162.04 C 113.66 162.04 114.36 161.34 114.36 160.48 L 114.36 159.44 C 114.36 158.58 113.66 157.88 112.80 157.88 C 111.93 157.88 111.24 158.58 111.24 159.44 Z M 111.24 160.48 L 111.24 161.37 C 111.24 162.24 111.93 162.94 112.80 162.94 C 113.66 162.94 114.36 162.24 114.36 161.37 L 114.36 160.48 C 114.36 159.61 113.66 158.91 112.80 158.91 C 111.93 158.91 111.24 159.61 111.24 160.48 Z M 111.24 161.37 L 111.24 162.23 C 111.24 163.09 111.93 163.79 112.80 163.79 C 113.66 163.79 114.36 163.09 114.36 162.23 L 114.36 161.37 C 114.36 160.51 113.66 159.81 112.80 159.81 C 111.93 159.81 111.24 160.51 111.24 161.37 Z M 111.24 162.23 L 111.24 163.23 C 111.24 164.09 111.94 164.79 112.80 164.79 C 113.66 164.79 114.36 164.09 114.36 163.23 L 114.36 162.23 C 114.36 161.36 113.66 160.66 112.79 160.67 C 111.93 160.67 111.23 161.37 111.24 162.23 Z M 111.24 163.24 L 111.24 164.23 C 111.25 165.10 111.95 165.79 112.82 165.79 C 113.68 165.78 114.37 165.08 114.37 164.21 L 114.36 163.22 C 114.35 162.36 113.65 161.66 112.79 161.67 C 111.93 161.67 111.23 162.38 111.24 163.24 Z M 111.24 164.25 L 111.26 165.25 C 111.28 166.11 111.99 166.80 112.85 166.79 C 113.71 166.77 114.40 166.06 114.38 165.20 L 114.37 164.20 C 114.35 163.34 113.64 162.65 112.78 162.66 C 111.92 162.68 111.23 163.39 111.24 164.25 Z M 111.26 165.27 L 111.29 166.25 C 111.32 167.11 112.04 167.79 112.90 167.76 C 113.76 167.74 114.44 167.02 114.41 166.16 L 114.38 165.18 C 114.36 164.32 113.64 163.64 112.78 163.66 C 111.91 163.69 111.24 164.41 111.26 165.27 Z M 111.29 166.26 L 111.33 167.26 C 111.36 168.12 112.09 168.79 112.95 168.76 C 113.81 168.73 114.48 168.00 114.45 167.14 L 114.41 166.14 C 114.38 165.28 113.65 164.61 112.79 164.64 C 111.93 164.68 111.26 165.40 111.29 166.26 Z M 111.33 167.26 L 111.37 168.28 C 111.40 169.14 112.13 169.81 112.99 169.78 C 113.85 169.74 114.52 169.02 114.49 168.16 L 114.45 167.14 C 114.41 166.28 113.69 165.60 112.83 165.64 C 111.97 165.67 111.29 166.40 111.33 167.26 Z M 111.37 168.28 L 111.41 169.26 C 111.44 170.12 112.16 170.79 113.03 170.76 C 113.89 170.73 114.56 170.00 114.53 169.14 L 114.49 168.16 C 114.46 167.30 113.73 166.63 112.87 166.66 C 112.01 166.69 111.34 167.42 111.37 168.28 Z M 111.41 169.26 L 111.45 170.25 C 111.48 171.11 112.21 171.78 113.07 171.75 C 113.93 171.71 114.60 170.99 114.57 170.13 L 114.53 169.14 C 114.49 168.27 113.77 167.60 112.90 167.64 C 112.04 167.67 111.37 168.40 111.41 169.26 Z M 111.45 170.27 L 111.50 171.28 C 111.54 172.14 112.28 172.81 113.14 172.76 C 114.00 172.72 114.66 171.98 114.62 171.12 L 114.57 170.11 C 114.52 169.25 113.79 168.59 112.93 168.63 C 112.07 168.67 111.40 169.41 111.45 170.27 Z M 111.50 171.31 L 111.57 172.31 C 111.63 173.17 112.37 173.82 113.23 173.76 C 114.09 173.70 114.74 172.95 114.68 172.09 L 114.62 171.10 C 114.56 170.24 113.81 169.59 112.95 169.64 C 112.09 169.70 111.44 170.45 111.50 171.31 Z M 111.57 172.34 L 111.66 173.30 C 111.73 174.16 112.49 174.79 113.35 174.72 C 114.21 174.64 114.84 173.89 114.77 173.03 L 114.68 172.06 C 114.61 171.21 113.85 170.57 112.99 170.64 C 112.13 170.72 111.50 171.48 111.57 172.34 Z M 111.66 173.32 L 111.76 174.31 C 111.85 175.17 112.61 175.79 113.47 175.71 C 114.33 175.62 114.95 174.85 114.87 173.99 L 114.76 173.00 C 114.68 172.15 113.91 171.52 113.05 171.61 C 112.20 171.70 111.57 172.46 111.66 173.32 Z M 111.76 174.33 L 111.88 175.35 C 111.97 176.21 112.74 176.83 113.60 176.73 C 114.46 176.63 115.07 175.86 114.98 175.00 L 114.86 173.98 C 114.77 173.12 114.00 172.50 113.14 172.60 C 112.28 172.70 111.66 173.47 111.76 174.33 Z M 111.88 175.36 L 112.00 176.37 C 112.10 177.23 112.87 177.84 113.73 177.74 C 114.58 177.64 115.20 176.86 115.10 176.01 L 114.98 175.00 C 114.88 174.14 114.10 173.53 113.24 173.63 C 112.39 173.73 111.78 174.50 111.88 175.36 Z M 112.00 176.38 L 112.12 177.38 C 112.22 178.23 113.00 178.84 113.85 178.74 C 114.71 178.64 115.32 177.86 115.22 177.00 L 115.10 176.00 C 114.99 175.15 114.21 174.54 113.36 174.64 C 112.50 174.74 111.89 175.52 112.00 176.38 Z M 112.12 177.38 L 112.24 178.39 C 112.34 179.24 113.12 179.85 113.98 179.75 C 114.83 179.64 115.44 178.86 115.34 178.01 L 115.22 177.00 C 115.11 176.15 114.33 175.54 113.48 175.64 C 112.62 175.74 112.01 176.52 112.12 177.38 Z M 112.24 178.38 L 112.36 179.38 C 112.46 180.23 113.24 180.84 114.10 180.74 C 114.95 180.64 115.56 179.86 115.46 179.00 L 115.34 178.01 C 115.23 177.15 114.46 176.54 113.60 176.65 C 112.74 176.75 112.14 177.53 112.24 178.38 Z M 112.36 179.37 L 112.48 180.38 C 112.58 181.23 113.36 181.84 114.21 181.74 C 115.07 181.64 115.68 180.86 115.58 180.01 L 115.46 179.00 C 115.36 178.15 114.58 177.54 113.72 177.64 C 112.87 177.74 112.26 178.52 112.36 179.37 Z M 112.48 180.37 L 112.60 181.39 C 112.70 182.24 113.47 182.86 114.33 182.75 C 115.19 182.65 115.80 181.88 115.70 181.02 L 115.58 180.01 C 115.48 179.15 114.70 178.54 113.85 178.64 C 112.99 178.74 112.38 179.52 112.48 180.37 Z M 112.60 181.39 L 112.71 182.37 C 112.81 183.22 113.59 183.84 114.45 183.74 C 115.30 183.64 115.91 182.86 115.81 182.00 L 115.70 181.02 C 115.60 180.17 114.82 179.55 113.97 179.65 C 113.11 179.75 112.50 180.53 112.60 181.39 Z M 112.71 182.37 L 112.83 183.34 C 112.93 184.20 113.71 184.81 114.57 184.70 C 115.42 184.60 116.03 183.82 115.93 182.97 L 115.81 182.00 C 115.71 181.14 114.93 180.53 114.08 180.64 C 113.22 180.74 112.61 181.52 112.71 182.37 Z M 112.83 183.35 L 112.95 184.33 C 113.06 185.18 113.84 185.79 114.70 185.68 C 115.55 185.57 116.16 184.79 116.05 183.93 L 115.93 182.96 C 115.82 182.10 115.04 181.50 114.18 181.61 C 113.33 181.71 112.72 182.49 112.83 183.35 Z M 112.96 184.34 L 113.09 185.33 C 113.20 186.18 113.99 186.78 114.84 186.67 C 115.70 186.55 116.30 185.77 116.18 184.91 L 116.05 183.92 C 115.94 183.07 115.15 182.47 114.30 182.58 C 113.44 182.70 112.84 183.48 112.96 184.34 Z M 113.09 185.34 L 113.23 186.33 C 113.35 187.18 114.14 187.78 115.00 187.66 C 115.85 187.54 116.44 186.75 116.32 185.89 L 116.18 184.90 C 116.06 184.05 115.27 183.45 114.42 183.57 C 113.56 183.69 112.97 184.48 113.09 185.34 Z M 113.23 186.35 L 113.38 187.34 C 113.51 188.19 114.31 188.78 115.16 188.65 C 116.01 188.52 116.60 187.73 116.47 186.87 L 116.32 185.88 C 116.19 185.03 115.40 184.44 114.54 184.57 C 113.69 184.70 113.10 185.49 113.23 186.35 Z M 113.39 187.36 L 113.55 188.35 C 113.68 189.20 114.49 189.78 115.34 189.64 C 116.19 189.50 116.77 188.70 116.63 187.85 L 116.47 186.86 C 116.33 186.01 115.53 185.43 114.68 185.57 C 113.83 185.70 113.25 186.51 113.39 187.36 Z M 113.55 188.36 L 113.72 189.35 C 113.86 190.20 114.67 190.77 115.52 190.63 C 116.37 190.48 116.94 189.68 116.80 188.83 L 116.63 187.84 C 116.48 186.99 115.68 186.42 114.83 186.56 C 113.98 186.71 113.40 187.51 113.55 188.36 Z M 113.72 189.36 L 113.89 190.35 C 114.04 191.19 114.86 191.76 115.70 191.61 C 116.55 191.46 117.12 190.65 116.97 189.80 L 116.79 188.82 C 116.64 187.97 115.83 187.40 114.98 187.55 C 114.13 187.70 113.57 188.51 113.72 189.36 Z M 113.90 190.35 L 114.08 191.33 C 114.23 192.18 115.05 192.74 115.89 192.59 C 116.74 192.43 117.30 191.62 117.15 190.77 L 116.97 189.79 C 116.81 188.94 116.00 188.38 115.15 188.54 C 114.30 188.69 113.74 189.51 113.90 190.35 Z M 114.08 191.34 L 114.26 192.33 C 114.42 193.18 115.24 193.73 116.09 193.57 C 116.93 193.42 117.49 192.60 117.33 191.75 L 117.15 190.76 C 116.99 189.92 116.17 189.36 115.32 189.52 C 114.48 189.68 113.92 190.49 114.08 191.34 Z M 114.26 192.33 L 114.45 193.31 C 114.61 194.16 115.43 194.72 116.28 194.56 C 117.12 194.39 117.68 193.58 117.52 192.73 L 117.33 191.75 C 117.17 190.90 116.35 190.35 115.51 190.51 C 114.66 190.67 114.10 191.49 114.26 192.33 Z M 114.45 193.31 L 114.64 194.29 C 114.80 195.14 115.61 195.69 116.46 195.53 C 117.31 195.37 117.86 194.55 117.70 193.71 L 117.52 192.73 C 117.36 191.88 116.54 191.33 115.69 191.49 C 114.84 191.65 114.29 192.47 114.45 193.31 Z M 114.64 194.29 L 114.82 195.28 C 114.98 196.13 115.80 196.68 116.65 196.52 C 117.49 196.36 118.05 195.55 117.89 194.70 L 117.70 193.71 C 117.54 192.86 116.73 192.31 115.88 192.47 C 115.03 192.63 114.48 193.44 114.64 194.29 Z M 114.82 195.28 L 115.01 196.27 C 115.17 197.12 115.99 197.68 116.83 197.52 C 117.68 197.36 118.24 196.54 118.08 195.70 L 117.89 194.70 C 117.73 193.85 116.91 193.30 116.07 193.46 C 115.22 193.61 114.66 194.43 114.82 195.28 Z M 115.01 196.28 L 115.20 197.26 C 115.37 198.11 116.19 198.66 117.03 198.50 C 117.88 198.33 118.43 197.51 118.27 196.67 L 118.08 195.69 C 117.91 194.84 117.09 194.29 116.25 194.45 C 115.40 194.62 114.85 195.44 115.01 196.28 Z M 115.21 197.28 L 115.40 198.24 C 115.58 199.09 116.41 199.63 117.25 199.45 C 118.09 199.28 118.64 198.45 118.46 197.61 L 118.26 196.65 C 118.09 195.81 117.26 195.26 116.42 195.44 C 115.57 195.61 115.03 196.44 115.21 197.28 Z M 115.41 198.27 L 115.64 199.26 C 115.83 200.10 116.66 200.63 117.50 200.44 C 118.34 200.25 118.87 199.42 118.68 198.58 L 118.46 197.58 C 118.27 196.74 117.43 196.21 116.59 196.40 C 115.75 196.59 115.22 197.43 115.41 198.27 Z M 115.64 199.29 L 115.88 200.26 C 116.08 201.10 116.93 201.61 117.77 201.40 C 118.60 201.20 119.12 200.35 118.91 199.52 L 118.67 198.55 C 118.47 197.71 117.62 197.20 116.79 197.40 C 115.95 197.61 115.44 198.45 115.64 199.29 Z M 115.88 200.28 L 116.13 201.24 C 116.35 202.07 117.20 202.57 118.04 202.35 C 118.87 202.14 119.37 201.28 119.15 200.45 L 118.91 199.50 C 118.69 198.66 117.84 198.16 117.00 198.38 C 116.17 198.59 115.67 199.45 115.88 200.28 Z M 116.14 201.25 L 116.40 202.22 C 116.63 203.05 117.48 203.54 118.32 203.31 C 119.15 203.09 119.64 202.23 119.41 201.40 L 119.15 200.43 C 118.92 199.60 118.07 199.11 117.23 199.34 C 116.40 199.56 115.91 200.42 116.14 201.25 Z M 116.40 202.23 L 116.68 203.20 C 116.91 204.03 117.77 204.51 118.60 204.28 C 119.43 204.05 119.91 203.19 119.68 202.36 L 119.41 201.39 C 119.18 200.56 118.31 200.07 117.48 200.31 C 116.65 200.54 116.17 201.40 116.40 202.23 Z M 116.68 203.21 L 116.96 204.17 C 117.20 205.00 118.06 205.48 118.89 205.24 C 119.72 205.00 120.19 204.13 119.96 203.30 L 119.68 202.34 C 119.44 201.52 118.57 201.04 117.74 201.28 C 116.92 201.52 116.44 202.38 116.68 203.21 Z M 116.96 204.18 L 117.23 205.09 C 117.48 205.92 118.35 206.39 119.17 206.15 C 120.00 205.90 120.47 205.03 120.22 204.20 L 119.95 203.29 C 119.71 202.46 118.84 201.99 118.01 202.24 C 117.18 202.49 116.71 203.35 116.96 204.18 Z M 117.24 205.11 L 117.51 205.98 C 117.76 206.81 118.64 207.27 119.46 207.01 C 120.28 206.76 120.74 205.88 120.49 205.06 L 120.22 204.19 C 119.96 203.36 119.09 202.90 118.26 203.16 C 117.44 203.41 116.98 204.29 117.24 205.11 Z M 117.52 206.01 L 117.83 206.95 C 118.10 207.76 118.98 208.21 119.80 207.93 C 120.62 207.66 121.06 206.78 120.79 205.96 L 120.48 205.03 C 120.21 204.21 119.32 203.77 118.50 204.04 C 117.69 204.31 117.24 205.20 117.52 206.01 Z M 117.84 206.98 L 118.22 208.03 C 118.51 208.84 119.40 209.26 120.21 208.97 C 121.03 208.68 121.45 207.78 121.15 206.97 L 120.78 205.92 C 120.48 205.11 119.59 204.69 118.78 204.98 C 117.97 205.28 117.55 206.17 117.84 206.98 Z M 118.23 208.06 L 118.56 208.93 C 118.87 209.73 119.77 210.13 120.58 209.82 C 121.38 209.51 121.78 208.61 121.47 207.81 L 121.14 206.94 C 120.83 206.13 119.93 205.73 119.12 206.04 C 118.32 206.35 117.92 207.26 118.23 208.06 Z M 118.57 208.95 L 118.93 209.83 C 119.25 210.63 120.16 211.02 120.96 210.70 C 121.76 210.38 122.14 209.47 121.82 208.67 L 121.47 207.78 C 121.14 206.98 120.24 206.60 119.44 206.92 C 118.64 207.24 118.25 208.15 118.57 208.95 Z M 118.93 209.85 L 119.32 210.79 C 119.66 211.58 120.57 211.96 121.37 211.62 C 122.16 211.29 122.54 210.38 122.20 209.58 L 121.81 208.65 C 121.48 207.85 120.57 207.48 119.77 207.81 C 118.98 208.14 118.60 209.06 118.93 209.85 Z M 119.33 210.81 L 119.75 211.77 C 120.10 212.56 121.02 212.92 121.81 212.58 C 122.60 212.23 122.96 211.31 122.61 210.52 L 122.20 209.56 C 121.85 208.77 120.93 208.41 120.14 208.75 C 119.35 209.10 118.99 210.02 119.33 210.81 Z M 119.76 211.79 L 120.20 212.76 C 120.56 213.55 121.49 213.90 122.27 213.54 C 123.06 213.18 123.40 212.26 123.05 211.47 L 122.61 210.50 C 122.25 209.72 121.32 209.37 120.54 209.73 C 119.75 210.08 119.41 211.01 119.76 211.79 Z M 120.21 212.79 L 120.65 213.72 C 121.02 214.49 121.96 214.83 122.73 214.46 C 123.51 214.09 123.85 213.16 123.48 212.38 L 123.04 211.45 C 122.67 210.67 121.73 210.34 120.96 210.71 C 120.18 211.08 119.84 212.01 120.21 212.79 Z M 120.67 213.74 L 121.11 214.64 C 121.50 215.41 122.43 215.73 123.20 215.35 C 123.98 214.96 124.29 214.03 123.91 213.25 L 123.46 212.35 C 123.08 211.58 122.14 211.26 121.37 211.65 C 120.60 212.03 120.28 212.97 120.67 213.74 Z M 121.12 214.66 L 121.58 215.55 C 121.98 216.32 122.92 216.62 123.69 216.22 C 124.45 215.83 124.75 214.89 124.36 214.12 L 123.90 213.23 C 123.50 212.46 122.56 212.16 121.79 212.56 C 121.03 212.96 120.73 213.90 121.12 214.66 Z M 121.60 215.58 L 122.07 216.45 C 122.48 217.21 123.42 217.50 124.18 217.09 C 124.94 216.68 125.23 215.73 124.82 214.97 L 124.35 214.10 C 123.94 213.34 122.99 213.05 122.23 213.46 C 121.47 213.87 121.19 214.82 121.60 215.58 Z M 122.08 216.48 L 122.57 217.34 C 122.99 218.10 123.94 218.36 124.69 217.94 C 125.44 217.52 125.71 216.57 125.29 215.82 L 124.81 214.95 C 124.38 214.20 123.43 213.93 122.68 214.35 C 121.93 214.77 121.66 215.72 122.08 216.48 Z M 122.58 217.37 L 123.08 218.23 C 123.52 218.98 124.47 219.23 125.22 218.80 C 125.96 218.36 126.22 217.41 125.78 216.66 L 125.28 215.80 C 124.84 215.05 123.89 214.80 123.14 215.23 C 122.40 215.67 122.15 216.62 122.58 217.37 Z M 123.10 218.25 L 123.62 219.12 C 124.07 219.86 125.03 220.10 125.77 219.65 C 126.50 219.20 126.74 218.24 126.29 217.51 L 125.77 216.64 C 125.32 215.90 124.36 215.66 123.62 216.11 C 122.89 216.56 122.65 217.52 123.10 218.25 Z M 123.64 219.15 L 124.18 220.00 C 124.64 220.73 125.60 220.95 126.33 220.49 C 127.06 220.03 127.28 219.07 126.82 218.34 L 126.28 217.48 C 125.82 216.75 124.85 216.53 124.13 216.99 C 123.40 217.45 123.18 218.42 123.64 219.15 Z M 124.19 220.03 L 124.74 220.86 C 125.22 221.58 126.19 221.78 126.91 221.31 C 127.63 220.84 127.83 219.87 127.35 219.15 L 126.80 218.31 C 126.33 217.59 125.36 217.39 124.64 217.87 C 123.92 218.34 123.72 219.31 124.19 220.03 Z M 124.76 220.89 L 125.33 221.71 C 125.81 222.42 126.79 222.60 127.50 222.11 C 128.21 221.62 128.38 220.64 127.90 219.93 L 127.33 219.12 C 126.84 218.41 125.87 218.23 125.16 218.72 C 124.45 219.21 124.27 220.18 124.76 220.89 Z M 125.35 221.74 L 125.92 222.53 C 126.43 223.23 127.40 223.38 128.10 222.88 C 128.80 222.37 128.95 221.40 128.45 220.70 L 127.87 219.91 C 127.37 219.21 126.39 219.05 125.69 219.56 C 125.00 220.06 124.84 221.04 125.35 221.74 Z M 125.94 222.56 L 126.58 223.39 C 127.10 224.07 128.08 224.20 128.77 223.68 C 129.45 223.16 129.58 222.18 129.06 221.49 L 128.42 220.66 C 127.90 219.98 126.92 219.85 126.24 220.37 C 125.55 220.90 125.42 221.88 125.94 222.56 Z M 126.60 223.42 L 127.24 224.21 C 127.78 224.89 128.77 224.99 129.44 224.45 C 130.11 223.91 130.21 222.93 129.67 222.25 L 129.03 221.46 C 128.49 220.79 127.51 220.68 126.84 221.23 C 126.17 221.77 126.06 222.75 126.60 223.42 Z M 127.26 224.24 L 127.91 225.00 C 128.46 225.66 129.45 225.75 130.11 225.19 C 130.77 224.63 130.85 223.65 130.29 222.99 L 129.65 222.23 C 129.09 221.57 128.11 221.49 127.45 222.04 C 126.79 222.60 126.71 223.58 127.26 224.24 Z M 127.93 225.03 L 128.57 225.76 C 129.14 226.41 130.13 226.47 130.78 225.90 C 131.42 225.33 131.49 224.35 130.92 223.70 L 130.27 222.97 C 129.70 222.32 128.72 222.26 128.07 222.82 C 127.42 223.39 127.36 224.38 127.93 225.03 Z M 128.59 225.78 L 129.25 226.50 C 129.83 227.14 130.82 227.19 131.45 226.61 C 132.09 226.03 132.14 225.04 131.56 224.40 L 130.90 223.68 C 130.32 223.04 129.33 222.99 128.69 223.57 C 128.06 224.16 128.01 225.14 128.59 225.78 Z M 129.27 226.52 L 129.99 227.29 C 130.58 227.92 131.57 227.95 132.20 227.36 C 132.83 226.77 132.86 225.78 132.27 225.15 L 131.54 224.38 C 130.95 223.76 129.96 223.72 129.33 224.32 C 128.71 224.91 128.68 225.89 129.27 226.52 Z M 130.01 227.31 L 130.72 228.04 C 131.33 228.66 132.31 228.67 132.93 228.07 C 133.55 227.47 133.56 226.48 132.96 225.86 L 132.24 225.13 C 131.64 224.52 130.65 224.50 130.04 225.11 C 129.42 225.71 129.41 226.70 130.01 227.31 Z M 130.75 228.07 L 131.45 228.75 C 132.06 229.36 133.05 229.35 133.65 228.73 C 134.26 228.12 134.25 227.13 133.63 226.52 L 132.93 225.84 C 132.32 225.23 131.33 225.24 130.73 225.86 C 130.12 226.47 130.13 227.46 130.75 228.07 Z M 131.47 228.78 L 132.15 229.42 C 132.78 230.00 133.77 229.97 134.36 229.34 C 134.95 228.71 134.92 227.73 134.29 227.14 L 133.61 226.50 C 132.98 225.91 131.99 225.94 131.40 226.57 C 130.81 227.20 130.84 228.19 131.47 228.78 Z M 132.19 229.45 L 132.94 230.11 C 133.59 230.68 134.58 230.62 135.15 229.97 C 135.72 229.33 135.65 228.34 135.01 227.77 L 134.25 227.10 C 133.60 226.53 132.62 226.60 132.05 227.24 C 131.48 227.89 131.54 228.88 132.19 229.45 Z M 132.99 230.15 L 133.76 230.77 C 134.43 231.31 135.41 231.21 135.95 230.54 C 136.49 229.87 136.39 228.89 135.72 228.35 L 134.96 227.73 C 134.29 227.19 133.31 227.29 132.76 227.96 C 132.22 228.63 132.32 229.61 132.99 230.15 Z M 133.81 230.82 L 134.61 231.40 C 135.31 231.91 136.28 231.76 136.79 231.07 C 137.30 230.37 137.15 229.40 136.46 228.89 L 135.66 228.30 C 134.97 227.79 133.99 227.94 133.48 228.63 C 132.97 229.33 133.12 230.31 133.81 230.82 Z M 134.67 231.44 L 135.51 232.00 C 136.23 232.48 137.20 232.28 137.67 231.57 C 138.15 230.85 137.96 229.88 137.24 229.40 L 136.40 228.84 C 135.68 228.37 134.71 228.56 134.24 229.28 C 133.76 230.00 133.95 230.97 134.67 231.44 Z M 135.57 232.04 L 136.41 232.55 C 137.15 232.99 138.11 232.75 138.55 232.01 C 139.00 231.27 138.76 230.31 138.02 229.87 L 137.18 229.36 C 136.44 228.92 135.48 229.16 135.04 229.90 C 134.59 230.64 134.83 231.60 135.57 232.04 Z M 136.48 232.59 L 137.38 233.06 C 138.14 233.46 139.08 233.17 139.49 232.41 C 139.89 231.65 139.60 230.70 138.84 230.30 L 137.94 229.83 C 137.18 229.42 136.24 229.71 135.83 230.48 C 135.43 231.24 135.72 232.18 136.48 232.59 Z M 137.47 233.11 L 138.40 233.52 C 139.19 233.87 140.11 233.51 140.46 232.73 C 140.81 231.94 140.46 231.02 139.67 230.67 L 138.74 230.25 C 137.95 229.90 137.03 230.26 136.68 231.04 C 136.33 231.83 136.68 232.75 137.47 233.11 Z M 138.53 233.57 L 139.48 233.90 C 140.30 234.18 141.18 233.74 141.47 232.93 C 141.75 232.11 141.31 231.23 140.50 230.94 L 139.54 230.62 C 138.73 230.33 137.84 230.77 137.56 231.58 C 137.28 232.40 137.71 233.29 138.53 233.57 Z M 139.63 233.94 L 140.63 234.17 C 141.47 234.37 142.31 233.85 142.51 233.01 C 142.70 232.17 142.18 231.33 141.34 231.13 L 140.35 230.90 C 139.51 230.70 138.67 231.23 138.47 232.06 C 138.27 232.90 138.79 233.74 139.63 233.94 Z M 140.77 234.20 L 141.77 234.34 C 142.62 234.46 143.41 233.86 143.53 233.01 C 143.65 232.16 143.05 231.37 142.20 231.25 L 141.20 231.11 C 140.35 230.99 139.56 231.58 139.44 232.44 C 139.32 233.29 139.92 234.08 140.77 234.20 Z M 141.88 234.35 L 142.86 234.42 C 143.73 234.47 144.47 233.82 144.53 232.96 C 144.58 232.10 143.93 231.36 143.07 231.30 L 142.09 231.24 C 141.23 231.18 140.48 231.83 140.43 232.69 C 140.37 233.55 141.02 234.29 141.88 234.35 Z M 142.95 234.42 L 143.94 234.43 C 144.80 234.44 145.51 233.75 145.52 232.89 C 145.53 232.03 144.84 231.32 143.98 231.31 L 142.99 231.30 C 142.13 231.29 141.42 231.98 141.41 232.84 C 141.40 233.70 142.09 234.41 142.95 234.42 Z M 144.02 234.43 L 145.07 234.39 C 145.93 234.36 146.60 233.63 146.57 232.77 C 146.54 231.91 145.81 231.24 144.95 231.27 L 143.90 231.31 C 143.04 231.34 142.37 232.07 142.40 232.93 C 142.43 233.79 143.16 234.46 144.02 234.43 Z M 145.20 234.38 L 146.19 234.26 C 147.05 234.16 147.66 233.38 147.56 232.53 C 147.46 231.67 146.68 231.06 145.82 231.16 L 144.83 231.28 C 143.97 231.38 143.36 232.16 143.46 233.02 C 143.56 233.87 144.34 234.48 145.20 234.38 Z M 146.38 234.23 L 147.30 234.01 C 148.14 233.80 148.65 232.96 148.45 232.12 C 148.24 231.28 147.40 230.77 146.56 230.97 L 145.64 231.20 C 144.80 231.40 144.29 232.24 144.49 233.08 C 144.69 233.92 145.54 234.43 146.38 234.23 Z M 147.55 233.92 L 148.42 233.54 C 149.22 233.20 149.58 232.28 149.24 231.49 C 148.90 230.70 147.98 230.33 147.19 230.68 L 146.31 231.05 C 145.52 231.40 145.15 232.31 145.50 233.11 C 145.84 233.90 146.76 234.26 147.55 233.92 Z M 148.66 233.41 L 149.48 232.88 C 150.20 232.41 150.40 231.44 149.92 230.72 C 149.45 230.00 148.48 229.80 147.76 230.27 L 146.95 230.81 C 146.23 231.28 146.03 232.25 146.50 232.97 C 146.98 233.69 147.94 233.89 148.66 233.41 Z M 149.64 232.75 L 150.41 232.09 C 151.06 231.52 151.13 230.54 150.56 229.89 C 149.99 229.24 149.01 229.17 148.36 229.73 L 147.59 230.40 C 146.94 230.96 146.87 231.95 147.44 232.60 C 148.00 233.25 148.99 233.32 149.64 232.75 Z M 150.50 232.01 L 151.19 231.30 C 151.79 230.68 151.78 229.69 151.17 229.09 C 150.55 228.49 149.57 228.50 148.96 229.11 L 148.27 229.82 C 147.66 230.43 147.67 231.42 148.29 232.03 C 148.90 232.63 149.89 232.62 150.50 232.01 Z M 151.24 231.24 L 151.88 230.53 C 152.45 229.89 152.39 228.90 151.75 228.33 C 151.11 227.75 150.12 227.81 149.55 228.45 L 148.91 229.16 C 148.34 229.81 148.39 230.79 149.04 231.37 C 149.68 231.94 150.67 231.89 151.24 231.24 Z M 151.92 230.49 L 152.56 229.71 C 153.10 229.05 153.01 228.06 152.34 227.51 C 151.68 226.96 150.69 227.06 150.15 227.72 L 149.51 228.50 C 148.96 229.16 149.05 230.15 149.72 230.70 C 150.38 231.25 151.37 231.15 151.92 230.49 Z M 152.59 229.67 L 153.23 228.83 C 153.75 228.15 153.62 227.17 152.94 226.64 C 152.25 226.12 151.27 226.25 150.75 226.93 L 150.11 227.77 C 149.59 228.45 149.72 229.43 150.40 229.96 C 151.09 230.48 152.07 230.35 152.59 229.67 Z M 153.26 228.79 L 153.81 228.02 C 154.31 227.32 154.15 226.34 153.45 225.84 C 152.74 225.34 151.77 225.50 151.27 226.21 L 150.72 226.98 C 150.22 227.68 150.38 228.65 151.08 229.15 C 151.78 229.65 152.76 229.49 153.26 228.79 Z M 153.83 227.99 L 154.33 227.25 C 154.81 226.54 154.62 225.57 153.91 225.08 C 153.20 224.60 152.23 224.79 151.74 225.50 L 151.24 226.24 C 150.76 226.95 150.95 227.92 151.66 228.41 C 152.38 228.89 153.35 228.70 153.83 227.99 Z M 154.35 227.23 L 154.86 226.43 C 155.33 225.71 155.12 224.74 154.40 224.27 C 153.68 223.80 152.71 224.01 152.24 224.73 L 151.73 225.53 C 151.26 226.25 151.46 227.22 152.19 227.69 C 152.91 228.16 153.88 227.95 154.35 227.23 Z M 154.87 226.41 L 155.42 225.54 C 155.88 224.81 155.66 223.85 154.93 223.39 C 154.20 222.93 153.24 223.15 152.78 223.88 L 152.23 224.75 C 151.77 225.48 151.99 226.44 152.72 226.90 C 153.45 227.36 154.41 227.14 154.87 226.41 Z M 155.43 225.53 L 156.03 224.57 C 156.48 223.83 156.25 222.87 155.52 222.42 C 154.79 221.96 153.82 222.19 153.37 222.92 L 152.77 223.89 C 152.32 224.62 152.55 225.58 153.28 226.04 C 154.01 226.49 154.98 226.26 155.43 225.53 Z M 156.03 224.56 L 156.55 223.71 C 157.00 222.97 156.77 222.01 156.04 221.56 C 155.30 221.11 154.34 221.34 153.89 222.08 L 153.37 222.93 C 152.92 223.66 153.15 224.63 153.88 225.08 C 154.62 225.53 155.58 225.30 156.03 224.56 Z M 156.55 223.70 L 157.03 222.93 C 157.48 222.19 157.24 221.23 156.51 220.78 C 155.77 220.33 154.81 220.57 154.36 221.30 L 153.89 222.08 C 153.44 222.81 153.67 223.77 154.41 224.22 C 155.14 224.67 156.10 224.44 156.55 223.70 Z M 157.03 222.93 L 157.53 222.11 C 157.97 221.37 157.74 220.41 157.01 219.96 C 156.27 219.52 155.31 219.75 154.86 220.48 L 154.36 221.30 C 153.91 222.04 154.15 223.00 154.88 223.45 C 155.62 223.90 156.58 223.66 157.03 222.93 Z M 157.53 222.11 L 158.05 221.26 C 158.49 220.52 158.26 219.56 157.53 219.11 C 156.79 218.66 155.83 218.90 155.38 219.63 L 154.86 220.48 C 154.41 221.22 154.64 222.18 155.38 222.63 C 156.12 223.08 157.08 222.85 157.53 222.11 Z M 158.05 221.26 L 158.58 220.38 C 159.03 219.64 158.80 218.68 158.06 218.23 C 157.33 217.78 156.37 218.01 155.92 218.75 L 155.38 219.63 C 154.93 220.37 155.16 221.33 155.90 221.78 C 156.64 222.23 157.60 221.99 158.05 221.26 Z M 158.58 220.38 L 159.13 219.48 C 159.58 218.74 159.35 217.78 158.62 217.33 C 157.88 216.88 156.92 217.11 156.47 217.85 L 155.92 218.75 C 155.47 219.48 155.70 220.45 156.44 220.90 C 157.17 221.35 158.13 221.11 158.58 220.38 Z M 159.13 219.48 L 159.69 218.57 C 160.14 217.83 159.91 216.87 159.18 216.42 C 158.44 215.97 157.48 216.20 157.03 216.93 L 156.47 217.85 C 156.02 218.58 156.25 219.54 156.98 219.99 C 157.72 220.45 158.68 220.22 159.13 219.48 Z M 159.69 218.57 L 160.25 217.66 C 160.71 216.92 160.48 215.96 159.74 215.51 C 159.01 215.06 158.05 215.28 157.60 216.02 L 157.03 216.93 C 156.58 217.66 156.81 218.63 157.54 219.08 C 158.28 219.53 159.24 219.30 159.69 218.57 Z M 160.25 217.66 L 160.80 216.77 C 161.26 216.03 161.03 215.07 160.30 214.62 C 159.57 214.16 158.61 214.39 158.15 215.12 L 157.60 216.01 C 157.14 216.75 157.37 217.71 158.10 218.16 C 158.84 218.62 159.80 218.39 160.25 217.66 Z M 160.80 216.77 L 161.36 215.88 C 161.81 215.15 161.59 214.19 160.85 213.73 C 160.12 213.28 159.16 213.50 158.70 214.23 L 158.15 215.12 C 157.70 215.85 157.92 216.81 158.65 217.27 C 159.39 217.73 160.35 217.50 160.80 216.77 Z M 161.35 215.89 L 161.90 215.01 C 162.36 214.28 162.14 213.32 161.40 212.86 C 160.67 212.40 159.71 212.62 159.25 213.36 L 158.71 214.23 C 158.25 214.96 158.47 215.93 159.20 216.38 C 159.93 216.84 160.90 216.62 161.35 215.89 Z M 161.90 215.01 L 162.44 214.15 C 162.90 213.42 162.67 212.46 161.94 212.00 C 161.21 211.54 160.25 211.76 159.79 212.49 L 159.25 213.35 C 158.80 214.08 159.02 215.05 159.75 215.51 C 160.48 215.96 161.44 215.74 161.90 215.01 Z M 162.44 214.15 L 162.96 213.31 C 163.42 212.58 163.20 211.62 162.47 211.16 C 161.74 210.70 160.78 210.92 160.32 211.65 L 159.79 212.49 C 159.33 213.22 159.56 214.19 160.29 214.64 C 161.02 215.10 161.98 214.88 162.44 214.15 Z M 162.96 213.32 L 163.47 212.50 C 163.93 211.77 163.71 210.81 162.98 210.35 C 162.25 209.89 161.29 210.11 160.83 210.84 L 160.32 211.65 C 159.86 212.38 160.08 213.35 160.81 213.81 C 161.54 214.26 162.50 214.04 162.96 213.32 Z M 163.47 212.50 L 163.97 211.72 C 164.43 210.99 164.21 210.03 163.48 209.57 C 162.75 209.11 161.78 209.33 161.32 210.06 L 160.83 210.84 C 160.37 211.57 160.59 212.53 161.32 212.99 C 162.05 213.45 163.02 213.23 163.47 212.50 Z M 163.97 211.72 L 164.52 210.83 C 164.98 210.10 164.76 209.14 164.03 208.68 C 163.31 208.22 162.34 208.44 161.88 209.17 L 161.32 210.06 C 160.86 210.79 161.08 211.75 161.81 212.21 C 162.54 212.67 163.51 212.45 163.97 211.72 Z M 164.53 210.83 L 165.09 209.94 C 165.55 209.21 165.33 208.25 164.60 207.79 C 163.87 207.33 162.90 207.55 162.44 208.28 L 161.88 209.17 C 161.42 209.90 161.64 210.87 162.37 211.32 C 163.10 211.78 164.07 211.56 164.53 210.83 Z M 165.09 209.94 L 165.62 209.08 C 166.08 208.35 165.86 207.39 165.13 206.93 C 164.40 206.47 163.43 206.69 162.98 207.43 L 162.44 208.28 C 161.98 209.01 162.21 209.97 162.94 210.43 C 163.67 210.89 164.63 210.67 165.09 209.94 Z M 165.63 209.08 L 166.14 208.25 C 166.60 207.52 166.37 206.56 165.64 206.10 C 164.91 205.65 163.94 205.87 163.49 206.60 L 162.97 207.43 C 162.52 208.16 162.74 209.12 163.48 209.58 C 164.21 210.03 165.17 209.81 165.63 209.08 Z M 166.14 208.25 L 166.64 207.44 C 167.10 206.70 166.87 205.74 166.13 205.29 C 165.40 204.84 164.44 205.06 163.99 205.80 L 163.49 206.61 C 163.03 207.34 163.26 208.30 164.00 208.76 C 164.73 209.21 165.69 208.98 166.14 208.25 Z M 166.65 207.43 L 167.14 206.62 C 167.59 205.89 167.36 204.93 166.62 204.48 C 165.88 204.03 164.92 204.26 164.47 205.00 L 163.98 205.80 C 163.53 206.54 163.77 207.50 164.50 207.95 C 165.24 208.40 166.20 208.17 166.65 207.43 Z M 167.14 206.61 L 167.64 205.79 C 168.09 205.05 167.85 204.09 167.11 203.64 C 166.37 203.20 165.41 203.44 164.97 204.18 L 164.47 205.00 C 164.02 205.74 164.26 206.70 165.00 207.15 C 165.74 207.59 166.70 207.35 167.14 206.61 Z M 167.65 205.78 L 168.15 204.93 C 168.59 204.19 168.34 203.23 167.60 202.79 C 166.86 202.35 165.90 202.60 165.46 203.34 L 164.96 204.19 C 164.52 204.93 164.77 205.89 165.51 206.33 C 166.25 206.76 167.21 206.52 167.65 205.78 Z M 168.16 204.92 L 168.65 204.06 C 169.08 203.31 168.83 202.36 168.08 201.92 C 167.34 201.49 166.38 201.75 165.95 202.50 L 165.45 203.36 C 165.02 204.10 165.28 205.06 166.02 205.49 C 166.77 205.92 167.73 205.66 168.16 204.92 Z M 168.66 204.04 L 169.15 203.17 C 169.58 202.41 169.31 201.46 168.56 201.04 C 167.80 200.62 166.85 200.89 166.43 201.64 L 165.94 202.51 C 165.52 203.27 165.79 204.22 166.54 204.64 C 167.29 205.06 168.24 204.79 168.66 204.04 Z M 169.17 203.14 L 169.65 202.25 C 170.06 201.49 169.78 200.55 169.02 200.14 C 168.26 199.73 167.31 200.01 166.90 200.77 L 166.42 201.66 C 166.01 202.42 166.29 203.36 167.05 203.77 C 167.81 204.18 168.75 203.90 169.17 203.14 Z M 169.66 202.23 L 170.13 201.32 C 170.53 200.55 170.23 199.61 169.47 199.21 C 168.70 198.82 167.76 199.11 167.36 199.88 L 166.89 200.79 C 166.49 201.55 166.79 202.50 167.56 202.89 C 168.32 203.29 169.26 202.99 169.66 202.23 Z M 170.15 201.29 L 170.62 200.34 C 171.00 199.57 170.69 198.63 169.91 198.25 C 169.14 197.86 168.21 198.18 167.82 198.95 L 167.35 199.90 C 166.97 200.68 167.28 201.61 168.05 202.00 C 168.83 202.38 169.76 202.06 170.15 201.29 Z M 170.63 200.32 L 171.09 199.36 C 171.46 198.58 171.13 197.65 170.35 197.28 C 169.57 196.91 168.64 197.24 168.27 198.02 L 167.81 198.98 C 167.44 199.75 167.77 200.69 168.55 201.06 C 169.33 201.43 170.26 201.10 170.63 200.32 Z M 171.10 199.34 L 171.53 198.40 C 171.89 197.61 171.54 196.69 170.76 196.33 C 169.98 195.97 169.05 196.31 168.69 197.09 L 168.26 198.04 C 167.90 198.82 168.24 199.75 169.03 200.11 C 169.81 200.47 170.74 200.12 171.10 199.34 Z M 171.54 198.38 L 171.94 197.47 C 172.29 196.68 171.94 195.76 171.15 195.41 C 170.36 195.06 169.44 195.41 169.09 196.20 L 168.68 197.11 C 168.33 197.90 168.69 198.82 169.47 199.17 C 170.26 199.52 171.19 199.17 171.54 198.38 Z M 171.95 197.46 L 172.32 196.60 C 172.66 195.81 172.30 194.89 171.51 194.54 C 170.72 194.20 169.80 194.56 169.45 195.36 L 169.08 196.22 C 168.74 197.01 169.10 197.93 169.89 198.27 C 170.69 198.61 171.60 198.25 171.95 197.46 Z M 172.33 196.58 L 172.70 195.69 C 173.04 194.89 172.67 193.98 171.87 193.64 C 171.08 193.31 170.16 193.68 169.83 194.47 L 169.45 195.37 C 169.11 196.16 169.49 197.08 170.28 197.41 C 171.07 197.75 171.99 197.38 172.33 196.58 Z M 172.71 195.67 L 173.13 194.64 C 173.45 193.84 173.07 192.93 172.27 192.61 C 171.47 192.28 170.56 192.67 170.24 193.46 L 169.82 194.49 C 169.49 195.29 169.88 196.20 170.67 196.53 C 171.47 196.85 172.38 196.47 172.71 195.67 Z M 173.14 194.62 L 173.49 193.71 C 173.81 192.90 173.41 192.00 172.60 191.69 C 171.80 191.37 170.90 191.77 170.58 192.58 L 170.23 193.49 C 169.92 194.29 170.31 195.20 171.12 195.51 C 171.92 195.82 172.83 195.42 173.14 194.62 Z M 173.50 193.68 L 173.82 192.83 C 174.11 192.02 173.70 191.13 172.89 190.83 C 172.08 190.53 171.18 190.94 170.89 191.75 L 170.57 192.60 C 170.28 193.41 170.69 194.31 171.50 194.61 C 172.31 194.90 173.20 194.49 173.50 193.68 Z M 173.82 192.81 L 174.13 191.93 C 174.42 191.11 173.99 190.22 173.17 189.94 C 172.36 189.66 171.47 190.09 171.18 190.90 L 170.88 191.78 C 170.59 192.59 171.02 193.48 171.84 193.77 C 172.65 194.05 173.54 193.62 173.82 192.81 Z M 174.14 191.91 L 174.45 190.97 C 174.72 190.15 174.28 189.27 173.46 189.00 C 172.64 188.72 171.76 189.17 171.49 189.99 L 171.18 190.92 C 170.90 191.74 171.35 192.62 172.17 192.90 C 172.98 193.17 173.87 192.72 174.14 191.91 Z M 174.46 190.95 L 174.76 189.99 C 175.02 189.17 174.56 188.29 173.74 188.03 C 172.92 187.77 172.04 188.23 171.78 189.05 L 171.48 190.01 C 171.22 190.83 171.68 191.71 172.50 191.97 C 173.32 192.23 174.20 191.77 174.46 190.95 Z M 174.77 189.97 L 175.06 188.99 C 175.31 188.16 174.84 187.29 174.01 187.05 C 173.18 186.80 172.31 187.27 172.07 188.09 L 171.77 189.07 C 171.53 189.90 172.00 190.77 172.82 191.02 C 173.65 191.26 174.52 190.79 174.77 189.97 Z M 175.06 188.97 L 175.33 188.02 C 175.57 187.19 175.09 186.32 174.26 186.09 C 173.43 185.85 172.57 186.33 172.33 187.16 L 172.06 188.11 C 171.83 188.94 172.31 189.81 173.14 190.04 C 173.97 190.28 174.83 189.80 175.06 188.97 Z M 175.34 188.00 L 175.60 187.03 C 175.83 186.20 175.33 185.34 174.50 185.12 C 173.67 184.89 172.81 185.39 172.59 186.22 L 172.33 187.18 C 172.10 188.01 172.59 188.87 173.43 189.10 C 174.26 189.32 175.11 188.83 175.34 188.00 Z M 175.61 187.02 L 175.86 186.04 C 176.07 185.21 175.57 184.35 174.74 184.14 C 173.90 183.92 173.05 184.43 172.83 185.26 L 172.58 186.24 C 172.37 187.07 172.87 187.92 173.70 188.14 C 174.54 188.35 175.39 187.85 175.61 187.02 Z M 175.86 186.02 L 176.10 185.05 C 176.31 184.21 175.80 183.36 174.96 183.16 C 174.12 182.95 173.28 183.46 173.07 184.30 L 172.83 185.28 C 172.62 186.12 173.14 186.96 173.97 187.17 C 174.81 187.37 175.66 186.86 175.86 186.02 Z M 176.11 185.03 L 176.34 184.05 C 176.53 183.21 176.01 182.37 175.17 182.18 C 174.33 181.98 173.49 182.50 173.30 183.34 L 173.07 184.32 C 172.87 185.16 173.39 186.00 174.23 186.19 C 175.07 186.39 175.91 185.87 176.11 185.03 Z M 176.34 184.04 L 176.56 183.06 C 176.74 182.22 176.22 181.39 175.37 181.20 C 174.53 181.01 173.70 181.54 173.51 182.38 L 173.29 183.36 C 173.10 184.20 173.63 185.03 174.47 185.22 C 175.32 185.41 176.15 184.88 176.34 184.04 Z M 176.56 183.05 L 176.77 182.07 C 176.95 181.23 176.41 180.40 175.56 180.22 C 174.72 180.04 173.89 180.58 173.71 181.42 L 173.51 182.40 C 173.33 183.24 173.87 184.07 174.71 184.25 C 175.55 184.43 176.38 183.89 176.56 183.05 Z M 176.77 182.05 L 176.95 181.14 C 177.13 180.30 176.58 179.47 175.73 179.30 C 174.89 179.13 174.06 179.68 173.89 180.52 L 173.71 181.44 C 173.54 182.28 174.09 183.11 174.93 183.28 C 175.78 183.45 176.60 182.90 176.77 182.05 Z M 176.96 181.12 L 177.13 180.21 C 177.29 179.36 176.73 178.55 175.88 178.39 C 175.04 178.23 174.22 178.79 174.06 179.63 L 173.89 180.54 C 173.73 181.39 174.29 182.21 175.14 182.37 C 175.98 182.53 176.80 181.97 176.96 181.12 Z M 177.13 180.18 L 177.30 179.21 C 177.45 178.36 176.87 177.55 176.02 177.41 C 175.17 177.26 174.37 177.83 174.22 178.68 L 174.06 179.66 C 173.91 180.51 174.48 181.32 175.33 181.46 C 176.18 181.60 176.99 181.03 177.13 180.18 Z M 177.31 179.18 L 177.47 178.10 C 177.60 177.25 177.01 176.45 176.16 176.32 C 175.31 176.20 174.51 176.78 174.38 177.63 L 174.22 178.71 C 174.09 179.57 174.68 180.36 175.53 180.49 C 176.38 180.62 177.18 180.03 177.31 179.18 Z M 177.47 178.08 L 177.60 177.09 C 177.72 176.24 177.12 175.45 176.27 175.34 C 175.41 175.22 174.63 175.82 174.51 176.68 L 174.38 177.66 C 174.26 178.51 174.86 179.30 175.72 179.42 C 176.57 179.53 177.36 178.93 177.47 178.08 Z M 177.61 177.07 L 177.72 176.13 C 177.83 175.28 177.22 174.50 176.36 174.39 C 175.51 174.29 174.73 174.90 174.62 175.75 L 174.51 176.69 C 174.40 177.55 175.01 178.33 175.87 178.43 C 176.72 178.54 177.50 177.93 177.61 177.07 Z M 177.72 176.12 L 177.84 175.12 C 177.93 174.26 177.32 173.49 176.46 173.40 C 175.60 173.30 174.83 173.92 174.73 174.77 L 174.62 175.77 C 174.53 176.62 175.14 177.40 176.00 177.49 C 176.86 177.59 177.63 176.97 177.72 176.12 Z M 177.84 175.11 L 177.94 174.08 C 178.03 173.22 177.41 172.46 176.55 172.37 C 175.69 172.28 174.93 172.90 174.84 173.76 L 174.73 174.79 C 174.64 175.64 175.27 176.41 176.12 176.50 C 176.98 176.59 177.75 175.96 177.84 175.11 Z M 177.95 174.07 L 178.04 173.02 C 178.12 172.17 177.49 171.40 176.63 171.32 C 175.78 171.24 175.01 171.87 174.93 172.73 L 174.84 173.77 C 174.76 174.63 175.39 175.39 176.25 175.47 C 177.10 175.55 177.86 174.92 177.95 174.07 Z M 178.04 173.01 L 178.13 171.97 C 178.20 171.11 177.56 170.36 176.70 170.29 C 175.85 170.22 175.09 170.85 175.02 171.71 L 174.93 172.75 C 174.86 173.61 175.50 174.36 176.36 174.43 C 177.22 174.51 177.97 173.87 178.04 173.01 Z M 178.13 171.96 L 178.20 170.96 C 178.27 170.10 177.62 169.35 176.76 169.29 C 175.90 169.23 175.15 169.87 175.09 170.73 L 175.02 171.73 C 174.95 172.59 175.60 173.34 176.46 173.40 C 177.32 173.46 178.07 172.82 178.13 171.96 Z M 178.21 170.94 L 178.27 169.96 C 178.32 169.10 177.67 168.36 176.81 168.30 C 175.95 168.25 175.20 168.90 175.15 169.76 L 175.09 170.75 C 175.04 171.61 175.69 172.35 176.55 172.40 C 177.41 172.46 178.15 171.80 178.21 170.94 Z M 178.27 169.94 L 178.32 168.96 C 178.36 168.09 177.70 167.36 176.84 167.32 C 175.98 167.27 175.24 167.93 175.20 168.79 L 175.15 169.78 C 175.11 170.64 175.77 171.38 176.63 171.42 C 177.49 171.46 178.22 170.80 178.27 169.94 Z M 178.32 168.94 L 178.36 167.95 C 178.40 167.08 177.73 166.36 176.86 166.32 C 176.00 166.29 175.28 166.96 175.24 167.82 L 175.20 168.81 C 175.16 169.67 175.83 170.40 176.70 170.43 C 177.56 170.47 178.28 169.80 178.32 168.94 Z M 178.36 167.93 L 178.39 166.92 C 178.42 166.06 177.74 165.34 176.88 165.31 C 176.02 165.28 175.30 165.96 175.27 166.82 L 175.24 167.83 C 175.21 168.69 175.89 169.41 176.75 169.44 C 177.61 169.47 178.33 168.79 178.36 167.93 Z M 178.39 166.91 L 178.42 165.88 C 178.44 165.02 177.75 164.30 176.89 164.28 C 176.03 164.26 175.31 164.94 175.29 165.81 L 175.27 166.84 C 175.25 167.70 175.93 168.41 176.80 168.43 C 177.66 168.45 178.37 167.77 178.39 166.91 Z M 178.42 165.87 L 178.43 164.83 C 178.45 163.97 177.76 163.26 176.90 163.24 C 176.03 163.23 175.32 163.92 175.31 164.78 L 175.29 165.82 C 175.28 166.68 175.97 167.39 176.83 167.40 C 177.69 167.42 178.40 166.73 178.42 165.87 Z M 178.43 164.82 L 178.44 163.78 C 178.45 162.91 177.76 162.21 176.90 162.20 C 176.04 162.19 175.33 162.88 175.32 163.75 L 175.31 164.79 C 175.30 165.65 175.99 166.36 176.86 166.37 C 177.72 166.37 178.42 165.68 178.43 164.82 Z M 178.44 163.77 L 178.45 162.74 C 178.45 161.88 177.76 161.18 176.90 161.17 C 176.03 161.17 175.33 161.86 175.33 162.72 L 175.32 163.75 C 175.32 164.61 176.01 165.32 176.87 165.32 C 177.74 165.33 178.44 164.63 178.44 163.77 Z M 178.45 162.74 L 178.45 161.74 C 178.45 160.88 177.76 160.18 176.89 160.18 C 176.03 160.17 175.33 160.87 175.33 161.73 L 175.33 162.73 C 175.32 163.59 176.02 164.29 176.88 164.29 C 177.75 164.30 178.45 163.60 178.45 162.74 Z M 178.45 161.74 L 178.45 160.80 C 178.45 159.93 177.75 159.23 176.89 159.23 C 176.03 159.23 175.33 159.93 175.33 160.79 L 175.33 161.74 C 175.33 162.60 176.03 163.30 176.89 163.30 C 177.75 163.30 178.45 162.60 178.45 161.74 Z M 178.45 160.79 L 178.45 159.75 C 178.45 158.89 177.75 158.19 176.89 158.19 C 176.03 158.19 175.33 158.89 175.33 159.75 L 175.33 160.79 C 175.33 161.66 176.03 162.36 176.89 162.36 C 177.75 162.36 178.45 161.66 178.45 160.79 Z M 178.45 159.75 L 178.45 158.65 C 178.45 157.79 177.75 157.09 176.89 157.09 C 176.03 157.09 175.33 157.79 175.33 158.65 L 175.33 159.75 C 175.33 160.61 176.03 161.31 176.89 161.31 C 177.75 161.31 178.45 160.61 178.45 159.75 Z M 178.45 158.65 L 178.45 157.66 C 178.45 156.80 177.75 156.10 176.89 156.10 C 176.03 156.10 175.33 156.80 175.33 157.66 L 175.33 158.65 C 175.33 159.51 176.03 160.21 176.89 160.21 C 177.75 160.21 178.45 159.51 178.45 158.65 Z M 178.45 157.66 L 178.45 156.77 C 178.45 155.90 177.75 155.20 176.89 155.20 C 176.03 155.20 175.33 155.90 175.33 156.77 L 175.33 157.66 C 175.33 158.53 176.03 159.23 176.89 159.23 C 177.75 159.23 178.45 158.53 178.45 157.66 Z M 178.45 156.77 L 178.45 155.85 C 178.45 154.99 177.75 154.29 176.89 154.29 C 176.03 154.29 175.33 154.99 175.33 155.85 L 175.33 156.77 C 175.33 157.63 176.03 158.33 176.89 158.33 C 177.75 158.33 178.45 157.63 178.45 156.77 Z M 178.45 155.85 L 178.45 154.86 C 178.45 154.00 177.75 153.30 176.88 153.30 C 176.02 153.31 175.32 154.01 175.33 154.87 L 175.33 155.85 C 175.33 156.72 176.03 157.41 176.90 157.41 C 177.76 157.41 178.45 156.71 178.45 155.85 Z M 178.45 154.84 L 178.44 153.86 C 178.43 152.99 177.72 152.30 176.86 152.31 C 175.99 152.32 175.30 153.03 175.32 153.89 L 175.33 154.88 C 175.34 155.75 176.05 156.44 176.91 156.42 C 177.77 156.41 178.46 155.71 178.45 154.84 Z M 178.44 153.83 L 178.41 152.81 C 178.39 151.95 177.67 151.27 176.81 151.29 C 175.94 151.31 175.26 152.03 175.29 152.89 L 175.32 153.92 C 175.34 154.78 176.06 155.46 176.92 155.44 C 177.78 155.41 178.46 154.69 178.44 153.83 Z M 178.41 152.79 L 178.37 151.80 C 178.33 150.94 177.60 150.27 176.74 150.31 C 175.88 150.35 175.21 151.07 175.25 151.94 L 175.29 152.92 C 175.33 153.78 176.05 154.45 176.91 154.41 C 177.78 154.38 178.44 153.65 178.41 152.79 Z M 178.37 151.79 L 178.32 150.78 C 178.27 149.92 177.54 149.26 176.68 149.30 C 175.82 149.34 175.15 150.08 175.20 150.94 L 175.25 151.95 C 175.29 152.81 176.02 153.47 176.88 153.43 C 177.75 153.39 178.41 152.65 178.37 151.79 Z M 178.32 150.78 L 178.27 149.77 C 178.23 148.91 177.49 148.25 176.63 148.29 C 175.77 148.33 175.11 149.06 175.15 149.92 L 175.20 150.93 C 175.24 151.80 175.97 152.46 176.83 152.42 C 177.69 152.38 178.36 151.65 178.32 150.78 Z M 178.27 149.79 L 178.23 148.80 C 178.20 147.94 177.47 147.27 176.61 147.30 C 175.75 147.34 175.08 148.06 175.11 148.92 L 175.15 149.91 C 175.18 150.77 175.91 151.44 176.77 151.41 C 177.63 151.38 178.30 150.65 178.27 149.79 Z M 178.23 148.83 L 178.21 147.87 C 178.19 147.01 177.48 146.33 176.62 146.35 C 175.75 146.37 175.07 147.08 175.09 147.94 L 175.11 148.90 C 175.13 149.76 175.84 150.44 176.70 150.42 C 177.57 150.41 178.25 149.69 178.23 148.83 Z M 178.21 147.90 L 178.21 146.93 C 178.20 146.07 177.50 145.37 176.64 145.38 C 175.77 145.38 175.08 146.08 175.08 146.95 L 175.09 147.92 C 175.09 148.78 175.79 149.47 176.66 149.47 C 177.52 149.47 178.21 148.76 178.21 147.90 Z M 178.21 146.95 L 178.21 145.92 C 178.22 145.06 177.53 144.35 176.67 144.34 C 175.80 144.34 175.10 145.03 175.09 145.89 L 175.08 146.93 C 175.08 147.79 175.77 148.49 176.63 148.50 C 177.49 148.51 178.20 147.81 178.21 146.95 Z M 178.21 145.93 L 178.24 144.70 C 178.25 143.84 177.56 143.13 176.70 143.11 C 175.84 143.09 175.13 143.78 175.11 144.64 L 175.09 145.88 C 175.08 146.74 175.76 147.45 176.63 147.47 C 177.49 147.48 178.20 146.79 178.21 145.93 Z M 178.24 144.71 L 178.27 143.42 C 178.29 142.56 177.61 141.84 176.75 141.82 C 175.88 141.80 175.17 142.48 175.15 143.34 L 175.11 144.63 C 175.09 145.49 175.77 146.21 176.64 146.23 C 177.50 146.25 178.21 145.57 178.24 144.71 Z M 178.27 143.43 L 178.30 142.49 C 178.33 141.63 177.65 140.91 176.79 140.88 C 175.93 140.85 175.21 141.52 175.18 142.38 L 175.15 143.33 C 175.12 144.19 175.79 144.91 176.65 144.94 C 177.51 144.97 178.24 144.30 178.27 143.43 Z M 178.29 142.59 L 178.32 142.33 C 178.40 141.47 177.77 140.71 176.92 140.62 C 176.06 140.54 175.29 141.17 175.21 142.03 L 175.19 142.28 C 175.10 143.14 175.73 143.91 176.59 143.99 C 177.44 144.07 178.21 143.45 178.29 142.59 Z M 175.20 142.21 L 175.22 142.86 C 175.23 143.72 175.95 144.41 176.81 144.39 C 177.67 144.37 178.36 143.66 178.34 142.80 L 178.33 142.15 C 178.31 141.28 177.59 140.60 176.73 140.62 C 175.87 140.64 175.19 141.35 175.20 142.21 Z M 175.22 142.83 L 175.22 144.09 C 175.22 144.95 175.92 145.64 176.79 145.64 C 177.65 145.64 178.35 144.94 178.34 144.08 L 178.34 142.82 C 178.34 141.96 177.64 141.26 176.77 141.27 C 175.91 141.27 175.21 141.97 175.22 142.83 Z M 175.22 144.08 L 175.22 145.38 C 175.22 146.24 175.92 146.94 176.78 146.94 C 177.64 146.94 178.34 146.24 178.34 145.38 L 178.34 144.08 C 178.34 143.22 177.64 142.52 176.78 142.52 C 175.92 142.52 175.22 143.22 175.22 144.08 Z M 175.22 145.38 L 175.22 146.42 C 175.22 147.28 175.92 147.98 176.78 147.98 C 177.64 147.98 178.34 147.28 178.34 146.42 L 178.34 145.38 C 178.34 144.52 177.64 143.82 176.78 143.82 C 175.92 143.82 175.22 144.52 175.22 145.38 Z M 175.22 146.42 L 175.22 147.43 C 175.22 148.29 175.92 148.99 176.78 148.99 C 177.64 148.99 178.34 148.29 178.34 147.43 L 178.34 146.42 C 178.34 145.56 177.64 144.86 176.78 144.86 C 175.92 144.86 175.22 145.56 175.22 146.42 Z M 175.22 147.43 L 175.22 148.39 C 175.22 149.25 175.92 149.95 176.78 149.95 C 177.64 149.95 178.34 149.25 178.34 148.39 L 178.34 147.43 C 178.34 146.56 177.64 145.86 176.78 145.86 C 175.92 145.86 175.22 146.56 175.22 147.43 Z M 175.22 148.39 L 175.22 149.37 C 175.22 150.24 175.92 150.94 176.78 150.94 C 177.64 150.94 178.34 150.24 178.34 149.37 L 178.34 148.39 C 178.34 147.53 177.64 146.83 176.78 146.83 C 175.92 146.83 175.22 147.53 175.22 148.39 Z M 175.22 149.37 L 175.22 150.39 C 175.22 151.25 175.92 151.95 176.78 151.95 C 177.64 151.95 178.34 151.25 178.34 150.39 L 178.34 149.38 C 178.34 148.51 177.65 147.81 176.78 147.81 C 175.92 147.81 175.22 148.51 175.22 149.37 Z M 175.22 150.38 L 175.21 151.36 C 175.21 152.23 175.90 152.93 176.76 152.94 C 177.62 152.94 178.33 152.25 178.33 151.39 L 178.34 150.40 C 178.35 149.54 177.65 148.83 176.79 148.83 C 175.93 148.82 175.23 149.52 175.22 150.38 Z M 175.21 151.35 L 175.20 152.33 C 175.18 153.19 175.87 153.90 176.73 153.91 C 177.59 153.93 178.30 153.24 178.32 152.38 L 178.33 151.40 C 178.35 150.54 177.66 149.83 176.80 149.81 C 175.94 149.80 175.23 150.49 175.21 151.35 Z M 175.20 152.31 L 175.18 153.09 C 175.15 153.96 175.83 154.67 176.69 154.70 C 177.56 154.72 178.27 154.04 178.30 153.18 L 178.32 152.40 C 178.34 151.53 177.66 150.82 176.80 150.79 C 175.94 150.77 175.22 151.45 175.20 152.31 Z M 175.18 153.08 L 175.14 153.93 C 175.11 154.79 175.78 155.52 176.64 155.55 C 177.51 155.59 178.23 154.91 178.26 154.05 L 178.30 153.20 C 178.33 152.34 177.66 151.61 176.80 151.58 C 175.94 151.54 175.21 152.22 175.18 153.08 Z M 175.14 153.92 L 175.10 154.91 C 175.05 155.77 175.72 156.51 176.58 156.55 C 177.44 156.59 178.17 155.93 178.21 155.07 L 178.26 154.07 C 178.31 153.21 177.64 152.48 176.78 152.43 C 175.92 152.39 175.19 153.05 175.14 153.92 Z M 175.10 154.90 L 175.03 156.11 C 174.98 156.97 175.63 157.70 176.50 157.75 C 177.36 157.80 178.09 157.15 178.14 156.29 L 178.21 155.08 C 178.26 154.22 177.61 153.48 176.74 153.43 C 175.88 153.38 175.15 154.04 175.10 154.90 Z M 175.03 156.10 L 174.96 157.16 C 174.91 158.02 175.56 158.76 176.42 158.81 C 177.28 158.87 178.02 158.21 178.08 157.35 L 178.14 156.29 C 178.20 155.43 177.54 154.69 176.68 154.64 C 175.82 154.58 175.08 155.24 175.03 156.10 Z M 174.96 157.15 L 174.90 158.07 C 174.84 158.93 175.50 159.67 176.36 159.73 C 177.22 159.78 177.96 159.13 178.02 158.27 L 178.08 157.36 C 178.13 156.50 177.48 155.75 176.62 155.70 C 175.76 155.64 175.02 156.29 174.96 157.15 Z M 174.90 158.06 L 174.83 159.04 C 174.78 159.90 175.43 160.64 176.29 160.70 C 177.15 160.76 177.89 160.11 177.95 159.25 L 178.02 158.27 C 178.07 157.41 177.42 156.67 176.56 156.61 C 175.70 156.55 174.96 157.20 174.90 158.06 Z M 174.83 159.04 L 174.76 160.06 C 174.70 160.92 175.35 161.67 176.21 161.73 C 177.07 161.79 177.82 161.14 177.88 160.28 L 177.95 159.25 C 178.01 158.39 177.36 157.65 176.50 157.59 C 175.64 157.53 174.89 158.18 174.83 159.04 Z M 174.76 160.06 L 174.69 161.11 C 174.63 161.97 175.27 162.71 176.13 162.78 C 176.99 162.84 177.74 162.19 177.80 161.33 L 177.88 160.28 C 177.94 159.42 177.29 158.67 176.43 158.61 C 175.57 158.55 174.82 159.20 174.76 160.06 Z M 174.69 161.10 L 174.61 162.16 C 174.55 163.02 175.19 163.77 176.05 163.83 C 176.91 163.90 177.66 163.25 177.72 162.39 L 177.80 161.33 C 177.87 160.47 177.22 159.73 176.36 159.66 C 175.50 159.60 174.75 160.25 174.69 161.10 Z M 174.61 162.16 L 174.53 163.20 C 174.47 164.06 175.11 164.81 175.97 164.88 C 176.83 164.94 177.58 164.30 177.65 163.44 L 177.72 162.39 C 177.79 161.53 177.14 160.78 176.28 160.72 C 175.42 160.65 174.68 161.30 174.61 162.16 Z M 174.53 163.20 L 174.45 164.21 C 174.39 165.07 175.03 165.82 175.89 165.89 C 176.75 165.95 177.50 165.31 177.57 164.45 L 177.65 163.44 C 177.71 162.58 177.07 161.83 176.21 161.76 C 175.35 161.70 174.60 162.34 174.53 163.20 Z M 174.45 164.21 L 174.36 165.37 C 174.29 166.23 174.93 166.99 175.79 167.05 C 176.65 167.12 177.40 166.48 177.47 165.62 L 177.57 164.46 C 177.64 163.60 176.99 162.84 176.14 162.78 C 175.28 162.71 174.52 163.35 174.45 164.21 Z M 174.36 165.37 L 174.27 166.49 C 174.20 167.35 174.84 168.11 175.70 168.18 C 176.55 168.25 177.31 167.61 177.38 166.75 L 177.47 165.63 C 177.54 164.77 176.91 164.01 176.05 163.94 C 175.19 163.87 174.43 164.51 174.36 165.37 Z M 174.27 166.49 L 174.18 167.53 C 174.11 168.39 174.74 169.15 175.60 169.22 C 176.46 169.29 177.22 168.66 177.29 167.80 L 177.38 166.75 C 177.45 165.89 176.82 165.14 175.96 165.07 C 175.10 164.99 174.34 165.63 174.27 166.49 Z M 174.18 167.53 L 174.10 168.50 C 174.02 169.36 174.66 170.12 175.52 170.19 C 176.38 170.26 177.13 169.63 177.21 168.77 L 177.29 167.80 C 177.36 166.94 176.73 166.18 175.87 166.11 C 175.01 166.04 174.25 166.67 174.18 167.53 Z M 174.10 168.50 L 174.02 169.40 C 173.94 170.26 174.58 171.02 175.44 171.09 C 176.30 171.17 177.06 170.53 177.13 169.67 L 177.21 168.77 C 177.28 167.91 176.64 167.15 175.79 167.08 C 174.93 167.01 174.17 167.64 174.10 168.50 Z M 174.02 169.40 L 173.95 170.24 C 173.87 171.10 174.51 171.85 175.37 171.93 C 176.23 172.00 176.99 171.36 177.06 170.50 L 177.13 169.67 C 177.20 168.81 176.57 168.05 175.71 167.98 C 174.85 167.91 174.09 168.54 174.02 169.40 Z M 173.95 170.24 L 173.86 171.27 C 173.79 172.13 174.43 172.89 175.29 172.96 C 176.15 173.03 176.90 172.39 176.97 171.53 L 177.06 170.50 C 177.13 169.64 176.49 168.88 175.63 168.81 C 174.77 168.74 174.02 169.38 173.95 170.24 Z M 173.86 171.28 L 173.78 172.33 C 173.72 173.19 174.36 173.94 175.22 174.00 C 176.08 174.07 176.83 173.43 176.90 172.57 L 176.98 171.52 C 177.04 170.66 176.40 169.91 175.54 169.84 C 174.68 169.78 173.93 170.42 173.86 171.28 Z M 173.78 172.33 L 173.71 173.30 C 173.65 174.16 174.30 174.91 175.16 174.97 C 176.02 175.03 176.76 174.39 176.83 173.53 L 176.90 172.56 C 176.96 171.70 176.31 170.95 175.45 170.89 C 174.59 170.83 173.84 171.47 173.78 172.33 Z M 173.71 173.30 L 173.65 174.23 C 173.59 175.09 174.24 175.83 175.10 175.89 C 175.96 175.95 176.70 175.30 176.76 174.44 L 176.83 173.52 C 176.89 172.66 176.24 171.92 175.38 171.86 C 174.52 171.80 173.77 172.44 173.71 173.30 Z M 173.65 174.23 L 173.58 175.18 C 173.52 176.04 174.17 176.79 175.03 176.85 C 175.89 176.91 176.64 176.26 176.70 175.40 L 176.76 174.44 C 176.82 173.58 176.17 172.84 175.31 172.78 C 174.45 172.72 173.71 173.37 173.65 174.23 Z M 173.58 175.18 L 173.51 176.18 C 173.45 177.04 174.10 177.78 174.96 177.84 C 175.82 177.90 176.57 177.25 176.63 176.39 L 176.70 175.40 C 176.76 174.54 176.11 173.79 175.25 173.73 C 174.39 173.67 173.64 174.32 173.58 175.18 Z M 173.51 176.18 L 173.44 177.17 C 173.38 178.03 174.03 178.78 174.89 178.84 C 175.75 178.90 176.50 178.25 176.56 177.39 L 176.63 176.39 C 176.69 175.53 176.04 174.79 175.18 174.73 C 174.32 174.67 173.57 175.32 173.51 176.18 Z M 173.44 177.17 L 173.37 178.17 C 173.31 179.03 173.96 179.78 174.82 179.84 C 175.68 179.90 176.42 179.26 176.49 178.40 L 176.56 177.39 C 176.62 176.53 175.97 175.79 175.11 175.72 C 174.25 175.66 173.50 176.31 173.44 177.17 Z M 173.37 178.17 L 173.30 179.17 C 173.24 180.03 173.88 180.77 174.74 180.84 C 175.60 180.90 176.35 180.25 176.41 179.39 L 176.49 178.40 C 176.55 177.54 175.90 176.79 175.04 176.73 C 174.18 176.67 173.43 177.31 173.37 178.17 Z M 173.30 179.17 L 173.23 180.17 C 173.17 181.03 173.81 181.77 174.67 181.83 C 175.53 181.89 176.28 181.25 176.34 180.39 L 176.41 179.39 C 176.48 178.53 175.83 177.78 174.97 177.72 C 174.11 177.66 173.36 178.31 173.30 179.17 Z M 173.23 180.17 L 173.16 181.17 C 173.10 182.03 173.76 182.78 174.62 182.83 C 175.48 182.89 176.22 182.24 176.28 181.38 L 176.34 180.38 C 176.40 179.52 175.75 178.78 174.89 178.72 C 174.03 178.66 173.29 179.31 173.23 180.17 Z M 173.16 181.19 L 173.10 182.19 C 173.05 183.05 173.71 183.79 174.57 183.84 C 175.43 183.89 176.17 183.23 176.22 182.37 L 176.28 181.37 C 176.33 180.51 175.67 179.77 174.81 179.72 C 173.95 179.67 173.21 180.33 173.16 181.19 Z M 173.10 182.21 L 173.06 183.22 C 173.02 184.08 173.68 184.81 174.54 184.85 C 175.40 184.89 176.13 184.22 176.17 183.36 L 176.22 182.35 C 176.26 181.49 175.59 180.76 174.73 180.72 C 173.87 180.68 173.14 181.35 173.10 182.21 Z M 173.05 183.23 L 173.02 184.24 C 172.99 185.10 173.66 185.82 174.52 185.85 C 175.39 185.88 176.11 185.21 176.14 184.35 L 176.18 183.34 C 176.21 182.48 175.53 181.76 174.67 181.73 C 173.81 181.70 173.08 182.37 173.05 183.23 Z M 173.02 184.25 L 172.99 185.25 C 172.97 186.11 173.65 186.83 174.51 186.85 C 175.38 186.87 176.09 186.19 176.12 185.33 L 176.14 184.33 C 176.16 183.47 175.48 182.75 174.62 182.73 C 173.76 182.71 173.04 183.39 173.02 184.25 Z M 172.99 185.26 L 172.98 186.26 C 172.96 187.12 173.65 187.83 174.51 187.85 C 175.37 187.86 176.08 187.17 176.10 186.31 L 176.12 185.31 C 176.13 184.45 175.44 183.74 174.58 183.73 C 173.72 183.71 173.01 184.40 172.99 185.26 Z M 172.98 186.27 L 172.97 187.30 C 172.96 188.17 173.65 188.87 174.51 188.88 C 175.38 188.89 176.08 188.20 176.09 187.33 L 176.10 186.30 C 176.11 185.44 175.41 184.73 174.55 184.73 C 173.69 184.72 172.98 185.41 172.98 186.27 Z M 172.97 187.31 L 172.96 188.32 C 172.96 189.18 173.66 189.88 174.52 189.88 C 175.38 189.89 176.08 189.19 176.08 188.33 L 176.09 187.33 C 176.09 186.46 175.40 185.76 174.53 185.76 C 173.67 185.75 172.97 186.45 172.97 187.31 Z M 172.96 188.32 L 172.96 189.29 C 172.96 190.15 173.66 190.85 174.52 190.85 C 175.38 190.86 176.08 190.16 176.08 189.29 L 176.08 188.32 C 176.09 187.46 175.39 186.76 174.53 186.76 C 173.66 186.76 172.96 187.46 172.96 188.32 Z M 172.96 189.29 L 172.96 190.28 C 172.96 191.14 173.66 191.84 174.52 191.84 C 175.38 191.84 176.08 191.14 176.08 190.28 L 176.08 189.29 C 176.08 188.43 175.39 187.73 174.52 187.73 C 173.66 187.73 172.96 188.43 172.96 189.29 Z M 172.96 190.28 L 172.96 191.26 C 172.96 192.12 173.66 192.82 174.52 192.82 C 175.38 192.82 176.08 192.12 176.08 191.26 L 176.08 190.28 C 176.08 189.41 175.38 188.71 174.52 188.71 C 173.66 188.71 172.96 189.41 172.96 190.28 Z M 172.96 191.26 L 172.96 192.26 C 172.96 193.12 173.66 193.82 174.52 193.82 C 175.38 193.82 176.08 193.12 176.08 192.26 L 176.08 191.26 C 176.08 190.40 175.38 189.70 174.52 189.70 C 173.66 189.70 172.96 190.40 172.96 191.26 Z M 172.96 192.26 L 172.96 193.26 C 172.96 194.12 173.66 194.82 174.52 194.82 C 175.38 194.82 176.08 194.12 176.08 193.26 L 176.08 192.26 C 176.08 191.39 175.38 190.69 174.52 190.69 C 173.66 190.69 172.96 191.39 172.96 192.26 Z M 172.96 193.26 L 172.96 194.26 C 172.96 195.12 173.66 195.82 174.52 195.82 C 175.38 195.82 176.08 195.12 176.08 194.26 L 176.08 193.26 C 176.08 192.40 175.38 191.70 174.52 191.70 C 173.66 191.70 172.96 192.40 172.96 193.26 Z M 172.96 194.26 L 172.96 195.28 C 172.96 196.14 173.66 196.84 174.52 196.84 C 175.38 196.84 176.08 196.14 176.08 195.28 L 176.08 194.26 C 176.08 193.40 175.38 192.70 174.52 192.70 C 173.66 192.70 172.96 193.40 172.96 194.26 Z M 172.96 195.28 L 172.96 196.28 C 172.96 197.14 173.66 197.84 174.52 197.84 C 175.38 197.84 176.08 197.14 176.08 196.28 L 176.08 195.28 C 176.08 194.41 175.38 193.72 174.52 193.72 C 173.66 193.72 172.96 194.41 172.96 195.28 Z M 172.96 196.28 L 172.96 197.32 C 172.96 198.18 173.66 198.88 174.52 198.88 C 175.39 198.88 176.08 198.18 176.08 197.32 L 176.08 196.28 C 176.08 195.42 175.38 194.72 174.52 194.72 C 173.66 194.72 172.96 195.42 172.96 196.28 Z M 172.96 197.32 L 172.96 198.33 C 172.97 199.19 173.67 199.89 174.53 199.88 C 175.39 199.88 176.09 199.18 176.09 198.32 L 176.08 197.31 C 176.08 196.45 175.38 195.75 174.52 195.76 C 173.66 195.76 172.96 196.46 172.96 197.32 Z M 172.96 198.34 L 172.97 199.31 C 172.98 200.17 173.69 200.86 174.55 200.86 C 175.41 200.85 176.10 200.14 176.10 199.28 L 176.09 198.31 C 176.08 197.45 175.37 196.75 174.51 196.76 C 173.65 196.77 172.96 197.47 172.96 198.34 Z M 172.97 199.32 L 172.99 200.25 C 173.01 201.11 173.72 201.80 174.58 201.78 C 175.44 201.76 176.13 201.05 176.11 200.19 L 176.10 199.26 C 176.08 198.40 175.37 197.72 174.50 197.73 C 173.64 197.75 172.96 198.46 172.97 199.32 Z M 172.99 200.29 L 173.04 201.21 C 173.07 202.07 173.80 202.74 174.67 202.70 C 175.53 202.66 176.19 201.93 176.15 201.07 L 176.11 200.15 C 176.07 199.29 175.34 198.62 174.48 198.66 C 173.62 198.70 172.95 199.43 172.99 200.29 Z M 173.04 201.29 L 173.13 202.29 C 173.21 203.15 173.98 203.78 174.83 203.70 C 175.69 203.62 176.32 202.86 176.24 202.00 L 176.15 201.00 C 176.07 200.14 175.31 199.51 174.45 199.59 C 173.59 199.67 172.96 200.43 173.04 201.29 Z M 173.14 202.38 L 173.31 203.47 C 173.44 204.33 174.23 204.91 175.09 204.78 C 175.94 204.66 176.53 203.86 176.40 203.01 L 176.23 201.91 C 176.10 201.06 175.31 200.47 174.46 200.60 C 173.60 200.73 173.02 201.52 173.14 202.38 Z M 173.32 203.54 L 173.49 204.42 C 173.66 205.26 174.48 205.81 175.33 205.65 C 176.17 205.48 176.72 204.66 176.56 203.82 L 176.39 202.94 C 176.22 202.09 175.40 201.54 174.55 201.71 C 173.71 201.88 173.16 202.70 173.32 203.54 Z M 173.50 204.46 L 173.72 205.40 C 173.91 206.25 174.74 206.77 175.58 206.58 C 176.43 206.39 176.95 205.56 176.76 204.72 L 176.55 203.77 C 176.36 202.93 175.52 202.40 174.68 202.59 C 173.84 202.78 173.31 203.62 173.50 204.46 Z M 173.73 205.44 L 173.97 206.43 C 174.18 207.27 175.03 207.78 175.87 207.57 C 176.70 207.36 177.21 206.51 177.00 205.68 L 176.75 204.68 C 176.55 203.85 175.70 203.34 174.86 203.55 C 174.03 203.75 173.52 204.60 173.73 205.44 Z M 173.98 206.46 L 174.26 207.48 C 174.48 208.31 175.34 208.81 176.17 208.58 C 177.00 208.36 177.49 207.50 177.27 206.67 L 177.00 205.65 C 176.77 204.82 175.91 204.32 175.08 204.55 C 174.25 204.77 173.76 205.63 173.98 206.46 Z M 174.26 207.51 L 174.56 208.54 C 174.79 209.37 175.66 209.85 176.49 209.61 C 177.32 209.37 177.80 208.51 177.56 207.68 L 177.26 206.65 C 177.03 205.82 176.16 205.34 175.33 205.58 C 174.50 205.81 174.02 206.68 174.26 207.51 Z M 174.56 208.56 L 174.85 209.52 C 175.10 210.35 175.97 210.82 176.80 210.57 C 177.62 210.32 178.09 209.45 177.84 208.62 L 177.55 207.66 C 177.30 206.83 176.43 206.37 175.61 206.61 C 174.78 206.86 174.31 207.73 174.56 208.56 Z M 174.86 209.54 L 175.16 210.50 C 175.42 211.32 176.30 211.78 177.12 211.52 C 177.94 211.26 178.40 210.38 178.14 209.56 L 177.84 208.60 C 177.58 207.78 176.70 207.32 175.88 207.58 C 175.05 207.84 174.60 208.72 174.86 209.54 Z M 175.17 210.53 L 175.49 211.48 C 175.76 212.29 176.65 212.73 177.47 212.46 C 178.28 212.19 178.72 211.30 178.45 210.48 L 178.13 209.53 C 177.86 208.72 176.97 208.28 176.15 208.55 C 175.34 208.82 174.90 209.71 175.17 210.53 Z M 175.50 211.50 L 175.83 212.44 C 176.12 213.26 177.02 213.68 177.83 213.39 C 178.64 213.10 179.06 212.21 178.77 211.40 L 178.44 210.46 C 178.15 209.64 177.26 209.22 176.45 209.51 C 175.63 209.80 175.21 210.69 175.50 211.50 Z M 175.84 212.47 L 176.20 213.40 C 176.50 214.21 177.40 214.61 178.21 214.31 C 179.01 214.00 179.42 213.10 179.12 212.30 L 178.76 211.37 C 178.46 210.56 177.56 210.15 176.75 210.46 C 175.94 210.77 175.54 211.67 175.84 212.47 Z M 176.21 213.43 L 176.59 214.37 C 176.91 215.17 177.82 215.55 178.62 215.23 C 179.42 214.91 179.80 214.00 179.48 213.20 L 179.10 212.26 C 178.78 211.46 177.87 211.08 177.07 211.40 C 176.27 211.72 175.89 212.63 176.21 213.43 Z M 176.60 214.40 L 177.00 215.33 C 177.34 216.13 178.26 216.49 179.05 216.15 C 179.84 215.81 180.21 214.89 179.87 214.10 L 179.47 213.17 C 179.13 212.38 178.21 212.01 177.42 212.35 C 176.63 212.69 176.26 213.61 176.60 214.40 Z M 177.01 215.36 L 177.43 216.28 C 177.79 217.06 178.71 217.41 179.50 217.05 C 180.28 216.70 180.63 215.77 180.27 214.99 L 179.86 214.07 C 179.50 213.29 178.57 212.94 177.79 213.30 C 177.00 213.65 176.66 214.58 177.01 215.36 Z M 177.44 216.30 L 177.87 217.20 C 178.24 217.98 179.17 218.31 179.95 217.94 C 180.73 217.57 181.06 216.64 180.69 215.86 L 180.26 214.96 C 179.89 214.18 178.96 213.85 178.18 214.22 C 177.40 214.59 177.07 215.52 177.44 216.30 Z M 177.88 217.23 L 178.32 218.11 C 178.70 218.88 179.64 219.20 180.41 218.81 C 181.18 218.43 181.50 217.49 181.11 216.72 L 180.68 215.84 C 180.30 215.07 179.36 214.75 178.59 215.13 C 177.81 215.52 177.50 216.45 177.88 217.23 Z M 178.33 218.13 L 178.78 219.02 C 179.18 219.79 180.12 220.09 180.89 219.70 C 181.65 219.30 181.96 218.36 181.56 217.60 L 181.10 216.70 C 180.71 215.93 179.77 215.63 179.00 216.03 C 178.24 216.42 177.93 217.36 178.33 218.13 Z M 178.79 219.04 L 179.28 219.95 C 179.68 220.72 180.63 221.01 181.39 220.60 C 182.15 220.20 182.44 219.25 182.04 218.49 L 181.55 217.58 C 181.15 216.82 180.20 216.53 179.44 216.93 C 178.68 217.33 178.39 218.28 178.79 219.04 Z M 179.29 219.97 L 179.78 220.86 C 180.19 221.62 181.14 221.89 181.90 221.48 C 182.65 221.06 182.93 220.11 182.51 219.36 L 182.03 218.47 C 181.61 217.71 180.66 217.44 179.91 217.85 C 179.15 218.27 178.88 219.22 179.29 219.97 Z M 179.79 220.89 L 180.28 221.74 C 180.71 222.49 181.66 222.75 182.41 222.32 C 183.16 221.90 183.42 220.94 182.99 220.19 L 182.50 219.34 C 182.07 218.59 181.12 218.33 180.37 218.76 C 179.62 219.18 179.36 220.14 179.79 220.89 Z M 180.30 221.77 L 180.79 222.60 C 181.23 223.34 182.19 223.58 182.93 223.14 C 183.67 222.70 183.91 221.74 183.47 221.00 L 182.98 220.17 C 182.54 219.43 181.58 219.19 180.84 219.63 C 180.10 220.07 179.86 221.03 180.30 221.77 Z M 180.81 222.63 L 181.35 223.49 C 181.81 224.22 182.77 224.45 183.50 223.99 C 184.23 223.53 184.45 222.57 184.00 221.84 L 183.46 220.97 C 183.00 220.24 182.04 220.02 181.30 220.47 C 180.57 220.93 180.35 221.89 180.81 222.63 Z M 181.37 223.52 L 181.94 224.39 C 182.42 225.11 183.38 225.31 184.10 224.84 C 184.82 224.37 185.02 223.40 184.55 222.68 L 183.98 221.81 C 183.51 221.09 182.54 220.89 181.82 221.36 C 181.10 221.83 180.90 222.80 181.37 223.52 Z M 181.96 224.42 L 182.53 225.24 C 183.02 225.95 183.99 226.13 184.70 225.65 C 185.41 225.16 185.59 224.19 185.10 223.48 L 184.53 222.65 C 184.04 221.94 183.07 221.76 182.36 222.25 C 181.65 222.74 181.47 223.71 181.96 224.42 Z M 182.54 225.27 L 183.10 226.05 C 183.60 226.75 184.58 226.91 185.28 226.41 C 185.98 225.91 186.14 224.93 185.64 224.23 L 185.08 223.45 C 184.58 222.75 183.61 222.59 182.90 223.09 C 182.20 223.59 182.04 224.57 182.54 225.27 Z M 183.12 226.07 L 183.70 226.85 C 184.21 227.54 185.19 227.69 185.88 227.17 C 186.57 226.66 186.72 225.68 186.20 224.99 L 185.62 224.21 C 185.11 223.52 184.13 223.37 183.44 223.88 C 182.75 224.40 182.60 225.38 183.12 226.07 Z M 183.71 226.87 L 184.33 227.67 C 184.86 228.35 185.84 228.47 186.52 227.94 C 187.20 227.42 187.32 226.44 186.80 225.75 L 186.18 224.96 C 185.65 224.28 184.67 224.16 183.99 224.68 C 183.31 225.21 183.19 226.19 183.71 226.87 Z M 184.36 227.70 L 184.98 228.46 C 185.53 229.13 186.51 229.22 187.18 228.68 C 187.84 228.13 187.94 227.14 187.39 226.48 L 186.77 225.72 C 186.22 225.05 185.24 224.96 184.57 225.50 C 183.91 226.05 183.81 227.04 184.36 227.70 Z M 185.02 228.50 L 185.68 229.25 C 186.25 229.90 187.23 229.96 187.88 229.39 C 188.53 228.82 188.59 227.83 188.02 227.18 L 187.36 226.44 C 186.79 225.79 185.80 225.73 185.15 226.30 C 184.51 226.87 184.45 227.86 185.02 228.50 Z M 185.71 229.29 L 186.40 230.02 C 186.99 230.64 187.98 230.67 188.61 230.07 C 189.23 229.48 189.26 228.49 188.66 227.87 L 187.98 227.14 C 187.38 226.52 186.40 226.49 185.77 227.08 C 185.15 227.68 185.12 228.67 185.71 229.29 Z M 186.44 230.06 L 187.17 230.77 C 187.79 231.37 188.77 231.35 189.38 230.74 C 189.98 230.12 189.96 229.13 189.35 228.53 L 188.62 227.82 C 188.00 227.22 187.02 227.23 186.41 227.85 C 185.81 228.47 185.83 229.46 186.44 230.06 Z M 187.22 230.81 L 187.98 231.48 C 188.62 232.06 189.61 232.00 190.18 231.35 C 190.75 230.71 190.69 229.72 190.05 229.15 L 189.30 228.48 C 188.65 227.91 187.66 227.96 187.09 228.61 C 186.52 229.25 186.58 230.24 187.22 230.81 Z M 188.04 231.54 L 188.81 232.15 C 189.49 232.69 190.47 232.58 191.01 231.90 C 191.54 231.23 191.43 230.24 190.76 229.71 L 189.98 229.09 C 189.31 228.56 188.33 228.67 187.79 229.35 C 187.25 230.02 187.37 231.00 188.04 231.54 Z M 188.91 232.22 L 189.76 232.80 C 190.48 233.29 191.45 233.10 191.93 232.39 C 192.42 231.68 192.23 230.71 191.52 230.22 L 190.66 229.64 C 189.95 229.15 188.98 229.34 188.49 230.05 C 188.01 230.77 188.19 231.74 188.91 232.22 Z M 189.89 232.88 L 190.76 233.36 C 191.51 233.78 192.46 233.50 192.88 232.75 C 193.30 232.00 193.02 231.05 192.27 230.63 L 191.40 230.15 C 190.64 229.73 189.69 230.00 189.28 230.76 C 188.86 231.51 189.13 232.46 189.89 232.88 Z M 190.90 233.43 L 191.80 233.81 C 192.60 234.15 193.51 233.78 193.85 232.98 C 194.18 232.19 193.81 231.27 193.02 230.94 L 192.12 230.56 C 191.33 230.22 190.41 230.59 190.08 231.39 C 189.74 232.18 190.11 233.10 190.90 233.43 Z M 191.96 233.87 L 192.90 234.15 C 193.73 234.40 194.60 233.93 194.84 233.10 C 195.09 232.28 194.62 231.41 193.79 231.16 L 192.86 230.88 C 192.03 230.63 191.16 231.10 190.91 231.93 C 190.67 232.75 191.14 233.62 191.96 233.87 Z M 193.04 234.18 L 194.01 234.38 C 194.85 234.55 195.68 234.01 195.85 233.16 C 196.02 232.32 195.48 231.49 194.63 231.32 L 193.66 231.12 C 192.81 230.95 191.99 231.50 191.82 232.34 C 191.65 233.19 192.19 234.01 193.04 234.18 Z M 194.09 234.40 L 195.09 234.54 C 195.94 234.67 196.74 234.08 196.86 233.22 C 196.99 232.37 196.39 231.58 195.54 231.45 L 194.55 231.31 C 193.69 231.18 192.90 231.77 192.78 232.63 C 192.65 233.48 193.24 234.27 194.09 234.40 Z M 195.13 234.55 L 195.91 234.64 C 196.76 234.75 197.54 234.14 197.64 233.28 C 197.75 232.43 197.14 231.65 196.28 231.54 L 195.51 231.45 C 194.65 231.34 193.87 231.95 193.77 232.81 C 193.66 233.66 194.27 234.44 195.13 234.55 Z"
      fill="black"
      fill-rule="nonzero" /></svg>