<svg xmlns="http://www.w3.org/2000/svg" width="300" height="300" viewBox="0 0 300 300">
<path d="M 187.81 78.03 L 187.37 78.91 C 186.99 79.68 187.31 80.62 188.08 81.00 C 188.85 81.39 189.79 81.07 190.17 80.30 L 190.61 79.42 C 190.99 78.65 190.67 77.71 189.90 77.33 C 189.13 76.95 188.19 77.26 187.81 78.03 Z M 187.36 78.94 L 186.94 79.83 C 186.57 80.60 186.90 81.54 187.68 81.90 C 188.46 82.27 189.39 81.94 189.76 81.16 L 190.18 80.27 C 190.55 79.49 190.22 78.56 189.44 78.19 C 188.66 77.83 187.73 78.16 187.36 78.94 Z M 186.92 79.88 L 186.52 80.79 C 186.18 81.58 186.55 82.50 187.34 82.84 C 188.13 83.18 189.05 82.82 189.39 82.02 L 189.79 81.11 C 190.13 80.32 189.76 79.40 188.97 79.06 C 188.18 78.72 187.26 79.09 186.92 79.88 Z M 186.49 80.87 L 186.14 81.82 C 185.85 82.62 186.26 83.52 187.07 83.82 C 187.88 84.12 188.77 83.70 189.07 82.90 L 189.42 81.95 C 189.72 81.14 189.31 80.24 188.50 79.94 C 187.69 79.64 186.79 80.06 186.49 80.87 Z M 186.11 81.92 L 185.82 82.90 C 185.58 83.73 186.05 84.60 186.88 84.84 C 187.70 85.09 188.57 84.61 188.82 83.79 L 189.11 82.80 C 189.35 81.97 188.88 81.10 188.05 80.86 C 187.22 80.61 186.35 81.09 186.11 81.92 Z M 185.79 83.01 L 185.57 84.01 C 185.39 84.85 185.92 85.68 186.76 85.87 C 187.60 86.05 188.44 85.52 188.62 84.68 L 188.84 83.68 C 189.03 82.84 188.50 82.01 187.65 81.82 C 186.81 81.63 185.98 82.17 185.79 83.01 Z M 185.56 84.08 L 185.39 85.10 C 185.25 85.95 185.82 86.76 186.67 86.90 C 187.52 87.04 188.33 86.47 188.47 85.62 L 188.64 84.60 C 188.78 83.75 188.20 82.94 187.35 82.80 C 186.50 82.66 185.70 83.23 185.56 84.08 Z M 185.38 85.16 L 185.25 86.17 C 185.14 87.03 185.74 87.81 186.60 87.92 C 187.45 88.03 188.23 87.43 188.35 86.57 L 188.48 85.56 C 188.59 84.70 187.98 83.92 187.13 83.81 C 186.27 83.70 185.49 84.31 185.38 85.16 Z M 185.24 86.21 L 185.14 87.19 C 185.05 88.05 185.68 88.82 186.53 88.91 C 187.39 88.99 188.16 88.37 188.25 87.51 L 188.35 86.53 C 188.44 85.68 187.82 84.91 186.96 84.82 C 186.10 84.73 185.33 85.35 185.24 86.21 Z M 185.14 87.21 L 185.05 88.16 C 184.98 89.02 185.61 89.78 186.47 89.86 C 187.33 89.94 188.08 89.30 188.16 88.45 L 188.25 87.49 C 188.33 86.64 187.70 85.88 186.84 85.80 C 185.98 85.72 185.22 86.35 185.14 87.21 Z M 185.05 88.17 L 184.96 89.25 C 184.88 90.11 185.52 90.87 186.38 90.94 C 187.24 91.02 187.99 90.38 188.07 89.53 L 188.16 88.44 C 188.24 87.58 187.60 86.82 186.74 86.75 C 185.89 86.67 185.13 87.31 185.05 88.17 Z M 184.96 89.26 L 184.87 90.25 C 184.80 91.11 185.44 91.86 186.30 91.94 C 187.16 92.01 187.91 91.37 187.98 90.51 L 188.07 89.52 C 188.14 88.66 187.50 87.91 186.65 87.83 C 185.79 87.76 185.03 88.40 184.96 89.26 Z M 184.87 90.26 L 184.80 91.20 C 184.73 92.06 185.37 92.81 186.23 92.88 C 187.09 92.95 187.84 92.31 187.91 91.45 L 187.99 90.51 C 188.05 89.65 187.41 88.89 186.55 88.83 C 185.70 88.76 184.94 89.40 184.87 90.26 Z M 184.80 91.20 L 184.72 92.14 C 184.66 93.00 185.30 93.75 186.16 93.81 C 187.02 93.88 187.77 93.24 187.84 92.38 L 187.91 91.44 C 187.97 90.58 187.33 89.83 186.47 89.77 C 185.61 89.70 184.86 90.34 184.80 91.20 Z M 184.72 92.15 L 184.66 93.10 C 184.59 93.96 185.24 94.71 186.10 94.77 C 186.96 94.83 187.71 94.19 187.77 93.33 L 187.84 92.37 C 187.90 91.51 187.25 90.76 186.39 90.70 C 185.53 90.64 184.79 91.29 184.72 92.15 Z M 184.66 93.11 L 184.59 94.10 C 184.53 94.96 185.18 95.70 186.04 95.76 C 186.90 95.82 187.65 95.17 187.70 94.31 L 187.77 93.32 C 187.83 92.46 187.18 91.71 186.32 91.66 C 185.46 91.60 184.71 92.25 184.66 93.11 Z M 184.59 94.10 L 184.52 95.13 C 184.47 95.99 185.12 96.73 185.98 96.78 C 186.84 96.84 187.58 96.19 187.64 95.33 L 187.70 94.30 C 187.76 93.44 187.11 92.70 186.25 92.64 C 185.39 92.59 184.64 93.24 184.59 94.10 Z M 184.52 95.13 L 184.46 96.16 C 184.41 97.02 185.06 97.76 185.92 97.82 C 186.78 97.87 187.52 97.21 187.57 96.35 L 187.64 95.32 C 187.69 94.46 187.04 93.72 186.18 93.67 C 185.32 93.61 184.57 94.27 184.52 95.13 Z M 184.46 96.17 L 184.40 97.17 C 184.35 98.03 185.00 98.77 185.87 98.82 C 186.73 98.87 187.46 98.21 187.52 97.35 L 187.57 96.35 C 187.63 95.49 186.97 94.75 186.11 94.70 C 185.25 94.65 184.51 95.31 184.46 96.17 Z M 184.40 97.17 L 184.34 98.18 C 184.29 99.05 184.95 99.78 185.81 99.83 C 186.67 99.88 187.41 99.22 187.46 98.36 L 187.52 97.35 C 187.56 96.49 186.91 95.75 186.05 95.70 C 185.18 95.65 184.45 96.31 184.40 97.17 Z M 184.34 98.19 L 184.29 99.19 C 184.24 100.05 184.90 100.79 185.76 100.84 C 186.62 100.88 187.36 100.22 187.40 99.36 L 187.46 98.36 C 187.51 97.50 186.84 96.76 185.98 96.71 C 185.12 96.67 184.39 97.33 184.34 98.19 Z M 184.29 99.20 L 184.24 100.18 C 184.19 101.04 184.86 101.78 185.72 101.82 C 186.58 101.86 187.31 101.20 187.36 100.34 L 187.40 99.36 C 187.45 98.49 186.79 97.76 185.92 97.72 C 185.06 97.67 184.33 98.34 184.29 99.20 Z M 184.24 100.19 L 184.19 101.21 C 184.15 102.07 184.81 102.81 185.68 102.85 C 186.54 102.89 187.27 102.22 187.31 101.36 L 187.36 100.33 C 187.40 99.47 186.73 98.74 185.87 98.70 C 185.01 98.66 184.28 99.33 184.24 100.19 Z M 184.19 101.22 L 184.15 102.21 C 184.11 103.07 184.78 103.80 185.64 103.84 C 186.50 103.88 187.23 103.21 187.27 102.35 L 187.31 101.35 C 187.35 100.49 186.68 99.76 185.82 99.73 C 184.95 99.69 184.23 100.36 184.19 101.22 Z M 184.15 102.22 L 184.11 103.20 C 184.07 104.06 184.74 104.79 185.61 104.82 C 186.47 104.86 187.19 104.19 187.23 103.32 L 187.27 102.34 C 187.30 101.48 186.63 100.75 185.77 100.72 C 184.91 100.68 184.18 101.36 184.15 102.22 Z M 184.11 103.20 L 184.07 104.18 C 184.04 105.05 184.71 105.77 185.57 105.80 C 186.43 105.84 187.16 105.16 187.19 104.30 L 187.23 103.32 C 187.26 102.46 186.59 101.73 185.73 101.70 C 184.86 101.67 184.14 102.34 184.11 103.20 Z M 184.07 104.18 L 184.03 105.14 C 184.00 106.00 184.67 106.73 185.54 106.76 C 186.40 106.79 187.12 106.12 187.15 105.26 L 187.19 104.30 C 187.22 103.44 186.55 102.71 185.69 102.68 C 184.83 102.65 184.10 103.32 184.07 104.18 Z M 184.03 105.14 L 184.00 106.12 C 183.96 106.99 184.64 107.71 185.50 107.74 C 186.36 107.78 187.08 107.10 187.12 106.24 L 187.15 105.26 C 187.19 104.40 186.52 103.67 185.65 103.64 C 184.79 103.61 184.07 104.28 184.03 105.14 Z M 184.00 106.12 L 183.96 107.14 C 183.92 108.00 184.59 108.73 185.45 108.76 C 186.32 108.79 187.04 108.12 187.08 107.26 L 187.12 106.25 C 187.15 105.38 186.48 104.66 185.62 104.62 C 184.76 104.59 184.03 105.26 184.00 106.12 Z M 183.96 107.13 L 183.91 108.18 C 183.87 109.04 184.54 109.77 185.40 109.81 C 186.26 109.85 186.99 109.18 187.03 108.32 L 187.08 107.27 C 187.11 106.41 186.45 105.68 185.58 105.64 C 184.72 105.60 183.99 106.27 183.96 107.13 Z M 183.91 108.18 L 183.87 109.16 C 183.82 110.02 184.49 110.75 185.35 110.79 C 186.21 110.83 186.94 110.17 186.98 109.31 L 187.03 108.32 C 187.07 107.46 186.40 106.73 185.54 106.69 C 184.68 106.65 183.95 107.32 183.91 108.18 Z M 183.87 109.16 L 183.82 110.16 C 183.78 111.02 184.44 111.76 185.30 111.80 C 186.16 111.84 186.89 111.17 186.94 110.31 L 186.98 109.31 C 187.03 108.45 186.36 107.72 185.50 107.67 C 184.64 107.63 183.91 108.30 183.87 109.16 Z M 183.82 110.16 L 183.77 111.17 C 183.73 112.03 184.39 112.77 185.25 112.81 C 186.11 112.85 186.85 112.18 186.89 111.32 L 186.94 110.31 C 186.98 109.45 186.31 108.72 185.45 108.68 C 184.59 108.64 183.86 109.30 183.82 110.16 Z M 183.77 111.18 L 183.72 112.18 C 183.68 113.04 184.35 113.77 185.21 113.81 C 186.07 113.85 186.80 113.18 186.84 112.32 L 186.89 111.32 C 186.93 110.46 186.26 109.73 185.40 109.69 C 184.54 109.65 183.81 110.32 183.77 111.18 Z M 183.72 112.19 L 183.68 113.20 C 183.65 114.06 184.32 114.79 185.18 114.82 C 186.04 114.86 186.77 114.19 186.80 113.32 L 186.84 112.31 C 186.88 111.45 186.21 110.73 185.35 110.69 C 184.48 110.66 183.76 111.33 183.72 112.19 Z M 183.68 113.21 L 183.65 114.22 C 183.62 115.09 184.29 115.81 185.15 115.84 C 186.01 115.87 186.74 115.19 186.77 114.33 L 186.80 113.32 C 186.83 112.45 186.16 111.73 185.30 111.70 C 184.43 111.67 183.71 112.35 183.68 113.21 Z M 183.65 114.23 L 183.62 115.23 C 183.59 116.09 184.27 116.81 185.14 116.84 C 186.00 116.86 186.72 116.18 186.74 115.32 L 186.77 114.32 C 186.79 113.46 186.11 112.74 185.25 112.72 C 184.39 112.69 183.67 113.37 183.65 114.23 Z M 183.62 115.24 L 183.60 116.23 C 183.58 117.09 184.26 117.80 185.12 117.82 C 185.99 117.84 186.70 117.16 186.72 116.29 L 186.74 115.31 C 186.76 114.45 186.07 113.73 185.21 113.71 C 184.35 113.70 183.64 114.38 183.62 115.24 Z M 183.60 116.24 L 183.58 117.22 C 183.57 118.09 184.26 118.79 185.12 118.81 C 185.98 118.82 186.69 118.13 186.70 117.27 L 186.72 116.28 C 186.73 115.42 186.04 114.71 185.18 114.70 C 184.32 114.69 183.61 115.38 183.60 116.24 Z M 183.58 117.23 L 183.57 118.25 C 183.56 119.11 184.26 119.82 185.12 119.83 C 185.98 119.84 186.69 119.14 186.69 118.28 L 186.70 117.26 C 186.71 116.40 186.02 115.69 185.16 115.69 C 184.30 115.68 183.59 116.37 183.58 117.23 Z M 183.57 118.26 L 183.57 119.27 C 183.56 120.13 184.26 120.83 185.12 120.84 C 185.98 120.84 186.69 120.15 186.69 119.29 L 186.69 118.27 C 186.70 117.41 186.00 116.71 185.14 116.70 C 184.28 116.70 183.58 117.40 183.57 118.26 Z M 183.57 119.27 L 183.57 120.27 C 183.56 121.13 184.26 121.83 185.12 121.83 C 185.99 121.84 186.69 121.14 186.69 120.28 L 186.69 119.28 C 186.69 118.42 185.99 117.72 185.13 117.72 C 184.27 117.71 183.57 118.41 183.57 119.27 Z M 183.57 120.27 L 183.57 121.24 C 183.56 122.11 184.26 122.81 185.13 122.81 C 185.99 122.81 186.69 122.11 186.69 121.25 L 186.69 120.27 C 186.69 119.41 185.99 118.71 185.13 118.71 C 184.26 118.71 183.57 119.41 183.57 120.27 Z M 183.57 121.24 L 183.57 122.23 C 183.57 123.09 184.26 123.79 185.13 123.79 C 185.99 123.79 186.69 123.09 186.69 122.23 L 186.69 121.24 C 186.69 120.38 185.99 119.68 185.13 119.68 C 184.26 119.68 183.57 120.38 183.57 121.24 Z M 183.57 122.23 L 183.57 123.21 C 183.57 124.07 184.26 124.77 185.13 124.77 C 185.99 124.77 186.69 124.07 186.69 123.21 L 186.69 122.23 C 186.69 121.37 185.99 120.67 185.13 120.67 C 184.26 120.67 183.57 121.37 183.57 122.23 Z M 183.57 123.21 L 183.57 124.21 C 183.57 125.07 184.26 125.77 185.13 125.77 C 185.99 125.77 186.69 125.07 186.69 124.21 L 186.69 123.21 C 186.69 122.35 185.99 121.65 185.13 121.65 C 184.26 121.65 183.57 122.35 183.57 123.21 Z M 183.57 124.21 L 183.57 125.24 C 183.57 126.11 184.26 126.80 185.13 126.80 C 185.99 126.80 186.69 126.11 186.69 125.24 L 186.69 124.21 C 186.69 123.34 185.99 122.64 185.13 122.64 C 184.26 122.64 183.57 123.34 183.57 124.21 Z M 183.57 125.24 L 183.57 126.22 C 183.57 127.08 184.26 127.78 185.13 127.78 C 185.99 127.78 186.69 127.08 186.69 126.22 L 186.69 125.24 C 186.69 124.38 185.99 123.68 185.13 123.68 C 184.26 123.68 183.57 124.38 183.57 125.24 Z M 183.57 126.22 L 183.57 127.22 C 183.57 128.08 184.26 128.78 185.13 128.78 C 185.99 128.78 186.69 128.08 186.69 127.22 L 186.69 126.22 C 186.69 125.35 185.99 124.66 185.13 124.66 C 184.26 124.66 183.57 125.35 183.57 126.22 Z M 183.57 127.22 L 183.57 128.24 C 183.57 129.10 184.26 129.80 185.13 129.80 C 185.99 129.80 186.69 129.10 186.69 128.24 L 186.69 127.22 C 186.69 126.36 185.99 125.66 185.13 125.66 C 184.26 125.66 183.57 126.36 183.57 127.22 Z M 183.57 128.24 L 183.57 129.25 C 183.57 130.11 184.26 130.81 185.13 130.81 C 185.99 130.81 186.69 130.11 186.69 129.25 L 186.69 128.24 C 186.69 127.38 185.99 126.68 185.13 126.68 C 184.26 126.68 183.57 127.38 183.57 128.24 Z M 183.57 129.25 L 183.57 130.24 C 183.57 131.11 184.26 131.81 185.13 131.81 C 185.99 131.81 186.69 131.11 186.69 130.24 L 186.69 129.25 C 186.69 128.39 185.99 127.69 185.13 127.69 C 184.26 127.69 183.57 128.39 183.57 129.25 Z M 183.57 130.24 L 183.57 131.23 C 183.57 132.09 184.26 132.79 185.13 132.79 C 185.99 132.79 186.69 132.09 186.69 131.23 L 186.69 130.24 C 186.69 129.38 185.99 128.68 185.13 128.68 C 184.26 128.68 183.57 129.38 183.57 130.24 Z M 183.57 131.23 L 183.57 132.21 C 183.57 133.07 184.26 133.77 185.13 133.77 C 185.99 133.77 186.69 133.07 186.69 132.21 L 186.69 131.23 C 186.69 130.36 185.99 129.67 185.13 129.67 C 184.26 129.67 183.57 130.36 183.57 131.23 Z M 183.57 132.21 L 183.57 133.21 C 183.57 134.07 184.26 134.77 185.13 134.77 C 185.99 134.77 186.69 134.07 186.69 133.21 L 186.69 132.21 C 186.69 131.34 185.99 130.64 185.13 130.64 C 184.26 130.64 183.57 131.34 183.57 132.21 Z M 183.57 133.21 L 183.57 134.23 C 183.57 135.09 184.26 135.79 185.13 135.79 C 185.99 135.79 186.69 135.09 186.69 134.23 L 186.69 133.21 C 186.69 132.35 185.99 131.65 185.13 131.65 C 184.26 131.65 183.57 132.35 183.57 133.21 Z M 183.57 134.23 L 183.57 135.20 C 183.57 136.06 184.26 136.76 185.13 136.76 C 185.99 136.76 186.69 136.06 186.69 135.20 L 186.69 134.23 C 186.69 133.37 185.99 132.67 185.13 132.67 C 184.26 132.67 183.57 133.37 183.57 134.23 Z M 183.57 135.20 L 183.57 136.20 C 183.57 137.06 184.26 137.76 185.13 137.76 C 185.99 137.76 186.69 137.06 186.69 136.20 L 186.69 135.20 C 186.69 134.34 185.99 133.64 185.13 133.64 C 184.26 133.64 183.57 134.34 183.57 135.20 Z M 183.57 136.20 L 183.57 137.22 C 183.57 138.08 184.26 138.78 185.13 138.78 C 185.99 138.78 186.69 138.08 186.69 137.22 L 186.69 136.20 C 186.69 135.34 185.99 134.64 185.13 134.64 C 184.26 134.64 183.57 135.34 183.57 136.20 Z M 183.57 137.22 L 183.57 138.24 C 183.57 139.10 184.26 139.80 185.13 139.80 C 185.99 139.80 186.69 139.10 186.69 138.24 L 186.69 137.22 C 186.69 136.36 185.99 135.66 185.13 135.66 C 184.26 135.66 183.57 136.36 183.57 137.22 Z M 183.57 138.24 L 183.57 139.26 C 183.57 140.12 184.26 140.82 185.13 140.82 C 185.99 140.82 186.69 140.12 186.69 139.26 L 186.69 138.24 C 186.69 137.38 185.99 136.68 185.13 136.68 C 184.26 136.68 183.57 137.38 183.57 138.24 Z M 183.57 139.26 L 183.57 140.29 C 183.57 141.15 184.26 141.85 185.13 141.85 C 185.99 141.85 186.69 141.15 186.69 140.29 L 186.69 139.26 C 186.69 138.39 185.99 137.69 185.13 137.69 C 184.26 137.69 183.57 138.39 183.57 139.26 Z M 183.57 140.29 L 183.57 141.29 C 183.57 142.16 184.26 142.85 185.13 142.85 C 185.99 142.85 186.69 142.16 186.69 141.29 L 186.69 140.29 C 186.69 139.42 185.99 138.73 185.13 138.73 C 184.26 138.73 183.57 139.42 183.57 140.29 Z M 183.57 141.29 L 183.57 142.28 C 183.57 143.14 184.26 143.84 185.13 143.84 C 185.99 143.84 186.69 143.14 186.69 142.28 L 186.69 141.29 C 186.69 140.43 185.99 139.73 185.13 139.73 C 184.26 139.73 183.57 140.43 183.57 141.29 Z M 183.57 142.28 L 183.57 143.26 C 183.57 144.12 184.26 144.82 185.13 144.82 C 185.99 144.82 186.69 144.12 186.69 143.26 L 186.69 142.28 C 186.69 141.42 185.99 140.72 185.13 140.72 C 184.26 140.72 183.57 141.42 183.57 142.28 Z M 183.57 143.26 L 183.57 144.25 C 183.57 145.11 184.26 145.81 185.13 145.81 C 185.99 145.81 186.69 145.11 186.69 144.25 L 186.69 143.26 C 186.69 142.40 185.99 141.70 185.13 141.70 C 184.26 141.70 183.57 142.40 183.57 143.26 Z M 183.57 144.25 L 183.57 145.25 C 183.57 146.11 184.26 146.81 185.13 146.81 C 185.99 146.81 186.69 146.11 186.69 145.25 L 186.69 144.25 C 186.69 143.39 185.99 142.69 185.13 142.69 C 184.26 142.69 183.57 143.39 183.57 144.25 Z M 183.57 145.25 L 183.57 146.25 C 183.57 147.11 184.26 147.81 185.13 147.81 C 185.99 147.81 186.69 147.11 186.69 146.25 L 186.69 145.25 C 186.69 144.39 185.99 143.69 185.13 143.69 C 184.26 143.69 183.57 144.39 183.57 145.25 Z M 183.57 146.25 L 183.57 147.25 C 183.57 148.11 184.26 148.81 185.13 148.81 C 185.99 148.81 186.69 148.11 186.69 147.25 L 186.69 146.25 C 186.69 145.39 185.99 144.69 185.13 144.69 C 184.26 144.69 183.57 145.39 183.57 146.25 Z M 183.57 147.25 L 183.57 148.24 C 183.57 149.11 184.26 149.81 185.13 149.81 C 185.99 149.81 186.69 149.11 186.69 148.24 L 186.69 147.25 C 186.69 146.39 185.99 145.69 185.13 145.69 C 184.26 145.69 183.57 146.39 183.57 147.25 Z M 183.57 148.24 L 183.57 149.27 C 183.57 150.14 184.26 150.83 185.13 150.83 C 185.99 150.83 186.69 150.14 186.69 149.27 L 186.69 148.24 C 186.69 147.38 185.99 146.68 185.13 146.68 C 184.26 146.68 183.57 147.38 183.57 148.24 Z M 183.57 149.27 L 183.57 150.29 C 183.57 151.16 184.26 151.85 185.13 151.85 C 185.99 151.85 186.69 151.16 186.69 150.29 L 186.69 149.27 C 186.69 148.41 185.99 147.71 185.13 147.71 C 184.26 147.71 183.57 148.41 183.57 149.27 Z M 183.57 150.29 L 183.57 151.29 C 183.57 152.16 184.26 152.85 185.13 152.85 C 185.99 152.85 186.69 152.16 186.69 151.29 L 186.69 150.29 C 186.69 149.43 185.99 148.73 185.13 148.73 C 184.26 148.73 183.57 149.43 183.57 150.29 Z M 183.57 151.29 L 183.57 152.26 C 183.57 153.13 184.26 153.82 185.13 153.82 C 185.99 153.82 186.69 153.13 186.69 152.26 L 186.69 151.29 C 186.69 150.43 185.99 149.73 185.13 149.73 C 184.26 149.73 183.57 150.43 183.57 151.29 Z M 183.57 152.26 L 183.57 153.27 C 183.57 154.13 184.26 154.83 185.13 154.83 C 185.99 154.83 186.69 154.13 186.69 153.27 L 186.69 152.26 C 186.69 151.40 185.99 150.70 185.13 150.70 C 184.26 150.70 183.57 151.40 183.57 152.26 Z M 183.57 153.27 L 183.57 154.27 C 183.57 155.13 184.26 155.83 185.13 155.83 C 185.99 155.83 186.69 155.13 186.69 154.27 L 186.69 153.27 C 186.69 152.40 185.99 151.71 185.13 151.71 C 184.26 151.71 183.57 152.40 183.57 153.27 Z M 183.57 154.27 L 183.57 155.26 C 183.57 156.12 184.26 156.82 185.13 156.82 C 185.99 156.82 186.69 156.12 186.69 155.26 L 186.69 154.27 C 186.69 153.41 185.99 152.71 185.13 152.71 C 184.26 152.71 183.57 153.41 183.57 154.27 Z M 183.57 155.26 L 183.57 156.24 C 183.57 157.11 184.26 157.81 185.13 157.81 C 185.99 157.81 186.69 157.11 186.69 156.24 L 186.69 155.26 C 186.69 154.40 185.99 153.70 185.13 153.70 C 184.26 153.70 183.57 154.40 183.57 155.26 Z M 183.57 156.24 L 183.57 157.23 C 183.57 158.09 184.26 158.79 185.13 158.79 C 185.99 158.79 186.69 158.09 186.69 157.23 L 186.69 156.24 C 186.69 155.38 185.99 154.68 185.13 154.68 C 184.26 154.68 183.57 155.38 183.57 156.24 Z M 183.57 157.23 L 183.57 158.23 C 183.57 159.09 184.26 159.79 185.13 159.79 C 185.99 159.79 186.69 159.09 186.69 158.23 L 186.69 157.23 C 186.69 156.37 185.99 155.67 185.13 155.67 C 184.26 155.67 183.57 156.37 183.57 157.23 Z M 183.57 158.23 L 183.57 159.23 C 183.57 160.09 184.26 160.79 185.13 160.79 C 185.99 160.79 186.69 160.09 186.69 159.23 L 186.69 158.23 C 186.69 157.36 185.99 156.66 185.13 156.66 C 184.26 156.66 183.57 157.36 183.57 158.23 Z M 183.57 159.23 L 183.57 160.24 C 183.57 161.10 184.26 161.80 185.13 161.80 C 185.99 161.80 186.69 161.10 186.69 160.24 L 186.69 159.23 C 186.69 158.37 185.99 157.67 185.13 157.67 C 184.26 157.67 183.57 158.37 183.57 159.23 Z M 183.57 160.24 L 183.57 161.25 C 183.57 162.11 184.26 162.81 185.13 162.81 C 185.99 162.81 186.69 162.11 186.69 161.25 L 186.69 160.24 C 186.69 159.38 185.99 158.68 185.13 158.68 C 184.26 158.68 183.57 159.38 183.57 160.24 Z M 183.57 161.25 L 183.57 162.25 C 183.57 163.11 184.26 163.81 185.13 163.81 C 185.99 163.81 186.69 163.11 186.69 162.25 L 186.69 161.25 C 186.69 160.39 185.99 159.69 185.13 159.69 C 184.26 159.69 183.57 160.39 183.57 161.25 Z M 183.57 162.25 L 183.57 163.25 C 183.57 164.11 184.26 164.81 185.13 164.81 C 185.99 164.81 186.69 164.11 186.69 163.25 L 186.69 162.25 C 186.69 161.39 185.99 160.69 185.13 160.69 C 184.26 160.69 183.57 161.39 183.57 162.25 Z M 183.57 163.25 L 183.57 164.24 C 183.57 165.11 184.26 165.81 185.13 165.81 C 185.99 165.81 186.69 165.11 186.69 164.24 L 186.69 163.25 C 186.69 162.39 185.99 161.69 185.13 161.69 C 184.26 161.69 183.57 162.39 183.57 163.25 Z M 183.57 164.24 L 183.56 165.23 C 183.56 166.09 184.26 166.79 185.13 166.79 C 185.99 166.79 186.69 166.09 186.69 165.23 L 186.69 164.24 C 186.69 163.38 185.99 162.68 185.13 162.68 C 184.26 162.68 183.57 163.38 183.57 164.24 Z M 183.56 165.23 L 183.56 166.21 C 183.56 167.07 184.26 167.77 185.12 167.78 C 185.98 167.78 186.68 167.08 186.69 166.22 L 186.69 165.23 C 186.69 164.37 185.99 163.67 185.13 163.67 C 184.27 163.67 183.57 164.36 183.56 165.23 Z M 183.56 166.21 L 183.56 167.20 C 183.55 168.07 184.25 168.77 185.11 168.77 C 185.97 168.78 186.68 168.08 186.68 167.22 L 186.69 166.22 C 186.69 165.36 186.00 164.66 185.13 164.65 C 184.27 164.65 183.57 165.34 183.56 166.21 Z M 183.56 167.20 L 183.55 168.21 C 183.54 169.08 184.23 169.78 185.09 169.79 C 185.95 169.80 186.66 169.11 186.67 168.25 L 186.68 167.23 C 186.69 166.37 186.00 165.66 185.14 165.65 C 184.27 165.64 183.57 166.33 183.56 167.20 Z M 183.55 168.20 L 183.53 169.20 C 183.51 170.06 184.20 170.77 185.06 170.79 C 185.92 170.80 186.63 170.12 186.65 169.26 L 186.67 168.26 C 186.68 167.40 186.00 166.69 185.14 166.67 C 184.27 166.66 183.56 167.34 183.55 168.20 Z M 183.53 169.19 L 183.50 170.18 C 183.48 171.04 184.16 171.76 185.03 171.78 C 185.89 171.80 186.60 171.12 186.63 170.26 L 186.65 169.26 C 186.67 168.40 185.99 167.69 185.13 167.67 C 184.27 167.64 183.55 168.33 183.53 169.19 Z M 183.50 170.17 L 183.48 171.18 C 183.45 172.04 184.13 172.76 184.99 172.78 C 185.85 172.81 186.57 172.13 186.60 171.27 L 186.63 170.26 C 186.65 169.40 185.97 168.68 185.11 168.66 C 184.25 168.63 183.53 169.31 183.50 170.17 Z M 183.48 171.17 L 183.44 172.18 C 183.42 173.05 184.09 173.77 184.95 173.79 C 185.82 173.82 186.54 173.14 186.56 172.28 L 186.60 171.27 C 186.62 170.41 185.95 169.69 185.09 169.66 C 184.22 169.63 183.50 170.31 183.48 171.17 Z M 183.44 172.18 L 183.41 173.19 C 183.38 174.05 184.06 174.78 184.92 174.80 C 185.78 174.83 186.50 174.16 186.53 173.29 L 186.56 172.28 C 186.59 171.42 185.92 170.70 185.06 170.67 C 184.19 170.65 183.47 171.32 183.44 172.18 Z M 183.41 173.19 L 183.38 174.19 C 183.35 175.06 184.02 175.78 184.89 175.81 C 185.75 175.84 186.47 175.16 186.50 174.30 L 186.53 173.30 C 186.56 172.43 185.89 171.71 185.02 171.68 C 184.16 171.65 183.44 172.33 183.41 173.19 Z M 183.38 174.19 L 183.34 175.19 C 183.31 176.05 183.99 176.78 184.85 176.81 C 185.71 176.84 186.43 176.16 186.46 175.30 L 186.50 174.30 C 186.53 173.44 185.85 172.72 184.99 172.69 C 184.13 172.66 183.41 173.33 183.38 174.19 Z M 183.34 175.19 L 183.30 176.18 C 183.27 177.05 183.94 177.77 184.80 177.80 C 185.67 177.84 186.39 177.16 186.42 176.30 L 186.46 175.31 C 186.50 174.44 185.82 173.72 184.96 173.69 C 184.10 173.65 183.38 174.33 183.34 175.19 Z M 183.30 176.18 L 183.26 177.17 C 183.23 178.03 183.89 178.76 184.76 178.80 C 185.62 178.84 186.34 178.17 186.38 177.31 L 186.42 176.31 C 186.46 175.45 185.79 174.72 184.93 174.68 C 184.07 174.65 183.34 175.32 183.30 176.18 Z M 183.26 177.16 L 183.21 178.19 C 183.17 179.05 183.84 179.78 184.70 179.82 C 185.56 179.86 186.29 179.20 186.33 178.33 L 186.38 177.31 C 186.42 176.45 185.76 175.72 184.90 175.68 C 184.03 175.64 183.30 176.30 183.26 177.16 Z M 183.21 178.18 L 183.16 179.20 C 183.12 180.06 183.78 180.79 184.64 180.84 C 185.50 180.88 186.24 180.22 186.28 179.36 L 186.33 178.34 C 186.38 177.48 185.71 176.75 184.85 176.70 C 183.99 176.66 183.26 177.32 183.21 178.18 Z M 183.16 179.19 L 183.11 180.19 C 183.06 181.06 183.72 181.79 184.58 181.84 C 185.45 181.88 186.18 181.22 186.23 180.36 L 186.28 179.36 C 186.33 178.50 185.66 177.76 184.80 177.72 C 183.94 177.67 183.21 178.33 183.16 179.19 Z M 183.11 180.20 L 183.06 181.17 C 183.01 182.03 183.67 182.77 184.53 182.81 C 185.40 182.86 186.13 182.19 186.18 181.33 L 186.23 180.36 C 186.27 179.50 185.61 178.76 184.75 178.72 C 183.89 178.67 183.15 179.33 183.11 180.20 Z M 183.06 181.18 L 183.01 182.18 C 182.97 183.04 183.63 183.77 184.49 183.82 C 185.35 183.86 186.08 183.19 186.13 182.33 L 186.18 181.33 C 186.22 180.47 185.55 179.73 184.69 179.69 C 183.83 179.65 183.10 180.31 183.06 181.18 Z M 183.01 182.19 L 182.96 183.19 C 182.92 184.06 183.59 184.79 184.45 184.83 C 185.31 184.87 186.04 184.20 186.08 183.34 L 186.13 182.33 C 186.17 181.47 185.50 180.74 184.64 180.70 C 183.78 180.66 183.05 181.32 183.01 182.19 Z M 182.96 183.19 L 182.92 184.18 C 182.88 185.04 183.54 185.77 184.40 185.81 C 185.26 185.85 185.99 185.19 186.03 184.33 L 186.08 183.34 C 186.12 182.48 185.45 181.75 184.59 181.71 C 183.73 181.67 183.00 182.33 182.96 183.19 Z M 182.92 184.18 L 182.87 185.16 C 182.83 186.02 183.49 186.75 184.35 186.79 C 185.21 186.83 185.94 186.17 185.99 185.31 L 186.03 184.33 C 186.08 183.47 185.41 182.74 184.55 182.69 C 183.69 182.65 182.96 183.32 182.92 184.18 Z M 182.87 185.15 L 182.81 186.14 C 182.77 187.00 183.43 187.73 184.29 187.78 C 185.15 187.83 185.88 187.17 185.93 186.31 L 185.99 185.32 C 186.03 184.46 185.37 183.72 184.51 183.67 C 183.65 183.63 182.92 184.29 182.87 185.15 Z M 182.81 186.13 L 182.75 187.12 C 182.70 187.99 183.35 188.73 184.21 188.78 C 185.07 188.83 185.81 188.18 185.87 187.32 L 185.93 186.32 C 185.98 185.46 185.33 184.72 184.47 184.67 C 183.61 184.61 182.87 185.27 182.81 186.13 Z M 182.75 187.11 L 182.68 188.11 C 182.62 188.97 183.27 189.72 184.13 189.78 C 184.99 189.84 185.73 189.19 185.79 188.33 L 185.87 187.33 C 185.93 186.47 185.28 185.73 184.42 185.67 C 183.56 185.60 182.81 186.25 182.75 187.11 Z M 182.68 188.10 L 182.60 189.09 C 182.53 189.95 183.17 190.71 184.03 190.78 C 184.89 190.85 185.64 190.21 185.71 189.35 L 185.79 188.35 C 185.86 187.49 185.22 186.74 184.36 186.67 C 183.50 186.60 182.75 187.24 182.68 188.10 Z M 182.60 189.08 L 182.51 190.10 C 182.43 190.96 183.06 191.72 183.92 191.79 C 184.78 191.87 185.54 191.24 185.62 190.38 L 185.71 189.36 C 185.79 188.50 185.16 187.74 184.30 187.67 C 183.44 187.59 182.68 188.22 182.60 189.08 Z M 182.51 190.09 L 182.41 191.09 C 182.33 191.95 182.96 192.71 183.81 192.80 C 184.67 192.88 185.44 192.25 185.52 191.40 L 185.62 190.39 C 185.70 189.53 185.07 188.77 184.22 188.69 C 183.36 188.60 182.59 189.23 182.51 190.09 Z M 182.41 191.09 L 182.31 192.08 C 182.23 192.93 182.86 193.70 183.71 193.78 C 184.57 193.87 185.34 193.24 185.42 192.38 L 185.52 191.40 C 185.60 190.54 184.98 189.78 184.12 189.69 C 183.26 189.61 182.50 190.23 182.41 191.09 Z M 182.31 192.08 L 182.22 193.04 C 182.14 193.89 182.77 194.66 183.63 194.74 C 184.49 194.82 185.25 194.19 185.33 193.33 L 185.42 192.38 C 185.50 191.52 184.87 190.76 184.02 190.67 C 183.16 190.59 182.40 191.22 182.31 192.08 Z M 182.22 193.05 L 182.14 193.98 C 182.06 194.84 182.70 195.60 183.56 195.67 C 184.42 195.75 185.17 195.11 185.25 194.25 L 185.33 193.32 C 185.41 192.46 184.77 191.70 183.91 191.63 C 183.06 191.55 182.30 192.19 182.22 193.05 Z M 182.14 193.98 L 182.06 194.95 C 181.98 195.81 182.62 196.56 183.48 196.64 C 184.34 196.71 185.09 196.07 185.17 195.21 L 185.25 194.25 C 185.32 193.39 184.69 192.63 183.83 192.56 C 182.97 192.49 182.21 193.12 182.14 193.98 Z M 182.06 194.95 L 181.97 195.99 C 181.89 196.85 182.53 197.61 183.39 197.68 C 184.24 197.76 185.00 197.12 185.08 196.26 L 185.17 195.22 C 185.24 194.36 184.61 193.60 183.75 193.53 C 182.89 193.45 182.13 194.09 182.06 194.95 Z M 181.97 195.99 L 181.87 197.00 C 181.79 197.86 182.43 198.62 183.29 198.70 C 184.14 198.77 184.90 198.14 184.98 197.28 L 185.08 196.27 C 185.15 195.41 184.52 194.65 183.66 194.57 C 182.80 194.49 182.04 195.13 181.97 195.99 Z M 181.87 196.99 L 181.78 197.96 C 181.70 198.82 182.33 199.58 183.19 199.66 C 184.05 199.74 184.81 199.11 184.89 198.26 L 184.98 197.29 C 185.06 196.43 184.43 195.67 183.58 195.59 C 182.72 195.51 181.96 196.14 181.87 196.99 Z M 181.78 197.96 L 181.69 198.97 C 181.60 199.83 182.23 200.59 183.09 200.68 C 183.95 200.76 184.71 200.13 184.79 199.27 L 184.89 198.26 C 184.97 197.40 184.34 196.64 183.48 196.55 C 182.63 196.47 181.86 197.10 181.78 197.96 Z M 181.69 198.98 L 181.59 200.01 C 181.51 200.86 182.14 201.63 183.00 201.71 C 183.86 201.79 184.62 201.15 184.70 200.30 L 184.79 199.27 C 184.87 198.41 184.24 197.65 183.38 197.57 C 182.53 197.49 181.77 198.12 181.69 198.98 Z M 181.59 200.01 L 181.50 201.03 C 181.42 201.89 182.06 202.65 182.92 202.72 C 183.78 202.80 184.53 202.17 184.61 201.31 L 184.70 200.29 C 184.78 199.43 184.14 198.67 183.28 198.60 C 182.42 198.52 181.67 199.15 181.59 200.01 Z M 181.50 201.04 L 181.41 202.09 C 181.34 202.94 181.98 203.70 182.84 203.77 C 183.70 203.84 184.46 203.20 184.53 202.34 L 184.61 201.30 C 184.68 200.44 184.04 199.68 183.18 199.61 C 182.32 199.54 181.57 200.18 181.50 201.04 Z M 181.41 202.10 L 181.34 203.12 C 181.27 203.98 181.92 204.73 182.78 204.80 C 183.64 204.86 184.39 204.21 184.45 203.35 L 184.53 202.33 C 184.59 201.47 183.94 200.72 183.08 200.65 C 182.22 200.59 181.48 201.24 181.41 202.10 Z M 181.34 203.14 L 181.27 204.12 C 181.21 204.99 181.86 205.73 182.72 205.79 C 183.58 205.84 184.33 205.19 184.39 204.33 L 184.45 203.34 C 184.51 202.48 183.86 201.74 183.00 201.68 C 182.14 201.62 181.39 202.27 181.34 203.14 Z M 181.27 204.13 L 181.21 205.10 C 181.16 205.96 181.81 206.70 182.67 206.75 C 183.53 206.81 184.27 206.15 184.33 205.29 L 184.39 204.33 C 184.44 203.47 183.79 202.72 182.92 202.67 C 182.06 202.62 181.32 203.27 181.27 204.13 Z M 181.21 205.10 L 181.15 206.07 C 181.10 206.93 181.75 207.67 182.61 207.73 C 183.48 207.78 184.22 207.12 184.27 206.26 L 184.33 205.29 C 184.38 204.43 183.72 203.69 182.86 203.64 C 182.00 203.58 181.26 204.24 181.21 205.10 Z M 181.15 206.07 L 181.09 207.12 C 181.04 207.98 181.69 208.72 182.55 208.77 C 183.41 208.82 184.15 208.16 184.21 207.30 L 184.27 206.26 C 184.32 205.40 183.66 204.66 182.80 204.61 C 181.94 204.56 181.20 205.21 181.15 206.07 Z M 181.09 207.12 L 181.03 208.14 C 180.98 209.00 181.64 209.74 182.50 209.79 C 183.36 209.84 184.10 209.18 184.15 208.32 L 184.21 207.30 C 184.25 206.44 183.60 205.70 182.73 205.65 C 181.87 205.60 181.14 206.26 181.09 207.12 Z M 181.03 208.15 L 180.98 209.13 C 180.94 209.99 181.60 210.73 182.46 210.77 C 183.32 210.81 184.06 210.15 184.10 209.29 L 184.15 208.31 C 184.19 207.45 183.53 206.71 182.67 206.67 C 181.81 206.63 181.07 207.29 181.03 208.15 Z M 180.98 209.15 L 180.94 210.09 C 180.91 210.95 181.58 211.67 182.44 211.71 C 183.30 211.74 184.03 211.07 184.06 210.21 L 184.10 209.27 C 184.13 208.41 183.46 207.68 182.60 207.65 C 181.74 207.62 181.01 208.29 180.98 209.15 Z M 180.94 210.11 L 180.92 211.06 C 180.90 211.92 181.58 212.64 182.44 212.66 C 183.30 212.68 184.02 212.00 184.04 211.14 L 184.06 210.19 C 184.09 209.32 183.40 208.61 182.54 208.59 C 181.68 208.57 180.96 209.25 180.94 210.11 Z M 180.92 211.08 L 180.91 212.03 C 180.90 212.89 181.59 213.60 182.45 213.61 C 183.31 213.62 184.02 212.93 184.03 212.07 L 184.04 211.12 C 184.05 210.25 183.36 209.55 182.50 209.54 C 181.64 209.53 180.93 210.22 180.92 211.08 Z M 180.91 212.05 L 180.91 213.07 C 180.90 213.94 181.60 214.64 182.46 214.64 C 183.32 214.64 184.03 213.95 184.03 213.08 L 184.03 212.05 C 184.03 211.19 183.34 210.49 182.47 210.49 C 181.61 210.49 180.91 211.18 180.91 212.05 Z M 180.91 213.08 L 180.90 214.31 C 180.90 215.17 181.60 215.87 182.47 215.87 C 183.33 215.87 184.03 215.17 184.03 214.31 L 184.03 213.08 C 184.03 212.22 183.33 211.52 182.47 211.52 C 181.60 211.52 180.91 212.22 180.91 213.08 Z M 180.90 214.30 L 180.90 215.63 C 180.89 216.49 181.59 217.19 182.45 217.20 C 183.31 217.20 184.01 216.51 184.02 215.64 L 184.03 214.32 C 184.03 213.46 183.34 212.76 182.47 212.75 C 181.61 212.75 180.91 213.44 180.90 214.30 Z M 180.90 215.59 L 180.87 216.57 C 180.84 217.43 181.52 218.15 182.38 218.18 C 183.25 218.20 183.97 217.53 183.99 216.66 L 184.02 215.68 C 184.04 214.82 183.37 214.10 182.50 214.07 C 181.64 214.05 180.92 214.73 180.90 215.59 Z M 180.91 216.25 L 180.85 216.51 C 180.65 217.35 181.16 218.19 182.00 218.39 C 182.84 218.60 183.68 218.08 183.88 217.25 L 183.95 216.99 C 184.15 216.15 183.64 215.31 182.80 215.10 C 181.96 214.90 181.12 215.41 180.91 216.25 Z M 183.91 216.62 L 183.82 216.10 C 183.67 215.25 182.87 214.68 182.02 214.82 C 181.17 214.97 180.60 215.77 180.74 216.62 L 180.83 217.14 C 180.97 217.99 181.78 218.56 182.63 218.42 C 183.48 218.27 184.05 217.47 183.91 216.62 Z M 183.83 216.19 L 183.72 215.18 C 183.63 214.32 182.86 213.70 182.00 213.80 C 181.14 213.89 180.53 214.66 180.62 215.52 L 180.73 216.53 C 180.82 217.39 181.59 218.01 182.45 217.91 C 183.30 217.82 183.92 217.05 183.83 216.19 Z M 183.72 215.20 L 183.60 213.93 C 183.52 213.07 182.76 212.44 181.90 212.52 C 181.04 212.60 180.41 213.36 180.49 214.22 L 180.62 215.49 C 180.70 216.35 181.46 216.98 182.32 216.90 C 183.18 216.82 183.81 216.06 183.72 215.20 Z M 183.60 213.93 L 183.48 212.65 C 183.40 211.79 182.64 211.16 181.78 211.24 C 180.92 211.32 180.29 212.08 180.37 212.94 L 180.49 214.22 C 180.58 215.08 181.34 215.71 182.19 215.63 C 183.05 215.55 183.68 214.79 183.60 213.93 Z M 183.48 212.64 L 183.38 211.57 C 183.29 210.71 182.53 210.09 181.67 210.17 C 180.81 210.26 180.18 211.02 180.27 211.88 L 180.38 212.95 C 180.46 213.81 181.22 214.43 182.08 214.35 C 182.94 214.26 183.57 213.50 183.48 212.64 Z M 183.38 211.57 L 183.28 210.59 C 183.19 209.73 182.42 209.11 181.57 209.20 C 180.71 209.29 180.08 210.05 180.17 210.91 L 180.27 211.88 C 180.36 212.74 181.12 213.37 181.98 213.28 C 182.84 213.19 183.46 212.42 183.38 211.57 Z M 183.28 210.60 L 183.18 209.65 C 183.10 208.79 182.33 208.17 181.47 208.25 C 180.62 208.34 179.99 209.11 180.08 209.96 L 180.17 210.91 C 180.26 211.76 181.02 212.39 181.88 212.30 C 182.74 212.22 183.36 211.45 183.28 210.60 Z M 183.18 209.66 L 183.09 208.69 C 183.01 207.83 182.25 207.20 181.39 207.28 C 180.53 207.36 179.90 208.12 179.98 208.98 L 180.07 209.95 C 180.16 210.81 180.92 211.44 181.77 211.36 C 182.63 211.28 183.26 210.52 183.18 209.66 Z M 183.09 208.71 L 183.02 207.78 C 182.94 206.92 182.19 206.28 181.33 206.36 C 180.47 206.43 179.83 207.18 179.90 208.04 L 179.98 208.97 C 180.06 209.83 180.81 210.46 181.67 210.39 C 182.53 210.32 183.17 209.56 183.09 208.71 Z M 183.02 207.79 L 182.94 206.83 C 182.88 205.97 182.12 205.33 181.27 205.39 C 180.41 205.46 179.76 206.21 179.83 207.07 L 179.90 208.03 C 179.97 208.89 180.72 209.54 181.58 209.47 C 182.44 209.40 183.08 208.65 183.02 207.79 Z M 182.94 206.84 L 182.87 205.83 C 182.81 204.97 182.06 204.32 181.20 204.38 C 180.34 204.45 179.69 205.19 179.76 206.05 L 179.83 207.06 C 179.89 207.92 180.64 208.57 181.50 208.51 C 182.36 208.44 183.00 207.70 182.94 206.84 Z M 182.87 205.84 L 182.80 204.80 C 182.74 203.94 182.00 203.29 181.14 203.35 C 180.28 203.40 179.63 204.15 179.69 205.01 L 179.76 206.05 C 179.81 206.91 180.56 207.56 181.42 207.50 C 182.28 207.44 182.93 206.70 182.87 205.84 Z M 182.80 204.80 L 182.73 203.75 C 182.68 202.89 181.94 202.24 181.07 202.30 C 180.21 202.35 179.56 203.09 179.62 203.95 L 179.68 205.00 C 179.74 205.86 180.48 206.52 181.34 206.46 C 182.20 206.41 182.86 205.66 182.80 204.80 Z M 182.73 203.76 L 182.67 202.71 C 182.62 201.84 181.87 201.19 181.01 201.24 C 180.15 201.30 179.50 202.04 179.55 202.90 L 179.62 203.95 C 179.67 204.81 180.41 205.47 181.27 205.41 C 182.13 205.36 182.79 204.62 182.73 203.76 Z M 182.67 202.71 L 182.61 201.67 C 182.56 200.81 181.82 200.15 180.96 200.20 C 180.10 200.25 179.44 200.99 179.49 201.85 L 179.55 202.89 C 179.60 203.75 180.34 204.41 181.20 204.36 C 182.06 204.31 182.72 203.57 182.67 202.71 Z M 182.61 201.68 L 182.55 200.67 C 182.51 199.81 181.77 199.14 180.91 199.19 C 180.05 199.24 179.39 199.97 179.44 200.83 L 179.49 201.85 C 179.54 202.71 180.27 203.37 181.13 203.32 C 181.99 203.28 182.65 202.54 182.61 201.68 Z M 182.56 200.68 L 182.51 199.70 C 182.47 198.84 181.74 198.17 180.88 198.21 C 180.02 198.25 179.35 198.99 179.39 199.85 L 179.44 200.82 C 179.48 201.68 180.21 202.35 181.07 202.31 C 181.93 202.27 182.60 201.54 182.56 200.68 Z M 182.51 199.71 L 182.47 198.79 C 182.44 197.92 181.72 197.25 180.85 197.29 C 179.99 197.32 179.32 198.05 179.35 198.91 L 179.39 199.83 C 179.42 200.70 180.15 201.37 181.01 201.33 C 181.87 201.30 182.54 200.57 182.51 199.71 Z M 182.47 198.80 L 182.45 197.83 C 182.42 196.97 181.71 196.29 180.84 196.31 C 179.98 196.33 179.30 197.05 179.33 197.91 L 179.35 198.89 C 179.38 199.75 180.10 200.43 180.96 200.41 C 181.82 200.38 182.50 199.66 182.47 198.80 Z M 182.45 197.84 L 182.43 196.89 C 182.42 196.03 181.70 195.34 180.84 195.36 C 179.98 195.37 179.29 196.08 179.31 196.95 L 179.33 197.90 C 179.34 198.76 180.05 199.45 180.91 199.43 C 181.78 199.42 182.46 198.71 182.45 197.84 Z M 182.43 196.90 L 182.42 195.93 C 182.41 195.07 181.70 194.38 180.84 194.39 C 179.98 194.40 179.29 195.10 179.30 195.96 L 179.31 196.93 C 179.32 197.80 180.03 198.49 180.89 198.48 C 181.75 198.47 182.44 197.76 182.43 196.90 Z M 182.42 195.93 L 182.41 194.89 C 182.40 194.03 181.70 193.34 180.84 193.35 C 179.97 193.36 179.28 194.06 179.29 194.92 L 179.30 195.96 C 179.31 196.82 180.01 197.52 180.87 197.51 C 181.74 197.50 182.43 196.79 182.42 195.93 Z M 182.41 194.89 L 182.40 193.93 C 182.39 193.07 181.68 192.37 180.82 192.38 C 179.96 192.39 179.27 193.10 179.28 193.96 L 179.29 194.93 C 179.30 195.79 180.00 196.48 180.87 196.47 C 181.73 196.46 182.42 195.75 182.41 194.89 Z M 182.40 193.92 L 182.39 193.04 C 182.38 192.17 181.67 191.49 180.80 191.50 C 179.94 191.51 179.25 192.22 179.27 193.08 L 179.28 193.97 C 179.29 194.83 180.00 195.52 180.86 195.51 C 181.72 195.49 182.41 194.78 182.40 193.92 Z M 182.39 193.03 L 182.37 192.08 C 182.35 191.22 181.64 190.53 180.78 190.55 C 179.92 190.57 179.23 191.28 179.25 192.14 L 179.27 193.09 C 179.28 193.95 179.99 194.64 180.86 194.62 C 181.72 194.60 182.40 193.89 182.39 193.03 Z M 182.37 192.07 L 182.35 191.07 C 182.33 190.21 181.61 189.52 180.75 189.54 C 179.89 189.56 179.20 190.28 179.22 191.14 L 179.25 192.15 C 179.27 193.01 179.98 193.69 180.85 193.67 C 181.71 193.65 182.39 192.93 182.37 192.07 Z M 182.35 191.06 L 182.31 190.00 C 182.29 189.14 181.57 188.46 180.71 188.49 C 179.84 188.51 179.17 189.23 179.19 190.09 L 179.22 191.15 C 179.25 192.01 179.97 192.69 180.83 192.67 C 181.69 192.64 182.37 191.92 182.35 191.06 Z M 182.31 189.99 L 182.27 188.89 C 182.24 188.02 181.52 187.35 180.65 187.38 C 179.79 187.42 179.12 188.14 179.15 189.00 L 179.19 190.11 C 179.23 190.97 179.95 191.64 180.81 191.61 C 181.67 191.58 182.35 190.85 182.31 189.99 Z M 182.27 188.87 L 182.22 187.79 C 182.18 186.93 181.45 186.26 180.59 186.30 C 179.73 186.34 179.06 187.07 179.10 187.93 L 179.15 189.01 C 179.19 189.88 179.92 190.54 180.78 190.50 C 181.64 190.46 182.31 189.73 182.27 188.87 Z M 182.22 187.78 L 182.17 186.77 C 182.12 185.91 181.39 185.25 180.53 185.29 C 179.67 185.34 179.01 186.07 179.05 186.93 L 179.10 187.94 C 179.15 188.80 179.88 189.46 180.74 189.42 C 181.61 189.37 182.27 188.64 182.22 187.78 Z M 182.17 186.76 L 182.11 185.74 C 182.06 184.88 181.32 184.22 180.46 184.27 C 179.60 184.32 178.94 185.06 178.99 185.92 L 179.05 186.94 C 179.10 187.81 179.84 188.46 180.70 188.41 C 181.56 188.36 182.22 187.62 182.17 186.76 Z M 182.11 185.73 L 182.04 184.70 C 181.98 183.84 181.24 183.19 180.38 183.25 C 179.52 183.30 178.87 184.05 178.92 184.91 L 178.99 185.93 C 179.05 186.79 179.79 187.44 180.65 187.39 C 181.51 187.33 182.16 186.59 182.11 185.73 Z M 182.04 184.69 L 181.96 183.67 C 181.90 182.81 181.15 182.17 180.29 182.23 C 179.43 182.30 178.79 183.04 178.85 183.90 L 178.92 184.92 C 178.99 185.78 179.74 186.43 180.60 186.36 C 181.46 186.30 182.10 185.55 182.04 184.69 Z M 181.96 183.66 L 181.88 182.66 C 181.81 181.80 181.06 181.17 180.20 181.24 C 179.34 181.31 178.70 182.06 178.77 182.92 L 178.85 183.92 C 178.92 184.77 179.67 185.41 180.53 185.34 C 181.39 185.27 182.03 184.52 181.96 183.66 Z M 181.88 182.65 L 181.79 181.68 C 181.72 180.82 180.96 180.19 180.10 180.27 C 179.24 180.35 178.61 181.10 178.68 181.96 L 178.77 182.93 C 178.85 183.79 179.61 184.42 180.46 184.35 C 181.32 184.27 181.96 183.51 181.88 182.65 Z M 181.79 181.67 L 181.69 180.69 C 181.61 179.83 180.84 179.21 179.98 179.29 C 179.13 179.38 178.50 180.15 178.59 181.00 L 178.68 181.98 C 178.77 182.84 179.54 183.46 180.39 183.38 C 181.25 183.29 181.88 182.53 181.79 181.67 Z M 181.69 180.67 L 181.57 179.57 C 181.47 178.71 180.70 178.10 179.84 178.20 C 178.98 178.29 178.37 179.07 178.46 179.92 L 178.59 181.02 C 178.69 181.88 179.46 182.50 180.32 182.40 C 181.17 182.30 181.79 181.53 181.69 180.67 Z M 181.56 179.55 L 181.43 178.51 C 181.32 177.66 180.54 177.05 179.68 177.16 C 178.83 177.27 178.22 178.05 178.33 178.91 L 178.47 179.95 C 178.58 180.80 179.36 181.40 180.21 181.30 C 181.07 181.19 181.67 180.40 181.56 179.55 Z M 181.43 178.49 L 181.29 177.51 C 181.16 176.65 180.37 176.06 179.52 176.18 C 178.66 176.31 178.07 177.10 178.20 177.95 L 178.34 178.93 C 178.46 179.79 179.25 180.38 180.11 180.26 C 180.96 180.13 181.55 179.34 181.43 178.49 Z M 181.28 177.48 L 181.13 176.54 C 180.99 175.69 180.19 175.11 179.34 175.25 C 178.49 175.39 177.91 176.19 178.05 177.04 L 178.20 177.98 C 178.34 178.83 179.14 179.41 179.99 179.27 C 180.84 179.13 181.42 178.33 181.28 177.48 Z M 181.13 176.52 L 180.96 175.61 C 180.81 174.76 180.00 174.20 179.15 174.35 C 178.30 174.50 177.74 175.31 177.89 176.16 L 178.05 177.07 C 178.20 177.91 179.02 178.48 179.86 178.33 C 180.71 178.18 181.28 177.36 181.13 176.52 Z M 180.96 175.58 L 180.77 174.62 C 180.60 173.78 179.78 173.23 178.94 173.39 C 178.09 173.56 177.54 174.38 177.71 175.23 L 177.89 176.19 C 178.06 177.03 178.88 177.58 179.73 177.42 C 180.57 177.25 181.12 176.43 180.96 175.58 Z M 180.76 174.60 L 180.55 173.59 C 180.37 172.75 179.54 172.21 178.69 172.39 C 177.85 172.57 177.31 173.40 177.50 174.25 L 177.71 175.25 C 177.89 176.10 178.72 176.63 179.57 176.45 C 180.41 176.27 180.95 175.44 180.76 174.60 Z M 180.54 173.56 L 180.31 172.58 C 180.12 171.74 179.28 171.22 178.44 171.41 C 177.60 171.61 177.08 172.45 177.27 173.29 L 177.50 174.27 C 177.70 175.11 178.54 175.63 179.38 175.44 C 180.22 175.24 180.74 174.40 180.54 173.56 Z M 180.31 172.55 L 180.07 171.59 C 179.85 170.76 179.01 170.25 178.17 170.46 C 177.33 170.67 176.83 171.52 177.04 172.36 L 177.28 173.31 C 177.49 174.15 178.34 174.66 179.17 174.45 C 180.01 174.24 180.52 173.39 180.31 172.55 Z M 180.06 171.57 L 179.81 170.64 C 179.58 169.81 178.73 169.31 177.89 169.54 C 177.06 169.76 176.57 170.62 176.79 171.45 L 177.04 172.38 C 177.27 173.21 178.12 173.71 178.96 173.48 C 179.79 173.26 180.28 172.40 180.06 171.57 Z M 179.80 170.61 L 179.52 169.64 C 179.28 168.81 178.42 168.33 177.59 168.57 C 176.76 168.81 176.28 169.67 176.52 170.50 L 176.80 171.47 C 177.04 172.30 177.90 172.78 178.73 172.54 C 179.56 172.31 180.04 171.44 179.80 170.61 Z M 179.51 169.61 L 179.21 168.63 C 178.96 167.81 178.09 167.34 177.26 167.59 C 176.44 167.85 175.97 168.72 176.23 169.55 L 176.53 170.53 C 176.78 171.35 177.65 171.81 178.48 171.56 C 179.30 171.31 179.77 170.44 179.51 169.61 Z M 179.20 168.60 L 178.89 167.65 C 178.62 166.83 177.74 166.39 176.92 166.65 C 176.10 166.92 175.66 167.81 175.92 168.62 L 176.24 169.57 C 176.50 170.39 177.39 170.84 178.21 170.57 C 179.03 170.30 179.47 169.42 179.20 168.60 Z M 178.88 167.62 L 178.56 166.70 C 178.27 165.89 177.38 165.46 176.57 165.75 C 175.76 166.03 175.33 166.92 175.61 167.74 L 175.93 168.65 C 176.22 169.47 177.11 169.90 177.92 169.61 C 178.74 169.33 179.17 168.44 178.88 167.62 Z M 178.55 166.67 L 178.20 165.75 C 177.90 164.95 177.00 164.54 176.19 164.84 C 175.39 165.14 174.98 166.04 175.28 166.85 L 175.62 167.77 C 175.93 168.57 176.83 168.98 177.63 168.68 C 178.44 168.38 178.85 167.48 178.55 166.67 Z M 178.19 165.72 L 177.81 164.77 C 177.49 163.97 176.58 163.58 175.78 163.90 C 174.98 164.22 174.59 165.13 174.91 165.93 L 175.29 166.88 C 175.61 167.68 176.52 168.07 177.32 167.75 C 178.12 167.43 178.51 166.52 178.19 165.72 Z M 177.80 164.74 L 177.41 163.82 C 177.07 163.03 176.16 162.65 175.36 162.99 C 174.57 163.33 174.20 164.24 174.53 165.04 L 174.92 165.96 C 175.26 166.75 176.18 167.12 176.97 166.79 C 177.76 166.45 178.14 165.54 177.80 164.74 Z M 177.40 163.80 L 177.00 162.90 C 176.65 162.11 175.73 161.75 174.94 162.10 C 174.15 162.45 173.80 163.37 174.15 164.16 L 174.54 165.06 C 174.89 165.85 175.81 166.20 176.60 165.86 C 177.39 165.51 177.75 164.58 177.40 163.80 Z M 176.99 162.88 L 176.58 161.98 C 176.22 161.20 175.30 160.85 174.51 161.21 C 173.73 161.57 173.38 162.50 173.74 163.28 L 174.15 164.18 C 174.51 164.96 175.44 165.31 176.22 164.95 C 177.01 164.59 177.35 163.66 176.99 162.88 Z M 176.57 161.97 L 176.14 161.05 C 175.78 160.27 174.85 159.94 174.07 160.30 C 173.29 160.67 172.95 161.60 173.32 162.38 L 173.75 163.30 C 174.12 164.08 175.05 164.41 175.83 164.04 C 176.61 163.68 176.94 162.75 176.57 161.97 Z M 176.14 161.04 L 175.70 160.14 C 175.33 159.36 174.39 159.04 173.62 159.41 C 172.84 159.79 172.52 160.72 172.89 161.50 L 173.33 162.40 C 173.70 163.17 174.64 163.50 175.41 163.12 C 176.19 162.75 176.51 161.81 176.14 161.04 Z M 175.69 160.12 L 175.25 159.24 C 174.87 158.47 173.93 158.15 173.16 158.54 C 172.39 158.92 172.07 159.86 172.46 160.63 L 172.90 161.52 C 173.28 162.29 174.22 162.60 174.99 162.22 C 175.76 161.83 176.08 160.89 175.69 160.12 Z M 175.24 159.22 L 174.79 158.34 C 174.40 157.57 173.46 157.27 172.69 157.66 C 171.92 158.05 171.62 158.99 172.01 159.76 L 172.47 160.65 C 172.86 161.41 173.80 161.72 174.57 161.32 C 175.33 160.93 175.64 159.99 175.24 159.22 Z M 174.78 158.33 L 174.32 157.44 C 173.92 156.68 172.98 156.38 172.22 156.78 C 171.45 157.18 171.16 158.12 171.55 158.89 L 172.02 159.77 C 172.42 160.54 173.36 160.83 174.12 160.43 C 174.89 160.03 175.18 159.09 174.78 158.33 Z M 174.32 157.44 L 173.86 156.55 C 173.46 155.79 172.51 155.49 171.75 155.89 C 170.99 156.29 170.69 157.24 171.09 158.00 L 171.56 158.89 C 171.96 159.65 172.90 159.95 173.66 159.55 C 174.43 159.15 174.72 158.20 174.32 157.44 Z M 173.86 156.56 L 173.40 155.67 C 173.01 154.91 172.06 154.61 171.30 155.00 C 170.53 155.40 170.23 156.34 170.63 157.11 L 171.09 157.99 C 171.48 158.76 172.43 159.06 173.19 158.66 C 173.96 158.27 174.26 157.33 173.86 156.56 Z M 173.41 155.69 L 172.96 154.80 C 172.57 154.03 171.63 153.72 170.86 154.11 C 170.09 154.50 169.79 155.43 170.17 156.20 L 170.62 157.09 C 171.01 157.86 171.95 158.17 172.72 157.78 C 173.49 157.39 173.80 156.46 173.41 155.69 Z M 172.97 154.81 L 172.52 153.91 C 172.14 153.14 171.20 152.82 170.43 153.21 C 169.66 153.59 169.34 154.53 169.73 155.30 L 170.17 156.20 C 170.55 156.97 171.49 157.28 172.26 156.90 C 173.03 156.52 173.35 155.58 172.97 154.81 Z M 172.52 153.91 L 172.08 153.01 C 171.69 152.24 170.76 151.93 169.99 152.31 C 169.21 152.69 168.90 153.63 169.28 154.40 L 169.72 155.30 C 170.11 156.07 171.04 156.39 171.82 156.01 C 172.59 155.62 172.91 154.69 172.52 153.91 Z M 172.07 153.01 L 171.63 152.11 C 171.24 151.34 170.30 151.03 169.53 151.41 C 168.76 151.80 168.45 152.74 168.83 153.51 L 169.28 154.41 C 169.67 155.18 170.61 155.49 171.38 155.10 C 172.15 154.72 172.46 153.78 172.07 153.01 Z M 171.62 152.10 L 171.17 151.21 C 170.77 150.45 169.83 150.14 169.07 150.53 C 168.30 150.93 167.99 151.87 168.39 152.63 L 168.84 153.52 C 169.23 154.29 170.17 154.59 170.94 154.20 C 171.71 153.81 172.01 152.87 171.62 152.10 Z M 171.16 151.20 L 170.69 150.31 C 170.29 149.55 169.35 149.26 168.58 149.66 C 167.82 150.06 167.53 151.00 167.93 151.77 L 168.40 152.65 C 168.80 153.41 169.74 153.71 170.50 153.30 C 171.27 152.90 171.56 151.96 171.16 151.20 Z M 170.68 150.29 L 170.20 149.41 C 169.78 148.65 168.83 148.38 168.08 148.79 C 167.32 149.21 167.04 150.15 167.46 150.91 L 167.94 151.79 C 168.36 152.55 169.31 152.82 170.06 152.41 C 170.82 151.99 171.09 151.04 170.68 150.29 Z M 170.18 149.38 L 169.67 148.50 C 169.24 147.76 168.29 147.50 167.54 147.93 C 166.79 148.36 166.54 149.31 166.97 150.06 L 167.48 150.94 C 167.91 151.69 168.86 151.94 169.61 151.51 C 170.35 151.08 170.61 150.13 170.18 149.38 Z M 169.66 148.47 L 169.13 147.61 C 168.68 146.87 167.72 146.63 166.99 147.08 C 166.25 147.53 166.01 148.49 166.46 149.22 L 166.99 150.09 C 167.43 150.83 168.39 151.06 169.13 150.62 C 169.87 150.17 170.10 149.21 169.66 148.47 Z M 169.11 147.58 L 168.58 146.73 C 168.11 146.01 167.15 145.79 166.42 146.25 C 165.69 146.72 165.48 147.68 165.94 148.41 L 166.48 149.25 C 166.94 149.98 167.91 150.20 168.63 149.73 C 169.36 149.27 169.58 148.31 169.11 147.58 Z M 168.56 146.71 L 168.02 145.89 C 167.54 145.18 166.57 144.98 165.85 145.46 C 165.14 145.94 164.94 146.90 165.42 147.62 L 165.96 148.44 C 166.44 149.15 167.41 149.35 168.12 148.87 C 168.84 148.39 169.04 147.42 168.56 146.71 Z M 168.00 145.86 L 167.41 145.02 C 166.92 144.31 165.94 144.14 165.24 144.63 C 164.53 145.12 164.36 146.10 164.85 146.81 L 165.44 147.65 C 165.93 148.36 166.90 148.53 167.61 148.04 C 168.32 147.55 168.49 146.57 168.00 145.86 Z M 167.39 144.99 L 166.79 144.18 C 166.28 143.49 165.31 143.34 164.61 143.85 C 163.92 144.36 163.77 145.33 164.28 146.03 L 164.87 146.84 C 165.38 147.53 166.36 147.68 167.05 147.17 C 167.75 146.66 167.90 145.68 167.39 144.99 Z M 166.77 144.15 L 166.17 143.37 C 165.64 142.69 164.66 142.57 163.98 143.10 C 163.30 143.63 163.17 144.61 163.70 145.29 L 164.30 146.06 C 164.83 146.74 165.81 146.87 166.49 146.34 C 167.17 145.81 167.30 144.83 166.77 144.15 Z M 166.14 143.34 L 165.55 142.61 C 165.00 141.95 164.02 141.85 163.35 142.40 C 162.68 142.94 162.59 143.93 163.13 144.59 L 163.73 145.32 C 164.28 145.99 165.26 146.09 165.93 145.54 C 166.59 144.99 166.69 144.01 166.14 143.34 Z M 165.50 142.56 L 164.88 141.86 C 164.30 141.22 163.32 141.16 162.67 141.74 C 162.03 142.31 161.97 143.30 162.55 143.94 L 163.18 144.64 C 163.75 145.29 164.74 145.34 165.38 144.77 C 166.02 144.19 166.08 143.21 165.50 142.56 Z M 164.81 141.79 L 164.10 141.08 C 163.48 140.48 162.49 140.48 161.89 141.10 C 161.28 141.71 161.29 142.70 161.90 143.30 L 162.62 144.01 C 163.23 144.62 164.22 144.61 164.82 144.00 C 165.43 143.39 165.42 142.40 164.81 141.79 Z M 164.02 141.01 L 163.19 140.30 C 162.53 139.74 161.55 139.81 160.99 140.47 C 160.42 141.12 160.50 142.11 161.15 142.67 L 161.98 143.38 C 162.64 143.94 163.62 143.87 164.18 143.21 C 164.74 142.56 164.67 141.57 164.02 141.01 Z M 163.11 140.24 L 162.33 139.65 C 161.65 139.13 160.67 139.26 160.15 139.95 C 159.62 140.63 159.76 141.61 160.44 142.13 L 161.23 142.73 C 161.91 143.25 162.89 143.11 163.41 142.43 C 163.94 141.74 163.80 140.76 163.11 140.24 Z M 162.28 139.61 L 161.43 139.02 C 160.72 138.53 159.75 138.71 159.26 139.42 C 158.77 140.13 158.95 141.10 159.65 141.59 L 160.50 142.17 C 161.21 142.66 162.18 142.49 162.67 141.78 C 163.16 141.07 162.99 140.10 162.28 139.61 Z M 161.38 138.98 L 160.51 138.43 C 159.78 137.97 158.81 138.19 158.35 138.92 C 157.89 139.65 158.11 140.61 158.84 141.07 L 159.71 141.62 C 160.44 142.08 161.40 141.87 161.86 141.14 C 162.32 140.41 162.11 139.45 161.38 138.98 Z M 160.45 138.40 L 159.59 137.91 C 158.84 137.48 157.89 137.74 157.46 138.49 C 157.03 139.24 157.29 140.19 158.04 140.62 L 158.90 141.11 C 159.64 141.54 160.60 141.28 161.03 140.53 C 161.45 139.78 161.19 138.83 160.45 138.40 Z M 159.51 137.87 L 158.56 137.39 C 157.79 137.01 156.85 137.33 156.47 138.10 C 156.08 138.87 156.40 139.81 157.17 140.19 L 158.12 140.66 C 158.90 141.05 159.83 140.73 160.22 139.96 C 160.60 139.18 160.28 138.25 159.51 137.87 Z M 158.44 137.34 L 157.50 136.97 C 156.70 136.65 155.79 137.05 155.47 137.85 C 155.16 138.65 155.55 139.56 156.35 139.87 L 157.29 140.25 C 158.09 140.56 159.00 140.17 159.32 139.37 C 159.63 138.57 159.24 137.66 158.44 137.34 Z M 157.36 136.92 L 156.45 136.66 C 155.62 136.42 154.76 136.89 154.52 137.72 C 154.27 138.55 154.75 139.41 155.58 139.66 L 156.49 139.92 C 157.32 140.16 158.18 139.69 158.42 138.86 C 158.66 138.03 158.19 137.16 157.36 136.92 Z M 156.33 136.63 L 155.40 136.44 C 154.55 136.27 153.73 136.81 153.56 137.66 C 153.39 138.50 153.93 139.33 154.78 139.50 L 155.70 139.69 C 156.55 139.86 157.37 139.31 157.54 138.47 C 157.72 137.62 157.17 136.80 156.33 136.63 Z M 155.30 136.42 L 154.34 136.29 C 153.48 136.17 152.70 136.77 152.58 137.62 C 152.46 138.48 153.06 139.26 153.91 139.38 L 154.87 139.51 C 155.73 139.63 156.52 139.04 156.63 138.18 C 156.75 137.33 156.16 136.54 155.30 136.42 Z M 154.25 136.28 L 153.25 136.20 C 152.39 136.13 151.64 136.76 151.57 137.62 C 151.50 138.48 152.14 139.24 152.99 139.31 L 154.00 139.39 C 154.86 139.46 155.61 138.82 155.68 137.96 C 155.75 137.11 155.11 136.35 154.25 136.28 Z M 153.18 136.19 L 152.15 136.16 C 151.29 136.13 150.57 136.80 150.54 137.66 C 150.51 138.53 151.18 139.25 152.04 139.28 L 153.07 139.31 C 153.93 139.34 154.65 138.67 154.68 137.81 C 154.71 136.94 154.04 136.22 153.18 136.19 Z M 152.08 136.16 L 151.05 136.17 C 150.19 136.18 149.50 136.89 149.51 137.75 C 149.52 138.61 150.22 139.30 151.09 139.29 L 152.12 139.28 C 152.98 139.27 153.67 138.56 153.66 137.70 C 153.65 136.84 152.94 136.15 152.08 136.16 Z M 150.96 136.17 L 149.94 136.24 C 149.08 136.30 148.43 137.05 148.49 137.91 C 148.55 138.77 149.30 139.42 150.16 139.36 L 151.17 139.29 C 152.03 139.23 152.68 138.48 152.62 137.62 C 152.57 136.76 151.82 136.11 150.96 136.17 Z M 149.82 136.26 L 148.84 136.40 C 147.99 136.53 147.40 137.32 147.52 138.17 C 147.65 139.03 148.44 139.62 149.30 139.49 L 150.28 139.35 C 151.13 139.22 151.72 138.43 151.59 137.57 C 151.47 136.72 150.67 136.13 149.82 136.26 Z M 148.68 136.43 L 147.74 136.68 C 146.90 136.89 146.40 137.74 146.62 138.58 C 146.83 139.41 147.68 139.91 148.52 139.70 L 149.46 139.46 C 150.29 139.24 150.80 138.39 150.58 137.56 C 150.36 136.72 149.51 136.22 148.68 136.43 Z M 147.54 136.74 L 146.61 137.12 C 145.82 137.44 145.43 138.35 145.75 139.15 C 146.08 139.95 146.99 140.33 147.79 140.01 L 148.71 139.64 C 149.51 139.31 149.90 138.40 149.58 137.60 C 149.25 136.80 148.34 136.42 147.54 136.74 Z M 146.45 137.19 L 145.58 137.67 C 144.83 138.08 144.55 139.03 144.96 139.79 C 145.38 140.54 146.33 140.82 147.08 140.41 L 147.95 139.93 C 148.71 139.52 148.98 138.57 148.57 137.81 C 148.16 137.06 147.21 136.78 146.45 137.19 Z M 145.47 137.73 L 144.64 138.29 C 143.92 138.76 143.72 139.73 144.19 140.45 C 144.67 141.17 145.64 141.37 146.36 140.89 L 147.19 140.34 C 147.91 139.87 148.11 138.90 147.64 138.18 C 147.16 137.46 146.19 137.26 145.47 137.73 Z M 144.58 138.33 L 143.80 138.89 C 143.11 139.40 142.95 140.38 143.46 141.08 C 143.97 141.77 144.95 141.92 145.64 141.41 L 146.42 140.85 C 147.12 140.34 147.27 139.36 146.76 138.67 C 146.25 137.97 145.27 137.82 144.58 138.33 Z M 143.75 138.93 L 142.98 139.55 C 142.30 140.08 142.19 141.06 142.72 141.74 C 143.26 142.41 144.24 142.53 144.92 141.99 L 145.69 141.38 C 146.37 140.84 146.48 139.86 145.95 139.19 C 145.41 138.51 144.43 138.40 143.75 138.93 Z M 142.93 139.58 L 142.15 140.25 C 141.50 140.81 141.42 141.79 141.98 142.45 C 142.53 143.10 143.52 143.18 144.18 142.62 L 144.96 141.96 C 145.62 141.40 145.69 140.41 145.14 139.76 C 144.58 139.10 143.59 139.02 142.93 139.58 Z M 142.11 140.28 L 141.36 140.97 C 140.72 141.55 140.67 142.54 141.25 143.17 C 141.83 143.81 142.82 143.86 143.46 143.28 L 144.21 142.59 C 144.85 142.01 144.90 141.02 144.32 140.39 C 143.74 139.75 142.75 139.70 142.11 140.28 Z M 141.33 141.00 L 140.59 141.70 C 139.97 142.29 139.95 143.28 140.54 143.90 C 141.14 144.53 142.13 144.55 142.75 143.95 L 143.48 143.25 C 144.11 142.66 144.13 141.67 143.54 141.05 C 142.94 140.42 141.95 140.40 141.33 141.00 Z M 140.57 141.72 L 139.86 142.43 C 139.24 143.03 139.24 144.02 139.84 144.63 C 140.45 145.25 141.44 145.25 142.05 144.65 L 142.77 143.93 C 143.38 143.33 143.39 142.34 142.78 141.73 C 142.17 141.11 141.19 141.11 140.57 141.72 Z M 139.84 142.44 L 139.15 143.14 C 138.55 143.75 138.56 144.74 139.17 145.35 C 139.79 145.95 140.77 145.94 141.38 145.33 L 142.07 144.63 C 142.67 144.02 142.66 143.03 142.05 142.42 C 141.43 141.82 140.45 141.83 139.84 142.44 Z M 139.14 143.15 L 138.43 143.88 C 137.83 144.50 137.85 145.49 138.47 146.09 C 139.09 146.69 140.08 146.67 140.68 146.05 L 141.39 145.32 C 141.99 144.70 141.97 143.71 141.35 143.11 C 140.73 142.51 139.74 142.53 139.14 143.15 Z M 138.43 143.89 L 137.74 144.61 C 137.15 145.23 137.17 146.22 137.80 146.82 C 138.42 147.41 139.41 147.39 140.01 146.76 L 140.69 146.04 C 141.28 145.42 141.26 144.43 140.63 143.84 C 140.01 143.24 139.02 143.27 138.43 143.89 Z M 137.73 144.62 L 137.06 145.34 C 136.47 145.97 136.51 146.95 137.14 147.54 C 137.77 148.13 138.75 148.10 139.34 147.47 L 140.01 146.75 C 140.60 146.12 140.57 145.13 139.94 144.55 C 139.31 143.96 138.32 143.99 137.73 144.62 Z M 137.06 145.34 L 136.42 146.03 C 135.84 146.67 135.87 147.65 136.51 148.24 C 137.14 148.82 138.13 148.78 138.71 148.15 L 139.35 147.46 C 139.93 146.83 139.90 145.84 139.26 145.26 C 138.63 144.67 137.64 144.71 137.06 145.34 Z M 136.41 146.04 L 135.78 146.73 C 135.20 147.37 135.25 148.35 135.88 148.93 C 136.52 149.52 137.51 149.47 138.09 148.83 L 138.72 148.14 C 139.30 147.51 139.26 146.52 138.62 145.94 C 137.98 145.36 137.00 145.40 136.41 146.04 Z M 135.78 146.74 L 135.10 147.48 C 134.53 148.12 134.58 149.11 135.22 149.69 C 135.86 150.26 136.85 150.21 137.42 149.57 L 138.10 148.83 C 138.67 148.19 138.62 147.20 137.98 146.62 C 137.34 146.04 136.35 146.10 135.78 146.74 Z M 135.10 147.49 L 134.37 148.31 C 133.80 148.95 133.85 149.94 134.50 150.51 C 135.14 151.09 136.13 151.03 136.70 150.38 L 137.43 149.57 C 138.00 148.92 137.95 147.93 137.30 147.36 C 136.66 146.79 135.67 146.85 135.10 147.49 Z M 134.36 148.32 L 133.70 149.07 C 133.14 149.72 133.20 150.70 133.85 151.27 C 134.49 151.84 135.48 151.78 136.05 151.13 L 136.71 150.38 C 137.28 149.73 137.21 148.74 136.57 148.17 C 135.92 147.60 134.93 147.67 134.36 148.32 Z M 133.70 149.07 L 133.04 149.83 C 132.47 150.49 132.54 151.47 133.19 152.04 C 133.84 152.60 134.83 152.53 135.39 151.88 L 136.06 151.12 C 136.62 150.47 136.55 149.48 135.90 148.92 C 135.25 148.35 134.26 148.42 133.70 149.07 Z M 133.03 149.84 L 132.36 150.62 C 131.80 151.28 131.88 152.26 132.53 152.82 C 133.19 153.38 134.17 153.31 134.73 152.65 L 135.40 151.88 C 135.96 151.22 135.89 150.24 135.23 149.67 C 134.58 149.11 133.59 149.19 133.03 149.84 Z M 132.36 150.63 L 131.70 151.40 C 131.14 152.06 131.23 153.05 131.88 153.61 C 132.54 154.16 133.53 154.08 134.08 153.42 L 134.74 152.65 C 135.30 151.99 135.21 151.00 134.56 150.45 C 133.90 149.89 132.91 149.97 132.36 150.63 Z M 131.69 151.42 L 131.06 152.18 C 130.50 152.84 130.60 153.83 131.26 154.38 C 131.92 154.93 132.91 154.84 133.46 154.18 L 134.09 153.41 C 134.64 152.75 134.55 151.76 133.89 151.21 C 133.23 150.66 132.24 150.75 131.69 151.42 Z M 131.04 152.20 L 130.36 153.04 C 129.82 153.71 129.92 154.69 130.59 155.24 C 131.26 155.78 132.24 155.67 132.79 155.00 L 133.47 154.16 C 134.01 153.49 133.91 152.51 133.24 151.96 C 132.57 151.42 131.58 151.53 131.04 152.20 Z M 130.34 153.06 L 129.72 153.86 C 129.19 154.53 129.31 155.52 129.99 156.05 C 130.67 156.58 131.65 156.46 132.18 155.78 L 132.80 154.98 C 133.33 154.30 133.21 153.32 132.53 152.79 C 131.85 152.26 130.87 152.38 130.34 153.06 Z M 129.70 153.88 L 129.13 154.64 C 128.61 155.33 128.75 156.31 129.44 156.83 C 130.13 157.35 131.11 157.21 131.63 156.52 L 132.20 155.75 C 132.72 155.06 132.58 154.08 131.89 153.57 C 131.20 153.05 130.22 153.19 129.70 153.88 Z M 129.11 154.67 L 128.57 155.43 C 128.06 156.13 128.23 157.11 128.93 157.61 C 129.63 158.11 130.60 157.95 131.11 157.25 L 131.65 156.49 C 132.15 155.79 131.99 154.81 131.29 154.31 C 130.59 153.81 129.61 153.97 129.11 154.67 Z M 128.54 155.46 L 127.99 156.28 C 127.51 156.99 127.69 157.96 128.41 158.45 C 129.12 158.93 130.09 158.75 130.57 158.03 L 131.13 157.22 C 131.61 156.50 131.43 155.53 130.71 155.05 C 130.00 154.56 129.03 154.75 128.54 155.46 Z M 127.96 156.32 L 127.43 157.16 C 126.97 157.89 127.19 158.85 127.92 159.31 C 128.65 159.77 129.61 159.56 130.07 158.83 L 130.60 157.99 C 131.06 157.26 130.85 156.30 130.12 155.84 C 129.39 155.38 128.42 155.59 127.96 156.32 Z M 127.41 157.20 L 126.90 158.08 C 126.46 158.82 126.71 159.78 127.46 160.21 C 128.20 160.65 129.16 160.40 129.59 159.65 L 130.10 158.78 C 130.54 158.03 130.29 157.08 129.54 156.64 C 128.80 156.21 127.84 156.46 127.41 157.20 Z M 126.87 158.13 L 126.42 158.96 C 126.02 159.72 126.30 160.66 127.06 161.07 C 127.82 161.48 128.77 161.19 129.18 160.43 L 129.62 159.60 C 130.03 158.84 129.74 157.90 128.98 157.49 C 128.22 157.08 127.28 157.37 126.87 158.13 Z M 126.40 159.00 L 125.99 159.82 C 125.61 160.60 125.93 161.53 126.70 161.92 C 127.48 162.30 128.41 161.98 128.79 161.21 L 129.20 160.39 C 129.58 159.61 129.26 158.68 128.49 158.29 C 127.72 157.91 126.78 158.23 126.40 159.00 Z M 125.97 159.87 L 125.57 160.76 C 125.21 161.55 125.55 162.47 126.34 162.83 C 127.12 163.19 128.05 162.84 128.41 162.06 L 128.81 161.16 C 129.17 160.38 128.83 159.45 128.04 159.09 C 127.26 158.74 126.33 159.08 125.97 159.87 Z M 125.55 160.80 L 125.13 161.79 C 124.80 162.58 125.17 163.50 125.97 163.83 C 126.76 164.16 127.68 163.79 128.01 163.00 L 128.43 162.01 C 128.76 161.22 128.39 160.30 127.59 159.97 C 126.80 159.64 125.88 160.01 125.55 160.80 Z M 125.12 161.82 L 124.72 162.84 C 124.41 163.64 124.80 164.55 125.61 164.86 C 126.41 165.18 127.31 164.78 127.63 163.98 L 128.03 162.96 C 128.34 162.16 127.94 161.25 127.14 160.94 C 126.34 160.62 125.43 161.02 125.12 161.82 Z M 124.71 162.87 L 124.37 163.78 C 124.07 164.59 124.49 165.49 125.30 165.79 C 126.11 166.09 127.00 165.67 127.30 164.86 L 127.64 163.95 C 127.94 163.14 127.52 162.24 126.72 161.94 C 125.91 161.65 125.01 162.06 124.71 162.87 Z M 124.36 163.81 L 124.03 164.76 C 123.74 165.57 124.17 166.47 124.98 166.75 C 125.80 167.04 126.69 166.61 126.97 165.80 L 127.31 164.84 C 127.60 164.03 127.17 163.14 126.36 162.85 C 125.54 162.56 124.65 162.99 124.36 163.81 Z M 124.02 164.78 L 123.69 165.76 C 123.42 166.58 123.86 167.46 124.68 167.74 C 125.49 168.01 126.38 167.57 126.65 166.75 L 126.98 165.78 C 127.26 164.96 126.82 164.07 126.00 163.80 C 125.18 163.53 124.30 163.97 124.02 164.78 Z M 123.69 165.78 L 123.38 166.75 C 123.11 167.58 123.57 168.45 124.39 168.72 C 125.21 168.98 126.09 168.53 126.35 167.70 L 126.66 166.73 C 126.92 165.91 126.47 165.03 125.65 164.77 C 124.83 164.51 123.95 164.96 123.69 165.78 Z M 123.37 166.78 L 123.08 167.73 C 122.83 168.55 123.30 169.42 124.12 169.67 C 124.95 169.92 125.82 169.45 126.07 168.63 L 126.36 167.68 C 126.61 166.86 126.14 165.98 125.31 165.74 C 124.49 165.49 123.62 165.95 123.37 166.78 Z M 123.07 167.75 L 122.80 168.71 C 122.57 169.54 123.05 170.41 123.88 170.64 C 124.71 170.87 125.57 170.39 125.81 169.56 L 126.08 168.60 C 126.31 167.77 125.83 166.91 125.00 166.67 C 124.17 166.44 123.31 166.92 123.07 167.75 Z M 122.79 168.75 L 122.55 169.70 C 122.34 170.53 122.84 171.38 123.68 171.60 C 124.51 171.81 125.36 171.30 125.58 170.47 L 125.82 169.52 C 126.03 168.69 125.53 167.84 124.69 167.63 C 123.86 167.41 123.01 167.92 122.79 168.75 Z M 122.54 169.74 L 122.33 170.67 C 122.14 171.51 122.67 172.35 123.51 172.54 C 124.35 172.73 125.18 172.20 125.37 171.36 L 125.59 170.43 C 125.78 169.59 125.25 168.75 124.41 168.56 C 123.57 168.37 122.73 168.90 122.54 169.74 Z M 122.32 170.72 L 122.13 171.68 C 121.96 172.52 122.51 173.34 123.36 173.51 C 124.21 173.68 125.03 173.13 125.19 172.28 L 125.38 171.32 C 125.55 170.48 125.00 169.65 124.15 169.49 C 123.31 169.32 122.49 169.87 122.32 170.72 Z M 122.12 171.72 L 121.95 172.74 C 121.80 173.59 122.37 174.39 123.22 174.54 C 124.07 174.69 124.88 174.11 125.03 173.26 L 125.20 172.24 C 125.35 171.39 124.78 170.59 123.93 170.44 C 123.08 170.30 122.27 170.87 122.12 171.72 Z M 121.94 172.77 L 121.79 173.76 C 121.66 174.61 122.25 175.40 123.10 175.53 C 123.96 175.66 124.75 175.08 124.88 174.22 L 125.03 173.23 C 125.16 172.38 124.57 171.59 123.72 171.46 C 122.87 171.33 122.07 171.91 121.94 172.77 Z M 121.79 173.78 L 121.66 174.75 C 121.54 175.60 122.14 176.39 122.99 176.51 C 123.85 176.62 124.63 176.03 124.75 175.17 L 124.88 174.20 C 125.00 173.35 124.40 172.56 123.55 172.44 C 122.69 172.33 121.91 172.92 121.79 173.78 Z M 121.66 174.77 L 121.53 175.78 C 121.42 176.63 122.03 177.41 122.89 177.52 C 123.74 177.62 124.52 177.02 124.63 176.16 L 124.75 175.15 C 124.86 174.30 124.25 173.52 123.40 173.41 C 122.54 173.30 121.76 173.91 121.66 174.77 Z M 121.53 175.79 L 121.41 176.82 C 121.32 177.68 121.93 178.45 122.79 178.55 C 123.65 178.64 124.42 178.03 124.52 177.17 L 124.63 176.14 C 124.73 175.29 124.11 174.51 123.25 174.42 C 122.40 174.32 121.62 174.94 121.53 175.79 Z M 121.41 176.84 L 121.31 177.86 C 121.22 178.72 121.85 179.49 122.71 179.57 C 123.57 179.66 124.33 179.03 124.42 178.17 L 124.52 177.15 C 124.60 176.29 123.98 175.53 123.12 175.44 C 122.26 175.36 121.50 175.98 121.41 176.84 Z M 121.31 177.88 L 121.22 178.88 C 121.15 179.74 121.78 180.50 122.64 180.57 C 123.50 180.65 124.26 180.01 124.33 179.15 L 124.42 178.15 C 124.49 177.29 123.86 176.54 123.00 176.46 C 122.14 176.39 121.38 177.03 121.31 177.88 Z M 121.22 178.91 L 121.15 179.94 C 121.09 180.80 121.74 181.54 122.60 181.60 C 123.46 181.66 124.20 181.02 124.26 180.16 L 124.33 179.13 C 124.39 178.27 123.75 177.52 122.88 177.46 C 122.02 177.40 121.28 178.05 121.22 178.91 Z M 121.15 179.97 L 121.09 181.06 C 121.05 181.92 121.71 182.65 122.57 182.69 C 123.43 182.74 124.17 182.07 124.21 181.21 L 124.26 180.12 C 124.31 179.26 123.64 178.53 122.78 178.49 C 121.92 178.44 121.19 179.11 121.15 179.97 Z M 121.09 181.08 L 121.06 182.10 C 121.03 182.97 121.71 183.69 122.57 183.71 C 123.43 183.74 124.15 183.06 124.18 182.20 L 124.21 181.18 C 124.24 180.32 123.56 179.60 122.70 179.57 C 121.84 179.55 121.12 180.22 121.09 181.08 Z M 121.06 182.13 L 121.04 183.10 C 121.03 183.96 121.72 184.67 122.58 184.68 C 123.44 184.70 124.15 184.01 124.16 183.15 L 124.18 182.18 C 124.19 181.32 123.51 180.61 122.64 180.59 C 121.78 180.58 121.07 181.27 121.06 182.13 Z M 121.04 183.11 L 121.04 184.05 C 121.03 184.91 121.73 185.61 122.59 185.62 C 123.45 185.62 124.16 184.92 124.16 184.06 L 124.16 183.13 C 124.17 182.27 123.47 181.56 122.61 181.56 C 121.75 181.56 121.05 182.25 121.04 183.11 Z M 121.04 184.05 L 121.04 185.00 C 121.04 185.86 121.74 186.56 122.60 186.56 C 123.46 186.56 124.16 185.86 124.16 185.00 L 124.16 184.06 C 124.16 183.19 123.46 182.49 122.60 182.49 C 121.74 182.49 121.04 183.19 121.04 184.05 Z M 121.04 185.00 L 121.04 186.02 C 121.04 186.88 121.74 187.58 122.60 187.58 C 123.46 187.58 124.16 186.88 124.16 186.02 L 124.16 185.00 C 124.16 184.14 123.46 183.44 122.60 183.44 C 121.74 183.44 121.04 184.14 121.04 185.00 Z M 121.04 186.02 L 121.04 187.02 C 121.04 187.89 121.74 188.58 122.60 188.58 C 123.46 188.58 124.16 187.89 124.16 187.02 L 124.16 186.02 C 124.16 185.16 123.46 184.46 122.60 184.46 C 121.74 184.46 121.04 185.16 121.04 186.02 Z M 121.04 187.02 L 121.04 188.02 C 121.04 188.88 121.74 189.58 122.60 189.58 C 123.46 189.58 124.16 188.88 124.16 188.02 L 124.16 187.02 C 124.16 186.16 123.46 185.46 122.60 185.46 C 121.74 185.46 121.04 186.16 121.04 187.02 Z M 121.04 188.02 L 121.04 189.00 C 121.04 189.86 121.74 190.56 122.60 190.56 C 123.46 190.56 124.16 189.86 124.16 189.00 L 124.16 188.02 C 124.16 187.15 123.46 186.46 122.60 186.46 C 121.74 186.46 121.04 187.15 121.04 188.02 Z M 121.04 189.00 L 121.04 190.00 C 121.04 190.87 121.74 191.57 122.60 191.56 C 123.46 191.56 124.16 190.87 124.16 190.00 L 124.16 189.00 C 124.16 188.14 123.46 187.44 122.60 187.44 C 121.74 187.44 121.04 188.14 121.04 189.00 Z M 121.04 190.01 L 121.04 191.01 C 121.04 191.87 121.74 192.57 122.60 192.57 C 123.46 192.57 124.16 191.87 124.16 191.01 L 124.16 190.00 C 124.16 189.14 123.46 188.44 122.60 188.44 C 121.73 188.44 121.04 189.14 121.04 190.01 Z M 121.04 191.02 L 121.04 192.01 C 121.05 192.88 121.75 193.57 122.61 193.57 C 123.47 193.56 124.17 192.86 124.17 192.00 L 124.16 191.00 C 124.16 190.14 123.45 189.44 122.59 189.45 C 121.73 189.45 121.04 190.15 121.04 191.02 Z M 121.04 192.02 L 121.05 193.01 C 121.06 193.88 121.77 194.57 122.63 194.56 C 123.49 194.55 124.18 193.84 124.18 192.98 L 124.17 191.99 C 124.16 191.13 123.45 190.44 122.59 190.45 C 121.73 190.45 121.04 191.16 121.04 192.02 Z M 121.05 193.02 L 121.07 193.99 C 121.09 194.85 121.80 195.54 122.66 195.52 C 123.52 195.51 124.21 194.80 124.19 193.94 L 124.18 192.97 C 124.16 192.11 123.45 191.42 122.59 191.44 C 121.73 191.45 121.04 192.16 121.05 193.02 Z M 121.07 194.01 L 121.10 194.96 C 121.12 195.82 121.84 196.50 122.70 196.47 C 123.56 196.45 124.24 195.73 124.22 194.87 L 124.19 193.92 C 124.17 193.06 123.45 192.38 122.59 192.40 C 121.73 192.43 121.05 193.15 121.07 194.01 Z M 121.10 194.98 L 121.14 195.96 C 121.18 196.82 121.91 197.48 122.77 197.45 C 123.63 197.41 124.30 196.68 124.26 195.82 L 124.22 194.84 C 124.18 193.98 123.45 193.31 122.59 193.35 C 121.73 193.39 121.06 194.12 121.10 194.98 Z M 121.14 195.99 L 121.21 197.01 C 121.27 197.87 122.01 198.52 122.87 198.46 C 123.73 198.40 124.39 197.66 124.33 196.80 L 124.26 195.78 C 124.20 194.92 123.46 194.27 122.60 194.33 C 121.74 194.39 121.09 195.13 121.14 195.99 Z M 121.22 197.05 L 121.31 198.12 C 121.39 198.98 122.15 199.61 123.01 199.53 C 123.87 199.46 124.50 198.70 124.42 197.84 L 124.33 196.76 C 124.25 195.90 123.49 195.27 122.63 195.35 C 121.77 195.43 121.14 196.19 121.22 197.05 Z M 121.32 198.16 L 121.43 199.15 C 121.53 200.01 122.31 200.62 123.16 200.53 C 124.02 200.43 124.63 199.65 124.53 198.80 L 124.42 197.80 C 124.32 196.94 123.55 196.33 122.69 196.43 C 121.83 196.53 121.22 197.30 121.32 198.16 Z M 121.44 199.18 L 121.57 200.20 C 121.69 201.06 122.47 201.66 123.33 201.54 C 124.18 201.43 124.78 200.64 124.67 199.79 L 124.53 198.77 C 124.42 197.91 123.63 197.31 122.78 197.43 C 121.92 197.54 121.32 198.33 121.44 199.18 Z M 121.58 200.23 L 121.73 201.25 C 121.86 202.10 122.65 202.69 123.50 202.56 C 124.36 202.44 124.94 201.64 124.82 200.79 L 124.66 199.77 C 124.54 198.91 123.74 198.32 122.89 198.45 C 122.04 198.58 121.45 199.37 121.58 200.23 Z M 121.73 201.27 L 121.89 202.26 C 122.03 203.11 122.83 203.69 123.69 203.55 C 124.54 203.41 125.11 202.61 124.98 201.76 L 124.81 200.77 C 124.67 199.92 123.87 199.34 123.02 199.48 C 122.17 199.62 121.59 200.42 121.73 201.27 Z M 121.90 202.28 L 122.06 203.22 C 122.21 204.07 123.02 204.64 123.87 204.49 C 124.72 204.34 125.29 203.53 125.14 202.68 L 124.97 201.74 C 124.82 200.89 124.01 200.33 123.16 200.48 C 122.31 200.63 121.75 201.44 121.90 202.28 Z M 122.07 203.25 L 122.27 204.27 C 122.43 205.12 123.25 205.67 124.10 205.51 C 124.94 205.34 125.50 204.52 125.33 203.68 L 125.13 202.65 C 124.97 201.81 124.15 201.25 123.30 201.42 C 122.46 201.58 121.90 202.40 122.07 203.25 Z M 122.27 204.31 L 122.49 205.28 C 122.68 206.13 123.51 206.66 124.35 206.47 C 125.20 206.28 125.73 205.45 125.54 204.61 L 125.32 203.63 C 125.14 202.79 124.30 202.26 123.46 202.45 C 122.62 202.64 122.09 203.47 122.27 204.31 Z M 122.50 205.34 L 122.75 206.27 C 122.97 207.10 123.82 207.60 124.65 207.38 C 125.49 207.16 125.99 206.31 125.77 205.47 L 125.52 204.55 C 125.31 203.71 124.45 203.22 123.62 203.43 C 122.78 203.65 122.29 204.51 122.50 205.34 Z M 122.77 206.33 L 123.05 207.26 C 123.31 208.09 124.18 208.55 125.00 208.30 C 125.83 208.04 126.29 207.17 126.04 206.34 L 125.75 205.41 C 125.50 204.59 124.62 204.12 123.80 204.38 C 122.97 204.63 122.51 205.50 122.77 206.33 Z M 123.07 207.32 L 123.39 208.24 C 123.68 209.06 124.57 209.49 125.38 209.20 C 126.20 208.92 126.63 208.03 126.34 207.22 L 126.02 206.29 C 125.74 205.47 124.84 205.05 124.03 205.33 C 123.22 205.61 122.79 206.50 123.07 207.32 Z M 123.41 208.29 L 123.77 209.23 C 124.08 210.04 124.98 210.44 125.79 210.13 C 126.59 209.82 127.00 208.92 126.69 208.11 L 126.33 207.17 C 126.02 206.37 125.11 205.96 124.31 206.27 C 123.50 206.58 123.10 207.48 123.41 208.29 Z M 123.79 209.27 L 124.19 210.22 C 124.52 211.02 125.43 211.39 126.23 211.06 C 127.02 210.73 127.40 209.81 127.07 209.02 L 126.67 208.07 C 126.34 207.27 125.42 206.90 124.63 207.23 C 123.83 207.56 123.46 208.48 123.79 209.27 Z M 124.21 210.27 L 124.63 211.19 C 124.99 211.98 125.91 212.32 126.70 211.97 C 127.48 211.61 127.83 210.68 127.47 209.90 L 127.05 208.97 C 126.69 208.19 125.76 207.84 124.98 208.20 C 124.19 208.56 123.85 209.48 124.21 210.27 Z M 124.65 211.25 L 125.09 212.12 C 125.48 212.89 126.42 213.20 127.19 212.81 C 127.96 212.42 128.27 211.48 127.88 210.71 L 127.44 209.84 C 127.05 209.07 126.12 208.76 125.35 209.15 C 124.58 209.54 124.27 210.48 124.65 211.25 Z M 125.13 212.19 L 125.62 213.05 C 126.05 213.80 127.01 214.06 127.75 213.63 C 128.50 213.21 128.76 212.25 128.34 211.50 L 127.84 210.64 C 127.42 209.89 126.46 209.63 125.71 210.06 C 124.96 210.49 124.70 211.44 125.13 212.19 Z M 125.68 213.14 L 126.20 213.94 C 126.67 214.66 127.64 214.86 128.36 214.38 C 129.08 213.91 129.28 212.94 128.81 212.22 L 128.28 211.42 C 127.81 210.70 126.84 210.50 126.12 210.97 C 125.40 211.45 125.20 212.42 125.68 213.14 Z M 126.25 214.01 L 126.84 214.80 C 127.36 215.49 128.34 215.63 129.03 215.12 C 129.72 214.60 129.86 213.62 129.34 212.93 L 128.76 212.14 C 128.24 211.45 127.26 211.31 126.57 211.83 C 125.88 212.34 125.74 213.32 126.25 214.01 Z M 126.89 214.86 L 127.56 215.68 C 128.11 216.34 129.09 216.44 129.76 215.89 C 130.42 215.35 130.52 214.36 129.97 213.70 L 129.30 212.87 C 128.75 212.21 127.77 212.11 127.10 212.66 C 126.44 213.21 126.34 214.19 126.89 214.86 Z M 127.59 215.71 L 128.21 216.42 C 128.78 217.07 129.76 217.14 130.41 216.58 C 131.06 216.01 131.13 215.02 130.57 214.37 L 129.94 213.66 C 129.38 213.01 128.39 212.94 127.74 213.51 C 127.09 214.08 127.02 215.06 127.59 215.71 Z M 128.23 216.45 L 128.90 217.19 C 129.48 217.83 130.47 217.88 131.11 217.30 C 131.75 216.73 131.80 215.74 131.22 215.10 L 130.55 214.35 C 129.97 213.71 128.98 213.66 128.34 214.24 C 127.70 214.82 127.65 215.81 128.23 216.45 Z M 128.92 217.21 L 129.62 217.96 C 130.21 218.59 131.19 218.63 131.83 218.04 C 132.46 217.46 132.49 216.47 131.91 215.84 L 131.20 215.08 C 130.62 214.45 129.63 214.41 129.00 215.00 C 128.37 215.59 128.33 216.57 128.92 217.21 Z M 129.63 217.98 L 130.34 218.72 C 130.94 219.35 131.92 219.37 132.55 218.78 C 133.17 218.18 133.20 217.19 132.60 216.57 L 131.89 215.82 C 131.30 215.20 130.31 215.17 129.69 215.77 C 129.06 216.36 129.04 217.35 129.63 217.98 Z M 130.35 218.73 L 131.05 219.45 C 131.65 220.07 132.64 220.08 133.25 219.48 C 133.87 218.88 133.89 217.89 133.29 217.27 L 132.59 216.56 C 131.99 215.94 131.00 215.93 130.38 216.53 C 129.77 217.13 129.75 218.12 130.35 218.73 Z M 131.06 219.46 L 131.83 220.24 C 132.44 220.85 133.43 220.86 134.04 220.25 C 134.65 219.64 134.66 218.65 134.05 218.04 L 133.27 217.26 C 132.67 216.65 131.68 216.64 131.06 217.25 C 130.45 217.86 130.45 218.85 131.06 219.46 Z M 131.85 220.25 L 132.58 220.98 C 133.20 221.59 134.19 221.58 134.79 220.96 C 135.40 220.35 135.39 219.36 134.78 218.76 L 134.04 218.03 C 133.42 217.42 132.44 217.43 131.83 218.05 C 131.23 218.66 131.23 219.65 131.85 220.25 Z M 132.59 220.99 L 133.29 221.66 C 133.90 222.27 134.89 222.25 135.49 221.63 C 136.10 221.02 136.08 220.03 135.46 219.43 L 134.77 218.75 C 134.15 218.15 133.16 218.16 132.56 218.78 C 131.96 219.40 131.97 220.39 132.59 220.99 Z M 133.29 221.67 L 133.95 222.31 C 134.57 222.91 135.56 222.89 136.16 222.27 C 136.76 221.66 136.74 220.67 136.12 220.07 L 135.46 219.42 C 134.84 218.82 133.85 218.84 133.25 219.46 C 132.65 220.08 132.67 221.07 133.29 221.67 Z M 133.95 222.30 L 134.65 222.99 C 135.27 223.59 136.26 223.58 136.86 222.97 C 137.46 222.35 137.45 221.36 136.83 220.76 L 136.13 220.07 C 135.51 219.47 134.52 219.48 133.92 220.10 C 133.32 220.71 133.33 221.70 133.95 222.30 Z M 134.65 222.99 L 135.37 223.69 C 135.98 224.30 136.97 224.29 137.57 223.67 C 138.18 223.06 138.17 222.07 137.55 221.47 L 136.83 220.76 C 136.22 220.16 135.23 220.17 134.63 220.78 C 134.02 221.40 134.03 222.39 134.65 222.99 Z M 135.37 223.70 L 136.08 224.39 C 136.70 224.99 137.69 224.98 138.29 224.36 C 138.89 223.74 138.88 222.75 138.26 222.15 L 137.55 221.46 C 136.93 220.86 135.94 220.87 135.34 221.49 C 134.74 222.11 134.75 223.10 135.37 223.70 Z M 136.10 224.40 L 136.81 225.08 C 137.44 225.67 138.43 225.65 139.02 225.02 C 139.61 224.39 139.59 223.41 138.96 222.81 L 138.24 222.14 C 137.62 221.54 136.63 221.57 136.04 222.20 C 135.44 222.82 135.47 223.81 136.10 224.40 Z M 136.84 225.10 L 137.59 225.79 C 138.23 226.37 139.22 226.32 139.80 225.68 C 140.38 225.05 140.33 224.06 139.69 223.48 L 138.94 222.79 C 138.30 222.21 137.31 222.26 136.73 222.90 C 136.15 223.53 136.20 224.52 136.84 225.10 Z M 137.62 225.81 L 138.38 226.48 C 139.03 227.04 140.02 226.97 140.59 226.32 C 141.15 225.67 141.08 224.69 140.43 224.12 L 139.67 223.46 C 139.02 222.89 138.03 222.96 137.46 223.61 C 136.90 224.26 136.97 225.25 137.62 225.81 Z M 138.41 226.50 L 139.17 227.13 C 139.84 227.68 140.82 227.59 141.37 226.92 C 141.92 226.26 141.83 225.27 141.16 224.72 L 140.40 224.09 C 139.74 223.55 138.75 223.64 138.20 224.30 C 137.65 224.97 137.75 225.95 138.41 226.50 Z M 139.21 227.16 L 139.99 227.76 C 140.67 228.29 141.65 228.17 142.18 227.48 C 142.71 226.80 142.58 225.82 141.90 225.29 L 141.12 224.69 C 140.44 224.16 139.46 224.29 138.93 224.97 C 138.41 225.65 138.53 226.63 139.21 227.16 Z M 140.05 227.80 L 140.85 228.37 C 141.56 228.87 142.53 228.70 143.03 227.99 C 143.52 227.29 143.35 226.32 142.65 225.82 L 141.84 225.25 C 141.14 224.76 140.16 224.92 139.67 225.63 C 139.17 226.33 139.34 227.31 140.05 227.80 Z M 140.93 228.43 L 141.78 228.94 C 142.51 229.39 143.47 229.16 143.92 228.43 C 144.37 227.69 144.14 226.73 143.41 226.28 L 142.56 225.76 C 141.83 225.31 140.87 225.54 140.42 226.28 C 139.97 227.02 140.20 227.98 140.93 228.43 Z M 141.88 229.00 L 142.77 229.46 C 143.54 229.86 144.48 229.55 144.88 228.79 C 145.27 228.02 144.97 227.08 144.20 226.68 L 143.31 226.22 C 142.54 225.83 141.60 226.13 141.20 226.90 C 140.81 227.66 141.11 228.60 141.88 229.00 Z M 142.87 229.51 L 143.76 229.89 C 144.55 230.23 145.47 229.86 145.81 229.07 C 146.15 228.28 145.78 227.36 144.99 227.02 L 144.10 226.64 C 143.31 226.30 142.39 226.66 142.05 227.46 C 141.71 228.25 142.08 229.17 142.87 229.51 Z M 143.85 229.93 L 144.80 230.26 C 145.61 230.55 146.51 230.12 146.79 229.31 C 147.08 228.50 146.66 227.60 145.84 227.32 L 144.90 226.98 C 144.08 226.69 143.19 227.12 142.90 227.93 C 142.62 228.75 143.04 229.64 143.85 229.93 Z M 144.90 230.29 L 145.89 230.57 C 146.72 230.80 147.59 230.31 147.82 229.48 C 148.05 228.65 147.56 227.79 146.73 227.56 L 145.74 227.28 C 144.91 227.05 144.05 227.54 143.82 228.37 C 143.59 229.20 144.07 230.06 144.90 230.29 Z M 146.01 230.59 L 147.00 230.79 C 147.85 230.96 148.67 230.41 148.84 229.57 C 149.00 228.72 148.45 227.90 147.61 227.73 L 146.62 227.53 C 145.77 227.36 144.95 227.91 144.78 228.76 C 144.61 229.61 145.16 230.43 146.01 230.59 Z M 147.11 230.81 L 148.09 230.93 C 148.95 231.04 149.73 230.43 149.84 229.58 C 149.94 228.72 149.34 227.94 148.48 227.83 L 147.50 227.71 C 146.64 227.60 145.86 228.21 145.76 229.07 C 145.65 229.92 146.26 230.70 147.11 230.81 Z M 148.18 230.94 L 149.18 231.01 C 150.04 231.07 150.78 230.42 150.84 229.56 C 150.90 228.69 150.25 227.95 149.39 227.89 L 148.39 227.83 C 147.53 227.77 146.79 228.42 146.73 229.28 C 146.67 230.14 147.32 230.88 148.18 230.94 Z M 149.24 231.01 L 150.25 231.04 C 151.11 231.06 151.83 230.38 151.85 229.52 C 151.87 228.65 151.19 227.94 150.33 227.92 L 149.32 227.89 C 148.46 227.87 147.74 228.55 147.72 229.41 C 147.70 230.27 148.38 230.99 149.24 231.01 Z M 150.29 231.04 L 151.32 231.04 C 152.18 231.03 152.88 230.33 152.88 229.47 C 152.88 228.61 152.18 227.91 151.31 227.91 L 150.29 227.92 C 149.43 227.92 148.73 228.62 148.73 229.48 C 148.73 230.34 149.43 231.04 150.29 231.04 Z M 151.35 231.04 L 152.38 231.01 C 153.25 230.99 153.93 230.27 153.91 229.41 C 153.89 228.55 153.17 227.87 152.31 227.89 L 151.28 227.91 C 150.42 227.94 149.73 228.65 149.76 229.51 C 149.78 230.38 150.49 231.06 151.35 231.04 Z M 152.43 231.01 L 153.44 230.95 C 154.30 230.91 154.96 230.17 154.91 229.31 C 154.87 228.45 154.13 227.79 153.27 227.84 L 152.26 227.89 C 151.40 227.94 150.74 228.67 150.79 229.53 C 150.83 230.40 151.57 231.06 152.43 231.01 Z M 153.50 230.95 L 154.46 230.86 C 155.32 230.78 155.95 230.02 155.87 229.16 C 155.79 228.30 155.03 227.67 154.17 227.75 L 153.21 227.84 C 152.35 227.92 151.72 228.68 151.80 229.54 C 151.88 230.40 152.64 231.03 153.50 230.95 Z M 154.55 230.85 L 155.56 230.69 C 156.41 230.57 157.00 229.77 156.87 228.92 C 156.74 228.07 155.95 227.48 155.10 227.61 L 154.08 227.76 C 153.23 227.89 152.64 228.68 152.77 229.54 C 152.90 230.39 153.69 230.98 154.55 230.85 Z M 155.66 230.68 L 156.64 230.46 C 157.49 230.28 158.02 229.45 157.84 228.61 C 157.66 227.76 156.82 227.23 155.98 227.41 L 155.00 227.63 C 154.16 227.81 153.62 228.64 153.80 229.48 C 153.99 230.32 154.82 230.86 155.66 230.68 Z M 156.73 230.44 L 157.66 230.19 C 158.49 229.96 158.98 229.10 158.75 228.27 C 158.52 227.44 157.66 226.95 156.83 227.18 L 155.90 227.43 C 155.07 227.66 154.58 228.52 154.81 229.35 C 155.04 230.18 155.90 230.67 156.73 230.44 Z M 157.71 230.17 L 158.64 229.88 C 159.46 229.62 159.92 228.74 159.66 227.92 C 159.40 227.10 158.53 226.64 157.71 226.90 L 156.78 227.19 C 155.95 227.45 155.50 228.33 155.75 229.15 C 156.01 229.97 156.89 230.43 157.71 230.17 Z M 158.67 229.87 L 159.62 229.55 C 160.44 229.27 160.87 228.39 160.60 227.57 C 160.32 226.75 159.43 226.31 158.62 226.59 L 157.67 226.91 C 156.86 227.19 156.42 228.07 156.69 228.89 C 156.97 229.71 157.86 230.14 158.67 229.87 Z M 159.64 229.54 L 160.59 229.21 C 161.40 228.92 161.82 228.03 161.54 227.21 C 161.25 226.40 160.36 225.98 159.54 226.26 L 158.60 226.60 C 157.78 226.89 157.36 227.78 157.65 228.59 C 157.93 229.40 158.83 229.83 159.64 229.54 Z M 160.60 229.20 L 161.51 228.87 C 162.32 228.58 162.74 227.68 162.45 226.87 C 162.15 226.06 161.26 225.64 160.45 225.94 L 159.53 226.27 C 158.72 226.56 158.30 227.46 158.60 228.27 C 158.89 229.08 159.78 229.50 160.60 229.20 Z M 161.53 228.87 L 162.41 228.53 C 163.22 228.23 163.63 227.33 163.33 226.52 C 163.03 225.72 162.13 225.31 161.32 225.61 L 160.43 225.94 C 159.63 226.24 159.22 227.14 159.52 227.95 C 159.82 228.76 160.72 229.17 161.53 228.87 Z M 162.45 228.52 L 163.38 228.15 C 164.18 227.82 164.57 226.91 164.25 226.11 C 163.92 225.31 163.01 224.93 162.21 225.25 L 161.29 225.62 C 160.49 225.94 160.10 226.85 160.42 227.65 C 160.74 228.45 161.65 228.84 162.45 228.52 Z M 163.43 228.12 L 164.41 227.69 C 165.20 227.34 165.56 226.42 165.21 225.63 C 164.86 224.84 163.93 224.49 163.15 224.83 L 162.16 225.27 C 161.38 225.62 161.02 226.54 161.37 227.33 C 161.72 228.12 162.64 228.47 163.43 228.12 Z M 164.46 227.67 L 165.35 227.24 C 166.12 226.86 166.45 225.93 166.07 225.15 C 165.70 224.37 164.76 224.05 163.99 224.43 L 163.10 224.86 C 162.32 225.23 162.00 226.17 162.37 226.94 C 162.75 227.72 163.68 228.04 164.46 227.67 Z M 165.39 227.22 L 166.30 226.74 C 167.06 226.34 167.36 225.40 166.96 224.64 C 166.56 223.87 165.62 223.58 164.86 223.97 L 163.95 224.45 C 163.18 224.84 162.88 225.79 163.28 226.55 C 163.68 227.32 164.62 227.61 165.39 227.22 Z M 166.34 226.72 L 167.23 226.23 C 167.98 225.81 168.25 224.85 167.83 224.10 C 167.41 223.35 166.46 223.08 165.71 223.50 L 164.82 223.99 C 164.06 224.41 163.79 225.37 164.21 226.12 C 164.63 226.87 165.58 227.14 166.34 226.72 Z M 167.27 226.20 L 168.11 225.70 C 168.85 225.25 169.09 224.29 168.64 223.55 C 168.20 222.81 167.24 222.58 166.50 223.02 L 165.66 223.52 C 164.92 223.97 164.68 224.93 165.13 225.67 C 165.57 226.41 166.53 226.64 167.27 226.20 Z M 168.17 225.66 L 169.00 225.10 C 169.72 224.63 169.92 223.66 169.44 222.94 C 168.96 222.22 168.00 222.03 167.28 222.50 L 166.44 223.06 C 165.72 223.53 165.53 224.50 166.00 225.22 C 166.48 225.94 167.45 226.14 168.17 225.66 Z M 169.07 225.06 L 169.85 224.48 C 170.54 223.97 170.68 222.99 170.17 222.30 C 169.65 221.61 168.68 221.46 167.98 221.98 L 167.21 222.55 C 166.52 223.06 166.37 224.04 166.89 224.73 C 167.40 225.43 168.38 225.57 169.07 225.06 Z M 169.91 224.43 L 170.68 223.80 C 171.34 223.25 171.44 222.27 170.89 221.60 C 170.34 220.94 169.36 220.84 168.69 221.39 L 167.92 222.02 C 167.26 222.57 167.16 223.55 167.71 224.22 C 168.26 224.89 169.24 224.98 169.91 224.43 Z M 170.72 223.76 L 171.47 223.10 C 172.12 222.53 172.18 221.54 171.61 220.90 C 171.03 220.25 170.05 220.19 169.40 220.76 L 168.65 221.43 C 168.00 222.00 167.94 222.98 168.52 223.63 C 169.09 224.28 170.07 224.34 170.72 223.76 Z M 171.50 223.07 L 172.23 222.39 C 172.86 221.81 172.90 220.82 172.31 220.19 C 171.73 219.56 170.74 219.52 170.11 220.11 L 169.37 220.79 C 168.74 221.37 168.71 222.36 169.29 222.99 C 169.88 223.62 170.87 223.66 171.50 223.07 Z M 172.25 222.37 L 172.99 221.66 C 173.61 221.06 173.63 220.07 173.03 219.45 C 172.43 218.83 171.44 218.81 170.82 219.41 L 170.08 220.13 C 169.46 220.73 169.45 221.72 170.05 222.34 C 170.65 222.95 171.63 222.97 172.25 222.37 Z M 173.02 221.63 L 173.73 220.91 C 174.34 220.30 174.34 219.31 173.72 218.70 C 173.11 218.09 172.12 218.10 171.51 218.71 L 170.80 219.43 C 170.19 220.05 170.20 221.04 170.81 221.64 C 171.42 222.25 172.41 222.24 173.02 221.63 Z M 173.76 220.88 L 174.44 220.16 C 175.03 219.53 175.00 218.54 174.37 217.95 C 173.75 217.36 172.76 217.39 172.17 218.02 L 171.49 218.74 C 170.90 219.37 170.93 220.36 171.55 220.95 C 172.18 221.54 173.17 221.51 173.76 220.88 Z M 174.48 220.12 L 175.13 219.38 C 175.70 218.73 175.63 217.74 174.99 217.17 C 174.34 216.61 173.35 216.67 172.78 217.32 L 172.13 218.06 C 171.56 218.71 171.63 219.69 172.27 220.26 C 172.92 220.83 173.91 220.77 174.48 220.12 Z M 175.17 219.33 L 175.77 218.59 C 176.32 217.92 176.22 216.94 175.55 216.39 C 174.88 215.85 173.90 215.95 173.35 216.61 L 172.75 217.36 C 172.20 218.03 172.30 219.01 172.97 219.56 C 173.64 220.10 174.62 220.00 175.17 219.33 Z M 175.81 218.55 L 176.41 217.75 C 176.94 217.07 176.81 216.09 176.12 215.56 C 175.44 215.04 174.46 215.17 173.93 215.86 L 173.32 216.65 C 172.80 217.34 172.93 218.32 173.62 218.84 C 174.30 219.36 175.28 219.23 175.81 218.55 Z M 176.43 217.72 L 177.01 216.94 C 177.52 216.24 177.37 215.26 176.67 214.75 C 175.97 214.25 175.00 214.40 174.49 215.09 L 173.91 215.88 C 173.40 216.58 173.56 217.55 174.25 218.06 C 174.95 218.57 175.93 218.42 176.43 217.72 Z M 177.02 216.92 L 177.57 216.15 C 178.07 215.45 177.90 214.48 177.20 213.98 C 176.50 213.48 175.52 213.64 175.02 214.34 L 174.48 215.11 C 173.98 215.81 174.14 216.79 174.84 217.29 C 175.55 217.79 176.52 217.62 177.02 216.92 Z M 177.57 216.14 L 178.15 215.33 C 178.64 214.62 178.47 213.65 177.77 213.15 C 177.06 212.66 176.09 212.83 175.59 213.53 L 175.02 214.35 C 174.52 215.06 174.69 216.03 175.40 216.53 C 176.11 217.02 177.08 216.85 177.57 216.14 Z M 178.15 215.32 L 178.74 214.47 C 179.24 213.76 179.06 212.79 178.35 212.29 C 177.64 211.80 176.67 211.98 176.18 212.69 L 175.59 213.54 C 175.10 214.25 175.27 215.22 175.98 215.71 C 176.69 216.20 177.66 216.03 178.15 215.32 Z M 178.75 214.46 L 179.35 213.59 C 179.84 212.88 179.66 211.91 178.95 211.42 C 178.24 210.93 177.27 211.11 176.78 211.82 L 176.18 212.69 C 175.69 213.40 175.86 214.37 176.57 214.86 C 177.28 215.35 178.26 215.17 178.75 214.46 Z M 179.35 213.59 L 179.52 213.34 C 180.01 212.63 179.84 211.66 179.13 211.17 C 178.42 210.68 177.44 210.85 176.95 211.56 L 176.78 211.82 C 176.29 212.53 176.47 213.50 177.18 213.99 C 177.89 214.48 178.86 214.30 179.35 213.59 Z"
      fill="black"
      fill-rule="nonzero" /></svg>