<svg xmlns="http://www.w3.org/2000/svg" width="300" height="300" viewBox="0 0 300 300">
<path d="M 179.06 260.35 L 178.62 261.24 C 178.24 262.02 178.56 262.95 179.33 263.33 C 180.11 263.71 181.04 263.40 181.42 262.62 L 181.86 261.73 C 182.24 260.95 181.92 260.02 181.15 259.64 C 180.38 259.26 179.44 259.58 179.06 260.35 Z M 178.62 261.25 L 178.18 262.15 C 177.80 262.92 178.13 263.86 178.90 264.23 C 179.68 264.61 180.61 264.29 180.99 263.51 L 181.43 262.62 C 181.80 261.84 181.48 260.91 180.71 260.53 C 179.93 260.15 179.00 260.47 178.62 261.25 Z M 178.18 262.16 L 177.74 263.06 C 177.37 263.84 177.70 264.77 178.48 265.14 C 179.25 265.51 180.19 265.19 180.56 264.41 L 180.99 263.51 C 181.36 262.73 181.04 261.80 180.26 261.42 C 179.48 261.05 178.55 261.38 178.18 262.16 Z M 177.74 263.07 L 177.33 263.94 C 176.96 264.73 177.30 265.65 178.08 266.02 C 178.86 266.39 179.79 266.05 180.16 265.27 L 180.57 264.40 C 180.93 263.62 180.59 262.69 179.81 262.32 C 179.03 261.95 178.10 262.29 177.74 263.07 Z M 177.35 263.91 L 176.93 264.74 C 176.55 265.51 176.86 266.45 177.63 266.83 C 178.41 267.22 179.34 266.90 179.73 266.13 L 180.14 265.30 C 180.53 264.53 180.21 263.59 179.44 263.21 C 178.67 262.82 177.73 263.14 177.35 263.91 Z M 177.00 264.61 L 176.49 265.44 C 176.04 266.17 176.27 267.13 177.00 267.59 C 177.74 268.04 178.70 267.81 179.15 267.08 L 179.66 266.25 C 180.11 265.52 179.88 264.56 179.15 264.11 C 178.42 263.65 177.46 263.88 177.00 264.61 Z M 176.62 265.26 L 175.95 266.07 C 175.39 266.73 175.48 267.71 176.14 268.27 C 176.81 268.82 177.79 268.73 178.34 268.07 L 179.02 267.26 C 179.57 266.60 179.48 265.61 178.82 265.06 C 178.16 264.51 177.18 264.60 176.62 265.26 Z M 176.11 265.90 L 175.35 266.57 C 174.71 267.14 174.65 268.13 175.22 268.77 C 175.79 269.42 176.78 269.48 177.42 268.91 L 178.18 268.24 C 178.83 267.67 178.89 266.68 178.31 266.03 C 177.74 265.39 176.76 265.33 176.11 265.90 Z M 175.48 266.47 L 174.73 267.01 C 174.03 267.51 173.86 268.48 174.36 269.18 C 174.87 269.89 175.84 270.05 176.54 269.55 L 177.30 269.01 C 178.00 268.51 178.16 267.53 177.66 266.83 C 177.16 266.13 176.18 265.97 175.48 266.47 Z M 174.80 266.96 L 173.96 267.49 C 173.23 267.94 173.01 268.91 173.47 269.64 C 173.93 270.37 174.90 270.59 175.63 270.13 L 176.47 269.60 C 177.20 269.14 177.42 268.17 176.96 267.44 C 176.50 266.71 175.53 266.50 174.80 266.96 Z M 174.01 267.46 L 173.11 267.98 C 172.37 268.41 172.12 269.37 172.55 270.11 C 172.98 270.86 173.94 271.11 174.69 270.68 L 175.58 270.15 C 176.33 269.72 176.58 268.76 176.14 268.02 C 175.71 267.27 174.75 267.02 174.01 267.46 Z M 173.13 267.97 L 172.21 268.49 C 171.46 268.91 171.20 269.86 171.62 270.61 C 172.04 271.36 172.99 271.63 173.75 271.21 L 174.66 270.69 C 175.42 270.27 175.68 269.31 175.26 268.56 C 174.84 267.81 173.88 267.54 173.13 267.97 Z M 172.21 268.49 L 171.30 269.00 C 170.55 269.43 170.28 270.38 170.71 271.13 C 171.13 271.88 172.09 272.14 172.84 271.72 L 173.75 271.21 C 174.50 270.78 174.76 269.83 174.34 269.08 C 173.91 268.33 172.96 268.06 172.21 268.49 Z M 171.28 269.01 L 170.32 269.58 C 169.57 270.02 169.33 270.97 169.76 271.72 C 170.20 272.46 171.16 272.71 171.90 272.27 L 172.86 271.71 C 173.60 271.27 173.85 270.31 173.41 269.57 C 172.98 268.83 172.02 268.58 171.28 269.01 Z M 170.29 269.59 L 169.37 270.16 C 168.64 270.61 168.41 271.57 168.86 272.31 C 169.31 273.04 170.27 273.27 171.01 272.82 L 171.93 272.26 C 172.66 271.80 172.89 270.84 172.44 270.11 C 171.99 269.37 171.03 269.14 170.29 269.59 Z M 169.35 270.17 L 168.50 270.72 C 167.77 271.18 167.55 272.14 168.01 272.87 C 168.47 273.60 169.44 273.81 170.17 273.35 L 171.03 272.81 C 171.75 272.35 171.97 271.38 171.51 270.65 C 171.05 269.92 170.08 269.71 169.35 270.17 Z M 168.48 270.72 L 167.68 271.24 C 166.96 271.71 166.75 272.67 167.22 273.40 C 167.69 274.12 168.66 274.33 169.38 273.86 L 170.18 273.34 C 170.90 272.88 171.11 271.91 170.64 271.19 C 170.17 270.46 169.21 270.25 168.48 270.72 Z M 167.68 271.24 L 166.95 271.72 C 166.22 272.19 166.02 273.15 166.49 273.88 C 166.96 274.60 167.92 274.81 168.65 274.34 L 169.38 273.86 C 170.11 273.39 170.31 272.42 169.84 271.70 C 169.37 270.98 168.41 270.77 167.68 271.24 Z M 166.96 271.71 L 166.05 272.29 C 165.32 272.75 165.11 273.72 165.57 274.44 C 166.03 275.17 167.00 275.39 167.73 274.92 L 168.63 274.34 C 169.36 273.88 169.58 272.92 169.11 272.19 C 168.65 271.46 167.68 271.25 166.96 271.71 Z M 166.08 272.27 L 165.21 272.80 C 164.47 273.25 164.24 274.21 164.68 274.95 C 165.13 275.68 166.09 275.92 166.83 275.47 L 167.70 274.94 C 168.44 274.49 168.67 273.53 168.22 272.80 C 167.77 272.06 166.81 271.82 166.08 272.27 Z M 165.25 272.77 L 164.44 273.23 C 163.69 273.66 163.42 274.61 163.84 275.36 C 164.27 276.11 165.22 276.38 165.97 275.95 L 166.78 275.49 C 167.54 275.07 167.80 274.12 167.38 273.37 C 166.95 272.62 166.00 272.35 165.25 272.77 Z M 164.49 273.20 L 163.68 273.62 C 162.91 274.01 162.61 274.95 163.00 275.72 C 163.39 276.49 164.33 276.79 165.10 276.40 L 165.91 275.98 C 166.68 275.59 166.99 274.65 166.59 273.88 C 166.20 273.12 165.26 272.81 164.49 273.20 Z M 163.75 273.59 L 162.88 273.98 C 162.09 274.33 161.74 275.26 162.10 276.04 C 162.45 276.83 163.38 277.18 164.16 276.82 L 165.03 276.43 C 165.82 276.08 166.17 275.15 165.81 274.37 C 165.46 273.58 164.53 273.23 163.75 273.59 Z M 162.95 273.95 L 162.02 274.31 C 161.22 274.63 160.82 275.53 161.14 276.34 C 161.45 277.14 162.36 277.53 163.16 277.22 L 164.09 276.85 C 164.89 276.54 165.29 275.63 164.97 274.83 C 164.66 274.03 163.75 273.63 162.95 273.95 Z M 162.09 274.29 L 161.08 274.63 C 160.26 274.91 159.82 275.79 160.10 276.61 C 160.37 277.43 161.26 277.86 162.08 277.59 L 163.09 277.24 C 163.91 276.97 164.35 276.08 164.07 275.27 C 163.80 274.45 162.91 274.01 162.09 274.29 Z M 161.14 274.61 L 160.22 274.88 C 159.39 275.12 158.92 275.99 159.16 276.82 C 159.41 277.65 160.27 278.12 161.10 277.88 L 162.02 277.61 C 162.84 277.36 163.32 276.50 163.08 275.67 C 162.83 274.84 161.96 274.37 161.14 274.61 Z M 160.27 274.87 L 159.30 275.11 C 158.47 275.33 157.96 276.18 158.18 277.01 C 158.39 277.85 159.24 278.35 160.08 278.14 L 161.05 277.89 C 161.88 277.68 162.39 276.83 162.17 275.99 C 161.96 275.16 161.11 274.65 160.27 274.87 Z M 159.36 275.10 L 158.36 275.32 C 157.52 275.50 156.98 276.33 157.16 277.18 C 157.35 278.02 158.18 278.55 159.02 278.37 L 160.02 278.15 C 160.86 277.97 161.40 277.14 161.22 276.30 C 161.03 275.45 160.20 274.92 159.36 275.10 Z M 158.42 275.31 L 157.42 275.48 C 156.57 275.63 156.00 276.44 156.15 277.29 C 156.30 278.14 157.10 278.71 157.95 278.56 L 158.96 278.38 C 159.81 278.23 160.38 277.43 160.23 276.58 C 160.08 275.73 159.27 275.16 158.42 275.31 Z M 157.49 275.47 L 156.50 275.60 C 155.64 275.70 155.04 276.48 155.14 277.34 C 155.25 278.19 156.03 278.80 156.89 278.69 L 157.88 278.57 C 158.74 278.46 159.34 277.68 159.23 276.82 C 159.13 275.97 158.35 275.36 157.49 275.47 Z M 156.56 275.59 L 155.58 275.67 C 154.72 275.74 154.08 276.49 154.15 277.35 C 154.22 278.21 154.98 278.85 155.84 278.78 L 156.82 278.70 C 157.68 278.63 158.32 277.88 158.25 277.02 C 158.18 276.16 157.42 275.52 156.56 275.59 Z M 155.63 275.67 L 154.64 275.71 C 153.78 275.76 153.11 276.49 153.16 277.35 C 153.20 278.21 153.93 278.87 154.79 278.83 L 155.78 278.78 C 156.64 278.74 157.31 278.01 157.27 277.15 C 157.22 276.29 156.49 275.62 155.63 275.67 Z M 154.67 275.71 L 153.66 275.74 C 152.80 275.76 152.12 276.48 152.14 277.34 C 152.16 278.20 152.88 278.88 153.74 278.86 L 154.76 278.83 C 155.62 278.81 156.30 278.09 156.28 277.23 C 156.25 276.37 155.54 275.69 154.67 275.71 Z M 153.68 275.74 L 152.79 275.75 C 151.93 275.76 151.24 276.47 151.25 277.33 C 151.26 278.20 151.97 278.89 152.83 278.87 L 153.72 278.86 C 154.59 278.85 155.27 278.14 155.26 277.28 C 155.25 276.42 154.54 275.73 153.68 275.74 Z M 152.81 275.75 L 151.90 275.75 C 151.03 275.75 150.34 276.45 150.33 277.31 C 150.33 278.17 151.03 278.87 151.89 278.87 L 152.81 278.87 C 153.67 278.87 154.37 278.18 154.37 277.31 C 154.37 276.45 153.68 275.75 152.81 275.75 Z M 151.93 275.75 L 150.95 275.73 C 150.09 275.71 149.37 276.40 149.35 277.26 C 149.34 278.12 150.02 278.83 150.88 278.85 L 151.86 278.87 C 152.73 278.89 153.44 278.21 153.46 277.34 C 153.47 276.48 152.79 275.77 151.93 275.75 Z M 150.98 275.73 L 149.92 275.69 C 149.06 275.65 148.33 276.31 148.29 277.18 C 148.25 278.04 148.92 278.77 149.78 278.80 L 150.85 278.85 C 151.71 278.89 152.44 278.22 152.47 277.36 C 152.51 276.50 151.85 275.77 150.98 275.73 Z M 149.96 275.69 L 148.81 275.61 C 147.95 275.55 147.21 276.20 147.15 277.06 C 147.09 277.92 147.74 278.66 148.60 278.72 L 149.75 278.80 C 150.61 278.86 151.35 278.21 151.41 277.35 C 151.47 276.49 150.82 275.75 149.96 275.69 Z M 148.85 275.61 L 147.86 275.52 C 147.00 275.44 146.24 276.08 146.16 276.94 C 146.09 277.80 146.72 278.55 147.58 278.63 L 148.57 278.72 C 149.42 278.80 150.18 278.16 150.26 277.31 C 150.34 276.45 149.70 275.69 148.85 275.61 Z M 147.88 275.52 L 146.85 275.42 C 145.99 275.33 145.22 275.95 145.13 276.81 C 145.05 277.67 145.67 278.44 146.53 278.52 L 147.56 278.63 C 148.42 278.72 149.18 278.09 149.27 277.24 C 149.36 276.38 148.73 275.61 147.88 275.52 Z M 146.86 275.42 L 145.82 275.30 C 144.96 275.21 144.19 275.82 144.09 276.68 C 144.00 277.54 144.61 278.31 145.47 278.41 L 146.51 278.52 C 147.37 278.62 148.14 278.00 148.24 277.14 C 148.33 276.29 147.72 275.51 146.86 275.42 Z M 145.82 275.30 L 144.80 275.18 C 143.94 275.08 143.16 275.70 143.06 276.55 C 142.96 277.41 143.58 278.18 144.43 278.28 L 145.46 278.40 C 146.32 278.50 147.09 277.89 147.19 277.04 C 147.29 276.18 146.68 275.40 145.82 275.30 Z M 144.80 275.18 L 143.82 275.07 C 142.96 274.97 142.18 275.58 142.08 276.43 C 141.98 277.29 142.59 278.07 143.45 278.17 L 144.43 278.28 C 145.29 278.39 146.06 277.77 146.16 276.92 C 146.27 276.06 145.65 275.29 144.80 275.18 Z M 143.81 275.07 L 142.91 274.96 C 142.05 274.86 141.27 275.47 141.17 276.33 C 141.07 277.19 141.69 277.96 142.54 278.06 L 143.45 278.17 C 144.31 278.27 145.08 277.66 145.18 276.80 C 145.28 275.94 144.67 275.17 143.81 275.07 Z M 142.89 274.96 L 141.72 274.83 C 140.87 274.74 140.09 275.35 140.00 276.21 C 139.91 277.07 140.52 277.84 141.38 277.93 L 142.55 278.06 C 143.41 278.16 144.18 277.54 144.28 276.68 C 144.37 275.82 143.75 275.05 142.89 274.96 Z M 141.71 274.83 L 140.68 274.72 C 139.82 274.64 139.05 275.26 138.97 276.12 C 138.88 276.98 139.50 277.74 140.36 277.83 L 141.39 277.94 C 142.25 278.02 143.02 277.40 143.11 276.54 C 143.19 275.68 142.57 274.92 141.71 274.83 Z M 140.68 274.72 L 139.76 274.63 C 138.91 274.55 138.14 275.17 138.06 276.03 C 137.97 276.89 138.60 277.65 139.45 277.74 L 140.37 277.83 C 141.22 277.92 141.99 277.29 142.07 276.43 C 142.16 275.57 141.53 274.81 140.68 274.72 Z M 139.77 274.63 L 138.91 274.54 C 138.06 274.45 137.29 275.07 137.20 275.93 C 137.10 276.79 137.73 277.56 138.58 277.65 L 139.44 277.74 C 140.30 277.83 141.07 277.21 141.16 276.35 C 141.25 275.49 140.63 274.72 139.77 274.63 Z M 138.94 274.54 L 137.98 274.43 C 137.12 274.32 136.34 274.93 136.24 275.79 C 136.13 276.65 136.74 277.42 137.60 277.53 L 138.56 277.64 C 139.42 277.75 140.19 277.14 140.30 276.28 C 140.40 275.43 139.79 274.65 138.94 274.54 Z M 138.00 274.43 L 137.00 274.30 C 136.15 274.18 135.36 274.78 135.25 275.64 C 135.13 276.49 135.73 277.28 136.59 277.39 L 137.58 277.53 C 138.43 277.64 139.22 277.04 139.33 276.19 C 139.45 275.33 138.85 274.55 138.00 274.43 Z M 137.02 274.30 L 136.02 274.15 C 135.16 274.03 134.37 274.62 134.25 275.48 C 134.13 276.33 134.72 277.12 135.57 277.25 L 136.57 277.39 C 137.43 277.51 138.22 276.92 138.34 276.07 C 138.46 275.21 137.87 274.42 137.02 274.30 Z M 136.02 274.16 L 135.02 274.01 C 134.16 273.88 133.37 274.47 133.24 275.32 C 133.12 276.17 133.70 276.97 134.56 277.09 L 135.56 277.24 C 136.42 277.37 137.21 276.78 137.34 275.93 C 137.46 275.08 136.88 274.28 136.02 274.16 Z M 135.03 274.01 L 134.01 273.85 C 133.16 273.72 132.36 274.30 132.23 275.16 C 132.10 276.01 132.69 276.81 133.54 276.94 L 134.55 277.09 C 135.40 277.22 136.20 276.64 136.33 275.79 C 136.46 274.94 135.88 274.14 135.03 274.01 Z M 134.03 273.85 L 133.05 273.69 C 132.20 273.55 131.39 274.12 131.25 274.97 C 131.11 275.82 131.68 276.63 132.53 276.77 L 133.52 276.93 C 134.37 277.08 135.17 276.50 135.32 275.65 C 135.46 274.80 134.88 274.00 134.03 273.85 Z M 133.08 273.70 L 132.12 273.52 C 131.27 273.36 130.46 273.92 130.30 274.77 C 130.14 275.61 130.70 276.43 131.55 276.59 L 132.50 276.77 C 133.35 276.92 134.17 276.36 134.32 275.52 C 134.48 274.67 133.92 273.85 133.08 273.70 Z M 132.16 273.53 L 131.23 273.32 C 130.38 273.14 129.55 273.68 129.37 274.52 C 129.19 275.36 129.72 276.19 130.56 276.37 L 131.50 276.58 C 132.34 276.76 133.18 276.23 133.36 275.38 C 133.54 274.54 133.01 273.71 132.16 273.53 Z M 131.31 273.34 L 130.38 273.09 C 129.54 272.86 128.69 273.35 128.46 274.18 C 128.23 275.02 128.72 275.87 129.55 276.10 L 130.49 276.36 C 131.32 276.58 132.18 276.09 132.40 275.26 C 132.63 274.43 132.14 273.57 131.31 273.34 Z M 130.48 273.12 L 129.53 272.79 C 128.71 272.50 127.82 272.93 127.54 273.74 C 127.25 274.55 127.68 275.44 128.49 275.73 L 129.45 276.07 C 130.26 276.35 131.15 275.93 131.44 275.11 C 131.72 274.30 131.30 273.41 130.48 273.12 Z M 129.64 272.83 L 128.69 272.41 C 127.91 272.06 126.98 272.42 126.63 273.21 C 126.28 273.99 126.64 274.92 127.43 275.27 L 128.38 275.69 C 129.16 276.03 130.09 275.68 130.43 274.89 C 130.78 274.10 130.43 273.18 129.64 272.83 Z M 128.79 272.46 L 127.90 271.99 C 127.14 271.59 126.19 271.88 125.79 272.64 C 125.39 273.41 125.68 274.35 126.45 274.75 L 127.33 275.22 C 128.10 275.62 129.04 275.33 129.44 274.57 C 129.84 273.80 129.55 272.86 128.79 272.46 Z M 127.98 272.04 L 127.10 271.50 C 126.36 271.06 125.40 271.29 124.96 272.03 C 124.51 272.77 124.75 273.73 125.49 274.18 L 126.37 274.71 C 127.10 275.15 128.06 274.92 128.51 274.18 C 128.96 273.44 128.72 272.48 127.98 272.04 Z M 127.18 271.56 L 126.35 270.98 C 125.65 270.49 124.67 270.66 124.18 271.37 C 123.69 272.08 123.86 273.05 124.57 273.54 L 125.40 274.12 C 126.11 274.61 127.08 274.44 127.57 273.73 C 128.07 273.02 127.89 272.05 127.18 271.56 Z M 126.45 271.06 L 125.67 270.41 C 125.01 269.87 124.02 269.96 123.47 270.63 C 122.93 271.29 123.02 272.28 123.69 272.83 L 124.47 273.47 C 125.14 274.02 126.12 273.92 126.67 273.25 C 127.22 272.59 127.12 271.60 126.45 271.06 Z M 125.80 270.53 L 125.06 269.78 C 124.46 269.16 123.47 269.15 122.86 269.75 C 122.24 270.36 122.23 271.35 122.83 271.96 L 123.56 272.71 C 124.17 273.33 125.16 273.34 125.77 272.74 C 126.39 272.13 126.40 271.14 125.80 270.53 Z M 125.18 269.92 L 124.59 269.15 C 124.06 268.46 123.08 268.34 122.40 268.87 C 121.72 269.39 121.59 270.37 122.12 271.06 L 122.71 271.82 C 123.24 272.51 124.22 272.63 124.90 272.11 C 125.58 271.58 125.71 270.60 125.18 269.92 Z M 124.68 269.28 L 124.18 268.48 C 123.73 267.75 122.76 267.52 122.03 267.98 C 121.30 268.43 121.08 269.40 121.53 270.13 L 122.03 270.93 C 122.48 271.66 123.45 271.88 124.18 271.43 C 124.91 270.97 125.13 270.01 124.68 269.28 Z M 124.24 268.59 L 123.80 267.72 C 123.40 266.96 122.46 266.66 121.69 267.06 C 120.93 267.45 120.63 268.40 121.03 269.16 L 121.47 270.02 C 121.87 270.79 122.81 271.09 123.58 270.69 C 124.34 270.29 124.64 269.35 124.24 268.59 Z M 123.84 267.81 L 123.44 266.91 C 123.09 266.12 122.17 265.76 121.38 266.11 C 120.59 266.46 120.24 267.38 120.58 268.17 L 120.98 269.07 C 121.33 269.86 122.25 270.22 123.04 269.87 C 123.83 269.53 124.19 268.60 123.84 267.81 Z M 123.47 266.98 L 123.11 266.02 C 122.80 265.22 121.90 264.81 121.09 265.12 C 120.29 265.43 119.88 266.33 120.19 267.13 L 120.55 268.09 C 120.86 268.90 121.76 269.30 122.57 269.00 C 123.37 268.69 123.78 267.79 123.47 266.98 Z M 123.12 266.07 L 122.80 265.13 C 122.52 264.31 121.64 263.87 120.82 264.15 C 120.00 264.43 119.57 265.32 119.85 266.13 L 120.17 267.08 C 120.45 267.90 121.33 268.33 122.15 268.06 C 122.97 267.78 123.40 266.89 123.12 266.07 Z M 122.82 265.17 L 122.52 264.21 C 122.26 263.38 121.39 262.92 120.56 263.18 C 119.74 263.43 119.28 264.31 119.53 265.13 L 119.83 266.09 C 120.09 266.92 120.96 267.38 121.79 267.12 C 122.61 266.87 123.07 265.99 122.82 265.17 Z M 122.53 264.25 L 122.26 263.28 C 122.03 262.45 121.17 261.96 120.34 262.19 C 119.50 262.42 119.02 263.28 119.25 264.12 L 119.52 265.09 C 119.75 265.92 120.62 266.40 121.45 266.17 C 122.28 265.94 122.76 265.08 122.53 264.25 Z M 122.27 263.32 L 122.03 262.35 C 121.82 261.51 120.98 261.00 120.14 261.20 C 119.30 261.41 118.79 262.26 119.00 263.09 L 119.24 264.07 C 119.45 264.91 120.29 265.42 121.13 265.21 C 121.97 265.01 122.48 264.16 122.27 263.32 Z M 122.04 262.40 L 121.83 261.40 C 121.65 260.55 120.83 260.01 119.98 260.19 C 119.14 260.37 118.60 261.20 118.78 262.04 L 118.99 263.04 C 119.16 263.88 119.99 264.42 120.84 264.25 C 121.68 264.07 122.22 263.24 122.04 262.40 Z M 121.84 261.45 L 121.67 260.47 C 121.52 259.62 120.71 259.05 119.86 259.20 C 119.01 259.35 118.45 260.16 118.59 261.01 L 118.77 261.99 C 118.91 262.84 119.72 263.41 120.57 263.26 C 121.42 263.11 121.99 262.30 121.84 261.45 Z M 121.68 260.52 L 121.54 259.55 C 121.42 258.70 120.63 258.11 119.77 258.23 C 118.92 258.35 118.33 259.14 118.45 260.00 L 118.59 260.96 C 118.71 261.82 119.50 262.41 120.35 262.29 C 121.21 262.17 121.80 261.37 121.68 260.52 Z M 121.55 259.60 L 121.44 258.63 C 121.34 257.78 120.56 257.16 119.71 257.26 C 118.85 257.36 118.24 258.13 118.33 258.99 L 118.44 259.95 C 118.54 260.81 119.32 261.42 120.17 261.33 C 121.03 261.23 121.64 260.45 121.55 259.60 Z M 121.44 258.67 L 121.35 257.69 C 121.27 256.83 120.52 256.19 119.66 256.27 C 118.80 256.35 118.16 257.11 118.24 257.97 L 118.33 258.95 C 118.41 259.81 119.17 260.44 120.02 260.36 C 120.88 260.29 121.52 259.53 121.44 258.67 Z M 121.35 257.72 L 121.28 256.70 C 121.22 255.84 120.48 255.19 119.62 255.25 C 118.76 255.31 118.11 256.06 118.17 256.92 L 118.24 257.94 C 118.30 258.80 119.05 259.44 119.91 259.38 C 120.77 259.32 121.41 258.58 121.35 257.72 Z M 121.28 256.72 L 121.23 255.71 C 121.18 254.85 120.44 254.19 119.58 254.24 C 118.72 254.29 118.06 255.02 118.11 255.88 L 118.17 256.90 C 118.21 257.76 118.95 258.42 119.81 258.37 C 120.67 258.32 121.33 257.58 121.28 256.72 Z M 121.23 255.72 L 121.18 254.71 C 121.14 253.85 120.41 253.19 119.55 253.23 C 118.69 253.27 118.02 254.00 118.06 254.86 L 118.11 255.87 C 118.15 256.73 118.88 257.40 119.74 257.36 C 120.60 257.32 121.27 256.59 121.23 255.72 Z M 121.18 254.72 L 121.14 253.71 C 121.10 252.85 120.38 252.18 119.52 252.22 C 118.65 252.25 117.98 252.98 118.02 253.84 L 118.06 254.85 C 118.10 255.71 118.82 256.38 119.68 256.35 C 120.55 256.31 121.22 255.58 121.18 254.72 Z M 121.14 253.72 L 121.10 252.74 C 121.07 251.87 120.35 251.20 119.48 251.23 C 118.62 251.27 117.95 251.99 117.98 252.85 L 118.02 253.83 C 118.05 254.70 118.78 255.37 119.64 255.34 C 120.50 255.30 121.17 254.58 121.14 253.72 Z M 121.10 252.74 L 121.07 251.80 C 121.04 250.94 120.32 250.27 119.45 250.30 C 118.59 250.33 117.92 251.05 117.95 251.91 L 117.98 252.85 C 118.01 253.71 118.74 254.39 119.60 254.35 C 120.46 254.32 121.13 253.60 121.10 252.74 Z M 121.07 251.81 L 121.04 250.86 C 121.02 250.00 120.30 249.32 119.44 249.35 C 118.58 249.37 117.90 250.09 117.92 250.95 L 117.95 251.90 C 117.97 252.76 118.69 253.44 119.55 253.42 C 120.41 253.39 121.09 252.68 121.07 251.81 Z M 121.04 250.88 L 121.03 249.85 C 121.02 248.99 120.31 248.30 119.44 248.32 C 118.58 248.33 117.89 249.04 117.91 249.90 L 117.92 250.93 C 117.94 251.79 118.64 252.48 119.51 252.47 C 120.37 252.46 121.06 251.75 121.04 250.88 Z M 121.03 249.87 L 121.03 248.84 C 121.03 247.98 120.33 247.28 119.46 247.29 C 118.60 247.29 117.90 247.99 117.90 248.85 L 117.91 249.88 C 117.91 250.74 118.61 251.44 119.47 251.44 C 120.33 251.44 121.03 250.74 121.03 249.87 Z M 121.03 248.87 L 121.04 247.93 C 121.05 247.07 120.36 246.36 119.50 246.35 C 118.64 246.34 117.93 247.03 117.92 247.89 L 117.90 248.83 C 117.89 249.69 118.58 250.40 119.45 250.41 C 120.31 250.42 121.02 249.73 121.03 248.87 Z M 121.04 247.96 L 121.07 246.96 C 121.10 246.10 120.42 245.38 119.56 245.35 C 118.70 245.32 117.98 246.00 117.95 246.86 L 117.92 247.86 C 117.89 248.72 118.57 249.44 119.43 249.47 C 120.29 249.50 121.01 248.82 121.04 247.96 Z M 121.07 247.00 L 121.13 245.96 C 121.18 245.10 120.52 244.37 119.66 244.32 C 118.80 244.27 118.06 244.92 118.01 245.78 L 117.95 246.82 C 117.90 247.68 118.56 248.42 119.42 248.47 C 120.28 248.52 121.02 247.86 121.07 247.00 Z M 121.12 246.02 L 121.22 244.97 C 121.30 244.11 120.67 243.35 119.81 243.27 C 118.95 243.19 118.19 243.83 118.11 244.68 L 118.02 245.73 C 117.94 246.59 118.57 247.35 119.43 247.43 C 120.28 247.51 121.05 246.88 121.12 246.02 Z M 121.21 245.04 L 121.36 244.00 C 121.47 243.14 120.88 242.36 120.02 242.24 C 119.17 242.12 118.38 242.72 118.26 243.57 L 118.12 244.62 C 118.00 245.47 118.60 246.26 119.45 246.37 C 120.31 246.49 121.10 245.89 121.21 245.04 Z M 121.34 244.07 L 121.54 243.05 C 121.70 242.20 121.14 241.38 120.29 241.22 C 119.44 241.07 118.63 241.62 118.47 242.47 L 118.28 243.50 C 118.12 244.34 118.67 245.16 119.52 245.32 C 120.37 245.48 121.19 244.92 121.34 244.07 Z M 121.52 243.12 L 121.76 242.13 C 121.95 241.29 121.43 240.45 120.59 240.25 C 119.75 240.05 118.91 240.57 118.72 241.41 L 118.48 242.40 C 118.29 243.24 118.81 244.08 119.65 244.28 C 120.49 244.48 121.33 243.96 121.52 243.12 Z M 121.74 242.19 L 122.00 241.23 C 122.24 240.40 121.75 239.54 120.92 239.31 C 120.09 239.08 119.23 239.57 119.00 240.40 L 118.73 241.35 C 118.50 242.18 118.99 243.04 119.82 243.27 C 120.65 243.50 121.51 243.02 121.74 242.19 Z M 121.99 241.28 L 122.28 240.37 C 122.53 239.55 122.08 238.67 121.25 238.42 C 120.43 238.16 119.56 238.62 119.30 239.44 L 119.01 240.35 C 118.75 241.17 119.21 242.05 120.03 242.31 C 120.86 242.56 121.73 242.11 121.99 241.28 Z M 122.26 240.41 L 122.57 239.52 C 122.85 238.71 122.42 237.82 121.60 237.54 C 120.79 237.25 119.90 237.69 119.62 238.50 L 119.31 239.40 C 119.03 240.21 119.46 241.10 120.28 241.38 C 121.09 241.66 121.98 241.23 122.26 240.41 Z M 122.56 239.56 L 122.89 238.68 C 123.19 237.87 122.79 236.97 121.98 236.67 C 121.17 236.36 120.27 236.77 119.97 237.58 L 119.63 238.46 C 119.33 239.27 119.74 240.17 120.54 240.47 C 121.35 240.78 122.25 240.37 122.56 239.56 Z M 122.87 238.72 L 123.24 237.83 C 123.56 237.03 123.18 236.12 122.38 235.79 C 121.59 235.47 120.67 235.85 120.35 236.65 L 119.98 237.53 C 119.66 238.33 120.04 239.24 120.84 239.57 C 121.63 239.90 122.55 239.52 122.87 238.72 Z M 123.22 237.87 L 123.63 236.94 C 123.98 236.16 123.62 235.23 122.83 234.89 C 122.04 234.54 121.12 234.90 120.77 235.69 L 120.36 236.61 C 120.02 237.40 120.37 238.32 121.16 238.67 C 121.95 239.01 122.87 238.66 123.22 237.87 Z M 123.61 236.97 L 124.08 235.98 C 124.44 235.20 124.10 234.27 123.32 233.91 C 122.54 233.54 121.61 233.88 121.25 234.66 L 120.78 235.66 C 120.42 236.44 120.76 237.37 121.54 237.73 C 122.32 238.09 123.25 237.76 123.61 236.97 Z M 124.07 236.00 L 124.48 235.14 C 124.86 234.37 124.54 233.43 123.76 233.06 C 122.98 232.68 122.05 233.00 121.67 233.78 L 121.26 234.64 C 120.88 235.42 121.21 236.35 121.98 236.73 C 122.76 237.10 123.69 236.78 124.07 236.00 Z M 124.48 235.16 L 124.92 234.27 C 125.30 233.49 124.99 232.56 124.22 232.17 C 123.44 231.79 122.51 232.11 122.12 232.88 L 121.68 233.77 C 121.30 234.54 121.61 235.48 122.38 235.86 C 123.16 236.24 124.09 235.93 124.48 235.16 Z M 124.91 234.28 L 125.38 233.37 C 125.77 232.60 125.46 231.66 124.69 231.27 C 123.92 230.88 122.98 231.18 122.59 231.95 L 122.13 232.87 C 121.74 233.63 122.04 234.57 122.81 234.96 C 123.58 235.35 124.52 235.05 124.91 234.28 Z M 125.37 233.38 L 125.85 232.46 C 126.24 231.69 125.94 230.75 125.18 230.35 C 124.41 229.96 123.47 230.26 123.07 231.02 L 122.60 231.94 C 122.20 232.71 122.50 233.65 123.27 234.04 C 124.03 234.44 124.97 234.14 125.37 233.38 Z M 125.84 232.47 L 126.32 231.57 C 126.72 230.81 126.43 229.86 125.67 229.46 C 124.91 229.06 123.96 229.35 123.56 230.11 L 123.08 231.01 C 122.68 231.77 122.97 232.72 123.73 233.12 C 124.49 233.52 125.44 233.23 125.84 232.47 Z M 126.31 231.58 L 126.78 230.71 C 127.19 229.96 126.91 229.01 126.15 228.60 C 125.39 228.19 124.44 228.47 124.03 229.23 L 123.56 230.10 C 123.15 230.85 123.44 231.80 124.20 232.21 C 124.95 232.62 125.90 232.34 126.31 231.58 Z M 126.77 230.73 L 127.32 229.75 C 127.74 229.00 127.46 228.05 126.71 227.63 C 125.96 227.21 125.01 227.48 124.59 228.23 L 124.04 229.21 C 123.62 229.97 123.89 230.92 124.65 231.34 C 125.40 231.75 126.35 231.48 126.77 230.73 Z M 127.30 229.77 L 127.83 228.86 C 128.26 228.12 128.00 227.16 127.25 226.73 C 126.51 226.30 125.55 226.56 125.12 227.31 L 124.60 228.21 C 124.17 228.96 124.43 229.91 125.17 230.34 C 125.92 230.77 126.87 230.52 127.30 229.77 Z M 127.81 228.89 L 128.32 228.04 C 128.76 227.30 128.52 226.35 127.78 225.90 C 127.04 225.46 126.08 225.70 125.64 226.44 L 125.13 227.28 C 124.69 228.02 124.93 228.98 125.67 229.42 C 126.41 229.87 127.37 229.63 127.81 228.89 Z M 128.30 228.07 L 128.80 227.28 C 129.25 226.55 129.03 225.59 128.30 225.13 C 127.57 224.67 126.61 224.89 126.15 225.62 L 125.66 226.41 C 125.20 227.14 125.42 228.11 126.15 228.56 C 126.88 229.02 127.84 228.80 128.30 228.07 Z M 128.78 227.31 L 129.29 226.53 C 129.76 225.81 129.56 224.85 128.84 224.37 C 128.12 223.90 127.15 224.10 126.68 224.82 L 126.17 225.59 C 125.70 226.31 125.90 227.28 126.62 227.76 C 127.34 228.23 128.31 228.03 128.78 227.31 Z M 129.27 226.57 L 129.86 225.70 C 130.35 225.00 130.18 224.02 129.47 223.53 C 128.76 223.04 127.79 223.22 127.30 223.93 L 126.70 224.79 C 126.21 225.50 126.38 226.47 127.09 226.96 C 127.80 227.45 128.77 227.28 129.27 226.57 Z M 129.84 225.74 L 130.44 224.92 C 130.94 224.22 130.79 223.25 130.09 222.74 C 129.40 222.23 128.42 222.38 127.91 223.08 L 127.32 223.90 C 126.81 224.59 126.96 225.57 127.66 226.08 C 128.36 226.59 129.33 226.43 129.84 225.74 Z M 130.42 224.95 L 131.01 224.17 C 131.53 223.48 131.40 222.50 130.71 221.98 C 130.03 221.46 129.05 221.59 128.52 222.28 L 127.93 223.05 C 127.41 223.74 127.54 224.72 128.23 225.24 C 128.91 225.76 129.89 225.63 130.42 224.95 Z M 130.99 224.19 L 131.58 223.44 C 132.12 222.77 132.00 221.78 131.33 221.25 C 130.65 220.71 129.67 220.83 129.14 221.50 L 128.54 222.25 C 128.01 222.93 128.12 223.91 128.80 224.45 C 129.47 224.98 130.46 224.87 130.99 224.19 Z M 131.57 223.46 L 132.20 222.69 C 132.75 222.02 132.65 221.04 131.99 220.49 C 131.32 219.94 130.34 220.04 129.79 220.71 L 129.15 221.48 C 128.61 222.15 128.70 223.13 129.37 223.68 C 130.04 224.23 131.02 224.13 131.57 223.46 Z M 132.18 222.72 L 132.82 221.97 C 133.39 221.32 133.32 220.33 132.67 219.77 C 132.01 219.20 131.03 219.28 130.46 219.93 L 129.82 220.68 C 129.25 221.33 129.32 222.31 129.97 222.88 C 130.63 223.44 131.61 223.37 132.18 222.72 Z M 132.79 222.01 L 133.47 221.28 C 134.05 220.65 134.01 219.66 133.38 219.07 C 132.75 218.49 131.76 218.52 131.18 219.16 L 130.50 219.89 C 129.91 220.52 129.95 221.51 130.58 222.10 C 131.22 222.68 132.20 222.64 132.79 222.01 Z M 133.43 221.32 L 134.13 220.61 C 134.74 220.00 134.74 219.01 134.13 218.41 C 133.52 217.80 132.53 217.80 131.92 218.41 L 131.22 219.12 C 130.61 219.73 130.61 220.71 131.22 221.32 C 131.83 221.93 132.82 221.93 133.43 221.32 Z M 134.09 220.65 L 134.82 219.97 C 135.45 219.38 135.49 218.39 134.90 217.76 C 134.31 217.13 133.32 217.10 132.69 217.69 L 131.96 218.37 C 131.33 218.96 131.30 219.95 131.89 220.58 C 132.47 221.21 133.46 221.24 134.09 220.65 Z M 134.79 220.00 L 135.55 219.34 C 136.20 218.77 136.26 217.78 135.69 217.13 C 135.13 216.49 134.14 216.42 133.49 216.99 L 132.73 217.65 C 132.08 218.22 132.02 219.21 132.58 219.86 C 133.15 220.50 134.14 220.57 134.79 220.00 Z M 135.51 219.37 L 136.28 218.73 C 136.95 218.18 137.05 217.20 136.50 216.53 C 135.95 215.87 134.97 215.77 134.30 216.32 L 133.53 216.96 C 132.86 217.50 132.77 218.49 133.31 219.15 C 133.86 219.82 134.84 219.92 135.51 219.37 Z M 136.25 218.76 L 137.04 218.15 C 137.73 217.62 137.85 216.64 137.33 215.96 C 136.80 215.27 135.82 215.15 135.14 215.67 L 134.34 216.29 C 133.66 216.82 133.53 217.80 134.06 218.48 C 134.58 219.16 135.56 219.29 136.25 218.76 Z M 137.01 218.17 L 137.82 217.58 C 138.52 217.07 138.67 216.09 138.16 215.40 C 137.65 214.70 136.67 214.55 135.98 215.06 L 135.17 215.65 C 134.47 216.16 134.32 217.14 134.83 217.83 C 135.34 218.53 136.32 218.68 137.01 218.17 Z M 137.80 217.59 L 138.61 217.02 C 139.31 216.52 139.48 215.55 138.98 214.84 C 138.48 214.14 137.51 213.97 136.80 214.47 L 135.99 215.05 C 135.29 215.54 135.13 216.52 135.62 217.22 C 136.12 217.93 137.10 218.09 137.80 217.59 Z M 138.61 217.02 L 139.42 216.45 C 140.12 215.95 140.29 214.98 139.79 214.27 C 139.30 213.57 138.32 213.40 137.62 213.90 L 136.81 214.47 C 136.10 214.97 135.93 215.94 136.43 216.65 C 136.93 217.35 137.90 217.52 138.61 217.02 Z M 139.43 216.44 L 140.23 215.87 C 140.93 215.36 141.08 214.39 140.58 213.69 C 140.08 212.99 139.10 212.83 138.40 213.33 L 137.61 213.91 C 136.91 214.41 136.75 215.39 137.25 216.08 C 137.76 216.78 138.73 216.94 139.43 216.44 Z M 140.24 215.85 L 141.04 215.26 C 141.74 214.74 141.88 213.77 141.37 213.07 C 140.85 212.38 139.87 212.24 139.18 212.75 L 138.38 213.35 C 137.69 213.86 137.55 214.84 138.06 215.53 C 138.57 216.22 139.55 216.37 140.24 215.85 Z M 141.07 215.24 L 141.87 214.62 C 142.55 214.10 142.67 213.12 142.15 212.43 C 141.62 211.75 140.64 211.63 139.96 212.15 L 139.16 212.77 C 138.48 213.30 138.35 214.28 138.88 214.96 C 139.41 215.64 140.39 215.77 141.07 215.24 Z M 141.90 214.60 L 142.68 213.96 C 143.35 213.42 143.45 212.44 142.91 211.77 C 142.37 211.10 141.38 211.00 140.72 211.54 L 139.93 212.18 C 139.26 212.72 139.16 213.70 139.70 214.37 C 140.24 215.04 141.23 215.14 141.90 214.60 Z M 142.71 213.94 L 143.46 213.30 C 144.12 212.74 144.20 211.75 143.64 211.10 C 143.08 210.44 142.10 210.36 141.44 210.92 L 140.69 211.56 C 140.03 212.12 139.95 213.11 140.51 213.76 C 141.07 214.42 142.05 214.50 142.71 213.94 Z M 143.49 213.28 L 144.23 212.62 C 144.88 212.05 144.94 211.06 144.37 210.41 C 143.80 209.77 142.81 209.71 142.17 210.28 L 141.42 210.94 C 140.77 211.51 140.71 212.50 141.28 213.14 C 141.85 213.79 142.84 213.85 143.49 213.28 Z M 144.25 212.60 L 145.00 211.92 C 145.63 211.34 145.68 210.36 145.10 209.72 C 144.52 209.08 143.53 209.04 142.89 209.62 L 142.15 210.29 C 141.51 210.87 141.47 211.86 142.05 212.50 C 142.63 213.14 143.61 213.18 144.25 212.60 Z M 145.01 211.92 L 145.75 211.23 C 146.38 210.64 146.42 209.65 145.83 209.02 C 145.25 208.39 144.26 208.35 143.63 208.94 L 142.88 209.63 C 142.25 210.21 142.21 211.20 142.80 211.83 C 143.39 212.46 144.37 212.50 145.01 211.92 Z M 145.75 211.22 L 146.49 210.53 C 147.12 209.94 147.16 208.95 146.57 208.32 C 145.98 207.69 144.99 207.66 144.36 208.25 L 143.62 208.94 C 142.99 209.53 142.96 210.52 143.55 211.15 C 144.13 211.78 145.12 211.81 145.75 211.22 Z M 146.49 210.53 L 147.23 209.85 C 147.86 209.26 147.90 208.27 147.31 207.64 C 146.72 207.01 145.73 206.97 145.10 207.56 L 144.36 208.25 C 143.73 208.83 143.70 209.82 144.28 210.45 C 144.87 211.08 145.86 211.12 146.49 210.53 Z M 147.22 209.86 L 147.95 209.19 C 148.59 208.60 148.63 207.62 148.05 206.98 C 147.47 206.34 146.48 206.30 145.84 206.88 L 145.11 207.55 C 144.47 208.13 144.43 209.12 145.01 209.76 C 145.59 210.39 146.58 210.44 147.22 209.86 Z M 147.93 209.20 L 148.68 208.54 C 149.32 207.97 149.38 206.98 148.81 206.34 C 148.24 205.69 147.25 205.63 146.61 206.20 L 145.86 206.87 C 145.22 207.44 145.16 208.42 145.73 209.07 C 146.30 209.72 147.29 209.77 147.93 209.20 Z M 148.65 208.56 L 149.43 207.91 C 150.09 207.35 150.17 206.36 149.61 205.71 C 149.05 205.05 148.07 204.97 147.41 205.52 L 146.63 206.18 C 145.98 206.74 145.89 207.73 146.45 208.38 C 147.01 209.04 147.99 209.12 148.65 208.56 Z M 149.40 207.93 L 150.17 207.30 C 150.84 206.76 150.95 205.78 150.41 205.11 C 149.86 204.44 148.88 204.33 148.21 204.88 L 147.44 205.50 C 146.77 206.04 146.66 207.03 147.21 207.70 C 147.75 208.37 148.73 208.47 149.40 207.93 Z M 150.15 207.33 L 150.92 206.73 C 151.60 206.20 151.73 205.22 151.21 204.54 C 150.68 203.86 149.70 203.73 149.02 204.26 L 148.24 204.85 C 147.56 205.38 147.43 206.36 147.96 207.04 C 148.48 207.73 149.46 207.85 150.15 207.33 Z M 150.90 206.75 L 151.70 206.15 C 152.40 205.64 152.54 204.66 152.03 203.97 C 151.52 203.28 150.54 203.13 149.85 203.64 L 149.04 204.24 C 148.35 204.75 148.20 205.72 148.71 206.42 C 149.22 207.11 150.20 207.26 150.90 206.75 Z M 151.70 206.15 L 152.51 205.56 C 153.21 205.05 153.36 204.07 152.84 203.37 C 152.33 202.68 151.36 202.53 150.66 203.04 L 149.85 203.64 C 149.16 204.15 149.01 205.13 149.52 205.82 C 150.03 206.52 151.01 206.67 151.70 206.15 Z M 152.55 205.53 L 153.33 204.92 C 154.01 204.39 154.13 203.40 153.60 202.73 C 153.07 202.05 152.09 201.93 151.41 202.46 L 150.62 203.07 C 149.95 203.60 149.83 204.58 150.36 205.26 C 150.89 205.94 151.87 206.06 152.55 205.53 Z M 153.41 204.85 L 154.15 204.19 C 154.80 203.62 154.85 202.64 154.28 201.99 C 153.71 201.35 152.72 201.29 152.08 201.86 L 151.33 202.52 C 150.69 203.09 150.63 204.08 151.20 204.72 C 151.78 205.37 152.76 205.43 153.41 204.85 Z M 154.25 204.10 L 154.95 203.35 C 155.54 202.72 155.51 201.74 154.88 201.15 C 154.25 200.56 153.26 200.59 152.67 201.22 L 151.98 201.96 C 151.39 202.59 151.42 203.58 152.05 204.17 C 152.68 204.76 153.66 204.72 154.25 204.10 Z M 155.06 203.22 L 155.66 202.42 C 156.18 201.73 156.04 200.75 155.35 200.24 C 154.65 199.72 153.68 199.86 153.16 200.55 L 152.56 201.35 C 152.05 202.04 152.19 203.02 152.88 203.53 C 153.57 204.05 154.55 203.91 155.06 203.22 Z M 155.77 202.25 L 156.25 201.40 C 156.67 200.65 156.40 199.69 155.65 199.27 C 154.90 198.85 153.95 199.12 153.53 199.87 L 153.05 200.72 C 152.63 201.47 152.89 202.42 153.65 202.85 C 154.40 203.27 155.35 203.00 155.77 202.25 Z M 156.34 201.19 L 156.67 200.34 C 156.98 199.54 156.58 198.63 155.77 198.33 C 154.97 198.02 154.06 198.42 153.76 199.22 L 153.43 200.08 C 153.12 200.88 153.52 201.78 154.33 202.09 C 155.13 202.40 156.04 202.00 156.34 201.19 Z M 156.73 200.15 L 156.95 199.22 C 157.15 198.39 156.64 197.54 155.80 197.34 C 154.96 197.14 154.12 197.66 153.92 198.50 L 153.69 199.42 C 153.49 200.26 154.01 201.10 154.85 201.30 C 155.69 201.50 156.53 200.99 156.73 200.15 Z M 156.98 199.07 L 157.12 198.04 C 157.24 197.18 156.64 196.39 155.78 196.28 C 154.93 196.16 154.14 196.76 154.03 197.62 L 153.89 198.65 C 153.77 199.50 154.37 200.29 155.22 200.41 C 156.08 200.52 156.87 199.92 156.98 199.07 Z M 157.13 197.94 L 157.21 196.92 C 157.27 196.06 156.62 195.31 155.76 195.25 C 154.90 195.19 154.15 195.83 154.09 196.69 L 154.02 197.71 C 153.95 198.57 154.60 199.32 155.46 199.38 C 156.32 199.45 157.07 198.80 157.13 197.94 Z M 157.21 196.86 L 157.24 195.98 C 157.27 195.12 156.59 194.40 155.73 194.37 C 154.87 194.34 154.15 195.02 154.12 195.88 L 154.09 196.75 C 154.06 197.62 154.73 198.34 155.60 198.37 C 156.46 198.40 157.18 197.72 157.21 196.86 Z M 157.24 195.92 L 157.23 194.98 C 157.23 194.11 156.53 193.42 155.66 193.42 C 154.80 193.43 154.11 194.13 154.11 194.99 L 154.12 195.94 C 154.12 196.80 154.83 197.50 155.69 197.49 C 156.55 197.49 157.24 196.78 157.24 195.92 Z M 157.23 194.91 L 157.18 193.89 C 157.14 193.03 156.40 192.36 155.54 192.41 C 154.68 192.45 154.02 193.18 154.06 194.04 L 154.11 195.06 C 154.16 195.92 154.89 196.59 155.75 196.54 C 156.61 196.50 157.28 195.77 157.23 194.91 Z M 157.17 193.81 L 157.07 192.73 C 156.98 191.87 156.22 191.24 155.36 191.33 C 154.50 191.41 153.87 192.18 153.96 193.03 L 154.07 194.12 C 154.15 194.98 154.92 195.60 155.78 195.52 C 156.63 195.43 157.26 194.67 157.17 193.81 Z M 157.06 192.65 L 156.89 191.53 C 156.76 190.67 155.96 190.09 155.11 190.22 C 154.26 190.35 153.67 191.14 153.80 191.99 L 153.97 193.11 C 154.10 193.97 154.90 194.55 155.75 194.42 C 156.60 194.29 157.19 193.50 157.06 192.65 Z M 156.87 191.46 L 156.68 190.46 C 156.51 189.62 155.69 189.07 154.84 189.24 C 154.00 189.41 153.45 190.23 153.62 191.07 L 153.81 192.06 C 153.98 192.91 154.80 193.46 155.65 193.29 C 156.49 193.12 157.04 192.30 156.87 191.46 Z M 156.67 190.41 L 156.43 189.40 C 156.23 188.56 155.39 188.04 154.55 188.24 C 153.71 188.44 153.19 189.28 153.39 190.12 L 153.63 191.13 C 153.82 191.97 154.66 192.49 155.50 192.29 C 156.34 192.09 156.86 191.25 156.67 190.41 Z M 156.42 189.36 L 156.15 188.35 C 155.93 187.52 155.08 187.02 154.24 187.24 C 153.41 187.46 152.91 188.32 153.13 189.15 L 153.40 190.16 C 153.62 190.99 154.47 191.49 155.31 191.27 C 156.14 191.05 156.64 190.20 156.42 189.36 Z M 156.14 188.32 L 155.86 187.33 C 155.62 186.51 154.75 186.03 153.93 186.27 C 153.10 186.51 152.62 187.37 152.86 188.20 L 153.14 189.19 C 153.38 190.01 154.25 190.49 155.08 190.25 C 155.90 190.01 156.38 189.15 156.14 188.32 Z M 155.85 187.30 L 155.56 186.36 C 155.30 185.54 154.43 185.08 153.60 185.33 C 152.78 185.59 152.32 186.46 152.58 187.29 L 152.87 188.23 C 153.12 189.05 154.00 189.51 154.82 189.26 C 155.64 189.00 156.11 188.13 155.85 187.30 Z M 155.55 186.34 L 155.26 185.46 C 154.99 184.64 154.11 184.19 153.29 184.46 C 152.47 184.73 152.03 185.61 152.29 186.43 L 152.58 187.31 C 152.85 188.13 153.73 188.58 154.55 188.31 C 155.37 188.04 155.82 187.16 155.55 186.34 Z M 155.25 185.43 L 154.87 184.34 C 154.58 183.52 153.69 183.09 152.88 183.38 C 152.07 183.66 151.64 184.55 151.92 185.37 L 152.30 186.46 C 152.59 187.27 153.48 187.70 154.29 187.42 C 155.11 187.13 155.54 186.24 155.25 185.43 Z M 154.85 184.30 L 154.47 183.28 C 154.16 182.48 153.26 182.07 152.46 182.38 C 151.65 182.69 151.24 183.59 151.55 184.39 L 151.94 185.41 C 152.24 186.21 153.14 186.62 153.95 186.31 C 154.76 186.00 155.16 185.10 154.85 184.30 Z M 154.45 183.24 L 154.08 182.36 C 153.75 181.56 152.84 181.19 152.04 181.52 C 151.24 181.85 150.87 182.77 151.20 183.56 L 151.57 184.44 C 151.90 185.24 152.82 185.61 153.61 185.28 C 154.41 184.95 154.78 184.03 154.45 183.24 Z M 154.06 182.31 L 153.70 181.53 C 153.34 180.74 152.41 180.40 151.63 180.76 C 150.85 181.12 150.50 182.05 150.87 182.83 L 151.23 183.61 C 151.59 184.40 152.51 184.74 153.30 184.38 C 154.08 184.02 154.42 183.09 154.06 182.31 Z M 153.67 181.47 L 153.28 180.70 C 152.89 179.94 151.95 179.63 151.19 180.02 C 150.42 180.41 150.11 181.35 150.50 182.12 L 150.89 182.89 C 151.28 183.66 152.22 183.96 152.99 183.57 C 153.76 183.18 154.06 182.24 153.67 181.47 Z M 153.26 180.65 L 152.81 179.86 C 152.39 179.11 151.44 178.84 150.69 179.26 C 149.94 179.68 149.67 180.63 150.09 181.38 L 150.53 182.17 C 150.95 182.93 151.90 183.19 152.65 182.77 C 153.41 182.35 153.68 181.40 153.26 180.65 Z M 152.78 179.81 L 152.27 178.97 C 151.83 178.24 150.86 178.00 150.13 178.45 C 149.39 178.90 149.16 179.86 149.61 180.60 L 150.12 181.43 C 150.57 182.17 151.53 182.40 152.26 181.95 C 153.00 181.51 153.23 180.54 152.78 179.81 Z M 152.25 178.94 L 151.64 177.99 C 151.17 177.27 150.20 177.06 149.48 177.53 C 148.75 178.00 148.55 178.97 149.02 179.69 L 149.63 180.64 C 150.10 181.36 151.07 181.57 151.79 181.10 C 152.52 180.63 152.72 179.66 152.25 178.94 Z M 151.62 177.97 L 151.11 177.20 C 150.62 176.49 149.65 176.30 148.94 176.78 C 148.22 177.26 148.03 178.23 148.52 178.95 L 149.03 179.71 C 149.51 180.43 150.48 180.62 151.20 180.14 C 151.91 179.65 152.10 178.68 151.62 177.97 Z M 151.10 177.19 L 150.58 176.43 C 150.09 175.72 149.12 175.54 148.41 176.03 C 147.70 176.51 147.52 177.49 148.00 178.20 L 148.52 178.96 C 149.01 179.67 149.98 179.85 150.69 179.36 C 151.40 178.88 151.59 177.90 151.10 177.19 Z M 150.57 176.43 L 150.01 175.61 C 149.52 174.90 148.55 174.73 147.84 175.22 C 147.13 175.71 146.95 176.68 147.44 177.39 L 148.01 178.20 C 148.50 178.91 149.47 179.09 150.18 178.60 C 150.89 178.11 151.06 177.14 150.57 176.43 Z M 150.01 175.61 L 149.41 174.76 C 148.92 174.05 147.95 173.88 147.24 174.37 C 146.53 174.86 146.36 175.83 146.85 176.54 L 147.45 177.39 C 147.94 178.10 148.91 178.28 149.62 177.78 C 150.33 177.29 150.50 176.32 150.01 175.61 Z M 149.41 174.75 L 148.80 173.87 C 148.30 173.17 147.33 173.00 146.62 173.49 C 145.92 173.99 145.74 174.96 146.24 175.67 L 146.85 176.54 C 147.35 177.25 148.32 177.42 149.03 176.93 C 149.74 176.43 149.91 175.46 149.41 174.75 Z M 148.80 173.87 L 148.17 172.98 C 147.67 172.27 146.70 172.10 145.99 172.60 C 145.29 173.09 145.12 174.07 145.61 174.77 L 146.24 175.67 C 146.73 176.37 147.71 176.54 148.41 176.05 C 149.12 175.55 149.29 174.58 148.80 173.87 Z M 148.17 172.98 L 148.11 172.89 C 147.61 172.19 146.64 172.02 145.93 172.51 C 145.23 173.01 145.06 173.98 145.55 174.69 L 145.61 174.77 C 146.11 175.48 147.08 175.65 147.79 175.15 C 148.49 174.66 148.66 173.68 148.17 172.98 Z"
      fill="black"
      fill-rule="nonzero" /><path d="M 153.15 152.82 L 153.04 151.82 C 152.94 150.97 152.17 150.35 151.31 150.45 C 150.45 150.55 149.84 151.32 149.94 152.18 L 150.05 153.17 C 150.15 154.03 150.93 154.65 151.78 154.55 C 152.64 154.45 153.25 153.67 153.15 152.82 Z M 153.04 151.84 L 152.94 150.84 C 152.85 149.99 152.08 149.36 151.22 149.45 C 150.36 149.55 149.74 150.31 149.83 151.17 L 149.94 152.17 C 150.03 153.02 150.79 153.64 151.65 153.55 C 152.51 153.46 153.13 152.70 153.04 151.84 Z M 152.94 150.87 L 152.85 149.88 C 152.78 149.02 152.03 148.38 151.17 148.46 C 150.31 148.53 149.67 149.29 149.74 150.14 L 149.83 151.14 C 149.90 152.00 150.66 152.64 151.52 152.56 C 152.38 152.49 153.01 151.73 152.94 150.87 Z M 152.86 149.92 L 152.80 148.92 C 152.75 148.06 152.01 147.40 151.15 147.45 C 150.29 147.50 149.63 148.23 149.68 149.09 L 149.74 150.10 C 149.79 150.96 150.53 151.62 151.39 151.57 C 152.25 151.52 152.91 150.78 152.86 149.92 Z M 152.80 148.96 L 152.77 147.95 C 152.75 147.09 152.03 146.41 151.17 146.44 C 150.31 146.46 149.63 147.18 149.65 148.04 L 149.68 149.05 C 149.71 149.91 150.42 150.59 151.29 150.57 C 152.15 150.54 152.83 149.82 152.80 148.96 Z M 152.77 147.98 L 152.76 146.98 C 152.76 146.12 152.05 145.43 151.19 145.44 C 150.33 145.45 149.63 146.15 149.64 147.01 L 149.65 148.01 C 149.66 148.87 150.37 149.57 151.23 149.56 C 152.09 149.55 152.78 148.84 152.77 147.98 Z M 152.76 147.00 L 152.76 146.00 C 152.76 145.14 152.06 144.44 151.20 144.44 C 150.34 144.44 149.64 145.14 149.64 146.01 L 149.64 147.00 C 149.64 147.86 150.34 148.56 151.21 148.56 C 152.07 148.56 152.77 147.86 152.76 147.00 Z M 152.76 146.03 L 152.78 144.99 C 152.79 144.12 152.11 143.41 151.24 143.40 C 150.38 143.39 149.67 144.08 149.66 144.94 L 149.64 145.98 C 149.63 146.84 150.32 147.55 151.18 147.57 C 152.04 147.58 152.75 146.89 152.76 146.03 Z M 152.77 145.11 L 152.87 144.12 C 152.95 143.26 152.32 142.50 151.46 142.42 C 150.60 142.34 149.84 142.97 149.76 143.83 L 149.66 144.82 C 149.58 145.67 150.21 146.44 151.07 146.52 C 151.93 146.60 152.69 145.97 152.77 145.11 Z M 152.82 144.37 L 153.06 143.44 C 153.28 142.60 152.78 141.75 151.95 141.53 C 151.11 141.32 150.26 141.82 150.04 142.65 L 149.80 143.58 C 149.58 144.41 150.08 145.27 150.92 145.48 C 151.75 145.70 152.61 145.20 152.82 144.37 Z M 152.90 143.83 L 153.51 142.79 C 153.94 142.04 153.69 141.09 152.95 140.65 C 152.20 140.22 151.25 140.47 150.81 141.22 L 150.20 142.26 C 149.77 143.00 150.02 143.96 150.77 144.39 C 151.51 144.83 152.47 144.58 152.90 143.83 Z M 152.99 143.33 L 153.66 142.90 C 154.39 142.45 154.61 141.48 154.16 140.75 C 153.70 140.02 152.73 139.80 152.00 140.26 L 151.33 140.68 C 150.60 141.14 150.38 142.10 150.84 142.83 C 151.30 143.56 152.26 143.78 152.99 143.33 Z M 151.68 142.64 L 152.10 143.09 C 152.68 143.73 153.67 143.77 154.31 143.19 C 154.94 142.60 154.98 141.62 154.40 140.98 L 153.98 140.53 C 153.40 139.89 152.41 139.85 151.78 140.43 C 151.14 141.01 151.10 142.00 151.68 142.64 Z M 151.71 142.32 L 151.90 143.36 C 152.06 144.21 152.87 144.77 153.72 144.61 C 154.57 144.46 155.13 143.64 154.98 142.80 L 154.79 141.75 C 154.63 140.91 153.82 140.35 152.97 140.50 C 152.12 140.66 151.56 141.47 151.71 142.32 Z M 151.88 143.11 L 151.91 144.34 C 151.93 145.20 152.64 145.88 153.50 145.86 C 154.37 145.85 155.05 145.13 155.03 144.27 L 155.00 143.04 C 154.98 142.18 154.27 141.50 153.41 141.52 C 152.54 141.54 151.86 142.25 151.88 143.11 Z M 151.92 144.13 L 151.79 145.21 C 151.70 146.07 152.31 146.84 153.17 146.94 C 154.03 147.04 154.80 146.42 154.90 145.56 L 155.02 144.48 C 155.12 143.62 154.50 142.85 153.64 142.75 C 152.79 142.66 152.01 143.27 151.92 144.13 Z M 151.91 144.78 L 151.55 145.62 C 151.22 146.42 151.59 147.33 152.39 147.67 C 153.18 148.00 154.10 147.63 154.43 146.83 L 154.79 145.99 C 155.12 145.20 154.74 144.28 153.95 143.95 C 153.15 143.62 152.24 143.99 151.91 144.78 Z M 152.16 144.91 L 151.43 145.37 C 150.70 145.82 150.48 146.79 150.94 147.52 C 151.40 148.25 152.36 148.47 153.09 148.01 L 153.82 147.55 C 154.55 147.09 154.77 146.13 154.32 145.40 C 153.86 144.67 152.89 144.45 152.16 144.91 Z M 152.39 145.13 L 151.41 145.05 C 150.55 144.98 149.79 145.62 149.72 146.48 C 149.65 147.33 150.29 148.09 151.14 148.16 L 152.13 148.24 C 152.99 148.32 153.74 147.68 153.82 146.82 C 153.89 145.96 153.25 145.20 152.39 145.13 Z M 152.21 145.35 L 151.43 144.77 C 150.73 144.26 149.76 144.40 149.24 145.09 C 148.73 145.78 148.87 146.76 149.56 147.28 L 150.34 147.86 C 151.03 148.37 152.01 148.23 152.53 147.54 C 153.04 146.85 152.90 145.87 152.21 145.35 Z M 151.92 145.40 L 151.56 144.57 C 151.22 143.79 150.29 143.43 149.50 143.77 C 148.72 144.12 148.36 145.04 148.70 145.83 L 149.06 146.65 C 149.41 147.44 150.33 147.80 151.12 147.45 C 151.91 147.11 152.27 146.19 151.92 145.40 Z M 151.68 144.97 L 151.52 143.94 C 151.39 143.09 150.59 142.51 149.74 142.64 C 148.89 142.77 148.30 143.56 148.43 144.42 L 148.59 145.44 C 148.72 146.29 149.52 146.88 150.37 146.75 C 151.22 146.62 151.81 145.82 151.68 144.97 Z M 151.54 144.10 L 151.48 143.03 C 151.44 142.17 150.71 141.50 149.85 141.55 C 148.98 141.59 148.32 142.32 148.36 143.18 L 148.42 144.26 C 148.46 145.12 149.19 145.78 150.05 145.74 C 150.91 145.70 151.58 144.96 151.54 144.10 Z M 151.48 143.11 L 151.49 142.13 C 151.49 141.27 150.80 140.57 149.93 140.56 C 149.07 140.56 148.37 141.26 148.37 142.12 L 148.36 143.10 C 148.36 143.96 149.05 144.66 149.92 144.67 C 150.78 144.67 151.48 143.97 151.48 143.11 Z M 151.48 142.29 L 151.59 141.31 C 151.68 140.45 151.06 139.68 150.21 139.58 C 149.35 139.49 148.58 140.11 148.48 140.96 L 148.38 141.95 C 148.28 142.81 148.90 143.58 149.76 143.68 C 150.61 143.77 151.38 143.15 151.48 142.29 Z M 151.54 141.56 L 151.82 140.58 C 152.05 139.75 151.57 138.89 150.74 138.65 C 149.91 138.42 149.05 138.90 148.81 139.73 L 148.53 140.71 C 148.30 141.54 148.78 142.40 149.61 142.64 C 150.44 142.87 151.30 142.39 151.54 141.56 Z M 151.69 140.89 L 152.25 139.83 C 152.66 139.07 152.37 138.12 151.60 137.72 C 150.84 137.32 149.90 137.61 149.49 138.37 L 148.93 139.42 C 148.53 140.19 148.82 141.13 149.58 141.53 C 150.34 141.94 151.29 141.65 151.69 140.89 Z M 152.07 140.10 L 152.76 139.27 C 153.32 138.61 153.23 137.63 152.57 137.07 C 151.91 136.52 150.93 136.61 150.37 137.27 L 149.68 138.09 C 149.12 138.75 149.21 139.74 149.87 140.29 C 150.53 140.85 151.51 140.76 152.07 140.10 Z M 152.33 139.63 L 152.96 139.28 C 153.71 138.86 153.98 137.90 153.56 137.15 C 153.14 136.40 152.19 136.13 151.43 136.56 L 150.81 136.91 C 150.05 137.33 149.79 138.28 150.21 139.03 C 150.63 139.79 151.58 140.05 152.33 139.63 Z M 151.15 139.07 L 151.60 139.48 C 152.23 140.06 153.22 140.01 153.80 139.37 C 154.38 138.73 154.33 137.74 153.69 137.16 L 153.25 136.76 C 152.61 136.18 151.62 136.23 151.04 136.87 C 150.46 137.51 150.51 138.49 151.15 139.07 Z M 151.11 138.59 L 151.29 139.65 C 151.44 140.49 152.25 141.06 153.10 140.91 C 153.95 140.76 154.52 139.95 154.37 139.10 L 154.18 138.05 C 154.03 137.20 153.22 136.63 152.37 136.78 C 151.52 136.93 150.96 137.74 151.11 138.59 Z M 151.27 139.45 L 151.33 140.63 C 151.37 141.49 152.10 142.15 152.96 142.11 C 153.82 142.07 154.49 141.34 154.45 140.48 L 154.39 139.30 C 154.35 138.44 153.62 137.77 152.76 137.81 C 151.89 137.86 151.23 138.59 151.27 139.45 Z M 151.33 140.57 L 151.34 141.58 C 151.34 142.45 152.05 143.14 152.91 143.13 C 153.78 143.12 154.47 142.41 154.46 141.55 L 154.45 140.54 C 154.44 139.68 153.73 138.98 152.87 138.99 C 152.01 139.00 151.32 139.71 151.33 140.57 Z M 151.34 141.51 L 151.30 142.51 C 151.27 143.37 151.95 144.10 152.81 144.13 C 153.67 144.15 154.39 143.48 154.42 142.62 L 154.46 141.62 C 154.49 140.76 153.81 140.04 152.95 140.01 C 152.09 139.98 151.37 140.65 151.34 141.51 Z M 151.31 142.41 L 151.21 143.45 C 151.12 144.31 151.75 145.07 152.60 145.16 C 153.46 145.24 154.23 144.62 154.31 143.76 L 154.42 142.72 C 154.50 141.86 153.88 141.10 153.02 141.01 C 152.16 140.93 151.39 141.55 151.31 142.41 Z M 151.23 143.28 L 150.97 144.50 C 150.79 145.34 151.33 146.17 152.18 146.35 C 153.02 146.53 153.85 145.99 154.03 145.15 L 154.29 143.93 C 154.47 143.08 153.93 142.25 153.08 142.08 C 152.24 141.90 151.41 142.44 151.23 143.28 Z M 151.17 144.01 L 150.82 144.59 C 150.37 145.32 150.60 146.28 151.34 146.73 C 152.07 147.18 153.03 146.95 153.48 146.21 L 153.83 145.64 C 154.28 144.90 154.05 143.94 153.31 143.49 C 152.58 143.04 151.62 143.27 151.17 144.01 Z M 153.31 144.35 L 152.93 143.93 C 152.35 143.29 151.36 143.24 150.72 143.82 C 150.08 144.40 150.03 145.38 150.61 146.02 L 150.99 146.45 C 151.57 147.09 152.56 147.14 153.20 146.56 C 153.84 145.98 153.89 144.99 153.31 144.35 Z M 153.27 144.54 L 152.94 143.41 C 152.70 142.58 151.84 142.10 151.01 142.34 C 150.18 142.58 149.70 143.45 149.94 144.28 L 150.27 145.41 C 150.51 146.24 151.37 146.72 152.20 146.48 C 153.03 146.24 153.51 145.37 153.27 144.54 Z M 152.99 143.63 L 152.83 142.49 C 152.71 141.64 151.92 141.04 151.07 141.16 C 150.21 141.28 149.62 142.07 149.74 142.92 L 149.89 144.06 C 150.01 144.91 150.80 145.51 151.66 145.39 C 152.51 145.27 153.11 144.48 152.99 143.63 Z M 152.84 142.70 L 152.84 141.68 C 152.83 140.82 152.13 140.12 151.27 140.13 C 150.41 140.13 149.71 140.83 149.72 141.70 L 149.72 142.71 C 149.73 143.58 150.43 144.27 151.29 144.27 C 152.15 144.26 152.85 143.56 152.84 142.70 Z M 152.81 141.96 L 152.99 141.00 C 153.14 140.15 152.57 139.34 151.72 139.19 C 150.87 139.04 150.06 139.60 149.91 140.45 L 149.74 141.41 C 149.59 142.26 150.16 143.07 151.00 143.23 C 151.85 143.38 152.66 142.81 152.81 141.96 Z M 152.85 141.42 L 153.34 140.42 C 153.72 139.65 153.40 138.71 152.63 138.33 C 151.86 137.95 150.92 138.27 150.54 139.04 L 150.05 140.03 C 149.67 140.81 149.98 141.74 150.76 142.13 C 151.53 142.51 152.47 142.19 152.85 141.42 Z M 152.92 140.95 L 153.68 140.34 C 154.35 139.80 154.46 138.82 153.92 138.14 C 153.37 137.47 152.39 137.36 151.72 137.91 L 150.96 138.52 C 150.29 139.06 150.18 140.04 150.72 140.71 C 151.26 141.38 152.25 141.49 152.92 140.95 Z M 152.10 140.56 L 152.71 140.81 C 153.50 141.14 154.42 140.76 154.74 139.97 C 155.07 139.17 154.69 138.26 153.90 137.93 L 153.29 137.68 C 152.50 137.35 151.58 137.73 151.26 138.53 C 150.93 139.32 151.31 140.24 152.10 140.56 Z M 151.84 139.92 L 152.14 140.71 C 152.44 141.52 153.34 141.93 154.15 141.63 C 154.95 141.32 155.36 140.42 155.06 139.62 L 154.76 138.82 C 154.46 138.02 153.56 137.61 152.75 137.91 C 151.95 138.21 151.54 139.11 151.84 139.92 Z M 152.05 140.37 L 152.20 141.46 C 152.31 142.32 153.10 142.92 153.95 142.81 C 154.81 142.69 155.41 141.91 155.29 141.05 L 155.15 139.96 C 155.03 139.10 154.25 138.50 153.39 138.62 C 152.54 138.73 151.94 139.51 152.05 140.37 Z M 152.18 141.27 L 152.19 142.44 C 152.20 143.30 152.90 144.00 153.77 143.99 C 154.63 143.98 155.32 143.28 155.31 142.42 L 155.31 141.25 C 155.30 140.38 154.59 139.69 153.73 139.70 C 152.87 139.70 152.18 140.41 152.18 141.27 Z M 152.20 142.23 L 152.06 143.33 C 151.96 144.19 152.56 144.97 153.42 145.08 C 154.27 145.19 155.05 144.58 155.16 143.73 L 155.30 142.62 C 155.41 141.77 154.81 140.99 153.95 140.88 C 153.09 140.77 152.31 141.38 152.20 142.23 Z M 152.15 142.99 L 151.82 143.89 C 151.52 144.70 151.93 145.60 152.74 145.89 C 153.55 146.19 154.45 145.78 154.75 144.97 L 155.08 144.07 C 155.38 143.26 154.96 142.36 154.15 142.06 C 153.34 141.77 152.45 142.18 152.15 142.99 Z M 152.10 143.42 L 151.52 144.09 C 150.96 144.74 151.03 145.73 151.69 146.29 C 152.34 146.85 153.33 146.77 153.89 146.12 L 154.47 145.45 C 155.03 144.79 154.95 143.80 154.30 143.24 C 153.64 142.68 152.66 142.76 152.10 143.42 Z M 152.05 143.69 L 151.18 144.09 C 150.39 144.45 150.05 145.38 150.41 146.16 C 150.77 146.94 151.70 147.29 152.48 146.93 L 153.36 146.52 C 154.14 146.16 154.48 145.23 154.12 144.45 C 153.76 143.67 152.83 143.33 152.05 143.69 Z M 151.87 143.95 L 150.89 143.92 C 150.03 143.89 149.31 144.57 149.29 145.43 C 149.26 146.30 149.94 147.01 150.80 147.04 L 151.78 147.07 C 152.65 147.09 153.36 146.41 153.39 145.55 C 153.41 144.69 152.74 143.97 151.87 143.95 Z M 151.67 144.15 L 150.85 143.64 C 150.12 143.19 149.15 143.41 148.70 144.15 C 148.25 144.88 148.47 145.84 149.20 146.30 L 150.03 146.81 C 150.76 147.26 151.72 147.03 152.18 146.30 C 152.63 145.57 152.41 144.61 151.67 144.15 Z M 151.30 144.07 L 150.78 143.33 C 150.28 142.62 149.31 142.45 148.61 142.95 C 147.90 143.45 147.73 144.42 148.23 145.13 L 148.75 145.87 C 149.25 146.57 150.22 146.74 150.93 146.24 C 151.63 145.75 151.80 144.77 151.30 144.07 Z M 150.94 143.60 L 150.52 142.66 C 150.18 141.87 149.26 141.51 148.47 141.86 C 147.68 142.20 147.32 143.12 147.66 143.91 L 148.07 144.85 C 148.42 145.64 149.34 146.00 150.13 145.66 C 150.92 145.31 151.28 144.39 150.94 143.60 Z M 150.59 142.84 L 150.28 141.81 C 150.04 140.99 149.17 140.52 148.34 140.76 C 147.51 141.01 147.04 141.88 147.29 142.71 L 147.60 143.74 C 147.85 144.56 148.72 145.03 149.54 144.78 C 150.37 144.54 150.84 143.67 150.59 142.84 Z M 150.31 141.94 L 150.09 140.89 C 149.92 140.05 149.09 139.51 148.24 139.69 C 147.40 139.87 146.86 140.69 147.04 141.54 L 147.26 142.58 C 147.44 143.43 148.27 143.97 149.11 143.79 C 149.95 143.61 150.49 142.78 150.31 141.94 Z M 150.11 141.00 L 149.97 139.98 C 149.85 139.13 149.06 138.53 148.21 138.65 C 147.36 138.77 146.76 139.56 146.88 140.41 L 147.02 141.43 C 147.14 142.28 147.93 142.88 148.78 142.76 C 149.64 142.64 150.23 141.86 150.11 141.00 Z M 149.98 140.08 L 149.91 139.10 C 149.84 138.24 149.09 137.60 148.23 137.67 C 147.37 137.73 146.73 138.49 146.79 139.35 L 146.87 140.32 C 146.94 141.18 147.69 141.82 148.55 141.75 C 149.41 141.69 150.05 140.94 149.98 140.08 Z M 149.91 139.17 L 149.88 138.21 C 149.84 137.34 149.12 136.67 148.26 136.70 C 147.40 136.73 146.72 137.46 146.76 138.32 L 146.79 139.28 C 146.82 140.14 147.54 140.82 148.41 140.79 C 149.27 140.75 149.94 140.03 149.91 139.17 Z M 149.88 138.24 L 149.87 137.24 C 149.86 136.38 149.15 135.69 148.29 135.70 C 147.42 135.71 146.73 136.41 146.74 137.27 L 146.75 138.28 C 146.76 139.14 147.47 139.83 148.33 139.82 C 149.20 139.81 149.89 139.11 149.88 138.24 Z M 149.86 137.33 L 149.91 136.32 C 149.96 135.46 149.29 134.73 148.43 134.69 C 147.57 134.65 146.84 135.31 146.79 136.17 L 146.74 137.18 C 146.70 138.04 147.37 138.77 148.23 138.82 C 149.09 138.86 149.82 138.19 149.86 137.33 Z M 149.89 136.51 L 150.06 135.54 C 150.21 134.69 149.64 133.88 148.79 133.73 C 147.94 133.59 147.13 134.15 146.99 135.00 L 146.82 135.98 C 146.67 136.83 147.24 137.64 148.09 137.78 C 148.94 137.93 149.74 137.36 149.89 136.51 Z M 149.98 135.84 L 150.35 134.88 C 150.67 134.08 150.28 133.18 149.47 132.86 C 148.67 132.54 147.77 132.94 147.45 133.74 L 147.07 134.70 C 146.75 135.50 147.15 136.41 147.95 136.72 C 148.75 137.04 149.66 136.65 149.98 135.84 Z M 150.15 135.25 L 150.81 134.38 C 151.33 133.69 151.20 132.71 150.51 132.19 C 149.82 131.67 148.84 131.81 148.32 132.49 L 147.66 133.37 C 147.14 134.06 147.27 135.04 147.96 135.56 C 148.65 136.08 149.63 135.94 150.15 135.25 Z M 150.38 134.76 L 151.17 134.28 C 151.91 133.83 152.14 132.86 151.68 132.13 C 151.23 131.40 150.27 131.17 149.54 131.62 L 148.75 132.11 C 148.01 132.56 147.78 133.52 148.24 134.25 C 148.69 134.99 149.65 135.22 150.38 134.76 Z M 150.20 134.50 L 150.96 134.58 C 151.82 134.66 152.58 134.04 152.67 133.18 C 152.75 132.32 152.12 131.56 151.27 131.47 L 150.51 131.40 C 149.65 131.31 148.89 131.94 148.80 132.80 C 148.72 133.65 149.34 134.42 150.20 134.50 Z M 150.05 134.16 L 150.69 134.76 C 151.32 135.35 152.30 135.32 152.89 134.69 C 153.48 134.06 153.45 133.07 152.82 132.48 L 152.18 131.88 C 151.55 131.29 150.56 131.33 149.97 131.96 C 149.38 132.59 149.42 133.58 150.05 134.16 Z M 150.39 134.38 L 150.91 135.32 C 151.33 136.08 152.28 136.35 153.04 135.93 C 153.79 135.51 154.06 134.56 153.64 133.80 L 153.11 132.86 C 152.70 132.11 151.74 131.84 150.99 132.26 C 150.24 132.68 149.97 133.63 150.39 134.38 Z M 150.81 135.09 L 151.18 136.15 C 151.47 136.96 152.36 137.38 153.18 137.10 C 153.99 136.81 154.41 135.91 154.13 135.10 L 153.75 134.04 C 153.46 133.23 152.57 132.80 151.75 133.09 C 150.94 133.38 150.52 134.27 150.81 135.09 Z M 151.13 135.98 L 151.37 136.97 C 151.56 137.81 152.40 138.34 153.24 138.14 C 154.08 137.94 154.60 137.10 154.41 136.26 L 154.17 135.27 C 153.98 134.43 153.14 133.91 152.30 134.10 C 151.46 134.30 150.94 135.14 151.13 135.98 Z M 151.34 136.86 L 151.50 137.85 C 151.63 138.70 152.42 139.29 153.28 139.16 C 154.13 139.03 154.71 138.23 154.58 137.38 L 154.43 136.38 C 154.30 135.53 153.50 134.95 152.65 135.08 C 151.80 135.21 151.21 136.00 151.34 136.86 Z M 151.49 137.77 L 151.58 138.74 C 151.67 139.60 152.43 140.23 153.29 140.14 C 154.15 140.05 154.78 139.29 154.69 138.43 L 154.59 137.46 C 154.51 136.60 153.74 135.97 152.88 136.06 C 152.03 136.15 151.40 136.91 151.49 137.77 Z M 151.58 138.70 L 151.65 139.71 C 151.71 140.57 152.46 141.22 153.32 141.16 C 154.18 141.10 154.83 140.35 154.76 139.49 L 154.69 138.48 C 154.63 137.62 153.89 136.97 153.03 137.03 C 152.17 137.09 151.52 137.84 151.58 138.70 Z M 151.65 139.66 L 151.69 140.66 C 151.72 141.52 152.45 142.20 153.31 142.16 C 154.17 142.13 154.84 141.40 154.81 140.54 L 154.77 139.54 C 154.73 138.68 154.01 138.01 153.15 138.04 C 152.28 138.07 151.61 138.80 151.65 139.66 Z M 151.69 140.60 L 151.69 141.58 C 151.68 142.44 152.38 143.14 153.25 143.14 C 154.11 143.14 154.81 142.44 154.81 141.58 L 154.81 140.60 C 154.81 139.74 154.11 139.04 153.25 139.04 C 152.39 139.04 151.69 139.74 151.69 140.60 Z M 151.69 141.50 L 151.64 142.50 C 151.59 143.36 152.25 144.10 153.12 144.14 C 153.98 144.18 154.71 143.52 154.75 142.66 L 154.81 141.66 C 154.85 140.80 154.19 140.06 153.33 140.02 C 152.47 139.98 151.73 140.64 151.69 141.50 Z M 151.65 142.37 L 151.51 143.38 C 151.40 144.24 152.00 145.02 152.85 145.14 C 153.70 145.25 154.49 144.65 154.61 143.80 L 154.74 142.79 C 154.86 141.94 154.26 141.15 153.40 141.03 C 152.55 140.92 151.76 141.52 151.65 142.37 Z M 151.56 143.16 L 151.29 144.10 C 151.05 144.93 151.53 145.80 152.36 146.04 C 153.18 146.28 154.05 145.80 154.29 144.97 L 154.56 144.02 C 154.80 143.19 154.32 142.33 153.49 142.09 C 152.66 141.85 151.80 142.33 151.56 143.16 Z M 151.42 143.77 L 150.95 144.63 C 150.53 145.38 150.80 146.33 151.55 146.75 C 152.30 147.17 153.25 146.90 153.67 146.15 L 154.15 145.30 C 154.57 144.55 154.30 143.59 153.55 143.17 C 152.80 142.75 151.85 143.02 151.42 143.77 Z M 151.20 144.29 L 150.50 144.99 C 149.89 145.61 149.90 146.59 150.51 147.20 C 151.12 147.81 152.11 147.81 152.72 147.20 L 153.42 146.49 C 154.02 145.88 154.02 144.89 153.41 144.28 C 152.80 143.67 151.81 143.68 151.20 144.29 Z M 150.83 144.74 L 149.97 145.24 C 149.22 145.67 148.96 146.63 149.40 147.38 C 149.83 148.12 150.78 148.38 151.53 147.94 L 152.39 147.45 C 153.14 147.01 153.39 146.06 152.96 145.31 C 152.53 144.57 151.57 144.31 150.83 144.74 Z M 150.35 145.08 L 149.34 145.35 C 148.51 145.57 148.01 146.42 148.23 147.26 C 148.45 148.09 149.30 148.59 150.14 148.37 L 151.15 148.10 C 151.98 147.88 152.48 147.03 152.26 146.20 C 152.04 145.36 151.18 144.86 150.35 145.08 Z M 149.85 145.30 L 148.85 145.23 C 147.99 145.17 147.24 145.82 147.18 146.68 C 147.13 147.54 147.77 148.29 148.63 148.35 L 149.63 148.42 C 150.49 148.48 151.24 147.83 151.30 146.97 C 151.36 146.11 150.71 145.36 149.85 145.30 Z M 149.60 145.48 L 148.83 144.98 C 148.11 144.51 147.14 144.71 146.67 145.43 C 146.19 146.15 146.40 147.12 147.12 147.59 L 147.89 148.10 C 148.61 148.57 149.58 148.37 150.05 147.64 C 150.52 146.92 150.32 145.96 149.60 145.48 Z M 149.39 145.62 L 149.03 144.87 C 148.67 144.09 147.74 143.76 146.95 144.12 C 146.17 144.49 145.84 145.42 146.21 146.20 L 146.56 146.95 C 146.93 147.73 147.86 148.07 148.64 147.70 C 149.42 147.33 149.75 146.40 149.39 145.62 Z M 149.16 145.28 L 149.00 144.30 C 148.86 143.45 148.06 142.87 147.21 143.01 C 146.35 143.15 145.78 143.95 145.92 144.80 L 146.08 145.79 C 146.22 146.64 147.02 147.22 147.87 147.08 C 148.72 146.94 149.30 146.13 149.16 145.28 Z M 149.02 144.49 L 148.97 143.38 C 148.94 142.52 148.21 141.85 147.35 141.88 C 146.49 141.92 145.82 142.64 145.85 143.50 L 145.90 144.61 C 145.93 145.48 146.66 146.15 147.52 146.11 C 148.38 146.08 149.05 145.35 149.02 144.49 Z M 148.98 143.45 L 148.98 142.38 C 148.98 141.52 148.29 140.82 147.42 140.82 C 146.56 140.81 145.86 141.51 145.86 142.37 L 145.85 143.44 C 145.85 144.30 146.55 145.00 147.41 145.00 C 148.27 145.01 148.97 144.31 148.98 143.45 Z M 148.98 142.44 L 149.02 141.42 C 149.05 140.56 148.37 139.83 147.51 139.80 C 146.65 139.77 145.93 140.44 145.89 141.31 L 145.86 142.32 C 145.83 143.18 146.50 143.91 147.36 143.94 C 148.22 143.97 148.95 143.30 148.98 142.44 Z M 149.01 141.51 L 149.10 140.52 C 149.18 139.66 148.55 138.90 147.69 138.82 C 146.84 138.74 146.07 139.37 145.99 140.23 L 145.90 141.22 C 145.82 142.07 146.45 142.84 147.31 142.92 C 148.17 143.00 148.93 142.37 149.01 141.51 Z M 149.08 140.65 L 149.26 139.70 C 149.41 138.85 148.85 138.04 148.00 137.89 C 147.15 137.73 146.34 138.29 146.18 139.14 L 146.01 140.10 C 145.86 140.94 146.42 141.76 147.27 141.91 C 148.12 142.06 148.93 141.50 149.08 140.65 Z M 149.21 139.88 L 149.51 138.90 C 149.76 138.07 149.30 137.20 148.47 136.95 C 147.65 136.70 146.78 137.16 146.53 137.99 L 146.23 138.97 C 145.98 139.79 146.44 140.66 147.27 140.91 C 148.09 141.17 148.96 140.70 149.21 139.88 Z M 149.44 139.08 L 149.85 138.17 C 150.21 137.39 149.86 136.46 149.07 136.11 C 148.28 135.75 147.36 136.11 147.01 136.89 L 146.59 137.80 C 146.24 138.59 146.59 139.51 147.38 139.87 C 148.16 140.22 149.09 139.87 149.44 139.08 Z M 149.76 138.35 L 150.27 137.51 C 150.72 136.78 150.50 135.82 149.76 135.37 C 149.03 134.91 148.07 135.14 147.61 135.88 L 147.10 136.71 C 146.65 137.45 146.88 138.41 147.61 138.86 C 148.35 139.31 149.31 139.08 149.76 138.35 Z M 150.15 137.69 L 150.84 136.85 C 151.39 136.19 151.30 135.21 150.63 134.66 C 149.97 134.11 148.99 134.20 148.44 134.86 L 147.74 135.70 C 147.19 136.36 147.28 137.35 147.95 137.90 C 148.61 138.45 149.60 138.36 150.15 137.69 Z M 150.61 137.08 L 151.42 136.43 C 152.10 135.89 152.20 134.90 151.67 134.23 C 151.13 133.56 150.14 133.45 149.47 133.99 L 148.66 134.64 C 147.99 135.18 147.88 136.16 148.42 136.83 C 148.96 137.51 149.94 137.61 150.61 137.08 Z M 150.91 136.70 L 151.73 136.45 C 152.55 136.19 153.02 135.32 152.76 134.50 C 152.51 133.67 151.64 133.21 150.81 133.46 L 149.99 133.71 C 149.17 133.97 148.70 134.84 148.95 135.67 C 149.21 136.49 150.08 136.95 150.91 136.70 Z M 150.74 136.42 L 151.53 136.71 C 152.35 137.00 153.24 136.59 153.53 135.77 C 153.83 134.96 153.41 134.07 152.60 133.77 L 151.80 133.49 C 150.99 133.19 150.10 133.61 149.80 134.42 C 149.51 135.23 149.93 136.13 150.74 136.42 Z M 150.91 136.29 L 151.59 137.04 C 152.17 137.67 153.16 137.72 153.79 137.14 C 154.43 136.56 154.48 135.57 153.90 134.93 L 153.22 134.19 C 152.64 133.55 151.65 133.51 151.02 134.09 C 150.38 134.67 150.33 135.66 150.91 136.29 Z M 151.34 136.68 L 151.82 137.65 C 152.21 138.42 153.14 138.74 153.92 138.36 C 154.69 137.97 155.01 137.04 154.62 136.27 L 154.14 135.29 C 153.76 134.52 152.82 134.20 152.05 134.59 C 151.28 134.97 150.96 135.90 151.34 136.68 Z M 151.71 137.36 L 151.96 138.30 C 152.19 139.13 153.04 139.62 153.87 139.40 C 154.71 139.18 155.20 138.32 154.98 137.49 L 154.73 136.56 C 154.51 135.72 153.65 135.23 152.82 135.45 C 151.99 135.67 151.49 136.53 151.71 137.36 Z M 151.92 138.07 L 152.03 139.06 C 152.13 139.92 152.90 140.53 153.76 140.43 C 154.62 140.34 155.23 139.56 155.14 138.71 L 155.02 137.72 C 154.93 136.86 154.15 136.24 153.30 136.34 C 152.44 136.44 151.82 137.21 151.92 138.07 Z M 152.02 138.89 L 152.03 139.93 C 152.03 140.79 152.74 141.49 153.60 141.48 C 154.46 141.48 155.16 140.77 155.15 139.91 L 155.15 138.87 C 155.14 138.01 154.44 137.32 153.58 137.32 C 152.71 137.33 152.02 138.03 152.02 138.89 Z M 152.03 139.81 L 151.97 140.74 C 151.91 141.60 152.55 142.34 153.41 142.40 C 154.27 142.47 155.02 141.82 155.08 140.96 L 155.15 140.03 C 155.21 139.17 154.56 138.42 153.70 138.36 C 152.84 138.30 152.09 138.95 152.03 139.81 Z M 151.98 140.60 L 151.83 141.55 C 151.69 142.40 152.27 143.20 153.12 143.34 C 153.97 143.48 154.77 142.90 154.91 142.05 L 155.07 141.10 C 155.20 140.25 154.63 139.44 153.78 139.31 C 152.92 139.17 152.12 139.75 151.98 140.60 Z M 151.87 141.38 L 151.59 142.36 C 151.35 143.19 151.83 144.06 152.66 144.29 C 153.49 144.53 154.36 144.04 154.59 143.21 L 154.87 142.23 C 155.11 141.40 154.62 140.53 153.79 140.30 C 152.96 140.06 152.10 140.55 151.87 141.38 Z M 151.65 142.18 L 151.23 143.16 C 150.90 143.96 151.27 144.87 152.06 145.21 C 152.86 145.55 153.77 145.18 154.11 144.38 L 154.53 143.40 C 154.86 142.61 154.49 141.69 153.70 141.35 C 152.91 141.02 151.99 141.39 151.65 142.18 Z M 151.31 143.01 L 150.82 143.88 C 150.39 144.64 150.66 145.59 151.41 146.01 C 152.16 146.43 153.12 146.17 153.54 145.42 L 154.03 144.54 C 154.46 143.79 154.19 142.83 153.44 142.41 C 152.69 141.99 151.73 142.25 151.31 143.01 Z M 150.89 143.76 L 150.30 144.62 C 149.81 145.33 149.99 146.30 150.70 146.79 C 151.41 147.28 152.38 147.10 152.87 146.39 L 153.46 145.54 C 153.95 144.83 153.77 143.86 153.06 143.37 C 152.35 142.88 151.38 143.05 150.89 143.76 Z M 150.39 144.50 L 149.74 145.28 C 149.19 145.95 149.28 146.93 149.94 147.48 C 150.60 148.04 151.58 147.95 152.14 147.28 L 152.79 146.50 C 153.34 145.84 153.25 144.86 152.59 144.30 C 151.93 143.75 150.94 143.84 150.39 144.50 Z M 149.85 145.17 L 149.16 145.83 C 148.54 146.43 148.53 147.42 149.13 148.04 C 149.73 148.66 150.72 148.67 151.34 148.07 L 152.03 147.40 C 152.64 146.80 152.66 145.81 152.06 145.20 C 151.46 144.58 150.47 144.56 149.85 145.17 Z M 149.36 145.67 L 148.40 146.33 C 147.69 146.82 147.51 147.80 148.00 148.51 C 148.49 149.21 149.47 149.39 150.17 148.90 L 151.14 148.24 C 151.85 147.75 152.03 146.77 151.54 146.06 C 151.05 145.35 150.07 145.18 149.36 145.67 Z M 148.83 146.12 L 147.89 146.41 C 147.07 146.66 146.60 147.53 146.85 148.36 C 147.10 149.18 147.97 149.65 148.80 149.40 L 149.74 149.11 C 150.56 148.86 151.03 147.99 150.78 147.17 C 150.53 146.34 149.66 145.87 148.83 146.12 Z M 148.76 146.40 L 147.98 146.18 C 147.15 145.95 146.29 146.44 146.06 147.27 C 145.83 148.10 146.31 148.96 147.15 149.19 L 147.93 149.41 C 148.76 149.64 149.62 149.15 149.85 148.32 C 150.08 147.49 149.59 146.63 148.76 146.40 Z M 148.78 146.71 L 148.32 146.14 C 147.78 145.47 146.80 145.36 146.13 145.90 C 145.45 146.44 145.35 147.42 145.89 148.10 L 146.35 148.66 C 146.89 149.34 147.87 149.44 148.54 148.90 C 149.21 148.36 149.32 147.38 148.78 146.71 Z M 148.57 146.58 L 148.26 145.74 C 147.96 144.93 147.07 144.52 146.26 144.82 C 145.45 145.11 145.03 146.01 145.33 146.82 L 145.64 147.66 C 145.94 148.47 146.84 148.88 147.65 148.58 C 148.45 148.28 148.87 147.39 148.57 146.58 Z M 148.33 145.98 L 148.12 144.92 C 147.95 144.08 147.13 143.52 146.29 143.69 C 145.44 143.86 144.89 144.68 145.06 145.52 L 145.26 146.58 C 145.43 147.43 146.25 147.98 147.10 147.81 C 147.94 147.65 148.49 146.83 148.33 145.98 Z M 148.14 145.06 L 148.01 143.84 C 147.92 142.98 147.15 142.36 146.29 142.45 C 145.43 142.55 144.81 143.32 144.91 144.17 L 145.04 145.39 C 145.13 146.25 145.90 146.87 146.76 146.77 C 147.61 146.68 148.23 145.91 148.14 145.06 Z M 148.02 143.91 L 147.95 142.87 C 147.90 142.01 147.15 141.35 146.29 141.41 C 145.43 141.46 144.78 142.20 144.83 143.06 L 144.90 144.10 C 144.95 144.96 145.70 145.62 146.56 145.56 C 147.42 145.51 148.07 144.77 148.02 143.91 Z M 147.95 142.91 L 147.92 141.87 C 147.88 141.01 147.16 140.34 146.30 140.37 C 145.44 140.40 144.76 141.12 144.79 141.98 L 144.83 143.02 C 144.86 143.88 145.59 144.56 146.45 144.53 C 147.31 144.50 147.98 143.77 147.95 142.91 Z M 147.92 141.91 L 147.90 140.87 C 147.89 140.01 147.19 139.32 146.32 139.33 C 145.46 139.34 144.77 140.05 144.78 140.91 L 144.79 141.95 C 144.80 142.81 145.51 143.50 146.37 143.49 C 147.24 143.48 147.93 142.77 147.92 141.91 Z M 147.90 140.91 L 147.91 139.91 C 147.92 139.04 147.23 138.34 146.36 138.33 C 145.50 138.32 144.80 139.02 144.79 139.88 L 144.78 140.88 C 144.77 141.74 145.47 142.45 146.33 142.46 C 147.19 142.46 147.90 141.77 147.90 140.91 Z M 147.91 139.94 L 147.94 139.00 C 147.96 138.14 147.28 137.42 146.42 137.39 C 145.56 137.37 144.84 138.05 144.82 138.91 L 144.79 139.85 C 144.77 140.71 145.44 141.43 146.31 141.45 C 147.17 141.48 147.89 140.80 147.91 139.94 Z M 147.94 139.04 L 148.00 137.96 C 148.04 137.10 147.39 136.36 146.52 136.31 C 145.66 136.26 144.93 136.92 144.88 137.79 L 144.82 138.87 C 144.77 139.73 145.43 140.46 146.29 140.51 C 147.15 140.56 147.89 139.90 147.94 139.04 Z M 147.99 138.03 L 148.10 137.02 C 148.19 136.16 147.56 135.39 146.70 135.30 C 145.85 135.21 145.08 135.84 144.99 136.69 L 144.89 137.71 C 144.80 138.57 145.42 139.34 146.28 139.42 C 147.13 139.51 147.90 138.89 147.99 138.03 Z M 148.08 137.13 L 148.25 136.21 C 148.40 135.36 147.83 134.55 146.98 134.39 C 146.14 134.24 145.32 134.81 145.17 135.65 L 145.01 136.58 C 144.85 137.43 145.42 138.24 146.27 138.39 C 147.12 138.54 147.93 137.98 148.08 137.13 Z M 148.22 136.34 L 148.46 135.45 C 148.69 134.62 148.20 133.76 147.37 133.53 C 146.53 133.30 145.67 133.79 145.45 134.63 L 145.20 135.52 C 144.98 136.35 145.47 137.21 146.30 137.44 C 147.13 137.66 147.99 137.17 148.22 136.34 Z M 148.41 135.59 L 148.75 134.70 C 149.06 133.89 148.65 132.99 147.85 132.68 C 147.04 132.38 146.14 132.78 145.83 133.59 L 145.49 134.48 C 145.19 135.29 145.59 136.19 146.40 136.50 C 147.20 136.80 148.11 136.40 148.41 135.59 Z M 148.67 134.87 L 149.14 134.00 C 149.54 133.24 149.25 132.29 148.49 131.89 C 147.72 131.49 146.78 131.78 146.38 132.54 L 145.91 133.41 C 145.51 134.18 145.80 135.12 146.56 135.52 C 147.33 135.93 148.27 135.64 148.67 134.87 Z M 149.00 134.21 L 149.61 133.39 C 150.13 132.70 149.99 131.73 149.30 131.21 C 148.61 130.69 147.63 130.83 147.12 131.52 L 146.51 132.33 C 145.99 133.02 146.13 134.00 146.82 134.52 C 147.51 135.04 148.49 134.90 149.00 134.21 Z M 149.42 133.61 L 150.20 132.89 C 150.84 132.31 150.89 131.33 150.31 130.69 C 149.73 130.05 148.74 130.01 148.10 130.59 L 147.32 131.30 C 146.68 131.88 146.63 132.87 147.21 133.51 C 147.79 134.15 148.78 134.19 149.42 133.61 Z M 149.97 133.07 L 150.91 132.50 C 151.65 132.05 151.88 131.09 151.43 130.35 C 150.98 129.62 150.02 129.38 149.29 129.83 L 148.34 130.41 C 147.61 130.86 147.37 131.82 147.82 132.55 C 148.27 133.29 149.23 133.52 149.97 133.07 Z M 150.65 132.63 L 151.62 132.26 C 152.43 131.95 152.84 131.05 152.53 130.25 C 152.23 129.44 151.33 129.03 150.52 129.34 L 149.55 129.70 C 148.74 130.01 148.33 130.91 148.64 131.72 C 148.94 132.52 149.84 132.93 150.65 132.63 Z M 151.26 132.35 L 152.13 132.24 C 152.99 132.14 153.60 131.37 153.50 130.51 C 153.40 129.66 152.63 129.04 151.77 129.14 L 150.89 129.25 C 150.04 129.35 149.42 130.12 149.52 130.98 C 149.62 131.84 150.40 132.45 151.26 132.35 Z M 151.40 132.16 L 152.16 132.44 C 152.97 132.74 153.87 132.34 154.17 131.53 C 154.48 130.72 154.07 129.82 153.26 129.52 L 152.50 129.23 C 151.69 128.93 150.79 129.34 150.49 130.14 C 150.19 130.95 150.60 131.85 151.40 132.16 Z M 151.40 131.82 L 151.88 132.57 C 152.35 133.30 153.31 133.51 154.04 133.04 C 154.76 132.58 154.97 131.61 154.51 130.89 L 154.03 130.14 C 153.56 129.41 152.59 129.20 151.87 129.67 C 151.14 130.13 150.93 131.10 151.40 131.82 Z M 151.67 132.08 L 151.92 133.16 C 152.11 134.00 152.94 134.53 153.78 134.34 C 154.62 134.15 155.15 133.31 154.96 132.47 L 154.72 131.39 C 154.53 130.55 153.69 130.02 152.85 130.21 C 152.01 130.40 151.48 131.23 151.67 132.08 Z M 151.89 132.96 L 151.98 133.96 C 152.07 134.82 152.83 135.44 153.69 135.36 C 154.55 135.28 155.17 134.51 155.09 133.66 L 154.99 132.66 C 154.91 131.80 154.15 131.18 153.29 131.26 C 152.43 131.34 151.80 132.11 151.89 132.96 Z M 151.98 133.86 L 152.01 134.84 C 152.04 135.71 152.76 136.38 153.63 136.35 C 154.49 136.32 155.16 135.60 155.13 134.73 L 155.10 133.75 C 155.07 132.89 154.34 132.22 153.48 132.25 C 152.62 132.28 151.95 133.00 151.98 133.86 Z M 152.01 134.76 L 151.99 135.78 C 151.97 136.64 152.66 137.36 153.52 137.37 C 154.38 137.39 155.09 136.70 155.11 135.84 L 155.13 134.82 C 155.15 133.96 154.46 133.25 153.60 133.23 C 152.74 133.21 152.03 133.90 152.01 134.76 Z M 151.99 135.70 L 151.92 136.73 C 151.85 137.59 152.50 138.34 153.36 138.40 C 154.22 138.47 154.97 137.82 155.03 136.96 L 155.11 135.93 C 155.17 135.07 154.53 134.32 153.67 134.25 C 152.81 134.19 152.06 134.84 151.99 135.70 Z M 151.93 136.64 L 151.79 137.67 C 151.68 138.53 152.28 139.31 153.13 139.43 C 153.99 139.54 154.77 138.94 154.89 138.08 L 155.02 137.05 C 155.13 136.20 154.53 135.41 153.68 135.30 C 152.82 135.19 152.04 135.79 151.93 136.64 Z M 151.80 137.59 L 151.61 138.60 C 151.45 139.44 152.01 140.26 152.86 140.42 C 153.71 140.58 154.52 140.02 154.68 139.17 L 154.87 138.17 C 155.03 137.32 154.47 136.50 153.63 136.34 C 152.78 136.18 151.96 136.74 151.80 137.59 Z M 151.63 138.52 L 151.40 139.49 C 151.20 140.33 151.71 141.17 152.55 141.37 C 153.39 141.57 154.23 141.06 154.43 140.22 L 154.67 139.25 C 154.87 138.41 154.35 137.57 153.51 137.37 C 152.67 137.16 151.83 137.68 151.63 138.52 Z M 151.42 139.42 L 151.15 140.34 C 150.91 141.17 151.39 142.03 152.21 142.27 C 153.04 142.51 153.91 142.04 154.15 141.21 L 154.41 140.29 C 154.65 139.46 154.18 138.59 153.35 138.35 C 152.52 138.11 151.66 138.59 151.42 139.42 Z M 151.17 140.27 L 150.83 141.26 C 150.55 142.07 150.98 142.96 151.80 143.24 C 152.61 143.52 153.50 143.09 153.78 142.28 L 154.12 141.28 C 154.41 140.47 153.97 139.58 153.16 139.30 C 152.34 139.02 151.45 139.45 151.17 140.27 Z M 150.87 141.15 L 150.47 142.08 C 150.13 142.87 150.50 143.79 151.29 144.13 C 152.08 144.47 153.00 144.11 153.34 143.32 L 153.74 142.38 C 154.08 141.59 153.71 140.67 152.92 140.33 C 152.13 139.99 151.21 140.36 150.87 141.15 Z M 150.54 141.93 L 150.07 142.77 C 149.65 143.52 149.92 144.47 150.67 144.90 C 151.42 145.32 152.37 145.05 152.80 144.30 L 153.27 143.46 C 153.69 142.71 153.42 141.76 152.67 141.34 C 151.92 140.92 150.97 141.18 150.54 141.93 Z M 150.20 142.58 L 149.57 143.39 C 149.04 144.07 149.16 145.05 149.84 145.58 C 150.53 146.11 151.51 145.99 152.04 145.31 L 152.67 144.49 C 153.20 143.81 153.07 142.83 152.39 142.30 C 151.71 141.77 150.73 141.90 150.20 142.58 Z M 149.83 143.13 L 149.02 143.78 C 148.34 144.31 148.23 145.30 148.77 145.97 C 149.31 146.64 150.29 146.76 150.96 146.22 L 151.78 145.57 C 152.45 145.03 152.56 144.05 152.02 143.38 C 151.49 142.70 150.50 142.59 149.83 143.13 Z M 149.66 143.47 L 148.80 143.66 C 147.96 143.84 147.42 144.67 147.61 145.52 C 147.79 146.36 148.62 146.89 149.46 146.71 L 150.32 146.52 C 151.16 146.34 151.70 145.51 151.51 144.67 C 151.33 143.82 150.50 143.29 149.66 143.47 Z M 149.81 143.78 L 149.06 143.42 C 148.28 143.04 147.35 143.37 146.98 144.14 C 146.60 144.92 146.93 145.85 147.70 146.23 L 148.45 146.59 C 149.23 146.96 150.16 146.64 150.54 145.86 C 150.91 145.09 150.59 144.15 149.81 143.78 Z M 149.57 143.81 L 148.93 143.05 C 148.37 142.40 147.38 142.32 146.72 142.88 C 146.07 143.43 145.99 144.42 146.55 145.08 L 147.19 145.83 C 147.75 146.49 148.74 146.57 149.39 146.01 C 150.05 145.45 150.13 144.47 149.57 143.81 Z M 149.13 143.37 L 148.64 142.38 C 148.26 141.61 147.32 141.30 146.55 141.68 C 145.78 142.06 145.46 143.00 145.85 143.77 L 146.34 144.76 C 146.72 145.53 147.66 145.85 148.43 145.46 C 149.20 145.08 149.52 144.14 149.13 143.37 Z M 148.75 142.67 L 148.49 141.71 C 148.27 140.88 147.41 140.39 146.58 140.62 C 145.75 140.84 145.25 141.70 145.48 142.53 L 145.74 143.49 C 145.97 144.32 146.82 144.81 147.66 144.58 C 148.49 144.36 148.98 143.50 148.75 142.67 Z M 148.54 141.98 L 148.45 141.02 C 148.38 140.16 147.62 139.53 146.76 139.60 C 145.90 139.68 145.27 140.44 145.35 141.30 L 145.43 142.26 C 145.51 143.12 146.27 143.76 147.13 143.68 C 147.99 143.60 148.62 142.84 148.54 141.98 Z M 148.46 141.25 L 148.52 140.23 C 148.56 139.37 147.91 138.64 147.04 138.59 C 146.18 138.54 145.45 139.20 145.40 140.06 L 145.34 141.07 C 145.29 141.93 145.95 142.67 146.81 142.72 C 147.67 142.77 148.41 142.11 148.46 141.25 Z M 148.50 140.40 L 148.66 139.42 C 148.80 138.57 148.23 137.76 147.38 137.62 C 146.53 137.48 145.72 138.06 145.58 138.91 L 145.42 139.89 C 145.28 140.74 145.85 141.54 146.70 141.69 C 147.55 141.83 148.36 141.25 148.50 140.40 Z M 148.64 139.54 L 148.85 138.65 C 149.06 137.81 148.55 136.96 147.71 136.76 C 146.87 136.55 146.03 137.07 145.82 137.90 L 145.60 138.79 C 145.40 139.63 145.91 140.47 146.75 140.68 C 147.59 140.89 148.43 140.37 148.64 139.54 Z M 148.83 138.74 L 149.12 137.81 C 149.38 136.99 148.92 136.11 148.10 135.85 C 147.27 135.60 146.40 136.05 146.14 136.88 L 145.85 137.81 C 145.59 138.63 146.05 139.51 146.87 139.77 C 147.70 140.02 148.57 139.56 148.83 138.74 Z M 149.09 137.89 L 149.46 136.92 C 149.76 136.11 149.35 135.21 148.55 134.90 C 147.74 134.60 146.84 135.01 146.54 135.82 L 146.17 136.79 C 145.86 137.60 146.27 138.50 147.08 138.80 C 147.89 139.11 148.79 138.70 149.09 137.89 Z M 149.43 136.99 L 149.87 135.97 C 150.22 135.18 149.85 134.26 149.06 133.91 C 148.27 133.57 147.35 133.93 147.01 134.72 L 146.57 135.74 C 146.22 136.53 146.58 137.45 147.37 137.80 C 148.16 138.14 149.08 137.78 149.43 136.99 Z M 149.84 136.03 L 150.29 135.11 C 150.67 134.34 150.35 133.40 149.57 133.02 C 148.80 132.65 147.87 132.97 147.49 133.74 L 147.04 134.66 C 146.66 135.44 146.98 136.37 147.76 136.75 C 148.53 137.13 149.47 136.81 149.84 136.03 Z M 150.26 135.17 L 150.76 134.25 C 151.17 133.49 150.89 132.54 150.13 132.13 C 149.37 131.72 148.42 132.01 148.01 132.76 L 147.52 133.68 C 147.11 134.44 147.39 135.39 148.15 135.80 C 148.91 136.21 149.85 135.93 150.26 135.17 Z M 150.72 134.31 L 151.26 133.43 C 151.70 132.69 151.47 131.73 150.73 131.29 C 149.99 130.84 149.03 131.08 148.58 131.82 L 148.05 132.70 C 147.60 133.44 147.84 134.40 148.58 134.84 C 149.32 135.29 150.28 135.05 150.72 134.31 Z M 151.21 133.51 L 151.77 132.69 C 152.25 131.98 152.07 131.01 151.36 130.52 C 150.65 130.03 149.68 130.21 149.19 130.93 L 148.63 131.74 C 148.15 132.45 148.33 133.42 149.04 133.91 C 149.75 134.40 150.72 134.22 151.21 133.51 Z M 151.70 132.79 L 152.27 132.08 C 152.81 131.41 152.70 130.42 152.03 129.88 C 151.36 129.34 150.38 129.45 149.84 130.12 L 149.26 130.83 C 148.72 131.50 148.83 132.48 149.50 133.02 C 150.17 133.57 151.15 133.46 151.70 132.79 Z M 152.11 132.24 L 153.06 131.36 C 153.69 130.78 153.73 129.79 153.14 129.16 C 152.55 128.53 151.57 128.49 150.93 129.08 L 149.99 129.95 C 149.36 130.54 149.32 131.53 149.91 132.16 C 150.49 132.79 151.48 132.83 152.11 132.24 Z M 152.72 131.60 L 153.59 131.14 C 154.36 130.74 154.65 129.80 154.25 129.04 C 153.85 128.27 152.90 127.98 152.14 128.38 L 151.27 128.84 C 150.51 129.24 150.21 130.19 150.62 130.95 C 151.02 131.71 151.96 132.00 152.72 131.60 Z M 152.85 131.32 L 153.55 131.33 C 154.41 131.34 155.12 130.65 155.12 129.78 C 155.13 128.92 154.44 128.22 153.58 128.21 L 152.88 128.20 C 152.02 128.19 151.31 128.89 151.30 129.75 C 151.30 130.61 151.99 131.32 152.85 131.32 Z M 152.41 130.83 L 152.89 131.35 C 153.47 131.98 154.46 132.02 155.10 131.44 C 155.73 130.86 155.77 129.87 155.19 129.23 L 154.71 128.71 C 154.13 128.08 153.14 128.04 152.51 128.62 C 151.87 129.20 151.83 130.19 152.41 130.83 Z M 152.54 130.71 L 152.80 131.67 C 153.03 132.50 153.89 132.98 154.72 132.75 C 155.55 132.52 156.04 131.66 155.81 130.83 L 155.55 129.87 C 155.32 129.04 154.46 128.55 153.62 128.79 C 152.79 129.02 152.31 129.88 152.54 130.71 Z M 152.75 131.41 L 152.88 132.64 C 152.97 133.50 153.74 134.12 154.59 134.03 C 155.45 133.94 156.08 133.18 155.99 132.32 L 155.86 131.09 C 155.77 130.23 155.00 129.61 154.15 129.70 C 153.29 129.78 152.67 130.55 152.75 131.41 Z M 152.87 132.55 L 152.92 133.51 C 152.96 134.37 153.69 135.04 154.55 134.99 C 155.42 134.95 156.08 134.22 156.04 133.36 L 155.99 132.41 C 155.95 131.54 155.22 130.88 154.36 130.92 C 153.50 130.96 152.83 131.69 152.87 132.55 Z M 152.92 133.47 L 152.94 134.48 C 152.96 135.34 153.67 136.02 154.53 136.01 C 155.40 135.99 156.08 135.27 156.06 134.41 L 156.04 133.40 C 156.02 132.54 155.31 131.86 154.45 131.87 C 153.58 131.89 152.90 132.61 152.92 133.47 Z M 152.94 134.45 L 152.94 135.48 C 152.94 136.34 153.64 137.04 154.50 137.04 C 155.36 137.04 156.06 136.34 156.06 135.48 L 156.06 134.44 C 156.06 133.58 155.36 132.88 154.50 132.88 C 153.64 132.88 152.94 133.58 152.94 134.45 Z M 152.94 135.45 L 152.92 136.46 C 152.91 137.33 153.59 138.04 154.46 138.05 C 155.32 138.07 156.03 137.38 156.04 136.52 L 156.06 135.50 C 156.08 134.64 155.39 133.93 154.53 133.91 C 153.67 133.90 152.95 134.59 152.94 135.45 Z M 152.92 136.44 L 152.89 137.50 C 152.86 138.36 153.53 139.09 154.39 139.12 C 155.26 139.14 155.98 138.47 156.01 137.61 L 156.04 136.54 C 156.07 135.68 155.40 134.96 154.54 134.93 C 153.67 134.90 152.95 135.58 152.92 136.44 Z M 152.89 137.47 L 152.83 138.50 C 152.78 139.36 153.44 140.10 154.30 140.15 C 155.16 140.20 155.90 139.54 155.95 138.68 L 156.01 137.64 C 156.05 136.78 155.40 136.05 154.54 136.00 C 153.67 135.95 152.94 136.61 152.89 137.47 Z M 152.83 138.45 L 152.75 139.43 C 152.67 140.28 153.31 141.04 154.17 141.12 C 155.03 141.19 155.78 140.56 155.86 139.70 L 155.94 138.72 C 156.02 137.86 155.38 137.11 154.52 137.03 C 153.66 136.96 152.91 137.59 152.83 138.45 Z M 152.75 139.37 L 152.64 140.29 C 152.53 141.15 153.14 141.93 153.99 142.03 C 154.85 142.14 155.63 141.53 155.74 140.68 L 155.85 139.76 C 155.96 138.90 155.35 138.12 154.50 138.01 C 153.64 137.90 152.86 138.51 152.75 139.37 Z M 152.65 140.22 L 152.48 141.20 C 152.33 142.05 152.90 142.86 153.75 143.00 C 154.60 143.15 155.41 142.58 155.55 141.73 L 155.73 140.75 C 155.87 139.90 155.31 139.09 154.46 138.95 C 153.61 138.80 152.80 139.37 152.65 140.22 Z M 152.50 141.12 L 152.27 142.08 C 152.08 142.92 152.60 143.76 153.44 143.95 C 154.28 144.15 155.12 143.62 155.32 142.78 L 155.54 141.82 C 155.73 140.98 155.21 140.14 154.37 139.94 C 153.53 139.75 152.69 140.28 152.50 141.12 Z M 152.29 142.00 L 152.02 142.96 C 151.78 143.79 152.26 144.65 153.09 144.89 C 153.92 145.13 154.78 144.65 155.02 143.82 L 155.30 142.86 C 155.53 142.03 155.05 141.17 154.22 140.93 C 153.40 140.69 152.53 141.17 152.29 142.00 Z M 152.04 142.89 L 151.72 143.85 C 151.44 144.66 151.87 145.55 152.69 145.83 C 153.51 146.10 154.39 145.67 154.67 144.85 L 155.00 143.89 C 155.28 143.07 154.84 142.19 154.02 141.91 C 153.21 141.63 152.32 142.07 152.04 142.89 Z M 151.75 143.76 L 151.36 144.71 C 151.04 145.51 151.42 146.42 152.22 146.74 C 153.01 147.07 153.93 146.69 154.25 145.89 L 154.64 144.94 C 154.96 144.14 154.58 143.23 153.78 142.90 C 152.99 142.58 152.07 142.96 151.75 143.76 Z M 151.42 144.58 L 150.96 145.47 C 150.56 146.23 150.85 147.17 151.62 147.57 C 152.38 147.97 153.33 147.68 153.73 146.91 L 154.19 146.02 C 154.59 145.26 154.29 144.31 153.53 143.91 C 152.76 143.51 151.82 143.81 151.42 144.58 Z M 151.07 145.28 L 150.51 146.06 C 150.01 146.76 150.17 147.73 150.87 148.24 C 151.57 148.74 152.55 148.58 153.05 147.88 L 153.61 147.10 C 154.11 146.40 153.95 145.42 153.25 144.92 C 152.55 144.42 151.58 144.58 151.07 145.28 Z M 150.75 145.80 L 149.91 146.54 C 149.26 147.11 149.20 148.10 149.77 148.74 C 150.34 149.39 151.33 149.45 151.98 148.88 L 152.82 148.14 C 153.46 147.57 153.52 146.58 152.95 145.93 C 152.38 145.29 151.40 145.23 150.75 145.80 Z M 150.34 146.27 L 149.45 146.64 C 148.65 146.97 148.28 147.89 148.61 148.68 C 148.94 149.48 149.85 149.86 150.65 149.52 L 151.54 149.15 C 152.34 148.82 152.72 147.90 152.38 147.11 C 152.05 146.31 151.14 145.94 150.34 146.27 Z M 150.23 146.53 L 149.41 146.44 C 148.55 146.34 147.77 146.95 147.68 147.81 C 147.58 148.66 148.19 149.44 149.05 149.54 L 149.87 149.63 C 150.73 149.73 151.50 149.12 151.60 148.26 C 151.70 147.41 151.08 146.63 150.23 146.53 Z M 150.24 146.80 L 149.57 146.23 C 148.92 145.67 147.93 145.75 147.37 146.40 C 146.81 147.06 146.89 148.04 147.55 148.60 L 148.21 149.17 C 148.87 149.73 149.85 149.66 150.41 149.00 C 150.97 148.35 150.90 147.36 150.24 146.80 Z M 149.92 146.66 L 149.41 145.73 C 148.99 144.98 148.04 144.71 147.28 145.13 C 146.53 145.55 146.26 146.50 146.68 147.26 L 147.20 148.18 C 147.62 148.93 148.57 149.20 149.32 148.78 C 150.07 148.36 150.34 147.41 149.92 146.66 Z M 149.53 146.01 L 149.20 145.02 C 148.93 144.20 148.05 143.75 147.23 144.02 C 146.41 144.29 145.97 145.17 146.24 145.99 L 146.56 146.98 C 146.83 147.80 147.71 148.25 148.53 147.98 C 149.35 147.71 149.80 146.83 149.53 146.01 Z M 149.25 145.19 L 149.06 144.28 C 148.89 143.44 148.06 142.89 147.22 143.07 C 146.37 143.24 145.83 144.07 146.00 144.91 L 146.19 145.82 C 146.37 146.67 147.19 147.21 148.04 147.03 C 148.88 146.86 149.42 146.03 149.25 145.19 Z M 149.08 144.39 L 148.95 143.41 C 148.84 142.55 148.06 141.95 147.20 142.06 C 146.35 142.17 145.74 142.95 145.86 143.81 L 145.98 144.80 C 146.09 145.65 146.88 146.25 147.73 146.14 C 148.59 146.03 149.19 145.25 149.08 144.39 Z M 148.96 143.49 L 148.88 142.42 C 148.81 141.56 148.06 140.91 147.20 140.98 C 146.34 141.05 145.70 141.80 145.76 142.66 L 145.85 143.73 C 145.91 144.59 146.66 145.23 147.52 145.16 C 148.38 145.10 149.03 144.35 148.96 143.49 Z M 148.88 142.47 L 148.83 141.42 C 148.80 140.56 148.07 139.89 147.21 139.93 C 146.34 139.97 145.68 140.70 145.72 141.56 L 145.76 142.61 C 145.80 143.47 146.53 144.13 147.39 144.10 C 148.25 144.06 148.92 143.33 148.88 142.47 Z M 148.84 141.46 L 148.81 140.44 C 148.80 139.58 148.08 138.89 147.22 138.91 C 146.36 138.93 145.67 139.65 145.69 140.51 L 145.71 141.53 C 145.73 142.39 146.45 143.07 147.31 143.05 C 148.17 143.03 148.85 142.32 148.84 141.46 Z M 148.81 140.47 L 148.81 139.45 C 148.81 138.58 148.11 137.89 147.25 137.89 C 146.39 137.89 145.69 138.58 145.69 139.45 L 145.69 140.47 C 145.69 141.34 146.39 142.03 147.25 142.03 C 148.12 142.03 148.81 141.34 148.81 140.47 Z M 148.81 139.48 L 148.84 138.48 C 148.86 137.62 148.17 136.90 147.31 136.88 C 146.45 136.86 145.74 137.54 145.72 138.41 L 145.69 139.41 C 145.67 140.27 146.35 140.99 147.22 141.01 C 148.08 141.03 148.79 140.34 148.81 139.48 Z M 148.84 138.52 L 148.88 137.55 C 148.93 136.69 148.27 135.96 147.41 135.91 C 146.54 135.87 145.81 136.53 145.77 137.39 L 145.72 138.36 C 145.67 139.22 146.34 139.96 147.20 140.00 C 148.06 140.05 148.79 139.38 148.84 138.52 Z M 148.88 137.64 L 149.01 136.41 C 149.10 135.55 148.48 134.78 147.62 134.69 C 146.76 134.60 146.00 135.22 145.90 136.08 L 145.77 137.31 C 145.68 138.17 146.30 138.93 147.16 139.03 C 148.02 139.12 148.79 138.50 148.88 137.64 Z M 148.97 136.64 L 149.22 135.69 C 149.44 134.85 148.94 134.00 148.11 133.78 C 147.28 133.55 146.42 134.05 146.20 134.88 L 145.95 135.84 C 145.73 136.68 146.22 137.53 147.06 137.75 C 147.89 137.97 148.74 137.48 148.97 136.64 Z M 148.97 136.21 L 149.41 135.61 C 149.92 134.91 149.77 133.94 149.08 133.43 C 148.38 132.91 147.41 133.06 146.89 133.76 L 146.45 134.36 C 145.94 135.06 146.09 136.03 146.79 136.54 C 147.48 137.05 148.46 136.90 148.97 136.21 Z M 148.44 136.22 L 149.29 136.06 C 150.14 135.90 150.70 135.09 150.54 134.24 C 150.38 133.39 149.56 132.83 148.72 132.99 L 147.87 133.15 C 147.02 133.31 146.46 134.12 146.62 134.97 C 146.78 135.82 147.59 136.38 148.44 136.22 Z M 148.34 135.94 L 149.27 136.37 C 150.05 136.74 150.98 136.40 151.34 135.62 C 151.71 134.84 151.37 133.91 150.59 133.54 L 149.67 133.11 C 148.89 132.74 147.96 133.08 147.59 133.86 C 147.22 134.64 147.56 135.57 148.34 135.94 Z M 148.65 135.86 L 149.26 136.71 C 149.75 137.42 150.73 137.59 151.43 137.09 C 152.14 136.59 152.30 135.62 151.81 134.91 L 151.20 134.06 C 150.71 133.35 149.73 133.18 149.03 133.68 C 148.32 134.18 148.15 135.15 148.65 135.86 Z M 148.98 136.01 L 149.11 137.03 C 149.22 137.88 150.00 138.49 150.86 138.38 C 151.71 138.27 152.32 137.48 152.21 136.63 L 152.08 135.61 C 151.97 134.76 151.19 134.16 150.33 134.26 C 149.48 134.37 148.87 135.16 148.98 136.01 Z M 149.21 136.26 L 148.87 137.13 C 148.56 137.94 148.96 138.84 149.76 139.15 C 150.56 139.46 151.47 139.07 151.78 138.26 L 152.12 137.39 C 152.43 136.59 152.03 135.68 151.23 135.37 C 150.42 135.06 149.52 135.46 149.21 136.26 Z M 149.58 136.33 L 148.76 136.77 C 148.00 137.18 147.72 138.13 148.14 138.89 C 148.55 139.65 149.50 139.93 150.25 139.51 L 151.07 139.07 C 151.83 138.66 152.11 137.71 151.70 136.95 C 151.28 136.19 150.34 135.91 149.58 136.33 Z M 149.73 136.60 L 148.75 136.46 C 147.89 136.34 147.10 136.93 146.98 137.78 C 146.86 138.64 147.45 139.43 148.31 139.55 L 149.29 139.69 C 150.14 139.81 150.93 139.22 151.05 138.36 C 151.17 137.51 150.58 136.72 149.73 136.60 Z M 149.59 136.86 L 148.92 136.24 C 148.29 135.65 147.31 135.68 146.72 136.31 C 146.13 136.95 146.16 137.93 146.79 138.52 L 147.46 139.14 C 148.09 139.73 149.08 139.70 149.67 139.07 C 150.26 138.44 150.22 137.45 149.59 136.86 Z M 149.31 136.81 L 148.98 135.96 C 148.67 135.16 147.76 134.76 146.96 135.08 C 146.15 135.39 145.76 136.30 146.07 137.10 L 146.41 137.95 C 146.72 138.75 147.63 139.15 148.43 138.83 C 149.23 138.52 149.63 137.61 149.31 136.81 Z M 149.06 136.25 L 148.87 135.21 C 148.71 134.36 147.90 133.80 147.05 133.96 C 146.20 134.11 145.64 134.93 145.80 135.77 L 145.99 136.81 C 146.15 137.66 146.96 138.22 147.81 138.07 C 148.66 137.91 149.22 137.10 149.06 136.25 Z M 148.89 135.31 L 148.78 134.41 C 148.68 133.56 147.91 132.94 147.05 133.04 C 146.19 133.14 145.58 133.92 145.68 134.77 L 145.78 135.67 C 145.88 136.53 146.66 137.14 147.52 137.04 C 148.37 136.94 148.99 136.17 148.89 135.31 Z"
      fill="black"
      fill-rule="nonzero" /></svg>