<svg xmlns="http://www.w3.org/2000/svg" width="300" height="300" viewBox="0 0 300 300">
<path d="M 117.69 80.92 L 118.59 81.36 C 119.36 81.74 120.30 81.42 120.68 80.64 C 121.05 79.87 120.73 78.93 119.96 78.55 L 119.06 78.11 C 118.28 77.74 117.35 78.06 116.97 78.83 C 116.59 79.61 116.91 80.54 117.69 80.92 Z M 118.52 81.32 L 119.39 81.81 C 120.15 82.22 121.10 81.95 121.51 81.19 C 121.93 80.44 121.66 79.49 120.90 79.07 L 120.03 78.59 C 119.27 78.17 118.32 78.45 117.91 79.20 C 117.49 79.96 117.76 80.91 118.52 81.32 Z M 119.26 81.72 L 120.08 82.29 C 120.79 82.78 121.76 82.60 122.25 81.89 C 122.74 81.18 122.56 80.21 121.85 79.72 L 121.03 79.15 C 120.32 78.66 119.35 78.84 118.86 79.55 C 118.37 80.26 118.55 81.24 119.26 81.72 Z M 119.92 82.16 L 120.63 82.80 C 121.27 83.38 122.26 83.33 122.83 82.69 C 123.41 82.05 123.36 81.06 122.72 80.48 L 122.01 79.84 C 121.37 79.27 120.39 79.32 119.81 79.96 C 119.23 80.60 119.28 81.58 119.92 82.16 Z M 120.52 82.69 L 121.18 83.42 C 121.76 84.06 122.75 84.11 123.39 83.53 C 124.03 82.95 124.07 81.96 123.49 81.32 L 122.83 80.59 C 122.25 79.95 121.26 79.91 120.62 80.49 C 119.99 81.07 119.94 82.05 120.52 82.69 Z M 121.13 83.36 L 121.78 84.16 C 122.33 84.83 123.31 84.93 123.98 84.38 C 124.65 83.84 124.75 82.86 124.20 82.19 L 123.55 81.39 C 123.00 80.72 122.02 80.62 121.35 81.16 C 120.68 81.70 120.58 82.69 121.13 83.36 Z M 121.77 84.14 L 122.36 84.90 C 122.90 85.58 123.88 85.69 124.56 85.16 C 125.23 84.63 125.35 83.64 124.82 82.97 L 124.22 82.21 C 123.69 81.53 122.70 81.41 122.03 81.95 C 121.35 82.48 121.23 83.46 121.77 84.14 Z M 122.36 84.89 L 122.94 85.64 C 123.47 86.32 124.45 86.45 125.13 85.92 C 125.81 85.39 125.94 84.41 125.41 83.73 L 124.82 82.97 C 124.29 82.29 123.31 82.17 122.63 82.70 C 121.95 83.23 121.83 84.21 122.36 84.89 Z M 122.93 85.63 L 123.54 86.43 C 124.06 87.12 125.04 87.25 125.73 86.73 C 126.42 86.21 126.55 85.23 126.03 84.54 L 125.42 83.74 C 124.90 83.05 123.92 82.92 123.23 83.44 C 122.54 83.96 122.41 84.94 122.93 85.63 Z M 123.53 86.41 L 124.16 87.27 C 124.67 87.97 125.65 88.12 126.35 87.60 C 127.04 87.09 127.19 86.11 126.68 85.42 L 126.04 84.56 C 125.53 83.87 124.55 83.72 123.86 84.23 C 123.16 84.74 123.02 85.72 123.53 86.41 Z M 124.15 87.25 L 124.74 88.09 C 125.24 88.79 126.22 88.95 126.92 88.45 C 127.62 87.95 127.79 86.98 127.29 86.28 L 126.69 85.44 C 126.19 84.74 125.21 84.58 124.51 85.08 C 123.81 85.58 123.65 86.55 124.15 87.25 Z M 124.73 88.07 L 125.31 88.91 C 125.81 89.62 126.78 89.80 127.49 89.31 C 128.20 88.82 128.37 87.84 127.88 87.13 L 127.30 86.29 C 126.81 85.58 125.83 85.41 125.12 85.90 C 124.42 86.39 124.24 87.36 124.73 88.07 Z M 125.31 88.90 L 125.88 89.75 C 126.37 90.46 127.34 90.65 128.05 90.16 C 128.76 89.68 128.95 88.71 128.46 87.99 L 127.89 87.15 C 127.41 86.43 126.43 86.25 125.72 86.73 C 125.01 87.22 124.82 88.19 125.31 88.90 Z M 125.87 89.74 L 126.43 90.57 C 126.91 91.28 127.87 91.48 128.59 91.00 C 129.31 90.52 129.50 89.55 129.02 88.83 L 128.47 88.00 C 127.99 87.29 127.02 87.09 126.31 87.57 C 125.59 88.05 125.40 89.02 125.87 89.74 Z M 126.42 90.56 L 126.97 91.39 C 127.44 92.11 128.41 92.31 129.13 91.84 C 129.85 91.36 130.05 90.39 129.58 89.67 L 129.03 88.84 C 128.56 88.12 127.59 87.92 126.87 88.39 C 126.15 88.87 125.95 89.84 126.42 90.56 Z M 126.96 91.38 L 127.54 92.28 C 128.01 93.00 128.97 93.21 129.70 92.74 C 130.42 92.27 130.63 91.31 130.16 90.58 L 129.58 89.68 C 129.12 88.96 128.15 88.75 127.43 89.22 C 126.70 89.69 126.49 90.65 126.96 91.38 Z M 127.53 92.26 L 128.05 93.09 C 128.51 93.82 129.47 94.04 130.20 93.59 C 130.93 93.13 131.15 92.16 130.70 91.43 L 130.17 90.60 C 129.72 89.87 128.75 89.65 128.02 90.11 C 127.29 90.56 127.07 91.53 127.53 92.26 Z M 128.04 93.07 L 128.52 93.87 C 128.97 94.61 129.93 94.84 130.67 94.40 C 131.40 93.95 131.64 92.99 131.19 92.26 L 130.71 91.45 C 130.26 90.72 129.30 90.48 128.57 90.93 C 127.83 91.37 127.59 92.33 128.04 93.07 Z M 128.51 93.85 L 128.99 94.68 C 129.42 95.43 130.38 95.68 131.13 95.25 C 131.87 94.82 132.13 93.86 131.69 93.12 L 131.21 92.28 C 130.78 91.53 129.82 91.28 129.08 91.71 C 128.33 92.14 128.07 93.10 128.51 93.85 Z M 128.98 94.66 L 129.47 95.53 C 129.89 96.28 130.84 96.55 131.59 96.13 C 132.34 95.71 132.61 94.76 132.19 94.01 L 131.71 93.14 C 131.28 92.39 130.33 92.12 129.58 92.54 C 128.83 92.96 128.56 93.91 128.98 94.66 Z M 129.46 95.52 L 129.94 96.40 C 130.36 97.16 131.31 97.43 132.06 97.02 C 132.82 96.60 133.10 95.65 132.68 94.90 L 132.20 94.02 C 131.78 93.26 130.83 92.98 130.08 93.40 C 129.32 93.82 129.04 94.76 129.46 95.52 Z M 129.94 96.40 L 130.43 97.28 C 130.84 98.03 131.79 98.31 132.55 97.89 C 133.30 97.48 133.58 96.53 133.16 95.77 L 132.68 94.90 C 132.26 94.14 131.32 93.86 130.56 94.28 C 129.80 94.70 129.53 95.64 129.94 96.40 Z M 130.43 97.28 L 130.91 98.15 C 131.33 98.90 132.28 99.17 133.03 98.75 C 133.79 98.34 134.06 97.39 133.64 96.63 L 133.16 95.77 C 132.74 95.01 131.79 94.74 131.04 95.16 C 130.28 95.58 130.01 96.53 130.43 97.28 Z M 130.91 98.15 L 131.40 99.02 C 131.82 99.78 132.77 100.05 133.52 99.63 C 134.28 99.21 134.55 98.26 134.13 97.51 L 133.64 96.63 C 133.22 95.88 132.27 95.61 131.51 96.03 C 130.76 96.45 130.49 97.40 130.91 98.15 Z M 131.40 99.02 L 131.89 99.91 C 132.31 100.66 133.26 100.94 134.01 100.52 C 134.77 100.10 135.04 99.15 134.62 98.39 L 134.13 97.51 C 133.71 96.75 132.76 96.48 132.00 96.90 C 131.25 97.32 130.98 98.27 131.40 99.02 Z M 131.89 99.91 L 132.37 100.78 C 132.79 101.53 133.74 101.80 134.49 101.39 C 135.25 100.97 135.52 100.02 135.10 99.26 L 134.62 98.40 C 134.20 97.64 133.25 97.37 132.50 97.79 C 131.75 98.20 131.47 99.15 131.89 99.91 Z M 132.37 100.77 L 132.85 101.65 C 133.26 102.40 134.21 102.68 134.97 102.26 C 135.72 101.85 136.00 100.90 135.58 100.14 L 135.10 99.27 C 134.69 98.51 133.74 98.24 132.98 98.65 C 132.23 99.07 131.95 100.02 132.37 100.77 Z M 132.84 101.64 L 133.32 102.52 C 133.74 103.28 134.68 103.56 135.44 103.15 C 136.20 102.74 136.48 101.79 136.07 101.03 L 135.59 100.15 C 135.18 99.39 134.23 99.11 133.47 99.52 C 132.71 99.93 132.43 100.88 132.84 101.64 Z M 133.32 102.51 L 133.79 103.40 C 134.20 104.16 135.15 104.45 135.91 104.04 C 136.67 103.63 136.95 102.69 136.55 101.93 L 136.07 101.04 C 135.67 100.28 134.72 99.99 133.96 100.40 C 133.20 100.81 132.91 101.75 133.32 102.51 Z M 133.79 103.39 L 134.25 104.27 C 134.65 105.03 135.60 105.32 136.36 104.92 C 137.12 104.52 137.42 103.58 137.01 102.81 L 136.55 101.94 C 136.15 101.17 135.21 100.88 134.44 101.28 C 133.68 101.68 133.39 102.63 133.79 103.39 Z M 134.25 104.26 L 134.71 105.15 C 135.11 105.91 136.05 106.21 136.81 105.81 C 137.58 105.41 137.88 104.47 137.48 103.71 L 137.02 102.82 C 136.62 102.06 135.68 101.76 134.91 102.16 C 134.15 102.55 133.85 103.50 134.25 104.26 Z M 134.71 105.14 L 135.16 106.04 C 135.56 106.80 136.50 107.11 137.27 106.71 C 138.03 106.32 138.34 105.38 137.94 104.61 L 137.48 103.71 C 137.09 102.95 136.15 102.64 135.38 103.04 C 134.61 103.43 134.31 104.37 134.71 105.14 Z M 135.16 106.03 L 135.61 106.92 C 136.01 107.69 136.94 108.00 137.71 107.61 C 138.48 107.22 138.79 106.28 138.40 105.51 L 137.95 104.62 C 137.56 103.85 136.62 103.54 135.85 103.93 C 135.08 104.32 134.77 105.26 135.16 106.03 Z M 135.61 106.92 L 136.06 107.81 C 136.45 108.58 137.39 108.88 138.16 108.50 C 138.93 108.11 139.24 107.17 138.85 106.40 L 138.40 105.51 C 138.01 104.74 137.07 104.43 136.30 104.82 C 135.53 105.21 135.22 106.15 135.61 106.92 Z M 136.06 107.81 L 136.51 108.70 C 136.90 109.47 137.84 109.78 138.61 109.39 C 139.38 109.00 139.69 108.06 139.30 107.29 L 138.85 106.40 C 138.46 105.63 137.52 105.32 136.75 105.71 C 135.98 106.10 135.67 107.04 136.06 107.81 Z M 136.52 108.71 L 136.98 109.60 C 137.37 110.37 138.31 110.67 139.08 110.28 C 139.85 109.89 140.15 108.95 139.76 108.18 L 139.30 107.28 C 138.90 106.52 137.96 106.21 137.20 106.61 C 136.43 107.00 136.12 107.94 136.52 108.71 Z M 136.98 109.61 L 137.45 110.50 C 137.84 111.27 138.79 111.56 139.55 111.16 C 140.32 110.76 140.61 109.82 140.21 109.06 L 139.75 108.17 C 139.35 107.41 138.41 107.11 137.64 107.51 C 136.88 107.91 136.58 108.85 136.98 109.61 Z M 137.45 110.51 L 137.92 111.39 C 138.32 112.16 139.26 112.45 140.03 112.04 C 140.79 111.64 141.08 110.70 140.68 109.93 L 140.21 109.05 C 139.81 108.29 138.86 108.00 138.10 108.40 C 137.34 108.80 137.05 109.75 137.45 110.51 Z M 137.92 111.39 L 138.38 112.28 C 138.79 113.04 139.73 113.33 140.50 112.93 C 141.26 112.53 141.55 111.58 141.14 110.82 L 140.68 109.93 C 140.27 109.17 139.33 108.88 138.57 109.28 C 137.80 109.69 137.51 110.63 137.92 111.39 Z M 138.38 112.27 L 138.85 113.16 C 139.25 113.92 140.19 114.22 140.95 113.82 C 141.72 113.42 142.01 112.47 141.61 111.71 L 141.15 110.82 C 140.75 110.06 139.80 109.77 139.04 110.17 C 138.28 110.57 137.98 111.51 138.38 112.27 Z M 138.84 113.15 L 139.30 114.04 C 139.69 114.81 140.64 115.11 141.40 114.71 C 142.17 114.32 142.47 113.38 142.08 112.61 L 141.62 111.72 C 141.22 110.95 140.28 110.65 139.52 111.05 C 138.75 111.44 138.45 112.38 138.84 113.15 Z M 139.29 114.03 L 139.75 114.92 C 140.14 115.69 141.07 116.00 141.84 115.61 C 142.61 115.22 142.92 114.28 142.53 113.51 L 142.08 112.62 C 141.69 111.85 140.75 111.54 139.98 111.93 C 139.21 112.32 138.91 113.26 139.29 114.03 Z M 139.74 114.92 L 140.19 115.81 C 140.58 116.58 141.52 116.89 142.29 116.51 C 143.06 116.12 143.37 115.18 142.98 114.41 L 142.54 113.52 C 142.15 112.75 141.21 112.44 140.44 112.82 C 139.67 113.21 139.36 114.15 139.74 114.92 Z M 140.19 115.81 L 140.64 116.70 C 141.02 117.47 141.96 117.79 142.73 117.40 C 143.50 117.01 143.82 116.08 143.43 115.31 L 142.98 114.41 C 142.60 113.64 141.66 113.33 140.89 113.72 C 140.12 114.10 139.81 115.04 140.19 115.81 Z M 140.64 116.71 L 141.09 117.60 C 141.48 118.37 142.42 118.68 143.19 118.30 C 143.96 117.91 144.27 116.97 143.88 116.20 L 143.43 115.30 C 143.04 114.53 142.10 114.22 141.33 114.61 C 140.56 115.00 140.25 115.94 140.64 116.71 Z M 141.09 117.60 L 141.54 118.50 C 141.93 119.27 142.86 119.58 143.64 119.19 C 144.41 118.80 144.72 117.87 144.33 117.10 L 143.88 116.20 C 143.49 115.43 142.55 115.12 141.78 115.51 C 141.01 115.89 140.70 116.83 141.09 117.60 Z M 141.54 118.49 L 141.98 119.39 C 142.37 120.16 143.30 120.47 144.07 120.09 C 144.85 119.70 145.16 118.77 144.78 118.00 L 144.33 117.10 C 143.95 116.33 143.01 116.01 142.24 116.40 C 141.47 116.78 141.15 117.72 141.54 118.49 Z M 141.98 119.37 L 142.41 120.27 C 142.79 121.05 143.73 121.37 144.50 120.99 C 145.28 120.61 145.60 119.68 145.22 118.90 L 144.78 118.01 C 144.40 117.23 143.47 116.91 142.70 117.29 C 141.92 117.67 141.60 118.60 141.98 119.37 Z M 142.41 120.26 L 142.84 121.17 C 143.21 121.95 144.14 122.28 144.92 121.91 C 145.70 121.54 146.03 120.60 145.66 119.83 L 145.23 118.92 C 144.86 118.14 143.92 117.81 143.15 118.18 C 142.37 118.55 142.04 119.48 142.41 120.26 Z M 142.83 121.16 L 143.26 122.07 C 143.62 122.85 144.55 123.18 145.33 122.82 C 146.12 122.45 146.45 121.52 146.09 120.74 L 145.66 119.84 C 145.30 119.05 144.37 118.72 143.59 119.08 C 142.81 119.45 142.47 120.38 142.83 121.16 Z M 143.26 122.06 L 143.68 122.97 C 144.04 123.75 144.97 124.09 145.75 123.72 C 146.53 123.36 146.87 122.43 146.51 121.65 L 146.09 120.75 C 145.72 119.96 144.80 119.63 144.01 119.99 C 143.23 120.35 142.89 121.28 143.26 122.06 Z M 143.68 122.97 L 144.10 123.87 C 144.47 124.65 145.40 124.99 146.18 124.62 C 146.96 124.25 147.30 123.33 146.93 122.54 L 146.51 121.64 C 146.14 120.86 145.21 120.53 144.43 120.89 C 143.65 121.26 143.31 122.19 143.68 122.97 Z M 144.11 123.88 L 144.53 124.78 C 144.90 125.56 145.84 125.89 146.61 125.52 C 147.39 125.15 147.72 124.22 147.35 123.44 L 146.93 122.54 C 146.56 121.76 145.62 121.43 144.85 121.80 C 144.07 122.17 143.74 123.10 144.11 123.88 Z M 144.54 124.78 L 144.97 125.68 C 145.34 126.46 146.27 126.79 147.05 126.42 C 147.82 126.05 148.15 125.12 147.78 124.34 L 147.35 123.44 C 146.98 122.66 146.05 122.33 145.27 122.70 C 144.49 123.07 144.16 124.00 144.54 124.78 Z M 144.96 125.68 L 145.39 126.58 C 145.76 127.36 146.69 127.69 147.47 127.32 C 148.25 126.95 148.58 126.02 148.21 125.24 L 147.78 124.34 C 147.41 123.56 146.48 123.23 145.70 123.60 C 144.93 123.97 144.59 124.90 144.96 125.68 Z M 145.39 126.58 L 145.82 127.49 C 146.18 128.27 147.11 128.61 147.89 128.24 C 148.67 127.87 149.01 126.94 148.64 126.16 L 148.22 125.25 C 147.85 124.47 146.92 124.13 146.14 124.50 C 145.36 124.87 145.02 125.80 145.39 126.58 Z M 145.81 127.48 L 146.23 128.40 C 146.59 129.18 147.52 129.52 148.30 129.16 C 149.09 128.80 149.43 127.88 149.07 127.09 L 148.65 126.17 C 148.29 125.39 147.36 125.05 146.58 125.41 C 145.80 125.77 145.45 126.69 145.81 127.48 Z M 146.23 128.38 L 146.64 129.30 C 146.99 130.08 147.91 130.44 148.70 130.08 C 149.48 129.73 149.84 128.81 149.49 128.02 L 149.08 127.11 C 148.73 126.32 147.80 125.97 147.02 126.32 C 146.23 126.67 145.88 127.59 146.23 128.38 Z M 146.63 129.28 L 147.02 130.18 C 147.36 130.97 148.27 131.34 149.07 131.00 C 149.86 130.66 150.22 129.74 149.88 128.95 L 149.50 128.04 C 149.15 127.25 148.24 126.88 147.44 127.22 C 146.65 127.57 146.29 128.48 146.63 129.28 Z M 147.01 130.16 L 147.39 131.09 C 147.72 131.89 148.63 132.27 149.43 131.94 C 150.22 131.62 150.61 130.71 150.28 129.91 L 149.89 128.97 C 149.57 128.17 148.66 127.79 147.86 128.12 C 147.06 128.45 146.68 129.36 147.01 130.16 Z M 147.38 131.07 L 147.75 132.00 C 148.06 132.80 148.97 133.20 149.77 132.88 C 150.57 132.56 150.97 131.66 150.65 130.85 L 150.29 129.93 C 149.97 129.12 149.06 128.73 148.26 129.05 C 147.46 129.36 147.06 130.27 147.38 131.07 Z M 147.74 131.99 L 148.10 132.92 C 148.41 133.72 149.32 134.12 150.12 133.81 C 150.92 133.50 151.32 132.59 151.01 131.79 L 150.66 130.86 C 150.34 130.06 149.44 129.66 148.64 129.97 C 147.83 130.28 147.43 131.19 147.74 131.99 Z M 148.10 132.92 L 148.46 133.85 C 148.77 134.65 149.68 135.05 150.48 134.74 C 151.29 134.43 151.68 133.52 151.37 132.72 L 151.01 131.79 C 150.70 130.98 149.80 130.58 148.99 130.90 C 148.19 131.21 147.79 132.11 148.10 132.92 Z M 148.46 133.85 L 148.83 134.79 C 149.14 135.59 150.05 135.99 150.85 135.67 C 151.65 135.36 152.05 134.46 151.74 133.65 L 151.37 132.72 C 151.06 131.91 150.15 131.51 149.35 131.83 C 148.55 132.14 148.15 133.05 148.46 133.85 Z M 148.83 134.79 L 149.19 135.72 C 149.50 136.53 150.41 136.92 151.21 136.61 C 152.02 136.30 152.41 135.39 152.10 134.59 L 151.74 133.65 C 151.43 132.85 150.52 132.45 149.72 132.77 C 148.91 133.08 148.52 133.98 148.83 134.79 Z M 149.19 135.71 L 149.54 136.64 C 149.85 137.44 150.75 137.85 151.56 137.54 C 152.37 137.23 152.77 136.33 152.46 135.52 L 152.11 134.60 C 151.80 133.79 150.89 133.39 150.09 133.70 C 149.28 134.01 148.88 134.91 149.19 135.71 Z M 149.54 136.63 L 149.83 137.41 C 150.14 138.22 151.04 138.63 151.84 138.33 C 152.65 138.02 153.06 137.12 152.76 136.32 L 152.46 135.53 C 152.16 134.72 151.26 134.32 150.45 134.62 C 149.65 134.92 149.24 135.82 149.54 136.63 Z M 149.83 137.41 L 150.14 138.24 C 150.44 139.04 151.34 139.46 152.15 139.16 C 152.96 138.85 153.37 137.96 153.07 137.15 L 152.76 136.32 C 152.46 135.51 151.56 135.10 150.75 135.40 C 149.94 135.70 149.53 136.60 149.83 137.41 Z M 150.14 138.24 L 150.50 139.19 C 150.80 139.99 151.70 140.40 152.51 140.10 C 153.31 139.79 153.72 138.89 153.42 138.09 L 153.06 137.14 C 152.76 136.34 151.86 135.93 151.05 136.23 C 150.25 136.53 149.84 137.43 150.14 138.24 Z M 150.50 139.20 L 150.93 140.33 C 151.24 141.13 152.15 141.53 152.95 141.22 C 153.76 140.92 154.16 140.01 153.85 139.21 L 153.42 138.08 C 153.11 137.27 152.20 136.87 151.40 137.18 C 150.59 137.49 150.19 138.39 150.50 139.20 Z M 150.94 140.33 L 151.29 141.24 C 151.60 142.04 152.51 142.44 153.31 142.12 C 154.11 141.81 154.51 140.90 154.20 140.10 L 153.85 139.20 C 153.53 138.40 152.63 138.00 151.82 138.31 C 151.02 138.63 150.62 139.53 150.94 140.33 Z M 151.29 141.24 L 151.65 142.14 C 151.97 142.94 152.87 143.34 153.67 143.02 C 154.48 142.70 154.87 141.79 154.55 140.99 L 154.20 140.09 C 153.88 139.29 152.97 138.90 152.17 139.22 C 151.37 139.53 150.97 140.44 151.29 141.24 Z M 151.65 142.15 L 152.03 143.10 C 152.35 143.90 153.26 144.29 154.06 143.97 C 154.86 143.65 155.25 142.74 154.93 141.94 L 154.55 140.99 C 154.23 140.19 153.32 139.80 152.52 140.12 C 151.72 140.44 151.33 141.35 151.65 142.15 Z M 152.03 143.11 L 152.43 144.08 C 152.76 144.88 153.67 145.26 154.47 144.94 C 155.26 144.61 155.65 143.70 155.32 142.90 L 154.93 141.93 C 154.60 141.13 153.69 140.75 152.89 141.07 C 152.09 141.40 151.71 142.31 152.03 143.11 Z M 152.43 144.09 L 152.84 145.06 C 153.17 145.86 154.08 146.24 154.88 145.91 C 155.67 145.58 156.05 144.66 155.72 143.87 L 155.32 142.90 C 154.99 142.10 154.08 141.72 153.28 142.05 C 152.48 142.38 152.10 143.29 152.43 144.09 Z M 152.84 145.07 L 153.24 146.01 C 153.57 146.81 154.49 147.18 155.28 146.84 C 156.08 146.51 156.45 145.59 156.11 144.80 L 155.72 143.86 C 155.38 143.06 154.47 142.69 153.67 143.03 C 152.88 143.36 152.51 144.28 152.84 145.07 Z M 153.24 146.03 L 153.64 146.95 C 153.99 147.75 154.91 148.11 155.70 147.77 C 156.49 147.42 156.85 146.51 156.51 145.71 L 156.11 144.79 C 155.77 143.99 154.85 143.63 154.06 143.97 C 153.26 144.32 152.90 145.23 153.24 146.03 Z M 153.65 146.97 L 154.14 148.05 C 154.49 148.83 155.41 149.19 156.20 148.83 C 156.99 148.48 157.34 147.55 156.98 146.77 L 156.50 145.69 C 156.15 144.91 155.22 144.56 154.44 144.91 C 153.65 145.26 153.30 146.19 153.65 146.97 Z M 154.15 148.07 L 154.60 149.03 C 154.96 149.81 155.89 150.14 156.67 149.78 C 157.45 149.41 157.79 148.48 157.42 147.70 L 156.97 146.74 C 156.61 145.96 155.68 145.63 154.90 146.00 C 154.12 146.36 153.78 147.29 154.15 148.07 Z M 154.61 149.05 L 155.03 149.91 C 155.41 150.69 156.35 151.01 157.12 150.63 C 157.89 150.25 158.21 149.31 157.83 148.54 L 157.41 147.68 C 157.03 146.90 156.10 146.58 155.32 146.96 C 154.55 147.34 154.23 148.28 154.61 149.05 Z M 155.04 149.94 L 155.45 150.73 C 155.84 151.50 156.78 151.80 157.55 151.41 C 158.31 151.02 158.62 150.08 158.23 149.31 L 157.82 148.52 C 157.43 147.75 156.49 147.44 155.72 147.84 C 154.96 148.23 154.65 149.17 155.04 149.94 Z M 155.46 150.75 L 155.85 151.51 C 156.26 152.27 157.20 152.56 157.96 152.16 C 158.73 151.76 159.02 150.82 158.62 150.05 L 158.22 149.29 C 157.82 148.53 156.87 148.24 156.11 148.64 C 155.35 149.04 155.05 149.98 155.46 150.75 Z M 155.86 151.52 L 156.29 152.31 C 156.70 153.07 157.64 153.36 158.40 152.95 C 159.16 152.54 159.45 151.59 159.04 150.83 L 158.61 150.04 C 158.20 149.28 157.26 149.00 156.50 149.41 C 155.74 149.81 155.45 150.76 155.86 151.52 Z M 156.30 152.33 L 156.74 153.14 C 157.16 153.89 158.11 154.17 158.87 153.75 C 159.62 153.33 159.89 152.38 159.48 151.63 L 159.03 150.82 C 158.61 150.06 157.66 149.79 156.91 150.21 C 156.15 150.62 155.88 151.57 156.30 152.33 Z M 156.75 153.16 L 157.25 154.02 C 157.67 154.77 158.63 155.03 159.38 154.61 C 160.13 154.18 160.39 153.23 159.96 152.48 L 159.47 151.61 C 159.04 150.86 158.09 150.60 157.34 151.03 C 156.59 151.45 156.33 152.41 156.75 153.16 Z M 157.26 154.04 L 157.82 155.00 C 158.25 155.75 159.21 156.00 159.96 155.56 C 160.70 155.13 160.95 154.17 160.52 153.43 L 159.95 152.46 C 159.52 151.72 158.56 151.47 157.82 151.90 C 157.07 152.34 156.82 153.29 157.26 154.04 Z M 157.83 155.01 L 158.36 155.90 C 158.80 156.65 159.76 156.89 160.50 156.45 C 161.24 156.01 161.48 155.05 161.04 154.31 L 160.51 153.42 C 160.07 152.67 159.11 152.43 158.37 152.87 C 157.63 153.31 157.39 154.27 157.83 155.01 Z M 158.36 155.92 L 158.88 156.77 C 159.33 157.50 160.29 157.74 161.02 157.29 C 161.76 156.84 162.00 155.88 161.55 155.15 L 161.03 154.30 C 160.59 153.56 159.63 153.32 158.89 153.77 C 158.15 154.22 157.92 155.18 158.36 155.92 Z M 158.89 156.78 L 159.44 157.66 C 159.89 158.39 160.85 158.62 161.59 158.16 C 162.32 157.71 162.54 156.75 162.09 156.01 L 161.54 155.13 C 161.09 154.40 160.12 154.18 159.39 154.63 C 158.66 155.08 158.43 156.05 158.89 156.78 Z M 159.45 157.68 L 160.01 158.56 C 160.48 159.29 161.44 159.50 162.17 159.04 C 162.90 158.57 163.11 157.61 162.64 156.88 L 162.08 156.00 C 161.61 155.27 160.65 155.06 159.92 155.52 C 159.20 155.99 158.98 156.95 159.45 157.68 Z M 160.03 158.59 L 160.60 159.45 C 161.08 160.16 162.05 160.36 162.76 159.88 C 163.48 159.40 163.68 158.43 163.20 157.72 L 162.63 156.86 C 162.15 156.14 161.18 155.95 160.46 156.42 C 159.75 156.90 159.55 157.87 160.03 158.59 Z M 160.62 159.48 L 161.18 160.28 C 161.68 160.99 162.65 161.16 163.36 160.66 C 164.06 160.17 164.23 159.19 163.74 158.49 L 163.18 157.69 C 162.68 156.98 161.71 156.81 161.00 157.30 C 160.30 157.80 160.13 158.77 160.62 159.48 Z M 161.22 160.33 L 161.85 161.16 C 162.37 161.84 163.35 161.98 164.03 161.46 C 164.72 160.94 164.86 159.96 164.33 159.27 L 163.71 158.44 C 163.18 157.75 162.21 157.62 161.52 158.14 C 160.83 158.66 160.70 159.64 161.22 160.33 Z M 161.90 161.23 L 162.64 162.09 C 163.20 162.75 164.18 162.82 164.84 162.26 C 165.50 161.71 165.57 160.72 165.01 160.06 L 164.28 159.20 C 163.72 158.54 162.73 158.47 162.08 159.03 C 161.42 159.59 161.34 160.57 161.90 161.23 Z M 162.71 162.16 L 163.40 162.88 C 164.00 163.50 164.99 163.51 165.61 162.91 C 166.23 162.31 166.24 161.32 165.64 160.70 L 164.95 159.99 C 164.35 159.37 163.36 159.36 162.74 159.96 C 162.12 160.56 162.11 161.55 162.71 162.16 Z M 163.46 162.94 L 164.12 163.55 C 164.75 164.13 165.74 164.10 166.33 163.46 C 166.91 162.83 166.87 161.84 166.24 161.26 L 165.58 160.64 C 164.95 160.06 163.96 160.10 163.37 160.73 C 162.79 161.36 162.83 162.35 163.46 162.94 Z M 164.16 163.58 L 164.75 164.10 C 165.40 164.67 166.39 164.60 166.95 163.95 C 167.52 163.30 167.45 162.31 166.80 161.75 L 166.21 161.23 C 165.56 160.66 164.57 160.73 164.01 161.38 C 163.44 162.03 163.51 163.01 164.16 163.58 Z"
      fill="black"
      fill-rule="nonzero" /><path d="M 222.24 86.93 L 221.46 87.58 C 220.80 88.14 220.71 89.12 221.27 89.78 C 221.82 90.44 222.81 90.52 223.47 89.97 L 224.25 89.31 C 224.91 88.76 224.99 87.77 224.44 87.11 C 223.88 86.45 222.90 86.37 222.24 86.93 Z M 221.45 87.58 L 220.68 88.24 C 220.02 88.80 219.94 89.78 220.50 90.44 C 221.05 91.10 222.04 91.18 222.70 90.62 L 223.47 89.97 C 224.13 89.41 224.21 88.42 223.65 87.77 C 223.09 87.11 222.11 87.03 221.45 87.58 Z M 220.67 88.25 L 219.90 88.91 C 219.25 89.47 219.18 90.45 219.74 91.11 C 220.30 91.76 221.29 91.84 221.94 91.27 L 222.70 90.62 C 223.36 90.05 223.43 89.07 222.87 88.41 C 222.31 87.76 221.32 87.69 220.67 88.25 Z M 219.89 88.92 L 219.14 89.58 C 218.49 90.15 218.43 91.14 219.00 91.78 C 219.57 92.43 220.55 92.49 221.20 91.92 L 221.95 91.26 C 222.60 90.69 222.66 89.71 222.09 89.06 C 221.52 88.41 220.54 88.35 219.89 88.92 Z M 219.12 89.60 L 218.39 90.26 C 217.75 90.84 217.70 91.83 218.28 92.47 C 218.86 93.10 219.84 93.15 220.48 92.57 L 221.22 91.91 C 221.86 91.33 221.90 90.34 221.33 89.70 C 220.75 89.06 219.76 89.02 219.12 89.60 Z M 218.36 90.28 L 217.65 90.95 C 217.02 91.54 217.00 92.53 217.59 93.16 C 218.18 93.79 219.17 93.82 219.79 93.22 L 220.51 92.55 C 221.13 91.96 221.16 90.97 220.57 90.35 C 219.98 89.72 218.99 89.69 218.36 90.28 Z M 217.63 90.98 L 216.91 91.68 C 216.30 92.29 216.29 93.28 216.90 93.89 C 217.51 94.51 218.49 94.51 219.11 93.90 L 219.82 93.20 C 220.43 92.59 220.44 91.60 219.83 90.99 C 219.23 90.38 218.24 90.37 217.63 90.98 Z M 216.88 91.71 L 216.18 92.45 C 215.58 93.07 215.60 94.06 216.22 94.66 C 216.84 95.26 217.83 95.23 218.43 94.61 L 219.14 93.88 C 219.73 93.25 219.71 92.26 219.09 91.67 C 218.47 91.07 217.48 91.09 216.88 91.71 Z M 216.15 92.48 L 215.47 93.22 C 214.89 93.86 214.93 94.85 215.57 95.43 C 216.21 96.01 217.20 95.96 217.78 95.33 L 218.46 94.58 C 219.04 93.95 218.99 92.96 218.36 92.38 C 217.72 91.80 216.73 91.84 216.15 92.48 Z M 215.45 93.25 L 214.79 94.00 C 214.23 94.65 214.29 95.63 214.94 96.20 C 215.59 96.77 216.58 96.70 217.14 96.05 L 217.80 95.30 C 218.37 94.65 218.30 93.67 217.65 93.10 C 217.00 92.53 216.02 92.60 215.45 93.25 Z M 214.77 94.02 L 214.14 94.77 C 213.58 95.43 213.67 96.42 214.33 96.97 C 214.99 97.53 215.97 97.44 216.53 96.79 L 217.16 96.03 C 217.72 95.37 217.63 94.39 216.97 93.83 C 216.31 93.28 215.33 93.36 214.77 94.02 Z M 214.12 94.79 L 213.50 95.55 C 212.96 96.22 213.06 97.20 213.73 97.75 C 214.39 98.29 215.38 98.19 215.92 97.53 L 216.54 96.77 C 217.09 96.10 216.99 95.12 216.32 94.57 C 215.65 94.03 214.67 94.12 214.12 94.79 Z M 213.49 95.57 L 212.84 96.38 C 212.31 97.06 212.42 98.04 213.09 98.58 C 213.77 99.11 214.75 99.00 215.29 98.33 L 215.93 97.51 C 216.47 96.84 216.36 95.85 215.68 95.32 C 215.01 94.78 214.03 94.89 213.49 95.57 Z M 212.83 96.39 L 212.17 97.24 C 211.64 97.92 211.76 98.90 212.44 99.44 C 213.12 99.97 214.10 99.84 214.63 99.16 L 215.29 98.31 C 215.83 97.63 215.70 96.65 215.02 96.12 C 214.34 95.59 213.36 95.71 212.83 96.39 Z M 212.16 97.25 L 211.52 98.08 C 211.00 98.77 211.13 99.75 211.81 100.27 C 212.50 100.80 213.48 100.67 214.00 99.99 L 214.64 99.16 C 215.16 98.47 215.04 97.49 214.35 96.97 C 213.67 96.44 212.69 96.57 212.16 97.25 Z M 211.52 98.09 L 210.92 98.89 C 210.39 99.57 210.53 100.55 211.21 101.07 C 211.90 101.59 212.88 101.46 213.40 100.77 L 214.01 99.98 C 214.53 99.29 214.39 98.31 213.71 97.79 C 213.02 97.27 212.04 97.40 211.52 98.09 Z M 210.91 98.89 L 210.35 99.63 C 209.83 100.32 209.97 101.30 210.65 101.82 C 211.34 102.34 212.32 102.20 212.84 101.52 L 213.40 100.77 C 213.92 100.08 213.79 99.10 213.10 98.58 C 212.41 98.06 211.43 98.20 210.91 98.89 Z M 210.35 99.63 L 209.78 100.38 C 209.26 101.07 209.40 102.05 210.08 102.57 C 210.77 103.09 211.75 102.96 212.27 102.27 L 212.84 101.52 C 213.36 100.83 213.23 99.85 212.54 99.33 C 211.85 98.81 210.87 98.94 210.35 99.63 Z M 209.78 100.38 L 209.11 101.27 C 208.59 101.95 208.72 102.93 209.40 103.46 C 210.09 103.98 211.07 103.85 211.59 103.16 L 212.27 102.27 C 212.79 101.59 212.66 100.61 211.97 100.08 C 211.29 99.56 210.31 99.69 209.78 100.38 Z M 209.11 101.27 L 208.52 102.04 C 208.00 102.72 208.13 103.70 208.81 104.23 C 209.50 104.75 210.48 104.62 211.00 103.93 L 211.59 103.16 C 212.11 102.48 211.98 101.50 211.30 100.97 C 210.61 100.45 209.63 100.58 209.11 101.27 Z M 208.52 102.04 L 207.98 102.76 C 207.45 103.44 207.59 104.42 208.28 104.94 C 208.96 105.46 209.94 105.33 210.46 104.64 L 211.00 103.93 C 211.53 103.24 211.39 102.26 210.70 101.74 C 210.02 101.22 209.04 101.36 208.52 102.04 Z M 207.97 102.77 L 207.45 103.46 C 206.93 104.15 207.07 105.13 207.76 105.65 C 208.45 106.16 209.43 106.02 209.95 105.33 L 210.47 104.63 C 210.99 103.94 210.84 102.96 210.15 102.45 C 209.46 101.93 208.48 102.07 207.97 102.77 Z M 207.44 103.47 L 206.90 104.21 C 206.38 104.90 206.53 105.88 207.22 106.39 C 207.92 106.90 208.89 106.76 209.41 106.06 L 209.95 105.33 C 210.47 104.63 210.32 103.66 209.63 103.14 C 208.93 102.63 207.96 102.78 207.44 103.47 Z M 206.90 104.20 L 206.29 105.03 C 205.77 105.72 205.92 106.70 206.61 107.21 C 207.30 107.73 208.28 107.58 208.79 106.89 L 209.40 106.07 C 209.92 105.38 209.78 104.40 209.08 103.88 C 208.39 103.37 207.41 103.51 206.90 104.20 Z M 206.29 105.02 L 205.61 105.92 C 205.09 106.61 205.23 107.59 205.92 108.11 C 206.60 108.63 207.58 108.49 208.10 107.80 L 208.79 106.90 C 209.31 106.21 209.17 105.23 208.48 104.71 C 207.79 104.19 206.81 104.33 206.29 105.02 Z M 205.62 105.92 L 205.03 106.68 C 204.51 107.36 204.64 108.34 205.33 108.87 C 206.01 109.39 206.99 109.26 207.51 108.58 L 208.10 107.81 C 208.62 107.13 208.49 106.15 207.80 105.62 C 207.12 105.10 206.14 105.23 205.62 105.92 Z M 205.04 106.68 L 204.41 107.49 C 203.89 108.17 204.02 109.15 204.70 109.68 C 205.38 110.20 206.36 110.07 206.89 109.39 L 207.51 108.58 C 208.04 107.89 207.91 106.91 207.22 106.39 C 206.54 105.86 205.56 105.99 205.04 106.68 Z M 204.41 107.49 L 203.78 108.31 C 203.25 109.00 203.38 109.98 204.06 110.50 C 204.75 111.03 205.73 110.90 206.25 110.22 L 206.89 109.39 C 207.41 108.71 207.29 107.73 206.60 107.20 C 205.92 106.67 204.94 106.80 204.41 107.49 Z M 203.78 108.32 L 203.16 109.13 C 202.63 109.81 202.76 110.79 203.45 111.32 C 204.13 111.84 205.11 111.71 205.64 111.02 L 206.26 110.21 C 206.78 109.53 206.65 108.55 205.96 108.02 C 205.28 107.50 204.30 107.63 203.78 108.32 Z M 203.15 109.13 L 202.57 109.90 C 202.05 110.59 202.18 111.57 202.87 112.09 C 203.56 112.61 204.54 112.47 205.06 111.79 L 205.64 111.02 C 206.16 110.33 206.03 109.35 205.34 108.83 C 204.65 108.31 203.67 108.45 203.15 109.13 Z M 202.56 109.91 L 202.01 110.66 C 201.49 111.35 201.64 112.33 202.33 112.85 C 203.02 113.36 204.00 113.21 204.51 112.52 L 205.07 111.78 C 205.58 111.08 205.44 110.11 204.74 109.59 C 204.05 109.08 203.07 109.22 202.56 109.91 Z M 201.99 110.68 L 201.46 111.41 C 200.96 112.11 201.11 113.08 201.81 113.59 C 202.51 114.10 203.49 113.94 203.99 113.24 L 204.52 112.51 C 205.03 111.81 204.87 110.83 204.17 110.33 C 203.48 109.82 202.50 109.98 201.99 110.68 Z M 201.45 111.42 L 200.90 112.21 C 200.40 112.91 200.57 113.88 201.27 114.38 C 201.98 114.88 202.95 114.71 203.45 114.01 L 204.00 113.23 C 204.50 112.52 204.33 111.55 203.63 111.05 C 202.92 110.55 201.95 110.72 201.45 111.42 Z M 200.89 112.22 L 200.27 113.11 C 199.78 113.82 199.96 114.79 200.67 115.28 C 201.38 115.77 202.35 115.60 202.84 114.89 L 203.46 114.00 C 203.95 113.29 203.77 112.32 203.06 111.83 C 202.36 111.33 201.38 111.51 200.89 112.22 Z M 200.27 113.12 L 199.67 113.99 C 199.18 114.70 199.36 115.67 200.07 116.16 C 200.78 116.65 201.76 116.47 202.24 115.76 L 202.84 114.88 C 203.33 114.17 203.15 113.20 202.44 112.71 C 201.73 112.22 200.76 112.40 200.27 113.12 Z M 199.67 113.99 L 199.15 114.76 C 198.66 115.47 198.85 116.44 199.56 116.93 C 200.27 117.41 201.24 117.23 201.73 116.52 L 202.25 115.75 C 202.73 115.04 202.55 114.07 201.84 113.58 C 201.12 113.10 200.15 113.28 199.67 113.99 Z M 199.15 114.76 L 198.59 115.58 C 198.11 116.29 198.29 117.26 199.00 117.75 C 199.72 118.23 200.69 118.04 201.17 117.33 L 201.73 116.51 C 202.21 115.80 202.03 114.83 201.31 114.34 C 200.60 113.86 199.63 114.05 199.15 114.76 Z M 198.59 115.58 L 198.01 116.44 C 197.53 117.15 197.71 118.12 198.43 118.60 C 199.14 119.09 200.11 118.90 200.60 118.18 L 201.18 117.33 C 201.66 116.61 201.47 115.64 200.76 115.16 C 200.04 114.68 199.07 114.87 198.59 115.58 Z M 198.01 116.44 L 197.42 117.31 C 196.94 118.03 197.13 119.00 197.84 119.48 C 198.56 119.96 199.53 119.77 200.01 119.06 L 200.60 118.18 C 201.08 117.47 200.89 116.50 200.17 116.01 C 199.46 115.53 198.49 115.72 198.01 116.44 Z M 197.42 117.32 L 196.83 118.19 C 196.35 118.91 196.54 119.88 197.26 120.36 C 197.98 120.84 198.95 120.64 199.43 119.93 L 200.01 119.05 C 200.49 118.34 200.30 117.37 199.58 116.89 C 198.87 116.41 197.90 116.60 197.42 117.32 Z M 196.83 118.19 L 196.26 119.05 C 195.78 119.77 195.98 120.74 196.69 121.21 C 197.41 121.69 198.38 121.50 198.86 120.78 L 199.43 119.92 C 199.91 119.21 199.71 118.24 198.99 117.76 C 198.28 117.28 197.31 117.48 196.83 118.19 Z M 196.26 119.05 L 195.70 119.89 C 195.23 120.61 195.42 121.58 196.14 122.06 C 196.86 122.53 197.83 122.34 198.31 121.62 L 198.86 120.78 C 199.34 120.06 199.14 119.09 198.42 118.61 C 197.70 118.14 196.73 118.33 196.26 119.05 Z M 195.70 119.90 L 195.11 120.80 C 194.63 121.52 194.84 122.49 195.56 122.96 C 196.28 123.43 197.25 123.23 197.72 122.51 L 198.31 121.61 C 198.78 120.89 198.58 119.92 197.86 119.45 C 197.14 118.98 196.17 119.18 195.70 119.90 Z M 195.10 120.80 L 194.55 121.65 C 194.08 122.38 194.29 123.34 195.01 123.81 C 195.73 124.28 196.70 124.08 197.17 123.35 L 197.72 122.51 C 198.19 121.78 197.99 120.82 197.26 120.35 C 196.54 119.88 195.57 120.08 195.10 120.80 Z M 194.55 121.66 L 194.02 122.47 C 193.56 123.20 193.76 124.16 194.49 124.63 C 195.21 125.10 196.18 124.89 196.65 124.17 L 197.17 123.35 C 197.64 122.63 197.43 121.66 196.71 121.19 C 195.99 120.72 195.02 120.93 194.55 121.66 Z M 194.02 122.47 L 193.51 123.28 C 193.04 124.00 193.25 124.97 193.97 125.43 C 194.70 125.90 195.66 125.69 196.13 124.97 L 196.65 124.16 C 197.11 123.44 196.91 122.47 196.18 122.01 C 195.46 121.54 194.49 121.75 194.02 122.47 Z M 193.51 123.27 L 192.98 124.09 C 192.52 124.81 192.72 125.78 193.45 126.24 C 194.17 126.71 195.14 126.50 195.61 125.78 L 196.13 124.97 C 196.60 124.24 196.39 123.28 195.66 122.81 C 194.94 122.34 193.97 122.55 193.51 123.27 Z M 192.98 124.08 L 192.44 124.92 C 191.97 125.64 192.18 126.61 192.90 127.08 C 193.62 127.55 194.59 127.34 195.06 126.62 L 195.60 125.78 C 196.07 125.06 195.87 124.09 195.14 123.62 C 194.42 123.15 193.45 123.36 192.98 124.08 Z M 192.44 124.92 L 191.90 125.74 C 191.43 126.47 191.64 127.43 192.36 127.90 C 193.08 128.37 194.05 128.17 194.52 127.45 L 195.06 126.62 C 195.53 125.90 195.33 124.93 194.60 124.46 C 193.88 123.99 192.91 124.20 192.44 124.92 Z M 191.91 125.74 L 191.35 126.59 C 190.87 127.31 191.08 128.28 191.80 128.75 C 192.52 129.23 193.49 129.03 193.96 128.30 L 194.52 127.45 C 194.99 126.73 194.79 125.76 194.07 125.29 C 193.35 124.82 192.38 125.02 191.91 125.74 Z M 191.35 126.59 L 190.78 127.46 C 190.31 128.18 190.51 129.14 191.23 129.62 C 191.95 130.09 192.92 129.89 193.39 129.17 L 193.96 128.31 C 194.43 127.59 194.23 126.62 193.51 126.14 C 192.79 125.67 191.82 125.87 191.35 126.59 Z M 190.78 127.45 L 190.21 128.32 C 189.74 129.04 189.94 130.00 190.66 130.48 C 191.38 130.95 192.35 130.75 192.82 130.03 L 193.39 129.17 C 193.86 128.45 193.66 127.48 192.94 127.01 C 192.22 126.53 191.26 126.73 190.78 127.45 Z M 190.21 128.32 L 189.66 129.16 C 189.19 129.88 189.39 130.85 190.11 131.32 C 190.83 131.79 191.80 131.59 192.27 130.87 L 192.82 130.03 C 193.30 129.31 193.10 128.34 192.38 127.87 C 191.66 127.40 190.69 127.60 190.21 128.32 Z M 189.66 129.16 L 189.13 129.97 C 188.66 130.69 188.86 131.66 189.58 132.13 C 190.30 132.60 191.27 132.40 191.74 131.68 L 192.27 130.87 C 192.74 130.15 192.54 129.18 191.82 128.71 C 191.10 128.24 190.13 128.44 189.66 129.16 Z M 189.13 129.97 L 188.56 130.84 C 188.09 131.56 188.29 132.53 189.01 133.00 C 189.73 133.47 190.70 133.27 191.17 132.55 L 191.74 131.68 C 192.21 130.96 192.01 129.99 191.29 129.52 C 190.57 129.05 189.60 129.25 189.13 129.97 Z M 188.56 130.84 L 187.96 131.77 C 187.49 132.49 187.69 133.46 188.42 133.93 C 189.14 134.40 190.11 134.19 190.58 133.47 L 191.18 132.54 C 191.65 131.82 191.44 130.85 190.72 130.38 C 189.99 129.91 189.03 130.12 188.56 130.84 Z M 187.95 131.77 L 187.41 132.62 C 186.94 133.35 187.15 134.31 187.87 134.78 C 188.59 135.25 189.56 135.04 190.03 134.32 L 190.58 133.47 C 191.05 132.74 190.84 131.77 190.11 131.31 C 189.39 130.84 188.42 131.05 187.95 131.77 Z M 187.40 132.62 L 186.89 133.42 C 186.42 134.14 186.63 135.11 187.36 135.58 C 188.08 136.04 189.05 135.83 189.52 135.11 L 190.03 134.31 C 190.50 133.59 190.29 132.62 189.56 132.16 C 188.84 131.69 187.87 131.90 187.40 132.62 Z M 186.89 133.42 L 186.40 134.18 C 185.93 134.90 186.14 135.87 186.87 136.34 C 187.59 136.80 188.56 136.60 189.02 135.87 L 189.52 135.11 C 189.98 134.39 189.78 133.42 189.05 132.95 C 188.33 132.48 187.36 132.69 186.89 133.42 Z M 186.40 134.18 L 185.88 134.98 C 185.41 135.70 185.62 136.67 186.34 137.14 C 187.07 137.61 188.03 137.40 188.50 136.68 L 189.02 135.87 C 189.49 135.15 189.29 134.18 188.56 133.72 C 187.84 133.25 186.87 133.45 186.40 134.18 Z M 185.89 134.97 L 185.34 135.81 C 184.86 136.53 185.07 137.50 185.79 137.97 C 186.51 138.44 187.48 138.24 187.95 137.52 L 188.50 136.68 C 188.97 135.96 188.77 134.99 188.05 134.52 C 187.33 134.05 186.36 134.25 185.89 134.97 Z M 185.34 135.80 L 184.79 136.64 C 184.31 137.35 184.51 138.32 185.22 138.80 C 185.94 139.28 186.91 139.08 187.39 138.36 L 187.94 137.53 C 188.42 136.81 188.22 135.84 187.51 135.37 C 186.79 134.89 185.82 135.08 185.34 135.80 Z M 184.80 136.62 L 184.24 137.45 C 183.75 138.16 183.94 139.13 184.66 139.62 C 185.37 140.10 186.34 139.91 186.82 139.20 L 187.38 138.37 C 187.87 137.66 187.68 136.69 186.96 136.21 C 186.25 135.72 185.28 135.91 184.80 136.62 Z M 184.25 137.44 L 183.68 138.26 C 183.19 138.97 183.37 139.94 184.08 140.43 C 184.79 140.92 185.76 140.74 186.25 140.03 L 186.82 139.21 C 187.31 138.50 187.13 137.53 186.42 137.04 C 185.71 136.55 184.74 136.73 184.25 137.44 Z M 183.69 138.24 L 183.11 139.06 C 182.61 139.77 182.78 140.74 183.48 141.24 C 184.19 141.74 185.16 141.57 185.66 140.87 L 186.24 140.05 C 186.74 139.34 186.57 138.37 185.87 137.87 C 185.16 137.37 184.19 137.54 183.69 138.24 Z M 183.12 139.05 L 182.53 139.86 C 182.03 140.56 182.19 141.54 182.88 142.04 C 183.58 142.55 184.56 142.39 185.06 141.69 L 185.65 140.88 C 186.16 140.18 186.00 139.20 185.30 138.70 C 184.60 138.19 183.62 138.35 183.12 139.05 Z M 182.54 139.85 L 181.95 140.66 C 181.44 141.35 181.59 142.33 182.28 142.84 C 182.98 143.35 183.95 143.20 184.47 142.51 L 185.06 141.70 C 185.57 141.01 185.42 140.03 184.72 139.52 C 184.03 139.01 183.05 139.16 182.54 139.85 Z M 181.96 140.65 L 181.36 141.44 C 180.85 142.14 180.99 143.11 181.68 143.63 C 182.37 144.14 183.35 144.00 183.86 143.31 L 184.46 142.51 C 184.97 141.82 184.83 140.84 184.14 140.33 C 183.45 139.81 182.47 139.96 181.96 140.65 Z M 181.37 141.44 L 180.76 142.24 C 180.24 142.92 180.38 143.90 181.07 144.42 C 181.76 144.94 182.73 144.81 183.25 144.12 L 183.86 143.32 C 184.38 142.63 184.24 141.65 183.55 141.13 C 182.87 140.61 181.89 140.75 181.37 141.44 Z M 180.77 142.23 L 180.16 143.02 C 179.64 143.71 179.77 144.69 180.45 145.21 C 181.14 145.74 182.12 145.60 182.64 144.92 L 183.25 144.13 C 183.77 143.44 183.64 142.46 182.96 141.94 C 182.27 141.41 181.29 141.54 180.77 142.23 Z M 180.17 143.02 L 179.56 143.81 C 179.03 144.49 179.16 145.47 179.84 146.00 C 180.52 146.53 181.50 146.40 182.03 145.72 L 182.64 144.93 C 183.16 144.24 183.04 143.26 182.36 142.74 C 181.67 142.21 180.69 142.34 180.17 143.02 Z M 179.56 143.80 L 178.95 144.59 C 178.42 145.27 178.54 146.25 179.22 146.78 C 179.90 147.31 180.88 147.19 181.41 146.51 L 182.02 145.72 C 182.55 145.04 182.43 144.06 181.75 143.53 C 181.07 143.00 180.09 143.12 179.56 143.80 Z M 178.95 144.59 L 178.33 145.38 C 177.80 146.06 177.92 147.04 178.59 147.57 C 179.27 148.10 180.25 147.99 180.79 147.31 L 181.41 146.51 C 181.94 145.84 181.82 144.85 181.14 144.32 C 180.46 143.79 179.48 143.91 178.95 144.59 Z M 178.33 145.38 L 177.71 146.17 C 177.17 146.84 177.29 147.83 177.97 148.36 C 178.64 148.89 179.62 148.78 180.16 148.10 L 180.78 147.31 C 181.32 146.63 181.20 145.65 180.52 145.12 C 179.85 144.58 178.87 144.70 178.33 145.38 Z M 177.71 146.16 L 177.09 146.95 C 176.55 147.62 176.66 148.60 177.34 149.14 C 178.01 149.68 178.99 149.56 179.53 148.89 L 180.16 148.11 C 180.69 147.43 180.58 146.45 179.91 145.91 C 179.23 145.38 178.25 145.49 177.71 146.16 Z M 177.09 146.94 L 176.47 147.71 C 175.93 148.39 176.04 149.37 176.71 149.91 C 177.38 150.45 178.37 150.34 178.91 149.67 L 179.53 148.90 C 180.07 148.22 179.96 147.24 179.29 146.70 C 178.62 146.16 177.63 146.27 177.09 146.94 Z M 176.48 147.71 L 175.84 148.49 C 175.30 149.16 175.40 150.14 176.07 150.68 C 176.74 151.23 177.72 151.13 178.27 150.46 L 178.90 149.68 C 179.44 149.01 179.34 148.02 178.67 147.48 C 178.00 146.94 177.02 147.04 176.48 147.71 Z M 175.85 148.48 L 175.21 149.26 C 174.66 149.92 174.75 150.91 175.42 151.46 C 176.08 152.00 177.07 151.91 177.62 151.24 L 178.26 150.47 C 178.81 149.80 178.71 148.82 178.05 148.27 C 177.38 147.72 176.40 147.81 175.85 148.48 Z M 175.22 149.25 L 174.58 150.01 C 174.02 150.67 174.11 151.65 174.77 152.21 C 175.42 152.76 176.41 152.68 176.96 152.02 L 177.61 151.26 C 178.16 150.60 178.08 149.61 177.42 149.06 C 176.76 148.50 175.77 148.59 175.22 149.25 Z M 174.59 149.99 L 173.94 150.74 C 173.38 151.39 173.45 152.38 174.10 152.94 C 174.76 153.51 175.74 153.43 176.31 152.78 L 176.95 152.03 C 177.52 151.38 177.44 150.40 176.79 149.83 C 176.14 149.27 175.15 149.34 174.59 149.99 Z M 173.96 150.72 L 173.28 151.48 C 172.71 152.12 172.77 153.11 173.41 153.68 C 174.05 154.26 175.04 154.20 175.61 153.56 L 176.29 152.80 C 176.86 152.16 176.81 151.17 176.16 150.60 C 175.52 150.02 174.53 150.08 173.96 150.72 Z M 173.30 151.46 L 172.61 152.21 C 172.02 152.85 172.06 153.83 172.70 154.42 C 173.33 155.00 174.32 154.96 174.90 154.33 L 175.60 153.58 C 176.18 152.94 176.14 151.95 175.51 151.37 C 174.87 150.79 173.88 150.83 173.30 151.46 Z M 172.62 152.20 L 171.94 152.92 C 171.34 153.55 171.37 154.54 172.00 155.13 C 172.62 155.72 173.61 155.69 174.20 155.07 L 174.89 154.34 C 175.48 153.72 175.45 152.73 174.83 152.14 C 174.20 151.54 173.21 151.57 172.62 152.20 Z M 171.95 152.91 L 171.28 153.60 C 170.68 154.22 170.70 155.21 171.32 155.81 C 171.94 156.41 172.92 156.39 173.52 155.77 L 174.19 155.08 C 174.79 154.46 174.77 153.47 174.15 152.87 C 173.53 152.27 172.55 152.29 171.95 152.91 Z M 171.29 153.59 L 170.59 154.31 C 169.98 154.92 169.99 155.91 170.60 156.52 C 171.22 157.12 172.21 157.11 172.81 156.50 L 173.51 155.78 C 174.12 155.17 174.11 154.18 173.49 153.57 C 172.88 152.97 171.89 152.98 171.29 153.59 Z M 170.59 154.30 L 169.90 155.00 C 169.29 155.61 169.29 156.60 169.90 157.21 C 170.51 157.82 171.50 157.81 172.11 157.20 L 172.81 156.50 C 173.41 155.89 173.41 154.90 172.80 154.30 C 172.19 153.69 171.20 153.69 170.59 154.30 Z M 169.90 155.00 L 169.20 155.70 C 168.59 156.31 168.59 157.30 169.19 157.91 C 169.80 158.52 170.79 158.52 171.40 157.91 L 172.11 157.21 C 172.72 156.60 172.72 155.61 172.11 155.00 C 171.50 154.39 170.51 154.39 169.90 155.00 Z M 169.20 155.70 L 168.50 156.39 C 167.89 157.00 167.89 157.99 168.50 158.60 C 169.10 159.21 170.09 159.21 170.70 158.61 L 171.40 157.91 C 172.01 157.30 172.01 156.31 171.41 155.70 C 170.80 155.09 169.81 155.09 169.20 155.70 Z M 168.50 156.39 L 167.81 157.08 C 167.20 157.69 167.19 158.68 167.80 159.29 C 168.41 159.90 169.40 159.90 170.01 159.30 L 170.70 158.61 C 171.31 158.00 171.32 157.01 170.71 156.40 C 170.10 155.79 169.11 155.79 168.50 156.39 Z M 167.81 157.08 L 167.09 157.79 C 166.48 158.39 166.47 159.38 167.08 160.00 C 167.68 160.61 168.67 160.62 169.29 160.01 L 170.00 159.30 C 170.62 158.70 170.63 157.71 170.02 157.09 C 169.41 156.48 168.43 156.47 167.81 157.08 Z M 167.10 157.78 L 166.36 158.50 C 165.75 159.10 165.73 160.08 166.33 160.70 C 166.93 161.32 167.92 161.34 168.54 160.74 L 169.28 160.02 C 169.90 159.42 169.91 158.43 169.31 157.81 C 168.71 157.19 167.72 157.18 167.10 157.78 Z M 166.38 158.48 L 165.62 159.20 C 165.00 159.80 164.97 160.78 165.57 161.41 C 166.16 162.03 167.15 162.06 167.78 161.46 L 168.53 160.75 C 169.15 160.15 169.18 159.16 168.58 158.54 C 167.99 157.91 167.00 157.89 166.38 158.48 Z M 165.62 159.21 L 164.88 159.92 C 164.25 160.52 164.23 161.50 164.83 162.13 C 165.43 162.75 166.42 162.77 167.04 162.17 L 167.78 161.46 C 168.40 160.86 168.42 159.87 167.83 159.25 C 167.23 158.63 166.24 158.61 165.62 159.21 Z M 164.84 159.95 L 164.14 160.67 C 163.54 161.28 163.55 162.27 164.17 162.87 C 164.78 163.48 165.77 163.47 166.37 162.85 L 167.07 162.14 C 167.68 161.52 167.67 160.53 167.05 159.93 C 166.43 159.33 165.44 159.34 164.84 159.95 Z M 164.08 160.74 L 163.46 161.45 C 162.89 162.11 162.96 163.09 163.62 163.66 C 164.27 164.22 165.25 164.15 165.82 163.50 L 166.44 162.78 C 167.00 162.13 166.93 161.14 166.28 160.58 C 165.63 160.01 164.64 160.08 164.08 160.74 Z M 163.35 161.59 L 162.81 162.37 C 162.32 163.08 162.50 164.05 163.21 164.54 C 163.92 165.03 164.89 164.86 165.38 164.15 L 165.92 163.36 C 166.41 162.66 166.24 161.68 165.53 161.19 C 164.82 160.70 163.85 160.88 163.35 161.59 Z M 162.68 162.60 L 162.28 163.46 C 161.92 164.24 162.25 165.17 163.03 165.53 C 163.81 165.90 164.74 165.56 165.11 164.78 L 165.51 163.92 C 165.87 163.14 165.54 162.21 164.76 161.85 C 163.97 161.48 163.05 161.82 162.68 162.60 Z M 162.18 163.75 L 161.94 164.74 C 161.74 165.57 162.26 166.42 163.09 166.62 C 163.93 166.82 164.78 166.30 164.98 165.46 L 165.21 164.48 C 165.41 163.64 164.90 162.80 164.06 162.60 C 163.22 162.40 162.38 162.91 162.18 163.75 Z M 161.90 165.01 L 161.84 166.05 C 161.79 166.91 162.45 167.65 163.31 167.70 C 164.17 167.75 164.91 167.09 164.96 166.23 L 165.02 165.19 C 165.07 164.33 164.41 163.59 163.55 163.54 C 162.68 163.49 161.95 164.15 161.90 165.01 Z M 161.84 166.23 L 161.90 167.20 C 161.95 168.06 162.69 168.72 163.55 168.67 C 164.41 168.62 165.07 167.88 165.02 167.02 L 164.96 166.05 C 164.91 165.19 164.17 164.53 163.31 164.58 C 162.45 164.63 161.79 165.37 161.84 166.23 Z M 161.91 167.30 L 162.03 168.33 C 162.14 169.18 162.92 169.79 163.77 169.69 C 164.63 169.58 165.24 168.80 165.13 167.95 L 165.01 166.92 C 164.90 166.06 164.12 165.46 163.27 165.56 C 162.41 165.67 161.80 166.45 161.91 167.30 Z M 162.04 168.39 L 162.21 169.42 C 162.35 170.27 163.16 170.85 164.01 170.71 C 164.86 170.57 165.43 169.76 165.29 168.91 L 165.12 167.88 C 164.98 167.03 164.18 166.46 163.33 166.60 C 162.48 166.74 161.90 167.54 162.04 168.39 Z M 162.22 169.46 L 162.41 170.44 C 162.57 171.29 163.38 171.84 164.23 171.68 C 165.08 171.52 165.63 170.71 165.47 169.86 L 165.29 168.88 C 165.13 168.03 164.31 167.47 163.46 167.63 C 162.62 167.79 162.06 168.61 162.22 169.46 Z M 162.41 170.46 L 162.62 171.52 C 162.79 172.36 163.61 172.91 164.46 172.74 C 165.30 172.57 165.85 171.75 165.68 170.90 L 165.47 169.84 C 165.30 169.00 164.48 168.45 163.63 168.62 C 162.79 168.79 162.24 169.61 162.41 170.46 Z M 162.62 171.53 L 162.83 172.54 C 163.01 173.38 163.84 173.92 164.68 173.75 C 165.52 173.57 166.07 172.74 165.89 171.90 L 165.68 170.89 C 165.50 170.05 164.68 169.51 163.83 169.68 C 162.99 169.86 162.45 170.68 162.62 171.53 Z M 162.84 172.55 L 163.04 173.47 C 163.22 174.32 164.06 174.85 164.90 174.66 C 165.74 174.48 166.27 173.65 166.09 172.81 L 165.89 171.88 C 165.70 171.04 164.87 170.51 164.03 170.69 C 163.19 170.88 162.65 171.71 162.84 172.55 Z M 163.04 173.49 L 163.25 174.39 C 163.45 175.23 164.28 175.76 165.12 175.56 C 165.96 175.37 166.49 174.53 166.29 173.69 L 166.09 172.79 C 165.89 171.95 165.05 171.42 164.21 171.62 C 163.37 171.81 162.85 172.65 163.04 173.49 Z M 163.25 174.41 L 163.48 175.32 C 163.68 176.16 164.52 176.68 165.36 176.47 C 166.20 176.27 166.71 175.43 166.51 174.59 L 166.29 173.67 C 166.09 172.84 165.24 172.32 164.41 172.52 C 163.57 172.73 163.05 173.57 163.25 174.41 Z M 163.48 175.33 L 163.71 176.29 C 163.92 177.12 164.76 177.63 165.60 177.43 C 166.44 177.22 166.95 176.38 166.74 175.54 L 166.51 174.58 C 166.30 173.75 165.46 173.23 164.62 173.44 C 163.78 173.65 163.27 174.49 163.48 175.33 Z M 163.71 176.28 L 163.96 177.28 C 164.16 178.12 165.01 178.63 165.85 178.43 C 166.68 178.22 167.20 177.38 166.99 176.54 L 166.75 175.54 C 166.54 174.70 165.70 174.19 164.86 174.40 C 164.02 174.60 163.51 175.45 163.71 176.28 Z M 163.96 177.28 L 164.19 178.28 C 164.40 179.12 165.24 179.63 166.08 179.43 C 166.92 179.23 167.43 178.39 167.23 177.55 L 166.99 176.55 C 166.79 175.71 165.95 175.19 165.11 175.40 C 164.27 175.60 163.76 176.44 163.96 177.28 Z M 164.19 178.27 L 164.41 179.21 C 164.61 180.05 165.45 180.57 166.29 180.38 C 167.13 180.18 167.65 179.34 167.45 178.51 L 167.23 177.56 C 167.04 176.72 166.20 176.20 165.36 176.39 C 164.52 176.59 164.00 177.43 164.19 178.27 Z M 164.41 179.21 L 164.64 180.18 C 164.83 181.02 165.67 181.55 166.51 181.35 C 167.35 181.16 167.87 180.32 167.68 179.48 L 167.45 178.51 C 167.26 177.67 166.42 177.14 165.58 177.34 C 164.74 177.53 164.22 178.37 164.41 179.21 Z M 164.63 180.18 L 164.86 181.17 C 165.06 182.01 165.89 182.54 166.73 182.35 C 167.57 182.15 168.10 181.32 167.91 180.48 L 167.68 179.48 C 167.49 178.64 166.65 178.12 165.81 178.31 C 164.97 178.50 164.44 179.34 164.63 180.18 Z M 164.86 181.18 L 165.10 182.18 C 165.29 183.02 166.13 183.54 166.97 183.35 C 167.81 183.15 168.33 182.32 168.14 181.48 L 167.91 180.47 C 167.71 179.63 166.87 179.11 166.03 179.30 C 165.19 179.50 164.67 180.34 164.86 181.18 Z M 165.10 182.18 L 165.32 183.15 C 165.52 183.99 166.36 184.51 167.20 184.32 C 168.04 184.12 168.56 183.28 168.36 182.44 L 168.14 181.47 C 167.94 180.63 167.10 180.11 166.26 180.31 C 165.42 180.51 164.90 181.35 165.10 182.18 Z M 165.32 183.15 L 165.55 184.13 C 165.75 184.97 166.59 185.49 167.43 185.29 C 168.27 185.09 168.79 184.25 168.59 183.41 L 168.36 182.44 C 168.16 181.60 167.32 181.08 166.48 181.28 C 165.65 181.47 165.13 182.32 165.32 183.15 Z M 165.55 184.13 L 165.78 185.10 C 165.98 185.94 166.82 186.46 167.66 186.26 C 168.50 186.07 169.02 185.23 168.82 184.39 L 168.59 183.41 C 168.40 182.57 167.56 182.05 166.72 182.25 C 165.88 182.45 165.36 183.29 165.55 184.13 Z M 165.78 185.09 L 166.01 186.07 C 166.20 186.91 167.04 187.44 167.88 187.24 C 168.72 187.05 169.24 186.21 169.05 185.37 L 168.82 184.39 C 168.63 183.55 167.79 183.03 166.95 183.22 C 166.11 183.42 165.59 184.25 165.78 185.09 Z M 166.01 186.06 L 166.21 187.00 C 166.40 187.84 167.24 188.37 168.08 188.18 C 168.92 187.99 169.45 187.15 169.26 186.31 L 169.05 185.38 C 168.86 184.54 168.03 184.01 167.19 184.20 C 166.35 184.39 165.82 185.22 166.01 186.06 Z M 166.21 186.99 L 166.41 187.90 C 166.60 188.75 167.43 189.28 168.27 189.09 C 169.12 188.91 169.65 188.08 169.46 187.23 L 169.26 186.32 C 169.08 185.48 168.24 184.94 167.40 185.13 C 166.56 185.31 166.03 186.15 166.21 186.99 Z M 166.41 187.90 L 166.62 188.85 C 166.81 189.69 167.64 190.22 168.48 190.04 C 169.32 189.86 169.86 189.02 169.67 188.18 L 169.46 187.23 C 169.28 186.39 168.45 185.86 167.61 186.04 C 166.76 186.23 166.23 187.06 166.41 187.90 Z M 166.62 188.85 L 166.84 189.85 C 167.03 190.69 167.86 191.22 168.70 191.03 C 169.55 190.85 170.08 190.01 169.89 189.17 L 169.67 188.18 C 169.48 187.34 168.65 186.80 167.81 186.99 C 166.97 187.18 166.44 188.01 166.62 188.85 Z M 166.84 189.85 L 167.08 190.92 C 167.27 191.76 168.11 192.29 168.95 192.10 C 169.79 191.91 170.32 191.07 170.13 190.23 L 169.89 189.17 C 169.70 188.32 168.86 187.80 168.02 187.99 C 167.18 188.18 166.65 189.01 166.84 189.85 Z M 167.09 190.93 L 167.31 191.90 C 167.51 192.74 168.35 193.26 169.19 193.06 C 170.03 192.87 170.55 192.03 170.35 191.19 L 170.13 190.22 C 169.93 189.38 169.09 188.86 168.25 189.05 C 167.41 189.25 166.89 190.09 167.09 190.93 Z M 167.31 191.90 L 167.54 192.87 C 167.74 193.71 168.58 194.23 169.42 194.03 C 170.26 193.83 170.78 192.99 170.58 192.15 L 170.35 191.18 C 170.15 190.34 169.31 189.82 168.47 190.02 C 167.63 190.22 167.11 191.06 167.31 191.90 Z M 167.54 192.87 L 167.78 193.86 C 167.98 194.70 168.82 195.22 169.66 195.02 C 170.50 194.82 171.02 193.98 170.82 193.14 L 170.58 192.15 C 170.38 191.31 169.54 190.79 168.70 190.99 C 167.86 191.19 167.34 192.03 167.54 192.87 Z M 167.78 193.86 L 168.01 194.86 C 168.21 195.70 169.05 196.22 169.89 196.02 C 170.73 195.83 171.25 194.99 171.05 194.15 L 170.82 193.15 C 170.62 192.31 169.78 191.79 168.94 191.98 C 168.10 192.18 167.58 193.02 167.78 193.86 Z M 168.01 194.86 L 168.24 195.85 C 168.43 196.69 169.27 197.21 170.11 197.02 C 170.95 196.82 171.48 195.98 171.28 195.14 L 171.05 194.15 C 170.86 193.31 170.02 192.79 169.18 192.98 C 168.34 193.18 167.82 194.02 168.01 194.86 Z M 168.24 195.84 L 168.45 196.80 C 168.64 197.64 169.48 198.17 170.32 197.98 C 171.16 197.79 171.69 196.96 171.50 196.12 L 171.29 195.15 C 171.10 194.31 170.26 193.78 169.42 193.97 C 168.58 194.16 168.05 194.99 168.24 195.84 Z M 168.45 196.78 L 168.67 197.82 C 168.85 198.66 169.68 199.20 170.52 199.02 C 171.36 198.84 171.90 198.01 171.72 197.17 L 171.50 196.13 C 171.32 195.29 170.50 194.75 169.65 194.93 C 168.81 195.11 168.27 195.94 168.45 196.78 Z M 168.66 197.80 L 168.86 198.81 C 169.03 199.66 169.85 200.21 170.70 200.04 C 171.54 199.87 172.10 199.05 171.93 198.21 L 171.73 197.19 C 171.56 196.35 170.74 195.80 169.89 195.96 C 169.05 196.13 168.50 196.95 168.66 197.80 Z M 168.86 198.79 L 169.04 199.76 C 169.19 200.61 170.01 201.17 170.86 201.02 C 171.70 200.86 172.27 200.05 172.11 199.20 L 171.93 198.23 C 171.78 197.38 170.96 196.82 170.12 196.97 C 169.27 197.13 168.71 197.94 168.86 198.79 Z M 169.04 199.74 L 169.20 200.69 C 169.34 201.54 170.15 202.12 171.00 201.97 C 171.85 201.83 172.42 201.02 172.28 200.17 L 172.11 199.22 C 171.97 198.37 171.16 197.80 170.31 197.94 C 169.46 198.09 168.89 198.89 169.04 199.74 Z M 169.19 200.68 L 169.34 201.62 C 169.48 202.47 170.28 203.05 171.13 202.92 C 171.98 202.78 172.56 201.98 172.43 201.13 L 172.28 200.19 C 172.14 199.34 171.34 198.75 170.49 198.89 C 169.64 199.02 169.06 199.82 169.19 200.68 Z M 169.34 201.60 L 169.48 202.55 C 169.61 203.41 170.40 204.00 171.26 203.87 C 172.11 203.74 172.70 202.95 172.57 202.09 L 172.43 201.14 C 172.30 200.29 171.51 199.70 170.66 199.83 C 169.80 199.96 169.21 200.75 169.34 201.60 Z M 169.48 202.54 L 169.61 203.51 C 169.73 204.36 170.52 204.96 171.38 204.84 C 172.23 204.72 172.83 203.93 172.71 203.08 L 172.57 202.11 C 172.45 201.26 171.67 200.66 170.81 200.78 C 169.96 200.90 169.36 201.69 169.48 202.54 Z M 169.61 203.49 L 169.74 204.47 C 169.85 205.33 170.63 205.93 171.48 205.82 C 172.34 205.71 172.94 204.93 172.84 204.08 L 172.71 203.09 C 172.60 202.24 171.82 201.63 170.96 201.74 C 170.11 201.85 169.50 202.63 169.61 203.49 Z M 169.74 204.45 L 169.85 205.46 C 169.95 206.31 170.72 206.93 171.58 206.83 C 172.44 206.73 173.05 205.96 172.95 205.10 L 172.84 204.10 C 172.74 203.24 171.97 202.63 171.11 202.72 C 170.25 202.82 169.64 203.59 169.74 204.45 Z M 169.85 205.43 L 169.95 206.46 C 170.04 207.32 170.80 207.94 171.66 207.86 C 172.52 207.77 173.14 207.01 173.06 206.15 L 172.95 205.12 C 172.87 204.27 172.10 203.64 171.25 203.72 C 170.39 203.81 169.76 204.57 169.85 205.43 Z M 169.95 206.43 L 170.03 207.44 C 170.10 208.30 170.86 208.94 171.72 208.87 C 172.58 208.79 173.22 208.04 173.14 207.18 L 173.06 206.17 C 172.99 205.31 172.23 204.68 171.37 204.75 C 170.51 204.82 169.88 205.58 169.95 206.43 Z M 170.03 207.42 L 170.10 208.41 C 170.16 209.27 170.91 209.92 171.77 209.86 C 172.63 209.80 173.28 209.05 173.22 208.19 L 173.15 207.20 C 173.08 206.34 172.34 205.69 171.48 205.75 C 170.62 205.81 169.97 206.56 170.03 207.42 Z M 170.10 208.40 L 170.16 209.40 C 170.21 210.26 170.95 210.92 171.81 210.87 C 172.67 210.81 173.33 210.07 173.28 209.21 L 173.22 208.21 C 173.16 207.35 172.42 206.69 171.56 206.75 C 170.70 206.80 170.05 207.54 170.10 208.40 Z M 170.16 209.39 L 170.21 210.40 C 170.26 211.26 170.99 211.92 171.85 211.87 C 172.72 211.83 173.38 211.09 173.33 210.23 L 173.28 209.22 C 173.23 208.36 172.50 207.70 171.64 207.75 C 170.77 207.79 170.11 208.53 170.16 209.39 Z M 170.21 210.39 L 170.26 211.39 C 170.30 212.25 171.04 212.92 171.90 212.88 C 172.76 212.84 173.42 212.10 173.38 211.24 L 173.33 210.24 C 173.29 209.38 172.56 208.71 171.70 208.76 C 170.83 208.80 170.17 209.53 170.21 210.39 Z M 170.26 211.39 L 170.31 212.39 C 170.35 213.25 171.08 213.91 171.94 213.87 C 172.80 213.83 173.47 213.10 173.43 212.24 L 173.38 211.24 C 173.34 210.38 172.61 209.72 171.75 209.76 C 170.89 209.80 170.22 210.53 170.26 211.39 Z M 170.31 212.39 L 170.36 213.40 C 170.40 214.26 171.13 214.93 171.99 214.89 C 172.85 214.84 173.52 214.11 173.48 213.25 L 173.43 212.24 C 173.39 211.38 172.65 210.71 171.79 210.75 C 170.93 210.80 170.27 211.53 170.31 212.39 Z M 170.36 213.40 L 170.40 214.40 C 170.45 215.26 171.18 215.93 172.04 215.89 C 172.90 215.84 173.57 215.11 173.52 214.25 L 173.47 213.25 C 173.43 212.39 172.70 211.73 171.84 211.77 C 170.98 211.81 170.31 212.54 170.36 213.40 Z M 170.40 214.40 L 170.45 215.40 C 170.50 216.26 171.23 216.92 172.09 216.88 C 172.95 216.84 173.61 216.10 173.57 215.24 L 173.52 214.25 C 173.48 213.39 172.75 212.72 171.89 212.77 C 171.03 212.81 170.36 213.54 170.40 214.40 Z M 170.45 215.40 L 170.50 216.39 C 170.55 217.25 171.28 217.91 172.14 217.87 C 173.00 217.83 173.67 217.09 173.62 216.23 L 173.57 215.24 C 173.53 214.38 172.80 213.72 171.93 213.76 C 171.07 213.80 170.41 214.54 170.45 215.40 Z M 170.50 216.39 L 170.55 217.38 C 170.60 218.25 171.33 218.91 172.19 218.86 C 173.05 218.82 173.72 218.09 173.67 217.23 L 173.62 216.23 C 173.58 215.37 172.84 214.71 171.98 214.75 C 171.12 214.80 170.46 215.53 170.50 216.39 Z M 170.55 217.39 L 170.61 218.39 C 170.65 219.25 171.38 219.91 172.25 219.87 C 173.11 219.82 173.77 219.09 173.72 218.23 L 173.67 217.22 C 173.63 216.36 172.89 215.70 172.03 215.75 C 171.17 215.79 170.51 216.52 170.55 217.39 Z M 170.61 218.39 L 170.66 219.40 C 170.70 220.26 171.43 220.92 172.30 220.88 C 173.16 220.84 173.82 220.10 173.78 219.24 L 173.72 218.23 C 173.68 217.37 172.95 216.71 172.09 216.75 C 171.22 216.79 170.56 217.53 170.61 218.39 Z M 170.66 219.40 L 170.71 220.40 C 170.75 221.27 171.48 221.93 172.34 221.89 C 173.20 221.85 173.87 221.11 173.82 220.25 L 173.78 219.25 C 173.73 218.38 173.00 217.72 172.14 217.76 C 171.28 217.80 170.62 218.53 170.66 219.40 Z M 170.71 220.40 L 170.75 221.40 C 170.79 222.26 171.52 222.93 172.38 222.89 C 173.24 222.85 173.91 222.12 173.87 221.26 L 173.82 220.26 C 173.79 219.40 173.06 218.73 172.20 218.77 C 171.34 218.81 170.67 219.54 170.71 220.40 Z M 170.75 221.39 L 170.79 222.37 C 170.82 223.23 171.54 223.91 172.40 223.87 C 173.27 223.84 173.94 223.12 173.91 222.26 L 173.87 221.27 C 173.84 220.41 173.11 219.74 172.25 219.77 C 171.39 219.80 170.72 220.53 170.75 221.39 Z M 170.79 222.36 L 170.81 223.38 C 170.84 224.24 171.56 224.92 172.42 224.89 C 173.28 224.87 173.96 224.15 173.94 223.29 L 173.91 222.27 C 173.88 221.41 173.16 220.73 172.30 220.75 C 171.44 220.78 170.76 221.50 170.79 222.36 Z M 170.81 223.36 L 170.83 224.41 C 170.85 225.27 171.56 225.96 172.42 225.94 C 173.28 225.92 173.97 225.21 173.95 224.35 L 173.94 223.31 C 173.92 222.44 173.21 221.76 172.35 221.77 C 171.48 221.79 170.80 222.50 170.81 223.36 Z M 170.83 224.39 L 170.84 225.41 C 170.85 226.27 171.56 226.96 172.42 226.95 C 173.28 226.94 173.97 226.24 173.97 225.38 L 173.95 224.36 C 173.95 223.50 173.24 222.81 172.38 222.82 C 171.52 222.83 170.82 223.53 170.83 224.39 Z M 170.84 225.40 L 170.85 226.38 C 170.85 227.24 171.55 227.94 172.42 227.93 C 173.28 227.93 173.97 227.23 173.97 226.36 L 173.97 225.38 C 173.96 224.52 173.26 223.83 172.40 223.83 C 171.54 223.83 170.84 224.54 170.84 225.40 Z M 170.85 226.37 L 170.85 227.32 C 170.85 228.18 171.55 228.88 172.41 228.88 C 173.27 228.88 173.97 228.18 173.97 227.32 L 173.97 226.37 C 173.97 225.51 173.27 224.81 172.41 224.81 C 171.54 224.81 170.85 225.51 170.85 226.37 Z M 170.85 227.32 L 170.85 228.35 C 170.85 229.21 171.55 229.91 172.41 229.91 C 173.27 229.91 173.97 229.21 173.97 228.35 L 173.97 227.32 C 173.97 226.46 173.27 225.76 172.41 225.76 C 171.55 225.76 170.85 226.46 170.85 227.32 Z M 170.85 228.35 L 170.85 229.37 C 170.85 230.24 171.55 230.94 172.41 230.94 C 173.27 230.94 173.97 230.24 173.97 229.37 L 173.97 228.35 C 173.97 227.49 173.27 226.79 172.41 226.79 C 171.55 226.79 170.85 227.49 170.85 228.35 Z M 170.85 229.37 L 170.85 230.36 C 170.85 231.22 171.55 231.92 172.41 231.92 C 173.27 231.92 173.97 231.22 173.97 230.36 L 173.97 229.37 C 173.97 228.51 173.27 227.81 172.41 227.81 C 171.55 227.81 170.85 228.51 170.85 229.37 Z M 170.85 230.36 L 170.85 231.32 C 170.85 232.18 171.55 232.88 172.41 232.88 C 173.27 232.88 173.97 232.18 173.97 231.32 L 173.97 230.36 C 173.97 229.50 173.27 228.80 172.41 228.80 C 171.55 228.80 170.85 229.50 170.85 230.36 Z M 170.85 231.32 L 170.85 232.30 C 170.85 233.16 171.55 233.86 172.41 233.86 C 173.27 233.86 173.97 233.16 173.97 232.30 L 173.97 231.32 C 173.97 230.45 173.27 229.76 172.41 229.76 C 171.55 229.76 170.85 230.45 170.85 231.32 Z M 170.85 232.30 L 170.85 233.29 C 170.85 234.15 171.55 234.85 172.41 234.84 C 173.28 234.84 173.97 234.14 173.97 233.28 L 173.97 232.29 C 173.97 231.43 173.27 230.73 172.41 230.74 C 171.54 230.74 170.85 231.44 170.85 232.30 Z M 170.85 233.29 L 170.86 234.29 C 170.86 235.15 171.56 235.84 172.42 235.84 C 173.29 235.83 173.98 235.13 173.98 234.27 L 173.97 233.28 C 173.97 232.41 173.27 231.72 172.40 231.72 C 171.54 231.73 170.85 232.43 170.85 233.29 Z M 170.86 234.29 L 170.87 235.32 C 170.88 236.18 171.58 236.87 172.44 236.86 C 173.31 236.85 174.00 236.14 173.99 235.28 L 173.98 234.26 C 173.97 233.40 173.26 232.71 172.40 232.72 C 171.54 232.73 170.85 233.43 170.86 234.29 Z M 170.87 235.33 L 170.89 236.34 C 170.90 237.20 171.61 237.89 172.48 237.87 C 173.34 237.86 174.02 237.14 174.01 236.28 L 173.99 235.27 C 173.97 234.41 173.26 233.72 172.40 233.74 C 171.54 233.75 170.85 234.47 170.87 235.33 Z M 170.89 236.37 L 170.93 237.40 C 170.96 238.26 171.69 238.93 172.55 238.89 C 173.41 238.86 174.08 238.14 174.05 237.27 L 174.01 236.25 C 173.97 235.39 173.25 234.72 172.39 234.75 C 171.52 234.79 170.85 235.51 170.89 236.37 Z M 170.93 237.45 L 171.00 238.45 C 171.07 239.31 171.82 239.96 172.68 239.89 C 173.54 239.83 174.18 239.08 174.12 238.22 L 174.04 237.22 C 173.98 236.36 173.23 235.71 172.37 235.78 C 171.51 235.84 170.87 236.59 170.93 237.45 Z M 171.01 238.54 L 171.14 239.49 C 171.25 240.35 172.03 240.95 172.89 240.84 C 173.74 240.73 174.35 239.94 174.23 239.09 L 174.11 238.13 C 174.00 237.28 173.21 236.68 172.36 236.79 C 171.50 236.90 170.90 237.68 171.01 238.54 Z M 171.16 239.62 L 171.38 240.66 C 171.57 241.50 172.40 242.03 173.24 241.85 C 174.08 241.67 174.62 240.84 174.44 240.00 L 174.21 238.96 C 174.03 238.12 173.20 237.58 172.36 237.77 C 171.51 237.95 170.98 238.78 171.16 239.62 Z M 171.41 240.77 L 171.70 241.72 C 171.94 242.55 172.81 243.02 173.64 242.77 C 174.47 242.52 174.94 241.65 174.69 240.83 L 174.41 239.88 C 174.16 239.05 173.29 238.58 172.46 238.83 C 171.64 239.08 171.17 239.95 171.41 240.77 Z M 171.72 241.79 L 172.04 242.69 C 172.32 243.51 173.21 243.93 174.03 243.65 C 174.84 243.36 175.27 242.47 174.98 241.66 L 174.67 240.76 C 174.38 239.94 173.49 239.52 172.68 239.80 C 171.86 240.09 171.43 240.98 171.72 241.79 Z M 172.04 242.71 L 172.11 242.89 C 172.40 243.70 173.30 244.12 174.11 243.82 C 174.92 243.53 175.34 242.63 175.04 241.82 L 174.98 241.64 C 174.68 240.83 173.79 240.41 172.98 240.71 C 172.17 241.00 171.75 241.90 172.04 242.71 Z"
      fill="black"
      fill-rule="nonzero" /><path d="M 88.88 78.48 L 88.08 79.04 C 87.37 79.53 87.19 80.50 87.68 81.21 C 88.16 81.92 89.14 82.10 89.85 81.61 L 90.65 81.06 C 91.36 80.57 91.54 79.60 91.05 78.89 C 90.57 78.18 89.59 78.00 88.88 78.48 Z M 88.05 79.06 L 87.25 79.64 C 86.55 80.14 86.39 81.12 86.90 81.82 C 87.40 82.52 88.38 82.67 89.08 82.17 L 89.88 81.59 C 90.58 81.08 90.73 80.11 90.23 79.41 C 89.72 78.71 88.75 78.55 88.05 79.06 Z M 87.19 79.68 L 86.40 80.31 C 85.72 80.85 85.61 81.83 86.15 82.51 C 86.69 83.18 87.67 83.29 88.35 82.75 L 89.14 82.12 C 89.81 81.59 89.92 80.60 89.38 79.93 C 88.84 79.26 87.86 79.15 87.19 79.68 Z M 86.32 80.38 L 85.60 81.04 C 84.96 81.62 84.91 82.61 85.49 83.24 C 86.07 83.88 87.06 83.93 87.69 83.35 L 88.42 82.69 C 89.06 82.11 89.11 81.12 88.53 80.48 C 87.95 79.85 86.96 79.80 86.32 80.38 Z M 85.52 81.11 L 84.88 81.77 C 84.28 82.39 84.30 83.38 84.92 83.98 C 85.54 84.58 86.53 84.56 87.13 83.94 L 87.77 83.28 C 88.37 82.66 88.35 81.67 87.73 81.07 C 87.11 80.47 86.12 80.49 85.52 81.11 Z M 84.82 81.84 L 84.18 82.58 C 83.62 83.23 83.69 84.22 84.35 84.78 C 85.00 85.34 85.99 85.27 86.55 84.62 L 87.19 83.88 C 87.75 83.22 87.67 82.24 87.02 81.68 C 86.37 81.11 85.38 81.19 84.82 81.84 Z M 84.13 82.64 L 83.49 83.46 C 82.97 84.14 83.09 85.12 83.77 85.65 C 84.45 86.18 85.43 86.06 85.96 85.38 L 86.60 84.56 C 87.13 83.88 87.00 82.90 86.32 82.37 C 85.64 81.84 84.66 81.96 84.13 82.64 Z M 83.45 83.51 L 82.82 84.41 C 82.32 85.11 82.49 86.08 83.19 86.58 C 83.89 87.08 84.87 86.92 85.37 86.22 L 86.00 85.33 C 86.50 84.62 86.33 83.65 85.63 83.15 C 84.93 82.65 83.95 82.81 83.45 83.51 Z M 82.79 84.45 L 82.26 85.25 C 81.78 85.97 81.98 86.94 82.70 87.41 C 83.41 87.89 84.38 87.70 84.86 86.98 L 85.39 86.17 C 85.87 85.46 85.68 84.49 84.96 84.01 C 84.24 83.53 83.27 83.73 82.79 84.45 Z M 82.24 85.28 L 81.70 86.13 C 81.24 86.86 81.46 87.82 82.19 88.28 C 82.92 88.74 83.88 88.52 84.34 87.79 L 84.88 86.95 C 85.34 86.22 85.12 85.25 84.39 84.79 C 83.66 84.33 82.70 84.55 82.24 85.28 Z M 81.69 86.15 L 81.16 87.02 C 80.71 87.76 80.95 88.72 81.69 89.17 C 82.42 89.61 83.38 89.38 83.83 88.64 L 84.36 87.77 C 84.81 87.03 84.57 86.07 83.83 85.63 C 83.10 85.18 82.14 85.41 81.69 86.15 Z M 81.15 87.04 L 80.63 87.92 C 80.20 88.67 80.45 89.62 81.19 90.06 C 81.93 90.50 82.89 90.25 83.33 89.50 L 83.84 88.62 C 84.28 87.88 84.03 86.92 83.28 86.49 C 82.54 86.05 81.58 86.30 81.15 87.04 Z M 80.62 87.94 L 80.13 88.81 C 79.70 89.56 79.96 90.52 80.71 90.94 C 81.46 91.37 82.42 91.11 82.84 90.36 L 83.34 89.48 C 83.76 88.73 83.50 87.78 82.75 87.36 C 82.00 86.93 81.05 87.19 80.62 87.94 Z M 80.12 88.83 L 79.62 89.74 C 79.20 90.49 79.47 91.44 80.23 91.86 C 80.98 92.27 81.93 92.00 82.35 91.25 L 82.85 90.34 C 83.27 89.58 82.99 88.63 82.24 88.22 C 81.48 87.80 80.53 88.08 80.12 88.83 Z M 79.61 89.76 L 79.13 90.65 C 78.72 91.41 79.01 92.35 79.77 92.76 C 80.53 93.17 81.48 92.88 81.88 92.12 L 82.36 91.23 C 82.77 90.47 82.48 89.52 81.72 89.11 C 80.96 88.71 80.01 89.00 79.61 89.76 Z M 79.12 90.67 L 78.67 91.55 C 78.27 92.32 78.58 93.26 79.34 93.65 C 80.11 94.05 81.05 93.74 81.44 92.98 L 81.90 92.10 C 82.29 91.33 81.99 90.39 81.22 89.99 C 80.45 89.60 79.51 89.90 79.12 90.67 Z M 78.65 91.58 L 78.22 92.46 C 77.84 93.23 78.16 94.16 78.94 94.54 C 79.71 94.92 80.65 94.60 81.03 93.83 L 81.46 92.95 C 81.84 92.18 81.52 91.24 80.74 90.86 C 79.97 90.48 79.03 90.80 78.65 91.58 Z M 78.21 92.48 L 77.79 93.37 C 77.43 94.15 77.77 95.08 78.55 95.45 C 79.33 95.81 80.26 95.47 80.62 94.69 L 81.04 93.80 C 81.40 93.02 81.07 92.09 80.29 91.73 C 79.50 91.36 78.57 91.70 78.21 92.48 Z M 77.78 93.40 L 77.37 94.32 C 77.02 95.11 77.38 96.03 78.17 96.38 C 78.96 96.73 79.88 96.37 80.23 95.59 L 80.64 94.67 C 80.99 93.88 80.63 92.96 79.84 92.61 C 79.05 92.26 78.13 92.61 77.78 93.40 Z M 77.36 94.34 L 76.97 95.27 C 76.63 96.07 77.00 96.98 77.79 97.32 C 78.59 97.66 79.51 97.29 79.84 96.49 L 80.24 95.56 C 80.58 94.77 80.20 93.85 79.41 93.51 C 78.62 93.18 77.70 93.55 77.36 94.34 Z M 76.96 95.29 L 76.58 96.23 C 76.25 97.02 76.63 97.94 77.43 98.26 C 78.23 98.59 79.14 98.21 79.47 97.41 L 79.85 96.48 C 80.18 95.68 79.79 94.77 79.00 94.44 C 78.20 94.11 77.29 94.49 76.96 95.29 Z M 76.57 96.24 L 76.21 97.17 C 75.89 97.97 76.28 98.87 77.08 99.19 C 77.88 99.51 78.79 99.12 79.11 98.32 L 79.47 97.39 C 79.79 96.59 79.40 95.68 78.60 95.37 C 77.80 95.05 76.89 95.44 76.57 96.24 Z M 76.20 97.18 L 75.85 98.09 C 75.54 98.89 75.93 99.80 76.74 100.11 C 77.54 100.42 78.45 100.02 78.76 99.22 L 79.11 98.31 C 79.42 97.50 79.02 96.60 78.22 96.29 C 77.42 95.97 76.51 96.37 76.20 97.18 Z M 75.84 98.10 L 75.50 99.02 C 75.19 99.82 75.60 100.72 76.40 101.03 C 77.21 101.33 78.11 100.93 78.42 100.12 L 78.76 99.20 C 79.07 98.40 78.66 97.50 77.86 97.19 C 77.05 96.89 76.15 97.29 75.84 98.10 Z M 75.49 99.04 L 75.16 99.95 C 74.86 100.76 75.28 101.66 76.09 101.95 C 76.91 102.24 77.80 101.82 78.09 101.01 L 78.42 100.10 C 78.72 99.29 78.30 98.39 77.49 98.10 C 76.68 97.81 75.78 98.23 75.49 99.04 Z M 75.15 99.98 L 74.83 100.92 C 74.55 101.73 74.99 102.62 75.81 102.90 C 76.62 103.17 77.51 102.74 77.79 101.92 L 78.10 100.98 C 78.38 100.17 77.94 99.28 77.13 99.00 C 76.31 98.73 75.42 99.16 75.15 99.98 Z M 74.82 100.95 L 74.51 101.94 C 74.25 102.76 74.71 103.63 75.54 103.89 C 76.36 104.15 77.23 103.69 77.49 102.87 L 77.80 101.88 C 78.06 101.06 77.60 100.19 76.77 99.93 C 75.95 99.67 75.08 100.13 74.82 100.95 Z M 74.50 101.97 L 74.23 102.92 C 73.99 103.75 74.47 104.61 75.30 104.85 C 76.13 105.09 77.00 104.61 77.23 103.78 L 77.50 102.83 C 77.74 102.00 77.26 101.14 76.43 100.90 C 75.60 100.66 74.74 101.14 74.50 101.97 Z M 74.22 102.95 L 73.98 103.87 C 73.76 104.70 74.25 105.56 75.09 105.78 C 75.92 106.00 76.78 105.50 77.00 104.67 L 77.24 103.75 C 77.46 102.91 76.96 102.06 76.13 101.84 C 75.30 101.62 74.44 102.11 74.22 102.95 Z M 73.97 103.89 L 73.73 104.85 C 73.52 105.69 74.03 106.53 74.87 106.74 C 75.70 106.95 76.55 106.44 76.76 105.61 L 77.00 104.65 C 77.21 103.81 76.70 102.96 75.87 102.75 C 75.03 102.54 74.18 103.05 73.97 103.89 Z M 73.73 104.86 L 73.49 105.86 C 73.29 106.69 73.81 107.54 74.64 107.74 C 75.48 107.94 76.33 107.42 76.53 106.58 L 76.76 105.59 C 76.97 104.76 76.45 103.91 75.61 103.71 C 74.77 103.51 73.93 104.03 73.73 104.86 Z M 73.49 105.86 L 73.25 106.88 C 73.06 107.71 73.58 108.55 74.42 108.75 C 75.26 108.95 76.10 108.43 76.29 107.59 L 76.53 106.58 C 76.73 105.74 76.20 104.90 75.36 104.70 C 74.52 104.50 73.68 105.02 73.49 105.86 Z M 73.25 106.88 L 73.02 107.90 C 72.82 108.74 73.35 109.58 74.19 109.77 C 75.03 109.97 75.86 109.44 76.06 108.60 L 76.29 107.58 C 76.49 106.74 75.96 105.90 75.12 105.71 C 74.28 105.52 73.44 106.04 73.25 106.88 Z"
      fill="black"
      fill-rule="nonzero" /></svg>