<svg xmlns="http://www.w3.org/2000/svg" width="300" height="300" viewBox="0 0 300 300">
<path d="M 120.90 92.04 L 120.78 93.10 C 120.68 93.95 121.29 94.73 122.15 94.83 C 123.00 94.93 123.78 94.32 123.88 93.46 L 124.00 92.40 C 124.10 91.54 123.49 90.77 122.63 90.67 C 121.78 90.57 121.00 91.18 120.90 92.04 Z M 120.78 93.10 L 120.66 94.14 C 120.56 95.00 121.17 95.77 122.03 95.87 C 122.89 95.97 123.66 95.36 123.76 94.50 L 123.88 93.46 C 123.98 92.60 123.36 91.82 122.51 91.73 C 121.65 91.63 120.88 92.24 120.78 93.10 Z M 120.66 94.15 L 120.54 95.16 C 120.45 96.02 121.07 96.79 121.92 96.89 C 122.78 96.98 123.55 96.37 123.65 95.51 L 123.76 94.49 C 123.85 93.64 123.24 92.87 122.38 92.77 C 121.52 92.67 120.75 93.29 120.66 94.15 Z M 120.54 95.17 L 120.44 96.15 C 120.35 97.00 120.97 97.77 121.83 97.86 C 122.69 97.95 123.46 97.33 123.55 96.47 L 123.65 95.50 C 123.74 94.64 123.12 93.87 122.26 93.78 C 121.40 93.69 120.63 94.32 120.54 95.17 Z M 120.44 96.16 L 120.35 97.07 C 120.27 97.93 120.90 98.69 121.76 98.77 C 122.62 98.86 123.38 98.23 123.46 97.37 L 123.55 96.46 C 123.63 95.60 123.00 94.84 122.14 94.75 C 121.28 94.67 120.52 95.30 120.44 96.16 Z M 120.35 97.10 L 120.27 98.15 C 120.20 99.01 120.84 99.76 121.70 99.83 C 122.56 99.90 123.31 99.26 123.38 98.40 L 123.46 97.34 C 123.53 96.48 122.89 95.73 122.03 95.66 C 121.17 95.60 120.42 96.24 120.35 97.10 Z M 120.26 98.18 L 120.21 99.21 C 120.16 100.07 120.81 100.81 121.67 100.86 C 122.53 100.91 123.27 100.25 123.32 99.39 L 123.38 98.36 C 123.43 97.50 122.77 96.77 121.91 96.72 C 121.05 96.67 120.31 97.32 120.26 98.18 Z M 120.20 99.24 L 120.17 100.19 C 120.14 101.06 120.81 101.78 121.67 101.81 C 122.53 101.85 123.26 101.17 123.29 100.31 L 123.32 99.36 C 123.36 98.49 122.68 97.77 121.82 97.74 C 120.96 97.70 120.24 98.38 120.20 99.24 Z M 120.17 100.22 L 120.15 101.15 C 120.13 102.02 120.81 102.73 121.67 102.75 C 122.54 102.77 123.25 102.08 123.27 101.22 L 123.29 100.29 C 123.31 99.43 122.62 98.71 121.76 98.69 C 120.90 98.67 120.19 99.36 120.17 100.22 Z M 120.15 101.17 L 120.14 102.10 C 120.12 102.96 120.82 103.66 121.68 103.68 C 122.54 103.69 123.25 103.00 123.26 102.13 L 123.27 101.21 C 123.28 100.35 122.59 99.64 121.73 99.63 C 120.86 99.62 120.16 100.31 120.15 101.17 Z M 120.14 102.10 L 120.13 103.07 C 120.12 103.93 120.82 104.63 121.68 104.64 C 122.54 104.64 123.25 103.95 123.25 103.08 L 123.26 102.12 C 123.26 101.26 122.57 100.56 121.71 100.55 C 120.84 100.55 120.14 101.24 120.14 102.10 Z M 120.13 103.07 L 120.13 104.08 C 120.12 104.95 120.82 105.65 121.68 105.65 C 122.55 105.65 123.25 104.95 123.25 104.09 L 123.25 103.08 C 123.25 102.22 122.56 101.52 121.69 101.51 C 120.83 101.51 120.13 102.21 120.13 103.07 Z M 120.13 104.09 L 120.13 105.17 C 120.13 106.03 120.82 106.73 121.69 106.73 C 122.55 106.73 123.25 106.03 123.25 105.17 L 123.25 104.09 C 123.25 103.23 122.55 102.53 121.69 102.53 C 120.83 102.53 120.13 103.23 120.13 104.09 Z M 120.13 105.17 L 120.13 106.18 C 120.13 107.04 120.83 107.74 121.69 107.74 C 122.55 107.74 123.25 107.04 123.25 106.18 L 123.25 105.17 C 123.25 104.31 122.55 103.61 121.69 103.61 C 120.83 103.61 120.13 104.31 120.13 105.17 Z M 120.13 106.18 L 120.13 107.20 C 120.13 108.06 120.83 108.76 121.69 108.76 C 122.55 108.76 123.25 108.06 123.25 107.20 L 123.25 106.18 C 123.25 105.31 122.55 104.62 121.69 104.62 C 120.83 104.62 120.13 105.31 120.13 106.18 Z M 120.13 107.20 L 120.13 108.23 C 120.13 109.09 120.83 109.79 121.69 109.79 C 122.55 109.79 123.25 109.09 123.25 108.23 L 123.25 107.20 C 123.25 106.34 122.55 105.64 121.69 105.64 C 120.83 105.64 120.13 106.34 120.13 107.20 Z M 120.13 108.23 L 120.13 109.22 C 120.13 110.09 120.83 110.78 121.69 110.78 C 122.55 110.78 123.25 110.09 123.25 109.22 L 123.25 108.23 C 123.25 107.37 122.55 106.67 121.69 106.67 C 120.83 106.67 120.13 107.37 120.13 108.23 Z M 120.13 109.22 L 120.13 110.22 C 120.13 111.08 120.83 111.78 121.69 111.78 C 122.55 111.78 123.25 111.08 123.25 110.22 L 123.25 109.22 C 123.25 108.36 122.55 107.66 121.69 107.66 C 120.83 107.66 120.13 108.36 120.13 109.22 Z M 120.13 110.22 L 120.13 111.30 C 120.13 112.16 120.83 112.86 121.69 112.86 C 122.55 112.86 123.25 112.16 123.25 111.30 L 123.25 110.22 C 123.25 109.36 122.55 108.66 121.69 108.66 C 120.83 108.66 120.13 109.36 120.13 110.22 Z M 120.13 111.30 L 120.13 112.28 C 120.13 113.14 120.83 113.84 121.69 113.84 C 122.55 113.84 123.25 113.14 123.25 112.28 L 123.25 111.30 C 123.25 110.44 122.55 109.74 121.69 109.74 C 120.83 109.74 120.13 110.44 120.13 111.30 Z M 120.13 112.28 L 120.13 113.21 C 120.13 114.07 120.83 114.77 121.69 114.77 C 122.55 114.77 123.25 114.07 123.25 113.21 L 123.25 112.28 C 123.25 111.42 122.55 110.72 121.69 110.72 C 120.83 110.72 120.13 111.42 120.13 112.28 Z M 120.13 113.21 L 120.13 114.17 C 120.13 115.03 120.83 115.73 121.69 115.73 C 122.55 115.73 123.25 115.03 123.25 114.17 L 123.25 113.21 C 123.25 112.35 122.55 111.65 121.69 111.65 C 120.83 111.65 120.13 112.35 120.13 113.21 Z M 120.13 114.17 L 120.13 115.16 C 120.13 116.02 120.83 116.72 121.69 116.72 C 122.55 116.72 123.25 116.02 123.25 115.16 L 123.25 114.17 C 123.25 113.31 122.55 112.61 121.69 112.61 C 120.83 112.61 120.13 113.31 120.13 114.17 Z M 120.13 115.16 L 120.13 116.16 C 120.13 117.02 120.83 117.72 121.69 117.72 C 122.55 117.72 123.25 117.02 123.25 116.16 L 123.25 115.16 C 123.25 114.30 122.55 113.60 121.69 113.60 C 120.83 113.60 120.13 114.30 120.13 115.16 Z M 120.13 116.16 L 120.13 117.16 C 120.13 118.03 120.83 118.73 121.69 118.73 C 122.55 118.73 123.25 118.03 123.25 117.16 L 123.25 116.16 C 123.25 115.30 122.55 114.60 121.69 114.60 C 120.83 114.60 120.13 115.30 120.13 116.16 Z M 120.13 117.16 L 120.13 118.12 C 120.13 118.98 120.83 119.68 121.69 119.68 C 122.55 119.68 123.25 118.98 123.25 118.12 L 123.25 117.16 C 123.25 116.30 122.55 115.60 121.69 115.60 C 120.83 115.60 120.13 116.30 120.13 117.16 Z M 120.13 118.12 L 120.13 119.11 C 120.13 119.97 120.83 120.67 121.69 120.67 C 122.55 120.67 123.25 119.97 123.25 119.11 L 123.25 118.12 C 123.25 117.26 122.55 116.56 121.69 116.56 C 120.83 116.56 120.13 117.26 120.13 118.12 Z M 120.13 119.11 L 120.13 120.14 C 120.13 121.01 120.83 121.71 121.69 121.71 C 122.55 121.71 123.25 121.01 123.25 120.14 L 123.25 119.11 C 123.25 118.25 122.55 117.55 121.69 117.55 C 120.83 117.55 120.13 118.25 120.13 119.11 Z M 120.13 120.14 L 120.13 121.16 C 120.13 122.02 120.83 122.72 121.69 122.72 C 122.55 122.72 123.25 122.02 123.25 121.16 L 123.25 120.14 C 123.25 119.28 122.55 118.58 121.69 118.58 C 120.83 118.58 120.13 119.28 120.13 120.14 Z M 120.13 121.16 L 120.13 122.13 C 120.13 122.99 120.83 123.69 121.69 123.69 C 122.55 123.69 123.25 122.99 123.25 122.13 L 123.25 121.15 C 123.25 120.29 122.55 119.59 121.69 119.59 C 120.82 119.59 120.13 120.29 120.13 121.16 Z M 120.13 122.13 L 120.13 123.14 C 120.13 124.00 120.83 124.70 121.70 124.70 C 122.56 124.69 123.25 123.99 123.25 123.13 L 123.25 122.13 C 123.25 121.26 122.55 120.57 121.68 120.57 C 120.82 120.57 120.12 121.27 120.13 122.13 Z M 120.13 123.14 L 120.14 124.16 C 120.14 125.03 120.84 125.72 121.71 125.72 C 122.57 125.71 123.26 125.01 123.26 124.15 L 123.25 123.12 C 123.25 122.26 122.54 121.57 121.68 121.57 C 120.82 121.58 120.12 122.28 120.13 123.14 Z M 120.14 124.17 L 120.15 125.19 C 120.16 126.06 120.86 126.75 121.72 126.74 C 122.59 126.73 123.28 126.02 123.27 125.16 L 123.26 124.14 C 123.25 123.28 122.54 122.59 121.68 122.59 C 120.82 122.60 120.13 123.31 120.14 124.17 Z M 120.15 125.20 L 120.16 126.18 C 120.17 127.04 120.88 127.73 121.75 127.72 C 122.61 127.70 123.30 126.99 123.28 126.13 L 123.27 125.15 C 123.26 124.29 122.55 123.60 121.68 123.62 C 120.82 123.63 120.13 124.34 120.15 125.20 Z M 120.16 126.18 L 120.18 127.17 C 120.19 128.03 120.90 128.72 121.77 128.70 C 122.63 128.69 123.32 127.98 123.30 127.11 L 123.28 126.13 C 123.27 125.27 122.56 124.58 121.69 124.59 C 120.83 124.61 120.15 125.32 120.16 126.18 Z M 120.18 127.17 L 120.20 128.17 C 120.21 129.03 120.92 129.72 121.78 129.70 C 122.65 129.69 123.33 128.98 123.32 128.11 L 123.30 127.11 C 123.28 126.25 122.57 125.56 121.71 125.58 C 120.85 125.60 120.16 126.31 120.18 127.17 Z M 120.20 128.16 L 120.21 129.19 C 120.22 130.05 120.93 130.74 121.80 130.72 C 122.66 130.71 123.35 130.00 123.33 129.14 L 123.32 128.12 C 123.30 127.25 122.59 126.57 121.73 126.58 C 120.87 126.59 120.18 127.30 120.20 128.16 Z M 120.21 129.18 L 120.22 130.16 C 120.23 131.02 120.94 131.71 121.80 131.70 C 122.66 131.69 123.35 130.99 123.34 130.13 L 123.33 129.14 C 123.32 128.28 122.62 127.59 121.75 127.60 C 120.89 127.61 120.20 128.32 120.21 129.18 Z M 120.22 130.15 L 120.23 131.10 C 120.24 131.96 120.94 132.66 121.80 132.65 C 122.67 132.64 123.36 131.94 123.35 131.08 L 123.34 130.13 C 123.34 129.27 122.63 128.57 121.77 128.58 C 120.91 128.59 120.22 129.29 120.22 130.15 Z M 120.23 131.10 L 120.24 132.07 C 120.24 132.94 120.94 133.63 121.81 133.63 C 122.67 133.62 123.36 132.92 123.36 132.06 L 123.35 131.08 C 123.35 130.22 122.64 129.52 121.78 129.53 C 120.92 129.53 120.22 130.24 120.23 131.10 Z M 120.24 132.08 L 120.24 133.08 C 120.25 133.95 120.95 134.64 121.81 134.64 C 122.68 134.63 123.37 133.93 123.36 133.06 L 123.36 132.06 C 123.35 131.19 122.65 130.50 121.79 130.50 C 120.92 130.51 120.23 131.21 120.24 132.08 Z M 120.24 133.09 L 120.25 134.13 C 120.26 135.00 120.96 135.69 121.83 135.68 C 122.69 135.67 123.38 134.97 123.37 134.11 L 123.36 133.06 C 123.36 132.20 122.65 131.51 121.79 131.51 C 120.93 131.52 120.24 132.23 120.24 133.09 Z M 120.25 134.14 L 120.26 135.19 C 120.27 136.05 120.98 136.74 121.84 136.73 C 122.70 136.72 123.40 136.02 123.39 135.15 L 123.37 134.10 C 123.36 133.24 122.66 132.55 121.79 132.56 C 120.93 132.57 120.24 133.28 120.25 134.14 Z M 120.26 135.20 L 120.28 136.18 C 120.29 137.05 121.00 137.74 121.86 137.72 C 122.73 137.71 123.41 137.00 123.40 136.14 L 123.39 135.15 C 123.37 134.29 122.66 133.60 121.80 133.61 C 120.94 133.62 120.25 134.33 120.26 135.20 Z M 120.28 136.19 L 120.30 137.20 C 120.31 138.06 121.02 138.74 121.88 138.73 C 122.75 138.72 123.43 138.00 123.42 137.14 L 123.40 136.13 C 123.39 135.27 122.67 134.59 121.81 134.60 C 120.95 134.61 120.26 135.33 120.28 136.19 Z M 120.30 137.20 L 120.31 138.21 C 120.33 139.07 121.04 139.76 121.90 139.75 C 122.77 139.73 123.45 139.02 123.44 138.16 L 123.42 137.14 C 123.40 136.28 122.69 135.59 121.83 135.61 C 120.97 135.62 120.28 136.33 120.30 137.20 Z M 120.31 138.21 L 120.33 139.22 C 120.35 140.09 121.06 140.77 121.92 140.76 C 122.78 140.74 123.47 140.03 123.45 139.17 L 123.44 138.16 C 123.42 137.30 122.71 136.61 121.85 136.62 C 120.99 136.64 120.30 137.35 120.31 138.21 Z M 120.33 139.22 L 120.35 140.22 C 120.36 141.08 121.07 141.77 121.93 141.76 C 122.80 141.74 123.48 141.03 123.47 140.17 L 123.45 139.17 C 123.44 138.31 122.73 137.62 121.87 137.64 C 121.01 137.65 120.32 138.36 120.33 139.22 Z M 120.35 140.22 L 120.36 141.21 C 120.37 142.08 121.08 142.77 121.94 142.75 C 122.81 142.74 123.49 142.04 123.48 141.17 L 123.47 140.17 C 123.46 139.31 122.75 138.62 121.89 138.63 C 121.03 138.65 120.34 139.35 120.35 140.22 Z M 120.36 141.21 L 120.37 142.23 C 120.38 143.10 121.08 143.79 121.95 143.78 C 122.81 143.77 123.50 143.07 123.49 142.20 L 123.48 141.18 C 123.48 140.32 122.77 139.62 121.91 139.63 C 121.05 139.64 120.35 140.35 120.36 141.21 Z M 120.37 142.23 L 120.38 143.23 C 120.38 144.09 121.09 144.79 121.95 144.78 C 122.81 144.78 123.50 144.07 123.50 143.21 L 123.49 142.21 C 123.49 141.35 122.78 140.65 121.92 140.66 C 121.06 140.66 120.37 141.37 120.37 142.23 Z M 120.38 143.22 L 120.38 144.21 C 120.38 145.07 121.08 145.77 121.95 145.77 C 122.81 145.76 123.51 145.06 123.50 144.20 L 123.50 143.21 C 123.50 142.35 122.80 141.66 121.93 141.66 C 121.07 141.66 120.37 142.36 120.38 143.22 Z M 120.38 144.21 L 120.38 145.19 C 120.38 146.05 121.08 146.75 121.94 146.75 C 122.81 146.75 123.50 146.05 123.50 145.19 L 123.50 144.20 C 123.50 143.34 122.80 142.64 121.94 142.64 C 121.08 142.65 120.38 143.35 120.38 144.21 Z M 120.38 145.19 L 120.38 146.18 C 120.38 147.04 121.08 147.74 121.94 147.74 C 122.81 147.74 123.50 147.04 123.50 146.18 L 123.50 145.19 C 123.50 144.33 122.80 143.63 121.94 143.63 C 121.08 143.63 120.38 144.33 120.38 145.19 Z M 120.38 146.18 L 120.38 147.15 C 120.38 148.02 121.08 148.72 121.94 148.72 C 122.80 148.72 123.50 148.02 123.50 147.15 L 123.50 146.18 C 123.50 145.32 122.80 144.62 121.94 144.62 C 121.08 144.62 120.38 145.32 120.38 146.18 Z M 120.38 147.15 L 120.38 148.14 C 120.38 149.00 121.08 149.70 121.94 149.70 C 122.80 149.70 123.50 149.00 123.50 148.14 L 123.50 147.15 C 123.50 146.29 122.80 145.59 121.94 145.59 C 121.08 145.59 120.38 146.29 120.38 147.15 Z M 120.38 148.14 L 120.38 149.14 C 120.38 150.00 121.08 150.70 121.94 150.70 C 122.80 150.70 123.50 150.00 123.50 149.14 L 123.50 148.14 C 123.50 147.28 122.80 146.58 121.94 146.58 C 121.08 146.58 120.38 147.28 120.38 148.14 Z M 120.38 149.14 L 120.38 150.15 C 120.38 151.01 121.08 151.71 121.94 151.71 C 122.80 151.71 123.50 151.01 123.50 150.15 L 123.50 149.14 C 123.50 148.28 122.80 147.58 121.94 147.58 C 121.08 147.58 120.38 148.28 120.38 149.14 Z M 120.38 150.15 L 120.38 151.16 C 120.38 152.02 121.08 152.72 121.94 152.72 C 122.80 152.72 123.50 152.02 123.50 151.16 L 123.50 150.15 C 123.50 149.28 122.80 148.59 121.94 148.59 C 121.08 148.59 120.38 149.28 120.38 150.15 Z M 120.38 151.16 L 120.38 152.18 C 120.38 153.04 121.08 153.74 121.94 153.74 C 122.80 153.74 123.50 153.04 123.50 152.18 L 123.50 151.16 C 123.50 150.30 122.80 149.60 121.94 149.60 C 121.08 149.60 120.38 150.30 120.38 151.16 Z M 120.38 152.18 L 120.38 153.17 C 120.38 154.04 121.08 154.74 121.94 154.74 C 122.80 154.74 123.50 154.04 123.50 153.17 L 123.50 152.18 C 123.50 151.32 122.80 150.62 121.94 150.62 C 121.08 150.62 120.38 151.32 120.38 152.18 Z M 120.38 153.17 L 120.38 154.17 C 120.38 155.03 121.08 155.73 121.94 155.73 C 122.80 155.73 123.50 155.03 123.50 154.17 L 123.50 153.17 C 123.50 152.31 122.80 151.61 121.94 151.61 C 121.08 151.61 120.38 152.31 120.38 153.17 Z M 120.38 154.17 L 120.38 155.17 C 120.38 156.03 121.08 156.73 121.94 156.73 C 122.80 156.73 123.50 156.03 123.50 155.17 L 123.50 154.17 C 123.50 153.31 122.80 152.61 121.94 152.61 C 121.08 152.61 120.38 153.31 120.38 154.17 Z M 120.38 155.17 L 120.38 156.17 C 120.38 157.03 121.08 157.73 121.94 157.73 C 122.80 157.73 123.50 157.03 123.50 156.17 L 123.50 155.17 C 123.50 154.31 122.80 153.61 121.94 153.61 C 121.08 153.61 120.38 154.31 120.38 155.17 Z M 120.38 156.17 L 120.38 157.17 C 120.38 158.04 121.08 158.74 121.94 158.74 C 122.80 158.74 123.50 158.04 123.50 157.17 L 123.50 156.17 C 123.50 155.31 122.80 154.61 121.94 154.61 C 121.08 154.61 120.38 155.31 120.38 156.17 Z M 120.38 157.17 L 120.38 158.18 C 120.38 159.04 121.08 159.74 121.94 159.74 C 122.80 159.74 123.50 159.04 123.50 158.18 L 123.50 157.17 C 123.50 156.31 122.80 155.61 121.94 155.61 C 121.08 155.61 120.38 156.31 120.38 157.17 Z M 120.38 158.18 L 120.38 159.18 C 120.38 160.04 121.08 160.74 121.94 160.74 C 122.80 160.74 123.50 160.04 123.50 159.18 L 123.50 158.18 C 123.50 157.32 122.80 156.62 121.94 156.62 C 121.08 156.62 120.38 157.32 120.38 158.18 Z M 120.38 159.18 L 120.38 160.18 C 120.38 161.04 121.08 161.74 121.94 161.74 C 122.80 161.74 123.50 161.04 123.50 160.18 L 123.50 159.18 C 123.50 158.32 122.80 157.62 121.94 157.62 C 121.08 157.62 120.38 158.32 120.38 159.18 Z M 120.38 160.18 L 120.38 161.18 C 120.38 162.04 121.08 162.74 121.94 162.74 C 122.80 162.74 123.50 162.04 123.50 161.18 L 123.50 160.18 C 123.50 159.32 122.80 158.62 121.94 158.62 C 121.08 158.62 120.38 159.32 120.38 160.18 Z M 120.38 161.18 L 120.38 162.18 C 120.38 163.04 121.08 163.74 121.94 163.74 C 122.80 163.74 123.50 163.04 123.50 162.18 L 123.50 161.18 C 123.50 160.32 122.80 159.62 121.94 159.62 C 121.08 159.62 120.38 160.32 120.38 161.18 Z M 120.38 162.18 L 120.38 163.18 C 120.38 164.04 121.08 164.74 121.94 164.74 C 122.80 164.74 123.50 164.04 123.50 163.18 L 123.50 162.18 C 123.50 161.32 122.80 160.62 121.94 160.62 C 121.08 160.62 120.38 161.32 120.38 162.18 Z M 120.38 163.18 L 120.38 164.17 C 120.38 165.04 121.08 165.74 121.94 165.74 C 122.80 165.74 123.50 165.04 123.50 164.17 L 123.50 163.18 C 123.50 162.32 122.80 161.62 121.94 161.62 C 121.08 161.62 120.38 162.32 120.38 163.18 Z M 120.38 164.17 L 120.38 165.16 C 120.38 166.02 121.08 166.72 121.94 166.72 C 122.80 166.72 123.50 166.02 123.50 165.16 L 123.50 164.17 C 123.50 163.31 122.81 162.61 121.94 162.61 C 121.08 162.61 120.38 163.31 120.38 164.17 Z M 120.38 165.15 L 120.38 166.14 C 120.38 167.00 121.07 167.70 121.94 167.70 C 122.80 167.71 123.50 167.01 123.50 166.15 L 123.50 165.16 C 123.51 164.30 122.81 163.60 121.95 163.60 C 121.08 163.59 120.38 164.29 120.38 165.15 Z M 120.38 166.14 L 120.37 167.13 C 120.37 167.99 121.07 168.69 121.93 168.70 C 122.79 168.70 123.49 168.01 123.50 167.14 L 123.50 166.15 C 123.51 165.29 122.81 164.59 121.95 164.58 C 121.09 164.58 120.38 165.27 120.38 166.14 Z M 120.37 167.12 L 120.37 168.13 C 120.36 168.99 121.05 169.69 121.91 169.70 C 122.77 169.71 123.48 169.02 123.49 168.15 L 123.50 167.15 C 123.50 166.29 122.81 165.58 121.95 165.58 C 121.09 165.57 120.38 166.26 120.37 167.12 Z M 120.37 168.12 L 120.35 169.14 C 120.34 170.00 121.03 170.71 121.89 170.72 C 122.75 170.73 123.46 170.04 123.47 169.18 L 123.49 168.16 C 123.50 167.30 122.81 166.59 121.95 166.58 C 121.09 166.57 120.38 167.26 120.37 168.12 Z M 120.35 169.13 L 120.33 170.14 C 120.31 171.00 121.00 171.71 121.86 171.73 C 122.72 171.75 123.44 171.06 123.45 170.20 L 123.47 169.19 C 123.49 168.33 122.80 167.61 121.94 167.60 C 121.08 167.58 120.37 168.27 120.35 169.13 Z M 120.33 170.13 L 120.31 171.12 C 120.28 171.98 120.97 172.70 121.83 172.72 C 122.69 172.74 123.41 172.06 123.43 171.20 L 123.45 170.21 C 123.47 169.35 122.79 168.63 121.93 168.61 C 121.07 168.59 120.35 169.27 120.33 170.13 Z M 120.31 171.11 L 120.28 172.11 C 120.25 172.98 120.93 173.70 121.79 173.72 C 122.65 173.75 123.37 173.07 123.40 172.21 L 123.43 171.21 C 123.45 170.35 122.78 169.63 121.91 169.60 C 121.05 169.57 120.33 170.25 120.31 171.11 Z M 120.28 172.11 L 120.24 173.12 C 120.21 173.98 120.89 174.70 121.75 174.73 C 122.61 174.76 123.33 174.08 123.36 173.22 L 123.40 172.22 C 123.43 171.35 122.75 170.63 121.89 170.60 C 121.03 170.57 120.31 171.25 120.28 172.11 Z M 120.24 173.11 L 120.20 174.12 C 120.17 174.98 120.84 175.71 121.71 175.74 C 122.57 175.77 123.29 175.10 123.32 174.24 L 123.36 173.23 C 123.39 172.37 122.72 171.64 121.86 171.61 C 121.00 171.58 120.27 172.25 120.24 173.11 Z M 120.20 174.12 L 120.16 175.12 C 120.13 175.98 120.80 176.71 121.66 176.74 C 122.52 176.78 123.25 176.11 123.28 175.24 L 123.32 174.24 C 123.36 173.38 122.69 172.65 121.83 172.62 C 120.97 172.58 120.24 173.25 120.20 174.12 Z M 120.16 175.12 L 120.12 176.11 C 120.09 176.97 120.75 177.70 121.62 177.74 C 122.48 177.77 123.20 177.10 123.24 176.24 L 123.28 175.25 C 123.32 174.39 122.65 173.66 121.79 173.62 C 120.93 173.59 120.20 174.25 120.16 175.12 Z M 120.12 176.11 L 120.08 177.16 C 120.04 178.02 120.70 178.75 121.57 178.79 C 122.43 178.83 123.16 178.16 123.19 177.30 L 123.24 176.24 C 123.28 175.38 122.61 174.65 121.75 174.62 C 120.89 174.58 120.16 175.24 120.12 176.11 Z M 120.08 177.16 L 120.03 178.19 C 119.99 179.06 120.65 179.79 121.51 179.83 C 122.38 179.87 123.11 179.20 123.15 178.34 L 123.19 177.30 C 123.23 176.44 122.57 175.71 121.71 175.67 C 120.85 175.63 120.12 176.30 120.08 177.16 Z M 120.03 178.19 L 119.98 179.20 C 119.94 180.06 120.60 180.80 121.46 180.84 C 122.32 180.88 123.05 180.22 123.10 179.36 L 123.15 178.34 C 123.19 177.48 122.52 176.75 121.66 176.71 C 120.80 176.66 120.07 177.33 120.03 178.19 Z M 119.98 179.20 L 119.93 180.19 C 119.88 181.05 120.54 181.78 121.40 181.83 C 122.26 181.87 123.00 181.21 123.04 180.35 L 123.10 179.36 C 123.14 178.50 122.48 177.77 121.62 177.72 C 120.76 177.68 120.02 178.34 119.98 179.20 Z M 119.93 180.18 L 119.87 181.14 C 119.82 182.00 120.48 182.74 121.34 182.79 C 122.20 182.84 122.94 182.18 122.99 181.32 L 123.04 180.36 C 123.09 179.50 122.43 178.76 121.57 178.71 C 120.71 178.66 119.97 179.32 119.93 180.18 Z M 119.87 181.13 L 119.81 182.08 C 119.76 182.94 120.42 183.68 121.28 183.73 C 122.14 183.78 122.88 183.13 122.93 182.27 L 122.99 181.32 C 123.04 180.46 122.39 179.72 121.53 179.67 C 120.67 179.62 119.93 180.27 119.87 181.13 Z M 119.81 182.07 L 119.74 183.10 C 119.69 183.97 120.34 184.71 121.20 184.77 C 122.06 184.82 122.80 184.17 122.86 183.31 L 122.93 182.28 C 122.99 181.42 122.34 180.67 121.48 180.61 C 120.62 180.56 119.87 181.21 119.81 182.07 Z M 119.75 183.10 L 119.67 184.10 C 119.61 184.96 120.26 185.71 121.12 185.77 C 121.98 185.84 122.72 185.19 122.79 184.33 L 122.86 183.32 C 122.92 182.46 122.27 181.71 121.41 181.65 C 120.55 181.59 119.81 182.24 119.75 183.10 Z M 119.67 184.10 L 119.60 185.08 C 119.53 185.94 120.18 186.69 121.04 186.76 C 121.90 186.82 122.65 186.18 122.71 185.32 L 122.79 184.33 C 122.85 183.47 122.21 182.72 121.35 182.66 C 120.49 182.59 119.74 183.24 119.67 184.10 Z M 119.60 185.08 L 119.52 186.06 C 119.46 186.92 120.10 187.67 120.96 187.73 C 121.82 187.80 122.57 187.16 122.64 186.30 L 122.71 185.32 C 122.78 184.46 122.14 183.71 121.28 183.65 C 120.42 183.58 119.67 184.22 119.60 185.08 Z M 119.52 186.06 L 119.45 187.03 C 119.38 187.89 120.03 188.64 120.88 188.71 C 121.74 188.78 122.50 188.13 122.56 187.27 L 122.64 186.30 C 122.70 185.44 122.06 184.69 121.20 184.62 C 120.34 184.56 119.59 185.20 119.52 186.06 Z M 119.45 187.04 L 119.37 188.03 C 119.31 188.89 119.95 189.64 120.81 189.71 C 121.67 189.77 122.42 189.13 122.49 188.27 L 122.56 187.27 C 122.63 186.41 121.98 185.66 121.12 185.60 C 120.26 185.53 119.51 186.18 119.45 187.04 Z M 119.37 188.04 L 119.30 189.04 C 119.24 189.90 119.88 190.65 120.74 190.71 C 121.60 190.77 122.35 190.13 122.41 189.27 L 122.49 188.27 C 122.55 187.41 121.90 186.66 121.04 186.59 C 120.19 186.53 119.44 187.18 119.37 188.04 Z M 119.30 189.04 L 119.23 190.04 C 119.16 190.90 119.81 191.65 120.67 191.71 C 121.53 191.78 122.28 191.13 122.34 190.27 L 122.41 189.27 C 122.48 188.41 121.83 187.66 120.97 187.60 C 120.11 187.53 119.36 188.18 119.30 189.04 Z M 119.23 190.04 L 119.15 191.04 C 119.09 191.90 119.73 192.65 120.59 192.71 C 121.45 192.77 122.20 192.13 122.26 191.27 L 122.34 190.27 C 122.40 189.41 121.76 188.66 120.90 188.60 C 120.04 188.53 119.29 189.18 119.23 190.04 Z M 119.15 191.04 L 119.08 192.02 C 119.01 192.88 119.66 193.63 120.52 193.70 C 121.38 193.76 122.12 193.12 122.19 192.26 L 122.26 191.27 C 122.33 190.41 121.69 189.66 120.83 189.60 C 119.97 189.53 119.22 190.18 119.15 191.04 Z M 119.08 192.02 L 119.00 193.06 C 118.93 193.92 119.57 194.67 120.43 194.74 C 121.29 194.81 122.04 194.16 122.11 193.30 L 122.19 192.26 C 122.26 191.40 121.61 190.65 120.76 190.59 C 119.90 190.52 119.14 191.16 119.08 192.02 Z M 119.00 193.06 L 118.91 194.08 C 118.84 194.94 119.48 195.70 120.34 195.77 C 121.20 195.84 121.95 195.20 122.02 194.34 L 122.11 193.31 C 122.18 192.45 121.54 191.70 120.68 191.63 C 119.82 191.56 119.07 192.20 119.00 193.06 Z M 118.91 194.08 L 118.83 195.08 C 118.76 195.94 119.39 196.69 120.25 196.77 C 121.11 196.84 121.87 196.20 121.94 195.34 L 122.02 194.34 C 122.10 193.48 121.46 192.73 120.60 192.65 C 119.74 192.58 118.99 193.22 118.91 194.08 Z M 118.83 195.07 L 118.74 196.04 C 118.67 196.90 119.30 197.66 120.16 197.73 C 121.02 197.81 121.78 197.17 121.85 196.31 L 121.94 195.35 C 122.01 194.49 121.38 193.73 120.52 193.65 C 119.66 193.58 118.90 194.21 118.83 195.07 Z M 118.74 196.03 L 118.66 196.99 C 118.58 197.85 119.21 198.61 120.07 198.69 C 120.93 198.77 121.69 198.14 121.77 197.28 L 121.85 196.32 C 121.93 195.46 121.30 194.70 120.44 194.62 C 119.58 194.54 118.82 195.17 118.74 196.03 Z M 118.66 196.98 L 118.56 198.01 C 118.48 198.87 119.10 199.63 119.96 199.71 C 120.82 199.80 121.58 199.17 121.67 198.31 L 121.76 197.28 C 121.85 196.42 121.22 195.66 120.36 195.58 C 119.50 195.50 118.74 196.13 118.66 196.98 Z M 118.56 198.00 L 118.46 199.00 C 118.37 199.85 119.00 200.62 119.86 200.70 C 120.72 200.79 121.48 200.16 121.57 199.31 L 121.67 198.31 C 121.75 197.46 121.12 196.69 120.27 196.61 C 119.41 196.52 118.64 197.15 118.56 198.00 Z M 118.46 198.99 L 118.36 199.97 C 118.27 200.83 118.90 201.59 119.76 201.68 C 120.61 201.77 121.38 201.14 121.47 200.28 L 121.57 199.31 C 121.65 198.45 121.03 197.68 120.17 197.60 C 119.31 197.51 118.55 198.14 118.46 198.99 Z M 118.36 199.97 L 118.26 200.95 C 118.18 201.80 118.80 202.57 119.66 202.66 C 120.52 202.74 121.28 202.12 121.37 201.26 L 121.47 200.28 C 121.55 199.43 120.93 198.66 120.07 198.57 C 119.21 198.49 118.45 199.11 118.36 199.97 Z M 118.26 200.95 L 118.16 201.95 C 118.08 202.81 118.70 203.57 119.56 203.66 C 120.42 203.74 121.18 203.12 121.27 202.26 L 121.37 201.26 C 121.45 200.40 120.83 199.63 119.97 199.55 C 119.11 199.46 118.35 200.09 118.26 200.95 Z M 118.16 201.95 L 118.06 202.96 C 117.98 203.82 118.61 204.58 119.47 204.66 C 120.33 204.75 121.09 204.12 121.17 203.26 L 121.27 202.26 C 121.35 201.40 120.72 200.63 119.87 200.55 C 119.01 200.47 118.24 201.10 118.16 201.95 Z M 118.06 202.97 L 117.97 203.96 C 117.89 204.82 118.52 205.58 119.38 205.66 C 120.24 205.74 121.00 205.11 121.08 204.25 L 121.17 203.25 C 121.25 202.40 120.62 201.64 119.76 201.56 C 118.90 201.48 118.14 202.11 118.06 202.97 Z M 117.97 203.97 L 117.88 204.96 C 117.81 205.82 118.44 206.57 119.30 206.65 C 120.16 206.72 120.92 206.09 120.99 205.23 L 121.08 204.24 C 121.16 203.38 120.52 202.63 119.66 202.55 C 118.80 202.48 118.05 203.11 117.97 203.97 Z M 117.88 204.97 L 117.80 206.00 C 117.73 206.86 118.37 207.62 119.23 207.69 C 120.09 207.76 120.84 207.12 120.91 206.26 L 121.00 205.22 C 121.07 204.36 120.43 203.61 119.57 203.54 C 118.71 203.47 117.95 204.11 117.88 204.97 Z M 117.80 206.01 L 117.72 207.01 C 117.65 207.87 118.29 208.62 119.15 208.69 C 120.01 208.76 120.76 208.12 120.83 207.26 L 120.91 206.26 C 120.98 205.40 120.34 204.64 119.48 204.58 C 118.62 204.51 117.87 205.15 117.80 206.01 Z M 117.72 207.00 L 117.64 207.97 C 117.56 208.82 118.20 209.58 119.06 209.65 C 119.92 209.73 120.67 209.09 120.75 208.23 L 120.83 207.27 C 120.90 206.41 120.27 205.65 119.41 205.58 C 118.55 205.50 117.79 206.14 117.72 207.00 Z M 117.64 207.95 L 117.55 208.84 C 117.47 209.69 118.10 210.46 118.95 210.54 C 119.81 210.62 120.58 210.00 120.66 209.14 L 120.74 208.25 C 120.83 207.39 120.20 206.63 119.34 206.55 C 118.48 206.46 117.72 207.09 117.64 207.95 Z M 117.55 208.83 L 117.46 209.69 C 117.37 210.54 118.00 211.31 118.85 211.40 C 119.71 211.49 120.48 210.87 120.57 210.01 L 120.66 209.15 C 120.75 208.29 120.12 207.52 119.27 207.43 C 118.41 207.35 117.64 207.97 117.55 208.83 Z M 117.46 209.69 L 117.37 210.64 C 117.28 211.50 117.91 212.27 118.76 212.35 C 119.62 212.44 120.39 211.81 120.47 210.95 L 120.57 210.00 C 120.65 209.15 120.03 208.38 119.17 208.29 C 118.31 208.21 117.55 208.83 117.46 209.69 Z M 117.36 210.66 L 117.27 211.78 C 117.19 212.64 117.82 213.40 118.68 213.47 C 119.54 213.55 120.30 212.91 120.38 212.05 L 120.47 210.94 C 120.55 210.08 119.92 209.32 119.06 209.24 C 118.20 209.17 117.44 209.80 117.36 210.66 Z M 117.26 211.80 L 117.19 212.85 C 117.12 213.71 117.77 214.46 118.63 214.52 C 119.48 214.58 120.23 213.94 120.30 213.08 L 120.38 212.03 C 120.44 211.17 119.80 210.42 118.94 210.36 C 118.08 210.29 117.33 210.94 117.26 211.80 Z M 117.18 212.86 L 117.13 213.75 C 117.07 214.61 117.72 215.35 118.58 215.41 C 119.44 215.47 120.18 214.82 120.24 213.96 L 120.30 213.07 C 120.36 212.21 119.70 211.46 118.84 211.41 C 117.98 211.35 117.24 212.00 117.18 212.86 Z M 117.13 213.76 L 117.07 214.72 C 117.02 215.58 117.67 216.32 118.54 216.37 C 119.40 216.42 120.13 215.77 120.19 214.91 L 120.24 213.94 C 120.29 213.08 119.64 212.35 118.78 212.29 C 117.91 212.24 117.18 212.90 117.13 213.76 Z M 117.07 214.73 L 117.01 215.75 C 116.97 216.61 117.63 217.34 118.49 217.39 C 119.35 217.43 120.09 216.77 120.13 215.91 L 120.19 214.90 C 120.23 214.04 119.57 213.30 118.71 213.26 C 117.85 213.21 117.11 213.87 117.07 214.73 Z M 117.01 215.76 L 116.97 216.81 C 116.93 217.67 117.59 218.40 118.45 218.44 C 119.31 218.48 120.04 217.82 120.08 216.95 L 120.13 215.90 C 120.17 215.04 119.51 214.31 118.65 214.27 C 117.78 214.23 117.05 214.90 117.01 215.76 Z M 116.97 216.82 L 116.92 217.89 C 116.89 218.75 117.56 219.48 118.42 219.51 C 119.28 219.55 120.01 218.88 120.04 218.02 L 120.09 216.94 C 120.12 216.08 119.45 215.36 118.59 215.32 C 117.73 215.29 117.00 215.96 116.97 216.82 Z M 116.92 217.90 L 116.89 218.98 C 116.86 219.84 117.53 220.56 118.39 220.59 C 119.26 220.62 119.98 219.94 120.01 219.08 L 120.04 218.01 C 120.07 217.14 119.40 216.42 118.53 216.39 C 117.67 216.36 116.95 217.04 116.92 217.90 Z M 116.89 218.99 L 116.86 220.09 C 116.84 220.95 117.52 221.67 118.38 221.69 C 119.24 221.71 119.96 221.03 119.98 220.17 L 120.01 219.07 C 120.03 218.21 119.35 217.49 118.49 217.47 C 117.62 217.45 116.91 218.13 116.89 218.99 Z M 116.86 220.11 L 116.84 221.20 C 116.83 222.06 117.51 222.77 118.38 222.78 C 119.24 222.80 119.95 222.11 119.96 221.25 L 119.98 220.16 C 119.99 219.29 119.30 218.58 118.44 218.57 C 117.58 218.56 116.87 219.25 116.86 220.11 Z M 116.84 221.22 L 116.84 222.28 C 116.83 223.14 117.53 223.84 118.39 223.84 C 119.26 223.84 119.96 223.15 119.96 222.28 L 119.96 221.23 C 119.96 220.37 119.27 219.67 118.41 219.66 C 117.54 219.66 116.84 220.36 116.84 221.22 Z M 116.84 222.30 L 116.85 223.31 C 116.86 224.17 117.57 224.86 118.43 224.85 C 119.29 224.84 119.98 224.13 119.97 223.27 L 119.96 222.26 C 119.95 221.40 119.24 220.71 118.38 220.72 C 117.52 220.73 116.83 221.44 116.84 222.30 Z M 116.85 223.34 L 116.88 224.30 C 116.91 225.16 117.64 225.84 118.50 225.81 C 119.36 225.78 120.03 225.06 120.00 224.20 L 119.97 223.24 C 119.94 222.38 119.22 221.70 118.36 221.73 C 117.50 221.76 116.82 222.48 116.85 223.34 Z M 116.89 224.34 L 116.94 225.24 C 116.99 226.10 117.73 226.76 118.59 226.70 C 119.45 226.65 120.11 225.91 120.06 225.05 L 120.00 224.16 C 119.95 223.29 119.21 222.64 118.35 222.69 C 117.49 222.74 116.83 223.48 116.89 224.34 Z M 116.94 225.30 L 117.04 226.25 C 117.12 227.11 117.89 227.74 118.74 227.66 C 119.60 227.57 120.23 226.81 120.15 225.95 L 120.05 224.99 C 119.97 224.14 119.21 223.51 118.35 223.59 C 117.49 223.68 116.86 224.44 116.94 225.30 Z M 117.05 226.34 L 117.21 227.43 C 117.34 228.28 118.14 228.87 118.99 228.74 C 119.84 228.61 120.43 227.81 120.30 226.96 L 120.14 225.87 C 120.01 225.02 119.21 224.43 118.36 224.56 C 117.51 224.69 116.92 225.48 117.05 226.34 Z M 117.23 227.51 L 117.43 228.49 C 117.61 229.34 118.44 229.88 119.28 229.70 C 120.13 229.52 120.67 228.70 120.49 227.85 L 120.29 226.87 C 120.11 226.03 119.28 225.49 118.44 225.67 C 117.59 225.84 117.05 226.67 117.23 227.51 Z M 117.45 228.56 L 117.68 229.46 C 117.89 230.30 118.74 230.80 119.58 230.59 C 120.41 230.37 120.92 229.52 120.70 228.69 L 120.47 227.78 C 120.26 226.95 119.41 226.45 118.57 226.66 C 117.74 226.87 117.24 227.72 117.45 228.56 Z M 117.69 229.50 L 117.93 230.33 C 118.16 231.16 119.02 231.65 119.85 231.41 C 120.68 231.18 121.17 230.32 120.93 229.49 L 120.69 228.65 C 120.46 227.82 119.60 227.34 118.77 227.57 C 117.94 227.80 117.46 228.67 117.69 229.50 Z"
      fill="black"
      fill-rule="nonzero" /><path d="M 123.60 94.31 L 124.49 94.28 C 125.35 94.26 126.02 93.53 125.99 92.67 C 125.97 91.81 125.25 91.13 124.38 91.16 L 123.50 91.19 C 122.63 91.22 121.96 91.94 121.99 92.80 C 122.01 93.66 122.73 94.34 123.60 94.31 Z M 124.51 94.28 L 125.43 94.24 C 126.29 94.19 126.95 93.46 126.91 92.60 C 126.87 91.74 126.13 91.08 125.27 91.12 L 124.36 91.16 C 123.50 91.21 122.83 91.94 122.88 92.80 C 122.92 93.66 123.65 94.33 124.51 94.28 Z M 125.48 94.23 L 126.45 94.15 C 127.31 94.08 127.95 93.33 127.88 92.47 C 127.81 91.61 127.05 90.97 126.19 91.04 L 125.22 91.12 C 124.36 91.19 123.72 91.95 123.79 92.80 C 123.86 93.66 124.62 94.30 125.48 94.23 Z M 126.51 94.15 L 127.57 94.02 C 128.42 93.91 129.03 93.13 128.92 92.28 C 128.82 91.42 128.04 90.81 127.18 90.92 L 126.13 91.05 C 125.28 91.15 124.67 91.93 124.77 92.79 C 124.88 93.64 125.66 94.25 126.51 94.15 Z M 127.63 94.01 L 128.76 93.82 C 129.61 93.67 130.19 92.87 130.04 92.02 C 129.90 91.17 129.09 90.60 128.24 90.74 L 127.12 90.93 C 126.27 91.07 125.69 91.88 125.84 92.73 C 125.98 93.58 126.78 94.15 127.63 94.01 Z M 128.82 93.81 L 129.71 93.62 C 130.56 93.45 131.10 92.62 130.93 91.78 C 130.75 90.94 129.93 90.39 129.08 90.57 L 128.19 90.75 C 127.34 90.92 126.80 91.75 126.97 92.59 C 127.15 93.44 127.97 93.98 128.82 93.81 Z M 129.75 93.62 L 130.69 93.40 C 131.53 93.21 132.06 92.37 131.86 91.53 C 131.67 90.69 130.83 90.16 129.99 90.36 L 129.05 90.57 C 128.21 90.77 127.68 91.60 127.88 92.44 C 128.07 93.28 128.91 93.81 129.75 93.62 Z M 130.71 93.39 L 131.69 93.15 C 132.53 92.95 133.04 92.10 132.84 91.26 C 132.63 90.43 131.79 89.92 130.95 90.12 L 129.97 90.36 C 129.13 90.57 128.62 91.41 128.83 92.25 C 129.03 93.09 129.88 93.60 130.71 93.39 Z M 131.71 93.15 L 132.71 92.89 C 133.55 92.68 134.05 91.83 133.83 90.99 C 133.62 90.16 132.77 89.65 131.93 89.87 L 130.93 90.13 C 130.10 90.34 129.59 91.19 129.81 92.03 C 130.02 92.86 130.88 93.36 131.71 93.15 Z M 132.72 92.89 L 133.73 92.62 C 134.56 92.40 135.06 91.55 134.84 90.71 C 134.62 89.88 133.76 89.38 132.93 89.60 L 131.92 89.87 C 131.09 90.09 130.59 90.95 130.81 91.78 C 131.03 92.61 131.89 93.11 132.72 92.89 Z M 133.74 92.62 L 134.73 92.35 C 135.57 92.13 136.06 91.27 135.84 90.44 C 135.61 89.61 134.76 89.11 133.92 89.34 L 132.93 89.60 C 132.09 89.83 131.60 90.68 131.82 91.52 C 132.05 92.35 132.90 92.84 133.74 92.62 Z M 134.73 92.35 L 135.72 92.09 C 136.56 91.86 137.05 91.01 136.83 90.17 C 136.60 89.34 135.75 88.85 134.92 89.07 L 133.92 89.34 C 133.09 89.56 132.60 90.42 132.82 91.25 C 133.04 92.08 133.90 92.58 134.73 92.35 Z M 135.72 92.09 L 136.77 91.81 C 137.60 91.59 138.10 90.73 137.88 89.90 C 137.66 89.07 136.80 88.57 135.97 88.79 L 134.92 89.07 C 134.09 89.29 133.59 90.14 133.81 90.98 C 134.03 91.81 134.89 92.31 135.72 92.09 Z M 136.76 91.81 L 137.77 91.55 C 138.60 91.34 139.11 90.48 138.89 89.65 C 138.67 88.81 137.82 88.31 136.99 88.53 L 135.98 88.79 C 135.14 89.00 134.64 89.86 134.86 90.69 C 135.07 91.53 135.92 92.03 136.76 91.81 Z M 137.76 91.55 L 138.73 91.31 C 139.57 91.10 140.08 90.25 139.87 89.42 C 139.66 88.58 138.81 88.07 137.98 88.28 L 137.00 88.53 C 136.16 88.73 135.65 89.58 135.86 90.42 C 136.07 91.25 136.92 91.76 137.76 91.55 Z M 138.72 91.31 L 139.67 91.09 C 140.51 90.89 141.02 90.04 140.82 89.21 C 140.62 88.37 139.78 87.85 138.94 88.05 L 137.99 88.28 C 137.15 88.48 136.64 89.32 136.84 90.16 C 137.04 91.00 137.88 91.51 138.72 91.31 Z M 139.65 91.09 L 140.58 90.88 C 141.42 90.69 141.94 89.86 141.75 89.02 C 141.56 88.17 140.73 87.65 139.89 87.84 L 138.96 88.05 C 138.12 88.24 137.59 89.07 137.78 89.91 C 137.97 90.75 138.81 91.28 139.65 91.09 Z M 140.55 90.89 L 141.46 90.69 C 142.31 90.52 142.85 89.69 142.67 88.84 C 142.49 88.00 141.66 87.46 140.82 87.64 L 139.91 87.83 C 139.07 88.01 138.53 88.84 138.70 89.68 C 138.88 90.53 139.71 91.06 140.55 90.89 Z M 141.44 90.70 L 142.43 90.51 C 143.28 90.34 143.83 89.53 143.67 88.68 C 143.51 87.83 142.69 87.28 141.84 87.44 L 140.85 87.63 C 140.00 87.80 139.45 88.62 139.61 89.46 C 139.77 90.31 140.59 90.86 141.44 90.70 Z M 142.41 90.51 L 143.40 90.34 C 144.25 90.19 144.82 89.38 144.67 88.53 C 144.52 87.68 143.71 87.12 142.86 87.26 L 141.87 87.44 C 141.02 87.59 140.45 88.39 140.60 89.24 C 140.75 90.09 141.56 90.66 142.41 90.51 Z M 143.37 90.34 L 144.36 90.19 C 145.21 90.06 145.79 89.26 145.66 88.41 C 145.53 87.55 144.73 86.97 143.88 87.10 L 142.89 87.26 C 142.04 87.39 141.45 88.19 141.59 89.04 C 141.72 89.89 142.52 90.48 143.37 90.34 Z M 144.33 90.19 L 145.32 90.06 C 146.17 89.94 146.77 89.15 146.65 88.29 C 146.53 87.44 145.74 86.84 144.88 86.96 L 143.90 87.10 C 143.05 87.22 142.45 88.01 142.57 88.86 C 142.69 89.72 143.48 90.31 144.33 90.19 Z M 145.29 90.06 L 146.27 89.94 C 147.13 89.83 147.74 89.05 147.63 88.20 C 147.52 87.34 146.74 86.73 145.89 86.84 L 144.91 86.96 C 144.05 87.07 143.44 87.85 143.55 88.70 C 143.66 89.56 144.44 90.16 145.29 90.06 Z M 146.25 89.94 L 147.26 89.83 C 148.12 89.74 148.74 88.97 148.64 88.11 C 148.55 87.25 147.78 86.63 146.92 86.73 L 145.91 86.84 C 145.05 86.93 144.44 87.70 144.53 88.56 C 144.62 89.41 145.39 90.03 146.25 89.94 Z M 147.24 89.83 L 148.31 89.73 C 149.16 89.65 149.79 88.89 149.71 88.03 C 149.63 87.17 148.87 86.54 148.01 86.62 L 146.94 86.72 C 146.08 86.81 145.46 87.57 145.54 88.43 C 145.62 89.28 146.38 89.91 147.24 89.83 Z M 148.29 89.73 L 149.33 89.64 C 150.19 89.57 150.83 88.82 150.76 87.96 C 150.69 87.10 149.93 86.46 149.07 86.53 L 148.03 86.62 C 147.17 86.69 146.53 87.45 146.60 88.31 C 146.67 89.17 147.43 89.80 148.29 89.73 Z M 149.32 89.64 L 150.32 89.57 C 151.18 89.50 151.83 88.75 151.76 87.89 C 151.70 87.04 150.95 86.39 150.09 86.46 L 149.09 86.53 C 148.23 86.60 147.58 87.35 147.65 88.21 C 147.71 89.07 148.46 89.71 149.32 89.64 Z M 150.31 89.57 L 151.26 89.51 C 152.12 89.45 152.77 88.70 152.71 87.84 C 152.65 86.98 151.90 86.33 151.04 86.39 L 150.10 86.45 C 149.24 86.51 148.59 87.26 148.65 88.12 C 148.71 88.98 149.45 89.63 150.31 89.57 Z M 151.25 89.51 L 152.19 89.45 C 153.05 89.39 153.70 88.65 153.65 87.79 C 153.59 86.93 152.85 86.28 151.99 86.33 L 151.05 86.39 C 150.19 86.44 149.54 87.19 149.59 88.05 C 149.65 88.91 150.39 89.56 151.25 89.51 Z M 152.18 89.45 L 153.27 89.38 C 154.13 89.33 154.79 88.60 154.74 87.74 C 154.69 86.87 153.95 86.22 153.09 86.27 L 152.00 86.33 C 151.14 86.38 150.48 87.12 150.53 87.98 C 150.58 88.84 151.32 89.50 152.18 89.45 Z M 153.25 89.38 L 154.23 89.34 C 155.09 89.30 155.75 88.57 155.71 87.70 C 155.67 86.84 154.94 86.18 154.08 86.22 L 153.10 86.27 C 152.24 86.31 151.58 87.04 151.62 87.90 C 151.66 88.76 152.39 89.43 153.25 89.38 Z M 154.21 89.34 L 155.13 89.31 C 155.99 89.28 156.66 88.55 156.63 87.69 C 156.60 86.83 155.88 86.16 155.02 86.19 L 154.10 86.22 C 153.23 86.25 152.56 86.97 152.59 87.83 C 152.62 88.70 153.34 89.37 154.21 89.34 Z M 155.11 89.31 L 156.06 89.29 C 156.92 89.27 157.61 88.56 157.59 87.69 C 157.57 86.83 156.86 86.15 156.00 86.17 L 155.04 86.19 C 154.18 86.20 153.50 86.92 153.51 87.78 C 153.53 88.64 154.25 89.33 155.11 89.31 Z M 156.04 89.29 L 157.04 89.28 C 157.90 89.27 158.59 88.56 158.58 87.70 C 158.58 86.84 157.87 86.15 157.01 86.16 L 156.01 86.17 C 155.15 86.17 154.46 86.88 154.47 87.74 C 154.48 88.60 155.18 89.30 156.04 89.29 Z M 157.03 89.28 L 158.04 89.27 C 158.90 89.27 159.60 88.57 159.60 87.71 C 159.59 86.85 158.89 86.15 158.03 86.15 L 157.02 86.16 C 156.16 86.16 155.46 86.86 155.46 87.72 C 155.47 88.58 156.17 89.28 157.03 89.28 Z M 158.04 89.27 L 159.05 89.27 C 159.91 89.27 160.61 88.57 160.61 87.71 C 160.61 86.85 159.91 86.15 159.05 86.15 L 158.04 86.15 C 157.17 86.15 156.47 86.85 156.47 87.71 C 156.48 88.58 157.17 89.27 158.04 89.27 Z M 159.05 89.27 L 160.04 89.27 C 160.90 89.27 161.60 88.57 161.60 87.71 C 161.60 86.85 160.90 86.15 160.04 86.15 L 159.05 86.15 C 158.18 86.15 157.49 86.85 157.49 87.71 C 157.49 88.57 158.18 89.27 159.05 89.27 Z M 160.04 89.27 L 161.04 89.27 C 161.90 89.27 162.60 88.57 162.60 87.71 C 162.60 86.85 161.90 86.15 161.04 86.15 L 160.04 86.15 C 159.18 86.15 158.48 86.85 158.48 87.71 C 158.48 88.57 159.18 89.27 160.04 89.27 Z M 161.04 89.27 L 162.04 89.27 C 162.90 89.27 163.60 88.57 163.60 87.71 C 163.60 86.85 162.90 86.15 162.04 86.15 L 161.04 86.15 C 160.17 86.15 159.48 86.85 159.48 87.71 C 159.48 88.57 160.17 89.27 161.04 89.27 Z M 162.04 89.27 L 163.03 89.27 C 163.89 89.27 164.59 88.58 164.59 87.71 C 164.59 86.85 163.89 86.15 163.03 86.15 L 162.04 86.15 C 161.18 86.15 160.48 86.85 160.48 87.71 C 160.48 88.57 161.18 89.27 162.04 89.27 Z M 163.02 89.27 L 164.01 89.28 C 164.88 89.28 165.58 88.59 165.58 87.72 C 165.58 86.86 164.89 86.16 164.03 86.16 L 163.04 86.15 C 162.17 86.15 161.47 86.84 161.47 87.71 C 161.46 88.57 162.16 89.27 163.02 89.27 Z M 164.00 89.28 L 165.01 89.29 C 165.87 89.30 166.58 88.61 166.59 87.75 C 166.60 86.89 165.91 86.18 165.05 86.17 L 164.04 86.16 C 163.18 86.14 162.47 86.83 162.46 87.70 C 162.45 88.56 163.14 89.27 164.00 89.28 Z M 164.98 89.29 L 166.00 89.32 C 166.86 89.34 167.58 88.66 167.61 87.80 C 167.63 86.94 166.95 86.22 166.09 86.20 L 165.07 86.17 C 164.21 86.15 163.49 86.83 163.47 87.69 C 163.44 88.55 164.12 89.27 164.98 89.29 Z M 165.98 89.32 L 166.97 89.36 C 167.83 89.40 168.56 88.74 168.60 87.88 C 168.64 87.01 167.98 86.28 167.11 86.24 L 166.12 86.20 C 165.26 86.16 164.53 86.83 164.49 87.69 C 164.45 88.55 165.11 89.28 165.98 89.32 Z M 166.95 89.36 L 167.95 89.42 C 168.81 89.48 169.55 88.82 169.60 87.96 C 169.66 87.10 169.00 86.36 168.14 86.31 L 167.14 86.25 C 166.28 86.19 165.54 86.85 165.49 87.71 C 165.43 88.57 166.09 89.31 166.95 89.36 Z M 167.93 89.42 L 168.93 89.50 C 169.79 89.56 170.54 88.92 170.60 88.06 C 170.66 87.20 170.02 86.45 169.16 86.38 L 168.16 86.31 C 167.30 86.25 166.55 86.89 166.49 87.75 C 166.42 88.61 167.07 89.36 167.93 89.42 Z M 168.91 89.50 L 169.91 89.58 C 170.77 89.65 171.53 89.02 171.60 88.16 C 171.67 87.30 171.04 86.54 170.18 86.47 L 169.18 86.38 C 168.32 86.31 167.56 86.95 167.49 87.81 C 167.42 88.67 168.05 89.42 168.91 89.50 Z M 169.90 89.58 L 170.93 89.68 C 171.79 89.75 172.55 89.12 172.63 88.26 C 172.71 87.41 172.08 86.65 171.22 86.57 L 170.19 86.47 C 169.33 86.39 168.57 87.02 168.49 87.88 C 168.41 88.74 169.04 89.50 169.90 89.58 Z M 170.92 89.67 L 171.93 89.77 C 172.78 89.86 173.55 89.23 173.63 88.37 C 173.72 87.51 173.09 86.75 172.23 86.67 L 171.23 86.57 C 170.37 86.48 169.60 87.11 169.52 87.97 C 169.44 88.83 170.06 89.59 170.92 89.67 Z M 171.92 89.77 L 172.89 89.87 C 173.75 89.95 174.52 89.33 174.60 88.47 C 174.69 87.61 174.06 86.85 173.20 86.76 L 172.23 86.67 C 171.37 86.58 170.61 87.21 170.52 88.06 C 170.44 88.92 171.07 89.69 171.92 89.77 Z M 172.90 89.87 L 173.89 89.97 C 174.75 90.05 175.51 89.42 175.60 88.57 C 175.68 87.71 175.06 86.94 174.20 86.86 L 173.20 86.76 C 172.34 86.68 171.58 87.30 171.49 88.16 C 171.41 89.02 172.04 89.78 172.90 89.87 Z M 173.89 89.97 L 174.90 90.07 C 175.75 90.15 176.52 89.53 176.60 88.67 C 176.69 87.81 176.06 87.04 175.21 86.96 L 174.20 86.86 C 173.34 86.77 172.58 87.40 172.49 88.26 C 172.41 89.12 173.03 89.88 173.89 89.97 Z M 174.88 90.06 L 175.86 90.17 C 176.71 90.27 177.48 89.65 177.58 88.79 C 177.67 87.93 177.05 87.16 176.20 87.07 L 175.22 86.96 C 174.36 86.87 173.59 87.49 173.50 88.34 C 173.41 89.20 174.02 89.97 174.88 90.06 Z M 175.83 90.17 L 176.73 90.28 C 177.58 90.40 178.36 89.79 178.48 88.94 C 178.59 88.08 177.98 87.30 177.13 87.19 L 176.23 87.07 C 175.37 86.96 174.59 87.57 174.48 88.42 C 174.37 89.28 174.97 90.06 175.83 90.17 Z M 176.70 90.28 L 177.52 90.40 C 178.38 90.53 179.17 89.94 179.30 89.09 C 179.42 88.23 178.83 87.44 177.98 87.31 L 177.16 87.19 C 176.30 87.07 175.51 87.66 175.38 88.51 C 175.26 89.36 175.85 90.15 176.70 90.28 Z M 177.51 90.40 L 178.44 90.55 C 179.30 90.68 180.09 90.09 180.23 89.24 C 180.36 88.39 179.77 87.59 178.92 87.46 L 177.99 87.32 C 177.14 87.18 176.34 87.77 176.21 88.62 C 176.08 89.47 176.66 90.27 177.51 90.40 Z M 178.45 90.55 L 179.57 90.72 C 180.42 90.85 181.22 90.26 181.35 89.41 C 181.48 88.56 180.89 87.76 180.04 87.63 L 178.92 87.46 C 178.07 87.33 177.27 87.91 177.14 88.77 C 177.01 89.62 177.59 90.42 178.45 90.55 Z M 179.57 90.72 L 180.68 90.88 C 181.53 91.01 182.32 90.42 182.45 89.57 C 182.57 88.71 181.99 87.92 181.13 87.79 L 180.03 87.63 C 179.18 87.50 178.39 88.09 178.26 88.95 C 178.13 89.80 178.72 90.59 179.57 90.72 Z M 180.68 90.88 L 181.64 91.02 C 182.50 91.14 183.29 90.55 183.41 89.70 C 183.53 88.84 182.94 88.05 182.08 87.93 L 181.13 87.79 C 180.27 87.67 179.48 88.26 179.36 89.12 C 179.24 89.97 179.83 90.76 180.68 90.88 Z M 181.65 91.02 L 182.67 91.16 C 183.53 91.28 184.31 90.69 184.43 89.83 C 184.55 88.98 183.96 88.19 183.10 88.07 L 182.08 87.93 C 181.22 87.81 180.44 88.41 180.32 89.26 C 180.20 90.11 180.79 90.90 181.65 91.02 Z M 182.68 91.16 L 183.72 91.31 C 184.58 91.42 185.37 90.82 185.48 89.97 C 185.60 89.12 185.00 88.33 184.14 88.21 L 183.10 88.07 C 182.24 87.95 181.46 88.55 181.34 89.41 C 181.22 90.26 181.82 91.05 182.68 91.16 Z M 183.73 91.31 L 184.77 91.44 C 185.62 91.56 186.41 90.96 186.52 90.10 C 186.63 89.25 186.03 88.46 185.18 88.35 L 184.14 88.21 C 183.28 88.10 182.50 88.70 182.39 89.56 C 182.27 90.41 182.88 91.19 183.73 91.31 Z M 184.77 91.45 L 185.76 91.57 C 186.62 91.68 187.40 91.08 187.51 90.22 C 187.62 89.37 187.01 88.58 186.16 88.47 L 185.17 88.35 C 184.32 88.24 183.53 88.84 183.42 89.70 C 183.31 90.55 183.92 91.34 184.77 91.45 Z M 185.77 91.57 L 186.76 91.69 C 187.62 91.80 188.40 91.19 188.50 90.33 C 188.61 89.48 188.00 88.70 187.14 88.59 L 186.15 88.47 C 185.29 88.37 184.52 88.98 184.41 89.83 C 184.31 90.69 184.92 91.47 185.77 91.57 Z M 186.78 91.70 L 187.85 91.81 C 188.71 91.91 189.48 91.29 189.58 90.43 C 189.67 89.58 189.05 88.81 188.20 88.71 L 187.13 88.59 C 186.27 88.50 185.50 89.11 185.40 89.97 C 185.31 90.83 185.92 91.60 186.78 91.70 Z M 187.88 91.82 L 188.84 91.91 C 189.70 91.98 190.46 91.35 190.54 90.49 C 190.62 89.64 189.99 88.88 189.13 88.80 L 188.17 88.71 C 187.31 88.63 186.55 89.26 186.47 90.12 C 186.39 90.98 187.02 91.74 187.88 91.82 Z M 188.88 91.91 L 189.80 91.97 C 190.66 92.03 191.41 91.38 191.47 90.52 C 191.53 89.66 190.88 88.92 190.02 88.86 L 189.09 88.79 C 188.23 88.73 187.48 89.38 187.43 90.24 C 187.37 91.11 188.02 91.85 188.88 91.91 Z M 189.84 91.97 L 190.81 92.02 C 191.67 92.05 192.40 91.39 192.44 90.53 C 192.48 89.66 191.81 88.94 190.95 88.90 L 189.98 88.85 C 189.12 88.82 188.39 89.48 188.35 90.34 C 188.31 91.21 188.98 91.94 189.84 91.97 Z M 190.84 92.02 L 191.74 92.04 C 192.61 92.07 193.32 91.39 193.35 90.52 C 193.37 89.66 192.69 88.94 191.83 88.92 L 190.92 88.90 C 190.06 88.87 189.34 89.55 189.32 90.42 C 189.29 91.28 189.97 91.99 190.84 92.02 Z M 191.76 92.04 L 192.69 92.06 C 193.55 92.07 194.26 91.38 194.27 90.52 C 194.29 89.66 193.60 88.95 192.74 88.94 L 191.81 88.92 C 190.95 88.91 190.24 89.59 190.22 90.46 C 190.21 91.32 190.90 92.03 191.76 92.04 Z M 192.70 92.06 L 193.69 92.07 C 194.55 92.07 195.26 91.38 195.26 90.52 C 195.27 89.66 194.58 88.95 193.72 88.94 L 192.73 88.94 C 191.87 88.93 191.16 89.62 191.15 90.48 C 191.14 91.34 191.84 92.05 192.70 92.06 Z M 193.70 92.07 L 194.73 92.07 C 195.59 92.08 196.30 91.38 196.30 90.52 C 196.30 89.66 195.61 88.95 194.74 88.95 L 193.71 88.94 C 192.85 88.94 192.15 89.64 192.14 90.50 C 192.14 91.36 192.83 92.06 193.70 92.07 Z M 194.74 92.07 L 195.80 92.07 C 196.66 92.07 197.36 91.38 197.37 90.51 C 197.37 89.65 196.67 88.95 195.81 88.95 L 194.74 88.95 C 193.88 88.95 193.18 89.65 193.18 90.51 C 193.18 91.37 193.87 92.07 194.74 92.07 Z M 195.80 92.07 L 196.89 92.07 C 197.75 92.07 198.45 91.37 198.45 90.51 C 198.45 89.65 197.75 88.95 196.89 88.95 L 195.80 88.95 C 194.94 88.95 194.24 89.65 194.24 90.51 C 194.24 91.37 194.94 92.07 195.80 92.07 Z"
      fill="black"
      fill-rule="nonzero" /></svg>