<svg xmlns="http://www.w3.org/2000/svg" width="300" height="300" viewBox="0 0 300 300">
<path d="M 153.56 200.02 L 152.53 200.06 C 151.67 200.08 151.00 200.80 151.02 201.67 C 151.05 202.53 151.77 203.20 152.64 203.18 L 153.66 203.14 C 154.52 203.12 155.20 202.39 155.17 201.53 C 155.14 200.67 154.42 200.00 153.56 200.02 Z M 152.54 200.06 L 151.53 200.08 C 150.67 200.11 149.99 200.83 150.01 201.69 C 150.04 202.55 150.75 203.23 151.62 203.20 L 152.63 203.18 C 153.49 203.15 154.17 202.43 154.15 201.57 C 154.12 200.71 153.40 200.03 152.54 200.06 Z M 151.54 200.08 L 150.55 200.10 C 149.69 200.12 149.00 200.83 149.02 201.69 C 149.04 202.55 149.75 203.24 150.61 203.22 L 151.60 203.21 C 152.46 203.19 153.15 202.48 153.13 201.61 C 153.12 200.75 152.41 200.07 151.54 200.08 Z M 150.57 200.10 L 149.61 200.11 C 148.75 200.11 148.05 200.81 148.06 201.67 C 148.06 202.54 148.77 203.23 149.63 203.23 L 150.59 203.22 C 151.45 203.22 152.15 202.52 152.14 201.66 C 152.14 200.79 151.44 200.10 150.57 200.10 Z M 149.66 200.11 L 148.72 200.09 C 147.85 200.07 147.14 200.75 147.12 201.61 C 147.10 202.47 147.78 203.19 148.64 203.21 L 149.58 203.23 C 150.45 203.25 151.16 202.57 151.18 201.70 C 151.20 200.84 150.52 200.13 149.66 200.11 Z M 148.80 200.09 L 147.84 200.02 C 146.98 199.95 146.23 200.59 146.16 201.45 C 146.10 202.31 146.74 203.06 147.60 203.13 L 148.56 203.20 C 149.42 203.27 150.17 202.62 150.24 201.77 C 150.30 200.91 149.66 200.16 148.80 200.09 Z M 147.95 200.03 L 146.93 199.88 C 146.07 199.75 145.28 200.34 145.15 201.19 C 145.02 202.04 145.61 202.84 146.46 202.96 L 147.49 203.12 C 148.34 203.24 149.14 202.66 149.26 201.80 C 149.39 200.95 148.80 200.16 147.95 200.03 Z M 147.04 199.90 L 146.03 199.67 C 145.19 199.48 144.36 200.01 144.17 200.85 C 143.98 201.70 144.51 202.53 145.35 202.72 L 146.35 202.94 C 147.20 203.13 148.03 202.60 148.22 201.76 C 148.41 200.92 147.88 200.08 147.04 199.90 Z M 146.11 199.69 L 145.19 199.43 C 144.36 199.20 143.50 199.69 143.27 200.52 C 143.03 201.35 143.52 202.21 144.35 202.44 L 145.28 202.70 C 146.11 202.93 146.97 202.44 147.20 201.61 C 147.43 200.78 146.94 199.92 146.11 199.69 Z M 145.23 199.45 L 144.27 199.15 C 143.45 198.89 142.57 199.35 142.31 200.17 C 142.06 201.00 142.52 201.87 143.34 202.13 L 144.31 202.43 C 145.13 202.69 146.00 202.23 146.26 201.40 C 146.52 200.58 146.06 199.70 145.23 199.45 Z M 144.30 199.16 L 143.32 198.83 C 142.50 198.56 141.61 199.00 141.34 199.81 C 141.07 200.63 141.51 201.52 142.33 201.79 L 143.31 202.12 C 144.13 202.39 145.01 201.95 145.28 201.13 C 145.56 200.31 145.12 199.43 144.30 199.16 Z M 143.33 198.83 L 142.36 198.50 C 141.54 198.21 140.65 198.64 140.37 199.46 C 140.09 200.27 140.52 201.16 141.33 201.45 L 142.31 201.78 C 143.12 202.07 144.01 201.64 144.30 200.82 C 144.58 200.01 144.15 199.12 143.33 198.83 Z M 142.36 198.50 L 141.43 198.17 C 140.61 197.88 139.72 198.31 139.43 199.12 C 139.15 199.94 139.58 200.83 140.39 201.11 L 141.33 201.44 C 142.14 201.73 143.03 201.30 143.32 200.49 C 143.60 199.68 143.18 198.78 142.36 198.50 Z M 141.42 198.17 L 140.52 197.85 C 139.71 197.57 138.81 197.99 138.53 198.81 C 138.24 199.62 138.67 200.51 139.49 200.80 L 140.39 201.11 C 141.21 201.40 142.10 200.97 142.38 200.16 C 142.67 199.34 142.24 198.45 141.42 198.17 Z M 140.51 197.85 L 139.61 197.54 C 138.79 197.26 137.90 197.69 137.62 198.50 C 137.34 199.32 137.78 200.21 138.59 200.49 L 139.49 200.80 C 140.31 201.08 141.20 200.65 141.48 199.83 C 141.76 199.02 141.33 198.13 140.51 197.85 Z M 139.60 197.53 L 138.66 197.22 C 137.85 196.94 136.96 197.38 136.69 198.20 C 136.41 199.02 136.85 199.90 137.67 200.18 L 138.60 200.49 C 139.42 200.77 140.30 200.33 140.58 199.51 C 140.85 198.69 140.41 197.81 139.60 197.53 Z M 138.65 197.21 L 137.65 196.89 C 136.83 196.63 135.95 197.07 135.69 197.89 C 135.42 198.71 135.87 199.59 136.69 199.86 L 137.68 200.18 C 138.50 200.45 139.38 200.00 139.65 199.18 C 139.92 198.36 139.47 197.48 138.65 197.21 Z M 137.64 196.89 L 136.65 196.58 C 135.83 196.32 134.96 196.78 134.70 197.60 C 134.44 198.42 134.90 199.30 135.72 199.56 L 136.70 199.87 C 137.53 200.12 138.40 199.67 138.66 198.84 C 138.92 198.02 138.46 197.14 137.64 196.89 Z M 136.64 196.57 L 135.72 196.29 C 134.90 196.04 134.03 196.51 133.77 197.33 C 133.52 198.16 133.99 199.03 134.81 199.28 L 135.73 199.56 C 136.56 199.81 137.43 199.35 137.68 198.52 C 137.93 197.70 137.47 196.83 136.64 196.57 Z M 135.72 196.29 L 134.75 196.00 C 133.93 195.76 133.06 196.22 132.81 197.05 C 132.56 197.88 133.03 198.75 133.86 198.99 L 134.82 199.28 C 135.64 199.53 136.51 199.06 136.76 198.24 C 137.01 197.41 136.54 196.54 135.72 196.29 Z M 134.75 196.00 L 133.76 195.71 C 132.94 195.46 132.07 195.93 131.82 196.76 C 131.58 197.59 132.05 198.46 132.88 198.70 L 133.86 198.99 C 134.69 199.24 135.56 198.77 135.80 197.94 C 136.05 197.12 135.58 196.25 134.75 196.00 Z M 133.76 195.71 L 132.77 195.42 C 131.95 195.17 131.08 195.64 130.83 196.47 C 130.59 197.29 131.06 198.16 131.89 198.41 L 132.88 198.70 C 133.70 198.95 134.57 198.48 134.82 197.65 C 135.06 196.82 134.59 195.95 133.76 195.71 Z M 132.78 195.42 L 131.80 195.12 C 130.97 194.88 130.10 195.35 129.86 196.18 C 129.61 197.00 130.08 197.87 130.91 198.12 L 131.88 198.41 C 132.71 198.65 133.58 198.18 133.83 197.36 C 134.07 196.53 133.60 195.66 132.78 195.42 Z M 131.80 195.13 L 130.84 194.84 C 130.02 194.59 129.15 195.06 128.90 195.88 C 128.65 196.71 129.12 197.58 129.94 197.83 L 130.90 198.12 C 131.73 198.36 132.60 197.90 132.85 197.07 C 133.10 196.25 132.63 195.37 131.80 195.13 Z M 130.85 194.84 L 129.76 194.51 C 128.94 194.25 128.06 194.72 127.81 195.54 C 127.56 196.36 128.02 197.24 128.84 197.49 L 129.94 197.83 C 130.76 198.08 131.63 197.61 131.89 196.79 C 132.14 195.97 131.68 195.09 130.85 194.84 Z M 129.77 194.51 L 128.75 194.19 C 127.93 193.93 127.05 194.38 126.79 195.21 C 126.53 196.03 126.99 196.91 127.81 197.17 L 128.83 197.49 C 129.66 197.75 130.53 197.29 130.79 196.47 C 131.05 195.64 130.59 194.77 129.77 194.51 Z M 128.76 194.19 L 127.81 193.88 C 126.99 193.62 126.11 194.06 125.85 194.88 C 125.58 195.70 126.03 196.59 126.85 196.85 L 127.80 197.16 C 128.62 197.43 129.50 196.98 129.77 196.16 C 130.03 195.34 129.58 194.46 128.76 194.19 Z M 127.83 193.89 L 126.95 193.59 C 126.13 193.32 125.25 193.75 124.97 194.57 C 124.70 195.39 125.13 196.27 125.95 196.55 L 126.83 196.85 C 127.65 197.12 128.54 196.68 128.81 195.87 C 129.09 195.05 128.65 194.16 127.83 193.89 Z M 126.97 193.60 L 126.15 193.31 C 125.34 193.02 124.45 193.45 124.16 194.26 C 123.88 195.08 124.30 195.97 125.12 196.25 L 125.93 196.54 C 126.74 196.83 127.64 196.40 127.92 195.59 C 128.21 194.78 127.78 193.88 126.97 193.60 Z M 126.18 193.32 L 125.23 192.96 C 124.42 192.66 123.52 193.07 123.22 193.88 C 122.92 194.68 123.33 195.58 124.13 195.89 L 125.09 196.24 C 125.89 196.55 126.79 196.14 127.10 195.33 C 127.40 194.52 126.99 193.62 126.18 193.32 Z M 125.27 192.98 L 124.36 192.61 C 123.56 192.28 122.65 192.66 122.32 193.46 C 122.00 194.26 122.38 195.17 123.18 195.50 L 124.09 195.87 C 124.89 196.20 125.80 195.81 126.13 195.02 C 126.45 194.22 126.07 193.31 125.27 192.98 Z M 124.41 192.63 L 123.53 192.23 C 122.75 191.87 121.82 192.22 121.46 193.01 C 121.11 193.79 121.46 194.72 122.24 195.07 L 123.12 195.47 C 123.91 195.83 124.83 195.48 125.19 194.70 C 125.55 193.91 125.20 192.99 124.41 192.63 Z M 123.59 192.26 L 122.69 191.81 C 121.92 191.42 120.98 191.73 120.59 192.50 C 120.21 193.27 120.52 194.21 121.29 194.60 L 122.19 195.05 C 122.96 195.43 123.90 195.12 124.28 194.35 C 124.67 193.58 124.36 192.64 123.59 192.26 Z M 122.73 191.83 L 121.87 191.36 C 121.12 190.95 120.17 191.23 119.76 191.99 C 119.34 192.74 119.62 193.69 120.38 194.10 L 121.24 194.57 C 122.00 194.99 122.95 194.71 123.36 193.95 C 123.77 193.19 123.49 192.24 122.73 191.83 Z M 121.91 191.38 L 121.04 190.87 C 120.29 190.44 119.34 190.69 118.90 191.43 C 118.47 192.18 118.72 193.13 119.46 193.57 L 120.34 194.08 C 121.08 194.52 122.04 194.26 122.47 193.52 C 122.91 192.78 122.66 191.82 121.91 191.38 Z M 121.08 190.90 L 120.21 190.35 C 119.48 189.89 118.52 190.12 118.06 190.85 C 117.60 191.58 117.82 192.54 118.55 193.00 L 119.42 193.54 C 120.15 194.00 121.11 193.78 121.57 193.05 C 122.03 192.32 121.81 191.36 121.08 190.90 Z M 120.26 190.38 L 119.43 189.82 C 118.72 189.34 117.75 189.53 117.27 190.24 C 116.78 190.95 116.97 191.92 117.68 192.41 L 118.51 192.97 C 119.22 193.45 120.19 193.27 120.67 192.55 C 121.16 191.84 120.97 190.87 120.26 190.38 Z M 119.49 189.86 L 118.67 189.25 C 117.98 188.73 117.00 188.87 116.48 189.56 C 115.97 190.25 116.11 191.23 116.80 191.75 L 117.62 192.37 C 118.31 192.88 119.29 192.74 119.81 192.05 C 120.32 191.36 120.18 190.38 119.49 189.86 Z M 118.74 189.31 L 117.96 188.65 C 117.30 188.09 116.32 188.17 115.76 188.83 C 115.20 189.49 115.29 190.48 115.95 191.03 L 116.72 191.69 C 117.38 192.25 118.37 192.16 118.92 191.51 C 119.48 190.85 119.40 189.86 118.74 189.31 Z M 118.04 188.72 L 117.34 188.04 C 116.72 187.44 115.73 187.46 115.13 188.08 C 114.53 188.69 114.55 189.68 115.17 190.28 L 115.87 190.96 C 116.49 191.56 117.47 191.55 118.07 190.93 C 118.67 190.31 118.66 189.32 118.04 188.72 Z M 117.41 188.12 L 116.77 187.40 C 116.19 186.76 115.20 186.71 114.56 187.29 C 113.92 187.86 113.87 188.85 114.45 189.49 L 115.09 190.21 C 115.67 190.85 116.66 190.90 117.30 190.32 C 117.94 189.74 117.99 188.76 117.41 188.12 Z M 116.83 187.47 L 116.27 186.78 C 115.74 186.10 114.75 185.99 114.08 186.53 C 113.41 187.07 113.30 188.05 113.83 188.72 L 114.39 189.42 C 114.93 190.09 115.91 190.20 116.58 189.67 C 117.26 189.13 117.37 188.15 116.83 187.47 Z M 116.32 186.84 L 115.79 186.09 C 115.29 185.39 114.31 185.23 113.61 185.73 C 112.91 186.23 112.75 187.20 113.25 187.90 L 113.78 188.66 C 114.28 189.36 115.26 189.52 115.96 189.02 C 116.66 188.52 116.83 187.55 116.32 186.84 Z M 115.83 186.16 L 115.29 185.31 C 114.83 184.59 113.86 184.37 113.13 184.84 C 112.41 185.30 112.20 186.27 112.66 187.00 L 113.20 187.84 C 113.67 188.57 114.63 188.78 115.36 188.31 C 116.09 187.85 116.30 186.88 115.83 186.16 Z M 115.32 185.37 L 114.76 184.41 C 114.33 183.66 113.37 183.41 112.63 183.84 C 111.88 184.28 111.63 185.23 112.07 185.98 L 112.63 186.94 C 113.06 187.68 114.02 187.94 114.76 187.50 C 115.51 187.07 115.76 186.11 115.32 185.37 Z M 114.79 184.45 L 114.30 183.55 C 113.89 182.79 112.94 182.51 112.18 182.92 C 111.42 183.33 111.14 184.28 111.55 185.04 L 112.04 185.94 C 112.45 186.69 113.40 186.98 114.16 186.56 C 114.92 186.15 115.20 185.21 114.79 184.45 Z M 114.31 183.58 L 113.86 182.70 C 113.46 181.93 112.52 181.63 111.76 182.03 C 110.99 182.42 110.69 183.36 111.09 184.13 L 111.54 185.01 C 111.94 185.77 112.88 186.07 113.64 185.68 C 114.41 185.28 114.71 184.34 114.31 183.58 Z M 113.87 182.72 L 113.41 181.80 C 113.03 181.03 112.09 180.71 111.32 181.09 C 110.55 181.48 110.23 182.41 110.62 183.19 L 111.07 184.11 C 111.46 184.88 112.40 185.19 113.17 184.81 C 113.94 184.43 114.25 183.49 113.87 182.72 Z M 113.42 181.82 L 112.97 180.88 C 112.60 180.11 111.67 179.78 110.89 180.15 C 110.11 180.52 109.79 181.46 110.16 182.23 L 110.61 183.17 C 110.98 183.95 111.91 184.27 112.69 183.90 C 113.47 183.53 113.80 182.59 113.42 181.82 Z M 112.98 180.90 L 112.56 179.98 C 112.19 179.20 111.26 178.86 110.48 179.22 C 109.70 179.58 109.36 180.51 109.72 181.29 L 110.15 182.22 C 110.51 183.00 111.44 183.34 112.22 182.97 C 113.01 182.61 113.35 181.68 112.98 180.90 Z M 112.56 180.00 L 112.16 179.10 C 111.81 178.32 110.89 177.96 110.10 178.32 C 109.31 178.67 108.96 179.59 109.31 180.38 L 109.71 181.28 C 110.07 182.06 110.99 182.41 111.78 182.06 C 112.56 181.71 112.92 180.78 112.56 180.00 Z M 112.17 179.13 L 111.73 178.09 C 111.39 177.30 110.47 176.93 109.68 177.27 C 108.88 177.61 108.52 178.53 108.86 179.32 L 109.30 180.36 C 109.64 181.15 110.56 181.52 111.35 181.18 C 112.15 180.84 112.51 179.92 112.17 179.13 Z M 111.74 178.11 L 111.34 177.15 C 111.01 176.36 110.10 175.98 109.30 176.30 C 108.51 176.63 108.13 177.54 108.46 178.34 L 108.85 179.30 C 109.18 180.09 110.09 180.48 110.89 180.15 C 111.68 179.82 112.06 178.91 111.74 178.11 Z M 111.35 177.17 L 110.99 176.28 C 110.67 175.48 109.76 175.09 108.96 175.41 C 108.16 175.73 107.77 176.63 108.09 177.44 L 108.45 178.33 C 108.77 179.13 109.68 179.52 110.48 179.20 C 111.28 178.88 111.67 177.97 111.35 177.17 Z M 110.99 176.28 L 110.66 175.43 C 110.34 174.63 109.43 174.24 108.63 174.56 C 107.83 174.88 107.44 175.78 107.76 176.58 L 108.09 177.43 C 108.41 178.23 109.32 178.62 110.12 178.31 C 110.92 177.99 111.31 177.08 110.99 176.28 Z M 110.66 175.43 L 110.29 174.51 C 109.97 173.71 109.06 173.32 108.26 173.65 C 107.46 173.97 107.07 174.88 107.39 175.68 L 107.76 176.59 C 108.08 177.39 108.99 177.78 109.79 177.46 C 110.59 177.14 110.98 176.23 110.66 175.43 Z M 110.28 174.50 L 109.89 173.55 C 109.56 172.75 108.65 172.37 107.85 172.70 C 107.05 173.03 106.68 173.94 107.00 174.74 L 107.40 175.69 C 107.73 176.49 108.64 176.87 109.44 176.54 C 110.23 176.21 110.61 175.29 110.28 174.50 Z M 109.88 173.54 L 109.50 172.62 C 109.16 171.83 108.25 171.46 107.45 171.79 C 106.66 172.13 106.29 173.05 106.62 173.84 L 107.01 174.75 C 107.35 175.55 108.26 175.92 109.06 175.58 C 109.85 175.25 110.22 174.33 109.88 173.54 Z M 109.49 172.61 L 109.11 171.73 C 108.77 170.94 107.85 170.58 107.06 170.92 C 106.27 171.26 105.91 172.18 106.25 172.97 L 106.63 173.85 C 106.97 174.64 107.89 175.01 108.68 174.66 C 109.47 174.32 109.84 173.40 109.49 172.61 Z M 109.11 171.72 L 108.73 170.85 C 108.38 170.06 107.46 169.71 106.67 170.05 C 105.88 170.40 105.52 171.32 105.87 172.11 L 106.25 172.98 C 106.60 173.77 107.52 174.13 108.31 173.78 C 109.10 173.43 109.46 172.51 109.11 171.72 Z M 108.72 170.84 L 108.32 169.97 C 107.97 169.18 107.04 168.83 106.26 169.19 C 105.47 169.54 105.12 170.47 105.48 171.25 L 105.87 172.13 C 106.23 172.91 107.15 173.26 107.94 172.91 C 108.73 172.55 109.07 171.63 108.72 170.84 Z M 108.32 169.95 L 107.89 169.03 C 107.52 168.25 106.60 167.91 105.81 168.27 C 105.03 168.64 104.69 169.57 105.06 170.35 L 105.49 171.27 C 105.85 172.05 106.78 172.39 107.56 172.02 C 108.34 171.66 108.68 170.73 108.32 169.95 Z M 107.88 169.01 L 107.44 168.09 C 107.06 167.31 106.13 166.98 105.35 167.35 C 104.58 167.73 104.25 168.66 104.62 169.44 L 105.07 170.36 C 105.44 171.14 106.37 171.47 107.15 171.10 C 107.93 170.72 108.25 169.79 107.88 169.01 Z M 107.43 168.08 L 107.03 167.25 C 106.65 166.47 105.72 166.15 104.94 166.53 C 104.17 166.91 103.84 167.84 104.22 168.62 L 104.63 169.45 C 105.00 170.22 105.94 170.54 106.71 170.17 C 107.49 169.79 107.81 168.85 107.43 168.08 Z M 107.03 167.25 L 106.60 166.36 C 106.22 165.59 105.28 165.27 104.51 165.65 C 103.73 166.03 103.41 166.96 103.79 167.74 L 104.22 168.62 C 104.60 169.39 105.54 169.71 106.31 169.34 C 107.09 168.96 107.41 168.02 107.03 167.25 Z M 106.60 166.37 L 106.15 165.44 C 105.77 164.66 104.84 164.34 104.06 164.72 C 103.29 165.09 102.96 166.03 103.34 166.80 L 103.79 167.73 C 104.16 168.51 105.10 168.83 105.87 168.45 C 106.65 168.08 106.97 167.14 106.60 166.37 Z M 106.15 165.45 L 105.69 164.49 C 105.32 163.71 104.39 163.38 103.61 163.75 C 102.83 164.12 102.50 165.05 102.88 165.83 L 103.33 166.79 C 103.70 167.57 104.64 167.90 105.41 167.53 C 106.19 167.16 106.52 166.23 106.15 165.45 Z M 105.70 164.50 L 105.27 163.58 C 104.91 162.79 103.98 162.45 103.20 162.82 C 102.42 163.18 102.08 164.11 102.44 164.89 L 102.87 165.82 C 103.23 166.60 104.16 166.94 104.94 166.57 C 105.72 166.21 106.06 165.28 105.70 164.50 Z M 105.28 163.59 L 104.88 162.70 C 104.52 161.91 103.60 161.56 102.81 161.92 C 102.03 162.27 101.68 163.19 102.03 163.98 L 102.43 164.87 C 102.78 165.66 103.71 166.01 104.49 165.66 C 105.28 165.30 105.63 164.38 105.28 163.59 Z M 104.89 162.72 L 104.49 161.81 C 104.15 161.02 103.23 160.65 102.44 161.00 C 101.65 161.34 101.29 162.26 101.63 163.05 L 102.02 163.96 C 102.36 164.75 103.28 165.11 104.07 164.77 C 104.87 164.43 105.23 163.51 104.89 162.72 Z M 104.50 161.83 L 104.12 160.91 C 103.79 160.11 102.88 159.73 102.08 160.06 C 101.28 160.39 100.90 161.30 101.23 162.10 L 101.62 163.03 C 101.95 163.82 102.86 164.20 103.66 163.87 C 104.45 163.54 104.83 162.63 104.50 161.83 Z M 104.13 160.93 L 103.76 159.98 C 103.44 159.18 102.53 158.79 101.73 159.10 C 100.93 159.42 100.53 160.33 100.85 161.13 L 101.22 162.08 C 101.54 162.88 102.45 163.27 103.25 162.96 C 104.05 162.64 104.44 161.73 104.13 160.93 Z M 103.77 160.01 L 103.41 159.05 C 103.11 158.25 102.21 157.83 101.40 158.14 C 100.59 158.44 100.18 159.34 100.48 160.14 L 100.84 161.10 C 101.14 161.91 102.04 162.32 102.85 162.02 C 103.66 161.72 104.07 160.82 103.77 160.01 Z M 103.42 159.08 L 103.09 158.15 C 102.80 157.34 101.91 156.91 101.10 157.19 C 100.29 157.48 99.86 158.37 100.15 159.19 L 100.47 160.12 C 100.76 160.93 101.65 161.36 102.46 161.07 C 103.28 160.79 103.70 159.89 103.42 159.08 Z M 103.10 158.17 L 102.78 157.23 C 102.51 156.41 101.63 155.97 100.81 156.24 C 99.99 156.51 99.55 157.40 99.82 158.21 L 100.14 159.16 C 100.41 159.98 101.29 160.42 102.11 160.15 C 102.93 159.88 103.37 158.99 103.10 158.17 Z M 102.79 157.25 L 102.49 156.29 C 102.23 155.47 101.35 155.01 100.53 155.28 C 99.70 155.54 99.25 156.41 99.51 157.24 L 99.81 158.19 C 100.07 159.01 100.95 159.47 101.77 159.21 C 102.60 158.95 103.05 158.07 102.79 157.25 Z M 102.49 156.31 L 102.20 155.35 C 101.95 154.52 101.08 154.06 100.25 154.31 C 99.43 154.56 98.96 155.43 99.21 156.25 L 99.50 157.22 C 99.75 158.04 100.63 158.51 101.45 158.26 C 102.28 158.01 102.74 157.14 102.49 156.31 Z M 102.21 155.36 L 101.92 154.40 C 101.68 153.57 100.82 153.09 99.99 153.34 C 99.16 153.58 98.69 154.44 98.93 155.27 L 99.21 156.24 C 99.45 157.06 100.31 157.54 101.14 157.30 C 101.97 157.06 102.45 156.19 102.21 155.36 Z M 101.93 154.41 L 101.66 153.46 C 101.43 152.63 100.57 152.15 99.74 152.38 C 98.91 152.61 98.42 153.47 98.66 154.30 L 98.92 155.25 C 99.15 156.08 100.01 156.57 100.85 156.34 C 101.68 156.11 102.16 155.24 101.93 154.41 Z M 101.67 153.48 L 101.42 152.55 C 101.19 151.71 100.34 151.22 99.51 151.44 C 98.67 151.66 98.18 152.52 98.40 153.35 L 98.65 154.29 C 98.88 155.12 99.73 155.62 100.56 155.39 C 101.40 155.17 101.89 154.31 101.67 153.48 Z M 101.42 152.56 L 101.18 151.62 C 100.97 150.78 100.12 150.28 99.28 150.49 C 98.45 150.71 97.94 151.56 98.16 152.39 L 98.40 153.33 C 98.61 154.17 99.46 154.68 100.30 154.46 C 101.13 154.25 101.64 153.40 101.42 152.56 Z M 101.19 151.64 L 100.96 150.68 C 100.76 149.84 99.91 149.32 99.07 149.53 C 98.24 149.73 97.72 150.57 97.92 151.41 L 98.15 152.37 C 98.35 153.21 99.20 153.72 100.03 153.52 C 100.87 153.32 101.39 152.48 101.19 151.64 Z M 100.96 150.70 L 100.74 149.71 C 100.55 148.87 99.72 148.34 98.88 148.53 C 98.03 148.72 97.51 149.56 97.69 150.40 L 97.92 151.39 C 98.10 152.23 98.94 152.76 99.78 152.57 C 100.62 152.38 101.15 151.54 100.96 150.70 Z M 100.75 149.74 L 100.53 148.72 C 100.36 147.87 99.53 147.33 98.69 147.50 C 97.84 147.68 97.30 148.51 97.48 149.35 L 97.69 150.37 C 97.86 151.22 98.69 151.76 99.54 151.58 C 100.38 151.41 100.92 150.58 100.75 149.74 Z M 100.54 148.74 L 100.34 147.71 C 100.18 146.87 99.36 146.31 98.51 146.47 C 97.67 146.64 97.11 147.46 97.28 148.30 L 97.47 149.33 C 97.63 150.17 98.45 150.73 99.30 150.57 C 100.15 150.40 100.70 149.59 100.54 148.74 Z M 100.35 147.73 L 100.16 146.71 C 100.01 145.86 99.20 145.29 98.35 145.44 C 97.50 145.59 96.94 146.40 97.09 147.25 L 97.27 148.28 C 97.42 149.13 98.23 149.70 99.08 149.55 C 99.93 149.39 100.50 148.58 100.35 147.73 Z M 100.17 146.72 L 99.99 145.69 C 99.85 144.84 99.05 144.26 98.20 144.40 C 97.35 144.54 96.77 145.35 96.91 146.20 L 97.09 147.23 C 97.23 148.08 98.03 148.66 98.88 148.52 C 99.73 148.38 100.31 147.57 100.17 146.72 Z M 100.00 145.70 L 99.84 144.68 C 99.70 143.83 98.91 143.25 98.05 143.38 C 97.20 143.51 96.62 144.31 96.75 145.16 L 96.91 146.18 C 97.04 147.03 97.84 147.62 98.69 147.48 C 99.55 147.35 100.13 146.55 100.00 145.70 Z M 99.84 144.69 L 99.69 143.71 C 99.57 142.86 98.78 142.27 97.92 142.39 C 97.07 142.52 96.48 143.31 96.61 144.16 L 96.75 145.15 C 96.87 146.00 97.67 146.59 98.52 146.47 C 99.37 146.34 99.96 145.55 99.84 144.69 Z M 99.70 143.72 L 99.57 142.80 C 99.45 141.94 98.67 141.34 97.81 141.46 C 96.96 141.58 96.36 142.37 96.48 143.22 L 96.60 144.15 C 96.72 145.00 97.51 145.60 98.36 145.48 C 99.22 145.37 99.81 144.58 99.70 143.72 Z M 99.57 142.81 L 99.45 141.82 C 99.34 140.97 98.56 140.36 97.70 140.47 C 96.85 140.58 96.24 141.36 96.35 142.21 L 96.47 143.20 C 96.58 144.06 97.36 144.66 98.22 144.56 C 99.07 144.45 99.68 143.67 99.57 142.81 Z M 99.45 141.85 L 99.33 140.77 C 99.24 139.91 98.47 139.30 97.61 139.39 C 96.75 139.49 96.13 140.26 96.23 141.11 L 96.35 142.19 C 96.44 143.05 97.21 143.67 98.07 143.57 C 98.93 143.48 99.55 142.71 99.45 141.85 Z M 99.33 140.80 L 99.25 139.83 C 99.17 138.97 98.41 138.34 97.55 138.42 C 96.69 138.50 96.06 139.26 96.14 140.12 L 96.23 141.09 C 96.30 141.94 97.07 142.58 97.92 142.50 C 98.78 142.42 99.41 141.66 99.33 140.80 Z M 99.25 139.86 L 99.18 138.93 C 99.11 138.07 98.36 137.43 97.50 137.50 C 96.64 137.56 96.00 138.31 96.06 139.17 L 96.13 140.09 C 96.20 140.95 96.95 141.60 97.81 141.53 C 98.67 141.47 99.31 140.72 99.25 139.86 Z M 99.18 138.95 L 99.12 138.02 C 99.06 137.16 98.32 136.50 97.46 136.56 C 96.60 136.62 95.95 137.36 96.00 138.22 L 96.06 139.15 C 96.12 140.01 96.86 140.67 97.72 140.61 C 98.58 140.55 99.23 139.81 99.18 138.95 Z M 99.12 138.03 L 99.06 137.07 C 99.01 136.21 98.27 135.55 97.41 135.60 C 96.55 135.65 95.89 136.39 95.94 137.25 L 96.00 138.21 C 96.05 139.07 96.79 139.73 97.65 139.68 C 98.51 139.63 99.17 138.89 99.12 138.03 Z M 99.06 137.08 L 99.01 136.08 C 98.96 135.22 98.23 134.56 97.37 134.60 C 96.51 134.65 95.85 135.39 95.89 136.25 L 95.94 137.25 C 95.99 138.11 96.73 138.77 97.59 138.72 C 98.45 138.68 99.11 137.94 99.06 137.08 Z M 99.01 136.09 L 98.96 135.07 C 98.92 134.21 98.19 133.54 97.33 133.58 C 96.47 133.62 95.80 134.35 95.84 135.21 L 95.89 136.24 C 95.93 137.10 96.66 137.76 97.52 137.72 C 98.38 137.68 99.05 136.95 99.01 136.09 Z M 98.96 135.08 L 98.92 134.06 C 98.89 133.20 98.17 132.53 97.31 132.56 C 96.44 132.59 95.77 133.32 95.80 134.18 L 95.84 135.20 C 95.88 136.06 96.60 136.73 97.46 136.70 C 98.32 136.67 99.00 135.95 98.96 135.08 Z M 98.93 134.08 L 98.90 133.06 C 98.87 132.19 98.16 131.51 97.30 131.54 C 96.43 131.56 95.75 132.28 95.78 133.14 L 95.80 134.16 C 95.83 135.02 96.54 135.70 97.41 135.68 C 98.27 135.66 98.95 134.94 98.93 134.08 Z M 98.90 133.07 L 98.88 132.06 C 98.87 131.20 98.16 130.51 97.30 130.53 C 96.43 130.54 95.75 131.25 95.76 132.11 L 95.78 133.12 C 95.79 133.98 96.50 134.67 97.36 134.66 C 98.22 134.64 98.91 133.93 98.90 133.07 Z M 98.88 132.08 L 98.87 131.08 C 98.87 130.22 98.16 129.53 97.30 129.53 C 96.44 129.54 95.75 130.24 95.75 131.11 L 95.76 132.10 C 95.77 132.96 96.47 133.66 97.33 133.65 C 98.20 133.64 98.89 132.94 98.88 132.08 Z M 98.87 131.09 L 98.87 130.10 C 98.87 129.24 98.17 128.54 97.31 128.55 C 96.44 128.55 95.75 129.25 95.75 130.11 L 95.75 131.10 C 95.75 131.96 96.45 132.66 97.32 132.65 C 98.18 132.65 98.88 131.95 98.87 131.09 Z M 98.87 130.11 L 98.87 129.12 C 98.87 128.25 98.17 127.56 97.31 127.56 C 96.45 127.56 95.75 128.25 95.75 129.12 L 95.75 130.11 C 95.75 130.97 96.45 131.67 97.31 131.67 C 98.17 131.67 98.87 130.97 98.87 130.11 Z M 98.87 129.12 L 98.87 128.12 C 98.87 127.26 98.17 126.56 97.31 126.56 C 96.45 126.56 95.75 127.25 95.75 128.12 L 95.75 129.12 C 95.75 129.98 96.45 130.68 97.31 130.68 C 98.17 130.68 98.87 129.98 98.87 129.12 Z M 98.87 128.12 L 98.88 127.12 C 98.88 126.26 98.18 125.56 97.32 125.55 C 96.46 125.55 95.76 126.25 95.75 127.11 L 95.75 128.11 C 95.75 128.98 96.44 129.68 97.31 129.68 C 98.17 129.68 98.87 128.98 98.87 128.12 Z M 98.88 127.13 L 98.88 126.12 C 98.89 125.26 98.19 124.56 97.33 124.55 C 96.47 124.55 95.77 125.24 95.76 126.10 L 95.75 127.10 C 95.75 127.97 96.44 128.67 97.30 128.68 C 98.17 128.68 98.87 127.99 98.88 127.13 Z M 98.88 126.13 L 98.90 125.14 C 98.91 124.27 98.22 123.57 97.35 123.55 C 96.49 123.54 95.78 124.23 95.77 125.09 L 95.76 126.09 C 95.75 126.95 96.44 127.66 97.30 127.67 C 98.16 127.69 98.87 127.00 98.88 126.13 Z M 98.90 125.15 L 98.92 124.14 C 98.94 123.28 98.25 122.57 97.39 122.55 C 96.53 122.53 95.82 123.21 95.80 124.07 L 95.77 125.08 C 95.75 125.94 96.44 126.66 97.30 126.68 C 98.16 126.70 98.88 126.01 98.90 125.15 Z M 98.92 124.18 L 98.96 123.18 C 99.00 122.32 98.33 121.59 97.47 121.55 C 96.61 121.51 95.88 122.17 95.84 123.04 L 95.80 124.04 C 95.76 124.90 96.43 125.63 97.29 125.67 C 98.15 125.71 98.88 125.04 98.92 124.18 Z M 98.96 123.24 L 99.04 122.24 C 99.11 121.38 98.47 120.63 97.61 120.56 C 96.75 120.49 96.00 121.13 95.93 121.99 L 95.85 122.98 C 95.78 123.84 96.41 124.59 97.27 124.66 C 98.13 124.73 98.89 124.09 98.96 123.24 Z M 99.03 122.32 L 99.17 121.34 C 99.28 120.48 98.68 119.70 97.83 119.58 C 96.97 119.47 96.19 120.06 96.07 120.92 L 95.94 121.90 C 95.82 122.76 96.42 123.55 97.27 123.66 C 98.13 123.78 98.92 123.18 99.03 122.32 Z M 99.15 121.44 L 99.35 120.44 C 99.52 119.60 98.98 118.78 98.13 118.60 C 97.29 118.43 96.46 118.98 96.29 119.82 L 96.09 120.82 C 95.92 121.66 96.46 122.49 97.31 122.66 C 98.15 122.83 98.98 122.29 99.15 121.44 Z M 99.33 120.54 L 99.60 119.55 C 99.82 118.72 99.33 117.86 98.49 117.64 C 97.66 117.41 96.81 117.91 96.58 118.74 L 96.31 119.73 C 96.09 120.56 96.58 121.42 97.42 121.64 C 98.25 121.86 99.10 121.37 99.33 120.54 Z M 99.57 119.63 L 99.88 118.67 C 100.15 117.85 99.70 116.97 98.88 116.70 C 98.06 116.44 97.18 116.89 96.91 117.71 L 96.60 118.66 C 96.34 119.48 96.79 120.36 97.61 120.63 C 98.43 120.90 99.31 120.45 99.57 119.63 Z M 99.86 118.73 L 100.20 117.81 C 100.50 117.00 100.09 116.11 99.28 115.81 C 98.47 115.51 97.57 115.92 97.27 116.73 L 96.93 117.65 C 96.64 118.46 97.05 119.35 97.86 119.65 C 98.67 119.95 99.56 119.54 99.86 118.73 Z M 100.18 117.86 L 100.54 116.97 C 100.87 116.17 100.48 115.26 99.68 114.94 C 98.88 114.61 97.97 115.00 97.65 115.80 L 97.29 116.69 C 96.97 117.49 97.35 118.40 98.15 118.72 C 98.95 119.04 99.86 118.66 100.18 117.86 Z M 100.53 117.01 L 100.91 116.14 C 101.25 115.35 100.89 114.43 100.10 114.09 C 99.31 113.74 98.39 114.10 98.05 114.89 L 97.67 115.76 C 97.32 116.55 97.68 117.47 98.47 117.82 C 99.26 118.16 100.18 117.80 100.53 117.01 Z M 100.89 116.18 L 101.30 115.30 C 101.67 114.52 101.34 113.59 100.56 113.22 C 99.78 112.86 98.85 113.19 98.48 113.97 L 98.06 114.85 C 97.70 115.63 98.03 116.56 98.81 116.93 C 99.59 117.30 100.52 116.96 100.89 116.18 Z M 101.29 115.33 L 101.76 114.39 C 102.14 113.61 101.82 112.68 101.05 112.29 C 100.28 111.91 99.34 112.23 98.96 113.00 L 98.49 113.94 C 98.11 114.72 98.43 115.65 99.20 116.04 C 99.97 116.42 100.91 116.10 101.29 115.33 Z M 101.75 114.40 L 102.15 113.61 C 102.54 112.84 102.24 111.90 101.47 111.51 C 100.70 111.12 99.76 111.43 99.37 112.19 L 98.97 112.99 C 98.57 113.75 98.88 114.69 99.65 115.09 C 100.42 115.48 101.36 115.17 101.75 114.40 Z M 102.15 113.62 L 102.52 112.90 C 102.92 112.13 102.62 111.19 101.85 110.79 C 101.09 110.40 100.15 110.69 99.75 111.46 L 99.37 112.18 C 98.98 112.95 99.28 113.89 100.04 114.29 C 100.81 114.69 101.75 114.39 102.15 113.62 Z M 102.52 112.90 L 102.93 112.11 C 103.34 111.35 103.04 110.40 102.28 110.00 C 101.52 109.60 100.57 109.90 100.17 110.66 L 99.75 111.45 C 99.35 112.22 99.65 113.16 100.41 113.56 C 101.17 113.96 102.12 113.67 102.52 112.90 Z M 102.93 112.12 L 103.40 111.25 C 103.80 110.49 103.51 109.54 102.75 109.14 C 101.99 108.73 101.05 109.02 100.64 109.78 L 100.17 110.65 C 99.77 111.41 100.06 112.36 100.82 112.76 C 101.58 113.17 102.52 112.88 102.93 112.12 Z M 103.39 111.26 L 103.91 110.29 C 104.32 109.53 104.04 108.59 103.28 108.18 C 102.52 107.77 101.57 108.05 101.16 108.81 L 100.64 109.77 C 100.23 110.53 100.52 111.48 101.28 111.89 C 102.03 112.30 102.98 112.01 103.39 111.26 Z M 103.91 110.30 L 104.49 109.24 C 104.90 108.48 104.62 107.53 103.87 107.12 C 103.11 106.71 102.16 106.98 101.75 107.74 L 101.17 108.80 C 100.75 109.56 101.03 110.51 101.79 110.92 C 102.54 111.33 103.49 111.06 103.91 110.30 Z M 104.48 109.25 L 105.03 108.25 C 105.45 107.50 105.17 106.55 104.42 106.13 C 103.67 105.72 102.72 105.99 102.30 106.74 L 101.75 107.74 C 101.33 108.49 101.61 109.44 102.36 109.86 C 103.12 110.27 104.07 110.00 104.48 109.25 Z M 105.03 108.26 L 105.51 107.39 C 105.93 106.64 105.66 105.69 104.91 105.27 C 104.15 104.85 103.20 105.12 102.78 105.87 L 102.30 106.74 C 101.88 107.49 102.15 108.44 102.91 108.86 C 103.66 109.28 104.61 109.01 105.03 108.26 Z M 105.51 107.39 L 106.02 106.49 C 106.44 105.74 106.17 104.79 105.42 104.37 C 104.67 103.95 103.71 104.21 103.29 104.97 L 102.79 105.87 C 102.37 106.62 102.63 107.57 103.39 107.99 C 104.14 108.41 105.09 108.15 105.51 107.39 Z M 106.01 106.50 L 106.53 105.58 C 106.96 104.83 106.69 103.87 105.94 103.45 C 105.19 103.03 104.24 103.29 103.81 104.04 L 103.29 104.96 C 102.87 105.71 103.14 106.67 103.89 107.09 C 104.64 107.51 105.59 107.25 106.01 106.50 Z M 106.53 105.58 L 107.05 104.66 C 107.48 103.91 107.22 102.96 106.47 102.53 C 105.72 102.11 104.76 102.37 104.34 103.12 L 103.82 104.04 C 103.39 104.79 103.65 105.74 104.40 106.17 C 105.15 106.59 106.10 106.33 106.53 105.58 Z M 107.05 104.66 L 107.57 103.76 C 108.00 103.01 107.74 102.05 106.99 101.63 C 106.24 101.20 105.29 101.46 104.86 102.21 L 104.34 103.11 C 103.91 103.86 104.17 104.81 104.92 105.24 C 105.67 105.67 106.62 105.41 107.05 104.66 Z M 107.57 103.76 L 108.08 102.88 C 108.51 102.14 108.25 101.18 107.50 100.75 C 106.76 100.32 105.80 100.57 105.37 101.32 L 104.86 102.20 C 104.43 102.95 104.69 103.90 105.43 104.33 C 106.18 104.76 107.14 104.51 107.57 103.76 Z M 108.07 102.89 L 108.56 102.06 C 108.99 101.31 108.74 100.36 108.00 99.92 C 107.25 99.49 106.30 99.74 105.86 100.48 L 105.38 101.31 C 104.94 102.06 105.19 103.02 105.94 103.45 C 106.68 103.89 107.64 103.63 108.07 102.89 Z M 108.55 102.06 L 109.01 101.29 C 109.45 100.55 109.21 99.59 108.46 99.15 C 107.72 98.71 106.76 98.96 106.33 99.70 L 105.87 100.47 C 105.43 101.22 105.67 102.17 106.42 102.61 C 107.16 103.05 108.11 102.81 108.55 102.06 Z M 109.00 101.30 L 109.64 100.26 C 110.08 99.52 109.85 98.56 109.11 98.11 C 108.37 97.67 107.41 97.90 106.97 98.64 L 106.33 99.69 C 105.89 100.42 106.12 101.38 106.86 101.83 C 107.60 102.28 108.56 102.04 109.00 101.30 Z M 109.62 100.28 L 110.25 99.28 C 110.71 98.55 110.49 97.59 109.76 97.13 C 109.03 96.67 108.06 96.89 107.61 97.62 L 106.98 98.62 C 106.52 99.35 106.74 100.31 107.47 100.77 C 108.20 101.23 109.16 101.01 109.62 100.28 Z M 110.23 99.31 L 110.78 98.48 C 111.25 97.76 111.05 96.80 110.33 96.32 C 109.61 95.85 108.64 96.05 108.17 96.77 L 107.62 97.59 C 107.15 98.31 107.35 99.28 108.07 99.76 C 108.79 100.23 109.76 100.03 110.23 99.31 Z M 110.76 98.52 L 111.24 97.81 C 111.74 97.10 111.56 96.13 110.85 95.64 C 110.14 95.15 109.17 95.32 108.68 96.03 L 108.19 96.73 C 107.70 97.44 107.87 98.42 108.58 98.91 C 109.29 99.40 110.26 99.22 110.76 98.52 Z M 111.22 97.84 L 111.68 97.21 C 112.19 96.52 112.04 95.54 111.34 95.03 C 110.64 94.53 109.67 94.68 109.16 95.37 L 108.70 96.00 C 108.19 96.70 108.34 97.67 109.04 98.18 C 109.74 98.69 110.71 98.54 111.22 97.84 Z M 111.66 97.24 L 112.24 96.48 C 112.76 95.80 112.63 94.82 111.94 94.29 C 111.26 93.77 110.28 93.90 109.75 94.59 L 109.18 95.35 C 108.66 96.03 108.79 97.01 109.47 97.54 C 110.16 98.06 111.14 97.93 111.66 97.24 Z M 112.22 96.51 L 112.85 95.72 C 113.39 95.05 113.28 94.07 112.60 93.53 C 111.93 92.99 110.95 93.10 110.41 93.77 L 109.78 94.56 C 109.24 95.23 109.35 96.22 110.02 96.76 C 110.69 97.29 111.68 97.18 112.22 96.51 Z M 112.82 95.76 L 113.46 95.01 C 114.02 94.35 113.94 93.36 113.28 92.81 C 112.63 92.25 111.64 92.32 111.08 92.98 L 110.44 93.73 C 109.88 94.39 109.96 95.38 110.62 95.94 C 111.27 96.49 112.26 96.42 112.82 95.76 Z M 113.42 95.05 L 114.08 94.34 C 114.66 93.70 114.62 92.71 113.98 92.13 C 113.35 91.55 112.36 91.59 111.78 92.22 L 111.12 92.94 C 110.54 93.57 110.58 94.56 111.21 95.14 C 111.85 95.73 112.84 95.68 113.42 95.05 Z M 114.03 94.38 L 114.69 93.72 C 115.30 93.11 115.30 92.12 114.70 91.51 C 114.09 90.90 113.10 90.90 112.49 91.51 L 111.82 92.18 C 111.21 92.78 111.21 93.77 111.82 94.38 C 112.43 94.99 113.42 94.99 114.03 94.38 Z M 114.64 93.77 L 115.36 93.12 C 116.00 92.54 116.04 91.55 115.46 90.91 C 114.88 90.28 113.89 90.23 113.26 90.81 L 112.54 91.46 C 111.90 92.04 111.86 93.03 112.44 93.67 C 113.02 94.31 114.00 94.35 114.64 93.77 Z M 115.31 93.16 L 116.10 92.50 C 116.76 91.95 116.85 90.96 116.30 90.30 C 115.75 89.64 114.77 89.55 114.10 90.10 L 113.31 90.76 C 112.64 91.32 112.56 92.30 113.11 92.96 C 113.66 93.63 114.64 93.72 115.31 93.16 Z M 116.06 92.54 L 116.87 91.91 C 117.56 91.38 117.68 90.40 117.16 89.72 C 116.63 89.03 115.65 88.91 114.97 89.43 L 114.15 90.07 C 113.47 90.59 113.34 91.57 113.87 92.26 C 114.39 92.94 115.37 93.06 116.06 92.54 Z M 116.84 91.93 L 117.63 91.36 C 118.32 90.85 118.48 89.87 117.97 89.18 C 117.46 88.48 116.48 88.33 115.79 88.84 L 115.00 89.41 C 114.30 89.92 114.15 90.89 114.66 91.59 C 115.17 92.29 116.14 92.44 116.84 91.93 Z M 117.60 91.38 L 118.43 90.80 C 119.14 90.31 119.31 89.34 118.82 88.63 C 118.33 87.92 117.36 87.74 116.65 88.24 L 115.81 88.81 C 115.11 89.31 114.93 90.28 115.42 90.99 C 115.92 91.70 116.89 91.87 117.60 91.38 Z M 118.40 90.82 L 119.26 90.25 C 119.98 89.78 120.17 88.81 119.70 88.09 C 119.22 87.37 118.25 87.17 117.54 87.65 L 116.68 88.22 C 115.96 88.69 115.76 89.66 116.24 90.38 C 116.71 91.10 117.68 91.30 118.40 90.82 Z M 119.23 90.27 L 120.09 89.73 C 120.82 89.28 121.04 88.31 120.58 87.58 C 120.12 86.85 119.16 86.63 118.43 87.09 L 117.57 87.63 C 116.84 88.09 116.62 89.05 117.07 89.78 C 117.53 90.51 118.50 90.73 119.23 90.27 Z M 120.05 89.76 L 120.94 89.24 C 121.68 88.80 121.93 87.84 121.49 87.10 C 121.06 86.36 120.10 86.11 119.36 86.54 L 118.47 87.06 C 117.72 87.50 117.48 88.46 117.91 89.20 C 118.35 89.95 119.31 90.19 120.05 89.76 Z M 120.89 89.26 L 121.78 88.78 C 122.53 88.36 122.81 87.41 122.40 86.66 C 121.99 85.90 121.04 85.62 120.28 86.04 L 119.40 86.52 C 118.64 86.93 118.36 87.88 118.78 88.64 C 119.19 89.40 120.14 89.67 120.89 89.26 Z M 121.74 88.80 L 122.62 88.35 C 123.38 87.96 123.69 87.02 123.30 86.25 C 122.91 85.48 121.97 85.18 121.20 85.57 L 120.32 86.02 C 119.55 86.41 119.25 87.35 119.64 88.11 C 120.03 88.88 120.97 89.19 121.74 88.80 Z M 122.58 88.37 L 123.47 87.95 C 124.24 87.58 124.58 86.64 124.20 85.87 C 123.83 85.09 122.90 84.76 122.12 85.13 L 121.24 85.55 C 120.46 85.92 120.13 86.85 120.50 87.63 C 120.87 88.41 121.80 88.74 122.58 88.37 Z M 123.44 87.96 L 124.33 87.56 C 125.11 87.21 125.46 86.28 125.11 85.50 C 124.76 84.71 123.83 84.36 123.05 84.71 L 122.16 85.11 C 121.37 85.47 121.02 86.39 121.37 87.18 C 121.72 87.96 122.65 88.31 123.44 87.96 Z M 124.30 87.57 L 125.20 87.19 C 125.99 86.85 126.35 85.93 126.01 85.14 C 125.67 84.34 124.76 83.98 123.96 84.32 L 123.07 84.70 C 122.28 85.04 121.91 85.96 122.25 86.75 C 122.59 87.54 123.51 87.91 124.30 87.57 Z M 125.18 87.19 L 126.10 86.81 C 126.89 86.48 127.27 85.57 126.94 84.77 C 126.61 83.98 125.69 83.60 124.90 83.93 L 123.98 84.31 C 123.18 84.64 122.81 85.56 123.14 86.35 C 123.47 87.15 124.38 87.52 125.18 87.19 Z M 126.08 86.82 L 127.02 86.44 C 127.82 86.11 128.21 85.20 127.88 84.40 C 127.56 83.60 126.65 83.22 125.85 83.54 L 124.91 83.93 C 124.11 84.25 123.73 85.16 124.05 85.96 C 124.37 86.76 125.29 87.14 126.08 86.82 Z M 127.02 86.44 L 127.97 86.05 C 128.77 85.73 129.16 84.82 128.84 84.02 C 128.52 83.22 127.61 82.84 126.81 83.16 L 125.85 83.54 C 125.05 83.86 124.66 84.77 124.99 85.57 C 125.31 86.37 126.22 86.76 127.02 86.44 Z M 127.97 86.06 L 128.90 85.68 C 129.70 85.36 130.09 84.46 129.77 83.66 C 129.45 82.85 128.54 82.47 127.74 82.79 L 126.81 83.16 C 126.01 83.48 125.62 84.39 125.94 85.19 C 126.26 85.99 127.17 86.38 127.97 86.06 Z M 128.89 85.69 L 129.82 85.32 C 130.62 85.00 131.01 84.09 130.69 83.29 C 130.38 82.49 129.47 82.10 128.67 82.42 L 127.74 82.78 C 126.94 83.10 126.55 84.01 126.87 84.81 C 127.18 85.61 128.09 86.00 128.89 85.69 Z M 129.81 85.32 L 130.74 84.96 C 131.55 84.65 131.95 83.74 131.63 82.94 C 131.32 82.14 130.42 81.74 129.61 82.05 L 128.68 82.41 C 127.87 82.72 127.48 83.63 127.79 84.43 C 128.10 85.24 129.00 85.64 129.81 85.32 Z M 130.73 84.97 L 131.67 84.61 C 132.48 84.31 132.89 83.41 132.58 82.60 C 132.28 81.80 131.38 81.39 130.57 81.69 L 129.63 82.04 C 128.82 82.35 128.41 83.25 128.72 84.05 C 129.02 84.86 129.92 85.27 130.73 84.97 Z M 131.65 84.62 L 132.59 84.28 C 133.40 84.00 133.83 83.10 133.54 82.29 C 133.25 81.48 132.36 81.05 131.54 81.34 L 130.60 81.68 C 129.79 81.97 129.36 82.86 129.65 83.68 C 129.94 84.49 130.83 84.91 131.65 84.62 Z M 132.56 84.30 L 133.52 83.97 C 134.34 83.70 134.78 82.82 134.51 82.00 C 134.24 81.18 133.35 80.74 132.54 81.01 L 131.57 81.33 C 130.76 81.61 130.31 82.49 130.59 83.31 C 130.86 84.13 131.74 84.57 132.56 84.30 Z M 133.49 83.98 L 134.46 83.68 C 135.28 83.43 135.74 82.55 135.48 81.73 C 135.23 80.91 134.35 80.45 133.53 80.70 L 132.57 81.00 C 131.74 81.26 131.28 82.13 131.54 82.96 C 131.80 83.78 132.67 84.24 133.49 83.98 Z M 134.43 83.69 L 135.39 83.41 C 136.22 83.17 136.69 82.31 136.45 81.48 C 136.21 80.65 135.34 80.17 134.52 80.42 L 133.56 80.69 C 132.73 80.94 132.25 81.80 132.49 82.63 C 132.73 83.46 133.60 83.93 134.43 83.69 Z M 135.36 83.42 L 136.32 83.16 C 137.15 82.93 137.64 82.08 137.42 81.25 C 137.19 80.41 136.33 79.92 135.50 80.15 L 134.54 80.41 C 133.71 80.63 133.22 81.49 133.45 82.32 C 133.67 83.16 134.53 83.65 135.36 83.42 Z M 136.29 83.17 L 137.25 82.92 C 138.09 82.71 138.60 81.86 138.38 81.03 C 138.17 80.19 137.32 79.68 136.49 79.90 L 135.53 80.14 C 134.69 80.35 134.18 81.20 134.40 82.04 C 134.61 82.87 135.46 83.38 136.29 83.17 Z M 137.23 82.93 L 138.24 82.69 C 139.08 82.49 139.60 81.65 139.40 80.81 C 139.20 79.97 138.36 79.45 137.52 79.65 L 136.51 79.89 C 135.67 80.09 135.15 80.93 135.35 81.77 C 135.55 82.61 136.39 83.13 137.23 82.93 Z M 138.22 82.69 L 139.22 82.48 C 140.06 82.29 140.59 81.46 140.41 80.62 C 140.22 79.77 139.39 79.24 138.55 79.43 L 137.55 79.65 C 136.71 79.83 136.17 80.66 136.36 81.50 C 136.54 82.35 137.38 82.88 138.22 82.69 Z M 139.19 82.48 L 140.17 82.29 C 141.01 82.12 141.56 81.29 141.39 80.45 C 141.22 79.60 140.40 79.05 139.55 79.22 L 138.57 79.42 C 137.73 79.59 137.18 80.41 137.35 81.26 C 137.52 82.10 138.34 82.65 139.19 82.48 Z M 140.14 82.29 L 141.08 82.12 C 141.93 81.97 142.49 81.16 142.34 80.31 C 142.19 79.46 141.37 78.89 140.53 79.05 L 139.58 79.22 C 138.73 79.37 138.17 80.18 138.32 81.03 C 138.48 81.88 139.29 82.44 140.14 82.29 Z M 141.05 82.13 L 142.04 81.97 C 142.89 81.84 143.48 81.04 143.34 80.18 C 143.21 79.33 142.41 78.75 141.56 78.89 L 140.56 79.04 C 139.71 79.18 139.13 79.98 139.26 80.83 C 139.40 81.68 140.20 82.26 141.05 82.13 Z M 142.01 81.97 L 143.01 81.84 C 143.87 81.73 144.47 80.94 144.35 80.09 C 144.24 79.23 143.45 78.63 142.60 78.75 L 141.59 78.88 C 140.74 78.99 140.14 79.78 140.25 80.63 C 140.37 81.49 141.15 82.09 142.01 81.97 Z M 142.98 81.84 L 143.96 81.74 C 144.81 81.64 145.43 80.87 145.34 80.01 C 145.24 79.15 144.47 78.54 143.61 78.63 L 142.63 78.74 C 141.77 78.84 141.16 79.61 141.25 80.47 C 141.35 81.32 142.12 81.94 142.98 81.84 Z M 143.93 81.74 L 144.90 81.64 C 145.76 81.56 146.39 80.80 146.31 79.94 C 146.22 79.08 145.46 78.45 144.60 78.54 L 143.63 78.63 C 142.78 78.71 142.15 79.47 142.23 80.33 C 142.31 81.19 143.07 81.82 143.93 81.74 Z M 144.89 81.65 L 145.89 81.56 C 146.74 81.49 147.38 80.73 147.31 79.87 C 147.23 79.01 146.48 78.38 145.62 78.45 L 144.62 78.54 C 143.76 78.61 143.12 79.36 143.20 80.22 C 143.27 81.08 144.03 81.72 144.89 81.65 Z M 145.87 81.56 L 146.88 81.49 C 147.74 81.42 148.38 80.67 148.32 79.81 C 148.25 78.95 147.50 78.31 146.65 78.37 L 145.63 78.45 C 144.77 78.51 144.13 79.26 144.20 80.12 C 144.26 80.98 145.01 81.63 145.87 81.56 Z M 146.86 81.49 L 147.86 81.42 C 148.72 81.37 149.38 80.63 149.32 79.77 C 149.27 78.91 148.52 78.25 147.66 78.31 L 146.66 78.37 C 145.80 78.43 145.15 79.17 145.20 80.03 C 145.26 80.89 146.00 81.54 146.86 81.49 Z M 147.84 81.42 L 148.81 81.38 C 149.67 81.34 150.34 80.60 150.30 79.74 C 150.25 78.88 149.52 78.22 148.66 78.26 L 147.69 78.31 C 146.83 78.35 146.16 79.08 146.20 79.94 C 146.24 80.80 146.98 81.47 147.84 81.42 Z M 148.78 81.38 L 149.82 81.35 C 150.68 81.32 151.36 80.60 151.33 79.74 C 151.31 78.88 150.59 78.20 149.72 78.23 L 148.69 78.26 C 147.83 78.28 147.15 79.00 147.18 79.86 C 147.20 80.73 147.92 81.40 148.78 81.38 Z M 149.79 81.35 L 150.79 81.34 C 151.65 81.32 152.34 80.62 152.33 79.75 C 152.32 78.89 151.61 78.20 150.75 78.21 L 149.75 78.23 C 148.89 78.24 148.20 78.95 148.21 79.81 C 148.22 80.67 148.93 81.36 149.79 81.35 Z M 150.78 81.34 L 151.75 81.33 C 152.62 81.33 153.31 80.63 153.31 79.77 C 153.31 78.90 152.61 78.21 151.74 78.21 L 150.76 78.21 C 149.90 78.22 149.21 78.92 149.21 79.78 C 149.21 80.64 149.91 81.34 150.78 81.34 Z M 151.75 81.33 L 152.71 81.33 C 153.57 81.33 154.27 80.63 154.27 79.77 C 154.27 78.91 153.57 78.21 152.71 78.21 L 151.75 78.21 C 150.89 78.21 150.19 78.91 150.19 79.77 C 150.19 80.63 150.89 81.33 151.75 81.33 Z M 152.71 81.33 L 153.68 81.33 C 154.54 81.33 155.24 80.63 155.24 79.77 C 155.24 78.91 154.54 78.21 153.68 78.21 L 152.71 78.21 C 151.85 78.21 151.15 78.91 151.15 79.77 C 151.15 80.63 151.85 81.33 152.71 81.33 Z M 153.68 81.33 L 154.68 81.33 C 155.55 81.33 156.25 80.63 156.25 79.77 C 156.25 78.91 155.55 78.21 154.68 78.21 L 153.68 78.21 C 152.82 78.21 152.12 78.91 152.12 79.77 C 152.12 80.63 152.82 81.33 153.68 81.33 Z M 154.68 81.33 L 155.72 81.33 C 156.59 81.33 157.28 80.63 157.28 79.77 C 157.28 78.91 156.59 78.21 155.72 78.21 L 154.68 78.21 C 153.82 78.21 153.12 78.91 153.12 79.77 C 153.12 80.63 153.82 81.33 154.68 81.33 Z M 155.72 81.33 L 156.66 81.34 C 157.52 81.34 158.22 80.64 158.22 79.78 C 158.23 78.92 157.53 78.22 156.67 78.21 L 155.73 78.21 C 154.87 78.21 154.16 78.90 154.16 79.77 C 154.16 80.63 154.86 81.33 155.72 81.33 Z M 156.63 81.34 L 157.62 81.35 C 158.48 81.37 159.19 80.68 159.21 79.82 C 159.23 78.96 158.54 78.25 157.68 78.23 L 156.69 78.21 C 155.83 78.20 155.12 78.88 155.10 79.75 C 155.09 80.61 155.77 81.32 156.63 81.34 Z M 157.58 81.35 L 158.60 81.40 C 159.47 81.44 160.20 80.77 160.23 79.91 C 160.27 79.05 159.61 78.32 158.74 78.28 L 157.72 78.23 C 156.86 78.19 156.13 78.86 156.09 79.72 C 156.05 80.58 156.72 81.31 157.58 81.35 Z M 158.55 81.39 L 159.60 81.48 C 160.46 81.55 161.21 80.91 161.28 80.05 C 161.36 79.20 160.72 78.44 159.86 78.37 L 158.80 78.28 C 157.94 78.21 157.19 78.85 157.12 79.71 C 157.05 80.57 157.69 81.32 158.55 81.39 Z M 159.54 81.48 L 160.49 81.59 C 161.35 81.70 162.13 81.09 162.23 80.24 C 162.34 79.38 161.73 78.60 160.88 78.50 L 159.92 78.38 C 159.07 78.27 158.29 78.88 158.18 79.73 C 158.07 80.59 158.68 81.37 159.54 81.48 Z M 160.44 81.59 L 161.41 81.74 C 162.26 81.88 163.06 81.30 163.19 80.45 C 163.33 79.60 162.75 78.80 161.90 78.66 L 160.93 78.50 C 160.08 78.37 159.28 78.95 159.14 79.80 C 159.01 80.65 159.59 81.45 160.44 81.59 Z M 161.37 81.74 L 162.35 81.92 C 163.20 82.08 164.01 81.52 164.17 80.67 C 164.33 79.82 163.77 79.01 162.92 78.85 L 161.94 78.67 C 161.09 78.51 160.28 79.07 160.12 79.91 C 159.96 80.76 160.52 81.58 161.37 81.74 Z M 162.32 81.91 L 163.33 82.12 C 164.17 82.29 165.00 81.75 165.17 80.90 C 165.34 80.06 164.80 79.23 163.96 79.06 L 162.95 78.86 C 162.11 78.68 161.28 79.23 161.11 80.07 C 160.94 80.91 161.48 81.74 162.32 81.91 Z M 163.31 82.12 L 164.29 82.33 C 165.14 82.51 165.97 81.98 166.15 81.13 C 166.33 80.29 165.80 79.46 164.96 79.28 L 163.97 79.06 C 163.13 78.88 162.30 79.42 162.12 80.26 C 161.93 81.10 162.47 81.93 163.31 82.12 Z M 164.28 82.33 L 165.18 82.53 C 166.02 82.72 166.86 82.19 167.04 81.35 C 167.23 80.51 166.70 79.67 165.86 79.48 L 164.97 79.28 C 164.13 79.09 163.29 79.62 163.10 80.46 C 162.91 81.30 163.44 82.14 164.28 82.33 Z M 165.16 82.52 L 166.08 82.74 C 166.92 82.94 167.76 82.42 167.96 81.58 C 168.16 80.74 167.64 79.90 166.80 79.70 L 165.88 79.49 C 165.04 79.29 164.20 79.81 164.00 80.65 C 163.80 81.49 164.32 82.33 165.16 82.52 Z M 166.06 82.74 L 167.02 82.98 C 167.86 83.19 168.70 82.68 168.92 81.84 C 169.13 81.01 168.62 80.16 167.78 79.95 L 166.82 79.71 C 165.99 79.50 165.14 80.01 164.93 80.84 C 164.72 81.68 165.23 82.53 166.06 82.74 Z M 166.99 82.97 L 168.00 83.24 C 168.83 83.47 169.69 82.97 169.91 82.14 C 170.14 81.31 169.64 80.45 168.81 80.23 L 167.81 79.96 C 166.98 79.73 166.12 80.22 165.89 81.06 C 165.67 81.89 166.16 82.75 166.99 82.97 Z M 167.97 83.23 L 169.03 83.54 C 169.86 83.78 170.72 83.31 170.96 82.48 C 171.20 81.65 170.73 80.78 169.90 80.54 L 168.84 80.24 C 168.01 79.99 167.15 80.47 166.91 81.30 C 166.66 82.13 167.14 82.99 167.97 83.23 Z M 169.00 83.53 L 169.97 83.83 C 170.79 84.09 171.66 83.63 171.92 82.81 C 172.18 81.98 171.72 81.11 170.89 80.85 L 169.93 80.55 C 169.10 80.30 168.23 80.76 167.97 81.58 C 167.72 82.40 168.18 83.28 169.00 83.53 Z M 169.94 83.83 L 170.90 84.14 C 171.72 84.41 172.61 83.96 172.87 83.14 C 173.14 82.32 172.69 81.44 171.88 81.17 L 170.91 80.86 C 170.09 80.59 169.21 81.04 168.94 81.86 C 168.68 82.68 169.12 83.56 169.94 83.83 Z M 170.89 84.13 L 171.86 84.47 C 172.68 84.75 173.56 84.31 173.84 83.49 C 174.12 82.68 173.69 81.79 172.87 81.51 L 171.89 81.18 C 171.08 80.90 170.19 81.34 169.91 82.15 C 169.63 82.97 170.07 83.86 170.89 84.13 Z M 171.84 84.46 L 172.82 84.81 C 173.63 85.09 174.52 84.67 174.81 83.86 C 175.10 83.04 174.67 82.15 173.86 81.86 L 172.89 81.52 C 172.07 81.23 171.18 81.66 170.89 82.47 C 170.61 83.28 171.03 84.17 171.84 84.46 Z M 172.80 84.80 L 173.76 85.15 C 174.57 85.45 175.46 85.03 175.76 84.22 C 176.06 83.41 175.64 82.51 174.83 82.22 L 173.88 81.87 C 173.07 81.57 172.17 81.99 171.87 82.80 C 171.58 83.61 171.99 84.50 172.80 84.80 Z M 173.74 85.14 L 174.66 85.49 C 175.46 85.79 176.37 85.39 176.67 84.58 C 176.97 83.77 176.57 82.87 175.76 82.57 L 174.84 82.22 C 174.04 81.92 173.14 82.33 172.83 83.13 C 172.53 83.94 172.93 84.84 173.74 85.14 Z M 174.64 85.48 L 175.57 85.84 C 176.37 86.16 177.27 85.76 177.59 84.96 C 177.90 84.16 177.51 83.25 176.70 82.94 L 175.78 82.58 C 174.97 82.26 174.07 82.66 173.76 83.46 C 173.44 84.26 173.84 85.17 174.64 85.48 Z M 175.54 85.84 L 176.60 86.27 C 177.40 86.59 178.31 86.21 178.63 85.41 C 178.96 84.61 178.57 83.70 177.78 83.37 L 176.72 82.94 C 175.93 82.62 175.01 83.00 174.69 83.80 C 174.36 84.60 174.75 85.51 175.54 85.84 Z M 176.57 86.25 L 177.52 86.66 C 178.32 87.00 179.23 86.64 179.57 85.85 C 179.92 85.05 179.55 84.14 178.76 83.80 L 177.80 83.39 C 177.01 83.05 176.09 83.41 175.75 84.20 C 175.41 85.00 175.78 85.91 176.57 86.25 Z M 177.50 86.65 L 178.37 87.05 C 179.15 87.41 180.08 87.06 180.44 86.27 C 180.79 85.49 180.45 84.56 179.66 84.21 L 178.79 83.81 C 178.00 83.45 177.08 83.80 176.72 84.58 C 176.36 85.37 176.71 86.29 177.50 86.65 Z M 178.34 87.03 L 179.16 87.43 C 179.93 87.80 180.87 87.47 181.24 86.69 C 181.61 85.92 181.28 84.98 180.51 84.61 L 179.69 84.22 C 178.91 83.85 177.98 84.17 177.61 84.95 C 177.23 85.73 177.56 86.66 178.34 87.03 Z M 179.13 87.41 L 179.94 87.82 C 180.71 88.21 181.65 87.90 182.04 87.13 C 182.43 86.37 182.12 85.43 181.35 85.04 L 180.54 84.63 C 179.77 84.24 178.83 84.54 178.44 85.31 C 178.05 86.08 178.36 87.02 179.13 87.41 Z M 179.91 87.81 L 180.78 88.27 C 181.54 88.68 182.48 88.39 182.89 87.63 C 183.29 86.87 183.01 85.92 182.25 85.52 L 181.38 85.05 C 180.62 84.65 179.67 84.93 179.27 85.69 C 178.86 86.46 179.15 87.40 179.91 87.81 Z M 180.74 88.25 L 181.60 88.73 C 182.35 89.16 183.30 88.90 183.72 88.15 C 184.15 87.40 183.89 86.44 183.14 86.02 L 182.28 85.53 C 181.53 85.11 180.58 85.37 180.15 86.12 C 179.73 86.87 179.99 87.83 180.74 88.25 Z M 181.56 88.71 L 182.42 89.23 C 183.16 89.67 184.12 89.43 184.56 88.70 C 185.01 87.96 184.77 87.00 184.03 86.55 L 183.17 86.04 C 182.43 85.59 181.47 85.83 181.03 86.57 C 180.58 87.31 180.82 88.27 181.56 88.71 Z M 182.39 89.21 L 183.26 89.77 C 183.99 90.23 184.96 90.01 185.42 89.28 C 185.88 88.56 185.66 87.59 184.94 87.13 L 184.06 86.57 C 183.33 86.11 182.37 86.33 181.91 87.06 C 181.44 87.78 181.66 88.75 182.39 89.21 Z M 183.24 89.75 L 184.08 90.31 C 184.80 90.79 185.77 90.59 186.24 89.87 C 186.72 89.15 186.53 88.19 185.81 87.71 L 184.96 87.15 C 184.25 86.67 183.28 86.86 182.80 87.58 C 182.32 88.30 182.52 89.27 183.24 89.75 Z M 184.06 90.29 L 184.90 90.88 C 185.61 91.37 186.59 91.19 187.08 90.48 C 187.57 89.77 187.39 88.80 186.68 88.31 L 185.83 87.72 C 185.12 87.23 184.15 87.41 183.66 88.12 C 183.17 88.83 183.35 89.80 184.06 90.29 Z M 184.88 90.86 L 185.71 91.46 C 186.41 91.96 187.39 91.80 187.89 91.10 C 188.39 90.40 188.23 89.42 187.53 88.92 L 186.70 88.33 C 186.00 87.82 185.03 87.98 184.52 88.69 C 184.02 89.39 184.18 90.36 184.88 90.86 Z M 185.69 91.44 L 186.47 92.02 C 187.16 92.54 188.14 92.39 188.65 91.70 C 189.17 91.01 189.02 90.03 188.33 89.52 L 187.55 88.94 C 186.86 88.42 185.88 88.56 185.37 89.26 C 184.85 89.95 185.00 90.93 185.69 91.44 Z M 186.44 92.00 L 187.22 92.61 C 187.90 93.14 188.89 93.02 189.42 92.34 C 189.95 91.66 189.82 90.68 189.14 90.15 L 188.36 89.54 C 187.68 89.01 186.70 89.13 186.17 89.81 C 185.64 90.49 185.76 91.47 186.44 92.00 Z M 187.19 92.58 L 187.95 93.22 C 188.61 93.77 189.60 93.68 190.15 93.01 C 190.70 92.35 190.61 91.37 189.95 90.82 L 189.18 90.18 C 188.52 89.63 187.53 89.72 186.98 90.38 C 186.43 91.05 186.52 92.03 187.19 92.58 Z M 187.91 93.18 L 188.63 93.82 C 189.27 94.40 190.25 94.34 190.83 93.70 C 191.40 93.06 191.35 92.07 190.71 91.49 L 189.99 90.85 C 189.35 90.28 188.36 90.33 187.78 90.98 C 187.21 91.62 187.26 92.60 187.91 93.18 Z M 188.59 93.79 L 189.31 94.48 C 189.93 95.07 190.92 95.05 191.51 94.43 C 192.11 93.81 192.09 92.82 191.47 92.22 L 190.75 91.53 C 190.12 90.93 189.14 90.96 188.54 91.58 C 187.94 92.20 187.96 93.19 188.59 93.79 Z M 189.28 94.45 L 189.94 95.11 C 190.55 95.73 191.53 95.73 192.15 95.12 C 192.76 94.51 192.76 93.53 192.15 92.91 L 191.50 92.25 C 190.89 91.64 189.90 91.63 189.29 92.24 C 188.68 92.85 188.67 93.84 189.28 94.45 Z M 189.92 95.09 L 190.58 95.78 C 191.17 96.41 192.16 96.43 192.79 95.84 C 193.41 95.24 193.43 94.25 192.84 93.63 L 192.18 92.94 C 191.58 92.31 190.59 92.29 189.97 92.88 C 189.35 93.48 189.32 94.47 189.92 95.09 Z M 190.56 95.76 L 191.24 96.51 C 191.82 97.14 192.81 97.18 193.45 96.60 C 194.08 96.02 194.12 95.03 193.54 94.40 L 192.86 93.65 C 192.27 93.02 191.29 92.97 190.65 93.56 C 190.02 94.14 189.97 95.13 190.56 95.76 Z M 191.22 96.48 L 191.91 97.27 C 192.48 97.92 193.47 97.98 194.11 97.41 C 194.76 96.84 194.82 95.85 194.26 95.21 L 193.56 94.42 C 192.99 93.77 192.01 93.71 191.36 94.28 C 190.71 94.85 190.65 95.83 191.22 96.48 Z M 191.89 97.24 L 192.57 98.05 C 193.12 98.71 194.11 98.80 194.77 98.24 C 195.43 97.69 195.51 96.70 194.96 96.04 L 194.28 95.23 C 193.72 94.57 192.74 94.49 192.08 95.04 C 191.42 95.60 191.33 96.58 191.89 97.24 Z M 192.55 98.03 L 193.16 98.79 C 193.70 99.46 194.68 99.57 195.35 99.03 C 196.03 98.49 196.13 97.50 195.59 96.83 L 194.98 96.07 C 194.44 95.40 193.46 95.29 192.79 95.83 C 192.11 96.37 192.01 97.35 192.55 98.03 Z M 193.14 98.77 L 193.75 99.55 C 194.28 100.23 195.26 100.35 195.94 99.82 C 196.62 99.29 196.74 98.31 196.21 97.63 L 195.61 96.85 C 195.08 96.17 194.10 96.05 193.42 96.58 C 192.74 97.11 192.61 98.09 193.14 98.77 Z M 193.74 99.54 L 194.35 100.33 C 194.88 101.02 195.86 101.15 196.54 100.62 C 197.23 100.10 197.36 99.12 196.83 98.43 L 196.22 97.64 C 195.70 96.96 194.72 96.83 194.03 97.35 C 193.35 97.88 193.22 98.86 193.74 99.54 Z M 194.35 100.33 L 194.96 101.14 C 195.49 101.82 196.47 101.95 197.15 101.43 C 197.84 100.91 197.97 99.93 197.45 99.24 L 196.83 98.44 C 196.31 97.75 195.33 97.62 194.64 98.14 C 193.96 98.67 193.83 99.65 194.35 100.33 Z M 194.97 101.14 L 195.59 101.95 C 196.12 102.64 197.10 102.76 197.78 102.24 C 198.47 101.71 198.59 100.73 198.07 100.05 L 197.44 99.24 C 196.92 98.55 195.94 98.43 195.25 98.95 C 194.57 99.48 194.44 100.46 194.97 101.14 Z M 195.60 101.96 L 196.25 102.78 C 196.78 103.46 197.76 103.58 198.44 103.05 C 199.12 102.52 199.23 101.54 198.70 100.86 L 198.06 100.04 C 197.53 99.36 196.55 99.24 195.87 99.77 C 195.19 100.30 195.07 101.29 195.60 101.96 Z M 196.25 102.79 L 196.90 103.61 C 197.44 104.28 198.42 104.39 199.09 103.86 C 199.77 103.32 199.88 102.34 199.34 101.66 L 198.70 100.85 C 198.16 100.17 197.18 100.06 196.50 100.60 C 195.83 101.14 195.72 102.12 196.25 102.79 Z M 196.90 103.61 L 197.54 104.40 C 198.08 105.08 199.06 105.19 199.73 104.65 C 200.41 104.11 200.51 103.13 199.98 102.45 L 199.34 101.66 C 198.80 100.99 197.82 100.88 197.15 101.41 C 196.47 101.95 196.36 102.94 196.90 103.61 Z M 197.54 104.40 L 198.15 105.17 C 198.69 105.84 199.67 105.95 200.34 105.42 C 201.02 104.88 201.13 103.90 200.59 103.22 L 199.98 102.45 C 199.44 101.78 198.46 101.67 197.78 102.21 C 197.11 102.75 197.00 103.73 197.54 104.40 Z M 198.14 105.16 L 198.72 105.89 C 199.25 106.57 200.24 106.68 200.91 106.15 C 201.59 105.61 201.70 104.63 201.17 103.95 L 200.59 103.23 C 200.06 102.55 199.08 102.44 198.40 102.97 C 197.72 103.51 197.61 104.49 198.14 105.16 Z M 198.71 105.88 L 199.34 106.69 C 199.86 107.37 200.84 107.50 201.53 106.97 C 202.21 106.44 202.33 105.46 201.81 104.78 L 201.18 103.97 C 200.65 103.29 199.67 103.16 198.99 103.69 C 198.31 104.22 198.18 105.20 198.71 105.88 Z M 199.32 106.67 L 199.91 107.46 C 200.43 108.14 201.41 108.28 202.10 107.76 C 202.79 107.25 202.93 106.27 202.41 105.58 L 201.82 104.80 C 201.30 104.11 200.32 103.97 199.63 104.49 C 198.94 105.00 198.81 105.98 199.32 106.67 Z M 199.90 107.44 L 200.47 108.22 C 200.98 108.92 201.96 109.07 202.65 108.56 C 203.35 108.05 203.50 107.07 202.99 106.38 L 202.42 105.59 C 201.91 104.90 200.93 104.75 200.24 105.26 C 199.54 105.77 199.39 106.74 199.90 107.44 Z M 200.46 108.21 L 201.05 109.02 C 201.55 109.72 202.53 109.88 203.23 109.38 C 203.93 108.88 204.09 107.90 203.59 107.20 L 203.00 106.39 C 202.50 105.69 201.52 105.53 200.82 106.03 C 200.12 106.53 199.96 107.51 200.46 108.21 Z M 201.04 109.02 L 201.62 109.83 C 202.12 110.53 203.10 110.70 203.80 110.20 C 204.50 109.70 204.67 108.73 204.17 108.02 L 203.59 107.21 C 203.09 106.51 202.12 106.34 201.41 106.84 C 200.71 107.34 200.55 108.31 201.04 109.02 Z M 201.62 109.82 L 202.20 110.66 C 202.70 111.37 203.67 111.54 204.38 111.04 C 205.08 110.55 205.25 109.57 204.76 108.87 L 204.17 108.03 C 203.68 107.33 202.70 107.15 202.00 107.65 C 201.29 108.15 201.12 109.12 201.62 109.82 Z M 202.20 110.65 L 202.79 111.50 C 203.28 112.21 204.25 112.39 204.96 111.90 C 205.67 111.41 205.84 110.43 205.35 109.73 L 204.77 108.88 C 204.28 108.17 203.30 107.99 202.59 108.48 C 201.88 108.97 201.71 109.94 202.20 110.65 Z M 202.78 111.49 L 203.34 112.33 C 203.83 113.04 204.80 113.23 205.51 112.74 C 206.23 112.26 206.41 111.29 205.93 110.57 L 205.36 109.74 C 204.88 109.02 203.91 108.84 203.19 109.32 C 202.48 109.80 202.29 110.78 202.78 111.49 Z M 203.33 112.31 L 203.86 113.11 C 204.33 113.83 205.30 114.03 206.02 113.56 C 206.74 113.08 206.94 112.11 206.47 111.39 L 205.94 110.59 C 205.47 109.87 204.50 109.67 203.78 110.15 C 203.06 110.62 202.86 111.59 203.33 112.31 Z M 203.84 113.08 L 204.43 114.02 C 204.89 114.75 205.85 114.97 206.58 114.51 C 207.31 114.06 207.53 113.09 207.08 112.36 L 206.49 111.42 C 206.03 110.69 205.06 110.47 204.33 110.93 C 203.60 111.39 203.38 112.35 203.84 113.08 Z M 204.41 113.98 L 204.91 114.84 C 205.35 115.58 206.31 115.83 207.05 115.39 C 207.79 114.96 208.04 114.00 207.60 113.26 L 207.10 112.40 C 206.66 111.66 205.71 111.41 204.96 111.85 C 204.22 112.28 203.97 113.24 204.41 113.98 Z M 204.89 114.80 L 205.34 115.62 C 205.75 116.37 206.70 116.65 207.46 116.23 C 208.22 115.82 208.49 114.87 208.07 114.11 L 207.63 113.30 C 207.21 112.54 206.26 112.27 205.50 112.68 C 204.75 113.10 204.47 114.05 204.89 114.80 Z M 205.32 115.59 L 205.76 116.42 C 206.15 117.19 207.10 117.48 207.86 117.09 C 208.63 116.69 208.92 115.75 208.53 114.98 L 208.09 114.15 C 207.69 113.38 206.75 113.08 205.99 113.48 C 205.22 113.88 204.92 114.82 205.32 115.59 Z M 205.74 116.39 L 206.18 117.27 C 206.56 118.05 207.49 118.36 208.27 117.98 C 209.04 117.60 209.36 116.66 208.98 115.89 L 208.54 115.01 C 208.16 114.24 207.22 113.92 206.45 114.30 C 205.68 114.68 205.36 115.62 205.74 116.39 Z M 206.16 117.24 L 206.59 118.15 C 206.95 118.94 207.88 119.27 208.66 118.91 C 209.45 118.54 209.78 117.61 209.42 116.83 L 208.99 115.92 C 208.62 115.14 207.70 114.80 206.91 115.17 C 206.13 115.53 205.80 116.46 206.16 117.24 Z M 206.58 118.12 L 206.99 119.06 C 207.34 119.85 208.26 120.21 209.05 119.86 C 209.84 119.51 210.19 118.58 209.85 117.80 L 209.43 116.86 C 209.08 116.07 208.16 115.72 207.37 116.07 C 206.58 116.41 206.23 117.34 206.58 118.12 Z M 206.98 119.03 L 207.36 119.94 C 207.69 120.74 208.61 121.11 209.40 120.78 C 210.20 120.45 210.57 119.53 210.24 118.74 L 209.86 117.83 C 209.52 117.03 208.61 116.66 207.81 116.99 C 207.02 117.32 206.64 118.24 206.98 119.03 Z M 207.35 119.91 L 207.72 120.85 C 208.03 121.65 208.94 122.04 209.74 121.72 C 210.55 121.40 210.94 120.50 210.62 119.69 L 210.25 118.76 C 209.93 117.96 209.03 117.57 208.22 117.89 C 207.42 118.21 207.03 119.11 207.35 119.91 Z M 207.71 120.82 L 208.06 121.76 C 208.36 122.57 209.26 122.98 210.07 122.68 C 210.88 122.38 211.29 121.48 210.98 120.67 L 210.63 119.72 C 210.33 118.92 209.43 118.51 208.62 118.81 C 207.81 119.11 207.40 120.01 207.71 120.82 Z M 208.05 121.73 L 208.38 122.68 C 208.67 123.50 209.56 123.93 210.37 123.64 C 211.18 123.36 211.61 122.47 211.33 121.65 L 210.99 120.70 C 210.71 119.89 209.82 119.46 209.01 119.74 C 208.19 120.03 207.76 120.92 208.05 121.73 Z M 208.37 122.65 L 208.68 123.61 C 208.95 124.43 209.83 124.87 210.65 124.61 C 211.47 124.34 211.92 123.46 211.65 122.64 L 211.34 121.68 C 211.07 120.86 210.19 120.42 209.37 120.68 C 208.55 120.95 208.10 121.83 208.37 122.65 Z M 208.67 123.58 L 208.96 124.53 C 209.21 125.36 210.08 125.82 210.91 125.57 C 211.73 125.32 212.20 124.45 211.95 123.63 L 211.66 122.67 C 211.41 121.85 210.54 121.38 209.71 121.63 C 208.89 121.88 208.42 122.75 208.67 123.58 Z M 208.95 124.50 L 209.22 125.46 C 209.45 126.29 210.31 126.77 211.14 126.54 C 211.97 126.31 212.46 125.45 212.23 124.62 L 211.96 123.66 C 211.73 122.83 210.87 122.34 210.04 122.58 C 209.21 122.81 208.72 123.67 208.95 124.50 Z M 209.21 125.42 L 209.46 126.39 C 209.67 127.23 210.52 127.73 211.36 127.52 C 212.19 127.30 212.70 126.45 212.48 125.62 L 212.24 124.65 C 212.02 123.81 211.17 123.31 210.34 123.52 C 209.50 123.74 209.00 124.59 209.21 125.42 Z M 209.45 126.36 L 209.68 127.33 C 209.88 128.17 210.72 128.69 211.55 128.50 C 212.39 128.30 212.92 127.46 212.72 126.62 L 212.49 125.65 C 212.30 124.81 211.46 124.29 210.62 124.48 C 209.78 124.68 209.26 125.52 209.45 126.36 Z M 209.67 127.30 L 209.88 128.28 C 210.06 129.12 210.89 129.66 211.73 129.48 C 212.57 129.30 213.11 128.47 212.93 127.63 L 212.73 126.65 C 212.55 125.81 211.72 125.27 210.87 125.45 C 210.03 125.63 209.49 126.46 209.67 127.30 Z M 209.87 128.25 L 210.06 129.22 C 210.22 130.07 211.04 130.63 211.89 130.46 C 212.73 130.30 213.29 129.48 213.13 128.64 L 212.94 127.66 C 212.78 126.81 211.96 126.26 211.11 126.42 C 210.27 126.58 209.71 127.40 209.87 128.25 Z M 210.06 129.20 L 210.22 130.17 C 210.37 131.02 211.18 131.59 212.03 131.44 C 212.88 131.29 213.45 130.48 213.30 129.63 L 213.13 128.66 C 212.98 127.81 212.18 127.24 211.33 127.39 C 210.48 127.54 209.91 128.35 210.06 129.20 Z M 210.22 130.15 L 210.38 131.13 C 210.52 131.99 211.32 132.57 212.17 132.43 C 213.02 132.29 213.60 131.49 213.46 130.64 L 213.30 129.65 C 213.17 128.80 212.37 128.22 211.52 128.36 C 210.66 128.50 210.08 129.30 210.22 130.15 Z M 210.38 131.12 L 210.53 132.12 C 210.66 132.98 211.46 133.56 212.31 133.43 C 213.16 133.30 213.75 132.51 213.62 131.65 L 213.46 130.65 C 213.34 129.80 212.54 129.21 211.69 129.34 C 210.83 129.47 210.25 130.27 210.38 131.12 Z M 210.53 132.12 L 210.67 133.11 C 210.80 133.96 211.59 134.55 212.45 134.42 C 213.30 134.30 213.89 133.51 213.76 132.65 L 213.62 131.66 C 213.49 130.81 212.70 130.22 211.85 130.34 C 210.99 130.47 210.40 131.26 210.53 132.12 Z M 210.67 133.10 L 210.81 134.09 C 210.93 134.94 211.72 135.54 212.58 135.41 C 213.43 135.29 214.03 134.50 213.90 133.65 L 213.76 132.66 C 213.64 131.81 212.85 131.21 212.00 131.33 C 211.15 131.45 210.55 132.24 210.67 133.10 Z M 210.81 134.07 L 210.94 135.07 C 211.05 135.92 211.84 136.53 212.69 136.41 C 213.55 136.30 214.15 135.52 214.04 134.66 L 213.91 133.67 C 213.79 132.81 213.01 132.21 212.16 132.32 C 211.30 132.43 210.70 133.22 210.81 134.07 Z M 210.94 135.05 L 211.06 136.04 C 211.16 136.90 211.93 137.51 212.79 137.41 C 213.65 137.31 214.26 136.54 214.16 135.68 L 214.04 134.68 C 213.94 133.83 213.16 133.21 212.31 133.32 C 211.45 133.42 210.84 134.19 210.94 135.05 Z M 211.05 136.02 L 211.15 137.03 C 211.24 137.88 212.01 138.51 212.86 138.42 C 213.72 138.34 214.35 137.57 214.26 136.71 L 214.16 135.71 C 214.08 134.85 213.31 134.22 212.45 134.31 C 211.59 134.39 210.97 135.16 211.05 136.02 Z M 211.15 137.00 L 211.24 138.00 C 211.31 138.86 212.07 139.50 212.92 139.43 C 213.78 139.35 214.42 138.60 214.35 137.74 L 214.26 136.74 C 214.19 135.88 213.44 135.24 212.58 135.31 C 211.72 135.39 211.08 136.14 211.15 137.00 Z M 211.24 137.99 L 211.31 138.98 C 211.37 139.84 212.12 140.49 212.98 140.42 C 213.84 140.36 214.49 139.61 214.42 138.75 L 214.35 137.76 C 214.29 136.90 213.54 136.25 212.68 136.32 C 211.82 136.38 211.17 137.13 211.24 137.99 Z M 211.31 138.97 L 211.38 139.96 C 211.44 140.82 212.19 141.47 213.05 141.41 C 213.91 141.35 214.55 140.60 214.49 139.74 L 214.42 138.75 C 214.36 137.89 213.62 137.25 212.76 137.31 C 211.90 137.37 211.25 138.11 211.31 138.97 Z M 211.38 139.96 L 211.45 140.98 C 211.51 141.84 212.25 142.48 213.11 142.42 C 213.98 142.36 214.62 141.62 214.56 140.76 L 214.49 139.74 C 214.43 138.88 213.69 138.23 212.83 138.29 C 211.97 138.35 211.32 139.10 211.38 139.96 Z M 211.45 140.97 L 211.51 141.97 C 211.57 142.83 212.31 143.48 213.17 143.43 C 214.03 143.37 214.68 142.63 214.63 141.77 L 214.56 140.77 C 214.51 139.91 213.77 139.25 212.91 139.31 C 212.05 139.36 211.39 140.11 211.45 140.97 Z M 211.51 141.95 L 211.56 142.94 C 211.61 143.80 212.34 144.46 213.21 144.41 C 214.07 144.37 214.73 143.63 214.68 142.77 L 214.63 141.79 C 214.58 140.93 213.85 140.26 212.99 140.31 C 212.13 140.36 211.47 141.09 211.51 141.95 Z M 211.56 142.91 L 211.60 143.88 C 211.63 144.74 212.35 145.42 213.21 145.38 C 214.08 145.35 214.75 144.63 214.72 143.77 L 214.68 142.80 C 214.65 141.94 213.93 141.26 213.07 141.29 C 212.21 141.32 211.53 142.05 211.56 142.91 Z M 211.60 143.85 L 211.62 144.82 C 211.63 145.69 212.34 146.37 213.20 146.36 C 214.07 146.34 214.75 145.63 214.74 144.77 L 214.72 143.80 C 214.70 142.93 213.99 142.25 213.13 142.26 C 212.27 142.28 211.58 142.99 211.60 143.85 Z M 211.61 144.80 L 211.62 145.80 C 211.63 146.66 212.33 147.36 213.19 147.35 C 214.05 147.35 214.75 146.64 214.74 145.78 L 214.74 144.78 C 214.73 143.92 214.03 143.23 213.17 143.23 C 212.30 143.24 211.61 143.94 211.61 144.80 Z M 211.62 145.79 L 211.62 146.84 C 211.62 147.70 212.32 148.40 213.18 148.40 C 214.05 148.40 214.75 147.70 214.74 146.84 L 214.74 145.79 C 214.74 144.93 214.04 144.23 213.18 144.23 C 212.32 144.23 211.62 144.93 211.62 145.79 Z M 211.62 146.83 L 211.62 147.75 C 211.62 148.61 212.31 149.31 213.17 149.31 C 214.04 149.32 214.74 148.62 214.74 147.76 L 214.74 146.84 C 214.75 145.98 214.05 145.28 213.19 145.28 C 212.33 145.27 211.63 145.97 211.62 146.83 Z M 211.62 147.72 L 211.60 148.68 C 211.58 149.55 212.26 150.26 213.12 150.28 C 213.99 150.30 214.70 149.62 214.72 148.75 L 214.74 147.79 C 214.76 146.92 214.08 146.21 213.22 146.19 C 212.35 146.17 211.64 146.85 211.62 147.72 Z M 211.60 148.63 L 211.54 149.65 C 211.49 150.51 212.15 151.25 213.01 151.29 C 213.87 151.34 214.61 150.69 214.66 149.82 L 214.72 148.81 C 214.77 147.95 214.11 147.21 213.25 147.16 C 212.39 147.11 211.65 147.77 211.60 148.63 Z M 211.55 149.57 L 211.44 150.64 C 211.35 151.49 211.97 152.26 212.83 152.35 C 213.68 152.44 214.45 151.82 214.54 150.96 L 214.65 149.90 C 214.74 149.04 214.12 148.27 213.26 148.18 C 212.41 148.09 211.64 148.72 211.55 149.57 Z M 211.45 150.55 L 211.29 151.53 C 211.15 152.38 211.73 153.18 212.58 153.32 C 213.44 153.45 214.24 152.87 214.37 152.02 L 214.53 151.05 C 214.67 150.20 214.09 149.40 213.24 149.26 C 212.39 149.12 211.59 149.70 211.45 150.55 Z M 211.31 151.45 L 211.11 152.39 C 210.93 153.23 211.46 154.06 212.31 154.24 C 213.15 154.42 213.98 153.88 214.16 153.04 L 214.36 152.10 C 214.54 151.26 214.00 150.43 213.16 150.25 C 212.31 150.07 211.48 150.61 211.31 151.45 Z M 211.12 152.33 L 210.87 153.29 C 210.66 154.12 211.16 154.97 211.99 155.19 C 212.83 155.40 213.68 154.90 213.90 154.07 L 214.14 153.11 C 214.36 152.27 213.86 151.42 213.02 151.20 C 212.19 150.99 211.34 151.49 211.12 152.33 Z M 210.89 153.23 L 210.59 154.20 C 210.35 155.03 210.81 155.90 211.64 156.15 C 212.46 156.40 213.33 155.93 213.58 155.10 L 213.88 154.13 C 214.13 153.30 213.66 152.43 212.83 152.18 C 212.01 151.93 211.14 152.40 210.89 153.23 Z M 210.61 154.15 L 210.28 155.13 C 210.00 155.95 210.43 156.83 211.25 157.11 C 212.06 157.39 212.95 156.96 213.23 156.14 L 213.57 155.16 C 213.85 154.34 213.41 153.46 212.60 153.18 C 211.78 152.90 210.89 153.33 210.61 154.15 Z M 210.29 155.08 L 209.92 156.05 C 209.62 156.85 210.02 157.75 210.83 158.06 C 211.63 158.37 212.53 157.97 212.84 157.16 L 213.21 156.19 C 213.52 155.39 213.11 154.49 212.31 154.18 C 211.50 153.87 210.60 154.27 210.29 155.08 Z M 209.94 156.00 L 209.55 156.94 C 209.22 157.74 209.59 158.65 210.39 158.98 C 211.18 159.32 212.10 158.94 212.43 158.14 L 212.82 157.21 C 213.16 156.41 212.78 155.50 211.98 155.16 C 211.19 154.83 210.27 155.21 209.94 156.00 Z M 209.57 156.90 L 209.15 157.83 C 208.80 158.62 209.15 159.54 209.93 159.89 C 210.72 160.25 211.65 159.90 212.00 159.11 L 212.41 158.18 C 212.77 157.39 212.42 156.47 211.63 156.12 C 210.84 155.76 209.92 156.12 209.57 156.90 Z M 209.16 157.80 L 208.73 158.71 C 208.36 159.49 208.69 160.42 209.47 160.79 C 210.25 161.16 211.18 160.83 211.55 160.05 L 211.98 159.14 C 212.35 158.36 212.02 157.43 211.25 157.06 C 210.47 156.69 209.54 157.02 209.16 157.80 Z M 208.74 158.68 L 208.30 159.57 C 207.91 160.34 208.23 161.28 209.00 161.66 C 209.77 162.05 210.71 161.74 211.09 160.97 L 211.54 160.08 C 211.92 159.31 211.61 158.37 210.84 157.98 C 210.07 157.60 209.13 157.91 208.74 158.68 Z M 208.31 159.54 L 207.87 160.39 C 207.47 161.16 207.76 162.10 208.53 162.50 C 209.29 162.90 210.23 162.61 210.63 161.84 L 211.08 160.99 C 211.48 160.23 211.18 159.28 210.42 158.88 C 209.66 158.48 208.71 158.78 208.31 159.54 Z M 207.88 160.37 L 207.35 161.34 C 206.94 162.10 207.22 163.05 207.97 163.46 C 208.73 163.87 209.68 163.59 210.09 162.84 L 210.62 161.87 C 211.03 161.11 210.75 160.16 210.00 159.75 C 209.24 159.34 208.29 159.61 207.88 160.37 Z M 207.36 161.32 L 206.84 162.23 C 206.42 162.98 206.68 163.93 207.43 164.36 C 208.18 164.79 209.13 164.53 209.56 163.78 L 210.08 162.86 C 210.50 162.11 210.24 161.16 209.49 160.73 C 208.74 160.31 207.79 160.57 207.36 161.32 Z M 206.86 162.21 L 206.35 163.06 C 205.91 163.80 206.15 164.76 206.90 165.20 C 207.64 165.64 208.59 165.39 209.04 164.65 L 209.54 163.80 C 209.98 163.06 209.74 162.10 209.00 161.66 C 208.26 161.22 207.30 161.46 206.86 162.21 Z M 206.37 163.03 L 205.88 163.82 C 205.42 164.55 205.65 165.51 206.38 165.97 C 207.11 166.42 208.08 166.20 208.53 165.47 L 209.02 164.68 C 209.47 163.95 209.25 162.98 208.52 162.53 C 207.78 162.07 206.82 162.30 206.37 163.03 Z M 205.90 163.79 L 205.37 164.61 C 204.90 165.33 205.10 166.30 205.82 166.77 C 206.55 167.24 207.51 167.03 207.98 166.31 L 208.51 165.49 C 208.98 164.77 208.78 163.80 208.06 163.33 C 207.33 162.86 206.37 163.07 205.90 163.79 Z M 205.39 164.58 L 204.79 165.44 C 204.31 166.15 204.49 167.12 205.20 167.61 C 205.91 168.10 206.88 167.92 207.37 167.20 L 207.96 166.34 C 208.45 165.63 208.27 164.66 207.56 164.17 C 206.85 163.68 205.87 163.86 205.39 164.58 Z M 204.81 165.41 L 204.25 166.20 C 203.75 166.90 203.91 167.87 204.61 168.38 C 205.31 168.88 206.28 168.72 206.78 168.02 L 207.35 167.23 C 207.85 166.53 207.69 165.56 206.99 165.05 C 206.29 164.55 205.32 164.71 204.81 165.41 Z M 204.26 166.18 L 203.71 166.93 C 203.20 167.62 203.35 168.60 204.04 169.11 C 204.73 169.62 205.71 169.47 206.22 168.78 L 206.77 168.04 C 207.29 167.34 207.14 166.36 206.44 165.85 C 205.75 165.34 204.77 165.49 204.26 166.18 Z M 203.72 166.92 L 203.24 167.55 C 202.73 168.24 202.87 169.22 203.56 169.74 C 204.25 170.25 205.23 170.11 205.75 169.42 L 206.22 168.79 C 206.73 168.10 206.59 167.12 205.90 166.60 C 205.21 166.09 204.23 166.23 203.72 166.92 Z M 203.26 167.53 L 202.72 168.22 C 202.20 168.91 202.32 169.89 203.00 170.41 C 203.69 170.94 204.67 170.82 205.19 170.13 L 205.73 169.44 C 206.26 168.76 206.13 167.78 205.45 167.25 C 204.77 166.72 203.79 166.85 203.26 167.53 Z M 202.75 168.19 L 202.09 169.01 C 201.55 169.68 201.65 170.66 202.32 171.20 C 202.99 171.75 203.97 171.64 204.51 170.97 L 205.17 170.16 C 205.72 169.49 205.61 168.51 204.94 167.97 C 204.27 167.42 203.29 167.53 202.75 168.19 Z M 202.11 168.98 L 201.27 169.97 C 200.71 170.62 200.79 171.61 201.45 172.17 C 202.11 172.73 203.09 172.65 203.65 171.99 L 204.49 171.00 C 205.05 170.35 204.97 169.36 204.31 168.80 C 203.66 168.24 202.67 168.32 202.11 168.98 Z M 201.29 169.95 L 200.68 170.64 C 200.11 171.29 200.18 172.28 200.82 172.84 C 201.47 173.41 202.46 173.35 203.03 172.70 L 203.63 172.01 C 204.20 171.36 204.14 170.37 203.49 169.80 C 202.84 169.24 201.86 169.30 201.29 169.95 Z M 200.69 170.63 L 200.02 171.38 C 199.44 172.03 199.50 173.01 200.15 173.59 C 200.79 174.16 201.78 174.10 202.35 173.46 L 203.02 172.71 C 203.59 172.07 203.54 171.08 202.89 170.50 C 202.25 169.93 201.26 169.99 200.69 170.63 Z M 200.02 171.38 L 199.32 172.16 C 198.74 172.80 198.79 173.79 199.44 174.37 C 200.08 174.94 201.06 174.89 201.64 174.25 L 202.34 173.47 C 202.92 172.82 202.87 171.84 202.23 171.26 C 201.59 170.68 200.60 170.74 200.02 171.38 Z M 199.32 172.16 L 198.61 172.95 C 198.03 173.59 198.08 174.57 198.72 175.15 C 199.35 175.73 200.34 175.68 200.92 175.04 L 201.64 174.25 C 202.22 173.61 202.17 172.63 201.53 172.05 C 200.89 171.47 199.90 171.52 199.32 172.16 Z M 198.61 172.95 L 197.91 173.72 C 197.33 174.36 197.37 175.34 198.01 175.92 C 198.65 176.50 199.64 176.46 200.22 175.82 L 200.92 175.05 C 201.50 174.41 201.45 173.42 200.81 172.84 C 200.18 172.26 199.19 172.31 198.61 172.95 Z M 197.91 173.72 L 197.24 174.44 C 196.66 175.08 196.71 176.07 197.35 176.65 C 197.98 177.23 198.97 177.18 199.55 176.55 L 200.21 175.82 C 200.80 175.18 200.75 174.19 200.11 173.61 C 199.48 173.03 198.49 173.08 197.91 173.72 Z M 197.24 174.44 L 196.56 175.20 C 195.97 175.84 196.02 176.82 196.66 177.41 C 197.30 177.99 198.28 177.94 198.86 177.30 L 199.55 176.55 C 200.13 175.91 200.09 174.92 199.45 174.34 C 198.81 173.76 197.82 173.81 197.24 174.44 Z M 196.55 175.20 L 195.73 176.11 C 195.15 176.75 195.20 177.74 195.84 178.31 C 196.48 178.89 197.47 178.84 198.05 178.21 L 198.87 177.30 C 199.45 176.66 199.40 175.67 198.76 175.09 C 198.12 174.52 197.13 174.56 196.55 175.20 Z M 195.72 176.12 L 195.07 176.85 C 194.49 177.50 194.55 178.48 195.19 179.06 C 195.83 179.63 196.82 179.58 197.39 178.93 L 198.05 178.20 C 198.63 177.55 198.57 176.57 197.93 175.99 C 197.29 175.42 196.30 175.47 195.72 176.12 Z M 195.05 176.87 L 194.50 177.51 C 193.93 178.16 194.00 179.14 194.65 179.71 C 195.30 180.28 196.28 180.21 196.85 179.56 L 197.41 178.92 C 197.97 178.27 197.91 177.28 197.26 176.72 C 196.61 176.15 195.62 176.22 195.05 176.87 Z M 194.48 177.53 L 193.94 178.17 C 193.38 178.82 193.47 179.81 194.12 180.37 C 194.78 180.92 195.77 180.84 196.32 180.18 L 196.87 179.54 C 197.42 178.88 197.34 177.90 196.68 177.34 C 196.02 176.78 195.04 176.87 194.48 177.53 Z M 193.93 178.18 L 193.30 178.95 C 192.75 179.61 192.85 180.60 193.51 181.14 C 194.18 181.69 195.17 181.59 195.71 180.93 L 196.34 180.16 C 196.89 179.50 196.79 178.51 196.12 177.97 C 195.46 177.42 194.47 177.52 193.93 178.18 Z M 193.29 178.96 L 192.66 179.74 C 192.12 180.41 192.22 181.39 192.89 181.93 C 193.56 182.48 194.54 182.37 195.09 181.70 L 195.72 180.92 C 196.26 180.25 196.16 179.27 195.49 178.72 C 194.82 178.18 193.83 178.29 193.29 178.96 Z M 192.66 179.74 L 192.02 180.52 C 191.48 181.19 191.58 182.17 192.25 182.72 C 192.92 183.26 193.90 183.16 194.45 182.49 L 195.08 181.70 C 195.63 181.03 195.53 180.05 194.86 179.51 C 194.19 178.96 193.20 179.07 192.66 179.74 Z M 192.03 180.51 L 191.39 181.29 C 190.84 181.95 190.94 182.94 191.60 183.48 C 192.27 184.03 193.25 183.94 193.80 183.27 L 194.44 182.50 C 194.99 181.83 194.89 180.85 194.23 180.30 C 193.56 179.75 192.58 179.85 192.03 180.51 Z M 191.40 181.28 L 190.76 182.05 C 190.21 182.71 190.30 183.69 190.96 184.25 C 191.62 184.80 192.61 184.71 193.16 184.04 L 193.80 183.28 C 194.35 182.62 194.26 181.63 193.60 181.08 C 192.93 180.53 191.95 180.62 191.40 181.28 Z M 190.76 182.05 L 190.12 182.82 C 189.57 183.48 189.66 184.46 190.32 185.01 C 190.99 185.57 191.97 185.47 192.52 184.81 L 193.16 184.04 C 193.71 183.38 193.62 182.40 192.96 181.85 C 192.29 181.29 191.31 181.39 190.76 182.05 Z M 190.11 182.82 L 189.49 183.59 C 188.94 184.26 189.03 185.24 189.70 185.79 C 190.37 186.33 191.35 186.24 191.90 185.57 L 192.53 184.80 C 193.07 184.14 192.98 183.15 192.31 182.61 C 191.65 182.06 190.66 182.16 190.11 182.82 Z M 189.48 183.59 L 188.85 184.36 C 188.31 185.03 188.41 186.02 189.08 186.56 C 189.75 187.10 190.73 187.00 191.28 186.34 L 191.90 185.57 C 192.45 184.90 192.35 183.91 191.68 183.37 C 191.01 182.83 190.03 182.93 189.48 183.59 Z M 188.86 184.36 L 188.22 185.14 C 187.67 185.80 187.77 186.79 188.44 187.33 C 189.10 187.88 190.09 187.78 190.63 187.12 L 191.27 186.34 C 191.82 185.67 191.72 184.69 191.06 184.14 C 190.39 183.60 189.41 183.69 188.86 184.36 Z M 188.23 185.12 L 187.58 185.90 C 187.03 186.56 187.11 187.54 187.77 188.10 C 188.44 188.65 189.42 188.56 189.97 187.90 L 190.62 187.13 C 191.18 186.47 191.09 185.48 190.43 184.93 C 189.77 184.38 188.79 184.46 188.23 185.12 Z M 187.60 185.88 L 186.95 186.62 C 186.38 187.28 186.45 188.26 187.10 188.83 C 187.76 189.39 188.74 189.32 189.31 188.67 L 189.96 187.92 C 190.52 187.27 190.45 186.29 189.80 185.72 C 189.15 185.16 188.16 185.22 187.60 185.88 Z M 186.97 186.60 L 186.30 187.34 C 185.72 187.98 185.77 188.97 186.41 189.55 C 187.05 190.13 188.03 190.08 188.61 189.44 L 189.29 188.70 C 189.86 188.06 189.82 187.07 189.18 186.49 C 188.54 185.91 187.55 185.96 186.97 186.60 Z M 186.33 187.31 L 185.63 188.04 C 185.04 188.67 185.06 189.66 185.69 190.25 C 186.31 190.85 187.30 190.82 187.89 190.20 L 188.59 189.47 C 189.18 188.84 189.16 187.85 188.53 187.26 C 187.91 186.67 186.92 186.69 186.33 187.31 Z M 185.66 188.01 L 184.95 188.72 C 184.34 189.33 184.33 190.31 184.94 190.93 C 185.55 191.54 186.54 191.54 187.15 190.94 L 187.86 190.23 C 188.47 189.62 188.48 188.63 187.87 188.02 C 187.26 187.41 186.28 187.40 185.66 188.01 Z M 184.98 188.69 L 184.25 189.37 C 183.62 189.96 183.59 190.95 184.18 191.58 C 184.77 192.21 185.75 192.24 186.38 191.65 L 187.12 190.97 C 187.75 190.38 187.78 189.39 187.19 188.76 C 186.60 188.13 185.61 188.10 184.98 188.69 Z M 184.28 189.34 L 183.53 190.01 C 182.89 190.58 182.83 191.57 183.40 192.21 C 183.97 192.86 184.96 192.92 185.61 192.34 L 186.35 191.68 C 187.00 191.11 187.06 190.12 186.48 189.48 C 185.91 188.83 184.93 188.77 184.28 189.34 Z M 183.56 189.98 L 182.80 190.63 C 182.14 191.18 182.06 192.17 182.62 192.83 C 183.17 193.48 184.16 193.57 184.82 193.01 L 185.58 192.37 C 186.24 191.81 186.32 190.83 185.76 190.17 C 185.21 189.51 184.22 189.43 183.56 189.98 Z M 182.83 190.60 L 182.06 191.22 C 181.38 191.76 181.27 192.75 181.81 193.42 C 182.35 194.09 183.34 194.20 184.01 193.66 L 184.79 193.04 C 185.46 192.50 185.57 191.51 185.03 190.84 C 184.49 190.17 183.50 190.06 182.83 190.60 Z M 182.09 191.19 L 181.30 191.79 C 180.61 192.31 180.47 193.29 180.99 193.98 C 181.51 194.67 182.48 194.80 183.17 194.29 L 183.97 193.69 C 184.66 193.17 184.80 192.19 184.28 191.50 C 183.76 190.81 182.78 190.67 182.09 191.19 Z M 181.35 191.75 L 180.52 192.32 C 179.81 192.81 179.64 193.79 180.13 194.50 C 180.62 195.21 181.59 195.38 182.30 194.89 L 183.12 194.32 C 183.83 193.83 184.01 192.86 183.52 192.15 C 183.03 191.44 182.06 191.26 181.35 191.75 Z M 180.58 192.29 L 179.75 192.81 C 179.02 193.27 178.79 194.23 179.25 194.96 C 179.71 195.69 180.67 195.91 181.40 195.46 L 182.24 194.93 C 182.97 194.47 183.19 193.51 182.73 192.78 C 182.28 192.05 181.31 191.83 180.58 192.29 Z M 179.81 192.77 L 178.96 193.25 C 178.20 193.67 177.94 194.63 178.36 195.38 C 178.78 196.13 179.73 196.40 180.49 195.97 L 181.34 195.49 C 182.09 195.07 182.36 194.12 181.94 193.37 C 181.51 192.62 180.56 192.35 179.81 192.77 Z M 179.02 193.22 L 178.12 193.67 C 177.35 194.05 177.04 194.99 177.43 195.76 C 177.81 196.53 178.75 196.84 179.52 196.46 L 180.42 196.01 C 181.19 195.62 181.50 194.69 181.12 193.91 C 180.73 193.14 179.79 192.83 179.02 193.22 Z M 178.19 193.63 L 177.25 194.05 C 176.46 194.40 176.11 195.32 176.45 196.11 C 176.80 196.89 177.72 197.25 178.51 196.91 L 179.45 196.49 C 180.24 196.14 180.60 195.22 180.25 194.43 C 179.90 193.64 178.98 193.29 178.19 193.63 Z M 177.32 194.02 L 176.47 194.35 C 175.67 194.66 175.27 195.56 175.58 196.36 C 175.89 197.17 176.79 197.57 177.60 197.26 L 178.44 196.93 C 179.25 196.62 179.65 195.72 179.34 194.92 C 179.03 194.11 178.12 193.71 177.32 194.02 Z M 176.54 194.32 L 175.67 194.61 C 174.85 194.89 174.41 195.77 174.68 196.59 C 174.95 197.41 175.84 197.85 176.66 197.58 L 177.53 197.28 C 178.35 197.01 178.79 196.13 178.52 195.31 C 178.24 194.49 177.36 194.05 176.54 194.32 Z M 175.73 194.59 L 174.78 194.86 C 173.96 195.10 173.48 195.96 173.71 196.79 C 173.95 197.62 174.81 198.10 175.64 197.87 L 176.59 197.60 C 177.42 197.36 177.90 196.50 177.66 195.67 C 177.43 194.84 176.56 194.36 175.73 194.59 Z M 174.85 194.85 L 173.80 195.10 C 172.96 195.30 172.45 196.14 172.65 196.98 C 172.85 197.82 173.69 198.34 174.53 198.14 L 175.58 197.88 C 176.42 197.68 176.93 196.84 176.73 196.00 C 176.53 195.16 175.69 194.65 174.85 194.85 Z M 173.85 195.09 L 172.79 195.31 C 171.94 195.48 171.39 196.30 171.57 197.15 C 171.74 197.99 172.56 198.54 173.41 198.37 L 174.48 198.15 C 175.32 197.98 175.87 197.15 175.70 196.31 C 175.52 195.46 174.70 194.92 173.85 195.09 Z M 172.82 195.30 L 171.87 195.47 C 171.02 195.62 170.46 196.43 170.61 197.28 C 170.76 198.13 171.57 198.69 172.42 198.54 L 173.37 198.37 C 174.22 198.22 174.78 197.41 174.63 196.56 C 174.48 195.71 173.67 195.15 172.82 195.30 Z M 171.90 195.46 L 170.90 195.62 C 170.05 195.75 169.47 196.55 169.60 197.41 C 169.74 198.26 170.54 198.84 171.39 198.70 L 172.39 198.55 C 173.24 198.41 173.82 197.61 173.69 196.76 C 173.55 195.91 172.75 195.33 171.90 195.46 Z M 170.92 195.62 L 169.90 195.76 C 169.05 195.88 168.45 196.67 168.57 197.53 C 168.70 198.38 169.49 198.97 170.34 198.85 L 171.36 198.71 C 172.22 198.59 172.81 197.80 172.69 196.94 C 172.57 196.09 171.78 195.50 170.92 195.62 Z M 169.92 195.76 L 168.90 195.89 C 168.05 196.00 167.44 196.78 167.55 197.63 C 167.66 198.49 168.44 199.09 169.29 198.98 L 170.32 198.86 C 171.17 198.75 171.78 197.97 171.67 197.11 C 171.56 196.26 170.78 195.65 169.92 195.76 Z M 168.93 195.88 L 167.93 196.00 C 167.07 196.09 166.45 196.86 166.55 197.72 C 166.64 198.58 167.42 199.19 168.27 199.10 L 169.27 198.99 C 170.13 198.89 170.75 198.12 170.65 197.26 C 170.55 196.41 169.78 195.79 168.93 195.88 Z M 167.95 195.99 L 166.95 196.09 C 166.09 196.17 165.46 196.93 165.54 197.79 C 165.63 198.65 166.39 199.28 167.25 199.20 L 168.25 199.10 C 169.11 199.02 169.74 198.26 169.66 197.40 C 169.57 196.54 168.81 195.91 167.95 195.99 Z M 166.98 196.09 L 165.94 196.17 C 165.08 196.23 164.44 196.98 164.51 197.84 C 164.57 198.70 165.32 199.35 166.18 199.28 L 167.22 199.20 C 168.08 199.13 168.72 198.38 168.66 197.52 C 168.59 196.66 167.84 196.02 166.98 196.09 Z M 165.96 196.16 L 164.98 196.23 C 164.12 196.28 163.46 197.03 163.52 197.89 C 163.57 198.75 164.32 199.40 165.18 199.34 L 166.16 199.28 C 167.02 199.22 167.68 198.48 167.62 197.62 C 167.57 196.76 166.82 196.11 165.96 196.16 Z M 164.99 196.23 L 164.02 196.28 C 163.16 196.33 162.50 197.07 162.55 197.93 C 162.60 198.79 163.34 199.45 164.20 199.40 L 165.17 199.34 C 166.03 199.29 166.69 198.56 166.64 197.69 C 166.58 196.83 165.85 196.18 164.99 196.23 Z M 164.02 196.28 L 163.05 196.34 C 162.18 196.40 161.53 197.14 161.58 198.00 C 161.64 198.86 162.38 199.51 163.24 199.46 L 164.21 199.40 C 165.07 199.35 165.72 198.61 165.67 197.75 C 165.62 196.89 164.88 196.23 164.02 196.28 Z M 163.03 196.34 L 162.03 196.42 C 161.17 196.48 160.52 197.22 160.58 198.08 C 160.64 198.94 161.39 199.59 162.25 199.53 L 163.25 199.46 C 164.11 199.40 164.76 198.65 164.70 197.79 C 164.64 196.93 163.89 196.28 163.03 196.34 Z M 162.01 196.42 L 160.99 196.51 C 160.13 196.58 159.49 197.34 159.56 198.19 C 159.64 199.05 160.39 199.69 161.25 199.62 L 162.27 199.53 C 163.13 199.45 163.77 198.70 163.70 197.84 C 163.62 196.98 162.87 196.34 162.01 196.42 Z M 160.96 196.51 L 159.93 196.61 C 159.07 196.70 158.44 197.46 158.53 198.32 C 158.61 199.18 159.38 199.80 160.24 199.72 L 161.27 199.61 C 162.13 199.53 162.76 198.76 162.67 197.91 C 162.59 197.05 161.82 196.42 160.96 196.51 Z M 159.90 196.61 L 158.88 196.73 C 158.02 196.83 157.41 197.60 157.50 198.46 C 157.60 199.32 158.38 199.93 159.23 199.83 L 160.26 199.72 C 161.11 199.62 161.73 198.84 161.63 197.99 C 161.53 197.13 160.76 196.52 159.90 196.61 Z M 158.85 196.73 L 157.87 196.86 C 157.02 196.97 156.42 197.76 156.53 198.61 C 156.64 199.47 157.42 200.07 158.28 199.96 L 159.26 199.83 C 160.11 199.72 160.72 198.93 160.60 198.08 C 160.49 197.23 159.71 196.62 158.85 196.73 Z M 157.84 196.87 L 156.94 197.00 C 156.08 197.13 155.50 197.93 155.62 198.78 C 155.75 199.63 156.55 200.22 157.40 200.09 L 158.31 199.95 C 159.16 199.83 159.75 199.03 159.62 198.18 C 159.49 197.33 158.70 196.74 157.84 196.87 Z M 156.89 197.01 L 155.76 197.22 C 154.91 197.37 154.35 198.18 154.50 199.03 C 154.66 199.88 155.47 200.44 156.32 200.29 L 157.45 200.08 C 158.29 199.93 158.86 199.12 158.70 198.27 C 158.55 197.42 157.74 196.86 156.89 197.01 Z M 155.71 197.23 L 154.72 197.44 C 153.88 197.62 153.34 198.45 153.53 199.29 C 153.71 200.14 154.54 200.67 155.38 200.49 L 156.37 200.28 C 157.21 200.10 157.75 199.26 157.57 198.42 C 157.38 197.58 156.55 197.04 155.71 197.23 Z M 154.69 197.45 L 153.80 197.66 C 152.96 197.86 152.44 198.70 152.64 199.54 C 152.84 200.38 153.69 200.90 154.52 200.70 L 155.42 200.48 C 156.25 200.28 156.77 199.44 156.57 198.60 C 156.37 197.76 155.53 197.25 154.69 197.45 Z M 153.80 197.66 L 152.91 197.87 C 152.07 198.07 151.55 198.91 151.75 199.75 C 151.95 200.59 152.79 201.11 153.63 200.91 L 154.52 200.70 C 155.36 200.50 155.88 199.65 155.68 198.82 C 155.48 197.98 154.64 197.46 153.80 197.66 Z M 152.93 197.87 L 151.95 198.08 C 151.11 198.27 150.58 199.10 150.76 199.94 C 150.95 200.78 151.78 201.32 152.62 201.13 L 153.60 200.91 C 154.45 200.73 154.98 199.90 154.79 199.05 C 154.61 198.21 153.77 197.68 152.93 197.87 Z M 151.98 198.08 L 151.00 198.27 C 150.15 198.44 149.60 199.26 149.77 200.11 C 149.94 200.95 150.76 201.50 151.61 201.33 L 152.59 201.14 C 153.44 200.97 153.99 200.15 153.82 199.30 C 153.65 198.46 152.83 197.91 151.98 198.08 Z M 151.03 198.27 L 150.05 198.44 C 149.20 198.59 148.64 199.40 148.79 200.25 C 148.94 201.10 149.75 201.66 150.60 201.51 L 151.58 201.34 C 152.42 201.19 152.99 200.38 152.84 199.53 C 152.69 198.68 151.88 198.12 151.03 198.27 Z M 150.09 198.43 L 149.11 198.58 C 148.26 198.71 147.67 199.50 147.80 200.36 C 147.93 201.21 148.72 201.80 149.58 201.67 L 150.56 201.52 C 151.41 201.39 152.00 200.60 151.87 199.74 C 151.74 198.89 150.95 198.30 150.09 198.43 Z M 149.16 198.57 L 148.17 198.69 C 147.32 198.79 146.71 199.57 146.81 200.42 C 146.91 201.28 147.68 201.89 148.54 201.79 L 149.53 201.67 C 150.38 201.57 150.99 200.80 150.89 199.94 C 150.79 199.09 150.02 198.47 149.16 198.57 Z M 148.23 198.68 L 147.22 198.76 C 146.36 198.83 145.72 199.59 145.79 200.45 C 145.86 201.30 146.61 201.95 147.47 201.88 L 148.48 201.80 C 149.34 201.73 149.98 200.97 149.91 200.12 C 149.84 199.26 149.09 198.61 148.23 198.68 Z M 147.28 198.76 L 146.31 198.80 C 145.45 198.84 144.78 199.57 144.82 200.43 C 144.85 201.29 145.58 201.96 146.44 201.92 L 147.42 201.88 C 148.28 201.84 148.94 201.11 148.91 200.25 C 148.87 199.39 148.14 198.72 147.28 198.76 Z M 146.35 198.80 L 145.36 198.82 C 144.49 198.83 143.81 199.54 143.82 200.40 C 143.83 201.26 144.54 201.95 145.40 201.94 L 146.40 201.92 C 147.26 201.91 147.95 201.20 147.94 200.34 C 147.92 199.48 147.22 198.79 146.35 198.80 Z M 145.39 198.82 L 144.37 198.81 C 143.51 198.81 142.80 199.50 142.80 200.37 C 142.80 201.23 143.49 201.93 144.35 201.93 L 145.37 201.94 C 146.23 201.94 146.94 201.25 146.94 200.39 C 146.95 199.52 146.25 198.82 145.39 198.82 Z M 144.39 198.81 L 143.43 198.79 C 142.57 198.78 141.85 199.46 141.84 200.32 C 141.82 201.18 142.50 201.90 143.37 201.91 L 144.33 201.93 C 145.19 201.95 145.90 201.27 145.92 200.40 C 145.94 199.54 145.25 198.83 144.39 198.81 Z M 143.50 198.80 L 142.57 198.74 C 141.71 198.68 140.97 199.33 140.91 200.19 C 140.86 201.05 141.51 201.80 142.37 201.85 L 143.30 201.91 C 144.16 201.97 144.90 201.32 144.95 200.46 C 145.01 199.60 144.36 198.85 143.50 198.80 Z M 142.73 198.75 L 141.76 198.59 C 140.91 198.45 140.10 199.02 139.96 199.88 C 139.82 200.73 140.40 201.53 141.25 201.67 L 142.21 201.83 C 143.06 201.98 143.87 201.40 144.01 200.55 C 144.15 199.70 143.58 198.90 142.73 198.75 Z M 141.97 198.64 L 140.94 198.32 C 140.12 198.06 139.24 198.52 138.99 199.34 C 138.73 200.17 139.19 201.04 140.01 201.30 L 141.04 201.62 C 141.86 201.88 142.73 201.42 142.99 200.60 C 143.25 199.78 142.79 198.90 141.97 198.64 Z M 141.14 198.40 L 140.22 197.96 C 139.44 197.59 138.51 197.93 138.14 198.71 C 137.77 199.49 138.10 200.42 138.88 200.79 L 139.81 201.22 C 140.59 201.59 141.52 201.26 141.89 200.48 C 142.26 199.70 141.92 198.77 141.14 198.40 Z M 140.35 198.03 L 139.48 197.51 C 138.74 197.07 137.78 197.31 137.34 198.05 C 136.90 198.79 137.14 199.75 137.88 200.19 L 138.75 200.71 C 139.49 201.16 140.45 200.92 140.89 200.18 C 141.33 199.44 141.09 198.48 140.35 198.03 Z M 139.58 197.58 L 138.72 196.97 C 138.02 196.48 137.04 196.65 136.55 197.35 C 136.05 198.06 136.22 199.03 136.93 199.53 L 137.78 200.13 C 138.49 200.63 139.46 200.46 139.96 199.75 C 140.45 199.05 140.28 198.07 139.58 197.58 Z M 138.81 197.04 L 138.00 196.39 C 137.33 195.85 136.35 195.95 135.81 196.62 C 135.26 197.29 135.37 198.28 136.04 198.82 L 136.84 199.47 C 137.51 200.01 138.50 199.90 139.04 199.23 C 139.58 198.56 139.48 197.58 138.81 197.04 Z M 138.08 196.46 L 137.37 195.80 C 136.74 195.21 135.75 195.25 135.16 195.88 C 134.58 196.51 134.61 197.50 135.25 198.09 L 135.96 198.75 C 136.59 199.33 137.58 199.30 138.17 198.66 C 138.75 198.03 138.71 197.04 138.08 196.46 Z M 137.47 195.90 L 136.74 195.09 C 136.17 194.44 135.18 194.39 134.54 194.96 C 133.90 195.54 133.84 196.53 134.42 197.17 L 135.14 197.98 C 135.72 198.63 136.71 198.68 137.35 198.11 C 137.99 197.53 138.05 196.54 137.47 195.90 Z M 136.87 195.24 L 136.28 194.38 C 135.79 193.67 134.82 193.49 134.11 193.98 C 133.40 194.47 133.21 195.44 133.70 196.15 L 134.29 197.01 C 134.78 197.72 135.75 197.90 136.46 197.42 C 137.18 196.93 137.36 195.96 136.87 195.24 Z M 136.37 194.54 L 135.94 193.72 C 135.54 192.96 134.60 192.66 133.84 193.06 C 133.07 193.46 132.78 194.41 133.18 195.17 L 133.61 195.99 C 134.01 196.75 134.95 197.05 135.71 196.65 C 136.48 196.25 136.77 195.31 136.37 194.54 Z M 135.99 193.81 L 135.69 193.13 C 135.33 192.35 134.41 191.99 133.62 192.34 C 132.84 192.69 132.48 193.62 132.83 194.40 L 133.13 195.08 C 133.48 195.87 134.41 196.22 135.19 195.87 C 135.98 195.52 136.34 194.60 135.99 193.81 Z"
      fill="black"
      fill-rule="nonzero" /><path d="M 149.51 195.98 L 149.40 196.85 C 149.30 197.71 149.92 198.48 150.77 198.58 C 151.63 198.68 152.41 198.07 152.51 197.21 L 152.61 196.34 C 152.71 195.49 152.09 194.71 151.24 194.61 C 150.38 194.51 149.61 195.12 149.51 195.98 Z M 149.40 196.88 L 149.31 197.81 C 149.22 198.67 149.85 199.43 150.71 199.52 C 151.56 199.61 152.33 198.98 152.41 198.12 L 152.51 197.19 C 152.59 196.33 151.97 195.56 151.11 195.48 C 150.25 195.39 149.49 196.02 149.40 196.88 Z M 149.30 197.85 L 149.23 198.92 C 149.17 199.78 149.81 200.53 150.67 200.59 C 151.53 200.65 152.28 200.01 152.34 199.15 L 152.42 198.08 C 152.48 197.22 151.83 196.47 150.97 196.41 C 150.11 196.35 149.37 196.99 149.30 197.85 Z M 149.22 198.97 L 149.18 200.05 C 149.14 200.91 149.81 201.64 150.67 201.67 C 151.53 201.71 152.26 201.04 152.30 200.18 L 152.34 199.10 C 152.38 198.24 151.71 197.51 150.85 197.47 C 149.99 197.44 149.26 198.11 149.22 198.97 Z M 149.18 200.08 L 149.15 201.07 C 149.13 201.93 149.81 202.64 150.68 202.67 C 151.54 202.69 152.25 202.00 152.27 201.14 L 152.30 200.15 C 152.32 199.29 151.64 198.57 150.78 198.55 C 149.91 198.53 149.20 199.21 149.18 200.08 Z M 149.15 201.08 L 149.14 202.12 C 149.13 202.99 149.82 203.69 150.68 203.71 C 151.54 203.72 152.25 203.03 152.26 202.16 L 152.27 201.12 C 152.29 200.26 151.60 199.55 150.73 199.54 C 149.87 199.53 149.16 200.22 149.15 201.08 Z M 149.14 202.14 L 149.13 203.18 C 149.13 204.04 149.82 204.74 150.68 204.75 C 151.55 204.75 152.25 204.06 152.26 203.20 L 152.26 202.15 C 152.27 201.29 151.57 200.59 150.71 200.58 C 149.85 200.58 149.14 201.27 149.14 202.14 Z M 149.13 203.18 L 149.13 204.18 C 149.13 205.04 149.83 205.74 150.69 205.74 C 151.55 205.74 152.25 205.05 152.25 204.18 L 152.26 203.19 C 152.26 202.33 151.56 201.63 150.70 201.62 C 149.83 201.62 149.13 202.32 149.13 203.18 Z M 149.13 204.18 L 149.13 205.24 C 149.13 206.11 149.83 206.80 150.69 206.80 C 151.55 206.80 152.25 206.11 152.25 205.24 L 152.25 204.18 C 152.25 203.32 151.55 202.62 150.69 202.62 C 149.83 202.62 149.13 203.32 149.13 204.18 Z M 149.13 205.24 L 149.13 206.31 C 149.13 207.17 149.83 207.87 150.69 207.87 C 151.55 207.87 152.25 207.17 152.25 206.31 L 152.25 205.24 C 152.25 204.38 151.55 203.68 150.69 203.68 C 149.83 203.68 149.13 204.38 149.13 205.24 Z M 149.13 206.31 L 149.13 207.26 C 149.13 208.12 149.83 208.82 150.69 208.82 C 151.55 208.82 152.25 208.12 152.25 207.26 L 152.25 206.31 C 152.25 205.45 151.55 204.75 150.69 204.75 C 149.83 204.75 149.13 205.45 149.13 206.31 Z M 149.13 207.26 L 149.13 208.16 C 149.13 209.02 149.83 209.72 150.69 209.72 C 151.55 209.72 152.25 209.02 152.25 208.16 L 152.25 207.26 C 152.25 206.40 151.55 205.70 150.69 205.70 C 149.83 205.70 149.13 206.40 149.13 207.26 Z M 149.13 208.16 L 149.13 209.12 C 149.13 209.99 149.83 210.69 150.69 210.69 C 151.55 210.69 152.25 209.99 152.25 209.12 L 152.25 208.16 C 152.25 207.30 151.55 206.60 150.69 206.60 C 149.83 206.60 149.13 207.30 149.13 208.16 Z M 149.13 209.12 L 149.13 210.12 C 149.13 210.98 149.83 211.68 150.69 211.68 C 151.55 211.68 152.25 210.98 152.25 210.12 L 152.25 209.12 C 152.25 208.26 151.55 207.56 150.69 207.56 C 149.83 207.56 149.13 208.26 149.13 209.12 Z M 149.13 210.12 L 149.13 211.14 C 149.13 212.00 149.83 212.70 150.69 212.70 C 151.55 212.70 152.25 212.00 152.25 211.14 L 152.25 210.12 C 152.25 209.26 151.55 208.56 150.69 208.56 C 149.83 208.56 149.13 209.26 149.13 210.12 Z M 149.13 211.14 L 149.13 212.15 C 149.13 213.02 149.83 213.71 150.69 213.71 C 151.55 213.71 152.25 213.02 152.25 212.15 L 152.25 211.14 C 152.25 210.27 151.55 209.58 150.69 209.58 C 149.83 209.58 149.13 210.27 149.13 211.14 Z M 149.13 212.15 L 149.13 213.16 C 149.13 214.03 149.83 214.72 150.69 214.72 C 151.55 214.72 152.25 214.03 152.25 213.16 L 152.25 212.15 C 152.25 211.29 151.55 210.59 150.69 210.59 C 149.83 210.59 149.13 211.29 149.13 212.15 Z M 149.13 213.16 L 149.13 214.16 C 149.13 215.03 149.83 215.72 150.69 215.72 C 151.55 215.72 152.25 215.03 152.25 214.16 L 152.25 213.16 C 152.25 212.30 151.55 211.60 150.69 211.60 C 149.83 211.60 149.13 212.30 149.13 213.16 Z M 149.13 214.16 L 149.13 215.14 C 149.13 216.00 149.83 216.70 150.69 216.70 C 151.55 216.70 152.25 216.00 152.25 215.14 L 152.25 214.16 C 152.25 213.30 151.55 212.60 150.69 212.60 C 149.83 212.60 149.13 213.30 149.13 214.16 Z M 149.13 215.14 L 149.13 216.08 C 149.13 216.94 149.83 217.64 150.69 217.64 C 151.55 217.64 152.25 216.94 152.25 216.08 L 152.25 215.14 C 152.25 214.28 151.55 213.58 150.69 213.58 C 149.83 213.58 149.13 214.28 149.13 215.14 Z M 149.13 216.08 L 149.13 217.04 C 149.13 217.91 149.83 218.60 150.69 218.60 C 151.55 218.60 152.25 217.91 152.25 217.04 L 152.25 216.08 C 152.25 215.21 151.55 214.52 150.69 214.52 C 149.83 214.52 149.13 215.21 149.13 216.08 Z M 149.13 217.04 L 149.13 218.09 C 149.13 218.95 149.83 219.65 150.69 219.65 C 151.55 219.65 152.25 218.95 152.25 218.09 L 152.25 217.04 C 152.25 216.18 151.55 215.48 150.69 215.48 C 149.83 215.48 149.13 216.18 149.13 217.04 Z M 149.13 218.09 L 149.13 219.08 C 149.13 219.95 149.83 220.64 150.69 220.64 C 151.55 220.64 152.25 219.95 152.25 219.08 L 152.25 218.09 C 152.25 217.23 151.55 216.53 150.69 216.53 C 149.83 216.53 149.13 217.23 149.13 218.09 Z M 149.13 219.08 L 149.13 220.03 C 149.13 220.89 149.83 221.59 150.69 221.59 C 151.55 221.59 152.25 220.89 152.25 220.03 L 152.25 219.08 C 152.25 218.22 151.55 217.52 150.69 217.52 C 149.83 217.52 149.13 218.22 149.13 219.08 Z M 149.13 220.03 L 149.13 221.03 C 149.13 221.90 149.83 222.59 150.69 222.59 C 151.55 222.59 152.25 221.90 152.25 221.03 L 152.25 220.03 C 152.25 219.17 151.55 218.47 150.69 218.47 C 149.83 218.47 149.13 219.17 149.13 220.03 Z M 149.13 221.03 L 149.13 222.08 C 149.13 222.94 149.83 223.64 150.69 223.64 C 151.55 223.64 152.25 222.94 152.25 222.08 L 152.25 221.03 C 152.25 220.17 151.55 219.47 150.69 219.47 C 149.83 219.47 149.13 220.17 149.13 221.03 Z M 149.13 222.08 L 149.13 223.14 C 149.13 224.00 149.83 224.70 150.69 224.70 C 151.55 224.70 152.25 224.00 152.25 223.14 L 152.25 222.08 C 152.25 221.21 151.55 220.51 150.69 220.51 C 149.83 220.51 149.13 221.21 149.13 222.08 Z M 149.13 223.14 L 149.13 223.29 C 149.13 224.16 149.83 224.85 150.69 224.85 C 151.55 224.85 152.25 224.16 152.25 223.29 L 152.25 223.14 C 152.25 222.27 151.55 221.58 150.69 221.58 C 149.83 221.58 149.13 222.27 149.13 223.14 Z"
      fill="black"
      fill-rule="nonzero" /></svg>