<svg xmlns="http://www.w3.org/2000/svg" width="300" height="300" viewBox="0 0 300 300">
<path d="M 90.50 82.56 L 89.65 81.83 C 89.00 81.26 88.01 81.34 87.45 81.99 C 86.88 82.64 86.96 83.63 87.61 84.19 L 88.46 84.92 C 89.11 85.49 90.09 85.41 90.66 84.76 C 91.22 84.11 91.15 83.12 90.50 82.56 Z M 89.46 81.69 L 88.62 81.16 C 87.89 80.70 86.92 80.92 86.46 81.65 C 86.00 82.38 86.22 83.34 86.95 83.80 L 87.80 84.33 C 88.53 84.79 89.49 84.57 89.95 83.84 C 90.41 83.11 90.19 82.15 89.46 81.69 Z M 88.02 80.94 L 87.19 80.81 C 86.33 80.67 85.54 81.26 85.40 82.11 C 85.27 82.96 85.86 83.76 86.71 83.89 L 87.54 84.02 C 88.40 84.15 89.19 83.57 89.33 82.72 C 89.46 81.87 88.88 81.07 88.02 80.94 Z M 86.29 80.93 L 85.57 81.27 C 84.79 81.63 84.46 82.56 84.82 83.34 C 85.19 84.12 86.12 84.46 86.90 84.10 L 87.61 83.76 C 88.39 83.40 88.73 82.47 88.36 81.69 C 88.00 80.91 87.07 80.57 86.29 80.93 Z M 85.15 81.56 L 84.46 82.23 C 83.85 82.83 83.83 83.82 84.43 84.44 C 85.03 85.05 86.02 85.07 86.64 84.47 L 87.32 83.80 C 87.94 83.20 87.96 82.21 87.35 81.59 C 86.75 80.97 85.76 80.96 85.15 81.56 Z M 84.30 82.41 L 83.64 83.29 C 83.13 83.98 83.27 84.96 83.95 85.47 C 84.64 85.99 85.62 85.85 86.14 85.16 L 86.80 84.28 C 87.32 83.59 87.18 82.62 86.49 82.10 C 85.80 81.58 84.82 81.72 84.30 82.41 Z M 83.58 83.38 L 82.98 84.30 C 82.51 85.03 82.72 85.99 83.44 86.46 C 84.17 86.93 85.13 86.72 85.60 86.00 L 86.20 85.07 C 86.67 84.35 86.46 83.38 85.74 82.92 C 85.02 82.45 84.05 82.65 83.58 83.38 Z M 82.96 84.34 L 82.47 85.15 C 82.02 85.89 82.26 86.85 82.99 87.30 C 83.73 87.74 84.69 87.51 85.14 86.77 L 85.63 85.96 C 86.08 85.22 85.84 84.26 85.10 83.82 C 84.37 83.37 83.41 83.60 82.96 84.34 Z M 82.45 85.18 L 81.97 86.02 C 81.54 86.77 81.80 87.72 82.55 88.15 C 83.29 88.58 84.25 88.32 84.68 87.57 L 85.16 86.74 C 85.59 85.99 85.33 85.04 84.58 84.61 C 83.83 84.18 82.88 84.44 82.45 85.18 Z M 81.95 86.05 L 81.47 86.94 C 81.06 87.69 81.34 88.64 82.10 89.05 C 82.85 89.47 83.80 89.18 84.21 88.43 L 84.69 87.54 C 85.11 86.79 84.82 85.84 84.07 85.43 C 83.31 85.01 82.36 85.29 81.95 86.05 Z M 81.46 86.96 L 80.96 87.92 C 80.57 88.68 80.87 89.62 81.63 90.02 C 82.40 90.42 83.34 90.12 83.74 89.35 L 84.23 88.40 C 84.62 87.63 84.32 86.69 83.56 86.29 C 82.79 85.90 81.85 86.20 81.46 86.96 Z M 80.95 87.94 L 80.50 88.85 C 80.12 89.62 80.43 90.56 81.20 90.94 C 81.98 91.32 82.91 91.01 83.30 90.24 L 83.75 89.33 C 84.13 88.56 83.82 87.62 83.04 87.24 C 82.27 86.85 81.34 87.17 80.95 87.94 Z M 80.49 88.86 L 80.05 89.79 C 79.67 90.56 80.00 91.50 80.77 91.87 C 81.55 92.25 82.48 91.92 82.86 91.15 L 83.30 90.22 C 83.68 89.45 83.35 88.51 82.58 88.14 C 81.80 87.76 80.87 88.09 80.49 88.86 Z M 80.04 89.80 L 79.60 90.74 C 79.23 91.52 79.56 92.45 80.34 92.82 C 81.12 93.19 82.05 92.85 82.42 92.07 L 82.86 91.13 C 83.23 90.35 82.90 89.42 82.12 89.06 C 81.34 88.69 80.41 89.02 80.04 89.80 Z M 79.59 90.75 L 79.16 91.67 C 78.80 92.45 79.14 93.38 79.92 93.74 C 80.70 94.11 81.63 93.77 82.00 92.99 L 82.42 92.06 C 82.79 91.28 82.45 90.35 81.67 89.99 C 80.88 89.63 79.96 89.97 79.59 90.75 Z M 79.16 91.68 L 78.76 92.56 C 78.40 93.34 78.75 94.27 79.53 94.63 C 80.31 94.98 81.24 94.64 81.60 93.85 L 82.00 92.98 C 82.36 92.19 82.01 91.27 81.23 90.91 C 80.44 90.55 79.52 90.89 79.16 91.68 Z M 78.75 92.56 L 78.32 93.54 C 77.96 94.33 78.31 95.25 79.10 95.61 C 79.88 95.96 80.81 95.61 81.16 94.82 L 81.60 93.85 C 81.96 93.06 81.61 92.14 80.82 91.78 C 80.03 91.43 79.11 91.78 78.75 92.56 Z M 78.31 93.55 L 77.88 94.53 C 77.53 95.32 77.89 96.24 78.68 96.58 C 79.47 96.93 80.39 96.58 80.74 95.79 L 81.17 94.81 C 81.52 94.02 81.16 93.10 80.37 92.75 C 79.58 92.41 78.66 92.76 78.31 93.55 Z M 77.87 94.54 L 77.50 95.42 C 77.16 96.21 77.52 97.13 78.31 97.47 C 79.11 97.81 80.02 97.44 80.36 96.65 L 80.74 95.77 C 81.08 94.98 80.72 94.06 79.93 93.72 C 79.13 93.38 78.22 93.75 77.87 94.54 Z M 77.49 95.43 L 77.15 96.25 C 76.81 97.05 77.19 97.96 77.98 98.30 C 78.78 98.63 79.69 98.26 80.02 97.46 L 80.37 96.64 C 80.70 95.84 80.33 94.93 79.54 94.59 C 78.74 94.26 77.83 94.63 77.49 95.43 Z M 77.14 96.26 L 76.80 97.09 C 76.48 97.88 76.86 98.80 77.65 99.12 C 78.45 99.45 79.36 99.07 79.69 98.27 L 80.03 97.45 C 80.36 96.65 79.98 95.74 79.18 95.41 C 78.38 95.09 77.47 95.47 77.14 96.26 Z M 76.80 97.09 L 76.45 97.95 C 76.13 98.75 76.51 99.66 77.31 99.99 C 78.11 100.31 79.02 99.93 79.34 99.13 L 79.69 98.27 C 80.02 97.47 79.63 96.56 78.83 96.23 C 78.04 95.91 77.12 96.29 76.80 97.09 Z M 76.45 97.96 L 76.07 98.90 C 75.74 99.70 76.13 100.61 76.93 100.94 C 77.73 101.26 78.64 100.87 78.96 100.08 L 79.34 99.13 C 79.67 98.33 79.28 97.42 78.48 97.09 C 77.68 96.77 76.77 97.16 76.45 97.96 Z M 76.07 98.90 L 75.65 99.94 C 75.32 100.73 75.70 101.65 76.50 101.97 C 77.30 102.30 78.21 101.91 78.54 101.12 L 78.96 100.08 C 79.28 99.28 78.90 98.37 78.10 98.04 C 77.31 97.72 76.39 98.10 76.07 98.90 Z M 75.65 99.93 L 75.30 100.77 C 74.97 101.57 75.35 102.48 76.15 102.81 C 76.95 103.14 77.86 102.76 78.19 101.96 L 78.53 101.12 C 78.86 100.32 78.48 99.41 77.69 99.08 C 76.89 98.75 75.98 99.13 75.65 99.93 Z M 75.30 100.77 L 74.93 101.67 C 74.60 102.47 74.98 103.38 75.77 103.71 C 76.57 104.04 77.48 103.66 77.81 102.87 L 78.19 101.96 C 78.52 101.17 78.14 100.25 77.34 99.92 C 76.55 99.59 75.63 99.97 75.30 100.77 Z M 74.93 101.67 L 74.54 102.61 C 74.20 103.41 74.58 104.32 75.37 104.65 C 76.17 104.98 77.08 104.61 77.42 103.81 L 77.81 102.87 C 78.14 102.07 77.77 101.16 76.97 100.83 C 76.18 100.50 75.26 100.87 74.93 101.67 Z M 74.54 102.61 L 74.13 103.57 C 73.80 104.37 74.17 105.28 74.96 105.62 C 75.76 105.95 76.67 105.58 77.01 104.78 L 77.41 103.82 C 77.75 103.02 77.38 102.11 76.58 101.77 C 75.79 101.44 74.87 101.81 74.54 102.61 Z M 74.13 103.57 L 73.72 104.53 C 73.38 105.33 73.75 106.24 74.55 106.58 C 75.34 106.92 76.26 106.55 76.59 105.76 L 77.01 104.79 C 77.34 104.00 76.97 103.08 76.18 102.74 C 75.39 102.40 74.47 102.77 74.13 103.57 Z M 73.72 104.53 L 73.33 105.45 C 72.99 106.25 73.35 107.16 74.14 107.50 C 74.94 107.84 75.85 107.48 76.19 106.69 L 76.59 105.76 C 76.93 104.97 76.57 104.05 75.77 103.71 C 74.98 103.37 74.06 103.74 73.72 104.53 Z M 73.33 105.45 L 72.94 106.36 C 72.60 107.15 72.96 108.07 73.75 108.41 C 74.55 108.75 75.47 108.38 75.81 107.59 L 76.19 106.69 C 76.54 105.89 76.17 104.98 75.38 104.64 C 74.58 104.30 73.67 104.66 73.33 105.45 Z M 72.93 106.37 L 72.55 107.27 C 72.21 108.07 72.58 108.98 73.38 109.32 C 74.17 109.66 75.09 109.29 75.42 108.49 L 75.81 107.59 C 76.14 106.79 75.77 105.88 74.98 105.54 C 74.19 105.20 73.27 105.57 72.93 106.37 Z M 72.54 107.29 L 72.16 108.20 C 71.83 109.00 72.21 109.91 73.01 110.24 C 73.81 110.57 74.72 110.19 75.05 109.40 L 75.43 108.48 C 75.76 107.68 75.38 106.77 74.58 106.44 C 73.79 106.11 72.87 106.49 72.54 107.29 Z M 72.16 108.22 L 71.78 109.16 C 71.46 109.96 71.85 110.87 72.65 111.19 C 73.45 111.51 74.36 111.12 74.68 110.32 L 75.06 109.38 C 75.38 108.58 74.99 107.67 74.19 107.35 C 73.38 107.03 72.48 107.42 72.16 108.22 Z M 71.77 109.18 L 71.41 110.13 C 71.11 110.94 71.51 111.84 72.32 112.14 C 73.12 112.45 74.02 112.05 74.33 111.24 L 74.69 110.29 C 75.00 109.49 74.59 108.59 73.79 108.28 C 72.98 107.97 72.08 108.38 71.77 109.18 Z M 71.40 110.15 L 71.08 111.05 C 70.78 111.86 71.20 112.76 72.01 113.05 C 72.82 113.35 73.72 112.93 74.01 112.12 L 74.34 111.22 C 74.63 110.41 74.21 109.51 73.40 109.22 C 72.59 108.92 71.70 109.34 71.40 110.15 Z M 71.07 111.07 L 70.75 112.00 C 70.46 112.81 70.89 113.70 71.71 113.99 C 72.52 114.27 73.41 113.84 73.70 113.03 L 74.02 112.10 C 74.30 111.29 73.87 110.40 73.06 110.11 C 72.25 109.83 71.35 110.26 71.07 111.07 Z M 70.74 112.01 L 70.42 112.96 C 70.15 113.78 70.58 114.67 71.40 114.94 C 72.22 115.22 73.10 114.78 73.38 113.96 L 73.70 113.01 C 73.98 112.20 73.54 111.31 72.72 111.03 C 71.91 110.76 71.02 111.20 70.74 112.01 Z M 70.42 112.97 L 70.10 113.94 C 69.83 114.76 70.27 115.64 71.09 115.91 C 71.91 116.18 72.79 115.74 73.06 114.92 L 73.38 113.95 C 73.65 113.13 73.21 112.25 72.39 111.98 C 71.57 111.71 70.69 112.15 70.42 112.97 Z M 70.10 113.94 L 69.78 114.92 C 69.51 115.74 69.96 116.62 70.78 116.89 C 71.60 117.16 72.48 116.71 72.75 115.89 L 73.07 114.91 C 73.33 114.09 72.88 113.21 72.06 112.94 C 71.25 112.68 70.36 113.12 70.10 113.94 Z M 69.78 114.92 L 69.48 115.84 C 69.22 116.66 69.66 117.54 70.49 117.81 C 71.31 118.07 72.19 117.62 72.45 116.80 L 72.75 115.88 C 73.01 115.06 72.56 114.18 71.74 113.92 C 70.92 113.65 70.04 114.10 69.78 114.92 Z"
      fill="black"
      fill-rule="nonzero" /><path d="M 118.68 80.38 L 118.56 81.37 C 118.47 82.23 119.08 83.00 119.94 83.10 C 120.79 83.20 121.57 82.59 121.67 81.73 L 121.78 80.74 C 121.88 79.88 121.27 79.11 120.41 79.01 C 119.55 78.91 118.78 79.52 118.68 80.38 Z M 118.55 81.51 L 118.53 82.50 C 118.51 83.36 119.19 84.08 120.05 84.10 C 120.91 84.12 121.63 83.44 121.65 82.58 L 121.68 81.59 C 121.70 80.73 121.02 80.01 120.15 79.99 C 119.29 79.97 118.58 80.65 118.55 81.51 Z M 118.55 82.78 L 118.71 83.77 C 118.84 84.63 119.64 85.21 120.49 85.07 C 121.34 84.94 121.92 84.14 121.79 83.29 L 121.63 82.30 C 121.50 81.44 120.70 80.86 119.85 81.00 C 119.00 81.13 118.41 81.93 118.55 82.78 Z M 118.79 84.09 L 119.09 84.86 C 119.39 85.66 120.30 86.07 121.10 85.76 C 121.91 85.45 122.31 84.55 122.00 83.74 L 121.71 82.97 C 121.40 82.17 120.49 81.76 119.69 82.07 C 118.88 82.38 118.48 83.28 118.79 84.09 Z M 119.17 85.05 L 119.60 85.84 C 120.02 86.59 120.96 86.87 121.72 86.46 C 122.48 86.05 122.76 85.10 122.34 84.34 L 121.91 83.55 C 121.50 82.80 120.55 82.52 119.80 82.93 C 119.04 83.34 118.76 84.29 119.17 85.05 Z M 119.65 85.93 L 120.21 86.79 C 120.67 87.52 121.63 87.74 122.36 87.28 C 123.09 86.82 123.30 85.85 122.84 85.12 L 122.29 84.25 C 121.83 83.53 120.87 83.31 120.14 83.77 C 119.41 84.23 119.19 85.20 119.65 85.93 Z M 120.22 86.82 L 120.87 87.81 C 121.35 88.53 122.31 88.73 123.03 88.26 C 123.75 87.78 123.95 86.81 123.48 86.09 L 122.83 85.10 C 122.36 84.38 121.39 84.18 120.67 84.65 C 119.95 85.13 119.75 86.10 120.22 86.82 Z M 120.86 87.79 L 121.39 88.62 C 121.86 89.35 122.82 89.56 123.55 89.09 C 124.28 88.63 124.49 87.66 124.02 86.94 L 123.49 86.11 C 123.02 85.38 122.06 85.17 121.33 85.64 C 120.61 86.10 120.40 87.07 120.86 87.79 Z M 121.38 88.60 L 121.90 89.43 C 122.35 90.16 123.32 90.38 124.05 89.93 C 124.78 89.47 125.00 88.51 124.55 87.78 L 124.03 86.95 C 123.58 86.22 122.61 86.00 121.88 86.45 C 121.15 86.91 120.93 87.87 121.38 88.60 Z M 121.89 89.41 L 122.42 90.28 C 122.86 91.02 123.82 91.25 124.56 90.80 C 125.30 90.36 125.53 89.39 125.08 88.66 L 124.55 87.79 C 124.11 87.05 123.15 86.82 122.41 87.27 C 121.67 87.72 121.44 88.68 121.89 89.41 Z M 122.41 90.27 L 122.94 91.16 C 123.38 91.90 124.34 92.14 125.08 91.70 C 125.82 91.26 126.06 90.30 125.62 89.56 L 125.09 88.67 C 124.65 87.93 123.69 87.69 122.95 88.13 C 122.21 88.57 121.97 89.53 122.41 90.27 Z M 122.93 91.15 L 123.45 92.04 C 123.88 92.79 124.84 93.04 125.58 92.61 C 126.33 92.17 126.58 91.22 126.15 90.47 L 125.63 89.58 C 125.20 88.83 124.24 88.58 123.50 89.01 C 122.75 89.44 122.50 90.40 122.93 91.15 Z M 123.44 92.03 L 123.94 92.91 C 124.37 93.66 125.32 93.92 126.07 93.50 C 126.82 93.07 127.08 92.12 126.66 91.37 L 126.16 90.49 C 125.73 89.74 124.78 89.47 124.03 89.90 C 123.28 90.32 123.02 91.28 123.44 92.03 Z M 123.93 92.89 L 124.47 93.87 C 124.88 94.62 125.83 94.90 126.59 94.48 C 127.34 94.07 127.62 93.12 127.20 92.36 L 126.67 91.39 C 126.25 90.63 125.30 90.36 124.55 90.77 C 123.79 91.19 123.52 92.14 123.93 92.89 Z M 124.46 93.85 L 124.97 94.82 C 125.38 95.58 126.32 95.87 127.08 95.46 C 127.84 95.06 128.13 94.11 127.73 93.35 L 127.21 92.38 C 126.81 91.62 125.86 91.33 125.10 91.74 C 124.34 92.14 124.05 93.09 124.46 93.85 Z M 124.96 94.80 L 125.43 95.71 C 125.83 96.48 126.77 96.78 127.54 96.38 C 128.30 95.98 128.60 95.04 128.21 94.28 L 127.74 93.37 C 127.34 92.60 126.40 92.30 125.63 92.70 C 124.87 93.09 124.57 94.04 124.96 94.80 Z M 125.43 95.70 L 125.86 96.54 C 126.25 97.31 127.19 97.62 127.95 97.23 C 128.72 96.84 129.03 95.90 128.64 95.13 L 128.21 94.29 C 127.82 93.52 126.88 93.21 126.11 93.60 C 125.34 93.99 125.04 94.93 125.43 95.70 Z M 125.85 96.54 L 126.25 97.32 C 126.63 98.09 127.57 98.40 128.34 98.01 C 129.11 97.62 129.42 96.68 129.03 95.91 L 128.64 95.13 C 128.25 94.36 127.32 94.05 126.55 94.44 C 125.78 94.83 125.47 95.77 125.85 96.54 Z M 126.25 97.32 L 126.72 98.25 C 127.11 99.02 128.05 99.33 128.82 98.93 C 129.59 98.54 129.89 97.60 129.50 96.84 L 129.03 95.91 C 128.64 95.14 127.70 94.83 126.93 95.22 C 126.16 95.61 125.86 96.55 126.25 97.32 Z M 126.72 98.26 L 127.20 99.18 C 127.59 99.94 128.54 100.24 129.30 99.85 C 130.07 99.45 130.37 98.51 129.97 97.74 L 129.50 96.83 C 129.10 96.06 128.16 95.76 127.39 96.16 C 126.63 96.55 126.33 97.49 126.72 98.26 Z M 127.20 99.19 L 127.64 100.02 C 128.05 100.78 128.99 101.08 129.75 100.68 C 130.52 100.27 130.81 99.33 130.41 98.57 L 129.97 97.73 C 129.56 96.97 128.62 96.68 127.86 97.08 C 127.09 97.48 126.80 98.42 127.20 99.19 Z M 127.65 100.03 L 128.09 100.85 C 128.50 101.61 129.44 101.90 130.20 101.49 C 130.96 101.08 131.25 100.14 130.84 99.38 L 130.40 98.56 C 129.99 97.80 129.05 97.51 128.29 97.92 C 127.53 98.33 127.24 99.27 127.65 100.03 Z M 128.09 100.86 L 128.57 101.74 C 128.98 102.50 129.93 102.78 130.69 102.37 C 131.45 101.96 131.73 101.01 131.32 100.25 L 130.84 99.37 C 130.43 98.61 129.48 98.33 128.72 98.74 C 127.96 99.16 127.68 100.10 128.09 100.86 Z M 128.58 101.75 L 129.06 102.62 C 129.47 103.38 130.42 103.66 131.17 103.24 C 131.93 102.83 132.21 101.88 131.79 101.12 L 131.31 100.25 C 130.90 99.49 129.95 99.22 129.19 99.63 C 128.44 100.04 128.16 100.99 128.58 101.75 Z M 129.06 102.63 L 129.54 103.50 C 129.95 104.25 130.90 104.53 131.66 104.11 C 132.41 103.70 132.69 102.75 132.27 101.99 L 131.79 101.12 C 131.38 100.37 130.43 100.09 129.67 100.51 C 128.92 100.92 128.64 101.87 129.06 102.63 Z M 129.54 103.50 L 130.02 104.37 C 130.44 105.13 131.39 105.40 132.14 104.98 C 132.90 104.57 133.17 103.62 132.75 102.86 L 132.27 101.99 C 131.85 101.24 130.90 100.96 130.15 101.38 C 129.39 101.80 129.12 102.74 129.54 103.50 Z M 130.02 104.38 L 130.51 105.25 C 130.93 106.00 131.88 106.27 132.64 105.85 C 133.39 105.43 133.66 104.48 133.24 103.73 L 132.75 102.85 C 132.33 102.10 131.38 101.83 130.62 102.25 C 129.87 102.68 129.60 103.63 130.02 104.38 Z M 130.52 105.27 L 131.02 106.14 C 131.45 106.88 132.40 107.14 133.15 106.71 C 133.90 106.29 134.16 105.33 133.73 104.58 L 133.23 103.71 C 132.80 102.97 131.85 102.71 131.10 103.14 C 130.35 103.56 130.09 104.52 130.52 105.27 Z M 131.03 106.15 L 131.53 107.01 C 131.97 107.75 132.92 108.00 133.67 107.56 C 134.41 107.13 134.66 106.17 134.22 105.43 L 133.72 104.57 C 133.28 103.83 132.33 103.58 131.58 104.01 C 130.84 104.45 130.59 105.41 131.03 106.15 Z M 131.53 107.01 L 132.04 107.87 C 132.47 108.62 133.43 108.86 134.17 108.43 C 134.92 107.99 135.17 107.03 134.73 106.29 L 134.22 105.43 C 133.79 104.68 132.83 104.43 132.09 104.87 C 131.34 105.31 131.09 106.26 131.53 107.01 Z M 132.03 107.86 L 132.52 108.72 C 132.95 109.46 133.90 109.72 134.65 109.29 C 135.40 108.87 135.66 107.91 135.23 107.16 L 134.74 106.30 C 134.31 105.56 133.35 105.30 132.61 105.73 C 131.86 106.16 131.60 107.11 132.03 107.86 Z M 132.51 108.70 L 132.93 109.45 C 133.35 110.21 134.30 110.48 135.05 110.06 C 135.80 109.64 136.08 108.69 135.66 107.94 L 135.24 107.18 C 134.82 106.43 133.87 106.16 133.12 106.57 C 132.36 106.99 132.09 107.94 132.51 108.70 Z M 132.92 109.44 L 133.37 110.27 C 133.78 111.02 134.73 111.30 135.49 110.89 C 136.25 110.48 136.53 109.53 136.11 108.77 L 135.66 107.95 C 135.25 107.19 134.30 106.91 133.55 107.32 C 132.79 107.74 132.51 108.69 132.92 109.44 Z M 133.37 110.27 L 133.89 111.22 C 134.30 111.97 135.25 112.25 136.01 111.84 C 136.76 111.42 137.04 110.48 136.63 109.72 L 136.11 108.77 C 135.70 108.02 134.75 107.74 134.00 108.15 C 133.24 108.56 132.96 109.51 133.37 110.27 Z M 133.89 111.22 L 134.42 112.18 C 134.84 112.94 135.79 113.21 136.55 112.79 C 137.30 112.38 137.57 111.43 137.16 110.67 L 136.63 109.71 C 136.21 108.96 135.26 108.68 134.50 109.10 C 133.75 109.52 133.48 110.47 133.89 111.22 Z M 134.43 112.19 L 134.91 113.04 C 135.33 113.80 136.28 114.07 137.03 113.64 C 137.78 113.22 138.05 112.27 137.63 111.52 L 137.15 110.67 C 136.73 109.91 135.78 109.64 135.03 110.07 C 134.28 110.49 134.01 111.44 134.43 112.19 Z M 134.91 113.05 L 135.42 113.95 C 135.84 114.70 136.79 114.97 137.54 114.54 C 138.29 114.12 138.56 113.17 138.14 112.42 L 137.63 111.52 C 137.21 110.76 136.25 110.50 135.50 110.92 C 134.75 111.34 134.49 112.30 134.91 113.05 Z M 135.42 113.95 L 135.93 114.86 C 136.36 115.61 137.31 115.88 138.06 115.45 C 138.81 115.03 139.07 114.08 138.65 113.33 L 138.14 112.42 C 137.71 111.66 136.76 111.40 136.01 111.82 C 135.26 112.25 134.99 113.20 135.42 113.95 Z M 135.93 114.86 L 136.43 115.75 C 136.86 116.50 137.81 116.77 138.56 116.34 C 139.31 115.92 139.58 114.96 139.15 114.21 L 138.65 113.33 C 138.23 112.58 137.27 112.31 136.52 112.74 C 135.77 113.16 135.51 114.11 135.93 114.86 Z M 136.43 115.75 L 136.91 116.60 C 137.34 117.35 138.29 117.62 139.04 117.19 C 139.79 116.77 140.06 115.82 139.63 115.07 L 139.15 114.22 C 138.73 113.46 137.78 113.20 137.03 113.62 C 136.27 114.05 136.01 115.00 136.43 115.75 Z M 136.91 116.60 L 137.48 117.61 C 137.90 118.37 138.85 118.63 139.61 118.21 C 140.36 117.79 140.63 116.84 140.20 116.09 L 139.63 115.07 C 139.21 114.32 138.26 114.05 137.51 114.47 C 136.76 114.89 136.49 115.85 136.91 116.60 Z M 137.48 117.61 L 137.97 118.49 C 138.39 119.24 139.34 119.51 140.10 119.09 C 140.85 118.67 141.12 117.72 140.70 116.97 L 140.21 116.09 C 139.79 115.34 138.83 115.07 138.08 115.49 C 137.33 115.91 137.06 116.86 137.48 117.61 Z M 137.97 118.49 L 138.41 119.28 C 138.83 120.04 139.78 120.31 140.54 119.89 C 141.29 119.47 141.56 118.52 141.14 117.76 L 140.70 116.97 C 140.28 116.22 139.33 115.95 138.58 116.37 C 137.82 116.79 137.55 117.74 137.97 118.49 Z M 138.41 119.28 L 138.85 120.07 C 139.27 120.82 140.22 121.09 140.98 120.67 C 141.73 120.25 142.00 119.30 141.58 118.55 L 141.14 117.76 C 140.72 117.01 139.77 116.74 139.02 117.16 C 138.26 117.58 137.99 118.53 138.41 119.28 Z M 138.85 120.07 L 139.34 120.95 C 139.76 121.70 140.71 121.97 141.46 121.55 C 142.22 121.13 142.49 120.17 142.07 119.42 L 141.58 118.55 C 141.16 117.79 140.21 117.53 139.45 117.95 C 138.70 118.37 138.43 119.32 138.85 120.07 Z M 139.34 120.94 L 139.82 121.81 C 140.24 122.57 141.19 122.84 141.94 122.42 C 142.70 122.01 142.97 121.06 142.55 120.30 L 142.07 119.43 C 141.65 118.67 140.70 118.40 139.95 118.82 C 139.19 119.23 138.92 120.18 139.34 120.94 Z M 139.81 121.80 L 140.29 122.68 C 140.69 123.44 141.64 123.72 142.40 123.31 C 143.16 122.90 143.44 121.95 143.03 121.20 L 142.56 120.32 C 142.15 119.56 141.20 119.27 140.45 119.68 C 139.69 120.09 139.40 121.04 139.81 121.80 Z M 140.28 122.66 L 140.74 123.55 C 141.14 124.31 142.08 124.61 142.85 124.21 C 143.61 123.81 143.91 122.87 143.51 122.11 L 143.04 121.21 C 142.65 120.45 141.70 120.15 140.94 120.55 C 140.17 120.95 139.88 121.89 140.28 122.66 Z M 140.74 123.54 L 141.19 124.43 C 141.59 125.20 142.53 125.50 143.30 125.11 C 144.06 124.72 144.37 123.78 143.97 123.01 L 143.51 122.12 C 143.12 121.35 142.18 121.05 141.41 121.44 C 140.65 121.83 140.34 122.77 140.74 123.54 Z M 141.20 124.44 L 141.65 125.32 C 142.04 126.09 142.99 126.39 143.75 125.99 C 144.52 125.60 144.82 124.66 144.43 123.89 L 143.97 123.01 C 143.58 122.24 142.63 121.94 141.87 122.33 C 141.10 122.73 140.80 123.67 141.20 124.44 Z M 141.66 125.33 L 142.05 126.07 C 142.45 126.83 143.39 127.13 144.16 126.72 C 144.92 126.32 145.21 125.38 144.81 124.61 L 144.42 123.88 C 144.02 123.11 143.07 122.82 142.31 123.22 C 141.55 123.63 141.25 124.57 141.66 125.33 Z M 142.05 126.08 L 142.46 126.84 C 142.87 127.60 143.82 127.89 144.58 127.48 C 145.34 127.07 145.62 126.12 145.21 125.36 L 144.80 124.60 C 144.39 123.84 143.44 123.56 142.69 123.97 C 141.93 124.38 141.64 125.33 142.05 126.08 Z M 142.47 126.85 L 142.96 127.74 C 143.37 128.50 144.32 128.77 145.07 128.36 C 145.83 127.94 146.11 126.99 145.69 126.24 L 145.21 125.35 C 144.79 124.60 143.84 124.32 143.09 124.73 C 142.33 125.15 142.05 126.10 142.47 126.85 Z M 142.96 127.75 L 143.56 128.84 C 143.98 129.59 144.93 129.87 145.68 129.45 C 146.44 129.03 146.71 128.08 146.29 127.33 L 145.69 126.23 C 145.27 125.48 144.32 125.21 143.57 125.62 C 142.81 126.04 142.54 126.99 142.96 127.75 Z M 143.56 128.84 L 144.01 129.64 C 144.43 130.40 145.38 130.67 146.13 130.25 C 146.89 129.84 147.16 128.89 146.74 128.13 L 146.29 127.33 C 145.88 126.57 144.93 126.30 144.17 126.72 C 143.42 127.14 143.15 128.09 143.56 128.84 Z M 144.01 129.64 L 144.47 130.48 C 144.89 131.23 145.84 131.51 146.59 131.09 C 147.35 130.67 147.62 129.72 147.20 128.97 L 146.74 128.13 C 146.32 127.38 145.37 127.10 144.62 127.52 C 143.86 127.94 143.59 128.89 144.01 129.64 Z M 144.47 130.48 L 144.96 131.37 C 145.38 132.12 146.33 132.39 147.08 131.98 C 147.84 131.56 148.11 130.61 147.69 129.86 L 147.20 128.97 C 146.79 128.21 145.84 127.94 145.08 128.36 C 144.33 128.77 144.05 129.72 144.47 130.48 Z M 144.96 131.36 L 145.47 132.28 C 145.88 133.04 146.83 133.31 147.59 132.90 C 148.34 132.48 148.62 131.53 148.20 130.78 L 147.70 129.86 C 147.28 129.10 146.33 128.83 145.58 129.24 C 144.82 129.66 144.54 130.61 144.96 131.36 Z M 145.46 132.28 L 145.97 133.21 C 146.39 133.97 147.33 134.24 148.09 133.83 C 148.85 133.42 149.13 132.47 148.71 131.71 L 148.20 130.78 C 147.79 130.03 146.84 129.75 146.08 130.16 C 145.33 130.58 145.05 131.52 145.46 132.28 Z M 145.97 133.20 L 146.47 134.12 C 146.88 134.88 147.83 135.16 148.58 134.75 C 149.34 134.33 149.62 133.39 149.21 132.63 L 148.71 131.71 C 148.30 130.96 147.35 130.68 146.60 131.09 C 145.84 131.50 145.56 132.45 145.97 133.20 Z M 146.46 134.11 L 146.95 135.01 C 147.35 135.77 148.30 136.06 149.06 135.65 C 149.82 135.24 150.10 134.29 149.70 133.53 L 149.21 132.64 C 148.81 131.88 147.86 131.59 147.10 132.00 C 146.34 132.41 146.05 133.35 146.46 134.11 Z M 146.94 135.00 L 147.48 136.01 C 147.88 136.77 148.82 137.07 149.59 136.66 C 150.35 136.26 150.64 135.31 150.23 134.55 L 149.70 133.54 C 149.30 132.78 148.35 132.49 147.59 132.89 C 146.83 133.30 146.54 134.24 146.94 135.00 Z M 147.47 136.00 L 147.96 136.94 C 148.36 137.71 149.30 138.00 150.07 137.60 C 150.83 137.20 151.13 136.26 150.73 135.50 L 150.24 134.56 C 149.84 133.80 148.90 133.50 148.13 133.90 C 147.37 134.30 147.07 135.24 147.47 136.00 Z M 147.96 136.94 L 148.41 137.81 C 148.81 138.58 149.75 138.88 150.52 138.48 C 151.28 138.09 151.58 137.14 151.18 136.38 L 150.73 135.50 C 150.33 134.74 149.39 134.44 148.63 134.83 C 147.86 135.23 147.56 136.17 147.96 136.94 Z M 148.41 137.81 L 148.84 138.64 C 149.24 139.41 150.18 139.71 150.94 139.31 C 151.71 138.92 152.01 137.98 151.61 137.21 L 151.18 136.38 C 150.79 135.61 149.85 135.31 149.08 135.71 C 148.32 136.10 148.02 137.05 148.41 137.81 Z M 148.84 138.65 L 149.26 139.45 C 149.65 140.21 150.60 140.51 151.36 140.11 C 152.13 139.72 152.43 138.77 152.03 138.01 L 151.61 137.21 C 151.22 136.44 150.27 136.14 149.51 136.54 C 148.74 136.94 148.44 137.88 148.84 138.65 Z M 149.26 139.45 L 149.72 140.33 C 150.13 141.10 151.07 141.39 151.83 140.99 C 152.59 140.58 152.89 139.64 152.49 138.88 L 152.02 138.00 C 151.62 137.24 150.68 136.94 149.91 137.35 C 149.15 137.75 148.86 138.69 149.26 139.45 Z M 149.73 140.34 L 150.22 141.26 C 150.63 142.02 151.57 142.31 152.33 141.90 C 153.09 141.49 153.38 140.55 152.97 139.79 L 152.48 138.87 C 152.07 138.11 151.13 137.82 150.37 138.23 C 149.61 138.64 149.32 139.58 149.73 140.34 Z M 150.22 141.27 L 150.71 142.16 C 151.12 142.91 152.06 143.20 152.82 142.78 C 153.58 142.37 153.86 141.43 153.45 140.67 L 152.97 139.78 C 152.56 139.02 151.61 138.74 150.85 139.15 C 150.09 139.56 149.81 140.51 150.22 141.27 Z M 150.71 142.16 L 151.18 143.02 C 151.59 143.77 152.54 144.05 153.29 143.64 C 154.05 143.23 154.33 142.28 153.92 141.52 L 153.45 140.66 C 153.04 139.91 152.09 139.63 151.33 140.04 C 150.57 140.45 150.29 141.40 150.71 142.16 Z M 151.18 143.02 L 151.63 143.84 C 152.04 144.60 152.99 144.88 153.74 144.46 C 154.50 144.05 154.78 143.10 154.37 142.35 L 153.92 141.52 C 153.50 140.76 152.55 140.48 151.80 140.90 C 151.04 141.31 150.76 142.26 151.18 143.02 Z M 151.63 143.84 L 152.14 144.78 C 152.55 145.53 153.50 145.81 154.25 145.40 C 155.01 144.99 155.29 144.04 154.88 143.28 L 154.37 142.35 C 153.96 141.59 153.01 141.31 152.25 141.72 C 151.49 142.13 151.21 143.08 151.63 143.84 Z M 152.14 144.78 L 152.62 145.66 C 153.03 146.42 153.98 146.70 154.74 146.28 C 155.49 145.87 155.77 144.92 155.36 144.17 L 154.88 143.28 C 154.46 142.52 153.51 142.25 152.76 142.66 C 152.00 143.07 151.72 144.02 152.14 144.78 Z M 152.62 145.67 L 153.09 146.51 C 153.51 147.27 154.46 147.54 155.21 147.12 C 155.97 146.71 156.24 145.76 155.82 145.00 L 155.36 144.16 C 154.94 143.40 153.99 143.13 153.23 143.55 C 152.48 143.96 152.21 144.91 152.62 145.67 Z M 153.10 146.53 L 153.57 147.37 C 154.00 148.12 154.95 148.38 155.70 147.96 C 156.45 147.53 156.71 146.58 156.29 145.83 L 155.81 144.99 C 155.39 144.24 154.44 143.97 153.69 144.40 C 152.94 144.82 152.67 145.78 153.10 146.53 Z M 153.58 147.38 L 154.09 148.26 C 154.53 149.01 155.48 149.26 156.23 148.83 C 156.97 148.39 157.23 147.44 156.79 146.69 L 156.28 145.81 C 155.85 145.07 154.89 144.82 154.15 145.25 C 153.40 145.68 153.15 146.64 153.58 147.38 Z M 154.10 148.27 L 154.60 149.13 C 155.04 149.87 156.00 150.12 156.74 149.68 C 157.48 149.24 157.73 148.29 157.29 147.54 L 156.79 146.68 C 156.35 145.94 155.39 145.69 154.65 146.13 C 153.91 146.57 153.66 147.53 154.10 148.27 Z M 154.60 149.13 L 155.10 149.97 C 155.54 150.72 156.50 150.96 157.24 150.53 C 157.98 150.09 158.23 149.13 157.79 148.39 L 157.29 147.54 C 156.86 146.80 155.90 146.55 155.16 146.99 C 154.41 147.43 154.17 148.39 154.60 149.13 Z M 155.10 149.96 L 155.59 150.82 C 156.02 151.57 156.98 151.82 157.73 151.39 C 158.47 150.96 158.73 150.00 158.29 149.25 L 157.80 148.40 C 157.36 147.65 156.41 147.40 155.66 147.83 C 154.92 148.26 154.66 149.22 155.10 149.96 Z M 155.59 150.81 L 156.08 151.67 C 156.50 152.42 157.45 152.68 158.20 152.26 C 158.95 151.83 159.22 150.88 158.79 150.13 L 158.30 149.27 C 157.87 148.52 156.92 148.25 156.17 148.68 C 155.42 149.11 155.16 150.06 155.59 150.81 Z M 156.07 151.66 L 156.56 152.54 C 156.98 153.29 157.93 153.56 158.68 153.14 C 159.44 152.72 159.71 151.77 159.29 151.02 L 158.80 150.14 C 158.38 149.39 157.42 149.12 156.67 149.54 C 155.92 149.96 155.65 150.91 156.07 151.66 Z M 156.56 152.53 L 157.04 153.41 C 157.45 154.16 158.40 154.44 159.16 154.02 C 159.91 153.61 160.19 152.66 159.77 151.90 L 159.29 151.02 C 158.88 150.27 157.93 149.99 157.17 150.41 C 156.42 150.82 156.14 151.77 156.56 152.53 Z M 157.04 153.40 L 157.52 154.28 C 157.93 155.04 158.88 155.32 159.63 154.91 C 160.39 154.49 160.67 153.55 160.26 152.79 L 159.78 151.91 C 159.36 151.15 158.42 150.87 157.66 151.28 C 156.90 151.70 156.62 152.65 157.04 153.40 Z M 157.52 154.29 L 158.00 155.17 C 158.41 155.93 159.36 156.21 160.12 155.79 C 160.88 155.38 161.15 154.43 160.74 153.67 L 160.26 152.79 C 159.84 152.03 158.90 151.75 158.14 152.17 C 157.38 152.58 157.10 153.53 157.52 154.29 Z M 158.00 155.18 L 158.49 156.05 C 158.90 156.81 159.85 157.08 160.61 156.67 C 161.36 156.25 161.64 155.30 161.22 154.55 L 160.74 153.67 C 160.32 152.91 159.37 152.64 158.62 153.05 C 157.86 153.47 157.59 154.42 158.00 155.18 Z M 158.50 156.08 L 159.01 156.97 C 159.44 157.72 160.39 157.97 161.14 157.55 C 161.89 157.12 162.15 156.16 161.72 155.41 L 161.21 154.52 C 160.78 153.77 159.83 153.52 159.08 153.94 C 158.33 154.37 158.07 155.33 158.50 156.08 Z M 159.05 157.04 L 159.59 157.87 C 160.06 158.60 161.03 158.81 161.75 158.34 C 162.48 157.87 162.68 156.91 162.22 156.18 L 161.68 155.34 C 161.21 154.62 160.24 154.41 159.52 154.88 C 158.79 155.35 158.59 156.31 159.05 157.04 Z M 159.68 157.99 L 160.28 158.76 C 160.81 159.43 161.79 159.55 162.47 159.02 C 163.15 158.48 163.27 157.50 162.73 156.83 L 162.13 156.06 C 161.60 155.38 160.62 155.27 159.94 155.80 C 159.26 156.33 159.14 157.32 159.68 157.99 Z M 160.41 158.90 L 161.11 159.59 C 161.73 160.20 162.72 160.19 163.32 159.58 C 163.93 158.96 163.92 157.97 163.30 157.37 L 162.60 156.68 C 161.99 156.07 161.00 156.08 160.39 156.70 C 159.79 157.31 159.80 158.30 160.41 158.90 Z M 161.23 159.70 L 162.01 160.32 C 162.68 160.86 163.67 160.75 164.20 160.08 C 164.74 159.41 164.64 158.43 163.96 157.89 L 163.18 157.26 C 162.51 156.72 161.53 156.83 160.99 157.51 C 160.45 158.18 160.56 159.16 161.23 159.70 Z M 162.08 160.38 L 162.90 160.96 C 163.60 161.46 164.58 161.30 165.08 160.60 C 165.58 159.89 165.42 158.92 164.71 158.42 L 163.89 157.83 C 163.19 157.33 162.21 157.50 161.71 158.20 C 161.21 158.90 161.38 159.88 162.08 160.38 Z M 162.92 160.97 L 163.18 161.15 C 163.89 161.64 164.86 161.46 165.35 160.75 C 165.84 160.04 165.66 159.07 164.95 158.58 L 164.69 158.40 C 163.98 157.92 163.01 158.09 162.52 158.80 C 162.03 159.51 162.21 160.49 162.92 160.97 Z"
      fill="black"
      fill-rule="nonzero" /><path d="M 233.04 92.98 L 233.01 91.92 C 233.00 91.06 232.28 90.37 231.42 90.39 C 230.56 90.41 229.88 91.12 229.89 91.98 L 229.91 93.04 C 229.93 93.90 230.64 94.58 231.51 94.57 C 232.37 94.55 233.05 93.84 233.04 92.98 Z M 233.00 91.72 L 232.85 90.74 C 232.72 89.89 231.92 89.30 231.07 89.43 C 230.22 89.56 229.63 90.35 229.76 91.21 L 229.91 92.19 C 230.04 93.04 230.84 93.63 231.69 93.50 C 232.54 93.37 233.13 92.57 233.00 91.72 Z M 232.71 90.29 L 232.31 89.47 C 231.94 88.69 231.00 88.37 230.23 88.74 C 229.45 89.12 229.13 90.05 229.50 90.83 L 229.90 91.65 C 230.28 92.43 231.21 92.75 231.99 92.38 C 232.76 92.00 233.09 91.07 232.71 90.29 Z M 231.94 88.98 L 231.25 88.36 C 230.61 87.79 229.62 87.85 229.05 88.49 C 228.48 89.14 228.53 90.12 229.18 90.70 L 229.87 91.31 C 230.51 91.89 231.50 91.83 232.07 91.18 C 232.65 90.54 232.59 89.55 231.94 88.98 Z M 230.90 88.13 L 229.99 87.68 C 229.22 87.30 228.28 87.62 227.90 88.39 C 227.52 89.17 227.84 90.10 228.61 90.48 L 229.53 90.93 C 230.30 91.31 231.23 90.99 231.62 90.22 C 232.00 89.45 231.68 88.51 230.90 88.13 Z M 229.75 87.59 L 228.74 87.28 C 227.92 87.04 227.05 87.51 226.80 88.33 C 226.55 89.16 227.02 90.03 227.85 90.27 L 228.85 90.58 C 229.68 90.82 230.55 90.36 230.80 89.53 C 231.04 88.70 230.58 87.83 229.75 87.59 Z M 228.59 87.25 L 227.64 87.07 C 226.79 86.91 225.98 87.46 225.82 88.31 C 225.66 89.16 226.21 89.97 227.06 90.13 L 228.00 90.31 C 228.85 90.47 229.67 89.92 229.83 89.07 C 229.99 88.22 229.43 87.41 228.59 87.25 Z M 227.54 87.05 L 226.55 86.93 C 225.70 86.83 224.92 87.44 224.81 88.29 C 224.71 89.15 225.32 89.93 226.17 90.03 L 227.16 90.15 C 228.02 90.25 228.80 89.64 228.90 88.79 C 229.00 87.93 228.40 87.15 227.54 87.05 Z M 226.49 86.92 L 225.46 86.84 C 224.60 86.76 223.84 87.40 223.77 88.26 C 223.70 89.12 224.34 89.88 225.20 89.95 L 226.23 90.04 C 227.09 90.11 227.85 89.47 227.92 88.61 C 227.99 87.75 227.35 87.00 226.49 86.92 Z M 225.44 86.84 L 224.45 86.76 C 223.59 86.70 222.84 87.35 222.78 88.21 C 222.72 89.07 223.36 89.82 224.22 89.88 L 225.22 89.95 C 226.08 90.01 226.82 89.36 226.88 88.50 C 226.95 87.64 226.30 86.90 225.44 86.84 Z M 224.43 86.76 L 223.43 86.70 C 222.57 86.64 221.83 87.30 221.78 88.16 C 221.72 89.02 222.37 89.76 223.23 89.82 L 224.23 89.88 C 225.10 89.93 225.84 89.28 225.89 88.42 C 225.95 87.56 225.30 86.82 224.43 86.76 Z M 223.42 86.70 L 222.41 86.64 C 221.55 86.60 220.81 87.26 220.76 88.12 C 220.72 88.98 221.38 89.72 222.24 89.76 L 223.25 89.82 C 224.11 89.86 224.85 89.20 224.89 88.34 C 224.94 87.48 224.28 86.75 223.42 86.70 Z M 222.39 86.64 L 221.39 86.60 C 220.52 86.57 219.80 87.24 219.76 88.10 C 219.73 88.96 220.40 89.69 221.26 89.72 L 222.26 89.76 C 223.12 89.80 223.85 89.13 223.88 88.27 C 223.92 87.41 223.25 86.68 222.39 86.64 Z M 221.35 86.60 L 220.38 86.58 C 219.52 86.57 218.81 87.26 218.80 88.12 C 218.78 88.98 219.47 89.69 220.33 89.71 L 221.30 89.72 C 222.16 89.74 222.87 89.05 222.88 88.19 C 222.90 87.33 222.21 86.61 221.35 86.60 Z M 220.28 86.59 L 219.32 86.63 C 218.46 86.68 217.79 87.41 217.83 88.27 C 217.88 89.13 218.61 89.79 219.47 89.75 L 220.43 89.70 C 221.29 89.66 221.96 88.93 221.92 88.07 C 221.87 87.21 221.14 86.54 220.28 86.59 Z M 219.15 86.65 L 218.16 86.81 C 217.31 86.94 216.73 87.74 216.86 88.59 C 217.00 89.44 217.80 90.03 218.65 89.89 L 219.64 89.73 C 220.49 89.60 221.07 88.80 220.94 87.95 C 220.80 87.10 220.00 86.52 219.15 86.65 Z M 217.96 86.85 L 216.95 87.15 C 216.13 87.40 215.66 88.26 215.90 89.09 C 216.15 89.92 217.01 90.39 217.84 90.14 L 218.85 89.85 C 219.67 89.60 220.15 88.73 219.90 87.91 C 219.66 87.08 218.79 86.61 217.96 86.85 Z M 216.79 87.21 L 215.93 87.58 C 215.13 87.91 214.76 88.83 215.10 89.62 C 215.44 90.42 216.36 90.79 217.15 90.45 L 218.01 90.08 C 218.80 89.75 219.17 88.83 218.83 88.04 C 218.50 87.24 217.58 86.87 216.79 87.21 Z M 215.82 87.63 L 214.93 88.09 C 214.17 88.49 213.87 89.43 214.27 90.19 C 214.67 90.96 215.61 91.26 216.38 90.86 L 217.26 90.40 C 218.02 90.00 218.32 89.06 217.92 88.29 C 217.52 87.53 216.58 87.23 215.82 87.63 Z M 214.85 88.13 L 213.97 88.66 C 213.23 89.11 212.99 90.07 213.44 90.81 C 213.88 91.55 214.84 91.79 215.58 91.34 L 216.46 90.81 C 217.20 90.37 217.44 89.41 216.99 88.67 C 216.55 87.93 215.59 87.69 214.85 88.13 Z M 213.91 88.71 L 213.04 89.28 C 212.33 89.76 212.13 90.73 212.61 91.45 C 213.09 92.16 214.06 92.36 214.78 91.88 L 215.64 91.30 C 216.36 90.82 216.55 89.85 216.07 89.13 C 215.59 88.42 214.62 88.23 213.91 88.71 Z M 212.99 89.32 L 212.17 89.92 C 211.47 90.43 211.32 91.41 211.83 92.10 C 212.34 92.80 213.32 92.95 214.01 92.44 L 214.83 91.84 C 215.53 91.33 215.68 90.35 215.17 89.66 C 214.66 88.96 213.68 88.81 212.99 89.32 Z M 212.12 89.96 L 211.36 90.56 C 210.68 91.10 210.57 92.08 211.11 92.76 C 211.64 93.43 212.62 93.54 213.30 93.01 L 214.06 92.40 C 214.74 91.87 214.85 90.88 214.32 90.21 C 213.78 89.53 212.80 89.42 212.12 89.96 Z M 211.31 90.60 L 210.58 91.23 C 209.93 91.79 209.85 92.77 210.41 93.43 C 210.97 94.08 211.96 94.16 212.61 93.60 L 213.34 92.97 C 214.00 92.41 214.08 91.43 213.52 90.77 C 212.96 90.12 211.97 90.04 211.31 90.60 Z M 210.54 91.26 L 209.82 91.92 C 209.18 92.50 209.14 93.49 209.72 94.13 C 210.30 94.76 211.29 94.81 211.92 94.23 L 212.65 93.57 C 213.29 92.98 213.33 92.00 212.75 91.36 C 212.17 90.72 211.18 90.68 210.54 91.26 Z M 209.79 91.95 L 209.05 92.66 C 208.43 93.25 208.41 94.24 209.01 94.86 C 209.61 95.49 210.59 95.51 211.22 94.91 L 211.95 94.20 C 212.57 93.60 212.59 92.61 212.00 91.99 C 211.40 91.37 210.41 91.35 209.79 91.95 Z M 209.03 92.67 L 208.29 93.42 C 207.68 94.02 207.67 95.01 208.28 95.62 C 208.89 96.23 209.88 96.24 210.49 95.63 L 211.24 94.89 C 211.85 94.28 211.85 93.29 211.24 92.68 C 210.63 92.07 209.64 92.07 209.03 92.67 Z M 208.28 93.43 L 207.58 94.14 C 206.98 94.75 206.98 95.74 207.60 96.34 C 208.21 96.95 209.20 96.94 209.81 96.33 L 210.50 95.62 C 211.11 95.00 211.10 94.01 210.48 93.41 C 209.87 92.80 208.88 92.81 208.28 93.43 Z M 207.57 94.15 L 206.86 94.89 C 206.26 95.51 206.28 96.50 206.90 97.10 C 207.52 97.69 208.51 97.67 209.11 97.05 L 209.82 96.31 C 210.42 95.69 210.40 94.70 209.78 94.11 C 209.15 93.51 208.17 93.53 207.57 94.15 Z M 206.84 94.90 L 206.14 95.65 C 205.55 96.28 205.58 97.27 206.21 97.86 C 206.84 98.45 207.82 98.42 208.41 97.79 L 209.12 97.04 C 209.71 96.41 209.68 95.42 209.05 94.83 C 208.42 94.24 207.43 94.27 206.84 94.90 Z M 206.12 95.67 L 205.44 96.42 C 204.86 97.06 204.90 98.05 205.54 98.63 C 206.18 99.21 207.16 99.16 207.74 98.53 L 208.43 97.78 C 209.01 97.14 208.96 96.15 208.33 95.57 C 207.69 94.99 206.70 95.03 206.12 95.67 Z M 205.42 96.44 L 204.77 97.18 C 204.20 97.82 204.27 98.81 204.91 99.38 C 205.56 99.95 206.55 99.89 207.12 99.24 L 207.76 98.51 C 208.33 97.86 208.27 96.87 207.62 96.30 C 206.98 95.73 205.99 95.80 205.42 96.44 Z M 204.75 97.20 L 204.11 97.96 C 203.56 98.62 203.65 99.60 204.31 100.16 C 204.97 100.71 205.95 100.63 206.51 99.97 L 207.14 99.21 C 207.69 98.55 207.61 97.57 206.95 97.01 C 206.29 96.46 205.30 96.54 204.75 97.20 Z M 204.08 98.00 L 203.47 98.78 C 202.94 99.46 203.06 100.44 203.74 100.98 C 204.41 101.51 205.40 101.39 205.93 100.71 L 206.54 99.93 C 207.07 99.25 206.95 98.26 206.27 97.73 C 205.59 97.20 204.61 97.32 204.08 98.00 Z M 203.43 98.84 L 202.87 99.62 C 202.37 100.32 202.53 101.29 203.24 101.80 C 203.94 102.30 204.91 102.13 205.41 101.43 L 205.97 100.65 C 206.47 99.95 206.31 98.98 205.60 98.47 C 204.90 97.97 203.93 98.14 203.43 98.84 Z M 202.83 99.68 L 202.31 100.49 C 201.84 101.22 202.05 102.18 202.78 102.65 C 203.50 103.12 204.47 102.91 204.93 102.18 L 205.46 101.37 C 205.92 100.64 205.71 99.68 204.99 99.21 C 204.26 98.74 203.30 98.95 202.83 99.68 Z M 202.27 100.55 L 201.76 101.43 C 201.32 102.18 201.58 103.14 202.32 103.57 C 203.07 104.00 204.02 103.75 204.46 103.00 L 204.97 102.12 C 205.40 101.37 205.15 100.42 204.41 99.99 C 203.66 99.55 202.70 99.81 202.27 100.55 Z M 201.73 101.48 L 201.25 102.37 C 200.85 103.13 201.13 104.08 201.89 104.49 C 202.65 104.89 203.60 104.61 204.01 103.85 L 204.48 102.96 C 204.89 102.20 204.60 101.25 203.84 100.84 C 203.08 100.44 202.14 100.72 201.73 101.48 Z M 201.24 102.41 L 200.79 103.29 C 200.40 104.06 200.71 105.00 201.48 105.39 C 202.25 105.78 203.19 105.47 203.58 104.70 L 204.02 103.81 C 204.41 103.04 204.10 102.11 203.33 101.72 C 202.57 101.33 201.63 101.64 201.24 102.41 Z M 200.78 103.32 L 200.33 104.25 C 199.95 105.02 200.27 105.96 201.05 106.33 C 201.83 106.71 202.76 106.39 203.14 105.61 L 203.59 104.68 C 203.96 103.90 203.64 102.97 202.86 102.59 C 202.09 102.22 201.15 102.54 200.78 103.32 Z M 200.32 104.27 L 199.88 105.21 C 199.51 105.99 199.85 106.92 200.63 107.29 C 201.41 107.65 202.34 107.32 202.70 106.54 L 203.15 105.59 C 203.51 104.81 203.17 103.88 202.39 103.52 C 201.61 103.15 200.68 103.49 200.32 104.27 Z M 199.87 105.23 L 199.45 106.16 C 199.09 106.94 199.44 107.87 200.22 108.23 C 201.01 108.58 201.93 108.23 202.29 107.45 L 202.71 106.52 C 203.07 105.73 202.72 104.81 201.93 104.45 C 201.15 104.10 200.22 104.44 199.87 105.23 Z M 199.44 106.17 L 199.05 107.06 C 198.70 107.85 199.06 108.77 199.84 109.12 C 200.63 109.47 201.56 109.11 201.90 108.32 L 202.30 107.43 C 202.64 106.65 202.29 105.72 201.50 105.38 C 200.71 105.03 199.79 105.38 199.44 106.17 Z M 199.04 107.07 L 198.61 108.07 C 198.27 108.87 198.64 109.78 199.43 110.12 C 200.22 110.46 201.14 110.10 201.48 109.30 L 201.91 108.31 C 202.25 107.51 201.88 106.60 201.09 106.26 C 200.30 105.92 199.38 106.28 199.04 107.07 Z M 198.61 108.09 L 198.19 109.09 C 197.86 109.88 198.24 110.79 199.04 111.13 C 199.83 111.46 200.74 111.08 201.08 110.28 L 201.49 109.29 C 201.82 108.49 201.44 107.58 200.65 107.25 C 199.85 106.92 198.94 107.29 198.61 108.09 Z M 198.19 109.10 L 197.82 110.00 C 197.50 110.79 197.88 111.70 198.68 112.03 C 199.48 112.35 200.39 111.97 200.72 111.17 L 201.08 110.27 C 201.40 109.47 201.02 108.56 200.22 108.24 C 199.42 107.91 198.51 108.30 198.19 109.10 Z M 197.82 110.00 L 197.48 110.84 C 197.16 111.64 197.54 112.55 198.34 112.87 C 199.14 113.19 200.05 112.81 200.38 112.01 L 200.72 111.17 C 201.04 110.37 200.65 109.46 199.85 109.13 C 199.06 108.81 198.15 109.20 197.82 110.00 Z M 197.49 110.83 L 197.14 111.68 C 196.81 112.47 197.19 113.39 197.98 113.71 C 198.78 114.04 199.69 113.66 200.02 112.87 L 200.37 112.02 C 200.70 111.22 200.32 110.31 199.53 109.98 C 198.73 109.65 197.82 110.03 197.49 110.83 Z M 197.14 111.66 L 196.76 112.56 C 196.42 113.36 196.78 114.27 197.58 114.61 C 198.37 114.95 199.29 114.58 199.63 113.79 L 200.01 112.89 C 200.35 112.09 199.99 111.17 199.19 110.84 C 198.40 110.50 197.48 110.86 197.14 111.66 Z M 196.76 112.55 L 196.36 113.46 C 196.01 114.25 196.37 115.17 197.16 115.52 C 197.95 115.87 198.87 115.51 199.22 114.72 L 199.62 113.81 C 199.97 113.02 199.61 112.10 198.82 111.75 C 198.03 111.40 197.11 111.76 196.76 112.55 Z M 196.36 113.45 L 195.95 114.38 C 195.60 115.16 195.95 116.09 196.73 116.44 C 197.52 116.79 198.45 116.44 198.80 115.65 L 199.21 114.73 C 199.57 113.95 199.21 113.02 198.43 112.67 C 197.64 112.32 196.72 112.67 196.36 113.45 Z M 195.95 114.37 L 195.54 115.29 C 195.18 116.07 195.53 117.00 196.31 117.35 C 197.09 117.71 198.02 117.36 198.38 116.58 L 198.80 115.66 C 199.15 114.88 198.81 113.95 198.02 113.59 C 197.24 113.24 196.31 113.58 195.95 114.37 Z M 195.54 115.28 L 195.12 116.19 C 194.76 116.97 195.10 117.90 195.89 118.26 C 196.67 118.62 197.60 118.27 197.96 117.49 L 198.37 116.59 C 198.74 115.80 198.39 114.88 197.61 114.51 C 196.83 114.15 195.90 114.50 195.54 115.28 Z M 195.13 116.18 L 194.70 117.08 C 194.34 117.86 194.67 118.79 195.45 119.16 C 196.24 119.52 197.16 119.19 197.53 118.41 L 197.95 117.50 C 198.32 116.72 197.98 115.79 197.20 115.42 C 196.42 115.06 195.49 115.40 195.13 116.18 Z M 194.71 117.07 L 194.27 117.98 C 193.90 118.76 194.23 119.69 195.01 120.06 C 195.79 120.43 196.72 120.10 197.09 119.32 L 197.52 118.42 C 197.90 117.64 197.57 116.71 196.79 116.34 C 196.01 115.96 195.08 116.29 194.71 117.07 Z M 194.28 117.96 L 193.84 118.87 C 193.46 119.65 193.78 120.58 194.55 120.96 C 195.33 121.34 196.26 121.02 196.64 120.25 L 197.09 119.34 C 197.46 118.56 197.14 117.63 196.37 117.25 C 195.60 116.87 194.66 117.19 194.28 117.96 Z M 193.84 118.86 L 193.39 119.77 C 193.00 120.54 193.31 121.48 194.08 121.87 C 194.85 122.25 195.79 121.94 196.18 121.17 L 196.63 120.26 C 197.02 119.49 196.71 118.55 195.94 118.16 C 195.17 117.78 194.23 118.09 193.84 118.86 Z M 193.39 119.76 L 192.93 120.65 C 192.54 121.42 192.84 122.36 193.61 122.75 C 194.37 123.15 195.31 122.85 195.71 122.08 L 196.17 121.18 C 196.56 120.42 196.26 119.48 195.50 119.08 C 194.73 118.69 193.79 118.99 193.39 119.76 Z M 192.94 120.64 L 192.48 121.51 C 192.08 122.27 192.37 123.22 193.14 123.62 C 193.90 124.02 194.84 123.73 195.24 122.96 L 195.70 122.09 C 196.10 121.33 195.81 120.39 195.05 119.98 C 194.28 119.58 193.34 119.88 192.94 120.64 Z M 192.49 121.50 L 192.02 122.37 C 191.61 123.13 191.89 124.08 192.65 124.49 C 193.41 124.90 194.36 124.61 194.77 123.85 L 195.24 122.98 C 195.65 122.22 195.36 121.27 194.60 120.86 C 193.84 120.45 192.89 120.74 192.49 121.50 Z M 192.03 122.36 L 191.54 123.24 C 191.12 124.00 191.40 124.95 192.15 125.36 C 192.91 125.78 193.86 125.50 194.28 124.75 L 194.76 123.86 C 195.18 123.11 194.90 122.16 194.15 121.74 C 193.39 121.33 192.44 121.60 192.03 122.36 Z M 191.55 123.23 L 191.06 124.09 C 190.64 124.84 190.90 125.79 191.65 126.22 C 192.40 126.64 193.35 126.38 193.78 125.63 L 194.27 124.76 C 194.69 124.01 194.43 123.06 193.68 122.64 C 192.93 122.21 191.97 122.48 191.55 123.23 Z M 191.07 124.07 L 190.57 124.92 C 190.14 125.67 190.39 126.62 191.13 127.06 C 191.88 127.49 192.83 127.24 193.27 126.50 L 193.77 125.65 C 194.20 124.90 193.95 123.94 193.21 123.51 C 192.46 123.07 191.51 123.33 191.07 124.07 Z M 190.58 124.90 L 190.08 125.73 C 189.64 126.47 189.88 127.43 190.61 127.88 C 191.35 128.32 192.31 128.08 192.76 127.35 L 193.26 126.52 C 193.70 125.78 193.47 124.82 192.73 124.37 C 191.99 123.93 191.03 124.17 190.58 124.90 Z M 190.09 125.72 L 189.58 126.55 C 189.12 127.29 189.35 128.25 190.09 128.70 C 190.82 129.16 191.78 128.93 192.23 128.19 L 192.75 127.36 C 193.20 126.62 192.97 125.66 192.24 125.21 C 191.51 124.76 190.54 124.99 190.09 125.72 Z M 189.58 126.55 L 189.05 127.41 C 188.59 128.14 188.82 129.10 189.55 129.56 C 190.28 130.01 191.24 129.79 191.70 129.05 L 192.23 128.20 C 192.69 127.47 192.46 126.50 191.73 126.05 C 191.00 125.59 190.04 125.82 189.58 126.55 Z M 189.05 127.41 L 188.50 128.30 C 188.04 129.03 188.27 129.99 189.00 130.44 C 189.74 130.90 190.70 130.67 191.15 129.94 L 191.70 129.05 C 192.15 128.32 191.93 127.36 191.19 126.90 C 190.46 126.45 189.50 126.68 189.05 127.41 Z M 188.49 128.30 L 188.01 129.09 C 187.56 129.83 187.79 130.79 188.53 131.24 C 189.27 131.69 190.23 131.45 190.68 130.72 L 191.16 129.93 C 191.61 129.20 191.37 128.23 190.64 127.78 C 189.90 127.34 188.94 127.57 188.49 128.30 Z M 188.01 129.10 L 187.51 129.92 C 187.06 130.66 187.30 131.62 188.04 132.06 C 188.78 132.51 189.74 132.27 190.18 131.53 L 190.68 130.71 C 191.13 129.97 190.89 129.01 190.15 128.57 C 189.41 128.12 188.45 128.36 188.01 129.10 Z M 187.51 129.93 L 186.99 130.79 C 186.55 131.53 186.79 132.49 187.53 132.93 C 188.27 133.38 189.23 133.13 189.67 132.39 L 190.19 131.53 C 190.63 130.79 190.39 129.83 189.65 129.39 C 188.91 128.95 187.95 129.19 187.51 129.93 Z M 186.99 130.80 L 186.45 131.71 C 186.01 132.46 186.26 133.41 187.00 133.85 C 187.74 134.29 188.70 134.04 189.14 133.30 L 189.68 132.39 C 190.11 131.64 189.87 130.69 189.12 130.25 C 188.38 129.81 187.42 130.06 186.99 130.80 Z M 186.44 131.72 L 185.92 132.61 C 185.49 133.36 185.74 134.31 186.48 134.75 C 187.23 135.18 188.18 134.93 188.62 134.19 L 189.14 133.30 C 189.57 132.55 189.32 131.59 188.58 131.16 C 187.84 130.72 186.88 130.98 186.44 131.72 Z M 185.92 132.62 L 185.41 133.49 C 184.98 134.24 185.24 135.19 185.98 135.62 C 186.73 136.06 187.68 135.80 188.12 135.06 L 188.62 134.18 C 189.05 133.44 188.80 132.48 188.05 132.05 C 187.31 131.62 186.35 131.87 185.92 132.62 Z M 185.41 133.50 L 184.90 134.38 C 184.47 135.13 184.73 136.08 185.48 136.51 C 186.23 136.94 187.18 136.68 187.61 135.94 L 188.12 135.05 C 188.55 134.30 188.29 133.35 187.54 132.92 C 186.79 132.49 185.84 132.75 185.41 133.50 Z M 184.90 134.39 L 184.40 135.27 C 183.97 136.02 184.23 136.98 184.98 137.40 C 185.73 137.83 186.68 137.56 187.11 136.81 L 187.61 135.93 C 188.04 135.18 187.78 134.23 187.03 133.80 C 186.28 133.38 185.32 133.64 184.90 134.39 Z M 184.39 135.28 L 183.91 136.15 C 183.48 136.90 183.75 137.85 184.51 138.27 C 185.26 138.69 186.21 138.42 186.63 137.67 L 187.11 136.81 C 187.54 136.06 187.27 135.10 186.52 134.68 C 185.76 134.26 184.81 134.53 184.39 135.28 Z M 183.90 136.16 L 183.42 137.03 C 183.00 137.78 183.28 138.73 184.03 139.15 C 184.79 139.56 185.74 139.29 186.16 138.53 L 186.64 137.66 C 187.05 136.91 186.78 135.96 186.02 135.54 C 185.27 135.13 184.32 135.40 183.90 136.16 Z M 183.42 137.04 L 182.93 137.93 C 182.52 138.68 182.80 139.63 183.56 140.04 C 184.32 140.45 185.27 140.17 185.68 139.41 L 186.16 138.52 C 186.57 137.77 186.29 136.82 185.53 136.41 C 184.77 136.00 183.83 136.28 183.42 137.04 Z M 182.93 137.93 L 182.47 138.79 C 182.06 139.55 182.34 140.50 183.10 140.91 C 183.86 141.31 184.81 141.03 185.22 140.27 L 185.68 139.41 C 186.09 138.65 185.81 137.70 185.05 137.29 C 184.29 136.89 183.34 137.17 182.93 137.93 Z M 182.47 138.79 L 182.00 139.65 C 181.59 140.40 181.87 141.35 182.63 141.76 C 183.39 142.17 184.34 141.89 184.75 141.13 L 185.21 140.27 C 185.63 139.52 185.34 138.57 184.59 138.16 C 183.83 137.75 182.88 138.03 182.47 138.79 Z M 182.01 139.63 L 181.52 140.51 C 181.11 141.27 181.38 142.22 182.13 142.64 C 182.89 143.05 183.84 142.78 184.26 142.03 L 184.74 141.15 C 185.16 140.39 184.89 139.44 184.13 139.02 C 183.38 138.61 182.43 138.88 182.01 139.63 Z M 181.53 140.50 L 181.03 141.38 C 180.60 142.13 180.87 143.08 181.62 143.51 C 182.37 143.93 183.32 143.67 183.75 142.92 L 184.25 142.04 C 184.67 141.29 184.41 140.34 183.66 139.91 C 182.91 139.49 181.96 139.75 181.53 140.50 Z M 181.04 141.36 L 180.52 142.26 C 180.08 143.00 180.33 143.96 181.08 144.39 C 181.82 144.83 182.78 144.58 183.21 143.83 L 183.74 142.94 C 184.17 142.20 183.92 141.24 183.18 140.80 C 182.43 140.37 181.48 140.62 181.04 141.36 Z M 180.53 142.24 L 180.00 143.12 C 179.55 143.86 179.79 144.82 180.53 145.27 C 181.27 145.71 182.23 145.47 182.67 144.73 L 183.20 143.85 C 183.65 143.11 183.41 142.15 182.67 141.71 C 181.93 141.26 180.97 141.50 180.53 142.24 Z M 180.01 143.11 L 179.48 143.95 C 179.03 144.68 179.25 145.64 179.99 146.10 C 180.72 146.55 181.68 146.33 182.14 145.60 L 182.66 144.75 C 183.11 144.02 182.89 143.06 182.16 142.60 C 181.42 142.15 180.46 142.37 180.01 143.11 Z M 179.50 143.92 L 178.98 144.72 C 178.51 145.45 178.72 146.41 179.44 146.88 C 180.17 147.35 181.13 147.14 181.60 146.42 L 182.12 145.62 C 182.59 144.90 182.38 143.93 181.66 143.46 C 180.93 142.99 179.97 143.20 179.50 143.92 Z M 179.01 144.69 L 178.38 145.60 C 177.89 146.31 178.07 147.28 178.78 147.77 C 179.49 148.26 180.46 148.08 180.95 147.37 L 181.58 146.46 C 182.07 145.75 181.89 144.78 181.18 144.29 C 180.47 143.80 179.50 143.98 179.01 144.69 Z M 178.41 145.55 L 177.82 146.34 C 177.31 147.03 177.45 148.01 178.14 148.52 C 178.83 149.04 179.81 148.90 180.32 148.21 L 180.91 147.42 C 181.43 146.73 181.29 145.75 180.60 145.24 C 179.91 144.72 178.93 144.86 178.41 145.55 Z M 177.86 146.29 L 177.28 147.00 C 176.74 147.67 176.84 148.65 177.51 149.20 C 178.18 149.74 179.16 149.64 179.70 148.97 L 180.28 148.26 C 180.83 147.59 180.73 146.61 180.06 146.06 C 179.39 145.52 178.41 145.62 177.86 146.29 Z M 177.32 146.96 L 176.70 147.67 C 176.13 148.32 176.20 149.30 176.85 149.87 C 177.50 150.44 178.49 150.37 179.05 149.72 L 179.67 149.01 C 180.24 148.36 180.17 147.38 179.52 146.81 C 178.87 146.24 177.88 146.31 177.32 146.96 Z M 176.72 147.64 L 176.06 148.37 C 175.48 149.00 175.53 149.99 176.16 150.57 C 176.80 151.15 177.79 151.11 178.37 150.47 L 179.03 149.75 C 179.61 149.11 179.56 148.12 178.93 147.54 C 178.29 146.96 177.30 147.00 176.72 147.64 Z M 176.07 148.36 L 175.38 149.10 C 174.79 149.73 174.83 150.72 175.46 151.31 C 176.09 151.89 177.08 151.86 177.67 151.22 L 178.36 150.48 C 178.95 149.85 178.91 148.86 178.28 148.28 C 177.65 147.69 176.66 147.72 176.07 148.36 Z M 175.38 149.10 L 174.68 149.85 C 174.10 150.49 174.13 151.47 174.77 152.06 C 175.40 152.65 176.39 152.61 176.97 151.98 L 177.67 151.22 C 178.26 150.59 178.22 149.60 177.58 149.02 C 176.95 148.43 175.96 148.47 175.38 149.10 Z M 174.67 149.86 L 174.00 150.60 C 173.42 151.24 173.46 152.22 174.10 152.81 C 174.73 153.39 175.72 153.34 176.30 152.71 L 176.98 151.97 C 177.56 151.33 177.52 150.34 176.88 149.76 C 176.24 149.18 175.26 149.23 174.67 149.86 Z M 174.00 150.60 L 173.32 151.35 C 172.74 151.99 172.78 152.98 173.42 153.56 C 174.06 154.14 175.05 154.09 175.63 153.45 L 176.31 152.70 C 176.89 152.07 176.84 151.08 176.20 150.50 C 175.56 149.92 174.58 149.97 174.00 150.60 Z M 173.32 151.35 L 172.64 152.09 C 172.06 152.73 172.11 153.71 172.75 154.29 C 173.39 154.87 174.37 154.83 174.95 154.19 L 175.63 153.45 C 176.21 152.82 176.16 151.83 175.52 151.25 C 174.88 150.67 173.90 150.71 173.32 151.35 Z M 172.65 152.08 L 171.96 152.84 C 171.37 153.47 171.41 154.46 172.05 155.04 C 172.68 155.63 173.67 155.59 174.25 154.95 L 174.95 154.20 C 175.53 153.56 175.49 152.58 174.86 151.99 C 174.22 151.41 173.23 151.45 172.65 152.08 Z M 171.97 152.82 L 171.28 153.56 C 170.68 154.18 170.71 155.17 171.34 155.76 C 171.96 156.35 172.95 156.33 173.54 155.70 L 174.24 154.97 C 174.83 154.34 174.80 153.35 174.18 152.76 C 173.55 152.17 172.56 152.20 171.97 152.82 Z M 171.30 153.53 L 170.61 154.23 C 170.00 154.84 170.01 155.83 170.62 156.43 C 171.23 157.04 172.22 157.04 172.83 156.42 L 173.52 155.73 C 174.13 155.11 174.12 154.13 173.51 153.52 C 172.90 152.91 171.91 152.92 171.30 153.53 Z M 170.65 154.19 L 169.94 154.86 C 169.31 155.45 169.28 156.44 169.87 157.07 C 170.47 157.69 171.45 157.72 172.08 157.13 L 172.79 156.46 C 173.42 155.87 173.45 154.88 172.86 154.25 C 172.26 153.63 171.28 153.60 170.65 154.19 Z M 169.99 154.82 L 169.24 155.47 C 168.58 156.03 168.52 157.02 169.08 157.67 C 169.65 158.32 170.63 158.39 171.28 157.83 L 172.03 157.17 C 172.68 156.61 172.75 155.62 172.19 154.97 C 171.62 154.32 170.64 154.25 169.99 154.82 Z M 169.29 155.42 L 168.51 156.04 C 167.83 156.58 167.72 157.56 168.25 158.24 C 168.79 158.91 169.77 159.03 170.45 158.49 L 171.23 157.87 C 171.90 157.34 172.02 156.35 171.48 155.68 C 170.95 155.00 169.97 154.89 169.29 155.42 Z M 168.57 156.00 L 167.76 156.58 C 167.06 157.08 166.90 158.06 167.40 158.76 C 167.90 159.46 168.88 159.62 169.58 159.12 L 170.39 158.54 C 171.09 158.03 171.25 157.06 170.75 156.36 C 170.24 155.66 169.27 155.50 168.57 156.00 Z M 167.80 156.55 L 166.99 157.09 C 166.28 157.57 166.09 158.54 166.57 159.26 C 167.05 159.97 168.02 160.16 168.73 159.68 L 169.54 159.14 C 170.25 158.66 170.44 157.69 169.96 156.98 C 169.48 156.26 168.51 156.07 167.80 156.55 Z M 166.98 157.10 L 166.16 157.67 C 165.45 158.16 165.27 159.13 165.76 159.84 C 166.25 160.55 167.22 160.73 167.93 160.24 L 168.75 159.67 C 169.46 159.18 169.64 158.21 169.15 157.50 C 168.66 156.79 167.69 156.61 166.98 157.10 Z M 166.09 157.71 L 165.27 158.35 C 164.59 158.87 164.46 159.85 164.98 160.53 C 165.51 161.22 166.49 161.35 167.17 160.82 L 167.99 160.19 C 168.68 159.66 168.81 158.68 168.28 158.00 C 167.75 157.32 166.77 157.19 166.09 157.71 Z M 165.17 158.43 L 164.43 159.10 C 163.79 159.68 163.74 160.67 164.32 161.31 C 164.90 161.95 165.89 161.99 166.52 161.42 L 167.27 160.74 C 167.91 160.16 167.96 159.17 167.38 158.54 C 166.80 157.90 165.81 157.85 165.17 158.43 Z M 164.35 159.18 L 163.65 159.92 C 163.05 160.54 163.08 161.53 163.70 162.12 C 164.33 162.72 165.31 162.69 165.91 162.07 L 166.61 161.33 C 167.20 160.71 167.18 159.72 166.55 159.13 C 165.93 158.53 164.94 158.56 164.35 159.18 Z M 163.58 159.99 L 162.93 160.77 C 162.38 161.43 162.47 162.41 163.13 162.97 C 163.79 163.52 164.77 163.43 165.33 162.77 L 165.98 161.99 C 166.53 161.33 166.44 160.35 165.78 159.80 C 165.12 159.24 164.13 159.33 163.58 159.99 Z M 162.87 160.84 L 162.29 161.64 C 161.77 162.33 161.92 163.31 162.62 163.82 C 163.31 164.33 164.29 164.18 164.80 163.49 L 165.39 162.69 C 165.90 162.00 165.75 161.02 165.06 160.51 C 164.36 160.00 163.38 160.15 162.87 160.84 Z M 162.22 161.73 L 161.66 162.62 C 161.20 163.35 161.42 164.32 162.14 164.78 C 162.87 165.24 163.84 165.02 164.30 164.29 L 164.86 163.40 C 165.32 162.67 165.11 161.71 164.38 161.24 C 163.65 160.78 162.68 161.00 162.22 161.73 Z M 161.59 162.75 L 161.14 163.64 C 160.75 164.41 161.06 165.35 161.83 165.73 C 162.60 166.12 163.54 165.82 163.92 165.05 L 164.37 164.16 C 164.76 163.39 164.45 162.45 163.68 162.06 C 162.91 161.67 161.97 161.98 161.59 162.75 Z M 161.07 163.80 L 160.74 164.70 C 160.44 165.51 160.86 166.40 161.67 166.70 C 162.48 167.00 163.37 166.58 163.67 165.77 L 164.00 164.88 C 164.29 164.07 163.88 163.17 163.07 162.88 C 162.26 162.58 161.36 162.99 161.07 163.80 Z M 160.68 164.89 L 160.48 165.78 C 160.29 166.62 160.82 167.46 161.66 167.65 C 162.50 167.84 163.33 167.31 163.53 166.47 L 163.73 165.58 C 163.92 164.74 163.39 163.90 162.55 163.71 C 161.71 163.52 160.87 164.05 160.68 164.89 Z M 160.45 165.94 L 160.34 166.89 C 160.24 167.75 160.86 168.52 161.71 168.62 C 162.57 168.72 163.34 168.11 163.44 167.25 L 163.55 166.30 C 163.65 165.45 163.04 164.67 162.18 164.57 C 161.33 164.47 160.55 165.09 160.45 165.94 Z M 160.33 167.00 L 160.28 168.05 C 160.24 168.91 160.91 169.64 161.77 169.68 C 162.63 169.72 163.36 169.06 163.40 168.20 L 163.45 167.15 C 163.49 166.28 162.83 165.55 161.97 165.51 C 161.11 165.47 160.37 166.13 160.33 167.00 Z M 160.28 168.09 L 160.26 169.14 C 160.24 170.00 160.93 170.71 161.79 170.73 C 162.65 170.74 163.37 170.06 163.38 169.20 L 163.40 168.15 C 163.42 167.29 162.73 166.58 161.87 166.56 C 161.01 166.54 160.30 167.23 160.28 168.09 Z M 160.26 169.15 L 160.25 170.16 C 160.24 171.02 160.93 171.72 161.80 171.73 C 162.66 171.74 163.36 171.05 163.37 170.19 L 163.38 169.18 C 163.39 168.32 162.70 167.61 161.84 167.61 C 160.98 167.60 160.27 168.29 160.26 169.15 Z M 160.25 170.17 L 160.25 171.20 C 160.24 172.06 160.94 172.76 161.80 172.77 C 162.66 172.77 163.36 172.08 163.37 171.21 L 163.37 170.18 C 163.38 169.32 162.68 168.62 161.82 168.61 C 160.96 168.61 160.26 169.30 160.25 170.17 Z M 160.25 171.20 L 160.24 172.22 C 160.24 173.08 160.94 173.78 161.80 173.78 C 162.67 173.78 163.37 173.09 163.37 172.22 L 163.37 171.21 C 163.37 170.35 162.67 169.65 161.81 169.65 C 160.95 169.64 160.25 170.34 160.25 171.20 Z M 160.24 172.22 L 160.24 173.23 C 160.24 174.09 160.94 174.79 161.81 174.79 C 162.67 174.79 163.37 174.09 163.37 173.23 L 163.37 172.22 C 163.37 171.36 162.67 170.66 161.81 170.66 C 160.94 170.66 160.24 171.36 160.24 172.22 Z M 160.24 173.23 L 160.24 174.30 C 160.24 175.16 160.94 175.86 161.81 175.86 C 162.67 175.86 163.37 175.16 163.37 174.30 L 163.37 173.23 C 163.37 172.37 162.67 171.67 161.81 171.67 C 160.94 171.67 160.24 172.37 160.24 173.23 Z M 160.24 174.30 L 160.24 175.27 C 160.24 176.13 160.94 176.83 161.81 176.83 C 162.67 176.83 163.37 176.13 163.37 175.27 L 163.37 174.30 C 163.37 173.43 162.67 172.74 161.81 172.74 C 160.94 172.74 160.24 173.43 160.24 174.30 Z M 160.24 175.27 L 160.24 176.20 C 160.24 177.06 160.94 177.76 161.81 177.76 C 162.67 177.76 163.37 177.06 163.37 176.20 L 163.37 175.27 C 163.37 174.41 162.67 173.71 161.81 173.71 C 160.94 173.71 160.24 174.41 160.24 175.27 Z M 160.24 176.20 L 160.24 177.16 C 160.24 178.02 160.94 178.72 161.81 178.72 C 162.67 178.72 163.37 178.02 163.37 177.16 L 163.37 176.20 C 163.37 175.34 162.67 174.64 161.81 174.64 C 160.94 174.64 160.24 175.34 160.24 176.20 Z M 160.24 177.16 L 160.24 178.14 C 160.24 179.00 160.94 179.70 161.81 179.70 C 162.67 179.70 163.37 179.00 163.37 178.14 L 163.37 177.16 C 163.37 176.29 162.67 175.59 161.81 175.59 C 160.94 175.59 160.24 176.29 160.24 177.16 Z M 160.24 178.14 L 160.24 179.17 C 160.24 180.03 160.94 180.73 161.81 180.73 C 162.67 180.73 163.37 180.03 163.37 179.17 L 163.37 178.14 C 163.37 177.28 162.67 176.58 161.81 176.58 C 160.94 176.58 160.24 177.28 160.24 178.14 Z M 160.24 179.17 L 160.24 180.17 C 160.24 181.04 160.94 181.73 161.81 181.73 C 162.67 181.73 163.37 181.04 163.37 180.17 L 163.37 179.17 C 163.37 178.30 162.67 177.60 161.81 177.60 C 160.94 177.60 160.24 178.30 160.24 179.17 Z M 160.24 180.17 L 160.24 181.16 C 160.24 182.02 160.94 182.72 161.81 182.72 C 162.67 182.72 163.37 182.02 163.37 181.16 L 163.37 180.17 C 163.37 179.31 162.67 178.61 161.81 178.61 C 160.94 178.61 160.24 179.31 160.24 180.17 Z M 160.24 181.16 L 160.24 182.17 C 160.24 183.03 160.94 183.73 161.81 183.73 C 162.67 183.73 163.37 183.03 163.37 182.17 L 163.37 181.16 C 163.37 180.30 162.67 179.60 161.81 179.60 C 160.94 179.60 160.24 180.30 160.24 181.16 Z M 160.24 182.17 L 160.24 183.19 C 160.24 184.05 160.94 184.75 161.81 184.75 C 162.67 184.75 163.37 184.05 163.37 183.19 L 163.37 182.17 C 163.37 181.30 162.67 180.61 161.81 180.61 C 160.94 180.61 160.24 181.30 160.24 182.17 Z M 160.24 183.19 L 160.24 184.13 C 160.24 184.99 160.94 185.69 161.81 185.69 C 162.67 185.69 163.37 184.99 163.37 184.13 L 163.37 183.19 C 163.37 182.32 162.67 181.63 161.81 181.63 C 160.94 181.63 160.24 182.32 160.24 183.19 Z M 160.24 184.13 L 160.24 185.06 C 160.24 185.93 160.94 186.63 161.81 186.63 C 162.67 186.63 163.37 185.93 163.37 185.06 L 163.37 184.13 C 163.37 183.27 162.67 182.57 161.81 182.57 C 160.94 182.57 160.24 183.27 160.24 184.13 Z M 160.24 185.06 L 160.24 186.05 C 160.24 186.92 160.94 187.61 161.81 187.61 C 162.67 187.61 163.37 186.92 163.37 186.05 L 163.37 185.06 C 163.37 184.20 162.67 183.50 161.81 183.50 C 160.94 183.50 160.24 184.20 160.24 185.06 Z M 160.24 186.05 L 160.24 187.12 C 160.24 187.99 160.94 188.69 161.81 188.69 C 162.67 188.69 163.37 187.99 163.37 187.12 L 163.37 186.05 C 163.37 185.19 162.67 184.49 161.81 184.49 C 160.94 184.49 160.24 185.19 160.24 186.05 Z M 160.24 187.12 L 160.24 188.16 C 160.24 189.03 160.94 189.72 161.81 189.72 C 162.67 189.72 163.37 189.03 163.37 188.16 L 163.37 187.12 C 163.37 186.26 162.67 185.56 161.81 185.56 C 160.94 185.56 160.24 186.26 160.24 187.12 Z M 160.24 188.16 L 160.24 189.15 C 160.24 190.02 160.94 190.71 161.81 190.71 C 162.67 190.71 163.37 190.02 163.37 189.15 L 163.37 188.16 C 163.37 187.30 162.67 186.60 161.81 186.60 C 160.94 186.60 160.24 187.30 160.24 188.16 Z M 160.24 189.15 L 160.24 190.18 C 160.24 191.04 160.94 191.74 161.81 191.74 C 162.67 191.74 163.37 191.04 163.37 190.18 L 163.37 189.15 C 163.37 188.29 162.67 187.59 161.81 187.59 C 160.94 187.59 160.24 188.29 160.24 189.15 Z M 160.24 190.18 L 160.24 191.21 C 160.24 192.07 160.94 192.77 161.81 192.77 C 162.67 192.77 163.37 192.07 163.37 191.21 L 163.37 190.18 C 163.37 189.32 162.67 188.62 161.81 188.62 C 160.94 188.62 160.24 189.32 160.24 190.18 Z M 160.24 191.21 L 160.24 192.22 C 160.24 193.08 160.94 193.78 161.81 193.78 C 162.67 193.78 163.37 193.08 163.37 192.22 L 163.37 191.21 C 163.37 190.35 162.67 189.65 161.81 189.65 C 160.94 189.65 160.24 190.35 160.24 191.21 Z M 160.24 192.22 L 160.24 193.22 C 160.24 194.08 160.94 194.78 161.81 194.78 C 162.67 194.78 163.37 194.08 163.37 193.22 L 163.37 192.22 C 163.37 191.36 162.67 190.66 161.81 190.66 C 160.94 190.66 160.24 191.36 160.24 192.22 Z M 160.24 193.22 L 160.24 194.31 C 160.24 195.17 160.94 195.87 161.81 195.87 C 162.67 195.87 163.37 195.17 163.37 194.31 L 163.37 193.22 C 163.37 192.36 162.67 191.66 161.81 191.66 C 160.94 191.66 160.24 192.36 160.24 193.22 Z M 160.24 194.31 L 160.24 195.32 C 160.24 196.19 160.94 196.89 161.81 196.89 C 162.67 196.89 163.37 196.19 163.37 195.32 L 163.37 194.31 C 163.37 193.45 162.67 192.75 161.81 192.75 C 160.94 192.75 160.24 193.45 160.24 194.31 Z M 160.24 195.32 L 160.24 196.28 C 160.24 197.14 160.94 197.84 161.81 197.84 C 162.67 197.84 163.37 197.14 163.37 196.28 L 163.37 195.32 C 163.37 194.46 162.67 193.76 161.81 193.76 C 160.94 193.76 160.24 194.46 160.24 195.32 Z M 160.24 196.28 L 160.24 197.21 C 160.24 198.07 160.94 198.77 161.81 198.77 C 162.67 198.77 163.37 198.07 163.37 197.21 L 163.37 196.28 C 163.37 195.42 162.67 194.72 161.81 194.72 C 160.94 194.72 160.24 195.42 160.24 196.28 Z M 160.24 197.21 L 160.24 198.14 C 160.24 199.01 160.94 199.70 161.81 199.70 C 162.67 199.70 163.37 199.01 163.37 198.14 L 163.37 197.21 C 163.37 196.34 162.67 195.64 161.81 195.64 C 160.94 195.64 160.24 196.34 160.24 197.21 Z M 160.24 198.14 L 160.24 199.10 C 160.24 199.96 160.94 200.66 161.81 200.66 C 162.67 200.66 163.37 199.96 163.37 199.10 L 163.37 198.14 C 163.37 197.28 162.67 196.58 161.81 196.58 C 160.94 196.58 160.24 197.28 160.24 198.14 Z M 160.24 199.10 L 160.24 200.10 C 160.24 200.96 160.94 201.66 161.81 201.66 C 162.67 201.66 163.37 200.96 163.37 200.10 L 163.37 199.10 C 163.37 198.24 162.67 197.54 161.81 197.54 C 160.94 197.54 160.24 198.24 160.24 199.10 Z M 160.24 200.10 L 160.24 201.15 C 160.24 202.01 160.94 202.71 161.81 202.71 C 162.67 202.71 163.37 202.01 163.37 201.15 L 163.37 200.10 C 163.37 199.23 162.67 198.54 161.81 198.54 C 160.94 198.54 160.24 199.23 160.24 200.10 Z M 160.24 201.15 L 160.24 202.16 C 160.24 203.02 160.94 203.72 161.81 203.72 C 162.67 203.72 163.37 203.02 163.37 202.16 L 163.37 201.15 C 163.37 200.29 162.67 199.59 161.81 199.59 C 160.94 199.59 160.24 200.29 160.24 201.15 Z M 160.24 202.16 L 160.24 203.14 C 160.24 204.00 160.94 204.70 161.81 204.70 C 162.67 204.70 163.37 204.00 163.37 203.14 L 163.37 202.16 C 163.37 201.30 162.67 200.60 161.81 200.60 C 160.94 200.60 160.24 201.30 160.24 202.16 Z M 160.24 203.14 L 160.24 204.15 C 160.24 205.01 160.94 205.71 161.81 205.71 C 162.67 205.71 163.37 205.01 163.37 204.15 L 163.37 203.14 C 163.37 202.28 162.67 201.58 161.81 201.58 C 160.94 201.58 160.24 202.28 160.24 203.14 Z M 160.24 204.15 L 160.24 205.18 C 160.24 206.04 160.94 206.74 161.81 206.74 C 162.67 206.74 163.37 206.04 163.37 205.18 L 163.37 204.15 C 163.37 203.29 162.67 202.59 161.81 202.59 C 160.94 202.59 160.24 203.29 160.24 204.15 Z M 160.24 205.18 L 160.24 206.19 C 160.24 207.05 160.94 207.75 161.81 207.75 C 162.67 207.75 163.37 207.05 163.37 206.19 L 163.37 205.18 C 163.37 204.31 162.67 203.61 161.81 203.61 C 160.94 203.61 160.24 204.31 160.24 205.18 Z M 160.24 206.19 L 160.24 207.25 C 160.24 208.11 160.94 208.81 161.81 208.81 C 162.67 208.81 163.37 208.11 163.37 207.25 L 163.37 206.19 C 163.37 205.33 162.67 204.63 161.81 204.63 C 160.94 204.63 160.24 205.33 160.24 206.19 Z M 160.24 207.24 L 160.24 208.32 C 160.24 209.19 160.94 209.88 161.80 209.89 C 162.66 209.89 163.36 209.19 163.37 208.33 L 163.37 207.25 C 163.37 206.39 162.67 205.69 161.81 205.69 C 160.95 205.68 160.25 206.38 160.24 207.24 Z M 160.24 208.32 L 160.24 209.34 C 160.23 210.20 160.93 210.90 161.79 210.91 C 162.65 210.91 163.36 210.22 163.36 209.36 L 163.37 208.33 C 163.37 207.47 162.67 206.77 161.81 206.76 C 160.95 206.76 160.25 207.45 160.24 208.32 Z M 160.24 209.33 L 160.23 210.29 C 160.21 211.15 160.90 211.86 161.77 211.87 C 162.63 211.88 163.34 211.19 163.35 210.33 L 163.36 209.37 C 163.37 208.51 162.68 207.80 161.82 207.79 C 160.96 207.78 160.25 208.47 160.24 209.33 Z M 160.23 210.27 L 160.20 211.16 C 160.18 212.02 160.86 212.74 161.73 212.76 C 162.59 212.78 163.30 212.10 163.33 211.24 L 163.35 210.35 C 163.37 209.49 162.69 208.77 161.82 208.75 C 160.96 208.73 160.25 209.41 160.23 210.27 Z M 160.21 211.13 L 160.16 212.21 C 160.12 213.08 160.79 213.80 161.65 213.84 C 162.51 213.88 163.24 213.21 163.28 212.35 L 163.32 211.27 C 163.36 210.41 162.69 209.68 161.83 209.64 C 160.97 209.60 160.24 210.27 160.21 211.13 Z M 160.16 212.18 L 160.09 213.18 C 160.04 214.04 160.69 214.78 161.55 214.84 C 162.41 214.89 163.15 214.24 163.21 213.38 L 163.28 212.39 C 163.33 211.52 162.68 210.78 161.82 210.73 C 160.96 210.67 160.22 211.32 160.16 212.18 Z M 160.10 213.15 L 160.02 214.09 C 159.95 214.95 160.59 215.70 161.45 215.77 C 162.31 215.84 163.06 215.20 163.13 214.34 L 163.21 213.41 C 163.28 212.55 162.64 211.79 161.78 211.72 C 160.92 211.65 160.17 212.29 160.10 213.15 Z M 160.02 214.08 L 159.94 215.01 C 159.86 215.87 160.49 216.63 161.35 216.71 C 162.21 216.79 162.97 216.15 163.05 215.29 L 163.13 214.36 C 163.21 213.50 162.57 212.74 161.72 212.66 C 160.86 212.58 160.10 213.22 160.02 214.08 Z M 159.94 215.02 L 159.85 215.98 C 159.78 216.84 160.41 217.60 161.27 217.68 C 162.13 217.75 162.89 217.12 162.96 216.26 L 163.05 215.29 C 163.12 214.43 162.49 213.67 161.63 213.60 C 160.77 213.52 160.01 214.16 159.94 215.02 Z M 159.85 216.00 L 159.77 217.01 C 159.71 217.87 160.35 218.62 161.21 218.69 C 162.07 218.76 162.82 218.11 162.89 217.25 L 162.96 216.24 C 163.03 215.38 162.39 214.63 161.53 214.56 C 160.67 214.50 159.92 215.14 159.85 216.00 Z M 159.77 217.04 L 159.71 218.06 C 159.66 218.92 160.32 219.66 161.18 219.71 C 162.04 219.76 162.78 219.11 162.83 218.25 L 162.89 217.23 C 162.94 216.36 162.28 215.63 161.42 215.57 C 160.56 215.52 159.82 216.18 159.77 217.04 Z M 159.71 218.08 L 159.67 219.07 C 159.63 219.93 160.29 220.66 161.16 220.70 C 162.02 220.74 162.75 220.07 162.78 219.21 L 162.83 218.22 C 162.87 217.36 162.20 216.63 161.34 216.59 C 160.48 216.56 159.75 217.22 159.71 218.08 Z M 159.66 219.09 L 159.63 220.10 C 159.60 220.96 160.27 221.69 161.13 221.72 C 161.99 221.75 162.72 221.07 162.75 220.21 L 162.78 219.20 C 162.82 218.34 162.14 217.61 161.28 217.58 C 160.42 217.55 159.70 218.22 159.66 219.09 Z M 159.63 220.11 L 159.59 221.12 C 159.57 221.98 160.24 222.70 161.10 222.73 C 161.97 222.76 162.69 222.08 162.72 221.22 L 162.75 220.21 C 162.78 219.35 162.10 218.63 161.24 218.60 C 160.38 218.57 159.66 219.24 159.63 220.11 Z M 159.59 221.12 L 159.56 222.14 C 159.53 223.00 160.20 223.72 161.06 223.75 C 161.93 223.78 162.65 223.11 162.68 222.25 L 162.72 221.23 C 162.75 220.36 162.07 219.64 161.21 219.61 C 160.35 219.58 159.62 220.26 159.59 221.12 Z M 159.56 222.13 L 159.52 223.14 C 159.49 224.00 160.16 224.72 161.02 224.76 C 161.88 224.79 162.61 224.12 162.64 223.26 L 162.68 222.25 C 162.71 221.39 162.04 220.67 161.18 220.63 C 160.32 220.60 159.59 221.27 159.56 222.13 Z M 159.52 223.13 L 159.48 224.12 C 159.45 224.98 160.12 225.71 160.98 225.74 C 161.84 225.78 162.56 225.11 162.60 224.25 L 162.64 223.26 C 162.68 222.40 162.01 221.67 161.14 221.64 C 160.28 221.60 159.56 222.27 159.52 223.13 Z M 159.48 224.12 L 159.44 225.11 C 159.40 225.97 160.07 226.70 160.93 226.73 C 161.80 226.77 162.52 226.10 162.56 225.24 L 162.60 224.25 C 162.64 223.39 161.97 222.66 161.11 222.62 C 160.24 222.59 159.52 223.26 159.48 224.12 Z M 159.44 225.12 L 159.41 226.15 C 159.38 227.01 160.06 227.73 160.92 227.76 C 161.78 227.79 162.50 227.11 162.53 226.25 L 162.56 225.22 C 162.59 224.36 161.91 223.64 161.05 223.61 C 160.19 223.58 159.47 224.26 159.44 225.12 Z M 159.41 226.23 L 159.43 227.24 C 159.45 228.10 160.16 228.79 161.02 228.77 C 161.89 228.75 162.57 228.03 162.55 227.17 L 162.53 226.16 C 162.51 225.30 161.80 224.62 160.93 224.64 C 160.07 224.66 159.39 225.37 159.41 226.23 Z M 159.44 227.41 L 159.56 228.37 C 159.67 229.22 160.46 229.83 161.31 229.72 C 162.17 229.61 162.77 228.83 162.66 227.97 L 162.54 227.01 C 162.43 226.15 161.65 225.55 160.79 225.66 C 159.94 225.77 159.33 226.55 159.44 227.41 Z M 159.62 228.62 L 159.91 229.57 C 160.16 230.39 161.03 230.86 161.85 230.61 C 162.68 230.36 163.14 229.48 162.89 228.66 L 162.61 227.72 C 162.36 226.89 161.49 226.43 160.66 226.68 C 159.83 226.93 159.37 227.80 159.62 228.62 Z M 160.00 229.80 L 160.43 230.69 C 160.81 231.47 161.75 231.79 162.52 231.41 C 163.30 231.03 163.62 230.09 163.24 229.32 L 162.80 228.43 C 162.42 227.65 161.49 227.33 160.71 227.71 C 159.94 228.09 159.62 229.02 160.00 229.80 Z M 160.51 230.82 L 161.03 231.67 C 161.48 232.41 162.44 232.64 163.18 232.19 C 163.91 231.73 164.14 230.77 163.69 230.04 L 163.17 229.19 C 162.71 228.45 161.75 228.22 161.02 228.68 C 160.28 229.13 160.05 230.09 160.51 230.82 Z M 161.05 231.71 L 161.30 232.09 C 161.78 232.81 162.74 233.01 163.47 232.54 C 164.19 232.07 164.39 231.10 163.91 230.38 L 163.66 230.00 C 163.19 229.28 162.22 229.08 161.50 229.55 C 160.78 230.03 160.58 230.99 161.05 231.71 Z"
      fill="black"
      fill-rule="nonzero" /></svg>