<svg xmlns="http://www.w3.org/2000/svg" width="300" height="300" viewBox="0 0 300 300">
<path d="M 142.38 120.31 L 141.81 121.13 C 141.31 121.83 141.48 122.81 142.18 123.30 C 142.89 123.80 143.86 123.63 144.36 122.93 L 144.94 122.11 C 145.43 121.40 145.26 120.43 144.56 119.93 C 143.85 119.43 142.88 119.60 142.38 120.31 Z M 141.76 121.19 L 141.23 122.04 C 140.77 122.76 140.98 123.73 141.71 124.19 C 142.44 124.65 143.40 124.44 143.87 123.71 L 144.40 122.86 C 144.86 122.14 144.65 121.17 143.92 120.71 C 143.19 120.25 142.22 120.46 141.76 121.19 Z M 141.15 122.17 L 140.71 123.06 C 140.32 123.83 140.63 124.77 141.40 125.15 C 142.17 125.54 143.11 125.23 143.49 124.46 L 143.94 123.57 C 144.33 122.80 144.02 121.87 143.25 121.48 C 142.48 121.09 141.54 121.40 141.15 122.17 Z M 140.62 123.26 L 140.31 124.18 C 140.03 125.00 140.47 125.89 141.29 126.16 C 142.11 126.44 142.99 126.00 143.27 125.18 L 143.58 124.26 C 143.86 123.44 143.42 122.56 142.60 122.28 C 141.78 122.00 140.90 122.44 140.62 123.26 Z M 140.26 124.37 L 140.06 125.33 C 139.89 126.18 140.44 127.00 141.28 127.17 C 142.13 127.35 142.95 126.80 143.12 125.96 L 143.32 124.99 C 143.49 124.15 142.94 123.32 142.10 123.15 C 141.25 122.98 140.43 123.53 140.26 124.37 Z M 140.04 125.45 L 139.92 126.45 C 139.81 127.30 140.41 128.09 141.27 128.19 C 142.12 128.30 142.90 127.70 143.01 126.84 L 143.14 125.84 C 143.25 124.99 142.65 124.21 141.79 124.10 C 140.94 123.99 140.15 124.59 140.04 125.45 Z M 139.91 126.49 L 139.81 127.51 C 139.72 128.37 140.35 129.13 141.20 129.22 C 142.06 129.31 142.83 128.68 142.91 127.83 L 143.02 126.80 C 143.11 125.95 142.48 125.18 141.62 125.09 C 140.76 125.01 140.00 125.63 139.91 126.49 Z M 139.81 127.50 L 139.71 128.42 C 139.61 129.28 140.23 130.05 141.09 130.15 C 141.94 130.24 142.71 129.62 142.81 128.77 L 142.91 127.84 C 143.01 126.98 142.39 126.21 141.53 126.12 C 140.68 126.02 139.91 126.64 139.81 127.50 Z M 139.71 128.39 L 139.59 129.34 C 139.48 130.20 140.08 130.98 140.94 131.09 C 141.79 131.20 142.57 130.60 142.68 129.74 L 142.81 128.79 C 142.92 127.94 142.31 127.16 141.46 127.05 C 140.60 126.94 139.82 127.54 139.71 128.39 Z M 139.59 129.32 L 139.44 130.32 C 139.32 131.17 139.91 131.96 140.76 132.09 C 141.61 132.21 142.41 131.62 142.53 130.77 L 142.68 129.77 C 142.81 128.92 142.22 128.12 141.36 128.00 C 140.51 127.87 139.72 128.46 139.59 129.32 Z M 139.45 130.29 L 139.27 131.37 C 139.13 132.22 139.71 133.02 140.56 133.16 C 141.41 133.30 142.21 132.72 142.35 131.87 L 142.53 130.79 C 142.67 129.94 142.09 129.14 141.24 129.00 C 140.39 128.86 139.59 129.44 139.45 130.29 Z M 139.27 131.35 L 139.11 132.30 C 138.96 133.15 139.53 133.96 140.37 134.11 C 141.22 134.26 142.03 133.69 142.18 132.84 L 142.35 131.89 C 142.50 131.04 141.93 130.23 141.08 130.08 C 140.23 129.93 139.42 130.50 139.27 131.35 Z M 139.11 132.29 L 138.93 133.28 C 138.77 134.12 139.33 134.94 140.18 135.09 C 141.03 135.25 141.84 134.69 142.00 133.84 L 142.18 132.86 C 142.34 132.01 141.78 131.19 140.93 131.04 C 140.08 130.88 139.27 131.44 139.11 132.29 Z M 138.93 133.27 L 138.74 134.27 C 138.58 135.12 139.14 135.94 139.98 136.10 C 140.83 136.26 141.65 135.70 141.81 134.85 L 142.00 133.85 C 142.16 133.00 141.60 132.18 140.75 132.02 C 139.91 131.86 139.09 132.42 138.93 133.27 Z M 138.74 134.27 L 138.55 135.27 C 138.38 136.12 138.94 136.94 139.78 137.10 C 140.63 137.26 141.45 136.71 141.61 135.86 L 141.81 134.86 C 141.97 134.01 141.42 133.19 140.57 133.03 C 139.72 132.87 138.90 133.42 138.74 134.27 Z M 138.55 135.27 L 138.36 136.25 C 138.19 137.10 138.75 137.91 139.59 138.08 C 140.44 138.24 141.26 137.69 141.42 136.84 L 141.61 135.87 C 141.78 135.02 141.22 134.20 140.38 134.04 C 139.53 133.87 138.71 134.42 138.55 135.27 Z M 138.36 136.25 L 138.15 137.29 C 137.99 138.14 138.54 138.96 139.39 139.12 C 140.24 139.29 141.05 138.74 141.22 137.89 L 141.42 136.84 C 141.59 136.00 141.03 135.18 140.19 135.01 C 139.34 134.85 138.52 135.40 138.36 136.25 Z M 138.15 137.30 L 137.96 138.30 C 137.80 139.15 138.35 139.96 139.20 140.13 C 140.04 140.29 140.86 139.74 141.03 138.89 L 141.22 137.89 C 141.38 137.04 140.83 136.22 139.98 136.06 C 139.14 135.90 138.32 136.45 138.15 137.30 Z M 137.96 138.30 L 137.78 139.27 C 137.62 140.12 138.17 140.93 139.02 141.09 C 139.87 141.25 140.68 140.70 140.84 139.85 L 141.03 138.89 C 141.19 138.04 140.63 137.22 139.78 137.06 C 138.94 136.90 138.12 137.46 137.96 138.30 Z M 137.78 139.28 L 137.60 140.22 C 137.45 141.06 138.01 141.88 138.86 142.03 C 139.70 142.19 140.52 141.63 140.67 140.78 L 140.85 139.84 C 141.00 138.99 140.44 138.18 139.59 138.02 C 138.75 137.87 137.93 138.43 137.78 139.28 Z M 137.60 140.23 L 137.43 141.19 C 137.28 142.04 137.85 142.85 138.70 143.00 C 139.54 143.15 140.35 142.58 140.50 141.73 L 140.68 140.77 C 140.83 139.92 140.26 139.11 139.41 138.96 C 138.56 138.81 137.75 139.38 137.60 140.23 Z M 137.43 141.20 L 137.26 142.19 C 137.12 143.04 137.69 143.84 138.54 143.99 C 139.39 144.13 140.20 143.56 140.34 142.71 L 140.51 141.72 C 140.65 140.87 140.08 140.07 139.23 139.92 C 138.38 139.78 137.57 140.35 137.43 141.20 Z M 137.26 142.20 L 137.10 143.19 C 136.96 144.04 137.54 144.84 138.39 144.98 C 139.24 145.11 140.04 144.54 140.18 143.68 L 140.34 142.70 C 140.48 141.85 139.90 141.05 139.05 140.91 C 138.20 140.77 137.40 141.35 137.26 142.20 Z M 137.10 143.20 L 136.95 144.18 C 136.81 145.04 137.40 145.83 138.25 145.97 C 139.10 146.10 139.90 145.51 140.03 144.66 L 140.18 143.67 C 140.32 142.82 139.73 142.02 138.88 141.89 C 138.03 141.76 137.23 142.35 137.10 143.20 Z M 136.94 144.19 L 136.80 145.18 C 136.67 146.03 137.26 146.82 138.12 146.95 C 138.97 147.08 139.76 146.49 139.89 145.63 L 140.03 144.65 C 140.16 143.80 139.57 143.00 138.72 142.88 C 137.86 142.75 137.07 143.34 136.94 144.19 Z M 136.80 145.19 L 136.66 146.17 C 136.54 147.02 137.13 147.81 137.99 147.93 C 138.84 148.05 139.63 147.46 139.75 146.61 L 139.89 145.62 C 140.01 144.77 139.42 143.98 138.56 143.86 C 137.71 143.74 136.92 144.33 136.80 145.19 Z M 136.66 146.18 L 136.52 147.16 C 136.41 148.02 137.01 148.81 137.86 148.92 C 138.72 149.04 139.50 148.44 139.62 147.58 L 139.75 146.60 C 139.87 145.74 139.27 144.96 138.41 144.84 C 137.56 144.72 136.77 145.32 136.66 146.18 Z M 136.52 147.17 L 136.39 148.17 C 136.28 149.02 136.88 149.81 137.74 149.92 C 138.59 150.03 139.38 149.43 139.49 148.57 L 139.62 147.58 C 139.73 146.72 139.13 145.94 138.27 145.83 C 137.42 145.71 136.63 146.32 136.52 147.17 Z M 136.39 148.17 L 136.27 149.16 C 136.16 150.02 136.77 150.80 137.62 150.91 C 138.48 151.02 139.26 150.41 139.36 149.56 L 139.49 148.57 C 139.60 147.71 138.99 146.93 138.14 146.82 C 137.28 146.71 136.50 147.32 136.39 148.17 Z M 136.27 149.17 L 136.15 150.10 C 136.05 150.95 136.66 151.73 137.52 151.83 C 138.37 151.94 139.15 151.33 139.25 150.47 L 139.37 149.55 C 139.47 148.69 138.86 147.91 138.00 147.81 C 137.15 147.71 136.37 148.32 136.27 149.17 Z M 136.15 150.11 L 136.05 151.06 C 135.95 151.92 136.57 152.69 137.43 152.79 C 138.28 152.88 139.06 152.26 139.15 151.41 L 139.26 150.45 C 139.35 149.60 138.73 148.83 137.88 148.73 C 137.02 148.64 136.25 149.25 136.15 150.11 Z M 136.04 151.08 L 135.95 152.08 C 135.86 152.94 136.49 153.71 137.35 153.79 C 138.21 153.87 138.97 153.24 139.06 152.39 L 139.15 151.39 C 139.24 150.53 138.61 149.77 137.75 149.68 C 136.89 149.60 136.13 150.23 136.04 151.08 Z M 135.95 152.11 L 135.86 153.17 C 135.79 154.03 136.43 154.78 137.29 154.85 C 138.15 154.92 138.90 154.28 138.97 153.42 L 139.06 152.36 C 139.13 151.50 138.49 150.75 137.63 150.68 C 136.77 150.61 136.01 151.25 135.95 152.11 Z M 135.86 153.20 L 135.79 154.21 C 135.74 155.07 136.39 155.81 137.26 155.87 C 138.12 155.92 138.86 155.27 138.91 154.41 L 138.97 153.39 C 139.03 152.53 138.37 151.79 137.51 151.74 C 136.65 151.68 135.91 152.34 135.86 153.20 Z M 135.79 154.23 L 135.75 155.18 C 135.71 156.05 136.37 156.78 137.23 156.82 C 138.09 156.86 138.83 156.20 138.87 155.33 L 138.91 154.38 C 138.95 153.52 138.29 152.79 137.43 152.75 C 136.57 152.71 135.83 153.37 135.79 154.23 Z M 135.75 155.20 L 135.71 156.19 C 135.68 157.05 136.35 157.78 137.21 157.81 C 138.07 157.84 138.80 157.17 138.83 156.31 L 138.87 155.32 C 138.90 154.46 138.23 153.73 137.37 153.70 C 136.50 153.67 135.78 154.34 135.75 155.20 Z M 135.71 156.20 L 135.68 157.22 C 135.66 158.08 136.34 158.80 137.20 158.82 C 138.06 158.85 138.78 158.17 138.80 157.31 L 138.83 156.29 C 138.86 155.43 138.18 154.71 137.31 154.69 C 136.45 154.66 135.73 155.34 135.71 156.20 Z M 135.68 157.23 L 135.66 158.26 C 135.64 159.13 136.32 159.84 137.19 159.86 C 138.05 159.88 138.76 159.19 138.78 158.33 L 138.80 157.30 C 138.82 156.44 138.14 155.72 137.27 155.70 C 136.41 155.68 135.70 156.37 135.68 157.23 Z M 135.66 158.27 L 135.64 159.31 C 135.63 160.17 136.32 160.88 137.18 160.90 C 138.04 160.91 138.75 160.22 138.76 159.36 L 138.78 158.32 C 138.79 157.46 138.11 156.75 137.24 156.74 C 136.38 156.72 135.67 157.41 135.66 158.27 Z M 135.64 159.32 L 135.63 160.38 C 135.62 161.24 136.31 161.95 137.17 161.96 C 138.04 161.97 138.74 161.27 138.75 160.41 L 138.76 159.35 C 138.77 158.49 138.08 157.78 137.22 157.77 C 136.36 157.76 135.65 158.46 135.64 159.32 Z M 135.63 160.38 L 135.62 161.44 C 135.61 162.30 136.31 163.01 137.17 163.01 C 138.03 163.02 138.74 162.33 138.74 161.46 L 138.75 160.41 C 138.76 159.54 138.06 158.84 137.20 158.83 C 136.34 158.83 135.64 159.52 135.63 160.38 Z M 135.62 161.44 L 135.62 162.48 C 135.61 163.34 136.31 164.04 137.17 164.05 C 138.03 164.05 138.73 163.36 138.74 162.49 L 138.74 161.46 C 138.75 160.60 138.05 159.90 137.19 159.89 C 136.33 159.89 135.63 160.58 135.62 161.44 Z M 135.62 162.48 L 135.61 163.48 C 135.61 164.35 136.31 165.05 137.17 165.05 C 138.03 165.05 138.73 164.35 138.74 163.49 L 138.74 162.49 C 138.74 161.63 138.04 160.93 137.18 160.92 C 136.32 160.92 135.62 161.62 135.62 162.48 Z M 135.61 163.49 L 135.61 164.44 C 135.61 165.31 136.31 166.01 137.17 166.01 C 138.03 166.01 138.73 165.31 138.74 164.45 L 138.74 163.49 C 138.74 162.63 138.04 161.93 137.18 161.93 C 136.31 161.92 135.61 162.62 135.61 163.49 Z M 135.61 164.44 L 135.61 165.35 C 135.61 166.21 136.31 166.91 137.17 166.91 C 138.04 166.91 138.73 166.21 138.73 165.35 L 138.74 164.45 C 138.74 163.58 138.04 162.88 137.17 162.88 C 136.31 162.88 135.61 163.58 135.61 164.44 Z M 135.61 165.35 L 135.61 166.47 C 135.61 167.33 136.31 168.03 137.17 168.03 C 138.04 168.03 138.73 167.33 138.73 166.47 L 138.73 165.35 C 138.73 164.49 138.04 163.79 137.17 163.79 C 136.31 163.79 135.61 164.49 135.61 165.35 Z M 135.61 166.47 L 135.61 167.50 C 135.61 168.36 136.31 169.06 137.17 169.06 C 138.04 169.06 138.73 168.36 138.73 167.50 L 138.73 166.47 C 138.73 165.60 138.04 164.91 137.17 164.91 C 136.31 164.91 135.61 165.60 135.61 166.47 Z M 135.61 167.50 L 135.61 168.46 C 135.61 169.32 136.31 170.02 137.17 170.02 C 138.04 170.02 138.73 169.32 138.73 168.46 L 138.73 167.50 C 138.73 166.64 138.04 165.94 137.17 165.94 C 136.31 165.94 135.61 166.64 135.61 167.50 Z M 135.61 168.46 L 135.61 169.38 C 135.61 170.24 136.31 170.94 137.17 170.94 C 138.04 170.94 138.73 170.24 138.73 169.38 L 138.73 168.46 C 138.73 167.60 138.04 166.90 137.17 166.90 C 136.31 166.90 135.61 167.60 135.61 168.46 Z M 135.61 169.38 L 135.61 170.37 C 135.61 171.23 136.31 171.93 137.17 171.93 C 138.04 171.93 138.73 171.23 138.73 170.37 L 138.73 169.38 C 138.73 168.51 138.04 167.81 137.17 167.81 C 136.31 167.81 135.61 168.51 135.61 169.38 Z M 135.61 170.37 L 135.61 171.37 C 135.61 172.24 136.31 172.94 137.17 172.94 C 138.04 172.94 138.73 172.24 138.73 171.37 L 138.73 170.37 C 138.73 169.51 138.04 168.81 137.17 168.81 C 136.31 168.81 135.61 169.51 135.61 170.37 Z M 135.61 171.37 L 135.61 172.37 C 135.61 173.23 136.31 173.93 137.17 173.93 C 138.04 173.93 138.73 173.23 138.73 172.37 L 138.73 171.37 C 138.73 170.51 138.04 169.81 137.17 169.81 C 136.31 169.81 135.61 170.51 135.61 171.37 Z M 135.61 172.37 L 135.61 173.33 C 135.61 174.19 136.31 174.89 137.17 174.89 C 138.04 174.89 138.73 174.19 138.73 173.33 L 138.73 172.37 C 138.73 171.50 138.04 170.80 137.17 170.80 C 136.31 170.80 135.61 171.50 135.61 172.37 Z M 135.61 173.33 L 135.61 174.16 C 135.61 175.02 136.31 175.72 137.18 175.72 C 138.04 175.71 138.74 175.02 138.74 174.15 L 138.73 173.33 C 138.73 172.47 138.03 171.77 137.17 171.77 C 136.31 171.77 135.61 172.47 135.61 173.33 Z M 135.61 174.16 L 135.62 175.05 C 135.62 175.91 136.32 176.61 137.19 176.60 C 138.05 176.60 138.74 175.90 138.74 175.03 L 138.74 174.15 C 138.73 173.28 138.03 172.59 137.17 172.59 C 136.31 172.60 135.61 173.30 135.61 174.16 Z M 135.62 175.06 L 135.63 176.07 C 135.64 176.93 136.34 177.62 137.20 177.61 C 138.07 177.60 138.76 176.90 138.75 176.04 L 138.74 175.03 C 138.73 174.16 138.02 173.47 137.16 173.48 C 136.30 173.49 135.61 174.19 135.62 175.06 Z M 135.63 176.08 L 135.65 177.27 C 135.66 178.13 136.37 178.82 137.23 178.80 C 138.10 178.79 138.78 178.08 138.77 177.22 L 138.75 176.03 C 138.74 175.16 138.03 174.48 137.16 174.49 C 136.30 174.50 135.61 175.21 135.63 176.08 Z M 135.65 177.28 L 135.67 178.31 C 135.69 179.17 136.40 179.85 137.26 179.83 C 138.13 179.82 138.81 179.10 138.79 178.24 L 138.77 177.21 C 138.75 176.35 138.04 175.66 137.17 175.68 C 136.31 175.70 135.63 176.41 135.65 177.28 Z M 135.67 178.31 L 135.69 179.27 C 135.71 180.13 136.43 180.81 137.29 180.79 C 138.15 180.77 138.83 180.06 138.81 179.20 L 138.79 178.24 C 138.77 177.37 138.05 176.69 137.19 176.71 C 136.33 176.73 135.65 177.45 135.67 178.31 Z M 135.69 179.27 L 135.72 180.29 C 135.74 181.15 136.46 181.83 137.32 181.81 C 138.18 181.79 138.86 181.07 138.84 180.21 L 138.81 179.19 C 138.79 178.33 138.08 177.65 137.21 177.67 C 136.35 177.69 135.67 178.41 135.69 179.27 Z M 135.72 180.29 L 135.74 181.34 C 135.77 182.20 136.48 182.88 137.35 182.86 C 138.21 182.84 138.89 182.12 138.87 181.26 L 138.84 180.21 C 138.82 179.35 138.10 178.67 137.24 178.69 C 136.38 178.71 135.70 179.43 135.72 180.29 Z M 135.74 181.34 L 135.77 182.39 C 135.79 183.25 136.51 183.93 137.37 183.91 C 138.23 183.89 138.91 183.17 138.89 182.31 L 138.87 181.26 C 138.84 180.40 138.13 179.71 137.27 179.74 C 136.40 179.76 135.72 180.47 135.74 181.34 Z M 135.77 182.39 L 135.80 183.42 C 135.82 184.28 136.53 184.96 137.39 184.94 C 138.26 184.92 138.94 184.21 138.92 183.34 L 138.89 182.31 C 138.87 181.45 138.16 180.77 137.29 180.79 C 136.43 180.81 135.75 181.53 135.77 182.39 Z M 135.80 183.42 L 135.82 184.40 C 135.84 185.27 136.55 185.95 137.41 185.93 C 138.28 185.91 138.96 185.20 138.94 184.34 L 138.92 183.35 C 138.90 182.49 138.18 181.80 137.32 181.82 C 136.46 181.84 135.78 182.56 135.80 183.42 Z M 135.82 184.40 L 135.84 185.52 C 135.85 186.38 136.57 187.07 137.43 187.05 C 138.29 187.03 138.98 186.32 138.96 185.46 L 138.94 184.34 C 138.92 183.48 138.21 182.79 137.35 182.81 C 136.49 182.82 135.80 183.54 135.82 184.40 Z M 135.84 185.51 L 135.85 186.63 C 135.87 187.50 136.57 188.19 137.44 188.17 C 138.30 188.16 138.99 187.45 138.98 186.59 L 138.96 185.47 C 138.95 184.60 138.24 183.92 137.38 183.93 C 136.52 183.94 135.83 184.65 135.84 185.51 Z M 135.85 186.63 L 135.86 187.64 C 135.87 188.50 136.58 189.19 137.44 189.19 C 138.30 189.18 138.99 188.47 138.98 187.61 L 138.98 186.60 C 138.97 185.74 138.26 185.04 137.40 185.05 C 136.54 185.06 135.85 185.76 135.85 186.63 Z M 135.86 187.63 L 135.87 188.56 C 135.87 189.42 136.57 190.12 137.43 190.11 C 138.30 190.11 138.99 189.41 138.99 188.55 L 138.99 187.62 C 138.98 186.76 138.28 186.06 137.42 186.06 C 136.56 186.07 135.86 186.77 135.86 187.63 Z M 135.87 188.56 L 135.87 189.43 C 135.87 190.29 136.57 190.99 137.43 190.99 C 138.29 190.99 138.99 190.29 138.99 189.42 L 138.99 188.55 C 138.99 187.69 138.29 186.99 137.43 186.99 C 136.56 186.99 135.87 187.69 135.87 188.56 Z M 135.87 189.43 L 135.87 190.35 C 135.87 191.21 136.57 191.91 137.43 191.91 C 138.29 191.91 138.99 191.21 138.99 190.35 L 138.99 189.43 C 138.99 188.56 138.29 187.86 137.43 187.86 C 136.57 187.86 135.87 188.56 135.87 189.43 Z M 135.87 190.35 L 135.87 191.34 C 135.87 192.20 136.57 192.90 137.43 192.90 C 138.29 192.90 138.99 192.20 138.99 191.34 L 138.99 190.34 C 138.99 189.48 138.29 188.78 137.43 188.79 C 136.57 188.79 135.87 189.49 135.87 190.35 Z M 135.87 191.34 L 135.87 192.33 C 135.88 193.20 136.58 193.89 137.44 193.89 C 138.30 193.89 139.00 193.18 138.99 192.32 L 138.99 191.33 C 138.99 190.47 138.29 189.77 137.42 189.78 C 136.56 189.78 135.87 190.48 135.87 191.34 Z M 135.87 192.34 L 135.88 193.34 C 135.89 194.20 136.59 194.90 137.45 194.89 C 138.32 194.88 139.01 194.18 139.00 193.32 L 138.99 192.31 C 138.99 191.45 138.28 190.76 137.42 190.77 C 136.56 190.77 135.87 191.48 135.87 192.34 Z M 135.88 193.35 L 135.90 194.37 C 135.91 195.23 136.62 195.92 137.48 195.91 C 138.34 195.89 139.03 195.19 139.02 194.32 L 139.00 193.31 C 138.99 192.44 138.28 191.75 137.42 191.77 C 136.56 191.78 135.87 192.49 135.88 193.35 Z M 135.90 194.38 L 135.92 195.39 C 135.94 196.25 136.65 196.94 137.51 196.92 C 138.37 196.90 139.06 196.19 139.04 195.32 L 139.02 194.31 C 139.00 193.45 138.28 192.77 137.42 192.79 C 136.56 192.80 135.88 193.52 135.90 194.38 Z M 135.92 195.41 L 135.95 196.43 C 135.98 197.29 136.70 197.97 137.56 197.94 C 138.42 197.91 139.10 197.19 139.07 196.33 L 139.04 195.31 C 139.01 194.45 138.29 193.77 137.43 193.80 C 136.57 193.83 135.89 194.55 135.92 195.41 Z M 135.95 196.45 L 136.00 197.45 C 136.03 198.32 136.76 198.98 137.63 198.94 C 138.49 198.91 139.15 198.18 139.12 197.31 L 139.07 196.31 C 139.03 195.45 138.30 194.78 137.44 194.82 C 136.58 194.86 135.91 195.59 135.95 196.45 Z M 136.00 197.48 L 136.06 198.45 C 136.11 199.31 136.85 199.97 137.71 199.92 C 138.57 199.86 139.23 199.12 139.17 198.26 L 139.11 197.29 C 139.06 196.43 138.32 195.77 137.46 195.83 C 136.60 195.88 135.94 196.62 136.00 197.48 Z M 136.06 198.49 L 136.15 199.53 C 136.23 200.39 136.98 201.02 137.84 200.95 C 138.70 200.87 139.34 200.11 139.26 199.26 L 139.17 198.22 C 139.10 197.36 138.34 196.73 137.48 196.80 C 136.62 196.88 135.99 197.63 136.06 198.49 Z M 136.16 199.58 L 136.28 200.59 C 136.39 201.45 137.17 202.06 138.03 201.95 C 138.88 201.84 139.49 201.06 139.38 200.21 L 139.26 199.20 C 139.15 198.34 138.37 197.74 137.51 197.84 C 136.66 197.95 136.05 198.73 136.16 199.58 Z M 136.29 200.67 L 136.46 201.63 C 136.61 202.48 137.42 203.05 138.27 202.90 C 139.12 202.75 139.69 201.94 139.54 201.09 L 139.37 200.13 C 139.22 199.28 138.41 198.71 137.56 198.86 C 136.71 199.01 136.14 199.82 136.29 200.67 Z M 136.48 201.73 L 136.71 202.66 C 136.91 203.50 137.75 204.01 138.59 203.81 C 139.43 203.61 139.95 202.76 139.74 201.93 L 139.52 201.00 C 139.32 200.16 138.47 199.64 137.64 199.84 C 136.80 200.04 136.28 200.89 136.48 201.73 Z M 136.74 202.76 L 137.03 203.69 C 137.28 204.51 138.16 204.97 138.98 204.71 C 139.80 204.45 140.26 203.58 140.01 202.76 L 139.72 201.83 C 139.46 201.00 138.58 200.54 137.76 200.80 C 136.94 201.06 136.48 201.93 136.74 202.76 Z M 137.06 203.77 L 137.40 204.70 C 137.71 205.50 138.61 205.91 139.41 205.61 C 140.22 205.31 140.63 204.41 140.33 203.60 L 139.98 202.67 C 139.67 201.87 138.77 201.46 137.97 201.76 C 137.16 202.06 136.75 202.96 137.06 203.77 Z M 137.43 204.76 L 137.82 205.69 C 138.16 206.48 139.08 206.85 139.87 206.51 C 140.67 206.17 141.03 205.26 140.70 204.46 L 140.30 203.54 C 139.96 202.74 139.05 202.37 138.25 202.71 C 137.46 203.05 137.09 203.97 137.43 204.76 Z M 137.84 205.73 L 138.27 206.66 C 138.64 207.44 139.56 207.78 140.35 207.42 C 141.13 207.06 141.47 206.13 141.11 205.35 L 140.68 204.42 C 140.32 203.64 139.39 203.30 138.60 203.66 C 137.82 204.02 137.48 204.95 137.84 205.73 Z M 138.29 206.69 L 138.73 207.59 C 139.11 208.37 140.04 208.69 140.82 208.32 C 141.59 207.94 141.91 207.00 141.54 206.23 L 141.09 205.32 C 140.72 204.55 139.78 204.22 139.01 204.60 C 138.23 204.98 137.91 205.91 138.29 206.69 Z M 138.74 207.61 L 139.19 208.52 C 139.58 209.29 140.52 209.60 141.29 209.21 C 142.06 208.82 142.37 207.88 141.98 207.11 L 141.53 206.21 C 141.14 205.44 140.20 205.13 139.43 205.52 C 138.66 205.90 138.35 206.84 138.74 207.61 Z M 139.20 208.53 L 139.65 209.42 C 140.05 210.18 140.99 210.48 141.76 210.09 C 142.52 209.70 142.83 208.75 142.43 207.99 L 141.97 207.10 C 141.58 206.33 140.64 206.03 139.87 206.43 C 139.11 206.82 138.80 207.76 139.20 208.53 Z M 139.66 209.42 L 140.10 210.28 C 140.50 211.04 141.44 211.34 142.21 210.94 C 142.97 210.54 143.27 209.60 142.87 208.83 L 142.43 207.98 C 142.03 207.22 141.09 206.92 140.32 207.32 C 139.56 207.71 139.26 208.66 139.66 209.42 Z M 140.10 210.28 L 140.53 211.10 C 140.93 211.86 141.87 212.16 142.64 211.76 C 143.40 211.36 143.70 210.42 143.30 209.66 L 142.87 208.83 C 142.47 208.07 141.53 207.77 140.77 208.17 C 140.00 208.57 139.70 209.51 140.10 210.28 Z M 140.53 211.09 L 140.96 211.94 C 141.36 212.71 142.30 213.01 143.07 212.62 C 143.83 212.22 144.14 211.28 143.74 210.51 L 143.30 209.66 C 142.91 208.90 141.97 208.59 141.20 208.99 C 140.43 209.38 140.13 210.33 140.53 211.09 Z M 140.96 211.93 L 141.43 212.86 C 141.82 213.63 142.75 213.93 143.52 213.55 C 144.29 213.16 144.60 212.22 144.21 211.45 L 143.75 210.52 C 143.36 209.75 142.42 209.44 141.65 209.83 C 140.88 210.22 140.57 211.16 140.96 211.93 Z M 141.42 212.84 L 141.89 213.80 C 142.28 214.57 143.21 214.89 143.98 214.51 C 144.76 214.13 145.07 213.19 144.69 212.42 L 144.22 211.46 C 143.84 210.69 142.90 210.37 142.13 210.75 C 141.36 211.13 141.04 212.07 141.42 212.84 Z M 141.89 213.79 L 142.30 214.64 C 142.68 215.42 143.61 215.74 144.39 215.36 C 145.16 214.98 145.49 214.05 145.11 213.27 L 144.70 212.43 C 144.32 211.65 143.39 211.33 142.61 211.71 C 141.83 212.08 141.51 213.02 141.89 213.79 Z M 142.30 214.64 L 142.74 215.54 C 143.11 216.31 144.05 216.64 144.82 216.26 C 145.60 215.88 145.92 214.95 145.55 214.17 L 145.11 213.28 C 144.73 212.50 143.80 212.18 143.02 212.55 C 142.25 212.93 141.92 213.86 142.30 214.64 Z M 142.74 215.54 L 143.19 216.47 C 143.57 217.24 144.51 217.56 145.28 217.19 C 146.06 216.81 146.38 215.87 146.00 215.10 L 145.54 214.17 C 145.17 213.40 144.23 213.07 143.46 213.45 C 142.68 213.83 142.36 214.77 142.74 215.54 Z M 143.20 216.48 L 143.66 217.41 C 144.04 218.18 144.98 218.50 145.75 218.11 C 146.52 217.73 146.84 216.79 146.46 216.02 L 145.99 215.09 C 145.61 214.32 144.67 214.00 143.90 214.38 C 143.13 214.77 142.81 215.71 143.20 216.48 Z M 143.67 217.42 L 144.13 218.33 C 144.52 219.10 145.46 219.41 146.23 219.01 C 147.00 218.62 147.30 217.68 146.91 216.91 L 146.45 216.00 C 146.06 215.24 145.12 214.93 144.35 215.32 C 143.58 215.71 143.27 216.65 143.67 217.42 Z M 144.14 218.35 L 144.66 219.34 C 145.07 220.10 146.01 220.39 146.77 219.99 C 147.54 219.58 147.83 218.64 147.42 217.88 L 146.90 216.89 C 146.50 216.13 145.55 215.84 144.79 216.24 C 144.03 216.65 143.74 217.59 144.14 218.35 Z M 144.68 219.37 L 145.20 220.30 C 145.62 221.06 146.57 221.33 147.32 220.91 C 148.08 220.49 148.35 219.54 147.93 218.79 L 147.41 217.85 C 146.99 217.09 146.04 216.82 145.28 217.24 C 144.53 217.66 144.26 218.61 144.68 219.37 Z M 145.22 220.34 L 145.73 221.20 C 146.16 221.94 147.12 222.19 147.86 221.76 C 148.61 221.32 148.85 220.36 148.42 219.62 L 147.91 218.75 C 147.47 218.01 146.52 217.76 145.77 218.20 C 145.03 218.64 144.78 219.59 145.22 220.34 Z M 145.75 221.24 L 146.24 222.02 C 146.70 222.76 147.66 222.98 148.39 222.52 C 149.12 222.06 149.34 221.10 148.89 220.37 L 148.40 219.58 C 147.94 218.85 146.98 218.63 146.25 219.09 C 145.51 219.54 145.29 220.50 145.75 221.24 Z M 146.27 222.07 L 146.77 222.82 C 147.25 223.54 148.22 223.73 148.94 223.25 C 149.66 222.77 149.85 221.80 149.37 221.08 L 148.86 220.33 C 148.38 219.61 147.41 219.42 146.69 219.90 C 145.98 220.38 145.79 221.35 146.27 222.07 Z M 146.81 222.88 L 147.45 223.74 C 147.97 224.44 148.95 224.58 149.64 224.07 C 150.33 223.56 150.48 222.58 149.96 221.89 L 149.32 221.02 C 148.81 220.33 147.83 220.18 147.14 220.70 C 146.45 221.21 146.30 222.19 146.81 222.88 Z M 147.50 223.81 L 148.12 224.56 C 148.67 225.23 149.65 225.32 150.32 224.78 C 150.99 224.23 151.08 223.25 150.54 222.58 L 149.92 221.83 C 149.37 221.16 148.39 221.06 147.72 221.61 C 147.05 222.16 146.96 223.14 147.50 223.81 Z M 148.16 224.61 L 148.78 225.30 C 149.35 225.95 150.34 226.01 150.98 225.44 C 151.63 224.86 151.69 223.88 151.12 223.23 L 150.50 222.54 C 149.93 221.89 148.94 221.83 148.29 222.40 C 147.65 222.98 147.59 223.96 148.16 224.61 Z M 148.80 225.33 L 149.47 226.05 C 150.05 226.69 151.04 226.73 151.68 226.14 C 152.31 225.56 152.35 224.57 151.76 223.93 L 151.09 223.21 C 150.51 222.57 149.52 222.53 148.89 223.12 C 148.25 223.70 148.22 224.69 148.80 225.33 Z M 149.48 226.06 L 150.16 226.79 C 150.75 227.42 151.74 227.45 152.37 226.87 C 153.00 226.28 153.03 225.29 152.44 224.66 L 151.76 223.93 C 151.17 223.30 150.18 223.26 149.55 223.85 C 148.92 224.44 148.89 225.43 149.48 226.06 Z M 150.16 226.79 L 150.84 227.52 C 151.43 228.15 152.41 228.19 153.05 227.60 C 153.68 227.01 153.71 226.03 153.13 225.39 L 152.45 224.66 C 151.86 224.03 150.87 223.99 150.24 224.58 C 149.61 225.17 149.57 226.16 150.16 226.79 Z M 150.83 227.51 L 151.48 228.22 C 152.06 228.86 153.04 228.91 153.68 228.33 C 154.32 227.75 154.37 226.76 153.79 226.12 L 153.14 225.41 C 152.56 224.77 151.57 224.72 150.93 225.30 C 150.29 225.88 150.25 226.87 150.83 227.51 Z M 151.48 228.22 L 152.14 228.94 C 152.72 229.58 153.71 229.63 154.34 229.04 C 154.98 228.46 155.02 227.47 154.44 226.84 L 153.78 226.12 C 153.20 225.48 152.22 225.44 151.58 226.02 C 150.94 226.60 150.90 227.59 151.48 228.22 Z M 152.16 228.97 L 152.87 229.71 C 153.47 230.34 154.46 230.36 155.08 229.76 C 155.70 229.16 155.72 228.18 155.13 227.55 L 154.42 226.81 C 153.82 226.19 152.83 226.17 152.21 226.76 C 151.59 227.36 151.57 228.35 152.16 228.97 Z M 152.91 229.75 L 153.63 230.45 C 154.25 231.05 155.24 231.03 155.84 230.42 C 156.44 229.80 156.42 228.81 155.80 228.21 L 155.09 227.51 C 154.47 226.91 153.48 226.93 152.88 227.55 C 152.28 228.16 152.29 229.15 152.91 229.75 Z M 153.67 230.49 L 154.41 231.15 C 155.05 231.73 156.04 231.67 156.61 231.03 C 157.19 230.39 157.14 229.40 156.49 228.83 L 155.76 228.17 C 155.12 227.59 154.13 227.64 153.55 228.29 C 152.98 228.93 153.03 229.91 153.67 230.49 Z M 154.46 231.19 L 155.25 231.84 C 155.91 232.39 156.89 232.29 157.44 231.63 C 157.99 230.96 157.90 229.98 157.23 229.43 L 156.44 228.78 C 155.78 228.23 154.79 228.33 154.25 229.00 C 153.70 229.66 153.79 230.65 154.46 231.19 Z M 155.31 231.89 L 156.13 232.50 C 156.82 233.01 157.80 232.87 158.31 232.18 C 158.83 231.48 158.68 230.51 157.99 229.99 L 157.17 229.38 C 156.48 228.87 155.50 229.01 154.98 229.70 C 154.47 230.40 154.61 231.37 155.31 231.89 Z M 156.20 232.55 L 157.08 233.12 C 157.80 233.59 158.76 233.39 159.24 232.67 C 159.71 231.95 159.51 230.98 158.79 230.51 L 157.91 229.94 C 157.19 229.47 156.22 229.67 155.75 230.39 C 155.28 231.11 155.48 232.08 156.20 232.55 Z M 157.16 233.17 L 158.04 233.68 C 158.79 234.11 159.74 233.85 160.17 233.10 C 160.60 232.35 160.34 231.40 159.59 230.97 L 158.71 230.46 C 157.96 230.03 157.00 230.29 156.58 231.04 C 156.15 231.79 156.41 232.74 157.16 233.17 Z M 158.12 233.72 L 159.00 234.16 C 159.77 234.55 160.70 234.24 161.09 233.47 C 161.48 232.70 161.17 231.76 160.40 231.37 L 159.52 230.93 C 158.75 230.54 157.81 230.85 157.42 231.62 C 157.03 232.39 157.34 233.33 158.12 233.72 Z M 159.06 234.19 L 159.94 234.58 C 160.73 234.93 161.65 234.58 162.00 233.79 C 162.35 233.00 162.00 232.08 161.21 231.73 L 160.33 231.34 C 159.54 230.99 158.62 231.34 158.27 232.13 C 157.92 232.92 158.28 233.84 159.06 234.19 Z M 160.02 234.61 L 160.96 234.97 C 161.76 235.28 162.67 234.88 162.98 234.08 C 163.28 233.27 162.88 232.37 162.08 232.06 L 161.14 231.70 C 160.33 231.39 159.43 231.79 159.12 232.60 C 158.81 233.40 159.21 234.30 160.02 234.61 Z M 161.05 235.01 L 161.99 235.30 C 162.81 235.56 163.69 235.10 163.95 234.28 C 164.21 233.46 163.75 232.58 162.93 232.32 L 161.99 232.03 C 161.16 231.77 160.29 232.23 160.03 233.05 C 159.77 233.87 160.23 234.75 161.05 235.01 Z M 162.09 235.33 L 163.06 235.57 C 163.89 235.77 164.74 235.26 164.94 234.42 C 165.15 233.58 164.63 232.74 163.80 232.53 L 162.83 232.30 C 161.99 232.09 161.15 232.60 160.94 233.44 C 160.74 234.28 161.25 235.12 162.09 235.33 Z M 163.15 235.59 L 164.11 235.76 C 164.96 235.91 165.77 235.35 165.92 234.50 C 166.08 233.65 165.51 232.84 164.67 232.69 L 163.71 232.51 C 162.86 232.36 162.04 232.92 161.89 233.77 C 161.74 234.62 162.30 235.43 163.15 235.59 Z M 164.18 235.77 L 165.17 235.90 C 166.03 236.02 166.81 235.42 166.93 234.56 C 167.04 233.71 166.44 232.92 165.59 232.81 L 164.60 232.68 C 163.74 232.56 162.95 233.16 162.84 234.02 C 162.73 234.87 163.33 235.66 164.18 235.77 Z M 165.23 235.91 L 166.24 236.01 C 167.09 236.09 167.86 235.47 167.94 234.61 C 168.03 233.75 167.40 232.99 166.54 232.90 L 165.53 232.80 C 164.68 232.72 163.91 233.34 163.83 234.20 C 163.74 235.06 164.37 235.82 165.23 235.91 Z M 166.28 236.01 L 167.29 236.09 C 168.15 236.15 168.90 235.51 168.97 234.65 C 169.03 233.79 168.38 233.04 167.52 232.97 L 166.51 232.90 C 165.65 232.84 164.90 233.48 164.83 234.34 C 164.77 235.20 165.42 235.95 166.28 236.01 Z M 167.32 236.09 L 168.34 236.15 C 169.20 236.19 169.94 235.53 169.98 234.67 C 170.03 233.81 169.37 233.08 168.51 233.03 L 167.49 232.97 C 166.63 232.93 165.90 233.59 165.85 234.45 C 165.80 235.31 166.46 236.04 167.32 236.09 Z M 168.37 236.15 L 169.36 236.19 C 170.22 236.22 170.95 235.55 170.98 234.69 C 171.01 233.82 170.34 233.10 169.48 233.07 L 168.49 233.03 C 167.62 232.99 166.90 233.67 166.87 234.53 C 166.83 235.39 167.50 236.11 168.37 236.15 Z M 169.38 236.19 L 170.35 236.21 C 171.22 236.23 171.93 235.55 171.95 234.69 C 171.98 233.83 171.29 233.11 170.43 233.09 L 169.46 233.07 C 168.60 233.04 167.88 233.72 167.86 234.59 C 167.84 235.45 168.52 236.17 169.38 236.19 Z M 170.37 236.21 L 171.37 236.22 C 172.23 236.24 172.94 235.55 172.95 234.68 C 172.96 233.82 172.27 233.11 171.41 233.10 L 170.41 233.09 C 169.55 233.08 168.84 233.77 168.83 234.63 C 168.82 235.49 169.51 236.20 170.37 236.21 Z M 171.39 236.22 L 172.38 236.23 C 173.24 236.23 173.94 235.53 173.94 234.66 C 173.94 233.80 173.24 233.10 172.38 233.10 L 171.39 233.10 C 170.53 233.10 169.83 233.80 169.83 234.66 C 169.83 235.52 170.53 236.22 171.39 236.22 Z M 172.40 236.22 L 173.41 236.21 C 174.27 236.20 174.96 235.50 174.95 234.63 C 174.94 233.77 174.23 233.08 173.37 233.09 L 172.36 233.10 C 171.50 233.11 170.81 233.82 170.82 234.68 C 170.83 235.54 171.54 236.23 172.40 236.22 Z M 173.43 236.21 L 174.45 236.18 C 175.31 236.16 175.99 235.44 175.96 234.58 C 175.94 233.72 175.22 233.04 174.36 233.06 L 173.34 233.09 C 172.48 233.12 171.80 233.83 171.83 234.70 C 171.85 235.56 172.57 236.24 173.43 236.21 Z M 174.53 236.18 L 175.55 236.09 C 176.41 236.02 177.04 235.27 176.97 234.41 C 176.90 233.55 176.14 232.91 175.28 232.98 L 174.27 233.07 C 173.41 233.14 172.77 233.90 172.85 234.76 C 172.92 235.61 173.68 236.25 174.53 236.18 Z M 175.73 236.07 L 176.70 235.87 C 177.54 235.70 178.09 234.87 177.91 234.03 C 177.74 233.19 176.92 232.64 176.07 232.81 L 175.10 233.01 C 174.26 233.18 173.71 234.00 173.89 234.85 C 174.06 235.69 174.88 236.24 175.73 236.07 Z M 176.99 235.78 L 177.94 235.38 C 178.74 235.04 179.11 234.13 178.77 233.33 C 178.44 232.54 177.52 232.17 176.73 232.50 L 175.78 232.90 C 174.98 233.24 174.61 234.15 174.95 234.95 C 175.28 235.74 176.20 236.11 176.99 235.78 Z M 178.24 235.21 L 179.10 234.59 C 179.80 234.09 179.96 233.12 179.46 232.42 C 178.96 231.72 177.98 231.55 177.28 232.06 L 176.43 232.67 C 175.72 233.17 175.56 234.15 176.07 234.85 C 176.57 235.55 177.54 235.71 178.24 235.21 Z M 179.30 234.43 L 179.96 233.76 C 180.57 233.15 180.56 232.16 179.95 231.55 C 179.34 230.95 178.35 230.95 177.74 231.56 L 177.08 232.23 C 176.48 232.84 176.48 233.83 177.09 234.43 C 177.70 235.04 178.69 235.04 179.30 234.43 Z M 180.12 233.58 L 180.74 232.72 C 181.24 232.02 181.09 231.04 180.39 230.54 C 179.69 230.03 178.71 230.19 178.21 230.89 L 177.59 231.75 C 177.08 232.44 177.24 233.42 177.94 233.93 C 178.64 234.43 179.61 234.27 180.12 233.58 Z M 180.88 232.48 L 181.21 231.78 C 181.59 231.01 181.26 230.07 180.48 229.70 C 179.70 229.33 178.77 229.65 178.40 230.43 L 178.07 231.13 C 177.69 231.90 178.02 232.84 178.80 233.21 C 179.57 233.58 180.51 233.25 180.88 232.48 Z"
      fill="black"
      fill-rule="nonzero" /><path d="M 121.45 86.64 L 121.11 85.40 C 120.88 84.56 120.02 84.07 119.19 84.30 C 118.36 84.52 117.87 85.38 118.09 86.21 L 118.43 87.46 C 118.66 88.29 119.52 88.78 120.35 88.56 C 121.18 88.33 121.67 87.47 121.45 86.64 Z M 121.01 85.14 L 120.66 84.39 C 120.29 83.61 119.36 83.28 118.58 83.65 C 117.80 84.02 117.47 84.95 117.84 85.73 L 118.19 86.48 C 118.56 87.25 119.49 87.59 120.27 87.22 C 121.05 86.85 121.38 85.91 121.01 85.14 Z M 118.30 83.82 L 117.75 84.24 C 117.06 84.76 116.93 85.74 117.45 86.43 C 117.97 87.12 118.95 87.25 119.64 86.73 L 120.19 86.30 C 120.88 85.78 121.01 84.80 120.49 84.12 C 119.97 83.43 118.99 83.30 118.30 83.82 Z M 117.86 84.16 L 117.34 84.49 C 116.61 84.95 116.39 85.91 116.85 86.64 C 117.31 87.37 118.27 87.59 119.00 87.13 L 119.52 86.81 C 120.25 86.35 120.47 85.38 120.01 84.65 C 119.56 83.92 118.59 83.70 117.86 84.16 Z M 119.66 85.32 L 119.39 84.52 C 119.12 83.70 118.24 83.25 117.42 83.52 C 116.60 83.79 116.16 84.67 116.42 85.49 L 116.69 86.30 C 116.96 87.11 117.84 87.56 118.66 87.29 C 119.48 87.03 119.92 86.14 119.66 85.32 Z M 119.46 84.89 L 119.37 83.61 C 119.30 82.76 118.55 82.11 117.69 82.18 C 116.83 82.24 116.19 82.99 116.26 83.85 L 116.35 85.12 C 116.42 85.98 117.17 86.63 118.03 86.56 C 118.89 86.50 119.53 85.75 119.46 84.89 Z M 119.36 83.91 L 119.50 82.70 C 119.59 81.85 118.97 81.07 118.12 80.98 C 117.26 80.88 116.49 81.50 116.39 82.36 L 116.26 83.56 C 116.16 84.42 116.78 85.19 117.64 85.28 C 118.50 85.38 119.27 84.76 119.36 83.91 Z M 119.37 83.17 L 119.75 82.32 C 120.11 81.53 119.76 80.61 118.97 80.25 C 118.18 79.90 117.26 80.25 116.91 81.04 L 116.52 81.89 C 116.17 82.68 116.52 83.60 117.30 83.95 C 118.09 84.31 119.02 83.96 119.37 83.17 Z M 118.71 83.19 L 119.42 83.01 C 120.25 82.80 120.76 81.95 120.55 81.12 C 120.34 80.28 119.49 79.78 118.65 79.99 L 117.95 80.16 C 117.11 80.37 116.60 81.22 116.82 82.06 C 117.03 82.90 117.87 83.40 118.71 83.19 Z M 118.09 82.74 L 118.90 83.36 C 119.58 83.89 120.56 83.76 121.09 83.08 C 121.61 82.39 121.49 81.41 120.80 80.89 L 119.99 80.26 C 119.30 79.74 118.32 79.87 117.80 80.55 C 117.27 81.23 117.40 82.21 118.09 82.74 Z M 118.31 82.39 L 118.47 83.28 C 118.61 84.13 119.42 84.70 120.27 84.55 C 121.12 84.41 121.69 83.60 121.54 82.75 L 121.39 81.86 C 121.24 81.01 120.43 80.44 119.59 80.59 C 118.74 80.73 118.17 81.54 118.31 82.39 Z M 119.08 81.76 L 118.29 82.34 C 117.59 82.85 117.44 83.83 117.95 84.53 C 118.46 85.22 119.44 85.37 120.14 84.86 L 120.93 84.27 C 121.62 83.76 121.77 82.79 121.26 82.09 C 120.75 81.40 119.77 81.25 119.08 81.76 Z M 119.60 82.09 L 118.75 81.87 C 117.91 81.65 117.06 82.15 116.85 82.99 C 116.63 83.82 117.13 84.67 117.97 84.89 L 118.82 85.11 C 119.66 85.33 120.51 84.83 120.72 83.99 C 120.94 83.16 120.44 82.30 119.60 82.09 Z M 119.89 83.08 L 119.70 82.12 C 119.54 81.27 118.72 80.72 117.88 80.88 C 117.03 81.05 116.48 81.87 116.64 82.71 L 116.83 83.68 C 116.99 84.52 117.81 85.08 118.65 84.91 C 119.50 84.75 120.05 83.93 119.89 83.08 Z M 119.38 83.41 L 119.94 82.72 C 120.49 82.06 120.39 81.07 119.73 80.53 C 119.06 79.98 118.08 80.07 117.53 80.74 L 116.97 81.42 C 116.42 82.09 116.51 83.07 117.18 83.62 C 117.85 84.17 118.83 84.07 119.38 83.41 Z M 118.93 83.28 L 119.91 83.16 C 120.77 83.05 121.37 82.27 121.27 81.41 C 121.16 80.56 120.38 79.95 119.52 80.06 L 118.54 80.18 C 117.68 80.29 117.08 81.07 117.19 81.93 C 117.29 82.78 118.08 83.39 118.93 83.28 Z M 120.33 83.04 L 121.23 82.66 C 122.03 82.32 122.40 81.40 122.06 80.61 C 121.72 79.82 120.81 79.45 120.01 79.79 L 119.11 80.17 C 118.31 80.51 117.94 81.43 118.28 82.22 C 118.62 83.01 119.53 83.38 120.33 83.04 Z M 122.08 81.78 L 122.47 80.76 C 122.78 79.95 122.38 79.05 121.58 78.74 C 120.77 78.43 119.87 78.83 119.56 79.64 L 119.17 80.66 C 118.86 81.47 119.26 82.37 120.06 82.68 C 120.87 82.99 121.77 82.59 122.08 81.78 Z M 119.58 79.60 L 119.51 79.75 C 119.18 80.55 119.55 81.46 120.35 81.79 C 121.15 82.13 122.06 81.75 122.39 80.96 L 122.46 80.80 C 122.79 80.00 122.41 79.09 121.62 78.76 C 120.82 78.42 119.91 78.80 119.58 79.60 Z M 119.44 79.98 L 119.18 81.02 C 118.97 81.86 119.49 82.71 120.32 82.91 C 121.16 83.12 122.01 82.61 122.21 81.77 L 122.47 80.73 C 122.67 79.89 122.16 79.04 121.32 78.84 C 120.49 78.63 119.64 79.14 119.44 79.98 Z M 119.25 80.80 L 118.73 82.07 C 118.40 82.86 118.78 83.78 119.58 84.10 C 120.38 84.43 121.29 84.05 121.62 83.25 L 122.14 81.99 C 122.47 81.19 122.09 80.28 121.29 79.95 C 120.49 79.62 119.58 80.01 119.25 80.80 Z M 118.95 81.69 L 118.23 82.60 C 117.70 83.27 117.81 84.25 118.48 84.79 C 119.16 85.33 120.14 85.21 120.68 84.54 L 121.40 83.63 C 121.93 82.96 121.82 81.98 121.15 81.44 C 120.47 80.90 119.49 81.01 118.95 81.69 Z M 119.57 82.01 L 119.11 81.98 C 118.25 81.91 117.50 82.55 117.43 83.41 C 117.37 84.27 118.01 85.02 118.87 85.09 L 119.34 85.12 C 120.20 85.19 120.95 84.55 121.01 83.69 C 121.08 82.83 120.43 82.08 119.57 82.01 Z M 120.55 83.58 L 120.59 82.52 C 120.62 81.65 119.94 80.93 119.08 80.90 C 118.22 80.88 117.50 81.55 117.47 82.41 L 117.43 83.48 C 117.40 84.34 118.08 85.06 118.94 85.09 C 119.80 85.12 120.52 84.45 120.55 83.58 Z M 120.58 82.59 L 120.66 81.64 C 120.73 80.78 120.09 80.03 119.23 79.96 C 118.37 79.89 117.62 80.53 117.55 81.39 L 117.47 82.34 C 117.40 83.20 118.04 83.95 118.90 84.02 C 119.76 84.09 120.51 83.45 120.58 82.59 Z M 118.20 80.24 L 117.86 80.48 C 117.16 80.98 117.00 81.96 117.50 82.66 C 118.00 83.36 118.98 83.52 119.68 83.02 L 120.01 82.78 C 120.71 82.28 120.88 81.31 120.38 80.61 C 119.87 79.90 118.90 79.74 118.20 80.24 Z M 117.39 81.02 L 116.80 82.13 C 116.40 82.90 116.69 83.84 117.45 84.24 C 118.22 84.65 119.16 84.36 119.56 83.59 L 120.15 82.48 C 120.55 81.72 120.26 80.78 119.50 80.37 C 118.74 79.97 117.79 80.26 117.39 81.02 Z M 116.73 82.28 L 116.22 83.56 C 115.90 84.36 116.29 85.27 117.09 85.60 C 117.89 85.92 118.80 85.53 119.12 84.73 L 119.63 83.45 C 119.95 82.65 119.57 81.74 118.77 81.41 C 117.97 81.09 117.06 81.48 116.73 82.28 Z M 116.12 83.93 L 116.02 84.67 C 115.90 85.53 116.49 86.32 117.34 86.44 C 118.20 86.56 118.99 85.96 119.11 85.11 L 119.21 84.37 C 119.33 83.51 118.74 82.72 117.89 82.60 C 117.03 82.48 116.24 83.07 116.12 83.93 Z M 118.28 86.28 L 118.64 86.09 C 119.41 85.70 119.71 84.76 119.32 83.99 C 118.93 83.22 117.99 82.92 117.22 83.31 L 116.85 83.50 C 116.08 83.89 115.78 84.83 116.17 85.60 C 116.57 86.37 117.51 86.67 118.28 86.28 Z M 119.08 85.76 L 119.68 85.11 C 120.26 84.47 120.22 83.49 119.58 82.90 C 118.94 82.32 117.96 82.36 117.37 83.00 L 116.78 83.65 C 116.20 84.28 116.24 85.27 116.88 85.85 C 117.51 86.43 118.50 86.39 119.08 85.76 Z M 119.74 85.04 L 120.49 84.11 C 121.04 83.44 120.94 82.46 120.27 81.91 C 119.60 81.37 118.62 81.47 118.07 82.14 L 117.32 83.07 C 116.77 83.74 116.87 84.72 117.54 85.26 C 118.21 85.81 119.19 85.71 119.74 85.04 Z M 120.51 84.09 L 121.17 83.26 C 121.70 82.58 121.58 81.60 120.90 81.06 C 120.23 80.53 119.25 80.65 118.71 81.33 L 118.06 82.16 C 117.52 82.84 117.64 83.82 118.32 84.35 C 118.99 84.88 119.98 84.77 120.51 84.09 Z"
      fill="black"
      fill-rule="nonzero" /><path d="M 164.26 86.75 L 164.41 85.70 C 164.52 84.85 163.92 84.06 163.07 83.95 C 162.21 83.83 161.43 84.43 161.31 85.29 L 161.17 86.33 C 161.05 87.19 161.65 87.97 162.51 88.09 C 163.36 88.20 164.15 87.60 164.26 86.75 Z M 164.38 85.83 L 164.60 84.85 C 164.79 84.01 164.26 83.18 163.42 82.99 C 162.58 82.80 161.74 83.33 161.55 84.17 L 161.33 85.15 C 161.15 85.99 161.68 86.83 162.52 87.02 C 163.36 87.21 164.19 86.68 164.38 85.83 Z M 164.51 85.14 L 164.88 84.29 C 165.23 83.50 164.87 82.58 164.09 82.23 C 163.30 81.88 162.38 82.24 162.03 83.02 L 161.65 83.88 C 161.30 84.67 161.66 85.59 162.45 85.94 C 163.24 86.29 164.16 85.93 164.51 85.14 Z M 164.59 84.73 L 165.31 83.97 C 165.90 83.35 165.88 82.36 165.25 81.77 C 164.63 81.17 163.64 81.20 163.05 81.82 L 162.32 82.58 C 161.73 83.20 161.75 84.19 162.38 84.79 C 163.00 85.38 163.99 85.36 164.59 84.73 Z M 164.76 84.35 L 165.67 83.98 C 166.47 83.66 166.86 82.75 166.54 81.95 C 166.21 81.15 165.31 80.76 164.50 81.08 L 163.60 81.45 C 162.80 81.77 162.41 82.68 162.73 83.48 C 163.05 84.28 163.96 84.67 164.76 84.35 Z M 164.77 84.06 L 165.64 84.24 C 166.48 84.42 167.31 83.87 167.48 83.03 C 167.66 82.18 167.12 81.36 166.27 81.18 L 165.40 81.00 C 164.56 80.83 163.73 81.37 163.56 82.22 C 163.38 83.06 163.93 83.89 164.77 84.06 Z M 164.80 83.77 L 165.45 84.47 C 166.03 85.11 167.02 85.15 167.66 84.57 C 168.29 83.98 168.33 83.00 167.75 82.36 L 167.11 81.66 C 166.52 81.02 165.54 80.98 164.90 81.56 C 164.27 82.14 164.22 83.13 164.80 83.77 Z M 165.11 83.87 L 165.41 84.86 C 165.66 85.68 166.53 86.15 167.35 85.90 C 168.18 85.65 168.64 84.78 168.39 83.95 L 168.09 82.96 C 167.84 82.14 166.97 81.67 166.15 81.92 C 165.32 82.17 164.86 83.04 165.11 83.87 Z M 165.36 84.17 L 165.21 85.16 C 165.08 86.01 165.67 86.81 166.52 86.93 C 167.38 87.06 168.17 86.47 168.30 85.62 L 168.44 84.63 C 168.57 83.78 167.98 82.99 167.13 82.86 C 166.28 82.73 165.48 83.32 165.36 84.17 Z M 165.43 84.56 L 164.90 85.40 C 164.44 86.12 164.66 87.09 165.39 87.55 C 166.11 88.01 167.08 87.79 167.54 87.07 L 168.07 86.23 C 168.53 85.50 168.32 84.53 167.59 84.07 C 166.86 83.61 165.89 83.83 165.43 84.56 Z M 165.29 84.98 L 164.49 85.57 C 163.80 86.09 163.65 87.07 164.17 87.76 C 164.68 88.45 165.66 88.59 166.35 88.08 L 167.15 87.48 C 167.85 86.97 167.99 85.99 167.47 85.30 C 166.96 84.61 165.98 84.46 165.29 84.98 Z M 165.02 85.32 L 164.05 85.57 C 163.22 85.80 162.72 86.65 162.94 87.48 C 163.16 88.32 164.02 88.81 164.85 88.59 L 165.82 88.34 C 166.65 88.12 167.15 87.26 166.93 86.43 C 166.71 85.59 165.85 85.10 165.02 85.32 Z M 164.63 85.53 L 163.65 85.42 C 162.79 85.32 162.02 85.93 161.91 86.78 C 161.81 87.64 162.42 88.42 163.28 88.52 L 164.27 88.63 C 165.12 88.74 165.90 88.12 166.00 87.27 C 166.10 86.41 165.49 85.63 164.63 85.53 Z M 164.23 85.61 L 163.38 85.13 C 162.63 84.70 161.68 84.97 161.26 85.72 C 160.83 86.47 161.10 87.42 161.85 87.84 L 162.69 88.33 C 163.44 88.75 164.40 88.49 164.82 87.74 C 165.25 86.99 164.98 86.03 164.23 85.61 Z M 163.87 85.56 L 163.28 84.76 C 162.77 84.07 161.79 83.93 161.10 84.44 C 160.41 84.95 160.26 85.93 160.77 86.62 L 161.36 87.42 C 161.87 88.11 162.85 88.25 163.54 87.74 C 164.24 87.23 164.38 86.25 163.87 85.56 Z M 163.54 85.30 L 163.28 84.33 C 163.06 83.50 162.21 83.00 161.38 83.22 C 160.54 83.44 160.04 84.29 160.26 85.13 L 160.52 86.09 C 160.74 86.93 161.59 87.42 162.43 87.20 C 163.26 86.98 163.76 86.13 163.54 85.30 Z M 163.32 84.95 L 163.46 83.95 C 163.59 83.10 162.99 82.31 162.14 82.18 C 161.29 82.06 160.50 82.65 160.37 83.51 L 160.23 84.50 C 160.11 85.36 160.70 86.15 161.55 86.27 C 162.40 86.40 163.20 85.80 163.32 84.95 Z M 163.25 84.55 L 163.78 83.68 C 164.23 82.95 164.00 81.99 163.27 81.54 C 162.53 81.08 161.57 81.31 161.12 82.05 L 160.59 82.91 C 160.14 83.65 160.37 84.61 161.10 85.06 C 161.83 85.51 162.80 85.28 163.25 84.55 Z M 163.31 84.17 L 164.11 83.64 C 164.83 83.16 165.03 82.20 164.55 81.48 C 164.08 80.76 163.11 80.56 162.39 81.03 L 161.59 81.56 C 160.87 82.04 160.67 83.01 161.15 83.73 C 161.62 84.45 162.59 84.64 163.31 84.17 Z M 163.30 83.90 L 164.25 83.86 C 165.11 83.84 165.79 83.11 165.76 82.25 C 165.73 81.39 165.01 80.71 164.14 80.74 L 163.20 80.78 C 162.33 80.81 161.66 81.53 161.69 82.39 C 161.72 83.25 162.44 83.93 163.30 83.90 Z M 163.52 83.71 L 164.42 84.14 C 165.20 84.52 166.13 84.19 166.50 83.42 C 166.88 82.64 166.55 81.71 165.78 81.33 L 164.88 80.90 C 164.10 80.52 163.17 80.85 162.79 81.63 C 162.42 82.40 162.74 83.34 163.52 83.71 Z M 163.89 83.72 L 164.51 84.49 C 165.06 85.16 166.04 85.26 166.71 84.72 C 167.38 84.18 167.48 83.19 166.93 82.52 L 166.31 81.75 C 165.77 81.09 164.78 80.98 164.11 81.53 C 163.44 82.07 163.34 83.05 163.89 83.72 Z M 164.21 83.88 L 164.43 84.80 C 164.63 85.63 165.48 86.15 166.32 85.94 C 167.15 85.74 167.67 84.90 167.46 84.06 L 167.24 83.14 C 167.04 82.30 166.19 81.79 165.35 81.99 C 164.52 82.19 164.00 83.04 164.21 83.88 Z M 164.39 84.30 L 164.31 85.31 C 164.24 86.17 164.88 86.92 165.74 86.99 C 166.60 87.06 167.35 86.42 167.42 85.57 L 167.50 84.55 C 167.57 83.70 166.93 82.94 166.07 82.87 C 165.21 82.80 164.46 83.44 164.39 84.30 Z M 164.38 84.96 L 164.05 85.97 C 163.78 86.79 164.23 87.67 165.05 87.94 C 165.87 88.20 166.75 87.75 167.02 86.93 L 167.35 85.92 C 167.61 85.10 167.17 84.22 166.35 83.95 C 165.53 83.69 164.64 84.14 164.38 84.96 Z M 164.19 85.65 L 163.65 86.57 C 163.21 87.31 163.45 88.26 164.19 88.71 C 164.93 89.15 165.89 88.90 166.33 88.16 L 166.88 87.25 C 167.32 86.51 167.07 85.55 166.33 85.11 C 165.59 84.67 164.63 84.91 164.19 85.65 Z M 163.97 86.18 L 163.26 86.80 C 162.60 87.36 162.53 88.35 163.09 89.00 C 163.66 89.65 164.64 89.73 165.30 89.16 L 166.01 88.55 C 166.66 87.98 166.74 87.00 166.17 86.34 C 165.61 85.69 164.62 85.62 163.97 86.18 Z M 163.98 86.45 L 163.12 86.61 C 162.27 86.78 161.72 87.59 161.88 88.44 C 162.04 89.29 162.86 89.84 163.70 89.68 L 164.57 89.51 C 165.42 89.35 165.97 88.53 165.81 87.69 C 165.65 86.84 164.83 86.29 163.98 86.45 Z M 164.01 86.70 L 163.13 86.34 C 162.33 86.02 161.42 86.40 161.09 87.19 C 160.77 87.99 161.15 88.90 161.94 89.23 L 162.82 89.59 C 163.61 89.92 164.53 89.54 164.85 88.74 C 165.18 87.94 164.80 87.03 164.01 86.70 Z M 163.79 86.85 L 163.15 86.01 C 162.64 85.32 161.66 85.18 160.97 85.69 C 160.28 86.21 160.14 87.19 160.66 87.88 L 161.29 88.72 C 161.80 89.41 162.78 89.55 163.47 89.04 C 164.16 88.52 164.30 87.54 163.79 86.85 Z M 163.44 86.67 L 163.25 85.56 C 163.10 84.71 162.29 84.14 161.44 84.29 C 160.59 84.44 160.02 85.25 160.17 86.10 L 160.37 87.21 C 160.52 88.06 161.33 88.63 162.18 88.48 C 163.02 88.33 163.59 87.52 163.44 86.67 Z M 163.26 86.00 L 163.38 84.90 C 163.48 84.04 162.86 83.27 162.00 83.18 C 161.15 83.08 160.37 83.70 160.28 84.56 L 160.16 85.66 C 160.06 86.51 160.68 87.28 161.54 87.38 C 162.39 87.47 163.17 86.86 163.26 86.00 Z M 163.25 85.38 L 163.57 84.69 C 163.93 83.91 163.59 82.98 162.80 82.62 C 162.02 82.26 161.09 82.60 160.73 83.38 L 160.41 84.08 C 160.05 84.86 160.39 85.79 161.18 86.15 C 161.96 86.51 162.89 86.17 163.25 85.38 Z M 161.44 85.42 L 162.09 85.76 C 162.86 86.15 163.80 85.85 164.19 85.09 C 164.59 84.32 164.29 83.38 163.52 82.98 L 162.86 82.65 C 162.10 82.25 161.16 82.55 160.76 83.32 C 160.37 84.09 160.67 85.03 161.44 85.42 Z M 161.24 84.43 L 161.28 85.33 C 161.31 86.20 162.03 86.87 162.89 86.84 C 163.75 86.81 164.43 86.08 164.40 85.22 L 164.37 84.32 C 164.33 83.45 163.61 82.78 162.75 82.81 C 161.89 82.84 161.21 83.57 161.24 84.43 Z M 162.36 83.79 L 161.45 84.09 C 160.63 84.35 160.18 85.23 160.45 86.05 C 160.71 86.87 161.60 87.32 162.42 87.06 L 163.32 86.76 C 164.14 86.50 164.59 85.62 164.32 84.80 C 164.06 83.98 163.18 83.53 162.36 83.79 Z M 161.82 84.01 L 161.44 84.04 C 160.58 84.11 159.93 84.85 159.99 85.71 C 160.06 86.57 160.81 87.22 161.67 87.16 L 162.05 87.13 C 162.91 87.07 163.55 86.32 163.49 85.46 C 163.43 84.60 162.68 83.95 161.82 84.01 Z"
      fill="black"
      fill-rule="nonzero" /></svg>