<svg xmlns="http://www.w3.org/2000/svg" width="300" height="300" viewBox="0 0 300 300">
<path d="M 108.21 121.08 L 108.21 122.07 C 108.22 122.93 108.92 123.63 109.78 123.63 C 110.64 123.62 111.34 122.92 111.34 122.06 L 111.33 121.08 C 111.33 120.21 110.63 119.52 109.77 119.52 C 108.91 119.52 108.21 120.22 108.21 121.08 Z M 108.21 122.10 L 108.23 123.09 C 108.25 123.95 108.97 124.64 109.83 124.62 C 110.69 124.60 111.37 123.89 111.36 123.03 L 111.34 122.03 C 111.32 121.17 110.61 120.49 109.74 120.51 C 108.88 120.52 108.20 121.24 108.21 122.10 Z M 108.24 123.14 L 108.29 124.15 C 108.34 125.01 109.07 125.67 109.94 125.63 C 110.80 125.58 111.46 124.84 111.41 123.98 L 111.35 122.97 C 111.31 122.11 110.57 121.45 109.71 121.50 C 108.85 121.55 108.19 122.28 108.24 123.14 Z M 108.30 124.22 L 108.40 125.21 C 108.48 126.07 109.25 126.69 110.11 126.61 C 110.96 126.52 111.59 125.76 111.50 124.90 L 111.40 123.91 C 111.32 123.05 110.55 122.43 109.69 122.51 C 108.84 122.60 108.21 123.37 108.30 124.22 Z M 108.40 125.26 L 108.53 126.25 C 108.65 127.10 109.43 127.70 110.29 127.59 C 111.14 127.47 111.74 126.69 111.63 125.83 L 111.50 124.85 C 111.38 123.99 110.60 123.39 109.74 123.51 C 108.89 123.62 108.29 124.41 108.40 125.26 Z M 108.54 126.25 L 108.67 127.25 C 108.79 128.11 109.58 128.70 110.44 128.58 C 111.29 128.46 111.89 127.67 111.77 126.82 L 111.63 125.82 C 111.51 124.97 110.72 124.37 109.86 124.49 C 109.01 124.61 108.42 125.40 108.54 126.25 Z M 108.67 127.22 L 108.79 128.23 C 108.90 129.09 109.67 129.70 110.53 129.60 C 111.39 129.49 112.00 128.72 111.89 127.86 L 111.77 126.85 C 111.67 125.99 110.89 125.38 110.03 125.49 C 109.18 125.59 108.57 126.37 108.67 127.22 Z M 108.79 128.18 L 108.87 129.19 C 108.94 130.05 109.70 130.69 110.56 130.62 C 111.42 130.54 112.06 129.79 111.98 128.93 L 111.90 127.92 C 111.83 127.06 111.07 126.42 110.21 126.49 C 109.35 126.56 108.72 127.32 108.79 128.18 Z M 108.87 129.14 L 108.92 130.15 C 108.97 131.01 109.70 131.67 110.56 131.63 C 111.42 131.58 112.08 130.85 112.04 129.99 L 111.99 128.98 C 111.94 128.12 111.21 127.46 110.35 127.50 C 109.49 127.55 108.82 128.28 108.87 129.14 Z M 108.92 130.12 L 108.95 131.10 C 108.97 131.97 109.69 132.64 110.56 132.62 C 111.42 132.59 112.10 131.87 112.07 131.01 L 112.04 130.02 C 112.01 129.16 111.30 128.48 110.43 128.51 C 109.57 128.53 108.89 129.25 108.92 130.12 Z M 108.95 131.08 L 108.96 132.07 C 108.98 132.94 109.69 133.62 110.55 133.61 C 111.41 133.60 112.10 132.89 112.09 132.02 L 112.07 131.03 C 112.06 130.17 111.35 129.48 110.48 129.50 C 109.62 129.51 108.93 130.22 108.95 131.08 Z M 108.96 132.06 L 108.97 133.06 C 108.98 133.92 109.69 134.62 110.55 134.61 C 111.41 134.60 112.10 133.90 112.10 133.04 L 112.09 132.04 C 112.08 131.17 111.37 130.48 110.51 130.49 C 109.65 130.50 108.96 131.20 108.96 132.06 Z M 108.97 133.05 L 108.98 134.04 C 108.98 134.90 109.68 135.60 110.54 135.60 C 111.40 135.60 112.10 134.90 112.10 134.03 L 112.10 133.04 C 112.09 132.18 111.39 131.48 110.53 131.49 C 109.67 131.49 108.97 132.19 108.97 133.05 Z M 108.98 134.04 L 108.98 135.04 C 108.98 135.90 109.68 136.60 110.54 136.60 C 111.40 136.60 112.10 135.90 112.10 135.04 L 112.10 134.04 C 112.10 133.17 111.40 132.48 110.54 132.48 C 109.67 132.48 108.98 133.18 108.98 134.04 Z M 108.98 135.04 L 108.98 136.02 C 108.98 136.88 109.68 137.58 110.54 137.58 C 111.40 137.58 112.10 136.88 112.10 136.02 L 112.10 135.04 C 112.10 134.17 111.40 133.47 110.54 133.47 C 109.68 133.47 108.98 134.17 108.98 135.04 Z M 108.98 136.02 L 108.98 137.03 C 108.98 137.89 109.68 138.59 110.54 138.59 C 111.40 138.59 112.10 137.89 112.10 137.03 L 112.10 136.02 C 112.10 135.16 111.40 134.46 110.54 134.46 C 109.68 134.46 108.98 135.16 108.98 136.02 Z M 108.98 137.03 L 108.98 138.04 C 108.98 138.90 109.68 139.60 110.54 139.60 C 111.40 139.60 112.10 138.90 112.10 138.04 L 112.10 137.03 C 112.10 136.16 111.40 135.47 110.54 135.47 C 109.68 135.47 108.98 136.16 108.98 137.03 Z M 108.98 138.04 L 108.98 139.03 C 108.98 139.90 109.68 140.60 110.54 140.60 C 111.40 140.60 112.10 139.90 112.10 139.03 L 112.10 138.04 C 112.10 137.17 111.40 136.48 110.54 136.48 C 109.68 136.48 108.98 137.17 108.98 138.04 Z M 108.98 139.03 L 108.98 140.02 C 108.98 140.89 109.68 141.59 110.54 141.59 C 111.40 141.59 112.10 140.89 112.10 140.02 L 112.10 139.03 C 112.10 138.17 111.40 137.47 110.54 137.47 C 109.68 137.47 108.98 138.17 108.98 139.03 Z M 108.98 140.02 L 108.98 141.02 C 108.98 141.89 109.68 142.58 110.54 142.58 C 111.40 142.58 112.10 141.89 112.10 141.02 L 112.10 140.02 C 112.10 139.16 111.40 138.46 110.54 138.46 C 109.68 138.46 108.98 139.16 108.98 140.02 Z M 108.98 141.02 L 108.98 142.04 C 108.98 142.90 109.68 143.60 110.54 143.60 C 111.40 143.60 112.10 142.90 112.10 142.04 L 112.10 141.02 C 112.10 140.16 111.40 139.46 110.54 139.46 C 109.68 139.46 108.98 140.16 108.98 141.02 Z M 108.98 142.04 L 108.98 143.04 C 108.98 143.90 109.68 144.60 110.54 144.60 C 111.40 144.60 112.10 143.90 112.10 143.04 L 112.10 142.04 C 112.10 141.18 111.40 140.48 110.54 140.48 C 109.68 140.48 108.98 141.18 108.98 142.04 Z M 108.98 143.04 L 108.98 144.05 C 108.98 144.91 109.68 145.61 110.54 145.61 C 111.40 145.61 112.10 144.91 112.10 144.05 L 112.10 143.04 C 112.10 142.18 111.40 141.48 110.54 141.48 C 109.68 141.48 108.98 142.18 108.98 143.04 Z M 108.98 144.05 L 108.98 145.05 C 108.98 145.91 109.68 146.61 110.54 146.61 C 111.40 146.61 112.10 145.91 112.10 145.05 L 112.10 144.05 C 112.10 143.19 111.40 142.49 110.54 142.49 C 109.68 142.49 108.98 143.19 108.98 144.05 Z M 108.98 145.05 L 108.98 146.06 C 108.98 146.92 109.68 147.62 110.54 147.62 C 111.40 147.62 112.10 146.92 112.10 146.06 L 112.10 145.05 C 112.10 144.19 111.40 143.49 110.54 143.49 C 109.68 143.49 108.98 144.19 108.98 145.05 Z M 108.98 146.06 L 108.98 147.07 C 108.98 147.94 109.68 148.64 110.54 148.64 C 111.40 148.64 112.10 147.94 112.10 147.07 L 112.10 146.06 C 112.10 145.20 111.40 144.50 110.54 144.50 C 109.68 144.50 108.98 145.20 108.98 146.06 Z M 108.98 147.07 L 108.98 148.06 C 108.98 148.93 109.68 149.62 110.54 149.62 C 111.40 149.62 112.10 148.93 112.10 148.06 L 112.10 147.07 C 112.10 146.21 111.40 145.51 110.54 145.51 C 109.68 145.51 108.98 146.21 108.98 147.07 Z M 108.98 148.06 L 108.98 149.04 C 108.98 149.90 109.68 150.60 110.54 150.60 C 111.40 150.60 112.10 149.90 112.10 149.04 L 112.10 148.06 C 112.10 147.20 111.40 146.50 110.54 146.50 C 109.68 146.50 108.98 147.20 108.98 148.06 Z M 108.98 149.04 L 108.98 149.97 C 108.98 150.83 109.68 151.53 110.54 151.53 C 111.40 151.53 112.10 150.83 112.10 149.97 L 112.10 149.04 C 112.10 148.17 111.40 147.48 110.54 147.48 C 109.67 147.48 108.98 148.18 108.98 149.04 Z M 108.98 149.98 L 108.99 150.95 C 108.99 151.81 109.70 152.51 110.56 152.50 C 111.42 152.49 112.11 151.79 112.11 150.93 L 112.10 149.96 C 112.09 149.10 111.39 148.40 110.53 148.41 C 109.66 148.42 108.97 149.12 108.98 149.98 Z M 108.99 150.97 L 109.01 152.01 C 109.02 152.87 109.74 153.55 110.60 153.54 C 111.46 153.52 112.14 152.81 112.13 151.94 L 112.11 150.91 C 112.09 150.05 111.38 149.36 110.52 149.38 C 109.65 149.39 108.97 150.11 108.99 150.97 Z M 109.01 152.03 L 109.04 153.07 C 109.07 153.93 109.79 154.61 110.66 154.58 C 111.52 154.55 112.19 153.83 112.16 152.96 L 112.13 151.92 C 112.10 151.06 111.38 150.39 110.51 150.42 C 109.65 150.44 108.98 151.17 109.01 152.03 Z M 109.04 153.09 L 109.09 154.08 C 109.13 154.94 109.86 155.61 110.72 155.57 C 111.58 155.53 112.25 154.80 112.21 153.94 L 112.16 152.95 C 112.12 152.09 111.39 151.42 110.53 151.46 C 109.67 151.50 109.00 152.23 109.04 153.09 Z M 109.09 154.09 L 109.14 155.11 C 109.18 155.97 109.92 156.64 110.78 156.59 C 111.64 156.55 112.30 155.82 112.26 154.95 L 112.21 153.93 C 112.16 153.07 111.43 152.41 110.57 152.45 C 109.71 152.49 109.04 153.23 109.09 154.09 Z M 109.14 155.12 L 109.19 156.13 C 109.24 157.00 109.97 157.66 110.83 157.61 C 111.69 157.57 112.36 156.83 112.31 155.97 L 112.26 154.95 C 112.21 154.09 111.48 153.43 110.62 153.47 C 109.76 153.52 109.09 154.25 109.14 155.12 Z M 109.19 156.13 L 109.24 157.11 C 109.29 157.97 110.02 158.64 110.88 158.59 C 111.74 158.55 112.40 157.82 112.36 156.96 L 112.31 155.97 C 112.27 155.11 111.53 154.45 110.67 154.49 C 109.81 154.54 109.15 155.27 109.19 156.13 Z M 109.24 157.11 L 109.29 158.09 C 109.33 158.95 110.05 159.62 110.92 159.58 C 111.78 159.54 112.44 158.81 112.41 157.95 L 112.36 156.96 C 112.32 156.10 111.59 155.44 110.73 155.48 C 109.87 155.51 109.20 156.24 109.24 157.11 Z M 109.29 158.09 L 109.33 159.05 C 109.36 159.91 110.09 160.58 110.95 160.54 C 111.81 160.50 112.48 159.78 112.45 158.92 L 112.41 157.96 C 112.37 157.10 111.64 156.43 110.78 156.46 C 109.92 156.50 109.25 157.23 109.29 158.09 Z M 109.33 159.05 L 109.37 160.04 C 109.41 160.90 110.14 161.56 111.00 161.52 C 111.86 161.49 112.53 160.76 112.49 159.89 L 112.45 158.91 C 112.41 158.05 111.68 157.38 110.82 157.42 C 109.96 157.46 109.29 158.19 109.33 159.05 Z M 109.37 160.05 L 109.43 161.11 C 109.47 161.97 110.20 162.63 111.07 162.59 C 111.93 162.54 112.59 161.81 112.54 160.95 L 112.49 159.88 C 112.45 159.02 111.71 158.36 110.85 158.41 C 109.99 158.45 109.33 159.18 109.37 160.05 Z M 109.43 161.12 L 109.48 162.06 C 109.53 162.92 110.27 163.58 111.13 163.53 C 111.99 163.48 112.65 162.74 112.60 161.88 L 112.54 160.93 C 112.49 160.07 111.75 159.42 110.89 159.47 C 110.03 159.52 109.38 160.26 109.43 161.12 Z M 109.48 162.07 L 109.55 163.06 C 109.60 163.92 110.35 164.58 111.21 164.52 C 112.07 164.46 112.72 163.72 112.66 162.86 L 112.60 161.87 C 112.54 161.01 111.80 160.35 110.94 160.41 C 110.08 160.47 109.43 161.21 109.48 162.07 Z M 109.55 163.07 L 109.62 164.10 C 109.68 164.96 110.42 165.60 111.29 165.54 C 112.15 165.48 112.79 164.74 112.73 163.88 L 112.66 162.85 C 112.60 161.99 111.86 161.34 111.00 161.40 C 110.14 161.46 109.49 162.21 109.55 163.07 Z M 109.62 164.10 L 109.70 165.13 C 109.76 165.99 110.51 166.64 111.37 166.57 C 112.23 166.51 112.87 165.76 112.81 164.90 L 112.73 163.87 C 112.67 163.01 111.92 162.37 111.06 162.43 C 110.20 162.49 109.56 163.24 109.62 164.10 Z M 109.70 165.14 L 109.77 166.14 C 109.84 167.00 110.59 167.64 111.45 167.58 C 112.31 167.51 112.95 166.76 112.89 165.90 L 112.81 164.89 C 112.74 164.03 111.99 163.39 111.13 163.46 C 110.27 163.53 109.63 164.28 109.70 165.14 Z M 109.78 166.15 L 109.86 167.20 C 109.93 168.06 110.69 168.70 111.55 168.63 C 112.41 168.56 113.05 167.80 112.97 166.94 L 112.89 165.89 C 112.82 165.03 112.06 164.39 111.20 164.46 C 110.34 164.53 109.70 165.29 109.78 166.15 Z M 109.86 167.21 L 109.95 168.22 C 110.03 169.08 110.78 169.72 111.64 169.64 C 112.50 169.57 113.14 168.81 113.06 167.95 L 112.97 166.94 C 112.90 166.08 112.14 165.44 111.28 165.52 C 110.42 165.59 109.79 166.35 109.86 167.21 Z M 109.95 168.23 L 110.04 169.20 C 110.12 170.06 110.88 170.70 111.73 170.62 C 112.59 170.54 113.23 169.78 113.15 168.92 L 113.06 167.95 C 112.98 167.09 112.23 166.45 111.37 166.53 C 110.51 166.61 109.87 167.37 109.95 168.23 Z M 110.04 169.21 L 110.13 170.17 C 110.21 171.03 110.97 171.66 111.83 171.58 C 112.68 171.50 113.32 170.74 113.24 169.88 L 113.15 168.92 C 113.07 168.06 112.31 167.43 111.45 167.51 C 110.59 167.59 109.96 168.35 110.04 169.21 Z M 110.13 170.17 L 110.21 171.09 C 110.29 171.95 111.05 172.58 111.91 172.50 C 112.77 172.42 113.40 171.66 113.32 170.81 L 113.24 169.88 C 113.16 169.02 112.40 168.39 111.54 168.47 C 110.68 168.55 110.05 169.31 110.13 170.17 Z M 110.21 171.09 L 110.29 171.96 C 110.37 172.82 111.13 173.45 111.99 173.37 C 112.85 173.29 113.48 172.53 113.40 171.68 L 113.32 170.81 C 113.24 169.95 112.48 169.31 111.63 169.39 C 110.77 169.47 110.13 170.23 110.21 171.09 Z M 110.29 171.96 L 110.38 172.88 C 110.46 173.74 111.22 174.37 112.07 174.29 C 112.93 174.21 113.56 173.45 113.49 172.59 L 113.40 171.67 C 113.32 170.82 112.56 170.18 111.70 170.26 C 110.84 170.34 110.21 171.10 110.29 171.96 Z M 110.38 172.88 L 110.47 173.87 C 110.55 174.73 111.31 175.36 112.17 175.28 C 113.03 175.20 113.66 174.44 113.58 173.58 L 113.49 172.59 C 113.40 171.73 112.64 171.10 111.78 171.18 C 110.93 171.26 110.30 172.02 110.38 172.88 Z M 110.47 173.87 L 110.58 174.96 C 110.66 175.82 111.42 176.45 112.28 176.37 C 113.14 176.28 113.77 175.52 113.68 174.66 L 113.58 173.57 C 113.49 172.71 112.73 172.09 111.87 172.17 C 111.02 172.25 110.39 173.02 110.47 173.87 Z M 110.58 174.97 L 110.69 176.11 C 110.78 176.97 111.54 177.60 112.40 177.51 C 113.26 177.43 113.88 176.66 113.80 175.80 L 113.68 174.66 C 113.60 173.80 112.83 173.17 111.97 173.26 C 111.12 173.35 110.49 174.11 110.58 174.97 Z M 110.69 176.12 L 110.79 177.07 C 110.88 177.93 111.64 178.55 112.50 178.47 C 113.36 178.38 113.98 177.61 113.90 176.75 L 113.80 175.80 C 113.71 174.94 112.94 174.32 112.09 174.41 C 111.23 174.49 110.60 175.26 110.69 176.12 Z M 110.79 177.07 L 110.89 178.08 C 110.98 178.94 111.75 179.56 112.61 179.47 C 113.47 179.38 114.09 178.61 114.00 177.75 L 113.90 176.75 C 113.81 175.89 113.04 175.27 112.18 175.36 C 111.32 175.45 110.70 176.22 110.79 177.07 Z M 110.89 178.08 L 111.00 179.11 C 111.10 179.97 111.86 180.59 112.72 180.50 C 113.58 180.41 114.20 179.64 114.11 178.78 L 114.00 177.75 C 113.91 176.89 113.14 176.27 112.28 176.36 C 111.43 176.45 110.80 177.22 110.89 178.08 Z M 111.00 179.12 L 111.12 180.16 C 111.21 181.01 111.98 181.63 112.84 181.54 C 113.69 181.45 114.31 180.68 114.22 179.82 L 114.11 178.78 C 114.02 177.93 113.25 177.31 112.39 177.40 C 111.53 177.49 110.91 178.26 111.00 179.12 Z M 111.12 180.16 L 111.23 181.18 C 111.32 182.04 112.09 182.66 112.95 182.57 C 113.81 182.47 114.43 181.70 114.33 180.85 L 114.22 179.82 C 114.13 178.96 113.36 178.34 112.50 178.44 C 111.64 178.53 111.02 179.30 111.12 180.16 Z M 111.23 181.19 L 111.34 182.17 C 111.43 183.03 112.20 183.65 113.06 183.55 C 113.92 183.46 114.54 182.69 114.44 181.83 L 114.33 180.84 C 114.24 179.99 113.47 179.37 112.61 179.46 C 111.75 179.56 111.13 180.33 111.23 181.19 Z M 111.34 182.18 L 111.44 183.12 C 111.54 183.98 112.31 184.59 113.17 184.50 C 114.03 184.40 114.64 183.63 114.55 182.77 L 114.44 181.83 C 114.34 180.97 113.57 180.35 112.72 180.45 C 111.86 180.55 111.24 181.32 111.34 182.18 Z M 111.45 183.12 L 111.58 184.33 C 111.68 185.19 112.46 185.80 113.31 185.70 C 114.17 185.60 114.79 184.83 114.69 183.97 L 114.55 182.77 C 114.45 181.91 113.67 181.30 112.82 181.39 C 111.96 181.49 111.35 182.27 111.45 183.12 Z M 111.59 184.34 L 111.71 185.41 C 111.82 186.26 112.59 186.87 113.45 186.77 C 114.31 186.67 114.92 185.89 114.81 185.03 L 114.69 183.96 C 114.58 183.11 113.80 182.50 112.95 182.60 C 112.09 182.70 111.48 183.48 111.59 184.34 Z M 111.72 185.42 L 111.84 186.38 C 111.95 187.23 112.73 187.84 113.58 187.73 C 114.44 187.62 115.04 186.84 114.93 185.98 L 114.81 185.02 C 114.70 184.17 113.92 183.56 113.07 183.67 C 112.21 183.78 111.61 184.56 111.72 185.42 Z M 111.84 186.39 L 111.96 187.27 C 112.07 188.12 112.86 188.72 113.71 188.60 C 114.57 188.49 115.17 187.70 115.05 186.85 L 114.93 185.97 C 114.82 185.12 114.03 184.52 113.18 184.63 C 112.32 184.75 111.72 185.53 111.84 186.39 Z M 111.96 187.28 L 112.08 188.12 C 112.20 188.98 113.00 189.57 113.85 189.44 C 114.70 189.32 115.29 188.53 115.17 187.67 L 115.05 186.83 C 114.93 185.98 114.13 185.39 113.28 185.51 C 112.43 185.64 111.84 186.43 111.96 187.28 Z M 112.08 188.14 L 112.24 189.16 C 112.37 190.02 113.17 190.60 114.02 190.47 C 114.88 190.34 115.46 189.54 115.33 188.69 L 115.17 187.66 C 115.04 186.81 114.24 186.22 113.39 186.36 C 112.53 186.49 111.95 187.29 112.08 188.14 Z M 112.24 189.17 L 112.40 190.17 C 112.54 191.02 113.34 191.60 114.19 191.46 C 115.04 191.32 115.62 190.52 115.49 189.67 L 115.33 188.68 C 115.19 187.83 114.39 187.25 113.54 187.38 C 112.69 187.52 112.11 188.32 112.24 189.17 Z M 112.40 190.16 L 112.56 191.13 C 112.69 191.98 113.49 192.56 114.34 192.43 C 115.20 192.29 115.78 191.49 115.64 190.64 L 115.49 189.67 C 115.35 188.82 114.55 188.24 113.70 188.38 C 112.85 188.51 112.27 189.31 112.40 190.16 Z M 112.56 191.12 L 112.70 192.07 C 112.82 192.92 113.62 193.51 114.47 193.38 C 115.32 193.25 115.91 192.46 115.79 191.60 L 115.64 190.66 C 115.52 189.80 114.72 189.22 113.87 189.34 C 113.02 189.47 112.43 190.26 112.56 191.12 Z M 112.69 192.04 L 112.82 192.98 C 112.93 193.84 113.72 194.44 114.57 194.32 C 115.43 194.21 116.03 193.42 115.91 192.57 L 115.79 191.63 C 115.67 190.77 114.89 190.17 114.03 190.29 C 113.18 190.40 112.58 191.19 112.69 192.04 Z M 112.82 192.96 L 112.93 193.93 C 113.04 194.78 113.82 195.39 114.67 195.29 C 115.53 195.18 116.14 194.41 116.03 193.55 L 115.92 192.59 C 115.81 191.73 115.03 191.12 114.18 191.22 C 113.32 191.33 112.71 192.11 112.82 192.96 Z M 112.93 193.91 L 113.05 194.94 C 113.15 195.79 113.92 196.41 114.78 196.31 C 115.63 196.21 116.25 195.44 116.15 194.58 L 116.04 193.56 C 115.94 192.71 115.17 192.09 114.31 192.19 C 113.45 192.28 112.84 193.06 112.93 193.91 Z M 113.05 194.93 L 113.16 195.97 C 113.25 196.82 114.03 197.44 114.88 197.35 C 115.74 197.26 116.36 196.49 116.26 195.63 L 116.15 194.59 C 116.06 193.73 115.29 193.11 114.43 193.21 C 113.57 193.30 112.95 194.07 113.05 194.93 Z M 113.16 195.97 L 113.27 196.93 C 113.36 197.79 114.13 198.41 114.99 198.32 C 115.84 198.22 116.46 197.45 116.37 196.60 L 116.27 195.63 C 116.17 194.77 115.40 194.15 114.54 194.25 C 113.69 194.34 113.07 195.11 113.16 195.97 Z M 113.27 196.94 L 113.38 197.94 C 113.47 198.80 114.24 199.42 115.10 199.32 C 115.96 199.23 116.58 198.46 116.48 197.60 L 116.37 196.59 C 116.28 195.74 115.50 195.12 114.65 195.21 C 113.79 195.31 113.17 196.08 113.27 196.94 Z M 113.38 197.95 L 113.49 198.97 C 113.59 199.82 114.37 200.44 115.22 200.34 C 116.08 200.24 116.69 199.47 116.60 198.61 L 116.48 197.59 C 116.38 196.74 115.61 196.12 114.75 196.22 C 113.89 196.32 113.28 197.09 113.38 197.95 Z M 113.50 198.98 L 113.62 199.98 C 113.72 200.84 114.50 201.45 115.35 201.35 C 116.21 201.24 116.82 200.46 116.72 199.61 L 116.60 198.60 C 116.49 197.75 115.71 197.14 114.86 197.24 C 114.00 197.34 113.39 198.12 113.50 198.98 Z M 113.62 200.00 L 113.75 201.03 C 113.87 201.89 114.65 202.49 115.51 202.38 C 116.36 202.26 116.96 201.48 116.85 200.63 L 116.72 199.59 C 116.60 198.74 115.82 198.14 114.96 198.25 C 114.11 198.36 113.51 199.14 113.62 200.00 Z M 113.76 201.05 L 113.91 202.08 C 114.03 202.93 114.82 203.52 115.68 203.40 C 116.53 203.28 117.12 202.48 117.00 201.63 L 116.85 200.60 C 116.72 199.75 115.93 199.16 115.08 199.28 C 114.22 199.41 113.63 200.20 113.76 201.05 Z M 113.91 202.11 L 114.07 203.09 C 114.21 203.94 115.02 204.52 115.87 204.38 C 116.72 204.24 117.29 203.43 117.15 202.58 L 116.99 201.60 C 116.85 200.75 116.05 200.18 115.20 200.31 C 114.35 200.45 113.77 201.26 113.91 202.11 Z M 114.08 203.12 L 114.26 204.07 C 114.41 204.92 115.23 205.48 116.08 205.32 C 116.93 205.16 117.48 204.34 117.33 203.50 L 117.15 202.55 C 116.99 201.70 116.17 201.14 115.33 201.30 C 114.48 201.46 113.92 202.28 114.08 203.12 Z M 114.26 204.11 L 114.47 205.05 C 114.65 205.90 115.48 206.43 116.32 206.25 C 117.16 206.07 117.70 205.24 117.52 204.40 L 117.32 203.46 C 117.14 202.61 116.31 202.08 115.46 202.26 C 114.62 202.44 114.08 203.27 114.26 204.11 Z M 114.48 205.10 L 114.72 206.07 C 114.92 206.91 115.77 207.42 116.61 207.21 C 117.44 207.01 117.96 206.16 117.75 205.32 L 117.51 204.35 C 117.30 203.51 116.46 203.00 115.62 203.21 C 114.78 203.42 114.27 204.26 114.48 205.10 Z M 114.73 206.13 L 115.01 207.08 C 115.24 207.91 116.11 208.39 116.94 208.15 C 117.77 207.92 118.25 207.05 118.01 206.22 L 117.73 205.27 C 117.50 204.44 116.63 203.96 115.80 204.20 C 114.97 204.43 114.49 205.30 114.73 206.13 Z M 115.03 207.15 L 115.34 208.09 C 115.61 208.91 116.50 209.35 117.32 209.08 C 118.13 208.81 118.58 207.92 118.30 207.11 L 117.99 206.16 C 117.72 205.34 116.83 204.90 116.01 205.17 C 115.20 205.44 114.75 206.33 115.03 207.15 Z M 115.36 208.16 L 115.71 209.07 C 116.02 209.87 116.93 210.28 117.73 209.97 C 118.54 209.66 118.94 208.75 118.63 207.95 L 118.28 207.04 C 117.97 206.23 117.07 205.83 116.26 206.14 C 115.46 206.45 115.06 207.35 115.36 208.16 Z M 115.74 209.14 L 116.12 210.00 C 116.47 210.79 117.39 211.14 118.18 210.80 C 118.97 210.45 119.33 209.53 118.98 208.74 L 118.60 207.88 C 118.25 207.09 117.33 206.73 116.54 207.08 C 115.75 207.43 115.40 208.35 115.74 209.14 Z M 116.16 210.07 L 116.60 210.94 C 116.98 211.71 117.92 212.02 118.69 211.63 C 119.46 211.24 119.77 210.30 119.38 209.53 L 118.94 208.66 C 118.55 207.89 117.61 207.58 116.84 207.97 C 116.08 208.36 115.77 209.30 116.16 210.07 Z M 116.64 211.02 L 117.15 211.91 C 117.59 212.65 118.54 212.90 119.29 212.47 C 120.03 212.04 120.29 211.08 119.85 210.34 L 119.34 209.45 C 118.91 208.71 117.95 208.45 117.20 208.89 C 116.46 209.32 116.21 210.27 116.64 211.02 Z M 117.20 211.98 L 117.81 212.89 C 118.28 213.61 119.25 213.81 119.97 213.33 C 120.69 212.86 120.88 211.89 120.41 211.17 L 119.80 210.26 C 119.33 209.54 118.36 209.34 117.64 209.82 C 116.92 210.30 116.73 211.27 117.20 211.98 Z M 117.85 212.96 L 118.44 213.76 C 118.96 214.45 119.93 214.60 120.63 214.09 C 121.32 213.58 121.47 212.60 120.96 211.91 L 120.36 211.10 C 119.85 210.41 118.87 210.26 118.18 210.78 C 117.49 211.29 117.34 212.27 117.85 212.96 Z M 118.47 213.80 L 119.11 214.61 C 119.65 215.29 120.63 215.40 121.31 214.87 C 121.98 214.33 122.10 213.35 121.56 212.67 L 120.92 211.87 C 120.39 211.19 119.41 211.07 118.73 211.61 C 118.05 212.14 117.94 213.13 118.47 213.80 Z M 119.13 214.64 L 119.79 215.43 C 120.34 216.10 121.32 216.19 121.99 215.64 C 122.65 215.10 122.75 214.11 122.20 213.45 L 121.54 212.65 C 120.99 211.98 120.01 211.89 119.35 212.44 C 118.68 212.99 118.59 213.97 119.13 214.64 Z M 119.80 215.44 L 120.45 216.21 C 121.00 216.87 121.99 216.96 122.65 216.40 C 123.31 215.85 123.39 214.86 122.84 214.20 L 122.19 213.43 C 121.63 212.77 120.65 212.69 119.99 213.24 C 119.33 213.80 119.25 214.78 119.80 215.44 Z M 120.45 216.21 L 121.05 216.93 C 121.61 217.59 122.59 217.68 123.25 217.12 C 123.91 216.57 124.00 215.58 123.44 214.92 L 122.84 214.20 C 122.28 213.54 121.30 213.46 120.64 214.01 C 119.98 214.57 119.89 215.55 120.45 216.21 Z M 121.04 216.92 L 121.74 217.77 C 122.29 218.44 123.27 218.54 123.94 217.99 C 124.61 217.45 124.70 216.46 124.16 215.79 L 123.46 214.94 C 122.91 214.27 121.93 214.18 121.26 214.72 C 120.59 215.27 120.49 216.25 121.04 216.92 Z M 121.72 217.75 L 122.34 218.54 C 122.88 219.22 123.86 219.34 124.54 218.81 C 125.22 218.27 125.33 217.29 124.80 216.61 L 124.18 215.82 C 123.65 215.14 122.66 215.02 121.99 215.56 C 121.31 216.09 121.19 217.07 121.72 217.75 Z M 122.32 218.51 L 122.89 219.27 C 123.40 219.96 124.38 220.10 125.07 219.58 C 125.76 219.06 125.90 218.09 125.39 217.40 L 124.82 216.64 C 124.31 215.95 123.33 215.81 122.64 216.33 C 121.95 216.85 121.81 217.82 122.32 218.51 Z M 122.87 219.24 L 123.41 220.00 C 123.91 220.70 124.89 220.86 125.59 220.36 C 126.29 219.86 126.45 218.88 125.95 218.18 L 125.41 217.42 C 124.90 216.72 123.93 216.56 123.23 217.06 C 122.53 217.57 122.37 218.54 122.87 219.24 Z M 123.40 219.98 L 123.96 220.79 C 124.45 221.50 125.42 221.68 126.13 221.19 C 126.84 220.70 127.02 219.72 126.53 219.01 L 125.96 218.20 C 125.47 217.49 124.50 217.32 123.79 217.81 C 123.08 218.30 122.91 219.27 123.40 219.98 Z M 123.94 220.77 L 124.50 221.61 C 124.98 222.32 125.95 222.52 126.67 222.04 C 127.38 221.56 127.58 220.59 127.10 219.87 L 126.54 219.04 C 126.06 218.32 125.09 218.13 124.38 218.60 C 123.66 219.08 123.47 220.05 123.94 220.77 Z M 124.49 221.58 L 125.03 222.43 C 125.50 223.16 126.46 223.37 127.19 222.90 C 127.92 222.44 128.13 221.47 127.66 220.74 L 127.11 219.90 C 126.65 219.17 125.68 218.96 124.96 219.43 C 124.23 219.89 124.02 220.86 124.49 221.58 Z M 125.02 222.41 L 125.54 223.26 C 125.99 223.99 126.96 224.22 127.69 223.77 C 128.42 223.32 128.65 222.36 128.20 221.62 L 127.68 220.77 C 127.22 220.04 126.26 219.81 125.53 220.26 C 124.79 220.71 124.56 221.67 125.02 222.41 Z M 125.53 223.24 L 126.04 224.09 C 126.48 224.83 127.44 225.08 128.18 224.63 C 128.92 224.19 129.16 223.23 128.72 222.49 L 128.21 221.64 C 127.77 220.90 126.81 220.66 126.07 221.10 C 125.33 221.54 125.09 222.50 125.53 223.24 Z M 126.04 224.10 L 126.55 224.95 C 127.00 225.69 127.96 225.93 128.69 225.48 C 129.43 225.04 129.67 224.08 129.23 223.34 L 128.72 222.49 C 128.28 221.75 127.32 221.51 126.58 221.96 C 125.84 222.40 125.60 223.36 126.04 224.10 Z M 126.57 224.97 L 127.10 225.83 C 127.56 226.56 128.52 226.78 129.25 226.32 C 129.98 225.87 130.21 224.90 129.75 224.17 L 129.22 223.32 C 128.76 222.59 127.80 222.36 127.06 222.82 C 126.33 223.28 126.11 224.24 126.57 224.97 Z M 127.13 225.87 L 127.69 226.71 C 128.17 227.43 129.14 227.62 129.86 227.14 C 130.57 226.66 130.77 225.69 130.29 224.97 L 129.72 224.13 C 129.24 223.41 128.27 223.22 127.56 223.70 C 126.84 224.18 126.65 225.15 127.13 225.87 Z M 127.73 226.76 L 128.33 227.58 C 128.83 228.28 129.81 228.43 130.51 227.93 C 131.20 227.42 131.36 226.44 130.85 225.74 L 130.25 224.92 C 129.74 224.22 128.77 224.07 128.07 224.58 C 127.37 225.09 127.22 226.06 127.73 226.76 Z M 128.37 227.64 L 129.00 228.42 C 129.54 229.10 130.52 229.20 131.20 228.66 C 131.87 228.12 131.97 227.14 131.43 226.47 L 130.81 225.69 C 130.26 225.01 129.28 224.91 128.61 225.45 C 127.94 225.99 127.83 226.97 128.37 227.64 Z M 129.06 228.50 L 129.72 229.21 C 130.30 229.85 131.29 229.90 131.92 229.32 C 132.56 228.74 132.61 227.75 132.03 227.11 L 131.37 226.40 C 130.79 225.76 129.80 225.71 129.17 226.29 C 128.53 226.87 128.48 227.86 129.06 228.50 Z M 129.81 229.31 L 130.54 229.99 C 131.17 230.57 132.16 230.54 132.75 229.91 C 133.33 229.27 133.30 228.29 132.67 227.70 L 131.93 227.02 C 131.30 226.43 130.31 226.47 129.73 227.10 C 129.14 227.73 129.18 228.72 129.81 229.31 Z M 130.67 230.09 L 131.45 230.68 C 132.14 231.20 133.11 231.06 133.63 230.37 C 134.15 229.68 134.01 228.70 133.32 228.18 L 132.54 227.59 C 131.85 227.08 130.87 227.22 130.35 227.91 C 129.84 228.59 129.98 229.57 130.67 230.09 Z M 131.59 230.77 L 132.45 231.29 C 133.19 231.73 134.15 231.48 134.59 230.74 C 135.03 230.00 134.79 229.04 134.05 228.60 L 133.18 228.09 C 132.44 227.65 131.48 227.89 131.04 228.63 C 130.60 229.37 130.84 230.33 131.59 230.77 Z M 132.58 231.35 L 133.46 231.77 C 134.24 232.14 135.17 231.81 135.54 231.03 C 135.91 230.25 135.58 229.32 134.80 228.95 L 133.92 228.53 C 133.14 228.16 132.21 228.49 131.84 229.27 C 131.47 230.05 131.80 230.98 132.58 231.35 Z M 133.55 231.81 L 134.47 232.18 C 135.27 232.49 136.18 232.10 136.50 231.30 C 136.81 230.50 136.42 229.59 135.62 229.27 L 134.70 228.91 C 133.90 228.59 132.99 228.99 132.68 229.79 C 132.36 230.59 132.75 231.50 133.55 231.81 Z M 134.54 232.20 L 135.51 232.53 C 136.32 232.81 137.21 232.37 137.49 231.55 C 137.76 230.74 137.33 229.85 136.51 229.57 L 135.55 229.25 C 134.73 228.97 133.84 229.41 133.57 230.22 C 133.29 231.04 133.72 231.92 134.54 232.20 Z M 135.56 232.55 L 136.55 232.84 C 137.38 233.09 138.25 232.62 138.49 231.79 C 138.74 230.96 138.27 230.09 137.44 229.85 L 136.45 229.55 C 135.63 229.31 134.76 229.78 134.51 230.61 C 134.27 231.43 134.74 232.30 135.56 232.55 Z M 136.60 232.85 L 137.56 233.11 C 138.39 233.33 139.25 232.83 139.47 232.00 C 139.69 231.16 139.19 230.31 138.36 230.09 L 137.39 229.84 C 136.56 229.62 135.71 230.11 135.49 230.95 C 135.27 231.78 135.76 232.63 136.60 232.85 Z M 137.59 233.12 L 138.55 233.35 C 139.38 233.55 140.23 233.03 140.43 232.20 C 140.63 231.36 140.12 230.51 139.28 230.31 L 138.33 230.08 C 137.49 229.88 136.64 230.40 136.44 231.23 C 136.24 232.07 136.76 232.92 137.59 233.12 Z M 138.56 233.35 L 139.53 233.57 C 140.37 233.76 141.21 233.24 141.40 232.40 C 141.59 231.56 141.07 230.72 140.23 230.53 L 139.26 230.31 C 138.42 230.12 137.58 230.64 137.39 231.48 C 137.20 232.32 137.72 233.16 138.56 233.35 Z M 139.53 233.57 L 140.53 233.80 C 141.37 233.99 142.20 233.46 142.40 232.62 C 142.59 231.78 142.06 230.95 141.22 230.75 L 140.23 230.53 C 139.38 230.34 138.55 230.86 138.36 231.70 C 138.17 232.54 138.69 233.38 139.53 233.57 Z M 140.52 233.80 L 141.51 234.03 C 142.35 234.23 143.19 233.71 143.39 232.87 C 143.59 232.03 143.07 231.19 142.23 230.99 L 141.23 230.76 C 140.39 230.56 139.55 231.08 139.35 231.92 C 139.16 232.76 139.68 233.60 140.52 233.80 Z M 141.51 234.03 L 142.51 234.27 C 143.35 234.47 144.19 233.96 144.39 233.12 C 144.59 232.28 144.08 231.44 143.24 231.24 L 142.24 230.99 C 141.40 230.79 140.56 231.31 140.35 232.15 C 140.15 232.98 140.67 233.83 141.51 234.03 Z M 142.51 234.27 L 143.51 234.51 C 144.35 234.71 145.19 234.19 145.39 233.35 C 145.59 232.51 145.07 231.67 144.23 231.47 L 143.23 231.24 C 142.40 231.04 141.55 231.55 141.35 232.39 C 141.16 233.23 141.67 234.07 142.51 234.27 Z M 143.53 234.51 L 144.49 234.73 C 145.34 234.92 146.17 234.39 146.36 233.55 C 146.55 232.71 146.02 231.87 145.18 231.68 L 144.21 231.47 C 143.37 231.28 142.54 231.81 142.35 232.65 C 142.16 233.49 142.69 234.33 143.53 234.51 Z M 144.54 234.74 L 145.50 234.93 C 146.35 235.09 147.17 234.54 147.34 233.70 C 147.50 232.85 146.95 232.03 146.10 231.86 L 145.14 231.67 C 144.29 231.51 143.47 232.06 143.30 232.91 C 143.14 233.75 143.69 234.57 144.54 234.74 Z M 145.57 234.94 L 146.62 235.10 C 147.48 235.23 148.27 234.64 148.40 233.79 C 148.53 232.93 147.94 232.14 147.09 232.01 L 146.04 231.85 C 145.18 231.72 144.39 232.31 144.26 233.16 C 144.13 234.02 144.72 234.81 145.57 234.94 Z M 146.70 235.11 L 147.67 235.21 C 148.53 235.29 149.29 234.67 149.38 233.81 C 149.46 232.95 148.84 232.19 147.98 232.10 L 147.01 232.00 C 146.15 231.91 145.39 232.54 145.30 233.40 C 145.22 234.26 145.84 235.02 146.70 235.11 Z M 147.73 235.21 L 148.66 235.27 C 149.52 235.32 150.26 234.66 150.31 233.80 C 150.36 232.94 149.71 232.20 148.85 232.15 L 147.92 232.09 C 147.06 232.04 146.32 232.70 146.27 233.56 C 146.22 234.42 146.87 235.16 147.73 235.21 Z M 148.71 235.27 L 149.68 235.30 C 150.55 235.32 151.26 234.64 151.29 233.78 C 151.32 232.92 150.64 232.20 149.78 232.18 L 148.80 232.15 C 147.94 232.12 147.22 232.80 147.19 233.66 C 147.17 234.52 147.85 235.24 148.71 235.27 Z M 149.74 235.30 L 150.73 235.29 C 151.59 235.29 152.29 234.59 152.28 233.73 C 152.28 232.86 151.58 232.17 150.72 232.17 L 149.72 232.18 C 148.86 232.18 148.17 232.88 148.17 233.74 C 148.17 234.60 148.87 235.30 149.74 235.30 Z M 150.79 235.29 L 151.81 235.25 C 152.67 235.21 153.33 234.48 153.30 233.62 C 153.26 232.76 152.53 232.09 151.67 232.13 L 150.65 232.17 C 149.79 232.21 149.13 232.94 149.16 233.80 C 149.20 234.66 149.93 235.33 150.79 235.29 Z M 151.88 235.24 L 152.88 235.15 C 153.74 235.08 154.37 234.32 154.30 233.46 C 154.22 232.60 153.46 231.97 152.60 232.04 L 151.60 232.13 C 150.74 232.21 150.10 232.97 150.18 233.83 C 150.26 234.69 151.02 235.32 151.88 235.24 Z M 152.95 235.14 L 153.95 235.01 C 154.80 234.90 155.40 234.11 155.29 233.26 C 155.17 232.40 154.39 231.80 153.53 231.92 L 152.53 232.05 C 151.68 232.17 151.08 232.95 151.19 233.81 C 151.31 234.66 152.09 235.26 152.95 235.14 Z M 154.01 235.00 L 155.00 234.83 C 155.85 234.67 156.41 233.86 156.26 233.02 C 156.11 232.17 155.30 231.60 154.45 231.75 L 153.47 231.93 C 152.62 232.08 152.05 232.89 152.20 233.74 C 152.35 234.59 153.16 235.15 154.01 235.00 Z M 155.07 234.81 L 156.02 234.60 C 156.86 234.41 157.39 233.58 157.20 232.74 C 157.01 231.90 156.18 231.37 155.34 231.55 L 154.39 231.76 C 153.55 231.95 153.02 232.79 153.20 233.63 C 153.39 234.47 154.22 235.00 155.07 234.81 Z M 156.09 234.58 L 157.00 234.33 C 157.84 234.11 158.33 233.25 158.10 232.42 C 157.87 231.58 157.02 231.09 156.18 231.32 L 155.27 231.57 C 154.44 231.80 153.94 232.66 154.17 233.49 C 154.40 234.32 155.26 234.81 156.09 234.58 Z M 157.08 234.31 L 158.02 234.00 C 158.84 233.74 159.28 232.85 159.01 232.03 C 158.75 231.21 157.86 230.77 157.05 231.04 L 156.11 231.34 C 155.29 231.61 154.84 232.49 155.11 233.31 C 155.38 234.13 156.26 234.58 157.08 234.31 Z M 158.09 233.98 L 159.09 233.60 C 159.90 233.29 160.30 232.39 160.00 231.58 C 159.69 230.78 158.79 230.37 157.98 230.68 L 156.98 231.06 C 156.17 231.37 155.77 232.27 156.07 233.07 C 156.38 233.88 157.28 234.29 158.09 233.98 Z M 159.14 233.58 L 160.02 233.21 C 160.82 232.87 161.19 231.96 160.86 231.16 C 160.52 230.37 159.61 229.99 158.81 230.33 L 157.93 230.70 C 157.14 231.03 156.76 231.95 157.10 232.74 C 157.43 233.54 158.35 233.91 159.14 233.58 Z M 160.06 233.19 L 160.98 232.78 C 161.76 232.42 162.11 231.50 161.76 230.71 C 161.40 229.92 160.48 229.58 159.69 229.93 L 158.77 230.35 C 157.99 230.70 157.64 231.63 158.00 232.41 C 158.35 233.20 159.28 233.55 160.06 233.19 Z M 161.02 232.76 L 161.94 232.31 C 162.72 231.93 163.04 231.00 162.66 230.22 C 162.29 229.45 161.35 229.12 160.58 229.50 L 159.65 229.95 C 158.88 230.33 158.55 231.26 158.93 232.04 C 159.31 232.81 160.24 233.13 161.02 232.76 Z M 161.99 232.29 L 162.89 231.81 C 163.65 231.41 163.94 230.47 163.54 229.71 C 163.14 228.94 162.20 228.65 161.43 229.05 L 160.53 229.52 C 159.77 229.92 159.48 230.87 159.88 231.63 C 160.28 232.39 161.22 232.69 161.99 232.29 Z M 162.94 231.79 L 163.77 231.31 C 164.51 230.88 164.77 229.93 164.34 229.18 C 163.91 228.43 162.96 228.17 162.21 228.60 L 161.38 229.08 C 160.63 229.51 160.38 230.46 160.81 231.21 C 161.23 231.96 162.19 232.21 162.94 231.79 Z M 163.82 231.28 L 164.61 230.78 C 165.34 230.32 165.56 229.36 165.10 228.63 C 164.64 227.90 163.67 227.68 162.94 228.14 L 162.16 228.63 C 161.43 229.09 161.21 230.06 161.67 230.79 C 162.13 231.52 163.09 231.74 163.82 231.28 Z M 164.66 230.75 L 165.45 230.20 C 166.17 229.72 166.35 228.75 165.86 228.03 C 165.38 227.32 164.40 227.14 163.69 227.63 L 162.90 228.17 C 162.18 228.66 162.00 229.63 162.49 230.34 C 162.97 231.05 163.95 231.23 164.66 230.75 Z M 165.49 230.18 L 166.34 229.56 C 167.04 229.05 167.19 228.08 166.68 227.38 C 166.17 226.68 165.20 226.53 164.50 227.04 L 163.65 227.65 C 162.96 228.16 162.80 229.14 163.31 229.83 C 163.82 230.53 164.79 230.68 165.49 230.18 Z M 166.36 229.54 L 167.21 228.90 C 167.89 228.38 168.03 227.40 167.51 226.72 C 166.99 226.03 166.01 225.89 165.32 226.41 L 164.48 227.05 C 163.79 227.57 163.65 228.55 164.18 229.24 C 164.70 229.93 165.68 230.06 166.36 229.54 Z M 167.22 228.89 L 167.96 228.32 C 168.64 227.80 168.77 226.81 168.24 226.13 C 167.71 225.45 166.73 225.32 166.05 225.85 L 165.31 226.42 C 164.63 226.95 164.50 227.93 165.03 228.61 C 165.55 229.30 166.53 229.42 167.22 228.89 Z M 167.96 228.32 L 168.75 227.71 C 169.43 227.18 169.55 226.20 169.02 225.52 C 168.49 224.84 167.51 224.72 166.83 225.24 L 166.05 225.85 C 165.37 226.38 165.24 227.36 165.77 228.04 C 166.30 228.72 167.28 228.85 167.96 228.32 Z M 168.75 227.71 L 169.56 227.08 C 170.24 226.55 170.37 225.57 169.84 224.89 C 169.31 224.21 168.33 224.09 167.65 224.61 L 166.83 225.24 C 166.15 225.77 166.03 226.75 166.56 227.43 C 167.08 228.11 168.06 228.24 168.75 227.71 Z M 169.55 227.09 L 170.38 226.45 C 171.06 225.93 171.19 224.95 170.67 224.27 C 170.15 223.58 169.17 223.45 168.48 223.97 L 167.66 224.61 C 166.97 225.13 166.84 226.11 167.36 226.80 C 167.89 227.48 168.87 227.61 169.55 227.09 Z M 170.37 226.46 L 171.19 225.84 C 171.88 225.33 172.02 224.35 171.51 223.66 C 170.99 222.97 170.01 222.83 169.32 223.35 L 168.49 223.97 C 167.80 224.48 167.66 225.46 168.18 226.15 C 168.70 226.84 169.68 226.98 170.37 226.46 Z M 171.18 225.86 L 172.03 225.23 C 172.73 224.73 172.88 223.75 172.38 223.05 C 171.87 222.36 170.89 222.20 170.20 222.71 L 169.34 223.33 C 168.64 223.84 168.49 224.82 168.99 225.51 C 169.50 226.21 170.48 226.36 171.18 225.86 Z M 172.01 225.25 L 172.93 224.61 C 173.63 224.11 173.80 223.14 173.31 222.43 C 172.81 221.73 171.84 221.56 171.13 222.05 L 170.22 222.69 C 169.51 223.19 169.34 224.16 169.84 224.87 C 170.33 225.57 171.30 225.74 172.01 225.25 Z M 172.91 224.62 L 173.78 224.03 C 174.49 223.54 174.68 222.57 174.19 221.86 C 173.71 221.15 172.74 220.96 172.02 221.45 L 171.15 222.04 C 170.44 222.52 170.25 223.49 170.74 224.21 C 171.22 224.92 172.19 225.10 172.91 224.62 Z M 173.77 224.04 L 174.58 223.49 C 175.30 223.02 175.50 222.05 175.02 221.33 C 174.54 220.61 173.57 220.42 172.85 220.89 L 172.04 221.44 C 171.32 221.92 171.12 222.88 171.60 223.60 C 172.08 224.32 173.05 224.51 173.77 224.04 Z M 174.58 223.50 L 175.34 222.99 C 176.06 222.52 176.26 221.55 175.78 220.83 C 175.31 220.11 174.34 219.91 173.62 220.39 L 172.86 220.89 C 172.14 221.37 171.94 222.33 172.42 223.05 C 172.89 223.77 173.86 223.97 174.58 223.50 Z M 175.35 222.99 L 176.11 222.48 C 176.82 222.00 177.02 221.03 176.54 220.31 C 176.06 219.60 175.09 219.41 174.37 219.89 L 173.61 220.39 C 172.89 220.87 172.70 221.84 173.18 222.56 C 173.66 223.28 174.63 223.47 175.35 222.99 Z M 176.14 222.46 L 177.01 221.85 C 177.71 221.35 177.88 220.38 177.38 219.67 C 176.89 218.97 175.91 218.80 175.21 219.29 L 174.34 219.91 C 173.63 220.40 173.47 221.38 173.96 222.08 C 174.46 222.79 175.43 222.96 176.14 222.46 Z M 177.07 221.80 L 177.84 221.20 C 178.51 220.67 178.63 219.69 178.10 219.01 C 177.57 218.33 176.59 218.21 175.91 218.74 L 175.14 219.34 C 174.46 219.88 174.35 220.86 174.88 221.54 C 175.41 222.21 176.39 222.33 177.07 221.80 Z M 177.93 221.12 L 178.62 220.48 C 179.26 219.90 179.30 218.91 178.72 218.28 C 178.13 217.64 177.15 217.60 176.51 218.18 L 175.82 218.82 C 175.18 219.40 175.14 220.39 175.72 221.03 C 176.30 221.66 177.29 221.70 177.93 221.12 Z M 178.72 220.39 L 179.37 219.68 C 179.95 219.04 179.90 218.05 179.27 217.47 C 178.63 216.89 177.64 216.94 177.06 217.57 L 176.41 218.28 C 175.83 218.92 175.88 219.90 176.51 220.48 C 177.15 221.07 178.14 221.02 178.72 220.39 Z M 179.45 219.58 L 180.06 218.80 C 180.58 218.12 180.46 217.14 179.78 216.61 C 179.10 216.08 178.12 216.20 177.59 216.88 L 176.98 217.67 C 176.45 218.35 176.58 219.33 177.26 219.86 C 177.94 220.39 178.92 220.26 179.45 219.58 Z M 180.12 218.71 L 180.68 217.86 C 181.16 217.14 180.97 216.17 180.25 215.70 C 179.53 215.22 178.56 215.41 178.08 216.13 L 177.52 216.98 C 177.04 217.69 177.24 218.66 177.96 219.14 C 178.68 219.62 179.64 219.42 180.12 218.71 Z M 180.74 217.76 L 181.25 216.88 C 181.67 216.13 181.41 215.17 180.66 214.75 C 179.91 214.33 178.95 214.59 178.53 215.34 L 178.03 216.23 C 177.60 216.98 177.87 217.93 178.62 218.35 C 179.37 218.78 180.32 218.51 180.74 217.76 Z M 181.29 216.78 L 181.66 216.03 C 182.03 215.25 181.70 214.32 180.93 213.94 C 180.15 213.57 179.22 213.90 178.84 214.68 L 178.48 215.43 C 178.11 216.21 178.43 217.14 179.21 217.52 C 179.99 217.89 180.92 217.56 181.29 216.78 Z M 181.69 215.94 L 182.03 215.13 C 182.36 214.33 181.98 213.42 181.18 213.09 C 180.38 212.76 179.47 213.14 179.14 213.94 L 178.81 214.76 C 178.48 215.55 178.86 216.47 179.66 216.79 C 180.45 217.12 181.37 216.74 181.69 215.94 Z M 182.06 215.06 L 182.39 214.13 C 182.68 213.32 182.26 212.43 181.45 212.14 C 180.64 211.84 179.75 212.26 179.45 213.07 L 179.12 214.00 C 178.83 214.81 179.25 215.71 180.06 216.00 C 180.87 216.29 181.76 215.87 182.06 215.06 Z M 182.40 214.09 L 182.76 213.00 C 183.03 212.18 182.59 211.30 181.77 211.03 C 180.95 210.76 180.07 211.21 179.80 212.03 L 179.44 213.12 C 179.17 213.93 179.61 214.82 180.43 215.09 C 181.25 215.36 182.14 214.91 182.40 214.09 Z M 182.77 212.98 L 183.09 211.97 C 183.35 211.15 182.89 210.27 182.07 210.01 C 181.24 209.76 180.37 210.21 180.11 211.04 L 179.79 212.05 C 179.53 212.87 179.99 213.74 180.81 214.00 C 181.63 214.26 182.51 213.80 182.77 212.98 Z M 183.09 211.96 L 183.36 211.10 C 183.61 210.27 183.15 209.40 182.33 209.14 C 181.50 208.89 180.63 209.35 180.37 210.18 L 180.11 211.04 C 179.85 211.87 180.31 212.74 181.14 213.00 C 181.96 213.25 182.84 212.79 183.09 211.96 Z M 183.36 211.09 L 183.64 210.16 C 183.89 209.34 183.43 208.46 182.60 208.21 C 181.78 207.96 180.91 208.43 180.66 209.25 L 180.37 210.18 C 180.12 211.01 180.59 211.88 181.41 212.13 C 182.24 212.38 183.11 211.92 183.36 211.09 Z M 183.64 210.16 L 183.94 209.18 C 184.19 208.36 183.72 207.49 182.89 207.24 C 182.07 206.99 181.20 207.46 180.95 208.28 L 180.65 209.26 C 180.41 210.08 180.87 210.95 181.70 211.20 C 182.52 211.45 183.39 210.98 183.64 210.16 Z M 183.94 209.18 L 184.24 208.18 C 184.49 207.35 184.02 206.48 183.19 206.23 C 182.37 205.99 181.50 206.46 181.25 207.28 L 180.95 208.28 C 180.70 209.11 181.17 209.98 182.00 210.23 C 182.82 210.48 183.69 210.01 183.94 209.18 Z M 184.24 208.18 L 184.54 207.16 C 184.79 206.34 184.32 205.47 183.49 205.22 C 182.67 204.97 181.80 205.44 181.55 206.27 L 181.25 207.28 C 181.00 208.11 181.47 208.98 182.30 209.23 C 183.12 209.47 183.99 209.00 184.24 208.18 Z M 184.54 207.16 L 184.84 206.15 C 185.09 205.32 184.62 204.46 183.79 204.21 C 182.96 203.96 182.09 204.44 181.85 205.26 L 181.55 206.27 C 181.30 207.10 181.78 207.97 182.60 208.21 C 183.43 208.46 184.30 207.99 184.54 207.16 Z M 184.84 206.15 L 185.14 205.13 C 185.39 204.31 184.92 203.44 184.09 203.19 C 183.26 202.95 182.39 203.42 182.15 204.25 L 181.85 205.26 C 181.60 206.09 182.08 206.96 182.90 207.20 C 183.73 207.45 184.60 206.98 184.84 206.15 Z M 185.14 205.13 L 185.46 204.06 C 185.70 203.23 185.23 202.36 184.40 202.12 C 183.58 201.88 182.71 202.35 182.46 203.18 L 182.15 204.25 C 181.90 205.08 182.38 205.94 183.21 206.19 C 184.03 206.43 184.90 205.96 185.14 205.13 Z M 185.46 204.05 L 185.76 203.02 C 186.00 202.20 185.53 201.33 184.70 201.09 C 183.87 200.85 183.00 201.32 182.76 202.15 L 182.46 203.18 C 182.22 204.01 182.70 204.87 183.53 205.12 C 184.35 205.36 185.22 204.88 185.46 204.05 Z M 185.76 203.02 L 186.05 202.03 C 186.28 201.20 185.80 200.34 184.98 200.10 C 184.15 199.86 183.28 200.34 183.04 201.17 L 182.76 202.16 C 182.52 202.99 183.00 203.85 183.83 204.09 C 184.66 204.33 185.53 203.85 185.76 203.02 Z M 186.05 202.02 L 186.31 201.08 C 186.54 200.25 186.06 199.39 185.23 199.16 C 184.40 198.93 183.54 199.41 183.30 200.24 L 183.04 201.18 C 182.81 202.01 183.29 202.87 184.12 203.11 C 184.95 203.34 185.82 202.85 186.05 202.02 Z M 186.32 201.07 L 186.56 200.17 C 186.78 199.34 186.29 198.48 185.46 198.26 C 184.63 198.03 183.77 198.52 183.54 199.36 L 183.30 200.25 C 183.08 201.09 183.57 201.94 184.40 202.17 C 185.23 202.39 186.09 201.90 186.32 201.07 Z M 186.56 200.16 L 186.78 199.30 C 187.00 198.47 186.50 197.62 185.66 197.40 C 184.83 197.19 183.98 197.69 183.76 198.52 L 183.54 199.37 C 183.32 200.21 183.83 201.06 184.66 201.28 C 185.49 201.49 186.35 200.99 186.56 200.16 Z M 186.79 199.28 L 187.04 198.24 C 187.24 197.40 186.73 196.56 185.89 196.35 C 185.05 196.15 184.21 196.67 184.01 197.51 L 183.75 198.55 C 183.55 199.38 184.07 200.23 184.91 200.43 C 185.74 200.63 186.59 200.12 186.79 199.28 Z M 187.05 198.21 L 187.28 197.17 C 187.46 196.32 186.93 195.49 186.09 195.31 C 185.25 195.12 184.41 195.65 184.23 196.49 L 184.00 197.54 C 183.81 198.38 184.34 199.21 185.19 199.40 C 186.03 199.58 186.86 199.05 187.05 198.21 Z M 187.28 197.14 L 187.48 196.16 C 187.65 195.32 187.10 194.50 186.26 194.33 C 185.41 194.16 184.59 194.70 184.42 195.55 L 184.22 196.52 C 184.05 197.37 184.60 198.19 185.44 198.36 C 186.29 198.53 187.11 197.98 187.28 197.14 Z M 187.48 196.14 L 187.65 195.22 C 187.81 194.38 187.25 193.56 186.40 193.41 C 185.55 193.25 184.74 193.81 184.58 194.66 L 184.41 195.57 C 184.26 196.42 184.82 197.24 185.66 197.39 C 186.51 197.55 187.33 196.99 187.48 196.14 Z M 187.66 195.21 L 187.81 194.32 C 187.96 193.47 187.39 192.67 186.54 192.52 C 185.69 192.37 184.88 192.94 184.73 193.79 L 184.58 194.67 C 184.43 195.52 185.00 196.33 185.85 196.48 C 186.70 196.63 187.51 196.06 187.66 195.21 Z M 187.81 194.31 L 187.96 193.37 C 188.10 192.52 187.53 191.72 186.68 191.58 C 185.83 191.44 185.02 192.01 184.88 192.87 L 184.73 193.80 C 184.59 194.65 185.17 195.46 186.02 195.60 C 186.87 195.74 187.67 195.16 187.81 194.31 Z M 187.97 193.35 L 188.11 192.41 C 188.24 191.55 187.65 190.76 186.80 190.63 C 185.95 190.50 185.15 191.09 185.02 191.94 L 184.88 192.88 C 184.75 193.74 185.34 194.53 186.19 194.66 C 187.04 194.79 187.84 194.20 187.97 193.35 Z M 188.11 192.38 L 188.25 191.39 C 188.36 190.54 187.76 189.75 186.91 189.63 C 186.06 189.52 185.27 190.12 185.15 190.97 L 185.02 191.96 C 184.90 192.82 185.50 193.61 186.36 193.72 C 187.21 193.84 188.00 193.24 188.11 192.38 Z M 188.25 191.37 L 188.38 190.28 C 188.48 189.42 187.87 188.65 187.01 188.55 C 186.16 188.44 185.38 189.06 185.28 189.91 L 185.15 191.00 C 185.05 191.85 185.66 192.63 186.52 192.73 C 187.37 192.83 188.15 192.22 188.25 191.37 Z M 188.38 190.26 L 188.47 189.39 C 188.57 188.53 187.94 187.76 187.09 187.67 C 186.23 187.58 185.46 188.20 185.37 189.06 L 185.28 189.93 C 185.19 190.79 185.81 191.56 186.66 191.65 C 187.52 191.74 188.29 191.12 188.38 190.26 Z M 188.48 189.38 L 188.57 188.45 C 188.65 187.59 188.03 186.83 187.17 186.74 C 186.31 186.66 185.54 187.28 185.46 188.14 L 185.37 189.07 C 185.28 189.93 185.91 190.69 186.77 190.78 C 187.63 190.86 188.39 190.24 188.48 189.38 Z M 188.57 188.44 L 188.66 187.46 C 188.74 186.60 188.11 185.84 187.25 185.76 C 186.39 185.68 185.63 186.31 185.55 187.16 L 185.46 188.15 C 185.38 189.01 186.01 189.77 186.87 189.85 C 187.73 189.93 188.49 189.30 188.57 188.44 Z M 188.66 187.45 L 188.76 186.42 C 188.84 185.56 188.20 184.80 187.34 184.72 C 186.49 184.64 185.73 185.28 185.65 186.13 L 185.55 187.17 C 185.47 188.03 186.10 188.79 186.96 188.87 C 187.82 188.95 188.58 188.31 188.66 187.45 Z M 188.76 186.42 L 188.85 185.34 C 188.93 184.48 188.30 183.73 187.44 183.65 C 186.58 183.57 185.82 184.20 185.75 185.06 L 185.65 186.13 C 185.57 186.99 186.20 187.75 187.06 187.83 C 187.92 187.91 188.68 187.28 188.76 186.42 Z M 188.85 185.35 L 188.96 184.26 C 189.04 183.40 188.40 182.64 187.55 182.56 C 186.69 182.48 185.93 183.11 185.85 183.97 L 185.75 185.06 C 185.67 185.92 186.30 186.68 187.16 186.76 C 188.01 186.84 188.77 186.20 188.85 185.35 Z M 188.96 184.26 L 189.05 183.25 C 189.13 182.39 188.50 181.63 187.65 181.54 C 186.79 181.46 186.02 182.09 185.94 182.95 L 185.85 183.97 C 185.77 184.83 186.40 185.59 187.25 185.67 C 188.11 185.75 188.87 185.12 188.96 184.26 Z M 189.05 183.25 L 189.15 182.22 C 189.23 181.36 188.60 180.60 187.74 180.52 C 186.89 180.44 186.12 181.06 186.04 181.92 L 185.94 182.95 C 185.86 183.81 186.49 184.57 187.35 184.65 C 188.21 184.73 188.97 184.10 189.05 183.25 Z M 189.15 182.22 L 189.25 181.20 C 189.33 180.34 188.70 179.58 187.84 179.49 C 186.98 179.41 186.22 180.04 186.14 180.90 L 186.04 181.92 C 185.96 182.78 186.59 183.54 187.45 183.63 C 188.31 183.71 189.07 183.08 189.15 182.22 Z M 189.25 181.19 L 189.34 180.19 C 189.42 179.33 188.79 178.57 187.93 178.49 C 187.07 178.41 186.31 179.04 186.23 179.90 L 186.14 180.90 C 186.06 181.76 186.69 182.52 187.55 182.60 C 188.41 182.68 189.17 182.05 189.25 181.19 Z M 189.34 180.18 L 189.43 179.21 C 189.51 178.35 188.88 177.59 188.02 177.51 C 187.16 177.43 186.40 178.07 186.32 178.93 L 186.23 179.90 C 186.15 180.76 186.79 181.52 187.65 181.60 C 188.51 181.68 189.26 181.04 189.34 180.18 Z M 189.43 179.20 L 189.51 178.26 C 189.59 177.41 188.95 176.65 188.09 176.58 C 187.23 176.50 186.47 177.14 186.40 178.00 L 186.32 178.93 C 186.25 179.79 186.88 180.55 187.74 180.62 C 188.60 180.70 189.36 180.06 189.43 179.20 Z M 189.51 178.25 L 189.60 177.17 C 189.67 176.31 189.03 175.56 188.17 175.49 C 187.31 175.42 186.55 176.06 186.49 176.92 L 186.40 178.01 C 186.33 178.87 186.97 179.62 187.83 179.69 C 188.69 179.76 189.44 179.11 189.51 178.25 Z M 189.60 177.16 L 189.68 176.10 C 189.74 175.24 189.09 174.50 188.23 174.44 C 187.37 174.37 186.62 175.02 186.56 175.88 L 186.49 176.93 C 186.42 177.79 187.07 178.54 187.93 178.60 C 188.79 178.66 189.54 178.02 189.60 177.16 Z M 189.68 176.10 L 189.74 175.11 C 189.80 174.25 189.15 173.50 188.29 173.45 C 187.43 173.39 186.69 174.04 186.63 174.90 L 186.56 175.89 C 186.50 176.75 187.15 177.49 188.01 177.55 C 188.87 177.61 189.62 176.96 189.68 176.10 Z M 189.74 175.11 L 189.81 174.16 C 189.86 173.30 189.21 172.56 188.35 172.50 C 187.49 172.44 186.75 173.10 186.69 173.96 L 186.63 174.90 C 186.57 175.76 187.22 176.50 188.08 176.56 C 188.94 176.62 189.69 175.97 189.74 175.11 Z M 189.81 174.17 L 189.87 173.25 C 189.93 172.39 189.28 171.65 188.42 171.59 C 187.56 171.53 186.81 172.18 186.75 173.04 L 186.69 173.95 C 186.63 174.81 187.28 175.56 188.14 175.62 C 189.00 175.68 189.75 175.03 189.81 174.17 Z M 189.87 173.26 L 189.95 172.25 C 190.01 171.39 189.37 170.64 188.51 170.58 C 187.65 170.51 186.90 171.15 186.83 172.01 L 186.75 173.03 C 186.69 173.89 187.33 174.64 188.19 174.70 C 189.05 174.77 189.80 174.12 189.87 173.26 Z M 189.94 172.26 L 190.03 171.24 C 190.10 170.38 189.46 169.63 188.60 169.56 C 187.74 169.49 186.99 170.13 186.92 170.99 L 186.83 172.00 C 186.76 172.86 187.40 173.62 188.26 173.69 C 189.12 173.76 189.87 173.12 189.94 172.26 Z M 190.03 171.25 L 190.11 170.25 C 190.18 169.39 189.55 168.64 188.69 168.57 C 187.83 168.49 187.07 169.13 187.00 169.99 L 186.92 170.99 C 186.84 171.84 187.48 172.60 188.34 172.67 C 189.20 172.75 189.95 172.11 190.03 171.25 Z M 190.11 170.25 L 190.19 169.28 C 190.26 168.42 189.63 167.67 188.77 167.60 C 187.91 167.52 187.15 168.16 187.08 169.02 L 187.00 169.99 C 186.93 170.85 187.57 171.61 188.43 171.68 C 189.28 171.75 190.04 171.11 190.11 170.25 Z M 190.19 169.28 L 190.27 168.32 C 190.34 167.47 189.70 166.71 188.84 166.64 C 187.98 166.58 187.23 167.22 187.16 168.08 L 187.08 169.03 C 187.01 169.89 187.65 170.64 188.51 170.71 C 189.37 170.78 190.12 170.13 190.19 169.28 Z M 190.27 168.32 L 190.34 167.37 C 190.41 166.51 189.76 165.76 188.90 165.70 C 188.04 165.63 187.29 166.28 187.23 167.14 L 187.16 168.08 C 187.09 168.94 187.74 169.69 188.60 169.76 C 189.45 169.82 190.20 169.18 190.27 168.32 Z M 190.34 167.37 L 190.41 166.40 C 190.48 165.54 189.83 164.79 188.97 164.73 C 188.11 164.67 187.36 165.31 187.30 166.17 L 187.23 167.14 C 187.16 168.00 187.81 168.75 188.67 168.81 C 189.53 168.88 190.28 168.23 190.34 167.37 Z M 190.41 166.41 L 190.49 165.38 C 190.56 164.52 189.91 163.77 189.05 163.71 C 188.19 163.64 187.44 164.28 187.38 165.14 L 187.30 166.17 C 187.23 167.03 187.88 167.78 188.74 167.84 C 189.60 167.91 190.35 167.27 190.41 166.41 Z M 190.49 165.39 L 190.57 164.33 C 190.64 163.47 190.00 162.72 189.14 162.65 C 188.28 162.58 187.53 163.22 187.46 164.08 L 187.38 165.14 C 187.31 166.00 187.95 166.75 188.81 166.82 C 189.67 166.89 190.42 166.25 190.49 165.39 Z M 190.57 164.34 L 190.65 163.40 C 190.73 162.54 190.09 161.78 189.23 161.71 C 188.37 161.64 187.61 162.28 187.54 163.14 L 187.46 164.08 C 187.39 164.94 188.03 165.69 188.89 165.76 C 189.75 165.84 190.50 165.20 190.57 164.34 Z M 190.65 163.40 L 190.74 162.40 C 190.81 161.55 190.17 160.79 189.31 160.72 C 188.45 160.65 187.70 161.29 187.62 162.15 L 187.54 163.14 C 187.47 164.00 188.11 164.75 188.97 164.82 C 189.83 164.89 190.58 164.25 190.65 163.40 Z M 190.74 162.40 L 190.82 161.38 C 190.88 160.52 190.24 159.77 189.38 159.70 C 188.52 159.63 187.77 160.27 187.70 161.13 L 187.62 162.15 C 187.56 163.01 188.20 163.76 189.06 163.83 C 189.92 163.90 190.67 163.26 190.74 162.40 Z M 190.82 161.37 L 190.89 160.34 C 190.95 159.48 190.31 158.73 189.45 158.67 C 188.59 158.61 187.84 159.25 187.78 160.11 L 187.70 161.14 C 187.64 162.00 188.29 162.75 189.15 162.81 C 190.01 162.87 190.76 162.23 190.82 161.37 Z M 190.89 160.32 L 190.95 159.30 C 191.01 158.44 190.35 157.70 189.49 157.64 C 188.63 157.59 187.89 158.25 187.84 159.11 L 187.78 160.13 C 187.72 160.99 188.38 161.73 189.24 161.78 C 190.10 161.84 190.84 161.18 190.89 160.32 Z M 190.96 159.27 L 191.00 158.21 C 191.04 157.35 190.37 156.62 189.51 156.58 C 188.65 156.55 187.92 157.21 187.88 158.07 L 187.84 159.13 C 187.80 159.99 188.46 160.72 189.33 160.76 C 190.19 160.80 190.92 160.13 190.96 159.27 Z M 191.00 158.19 L 191.03 157.15 C 191.06 156.29 190.38 155.57 189.52 155.54 C 188.66 155.52 187.94 156.20 187.91 157.06 L 187.88 158.10 C 187.86 158.96 188.54 159.68 189.40 159.70 C 190.26 159.73 190.98 159.05 191.00 158.19 Z M 191.03 157.13 L 191.05 156.12 C 191.07 155.26 190.38 154.55 189.52 154.53 C 188.65 154.52 187.94 155.21 187.93 156.07 L 187.91 157.08 C 187.90 157.94 188.59 158.65 189.45 158.66 C 190.31 158.68 191.02 157.99 191.03 157.13 Z M 191.05 156.11 L 191.06 155.13 C 191.06 154.27 190.37 153.57 189.51 153.56 C 188.65 153.55 187.94 154.25 187.94 155.11 L 187.93 156.08 C 187.92 156.95 188.62 157.65 189.48 157.66 C 190.34 157.66 191.05 156.97 191.05 156.11 Z M 191.06 155.12 L 191.06 154.18 C 191.06 153.32 190.36 152.62 189.50 152.62 C 188.64 152.62 187.94 153.32 187.94 154.18 L 187.94 155.12 C 187.93 155.98 188.63 156.68 189.49 156.68 C 190.36 156.68 191.06 155.99 191.06 155.12 Z M 191.06 154.18 L 191.06 153.14 C 191.06 152.28 190.36 151.58 189.50 151.58 C 188.64 151.58 187.94 152.28 187.94 153.14 L 187.94 154.18 C 187.94 155.04 188.64 155.74 189.50 155.74 C 190.36 155.74 191.06 155.04 191.06 154.18 Z M 191.06 153.13 L 191.06 152.09 C 191.05 151.22 190.35 150.53 189.49 150.53 C 188.63 150.53 187.93 151.23 187.93 152.10 L 187.94 153.14 C 187.94 154.01 188.64 154.70 189.50 154.70 C 190.37 154.70 191.06 154.00 191.06 153.13 Z M 191.06 152.08 L 191.05 151.08 C 191.04 150.22 190.33 149.53 189.47 149.53 C 188.61 149.54 187.92 150.25 187.92 151.11 L 187.93 152.11 C 187.94 152.97 188.65 153.66 189.51 153.65 C 190.37 153.64 191.07 152.94 191.06 152.08 Z M 191.05 151.06 L 191.03 150.12 C 191.01 149.26 190.29 148.58 189.43 148.59 C 188.57 148.61 187.88 149.33 187.90 150.19 L 187.92 151.13 C 187.94 151.99 188.66 152.68 189.52 152.66 C 190.38 152.64 191.07 151.92 191.05 151.06 Z M 191.02 150.09 L 190.98 149.09 C 190.95 148.23 190.22 147.56 189.36 147.60 C 188.50 147.64 187.83 148.36 187.86 149.22 L 187.90 150.22 C 187.94 151.08 188.67 151.75 189.53 151.72 C 190.39 151.68 191.06 150.95 191.02 150.09 Z M 190.98 149.05 L 190.91 148.03 C 190.85 147.17 190.10 146.52 189.24 146.58 C 188.38 146.64 187.73 147.38 187.79 148.24 L 187.87 149.27 C 187.93 150.13 188.67 150.78 189.53 150.72 C 190.39 150.66 191.04 149.91 190.98 149.05 Z M 190.90 147.98 L 190.80 147.01 C 190.72 146.15 189.95 145.53 189.09 145.62 C 188.23 145.70 187.61 146.47 187.70 147.33 L 187.80 148.30 C 187.89 149.15 188.66 149.78 189.51 149.69 C 190.37 149.60 190.99 148.83 190.90 147.98 Z M 190.80 146.95 L 190.67 146.02 C 190.55 145.16 189.76 144.57 188.90 144.69 C 188.05 144.81 187.45 145.59 187.57 146.45 L 187.71 147.38 C 187.83 148.24 188.61 148.83 189.47 148.71 C 190.32 148.59 190.92 147.81 190.80 146.95 Z M 190.66 145.96 L 190.50 145.03 C 190.35 144.18 189.54 143.61 188.69 143.76 C 187.84 143.91 187.27 144.72 187.42 145.57 L 187.58 146.50 C 187.73 147.35 188.54 147.92 189.39 147.77 C 190.24 147.62 190.81 146.81 190.66 145.96 Z M 190.49 145.00 L 190.30 144.03 C 190.13 143.18 189.31 142.63 188.46 142.80 C 187.62 142.97 187.07 143.79 187.24 144.64 L 187.43 145.60 C 187.59 146.45 188.42 147.00 189.26 146.83 C 190.11 146.66 190.66 145.84 190.49 145.00 Z M 190.29 144.01 L 190.08 142.98 C 189.90 142.13 189.07 141.59 188.23 141.77 C 187.38 141.95 186.84 142.77 187.02 143.62 L 187.24 144.65 C 187.42 145.50 188.24 146.04 189.09 145.86 C 189.93 145.68 190.47 144.86 190.29 144.01 Z M 190.08 142.97 L 189.87 142.01 C 189.69 141.17 188.86 140.63 188.02 140.81 C 187.18 140.99 186.64 141.81 186.82 142.66 L 187.02 143.62 C 187.20 144.46 188.03 145.00 188.87 144.82 C 189.72 144.65 190.26 143.82 190.08 142.97 Z M 189.87 142.00 L 189.65 141.02 C 189.47 140.18 188.63 139.64 187.79 139.83 C 186.95 140.02 186.42 140.85 186.60 141.69 L 186.82 142.67 C 187.01 143.51 187.84 144.04 188.68 143.86 C 189.52 143.67 190.05 142.84 189.87 142.00 Z M 189.65 140.99 L 189.41 140.00 C 189.21 139.16 188.36 138.64 187.52 138.84 C 186.69 139.04 186.17 139.89 186.37 140.73 L 186.61 141.72 C 186.81 142.56 187.66 143.07 188.49 142.87 C 189.33 142.67 189.85 141.83 189.65 140.99 Z M 189.40 139.95 L 189.13 138.97 C 188.90 138.14 188.04 137.65 187.21 137.88 C 186.38 138.11 185.89 138.96 186.12 139.80 L 186.38 140.77 C 186.61 141.60 187.47 142.09 188.30 141.87 C 189.13 141.64 189.62 140.78 189.40 139.95 Z M 189.11 138.91 L 188.80 137.96 C 188.54 137.14 187.66 136.69 186.84 136.95 C 186.02 137.22 185.57 138.10 185.83 138.92 L 186.14 139.86 C 186.40 140.68 187.28 141.13 188.10 140.87 C 188.92 140.61 189.37 139.73 189.11 138.91 Z M 188.78 137.88 L 188.43 136.97 C 188.12 136.17 187.22 135.76 186.42 136.07 C 185.61 136.38 185.21 137.28 185.51 138.09 L 185.86 138.99 C 186.17 139.80 187.07 140.21 187.87 139.90 C 188.68 139.59 189.08 138.69 188.78 137.88 Z M 188.40 136.90 L 188.01 136.00 C 187.66 135.21 186.74 134.85 185.95 135.20 C 185.16 135.54 184.80 136.46 185.15 137.25 L 185.54 138.16 C 185.89 138.95 186.81 139.31 187.60 138.96 C 188.39 138.61 188.75 137.69 188.40 136.90 Z M 187.98 135.94 L 187.53 135.02 C 187.15 134.24 186.22 133.92 185.44 134.30 C 184.67 134.68 184.35 135.61 184.72 136.39 L 185.17 137.31 C 185.55 138.09 186.49 138.41 187.26 138.03 C 188.04 137.65 188.36 136.72 187.98 135.94 Z M 187.51 134.98 L 187.05 134.09 C 186.65 133.33 185.70 133.04 184.94 133.44 C 184.18 133.84 183.88 134.78 184.28 135.54 L 184.74 136.43 C 185.14 137.19 186.09 137.49 186.85 137.09 C 187.62 136.68 187.91 135.74 187.51 134.98 Z M 187.03 134.06 L 186.54 133.18 C 186.12 132.42 185.17 132.15 184.41 132.57 C 183.66 132.99 183.39 133.94 183.81 134.70 L 184.30 135.58 C 184.72 136.33 185.67 136.60 186.42 136.18 C 187.18 135.76 187.45 134.81 187.03 134.06 Z M 186.51 133.14 L 185.99 132.26 C 185.55 131.52 184.59 131.27 183.85 131.71 C 183.11 132.15 182.87 133.11 183.31 133.85 L 183.83 134.73 C 184.27 135.47 185.23 135.72 185.97 135.28 C 186.71 134.84 186.95 133.88 186.51 133.14 Z M 185.97 132.22 L 185.42 131.37 C 184.96 130.64 183.99 130.43 183.27 130.89 C 182.54 131.35 182.33 132.32 182.79 133.04 L 183.33 133.90 C 183.80 134.62 184.76 134.84 185.49 134.37 C 186.22 133.91 186.43 132.94 185.97 132.22 Z M 185.39 131.31 L 184.81 130.49 C 184.32 129.78 183.35 129.61 182.64 130.10 C 181.93 130.60 181.76 131.57 182.25 132.28 L 182.83 133.10 C 183.32 133.81 184.29 133.98 185.00 133.48 C 185.71 132.99 185.88 132.02 185.39 131.31 Z M 184.76 130.41 L 184.09 129.57 C 183.55 128.90 182.57 128.78 181.90 129.32 C 181.22 129.85 181.11 130.84 181.64 131.51 L 182.31 132.35 C 182.84 133.03 183.83 133.14 184.50 132.61 C 185.18 132.07 185.29 131.09 184.76 130.41 Z M 184.01 129.48 L 183.33 128.75 C 182.74 128.12 181.75 128.08 181.12 128.67 C 180.49 129.26 180.46 130.25 181.04 130.88 L 181.72 131.61 C 182.31 132.24 183.30 132.27 183.93 131.68 C 184.56 131.10 184.60 130.11 184.01 129.48 Z M 183.22 128.64 L 182.51 128.02 C 181.86 127.44 180.88 127.50 180.31 128.15 C 179.74 128.80 179.80 129.78 180.44 130.35 L 181.15 130.98 C 181.80 131.55 182.78 131.49 183.35 130.85 C 183.93 130.20 183.87 129.21 183.22 128.64 Z M 182.38 127.91 L 181.60 127.36 C 180.89 126.86 179.92 127.03 179.42 127.73 C 178.92 128.44 179.09 129.41 179.80 129.91 L 180.58 130.46 C 181.28 130.96 182.25 130.79 182.75 130.08 C 183.25 129.38 183.08 128.41 182.38 127.91 Z M 181.46 127.27 L 180.59 126.78 C 179.84 126.36 178.88 126.63 178.46 127.38 C 178.04 128.14 178.31 129.09 179.06 129.51 L 179.93 130.00 C 180.69 130.42 181.64 130.15 182.06 129.40 C 182.48 128.64 182.21 127.69 181.46 127.27 Z M 180.48 126.73 L 179.58 126.31 C 178.80 125.95 177.87 126.28 177.51 127.06 C 177.14 127.85 177.48 128.77 178.26 129.14 L 179.17 129.56 C 179.95 129.93 180.88 129.59 181.24 128.81 C 181.60 128.02 181.27 127.10 180.48 126.73 Z M 179.53 126.29 L 178.60 125.90 C 177.81 125.56 176.89 125.94 176.56 126.73 C 176.22 127.53 176.60 128.44 177.39 128.77 L 178.31 129.16 C 179.11 129.50 180.02 129.12 180.36 128.33 C 180.69 127.54 180.32 126.62 179.53 126.29 Z M 178.59 125.89 L 178.54 125.87 C 177.75 125.54 176.83 125.92 176.50 126.72 C 176.18 127.52 176.56 128.43 177.35 128.76 L 177.40 128.78 C 178.20 129.11 179.11 128.73 179.44 127.93 C 179.77 127.13 179.39 126.22 178.59 125.89 Z"
      fill="black"
      fill-rule="nonzero" /><path d="M 126.53 82.45 L 125.62 81.83 C 124.90 81.35 123.93 81.54 123.45 82.26 C 122.97 82.98 123.16 83.95 123.88 84.43 L 124.79 85.04 C 125.51 85.52 126.48 85.33 126.96 84.61 C 127.44 83.90 127.25 82.93 126.53 82.45 Z M 125.79 81.97 L 125.05 81.31 C 124.41 80.73 123.42 80.78 122.85 81.42 C 122.27 82.07 122.32 83.05 122.97 83.63 L 123.70 84.29 C 124.34 84.87 125.33 84.81 125.91 84.17 C 126.48 83.53 126.43 82.54 125.79 81.97 Z M 125.41 81.77 L 125.02 81.00 C 124.64 80.23 123.70 79.91 122.93 80.30 C 122.16 80.68 121.84 81.62 122.23 82.39 L 122.61 83.16 C 123.00 83.94 123.93 84.25 124.71 83.86 C 125.48 83.48 125.79 82.54 125.41 81.77 Z M 125.18 81.87 L 125.28 80.94 C 125.37 80.08 124.75 79.31 123.90 79.22 C 123.04 79.13 122.27 79.75 122.17 80.60 L 122.07 81.53 C 121.98 82.38 122.60 83.15 123.45 83.25 C 124.31 83.34 125.08 82.72 125.18 81.87 Z M 125.07 81.57 L 125.59 80.68 C 126.03 79.94 125.79 78.98 125.05 78.54 C 124.30 78.10 123.35 78.35 122.91 79.09 L 122.38 79.98 C 121.94 80.72 122.19 81.68 122.93 82.12 C 123.67 82.55 124.63 82.31 125.07 81.57 Z M 125.26 81.08 L 126.07 80.39 C 126.73 79.84 126.82 78.85 126.26 78.19 C 125.71 77.53 124.72 77.45 124.06 78.00 L 123.25 78.69 C 122.59 79.24 122.50 80.23 123.06 80.89 C 123.61 81.55 124.60 81.63 125.26 81.08 Z M 125.59 80.67 L 126.54 80.33 C 127.35 80.04 127.78 79.15 127.49 78.34 C 127.21 77.53 126.31 77.10 125.50 77.39 L 124.55 77.73 C 123.73 78.01 123.31 78.90 123.60 79.72 C 123.88 80.53 124.78 80.96 125.59 80.67 Z M 125.77 80.40 L 126.68 80.55 C 127.53 80.68 128.33 80.11 128.47 79.25 C 128.61 78.40 128.03 77.60 127.18 77.46 L 126.27 77.32 C 125.42 77.18 124.62 77.76 124.48 78.61 C 124.34 79.46 124.92 80.26 125.77 80.40 Z M 125.85 80.13 L 126.50 80.76 C 127.12 81.36 128.11 81.34 128.71 80.72 C 129.31 80.10 129.29 79.11 128.67 78.51 L 128.01 77.88 C 127.39 77.28 126.40 77.30 125.80 77.92 C 125.21 78.54 125.23 79.53 125.85 80.13 Z M 126.14 80.24 L 126.54 81.18 C 126.87 81.98 127.78 82.35 128.58 82.02 C 129.38 81.69 129.75 80.77 129.42 79.98 L 129.02 79.03 C 128.69 78.24 127.78 77.86 126.98 78.20 C 126.19 78.53 125.81 79.44 126.14 80.24 Z M 126.42 80.68 L 126.49 81.72 C 126.55 82.58 127.29 83.24 128.15 83.18 C 129.01 83.12 129.66 82.38 129.60 81.52 L 129.54 80.48 C 129.48 79.62 128.74 78.96 127.88 79.02 C 127.02 79.08 126.36 79.82 126.42 80.68 Z M 126.56 81.15 L 126.25 82.12 C 125.98 82.95 126.44 83.82 127.26 84.09 C 128.08 84.35 128.96 83.90 129.22 83.08 L 129.53 82.10 C 129.80 81.28 129.34 80.40 128.52 80.13 C 127.70 79.87 126.82 80.32 126.56 81.15 Z M 126.56 81.57 L 125.92 82.30 C 125.35 82.95 125.42 83.94 126.06 84.51 C 126.71 85.07 127.70 85.01 128.27 84.36 L 128.91 83.63 C 129.48 82.98 129.41 81.99 128.76 81.43 C 128.11 80.86 127.13 80.92 126.56 81.57 Z M 126.51 81.88 L 125.62 82.24 C 124.82 82.57 124.43 83.48 124.76 84.28 C 125.08 85.08 125.99 85.46 126.79 85.14 L 127.68 84.78 C 128.48 84.45 128.86 83.54 128.54 82.75 C 128.22 81.95 127.31 81.56 126.51 81.88 Z M 126.32 82.13 L 125.32 82.06 C 124.46 82.00 123.71 82.64 123.65 83.50 C 123.58 84.36 124.23 85.11 125.09 85.17 L 126.09 85.25 C 126.95 85.31 127.70 84.67 127.76 83.81 C 127.82 82.95 127.18 82.20 126.32 82.13 Z M 125.95 82.25 L 125.09 81.77 C 124.33 81.36 123.38 81.64 122.97 82.39 C 122.56 83.15 122.83 84.10 123.59 84.51 L 124.46 84.99 C 125.21 85.40 126.16 85.12 126.58 84.37 C 126.99 83.61 126.71 82.66 125.95 82.25 Z M 125.65 82.29 L 125.15 81.52 C 124.68 80.80 123.71 80.59 122.99 81.06 C 122.26 81.53 122.06 82.50 122.53 83.22 L 123.03 83.99 C 123.50 84.72 124.47 84.92 125.19 84.45 C 125.91 83.98 126.12 83.02 125.65 82.29 Z M 125.38 82.12 L 125.22 81.15 C 125.09 80.30 124.29 79.72 123.43 79.86 C 122.58 80.00 122.00 80.80 122.14 81.65 L 122.30 82.62 C 122.43 83.47 123.23 84.05 124.09 83.91 C 124.94 83.78 125.52 82.97 125.38 82.12 Z M 125.23 81.58 L 125.35 80.53 C 125.45 79.67 124.83 78.90 123.98 78.80 C 123.12 78.70 122.35 79.32 122.25 80.17 L 122.13 81.23 C 122.03 82.08 122.65 82.86 123.51 82.95 C 124.36 83.05 125.14 82.43 125.23 81.58 Z M 125.28 80.86 L 125.67 79.74 C 125.95 78.92 125.52 78.03 124.70 77.75 C 123.89 77.47 123.00 77.90 122.72 78.71 L 122.33 79.84 C 122.04 80.65 122.47 81.54 123.29 81.82 C 124.10 82.11 124.99 81.68 125.28 80.86 Z M 125.44 80.16 L 126.01 79.40 C 126.53 78.71 126.39 77.73 125.70 77.21 C 125.01 76.70 124.03 76.84 123.51 77.53 L 122.94 78.29 C 122.42 78.98 122.57 79.96 123.26 80.48 C 123.95 80.99 124.92 80.85 125.44 80.16 Z M 124.88 80.02 L 125.52 79.97 C 126.38 79.91 127.02 79.16 126.96 78.30 C 126.90 77.44 126.15 76.80 125.29 76.86 L 124.65 76.91 C 123.79 76.97 123.14 77.72 123.21 78.58 C 123.27 79.44 124.02 80.08 124.88 80.02 Z M 124.16 79.36 L 124.71 80.09 C 125.24 80.77 126.22 80.90 126.90 80.38 C 127.59 79.86 127.72 78.88 127.20 78.19 L 126.65 77.47 C 126.12 76.78 125.14 76.65 124.46 77.17 C 123.77 77.70 123.64 78.68 124.16 79.36 Z M 124.42 79.44 L 124.65 80.60 C 124.81 81.45 125.63 82.00 126.48 81.84 C 127.32 81.67 127.88 80.85 127.71 80.01 L 127.49 78.84 C 127.33 78.00 126.51 77.44 125.66 77.61 C 124.81 77.77 124.26 78.59 124.42 79.44 Z M 124.65 80.01 L 124.42 81.17 C 124.26 82.02 124.82 82.84 125.66 83.00 C 126.51 83.16 127.33 82.61 127.49 81.76 L 127.71 80.60 C 127.88 79.75 127.32 78.93 126.48 78.77 C 125.63 78.61 124.81 79.16 124.65 80.01 Z M 124.63 80.65 L 124.13 81.46 C 123.68 82.19 123.91 83.15 124.64 83.60 C 125.38 84.05 126.34 83.83 126.79 83.09 L 127.29 82.29 C 127.74 81.55 127.51 80.59 126.78 80.14 C 126.04 79.69 125.08 79.92 124.63 80.65 Z M 125.71 80.73 L 125.02 80.62 C 124.17 80.49 123.37 81.07 123.23 81.92 C 123.10 82.77 123.68 83.57 124.53 83.71 L 125.22 83.82 C 126.07 83.95 126.87 83.37 127.00 82.52 C 127.14 81.67 126.56 80.87 125.71 80.73 Z M 126.31 81.88 L 126.17 81.13 C 126.02 80.28 125.20 79.72 124.35 79.87 C 123.51 80.03 122.94 80.84 123.10 81.69 L 123.24 82.44 C 123.39 83.29 124.20 83.85 125.05 83.70 C 125.90 83.54 126.46 82.73 126.31 81.88 Z M 123.88 82.77 L 124.35 83.03 C 125.10 83.45 126.05 83.18 126.47 82.42 C 126.89 81.67 126.61 80.72 125.86 80.30 L 125.39 80.04 C 124.63 79.62 123.68 79.90 123.27 80.65 C 122.85 81.41 123.13 82.36 123.88 82.77 Z M 124.06 82.83 L 124.78 83.48 C 125.42 84.06 126.41 84.01 126.99 83.37 C 127.56 82.73 127.51 81.74 126.87 81.16 L 126.15 80.51 C 125.51 79.93 124.52 79.98 123.95 80.62 C 123.37 81.26 123.42 82.25 124.06 82.83 Z M 124.72 83.42 L 125.60 84.31 C 126.21 84.92 127.20 84.92 127.81 84.32 C 128.42 83.71 128.43 82.72 127.82 82.11 L 126.93 81.22 C 126.33 80.61 125.34 80.60 124.73 81.21 C 124.11 81.82 124.11 82.81 124.72 83.42 Z M 125.59 84.29 L 126.10 84.83 C 126.70 85.45 127.69 85.46 128.31 84.86 C 128.93 84.26 128.95 83.28 128.35 82.66 L 127.83 82.12 C 127.23 81.50 126.25 81.49 125.63 82.09 C 125.01 82.69 124.99 83.68 125.59 84.29 Z"
      fill="black"
      fill-rule="nonzero" /><path d="M 168.65 82.79 L 168.62 81.77 C 168.60 80.91 167.89 80.23 167.02 80.25 C 166.16 80.27 165.48 80.99 165.50 81.85 L 165.53 82.87 C 165.55 83.73 166.27 84.41 167.13 84.39 C 167.99 84.36 168.67 83.65 168.65 82.79 Z M 168.62 81.84 L 168.64 80.84 C 168.66 79.98 167.97 79.27 167.11 79.25 C 166.25 79.23 165.54 79.92 165.52 80.78 L 165.50 81.78 C 165.49 82.64 166.17 83.36 167.03 83.37 C 167.90 83.39 168.61 82.70 168.62 81.84 Z M 168.63 80.98 L 168.74 80.00 C 168.84 79.15 168.22 78.37 167.37 78.28 C 166.51 78.18 165.74 78.80 165.64 79.66 L 165.53 80.64 C 165.44 81.49 166.05 82.27 166.91 82.36 C 167.77 82.46 168.54 81.84 168.63 80.98 Z M 168.70 80.23 L 168.98 79.20 C 169.20 78.37 168.70 77.51 167.87 77.29 C 167.04 77.07 166.18 77.56 165.96 78.40 L 165.68 79.43 C 165.46 80.26 165.96 81.12 166.79 81.34 C 167.62 81.56 168.48 81.07 168.70 80.23 Z M 168.85 79.52 L 169.33 78.61 C 169.72 77.84 169.42 76.90 168.66 76.50 C 167.89 76.10 166.95 76.40 166.55 77.17 L 166.08 78.08 C 165.68 78.84 165.98 79.79 166.75 80.18 C 167.51 80.58 168.46 80.28 168.85 79.52 Z M 168.99 79.04 L 169.66 78.43 C 170.29 77.85 170.34 76.86 169.75 76.23 C 169.17 75.59 168.19 75.55 167.55 76.13 L 166.89 76.74 C 166.25 77.32 166.21 78.30 166.79 78.94 C 167.37 79.58 168.36 79.62 168.99 79.04 Z M 168.89 78.82 L 169.80 78.65 C 170.65 78.49 171.21 77.68 171.06 76.83 C 170.90 75.98 170.08 75.42 169.24 75.58 L 168.32 75.75 C 167.47 75.90 166.91 76.72 167.07 77.57 C 167.22 78.41 168.04 78.97 168.89 78.82 Z M 168.98 78.58 L 169.91 78.92 C 170.72 79.22 171.61 78.81 171.91 78.00 C 172.21 77.19 171.80 76.29 170.99 75.99 L 170.06 75.65 C 169.25 75.35 168.35 75.76 168.06 76.57 C 167.76 77.38 168.17 78.28 168.98 78.58 Z M 169.27 78.47 L 169.91 79.23 C 170.47 79.88 171.46 79.95 172.11 79.39 C 172.77 78.83 172.84 77.84 172.28 77.19 L 171.63 76.44 C 171.07 75.79 170.09 75.71 169.43 76.27 C 168.78 76.83 168.70 77.82 169.27 78.47 Z M 169.58 78.60 L 169.83 79.54 C 170.05 80.38 170.90 80.88 171.73 80.66 C 172.57 80.44 173.07 79.59 172.85 78.75 L 172.61 77.82 C 172.39 76.98 171.54 76.48 170.70 76.70 C 169.87 76.91 169.37 77.77 169.58 78.60 Z M 169.78 79.04 L 169.71 80.07 C 169.66 80.93 170.31 81.67 171.17 81.73 C 172.03 81.78 172.77 81.13 172.83 80.27 L 172.90 79.25 C 172.95 78.39 172.30 77.65 171.44 77.59 C 170.58 77.53 169.84 78.18 169.78 79.04 Z M 169.81 79.62 L 169.45 80.56 C 169.15 81.37 169.55 82.27 170.36 82.57 C 171.17 82.88 172.07 82.47 172.37 81.67 L 172.73 80.72 C 173.04 79.92 172.63 79.01 171.82 78.71 C 171.02 78.40 170.12 78.81 169.81 79.62 Z M 169.71 80.12 L 169.09 80.87 C 168.54 81.54 168.63 82.52 169.30 83.07 C 169.96 83.62 170.94 83.53 171.49 82.86 L 172.12 82.11 C 172.67 81.44 172.57 80.46 171.91 79.91 C 171.24 79.36 170.26 79.45 169.71 80.12 Z M 169.47 80.54 L 168.63 81.07 C 167.89 81.52 167.67 82.48 168.12 83.21 C 168.58 83.95 169.54 84.17 170.27 83.72 L 171.11 83.20 C 171.85 82.74 172.07 81.78 171.62 81.05 C 171.16 80.31 170.20 80.09 169.47 80.54 Z M 169.04 80.88 L 168.06 81.15 C 167.23 81.37 166.74 82.23 166.96 83.06 C 167.18 83.89 168.04 84.39 168.87 84.16 L 169.85 83.90 C 170.69 83.68 171.18 82.82 170.96 81.99 C 170.73 81.15 169.88 80.66 169.04 80.88 Z M 168.46 81.09 L 167.45 81.10 C 166.59 81.10 165.89 81.80 165.89 82.66 C 165.90 83.53 166.60 84.22 167.46 84.22 L 168.47 84.22 C 169.34 84.21 170.03 83.51 170.03 82.65 C 170.03 81.79 169.32 81.09 168.46 81.09 Z M 167.86 81.15 L 166.90 80.89 C 166.07 80.66 165.21 81.15 164.99 81.99 C 164.76 82.82 165.25 83.68 166.08 83.90 L 167.04 84.16 C 167.87 84.39 168.73 83.90 168.96 83.07 C 169.19 82.24 168.70 81.38 167.86 81.15 Z M 167.39 81.12 L 166.60 80.56 C 165.89 80.06 164.92 80.23 164.42 80.94 C 163.92 81.64 164.09 82.61 164.80 83.11 L 165.59 83.67 C 166.30 84.17 167.27 84.00 167.77 83.30 C 168.27 82.59 168.10 81.62 167.39 81.12 Z M 167.02 81.01 L 166.49 80.16 C 166.04 79.43 165.08 79.21 164.34 79.66 C 163.61 80.12 163.39 81.08 163.84 81.81 L 164.37 82.66 C 164.83 83.39 165.79 83.62 166.52 83.16 C 167.25 82.70 167.48 81.74 167.02 81.01 Z M 166.70 80.70 L 166.52 79.72 C 166.36 78.87 165.54 78.32 164.70 78.48 C 163.85 78.64 163.29 79.45 163.45 80.30 L 163.63 81.28 C 163.79 82.12 164.61 82.68 165.46 82.52 C 166.30 82.36 166.86 81.55 166.70 80.70 Z M 166.51 80.35 L 166.73 79.36 C 166.91 78.52 166.38 77.69 165.54 77.50 C 164.69 77.32 163.86 77.85 163.68 78.69 L 163.46 79.68 C 163.28 80.52 163.81 81.35 164.65 81.54 C 165.49 81.72 166.32 81.19 166.51 80.35 Z M 166.45 79.97 L 167.07 79.14 C 167.59 78.45 167.46 77.47 166.77 76.95 C 166.08 76.43 165.10 76.57 164.58 77.26 L 163.96 78.09 C 163.44 78.78 163.57 79.75 164.26 80.27 C 164.95 80.79 165.93 80.66 166.45 79.97 Z M 166.54 79.59 L 167.38 79.16 C 168.14 78.76 168.45 77.82 168.05 77.05 C 167.66 76.29 166.72 75.99 165.95 76.38 L 165.11 76.81 C 164.35 77.21 164.04 78.15 164.44 78.91 C 164.83 79.68 165.77 79.98 166.54 79.59 Z M 166.42 79.31 L 167.29 79.45 C 168.15 79.59 168.95 79.00 169.08 78.15 C 169.22 77.30 168.64 76.50 167.78 76.37 L 166.91 76.23 C 166.06 76.09 165.26 76.67 165.12 77.52 C 164.99 78.38 165.57 79.18 166.42 79.31 Z M 166.46 79.04 L 167.17 79.72 C 167.80 80.31 168.78 80.29 169.38 79.66 C 169.97 79.04 169.95 78.05 169.33 77.46 L 168.62 76.78 C 167.99 76.18 167.00 76.21 166.41 76.83 C 165.81 77.46 165.84 78.44 166.46 79.04 Z M 166.78 79.12 L 167.15 80.14 C 167.45 80.95 168.34 81.37 169.15 81.07 C 169.96 80.78 170.38 79.88 170.09 79.07 L 169.72 78.05 C 169.42 77.24 168.53 76.82 167.72 77.12 C 166.90 77.41 166.49 78.31 166.78 79.12 Z M 167.06 79.48 L 166.97 80.61 C 166.90 81.47 167.54 82.22 168.40 82.29 C 169.26 82.36 170.02 81.72 170.08 80.86 L 170.18 79.73 C 170.24 78.87 169.60 78.12 168.74 78.05 C 167.88 77.98 167.13 78.62 167.06 79.48 Z M 167.26 79.83 L 166.78 80.49 C 166.28 81.19 166.44 82.17 167.14 82.67 C 167.85 83.17 168.82 83.01 169.32 82.31 L 169.80 81.64 C 170.30 80.94 170.14 79.97 169.44 79.46 C 168.74 78.96 167.76 79.12 167.26 79.83 Z M 168.54 79.92 L 167.89 79.70 C 167.07 79.43 166.19 79.87 165.91 80.69 C 165.64 81.51 166.08 82.39 166.90 82.66 L 167.56 82.88 C 168.38 83.15 169.26 82.71 169.53 81.89 C 169.81 81.07 169.36 80.19 168.54 79.92 Z M 168.75 80.40 L 168.23 79.50 C 167.79 78.75 166.84 78.50 166.09 78.93 C 165.35 79.36 165.09 80.31 165.52 81.06 L 166.04 81.96 C 166.47 82.71 167.43 82.96 168.18 82.53 C 168.92 82.10 169.18 81.15 168.75 80.40 Z M 168.43 80.25 L 168.41 79.09 C 168.39 78.23 167.68 77.54 166.82 77.56 C 165.95 77.58 165.27 78.29 165.29 79.16 L 165.31 80.31 C 165.33 81.17 166.05 81.86 166.91 81.84 C 167.77 81.82 168.45 81.11 168.43 80.25 Z M 168.27 79.76 L 168.73 78.75 C 169.08 77.97 168.74 77.04 167.95 76.69 C 167.16 76.33 166.24 76.68 165.88 77.47 L 165.43 78.48 C 165.07 79.27 165.42 80.19 166.21 80.54 C 166.99 80.90 167.92 80.55 168.27 79.76 Z M 168.37 79.25 L 169.04 78.63 C 169.67 78.04 169.70 77.05 169.12 76.42 C 168.53 75.79 167.54 75.76 166.91 76.34 L 166.24 76.97 C 165.61 77.56 165.58 78.55 166.17 79.18 C 166.75 79.81 167.74 79.84 168.37 79.25 Z M 167.75 79.03 L 168.40 79.12 C 169.26 79.25 170.05 78.66 170.17 77.80 C 170.30 76.95 169.70 76.16 168.85 76.03 L 168.20 75.94 C 167.35 75.82 166.55 76.41 166.43 77.26 C 166.31 78.11 166.90 78.91 167.75 79.03 Z M 167.24 78.30 L 167.68 79.14 C 168.08 79.91 169.03 80.20 169.79 79.80 C 170.55 79.40 170.85 78.46 170.45 77.69 L 170.01 76.85 C 169.61 76.09 168.67 75.80 167.90 76.20 C 167.14 76.60 166.84 77.54 167.24 78.30 Z M 167.51 78.57 L 167.63 79.76 C 167.72 80.62 168.49 81.24 169.34 81.15 C 170.20 81.07 170.83 80.30 170.74 79.44 L 170.62 78.26 C 170.53 77.40 169.77 76.78 168.91 76.86 C 168.05 76.95 167.43 77.72 167.51 78.57 Z M 167.66 79.29 L 167.43 80.40 C 167.26 81.24 167.81 82.07 168.65 82.24 C 169.50 82.41 170.32 81.86 170.49 81.02 L 170.72 79.91 C 170.89 79.07 170.34 78.24 169.50 78.07 C 168.65 77.90 167.83 78.45 167.66 79.29 Z M 167.64 79.87 L 167.14 80.67 C 166.68 81.40 166.89 82.36 167.62 82.82 C 168.35 83.28 169.31 83.07 169.78 82.34 L 170.28 81.55 C 170.74 80.82 170.53 79.85 169.80 79.39 C 169.07 78.93 168.11 79.14 167.64 79.87 Z M 168.07 79.99 L 167.26 80.20 C 166.42 80.41 165.92 81.26 166.13 82.10 C 166.34 82.93 167.19 83.44 168.03 83.22 L 168.84 83.02 C 169.68 82.80 170.18 81.95 169.97 81.12 C 169.76 80.28 168.91 79.78 168.07 79.99 Z M 168.54 80.44 L 167.73 79.86 C 167.02 79.36 166.05 79.53 165.55 80.23 C 165.05 80.94 165.22 81.91 165.92 82.41 L 166.74 82.99 C 167.44 83.48 168.42 83.32 168.92 82.61 C 169.41 81.91 169.25 80.93 168.54 80.44 Z M 168.37 81.32 L 168.49 80.41 C 168.59 79.56 167.98 78.78 167.12 78.67 C 166.27 78.57 165.49 79.18 165.39 80.04 L 165.28 80.94 C 165.17 81.80 165.78 82.58 166.64 82.68 C 167.49 82.79 168.27 82.18 168.37 81.32 Z M 167.84 81.50 L 168.69 80.89 C 169.40 80.39 169.56 79.41 169.06 78.71 C 168.56 78.01 167.58 77.84 166.88 78.35 L 166.03 78.95 C 165.33 79.45 165.16 80.43 165.66 81.13 C 166.17 81.83 167.14 82.00 167.84 81.50 Z M 167.04 78.25 L 166.77 78.39 C 166.02 78.81 165.74 79.75 166.15 80.51 C 166.57 81.27 167.52 81.55 168.27 81.13 L 168.54 80.99 C 169.29 80.57 169.57 79.62 169.16 78.87 C 168.74 78.11 167.80 77.83 167.04 78.25 Z M 166.82 78.37 L 165.73 78.91 C 164.96 79.30 164.65 80.23 165.04 81.01 C 165.42 81.78 166.36 82.09 167.13 81.70 L 168.22 81.16 C 168.99 80.77 169.30 79.83 168.92 79.06 C 168.53 78.29 167.59 77.98 166.82 78.37 Z M 165.74 78.91 L 165.23 79.16 C 164.46 79.55 164.14 80.48 164.53 81.26 C 164.91 82.03 165.85 82.34 166.62 81.96 L 167.13 81.70 C 167.90 81.32 168.21 80.38 167.83 79.61 C 167.45 78.84 166.51 78.53 165.74 78.91 Z"
      fill="black"
      fill-rule="nonzero" /></svg>