<svg xmlns="http://www.w3.org/2000/svg" width="300" height="300" viewBox="0 0 300 300">
<path d="M 136.67 121.02 L 136.64 121.93 C 136.61 122.79 137.28 123.52 138.14 123.55 C 139.00 123.58 139.73 122.91 139.76 122.05 L 139.79 121.14 C 139.82 120.27 139.15 119.55 138.29 119.52 C 137.43 119.49 136.70 120.16 136.67 121.02 Z M 136.64 121.94 L 136.61 122.88 C 136.58 123.74 137.25 124.46 138.11 124.49 C 138.98 124.52 139.70 123.84 139.73 122.98 L 139.76 122.04 C 139.79 121.18 139.11 120.46 138.25 120.43 C 137.39 120.40 136.67 121.08 136.64 121.94 Z M 136.61 122.88 L 136.58 123.88 C 136.55 124.74 137.23 125.46 138.10 125.49 C 138.96 125.51 139.68 124.83 139.70 123.97 L 139.73 122.97 C 139.75 122.11 139.07 121.39 138.21 121.37 C 137.35 121.34 136.63 122.02 136.61 122.88 Z M 136.58 123.89 L 136.56 124.98 C 136.54 125.84 137.22 126.56 138.08 126.57 C 138.95 126.59 139.66 125.91 139.68 125.05 L 139.70 123.96 C 139.72 123.10 139.03 122.38 138.17 122.36 C 137.31 122.35 136.60 123.03 136.58 123.89 Z M 136.56 124.99 L 136.54 126.00 C 136.53 126.87 137.22 127.58 138.08 127.59 C 138.94 127.60 139.65 126.91 139.66 126.05 L 139.68 125.03 C 139.69 124.17 139.00 123.46 138.14 123.45 C 137.28 123.44 136.57 124.13 136.56 124.99 Z M 136.54 126.01 L 136.53 126.98 C 136.53 127.84 137.22 128.54 138.08 128.55 C 138.94 128.56 139.65 127.86 139.66 127.00 L 139.66 126.04 C 139.67 125.18 138.98 124.47 138.12 124.47 C 137.25 124.46 136.55 125.15 136.54 126.01 Z M 136.53 126.98 L 136.53 127.99 C 136.52 128.85 137.22 129.55 138.08 129.56 C 138.94 129.56 139.65 128.87 139.65 128.00 L 139.66 127.00 C 139.66 126.14 138.96 125.43 138.10 125.43 C 137.24 125.42 136.54 126.12 136.53 126.98 Z M 136.53 127.99 L 136.52 129.02 C 136.52 129.88 137.22 130.58 138.08 130.59 C 138.94 130.59 139.65 129.89 139.65 129.03 L 139.65 128.00 C 139.65 127.14 138.96 126.44 138.09 126.43 C 137.23 126.43 136.53 127.13 136.53 127.99 Z M 136.52 129.02 L 136.52 130.06 C 136.52 130.92 137.22 131.62 138.08 131.62 C 138.95 131.62 139.65 130.92 139.65 130.06 L 139.65 129.03 C 139.65 128.16 138.95 127.46 138.09 127.46 C 137.23 127.46 136.53 128.16 136.52 129.02 Z M 136.52 130.06 L 136.52 131.08 C 136.52 131.94 137.22 132.64 138.08 132.64 C 138.95 132.64 139.65 131.94 139.65 131.08 L 139.65 130.06 C 139.65 129.20 138.95 128.50 138.09 128.50 C 137.22 128.50 136.52 129.20 136.52 130.06 Z M 136.52 131.08 L 136.52 132.17 C 136.52 133.03 137.22 133.73 138.08 133.73 C 138.95 133.73 139.65 133.03 139.65 132.17 L 139.65 131.08 C 139.65 130.22 138.95 129.52 138.08 129.52 C 137.22 129.52 136.52 130.22 136.52 131.08 Z M 136.52 132.17 L 136.52 133.24 C 136.52 134.10 137.22 134.80 138.08 134.80 C 138.95 134.80 139.65 134.10 139.65 133.24 L 139.65 132.17 C 139.65 131.31 138.95 130.61 138.08 130.61 C 137.22 130.61 136.52 131.31 136.52 132.17 Z M 136.52 133.24 L 136.52 134.26 C 136.52 135.12 137.22 135.82 138.08 135.82 C 138.95 135.82 139.65 135.12 139.65 134.26 L 139.65 133.24 C 139.65 132.38 138.95 131.68 138.08 131.68 C 137.22 131.68 136.52 132.38 136.52 133.24 Z M 136.52 134.26 L 136.52 135.22 C 136.52 136.08 137.22 136.78 138.08 136.78 C 138.95 136.78 139.65 136.08 139.65 135.22 L 139.65 134.26 C 139.65 133.40 138.95 132.70 138.08 132.70 C 137.22 132.70 136.52 133.40 136.52 134.26 Z M 136.52 135.22 L 136.52 136.13 C 136.52 136.99 137.22 137.69 138.08 137.69 C 138.95 137.69 139.65 136.99 139.65 136.13 L 139.65 135.22 C 139.65 134.36 138.95 133.66 138.08 133.66 C 137.22 133.66 136.52 134.36 136.52 135.22 Z M 136.52 136.13 L 136.52 137.15 C 136.52 138.01 137.22 138.71 138.08 138.71 C 138.95 138.71 139.65 138.01 139.65 137.15 L 139.65 136.13 C 139.65 135.26 138.95 134.57 138.08 134.57 C 137.22 134.57 136.52 135.26 136.52 136.13 Z M 136.52 137.15 L 136.52 138.19 C 136.52 139.05 137.22 139.75 138.08 139.75 C 138.95 139.75 139.65 139.05 139.65 138.19 L 139.65 137.15 C 139.65 136.29 138.95 135.59 138.08 135.59 C 137.22 135.59 136.52 136.29 136.52 137.15 Z M 136.52 138.19 L 136.52 139.16 C 136.52 140.02 137.22 140.72 138.08 140.72 C 138.95 140.72 139.65 140.02 139.65 139.16 L 139.65 138.19 C 139.65 137.33 138.95 136.63 138.08 136.63 C 137.22 136.63 136.52 137.33 136.52 138.19 Z M 136.52 139.16 L 136.52 140.09 C 136.52 140.96 137.22 141.65 138.08 141.65 C 138.95 141.65 139.65 140.96 139.65 140.09 L 139.65 139.16 C 139.65 138.30 138.95 137.60 138.08 137.60 C 137.22 137.60 136.52 138.30 136.52 139.16 Z M 136.52 140.09 L 136.52 141.08 C 136.52 141.94 137.22 142.64 138.08 142.64 C 138.95 142.64 139.65 141.94 139.65 141.08 L 139.65 140.09 C 139.65 139.23 138.95 138.53 138.08 138.53 C 137.22 138.53 136.52 139.23 136.52 140.09 Z M 136.52 141.08 L 136.52 142.07 C 136.52 142.93 137.22 143.63 138.08 143.63 C 138.95 143.63 139.65 142.93 139.65 142.07 L 139.65 141.08 C 139.65 140.21 138.95 139.52 138.08 139.52 C 137.22 139.52 136.52 140.21 136.52 141.08 Z M 136.52 142.07 L 136.52 143.07 C 136.52 143.93 137.22 144.63 138.08 144.63 C 138.95 144.63 139.65 143.93 139.65 143.07 L 139.65 142.07 C 139.65 141.21 138.95 140.51 138.08 140.51 C 137.22 140.51 136.52 141.21 136.52 142.07 Z M 136.52 143.07 L 136.52 144.07 C 136.52 144.93 137.22 145.63 138.08 145.63 C 138.95 145.63 139.65 144.93 139.65 144.07 L 139.65 143.07 C 139.65 142.21 138.95 141.51 138.08 141.51 C 137.22 141.51 136.52 142.21 136.52 143.07 Z M 136.52 144.07 L 136.52 145.05 C 136.52 145.92 137.22 146.62 138.08 146.62 C 138.95 146.62 139.65 145.92 139.65 145.05 L 139.65 144.07 C 139.65 143.21 138.95 142.51 138.08 142.51 C 137.22 142.51 136.52 143.21 136.52 144.07 Z M 136.52 145.05 L 136.52 146.05 C 136.52 146.92 137.22 147.62 138.08 147.62 C 138.95 147.62 139.65 146.92 139.65 146.05 L 139.65 145.05 C 139.65 144.19 138.95 143.49 138.08 143.49 C 137.22 143.49 136.52 144.19 136.52 145.05 Z M 136.52 146.05 L 136.52 147.07 C 136.52 147.93 137.22 148.63 138.08 148.63 C 138.95 148.63 139.65 147.93 139.65 147.07 L 139.65 146.05 C 139.65 145.19 138.95 144.49 138.08 144.49 C 137.22 144.49 136.52 145.19 136.52 146.05 Z M 136.52 147.07 L 136.52 148.07 C 136.52 148.93 137.22 149.63 138.08 149.63 C 138.95 149.63 139.65 148.93 139.65 148.07 L 139.65 147.07 C 139.65 146.21 138.95 145.51 138.08 145.51 C 137.22 145.51 136.52 146.21 136.52 147.07 Z M 136.52 148.07 L 136.52 149.07 C 136.52 149.93 137.22 150.63 138.08 150.63 C 138.95 150.63 139.65 149.93 139.65 149.07 L 139.65 148.07 C 139.65 147.21 138.95 146.51 138.08 146.51 C 137.22 146.51 136.52 147.21 136.52 148.07 Z M 136.52 149.07 L 136.52 150.07 C 136.52 150.93 137.22 151.63 138.08 151.63 C 138.95 151.63 139.65 150.93 139.65 150.07 L 139.65 149.07 C 139.65 148.21 138.95 147.51 138.08 147.51 C 137.22 147.51 136.52 148.21 136.52 149.07 Z M 136.52 150.07 L 136.52 151.08 C 136.52 151.94 137.22 152.64 138.08 152.64 C 138.95 152.64 139.65 151.94 139.65 151.08 L 139.65 150.07 C 139.65 149.21 138.95 148.51 138.08 148.51 C 137.22 148.51 136.52 149.21 136.52 150.07 Z M 136.52 151.08 L 136.52 152.07 C 136.52 152.94 137.22 153.63 138.08 153.63 C 138.95 153.63 139.65 152.94 139.65 152.07 L 139.65 151.08 C 139.65 150.21 138.95 149.52 138.08 149.52 C 137.22 149.52 136.52 150.21 136.52 151.08 Z M 136.52 152.07 L 136.52 153.07 C 136.52 153.93 137.22 154.63 138.08 154.63 C 138.95 154.63 139.65 153.93 139.65 153.07 L 139.65 152.07 C 139.65 151.21 138.95 150.51 138.08 150.51 C 137.22 150.51 136.52 151.21 136.52 152.07 Z M 136.52 153.07 L 136.52 154.07 C 136.52 154.93 137.22 155.63 138.08 155.63 C 138.95 155.63 139.65 154.93 139.65 154.07 L 139.65 153.07 C 139.65 152.21 138.95 151.51 138.08 151.51 C 137.22 151.51 136.52 152.21 136.52 153.07 Z M 136.52 154.07 L 136.52 155.08 C 136.52 155.94 137.22 156.64 138.08 156.64 C 138.95 156.64 139.65 155.94 139.65 155.08 L 139.65 154.07 C 139.65 153.21 138.95 152.51 138.08 152.51 C 137.22 152.51 136.52 153.21 136.52 154.07 Z M 136.52 155.08 L 136.52 156.07 C 136.52 156.93 137.22 157.63 138.08 157.63 C 138.95 157.63 139.65 156.93 139.65 156.07 L 139.65 155.08 C 139.65 154.21 138.95 153.52 138.08 153.52 C 137.22 153.52 136.52 154.21 136.52 155.08 Z M 136.52 156.07 L 136.52 157.06 C 136.52 157.92 137.22 158.62 138.08 158.62 C 138.95 158.62 139.65 157.92 139.65 157.06 L 139.65 156.07 C 139.65 155.20 138.95 154.50 138.08 154.50 C 137.22 154.50 136.52 155.20 136.52 156.07 Z M 136.52 157.06 L 136.52 158.07 C 136.52 158.93 137.22 159.63 138.08 159.63 C 138.95 159.63 139.65 158.93 139.65 158.07 L 139.65 157.06 C 139.65 156.20 138.95 155.50 138.08 155.50 C 137.22 155.50 136.52 156.20 136.52 157.06 Z M 136.52 158.07 L 136.52 159.08 C 136.52 159.94 137.22 160.64 138.08 160.64 C 138.95 160.64 139.65 159.94 139.65 159.08 L 139.65 158.07 C 139.65 157.20 138.95 156.50 138.08 156.50 C 137.22 156.50 136.52 157.20 136.52 158.07 Z M 136.52 159.08 L 136.52 160.07 C 136.52 160.93 137.22 161.63 138.08 161.63 C 138.95 161.63 139.65 160.93 139.65 160.07 L 139.65 159.08 C 139.65 158.22 138.95 157.52 138.09 157.52 C 137.22 157.52 136.52 158.21 136.52 159.08 Z M 136.52 160.07 L 136.52 161.07 C 136.52 161.93 137.22 162.63 138.08 162.63 C 138.94 162.63 139.64 161.93 139.64 161.07 L 139.65 160.07 C 139.65 159.21 138.95 158.51 138.09 158.51 C 137.23 158.51 136.52 159.20 136.52 160.07 Z M 136.52 161.06 L 136.52 162.06 C 136.51 162.93 137.21 163.63 138.07 163.63 C 138.93 163.64 139.63 162.94 139.64 162.08 L 139.64 161.08 C 139.65 160.21 138.95 159.51 138.09 159.51 C 137.23 159.50 136.53 160.20 136.52 161.06 Z M 136.52 162.06 L 136.51 163.06 C 136.50 163.92 137.19 164.63 138.05 164.64 C 138.91 164.65 139.62 163.95 139.63 163.09 L 139.64 162.09 C 139.65 161.22 138.96 160.52 138.09 160.51 C 137.23 160.50 136.52 161.19 136.52 162.06 Z M 136.51 163.05 L 136.49 164.04 C 136.48 164.90 137.17 165.61 138.03 165.62 C 138.89 165.64 139.60 164.95 139.61 164.09 L 139.63 163.10 C 139.64 162.24 138.95 161.53 138.09 161.52 C 137.23 161.50 136.52 162.19 136.51 163.05 Z M 136.49 164.03 L 136.47 165.02 C 136.45 165.88 137.13 166.59 137.99 166.61 C 138.86 166.63 139.57 165.95 139.59 165.09 L 139.61 164.10 C 139.63 163.24 138.95 162.52 138.09 162.50 C 137.23 162.48 136.51 163.16 136.49 164.03 Z M 136.47 165.00 L 136.44 166.00 C 136.41 166.87 137.09 167.59 137.95 167.61 C 138.81 167.64 139.53 166.96 139.56 166.10 L 139.59 165.10 C 139.62 164.24 138.94 163.52 138.08 163.49 C 137.22 163.47 136.50 164.14 136.47 165.00 Z M 136.44 165.99 L 136.40 167.01 C 136.36 167.87 137.04 168.59 137.90 168.63 C 138.76 168.66 139.48 167.99 139.52 167.13 L 139.56 166.11 C 139.59 165.25 138.92 164.53 138.06 164.49 C 137.20 164.46 136.47 165.13 136.44 165.99 Z M 136.40 166.99 L 136.35 167.99 C 136.31 168.85 136.97 169.58 137.84 169.63 C 138.70 169.67 139.43 169.00 139.47 168.14 L 139.52 167.14 C 139.56 166.28 138.89 165.55 138.03 165.51 C 137.17 165.47 136.44 166.13 136.40 166.99 Z M 136.35 167.98 L 136.30 168.98 C 136.25 169.84 136.91 170.58 137.77 170.62 C 138.63 170.67 139.37 170.01 139.42 169.15 L 139.47 168.15 C 139.52 167.29 138.86 166.55 137.99 166.51 C 137.13 166.46 136.40 167.12 136.35 167.98 Z M 136.30 168.98 L 136.24 169.98 C 136.19 170.84 136.85 171.58 137.71 171.63 C 138.58 171.68 139.31 171.02 139.36 170.16 L 139.42 169.15 C 139.46 168.29 138.80 167.55 137.94 167.51 C 137.08 167.46 136.35 168.12 136.30 168.98 Z M 136.24 169.99 L 136.19 170.99 C 136.14 171.85 136.80 172.59 137.66 172.63 C 138.53 172.68 139.26 172.02 139.31 171.16 L 139.36 170.15 C 139.41 169.29 138.75 168.56 137.88 168.51 C 137.02 168.46 136.29 169.12 136.24 169.99 Z M 136.19 171.00 L 136.14 172.00 C 136.10 172.86 136.77 173.59 137.63 173.63 C 138.49 173.67 139.22 173.01 139.26 172.15 L 139.31 171.15 C 139.35 170.28 138.68 169.55 137.82 169.51 C 136.96 169.47 136.23 170.14 136.19 171.00 Z M 136.14 172.01 L 136.10 173.02 C 136.07 173.88 136.74 174.60 137.60 174.64 C 138.46 174.67 139.19 174.00 139.22 173.14 L 139.26 172.14 C 139.29 171.27 138.62 170.55 137.76 170.51 C 136.90 170.48 136.17 171.15 136.14 172.01 Z M 136.10 173.02 L 136.06 174.02 C 136.03 174.88 136.71 175.60 137.57 175.64 C 138.43 175.67 139.15 174.99 139.18 174.13 L 139.22 173.13 C 139.25 172.27 138.58 171.55 137.72 171.52 C 136.85 171.49 136.13 172.16 136.10 173.02 Z M 136.06 174.02 L 136.03 175.01 C 136.00 175.88 136.67 176.60 137.53 176.63 C 138.40 176.66 139.12 175.99 139.15 175.12 L 139.18 174.13 C 139.22 173.27 138.54 172.55 137.68 172.51 C 136.82 172.48 136.09 173.16 136.06 174.02 Z M 136.03 175.01 L 135.99 176.01 C 135.96 176.87 136.63 177.59 137.49 177.63 C 138.35 177.66 139.08 176.99 139.11 176.13 L 139.15 175.13 C 139.18 174.27 138.51 173.54 137.65 173.51 C 136.79 173.48 136.06 174.15 136.03 175.01 Z M 135.99 175.99 L 135.94 177.02 C 135.90 177.88 136.57 178.61 137.43 178.65 C 138.29 178.69 139.02 178.02 139.06 177.16 L 139.11 176.14 C 139.15 175.28 138.48 174.55 137.62 174.51 C 136.76 174.47 136.03 175.13 135.99 175.99 Z M 135.94 177.00 L 135.89 178.02 C 135.84 178.88 136.51 179.62 137.37 179.66 C 138.23 179.71 138.96 179.05 139.01 178.19 L 139.06 177.17 C 139.11 176.31 138.45 175.57 137.59 175.53 C 136.72 175.48 135.99 176.14 135.94 177.00 Z M 135.89 178.01 L 135.83 179.01 C 135.78 179.87 136.44 180.61 137.30 180.66 C 138.16 180.71 138.90 180.06 138.95 179.19 L 139.01 178.20 C 139.06 177.33 138.40 176.60 137.54 176.54 C 136.68 176.49 135.94 177.15 135.89 178.01 Z M 135.83 179.00 L 135.77 179.97 C 135.71 180.83 136.37 181.57 137.23 181.63 C 138.09 181.68 138.83 181.03 138.89 180.17 L 138.95 179.20 C 139.00 178.34 138.35 177.60 137.49 177.54 C 136.63 177.49 135.89 178.14 135.83 179.00 Z M 135.77 179.96 L 135.70 180.98 C 135.64 181.84 136.29 182.59 137.15 182.65 C 138.01 182.71 138.75 182.06 138.81 181.20 L 138.88 180.18 C 138.94 179.32 138.30 178.57 137.44 178.51 C 136.58 178.45 135.83 179.10 135.77 179.96 Z M 135.70 180.98 L 135.63 181.98 C 135.56 182.84 136.21 183.59 137.07 183.65 C 137.93 183.72 138.68 183.07 138.74 182.21 L 138.81 181.21 C 138.87 180.35 138.23 179.60 137.37 179.54 C 136.51 179.47 135.76 180.12 135.70 180.98 Z M 135.63 181.99 L 135.56 182.97 C 135.50 183.83 136.15 184.57 137.01 184.63 C 137.87 184.69 138.61 184.05 138.67 183.18 L 138.74 182.21 C 138.80 181.35 138.15 180.60 137.29 180.54 C 136.43 180.48 135.68 181.13 135.63 181.99 Z M 135.56 182.98 L 135.50 183.96 C 135.45 184.82 136.10 185.56 136.96 185.61 C 137.82 185.66 138.56 185.01 138.61 184.15 L 138.67 183.17 C 138.72 182.31 138.07 181.57 137.21 181.52 C 136.35 181.47 135.61 182.12 135.56 182.98 Z M 135.50 183.98 L 135.45 184.98 C 135.41 185.84 136.07 186.58 136.93 186.62 C 137.79 186.66 138.52 186.00 138.57 185.13 L 138.61 184.13 C 138.66 183.27 137.99 182.53 137.13 182.49 C 136.27 182.45 135.54 183.11 135.50 183.98 Z M 135.45 184.99 L 135.40 186.00 C 135.37 186.86 136.03 187.59 136.90 187.63 C 137.76 187.66 138.49 186.99 138.52 186.13 L 138.57 185.13 C 138.60 184.26 137.93 183.54 137.07 183.50 C 136.21 183.46 135.48 184.13 135.45 184.99 Z M 135.40 185.99 L 135.36 186.99 C 135.32 187.85 135.99 188.58 136.85 188.62 C 137.71 188.66 138.44 187.99 138.48 187.13 L 138.52 186.14 C 138.56 185.27 137.90 184.55 137.03 184.51 C 136.17 184.47 135.44 185.13 135.40 185.99 Z M 135.36 186.97 L 135.30 187.97 C 135.25 188.84 135.91 189.57 136.77 189.62 C 137.63 189.67 138.37 189.01 138.42 188.15 L 138.48 187.15 C 138.53 186.29 137.87 185.55 137.01 185.50 C 136.14 185.45 135.41 186.11 135.36 186.97 Z M 135.30 187.95 L 135.23 188.97 C 135.17 189.83 135.82 190.57 136.68 190.63 C 137.54 190.69 138.29 190.04 138.35 189.18 L 138.42 188.17 C 138.48 187.31 137.83 186.56 136.97 186.50 C 136.11 186.45 135.36 187.09 135.30 187.95 Z M 135.23 188.96 L 135.16 189.95 C 135.10 190.81 135.75 191.56 136.61 191.62 C 137.46 191.69 138.21 191.04 138.28 190.18 L 138.35 189.19 C 138.41 188.33 137.77 187.58 136.91 187.52 C 136.05 187.46 135.30 188.10 135.23 188.96 Z M 135.16 189.96 L 135.10 190.92 C 135.04 191.78 135.69 192.53 136.55 192.58 C 137.41 192.64 138.15 191.99 138.21 191.13 L 138.28 190.17 C 138.33 189.31 137.68 188.57 136.82 188.51 C 135.96 188.45 135.22 189.10 135.16 189.96 Z M 135.10 190.94 L 135.05 191.77 C 135.00 192.63 135.66 193.37 136.52 193.42 C 137.38 193.46 138.12 192.81 138.17 191.94 L 138.21 191.11 C 138.26 190.25 137.60 189.52 136.74 189.47 C 135.88 189.42 135.14 190.08 135.10 190.94 Z M 135.05 191.78 L 135.00 192.68 C 134.96 193.54 135.62 194.27 136.48 194.32 C 137.34 194.36 138.07 193.70 138.12 192.84 L 138.17 191.94 C 138.21 191.08 137.55 190.34 136.69 190.30 C 135.83 190.25 135.09 190.91 135.05 191.78 Z M 135.00 192.67 L 134.94 193.72 C 134.89 194.58 135.55 195.32 136.41 195.36 C 137.27 195.41 138.01 194.76 138.06 193.90 L 138.12 192.85 C 138.17 191.99 137.51 191.25 136.65 191.20 C 135.79 191.15 135.05 191.81 135.00 192.67 Z M 134.94 193.70 L 134.86 194.91 C 134.81 195.77 135.46 196.51 136.32 196.57 C 137.18 196.63 137.92 195.97 137.98 195.11 L 138.06 193.91 C 138.12 193.05 137.46 192.31 136.60 192.25 C 135.74 192.19 135.00 192.84 134.94 193.70 Z M 134.86 194.90 L 134.80 195.76 C 134.74 196.62 135.38 197.37 136.24 197.43 C 137.10 197.49 137.85 196.85 137.91 195.99 L 137.98 195.13 C 138.04 194.27 137.40 193.52 136.54 193.45 C 135.68 193.39 134.93 194.04 134.86 194.90 Z M 134.80 195.75 L 134.73 196.69 C 134.66 197.55 135.30 198.30 136.16 198.37 C 137.02 198.44 137.77 197.80 137.84 196.94 L 137.91 196.00 C 137.98 195.14 137.34 194.38 136.48 194.32 C 135.62 194.25 134.87 194.89 134.80 195.75 Z M 134.73 196.69 L 134.65 197.69 C 134.58 198.55 135.22 199.30 136.08 199.37 C 136.94 199.44 137.69 198.80 137.76 197.94 L 137.84 196.94 C 137.91 196.08 137.27 195.33 136.41 195.26 C 135.55 195.19 134.80 195.83 134.73 196.69 Z M 134.65 197.69 L 134.56 198.73 C 134.49 199.58 135.13 200.34 135.99 200.41 C 136.85 200.48 137.60 199.84 137.67 198.98 L 137.76 197.94 C 137.83 197.08 137.19 196.33 136.33 196.26 C 135.47 196.19 134.72 196.83 134.65 197.69 Z M 134.56 198.72 L 134.47 199.78 C 134.40 200.64 135.04 201.40 135.89 201.47 C 136.75 201.54 137.51 200.91 137.58 200.05 L 137.67 198.99 C 137.74 198.13 137.11 197.37 136.25 197.30 C 135.39 197.23 134.63 197.86 134.56 198.72 Z M 134.47 199.78 L 134.38 200.85 C 134.31 201.70 134.94 202.46 135.80 202.53 C 136.66 202.61 137.42 201.97 137.49 201.11 L 137.58 200.05 C 137.66 199.19 137.02 198.43 136.16 198.36 C 135.30 198.29 134.54 198.92 134.47 199.78 Z M 134.38 200.84 L 134.29 201.93 C 134.21 202.79 134.85 203.55 135.71 203.62 C 136.57 203.69 137.32 203.06 137.40 202.20 L 137.49 201.11 C 137.56 200.25 136.93 199.50 136.07 199.42 C 135.21 199.35 134.45 199.99 134.38 200.84 Z M 134.29 201.93 L 134.19 203.05 C 134.12 203.91 134.76 204.66 135.61 204.74 C 136.47 204.81 137.23 204.17 137.30 203.32 L 137.40 202.20 C 137.47 201.34 136.83 200.58 135.97 200.51 C 135.12 200.44 134.36 201.07 134.29 201.93 Z M 134.19 203.05 L 134.10 204.12 C 134.03 204.98 134.67 205.74 135.53 205.81 C 136.39 205.88 137.14 205.24 137.21 204.38 L 137.30 203.31 C 137.37 202.45 136.74 201.70 135.88 201.63 C 135.02 201.55 134.26 202.19 134.19 203.05 Z M 134.10 204.13 L 134.02 205.15 C 133.95 206.01 134.59 206.76 135.45 206.83 C 136.31 206.90 137.06 206.26 137.13 205.40 L 137.21 204.38 C 137.28 203.52 136.64 202.77 135.78 202.70 C 134.92 202.63 134.17 203.27 134.10 204.13 Z M 134.02 205.15 L 133.95 206.11 C 133.88 206.97 134.52 207.72 135.38 207.78 C 136.24 207.85 136.99 207.21 137.06 206.35 L 137.13 205.39 C 137.20 204.53 136.55 203.78 135.69 203.71 C 134.83 203.65 134.08 204.29 134.02 205.15 Z M 133.95 206.12 L 133.88 207.01 C 133.82 207.87 134.47 208.61 135.33 208.67 C 136.19 208.73 136.94 208.08 137.00 207.22 L 137.06 206.34 C 137.12 205.47 136.47 204.73 135.61 204.67 C 134.75 204.61 134.00 205.26 133.95 206.12 Z M 133.88 207.02 L 133.83 207.97 C 133.78 208.83 134.44 209.57 135.30 209.62 C 136.16 209.67 136.90 209.01 136.95 208.15 L 137.00 207.21 C 137.05 206.34 136.39 205.61 135.53 205.56 C 134.67 205.51 133.93 206.16 133.88 207.02 Z M 133.83 208.00 L 133.78 209.12 C 133.75 209.98 134.42 210.71 135.28 210.75 C 136.14 210.78 136.87 210.11 136.90 209.25 L 136.95 208.13 C 136.98 207.26 136.31 206.54 135.45 206.50 C 134.59 206.47 133.86 207.14 133.83 208.00 Z M 133.78 209.15 L 133.76 210.13 C 133.74 211.00 134.43 211.71 135.29 211.73 C 136.15 211.75 136.86 211.06 136.88 210.20 L 136.90 209.22 C 136.92 208.36 136.24 207.64 135.37 207.63 C 134.51 207.61 133.80 208.29 133.78 209.15 Z M 133.76 210.16 L 133.75 211.05 C 133.75 211.91 134.44 212.62 135.31 212.62 C 136.17 212.63 136.87 211.93 136.88 211.07 L 136.88 210.18 C 136.89 209.31 136.19 208.61 135.33 208.61 C 134.47 208.60 133.77 209.30 133.76 210.16 Z M 133.75 211.06 L 133.75 212.12 C 133.75 212.98 134.45 213.68 135.32 213.68 C 136.18 213.68 136.88 212.98 136.88 212.12 L 136.88 211.06 C 136.88 210.20 136.18 209.50 135.32 209.50 C 134.45 209.50 133.75 210.20 133.75 211.06 Z M 133.75 212.13 L 133.76 213.26 C 133.76 214.12 134.46 214.82 135.33 214.81 C 136.19 214.81 136.89 214.11 136.88 213.24 L 136.88 212.11 C 136.87 211.25 136.17 210.56 135.31 210.56 C 134.45 210.56 133.75 211.26 133.75 212.13 Z M 133.76 213.29 L 133.78 214.05 C 133.80 214.91 134.51 215.59 135.38 215.57 C 136.24 215.55 136.92 214.83 136.90 213.97 L 136.88 213.21 C 136.86 212.35 136.15 211.67 135.28 211.69 C 134.42 211.71 133.74 212.43 133.76 213.29 Z M 136.37 215.18 L 136.49 215.08 C 137.14 214.51 137.20 213.52 136.64 212.87 C 136.07 212.22 135.08 212.16 134.43 212.73 L 134.31 212.84 C 133.66 213.40 133.60 214.39 134.16 215.04 C 134.73 215.69 135.72 215.75 136.37 215.18 Z"
      fill="black"
      fill-rule="nonzero" /><path d="M 135.14 173.15 L 135.75 173.93 C 136.29 174.61 137.27 174.73 137.95 174.20 C 138.62 173.67 138.74 172.69 138.21 172.01 L 137.60 171.22 C 137.07 170.55 136.09 170.43 135.41 170.96 C 134.73 171.49 134.61 172.47 135.14 173.15 Z M 135.85 174.04 L 136.53 174.76 C 137.12 175.38 138.11 175.41 138.74 174.81 C 139.36 174.22 139.39 173.23 138.79 172.61 L 138.12 171.89 C 137.52 171.27 136.53 171.24 135.91 171.84 C 135.28 172.43 135.26 173.42 135.85 174.04 Z M 136.76 174.95 L 137.57 175.53 C 138.27 176.03 139.24 175.87 139.74 175.17 C 140.24 174.46 140.08 173.49 139.38 172.99 L 138.57 172.41 C 137.87 171.91 136.89 172.07 136.39 172.78 C 135.89 173.48 136.05 174.45 136.76 174.95 Z M 137.89 175.71 L 138.74 176.05 C 139.54 176.37 140.45 175.98 140.77 175.18 C 141.09 174.38 140.70 173.47 139.90 173.15 L 139.05 172.81 C 138.25 172.49 137.34 172.88 137.02 173.68 C 136.70 174.48 137.09 175.39 137.89 175.71 Z M 139.00 176.13 L 139.90 176.31 C 140.74 176.49 141.57 175.95 141.75 175.10 C 141.92 174.26 141.38 173.43 140.53 173.26 L 139.63 173.07 C 138.79 172.90 137.96 173.44 137.79 174.28 C 137.61 175.13 138.16 175.95 139.00 176.13 Z M 140.06 176.34 L 141.06 176.44 C 141.92 176.52 142.69 175.90 142.77 175.04 C 142.86 174.18 142.23 173.42 141.37 173.33 L 140.37 173.23 C 139.51 173.15 138.75 173.77 138.66 174.63 C 138.58 175.49 139.20 176.25 140.06 176.34 Z M 141.16 176.44 L 142.24 176.49 C 143.10 176.52 143.83 175.85 143.86 174.99 C 143.90 174.13 143.22 173.40 142.36 173.37 L 141.28 173.32 C 140.42 173.29 139.69 173.96 139.66 174.82 C 139.62 175.68 140.29 176.41 141.16 176.44 Z M 142.28 176.49 L 143.36 176.50 C 144.22 176.52 144.93 175.83 144.95 174.97 C 144.96 174.11 144.27 173.40 143.41 173.38 L 142.32 173.37 C 141.46 173.35 140.75 174.04 140.74 174.90 C 140.73 175.77 141.42 176.48 142.28 176.49 Z M 143.37 176.51 L 144.39 176.51 C 145.25 176.52 145.95 175.83 145.96 174.97 C 145.97 174.10 145.27 173.40 144.41 173.39 L 143.40 173.38 C 142.54 173.38 141.83 174.07 141.82 174.93 C 141.82 175.79 142.51 176.50 143.37 176.51 Z M 144.39 176.51 L 145.42 176.52 C 146.28 176.52 146.98 175.83 146.98 174.97 C 146.99 174.10 146.29 173.40 145.43 173.40 L 144.41 173.39 C 143.54 173.39 142.84 174.08 142.84 174.95 C 142.83 175.81 143.53 176.51 144.39 176.51 Z M 145.42 176.52 L 146.43 176.52 C 147.30 176.52 148.00 175.83 148.00 174.96 C 148.00 174.10 147.30 173.40 146.44 173.40 L 145.43 173.40 C 144.56 173.39 143.86 174.09 143.86 174.95 C 143.86 175.82 144.56 176.52 145.42 176.52 Z M 146.44 176.52 L 147.42 176.52 C 148.28 176.52 148.98 175.82 148.98 174.96 C 148.98 174.10 148.29 173.40 147.42 173.40 L 146.44 173.40 C 145.58 173.40 144.88 174.10 144.88 174.96 C 144.88 175.82 145.57 176.52 146.44 176.52 Z M 147.42 176.52 L 148.42 176.52 C 149.28 176.52 149.98 175.82 149.98 174.96 C 149.98 174.10 149.28 173.40 148.42 173.40 L 147.42 173.40 C 146.56 173.40 145.86 174.10 145.86 174.96 C 145.86 175.82 146.56 176.52 147.42 176.52 Z M 148.42 176.52 L 149.46 176.52 C 150.32 176.52 151.02 175.82 151.02 174.96 C 151.02 174.10 150.32 173.40 149.46 173.40 L 148.42 173.40 C 147.56 173.40 146.86 174.10 146.86 174.96 C 146.86 175.82 147.56 176.52 148.42 176.52 Z M 149.46 176.52 L 150.45 176.52 C 151.31 176.52 152.01 175.82 152.01 174.96 C 152.01 174.10 151.31 173.40 150.45 173.40 L 149.46 173.40 C 148.60 173.40 147.90 174.10 147.90 174.96 C 147.90 175.82 148.60 176.52 149.46 176.52 Z M 150.45 176.52 L 151.41 176.52 C 152.28 176.52 152.97 175.82 152.97 174.96 C 152.97 174.10 152.28 173.40 151.41 173.40 L 150.45 173.40 C 149.58 173.40 148.89 174.10 148.89 174.96 C 148.89 175.82 149.58 176.52 150.45 176.52 Z M 151.41 176.52 L 152.38 176.52 C 153.24 176.52 153.94 175.82 153.94 174.96 C 153.94 174.10 153.24 173.40 152.38 173.40 L 151.41 173.40 C 150.55 173.40 149.85 174.10 149.85 174.96 C 149.85 175.82 150.55 176.52 151.41 176.52 Z M 152.38 176.52 L 153.34 176.52 C 154.21 176.52 154.90 175.82 154.90 174.96 C 154.90 174.10 154.21 173.40 153.34 173.40 L 152.38 173.40 C 151.52 173.40 150.82 174.10 150.82 174.96 C 150.82 175.82 151.52 176.52 152.38 176.52 Z M 153.34 176.52 L 154.33 176.52 C 155.19 176.52 155.89 175.82 155.89 174.96 C 155.89 174.10 155.19 173.40 154.33 173.40 L 153.34 173.40 C 152.48 173.40 151.78 174.10 151.78 174.96 C 151.78 175.82 152.48 176.52 153.34 176.52 Z M 154.33 176.52 L 155.34 176.52 C 156.21 176.52 156.91 175.82 156.91 174.96 C 156.91 174.10 156.21 173.40 155.34 173.40 L 154.33 173.40 C 153.47 173.40 152.77 174.10 152.77 174.96 C 152.77 175.82 153.47 176.52 154.33 176.52 Z M 155.34 176.52 L 156.38 176.52 C 157.24 176.52 157.94 175.82 157.94 174.96 C 157.94 174.10 157.24 173.40 156.38 173.40 L 155.34 173.40 C 154.48 173.40 153.78 174.10 153.78 174.96 C 153.78 175.82 154.48 176.52 155.34 176.52 Z M 156.38 176.52 L 157.29 176.52 C 158.16 176.52 158.86 175.82 158.86 174.96 C 158.86 174.10 158.16 173.40 157.29 173.40 L 156.38 173.40 C 155.52 173.40 154.82 174.10 154.82 174.96 C 154.82 175.82 155.52 176.52 156.38 176.52 Z M 157.30 176.52 L 158.21 176.52 C 159.07 176.52 159.77 175.82 159.77 174.96 C 159.77 174.09 159.07 173.40 158.20 173.40 L 157.29 173.40 C 156.43 173.40 155.73 174.10 155.73 174.96 C 155.73 175.83 156.44 176.52 157.30 176.52 Z M 158.21 176.52 L 159.18 176.52 C 160.04 176.51 160.73 175.81 160.73 174.95 C 160.72 174.08 160.02 173.39 159.16 173.39 L 158.20 173.40 C 157.34 173.40 156.64 174.10 156.65 174.97 C 156.65 175.83 157.35 176.52 158.21 176.52 Z M 159.18 176.52 L 160.21 176.51 C 161.07 176.50 161.77 175.79 161.76 174.93 C 161.75 174.07 161.04 173.37 160.18 173.38 L 159.15 173.39 C 158.29 173.40 157.60 174.11 157.61 174.97 C 157.61 175.83 158.32 176.52 159.18 176.52 Z M 160.22 176.51 L 161.34 176.49 C 162.20 176.48 162.89 175.77 162.87 174.90 C 162.86 174.04 162.15 173.35 161.29 173.37 L 160.17 173.38 C 159.31 173.40 158.62 174.11 158.64 174.97 C 158.65 175.83 159.36 176.52 160.22 176.51 Z M 161.35 176.49 L 162.36 176.47 C 163.22 176.45 163.90 175.74 163.89 174.87 C 163.87 174.01 163.16 173.33 162.29 173.35 L 161.28 173.37 C 160.42 173.38 159.74 174.10 159.75 174.96 C 159.77 175.82 160.48 176.51 161.35 176.49 Z M 162.36 176.47 L 163.31 176.44 C 164.17 176.42 164.85 175.71 164.83 174.85 C 164.81 173.98 164.09 173.30 163.23 173.32 L 162.29 173.35 C 161.43 173.37 160.74 174.08 160.77 174.94 C 160.79 175.81 161.50 176.49 162.36 176.47 Z M 163.31 176.44 L 164.29 176.42 C 165.16 176.40 165.84 175.68 165.81 174.82 C 165.79 173.96 165.08 173.28 164.21 173.30 L 163.23 173.32 C 162.37 173.35 161.69 174.06 161.71 174.92 C 161.73 175.79 162.45 176.47 163.31 176.44 Z M 164.29 176.42 L 165.31 176.39 C 166.17 176.37 166.85 175.65 166.83 174.79 C 166.81 173.93 166.09 173.25 165.23 173.27 L 164.21 173.30 C 163.35 173.32 162.67 174.04 162.69 174.90 C 162.72 175.76 163.43 176.44 164.29 176.42 Z M 165.31 176.39 L 166.34 176.37 C 167.20 176.34 167.88 175.63 167.86 174.77 C 167.84 173.90 167.12 173.22 166.26 173.24 L 165.23 173.27 C 164.37 173.29 163.69 174.01 163.71 174.87 C 163.73 175.73 164.45 176.41 165.31 176.39 Z M 166.34 176.37 L 167.38 176.34 C 168.24 176.32 168.92 175.60 168.90 174.74 C 168.88 173.88 168.17 173.20 167.30 173.22 L 166.26 173.24 C 165.40 173.27 164.72 173.98 164.74 174.84 C 164.76 175.71 165.48 176.39 166.34 176.37 Z M 167.37 176.34 L 168.41 176.32 C 169.27 176.30 169.95 175.59 169.93 174.72 C 169.92 173.86 169.20 173.18 168.34 173.20 L 167.31 173.22 C 166.45 173.24 165.76 173.95 165.78 174.81 C 165.80 175.68 166.51 176.36 167.37 176.34 Z M 168.40 176.32 L 169.46 176.30 C 170.33 176.29 171.01 175.57 171.00 174.71 C 170.98 173.85 170.27 173.16 169.41 173.18 L 168.35 173.20 C 167.48 173.21 166.80 173.92 166.81 174.79 C 166.83 175.65 167.54 176.33 168.40 176.32 Z M 169.46 176.30 L 170.54 176.29 C 171.40 176.28 172.09 175.57 172.08 174.71 C 172.07 173.84 171.36 173.15 170.50 173.16 L 169.42 173.18 C 168.55 173.19 167.86 173.90 167.88 174.76 C 167.89 175.62 168.60 176.31 169.46 176.30 Z M 170.53 176.29 L 171.58 176.28 C 172.45 176.27 173.14 175.56 173.13 174.70 C 173.12 173.84 172.42 173.15 171.56 173.16 L 170.51 173.16 C 169.64 173.17 168.95 173.88 168.96 174.74 C 168.97 175.60 169.67 176.29 170.53 176.29 Z M 171.58 176.28 L 172.59 176.27 C 173.46 176.27 174.15 175.56 174.15 174.70 C 174.14 173.84 173.44 173.14 172.58 173.15 L 171.56 173.16 C 170.70 173.16 170.00 173.86 170.01 174.73 C 170.01 175.59 170.72 176.28 171.58 176.28 Z M 172.59 176.27 L 173.57 176.27 C 174.43 176.27 175.12 175.57 175.12 174.70 C 175.12 173.84 174.42 173.14 173.56 173.15 L 172.58 173.15 C 171.72 173.15 171.02 173.85 171.02 174.72 C 171.03 175.58 171.73 176.27 172.59 176.27 Z M 173.56 176.27 L 174.50 176.27 C 175.36 176.27 176.06 175.57 176.06 174.70 C 176.06 173.84 175.36 173.14 174.49 173.15 L 173.56 173.15 C 172.70 173.15 172.00 173.85 172.00 174.71 C 172.00 175.57 172.70 176.27 173.56 176.27 Z M 174.50 176.27 L 175.39 176.27 C 176.25 176.27 176.95 175.57 176.95 174.71 C 176.95 173.84 176.25 173.14 175.39 173.15 L 174.50 173.15 C 173.63 173.15 172.93 173.84 172.93 174.71 C 172.93 175.57 173.63 176.27 174.50 176.27 Z M 175.39 176.27 L 176.48 176.27 C 177.34 176.27 178.04 175.57 178.04 174.71 C 178.04 173.84 177.34 173.15 176.48 173.15 L 175.39 173.15 C 174.52 173.15 173.82 173.84 173.82 174.71 C 173.82 175.57 174.52 176.27 175.39 176.27 Z M 176.48 176.27 L 177.51 176.27 C 178.38 176.27 179.07 175.57 179.07 174.71 C 179.07 173.84 178.38 173.15 177.51 173.15 L 176.48 173.15 C 175.62 173.15 174.92 173.84 174.92 174.71 C 174.92 175.57 175.62 176.27 176.48 176.27 Z M 177.51 176.27 L 178.50 176.27 C 179.36 176.27 180.06 175.57 180.06 174.71 C 180.06 173.84 179.36 173.15 178.50 173.15 L 177.51 173.15 C 176.65 173.15 175.95 173.84 175.95 174.71 C 175.95 175.57 176.65 176.27 177.51 176.27 Z M 178.50 176.27 L 179.45 176.27 C 180.31 176.27 181.01 175.57 181.01 174.71 C 181.01 173.84 180.31 173.15 179.45 173.15 L 178.50 173.15 C 177.63 173.15 176.94 173.84 176.94 174.71 C 176.94 175.57 177.63 176.27 178.50 176.27 Z M 179.45 176.27 L 180.35 176.27 C 181.22 176.27 181.91 175.57 181.91 174.71 C 181.91 173.84 181.22 173.15 180.35 173.15 L 179.45 173.15 C 178.59 173.15 177.89 173.84 177.89 174.71 C 177.89 175.57 178.59 176.27 179.45 176.27 Z"
      fill="black"
      fill-rule="nonzero" /></svg>