<svg xmlns="http://www.w3.org/2000/svg" width="300" height="300" viewBox="0 0 300 300">
<path d="M 146.00 96.38 L 145.73 97.24 C 145.47 98.07 145.92 98.94 146.75 99.20 C 147.57 99.46 148.45 99.00 148.70 98.18 L 148.98 97.32 C 149.23 96.49 148.78 95.62 147.95 95.36 C 147.13 95.10 146.25 95.56 146.00 96.38 Z M 145.73 97.24 L 145.44 98.14 C 145.19 98.96 145.64 99.84 146.47 100.09 C 147.29 100.35 148.16 99.90 148.42 99.07 L 148.70 98.18 C 148.96 97.36 148.51 96.48 147.68 96.22 C 146.86 95.96 145.98 96.42 145.73 97.24 Z M 145.45 98.14 L 145.14 99.09 C 144.88 99.91 145.34 100.79 146.16 101.05 C 146.98 101.31 147.86 100.85 148.12 100.03 L 148.42 99.08 C 148.68 98.25 148.23 97.38 147.40 97.12 C 146.58 96.86 145.71 97.31 145.45 98.14 Z M 145.14 99.09 L 144.81 100.13 C 144.55 100.96 145.00 101.83 145.83 102.09 C 146.65 102.36 147.53 101.90 147.79 101.08 L 148.12 100.03 C 148.38 99.21 147.93 98.33 147.10 98.07 C 146.28 97.81 145.41 98.27 145.14 99.09 Z M 144.81 100.13 L 144.51 101.08 C 144.25 101.90 144.70 102.78 145.52 103.05 C 146.34 103.31 147.22 102.86 147.48 102.03 L 147.79 101.08 C 148.05 100.26 147.60 99.38 146.77 99.12 C 145.95 98.86 145.07 99.31 144.81 100.13 Z M 144.51 101.08 L 144.22 102.00 C 143.95 102.82 144.40 103.70 145.22 103.96 C 146.05 104.22 146.92 103.77 147.19 102.95 L 147.48 102.04 C 147.75 101.22 147.29 100.34 146.47 100.07 C 145.65 99.81 144.77 100.26 144.51 101.08 Z M 144.22 101.99 L 143.91 102.95 C 143.64 103.77 144.09 104.65 144.91 104.91 C 145.73 105.18 146.61 104.73 146.88 103.91 L 147.19 102.95 C 147.45 102.13 147.00 101.25 146.18 100.99 C 145.36 100.72 144.48 101.17 144.22 101.99 Z M 143.91 102.95 L 143.59 103.93 C 143.32 104.75 143.77 105.63 144.59 105.89 C 145.41 106.16 146.29 105.71 146.56 104.89 L 146.88 103.91 C 147.14 103.09 146.70 102.21 145.87 101.94 C 145.05 101.68 144.17 102.13 143.91 102.95 Z M 143.59 103.93 L 143.27 104.91 C 143.00 105.73 143.45 106.61 144.27 106.88 C 145.09 107.15 145.97 106.70 146.24 105.88 L 146.56 104.89 C 146.83 104.07 146.38 103.19 145.56 102.93 C 144.74 102.66 143.86 103.11 143.59 103.93 Z M 143.27 104.91 L 142.95 105.88 C 142.68 106.70 143.13 107.58 143.95 107.85 C 144.77 108.12 145.65 107.68 145.92 106.86 L 146.24 105.88 C 146.51 105.06 146.06 104.18 145.24 103.91 C 144.42 103.64 143.54 104.09 143.27 104.91 Z M 142.95 105.88 L 142.60 106.93 C 142.33 107.75 142.78 108.63 143.60 108.90 C 144.41 109.17 145.30 108.73 145.57 107.91 L 145.92 106.86 C 146.19 106.04 145.74 105.16 144.92 104.89 C 144.11 104.62 143.22 105.06 142.95 105.88 Z M 142.61 106.92 L 142.26 107.95 C 141.99 108.77 142.43 109.65 143.25 109.93 C 144.06 110.20 144.95 109.76 145.22 108.94 L 145.57 107.91 C 145.84 107.10 145.40 106.21 144.58 105.94 C 143.76 105.66 142.88 106.11 142.61 106.92 Z M 142.26 107.95 L 141.93 108.92 C 141.66 109.74 142.10 110.62 142.91 110.90 C 143.73 111.17 144.62 110.74 144.89 109.92 L 145.22 108.95 C 145.50 108.13 145.06 107.24 144.24 106.97 C 143.42 106.69 142.54 107.13 142.26 107.95 Z M 141.94 108.92 L 141.63 109.83 C 141.35 110.64 141.78 111.53 142.60 111.81 C 143.42 112.09 144.30 111.65 144.58 110.83 L 144.89 109.92 C 145.17 109.11 144.73 108.22 143.92 107.94 C 143.10 107.66 142.21 108.10 141.94 108.92 Z M 141.63 109.82 L 141.34 110.66 C 141.06 111.48 141.49 112.36 142.31 112.64 C 143.12 112.93 144.01 112.49 144.29 111.68 L 144.58 110.84 C 144.86 110.02 144.43 109.13 143.61 108.85 C 142.80 108.57 141.91 109.01 141.63 109.82 Z M 141.34 110.65 L 141.00 111.62 C 140.72 112.43 141.15 113.32 141.96 113.61 C 142.78 113.89 143.67 113.46 143.95 112.65 L 144.29 111.68 C 144.57 110.87 144.14 109.98 143.33 109.69 C 142.51 109.41 141.62 109.84 141.34 110.65 Z M 141.01 111.61 L 140.66 112.58 C 140.37 113.39 140.80 114.28 141.61 114.57 C 142.42 114.86 143.31 114.44 143.60 113.63 L 143.95 112.66 C 144.24 111.85 143.81 110.95 143.00 110.66 C 142.19 110.37 141.30 110.80 141.01 111.61 Z M 140.67 112.57 L 140.34 113.46 C 140.04 114.27 140.46 115.16 141.27 115.46 C 142.08 115.76 142.97 115.34 143.27 114.53 L 143.60 113.64 C 143.90 112.83 143.48 111.93 142.67 111.64 C 141.86 111.34 140.96 111.76 140.67 112.57 Z M 140.35 113.44 L 140.02 114.31 C 139.71 115.12 140.11 116.02 140.92 116.32 C 141.73 116.63 142.63 116.23 142.93 115.42 L 143.26 114.55 C 143.57 113.74 143.17 112.84 142.36 112.54 C 141.55 112.23 140.65 112.64 140.35 113.44 Z M 140.02 114.30 L 139.68 115.16 C 139.37 115.97 139.76 116.87 140.57 117.19 C 141.37 117.50 142.28 117.10 142.59 116.30 L 142.93 115.43 C 143.24 114.63 142.85 113.73 142.04 113.41 C 141.24 113.10 140.34 113.49 140.02 114.30 Z M 139.68 115.16 L 139.32 116.07 C 139.01 116.87 139.40 117.78 140.20 118.10 C 141.00 118.41 141.91 118.02 142.23 117.22 L 142.59 116.31 C 142.90 115.50 142.51 114.60 141.71 114.28 C 140.91 113.96 140.00 114.36 139.68 115.16 Z M 139.32 116.08 L 138.94 117.04 C 138.63 117.84 139.03 118.75 139.83 119.06 C 140.63 119.38 141.54 118.98 141.85 118.18 L 142.23 117.21 C 142.54 116.41 142.15 115.50 141.34 115.19 C 140.54 114.88 139.64 115.27 139.32 116.08 Z M 138.94 117.05 L 138.57 118.01 C 138.27 118.81 138.67 119.72 139.48 120.02 C 140.28 120.33 141.18 119.93 141.49 119.12 L 141.86 118.17 C 142.16 117.36 141.76 116.46 140.95 116.15 C 140.15 115.84 139.25 116.25 138.94 117.05 Z M 138.57 118.02 L 138.24 118.91 C 137.93 119.72 138.34 120.62 139.15 120.92 C 139.96 121.22 140.86 120.81 141.16 120.00 L 141.49 119.11 C 141.80 118.31 141.39 117.41 140.58 117.10 C 139.77 116.80 138.87 117.21 138.57 118.02 Z M 138.24 118.91 L 137.89 119.84 C 137.59 120.65 138.00 121.55 138.81 121.85 C 139.61 122.15 140.51 121.74 140.81 120.93 L 141.16 120.00 C 141.46 119.20 141.05 118.30 140.25 117.99 C 139.44 117.69 138.54 118.10 138.24 118.91 Z M 137.89 119.83 L 137.53 120.79 C 137.22 121.60 137.63 122.50 138.44 122.81 C 139.24 123.11 140.14 122.71 140.45 121.90 L 140.81 120.94 C 141.12 120.13 140.71 119.23 139.90 118.93 C 139.10 118.62 138.20 119.03 137.89 119.83 Z M 137.53 120.78 L 137.15 121.76 C 136.84 122.57 137.24 123.47 138.04 123.79 C 138.84 124.10 139.75 123.70 140.06 122.90 L 140.44 121.91 C 140.76 121.11 140.36 120.20 139.55 119.89 C 138.75 119.58 137.85 119.98 137.53 120.78 Z M 137.16 121.75 L 136.80 122.63 C 136.48 123.43 136.87 124.34 137.67 124.66 C 138.47 124.98 139.38 124.59 139.70 123.79 L 140.05 122.91 C 140.38 122.11 139.99 121.20 139.19 120.88 C 138.39 120.56 137.48 120.95 137.16 121.75 Z M 136.81 122.61 L 136.45 123.49 C 136.12 124.29 136.50 125.20 137.29 125.53 C 138.09 125.86 139.00 125.48 139.33 124.69 L 139.70 123.81 C 140.02 123.01 139.65 122.10 138.85 121.77 C 138.05 121.44 137.14 121.82 136.81 122.61 Z M 136.45 123.49 L 136.07 124.39 C 135.74 125.19 136.11 126.10 136.90 126.44 C 137.70 126.77 138.61 126.40 138.95 125.60 L 139.33 124.69 C 139.66 123.90 139.29 122.98 138.49 122.65 C 137.70 122.32 136.78 122.69 136.45 123.49 Z M 136.07 124.39 L 135.67 125.33 C 135.34 126.12 135.71 127.04 136.50 127.37 C 137.30 127.71 138.21 127.34 138.55 126.54 L 138.95 125.60 C 139.28 124.81 138.91 123.89 138.12 123.56 C 137.32 123.22 136.41 123.59 136.07 124.39 Z M 135.67 125.33 L 135.26 126.31 C 134.92 127.11 135.29 128.02 136.09 128.36 C 136.88 128.69 137.80 128.32 138.13 127.53 L 138.55 126.54 C 138.88 125.75 138.51 124.83 137.72 124.50 C 136.92 124.16 136.01 124.53 135.67 125.33 Z M 135.26 126.31 L 134.87 127.22 C 134.54 128.02 134.91 128.93 135.71 129.27 C 136.50 129.60 137.42 129.23 137.75 128.43 L 138.13 127.52 C 138.47 126.73 138.09 125.81 137.30 125.48 C 136.50 125.15 135.59 125.52 135.26 126.31 Z M 134.87 127.23 L 134.51 128.10 C 134.17 128.90 134.55 129.81 135.34 130.15 C 136.14 130.48 137.05 130.10 137.39 129.31 L 137.75 128.43 C 138.09 127.64 137.71 126.72 136.91 126.39 C 136.12 126.06 135.20 126.43 134.87 127.23 Z M 134.50 128.11 L 134.13 129.01 C 133.80 129.81 134.17 130.72 134.97 131.05 C 135.76 131.38 136.68 131.01 137.01 130.21 L 137.39 129.31 C 137.72 128.51 137.34 127.60 136.55 127.27 C 135.75 126.93 134.84 127.31 134.50 128.11 Z M 134.13 129.01 L 133.74 129.94 C 133.41 130.74 133.78 131.65 134.58 131.98 C 135.38 132.31 136.29 131.94 136.62 131.14 L 137.01 130.21 C 137.34 129.42 136.96 128.50 136.17 128.17 C 135.37 127.84 134.46 128.22 134.13 129.01 Z M 133.74 129.94 L 133.34 130.89 C 133.01 131.68 133.39 132.60 134.18 132.93 C 134.98 133.26 135.89 132.89 136.22 132.09 L 136.62 131.14 C 136.95 130.35 136.58 129.43 135.78 129.10 C 134.99 128.77 134.07 129.14 133.74 129.94 Z M 133.35 130.88 L 132.94 131.85 C 132.61 132.64 132.98 133.56 133.77 133.89 C 134.57 134.22 135.48 133.85 135.82 133.06 L 136.22 132.09 C 136.56 131.30 136.18 130.38 135.39 130.05 C 134.59 129.72 133.68 130.09 133.35 130.88 Z M 132.94 131.84 L 132.54 132.80 C 132.20 133.59 132.57 134.51 133.37 134.84 C 134.16 135.18 135.08 134.81 135.41 134.01 L 135.82 133.06 C 136.15 132.27 135.78 131.35 134.99 131.01 C 134.19 130.68 133.28 131.05 132.94 131.84 Z M 132.54 132.79 L 132.15 133.70 C 131.81 134.49 132.18 135.41 132.97 135.75 C 133.77 136.08 134.69 135.72 135.02 134.92 L 135.41 134.02 C 135.75 133.23 135.38 132.31 134.59 131.97 C 133.80 131.63 132.88 132.00 132.54 132.79 Z M 132.16 133.69 L 131.76 134.60 C 131.42 135.39 131.78 136.31 132.58 136.65 C 133.37 137.00 134.29 136.63 134.63 135.84 L 135.02 134.93 C 135.36 134.14 135.00 133.22 134.21 132.88 C 133.42 132.54 132.50 132.90 132.16 133.69 Z M 131.77 134.59 L 131.37 135.51 C 131.02 136.30 131.38 137.22 132.17 137.56 C 132.96 137.91 133.88 137.55 134.23 136.76 L 134.63 135.85 C 134.97 135.06 134.61 134.14 133.82 133.79 C 133.03 133.44 132.11 133.80 131.77 134.59 Z M 131.37 135.50 L 130.96 136.42 C 130.61 137.21 130.97 138.13 131.76 138.48 C 132.54 138.83 133.47 138.47 133.82 137.68 L 134.22 136.77 C 134.57 135.98 134.22 135.06 133.43 134.71 C 132.64 134.36 131.72 134.71 131.37 135.50 Z M 130.97 136.41 L 130.55 137.33 C 130.20 138.11 130.55 139.04 131.33 139.39 C 132.12 139.75 133.05 139.40 133.40 138.61 L 133.81 137.69 C 134.17 136.90 133.82 135.98 133.03 135.63 C 132.24 135.27 131.32 135.62 130.97 136.41 Z M 130.56 137.32 L 130.14 138.24 C 129.78 139.02 130.12 139.95 130.90 140.31 C 131.69 140.67 132.61 140.32 132.97 139.54 L 133.40 138.62 C 133.75 137.83 133.41 136.91 132.63 136.55 C 131.84 136.19 130.92 136.53 130.56 137.32 Z M 130.14 138.23 L 129.71 139.15 C 129.35 139.93 129.69 140.86 130.47 141.22 C 131.25 141.58 132.18 141.25 132.54 140.47 L 132.97 139.55 C 133.33 138.77 133.00 137.84 132.21 137.47 C 131.43 137.11 130.50 137.45 130.14 138.23 Z M 129.72 139.14 L 129.28 140.05 C 128.91 140.83 129.25 141.76 130.02 142.13 C 130.80 142.50 131.73 142.16 132.10 141.39 L 132.54 140.48 C 132.91 139.70 132.58 138.77 131.80 138.40 C 131.02 138.03 130.09 138.36 129.72 139.14 Z M 129.29 140.04 L 128.85 140.95 C 128.47 141.72 128.80 142.66 129.58 143.03 C 130.35 143.41 131.29 143.08 131.66 142.30 L 132.10 141.40 C 132.47 140.62 132.15 139.69 131.37 139.31 C 130.60 138.94 129.66 139.26 129.29 140.04 Z M 128.85 140.94 L 128.41 141.84 C 128.03 142.62 128.35 143.55 129.12 143.93 C 129.90 144.31 130.83 143.99 131.21 143.22 L 131.66 142.31 C 132.04 141.54 131.72 140.60 130.94 140.22 C 130.17 139.84 129.23 140.16 128.85 140.94 Z M 128.41 141.83 L 127.97 142.73 C 127.58 143.50 127.90 144.44 128.67 144.83 C 129.44 145.21 130.38 144.89 130.76 144.12 L 131.21 143.22 C 131.59 142.45 131.28 141.52 130.51 141.13 C 129.74 140.75 128.80 141.06 128.41 141.83 Z M 127.97 142.72 L 127.52 143.61 C 127.13 144.38 127.44 145.32 128.21 145.71 C 128.98 146.10 129.92 145.79 130.31 145.02 L 130.76 144.13 C 131.15 143.36 130.84 142.42 130.07 142.03 C 129.30 141.65 128.36 141.95 127.97 142.72 Z M 127.53 143.61 L 127.08 144.49 C 126.69 145.26 126.99 146.20 127.76 146.59 C 128.53 146.98 129.47 146.67 129.86 145.91 L 130.31 145.03 C 130.70 144.26 130.39 143.32 129.63 142.93 C 128.86 142.53 127.92 142.84 127.53 143.61 Z M 127.08 144.48 L 126.63 145.35 C 126.24 146.12 126.54 147.06 127.30 147.46 C 128.07 147.85 129.01 147.55 129.41 146.79 L 129.86 145.91 C 130.25 145.15 129.95 144.20 129.18 143.81 C 128.42 143.41 127.48 143.71 127.08 144.48 Z M 126.63 145.35 L 126.18 146.22 C 125.78 146.99 126.08 147.93 126.84 148.33 C 127.61 148.72 128.55 148.43 128.95 147.66 L 129.40 146.79 C 129.80 146.03 129.50 145.08 128.74 144.69 C 127.97 144.29 127.03 144.58 126.63 145.35 Z M 126.18 146.22 L 125.73 147.08 C 125.33 147.85 125.62 148.79 126.38 149.19 C 127.15 149.59 128.09 149.30 128.49 148.53 L 128.95 147.67 C 129.35 146.90 129.05 145.96 128.29 145.56 C 127.53 145.16 126.58 145.45 126.18 146.22 Z M 125.73 147.08 L 125.27 147.95 C 124.87 148.71 125.16 149.66 125.92 150.06 C 126.68 150.46 127.63 150.17 128.03 149.41 L 128.49 148.54 C 128.89 147.78 128.60 146.83 127.84 146.43 C 127.07 146.03 126.13 146.32 125.73 147.08 Z M 125.27 147.95 L 124.81 148.82 C 124.40 149.59 124.69 150.53 125.45 150.93 C 126.22 151.34 127.16 151.05 127.56 150.29 L 128.03 149.41 C 128.43 148.65 128.14 147.70 127.38 147.30 C 126.62 146.89 125.67 147.18 125.27 147.95 Z M 124.81 148.82 L 124.33 149.71 C 123.93 150.48 124.22 151.42 124.98 151.83 C 125.74 152.23 126.69 151.94 127.09 151.18 L 127.56 150.29 C 127.97 149.52 127.68 148.58 126.92 148.17 C 126.15 147.77 125.21 148.06 124.81 148.82 Z M 124.33 149.72 L 123.85 150.63 C 123.45 151.39 123.74 152.34 124.50 152.74 C 125.26 153.14 126.21 152.85 126.61 152.09 L 127.09 151.18 C 127.50 150.41 127.20 149.47 126.44 149.07 C 125.68 148.66 124.74 148.95 124.33 149.72 Z M 123.85 150.63 L 123.38 151.52 C 122.98 152.28 123.27 153.23 124.03 153.63 C 124.80 154.03 125.74 153.74 126.14 152.97 L 126.61 152.09 C 127.01 151.32 126.72 150.38 125.96 149.98 C 125.20 149.58 124.25 149.87 123.85 150.63 Z M 123.38 151.52 L 122.92 152.39 C 122.52 153.15 122.82 154.09 123.58 154.50 C 124.34 154.90 125.29 154.60 125.69 153.84 L 126.14 152.97 C 126.54 152.21 126.25 151.26 125.49 150.86 C 124.72 150.46 123.78 150.76 123.38 151.52 Z M 122.92 152.39 L 122.46 153.27 C 122.06 154.04 122.36 154.98 123.12 155.38 C 123.89 155.78 124.83 155.48 125.23 154.72 L 125.69 153.84 C 126.09 153.07 125.79 152.13 125.03 151.73 C 124.27 151.33 123.32 151.63 122.92 152.39 Z M 122.46 153.28 L 122.00 154.17 C 121.60 154.94 121.90 155.88 122.66 156.28 C 123.43 156.67 124.37 156.38 124.77 155.61 L 125.23 154.72 C 125.63 153.95 125.33 153.01 124.57 152.61 C 123.80 152.21 122.86 152.51 122.46 153.28 Z M 121.99 154.18 L 121.53 155.08 C 121.13 155.84 121.43 156.79 122.20 157.18 C 122.97 157.58 123.91 157.28 124.30 156.51 L 124.77 155.61 C 125.16 154.84 124.86 153.90 124.10 153.50 C 123.33 153.11 122.39 153.41 121.99 154.18 Z M 121.53 155.08 L 121.06 155.99 C 120.67 156.75 120.97 157.69 121.74 158.09 C 122.51 158.48 123.45 158.18 123.84 157.41 L 124.31 156.50 C 124.70 155.74 124.39 154.80 123.63 154.40 C 122.86 154.01 121.92 154.31 121.53 155.08 Z M 121.06 155.99 L 120.60 156.89 C 120.21 157.66 120.52 158.60 121.29 158.99 C 122.06 159.38 123.00 159.07 123.39 158.30 L 123.85 157.40 C 124.24 156.64 123.93 155.70 123.16 155.31 C 122.39 154.91 121.45 155.22 121.06 155.99 Z M 120.60 156.90 L 120.15 157.79 C 119.77 158.56 120.08 159.50 120.85 159.88 C 121.62 160.27 122.55 159.96 122.94 159.19 L 123.39 158.30 C 123.78 157.53 123.47 156.59 122.70 156.20 C 121.93 155.82 120.99 156.13 120.60 156.90 Z M 120.15 157.79 L 119.69 158.72 C 119.30 159.49 119.62 160.43 120.39 160.82 C 121.16 161.20 122.10 160.88 122.48 160.11 L 122.95 159.19 C 123.33 158.41 123.02 157.48 122.24 157.09 C 121.47 156.71 120.53 157.02 120.15 157.79 Z M 119.68 158.73 L 119.23 159.65 C 118.85 160.42 119.17 161.36 119.95 161.74 C 120.72 162.12 121.66 161.80 122.04 161.02 L 122.49 160.11 C 122.87 159.33 122.55 158.40 121.78 158.01 C 121.00 157.63 120.06 157.95 119.68 158.73 Z M 119.23 159.65 L 118.79 160.56 C 118.41 161.33 118.73 162.27 119.51 162.65 C 120.29 163.03 121.22 162.70 121.60 161.93 L 122.04 161.02 C 122.42 160.24 122.10 159.31 121.32 158.93 C 120.54 158.55 119.61 158.87 119.23 159.65 Z M 118.78 160.56 L 118.35 161.46 C 117.98 162.24 118.30 163.17 119.08 163.55 C 119.86 163.92 120.80 163.60 121.17 162.82 L 121.60 161.92 C 121.98 161.14 121.65 160.21 120.87 159.83 C 120.09 159.46 119.16 159.78 118.78 160.56 Z M 118.35 161.46 L 117.92 162.36 C 117.55 163.14 117.88 164.07 118.66 164.44 C 119.44 164.82 120.38 164.49 120.75 163.70 L 121.18 162.81 C 121.55 162.03 121.22 161.10 120.44 160.73 C 119.66 160.35 118.72 160.68 118.35 161.46 Z M 117.92 162.36 L 117.50 163.24 C 117.13 164.03 117.46 164.96 118.25 165.33 C 119.03 165.70 119.96 165.37 120.33 164.59 L 120.75 163.70 C 121.12 162.92 120.79 161.98 120.01 161.61 C 119.22 161.24 118.29 161.58 117.92 162.36 Z M 117.50 163.25 L 117.08 164.13 C 116.71 164.92 117.05 165.85 117.84 166.22 C 118.62 166.59 119.55 166.25 119.92 165.47 L 120.34 164.58 C 120.71 163.80 120.37 162.86 119.58 162.50 C 118.80 162.13 117.87 162.46 117.50 163.25 Z M 117.08 164.14 L 116.66 165.03 C 116.29 165.82 116.63 166.75 117.42 167.12 C 118.20 167.49 119.14 167.15 119.50 166.36 L 119.92 165.46 C 120.29 164.68 119.95 163.74 119.17 163.38 C 118.38 163.01 117.45 163.35 117.08 164.14 Z M 116.66 165.04 L 116.24 165.95 C 115.87 166.73 116.22 167.66 117.00 168.03 C 117.79 168.39 118.72 168.05 119.09 167.26 L 119.51 166.36 C 119.87 165.57 119.53 164.64 118.74 164.27 C 117.96 163.91 117.02 164.25 116.66 165.04 Z M 116.24 165.95 L 115.82 166.86 C 115.46 167.65 115.80 168.58 116.59 168.94 C 117.38 169.30 118.31 168.95 118.67 168.17 L 119.09 167.26 C 119.45 166.47 119.10 165.54 118.32 165.18 C 117.53 164.82 116.60 165.16 116.24 165.95 Z M 115.82 166.87 L 115.41 167.78 C 115.05 168.57 115.40 169.50 116.19 169.85 C 116.98 170.21 117.91 169.86 118.26 169.07 L 118.67 168.16 C 119.03 167.37 118.68 166.44 117.89 166.08 C 117.10 165.73 116.17 166.08 115.82 166.87 Z M 115.40 167.79 L 115.00 168.70 C 114.64 169.49 115.00 170.42 115.79 170.77 C 116.58 171.12 117.51 170.77 117.86 169.97 L 118.27 169.06 C 118.62 168.27 118.26 167.34 117.47 166.99 C 116.68 166.64 115.75 167.00 115.40 167.79 Z M 114.99 168.71 L 114.59 169.63 C 114.24 170.42 114.61 171.34 115.40 171.69 C 116.19 172.04 117.12 171.67 117.46 170.88 L 117.86 169.96 C 118.21 169.17 117.85 168.25 117.05 167.90 C 116.26 167.55 115.34 167.92 114.99 168.71 Z M 114.59 169.64 L 114.19 170.56 C 113.85 171.36 114.22 172.28 115.02 172.62 C 115.82 172.96 116.74 172.59 117.08 171.79 L 117.47 170.87 C 117.81 170.07 117.44 169.15 116.64 168.81 C 115.85 168.47 114.93 168.84 114.59 169.64 Z M 114.19 170.57 L 113.80 171.50 C 113.47 172.30 113.85 173.22 114.65 173.55 C 115.45 173.88 116.36 173.50 116.70 172.70 L 117.08 171.78 C 117.41 170.98 117.04 170.06 116.24 169.73 C 115.44 169.40 114.52 169.78 114.19 170.57 Z M 113.80 171.51 L 113.42 172.44 C 113.09 173.25 113.48 174.16 114.28 174.49 C 115.08 174.81 116.00 174.42 116.32 173.62 L 116.70 172.69 C 117.03 171.89 116.64 170.98 115.84 170.65 C 115.04 170.33 114.12 170.71 113.80 171.51 Z M 113.41 172.46 L 113.04 173.39 C 112.72 174.19 113.12 175.11 113.92 175.42 C 114.73 175.74 115.64 175.35 115.96 174.55 L 116.33 173.61 C 116.65 172.81 116.25 171.90 115.45 171.58 C 114.64 171.26 113.73 171.65 113.41 172.46 Z M 113.04 173.40 L 112.68 174.33 C 112.36 175.14 112.76 176.05 113.57 176.36 C 114.38 176.68 115.29 176.28 115.60 175.47 L 115.96 174.54 C 116.28 173.73 115.88 172.82 115.07 172.51 C 114.26 172.19 113.35 172.59 113.04 173.40 Z M 112.67 174.34 L 112.31 175.28 C 112.01 176.09 112.41 176.99 113.22 177.30 C 114.03 177.61 114.94 177.21 115.25 176.40 L 115.60 175.46 C 115.91 174.65 115.51 173.75 114.70 173.44 C 113.89 173.13 112.98 173.53 112.67 174.34 Z M 112.31 175.28 L 111.96 176.22 C 111.66 177.03 112.07 177.93 112.88 178.24 C 113.69 178.54 114.60 178.13 114.90 177.32 L 115.25 176.39 C 115.56 175.58 115.14 174.67 114.33 174.37 C 113.52 174.06 112.62 174.47 112.31 175.28 Z M 111.96 176.22 L 111.61 177.15 C 111.31 177.97 111.73 178.87 112.54 179.17 C 113.35 179.47 114.26 179.06 114.56 178.25 L 114.90 177.32 C 115.20 176.50 114.79 175.60 113.98 175.30 C 113.16 175.00 112.26 175.41 111.96 176.22 Z M 111.61 177.16 L 111.26 178.13 C 110.96 178.94 111.38 179.84 112.19 180.14 C 113.00 180.44 113.91 180.02 114.21 179.21 L 114.56 178.24 C 114.86 177.43 114.44 176.52 113.63 176.22 C 112.81 175.93 111.91 176.34 111.61 177.16 Z M 111.26 178.13 L 110.90 179.11 C 110.61 179.92 111.03 180.82 111.84 181.12 C 112.66 181.41 113.56 180.99 113.85 180.18 L 114.21 179.20 C 114.50 178.39 114.08 177.49 113.27 177.19 C 112.45 176.90 111.55 177.32 111.26 178.13 Z M 110.90 179.11 L 110.55 180.08 C 110.26 180.89 110.69 181.79 111.50 182.08 C 112.32 182.38 113.21 181.95 113.51 181.14 L 113.85 180.17 C 114.15 179.36 113.72 178.46 112.91 178.17 C 112.09 177.87 111.19 178.30 110.90 179.11 Z M 110.55 180.08 L 110.22 181.03 C 109.93 181.85 110.36 182.75 111.17 183.03 C 111.99 183.32 112.88 182.90 113.17 182.08 L 113.51 181.13 C 113.80 180.31 113.37 179.42 112.55 179.13 C 111.74 178.84 110.84 179.27 110.55 180.08 Z M 110.22 181.04 L 109.89 181.97 C 109.61 182.79 110.04 183.68 110.85 183.97 C 111.67 184.25 112.56 183.82 112.85 183.01 L 113.17 182.07 C 113.46 181.26 113.03 180.36 112.21 180.08 C 111.39 179.79 110.50 180.23 110.22 181.04 Z M 109.89 181.98 L 109.58 182.89 C 109.30 183.71 109.73 184.60 110.55 184.88 C 111.36 185.16 112.25 184.73 112.53 183.91 L 112.85 183.00 C 113.13 182.18 112.69 181.29 111.88 181.01 C 111.06 180.73 110.17 181.16 109.89 181.98 Z M 109.57 182.90 L 109.27 183.80 C 108.99 184.62 109.43 185.51 110.25 185.78 C 111.07 186.06 111.96 185.62 112.23 184.80 L 112.54 183.90 C 112.81 183.08 112.37 182.20 111.56 181.92 C 110.74 181.64 109.85 182.08 109.57 182.90 Z M 109.27 183.81 L 108.94 184.81 C 108.67 185.63 109.11 186.51 109.93 186.78 C 110.75 187.05 111.63 186.61 111.90 185.79 L 112.23 184.79 C 112.50 183.97 112.06 183.09 111.24 182.82 C 110.42 182.55 109.54 182.99 109.27 183.81 Z M 108.94 184.82 L 108.62 185.78 C 108.36 186.60 108.80 187.48 109.62 187.75 C 110.44 188.02 111.33 187.57 111.59 186.75 L 111.91 185.78 C 112.17 184.96 111.73 184.08 110.90 183.81 C 110.08 183.55 109.20 184.00 108.94 184.82 Z M 108.62 185.79 L 108.32 186.73 C 108.05 187.55 108.50 188.43 109.32 188.70 C 110.14 188.96 111.02 188.51 111.29 187.69 L 111.59 186.75 C 111.86 185.92 111.41 185.04 110.59 184.78 C 109.77 184.52 108.89 184.97 108.62 185.79 Z M 108.32 186.73 L 108.02 187.66 C 107.75 188.48 108.20 189.36 109.02 189.63 C 109.84 189.89 110.72 189.44 110.99 188.62 L 111.29 187.69 C 111.55 186.87 111.10 185.99 110.28 185.73 C 109.46 185.46 108.58 185.91 108.32 186.73 Z M 108.02 187.66 L 107.72 188.58 C 107.45 189.40 107.90 190.28 108.72 190.55 C 109.54 190.82 110.42 190.37 110.69 189.55 L 110.99 188.62 C 111.25 187.80 110.81 186.92 109.99 186.66 C 109.17 186.39 108.28 186.84 108.02 187.66 Z M 107.72 188.57 L 107.41 189.51 C 107.14 190.33 107.58 191.21 108.40 191.48 C 109.22 191.76 110.10 191.31 110.37 190.49 L 110.68 189.56 C 110.96 188.74 110.51 187.85 109.69 187.58 C 108.87 187.31 107.99 187.76 107.72 188.57 Z M 107.41 189.50 L 107.09 190.46 C 106.82 191.28 107.25 192.16 108.07 192.44 C 108.89 192.71 109.77 192.28 110.05 191.46 L 110.37 190.50 C 110.65 189.68 110.21 188.80 109.39 188.52 C 108.57 188.25 107.69 188.69 107.41 189.50 Z M 107.09 190.46 L 106.77 191.41 C 106.49 192.23 106.92 193.11 107.74 193.39 C 108.56 193.67 109.44 193.24 109.72 192.42 L 110.05 191.46 C 110.33 190.65 109.89 189.76 109.07 189.48 C 108.26 189.20 107.37 189.64 107.09 190.46 Z M 106.77 191.41 L 106.44 192.36 C 106.16 193.17 106.59 194.06 107.41 194.34 C 108.23 194.62 109.11 194.19 109.39 193.37 L 109.72 192.42 C 110.00 191.61 109.57 190.72 108.75 190.44 C 107.94 190.16 107.05 190.59 106.77 191.41 Z M 106.44 192.36 L 106.12 193.30 C 105.84 194.11 106.27 195.00 107.09 195.28 C 107.90 195.56 108.79 195.13 109.07 194.31 L 109.39 193.37 C 109.67 192.56 109.24 191.67 108.43 191.39 C 107.61 191.11 106.72 191.54 106.44 192.36 Z M 106.12 193.30 L 105.80 194.23 C 105.52 195.04 105.96 195.93 106.77 196.21 C 107.59 196.49 108.47 196.05 108.75 195.24 L 109.07 194.31 C 109.35 193.50 108.92 192.61 108.10 192.33 C 107.28 192.05 106.40 192.48 106.12 193.30 Z M 105.80 194.23 L 105.46 195.22 C 105.19 196.04 105.62 196.92 106.44 197.20 C 107.26 197.48 108.14 197.04 108.42 196.22 L 108.76 195.23 C 109.03 194.42 108.59 193.53 107.78 193.25 C 106.96 192.98 106.07 193.41 105.80 194.23 Z M 105.46 195.22 L 105.14 196.19 C 104.86 197.01 105.30 197.90 106.12 198.17 C 106.94 198.45 107.82 198.01 108.10 197.19 L 108.42 196.22 C 108.70 195.40 108.26 194.52 107.44 194.24 C 106.62 193.97 105.74 194.41 105.46 195.22 Z M 105.13 196.20 L 104.82 197.14 C 104.54 197.96 104.99 198.85 105.80 199.12 C 106.62 199.39 107.51 198.95 107.78 198.13 L 108.10 197.19 C 108.37 196.37 107.93 195.48 107.11 195.21 C 106.29 194.94 105.41 195.38 105.13 196.20 Z M 104.82 197.15 L 104.51 198.07 C 104.24 198.89 104.68 199.77 105.49 200.05 C 106.31 200.32 107.20 199.88 107.47 199.06 L 107.78 198.13 C 108.05 197.32 107.61 196.43 106.79 196.16 C 105.98 195.89 105.09 196.33 104.82 197.15 Z M 104.51 198.07 L 104.21 198.98 C 103.93 199.79 104.37 200.68 105.19 200.95 C 106.01 201.23 106.89 200.79 107.17 199.97 L 107.47 199.06 C 107.74 198.25 107.30 197.36 106.49 197.09 C 105.67 196.81 104.78 197.25 104.51 198.07 Z M 104.21 198.97 L 103.87 199.96 C 103.59 200.78 104.03 201.67 104.85 201.94 C 105.67 202.22 106.55 201.78 106.83 200.97 L 107.16 199.97 C 107.44 199.16 107.00 198.27 106.19 197.99 C 105.37 197.72 104.48 198.16 104.21 198.97 Z M 103.87 199.96 L 103.54 200.93 C 103.26 201.74 103.70 202.63 104.51 202.91 C 105.33 203.19 106.22 202.75 106.50 201.94 L 106.83 200.97 C 107.11 200.15 106.67 199.27 105.85 198.99 C 105.04 198.71 104.15 199.14 103.87 199.96 Z M 103.54 200.92 L 103.22 201.86 C 102.94 202.68 103.37 203.57 104.18 203.85 C 105.00 204.13 105.89 203.70 106.17 202.88 L 106.49 201.94 C 106.78 201.13 106.34 200.24 105.53 199.96 C 104.71 199.68 103.82 200.11 103.54 200.92 Z M 103.22 201.86 L 102.90 202.77 C 102.62 203.58 103.05 204.47 103.86 204.76 C 104.67 205.04 105.56 204.61 105.85 203.80 L 106.17 202.89 C 106.45 202.07 106.02 201.18 105.21 200.90 C 104.40 200.61 103.50 201.04 103.22 201.86 Z M 102.90 202.76 L 102.57 203.70 C 102.28 204.51 102.71 205.40 103.52 205.69 C 104.33 205.98 105.23 205.55 105.51 204.74 L 105.85 203.80 C 106.13 202.99 105.71 202.10 104.90 201.81 C 104.08 201.52 103.19 201.95 102.90 202.76 Z M 102.57 203.69 L 102.23 204.65 C 101.94 205.47 102.36 206.36 103.17 206.65 C 103.98 206.94 104.88 206.52 105.17 205.71 L 105.51 204.75 C 105.80 203.93 105.38 203.04 104.57 202.75 C 103.76 202.46 102.86 202.88 102.57 203.69 Z M 102.23 204.65 L 101.89 205.59 C 101.60 206.40 102.02 207.29 102.84 207.58 C 103.65 207.88 104.54 207.45 104.83 206.64 L 105.17 205.71 C 105.46 204.90 105.04 204.00 104.23 203.71 C 103.42 203.42 102.52 203.84 102.23 204.65 Z M 101.89 205.59 L 101.57 206.51 C 101.28 207.32 101.70 208.21 102.51 208.50 C 103.32 208.79 104.22 208.37 104.51 207.56 L 104.83 206.64 C 105.12 205.83 104.70 204.93 103.89 204.64 C 103.08 204.35 102.18 204.78 101.89 205.59 Z M 101.56 206.52 L 101.23 207.46 C 100.95 208.28 101.37 209.17 102.19 209.45 C 103.00 209.74 103.89 209.31 104.18 208.50 L 104.51 207.55 C 104.79 206.74 104.37 205.85 103.55 205.56 C 102.74 205.27 101.85 205.70 101.56 206.52 Z M 101.23 207.47 L 100.90 208.43 C 100.61 209.24 101.04 210.13 101.86 210.41 C 102.67 210.70 103.56 210.27 103.85 209.45 L 104.18 208.49 C 104.46 207.68 104.03 206.79 103.22 206.50 C 102.40 206.22 101.51 206.65 101.23 207.47 Z M 100.90 208.43 L 100.57 209.37 C 100.28 210.18 100.71 211.07 101.53 211.36 C 102.34 211.64 103.23 211.21 103.52 210.40 L 103.85 209.45 C 104.13 208.64 103.70 207.75 102.88 207.46 C 102.07 207.18 101.18 207.61 100.90 208.43 Z M 100.57 209.36 L 100.25 210.28 C 99.96 211.09 100.38 211.98 101.19 212.27 C 102.00 212.56 102.90 212.14 103.19 211.32 L 103.51 210.41 C 103.80 209.59 103.38 208.70 102.57 208.41 C 101.75 208.12 100.86 208.55 100.57 209.36 Z M 100.25 210.26 L 99.90 211.20 C 99.61 212.01 100.02 212.91 100.83 213.21 C 101.64 213.50 102.54 213.09 102.83 212.28 L 103.18 211.34 C 103.48 210.53 103.07 209.63 102.26 209.34 C 101.45 209.04 100.55 209.45 100.25 210.26 Z M 99.91 211.19 L 99.56 212.12 C 99.25 212.92 99.66 213.82 100.47 214.13 C 101.28 214.43 102.18 214.03 102.48 213.22 L 102.83 212.29 C 103.13 211.48 102.73 210.58 101.92 210.28 C 101.11 209.98 100.21 210.38 99.91 211.19 Z M 99.56 212.12 L 99.21 213.05 C 98.91 213.86 99.31 214.76 100.12 215.06 C 100.93 215.36 101.83 214.95 102.13 214.15 L 102.48 213.22 C 102.78 212.41 102.38 211.51 101.57 211.21 C 100.76 210.90 99.86 211.31 99.56 212.12 Z M 99.20 213.06 L 98.87 213.97 C 98.58 214.78 99.00 215.67 99.81 215.97 C 100.62 216.26 101.51 215.84 101.81 215.03 L 102.14 214.13 C 102.43 213.32 102.01 212.43 101.20 212.13 C 100.39 211.84 99.50 212.25 99.20 213.06 Z M 98.87 213.98 L 98.56 214.85 C 98.27 215.67 98.70 216.56 99.51 216.85 C 100.33 217.13 101.22 216.71 101.51 215.89 L 101.81 215.02 C 102.10 214.21 101.67 213.31 100.86 213.03 C 100.05 212.74 99.16 213.17 98.87 213.98 Z M 98.56 214.86 L 98.24 215.80 C 97.95 216.61 98.39 217.50 99.20 217.78 C 100.01 218.06 100.90 217.63 101.19 216.82 L 101.51 215.88 C 101.79 215.07 101.36 214.18 100.54 213.90 C 99.73 213.62 98.84 214.05 98.56 214.86 Z M 98.23 215.80 L 97.89 216.80 C 97.61 217.62 98.04 218.51 98.86 218.79 C 99.67 219.07 100.56 218.64 100.84 217.82 L 101.19 216.81 C 101.47 216.00 101.03 215.11 100.22 214.83 C 99.40 214.55 98.52 214.98 98.23 215.80 Z M 97.89 216.80 L 97.55 217.79 C 97.26 218.61 97.70 219.49 98.51 219.78 C 99.33 220.06 100.21 219.63 100.50 218.81 L 100.84 217.82 C 101.12 217.01 100.69 216.12 99.87 215.84 C 99.06 215.56 98.17 215.99 97.89 216.80 Z M 97.55 217.79 L 97.22 218.72 C 96.94 219.54 97.37 220.43 98.18 220.71 C 98.99 221.00 99.88 220.57 100.17 219.75 L 100.50 218.82 C 100.78 218.00 100.35 217.11 99.54 216.83 C 98.72 216.54 97.83 216.97 97.55 217.79 Z M 97.22 218.72 L 96.88 219.68 C 96.60 220.50 97.03 221.39 97.84 221.67 C 98.65 221.96 99.54 221.53 99.83 220.72 L 100.17 219.75 C 100.45 218.94 100.03 218.05 99.21 217.76 C 98.40 217.48 97.51 217.91 97.22 218.72 Z M 96.88 219.68 L 96.54 220.65 C 96.26 221.46 96.68 222.35 97.50 222.64 C 98.31 222.93 99.20 222.50 99.49 221.69 L 99.83 220.72 C 100.12 219.91 99.69 219.02 98.88 218.73 C 98.06 218.44 97.17 218.87 96.88 219.68 Z M 96.54 220.64 L 96.21 221.59 C 95.92 222.40 96.35 223.29 97.16 223.58 C 97.97 223.87 98.86 223.45 99.15 222.63 L 99.49 221.69 C 99.77 220.88 99.35 219.98 98.54 219.70 C 97.73 219.41 96.83 219.83 96.54 220.64 Z M 96.21 221.59 L 95.85 222.59 C 95.56 223.40 95.99 224.29 96.80 224.58 C 97.61 224.87 98.50 224.45 98.79 223.64 L 99.15 222.64 C 99.44 221.82 99.02 220.93 98.21 220.64 C 97.39 220.35 96.50 220.77 96.21 221.59 Z M 95.85 222.58 L 95.49 223.59 C 95.20 224.40 95.62 225.30 96.44 225.59 C 97.25 225.88 98.14 225.46 98.43 224.64 L 98.79 223.64 C 99.08 222.83 98.66 221.93 97.85 221.64 C 97.04 221.35 96.14 221.77 95.85 222.58 Z M 95.49 223.59 L 95.16 224.53 C 94.87 225.34 95.29 226.23 96.11 226.52 C 96.92 226.81 97.81 226.39 98.10 225.58 L 98.43 224.64 C 98.72 223.83 98.30 222.94 97.49 222.65 C 96.67 222.36 95.78 222.78 95.49 223.59 Z M 95.16 224.54 L 94.85 225.41 C 94.57 226.22 94.99 227.11 95.81 227.40 C 96.62 227.68 97.51 227.25 97.80 226.44 L 98.10 225.57 C 98.39 224.76 97.96 223.87 97.15 223.58 C 96.33 223.29 95.44 223.72 95.16 224.54 Z M 94.85 225.42 L 94.53 226.34 C 94.25 227.16 94.69 228.05 95.51 228.32 C 96.32 228.60 97.21 228.17 97.49 227.35 L 97.80 226.43 C 98.08 225.61 97.64 224.72 96.83 224.45 C 96.01 224.17 95.12 224.60 94.85 225.42 Z M 94.53 226.36 L 94.21 227.33 C 93.94 228.15 94.39 229.03 95.20 229.30 C 96.02 229.57 96.91 229.12 97.17 228.30 L 97.49 227.33 C 97.76 226.51 97.32 225.63 96.50 225.36 C 95.68 225.09 94.79 225.54 94.53 226.36 Z M 94.20 227.34 L 93.91 228.27 C 93.65 229.09 94.10 229.97 94.92 230.23 C 95.74 230.49 96.62 230.04 96.88 229.22 L 97.18 228.29 C 97.44 227.47 96.99 226.59 96.17 226.33 C 95.34 226.07 94.47 226.52 94.20 227.34 Z M 93.91 228.28 L 93.71 228.91 C 93.45 229.73 93.91 230.61 94.73 230.87 C 95.55 231.12 96.43 230.67 96.69 229.84 L 96.89 229.21 C 97.14 228.39 96.69 227.51 95.86 227.26 C 95.04 227.00 94.17 227.45 93.91 228.28 Z"
      fill="black"
      fill-rule="nonzero" /><path d="M 148.66 102.24 L 148.97 103.21 C 149.24 104.03 150.12 104.48 150.94 104.22 C 151.76 103.96 152.21 103.08 151.94 102.26 L 151.63 101.28 C 151.37 100.46 150.49 100.01 149.67 100.28 C 148.85 100.54 148.40 101.42 148.66 102.24 Z M 148.98 103.23 L 149.30 104.19 C 149.57 105.01 150.45 105.45 151.27 105.18 C 152.09 104.90 152.53 104.02 152.26 103.20 L 151.94 102.24 C 151.67 101.42 150.78 100.98 149.97 101.25 C 149.15 101.52 148.70 102.41 148.98 103.23 Z M 149.31 104.22 L 149.64 105.16 C 149.93 105.97 150.83 106.39 151.64 106.11 C 152.45 105.82 152.87 104.92 152.58 104.11 L 152.25 103.17 C 151.96 102.36 151.07 101.93 150.25 102.22 C 149.44 102.51 149.02 103.41 149.31 104.22 Z M 149.66 105.21 L 150.02 106.11 C 150.33 106.92 151.24 107.31 152.04 107.00 C 152.84 106.68 153.24 105.77 152.92 104.97 L 152.57 104.06 C 152.25 103.26 151.35 102.87 150.54 103.18 C 149.74 103.50 149.35 104.40 149.66 105.21 Z M 150.04 106.18 L 150.45 107.08 C 150.80 107.87 151.72 108.23 152.51 107.88 C 153.30 107.53 153.65 106.60 153.30 105.81 L 152.90 104.91 C 152.55 104.12 151.62 103.77 150.84 104.12 C 150.05 104.47 149.69 105.39 150.04 106.18 Z M 150.47 107.14 L 150.91 108.03 C 151.29 108.80 152.23 109.12 153.00 108.73 C 153.78 108.35 154.09 107.41 153.71 106.64 L 153.27 105.76 C 152.89 104.98 151.95 104.67 151.18 105.05 C 150.41 105.43 150.09 106.37 150.47 107.14 Z M 150.93 108.06 L 151.40 108.94 C 151.80 109.70 152.74 109.99 153.51 109.59 C 154.27 109.19 154.56 108.24 154.15 107.48 L 153.69 106.60 C 153.29 105.84 152.34 105.55 151.58 105.95 C 150.82 106.36 150.53 107.30 150.93 108.06 Z M 151.40 108.96 L 151.89 109.85 C 152.30 110.60 153.25 110.88 154.01 110.47 C 154.77 110.06 155.04 109.11 154.63 108.35 L 154.15 107.46 C 153.73 106.71 152.78 106.43 152.03 106.84 C 151.27 107.25 150.99 108.20 151.40 108.96 Z M 151.89 109.85 L 152.38 110.74 C 152.79 111.50 153.74 111.78 154.49 111.37 C 155.25 110.96 155.53 110.01 155.12 109.25 L 154.63 108.35 C 154.22 107.60 153.27 107.32 152.52 107.73 C 151.76 108.14 151.48 109.09 151.89 109.85 Z M 152.37 110.74 L 152.86 111.64 C 153.27 112.40 154.22 112.69 154.98 112.28 C 155.74 111.87 156.02 110.92 155.61 110.16 L 155.12 109.26 C 154.71 108.50 153.77 108.21 153.01 108.62 C 152.25 109.03 151.96 109.98 152.37 110.74 Z M 152.86 111.64 L 153.34 112.53 C 153.75 113.29 154.70 113.58 155.45 113.17 C 156.21 112.76 156.50 111.82 156.09 111.06 L 155.61 110.16 C 155.20 109.40 154.26 109.12 153.50 109.53 C 152.74 109.93 152.45 110.88 152.86 111.64 Z M 153.34 112.53 L 153.80 113.39 C 154.21 114.15 155.15 114.43 155.91 114.02 C 156.67 113.62 156.96 112.67 156.55 111.91 L 156.09 111.06 C 155.68 110.30 154.74 110.01 153.98 110.42 C 153.22 110.83 152.93 111.77 153.34 112.53 Z M 153.80 113.39 L 154.25 114.23 C 154.66 114.99 155.61 115.27 156.37 114.86 C 157.13 114.45 157.41 113.50 157.00 112.74 L 156.55 111.91 C 156.14 111.15 155.19 110.87 154.43 111.28 C 153.67 111.69 153.39 112.63 153.80 113.39 Z M 154.26 114.23 L 154.70 115.05 C 155.11 115.81 156.06 116.09 156.82 115.68 C 157.58 115.26 157.86 114.32 157.44 113.56 L 157.00 112.74 C 156.59 111.98 155.64 111.70 154.88 112.11 C 154.12 112.53 153.84 113.47 154.26 114.23 Z M 154.70 115.05 L 155.17 115.91 C 155.58 116.66 156.53 116.94 157.28 116.53 C 158.04 116.12 158.32 115.17 157.91 114.41 L 157.44 113.56 C 157.03 112.80 156.08 112.52 155.33 112.93 C 154.57 113.35 154.29 114.30 154.70 115.05 Z M 155.17 115.90 L 155.69 116.87 C 156.10 117.62 157.05 117.90 157.81 117.49 C 158.56 117.08 158.84 116.13 158.43 115.38 L 157.91 114.41 C 157.50 113.66 156.55 113.38 155.79 113.79 C 155.03 114.20 154.75 115.15 155.17 115.90 Z M 155.69 116.86 L 156.14 117.70 C 156.55 118.46 157.50 118.74 158.26 118.33 C 159.02 117.92 159.30 116.98 158.89 116.22 L 158.43 115.38 C 158.02 114.62 157.08 114.34 156.32 114.75 C 155.56 115.16 155.28 116.11 155.69 116.86 Z M 156.14 117.70 L 156.61 118.58 C 157.02 119.34 157.97 119.62 158.73 119.21 C 159.49 118.80 159.77 117.86 159.36 117.10 L 158.89 116.22 C 158.48 115.46 157.53 115.18 156.77 115.59 C 156.02 116.00 155.73 116.94 156.14 117.70 Z M 156.61 118.58 L 157.10 119.49 C 157.51 120.25 158.46 120.53 159.22 120.13 C 159.98 119.72 160.26 118.77 159.85 118.01 L 159.36 117.10 C 158.95 116.34 158.01 116.05 157.25 116.46 C 156.49 116.87 156.20 117.82 156.61 118.58 Z M 157.10 119.49 L 157.60 120.41 C 158.00 121.17 158.95 121.45 159.71 121.05 C 160.47 120.64 160.76 119.69 160.35 118.93 L 159.86 118.01 C 159.45 117.25 158.50 116.97 157.74 117.38 C 156.98 117.78 156.70 118.73 157.10 119.49 Z M 157.60 120.41 L 158.07 121.29 C 158.48 122.05 159.42 122.34 160.18 121.93 C 160.94 121.53 161.23 120.58 160.82 119.82 L 160.35 118.93 C 159.94 118.17 159.00 117.89 158.24 118.29 C 157.48 118.70 157.19 119.65 157.60 120.41 Z M 158.07 121.29 L 158.57 122.24 C 158.98 123.00 159.92 123.29 160.68 122.88 C 161.44 122.48 161.73 121.53 161.33 120.77 L 160.82 119.82 C 160.42 119.06 159.47 118.77 158.71 119.18 C 157.95 119.58 157.66 120.53 158.07 121.29 Z M 158.57 122.23 L 159.06 123.16 C 159.46 123.92 160.41 124.21 161.17 123.81 C 161.93 123.41 162.22 122.46 161.82 121.70 L 161.33 120.77 C 160.93 120.01 159.98 119.72 159.22 120.12 C 158.46 120.53 158.17 121.47 158.57 122.23 Z M 159.06 123.15 L 159.51 124.02 C 159.91 124.78 160.85 125.07 161.62 124.67 C 162.38 124.27 162.67 123.33 162.27 122.57 L 161.82 121.70 C 161.42 120.94 160.48 120.65 159.71 121.05 C 158.95 121.45 158.66 122.39 159.06 123.15 Z M 159.51 124.01 L 159.94 124.84 C 160.33 125.61 161.28 125.90 162.04 125.51 C 162.81 125.11 163.10 124.17 162.71 123.40 L 162.28 122.57 C 161.88 121.81 160.94 121.51 160.17 121.90 C 159.41 122.30 159.11 123.24 159.51 124.01 Z M 159.93 124.83 L 160.36 125.66 C 160.75 126.43 161.69 126.73 162.46 126.34 C 163.23 125.94 163.53 125.00 163.14 124.23 L 162.71 123.41 C 162.32 122.64 161.38 122.34 160.61 122.73 C 159.84 123.13 159.54 124.07 159.93 124.83 Z M 160.35 125.65 L 160.78 126.50 C 161.17 127.27 162.11 127.57 162.88 127.18 C 163.65 126.79 163.96 125.85 163.57 125.08 L 163.14 124.24 C 162.75 123.47 161.81 123.16 161.04 123.55 C 160.27 123.95 159.96 124.89 160.35 125.65 Z M 160.78 126.49 L 161.22 127.37 C 161.60 128.14 162.54 128.45 163.31 128.07 C 164.08 127.68 164.40 126.74 164.01 125.97 L 163.57 125.09 C 163.19 124.32 162.25 124.01 161.48 124.39 C 160.71 124.78 160.39 125.72 160.78 126.49 Z M 161.21 127.36 L 161.66 128.28 C 162.04 129.06 162.98 129.38 163.75 129.00 C 164.53 128.62 164.85 127.68 164.47 126.91 L 164.02 125.98 C 163.64 125.21 162.70 124.89 161.93 125.27 C 161.15 125.65 160.83 126.58 161.21 127.36 Z M 161.66 128.27 L 162.12 129.22 C 162.49 130.00 163.42 130.33 164.20 129.96 C 164.98 129.58 165.30 128.65 164.93 127.88 L 164.48 126.92 C 164.10 126.14 163.17 125.81 162.39 126.19 C 161.62 126.56 161.29 127.49 161.66 128.27 Z M 162.11 129.21 L 162.50 130.05 C 162.87 130.83 163.80 131.17 164.58 130.80 C 165.36 130.44 165.70 129.51 165.33 128.73 L 164.94 127.89 C 164.57 127.11 163.64 126.77 162.86 127.14 C 162.08 127.50 161.74 128.43 162.11 129.21 Z M 162.50 130.04 L 162.90 130.92 C 163.26 131.70 164.19 132.04 164.97 131.69 C 165.75 131.33 166.10 130.40 165.74 129.62 L 165.34 128.74 C 164.98 127.95 164.05 127.61 163.27 127.97 C 162.48 128.33 162.14 129.26 162.50 130.04 Z M 162.90 130.91 L 163.31 131.82 C 163.66 132.61 164.58 132.96 165.37 132.61 C 166.16 132.25 166.51 131.33 166.16 130.54 L 165.74 129.63 C 165.39 128.84 164.47 128.49 163.68 128.84 C 162.89 129.20 162.54 130.12 162.90 130.91 Z M 163.30 131.81 L 163.72 132.76 C 164.07 133.55 164.99 133.91 165.78 133.56 C 166.57 133.21 166.93 132.29 166.58 131.50 L 166.16 130.55 C 165.81 129.76 164.89 129.41 164.10 129.75 C 163.31 130.10 162.96 131.02 163.30 131.81 Z M 163.71 132.75 L 164.14 133.73 C 164.48 134.52 165.39 134.89 166.19 134.55 C 166.98 134.21 167.35 133.29 167.00 132.49 L 166.58 131.51 C 166.24 130.72 165.32 130.36 164.53 130.70 C 163.74 131.04 163.37 131.96 163.71 132.75 Z M 164.13 133.72 L 164.52 134.63 C 164.85 135.42 165.76 135.80 166.56 135.46 C 167.35 135.13 167.73 134.21 167.39 133.42 L 167.01 132.51 C 166.68 131.71 165.76 131.34 164.97 131.67 C 164.17 132.01 163.80 132.92 164.13 133.72 Z M 164.51 134.62 L 164.89 135.53 C 165.22 136.33 166.13 136.71 166.93 136.38 C 167.73 136.05 168.10 135.14 167.77 134.34 L 167.40 133.43 C 167.07 132.63 166.15 132.25 165.36 132.58 C 164.56 132.91 164.18 133.82 164.51 134.62 Z M 164.89 135.53 L 165.27 136.46 C 165.59 137.25 166.50 137.64 167.30 137.31 C 168.10 136.98 168.48 136.07 168.16 135.28 L 167.78 134.35 C 167.45 133.55 166.54 133.17 165.74 133.49 C 164.94 133.82 164.56 134.73 164.89 135.53 Z M 165.26 136.45 L 165.64 137.39 C 165.97 138.19 166.88 138.57 167.68 138.25 C 168.47 137.92 168.86 137.01 168.54 136.21 L 168.16 135.28 C 167.83 134.48 166.92 134.09 166.12 134.42 C 165.32 134.74 164.94 135.65 165.26 136.45 Z M 165.64 137.39 L 166.02 138.32 C 166.34 139.12 167.25 139.51 168.05 139.19 C 168.85 138.86 169.24 137.95 168.92 137.15 L 168.54 136.21 C 168.21 135.42 167.30 135.03 166.50 135.35 C 165.70 135.68 165.32 136.59 165.64 137.39 Z M 166.02 138.32 L 166.40 139.26 C 166.72 140.06 167.63 140.45 168.43 140.12 C 169.23 139.80 169.62 138.89 169.30 138.09 L 168.92 137.15 C 168.59 136.35 167.68 135.97 166.88 136.29 C 166.08 136.61 165.70 137.53 166.02 138.32 Z M 166.40 139.26 L 166.79 140.21 C 167.11 141.01 168.03 141.40 168.82 141.07 C 169.62 140.75 170.01 139.84 169.68 139.04 L 169.29 138.09 C 168.97 137.29 168.06 136.90 167.26 137.23 C 166.46 137.55 166.08 138.47 166.40 139.26 Z M 166.79 140.22 L 167.18 141.16 C 167.51 141.96 168.42 142.34 169.22 142.01 C 170.01 141.69 170.39 140.78 170.07 139.98 L 169.68 139.03 C 169.35 138.24 168.44 137.85 167.64 138.18 C 166.84 138.51 166.46 139.42 166.79 140.22 Z M 167.18 141.17 L 167.57 142.10 C 167.90 142.90 168.81 143.28 169.61 142.95 C 170.40 142.62 170.78 141.70 170.45 140.91 L 170.07 139.97 C 169.74 139.18 168.82 138.80 168.03 139.13 C 167.23 139.46 166.85 140.37 167.18 141.17 Z M 167.57 142.11 L 167.95 143.02 C 168.28 143.82 169.20 144.20 169.99 143.86 C 170.79 143.53 171.17 142.62 170.83 141.82 L 170.45 140.90 C 170.12 140.11 169.20 139.73 168.41 140.06 C 167.61 140.40 167.24 141.31 167.57 142.11 Z M 167.95 143.03 L 168.34 143.93 C 168.67 144.73 169.59 145.10 170.38 144.77 C 171.18 144.43 171.55 143.51 171.21 142.72 L 170.83 141.82 C 170.50 141.02 169.58 140.65 168.79 140.98 C 167.99 141.32 167.62 142.24 167.95 143.03 Z M 168.34 143.94 L 168.72 144.83 C 169.06 145.62 169.97 145.99 170.77 145.65 C 171.56 145.31 171.93 144.40 171.59 143.60 L 171.21 142.71 C 170.87 141.92 169.96 141.55 169.16 141.89 C 168.37 142.23 168.00 143.15 168.34 143.94 Z M 168.72 144.83 L 169.12 145.76 C 169.46 146.55 170.38 146.92 171.17 146.58 C 171.96 146.24 172.33 145.32 171.99 144.53 L 171.59 143.60 C 171.25 142.81 170.33 142.44 169.54 142.78 C 168.74 143.12 168.38 144.04 168.72 144.83 Z M 169.12 145.76 L 169.52 146.68 C 169.86 147.47 170.78 147.83 171.57 147.49 C 172.36 147.15 172.72 146.23 172.38 145.44 L 171.99 144.52 C 171.64 143.73 170.72 143.37 169.93 143.71 C 169.14 144.05 168.78 144.97 169.12 145.76 Z M 169.51 146.67 L 169.91 147.58 C 170.25 148.37 171.17 148.74 171.96 148.40 C 172.75 148.06 173.12 147.14 172.77 146.35 L 172.38 145.44 C 172.04 144.65 171.12 144.28 170.33 144.62 C 169.54 144.96 169.17 145.88 169.51 146.67 Z M 169.90 147.58 L 170.29 148.49 C 170.63 149.28 171.55 149.65 172.34 149.31 C 173.14 148.98 173.50 148.06 173.17 147.26 L 172.78 146.35 C 172.44 145.56 171.52 145.19 170.73 145.53 C 169.93 145.87 169.57 146.78 169.90 147.58 Z M 170.29 148.48 L 170.68 149.41 C 171.01 150.20 171.93 150.58 172.72 150.25 C 173.52 149.91 173.89 149.00 173.56 148.20 L 173.17 147.27 C 172.84 146.48 171.92 146.10 171.13 146.44 C 170.33 146.77 169.96 147.69 170.29 148.48 Z M 170.67 149.40 L 171.05 150.30 C 171.37 151.10 172.28 151.49 173.08 151.16 C 173.88 150.83 174.26 149.92 173.94 149.12 L 173.56 148.21 C 173.24 147.42 172.33 147.03 171.53 147.36 C 170.73 147.69 170.35 148.60 170.67 149.40 Z M 171.04 150.29 L 171.40 151.20 C 171.72 152.00 172.63 152.39 173.43 152.07 C 174.23 151.75 174.62 150.84 174.30 150.04 L 173.94 149.13 C 173.62 148.33 172.71 147.94 171.91 148.26 C 171.11 148.58 170.72 149.49 171.04 150.29 Z M 171.40 151.19 L 171.76 152.11 C 172.08 152.92 172.98 153.31 173.79 153.00 C 174.59 152.68 174.98 151.77 174.67 150.97 L 174.30 150.05 C 173.99 149.25 173.08 148.85 172.28 149.17 C 171.48 149.48 171.08 150.39 171.40 151.19 Z M 171.76 152.11 L 172.13 153.05 C 172.44 153.85 173.34 154.25 174.15 153.94 C 174.95 153.62 175.35 152.72 175.04 151.91 L 174.67 150.98 C 174.36 150.17 173.45 149.77 172.65 150.09 C 171.85 150.40 171.45 151.30 171.76 152.11 Z M 172.12 153.04 L 172.49 153.99 C 172.80 154.80 173.71 155.20 174.51 154.89 C 175.32 154.57 175.72 153.67 175.40 152.87 L 175.04 151.92 C 174.72 151.11 173.82 150.71 173.02 151.02 C 172.21 151.34 171.81 152.24 172.12 153.04 Z M 172.49 153.99 L 172.86 154.95 C 173.17 155.76 174.08 156.15 174.88 155.84 C 175.69 155.53 176.09 154.63 175.77 153.82 L 175.40 152.87 C 175.09 152.06 174.19 151.66 173.38 151.97 C 172.58 152.29 172.18 153.19 172.49 153.99 Z M 172.86 154.95 L 173.22 155.88 C 173.54 156.68 174.44 157.08 175.24 156.76 C 176.05 156.45 176.45 155.55 176.13 154.74 L 175.77 153.82 C 175.46 153.02 174.56 152.62 173.75 152.93 C 172.95 153.25 172.55 154.15 172.86 154.95 Z M 173.22 155.88 L 173.58 156.79 C 173.90 157.60 174.80 157.99 175.60 157.68 C 176.41 157.36 176.80 156.46 176.49 155.66 L 176.13 154.74 C 175.82 153.94 174.91 153.54 174.11 153.86 C 173.31 154.17 172.91 155.07 173.22 155.88 Z M 173.58 156.79 L 173.94 157.72 C 174.26 158.52 175.16 158.91 175.97 158.60 C 176.77 158.29 177.17 157.38 176.85 156.58 L 176.49 155.65 C 176.17 154.85 175.27 154.46 174.47 154.77 C 173.66 155.09 173.27 155.99 173.58 156.79 Z M 173.94 157.72 L 174.31 158.65 C 174.62 159.45 175.53 159.85 176.33 159.53 C 177.13 159.22 177.53 158.31 177.22 157.51 L 176.85 156.58 C 176.54 155.77 175.63 155.38 174.83 155.69 C 174.02 156.01 173.63 156.91 173.94 157.72 Z M 174.31 158.65 L 174.68 159.59 C 174.99 160.39 175.90 160.79 176.70 160.47 C 177.50 160.16 177.90 159.25 177.58 158.45 L 177.22 157.51 C 176.90 156.71 176.00 156.31 175.19 156.62 C 174.39 156.94 173.99 157.84 174.31 158.65 Z M 174.68 159.58 L 175.05 160.54 C 175.36 161.34 176.26 161.74 177.07 161.42 C 177.87 161.11 178.27 160.21 177.96 159.40 L 177.58 158.45 C 177.27 157.65 176.37 157.25 175.56 157.56 C 174.76 157.88 174.36 158.78 174.68 159.58 Z M 175.05 160.53 L 175.41 161.47 C 175.72 162.27 176.62 162.67 177.43 162.36 C 178.23 162.05 178.63 161.15 178.32 160.34 L 177.96 159.41 C 177.65 158.60 176.74 158.20 175.94 158.51 C 175.13 158.83 174.73 159.73 175.05 160.53 Z M 175.41 161.47 L 175.76 162.39 C 176.07 163.20 176.98 163.60 177.78 163.29 C 178.59 162.98 178.99 162.08 178.68 161.27 L 178.32 160.35 C 178.01 159.54 177.11 159.14 176.30 159.45 C 175.50 159.76 175.10 160.66 175.41 161.47 Z M 175.76 162.39 L 176.12 163.33 C 176.43 164.13 177.33 164.54 178.13 164.23 C 178.94 163.92 179.34 163.02 179.04 162.21 L 178.68 161.28 C 178.37 160.47 177.47 160.07 176.67 160.38 C 175.86 160.68 175.46 161.58 175.76 162.39 Z M 176.12 163.32 L 176.47 164.26 C 176.78 165.07 177.68 165.48 178.48 165.17 C 179.29 164.87 179.70 163.97 179.39 163.16 L 179.04 162.22 C 178.73 161.41 177.83 161.01 177.03 161.31 C 176.22 161.61 175.81 162.51 176.12 163.32 Z M 176.47 164.26 L 176.82 165.20 C 177.12 166.01 178.02 166.42 178.83 166.12 C 179.64 165.82 180.05 164.92 179.75 164.11 L 179.40 163.17 C 179.09 162.36 178.20 161.95 177.39 162.25 C 176.58 162.55 176.17 163.45 176.47 164.26 Z M 176.82 165.19 L 177.16 166.13 C 177.46 166.94 178.36 167.36 179.17 167.06 C 179.98 166.76 180.39 165.87 180.10 165.06 L 179.75 164.12 C 179.45 163.31 178.55 162.89 177.75 163.19 C 176.94 163.49 176.52 164.38 176.82 165.19 Z M 177.16 166.13 L 177.50 167.07 C 177.79 167.88 178.69 168.30 179.50 168.00 C 180.31 167.71 180.73 166.82 180.44 166.00 L 180.10 165.07 C 179.81 164.25 178.91 163.83 178.10 164.13 C 177.29 164.42 176.87 165.32 177.16 166.13 Z M 177.50 167.06 L 177.84 168.01 C 178.12 168.82 179.02 169.25 179.83 168.96 C 180.64 168.67 181.07 167.78 180.78 166.96 L 180.44 166.01 C 180.15 165.20 179.26 164.78 178.45 165.06 C 177.63 165.35 177.21 166.24 177.50 167.06 Z M 177.83 168.00 L 178.16 168.95 C 178.45 169.76 179.34 170.19 180.15 169.91 C 180.96 169.62 181.39 168.73 181.11 167.92 L 180.78 166.97 C 180.50 166.16 179.61 165.73 178.79 166.01 C 177.98 166.30 177.55 167.19 177.83 168.00 Z M 178.16 168.94 L 178.48 169.88 C 178.76 170.70 179.65 171.13 180.47 170.85 C 181.28 170.57 181.72 169.69 181.44 168.87 L 181.11 167.93 C 180.83 167.11 179.95 166.68 179.13 166.96 C 178.31 167.24 177.88 168.12 178.16 168.94 Z M 178.48 169.88 L 178.80 170.82 C 179.08 171.64 179.96 172.07 180.78 171.80 C 181.60 171.52 182.03 170.64 181.76 169.82 L 181.44 168.88 C 181.16 168.06 180.28 167.62 179.46 167.90 C 178.64 168.17 178.21 169.06 178.48 169.88 Z M 178.80 170.81 L 179.11 171.76 C 179.38 172.58 180.27 173.02 181.09 172.75 C 181.90 172.47 182.35 171.59 182.07 170.77 L 181.76 169.83 C 181.49 169.01 180.60 168.57 179.79 168.84 C 178.97 169.11 178.53 169.99 178.80 170.81 Z M 179.11 171.75 L 179.42 172.70 C 179.69 173.52 180.57 173.96 181.39 173.70 C 182.21 173.43 182.66 172.54 182.39 171.72 L 182.08 170.78 C 181.81 169.96 180.92 169.51 180.11 169.78 C 179.29 170.05 178.84 170.93 179.11 171.75 Z M 179.42 172.70 L 179.73 173.65 C 180.00 174.46 180.88 174.91 181.70 174.65 C 182.52 174.38 182.97 173.50 182.70 172.68 L 182.39 171.73 C 182.12 170.91 181.24 170.46 180.42 170.73 C 179.60 171.00 179.15 171.88 179.42 172.70 Z M 179.73 173.64 L 180.04 174.59 C 180.30 175.41 181.18 175.86 182.00 175.60 C 182.82 175.33 183.27 174.45 183.01 173.63 L 182.70 172.68 C 182.44 171.86 181.56 171.41 180.73 171.68 C 179.91 171.94 179.46 172.82 179.73 173.64 Z M 180.04 174.59 L 180.34 175.54 C 180.61 176.37 181.48 176.82 182.31 176.55 C 183.13 176.29 183.58 175.41 183.32 174.59 L 183.01 173.64 C 182.75 172.82 181.87 172.36 181.05 172.63 C 180.22 172.89 179.77 173.77 180.04 174.59 Z M 180.34 175.54 L 180.65 176.50 C 180.91 177.32 181.79 177.77 182.61 177.51 C 183.43 177.25 183.88 176.37 183.62 175.55 L 183.32 174.59 C 183.05 173.77 182.18 173.32 181.35 173.58 C 180.53 173.84 180.08 174.72 180.34 175.54 Z M 180.65 176.50 L 180.95 177.45 C 181.21 178.27 182.09 178.73 182.91 178.47 C 183.73 178.21 184.18 177.33 183.92 176.51 L 183.62 175.55 C 183.36 174.73 182.48 174.28 181.66 174.54 C 180.84 174.80 180.38 175.67 180.65 176.50 Z M 180.95 177.45 L 181.25 178.40 C 181.51 179.22 182.38 179.68 183.21 179.42 C 184.03 179.16 184.49 178.28 184.23 177.46 L 183.92 176.51 C 183.67 175.69 182.79 175.23 181.97 175.49 C 181.14 175.75 180.69 176.63 180.95 177.45 Z M 181.25 178.40 L 181.55 179.36 C 181.81 180.18 182.69 180.64 183.51 180.38 C 184.33 180.12 184.79 179.25 184.53 178.42 L 184.23 177.46 C 183.97 176.64 183.09 176.18 182.27 176.44 C 181.45 176.70 180.99 177.58 181.25 178.40 Z M 181.55 179.36 L 181.86 180.36 C 182.12 181.18 183.00 181.64 183.82 181.38 C 184.64 181.12 185.10 180.25 184.84 179.42 L 184.53 178.43 C 184.27 177.60 183.39 177.15 182.57 177.40 C 181.75 177.66 181.29 178.54 181.55 179.36 Z M 181.86 180.36 L 182.17 181.34 C 182.43 182.17 183.31 182.62 184.13 182.37 C 184.95 182.11 185.41 181.23 185.15 180.41 L 184.84 179.42 C 184.58 178.60 183.71 178.14 182.89 178.40 C 182.06 178.66 181.61 179.54 181.86 180.36 Z M 182.17 181.34 L 182.47 182.31 C 182.73 183.13 183.61 183.59 184.43 183.33 C 185.25 183.08 185.71 182.20 185.45 181.38 L 185.15 180.41 C 184.89 179.59 184.02 179.13 183.20 179.39 C 182.37 179.64 181.91 180.52 182.17 181.34 Z M 182.47 182.31 L 182.77 183.25 C 183.03 184.08 183.90 184.54 184.73 184.28 C 185.55 184.02 186.01 183.14 185.75 182.32 L 185.45 181.38 C 185.20 180.55 184.32 180.10 183.50 180.35 C 182.68 180.61 182.22 181.49 182.47 182.31 Z M 182.77 183.25 L 183.06 184.17 C 183.31 184.99 184.19 185.45 185.01 185.19 C 185.84 184.94 186.29 184.06 186.04 183.24 L 185.75 182.32 C 185.49 181.50 184.62 181.04 183.79 181.30 C 182.97 181.56 182.51 182.43 182.77 183.25 Z M 183.06 184.17 L 183.35 185.09 C 183.60 185.91 184.48 186.37 185.30 186.12 C 186.12 185.86 186.58 184.98 186.32 184.16 L 186.04 183.24 C 185.78 182.42 184.90 181.96 184.08 182.21 C 183.26 182.47 182.80 183.35 183.06 184.17 Z M 183.35 185.09 L 183.66 186.11 C 183.92 186.93 184.80 187.39 185.62 187.13 C 186.44 186.88 186.90 186.00 186.64 185.18 L 186.32 184.16 C 186.07 183.34 185.19 182.88 184.37 183.14 C 183.54 183.39 183.09 184.27 183.35 185.09 Z M 183.67 186.11 L 183.97 187.09 C 184.23 187.91 185.11 188.37 185.93 188.11 C 186.75 187.85 187.21 186.97 186.95 186.15 L 186.64 185.17 C 186.38 184.35 185.51 183.90 184.68 184.16 C 183.86 184.41 183.41 185.29 183.67 186.11 Z M 183.97 187.09 L 184.27 188.03 C 184.53 188.85 185.41 189.31 186.23 189.05 C 187.06 188.78 187.51 187.91 187.25 187.09 L 186.95 186.15 C 186.69 185.32 185.81 184.87 184.99 185.13 C 184.17 185.39 183.71 186.27 183.97 187.09 Z M 184.27 188.04 L 184.57 188.95 C 184.83 189.77 185.71 190.22 186.53 189.96 C 187.35 189.69 187.80 188.81 187.54 187.99 L 187.25 187.08 C 186.98 186.26 186.10 185.81 185.28 186.07 C 184.46 186.34 184.01 187.22 184.27 188.04 Z M 184.57 188.95 L 184.87 189.86 C 185.13 190.68 186.01 191.13 186.83 190.86 C 187.65 190.59 188.10 189.71 187.83 188.89 L 187.54 187.98 C 187.27 187.16 186.39 186.72 185.57 186.98 C 184.75 187.25 184.30 188.13 184.57 188.95 Z M 184.87 189.87 L 185.19 190.83 C 185.46 191.65 186.34 192.09 187.16 191.82 C 187.98 191.55 188.42 190.66 188.15 189.84 L 187.83 188.88 C 187.56 188.06 186.68 187.62 185.86 187.89 C 185.04 188.16 184.60 189.05 184.87 189.87 Z M 185.19 190.83 L 185.51 191.78 C 185.78 192.60 186.66 193.04 187.48 192.77 C 188.30 192.49 188.74 191.61 188.47 190.79 L 188.15 189.84 C 187.88 189.02 186.99 188.58 186.17 188.86 C 185.36 189.13 184.91 190.01 185.19 190.83 Z M 185.51 191.78 L 185.82 192.72 C 186.09 193.54 186.98 193.98 187.80 193.71 C 188.61 193.44 189.06 192.55 188.78 191.73 L 188.47 190.79 C 188.19 189.97 187.31 189.53 186.49 189.81 C 185.67 190.08 185.23 190.96 185.51 191.78 Z M 185.82 192.72 L 186.13 193.66 C 186.40 194.48 187.29 194.92 188.10 194.65 C 188.92 194.38 189.37 193.50 189.09 192.68 L 188.78 191.74 C 188.51 190.92 187.63 190.48 186.81 190.75 C 185.99 191.02 185.55 191.90 185.82 192.72 Z M 186.13 193.65 L 186.44 194.61 C 186.71 195.43 187.59 195.88 188.41 195.61 C 189.23 195.34 189.68 194.46 189.41 193.64 L 189.10 192.69 C 188.83 191.87 187.95 191.42 187.13 191.68 C 186.31 191.95 185.86 192.83 186.13 193.65 Z M 186.44 194.60 L 186.75 195.57 C 187.01 196.39 187.89 196.85 188.71 196.58 C 189.53 196.32 189.98 195.44 189.72 194.62 L 189.41 193.65 C 189.15 192.83 188.27 192.38 187.45 192.64 C 186.63 192.90 186.17 193.78 186.44 194.60 Z M 186.75 195.57 L 187.05 196.53 C 187.31 197.35 188.19 197.80 189.01 197.54 C 189.84 197.28 190.29 196.40 190.03 195.58 L 189.72 194.62 C 189.46 193.80 188.58 193.35 187.76 193.61 C 186.94 193.87 186.49 194.75 186.75 195.57 Z M 187.05 196.53 L 187.36 197.48 C 187.62 198.30 188.50 198.75 189.32 198.49 C 190.14 198.22 190.59 197.34 190.33 196.52 L 190.03 195.58 C 189.76 194.76 188.88 194.31 188.06 194.57 C 187.24 194.83 186.79 195.71 187.05 196.53 Z M 187.36 197.48 L 187.67 198.42 C 187.93 199.24 188.81 199.69 189.63 199.42 C 190.45 199.15 190.90 198.27 190.63 197.45 L 190.33 196.51 C 190.06 195.69 189.18 195.25 188.36 195.51 C 187.54 195.78 187.09 196.66 187.36 197.48 Z M 187.67 198.43 L 188.00 199.42 C 188.28 200.23 189.16 200.67 189.98 200.40 C 190.80 200.12 191.23 199.24 190.96 198.42 L 190.63 197.44 C 190.35 196.62 189.47 196.18 188.65 196.45 C 187.83 196.73 187.39 197.61 187.67 198.43 Z M 188.00 199.43 L 188.33 200.38 C 188.61 201.19 189.50 201.63 190.32 201.35 C 191.13 201.07 191.56 200.18 191.28 199.36 L 190.96 198.41 C 190.68 197.60 189.79 197.16 188.97 197.44 C 188.16 197.72 187.72 198.61 188.00 199.43 Z M 188.33 200.39 L 188.66 201.31 C 188.94 202.12 189.83 202.55 190.65 202.27 C 191.46 201.98 191.89 201.09 191.60 200.28 L 191.28 199.36 C 191.00 198.54 190.11 198.11 189.29 198.40 C 188.48 198.68 188.05 199.57 188.33 200.39 Z M 188.66 201.31 L 188.98 202.23 C 189.27 203.04 190.16 203.47 190.97 203.19 C 191.78 202.90 192.21 202.01 191.93 201.20 L 191.60 200.28 C 191.32 199.46 190.43 199.04 189.61 199.32 C 188.80 199.61 188.37 200.50 188.66 201.31 Z M 188.98 202.23 L 189.32 203.21 C 189.61 204.02 190.50 204.45 191.31 204.16 C 192.13 203.88 192.56 202.99 192.27 202.17 L 191.93 201.20 C 191.64 200.38 190.75 199.95 189.94 200.24 C 189.12 200.53 188.69 201.42 188.98 202.23 Z M 189.32 203.21 L 189.66 204.16 C 189.94 204.97 190.83 205.40 191.65 205.11 C 192.46 204.83 192.89 203.94 192.60 203.12 L 192.27 202.17 C 191.98 201.36 191.09 200.93 190.28 201.22 C 189.47 201.50 189.04 202.39 189.32 203.21 Z M 189.66 204.16 L 189.98 205.08 C 190.27 205.89 191.16 206.32 191.97 206.03 C 192.79 205.74 193.21 204.85 192.93 204.04 L 192.60 203.12 C 192.32 202.31 191.42 201.88 190.61 202.17 C 189.80 202.45 189.37 203.35 189.66 204.16 Z M 189.98 205.08 L 190.30 205.97 C 190.59 206.78 191.48 207.21 192.29 206.92 C 193.11 206.63 193.53 205.74 193.24 204.92 L 192.93 204.03 C 192.64 203.22 191.74 202.80 190.93 203.09 C 190.12 203.37 189.69 204.27 189.98 205.08 Z M 190.30 205.97 L 190.62 206.86 C 190.91 207.67 191.81 208.09 192.62 207.80 C 193.43 207.51 193.85 206.61 193.56 205.80 L 193.24 204.92 C 192.95 204.11 192.05 203.68 191.24 203.98 C 190.43 204.27 190.01 205.16 190.30 205.97 Z M 190.62 206.87 L 190.96 207.80 C 191.26 208.61 192.15 209.03 192.96 208.73 C 193.77 208.44 194.19 207.54 193.90 206.73 L 193.56 205.80 C 193.26 204.99 192.36 204.57 191.55 204.87 C 190.74 205.16 190.33 206.06 190.62 206.87 Z M 190.97 207.81 L 191.34 208.83 C 191.64 209.64 192.54 210.05 193.35 209.75 C 194.16 209.45 194.57 208.56 194.27 207.75 L 193.89 206.72 C 193.59 205.91 192.69 205.50 191.89 205.80 C 191.08 206.10 190.67 207.00 190.97 207.81 Z M 191.35 208.84 L 191.62 209.57 C 191.92 210.38 192.82 210.79 193.63 210.48 C 194.44 210.18 194.85 209.28 194.55 208.48 L 194.27 207.74 C 193.97 206.93 193.07 206.53 192.26 206.83 C 191.45 207.13 191.04 208.03 191.35 208.84 Z M 191.62 209.57 L 191.92 210.38 C 192.23 211.19 193.13 211.60 193.93 211.29 C 194.74 210.99 195.15 210.09 194.85 209.28 L 194.54 208.47 C 194.24 207.67 193.34 207.26 192.54 207.56 C 191.73 207.86 191.32 208.76 191.62 209.57 Z M 191.92 210.38 L 192.26 211.27 C 192.56 212.08 193.46 212.49 194.27 212.19 C 195.07 211.89 195.48 210.99 195.18 210.18 L 194.85 209.28 C 194.55 208.48 193.65 208.07 192.84 208.37 C 192.03 208.67 191.62 209.57 191.92 210.38 Z M 192.26 211.27 L 192.63 212.27 C 192.92 213.07 193.82 213.49 194.63 213.19 C 195.44 212.89 195.85 211.99 195.55 211.18 L 195.18 210.18 C 194.89 209.38 193.99 208.96 193.18 209.26 C 192.37 209.56 191.96 210.46 192.26 211.27 Z M 192.62 212.26 L 193.03 213.37 C 193.33 214.18 194.22 214.59 195.03 214.30 C 195.84 214.00 196.26 213.10 195.96 212.29 L 195.56 211.19 C 195.26 210.38 194.36 209.96 193.55 210.26 C 192.74 210.55 192.33 211.45 192.62 212.26 Z M 193.03 213.36 L 193.42 214.43 C 193.71 215.24 194.60 215.66 195.42 215.37 C 196.23 215.08 196.65 214.18 196.35 213.37 L 195.96 212.30 C 195.67 211.49 194.77 211.07 193.96 211.36 C 193.15 211.66 192.73 212.55 193.03 213.36 Z M 193.41 214.43 L 193.75 215.36 C 194.04 216.17 194.93 216.59 195.74 216.30 C 196.56 216.01 196.98 215.11 196.69 214.30 L 196.35 213.37 C 196.06 212.56 195.17 212.14 194.36 212.43 C 193.54 212.72 193.12 213.62 193.41 214.43 Z M 193.75 215.35 L 194.09 216.32 C 194.38 217.14 195.27 217.56 196.08 217.27 C 196.90 216.98 197.32 216.09 197.03 215.28 L 196.69 214.31 C 196.40 213.50 195.51 213.07 194.69 213.36 C 193.88 213.65 193.46 214.54 193.75 215.35 Z M 194.09 216.32 L 194.44 217.31 C 194.72 218.12 195.62 218.55 196.43 218.26 C 197.24 217.98 197.67 217.08 197.38 216.27 L 197.03 215.28 C 196.75 214.47 195.86 214.04 195.04 214.33 C 194.23 214.61 193.80 215.51 194.09 216.32 Z M 194.44 217.30 L 194.78 218.30 C 195.07 219.11 195.96 219.54 196.77 219.26 C 197.58 218.97 198.01 218.08 197.73 217.27 L 197.38 216.28 C 197.10 215.46 196.21 215.03 195.40 215.32 C 194.58 215.60 194.15 216.49 194.44 217.30 Z M 194.78 218.29 L 195.12 219.27 C 195.40 220.08 196.29 220.51 197.10 220.23 C 197.92 219.95 198.35 219.06 198.07 218.25 L 197.73 217.27 C 197.45 216.46 196.56 216.02 195.75 216.31 C 194.93 216.59 194.50 217.47 194.78 218.29 Z M 195.11 219.26 L 195.43 220.20 C 195.71 221.02 196.60 221.46 197.41 221.18 C 198.23 220.90 198.67 220.01 198.39 219.20 L 198.07 218.26 C 197.79 217.44 196.91 217.00 196.09 217.28 C 195.27 217.56 194.84 218.44 195.11 219.26 Z M 195.43 220.19 L 195.73 221.08 C 196.00 221.90 196.89 222.34 197.70 222.07 C 198.52 221.80 198.96 220.91 198.69 220.10 L 198.39 219.21 C 198.12 218.39 197.24 217.95 196.42 218.22 C 195.60 218.49 195.16 219.38 195.43 220.19 Z M 195.72 221.07 L 196.07 222.12 C 196.33 222.94 197.21 223.39 198.03 223.13 C 198.85 222.86 199.30 221.98 199.04 221.16 L 198.69 220.11 C 198.43 219.29 197.55 218.84 196.73 219.10 C 195.91 219.37 195.46 220.25 195.72 221.07 Z M 196.06 222.10 L 196.41 223.23 C 196.66 224.06 197.54 224.52 198.36 224.26 C 199.19 224.01 199.65 223.13 199.39 222.31 L 199.04 221.18 C 198.79 220.36 197.91 219.90 197.09 220.15 C 196.27 220.41 195.80 221.28 196.06 222.10 Z M 196.40 223.21 L 196.69 224.19 C 196.93 225.01 197.80 225.49 198.62 225.25 C 199.45 225.01 199.93 224.14 199.68 223.31 L 199.40 222.33 C 199.16 221.51 198.29 221.03 197.46 221.27 C 196.64 221.51 196.16 222.38 196.40 223.21 Z M 196.68 224.16 L 196.92 225.03 C 197.15 225.86 198.00 226.35 198.84 226.12 C 199.67 225.90 200.16 225.04 199.93 224.21 L 199.69 223.34 C 199.46 222.51 198.61 222.02 197.77 222.24 C 196.94 222.47 196.45 223.33 196.68 224.16 Z M 196.91 225.01 L 197.12 225.80 C 197.33 226.64 198.18 227.14 199.02 226.93 C 199.85 226.71 200.36 225.86 200.14 225.03 L 199.94 224.23 C 199.72 223.39 198.87 222.89 198.03 223.11 C 197.20 223.32 196.70 224.17 196.91 225.01 Z M 197.11 225.79 L 197.34 226.70 C 197.54 227.53 198.39 228.05 199.23 227.84 C 200.06 227.63 200.58 226.79 200.37 225.95 L 200.15 225.04 C 199.94 224.20 199.09 223.69 198.26 223.90 C 197.42 224.11 196.91 224.95 197.11 225.79 Z M 197.34 226.70 L 197.59 227.69 C 197.80 228.53 198.65 229.04 199.48 228.83 C 200.32 228.62 200.83 227.77 200.62 226.93 L 200.37 225.94 C 200.16 225.11 199.31 224.60 198.47 224.81 C 197.64 225.02 197.13 225.87 197.34 226.70 Z M 197.60 227.74 L 197.87 228.69 C 198.11 229.52 198.97 230.00 199.80 229.77 C 200.63 229.53 201.11 228.67 200.88 227.84 L 200.60 226.89 C 200.37 226.06 199.50 225.58 198.67 225.81 C 197.85 226.05 197.36 226.91 197.60 227.74 Z M 197.90 228.79 L 198.22 229.70 C 198.51 230.51 199.40 230.94 200.21 230.65 C 201.03 230.36 201.45 229.47 201.17 228.66 L 200.85 227.75 C 200.56 226.94 199.67 226.51 198.86 226.79 C 198.04 227.08 197.61 227.97 197.90 228.79 Z M 198.27 229.82 L 198.68 230.73 C 199.04 231.52 199.97 231.86 200.75 231.51 C 201.54 231.15 201.88 230.23 201.53 229.44 L 201.12 228.53 C 200.76 227.75 199.84 227.40 199.05 227.76 C 198.26 228.11 197.92 229.04 198.27 229.82 Z M 198.74 230.84 L 199.22 231.71 C 199.63 232.47 200.58 232.75 201.34 232.33 C 202.09 231.92 202.37 230.97 201.96 230.21 L 201.48 229.34 C 201.06 228.58 200.11 228.30 199.36 228.72 C 198.60 229.13 198.32 230.08 198.74 230.84 Z M 199.25 231.78 L 199.77 232.63 C 200.22 233.36 201.18 233.60 201.92 233.15 C 202.65 232.70 202.89 231.74 202.44 231.00 L 201.92 230.15 C 201.47 229.41 200.51 229.18 199.77 229.63 C 199.04 230.08 198.80 231.04 199.25 231.78 Z M 199.79 232.65 L 200.09 233.14 C 200.56 233.87 201.52 234.08 202.25 233.62 C 202.98 233.16 203.19 232.20 202.73 231.47 L 202.42 230.98 C 201.96 230.25 201.00 230.03 200.27 230.50 C 199.54 230.96 199.32 231.92 199.79 232.65 Z"
      fill="black"
      fill-rule="nonzero" /><path d="M 103.48 230.31 L 104.44 229.92 C 105.24 229.59 105.62 228.68 105.29 227.88 C 104.96 227.08 104.05 226.70 103.25 227.03 L 102.29 227.42 C 101.50 227.75 101.11 228.66 101.44 229.46 C 101.77 230.26 102.68 230.64 103.48 230.31 Z M 104.41 229.93 L 105.36 229.56 C 106.17 229.25 106.56 228.34 106.25 227.54 C 105.94 226.73 105.03 226.34 104.23 226.65 L 103.28 227.02 C 102.48 227.33 102.08 228.24 102.39 229.04 C 102.70 229.84 103.61 230.24 104.41 229.93 Z M 105.31 229.58 L 106.24 229.26 C 107.05 228.97 107.48 228.08 107.20 227.27 C 106.92 226.45 106.03 226.02 105.21 226.31 L 104.29 226.63 C 103.47 226.91 103.04 227.80 103.32 228.61 C 103.60 229.43 104.49 229.86 105.31 229.58 Z M 106.14 229.29 L 107.06 229.03 C 107.89 228.80 108.38 227.94 108.15 227.11 C 107.91 226.28 107.05 225.79 106.22 226.02 L 105.31 226.28 C 104.48 226.51 103.99 227.37 104.22 228.20 C 104.45 229.03 105.31 229.52 106.14 229.29 Z M 106.94 229.06 L 107.88 228.87 C 108.73 228.70 109.28 227.88 109.11 227.04 C 108.94 226.19 108.12 225.64 107.28 225.81 L 106.34 225.99 C 105.49 226.16 104.94 226.98 105.11 227.83 C 105.28 228.68 106.10 229.23 106.94 229.06 Z M 107.81 228.88 L 108.77 228.74 C 109.62 228.62 110.21 227.82 110.09 226.97 C 109.96 226.12 109.17 225.53 108.31 225.65 L 107.35 225.80 C 106.50 225.92 105.91 226.72 106.03 227.57 C 106.16 228.42 106.95 229.01 107.81 228.88 Z M 108.76 228.74 L 109.80 228.60 C 110.65 228.48 111.25 227.69 111.13 226.84 C 111.01 225.99 110.23 225.39 109.37 225.51 L 108.33 225.65 C 107.47 225.77 106.88 226.56 107.00 227.41 C 107.11 228.27 107.90 228.86 108.76 228.74 Z M 109.83 228.60 L 110.80 228.44 C 111.65 228.31 112.24 227.51 112.10 226.66 C 111.97 225.81 111.17 225.23 110.32 225.36 L 109.34 225.51 C 108.49 225.65 107.91 226.44 108.04 227.30 C 108.18 228.15 108.98 228.73 109.83 228.60 Z M 110.83 228.44 L 111.82 228.27 C 112.67 228.12 113.24 227.31 113.10 226.46 C 112.95 225.61 112.14 225.04 111.29 225.19 L 110.29 225.36 C 109.44 225.51 108.88 226.32 109.02 227.17 C 109.17 228.02 109.98 228.59 110.83 228.44 Z M 111.84 228.26 L 112.85 228.08 C 113.70 227.93 114.26 227.11 114.11 226.27 C 113.96 225.42 113.14 224.85 112.30 225.01 L 111.28 225.19 C 110.43 225.35 109.87 226.16 110.02 227.01 C 110.18 227.86 110.99 228.42 111.84 228.26 Z M 112.86 228.08 L 113.85 227.90 C 114.70 227.74 115.26 226.93 115.10 226.08 C 114.94 225.23 114.13 224.67 113.28 224.83 L 112.29 225.01 C 111.44 225.17 110.88 225.98 111.04 226.83 C 111.20 227.68 112.01 228.24 112.86 228.08 Z M 113.84 227.90 L 114.85 227.71 C 115.70 227.56 116.26 226.75 116.10 225.90 C 115.95 225.05 115.14 224.49 114.29 224.64 L 113.28 224.83 C 112.44 224.98 111.87 225.79 112.03 226.64 C 112.18 227.49 113.00 228.05 113.84 227.90 Z M 114.84 227.72 L 115.83 227.54 C 116.68 227.39 117.24 226.58 117.09 225.73 C 116.94 224.88 116.13 224.32 115.28 224.47 L 114.30 224.64 C 113.45 224.79 112.88 225.60 113.03 226.45 C 113.18 227.30 113.99 227.87 114.84 227.72 Z M 115.83 227.54 L 116.78 227.37 C 117.63 227.23 118.20 226.42 118.05 225.57 C 117.90 224.72 117.09 224.15 116.24 224.30 L 115.29 224.47 C 114.44 224.61 113.87 225.42 114.02 226.27 C 114.17 227.12 114.98 227.69 115.83 227.54 Z M 116.78 227.37 L 117.75 227.20 C 118.60 227.05 119.17 226.24 119.02 225.39 C 118.87 224.55 118.06 223.98 117.21 224.13 L 116.24 224.30 C 115.39 224.45 114.82 225.26 114.97 226.11 C 115.12 226.96 115.93 227.52 116.78 227.37 Z M 117.76 227.20 L 118.68 227.04 C 119.53 226.89 120.09 226.07 119.94 225.23 C 119.79 224.38 118.98 223.81 118.13 223.96 L 117.21 224.13 C 116.36 224.28 115.79 225.09 115.95 225.94 C 116.10 226.79 116.91 227.35 117.76 227.20 Z M 118.68 227.04 L 119.64 226.87 C 120.49 226.71 121.05 225.90 120.90 225.05 C 120.75 224.20 119.94 223.64 119.09 223.79 L 118.13 223.96 C 117.28 224.12 116.72 224.93 116.87 225.78 C 117.02 226.62 117.83 227.19 118.68 227.04 Z M 119.64 226.87 L 120.64 226.69 C 121.49 226.54 122.05 225.73 121.90 224.88 C 121.75 224.03 120.94 223.46 120.10 223.61 L 119.09 223.79 C 118.24 223.94 117.68 224.75 117.83 225.60 C 117.98 226.45 118.79 227.02 119.64 226.87 Z M 120.63 226.69 L 121.67 226.51 C 122.52 226.37 123.09 225.56 122.94 224.71 C 122.80 223.86 121.99 223.29 121.14 223.44 L 120.10 223.61 C 119.25 223.76 118.68 224.56 118.83 225.41 C 118.97 226.26 119.78 226.84 120.63 226.69 Z M 121.65 226.52 L 122.64 226.36 C 123.49 226.22 124.07 225.42 123.93 224.57 C 123.79 223.71 122.99 223.14 122.14 223.27 L 121.15 223.43 C 120.30 223.57 119.72 224.37 119.86 225.22 C 120.00 226.08 120.80 226.65 121.65 226.52 Z M 122.63 226.36 L 123.60 226.21 C 124.45 226.08 125.03 225.28 124.90 224.43 C 124.77 223.58 123.98 222.99 123.12 223.12 L 122.15 223.27 C 121.30 223.40 120.72 224.20 120.85 225.05 C 120.98 225.90 121.77 226.49 122.63 226.36 Z M 123.58 226.21 L 124.57 226.07 C 125.42 225.95 126.02 225.16 125.89 224.30 C 125.77 223.45 124.98 222.86 124.12 222.98 L 123.14 223.12 C 122.28 223.25 121.69 224.04 121.82 224.89 C 121.94 225.74 122.73 226.34 123.58 226.21 Z M 124.56 226.07 L 125.56 225.94 C 126.42 225.82 127.01 225.03 126.90 224.18 C 126.78 223.32 126.00 222.73 125.14 222.84 L 124.14 222.98 C 123.28 223.09 122.68 223.88 122.80 224.74 C 122.92 225.59 123.70 226.19 124.56 226.07 Z M 125.55 225.94 L 126.57 225.81 C 127.43 225.70 128.03 224.91 127.92 224.06 C 127.81 223.20 127.03 222.60 126.18 222.71 L 125.15 222.84 C 124.30 222.95 123.69 223.73 123.80 224.59 C 123.91 225.44 124.69 226.05 125.55 225.94 Z M 126.56 225.81 L 127.53 225.69 C 128.39 225.59 129.00 224.81 128.89 223.95 C 128.79 223.10 128.01 222.49 127.16 222.59 L 126.19 222.71 C 125.33 222.81 124.72 223.59 124.82 224.44 C 124.93 225.30 125.70 225.91 126.56 225.81 Z M 127.52 225.69 L 128.50 225.58 C 129.36 225.48 129.98 224.71 129.88 223.85 C 129.78 223.00 129.01 222.38 128.15 222.48 L 127.17 222.59 C 126.31 222.69 125.70 223.46 125.79 224.32 C 125.89 225.17 126.66 225.79 127.52 225.69 Z M 128.49 225.58 L 129.49 225.47 C 130.35 225.38 130.97 224.61 130.88 223.76 C 130.79 222.90 130.02 222.28 129.16 222.37 L 128.16 222.48 C 127.30 222.57 126.68 223.34 126.78 224.20 C 126.87 225.05 127.64 225.67 128.49 225.58 Z M 129.48 225.48 L 130.49 225.37 C 131.35 225.29 131.97 224.52 131.88 223.66 C 131.80 222.81 131.03 222.18 130.17 222.27 L 129.17 222.37 C 128.31 222.46 127.68 223.22 127.77 224.08 C 127.86 224.94 128.62 225.56 129.48 225.48 Z M 130.48 225.37 L 131.49 225.28 C 132.35 225.20 132.98 224.43 132.90 223.58 C 132.82 222.72 132.05 222.09 131.20 222.17 L 130.18 222.27 C 129.32 222.35 128.69 223.11 128.78 223.97 C 128.86 224.83 129.62 225.46 130.48 225.37 Z M 131.48 225.28 L 132.48 225.19 C 133.34 225.11 133.98 224.35 133.90 223.50 C 133.82 222.64 133.06 222.00 132.20 222.08 L 131.21 222.17 C 130.35 222.25 129.71 223.00 129.79 223.86 C 129.87 224.72 130.62 225.36 131.48 225.28 Z M 132.47 225.19 L 133.48 225.11 C 134.33 225.04 134.97 224.28 134.90 223.42 C 134.83 222.56 134.08 221.92 133.22 222.00 L 132.21 222.08 C 131.36 222.15 130.72 222.91 130.79 223.76 C 130.86 224.62 131.61 225.26 132.47 225.19 Z M 133.46 225.11 L 134.47 225.03 C 135.33 224.97 135.97 224.22 135.90 223.36 C 135.84 222.50 135.09 221.85 134.23 221.92 L 133.23 221.99 C 132.37 222.06 131.72 222.81 131.79 223.67 C 131.85 224.53 132.61 225.17 133.46 225.11 Z M 134.45 225.03 L 135.45 224.96 C 136.31 224.91 136.96 224.16 136.90 223.30 C 136.84 222.44 136.10 221.79 135.24 221.85 L 134.24 221.92 C 133.38 221.98 132.73 222.72 132.79 223.58 C 132.85 224.44 133.59 225.09 134.45 225.03 Z M 135.44 224.96 L 136.43 224.91 C 137.29 224.85 137.94 224.12 137.89 223.25 C 137.84 222.39 137.10 221.74 136.24 221.79 L 135.25 221.85 C 134.39 221.90 133.73 222.64 133.78 223.50 C 133.84 224.36 134.58 225.02 135.44 224.96 Z M 136.41 224.91 L 137.45 224.86 C 138.31 224.81 138.97 224.08 138.93 223.22 C 138.89 222.36 138.15 221.69 137.29 221.74 L 136.26 221.79 C 135.39 221.83 134.73 222.56 134.77 223.42 C 134.82 224.29 135.55 224.95 136.41 224.91 Z M 137.43 224.86 L 138.46 224.82 C 139.32 224.78 139.99 224.06 139.96 223.19 C 139.92 222.33 139.20 221.66 138.34 221.70 L 137.31 221.74 C 136.45 221.77 135.78 222.50 135.81 223.36 C 135.84 224.22 136.57 224.89 137.43 224.86 Z M 138.45 224.82 L 139.45 224.79 C 140.31 224.76 140.99 224.04 140.96 223.18 C 140.94 222.32 140.22 221.64 139.36 221.66 L 138.35 221.70 C 137.49 221.72 136.81 222.44 136.84 223.30 C 136.86 224.17 137.58 224.84 138.45 224.82 Z M 139.44 224.79 L 140.42 224.76 C 141.28 224.74 141.96 224.03 141.94 223.17 C 141.92 222.30 141.21 221.62 140.34 221.64 L 139.37 221.66 C 138.50 221.68 137.82 222.40 137.84 223.26 C 137.86 224.12 138.58 224.81 139.44 224.79 Z M 140.41 224.76 L 141.36 224.75 C 142.22 224.73 142.91 224.02 142.89 223.16 C 142.88 222.30 142.17 221.61 141.31 221.63 L 140.35 221.64 C 139.49 221.66 138.80 222.37 138.82 223.23 C 138.83 224.09 139.54 224.78 140.41 224.76 Z M 141.35 224.75 L 142.39 224.74 C 143.25 224.73 143.94 224.02 143.93 223.16 C 143.92 222.30 143.22 221.60 142.36 221.61 L 141.32 221.63 C 140.45 221.63 139.76 222.34 139.77 223.20 C 139.78 224.07 140.49 224.76 141.35 224.75 Z M 142.38 224.74 L 143.38 224.73 C 144.25 224.72 144.94 224.02 144.94 223.16 C 144.93 222.30 144.23 221.60 143.37 221.61 L 142.36 221.61 C 141.50 221.62 140.81 222.32 140.81 223.18 C 140.82 224.05 141.52 224.74 142.38 224.74 Z M 143.38 224.73 L 144.36 224.73 C 145.22 224.73 145.92 224.03 145.92 223.16 C 145.91 222.30 145.21 221.60 144.35 221.61 L 143.37 221.61 C 142.51 221.61 141.81 222.31 141.81 223.17 C 141.82 224.03 142.52 224.73 143.38 224.73 Z M 144.36 224.73 L 145.33 224.73 C 146.19 224.73 146.89 224.03 146.89 223.17 C 146.89 222.30 146.19 221.60 145.33 221.61 L 144.36 221.61 C 143.49 221.61 142.79 222.31 142.79 223.17 C 142.79 224.03 143.49 224.73 144.36 224.73 Z M 145.33 224.73 L 146.33 224.73 C 147.19 224.73 147.89 224.03 147.89 223.17 C 147.89 222.30 147.19 221.61 146.33 221.61 L 145.33 221.61 C 144.47 221.61 143.77 222.30 143.77 223.17 C 143.77 224.03 144.47 224.73 145.33 224.73 Z M 146.33 224.73 L 147.33 224.73 C 148.19 224.73 148.89 224.03 148.89 223.17 C 148.89 222.30 148.19 221.61 147.33 221.61 L 146.33 221.61 C 145.46 221.61 144.76 222.30 144.76 223.17 C 144.76 224.03 145.46 224.73 146.33 224.73 Z M 147.33 224.73 L 148.33 224.73 C 149.19 224.73 149.89 224.03 149.89 223.17 C 149.89 222.30 149.19 221.61 148.33 221.61 L 147.33 221.61 C 146.46 221.61 145.77 222.30 145.77 223.17 C 145.77 224.03 146.46 224.73 147.33 224.73 Z M 148.33 224.73 L 149.33 224.73 C 150.19 224.73 150.89 224.03 150.89 223.17 C 150.89 222.30 150.19 221.61 149.33 221.61 L 148.33 221.61 C 147.47 221.61 146.77 222.30 146.77 223.17 C 146.77 224.03 147.47 224.73 148.33 224.73 Z M 149.33 224.73 L 150.34 224.73 C 151.20 224.73 151.90 224.03 151.90 223.17 C 151.90 222.31 151.20 221.61 150.34 221.61 L 149.33 221.61 C 148.47 221.60 147.77 222.30 147.77 223.17 C 147.77 224.03 148.46 224.73 149.33 224.73 Z M 150.33 224.73 L 151.34 224.73 C 152.20 224.74 152.90 224.05 152.91 223.18 C 152.91 222.32 152.22 221.62 151.35 221.61 L 150.35 221.61 C 149.49 221.60 148.78 222.29 148.78 223.16 C 148.77 224.02 149.47 224.72 150.33 224.73 Z M 151.32 224.73 L 152.31 224.75 C 153.17 224.77 153.89 224.08 153.90 223.22 C 153.92 222.36 153.23 221.65 152.37 221.63 L 151.37 221.61 C 150.51 221.60 149.80 222.28 149.78 223.14 C 149.77 224.01 150.45 224.72 151.32 224.73 Z M 152.28 224.75 L 153.27 224.79 C 154.13 224.82 154.86 224.15 154.89 223.29 C 154.92 222.43 154.25 221.70 153.39 221.67 L 152.40 221.63 C 151.54 221.60 150.81 222.27 150.78 223.13 C 150.75 223.99 151.42 224.72 152.28 224.75 Z M 153.23 224.79 L 154.23 224.85 C 155.09 224.90 155.83 224.25 155.89 223.39 C 155.94 222.53 155.29 221.79 154.43 221.73 L 153.43 221.67 C 152.56 221.62 151.82 222.27 151.77 223.13 C 151.72 223.99 152.37 224.73 153.23 224.79 Z M 154.20 224.85 L 155.19 224.93 C 156.05 225.00 156.81 224.37 156.88 223.51 C 156.95 222.65 156.32 221.89 155.46 221.82 L 154.46 221.74 C 153.60 221.66 152.85 222.30 152.77 223.16 C 152.70 224.02 153.34 224.77 154.20 224.85 Z M 155.16 224.93 L 156.16 225.03 C 157.01 225.12 157.78 224.50 157.87 223.64 C 157.96 222.78 157.33 222.01 156.48 221.93 L 155.48 221.82 C 154.63 221.73 153.86 222.36 153.77 223.22 C 153.68 224.07 154.31 224.84 155.16 224.93 Z M 156.14 225.03 L 157.13 225.14 C 157.99 225.24 158.76 224.63 158.86 223.77 C 158.96 222.91 158.34 222.14 157.49 222.04 L 156.50 221.93 C 155.64 221.83 154.86 222.44 154.77 223.30 C 154.67 224.16 155.28 224.93 156.14 225.03 Z M 157.12 225.14 L 158.10 225.26 C 158.96 225.37 159.74 224.76 159.84 223.90 C 159.95 223.05 159.34 222.27 158.48 222.16 L 157.50 222.04 C 156.64 221.94 155.86 222.55 155.76 223.40 C 155.65 224.26 156.26 225.04 157.12 225.14 Z M 158.09 225.26 L 159.08 225.39 C 159.94 225.50 160.72 224.90 160.83 224.04 C 160.94 223.19 160.34 222.40 159.48 222.29 L 158.49 222.16 C 157.64 222.05 156.86 222.66 156.75 223.51 C 156.63 224.37 157.24 225.15 158.09 225.26 Z M 159.07 225.39 L 160.06 225.52 C 160.92 225.64 161.70 225.04 161.82 224.19 C 161.94 223.34 161.34 222.55 160.49 222.43 L 159.49 222.29 C 158.64 222.18 157.85 222.77 157.74 223.63 C 157.62 224.48 158.21 225.27 159.07 225.39 Z M 160.05 225.52 L 161.05 225.67 C 161.90 225.79 162.69 225.20 162.82 224.35 C 162.94 223.50 162.35 222.70 161.50 222.58 L 160.50 222.43 C 159.65 222.31 158.86 222.90 158.73 223.75 C 158.61 224.61 159.20 225.40 160.05 225.52 Z M 161.03 225.67 L 162.02 225.82 C 162.87 225.95 163.67 225.37 163.80 224.51 C 163.93 223.66 163.34 222.86 162.49 222.73 L 161.51 222.58 C 160.66 222.45 159.86 223.03 159.73 223.89 C 159.60 224.74 160.18 225.54 161.03 225.67 Z M 162.01 225.82 L 162.99 225.97 C 163.84 226.11 164.65 225.53 164.78 224.68 C 164.92 223.83 164.34 223.03 163.49 222.89 L 162.50 222.73 C 161.65 222.60 160.85 223.18 160.71 224.03 C 160.58 224.88 161.16 225.68 162.01 225.82 Z M 162.99 225.97 L 163.98 226.14 C 164.83 226.28 165.63 225.70 165.77 224.85 C 165.91 224.00 165.34 223.20 164.48 223.06 L 163.49 222.89 C 162.64 222.75 161.84 223.33 161.70 224.18 C 161.56 225.03 162.14 225.83 162.99 225.97 Z M 163.97 226.14 L 164.97 226.30 C 165.82 226.44 166.62 225.87 166.76 225.02 C 166.91 224.17 166.33 223.36 165.48 223.22 L 164.49 223.06 C 163.64 222.91 162.83 223.49 162.69 224.34 C 162.55 225.19 163.12 225.99 163.97 226.14 Z M 164.97 226.30 L 165.97 226.47 C 166.82 226.61 167.62 226.04 167.76 225.19 C 167.91 224.33 167.33 223.53 166.48 223.39 L 165.48 223.22 C 164.63 223.08 163.83 223.65 163.68 224.50 C 163.54 225.35 164.12 226.16 164.97 226.30 Z M 165.97 226.47 L 166.96 226.63 C 167.81 226.78 168.62 226.20 168.76 225.35 C 168.90 224.50 168.33 223.70 167.48 223.56 L 166.48 223.39 C 165.63 223.25 164.83 223.82 164.69 224.67 C 164.54 225.52 165.12 226.33 165.97 226.47 Z M 166.96 226.63 L 167.94 226.80 C 168.79 226.95 169.59 226.37 169.74 225.52 C 169.88 224.67 169.31 223.87 168.46 223.72 L 167.48 223.56 C 166.63 223.41 165.83 223.98 165.68 224.83 C 165.54 225.68 166.11 226.49 166.96 226.63 Z M 167.93 226.80 L 168.90 226.97 C 169.75 227.12 170.56 226.55 170.71 225.70 C 170.86 224.85 170.29 224.04 169.44 223.89 L 168.47 223.72 C 167.62 223.58 166.81 224.15 166.66 224.99 C 166.51 225.84 167.08 226.65 167.93 226.80 Z M 168.90 226.97 L 169.91 227.15 C 170.76 227.30 171.57 226.73 171.72 225.88 C 171.87 225.04 171.30 224.23 170.45 224.07 L 169.44 223.89 C 168.60 223.74 167.79 224.31 167.63 225.16 C 167.48 226.01 168.05 226.82 168.90 226.97 Z M 169.91 227.15 L 170.89 227.32 C 171.74 227.48 172.55 226.91 172.70 226.06 C 172.86 225.21 172.29 224.40 171.44 224.25 L 170.46 224.07 C 169.61 223.92 168.80 224.49 168.64 225.34 C 168.49 226.18 169.06 227.00 169.91 227.15 Z M 170.90 227.33 L 171.86 227.50 C 172.71 227.65 173.52 227.08 173.67 226.23 C 173.82 225.38 173.26 224.57 172.41 224.42 L 171.44 224.25 C 170.59 224.10 169.78 224.67 169.63 225.52 C 169.48 226.36 170.05 227.17 170.90 227.33 Z M 171.87 227.50 L 172.76 227.65 C 173.61 227.80 174.42 227.23 174.57 226.38 C 174.71 225.53 174.14 224.72 173.29 224.57 L 172.40 224.42 C 171.55 224.27 170.74 224.85 170.60 225.70 C 170.45 226.55 171.02 227.35 171.87 227.50 Z M 172.77 227.65 L 173.62 227.79 C 174.47 227.93 175.27 227.36 175.41 226.50 C 175.55 225.65 174.98 224.85 174.13 224.71 L 173.28 224.57 C 172.43 224.43 171.63 225.01 171.49 225.86 C 171.35 226.71 171.92 227.51 172.77 227.65 Z M 173.63 227.79 L 174.55 227.94 C 175.41 228.08 176.21 227.49 176.34 226.64 C 176.48 225.79 175.90 224.99 175.04 224.86 L 174.12 224.71 C 173.27 224.57 172.47 225.15 172.33 226.01 C 172.20 226.86 172.78 227.66 173.63 227.79 Z M 174.56 227.94 L 175.63 228.11 C 176.48 228.24 177.28 227.65 177.41 226.80 C 177.54 225.95 176.96 225.15 176.11 225.02 L 175.04 224.86 C 174.19 224.72 173.39 225.31 173.26 226.16 C 173.12 227.01 173.71 227.81 174.56 227.94 Z M 175.63 228.11 L 176.80 228.28 C 177.65 228.41 178.44 227.83 178.57 226.98 C 178.70 226.12 178.12 225.33 177.27 225.20 L 176.10 225.02 C 175.25 224.89 174.45 225.48 174.32 226.33 C 174.19 227.18 174.78 227.98 175.63 228.11 Z M 176.80 228.28 L 177.72 228.42 C 178.57 228.55 179.37 227.97 179.50 227.12 C 179.63 226.26 179.04 225.47 178.19 225.34 L 177.26 225.20 C 176.41 225.07 175.62 225.65 175.49 226.51 C 175.36 227.36 175.94 228.16 176.80 228.28 Z M 177.72 228.42 L 178.71 228.57 C 179.57 228.70 180.36 228.11 180.49 227.26 C 180.62 226.41 180.03 225.61 179.18 225.49 L 178.19 225.34 C 177.33 225.21 176.54 225.80 176.41 226.65 C 176.28 227.50 176.87 228.30 177.72 228.42 Z M 178.72 228.57 L 179.75 228.73 C 180.60 228.85 181.39 228.27 181.52 227.41 C 181.65 226.56 181.06 225.77 180.21 225.64 L 179.18 225.49 C 178.32 225.36 177.53 225.95 177.40 226.80 C 177.28 227.65 177.86 228.45 178.72 228.57 Z M 179.75 228.73 L 180.79 228.88 C 181.65 229.00 182.44 228.41 182.56 227.56 C 182.69 226.71 182.10 225.91 181.24 225.79 L 180.20 225.64 C 179.35 225.51 178.56 226.10 178.43 226.96 C 178.31 227.81 178.90 228.60 179.75 228.73 Z M 180.80 228.88 L 181.82 229.03 C 182.68 229.15 183.47 228.56 183.59 227.70 C 183.71 226.85 183.12 226.06 182.26 225.94 L 181.24 225.79 C 180.39 225.67 179.60 226.26 179.47 227.11 C 179.35 227.97 179.94 228.76 180.80 228.88 Z M 181.83 229.03 L 182.81 229.16 C 183.66 229.28 184.45 228.68 184.57 227.83 C 184.68 226.98 184.09 226.19 183.23 226.07 L 182.26 225.93 C 181.40 225.82 180.61 226.41 180.50 227.27 C 180.38 228.12 180.97 228.91 181.83 229.03 Z M 182.82 229.16 L 183.86 229.30 C 184.71 229.41 185.50 228.81 185.61 227.96 C 185.72 227.10 185.12 226.32 184.27 226.21 L 183.22 226.07 C 182.37 225.96 181.58 226.56 181.47 227.41 C 181.36 228.27 181.96 229.05 182.82 229.16 Z M 183.87 229.30 L 184.91 229.43 C 185.77 229.53 186.55 228.93 186.65 228.07 C 186.75 227.21 186.15 226.44 185.29 226.33 L 184.25 226.20 C 183.40 226.10 182.62 226.71 182.51 227.56 C 182.41 228.42 183.02 229.20 183.87 229.30 Z M 184.93 229.43 L 185.89 229.54 C 186.75 229.64 187.52 229.02 187.62 228.16 C 187.71 227.30 187.10 226.53 186.24 226.44 L 185.27 226.33 C 184.42 226.23 183.64 226.85 183.55 227.71 C 183.45 228.56 184.07 229.34 184.93 229.43 Z M 185.91 229.54 L 186.85 229.64 C 187.70 229.72 188.47 229.10 188.56 228.24 C 188.64 227.38 188.02 226.62 187.16 226.53 L 186.22 226.43 C 185.36 226.35 184.60 226.97 184.51 227.83 C 184.43 228.69 185.05 229.45 185.91 229.54 Z M 186.86 229.64 L 187.82 229.73 C 188.67 229.81 189.43 229.17 189.51 228.31 C 189.59 227.46 188.96 226.70 188.10 226.62 L 187.15 226.53 C 186.29 226.45 185.53 227.08 185.45 227.94 C 185.37 228.80 186.00 229.56 186.86 229.64 Z M 187.82 229.73 L 188.77 229.81 C 189.63 229.88 190.39 229.25 190.46 228.39 C 190.54 227.53 189.90 226.77 189.04 226.70 L 188.09 226.62 C 187.24 226.54 186.48 227.18 186.40 228.04 C 186.33 228.90 186.96 229.65 187.82 229.73 Z M 188.78 229.81 L 189.70 229.89 C 190.56 229.96 191.31 229.32 191.39 228.46 C 191.46 227.60 190.82 226.85 189.96 226.78 L 189.04 226.70 C 188.18 226.63 187.43 227.26 187.35 228.12 C 187.28 228.98 187.92 229.74 188.78 229.81 Z M 189.70 229.89 L 190.67 229.97 C 191.53 230.04 192.29 229.40 192.36 228.54 C 192.43 227.68 191.79 226.92 190.93 226.85 L 189.96 226.78 C 189.10 226.70 188.34 227.34 188.27 228.20 C 188.20 229.06 188.84 229.82 189.70 229.89 Z M 190.67 229.97 L 191.68 230.05 C 192.54 230.12 193.29 229.48 193.36 228.62 C 193.43 227.76 192.79 227.00 191.93 226.94 L 190.93 226.85 C 190.07 226.79 189.31 227.43 189.24 228.29 C 189.17 229.14 189.82 229.90 190.67 229.97 Z M 191.68 230.05 L 192.72 230.13 C 193.58 230.20 194.33 229.56 194.40 228.70 C 194.47 227.84 193.83 227.09 192.97 227.02 L 191.93 226.94 C 191.07 226.87 190.32 227.51 190.25 228.37 C 190.18 229.23 190.82 229.98 191.68 230.05 Z M 192.72 230.13 L 193.77 230.21 C 194.63 230.28 195.39 229.64 195.45 228.78 C 195.52 227.92 194.88 227.17 194.02 227.10 L 192.97 227.02 C 192.11 226.95 191.36 227.59 191.29 228.45 C 191.22 229.31 191.86 230.06 192.72 230.13 Z M 193.77 230.21 L 194.51 230.27 C 195.37 230.34 196.13 229.70 196.19 228.84 C 196.26 227.98 195.62 227.23 194.76 227.16 L 194.02 227.10 C 193.16 227.03 192.41 227.67 192.34 228.53 C 192.27 229.39 192.92 230.15 193.77 230.21 Z"
      fill="black"
      fill-rule="nonzero" /></svg>