<svg xmlns="http://www.w3.org/2000/svg" width="300" height="300" viewBox="0 0 300 300">
<path d="M 202.81 134.65 L 201.87 134.44 C 201.03 134.25 200.19 134.78 200.00 135.62 C 199.81 136.46 200.34 137.30 201.19 137.48 L 202.13 137.70 C 202.97 137.88 203.81 137.36 203.99 136.51 C 204.18 135.67 203.65 134.84 202.81 134.65 Z M 201.93 134.45 L 200.98 134.20 C 200.15 133.97 199.29 134.46 199.07 135.30 C 198.84 136.13 199.34 136.98 200.17 137.21 L 201.12 137.47 C 201.95 137.69 202.81 137.20 203.03 136.37 C 203.26 135.54 202.77 134.68 201.93 134.45 Z M 201.11 134.24 L 200.14 133.89 C 199.33 133.59 198.43 134.01 198.14 134.82 C 197.85 135.63 198.27 136.53 199.08 136.82 L 200.04 137.17 C 200.85 137.46 201.75 137.05 202.04 136.23 C 202.34 135.42 201.92 134.53 201.11 134.24 Z M 200.28 133.95 L 199.38 133.51 C 198.60 133.14 197.67 133.47 197.30 134.24 C 196.93 135.02 197.25 135.95 198.03 136.33 L 198.93 136.76 C 199.71 137.13 200.64 136.81 201.02 136.03 C 201.39 135.25 201.06 134.32 200.28 133.95 Z M 199.46 133.55 L 198.58 133.06 C 197.82 132.65 196.87 132.92 196.45 133.67 C 196.04 134.43 196.31 135.38 197.06 135.79 L 197.95 136.29 C 198.70 136.70 199.65 136.43 200.07 135.68 C 200.49 134.92 200.22 133.97 199.46 133.55 Z M 198.58 133.07 L 197.70 132.57 C 196.94 132.15 195.99 132.42 195.57 133.17 C 195.15 133.92 195.42 134.87 196.17 135.30 L 197.06 135.79 C 197.81 136.21 198.76 135.94 199.18 135.19 C 199.60 134.44 199.33 133.49 198.58 133.07 Z M 197.63 132.54 L 196.75 132.10 C 195.98 131.71 195.04 132.03 194.66 132.80 C 194.27 133.57 194.59 134.51 195.36 134.89 L 196.24 135.33 C 197.01 135.71 197.95 135.40 198.33 134.63 C 198.72 133.86 198.40 132.92 197.63 132.54 Z M 196.61 132.04 L 195.70 131.69 C 194.90 131.39 193.99 131.79 193.69 132.60 C 193.38 133.40 193.79 134.30 194.59 134.61 L 195.50 134.95 C 196.31 135.26 197.21 134.85 197.52 134.05 C 197.82 133.24 197.42 132.34 196.61 132.04 Z M 195.53 131.64 L 194.60 131.40 C 193.76 131.19 192.91 131.69 192.70 132.53 C 192.49 133.36 192.99 134.21 193.83 134.43 L 194.76 134.66 C 195.60 134.88 196.45 134.37 196.66 133.53 C 196.87 132.70 196.37 131.85 195.53 131.64 Z M 194.44 131.37 L 193.43 131.22 C 192.58 131.09 191.78 131.68 191.65 132.53 C 191.53 133.38 192.11 134.18 192.97 134.30 L 193.98 134.46 C 194.83 134.59 195.63 134.00 195.76 133.15 C 195.88 132.29 195.30 131.50 194.44 131.37 Z M 193.33 131.20 L 192.32 131.12 C 191.46 131.05 190.70 131.69 190.63 132.55 C 190.56 133.41 191.20 134.16 192.06 134.23 L 193.07 134.32 C 193.93 134.39 194.68 133.75 194.75 132.89 C 194.83 132.03 194.19 131.27 193.33 131.20 Z M 192.26 131.12 L 191.25 131.07 C 190.39 131.03 189.66 131.70 189.62 132.56 C 189.58 133.42 190.25 134.15 191.11 134.19 L 192.12 134.24 C 192.98 134.28 193.71 133.61 193.75 132.75 C 193.79 131.89 193.12 131.16 192.26 131.12 Z M 191.23 131.07 L 190.20 131.04 C 189.34 131.01 188.62 131.69 188.59 132.55 C 188.56 133.41 189.24 134.13 190.10 134.16 L 191.13 134.19 C 192.00 134.22 192.72 133.54 192.74 132.68 C 192.77 131.82 192.09 131.10 191.23 131.07 Z M 190.20 131.04 L 189.19 131.01 C 188.33 130.98 187.61 131.65 187.58 132.52 C 187.55 133.38 188.23 134.10 189.09 134.13 L 190.10 134.16 C 190.96 134.19 191.68 133.51 191.71 132.65 C 191.74 131.79 191.06 131.07 190.20 131.04 Z M 189.22 131.01 L 188.19 130.95 C 187.33 130.91 186.60 131.57 186.55 132.43 C 186.51 133.29 187.17 134.03 188.03 134.07 L 189.06 134.13 C 189.92 134.17 190.66 133.51 190.70 132.65 C 190.75 131.79 190.08 131.05 189.22 131.01 Z M 188.25 130.96 L 187.20 130.87 C 186.34 130.79 185.59 131.43 185.51 132.29 C 185.44 133.14 186.07 133.90 186.93 133.98 L 187.98 134.07 C 188.83 134.14 189.59 133.51 189.67 132.65 C 189.74 131.79 189.11 131.03 188.25 130.96 Z M 187.26 130.87 L 186.31 130.75 C 185.45 130.64 184.67 131.25 184.56 132.10 C 184.45 132.96 185.06 133.74 185.91 133.85 L 186.87 133.97 C 187.72 134.08 188.51 133.47 188.61 132.62 C 188.72 131.76 188.12 130.98 187.26 130.87 Z M 186.36 130.76 L 185.44 130.61 C 184.59 130.47 183.79 131.05 183.65 131.90 C 183.51 132.75 184.09 133.55 184.94 133.69 L 185.86 133.84 C 186.71 133.98 187.51 133.40 187.65 132.55 C 187.79 131.70 187.21 130.90 186.36 130.76 Z M 185.48 130.62 L 184.52 130.44 C 183.67 130.28 182.85 130.84 182.69 131.68 C 182.54 132.53 183.09 133.35 183.94 133.51 L 184.91 133.69 C 185.75 133.84 186.57 133.29 186.73 132.44 C 186.89 131.59 186.33 130.77 185.48 130.62 Z M 184.52 130.44 L 183.55 130.25 C 182.70 130.09 181.88 130.64 181.72 131.49 C 181.56 132.34 182.11 133.15 182.96 133.32 L 183.93 133.50 C 184.78 133.67 185.60 133.11 185.76 132.27 C 185.92 131.42 185.37 130.60 184.52 130.44 Z M 183.52 130.25 L 182.52 130.07 C 181.67 129.92 180.86 130.48 180.71 131.33 C 180.56 132.18 181.13 132.99 181.97 133.14 L 182.98 133.32 C 183.83 133.47 184.64 132.91 184.79 132.06 C 184.94 131.21 184.37 130.40 183.52 130.25 Z M 182.48 130.06 L 181.62 129.93 C 180.77 129.81 179.98 130.39 179.85 131.25 C 179.72 132.10 180.31 132.89 181.16 133.02 L 182.02 133.15 C 182.87 133.28 183.66 132.69 183.79 131.84 C 183.92 130.98 183.33 130.19 182.48 130.06 Z M 181.57 129.93 L 180.67 129.82 C 179.82 129.72 179.04 130.34 178.94 131.19 C 178.84 132.05 179.45 132.82 180.31 132.92 L 181.21 133.03 C 182.07 133.13 182.84 132.51 182.94 131.66 C 183.04 130.80 182.43 130.03 181.57 129.93 Z M 180.62 129.82 L 179.60 129.73 C 178.74 129.66 177.99 130.30 177.92 131.16 C 177.85 132.02 178.48 132.77 179.34 132.84 L 180.36 132.93 C 181.22 133.00 181.98 132.36 182.05 131.50 C 182.12 130.64 181.48 129.89 180.62 129.82 Z M 179.55 129.73 L 178.37 129.67 C 177.51 129.62 176.77 130.28 176.73 131.15 C 176.68 132.01 177.35 132.74 178.21 132.79 L 179.39 132.85 C 180.25 132.89 180.99 132.23 181.03 131.37 C 181.08 130.51 180.42 129.77 179.55 129.73 Z M 178.34 129.67 L 177.35 129.64 C 176.49 129.61 175.77 130.29 175.74 131.15 C 175.72 132.01 176.40 132.73 177.26 132.76 L 178.24 132.79 C 179.10 132.81 179.82 132.14 179.85 131.27 C 179.88 130.41 179.20 129.69 178.34 129.67 Z M 177.33 129.64 L 176.31 129.62 C 175.45 129.60 174.74 130.29 174.72 131.15 C 174.71 132.01 175.39 132.72 176.25 132.74 L 177.28 132.76 C 178.14 132.77 178.85 132.09 178.87 131.23 C 178.88 130.36 178.20 129.65 177.33 129.64 Z M 176.30 129.62 L 175.25 129.60 C 174.39 129.60 173.68 130.29 173.67 131.15 C 173.66 132.01 174.35 132.72 175.22 132.73 L 176.27 132.74 C 177.13 132.75 177.84 132.06 177.85 131.19 C 177.85 130.33 177.16 129.63 176.30 129.62 Z M 175.24 129.60 L 174.20 129.60 C 173.34 129.59 172.64 130.29 172.63 131.15 C 172.63 132.01 173.32 132.72 174.18 132.72 L 175.22 132.73 C 176.09 132.73 176.79 132.04 176.79 131.17 C 176.80 130.31 176.10 129.61 175.24 129.60 Z M 174.19 129.60 L 173.20 129.60 C 172.34 129.60 171.64 130.29 171.64 131.16 C 171.64 132.02 172.34 132.72 173.20 132.72 L 174.19 132.72 C 175.05 132.72 175.75 132.03 175.75 131.16 C 175.75 130.30 175.06 129.60 174.19 129.60 Z M 173.20 129.60 L 172.21 129.60 C 171.35 129.60 170.65 130.30 170.65 131.16 C 170.65 132.02 171.35 132.72 172.21 132.72 L 173.20 132.72 C 174.06 132.72 174.76 132.02 174.76 131.16 C 174.76 130.30 174.06 129.60 173.20 129.60 Z M 172.20 129.60 L 171.10 129.60 C 170.24 129.60 169.54 130.30 169.54 131.17 C 169.54 132.03 170.24 132.73 171.11 132.72 L 172.21 132.72 C 173.08 132.72 173.77 132.02 173.77 131.15 C 173.77 130.29 173.07 129.59 172.20 129.60 Z M 171.07 129.60 L 170.11 129.62 C 169.25 129.63 168.56 130.34 168.58 131.21 C 168.59 132.07 169.30 132.76 170.16 132.74 L 171.13 132.72 C 171.99 132.71 172.68 132.00 172.66 131.13 C 172.65 130.27 171.94 129.59 171.07 129.60 Z M 170.07 129.62 L 169.15 129.66 C 168.29 129.70 167.63 130.43 167.66 131.29 C 167.70 132.15 168.43 132.82 169.30 132.78 L 170.21 132.74 C 171.07 132.70 171.74 131.97 171.70 131.11 C 171.66 130.25 170.93 129.58 170.07 129.62 Z M 169.10 129.66 L 168.17 129.74 C 167.31 129.81 166.67 130.56 166.74 131.42 C 166.81 132.28 167.56 132.92 168.42 132.85 L 169.35 132.78 C 170.21 132.71 170.85 131.95 170.78 131.09 C 170.71 130.24 169.96 129.60 169.10 129.66 Z M 168.13 129.74 L 167.17 129.85 C 166.31 129.94 165.69 130.71 165.78 131.57 C 165.88 132.43 166.65 133.05 167.51 132.95 L 168.47 132.85 C 169.32 132.75 169.94 131.98 169.85 131.13 C 169.75 130.27 168.98 129.65 168.13 129.74 Z M 167.14 129.85 L 166.14 129.98 C 165.28 130.09 164.67 130.87 164.78 131.72 C 164.89 132.58 165.67 133.18 166.52 133.08 L 167.53 132.95 C 168.39 132.84 168.99 132.06 168.88 131.21 C 168.78 130.35 168.00 129.75 167.14 129.85 Z M 166.13 129.98 L 165.10 130.11 C 164.25 130.23 163.65 131.01 163.76 131.86 C 163.87 132.72 164.66 133.32 165.51 133.21 L 166.53 133.08 C 167.39 132.96 167.99 132.18 167.88 131.32 C 167.77 130.47 166.98 129.87 166.13 129.98 Z M 165.11 130.11 L 164.09 130.24 C 163.24 130.35 162.63 131.13 162.74 131.99 C 162.85 132.85 163.63 133.45 164.49 133.34 L 165.51 133.21 C 166.36 133.10 166.97 132.32 166.86 131.46 C 166.75 130.61 165.96 130.00 165.11 130.11 Z M 164.11 130.24 L 163.07 130.36 C 162.22 130.46 161.60 131.24 161.70 132.09 C 161.80 132.95 162.58 133.56 163.43 133.46 L 164.47 133.34 C 165.33 133.24 165.94 132.47 165.84 131.61 C 165.74 130.75 164.97 130.14 164.11 130.24 Z M 163.10 130.36 L 162.10 130.46 C 161.24 130.55 160.61 131.31 160.70 132.17 C 160.79 133.03 161.55 133.65 162.41 133.57 L 163.41 133.47 C 164.27 133.38 164.89 132.61 164.81 131.76 C 164.72 130.90 163.96 130.27 163.10 130.36 Z M 162.13 130.46 L 161.15 130.54 C 160.29 130.61 159.65 131.36 159.72 132.22 C 159.79 133.08 160.55 133.72 161.41 133.65 L 162.38 133.57 C 163.24 133.50 163.88 132.75 163.81 131.89 C 163.74 131.03 162.99 130.39 162.13 130.46 Z M 161.19 130.53 L 160.22 130.59 C 159.36 130.64 158.70 131.38 158.75 132.24 C 158.80 133.10 159.54 133.76 160.40 133.71 L 161.37 133.65 C 162.23 133.60 162.89 132.86 162.84 132.00 C 162.79 131.14 162.05 130.48 161.19 130.53 Z M 160.26 130.59 L 159.23 130.62 C 158.37 130.65 157.70 131.37 157.73 132.24 C 157.76 133.10 158.48 133.77 159.34 133.74 L 160.36 133.71 C 161.22 133.68 161.90 132.96 161.87 132.10 C 161.84 131.23 161.12 130.56 160.26 130.59 Z M 159.26 130.62 L 158.26 130.64 C 157.40 130.65 156.71 131.36 156.72 132.22 C 156.74 133.08 157.45 133.77 158.31 133.76 L 159.31 133.74 C 160.17 133.73 160.86 133.02 160.85 132.16 C 160.84 131.30 160.13 130.61 159.26 130.62 Z M 158.28 130.64 L 157.30 130.64 C 156.44 130.64 155.74 131.35 155.74 132.21 C 155.75 133.07 156.45 133.77 157.31 133.76 L 158.29 133.76 C 159.15 133.76 159.85 133.06 159.85 132.19 C 159.84 131.33 159.14 130.63 158.28 130.64 Z M 157.30 130.64 L 156.30 130.64 C 155.43 130.64 154.74 131.34 154.74 132.20 C 154.74 133.07 155.44 133.76 156.30 133.76 L 157.31 133.76 C 158.17 133.76 158.87 133.06 158.87 132.20 C 158.86 131.34 158.17 130.64 157.30 130.64 Z M 156.28 130.64 L 155.27 130.65 C 154.40 130.66 153.71 131.37 153.72 132.23 C 153.74 133.10 154.44 133.79 155.30 133.78 L 156.32 133.76 C 157.18 133.75 157.87 133.05 157.86 132.18 C 157.85 131.32 157.14 130.63 156.28 130.64 Z M 155.22 130.66 L 154.23 130.70 C 153.37 130.73 152.70 131.46 152.74 132.32 C 152.78 133.19 153.51 133.85 154.37 133.82 L 155.35 133.77 C 156.21 133.74 156.88 133.01 156.85 132.15 C 156.81 131.29 156.08 130.62 155.22 130.66 Z M 154.15 130.70 L 153.18 130.79 C 152.32 130.88 151.69 131.64 151.77 132.50 C 151.85 133.35 152.61 133.98 153.47 133.90 L 154.45 133.81 C 155.30 133.73 155.93 132.97 155.85 132.11 C 155.77 131.25 155.01 130.62 154.15 130.70 Z M 153.08 130.81 L 152.10 130.96 C 151.25 131.10 150.67 131.90 150.80 132.75 C 150.94 133.60 151.74 134.18 152.59 134.05 L 153.57 133.89 C 154.42 133.75 155.00 132.95 154.87 132.10 C 154.73 131.25 153.93 130.67 153.08 130.81 Z M 152.00 130.98 L 151.03 131.21 C 150.19 131.40 149.66 132.24 149.85 133.08 C 150.04 133.92 150.88 134.44 151.72 134.25 L 152.69 134.03 C 153.53 133.84 154.06 133.00 153.87 132.16 C 153.67 131.32 152.84 130.79 152.00 130.98 Z M 150.93 131.23 L 149.98 131.51 C 149.15 131.76 148.68 132.62 148.92 133.45 C 149.16 134.28 150.03 134.75 150.86 134.51 L 151.81 134.23 C 152.64 133.98 153.11 133.11 152.87 132.29 C 152.63 131.46 151.76 130.99 150.93 131.23 Z M 149.90 131.54 L 149.03 131.84 C 148.22 132.13 147.80 133.02 148.08 133.84 C 148.37 134.65 149.26 135.07 150.08 134.79 L 150.94 134.48 C 151.75 134.19 152.18 133.30 151.89 132.49 C 151.60 131.68 150.71 131.25 149.90 131.54 Z M 148.97 131.87 L 148.07 132.24 C 147.27 132.56 146.89 133.47 147.21 134.27 C 147.54 135.07 148.45 135.45 149.25 135.13 L 150.14 134.76 C 150.94 134.43 151.33 133.52 151.00 132.73 C 150.68 131.93 149.76 131.54 148.97 131.87 Z M 148.01 132.26 L 147.05 132.70 C 146.26 133.06 145.92 133.98 146.28 134.77 C 146.64 135.55 147.56 135.90 148.35 135.54 L 149.31 135.10 C 150.09 134.74 150.44 133.82 150.08 133.03 C 149.72 132.25 148.79 131.90 148.01 132.26 Z M 147.00 132.72 L 146.09 133.17 C 145.32 133.56 145.00 134.49 145.39 135.27 C 145.77 136.04 146.71 136.35 147.48 135.97 L 148.39 135.52 C 149.16 135.13 149.48 134.20 149.10 133.43 C 148.71 132.65 147.78 132.34 147.00 132.72 Z M 146.06 133.19 L 145.24 133.62 C 144.47 134.02 144.18 134.97 144.58 135.73 C 144.98 136.49 145.92 136.79 146.69 136.39 L 147.51 135.96 C 148.27 135.56 148.57 134.61 148.17 133.85 C 147.77 133.08 146.82 132.79 146.06 133.19 Z M 145.21 133.63 L 144.35 134.11 C 143.59 134.52 143.31 135.47 143.73 136.22 C 144.14 136.98 145.09 137.26 145.84 136.85 L 146.71 136.37 C 147.47 135.96 147.74 135.01 147.33 134.26 C 146.92 133.50 145.97 133.22 145.21 133.63 Z M 144.33 134.12 L 143.43 134.62 C 142.68 135.05 142.41 136.00 142.84 136.75 C 143.26 137.50 144.22 137.77 144.97 137.34 L 145.86 136.84 C 146.61 136.41 146.88 135.46 146.45 134.71 C 146.03 133.96 145.08 133.69 144.33 134.12 Z M 143.41 134.64 L 142.49 135.17 C 141.75 135.61 141.49 136.56 141.93 137.31 C 142.36 138.05 143.32 138.30 144.06 137.87 L 144.98 137.33 C 145.73 136.90 145.98 135.94 145.55 135.20 C 145.11 134.45 144.16 134.20 143.41 134.64 Z M 142.47 135.18 L 141.62 135.69 C 140.88 136.14 140.64 137.10 141.08 137.84 C 141.53 138.58 142.48 138.82 143.22 138.37 L 144.08 137.86 C 144.82 137.42 145.06 136.46 144.62 135.72 C 144.17 134.98 143.21 134.74 142.47 135.18 Z M 141.61 135.70 L 140.82 136.18 C 140.08 136.63 139.85 137.60 140.30 138.33 C 140.75 139.07 141.71 139.30 142.45 138.85 L 143.24 138.37 C 143.97 137.92 144.20 136.96 143.75 136.22 C 143.30 135.48 142.34 135.25 141.61 135.70 Z M 140.81 136.19 L 140.00 136.69 C 139.27 137.14 139.04 138.11 139.49 138.84 C 139.95 139.57 140.91 139.80 141.64 139.35 L 142.45 138.84 C 143.19 138.39 143.41 137.43 142.96 136.69 C 142.51 135.96 141.54 135.74 140.81 136.19 Z M 140.00 136.69 L 139.16 137.22 C 138.43 137.67 138.20 138.63 138.66 139.37 C 139.11 140.10 140.08 140.32 140.81 139.87 L 141.65 139.34 C 142.38 138.89 142.60 137.92 142.15 137.19 C 141.69 136.46 140.73 136.24 140.00 136.69 Z M 139.16 137.22 L 138.28 137.76 C 137.55 138.22 137.33 139.18 137.78 139.91 C 138.24 140.64 139.20 140.87 139.93 140.41 L 140.81 139.87 C 141.54 139.41 141.76 138.45 141.31 137.72 C 140.85 136.98 139.89 136.76 139.16 137.22 Z M 138.28 137.76 L 137.36 138.33 C 136.63 138.78 136.40 139.75 136.86 140.48 C 137.31 141.21 138.27 141.44 139.01 140.99 L 139.93 140.41 C 140.66 139.96 140.89 139.00 140.43 138.26 C 139.98 137.53 139.02 137.31 138.28 137.76 Z M 137.37 138.33 L 136.46 138.88 C 135.73 139.33 135.50 140.29 135.95 141.03 C 136.40 141.76 137.36 141.99 138.09 141.54 L 139.00 140.99 C 139.73 140.54 139.97 139.58 139.51 138.84 C 139.06 138.11 138.10 137.88 137.37 138.33 Z M 136.47 138.88 L 135.59 139.41 C 134.85 139.86 134.61 140.82 135.06 141.56 C 135.51 142.30 136.47 142.53 137.21 142.08 L 138.09 141.55 C 138.82 141.10 139.06 140.14 138.61 139.40 C 138.16 138.67 137.20 138.43 136.47 138.88 Z M 135.59 139.41 L 134.69 139.95 C 133.95 140.39 133.71 141.35 134.16 142.09 C 134.60 142.83 135.56 143.07 136.30 142.63 L 137.20 142.09 C 137.94 141.64 138.18 140.68 137.73 139.94 C 137.29 139.21 136.33 138.97 135.59 139.41 Z M 134.70 139.95 L 133.80 140.48 C 133.06 140.92 132.81 141.88 133.26 142.62 C 133.70 143.36 134.65 143.61 135.39 143.17 L 136.29 142.63 C 137.04 142.19 137.28 141.23 136.84 140.49 C 136.40 139.75 135.44 139.51 134.70 139.95 Z M 133.81 140.48 L 132.92 141.00 C 132.18 141.43 131.93 142.39 132.37 143.13 C 132.80 143.88 133.76 144.12 134.50 143.69 L 135.39 143.17 C 136.13 142.73 136.38 141.78 135.94 141.03 C 135.51 140.29 134.55 140.04 133.81 140.48 Z M 132.93 140.99 L 132.08 141.48 C 131.34 141.91 131.08 142.87 131.51 143.61 C 131.95 144.36 132.90 144.62 133.65 144.18 L 134.50 143.69 C 135.24 143.26 135.50 142.31 135.07 141.56 C 134.63 140.81 133.68 140.56 132.93 140.99 Z M 132.09 141.47 L 131.30 141.93 C 130.55 142.35 130.28 143.31 130.71 144.06 C 131.14 144.81 132.09 145.07 132.84 144.64 L 133.64 144.19 C 134.39 143.76 134.65 142.81 134.22 142.06 C 133.80 141.31 132.84 141.05 132.09 141.47 Z M 131.31 141.92 L 130.33 142.46 C 129.58 142.88 129.30 143.83 129.72 144.58 C 130.14 145.34 131.09 145.61 131.84 145.19 L 132.82 144.65 C 133.58 144.24 133.85 143.29 133.43 142.53 C 133.02 141.78 132.07 141.50 131.31 141.92 Z M 130.35 142.45 L 129.37 142.97 C 128.61 143.38 128.32 144.32 128.72 145.09 C 129.13 145.85 130.07 146.13 130.84 145.73 L 131.82 145.21 C 132.58 144.80 132.87 143.85 132.46 143.09 C 132.06 142.33 131.11 142.04 130.35 142.45 Z M 129.38 142.97 L 128.52 143.41 C 127.76 143.81 127.46 144.75 127.86 145.52 C 128.26 146.28 129.20 146.58 129.96 146.18 L 130.82 145.74 C 131.59 145.34 131.88 144.40 131.49 143.63 C 131.09 142.87 130.15 142.57 129.38 142.97 Z M 128.52 143.41 L 127.75 143.82 C 126.98 144.22 126.69 145.16 127.09 145.92 C 127.49 146.69 128.43 146.98 129.20 146.58 L 129.97 146.18 C 130.73 145.78 131.03 144.84 130.63 144.07 C 130.23 143.31 129.28 143.02 128.52 143.41 Z M 127.72 143.83 L 126.96 144.25 C 126.20 144.66 125.92 145.61 126.33 146.37 C 126.75 147.12 127.70 147.40 128.45 146.99 L 129.22 146.57 C 129.98 146.16 130.26 145.21 129.84 144.45 C 129.43 143.70 128.48 143.42 127.72 143.83 Z M 126.91 144.28 L 126.05 144.78 C 125.31 145.22 125.06 146.17 125.50 146.92 C 125.94 147.66 126.90 147.91 127.64 147.47 L 128.50 146.97 C 129.24 146.53 129.49 145.57 129.05 144.83 C 128.61 144.08 127.65 143.84 126.91 144.28 Z M 126.00 144.81 L 125.17 145.35 C 124.44 145.82 124.23 146.78 124.70 147.51 C 125.17 148.23 126.13 148.44 126.86 147.98 L 127.69 147.44 C 128.42 146.97 128.63 146.00 128.16 145.28 C 127.69 144.55 126.73 144.35 126.00 144.81 Z M 125.11 145.39 L 124.29 145.97 C 123.59 146.46 123.42 147.44 123.91 148.14 C 124.41 148.85 125.39 149.02 126.09 148.52 L 126.91 147.94 C 127.62 147.44 127.78 146.47 127.29 145.76 C 126.79 145.06 125.82 144.89 125.11 145.39 Z M 124.24 146.01 L 123.46 146.60 C 122.78 147.13 122.65 148.11 123.18 148.79 C 123.71 149.47 124.69 149.60 125.37 149.08 L 126.14 148.48 C 126.83 147.95 126.95 146.97 126.43 146.29 C 125.90 145.61 124.92 145.48 124.24 146.01 Z M 123.41 146.64 L 122.66 147.27 C 122.00 147.83 121.91 148.81 122.47 149.47 C 123.02 150.13 124.01 150.22 124.67 149.67 L 125.42 149.03 C 126.08 148.48 126.17 147.50 125.61 146.84 C 125.06 146.17 124.08 146.09 123.41 146.64 Z M 122.61 147.32 L 121.87 148.00 C 121.23 148.58 121.19 149.57 121.77 150.20 C 122.35 150.84 123.34 150.88 123.97 150.30 L 124.72 149.62 C 125.35 149.04 125.40 148.05 124.82 147.42 C 124.24 146.78 123.25 146.73 122.61 147.32 Z M 121.82 148.04 L 121.08 148.78 C 120.47 149.38 120.47 150.37 121.08 150.98 C 121.69 151.59 122.68 151.59 123.29 150.99 L 124.02 150.25 C 124.63 149.64 124.63 148.66 124.03 148.05 C 123.42 147.44 122.43 147.43 121.82 148.04 Z M 121.04 148.82 L 120.40 149.52 C 119.82 150.15 119.86 151.14 120.49 151.72 C 121.13 152.31 122.11 152.27 122.70 151.63 L 123.34 150.94 C 123.92 150.30 123.88 149.32 123.25 148.73 C 122.61 148.15 121.62 148.19 121.04 148.82 Z M 120.36 149.56 L 119.74 150.29 C 119.18 150.94 119.25 151.93 119.91 152.49 C 120.56 153.05 121.55 152.97 122.11 152.32 L 122.74 151.59 C 123.30 150.93 123.22 149.95 122.56 149.39 C 121.91 148.83 120.92 148.90 120.36 149.56 Z M 119.71 150.33 L 119.08 151.11 C 118.54 151.78 118.64 152.76 119.32 153.30 C 119.99 153.84 120.97 153.74 121.51 153.06 L 122.14 152.28 C 122.68 151.61 122.57 150.63 121.90 150.09 C 121.23 149.55 120.25 149.65 119.71 150.33 Z M 119.05 151.14 L 118.42 151.98 C 117.89 152.66 118.02 153.64 118.71 154.17 C 119.40 154.69 120.37 154.56 120.90 153.87 L 121.54 153.03 C 122.06 152.35 121.93 151.37 121.24 150.85 C 120.56 150.32 119.58 150.45 119.05 151.14 Z M 118.40 152.00 L 117.80 152.81 C 117.29 153.51 117.44 154.48 118.14 154.99 C 118.84 155.50 119.81 155.35 120.32 154.66 L 120.92 153.85 C 121.43 153.15 121.27 152.17 120.58 151.66 C 119.88 151.15 118.91 151.31 118.40 152.00 Z M 117.79 152.83 L 117.23 153.61 C 116.74 154.32 116.90 155.29 117.60 155.79 C 118.31 156.29 119.28 156.12 119.78 155.42 L 120.34 154.64 C 120.83 153.93 120.67 152.96 119.97 152.46 C 119.26 151.96 118.29 152.13 117.79 152.83 Z M 117.22 153.63 L 116.66 154.45 C 116.17 155.16 116.35 156.13 117.06 156.62 C 117.77 157.11 118.74 156.93 119.23 156.22 L 119.79 155.40 C 120.28 154.69 120.10 153.72 119.39 153.23 C 118.68 152.74 117.71 152.92 117.22 153.63 Z M 116.65 154.47 L 116.08 155.32 C 115.60 156.03 115.80 157.00 116.51 157.48 C 117.23 157.96 118.20 157.77 118.68 157.05 L 119.24 156.20 C 119.72 155.48 119.53 154.51 118.81 154.04 C 118.09 153.56 117.13 153.75 116.65 154.47 Z M 116.07 155.33 L 115.51 156.20 C 115.04 156.93 115.25 157.89 115.97 158.36 C 116.70 158.83 117.66 158.62 118.13 157.90 L 118.69 157.03 C 119.16 156.30 118.95 155.34 118.23 154.87 C 117.50 154.40 116.54 154.61 116.07 155.33 Z M 115.50 156.22 L 114.94 157.11 C 114.49 157.84 114.71 158.80 115.44 159.26 C 116.17 159.72 117.13 159.49 117.59 158.76 L 118.14 157.88 C 118.60 157.15 118.38 156.19 117.65 155.73 C 116.92 155.27 115.95 155.49 115.50 156.22 Z M 114.93 157.13 L 114.39 158.01 C 113.95 158.75 114.18 159.71 114.92 160.16 C 115.66 160.60 116.62 160.37 117.07 159.63 L 117.60 158.74 C 118.05 158.01 117.81 157.05 117.07 156.60 C 116.34 156.15 115.38 156.39 114.93 157.13 Z M 114.38 158.03 L 113.86 158.92 C 113.43 159.66 113.68 160.62 114.42 161.05 C 115.17 161.49 116.12 161.24 116.56 160.50 L 117.08 159.61 C 117.51 158.86 117.26 157.91 116.52 157.47 C 115.77 157.04 114.82 157.29 114.38 158.03 Z M 113.85 158.94 L 113.36 159.82 C 112.93 160.57 113.20 161.52 113.95 161.94 C 114.70 162.37 115.65 162.10 116.07 161.35 L 116.57 160.48 C 117.00 159.73 116.73 158.77 115.98 158.35 C 115.23 157.92 114.28 158.19 113.85 158.94 Z M 113.34 159.84 L 112.87 160.70 C 112.46 161.46 112.74 162.40 113.50 162.82 C 114.25 163.23 115.20 162.95 115.61 162.20 L 116.08 161.33 C 116.50 160.58 116.22 159.63 115.46 159.22 C 114.71 158.80 113.76 159.08 113.34 159.84 Z M 112.86 160.72 L 112.42 161.56 C 112.02 162.32 112.32 163.26 113.08 163.66 C 113.84 164.07 114.79 163.77 115.19 163.01 L 115.63 162.17 C 116.03 161.41 115.73 160.47 114.97 160.07 C 114.21 159.66 113.26 159.96 112.86 160.72 Z M 112.41 161.58 L 111.92 162.56 C 111.53 163.33 111.84 164.26 112.62 164.65 C 113.39 165.04 114.32 164.73 114.71 163.96 L 115.20 162.98 C 115.59 162.21 115.28 161.27 114.51 160.89 C 113.73 160.50 112.80 160.81 112.41 161.58 Z M 111.91 162.58 L 111.46 163.52 C 111.09 164.30 111.42 165.23 112.20 165.60 C 112.97 165.97 113.91 165.64 114.28 164.87 L 114.72 163.93 C 115.10 163.15 114.77 162.22 113.99 161.85 C 113.21 161.48 112.28 161.81 111.91 162.58 Z M 111.45 163.54 L 111.04 164.43 C 110.68 165.22 111.03 166.14 111.81 166.50 C 112.60 166.86 113.52 166.52 113.88 165.73 L 114.29 164.84 C 114.65 164.06 114.30 163.13 113.52 162.77 C 112.73 162.41 111.81 162.76 111.45 163.54 Z M 111.03 164.45 L 110.66 165.30 C 110.31 166.09 110.66 167.01 111.45 167.36 C 112.24 167.71 113.16 167.35 113.51 166.56 L 113.89 165.72 C 114.24 164.93 113.88 164.01 113.09 163.66 C 112.31 163.31 111.38 163.66 111.03 164.45 Z M 110.65 165.31 L 110.28 166.18 C 109.93 166.97 110.29 167.89 111.09 168.23 C 111.88 168.57 112.80 168.21 113.14 167.42 L 113.52 166.55 C 113.86 165.76 113.50 164.84 112.71 164.50 C 111.92 164.16 111.00 164.52 110.65 165.31 Z M 110.27 166.19 L 109.89 167.08 C 109.56 167.87 109.93 168.79 110.72 169.12 C 111.52 169.46 112.43 169.09 112.77 168.30 L 113.15 167.41 C 113.48 166.61 113.11 165.70 112.32 165.36 C 111.52 165.03 110.61 165.40 110.27 166.19 Z M 109.88 167.10 L 109.52 168.01 C 109.19 168.81 109.58 169.72 110.38 170.04 C 111.18 170.37 112.09 169.98 112.41 169.18 L 112.78 168.27 C 113.10 167.47 112.72 166.56 111.92 166.24 C 111.12 165.92 110.21 166.30 109.88 167.10 Z M 109.50 168.04 L 109.13 169.02 C 108.83 169.82 109.23 170.73 110.04 171.03 C 110.85 171.34 111.75 170.93 112.05 170.13 L 112.42 169.15 C 112.73 168.34 112.32 167.44 111.52 167.14 C 110.71 166.83 109.81 167.24 109.50 168.04 Z M 109.12 169.05 L 108.79 169.98 C 108.50 170.79 108.93 171.69 109.74 171.97 C 110.55 172.26 111.45 171.84 111.73 171.03 L 112.07 170.09 C 112.35 169.28 111.93 168.39 111.12 168.10 C 110.30 167.81 109.41 168.24 109.12 169.05 Z M 108.78 170.00 L 108.46 170.95 C 108.19 171.77 108.63 172.65 109.44 172.93 C 110.26 173.21 111.15 172.77 111.42 171.95 L 111.74 171.00 C 112.02 170.19 111.58 169.30 110.76 169.02 C 109.95 168.75 109.06 169.19 108.78 170.00 Z M 108.46 170.97 L 108.14 171.95 C 107.88 172.77 108.33 173.65 109.15 173.91 C 109.97 174.18 110.85 173.73 111.11 172.91 L 111.43 171.93 C 111.69 171.11 111.24 170.23 110.42 169.97 C 109.60 169.70 108.72 170.15 108.46 170.97 Z M 108.14 171.96 L 107.84 172.94 C 107.58 173.76 108.04 174.64 108.86 174.89 C 109.69 175.15 110.56 174.69 110.82 173.86 L 111.12 172.89 C 111.37 172.07 110.91 171.19 110.09 170.94 C 109.27 170.68 108.39 171.14 108.14 171.96 Z M 107.83 172.96 L 107.54 173.92 C 107.30 174.74 107.77 175.61 108.60 175.86 C 109.42 176.10 110.29 175.63 110.54 174.81 L 110.82 173.85 C 111.07 173.02 110.60 172.15 109.77 171.91 C 108.94 171.66 108.08 172.13 107.83 172.96 Z M 107.54 173.94 L 107.25 174.97 C 107.01 175.80 107.49 176.66 108.32 176.89 C 109.15 177.13 110.02 176.65 110.25 175.82 L 110.54 174.79 C 110.78 173.96 110.30 173.09 109.47 172.86 C 108.64 172.62 107.77 173.11 107.54 173.94 Z M 107.24 174.99 L 106.98 175.96 C 106.76 176.79 107.25 177.65 108.08 177.87 C 108.92 178.10 109.77 177.60 110.00 176.77 L 110.26 175.80 C 110.48 174.96 109.99 174.11 109.15 173.88 C 108.32 173.66 107.46 174.15 107.24 174.99 Z M 106.98 175.98 L 106.74 176.91 C 106.52 177.75 107.03 178.60 107.86 178.81 C 108.70 179.03 109.55 178.52 109.76 177.69 L 110.00 176.75 C 110.21 175.92 109.71 175.07 108.87 174.85 C 108.04 174.64 107.19 175.14 106.98 175.98 Z M 106.73 176.93 L 106.51 177.84 C 106.31 178.68 106.82 179.52 107.66 179.73 C 108.49 179.93 109.34 179.42 109.54 178.58 L 109.77 177.67 C 109.97 176.83 109.46 175.99 108.62 175.78 C 107.78 175.58 106.94 176.09 106.73 176.93 Z M 106.51 177.85 L 106.30 178.76 C 106.10 179.60 106.62 180.44 107.46 180.63 C 108.30 180.83 109.14 180.31 109.34 179.47 L 109.55 178.57 C 109.74 177.73 109.22 176.89 108.38 176.69 C 107.54 176.49 106.70 177.02 106.51 177.85 Z M 106.29 178.78 L 106.08 179.71 C 105.90 180.55 106.43 181.39 107.27 181.57 C 108.11 181.76 108.95 181.23 109.13 180.39 L 109.34 179.45 C 109.53 178.61 109.00 177.78 108.15 177.59 C 107.31 177.40 106.48 177.93 106.29 178.78 Z M 106.08 179.73 L 105.87 180.73 C 105.70 181.57 106.24 182.40 107.09 182.57 C 107.93 182.75 108.76 182.21 108.93 181.36 L 109.14 180.36 C 109.31 179.52 108.77 178.69 107.92 178.52 C 107.08 178.35 106.25 178.89 106.08 179.73 Z M 105.87 180.75 L 105.66 181.83 C 105.50 182.68 106.05 183.49 106.90 183.66 C 107.75 183.82 108.57 183.26 108.73 182.42 L 108.94 181.34 C 109.10 180.49 108.54 179.67 107.70 179.51 C 106.85 179.35 106.03 179.90 105.87 180.75 Z M 105.66 181.85 L 105.50 182.73 C 105.35 183.58 105.91 184.39 106.76 184.54 C 107.61 184.69 108.42 184.13 108.57 183.28 L 108.73 182.40 C 108.88 181.55 108.32 180.74 107.47 180.59 C 106.62 180.43 105.81 181.00 105.66 181.85 Z M 105.50 182.75 L 105.34 183.69 C 105.20 184.54 105.77 185.34 106.62 185.48 C 107.47 185.63 108.28 185.05 108.42 184.20 L 108.58 183.26 C 108.72 182.41 108.15 181.61 107.30 181.46 C 106.45 181.32 105.64 181.89 105.50 182.75 Z M 105.34 183.70 L 105.18 184.69 C 105.05 185.54 105.63 186.34 106.48 186.48 C 107.33 186.61 108.13 186.03 108.27 185.18 L 108.42 184.19 C 108.56 183.34 107.97 182.54 107.12 182.40 C 106.27 182.27 105.47 182.85 105.34 183.70 Z M 105.18 184.71 L 105.03 185.74 C 104.90 186.59 105.49 187.39 106.35 187.51 C 107.20 187.64 107.99 187.05 108.12 186.19 L 108.27 185.16 C 108.39 184.31 107.80 183.52 106.95 183.39 C 106.10 183.27 105.30 183.86 105.18 184.71 Z M 105.03 185.76 L 104.88 186.82 C 104.77 187.68 105.37 188.46 106.22 188.58 C 107.08 188.69 107.86 188.09 107.98 187.24 L 108.12 186.18 C 108.24 185.32 107.64 184.53 106.78 184.42 C 105.93 184.31 105.14 184.91 105.03 185.76 Z M 104.88 186.84 L 104.75 187.89 C 104.65 188.75 105.26 189.53 106.11 189.63 C 106.97 189.73 107.75 189.13 107.85 188.27 L 107.98 187.22 C 108.08 186.36 107.47 185.59 106.62 185.48 C 105.76 185.38 104.98 185.99 104.88 186.84 Z M 104.75 187.91 L 104.64 188.94 C 104.54 189.80 105.16 190.57 106.02 190.66 C 106.88 190.76 107.65 190.14 107.74 189.28 L 107.85 188.25 C 107.95 187.39 107.33 186.62 106.47 186.53 C 105.62 186.44 104.84 187.05 104.75 187.91 Z M 104.64 188.96 L 104.53 189.99 C 104.45 190.84 105.08 191.61 105.94 191.69 C 106.79 191.78 107.56 191.15 107.64 190.29 L 107.74 189.26 C 107.83 188.41 107.20 187.64 106.34 187.56 C 105.48 187.47 104.72 188.10 104.64 188.96 Z M 104.53 190.00 L 104.45 191.01 C 104.37 191.87 105.01 192.63 105.87 192.70 C 106.72 192.78 107.48 192.14 107.56 191.28 L 107.64 190.27 C 107.72 189.42 107.08 188.66 106.22 188.58 C 105.36 188.51 104.61 189.15 104.53 190.00 Z M 104.44 191.03 L 104.37 192.01 C 104.31 192.87 104.95 193.62 105.81 193.69 C 106.67 193.75 107.42 193.11 107.48 192.25 L 107.56 191.27 C 107.62 190.41 106.98 189.66 106.12 189.59 C 105.26 189.53 104.51 190.17 104.44 191.03 Z M 104.37 192.03 L 104.31 192.97 C 104.26 193.83 104.91 194.57 105.77 194.63 C 106.63 194.68 107.37 194.03 107.43 193.17 L 107.49 192.23 C 107.54 191.37 106.89 190.63 106.02 190.57 C 105.16 190.52 104.42 191.17 104.37 192.03 Z M 104.31 192.99 L 104.26 194.06 C 104.22 194.92 104.88 195.66 105.74 195.70 C 106.60 195.74 107.34 195.07 107.38 194.21 L 107.43 193.14 C 107.47 192.28 106.80 191.55 105.94 191.51 C 105.08 191.47 104.35 192.13 104.31 192.99 Z M 104.26 194.09 L 104.22 195.14 C 104.20 196.01 104.88 196.73 105.74 196.75 C 106.60 196.78 107.32 196.10 107.35 195.24 L 107.38 194.18 C 107.40 193.32 106.73 192.60 105.87 192.58 C 105.00 192.55 104.28 193.23 104.26 194.09 Z M 104.22 195.17 L 104.21 196.15 C 104.20 197.01 104.88 197.72 105.75 197.74 C 106.61 197.75 107.32 197.06 107.33 196.20 L 107.35 195.22 C 107.36 194.35 106.67 193.64 105.81 193.63 C 104.95 193.62 104.24 194.30 104.22 195.17 Z M 104.21 196.17 L 104.20 197.10 C 104.20 197.97 104.89 198.67 105.76 198.67 C 106.62 198.68 107.32 197.98 107.33 197.12 L 107.33 196.19 C 107.34 195.32 106.64 194.62 105.78 194.62 C 104.92 194.61 104.21 195.31 104.21 196.17 Z M 104.20 197.11 L 104.20 198.05 C 104.20 198.92 104.90 199.62 105.76 199.62 C 106.63 199.62 107.33 198.92 107.33 198.06 L 107.33 197.11 C 107.33 196.25 106.63 195.55 105.77 195.55 C 104.90 195.55 104.20 196.25 104.20 197.11 Z M 104.20 198.06 L 104.20 199.10 C 104.20 199.96 104.90 200.66 105.77 200.66 C 106.63 200.66 107.33 199.96 107.33 199.10 L 107.33 198.05 C 107.32 197.19 106.63 196.49 105.76 196.49 C 104.90 196.49 104.20 197.19 104.20 198.06 Z M 104.20 199.10 L 104.21 200.11 C 104.21 200.97 104.91 201.67 105.78 201.67 C 106.64 201.66 107.33 200.96 107.33 200.10 L 107.33 199.09 C 107.32 198.23 106.62 197.53 105.76 197.54 C 104.90 197.54 104.20 198.24 104.20 199.10 Z M 104.21 200.12 L 104.22 201.09 C 104.23 201.95 104.93 202.65 105.80 202.64 C 106.66 202.63 107.35 201.92 107.34 201.06 L 107.33 200.09 C 107.32 199.23 106.62 198.54 105.75 198.54 C 104.89 198.55 104.20 199.26 104.21 200.12 Z M 104.22 201.11 L 104.24 202.05 C 104.26 202.91 104.97 203.60 105.83 203.58 C 106.69 203.56 107.38 202.85 107.36 201.98 L 107.34 201.04 C 107.32 200.18 106.61 199.50 105.75 199.51 C 104.89 199.53 104.20 200.25 104.22 201.11 Z M 104.24 202.08 L 104.28 203.02 C 104.32 203.88 105.04 204.55 105.90 204.51 C 106.77 204.48 107.43 203.75 107.40 202.89 L 107.36 201.95 C 107.32 201.09 106.59 200.42 105.73 200.46 C 104.87 200.49 104.20 201.22 104.24 202.08 Z M 104.28 203.08 L 104.36 204.05 C 104.43 204.91 105.19 205.55 106.05 205.48 C 106.91 205.41 107.55 204.65 107.47 203.80 L 107.39 202.82 C 107.32 201.97 106.57 201.33 105.71 201.40 C 104.85 201.47 104.21 202.22 104.28 203.08 Z M 104.37 204.13 L 104.51 205.19 C 104.62 206.05 105.41 206.65 106.26 206.53 C 107.12 206.42 107.72 205.64 107.61 204.78 L 107.47 203.72 C 107.35 202.86 106.57 202.26 105.71 202.38 C 104.86 202.49 104.26 203.27 104.37 204.13 Z M 104.52 205.26 L 104.70 206.24 C 104.85 207.09 105.66 207.66 106.51 207.51 C 107.35 207.36 107.92 206.55 107.77 205.70 L 107.60 204.71 C 107.45 203.87 106.64 203.30 105.79 203.45 C 104.94 203.60 104.37 204.41 104.52 205.26 Z M 104.70 206.29 L 104.91 207.27 C 105.09 208.12 105.91 208.66 106.76 208.48 C 107.60 208.30 108.14 207.48 107.97 206.63 L 107.76 205.65 C 107.58 204.81 106.76 204.26 105.91 204.44 C 105.07 204.62 104.53 205.44 104.70 206.29 Z M 104.92 207.31 L 105.15 208.32 C 105.35 209.16 106.19 209.68 107.03 209.48 C 107.87 209.29 108.39 208.45 108.19 207.61 L 107.96 206.60 C 107.76 205.76 106.92 205.24 106.08 205.43 C 105.24 205.63 104.72 206.47 104.92 207.31 Z M 105.16 208.35 L 105.42 209.34 C 105.63 210.18 106.48 210.68 107.32 210.47 C 108.15 210.26 108.66 209.41 108.44 208.57 L 108.19 207.57 C 107.97 206.74 107.12 206.24 106.29 206.45 C 105.45 206.66 104.95 207.51 105.16 208.35 Z M 105.43 209.38 L 105.69 210.32 C 105.92 211.15 106.78 211.63 107.61 211.40 C 108.44 211.17 108.93 210.31 108.70 209.48 L 108.43 208.54 C 108.20 207.71 107.34 207.22 106.51 207.45 C 105.68 207.68 105.19 208.55 105.43 209.38 Z M 105.70 210.36 L 106.03 211.42 C 106.28 212.24 107.15 212.70 107.98 212.45 C 108.80 212.20 109.26 211.32 109.01 210.50 L 108.68 209.44 C 108.43 208.61 107.56 208.15 106.73 208.41 C 105.91 208.66 105.45 209.53 105.70 210.36 Z M 106.04 211.47 L 106.37 212.43 C 106.66 213.24 107.55 213.67 108.36 213.39 C 109.18 213.11 109.61 212.22 109.32 211.40 L 108.99 210.45 C 108.71 209.63 107.82 209.20 107.01 209.48 C 106.19 209.77 105.76 210.66 106.04 211.47 Z M 106.39 212.48 L 106.74 213.36 C 107.05 214.16 107.95 214.56 108.76 214.25 C 109.56 213.93 109.96 213.03 109.65 212.23 L 109.30 211.35 C 108.99 210.54 108.09 210.15 107.28 210.46 C 106.48 210.77 106.08 211.68 106.39 212.48 Z M 106.76 213.41 L 107.12 214.26 C 107.46 215.05 108.38 215.42 109.17 215.08 C 109.97 214.74 110.33 213.82 109.99 213.03 L 109.63 212.18 C 109.29 211.38 108.37 211.02 107.58 211.36 C 106.78 211.70 106.42 212.62 106.76 213.41 Z M 107.14 214.31 L 107.56 215.19 C 107.92 215.97 108.85 216.30 109.63 215.94 C 110.42 215.57 110.75 214.64 110.38 213.86 L 109.97 212.98 C 109.60 212.20 108.67 211.86 107.89 212.23 C 107.11 212.60 106.78 213.53 107.14 214.31 Z M 107.59 215.25 L 108.05 216.13 C 108.46 216.89 109.40 217.19 110.16 216.78 C 110.93 216.38 111.22 215.44 110.81 214.67 L 110.35 213.80 C 109.95 213.03 109.00 212.74 108.24 213.14 C 107.48 213.55 107.19 214.49 107.59 215.25 Z M 108.10 216.21 L 108.63 217.08 C 109.08 217.82 110.04 218.06 110.77 217.61 C 111.51 217.16 111.75 216.20 111.30 215.46 L 110.77 214.59 C 110.32 213.85 109.36 213.62 108.62 214.07 C 107.89 214.52 107.65 215.48 108.10 216.21 Z M 108.69 217.17 L 109.27 218.00 C 109.77 218.71 110.74 218.88 111.45 218.38 C 112.15 217.88 112.32 216.91 111.82 216.20 L 111.24 215.37 C 110.74 214.67 109.77 214.50 109.06 215.00 C 108.36 215.50 108.19 216.47 108.69 217.17 Z M 109.33 218.08 L 109.96 218.87 C 110.50 219.54 111.49 219.64 112.16 219.10 C 112.83 218.56 112.94 217.58 112.40 216.91 L 111.76 216.12 C 111.22 215.45 110.24 215.35 109.57 215.89 C 108.90 216.43 108.79 217.41 109.33 218.08 Z M 110.02 218.93 L 110.69 219.68 C 111.26 220.33 112.25 220.38 112.89 219.81 C 113.54 219.23 113.59 218.24 113.02 217.60 L 112.34 216.85 C 111.77 216.20 110.78 216.15 110.14 216.72 C 109.50 217.30 109.44 218.28 110.02 218.93 Z M 110.74 219.73 L 111.44 220.45 C 112.04 221.06 113.03 221.07 113.64 220.47 C 114.26 219.87 114.27 218.88 113.67 218.26 L 112.97 217.55 C 112.37 216.93 111.38 216.92 110.76 217.53 C 110.15 218.13 110.14 219.12 110.74 219.73 Z M 111.48 220.49 L 112.23 221.19 C 112.86 221.78 113.85 221.75 114.44 221.12 C 115.03 220.49 114.99 219.50 114.36 218.91 L 113.62 218.21 C 112.99 217.62 112.00 217.66 111.41 218.29 C 110.82 218.92 110.85 219.90 111.48 220.49 Z M 112.28 221.24 L 113.05 221.89 C 113.70 222.45 114.69 222.38 115.25 221.72 C 115.81 221.07 115.73 220.08 115.08 219.52 L 114.31 218.87 C 113.66 218.30 112.67 218.38 112.11 219.04 C 111.55 219.69 111.63 220.68 112.28 221.24 Z M 113.10 221.94 L 113.87 222.54 C 114.55 223.07 115.53 222.96 116.06 222.28 C 116.60 221.60 116.48 220.62 115.80 220.09 L 115.03 219.48 C 114.35 218.95 113.37 219.07 112.84 219.74 C 112.30 220.42 112.42 221.40 113.10 221.94 Z M 113.92 222.58 L 114.71 223.15 C 115.40 223.66 116.38 223.51 116.89 222.81 C 117.39 222.11 117.24 221.14 116.54 220.63 L 115.76 220.05 C 115.06 219.55 114.08 219.70 113.57 220.40 C 113.07 221.09 113.22 222.07 113.92 222.58 Z M 114.74 223.18 L 115.56 223.74 C 116.28 224.23 117.25 224.05 117.73 223.33 C 118.22 222.62 118.04 221.65 117.33 221.16 L 116.51 220.60 C 115.80 220.11 114.82 220.30 114.34 221.01 C 113.85 221.72 114.03 222.69 114.74 223.18 Z M 115.60 223.76 L 116.44 224.31 C 117.16 224.77 118.13 224.57 118.60 223.85 C 119.06 223.12 118.86 222.15 118.14 221.69 L 117.30 221.14 C 116.57 220.67 115.61 220.88 115.14 221.60 C 114.67 222.33 114.87 223.29 115.60 223.76 Z M 116.46 224.32 L 117.32 224.85 C 118.05 225.31 119.01 225.08 119.47 224.35 C 119.92 223.61 119.69 222.65 118.96 222.20 L 118.11 221.67 C 117.37 221.21 116.41 221.44 115.96 222.17 C 115.50 222.91 115.73 223.87 116.46 224.32 Z M 117.34 224.87 L 118.18 225.37 C 118.92 225.81 119.88 225.57 120.32 224.82 C 120.76 224.08 120.52 223.13 119.78 222.68 L 118.94 222.18 C 118.20 221.74 117.24 221.98 116.80 222.73 C 116.36 223.47 116.60 224.42 117.34 224.87 Z M 118.21 225.38 L 119.06 225.87 C 119.81 226.30 120.76 226.04 121.19 225.29 C 121.62 224.54 121.36 223.59 120.61 223.16 L 119.76 222.67 C 119.01 222.24 118.06 222.50 117.63 223.25 C 117.20 224.00 117.46 224.95 118.21 225.38 Z M 119.08 225.88 L 119.97 226.37 C 120.72 226.78 121.67 226.50 122.09 225.74 C 122.50 224.99 122.22 224.04 121.46 223.63 L 120.58 223.14 C 119.83 222.73 118.88 223.01 118.46 223.76 C 118.05 224.52 118.33 225.47 119.08 225.88 Z M 120.00 226.38 L 120.91 226.85 C 121.67 227.25 122.62 226.95 123.01 226.19 C 123.41 225.42 123.11 224.48 122.35 224.08 L 121.44 223.61 C 120.67 223.21 119.73 223.51 119.33 224.28 C 118.93 225.04 119.23 225.98 120.00 226.38 Z M 120.94 226.87 L 121.81 227.30 C 122.59 227.69 123.52 227.37 123.90 226.60 C 124.29 225.82 123.97 224.89 123.20 224.50 L 122.32 224.07 C 121.55 223.69 120.61 224.00 120.23 224.78 C 119.85 225.55 120.16 226.49 120.94 226.87 Z M 121.84 227.31 L 122.74 227.74 C 123.52 228.11 124.45 227.78 124.82 227.00 C 125.19 226.23 124.86 225.29 124.08 224.92 L 123.18 224.49 C 122.40 224.12 121.47 224.46 121.10 225.23 C 120.73 226.01 121.06 226.94 121.84 227.31 Z M 122.76 227.75 L 123.69 228.18 C 124.47 228.53 125.40 228.19 125.75 227.41 C 126.11 226.62 125.77 225.69 124.98 225.34 L 124.06 224.91 C 123.28 224.56 122.35 224.90 121.99 225.69 C 121.63 226.47 121.98 227.40 122.76 227.75 Z M 123.70 228.18 L 124.63 228.59 C 125.42 228.94 126.34 228.58 126.69 227.80 C 127.04 227.01 126.68 226.09 125.89 225.74 L 124.96 225.33 C 124.18 224.98 123.25 225.34 122.91 226.13 C 122.56 226.91 122.92 227.84 123.70 228.18 Z M 124.65 228.60 L 125.59 229.00 C 126.38 229.34 127.30 228.97 127.64 228.18 C 127.97 227.38 127.60 226.47 126.81 226.13 L 125.87 225.73 C 125.08 225.39 124.16 225.76 123.83 226.55 C 123.49 227.35 123.86 228.26 124.65 228.60 Z M 125.61 229.01 L 126.53 229.39 C 127.33 229.72 128.24 229.34 128.57 228.54 C 128.90 227.74 128.52 226.83 127.72 226.50 L 126.79 226.12 C 125.99 225.79 125.08 226.17 124.75 226.97 C 124.43 227.77 124.81 228.68 125.61 229.01 Z M 126.55 229.40 L 127.47 229.76 C 128.28 230.08 129.18 229.68 129.50 228.88 C 129.82 228.08 129.42 227.17 128.62 226.86 L 127.70 226.49 C 126.90 226.18 125.99 226.57 125.67 227.37 C 125.36 228.17 125.75 229.08 126.55 229.40 Z M 127.49 229.77 L 128.42 230.12 C 129.22 230.42 130.12 230.02 130.43 229.21 C 130.74 228.41 130.33 227.50 129.52 227.20 L 128.60 226.85 C 127.79 226.54 126.89 226.95 126.59 227.76 C 126.28 228.56 126.69 229.46 127.49 229.77 Z M 128.44 230.13 L 129.38 230.47 C 130.19 230.76 131.08 230.35 131.38 229.54 C 131.67 228.73 131.26 227.83 130.45 227.54 L 129.50 227.19 C 128.69 226.90 127.80 227.31 127.50 228.12 C 127.21 228.93 127.63 229.83 128.44 230.13 Z M 129.39 230.47 L 130.33 230.81 C 131.15 231.09 132.04 230.67 132.33 229.85 C 132.61 229.04 132.19 228.15 131.37 227.86 L 130.43 227.53 C 129.62 227.24 128.73 227.67 128.44 228.48 C 128.15 229.30 128.58 230.19 129.39 230.47 Z M 130.34 230.81 L 131.29 231.13 C 132.10 231.42 132.99 230.98 133.27 230.17 C 133.55 229.35 133.12 228.46 132.30 228.18 L 131.36 227.86 C 130.55 227.58 129.66 228.01 129.38 228.83 C 129.10 229.64 129.53 230.53 130.34 230.81 Z M 131.29 231.14 L 132.16 231.43 C 132.98 231.71 133.86 231.27 134.14 230.46 C 134.42 229.64 133.98 228.75 133.17 228.47 L 132.30 228.18 C 131.48 227.90 130.59 228.34 130.32 229.16 C 130.04 229.97 130.48 230.86 131.29 231.14 Z M 132.17 231.44 L 133.02 231.72 C 133.84 231.99 134.72 231.54 134.99 230.72 C 135.26 229.90 134.82 229.02 134.00 228.75 L 133.15 228.47 C 132.33 228.20 131.45 228.64 131.18 229.46 C 130.91 230.28 131.36 231.17 132.17 231.44 Z M 133.05 231.72 L 133.97 232.01 C 134.79 232.27 135.67 231.81 135.92 230.99 C 136.18 230.16 135.72 229.29 134.90 229.03 L 133.98 228.74 C 133.15 228.49 132.28 228.94 132.02 229.77 C 131.76 230.59 132.22 231.47 133.05 231.72 Z M 134.00 232.02 L 135.03 232.32 C 135.86 232.56 136.73 232.08 136.97 231.26 C 137.21 230.43 136.73 229.56 135.90 229.32 L 134.87 229.02 C 134.04 228.78 133.17 229.26 132.93 230.09 C 132.69 230.91 133.17 231.78 134.00 232.02 Z M 135.06 232.33 L 136.14 232.62 C 136.97 232.84 137.83 232.34 138.05 231.51 C 138.27 230.68 137.78 229.82 136.94 229.60 L 135.87 229.31 C 135.04 229.09 134.18 229.58 133.96 230.42 C 133.74 231.25 134.23 232.11 135.06 232.33 Z M 136.16 232.62 L 137.05 232.85 C 137.89 233.06 138.74 232.55 138.95 231.71 C 139.16 230.87 138.65 230.03 137.81 229.82 L 136.92 229.59 C 136.08 229.38 135.24 229.89 135.03 230.73 C 134.82 231.56 135.32 232.41 136.16 232.62 Z M 137.07 232.85 L 138.02 233.08 C 138.86 233.28 139.71 232.76 139.91 231.92 C 140.11 231.08 139.59 230.24 138.75 230.04 L 137.80 229.81 C 136.96 229.61 136.12 230.13 135.92 230.97 C 135.71 231.81 136.23 232.65 137.07 232.85 Z M 138.04 233.08 L 139.03 233.31 C 139.87 233.50 140.71 232.98 140.91 232.14 C 141.10 231.30 140.57 230.46 139.73 230.27 L 138.74 230.04 C 137.90 229.85 137.06 230.37 136.87 231.21 C 136.67 232.05 137.20 232.89 138.04 233.08 Z M 139.05 233.31 L 140.06 233.54 C 140.91 233.72 141.74 233.19 141.93 232.35 C 142.11 231.51 141.58 230.68 140.74 230.49 L 139.72 230.26 C 138.88 230.08 138.05 230.61 137.86 231.45 C 137.67 232.29 138.20 233.13 139.05 233.31 Z M 140.08 233.54 L 141.10 233.76 C 141.94 233.94 142.77 233.40 142.95 232.56 C 143.13 231.71 142.59 230.88 141.75 230.70 L 140.73 230.49 C 139.88 230.31 139.05 230.84 138.88 231.69 C 138.70 232.53 139.23 233.36 140.08 233.54 Z M 141.11 233.76 L 142.11 233.97 C 142.96 234.14 143.78 233.60 143.96 232.75 C 144.13 231.91 143.59 231.08 142.74 230.91 L 141.74 230.70 C 140.89 230.53 140.07 231.07 139.89 231.92 C 139.72 232.76 140.26 233.59 141.11 233.76 Z M 142.13 233.97 L 143.19 234.18 C 144.04 234.35 144.86 233.79 145.03 232.95 C 145.19 232.10 144.64 231.28 143.79 231.12 L 142.73 230.91 C 141.88 230.74 141.06 231.29 140.90 232.14 C 140.73 232.98 141.28 233.80 142.13 233.97 Z M 143.21 234.18 L 144.24 234.38 C 145.08 234.53 145.90 233.98 146.06 233.13 C 146.22 232.28 145.66 231.47 144.81 231.31 L 143.78 231.11 C 142.94 230.95 142.12 231.51 141.96 232.36 C 141.80 233.21 142.36 234.02 143.21 234.18 Z M 144.25 234.38 L 145.24 234.56 C 146.09 234.71 146.90 234.15 147.06 233.30 C 147.21 232.45 146.65 231.64 145.80 231.48 L 144.80 231.31 C 143.96 231.15 143.14 231.71 142.99 232.56 C 142.84 233.41 143.40 234.22 144.25 234.38 Z M 145.25 234.56 L 146.21 234.73 C 147.06 234.88 147.87 234.31 148.02 233.46 C 148.17 232.61 147.60 231.80 146.75 231.65 L 145.79 231.48 C 144.94 231.33 144.13 231.90 143.98 232.75 C 143.83 233.60 144.40 234.41 145.25 234.56 Z M 146.22 234.73 L 147.15 234.89 C 148.00 235.03 148.81 234.46 148.95 233.61 C 149.10 232.76 148.52 231.95 147.67 231.81 L 146.74 231.65 C 145.89 231.51 145.09 232.08 144.94 232.93 C 144.80 233.78 145.37 234.58 146.22 234.73 Z M 147.15 234.89 L 148.09 235.05 C 148.94 235.19 149.75 234.62 149.89 233.77 C 150.03 232.91 149.46 232.11 148.61 231.97 L 147.67 231.81 C 146.82 231.67 146.02 232.24 145.87 233.09 C 145.73 233.94 146.30 234.74 147.15 234.89 Z M 148.09 235.05 L 149.16 235.22 C 150.01 235.37 150.81 234.79 150.95 233.94 C 151.09 233.09 150.52 232.29 149.67 232.14 L 148.61 231.97 C 147.76 231.82 146.95 232.40 146.81 233.25 C 146.67 234.10 147.24 234.90 148.09 235.05 Z M 149.16 235.22 L 150.18 235.39 C 151.03 235.53 151.84 234.95 151.98 234.10 C 152.12 233.25 151.54 232.45 150.69 232.31 L 149.67 232.14 C 148.81 232.00 148.01 232.58 147.87 233.43 C 147.73 234.28 148.31 235.08 149.16 235.22 Z M 150.19 235.39 L 151.17 235.55 C 152.02 235.68 152.82 235.10 152.96 234.25 C 153.09 233.40 152.51 232.60 151.66 232.46 L 150.68 232.31 C 149.83 232.17 149.03 232.75 148.89 233.61 C 148.76 234.46 149.34 235.26 150.19 235.39 Z M 151.18 235.55 L 152.11 235.69 C 152.96 235.82 153.75 235.24 153.88 234.38 C 154.01 233.53 153.43 232.73 152.58 232.60 L 151.65 232.46 C 150.80 232.33 150.00 232.92 149.87 233.77 C 149.74 234.62 150.33 235.42 151.18 235.55 Z M 152.12 235.69 L 153.10 235.83 C 153.95 235.95 154.75 235.36 154.87 234.51 C 154.99 233.65 154.39 232.86 153.54 232.74 L 152.56 232.60 C 151.71 232.48 150.92 233.07 150.80 233.93 C 150.67 234.78 151.27 235.57 152.12 235.69 Z M 153.12 235.84 L 154.17 235.97 C 155.02 236.08 155.80 235.48 155.91 234.62 C 156.02 233.77 155.42 232.98 154.56 232.87 L 153.52 232.74 C 152.67 232.63 151.88 233.23 151.77 234.09 C 151.66 234.94 152.27 235.73 153.12 235.84 Z M 154.19 235.97 L 155.16 236.09 C 156.02 236.19 156.79 235.57 156.89 234.71 C 156.99 233.86 156.38 233.08 155.52 232.98 L 154.54 232.87 C 153.69 232.77 152.91 233.39 152.81 234.24 C 152.72 235.10 153.33 235.87 154.19 235.97 Z M 155.18 236.09 L 156.11 236.19 C 156.96 236.28 157.73 235.65 157.82 234.80 C 157.91 233.94 157.29 233.17 156.43 233.08 L 155.50 232.98 C 154.65 232.89 153.88 233.51 153.79 234.37 C 153.70 235.23 154.32 236.00 155.18 236.09 Z M 156.12 236.19 L 157.05 236.28 C 157.91 236.36 158.68 235.73 158.76 234.88 C 158.84 234.02 158.22 233.25 157.36 233.17 L 156.42 233.08 C 155.56 233.00 154.80 233.62 154.72 234.48 C 154.63 235.34 155.26 236.10 156.12 236.19 Z M 157.07 236.28 L 158.03 236.36 C 158.89 236.43 159.65 235.79 159.72 234.94 C 159.79 234.08 159.15 233.32 158.29 233.25 L 157.34 233.17 C 156.48 233.10 155.72 233.73 155.65 234.59 C 155.58 235.45 156.22 236.21 157.07 236.28 Z M 158.06 236.36 L 159.07 236.43 C 159.93 236.48 160.68 235.83 160.73 234.97 C 160.79 234.11 160.13 233.37 159.27 233.31 L 158.26 233.25 C 157.40 233.19 156.66 233.84 156.60 234.70 C 156.55 235.57 157.20 236.31 158.06 236.36 Z M 159.11 236.43 L 160.16 236.47 C 161.02 236.51 161.75 235.84 161.79 234.98 C 161.82 234.11 161.15 233.39 160.29 233.35 L 159.24 233.31 C 158.38 233.27 157.65 233.94 157.61 234.81 C 157.58 235.67 158.25 236.39 159.11 236.43 Z M 160.19 236.47 L 161.19 236.50 C 162.05 236.51 162.77 235.83 162.78 234.97 C 162.80 234.11 162.12 233.39 161.26 233.37 L 160.26 233.35 C 159.40 233.33 158.69 234.02 158.67 234.88 C 158.65 235.74 159.33 236.45 160.19 236.47 Z M 161.21 236.50 L 162.24 236.51 C 163.10 236.52 163.81 235.83 163.82 234.96 C 163.82 234.10 163.13 233.39 162.27 233.38 L 161.24 233.37 C 160.38 233.36 159.67 234.06 159.66 234.92 C 159.65 235.78 160.34 236.49 161.21 236.50 Z M 162.25 236.51 L 163.27 236.51 C 164.13 236.51 164.83 235.82 164.83 234.96 C 164.84 234.09 164.14 233.39 163.28 233.39 L 162.26 233.38 C 161.40 233.38 160.70 234.08 160.69 234.94 C 160.69 235.80 161.39 236.50 162.25 236.51 Z M 163.27 236.51 L 164.25 236.51 C 165.11 236.51 165.81 235.81 165.81 234.95 C 165.81 234.09 165.11 233.39 164.25 233.39 L 163.27 233.39 C 162.41 233.39 161.71 234.09 161.71 234.95 C 161.71 235.81 162.41 236.51 163.27 236.51 Z M 164.25 236.51 L 165.35 236.51 C 166.21 236.51 166.91 235.81 166.90 234.94 C 166.90 234.08 166.20 233.39 165.34 233.39 L 164.25 233.39 C 163.38 233.39 162.69 234.09 162.69 234.95 C 162.69 235.82 163.39 236.51 164.25 236.51 Z M 165.37 236.51 L 166.35 236.50 C 167.21 236.48 167.90 235.77 167.89 234.91 C 167.88 234.05 167.17 233.36 166.31 233.37 L 165.32 233.39 C 164.46 233.40 163.77 234.11 163.78 234.97 C 163.79 235.83 164.50 236.52 165.37 236.51 Z M 166.39 236.49 L 167.32 236.46 C 168.18 236.42 168.85 235.70 168.82 234.84 C 168.79 233.97 168.06 233.30 167.20 233.34 L 166.27 233.37 C 165.41 233.41 164.74 234.13 164.77 235.00 C 164.80 235.86 165.53 236.53 166.39 236.49 Z M 167.38 236.45 L 168.27 236.38 C 169.13 236.32 169.77 235.57 169.71 234.71 C 169.64 233.85 168.89 233.21 168.03 233.27 L 167.14 233.34 C 166.28 233.41 165.64 234.16 165.70 235.02 C 165.77 235.88 166.52 236.52 167.38 236.45 Z M 168.35 236.38 L 169.27 236.26 C 170.12 236.15 170.73 235.37 170.62 234.51 C 170.51 233.66 169.73 233.05 168.87 233.16 L 167.95 233.28 C 167.10 233.39 166.49 234.17 166.60 235.03 C 166.71 235.88 167.49 236.49 168.35 236.38 Z M 169.36 236.25 L 170.37 236.06 C 171.22 235.90 171.78 235.09 171.62 234.24 C 171.46 233.39 170.65 232.83 169.80 232.99 L 168.79 233.18 C 167.94 233.33 167.38 234.15 167.54 235.00 C 167.69 235.84 168.51 236.40 169.36 236.25 Z M 170.45 236.04 L 171.52 235.78 C 172.36 235.58 172.87 234.74 172.67 233.90 C 172.47 233.06 171.63 232.55 170.79 232.75 L 169.72 233.00 C 168.88 233.20 168.37 234.05 168.57 234.89 C 168.77 235.72 169.61 236.24 170.45 236.04 Z M 171.58 235.77 L 172.50 235.51 C 173.33 235.28 173.82 234.42 173.59 233.59 C 173.35 232.76 172.49 232.27 171.66 232.50 L 170.73 232.76 C 169.90 233.00 169.42 233.86 169.65 234.69 C 169.88 235.52 170.75 236.00 171.58 235.77 Z M 172.55 235.50 L 173.52 235.19 C 174.34 234.94 174.80 234.06 174.55 233.24 C 174.29 232.42 173.41 231.96 172.59 232.21 L 171.62 232.52 C 170.79 232.77 170.33 233.65 170.59 234.47 C 170.85 235.30 171.72 235.75 172.55 235.50 Z M 173.56 235.18 L 174.55 234.84 C 175.36 234.56 175.79 233.67 175.51 232.86 C 175.23 232.04 174.34 231.61 173.53 231.89 L 172.55 232.23 C 171.73 232.51 171.30 233.40 171.58 234.21 C 171.86 235.03 172.75 235.46 173.56 235.18 Z M 174.60 234.82 L 175.55 234.46 C 176.35 234.15 176.75 233.25 176.44 232.44 C 176.13 231.64 175.23 231.23 174.43 231.54 L 173.48 231.91 C 172.67 232.22 172.27 233.12 172.58 233.92 C 172.89 234.73 173.79 235.13 174.60 234.82 Z M 175.61 234.43 L 176.58 234.01 C 177.37 233.66 177.73 232.74 177.38 231.95 C 177.04 231.16 176.12 230.80 175.33 231.15 L 174.36 231.57 C 173.57 231.91 173.21 232.83 173.56 233.62 C 173.90 234.42 174.82 234.78 175.61 234.43 Z M 176.66 233.97 L 177.62 233.48 C 178.38 233.09 178.69 232.15 178.30 231.38 C 177.90 230.61 176.96 230.31 176.20 230.70 L 175.24 231.19 C 174.47 231.58 174.17 232.52 174.56 233.29 C 174.95 234.06 175.89 234.36 176.66 233.97 Z M 177.71 233.43 L 178.56 232.92 C 179.29 232.48 179.53 231.52 179.09 230.78 C 178.65 230.04 177.69 229.80 176.95 230.24 L 176.10 230.75 C 175.36 231.20 175.12 232.16 175.57 232.90 C 176.01 233.63 176.97 233.87 177.71 233.43 Z M 178.65 232.86 L 179.41 232.33 C 180.11 231.84 180.28 230.86 179.79 230.16 C 179.29 229.45 178.32 229.28 177.61 229.77 L 176.86 230.30 C 176.15 230.80 175.98 231.77 176.47 232.48 C 176.97 233.19 177.94 233.36 178.65 232.86 Z M 179.49 232.26 L 180.25 231.65 C 180.92 231.11 181.02 230.13 180.47 229.46 C 179.93 228.79 178.95 228.69 178.28 229.23 L 177.53 229.84 C 176.86 230.38 176.76 231.37 177.30 232.04 C 177.84 232.71 178.83 232.81 179.49 232.26 Z M 180.33 231.58 L 181.07 230.88 C 181.70 230.29 181.73 229.30 181.13 228.67 C 180.54 228.05 179.55 228.02 178.93 228.61 L 178.19 229.31 C 177.56 229.90 177.53 230.89 178.13 231.51 C 178.72 232.14 179.71 232.17 180.33 231.58 Z M 181.15 230.80 L 181.82 230.07 C 182.40 229.43 182.35 228.44 181.71 227.86 C 181.08 227.28 180.09 227.33 179.51 227.96 L 178.84 228.70 C 178.26 229.33 178.31 230.32 178.95 230.90 C 179.59 231.48 180.57 231.43 181.15 230.80 Z M 181.89 229.98 L 182.49 229.21 C 183.03 228.53 182.91 227.55 182.23 227.02 C 181.55 226.49 180.57 226.60 180.04 227.28 L 179.43 228.05 C 178.90 228.73 179.02 229.71 179.70 230.24 C 180.38 230.78 181.36 230.66 181.89 229.98 Z M 182.56 229.12 L 183.11 228.29 C 183.59 227.58 183.40 226.61 182.69 226.13 C 181.97 225.65 181.00 225.84 180.52 226.55 L 179.97 227.38 C 179.49 228.09 179.68 229.06 180.40 229.54 C 181.11 230.02 182.08 229.83 182.56 229.12 Z M 183.18 228.19 L 183.67 227.32 C 184.09 226.57 183.82 225.62 183.07 225.20 C 182.32 224.77 181.37 225.04 180.94 225.79 L 180.46 226.66 C 180.03 227.41 180.30 228.36 181.05 228.78 C 181.80 229.21 182.75 228.94 183.18 228.19 Z M 183.72 227.21 L 184.15 226.29 C 184.51 225.50 184.16 224.58 183.38 224.22 C 182.60 223.86 181.67 224.20 181.31 224.98 L 180.89 225.90 C 180.53 226.69 180.87 227.62 181.65 227.98 C 182.44 228.33 183.36 227.99 183.72 227.21 Z M 184.19 226.18 L 184.51 225.32 C 184.81 224.51 184.40 223.61 183.59 223.31 C 182.78 223.01 181.88 223.42 181.58 224.23 L 181.26 225.09 C 180.96 225.90 181.38 226.80 182.18 227.10 C 182.99 227.40 183.89 226.99 184.19 226.18 Z M 184.54 225.24 L 184.82 224.33 C 185.08 223.50 184.62 222.63 183.79 222.37 C 182.97 222.12 182.10 222.58 181.84 223.40 L 181.56 224.31 C 181.30 225.14 181.76 226.01 182.58 226.27 C 183.41 226.52 184.28 226.06 184.54 225.24 Z M 184.84 224.27 L 185.11 223.28 C 185.34 222.45 184.84 221.59 184.01 221.36 C 183.18 221.13 182.32 221.63 182.10 222.46 L 181.82 223.45 C 181.60 224.28 182.09 225.14 182.92 225.37 C 183.75 225.60 184.61 225.11 184.84 224.27 Z M 185.12 223.25 L 185.38 222.21 C 185.59 221.37 185.09 220.52 184.25 220.31 C 183.41 220.10 182.56 220.60 182.35 221.44 L 182.09 222.48 C 181.88 223.32 182.38 224.17 183.22 224.38 C 184.06 224.59 184.90 224.09 185.12 223.25 Z M 185.38 222.20 L 185.60 221.29 C 185.81 220.46 185.30 219.61 184.46 219.40 C 183.63 219.20 182.78 219.71 182.57 220.55 L 182.35 221.45 C 182.14 222.29 182.66 223.13 183.49 223.34 C 184.33 223.55 185.18 223.03 185.38 222.20 Z M 185.61 221.29 L 185.84 220.34 C 186.05 219.50 185.53 218.66 184.70 218.45 C 183.86 218.24 183.01 218.76 182.81 219.59 L 182.57 220.55 C 182.37 221.38 182.88 222.23 183.72 222.44 C 184.55 222.64 185.40 222.13 185.61 221.29 Z M 185.84 220.34 L 186.08 219.35 C 186.29 218.52 185.78 217.67 184.95 217.46 C 184.11 217.25 183.26 217.76 183.05 218.60 L 182.81 219.59 C 182.60 220.43 183.11 221.27 183.95 221.48 C 184.78 221.69 185.63 221.18 185.84 220.34 Z M 186.08 219.36 L 186.34 218.35 C 186.55 217.51 186.05 216.66 185.21 216.45 C 184.38 216.24 183.53 216.74 183.31 217.58 L 183.06 218.59 C 182.84 219.43 183.35 220.28 184.19 220.49 C 185.02 220.70 185.87 220.20 186.08 219.36 Z M 186.34 218.36 L 186.60 217.35 C 186.82 216.52 186.32 215.66 185.49 215.44 C 184.65 215.23 183.80 215.73 183.58 216.56 L 183.32 217.57 C 183.10 218.40 183.60 219.26 184.43 219.47 C 185.27 219.69 186.12 219.19 186.34 218.36 Z M 186.60 217.36 L 186.86 216.39 C 187.08 215.56 186.59 214.70 185.76 214.48 C 184.93 214.25 184.07 214.75 183.85 215.58 L 183.58 216.55 C 183.36 217.38 183.85 218.24 184.68 218.46 C 185.52 218.69 186.37 218.19 186.60 217.36 Z M 186.86 216.40 L 187.12 215.43 C 187.35 214.60 186.87 213.74 186.03 213.51 C 185.20 213.28 184.34 213.77 184.11 214.60 L 183.85 215.57 C 183.62 216.40 184.11 217.26 184.94 217.49 C 185.77 217.72 186.63 217.23 186.86 216.40 Z M 187.12 215.44 L 187.39 214.47 C 187.62 213.64 187.14 212.78 186.30 212.55 C 185.47 212.32 184.61 212.80 184.38 213.64 L 184.12 214.60 C 183.88 215.43 184.37 216.29 185.20 216.52 C 186.03 216.75 186.89 216.27 187.12 215.44 Z M 187.39 214.47 L 187.66 213.51 C 187.89 212.68 187.40 211.82 186.57 211.59 C 185.74 211.36 184.88 211.84 184.65 212.68 L 184.38 213.64 C 184.15 214.47 184.64 215.33 185.47 215.56 C 186.30 215.79 187.16 215.30 187.39 214.47 Z M 187.66 213.50 L 187.92 212.54 C 188.15 211.71 187.65 210.85 186.82 210.62 C 185.99 210.40 185.13 210.89 184.91 211.72 L 184.65 212.68 C 184.42 213.51 184.91 214.37 185.74 214.60 C 186.58 214.82 187.43 214.33 187.66 213.50 Z M 187.92 212.53 L 188.19 211.51 C 188.41 210.68 187.91 209.83 187.08 209.61 C 186.24 209.39 185.39 209.89 185.17 210.72 L 184.90 211.73 C 184.68 212.57 185.18 213.42 186.02 213.64 C 186.85 213.86 187.70 213.36 187.92 212.53 Z M 188.19 211.50 L 188.44 210.50 C 188.66 209.66 188.15 208.81 187.31 208.60 C 186.48 208.39 185.63 208.90 185.42 209.74 L 185.17 210.74 C 184.96 211.57 185.46 212.42 186.30 212.63 C 187.13 212.84 187.98 212.33 188.19 211.50 Z M 188.45 210.48 L 188.68 209.50 C 188.88 208.66 188.36 207.82 187.53 207.62 C 186.69 207.42 185.85 207.94 185.65 208.78 L 185.41 209.76 C 185.21 210.59 185.73 211.44 186.57 211.64 C 187.41 211.84 188.25 211.32 188.45 210.48 Z M 188.69 209.48 L 188.90 208.53 C 189.09 207.69 188.55 206.86 187.71 206.67 C 186.87 206.48 186.04 207.01 185.85 207.86 L 185.64 208.80 C 185.45 209.64 185.98 210.48 186.82 210.66 C 187.67 210.85 188.50 210.32 188.69 209.48 Z M 188.90 208.50 L 189.09 207.56 C 189.27 206.72 188.72 205.90 187.87 205.72 C 187.03 205.55 186.21 206.10 186.03 206.95 L 185.84 207.88 C 185.67 208.73 186.22 209.55 187.06 209.72 C 187.91 209.90 188.73 209.35 188.90 208.50 Z M 189.10 207.53 L 189.28 206.51 C 189.43 205.66 188.87 204.85 188.02 204.70 C 187.17 204.55 186.36 205.11 186.21 205.96 L 186.03 206.98 C 185.88 207.83 186.44 208.64 187.29 208.79 C 188.14 208.94 188.95 208.38 189.10 207.53 Z M 189.29 206.47 L 189.44 205.49 C 189.57 204.64 188.99 203.84 188.13 203.71 C 187.28 203.58 186.48 204.16 186.35 205.01 L 186.20 206.00 C 186.07 206.85 186.66 207.65 187.51 207.78 C 188.36 207.91 189.16 207.32 189.29 206.47 Z M 189.44 205.46 L 189.57 204.49 C 189.69 203.63 189.09 202.85 188.23 202.74 C 187.38 202.62 186.59 203.22 186.48 204.08 L 186.35 205.05 C 186.24 205.90 186.84 206.69 187.69 206.80 C 188.55 206.91 189.33 206.31 189.44 205.46 Z M 189.58 204.47 L 189.69 203.50 C 189.79 202.64 189.18 201.87 188.32 201.77 C 187.46 201.67 186.69 202.28 186.59 203.13 L 186.47 204.10 C 186.37 204.96 186.99 205.73 187.84 205.83 C 188.70 205.94 189.47 205.32 189.58 204.47 Z M 189.69 203.48 L 189.79 202.57 C 189.88 201.71 189.26 200.94 188.40 200.85 C 187.54 200.76 186.78 201.38 186.68 202.23 L 186.59 203.15 C 186.49 204.01 187.12 204.78 187.97 204.87 C 188.83 204.96 189.60 204.34 189.69 203.48 Z M 189.79 202.54 L 189.88 201.59 C 189.96 200.73 189.33 199.97 188.47 199.89 C 187.61 199.81 186.85 200.44 186.77 201.30 L 186.68 202.25 C 186.60 203.11 187.23 203.87 188.09 203.95 C 188.95 204.03 189.71 203.40 189.79 202.54 Z M 189.88 201.57 L 189.96 200.56 C 190.03 199.70 189.38 198.95 188.52 198.89 C 187.66 198.82 186.91 199.46 186.85 200.32 L 186.77 201.33 C 186.70 202.19 187.35 202.94 188.21 203.00 C 189.07 203.07 189.82 202.43 189.88 201.57 Z M 189.96 200.53 L 190.02 199.47 C 190.07 198.61 189.41 197.87 188.55 197.82 C 187.69 197.77 186.96 198.43 186.91 199.29 L 186.84 200.35 C 186.79 201.21 187.45 201.95 188.31 202.00 C 189.17 202.05 189.91 201.39 189.96 200.53 Z M 190.02 199.44 L 190.06 198.39 C 190.10 197.52 189.43 196.80 188.56 196.77 C 187.70 196.73 186.98 197.40 186.94 198.27 L 186.90 199.32 C 186.87 200.18 187.54 200.90 188.40 200.94 C 189.27 200.97 189.99 200.30 190.02 199.44 Z M 190.07 198.36 L 190.09 197.33 C 190.11 196.47 189.43 195.75 188.57 195.73 C 187.70 195.71 186.99 196.39 186.97 197.26 L 186.94 198.29 C 186.92 199.15 187.61 199.87 188.47 199.89 C 189.33 199.91 190.05 199.22 190.07 198.36 Z M 190.09 197.31 L 190.10 196.27 C 190.12 195.41 189.43 194.70 188.56 194.69 C 187.70 194.68 186.99 195.37 186.98 196.23 L 186.97 197.27 C 186.96 198.13 187.65 198.84 188.51 198.85 C 189.37 198.87 190.08 198.18 190.09 197.31 Z M 190.10 196.26 L 190.11 195.24 C 190.12 194.38 189.42 193.67 188.56 193.67 C 187.70 193.66 186.99 194.36 186.99 195.22 L 186.98 196.24 C 186.98 197.10 187.67 197.81 188.53 197.81 C 189.40 197.82 190.10 197.12 190.10 196.26 Z M 190.11 195.23 L 190.11 194.27 C 190.11 193.41 189.42 192.71 188.55 192.70 C 187.69 192.70 186.99 193.40 186.99 194.26 L 186.99 195.23 C 186.99 196.09 187.68 196.79 188.55 196.79 C 189.41 196.79 190.11 196.10 190.11 195.23 Z M 190.11 194.26 L 190.11 193.24 C 190.11 192.38 189.41 191.68 188.55 191.68 C 187.69 191.68 186.99 192.38 186.99 193.24 L 186.99 194.26 C 186.99 195.13 187.69 195.83 188.55 195.83 C 189.41 195.83 190.11 195.13 190.11 194.26 Z M 190.11 193.24 L 190.11 192.15 C 190.11 191.29 189.41 190.59 188.55 190.59 C 187.69 190.59 186.99 191.29 186.99 192.15 L 186.99 193.24 C 186.99 194.10 187.69 194.80 188.55 194.80 C 189.41 194.80 190.11 194.10 190.11 193.24 Z M 190.11 192.15 L 190.11 191.19 C 190.11 190.33 189.41 189.63 188.55 189.63 C 187.69 189.63 186.99 190.33 186.99 191.19 L 186.99 192.15 C 186.99 193.01 187.69 193.71 188.55 193.71 C 189.41 193.71 190.11 193.01 190.11 192.15 Z M 190.11 191.19 L 190.11 190.31 C 190.11 189.45 189.41 188.75 188.55 188.75 C 187.69 188.75 186.99 189.45 186.99 190.31 L 186.99 191.19 C 186.99 192.06 187.69 192.76 188.55 192.76 C 189.41 192.76 190.11 192.06 190.11 191.19 Z M 190.11 190.31 L 190.11 189.38 C 190.11 188.52 189.41 187.82 188.55 187.82 C 187.69 187.82 186.99 188.52 186.99 189.38 L 186.99 190.31 C 186.99 191.17 187.69 191.87 188.55 191.87 C 189.41 191.87 190.11 191.17 190.11 190.31 Z M 190.11 189.38 L 190.11 188.41 C 190.11 187.55 189.41 186.85 188.55 186.85 C 187.69 186.85 186.99 187.55 186.99 188.41 L 186.99 189.38 C 186.99 190.24 187.69 190.94 188.55 190.94 C 189.41 190.94 190.11 190.24 190.11 189.38 Z M 190.11 188.41 L 190.11 187.38 C 190.11 186.52 189.41 185.82 188.55 185.82 C 187.69 185.82 186.99 186.52 186.99 187.38 L 186.99 188.41 C 186.99 189.27 187.69 189.97 188.55 189.97 C 189.41 189.97 190.11 189.27 190.11 188.41 Z M 190.11 187.38 L 190.11 186.34 C 190.11 185.48 189.41 184.78 188.55 184.78 C 187.69 184.78 186.99 185.48 186.99 186.34 L 186.99 187.38 C 186.99 188.24 187.69 188.94 188.55 188.94 C 189.41 188.94 190.11 188.24 190.11 187.38 Z M 190.11 186.34 L 190.11 185.33 C 190.11 184.47 189.41 183.77 188.55 183.77 C 187.68 183.77 186.99 184.47 186.99 185.33 L 186.99 186.34 C 186.99 187.21 187.69 187.90 188.55 187.90 C 189.42 187.90 190.11 187.20 190.11 186.34 Z M 190.11 185.32 L 190.10 184.29 C 190.09 183.43 189.39 182.74 188.53 182.75 C 187.67 182.75 186.97 183.46 186.98 184.32 L 186.99 185.34 C 187.00 186.21 187.70 186.90 188.56 186.89 C 189.42 186.89 190.12 186.18 190.11 185.32 Z M 190.10 184.28 L 190.08 183.28 C 190.07 182.42 189.35 181.73 188.49 181.75 C 187.63 181.76 186.95 182.47 186.96 183.34 L 186.98 184.34 C 187.00 185.20 187.71 185.88 188.57 185.87 C 189.43 185.85 190.12 185.14 190.10 184.28 Z M 190.08 183.25 L 190.04 182.22 C 190.01 181.36 189.29 180.68 188.43 180.71 C 187.57 180.75 186.89 181.47 186.92 182.33 L 186.96 183.36 C 186.99 184.23 187.72 184.90 188.58 184.87 C 189.44 184.84 190.11 184.11 190.08 183.25 Z M 190.04 182.17 L 189.97 181.14 C 189.91 180.28 189.17 179.63 188.31 179.69 C 187.45 179.75 186.80 180.50 186.86 181.36 L 186.93 182.38 C 186.99 183.24 187.73 183.89 188.59 183.83 C 189.45 183.77 190.10 183.03 190.04 182.17 Z M 189.96 181.07 L 189.85 180.11 C 189.75 179.25 188.97 178.64 188.12 178.74 C 187.26 178.84 186.65 179.62 186.75 180.48 L 186.86 181.43 C 186.96 182.29 187.74 182.90 188.60 182.80 C 189.45 182.70 190.07 181.92 189.96 181.07 Z M 189.84 180.02 L 189.67 179.08 C 189.51 178.23 188.70 177.67 187.85 177.82 C 187.00 177.97 186.44 178.79 186.59 179.63 L 186.76 180.57 C 186.92 181.42 187.73 181.98 188.58 181.83 C 189.43 181.68 189.99 180.86 189.84 180.02 Z M 189.65 178.99 L 189.41 178.02 C 189.21 177.18 188.36 176.67 187.52 176.88 C 186.69 177.08 186.17 177.92 186.38 178.76 L 186.61 179.73 C 186.82 180.56 187.66 181.08 188.50 180.87 C 189.34 180.67 189.85 179.82 189.65 178.99 Z M 189.40 177.96 L 189.12 177.00 C 188.88 176.17 188.02 175.69 187.19 175.93 C 186.36 176.16 185.88 177.03 186.12 177.86 L 186.39 178.82 C 186.63 179.65 187.50 180.13 188.33 179.89 C 189.15 179.65 189.63 178.79 189.40 177.96 Z M 189.11 176.97 L 188.82 176.01 C 188.57 175.18 187.70 174.72 186.87 174.97 C 186.05 175.22 185.58 176.09 185.83 176.92 L 186.13 177.88 C 186.38 178.71 187.25 179.17 188.07 178.92 C 188.90 178.67 189.36 177.80 189.11 176.97 Z M 188.82 176.01 L 188.53 175.05 C 188.28 174.22 187.40 173.76 186.58 174.01 C 185.75 174.26 185.29 175.13 185.54 175.95 L 185.83 176.92 C 186.08 177.74 186.95 178.21 187.78 177.96 C 188.60 177.71 189.07 176.83 188.82 176.01 Z M 188.53 175.05 L 188.24 174.09 C 187.99 173.26 187.11 172.80 186.29 173.05 C 185.46 173.30 185.00 174.17 185.25 175.00 L 185.54 175.95 C 185.79 176.78 186.66 177.25 187.49 177.00 C 188.31 176.74 188.78 175.87 188.53 175.05 Z M 188.23 174.08 L 187.94 173.13 C 187.69 172.31 186.81 171.85 185.99 172.10 C 185.17 172.36 184.70 173.23 184.96 174.05 L 185.25 175.00 C 185.50 175.83 186.38 176.29 187.20 176.03 C 188.03 175.78 188.49 174.91 188.23 174.08 Z M 187.94 173.12 L 187.64 172.17 C 187.38 171.34 186.50 170.89 185.68 171.15 C 184.85 171.41 184.40 172.28 184.66 173.11 L 184.96 174.06 C 185.22 174.89 186.10 175.34 186.92 175.08 C 187.74 174.82 188.20 173.95 187.94 173.12 Z M 187.63 172.15 L 187.32 171.20 C 187.05 170.38 186.17 169.94 185.35 170.20 C 184.53 170.47 184.09 171.35 184.35 172.17 L 184.66 173.12 C 184.93 173.94 185.81 174.39 186.63 174.12 C 187.45 173.85 187.90 172.97 187.63 172.15 Z M 187.32 171.19 L 187.00 170.24 C 186.72 169.43 185.84 168.99 185.02 169.26 C 184.20 169.54 183.77 170.42 184.04 171.24 L 184.36 172.19 C 184.63 173.00 185.52 173.44 186.34 173.17 C 187.15 172.89 187.59 172.01 187.32 171.19 Z M 186.99 170.23 L 186.67 169.29 C 186.39 168.48 185.50 168.05 184.68 168.33 C 183.87 168.61 183.44 169.50 183.72 170.31 L 184.04 171.25 C 184.33 172.07 185.22 172.50 186.03 172.22 C 186.85 171.94 187.28 171.05 186.99 170.23 Z M 186.67 169.29 L 186.34 168.35 C 186.05 167.53 185.16 167.10 184.35 167.39 C 183.54 167.67 183.11 168.56 183.39 169.37 L 183.72 170.32 C 184.00 171.13 184.89 171.56 185.71 171.28 C 186.52 170.99 186.95 170.10 186.67 169.29 Z M 186.34 168.35 L 186.02 167.40 C 185.74 166.59 184.85 166.15 184.03 166.43 C 183.22 166.71 182.78 167.60 183.06 168.41 L 183.39 169.37 C 183.67 170.18 184.55 170.62 185.37 170.34 C 186.19 170.06 186.62 169.17 186.34 168.35 Z M 186.02 167.42 L 185.74 166.56 C 185.47 165.74 184.59 165.29 183.77 165.56 C 182.95 165.83 182.51 166.71 182.77 167.53 L 183.06 168.40 C 183.32 169.21 184.21 169.66 185.03 169.39 C 185.84 169.12 186.29 168.24 186.02 167.42 Z M 185.74 166.57 L 185.46 165.69 C 185.20 164.87 184.32 164.42 183.50 164.69 C 182.68 164.95 182.23 165.83 182.49 166.65 L 182.77 167.52 C 183.03 168.35 183.91 168.80 184.73 168.53 C 185.56 168.27 186.01 167.39 185.74 166.57 Z M 185.46 165.68 L 185.14 164.71 C 184.87 163.89 183.99 163.45 183.17 163.72 C 182.35 163.99 181.90 164.87 182.17 165.69 L 182.49 166.66 C 182.76 167.48 183.64 167.92 184.46 167.66 C 185.28 167.39 185.73 166.50 185.46 165.68 Z M 185.13 164.69 L 184.76 163.62 C 184.48 162.80 183.59 162.37 182.78 162.65 C 181.96 162.93 181.53 163.82 181.81 164.63 L 182.18 165.71 C 182.46 166.52 183.35 166.96 184.16 166.68 C 184.98 166.40 185.41 165.51 185.13 164.69 Z M 184.75 163.60 L 184.44 162.72 C 184.15 161.91 183.25 161.49 182.44 161.78 C 181.63 162.08 181.21 162.97 181.50 163.78 L 181.82 164.65 C 182.11 165.47 183.00 165.89 183.82 165.59 C 184.63 165.30 185.05 164.41 184.75 163.60 Z M 184.43 162.70 L 184.08 161.77 C 183.78 160.96 182.88 160.56 182.07 160.86 C 181.27 161.16 180.86 162.06 181.16 162.87 L 181.51 163.80 C 181.81 164.61 182.71 165.02 183.52 164.71 C 184.33 164.41 184.74 163.51 184.43 162.70 Z M 184.07 161.75 L 183.70 160.79 C 183.38 159.99 182.47 159.59 181.67 159.91 C 180.87 160.22 180.47 161.13 180.79 161.93 L 181.17 162.89 C 181.48 163.69 182.39 164.09 183.19 163.77 C 184.00 163.46 184.39 162.55 184.07 161.75 Z M 183.68 160.76 L 183.29 159.80 C 182.96 159.00 182.04 158.63 181.25 158.96 C 180.45 159.29 180.07 160.20 180.40 161.00 L 180.80 161.96 C 181.13 162.75 182.05 163.13 182.84 162.80 C 183.64 162.47 184.02 161.56 183.68 160.76 Z M 183.27 159.77 L 182.86 158.83 C 182.51 158.05 181.59 157.69 180.80 158.04 C 180.01 158.39 179.65 159.31 180.00 160.10 L 180.42 161.03 C 180.77 161.82 181.69 162.17 182.48 161.83 C 183.26 161.48 183.62 160.55 183.27 159.77 Z M 182.84 158.79 L 182.38 157.84 C 182.01 157.06 181.07 156.74 180.30 157.11 C 179.52 157.49 179.19 158.42 179.57 159.20 L 180.02 160.14 C 180.40 160.92 181.33 161.25 182.11 160.87 C 182.89 160.50 183.21 159.57 182.84 158.79 Z M 182.36 157.79 L 181.88 156.89 C 181.48 156.13 180.53 155.84 179.77 156.24 C 179.01 156.65 178.72 157.59 179.12 158.35 L 179.59 159.25 C 180.00 160.01 180.94 160.30 181.70 159.90 C 182.47 159.50 182.76 158.55 182.36 157.79 Z M 181.85 156.84 L 181.36 155.99 C 180.93 155.24 179.97 154.99 179.22 155.42 C 178.48 155.85 178.23 156.81 178.66 157.56 L 179.15 158.41 C 179.58 159.15 180.54 159.41 181.28 158.97 C 182.03 158.54 182.28 157.59 181.85 156.84 Z M 181.33 155.94 L 180.81 155.12 C 180.35 154.39 179.38 154.17 178.65 154.63 C 177.92 155.10 177.71 156.06 178.17 156.79 L 178.69 157.61 C 179.15 158.34 180.12 158.55 180.84 158.09 C 181.57 157.63 181.79 156.67 181.33 155.94 Z M 180.78 155.07 L 180.22 154.26 C 179.73 153.55 178.76 153.37 178.05 153.86 C 177.34 154.35 177.16 155.32 177.65 156.03 L 178.20 156.84 C 178.69 157.55 179.66 157.73 180.37 157.24 C 181.08 156.75 181.26 155.78 180.78 155.07 Z M 180.19 154.22 L 179.61 153.42 C 179.09 152.73 178.12 152.58 177.42 153.09 C 176.73 153.60 176.58 154.58 177.09 155.27 L 177.68 156.07 C 178.19 156.77 179.17 156.91 179.86 156.40 C 180.55 155.89 180.70 154.92 180.19 154.22 Z M 179.58 153.39 L 178.96 152.59 C 178.43 151.91 177.45 151.79 176.77 152.32 C 176.09 152.85 175.97 153.84 176.50 154.52 L 177.12 155.31 C 177.65 155.99 178.63 156.11 179.31 155.58 C 179.99 155.05 180.11 154.07 179.58 153.39 Z M 178.94 152.56 L 178.29 151.78 C 177.75 151.12 176.76 151.02 176.10 151.57 C 175.43 152.12 175.34 153.10 175.88 153.77 L 176.52 154.55 C 177.07 155.21 178.05 155.31 178.72 154.76 C 179.39 154.21 179.48 153.23 178.94 152.56 Z M 178.27 151.76 L 177.62 151.00 C 177.06 150.34 176.07 150.27 175.42 150.83 C 174.76 151.40 174.69 152.38 175.25 153.03 L 175.91 153.79 C 176.47 154.45 177.45 154.52 178.11 153.96 C 178.76 153.40 178.83 152.41 178.27 151.76 Z M 177.60 150.97 L 176.91 150.21 C 176.34 149.57 175.35 149.52 174.71 150.10 C 174.07 150.67 174.01 151.66 174.59 152.30 L 175.27 153.06 C 175.85 153.70 176.84 153.75 177.48 153.18 C 178.12 152.60 178.17 151.61 177.60 150.97 Z M 176.89 150.19 L 176.16 149.41 C 175.57 148.78 174.58 148.75 173.95 149.34 C 173.33 149.93 173.29 150.91 173.88 151.54 L 174.61 152.32 C 175.20 152.95 176.19 152.99 176.82 152.40 C 177.45 151.81 177.48 150.82 176.89 150.19 Z M 176.14 149.39 L 175.43 148.65 C 174.83 148.03 173.84 148.02 173.22 148.62 C 172.60 149.22 172.59 150.21 173.19 150.83 L 173.90 151.56 C 174.50 152.18 175.49 152.20 176.11 151.60 C 176.73 151.00 176.74 150.01 176.14 149.39 Z M 175.42 148.64 L 174.73 147.95 C 174.13 147.34 173.14 147.33 172.53 147.94 C 171.91 148.55 171.91 149.53 172.52 150.15 L 173.20 150.84 C 173.81 151.45 174.79 151.46 175.41 150.85 C 176.02 150.24 176.02 149.25 175.42 148.64 Z M 174.73 147.94 L 174.09 147.30 C 173.47 146.69 172.49 146.70 171.88 147.31 C 171.27 147.92 171.27 148.90 171.88 149.51 L 172.52 150.15 C 173.13 150.76 174.12 150.76 174.73 150.15 C 175.34 149.54 175.34 148.55 174.73 147.94 Z M 174.08 147.30 L 173.36 146.58 C 172.74 145.97 171.76 145.97 171.15 146.59 C 170.54 147.20 170.54 148.19 171.16 148.79 L 171.88 149.52 C 172.49 150.12 173.48 150.12 174.09 149.51 C 174.70 148.90 174.69 147.91 174.08 147.30 Z M 173.35 146.57 L 172.65 145.89 C 172.04 145.29 171.05 145.30 170.45 145.91 C 169.84 146.53 169.85 147.52 170.47 148.12 L 171.16 148.80 C 171.78 149.40 172.77 149.40 173.37 148.78 C 173.97 148.16 173.96 147.18 173.35 146.57 Z M 172.64 145.88 L 171.93 145.20 C 171.31 144.60 170.32 144.62 169.72 145.25 C 169.13 145.87 169.15 146.86 169.77 147.45 L 170.48 148.13 C 171.10 148.73 172.09 148.71 172.69 148.08 C 173.28 147.46 173.26 146.47 172.64 145.88 Z M 171.91 145.18 L 171.22 144.53 C 170.58 143.95 169.60 143.98 169.01 144.61 C 168.42 145.25 168.46 146.23 169.09 146.82 L 169.79 147.47 C 170.42 148.06 171.41 148.02 171.99 147.39 C 172.58 146.76 172.54 145.77 171.91 145.18 Z M 171.20 144.52 L 170.51 143.90 C 169.87 143.33 168.88 143.38 168.31 144.02 C 167.73 144.66 167.78 145.65 168.43 146.23 L 169.11 146.84 C 169.75 147.42 170.74 147.36 171.32 146.72 C 171.89 146.08 171.84 145.09 171.20 144.52 Z M 170.48 143.88 L 169.73 143.24 C 169.08 142.67 168.09 142.75 167.53 143.40 C 166.97 144.06 167.05 145.04 167.70 145.61 L 168.45 146.25 C 169.11 146.81 170.09 146.73 170.65 146.08 C 171.22 145.42 171.14 144.44 170.48 143.88 Z M 169.70 143.21 L 168.88 142.54 C 168.21 142.00 167.23 142.10 166.68 142.77 C 166.14 143.44 166.25 144.43 166.92 144.97 L 167.74 145.63 C 168.41 146.18 169.39 146.07 169.93 145.40 C 170.47 144.73 170.37 143.75 169.70 143.21 Z M 168.84 142.51 L 167.98 141.85 C 167.29 141.33 166.31 141.47 165.79 142.15 C 165.27 142.84 165.40 143.82 166.09 144.34 L 166.95 145.00 C 167.64 145.52 168.62 145.39 169.14 144.70 C 169.66 144.01 169.53 143.03 168.84 142.51 Z M 167.94 141.83 L 167.19 141.30 C 166.49 140.80 165.52 140.96 165.02 141.66 C 164.52 142.36 164.68 143.34 165.38 143.84 L 166.13 144.37 C 166.83 144.87 167.80 144.71 168.30 144.00 C 168.80 143.30 168.64 142.33 167.94 141.83 Z M 167.16 141.27 L 166.37 140.74 C 165.65 140.26 164.68 140.45 164.20 141.17 C 163.72 141.89 163.91 142.86 164.63 143.34 L 165.42 143.87 C 166.14 144.35 167.11 144.15 167.59 143.44 C 168.07 142.72 167.87 141.75 167.16 141.27 Z M 166.32 140.72 L 165.48 140.19 C 164.75 139.73 163.79 139.95 163.33 140.68 C 162.87 141.41 163.10 142.38 163.83 142.83 L 164.67 143.36 C 165.40 143.82 166.36 143.60 166.82 142.87 C 167.28 142.14 167.06 141.17 166.32 140.72 Z M 165.44 140.16 L 164.55 139.64 C 163.80 139.21 162.85 139.46 162.41 140.21 C 161.98 140.95 162.23 141.91 162.98 142.34 L 163.87 142.86 C 164.61 143.29 165.57 143.04 166.00 142.30 C 166.44 141.55 166.19 140.60 165.44 140.16 Z M 164.50 139.62 L 163.56 139.11 C 162.80 138.70 161.85 138.98 161.44 139.74 C 161.04 140.50 161.32 141.45 162.08 141.86 L 163.02 142.37 C 163.78 142.78 164.73 142.49 165.14 141.73 C 165.55 140.97 165.26 140.03 164.50 139.62 Z M 163.51 139.09 L 162.59 138.62 C 161.81 138.24 160.88 138.56 160.49 139.33 C 160.11 140.10 160.43 141.04 161.20 141.42 L 162.12 141.88 C 162.90 142.27 163.83 141.95 164.22 141.18 C 164.60 140.41 164.29 139.47 163.51 139.09 Z M 162.55 138.61 L 161.65 138.19 C 160.87 137.83 159.94 138.17 159.58 138.95 C 159.22 139.73 159.56 140.66 160.34 141.02 L 161.23 141.44 C 162.02 141.80 162.95 141.46 163.31 140.68 C 163.67 139.90 163.33 138.97 162.55 138.61 Z M 161.63 138.18 L 160.71 137.77 C 159.92 137.42 159.00 137.78 158.65 138.57 C 158.30 139.36 158.66 140.28 159.45 140.63 L 160.37 141.04 C 161.15 141.38 162.08 141.03 162.43 140.24 C 162.77 139.45 162.42 138.53 161.63 138.18 Z M 160.70 137.77 L 159.77 137.37 C 158.97 137.03 158.06 137.39 157.72 138.18 C 157.37 138.97 157.74 139.89 158.53 140.23 L 159.46 140.64 C 160.25 140.98 161.17 140.61 161.51 139.82 C 161.85 139.03 161.49 138.11 160.70 137.77 Z M 159.76 137.36 L 158.83 136.97 C 158.04 136.63 157.12 137.00 156.78 137.79 C 156.44 138.58 156.81 139.50 157.60 139.84 L 158.54 140.24 C 159.33 140.57 160.25 140.21 160.58 139.41 C 160.92 138.62 160.55 137.70 159.76 137.36 Z M 158.83 136.97 L 157.91 136.57 C 157.12 136.23 156.20 136.59 155.86 137.38 C 155.52 138.18 155.88 139.10 156.67 139.44 L 157.60 139.84 C 158.39 140.18 159.31 139.81 159.65 139.02 C 159.99 138.23 159.63 137.31 158.83 136.97 Z M 157.92 136.58 L 157.02 136.17 C 156.23 135.82 155.31 136.18 154.96 136.97 C 154.61 137.76 154.96 138.68 155.75 139.03 L 156.66 139.43 C 157.45 139.78 158.37 139.42 158.72 138.64 C 159.07 137.85 158.71 136.93 157.92 136.58 Z M 157.04 136.19 L 156.05 135.72 C 155.26 135.36 154.34 135.70 153.97 136.48 C 153.61 137.26 153.95 138.19 154.73 138.55 L 155.73 139.02 C 156.51 139.38 157.44 139.04 157.80 138.26 C 158.16 137.48 157.83 136.55 157.04 136.19 Z M 156.07 135.73 L 155.11 135.27 C 154.33 134.89 153.40 135.22 153.02 135.99 C 152.65 136.77 152.97 137.70 153.75 138.08 L 154.71 138.54 C 155.48 138.92 156.42 138.59 156.79 137.82 C 157.17 137.04 156.85 136.11 156.07 135.73 Z M 155.12 135.28 L 154.21 134.82 C 153.43 134.43 152.50 134.75 152.11 135.52 C 151.73 136.29 152.04 137.23 152.81 137.61 L 153.73 138.07 C 154.50 138.45 155.44 138.14 155.83 137.37 C 156.21 136.60 155.90 135.66 155.12 135.28 Z M 154.21 134.82 L 153.34 134.38 C 152.57 133.99 151.63 134.30 151.24 135.07 C 150.85 135.84 151.16 136.78 151.93 137.17 L 152.81 137.61 C 153.58 138.00 154.52 137.69 154.90 136.92 C 155.29 136.15 154.98 135.21 154.21 134.82 Z M 153.34 134.38 L 152.51 133.97 C 151.74 133.58 150.80 133.89 150.41 134.66 C 150.03 135.43 150.34 136.37 151.11 136.76 L 151.94 137.17 C 152.71 137.56 153.65 137.25 154.03 136.48 C 154.42 135.70 154.11 134.77 153.34 134.38 Z M 152.49 133.96 L 151.63 133.54 C 150.85 133.16 149.92 133.48 149.54 134.26 C 149.16 135.03 149.48 135.97 150.26 136.34 L 151.13 136.77 C 151.90 137.14 152.84 136.82 153.21 136.05 C 153.59 135.27 153.27 134.34 152.49 133.96 Z M 151.59 133.52 L 150.53 133.03 C 149.75 132.68 148.82 133.02 148.46 133.80 C 148.10 134.59 148.45 135.51 149.23 135.87 L 150.29 136.36 C 151.08 136.72 152.00 136.37 152.36 135.59 C 152.72 134.80 152.38 133.88 151.59 133.52 Z M 150.48 133.01 L 149.54 132.62 C 148.74 132.29 147.83 132.66 147.49 133.46 C 147.16 134.25 147.54 135.17 148.33 135.50 L 149.28 135.89 C 150.08 136.23 150.99 135.85 151.32 135.06 C 151.65 134.26 151.28 133.35 150.48 133.01 Z M 149.47 132.59 L 148.65 132.29 C 147.84 131.99 146.94 132.41 146.64 133.22 C 146.34 134.03 146.76 134.92 147.57 135.22 L 148.40 135.52 C 149.21 135.82 150.10 135.41 150.40 134.60 C 150.70 133.79 150.28 132.89 149.47 132.59 Z M 148.54 132.26 L 147.62 131.99 C 146.79 131.75 145.93 132.22 145.68 133.05 C 145.44 133.88 145.92 134.74 146.75 134.99 L 147.67 135.25 C 148.50 135.49 149.37 135.02 149.61 134.19 C 149.85 133.36 149.37 132.50 148.54 132.26 Z M 147.44 131.95 L 146.46 131.78 C 145.61 131.64 144.81 132.21 144.66 133.06 C 144.52 133.91 145.09 134.71 145.94 134.86 L 146.92 135.03 C 147.77 135.17 148.58 134.60 148.72 133.75 C 148.87 132.90 148.29 132.09 147.44 131.95 Z M 146.33 131.76 L 145.76 131.72 C 144.90 131.64 144.14 132.28 144.07 133.14 C 144.00 134.00 144.64 134.75 145.50 134.83 L 146.07 134.87 C 146.93 134.95 147.68 134.31 147.76 133.45 C 147.83 132.59 147.19 131.84 146.33 131.76 Z"
      fill="black"
      fill-rule="nonzero" /></svg>