<svg xmlns="http://www.w3.org/2000/svg" width="300" height="300" viewBox="0 0 300 300">
<path d="M 108.70 128.08 L 107.79 128.41 C 106.98 128.70 106.55 129.59 106.84 130.41 C 107.13 131.22 108.03 131.64 108.84 131.35 L 109.75 131.03 C 110.56 130.74 110.99 129.84 110.70 129.03 C 110.41 128.22 109.51 127.79 108.70 128.08 Z M 107.64 128.47 L 106.76 128.90 C 105.98 129.27 105.66 130.20 106.03 130.98 C 106.41 131.76 107.34 132.08 108.12 131.71 L 108.99 131.29 C 109.77 130.91 110.09 129.98 109.72 129.20 C 109.35 128.43 108.41 128.10 107.64 128.47 Z M 106.49 129.07 L 105.69 129.68 C 105.01 130.20 104.88 131.18 105.40 131.87 C 105.93 132.55 106.91 132.68 107.59 132.15 L 108.39 131.54 C 109.07 131.01 109.20 130.03 108.68 129.35 C 108.15 128.67 107.17 128.54 106.49 129.07 Z M 105.42 129.95 L 104.82 130.70 C 104.28 131.38 104.40 132.36 105.07 132.89 C 105.75 133.43 106.73 133.32 107.27 132.64 L 107.86 131.89 C 108.40 131.21 108.29 130.23 107.61 129.69 C 106.94 129.16 105.95 129.27 105.42 129.95 Z M 104.67 130.93 L 104.22 131.75 C 103.81 132.51 104.09 133.46 104.85 133.87 C 105.61 134.28 106.56 134.00 106.97 133.24 L 107.42 132.41 C 107.83 131.66 107.55 130.71 106.79 130.30 C 106.03 129.89 105.08 130.17 104.67 130.93 Z M 104.16 131.89 L 103.76 132.83 C 103.43 133.62 103.80 134.54 104.60 134.87 C 105.39 135.21 106.31 134.83 106.64 134.04 L 107.04 133.10 C 107.37 132.31 106.99 131.39 106.20 131.06 C 105.40 130.72 104.49 131.10 104.16 131.89 Z M 103.73 132.92 L 103.38 133.91 C 103.10 134.72 103.52 135.62 104.34 135.90 C 105.15 136.19 106.04 135.76 106.33 134.94 L 106.68 133.95 C 106.96 133.14 106.53 132.24 105.72 131.96 C 104.91 131.67 104.02 132.10 103.73 132.92 Z M 103.37 133.96 L 103.05 134.96 C 102.79 135.79 103.24 136.66 104.07 136.92 C 104.89 137.18 105.77 136.73 106.03 135.90 L 106.34 134.90 C 106.60 134.08 106.15 133.20 105.32 132.94 C 104.50 132.68 103.62 133.14 103.37 133.96 Z M 103.04 134.98 L 102.78 135.84 C 102.53 136.67 102.99 137.54 103.82 137.79 C 104.64 138.04 105.52 137.58 105.77 136.75 L 106.03 135.89 C 106.28 135.06 105.82 134.19 104.99 133.94 C 104.17 133.69 103.29 134.15 103.04 134.98 Z M 102.78 135.85 L 102.52 136.71 C 102.27 137.54 102.74 138.41 103.57 138.65 C 104.39 138.90 105.26 138.43 105.51 137.61 L 105.77 136.74 C 106.02 135.92 105.55 135.05 104.72 134.80 C 103.89 134.55 103.02 135.02 102.78 135.85 Z M 102.52 136.72 L 102.25 137.62 C 102.01 138.45 102.48 139.32 103.31 139.56 C 104.14 139.80 105.00 139.33 105.25 138.50 L 105.51 137.60 C 105.76 136.77 105.28 135.90 104.46 135.66 C 103.63 135.42 102.76 135.89 102.52 136.72 Z M 102.25 137.63 L 101.96 138.61 C 101.72 139.44 102.20 140.31 103.03 140.55 C 103.86 140.79 104.72 140.31 104.96 139.48 L 105.25 138.50 C 105.49 137.67 105.01 136.80 104.18 136.56 C 103.36 136.32 102.49 136.80 102.25 137.63 Z M 101.96 138.62 L 101.65 139.72 C 101.41 140.55 101.89 141.41 102.71 141.65 C 103.54 141.89 104.41 141.41 104.65 140.58 L 104.96 139.48 C 105.20 138.65 104.72 137.79 103.90 137.55 C 103.07 137.31 102.20 137.79 101.96 138.62 Z M 101.64 139.72 L 101.36 140.72 C 101.12 141.55 101.60 142.41 102.43 142.65 C 103.26 142.88 104.12 142.40 104.36 141.58 L 104.65 140.58 C 104.88 139.75 104.40 138.89 103.58 138.65 C 102.75 138.41 101.88 138.89 101.64 139.72 Z M 101.36 140.72 L 101.09 141.66 C 100.85 142.49 101.33 143.36 102.16 143.59 C 102.99 143.83 103.86 143.35 104.09 142.52 L 104.36 141.57 C 104.60 140.75 104.12 139.88 103.29 139.64 C 102.46 139.41 101.60 139.89 101.36 140.72 Z M 101.09 141.67 L 100.81 142.66 C 100.57 143.49 101.05 144.35 101.88 144.59 C 102.71 144.82 103.57 144.34 103.81 143.51 L 104.09 142.52 C 104.33 141.69 103.85 140.83 103.02 140.59 C 102.19 140.36 101.33 140.84 101.09 141.67 Z M 100.81 142.66 L 100.52 143.67 C 100.28 144.50 100.76 145.36 101.59 145.60 C 102.42 145.84 103.28 145.36 103.52 144.53 L 103.81 143.51 C 104.05 142.68 103.56 141.82 102.74 141.58 C 101.91 141.35 101.04 141.83 100.81 142.66 Z M 100.52 143.67 L 100.23 144.68 C 99.99 145.51 100.48 146.38 101.30 146.61 C 102.13 146.85 103.00 146.37 103.23 145.54 L 103.52 144.53 C 103.76 143.70 103.28 142.83 102.45 142.60 C 101.62 142.36 100.75 142.84 100.52 143.67 Z M 100.23 144.68 L 99.95 145.67 C 99.71 146.50 100.20 147.36 101.02 147.60 C 101.85 147.84 102.72 147.35 102.95 146.52 L 103.23 145.54 C 103.47 144.71 102.99 143.85 102.16 143.61 C 101.33 143.37 100.47 143.86 100.23 144.68 Z M 99.95 145.67 L 99.68 146.61 C 99.45 147.44 99.93 148.30 100.76 148.54 C 101.59 148.77 102.45 148.29 102.69 147.46 L 102.95 146.52 C 103.19 145.70 102.71 144.83 101.88 144.60 C 101.05 144.36 100.18 144.84 99.95 145.67 Z M 99.68 146.61 L 99.41 147.56 C 99.18 148.39 99.66 149.25 100.49 149.49 C 101.32 149.72 102.18 149.24 102.42 148.41 L 102.69 147.46 C 102.92 146.63 102.44 145.77 101.61 145.53 C 100.78 145.30 99.92 145.78 99.68 146.61 Z M 99.41 147.56 L 99.08 148.74 C 98.84 149.57 99.32 150.44 100.15 150.67 C 100.98 150.91 101.85 150.42 102.08 149.59 L 102.42 148.41 C 102.65 147.58 102.17 146.72 101.34 146.48 C 100.51 146.25 99.65 146.73 99.41 147.56 Z M 99.08 148.75 L 98.79 149.76 C 98.56 150.59 99.04 151.45 99.87 151.69 C 100.70 151.92 101.57 151.43 101.80 150.60 L 102.08 149.59 C 102.32 148.76 101.83 147.90 101.00 147.67 C 100.17 147.43 99.31 147.92 99.08 148.75 Z M 98.79 149.77 L 98.55 150.66 C 98.32 151.49 98.81 152.35 99.64 152.58 C 100.47 152.80 101.33 152.32 101.56 151.48 L 101.80 150.60 C 102.03 149.76 101.54 148.90 100.71 148.68 C 99.88 148.45 99.02 148.94 98.79 149.77 Z M 98.54 150.67 L 98.33 151.49 C 98.11 152.32 98.60 153.17 99.44 153.39 C 100.27 153.61 101.12 153.12 101.35 152.28 L 101.56 151.47 C 101.78 150.64 101.28 149.78 100.45 149.56 C 99.62 149.34 98.76 149.84 98.54 150.67 Z M 98.32 151.51 L 98.10 152.38 C 97.89 153.21 98.40 154.06 99.24 154.27 C 100.07 154.48 100.92 153.97 101.13 153.14 L 101.35 152.26 C 101.56 151.43 101.05 150.58 100.22 150.37 C 99.38 150.16 98.53 150.67 98.32 151.51 Z M 98.10 152.40 L 97.87 153.38 C 97.67 154.22 98.19 155.06 99.03 155.26 C 99.87 155.46 100.71 154.94 100.91 154.10 L 101.14 153.11 C 101.34 152.28 100.82 151.43 99.98 151.24 C 99.14 151.04 98.30 151.56 98.10 152.40 Z M 97.86 153.40 L 97.64 154.38 C 97.45 155.22 97.98 156.05 98.82 156.24 C 99.66 156.43 100.50 155.90 100.69 155.06 L 100.91 154.08 C 101.10 153.24 100.57 152.41 99.73 152.22 C 98.89 152.03 98.05 152.56 97.86 153.40 Z M 97.64 154.38 L 97.43 155.35 C 97.24 156.19 97.78 157.02 98.62 157.21 C 99.46 157.39 100.29 156.86 100.48 156.02 L 100.69 155.05 C 100.88 154.21 100.34 153.38 99.50 153.19 C 98.66 153.01 97.83 153.54 97.64 154.38 Z M 97.43 155.35 L 97.21 156.33 C 97.03 157.17 97.56 158.00 98.40 158.19 C 99.25 158.37 100.08 157.84 100.26 157.00 L 100.48 156.02 C 100.66 155.18 100.13 154.34 99.29 154.16 C 98.45 153.97 97.61 154.51 97.43 155.35 Z M 97.21 156.33 L 97.00 157.31 C 96.82 158.15 97.35 158.98 98.19 159.17 C 99.03 159.35 99.87 158.82 100.05 157.97 L 100.26 157.00 C 100.45 156.15 99.92 155.32 99.07 155.14 C 98.23 154.95 97.40 155.49 97.21 156.33 Z M 97.00 157.31 L 96.79 158.28 C 96.61 159.13 97.15 159.96 97.99 160.14 C 98.83 160.32 99.66 159.78 99.84 158.94 L 100.05 157.97 C 100.23 157.12 99.70 156.29 98.85 156.11 C 98.01 155.93 97.18 156.47 97.00 157.31 Z M 96.79 158.30 L 96.59 159.26 C 96.41 160.11 96.96 160.93 97.80 161.11 C 98.64 161.28 99.47 160.74 99.64 159.90 L 99.85 158.93 C 100.02 158.08 99.48 157.26 98.63 157.08 C 97.79 156.91 96.96 157.45 96.79 158.30 Z M 96.58 159.28 L 96.41 160.19 C 96.24 161.03 96.79 161.85 97.64 162.02 C 98.48 162.19 99.30 161.64 99.47 160.79 L 99.65 159.88 C 99.81 159.03 99.26 158.21 98.42 158.05 C 97.57 157.88 96.75 158.43 96.58 159.28 Z M 96.40 160.21 L 96.23 161.15 C 96.07 162.00 96.63 162.82 97.48 162.97 C 98.33 163.13 99.14 162.57 99.30 161.72 L 99.47 160.77 C 99.63 159.92 99.07 159.11 98.22 158.95 C 97.37 158.80 96.56 159.36 96.40 160.21 Z M 96.22 161.18 L 96.05 162.19 C 95.91 163.04 96.48 163.84 97.33 163.99 C 98.18 164.13 98.98 163.56 99.13 162.71 L 99.30 161.70 C 99.45 160.85 98.87 160.04 98.02 159.90 C 97.17 159.75 96.37 160.33 96.22 161.18 Z M 96.05 162.21 L 95.88 163.26 C 95.75 164.11 96.33 164.91 97.18 165.04 C 98.04 165.18 98.83 164.59 98.97 163.74 L 99.13 162.69 C 99.27 161.84 98.68 161.04 97.83 160.91 C 96.98 160.77 96.18 161.36 96.05 162.21 Z M 95.88 163.27 L 95.75 164.17 C 95.63 165.02 96.22 165.81 97.07 165.94 C 97.92 166.06 98.72 165.47 98.84 164.62 L 98.97 163.73 C 99.10 162.87 98.51 162.08 97.65 161.95 C 96.80 161.83 96.01 162.42 95.88 163.27 Z M 95.75 164.17 L 95.62 165.12 C 95.50 165.98 96.09 166.77 96.94 166.89 C 97.80 167.01 98.59 166.41 98.71 165.56 L 98.84 164.61 C 98.96 163.75 98.37 162.97 97.51 162.85 C 96.66 162.73 95.87 163.32 95.75 164.17 Z M 95.62 165.13 L 95.48 166.13 C 95.36 166.98 95.96 167.77 96.81 167.89 C 97.67 168.00 98.45 167.41 98.57 166.55 L 98.71 165.55 C 98.83 164.70 98.23 163.91 97.37 163.79 C 96.52 163.68 95.73 164.27 95.62 165.13 Z M 95.48 166.13 L 95.33 167.18 C 95.22 168.03 95.82 168.82 96.67 168.93 C 97.52 169.05 98.31 168.45 98.43 167.60 L 98.57 166.55 C 98.69 165.70 98.09 164.91 97.24 164.79 C 96.38 164.68 95.59 165.27 95.48 166.13 Z M 95.33 167.17 L 95.18 168.26 C 95.07 169.11 95.66 169.90 96.52 170.02 C 97.37 170.14 98.16 169.54 98.28 168.69 L 98.43 167.60 C 98.55 166.75 97.95 165.96 97.09 165.84 C 96.24 165.72 95.45 166.32 95.33 167.17 Z M 95.19 168.26 L 95.05 169.21 C 94.93 170.06 95.53 170.85 96.38 170.97 C 97.24 171.09 98.03 170.49 98.14 169.64 L 98.28 168.69 C 98.40 167.84 97.80 167.05 96.95 166.93 C 96.09 166.81 95.30 167.40 95.19 168.26 Z M 95.05 169.20 L 94.92 170.17 C 94.80 171.02 95.39 171.81 96.24 171.93 C 97.10 172.05 97.89 171.46 98.01 170.61 L 98.14 169.64 C 98.27 168.79 97.67 168.00 96.82 167.88 C 95.96 167.76 95.17 168.35 95.05 169.20 Z M 94.92 170.17 L 94.78 171.15 C 94.66 172.01 95.25 172.80 96.10 172.92 C 96.96 173.04 97.75 172.45 97.87 171.59 L 98.01 170.61 C 98.13 169.75 97.53 168.96 96.68 168.84 C 95.83 168.72 95.04 169.31 94.92 170.17 Z M 94.78 171.15 L 94.64 172.16 C 94.52 173.01 95.11 173.80 95.96 173.92 C 96.82 174.04 97.61 173.44 97.73 172.59 L 97.87 171.59 C 97.99 170.74 97.39 169.95 96.54 169.83 C 95.69 169.71 94.90 170.30 94.78 171.15 Z M 94.64 172.16 L 94.49 173.17 C 94.37 174.03 94.97 174.81 95.82 174.93 C 96.68 175.05 97.47 174.46 97.59 173.60 L 97.73 172.59 C 97.85 171.73 97.25 170.95 96.40 170.83 C 95.54 170.71 94.75 171.30 94.64 172.16 Z M 94.49 173.18 L 94.35 174.20 C 94.24 175.05 94.83 175.84 95.69 175.96 C 96.54 176.07 97.33 175.48 97.45 174.62 L 97.59 173.60 C 97.70 172.74 97.11 171.96 96.25 171.84 C 95.40 171.72 94.61 172.32 94.49 173.18 Z M 94.35 174.20 L 94.21 175.24 C 94.10 176.10 94.70 176.88 95.55 177.00 C 96.41 177.11 97.19 176.51 97.31 175.66 L 97.45 174.62 C 97.56 173.76 96.96 172.98 96.11 172.86 C 95.25 172.75 94.47 173.35 94.35 174.20 Z M 94.21 175.25 L 94.08 176.28 C 93.97 177.14 94.57 177.92 95.42 178.04 C 96.28 178.15 97.06 177.55 97.17 176.69 L 97.31 175.65 C 97.42 174.80 96.82 174.01 95.96 173.90 C 95.11 173.79 94.33 174.39 94.21 175.25 Z M 94.08 176.29 L 93.94 177.31 C 93.83 178.17 94.44 178.95 95.29 179.06 C 96.15 179.17 96.93 178.57 97.04 177.71 L 97.17 176.69 C 97.28 175.83 96.68 175.05 95.83 174.94 C 94.97 174.83 94.19 175.43 94.08 176.29 Z M 93.94 177.31 L 93.81 178.31 C 93.70 179.17 94.31 179.95 95.16 180.06 C 96.02 180.17 96.80 179.57 96.91 178.71 L 97.04 177.71 C 97.15 176.86 96.55 176.08 95.69 175.96 C 94.84 175.85 94.05 176.46 93.94 177.31 Z M 93.81 178.31 L 93.69 179.28 C 93.58 180.13 94.18 180.92 95.04 181.03 C 95.89 181.14 96.67 180.54 96.79 179.68 L 96.91 178.72 C 97.02 177.86 96.42 177.08 95.56 176.97 C 94.71 176.86 93.93 177.46 93.81 178.31 Z M 93.69 179.28 L 93.57 180.20 C 93.45 181.05 94.05 181.84 94.91 181.95 C 95.76 182.06 96.55 181.46 96.66 180.61 L 96.78 179.69 C 96.90 178.83 96.30 178.05 95.44 177.93 C 94.59 177.82 93.80 178.42 93.69 179.28 Z M 93.57 180.19 L 93.43 181.20 C 93.31 182.05 93.91 182.84 94.76 182.95 C 95.62 183.07 96.41 182.47 96.52 181.62 L 96.66 180.61 C 96.78 179.76 96.18 178.97 95.33 178.86 C 94.47 178.74 93.69 179.34 93.57 180.19 Z M 93.43 181.19 L 93.29 182.19 C 93.17 183.05 93.76 183.84 94.61 183.96 C 95.47 184.08 96.26 183.49 96.38 182.63 L 96.52 181.63 C 96.64 180.77 96.05 179.98 95.20 179.86 C 94.34 179.74 93.55 180.33 93.43 181.19 Z M 93.29 182.19 L 93.15 183.15 C 93.02 184.01 93.61 184.80 94.47 184.92 C 95.32 185.05 96.11 184.46 96.24 183.61 L 96.38 182.64 C 96.50 181.79 95.91 180.99 95.06 180.87 C 94.21 180.74 93.41 181.33 93.29 182.19 Z M 93.15 183.15 L 93.01 184.10 C 92.88 184.96 93.47 185.75 94.32 185.88 C 95.17 186.01 95.97 185.42 96.09 184.56 L 96.24 183.61 C 96.36 182.76 95.77 181.96 94.92 181.83 C 94.07 181.71 93.27 182.30 93.15 183.15 Z M 93.01 184.11 L 92.86 185.08 C 92.73 185.94 93.32 186.73 94.18 186.86 C 95.03 186.98 95.82 186.39 95.95 185.54 L 96.09 184.56 C 96.22 183.71 95.63 182.92 94.78 182.79 C 93.93 182.66 93.13 183.25 93.01 184.11 Z M 92.86 185.09 L 92.72 186.04 C 92.60 186.89 93.19 187.69 94.04 187.81 C 94.89 187.94 95.69 187.35 95.81 186.49 L 95.95 185.54 C 96.07 184.68 95.48 183.89 94.63 183.77 C 93.78 183.64 92.98 184.23 92.86 185.09 Z M 92.72 186.05 L 92.58 187.02 C 92.46 187.87 93.05 188.66 93.91 188.79 C 94.76 188.91 95.55 188.31 95.67 187.46 L 95.81 186.49 C 95.93 185.63 95.34 184.84 94.49 184.72 C 93.63 184.60 92.84 185.19 92.72 186.05 Z M 92.58 187.03 L 92.44 188.03 C 92.33 188.88 92.92 189.67 93.78 189.79 C 94.63 189.90 95.42 189.31 95.54 188.45 L 95.67 187.45 C 95.79 186.60 95.19 185.81 94.34 185.69 C 93.49 185.58 92.70 186.17 92.58 187.03 Z M 92.44 188.04 L 92.31 189.05 C 92.20 189.90 92.80 190.69 93.65 190.80 C 94.51 190.91 95.29 190.31 95.40 189.46 L 95.54 188.44 C 95.65 187.59 95.05 186.80 94.19 186.69 C 93.34 186.58 92.55 187.18 92.44 188.04 Z M 92.31 189.06 L 92.18 190.07 C 92.08 190.93 92.69 191.71 93.54 191.81 C 94.40 191.92 95.18 191.31 95.28 190.46 L 95.41 189.44 C 95.51 188.59 94.90 187.81 94.05 187.70 C 93.19 187.60 92.41 188.21 92.31 189.06 Z M 92.18 190.09 L 92.07 191.11 C 91.97 191.96 92.58 192.74 93.44 192.83 C 94.30 192.93 95.07 192.32 95.17 191.46 L 95.28 190.44 C 95.38 189.58 94.76 188.81 93.91 188.71 C 93.05 188.62 92.28 189.23 92.18 190.09 Z M 92.06 191.13 L 91.96 192.15 C 91.87 193.01 92.50 193.78 93.36 193.86 C 94.21 193.95 94.98 193.33 95.07 192.47 L 95.17 191.44 C 95.26 190.58 94.63 189.82 93.77 189.73 C 92.92 189.64 92.15 190.27 92.06 191.13 Z M 91.96 192.17 L 91.87 193.18 C 91.79 194.04 92.42 194.80 93.28 194.87 C 94.14 194.95 94.90 194.32 94.98 193.46 L 95.07 192.45 C 95.14 191.59 94.51 190.83 93.65 190.76 C 92.79 190.68 92.03 191.31 91.96 192.17 Z M 91.87 193.20 L 91.79 194.18 C 91.72 195.04 92.37 195.79 93.22 195.86 C 94.08 195.93 94.84 195.29 94.90 194.43 L 94.98 193.44 C 95.05 192.58 94.40 191.83 93.54 191.76 C 92.68 191.69 91.93 192.34 91.87 193.20 Z M 91.79 194.20 L 91.72 195.17 C 91.67 196.03 92.32 196.78 93.18 196.84 C 94.04 196.89 94.78 196.24 94.84 195.38 L 94.90 194.41 C 94.96 193.55 94.31 192.80 93.45 192.75 C 92.59 192.69 91.85 193.34 91.79 194.20 Z M 91.72 195.19 L 91.67 196.17 C 91.62 197.03 92.28 197.76 93.14 197.81 C 94.00 197.86 94.74 197.20 94.79 196.34 L 94.84 195.36 C 94.89 194.50 94.23 193.77 93.37 193.72 C 92.51 193.67 91.77 194.33 91.72 195.19 Z M 91.67 196.19 L 91.62 197.20 C 91.59 198.06 92.26 198.79 93.12 198.82 C 93.98 198.86 94.71 198.19 94.74 197.33 L 94.79 196.32 C 94.83 195.46 94.16 194.73 93.30 194.69 C 92.43 194.66 91.71 195.32 91.67 196.19 Z M 91.62 197.21 L 91.59 198.21 C 91.56 199.07 92.24 199.80 93.10 199.83 C 93.96 199.85 94.68 199.18 94.71 198.32 L 94.74 197.32 C 94.77 196.45 94.10 195.73 93.24 195.70 C 92.37 195.67 91.65 196.35 91.62 197.21 Z M 91.59 198.23 L 91.57 199.22 C 91.54 200.08 92.23 200.80 93.09 200.82 C 93.95 200.84 94.67 200.16 94.69 199.30 L 94.71 198.30 C 94.73 197.44 94.05 196.73 93.19 196.70 C 92.33 196.68 91.61 197.36 91.59 198.23 Z M 91.57 199.23 L 91.55 200.22 C 91.53 201.09 92.22 201.80 93.08 201.81 C 93.94 201.83 94.65 201.14 94.67 200.28 L 94.69 199.29 C 94.70 198.43 94.02 197.71 93.15 197.70 C 92.29 197.68 91.58 198.37 91.57 199.23 Z M 91.55 200.23 L 91.54 201.25 C 91.53 202.11 92.22 202.82 93.08 202.83 C 93.94 202.84 94.65 202.15 94.66 201.29 L 94.67 200.27 C 94.68 199.41 93.99 198.70 93.13 198.69 C 92.27 198.68 91.56 199.37 91.55 200.23 Z M 91.54 201.26 L 91.53 202.30 C 91.52 203.16 92.22 203.86 93.08 203.87 C 93.94 203.88 94.64 203.18 94.65 202.32 L 94.66 201.28 C 94.66 200.42 93.97 199.71 93.11 199.71 C 92.25 199.70 91.54 200.39 91.54 201.26 Z M 91.53 202.30 L 91.52 203.32 C 91.52 204.19 92.22 204.89 93.08 204.89 C 93.94 204.89 94.64 204.20 94.65 203.34 L 94.65 202.32 C 94.65 201.45 93.96 200.75 93.10 200.75 C 92.23 200.74 91.53 201.44 91.53 202.30 Z M 91.52 203.33 L 91.52 204.31 C 91.52 205.18 92.22 205.88 93.08 205.88 C 93.94 205.88 94.64 205.18 94.65 204.32 L 94.65 203.33 C 94.65 202.47 93.95 201.77 93.09 201.77 C 92.23 201.77 91.53 202.47 91.52 203.33 Z M 91.52 204.32 L 91.52 205.25 C 91.52 206.12 92.22 206.82 93.08 206.82 C 93.95 206.82 94.64 206.12 94.65 205.25 L 94.65 204.32 C 94.65 203.46 93.95 202.76 93.08 202.76 C 92.22 202.76 91.52 203.45 91.52 204.32 Z M 91.52 205.26 L 91.52 206.29 C 91.53 207.15 92.23 207.85 93.09 207.85 C 93.95 207.85 94.65 207.15 94.65 206.28 L 94.65 205.25 C 94.64 204.39 93.94 203.69 93.08 203.69 C 92.22 203.69 91.52 204.39 91.52 205.26 Z M 91.52 206.31 L 91.54 207.30 C 91.55 208.16 92.26 208.85 93.12 208.84 C 93.98 208.83 94.67 208.12 94.66 207.26 L 94.65 206.27 C 94.64 205.40 93.93 204.71 93.07 204.72 C 92.20 204.74 91.51 205.44 91.52 206.31 Z M 91.54 207.33 L 91.57 208.31 C 91.60 209.17 92.33 209.84 93.19 209.81 C 94.05 209.78 94.72 209.05 94.69 208.19 L 94.66 207.22 C 94.63 206.36 93.90 205.68 93.04 205.72 C 92.18 205.75 91.51 206.47 91.54 207.33 Z M 91.58 208.36 L 91.65 209.35 C 91.71 210.21 92.45 210.85 93.31 210.79 C 94.17 210.73 94.82 209.99 94.76 209.13 L 94.69 208.14 C 94.63 207.28 93.88 206.63 93.02 206.69 C 92.16 206.75 91.52 207.50 91.58 208.36 Z M 91.65 209.41 L 91.76 210.37 C 91.85 211.23 92.62 211.85 93.48 211.75 C 94.33 211.66 94.95 210.89 94.86 210.03 L 94.75 209.07 C 94.66 208.21 93.89 207.59 93.03 207.68 C 92.18 207.78 91.56 208.55 91.65 209.41 Z M 91.76 210.43 L 91.91 211.42 C 92.04 212.28 92.83 212.87 93.68 212.74 C 94.54 212.61 95.13 211.82 95.00 210.97 L 94.85 209.97 C 94.73 209.12 93.93 208.53 93.08 208.66 C 92.23 208.78 91.64 209.58 91.76 210.43 Z M 91.92 211.49 L 92.11 212.49 C 92.27 213.33 93.09 213.89 93.94 213.73 C 94.79 213.57 95.34 212.75 95.18 211.90 L 94.99 210.90 C 94.83 210.06 94.01 209.50 93.16 209.66 C 92.32 209.82 91.76 210.64 91.92 211.49 Z M 92.13 212.56 L 92.36 213.55 C 92.57 214.38 93.41 214.90 94.25 214.70 C 95.09 214.50 95.60 213.65 95.40 212.82 L 95.16 211.83 C 94.96 210.99 94.12 210.48 93.28 210.68 C 92.44 210.88 91.93 211.72 92.13 212.56 Z M 92.39 213.63 L 92.68 214.60 C 92.92 215.43 93.79 215.90 94.62 215.65 C 95.44 215.41 95.91 214.54 95.67 213.71 L 95.38 212.74 C 95.13 211.91 94.26 211.44 93.44 211.68 C 92.61 211.93 92.14 212.80 92.39 213.63 Z M 92.70 214.67 L 93.03 215.62 C 93.32 216.43 94.21 216.86 95.02 216.57 C 95.84 216.29 96.26 215.39 95.98 214.58 L 95.64 213.64 C 95.36 212.82 94.47 212.40 93.65 212.68 C 92.84 212.97 92.41 213.86 92.70 214.67 Z M 93.06 215.68 L 93.43 216.60 C 93.75 217.40 94.66 217.79 95.46 217.47 C 96.26 217.15 96.65 216.24 96.32 215.44 L 95.95 214.52 C 95.63 213.72 94.72 213.33 93.92 213.65 C 93.12 213.97 92.74 214.88 93.06 215.68 Z M 93.45 216.66 L 93.85 217.56 C 94.20 218.35 95.13 218.70 95.91 218.35 C 96.70 218.00 97.05 217.07 96.70 216.29 L 96.30 215.39 C 95.95 214.60 95.03 214.24 94.24 214.59 C 93.45 214.95 93.10 215.87 93.45 216.66 Z M 93.87 217.60 L 94.30 218.49 C 94.67 219.26 95.60 219.59 96.38 219.21 C 97.16 218.84 97.48 217.91 97.11 217.13 L 96.68 216.24 C 96.31 215.47 95.38 215.14 94.60 215.52 C 93.82 215.89 93.50 216.82 93.87 217.60 Z M 94.31 218.52 L 94.76 219.40 C 95.15 220.17 96.09 220.47 96.86 220.08 C 97.63 219.69 97.94 218.75 97.54 217.98 L 97.10 217.10 C 96.70 216.33 95.76 216.03 95.00 216.42 C 94.23 216.81 93.92 217.75 94.31 218.52 Z M 94.77 219.42 L 95.24 220.31 C 95.65 221.07 96.59 221.36 97.35 220.96 C 98.12 220.55 98.41 219.61 98.00 218.85 L 97.53 217.96 C 97.13 217.20 96.19 216.91 95.42 217.31 C 94.66 217.71 94.37 218.66 94.77 219.42 Z M 95.25 220.32 L 95.74 221.22 C 96.15 221.98 97.09 222.26 97.85 221.85 C 98.61 221.44 98.89 220.49 98.48 219.73 L 98.00 218.83 C 97.59 218.08 96.64 217.79 95.88 218.20 C 95.12 218.61 94.84 219.56 95.25 220.32 Z M 95.74 221.22 L 96.21 222.09 C 96.62 222.84 97.57 223.12 98.33 222.71 C 99.08 222.30 99.36 221.35 98.95 220.59 L 98.48 219.73 C 98.07 218.97 97.12 218.69 96.36 219.11 C 95.61 219.52 95.33 220.47 95.74 221.22 Z M 96.21 222.09 L 96.69 222.97 C 97.10 223.72 98.05 224.00 98.81 223.59 C 99.57 223.18 99.84 222.23 99.43 221.47 L 98.95 220.59 C 98.54 219.84 97.59 219.56 96.83 219.97 C 96.08 220.38 95.80 221.33 96.21 222.09 Z M 96.69 222.97 L 97.17 223.85 C 97.59 224.61 98.53 224.89 99.29 224.47 C 100.05 224.06 100.33 223.11 99.91 222.36 L 99.43 221.47 C 99.02 220.71 98.07 220.44 97.31 220.85 C 96.56 221.26 96.28 222.21 96.69 222.97 Z M 97.17 223.85 L 97.65 224.73 C 98.07 225.49 99.01 225.77 99.77 225.36 C 100.53 224.95 100.81 224.00 100.40 223.24 L 99.91 222.36 C 99.50 221.60 98.55 221.32 97.80 221.73 C 97.04 222.14 96.76 223.09 97.17 223.85 Z M 97.65 224.73 L 98.14 225.64 C 98.55 226.40 99.50 226.68 100.26 226.27 C 101.02 225.86 101.30 224.91 100.89 224.15 L 100.40 223.25 C 99.99 222.49 99.04 222.20 98.28 222.62 C 97.52 223.03 97.24 223.97 97.65 224.73 Z M 98.15 225.64 L 98.64 226.54 C 99.05 227.30 100.00 227.58 100.75 227.17 C 101.51 226.76 101.79 225.81 101.38 225.05 L 100.89 224.15 C 100.48 223.39 99.53 223.11 98.77 223.53 C 98.01 223.94 97.73 224.89 98.15 225.64 Z M 98.64 226.56 L 99.13 227.43 C 99.55 228.18 100.50 228.45 101.25 228.03 C 102.01 227.61 102.28 226.66 101.86 225.91 L 101.37 225.04 C 100.95 224.28 100.00 224.01 99.25 224.43 C 98.49 224.85 98.22 225.81 98.64 226.56 Z M 99.14 227.46 L 99.63 228.29 C 100.06 229.03 101.02 229.29 101.77 228.85 C 102.51 228.42 102.76 227.46 102.33 226.72 L 101.84 225.88 C 101.41 225.14 100.45 224.89 99.71 225.32 C 98.96 225.76 98.71 226.71 99.14 227.46 Z M 99.66 228.33 L 100.19 229.19 C 100.65 229.93 101.61 230.15 102.35 229.69 C 103.08 229.23 103.30 228.27 102.84 227.54 L 102.30 226.68 C 101.85 225.94 100.88 225.72 100.15 226.18 C 99.42 226.64 99.20 227.60 99.66 228.33 Z M 100.23 229.25 L 100.81 230.09 C 101.30 230.80 102.27 230.98 102.98 230.49 C 103.69 230.00 103.87 229.03 103.38 228.32 L 102.81 227.48 C 102.32 226.77 101.34 226.59 100.63 227.08 C 99.92 227.57 99.74 228.54 100.23 229.25 Z M 100.86 230.16 L 101.46 230.93 C 101.98 231.62 102.96 231.74 103.65 231.22 C 104.33 230.69 104.46 229.71 103.93 229.03 L 103.33 228.25 C 102.81 227.57 101.82 227.44 101.14 227.97 C 100.46 228.50 100.33 229.48 100.86 230.16 Z M 101.52 231.01 L 102.16 231.74 C 102.73 232.38 103.71 232.45 104.36 231.88 C 105.01 231.31 105.07 230.32 104.50 229.68 L 103.87 228.95 C 103.30 228.30 102.31 228.24 101.66 228.81 C 101.02 229.38 100.95 230.36 101.52 231.01 Z M 102.24 231.82 L 102.96 232.53 C 103.58 233.13 104.57 233.12 105.17 232.50 C 105.77 231.88 105.76 230.89 105.14 230.29 L 104.42 229.59 C 103.80 228.99 102.81 229.00 102.21 229.62 C 101.61 230.23 101.62 231.22 102.24 231.82 Z M 103.08 232.63 L 103.87 233.25 C 104.54 233.79 105.52 233.67 106.06 232.99 C 106.59 232.32 106.48 231.34 105.80 230.80 L 105.02 230.18 C 104.34 229.65 103.36 229.77 102.83 230.44 C 102.29 231.12 102.41 232.10 103.08 232.63 Z M 104.04 233.37 L 104.89 233.88 C 105.63 234.32 106.59 234.07 107.03 233.33 C 107.47 232.59 107.22 231.63 106.48 231.19 L 105.63 230.68 C 104.89 230.24 103.93 230.49 103.49 231.23 C 103.05 231.97 103.29 232.93 104.04 233.37 Z M 105.09 233.98 L 105.96 234.34 C 106.76 234.66 107.67 234.28 108.00 233.49 C 108.33 232.69 107.95 231.78 107.15 231.45 L 106.28 231.09 C 105.48 230.76 104.57 231.14 104.24 231.94 C 103.91 232.74 104.29 233.65 105.09 233.98 Z M 106.13 234.39 L 107.06 234.66 C 107.89 234.90 108.75 234.42 108.99 233.59 C 109.23 232.76 108.74 231.89 107.92 231.66 L 106.98 231.39 C 106.15 231.15 105.29 231.63 105.05 232.46 C 104.82 233.29 105.30 234.16 106.13 234.39 Z M 107.17 234.69 L 108.17 234.90 C 109.02 235.07 109.84 234.53 110.02 233.69 C 110.20 232.84 109.66 232.02 108.81 231.84 L 107.81 231.63 C 106.96 231.45 106.14 231.99 105.96 232.84 C 105.78 233.68 106.32 234.51 107.17 234.69 Z M 108.23 234.91 L 109.25 235.08 C 110.10 235.23 110.91 234.66 111.06 233.81 C 111.21 232.97 110.64 232.16 109.79 232.01 L 108.76 231.83 C 107.91 231.68 107.10 232.25 106.96 233.10 C 106.81 233.95 107.38 234.76 108.23 234.91 Z M 109.27 235.09 L 110.23 235.24 C 111.08 235.38 111.88 234.80 112.02 233.95 C 112.15 233.10 111.58 232.30 110.72 232.16 L 109.77 232.01 C 108.92 231.87 108.12 232.45 107.98 233.30 C 107.84 234.15 108.42 234.95 109.27 235.09 Z M 110.25 235.25 L 111.24 235.39 C 112.09 235.52 112.89 234.93 113.01 234.08 C 113.14 233.22 112.55 232.43 111.70 232.30 L 110.71 232.16 C 109.85 232.03 109.06 232.62 108.93 233.47 C 108.81 234.32 109.39 235.12 110.25 235.25 Z M 111.26 235.40 L 112.27 235.53 C 113.13 235.64 113.91 235.04 114.03 234.19 C 114.14 233.33 113.54 232.55 112.69 232.44 L 111.67 232.30 C 110.82 232.19 110.03 232.79 109.92 233.64 C 109.81 234.50 110.41 235.28 111.26 235.40 Z M 112.30 235.53 L 113.32 235.65 C 114.18 235.75 114.95 235.14 115.05 234.28 C 115.15 233.42 114.53 232.65 113.68 232.55 L 112.66 232.43 C 111.80 232.33 111.03 232.95 110.93 233.80 C 110.83 234.66 111.45 235.44 112.30 235.53 Z M 113.35 235.65 L 114.33 235.75 C 115.19 235.83 115.95 235.20 116.03 234.34 C 116.11 233.48 115.48 232.72 114.63 232.64 L 113.64 232.55 C 112.79 232.46 112.02 233.09 111.94 233.95 C 111.86 234.81 112.49 235.57 113.35 235.65 Z M 114.36 235.75 L 115.35 235.82 C 116.21 235.89 116.96 235.24 117.02 234.38 C 117.08 233.52 116.44 232.77 115.58 232.71 L 114.59 232.64 C 113.74 232.57 112.99 233.22 112.92 234.08 C 112.86 234.94 113.50 235.69 114.36 235.75 Z M 115.38 235.83 L 116.37 235.88 C 117.23 235.93 117.97 235.27 118.02 234.41 C 118.07 233.55 117.41 232.81 116.55 232.76 L 115.55 232.71 C 114.69 232.66 113.95 233.32 113.90 234.18 C 113.86 235.04 114.51 235.78 115.38 235.83 Z M 116.40 235.88 L 117.41 235.92 C 118.28 235.96 119.00 235.29 119.04 234.43 C 119.07 233.56 118.40 232.84 117.54 232.80 L 116.52 232.76 C 115.66 232.73 114.93 233.40 114.90 234.26 C 114.87 235.12 115.54 235.85 116.40 235.88 Z M 117.44 235.92 L 118.46 235.95 C 119.32 235.97 120.04 235.29 120.06 234.43 C 120.08 233.57 119.40 232.85 118.54 232.83 L 117.52 232.80 C 116.66 232.78 115.94 233.46 115.92 234.32 C 115.89 235.18 116.57 235.90 117.44 235.92 Z M 118.48 235.95 L 119.50 235.97 C 120.36 235.98 121.07 235.29 121.09 234.43 C 121.10 233.56 120.41 232.86 119.55 232.84 L 118.52 232.83 C 117.66 232.82 116.95 233.51 116.94 234.37 C 116.93 235.23 117.61 235.94 118.48 235.95 Z M 119.52 235.97 L 120.54 235.97 C 121.40 235.97 122.10 235.28 122.11 234.42 C 122.11 233.55 121.41 232.85 120.55 232.85 L 119.53 232.84 C 118.67 232.84 117.97 233.53 117.96 234.40 C 117.96 235.26 118.66 235.96 119.52 235.97 Z M 120.55 235.97 L 121.54 235.97 C 122.40 235.96 123.10 235.26 123.10 234.40 C 123.09 233.54 122.39 232.84 121.53 232.84 L 120.54 232.85 C 119.68 232.85 118.98 233.55 118.98 234.42 C 118.99 235.28 119.69 235.97 120.55 235.97 Z M 121.55 235.97 L 122.52 235.95 C 123.38 235.94 124.07 235.24 124.06 234.37 C 124.05 233.51 123.34 232.82 122.48 232.83 L 121.52 232.84 C 120.65 232.85 119.96 233.56 119.97 234.42 C 119.99 235.29 120.69 235.98 121.55 235.97 Z M 122.54 235.95 L 123.60 235.92 C 124.46 235.90 125.14 235.18 125.12 234.32 C 125.10 233.46 124.38 232.78 123.52 232.80 L 122.46 232.83 C 121.60 232.85 120.92 233.57 120.94 234.43 C 120.96 235.30 121.68 235.98 122.54 235.95 Z M 123.66 235.92 L 124.65 235.86 C 125.51 235.80 126.16 235.06 126.11 234.20 C 126.05 233.34 125.31 232.69 124.45 232.74 L 123.46 232.81 C 122.60 232.86 121.95 233.60 122.00 234.46 C 122.06 235.32 122.80 235.98 123.66 235.92 Z M 124.75 235.85 L 125.70 235.73 C 126.55 235.62 127.16 234.84 127.05 233.98 C 126.94 233.13 126.16 232.52 125.31 232.63 L 124.35 232.75 C 123.50 232.86 122.89 233.64 123.00 234.50 C 123.11 235.35 123.89 235.96 124.75 235.85 Z M 125.83 235.71 L 126.77 235.51 C 127.61 235.33 128.15 234.50 127.97 233.65 C 127.79 232.81 126.96 232.27 126.12 232.45 L 125.18 232.65 C 124.33 232.83 123.80 233.66 123.98 234.51 C 124.16 235.35 124.99 235.89 125.83 235.71 Z M 126.90 235.47 L 127.84 235.18 C 128.67 234.93 129.13 234.06 128.88 233.23 C 128.62 232.41 127.75 231.95 126.93 232.20 L 125.98 232.49 C 125.16 232.74 124.70 233.61 124.95 234.44 C 125.20 235.26 126.08 235.72 126.90 235.47 Z M 127.95 235.14 L 128.89 234.78 C 129.69 234.46 130.09 233.56 129.77 232.75 C 129.46 231.95 128.55 231.56 127.75 231.87 L 126.81 232.24 C 126.01 232.55 125.62 233.46 125.93 234.26 C 126.24 235.06 127.15 235.46 127.95 235.14 Z M 128.98 234.74 L 129.90 234.31 C 130.68 233.94 131.02 233.01 130.65 232.23 C 130.29 231.45 129.36 231.11 128.58 231.48 L 127.66 231.91 C 126.88 232.28 126.54 233.21 126.91 233.99 C 127.27 234.77 128.20 235.10 128.98 234.74 Z M 129.98 234.27 L 130.87 233.78 C 131.63 233.37 131.91 232.43 131.50 231.67 C 131.09 230.91 130.14 230.63 129.38 231.04 L 128.50 231.52 C 127.74 231.93 127.46 232.88 127.87 233.64 C 128.28 234.39 129.22 234.68 129.98 234.27 Z M 130.94 233.74 L 131.80 233.22 C 132.54 232.77 132.77 231.81 132.32 231.08 C 131.87 230.34 130.91 230.11 130.17 230.55 L 129.32 231.08 C 128.58 231.53 128.35 232.49 128.80 233.22 C 129.24 233.96 130.20 234.19 130.94 233.74 Z M 131.86 233.18 L 132.69 232.63 C 133.40 232.15 133.59 231.18 133.11 230.46 C 132.63 229.75 131.66 229.55 130.95 230.03 L 130.12 230.59 C 129.40 231.07 129.21 232.04 129.69 232.76 C 130.17 233.47 131.14 233.66 131.86 233.18 Z M 132.73 232.59 L 133.54 232.01 C 134.23 231.51 134.39 230.53 133.88 229.83 C 133.38 229.13 132.40 228.98 131.70 229.48 L 130.90 230.07 C 130.20 230.57 130.05 231.55 130.55 232.25 C 131.06 232.95 132.04 233.10 132.73 232.59 Z M 133.58 231.98 L 134.38 231.36 C 135.06 230.83 135.18 229.85 134.65 229.17 C 134.12 228.49 133.14 228.37 132.46 228.90 L 131.66 229.52 C 130.98 230.04 130.86 231.03 131.39 231.71 C 131.92 232.39 132.90 232.51 133.58 231.98 Z M 134.42 231.33 L 135.19 230.68 C 135.85 230.13 135.94 229.15 135.39 228.48 C 134.83 227.82 133.85 227.73 133.19 228.29 L 132.42 228.93 C 131.76 229.48 131.67 230.47 132.22 231.13 C 132.77 231.79 133.76 231.88 134.42 231.33 Z M 135.24 230.64 L 135.97 229.97 C 136.61 229.39 136.66 228.41 136.08 227.77 C 135.50 227.13 134.51 227.08 133.88 227.66 L 133.14 228.33 C 132.50 228.91 132.45 229.89 133.03 230.53 C 133.61 231.17 134.60 231.22 135.24 230.64 Z M 136.02 229.92 L 136.72 229.23 C 137.33 228.63 137.34 227.64 136.73 227.02 C 136.12 226.41 135.13 226.41 134.52 227.02 L 133.82 227.71 C 133.21 228.32 133.21 229.31 133.82 229.92 C 134.42 230.53 135.41 230.53 136.02 229.92 Z M 136.77 229.18 L 137.42 228.47 C 138.01 227.83 137.96 226.84 137.33 226.26 C 136.69 225.68 135.70 225.72 135.12 226.36 L 134.47 227.07 C 133.89 227.71 133.93 228.70 134.57 229.28 C 135.20 229.86 136.19 229.81 136.77 229.18 Z M 137.47 228.41 L 138.10 227.65 C 138.65 226.99 138.56 226.00 137.90 225.45 C 137.24 224.90 136.25 224.99 135.70 225.66 L 135.07 226.41 C 134.52 227.08 134.61 228.06 135.27 228.61 C 135.94 229.16 136.92 229.07 137.47 228.41 Z M 138.14 227.60 L 138.76 226.78 C 139.28 226.10 139.15 225.12 138.46 224.60 C 137.78 224.08 136.80 224.21 136.28 224.90 L 135.66 225.71 C 135.14 226.40 135.27 227.38 135.96 227.90 C 136.64 228.42 137.62 228.29 138.14 227.60 Z M 138.80 226.74 L 139.38 225.91 C 139.88 225.20 139.71 224.23 139.00 223.73 C 138.30 223.24 137.32 223.41 136.83 224.11 L 136.24 224.94 C 135.75 225.65 135.92 226.62 136.62 227.12 C 137.33 227.61 138.30 227.44 138.80 226.74 Z M 139.41 225.87 L 139.95 225.04 C 140.43 224.32 140.23 223.35 139.51 222.88 C 138.79 222.40 137.82 222.60 137.35 223.32 L 136.80 224.15 C 136.33 224.87 136.52 225.84 137.24 226.31 C 137.96 226.79 138.93 226.59 139.41 225.87 Z M 139.97 225.01 L 140.51 224.15 C 140.97 223.42 140.75 222.46 140.02 222.00 C 139.29 221.54 138.32 221.76 137.87 222.49 L 137.33 223.35 C 136.87 224.08 137.09 225.05 137.82 225.50 C 138.55 225.96 139.52 225.74 139.97 225.01 Z M 140.53 224.12 L 141.05 223.25 C 141.49 222.51 141.25 221.55 140.51 221.11 C 139.77 220.67 138.81 220.91 138.37 221.65 L 137.85 222.52 C 137.41 223.26 137.65 224.22 138.39 224.66 C 139.13 225.11 140.09 224.86 140.53 224.12 Z M 141.06 223.23 L 141.55 222.37 C 141.98 221.62 141.72 220.67 140.97 220.24 C 140.22 219.81 139.27 220.07 138.84 220.82 L 138.35 221.68 C 137.93 222.43 138.19 223.38 138.93 223.81 C 139.68 224.24 140.64 223.98 141.06 223.23 Z M 141.57 222.34 L 142.02 221.51 C 142.43 220.75 142.15 219.80 141.39 219.39 C 140.63 218.98 139.69 219.26 139.27 220.02 L 138.83 220.85 C 138.42 221.61 138.70 222.56 139.46 222.97 C 140.21 223.38 141.16 223.10 141.57 222.34 Z M 142.04 221.47 L 142.47 220.62 C 142.86 219.85 142.55 218.91 141.78 218.52 C 141.01 218.13 140.07 218.44 139.68 219.21 L 139.25 220.06 C 138.86 220.83 139.18 221.77 139.95 222.16 C 140.72 222.55 141.65 222.24 142.04 221.47 Z M 142.49 220.57 L 142.91 219.66 C 143.27 218.87 142.93 217.95 142.15 217.59 C 141.36 217.23 140.44 217.57 140.08 218.35 L 139.66 219.26 C 139.30 220.05 139.64 220.97 140.42 221.33 C 141.21 221.69 142.13 221.35 142.49 220.57 Z M 142.94 219.60 L 143.35 218.60 C 143.68 217.80 143.31 216.89 142.51 216.56 C 141.72 216.23 140.80 216.60 140.47 217.40 L 140.05 218.41 C 139.72 219.20 140.10 220.11 140.89 220.45 C 141.69 220.78 142.60 220.40 142.94 219.60 Z M 143.37 218.56 L 143.71 217.65 C 144.02 216.85 143.62 215.95 142.81 215.64 C 142.01 215.33 141.10 215.74 140.80 216.54 L 140.45 217.44 C 140.15 218.25 140.55 219.15 141.36 219.46 C 142.16 219.77 143.06 219.36 143.37 218.56 Z M 143.73 217.62 L 144.05 216.70 C 144.34 215.88 143.92 214.99 143.11 214.70 C 142.29 214.41 141.40 214.84 141.11 215.65 L 140.78 216.57 C 140.50 217.39 140.92 218.28 141.73 218.57 C 142.54 218.86 143.44 218.43 143.73 217.62 Z M 144.06 216.67 L 144.39 215.70 C 144.66 214.89 144.22 214.00 143.40 213.73 C 142.58 213.45 141.70 213.90 141.43 214.71 L 141.10 215.68 C 140.83 216.50 141.27 217.38 142.09 217.65 C 142.91 217.93 143.79 217.49 144.06 216.67 Z M 144.40 215.68 L 144.71 214.69 C 144.97 213.87 144.51 212.99 143.69 212.73 C 142.86 212.47 141.99 212.93 141.73 213.75 L 141.42 214.74 C 141.16 215.56 141.62 216.44 142.44 216.70 C 143.26 216.96 144.14 216.50 144.40 215.68 Z M 144.71 214.67 L 145.01 213.68 C 145.25 212.86 144.78 211.99 143.95 211.74 C 143.13 211.50 142.26 211.97 142.01 212.79 L 141.72 213.78 C 141.48 214.61 141.95 215.47 142.77 215.72 C 143.60 215.96 144.47 215.49 144.71 214.67 Z M 145.01 213.65 L 145.28 212.68 C 145.51 211.85 145.03 210.99 144.20 210.76 C 143.37 210.53 142.51 211.01 142.28 211.84 L 142.00 212.82 C 141.78 213.65 142.26 214.51 143.09 214.74 C 143.92 214.97 144.78 214.49 145.01 213.65 Z M 145.29 212.65 L 145.56 211.60 C 145.77 210.77 145.27 209.92 144.43 209.71 C 143.59 209.49 142.74 210.00 142.53 210.83 L 142.27 211.88 C 142.05 212.71 142.56 213.56 143.39 213.77 C 144.23 213.99 145.08 213.48 145.29 212.65 Z M 145.56 211.58 L 145.80 210.58 C 145.99 209.74 145.47 208.90 144.63 208.70 C 143.79 208.50 142.95 209.03 142.76 209.87 L 142.52 210.86 C 142.33 211.70 142.85 212.54 143.69 212.74 C 144.53 212.94 145.37 212.41 145.56 211.58 Z M 145.80 210.55 L 146.01 209.59 C 146.20 208.75 145.66 207.92 144.82 207.73 C 143.98 207.55 143.15 208.08 142.96 208.93 L 142.75 209.89 C 142.57 210.73 143.10 211.56 143.95 211.75 C 144.79 211.93 145.62 211.40 145.80 210.55 Z M 146.02 209.57 L 146.21 208.63 C 146.39 207.79 145.84 206.96 145.00 206.79 C 144.15 206.62 143.33 207.16 143.15 208.00 L 142.96 208.94 C 142.79 209.79 143.33 210.61 144.17 210.79 C 145.02 210.96 145.84 210.42 146.02 209.57 Z M 146.21 208.63 L 146.40 207.70 C 146.57 206.85 146.02 206.03 145.18 205.86 C 144.33 205.69 143.51 206.24 143.34 207.08 L 143.15 208.01 C 142.98 208.86 143.53 209.68 144.37 209.85 C 145.22 210.02 146.04 209.47 146.21 208.63 Z M 146.40 207.70 L 146.61 206.66 C 146.78 205.81 146.23 204.99 145.39 204.82 C 144.54 204.65 143.72 205.20 143.55 206.04 L 143.34 207.08 C 143.17 207.93 143.72 208.75 144.56 208.92 C 145.41 209.09 146.23 208.54 146.40 207.70 Z M 146.61 206.66 L 146.81 205.64 C 146.98 204.80 146.43 203.97 145.59 203.81 C 144.74 203.64 143.92 204.18 143.75 205.03 L 143.55 206.04 C 143.38 206.89 143.93 207.71 144.77 207.88 C 145.62 208.05 146.44 207.50 146.61 206.66 Z M 146.81 205.64 L 147.01 204.66 C 147.17 203.82 146.62 203.00 145.78 202.83 C 144.93 202.66 144.11 203.21 143.94 204.06 L 143.75 205.03 C 143.58 205.88 144.13 206.70 144.98 206.87 C 145.82 207.03 146.64 206.49 146.81 205.64 Z M 147.01 204.66 L 147.19 203.73 C 147.35 202.89 146.80 202.07 145.95 201.90 C 145.10 201.74 144.29 202.29 144.12 203.14 L 143.94 204.06 C 143.78 204.91 144.33 205.73 145.18 205.89 C 146.02 206.06 146.84 205.50 147.01 204.66 Z M 147.19 203.73 L 147.38 202.71 C 147.54 201.86 146.98 201.05 146.13 200.89 C 145.29 200.73 144.47 201.29 144.31 202.13 L 144.12 203.15 C 143.96 204.00 144.52 204.81 145.36 204.97 C 146.21 205.13 147.03 204.57 147.19 203.73 Z M 147.38 202.70 L 147.56 201.69 C 147.72 200.84 147.15 200.03 146.30 199.87 C 145.46 199.72 144.64 200.28 144.49 201.13 L 144.31 202.14 C 144.15 202.99 144.72 203.80 145.57 203.96 C 146.42 204.11 147.23 203.55 147.38 202.70 Z M 147.56 201.68 L 147.73 200.73 C 147.88 199.88 147.31 199.07 146.46 198.93 C 145.61 198.78 144.80 199.35 144.65 200.20 L 144.49 201.14 C 144.34 201.99 144.91 202.80 145.76 202.95 C 146.61 203.10 147.42 202.53 147.56 201.68 Z M 147.73 200.73 L 147.89 199.82 C 148.03 198.97 147.46 198.16 146.61 198.02 C 145.76 197.87 144.95 198.44 144.81 199.29 L 144.65 200.20 C 144.51 201.05 145.08 201.86 145.93 202.00 C 146.78 202.15 147.59 201.58 147.73 200.73 Z M 147.89 199.81 L 148.04 198.91 C 148.18 198.06 147.60 197.25 146.75 197.11 C 145.90 196.97 145.10 197.55 144.96 198.40 L 144.81 199.30 C 144.67 200.15 145.24 200.95 146.09 201.09 C 146.94 201.24 147.75 200.66 147.89 199.81 Z M 148.04 198.89 L 148.19 197.93 C 148.32 197.08 147.74 196.28 146.89 196.15 C 146.04 196.02 145.24 196.60 145.10 197.45 L 144.95 198.41 C 144.82 199.26 145.41 200.06 146.26 200.20 C 147.11 200.33 147.91 199.74 148.04 198.89 Z M 148.19 197.91 L 148.34 196.83 C 148.46 195.98 147.87 195.19 147.01 195.07 C 146.16 194.95 145.37 195.55 145.25 196.40 L 145.10 197.48 C 144.98 198.33 145.58 199.12 146.43 199.24 C 147.28 199.36 148.07 198.76 148.19 197.91 Z M 148.35 196.81 L 148.47 195.81 C 148.58 194.95 147.97 194.17 147.11 194.06 C 146.26 193.96 145.48 194.57 145.37 195.42 L 145.25 196.42 C 145.14 197.28 145.75 198.06 146.60 198.17 C 147.46 198.27 148.24 197.66 148.35 196.81 Z M 148.47 195.79 L 148.59 194.79 C 148.69 193.93 148.07 193.16 147.22 193.06 C 146.36 192.96 145.58 193.58 145.49 194.43 L 145.37 195.44 C 145.27 196.29 145.89 197.07 146.74 197.16 C 147.60 197.26 148.37 196.65 148.47 195.79 Z M 148.59 194.78 L 148.70 193.75 C 148.80 192.89 148.18 192.12 147.32 192.03 C 146.46 191.93 145.69 192.55 145.60 193.41 L 145.49 194.44 C 145.39 195.30 146.01 196.07 146.87 196.16 C 147.72 196.26 148.49 195.64 148.59 194.78 Z M 148.70 193.75 L 148.81 192.73 C 148.91 191.88 148.29 191.10 147.43 191.01 C 146.57 190.92 145.80 191.54 145.71 192.39 L 145.60 193.41 C 145.51 194.27 146.12 195.04 146.98 195.13 C 147.84 195.22 148.61 194.60 148.70 193.75 Z M 148.81 192.74 L 148.92 191.75 C 149.02 190.89 148.40 190.12 147.54 190.03 C 146.68 189.93 145.91 190.55 145.82 191.41 L 145.71 192.39 C 145.61 193.25 146.23 194.02 147.09 194.12 C 147.95 194.21 148.72 193.59 148.81 192.74 Z M 148.92 191.75 L 149.04 190.67 C 149.14 189.82 148.53 189.04 147.67 188.94 C 146.81 188.85 146.04 189.46 145.94 190.32 L 145.82 191.40 C 145.72 192.26 146.34 193.03 147.19 193.13 C 148.05 193.23 148.82 192.61 148.92 191.75 Z M 149.05 190.67 L 149.15 189.69 C 149.25 188.83 148.63 188.06 147.77 187.97 C 146.92 187.87 146.15 188.49 146.05 189.34 L 145.94 190.32 C 145.85 191.18 146.46 191.95 147.32 192.05 C 148.18 192.14 148.95 191.52 149.05 190.67 Z M 149.16 189.67 L 149.25 188.74 C 149.33 187.88 148.70 187.12 147.84 187.03 C 146.99 186.95 146.22 187.58 146.14 188.43 L 146.05 189.37 C 145.96 190.22 146.59 190.99 147.45 191.07 C 148.31 191.15 149.07 190.53 149.16 189.67 Z M 149.25 188.70 L 149.32 187.75 C 149.39 186.89 148.74 186.14 147.88 186.08 C 147.02 186.01 146.27 186.66 146.21 187.52 L 146.14 188.47 C 146.07 189.33 146.72 190.08 147.58 190.14 C 148.44 190.21 149.19 189.56 149.25 188.70 Z M 149.32 187.71 L 149.37 186.72 C 149.42 185.86 148.76 185.12 147.89 185.08 C 147.03 185.04 146.30 185.70 146.26 186.56 L 146.20 187.55 C 146.16 188.41 146.82 189.15 147.68 189.19 C 148.55 189.24 149.28 188.57 149.32 187.71 Z M 149.38 186.69 L 149.41 185.68 C 149.44 184.82 148.76 184.10 147.90 184.07 C 147.04 184.04 146.32 184.72 146.29 185.58 L 146.25 186.59 C 146.23 187.45 146.90 188.17 147.76 188.20 C 148.62 188.23 149.35 187.55 149.38 186.69 Z M 149.41 185.66 L 149.43 184.65 C 149.45 183.79 148.76 183.08 147.90 183.06 C 147.04 183.04 146.33 183.73 146.31 184.59 L 146.29 185.60 C 146.27 186.46 146.95 187.18 147.82 187.19 C 148.68 187.21 149.39 186.53 149.41 185.66 Z M 149.43 184.64 L 149.44 183.61 C 149.45 182.75 148.76 182.04 147.90 182.04 C 147.04 182.03 146.33 182.72 146.32 183.58 L 146.31 184.60 C 146.30 185.47 146.99 186.17 147.85 186.18 C 148.71 186.19 149.42 185.50 149.43 184.64 Z M 149.44 183.60 L 149.45 182.60 C 149.45 181.74 148.76 181.03 147.89 181.03 C 147.03 181.02 146.33 181.72 146.32 182.58 L 146.32 183.59 C 146.32 184.45 147.01 185.15 147.87 185.16 C 148.73 185.16 149.44 184.47 149.44 183.60 Z M 149.45 182.59 L 149.45 181.61 C 149.45 180.75 148.75 180.05 147.89 180.05 C 147.03 180.05 146.33 180.74 146.33 181.61 L 146.32 182.59 C 146.32 183.45 147.02 184.15 147.88 184.15 C 148.75 184.15 149.45 183.45 149.45 182.59 Z M 149.45 181.61 L 149.45 180.60 C 149.45 179.74 148.75 179.04 147.89 179.04 C 147.02 179.04 146.33 179.74 146.33 180.60 L 146.33 181.61 C 146.33 182.47 147.02 183.17 147.89 183.17 C 148.75 183.17 149.45 182.47 149.45 181.61 Z M 149.45 180.60 L 149.45 179.60 C 149.45 178.74 148.75 178.04 147.89 178.04 C 147.02 178.04 146.33 178.74 146.33 179.60 L 146.33 180.60 C 146.33 181.47 147.02 182.16 147.89 182.16 C 148.75 182.16 149.45 181.47 149.45 180.60 Z M 149.45 179.60 L 149.45 178.61 C 149.45 177.75 148.75 177.05 147.89 177.05 C 147.02 177.05 146.33 177.75 146.33 178.61 L 146.33 179.60 C 146.33 180.46 147.02 181.16 147.89 181.16 C 148.75 181.16 149.45 180.46 149.45 179.60 Z M 149.45 178.61 L 149.45 177.38 C 149.45 176.52 148.75 175.82 147.89 175.82 C 147.02 175.82 146.32 176.52 146.33 177.38 L 146.33 178.61 C 146.33 179.48 147.02 180.17 147.89 180.17 C 148.75 180.17 149.45 179.47 149.45 178.61 Z M 149.45 177.37 L 149.44 176.31 C 149.43 175.45 148.73 174.76 147.87 174.76 C 147.01 174.77 146.31 175.47 146.32 176.33 L 146.33 177.39 C 146.33 178.25 147.04 178.95 147.90 178.94 C 148.76 178.93 149.45 178.23 149.45 177.37 Z M 146.30 176.25 L 146.23 177.19 C 146.18 178.05 146.83 178.79 147.69 178.85 C 148.55 178.91 149.29 178.26 149.35 177.40 L 149.41 176.46 C 149.47 175.60 148.82 174.86 147.96 174.80 C 147.10 174.74 146.35 175.39 146.30 176.25 Z M 146.24 177.14 L 146.10 178.52 C 146.02 179.38 146.65 180.15 147.51 180.23 C 148.36 180.31 149.13 179.69 149.21 178.83 L 149.35 177.44 C 149.43 176.59 148.80 175.82 147.94 175.74 C 147.09 175.66 146.32 176.28 146.24 177.14 Z M 146.11 178.45 L 145.98 179.39 C 145.86 180.24 146.45 181.03 147.30 181.15 C 148.16 181.27 148.95 180.68 149.07 179.83 L 149.20 178.90 C 149.33 178.04 148.73 177.25 147.88 177.13 C 147.03 177.01 146.23 177.60 146.11 178.45 Z M 145.99 179.34 L 145.82 180.31 C 145.67 181.16 146.24 181.96 147.09 182.11 C 147.94 182.26 148.75 181.69 148.89 180.84 L 149.06 179.87 C 149.21 179.02 148.64 178.22 147.79 178.07 C 146.94 177.92 146.13 178.49 145.99 179.34 Z M 145.82 180.28 L 145.63 181.28 C 145.47 182.13 146.02 182.94 146.87 183.11 C 147.72 183.27 148.53 182.72 148.70 181.87 L 148.89 180.87 C 149.05 180.02 148.50 179.20 147.65 179.04 C 146.80 178.88 145.99 179.43 145.82 180.28 Z M 145.63 181.27 L 145.42 182.31 C 145.25 183.15 145.80 183.97 146.65 184.14 C 147.49 184.32 148.31 183.77 148.48 182.92 L 148.69 181.88 C 148.86 181.04 148.32 180.21 147.47 180.04 C 146.63 179.87 145.80 180.42 145.63 181.27 Z M 145.42 182.30 L 145.23 183.28 C 145.06 184.12 145.60 184.95 146.45 185.12 C 147.29 185.29 148.12 184.74 148.29 183.90 L 148.48 182.92 C 148.66 182.08 148.11 181.26 147.26 181.08 C 146.42 180.91 145.60 181.46 145.42 182.30 Z M 145.23 183.29 L 145.03 184.28 C 144.86 185.12 145.41 185.94 146.26 186.11 C 147.11 186.28 147.93 185.73 148.09 184.88 L 148.29 183.89 C 148.46 183.04 147.90 182.22 147.06 182.06 C 146.21 181.89 145.39 182.44 145.23 183.29 Z M 145.03 184.30 L 144.84 185.29 C 144.69 186.14 145.25 186.95 146.09 187.11 C 146.94 187.27 147.76 186.71 147.91 185.86 L 148.10 184.86 C 148.25 184.02 147.69 183.20 146.85 183.04 C 146.00 182.89 145.18 183.45 145.03 184.30 Z M 144.84 185.32 L 144.67 186.30 C 144.53 187.15 145.11 187.96 145.96 188.10 C 146.81 188.24 147.61 187.66 147.75 186.81 L 147.92 185.83 C 148.06 184.98 147.48 184.18 146.63 184.03 C 145.78 183.89 144.98 184.47 144.84 185.32 Z M 144.67 186.34 L 144.53 187.36 C 144.41 188.21 145.01 189.00 145.86 189.12 C 146.71 189.24 147.50 188.64 147.62 187.79 L 147.76 186.77 C 147.88 185.92 147.28 185.13 146.43 185.01 C 145.58 184.89 144.79 185.49 144.67 186.34 Z M 144.52 187.41 L 144.41 188.44 C 144.32 189.30 144.94 190.07 145.80 190.16 C 146.65 190.25 147.42 189.63 147.52 188.77 L 147.63 187.74 C 147.72 186.88 147.10 186.11 146.24 186.02 C 145.38 185.93 144.61 186.55 144.52 187.41 Z M 144.41 188.48 L 144.33 189.48 C 144.26 190.34 144.90 191.09 145.76 191.16 C 146.62 191.22 147.37 190.58 147.44 189.72 L 147.52 188.73 C 147.59 187.87 146.94 187.12 146.08 187.05 C 145.23 186.98 144.47 187.62 144.41 188.48 Z M 144.33 189.52 L 144.28 190.48 C 144.23 191.34 144.89 192.07 145.75 192.12 C 146.61 192.16 147.35 191.50 147.39 190.64 L 147.44 189.68 C 147.49 188.82 146.83 188.09 145.97 188.04 C 145.11 188.00 144.37 188.66 144.33 189.52 Z M 144.27 190.51 L 144.24 191.49 C 144.21 192.35 144.89 193.08 145.75 193.11 C 146.61 193.13 147.33 192.46 147.36 191.60 L 147.39 190.61 C 147.42 189.75 146.75 189.03 145.89 189.00 C 145.03 188.97 144.30 189.64 144.27 190.51 Z M 144.24 191.52 L 144.22 192.53 C 144.20 193.39 144.89 194.10 145.75 194.12 C 146.61 194.14 147.33 193.45 147.34 192.59 L 147.36 191.57 C 147.38 190.71 146.69 190.00 145.83 189.98 C 144.97 189.97 144.26 190.65 144.24 191.52 Z M 144.22 192.55 L 144.21 193.54 C 144.21 194.40 144.90 195.10 145.76 195.11 C 146.63 195.11 147.33 194.42 147.34 193.56 L 147.34 192.57 C 147.35 191.71 146.65 191.00 145.79 191.00 C 144.93 190.99 144.23 191.68 144.22 192.55 Z M 144.21 193.55 L 144.21 194.52 C 144.21 195.39 144.91 196.09 145.77 196.09 C 146.63 196.09 147.33 195.39 147.33 194.53 L 147.34 193.55 C 147.34 192.69 146.64 191.99 145.78 191.99 C 144.91 191.99 144.21 192.68 144.21 193.55 Z M 144.21 194.53 L 144.21 195.54 C 144.21 196.40 144.91 197.10 145.77 197.10 C 146.64 197.10 147.33 196.40 147.33 195.54 L 147.33 194.53 C 147.33 193.66 146.64 192.96 145.77 192.96 C 144.91 192.96 144.21 193.66 144.21 194.53 Z M 144.21 195.54 L 144.21 196.54 C 144.21 197.41 144.91 198.10 145.77 198.10 C 146.64 198.10 147.33 197.41 147.33 196.54 L 147.33 195.54 C 147.33 194.67 146.64 193.98 145.77 193.98 C 144.91 193.98 144.21 194.67 144.21 195.54 Z M 144.21 196.54 L 144.21 197.54 C 144.21 198.40 144.91 199.10 145.77 199.10 C 146.64 199.10 147.33 198.40 147.33 197.54 L 147.33 196.54 C 147.33 195.68 146.64 194.98 145.77 194.98 C 144.91 194.98 144.21 195.68 144.21 196.54 Z M 144.21 197.54 L 144.21 198.54 C 144.21 199.40 144.91 200.10 145.77 200.10 C 146.64 200.10 147.33 199.40 147.33 198.54 L 147.33 197.54 C 147.33 196.67 146.64 195.97 145.77 195.97 C 144.91 195.97 144.21 196.67 144.21 197.54 Z M 144.21 198.54 L 144.21 199.55 C 144.22 200.41 144.92 201.11 145.78 201.10 C 146.64 201.10 147.34 200.40 147.34 199.54 L 147.33 198.53 C 147.33 197.67 146.63 196.97 145.77 196.98 C 144.91 196.98 144.21 197.68 144.21 198.54 Z M 144.21 199.56 L 144.22 200.55 C 144.23 201.41 144.94 202.10 145.80 202.09 C 146.66 202.09 147.35 201.38 147.35 200.52 L 147.34 199.53 C 147.33 198.67 146.62 197.97 145.76 197.98 C 144.90 197.99 144.21 198.70 144.21 199.56 Z M 144.22 200.57 L 144.25 201.54 C 144.26 202.41 144.98 203.09 145.84 203.07 C 146.70 203.05 147.39 202.34 147.37 201.48 L 147.35 200.50 C 147.33 199.64 146.61 198.95 145.75 198.97 C 144.89 198.99 144.21 199.70 144.22 200.57 Z M 144.25 201.58 L 144.29 202.55 C 144.33 203.41 145.06 204.08 145.92 204.04 C 146.78 204.00 147.45 203.27 147.41 202.41 L 147.37 201.44 C 147.33 200.58 146.60 199.91 145.74 199.95 C 144.88 199.99 144.21 200.72 144.25 201.58 Z M 144.29 202.62 L 144.38 203.61 C 144.46 204.47 145.22 205.10 146.08 205.03 C 146.94 204.95 147.57 204.19 147.49 203.33 L 147.40 202.34 C 147.33 201.48 146.57 200.85 145.71 200.92 C 144.85 201.00 144.22 201.76 144.29 202.62 Z M 144.39 203.71 L 144.55 204.74 C 144.68 205.59 145.48 206.18 146.33 206.05 C 147.18 205.92 147.77 205.12 147.64 204.27 L 147.48 203.24 C 147.35 202.38 146.55 201.80 145.70 201.93 C 144.85 202.06 144.26 202.86 144.39 203.71 Z M 144.57 204.84 L 144.78 205.81 C 144.97 206.65 145.80 207.18 146.64 206.99 C 147.49 206.81 148.02 205.98 147.83 205.13 L 147.62 204.17 C 147.44 203.33 146.60 202.80 145.76 202.98 C 144.92 203.17 144.39 204.00 144.57 204.84 Z M 144.80 205.88 L 145.07 206.86 C 145.29 207.69 146.15 208.18 146.98 207.96 C 147.82 207.73 148.31 206.87 148.08 206.04 L 147.82 205.06 C 147.59 204.23 146.73 203.74 145.90 203.96 C 145.07 204.19 144.58 205.05 144.80 205.88 Z M 145.08 206.91 L 145.39 207.88 C 145.64 208.70 146.52 209.16 147.34 208.90 C 148.16 208.65 148.62 207.77 148.37 206.95 L 148.07 205.98 C 147.81 205.16 146.93 204.70 146.11 204.96 C 145.29 205.22 144.83 206.09 145.08 206.91 Z M 145.40 207.92 L 145.73 208.88 C 146.01 209.69 146.90 210.12 147.71 209.84 C 148.53 209.56 148.96 208.67 148.68 207.86 L 148.35 206.91 C 148.07 206.09 147.18 205.66 146.37 205.94 C 145.55 206.22 145.12 207.11 145.40 207.92 Z M 145.74 208.92 L 146.10 209.87 C 146.41 210.68 147.31 211.09 148.11 210.79 C 148.92 210.48 149.33 209.58 149.03 208.78 L 148.67 207.82 C 148.36 207.01 147.46 206.60 146.66 206.91 C 145.85 207.21 145.44 208.11 145.74 208.92 Z M 146.12 209.91 L 146.49 210.82 C 146.81 211.62 147.72 212.01 148.52 211.68 C 149.32 211.36 149.71 210.45 149.38 209.65 L 149.01 208.74 C 148.69 207.94 147.77 207.55 146.98 207.88 C 146.18 208.20 145.79 209.11 146.12 209.91 Z M 146.50 210.86 L 146.89 211.75 C 147.23 212.54 148.15 212.90 148.94 212.56 C 149.74 212.22 150.10 211.30 149.75 210.51 L 149.37 209.61 C 149.02 208.82 148.10 208.46 147.31 208.80 C 146.52 209.15 146.16 210.07 146.50 210.86 Z M 146.90 211.77 L 147.30 212.66 C 147.66 213.44 148.59 213.79 149.37 213.43 C 150.16 213.08 150.50 212.15 150.15 211.37 L 149.74 210.48 C 149.39 209.70 148.46 209.35 147.68 209.71 C 146.89 210.06 146.54 210.99 146.90 211.77 Z M 147.31 212.67 L 147.73 213.57 C 148.09 214.35 149.02 214.69 149.80 214.33 C 150.58 213.97 150.92 213.04 150.56 212.26 L 150.14 211.36 C 149.78 210.57 148.85 210.23 148.07 210.60 C 147.29 210.96 146.95 211.89 147.31 212.67 Z M 147.73 213.57 L 148.15 214.49 C 148.51 215.28 149.44 215.62 150.22 215.26 C 151.01 214.89 151.35 213.97 150.99 213.18 L 150.56 212.26 C 150.20 211.48 149.27 211.13 148.49 211.50 C 147.71 211.86 147.36 212.79 147.73 213.57 Z M 148.15 214.48 L 148.54 215.34 C 148.89 216.13 149.81 216.48 150.60 216.13 C 151.39 215.77 151.74 214.85 151.38 214.06 L 150.99 213.20 C 150.64 212.41 149.72 212.06 148.93 212.42 C 148.14 212.77 147.79 213.69 148.15 214.48 Z M 148.53 215.33 L 148.90 216.17 C 149.25 216.96 150.17 217.32 150.96 216.98 C 151.75 216.63 152.11 215.71 151.76 214.92 L 151.39 214.08 C 151.04 213.29 150.12 212.93 149.33 213.27 C 148.54 213.62 148.18 214.54 148.53 215.33 Z M 148.90 216.17 L 149.29 217.07 C 149.63 217.86 150.55 218.23 151.34 217.89 C 152.13 217.54 152.50 216.62 152.15 215.83 L 151.76 214.93 C 151.42 214.13 150.50 213.77 149.71 214.11 C 148.92 214.46 148.55 215.38 148.90 216.17 Z M 149.29 217.07 L 149.72 218.07 C 150.06 218.86 150.98 219.22 151.77 218.88 C 152.56 218.54 152.93 217.62 152.58 216.83 L 152.15 215.83 C 151.81 215.04 150.89 214.68 150.10 215.02 C 149.31 215.36 148.95 216.28 149.29 217.07 Z M 149.72 218.07 L 150.14 219.03 C 150.48 219.82 151.40 220.18 152.19 219.84 C 152.98 219.49 153.34 218.57 153.00 217.78 L 152.58 216.82 C 152.24 216.03 151.32 215.67 150.53 216.02 C 149.74 216.36 149.38 217.28 149.72 218.07 Z M 150.14 219.03 L 150.54 219.94 C 150.88 220.73 151.80 221.09 152.59 220.74 C 153.38 220.39 153.74 219.47 153.40 218.68 L 153.00 217.78 C 152.65 216.99 151.73 216.63 150.94 216.97 C 150.15 217.32 149.79 218.24 150.14 219.03 Z M 150.54 219.94 L 150.95 220.88 C 151.30 221.67 152.22 222.02 153.01 221.67 C 153.80 221.32 154.16 220.40 153.81 219.61 L 153.39 218.68 C 153.04 217.89 152.12 217.53 151.33 217.88 C 150.54 218.23 150.19 219.15 150.54 219.94 Z M 150.96 220.89 L 151.38 221.83 C 151.73 222.61 152.66 222.96 153.44 222.61 C 154.23 222.26 154.58 221.33 154.23 220.55 L 153.80 219.61 C 153.45 218.82 152.53 218.47 151.74 218.82 C 150.95 219.18 150.60 220.10 150.96 220.89 Z M 151.38 221.84 L 151.80 222.75 C 152.16 223.54 153.09 223.88 153.87 223.53 C 154.65 223.17 155.00 222.24 154.64 221.46 L 154.22 220.54 C 153.86 219.75 152.94 219.41 152.15 219.77 C 151.37 220.13 151.02 221.05 151.38 221.84 Z M 151.81 222.77 L 152.24 223.70 C 152.61 224.48 153.54 224.81 154.32 224.45 C 155.10 224.08 155.44 223.16 155.07 222.37 L 154.64 221.44 C 154.27 220.66 153.34 220.33 152.56 220.69 C 151.78 221.06 151.44 221.99 151.81 222.77 Z M 152.25 223.72 L 152.73 224.71 C 153.11 225.48 154.04 225.80 154.82 225.43 C 155.59 225.05 155.92 224.11 155.54 223.34 L 155.06 222.35 C 154.68 221.58 153.75 221.25 152.97 221.63 C 152.20 222.01 151.88 222.94 152.25 223.72 Z M 152.75 224.74 L 153.22 225.64 C 153.62 226.40 154.56 226.70 155.33 226.30 C 156.09 225.90 156.39 224.96 155.99 224.20 L 155.52 223.30 C 155.12 222.54 154.18 222.24 153.41 222.64 C 152.65 223.04 152.35 223.98 152.75 224.74 Z M 153.25 225.70 L 153.72 226.51 C 154.15 227.26 155.11 227.52 155.85 227.09 C 156.60 226.66 156.86 225.70 156.43 224.95 L 155.96 224.14 C 155.53 223.39 154.57 223.14 153.82 223.57 C 153.08 224.00 152.82 224.95 153.25 225.70 Z M 153.77 226.59 L 154.26 227.34 C 154.73 228.06 155.70 228.27 156.42 227.79 C 157.14 227.32 157.35 226.35 156.87 225.63 L 156.38 224.88 C 155.91 224.16 154.94 223.96 154.22 224.43 C 153.50 224.90 153.30 225.87 153.77 226.59 Z M 154.33 227.44 L 154.93 228.22 C 155.45 228.91 156.43 229.04 157.12 228.51 C 157.80 227.99 157.93 227.01 157.41 226.32 L 156.81 225.54 C 156.28 224.85 155.30 224.72 154.62 225.25 C 153.93 225.77 153.80 226.75 154.33 227.44 Z M 155.01 228.32 L 155.67 229.05 C 156.25 229.69 157.24 229.74 157.88 229.16 C 158.51 228.58 158.56 227.59 157.98 226.95 L 157.33 226.22 C 156.75 225.59 155.76 225.54 155.12 226.12 C 154.48 226.69 154.43 227.68 155.01 228.32 Z M 155.76 229.14 L 156.49 229.82 C 157.12 230.42 158.10 230.38 158.70 229.76 C 159.29 229.13 159.26 228.14 158.63 227.55 L 157.90 226.86 C 157.27 226.27 156.28 226.30 155.69 226.93 C 155.10 227.56 155.13 228.55 155.76 229.14 Z M 156.57 229.90 L 157.35 230.53 C 158.02 231.08 159.00 230.98 159.55 230.31 C 160.09 229.65 160.00 228.66 159.33 228.12 L 158.55 227.48 C 157.88 226.93 156.90 227.03 156.35 227.70 C 155.80 228.37 155.90 229.35 156.57 229.90 Z M 157.42 230.59 L 158.21 231.17 C 158.91 231.68 159.89 231.52 160.39 230.83 C 160.90 230.13 160.75 229.15 160.05 228.65 L 159.26 228.07 C 158.56 227.56 157.59 227.71 157.08 228.41 C 156.57 229.10 156.72 230.08 157.42 230.59 Z M 158.27 231.21 L 159.11 231.77 C 159.83 232.24 160.80 232.05 161.28 231.33 C 161.75 230.61 161.56 229.64 160.84 229.16 L 160.00 228.61 C 159.28 228.13 158.31 228.32 157.83 229.04 C 157.36 229.76 157.55 230.73 158.27 231.21 Z M 159.16 231.80 L 160.03 232.33 C 160.77 232.78 161.73 232.54 162.18 231.81 C 162.63 231.07 162.39 230.11 161.66 229.66 L 160.79 229.13 C 160.05 228.68 159.09 228.92 158.64 229.65 C 158.19 230.39 158.43 231.35 159.16 231.80 Z M 160.08 232.36 L 160.97 232.85 C 161.72 233.27 162.67 233.00 163.09 232.25 C 163.51 231.50 163.24 230.55 162.49 230.13 L 161.61 229.63 C 160.85 229.21 159.90 229.48 159.48 230.23 C 159.06 230.99 159.33 231.94 160.08 232.36 Z M 161.02 232.88 L 161.93 233.34 C 162.70 233.73 163.64 233.43 164.03 232.66 C 164.42 231.89 164.12 230.95 163.35 230.56 L 162.44 230.10 C 161.67 229.71 160.73 230.01 160.34 230.78 C 159.95 231.55 160.25 232.49 161.02 232.88 Z M 161.98 233.37 L 162.89 233.79 C 163.67 234.15 164.60 233.81 164.96 233.03 C 165.33 232.25 164.99 231.32 164.20 230.96 L 163.30 230.54 C 162.52 230.17 161.59 230.51 161.22 231.30 C 160.86 232.08 161.20 233.01 161.98 233.37 Z M 162.94 233.81 L 163.85 234.19 C 164.64 234.53 165.56 234.16 165.89 233.37 C 166.23 232.57 165.86 231.66 165.06 231.32 L 164.16 230.94 C 163.36 230.60 162.45 230.97 162.11 231.76 C 161.77 232.56 162.14 233.47 162.94 233.81 Z M 163.89 234.21 L 164.81 234.57 C 165.61 234.88 166.52 234.48 166.83 233.68 C 167.14 232.88 166.74 231.97 165.94 231.66 L 165.02 231.30 C 164.22 230.99 163.31 231.39 163.00 232.19 C 162.69 233.00 163.09 233.90 163.89 234.21 Z M 164.85 234.58 L 165.80 234.93 C 166.61 235.22 167.50 234.79 167.79 233.98 C 168.09 233.17 167.66 232.28 166.85 231.99 L 165.90 231.65 C 165.09 231.35 164.20 231.78 163.91 232.59 C 163.61 233.40 164.04 234.29 164.85 234.58 Z M 165.84 234.94 L 166.79 235.25 C 167.61 235.52 168.49 235.08 168.76 234.26 C 169.03 233.44 168.59 232.56 167.77 232.29 L 166.81 231.97 C 165.99 231.70 165.11 232.15 164.84 232.97 C 164.57 233.79 165.02 234.67 165.84 234.94 Z M 166.83 235.26 L 167.78 235.55 C 168.60 235.80 169.48 235.33 169.72 234.51 C 169.97 233.68 169.51 232.81 168.68 232.56 L 167.73 232.28 C 166.90 232.03 166.03 232.49 165.78 233.32 C 165.53 234.14 166.00 235.01 166.83 235.26 Z M 167.82 235.56 L 168.77 235.82 C 169.60 236.05 170.46 235.56 170.69 234.73 C 170.92 233.90 170.43 233.04 169.60 232.81 L 168.64 232.55 C 167.81 232.32 166.95 232.81 166.73 233.64 C 166.50 234.47 166.98 235.33 167.82 235.56 Z M 168.81 235.83 L 169.76 236.07 C 170.60 236.28 171.45 235.77 171.65 234.93 C 171.86 234.10 171.35 233.25 170.52 233.04 L 169.56 232.80 C 168.72 232.60 167.87 233.11 167.67 233.94 C 167.46 234.78 167.97 235.63 168.81 235.83 Z M 169.80 236.08 L 170.77 236.29 C 171.61 236.48 172.45 235.95 172.63 235.11 C 172.82 234.26 172.29 233.43 171.44 233.25 L 170.48 233.03 C 169.63 232.85 168.80 233.38 168.62 234.22 C 168.43 235.06 168.96 235.90 169.80 236.08 Z M 170.81 236.30 L 171.80 236.49 C 172.65 236.66 173.47 236.10 173.63 235.26 C 173.80 234.41 173.24 233.59 172.40 233.43 L 171.40 233.24 C 170.56 233.07 169.74 233.63 169.57 234.47 C 169.41 235.32 169.96 236.14 170.81 236.30 Z M 171.84 236.50 L 172.84 236.67 C 173.69 236.81 174.49 236.24 174.63 235.39 C 174.78 234.54 174.20 233.73 173.35 233.59 L 172.36 233.42 C 171.51 233.28 170.70 233.85 170.56 234.70 C 170.42 235.55 170.99 236.36 171.84 236.50 Z M 172.87 236.67 L 173.87 236.82 C 174.72 236.94 175.51 236.35 175.64 235.50 C 175.76 234.64 175.17 233.85 174.31 233.73 L 173.32 233.58 C 172.46 233.46 171.67 234.05 171.55 234.91 C 171.43 235.76 172.02 236.55 172.87 236.67 Z M 173.90 236.82 L 174.91 236.94 C 175.76 237.05 176.54 236.44 176.64 235.58 C 176.75 234.73 176.14 233.95 175.28 233.84 L 174.28 233.72 C 173.42 233.62 172.64 234.23 172.54 235.09 C 172.44 235.94 173.05 236.72 173.90 236.82 Z M 174.95 236.95 L 175.94 237.04 C 176.80 237.13 177.56 236.50 177.64 235.64 C 177.72 234.78 177.10 234.02 176.24 233.94 L 175.24 233.84 C 174.39 233.76 173.62 234.39 173.54 235.25 C 173.46 236.10 174.09 236.87 174.95 236.95 Z M 175.99 237.05 L 177.01 237.12 C 177.87 237.17 178.62 236.52 178.67 235.66 C 178.73 234.80 178.08 234.06 177.22 234.00 L 176.19 233.93 C 175.33 233.88 174.59 234.53 174.53 235.39 C 174.47 236.25 175.13 236.99 175.99 237.05 Z M 177.06 237.12 L 178.09 237.16 C 178.95 237.19 179.68 236.51 179.71 235.65 C 179.74 234.79 179.07 234.07 178.20 234.04 L 177.17 234.00 C 176.31 233.97 175.59 234.64 175.55 235.50 C 175.52 236.36 176.20 237.09 177.06 237.12 Z M 178.13 237.16 L 179.11 237.17 C 179.97 237.18 180.68 236.49 180.70 235.63 C 180.71 234.77 180.02 234.06 179.16 234.05 L 178.17 234.03 C 177.31 234.02 176.60 234.71 176.59 235.57 C 176.57 236.44 177.26 237.14 178.13 237.16 Z M 179.13 237.17 L 180.07 237.17 C 180.94 237.18 181.64 236.48 181.64 235.62 C 181.64 234.75 180.94 234.05 180.08 234.05 L 179.14 234.05 C 178.28 234.05 177.58 234.74 177.57 235.61 C 177.57 236.47 178.27 237.17 179.13 237.17 Z M 180.08 237.17 L 181.08 237.17 C 181.95 237.17 182.64 236.47 182.64 235.61 C 182.64 234.75 181.94 234.05 181.08 234.05 L 180.08 234.05 C 179.21 234.05 178.52 234.75 178.52 235.61 C 178.52 236.48 179.22 237.17 180.08 237.17 Z M 181.10 237.17 L 182.09 237.16 C 182.95 237.15 183.64 236.44 183.63 235.58 C 183.62 234.71 182.91 234.02 182.05 234.04 L 181.06 234.05 C 180.20 234.06 179.51 234.77 179.52 235.63 C 179.53 236.49 180.24 237.18 181.10 237.17 Z M 182.13 237.16 L 183.13 237.12 C 183.99 237.09 184.66 236.36 184.63 235.50 C 184.60 234.64 183.87 233.97 183.01 234.00 L 182.01 234.04 C 181.15 234.07 180.48 234.79 180.51 235.65 C 180.54 236.52 181.27 237.19 182.13 237.16 Z M 183.18 237.12 L 184.16 237.05 C 185.02 236.99 185.67 236.24 185.61 235.38 C 185.55 234.52 184.80 233.88 183.94 233.93 L 182.96 234.00 C 182.10 234.06 181.45 234.81 181.51 235.67 C 181.57 236.53 182.32 237.18 183.18 237.12 Z M 184.23 237.04 L 185.22 236.93 C 186.08 236.83 186.69 236.06 186.60 235.20 C 186.50 234.35 185.72 233.73 184.87 233.83 L 183.88 233.94 C 183.02 234.04 182.40 234.81 182.50 235.67 C 182.60 236.52 183.37 237.14 184.23 237.04 Z M 185.31 236.92 L 186.31 236.75 C 187.16 236.60 187.73 235.79 187.58 234.94 C 187.43 234.09 186.62 233.52 185.77 233.67 L 184.78 233.84 C 183.93 233.99 183.36 234.80 183.51 235.65 C 183.65 236.50 184.46 237.07 185.31 236.92 Z M 186.42 236.72 L 187.39 236.48 C 188.22 236.27 188.73 235.42 188.52 234.58 C 188.31 233.75 187.46 233.24 186.62 233.45 L 185.66 233.69 C 184.82 233.90 184.32 234.75 184.53 235.59 C 184.74 236.43 185.59 236.93 186.42 236.72 Z M 187.52 236.44 L 188.41 236.13 C 189.23 235.85 189.66 234.96 189.38 234.14 C 189.09 233.33 188.20 232.90 187.39 233.18 L 186.49 233.49 C 185.68 233.77 185.25 234.66 185.53 235.48 C 185.81 236.29 186.70 236.72 187.52 236.44 Z M 188.53 236.08 L 189.43 235.69 C 190.22 235.34 190.57 234.42 190.23 233.63 C 189.88 232.84 188.96 232.48 188.17 232.83 L 187.27 233.22 C 186.48 233.57 186.13 234.49 186.47 235.28 C 186.82 236.07 187.74 236.43 188.53 236.08 Z M 189.52 235.64 L 190.44 235.16 C 191.21 234.76 191.50 233.82 191.10 233.05 C 190.70 232.29 189.76 231.99 189.00 232.39 L 188.07 232.88 C 187.31 233.28 187.02 234.22 187.42 234.98 C 187.82 235.75 188.76 236.04 189.52 235.64 Z M 190.52 235.12 L 191.40 234.60 C 192.14 234.16 192.38 233.20 191.94 232.46 C 191.51 231.72 190.55 231.47 189.81 231.91 L 188.92 232.43 C 188.18 232.87 187.94 233.83 188.38 234.57 C 188.82 235.31 189.77 235.56 190.52 235.12 Z M 191.45 234.57 L 192.29 234.02 C 193.01 233.55 193.22 232.59 192.75 231.86 C 192.29 231.14 191.32 230.93 190.59 231.40 L 189.75 231.94 C 189.03 232.41 188.82 233.38 189.29 234.10 C 189.76 234.83 190.72 235.03 191.45 234.57 Z M 192.34 233.99 L 193.18 233.41 C 193.88 232.91 194.05 231.94 193.56 231.23 C 193.07 230.53 192.09 230.35 191.39 230.85 L 190.55 231.43 C 189.84 231.93 189.67 232.90 190.16 233.61 C 190.66 234.31 191.63 234.49 192.34 233.99 Z M 193.22 233.37 L 194.03 232.76 C 194.72 232.24 194.86 231.26 194.34 230.57 C 193.82 229.89 192.84 229.75 192.15 230.27 L 191.34 230.88 C 190.65 231.40 190.52 232.38 191.04 233.07 C 191.55 233.75 192.53 233.89 193.22 233.37 Z M 194.08 232.72 L 194.85 232.09 C 195.52 231.54 195.61 230.55 195.06 229.89 C 194.52 229.22 193.53 229.13 192.87 229.68 L 192.10 230.31 C 191.43 230.86 191.34 231.84 191.89 232.51 C 192.43 233.17 193.42 233.27 194.08 232.72 Z M 194.92 232.03 L 195.69 231.32 C 196.32 230.73 196.36 229.75 195.78 229.11 C 195.19 228.48 194.20 228.44 193.57 229.02 L 192.80 229.73 C 192.17 230.32 192.13 231.31 192.71 231.94 C 193.30 232.57 194.28 232.61 194.92 232.03 Z M 195.76 231.24 L 196.44 230.52 C 197.04 229.90 197.01 228.91 196.38 228.32 C 195.76 227.72 194.77 227.75 194.18 228.38 L 193.49 229.10 C 192.90 229.72 192.93 230.71 193.56 231.30 C 194.18 231.90 195.17 231.87 195.76 231.24 Z M 196.52 230.44 L 197.13 229.69 C 197.68 229.03 197.58 228.04 196.91 227.50 C 196.25 226.95 195.26 227.05 194.72 227.71 L 194.10 228.46 C 193.56 229.13 193.65 230.11 194.32 230.66 C 194.99 231.20 195.97 231.11 196.52 230.44 Z M 197.20 229.61 L 197.76 228.81 C 198.26 228.10 198.10 227.13 197.39 226.63 C 196.69 226.13 195.72 226.30 195.22 227.00 L 194.65 227.80 C 194.15 228.50 194.32 229.48 195.02 229.98 C 195.72 230.48 196.70 230.31 197.20 229.61 Z M 197.82 228.72 L 198.35 227.86 C 198.81 227.13 198.58 226.17 197.85 225.71 C 197.11 225.26 196.15 225.48 195.70 226.22 L 195.16 227.08 C 194.71 227.81 194.94 228.78 195.67 229.23 C 196.40 229.68 197.36 229.46 197.82 228.72 Z M 198.39 227.79 L 198.88 226.90 C 199.30 226.15 199.02 225.20 198.26 224.78 C 197.51 224.37 196.56 224.65 196.14 225.40 L 195.66 226.29 C 195.24 227.04 195.52 227.99 196.27 228.41 C 197.03 228.82 197.98 228.55 198.39 227.79 Z M 198.91 226.84 L 199.35 225.96 C 199.73 225.19 199.41 224.25 198.64 223.87 C 197.86 223.49 196.93 223.81 196.55 224.58 L 196.11 225.46 C 195.73 226.24 196.05 227.17 196.82 227.55 C 197.60 227.93 198.53 227.62 198.91 226.84 Z M 199.37 225.90 L 199.76 225.04 C 200.11 224.25 199.75 223.33 198.97 222.98 C 198.18 222.63 197.26 222.98 196.91 223.77 L 196.52 224.64 C 196.17 225.42 196.53 226.35 197.31 226.70 C 198.10 227.05 199.02 226.69 199.37 225.90 Z M 199.78 224.98 L 200.13 224.11 C 200.45 223.31 200.06 222.40 199.26 222.08 C 198.46 221.76 197.55 222.15 197.23 222.95 L 196.88 223.82 C 196.56 224.63 196.95 225.53 197.75 225.85 C 198.56 226.17 199.46 225.78 199.78 224.98 Z M 200.15 224.06 L 200.49 223.12 C 200.78 222.31 200.35 221.42 199.54 221.13 C 198.73 220.84 197.84 221.26 197.55 222.07 L 197.21 223.00 C 196.92 223.81 197.34 224.71 198.15 225.00 C 198.96 225.29 199.86 224.87 200.15 224.06 Z M 200.50 223.09 L 200.84 222.04 C 201.12 221.22 200.67 220.34 199.86 220.07 C 199.04 219.80 198.15 220.24 197.88 221.06 L 197.53 222.10 C 197.26 222.92 197.71 223.81 198.52 224.08 C 199.34 224.35 200.23 223.91 200.50 223.09 Z M 200.85 222.02 L 201.14 221.13 C 201.40 220.30 200.94 219.43 200.12 219.16 C 199.30 218.90 198.42 219.36 198.16 220.18 L 197.88 221.08 C 197.61 221.90 198.07 222.78 198.89 223.04 C 199.71 223.30 200.59 222.85 200.85 222.02 Z M 201.14 221.12 L 201.44 220.15 C 201.70 219.33 201.24 218.45 200.41 218.20 C 199.59 217.94 198.71 218.40 198.46 219.22 L 198.16 220.19 C 197.90 221.01 198.36 221.89 199.19 222.14 C 200.01 222.40 200.88 221.94 201.14 221.12 Z M 201.44 220.15 L 201.75 219.15 C 202.00 218.33 201.53 217.46 200.71 217.20 C 199.89 216.95 199.01 217.42 198.76 218.24 L 198.46 219.23 C 198.20 220.06 198.67 220.93 199.49 221.18 C 200.32 221.43 201.19 220.97 201.44 220.15 Z M 201.75 219.15 L 202.04 218.17 C 202.29 217.34 201.83 216.47 201.00 216.22 C 200.18 215.97 199.31 216.44 199.06 217.26 L 198.76 218.24 C 198.51 219.07 198.98 219.94 199.80 220.19 C 200.63 220.44 201.50 219.98 201.75 219.15 Z M 202.05 218.17 L 202.34 217.20 C 202.59 216.37 202.12 215.50 201.29 215.25 C 200.47 215.00 199.60 215.47 199.35 216.30 L 199.06 217.27 C 198.81 218.09 199.28 218.96 200.10 219.21 C 200.93 219.46 201.80 218.99 202.05 218.17 Z M 202.34 217.19 L 202.64 216.18 C 202.89 215.35 202.42 214.48 201.59 214.24 C 200.77 213.99 199.90 214.46 199.65 215.29 L 199.35 216.30 C 199.10 217.13 199.57 218.00 200.39 218.24 C 201.22 218.49 202.09 218.02 202.34 217.19 Z M 202.64 216.18 L 202.92 215.23 C 203.17 214.40 202.70 213.53 201.87 213.29 C 201.05 213.04 200.18 213.51 199.93 214.34 L 199.65 215.29 C 199.40 216.11 199.87 216.98 200.70 217.23 C 201.53 217.48 202.40 217.00 202.64 216.18 Z M 202.93 215.23 L 203.20 214.30 C 203.44 213.48 202.97 212.61 202.14 212.36 C 201.32 212.12 200.45 212.59 200.20 213.42 L 199.93 214.34 C 199.69 215.17 200.16 216.03 200.99 216.28 C 201.81 216.52 202.68 216.05 202.93 215.23 Z M 203.20 214.30 L 203.47 213.39 C 203.71 212.56 203.24 211.69 202.41 211.45 C 201.58 211.21 200.72 211.68 200.47 212.51 L 200.20 213.42 C 199.96 214.25 200.43 215.11 201.26 215.36 C 202.09 215.60 202.95 215.13 203.20 214.30 Z M 203.47 213.39 L 203.71 212.55 C 203.95 211.72 203.48 210.86 202.65 210.62 C 201.82 210.37 200.96 210.85 200.71 211.68 L 200.47 212.51 C 200.23 213.34 200.70 214.20 201.53 214.45 C 202.36 214.69 203.23 214.21 203.47 213.39 Z M 203.71 212.54 L 203.97 211.66 C 204.21 210.83 203.73 209.97 202.90 209.73 C 202.07 209.49 201.20 209.97 200.97 210.80 L 200.71 211.68 C 200.47 212.51 200.95 213.38 201.78 213.62 C 202.61 213.85 203.48 213.37 203.71 212.54 Z M 203.97 211.65 L 204.24 210.69 C 204.47 209.86 203.98 209.00 203.15 208.76 C 202.32 208.53 201.46 209.02 201.23 209.85 L 200.96 210.81 C 200.73 211.64 201.22 212.50 202.05 212.73 C 202.88 212.96 203.74 212.48 203.97 211.65 Z M 204.24 210.67 L 204.53 209.61 C 204.75 208.78 204.26 207.92 203.42 207.70 C 202.59 207.48 201.73 207.97 201.51 208.80 L 201.23 209.86 C 201.00 210.70 201.50 211.55 202.33 211.78 C 203.16 212.00 204.02 211.51 204.24 210.67 Z M 204.53 209.60 L 204.80 208.55 C 205.02 207.71 204.51 206.86 203.68 206.64 C 202.84 206.43 201.99 206.93 201.78 207.77 L 201.51 208.82 C 201.29 209.65 201.79 210.50 202.63 210.72 C 203.46 210.93 204.32 210.43 204.53 209.60 Z M 204.80 208.53 L 205.03 207.64 C 205.24 206.80 204.73 205.95 203.89 205.74 C 203.05 205.54 202.21 206.05 202.00 206.88 L 201.78 207.78 C 201.57 208.61 202.08 209.46 202.91 209.67 C 203.75 209.88 204.60 209.37 204.80 208.53 Z M 205.03 207.63 L 205.26 206.68 C 205.46 205.84 204.95 205.00 204.11 204.80 C 203.27 204.59 202.43 205.11 202.23 205.94 L 202.00 206.89 C 201.79 207.73 202.31 208.57 203.15 208.78 C 203.98 208.98 204.83 208.46 205.03 207.63 Z M 205.26 206.67 L 205.49 205.69 C 205.69 204.85 205.17 204.01 204.33 203.81 C 203.49 203.61 202.65 204.13 202.45 204.97 L 202.22 205.96 C 202.03 206.79 202.55 207.63 203.39 207.83 C 204.22 208.03 205.06 207.51 205.26 206.67 Z M 205.50 205.67 L 205.73 204.67 C 205.92 203.83 205.39 202.99 204.55 202.80 C 203.71 202.60 202.87 203.13 202.68 203.97 L 202.45 204.98 C 202.26 205.82 202.79 206.66 203.63 206.85 C 204.47 207.04 205.30 206.52 205.50 205.67 Z M 205.73 204.65 L 205.95 203.63 C 206.14 202.79 205.61 201.96 204.77 201.77 C 203.92 201.59 203.09 202.12 202.90 202.96 L 202.68 203.98 C 202.49 204.82 203.03 205.66 203.87 205.84 C 204.71 206.03 205.54 205.50 205.73 204.65 Z M 205.96 203.62 L 206.17 202.60 C 206.35 201.76 205.81 200.93 204.97 200.75 C 204.13 200.57 203.30 201.11 203.12 201.96 L 202.90 202.97 C 202.72 203.82 203.26 204.65 204.11 204.83 C 204.95 205.00 205.78 204.47 205.96 203.62 Z M 206.18 202.59 L 206.39 201.52 C 206.56 200.67 206.02 199.85 205.17 199.68 C 204.33 199.51 203.50 200.05 203.33 200.90 L 203.11 201.97 C 202.94 202.82 203.49 203.64 204.34 203.81 C 205.18 203.98 206.00 203.43 206.18 202.59 Z M 206.40 201.50 L 206.61 200.41 C 206.77 199.56 206.21 198.74 205.37 198.58 C 204.52 198.42 203.70 198.97 203.54 199.82 L 203.33 200.91 C 203.17 201.76 203.72 202.58 204.57 202.74 C 205.41 202.90 206.23 202.35 206.40 201.50 Z M 206.61 200.40 L 206.80 199.35 C 206.96 198.50 206.40 197.69 205.55 197.53 C 204.70 197.37 203.89 197.94 203.73 198.78 L 203.54 199.83 C 203.38 200.68 203.94 201.49 204.79 201.65 C 205.64 201.81 206.45 201.25 206.61 200.40 Z M 206.80 199.34 L 206.98 198.34 C 207.13 197.49 206.56 196.68 205.71 196.53 C 204.87 196.38 204.06 196.95 203.90 197.80 L 203.73 198.79 C 203.58 199.64 204.14 200.45 204.99 200.60 C 205.84 200.75 206.65 200.19 206.80 199.34 Z M 206.98 198.34 L 207.14 197.41 C 207.29 196.56 206.72 195.75 205.87 195.60 C 205.02 195.45 204.21 196.02 204.06 196.87 L 203.90 197.80 C 203.76 198.65 204.33 199.46 205.18 199.61 C 206.03 199.76 206.83 199.19 206.98 198.34 Z M 207.14 197.40 L 207.29 196.54 C 207.43 195.69 206.86 194.89 206.01 194.74 C 205.16 194.60 204.36 195.17 204.21 196.02 L 204.06 196.88 C 203.92 197.73 204.49 198.53 205.34 198.68 C 206.19 198.82 207.00 198.25 207.14 197.40 Z M 207.29 196.55 L 207.46 195.52 C 207.61 194.67 207.04 193.86 206.19 193.71 C 205.34 193.57 204.53 194.14 204.39 194.99 L 204.21 196.02 C 204.07 196.87 204.64 197.68 205.49 197.82 C 206.34 197.97 207.14 197.39 207.29 196.55 Z M 207.46 195.52 L 207.65 194.45 C 207.80 193.60 207.23 192.80 206.38 192.65 C 205.53 192.50 204.72 193.07 204.57 193.92 L 204.39 194.99 C 204.24 195.84 204.81 196.64 205.66 196.79 C 206.51 196.94 207.32 196.37 207.46 195.52 Z M 207.65 194.46 L 207.81 193.53 C 207.96 192.68 207.39 191.87 206.54 191.72 C 205.69 191.57 204.88 192.14 204.73 192.99 L 204.57 193.92 C 204.42 194.77 204.99 195.58 205.84 195.72 C 206.69 195.87 207.50 195.30 207.65 194.46 Z M 207.81 193.53 L 207.96 192.68 C 208.11 191.83 207.54 191.02 206.69 190.87 C 205.84 190.72 205.03 191.29 204.88 192.14 L 204.73 192.99 C 204.59 193.84 205.15 194.65 206.00 194.80 C 206.85 194.95 207.66 194.38 207.81 193.53 Z M 207.96 192.67 L 208.13 191.70 C 208.27 190.85 207.70 190.04 206.85 189.90 C 206.00 189.75 205.19 190.33 205.05 191.17 L 204.88 192.15 C 204.74 193.00 205.31 193.80 206.16 193.95 C 207.01 194.09 207.81 193.52 207.96 192.67 Z M 208.13 191.69 L 208.29 190.70 C 208.42 189.85 207.85 189.05 206.99 188.91 C 206.14 188.77 205.34 189.35 205.20 190.20 L 205.05 191.19 C 204.91 192.04 205.49 192.84 206.34 192.98 C 207.19 193.12 207.99 192.54 208.13 191.69 Z M 208.29 190.67 L 208.43 189.69 C 208.56 188.84 207.97 188.04 207.12 187.92 C 206.26 187.79 205.47 188.38 205.35 189.24 L 205.20 190.22 C 205.08 191.08 205.67 191.87 206.52 191.99 C 207.37 192.12 208.17 191.53 208.29 190.67 Z M 208.44 189.66 L 208.56 188.66 C 208.67 187.81 208.06 187.03 207.21 186.92 C 206.35 186.81 205.57 187.42 205.47 188.28 L 205.34 189.27 C 205.23 190.12 205.84 190.91 206.70 191.01 C 207.55 191.12 208.33 190.51 208.44 189.66 Z M 208.57 188.63 L 208.67 187.63 C 208.76 186.78 208.13 186.01 207.28 185.92 C 206.42 185.83 205.65 186.46 205.56 187.32 L 205.46 188.31 C 205.37 189.17 206.00 189.93 206.86 190.02 C 207.71 190.11 208.48 189.49 208.57 188.63 Z M 208.67 187.60 L 208.75 186.61 C 208.82 185.75 208.18 184.99 207.32 184.92 C 206.46 184.85 205.71 185.49 205.64 186.35 L 205.56 187.35 C 205.49 188.21 206.13 188.96 206.99 189.03 C 207.85 189.10 208.60 188.46 208.67 187.60 Z M 208.75 186.58 L 208.81 185.63 C 208.87 184.77 208.21 184.03 207.35 183.98 C 206.49 183.93 205.75 184.58 205.70 185.44 L 205.64 186.38 C 205.59 187.24 206.24 187.99 207.10 188.04 C 207.96 188.09 208.70 187.44 208.75 186.58 Z M 208.81 185.61 L 208.86 184.65 C 208.89 183.79 208.22 183.06 207.36 183.02 C 206.50 182.99 205.77 183.65 205.74 184.52 L 205.69 185.47 C 205.66 186.33 206.33 187.06 207.19 187.10 C 208.05 187.14 208.78 186.47 208.81 185.61 Z M 208.86 184.63 L 208.88 183.59 C 208.91 182.73 208.23 182.01 207.37 181.99 C 206.51 181.97 205.79 182.65 205.76 183.51 L 205.74 184.54 C 205.71 185.40 206.39 186.12 207.25 186.14 C 208.12 186.17 208.83 185.49 208.86 184.63 Z M 208.89 183.58 L 208.90 182.53 C 208.91 181.66 208.23 180.96 207.36 180.94 C 206.50 180.93 205.79 181.62 205.78 182.48 L 205.76 183.53 C 205.75 184.39 206.44 185.10 207.30 185.11 C 208.16 185.13 208.87 184.44 208.89 183.58 Z M 208.90 182.51 L 208.91 181.51 C 208.91 180.65 208.22 179.95 207.36 179.94 C 206.50 179.93 205.79 180.63 205.79 181.49 L 205.78 182.49 C 205.77 183.35 206.47 184.06 207.33 184.06 C 208.19 184.07 208.90 183.38 208.90 182.51 Z M 208.91 181.50 L 208.91 180.47 C 208.91 179.61 208.21 178.91 207.35 178.91 C 206.49 178.91 205.79 179.61 205.79 180.47 L 205.79 181.50 C 205.79 182.36 206.48 183.06 207.35 183.06 C 208.21 183.06 208.91 182.36 208.91 181.50 Z M 208.91 180.46 L 208.90 179.45 C 208.90 178.59 208.20 177.89 207.33 177.90 C 206.47 177.90 205.78 178.61 205.78 179.47 L 205.79 180.48 C 205.79 181.34 206.49 182.04 207.36 182.03 C 208.22 182.03 208.91 181.32 208.91 180.46 Z M 208.90 179.44 L 208.89 178.42 C 208.88 177.56 208.17 176.87 207.31 176.88 C 206.45 176.89 205.76 177.60 205.77 178.46 L 205.78 179.48 C 205.79 180.34 206.50 181.03 207.36 181.02 C 208.23 181.01 208.92 180.30 208.90 179.44 Z M 208.89 178.40 L 208.86 177.35 C 208.84 176.49 208.12 175.81 207.26 175.83 C 206.39 175.86 205.72 176.57 205.74 177.44 L 205.77 178.49 C 205.79 179.35 206.51 180.03 207.37 180.00 C 208.23 179.98 208.91 179.26 208.89 178.40 Z M 208.86 177.30 L 208.80 176.33 C 208.75 175.47 208.01 174.82 207.15 174.87 C 206.29 174.91 205.64 175.65 205.69 176.51 L 205.74 177.48 C 205.79 178.34 206.53 179.00 207.39 178.95 C 208.25 178.90 208.91 178.16 208.86 177.30 Z M 208.80 176.27 L 208.70 175.33 C 208.61 174.47 207.85 173.85 206.99 173.94 C 206.13 174.02 205.51 174.79 205.60 175.65 L 205.69 176.58 C 205.78 177.44 206.54 178.06 207.40 177.98 C 208.26 177.89 208.88 177.12 208.80 176.27 Z M 208.69 175.25 L 208.54 174.28 C 208.41 173.43 207.62 172.84 206.76 172.97 C 205.91 173.10 205.33 173.90 205.46 174.75 L 205.61 175.73 C 205.74 176.58 206.53 177.16 207.39 177.03 C 208.24 176.90 208.82 176.11 208.69 175.25 Z M 208.53 174.22 L 208.34 173.24 C 208.18 172.39 207.36 171.84 206.51 172.00 C 205.66 172.16 205.11 172.98 205.28 173.83 L 205.47 174.81 C 205.63 175.66 206.45 176.21 207.30 176.05 C 208.14 175.88 208.70 175.06 208.53 174.22 Z M 208.33 173.20 L 208.12 172.21 C 207.93 171.37 207.10 170.84 206.26 171.02 C 205.41 171.21 204.88 172.04 205.07 172.88 L 205.28 173.87 C 205.47 174.71 206.30 175.24 207.14 175.06 C 207.99 174.87 208.52 174.04 208.33 173.20 Z M 208.11 172.19 L 207.90 171.26 C 207.70 170.42 206.86 169.90 206.02 170.10 C 205.18 170.29 204.66 171.13 204.86 171.97 L 205.07 172.90 C 205.27 173.74 206.11 174.26 206.95 174.07 C 207.79 173.87 208.31 173.03 208.11 172.19 Z M 207.89 171.24 L 207.66 170.31 C 207.46 169.47 206.61 168.96 205.77 169.17 C 204.94 169.37 204.42 170.22 204.63 171.05 L 204.86 171.99 C 205.07 172.83 205.91 173.34 206.75 173.13 C 207.59 172.93 208.10 172.08 207.89 171.24 Z M 207.65 170.28 L 207.39 169.30 C 207.17 168.46 206.32 167.97 205.48 168.19 C 204.65 168.41 204.15 169.27 204.38 170.10 L 204.64 171.08 C 204.86 171.92 205.71 172.41 206.55 172.19 C 207.38 171.97 207.88 171.11 207.65 170.28 Z M 207.38 169.26 L 207.09 168.25 C 206.85 167.42 205.99 166.95 205.16 167.19 C 204.33 167.43 203.85 168.29 204.09 169.12 L 204.38 170.13 C 204.62 170.96 205.49 171.44 206.32 171.20 C 207.15 170.96 207.62 170.09 207.38 169.26 Z M 207.08 168.22 L 206.79 167.27 C 206.53 166.45 205.65 165.99 204.83 166.24 C 204.01 166.50 203.55 167.38 203.80 168.20 L 204.10 169.15 C 204.36 169.97 205.23 170.43 206.05 170.18 C 206.88 169.92 207.34 169.04 207.08 168.22 Z M 206.78 167.25 L 206.46 166.27 C 206.19 165.45 205.30 165.01 204.48 165.28 C 203.67 165.55 203.22 166.43 203.49 167.25 L 203.81 168.22 C 204.08 169.04 204.97 169.49 205.78 169.22 C 206.60 168.95 207.05 168.06 206.78 167.25 Z M 206.45 166.25 L 206.11 165.29 C 205.83 164.47 204.94 164.04 204.12 164.33 C 203.31 164.62 202.88 165.51 203.16 166.32 L 203.50 167.28 C 203.79 168.09 204.68 168.52 205.49 168.23 C 206.30 167.95 206.73 167.06 206.45 166.25 Z M 206.10 165.26 L 205.75 164.32 C 205.45 163.52 204.55 163.11 203.74 163.41 C 202.93 163.71 202.52 164.61 202.83 165.42 L 203.18 166.35 C 203.48 167.16 204.38 167.57 205.19 167.27 C 205.99 166.96 206.40 166.06 206.10 165.26 Z M 205.74 164.28 L 205.33 163.29 C 205.01 162.49 204.10 162.11 203.30 162.43 C 202.50 162.76 202.11 163.67 202.44 164.47 L 202.84 165.46 C 203.17 166.26 204.08 166.64 204.88 166.32 C 205.68 165.99 206.06 165.08 205.74 164.28 Z M 205.31 163.25 L 204.91 162.34 C 204.56 161.55 203.64 161.20 202.85 161.55 C 202.06 161.89 201.71 162.82 202.06 163.61 L 202.46 164.51 C 202.81 165.30 203.73 165.66 204.52 165.31 C 205.31 164.96 205.66 164.04 205.31 163.25 Z M 204.90 162.31 L 204.49 161.45 C 204.12 160.68 203.19 160.34 202.41 160.71 C 201.63 161.08 201.30 162.01 201.67 162.79 L 202.07 163.64 C 202.44 164.42 203.37 164.75 204.15 164.38 C 204.93 164.02 205.26 163.09 204.90 162.31 Z M 204.48 161.43 L 204.05 160.55 C 203.66 159.78 202.72 159.47 201.95 159.85 C 201.18 160.23 200.87 161.17 201.25 161.94 L 201.68 162.82 C 202.07 163.59 203.00 163.90 203.78 163.52 C 204.55 163.14 204.86 162.20 204.48 161.43 Z M 204.03 160.53 L 203.57 159.64 C 203.17 158.88 202.23 158.58 201.46 158.98 C 200.70 159.38 200.40 160.33 200.80 161.09 L 201.26 161.97 C 201.66 162.74 202.61 163.03 203.37 162.63 C 204.14 162.23 204.43 161.29 204.03 160.53 Z M 203.55 159.61 L 203.06 158.73 C 202.64 157.98 201.69 157.71 200.94 158.13 C 200.19 158.55 199.92 159.50 200.34 160.25 L 200.82 161.13 C 201.24 161.88 202.19 162.15 202.95 161.73 C 203.70 161.31 203.97 160.36 203.55 159.61 Z M 203.04 158.69 L 202.52 157.83 C 202.08 157.09 201.12 156.85 200.38 157.29 C 199.64 157.73 199.40 158.69 199.84 159.43 L 200.36 160.29 C 200.80 161.03 201.76 161.27 202.50 160.83 C 203.24 160.39 203.48 159.43 203.04 158.69 Z M 202.50 157.79 L 201.96 156.94 C 201.50 156.22 200.53 156.00 199.81 156.46 C 199.08 156.93 198.86 157.89 199.33 158.62 L 199.87 159.47 C 200.33 160.20 201.29 160.41 202.02 159.95 C 202.75 159.48 202.96 158.52 202.50 157.79 Z M 201.95 156.92 L 201.39 156.08 C 200.92 155.36 199.95 155.17 199.23 155.64 C 198.51 156.12 198.31 157.09 198.79 157.81 L 199.34 158.64 C 199.82 159.36 200.78 159.56 201.50 159.08 C 202.22 158.61 202.42 157.64 201.95 156.92 Z M 201.39 156.07 L 200.84 155.26 C 200.36 154.54 199.39 154.35 198.67 154.83 C 197.96 155.32 197.77 156.29 198.25 157.00 L 198.80 157.82 C 199.28 158.53 200.25 158.72 200.96 158.24 C 201.68 157.76 201.87 156.79 201.39 156.07 Z M 200.84 155.25 L 200.30 154.46 C 199.81 153.74 198.84 153.56 198.13 154.04 C 197.42 154.52 197.23 155.49 197.71 156.21 L 198.25 157.00 C 198.73 157.72 199.70 157.91 200.42 157.42 C 201.13 156.94 201.32 155.97 200.84 155.25 Z M 200.30 154.46 L 199.74 153.64 C 199.26 152.93 198.29 152.74 197.58 153.22 C 196.86 153.70 196.67 154.67 197.16 155.39 L 197.71 156.21 C 198.19 156.92 199.16 157.11 199.88 156.63 C 200.59 156.14 200.78 155.17 200.30 154.46 Z M 199.75 153.64 L 199.16 152.77 C 198.67 152.05 197.70 151.86 196.99 152.34 C 196.27 152.82 196.08 153.79 196.57 154.51 L 197.16 155.39 C 197.64 156.10 198.61 156.29 199.32 155.81 C 200.04 155.33 200.23 154.36 199.75 153.64 Z M 199.16 152.77 L 198.67 152.04 C 198.19 151.32 197.22 151.13 196.50 151.61 C 195.79 152.09 195.60 153.06 196.08 153.78 L 196.56 154.50 C 197.04 155.22 198.01 155.41 198.73 154.93 C 199.44 154.46 199.64 153.49 199.16 152.77 Z M 198.67 152.05 L 198.15 151.26 C 197.68 150.54 196.71 150.35 195.99 150.82 C 195.27 151.30 195.08 152.27 195.55 152.99 L 196.07 153.77 C 196.55 154.49 197.52 154.69 198.24 154.21 C 198.95 153.73 199.15 152.76 198.67 152.05 Z M 198.16 151.27 L 197.60 150.42 C 197.13 149.70 196.16 149.50 195.44 149.97 C 194.72 150.44 194.52 151.41 194.99 152.13 L 195.55 152.98 C 196.02 153.70 196.99 153.90 197.71 153.43 C 198.43 152.96 198.63 151.99 198.16 151.27 Z M 197.61 150.43 L 197.01 149.50 C 196.54 148.78 195.57 148.57 194.85 149.04 C 194.12 149.51 193.92 150.47 194.39 151.20 L 194.98 152.12 C 195.45 152.85 196.42 153.05 197.14 152.58 C 197.87 152.12 198.07 151.15 197.61 150.43 Z M 197.01 149.51 L 196.44 148.61 C 195.97 147.88 195.01 147.67 194.28 148.13 C 193.56 148.60 193.34 149.56 193.81 150.29 L 194.38 151.19 C 194.84 151.91 195.81 152.13 196.54 151.66 C 197.26 151.20 197.48 150.24 197.01 149.51 Z M 196.44 148.62 L 195.89 147.74 C 195.43 147.01 194.47 146.80 193.74 147.26 C 193.01 147.71 192.79 148.68 193.25 149.41 L 193.80 150.28 C 194.26 151.01 195.23 151.23 195.96 150.77 C 196.68 150.31 196.90 149.35 196.44 148.62 Z M 195.90 147.75 L 195.34 146.86 C 194.89 146.13 193.92 145.91 193.19 146.36 C 192.46 146.82 192.24 147.78 192.69 148.52 L 193.25 149.40 C 193.70 150.13 194.67 150.36 195.40 149.90 C 196.13 149.44 196.35 148.48 195.90 147.75 Z M 195.35 146.87 L 194.81 146.00 C 194.36 145.27 193.40 145.04 192.66 145.49 C 191.93 145.94 191.70 146.90 192.15 147.64 L 192.69 148.51 C 193.14 149.24 194.10 149.47 194.84 149.02 C 195.57 148.57 195.80 147.60 195.35 146.87 Z M 194.82 146.01 L 194.31 145.18 C 193.86 144.44 192.90 144.21 192.17 144.66 C 191.43 145.11 191.20 146.07 191.65 146.80 L 192.15 147.63 C 192.60 148.37 193.56 148.60 194.29 148.15 C 195.03 147.70 195.26 146.74 194.82 146.01 Z M 194.32 145.19 L 193.80 144.33 C 193.36 143.59 192.40 143.35 191.66 143.79 C 190.92 144.23 190.68 145.19 191.12 145.93 L 191.64 146.79 C 192.08 147.53 193.04 147.77 193.78 147.33 C 194.52 146.89 194.76 145.93 194.32 145.19 Z M 193.82 144.35 L 193.27 143.40 C 192.84 142.66 191.88 142.40 191.14 142.83 C 190.39 143.27 190.13 144.22 190.57 144.97 L 191.11 145.91 C 191.55 146.66 192.50 146.91 193.25 146.48 C 193.99 146.05 194.25 145.09 193.82 144.35 Z M 193.29 143.44 L 192.82 142.59 C 192.41 141.84 191.46 141.56 190.71 141.98 C 189.95 142.39 189.67 143.34 190.09 144.10 L 190.55 144.94 C 190.96 145.69 191.91 145.97 192.67 145.55 C 193.42 145.14 193.70 144.19 193.29 143.44 Z M 192.85 142.63 L 192.43 141.83 C 192.04 141.06 191.10 140.76 190.33 141.15 C 189.57 141.54 189.26 142.48 189.65 143.25 L 190.07 144.06 C 190.46 144.82 191.40 145.13 192.17 144.73 C 192.93 144.34 193.24 143.40 192.85 142.63 Z M 192.45 141.87 L 192.04 141.00 C 191.67 140.22 190.73 139.89 189.96 140.26 C 189.18 140.64 188.85 141.57 189.22 142.35 L 189.64 143.21 C 190.01 143.99 190.94 144.32 191.72 143.95 C 192.49 143.58 192.82 142.64 192.45 141.87 Z M 192.04 141.01 L 191.62 140.10 C 191.25 139.32 190.32 138.98 189.54 139.35 C 188.76 139.71 188.42 140.64 188.79 141.42 L 189.22 142.33 C 189.58 143.11 190.51 143.45 191.29 143.09 C 192.07 142.72 192.41 141.79 192.04 141.01 Z M 191.60 140.07 L 191.16 139.17 C 190.78 138.39 189.85 138.07 189.07 138.45 C 188.30 138.83 187.98 139.77 188.36 140.54 L 188.80 141.45 C 189.18 142.22 190.11 142.54 190.89 142.16 C 191.66 141.78 191.98 140.85 191.60 140.07 Z M 191.13 139.10 L 190.65 138.22 C 190.23 137.47 189.28 137.19 188.53 137.60 C 187.77 138.02 187.49 138.96 187.91 139.72 L 188.39 140.60 C 188.80 141.36 189.75 141.64 190.51 141.22 C 191.26 140.81 191.54 139.86 191.13 139.10 Z M 190.60 138.14 L 190.06 137.28 C 189.60 136.55 188.63 136.33 187.90 136.79 C 187.17 137.25 186.95 138.22 187.41 138.95 L 187.96 139.80 C 188.42 140.53 189.38 140.75 190.11 140.29 C 190.84 139.83 191.06 138.87 190.60 138.14 Z M 190.02 137.22 L 189.45 136.41 C 188.95 135.70 187.98 135.53 187.27 136.02 C 186.57 136.51 186.39 137.49 186.89 138.19 L 187.45 139.01 C 187.95 139.71 188.92 139.89 189.63 139.39 C 190.34 138.90 190.51 137.93 190.02 137.22 Z M 189.43 136.38 L 188.90 135.66 C 188.39 134.96 187.41 134.81 186.72 135.32 C 186.02 135.83 185.87 136.81 186.38 137.50 L 186.91 138.22 C 187.42 138.92 188.39 139.07 189.09 138.56 C 189.79 138.05 189.94 137.07 189.43 136.38 Z"
      fill="black"
      fill-rule="nonzero" /></svg>