<svg xmlns="http://www.w3.org/2000/svg" width="300" height="300" viewBox="0 0 300 300">
<path d="M 138.51 79.75 L 137.63 80.06 C 136.81 80.35 136.39 81.24 136.67 82.05 C 136.96 82.87 137.85 83.29 138.67 83.01 L 139.55 82.69 C 140.36 82.41 140.79 81.52 140.50 80.70 C 140.22 79.89 139.33 79.46 138.51 79.75 Z M 137.40 80.16 L 136.57 80.61 C 135.81 81.03 135.53 81.97 135.94 82.73 C 136.35 83.49 137.30 83.77 138.05 83.36 L 138.89 82.91 C 139.65 82.50 139.93 81.55 139.52 80.79 C 139.11 80.03 138.16 79.75 137.40 80.16 Z M 136.21 80.88 L 135.47 81.62 C 134.86 82.22 134.86 83.21 135.47 83.82 C 136.08 84.43 137.06 84.44 137.68 83.83 L 138.41 83.09 C 139.02 82.49 139.03 81.50 138.42 80.89 C 137.81 80.27 136.82 80.27 136.21 80.88 Z M 135.22 81.95 L 134.77 82.74 C 134.34 83.49 134.60 84.44 135.35 84.87 C 136.10 85.29 137.06 85.03 137.48 84.28 L 137.93 83.49 C 138.36 82.74 138.10 81.79 137.35 81.36 C 136.60 80.94 135.64 81.20 135.22 81.95 Z M 134.67 82.95 L 134.34 83.80 C 134.03 84.60 134.43 85.51 135.24 85.82 C 136.04 86.13 136.94 85.73 137.25 84.92 L 137.58 84.07 C 137.89 83.27 137.49 82.36 136.69 82.05 C 135.88 81.74 134.98 82.14 134.67 82.95 Z M 134.30 83.92 L 134.02 84.89 C 133.78 85.72 134.25 86.58 135.08 86.83 C 135.91 87.07 136.77 86.59 137.02 85.76 L 137.30 84.80 C 137.54 83.97 137.06 83.10 136.23 82.86 C 135.41 82.62 134.54 83.10 134.30 83.92 Z M 134.00 84.97 L 133.75 86.01 C 133.55 86.85 134.07 87.69 134.91 87.89 C 135.75 88.09 136.59 87.57 136.79 86.73 L 137.04 85.68 C 137.23 84.85 136.71 84.00 135.87 83.81 C 135.03 83.61 134.19 84.13 134.00 84.97 Z M 133.74 86.06 L 133.52 87.13 C 133.35 87.98 133.89 88.80 134.74 88.98 C 135.58 89.15 136.41 88.60 136.58 87.76 L 136.80 86.68 C 136.97 85.84 136.43 85.01 135.58 84.84 C 134.74 84.67 133.91 85.21 133.74 86.06 Z M 133.52 87.15 L 133.31 88.23 C 133.15 89.08 133.71 89.89 134.56 90.06 C 135.40 90.22 136.22 89.66 136.38 88.81 L 136.58 87.74 C 136.75 86.89 136.19 86.07 135.34 85.91 C 134.50 85.75 133.68 86.31 133.52 87.15 Z M 133.31 88.24 L 133.12 89.29 C 132.96 90.14 133.52 90.95 134.37 91.11 C 135.22 91.26 136.03 90.70 136.19 89.85 L 136.38 88.80 C 136.54 87.96 135.98 87.14 135.13 86.99 C 134.28 86.83 133.47 87.39 133.31 88.24 Z M 133.12 89.29 L 132.93 90.31 C 132.78 91.16 133.34 91.97 134.19 92.12 C 135.04 92.28 135.85 91.71 136.01 90.87 L 136.19 89.85 C 136.34 89.00 135.78 88.19 134.93 88.04 C 134.08 87.88 133.27 88.45 133.12 89.29 Z M 132.93 90.31 L 132.76 91.28 C 132.61 92.13 133.17 92.94 134.02 93.09 C 134.87 93.25 135.68 92.68 135.83 91.83 L 136.01 90.86 C 136.16 90.01 135.59 89.20 134.75 89.05 C 133.90 88.90 133.09 89.46 132.93 90.31 Z M 132.76 91.28 L 132.60 92.20 C 132.44 93.05 133.01 93.86 133.86 94.01 C 134.70 94.16 135.52 93.60 135.67 92.75 L 135.83 91.83 C 135.99 90.99 135.42 90.17 134.57 90.02 C 133.72 89.87 132.91 90.43 132.76 91.28 Z M 132.60 92.19 L 132.42 93.16 C 132.26 94.01 132.82 94.83 133.67 94.98 C 134.52 95.14 135.33 94.58 135.49 93.73 L 135.67 92.76 C 135.82 91.91 135.26 91.09 134.41 90.94 C 133.57 90.78 132.75 91.34 132.60 92.19 Z M 132.42 93.16 L 132.22 94.20 C 132.06 95.04 132.62 95.86 133.46 96.02 C 134.31 96.18 135.13 95.63 135.29 94.78 L 135.49 93.74 C 135.65 92.89 135.09 92.07 134.24 91.91 C 133.40 91.75 132.58 92.31 132.42 93.16 Z M 132.22 94.19 L 132.04 95.15 C 131.87 96.00 132.42 96.82 133.27 96.98 C 134.12 97.15 134.94 96.60 135.10 95.75 L 135.29 94.79 C 135.45 93.94 134.90 93.12 134.05 92.96 C 133.21 92.79 132.39 93.34 132.22 94.19 Z M 132.04 95.15 L 131.86 96.06 C 131.69 96.91 132.24 97.73 133.09 97.90 C 133.93 98.06 134.75 97.51 134.92 96.67 L 135.10 95.75 C 135.27 94.91 134.72 94.09 133.87 93.92 C 133.02 93.75 132.20 94.30 132.04 95.15 Z M 131.86 96.07 L 131.67 97.01 C 131.50 97.86 132.06 98.68 132.90 98.85 C 133.75 99.01 134.57 98.46 134.73 97.62 L 134.92 96.67 C 135.09 95.82 134.53 95.00 133.69 94.83 C 132.84 94.67 132.02 95.22 131.86 96.07 Z M 131.67 97.02 L 131.48 98.00 C 131.31 98.84 131.86 99.66 132.71 99.83 C 133.56 99.99 134.38 99.44 134.54 98.59 L 134.73 97.61 C 134.90 96.77 134.35 95.95 133.50 95.78 C 132.66 95.62 131.83 96.17 131.67 97.02 Z M 131.48 97.99 L 131.28 98.97 C 131.11 99.82 131.66 100.64 132.51 100.81 C 133.36 100.98 134.18 100.43 134.35 99.58 L 134.54 98.60 C 134.71 97.75 134.16 96.93 133.32 96.76 C 132.47 96.60 131.65 97.14 131.48 97.99 Z M 131.29 98.96 L 131.08 99.94 C 130.91 100.79 131.45 101.61 132.29 101.79 C 133.14 101.96 133.96 101.42 134.14 100.57 L 134.34 99.59 C 134.52 98.75 133.98 97.92 133.13 97.75 C 132.29 97.57 131.46 98.11 131.29 98.96 Z M 131.09 99.93 L 130.87 100.91 C 130.69 101.75 131.22 102.58 132.07 102.76 C 132.91 102.95 133.74 102.41 133.92 101.57 L 134.14 100.59 C 134.32 99.75 133.79 98.92 132.94 98.73 C 132.10 98.55 131.27 99.08 131.09 99.93 Z M 130.87 100.90 L 130.65 101.87 C 130.46 102.71 130.99 103.55 131.83 103.74 C 132.68 103.93 133.51 103.40 133.70 102.56 L 133.92 101.58 C 134.11 100.74 133.58 99.90 132.74 99.72 C 131.90 99.53 131.06 100.05 130.87 100.90 Z M 130.66 101.87 L 130.43 102.84 C 130.24 103.68 130.76 104.52 131.60 104.71 C 132.44 104.90 133.28 104.38 133.48 103.54 L 133.70 102.57 C 133.89 101.73 133.37 100.89 132.53 100.70 C 131.69 100.50 130.85 101.03 130.66 101.87 Z M 130.43 102.84 L 130.22 103.75 C 130.03 104.59 130.55 105.42 131.39 105.62 C 132.23 105.81 133.07 105.29 133.26 104.45 L 133.47 103.54 C 133.67 102.70 133.15 101.86 132.31 101.67 C 131.47 101.47 130.63 102.00 130.43 102.84 Z M 130.22 103.74 L 130.02 104.63 C 129.82 105.47 130.34 106.31 131.18 106.51 C 132.02 106.70 132.86 106.18 133.06 105.34 L 133.26 104.45 C 133.46 103.61 132.94 102.77 132.10 102.58 C 131.26 102.38 130.42 102.90 130.22 103.74 Z M 130.02 104.63 L 129.79 105.59 C 129.60 106.43 130.12 107.27 130.96 107.46 C 131.80 107.66 132.64 107.14 132.83 106.30 L 133.06 105.34 C 133.25 104.50 132.73 103.66 131.89 103.47 C 131.05 103.27 130.21 103.79 130.02 104.63 Z M 129.79 105.58 L 129.54 106.66 C 129.35 107.50 129.87 108.34 130.70 108.54 C 131.54 108.73 132.38 108.21 132.58 107.37 L 132.83 106.30 C 133.03 105.46 132.51 104.62 131.67 104.42 C 130.83 104.22 129.99 104.75 129.79 105.58 Z M 129.54 106.66 L 129.31 107.65 C 129.11 108.49 129.63 109.33 130.47 109.53 C 131.30 109.73 132.15 109.21 132.34 108.37 L 132.58 107.38 C 132.78 106.54 132.26 105.70 131.42 105.50 C 130.58 105.30 129.74 105.82 129.54 106.66 Z M 129.31 107.65 L 129.07 108.62 C 128.87 109.46 129.39 110.31 130.23 110.51 C 131.07 110.71 131.91 110.19 132.11 109.35 L 132.34 108.38 C 132.54 107.54 132.03 106.70 131.19 106.50 C 130.35 106.30 129.51 106.81 129.31 107.65 Z M 129.08 108.62 L 128.83 109.63 C 128.63 110.47 129.15 111.31 129.98 111.51 C 130.82 111.72 131.67 111.20 131.87 110.36 L 132.11 109.35 C 132.31 108.51 131.80 107.67 130.96 107.47 C 130.12 107.27 129.28 107.78 129.08 108.62 Z M 128.83 109.63 L 128.59 110.63 C 128.38 111.47 128.90 112.32 129.73 112.52 C 130.57 112.73 131.42 112.21 131.62 111.38 L 131.87 110.37 C 132.07 109.53 131.56 108.68 130.72 108.48 C 129.88 108.28 129.04 108.79 128.83 109.63 Z M 128.59 110.63 L 128.35 111.60 C 128.14 112.44 128.65 113.28 129.48 113.49 C 130.32 113.70 131.17 113.19 131.38 112.35 L 131.62 111.38 C 131.83 110.55 131.32 109.70 130.48 109.49 C 129.64 109.28 128.80 109.79 128.59 110.63 Z M 128.35 111.59 L 128.10 112.56 C 127.89 113.39 128.39 114.24 129.23 114.46 C 130.06 114.67 130.91 114.17 131.13 113.33 L 131.37 112.36 C 131.59 111.53 131.08 110.68 130.25 110.46 C 129.41 110.25 128.56 110.75 128.35 111.59 Z M 128.10 112.55 L 127.85 113.53 C 127.63 114.37 128.12 115.22 128.96 115.44 C 129.79 115.66 130.65 115.16 130.86 114.33 L 131.12 113.34 C 131.34 112.51 130.85 111.65 130.01 111.43 C 129.18 111.21 128.32 111.71 128.10 112.55 Z M 127.85 113.53 L 127.60 114.45 C 127.38 115.29 127.87 116.14 128.70 116.36 C 129.54 116.59 130.39 116.09 130.62 115.26 L 130.86 114.33 C 131.09 113.50 130.59 112.64 129.76 112.42 C 128.92 112.20 128.07 112.69 127.85 113.53 Z M 127.60 114.46 L 127.35 115.39 C 127.13 116.22 127.63 117.07 128.46 117.29 C 129.30 117.51 130.15 117.02 130.37 116.18 L 130.62 115.25 C 130.84 114.42 130.34 113.57 129.51 113.35 C 128.67 113.13 127.82 113.62 127.60 114.46 Z M 127.35 115.40 L 127.10 116.38 C 126.88 117.22 127.39 118.07 128.22 118.28 C 129.06 118.50 129.91 117.99 130.12 117.16 L 130.37 116.17 C 130.59 115.34 130.08 114.49 129.25 114.27 C 128.41 114.06 127.56 114.56 127.35 115.40 Z M 127.09 116.40 L 126.87 117.29 C 126.67 118.13 127.18 118.97 128.02 119.18 C 128.86 119.38 129.70 118.87 129.91 118.04 L 130.13 117.14 C 130.33 116.31 129.82 115.46 128.98 115.25 C 128.15 115.05 127.30 115.56 127.09 116.40 Z M 126.87 117.30 L 126.64 118.25 C 126.44 119.09 126.96 119.94 127.80 120.14 C 128.64 120.34 129.48 119.82 129.68 118.98 L 129.91 118.03 C 130.11 117.19 129.59 116.34 128.75 116.14 C 127.91 115.94 127.07 116.46 126.87 117.30 Z M 126.64 118.26 L 126.41 119.26 C 126.21 120.10 126.74 120.94 127.58 121.13 C 128.42 121.33 129.26 120.81 129.45 119.97 L 129.68 118.97 C 129.88 118.13 129.36 117.29 128.52 117.10 C 127.68 116.90 126.84 117.42 126.64 118.26 Z M 126.41 119.26 L 126.18 120.28 C 125.98 121.12 126.51 121.96 127.35 122.15 C 128.19 122.34 129.03 121.82 129.22 120.98 L 129.45 119.96 C 129.65 119.12 129.12 118.28 128.28 118.09 C 127.44 117.90 126.60 118.42 126.41 119.26 Z M 126.18 120.28 L 125.95 121.30 C 125.76 122.14 126.28 122.97 127.13 123.16 C 127.97 123.35 128.80 122.82 128.99 121.98 L 129.22 120.97 C 129.41 120.13 128.88 119.29 128.04 119.10 C 127.20 118.91 126.37 119.44 126.18 120.28 Z M 125.95 121.30 L 125.71 122.34 C 125.53 123.18 126.06 124.02 126.90 124.21 C 127.74 124.39 128.57 123.86 128.76 123.02 L 128.99 121.98 C 129.18 121.14 128.65 120.30 127.81 120.12 C 126.97 119.93 126.13 120.46 125.95 121.30 Z M 125.71 122.35 L 125.49 123.37 C 125.30 124.22 125.84 125.05 126.68 125.23 C 127.52 125.42 128.35 124.88 128.54 124.04 L 128.76 123.02 C 128.95 122.17 128.41 121.34 127.57 121.16 C 126.73 120.97 125.90 121.51 125.71 122.35 Z M 125.49 123.38 L 125.28 124.37 C 125.10 125.22 125.63 126.04 126.48 126.22 C 127.32 126.40 128.15 125.86 128.33 125.02 L 128.54 124.03 C 128.72 123.19 128.18 122.36 127.34 122.18 C 126.49 122.00 125.67 122.54 125.49 123.38 Z M 125.27 124.38 L 125.08 125.33 C 124.91 126.18 125.45 127.00 126.30 127.18 C 127.14 127.35 127.97 126.80 128.14 125.96 L 128.33 125.01 C 128.50 124.16 127.96 123.34 127.12 123.17 C 126.27 122.99 125.45 123.54 125.27 124.38 Z M 125.08 125.35 L 124.90 126.26 C 124.74 127.11 125.29 127.93 126.14 128.09 C 126.98 128.25 127.80 127.70 127.97 126.85 L 128.14 125.94 C 128.31 125.10 127.75 124.28 126.90 124.11 C 126.06 123.95 125.24 124.50 125.08 125.35 Z M 124.90 126.28 L 124.72 127.29 C 124.57 128.14 125.13 128.95 125.98 129.10 C 126.83 129.26 127.64 128.69 127.79 127.84 L 127.97 126.83 C 128.12 125.98 127.56 125.17 126.71 125.02 C 125.86 124.87 125.05 125.44 124.90 126.28 Z M 124.71 127.32 L 124.55 128.32 C 124.42 129.17 125.00 129.97 125.85 130.11 C 126.70 130.24 127.50 129.66 127.64 128.81 L 127.80 127.81 C 127.93 126.96 127.35 126.16 126.50 126.03 C 125.65 125.89 124.85 126.47 124.71 127.32 Z M 124.55 128.35 L 124.41 129.33 C 124.30 130.18 124.89 130.97 125.75 131.09 C 126.60 131.20 127.39 130.61 127.51 129.75 L 127.64 128.78 C 127.76 127.93 127.16 127.14 126.31 127.02 C 125.45 126.90 124.67 127.50 124.55 128.35 Z M 124.41 129.36 L 124.30 130.32 C 124.20 131.18 124.81 131.95 125.67 132.05 C 126.52 132.15 127.30 131.54 127.40 130.68 L 127.51 129.72 C 127.61 128.86 127.00 128.09 126.14 127.99 C 125.29 127.89 124.51 128.50 124.41 129.36 Z M 124.29 130.35 L 124.19 131.46 C 124.10 132.32 124.73 133.08 125.59 133.17 C 126.45 133.25 127.21 132.62 127.29 131.76 L 127.40 130.65 C 127.48 129.79 126.86 129.03 126.00 128.95 C 125.14 128.87 124.38 129.49 124.29 130.35 Z M 124.18 131.49 L 124.10 132.61 C 124.03 133.47 124.68 134.22 125.54 134.28 C 126.39 134.35 127.15 133.71 127.21 132.85 L 127.30 131.73 C 127.36 130.87 126.72 130.12 125.86 130.06 C 125.00 129.99 124.25 130.63 124.18 131.49 Z M 124.10 132.64 L 124.04 133.58 C 123.99 134.44 124.65 135.18 125.51 135.23 C 126.37 135.28 127.11 134.63 127.16 133.77 L 127.21 132.82 C 127.26 131.96 126.61 131.22 125.75 131.17 C 124.89 131.12 124.15 131.78 124.10 132.64 Z M 124.04 133.66 L 124.03 134.71 C 124.02 135.57 124.71 136.28 125.57 136.28 C 126.44 136.29 127.14 135.60 127.15 134.74 L 127.16 133.69 C 127.17 132.83 126.48 132.12 125.62 132.11 C 124.75 132.10 124.05 132.80 124.04 133.66 Z M 124.23 135.49 L 124.30 135.61 C 124.72 136.37 125.67 136.63 126.43 136.21 C 127.18 135.79 127.44 134.83 127.02 134.08 L 126.95 133.96 C 126.53 133.21 125.57 132.94 124.82 133.36 C 124.07 133.79 123.81 134.74 124.23 135.49 Z"
      fill="black"
      fill-rule="nonzero" /><path d="M 183.06 75.73 L 182.58 76.62 C 182.17 77.38 182.46 78.33 183.22 78.73 C 183.98 79.14 184.93 78.85 185.33 78.09 L 185.81 77.20 C 186.22 76.44 185.93 75.49 185.17 75.09 C 184.41 74.68 183.46 74.97 183.06 75.73 Z M 182.57 76.65 L 182.11 77.54 C 181.72 78.31 182.02 79.25 182.79 79.64 C 183.56 80.03 184.50 79.73 184.89 78.96 L 185.35 78.07 C 185.74 77.30 185.43 76.36 184.67 75.96 C 183.90 75.57 182.96 75.88 182.57 76.65 Z M 182.08 77.60 L 181.67 78.50 C 181.30 79.28 181.65 80.21 182.43 80.57 C 183.21 80.93 184.14 80.59 184.50 79.81 L 184.92 78.91 C 185.28 78.12 184.94 77.20 184.16 76.83 C 183.37 76.47 182.44 76.81 182.08 77.60 Z M 181.63 78.58 L 181.27 79.50 C 180.96 80.30 181.35 81.21 182.15 81.52 C 182.96 81.84 183.86 81.44 184.18 80.64 L 184.54 79.72 C 184.85 78.92 184.46 78.01 183.65 77.70 C 182.85 77.38 181.94 77.78 181.63 78.58 Z M 181.24 79.60 L 180.94 80.54 C 180.68 81.36 181.13 82.24 181.95 82.50 C 182.77 82.76 183.65 82.31 183.91 81.49 L 184.21 80.54 C 184.47 79.72 184.02 78.84 183.20 78.58 C 182.37 78.32 181.50 78.78 181.24 79.60 Z M 180.91 80.62 L 180.66 81.59 C 180.45 82.42 180.95 83.27 181.78 83.49 C 182.62 83.71 183.47 83.21 183.69 82.37 L 183.94 81.41 C 184.15 80.57 183.65 79.72 182.82 79.50 C 181.98 79.29 181.13 79.79 180.91 80.62 Z M 180.65 81.64 L 180.43 82.63 C 180.24 83.47 180.78 84.31 181.62 84.49 C 182.46 84.68 183.29 84.15 183.48 83.31 L 183.70 82.32 C 183.88 81.47 183.35 80.64 182.51 80.45 C 181.67 80.27 180.84 80.80 180.65 81.64 Z M 180.42 82.66 L 180.24 83.56 C 180.07 84.40 180.62 85.23 181.47 85.40 C 182.31 85.57 183.13 85.02 183.30 84.17 L 183.49 83.28 C 183.66 82.43 183.11 81.61 182.26 81.44 C 181.42 81.27 180.59 81.82 180.42 82.66 Z M 180.24 83.57 L 180.06 84.51 C 179.90 85.35 180.45 86.17 181.30 86.33 C 182.14 86.50 182.96 85.94 183.13 85.10 L 183.31 84.16 C 183.47 83.32 182.92 82.50 182.07 82.33 C 181.22 82.17 180.40 82.72 180.24 83.57 Z M 180.06 84.51 L 179.87 85.51 C 179.71 86.35 180.26 87.17 181.11 87.33 C 181.95 87.50 182.77 86.94 182.93 86.10 L 183.13 85.10 C 183.29 84.25 182.74 83.43 181.89 83.27 C 181.04 83.11 180.22 83.66 180.06 84.51 Z M 179.87 85.50 L 179.65 86.58 C 179.49 87.43 180.04 88.25 180.88 88.42 C 181.73 88.58 182.55 88.04 182.72 87.19 L 182.93 86.10 C 183.10 85.26 182.55 84.44 181.70 84.27 C 180.86 84.10 180.04 84.65 179.87 85.50 Z M 179.66 86.57 L 179.46 87.54 C 179.28 88.38 179.83 89.21 180.67 89.38 C 181.51 89.56 182.34 89.01 182.51 88.17 L 182.72 87.20 C 182.89 86.36 182.35 85.53 181.50 85.36 C 180.66 85.18 179.83 85.73 179.66 86.57 Z M 179.46 87.53 L 179.25 88.53 C 179.07 89.37 179.60 90.20 180.45 90.38 C 181.29 90.56 182.12 90.02 182.30 89.18 L 182.51 88.18 C 182.69 87.34 182.15 86.51 181.31 86.33 C 180.47 86.15 179.64 86.69 179.46 87.53 Z M 179.25 88.52 L 179.03 89.53 C 178.85 90.37 179.38 91.20 180.22 91.38 C 181.07 91.57 181.90 91.03 182.08 90.19 L 182.30 89.18 C 182.48 88.34 181.95 87.51 181.11 87.33 C 180.26 87.14 179.43 87.68 179.25 88.52 Z M 179.03 89.52 L 178.81 90.51 C 178.63 91.35 179.16 92.18 180.00 92.37 C 180.84 92.56 181.68 92.02 181.86 91.18 L 182.08 90.19 C 182.26 89.35 181.73 88.52 180.89 88.33 C 180.05 88.15 179.22 88.68 179.03 89.52 Z M 178.81 90.51 L 178.60 91.45 C 178.42 92.29 178.95 93.12 179.79 93.31 C 180.63 93.50 181.47 92.97 181.65 92.12 L 181.86 91.18 C 182.05 90.34 181.52 89.51 180.68 89.32 C 179.83 89.13 179.00 89.67 178.81 90.51 Z M 178.60 91.45 L 178.37 92.50 C 178.18 93.34 178.71 94.18 179.55 94.36 C 180.40 94.55 181.23 94.02 181.42 93.18 L 181.65 92.12 C 181.84 91.28 181.31 90.45 180.47 90.26 C 179.63 90.07 178.79 90.61 178.60 91.45 Z M 178.37 92.50 L 178.15 93.47 C 177.97 94.32 178.50 95.15 179.34 95.34 C 180.18 95.53 181.01 95.00 181.20 94.15 L 181.42 93.18 C 181.61 92.34 181.08 91.50 180.23 91.32 C 179.39 91.13 178.56 91.66 178.37 92.50 Z M 178.15 93.47 L 177.94 94.41 C 177.76 95.25 178.28 96.08 179.13 96.27 C 179.97 96.46 180.80 95.93 180.99 95.09 L 181.20 94.16 C 181.39 93.31 180.86 92.48 180.02 92.29 C 179.18 92.10 178.34 92.63 178.15 93.47 Z M 177.94 94.40 L 177.73 95.34 C 177.54 96.18 178.07 97.02 178.91 97.21 C 179.75 97.40 180.59 96.87 180.78 96.03 L 180.99 95.09 C 181.18 94.25 180.65 93.42 179.81 93.23 C 178.97 93.04 178.13 93.56 177.94 94.40 Z M 177.73 95.34 L 177.51 96.30 C 177.32 97.14 177.85 97.98 178.69 98.17 C 179.53 98.36 180.37 97.84 180.56 97.00 L 180.78 96.03 C 180.97 95.19 180.44 94.35 179.60 94.16 C 178.76 93.97 177.92 94.50 177.73 95.34 Z M 177.51 96.30 L 177.29 97.29 C 177.10 98.13 177.62 98.97 178.46 99.16 C 179.30 99.35 180.14 98.82 180.33 97.98 L 180.56 97.00 C 180.75 96.16 180.23 95.32 179.38 95.13 C 178.54 94.94 177.71 95.46 177.51 96.30 Z M 177.29 97.29 L 177.06 98.27 C 176.87 99.11 177.39 99.95 178.23 100.14 C 179.07 100.34 179.91 99.81 180.11 98.97 L 180.33 97.99 C 180.53 97.15 180.00 96.31 179.16 96.11 C 178.32 95.92 177.48 96.45 177.29 97.29 Z M 177.06 98.27 L 176.84 99.24 C 176.65 100.08 177.17 100.91 178.01 101.11 C 178.85 101.30 179.69 100.78 179.88 99.94 L 180.11 98.97 C 180.30 98.13 179.78 97.29 178.94 97.10 C 178.10 96.91 177.26 97.43 177.06 98.27 Z M 176.84 99.23 L 176.61 100.23 C 176.41 101.07 176.94 101.90 177.78 102.10 C 178.62 102.30 179.46 101.77 179.65 100.93 L 179.88 99.94 C 180.08 99.10 179.55 98.26 178.71 98.07 C 177.87 97.87 177.04 98.39 176.84 99.23 Z M 176.61 100.22 L 176.38 101.18 C 176.18 102.02 176.70 102.86 177.54 103.06 C 178.38 103.26 179.22 102.74 179.42 101.90 L 179.65 100.94 C 179.85 100.10 179.33 99.26 178.49 99.06 C 177.65 98.86 176.81 99.38 176.61 100.22 Z M 176.39 101.17 L 176.15 102.13 C 175.95 102.97 176.46 103.82 177.30 104.02 C 178.14 104.22 178.98 103.71 179.18 102.87 L 179.42 101.91 C 179.62 101.08 179.11 100.23 178.27 100.03 C 177.43 99.82 176.59 100.34 176.39 101.17 Z M 176.15 102.12 L 175.91 103.08 C 175.70 103.92 176.21 104.77 177.04 104.98 C 177.88 105.19 178.73 104.68 178.94 103.85 L 179.18 102.89 C 179.39 102.05 178.89 101.20 178.05 100.99 C 177.22 100.78 176.37 101.28 176.15 102.12 Z M 175.92 103.07 L 175.66 104.02 C 175.44 104.86 175.94 105.71 176.78 105.93 C 177.61 106.15 178.46 105.65 178.68 104.82 L 178.93 103.86 C 179.15 103.03 178.66 102.17 177.82 101.95 C 176.99 101.73 176.13 102.23 175.92 103.07 Z M 175.67 104.01 L 175.40 104.98 C 175.18 105.81 175.67 106.67 176.50 106.90 C 177.33 107.12 178.19 106.63 178.42 105.80 L 178.68 104.83 C 178.91 104.00 178.41 103.14 177.58 102.91 C 176.75 102.69 175.89 103.18 175.67 104.01 Z M 175.41 104.97 L 175.14 105.95 C 174.91 106.78 175.39 107.64 176.23 107.87 C 177.06 108.10 177.92 107.61 178.15 106.78 L 178.42 105.81 C 178.65 104.97 178.16 104.11 177.33 103.88 C 176.50 103.65 175.64 104.14 175.41 104.97 Z M 175.14 105.94 L 174.86 106.92 C 174.63 107.75 175.12 108.61 175.95 108.84 C 176.78 109.08 177.64 108.59 177.87 107.76 L 178.14 106.79 C 178.38 105.96 177.89 105.09 177.06 104.86 C 176.23 104.63 175.37 105.11 175.14 105.94 Z M 174.86 106.92 L 174.59 107.89 C 174.36 108.72 174.84 109.58 175.67 109.82 C 176.50 110.05 177.36 109.57 177.59 108.74 L 177.87 107.77 C 178.10 106.94 177.62 106.07 176.79 105.84 C 175.96 105.60 175.10 106.09 174.86 106.92 Z M 174.59 107.89 L 174.32 108.86 C 174.08 109.69 174.57 110.55 175.40 110.78 C 176.23 111.02 177.09 110.53 177.32 109.70 L 177.59 108.74 C 177.83 107.91 177.35 107.05 176.52 106.81 C 175.69 106.58 174.82 107.06 174.59 107.89 Z M 174.32 108.86 L 174.05 109.81 C 173.82 110.64 174.30 111.50 175.14 111.73 C 175.97 111.96 176.83 111.48 177.06 110.65 L 177.32 109.70 C 177.56 108.87 177.07 108.01 176.24 107.78 C 175.41 107.54 174.55 108.03 174.32 108.86 Z M 174.05 109.82 L 173.80 110.73 C 173.57 111.56 174.06 112.42 174.89 112.64 C 175.72 112.87 176.58 112.38 176.81 111.55 L 177.06 110.64 C 177.29 109.81 176.80 108.95 175.97 108.72 C 175.14 108.50 174.28 108.98 174.05 109.82 Z M 173.80 110.74 L 173.56 111.64 C 173.33 112.47 173.83 113.33 174.66 113.55 C 175.49 113.77 176.35 113.28 176.57 112.45 L 176.81 111.54 C 177.04 110.71 176.54 109.85 175.71 109.63 C 174.88 109.41 174.02 109.90 173.80 110.74 Z M 173.55 111.65 L 173.31 112.60 C 173.09 113.44 173.59 114.29 174.42 114.51 C 175.26 114.72 176.11 114.22 176.33 113.39 L 176.57 112.44 C 176.79 111.60 176.29 110.75 175.46 110.53 C 174.62 110.32 173.77 110.82 173.55 111.65 Z M 173.30 112.61 L 173.04 113.65 C 172.83 114.49 173.33 115.34 174.17 115.55 C 175.01 115.76 175.86 115.25 176.07 114.42 L 176.33 113.38 C 176.54 112.54 176.03 111.69 175.20 111.48 C 174.36 111.27 173.51 111.78 173.30 112.61 Z M 173.04 113.66 L 172.79 114.64 C 172.59 115.48 173.10 116.33 173.94 116.53 C 174.77 116.74 175.62 116.23 175.83 115.39 L 176.07 114.41 C 176.28 113.57 175.76 112.72 174.93 112.52 C 174.09 112.31 173.24 112.82 173.04 113.66 Z M 172.79 114.65 L 172.56 115.61 C 172.36 116.45 172.88 117.29 173.71 117.50 C 174.55 117.70 175.40 117.18 175.60 116.34 L 175.83 115.38 C 176.03 114.55 175.51 113.70 174.68 113.50 C 173.84 113.30 172.99 113.82 172.79 114.65 Z M 172.56 115.62 L 172.33 116.62 C 172.13 117.46 172.65 118.30 173.49 118.49 C 174.33 118.69 175.17 118.17 175.37 117.33 L 175.60 116.33 C 175.80 115.49 175.27 114.65 174.43 114.46 C 173.59 114.26 172.75 114.78 172.56 115.62 Z M 172.32 116.63 L 172.10 117.64 C 171.91 118.48 172.44 119.32 173.28 119.51 C 174.13 119.69 174.96 119.16 175.15 118.32 L 175.37 117.31 C 175.56 116.47 175.03 115.64 174.19 115.45 C 173.34 115.26 172.51 115.79 172.32 116.63 Z M 172.10 117.66 L 171.89 118.65 C 171.71 119.50 172.25 120.32 173.10 120.50 C 173.94 120.68 174.77 120.14 174.94 119.29 L 175.15 118.30 C 175.33 117.46 174.79 116.63 173.94 116.45 C 173.10 116.28 172.27 116.82 172.10 117.66 Z M 171.88 118.68 L 171.69 119.68 C 171.53 120.53 172.09 121.34 172.93 121.50 C 173.78 121.67 174.60 121.11 174.76 120.26 L 174.95 119.26 C 175.11 118.42 174.56 117.60 173.71 117.44 C 172.86 117.28 172.04 117.83 171.88 118.68 Z M 171.69 119.72 L 171.52 120.72 C 171.38 121.57 171.96 122.38 172.81 122.52 C 173.66 122.66 174.46 122.08 174.60 121.23 L 174.77 120.22 C 174.91 119.37 174.33 118.57 173.48 118.43 C 172.63 118.29 171.83 118.87 171.69 119.72 Z M 171.51 120.77 L 171.38 121.74 C 171.27 122.59 171.87 123.38 172.72 123.49 C 173.58 123.61 174.36 123.01 174.48 122.16 L 174.61 121.18 C 174.72 120.33 174.12 119.54 173.27 119.43 C 172.41 119.31 171.63 119.91 171.51 120.77 Z M 171.38 121.79 L 171.28 122.76 C 171.19 123.61 171.81 124.38 172.67 124.47 C 173.53 124.56 174.29 123.93 174.38 123.08 L 174.48 122.11 C 174.57 121.25 173.95 120.48 173.09 120.39 C 172.23 120.31 171.46 120.93 171.38 121.79 Z M 171.27 122.80 L 171.20 123.80 C 171.14 124.66 171.79 125.40 172.65 125.47 C 173.51 125.53 174.25 124.88 174.31 124.02 L 174.39 123.03 C 174.45 122.17 173.80 121.42 172.94 121.36 C 172.08 121.30 171.33 121.94 171.27 122.80 Z M 171.20 123.84 L 171.15 124.79 C 171.11 125.65 171.78 126.38 172.64 126.42 C 173.50 126.46 174.23 125.79 174.27 124.93 L 174.32 123.98 C 174.36 123.12 173.69 122.39 172.83 122.35 C 171.97 122.31 171.24 122.97 171.20 123.84 Z M 171.15 124.82 L 171.13 125.79 C 171.10 126.65 171.78 127.37 172.64 127.39 C 173.50 127.42 174.22 126.74 174.25 125.88 L 174.27 124.90 C 174.30 124.04 173.62 123.32 172.76 123.30 C 171.90 123.27 171.18 123.95 171.15 124.82 Z M 171.13 125.81 L 171.11 126.82 C 171.10 127.68 171.79 128.39 172.65 128.40 C 173.51 128.41 174.22 127.72 174.23 126.86 L 174.25 125.86 C 174.26 124.99 173.57 124.29 172.71 124.27 C 171.85 124.26 171.14 124.95 171.13 125.81 Z M 171.11 126.83 L 171.10 127.85 C 171.10 128.72 171.79 129.42 172.66 129.42 C 173.52 129.43 174.22 128.73 174.23 127.87 L 174.23 126.85 C 174.24 125.99 173.54 125.28 172.68 125.28 C 171.82 125.27 171.12 125.97 171.11 126.83 Z M 171.10 127.86 L 171.10 128.90 C 171.10 129.76 171.80 130.46 172.66 130.46 C 173.52 130.46 174.22 129.76 174.23 128.90 L 174.23 127.86 C 174.23 127.00 173.53 126.30 172.67 126.30 C 171.81 126.30 171.11 127.00 171.10 127.86 Z M 171.10 128.90 L 171.10 129.17 C 171.10 130.04 171.80 130.73 172.66 130.73 C 173.53 130.73 174.23 130.04 174.23 129.17 L 174.23 128.90 C 174.23 128.04 173.53 127.34 172.66 127.34 C 171.80 127.34 171.10 128.04 171.10 128.90 Z"
      fill="black"
      fill-rule="nonzero" /></svg>