<svg xmlns="http://www.w3.org/2000/svg" width="300" height="300" viewBox="0 0 300 300">
<path d="M 103.28 180.59 L 103.82 181.43 C 104.28 182.15 105.25 182.37 105.98 181.90 C 106.70 181.44 106.92 180.47 106.45 179.75 L 105.91 178.91 C 105.45 178.18 104.48 177.97 103.76 178.43 C 103.03 178.89 102.82 179.86 103.28 180.59 Z M 103.90 181.55 L 104.51 182.33 C 105.04 183.01 106.02 183.13 106.70 182.60 C 107.38 182.07 107.50 181.09 106.97 180.41 L 106.37 179.63 C 105.84 178.95 104.86 178.83 104.18 179.35 C 103.50 179.88 103.37 180.86 103.90 181.55 Z M 104.71 182.54 L 105.46 183.20 C 106.10 183.77 107.09 183.70 107.66 183.06 C 108.23 182.41 108.17 181.43 107.52 180.85 L 106.78 180.20 C 106.13 179.63 105.14 179.69 104.57 180.33 C 104.00 180.98 104.06 181.97 104.71 182.54 Z M 105.76 183.41 L 106.60 183.85 C 107.36 184.25 108.31 183.96 108.71 183.19 C 109.11 182.43 108.82 181.49 108.05 181.08 L 107.21 180.64 C 106.45 180.24 105.51 180.54 105.11 181.30 C 104.71 182.06 105.00 183.01 105.76 183.41 Z M 106.86 183.96 L 107.79 184.25 C 108.62 184.51 109.49 184.05 109.75 183.22 C 110.01 182.40 109.55 181.53 108.73 181.27 L 107.79 180.98 C 106.97 180.72 106.09 181.18 105.84 182.00 C 105.58 182.82 106.04 183.70 106.86 183.96 Z M 107.97 184.29 L 108.98 184.48 C 109.83 184.64 110.65 184.09 110.81 183.24 C 110.97 182.39 110.41 181.58 109.56 181.42 L 108.55 181.22 C 107.70 181.06 106.89 181.62 106.73 182.47 C 106.57 183.31 107.12 184.13 107.97 184.29 Z M 109.10 184.50 L 110.13 184.62 C 110.99 184.72 111.76 184.10 111.86 183.24 C 111.96 182.39 111.34 181.61 110.48 181.52 L 109.45 181.40 C 108.59 181.30 107.82 181.92 107.72 182.77 C 107.62 183.63 108.24 184.40 109.10 184.50 Z M 110.21 184.63 L 111.19 184.69 C 112.05 184.74 112.80 184.09 112.85 183.23 C 112.91 182.37 112.25 181.63 111.39 181.57 L 110.41 181.51 C 109.55 181.45 108.81 182.11 108.75 182.97 C 108.69 183.83 109.35 184.57 110.21 184.63 Z M 111.27 184.69 L 112.25 184.70 C 113.11 184.71 113.82 184.02 113.83 183.16 C 113.84 182.30 113.15 181.59 112.29 181.58 L 111.31 181.57 C 110.45 181.56 109.74 182.25 109.73 183.11 C 109.72 183.97 110.41 184.68 111.27 184.69 Z M 112.35 184.70 L 113.34 184.65 C 114.20 184.61 114.87 183.88 114.82 183.02 C 114.78 182.16 114.05 181.49 113.19 181.54 L 112.20 181.58 C 111.33 181.63 110.67 182.36 110.71 183.22 C 110.75 184.08 111.48 184.74 112.35 184.70 Z M 113.44 184.65 L 114.47 184.53 C 115.33 184.43 115.95 183.66 115.85 182.80 C 115.75 181.95 114.98 181.33 114.12 181.43 L 113.09 181.54 C 112.23 181.64 111.62 182.41 111.71 183.27 C 111.81 184.13 112.58 184.74 113.44 184.65 Z M 114.56 184.52 L 115.55 184.35 C 116.40 184.20 116.97 183.40 116.83 182.55 C 116.68 181.70 115.87 181.13 115.02 181.27 L 114.04 181.44 C 113.19 181.59 112.61 182.39 112.76 183.24 C 112.91 184.09 113.71 184.66 114.56 184.52 Z M 115.61 184.34 L 116.62 184.12 C 117.46 183.94 118.00 183.11 117.82 182.27 C 117.64 181.43 116.81 180.89 115.97 181.07 L 114.96 181.28 C 114.12 181.46 113.58 182.29 113.76 183.13 C 113.94 183.98 114.77 184.52 115.61 184.34 Z M 116.66 184.11 L 117.65 183.87 C 118.49 183.67 119.00 182.82 118.80 181.98 C 118.59 181.15 117.75 180.63 116.91 180.84 L 115.92 181.08 C 115.08 181.28 114.57 182.13 114.78 182.97 C 114.98 183.80 115.82 184.32 116.66 184.11 Z M 117.68 183.86 L 118.62 183.61 C 119.46 183.39 119.95 182.54 119.73 181.70 C 119.51 180.87 118.65 180.37 117.82 180.60 L 116.88 180.85 C 116.05 181.07 115.55 181.92 115.77 182.76 C 115.99 183.59 116.85 184.08 117.68 183.86 Z M 118.64 183.61 L 119.59 183.34 C 120.42 183.11 120.90 182.25 120.67 181.42 C 120.43 180.59 119.57 180.10 118.74 180.34 L 117.80 180.60 C 116.97 180.83 116.49 181.70 116.72 182.53 C 116.95 183.36 117.81 183.84 118.64 183.61 Z M 119.59 183.34 L 120.50 183.08 C 121.33 182.85 121.82 181.99 121.58 181.16 C 121.35 180.33 120.49 179.85 119.66 180.08 L 118.74 180.34 C 117.91 180.57 117.43 181.43 117.66 182.26 C 117.89 183.09 118.76 183.58 119.59 183.34 Z M 120.47 183.09 L 121.41 182.85 C 122.24 182.63 122.75 181.78 122.53 180.95 C 122.31 180.11 121.46 179.61 120.63 179.83 L 119.69 180.07 C 118.86 180.29 118.35 181.14 118.57 181.97 C 118.79 182.81 119.64 183.31 120.47 183.09 Z M 121.36 182.86 L 122.40 182.63 C 123.24 182.45 123.77 181.61 123.58 180.77 C 123.40 179.93 122.56 179.40 121.72 179.58 L 120.68 179.82 C 119.84 180.00 119.31 180.84 119.49 181.68 C 119.68 182.52 120.51 183.05 121.36 182.86 Z M 122.35 182.64 L 123.28 182.47 C 124.13 182.31 124.69 181.50 124.53 180.65 C 124.37 179.80 123.56 179.24 122.71 179.40 L 121.77 179.57 C 120.93 179.73 120.37 180.55 120.52 181.39 C 120.68 182.24 121.50 182.80 122.35 182.64 Z M 123.25 182.47 L 124.24 182.31 C 125.09 182.17 125.67 181.37 125.53 180.52 C 125.39 179.67 124.59 179.09 123.74 179.23 L 122.74 179.39 C 121.89 179.53 121.32 180.33 121.45 181.19 C 121.59 182.04 122.40 182.61 123.25 182.47 Z M 124.21 182.32 L 125.24 182.17 C 126.09 182.04 126.68 181.25 126.56 180.39 C 126.43 179.54 125.64 178.95 124.79 179.08 L 123.76 179.23 C 122.91 179.35 122.32 180.15 122.44 181.00 C 122.57 181.85 123.36 182.44 124.21 182.32 Z M 125.22 182.17 L 126.24 182.03 C 127.10 181.92 127.70 181.13 127.59 180.28 C 127.47 179.42 126.69 178.82 125.83 178.94 L 124.81 179.07 C 123.95 179.19 123.35 179.97 123.47 180.83 C 123.58 181.68 124.37 182.28 125.22 182.17 Z M 126.23 182.03 L 127.20 181.92 C 128.06 181.81 128.67 181.03 128.56 180.18 C 128.46 179.32 127.68 178.71 126.83 178.82 L 125.85 178.93 C 124.99 179.04 124.38 179.82 124.49 180.67 C 124.59 181.53 125.37 182.14 126.23 182.03 Z M 127.18 181.92 L 128.32 181.80 C 129.17 181.70 129.79 180.93 129.70 180.08 C 129.61 179.22 128.84 178.60 127.98 178.69 L 126.85 178.81 C 125.99 178.91 125.37 179.68 125.46 180.53 C 125.56 181.39 126.33 182.01 127.18 181.92 Z M 128.29 181.80 L 129.31 181.70 C 130.17 181.62 130.80 180.86 130.72 180.00 C 130.64 179.15 129.88 178.51 129.02 178.59 L 128.00 178.69 C 127.15 178.77 126.51 179.53 126.59 180.39 C 126.67 181.25 127.43 181.88 128.29 181.80 Z M 129.29 181.70 L 130.22 181.63 C 131.08 181.57 131.73 180.81 131.66 179.95 C 131.59 179.09 130.84 178.45 129.98 178.52 L 129.05 178.59 C 128.19 178.66 127.55 179.41 127.61 180.27 C 127.68 181.13 128.43 181.77 129.29 181.70 Z M 130.20 181.63 L 131.11 181.57 C 131.97 181.52 132.62 180.78 132.56 179.92 C 132.51 179.05 131.76 178.40 130.90 178.46 L 130.00 178.52 C 129.14 178.57 128.49 179.32 128.54 180.18 C 128.60 181.04 129.34 181.69 130.20 181.63 Z M 131.09 181.58 L 132.12 181.52 C 132.98 181.47 133.64 180.74 133.59 179.88 C 133.54 179.02 132.81 178.36 131.95 178.40 L 130.92 178.46 C 130.06 178.50 129.40 179.24 129.45 180.10 C 129.49 180.96 130.23 181.62 131.09 181.58 Z M 132.10 181.52 L 133.09 181.48 C 133.95 181.45 134.62 180.72 134.58 179.86 C 134.55 179.00 133.82 178.33 132.96 178.36 L 131.97 178.40 C 131.11 178.44 130.44 179.16 130.47 180.03 C 130.51 180.89 131.23 181.56 132.10 181.52 Z M 133.07 181.48 L 134.04 181.45 C 134.90 181.43 135.58 180.71 135.56 179.85 C 135.53 178.99 134.81 178.31 133.95 178.33 L 132.98 178.36 C 132.12 178.38 131.44 179.10 131.46 179.96 C 131.49 180.83 132.20 181.51 133.07 181.48 Z M 134.02 181.46 L 134.91 181.44 C 135.77 181.43 136.46 180.72 136.45 179.86 C 136.43 178.99 135.72 178.31 134.86 178.32 L 133.97 178.33 C 133.11 178.35 132.42 179.06 132.43 179.92 C 132.45 180.78 133.16 181.47 134.02 181.46 Z M 134.90 181.44 L 135.84 181.44 C 136.71 181.43 137.40 180.73 137.40 179.86 C 137.39 179.00 136.69 178.31 135.82 178.31 L 134.88 178.32 C 134.01 178.32 133.32 179.03 133.32 179.89 C 133.33 180.75 134.03 181.45 134.90 181.44 Z M 135.84 181.44 L 136.91 181.43 C 137.77 181.43 138.47 180.73 138.47 179.87 C 138.46 179.01 137.77 178.31 136.90 178.31 L 135.83 178.31 C 134.97 178.31 134.27 179.01 134.27 179.88 C 134.27 180.74 134.97 181.44 135.84 181.44 Z M 136.90 181.43 L 137.92 181.43 C 138.79 181.43 139.48 180.74 139.48 179.87 C 139.48 179.01 138.79 178.31 137.92 178.31 L 136.91 178.31 C 136.04 178.31 135.34 179.01 135.34 179.87 C 135.34 180.73 136.04 181.43 136.90 181.43 Z M 137.92 181.43 L 138.85 181.44 C 139.71 181.44 140.41 180.75 140.42 179.89 C 140.42 179.02 139.72 178.32 138.86 178.32 L 137.93 178.31 C 137.07 178.31 136.37 179.00 136.36 179.87 C 136.36 180.73 137.05 181.43 137.92 181.43 Z M 138.83 181.44 L 139.82 181.46 C 140.69 181.47 141.40 180.78 141.41 179.92 C 141.43 179.06 140.74 178.35 139.88 178.33 L 138.88 178.32 C 138.02 178.30 137.31 178.99 137.29 179.85 C 137.28 180.71 137.97 181.42 138.83 181.44 Z M 139.79 181.46 L 140.83 181.49 C 141.70 181.52 142.42 180.85 142.45 179.99 C 142.48 179.13 141.81 178.40 140.95 178.37 L 139.91 178.33 C 139.05 178.30 138.32 178.98 138.29 179.84 C 138.26 180.70 138.93 181.42 139.79 181.46 Z M 140.79 181.49 L 141.86 181.56 C 142.72 181.61 143.46 180.96 143.51 180.09 C 143.56 179.23 142.91 178.49 142.05 178.44 L 140.99 178.37 C 140.13 178.32 139.39 178.98 139.33 179.84 C 139.28 180.70 139.93 181.44 140.79 181.49 Z M 141.80 181.55 L 142.85 181.65 C 143.71 181.73 144.47 181.11 144.55 180.25 C 144.63 179.39 144.00 178.63 143.15 178.54 L 142.10 178.44 C 141.24 178.36 140.48 178.99 140.40 179.85 C 140.32 180.71 140.95 181.47 141.80 181.55 Z M 142.79 181.65 L 143.80 181.78 C 144.66 181.89 145.44 181.29 145.55 180.43 C 145.67 179.58 145.06 178.80 144.21 178.68 L 143.20 178.55 C 142.35 178.44 141.56 179.04 141.45 179.89 C 141.34 180.75 141.94 181.53 142.79 181.65 Z M 143.76 181.77 L 144.75 181.93 C 145.60 182.07 146.41 181.49 146.54 180.64 C 146.68 179.79 146.10 178.99 145.25 178.85 L 144.25 178.69 C 143.40 178.55 142.60 179.13 142.46 179.98 C 142.33 180.83 142.91 181.63 143.76 181.77 Z M 144.72 181.93 L 145.70 182.11 C 146.55 182.27 147.36 181.71 147.52 180.86 C 147.68 180.01 147.12 179.20 146.27 179.04 L 145.29 178.86 C 144.44 178.70 143.62 179.26 143.47 180.11 C 143.31 180.95 143.87 181.77 144.72 181.93 Z M 145.67 182.10 L 146.64 182.30 C 147.48 182.48 148.31 181.93 148.48 181.09 C 148.65 180.24 148.11 179.42 147.27 179.24 L 146.30 179.05 C 145.45 178.87 144.63 179.42 144.45 180.26 C 144.28 181.11 144.83 181.93 145.67 182.10 Z M 146.62 182.30 L 147.58 182.51 C 148.42 182.69 149.25 182.16 149.43 181.32 C 149.62 180.47 149.08 179.64 148.24 179.46 L 147.28 179.25 C 146.44 179.06 145.61 179.60 145.43 180.44 C 145.24 181.28 145.78 182.11 146.62 182.30 Z M 147.56 182.51 L 148.56 182.73 C 149.41 182.92 150.24 182.39 150.43 181.55 C 150.62 180.71 150.09 179.88 149.25 179.69 L 148.25 179.46 C 147.41 179.27 146.58 179.80 146.39 180.64 C 146.20 181.48 146.72 182.32 147.56 182.51 Z M 148.56 182.73 L 149.55 182.96 C 150.39 183.15 151.22 182.62 151.42 181.78 C 151.61 180.94 151.08 180.10 150.24 179.91 L 149.26 179.69 C 148.41 179.50 147.58 180.02 147.39 180.86 C 147.20 181.70 147.72 182.54 148.56 182.73 Z M 149.56 182.96 L 150.53 183.17 C 151.37 183.36 152.20 182.83 152.39 181.99 C 152.58 181.14 152.04 180.31 151.20 180.12 L 150.23 179.91 C 149.39 179.72 148.56 180.25 148.37 181.10 C 148.18 181.94 148.71 182.77 149.56 182.96 Z M 150.55 183.18 L 151.51 183.38 C 152.36 183.55 153.18 183.01 153.36 182.17 C 153.53 181.32 152.99 180.50 152.15 180.32 L 151.18 180.12 C 150.34 179.94 149.51 180.49 149.34 181.33 C 149.16 182.17 149.70 183.00 150.55 183.18 Z M 151.54 183.38 L 152.50 183.56 C 153.35 183.72 154.17 183.17 154.33 182.32 C 154.48 181.47 153.93 180.65 153.08 180.50 L 152.12 180.31 C 151.27 180.16 150.45 180.71 150.29 181.56 C 150.14 182.41 150.69 183.22 151.54 183.38 Z M 152.54 183.57 L 153.51 183.73 C 154.36 183.86 155.16 183.29 155.30 182.43 C 155.44 181.58 154.86 180.78 154.01 180.64 L 153.04 180.49 C 152.19 180.35 151.39 180.93 151.25 181.78 C 151.11 182.63 151.69 183.43 152.54 183.57 Z M 153.55 183.73 L 154.53 183.86 C 155.38 183.98 156.17 183.38 156.28 182.53 C 156.40 181.67 155.80 180.88 154.94 180.77 L 153.97 180.64 C 153.11 180.52 152.33 181.12 152.21 181.98 C 152.10 182.83 152.70 183.62 153.55 183.73 Z M 154.57 183.87 L 155.56 183.98 C 156.41 184.07 157.18 183.45 157.28 182.59 C 157.37 181.73 156.75 180.96 155.89 180.87 L 154.90 180.76 C 154.04 180.67 153.27 181.29 153.18 182.15 C 153.09 183.01 153.71 183.78 154.57 183.87 Z M 155.59 183.98 L 156.60 184.06 C 157.46 184.13 158.22 183.50 158.29 182.64 C 158.36 181.78 157.72 181.02 156.86 180.95 L 155.85 180.87 C 154.99 180.80 154.24 181.44 154.17 182.30 C 154.10 183.15 154.74 183.91 155.59 183.98 Z M 156.64 184.07 L 157.66 184.13 C 158.52 184.18 159.26 183.52 159.31 182.66 C 159.36 181.80 158.70 181.06 157.84 181.01 L 156.82 180.95 C 155.96 180.90 155.23 181.55 155.17 182.42 C 155.12 183.28 155.78 184.02 156.64 184.07 Z M 157.69 184.13 L 158.65 184.16 C 159.51 184.20 160.24 183.53 160.27 182.66 C 160.30 181.80 159.63 181.08 158.77 181.04 L 157.81 181.01 C 156.95 180.97 156.22 181.65 156.19 182.51 C 156.16 183.37 156.83 184.09 157.69 184.13 Z M 158.68 184.16 L 159.66 184.19 C 160.52 184.20 161.24 183.52 161.26 182.66 C 161.27 181.80 160.59 181.08 159.73 181.06 L 158.74 181.04 C 157.88 181.02 157.17 181.71 157.15 182.57 C 157.13 183.43 157.82 184.15 158.68 184.16 Z M 159.68 184.19 L 160.69 184.19 C 161.55 184.20 162.25 183.51 162.26 182.64 C 162.27 181.78 161.57 181.08 160.71 181.07 L 159.71 181.06 C 158.84 181.06 158.14 181.75 158.13 182.61 C 158.13 183.48 158.82 184.18 159.68 184.19 Z M 160.71 184.19 L 161.72 184.19 C 162.59 184.18 163.28 183.48 163.28 182.62 C 163.27 181.76 162.57 181.06 161.71 181.07 L 160.69 181.07 C 159.83 181.08 159.13 181.78 159.14 182.64 C 159.14 183.50 159.84 184.20 160.71 184.19 Z M 161.74 184.19 L 162.77 184.17 C 163.63 184.16 164.32 183.45 164.31 182.59 C 164.30 181.73 163.59 181.04 162.72 181.05 L 161.69 181.07 C 160.83 181.08 160.14 181.79 160.16 182.65 C 160.17 183.51 160.88 184.20 161.74 184.19 Z M 162.79 184.17 L 163.85 184.15 C 164.71 184.13 165.39 183.41 165.37 182.55 C 165.35 181.69 164.63 181.00 163.77 181.02 L 162.71 181.05 C 161.85 181.07 161.17 181.79 161.19 182.65 C 161.21 183.51 161.92 184.19 162.79 184.17 Z M 163.86 184.15 L 164.93 184.11 C 165.79 184.08 166.46 183.36 166.44 182.50 C 166.41 181.64 165.69 180.96 164.82 180.99 L 163.76 181.03 C 162.90 181.05 162.22 181.78 162.25 182.64 C 162.28 183.50 163.00 184.17 163.86 184.15 Z M 164.95 184.11 L 165.98 184.06 C 166.85 184.03 167.51 183.30 167.48 182.43 C 167.44 181.57 166.71 180.91 165.85 180.94 L 164.81 180.99 C 163.95 181.03 163.28 181.76 163.32 182.62 C 163.35 183.48 164.08 184.15 164.95 184.11 Z M 166.01 184.06 L 167.00 184.00 C 167.86 183.95 168.52 183.22 168.47 182.36 C 168.42 181.49 167.68 180.84 166.82 180.89 L 165.82 180.95 C 164.96 181.00 164.31 181.73 164.36 182.59 C 164.41 183.46 165.15 184.11 166.01 184.06 Z M 167.03 184.00 L 167.96 183.93 C 168.82 183.87 169.46 183.12 169.39 182.26 C 169.33 181.40 168.58 180.75 167.72 180.82 L 166.79 180.89 C 165.93 180.95 165.29 181.70 165.35 182.56 C 165.42 183.42 166.17 184.07 167.03 184.00 Z M 168.00 183.93 L 168.95 183.83 C 169.81 183.74 170.43 182.98 170.35 182.12 C 170.26 181.26 169.49 180.64 168.64 180.72 L 167.68 180.82 C 166.82 180.91 166.20 181.68 166.28 182.53 C 166.37 183.39 167.14 184.02 168.00 183.93 Z M 169.02 183.82 L 170.03 183.68 C 170.89 183.55 171.48 182.76 171.36 181.91 C 171.23 181.06 170.44 180.46 169.59 180.59 L 168.57 180.73 C 167.72 180.85 167.13 181.65 167.25 182.50 C 167.37 183.35 168.16 183.95 169.02 183.82 Z M 170.11 183.66 L 171.04 183.48 C 171.89 183.32 172.44 182.50 172.28 181.65 C 172.11 180.81 171.29 180.25 170.45 180.42 L 169.51 180.60 C 168.67 180.76 168.11 181.58 168.28 182.43 C 168.44 183.28 169.26 183.83 170.11 183.66 Z M 171.11 183.47 L 172.05 183.24 C 172.89 183.04 173.40 182.20 173.20 181.36 C 173.00 180.52 172.16 180.00 171.32 180.21 L 170.38 180.43 C 169.54 180.63 169.03 181.48 169.23 182.31 C 169.43 183.15 170.27 183.67 171.11 183.47 Z M 172.09 183.23 L 173.02 182.98 C 173.86 182.75 174.35 181.90 174.12 181.06 C 173.90 180.23 173.04 179.74 172.21 179.96 L 171.28 180.22 C 170.44 180.44 169.95 181.30 170.18 182.13 C 170.40 182.96 171.26 183.46 172.09 183.23 Z M 173.05 182.97 L 173.98 182.71 C 174.81 182.47 175.29 181.60 175.05 180.78 C 174.82 179.95 173.95 179.47 173.12 179.70 L 172.19 179.97 C 171.36 180.21 170.88 181.07 171.12 181.90 C 171.35 182.73 172.22 183.21 173.05 182.97 Z M 174.00 182.70 L 174.97 182.41 C 175.80 182.17 176.27 181.30 176.03 180.47 C 175.78 179.65 174.92 179.17 174.09 179.42 L 173.11 179.71 C 172.28 179.95 171.81 180.82 172.06 181.65 C 172.30 182.47 173.17 182.95 174.00 182.70 Z M 174.98 182.41 L 175.97 182.11 C 176.80 181.86 177.26 180.99 177.01 180.16 C 176.76 179.34 175.89 178.87 175.07 179.12 L 174.08 179.42 C 173.25 179.67 172.79 180.54 173.04 181.37 C 173.29 182.19 174.16 182.66 174.98 182.41 Z M 175.98 182.11 L 176.95 181.81 C 177.77 181.56 178.24 180.68 177.99 179.86 C 177.73 179.04 176.86 178.57 176.04 178.83 L 175.06 179.12 C 174.24 179.38 173.77 180.25 174.03 181.07 C 174.28 181.90 175.15 182.36 175.98 182.11 Z M 176.95 181.81 L 177.98 181.49 C 178.80 181.24 179.27 180.37 179.01 179.54 C 178.76 178.72 177.88 178.26 177.06 178.51 L 176.03 178.83 C 175.21 179.08 174.75 179.95 175.00 180.78 C 175.26 181.60 176.13 182.06 176.95 181.81 Z M 177.98 181.49 L 178.96 181.19 C 179.78 180.94 180.24 180.07 179.99 179.24 C 179.74 178.42 178.86 177.96 178.04 178.21 L 177.06 178.51 C 176.24 178.76 175.78 179.63 176.03 180.46 C 176.28 181.28 177.15 181.75 177.98 181.49 Z M 178.95 181.20 L 179.88 180.92 C 180.71 180.67 181.17 179.80 180.93 178.97 C 180.68 178.15 179.81 177.68 178.98 177.93 L 178.05 178.21 C 177.22 178.45 176.75 179.33 177.00 180.15 C 177.25 180.98 178.12 181.45 178.95 181.20 Z M 179.87 180.92 L 180.76 180.66 C 181.59 180.42 182.07 179.56 181.83 178.73 C 181.59 177.90 180.72 177.42 179.89 177.66 L 179.00 177.92 C 178.17 178.16 177.69 179.03 177.93 179.86 C 178.17 180.68 179.04 181.16 179.87 180.92 Z M 180.74 180.67 L 181.53 180.45 C 182.37 180.22 182.86 179.36 182.63 178.53 C 182.40 177.70 181.54 177.21 180.71 177.44 L 179.91 177.66 C 179.08 177.88 178.59 178.74 178.82 179.57 C 179.05 180.41 179.91 180.90 180.74 180.67 Z M 181.50 180.46 L 182.33 180.25 C 183.17 180.05 183.68 179.20 183.47 178.36 C 183.26 177.53 182.42 177.01 181.58 177.22 L 180.75 177.43 C 179.91 177.64 179.40 178.48 179.61 179.32 C 179.81 180.16 180.66 180.67 181.50 180.46 Z M 182.29 180.26 L 183.24 180.06 C 184.08 179.87 184.61 179.04 184.43 178.20 C 184.24 177.36 183.41 176.82 182.57 177.01 L 181.62 177.21 C 180.78 177.40 180.25 178.23 180.43 179.07 C 180.61 179.91 181.45 180.45 182.29 180.26 Z M 183.20 180.06 L 184.33 179.85 C 185.17 179.69 185.73 178.87 185.57 178.02 C 185.40 177.17 184.58 176.62 183.74 176.78 L 182.61 177.00 C 181.76 177.16 181.21 177.98 181.37 178.82 C 181.53 179.67 182.35 180.23 183.20 180.06 Z M 184.30 179.85 L 185.38 179.67 C 186.23 179.52 186.80 178.71 186.65 177.86 C 186.50 177.01 185.70 176.44 184.85 176.59 L 183.77 176.78 C 182.92 176.92 182.35 177.73 182.49 178.58 C 182.64 179.43 183.45 180.00 184.30 179.85 Z M 185.36 179.67 L 186.19 179.54 C 187.04 179.40 187.62 178.60 187.48 177.74 C 187.34 176.89 186.54 176.32 185.69 176.45 L 184.86 176.59 C 184.01 176.72 183.43 177.53 183.57 178.38 C 183.71 179.23 184.51 179.81 185.36 179.67 Z M 186.18 179.54 L 187.07 179.40 C 187.93 179.26 188.51 178.47 188.38 177.61 C 188.24 176.76 187.45 176.18 186.59 176.31 L 185.70 176.45 C 184.85 176.58 184.26 177.38 184.40 178.23 C 184.53 179.09 185.33 179.67 186.18 179.54 Z M 187.07 179.40 L 188.03 179.25 C 188.88 179.12 189.46 178.33 189.33 177.48 C 189.21 176.62 188.41 176.04 187.56 176.17 L 186.60 176.31 C 185.75 176.44 185.16 177.24 185.29 178.09 C 185.42 178.94 186.22 179.53 187.07 179.40 Z M 188.02 179.25 L 189.03 179.10 C 189.88 178.98 190.47 178.18 190.34 177.33 C 190.22 176.48 189.42 175.89 188.57 176.02 L 187.56 176.17 C 186.71 176.29 186.12 177.09 186.25 177.94 C 186.37 178.79 187.17 179.38 188.02 179.25 Z M 189.02 179.11 L 190.07 178.95 C 190.92 178.83 191.51 178.04 191.39 177.18 C 191.27 176.33 190.47 175.74 189.62 175.86 L 188.57 176.02 C 187.72 176.14 187.13 176.93 187.25 177.79 C 187.38 178.64 188.17 179.23 189.02 179.11 Z M 190.07 178.95 L 191.15 178.80 C 192.00 178.67 192.59 177.88 192.47 177.03 C 192.34 176.18 191.55 175.58 190.70 175.71 L 189.62 175.86 C 188.77 175.99 188.18 176.78 188.30 177.63 C 188.42 178.48 189.21 179.08 190.07 178.95 Z M 191.14 178.80 L 192.24 178.64 C 193.09 178.52 193.69 177.73 193.56 176.87 C 193.44 176.02 192.65 175.43 191.80 175.55 L 190.70 175.71 C 189.85 175.83 189.25 176.62 189.38 177.47 C 189.50 178.33 190.29 178.92 191.14 178.80 Z M 192.24 178.64 L 193.29 178.49 C 194.14 178.37 194.74 177.58 194.62 176.73 C 194.49 175.87 193.70 175.28 192.85 175.40 L 191.80 175.55 C 190.95 175.67 190.35 176.46 190.47 177.32 C 190.60 178.17 191.39 178.76 192.24 178.64 Z"
      fill="black"
      fill-rule="nonzero" /></svg>