<svg xmlns="http://www.w3.org/2000/svg" width="300" height="300" viewBox="0 0 300 300">
<path d="M 110.87 121.21 L 110.31 122.43 C 109.95 123.21 110.29 124.14 111.07 124.50 C 111.85 124.86 112.78 124.52 113.14 123.74 L 113.70 122.52 C 114.07 121.74 113.72 120.81 112.94 120.45 C 112.16 120.09 111.23 120.43 110.87 121.21 Z M 110.34 122.36 L 109.84 123.32 C 109.44 124.08 109.74 125.03 110.50 125.43 C 111.27 125.82 112.21 125.53 112.61 124.76 L 113.11 123.80 C 113.51 123.04 113.21 122.10 112.45 121.70 C 111.68 121.30 110.74 121.60 110.34 122.36 Z M 110.03 123.04 L 109.65 123.49 C 109.10 124.15 109.18 125.14 109.84 125.69 C 110.51 126.24 111.49 126.16 112.04 125.50 L 112.42 125.04 C 112.98 124.38 112.89 123.40 112.23 122.84 C 111.57 122.29 110.58 122.38 110.03 123.04 Z M 112.21 123.74 L 111.99 123.33 C 111.57 122.58 110.62 122.30 109.87 122.72 C 109.11 123.14 108.84 124.09 109.26 124.84 L 109.48 125.25 C 109.90 126.00 110.85 126.28 111.60 125.86 C 112.36 125.44 112.63 124.49 112.21 123.74 Z M 112.18 124.22 L 112.28 123.06 C 112.35 122.20 111.72 121.44 110.86 121.37 C 110.00 121.30 109.24 121.93 109.17 122.79 L 109.07 123.95 C 108.99 124.81 109.63 125.57 110.49 125.64 C 111.35 125.72 112.10 125.08 112.18 124.22 Z M 112.22 123.37 L 112.54 122.31 C 112.79 121.48 112.32 120.61 111.49 120.36 C 110.67 120.12 109.80 120.58 109.55 121.41 L 109.23 122.48 C 108.98 123.30 109.45 124.17 110.27 124.42 C 111.10 124.67 111.97 124.20 112.22 123.37 Z M 112.45 122.54 L 112.85 121.70 C 113.23 120.92 112.90 119.99 112.12 119.62 C 111.35 119.24 110.41 119.57 110.04 120.35 L 109.64 121.18 C 109.26 121.96 109.59 122.89 110.37 123.27 C 111.14 123.64 112.08 123.31 112.45 122.54 Z M 112.78 121.84 L 113.30 120.99 C 113.75 120.26 113.52 119.29 112.79 118.84 C 112.05 118.39 111.09 118.62 110.64 119.35 L 110.12 120.20 C 109.66 120.94 109.89 121.90 110.63 122.35 C 111.36 122.80 112.32 122.57 112.78 121.84 Z M 113.24 121.08 L 113.87 120.19 C 114.37 119.49 114.21 118.51 113.51 118.01 C 112.80 117.51 111.83 117.68 111.33 118.38 L 110.70 119.27 C 110.20 119.97 110.36 120.94 111.06 121.44 C 111.77 121.94 112.74 121.78 113.24 121.08 Z M 113.84 120.23 L 114.42 119.47 C 114.95 118.79 114.82 117.81 114.13 117.29 C 113.45 116.76 112.47 116.89 111.94 117.58 L 111.36 118.33 C 110.84 119.02 110.97 120.00 111.65 120.52 C 112.34 121.05 113.32 120.92 113.84 120.23 Z M 114.40 119.50 L 114.98 118.77 C 115.52 118.10 115.42 117.12 114.74 116.58 C 114.07 116.04 113.09 116.15 112.55 116.82 L 111.96 117.55 C 111.42 118.22 111.53 119.20 112.20 119.74 C 112.88 120.28 113.86 120.17 114.40 119.50 Z M 114.96 118.80 L 115.60 118.04 C 116.15 117.38 116.07 116.40 115.41 115.84 C 114.75 115.29 113.76 115.38 113.21 116.04 L 112.57 116.79 C 112.02 117.45 112.10 118.44 112.76 118.99 C 113.42 119.55 114.41 119.46 114.96 118.80 Z M 115.57 118.07 L 116.26 117.29 C 116.83 116.65 116.77 115.66 116.12 115.09 C 115.47 114.52 114.49 114.58 113.92 115.23 L 113.23 116.01 C 112.66 116.65 112.72 117.64 113.37 118.21 C 114.02 118.78 115.00 118.72 115.57 118.07 Z M 116.23 117.32 L 116.97 116.53 C 117.55 115.90 117.51 114.91 116.88 114.33 C 116.25 113.74 115.26 113.78 114.67 114.41 L 113.94 115.20 C 113.36 115.84 113.39 116.82 114.03 117.41 C 114.66 117.99 115.65 117.96 116.23 117.32 Z M 116.94 116.56 L 117.64 115.83 C 118.24 115.22 118.23 114.23 117.61 113.63 C 116.99 113.03 116.01 113.04 115.40 113.66 L 114.70 114.38 C 114.10 115.00 114.11 115.99 114.73 116.59 C 115.35 117.19 116.34 117.18 116.94 116.56 Z M 117.62 115.86 L 118.30 115.19 C 118.91 114.59 118.92 113.60 118.31 112.98 C 117.71 112.37 116.72 112.36 116.10 112.97 L 115.43 113.63 C 114.81 114.24 114.81 115.23 115.41 115.84 C 116.02 116.46 117.01 116.46 117.62 115.86 Z M 118.27 115.21 L 118.98 114.54 C 119.61 113.95 119.63 112.96 119.04 112.34 C 118.44 111.71 117.46 111.68 116.83 112.28 L 116.12 112.95 C 115.50 113.54 115.47 114.53 116.07 115.16 C 116.66 115.78 117.65 115.81 118.27 115.21 Z M 118.96 114.56 L 119.70 113.89 C 120.33 113.30 120.37 112.31 119.79 111.68 C 119.21 111.04 118.22 111.00 117.58 111.59 L 116.85 112.26 C 116.21 112.84 116.17 113.83 116.76 114.47 C 117.34 115.10 118.33 115.14 118.96 114.56 Z M 119.68 113.90 L 120.44 113.22 C 121.09 112.65 121.14 111.66 120.57 111.02 C 119.99 110.37 119.01 110.32 118.36 110.89 L 117.60 111.57 C 116.96 112.14 116.90 113.13 117.47 113.77 C 118.05 114.42 119.04 114.47 119.68 113.90 Z M 120.43 113.23 L 121.22 112.55 C 121.87 111.98 121.94 111.00 121.37 110.35 C 120.81 109.70 119.82 109.63 119.17 110.19 L 118.38 110.88 C 117.73 111.44 117.66 112.43 118.22 113.08 C 118.79 113.73 119.78 113.80 120.43 113.23 Z M 121.20 112.56 L 122.00 111.88 C 122.66 111.32 122.74 110.34 122.18 109.68 C 121.63 109.02 120.64 108.94 119.98 109.50 L 119.18 110.18 C 118.53 110.74 118.44 111.72 119.00 112.38 C 119.56 113.04 120.55 113.12 121.20 112.56 Z M 121.99 111.89 L 122.77 111.24 C 123.43 110.69 123.52 109.71 122.97 109.05 C 122.42 108.38 121.43 108.29 120.77 108.84 L 120.00 109.49 C 119.33 110.04 119.24 111.03 119.79 111.69 C 120.35 112.35 121.33 112.44 121.99 111.89 Z M 122.76 111.25 L 123.55 110.60 C 124.21 110.06 124.31 109.07 123.77 108.41 C 123.22 107.74 122.23 107.64 121.57 108.19 L 120.78 108.84 C 120.11 109.38 120.02 110.37 120.56 111.03 C 121.11 111.70 122.09 111.80 122.76 111.25 Z M 123.54 110.61 L 124.33 109.97 C 125.00 109.42 125.11 108.44 124.56 107.77 C 124.02 107.10 123.04 107.00 122.37 107.54 L 121.57 108.19 C 120.91 108.73 120.80 109.71 121.35 110.38 C 121.89 111.05 122.87 111.15 123.54 110.61 Z M 124.33 109.97 L 125.12 109.34 C 125.79 108.79 125.90 107.81 125.36 107.14 C 124.82 106.47 123.83 106.36 123.16 106.90 L 122.37 107.54 C 121.70 108.08 121.59 109.06 122.13 109.73 C 122.68 110.40 123.66 110.51 124.33 109.97 Z M 125.12 109.34 L 125.89 108.71 C 126.57 108.18 126.67 107.19 126.14 106.52 C 125.60 105.85 124.61 105.74 123.94 106.28 L 123.16 106.90 C 122.49 107.44 122.38 108.42 122.92 109.10 C 123.46 109.77 124.44 109.88 125.12 109.34 Z M 125.89 108.72 L 126.65 108.11 C 127.32 107.57 127.43 106.59 126.89 105.92 C 126.36 105.24 125.37 105.13 124.70 105.67 L 123.94 106.28 C 123.27 106.82 123.16 107.80 123.70 108.47 C 124.24 109.14 125.22 109.25 125.89 108.72 Z M 126.65 108.11 L 127.44 107.47 C 128.12 106.93 128.22 105.95 127.69 105.28 C 127.15 104.61 126.16 104.50 125.49 105.04 L 124.70 105.67 C 124.03 106.21 123.92 107.19 124.46 107.87 C 125.00 108.54 125.98 108.65 126.65 108.11 Z M 127.45 107.47 L 128.27 106.80 C 128.94 106.26 129.05 105.28 128.51 104.61 C 127.97 103.94 126.98 103.83 126.31 104.37 L 125.49 105.04 C 124.82 105.58 124.71 106.56 125.25 107.24 C 125.79 107.91 126.78 108.01 127.45 107.47 Z M 128.28 106.80 L 129.07 106.15 C 129.74 105.61 129.83 104.62 129.29 103.96 C 128.74 103.29 127.76 103.19 127.09 103.74 L 126.30 104.38 C 125.64 104.93 125.54 105.91 126.08 106.58 C 126.63 107.25 127.61 107.34 128.28 106.80 Z M 129.08 106.14 L 129.84 105.51 C 130.50 104.96 130.59 103.97 130.03 103.31 C 129.48 102.65 128.50 102.56 127.84 103.12 L 127.08 103.75 C 126.42 104.30 126.33 105.28 126.88 105.95 C 127.44 106.61 128.42 106.70 129.08 106.14 Z M 129.85 105.50 L 130.58 104.87 C 131.24 104.31 131.31 103.32 130.75 102.67 C 130.19 102.02 129.20 101.94 128.55 102.50 L 127.82 103.13 C 127.17 103.69 127.09 104.68 127.65 105.33 C 128.21 105.98 129.20 106.06 129.85 105.50 Z M 130.60 104.85 L 131.31 104.23 C 131.95 103.65 132.01 102.67 131.44 102.02 C 130.87 101.38 129.88 101.32 129.24 101.89 L 128.53 102.52 C 127.88 103.09 127.83 104.08 128.40 104.72 C 128.97 105.37 129.96 105.43 130.60 104.85 Z M 131.33 104.20 L 132.06 103.53 C 132.69 102.95 132.73 101.96 132.14 101.33 C 131.56 100.69 130.57 100.66 129.94 101.24 L 129.21 101.91 C 128.58 102.50 128.54 103.49 129.13 104.12 C 129.71 104.75 130.70 104.79 131.33 104.20 Z M 132.08 103.51 L 132.80 102.81 C 133.42 102.21 133.44 101.23 132.84 100.61 C 132.24 99.99 131.25 99.97 130.63 100.57 L 129.91 101.27 C 129.29 101.87 129.28 102.85 129.87 103.47 C 130.47 104.09 131.46 104.11 132.08 103.51 Z M 132.83 102.79 L 133.53 102.08 C 134.14 101.47 134.13 100.48 133.52 99.87 C 132.90 99.26 131.92 99.27 131.31 99.88 L 130.61 100.59 C 130.00 101.21 130.01 102.19 130.62 102.80 C 131.23 103.41 132.22 103.40 132.83 102.79 Z M 133.55 102.06 L 134.24 101.33 C 134.83 100.70 134.81 99.72 134.18 99.12 C 133.55 98.53 132.57 98.56 131.97 99.18 L 131.29 99.91 C 130.69 100.53 130.72 101.52 131.34 102.11 C 131.97 102.71 132.96 102.68 133.55 102.06 Z M 134.26 101.31 L 134.93 100.57 C 135.51 99.93 135.47 98.94 134.83 98.36 C 134.19 97.78 133.20 97.83 132.62 98.47 L 131.95 99.21 C 131.37 99.84 131.42 100.83 132.06 101.41 C 132.69 101.99 133.68 101.94 134.26 101.31 Z M 134.95 100.54 L 135.60 99.81 C 136.16 99.16 136.10 98.17 135.45 97.61 C 134.80 97.04 133.81 97.11 133.24 97.75 L 132.60 98.49 C 132.04 99.14 132.10 100.13 132.75 100.69 C 133.40 101.26 134.39 101.19 134.95 100.54 Z M 135.62 99.79 L 136.22 99.06 C 136.78 98.40 136.69 97.42 136.03 96.86 C 135.37 96.31 134.39 96.40 133.83 97.06 L 133.23 97.78 C 132.67 98.44 132.76 99.42 133.42 99.98 C 134.08 100.53 135.06 100.45 135.62 99.79 Z M 136.24 99.04 L 136.84 98.30 C 137.39 97.62 137.28 96.64 136.61 96.10 C 135.94 95.56 134.96 95.66 134.42 96.33 L 133.81 97.08 C 133.27 97.75 133.38 98.73 134.05 99.27 C 134.72 99.82 135.70 99.71 136.24 99.04 Z M 136.86 98.27 L 137.47 97.49 C 138.00 96.81 137.88 95.83 137.20 95.30 C 136.52 94.77 135.53 94.90 135.00 95.58 L 134.40 96.35 C 133.87 97.04 133.99 98.02 134.67 98.55 C 135.35 99.08 136.33 98.95 136.86 98.27 Z M 137.49 97.47 L 138.10 96.65 C 138.62 95.96 138.48 94.99 137.79 94.47 C 137.10 93.95 136.12 94.09 135.60 94.78 L 134.99 95.60 C 134.47 96.29 134.61 97.27 135.30 97.78 C 135.99 98.30 136.97 98.16 137.49 97.47 Z M 138.11 96.63 L 138.74 95.77 C 139.25 95.07 139.10 94.09 138.40 93.59 C 137.70 93.08 136.72 93.23 136.22 93.93 L 135.59 94.80 C 135.08 95.50 135.24 96.47 135.93 96.98 C 136.63 97.49 137.61 97.33 138.11 96.63 Z M 138.76 95.75 L 139.35 94.90 C 139.85 94.20 139.68 93.22 138.98 92.73 C 138.27 92.23 137.30 92.40 136.80 93.10 L 136.20 93.95 C 135.71 94.65 135.88 95.63 136.58 96.13 C 137.29 96.62 138.26 96.45 138.76 95.75 Z M 139.36 94.89 L 139.94 94.05 C 140.43 93.34 140.25 92.36 139.54 91.87 C 138.83 91.39 137.86 91.56 137.37 92.27 L 136.79 93.12 C 136.30 93.83 136.48 94.80 137.19 95.29 C 137.90 95.78 138.87 95.60 139.36 94.89 Z M 139.95 94.04 L 140.53 93.18 C 141.02 92.46 140.83 91.49 140.12 91.01 C 139.40 90.52 138.43 90.71 137.95 91.42 L 137.37 92.29 C 136.88 93.00 137.07 93.97 137.78 94.45 C 138.50 94.94 139.47 94.75 139.95 94.04 Z M 140.54 93.17 L 141.11 92.31 C 141.59 91.59 141.40 90.62 140.68 90.14 C 139.96 89.66 139.00 89.85 138.52 90.57 L 137.94 91.43 C 137.46 92.15 137.66 93.12 138.37 93.60 C 139.09 94.08 140.06 93.88 140.54 93.17 Z M 141.12 92.30 L 141.68 91.45 C 142.15 90.73 141.95 89.77 141.23 89.29 C 140.51 88.82 139.54 89.01 139.07 89.73 L 138.51 90.58 C 138.04 91.30 138.24 92.27 138.96 92.74 C 139.68 93.22 140.64 93.02 141.12 92.30 Z M 141.68 91.45 L 142.21 90.64 C 142.68 89.91 142.48 88.95 141.76 88.48 C 141.03 88.00 140.07 88.21 139.60 88.93 L 139.07 89.74 C 138.59 90.46 138.80 91.43 139.52 91.90 C 140.24 92.37 141.21 92.17 141.68 91.45 Z M 142.21 90.63 L 142.73 89.83 C 143.20 89.10 143.00 88.14 142.27 87.67 C 141.55 87.20 140.58 87.40 140.11 88.13 L 139.59 88.93 C 139.12 89.66 139.33 90.62 140.05 91.09 C 140.78 91.56 141.74 91.35 142.21 90.63 Z M 142.74 89.82 L 143.38 88.82 C 143.84 88.10 143.63 87.13 142.91 86.67 C 142.18 86.20 141.22 86.41 140.75 87.14 L 140.11 88.13 C 139.64 88.86 139.85 89.83 140.58 90.29 C 141.31 90.76 142.27 90.55 142.74 89.82 Z M 143.38 88.82 L 143.94 87.93 C 144.41 87.21 144.19 86.24 143.46 85.78 C 142.74 85.32 141.77 85.53 141.31 86.26 L 140.75 87.14 C 140.28 87.87 140.50 88.83 141.23 89.30 C 141.95 89.76 142.92 89.55 143.38 88.82 Z M 143.95 87.93 L 144.45 87.14 C 144.91 86.41 144.69 85.45 143.96 84.98 C 143.23 84.52 142.27 84.74 141.81 85.47 L 141.31 86.26 C 140.85 86.99 141.06 87.96 141.79 88.42 C 142.52 88.88 143.48 88.66 143.95 87.93 Z M 144.45 87.14 L 144.91 86.41 C 145.37 85.68 145.15 84.72 144.42 84.26 C 143.69 83.80 142.72 84.02 142.26 84.75 L 141.81 85.47 C 141.35 86.20 141.57 87.16 142.29 87.62 C 143.02 88.08 143.99 87.87 144.45 87.14 Z M 144.90 86.42 L 145.41 85.62 C 145.87 84.89 145.66 83.92 144.93 83.46 C 144.20 83.00 143.24 83.21 142.77 83.94 L 142.27 84.74 C 141.80 85.47 142.02 86.44 142.75 86.90 C 143.48 87.36 144.44 87.14 144.90 86.42 Z M 145.40 85.64 L 145.94 84.81 C 146.41 84.09 146.21 83.12 145.49 82.65 C 144.77 82.18 143.80 82.38 143.33 83.10 L 142.79 83.92 C 142.31 84.64 142.52 85.61 143.24 86.08 C 143.96 86.56 144.92 86.36 145.40 85.64 Z M 145.91 84.86 L 146.48 84.05 C 146.97 83.35 146.81 82.38 146.10 81.88 C 145.40 81.38 144.43 81.55 143.93 82.25 L 143.36 83.05 C 142.86 83.76 143.03 84.73 143.73 85.23 C 144.44 85.73 145.41 85.56 145.91 84.86 Z M 146.43 84.11 L 147.05 83.33 C 147.58 82.65 147.46 81.67 146.78 81.14 C 146.10 80.61 145.12 80.73 144.59 81.41 L 143.97 82.19 C 143.44 82.87 143.56 83.85 144.24 84.38 C 144.92 84.91 145.90 84.79 146.43 84.11 Z M 147.00 83.39 L 147.59 82.70 C 148.15 82.05 148.08 81.06 147.43 80.50 C 146.78 79.94 145.79 80.01 145.23 80.66 L 144.63 81.35 C 144.07 82.00 144.14 82.98 144.80 83.55 C 145.45 84.11 146.43 84.04 147.00 83.39 Z M 147.54 82.75 L 148.21 82.05 C 148.80 81.42 148.77 80.44 148.14 79.84 C 147.52 79.25 146.53 79.28 145.94 79.91 L 145.27 80.61 C 144.68 81.24 144.71 82.23 145.34 82.82 C 145.96 83.41 146.95 83.38 147.54 82.75 Z M 148.16 82.10 L 148.90 81.38 C 149.52 80.78 149.53 79.79 148.93 79.17 C 148.33 78.55 147.34 78.54 146.73 79.14 L 145.98 79.86 C 145.37 80.46 145.35 81.45 145.95 82.07 C 146.55 82.69 147.54 82.70 148.16 82.10 Z M 148.86 81.42 L 149.68 80.68 C 150.32 80.11 150.38 79.12 149.80 78.48 C 149.22 77.84 148.24 77.78 147.60 78.36 L 146.77 79.09 C 146.13 79.67 146.08 80.66 146.65 81.30 C 147.23 81.94 148.21 82.00 148.86 81.42 Z M 149.63 80.72 L 150.52 79.99 C 151.18 79.45 151.28 78.46 150.73 77.80 C 150.18 77.13 149.20 77.03 148.53 77.58 L 147.65 78.31 C 146.98 78.86 146.88 79.85 147.43 80.51 C 147.98 81.18 148.96 81.27 149.63 80.72 Z M 150.44 80.05 L 151.35 79.40 C 152.05 78.89 152.21 77.92 151.71 77.22 C 151.20 76.52 150.23 76.36 149.53 76.86 L 148.61 77.52 C 147.91 78.03 147.76 79.00 148.26 79.70 C 148.76 80.40 149.74 80.56 150.44 80.05 Z M 151.20 79.49 L 152.08 79.00 C 152.83 78.58 153.10 77.62 152.68 76.87 C 152.26 76.12 151.30 75.85 150.55 76.28 L 149.68 76.77 C 148.92 77.19 148.66 78.14 149.08 78.89 C 149.50 79.65 150.45 79.91 151.20 79.49 Z M 151.77 79.13 L 152.55 78.90 C 153.37 78.65 153.84 77.78 153.59 76.95 C 153.34 76.13 152.47 75.66 151.65 75.91 L 150.87 76.14 C 150.04 76.39 149.57 77.26 149.82 78.09 C 150.07 78.91 150.94 79.38 151.77 79.13 Z M 151.73 78.92 L 152.46 79.10 C 153.30 79.30 154.14 78.78 154.34 77.95 C 154.54 77.11 154.03 76.26 153.19 76.06 L 152.46 75.89 C 151.63 75.68 150.78 76.20 150.58 77.04 C 150.38 77.87 150.89 78.72 151.73 78.92 Z M 151.61 78.56 L 152.16 79.25 C 152.70 79.92 153.69 80.03 154.36 79.49 C 155.03 78.95 155.14 77.97 154.60 77.30 L 154.04 76.60 C 153.50 75.93 152.52 75.82 151.85 76.36 C 151.18 76.90 151.07 77.88 151.61 78.56 Z M 151.93 78.86 L 152.34 79.86 C 152.66 80.65 153.57 81.04 154.37 80.72 C 155.17 80.39 155.55 79.48 155.23 78.68 L 154.83 77.69 C 154.51 76.89 153.60 76.50 152.80 76.83 C 152.00 77.15 151.61 78.06 151.93 78.86 Z M 152.30 79.76 L 152.64 80.78 C 152.91 81.60 153.79 82.04 154.61 81.77 C 155.43 81.50 155.87 80.62 155.60 79.80 L 155.27 78.78 C 155.00 77.96 154.11 77.52 153.29 77.79 C 152.48 78.06 152.03 78.94 152.30 79.76 Z M 152.65 80.82 L 152.98 81.73 C 153.27 82.54 154.17 82.96 154.98 82.67 C 155.79 82.38 156.21 81.49 155.92 80.67 L 155.59 79.76 C 155.30 78.95 154.40 78.53 153.59 78.82 C 152.78 79.11 152.36 80.01 152.65 80.82 Z M 153.00 81.77 L 153.36 82.69 C 153.67 83.49 154.58 83.88 155.38 83.57 C 156.18 83.25 156.58 82.34 156.26 81.54 L 155.90 80.63 C 155.59 79.83 154.68 79.43 153.88 79.75 C 153.08 80.07 152.68 80.97 153.00 81.77 Z M 153.37 82.72 L 153.77 83.67 C 154.11 84.47 155.03 84.84 155.82 84.50 C 156.62 84.17 156.99 83.25 156.65 82.46 L 156.25 81.50 C 155.91 80.71 154.99 80.34 154.20 80.68 C 153.41 81.01 153.03 81.93 153.37 82.72 Z M 153.79 83.70 L 154.18 84.59 C 154.53 85.38 155.46 85.74 156.24 85.39 C 157.03 85.04 157.39 84.11 157.04 83.33 L 156.64 82.43 C 156.29 81.64 155.37 81.29 154.58 81.64 C 153.79 81.99 153.44 82.91 153.79 83.70 Z M 154.19 84.61 L 154.60 85.51 C 154.96 86.30 155.88 86.64 156.67 86.29 C 157.45 85.93 157.80 85.00 157.44 84.22 L 157.03 83.31 C 156.67 82.53 155.75 82.18 154.96 82.54 C 154.18 82.90 153.83 83.82 154.19 84.61 Z M 154.60 85.52 L 155.03 86.45 C 155.39 87.23 156.32 87.57 157.10 87.21 C 157.89 86.85 158.23 85.92 157.87 85.14 L 157.44 84.21 C 157.08 83.43 156.15 83.09 155.37 83.45 C 154.59 83.81 154.24 84.74 154.60 85.52 Z M 155.03 86.45 L 155.46 87.38 C 155.82 88.16 156.75 88.50 157.53 88.14 C 158.32 87.78 158.66 86.85 158.30 86.07 L 157.87 85.14 C 157.51 84.36 156.58 84.01 155.80 84.38 C 155.01 84.74 154.67 85.66 155.03 86.45 Z M 155.46 87.37 L 155.86 88.25 C 156.22 89.04 157.15 89.38 157.93 89.02 C 158.72 88.67 159.06 87.74 158.70 86.95 L 158.30 86.07 C 157.94 85.29 157.01 84.94 156.23 85.30 C 155.44 85.66 155.10 86.59 155.46 87.37 Z M 155.86 88.25 L 156.24 89.09 C 156.60 89.87 157.52 90.22 158.31 89.87 C 159.09 89.51 159.44 88.59 159.09 87.80 L 158.70 86.96 C 158.35 86.18 157.42 85.83 156.64 86.18 C 155.85 86.54 155.50 87.46 155.86 88.25 Z M 156.24 89.09 L 156.63 89.95 C 156.98 90.74 157.91 91.09 158.69 90.73 C 159.48 90.38 159.83 89.45 159.47 88.67 L 159.09 87.80 C 158.73 87.02 157.81 86.67 157.02 87.02 C 156.24 87.38 155.88 88.30 156.24 89.09 Z M 156.63 89.95 L 157.05 90.88 C 157.40 91.66 158.33 92.01 159.11 91.66 C 159.90 91.30 160.25 90.38 159.89 89.59 L 159.47 88.67 C 159.12 87.88 158.19 87.53 157.41 87.89 C 156.62 88.24 156.27 89.17 156.63 89.95 Z M 157.05 90.88 L 157.52 91.90 C 157.87 92.69 158.80 93.03 159.58 92.67 C 160.37 92.32 160.71 91.39 160.36 90.61 L 159.89 89.58 C 159.53 88.80 158.60 88.45 157.82 88.81 C 157.04 89.17 156.69 90.10 157.05 90.88 Z M 157.52 91.91 L 157.92 92.77 C 158.28 93.56 159.21 93.90 159.99 93.54 C 160.77 93.17 161.11 92.25 160.75 91.46 L 160.35 90.60 C 159.99 89.82 159.06 89.48 158.28 89.84 C 157.50 90.20 157.16 91.13 157.52 91.91 Z M 157.92 92.78 L 158.33 93.66 C 158.70 94.45 159.63 94.78 160.41 94.42 C 161.19 94.05 161.53 93.12 161.16 92.34 L 160.75 91.46 C 160.38 90.68 159.46 90.34 158.67 90.70 C 157.89 91.07 157.56 92.00 157.92 92.78 Z M 158.34 93.67 L 158.77 94.59 C 159.14 95.37 160.07 95.70 160.85 95.34 C 161.63 94.97 161.96 94.04 161.59 93.26 L 161.16 92.34 C 160.79 91.56 159.86 91.22 159.08 91.59 C 158.30 91.96 157.97 92.89 158.34 93.67 Z M 158.77 94.60 L 159.22 95.53 C 159.59 96.31 160.52 96.64 161.30 96.27 C 162.08 95.90 162.41 94.97 162.04 94.19 L 161.59 93.25 C 161.22 92.47 160.29 92.14 159.51 92.52 C 158.73 92.89 158.40 93.82 158.77 94.60 Z M 159.22 95.54 L 159.67 96.47 C 160.05 97.25 160.98 97.58 161.76 97.20 C 162.54 96.82 162.86 95.89 162.49 95.11 L 162.04 94.18 C 161.66 93.41 160.73 93.08 159.95 93.46 C 159.17 93.83 158.85 94.77 159.22 95.54 Z M 159.68 96.48 L 160.12 97.39 C 160.50 98.16 161.44 98.48 162.21 98.10 C 162.99 97.72 163.31 96.79 162.93 96.01 L 162.48 95.11 C 162.10 94.33 161.17 94.01 160.39 94.39 C 159.62 94.77 159.30 95.71 159.68 96.48 Z M 160.13 97.40 L 160.61 98.35 C 161.00 99.13 161.93 99.44 162.70 99.05 C 163.47 98.66 163.79 97.73 163.40 96.95 L 162.92 96.00 C 162.53 95.23 161.60 94.92 160.83 95.31 C 160.06 95.69 159.74 96.63 160.13 97.40 Z M 160.62 98.37 L 161.10 99.32 C 161.50 100.08 162.44 100.38 163.21 99.99 C 163.97 99.60 164.27 98.65 163.88 97.89 L 163.39 96.94 C 163.00 96.17 162.06 95.87 161.29 96.27 C 160.52 96.66 160.22 97.60 160.62 98.37 Z M 161.11 99.33 L 161.58 100.22 C 161.99 100.99 162.93 101.28 163.69 100.87 C 164.45 100.47 164.75 99.53 164.34 98.76 L 163.87 97.87 C 163.47 97.11 162.52 96.82 161.76 97.22 C 161.00 97.62 160.71 98.57 161.11 99.33 Z M 161.59 100.24 L 162.05 101.09 C 162.47 101.85 163.41 102.13 164.17 101.71 C 164.93 101.30 165.21 100.35 164.80 99.60 L 164.33 98.75 C 163.92 97.99 162.97 97.71 162.22 98.12 C 161.46 98.53 161.18 99.48 161.59 100.24 Z M 162.06 101.10 L 162.52 101.92 C 162.94 102.68 163.89 102.94 164.64 102.52 C 165.40 102.10 165.67 101.15 165.24 100.40 L 164.79 99.58 C 164.37 98.83 163.42 98.56 162.66 98.98 C 161.91 99.40 161.64 100.35 162.06 101.10 Z M 162.53 101.94 L 163.00 102.77 C 163.43 103.51 164.39 103.77 165.13 103.34 C 165.88 102.91 166.14 101.96 165.71 101.21 L 165.24 100.38 C 164.81 99.64 163.85 99.38 163.11 99.81 C 162.36 100.24 162.10 101.19 162.53 101.94 Z M 163.01 102.78 L 163.53 103.66 C 163.97 104.40 164.92 104.65 165.67 104.21 C 166.41 103.77 166.66 102.82 166.22 102.07 L 165.70 101.20 C 165.26 100.45 164.31 100.21 163.56 100.64 C 162.82 101.08 162.57 102.04 163.01 102.78 Z M 163.54 103.68 L 164.06 104.54 C 164.51 105.28 165.47 105.51 166.21 105.06 C 166.94 104.62 167.18 103.65 166.73 102.92 L 166.21 102.06 C 165.76 101.32 164.80 101.08 164.06 101.53 C 163.33 101.98 163.09 102.94 163.54 103.68 Z M 164.07 104.56 L 164.60 105.40 C 165.06 106.13 166.03 106.35 166.76 105.89 C 167.49 105.44 167.71 104.47 167.25 103.74 L 166.72 102.90 C 166.26 102.17 165.30 101.95 164.57 102.41 C 163.84 102.86 163.62 103.83 164.07 104.56 Z M 164.62 105.42 L 165.15 106.25 C 165.62 106.97 166.59 107.17 167.31 106.70 C 168.04 106.23 168.24 105.27 167.77 104.55 L 167.24 103.72 C 166.77 103.00 165.80 102.79 165.08 103.26 C 164.35 103.73 164.15 104.70 164.62 105.42 Z M 165.17 106.27 L 165.73 107.10 C 166.22 107.82 167.19 108.00 167.90 107.52 C 168.62 107.04 168.80 106.07 168.32 105.35 L 167.76 104.52 C 167.27 103.81 166.30 103.62 165.59 104.10 C 164.87 104.59 164.69 105.56 165.17 106.27 Z M 165.75 107.13 L 166.34 107.96 C 166.84 108.67 167.81 108.83 168.52 108.34 C 169.22 107.84 169.39 106.87 168.89 106.16 L 168.30 105.33 C 167.80 104.62 166.83 104.46 166.12 104.95 C 165.42 105.45 165.25 106.43 165.75 107.13 Z M 166.36 107.99 L 166.96 108.80 C 167.47 109.49 168.44 109.64 169.14 109.12 C 169.83 108.61 169.98 107.64 169.47 106.94 L 168.87 106.13 C 168.36 105.44 167.38 105.29 166.69 105.81 C 165.99 106.32 165.85 107.30 166.36 107.99 Z M 166.97 108.82 L 167.58 109.60 C 168.10 110.29 169.08 110.41 169.77 109.89 C 170.45 109.36 170.58 108.38 170.05 107.70 L 169.45 106.92 C 168.92 106.23 167.94 106.11 167.26 106.63 C 166.57 107.16 166.45 108.14 166.97 108.82 Z M 167.60 109.63 L 168.20 110.38 C 168.75 111.05 169.73 111.16 170.40 110.62 C 171.07 110.08 171.18 109.09 170.64 108.42 L 170.03 107.67 C 169.49 107.00 168.50 106.89 167.83 107.43 C 167.16 107.97 167.06 108.96 167.60 109.63 Z M 168.23 110.41 L 168.84 111.13 C 169.39 111.79 170.38 111.88 171.04 111.32 C 171.70 110.77 171.78 109.78 171.22 109.12 L 170.61 108.40 C 170.06 107.74 169.07 107.65 168.41 108.21 C 167.76 108.76 167.67 109.75 168.23 110.41 Z M 168.86 111.16 L 169.49 111.88 C 170.06 112.53 171.05 112.59 171.69 112.02 C 172.34 111.45 172.40 110.46 171.84 109.82 L 171.20 109.10 C 170.63 108.45 169.65 108.39 169.00 108.96 C 168.35 109.52 168.29 110.51 168.86 111.16 Z M 169.51 111.90 L 170.18 112.64 C 170.77 113.27 171.76 113.31 172.39 112.73 C 173.03 112.15 173.07 111.16 172.49 110.52 L 171.81 109.79 C 171.23 109.16 170.24 109.11 169.61 109.70 C 168.97 110.28 168.93 111.27 169.51 111.90 Z M 170.20 112.66 L 170.93 113.42 C 171.53 114.05 172.51 114.07 173.14 113.48 C 173.76 112.88 173.79 111.89 173.20 111.27 L 172.47 110.50 C 171.87 109.88 170.88 109.85 170.26 110.45 C 169.63 111.04 169.61 112.03 170.20 112.66 Z M 170.95 113.44 L 171.67 114.18 C 172.28 114.80 173.27 114.81 173.88 114.20 C 174.50 113.60 174.51 112.61 173.91 112.00 L 173.18 111.25 C 172.58 110.64 171.59 110.63 170.97 111.23 C 170.36 111.83 170.35 112.82 170.95 113.44 Z M 171.68 114.19 L 172.41 114.91 C 173.01 115.52 174.00 115.52 174.61 114.91 C 175.22 114.30 175.22 113.32 174.62 112.71 L 173.89 111.98 C 173.29 111.37 172.30 111.37 171.69 111.98 C 171.08 112.59 171.08 113.58 171.68 114.19 Z M 172.41 114.92 L 173.15 115.65 C 173.77 116.26 174.76 116.25 175.36 115.64 C 175.97 115.02 175.96 114.03 175.35 113.43 L 174.61 112.70 C 173.99 112.09 173.00 112.10 172.40 112.71 C 171.79 113.33 171.80 114.31 172.41 114.92 Z M 173.16 115.66 L 173.89 116.37 C 174.51 116.98 175.50 116.96 176.10 116.35 C 176.70 115.73 176.69 114.74 176.08 114.14 L 175.34 113.42 C 174.72 112.82 173.74 112.83 173.13 113.45 C 172.53 114.07 172.54 115.05 173.16 115.66 Z M 173.90 116.38 L 174.61 117.06 C 175.23 117.66 176.21 117.64 176.81 117.02 C 177.41 116.40 177.40 115.42 176.78 114.82 L 176.07 114.13 C 175.45 113.54 174.46 113.55 173.86 114.17 C 173.26 114.79 173.28 115.78 173.90 116.38 Z M 174.61 117.07 L 175.32 117.75 C 175.95 118.35 176.93 118.33 177.53 117.70 C 178.13 117.08 178.11 116.09 177.48 115.50 L 176.77 114.81 C 176.15 114.22 175.16 114.24 174.56 114.86 C 173.97 115.48 173.99 116.47 174.61 117.07 Z M 175.33 117.76 L 176.10 118.49 C 176.73 119.08 177.72 119.06 178.31 118.43 C 178.90 117.81 178.88 116.82 178.25 116.22 L 177.48 115.49 C 176.85 114.90 175.86 114.92 175.27 115.55 C 174.68 116.17 174.70 117.16 175.33 117.76 Z M 176.12 118.50 L 176.83 119.16 C 177.46 119.75 178.45 119.71 179.03 119.08 C 179.62 118.45 179.58 117.46 178.95 116.88 L 178.24 116.21 C 177.61 115.63 176.62 115.66 176.04 116.29 C 175.45 116.93 175.48 117.91 176.12 118.50 Z M 176.84 119.18 L 177.54 119.81 C 178.17 120.39 179.16 120.34 179.74 119.70 C 180.32 119.06 180.27 118.07 179.64 117.50 L 178.94 116.86 C 178.30 116.28 177.31 116.33 176.73 116.97 C 176.15 117.61 176.20 118.60 176.84 119.18 Z M 177.55 119.82 L 178.27 120.45 C 178.91 121.03 179.90 120.97 180.47 120.32 C 181.04 119.68 180.98 118.69 180.34 118.12 L 179.62 117.48 C 178.98 116.91 177.99 116.97 177.42 117.62 C 176.85 118.26 176.91 119.25 177.55 119.82 Z M 178.28 120.47 L 179.03 121.11 C 179.68 121.68 180.66 121.60 181.23 120.95 C 181.79 120.30 181.72 119.32 181.07 118.75 L 180.32 118.11 C 179.67 117.54 178.69 117.61 178.12 118.26 C 177.56 118.92 177.63 119.90 178.28 120.47 Z M 179.04 121.12 L 179.82 121.78 C 180.47 122.34 181.46 122.26 182.02 121.60 C 182.57 120.94 182.49 119.95 181.83 119.40 L 181.06 118.74 C 180.40 118.18 179.41 118.26 178.86 118.92 C 178.30 119.58 178.38 120.57 179.04 121.12 Z M 179.83 121.79 L 180.61 122.44 C 181.28 122.99 182.26 122.90 182.81 122.23 C 183.36 121.57 183.27 120.58 182.60 120.03 L 181.82 119.38 C 181.15 118.84 180.17 118.93 179.62 119.59 C 179.07 120.26 179.16 121.24 179.83 121.79 Z M 180.63 122.45 L 181.41 123.08 C 182.08 123.62 183.07 123.51 183.61 122.84 C 184.15 122.17 184.04 121.19 183.37 120.65 L 182.59 120.02 C 181.91 119.48 180.93 119.59 180.39 120.26 C 179.85 120.93 179.96 121.91 180.63 122.45 Z M 181.43 123.10 L 182.22 123.71 C 182.90 124.24 183.88 124.11 184.41 123.43 C 184.94 122.75 184.82 121.77 184.14 121.24 L 183.35 120.63 C 182.66 120.10 181.68 120.23 181.16 120.91 C 180.63 121.59 180.75 122.57 181.43 123.10 Z M 182.24 123.72 L 183.03 124.31 C 183.72 124.83 184.70 124.69 185.21 124.00 C 185.73 123.31 185.59 122.33 184.90 121.81 L 184.11 121.23 C 183.42 120.71 182.45 120.85 181.93 121.54 C 181.41 122.23 181.55 123.21 182.24 123.72 Z M 183.05 124.33 L 183.85 124.91 C 184.55 125.42 185.52 125.26 186.03 124.56 C 186.54 123.87 186.38 122.89 185.68 122.38 L 184.88 121.80 C 184.18 121.29 183.21 121.45 182.70 122.15 C 182.19 122.84 182.35 123.82 183.05 124.33 Z M 183.86 124.92 L 184.69 125.51 C 185.40 126.01 186.37 125.84 186.87 125.14 C 187.37 124.44 187.20 123.46 186.50 122.96 L 185.67 122.37 C 184.97 121.87 183.99 122.04 183.49 122.74 C 183.00 123.45 183.16 124.42 183.86 124.92 Z M 184.70 125.51 L 185.53 126.09 C 186.23 126.59 187.21 126.42 187.70 125.71 C 188.20 125.00 188.03 124.03 187.32 123.53 L 186.49 122.96 C 185.79 122.46 184.81 122.63 184.32 123.34 C 183.82 124.05 184.00 125.02 184.70 125.51 Z M 185.53 126.09 L 186.37 126.68 C 187.08 127.17 188.05 127.00 188.54 126.30 C 189.04 125.59 188.87 124.62 188.16 124.12 L 187.32 123.53 C 186.61 123.04 185.64 123.21 185.14 123.92 C 184.65 124.63 184.82 125.60 185.53 126.09 Z M 186.37 126.68 L 187.19 127.26 C 187.90 127.76 188.87 127.59 189.37 126.88 C 189.86 126.18 189.69 125.20 188.99 124.71 L 188.16 124.12 C 187.46 123.63 186.48 123.80 185.99 124.50 C 185.49 125.21 185.66 126.18 186.37 126.68 Z M 187.18 127.25 L 187.96 127.81 C 188.66 128.31 189.64 128.15 190.14 127.45 C 190.64 126.75 190.48 125.78 189.78 125.27 L 189.00 124.71 C 188.30 124.21 187.32 124.37 186.82 125.07 C 186.32 125.77 186.48 126.75 187.18 127.25 Z M 187.94 127.80 L 188.82 128.44 C 189.51 128.96 190.49 128.81 191.00 128.12 C 191.51 127.42 191.37 126.45 190.67 125.93 L 189.80 125.29 C 189.11 124.77 188.13 124.92 187.62 125.61 C 187.10 126.31 187.25 127.28 187.94 127.80 Z M 188.80 128.43 L 189.59 129.03 C 190.27 129.56 191.25 129.43 191.78 128.74 C 192.30 128.06 192.17 127.08 191.49 126.56 L 190.69 125.95 C 190.01 125.42 189.03 125.55 188.51 126.24 C 187.98 126.92 188.11 127.90 188.80 128.43 Z M 189.58 129.02 L 190.32 129.61 C 191.00 130.14 191.98 130.02 192.51 129.34 C 193.04 128.66 192.92 127.68 192.25 127.15 L 191.50 126.57 C 190.82 126.03 189.84 126.15 189.31 126.83 C 188.78 127.51 188.90 128.49 189.58 129.02 Z M 190.32 129.60 L 190.65 129.86 C 191.32 130.40 192.30 130.28 192.84 129.61 C 193.37 128.93 193.26 127.95 192.58 127.41 L 192.25 127.15 C 191.57 126.62 190.59 126.73 190.06 127.41 C 189.52 128.09 189.64 129.07 190.32 129.60 Z"
      fill="black"
      fill-rule="nonzero" /><path d="M 147.72 82.30 L 147.47 83.28 C 147.25 84.11 147.75 84.96 148.58 85.18 C 149.42 85.40 150.27 84.90 150.49 84.07 L 150.74 83.09 C 150.96 82.26 150.47 81.41 149.63 81.19 C 148.80 80.97 147.94 81.47 147.72 82.30 Z M 147.46 83.31 L 147.23 84.28 C 147.02 85.12 147.54 85.96 148.37 86.17 C 149.21 86.37 150.06 85.85 150.26 85.02 L 150.50 84.04 C 150.70 83.20 150.18 82.36 149.35 82.16 C 148.51 81.95 147.67 82.47 147.46 83.31 Z M 147.21 84.34 L 147.01 85.31 C 146.84 86.16 147.39 86.98 148.23 87.15 C 149.08 87.33 149.90 86.78 150.07 85.93 L 150.27 84.96 C 150.44 84.11 149.90 83.29 149.05 83.12 C 148.21 82.95 147.38 83.49 147.21 84.34 Z M 147.00 85.40 L 146.86 86.39 C 146.74 87.24 147.33 88.03 148.18 88.16 C 149.04 88.28 149.83 87.68 149.95 86.83 L 150.09 85.84 C 150.21 84.99 149.62 84.20 148.77 84.08 C 147.91 83.96 147.12 84.55 147.00 85.40 Z M 146.85 86.49 L 146.77 87.49 C 146.70 88.35 147.34 89.10 148.20 89.17 C 149.06 89.24 149.81 88.59 149.88 87.73 L 149.96 86.73 C 150.03 85.87 149.39 85.12 148.53 85.05 C 147.67 84.99 146.91 85.63 146.85 86.49 Z M 146.77 87.56 L 146.73 88.56 C 146.71 89.42 147.38 90.15 148.24 90.17 C 149.11 90.20 149.83 89.52 149.85 88.66 L 149.89 87.66 C 149.91 86.80 149.24 86.08 148.38 86.05 C 147.51 86.03 146.79 86.70 146.77 87.56 Z M 146.73 88.60 L 146.73 89.60 C 146.72 90.46 147.42 91.16 148.28 91.17 C 149.14 91.17 149.84 90.48 149.85 89.61 L 149.85 88.62 C 149.86 87.76 149.17 87.06 148.30 87.05 C 147.44 87.05 146.74 87.74 146.73 88.60 Z M 146.73 89.60 L 146.73 90.58 C 146.73 91.44 147.43 92.14 148.29 92.14 C 149.15 92.14 149.85 91.44 149.85 90.58 L 149.85 89.61 C 149.85 88.74 149.15 88.04 148.29 88.04 C 147.43 88.04 146.73 88.74 146.73 89.60 Z M 146.73 90.58 L 146.73 91.56 C 146.73 92.42 147.43 93.12 148.29 93.12 C 149.15 93.12 149.85 92.42 149.85 91.56 L 149.85 90.58 C 149.85 89.72 149.15 89.02 148.29 89.02 C 147.43 89.02 146.73 89.72 146.73 90.58 Z M 146.73 91.56 L 146.73 92.57 C 146.73 93.43 147.43 94.13 148.29 94.13 C 149.15 94.13 149.85 93.43 149.85 92.57 L 149.85 91.56 C 149.85 90.70 149.15 90.00 148.29 90.00 C 147.43 90.00 146.73 90.70 146.73 91.56 Z M 146.73 92.57 L 146.73 93.59 C 146.73 94.45 147.43 95.15 148.29 95.15 C 149.15 95.15 149.85 94.45 149.85 93.59 L 149.85 92.57 C 149.85 91.70 149.15 91.01 148.29 91.01 C 147.43 91.01 146.73 91.70 146.73 92.57 Z M 146.73 93.59 L 146.73 94.52 C 146.73 95.38 147.43 96.08 148.29 96.08 C 149.15 96.08 149.85 95.38 149.85 94.52 L 149.85 93.59 C 149.85 92.72 149.15 92.02 148.29 92.02 C 147.43 92.02 146.73 92.72 146.73 93.59 Z M 146.73 94.52 L 146.73 95.50 C 146.73 96.36 147.43 97.06 148.29 97.06 C 149.15 97.06 149.85 96.36 149.85 95.50 L 149.85 94.52 C 149.85 93.66 149.15 92.96 148.29 92.96 C 147.43 92.96 146.73 93.66 146.73 94.52 Z M 146.73 95.50 L 146.73 96.53 C 146.73 97.39 147.43 98.09 148.29 98.09 C 149.15 98.09 149.85 97.39 149.85 96.53 L 149.85 95.50 C 149.85 94.64 149.15 93.94 148.29 93.94 C 147.43 93.94 146.73 94.64 146.73 95.50 Z M 146.73 96.53 L 146.73 97.60 C 146.73 98.46 147.43 99.16 148.29 99.16 C 149.15 99.16 149.85 98.46 149.85 97.60 L 149.85 96.53 C 149.85 95.66 149.15 94.97 148.29 94.97 C 147.43 94.97 146.73 95.66 146.73 96.53 Z M 146.73 97.60 L 146.73 98.63 C 146.73 99.49 147.43 100.19 148.29 100.19 C 149.15 100.19 149.85 99.49 149.85 98.63 L 149.85 97.60 C 149.85 96.74 149.15 96.04 148.29 96.04 C 147.43 96.04 146.73 96.74 146.73 97.60 Z M 146.73 98.63 L 146.73 99.67 C 146.73 100.53 147.43 101.23 148.29 101.23 C 149.15 101.23 149.85 100.53 149.85 99.67 L 149.85 98.63 C 149.85 97.77 149.15 97.07 148.29 97.07 C 147.43 97.07 146.73 97.77 146.73 98.63 Z M 146.73 99.67 L 146.73 100.68 C 146.73 101.55 147.43 102.25 148.29 102.25 C 149.15 102.25 149.85 101.55 149.85 100.68 L 149.85 99.67 C 149.85 98.80 149.15 98.10 148.29 98.10 C 147.43 98.10 146.73 98.80 146.73 99.67 Z M 146.73 100.68 L 146.73 101.66 C 146.73 102.52 147.43 103.22 148.29 103.22 C 149.15 103.22 149.85 102.52 149.85 101.66 L 149.85 100.68 C 149.85 99.82 149.15 99.12 148.29 99.12 C 147.43 99.12 146.73 99.82 146.73 100.68 Z M 146.73 101.66 L 146.73 102.61 C 146.73 103.47 147.43 104.17 148.29 104.17 C 149.15 104.17 149.85 103.47 149.85 102.61 L 149.85 101.66 C 149.85 100.79 149.15 100.09 148.29 100.09 C 147.43 100.09 146.73 100.79 146.73 101.66 Z M 146.73 102.61 L 146.73 103.58 C 146.73 104.44 147.43 105.14 148.29 105.14 C 149.15 105.14 149.85 104.44 149.85 103.58 L 149.85 102.61 C 149.85 101.75 149.15 101.05 148.29 101.05 C 147.43 101.05 146.73 101.75 146.73 102.61 Z M 146.73 103.58 L 146.73 104.53 C 146.73 105.40 147.43 106.09 148.29 106.09 C 149.15 106.09 149.85 105.40 149.85 104.53 L 149.85 103.58 C 149.85 102.72 149.15 102.02 148.29 102.02 C 147.43 102.02 146.73 102.72 146.73 103.58 Z M 146.73 104.53 L 146.73 105.55 C 146.73 106.41 147.43 107.11 148.29 107.11 C 149.15 107.11 149.85 106.41 149.85 105.55 L 149.85 104.53 C 149.85 103.67 149.15 102.97 148.29 102.97 C 147.43 102.97 146.73 103.67 146.73 104.53 Z M 146.73 105.55 L 146.73 106.57 C 146.73 107.43 147.43 108.13 148.29 108.13 C 149.15 108.13 149.85 107.43 149.85 106.57 L 149.85 105.55 C 149.85 104.69 149.15 103.99 148.29 103.99 C 147.43 103.99 146.73 104.69 146.73 105.55 Z M 146.73 106.57 L 146.73 107.57 C 146.73 108.43 147.42 109.13 148.29 109.13 C 149.15 109.13 149.85 108.43 149.85 107.57 L 149.85 106.57 C 149.85 105.71 149.15 105.01 148.29 105.01 C 147.43 105.01 146.73 105.70 146.73 106.57 Z M 146.73 107.56 L 146.72 108.60 C 146.72 109.47 147.42 110.17 148.28 110.17 C 149.14 110.17 149.84 109.47 149.85 108.61 L 149.85 107.57 C 149.85 106.71 149.15 106.01 148.29 106.00 C 147.43 106.00 146.73 106.70 146.73 107.56 Z M 146.72 108.60 L 146.72 109.64 C 146.72 110.50 147.41 111.20 148.27 111.21 C 149.14 111.21 149.84 110.51 149.84 109.65 L 149.85 108.61 C 149.85 107.75 149.15 107.05 148.29 107.05 C 147.43 107.04 146.73 107.74 146.72 108.60 Z M 146.72 109.63 L 146.71 110.62 C 146.71 111.48 147.40 112.18 148.26 112.19 C 149.12 112.20 149.83 111.50 149.83 110.64 L 149.84 109.66 C 149.85 108.79 149.15 108.09 148.29 108.08 C 147.43 108.08 146.73 108.77 146.72 109.63 Z M 146.71 110.61 L 146.70 111.70 C 146.68 112.56 147.37 113.27 148.24 113.28 C 149.10 113.29 149.81 112.60 149.82 111.74 L 149.83 110.65 C 149.85 109.79 149.16 109.08 148.29 109.07 C 147.43 109.06 146.72 109.75 146.71 110.61 Z M 146.70 111.68 L 146.67 112.73 C 146.65 113.59 147.34 114.30 148.20 114.32 C 149.06 114.34 149.77 113.66 149.79 112.80 L 149.82 111.75 C 149.84 110.89 149.16 110.18 148.29 110.16 C 147.43 110.14 146.72 110.82 146.70 111.68 Z M 146.67 112.71 L 146.64 113.65 C 146.62 114.51 147.29 115.23 148.15 115.26 C 149.01 115.29 149.74 114.61 149.76 113.75 L 149.79 112.81 C 149.82 111.95 149.15 111.23 148.28 111.20 C 147.42 111.17 146.70 111.85 146.67 112.71 Z M 146.64 113.64 L 146.61 114.54 C 146.58 115.40 147.25 116.12 148.11 116.16 C 148.97 116.19 149.70 115.52 149.73 114.66 L 149.76 113.76 C 149.80 112.90 149.13 112.17 148.26 112.14 C 147.40 112.10 146.68 112.78 146.64 113.64 Z M 146.61 114.53 L 146.57 115.51 C 146.53 116.37 147.20 117.10 148.06 117.14 C 148.92 117.17 149.65 116.50 149.69 115.64 L 149.73 114.66 C 149.76 113.80 149.09 113.07 148.23 113.04 C 147.37 113.00 146.64 113.67 146.61 114.53 Z M 146.57 115.51 L 146.53 116.51 C 146.49 117.37 147.16 118.10 148.02 118.14 C 148.88 118.17 149.61 117.50 149.64 116.64 L 149.69 115.64 C 149.72 114.78 149.06 114.05 148.19 114.02 C 147.33 113.98 146.61 114.65 146.57 115.51 Z M 146.53 116.51 L 146.48 117.52 C 146.44 118.39 147.11 119.11 147.97 119.15 C 148.83 119.19 149.56 118.52 149.60 117.66 L 149.64 116.64 C 149.68 115.78 149.01 115.05 148.15 115.02 C 147.29 114.98 146.56 115.65 146.53 116.51 Z M 146.48 117.53 L 146.44 118.51 C 146.40 119.37 147.07 120.10 147.93 120.14 C 148.79 120.17 149.52 119.50 149.56 118.64 L 149.60 117.66 C 149.64 116.80 148.97 116.07 148.11 116.03 C 147.25 116.00 146.52 116.66 146.48 117.53 Z M 146.44 118.51 L 146.40 119.50 C 146.36 120.36 147.03 121.09 147.89 121.12 C 148.75 121.16 149.48 120.49 149.52 119.63 L 149.56 118.64 C 149.59 117.78 148.93 117.05 148.06 117.02 C 147.20 116.98 146.47 117.65 146.44 118.51 Z M 146.40 119.50 L 146.36 120.51 C 146.32 121.37 147.00 122.10 147.86 122.13 C 148.72 122.17 149.44 121.49 149.48 120.63 L 149.52 119.62 C 149.55 118.76 148.88 118.04 148.02 118.00 C 147.16 117.97 146.43 118.64 146.40 119.50 Z M 146.36 120.52 L 146.32 121.52 C 146.29 122.38 146.96 123.11 147.83 123.14 C 148.69 123.17 149.41 122.49 149.44 121.63 L 149.48 120.63 C 149.51 119.77 148.84 119.04 147.97 119.01 C 147.11 118.98 146.39 119.65 146.36 120.52 Z M 146.32 121.53 L 146.29 122.49 C 146.26 123.35 146.94 124.07 147.80 124.10 C 148.66 124.12 149.39 123.45 149.41 122.59 L 149.44 121.63 C 149.47 120.76 148.79 120.04 147.93 120.02 C 147.07 119.99 146.35 120.66 146.32 121.53 Z M 146.29 122.49 L 146.27 123.49 C 146.24 124.35 146.92 125.07 147.78 125.09 C 148.65 125.11 149.36 124.43 149.39 123.57 L 149.41 122.58 C 149.44 121.72 148.76 121.00 147.89 120.98 C 147.03 120.95 146.31 121.63 146.29 122.49 Z M 146.26 123.50 L 146.24 124.53 C 146.23 125.39 146.91 126.10 147.77 126.12 C 148.63 126.14 149.35 125.45 149.37 124.59 L 149.39 123.56 C 149.40 122.70 148.72 121.99 147.86 121.97 C 147.00 121.95 146.28 122.63 146.26 123.50 Z M 146.24 124.54 L 146.23 125.55 C 146.22 126.41 146.91 127.12 147.77 127.13 C 148.63 127.14 149.34 126.45 149.35 125.59 L 149.37 124.58 C 149.38 123.72 148.69 123.01 147.83 123.00 C 146.96 122.99 146.26 123.67 146.24 124.54 Z M 146.23 125.56 L 146.22 126.53 C 146.21 127.39 146.91 128.09 147.77 128.10 C 148.63 128.11 149.34 127.42 149.34 126.55 L 149.35 125.58 C 149.36 124.72 148.67 124.02 147.80 124.01 C 146.94 124.00 146.24 124.70 146.23 125.56 Z M 146.22 126.53 L 146.22 127.53 C 146.21 128.39 146.91 129.10 147.77 129.10 C 148.63 129.10 149.34 128.41 149.34 127.54 L 149.34 126.55 C 149.35 125.68 148.65 124.98 147.79 124.98 C 146.93 124.98 146.23 125.67 146.22 126.53 Z M 146.22 127.54 L 146.22 128.55 C 146.22 129.42 146.91 130.12 147.78 130.12 C 148.64 130.12 149.34 129.42 149.34 128.56 L 149.34 127.54 C 149.34 126.68 148.64 125.98 147.78 125.98 C 146.92 125.97 146.22 126.67 146.22 127.54 Z M 146.22 128.56 L 146.22 129.59 C 146.22 130.45 146.91 131.15 147.78 131.15 C 148.64 131.15 149.34 130.46 149.34 129.59 L 149.34 128.56 C 149.34 127.69 148.64 127.00 147.78 127.00 C 146.92 127.00 146.22 127.69 146.22 128.56 Z M 146.22 129.59 L 146.22 130.57 C 146.22 131.43 146.91 132.13 147.78 132.13 C 148.64 132.13 149.34 131.43 149.34 130.57 L 149.34 129.59 C 149.34 128.73 148.64 128.03 147.78 128.03 C 146.92 128.03 146.22 128.73 146.22 129.59 Z M 146.22 130.57 L 146.21 131.56 C 146.21 132.42 146.91 133.12 147.77 133.12 C 148.64 133.12 149.34 132.43 149.34 131.56 L 149.34 130.57 C 149.34 129.71 148.64 129.01 147.78 129.01 C 146.92 129.01 146.22 129.71 146.22 130.57 Z M 146.21 131.55 L 146.21 132.56 C 146.21 133.42 146.90 134.12 147.76 134.12 C 148.63 134.13 149.33 133.43 149.33 132.57 L 149.34 131.57 C 149.34 130.71 148.64 130.00 147.78 130.00 C 146.92 130.00 146.22 130.69 146.21 131.55 Z M 146.21 132.55 L 146.20 133.56 C 146.19 134.42 146.89 135.13 147.75 135.14 C 148.61 135.14 149.32 134.45 149.32 133.59 L 149.33 132.57 C 149.34 131.71 148.65 131.01 147.78 131.00 C 146.92 130.99 146.22 131.69 146.21 132.55 Z M 146.20 133.55 L 146.19 134.57 C 146.18 135.43 146.87 136.14 147.73 136.15 C 148.59 136.16 149.30 135.47 149.31 134.61 L 149.32 133.60 C 149.34 132.73 148.65 132.03 147.78 132.01 C 146.92 132.00 146.21 132.69 146.20 133.55 Z M 146.19 134.56 L 146.17 135.55 C 146.15 136.42 146.84 137.13 147.70 137.14 C 148.56 137.16 149.28 136.47 149.29 135.61 L 149.31 134.62 C 149.33 133.76 148.64 133.04 147.78 133.03 C 146.92 133.01 146.20 133.70 146.19 134.56 Z M 146.17 135.55 L 146.15 136.55 C 146.13 137.41 146.81 138.12 147.68 138.14 C 148.54 138.16 149.25 137.48 149.27 136.62 L 149.29 135.62 C 149.31 134.75 148.63 134.04 147.76 134.02 C 146.90 134.00 146.19 134.69 146.17 135.55 Z M 146.15 136.55 L 146.13 137.55 C 146.11 138.41 146.79 139.13 147.65 139.15 C 148.52 139.17 149.23 138.48 149.25 137.62 L 149.27 136.62 C 149.29 135.75 148.61 135.04 147.74 135.02 C 146.88 135.00 146.17 135.69 146.15 136.55 Z M 146.13 137.55 L 146.11 138.56 C 146.09 139.42 146.77 140.13 147.64 140.15 C 148.50 140.17 149.21 139.48 149.23 138.62 L 149.25 137.62 C 149.27 136.76 148.58 136.04 147.72 136.03 C 146.86 136.01 146.14 136.69 146.13 137.55 Z M 146.11 138.57 L 146.09 139.58 C 146.08 140.44 146.77 141.15 147.63 141.16 C 148.49 141.18 149.20 140.49 149.21 139.63 L 149.23 138.62 C 149.24 137.75 148.56 137.04 147.69 137.03 C 146.83 137.02 146.12 137.70 146.11 138.57 Z M 146.09 139.59 L 146.08 140.62 C 146.07 141.48 146.76 142.19 147.62 142.20 C 148.49 142.21 149.19 141.52 149.20 140.65 L 149.21 139.62 C 149.22 138.76 148.53 138.05 147.67 138.04 C 146.81 138.03 146.10 138.72 146.09 139.59 Z M 146.08 140.63 L 146.07 141.65 C 146.07 142.51 146.76 143.21 147.63 143.22 C 148.49 143.22 149.19 142.53 149.20 141.67 L 149.20 140.65 C 149.21 139.78 148.51 139.08 147.65 139.08 C 146.79 139.07 146.09 139.77 146.08 140.63 Z M 146.07 141.65 L 146.07 142.65 C 146.07 143.51 146.77 144.21 147.63 144.22 C 148.49 144.22 149.19 143.52 149.19 142.66 L 149.20 141.66 C 149.20 140.80 148.50 140.10 147.64 140.10 C 146.78 140.09 146.08 140.79 146.07 141.65 Z M 146.07 142.65 L 146.07 143.62 C 146.07 144.48 146.77 145.18 147.63 145.18 C 148.49 145.18 149.19 144.49 149.19 143.62 L 149.19 142.66 C 149.19 141.79 148.50 141.09 147.63 141.09 C 146.77 141.09 146.07 141.79 146.07 142.65 Z M 146.07 143.62 L 146.07 144.60 C 146.07 145.46 146.77 146.16 147.63 146.16 C 148.49 146.16 149.19 145.46 149.19 144.60 L 149.19 143.62 C 149.19 142.76 148.49 142.06 147.63 142.06 C 146.77 142.06 146.07 142.76 146.07 143.62 Z M 146.07 144.60 L 146.07 145.60 C 146.07 146.46 146.77 147.16 147.63 147.16 C 148.49 147.16 149.19 146.46 149.19 145.60 L 149.19 144.60 C 149.19 143.74 148.49 143.04 147.63 143.04 C 146.77 143.04 146.07 143.74 146.07 144.60 Z M 146.07 145.60 L 146.07 146.58 C 146.07 147.44 146.77 148.14 147.63 148.14 C 148.49 148.14 149.19 147.44 149.19 146.58 L 149.19 145.60 C 149.19 144.74 148.49 144.04 147.63 144.04 C 146.77 144.04 146.07 144.74 146.07 145.60 Z M 146.07 146.58 L 146.07 147.57 C 146.07 148.43 146.77 149.13 147.63 149.13 C 148.49 149.13 149.19 148.43 149.19 147.57 L 149.19 146.58 C 149.19 145.72 148.49 145.02 147.63 145.02 C 146.77 145.02 146.07 145.72 146.07 146.58 Z M 146.07 147.57 L 146.07 148.59 C 146.07 149.45 146.77 150.15 147.63 150.15 C 148.49 150.15 149.19 149.45 149.19 148.59 L 149.19 147.57 C 149.19 146.71 148.49 146.01 147.63 146.01 C 146.77 146.01 146.07 146.71 146.07 147.57 Z M 146.07 148.59 L 146.07 149.59 C 146.07 150.45 146.77 151.15 147.63 151.15 C 148.49 151.15 149.19 150.45 149.19 149.59 L 149.19 148.59 C 149.19 147.73 148.49 147.03 147.63 147.03 C 146.77 147.03 146.07 147.73 146.07 148.59 Z M 146.07 149.59 L 146.07 150.61 C 146.07 151.47 146.77 152.17 147.63 152.17 C 148.49 152.17 149.19 151.47 149.19 150.61 L 149.19 149.59 C 149.19 148.72 148.49 148.02 147.63 148.02 C 146.77 148.02 146.07 148.72 146.07 149.59 Z M 146.07 150.61 L 146.07 151.62 C 146.07 152.48 146.77 153.18 147.63 153.18 C 148.49 153.18 149.19 152.48 149.19 151.62 L 149.19 150.61 C 149.19 149.74 148.49 149.04 147.63 149.04 C 146.77 149.04 146.07 149.74 146.07 150.61 Z M 146.07 151.62 L 146.07 152.61 C 146.07 153.47 146.77 154.17 147.63 154.17 C 148.49 154.17 149.19 153.47 149.19 152.61 L 149.19 151.62 C 149.19 150.76 148.49 150.06 147.63 150.06 C 146.77 150.06 146.07 150.76 146.07 151.62 Z M 146.07 152.61 L 146.07 153.63 C 146.07 154.50 146.77 155.20 147.63 155.20 C 148.49 155.20 149.19 154.50 149.19 153.63 L 149.19 152.61 C 149.19 151.75 148.49 151.05 147.63 151.05 C 146.77 151.05 146.07 151.75 146.07 152.61 Z M 146.07 153.63 L 146.07 154.66 C 146.07 155.52 146.77 156.22 147.63 156.22 C 148.49 156.22 149.19 155.53 149.19 154.66 L 149.19 153.64 C 149.19 152.77 148.50 152.07 147.63 152.07 C 146.77 152.07 146.07 152.77 146.07 153.63 Z M 146.07 154.65 L 146.06 155.64 C 146.06 156.50 146.75 157.20 147.62 157.20 C 148.48 157.21 149.18 156.51 149.19 155.65 L 149.19 154.67 C 149.20 153.81 148.50 153.10 147.64 153.10 C 146.78 153.10 146.07 153.79 146.07 154.65 Z M 146.06 155.63 L 146.05 156.59 C 146.04 157.45 146.73 158.16 147.60 158.17 C 148.46 158.18 149.17 157.49 149.18 156.62 L 149.19 155.66 C 149.20 154.80 148.50 154.09 147.64 154.08 C 146.78 154.07 146.07 154.76 146.06 155.63 Z M 146.05 156.58 L 146.03 157.56 C 146.02 158.42 146.70 159.13 147.56 159.15 C 148.43 159.17 149.14 158.48 149.16 157.62 L 149.17 156.64 C 149.19 155.78 148.51 155.06 147.64 155.05 C 146.78 155.03 146.07 155.71 146.05 156.58 Z M 146.03 157.55 L 146.01 158.55 C 145.98 159.41 146.66 160.13 147.53 160.15 C 148.39 160.17 149.10 159.49 149.13 158.63 L 149.16 157.63 C 149.18 156.77 148.50 156.05 147.64 156.03 C 146.78 156.00 146.06 156.68 146.03 157.55 Z M 146.01 158.54 L 145.98 159.54 C 145.95 160.41 146.62 161.13 147.49 161.15 C 148.35 161.18 149.07 160.51 149.10 159.64 L 149.13 158.64 C 149.16 157.78 148.48 157.06 147.62 157.03 C 146.76 157.00 146.03 157.68 146.01 158.54 Z M 145.98 159.54 L 145.94 160.54 C 145.91 161.40 146.59 162.12 147.45 162.15 C 148.31 162.18 149.03 161.51 149.06 160.65 L 149.10 159.65 C 149.12 158.78 148.45 158.06 147.59 158.03 C 146.73 158.00 146.00 158.68 145.98 159.54 Z M 145.94 160.54 L 145.91 161.56 C 145.88 162.42 146.56 163.14 147.42 163.17 C 148.28 163.20 149.00 162.52 149.03 161.66 L 149.06 160.64 C 149.09 159.78 148.41 159.06 147.55 159.03 C 146.69 159.00 145.97 159.68 145.94 160.54 Z M 145.91 161.56 L 145.88 162.57 C 145.85 163.43 146.52 164.16 147.39 164.18 C 148.25 164.21 148.97 163.53 149.00 162.67 L 149.03 161.66 C 149.06 160.80 148.38 160.08 147.52 160.05 C 146.66 160.02 145.94 160.70 145.91 161.56 Z M 145.88 162.57 L 145.84 163.57 C 145.82 164.43 146.49 165.15 147.35 165.18 C 148.22 165.20 148.94 164.53 148.96 163.67 L 149.00 162.67 C 149.02 161.81 148.35 161.09 147.49 161.06 C 146.62 161.03 145.90 161.71 145.88 162.57 Z M 145.84 163.56 L 145.81 164.54 C 145.78 165.40 146.46 166.12 147.32 166.15 C 148.18 166.18 148.90 165.50 148.93 164.64 L 148.96 163.67 C 148.99 162.81 148.32 162.08 147.46 162.06 C 146.60 162.03 145.87 162.70 145.84 163.56 Z M 145.81 164.53 L 145.77 165.54 C 145.74 166.40 146.41 167.13 147.28 167.16 C 148.14 167.19 148.86 166.52 148.89 165.66 L 148.93 164.65 C 148.96 163.79 148.29 163.06 147.43 163.03 C 146.57 163.00 145.84 163.67 145.81 164.53 Z M 145.77 165.54 L 145.73 166.53 C 145.70 167.39 146.37 168.12 147.23 168.15 C 148.09 168.19 148.82 167.52 148.85 166.66 L 148.89 165.66 C 148.93 164.80 148.26 164.07 147.40 164.04 C 146.53 164.00 145.81 164.67 145.77 165.54 Z M 145.73 166.53 L 145.69 167.52 C 145.66 168.38 146.33 169.11 147.19 169.15 C 148.05 169.18 148.78 168.51 148.81 167.65 L 148.85 166.66 C 148.89 165.80 148.22 165.07 147.36 165.03 C 146.50 165.00 145.77 165.67 145.73 166.53 Z M 145.69 167.52 L 145.65 168.51 C 145.62 169.37 146.28 170.10 147.15 170.14 C 148.01 170.17 148.74 169.50 148.77 168.64 L 148.81 167.65 C 148.85 166.79 148.18 166.06 147.32 166.03 C 146.46 165.99 145.73 166.66 145.69 167.52 Z M 145.65 168.51 L 145.61 169.50 C 145.58 170.37 146.25 171.09 147.11 171.13 C 147.97 171.16 148.70 170.49 148.73 169.63 L 148.77 168.64 C 148.81 167.78 148.14 167.05 147.28 167.02 C 146.41 166.98 145.69 167.65 145.65 168.51 Z M 145.61 169.51 L 145.57 170.51 C 145.54 171.37 146.21 172.09 147.07 172.13 C 147.93 172.16 148.66 171.49 148.69 170.63 L 148.73 169.63 C 148.76 168.77 148.09 168.04 147.23 168.01 C 146.37 167.97 145.64 168.64 145.61 169.51 Z M 145.57 170.51 L 145.53 171.52 C 145.50 172.38 146.18 173.11 147.04 173.14 C 147.90 173.17 148.62 172.50 148.65 171.64 L 148.69 170.63 C 148.72 169.76 148.05 169.04 147.19 169.01 C 146.33 168.98 145.60 169.65 145.57 170.51 Z M 145.53 171.53 L 145.50 172.52 C 145.47 173.38 146.15 174.10 147.01 174.13 C 147.87 174.16 148.59 173.49 148.62 172.63 L 148.65 171.63 C 148.68 170.77 148.01 170.05 147.15 170.02 C 146.29 169.99 145.56 170.67 145.53 171.53 Z M 145.50 172.52 L 145.47 173.52 C 145.44 174.38 146.12 175.10 146.98 175.13 C 147.84 175.16 148.56 174.48 148.59 173.62 L 148.62 172.62 C 148.65 171.76 147.97 171.04 147.11 171.01 C 146.25 170.99 145.53 171.66 145.50 172.52 Z M 145.47 173.52 L 145.44 174.53 C 145.41 175.39 146.08 176.11 146.95 176.14 C 147.81 176.16 148.53 175.49 148.56 174.63 L 148.59 173.62 C 148.62 172.76 147.94 172.04 147.08 172.01 C 146.22 171.98 145.50 172.66 145.47 173.52 Z M 145.44 174.52 L 145.40 175.53 C 145.37 176.39 146.05 177.11 146.91 177.14 C 147.77 177.17 148.49 176.49 148.52 175.63 L 148.56 174.63 C 148.59 173.77 147.91 173.04 147.05 173.02 C 146.19 172.99 145.46 173.66 145.44 174.52 Z M 145.40 175.52 L 145.37 176.52 C 145.33 177.38 146.01 178.10 146.87 178.13 C 147.73 178.16 148.45 177.49 148.49 176.63 L 148.52 175.64 C 148.55 174.77 147.88 174.05 147.02 174.02 C 146.16 173.99 145.43 174.66 145.40 175.52 Z M 145.37 176.51 L 145.33 177.51 C 145.29 178.37 145.96 179.10 146.82 179.13 C 147.68 179.17 148.41 178.50 148.45 177.63 L 148.49 176.64 C 148.52 175.78 147.85 175.05 146.99 175.01 C 146.13 174.98 145.40 175.65 145.37 176.51 Z M 145.33 177.50 L 145.28 178.50 C 145.24 179.36 145.91 180.09 146.77 180.13 C 147.63 180.17 148.36 179.51 148.40 178.64 L 148.44 177.64 C 148.48 176.78 147.82 176.05 146.96 176.01 C 146.10 175.97 145.37 176.64 145.33 177.50 Z M 145.28 178.49 L 145.23 179.49 C 145.18 180.35 145.84 181.09 146.70 181.13 C 147.56 181.18 148.30 180.52 148.35 179.65 L 148.40 178.66 C 148.44 177.79 147.78 177.06 146.92 177.01 C 146.06 176.97 145.33 177.63 145.28 178.49 Z M 145.23 179.48 L 145.17 180.48 C 145.12 181.34 145.78 182.08 146.64 182.13 C 147.50 182.18 148.24 181.52 148.29 180.66 L 148.34 179.66 C 148.39 178.80 147.74 178.06 146.88 178.01 C 146.02 177.96 145.28 178.62 145.23 179.48 Z M 145.17 180.48 L 145.11 181.48 C 145.06 182.34 145.72 183.08 146.58 183.13 C 147.44 183.18 148.18 182.52 148.23 181.66 L 148.29 180.66 C 148.34 179.80 147.68 179.06 146.82 179.01 C 145.96 178.96 145.22 179.61 145.17 180.48 Z M 145.11 181.48 L 145.05 182.48 C 145.00 183.34 145.66 184.08 146.52 184.13 C 147.38 184.18 148.12 183.52 148.17 182.66 L 148.23 181.66 C 148.28 180.80 147.62 180.06 146.76 180.01 C 145.90 179.96 145.16 180.62 145.11 181.48 Z M 145.05 182.49 L 145.00 183.49 C 144.96 184.35 145.62 185.09 146.48 185.13 C 147.34 185.17 148.08 184.51 148.12 183.65 L 148.17 182.65 C 148.22 181.79 147.55 181.06 146.69 181.01 C 145.83 180.97 145.10 181.63 145.05 182.49 Z M 145.00 183.50 L 144.96 184.50 C 144.92 185.36 145.58 186.09 146.45 186.13 C 147.31 186.17 148.04 185.50 148.08 184.64 L 148.12 183.64 C 148.16 182.78 147.49 182.05 146.63 182.01 C 145.77 181.97 145.04 182.64 145.00 183.50 Z M 144.96 184.51 L 144.92 185.51 C 144.88 186.37 145.55 187.09 146.42 187.13 C 147.28 187.16 148.00 186.49 148.04 185.63 L 148.08 184.63 C 148.11 183.77 147.44 183.04 146.58 183.01 C 145.72 182.98 144.99 183.65 144.96 184.51 Z M 144.92 185.51 L 144.88 186.51 C 144.85 187.37 145.52 188.10 146.39 188.13 C 147.25 188.16 147.97 187.48 148.00 186.62 L 148.04 185.62 C 148.07 184.76 147.39 184.04 146.53 184.01 C 145.67 183.98 144.95 184.65 144.92 185.51 Z M 144.88 186.52 L 144.85 187.52 C 144.82 188.38 145.50 189.10 146.36 189.13 C 147.22 189.16 147.94 188.48 147.97 187.62 L 148.00 186.62 C 148.03 185.76 147.35 185.04 146.49 185.01 C 145.63 184.98 144.91 185.65 144.88 186.52 Z M 144.85 187.52 L 144.81 188.52 C 144.79 189.38 145.46 190.10 146.32 190.13 C 147.18 190.16 147.91 189.49 147.93 188.62 L 147.97 187.62 C 148.00 186.76 147.32 186.04 146.46 186.01 C 145.60 185.98 144.88 186.66 144.85 187.52 Z M 144.81 188.51 L 144.78 189.51 C 144.74 190.37 145.42 191.10 146.28 191.13 C 147.14 191.16 147.86 190.49 147.90 189.63 L 147.93 188.63 C 147.97 187.77 147.30 187.05 146.43 187.01 C 145.57 186.98 144.85 187.65 144.81 188.51 Z M 144.78 189.50 L 144.73 190.49 C 144.69 191.35 145.35 192.08 146.22 192.12 C 147.08 192.16 147.81 191.50 147.85 190.64 L 147.90 189.65 C 147.94 188.78 147.27 188.05 146.41 188.01 C 145.55 187.97 144.82 188.64 144.78 189.50 Z M 144.73 190.47 L 144.67 191.48 C 144.62 192.34 145.28 193.08 146.14 193.13 C 147.00 193.18 147.74 192.52 147.79 191.66 L 147.85 190.66 C 147.90 189.80 147.24 189.06 146.38 189.01 C 145.52 188.96 144.78 189.61 144.73 190.47 Z M 144.67 191.47 L 144.61 192.47 C 144.55 193.33 145.20 194.07 146.06 194.13 C 146.92 194.18 147.67 193.53 147.72 192.67 L 147.79 191.67 C 147.84 190.81 147.19 190.07 146.33 190.01 C 145.47 189.96 144.73 190.61 144.67 191.47 Z M 144.61 192.47 L 144.54 193.46 C 144.49 194.32 145.14 195.07 146.00 195.12 C 146.86 195.18 147.60 194.52 147.66 193.66 L 147.72 192.67 C 147.78 191.81 147.13 191.07 146.27 191.01 C 145.41 190.96 144.66 191.61 144.61 192.47 Z M 144.54 193.47 L 144.49 194.47 C 144.44 195.33 145.10 196.07 145.96 196.11 C 146.82 196.16 147.56 195.51 147.60 194.64 L 147.66 193.65 C 147.71 192.79 147.05 192.05 146.19 192.00 C 145.33 191.96 144.59 192.61 144.54 193.47 Z M 144.49 194.48 L 144.44 195.48 C 144.40 196.34 145.07 197.07 145.93 197.11 C 146.79 197.15 147.52 196.48 147.56 195.62 L 147.60 194.63 C 147.64 193.77 146.98 193.04 146.12 193.00 C 145.26 192.96 144.53 193.62 144.49 194.48 Z M 144.44 195.49 L 144.40 196.48 C 144.36 197.34 145.03 198.07 145.89 198.11 C 146.75 198.14 147.48 197.48 147.52 196.61 L 147.56 195.62 C 147.60 194.75 146.93 194.03 146.06 193.99 C 145.20 193.96 144.48 194.62 144.44 195.49 Z M 144.40 196.48 L 144.35 197.48 C 144.32 198.34 144.98 199.07 145.84 199.11 C 146.71 199.15 147.43 198.48 147.47 197.62 L 147.52 196.62 C 147.56 195.76 146.89 195.03 146.03 194.99 C 145.17 194.95 144.44 195.62 144.40 196.48 Z M 144.35 197.47 L 144.30 198.47 C 144.25 199.33 144.92 200.07 145.78 200.11 C 146.64 200.16 147.37 199.50 147.42 198.64 L 147.47 197.63 C 147.52 196.77 146.86 196.04 146.00 195.99 C 145.14 195.95 144.40 196.61 144.35 197.47 Z M 144.30 198.45 L 144.24 199.46 C 144.18 200.32 144.84 201.06 145.70 201.11 C 146.56 201.17 147.30 200.52 147.35 199.66 L 147.42 198.65 C 147.47 197.79 146.82 197.05 145.96 197.00 C 145.10 196.94 144.36 197.59 144.30 198.45 Z M 144.24 199.45 L 144.17 200.45 C 144.11 201.31 144.76 202.05 145.62 202.11 C 146.48 202.17 147.22 201.53 147.28 200.67 L 147.35 199.67 C 147.41 198.81 146.77 198.06 145.91 198.00 C 145.05 197.94 144.30 198.59 144.24 199.45 Z M 144.17 200.44 L 144.10 201.43 C 144.03 202.29 144.68 203.04 145.54 203.11 C 146.40 203.17 147.15 202.52 147.21 201.66 L 147.28 200.67 C 147.35 199.81 146.70 199.06 145.84 199.00 C 144.98 198.94 144.23 199.58 144.17 200.44 Z M 144.10 201.43 L 144.02 202.44 C 143.96 203.30 144.60 204.04 145.46 204.11 C 146.32 204.17 147.07 203.52 147.14 202.66 L 147.21 201.66 C 147.27 200.80 146.63 200.05 145.77 199.99 C 144.91 199.93 144.16 200.57 144.10 201.43 Z M 144.02 202.44 L 143.95 203.43 C 143.89 204.29 144.53 205.04 145.39 205.10 C 146.25 205.17 147.00 204.52 147.06 203.66 L 147.14 202.66 C 147.20 201.80 146.55 201.05 145.69 200.99 C 144.83 200.93 144.08 201.58 144.02 202.44 Z M 143.95 203.44 L 143.88 204.43 C 143.82 205.29 144.47 206.04 145.33 206.10 C 146.19 206.16 146.93 205.51 146.99 204.65 L 147.06 203.66 C 147.12 202.80 146.48 202.05 145.62 201.99 C 144.76 201.93 144.01 202.58 143.95 203.44 Z M 143.88 204.43 L 143.81 205.42 C 143.75 206.28 144.40 207.03 145.26 207.09 C 146.12 207.15 146.86 206.50 146.92 205.64 L 146.99 204.65 C 147.05 203.79 146.41 203.04 145.55 202.98 C 144.69 202.92 143.94 203.57 143.88 204.43 Z M 143.81 205.43 L 143.74 206.41 C 143.68 207.27 144.33 208.02 145.19 208.08 C 146.05 208.14 146.80 207.49 146.86 206.63 L 146.92 205.64 C 146.98 204.78 146.33 204.04 145.47 203.98 C 144.61 203.92 143.87 204.57 143.81 205.43 Z M 143.74 206.41 L 143.67 207.41 C 143.61 208.27 144.26 209.01 145.12 209.07 C 145.98 209.13 146.73 208.48 146.79 207.62 L 146.86 206.63 C 146.91 205.77 146.27 205.02 145.41 204.96 C 144.54 204.90 143.80 205.55 143.74 206.41 Z M 143.67 207.41 L 143.60 208.41 C 143.54 209.27 144.19 210.02 145.05 210.08 C 145.91 210.14 146.66 209.49 146.72 208.63 L 146.79 207.62 C 146.85 206.76 146.20 206.02 145.34 205.96 C 144.48 205.90 143.73 206.55 143.67 207.41 Z M 143.60 208.41 L 143.54 209.42 C 143.48 210.28 144.13 211.02 144.99 211.08 C 145.85 211.14 146.59 210.49 146.65 209.63 L 146.72 208.63 C 146.78 207.77 146.13 207.02 145.27 206.96 C 144.41 206.90 143.66 207.55 143.60 208.41 Z M 143.54 209.42 L 143.47 210.42 C 143.41 211.28 144.06 212.02 144.92 212.08 C 145.78 212.14 146.52 211.49 146.58 210.63 L 146.65 209.63 C 146.71 208.77 146.06 208.03 145.20 207.97 C 144.34 207.91 143.59 208.56 143.54 209.42 Z M 143.47 210.42 L 143.40 211.42 C 143.34 212.28 143.99 213.02 144.85 213.08 C 145.71 213.14 146.46 212.49 146.51 211.63 L 146.58 210.63 C 146.64 209.77 145.99 209.02 145.13 208.96 C 144.27 208.91 143.53 209.56 143.47 210.42 Z M 143.40 211.41 L 143.33 212.41 C 143.27 213.27 143.92 214.02 144.78 214.08 C 145.64 214.14 146.38 213.49 146.44 212.63 L 146.51 211.63 C 146.57 210.77 145.93 210.02 145.07 209.96 C 144.21 209.90 143.46 210.55 143.40 211.41 Z M 143.33 212.41 L 143.26 213.40 C 143.19 214.26 143.84 215.01 144.70 215.07 C 145.56 215.13 146.31 214.49 146.37 213.63 L 146.44 212.63 C 146.51 211.77 145.86 211.03 145.00 210.96 C 144.14 210.90 143.39 211.55 143.33 212.41 Z M 143.26 213.39 L 143.18 214.39 C 143.12 215.25 143.76 216.00 144.62 216.06 C 145.48 216.13 146.23 215.48 146.30 214.62 L 146.37 213.63 C 146.44 212.77 145.79 212.02 144.93 211.96 C 144.07 211.89 143.32 212.53 143.26 213.39 Z M 143.18 214.38 L 143.10 215.37 C 143.03 216.23 143.67 216.99 144.53 217.05 C 145.39 217.12 146.14 216.48 146.21 215.62 L 146.29 214.63 C 146.36 213.77 145.72 213.02 144.86 212.95 C 144.00 212.88 143.25 213.52 143.18 214.38 Z M 143.10 215.36 L 143.02 216.37 C 142.94 217.23 143.58 217.98 144.44 218.06 C 145.30 218.13 146.05 217.50 146.13 216.64 L 146.21 215.63 C 146.29 214.77 145.65 214.02 144.79 213.94 C 143.93 213.87 143.18 214.51 143.10 215.36 Z M 143.02 216.36 L 142.93 217.36 C 142.85 218.21 143.48 218.97 144.34 219.05 C 145.20 219.13 145.96 218.50 146.04 217.64 L 146.13 216.64 C 146.21 215.79 145.57 215.03 144.71 214.95 C 143.86 214.87 143.10 215.50 143.02 216.36 Z M 142.93 217.35 L 142.83 218.35 C 142.75 219.21 143.38 219.97 144.24 220.05 C 145.10 220.13 145.86 219.50 145.94 218.64 L 146.04 217.64 C 146.12 216.79 145.49 216.02 144.63 215.94 C 143.77 215.86 143.01 216.49 142.93 217.35 Z M 142.83 218.35 L 142.74 219.35 C 142.66 220.21 143.29 220.97 144.15 221.05 C 145.01 221.13 145.77 220.50 145.85 219.64 L 145.94 218.64 C 146.02 217.78 145.39 217.02 144.53 216.94 C 143.67 216.86 142.91 217.49 142.83 218.35 Z M 142.74 219.36 L 142.65 220.35 C 142.57 221.21 143.21 221.97 144.06 222.05 C 144.92 222.12 145.68 221.49 145.76 220.63 L 145.85 219.64 C 145.92 218.78 145.29 218.02 144.43 217.94 C 143.57 217.87 142.81 218.50 142.74 219.36 Z M 142.65 220.36 L 142.56 221.38 C 142.49 222.24 143.13 222.99 143.99 223.06 C 144.85 223.13 145.61 222.49 145.68 221.63 L 145.76 220.62 C 145.83 219.76 145.19 219.01 144.33 218.93 C 143.47 218.86 142.72 219.50 142.65 220.36 Z M 142.56 221.39 L 142.49 222.39 C 142.42 223.25 143.07 224.00 143.93 224.07 C 144.79 224.13 145.54 223.49 145.60 222.63 L 145.68 221.62 C 145.74 220.76 145.10 220.01 144.24 219.95 C 143.38 219.88 142.63 220.53 142.56 221.39 Z M 142.49 222.40 L 142.42 223.39 C 142.35 224.25 143.00 224.99 143.86 225.06 C 144.72 225.12 145.47 224.47 145.53 223.61 L 145.60 222.62 C 145.66 221.76 145.02 221.01 144.16 220.95 C 143.30 220.89 142.55 221.54 142.49 222.40 Z M 142.42 223.39 L 142.35 224.37 C 142.29 225.23 142.94 225.98 143.80 226.04 C 144.66 226.10 145.40 225.45 145.46 224.59 L 145.53 223.61 C 145.59 222.75 144.94 222.00 144.08 221.94 C 143.22 221.88 142.48 222.53 142.42 223.39 Z M 142.35 224.37 L 142.28 225.38 C 142.22 226.24 142.86 226.99 143.72 227.05 C 144.58 227.11 145.33 226.46 145.39 225.60 L 145.46 224.59 C 145.52 223.73 144.87 222.98 144.01 222.92 C 143.15 222.86 142.41 223.51 142.35 224.37 Z M 142.28 225.38 L 142.20 226.38 C 142.14 227.24 142.79 227.99 143.65 228.05 C 144.51 228.11 145.26 227.46 145.32 226.60 L 145.39 225.60 C 145.45 224.74 144.80 224.00 143.94 223.93 C 143.08 223.87 142.34 224.52 142.28 225.38 Z M 142.21 226.38 L 142.13 227.37 C 142.07 228.23 142.72 228.97 143.58 229.03 C 144.44 229.10 145.19 228.45 145.25 227.59 L 145.32 226.60 C 145.38 225.74 144.73 224.99 143.87 224.93 C 143.01 224.87 142.27 225.52 142.21 226.38 Z M 142.13 227.36 L 142.06 228.36 C 142.00 229.22 142.64 229.97 143.50 230.03 C 144.36 230.09 145.11 229.45 145.18 228.59 L 145.25 227.59 C 145.31 226.73 144.66 225.98 143.80 225.92 C 142.94 225.86 142.20 226.50 142.13 227.36 Z M 142.06 228.36 L 141.99 229.36 C 141.92 230.22 142.57 230.96 143.43 231.03 C 144.29 231.09 145.04 230.45 145.10 229.59 L 145.18 228.59 C 145.24 227.73 144.59 226.98 143.73 226.92 C 142.87 226.85 142.13 227.50 142.06 228.36 Z M 141.99 229.35 L 141.91 230.35 C 141.85 231.21 142.49 231.96 143.35 232.02 C 144.21 232.09 144.96 231.44 145.03 230.58 L 145.10 229.59 C 145.17 228.73 144.52 227.98 143.66 227.91 C 142.80 227.85 142.05 228.49 141.99 229.35 Z M 141.91 230.34 L 141.84 231.33 C 141.77 232.19 142.41 232.94 143.27 233.00 C 144.13 233.07 144.88 232.43 144.95 231.57 L 145.03 230.59 C 145.09 229.73 144.45 228.98 143.59 228.91 C 142.73 228.84 141.98 229.48 141.91 230.34 Z M 141.84 231.32 L 141.76 232.21 C 141.70 233.07 142.34 233.82 143.20 233.89 C 144.06 233.96 144.81 233.32 144.88 232.46 L 144.95 231.57 C 145.02 230.71 144.38 229.96 143.52 229.89 C 142.66 229.82 141.91 230.46 141.84 231.32 Z M 141.77 232.20 L 141.69 233.14 C 141.62 234.00 142.26 234.75 143.12 234.82 C 143.98 234.89 144.73 234.26 144.80 233.40 L 144.88 232.46 C 144.95 231.60 144.31 230.85 143.45 230.78 C 142.59 230.71 141.84 231.34 141.77 232.20 Z M 141.69 233.14 L 141.60 234.17 C 141.53 235.03 142.17 235.79 143.03 235.86 C 143.89 235.93 144.64 235.29 144.71 234.43 L 144.80 233.40 C 144.87 232.54 144.23 231.78 143.37 231.71 C 142.51 231.64 141.76 232.28 141.69 233.14 Z M 141.60 234.18 L 141.51 235.30 C 141.44 236.16 142.08 236.91 142.94 236.98 C 143.80 237.05 144.55 236.41 144.62 235.55 L 144.71 234.43 C 144.79 233.57 144.15 232.82 143.29 232.75 C 142.43 232.68 141.67 233.32 141.60 234.18 Z M 141.51 235.30 L 141.44 236.21 C 141.37 237.07 142.01 237.82 142.87 237.89 C 143.73 237.96 144.48 237.32 144.55 236.46 L 144.62 235.55 C 144.69 234.69 144.05 233.94 143.19 233.87 C 142.33 233.80 141.58 234.44 141.51 235.30 Z M 141.44 236.21 L 141.36 237.18 C 141.29 238.04 141.93 238.79 142.79 238.86 C 143.64 238.93 144.40 238.29 144.47 237.43 L 144.55 236.46 C 144.62 235.60 143.98 234.85 143.12 234.78 C 142.26 234.71 141.51 235.35 141.44 236.21 Z M 141.36 237.18 L 141.27 238.19 C 141.20 239.05 141.84 239.80 142.70 239.88 C 143.56 239.95 144.31 239.31 144.38 238.45 L 144.47 237.43 C 144.54 236.57 143.90 235.82 143.04 235.75 C 142.18 235.68 141.43 236.32 141.36 237.18 Z M 141.27 238.19 L 141.19 239.23 C 141.11 240.09 141.75 240.84 142.61 240.92 C 143.47 240.99 144.22 240.35 144.30 239.49 L 144.38 238.45 C 144.46 237.59 143.82 236.84 142.96 236.76 C 142.10 236.69 141.35 237.33 141.27 238.19 Z M 141.19 239.23 L 141.10 240.27 C 141.02 241.13 141.66 241.89 142.52 241.96 C 143.38 242.04 144.13 241.40 144.21 240.54 L 144.30 239.49 C 144.37 238.64 143.73 237.88 142.88 237.81 C 142.02 237.73 141.26 238.37 141.19 239.23 Z M 141.10 240.27 L 141.00 241.31 C 140.93 242.17 141.56 242.93 142.42 243.01 C 143.28 243.08 144.04 242.45 144.11 241.59 L 144.21 240.54 C 144.28 239.69 143.65 238.93 142.79 238.85 C 141.93 238.77 141.17 239.41 141.10 240.27 Z M 141.00 241.31 L 140.91 242.35 C 140.83 243.21 141.46 243.97 142.32 244.05 C 143.17 244.13 143.94 243.50 144.01 242.64 L 144.11 241.60 C 144.19 240.74 143.56 239.98 142.70 239.90 C 141.84 239.82 141.08 240.45 141.00 241.31 Z M 140.91 242.35 L 140.81 243.36 C 140.73 244.22 141.36 244.98 142.21 245.07 C 143.07 245.15 143.83 244.52 143.92 243.66 L 144.01 242.65 C 144.10 241.79 143.47 241.02 142.61 240.94 C 141.75 240.86 140.99 241.49 140.91 242.35 Z M 140.81 243.36 L 140.71 244.35 C 140.63 245.21 141.25 245.97 142.11 246.06 C 142.97 246.14 143.73 245.51 143.82 244.66 L 143.92 243.67 C 144.00 242.81 143.37 242.04 142.52 241.96 C 141.66 241.87 140.89 242.50 140.81 243.36 Z M 140.71 244.35 L 140.61 245.31 C 140.53 246.17 141.15 246.93 142.01 247.02 C 142.87 247.11 143.63 246.48 143.72 245.62 L 143.82 244.66 C 143.91 243.80 143.28 243.04 142.42 242.95 C 141.56 242.86 140.80 243.49 140.71 244.35 Z M 140.62 245.31 L 140.52 246.25 C 140.43 247.10 141.05 247.87 141.91 247.96 C 142.77 248.05 143.54 247.42 143.62 246.57 L 143.72 245.63 C 143.81 244.77 143.19 244.00 142.33 243.91 C 141.47 243.83 140.70 244.45 140.62 245.31 Z M 140.52 246.25 L 140.41 247.30 C 140.32 248.16 140.94 248.92 141.80 249.01 C 142.66 249.10 143.43 248.48 143.51 247.62 L 143.62 246.57 C 143.71 245.71 143.09 244.94 142.23 244.85 C 141.38 244.76 140.61 245.39 140.52 246.25 Z M 140.41 247.30 L 140.30 248.33 C 140.21 249.19 140.84 249.96 141.69 250.05 C 142.55 250.14 143.32 249.51 143.41 248.65 L 143.51 247.62 C 143.60 246.76 142.98 246.00 142.12 245.91 C 141.27 245.82 140.50 246.44 140.41 247.30 Z M 140.30 248.33 L 140.20 249.33 C 140.11 250.19 140.74 250.95 141.59 251.04 C 142.45 251.13 143.22 250.51 143.31 249.65 L 143.41 248.65 C 143.50 247.79 142.87 247.03 142.01 246.94 C 141.16 246.85 140.39 247.48 140.30 248.33 Z M 140.20 249.34 L 140.11 250.29 C 140.02 251.15 140.65 251.91 141.51 252.00 C 142.36 252.08 143.13 251.46 143.21 250.60 L 143.31 249.64 C 143.39 248.78 142.76 248.02 141.91 247.94 C 141.05 247.85 140.28 248.48 140.20 249.34 Z M 140.10 250.30 L 140.02 251.24 C 139.94 252.10 140.57 252.86 141.43 252.94 C 142.29 253.02 143.05 252.39 143.13 251.53 L 143.21 250.59 C 143.29 249.73 142.66 248.97 141.80 248.89 C 140.94 248.81 140.18 249.44 140.10 250.30 Z M 140.02 251.25 L 139.93 252.26 C 139.86 253.12 140.50 253.88 141.35 253.95 C 142.21 254.02 142.97 253.38 143.04 252.52 L 143.13 251.51 C 143.20 250.66 142.56 249.90 141.70 249.83 C 140.84 249.76 140.09 250.39 140.02 251.25 Z M 139.93 252.27 L 139.85 253.25 C 139.79 254.11 140.43 254.86 141.29 254.93 C 142.15 255.00 142.90 254.36 142.97 253.50 L 143.04 252.52 C 143.11 251.66 142.47 250.90 141.61 250.84 C 140.75 250.77 140.00 251.41 139.93 252.27 Z M 139.85 253.26 L 139.78 254.24 C 139.71 255.10 140.36 255.85 141.22 255.91 C 142.08 255.98 142.83 255.33 142.89 254.47 L 142.97 253.49 C 143.03 252.63 142.39 251.88 141.53 251.82 C 140.67 251.75 139.92 252.40 139.85 253.26 Z M 139.78 254.24 L 139.70 255.23 C 139.63 256.09 140.28 256.84 141.14 256.91 C 142.00 256.98 142.75 256.33 142.81 255.47 L 142.89 254.48 C 142.96 253.62 142.31 252.87 141.46 252.80 C 140.60 252.73 139.84 253.38 139.78 254.24 Z M 139.70 255.23 L 139.63 256.19 C 139.56 257.05 140.20 257.80 141.06 257.87 C 141.92 257.94 142.67 257.29 142.74 256.43 L 142.81 255.48 C 142.88 254.62 142.24 253.87 141.38 253.80 C 140.52 253.73 139.77 254.37 139.70 255.23 Z M 139.62 256.19 L 139.55 257.18 C 139.48 258.04 140.12 258.79 140.98 258.86 C 141.84 258.92 142.59 258.28 142.66 257.42 L 142.74 256.43 C 142.80 255.57 142.16 254.82 141.30 254.75 C 140.44 254.69 139.69 255.33 139.62 256.19 Z M 139.55 257.19 L 139.48 258.20 C 139.42 259.06 140.06 259.81 140.93 259.87 C 141.79 259.93 142.53 259.28 142.59 258.42 L 142.66 257.41 C 142.72 256.55 142.07 255.80 141.21 255.74 C 140.35 255.68 139.61 256.33 139.55 257.19 Z M 139.48 258.22 L 139.42 259.25 C 139.37 260.11 140.02 260.85 140.88 260.90 C 141.75 260.95 142.48 260.29 142.53 259.43 L 142.59 258.40 C 142.64 257.54 141.98 256.80 141.12 256.75 C 140.26 256.71 139.53 257.36 139.48 258.22 Z M 139.41 259.28 L 139.37 260.33 C 139.34 261.19 140.01 261.92 140.87 261.95 C 141.73 261.99 142.46 261.32 142.49 260.45 L 142.53 259.40 C 142.57 258.54 141.90 257.82 141.04 257.78 C 140.18 257.75 139.45 258.42 139.41 259.28 Z M 139.37 260.35 L 139.35 261.40 C 139.33 262.26 140.01 262.98 140.87 263.00 C 141.73 263.02 142.45 262.34 142.47 261.48 L 142.49 260.43 C 142.51 259.57 141.83 258.85 140.97 258.83 C 140.11 258.81 139.39 259.49 139.37 260.35 Z M 139.35 261.42 L 139.33 262.44 C 139.32 263.30 140.01 264.00 140.88 264.02 C 141.74 264.03 142.45 263.33 142.46 262.47 L 142.47 261.46 C 142.48 260.59 141.79 259.89 140.93 259.88 C 140.06 259.87 139.36 260.56 139.35 261.42 Z M 139.33 262.45 L 139.33 263.41 C 139.33 264.28 140.02 264.98 140.88 264.98 C 141.75 264.98 142.45 264.29 142.45 263.43 L 142.46 262.46 C 142.46 261.60 141.76 260.90 140.90 260.89 C 140.04 260.89 139.34 261.59 139.33 262.45 Z M 139.33 263.42 L 139.33 264.43 C 139.33 265.29 140.03 265.99 140.89 265.99 C 141.75 265.99 142.45 265.29 142.45 264.43 L 142.45 263.42 C 142.45 262.56 141.75 261.86 140.89 261.86 C 140.03 261.86 139.33 262.56 139.33 263.42 Z M 139.33 264.44 L 139.34 265.59 C 139.34 266.45 140.04 267.15 140.91 267.14 C 141.77 267.14 142.46 266.44 142.46 265.57 L 142.45 264.42 C 142.45 263.56 141.74 262.86 140.88 262.87 C 140.02 262.87 139.32 263.57 139.33 264.44 Z M 139.34 265.64 L 139.37 266.57 C 139.40 267.44 140.12 268.11 140.98 268.08 C 141.85 268.05 142.52 267.33 142.49 266.47 L 142.46 265.53 C 142.43 264.67 141.70 263.99 140.84 264.02 C 139.98 264.05 139.31 264.78 139.34 265.64 Z M 139.38 266.74 L 139.51 267.67 C 139.63 268.52 140.42 269.12 141.28 269.00 C 142.13 268.88 142.73 268.09 142.61 267.23 L 142.48 266.30 C 142.36 265.45 141.57 264.85 140.71 264.97 C 139.86 265.09 139.26 265.88 139.38 266.74 Z M 139.64 268.10 L 139.98 268.84 C 140.34 269.63 141.27 269.97 142.05 269.61 C 142.84 269.25 143.18 268.32 142.82 267.54 L 142.48 266.80 C 142.12 266.01 141.19 265.67 140.41 266.03 C 139.63 266.39 139.28 267.32 139.64 268.10 Z"
      fill="black"
      fill-rule="nonzero" /></svg>