<svg xmlns="http://www.w3.org/2000/svg" width="300" height="300" viewBox="0 0 300 300">
<path d="M 150.29 90.99 L 149.93 91.92 C 149.62 92.73 150.02 93.63 150.82 93.94 C 151.62 94.26 152.53 93.86 152.84 93.05 L 153.20 92.12 C 153.52 91.32 153.12 90.41 152.31 90.10 C 151.51 89.79 150.61 90.19 150.29 90.99 Z M 149.92 91.95 L 149.58 92.89 C 149.28 93.70 149.70 94.60 150.51 94.89 C 151.32 95.19 152.21 94.77 152.51 93.97 L 152.85 93.03 C 153.15 92.22 152.73 91.32 151.92 91.02 C 151.11 90.73 150.22 91.14 149.92 91.95 Z M 149.56 92.95 L 149.25 93.90 C 148.99 94.72 149.44 95.60 150.26 95.86 C 151.08 96.13 151.96 95.68 152.22 94.86 L 152.53 93.91 C 152.79 93.09 152.34 92.21 151.52 91.94 C 150.70 91.68 149.82 92.13 149.56 92.95 Z M 149.22 93.99 L 148.98 94.93 C 148.76 95.77 149.27 96.62 150.10 96.84 C 150.94 97.05 151.79 96.55 152.00 95.72 L 152.25 94.77 C 152.46 93.93 151.96 93.08 151.13 92.87 C 150.29 92.65 149.44 93.15 149.22 93.99 Z M 148.96 95.03 L 148.78 95.96 C 148.62 96.80 149.17 97.62 150.02 97.78 C 150.87 97.95 151.69 97.39 151.85 96.54 L 152.03 95.62 C 152.19 94.77 151.63 93.95 150.79 93.79 C 149.94 93.63 149.12 94.18 148.96 95.03 Z M 148.77 96.03 L 148.63 97.00 C 148.51 97.86 149.11 98.65 149.96 98.77 C 150.82 98.89 151.60 98.29 151.72 97.44 L 151.86 96.47 C 151.98 95.61 151.39 94.82 150.53 94.71 C 149.68 94.59 148.89 95.18 148.77 96.03 Z M 148.63 97.05 L 148.52 98.09 C 148.43 98.94 149.05 99.71 149.90 99.80 C 150.76 99.89 151.53 99.27 151.62 98.42 L 151.73 97.38 C 151.82 96.53 151.20 95.76 150.34 95.67 C 149.49 95.58 148.72 96.20 148.63 97.05 Z M 148.51 98.11 L 148.42 99.13 C 148.35 99.98 148.98 100.74 149.84 100.82 C 150.70 100.89 151.46 100.26 151.53 99.40 L 151.62 98.39 C 151.70 97.53 151.07 96.77 150.21 96.70 C 149.35 96.62 148.59 97.25 148.51 98.11 Z M 148.42 99.14 L 148.35 100.04 C 148.28 100.90 148.92 101.66 149.78 101.72 C 150.64 101.79 151.40 101.15 151.46 100.29 L 151.54 99.39 C 151.60 98.53 150.96 97.78 150.10 97.71 C 149.24 97.64 148.49 98.28 148.42 99.14 Z M 148.35 100.06 L 148.28 101.02 C 148.22 101.88 148.87 102.62 149.73 102.68 C 150.59 102.74 151.34 102.10 151.40 101.24 L 151.47 100.28 C 151.53 99.42 150.88 98.67 150.02 98.61 C 149.16 98.55 148.41 99.20 148.35 100.06 Z M 148.28 101.03 L 148.22 102.05 C 148.17 102.91 148.83 103.65 149.69 103.70 C 150.55 103.75 151.29 103.09 151.34 102.23 L 151.40 101.22 C 151.45 100.36 150.79 99.62 149.93 99.57 C 149.07 99.52 148.33 100.17 148.28 101.03 Z M 148.22 102.06 L 148.17 103.13 C 148.13 103.99 148.79 104.72 149.65 104.77 C 150.52 104.81 151.25 104.14 151.29 103.28 L 151.34 102.21 C 151.38 101.35 150.72 100.62 149.85 100.58 C 148.99 100.54 148.26 101.20 148.22 102.06 Z M 148.17 103.15 L 148.13 104.25 C 148.10 105.11 148.77 105.84 149.64 105.87 C 150.50 105.90 151.22 105.22 151.25 104.36 L 151.29 103.26 C 151.32 102.40 150.65 101.68 149.78 101.65 C 148.92 101.62 148.20 102.29 148.17 103.15 Z M 148.13 104.27 L 148.11 105.31 C 148.09 106.17 148.77 106.89 149.63 106.91 C 150.49 106.93 151.21 106.25 151.23 105.38 L 151.25 104.34 C 151.27 103.48 150.59 102.76 149.73 102.74 C 148.87 102.72 148.15 103.41 148.13 104.27 Z M 148.11 105.32 L 148.09 106.38 C 148.08 107.24 148.76 107.95 149.63 107.96 C 150.49 107.97 151.20 107.29 151.21 106.42 L 151.23 105.37 C 151.24 104.51 150.55 103.80 149.69 103.79 C 148.83 103.77 148.12 104.46 148.11 105.32 Z M 148.09 106.39 L 148.08 107.43 C 148.07 108.29 148.77 109.00 149.63 109.00 C 150.49 109.01 151.19 108.32 151.20 107.46 L 151.21 106.41 C 151.22 105.55 150.53 104.85 149.66 104.84 C 148.80 104.83 148.10 105.53 148.09 106.39 Z M 148.08 107.44 L 148.08 108.44 C 148.07 109.30 148.77 110.00 149.63 110.00 C 150.49 110.01 151.19 109.31 151.20 108.45 L 151.20 107.45 C 151.21 106.59 150.51 105.88 149.65 105.88 C 148.79 105.88 148.08 106.57 148.08 107.44 Z M 148.08 108.44 L 148.07 109.38 C 148.07 110.24 148.77 110.94 149.63 110.94 C 150.50 110.94 151.20 110.24 151.20 109.38 L 151.20 108.45 C 151.20 107.58 150.50 106.88 149.64 106.88 C 148.78 106.88 148.08 107.58 148.08 108.44 Z M 148.07 109.38 L 148.07 110.41 C 148.07 111.27 148.77 111.97 149.64 111.97 C 150.50 111.97 151.20 111.27 151.20 110.41 L 151.20 109.38 C 151.20 108.52 150.50 107.82 149.64 107.82 C 148.77 107.82 148.07 108.52 148.07 109.38 Z M 148.07 110.41 L 148.07 111.53 C 148.07 112.39 148.77 113.09 149.64 113.09 C 150.50 113.09 151.20 112.39 151.20 111.53 L 151.20 110.41 C 151.20 109.55 150.50 108.85 149.64 108.85 C 148.77 108.85 148.07 109.55 148.07 110.41 Z M 148.07 111.53 L 148.07 112.48 C 148.07 113.34 148.77 114.04 149.64 114.04 C 150.50 114.04 151.20 113.34 151.20 112.48 L 151.20 111.53 C 151.20 110.67 150.50 109.97 149.64 109.97 C 148.77 109.97 148.07 110.67 148.07 111.53 Z M 148.07 112.48 L 148.07 113.34 C 148.07 114.20 148.77 114.90 149.64 114.90 C 150.50 114.90 151.20 114.20 151.20 113.34 L 151.20 112.48 C 151.20 111.62 150.50 110.92 149.64 110.92 C 148.77 110.92 148.07 111.62 148.07 112.48 Z M 148.07 113.34 L 148.07 114.29 C 148.07 115.15 148.77 115.85 149.64 115.85 C 150.50 115.85 151.20 115.15 151.20 114.29 L 151.20 113.34 C 151.20 112.48 150.50 111.78 149.64 111.78 C 148.77 111.78 148.07 112.48 148.07 113.34 Z M 148.07 114.29 L 148.07 115.28 C 148.07 116.15 148.77 116.85 149.64 116.85 C 150.50 116.85 151.20 116.15 151.20 115.28 L 151.20 114.29 C 151.20 113.43 150.50 112.73 149.64 112.73 C 148.77 112.73 148.07 113.43 148.07 114.29 Z M 148.07 115.28 L 148.07 116.29 C 148.07 117.15 148.77 117.85 149.64 117.85 C 150.50 117.85 151.20 117.15 151.20 116.29 L 151.20 115.28 C 151.20 114.42 150.50 113.72 149.64 113.72 C 148.77 113.72 148.07 114.42 148.07 115.28 Z M 148.07 116.29 L 148.07 117.28 C 148.07 118.14 148.77 118.84 149.64 118.84 C 150.50 118.84 151.20 118.14 151.20 117.28 L 151.20 116.29 C 151.20 115.43 150.50 114.73 149.64 114.73 C 148.77 114.73 148.07 115.43 148.07 116.29 Z M 148.07 117.28 L 148.07 118.27 C 148.07 119.13 148.77 119.83 149.64 119.83 C 150.50 119.83 151.20 119.13 151.20 118.27 L 151.20 117.28 C 151.20 116.42 150.50 115.72 149.64 115.72 C 148.77 115.72 148.07 116.42 148.07 117.28 Z M 148.07 118.27 L 148.07 119.28 C 148.07 120.14 148.77 120.84 149.64 120.84 C 150.50 120.84 151.20 120.14 151.20 119.28 L 151.20 118.27 C 151.20 117.40 150.50 116.70 149.64 116.70 C 148.77 116.70 148.07 117.40 148.07 118.27 Z M 148.07 119.28 L 148.07 120.29 C 148.07 121.15 148.77 121.85 149.64 121.85 C 150.50 121.85 151.20 121.15 151.20 120.29 L 151.20 119.28 C 151.20 118.42 150.50 117.72 149.64 117.72 C 148.77 117.72 148.07 118.42 148.07 119.28 Z M 148.07 120.29 L 148.07 121.27 C 148.07 122.13 148.77 122.83 149.64 122.83 C 150.50 122.83 151.20 122.13 151.20 121.27 L 151.20 120.29 C 151.20 119.43 150.50 118.73 149.64 118.73 C 148.77 118.73 148.07 119.43 148.07 120.29 Z M 148.07 121.27 L 148.07 122.27 C 148.07 123.13 148.77 123.83 149.64 123.83 C 150.50 123.83 151.20 123.13 151.20 122.27 L 151.20 121.27 C 151.20 120.41 150.50 119.71 149.64 119.71 C 148.77 119.71 148.07 120.41 148.07 121.27 Z M 148.07 122.27 L 148.07 123.29 C 148.07 124.16 148.77 124.85 149.64 124.85 C 150.50 124.85 151.20 124.16 151.20 123.29 L 151.20 122.27 C 151.20 121.41 150.50 120.71 149.64 120.71 C 148.77 120.71 148.07 121.41 148.07 122.27 Z M 148.07 123.29 L 148.07 124.26 C 148.07 125.13 148.77 125.82 149.64 125.82 C 150.50 125.82 151.20 125.12 151.20 124.26 L 151.20 123.29 C 151.20 122.43 150.50 121.73 149.64 121.73 C 148.77 121.73 148.07 122.43 148.07 123.29 Z M 148.07 124.27 L 148.08 125.24 C 148.08 126.10 148.78 126.80 149.64 126.80 C 150.50 126.80 151.20 126.10 151.20 125.23 L 151.20 124.26 C 151.20 123.40 150.50 122.70 149.63 122.70 C 148.77 122.70 148.07 123.40 148.07 124.27 Z M 148.08 125.24 L 148.08 126.25 C 148.09 127.11 148.79 127.81 149.65 127.80 C 150.51 127.80 151.21 127.10 151.20 126.24 L 151.20 125.23 C 151.19 124.37 150.49 123.67 149.63 123.68 C 148.77 123.68 148.07 124.38 148.08 125.24 Z M 148.08 126.26 L 148.09 127.30 C 148.10 128.17 148.80 128.86 149.67 128.85 C 150.53 128.84 151.22 128.14 151.21 127.27 L 151.20 126.23 C 151.20 125.37 150.49 124.67 149.63 124.68 C 148.77 124.69 148.07 125.39 148.08 126.26 Z M 148.09 127.31 L 148.11 128.29 C 148.12 129.16 148.83 129.85 149.69 129.83 C 150.55 129.82 151.24 129.11 151.23 128.25 L 151.21 127.27 C 151.20 126.40 150.49 125.72 149.63 125.73 C 148.77 125.74 148.08 126.45 148.09 127.31 Z M 148.11 128.30 L 148.12 129.29 C 148.14 130.16 148.85 130.84 149.71 130.83 C 150.58 130.81 151.26 130.10 151.25 129.24 L 151.23 128.24 C 151.21 127.38 150.50 126.69 149.64 126.71 C 148.77 126.73 148.09 127.44 148.11 128.30 Z M 148.12 129.30 L 148.15 130.31 C 148.17 131.17 148.88 131.86 149.74 131.84 C 150.61 131.82 151.29 131.10 151.27 130.24 L 151.25 129.23 C 151.23 128.37 150.51 127.68 149.65 127.70 C 148.79 127.72 148.10 128.44 148.12 129.30 Z M 148.15 130.32 L 148.17 131.33 C 148.20 132.19 148.91 132.87 149.77 132.85 C 150.64 132.83 151.32 132.11 151.29 131.25 L 151.27 130.24 C 151.25 129.37 150.53 128.69 149.67 128.72 C 148.81 128.74 148.13 129.45 148.15 130.32 Z M 148.17 131.34 L 148.20 132.35 C 148.23 133.21 148.94 133.89 149.81 133.86 C 150.67 133.84 151.35 133.12 151.32 132.26 L 151.29 131.25 C 151.27 130.39 150.55 129.71 149.69 129.73 C 148.83 129.76 148.15 130.47 148.17 131.34 Z M 148.20 132.35 L 148.23 133.35 C 148.26 134.21 148.98 134.89 149.84 134.86 C 150.70 134.84 151.38 134.12 151.35 133.26 L 151.32 132.26 C 151.30 131.39 150.58 130.72 149.72 130.74 C 148.85 130.77 148.18 131.49 148.20 132.35 Z M 148.23 133.35 L 148.26 134.34 C 148.28 135.20 149.00 135.88 149.86 135.86 C 150.73 135.83 151.41 135.11 151.38 134.25 L 151.35 133.26 C 151.33 132.39 150.61 131.72 149.75 131.74 C 148.89 131.77 148.21 132.48 148.23 133.35 Z M 148.26 134.34 L 148.28 135.33 C 148.31 136.19 149.02 136.87 149.88 136.85 C 150.75 136.83 151.43 136.11 151.41 135.25 L 151.38 134.26 C 151.36 133.39 150.64 132.71 149.78 132.74 C 148.92 132.76 148.24 133.47 148.26 134.34 Z M 148.28 135.32 L 148.30 136.33 C 148.32 137.19 149.03 137.87 149.90 137.86 C 150.76 137.84 151.44 137.13 151.43 136.27 L 151.41 135.26 C 151.39 134.40 150.68 133.71 149.81 133.73 C 148.95 133.75 148.27 134.46 148.28 135.32 Z M 148.30 136.32 L 148.32 137.34 C 148.33 138.20 149.04 138.89 149.90 138.88 C 150.76 138.86 151.45 138.16 151.44 137.29 L 151.43 136.28 C 151.42 135.41 150.71 134.72 149.85 134.74 C 148.98 134.75 148.29 135.46 148.30 136.32 Z M 148.32 137.33 L 148.33 138.35 C 148.33 139.21 149.04 139.90 149.90 139.90 C 150.76 139.89 151.45 139.19 151.45 138.32 L 151.44 137.30 C 151.43 136.44 150.73 135.75 149.87 135.75 C 149.01 135.76 148.31 136.46 148.32 137.33 Z M 148.33 138.34 L 148.33 139.35 C 148.33 140.21 149.03 140.91 149.90 140.90 C 150.76 140.90 151.45 140.20 151.45 139.34 L 151.45 138.33 C 151.44 137.47 150.74 136.77 149.88 136.77 C 149.02 136.78 148.32 137.48 148.33 138.34 Z M 148.33 139.34 L 148.33 140.32 C 148.33 141.19 149.03 141.88 149.89 141.88 C 150.75 141.88 151.45 141.18 151.45 140.32 L 151.45 139.34 C 151.45 138.48 150.75 137.78 149.89 137.78 C 149.03 137.78 148.33 138.48 148.33 139.34 Z M 148.33 140.32 L 148.33 141.32 C 148.33 142.18 149.03 142.88 149.89 142.88 C 150.75 142.88 151.45 142.18 151.45 141.32 L 151.45 140.32 C 151.45 139.46 150.75 138.76 149.89 138.76 C 149.03 138.76 148.33 139.46 148.33 140.32 Z M 148.33 141.32 L 148.33 142.34 C 148.33 143.20 149.03 143.90 149.89 143.90 C 150.75 143.90 151.45 143.20 151.45 142.34 L 151.45 141.32 C 151.45 140.46 150.75 139.76 149.89 139.76 C 149.03 139.76 148.33 140.46 148.33 141.32 Z M 148.33 142.34 L 148.33 143.32 C 148.33 144.18 149.03 144.88 149.89 144.88 C 150.75 144.88 151.45 144.18 151.45 143.32 L 151.45 142.34 C 151.45 141.47 150.75 140.78 149.89 140.78 C 149.03 140.78 148.33 141.47 148.33 142.34 Z M 148.33 143.32 L 148.33 144.30 C 148.33 145.16 149.03 145.86 149.89 145.86 C 150.75 145.86 151.45 145.16 151.45 144.30 L 151.45 143.32 C 151.45 142.46 150.75 141.76 149.89 141.76 C 149.03 141.76 148.33 142.46 148.33 143.32 Z M 148.33 144.30 L 148.33 145.28 C 148.33 146.14 149.03 146.84 149.89 146.84 C 150.75 146.84 151.45 146.14 151.45 145.28 L 151.45 144.30 C 151.45 143.44 150.75 142.74 149.89 142.74 C 149.03 142.74 148.33 143.44 148.33 144.30 Z M 148.33 145.28 L 148.33 146.27 C 148.33 147.13 149.03 147.83 149.89 147.83 C 150.75 147.83 151.45 147.13 151.45 146.27 L 151.45 145.28 C 151.45 144.42 150.75 143.72 149.89 143.72 C 149.03 143.72 148.33 144.42 148.33 145.28 Z M 148.33 146.27 L 148.33 147.27 C 148.33 148.14 149.03 148.84 149.89 148.84 C 150.75 148.84 151.45 148.14 151.45 147.27 L 151.45 146.27 C 151.45 145.41 150.75 144.71 149.89 144.71 C 149.03 144.71 148.33 145.41 148.33 146.27 Z M 148.33 147.27 L 148.33 148.29 C 148.33 149.15 149.03 149.85 149.89 149.85 C 150.75 149.85 151.45 149.15 151.45 148.29 L 151.45 147.27 C 151.45 146.41 150.75 145.71 149.89 145.71 C 149.03 145.71 148.33 146.41 148.33 147.27 Z M 148.33 148.29 L 148.33 149.30 C 148.33 150.16 149.03 150.86 149.89 150.86 C 150.75 150.86 151.45 150.16 151.45 149.30 L 151.45 148.29 C 151.45 147.43 150.75 146.73 149.89 146.73 C 149.03 146.73 148.33 147.43 148.33 148.29 Z M 148.33 149.30 L 148.33 150.30 C 148.33 151.17 149.03 151.87 149.89 151.87 C 150.75 151.87 151.45 151.17 151.45 150.30 L 151.45 149.30 C 151.45 148.44 150.75 147.74 149.89 147.74 C 149.03 147.74 148.33 148.44 148.33 149.30 Z M 148.33 150.30 L 148.33 151.31 C 148.33 152.17 149.03 152.87 149.89 152.87 C 150.75 152.87 151.45 152.17 151.45 151.31 L 151.45 150.30 C 151.45 149.44 150.75 148.74 149.89 148.74 C 149.03 148.74 148.33 149.44 148.33 150.30 Z M 148.33 151.31 L 148.33 152.30 C 148.33 153.16 149.03 153.86 149.89 153.86 C 150.75 153.86 151.45 153.16 151.45 152.30 L 151.45 151.31 C 151.45 150.44 150.75 149.74 149.89 149.74 C 149.03 149.74 148.33 150.44 148.33 151.31 Z M 148.33 152.30 L 148.33 153.30 C 148.33 154.16 149.03 154.86 149.89 154.86 C 150.75 154.86 151.45 154.16 151.45 153.30 L 151.45 152.30 C 151.45 151.44 150.75 150.74 149.89 150.74 C 149.03 150.74 148.33 151.44 148.33 152.30 Z M 148.33 153.30 L 148.33 154.31 C 148.33 155.17 149.03 155.87 149.89 155.87 C 150.75 155.87 151.45 155.17 151.45 154.31 L 151.45 153.30 C 151.45 152.44 150.75 151.74 149.89 151.74 C 149.03 151.74 148.33 152.44 148.33 153.30 Z M 148.33 154.31 L 148.33 155.31 C 148.33 156.17 149.03 156.87 149.89 156.87 C 150.75 156.87 151.45 156.17 151.45 155.31 L 151.45 154.31 C 151.45 153.44 150.75 152.75 149.89 152.75 C 149.03 152.75 148.33 153.44 148.33 154.31 Z M 148.33 155.31 L 148.33 156.30 C 148.33 157.16 149.03 157.86 149.89 157.86 C 150.75 157.86 151.45 157.16 151.45 156.30 L 151.45 155.31 C 151.45 154.44 150.75 153.74 149.89 153.74 C 149.03 153.74 148.33 154.44 148.33 155.31 Z M 148.33 156.30 L 148.33 157.28 C 148.33 158.15 149.03 158.84 149.89 158.84 C 150.75 158.84 151.45 158.15 151.45 157.28 L 151.45 156.30 C 151.45 155.44 150.75 154.74 149.89 154.74 C 149.03 154.74 148.33 155.44 148.33 156.30 Z M 148.33 157.28 L 148.33 158.26 C 148.33 159.12 149.03 159.82 149.89 159.82 C 150.75 159.82 151.45 159.12 151.45 158.26 L 151.45 157.28 C 151.45 156.42 150.75 155.72 149.89 155.72 C 149.03 155.72 148.33 156.42 148.33 157.28 Z M 148.33 158.26 L 148.33 159.25 C 148.33 160.11 149.03 160.81 149.89 160.81 C 150.75 160.81 151.45 160.11 151.45 159.25 L 151.45 158.26 C 151.45 157.39 150.75 156.70 149.89 156.70 C 149.03 156.70 148.33 157.39 148.33 158.26 Z M 148.33 159.25 L 148.33 160.27 C 148.33 161.13 149.03 161.83 149.89 161.83 C 150.75 161.83 151.45 161.13 151.45 160.27 L 151.45 159.25 C 151.45 158.38 150.75 157.69 149.89 157.69 C 149.03 157.69 148.33 158.38 148.33 159.25 Z M 148.33 160.27 L 148.33 161.28 C 148.33 162.14 149.03 162.84 149.89 162.84 C 150.75 162.84 151.45 162.14 151.45 161.28 L 151.45 160.27 C 151.45 159.40 150.75 158.70 149.89 158.70 C 149.03 158.70 148.33 159.40 148.33 160.27 Z M 148.33 161.28 L 148.33 162.26 C 148.33 163.12 149.03 163.82 149.89 163.82 C 150.75 163.82 151.45 163.12 151.45 162.26 L 151.45 161.28 C 151.45 160.42 150.75 159.72 149.89 159.72 C 149.03 159.72 148.33 160.42 148.33 161.28 Z M 148.33 162.26 L 148.33 163.26 C 148.33 164.12 149.03 164.82 149.89 164.82 C 150.75 164.82 151.45 164.12 151.45 163.26 L 151.45 162.26 C 151.45 161.39 150.75 160.70 149.89 160.70 C 149.03 160.70 148.33 161.39 148.33 162.26 Z M 148.33 163.26 L 148.33 164.27 C 148.33 165.13 149.03 165.83 149.89 165.83 C 150.75 165.83 151.45 165.13 151.45 164.27 L 151.45 163.26 C 151.45 162.39 150.75 161.70 149.89 161.70 C 149.03 161.70 148.33 162.39 148.33 163.26 Z M 148.33 164.27 L 148.33 165.29 C 148.33 166.15 149.03 166.85 149.89 166.85 C 150.75 166.85 151.45 166.15 151.45 165.29 L 151.45 164.27 C 151.45 163.41 150.75 162.71 149.89 162.71 C 149.03 162.71 148.33 163.41 148.33 164.27 Z M 148.33 165.29 L 148.33 166.29 C 148.33 167.15 149.03 167.85 149.89 167.85 C 150.75 167.85 151.45 167.15 151.45 166.29 L 151.45 165.29 C 151.45 164.43 150.75 163.73 149.89 163.73 C 149.03 163.73 148.33 164.43 148.33 165.29 Z M 148.33 166.29 L 148.33 167.28 C 148.33 168.15 149.03 168.84 149.89 168.84 C 150.75 168.84 151.45 168.15 151.45 167.28 L 151.45 166.29 C 151.45 165.43 150.75 164.73 149.89 164.73 C 149.03 164.73 148.33 165.43 148.33 166.29 Z M 148.33 167.28 L 148.33 168.28 C 148.33 169.14 149.03 169.84 149.89 169.84 C 150.75 169.84 151.45 169.14 151.45 168.28 L 151.45 167.28 C 151.45 166.42 150.75 165.72 149.89 165.72 C 149.03 165.72 148.33 166.42 148.33 167.28 Z M 148.33 168.28 L 148.33 169.28 C 148.33 170.14 149.03 170.84 149.89 170.84 C 150.75 170.84 151.45 170.14 151.45 169.28 L 151.45 168.28 C 151.45 167.42 150.75 166.72 149.89 166.72 C 149.03 166.72 148.33 167.42 148.33 168.28 Z M 148.33 169.28 L 148.33 170.30 C 148.33 171.16 149.03 171.86 149.89 171.86 C 150.75 171.86 151.45 171.16 151.45 170.30 L 151.45 169.28 C 151.45 168.42 150.75 167.72 149.89 167.72 C 149.03 167.72 148.33 168.42 148.33 169.28 Z M 148.33 170.30 L 148.33 171.27 C 148.33 172.13 149.03 172.83 149.89 172.83 C 150.75 172.83 151.45 172.13 151.45 171.27 L 151.45 170.30 C 151.45 169.43 150.75 168.74 149.89 168.74 C 149.03 168.74 148.33 169.43 148.33 170.30 Z M 148.33 171.27 L 148.33 172.26 C 148.33 173.12 149.03 173.82 149.89 173.82 C 150.75 173.82 151.45 173.12 151.45 172.26 L 151.45 171.27 C 151.45 170.41 150.75 169.71 149.89 169.71 C 149.03 169.71 148.33 170.41 148.33 171.27 Z M 148.33 172.26 L 148.33 173.26 C 148.33 174.12 149.03 174.82 149.89 174.82 C 150.75 174.82 151.45 174.12 151.45 173.26 L 151.45 172.26 C 151.45 171.39 150.75 170.70 149.89 170.70 C 149.03 170.70 148.33 171.39 148.33 172.26 Z M 148.33 173.26 L 148.33 174.27 C 148.33 175.13 149.03 175.83 149.89 175.83 C 150.75 175.83 151.45 175.13 151.45 174.27 L 151.45 173.26 C 151.45 172.40 150.75 171.70 149.89 171.70 C 149.03 171.70 148.33 172.40 148.33 173.26 Z M 148.33 174.27 L 148.33 175.30 C 148.33 176.16 149.03 176.86 149.89 176.86 C 150.75 176.86 151.45 176.16 151.45 175.30 L 151.45 174.27 C 151.45 173.41 150.75 172.71 149.89 172.71 C 149.03 172.71 148.33 173.41 148.33 174.27 Z M 148.33 175.30 L 148.33 176.29 C 148.33 177.15 149.03 177.85 149.89 177.85 C 150.75 177.85 151.45 177.15 151.45 176.29 L 151.45 175.30 C 151.45 174.44 150.75 173.74 149.89 173.74 C 149.03 173.74 148.33 174.43 148.33 175.30 Z M 148.33 176.29 L 148.33 177.29 C 148.33 178.15 149.03 178.85 149.89 178.85 C 150.75 178.85 151.45 178.15 151.45 177.29 L 151.45 176.29 C 151.45 175.43 150.75 174.73 149.89 174.73 C 149.03 174.73 148.33 175.43 148.33 176.29 Z M 148.33 177.28 L 148.32 178.29 C 148.32 179.15 149.02 179.85 149.88 179.85 C 150.74 179.85 151.44 179.16 151.45 178.30 L 151.45 177.29 C 151.45 176.43 150.76 175.73 149.89 175.73 C 149.03 175.72 148.33 176.42 148.33 177.28 Z M 148.32 178.28 L 148.32 179.28 C 148.31 180.15 149.01 180.85 149.87 180.86 C 150.73 180.86 151.44 180.17 151.44 179.30 L 151.45 178.30 C 151.45 177.44 150.76 176.74 149.90 176.73 C 149.03 176.72 148.33 177.42 148.32 178.28 Z M 148.32 179.28 L 148.31 180.28 C 148.30 181.14 148.99 181.85 149.85 181.86 C 150.72 181.87 151.42 181.18 151.43 180.31 L 151.44 179.31 C 151.45 178.45 150.76 177.74 149.90 177.73 C 149.03 177.72 148.33 178.42 148.32 179.28 Z M 148.31 180.27 L 148.29 181.29 C 148.28 182.15 148.97 182.86 149.83 182.87 C 150.69 182.88 151.40 182.20 151.41 181.33 L 151.43 180.32 C 151.44 179.46 150.76 178.75 149.89 178.74 C 149.03 178.72 148.32 179.41 148.31 180.27 Z M 148.29 181.28 L 148.27 182.29 C 148.26 183.15 148.94 183.86 149.80 183.88 C 150.67 183.90 151.38 183.21 151.40 182.35 L 151.41 181.34 C 151.43 180.48 150.75 179.76 149.88 179.75 C 149.02 179.73 148.31 180.42 148.29 181.28 Z M 148.27 182.29 L 148.25 183.29 C 148.23 184.15 148.92 184.87 149.78 184.88 C 150.64 184.90 151.36 184.22 151.37 183.36 L 151.40 182.35 C 151.41 181.49 150.73 180.78 149.87 180.76 C 149.01 180.74 148.29 181.42 148.27 182.29 Z M 148.25 183.29 L 148.23 184.29 C 148.21 185.15 148.90 185.86 149.76 185.88 C 150.62 185.90 151.34 185.21 151.35 184.35 L 151.37 183.35 C 151.39 182.49 150.71 181.78 149.85 181.76 C 148.98 181.74 148.27 182.43 148.25 183.29 Z M 148.23 184.29 L 148.21 185.28 C 148.20 186.14 148.88 186.85 149.75 186.86 C 150.61 186.88 151.32 186.19 151.34 185.33 L 151.35 184.35 C 151.37 183.48 150.68 182.77 149.82 182.76 C 148.96 182.74 148.25 183.43 148.23 184.29 Z M 148.21 185.28 L 148.20 186.29 C 148.19 187.15 148.88 187.86 149.74 187.87 C 150.60 187.88 151.31 187.20 151.32 186.33 L 151.34 185.33 C 151.35 184.46 150.66 183.75 149.80 183.74 C 148.93 183.73 148.23 184.42 148.21 185.28 Z M 148.20 186.30 L 148.19 187.31 C 148.18 188.17 148.88 188.88 149.74 188.89 C 150.60 188.89 151.31 188.20 151.31 187.34 L 151.32 186.33 C 151.33 185.46 150.64 184.76 149.77 184.75 C 148.91 184.74 148.21 185.44 148.20 186.30 Z M 148.19 187.32 L 148.19 188.32 C 148.18 189.18 148.88 189.89 149.74 189.89 C 150.60 189.89 151.30 189.20 151.31 188.34 L 151.31 187.33 C 151.32 186.47 150.62 185.77 149.76 185.77 C 148.90 185.76 148.20 186.46 148.19 187.32 Z M 148.19 188.33 L 148.18 189.32 C 148.18 190.18 148.88 190.88 149.74 190.88 C 150.60 190.88 151.30 190.19 151.31 189.32 L 151.31 188.33 C 151.31 187.47 150.61 186.77 149.75 186.77 C 148.89 186.77 148.19 187.46 148.19 188.33 Z M 148.18 189.32 L 148.18 190.30 C 148.18 191.16 148.88 191.86 149.74 191.86 C 150.61 191.86 151.31 191.17 151.31 190.30 L 151.31 189.32 C 151.31 188.46 150.61 187.76 149.75 187.76 C 148.88 187.76 148.18 188.46 148.18 189.32 Z M 148.18 190.30 L 148.18 191.33 C 148.18 192.19 148.88 192.89 149.74 192.89 C 150.61 192.89 151.31 192.19 151.31 191.33 L 151.31 190.30 C 151.31 189.44 150.61 188.74 149.74 188.74 C 148.88 188.74 148.18 189.44 148.18 190.30 Z M 148.18 191.33 L 148.18 192.36 C 148.18 193.22 148.88 193.92 149.74 193.92 C 150.61 193.92 151.31 193.22 151.31 192.36 L 151.31 191.33 C 151.31 190.47 150.61 189.77 149.74 189.77 C 148.88 189.77 148.18 190.47 148.18 191.33 Z M 148.18 192.36 L 148.18 193.37 C 148.18 194.23 148.88 194.93 149.74 194.93 C 150.61 194.93 151.31 194.23 151.31 193.37 L 151.31 192.36 C 151.31 191.50 150.61 190.80 149.74 190.80 C 148.88 190.80 148.18 191.50 148.18 192.36 Z M 148.18 193.37 L 148.18 194.34 C 148.18 195.20 148.88 195.90 149.74 195.90 C 150.61 195.90 151.31 195.20 151.31 194.34 L 151.31 193.37 C 151.31 192.51 150.61 191.81 149.74 191.81 C 148.88 191.81 148.18 192.51 148.18 193.37 Z M 148.18 194.34 L 148.18 195.31 C 148.18 196.17 148.88 196.87 149.74 196.87 C 150.61 196.87 151.31 196.17 151.31 195.31 L 151.31 194.34 C 151.31 193.48 150.61 192.78 149.74 192.78 C 148.88 192.78 148.18 193.48 148.18 194.34 Z M 148.18 195.31 L 148.18 196.34 C 148.18 197.20 148.88 197.90 149.74 197.90 C 150.61 197.90 151.31 197.20 151.31 196.34 L 151.31 195.31 C 151.31 194.45 150.61 193.75 149.74 193.75 C 148.88 193.75 148.18 194.45 148.18 195.31 Z M 148.18 196.34 L 148.18 197.33 C 148.18 198.20 148.88 198.89 149.74 198.89 C 150.61 198.89 151.31 198.20 151.31 197.33 L 151.31 196.34 C 151.31 195.48 150.61 194.78 149.74 194.78 C 148.88 194.78 148.18 195.48 148.18 196.34 Z M 148.18 197.33 L 148.18 198.31 C 148.18 199.17 148.88 199.87 149.74 199.87 C 150.61 199.87 151.31 199.17 151.31 198.31 L 151.31 197.33 C 151.31 196.47 150.61 195.77 149.74 195.77 C 148.88 195.77 148.18 196.47 148.18 197.33 Z M 148.18 198.31 L 148.18 199.29 C 148.18 200.15 148.88 200.85 149.74 200.85 C 150.61 200.85 151.31 200.15 151.31 199.29 L 151.31 198.31 C 151.31 197.45 150.61 196.75 149.74 196.75 C 148.88 196.75 148.18 197.45 148.18 198.31 Z M 148.18 199.29 L 148.18 200.29 C 148.18 201.15 148.88 201.85 149.74 201.85 C 150.61 201.85 151.31 201.15 151.31 200.29 L 151.31 199.29 C 151.31 198.43 150.61 197.73 149.74 197.73 C 148.88 197.73 148.18 198.43 148.18 199.29 Z M 148.18 200.29 L 148.18 201.29 C 148.18 202.15 148.88 202.85 149.74 202.85 C 150.61 202.85 151.31 202.15 151.31 201.29 L 151.31 200.29 C 151.31 199.42 150.61 198.73 149.74 198.73 C 148.88 198.73 148.18 199.42 148.18 200.29 Z M 148.18 201.29 L 148.18 202.29 C 148.18 203.16 148.88 203.86 149.74 203.86 C 150.61 203.86 151.31 203.16 151.31 202.29 L 151.31 201.29 C 151.31 200.43 150.61 199.73 149.74 199.73 C 148.88 199.73 148.18 200.43 148.18 201.29 Z M 148.18 202.29 L 148.18 203.31 C 148.18 204.17 148.88 204.87 149.74 204.87 C 150.61 204.87 151.31 204.17 151.31 203.31 L 151.31 202.29 C 151.31 201.43 150.61 200.73 149.74 200.73 C 148.88 200.73 148.18 201.43 148.18 202.29 Z M 148.18 203.31 L 148.18 204.33 C 148.18 205.19 148.88 205.89 149.74 205.89 C 150.61 205.89 151.31 205.19 151.31 204.33 L 151.31 203.31 C 151.31 202.45 150.61 201.75 149.74 201.75 C 148.88 201.75 148.18 202.45 148.18 203.31 Z M 148.18 204.33 L 148.18 205.33 C 148.18 206.19 148.88 206.89 149.74 206.89 C 150.61 206.89 151.31 206.19 151.31 205.33 L 151.31 204.33 C 151.31 203.46 150.61 202.76 149.74 202.76 C 148.88 202.76 148.18 203.46 148.18 204.33 Z M 148.18 205.33 L 148.18 206.31 C 148.18 207.17 148.88 207.87 149.74 207.87 C 150.61 207.87 151.31 207.17 151.31 206.31 L 151.31 205.33 C 151.31 204.47 150.61 203.77 149.74 203.77 C 148.88 203.77 148.18 204.47 148.18 205.33 Z M 148.18 206.31 L 148.18 207.32 C 148.18 208.18 148.88 208.88 149.74 208.88 C 150.61 208.88 151.31 208.18 151.31 207.32 L 151.31 206.31 C 151.31 205.45 150.61 204.75 149.74 204.75 C 148.88 204.75 148.18 205.45 148.18 206.31 Z M 148.18 207.32 L 148.18 208.34 C 148.18 209.20 148.88 209.90 149.74 209.90 C 150.61 209.90 151.31 209.20 151.31 208.34 L 151.31 207.32 C 151.31 206.46 150.61 205.76 149.74 205.76 C 148.88 205.76 148.18 206.46 148.18 207.32 Z M 148.18 208.34 L 148.18 209.33 C 148.18 210.19 148.88 210.89 149.74 210.89 C 150.61 210.89 151.31 210.19 151.31 209.33 L 151.31 208.34 C 151.31 207.48 150.61 206.78 149.74 206.78 C 148.88 206.78 148.18 207.48 148.18 208.34 Z M 148.18 209.33 L 148.18 210.30 C 148.18 211.16 148.88 211.86 149.74 211.86 C 150.61 211.86 151.31 211.16 151.31 210.30 L 151.31 209.33 C 151.31 208.46 150.61 207.76 149.74 207.76 C 148.88 207.76 148.18 208.46 148.18 209.33 Z M 148.18 210.30 L 148.18 211.32 C 148.18 212.18 148.88 212.88 149.74 212.88 C 150.61 212.88 151.31 212.18 151.31 211.32 L 151.31 210.30 C 151.31 209.44 150.61 208.74 149.74 208.74 C 148.88 208.74 148.18 209.44 148.18 210.30 Z M 148.18 211.32 L 148.18 212.32 C 148.18 213.18 148.88 213.88 149.74 213.88 C 150.61 213.88 151.31 213.18 151.31 212.32 L 151.31 211.32 C 151.31 210.46 150.61 209.76 149.74 209.76 C 148.88 209.76 148.18 210.46 148.18 211.32 Z M 148.18 212.32 L 148.18 213.30 C 148.18 214.16 148.88 214.86 149.74 214.86 C 150.61 214.86 151.31 214.16 151.31 213.30 L 151.31 212.32 C 151.31 211.45 150.61 210.76 149.74 210.76 C 148.88 210.76 148.18 211.45 148.18 212.32 Z M 148.18 213.30 L 148.18 214.22 C 148.18 215.09 148.88 215.79 149.74 215.79 C 150.61 215.79 151.31 215.09 151.31 214.22 L 151.31 213.30 C 151.31 212.44 150.61 211.74 149.74 211.74 C 148.88 211.74 148.18 212.44 148.18 213.30 Z M 148.18 214.22 L 148.18 215.19 C 148.18 216.05 148.88 216.75 149.74 216.75 C 150.61 216.75 151.31 216.05 151.31 215.19 L 151.31 214.22 C 151.31 213.36 150.61 212.66 149.74 212.66 C 148.88 212.66 148.18 213.36 148.18 214.22 Z M 148.18 215.19 L 148.18 216.24 C 148.18 217.10 148.88 217.80 149.74 217.80 C 150.61 217.80 151.31 217.10 151.31 216.24 L 151.31 215.19 C 151.31 214.32 150.61 213.62 149.74 213.62 C 148.88 213.62 148.18 214.32 148.18 215.19 Z M 148.18 216.24 L 148.18 217.26 C 148.18 218.12 148.88 218.82 149.74 218.82 C 150.61 218.82 151.31 218.12 151.31 217.26 L 151.31 216.24 C 151.31 215.37 150.61 214.67 149.74 214.67 C 148.88 214.67 148.18 215.37 148.18 216.24 Z M 148.18 217.26 L 148.18 218.25 C 148.18 219.11 148.88 219.81 149.74 219.81 C 150.61 219.81 151.31 219.11 151.31 218.25 L 151.31 217.26 C 151.31 216.40 150.61 215.70 149.74 215.70 C 148.88 215.70 148.18 216.40 148.18 217.26 Z M 148.18 218.25 L 148.18 219.28 C 148.18 220.14 148.88 220.84 149.74 220.84 C 150.61 220.84 151.31 220.14 151.31 219.28 L 151.31 218.25 C 151.31 217.39 150.61 216.69 149.74 216.69 C 148.88 216.69 148.18 217.39 148.18 218.25 Z M 148.18 219.28 L 148.18 220.30 C 148.18 221.16 148.88 221.86 149.74 221.86 C 150.61 221.86 151.31 221.16 151.31 220.30 L 151.31 219.28 C 151.31 218.41 150.61 217.71 149.74 217.71 C 148.88 217.71 148.18 218.41 148.18 219.28 Z M 148.18 220.30 L 148.18 221.29 C 148.18 222.16 148.88 222.85 149.74 222.85 C 150.61 222.85 151.31 222.16 151.31 221.29 L 151.31 220.30 C 151.31 219.44 150.61 218.74 149.74 218.74 C 148.88 218.74 148.18 219.44 148.18 220.30 Z M 148.18 221.30 L 148.18 222.25 C 148.19 223.12 148.89 223.81 149.75 223.81 C 150.61 223.81 151.31 223.11 151.31 222.25 L 151.31 221.29 C 151.31 220.43 150.61 219.73 149.74 219.73 C 148.88 219.73 148.18 220.43 148.18 221.30 Z M 148.18 222.26 L 148.19 223.21 C 148.19 224.07 148.90 224.77 149.76 224.76 C 150.62 224.76 151.32 224.06 151.31 223.19 L 151.31 222.24 C 151.30 221.38 150.60 220.69 149.74 220.69 C 148.88 220.70 148.18 221.40 148.18 222.26 Z M 148.19 223.22 L 148.20 224.22 C 148.21 225.08 148.92 225.77 149.78 225.76 C 150.64 225.75 151.33 225.04 151.32 224.18 L 151.31 223.18 C 151.30 222.32 150.59 221.63 149.73 221.64 C 148.87 221.65 148.18 222.36 148.19 223.22 Z M 148.20 224.23 L 148.22 225.32 C 148.24 226.18 148.96 226.87 149.82 226.85 C 150.68 226.83 151.36 226.12 151.35 225.25 L 151.32 224.16 C 151.31 223.30 150.59 222.62 149.73 222.64 C 148.87 222.65 148.18 223.37 148.20 224.23 Z M 148.23 225.33 L 148.25 226.31 C 148.28 227.17 149.00 227.85 149.86 227.82 C 150.72 227.80 151.40 227.08 151.37 226.22 L 151.35 225.24 C 151.32 224.38 150.60 223.70 149.74 223.73 C 148.88 223.75 148.20 224.47 148.23 225.33 Z M 148.25 226.32 L 148.30 227.34 C 148.33 228.21 149.06 228.88 149.92 228.84 C 150.78 228.81 151.45 228.08 151.42 227.22 L 151.37 226.20 C 151.34 225.34 150.61 224.67 149.75 224.70 C 148.89 224.74 148.22 225.46 148.25 226.32 Z M 148.30 227.37 L 148.36 228.41 C 148.40 229.27 149.14 229.93 150.00 229.88 C 150.86 229.83 151.52 229.10 151.47 228.24 L 151.41 227.19 C 151.37 226.33 150.63 225.67 149.77 225.72 C 148.91 225.77 148.25 226.51 148.30 227.37 Z M 148.36 228.45 L 148.44 229.47 C 148.51 230.33 149.26 230.97 150.12 230.90 C 150.98 230.84 151.62 230.09 151.55 229.23 L 151.47 228.20 C 151.40 227.34 150.65 226.70 149.79 226.77 C 148.93 226.83 148.29 227.59 148.36 228.45 Z M 148.44 229.52 L 148.55 230.49 C 148.65 231.35 149.42 231.96 150.27 231.87 C 151.13 231.78 151.75 231.00 151.65 230.15 L 151.55 229.18 C 151.45 228.32 150.68 227.70 149.82 227.80 C 148.97 227.89 148.35 228.66 148.44 229.52 Z M 148.56 230.57 L 148.73 231.63 C 148.87 232.48 149.68 233.06 150.53 232.92 C 151.38 232.78 151.95 231.98 151.82 231.13 L 151.64 230.07 C 151.50 229.22 150.70 228.64 149.85 228.78 C 149.00 228.92 148.42 229.72 148.56 230.57 Z M 148.76 231.74 L 149.00 232.78 C 149.20 233.62 150.04 234.14 150.88 233.94 C 151.72 233.74 152.24 232.90 152.04 232.06 L 151.79 231.02 C 151.60 230.18 150.75 229.66 149.92 229.86 C 149.08 230.06 148.56 230.90 148.76 231.74 Z M 149.03 232.88 L 149.32 233.80 C 149.57 234.62 150.45 235.08 151.27 234.82 C 152.09 234.57 152.55 233.69 152.30 232.87 L 152.01 231.95 C 151.76 231.13 150.88 230.67 150.06 230.93 C 149.24 231.18 148.78 232.06 149.03 232.88 Z M 149.34 233.86 L 149.64 234.71 C 149.94 235.52 150.83 235.94 151.64 235.64 C 152.45 235.35 152.87 234.45 152.58 233.64 L 152.27 232.80 C 151.98 231.99 151.09 231.57 150.27 231.86 C 149.46 232.16 149.04 233.05 149.34 233.86 Z M 149.65 234.73 L 149.74 234.97 C 150.05 235.77 150.95 236.18 151.75 235.88 C 152.56 235.57 152.97 234.67 152.66 233.86 L 152.57 233.62 C 152.27 232.82 151.37 232.41 150.56 232.71 C 149.75 233.02 149.35 233.92 149.65 234.73 Z"
      fill="black"
      fill-rule="nonzero" /></svg>