<svg xmlns="http://www.w3.org/2000/svg" width="300" height="300" viewBox="0 0 300 300">
<path d="M 150.84 107.67 L 151.78 107.58 C 152.64 107.50 153.27 106.74 153.19 105.88 C 153.11 105.02 152.35 104.39 151.49 104.47 L 150.54 104.56 C 149.69 104.64 149.06 105.40 149.14 106.26 C 149.22 107.12 149.98 107.75 150.84 107.67 Z M 151.77 107.58 L 152.73 107.50 C 153.59 107.42 154.23 106.66 154.15 105.80 C 154.08 104.94 153.32 104.31 152.46 104.39 L 151.50 104.47 C 150.64 104.54 150.00 105.30 150.08 106.16 C 150.16 107.02 150.91 107.66 151.77 107.58 Z M 152.71 107.50 L 153.71 107.42 C 154.57 107.36 155.22 106.61 155.15 105.75 C 155.09 104.89 154.34 104.25 153.48 104.31 L 152.48 104.38 C 151.62 104.45 150.98 105.20 151.04 106.06 C 151.10 106.92 151.85 107.56 152.71 107.50 Z M 153.68 107.42 L 154.74 107.37 C 155.60 107.32 156.26 106.58 156.21 105.72 C 156.17 104.86 155.43 104.20 154.57 104.25 L 153.51 104.31 C 152.65 104.36 151.99 105.09 152.04 105.95 C 152.09 106.81 152.82 107.47 153.68 107.42 Z M 154.71 107.37 L 155.63 107.33 C 156.49 107.30 157.16 106.58 157.13 105.71 C 157.10 104.85 156.37 104.18 155.51 104.21 L 154.60 104.25 C 153.74 104.28 153.06 105.00 153.10 105.87 C 153.13 106.73 153.85 107.40 154.71 107.37 Z M 155.62 107.33 L 156.52 107.31 C 157.38 107.28 158.06 106.56 158.04 105.70 C 158.01 104.84 157.29 104.16 156.43 104.19 L 155.53 104.21 C 154.66 104.24 153.99 104.96 154.01 105.82 C 154.04 106.68 154.75 107.36 155.62 107.33 Z M 156.52 107.31 L 157.49 107.28 C 158.35 107.25 159.02 106.53 159.00 105.67 C 158.97 104.81 158.25 104.13 157.39 104.16 L 156.43 104.19 C 155.57 104.21 154.89 104.93 154.92 105.80 C 154.94 106.66 155.66 107.33 156.52 107.31 Z M 157.50 107.28 L 158.52 107.23 C 159.39 107.20 160.05 106.47 160.02 105.61 C 159.98 104.75 159.25 104.08 158.39 104.11 L 157.37 104.16 C 156.51 104.19 155.84 104.92 155.88 105.78 C 155.91 106.64 156.64 107.31 157.50 107.28 Z M 158.55 107.23 L 159.64 107.17 C 160.50 107.12 161.16 106.38 161.10 105.52 C 161.05 104.65 160.31 104.00 159.45 104.05 L 158.37 104.11 C 157.50 104.17 156.85 104.91 156.90 105.77 C 156.95 106.63 157.69 107.28 158.55 107.23 Z M 159.67 107.16 L 160.77 107.07 C 161.63 107.00 162.27 106.25 162.20 105.39 C 162.13 104.53 161.37 103.89 160.51 103.96 L 159.42 104.05 C 158.56 104.12 157.92 104.88 157.99 105.74 C 158.06 106.59 158.81 107.23 159.67 107.16 Z M 160.80 107.07 L 161.66 106.98 C 162.51 106.90 163.14 106.13 163.05 105.27 C 162.96 104.41 162.20 103.79 161.34 103.88 L 160.48 103.97 C 159.62 104.05 159.00 104.82 159.09 105.68 C 159.18 106.54 159.94 107.16 160.80 107.07 Z M 161.68 106.98 L 162.57 106.88 C 163.43 106.78 164.04 106.00 163.94 105.15 C 163.84 104.29 163.07 103.68 162.21 103.78 L 161.32 103.88 C 160.46 103.98 159.85 104.76 159.95 105.61 C 160.05 106.47 160.82 107.08 161.68 106.98 Z M 162.59 106.88 L 163.53 106.76 C 164.38 106.65 164.99 105.86 164.88 105.01 C 164.77 104.15 163.98 103.55 163.13 103.66 L 162.19 103.78 C 161.34 103.89 160.73 104.67 160.84 105.53 C 160.95 106.38 161.74 106.98 162.59 106.88 Z M 163.54 106.75 L 164.52 106.62 C 165.37 106.50 165.97 105.72 165.85 104.86 C 165.73 104.01 164.95 103.41 164.09 103.53 L 163.12 103.66 C 162.26 103.78 161.66 104.56 161.78 105.42 C 161.90 106.27 162.69 106.87 163.54 106.75 Z M 164.52 106.62 L 165.54 106.47 C 166.40 106.35 166.99 105.56 166.87 104.71 C 166.74 103.85 165.95 103.26 165.10 103.38 L 164.08 103.53 C 163.23 103.65 162.64 104.44 162.76 105.29 C 162.88 106.15 163.67 106.74 164.52 106.62 Z M 165.55 106.47 L 166.61 106.32 C 167.46 106.19 168.05 105.40 167.93 104.54 C 167.80 103.69 167.01 103.10 166.15 103.23 L 165.09 103.38 C 164.24 103.51 163.65 104.30 163.78 105.15 C 163.90 106.01 164.70 106.60 165.55 106.47 Z M 166.61 106.32 L 167.72 106.15 C 168.57 106.02 169.16 105.23 169.03 104.38 C 168.90 103.52 168.11 102.93 167.26 103.06 L 166.15 103.23 C 165.30 103.35 164.71 104.15 164.84 105.00 C 164.97 105.85 165.76 106.44 166.61 106.32 Z M 167.72 106.15 L 168.83 105.98 C 169.68 105.86 170.27 105.06 170.14 104.21 C 170.01 103.35 169.22 102.77 168.37 102.90 L 167.25 103.06 C 166.40 103.19 165.81 103.98 165.94 104.84 C 166.07 105.69 166.87 106.28 167.72 106.15 Z M 168.83 105.98 L 169.85 105.83 C 170.70 105.70 171.29 104.91 171.16 104.06 C 171.03 103.20 170.24 102.62 169.39 102.74 L 168.37 102.90 C 167.52 103.02 166.93 103.82 167.05 104.67 C 167.18 105.52 167.98 106.11 168.83 105.98 Z M 169.85 105.83 L 170.88 105.68 C 171.74 105.55 172.32 104.76 172.20 103.90 C 172.07 103.05 171.28 102.46 170.42 102.59 L 169.39 102.74 C 168.53 102.87 167.95 103.66 168.07 104.52 C 168.20 105.37 168.99 105.96 169.85 105.83 Z M 170.88 105.68 L 171.93 105.52 C 172.78 105.40 173.37 104.60 173.24 103.75 C 173.12 102.90 172.32 102.31 171.47 102.43 L 170.43 102.59 C 169.57 102.71 168.98 103.51 169.11 104.36 C 169.23 105.21 170.03 105.80 170.88 105.68 Z M 171.92 105.52 L 172.97 105.37 C 173.82 105.25 174.41 104.45 174.29 103.60 C 174.16 102.75 173.37 102.16 172.52 102.28 L 171.47 102.43 C 170.62 102.56 170.03 103.35 170.15 104.20 C 170.28 105.06 171.07 105.65 171.92 105.52 Z M 172.97 105.37 L 173.99 105.22 C 174.85 105.10 175.44 104.31 175.32 103.46 C 175.19 102.60 174.40 102.01 173.55 102.13 L 172.52 102.28 C 171.67 102.40 171.07 103.20 171.20 104.05 C 171.32 104.90 172.11 105.50 172.97 105.37 Z M 173.99 105.22 L 174.99 105.08 C 175.85 104.96 176.44 104.17 176.32 103.32 C 176.20 102.46 175.41 101.87 174.55 101.99 L 173.55 102.13 C 172.70 102.25 172.10 103.04 172.23 103.90 C 172.35 104.75 173.14 105.35 173.99 105.22 Z M 174.99 105.08 L 175.96 104.95 C 176.81 104.83 177.41 104.04 177.29 103.18 C 177.17 102.33 176.38 101.73 175.52 101.85 L 174.56 101.99 C 173.70 102.11 173.11 102.90 173.23 103.75 C 173.35 104.61 174.14 105.20 174.99 105.08 Z M 175.95 104.95 L 176.87 104.82 C 177.72 104.70 178.32 103.92 178.20 103.06 C 178.09 102.21 177.30 101.61 176.45 101.73 L 175.53 101.85 C 174.67 101.97 174.08 102.76 174.19 103.61 C 174.31 104.47 175.10 105.06 175.95 104.95 Z M 176.86 104.82 L 177.72 104.71 C 178.58 104.59 179.18 103.81 179.06 102.95 C 178.95 102.10 178.17 101.50 177.31 101.61 L 176.45 101.73 C 175.60 101.84 175.00 102.63 175.11 103.48 C 175.22 104.34 176.01 104.94 176.86 104.82 Z M 177.71 104.71 L 178.94 104.55 C 179.80 104.45 180.40 103.66 180.29 102.81 C 180.19 101.95 179.40 101.35 178.55 101.46 L 177.32 101.61 C 176.46 101.72 175.86 102.50 175.97 103.36 C 176.08 104.21 176.86 104.82 177.71 104.71 Z M 178.93 104.55 L 180.04 104.42 C 180.89 104.32 181.50 103.55 181.40 102.69 C 181.30 101.83 180.52 101.22 179.67 101.32 L 178.56 101.45 C 177.71 101.56 177.09 102.33 177.20 103.19 C 177.30 104.04 178.07 104.66 178.93 104.55 Z M 180.02 104.43 L 181.01 104.32 C 181.87 104.22 182.48 103.45 182.39 102.59 C 182.29 101.73 181.52 101.12 180.66 101.21 L 179.68 101.32 C 178.82 101.42 178.20 102.19 178.30 103.05 C 178.40 103.90 179.17 104.52 180.02 104.43 Z M 181.00 104.32 L 181.90 104.22 C 182.76 104.13 183.38 103.36 183.29 102.50 C 183.20 101.64 182.43 101.02 181.57 101.11 L 180.67 101.21 C 179.81 101.30 179.19 102.07 179.28 102.93 C 179.38 103.79 180.14 104.41 181.00 104.32 Z M 181.90 104.22 L 182.75 104.13 C 183.61 104.04 184.23 103.27 184.14 102.41 C 184.05 101.55 183.28 100.93 182.42 101.02 L 181.57 101.11 C 180.71 101.21 180.09 101.98 180.18 102.83 C 180.27 103.69 181.04 104.31 181.90 104.22 Z M 182.76 104.13 L 183.64 104.03 C 184.50 103.94 185.11 103.16 185.02 102.31 C 184.92 101.45 184.15 100.83 183.29 100.93 L 182.41 101.02 C 181.56 101.12 180.94 101.89 181.03 102.75 C 181.13 103.61 181.90 104.22 182.76 104.13 Z M 183.65 104.03 L 184.65 103.91 C 185.51 103.81 186.12 103.04 186.02 102.18 C 185.92 101.32 185.15 100.71 184.29 100.81 L 183.28 100.93 C 182.43 101.03 181.82 101.80 181.92 102.66 C 182.02 103.52 182.79 104.13 183.65 104.03 Z M 184.66 103.91 L 185.67 103.79 C 186.53 103.68 187.14 102.90 187.03 102.05 C 186.93 101.19 186.15 100.58 185.29 100.69 L 184.28 100.81 C 183.43 100.92 182.82 101.69 182.92 102.55 C 183.03 103.41 183.81 104.02 184.66 103.91 Z M 185.68 103.79 L 186.68 103.66 C 187.53 103.56 188.14 102.78 188.03 101.92 C 187.93 101.07 187.15 100.46 186.29 100.56 L 185.29 100.69 C 184.44 100.79 183.83 101.57 183.93 102.43 C 184.04 103.29 184.82 103.89 185.68 103.79 Z M 186.67 103.66 L 187.65 103.54 C 188.51 103.44 189.12 102.66 189.01 101.80 C 188.90 100.95 188.13 100.34 187.27 100.44 L 186.29 100.56 C 185.44 100.67 184.83 101.45 184.93 102.30 C 185.04 103.16 185.82 103.77 186.67 103.66 Z M 187.64 103.54 L 188.66 103.42 C 189.51 103.32 190.12 102.55 190.02 101.69 C 189.92 100.83 189.14 100.22 188.29 100.32 L 187.28 100.44 C 186.42 100.54 185.81 101.32 185.91 102.18 C 186.01 103.03 186.79 103.65 187.64 103.54 Z M 188.65 103.42 L 189.69 103.31 C 190.55 103.21 191.16 102.44 191.07 101.58 C 190.97 100.72 190.20 100.11 189.34 100.20 L 188.30 100.32 C 187.44 100.42 186.82 101.19 186.92 102.05 C 187.02 102.90 187.79 103.52 188.65 103.42 Z M 189.68 103.31 L 190.68 103.20 C 191.53 103.11 192.15 102.34 192.06 101.48 C 191.97 100.62 191.20 100.00 190.34 100.10 L 189.35 100.20 C 188.49 100.30 187.87 101.07 187.96 101.92 C 188.06 102.78 188.83 103.40 189.68 103.31 Z M 190.67 103.20 L 191.62 103.10 C 192.48 103.01 193.10 102.24 193.01 101.38 C 192.92 100.53 192.15 99.90 191.29 99.99 L 190.35 100.10 C 189.49 100.19 188.87 100.95 188.96 101.81 C 189.05 102.67 189.82 103.29 190.67 103.20 Z M 191.62 103.10 L 192.58 103.00 C 193.44 102.91 194.06 102.14 193.97 101.28 C 193.88 100.42 193.11 99.80 192.26 99.89 L 191.29 99.99 C 190.44 100.09 189.82 100.85 189.91 101.71 C 190.00 102.57 190.77 103.19 191.62 103.10 Z M 192.58 103.00 L 193.59 102.89 C 194.45 102.80 195.07 102.04 194.98 101.18 C 194.89 100.32 194.12 99.70 193.27 99.79 L 192.26 99.89 C 191.40 99.98 190.78 100.75 190.87 101.61 C 190.96 102.46 191.72 103.09 192.58 103.00 Z M 193.57 102.89 L 194.56 102.80 C 195.42 102.72 196.05 101.96 195.97 101.10 C 195.89 100.24 195.13 99.61 194.27 99.69 L 193.28 99.79 C 192.42 99.87 191.79 100.63 191.87 101.49 C 191.96 102.34 192.72 102.98 193.57 102.89 Z M 194.53 102.80 L 195.51 102.73 C 196.37 102.67 197.02 101.92 196.95 101.06 C 196.89 100.20 196.14 99.56 195.28 99.62 L 194.30 99.69 C 193.44 99.75 192.80 100.50 192.86 101.36 C 192.92 102.22 193.67 102.87 194.53 102.80 Z M 195.47 102.74 L 196.47 102.69 C 197.33 102.65 198.00 101.92 197.96 101.06 C 197.92 100.20 197.19 99.53 196.33 99.57 L 195.33 99.62 C 194.46 99.66 193.80 100.39 193.84 101.25 C 193.88 102.11 194.61 102.77 195.47 102.74 Z M 196.44 102.69 L 197.45 102.67 C 198.31 102.65 198.99 101.94 198.97 101.07 C 198.95 100.21 198.24 99.53 197.38 99.55 L 196.37 99.57 C 195.51 99.59 194.82 100.30 194.84 101.16 C 194.86 102.03 195.57 102.71 196.44 102.69 Z M 197.42 102.67 L 198.42 102.66 C 199.28 102.66 199.97 101.95 199.97 101.09 C 199.96 100.23 199.26 99.53 198.40 99.54 L 197.40 99.55 C 196.54 99.55 195.84 100.26 195.85 101.12 C 195.86 101.98 196.56 102.67 197.42 102.67 Z M 198.41 102.66 L 199.40 102.66 C 200.26 102.66 200.96 101.96 200.96 101.10 C 200.95 100.24 200.26 99.54 199.39 99.54 L 198.41 99.54 C 197.54 99.54 196.85 100.24 196.85 101.10 C 196.85 101.96 197.55 102.66 198.41 102.66 Z M 199.40 102.66 L 200.39 102.66 C 201.26 102.65 201.95 101.95 201.95 101.09 C 201.94 100.23 201.24 99.53 200.38 99.53 L 199.39 99.54 C 198.53 99.54 197.83 100.24 197.83 101.11 C 197.84 101.97 198.54 102.66 199.40 102.66 Z M 200.42 102.66 L 201.41 102.64 C 202.27 102.62 202.95 101.91 202.94 101.05 C 202.92 100.19 202.21 99.50 201.35 99.52 L 200.36 99.54 C 199.50 99.55 198.81 100.26 198.83 101.13 C 198.84 101.99 199.55 102.67 200.42 102.66 Z M 201.44 102.64 L 202.46 102.59 C 203.32 102.56 203.99 101.83 203.95 100.97 C 203.91 100.10 203.18 99.44 202.32 99.47 L 201.31 99.52 C 200.45 99.56 199.78 100.28 199.82 101.15 C 199.85 102.01 200.58 102.67 201.44 102.64 Z M 202.50 102.59 L 203.43 102.52 C 204.29 102.46 204.94 101.71 204.88 100.85 C 204.81 99.99 204.07 99.35 203.21 99.41 L 202.28 99.48 C 201.42 99.54 200.77 100.29 200.83 101.15 C 200.89 102.01 201.64 102.65 202.50 102.59 Z M 203.47 102.52 L 204.44 102.43 C 205.30 102.34 205.93 101.58 205.84 100.72 C 205.76 99.86 204.99 99.23 204.14 99.32 L 203.17 99.41 C 202.31 99.50 201.68 100.26 201.76 101.12 C 201.85 101.98 202.61 102.60 203.47 102.52 Z M 204.47 102.42 L 205.49 102.30 C 206.35 102.20 206.96 101.42 206.86 100.56 C 206.76 99.71 205.98 99.10 205.12 99.20 L 204.10 99.32 C 203.25 99.42 202.64 100.20 202.74 101.06 C 202.84 101.91 203.62 102.52 204.47 102.42 Z M 205.52 102.30 L 206.60 102.15 C 207.45 102.03 208.05 101.24 207.93 100.39 C 207.82 99.53 207.03 98.94 206.17 99.05 L 205.09 99.20 C 204.24 99.32 203.64 100.11 203.76 100.96 C 203.88 101.82 204.67 102.41 205.52 102.30 Z M 206.59 102.15 L 207.71 102.00 C 208.57 101.88 209.17 101.10 209.05 100.24 C 208.94 99.39 208.15 98.79 207.30 98.90 L 206.18 99.05 C 205.33 99.17 204.73 99.95 204.84 100.81 C 204.95 101.66 205.74 102.26 206.59 102.15 Z M 207.60 102.01 L 208.66 101.95 C 209.52 101.90 210.17 101.16 210.12 100.30 C 210.07 99.44 209.33 98.78 208.47 98.83 L 207.42 98.89 C 206.56 98.94 205.90 99.68 205.95 100.54 C 206.00 101.40 206.74 102.06 207.60 102.01 Z M 208.35 101.94 L 209.23 102.06 C 210.09 102.18 210.88 101.58 211.00 100.73 C 211.12 99.88 210.52 99.09 209.67 98.97 L 208.78 98.84 C 207.93 98.72 207.14 99.32 207.02 100.17 C 206.90 101.03 207.49 101.82 208.35 101.94 Z M 208.57 101.80 L 209.20 102.23 C 209.91 102.72 210.88 102.53 211.37 101.82 C 211.85 101.11 211.67 100.14 210.96 99.65 L 210.33 99.22 C 209.62 98.74 208.65 98.92 208.16 99.63 C 207.68 100.35 207.86 101.32 208.57 101.80 Z M 208.62 101.51 L 208.93 102.30 C 209.24 103.10 210.15 103.50 210.95 103.19 C 211.75 102.87 212.15 101.97 211.84 101.17 L 211.53 100.38 C 211.22 99.57 210.31 99.17 209.51 99.49 C 208.71 99.80 208.31 100.70 208.62 101.51 Z M 208.82 101.78 L 208.86 102.81 C 208.88 103.67 209.60 104.35 210.47 104.32 C 211.33 104.29 212.00 103.57 211.98 102.71 L 211.94 101.68 C 211.92 100.82 211.20 100.14 210.33 100.17 C 209.47 100.20 208.80 100.92 208.82 101.78 Z M 208.87 102.56 L 208.72 103.70 C 208.61 104.56 209.22 105.34 210.07 105.45 C 210.93 105.56 211.71 104.96 211.82 104.10 L 211.97 102.96 C 212.07 102.10 211.47 101.32 210.61 101.21 C 209.76 101.10 208.98 101.70 208.87 102.56 Z M 208.74 103.59 L 208.53 104.61 C 208.36 105.45 208.91 106.28 209.75 106.45 C 210.60 106.62 211.42 106.08 211.59 105.23 L 211.80 104.22 C 211.97 103.37 211.43 102.55 210.58 102.37 C 209.74 102.20 208.91 102.75 208.74 103.59 Z M 208.55 104.54 L 208.30 105.53 C 208.09 106.37 208.60 107.22 209.44 107.43 C 210.28 107.63 211.12 107.12 211.33 106.29 L 211.58 105.30 C 211.79 104.46 211.28 103.61 210.44 103.41 C 209.60 103.20 208.75 103.71 208.55 104.54 Z M 208.31 105.50 L 208.05 106.46 C 207.82 107.29 208.31 108.15 209.14 108.38 C 209.97 108.61 210.83 108.12 211.06 107.29 L 211.32 106.32 C 211.55 105.49 211.06 104.63 210.23 104.40 C 209.40 104.18 208.54 104.67 208.31 105.50 Z M 208.05 106.45 L 207.79 107.37 C 207.55 108.20 208.04 109.06 208.87 109.30 C 209.70 109.53 210.56 109.05 210.79 108.22 L 211.05 107.30 C 211.29 106.47 210.81 105.60 209.98 105.37 C 209.15 105.13 208.29 105.62 208.05 106.45 Z M 207.79 107.38 L 207.53 108.32 C 207.30 109.15 207.79 110.01 208.63 110.24 C 209.46 110.46 210.32 109.97 210.54 109.14 L 210.80 108.20 C 211.02 107.37 210.53 106.51 209.70 106.29 C 208.87 106.06 208.01 106.55 207.79 107.38 Z M 207.52 108.36 L 207.29 109.29 C 207.09 110.13 207.60 110.97 208.44 111.18 C 209.27 111.39 210.12 110.87 210.32 110.04 L 210.55 109.10 C 210.76 108.27 210.25 107.42 209.41 107.21 C 208.57 107.01 207.73 107.52 207.52 108.36 Z M 207.28 109.35 L 207.08 110.33 C 206.90 111.17 207.44 112.00 208.29 112.17 C 209.13 112.35 209.96 111.81 210.13 110.96 L 210.34 109.98 C 210.51 109.14 209.97 108.31 209.13 108.14 C 208.28 107.96 207.46 108.50 207.28 109.35 Z M 207.06 110.38 L 206.89 111.42 C 206.75 112.27 207.32 113.08 208.17 113.22 C 209.02 113.37 209.82 112.79 209.97 111.94 L 210.14 110.90 C 210.29 110.05 209.71 109.25 208.86 109.10 C 208.01 108.96 207.21 109.53 207.06 110.38 Z M 206.88 111.47 L 206.75 112.45 C 206.63 113.31 207.23 114.09 208.08 114.21 C 208.94 114.33 209.72 113.73 209.84 112.88 L 209.97 111.89 C 210.09 111.04 209.49 110.25 208.64 110.14 C 207.79 110.02 207.00 110.62 206.88 111.47 Z M 206.74 112.49 L 206.63 113.51 C 206.53 114.37 207.14 115.14 208.00 115.24 C 208.86 115.34 209.63 114.72 209.73 113.87 L 209.84 112.84 C 209.94 111.98 209.33 111.21 208.47 111.11 C 207.61 111.01 206.84 111.63 206.74 112.49 Z M 206.62 113.54 L 206.52 114.56 C 206.44 115.42 207.07 116.19 207.93 116.27 C 208.79 116.35 209.55 115.72 209.63 114.86 L 209.73 113.84 C 209.81 112.98 209.18 112.22 208.32 112.13 C 207.47 112.05 206.70 112.68 206.62 113.54 Z M 206.52 114.59 L 206.45 115.57 C 206.38 116.43 207.02 117.18 207.88 117.25 C 208.74 117.31 209.49 116.67 209.56 115.81 L 209.64 114.83 C 209.70 113.97 209.06 113.22 208.20 113.16 C 207.34 113.09 206.59 113.73 206.52 114.59 Z M 206.44 115.60 L 206.38 116.67 C 206.34 117.53 207.00 118.26 207.86 118.31 C 208.72 118.36 209.45 117.70 209.50 116.84 L 209.56 115.78 C 209.61 114.92 208.95 114.18 208.09 114.13 C 207.23 114.08 206.49 114.74 206.44 115.60 Z M 206.38 116.71 L 206.35 117.72 C 206.32 118.58 207.00 119.30 207.86 119.33 C 208.72 119.36 209.44 118.68 209.47 117.82 L 209.50 116.80 C 209.53 115.94 208.85 115.22 207.99 115.19 C 207.13 115.17 206.41 115.84 206.38 116.71 Z M 206.35 117.75 L 206.34 118.70 C 206.33 119.56 207.02 120.27 207.88 120.28 C 208.75 120.29 209.45 119.60 209.46 118.73 L 209.47 117.79 C 209.48 116.93 208.79 116.22 207.93 116.21 C 207.07 116.20 206.36 116.89 206.35 117.75 Z M 206.34 118.72 L 206.34 119.66 C 206.34 120.52 207.04 121.22 207.90 121.22 C 208.76 121.22 209.46 120.52 209.46 119.66 L 209.46 118.72 C 209.46 117.86 208.76 117.16 207.90 117.16 C 207.04 117.16 206.34 117.85 206.34 118.72 Z M 206.34 119.66 L 206.34 120.63 C 206.34 121.50 207.04 122.20 207.90 122.20 C 208.76 122.20 209.46 121.50 209.46 120.63 L 209.46 119.66 C 209.46 118.80 208.76 118.10 207.90 118.10 C 207.04 118.10 206.34 118.80 206.34 119.66 Z M 206.34 120.63 L 206.34 121.64 C 206.34 122.50 207.04 123.20 207.90 123.20 C 208.76 123.20 209.46 122.50 209.46 121.64 L 209.46 120.63 C 209.46 119.77 208.76 119.07 207.90 119.07 C 207.04 119.07 206.34 119.77 206.34 120.63 Z M 206.34 121.64 L 206.34 122.66 C 206.34 123.52 207.04 124.22 207.90 124.22 C 208.76 124.22 209.46 123.52 209.46 122.66 L 209.46 121.64 C 209.46 120.78 208.76 120.08 207.90 120.08 C 207.04 120.08 206.34 120.78 206.34 121.64 Z M 206.34 122.66 L 206.34 123.66 C 206.34 124.52 207.04 125.22 207.90 125.22 C 208.76 125.22 209.46 124.52 209.46 123.66 L 209.46 122.66 C 209.46 121.80 208.76 121.10 207.90 121.10 C 207.04 121.10 206.34 121.80 206.34 122.66 Z M 206.34 123.66 L 206.34 124.65 C 206.34 125.51 207.04 126.21 207.90 126.21 C 208.76 126.21 209.46 125.51 209.46 124.65 L 209.46 123.66 C 209.46 122.80 208.76 122.10 207.90 122.10 C 207.04 122.10 206.34 122.80 206.34 123.66 Z M 206.34 124.65 L 206.34 125.65 C 206.34 126.52 207.04 127.22 207.90 127.22 C 208.76 127.22 209.46 126.52 209.46 125.65 L 209.46 124.65 C 209.46 123.79 208.76 123.09 207.90 123.09 C 207.04 123.09 206.34 123.79 206.34 124.65 Z M 206.34 125.65 L 206.34 126.66 C 206.34 127.53 207.04 128.22 207.90 128.22 C 208.76 128.22 209.46 127.53 209.46 126.66 L 209.46 125.65 C 209.46 124.79 208.76 124.09 207.90 124.09 C 207.04 124.09 206.34 124.79 206.34 125.65 Z M 206.34 126.66 L 206.34 127.63 C 206.34 128.49 207.04 129.19 207.90 129.19 C 208.76 129.19 209.46 128.49 209.46 127.63 L 209.46 126.66 C 209.46 125.80 208.76 125.10 207.90 125.10 C 207.04 125.10 206.34 125.80 206.34 126.66 Z M 206.34 127.63 L 206.34 128.62 C 206.34 129.48 207.04 130.18 207.90 130.18 C 208.76 130.18 209.46 129.48 209.46 128.62 L 209.46 127.63 C 209.46 126.77 208.76 126.07 207.90 126.07 C 207.04 126.07 206.34 126.77 206.34 127.63 Z M 206.34 128.62 L 206.34 129.63 C 206.34 130.50 207.04 131.19 207.90 131.19 C 208.76 131.19 209.46 130.50 209.46 129.63 L 209.46 128.62 C 209.46 127.76 208.76 127.06 207.90 127.06 C 207.04 127.06 206.34 127.76 206.34 128.62 Z M 206.34 129.63 L 206.34 130.66 C 206.34 131.52 207.04 132.22 207.90 132.22 C 208.76 132.22 209.46 131.52 209.46 130.66 L 209.46 129.63 C 209.46 128.77 208.76 128.07 207.90 128.07 C 207.04 128.07 206.34 128.77 206.34 129.63 Z M 206.34 130.66 L 206.34 131.63 C 206.34 132.49 207.04 133.19 207.90 133.19 C 208.76 133.19 209.46 132.49 209.46 131.63 L 209.46 130.66 C 209.46 129.79 208.76 129.10 207.90 129.10 C 207.04 129.10 206.34 129.80 206.34 130.66 Z M 206.34 131.64 L 206.34 132.63 C 206.35 133.49 207.05 134.19 207.91 134.19 C 208.78 134.18 209.47 133.48 209.47 132.62 L 209.46 131.62 C 209.46 130.76 208.76 130.06 207.89 130.07 C 207.03 130.07 206.34 130.77 206.34 131.64 Z M 206.34 132.64 L 206.36 133.66 C 206.37 134.52 207.07 135.21 207.94 135.20 C 208.80 135.19 209.49 134.48 209.48 133.62 L 209.47 132.61 C 209.46 131.74 208.75 131.05 207.89 131.06 C 207.03 131.07 206.33 131.78 206.34 132.64 Z M 206.36 133.67 L 206.38 134.70 C 206.40 135.56 207.11 136.24 207.97 136.23 C 208.84 136.21 209.52 135.49 209.50 134.63 L 209.48 133.60 C 209.46 132.74 208.75 132.06 207.88 132.08 C 207.02 132.10 206.34 132.81 206.36 133.67 Z M 206.38 134.72 L 206.41 135.72 C 206.44 136.58 207.16 137.25 208.03 137.22 C 208.89 137.20 209.56 136.47 209.53 135.61 L 209.50 134.61 C 209.47 133.75 208.75 133.08 207.89 133.10 C 207.03 133.13 206.35 133.86 206.38 134.72 Z M 206.41 135.73 L 206.46 136.73 C 206.50 137.59 207.22 138.26 208.09 138.22 C 208.95 138.19 209.61 137.46 209.58 136.60 L 209.53 135.60 C 209.50 134.73 208.77 134.07 207.91 134.10 C 207.04 134.14 206.38 134.87 206.41 135.73 Z M 206.46 136.74 L 206.51 137.74 C 206.55 138.61 207.29 139.27 208.15 139.22 C 209.01 139.18 209.67 138.45 209.63 137.59 L 209.58 136.58 C 209.53 135.72 208.80 135.06 207.94 135.10 C 207.08 135.15 206.41 135.88 206.46 136.74 Z M 206.51 137.75 L 206.57 138.75 C 206.61 139.61 207.35 140.27 208.21 140.22 C 209.07 140.18 209.73 139.44 209.68 138.58 L 209.63 137.58 C 209.58 136.72 208.84 136.06 207.98 136.11 C 207.12 136.15 206.46 136.89 206.51 137.75 Z M 206.57 138.75 L 206.62 139.74 C 206.67 140.60 207.41 141.26 208.27 141.21 C 209.13 141.16 209.79 140.42 209.74 139.56 L 209.68 138.57 C 209.63 137.71 208.90 137.06 208.03 137.11 C 207.17 137.15 206.52 137.89 206.57 138.75 Z M 206.62 139.74 L 206.68 140.71 C 206.73 141.57 207.47 142.23 208.33 142.17 C 209.19 142.12 209.85 141.38 209.80 140.52 L 209.74 139.55 C 209.69 138.69 208.95 138.04 208.09 138.09 C 207.23 138.14 206.57 138.88 206.62 139.74 Z M 206.68 140.72 L 206.74 141.70 C 206.80 142.56 207.54 143.21 208.40 143.15 C 209.26 143.10 209.92 142.36 209.86 141.50 L 209.80 140.51 C 209.74 139.65 209.00 139.00 208.14 139.06 C 207.28 139.11 206.62 139.86 206.68 140.72 Z M 206.75 141.71 L 206.82 142.72 C 206.88 143.58 207.63 144.22 208.49 144.16 C 209.35 144.09 210.00 143.35 209.93 142.49 L 209.86 141.48 C 209.80 140.62 209.05 139.98 208.19 140.04 C 207.33 140.10 206.68 140.85 206.75 141.71 Z M 206.82 142.73 L 206.91 143.77 C 206.98 144.63 207.74 145.27 208.60 145.20 C 209.46 145.12 210.09 144.37 210.02 143.51 L 209.93 142.47 C 209.86 141.61 209.10 140.97 208.24 141.05 C 207.38 141.12 206.75 141.87 206.82 142.73 Z M 206.91 143.79 L 207.01 144.81 C 207.09 145.67 207.86 146.30 208.71 146.21 C 209.57 146.13 210.20 145.37 210.12 144.51 L 210.02 143.49 C 209.93 142.63 209.17 142.00 208.31 142.09 C 207.45 142.17 206.83 142.93 206.91 143.79 Z M 207.01 144.83 L 207.12 145.85 C 207.21 146.71 207.98 147.33 208.84 147.24 C 209.70 147.15 210.32 146.38 210.23 145.52 L 210.12 144.49 C 210.02 143.63 209.25 143.01 208.40 143.11 C 207.54 143.20 206.92 143.97 207.01 144.83 Z M 207.12 145.87 L 207.24 146.89 C 207.34 147.74 208.12 148.36 208.97 148.26 C 209.83 148.16 210.44 147.38 210.34 146.52 L 210.22 145.50 C 210.12 144.65 209.35 144.03 208.49 144.13 C 207.64 144.24 207.02 145.01 207.12 145.87 Z M 207.24 146.90 L 207.37 147.89 C 207.48 148.74 208.26 149.35 209.11 149.24 C 209.97 149.14 210.57 148.36 210.47 147.50 L 210.34 146.51 C 210.24 145.66 209.46 145.05 208.60 145.16 C 207.74 145.26 207.14 146.04 207.24 146.90 Z M 207.37 147.90 L 207.49 148.83 C 207.61 149.68 208.39 150.28 209.25 150.17 C 210.10 150.06 210.70 149.27 210.59 148.42 L 210.46 147.49 C 210.35 146.63 209.57 146.03 208.71 146.15 C 207.86 146.26 207.26 147.05 207.37 147.90 Z M 207.50 148.84 L 207.65 149.91 C 207.77 150.77 208.56 151.36 209.41 151.24 C 210.27 151.12 210.86 150.33 210.74 149.47 L 210.59 148.40 C 210.46 147.55 209.67 146.96 208.82 147.08 C 207.97 147.20 207.37 147.99 207.50 148.84 Z M 207.65 149.93 L 207.80 150.92 C 207.93 151.77 208.73 152.36 209.58 152.23 C 210.43 152.10 211.02 151.30 210.89 150.45 L 210.74 149.46 C 210.61 148.61 209.81 148.02 208.96 148.15 C 208.11 148.28 207.52 149.08 207.65 149.93 Z M 207.80 150.93 L 207.95 151.87 C 208.09 152.72 208.89 153.30 209.74 153.17 C 210.59 153.03 211.17 152.23 211.04 151.38 L 210.89 150.44 C 210.75 149.58 209.95 149.01 209.10 149.14 C 208.25 149.28 207.67 150.08 207.80 150.93 Z M 207.96 151.88 L 208.11 152.82 C 208.25 153.67 209.05 154.25 209.90 154.11 C 210.76 153.97 211.33 153.16 211.19 152.31 L 211.04 151.37 C 210.90 150.52 210.09 149.94 209.24 150.08 C 208.39 150.22 207.82 151.03 207.96 151.88 Z M 208.11 152.82 L 208.28 153.81 C 208.42 154.66 209.22 155.24 210.07 155.10 C 210.92 154.95 211.50 154.15 211.36 153.30 L 211.19 152.31 C 211.05 151.46 210.25 150.89 209.39 151.03 C 208.54 151.17 207.97 151.97 208.11 152.82 Z M 208.28 153.82 L 208.45 154.82 C 208.60 155.67 209.40 156.24 210.25 156.10 C 211.10 155.95 211.67 155.14 211.53 154.29 L 211.35 153.29 C 211.21 152.44 210.40 151.87 209.55 152.02 C 208.70 152.16 208.13 152.97 208.28 153.82 Z M 208.45 154.84 L 208.64 155.83 C 208.79 156.68 209.61 157.24 210.45 157.08 C 211.30 156.92 211.86 156.11 211.71 155.26 L 211.52 154.27 C 211.37 153.43 210.55 152.87 209.70 153.02 C 208.86 153.18 208.30 153.99 208.45 154.84 Z M 208.64 155.86 L 208.86 156.92 C 209.04 157.77 209.86 158.31 210.71 158.13 C 211.55 157.96 212.09 157.13 211.92 156.29 L 211.70 155.23 C 211.53 154.38 210.70 153.84 209.85 154.02 C 209.01 154.19 208.47 155.02 208.64 155.86 Z M 208.89 157.03 L 209.20 158.13 C 209.44 158.96 210.30 159.44 211.13 159.21 C 211.96 158.97 212.44 158.11 212.21 157.28 L 211.89 156.18 C 211.65 155.35 210.79 154.87 209.96 155.10 C 209.13 155.34 208.65 156.21 208.89 157.03 Z M 209.37 158.51 L 209.81 159.24 C 210.25 159.97 211.21 160.21 211.95 159.76 C 212.69 159.31 212.92 158.35 212.48 157.62 L 212.04 156.90 C 211.59 156.16 210.63 155.92 209.90 156.37 C 209.16 156.82 208.92 157.78 209.37 158.51 Z M 210.77 159.94 L 211.44 160.11 C 212.28 160.31 213.12 159.80 213.33 158.96 C 213.53 158.13 213.02 157.28 212.19 157.08 L 211.52 156.91 C 210.68 156.70 209.83 157.22 209.63 158.05 C 209.42 158.89 209.93 159.74 210.77 159.94 Z M 212.43 160.03 L 213.32 159.64 C 214.11 159.30 214.47 158.39 214.13 157.59 C 213.79 156.80 212.88 156.44 212.08 156.78 L 211.20 157.16 C 210.40 157.50 210.04 158.42 210.38 159.21 C 210.72 160.00 211.64 160.37 212.43 160.03 Z M 213.56 159.51 L 214.44 158.93 C 215.16 158.46 215.36 157.49 214.89 156.77 C 214.42 156.05 213.45 155.85 212.73 156.32 L 211.84 156.91 C 211.12 157.38 210.92 158.35 211.40 159.07 C 211.87 159.79 212.84 159.99 213.56 159.51 Z"
      fill="black"
      fill-rule="nonzero" /><path d="M 203.30 102.81 L 202.58 103.58 C 201.99 104.21 202.02 105.20 202.65 105.79 C 203.28 106.38 204.27 106.34 204.86 105.71 L 205.58 104.94 C 206.17 104.31 206.13 103.32 205.50 102.73 C 204.87 102.14 203.88 102.18 203.30 102.81 Z M 202.58 103.58 L 201.87 104.33 C 201.28 104.96 201.31 105.95 201.93 106.54 C 202.56 107.13 203.55 107.10 204.14 106.47 L 204.85 105.72 C 205.45 105.09 205.42 104.10 204.79 103.51 C 204.16 102.92 203.17 102.95 202.58 103.58 Z M 201.88 104.32 L 201.18 105.04 C 200.59 105.66 200.60 106.65 201.22 107.25 C 201.84 107.85 202.83 107.83 203.43 107.21 L 204.13 106.49 C 204.73 105.87 204.71 104.88 204.09 104.28 C 203.47 103.68 202.48 103.70 201.88 104.32 Z M 201.21 105.02 L 200.53 105.69 C 199.92 106.30 199.92 107.29 200.52 107.90 C 201.13 108.51 202.12 108.52 202.73 107.91 L 203.41 107.23 C 204.02 106.62 204.02 105.63 203.41 105.02 C 202.80 104.41 201.82 104.41 201.21 105.02 Z M 200.56 105.66 L 199.84 106.34 C 199.21 106.93 199.18 107.91 199.77 108.54 C 200.36 109.17 201.35 109.21 201.98 108.62 L 202.70 107.94 C 203.33 107.35 203.36 106.36 202.77 105.73 C 202.18 105.10 201.19 105.07 200.56 105.66 Z M 199.89 106.30 L 199.10 106.98 C 198.45 107.54 198.38 108.53 198.94 109.18 C 199.50 109.83 200.49 109.90 201.14 109.34 L 201.93 108.66 C 202.58 108.09 202.65 107.11 202.09 106.45 C 201.52 105.80 200.54 105.73 199.89 106.30 Z M 199.14 106.95 L 198.38 107.56 C 197.71 108.11 197.61 109.09 198.15 109.76 C 198.70 110.43 199.68 110.53 200.35 109.98 L 201.11 109.37 C 201.78 108.82 201.88 107.84 201.33 107.17 C 200.79 106.50 199.80 106.40 199.14 106.95 Z M 198.39 107.55 L 197.65 108.14 C 196.98 108.68 196.87 109.66 197.40 110.34 C 197.94 111.01 198.92 111.12 199.60 110.59 L 200.34 110.00 C 201.01 109.46 201.12 108.48 200.59 107.80 C 200.05 107.13 199.07 107.02 198.39 107.55 Z M 197.64 108.15 L 196.94 108.72 C 196.27 109.27 196.17 110.25 196.71 110.92 C 197.26 111.59 198.24 111.69 198.91 111.14 L 199.61 110.57 C 200.28 110.03 200.38 109.05 199.84 108.38 C 199.29 107.71 198.31 107.61 197.64 108.15 Z M 196.91 108.74 L 196.20 109.35 C 195.54 109.91 195.46 110.89 196.02 111.55 C 196.58 112.21 197.57 112.29 198.22 111.73 L 198.94 111.12 C 199.59 110.56 199.67 109.58 199.11 108.92 C 198.55 108.27 197.57 108.19 196.91 108.74 Z M 196.17 109.38 L 195.41 110.06 C 194.77 110.63 194.72 111.62 195.30 112.26 C 195.87 112.90 196.86 112.96 197.50 112.38 L 198.26 111.70 C 198.90 111.12 198.95 110.14 198.37 109.50 C 197.80 108.85 196.81 108.80 196.17 109.38 Z M 195.38 110.09 L 194.56 110.87 C 193.93 111.46 193.91 112.45 194.50 113.08 C 195.10 113.70 196.09 113.73 196.71 113.13 L 197.53 112.35 C 198.16 111.75 198.18 110.77 197.59 110.14 C 196.99 109.52 196.01 109.49 195.38 110.09 Z M 194.53 110.89 L 193.92 111.51 C 193.30 112.12 193.30 113.11 193.91 113.72 C 194.52 114.33 195.51 114.33 196.12 113.72 L 196.74 113.11 C 197.35 112.50 197.35 111.51 196.74 110.90 C 196.13 110.29 195.15 110.28 194.53 110.89 Z M 193.90 111.52 L 193.25 112.19 C 192.64 112.80 192.65 113.79 193.27 114.40 C 193.88 115.00 194.87 114.99 195.48 114.38 L 196.13 113.71 C 196.73 113.09 196.72 112.11 196.11 111.50 C 195.49 110.90 194.51 110.91 193.90 111.52 Z M 193.24 112.20 L 192.55 112.91 C 191.95 113.53 191.97 114.52 192.58 115.12 C 193.20 115.72 194.19 115.70 194.79 115.08 L 195.48 114.37 C 196.08 113.75 196.07 112.76 195.45 112.16 C 194.83 111.56 193.84 111.58 193.24 112.20 Z M 192.55 112.91 L 191.82 113.67 C 191.22 114.29 191.24 115.28 191.86 115.87 C 192.49 116.47 193.47 116.45 194.07 115.83 L 194.80 115.08 C 195.39 114.46 195.37 113.47 194.75 112.87 C 194.13 112.27 193.14 112.29 192.55 112.91 Z M 191.82 113.67 L 191.07 114.45 C 190.47 115.07 190.49 116.06 191.11 116.66 C 191.73 117.26 192.72 117.24 193.32 116.62 L 194.07 115.83 C 194.67 115.21 194.65 114.22 194.03 113.62 C 193.41 113.03 192.42 113.05 191.82 113.67 Z M 191.07 114.45 L 190.31 115.23 C 189.71 115.85 189.73 116.84 190.35 117.44 C 190.96 118.04 191.95 118.02 192.55 117.40 L 193.31 116.62 C 193.91 116.00 193.90 115.01 193.28 114.41 C 192.66 113.81 191.67 113.83 191.07 114.45 Z M 190.32 115.22 L 189.57 115.98 C 188.97 116.60 188.98 117.59 189.60 118.19 C 190.21 118.79 191.20 118.78 191.81 118.17 L 192.55 117.41 C 193.15 116.79 193.14 115.80 192.52 115.20 C 191.91 114.60 190.92 114.61 190.32 115.22 Z M 189.58 115.98 L 188.84 116.73 C 188.23 117.34 188.24 118.33 188.85 118.94 C 189.46 119.54 190.45 119.54 191.06 118.92 L 191.80 118.17 C 192.41 117.56 192.40 116.57 191.79 115.96 C 191.17 115.36 190.19 115.36 189.58 115.98 Z M 188.84 116.72 L 188.11 117.46 C 187.50 118.07 187.50 119.06 188.11 119.66 C 188.72 120.27 189.71 120.27 190.32 119.66 L 191.05 118.93 C 191.66 118.32 191.66 117.33 191.05 116.72 C 190.44 116.11 189.45 116.11 188.84 116.72 Z M 188.12 117.45 L 187.42 118.15 C 186.80 118.75 186.80 119.74 187.41 120.35 C 188.01 120.97 189.00 120.97 189.62 120.36 L 190.32 119.67 C 190.93 119.06 190.93 118.07 190.32 117.46 C 189.72 116.85 188.73 116.84 188.12 117.45 Z M 187.42 118.14 L 186.76 118.79 C 186.15 119.39 186.14 120.38 186.74 120.99 C 187.35 121.61 188.33 121.62 188.95 121.02 L 189.61 120.37 C 190.22 119.77 190.23 118.78 189.63 118.16 C 189.03 117.55 188.04 117.54 187.42 118.14 Z M 186.77 118.78 L 186.03 119.49 C 185.41 120.09 185.40 121.08 186.00 121.70 C 186.59 122.32 187.58 122.34 188.20 121.74 L 188.94 121.02 C 189.56 120.43 189.58 119.44 188.98 118.82 C 188.38 118.20 187.39 118.18 186.77 118.78 Z M 186.05 119.48 L 185.23 120.25 C 184.60 120.84 184.58 121.83 185.17 122.45 C 185.76 123.08 186.75 123.11 187.37 122.52 L 188.19 121.75 C 188.82 121.16 188.85 120.17 188.25 119.54 C 187.66 118.92 186.67 118.89 186.05 119.48 Z M 185.25 120.23 L 184.54 120.88 C 183.91 121.47 183.87 122.46 184.45 123.09 C 185.03 123.72 186.02 123.77 186.66 123.18 L 187.36 122.53 C 188.00 121.95 188.04 120.96 187.45 120.32 C 186.87 119.69 185.88 119.65 185.25 120.23 Z M 184.55 120.88 L 183.91 121.46 C 183.27 122.04 183.22 123.03 183.80 123.67 C 184.38 124.30 185.37 124.35 186.01 123.77 L 186.65 123.19 C 187.29 122.61 187.33 121.62 186.75 120.98 C 186.17 120.34 185.18 120.30 184.55 120.88 Z M 183.90 121.46 L 183.22 122.09 C 182.58 122.67 182.54 123.66 183.12 124.30 C 183.70 124.93 184.69 124.98 185.32 124.40 L 186.01 123.77 C 186.65 123.18 186.69 122.20 186.11 121.56 C 185.53 120.93 184.54 120.88 183.90 121.46 Z M 183.21 122.10 L 182.49 122.77 C 181.85 123.35 181.81 124.34 182.40 124.97 C 182.98 125.61 183.97 125.64 184.60 125.06 L 185.33 124.39 C 185.96 123.81 186.00 122.82 185.42 122.19 C 184.83 121.55 183.85 121.51 183.21 122.10 Z M 182.49 122.77 L 181.75 123.45 C 181.11 124.03 181.07 125.02 181.66 125.66 C 182.24 126.29 183.23 126.33 183.86 125.74 L 184.60 125.06 C 185.24 124.48 185.28 123.49 184.69 122.85 C 184.11 122.22 183.12 122.18 182.49 122.77 Z M 181.75 123.45 L 181.02 124.12 C 180.38 124.70 180.34 125.69 180.92 126.32 C 181.50 126.96 182.49 127.00 183.13 126.42 L 183.86 125.75 C 184.50 125.16 184.54 124.18 183.96 123.54 C 183.37 122.91 182.39 122.86 181.75 123.45 Z M 181.02 124.11 L 180.30 124.77 C 179.66 125.35 179.61 126.33 180.19 126.97 C 180.76 127.61 181.75 127.66 182.39 127.09 L 183.12 126.43 C 183.76 125.85 183.81 124.86 183.23 124.22 C 182.65 123.58 181.66 123.53 181.02 124.11 Z M 180.31 124.76 L 179.55 125.43 C 178.91 126.00 178.85 126.99 179.42 127.63 C 179.99 128.28 180.98 128.34 181.63 127.76 L 182.38 127.09 C 183.02 126.52 183.08 125.54 182.51 124.89 C 181.94 124.25 180.95 124.19 180.31 124.76 Z M 179.57 125.42 L 178.79 126.09 C 178.14 126.66 178.07 127.64 178.63 128.29 C 179.20 128.95 180.18 129.02 180.83 128.45 L 181.61 127.78 C 182.26 127.21 182.33 126.23 181.77 125.57 C 181.20 124.92 180.22 124.85 179.57 125.42 Z M 178.80 126.08 L 178.07 126.70 C 177.41 127.25 177.33 128.24 177.88 128.90 C 178.44 129.56 179.43 129.64 180.08 129.08 L 180.82 128.46 C 181.48 127.91 181.56 126.92 181.00 126.26 C 180.45 125.61 179.46 125.52 178.80 126.08 Z M 178.08 126.69 L 177.33 127.31 C 176.66 127.86 176.57 128.85 177.12 129.51 C 177.67 130.17 178.66 130.27 179.32 129.72 L 180.07 129.09 C 180.74 128.54 180.83 127.56 180.28 126.89 C 179.73 126.23 178.75 126.14 178.08 126.69 Z M 177.34 127.31 L 176.55 127.95 C 175.89 128.49 175.79 129.48 176.33 130.14 C 176.88 130.81 177.86 130.91 178.53 130.36 L 179.31 129.72 C 179.98 129.18 180.08 128.19 179.53 127.52 C 178.99 126.86 178.00 126.76 177.34 127.31 Z M 176.55 127.95 L 175.74 128.61 C 175.07 129.16 174.97 130.14 175.52 130.81 C 176.06 131.47 177.05 131.57 177.72 131.03 L 178.53 130.37 C 179.20 129.82 179.30 128.84 178.75 128.17 C 178.21 127.50 177.22 127.40 176.55 127.95 Z M 175.74 128.61 L 174.98 129.23 C 174.31 129.78 174.21 130.76 174.76 131.43 C 175.30 132.10 176.29 132.20 176.96 131.65 L 177.72 131.03 C 178.38 130.48 178.48 129.50 177.94 128.83 C 177.39 128.16 176.41 128.07 175.74 128.61 Z M 174.98 129.23 L 174.20 129.87 C 173.53 130.42 173.43 131.40 173.98 132.07 C 174.53 132.74 175.51 132.83 176.18 132.29 L 176.96 131.65 C 177.62 131.10 177.72 130.12 177.18 129.45 C 176.63 128.78 175.65 128.69 174.98 129.23 Z M 174.20 129.87 L 173.41 130.52 C 172.75 131.06 172.65 132.05 173.20 132.71 C 173.74 133.38 174.73 133.48 175.39 132.93 L 176.18 132.29 C 176.85 131.74 176.94 130.76 176.39 130.09 C 175.85 129.42 174.86 129.33 174.20 129.87 Z M 173.41 130.52 L 172.64 131.16 C 171.97 131.70 171.88 132.69 172.43 133.35 C 172.97 134.02 173.96 134.11 174.62 133.57 L 175.40 132.93 C 176.06 132.38 176.16 131.40 175.61 130.73 C 175.06 130.07 174.08 129.97 173.41 130.52 Z M 172.64 131.16 L 171.87 131.79 C 171.21 132.34 171.11 133.32 171.66 133.99 C 172.21 134.65 173.19 134.75 173.86 134.20 L 174.62 133.56 C 175.29 133.01 175.38 132.03 174.83 131.37 C 174.28 130.70 173.30 130.61 172.64 131.16 Z M 171.87 131.79 L 171.11 132.42 C 170.45 132.97 170.36 133.95 170.91 134.62 C 171.46 135.28 172.44 135.37 173.11 134.82 L 173.86 134.19 C 174.53 133.64 174.62 132.66 174.07 132.00 C 173.51 131.33 172.53 131.24 171.87 131.79 Z M 171.11 132.42 L 170.35 133.05 C 169.69 133.61 169.60 134.59 170.16 135.25 C 170.71 135.91 171.69 136.00 172.35 135.45 L 173.11 134.82 C 173.77 134.27 173.86 133.28 173.31 132.62 C 172.75 131.96 171.77 131.87 171.11 132.42 Z M 170.35 133.06 L 169.58 133.71 C 168.92 134.26 168.83 135.25 169.38 135.91 C 169.94 136.57 170.92 136.65 171.58 136.10 L 172.36 135.45 C 173.02 134.89 173.10 133.91 172.55 133.25 C 171.99 132.59 171.01 132.50 170.35 133.06 Z M 169.57 133.71 L 168.81 134.36 C 168.15 134.91 168.07 135.90 168.62 136.56 C 169.18 137.22 170.17 137.30 170.82 136.74 L 171.59 136.09 C 172.25 135.54 172.33 134.55 171.77 133.89 C 171.21 133.24 170.23 133.15 169.57 133.71 Z M 168.80 134.36 L 168.06 134.99 C 167.41 135.55 167.33 136.54 167.89 137.19 C 168.44 137.85 169.43 137.93 170.09 137.37 L 170.83 136.74 C 171.49 136.18 171.56 135.19 171.00 134.54 C 170.45 133.88 169.46 133.80 168.80 134.36 Z M 168.06 135.00 L 167.29 135.65 C 166.64 136.21 166.57 137.20 167.13 137.85 C 167.69 138.51 168.67 138.58 169.33 138.02 L 170.09 137.37 C 170.75 136.80 170.82 135.82 170.26 135.16 C 169.70 134.51 168.71 134.44 168.06 135.00 Z M 167.29 135.66 L 166.52 136.32 C 165.87 136.89 165.80 137.88 166.36 138.53 C 166.93 139.18 167.91 139.25 168.57 138.68 L 169.34 138.01 C 169.99 137.45 170.06 136.46 169.49 135.81 C 168.93 135.16 167.94 135.09 167.29 135.66 Z M 166.51 136.33 L 165.74 137.01 C 165.10 137.57 165.03 138.56 165.60 139.21 C 166.17 139.86 167.16 139.92 167.81 139.35 L 168.57 138.68 C 169.22 138.11 169.28 137.12 168.71 136.47 C 168.15 135.83 167.16 135.76 166.51 136.33 Z M 165.74 137.01 L 164.97 137.69 C 164.33 138.27 164.27 139.26 164.85 139.90 C 165.42 140.54 166.41 140.60 167.05 140.02 L 167.81 139.34 C 168.46 138.77 168.51 137.78 167.94 137.14 C 167.37 136.49 166.38 136.44 165.74 137.01 Z M 164.96 137.70 L 164.21 138.38 C 163.57 138.96 163.53 139.95 164.11 140.59 C 164.68 141.23 165.67 141.27 166.31 140.70 L 167.06 140.02 C 167.70 139.44 167.75 138.45 167.17 137.81 C 166.59 137.17 165.60 137.12 164.96 137.70 Z M 164.21 138.39 L 163.47 139.07 C 162.83 139.65 162.79 140.64 163.38 141.27 C 163.96 141.91 164.95 141.95 165.58 141.37 L 166.32 140.69 C 166.95 140.11 166.99 139.12 166.41 138.48 C 165.83 137.85 164.84 137.81 164.21 138.39 Z M 163.46 139.07 L 162.74 139.75 C 162.11 140.33 162.07 141.32 162.66 141.95 C 163.24 142.58 164.23 142.62 164.86 142.03 L 165.59 141.36 C 166.22 140.77 166.26 139.78 165.67 139.15 C 165.08 138.52 164.09 138.49 163.46 139.07 Z M 162.73 139.75 L 162.02 140.42 C 161.39 141.01 161.36 142.00 161.95 142.63 C 162.53 143.26 163.52 143.29 164.15 142.70 L 164.87 142.03 C 165.50 141.44 165.53 140.45 164.94 139.82 C 164.35 139.19 163.36 139.16 162.73 139.75 Z M 162.01 140.42 L 161.28 141.12 C 160.65 141.71 160.62 142.70 161.21 143.32 C 161.81 143.95 162.79 143.98 163.42 143.39 L 164.15 142.70 C 164.78 142.11 164.81 141.12 164.22 140.49 C 163.63 139.86 162.64 139.83 162.01 140.42 Z M 161.28 141.12 L 160.55 141.81 C 159.92 142.40 159.89 143.39 160.49 144.02 C 161.08 144.64 162.07 144.67 162.69 144.08 L 163.42 143.39 C 164.05 142.79 164.08 141.81 163.48 141.18 C 162.89 140.55 161.90 140.53 161.28 141.12 Z M 160.54 141.81 L 159.82 142.50 C 159.19 143.10 159.17 144.08 159.76 144.71 C 160.36 145.33 161.35 145.36 161.97 144.76 L 162.70 144.08 C 163.32 143.48 163.35 142.49 162.75 141.87 C 162.16 141.24 161.17 141.22 160.54 141.81 Z M 159.82 142.50 L 159.10 143.19 C 158.48 143.78 158.45 144.77 159.05 145.40 C 159.64 146.02 160.63 146.04 161.25 145.45 L 161.97 144.76 C 162.60 144.17 162.62 143.18 162.02 142.55 C 161.43 141.93 160.44 141.91 159.82 142.50 Z M 159.10 143.19 L 158.37 143.88 C 157.75 144.48 157.73 145.47 158.33 146.09 C 158.92 146.71 159.91 146.73 160.53 146.14 L 161.26 145.45 C 161.88 144.85 161.90 143.86 161.30 143.24 C 160.71 142.62 159.72 142.59 159.10 143.19 Z M 158.37 143.89 L 157.63 144.59 C 157.01 145.19 156.99 146.18 157.59 146.80 C 158.19 147.42 159.18 147.44 159.80 146.84 L 160.54 146.14 C 161.16 145.54 161.18 144.55 160.58 143.93 C 159.98 143.31 158.99 143.29 158.37 143.89 Z M 157.63 144.60 L 156.91 145.30 C 156.29 145.90 156.27 146.89 156.87 147.51 C 157.47 148.13 158.46 148.14 159.08 147.54 L 159.80 146.84 C 160.42 146.24 160.44 145.25 159.84 144.63 C 159.24 144.01 158.25 144.00 157.63 144.60 Z M 156.90 145.31 L 156.19 146.01 C 155.58 146.61 155.57 147.60 156.18 148.21 C 156.78 148.83 157.77 148.83 158.39 148.23 L 159.09 147.53 C 159.70 146.93 159.71 145.94 159.10 145.33 C 158.50 144.71 157.51 144.70 156.90 145.31 Z M 156.18 146.02 L 155.50 146.71 C 154.89 147.32 154.89 148.31 155.51 148.91 C 156.12 149.52 157.11 149.52 157.71 148.90 L 158.40 148.22 C 159.00 147.60 159.00 146.62 158.39 146.01 C 157.78 145.40 156.79 145.41 156.18 146.02 Z M 155.48 146.72 L 154.78 147.44 C 154.19 148.06 154.20 149.05 154.82 149.65 C 155.44 150.25 156.43 150.23 157.03 149.61 L 157.73 148.89 C 158.33 148.27 158.31 147.28 157.69 146.68 C 157.07 146.08 156.08 146.10 155.48 146.72 Z M 154.77 147.46 L 154.09 148.18 C 153.50 148.80 153.53 149.79 154.15 150.38 C 154.78 150.98 155.77 150.95 156.36 150.32 L 157.04 149.60 C 157.63 148.98 157.61 147.99 156.98 147.39 C 156.35 146.80 155.37 146.83 154.77 147.46 Z M 154.09 148.18 L 153.41 148.91 C 152.82 149.54 152.85 150.53 153.48 151.12 C 154.11 151.70 155.10 151.67 155.69 151.04 L 156.36 150.32 C 156.95 149.69 156.92 148.70 156.29 148.11 C 155.66 147.52 154.67 147.55 154.09 148.18 Z M 153.41 148.91 L 152.72 149.64 C 152.13 150.27 152.16 151.26 152.79 151.85 C 153.42 152.44 154.41 152.41 155.00 151.78 L 155.69 151.04 C 156.28 150.41 156.24 149.42 155.61 148.84 C 154.98 148.25 154.00 148.28 153.41 148.91 Z M 152.72 149.64 L 152.06 150.34 C 151.47 150.97 151.50 151.95 152.13 152.55 C 152.75 153.14 153.74 153.11 154.33 152.48 L 154.99 151.78 C 155.59 151.15 155.56 150.17 154.93 149.57 C 154.30 148.98 153.32 149.01 152.72 149.64 Z M 152.07 150.33 L 151.39 151.05 C 150.80 151.67 150.82 152.66 151.45 153.25 C 152.07 153.85 153.06 153.82 153.65 153.20 L 154.33 152.49 C 154.92 151.86 154.90 150.87 154.27 150.28 C 153.65 149.68 152.66 149.71 152.07 150.33 Z M 151.39 151.04 L 150.70 151.77 C 150.10 152.40 150.13 153.39 150.75 153.98 C 151.38 154.57 152.37 154.55 152.96 153.93 L 153.65 153.20 C 154.25 152.57 154.22 151.58 153.60 150.99 C 152.97 150.40 151.99 150.42 151.39 151.04 Z M 150.70 151.77 L 149.99 152.52 C 149.40 153.15 149.42 154.14 150.05 154.73 C 150.67 155.32 151.66 155.30 152.25 154.67 L 152.96 153.92 C 153.56 153.30 153.53 152.31 152.90 151.72 C 152.28 151.12 151.29 151.15 150.70 151.77 Z M 149.99 152.53 L 149.29 153.26 C 148.70 153.89 148.73 154.88 149.36 155.47 C 149.98 156.06 150.97 156.03 151.56 155.40 L 152.26 154.67 C 152.85 154.04 152.82 153.05 152.19 152.46 C 151.56 151.87 150.58 151.90 149.99 152.53 Z M 149.29 153.27 L 148.61 153.99 C 148.02 154.62 148.05 155.61 148.68 156.20 C 149.31 156.79 150.30 156.75 150.89 156.13 L 151.57 155.40 C 152.15 154.77 152.12 153.79 151.49 153.20 C 150.87 152.61 149.88 152.64 149.29 153.27 Z M 148.61 153.99 L 147.92 154.72 C 147.33 155.34 147.36 156.33 147.99 156.92 C 148.62 157.51 149.60 157.49 150.20 156.86 L 150.88 156.13 C 151.48 155.50 151.45 154.51 150.82 153.92 C 150.19 153.33 149.20 153.36 148.61 153.99 Z M 147.93 154.71 L 147.23 155.44 C 146.64 156.06 146.66 157.05 147.29 157.65 C 147.91 158.24 148.90 158.22 149.49 157.59 L 150.19 156.86 C 150.78 156.24 150.76 155.25 150.14 154.66 C 149.51 154.06 148.53 154.09 147.93 154.71 Z M 147.25 155.43 L 146.54 156.15 C 145.94 156.77 145.95 157.75 146.57 158.36 C 147.19 158.96 148.18 158.94 148.78 158.33 L 149.48 157.61 C 150.08 156.99 150.07 156.00 149.45 155.40 C 148.84 154.80 147.85 154.81 147.25 155.43 Z M 146.56 156.13 L 145.85 156.84 C 145.24 157.45 145.24 158.44 145.85 159.05 C 146.46 159.66 147.44 159.66 148.06 159.05 L 148.76 158.34 C 149.37 157.73 149.38 156.75 148.77 156.13 C 148.16 155.52 147.17 155.52 146.56 156.13 Z M 145.87 156.82 L 145.15 157.52 C 144.53 158.12 144.52 159.10 145.12 159.72 C 145.72 160.34 146.70 160.36 147.32 159.76 L 148.04 159.07 C 148.66 158.47 148.67 157.48 148.07 156.86 C 147.47 156.24 146.49 156.22 145.87 156.82 Z M 145.16 157.50 L 144.44 158.19 C 143.81 158.78 143.79 159.77 144.38 160.39 C 144.97 161.02 145.96 161.05 146.59 160.46 L 147.31 159.77 C 147.94 159.18 147.96 158.19 147.37 157.57 C 146.78 156.94 145.79 156.91 145.16 157.50 Z M 144.45 158.18 L 143.72 158.86 C 143.09 159.44 143.05 160.43 143.64 161.06 C 144.22 161.69 145.21 161.73 145.84 161.15 L 146.58 160.47 C 147.21 159.88 147.24 158.89 146.66 158.26 C 146.07 157.63 145.08 157.59 144.45 158.18 Z M 143.73 158.85 L 142.98 159.53 C 142.35 160.11 142.30 161.10 142.88 161.73 C 143.47 162.37 144.45 162.41 145.09 161.83 L 145.83 161.15 C 146.47 160.57 146.52 159.58 145.93 158.95 C 145.35 158.31 144.36 158.27 143.73 158.85 Z M 142.99 159.52 L 142.26 160.18 C 141.63 160.76 141.58 161.75 142.16 162.38 C 142.73 163.02 143.72 163.07 144.36 162.49 L 145.08 161.84 C 145.72 161.26 145.77 160.27 145.19 159.63 C 144.62 158.99 143.63 158.94 142.99 159.52 Z M 142.27 160.18 L 141.53 160.84 C 140.89 161.41 140.84 162.40 141.42 163.04 C 141.99 163.68 142.98 163.73 143.62 163.16 L 144.36 162.50 C 145.00 161.92 145.05 160.94 144.47 160.29 C 143.90 159.65 142.91 159.60 142.27 160.18 Z M 141.54 160.83 L 140.79 161.50 C 140.15 162.07 140.09 163.06 140.67 163.70 C 141.24 164.35 142.23 164.40 142.87 163.83 L 143.62 163.16 C 144.26 162.59 144.32 161.60 143.74 160.96 C 143.17 160.31 142.18 160.26 141.54 160.83 Z M 140.80 161.49 L 140.04 162.16 C 139.39 162.74 139.33 163.72 139.90 164.37 C 140.48 165.01 141.46 165.07 142.11 164.50 L 142.87 163.83 C 143.51 163.26 143.57 162.27 143.00 161.63 C 142.43 160.98 141.44 160.92 140.80 161.49 Z M 140.04 162.16 L 139.27 162.84 C 138.63 163.41 138.56 164.39 139.13 165.04 C 139.70 165.69 140.69 165.75 141.34 165.18 L 142.10 164.51 C 142.75 163.94 142.81 162.95 142.25 162.30 C 141.68 161.65 140.69 161.59 140.04 162.16 Z M 139.28 162.83 L 138.55 163.47 C 137.90 164.04 137.83 165.03 138.40 165.68 C 138.97 166.33 139.95 166.39 140.60 165.82 L 141.33 165.18 C 141.98 164.62 142.05 163.63 141.48 162.98 C 140.91 162.33 139.93 162.27 139.28 162.83 Z M 138.55 163.47 L 137.81 164.11 C 137.16 164.68 137.09 165.67 137.65 166.32 C 138.22 166.97 139.20 167.04 139.85 166.47 L 140.60 165.83 C 141.25 165.26 141.32 164.28 140.75 163.63 C 140.19 162.97 139.20 162.90 138.55 163.47 Z M 137.81 164.11 L 137.06 164.76 C 136.40 165.32 136.33 166.31 136.89 166.96 C 137.45 167.61 138.44 167.69 139.09 167.13 L 139.85 166.48 C 140.50 165.92 140.58 164.93 140.02 164.28 C 139.45 163.62 138.47 163.55 137.81 164.11 Z M 137.07 164.75 L 136.29 165.41 C 135.64 165.96 135.56 166.95 136.11 167.61 C 136.67 168.26 137.66 168.34 138.31 167.79 L 139.08 167.13 C 139.74 166.58 139.82 165.59 139.27 164.93 C 138.71 164.28 137.72 164.19 137.07 164.75 Z M 136.30 165.40 L 135.52 166.06 C 134.85 166.61 134.77 167.59 135.32 168.25 C 135.87 168.92 136.86 169.00 137.52 168.45 L 138.30 167.79 C 138.97 167.24 139.05 166.26 138.50 165.60 C 137.95 164.93 136.96 164.85 136.30 165.40 Z M 135.52 166.05 L 134.76 166.68 C 134.09 167.23 133.99 168.21 134.54 168.88 C 135.09 169.54 136.07 169.64 136.74 169.09 L 137.51 168.46 C 138.17 167.91 138.27 166.93 137.72 166.26 C 137.17 165.60 136.19 165.50 135.52 166.05 Z M 134.76 166.67 L 133.99 167.30 C 133.32 167.84 133.22 168.82 133.77 169.49 C 134.31 170.16 135.29 170.27 135.96 169.72 L 136.73 169.10 C 137.40 168.56 137.50 167.57 136.96 166.90 C 136.42 166.23 135.43 166.13 134.76 166.67 Z M 134.00 167.29 L 133.22 167.92 C 132.55 168.46 132.44 169.44 132.98 170.12 C 133.52 170.79 134.50 170.89 135.18 170.35 L 135.96 169.73 C 136.63 169.19 136.73 168.20 136.19 167.53 C 135.65 166.86 134.67 166.75 134.00 167.29 Z M 133.22 167.92 L 132.44 168.55 C 131.76 169.09 131.66 170.07 132.19 170.74 C 132.73 171.42 133.72 171.52 134.39 170.99 L 135.17 170.36 C 135.85 169.82 135.96 168.83 135.42 168.16 C 134.88 167.49 133.89 167.38 133.22 167.92 Z M 132.44 168.55 L 131.65 169.18 C 130.98 169.72 130.87 170.70 131.41 171.37 C 131.95 172.05 132.93 172.16 133.60 171.62 L 134.39 170.99 C 135.06 170.45 135.17 169.46 134.63 168.79 C 134.09 168.12 133.11 168.01 132.44 168.55 Z M 131.65 169.18 L 130.86 169.81 C 130.19 170.36 130.08 171.34 130.62 172.01 C 131.16 172.68 132.15 172.79 132.82 172.25 L 133.60 171.61 C 134.28 171.07 134.38 170.09 133.84 169.42 C 133.30 168.75 132.32 168.64 131.65 169.18 Z M 130.86 169.82 L 130.08 170.45 C 129.41 170.99 129.31 171.98 129.85 172.65 C 130.39 173.32 131.38 173.42 132.05 172.87 L 132.82 172.24 C 133.49 171.70 133.60 170.72 133.05 170.05 C 132.51 169.38 131.53 169.28 130.86 169.82 Z M 130.07 170.46 L 129.30 171.09 C 128.63 171.64 128.53 172.62 129.08 173.29 C 129.63 173.95 130.61 174.05 131.28 173.50 L 132.05 172.87 C 132.72 172.32 132.82 171.34 132.27 170.67 C 131.72 170.01 130.74 169.91 130.07 170.46 Z M 129.29 171.09 L 128.52 171.73 C 127.86 172.28 127.77 173.27 128.32 173.93 C 128.87 174.59 129.85 174.69 130.52 174.14 L 131.28 173.50 C 131.95 172.95 132.04 171.96 131.49 171.30 C 130.94 170.64 129.96 170.54 129.29 171.09 Z M 128.52 171.74 L 127.75 172.38 C 127.09 172.93 127.00 173.92 127.56 174.58 C 128.11 175.24 129.10 175.33 129.76 174.77 L 130.52 174.13 C 131.18 173.58 131.27 172.59 130.72 171.93 C 130.16 171.27 129.18 171.18 128.52 171.74 Z M 127.74 172.39 L 126.98 173.03 C 126.32 173.59 126.25 174.58 126.80 175.23 C 127.36 175.89 128.35 175.97 129.00 175.41 L 129.77 174.76 C 130.42 174.21 130.50 173.22 129.94 172.56 C 129.39 171.91 128.40 171.83 127.74 172.39 Z M 126.97 173.04 L 126.22 173.70 C 125.56 174.26 125.49 175.24 126.05 175.90 C 126.62 176.55 127.60 176.62 128.25 176.06 L 129.01 175.40 C 129.67 174.84 129.74 173.86 129.18 173.20 C 128.61 172.55 127.63 172.48 126.97 173.04 Z M 126.21 173.70 L 125.45 174.36 C 124.80 174.93 124.74 175.92 125.31 176.57 C 125.88 177.22 126.86 177.28 127.51 176.71 L 128.26 176.05 C 128.91 175.48 128.98 174.50 128.41 173.85 C 127.84 173.20 126.85 173.13 126.21 173.70 Z M 125.44 174.37 L 124.69 175.04 C 124.05 175.61 123.99 176.60 124.57 177.24 C 125.14 177.89 126.13 177.94 126.77 177.37 L 127.52 176.70 C 128.16 176.13 128.22 175.14 127.65 174.50 C 127.07 173.86 126.09 173.80 125.44 174.37 Z M 124.68 175.05 L 123.94 175.72 C 123.30 176.30 123.25 177.29 123.83 177.93 C 124.41 178.57 125.40 178.61 126.04 178.04 L 126.78 177.36 C 127.42 176.78 127.47 175.79 126.89 175.16 C 126.31 174.52 125.32 174.47 124.68 175.05 Z M 123.93 175.73 L 123.20 176.41 C 122.56 177.00 122.53 177.99 123.11 178.62 C 123.70 179.25 124.69 179.29 125.32 178.70 L 126.05 178.02 C 126.68 177.44 126.72 176.45 126.14 175.82 C 125.55 175.19 124.56 175.15 123.93 175.73 Z M 123.18 176.43 L 122.46 177.11 C 121.84 177.70 121.81 178.69 122.40 179.32 C 123.00 179.94 123.98 179.97 124.61 179.38 L 125.33 178.69 C 125.96 178.10 125.98 177.11 125.39 176.48 C 124.80 175.86 123.81 175.83 123.18 176.43 Z M 122.45 177.12 L 121.72 177.83 C 121.10 178.43 121.09 179.42 121.69 180.04 C 122.29 180.66 123.27 180.67 123.89 180.07 L 124.62 179.36 C 125.24 178.76 125.26 177.77 124.66 177.16 C 124.05 176.54 123.07 176.52 122.45 177.12 Z M 121.70 177.84 L 120.98 178.56 C 120.37 179.17 120.37 180.16 120.98 180.77 C 121.58 181.38 122.57 181.39 123.18 180.78 L 123.91 180.06 C 124.52 179.45 124.52 178.46 123.91 177.85 C 123.30 177.24 122.32 177.24 121.70 177.84 Z M 120.97 178.58 L 120.26 179.29 C 119.66 179.91 119.67 180.90 120.28 181.50 C 120.89 182.11 121.88 182.10 122.49 181.48 L 123.20 180.77 C 123.80 180.15 123.79 179.16 123.18 178.56 C 122.56 177.95 121.57 177.96 120.97 178.58 Z M 120.25 179.31 L 119.56 180.02 C 118.96 180.64 118.98 181.63 119.60 182.23 C 120.22 182.83 121.21 182.81 121.81 182.19 L 122.50 181.47 C 123.10 180.85 123.08 179.87 122.46 179.27 C 121.84 178.67 120.85 178.69 120.25 179.31 Z M 119.55 180.03 L 118.88 180.74 C 118.28 181.37 118.31 182.36 118.93 182.95 C 119.56 183.54 120.55 183.52 121.14 182.89 L 121.82 182.18 C 122.41 181.56 122.38 180.57 121.76 179.97 C 121.13 179.38 120.14 179.41 119.55 180.03 Z M 118.87 180.75 L 118.19 181.48 C 117.60 182.11 117.63 183.09 118.26 183.68 C 118.89 184.27 119.88 184.24 120.47 183.61 L 121.15 182.88 C 121.74 182.25 121.70 181.27 121.07 180.68 C 120.44 180.09 119.46 180.12 118.87 180.75 Z M 118.18 181.48 L 117.47 182.26 C 116.88 182.89 116.92 183.88 117.56 184.46 C 118.19 185.05 119.18 185.01 119.76 184.38 L 120.48 183.60 C 121.06 182.97 121.02 181.98 120.39 181.40 C 119.76 180.81 118.77 180.85 118.18 181.48 Z M 117.46 182.27 L 116.77 183.03 C 116.19 183.66 116.24 184.65 116.88 185.23 C 117.51 185.81 118.50 185.76 119.08 185.13 L 119.77 184.37 C 120.35 183.73 120.30 182.74 119.67 182.16 C 119.03 181.58 118.04 181.63 117.46 182.27 Z M 116.76 183.03 L 116.10 183.77 C 115.53 184.42 115.58 185.40 116.22 185.98 C 116.87 186.55 117.85 186.50 118.43 185.86 L 119.09 185.12 C 119.67 184.47 119.61 183.49 118.97 182.91 C 118.33 182.34 117.34 182.39 116.76 183.03 Z M 116.09 183.78 L 115.46 184.50 C 114.89 185.15 114.95 186.14 115.60 186.71 C 116.25 187.28 117.23 187.21 117.80 186.57 L 118.44 185.85 C 119.01 185.20 118.94 184.21 118.30 183.64 C 117.65 183.07 116.66 183.14 116.09 183.78 Z M 115.45 184.51 L 114.81 185.25 C 114.25 185.90 114.32 186.89 114.97 187.45 C 115.62 188.01 116.61 187.94 117.17 187.29 L 117.81 186.56 C 118.38 185.90 118.30 184.92 117.65 184.35 C 117.00 183.79 116.02 183.86 115.45 184.51 Z M 114.80 185.26 L 114.14 186.04 C 113.58 186.70 113.66 187.68 114.32 188.24 C 114.98 188.80 115.96 188.72 116.52 188.06 L 117.18 187.28 C 117.74 186.62 117.66 185.64 117.00 185.08 C 116.35 184.52 115.36 184.60 114.80 185.26 Z M 114.13 186.05 L 113.50 186.81 C 112.95 187.48 113.04 188.46 113.70 189.01 C 114.36 189.56 115.35 189.47 115.90 188.81 L 116.53 188.05 C 117.08 187.38 116.99 186.40 116.33 185.85 C 115.67 185.30 114.68 185.39 114.13 186.05 Z M 113.49 186.83 L 112.87 187.58 C 112.33 188.25 112.43 189.24 113.09 189.78 C 113.76 190.33 114.75 190.23 115.29 189.56 L 115.91 188.80 C 116.45 188.13 116.35 187.15 115.68 186.60 C 115.02 186.06 114.03 186.16 113.49 186.83 Z M 112.86 187.59 L 112.24 188.36 C 111.71 189.04 111.81 190.02 112.49 190.56 C 113.16 191.10 114.14 190.99 114.68 190.32 L 115.30 189.55 C 115.84 188.87 115.73 187.89 115.06 187.35 C 114.38 186.81 113.40 186.92 112.86 187.59 Z M 112.24 188.37 L 111.61 189.16 C 111.08 189.84 111.20 190.82 111.87 191.36 C 112.55 191.89 113.53 191.77 114.07 191.10 L 114.69 190.31 C 115.22 189.63 115.11 188.65 114.43 188.11 C 113.75 187.58 112.77 187.70 112.24 188.37 Z M 111.61 189.17 L 110.99 189.97 C 110.46 190.65 110.58 191.63 111.26 192.16 C 111.94 192.69 112.93 192.57 113.45 191.89 L 114.07 191.09 C 114.60 190.41 114.48 189.43 113.80 188.90 C 113.12 188.37 112.14 188.49 111.61 189.17 Z M 110.98 189.98 L 110.37 190.78 C 109.85 191.47 109.98 192.45 110.67 192.97 C 111.35 193.49 112.33 193.36 112.85 192.67 L 113.46 191.87 C 113.98 191.19 113.85 190.21 113.17 189.69 C 112.48 189.16 111.50 189.30 110.98 189.98 Z M 110.36 190.79 L 109.77 191.58 C 109.26 192.27 109.40 193.25 110.09 193.77 C 110.79 194.28 111.76 194.14 112.28 193.45 L 112.86 192.66 C 113.38 191.97 113.24 190.99 112.55 190.47 C 111.85 189.96 110.88 190.10 110.36 190.79 Z M 109.76 191.60 L 109.15 192.44 C 108.65 193.14 108.80 194.11 109.50 194.62 C 110.20 195.13 111.17 194.97 111.68 194.27 L 112.29 193.43 C 112.80 192.73 112.64 191.76 111.94 191.25 C 111.25 190.74 110.27 190.90 109.76 191.60 Z M 109.14 192.45 L 108.56 193.27 C 108.06 193.97 108.23 194.95 108.93 195.45 C 109.63 195.95 110.60 195.78 111.10 195.08 L 111.69 194.26 C 112.19 193.56 112.02 192.58 111.32 192.08 C 110.62 191.58 109.64 191.75 109.14 192.45 Z M 108.56 193.28 L 107.99 194.08 C 107.49 194.78 107.66 195.76 108.37 196.25 C 109.07 196.75 110.05 196.58 110.54 195.88 L 111.11 195.07 C 111.61 194.37 111.44 193.40 110.73 192.90 C 110.03 192.40 109.05 192.57 108.56 193.28 Z M 107.99 194.07 L 107.43 194.87 C 106.93 195.58 107.10 196.55 107.80 197.05 C 108.50 197.55 109.48 197.38 109.98 196.68 L 110.54 195.88 C 111.04 195.17 110.87 194.20 110.17 193.70 C 109.47 193.20 108.49 193.37 107.99 194.07 Z M 107.43 194.87 L 106.84 195.70 C 106.34 196.40 106.50 197.37 107.20 197.87 C 107.90 198.38 108.88 198.21 109.38 197.51 L 109.97 196.68 C 110.47 195.98 110.31 195.01 109.61 194.51 C 108.91 194.00 107.93 194.17 107.43 194.87 Z M 106.84 195.69 L 106.26 196.51 C 105.75 197.21 105.91 198.18 106.61 198.69 C 107.31 199.19 108.28 199.03 108.79 198.33 L 109.38 197.52 C 109.88 196.82 109.72 195.84 109.02 195.34 C 108.32 194.83 107.35 194.99 106.84 195.69 Z M 106.25 196.51 L 105.68 197.30 C 105.18 198.00 105.34 198.98 106.04 199.48 C 106.74 199.99 107.71 199.83 108.21 199.13 L 108.79 198.33 C 109.29 197.63 109.13 196.66 108.43 196.15 C 107.73 195.65 106.76 195.81 106.25 196.51 Z M 105.68 197.31 L 105.13 198.07 C 104.63 198.78 104.79 199.75 105.49 200.25 C 106.19 200.75 107.17 200.59 107.67 199.89 L 108.22 199.12 C 108.72 198.42 108.56 197.45 107.86 196.95 C 107.16 196.45 106.18 196.61 105.68 197.31 Z M 105.13 198.07 L 104.58 198.84 C 104.08 199.54 104.24 200.51 104.94 201.01 C 105.64 201.52 106.61 201.36 107.12 200.66 L 107.67 199.89 C 108.17 199.19 108.01 198.22 107.31 197.72 C 106.61 197.21 105.63 197.37 105.13 198.07 Z M 104.59 198.82 L 104.00 199.63 C 103.49 200.32 103.64 201.30 104.33 201.81 C 105.03 202.32 106.00 202.17 106.52 201.48 L 107.11 200.67 C 107.62 199.98 107.47 199.00 106.78 198.49 C 106.08 197.98 105.10 198.13 104.59 198.82 Z M 104.02 199.60 L 103.35 200.48 C 102.82 201.17 102.95 202.15 103.64 202.67 C 104.32 203.19 105.30 203.06 105.83 202.38 L 106.50 201.50 C 107.02 200.81 106.89 199.83 106.21 199.31 C 105.52 198.79 104.54 198.92 104.02 199.60 Z M 103.36 200.46 L 102.79 201.18 C 102.25 201.86 102.37 202.84 103.04 203.38 C 103.72 203.91 104.70 203.80 105.24 203.12 L 105.81 202.40 C 106.35 201.72 106.23 200.74 105.56 200.21 C 104.88 199.67 103.90 199.78 103.36 200.46 Z M 102.80 201.17 L 102.18 201.93 C 101.63 202.60 101.73 203.58 102.40 204.13 C 103.07 204.67 104.05 204.57 104.60 203.91 L 105.22 203.14 C 105.77 202.47 105.67 201.49 105.00 200.94 C 104.33 200.40 103.35 200.50 102.80 201.17 Z M 102.19 201.91 L 101.53 202.70 C 100.98 203.36 101.06 204.35 101.72 204.90 C 102.38 205.45 103.37 205.37 103.92 204.71 L 104.58 203.92 C 105.14 203.26 105.05 202.28 104.39 201.72 C 103.73 201.17 102.75 201.25 102.19 201.91 Z M 101.55 202.68 L 100.87 203.47 C 100.30 204.12 100.37 205.11 101.03 205.67 C 101.68 206.23 102.66 206.16 103.23 205.51 L 103.91 204.73 C 104.47 204.08 104.40 203.09 103.75 202.52 C 103.10 201.96 102.11 202.03 101.55 202.68 Z M 100.88 203.45 L 100.19 204.22 C 99.62 204.86 99.67 205.85 100.31 206.42 C 100.96 207.00 101.94 206.94 102.52 206.30 L 103.21 205.53 C 103.79 204.89 103.73 203.90 103.09 203.33 C 102.45 202.75 101.46 202.81 100.88 203.45 Z M 100.21 204.20 L 99.49 204.97 C 98.90 205.60 98.94 206.59 99.57 207.18 C 100.20 207.77 101.19 207.73 101.77 207.10 L 102.50 206.33 C 103.09 205.70 103.05 204.71 102.42 204.12 C 101.79 203.53 100.80 203.57 100.21 204.20 Z M 99.51 204.95 L 98.80 205.68 C 98.20 206.30 98.22 207.29 98.83 207.89 C 99.45 208.49 100.44 208.48 101.04 207.86 L 101.75 207.12 C 102.35 206.51 102.34 205.52 101.72 204.92 C 101.10 204.32 100.11 204.33 99.51 204.95 Z M 98.82 205.66 L 98.12 206.35 C 97.51 206.96 97.51 207.95 98.11 208.56 C 98.72 209.17 99.71 209.18 100.32 208.57 L 101.02 207.88 C 101.63 207.27 101.64 206.28 101.03 205.67 C 100.42 205.06 99.43 205.05 98.82 205.66 Z M 98.14 206.33 L 97.46 206.99 C 96.83 207.59 96.81 208.57 97.41 209.20 C 98.00 209.82 98.99 209.84 99.61 209.25 L 100.30 208.59 C 100.92 208.00 100.95 207.01 100.35 206.38 C 99.75 205.76 98.77 205.74 98.14 206.33 Z M 97.48 206.97 L 96.74 207.65 C 96.11 208.23 96.07 209.22 96.65 209.85 C 97.24 210.49 98.23 210.53 98.86 209.94 L 99.59 209.27 C 100.23 208.68 100.27 207.69 99.68 207.06 C 99.10 206.43 98.11 206.39 97.48 206.97 Z M 96.76 207.63 L 96.00 208.31 C 95.36 208.88 95.31 209.87 95.88 210.51 C 96.46 211.16 97.44 211.21 98.08 210.64 L 98.84 209.96 C 99.49 209.38 99.54 208.40 98.97 207.76 C 98.39 207.11 97.40 207.06 96.76 207.63 Z M 96.02 208.30 L 95.27 208.95 C 94.62 209.51 94.55 210.50 95.12 211.15 C 95.69 211.80 96.67 211.87 97.32 211.30 L 98.07 210.65 C 98.72 210.08 98.79 209.10 98.22 208.45 C 97.65 207.80 96.67 207.73 96.02 208.30 Z M 95.28 208.94 L 94.54 209.58 C 93.89 210.14 93.81 211.12 94.37 211.78 C 94.94 212.43 95.92 212.51 96.58 211.94 L 97.32 211.31 C 97.97 210.75 98.04 209.76 97.48 209.11 C 96.92 208.45 95.93 208.38 95.28 208.94 Z M 94.54 209.57 L 94.29 209.79 C 93.64 210.35 93.56 211.33 94.12 211.99 C 94.68 212.65 95.67 212.72 96.32 212.16 L 96.57 211.95 C 97.23 211.39 97.30 210.40 96.74 209.74 C 96.18 209.09 95.20 209.01 94.54 209.57 Z"
      fill="black"
      fill-rule="nonzero" /></svg>