<svg xmlns="http://www.w3.org/2000/svg" width="300" height="300" viewBox="0 0 300 300">
<path d="M 101.92 86.73 L 100.71 86.43 C 99.87 86.22 99.03 86.73 98.82 87.57 C 98.61 88.40 99.12 89.25 99.95 89.46 L 101.16 89.76 C 102.00 89.97 102.84 89.46 103.05 88.63 C 103.26 87.79 102.75 86.94 101.92 86.73 Z M 100.51 86.39 L 99.53 86.28 C 98.67 86.18 97.90 86.80 97.80 87.66 C 97.70 88.51 98.32 89.29 99.17 89.38 L 100.15 89.50 C 101.01 89.60 101.78 88.98 101.88 88.12 C 101.98 87.27 101.37 86.49 100.51 86.39 Z M 98.64 86.45 L 98.10 86.72 C 97.34 87.12 97.04 88.06 97.43 88.82 C 97.83 89.59 98.77 89.89 99.54 89.50 L 100.07 89.22 C 100.84 88.83 101.14 87.88 100.74 87.12 C 100.34 86.35 99.40 86.05 98.64 86.45 Z M 97.26 88.16 L 97.29 88.96 C 97.32 89.82 98.04 90.49 98.90 90.46 C 99.76 90.44 100.44 89.71 100.41 88.85 L 100.38 88.06 C 100.35 87.19 99.63 86.52 98.77 86.55 C 97.91 86.58 97.23 87.30 97.26 88.16 Z M 97.36 89.37 L 97.71 90.48 C 97.97 91.31 98.85 91.76 99.67 91.50 C 100.49 91.24 100.95 90.37 100.69 89.54 L 100.34 88.43 C 100.08 87.61 99.20 87.16 98.38 87.42 C 97.55 87.68 97.10 88.55 97.36 89.37 Z M 97.71 90.48 L 98.02 91.49 C 98.28 92.31 99.16 92.77 99.98 92.51 C 100.80 92.25 101.26 91.38 101.00 90.55 L 100.69 89.55 C 100.43 88.73 99.56 88.27 98.73 88.52 C 97.91 88.78 97.45 89.66 97.71 90.48 Z M 98.00 91.41 L 98.25 92.36 C 98.47 93.19 99.32 93.69 100.15 93.48 C 100.99 93.26 101.49 92.41 101.27 91.57 L 101.02 90.63 C 100.81 89.79 99.95 89.29 99.12 89.51 C 98.28 89.73 97.78 90.58 98.00 91.41 Z M 98.24 92.32 L 98.47 93.31 C 98.67 94.15 99.51 94.67 100.35 94.47 C 101.19 94.27 101.71 93.43 101.51 92.59 L 101.28 91.61 C 101.08 90.77 100.24 90.25 99.40 90.45 C 98.56 90.64 98.04 91.48 98.24 92.32 Z M 98.47 93.30 L 98.69 94.27 C 98.89 95.11 99.73 95.63 100.57 95.44 C 101.41 95.24 101.93 94.40 101.74 93.56 L 101.51 92.60 C 101.32 91.76 100.48 91.23 99.64 91.43 C 98.80 91.62 98.28 92.46 98.47 93.30 Z M 98.70 94.28 L 98.91 95.19 C 99.11 96.03 99.95 96.55 100.79 96.35 C 101.63 96.15 102.15 95.31 101.95 94.47 L 101.73 93.56 C 101.54 92.72 100.70 92.20 99.86 92.40 C 99.02 92.60 98.50 93.44 98.70 94.28 Z M 98.91 95.19 L 99.14 96.16 C 99.34 97.00 100.18 97.52 101.02 97.32 C 101.86 97.13 102.38 96.29 102.18 95.45 L 101.95 94.48 C 101.75 93.64 100.91 93.12 100.08 93.31 C 99.24 93.51 98.72 94.35 98.91 95.19 Z M 99.14 96.15 L 99.37 97.17 C 99.56 98.02 100.40 98.54 101.24 98.35 C 102.08 98.16 102.61 97.32 102.42 96.48 L 102.18 95.46 C 101.99 94.62 101.15 94.09 100.31 94.28 C 99.47 94.47 98.95 95.31 99.14 96.15 Z M 99.37 97.16 L 99.58 98.16 C 99.77 99.00 100.60 99.53 101.44 99.35 C 102.28 99.17 102.82 98.34 102.64 97.49 L 102.42 96.50 C 102.24 95.65 101.40 95.12 100.56 95.30 C 99.72 95.49 99.19 96.32 99.37 97.16 Z M 99.58 98.14 L 99.78 99.08 C 99.95 99.92 100.78 100.47 101.62 100.29 C 102.47 100.11 103.01 99.29 102.83 98.44 L 102.64 97.51 C 102.46 96.66 101.64 96.12 100.79 96.30 C 99.95 96.47 99.41 97.30 99.58 98.14 Z M 99.77 99.07 L 99.97 100.04 C 100.14 100.89 100.97 101.43 101.81 101.26 C 102.66 101.09 103.20 100.27 103.03 99.42 L 102.83 98.45 C 102.66 97.61 101.84 97.06 100.99 97.23 C 100.15 97.40 99.60 98.23 99.77 99.07 Z M 99.97 100.04 L 100.18 101.04 C 100.35 101.89 101.17 102.43 102.02 102.26 C 102.86 102.09 103.41 101.27 103.23 100.42 L 103.03 99.42 C 102.86 98.58 102.04 98.03 101.19 98.20 C 100.35 98.37 99.80 99.20 99.97 100.04 Z M 100.18 101.05 L 100.39 102.07 C 100.56 102.92 101.39 103.46 102.23 103.28 C 103.08 103.11 103.62 102.28 103.45 101.44 L 103.23 100.41 C 103.06 99.57 102.23 99.03 101.39 99.20 C 100.54 99.38 100.00 100.20 100.18 101.05 Z M 100.39 102.08 L 100.60 103.05 C 100.78 103.90 101.61 104.43 102.45 104.25 C 103.30 104.07 103.83 103.24 103.65 102.40 L 103.44 101.43 C 103.26 100.58 102.43 100.05 101.59 100.23 C 100.75 100.41 100.21 101.24 100.39 102.08 Z M 100.60 103.06 L 100.81 104.02 C 101.00 104.86 101.83 105.39 102.68 105.20 C 103.52 105.01 104.05 104.18 103.86 103.34 L 103.65 102.39 C 103.46 101.55 102.63 101.01 101.79 101.20 C 100.94 101.39 100.41 102.22 100.60 103.06 Z M 100.82 104.03 L 101.04 104.99 C 101.23 105.84 102.07 106.36 102.91 106.17 C 103.75 105.97 104.27 105.13 104.08 104.29 L 103.86 103.33 C 103.66 102.49 102.83 101.96 101.99 102.16 C 101.15 102.35 100.62 103.19 100.82 104.03 Z M 101.04 105.01 L 101.28 105.99 C 101.48 106.83 102.32 107.34 103.16 107.14 C 104.00 106.94 104.51 106.10 104.31 105.26 L 104.08 104.28 C 103.88 103.44 103.04 102.93 102.20 103.13 C 101.36 103.33 100.84 104.17 101.04 105.01 Z M 101.28 106.00 L 101.53 107.00 C 101.73 107.83 102.58 108.34 103.42 108.14 C 104.25 107.93 104.76 107.08 104.56 106.25 L 104.31 105.25 C 104.10 104.41 103.26 103.90 102.42 104.11 C 101.58 104.32 101.07 105.16 101.28 106.00 Z M 101.53 107.01 L 101.78 107.99 C 101.99 108.83 102.85 109.33 103.68 109.11 C 104.52 108.90 105.02 108.05 104.80 107.21 L 104.55 106.23 C 104.34 105.40 103.49 104.89 102.65 105.11 C 101.82 105.32 101.31 106.17 101.53 107.01 Z M 101.78 108.00 L 102.03 108.95 C 102.26 109.78 103.11 110.28 103.94 110.06 C 104.78 109.84 105.27 108.98 105.05 108.15 L 104.80 107.20 C 104.58 106.37 103.73 105.87 102.89 106.09 C 102.06 106.31 101.56 107.17 101.78 108.00 Z M 102.04 108.96 L 102.30 109.92 C 102.53 110.75 103.38 111.24 104.22 111.01 C 105.05 110.78 105.54 109.92 105.31 109.09 L 105.05 108.14 C 104.82 107.30 103.96 106.81 103.13 107.04 C 102.30 107.27 101.81 108.13 102.04 108.96 Z M 102.30 109.93 L 102.57 110.89 C 102.81 111.72 103.67 112.21 104.50 111.97 C 105.33 111.74 105.81 110.88 105.58 110.05 L 105.31 109.08 C 105.07 108.25 104.21 107.77 103.38 108.00 C 102.55 108.24 102.07 109.10 102.30 109.93 Z M 102.58 110.90 L 102.86 111.87 C 103.10 112.70 103.96 113.18 104.79 112.94 C 105.62 112.70 106.10 111.83 105.86 111.01 L 105.58 110.03 C 105.34 109.21 104.47 108.73 103.64 108.97 C 102.81 109.21 102.34 110.07 102.58 110.90 Z M 102.86 111.89 L 103.15 112.86 C 103.40 113.69 104.27 114.16 105.09 113.91 C 105.92 113.67 106.39 112.80 106.14 111.97 L 105.85 111.00 C 105.61 110.17 104.74 109.70 103.91 109.94 C 103.09 110.19 102.62 111.06 102.86 111.89 Z M 103.16 112.87 L 103.46 113.88 C 103.72 114.71 104.59 115.17 105.41 114.92 C 106.24 114.67 106.70 113.79 106.45 112.97 L 106.14 111.96 C 105.89 111.14 105.02 110.67 104.19 110.92 C 103.37 111.18 102.90 112.05 103.16 112.87 Z M 103.47 113.89 L 103.79 114.91 C 104.04 115.73 104.92 116.19 105.74 115.93 C 106.56 115.68 107.02 114.80 106.77 113.98 L 106.45 112.96 C 106.19 112.14 105.31 111.68 104.49 111.94 C 103.67 112.19 103.21 113.07 103.47 113.89 Z M 103.79 114.92 L 104.11 115.91 C 104.37 116.74 105.25 117.19 106.07 116.93 C 106.89 116.66 107.34 115.79 107.08 114.96 L 106.76 113.97 C 106.50 113.15 105.62 112.70 104.80 112.96 C 103.98 113.22 103.53 114.10 103.79 114.92 Z M 104.11 115.92 L 104.42 116.88 C 104.68 117.70 105.56 118.14 106.38 117.88 C 107.20 117.61 107.65 116.73 107.39 115.91 L 107.08 114.96 C 106.81 114.14 105.93 113.69 105.11 113.95 C 104.29 114.22 103.84 115.10 104.11 115.92 Z M 104.42 116.88 L 104.72 117.78 C 104.98 118.60 105.87 119.04 106.69 118.77 C 107.50 118.50 107.95 117.62 107.68 116.80 L 107.39 115.91 C 107.12 115.09 106.23 114.64 105.41 114.91 C 104.60 115.18 104.15 116.06 104.42 116.88 Z M 104.72 117.78 L 105.01 118.67 C 105.28 119.48 106.17 119.93 106.98 119.65 C 107.80 119.38 108.24 118.50 107.97 117.68 L 107.68 116.80 C 107.41 115.98 106.52 115.54 105.70 115.81 C 104.89 116.08 104.44 116.97 104.72 117.78 Z M 105.01 118.67 L 105.37 119.74 C 105.65 120.56 106.53 121.00 107.35 120.72 C 108.17 120.45 108.60 119.56 108.33 118.74 L 107.97 117.68 C 107.70 116.86 106.81 116.42 105.99 116.69 C 105.18 116.97 104.74 117.85 105.01 118.67 Z M 105.37 119.74 L 105.69 120.68 C 105.96 121.49 106.85 121.93 107.66 121.66 C 108.48 121.38 108.92 120.50 108.65 119.68 L 108.33 118.74 C 108.05 117.93 107.17 117.49 106.35 117.76 C 105.54 118.04 105.10 118.92 105.37 119.74 Z M 105.69 120.67 L 105.97 121.54 C 106.24 122.35 107.13 122.80 107.95 122.53 C 108.76 122.25 109.21 121.37 108.94 120.55 L 108.65 119.69 C 108.38 118.87 107.49 118.43 106.67 118.70 C 105.86 118.97 105.41 119.85 105.69 120.67 Z M 105.97 121.52 L 106.25 122.41 C 106.52 123.23 107.40 123.68 108.22 123.42 C 109.04 123.15 109.49 122.27 109.22 121.45 L 108.94 120.57 C 108.68 119.75 107.80 119.29 106.98 119.56 C 106.15 119.82 105.70 120.70 105.97 121.52 Z M 106.25 122.39 L 106.54 123.34 C 106.80 124.16 107.67 124.62 108.50 124.37 C 109.32 124.11 109.78 123.24 109.52 122.41 L 109.23 121.47 C 108.97 120.64 108.10 120.18 107.28 120.44 C 106.45 120.69 105.99 121.57 106.25 122.39 Z M 106.54 123.33 L 106.83 124.29 C 107.09 125.12 107.96 125.58 108.78 125.33 C 109.61 125.08 110.07 124.20 109.82 123.38 L 109.53 122.42 C 109.27 121.60 108.40 121.13 107.58 121.38 C 106.75 121.64 106.29 122.51 106.54 123.33 Z M 106.83 124.29 L 107.13 125.26 C 107.38 126.08 108.26 126.55 109.08 126.29 C 109.91 126.04 110.37 125.17 110.12 124.34 L 109.82 123.38 C 109.57 122.55 108.69 122.09 107.87 122.34 C 107.04 122.60 106.58 123.47 106.83 124.29 Z M 107.13 125.27 L 107.43 126.21 C 107.68 127.03 108.56 127.49 109.38 127.23 C 110.20 126.98 110.66 126.10 110.41 125.28 L 110.11 124.34 C 109.86 123.51 108.98 123.05 108.16 123.31 C 107.33 123.57 106.88 124.44 107.13 125.27 Z M 107.43 126.21 L 107.73 127.17 C 107.99 127.99 108.86 128.44 109.69 128.19 C 110.51 127.93 110.96 127.05 110.71 126.23 L 110.41 125.27 C 110.15 124.45 109.27 124.00 108.45 124.25 C 107.63 124.51 107.17 125.39 107.43 126.21 Z M 107.73 127.17 L 108.03 128.13 C 108.29 128.95 109.17 129.41 109.99 129.15 C 110.81 128.89 111.27 128.01 111.01 127.19 L 110.71 126.23 C 110.45 125.40 109.57 124.95 108.75 125.21 C 107.93 125.47 107.47 126.34 107.73 127.17 Z M 108.03 128.13 L 108.33 129.07 C 108.58 129.90 109.46 130.35 110.28 130.10 C 111.11 129.84 111.56 128.96 111.31 128.14 L 111.01 127.19 C 110.75 126.37 109.88 125.91 109.05 126.17 C 108.23 126.43 107.77 127.30 108.03 128.13 Z M 108.33 129.07 L 108.62 130.01 C 108.87 130.84 109.75 131.30 110.57 131.04 C 111.39 130.79 111.85 129.92 111.60 129.09 L 111.31 128.15 C 111.05 127.32 110.18 126.86 109.36 127.12 C 108.53 127.37 108.07 128.24 108.33 129.07 Z M 108.62 130.01 L 108.91 130.97 C 109.16 131.79 110.03 132.26 110.85 132.01 C 111.68 131.76 112.15 130.88 111.89 130.06 L 111.60 129.10 C 111.35 128.27 110.48 127.81 109.65 128.06 C 108.83 128.31 108.36 129.18 108.62 130.01 Z M 108.90 130.96 L 109.20 131.94 C 109.44 132.76 110.31 133.23 111.14 132.99 C 111.96 132.74 112.43 131.87 112.19 131.04 L 111.90 130.07 C 111.65 129.24 110.78 128.77 109.95 129.02 C 109.13 129.26 108.66 130.13 108.90 130.96 Z M 109.19 131.93 L 109.47 132.88 C 109.71 133.71 110.58 134.18 111.41 133.94 C 112.24 133.70 112.71 132.83 112.47 132.00 L 112.19 131.05 C 111.95 130.22 111.08 129.75 110.25 129.99 C 109.43 130.23 108.95 131.10 109.19 131.93 Z M 109.47 132.87 L 109.75 133.84 C 109.99 134.67 110.85 135.14 111.68 134.90 C 112.51 134.66 112.99 133.80 112.75 132.97 L 112.47 132.01 C 112.23 131.18 111.37 130.70 110.54 130.94 C 109.71 131.18 109.23 132.05 109.47 132.87 Z M 109.75 133.84 L 110.03 134.80 C 110.27 135.63 111.13 136.11 111.96 135.87 C 112.79 135.63 113.27 134.77 113.03 133.94 L 112.75 132.97 C 112.51 132.14 111.65 131.66 110.82 131.90 C 109.99 132.14 109.51 133.01 109.75 133.84 Z M 110.03 134.80 L 110.31 135.77 C 110.55 136.60 111.41 137.07 112.24 136.83 C 113.07 136.59 113.55 135.73 113.31 134.90 L 113.03 133.94 C 112.79 133.11 111.92 132.63 111.09 132.87 C 110.27 133.11 109.79 133.98 110.03 134.80 Z M 110.31 135.77 L 110.59 136.74 C 110.83 137.56 111.70 138.04 112.53 137.80 C 113.36 137.55 113.83 136.68 113.59 135.86 L 113.31 134.89 C 113.06 134.07 112.20 133.59 111.37 133.84 C 110.54 134.08 110.07 134.95 110.31 135.77 Z M 110.59 136.74 L 110.88 137.70 C 111.13 138.53 112.00 139.00 112.82 138.75 C 113.65 138.50 114.12 137.63 113.87 136.81 L 113.59 135.85 C 113.34 135.02 112.47 134.55 111.64 134.80 C 110.82 135.05 110.35 135.92 110.59 136.74 Z M 110.88 137.71 L 111.17 138.66 C 111.43 139.49 112.30 139.95 113.13 139.70 C 113.95 139.45 114.41 138.57 114.16 137.75 L 113.87 136.80 C 113.62 135.97 112.74 135.51 111.92 135.76 C 111.09 136.01 110.63 136.89 110.88 137.71 Z M 111.18 138.68 L 111.48 139.63 C 111.74 140.45 112.62 140.91 113.44 140.65 C 114.26 140.39 114.72 139.51 114.46 138.69 L 114.16 137.74 C 113.90 136.91 113.02 136.46 112.20 136.72 C 111.38 136.98 110.92 137.85 111.18 138.68 Z M 111.48 139.65 L 111.80 140.60 C 112.06 141.42 112.94 141.87 113.76 141.60 C 114.58 141.34 115.03 140.46 114.77 139.64 L 114.45 138.68 C 114.19 137.86 113.31 137.41 112.49 137.68 C 111.67 137.94 111.22 138.83 111.48 139.65 Z M 111.80 140.62 L 112.12 141.57 C 112.39 142.38 113.28 142.82 114.09 142.55 C 114.91 142.28 115.35 141.39 115.08 140.58 L 114.76 139.62 C 114.49 138.81 113.60 138.37 112.79 138.64 C 111.97 138.91 111.53 139.80 111.80 140.62 Z M 112.12 141.58 L 112.44 142.51 C 112.72 143.33 113.61 143.77 114.43 143.49 C 115.24 143.21 115.68 142.32 115.40 141.50 L 115.08 140.56 C 114.80 139.75 113.91 139.31 113.09 139.59 C 112.28 139.87 111.84 140.76 112.12 141.58 Z M 112.45 142.53 L 112.79 143.49 C 113.07 144.30 113.96 144.73 114.78 144.45 C 115.59 144.16 116.02 143.27 115.73 142.46 L 115.39 141.49 C 115.11 140.68 114.22 140.25 113.40 140.54 C 112.59 140.82 112.16 141.71 112.45 142.53 Z M 112.79 143.50 L 113.13 144.46 C 113.42 145.27 114.31 145.69 115.13 145.40 C 115.94 145.11 116.36 144.22 116.07 143.41 L 115.73 142.45 C 115.44 141.64 114.55 141.21 113.73 141.50 C 112.92 141.79 112.50 142.69 112.79 143.50 Z M 113.13 144.46 L 113.47 145.39 C 113.76 146.20 114.66 146.62 115.47 146.33 C 116.28 146.03 116.70 145.14 116.40 144.33 L 116.07 143.40 C 115.78 142.59 114.88 142.17 114.07 142.46 C 113.26 142.76 112.84 143.65 113.13 144.46 Z M 113.47 145.39 L 113.80 146.30 C 114.10 147.11 114.99 147.53 115.80 147.24 C 116.61 146.94 117.03 146.05 116.74 145.24 L 116.40 144.33 C 116.11 143.52 115.21 143.10 114.40 143.39 C 113.59 143.69 113.17 144.58 113.47 145.39 Z M 113.80 146.31 L 114.14 147.23 C 114.44 148.04 115.33 148.46 116.14 148.16 C 116.95 147.87 117.37 146.97 117.07 146.16 L 116.73 145.23 C 116.44 144.42 115.54 144.01 114.73 144.30 C 113.92 144.60 113.51 145.50 113.80 146.31 Z M 114.14 147.24 L 114.49 148.17 C 114.79 148.97 115.69 149.39 116.50 149.09 C 117.30 148.79 117.71 147.89 117.41 147.08 L 117.07 146.15 C 116.77 145.34 115.87 144.93 115.06 145.23 C 114.25 145.53 113.84 146.43 114.14 147.24 Z M 114.49 148.18 L 114.86 149.14 C 115.17 149.94 116.07 150.35 116.87 150.04 C 117.68 149.73 118.08 148.83 117.77 148.02 L 117.41 147.07 C 117.10 146.26 116.20 145.86 115.39 146.16 C 114.59 146.47 114.18 147.37 114.49 148.18 Z M 114.86 149.15 L 115.22 150.06 C 115.54 150.86 116.44 151.26 117.25 150.94 C 118.05 150.62 118.44 149.72 118.13 148.91 L 117.77 148.01 C 117.45 147.21 116.55 146.81 115.74 147.13 C 114.94 147.44 114.55 148.35 114.86 149.15 Z M 115.23 150.07 L 115.60 151.00 C 115.92 151.80 116.83 152.19 117.63 151.87 C 118.43 151.55 118.82 150.64 118.50 149.84 L 118.12 148.90 C 117.80 148.10 116.89 147.72 116.09 148.04 C 115.29 148.36 114.90 149.27 115.23 150.07 Z M 115.60 151.01 L 115.99 151.95 C 116.31 152.75 117.22 153.13 118.02 152.81 C 118.82 152.48 119.20 151.57 118.88 150.77 L 118.50 149.83 C 118.17 149.03 117.26 148.65 116.46 148.97 C 115.66 149.30 115.28 150.21 115.60 151.01 Z M 115.99 151.95 L 116.38 152.89 C 116.70 153.69 117.61 154.07 118.41 153.75 C 119.21 153.42 119.59 152.51 119.26 151.71 L 118.88 150.77 C 118.55 149.97 117.64 149.59 116.84 149.92 C 116.04 150.24 115.66 151.16 115.99 151.95 Z M 116.38 152.90 L 116.76 153.84 C 117.09 154.64 118.00 155.02 118.80 154.69 C 119.60 154.36 119.98 153.45 119.65 152.65 L 119.26 151.71 C 118.93 150.91 118.02 150.53 117.22 150.86 C 116.43 151.19 116.05 152.10 116.38 152.90 Z M 116.77 153.84 L 117.15 154.76 C 117.48 155.56 118.39 155.94 119.19 155.61 C 119.98 155.28 120.36 154.36 120.03 153.57 L 119.65 152.65 C 119.32 151.85 118.41 151.47 117.61 151.80 C 116.81 152.13 116.44 153.05 116.77 153.84 Z M 117.15 154.77 L 117.52 155.67 C 117.86 156.46 118.77 156.84 119.57 156.51 C 120.36 156.17 120.74 155.26 120.41 154.46 L 120.03 153.56 C 119.70 152.77 118.78 152.39 117.99 152.72 C 117.19 153.06 116.82 153.97 117.15 154.77 Z M 117.53 155.67 L 117.92 156.59 C 118.25 157.39 119.17 157.76 119.96 157.42 C 120.76 157.09 121.13 156.17 120.79 155.38 L 120.40 154.46 C 120.07 153.66 119.15 153.29 118.36 153.63 C 117.56 153.96 117.19 154.88 117.53 155.67 Z M 117.92 156.60 L 118.31 157.52 C 118.66 158.31 119.57 158.68 120.37 158.34 C 121.16 158.00 121.52 157.08 121.18 156.29 L 120.79 155.37 C 120.45 154.58 119.53 154.21 118.74 154.55 C 117.95 154.89 117.58 155.81 117.92 156.60 Z M 118.32 157.53 L 118.72 158.45 C 119.07 159.23 119.99 159.59 120.78 159.25 C 121.57 158.90 121.93 157.98 121.58 157.19 L 121.18 156.27 C 120.83 155.49 119.91 155.13 119.12 155.48 C 118.33 155.82 117.97 156.74 118.32 157.53 Z M 118.73 158.46 L 119.14 159.37 C 119.50 160.16 120.42 160.50 121.21 160.15 C 121.99 159.79 122.34 158.87 121.99 158.08 L 121.57 157.17 C 121.22 156.39 120.29 156.04 119.51 156.39 C 118.72 156.75 118.37 157.68 118.73 158.46 Z M 119.15 159.38 L 119.57 160.29 C 119.93 161.07 120.86 161.41 121.64 161.05 C 122.42 160.69 122.76 159.76 122.40 158.98 L 121.98 158.07 C 121.62 157.29 120.69 156.95 119.91 157.31 C 119.12 157.67 118.78 158.60 119.15 159.38 Z M 119.57 160.30 L 119.99 161.20 C 120.36 161.98 121.29 162.32 122.07 161.96 C 122.85 161.59 123.19 160.66 122.82 159.88 L 122.40 158.97 C 122.03 158.19 121.10 157.85 120.32 158.22 C 119.54 158.59 119.20 159.51 119.57 160.30 Z M 119.99 161.20 L 120.41 162.11 C 120.78 162.89 121.70 163.23 122.49 162.87 C 123.27 162.50 123.61 161.57 123.25 160.79 L 122.82 159.88 C 122.46 159.10 121.53 158.76 120.75 159.13 C 119.97 159.49 119.63 160.42 119.99 161.20 Z M 120.41 162.10 L 120.83 163.02 C 121.19 163.81 122.11 164.15 122.90 163.79 C 123.68 163.44 124.03 162.51 123.67 161.73 L 123.25 160.80 C 122.89 160.02 121.97 159.67 121.18 160.03 C 120.40 160.39 120.05 161.31 120.41 162.10 Z M 120.82 163.01 L 121.23 163.93 C 121.58 164.71 122.51 165.07 123.29 164.72 C 124.08 164.36 124.44 163.44 124.08 162.65 L 123.68 161.74 C 123.32 160.95 122.40 160.60 121.61 160.95 C 120.83 161.30 120.47 162.22 120.82 163.01 Z M 121.23 163.92 L 121.62 164.82 C 121.97 165.61 122.89 165.97 123.68 165.62 C 124.47 165.28 124.83 164.36 124.48 163.57 L 124.09 162.66 C 123.74 161.87 122.82 161.51 122.03 161.86 C 121.24 162.20 120.88 163.13 121.23 163.92 Z M 121.62 164.81 L 122.00 165.70 C 122.34 166.50 123.26 166.86 124.05 166.52 C 124.85 166.18 125.21 165.26 124.87 164.47 L 124.49 163.58 C 124.15 162.78 123.23 162.42 122.44 162.76 C 121.64 163.10 121.28 164.01 121.62 164.81 Z M 122.00 165.70 L 122.38 166.60 C 122.72 167.39 123.64 167.76 124.43 167.43 C 125.23 167.09 125.60 166.17 125.26 165.38 L 124.87 164.48 C 124.54 163.68 123.62 163.31 122.83 163.65 C 122.03 163.99 121.66 164.91 122.00 165.70 Z M 122.39 166.60 L 122.79 167.54 C 123.13 168.33 124.04 168.70 124.84 168.36 C 125.63 168.02 126.00 167.10 125.66 166.31 L 125.26 165.37 C 124.92 164.58 124.00 164.21 123.21 164.55 C 122.41 164.89 122.05 165.81 122.39 166.60 Z M 122.79 167.55 L 123.19 168.46 C 123.53 169.25 124.45 169.61 125.24 169.27 C 126.03 168.92 126.39 168.00 126.05 167.21 L 125.65 166.30 C 125.31 165.51 124.39 165.15 123.60 165.49 C 122.81 165.84 122.45 166.76 122.79 167.55 Z M 123.19 168.47 L 123.59 169.37 C 123.94 170.16 124.86 170.52 125.65 170.17 C 126.44 169.82 126.80 168.90 126.45 168.11 L 126.05 167.20 C 125.70 166.41 124.77 166.06 123.99 166.41 C 123.20 166.76 122.84 167.68 123.19 168.47 Z M 123.59 169.38 L 124.01 170.30 C 124.36 171.09 125.28 171.45 126.07 171.10 C 126.86 170.74 127.21 169.82 126.86 169.03 L 126.44 168.10 C 126.09 167.32 125.17 166.96 124.38 167.31 C 123.60 167.67 123.24 168.59 123.59 169.38 Z M 124.01 170.31 L 124.42 171.24 C 124.77 172.02 125.70 172.38 126.49 172.03 C 127.27 171.68 127.63 170.75 127.27 169.96 L 126.86 169.03 C 126.51 168.25 125.58 167.89 124.80 168.24 C 124.01 168.59 123.66 169.52 124.01 170.31 Z M 124.42 171.24 L 124.83 172.16 C 125.18 172.95 126.11 173.30 126.89 172.95 C 127.68 172.60 128.04 171.68 127.69 170.89 L 127.28 169.97 C 126.93 169.18 126.00 168.82 125.22 169.17 C 124.43 169.52 124.07 170.45 124.42 171.24 Z M 124.83 172.16 L 125.24 173.07 C 125.58 173.86 126.51 174.22 127.29 173.87 C 128.08 173.52 128.44 172.60 128.09 171.81 L 127.69 170.90 C 127.34 170.11 126.42 169.75 125.63 170.10 C 124.84 170.45 124.48 171.37 124.83 172.16 Z M 125.23 173.07 L 125.63 173.98 C 125.98 174.77 126.90 175.13 127.69 174.78 C 128.48 174.44 128.84 173.52 128.49 172.73 L 128.09 171.82 C 127.75 171.03 126.83 170.67 126.04 171.01 C 125.25 171.36 124.89 172.28 125.23 173.07 Z M 125.63 173.97 L 126.02 174.88 C 126.37 175.67 127.29 176.04 128.08 175.70 C 128.87 175.35 129.23 174.43 128.89 173.64 L 128.49 172.73 C 128.15 171.94 127.23 171.58 126.44 171.92 C 125.65 172.26 125.29 173.18 125.63 173.97 Z M 126.02 174.88 L 126.41 175.79 C 126.75 176.58 127.67 176.95 128.47 176.61 C 129.26 176.27 129.62 175.35 129.28 174.56 L 128.89 173.65 C 128.55 172.85 127.63 172.49 126.84 172.83 C 126.05 173.17 125.68 174.09 126.02 174.88 Z M 126.41 175.79 L 126.81 176.71 C 127.14 177.50 128.06 177.87 128.85 177.53 C 129.65 177.19 130.02 176.28 129.68 175.48 L 129.29 174.56 C 128.95 173.77 128.03 173.40 127.24 173.74 C 126.44 174.08 126.08 175.00 126.41 175.79 Z M 126.80 176.71 L 127.20 177.63 C 127.53 178.42 128.45 178.80 129.24 178.46 C 130.04 178.12 130.41 177.21 130.07 176.41 L 129.68 175.49 C 129.34 174.69 128.43 174.32 127.63 174.66 C 126.84 175.00 126.47 175.91 126.80 176.71 Z M 127.20 177.63 L 127.59 178.56 C 127.92 179.35 128.84 179.72 129.63 179.39 C 130.43 179.05 130.80 178.13 130.46 177.34 L 130.07 176.41 C 129.74 175.62 128.82 175.25 128.03 175.58 C 127.23 175.92 126.86 176.83 127.20 177.63 Z M 127.59 178.56 L 127.98 179.48 C 128.31 180.27 129.23 180.65 130.02 180.31 C 130.82 179.97 131.19 179.06 130.85 178.26 L 130.46 177.34 C 130.13 176.55 129.21 176.17 128.42 176.51 C 127.62 176.85 127.25 177.76 127.59 178.56 Z M 127.98 179.48 L 128.37 180.40 C 128.71 181.20 129.62 181.57 130.42 181.23 C 131.21 180.89 131.58 179.98 131.24 179.18 L 130.85 178.26 C 130.52 177.47 129.60 177.10 128.81 177.44 C 128.01 177.77 127.64 178.69 127.98 179.48 Z M 128.37 180.41 L 128.76 181.32 C 129.10 182.12 130.02 182.48 130.81 182.14 C 131.60 181.81 131.97 180.89 131.63 180.10 L 131.24 179.18 C 130.90 178.39 129.99 178.02 129.19 178.36 C 128.40 178.70 128.03 179.61 128.37 180.41 Z M 128.76 181.33 L 129.17 182.27 C 129.51 183.06 130.43 183.42 131.22 183.08 C 132.01 182.74 132.38 181.82 132.04 181.03 L 131.63 180.09 C 131.29 179.30 130.37 178.93 129.58 179.28 C 128.79 179.62 128.42 180.54 128.76 181.33 Z M 129.17 182.28 L 129.58 183.21 C 129.93 184.00 130.85 184.36 131.64 184.01 C 132.43 183.66 132.79 182.74 132.44 181.95 L 132.03 181.02 C 131.69 180.23 130.77 179.87 129.98 180.22 C 129.19 180.56 128.83 181.49 129.17 182.28 Z M 129.59 183.21 L 129.99 184.12 C 130.34 184.91 131.26 185.26 132.05 184.91 C 132.84 184.56 133.19 183.64 132.84 182.85 L 132.44 181.95 C 132.09 181.16 131.17 180.80 130.38 181.15 C 129.59 181.50 129.24 182.43 129.59 183.21 Z M 129.99 184.13 L 130.38 184.99 C 130.74 185.77 131.66 186.12 132.45 185.77 C 133.23 185.41 133.58 184.48 133.23 183.70 L 132.84 182.84 C 132.48 182.05 131.56 181.71 130.77 182.06 C 129.98 182.42 129.64 183.34 129.99 184.13 Z M 130.39 185.00 L 130.76 185.81 C 131.12 186.59 132.05 186.93 132.83 186.57 C 133.61 186.21 133.96 185.28 133.59 184.50 L 133.22 183.69 C 132.86 182.91 131.93 182.56 131.15 182.93 C 130.37 183.29 130.02 184.22 130.39 185.00 Z M 130.77 185.82 L 131.17 186.67 C 131.54 187.45 132.47 187.78 133.25 187.42 C 134.03 187.05 134.36 186.12 133.99 185.34 L 133.59 184.48 C 133.22 183.70 132.29 183.37 131.51 183.74 C 130.73 184.11 130.40 185.04 130.77 185.82 Z M 131.18 186.68 L 131.64 187.65 C 132.02 188.43 132.95 188.75 133.73 188.38 C 134.50 188.00 134.83 187.07 134.45 186.29 L 133.99 185.33 C 133.61 184.55 132.68 184.22 131.90 184.60 C 131.12 184.97 130.80 185.91 131.18 186.68 Z M 131.65 187.66 L 132.11 188.60 C 132.49 189.38 133.42 189.69 134.20 189.32 C 134.97 188.94 135.29 188.00 134.91 187.23 L 134.45 186.29 C 134.07 185.51 133.14 185.19 132.36 185.57 C 131.59 185.95 131.27 186.89 131.65 187.66 Z M 132.11 188.61 L 132.52 189.44 C 132.91 190.21 133.84 190.53 134.62 190.15 C 135.39 189.76 135.70 188.83 135.32 188.05 L 134.91 187.22 C 134.53 186.45 133.59 186.13 132.82 186.51 C 132.04 186.90 131.73 187.83 132.11 188.61 Z M 132.53 189.44 L 132.97 190.34 C 133.36 191.11 134.30 191.42 135.07 191.03 C 135.84 190.65 136.15 189.71 135.77 188.94 L 135.32 188.05 C 134.93 187.28 134.00 186.96 133.22 187.35 C 132.45 187.74 132.14 188.67 132.53 189.44 Z M 132.98 190.34 L 133.44 191.27 C 133.83 192.04 134.77 192.35 135.54 191.96 C 136.31 191.57 136.62 190.63 136.23 189.86 L 135.76 188.93 C 135.37 188.16 134.43 187.86 133.66 188.24 C 132.90 188.63 132.59 189.57 132.98 190.34 Z M 133.45 191.27 L 133.93 192.21 C 134.32 192.98 135.26 193.28 136.03 192.89 C 136.80 192.50 137.10 191.56 136.71 190.79 L 136.23 189.85 C 135.83 189.09 134.89 188.78 134.13 189.17 C 133.36 189.57 133.05 190.51 133.45 191.27 Z M 133.93 192.22 L 134.41 193.15 C 134.81 193.91 135.75 194.21 136.52 193.81 C 137.28 193.42 137.58 192.47 137.18 191.71 L 136.70 190.78 C 136.31 190.02 135.36 189.72 134.60 190.12 C 133.83 190.51 133.53 191.46 133.93 192.22 Z M 134.42 193.16 L 134.87 194.02 C 135.28 194.78 136.22 195.08 136.98 194.67 C 137.74 194.27 138.04 193.33 137.63 192.56 L 137.18 191.70 C 136.78 190.94 135.83 190.65 135.07 191.05 C 134.31 191.45 134.01 192.39 134.42 193.16 Z M 134.88 194.03 L 135.33 194.86 C 135.73 195.62 136.68 195.91 137.44 195.50 C 138.20 195.09 138.48 194.15 138.08 193.39 L 137.63 192.55 C 137.22 191.79 136.27 191.51 135.51 191.92 C 134.76 192.32 134.47 193.27 134.88 194.03 Z M 135.33 194.87 L 135.78 195.71 C 136.20 196.46 137.15 196.74 137.90 196.33 C 138.66 195.92 138.94 194.97 138.53 194.21 L 138.07 193.38 C 137.66 192.62 136.71 192.34 135.95 192.76 C 135.20 193.17 134.92 194.12 135.33 194.87 Z M 135.79 195.71 L 136.26 196.57 C 136.68 197.32 137.62 197.60 138.38 197.18 C 139.14 196.77 139.41 195.82 138.99 195.06 L 138.52 194.21 C 138.11 193.45 137.16 193.18 136.40 193.59 C 135.65 194.01 135.37 194.96 135.79 195.71 Z M 136.26 196.57 L 136.76 197.47 C 137.18 198.22 138.13 198.50 138.88 198.08 C 139.64 197.66 139.91 196.71 139.49 195.95 L 138.99 195.06 C 138.57 194.30 137.62 194.03 136.87 194.45 C 136.12 194.87 135.84 195.82 136.26 196.57 Z M 136.76 197.47 L 137.29 198.43 C 137.71 199.18 138.66 199.46 139.42 199.04 C 140.17 198.62 140.44 197.67 140.02 196.91 L 139.49 195.95 C 139.07 195.20 138.12 194.93 137.36 195.35 C 136.61 195.77 136.34 196.72 136.76 197.47 Z M 137.29 198.43 L 137.77 199.28 C 138.19 200.04 139.14 200.31 139.89 199.89 C 140.65 199.47 140.92 198.52 140.50 197.76 L 140.02 196.91 C 139.60 196.16 138.65 195.89 137.90 196.31 C 137.15 196.73 136.88 197.68 137.29 198.43 Z M 137.77 199.28 L 138.24 200.13 C 138.66 200.88 139.61 201.15 140.36 200.73 C 141.11 200.32 141.39 199.37 140.97 198.61 L 140.50 197.76 C 140.08 197.01 139.13 196.74 138.37 197.16 C 137.62 197.58 137.35 198.53 137.77 199.28 Z M 138.24 200.12 L 138.72 201.00 C 139.14 201.76 140.09 202.03 140.84 201.62 C 141.60 201.20 141.87 200.25 141.46 199.50 L 140.97 198.62 C 140.55 197.86 139.60 197.59 138.85 198.00 C 138.09 198.42 137.82 199.37 138.24 200.12 Z M 138.72 201.00 L 139.21 201.90 C 139.63 202.66 140.57 202.93 141.33 202.52 C 142.09 202.11 142.37 201.16 141.95 200.40 L 141.46 199.50 C 141.04 198.74 140.10 198.47 139.34 198.88 C 138.58 199.29 138.31 200.24 138.72 201.00 Z M 139.21 201.89 L 139.70 202.80 C 140.11 203.56 141.06 203.85 141.82 203.44 C 142.57 203.03 142.86 202.08 142.45 201.32 L 141.96 200.41 C 141.55 199.65 140.60 199.37 139.84 199.78 C 139.08 200.19 138.80 201.13 139.21 201.89 Z M 139.70 202.80 L 140.18 203.70 C 140.58 204.47 141.53 204.75 142.29 204.35 C 143.05 203.94 143.34 203.00 142.94 202.24 L 142.45 201.33 C 142.05 200.57 141.10 200.28 140.34 200.68 C 139.58 201.09 139.29 202.03 139.70 202.80 Z M 140.17 203.69 L 140.64 204.59 C 141.04 205.35 141.98 205.65 142.75 205.25 C 143.51 204.85 143.81 203.91 143.41 203.15 L 142.94 202.25 C 142.54 201.49 141.60 201.19 140.84 201.59 C 140.07 201.99 139.77 202.93 140.17 203.69 Z M 140.63 204.57 L 141.08 205.46 C 141.47 206.23 142.41 206.53 143.18 206.14 C 143.95 205.75 144.26 204.81 143.87 204.04 L 143.42 203.16 C 143.03 202.39 142.09 202.09 141.32 202.48 C 140.55 202.87 140.24 203.81 140.63 204.57 Z M 141.07 205.44 L 141.55 206.42 C 141.93 207.20 142.87 207.52 143.64 207.14 C 144.42 206.76 144.74 205.82 144.36 205.05 L 143.88 204.06 C 143.50 203.29 142.56 202.97 141.79 203.35 C 141.01 203.73 140.69 204.66 141.07 205.44 Z M 141.54 206.40 L 141.98 207.34 C 142.35 208.12 143.28 208.46 144.06 208.09 C 144.84 207.73 145.18 206.80 144.81 206.02 L 144.37 205.07 C 144.00 204.29 143.07 203.95 142.29 204.32 C 141.51 204.69 141.17 205.62 141.54 206.40 Z M 141.97 207.32 L 142.38 208.23 C 142.73 209.02 143.66 209.37 144.45 209.02 C 145.23 208.67 145.58 207.74 145.23 206.96 L 144.82 206.04 C 144.47 205.25 143.55 204.90 142.76 205.25 C 141.97 205.61 141.62 206.53 141.97 207.32 Z M 142.37 208.21 L 142.75 209.10 C 143.09 209.90 144.01 210.26 144.80 209.92 C 145.60 209.59 145.96 208.67 145.63 207.88 L 145.24 206.98 C 144.90 206.19 143.99 205.82 143.19 206.16 C 142.40 206.50 142.03 207.41 142.37 208.21 Z M 142.74 209.08 L 143.10 209.96 C 143.43 210.76 144.34 211.14 145.14 210.82 C 145.94 210.49 146.32 209.58 146.00 208.78 L 145.64 207.90 C 145.31 207.10 144.40 206.72 143.60 207.04 C 142.80 207.37 142.42 208.28 142.74 209.08 Z M 143.09 209.94 L 143.44 210.82 C 143.75 211.62 144.65 212.02 145.46 211.71 C 146.26 211.40 146.66 210.49 146.35 209.69 L 146.00 208.81 C 145.69 208.00 144.79 207.61 143.98 207.92 C 143.18 208.23 142.78 209.13 143.09 209.94 Z M 143.43 210.80 L 143.76 211.70 C 144.06 212.51 144.96 212.92 145.77 212.62 C 146.58 212.32 146.99 211.42 146.69 210.62 L 146.36 209.71 C 146.05 208.90 145.16 208.49 144.35 208.79 C 143.54 209.09 143.13 209.99 143.43 210.80 Z M 143.76 211.68 L 144.09 212.61 C 144.38 213.42 145.27 213.85 146.08 213.56 C 146.89 213.27 147.32 212.38 147.03 211.56 L 146.70 210.64 C 146.41 209.82 145.52 209.40 144.70 209.69 C 143.89 209.98 143.47 210.87 143.76 211.68 Z M 144.08 212.59 L 144.40 213.53 C 144.67 214.34 145.56 214.78 146.38 214.50 C 147.19 214.23 147.63 213.34 147.35 212.53 L 147.04 211.59 C 146.76 210.77 145.87 210.33 145.06 210.61 C 144.24 210.89 143.80 211.77 144.08 212.59 Z M 144.39 213.51 L 144.70 214.46 C 144.96 215.28 145.84 215.73 146.66 215.46 C 147.48 215.20 147.93 214.32 147.67 213.50 L 147.36 212.55 C 147.10 211.73 146.22 211.28 145.40 211.54 C 144.58 211.81 144.13 212.68 144.39 213.51 Z M 144.69 214.43 L 144.98 215.40 C 145.23 216.22 146.11 216.69 146.93 216.43 C 147.76 216.18 148.22 215.31 147.97 214.48 L 147.68 213.52 C 147.42 212.70 146.55 212.23 145.73 212.48 C 144.90 212.74 144.44 213.61 144.69 214.43 Z M 144.98 215.37 L 145.26 216.35 C 145.49 217.17 146.36 217.65 147.19 217.41 C 148.02 217.18 148.50 216.31 148.26 215.48 L 147.98 214.51 C 147.74 213.68 146.87 213.20 146.04 213.44 C 145.22 213.68 144.74 214.54 144.98 215.37 Z M 145.25 216.32 L 145.52 217.31 C 145.74 218.14 146.60 218.64 147.43 218.41 C 148.26 218.19 148.76 217.33 148.53 216.50 L 148.26 215.51 C 148.04 214.67 147.18 214.18 146.35 214.41 C 145.52 214.63 145.02 215.49 145.25 216.32 Z M 145.51 217.29 L 145.77 218.33 C 145.98 219.16 146.83 219.67 147.67 219.46 C 148.50 219.25 149.01 218.40 148.80 217.56 L 148.54 216.52 C 148.33 215.69 147.48 215.18 146.64 215.39 C 145.81 215.60 145.30 216.45 145.51 217.29 Z M 145.77 218.30 L 146.01 219.34 C 146.21 220.18 147.05 220.70 147.89 220.50 C 148.73 220.30 149.25 219.46 149.05 218.62 L 148.81 217.59 C 148.61 216.75 147.77 216.23 146.93 216.43 C 146.09 216.62 145.57 217.47 145.77 218.30 Z M 146.01 219.32 L 146.23 220.33 C 146.42 221.17 147.25 221.70 148.10 221.52 C 148.94 221.33 149.47 220.49 149.28 219.65 L 149.05 218.64 C 148.87 217.80 148.03 217.27 147.19 217.46 C 146.35 217.64 145.82 218.48 146.01 219.32 Z M 146.23 220.31 L 146.43 221.29 C 146.61 222.13 147.44 222.67 148.28 222.49 C 149.13 222.31 149.67 221.49 149.49 220.64 L 149.28 219.67 C 149.11 218.83 148.28 218.29 147.43 218.46 C 146.59 218.64 146.05 219.47 146.23 220.31 Z M 146.43 221.27 L 146.62 222.19 C 146.78 223.04 147.61 223.59 148.45 223.42 C 149.30 223.25 149.85 222.42 149.68 221.58 L 149.49 220.66 C 149.32 219.81 148.50 219.26 147.65 219.43 C 146.81 219.60 146.26 220.43 146.43 221.27 Z M 146.61 222.18 L 146.78 223.07 C 146.94 223.92 147.76 224.47 148.61 224.31 C 149.46 224.15 150.01 223.33 149.85 222.49 L 149.68 221.59 C 149.52 220.75 148.70 220.19 147.85 220.35 C 147.01 220.51 146.45 221.33 146.61 222.18 Z M 146.78 223.05 L 146.99 224.21 C 147.14 225.05 147.95 225.62 148.80 225.47 C 149.65 225.31 150.21 224.50 150.06 223.65 L 149.85 222.50 C 149.70 221.65 148.89 221.09 148.04 221.24 C 147.19 221.39 146.63 222.21 146.78 223.05 Z M 146.98 224.19 L 147.16 225.20 C 147.30 226.05 148.11 226.62 148.96 226.47 C 149.81 226.33 150.38 225.52 150.23 224.67 L 150.06 223.67 C 149.92 222.82 149.11 222.25 148.26 222.39 C 147.41 222.54 146.84 223.34 146.98 224.19 Z M 147.16 225.19 L 147.31 226.09 C 147.45 226.94 148.26 227.51 149.11 227.37 C 149.96 227.22 150.53 226.42 150.39 225.57 L 150.23 224.67 C 150.09 223.82 149.28 223.25 148.43 223.39 C 147.58 223.54 147.01 224.34 147.16 225.19 Z M 147.31 226.11 L 147.47 226.97 C 147.62 227.82 148.43 228.39 149.28 228.23 C 150.13 228.08 150.69 227.27 150.54 226.42 L 150.38 225.55 C 150.23 224.71 149.42 224.14 148.57 224.29 C 147.72 224.45 147.16 225.26 147.31 226.11 Z M 147.47 227.00 L 147.67 227.99 C 147.84 228.84 148.66 229.39 149.50 229.22 C 150.35 229.05 150.90 228.23 150.73 227.39 L 150.53 226.39 C 150.37 225.55 149.55 225.00 148.70 225.16 C 147.85 225.33 147.30 226.15 147.47 227.00 Z M 147.67 228.01 L 147.87 228.98 C 148.05 229.82 148.87 230.37 149.72 230.19 C 150.56 230.02 151.10 229.19 150.93 228.35 L 150.73 227.37 C 150.55 226.53 149.73 225.99 148.88 226.16 C 148.04 226.33 147.50 227.16 147.67 228.01 Z M 147.87 228.97 L 148.07 229.94 C 148.24 230.79 149.06 231.33 149.90 231.16 C 150.75 230.99 151.30 230.17 151.13 229.32 L 150.93 228.35 C 150.76 227.51 149.94 226.96 149.09 227.13 C 148.25 227.30 147.70 228.13 147.87 228.97 Z M 148.06 229.93 L 148.25 230.89 C 148.41 231.74 149.23 232.30 150.08 232.13 C 150.93 231.97 151.48 231.15 151.32 230.30 L 151.13 229.34 C 150.97 228.49 150.15 227.94 149.30 228.10 C 148.45 228.26 147.90 229.08 148.06 229.93 Z M 148.26 230.95 L 148.49 231.92 C 148.69 232.76 149.53 233.28 150.36 233.09 C 151.20 232.89 151.73 232.05 151.53 231.21 L 151.30 230.24 C 151.11 229.40 150.27 228.88 149.43 229.08 C 148.59 229.28 148.07 230.11 148.26 230.95 Z M 148.53 232.07 L 148.86 233.02 C 149.14 233.84 150.02 234.28 150.84 234.00 C 151.66 233.72 152.09 232.83 151.81 232.02 L 151.49 231.06 C 151.21 230.25 150.32 229.81 149.50 230.09 C 148.69 230.37 148.25 231.25 148.53 232.07 Z M 148.95 233.25 L 149.49 234.27 C 149.90 235.03 150.84 235.33 151.60 234.92 C 152.37 234.52 152.66 233.58 152.26 232.81 L 151.72 231.79 C 151.31 231.03 150.37 230.74 149.61 231.14 C 148.84 231.54 148.55 232.49 148.95 233.25 Z M 149.67 234.53 L 150.36 235.37 C 150.90 236.04 151.89 236.14 152.55 235.59 C 153.22 235.04 153.32 234.06 152.77 233.39 L 152.08 232.55 C 151.53 231.89 150.55 231.79 149.88 232.34 C 149.22 232.88 149.12 233.87 149.67 234.53 Z M 150.84 235.77 L 151.51 236.11 C 152.28 236.51 153.22 236.21 153.62 235.44 C 154.01 234.68 153.71 233.74 152.95 233.34 L 152.28 232.99 C 151.51 232.60 150.57 232.90 150.18 233.66 C 149.78 234.43 150.08 235.37 150.84 235.77 Z M 153.05 236.06 L 153.54 235.75 C 154.27 235.30 154.50 234.34 154.05 233.61 C 153.59 232.87 152.63 232.64 151.90 233.10 L 151.41 233.40 C 150.68 233.85 150.45 234.81 150.90 235.55 C 151.35 236.28 152.32 236.51 153.05 236.06 Z M 154.13 235.09 L 154.53 234.25 C 154.89 233.47 154.56 232.54 153.78 232.17 C 153.00 231.81 152.07 232.14 151.70 232.92 L 151.31 233.76 C 150.94 234.54 151.27 235.47 152.05 235.84 C 152.83 236.21 153.76 235.87 154.13 235.09 Z M 154.61 234.03 L 154.98 232.77 C 155.23 231.94 154.75 231.07 153.93 230.83 C 153.10 230.58 152.23 231.06 151.99 231.88 L 151.62 233.15 C 151.37 233.97 151.85 234.84 152.67 235.08 C 153.50 235.33 154.37 234.86 154.61 234.03 Z M 155.00 232.72 L 155.26 231.72 C 155.47 230.89 154.97 230.04 154.14 229.82 C 153.31 229.60 152.45 230.10 152.23 230.94 L 151.98 231.93 C 151.76 232.76 152.26 233.62 153.09 233.83 C 153.93 234.05 154.78 233.55 155.00 232.72 Z M 155.26 231.72 L 155.51 230.75 C 155.72 229.91 155.21 229.06 154.38 228.85 C 153.54 228.63 152.69 229.14 152.48 229.97 L 152.23 230.94 C 152.02 231.78 152.52 232.63 153.36 232.84 C 154.19 233.06 155.04 232.55 155.26 231.72 Z M 155.51 230.74 L 155.76 229.74 C 155.97 228.90 155.47 228.05 154.63 227.84 C 153.79 227.63 152.95 228.14 152.73 228.97 L 152.48 229.98 C 152.27 230.81 152.77 231.66 153.61 231.87 C 154.45 232.09 155.29 231.58 155.51 230.74 Z M 155.76 229.74 L 156.02 228.74 C 156.23 227.90 155.72 227.05 154.89 226.84 C 154.05 226.63 153.20 227.13 152.99 227.97 L 152.73 228.97 C 152.52 229.81 153.03 230.66 153.86 230.87 C 154.70 231.08 155.55 230.58 155.76 229.74 Z M 156.01 228.74 L 156.26 227.77 C 156.48 226.94 155.98 226.09 155.14 225.87 C 154.31 225.66 153.46 226.16 153.24 226.99 L 152.99 227.96 C 152.78 228.80 153.28 229.65 154.11 229.86 C 154.95 230.08 155.80 229.58 156.01 228.74 Z M 156.26 227.79 L 156.54 226.74 C 156.76 225.91 156.26 225.06 155.43 224.83 C 154.60 224.61 153.74 225.11 153.52 225.94 L 153.24 226.98 C 153.02 227.82 153.52 228.67 154.35 228.89 C 155.18 229.11 156.04 228.62 156.26 227.79 Z M 156.53 226.76 L 156.82 225.73 C 157.05 224.90 156.56 224.04 155.73 223.81 C 154.90 223.58 154.04 224.06 153.81 224.90 L 153.52 225.92 C 153.29 226.76 153.78 227.62 154.61 227.85 C 155.44 228.08 156.30 227.59 156.53 226.76 Z M 156.81 225.75 L 157.09 224.82 C 157.33 223.99 156.86 223.12 156.03 222.88 C 155.20 222.64 154.34 223.11 154.09 223.94 L 153.82 224.87 C 153.57 225.70 154.05 226.57 154.87 226.81 C 155.70 227.06 156.57 226.58 156.81 225.75 Z M 157.08 224.84 L 157.35 223.97 C 157.61 223.15 157.15 222.27 156.33 222.01 C 155.50 221.76 154.63 222.22 154.37 223.04 L 154.10 223.91 C 153.84 224.74 154.30 225.61 155.13 225.87 C 155.95 226.13 156.82 225.67 157.08 224.84 Z M 157.35 223.99 L 157.63 223.14 C 157.90 222.32 157.45 221.44 156.63 221.17 C 155.81 220.90 154.93 221.34 154.66 222.16 L 154.38 223.02 C 154.11 223.84 154.56 224.72 155.38 224.99 C 156.19 225.26 157.08 224.81 157.35 223.99 Z M 157.62 223.16 L 157.92 222.28 C 158.20 221.47 157.77 220.58 156.95 220.30 C 156.14 220.02 155.25 220.45 154.97 221.27 L 154.67 222.14 C 154.39 222.96 154.82 223.84 155.64 224.12 C 156.45 224.41 157.34 223.97 157.62 223.16 Z M 157.92 222.30 L 158.24 221.38 C 158.53 220.57 158.11 219.68 157.30 219.39 C 156.49 219.10 155.60 219.52 155.30 220.33 L 154.98 221.25 C 154.68 222.06 155.11 222.95 155.92 223.25 C 156.73 223.54 157.62 223.11 157.92 222.30 Z M 158.24 221.40 L 158.61 220.39 C 158.91 219.58 158.49 218.69 157.68 218.39 C 156.87 218.09 155.98 218.51 155.68 219.31 L 155.31 220.32 C 155.01 221.13 155.43 222.02 156.24 222.32 C 157.04 222.62 157.94 222.21 158.24 221.40 Z M 158.61 220.40 L 158.95 219.47 C 159.25 218.66 158.84 217.76 158.04 217.46 C 157.23 217.16 156.33 217.57 156.03 218.38 L 155.68 219.31 C 155.38 220.12 155.79 221.01 156.60 221.32 C 157.41 221.62 158.30 221.21 158.61 220.40 Z M 158.95 219.47 L 159.27 218.63 C 159.57 217.83 159.16 216.93 158.36 216.62 C 157.55 216.32 156.65 216.73 156.35 217.53 L 156.03 218.37 C 155.73 219.18 156.13 220.08 156.94 220.39 C 157.75 220.69 158.65 220.28 158.95 219.47 Z M 159.27 218.64 L 159.61 217.74 C 159.92 216.93 159.51 216.03 158.71 215.72 C 157.90 215.42 157.00 215.82 156.69 216.63 L 156.35 217.53 C 156.04 218.33 156.45 219.23 157.25 219.54 C 158.06 219.85 158.96 219.44 159.27 218.64 Z M 159.61 217.75 L 159.97 216.80 C 160.28 215.99 159.88 215.09 159.08 214.78 C 158.27 214.47 157.37 214.87 157.06 215.67 L 156.69 216.62 C 156.38 217.43 156.78 218.33 157.59 218.64 C 158.39 218.95 159.30 218.55 159.61 217.75 Z M 159.97 216.80 L 160.36 215.81 C 160.67 215.01 160.28 214.10 159.48 213.79 C 158.67 213.47 157.77 213.87 157.45 214.67 L 157.06 215.66 C 156.75 216.47 157.14 217.37 157.95 217.69 C 158.75 218.00 159.66 217.61 159.97 216.80 Z M 160.36 215.82 L 160.77 214.79 C 161.09 213.99 160.70 213.08 159.90 212.76 C 159.10 212.44 158.19 212.83 157.87 213.63 L 157.46 214.66 C 157.14 215.46 157.53 216.37 158.33 216.69 C 159.13 217.01 160.04 216.62 160.36 215.82 Z M 160.76 214.80 L 161.17 213.81 C 161.49 213.01 161.11 212.10 160.31 211.77 C 159.51 211.45 158.60 211.83 158.27 212.63 L 157.87 213.62 C 157.55 214.42 157.93 215.33 158.73 215.65 C 159.53 215.98 160.44 215.60 160.76 214.80 Z M 161.16 213.82 L 161.57 212.83 C 161.90 212.04 161.52 211.12 160.72 210.79 C 159.93 210.46 159.01 210.84 158.68 211.64 L 158.28 212.62 C 157.95 213.42 158.33 214.33 159.12 214.66 C 159.92 214.99 160.83 214.61 161.16 213.82 Z M 161.57 212.84 L 161.97 211.87 C 162.31 211.07 161.93 210.16 161.14 209.82 C 160.34 209.49 159.43 209.87 159.10 210.66 L 158.69 211.63 C 158.35 212.43 158.73 213.34 159.52 213.68 C 160.32 214.01 161.23 213.64 161.57 212.84 Z M 161.97 211.87 L 162.37 210.93 C 162.71 210.14 162.34 209.22 161.55 208.88 C 160.75 208.55 159.83 208.92 159.50 209.71 L 159.10 210.65 C 158.76 211.45 159.13 212.36 159.92 212.70 C 160.72 213.04 161.64 212.67 161.97 211.87 Z M 162.37 210.94 L 162.75 210.04 C 163.09 209.25 162.73 208.33 161.94 207.99 C 161.14 207.65 160.23 208.02 159.89 208.81 L 159.50 209.70 C 159.16 210.50 159.53 211.42 160.32 211.76 C 161.11 212.10 162.03 211.73 162.37 210.94 Z M 162.75 210.05 L 163.11 209.21 C 163.46 208.42 163.09 207.50 162.30 207.16 C 161.51 206.82 160.59 207.18 160.25 207.97 L 159.89 208.80 C 159.54 209.59 159.91 210.51 160.70 210.86 C 161.49 211.20 162.41 210.84 162.75 210.05 Z M 163.11 209.22 L 163.55 208.23 C 163.89 207.44 163.53 206.52 162.75 206.17 C 161.96 205.82 161.04 206.18 160.69 206.97 L 160.25 207.97 C 159.90 208.75 160.26 209.68 161.05 210.02 C 161.84 210.37 162.76 210.01 163.11 209.22 Z M 163.54 208.23 L 163.99 207.23 C 164.34 206.44 163.99 205.52 163.20 205.17 C 162.41 204.82 161.49 205.17 161.14 205.96 L 160.69 206.96 C 160.34 207.75 160.69 208.67 161.48 209.02 C 162.27 209.38 163.19 209.02 163.54 208.23 Z M 163.99 207.23 L 164.37 206.38 C 164.73 205.59 164.37 204.67 163.59 204.31 C 162.80 203.96 161.88 204.31 161.52 205.10 L 161.14 205.96 C 160.79 206.75 161.14 207.67 161.93 208.02 C 162.71 208.37 163.64 208.02 163.99 207.23 Z M 164.38 206.37 L 164.72 205.59 C 165.07 204.80 164.71 203.88 163.92 203.53 C 163.14 203.18 162.21 203.54 161.87 204.33 L 161.52 205.11 C 161.17 205.90 161.53 206.82 162.32 207.17 C 163.11 207.51 164.03 207.16 164.38 206.37 Z M 164.73 205.57 L 165.10 204.70 C 165.44 203.91 165.07 202.99 164.28 202.65 C 163.48 202.31 162.57 202.68 162.23 203.47 L 161.86 204.34 C 161.52 205.14 161.89 206.05 162.68 206.39 C 163.47 206.73 164.39 206.36 164.73 205.57 Z M 165.11 204.69 L 165.49 203.77 C 165.82 202.98 165.44 202.06 164.65 201.73 C 163.85 201.40 162.94 201.78 162.60 202.57 L 162.22 203.49 C 161.89 204.28 162.27 205.20 163.06 205.53 C 163.86 205.86 164.77 205.48 165.11 204.69 Z M 165.49 203.77 L 165.87 202.85 C 166.21 202.05 165.83 201.14 165.04 200.80 C 164.24 200.47 163.33 200.85 162.99 201.64 L 162.61 202.57 C 162.27 203.37 162.65 204.28 163.44 204.61 C 164.24 204.94 165.15 204.57 165.49 203.77 Z M 165.87 202.86 L 166.26 201.95 C 166.60 201.16 166.24 200.24 165.44 199.90 C 164.65 199.56 163.73 199.93 163.39 200.72 L 163.00 201.62 C 162.66 202.42 163.02 203.34 163.82 203.68 C 164.61 204.02 165.53 203.65 165.87 202.86 Z M 166.25 201.97 L 166.65 201.07 C 167.00 200.29 166.64 199.36 165.86 199.01 C 165.07 198.66 164.15 199.02 163.80 199.81 L 163.40 200.70 C 163.05 201.49 163.40 202.41 164.19 202.76 C 164.98 203.11 165.90 202.76 166.25 201.97 Z M 166.65 201.08 L 167.06 200.16 C 167.41 199.37 167.06 198.45 166.27 198.10 C 165.48 197.74 164.56 198.10 164.21 198.89 L 163.80 199.81 C 163.45 200.59 163.80 201.52 164.59 201.87 C 165.37 202.22 166.30 201.86 166.65 201.08 Z M 167.06 200.15 L 167.48 199.20 C 167.82 198.41 167.46 197.49 166.67 197.14 C 165.89 196.80 164.96 197.16 164.62 197.95 L 164.20 198.89 C 163.86 199.68 164.22 200.60 165.01 200.95 C 165.80 201.30 166.72 200.94 167.06 200.15 Z M 167.48 199.18 L 167.86 198.30 C 168.20 197.51 167.83 196.59 167.04 196.25 C 166.24 195.91 165.33 196.28 164.99 197.08 L 164.61 197.96 C 164.27 198.76 164.64 199.67 165.44 200.01 C 166.23 200.35 167.15 199.98 167.48 199.18 Z M 167.87 198.29 L 168.25 197.37 C 168.58 196.58 168.20 195.66 167.40 195.33 C 166.61 195.00 165.69 195.38 165.36 196.18 L 164.98 197.09 C 164.65 197.89 165.03 198.80 165.83 199.13 C 166.62 199.46 167.54 199.08 167.87 198.29 Z M 168.25 197.36 L 168.63 196.42 C 168.96 195.63 168.58 194.71 167.78 194.39 C 166.98 194.06 166.07 194.44 165.74 195.24 L 165.36 196.18 C 165.03 196.98 165.42 197.89 166.21 198.22 C 167.01 198.55 167.92 198.16 168.25 197.36 Z M 168.64 196.42 L 169.02 195.47 C 169.34 194.67 168.96 193.76 168.16 193.44 C 167.36 193.12 166.45 193.50 166.13 194.30 L 165.74 195.25 C 165.42 196.05 165.80 196.96 166.60 197.28 C 167.40 197.60 168.31 197.22 168.64 196.42 Z M 169.02 195.47 L 169.37 194.60 C 169.70 193.80 169.31 192.89 168.51 192.56 C 167.71 192.24 166.80 192.63 166.48 193.43 L 166.13 194.30 C 165.80 195.10 166.19 196.01 166.99 196.33 C 167.79 196.66 168.70 196.27 169.02 195.47 Z M 169.38 194.59 L 169.74 193.69 C 170.06 192.89 169.67 191.98 168.87 191.66 C 168.07 191.34 167.16 191.72 166.84 192.53 L 166.48 193.43 C 166.16 194.23 166.54 195.14 167.35 195.46 C 168.15 195.78 169.05 195.39 169.38 194.59 Z M 169.74 193.68 L 170.11 192.74 C 170.43 191.94 170.04 191.03 169.24 190.71 C 168.43 190.40 167.53 190.79 167.21 191.59 L 166.84 192.53 C 166.52 193.33 166.91 194.24 167.71 194.56 C 168.52 194.88 169.42 194.48 169.74 193.68 Z M 170.12 192.73 L 170.50 191.74 C 170.81 190.94 170.42 190.04 169.61 189.72 C 168.81 189.41 167.90 189.81 167.59 190.61 L 167.21 191.60 C 166.89 192.40 167.29 193.31 168.10 193.62 C 168.90 193.93 169.80 193.53 170.12 192.73 Z M 170.50 191.74 L 170.85 190.82 C 171.16 190.02 170.76 189.11 169.95 188.81 C 169.15 188.50 168.25 188.90 167.94 189.71 L 167.59 190.62 C 167.28 191.42 167.68 192.33 168.49 192.64 C 169.29 192.94 170.20 192.54 170.50 191.74 Z M 170.86 190.81 L 171.20 189.90 C 171.50 189.10 171.09 188.20 170.29 187.89 C 169.48 187.59 168.58 188.00 168.28 188.80 L 167.93 189.72 C 167.63 190.52 168.04 191.42 168.85 191.73 C 169.65 192.03 170.55 191.62 170.86 190.81 Z M 171.20 189.89 L 171.55 188.96 C 171.85 188.15 171.44 187.25 170.63 186.95 C 169.82 186.65 168.92 187.06 168.62 187.87 L 168.27 188.81 C 167.97 189.62 168.39 190.52 169.20 190.82 C 170.01 191.12 170.90 190.70 171.20 189.89 Z M 171.55 188.95 L 171.90 187.99 C 172.20 187.18 171.78 186.28 170.97 185.99 C 170.16 185.69 169.26 186.11 168.97 186.92 L 168.62 187.88 C 168.32 188.69 168.74 189.59 169.55 189.88 C 170.36 190.18 171.26 189.76 171.55 188.95 Z M 171.90 187.98 L 172.25 187.01 C 172.54 186.20 172.12 185.30 171.31 185.01 C 170.49 184.72 169.60 185.15 169.31 185.96 L 168.96 186.93 C 168.67 187.74 169.10 188.64 169.91 188.93 C 170.72 189.22 171.61 188.79 171.90 187.98 Z M 172.25 187.00 L 172.59 186.04 C 172.87 185.23 172.45 184.34 171.63 184.05 C 170.82 183.77 169.93 184.20 169.64 185.01 L 169.31 185.97 C 169.02 186.78 169.45 187.67 170.26 187.96 C 171.08 188.24 171.97 187.81 172.25 187.00 Z M 172.59 186.03 L 172.92 185.09 C 173.20 184.28 172.76 183.39 171.95 183.11 C 171.13 182.83 170.25 183.26 169.97 184.07 L 169.64 185.02 C 169.36 185.83 169.79 186.72 170.61 187.00 C 171.42 187.28 172.31 186.85 172.59 186.03 Z M 172.92 185.08 L 173.24 184.14 C 173.52 183.32 173.08 182.43 172.26 182.16 C 171.45 181.88 170.56 182.32 170.28 183.13 L 169.96 184.08 C 169.69 184.90 170.12 185.78 170.94 186.06 C 171.76 186.34 172.64 185.90 172.92 185.08 Z M 173.24 184.13 L 173.56 183.18 C 173.84 182.37 173.40 181.48 172.58 181.21 C 171.76 180.93 170.88 181.37 170.60 182.19 L 170.28 183.14 C 170.01 183.96 170.45 184.84 171.27 185.12 C 172.08 185.39 172.97 184.95 173.24 184.13 Z M 173.56 183.18 L 173.88 182.23 C 174.15 181.41 173.71 180.53 172.89 180.26 C 172.07 179.98 171.19 180.43 170.92 181.24 L 170.60 182.19 C 170.33 183.01 170.77 183.90 171.59 184.17 C 172.41 184.44 173.29 184.00 173.56 183.18 Z M 173.88 182.23 L 174.20 181.28 C 174.47 180.46 174.03 179.58 173.21 179.30 C 172.39 179.03 171.51 179.48 171.23 180.29 L 170.92 181.24 C 170.65 182.06 171.09 182.95 171.91 183.22 C 172.72 183.49 173.61 183.05 173.88 182.23 Z M 174.20 181.28 L 174.51 180.33 C 174.78 179.51 174.34 178.62 173.52 178.35 C 172.70 178.08 171.82 178.52 171.55 179.34 L 171.23 180.29 C 170.96 181.11 171.40 182.00 172.22 182.27 C 173.04 182.54 173.92 182.10 174.20 181.28 Z M 174.51 180.33 L 174.83 179.38 C 175.10 178.56 174.66 177.67 173.84 177.40 C 173.02 177.13 172.14 177.57 171.87 178.39 L 171.55 179.34 C 171.28 180.16 171.72 181.04 172.54 181.32 C 173.36 181.59 174.24 181.14 174.51 180.33 Z M 174.83 179.38 L 175.14 178.43 C 175.42 177.61 174.97 176.72 174.16 176.45 C 173.34 176.18 172.45 176.62 172.18 177.44 L 171.87 178.39 C 171.59 179.21 172.04 180.09 172.85 180.36 C 173.67 180.64 174.56 180.19 174.83 179.38 Z M 175.14 178.43 L 175.46 177.48 C 175.73 176.66 175.29 175.78 174.47 175.50 C 173.65 175.23 172.77 175.67 172.50 176.49 L 172.18 177.44 C 171.91 178.26 172.35 179.14 173.17 179.41 C 173.99 179.69 174.87 179.24 175.14 178.43 Z M 175.46 177.48 L 175.78 176.54 C 176.05 175.72 175.61 174.83 174.79 174.56 C 173.97 174.29 173.09 174.73 172.81 175.55 L 172.50 176.49 C 172.23 177.31 172.67 178.19 173.48 178.47 C 174.30 178.74 175.19 178.30 175.46 177.48 Z M 175.77 176.54 L 176.09 175.59 C 176.37 174.77 175.93 173.89 175.11 173.61 C 174.29 173.34 173.41 173.78 173.13 174.59 L 172.82 175.54 C 172.54 176.36 172.98 177.25 173.80 177.52 C 174.62 177.80 175.50 177.36 175.77 176.54 Z M 176.09 175.59 L 176.41 174.64 C 176.69 173.83 176.25 172.94 175.44 172.66 C 174.62 172.39 173.73 172.83 173.46 173.64 L 173.14 174.59 C 172.86 175.41 173.30 176.29 174.11 176.57 C 174.93 176.85 175.82 176.41 176.09 175.59 Z M 176.41 174.65 L 176.74 173.70 C 177.01 172.88 176.58 172.00 175.76 171.72 C 174.95 171.44 174.06 171.88 173.78 172.69 L 173.46 173.64 C 173.18 174.45 173.62 175.34 174.43 175.62 C 175.25 175.90 176.13 175.46 176.41 174.65 Z M 176.73 173.70 L 177.06 172.76 C 177.34 171.95 176.91 171.06 176.09 170.78 C 175.28 170.50 174.39 170.93 174.11 171.74 L 173.78 172.69 C 173.50 173.50 173.93 174.39 174.75 174.67 C 175.56 174.95 176.45 174.52 176.73 173.70 Z M 177.06 172.77 L 177.39 171.82 C 177.67 171.01 177.24 170.12 176.43 169.84 C 175.61 169.55 174.72 169.98 174.44 170.80 L 174.11 171.74 C 173.82 172.55 174.25 173.44 175.07 173.73 C 175.88 174.01 176.77 173.58 177.06 172.77 Z M 177.38 171.83 L 177.72 170.88 C 178.01 170.07 177.58 169.17 176.77 168.89 C 175.96 168.60 175.06 169.03 174.78 169.84 L 174.44 170.79 C 174.15 171.60 174.58 172.49 175.39 172.78 C 176.20 173.07 177.10 172.64 177.38 171.83 Z M 177.72 170.89 L 178.06 169.92 C 178.35 169.11 177.93 168.22 177.12 167.93 C 176.31 167.64 175.42 168.06 175.12 168.87 L 174.78 169.83 C 174.49 170.64 174.91 171.54 175.72 171.83 C 176.53 172.12 177.43 171.70 177.72 170.89 Z M 178.06 169.93 L 178.41 168.97 C 178.70 168.16 178.28 167.27 177.47 166.97 C 176.66 166.68 175.77 167.10 175.47 167.91 L 175.13 168.86 C 174.83 169.67 175.25 170.57 176.06 170.86 C 176.87 171.16 177.77 170.74 178.06 169.93 Z M 178.41 168.98 L 178.75 168.04 C 179.05 167.23 178.63 166.33 177.82 166.03 C 177.01 165.74 176.12 166.15 175.82 166.96 L 175.47 167.90 C 175.18 168.71 175.59 169.61 176.40 169.91 C 177.21 170.20 178.11 169.79 178.41 168.98 Z M 178.75 168.04 L 179.09 167.12 C 179.39 166.31 178.98 165.41 178.17 165.11 C 177.36 164.82 176.46 165.23 176.16 166.04 L 175.82 166.96 C 175.52 167.77 175.94 168.67 176.74 168.96 C 177.55 169.26 178.45 168.85 178.75 168.04 Z M 179.09 167.12 L 179.43 166.22 C 179.73 165.41 179.32 164.51 178.51 164.21 C 177.70 163.91 176.80 164.32 176.50 165.12 L 176.16 166.03 C 175.86 166.84 176.27 167.74 177.08 168.04 C 177.89 168.34 178.79 167.93 179.09 167.12 Z M 179.43 166.22 L 179.78 165.28 C 180.08 164.47 179.67 163.57 178.87 163.27 C 178.06 162.96 177.16 163.37 176.86 164.18 L 176.50 165.12 C 176.20 165.93 176.61 166.83 177.42 167.13 C 178.23 167.43 179.13 167.03 179.43 166.22 Z M 179.78 165.28 L 180.13 164.35 C 180.43 163.55 180.02 162.65 179.21 162.34 C 178.41 162.04 177.51 162.45 177.20 163.26 L 176.86 164.18 C 176.55 164.99 176.96 165.89 177.77 166.19 C 178.58 166.49 179.48 166.08 179.78 165.28 Z M 180.13 164.35 L 180.47 163.43 C 180.78 162.62 180.37 161.72 179.56 161.42 C 178.75 161.12 177.85 161.53 177.55 162.33 L 177.20 163.26 C 176.90 164.06 177.31 164.96 178.12 165.27 C 178.93 165.57 179.83 165.16 180.13 164.35 Z M 180.47 163.43 L 180.82 162.49 C 181.13 161.68 180.71 160.78 179.91 160.48 C 179.10 160.18 178.20 160.59 177.90 161.40 L 177.55 162.34 C 177.25 163.14 177.66 164.04 178.47 164.34 C 179.27 164.64 180.17 164.23 180.47 163.43 Z M 180.83 162.48 L 181.17 161.54 C 181.47 160.73 181.06 159.84 180.25 159.54 C 179.44 159.24 178.54 159.65 178.24 160.46 L 177.90 161.40 C 177.60 162.21 178.01 163.11 178.82 163.41 C 179.63 163.71 180.53 163.29 180.83 162.48 Z M 181.17 161.54 L 181.51 160.62 C 181.81 159.81 181.39 158.91 180.58 158.62 C 179.77 158.32 178.88 158.74 178.58 159.54 L 178.24 160.47 C 177.95 161.27 178.36 162.17 179.17 162.47 C 179.98 162.76 180.88 162.35 181.17 161.54 Z M 181.51 160.62 L 181.86 159.68 C 182.15 158.87 181.74 157.97 180.93 157.68 C 180.12 157.38 179.22 157.80 178.92 158.61 L 178.58 159.55 C 178.28 160.36 178.70 161.25 179.51 161.55 C 180.32 161.84 181.22 161.43 181.51 160.62 Z M 181.86 159.68 L 182.20 158.73 C 182.50 157.92 182.09 157.02 181.28 156.72 C 180.47 156.43 179.57 156.84 179.27 157.65 L 178.92 158.60 C 178.63 159.41 179.04 160.31 179.85 160.61 C 180.66 160.90 181.56 160.49 181.86 159.68 Z M 182.20 158.73 L 182.56 157.78 C 182.85 156.97 182.44 156.08 181.63 155.78 C 180.83 155.48 179.93 155.89 179.63 156.70 L 179.28 157.65 C 178.98 158.46 179.39 159.35 180.20 159.65 C 181.00 159.95 181.90 159.54 182.20 158.73 Z M 182.55 157.79 L 182.91 156.85 C 183.21 156.04 182.80 155.14 182.00 154.83 C 181.19 154.53 180.29 154.94 179.99 155.75 L 179.63 156.69 C 179.33 157.50 179.73 158.40 180.54 158.70 C 181.35 159.00 182.25 158.60 182.55 157.79 Z M 182.90 156.85 L 183.27 155.90 C 183.58 155.09 183.18 154.19 182.37 153.88 C 181.57 153.57 180.67 153.97 180.36 154.78 L 179.99 155.74 C 179.68 156.54 180.08 157.44 180.89 157.75 C 181.69 158.06 182.60 157.66 182.90 156.85 Z M 183.27 155.90 L 183.64 154.96 C 183.95 154.16 183.55 153.25 182.75 152.94 C 181.95 152.63 181.04 153.02 180.73 153.83 L 180.36 154.77 C 180.05 155.57 180.44 156.48 181.25 156.79 C 182.05 157.10 182.96 156.71 183.27 155.90 Z M 183.63 154.97 L 184.00 154.04 C 184.31 153.24 183.92 152.33 183.12 152.01 C 182.31 151.70 181.41 152.09 181.09 152.90 L 180.73 153.82 C 180.41 154.63 180.81 155.53 181.61 155.85 C 182.41 156.16 183.32 155.77 183.63 154.97 Z M 184.00 154.04 L 184.36 153.12 C 184.68 152.32 184.28 151.41 183.48 151.10 C 182.68 150.78 181.77 151.18 181.45 151.98 L 181.09 152.89 C 180.78 153.70 181.17 154.60 181.97 154.92 C 182.78 155.24 183.68 154.84 184.00 154.04 Z M 184.36 153.12 L 184.72 152.21 C 185.03 151.41 184.64 150.50 183.83 150.19 C 183.03 149.87 182.13 150.27 181.81 151.07 L 181.45 151.98 C 181.14 152.78 181.53 153.69 182.34 154.00 C 183.14 154.32 184.05 153.92 184.36 153.12 Z M 184.72 152.21 L 185.08 151.27 C 185.39 150.47 185.00 149.57 184.19 149.25 C 183.39 148.94 182.48 149.34 182.17 150.14 L 181.81 151.08 C 181.50 151.88 181.90 152.78 182.70 153.10 C 183.50 153.41 184.41 153.01 184.72 152.21 Z M 185.08 151.27 L 185.44 150.34 C 185.75 149.53 185.35 148.63 184.54 148.32 C 183.74 148.01 182.84 148.41 182.53 149.22 L 182.17 150.15 C 181.86 150.95 182.26 151.86 183.07 152.17 C 183.87 152.48 184.77 152.07 185.08 151.27 Z M 185.44 150.33 L 185.80 149.40 C 186.10 148.59 185.70 147.69 184.89 147.39 C 184.09 147.08 183.18 147.49 182.88 148.29 L 182.52 149.22 C 182.22 150.03 182.62 150.93 183.43 151.24 C 184.24 151.54 185.14 151.14 185.44 150.33 Z M 185.80 149.39 L 186.15 148.46 C 186.45 147.65 186.04 146.75 185.24 146.45 C 184.43 146.15 183.53 146.55 183.23 147.36 L 182.88 148.30 C 182.57 149.10 182.98 150.00 183.79 150.31 C 184.60 150.61 185.50 150.20 185.80 149.39 Z M 186.15 148.45 L 186.50 147.51 C 186.80 146.70 186.39 145.81 185.58 145.51 C 184.77 145.21 183.87 145.62 183.57 146.43 L 183.23 147.37 C 182.93 148.17 183.34 149.07 184.15 149.37 C 184.95 149.67 185.85 149.26 186.15 148.45 Z M 186.50 147.51 L 186.85 146.58 C 187.14 145.77 186.73 144.87 185.92 144.57 C 185.11 144.28 184.21 144.69 183.91 145.50 L 183.57 146.43 C 183.28 147.24 183.69 148.14 184.50 148.43 C 185.31 148.73 186.21 148.32 186.50 147.51 Z M 186.85 146.57 L 187.19 145.63 C 187.48 144.82 187.06 143.92 186.25 143.63 C 185.44 143.34 184.54 143.76 184.25 144.57 L 183.91 145.51 C 183.62 146.32 184.04 147.21 184.85 147.51 C 185.66 147.80 186.56 147.38 186.85 146.57 Z M 187.19 145.62 L 187.52 144.67 C 187.81 143.86 187.39 142.97 186.57 142.68 C 185.76 142.39 184.87 142.82 184.58 143.63 L 184.25 144.58 C 183.96 145.39 184.38 146.28 185.20 146.57 C 186.01 146.86 186.90 146.43 187.19 145.62 Z M 187.53 144.66 L 187.86 143.71 C 188.14 142.90 187.71 142.01 186.89 141.73 C 186.08 141.45 185.19 141.88 184.91 142.69 L 184.58 143.64 C 184.30 144.46 184.73 145.35 185.54 145.63 C 186.36 145.91 187.25 145.48 187.53 144.66 Z M 187.86 143.70 L 188.18 142.74 C 188.46 141.93 188.02 141.04 187.20 140.77 C 186.38 140.49 185.50 140.93 185.22 141.75 L 184.90 142.71 C 184.63 143.52 185.07 144.41 185.88 144.68 C 186.70 144.96 187.59 144.52 187.86 143.70 Z M 188.19 142.73 L 188.51 141.75 C 188.77 140.93 188.33 140.05 187.51 139.78 C 186.69 139.51 185.81 139.96 185.54 140.78 L 185.22 141.76 C 184.95 142.58 185.40 143.46 186.22 143.73 C 187.04 144.00 187.92 143.55 188.19 142.73 Z M 188.51 141.74 L 188.82 140.77 C 189.08 139.95 188.63 139.07 187.81 138.81 C 186.99 138.54 186.11 139.00 185.85 139.82 L 185.54 140.79 C 185.27 141.61 185.72 142.49 186.55 142.75 C 187.37 143.02 188.25 142.56 188.51 141.74 Z M 188.82 140.77 L 189.13 139.81 C 189.39 138.99 188.94 138.11 188.12 137.85 C 187.29 137.59 186.42 138.04 186.15 138.86 L 185.85 139.82 C 185.58 140.64 186.04 141.52 186.86 141.78 C 187.68 142.04 188.56 141.59 188.82 140.77 Z M 189.12 139.82 L 189.43 138.89 C 189.69 138.07 189.24 137.19 188.42 136.93 C 187.60 136.66 186.72 137.11 186.46 137.93 L 186.15 138.86 C 185.89 139.68 186.34 140.56 187.16 140.82 C 187.98 141.09 188.86 140.64 189.12 139.82 Z M 189.42 138.91 L 189.73 137.98 C 190.01 137.16 189.57 136.28 188.75 136.00 C 187.94 135.73 187.05 136.17 186.77 136.98 L 186.46 137.91 C 186.19 138.73 186.63 139.62 187.44 139.89 C 188.26 140.17 189.15 139.73 189.42 138.91 Z M 189.73 138.00 L 190.07 137.02 C 190.36 136.21 189.93 135.32 189.11 135.03 C 188.30 134.75 187.41 135.18 187.12 135.99 L 186.78 136.96 C 186.50 137.78 186.92 138.67 187.74 138.95 C 188.55 139.24 189.44 138.81 189.73 138.00 Z M 190.06 137.04 L 190.40 136.10 C 190.70 135.29 190.28 134.39 189.47 134.10 C 188.66 133.81 187.76 134.23 187.47 135.04 L 187.13 135.98 C 186.84 136.79 187.25 137.68 188.07 137.97 C 188.88 138.27 189.77 137.85 190.06 137.04 Z M 190.40 136.10 L 190.74 135.18 C 191.03 134.37 190.62 133.48 189.81 133.18 C 189.00 132.89 188.10 133.30 187.80 134.11 L 187.47 135.03 C 187.17 135.84 187.59 136.74 188.40 137.03 C 189.21 137.33 190.11 136.91 190.40 136.10 Z M 190.74 135.18 L 191.07 134.26 C 191.36 133.45 190.94 132.56 190.13 132.26 C 189.32 131.97 188.42 132.39 188.13 133.20 L 187.80 134.12 C 187.51 134.93 187.93 135.83 188.74 136.12 C 189.55 136.41 190.45 135.99 190.74 135.18 Z M 191.07 134.25 L 191.41 133.30 C 191.69 132.49 191.26 131.60 190.45 131.31 C 189.63 131.03 188.74 131.46 188.46 132.27 L 188.13 133.22 C 187.84 134.03 188.27 134.92 189.09 135.21 C 189.90 135.49 190.79 135.06 191.07 134.25 Z M 191.41 133.29 L 191.73 132.34 C 192.01 131.53 191.58 130.64 190.76 130.36 C 189.95 130.08 189.06 130.51 188.78 131.33 L 188.45 132.28 C 188.18 133.10 188.61 133.98 189.43 134.26 C 190.24 134.54 191.13 134.11 191.41 133.29 Z M 191.74 132.34 L 192.06 131.39 C 192.34 130.57 191.90 129.69 191.08 129.41 C 190.27 129.13 189.38 129.57 189.10 130.39 L 188.78 131.33 C 188.50 132.15 188.94 133.04 189.75 133.31 C 190.57 133.59 191.46 133.15 191.74 132.34 Z M 192.06 131.39 L 192.38 130.46 C 192.66 129.64 192.22 128.75 191.41 128.47 C 190.59 128.19 189.70 128.63 189.42 129.44 L 189.10 130.38 C 188.82 131.20 189.26 132.09 190.07 132.36 C 190.89 132.64 191.78 132.21 192.06 131.39 Z M 192.37 130.46 L 192.71 129.50 C 193.00 128.68 192.57 127.79 191.75 127.51 C 190.94 127.23 190.05 127.66 189.76 128.47 L 189.43 129.43 C 189.14 130.25 189.57 131.14 190.39 131.42 C 191.20 131.71 192.09 131.28 192.37 130.46 Z M 192.71 129.51 L 193.05 128.55 C 193.34 127.74 192.91 126.85 192.10 126.56 C 191.29 126.27 190.39 126.70 190.10 127.51 L 189.77 128.46 C 189.48 129.27 189.90 130.17 190.72 130.46 C 191.53 130.74 192.42 130.32 192.71 129.51 Z M 193.05 128.56 L 193.38 127.62 C 193.67 126.81 193.25 125.92 192.44 125.63 C 191.62 125.34 190.73 125.76 190.44 126.57 L 190.11 127.51 C 189.82 128.32 190.24 129.21 191.05 129.50 C 191.86 129.79 192.76 129.37 193.05 128.56 Z M 193.38 127.62 L 193.71 126.71 C 194.00 125.89 193.58 125.00 192.76 124.71 C 191.95 124.42 191.06 124.84 190.77 125.65 L 190.44 126.57 C 190.15 127.38 190.57 128.28 191.38 128.57 C 192.20 128.86 193.09 128.43 193.38 127.62 Z M 193.71 126.70 L 194.06 125.73 C 194.34 124.92 193.92 124.02 193.11 123.73 C 192.29 123.45 191.40 123.87 191.11 124.68 L 190.77 125.66 C 190.48 126.47 190.90 127.36 191.72 127.65 C 192.53 127.94 193.42 127.52 193.71 126.70 Z M 194.06 125.72 L 194.39 124.77 C 194.68 123.96 194.25 123.07 193.44 122.78 C 192.63 122.49 191.73 122.92 191.45 123.73 L 191.11 124.69 C 190.83 125.50 191.25 126.39 192.07 126.68 C 192.88 126.96 193.77 126.54 194.06 125.72 Z M 194.39 124.77 L 194.72 123.84 C 195.00 123.03 194.57 122.14 193.76 121.85 C 192.95 121.57 192.06 122.00 191.77 122.81 L 191.45 123.74 C 191.16 124.55 191.59 125.44 192.40 125.73 C 193.22 126.01 194.11 125.58 194.39 124.77 Z M 194.72 123.84 L 195.03 122.95 C 195.31 122.13 194.88 121.24 194.07 120.96 C 193.25 120.68 192.36 121.11 192.08 121.92 L 191.77 122.81 C 191.49 123.63 191.92 124.52 192.73 124.80 C 193.55 125.08 194.44 124.65 194.72 123.84 Z M 195.03 122.95 L 195.33 122.08 C 195.62 121.26 195.19 120.37 194.37 120.09 C 193.56 119.81 192.67 120.24 192.38 121.05 L 192.08 121.92 C 191.80 122.74 192.23 123.63 193.04 123.91 C 193.86 124.19 194.75 123.76 195.03 122.95 Z M 195.33 122.08 L 195.65 121.17 C 195.94 120.35 195.51 119.46 194.69 119.18 C 193.88 118.89 192.99 119.32 192.70 120.13 L 192.38 121.05 C 192.10 121.86 192.53 122.75 193.34 123.04 C 194.16 123.32 195.05 122.89 195.33 122.08 Z M 195.65 121.17 L 196.01 120.16 C 196.30 119.34 195.87 118.45 195.06 118.16 C 194.24 117.88 193.35 118.30 193.06 119.12 L 192.71 120.13 C 192.42 120.94 192.84 121.83 193.66 122.12 C 194.47 122.41 195.36 121.98 195.65 121.17 Z M 196.01 120.16 L 196.35 119.19 C 196.64 118.38 196.22 117.48 195.41 117.19 C 194.60 116.90 193.70 117.33 193.41 118.14 L 193.07 119.11 C 192.78 119.92 193.20 120.82 194.01 121.11 C 194.82 121.40 195.72 120.97 196.01 120.16 Z M 196.35 119.19 L 196.69 118.25 C 196.98 117.43 196.56 116.54 195.75 116.25 C 194.94 115.96 194.05 116.38 193.75 117.19 L 193.41 118.14 C 193.12 118.95 193.54 119.84 194.35 120.13 C 195.17 120.43 196.06 120.00 196.35 119.19 Z M 196.69 118.25 L 197.05 117.27 C 197.34 116.46 196.92 115.56 196.11 115.27 C 195.30 114.98 194.40 115.40 194.11 116.21 L 193.76 117.19 C 193.46 118.00 193.88 118.89 194.69 119.19 C 195.50 119.48 196.40 119.06 196.69 118.25 Z M 197.05 117.27 L 197.40 116.30 C 197.69 115.49 197.27 114.59 196.46 114.30 C 195.65 114.01 194.75 114.43 194.46 115.24 L 194.11 116.21 C 193.82 117.02 194.24 117.91 195.05 118.21 C 195.86 118.50 196.75 118.08 197.05 117.27 Z M 197.40 116.30 L 197.73 115.38 C 198.02 114.57 197.60 113.68 196.79 113.38 C 195.98 113.09 195.09 113.51 194.79 114.32 L 194.46 115.24 C 194.17 116.05 194.59 116.94 195.40 117.24 C 196.21 117.53 197.10 117.11 197.40 116.30 Z M 197.73 115.38 L 198.08 114.41 C 198.37 113.60 197.95 112.70 197.14 112.41 C 196.33 112.12 195.44 112.54 195.14 113.35 L 194.79 114.32 C 194.50 115.13 194.92 116.03 195.73 116.32 C 196.54 116.61 197.43 116.19 197.73 115.38 Z M 198.08 114.41 L 198.41 113.48 C 198.71 112.67 198.28 111.77 197.47 111.48 C 196.66 111.19 195.77 111.61 195.48 112.42 L 195.14 113.35 C 194.85 114.16 195.27 115.06 196.09 115.35 C 196.90 115.64 197.79 115.22 198.08 114.41 Z M 198.42 113.47 L 198.73 112.57 C 199.02 111.76 198.59 110.87 197.78 110.58 C 196.96 110.30 196.07 110.72 195.79 111.54 L 195.47 112.43 C 195.19 113.25 195.61 114.14 196.43 114.42 C 197.24 114.71 198.13 114.28 198.42 113.47 Z M 198.74 112.56 L 199.06 111.62 C 199.34 110.80 198.90 109.91 198.09 109.63 C 197.27 109.35 196.38 109.79 196.11 110.61 L 195.78 111.55 C 195.50 112.37 195.94 113.25 196.76 113.53 C 197.57 113.81 198.46 113.37 198.74 112.56 Z M 199.06 111.60 L 199.35 110.74 C 199.62 109.92 199.18 109.04 198.36 108.76 C 197.55 108.49 196.66 108.93 196.39 109.75 L 196.10 110.62 C 195.83 111.44 196.27 112.32 197.09 112.59 C 197.91 112.86 198.79 112.42 199.06 111.60 Z M 199.36 110.73 L 199.65 109.82 C 199.92 109.00 199.47 108.12 198.65 107.86 C 197.83 107.59 196.95 108.04 196.68 108.86 L 196.39 109.76 C 196.12 110.58 196.57 111.46 197.39 111.73 C 198.21 112.00 199.09 111.55 199.36 110.73 Z M 199.65 109.81 L 199.96 108.85 C 200.22 108.03 199.76 107.15 198.94 106.89 C 198.12 106.63 197.24 107.09 196.98 107.91 L 196.68 108.87 C 196.42 109.69 196.87 110.57 197.69 110.83 C 198.51 111.09 199.39 110.64 199.65 109.81 Z M 199.96 108.84 L 200.27 107.84 C 200.53 107.02 200.07 106.14 199.24 105.89 C 198.42 105.63 197.55 106.09 197.29 106.91 L 196.98 107.92 C 196.72 108.74 197.18 109.62 198.01 109.87 C 198.83 110.13 199.71 109.67 199.96 108.84 Z M 200.28 107.83 L 200.59 106.80 C 200.84 105.97 200.37 105.10 199.55 104.85 C 198.72 104.60 197.85 105.07 197.60 105.89 L 197.29 106.93 C 197.04 107.75 197.50 108.62 198.33 108.87 C 199.16 109.12 200.03 108.65 200.28 107.83 Z M 200.59 106.78 L 200.88 105.82 C 201.12 104.99 200.65 104.12 199.82 103.88 C 198.99 103.63 198.12 104.11 197.88 104.94 L 197.60 105.90 C 197.35 106.73 197.83 107.60 198.65 107.84 C 199.48 108.09 200.35 107.61 200.59 106.78 Z M 200.88 105.80 L 201.15 104.84 C 201.39 104.01 200.91 103.15 200.08 102.91 C 199.25 102.67 198.39 103.15 198.15 103.98 L 197.88 104.95 C 197.64 105.78 198.12 106.64 198.95 106.88 C 199.78 107.11 200.64 106.63 200.88 105.80 Z M 201.16 104.83 L 201.43 103.86 C 201.65 103.03 201.17 102.17 200.34 101.94 C 199.50 101.71 198.64 102.20 198.42 103.03 L 198.15 104.00 C 197.92 104.83 198.41 105.69 199.24 105.92 C 200.07 106.14 200.93 105.66 201.16 104.83 Z M 201.43 103.84 L 201.69 102.87 C 201.91 102.04 201.41 101.19 200.58 100.96 C 199.75 100.74 198.89 101.24 198.67 102.07 L 198.41 103.04 C 198.19 103.87 198.69 104.73 199.52 104.95 C 200.35 105.17 201.21 104.68 201.43 103.84 Z M 201.69 102.86 L 201.94 101.89 C 202.15 101.06 201.65 100.21 200.81 100.00 C 199.97 99.78 199.12 100.29 198.91 101.12 L 198.67 102.09 C 198.45 102.92 198.96 103.77 199.79 103.99 C 200.63 104.20 201.48 103.69 201.69 102.86 Z M 201.94 101.88 L 202.18 100.88 C 202.39 100.04 201.87 99.20 201.04 98.99 C 200.20 98.79 199.35 99.30 199.15 100.14 L 198.91 101.14 C 198.70 101.98 199.22 102.82 200.05 103.03 C 200.89 103.23 201.74 102.72 201.94 101.88 Z M 202.19 100.86 L 202.43 99.83 C 202.62 98.99 202.10 98.16 201.26 97.96 C 200.42 97.77 199.58 98.29 199.38 99.13 L 199.15 100.16 C 198.95 101.00 199.48 101.84 200.32 102.03 C 201.16 102.23 201.99 101.70 202.19 100.86 Z M 202.43 99.82 L 202.65 98.82 C 202.84 97.97 202.30 97.14 201.46 96.96 C 200.62 96.77 199.79 97.30 199.60 98.14 L 199.38 99.15 C 199.19 99.99 199.73 100.82 200.57 101.01 C 201.41 101.19 202.24 100.66 202.43 99.82 Z M 202.65 98.80 L 202.86 97.84 C 203.04 96.99 202.50 96.16 201.65 95.99 C 200.81 95.81 199.98 96.35 199.80 97.19 L 199.60 98.16 C 199.42 99.00 199.96 99.83 200.80 100.01 C 201.65 100.19 202.47 99.65 202.65 98.80 Z M 202.86 97.83 L 203.05 96.90 C 203.22 96.06 202.68 95.23 201.83 95.06 C 200.99 94.89 200.16 95.43 199.99 96.28 L 199.80 97.20 C 199.63 98.04 200.17 98.87 201.02 99.04 C 201.86 99.21 202.69 98.67 202.86 97.83 Z M 203.05 96.89 L 203.25 95.91 C 203.41 95.06 202.86 94.24 202.02 94.07 C 201.17 93.91 200.35 94.46 200.18 95.30 L 199.99 96.29 C 199.82 97.13 200.37 97.95 201.22 98.12 C 202.06 98.29 202.88 97.74 203.05 96.89 Z M 203.25 95.89 L 203.44 94.88 C 203.60 94.03 203.04 93.21 202.20 93.05 C 201.35 92.89 200.53 93.45 200.37 94.30 L 200.18 95.31 C 200.02 96.16 200.58 96.98 201.42 97.14 C 202.27 97.30 203.09 96.74 203.25 95.89 Z M 203.44 94.86 L 203.61 93.89 C 203.76 93.04 203.20 92.23 202.35 92.08 C 201.50 91.93 200.69 92.50 200.54 93.35 L 200.37 94.32 C 200.22 95.17 200.79 95.97 201.64 96.12 C 202.49 96.27 203.29 95.71 203.44 94.86 Z M 203.62 93.87 L 203.77 92.93 C 203.91 92.07 203.33 91.27 202.47 91.14 C 201.62 91.00 200.82 91.58 200.69 92.43 L 200.54 93.38 C 200.40 94.23 200.98 95.03 201.83 95.16 C 202.68 95.30 203.48 94.72 203.62 93.87 Z M 203.77 92.90 L 203.92 91.85 C 204.04 90.99 203.45 90.20 202.59 90.08 C 201.74 89.96 200.95 90.56 200.83 91.41 L 200.68 92.46 C 200.56 93.32 201.16 94.11 202.01 94.23 C 202.87 94.35 203.65 93.75 203.77 92.90 Z M 203.92 91.82 L 204.06 90.74 C 204.17 89.88 203.56 89.10 202.70 89.00 C 201.85 88.89 201.07 89.50 200.96 90.35 L 200.83 91.44 C 200.72 92.29 201.32 93.07 202.18 93.18 C 203.04 93.29 203.82 92.68 203.92 91.82 Z M 204.06 90.73 L 204.18 89.77 C 204.28 88.92 203.67 88.14 202.82 88.03 C 201.96 87.93 201.18 88.54 201.08 89.39 L 200.96 90.36 C 200.86 91.21 201.47 91.99 202.32 92.10 C 203.18 92.20 203.96 91.59 204.06 90.73 Z M 204.17 89.80 L 204.32 88.80 C 204.44 87.95 203.84 87.16 202.99 87.04 C 202.14 86.92 201.35 87.51 201.22 88.36 L 201.08 89.36 C 200.96 90.22 201.55 91.01 202.41 91.13 C 203.26 91.25 204.05 90.66 204.17 89.80 Z M 204.29 88.95 L 204.49 88.10 C 204.69 87.27 204.17 86.42 203.33 86.22 C 202.50 86.02 201.65 86.54 201.45 87.38 L 201.25 88.22 C 201.05 89.06 201.57 89.90 202.41 90.10 C 203.25 90.30 204.09 89.79 204.29 88.95 Z"
      fill="black"
      fill-rule="nonzero" /></svg>