<svg xmlns="http://www.w3.org/2000/svg" width="300" height="300" viewBox="0 0 300 300">
<path d="M 244.81 68.20 L 243.82 67.97 C 242.98 67.77 242.14 68.29 241.94 69.12 C 241.74 69.96 242.26 70.80 243.10 71.00 L 244.09 71.24 C 244.93 71.44 245.77 70.92 245.97 70.08 C 246.17 69.24 245.65 68.40 244.81 68.20 Z M 243.64 67.93 L 242.65 67.82 C 241.80 67.73 241.03 68.34 240.93 69.20 C 240.83 70.06 241.45 70.83 242.31 70.93 L 243.29 71.04 C 244.14 71.13 244.92 70.52 245.01 69.66 C 245.11 68.80 244.49 68.03 243.64 67.93 Z M 242.26 67.83 L 241.29 67.97 C 240.44 68.09 239.84 68.88 239.96 69.73 C 240.08 70.58 240.87 71.18 241.73 71.06 L 242.70 70.92 C 243.55 70.80 244.15 70.01 244.03 69.16 C 243.91 68.30 243.12 67.71 242.26 67.83 Z M 240.84 68.10 L 240.04 68.48 C 239.26 68.85 238.93 69.78 239.30 70.56 C 239.67 71.34 240.60 71.67 241.38 71.30 L 242.18 70.92 C 242.96 70.55 243.29 69.62 242.92 68.84 C 242.55 68.06 241.62 67.73 240.84 68.10 Z M 239.78 68.64 L 239.00 69.21 C 238.31 69.73 238.17 70.71 238.69 71.40 C 239.20 72.09 240.18 72.23 240.87 71.72 L 241.64 71.14 C 242.33 70.62 242.48 69.65 241.96 68.96 C 241.45 68.26 240.47 68.12 239.78 68.64 Z M 238.86 69.33 L 238.10 70.05 C 237.48 70.65 237.45 71.64 238.04 72.26 C 238.64 72.89 239.63 72.91 240.25 72.32 L 241.01 71.60 C 241.64 71.00 241.66 70.02 241.07 69.39 C 240.48 68.77 239.49 68.74 238.86 69.33 Z M 238.03 70.13 L 237.29 70.93 C 236.70 71.56 236.74 72.55 237.37 73.13 C 238.00 73.72 238.99 73.68 239.58 73.05 L 240.32 72.25 C 240.91 71.62 240.87 70.63 240.24 70.04 C 239.61 69.46 238.62 69.49 238.03 70.13 Z M 237.26 70.96 L 236.60 71.72 C 236.03 72.37 236.10 73.36 236.75 73.92 C 237.39 74.49 238.38 74.42 238.95 73.77 L 239.61 73.02 C 240.18 72.37 240.11 71.38 239.46 70.81 C 238.81 70.25 237.82 70.31 237.26 70.96 Z M 236.58 71.74 L 235.93 72.51 C 235.37 73.17 235.45 74.16 236.11 74.71 C 236.77 75.27 237.76 75.18 238.31 74.53 L 238.97 73.75 C 239.52 73.09 239.44 72.11 238.78 71.55 C 238.12 71.00 237.14 71.08 236.58 71.74 Z M 235.92 72.52 L 235.28 73.30 C 234.73 73.96 234.82 74.94 235.48 75.49 C 236.15 76.04 237.13 75.95 237.68 75.29 L 238.32 74.51 C 238.87 73.85 238.78 72.87 238.12 72.32 C 237.45 71.77 236.47 71.86 235.92 72.52 Z M 235.28 73.30 L 234.65 74.06 C 234.10 74.72 234.19 75.71 234.86 76.26 C 235.52 76.80 236.51 76.71 237.06 76.05 L 237.68 75.29 C 238.23 74.62 238.14 73.64 237.47 73.09 C 236.81 72.54 235.83 72.63 235.28 73.30 Z M 234.65 74.05 L 234.02 74.82 C 233.46 75.48 233.55 76.46 234.21 77.01 C 234.88 77.57 235.86 77.48 236.41 76.82 L 237.05 76.05 C 237.60 75.39 237.51 74.41 236.85 73.85 C 236.19 73.30 235.21 73.39 234.65 74.05 Z M 234.02 74.81 L 233.39 75.56 C 232.83 76.22 232.91 77.20 233.57 77.76 C 234.23 78.32 235.21 78.23 235.77 77.58 L 236.41 76.82 C 236.96 76.17 236.88 75.18 236.22 74.62 C 235.56 74.07 234.58 74.15 234.02 74.81 Z M 233.39 75.56 L 232.75 76.31 C 232.19 76.96 232.27 77.95 232.92 78.51 C 233.58 79.07 234.56 78.99 235.12 78.33 L 235.77 77.58 C 236.33 76.93 236.25 75.94 235.59 75.38 C 234.94 74.82 233.95 74.90 233.39 75.56 Z M 232.75 76.31 L 232.09 77.07 C 231.53 77.73 231.60 78.71 232.26 79.28 C 232.91 79.84 233.90 79.76 234.46 79.11 L 235.12 78.34 C 235.68 77.68 235.61 76.70 234.95 76.14 C 234.30 75.58 233.31 75.65 232.75 76.31 Z M 232.09 77.07 L 231.43 77.84 C 230.87 78.50 230.94 79.48 231.60 80.05 C 232.25 80.61 233.24 80.53 233.80 79.88 L 234.46 79.11 C 235.02 78.45 234.95 77.47 234.29 76.91 C 233.64 76.35 232.65 76.42 232.09 77.07 Z M 231.43 77.84 L 230.76 78.62 C 230.20 79.27 230.27 80.26 230.92 80.82 C 231.58 81.38 232.56 81.31 233.13 80.66 L 233.80 79.88 C 234.36 79.23 234.29 78.24 233.63 77.68 C 232.98 77.12 231.99 77.19 231.43 77.84 Z M 230.77 78.61 L 230.10 79.38 C 229.53 80.03 229.60 81.02 230.25 81.59 C 230.90 82.15 231.88 82.08 232.45 81.43 L 233.12 80.66 C 233.69 80.01 233.62 79.03 232.97 78.46 C 232.32 77.90 231.33 77.96 230.77 78.61 Z M 230.10 79.37 L 229.45 80.11 C 228.88 80.76 228.94 81.74 229.59 82.32 C 230.23 82.89 231.22 82.83 231.79 82.18 L 232.44 81.44 C 233.01 80.80 232.95 79.81 232.31 79.24 C 231.66 78.67 230.67 78.73 230.10 79.37 Z M 229.46 80.10 L 228.78 80.85 C 228.20 81.49 228.25 82.48 228.89 83.06 C 229.53 83.63 230.52 83.59 231.10 82.95 L 231.78 82.19 C 232.36 81.56 232.31 80.57 231.67 79.99 C 231.03 79.41 230.04 79.46 229.46 80.10 Z M 228.80 80.83 L 228.09 81.59 C 227.50 82.22 227.53 83.21 228.16 83.80 C 228.79 84.39 229.77 84.36 230.36 83.73 L 231.08 82.97 C 231.67 82.34 231.64 81.35 231.01 80.76 C 230.38 80.17 229.39 80.20 228.80 80.83 Z M 228.10 81.58 L 227.43 82.27 C 226.83 82.89 226.85 83.88 227.47 84.48 C 228.08 85.08 229.07 85.06 229.67 84.44 L 230.35 83.75 C 230.95 83.13 230.93 82.14 230.31 81.54 C 229.69 80.94 228.70 80.96 228.10 81.58 Z M 227.44 82.26 L 226.78 82.92 C 226.18 83.54 226.18 84.53 226.80 85.13 C 227.41 85.74 228.40 85.73 229.00 85.12 L 229.66 84.46 C 230.27 83.84 230.26 82.85 229.65 82.25 C 229.03 81.64 228.05 81.65 227.44 82.26 Z M 226.79 82.92 L 226.09 83.62 C 225.48 84.23 225.48 85.21 226.09 85.82 C 226.70 86.43 227.69 86.43 228.30 85.82 L 229.00 85.13 C 229.61 84.52 229.61 83.53 229.00 82.92 C 228.39 82.31 227.40 82.31 226.79 82.92 Z M 226.10 83.61 L 225.39 84.31 C 224.78 84.92 224.77 85.91 225.38 86.52 C 225.99 87.13 226.98 87.14 227.59 86.53 L 228.30 85.83 C 228.91 85.22 228.91 84.23 228.31 83.62 C 227.70 83.01 226.71 83.00 226.10 83.61 Z M 225.40 84.30 L 224.67 85.01 C 224.06 85.62 224.05 86.60 224.65 87.22 C 225.25 87.84 226.24 87.85 226.86 87.24 L 227.58 86.53 C 228.20 85.93 228.21 84.94 227.61 84.33 C 227.00 83.71 226.01 83.70 225.40 84.30 Z M 224.68 85.01 L 223.99 85.67 C 223.37 86.27 223.36 87.26 223.96 87.88 C 224.56 88.50 225.55 88.51 226.16 87.91 L 226.85 87.25 C 227.47 86.65 227.49 85.66 226.89 85.04 C 226.29 84.42 225.30 84.41 224.68 85.01 Z M 224.00 85.66 L 223.30 86.33 C 222.68 86.93 222.66 87.92 223.25 88.54 C 223.85 89.16 224.83 89.19 225.46 88.59 L 226.16 87.92 C 226.78 87.33 226.80 86.34 226.21 85.71 C 225.61 85.09 224.62 85.07 224.00 85.66 Z M 223.31 86.33 L 222.57 87.03 C 221.94 87.62 221.91 88.61 222.50 89.23 C 223.10 89.86 224.08 89.89 224.71 89.30 L 225.45 88.60 C 226.08 88.00 226.11 87.02 225.51 86.39 C 224.92 85.76 223.93 85.73 223.31 86.33 Z M 222.57 87.02 L 221.80 87.74 C 221.17 88.33 221.14 89.31 221.73 89.94 C 222.32 90.57 223.30 90.61 223.93 90.02 L 224.70 89.30 C 225.33 88.71 225.37 87.73 224.78 87.10 C 224.19 86.47 223.20 86.43 222.57 87.02 Z M 221.81 87.73 L 221.10 88.39 C 220.46 88.98 220.42 89.96 221.01 90.60 C 221.59 91.23 222.58 91.27 223.22 90.68 L 223.93 90.03 C 224.56 89.44 224.60 88.45 224.02 87.82 C 223.43 87.19 222.44 87.15 221.81 87.73 Z M 221.10 88.39 L 220.36 89.06 C 219.73 89.65 219.68 90.63 220.26 91.27 C 220.85 91.91 221.83 91.95 222.47 91.37 L 223.21 90.69 C 223.85 90.11 223.89 89.12 223.31 88.48 C 222.73 87.85 221.74 87.80 221.10 88.39 Z M 220.37 89.06 L 219.61 89.74 C 218.97 90.32 218.92 91.31 219.50 91.95 C 220.08 92.59 221.07 92.64 221.71 92.06 L 222.46 91.37 C 223.10 90.79 223.15 89.81 222.57 89.17 C 221.99 88.53 221.01 88.48 220.37 89.06 Z M 219.62 89.74 L 218.86 90.42 C 218.22 90.99 218.17 91.98 218.74 92.62 C 219.32 93.26 220.30 93.32 220.95 92.74 L 221.70 92.06 C 222.34 91.49 222.40 90.50 221.82 89.86 C 221.25 89.22 220.26 89.16 219.62 89.74 Z M 218.87 90.41 L 218.14 91.06 C 217.49 91.63 217.43 92.62 218.00 93.26 C 218.57 93.91 219.56 93.97 220.21 93.40 L 220.94 92.75 C 221.58 92.18 221.64 91.19 221.07 90.54 C 220.50 89.90 219.51 89.84 218.87 90.41 Z M 218.14 91.05 L 217.41 91.70 C 216.76 92.27 216.70 93.25 217.27 93.90 C 217.84 94.55 218.82 94.61 219.47 94.04 L 220.20 93.40 C 220.85 92.83 220.91 91.84 220.34 91.20 C 219.78 90.55 218.79 90.48 218.14 91.05 Z M 217.41 91.70 L 216.67 92.35 C 216.02 92.92 215.95 93.90 216.52 94.55 C 217.09 95.20 218.08 95.26 218.73 94.70 L 219.47 94.04 C 220.12 93.47 220.18 92.49 219.61 91.84 C 219.05 91.19 218.06 91.13 217.41 91.70 Z M 216.66 92.35 L 215.89 93.03 C 215.24 93.60 215.18 94.59 215.75 95.24 C 216.32 95.88 217.31 95.95 217.95 95.38 L 218.73 94.69 C 219.37 94.12 219.44 93.14 218.87 92.49 C 218.30 91.84 217.31 91.78 216.66 92.35 Z M 215.89 93.04 L 215.14 93.69 C 214.50 94.27 214.44 95.25 215.01 95.90 C 215.58 96.54 216.57 96.60 217.22 96.03 L 217.96 95.37 C 218.60 94.80 218.66 93.81 218.09 93.17 C 217.52 92.52 216.53 92.46 215.89 93.04 Z M 215.14 93.70 L 214.41 94.35 C 213.77 94.92 213.71 95.91 214.29 96.55 C 214.86 97.19 215.85 97.25 216.49 96.68 L 217.22 96.03 C 217.86 95.45 217.92 94.47 217.35 93.82 C 216.77 93.18 215.78 93.12 215.14 93.70 Z M 214.41 94.35 L 213.66 95.01 C 213.02 95.59 212.96 96.57 213.54 97.22 C 214.11 97.86 215.10 97.92 215.74 97.34 L 216.49 96.68 C 217.14 96.10 217.19 95.12 216.62 94.47 C 216.04 93.83 215.06 93.77 214.41 94.35 Z M 213.67 95.01 L 212.90 95.69 C 212.26 96.26 212.20 97.25 212.77 97.89 C 213.34 98.54 214.33 98.60 214.98 98.02 L 215.74 97.35 C 216.38 96.77 216.44 95.79 215.87 95.14 C 215.30 94.50 214.31 94.44 213.67 95.01 Z M 212.91 95.69 L 212.14 96.36 C 211.49 96.93 211.43 97.92 212.00 98.57 C 212.57 99.21 213.55 99.28 214.20 98.71 L 214.97 98.03 C 215.62 97.46 215.68 96.47 215.11 95.83 C 214.54 95.18 213.56 95.12 212.91 95.69 Z M 212.15 96.36 L 211.37 97.03 C 210.72 97.59 210.65 98.58 211.22 99.23 C 211.78 99.88 212.77 99.95 213.42 99.38 L 214.19 98.71 C 214.84 98.15 214.91 97.16 214.35 96.51 C 213.78 95.86 212.80 95.79 212.15 96.36 Z M 211.38 97.02 L 210.61 97.68 C 209.96 98.24 209.88 99.23 210.44 99.88 C 211.00 100.54 211.99 100.61 212.64 100.05 L 213.41 99.39 C 214.07 98.83 214.14 97.84 213.58 97.19 C 213.02 96.53 212.04 96.46 211.38 97.02 Z M 210.61 97.68 L 209.85 98.33 C 209.19 98.89 209.12 99.87 209.68 100.53 C 210.23 101.18 211.22 101.26 211.88 100.70 L 212.64 100.05 C 213.30 99.49 213.37 98.51 212.82 97.85 C 212.26 97.20 211.27 97.12 210.61 97.68 Z M 209.85 98.33 L 209.09 98.97 C 208.44 99.53 208.36 100.52 208.92 101.17 C 209.48 101.83 210.47 101.91 211.12 101.35 L 211.88 100.70 C 212.53 100.14 212.61 99.16 212.05 98.50 C 211.49 97.85 210.51 97.77 209.85 98.33 Z M 209.09 98.98 L 208.34 99.62 C 207.69 100.19 207.62 101.17 208.18 101.82 C 208.74 102.48 209.73 102.55 210.38 101.99 L 211.13 101.34 C 211.78 100.78 211.85 99.79 211.29 99.14 C 210.73 98.49 209.74 98.42 209.09 98.98 Z M 208.33 99.63 L 207.59 100.29 C 206.94 100.86 206.87 101.84 207.44 102.49 C 208.01 103.14 209.00 103.20 209.65 102.63 L 210.39 101.98 C 211.04 101.41 211.10 100.42 210.54 99.77 C 209.97 99.13 208.98 99.06 208.33 99.63 Z M 207.57 100.30 L 206.83 100.97 C 206.18 101.54 206.13 102.53 206.70 103.17 C 207.28 103.81 208.27 103.87 208.91 103.29 L 209.66 102.62 C 210.30 102.05 210.35 101.06 209.78 100.42 C 209.20 99.78 208.22 99.72 207.57 100.30 Z M 206.82 100.97 L 206.08 101.65 C 205.44 102.23 205.39 103.21 205.97 103.85 C 206.55 104.49 207.54 104.54 208.18 103.96 L 208.92 103.28 C 209.56 102.70 209.60 101.72 209.02 101.08 C 208.44 100.44 207.46 100.39 206.82 100.97 Z M 206.07 101.65 L 205.34 102.33 C 204.70 102.91 204.66 103.90 205.24 104.53 C 205.83 105.17 206.81 105.21 207.45 104.63 L 208.18 103.95 C 208.82 103.37 208.86 102.38 208.28 101.75 C 207.69 101.11 206.71 101.07 206.07 101.65 Z M 205.33 102.33 L 204.60 103.01 C 203.97 103.59 203.93 104.58 204.51 105.21 C 205.10 105.85 206.09 105.89 206.72 105.30 L 207.45 104.62 C 208.09 104.04 208.12 103.05 207.54 102.42 C 206.95 101.78 205.97 101.75 205.33 102.33 Z M 204.60 103.01 L 203.87 103.69 C 203.23 104.28 203.20 105.26 203.78 105.90 C 204.37 106.53 205.36 106.57 205.99 105.98 L 206.72 105.30 C 207.35 104.71 207.39 103.73 206.81 103.09 C 206.22 102.46 205.23 102.42 204.60 103.01 Z M 203.86 103.69 L 203.13 104.37 C 202.50 104.96 202.46 105.95 203.05 106.58 C 203.64 107.21 204.62 107.25 205.26 106.66 L 205.99 105.98 C 206.62 105.39 206.66 104.40 206.07 103.77 C 205.48 103.14 204.50 103.10 203.86 103.69 Z M 203.13 104.38 L 202.39 105.06 C 201.76 105.65 201.73 106.64 202.32 107.27 C 202.91 107.90 203.90 107.93 204.53 107.34 L 205.26 106.66 C 205.89 106.07 205.92 105.08 205.33 104.45 C 204.74 103.82 203.75 103.79 203.13 104.38 Z M 202.39 105.07 L 201.66 105.76 C 201.04 106.35 201.01 107.34 201.60 107.96 C 202.20 108.59 203.18 108.61 203.81 108.02 L 204.54 107.33 C 205.16 106.74 205.19 105.75 204.59 105.13 C 204.00 104.50 203.01 104.48 202.39 105.07 Z M 201.65 105.77 L 200.94 106.46 C 200.32 107.06 200.30 108.04 200.90 108.66 C 201.49 109.28 202.48 109.30 203.10 108.70 L 203.82 108.01 C 204.44 107.41 204.46 106.43 203.86 105.81 C 203.26 105.18 202.27 105.17 201.65 105.77 Z M 200.92 106.47 L 200.20 107.19 C 199.58 107.79 199.57 108.78 200.18 109.39 C 200.78 110.01 201.77 110.02 202.39 109.41 L 203.12 108.69 C 203.73 108.09 203.74 107.10 203.13 106.48 C 202.53 105.87 201.54 105.86 200.92 106.47 Z M 200.18 107.20 L 199.46 107.92 C 198.85 108.54 198.86 109.53 199.47 110.13 C 200.08 110.74 201.07 110.74 201.68 110.12 L 202.40 109.40 C 203.01 108.79 203.01 107.80 202.39 107.19 C 201.78 106.58 200.79 106.58 200.18 107.20 Z M 199.45 107.93 L 198.75 108.66 C 198.15 109.28 198.16 110.27 198.78 110.87 C 199.40 111.47 200.39 111.46 201.00 110.84 L 201.70 110.11 C 202.30 109.49 202.28 108.50 201.66 107.90 C 201.04 107.30 200.05 107.31 199.45 107.93 Z M 198.73 108.67 L 198.06 109.38 C 197.46 110.01 197.49 111.00 198.11 111.60 C 198.74 112.19 199.73 112.17 200.33 111.54 L 201.01 110.83 C 201.60 110.20 201.58 109.20 200.95 108.61 C 200.32 108.01 199.33 108.04 198.73 108.67 Z M 198.04 109.39 L 197.39 110.10 C 196.80 110.73 196.83 111.73 197.47 112.32 C 198.10 112.91 199.10 112.87 199.69 112.23 L 200.34 111.53 C 200.93 110.89 200.90 109.90 200.26 109.31 C 199.63 108.72 198.63 108.76 198.04 109.39 Z M 197.37 110.11 L 196.71 110.84 C 196.13 111.48 196.17 112.48 196.82 113.06 C 197.46 113.64 198.45 113.60 199.04 112.96 L 199.70 112.22 C 200.28 111.58 200.24 110.59 199.59 110.00 C 198.95 109.42 197.96 109.47 197.37 110.11 Z M 196.70 110.85 L 196.05 111.58 C 195.47 112.23 195.53 113.22 196.17 113.80 C 196.82 114.38 197.82 114.32 198.39 113.67 L 199.05 112.95 C 199.62 112.30 199.57 111.30 198.92 110.73 C 198.27 110.15 197.28 110.20 196.70 110.85 Z M 196.04 111.58 L 195.39 112.32 C 194.81 112.97 194.87 113.97 195.52 114.55 C 196.17 115.12 197.17 115.06 197.74 114.41 L 198.40 113.67 C 198.98 113.02 198.92 112.02 198.27 111.45 C 197.61 110.87 196.62 110.93 196.04 111.58 Z M 195.38 112.32 L 194.70 113.09 C 194.13 113.75 194.19 114.74 194.84 115.32 C 195.49 115.89 196.49 115.83 197.07 115.18 L 197.75 114.41 C 198.32 113.76 198.26 112.76 197.61 112.19 C 196.96 111.61 195.96 111.67 195.38 112.32 Z M 194.71 113.09 L 194.06 113.82 C 193.48 114.47 193.54 115.47 194.19 116.05 C 194.84 116.62 195.84 116.57 196.42 115.91 L 197.07 115.18 C 197.64 114.53 197.58 113.54 196.93 112.96 C 196.28 112.38 195.28 112.44 194.71 113.09 Z M 194.06 113.81 L 193.41 114.54 C 192.83 115.19 192.88 116.19 193.53 116.77 C 194.18 117.35 195.18 117.30 195.76 116.65 L 196.41 115.92 C 197.00 115.27 196.94 114.27 196.29 113.69 C 195.64 113.11 194.64 113.16 194.06 113.81 Z M 193.41 114.53 L 192.74 115.28 C 192.15 115.93 192.20 116.93 192.85 117.51 C 193.50 118.10 194.50 118.05 195.08 117.40 L 195.76 116.66 C 196.35 116.01 196.30 115.01 195.65 114.42 C 195.00 113.83 194.00 113.88 193.41 114.53 Z M 192.74 115.27 L 192.05 116.02 C 191.46 116.67 191.50 117.67 192.15 118.26 C 192.79 118.85 193.80 118.81 194.39 118.16 L 195.08 117.41 C 195.67 116.77 195.63 115.76 194.98 115.17 C 194.34 114.58 193.33 114.62 192.74 115.27 Z M 192.06 116.01 L 191.36 116.76 C 190.76 117.40 190.79 118.41 191.44 119.01 C 192.08 119.60 193.08 119.57 193.68 118.93 L 194.38 118.18 C 194.98 117.53 194.94 116.53 194.30 115.93 C 193.66 115.33 192.66 115.37 192.06 116.01 Z M 191.37 116.75 L 190.68 117.47 C 190.08 118.11 190.10 119.11 190.74 119.72 C 191.37 120.32 192.38 120.30 192.99 119.66 L 193.67 118.94 C 194.28 118.30 194.25 117.30 193.61 116.69 C 192.98 116.09 191.97 116.11 191.37 116.75 Z M 190.69 117.46 L 190.01 118.16 C 189.40 118.79 189.41 119.80 190.05 120.41 C 190.68 121.02 191.69 121.01 192.30 120.38 L 192.98 119.67 C 193.59 119.04 193.57 118.03 192.94 117.42 C 192.31 116.81 191.30 116.83 190.69 117.46 Z M 190.02 118.15 L 189.33 118.85 C 188.71 119.48 188.72 120.49 189.35 121.11 C 189.98 121.72 190.98 121.71 191.60 121.09 L 192.29 120.39 C 192.91 119.76 192.90 118.75 192.27 118.13 C 191.64 117.52 190.63 117.52 190.02 118.15 Z M 189.33 118.85 L 188.63 119.55 C 188.01 120.18 188.01 121.19 188.64 121.81 C 189.26 122.43 190.27 122.43 190.89 121.80 L 191.60 121.09 C 192.22 120.47 192.21 119.46 191.59 118.84 C 190.96 118.22 189.95 118.22 189.33 118.85 Z M 188.63 119.55 L 187.91 120.27 C 187.29 120.90 187.29 121.91 187.91 122.53 C 188.53 123.15 189.55 123.15 190.17 122.53 L 190.89 121.81 C 191.51 121.18 191.51 120.17 190.89 119.55 C 190.27 118.93 189.25 118.93 188.63 119.55 Z M 187.91 120.27 L 187.19 120.99 C 186.57 121.61 186.57 122.62 187.19 123.25 C 187.82 123.87 188.83 123.87 189.45 123.25 L 190.17 122.53 C 190.79 121.91 190.79 120.90 190.17 120.27 C 189.55 119.65 188.53 119.65 187.91 120.27 Z M 187.19 120.99 L 186.51 121.67 C 185.89 122.29 185.89 123.30 186.51 123.93 C 187.14 124.55 188.15 124.55 188.77 123.93 L 189.45 123.25 C 190.08 122.62 190.08 121.61 189.46 120.99 C 188.83 120.36 187.82 120.36 187.19 120.99 Z M 186.51 121.66 L 185.81 122.36 C 185.19 122.98 185.19 124.00 185.81 124.62 C 186.44 125.25 187.45 125.25 188.08 124.63 L 188.77 123.93 C 189.40 123.31 189.40 122.29 188.78 121.67 C 188.15 121.04 187.14 121.04 186.51 121.66 Z M 185.82 122.36 L 185.10 123.06 C 184.47 123.69 184.47 124.70 185.09 125.33 C 185.72 125.96 186.73 125.96 187.36 125.34 L 188.07 124.63 C 188.70 124.01 188.71 122.99 188.08 122.36 C 187.46 121.74 186.44 121.73 185.82 122.36 Z M 185.10 123.06 L 184.38 123.78 C 183.75 124.40 183.74 125.41 184.36 126.04 C 184.99 126.68 186.00 126.68 186.63 126.06 L 187.36 125.34 C 187.99 124.72 188.00 123.71 187.37 123.07 C 186.75 122.44 185.73 122.44 185.10 123.06 Z M 184.38 123.77 L 183.65 124.49 C 183.01 125.11 183.00 126.13 183.62 126.76 C 184.24 127.39 185.26 127.41 185.89 126.78 L 186.63 126.07 C 187.26 125.45 187.27 124.43 186.65 123.79 C 186.03 123.16 185.02 123.15 184.38 123.77 Z M 183.65 124.48 L 182.93 125.19 C 182.29 125.80 182.27 126.82 182.89 127.46 C 183.51 128.10 184.53 128.11 185.16 127.50 L 185.89 126.79 C 186.53 126.17 186.54 125.16 185.93 124.52 C 185.31 123.88 184.29 123.86 183.65 124.48 Z M 182.93 125.18 L 182.23 125.85 C 181.58 126.47 181.56 127.49 182.18 128.13 C 182.79 128.77 183.81 128.79 184.45 128.18 L 185.16 127.50 C 185.80 126.89 185.82 125.87 185.21 125.23 C 184.59 124.58 183.57 124.56 182.93 125.18 Z M 182.23 125.85 L 181.52 126.52 C 180.87 127.14 180.85 128.16 181.46 128.80 C 182.07 129.45 183.09 129.47 183.74 128.86 L 184.45 128.18 C 185.10 127.57 185.12 126.55 184.51 125.91 C 183.90 125.26 182.88 125.23 182.23 125.85 Z M 181.52 126.52 L 180.80 127.20 C 180.15 127.81 180.12 128.83 180.73 129.48 C 181.34 130.13 182.36 130.16 183.01 129.55 L 183.73 128.87 C 184.38 128.26 184.41 127.24 183.80 126.59 C 183.19 125.94 182.17 125.91 181.52 126.52 Z M 180.80 127.19 L 180.07 127.88 C 179.42 128.48 179.38 129.51 179.99 130.16 C 180.60 130.81 181.62 130.84 182.28 130.24 L 183.01 129.55 C 183.66 128.94 183.70 127.92 183.09 127.27 C 182.48 126.62 181.46 126.58 180.80 127.19 Z M 180.07 127.87 L 179.33 128.56 C 178.67 129.17 178.63 130.19 179.24 130.85 C 179.85 131.50 180.87 131.54 181.53 130.93 L 182.27 130.24 C 182.93 129.63 182.97 128.61 182.36 127.96 C 181.75 127.30 180.73 127.26 180.07 127.87 Z M 179.33 128.56 L 178.57 129.26 C 177.91 129.87 177.87 130.89 178.47 131.55 C 179.08 132.20 180.10 132.25 180.76 131.64 L 181.52 130.94 C 182.18 130.33 182.22 129.31 181.62 128.65 C 181.01 128.00 179.99 127.95 179.33 128.56 Z M 178.57 129.26 L 177.87 129.90 C 177.21 130.51 177.16 131.53 177.77 132.19 C 178.37 132.85 179.39 132.89 180.05 132.29 L 180.76 131.64 C 181.42 131.04 181.46 130.02 180.86 129.36 C 180.25 128.70 179.23 128.65 178.57 129.26 Z M 177.87 129.90 L 177.15 130.56 C 176.49 131.16 176.44 132.19 177.05 132.85 C 177.65 133.51 178.67 133.55 179.33 132.95 L 180.05 132.29 C 180.71 131.69 180.76 130.67 180.15 130.01 C 179.55 129.35 178.53 129.30 177.87 129.90 Z M 177.15 130.56 L 176.42 131.22 C 175.76 131.82 175.71 132.85 176.31 133.51 C 176.91 134.17 177.94 134.22 178.60 133.62 L 179.33 132.95 C 179.99 132.35 180.04 131.33 179.44 130.66 C 178.84 130.00 177.81 129.95 177.15 130.56 Z M 176.42 131.22 L 175.68 131.90 C 175.02 132.50 174.97 133.52 175.57 134.18 C 176.17 134.85 177.19 134.89 177.85 134.29 L 178.60 133.62 C 179.26 133.02 179.31 131.99 178.71 131.33 C 178.11 130.67 177.08 130.62 176.42 131.22 Z M 175.68 131.89 L 174.93 132.58 C 174.26 133.18 174.21 134.20 174.81 134.86 C 175.41 135.53 176.44 135.58 177.10 134.98 L 177.85 134.29 C 178.52 133.69 178.57 132.67 177.97 132.01 C 177.37 131.34 176.34 131.29 175.68 131.89 Z M 174.93 132.57 L 174.17 133.26 C 173.50 133.86 173.45 134.89 174.05 135.55 C 174.65 136.22 175.67 136.27 176.34 135.67 L 177.10 134.98 C 177.76 134.38 177.81 133.35 177.21 132.69 C 176.61 132.03 175.59 131.97 174.93 132.57 Z M 174.17 133.26 L 173.40 133.96 C 172.73 134.56 172.68 135.58 173.28 136.25 C 173.88 136.91 174.90 136.96 175.57 136.36 L 176.34 135.67 C 177.00 135.07 177.05 134.04 176.45 133.38 C 175.85 132.72 174.83 132.66 174.17 133.26 Z M 173.40 133.96 L 172.66 134.62 C 172.00 135.22 171.94 136.24 172.54 136.91 C 173.14 137.57 174.17 137.63 174.83 137.03 L 175.57 136.36 C 176.23 135.76 176.29 134.74 175.69 134.07 C 175.09 133.41 174.06 133.36 173.40 133.96 Z M 172.66 134.62 L 171.92 135.29 C 171.26 135.89 171.20 136.91 171.80 137.58 C 172.40 138.24 173.43 138.29 174.09 137.69 L 174.83 137.03 C 175.50 136.43 175.55 135.40 174.95 134.74 C 174.35 134.07 173.33 134.02 172.66 134.62 Z M 171.92 135.29 L 171.18 135.96 C 170.51 136.56 170.46 137.58 171.06 138.25 C 171.66 138.91 172.69 138.96 173.35 138.36 L 174.09 137.69 C 174.76 137.09 174.81 136.07 174.21 135.40 C 173.61 134.74 172.58 134.69 171.92 135.29 Z M 171.18 135.96 L 170.43 136.63 C 169.77 137.23 169.72 138.26 170.32 138.92 C 170.92 139.59 171.95 139.64 172.61 139.04 L 173.35 138.36 C 174.02 137.76 174.07 136.74 173.47 136.07 C 172.87 135.41 171.84 135.36 171.18 135.96 Z M 170.43 136.63 L 169.69 137.31 C 169.03 137.91 168.98 138.94 169.58 139.60 C 170.18 140.26 171.21 140.31 171.87 139.71 L 172.61 139.03 C 173.28 138.43 173.32 137.41 172.72 136.74 C 172.12 136.08 171.09 136.03 170.43 136.63 Z M 169.68 137.31 L 168.94 137.99 C 168.28 138.59 168.24 139.62 168.84 140.28 C 169.45 140.94 170.47 140.99 171.13 140.38 L 171.87 139.71 C 172.54 139.10 172.58 138.08 171.98 137.42 C 171.37 136.75 170.35 136.71 169.68 137.31 Z M 168.94 137.99 L 168.20 138.67 C 167.54 139.28 167.50 140.30 168.11 140.96 C 168.71 141.62 169.74 141.67 170.40 141.06 L 171.14 140.38 C 171.80 139.78 171.84 138.75 171.23 138.09 C 170.63 137.43 169.60 137.39 168.94 137.99 Z M 168.20 138.68 L 167.46 139.36 C 166.80 139.97 166.76 141.00 167.37 141.65 C 167.98 142.31 169.01 142.35 169.66 141.74 L 170.40 141.06 C 171.06 140.45 171.10 139.42 170.49 138.76 C 169.88 138.10 168.86 138.07 168.20 138.68 Z M 167.45 139.37 L 166.71 140.06 C 166.06 140.67 166.02 141.70 166.63 142.35 C 167.25 143.01 168.27 143.04 168.93 142.43 L 169.67 141.74 C 170.32 141.13 170.36 140.10 169.75 139.44 C 169.13 138.79 168.11 138.75 167.45 139.37 Z M 166.71 140.06 L 165.97 140.75 C 165.32 141.37 165.29 142.39 165.90 143.05 C 166.52 143.70 167.54 143.73 168.20 143.12 L 168.93 142.43 C 169.59 141.81 169.62 140.78 169.00 140.13 C 168.39 139.48 167.36 139.45 166.71 140.06 Z M 165.97 140.76 L 165.24 141.45 C 164.59 142.06 164.56 143.09 165.18 143.74 C 165.80 144.39 166.82 144.42 167.47 143.80 L 168.20 143.11 C 168.85 142.50 168.88 141.47 168.26 140.82 C 167.65 140.17 166.62 140.14 165.97 140.76 Z M 165.24 141.45 L 164.51 142.14 C 163.87 142.76 163.84 143.79 164.46 144.43 C 165.08 145.08 166.11 145.11 166.75 144.49 L 167.48 143.80 C 168.13 143.18 168.15 142.15 167.53 141.50 C 166.91 140.86 165.88 140.83 165.24 141.45 Z M 164.51 142.14 L 163.79 142.83 C 163.15 143.45 163.13 144.48 163.75 145.13 C 164.37 145.77 165.40 145.79 166.04 145.17 L 166.76 144.48 C 167.40 143.86 167.43 142.84 166.80 142.19 C 166.18 141.54 165.16 141.52 164.51 142.14 Z M 163.79 142.83 L 163.08 143.52 C 162.44 144.14 162.42 145.17 163.04 145.82 C 163.66 146.46 164.69 146.48 165.34 145.85 L 166.05 145.17 C 166.69 144.55 166.71 143.52 166.09 142.87 C 165.46 142.23 164.43 142.21 163.79 142.83 Z M 163.08 143.52 L 162.36 144.22 C 161.72 144.84 161.71 145.87 162.33 146.51 C 162.96 147.16 163.98 147.17 164.63 146.55 L 165.34 145.85 C 165.98 145.23 166.00 144.20 165.37 143.56 C 164.75 142.91 163.72 142.90 163.08 143.52 Z M 162.36 144.22 L 161.63 144.94 C 160.99 145.56 160.98 146.59 161.60 147.23 C 162.23 147.87 163.26 147.88 163.90 147.26 L 164.63 146.54 C 165.27 145.91 165.28 144.89 164.65 144.25 C 164.03 143.61 163.00 143.59 162.36 144.22 Z M 161.62 144.94 L 160.90 145.65 C 160.26 146.28 160.26 147.31 160.89 147.95 C 161.52 148.59 162.54 148.59 163.18 147.96 L 163.90 147.25 C 164.54 146.62 164.55 145.59 163.92 144.96 C 163.29 144.32 162.26 144.31 161.62 144.94 Z M 160.89 145.66 L 160.18 146.37 C 159.55 147.00 159.55 148.03 160.18 148.67 C 160.81 149.30 161.84 149.30 162.48 148.67 L 163.19 147.96 C 163.82 147.32 163.82 146.30 163.19 145.66 C 162.56 145.03 161.53 145.03 160.89 145.66 Z M 160.18 146.38 L 159.47 147.09 C 158.84 147.73 158.85 148.75 159.49 149.38 C 160.12 150.01 161.15 150.01 161.78 149.37 L 162.48 148.66 C 163.11 148.02 163.11 147.00 162.47 146.37 C 161.83 145.73 160.81 145.74 160.18 146.38 Z M 159.46 147.10 L 158.78 147.81 C 158.15 148.45 158.16 149.48 158.81 150.10 C 159.45 150.73 160.48 150.71 161.10 150.07 L 161.79 149.36 C 162.42 148.72 162.40 147.69 161.76 147.07 C 161.12 146.44 160.09 146.45 159.46 147.10 Z M 158.76 147.82 L 158.09 148.52 C 157.47 149.17 157.49 150.20 158.14 150.82 C 158.79 151.44 159.82 151.42 160.44 150.77 L 161.11 150.06 C 161.73 149.41 161.71 148.38 161.06 147.76 C 160.41 147.14 159.38 147.17 158.76 147.82 Z M 158.08 148.54 L 157.39 149.27 C 156.78 149.92 156.81 150.95 157.47 151.56 C 158.12 152.18 159.15 152.14 159.76 151.49 L 160.45 150.75 C 161.06 150.10 161.03 149.07 160.37 148.46 C 159.72 147.85 158.69 147.88 158.08 148.54 Z M 157.38 149.28 L 156.68 150.05 C 156.07 150.71 156.12 151.74 156.78 152.34 C 157.44 152.95 158.47 152.90 159.07 152.24 L 159.78 151.47 C 160.38 150.81 160.34 149.79 159.67 149.18 C 159.01 148.57 157.99 148.62 157.38 149.28 Z M 156.67 150.06 L 155.98 150.82 C 155.38 151.49 155.44 152.51 156.10 153.11 C 156.77 153.71 157.80 153.66 158.40 152.99 L 159.08 152.23 C 159.68 151.56 159.63 150.54 158.96 149.94 C 158.30 149.34 157.27 149.39 156.67 150.06 Z M 155.98 150.83 L 155.31 151.58 C 154.71 152.25 154.77 153.28 155.44 153.87 C 156.11 154.47 157.14 154.41 157.73 153.74 L 158.40 152.99 C 159.00 152.32 158.94 151.29 158.27 150.69 C 157.60 150.10 156.57 150.16 155.98 150.83 Z M 155.30 151.59 L 154.65 152.33 C 154.05 153.00 154.12 154.02 154.79 154.62 C 155.46 155.21 156.49 155.15 157.08 154.48 L 157.74 153.74 C 158.33 153.06 158.27 152.04 157.59 151.44 C 156.92 150.85 155.90 150.91 155.30 151.59 Z M 154.65 152.33 L 154.01 153.05 C 153.41 153.73 153.48 154.75 154.15 155.34 C 154.82 155.94 155.84 155.88 156.44 155.20 L 157.08 154.48 C 157.67 153.81 157.61 152.78 156.94 152.19 C 156.27 151.59 155.24 151.66 154.65 152.33 Z M 154.01 153.05 L 153.38 153.76 C 152.78 154.43 152.84 155.45 153.51 156.05 C 154.18 156.64 155.21 156.58 155.80 155.92 L 156.43 155.21 C 157.03 154.54 156.97 153.51 156.30 152.92 C 155.63 152.32 154.61 152.38 154.01 153.05 Z M 153.39 153.75 L 152.71 154.50 C 152.11 155.17 152.17 156.19 152.83 156.79 C 153.50 157.39 154.52 157.34 155.12 156.67 L 155.80 155.92 C 156.40 155.26 156.34 154.23 155.68 153.63 C 155.01 153.03 153.99 153.08 153.39 153.75 Z M 152.72 154.49 L 152.05 155.23 C 151.45 155.89 151.50 156.91 152.16 157.52 C 152.82 158.12 153.85 158.07 154.45 157.41 L 155.12 156.68 C 155.72 156.02 155.67 154.99 155.01 154.39 C 154.35 153.78 153.32 153.83 152.72 154.49 Z M 152.05 155.22 L 151.39 155.95 C 150.79 156.61 150.83 157.63 151.49 158.24 C 152.15 158.84 153.18 158.80 153.78 158.14 L 154.45 157.41 C 155.05 156.75 155.01 155.73 154.35 155.12 C 153.69 154.52 152.66 154.56 152.05 155.22 Z M 151.39 155.94 L 150.72 156.67 C 150.12 157.33 150.16 158.36 150.82 158.97 C 151.48 159.57 152.51 159.53 153.11 158.87 L 153.78 158.14 C 154.39 157.48 154.35 156.45 153.69 155.85 C 153.03 155.24 152.00 155.28 151.39 155.94 Z M 150.72 156.67 L 150.04 157.41 C 149.44 158.07 149.48 159.10 150.14 159.71 C 150.80 160.31 151.83 160.27 152.43 159.61 L 153.11 158.87 C 153.72 158.21 153.68 157.18 153.02 156.57 C 152.36 155.97 151.33 156.01 150.72 156.67 Z M 150.04 157.42 L 149.35 158.17 C 148.75 158.83 148.80 159.86 149.46 160.46 C 150.12 161.07 151.15 161.02 151.75 160.36 L 152.44 159.60 C 153.04 158.94 152.99 157.92 152.33 157.31 C 151.67 156.71 150.64 156.76 150.04 157.42 Z M 149.35 158.17 L 148.70 158.90 C 148.09 159.56 148.14 160.59 148.81 161.19 C 149.47 161.79 150.50 161.74 151.10 161.08 L 151.76 160.35 C 152.36 159.69 152.31 158.66 151.64 158.06 C 150.98 157.46 149.95 157.51 149.35 158.17 Z M 148.69 158.90 L 148.03 159.64 C 147.42 160.30 147.47 161.33 148.14 161.93 C 148.80 162.53 149.83 162.48 150.43 161.81 L 151.10 161.08 C 151.70 160.41 151.65 159.38 150.99 158.78 C 150.32 158.18 149.30 158.23 148.69 158.90 Z M 148.03 159.63 L 147.35 160.38 C 146.74 161.04 146.79 162.07 147.46 162.67 C 148.12 163.28 149.15 163.23 149.75 162.57 L 150.43 161.82 C 151.03 161.15 150.98 160.13 150.32 159.52 C 149.66 158.92 148.63 158.97 148.03 159.63 Z M 147.35 160.37 L 146.67 161.12 C 146.06 161.78 146.10 162.81 146.76 163.42 C 147.42 164.02 148.45 163.98 149.06 163.32 L 149.74 162.57 C 150.35 161.91 150.31 160.88 149.65 160.28 C 148.99 159.67 147.96 159.71 147.35 160.37 Z M 146.67 161.11 L 145.98 161.85 C 145.37 162.51 145.41 163.54 146.06 164.15 C 146.72 164.76 147.75 164.72 148.36 164.07 L 149.05 163.33 C 149.66 162.67 149.62 161.65 148.97 161.03 C 148.31 160.42 147.29 160.46 146.67 161.11 Z M 146.00 161.84 L 145.31 162.56 C 144.69 163.21 144.71 164.24 145.36 164.86 C 146.01 165.48 147.04 165.45 147.66 164.80 L 148.35 164.08 C 148.97 163.43 148.94 162.40 148.29 161.78 C 147.64 161.17 146.61 161.19 146.00 161.84 Z M 145.32 162.55 L 144.62 163.26 C 144.00 163.90 144.01 164.93 144.65 165.56 C 145.29 166.18 146.32 166.17 146.94 165.53 L 147.64 164.82 C 148.27 164.18 148.26 163.15 147.62 162.52 C 146.98 161.90 145.95 161.91 145.32 162.55 Z M 144.64 163.24 L 143.94 163.94 C 143.30 164.57 143.30 165.60 143.93 166.24 C 144.56 166.87 145.59 166.88 146.23 166.24 L 146.93 165.55 C 147.56 164.92 147.57 163.89 146.94 163.25 C 146.30 162.62 145.27 162.61 144.64 163.24 Z M 143.95 163.93 L 143.25 164.61 C 142.60 165.24 142.59 166.27 143.21 166.91 C 143.84 167.55 144.87 167.57 145.51 166.94 L 146.21 166.26 C 146.86 165.63 146.87 164.60 146.25 163.96 C 145.62 163.32 144.59 163.30 143.95 163.93 Z M 143.26 164.60 L 142.54 165.28 C 141.90 165.90 141.87 166.93 142.49 167.58 C 143.11 168.23 144.14 168.25 144.79 167.63 L 145.50 166.95 C 146.15 166.33 146.17 165.30 145.55 164.65 C 144.93 164.01 143.91 163.98 143.26 164.60 Z M 142.55 165.28 L 141.82 165.97 C 141.17 166.58 141.14 167.61 141.76 168.26 C 142.38 168.91 143.40 168.94 144.05 168.33 L 144.78 167.64 C 145.43 167.02 145.46 165.99 144.85 165.34 C 144.23 164.69 143.20 164.66 142.55 165.28 Z M 141.83 165.96 L 141.08 166.66 C 140.43 167.28 140.40 168.31 141.01 168.96 C 141.62 169.61 142.65 169.64 143.31 169.03 L 144.05 168.33 C 144.71 167.71 144.74 166.69 144.12 166.03 C 143.51 165.38 142.48 165.35 141.83 165.96 Z M 141.08 166.66 L 140.36 167.34 C 139.71 167.95 139.68 168.98 140.30 169.63 C 140.91 170.29 141.94 170.32 142.59 169.70 L 143.31 169.03 C 143.96 168.41 143.99 167.39 143.38 166.73 C 142.76 166.08 141.73 166.05 141.08 166.66 Z M 140.36 167.34 L 139.67 168.00 C 139.01 168.61 138.98 169.64 139.60 170.29 C 140.21 170.95 141.24 170.98 141.89 170.36 L 142.59 169.70 C 143.24 169.09 143.27 168.06 142.66 167.41 C 142.04 166.75 141.02 166.72 140.36 167.34 Z M 139.67 168.00 L 138.95 168.67 C 138.30 169.29 138.27 170.31 138.88 170.97 C 139.50 171.62 140.53 171.65 141.18 171.03 L 141.89 170.36 C 142.55 169.74 142.58 168.72 141.96 168.06 C 141.35 167.41 140.32 167.38 139.67 168.00 Z M 138.95 168.67 L 138.22 169.36 C 137.57 169.97 137.54 171.00 138.15 171.65 C 138.77 172.31 139.80 172.34 140.45 171.72 L 141.18 171.04 C 141.83 170.42 141.86 169.39 141.25 168.74 C 140.63 168.09 139.60 168.06 138.95 168.67 Z M 138.22 169.36 L 137.48 170.05 C 136.83 170.67 136.80 171.69 137.41 172.35 C 138.03 173.00 139.05 173.03 139.71 172.42 L 140.45 171.72 C 141.10 171.11 141.13 170.08 140.52 169.43 C 139.91 168.77 138.88 168.74 138.22 169.36 Z M 137.48 170.05 L 136.73 170.75 C 136.08 171.36 136.05 172.39 136.66 173.05 C 137.27 173.70 138.30 173.74 138.96 173.12 L 139.71 172.42 C 140.36 171.81 140.40 170.78 139.78 170.12 C 139.17 169.47 138.14 169.44 137.48 170.05 Z M 136.74 170.75 L 135.98 171.45 C 135.32 172.07 135.29 173.09 135.90 173.75 C 136.51 174.41 137.54 174.44 138.20 173.83 L 138.95 173.13 C 139.61 172.51 139.65 171.49 139.03 170.83 C 138.42 170.17 137.39 170.14 136.74 170.75 Z M 135.99 171.45 L 135.24 172.14 C 134.58 172.75 134.54 173.78 135.15 174.44 C 135.76 175.10 136.79 175.14 137.45 174.53 L 138.19 173.83 C 138.85 173.22 138.89 172.20 138.28 171.54 C 137.67 170.88 136.64 170.84 135.99 171.45 Z M 135.24 172.14 L 134.51 172.82 C 133.85 173.42 133.80 174.45 134.41 175.11 C 135.02 175.77 136.05 175.82 136.71 175.21 L 137.44 174.53 C 138.11 173.92 138.15 172.89 137.54 172.23 C 136.93 171.57 135.90 171.53 135.24 172.14 Z M 134.51 172.81 L 133.77 173.49 C 133.11 174.10 133.06 175.13 133.67 175.79 C 134.28 176.45 135.31 176.49 135.97 175.89 L 136.71 175.21 C 137.37 174.60 137.41 173.58 136.80 172.91 C 136.20 172.25 135.17 172.21 134.51 172.81 Z M 133.77 173.49 L 133.03 174.16 C 132.37 174.77 132.32 175.80 132.93 176.46 C 133.54 177.12 134.56 177.17 135.23 176.56 L 135.96 175.89 C 136.63 175.28 136.67 174.25 136.07 173.59 C 135.46 172.93 134.43 172.88 133.77 173.49 Z M 133.03 174.16 L 132.30 174.84 C 131.63 175.44 131.59 176.47 132.19 177.13 C 132.79 177.80 133.82 177.84 134.48 177.24 L 135.22 176.56 C 135.89 175.96 135.93 174.93 135.33 174.27 C 134.73 173.61 133.70 173.56 133.03 174.16 Z M 132.30 174.84 L 131.56 175.51 C 130.89 176.12 130.85 177.14 131.45 177.81 C 132.06 178.47 133.08 178.52 133.75 177.91 L 134.48 177.24 C 135.15 176.63 135.19 175.61 134.59 174.94 C 133.99 174.28 132.96 174.23 132.30 174.84 Z M 131.56 175.51 L 130.82 176.18 C 130.16 176.79 130.11 177.82 130.71 178.48 C 131.32 179.14 132.35 179.19 133.01 178.58 L 133.75 177.91 C 134.41 177.31 134.46 176.28 133.85 175.62 C 133.25 174.95 132.22 174.91 131.56 175.51 Z M 130.82 176.19 L 130.08 176.86 C 129.42 177.46 129.37 178.49 129.98 179.15 C 130.58 179.82 131.61 179.86 132.27 179.26 L 133.01 178.58 C 133.67 177.98 133.72 176.95 133.11 176.29 C 132.51 175.63 131.48 175.58 130.82 176.19 Z M 130.08 176.86 L 129.34 177.54 C 128.68 178.15 128.63 179.18 129.24 179.84 C 129.84 180.50 130.87 180.54 131.53 179.94 L 132.27 179.25 C 132.94 178.65 132.98 177.62 132.37 176.96 C 131.77 176.30 130.74 176.26 130.08 176.86 Z M 129.34 177.54 L 128.60 178.22 C 127.94 178.83 127.89 179.86 128.50 180.52 C 129.11 181.18 130.13 181.22 130.79 180.61 L 131.53 179.93 C 132.19 179.33 132.24 178.30 131.63 177.64 C 131.02 176.98 129.99 176.94 129.34 177.54 Z M 128.59 178.23 L 127.86 178.91 C 127.20 179.52 127.16 180.54 127.77 181.20 C 128.38 181.86 129.40 181.90 130.06 181.29 L 130.80 180.61 C 131.46 180.00 131.50 178.98 130.89 178.32 C 130.28 177.66 129.25 177.62 128.59 178.23 Z M 127.85 178.91 L 127.12 179.59 C 126.46 180.20 126.43 181.23 127.04 181.88 C 127.65 182.54 128.67 182.58 129.33 181.97 L 130.06 181.29 C 130.72 180.68 130.76 179.65 130.15 178.99 C 129.54 178.34 128.51 178.30 127.85 178.91 Z M 127.12 179.59 L 126.39 180.27 C 125.73 180.88 125.70 181.91 126.31 182.57 C 126.92 183.22 127.95 183.26 128.61 182.65 L 129.33 181.97 C 129.99 181.36 130.03 180.33 129.41 179.67 C 128.80 179.02 127.77 178.98 127.12 179.59 Z M 126.39 180.28 L 125.66 180.96 C 125.01 181.57 124.97 182.60 125.59 183.25 C 126.20 183.91 127.23 183.94 127.88 183.33 L 128.61 182.64 C 129.26 182.03 129.30 181.00 128.68 180.35 C 128.07 179.69 127.04 179.66 126.39 180.28 Z M 125.66 180.96 L 124.93 181.64 C 124.28 182.26 124.25 183.29 124.87 183.94 C 125.48 184.59 126.51 184.62 127.16 184.00 L 127.89 183.32 C 128.54 182.71 128.57 181.68 127.95 181.03 C 127.34 180.37 126.31 180.34 125.66 180.96 Z M 124.93 181.65 L 124.18 182.37 C 123.53 182.98 123.50 184.01 124.12 184.66 C 124.73 185.31 125.76 185.34 126.41 184.72 L 127.17 184.00 C 127.82 183.38 127.84 182.36 127.23 181.71 C 126.61 181.06 125.58 181.03 124.93 181.65 Z M 124.17 182.37 L 123.43 183.09 C 122.78 183.70 122.76 184.73 123.38 185.38 C 123.99 186.03 125.02 186.05 125.67 185.43 L 126.42 184.71 C 127.06 184.09 127.08 183.07 126.47 182.42 C 125.85 181.77 124.82 181.75 124.17 182.37 Z M 123.42 183.09 L 122.69 183.80 C 122.04 184.42 122.02 185.45 122.64 186.09 C 123.27 186.74 124.29 186.75 124.94 186.13 L 125.67 185.42 C 126.32 184.80 126.33 183.78 125.71 183.13 C 125.09 182.49 124.07 182.47 123.42 183.09 Z M 122.68 183.81 L 121.96 184.51 C 121.32 185.13 121.31 186.15 121.93 186.80 C 122.55 187.44 123.58 187.45 124.22 186.83 L 124.94 186.13 C 125.58 185.50 125.60 184.48 124.97 183.84 C 124.35 183.20 123.32 183.18 122.68 183.81 Z M 121.96 184.51 L 121.25 185.20 C 120.62 185.83 120.61 186.85 121.23 187.49 C 121.86 188.13 122.88 188.14 123.52 187.51 L 124.22 186.82 C 124.86 186.20 124.87 185.17 124.25 184.54 C 123.62 183.90 122.60 183.89 121.96 184.51 Z M 121.25 185.21 L 120.57 185.88 C 119.93 186.51 119.93 187.53 120.55 188.17 C 121.18 188.80 122.20 188.81 122.84 188.18 L 123.52 187.51 C 124.16 186.88 124.16 185.86 123.54 185.22 C 122.91 184.59 121.89 184.58 121.25 185.21 Z M 120.56 185.89 L 119.88 186.57 C 119.24 187.20 119.24 188.22 119.87 188.86 C 120.50 189.49 121.52 189.49 122.15 188.86 L 122.84 188.17 C 123.47 187.54 123.48 186.52 122.85 185.89 C 122.22 185.26 121.20 185.26 120.56 185.89 Z M 119.87 186.58 L 119.12 187.34 C 118.49 187.97 118.49 188.99 119.13 189.62 C 119.76 190.25 120.78 190.24 121.41 189.61 L 122.16 188.85 C 122.79 188.22 122.78 187.20 122.15 186.57 C 121.52 185.94 120.50 185.95 119.87 186.58 Z M 119.11 187.35 L 118.39 188.08 C 117.77 188.72 117.78 189.74 118.42 190.36 C 119.05 190.98 120.07 190.97 120.70 190.34 L 121.41 189.60 C 122.04 188.97 122.03 187.95 121.39 187.32 C 120.76 186.70 119.73 186.71 119.11 187.35 Z M 118.38 188.09 L 117.69 188.80 C 117.07 189.44 117.09 190.46 117.73 191.08 C 118.37 191.70 119.39 191.68 120.01 191.04 L 120.70 190.33 C 121.32 189.69 121.30 188.67 120.66 188.05 C 120.02 187.43 119.00 187.45 118.38 188.09 Z M 117.69 188.81 L 117.02 189.51 C 116.40 190.16 116.43 191.18 117.07 191.79 C 117.72 192.40 118.74 192.38 119.35 191.74 L 120.02 191.04 C 120.63 190.39 120.61 189.37 119.96 188.76 C 119.32 188.14 118.30 188.17 117.69 188.81 Z M 117.01 189.52 L 116.36 190.21 C 115.75 190.86 115.78 191.88 116.43 192.49 C 117.08 193.10 118.10 193.07 118.71 192.42 L 119.36 191.73 C 119.97 191.08 119.93 190.06 119.29 189.45 C 118.64 188.84 117.62 188.87 117.01 189.52 Z M 116.35 190.22 L 115.70 190.93 C 115.09 191.58 115.13 192.60 115.78 193.21 C 116.43 193.81 117.45 193.77 118.06 193.12 L 118.71 192.41 C 119.32 191.76 119.28 190.74 118.63 190.14 C 117.98 189.53 116.96 189.57 116.35 190.22 Z M 115.69 190.94 L 115.02 191.67 C 114.42 192.33 114.47 193.35 115.12 193.94 C 115.78 194.54 116.79 194.50 117.39 193.84 L 118.06 193.11 C 118.66 192.45 118.61 191.44 117.96 190.84 C 117.30 190.24 116.29 190.29 115.69 190.94 Z M 115.01 191.69 L 114.35 192.42 C 113.76 193.08 113.81 194.09 114.47 194.69 C 115.13 195.28 116.14 195.23 116.74 194.57 L 117.40 193.83 C 117.99 193.17 117.94 192.16 117.28 191.57 C 116.62 190.97 115.61 191.03 115.01 191.69 Z M 114.35 192.43 L 113.69 193.18 C 113.10 193.84 113.16 194.85 113.82 195.44 C 114.49 196.02 115.50 195.96 116.08 195.30 L 116.74 194.56 C 117.33 193.89 117.27 192.88 116.61 192.30 C 115.94 191.71 114.93 191.77 114.35 192.43 Z M 113.68 193.19 L 113.02 193.95 C 112.44 194.61 112.51 195.62 113.17 196.20 C 113.84 196.78 114.85 196.71 115.43 196.05 L 116.09 195.29 C 116.67 194.62 116.60 193.61 115.93 193.03 C 115.27 192.45 114.26 192.52 113.68 193.19 Z M 113.01 193.96 L 112.35 194.73 C 111.78 195.40 111.85 196.40 112.52 196.98 C 113.19 197.55 114.20 197.48 114.77 196.81 L 115.43 196.04 C 116.01 195.37 115.93 194.36 115.26 193.79 C 114.59 193.21 113.59 193.29 113.01 193.96 Z M 112.35 194.74 L 111.70 195.50 C 111.13 196.17 111.21 197.18 111.88 197.75 C 112.56 198.31 113.56 198.23 114.13 197.56 L 114.78 196.80 C 115.34 196.13 115.26 195.12 114.59 194.55 C 113.92 193.98 112.92 194.07 112.35 194.74 Z M 111.70 195.51 L 111.05 196.28 C 110.48 196.96 110.57 197.96 111.24 198.52 C 111.92 199.09 112.92 199.00 113.48 198.33 L 114.13 197.55 C 114.70 196.88 114.61 195.88 113.94 195.31 C 113.26 194.75 112.26 194.84 111.70 195.51 Z M 111.04 196.29 L 110.40 197.07 C 109.84 197.74 109.93 198.75 110.60 199.31 C 111.28 199.87 112.28 199.77 112.84 199.10 L 113.49 198.32 C 114.05 197.65 113.96 196.64 113.28 196.08 C 112.61 195.52 111.60 195.61 111.04 196.29 Z M 110.39 197.07 L 109.76 197.85 C 109.20 198.53 109.29 199.53 109.97 200.08 C 110.65 200.64 111.65 200.54 112.21 199.87 L 112.84 199.09 C 113.40 198.42 113.30 197.42 112.63 196.86 C 111.95 196.30 110.95 196.40 110.39 197.07 Z M 109.75 197.85 L 109.13 198.62 C 108.57 199.30 108.67 200.29 109.35 200.85 C 110.03 201.40 111.03 201.30 111.58 200.63 L 112.21 199.86 C 112.76 199.19 112.66 198.19 111.98 197.63 C 111.31 197.08 110.31 197.18 109.75 197.85 Z M 109.13 198.62 L 108.48 199.42 C 107.93 200.10 108.03 201.10 108.71 201.65 C 109.39 202.20 110.38 202.10 110.94 201.42 L 111.58 200.62 C 112.14 199.94 112.03 198.95 111.36 198.39 C 110.68 197.84 109.68 197.94 109.13 198.62 Z M 108.48 199.43 L 107.83 200.23 C 107.28 200.91 107.39 201.90 108.06 202.45 C 108.74 203.00 109.74 202.90 110.29 202.22 L 110.94 201.41 C 111.49 200.73 111.38 199.74 110.70 199.19 C 110.02 198.64 109.03 198.75 108.48 199.43 Z M 107.83 200.24 L 107.20 201.02 C 106.65 201.70 106.76 202.69 107.44 203.24 C 108.12 203.78 109.12 203.67 109.66 202.99 L 110.29 202.21 C 110.84 201.53 110.73 200.54 110.05 199.99 C 109.37 199.44 108.37 199.55 107.83 200.24 Z M 107.20 201.03 L 106.59 201.79 C 106.05 202.48 106.16 203.47 106.84 204.01 C 107.52 204.55 108.52 204.43 109.06 203.75 L 109.67 202.98 C 110.21 202.30 110.09 201.31 109.41 200.77 C 108.73 200.23 107.74 200.34 107.20 201.03 Z M 106.58 201.80 L 105.99 202.56 C 105.45 203.25 105.57 204.23 106.26 204.77 C 106.94 205.31 107.93 205.19 108.47 204.50 L 109.06 203.74 C 109.60 203.06 109.48 202.07 108.79 201.53 C 108.11 201.00 107.12 201.12 106.58 201.80 Z M 105.99 202.57 L 105.38 203.36 C 104.85 204.04 104.97 205.03 105.66 205.56 C 106.35 206.09 107.33 205.96 107.87 205.28 L 108.47 204.49 C 109.00 203.80 108.88 202.82 108.19 202.29 C 107.50 201.76 106.52 201.88 105.99 202.57 Z M 105.37 203.36 L 104.76 204.16 C 104.24 204.85 104.37 205.84 105.06 206.36 C 105.75 206.89 106.73 206.76 107.26 206.07 L 107.87 205.27 C 108.40 204.58 108.26 203.60 107.57 203.07 C 106.89 202.54 105.90 202.68 105.37 203.36 Z M 104.76 204.17 L 104.16 204.96 C 103.63 205.65 103.77 206.64 104.46 207.16 C 105.15 207.68 106.13 207.55 106.65 206.86 L 107.26 206.07 C 107.78 205.38 107.65 204.39 106.96 203.87 C 106.27 203.34 105.29 203.48 104.76 204.17 Z M 104.16 204.96 L 103.56 205.75 C 103.03 206.44 103.16 207.42 103.85 207.95 C 104.54 208.47 105.52 208.34 106.05 207.65 L 106.65 206.86 C 107.18 206.18 107.04 205.19 106.36 204.67 C 105.67 204.14 104.69 204.27 104.16 204.96 Z M 103.56 205.75 L 102.96 206.53 C 102.43 207.21 102.56 208.20 103.24 208.73 C 103.93 209.25 104.91 209.13 105.44 208.44 L 106.04 207.66 C 106.57 206.97 106.44 205.99 105.76 205.46 C 105.07 204.93 104.09 205.06 103.56 205.75 Z M 102.97 206.52 L 102.35 207.30 C 101.82 207.98 101.94 208.97 102.62 209.50 C 103.30 210.03 104.28 209.91 104.81 209.24 L 105.43 208.45 C 105.96 207.77 105.84 206.79 105.16 206.26 C 104.48 205.72 103.50 205.84 102.97 206.52 Z M 102.36 207.29 L 101.74 208.07 C 101.20 208.75 101.31 209.73 101.98 210.27 C 102.66 210.81 103.64 210.70 104.18 210.02 L 104.80 209.25 C 105.34 208.57 105.23 207.59 104.56 207.05 C 103.89 206.51 102.90 206.62 102.36 207.29 Z M 101.75 208.06 L 101.12 208.83 C 100.57 209.50 100.67 210.49 101.34 211.03 C 102.01 211.58 102.99 211.48 103.54 210.81 L 104.17 210.04 C 104.72 209.37 104.62 208.38 103.95 207.84 C 103.28 207.29 102.29 207.39 101.75 208.06 Z M 101.13 208.82 L 100.49 209.59 C 99.94 210.26 100.03 211.24 100.69 211.79 C 101.35 212.35 102.34 212.26 102.89 211.59 L 103.53 210.82 C 104.08 210.16 103.99 209.17 103.33 208.62 C 102.66 208.07 101.68 208.16 101.13 208.82 Z M 100.50 209.58 L 99.85 210.35 C 99.29 211.01 99.37 212.00 100.03 212.55 C 100.68 213.11 101.67 213.03 102.23 212.37 L 102.88 211.60 C 103.44 210.95 103.36 209.96 102.70 209.40 C 102.04 208.84 101.05 208.93 100.50 209.58 Z M 99.85 210.34 L 99.20 211.11 C 98.63 211.76 98.71 212.74 99.36 213.31 C 100.01 213.87 101.00 213.80 101.56 213.14 L 102.22 212.38 C 102.78 211.73 102.71 210.74 102.06 210.18 C 101.40 209.62 100.42 209.69 99.85 210.34 Z M 99.20 211.10 L 98.54 211.86 C 97.97 212.51 98.04 213.49 98.69 214.06 C 99.34 214.63 100.33 214.56 100.89 213.91 L 101.55 213.15 C 102.12 212.50 102.05 211.52 101.40 210.95 C 100.75 210.38 99.77 210.45 99.20 211.10 Z M 98.54 211.86 L 97.88 212.61 C 97.31 213.26 97.38 214.24 98.03 214.81 C 98.68 215.38 99.66 215.32 100.23 214.67 L 100.89 213.91 C 101.46 213.26 101.39 212.28 100.74 211.71 C 100.10 211.14 99.11 211.21 98.54 211.86 Z M 97.88 212.61 L 97.23 213.35 C 96.66 214.00 96.73 214.99 97.38 215.56 C 98.03 216.12 99.01 216.06 99.58 215.41 L 100.23 214.67 C 100.80 214.02 100.73 213.03 100.08 212.46 C 99.44 211.90 98.45 211.96 97.88 212.61 Z M 97.23 213.36 L 96.58 214.10 C 96.01 214.75 96.08 215.74 96.74 216.30 C 97.39 216.87 98.37 216.80 98.94 216.15 L 99.58 215.41 C 100.15 214.75 100.08 213.77 99.43 213.20 C 98.78 212.64 97.79 212.71 97.23 213.36 Z M 96.58 214.11 L 95.94 214.85 C 95.37 215.50 95.45 216.49 96.10 217.05 C 96.75 217.62 97.74 217.54 98.30 216.89 L 98.94 216.15 C 99.50 215.49 99.43 214.51 98.78 213.94 C 98.13 213.38 97.14 213.45 96.58 214.11 Z M 95.93 214.85 L 95.29 215.60 C 94.73 216.25 94.80 217.24 95.46 217.80 C 96.11 218.36 97.10 218.29 97.66 217.64 L 98.30 216.89 C 98.86 216.23 98.79 215.25 98.14 214.69 C 97.48 214.12 96.50 214.20 95.93 214.85 Z M 95.29 215.60 L 94.64 216.36 C 94.07 217.01 94.14 217.99 94.80 218.56 C 95.45 219.12 96.44 219.05 97.00 218.40 L 97.66 217.64 C 98.22 216.99 98.15 216.00 97.50 215.44 C 96.84 214.87 95.86 214.94 95.29 215.60 Z M 94.64 216.35 L 93.96 217.13 C 93.40 217.78 93.46 218.76 94.11 219.33 C 94.76 219.90 95.75 219.83 96.32 219.18 L 96.99 218.40 C 97.56 217.75 97.49 216.77 96.84 216.20 C 96.19 215.63 95.21 215.70 94.64 216.35 Z M 93.97 217.12 L 93.33 217.85 C 92.76 218.49 92.82 219.48 93.47 220.05 C 94.12 220.62 95.10 220.56 95.67 219.91 L 96.31 219.19 C 96.88 218.54 96.82 217.55 96.17 216.98 C 95.53 216.41 94.54 216.48 93.97 217.12 Z M 93.34 217.84 L 92.67 218.58 C 92.10 219.23 92.16 220.21 92.80 220.79 C 93.44 221.36 94.43 221.30 95.01 220.66 L 95.67 219.92 C 96.24 219.27 96.18 218.29 95.54 217.71 C 94.90 217.14 93.91 217.20 93.34 217.84 Z M 92.68 218.58 L 92.00 219.33 C 91.43 219.97 91.48 220.96 92.12 221.53 C 92.76 222.11 93.75 222.06 94.32 221.42 L 95.00 220.67 C 95.58 220.03 95.53 219.04 94.88 218.46 C 94.24 217.88 93.26 217.94 92.68 218.58 Z M 92.01 219.32 L 91.32 220.07 C 90.74 220.71 90.79 221.70 91.43 222.28 C 92.07 222.86 93.05 222.81 93.63 222.18 L 94.32 221.42 C 94.90 220.79 94.85 219.80 94.21 219.22 C 93.58 218.64 92.59 218.68 92.01 219.32 Z M 91.33 220.07 L 90.64 220.81 C 90.06 221.45 90.10 222.44 90.74 223.02 C 91.37 223.60 92.36 223.56 92.94 222.93 L 93.63 222.18 C 94.21 221.55 94.17 220.56 93.54 219.98 C 92.90 219.39 91.91 219.43 91.33 220.07 Z M 90.65 220.81 L 89.95 221.56 C 89.36 222.19 89.40 223.18 90.03 223.77 C 90.66 224.35 91.65 224.32 92.24 223.69 L 92.94 222.94 C 93.52 222.30 93.49 221.32 92.86 220.73 C 92.22 220.14 91.24 220.18 90.65 220.81 Z M 89.96 221.55 L 89.26 222.29 C 88.67 222.92 88.70 223.91 89.33 224.50 C 89.96 225.09 90.94 225.06 91.54 224.43 L 92.23 223.69 C 92.82 223.07 92.79 222.08 92.16 221.49 C 91.54 220.90 90.55 220.93 89.96 221.55 Z M 89.27 222.28 L 88.58 223.01 C 87.98 223.63 88.01 224.62 88.63 225.22 C 89.26 225.81 90.25 225.79 90.84 225.16 L 91.53 224.44 C 92.12 223.81 92.10 222.82 91.47 222.23 C 90.85 221.64 89.86 221.66 89.27 222.28 Z M 88.58 223.00 L 87.90 223.71 C 87.30 224.33 87.32 225.32 87.94 225.92 C 88.56 226.52 89.55 226.50 90.15 225.88 L 90.83 225.17 C 91.43 224.55 91.41 223.56 90.79 222.96 C 90.17 222.36 89.18 222.38 88.58 223.00 Z M 87.91 223.71 L 87.23 224.41 C 86.62 225.03 86.64 226.01 87.26 226.61 C 87.88 227.22 88.86 227.20 89.46 226.58 L 90.14 225.88 C 90.75 225.27 90.73 224.28 90.11 223.68 C 89.49 223.08 88.51 223.09 87.91 223.71 Z M 87.23 224.40 L 86.50 225.15 C 85.90 225.76 85.90 226.75 86.52 227.35 C 87.13 227.96 88.12 227.95 88.73 227.33 L 89.46 226.59 C 90.06 225.97 90.05 224.99 89.44 224.38 C 88.82 223.78 87.84 223.79 87.23 224.40 Z M 86.50 225.14 L 85.78 225.87 C 85.17 226.48 85.18 227.47 85.79 228.08 C 86.40 228.69 87.39 228.68 88.00 228.07 L 88.72 227.34 C 89.33 226.73 89.32 225.74 88.71 225.13 C 88.10 224.52 87.11 224.53 86.50 225.14 Z M 85.79 225.87 L 85.08 226.58 C 84.47 227.19 84.47 228.18 85.08 228.78 C 85.69 229.39 86.68 229.39 87.29 228.78 L 88.00 228.07 C 88.61 227.46 88.60 226.47 87.99 225.86 C 87.38 225.26 86.39 225.26 85.79 225.87 Z M 85.08 226.57 L 84.40 227.26 C 83.79 227.87 83.79 228.85 84.40 229.46 C 85.01 230.07 85.99 230.08 86.60 229.47 L 87.29 228.78 C 87.90 228.17 87.90 227.19 87.29 226.58 C 86.68 225.97 85.69 225.96 85.08 226.57 Z M 84.40 227.26 L 83.70 227.95 C 83.09 228.56 83.09 229.55 83.70 230.16 C 84.31 230.77 85.29 230.77 85.91 230.16 L 86.60 229.47 C 87.21 228.86 87.22 227.87 86.61 227.26 C 86.00 226.65 85.01 226.65 84.40 227.26 Z M 83.70 227.95 L 82.97 228.67 C 82.36 229.28 82.36 230.27 82.97 230.88 C 83.58 231.49 84.57 231.50 85.18 230.89 L 85.90 230.16 C 86.52 229.55 86.52 228.57 85.91 227.96 C 85.30 227.34 84.31 227.34 83.70 227.95 Z M 82.97 228.67 L 82.27 229.37 C 81.66 229.98 81.66 230.97 82.27 231.58 C 82.88 232.19 83.87 232.19 84.48 231.59 L 85.18 230.89 C 85.79 230.28 85.79 229.29 85.18 228.68 C 84.57 228.07 83.59 228.07 82.97 228.67 Z M 82.27 229.37 L 81.58 230.06 C 80.97 230.67 80.97 231.66 81.58 232.27 C 82.19 232.88 83.18 232.88 83.79 232.27 L 84.48 231.59 C 85.09 230.98 85.09 229.99 84.48 229.38 C 83.87 228.77 82.88 228.77 82.27 229.37 Z M 81.58 230.06 L 80.91 230.73 C 80.30 231.34 80.30 232.33 80.91 232.94 C 81.52 233.55 82.51 233.55 83.12 232.94 L 83.79 232.27 C 84.40 231.66 84.40 230.67 83.79 230.06 C 83.18 229.45 82.19 229.45 81.58 230.06 Z M 80.91 230.73 L 80.26 231.39 C 79.65 232.00 79.65 232.98 80.26 233.59 C 80.87 234.20 81.86 234.20 82.47 233.59 L 83.12 232.94 C 83.73 232.33 83.73 231.34 83.12 230.73 C 82.51 230.12 81.52 230.12 80.91 230.73 Z M 80.26 231.39 L 79.57 232.07 C 78.96 232.68 78.96 233.67 79.57 234.28 C 80.18 234.89 81.17 234.89 81.78 234.28 L 82.47 233.59 C 83.08 232.98 83.08 232.00 82.47 231.39 C 81.86 230.78 80.87 230.78 80.26 231.39 Z M 79.57 232.07 L 78.83 232.81 C 78.22 233.42 78.22 234.41 78.83 235.02 C 79.44 235.63 80.43 235.63 81.04 235.02 L 81.78 234.28 C 82.39 233.67 82.39 232.68 81.78 232.07 C 81.17 231.46 80.18 231.46 79.57 232.07 Z M 78.83 232.81 L 78.07 233.58 C 77.46 234.19 77.46 235.18 78.07 235.78 C 78.68 236.39 79.67 236.39 80.28 235.78 L 81.04 235.02 C 81.65 234.41 81.65 233.42 81.04 232.81 C 80.43 232.20 79.44 232.20 78.83 232.81 Z M 78.07 233.58 L 77.39 234.25 C 76.78 234.86 76.78 235.85 77.39 236.46 C 78.00 237.07 78.99 237.07 79.60 236.46 L 80.28 235.78 C 80.89 235.17 80.89 234.19 80.28 233.58 C 79.67 232.97 78.68 232.97 78.07 233.58 Z M 77.39 234.25 L 76.68 234.96 C 76.07 235.57 76.07 236.56 76.68 237.17 C 77.29 237.78 78.28 237.78 78.89 237.17 L 79.60 236.46 C 80.21 235.85 80.21 234.86 79.60 234.25 C 78.99 233.64 78.00 233.64 77.39 234.25 Z M 76.68 234.96 L 75.96 235.69 C 75.35 236.30 75.35 237.28 75.96 237.89 C 76.57 238.50 77.56 238.50 78.17 237.90 L 78.89 237.17 C 79.50 236.56 79.50 235.57 78.89 234.96 C 78.28 234.35 77.29 234.35 76.68 234.96 Z M 75.96 235.69 L 75.23 236.41 C 74.62 237.02 74.62 238.01 75.23 238.62 C 75.84 239.23 76.83 239.23 77.44 238.62 L 78.17 237.90 C 78.78 237.29 78.78 236.30 78.17 235.69 C 77.56 235.08 76.57 235.08 75.96 235.69 Z M 75.23 236.41 L 74.52 237.13 C 73.91 237.73 73.91 238.72 74.52 239.33 C 75.13 239.94 76.12 239.94 76.73 239.33 L 77.44 238.62 C 78.05 238.01 78.05 237.02 77.44 236.41 C 76.83 235.80 75.84 235.80 75.23 236.41 Z M 74.52 237.13 L 73.76 237.88 C 73.15 238.49 73.15 239.48 73.76 240.09 C 74.37 240.70 75.36 240.70 75.97 240.09 L 76.73 239.33 C 77.34 238.72 77.34 237.74 76.73 237.13 C 76.12 236.52 75.13 236.52 74.52 237.13 Z M 73.76 237.88 L 73.03 238.62 C 72.42 239.23 72.42 240.22 73.03 240.83 C 73.64 241.43 74.63 241.43 75.24 240.82 L 75.97 240.09 C 76.58 239.48 76.58 238.49 75.97 237.88 C 75.36 237.27 74.37 237.27 73.76 237.88 Z M 73.02 238.62 L 72.32 239.33 C 71.71 239.94 71.72 240.93 72.33 241.54 C 72.94 242.14 73.93 242.14 74.54 241.53 L 75.24 240.82 C 75.85 240.21 75.84 239.22 75.23 238.61 C 74.62 238.01 73.63 238.01 73.02 238.62 Z M 72.31 239.33 L 71.64 240.02 C 71.04 240.63 71.04 241.62 71.66 242.23 C 72.27 242.83 73.26 242.82 73.87 242.21 L 74.54 241.52 C 75.15 240.91 75.14 239.92 74.52 239.32 C 73.91 238.71 72.92 238.72 72.31 239.33 Z M 71.63 240.03 L 70.99 240.69 C 70.39 241.31 70.40 242.30 71.02 242.90 C 71.64 243.50 72.63 243.49 73.23 242.87 L 73.87 242.20 C 74.48 241.58 74.46 240.59 73.84 239.99 C 73.22 239.39 72.23 239.41 71.63 240.03 Z M 70.97 240.71 L 70.27 241.45 C 69.67 242.07 69.70 243.06 70.32 243.66 C 70.95 244.25 71.94 244.22 72.53 243.60 L 73.24 242.86 C 73.83 242.23 73.81 241.24 73.18 240.65 C 72.56 240.06 71.57 240.08 70.97 240.71 Z M 70.25 241.46 L 69.57 242.20 C 68.99 242.83 69.03 243.82 69.66 244.41 C 70.29 244.99 71.28 244.95 71.87 244.32 L 72.55 243.58 C 73.13 242.95 73.09 241.96 72.46 241.38 C 71.83 240.79 70.84 240.83 70.25 241.46 Z M 69.55 242.22 L 68.89 242.96 C 68.32 243.61 68.38 244.59 69.02 245.17 C 69.67 245.74 70.65 245.68 71.23 245.04 L 71.88 244.30 C 72.46 243.66 72.40 242.67 71.76 242.10 C 71.11 241.52 70.13 241.58 69.55 242.22 Z M 68.87 242.99 L 68.23 243.74 C 67.67 244.39 67.75 245.38 68.41 245.94 C 69.07 246.50 70.05 246.42 70.61 245.76 L 71.25 245.01 C 71.81 244.36 71.73 243.37 71.07 242.81 C 70.42 242.25 69.43 242.33 68.87 242.99 Z M 68.21 243.77 L 67.59 244.54 C 67.04 245.21 67.15 246.19 67.82 246.73 C 68.49 247.28 69.47 247.17 70.01 246.50 L 70.64 245.73 C 71.18 245.06 71.07 244.08 70.40 243.54 C 69.73 242.99 68.75 243.10 68.21 243.77 Z M 67.56 244.56 L 66.95 245.35 C 66.43 246.03 66.55 247.02 67.23 247.54 C 67.91 248.07 68.89 247.95 69.42 247.27 L 70.03 246.48 C 70.56 245.80 70.44 244.81 69.75 244.29 C 69.07 243.76 68.09 243.88 67.56 244.56 Z M 66.94 245.37 L 66.34 246.17 C 65.82 246.86 65.96 247.84 66.65 248.36 C 67.34 248.88 68.32 248.74 68.84 248.05 L 69.44 247.25 C 69.95 246.56 69.81 245.58 69.12 245.06 C 68.44 244.54 67.46 244.68 66.94 245.37 Z M 66.33 246.18 L 65.73 246.99 C 65.22 247.69 65.37 248.66 66.07 249.18 C 66.76 249.69 67.74 249.54 68.25 248.84 L 68.84 248.04 C 69.35 247.34 69.21 246.36 68.51 245.85 C 67.82 245.34 66.84 245.49 66.33 246.18 Z M 65.73 247.00 L 65.44 247.39 C 64.93 248.09 65.08 249.06 65.78 249.57 C 66.48 250.08 67.45 249.93 67.96 249.23 L 68.25 248.84 C 68.76 248.15 68.61 247.17 67.91 246.66 C 67.22 246.15 66.24 246.30 65.73 247.00 Z"
      fill="black"
      fill-rule="nonzero" /></svg>