<svg xmlns="http://www.w3.org/2000/svg" width="300" height="300" viewBox="0 0 300 300">
<path d="M 135.62 77.36 L 136.43 77.93 C 137.13 78.42 138.11 78.26 138.60 77.55 C 139.10 76.85 138.93 75.87 138.23 75.38 L 137.42 74.81 C 136.71 74.31 135.74 74.48 135.24 75.18 C 134.75 75.89 134.91 76.86 135.62 77.36 Z M 136.39 77.90 L 137.19 78.50 C 137.88 79.01 138.86 78.87 139.38 78.18 C 139.89 77.49 139.75 76.51 139.06 75.99 L 138.26 75.40 C 137.57 74.88 136.59 75.03 136.08 75.72 C 135.56 76.41 135.70 77.39 136.39 77.90 Z M 137.13 78.45 L 137.91 79.09 C 138.57 79.64 139.56 79.55 140.11 78.88 C 140.66 78.22 140.56 77.24 139.90 76.69 L 139.12 76.04 C 138.46 75.49 137.47 75.59 136.92 76.25 C 136.37 76.92 136.47 77.90 137.13 78.45 Z M 137.83 79.02 L 138.48 79.64 C 139.11 80.23 140.09 80.21 140.69 79.58 C 141.28 78.96 141.26 77.97 140.63 77.38 L 139.98 76.76 C 139.35 76.16 138.36 76.19 137.77 76.81 C 137.18 77.44 137.20 78.43 137.83 79.02 Z M 138.40 79.56 L 139.02 80.24 C 139.60 80.87 140.58 80.92 141.22 80.34 C 141.86 79.76 141.91 78.77 141.33 78.13 L 140.71 77.46 C 140.13 76.82 139.14 76.77 138.51 77.35 C 137.87 77.94 137.82 78.92 138.40 79.56 Z M 138.95 80.15 L 139.57 80.94 C 140.10 81.62 141.09 81.74 141.76 81.20 C 142.44 80.67 142.56 79.69 142.02 79.01 L 141.40 78.22 C 140.86 77.54 139.88 77.42 139.20 77.96 C 138.53 78.49 138.41 79.47 138.95 80.15 Z M 139.51 80.87 L 140.17 81.81 C 140.66 82.52 141.63 82.70 142.34 82.21 C 143.05 81.71 143.23 80.74 142.74 80.03 L 142.08 79.09 C 141.59 78.38 140.61 78.20 139.91 78.69 C 139.20 79.19 139.02 80.16 139.51 80.87 Z M 140.13 81.76 L 140.64 82.56 C 141.10 83.29 142.07 83.51 142.79 83.05 C 143.52 82.59 143.74 81.62 143.28 80.89 L 142.77 80.09 C 142.31 79.36 141.35 79.14 140.62 79.60 C 139.89 80.06 139.67 81.03 140.13 81.76 Z M 140.62 82.53 L 141.12 83.37 C 141.56 84.11 142.52 84.35 143.26 83.91 C 144.00 83.47 144.24 82.51 143.80 81.77 L 143.30 80.93 C 142.86 80.19 141.90 79.95 141.16 80.39 C 140.42 80.83 140.18 81.78 140.62 82.53 Z M 141.10 83.34 L 141.60 84.23 C 142.03 84.98 142.98 85.24 143.73 84.81 C 144.48 84.39 144.75 83.44 144.32 82.69 L 143.82 81.80 C 143.39 81.05 142.44 80.78 141.69 81.21 C 140.94 81.63 140.68 82.59 141.10 83.34 Z M 141.59 84.20 L 142.09 85.11 C 142.50 85.87 143.44 86.15 144.20 85.74 C 144.96 85.33 145.24 84.38 144.83 83.63 L 144.34 82.71 C 143.92 81.95 142.98 81.67 142.22 82.08 C 141.46 82.49 141.18 83.44 141.59 84.20 Z M 142.07 85.09 L 142.55 86.01 C 142.95 86.77 143.89 87.07 144.66 86.67 C 145.42 86.27 145.72 85.33 145.32 84.57 L 144.84 83.65 C 144.45 82.89 143.50 82.59 142.74 82.99 C 141.97 83.38 141.68 84.33 142.07 85.09 Z M 142.54 85.98 L 143.00 86.91 C 143.38 87.68 144.32 87.99 145.09 87.61 C 145.87 87.22 146.18 86.29 145.79 85.52 L 145.33 84.59 C 144.95 83.82 144.01 83.51 143.24 83.89 C 142.47 84.28 142.15 85.21 142.54 85.98 Z M 142.99 86.88 L 143.44 87.84 C 143.81 88.62 144.74 88.95 145.52 88.58 C 146.30 88.21 146.63 87.28 146.26 86.50 L 145.81 85.54 C 145.44 84.76 144.51 84.43 143.73 84.80 C 142.95 85.17 142.62 86.10 142.99 86.88 Z M 143.43 87.81 L 143.85 88.74 C 144.20 89.52 145.13 89.87 145.91 89.52 C 146.70 89.16 147.05 88.24 146.69 87.45 L 146.28 86.53 C 145.92 85.74 145.00 85.39 144.21 85.75 C 143.42 86.10 143.07 87.03 143.43 87.81 Z M 143.83 88.71 L 144.22 89.61 C 144.56 90.40 145.48 90.77 146.27 90.43 C 147.06 90.09 147.43 89.17 147.09 88.38 L 146.70 87.48 C 146.36 86.69 145.45 86.32 144.65 86.66 C 143.86 87.00 143.49 87.92 143.83 88.71 Z M 144.21 89.58 L 144.57 90.47 C 144.90 91.27 145.81 91.65 146.61 91.33 C 147.40 91.00 147.79 90.09 147.46 89.29 L 147.10 88.40 C 146.77 87.61 145.86 87.22 145.07 87.55 C 144.27 87.87 143.88 88.79 144.21 89.58 Z M 144.56 90.45 L 144.91 91.35 C 145.23 92.15 146.13 92.55 146.94 92.23 C 147.74 91.92 148.14 91.01 147.82 90.21 L 147.47 89.31 C 147.16 88.51 146.25 88.11 145.45 88.43 C 144.65 88.74 144.25 89.64 144.56 90.45 Z M 144.91 91.33 L 145.26 92.28 C 145.57 93.08 146.47 93.49 147.27 93.19 C 148.08 92.89 148.49 91.98 148.18 91.18 L 147.83 90.23 C 147.53 89.42 146.63 89.01 145.82 89.32 C 145.01 89.62 144.60 90.52 144.91 91.33 Z M 145.26 92.26 L 145.60 93.21 C 145.90 94.02 146.79 94.44 147.60 94.14 C 148.41 93.84 148.83 92.95 148.54 92.14 L 148.19 91.19 C 147.89 90.38 147.00 89.96 146.19 90.26 C 145.38 90.56 144.96 91.45 145.26 92.26 Z M 145.60 93.20 L 145.93 94.14 C 146.22 94.95 147.12 95.37 147.93 95.08 C 148.74 94.80 149.16 93.90 148.87 93.09 L 148.54 92.15 C 148.25 91.34 147.36 90.91 146.54 91.20 C 145.73 91.49 145.31 92.39 145.60 93.20 Z M 145.93 94.13 L 146.26 95.06 C 146.55 95.88 147.44 96.30 148.25 96.02 C 149.06 95.73 149.49 94.84 149.20 94.03 L 148.88 93.10 C 148.59 92.28 147.70 91.86 146.89 92.14 C 146.07 92.43 145.65 93.32 145.93 94.13 Z M 146.26 95.06 L 146.57 95.95 C 146.86 96.76 147.75 97.19 148.56 96.90 C 149.37 96.61 149.80 95.72 149.52 94.91 L 149.21 94.03 C 148.92 93.21 148.03 92.79 147.21 93.07 C 146.40 93.36 145.97 94.25 146.26 95.06 Z M 146.57 95.94 L 146.87 96.80 C 147.16 97.62 148.05 98.04 148.86 97.76 C 149.68 97.47 150.10 96.58 149.82 95.77 L 149.52 94.91 C 149.23 94.10 148.34 93.67 147.52 93.95 C 146.71 94.24 146.28 95.13 146.57 95.94 Z M 146.87 96.80 L 147.18 97.69 C 147.47 98.51 148.36 98.94 149.17 98.65 C 149.99 98.37 150.41 97.47 150.13 96.66 L 149.82 95.77 C 149.53 94.96 148.64 94.53 147.83 94.81 C 147.01 95.10 146.59 95.99 146.87 96.80 Z M 147.18 97.69 L 147.51 98.64 C 147.80 99.46 148.68 99.89 149.50 99.60 C 150.31 99.32 150.74 98.43 150.46 97.62 L 150.13 96.66 C 149.85 95.85 148.96 95.42 148.14 95.70 C 147.33 95.98 146.90 96.87 147.18 97.69 Z M 147.51 98.64 L 147.87 99.68 C 148.15 100.50 149.04 100.93 149.85 100.65 C 150.67 100.37 151.10 99.48 150.82 98.67 L 150.46 97.62 C 150.18 96.81 149.29 96.37 148.48 96.65 C 147.66 96.93 147.23 97.82 147.51 98.64 Z M 147.87 99.68 L 148.21 100.67 C 148.49 101.49 149.37 101.92 150.19 101.65 C 151.00 101.37 151.44 100.48 151.16 99.67 L 150.82 98.67 C 150.55 97.86 149.66 97.42 148.84 97.70 C 148.03 97.98 147.59 98.86 147.87 99.68 Z M 148.21 100.67 L 148.52 101.60 C 148.79 102.41 149.68 102.85 150.50 102.58 C 151.31 102.30 151.75 101.42 151.48 100.60 L 151.16 99.67 C 150.89 98.85 150.00 98.41 149.19 98.69 C 148.37 98.96 147.93 99.85 148.21 100.67 Z M 148.52 101.59 L 148.84 102.56 C 149.11 103.38 149.99 103.82 150.81 103.55 C 151.63 103.28 152.07 102.39 151.80 101.57 L 151.48 100.60 C 151.21 99.79 150.32 99.34 149.51 99.62 C 148.69 99.89 148.24 100.77 148.52 101.59 Z M 148.84 102.55 L 149.16 103.54 C 149.42 104.36 150.31 104.81 151.13 104.54 C 151.95 104.27 152.39 103.39 152.13 102.57 L 151.80 101.58 C 151.54 100.76 150.66 100.31 149.84 100.58 C 149.02 100.85 148.57 101.73 148.84 102.55 Z M 149.15 103.53 L 149.47 104.52 C 149.73 105.34 150.61 105.79 151.43 105.53 C 152.25 105.27 152.70 104.40 152.44 103.57 L 152.13 102.58 C 151.87 101.76 150.99 101.31 150.17 101.57 C 149.35 101.83 148.89 102.71 149.15 103.53 Z M 149.46 104.50 L 149.76 105.47 C 150.01 106.29 150.88 106.76 151.71 106.51 C 152.53 106.25 153.00 105.38 152.74 104.56 L 152.45 103.59 C 152.20 102.76 151.32 102.30 150.50 102.55 C 149.67 102.81 149.21 103.68 149.46 104.50 Z M 149.75 105.45 L 150.02 106.37 C 150.26 107.20 151.13 107.68 151.96 107.44 C 152.79 107.19 153.26 106.33 153.02 105.50 L 152.75 104.58 C 152.51 103.75 151.64 103.27 150.81 103.51 C 149.99 103.76 149.51 104.62 149.75 105.45 Z M 150.01 106.34 L 150.31 107.43 C 150.53 108.26 151.39 108.75 152.22 108.53 C 153.05 108.31 153.55 107.45 153.32 106.62 L 153.03 105.53 C 152.80 104.70 151.95 104.20 151.11 104.43 C 150.28 104.65 149.79 105.51 150.01 106.34 Z M 150.30 107.39 L 150.55 108.44 C 150.75 109.28 151.60 109.79 152.44 109.59 C 153.27 109.38 153.79 108.54 153.58 107.70 L 153.33 106.65 C 153.13 105.82 152.28 105.30 151.44 105.51 C 150.61 105.71 150.09 106.55 150.30 107.39 Z M 150.54 108.40 L 150.75 109.37 C 150.94 110.21 151.77 110.74 152.61 110.56 C 153.45 110.38 153.99 109.54 153.80 108.70 L 153.59 107.74 C 153.41 106.89 152.58 106.36 151.74 106.54 C 150.89 106.73 150.36 107.56 150.54 108.40 Z M 150.75 109.34 L 150.93 110.25 C 151.10 111.09 151.92 111.64 152.76 111.47 C 153.61 111.31 154.16 110.49 153.99 109.64 L 153.81 108.73 C 153.64 107.88 152.82 107.33 151.97 107.50 C 151.13 107.67 150.58 108.49 150.75 109.34 Z M 150.92 110.23 L 151.09 111.11 C 151.25 111.96 152.06 112.51 152.91 112.36 C 153.76 112.20 154.32 111.38 154.16 110.54 L 153.99 109.66 C 153.84 108.81 153.02 108.25 152.17 108.41 C 151.33 108.57 150.77 109.38 150.92 110.23 Z M 151.09 111.10 L 151.12 111.31 C 151.28 112.16 152.09 112.72 152.94 112.56 C 153.79 112.41 154.35 111.59 154.20 110.74 L 154.16 110.54 C 154.00 109.69 153.19 109.13 152.34 109.29 C 151.49 109.44 150.93 110.26 151.09 111.10 Z"
      fill="black"
      fill-rule="nonzero" /><path d="M 59.04 124.08 L 59.78 124.76 C 60.41 125.35 61.40 125.31 61.98 124.68 C 62.57 124.05 62.54 123.06 61.90 122.48 L 61.17 121.79 C 60.54 121.21 59.55 121.24 58.96 121.87 C 58.38 122.50 58.41 123.49 59.04 124.08 Z M 59.85 124.83 L 60.63 125.46 C 61.29 126.00 62.28 125.90 62.82 125.23 C 63.37 124.56 63.27 123.58 62.60 123.04 L 61.83 122.41 C 61.16 121.86 60.17 121.97 59.63 122.63 C 59.09 123.30 59.19 124.29 59.85 124.83 Z M 60.80 125.58 L 61.64 126.10 C 62.38 126.55 63.34 126.32 63.79 125.58 C 64.24 124.85 64.01 123.88 63.27 123.43 L 62.43 122.92 C 61.69 122.47 60.73 122.70 60.28 123.43 C 59.83 124.17 60.06 125.13 60.80 125.58 Z M 61.90 126.22 L 62.79 126.56 C 63.59 126.87 64.50 126.46 64.80 125.66 C 65.11 124.85 64.70 123.95 63.90 123.64 L 63.01 123.31 C 62.21 123.00 61.31 123.40 61.00 124.21 C 60.69 125.02 61.10 125.92 61.90 126.22 Z M 63.03 126.63 L 63.95 126.82 C 64.80 126.99 65.62 126.45 65.79 125.60 C 65.97 124.76 65.42 123.93 64.58 123.76 L 63.65 123.57 C 62.81 123.40 61.99 123.95 61.81 124.79 C 61.64 125.64 62.19 126.46 63.03 126.63 Z M 64.11 126.84 L 65.11 126.94 C 65.97 127.02 66.73 126.40 66.82 125.54 C 66.90 124.68 66.27 123.92 65.41 123.83 L 64.42 123.74 C 63.56 123.65 62.79 124.28 62.71 125.14 C 62.63 126.00 63.26 126.76 64.11 126.84 Z M 65.20 126.95 L 66.27 126.99 C 67.13 127.02 67.85 126.35 67.88 125.49 C 67.92 124.62 67.24 123.90 66.38 123.87 L 65.32 123.83 C 64.46 123.79 63.73 124.47 63.70 125.33 C 63.67 126.19 64.34 126.92 65.20 126.95 Z M 66.30 126.99 L 67.36 127.00 C 68.22 127.02 68.93 126.33 68.94 125.47 C 68.95 124.60 68.27 123.89 67.40 123.88 L 66.35 123.87 C 65.48 123.85 64.78 124.54 64.76 125.40 C 64.75 126.27 65.44 126.98 66.30 126.99 Z M 67.37 127.00 L 68.40 127.01 C 69.26 127.02 69.97 126.33 69.97 125.46 C 69.98 124.60 69.29 123.90 68.43 123.89 L 67.39 123.88 C 66.53 123.88 65.83 124.57 65.82 125.43 C 65.81 126.29 66.51 127.00 67.37 127.00 Z M 68.41 127.01 L 69.43 127.02 C 70.29 127.02 71.00 126.32 71.00 125.46 C 71.00 124.60 70.31 123.90 69.45 123.89 L 68.42 123.89 C 67.56 123.89 66.86 124.58 66.85 125.45 C 66.85 126.31 67.55 127.01 68.41 127.01 Z M 69.44 127.02 L 70.42 127.02 C 71.29 127.02 71.99 126.32 71.99 125.46 C 71.99 124.60 71.29 123.90 70.43 123.90 L 69.44 123.89 C 68.58 123.89 67.88 124.59 67.88 125.45 C 67.88 126.32 68.57 127.02 69.44 127.02 Z M 70.43 127.02 L 71.39 127.02 C 72.25 127.02 72.95 126.32 72.95 125.46 C 72.95 124.60 72.25 123.90 71.39 123.90 L 70.43 123.90 C 69.56 123.90 68.87 124.59 68.87 125.46 C 68.87 126.32 69.56 127.02 70.43 127.02 Z M 71.39 127.02 L 72.44 127.02 C 73.30 127.02 74.00 126.32 74.00 125.46 C 74.00 124.60 73.30 123.90 72.44 123.90 L 71.39 123.90 C 70.53 123.90 69.83 124.60 69.83 125.46 C 69.83 126.32 70.53 127.02 71.39 127.02 Z M 72.44 127.02 L 73.42 127.02 C 74.28 127.02 74.98 126.32 74.98 125.46 C 74.98 124.60 74.28 123.90 73.42 123.90 L 72.44 123.90 C 71.58 123.90 70.88 124.60 70.88 125.46 C 70.88 126.32 71.58 127.02 72.44 127.02 Z M 73.42 127.02 L 74.38 127.02 C 75.24 127.02 75.94 126.32 75.94 125.46 C 75.94 124.60 75.24 123.90 74.38 123.90 L 73.42 123.90 C 72.56 123.90 71.86 124.60 71.86 125.46 C 71.86 126.32 72.56 127.02 73.42 127.02 Z M 74.38 127.02 L 75.30 127.02 C 76.16 127.02 76.86 126.32 76.86 125.46 C 76.86 124.59 76.16 123.90 75.30 123.90 L 74.38 123.90 C 73.51 123.90 72.81 124.60 72.81 125.46 C 72.81 126.32 73.51 127.02 74.38 127.02 Z M 75.30 127.02 L 76.24 127.02 C 77.11 127.01 77.80 126.31 77.80 125.45 C 77.80 124.59 77.10 123.89 76.24 123.89 L 75.29 123.90 C 74.43 123.90 73.73 124.60 73.73 125.46 C 73.74 126.32 74.44 127.02 75.30 127.02 Z M 76.25 127.02 L 77.26 127.01 C 78.13 127.01 78.82 126.30 78.82 125.44 C 78.81 124.58 78.11 123.88 77.25 123.89 L 76.23 123.89 C 75.37 123.90 74.68 124.60 74.68 125.46 C 74.69 126.33 75.39 127.02 76.25 127.02 Z M 77.27 127.01 L 78.37 127.00 C 79.23 126.99 79.92 126.28 79.91 125.42 C 79.90 124.56 79.20 123.87 78.33 123.88 L 77.24 123.89 C 76.38 123.90 75.69 124.60 75.69 125.47 C 75.70 126.33 76.41 127.02 77.27 127.01 Z M 78.38 127.00 L 79.33 126.98 C 80.19 126.97 80.88 126.26 80.86 125.40 C 80.85 124.54 80.14 123.85 79.28 123.86 L 78.33 123.88 C 77.46 123.89 76.78 124.60 76.79 125.46 C 76.80 126.33 77.51 127.01 78.38 127.00 Z M 79.34 126.98 L 80.31 126.96 C 81.17 126.94 81.86 126.23 81.84 125.37 C 81.82 124.50 81.10 123.82 80.24 123.84 L 79.27 123.86 C 78.41 123.88 77.72 124.60 77.74 125.46 C 77.76 126.32 78.48 127.00 79.34 126.98 Z M 80.32 126.96 L 81.33 126.93 C 82.19 126.91 82.87 126.19 82.84 125.33 C 82.82 124.46 82.10 123.79 81.24 123.81 L 80.23 123.84 C 79.37 123.87 78.69 124.58 78.71 125.45 C 78.74 126.31 79.46 126.99 80.32 126.96 Z M 81.34 126.93 L 82.37 126.89 C 83.24 126.86 83.91 126.14 83.88 125.28 C 83.85 124.41 83.12 123.74 82.26 123.77 L 81.23 123.81 C 80.36 123.84 79.69 124.57 79.72 125.43 C 79.76 126.29 80.48 126.96 81.34 126.93 Z M 82.39 126.89 L 83.44 126.84 C 84.30 126.80 84.96 126.07 84.92 125.21 C 84.88 124.35 84.15 123.69 83.29 123.73 L 82.24 123.77 C 81.38 123.81 80.72 124.54 80.76 125.41 C 80.80 126.27 81.53 126.93 82.39 126.89 Z M 83.45 126.84 L 84.45 126.79 C 85.31 126.74 85.97 126.00 85.92 125.14 C 85.87 124.28 85.13 123.62 84.27 123.67 L 83.28 123.73 C 82.42 123.78 81.76 124.51 81.81 125.37 C 81.85 126.23 82.59 126.89 83.45 126.84 Z M 84.46 126.79 L 85.45 126.72 C 86.32 126.66 86.97 125.92 86.91 125.06 C 86.85 124.20 86.11 123.55 85.25 123.61 L 84.26 123.67 C 83.40 123.73 82.74 124.47 82.80 125.33 C 82.86 126.19 83.60 126.84 84.46 126.79 Z M 85.47 126.72 L 86.46 126.65 C 87.32 126.58 87.97 125.83 87.91 124.98 C 87.84 124.12 87.09 123.47 86.23 123.53 L 85.24 123.61 C 84.38 123.67 83.73 124.42 83.80 125.28 C 83.86 126.14 84.61 126.78 85.47 126.72 Z M 86.47 126.65 L 87.47 126.57 C 88.33 126.50 88.97 125.74 88.90 124.88 C 88.83 124.02 88.08 123.38 87.22 123.45 L 86.22 123.53 C 85.36 123.60 84.72 124.36 84.79 125.22 C 84.86 126.08 85.61 126.72 86.47 126.65 Z M 87.48 126.56 L 88.49 126.48 C 89.34 126.40 89.98 125.65 89.91 124.79 C 89.83 123.93 89.07 123.29 88.22 123.37 L 87.21 123.45 C 86.35 123.53 85.72 124.28 85.79 125.14 C 85.87 126.00 86.62 126.64 87.48 126.56 Z M 88.49 126.48 L 89.48 126.39 C 90.34 126.31 90.98 125.55 90.90 124.69 C 90.82 123.83 90.06 123.20 89.20 123.28 L 88.21 123.37 C 87.35 123.45 86.72 124.21 86.80 125.06 C 86.87 125.92 87.63 126.56 88.49 126.48 Z M 89.49 126.39 L 90.48 126.29 C 91.34 126.21 91.97 125.45 91.89 124.60 C 91.81 123.74 91.05 123.11 90.19 123.19 L 89.20 123.28 C 88.34 123.36 87.71 124.12 87.79 124.98 C 87.87 125.84 88.63 126.47 89.49 126.39 Z M 90.48 126.29 L 91.48 126.20 C 92.33 126.12 92.97 125.36 92.89 124.50 C 92.81 123.65 92.05 123.01 91.19 123.09 L 90.19 123.19 C 89.33 123.26 88.70 124.03 88.78 124.88 C 88.86 125.74 89.62 126.37 90.48 126.29 Z M 91.47 126.20 L 92.47 126.11 C 93.33 126.04 93.96 125.28 93.88 124.42 C 93.81 123.56 93.05 122.93 92.19 123.00 L 91.19 123.09 C 90.33 123.17 89.70 123.93 89.78 124.79 C 89.85 125.65 90.61 126.28 91.47 126.20 Z M 92.46 126.11 L 93.46 126.03 C 94.32 125.96 94.96 125.21 94.89 124.35 C 94.81 123.49 94.06 122.85 93.20 122.92 L 92.20 123.00 C 91.34 123.07 90.70 123.83 90.77 124.69 C 90.85 125.55 91.60 126.19 92.46 126.11 Z M 93.45 126.03 L 94.45 125.96 C 95.31 125.89 95.95 125.14 95.89 124.28 C 95.83 123.42 95.08 122.78 94.22 122.84 L 93.21 122.92 C 92.35 122.98 91.71 123.73 91.77 124.59 C 91.84 125.45 92.59 126.10 93.45 126.03 Z M 94.44 125.96 L 95.44 125.89 C 96.30 125.83 96.95 125.09 96.90 124.23 C 96.84 123.37 96.10 122.72 95.24 122.78 L 94.23 122.84 C 93.37 122.90 92.72 123.64 92.78 124.50 C 92.83 125.36 93.58 126.02 94.44 125.96 Z M 95.43 125.89 L 96.44 125.83 C 97.30 125.78 97.95 125.04 97.90 124.18 C 97.85 123.32 97.11 122.66 96.25 122.71 L 95.24 122.78 C 94.38 122.83 93.73 123.57 93.78 124.43 C 93.83 125.29 94.57 125.94 95.43 125.89 Z M 96.43 125.83 L 97.43 125.77 C 98.29 125.72 98.95 124.99 98.90 124.12 C 98.85 123.26 98.11 122.61 97.25 122.66 L 96.25 122.71 C 95.39 122.76 94.73 123.50 94.78 124.36 C 94.83 125.22 95.57 125.88 96.43 125.83 Z M 97.43 125.77 L 98.42 125.72 C 99.28 125.67 99.94 124.93 99.89 124.07 C 99.84 123.20 99.10 122.55 98.24 122.60 L 97.25 122.66 C 96.39 122.71 95.73 123.45 95.78 124.31 C 95.83 125.17 96.57 125.82 97.43 125.77 Z M 98.43 125.72 L 99.43 125.65 C 100.29 125.60 100.94 124.86 100.89 124.00 C 100.83 123.14 100.09 122.48 99.23 122.54 L 98.24 122.60 C 97.38 122.65 96.72 123.39 96.77 124.25 C 96.83 125.11 97.57 125.77 98.43 125.72 Z M 99.44 125.65 L 100.47 125.58 C 101.33 125.52 101.98 124.78 101.92 123.92 C 101.86 123.06 101.12 122.41 100.26 122.47 L 99.22 122.54 C 98.36 122.60 97.71 123.34 97.77 124.20 C 97.83 125.06 98.57 125.71 99.44 125.65 Z M 100.48 125.58 L 101.49 125.51 C 102.35 125.45 103.00 124.70 102.94 123.84 C 102.88 122.98 102.13 122.33 101.27 122.39 L 100.25 122.47 C 99.39 122.53 98.74 123.28 98.81 124.14 C 98.87 125.00 99.62 125.64 100.48 125.58 Z M 101.50 125.51 L 102.49 125.43 C 103.35 125.37 104.00 124.62 103.93 123.76 C 103.87 122.90 103.12 122.26 102.26 122.32 L 101.27 122.39 C 100.41 122.46 99.76 123.21 99.82 124.07 C 99.89 124.93 100.64 125.57 101.50 125.51 Z M 102.49 125.43 L 103.46 125.36 C 104.32 125.30 104.97 124.55 104.91 123.69 C 104.84 122.83 104.09 122.18 103.23 122.25 L 102.26 122.32 C 101.40 122.38 100.76 123.13 100.82 123.99 C 100.88 124.85 101.63 125.50 102.49 125.43 Z M 103.46 125.36 L 104.42 125.29 C 105.28 125.23 105.93 124.48 105.86 123.62 C 105.80 122.76 105.05 122.12 104.19 122.18 L 103.24 122.25 C 102.38 122.31 101.73 123.06 101.79 123.92 C 101.85 124.78 102.60 125.42 103.46 125.36 Z M 104.41 125.29 L 105.39 125.22 C 106.25 125.17 106.90 124.42 106.84 123.56 C 106.78 122.70 106.04 122.05 105.18 122.11 L 104.20 122.18 C 103.34 122.24 102.69 122.98 102.75 123.84 C 102.81 124.70 103.55 125.35 104.41 125.29 Z M 105.39 125.23 L 106.36 125.16 C 107.22 125.10 107.87 124.36 107.81 123.50 C 107.75 122.64 107.01 121.99 106.15 122.04 L 105.18 122.11 C 104.32 122.17 103.67 122.91 103.73 123.77 C 103.78 124.63 104.53 125.28 105.39 125.23 Z M 106.36 125.16 L 107.35 125.09 C 108.21 125.03 108.86 124.29 108.80 123.43 C 108.74 122.57 107.99 121.92 107.13 121.98 L 106.15 122.04 C 105.29 122.10 104.64 122.85 104.70 123.71 C 104.76 124.57 105.50 125.22 106.36 125.16 Z M 107.35 125.09 L 108.38 125.02 C 109.24 124.95 109.89 124.20 109.83 123.34 C 109.76 122.48 109.01 121.84 108.15 121.90 L 107.13 121.98 C 106.27 122.04 105.62 122.79 105.68 123.65 C 105.75 124.51 106.49 125.15 107.35 125.09 Z M 108.39 125.01 L 109.36 124.94 C 110.22 124.87 110.86 124.12 110.79 123.26 C 110.72 122.40 109.97 121.76 109.11 121.83 L 108.15 121.90 C 107.29 121.97 106.64 122.72 106.71 123.58 C 106.78 124.44 107.53 125.08 108.39 125.01 Z M 109.36 124.94 L 110.30 124.86 C 111.16 124.79 111.80 124.04 111.73 123.18 C 111.65 122.32 110.90 121.68 110.04 121.75 L 109.11 121.83 C 108.25 121.90 107.61 122.65 107.68 123.51 C 107.75 124.37 108.50 125.01 109.36 124.94 Z M 110.30 124.86 L 111.28 124.78 C 112.14 124.71 112.77 123.95 112.70 123.09 C 112.63 122.23 111.87 121.59 111.01 121.67 L 110.04 121.75 C 109.18 121.82 108.54 122.58 108.61 123.44 C 108.69 124.30 109.44 124.93 110.30 124.86 Z M 111.28 124.78 L 112.29 124.69 C 113.15 124.62 113.79 123.86 113.71 123.01 C 113.64 122.15 112.89 121.51 112.03 121.58 L 111.01 121.67 C 110.16 121.74 109.52 122.49 109.59 123.35 C 109.66 124.21 110.42 124.85 111.28 124.78 Z M 112.29 124.69 L 113.33 124.61 C 114.19 124.54 114.83 123.78 114.76 122.92 C 114.69 122.06 113.93 121.42 113.07 121.49 L 112.03 121.58 C 111.17 121.65 110.53 122.41 110.60 123.27 C 110.67 124.12 111.43 124.76 112.29 124.69 Z M 113.32 124.61 L 114.39 124.52 C 115.25 124.45 115.89 123.70 115.83 122.84 C 115.76 121.98 115.01 121.34 114.15 121.41 L 113.08 121.49 C 112.22 121.56 111.58 122.31 111.64 123.17 C 111.71 124.03 112.46 124.67 113.32 124.61 Z M 114.39 124.52 L 115.36 124.45 C 116.22 124.39 116.86 123.64 116.80 122.78 C 116.73 121.92 115.98 121.27 115.12 121.34 L 114.15 121.41 C 113.29 121.47 112.65 122.22 112.71 123.08 C 112.78 123.94 113.53 124.59 114.39 124.52 Z M 115.35 124.45 L 116.33 124.38 C 117.19 124.32 117.83 123.57 117.77 122.71 C 117.71 121.85 116.97 121.21 116.11 121.27 L 115.13 121.34 C 114.27 121.40 113.62 122.14 113.68 123.00 C 113.74 123.86 114.49 124.51 115.35 124.45 Z M 116.32 124.38 L 117.31 124.32 C 118.17 124.26 118.82 123.51 118.76 122.65 C 118.71 121.79 117.96 121.14 117.10 121.20 L 116.11 121.27 C 115.25 121.32 114.60 122.07 114.66 122.93 C 114.72 123.79 115.46 124.44 116.32 124.38 Z M 117.31 124.32 L 118.31 124.25 C 119.17 124.20 119.82 123.45 119.77 122.59 C 119.71 121.73 118.97 121.08 118.11 121.13 L 117.10 121.20 C 116.24 121.25 115.59 122.00 115.65 122.86 C 115.70 123.72 116.44 124.37 117.31 124.32 Z M 118.30 124.25 L 119.32 124.19 C 120.18 124.14 120.83 123.39 120.78 122.53 C 120.73 121.67 119.98 121.02 119.12 121.07 L 118.11 121.13 C 117.25 121.19 116.59 121.93 116.65 122.79 C 116.70 123.65 117.44 124.31 118.30 124.25 Z M 119.31 124.19 L 120.34 124.13 C 121.20 124.08 121.86 123.34 121.81 122.47 C 121.75 121.61 121.01 120.96 120.15 121.01 L 119.13 121.07 C 118.26 121.12 117.61 121.86 117.66 122.72 C 117.71 123.59 118.45 124.24 119.31 124.19 Z M 120.34 124.13 L 121.35 124.07 C 122.21 124.02 122.87 123.28 122.82 122.42 C 122.77 121.55 122.03 120.90 121.16 120.95 L 120.15 121.01 C 119.29 121.06 118.63 121.80 118.68 122.66 C 118.73 123.52 119.47 124.18 120.34 124.13 Z M 121.35 124.07 L 122.33 124.01 C 123.20 123.96 123.86 123.22 123.81 122.36 C 123.76 121.50 123.02 120.84 122.15 120.89 L 121.16 120.95 C 120.30 121.00 119.64 121.74 119.69 122.60 C 119.74 123.46 120.48 124.12 121.35 124.07 Z M 122.33 124.01 L 123.33 123.96 C 124.19 123.91 124.85 123.17 124.80 122.30 C 124.75 121.44 124.01 120.78 123.15 120.83 L 122.15 120.89 C 121.29 120.94 120.63 121.68 120.68 122.54 C 120.73 123.40 121.47 124.06 122.33 124.01 Z M 123.33 123.96 L 124.33 123.90 C 125.19 123.85 125.85 123.11 125.80 122.25 C 125.75 121.38 125.01 120.72 124.15 120.77 L 123.15 120.83 C 122.29 120.88 121.63 121.62 121.68 122.48 C 121.73 123.35 122.47 124.01 123.33 123.96 Z M 124.33 123.90 L 125.33 123.84 C 126.19 123.79 126.85 123.05 126.80 122.19 C 126.76 121.33 126.02 120.67 125.15 120.72 L 124.15 120.77 C 123.29 120.82 122.63 121.56 122.68 122.43 C 122.73 123.29 123.46 123.95 124.33 123.90 Z M 125.33 123.84 L 126.34 123.79 C 127.20 123.74 127.86 123.00 127.81 122.13 C 127.76 121.27 127.02 120.61 126.16 120.66 L 125.15 120.72 C 124.29 120.77 123.63 121.51 123.68 122.37 C 123.73 123.23 124.47 123.89 125.33 123.84 Z M 126.34 123.79 L 127.34 123.73 C 128.20 123.68 128.86 122.94 128.81 122.08 C 128.76 121.21 128.02 120.55 127.16 120.60 L 126.16 120.66 C 125.29 120.71 124.63 121.45 124.68 122.31 C 124.73 123.18 125.47 123.84 126.34 123.79 Z M 127.34 123.73 L 128.35 123.67 C 129.21 123.62 129.87 122.88 129.82 122.02 C 129.77 121.15 129.03 120.49 128.17 120.54 L 127.16 120.60 C 126.30 120.65 125.64 121.39 125.69 122.26 C 125.74 123.12 126.48 123.78 127.34 123.73 Z M 128.35 123.67 L 129.36 123.61 C 130.22 123.56 130.88 122.82 130.83 121.96 C 130.78 121.09 130.04 120.43 129.18 120.48 L 128.17 120.54 C 127.30 120.59 126.64 121.33 126.69 122.20 C 126.74 123.06 127.49 123.72 128.35 123.67 Z M 129.36 123.61 L 130.36 123.56 C 131.23 123.51 131.89 122.76 131.84 121.90 C 131.79 121.03 131.04 120.37 130.18 120.42 L 129.18 120.48 C 128.31 120.53 127.65 121.27 127.70 122.14 C 127.75 123.00 128.49 123.66 129.36 123.61 Z M 130.36 123.56 L 131.36 123.50 C 132.23 123.45 132.89 122.71 132.84 121.84 C 132.79 120.98 132.05 120.32 131.18 120.37 L 130.18 120.42 C 129.32 120.47 128.65 121.21 128.70 122.08 C 128.75 122.94 129.50 123.61 130.36 123.56 Z M 131.36 123.50 L 132.35 123.44 C 133.22 123.40 133.88 122.65 133.83 121.79 C 133.79 120.92 133.04 120.26 132.18 120.31 L 131.18 120.37 C 130.32 120.41 129.66 121.15 129.70 122.02 C 129.75 122.89 130.49 123.55 131.36 123.50 Z M 132.35 123.44 L 133.34 123.39 C 134.21 123.34 134.87 122.60 134.83 121.74 C 134.78 120.87 134.04 120.21 133.17 120.26 L 132.18 120.31 C 131.32 120.36 130.65 121.10 130.70 121.96 C 130.75 122.83 131.49 123.49 132.35 123.44 Z M 133.34 123.39 L 134.32 123.34 C 135.19 123.30 135.86 122.56 135.81 121.69 C 135.77 120.83 135.03 120.16 134.16 120.20 L 133.18 120.25 C 132.31 120.30 131.64 121.04 131.69 121.90 C 131.73 122.77 132.47 123.44 133.34 123.39 Z M 134.32 123.34 L 135.36 123.29 C 136.23 123.25 136.89 122.51 136.85 121.65 C 136.81 120.78 136.07 120.11 135.21 120.15 L 134.17 120.20 C 133.30 120.25 132.63 120.98 132.67 121.85 C 132.72 122.72 133.45 123.38 134.32 123.34 Z M 135.35 123.29 L 136.39 123.24 C 137.26 123.21 137.93 122.47 137.89 121.60 C 137.85 120.74 137.11 120.07 136.25 120.10 L 135.21 120.15 C 134.34 120.19 133.67 120.93 133.71 121.79 C 133.75 122.66 134.49 123.33 135.35 123.29 Z M 136.38 123.25 L 137.41 123.20 C 138.27 123.16 138.95 122.43 138.91 121.56 C 138.87 120.70 138.14 120.02 137.27 120.06 L 136.25 120.10 C 135.38 120.14 134.71 120.87 134.75 121.74 C 134.78 122.61 135.52 123.28 136.38 123.25 Z M 137.40 123.20 L 138.40 123.16 C 139.27 123.13 139.94 122.40 139.91 121.53 C 139.88 120.66 139.14 119.99 138.28 120.02 L 137.28 120.06 C 136.41 120.10 135.73 120.83 135.77 121.69 C 135.80 122.56 136.53 123.24 137.40 123.20 Z M 138.40 123.16 L 139.38 123.13 C 140.24 123.09 140.92 122.36 140.89 121.50 C 140.86 120.63 140.13 119.95 139.26 119.98 L 138.28 120.02 C 137.41 120.05 136.74 120.78 136.77 121.65 C 136.80 122.52 137.53 123.19 138.40 123.16 Z M 139.37 123.13 L 140.32 123.09 C 141.19 123.06 141.87 122.33 141.84 121.47 C 141.81 120.60 141.08 119.92 140.21 119.95 L 139.26 119.98 C 138.39 120.01 137.72 120.74 137.75 121.61 C 137.78 122.48 138.50 123.16 139.37 123.13 Z M 140.32 123.09 L 141.33 123.06 C 142.19 123.03 142.87 122.31 142.85 121.44 C 142.82 120.57 142.09 119.89 141.22 119.92 L 140.22 119.95 C 139.35 119.98 138.67 120.70 138.70 121.57 C 138.72 122.44 139.45 123.12 140.32 123.09 Z M 141.32 123.06 L 142.36 123.03 C 143.23 123.00 143.91 122.28 143.88 121.41 C 143.86 120.54 143.13 119.86 142.26 119.89 L 141.23 119.92 C 140.36 119.94 139.68 120.67 139.70 121.54 C 139.73 122.40 140.46 123.09 141.32 123.06 Z M 142.36 123.03 L 143.36 123.00 C 144.23 122.97 144.91 122.25 144.89 121.38 C 144.86 120.51 144.14 119.83 143.27 119.86 L 142.27 119.89 C 141.40 119.91 140.72 120.64 140.74 121.50 C 140.77 122.37 141.49 123.05 142.36 123.03 Z M 143.37 123.00 L 144.35 122.97 C 145.21 122.94 145.90 122.21 145.87 121.35 C 145.84 120.48 145.12 119.80 144.25 119.83 L 143.27 119.86 C 142.40 119.88 141.72 120.61 141.75 121.48 C 141.77 122.34 142.50 123.02 143.37 123.00 Z M 144.35 122.97 L 145.32 122.93 C 146.18 122.90 146.86 122.18 146.83 121.31 C 146.80 120.44 146.08 119.76 145.21 119.79 L 144.25 119.83 C 143.38 119.86 142.70 120.58 142.73 121.45 C 142.76 122.32 143.48 122.99 144.35 122.97 Z M 145.32 122.93 L 146.29 122.90 C 147.16 122.86 147.83 122.13 147.80 121.27 C 147.77 120.40 147.04 119.72 146.17 119.76 L 145.20 119.79 C 144.34 119.83 143.66 120.56 143.70 121.42 C 143.73 122.29 144.46 122.96 145.32 122.93 Z M 146.30 122.89 L 147.30 122.85 C 148.17 122.81 148.84 122.08 148.80 121.22 C 148.77 120.35 148.03 119.68 147.17 119.72 L 146.17 119.76 C 145.30 119.80 144.63 120.53 144.67 121.39 C 144.70 122.26 145.43 122.93 146.30 122.89 Z M 147.31 122.85 L 148.31 122.80 C 149.17 122.76 149.84 122.03 149.80 121.17 C 149.76 120.30 149.03 119.63 148.16 119.67 L 147.16 119.72 C 146.30 119.76 145.63 120.49 145.67 121.36 C 145.71 122.22 146.44 122.89 147.31 122.85 Z M 148.31 122.80 L 149.31 122.76 C 150.18 122.72 150.84 121.98 150.80 121.12 C 150.76 120.25 150.03 119.58 149.16 119.62 L 148.16 119.67 C 147.30 119.71 146.63 120.45 146.67 121.31 C 146.71 122.18 147.44 122.84 148.31 122.80 Z M 149.31 122.76 L 150.31 122.71 C 151.17 122.67 151.84 121.94 151.80 121.07 C 151.76 120.21 151.03 119.54 150.16 119.58 L 149.17 119.62 C 148.30 119.66 147.63 120.40 147.67 121.26 C 147.71 122.13 148.44 122.80 149.31 122.76 Z M 150.30 122.71 L 151.29 122.67 C 152.16 122.63 152.83 121.90 152.79 121.04 C 152.76 120.17 152.03 119.50 151.16 119.54 L 150.17 119.58 C 149.30 119.62 148.63 120.35 148.67 121.21 C 148.71 122.08 149.44 122.75 150.30 122.71 Z M 151.29 122.67 L 152.28 122.63 C 153.14 122.60 153.82 121.87 153.79 121.01 C 153.75 120.14 153.03 119.47 152.16 119.50 L 151.17 119.54 C 150.30 119.57 149.63 120.30 149.66 121.16 C 149.69 122.03 150.42 122.70 151.29 122.67 Z M 152.27 122.63 L 153.27 122.60 C 154.13 122.57 154.81 121.84 154.78 120.98 C 154.75 120.12 154.02 119.44 153.16 119.47 L 152.17 119.50 C 151.30 119.53 150.63 120.25 150.66 121.12 C 150.69 121.98 151.41 122.66 152.27 122.63 Z M 153.26 122.60 L 154.26 122.56 C 155.12 122.54 155.80 121.81 155.77 120.95 C 155.74 120.09 155.02 119.41 154.16 119.44 L 153.16 119.47 C 152.30 119.50 151.62 120.22 151.65 121.08 C 151.68 121.95 152.40 122.62 153.26 122.60 Z M 154.26 122.56 L 155.26 122.53 C 156.12 122.50 156.80 121.78 156.77 120.92 C 156.74 120.06 156.02 119.38 155.16 119.41 L 154.16 119.44 C 153.30 119.47 152.62 120.19 152.65 121.05 C 152.67 121.91 153.40 122.59 154.26 122.56 Z M 155.26 122.53 L 156.28 122.49 C 157.14 122.47 157.81 121.74 157.78 120.88 C 157.75 120.02 157.03 119.34 156.17 119.37 L 155.16 119.41 C 154.29 119.44 153.62 120.16 153.65 121.02 C 153.68 121.88 154.40 122.56 155.26 122.53 Z M 156.28 122.49 L 157.25 122.46 C 158.11 122.42 158.78 121.70 158.75 120.84 C 158.72 119.98 157.99 119.30 157.13 119.34 L 156.16 119.37 C 155.30 119.41 154.63 120.13 154.66 120.99 C 154.70 121.85 155.42 122.53 156.28 122.49 Z M 157.25 122.46 L 158.23 122.42 C 159.09 122.38 159.76 121.65 159.72 120.79 C 159.69 119.93 158.96 119.26 158.10 119.30 L 157.12 119.34 C 156.26 119.37 155.59 120.10 155.63 120.96 C 155.66 121.82 156.39 122.49 157.25 122.46 Z M 158.23 122.42 L 159.22 122.37 C 160.09 122.34 160.75 121.61 160.72 120.75 C 160.68 119.88 159.95 119.22 159.09 119.25 L 158.10 119.30 C 157.23 119.33 156.57 120.06 156.60 120.92 C 156.64 121.79 157.37 122.45 158.23 122.42 Z M 159.23 122.37 L 160.24 122.33 C 161.10 122.29 161.76 121.56 161.73 120.70 C 161.69 119.84 160.96 119.17 160.09 119.21 L 159.09 119.25 C 158.22 119.29 157.56 120.02 157.60 120.88 C 157.64 121.75 158.37 122.41 159.23 122.37 Z M 160.24 122.33 L 161.27 122.28 C 162.13 122.24 162.79 121.51 162.75 120.65 C 162.71 119.79 161.98 119.12 161.12 119.16 L 160.09 119.21 C 159.23 119.25 158.57 119.98 158.61 120.84 C 158.65 121.70 159.38 122.37 160.24 122.33 Z M 161.27 122.28 L 162.28 122.23 C 163.14 122.19 163.81 121.46 163.77 120.60 C 163.73 119.74 162.99 119.07 162.13 119.11 L 161.12 119.16 C 160.26 119.20 159.60 119.93 159.64 120.79 C 159.68 121.65 160.41 122.32 161.27 122.28 Z M 162.28 122.23 L 163.26 122.19 C 164.12 122.15 164.79 121.42 164.75 120.56 C 164.71 119.70 163.98 119.03 163.12 119.07 L 162.13 119.11 C 161.27 119.15 160.61 119.88 160.65 120.75 C 160.69 121.61 161.42 122.27 162.28 122.23 Z M 163.26 122.19 L 164.25 122.14 C 165.11 122.10 165.78 121.38 165.74 120.51 C 165.70 119.65 164.97 118.99 164.11 119.02 L 163.12 119.07 C 162.26 119.11 161.59 119.84 161.63 120.70 C 161.67 121.56 162.40 122.23 163.26 122.19 Z M 164.25 122.14 L 165.25 122.10 C 166.11 122.06 166.78 121.33 166.75 120.47 C 166.71 119.61 165.98 118.94 165.12 118.98 L 164.11 119.02 C 163.25 119.06 162.58 119.79 162.62 120.65 C 162.66 121.51 163.39 122.18 164.25 122.14 Z M 165.25 122.10 L 166.26 122.06 C 167.12 122.02 167.79 121.30 167.76 120.44 C 167.72 119.57 166.99 118.90 166.13 118.94 L 165.12 118.98 C 164.26 119.02 163.59 119.74 163.63 120.60 C 163.66 121.47 164.39 122.14 165.25 122.10 Z M 166.25 122.06 L 167.27 122.02 C 168.13 121.99 168.80 121.26 168.77 120.40 C 168.74 119.54 168.01 118.87 167.15 118.90 L 166.14 118.94 C 165.28 118.97 164.60 119.70 164.64 120.56 C 164.67 121.42 165.39 122.09 166.25 122.06 Z M 167.26 122.02 L 168.28 121.99 C 169.15 121.96 169.82 121.24 169.79 120.37 C 169.76 119.51 169.04 118.84 168.18 118.87 L 167.16 118.90 C 166.29 118.93 165.62 119.65 165.65 120.51 C 165.68 121.38 166.40 122.05 167.26 122.02 Z M 168.28 121.99 L 169.31 121.96 C 170.17 121.93 170.85 121.21 170.82 120.35 C 170.80 119.49 170.08 118.81 169.22 118.84 L 168.18 118.87 C 167.32 118.89 166.65 119.61 166.67 120.47 C 166.70 121.34 167.42 122.01 168.28 121.99 Z M 169.31 121.96 L 170.33 121.93 C 171.19 121.91 171.87 121.19 171.84 120.33 C 171.82 119.46 171.10 118.78 170.24 118.81 L 169.22 118.84 C 168.36 118.86 167.68 119.58 167.70 120.44 C 167.73 121.30 168.44 121.98 169.31 121.96 Z M 170.32 121.93 L 171.33 121.90 C 172.19 121.88 172.87 121.17 172.85 120.30 C 172.83 119.44 172.11 118.76 171.25 118.78 L 170.25 118.81 C 169.38 118.83 168.70 119.55 168.72 120.41 C 168.74 121.27 169.46 121.95 170.32 121.93 Z M 171.33 121.90 L 172.31 121.88 C 173.17 121.86 173.85 121.15 173.83 120.28 C 173.81 119.42 173.10 118.74 172.24 118.76 L 171.25 118.78 C 170.39 118.80 169.71 119.52 169.73 120.38 C 169.75 121.24 170.46 121.92 171.33 121.90 Z M 172.31 121.88 L 173.27 121.86 C 174.13 121.84 174.81 121.12 174.79 120.26 C 174.77 119.40 174.06 118.72 173.20 118.74 L 172.24 118.76 C 171.38 118.78 170.69 119.49 170.71 120.36 C 170.73 121.22 171.45 121.90 172.31 121.88 Z M 173.27 121.86 L 174.28 121.83 C 175.14 121.81 175.83 121.10 175.81 120.24 C 175.78 119.38 175.07 118.69 174.21 118.71 L 173.20 118.74 C 172.33 118.76 171.65 119.47 171.67 120.33 C 171.69 121.20 172.41 121.88 173.27 121.86 Z M 174.28 121.83 L 175.30 121.81 C 176.16 121.79 176.85 121.07 176.83 120.21 C 176.80 119.35 176.09 118.67 175.23 118.69 L 174.21 118.71 C 173.34 118.73 172.66 119.45 172.68 120.31 C 172.70 121.17 173.42 121.86 174.28 121.83 Z M 175.30 121.81 L 176.30 121.78 C 177.16 121.76 177.84 121.05 177.82 120.19 C 177.80 119.32 177.08 118.64 176.22 118.66 L 175.23 118.69 C 174.36 118.71 173.68 119.43 173.70 120.29 C 173.73 121.15 174.44 121.83 175.30 121.81 Z M 176.30 121.78 L 177.28 121.76 C 178.14 121.74 178.82 121.02 178.80 120.16 C 178.78 119.30 178.06 118.62 177.20 118.64 L 176.22 118.66 C 175.36 118.69 174.68 119.40 174.70 120.26 C 174.72 121.13 175.44 121.81 176.30 121.78 Z M 177.28 121.76 L 178.26 121.74 C 179.12 121.71 179.80 121.00 179.78 120.13 C 179.76 119.27 179.04 118.59 178.18 118.61 L 177.20 118.64 C 176.34 118.66 175.66 119.38 175.68 120.24 C 175.70 121.10 176.42 121.78 177.28 121.76 Z M 178.26 121.74 L 179.26 121.71 C 180.12 121.69 180.81 120.97 180.78 120.11 C 180.76 119.25 180.05 118.57 179.18 118.59 L 178.18 118.61 C 177.32 118.64 176.64 119.35 176.66 120.21 C 176.68 121.08 177.40 121.76 178.26 121.74 Z M 179.26 121.71 L 180.29 121.68 C 181.15 121.66 181.83 120.95 181.81 120.08 C 181.79 119.22 181.07 118.54 180.21 118.56 L 179.18 118.59 C 178.32 118.61 177.64 119.33 177.66 120.19 C 177.68 121.05 178.40 121.73 179.26 121.71 Z M 180.29 121.68 L 181.31 121.66 C 182.17 121.64 182.85 120.92 182.83 120.06 C 182.81 119.19 182.09 118.51 181.23 118.54 L 180.21 118.56 C 179.35 118.58 178.67 119.30 178.69 120.16 C 178.71 121.03 179.43 121.71 180.29 121.68 Z M 181.31 121.66 L 182.31 121.63 C 183.17 121.61 183.85 120.89 183.83 120.03 C 183.80 119.17 183.09 118.49 182.22 118.51 L 181.23 118.54 C 180.36 118.56 179.68 119.28 179.71 120.14 C 179.73 121.00 180.45 121.68 181.31 121.66 Z M 182.31 121.63 L 183.28 121.60 C 184.14 121.58 184.82 120.86 184.79 120.00 C 184.77 119.14 184.05 118.46 183.19 118.48 L 182.22 118.51 C 181.36 118.53 180.68 119.25 180.71 120.11 C 180.73 120.98 181.45 121.66 182.31 121.63 Z M 183.28 121.60 L 184.30 121.57 C 185.17 121.54 185.84 120.82 185.82 119.96 C 185.79 119.10 185.07 118.42 184.21 118.45 L 183.18 118.48 C 182.32 118.51 181.64 119.23 181.67 120.09 C 181.70 120.95 182.42 121.63 183.28 121.60 Z M 184.31 121.57 L 185.34 121.54 C 186.20 121.51 186.87 120.78 186.84 119.92 C 186.82 119.06 186.09 118.39 185.23 118.42 L 184.20 118.45 C 183.34 118.48 182.67 119.20 182.70 120.06 C 182.72 120.92 183.45 121.60 184.31 121.57 Z M 185.34 121.54 L 186.33 121.50 C 187.19 121.47 187.86 120.75 187.83 119.89 C 187.80 119.02 187.08 118.35 186.22 118.38 L 185.23 118.42 C 184.37 118.45 183.69 119.17 183.72 120.03 C 183.75 120.89 184.48 121.57 185.34 121.54 Z M 186.33 121.50 L 187.29 121.47 C 188.15 121.44 188.82 120.71 188.79 119.85 C 188.76 118.99 188.04 118.31 187.18 118.35 L 186.21 118.38 C 185.35 118.41 184.68 119.14 184.71 120.00 C 184.74 120.86 185.47 121.53 186.33 121.50 Z M 187.29 121.47 L 188.27 121.43 C 189.13 121.40 189.80 120.68 189.77 119.82 C 189.74 118.95 189.02 118.28 188.16 118.31 L 187.18 118.35 C 186.32 118.38 185.64 119.10 185.67 119.96 C 185.70 120.82 186.43 121.50 187.29 121.47 Z M 188.27 121.43 L 189.28 121.40 C 190.14 121.37 190.82 120.65 190.79 119.79 C 190.76 118.92 190.04 118.25 189.18 118.28 L 188.16 118.31 C 187.30 118.34 186.63 119.06 186.65 119.92 C 186.68 120.78 187.40 121.46 188.27 121.43 Z M 189.27 121.40 L 190.28 121.37 C 191.14 121.34 191.82 120.63 191.79 119.76 C 191.77 118.90 191.05 118.22 190.19 118.25 L 189.18 118.28 C 188.32 118.30 187.64 119.02 187.67 119.88 C 187.69 120.75 188.41 121.42 189.27 121.40 Z M 190.27 121.37 L 191.25 121.35 C 192.12 121.33 192.80 120.61 192.78 119.75 C 192.76 118.89 192.04 118.20 191.18 118.22 L 190.19 118.25 C 189.33 118.27 188.65 118.98 188.67 119.85 C 188.69 120.71 189.41 121.39 190.27 121.37 Z M 191.24 121.35 L 192.25 121.33 C 193.11 121.32 193.80 120.61 193.79 119.74 C 193.77 118.88 193.06 118.19 192.20 118.21 L 191.19 118.22 C 190.33 118.24 189.64 118.95 189.66 119.81 C 189.67 120.67 190.38 121.36 191.24 121.35 Z M 192.24 121.33 L 193.26 121.32 C 194.12 121.31 194.81 120.61 194.81 119.75 C 194.80 118.88 194.09 118.19 193.23 118.20 L 192.21 118.21 C 191.35 118.22 190.66 118.92 190.67 119.78 C 190.67 120.65 191.38 121.34 192.24 121.33 Z M 193.25 121.32 L 194.24 121.32 C 195.10 121.31 195.80 120.61 195.80 119.75 C 195.80 118.89 195.09 118.19 194.23 118.20 L 193.24 118.20 C 192.38 118.20 191.68 118.90 191.68 119.77 C 191.69 120.63 192.39 121.32 193.25 121.32 Z M 194.24 121.32 L 195.21 121.32 C 196.07 121.32 196.77 120.62 196.77 119.76 C 196.77 118.89 196.07 118.19 195.21 118.19 L 194.24 118.20 C 193.37 118.20 192.68 118.90 192.68 119.76 C 192.68 120.62 193.38 121.32 194.24 121.32 Z M 195.21 121.32 L 196.23 121.32 C 197.09 121.32 197.79 120.62 197.79 119.76 C 197.79 118.89 197.09 118.19 196.23 118.19 L 195.21 118.19 C 194.34 118.19 193.65 118.89 193.65 119.76 C 193.65 120.62 194.34 121.32 195.21 121.32 Z M 196.23 121.32 L 197.24 121.32 C 198.10 121.32 198.80 120.62 198.80 119.76 C 198.80 118.89 198.10 118.19 197.24 118.19 L 196.23 118.19 C 195.37 118.19 194.67 118.89 194.67 119.76 C 194.67 120.62 195.37 121.32 196.23 121.32 Z M 197.24 121.32 L 198.22 121.32 C 199.08 121.32 199.78 120.62 199.78 119.76 C 199.78 118.89 199.08 118.19 198.22 118.19 L 197.24 118.19 C 196.37 118.19 195.67 118.89 195.67 119.76 C 195.67 120.62 196.37 121.32 197.24 121.32 Z M 198.22 121.32 L 199.21 121.32 C 200.07 121.32 200.77 120.62 200.77 119.76 C 200.77 118.89 200.07 118.19 199.21 118.19 L 198.22 118.19 C 197.35 118.19 196.66 118.89 196.66 119.76 C 196.66 120.62 197.35 121.32 198.22 121.32 Z M 199.21 121.32 L 200.20 121.32 C 201.07 121.32 201.77 120.62 201.77 119.76 C 201.77 118.89 201.07 118.19 200.20 118.19 L 199.21 118.19 C 198.35 118.19 197.65 118.89 197.65 119.76 C 197.65 120.62 198.35 121.32 199.21 121.32 Z M 200.20 121.32 L 201.20 121.32 C 202.06 121.32 202.76 120.62 202.76 119.76 C 202.76 118.89 202.06 118.19 201.20 118.19 L 200.20 118.19 C 199.34 118.19 198.64 118.89 198.64 119.76 C 198.64 120.62 199.34 121.32 200.20 121.32 Z M 201.20 121.32 L 202.20 121.32 C 203.06 121.32 203.76 120.62 203.76 119.76 C 203.76 118.89 203.06 118.19 202.20 118.19 L 201.20 118.19 C 200.34 118.19 199.64 118.89 199.64 119.76 C 199.64 120.62 200.34 121.32 201.20 121.32 Z M 202.20 121.32 L 203.20 121.32 C 204.06 121.32 204.76 120.62 204.76 119.76 C 204.76 118.89 204.06 118.19 203.20 118.19 L 202.20 118.19 C 201.34 118.19 200.64 118.89 200.64 119.76 C 200.64 120.62 201.34 121.32 202.20 121.32 Z M 203.20 121.32 L 204.20 121.32 C 205.07 121.32 205.76 120.62 205.76 119.76 C 205.76 118.89 205.07 118.19 204.20 118.19 L 203.20 118.19 C 202.33 118.19 201.64 118.89 201.64 119.76 C 201.64 120.62 202.33 121.32 203.20 121.32 Z M 204.20 121.32 L 205.21 121.32 C 206.07 121.32 206.77 120.62 206.77 119.76 C 206.77 118.89 206.07 118.19 205.21 118.19 L 204.20 118.19 C 203.34 118.19 202.64 118.89 202.64 119.76 C 202.64 120.62 203.34 121.32 204.20 121.32 Z M 205.21 121.32 L 206.22 121.32 C 207.08 121.32 207.78 120.62 207.78 119.76 C 207.78 118.89 207.08 118.19 206.22 118.19 L 205.21 118.19 C 204.35 118.19 203.65 118.89 203.65 119.76 C 203.65 120.62 204.35 121.32 205.21 121.32 Z M 206.22 121.32 L 207.22 121.32 C 208.08 121.32 208.78 120.62 208.78 119.76 C 208.78 118.89 208.08 118.19 207.22 118.19 L 206.22 118.19 C 205.36 118.19 204.66 118.89 204.66 119.76 C 204.66 120.62 205.36 121.32 206.22 121.32 Z M 207.22 121.32 L 208.20 121.32 C 209.06 121.32 209.76 120.62 209.76 119.76 C 209.76 118.89 209.06 118.19 208.20 118.19 L 207.22 118.19 C 206.36 118.19 205.66 118.89 205.66 119.76 C 205.66 120.62 206.36 121.32 207.22 121.32 Z M 208.20 121.32 L 209.11 121.32 C 209.97 121.32 210.67 120.62 210.67 119.76 C 210.67 118.89 209.97 118.19 209.11 118.19 L 208.20 118.19 C 207.34 118.19 206.64 118.89 206.64 119.76 C 206.64 120.62 207.34 121.32 208.20 121.32 Z M 209.11 121.32 L 210.07 121.32 C 210.93 121.32 211.63 120.62 211.63 119.76 C 211.63 118.89 210.93 118.19 210.07 118.19 L 209.11 118.19 C 208.25 118.19 207.55 118.89 207.55 119.76 C 207.55 120.62 208.25 121.32 209.11 121.32 Z M 210.07 121.32 L 211.14 121.32 C 212.00 121.32 212.70 120.62 212.70 119.76 C 212.70 118.89 212.00 118.19 211.14 118.19 L 210.07 118.19 C 209.21 118.19 208.51 118.89 208.51 119.76 C 208.51 120.62 209.21 121.32 210.07 121.32 Z M 211.14 121.32 L 212.15 121.32 C 213.01 121.32 213.71 120.62 213.71 119.76 C 213.71 118.89 213.01 118.19 212.15 118.19 L 211.14 118.19 C 210.28 118.19 209.58 118.89 209.58 119.76 C 209.58 120.62 210.28 121.32 211.14 121.32 Z M 212.15 121.32 L 213.11 121.32 C 213.97 121.32 214.67 120.62 214.67 119.76 C 214.67 118.89 213.97 118.19 213.11 118.19 L 212.15 118.19 C 211.28 118.19 210.58 118.89 210.58 119.76 C 210.58 120.62 211.28 121.32 212.15 121.32 Z M 213.11 121.32 L 214.13 121.32 C 214.99 121.32 215.69 120.62 215.69 119.76 C 215.69 118.89 214.99 118.19 214.13 118.19 L 213.11 118.19 C 212.25 118.19 211.55 118.89 211.55 119.76 C 211.55 120.62 212.25 121.32 213.11 121.32 Z M 214.13 121.32 L 215.17 121.32 C 216.03 121.32 216.73 120.62 216.73 119.76 C 216.73 118.89 216.03 118.19 215.17 118.19 L 214.13 118.19 C 213.27 118.19 212.57 118.89 212.57 119.76 C 212.57 120.62 213.27 121.32 214.13 121.32 Z M 215.17 121.32 L 216.20 121.32 C 217.06 121.32 217.76 120.62 217.76 119.76 C 217.76 118.89 217.06 118.19 216.20 118.19 L 215.17 118.19 C 214.31 118.19 213.61 118.89 213.61 119.76 C 213.61 120.62 214.31 121.32 215.17 121.32 Z M 216.20 121.32 L 217.29 121.32 C 218.15 121.32 218.85 120.62 218.85 119.76 C 218.85 118.89 218.15 118.19 217.29 118.19 L 216.20 118.19 C 215.34 118.19 214.64 118.89 214.64 119.76 C 214.64 120.62 215.34 121.32 216.20 121.32 Z M 217.29 121.32 L 218.33 121.32 C 219.20 121.32 219.89 120.62 219.89 119.76 C 219.89 118.89 219.20 118.19 218.33 118.19 L 217.29 118.19 C 216.42 118.19 215.72 118.89 215.72 119.76 C 215.72 120.62 216.42 121.32 217.29 121.32 Z M 218.33 121.32 L 219.32 121.32 C 220.19 121.32 220.89 120.62 220.89 119.76 C 220.89 118.89 220.19 118.19 219.32 118.19 L 218.33 118.19 C 217.47 118.19 216.77 118.89 216.77 119.76 C 216.77 120.62 217.47 121.32 218.33 121.32 Z M 219.32 121.32 L 220.26 121.32 C 221.12 121.32 221.82 120.62 221.82 119.76 C 221.82 118.89 221.12 118.19 220.26 118.19 L 219.32 118.19 C 218.46 118.19 217.76 118.89 217.76 119.76 C 217.76 120.62 218.46 121.32 219.32 121.32 Z M 220.26 121.32 L 221.24 121.32 C 222.11 121.32 222.80 120.62 222.80 119.76 C 222.80 118.89 222.10 118.19 221.24 118.19 L 220.26 118.19 C 219.39 118.20 218.70 118.89 218.70 119.76 C 218.70 120.62 219.40 121.32 220.26 121.32 Z M 221.25 121.32 L 222.26 121.32 C 223.12 121.31 223.82 120.61 223.82 119.75 C 223.82 118.89 223.12 118.19 222.25 118.19 L 221.24 118.19 C 220.38 118.20 219.68 118.90 219.68 119.76 C 219.68 120.62 220.38 121.32 221.25 121.32 Z M 222.27 121.32 L 223.24 121.31 C 224.10 121.30 224.80 120.60 224.79 119.74 C 224.79 118.87 224.08 118.18 223.22 118.19 L 222.25 118.19 C 221.38 118.20 220.69 118.90 220.70 119.76 C 220.70 120.63 221.41 121.32 222.27 121.32 Z M 223.25 121.31 L 224.23 121.29 C 225.09 121.28 225.78 120.57 225.76 119.71 C 225.75 118.85 225.04 118.16 224.18 118.17 L 223.21 118.19 C 222.35 118.20 221.66 118.91 221.67 119.77 C 221.68 120.63 222.39 121.32 223.25 121.31 Z M 224.24 121.29 L 225.24 121.27 C 226.10 121.24 226.78 120.53 226.76 119.66 C 226.73 118.80 226.02 118.12 225.15 118.15 L 224.16 118.17 C 223.30 118.20 222.62 118.91 222.64 119.78 C 222.67 120.64 223.38 121.32 224.24 121.29 Z M 225.27 121.27 L 226.28 121.22 C 227.14 121.18 227.80 120.44 227.76 119.58 C 227.72 118.72 226.99 118.06 226.13 118.10 L 225.12 118.15 C 224.26 118.19 223.60 118.92 223.64 119.78 C 223.68 120.64 224.41 121.31 225.27 121.27 Z M 226.33 121.21 L 227.33 121.13 C 228.19 121.06 228.83 120.31 228.76 119.45 C 228.69 118.59 227.94 117.95 227.08 118.02 L 226.08 118.10 C 225.22 118.17 224.58 118.92 224.65 119.78 C 224.72 120.64 225.47 121.28 226.33 121.21 Z M 227.40 121.13 L 228.40 121.00 C 229.26 120.89 229.86 120.11 229.76 119.26 C 229.65 118.40 228.87 117.80 228.01 117.90 L 227.01 118.03 C 226.15 118.13 225.55 118.91 225.65 119.77 C 225.76 120.63 226.54 121.23 227.40 121.13 Z M 228.46 120.99 L 229.45 120.83 C 230.31 120.68 230.88 119.88 230.74 119.03 C 230.59 118.18 229.79 117.60 228.94 117.75 L 227.95 117.91 C 227.10 118.06 226.52 118.86 226.67 119.71 C 226.81 120.56 227.61 121.13 228.46 120.99 Z M 229.50 120.82 L 230.47 120.63 C 231.31 120.46 231.87 119.64 231.70 118.79 C 231.53 117.95 230.71 117.40 229.87 117.56 L 228.90 117.75 C 228.05 117.92 227.50 118.74 227.66 119.59 C 227.83 120.43 228.65 120.98 229.50 120.82 Z M 230.49 120.62 L 231.10 120.50 C 231.94 120.32 232.49 119.49 232.31 118.65 C 232.14 117.81 231.31 117.26 230.47 117.44 L 229.85 117.57 C 229.01 117.74 228.46 118.57 228.64 119.41 C 228.81 120.26 229.64 120.80 230.49 120.62 Z"
      fill="black"
      fill-rule="nonzero" /></svg>