<svg xmlns="http://www.w3.org/2000/svg" width="300" height="300" viewBox="0 0 300 300">
<path d="M 74.30 90.54 L 73.65 89.37 C 73.23 88.61 72.28 88.34 71.53 88.76 C 70.77 89.18 70.50 90.13 70.92 90.88 L 71.57 92.06 C 71.99 92.81 72.94 93.08 73.69 92.67 C 74.44 92.25 74.72 91.30 74.30 90.54 Z M 73.66 89.40 L 73.11 88.35 C 72.71 87.59 71.76 87.30 71.00 87.70 C 70.24 88.10 69.95 89.05 70.35 89.81 L 70.90 90.85 C 71.30 91.62 72.25 91.91 73.01 91.51 C 73.77 91.10 74.07 90.16 73.66 89.40 Z M 73.15 88.44 L 72.80 87.65 C 72.45 86.87 71.52 86.51 70.73 86.87 C 69.95 87.22 69.60 88.15 69.95 88.93 L 70.31 89.72 C 70.66 90.51 71.58 90.86 72.37 90.50 C 73.16 90.15 73.51 89.23 73.15 88.44 Z M 72.93 88.13 L 72.88 87.71 C 72.79 86.86 72.02 86.24 71.17 86.33 C 70.31 86.42 69.69 87.19 69.78 88.04 L 69.82 88.46 C 69.91 89.31 70.68 89.94 71.54 89.84 C 72.40 89.75 73.02 88.99 72.93 88.13 Z M 70.69 89.30 L 71.20 89.53 C 71.98 89.88 72.91 89.53 73.26 88.75 C 73.62 87.96 73.27 87.04 72.48 86.68 L 71.97 86.46 C 71.19 86.10 70.26 86.45 69.91 87.24 C 69.55 88.02 69.90 88.95 70.69 89.30 Z M 70.77 89.25 L 71.67 90.09 C 72.30 90.68 73.28 90.64 73.87 90.02 C 74.46 89.39 74.43 88.40 73.80 87.81 L 72.91 86.97 C 72.28 86.38 71.29 86.41 70.70 87.04 C 70.11 87.67 70.14 88.66 70.77 89.25 Z M 71.56 89.98 L 72.33 90.84 C 72.90 91.49 73.89 91.55 74.53 90.98 C 75.18 90.41 75.24 89.42 74.67 88.78 L 73.90 87.91 C 73.33 87.27 72.35 87.21 71.70 87.78 C 71.06 88.35 70.99 89.34 71.56 89.98 Z M 72.28 90.78 L 72.85 91.51 C 73.39 92.18 74.37 92.29 75.05 91.76 C 75.72 91.22 75.83 90.24 75.30 89.56 L 74.72 88.84 C 74.18 88.16 73.20 88.05 72.52 88.59 C 71.85 89.13 71.74 90.11 72.28 90.78 Z M 72.83 91.48 L 73.42 92.26 C 73.94 92.95 74.92 93.08 75.61 92.56 C 76.30 92.04 76.43 91.06 75.91 90.37 L 75.32 89.59 C 74.80 88.91 73.82 88.77 73.13 89.29 C 72.45 89.81 72.31 90.79 72.83 91.48 Z M 73.41 92.25 L 74.03 93.08 C 74.54 93.77 75.52 93.92 76.21 93.40 C 76.91 92.89 77.05 91.91 76.54 91.22 L 75.92 90.39 C 75.41 89.69 74.43 89.55 73.74 90.06 C 73.04 90.58 72.90 91.55 73.41 92.25 Z M 74.03 93.08 L 74.69 93.96 C 75.20 94.66 76.18 94.80 76.87 94.28 C 77.56 93.77 77.71 92.79 77.19 92.10 L 76.54 91.22 C 76.02 90.53 75.04 90.38 74.35 90.90 C 73.66 91.41 73.52 92.39 74.03 93.08 Z M 74.70 93.98 L 75.31 94.78 C 75.83 95.46 76.81 95.60 77.49 95.08 C 78.18 94.55 78.31 93.58 77.79 92.89 L 77.18 92.09 C 76.66 91.40 75.68 91.27 75.00 91.79 C 74.31 92.31 74.18 93.29 74.70 93.98 Z M 75.32 94.79 L 75.94 95.59 C 76.47 96.27 77.45 96.39 78.13 95.87 C 78.81 95.34 78.93 94.36 78.40 93.67 L 77.78 92.88 C 77.25 92.19 76.27 92.07 75.59 92.60 C 74.91 93.13 74.79 94.11 75.32 94.79 Z M 75.95 95.60 L 76.58 96.40 C 77.12 97.08 78.10 97.19 78.78 96.66 C 79.45 96.12 79.57 95.14 79.03 94.47 L 78.39 93.66 C 77.86 92.99 76.88 92.87 76.20 93.41 C 75.53 93.94 75.41 94.93 75.95 95.60 Z M 76.59 96.42 L 77.23 97.21 C 77.77 97.88 78.76 97.98 79.43 97.44 C 80.10 96.90 80.20 95.92 79.66 95.25 L 79.02 94.45 C 78.48 93.78 77.50 93.68 76.83 94.22 C 76.16 94.76 76.05 95.75 76.59 96.42 Z M 77.24 97.22 L 77.87 97.99 C 78.42 98.65 79.40 98.75 80.07 98.20 C 80.74 97.65 80.83 96.67 80.28 96.00 L 79.65 95.23 C 79.10 94.57 78.12 94.47 77.45 95.02 C 76.79 95.57 76.69 96.55 77.24 97.22 Z M 77.88 98.00 L 78.51 98.74 C 79.06 99.40 80.05 99.48 80.71 98.93 C 81.37 98.37 81.45 97.39 80.90 96.73 L 80.27 95.99 C 79.72 95.33 78.73 95.24 78.07 95.80 C 77.41 96.35 77.33 97.34 77.88 98.00 Z M 78.52 98.75 L 79.16 99.49 C 79.72 100.15 80.71 100.22 81.36 99.66 C 82.01 99.09 82.08 98.11 81.52 97.45 L 80.88 96.71 C 80.32 96.06 79.33 95.99 78.68 96.55 C 78.03 97.12 77.96 98.10 78.52 98.75 Z M 79.17 99.51 L 79.80 100.22 C 80.37 100.87 81.36 100.93 82.01 100.36 C 82.65 99.78 82.71 98.80 82.14 98.15 L 81.51 97.44 C 80.94 96.79 79.95 96.73 79.30 97.30 C 78.66 97.88 78.60 98.86 79.17 99.51 Z M 79.81 100.23 L 80.46 100.95 C 81.04 101.59 82.03 101.64 82.67 101.06 C 83.31 100.48 83.36 99.50 82.78 98.86 L 82.13 98.14 C 81.55 97.50 80.56 97.45 79.92 98.03 C 79.28 98.61 79.23 99.59 79.81 100.23 Z M 80.47 100.96 L 81.16 101.71 C 81.74 102.35 82.73 102.39 83.36 101.81 C 84.00 101.22 84.04 100.23 83.46 99.60 L 82.77 98.85 C 82.19 98.21 81.20 98.17 80.56 98.75 C 79.93 99.34 79.89 100.33 80.47 100.96 Z M 81.16 101.72 L 81.88 102.49 C 82.46 103.12 83.45 103.16 84.08 102.57 C 84.72 101.99 84.75 101.00 84.17 100.37 L 83.45 99.59 C 82.87 98.96 81.88 98.92 81.25 99.51 C 80.61 100.10 80.58 101.08 81.16 101.72 Z M 81.88 102.49 L 82.43 103.08 C 83.02 103.71 84.00 103.75 84.64 103.16 C 85.27 102.58 85.30 101.59 84.72 100.96 L 84.17 100.36 C 83.58 99.73 82.59 99.70 81.96 100.28 C 81.33 100.87 81.29 101.86 81.88 102.49 Z M 82.43 103.08 L 83.01 103.72 C 83.60 104.35 84.59 104.39 85.22 103.80 C 85.85 103.22 85.89 102.23 85.31 101.60 L 84.72 100.96 C 84.13 100.33 83.15 100.29 82.51 100.87 C 81.88 101.46 81.84 102.45 82.43 103.08 Z M 83.01 103.71 L 83.64 104.39 C 84.22 105.03 85.21 105.07 85.84 104.49 C 86.48 103.91 86.52 102.92 85.94 102.28 L 85.31 101.60 C 84.73 100.97 83.74 100.92 83.11 101.51 C 82.47 102.09 82.43 103.08 83.01 103.71 Z M 83.63 104.39 L 84.29 105.12 C 84.87 105.76 85.86 105.80 86.50 105.22 C 87.13 104.65 87.18 103.66 86.60 103.02 L 85.94 102.29 C 85.36 101.65 84.38 101.60 83.74 102.18 C 83.10 102.76 83.05 103.75 83.63 104.39 Z M 84.28 105.11 L 84.98 105.89 C 85.56 106.53 86.54 106.59 87.19 106.01 C 87.83 105.44 87.88 104.45 87.31 103.81 L 86.61 103.03 C 86.04 102.39 85.05 102.33 84.41 102.90 C 83.76 103.48 83.71 104.46 84.28 105.11 Z M 84.97 105.88 L 85.71 106.72 C 86.28 107.37 87.26 107.43 87.91 106.86 C 88.56 106.29 88.62 105.31 88.05 104.66 L 87.32 103.82 C 86.75 103.17 85.76 103.11 85.12 103.68 C 84.47 104.25 84.40 105.23 84.97 105.88 Z M 85.70 106.71 L 86.47 107.60 C 87.03 108.25 88.02 108.33 88.67 107.77 C 89.32 107.20 89.40 106.22 88.84 105.56 L 88.06 104.67 C 87.50 104.01 86.52 103.94 85.86 104.50 C 85.21 105.07 85.14 106.05 85.70 106.71 Z M 86.46 107.59 L 87.17 108.42 C 87.72 109.08 88.71 109.16 89.37 108.61 C 90.02 108.05 90.11 107.07 89.55 106.41 L 88.84 105.57 C 88.29 104.92 87.30 104.83 86.64 105.39 C 85.99 105.95 85.90 106.93 86.46 107.59 Z M 87.16 108.42 L 87.81 109.19 C 88.36 109.85 89.34 109.94 90.00 109.39 C 90.67 108.84 90.76 107.86 90.20 107.19 L 89.56 106.42 C 89.01 105.75 88.02 105.66 87.36 106.22 C 86.70 106.77 86.61 107.75 87.16 108.42 Z M 87.80 109.18 L 88.46 109.99 C 89.00 110.65 89.99 110.75 90.65 110.20 C 91.32 109.65 91.42 108.67 90.87 108.00 L 90.21 107.20 C 89.66 106.54 88.68 106.44 88.01 106.99 C 87.35 107.53 87.25 108.52 87.80 109.18 Z M 88.45 109.98 L 89.11 110.79 C 89.66 111.46 90.64 111.56 91.31 111.02 C 91.98 110.48 92.08 109.49 91.54 108.82 L 90.87 108.01 C 90.33 107.34 89.35 107.24 88.68 107.78 C 88.01 108.33 87.91 109.31 88.45 109.98 Z M 89.11 110.79 L 89.77 111.61 C 90.31 112.28 91.29 112.39 91.96 111.85 C 92.63 111.31 92.74 110.32 92.20 109.65 L 91.54 108.83 C 91.00 108.16 90.02 108.05 89.35 108.59 C 88.67 109.13 88.57 110.11 89.11 110.79 Z M 89.76 111.60 L 90.41 112.42 C 90.95 113.09 91.93 113.20 92.60 112.67 C 93.28 112.13 93.39 111.15 92.85 110.47 L 92.21 109.66 C 91.67 108.98 90.69 108.87 90.01 109.41 C 89.34 109.94 89.23 110.93 89.76 111.60 Z M 90.41 112.41 L 91.04 113.21 C 91.57 113.89 92.55 114.01 93.23 113.47 C 93.91 112.94 94.02 111.96 93.49 111.28 L 92.86 110.48 C 92.33 109.80 91.34 109.68 90.67 110.22 C 89.99 110.75 89.87 111.73 90.41 112.41 Z M 91.03 113.21 L 91.64 113.99 C 92.17 114.67 93.15 114.79 93.83 114.26 C 94.51 113.73 94.63 112.75 94.10 112.07 L 93.50 111.29 C 92.97 110.61 91.98 110.48 91.30 111.02 C 90.62 111.55 90.50 112.53 91.03 113.21 Z M 91.64 113.98 L 92.21 114.73 C 92.74 115.41 93.72 115.54 94.40 115.01 C 95.09 114.48 95.21 113.50 94.68 112.82 L 94.11 112.07 C 93.58 111.39 92.60 111.26 91.92 111.79 C 91.24 112.32 91.11 113.30 91.64 113.98 Z M 92.21 114.72 L 92.75 115.43 C 93.27 116.11 94.25 116.24 94.93 115.72 C 95.62 115.20 95.75 114.22 95.23 113.53 L 94.69 112.83 C 94.17 112.14 93.19 112.01 92.50 112.53 C 91.82 113.05 91.68 114.03 92.21 114.72 Z M 92.74 115.42 L 93.47 116.39 C 93.99 117.08 94.97 117.22 95.65 116.70 C 96.34 116.18 96.48 115.21 95.97 114.52 L 95.24 113.54 C 94.72 112.85 93.74 112.71 93.05 113.23 C 92.36 113.75 92.22 114.73 92.74 115.42 Z M 93.46 116.38 L 94.14 117.30 C 94.65 117.99 95.63 118.14 96.32 117.63 C 97.02 117.12 97.17 116.14 96.65 115.45 L 95.97 114.53 C 95.46 113.83 94.49 113.68 93.79 114.20 C 93.10 114.71 92.95 115.68 93.46 116.38 Z M 94.13 117.29 L 94.73 118.12 C 95.24 118.82 96.22 118.97 96.92 118.46 C 97.61 117.96 97.77 116.98 97.26 116.28 L 96.66 115.46 C 96.15 114.76 95.18 114.61 94.48 115.11 C 93.78 115.62 93.63 116.59 94.13 117.29 Z M 94.73 118.12 L 95.28 118.87 C 95.78 119.57 96.76 119.72 97.46 119.22 C 98.16 118.71 98.31 117.74 97.81 117.04 L 97.26 116.29 C 96.76 115.59 95.78 115.43 95.08 115.94 C 94.38 116.44 94.23 117.42 94.73 118.12 Z M 95.28 118.88 L 95.79 119.57 C 96.30 120.27 97.28 120.42 97.97 119.91 C 98.67 119.41 98.82 118.43 98.31 117.73 L 97.80 117.03 C 97.29 116.34 96.32 116.19 95.62 116.69 C 94.93 117.20 94.77 118.18 95.28 118.88 Z M 95.80 119.59 L 96.30 120.26 C 96.82 120.95 97.80 121.09 98.49 120.57 C 99.18 120.06 99.32 119.08 98.80 118.39 L 98.30 117.72 C 97.79 117.03 96.81 116.89 96.12 117.40 C 95.43 117.92 95.29 118.90 95.80 119.59 Z M 96.32 120.28 L 96.94 121.08 C 97.47 121.76 98.45 121.88 99.13 121.35 C 99.81 120.82 99.93 119.84 99.40 119.16 L 98.78 118.36 C 98.25 117.68 97.27 117.56 96.59 118.09 C 95.91 118.62 95.79 119.60 96.32 120.28 Z M 96.95 121.09 L 97.61 121.91 C 98.15 122.58 99.13 122.69 99.80 122.15 C 100.48 121.61 100.58 120.63 100.04 119.96 L 99.39 119.14 C 98.85 118.47 97.87 118.36 97.19 118.90 C 96.52 119.44 96.41 120.42 96.95 121.09 Z M 97.61 121.92 L 98.25 122.71 C 98.80 123.38 99.78 123.48 100.45 122.94 C 101.12 122.40 101.22 121.41 100.68 120.74 L 100.04 119.95 C 99.50 119.28 98.51 119.18 97.84 119.72 C 97.17 120.26 97.07 121.25 97.61 121.92 Z M 98.25 122.70 L 98.86 123.46 C 99.39 124.14 100.38 124.25 101.05 123.71 C 101.72 123.17 101.83 122.19 101.29 121.51 L 100.69 120.75 C 100.15 120.08 99.17 119.97 98.49 120.51 C 97.82 121.05 97.71 122.03 98.25 122.70 Z M 98.84 123.44 L 99.40 124.17 C 99.92 124.85 100.90 124.98 101.58 124.46 C 102.27 123.94 102.40 122.96 101.88 122.27 L 101.31 121.54 C 100.79 120.85 99.81 120.72 99.13 121.25 C 98.44 121.77 98.31 122.75 98.84 123.44 Z M 99.36 124.12 L 99.99 125.02 C 100.48 125.72 101.46 125.89 102.16 125.40 C 102.87 124.90 103.04 123.93 102.55 123.22 L 101.91 122.32 C 101.42 121.62 100.44 121.45 99.74 121.94 C 99.03 122.44 98.86 123.41 99.36 124.12 Z M 99.95 124.96 L 100.48 125.80 C 100.95 126.52 101.91 126.74 102.64 126.28 C 103.37 125.81 103.58 124.85 103.12 124.12 L 102.58 123.28 C 102.12 122.55 101.16 122.34 100.43 122.80 C 99.70 123.27 99.49 124.23 99.95 124.96 Z M 100.46 125.76 L 100.94 126.56 C 101.38 127.30 102.33 127.54 103.08 127.10 C 103.82 126.66 104.06 125.71 103.62 124.97 L 103.14 124.16 C 102.70 123.42 101.75 123.18 101.00 123.62 C 100.26 124.06 100.02 125.01 100.46 125.76 Z M 100.93 126.54 L 101.13 126.90 C 101.57 127.65 102.52 127.90 103.27 127.47 C 104.01 127.04 104.27 126.08 103.84 125.34 L 103.63 124.98 C 103.20 124.23 102.24 123.98 101.50 124.41 C 100.75 124.84 100.50 125.80 100.93 126.54 Z"
      fill="black"
      fill-rule="nonzero" /><path d="M 72.16 234.51 L 72.88 233.65 C 73.44 233.00 73.36 232.01 72.71 231.45 C 72.05 230.89 71.07 230.97 70.51 231.63 L 69.78 232.49 C 69.22 233.14 69.30 234.13 69.95 234.69 C 70.61 235.25 71.60 235.17 72.16 234.51 Z M 72.89 233.65 L 73.61 232.80 C 74.17 232.15 74.09 231.16 73.43 230.60 C 72.77 230.04 71.79 230.12 71.23 230.78 L 70.51 231.63 C 69.95 232.29 70.03 233.27 70.68 233.83 C 71.34 234.39 72.33 234.31 72.89 233.65 Z M 73.61 232.80 L 74.32 231.97 C 74.87 231.31 74.79 230.32 74.13 229.77 C 73.48 229.21 72.49 229.29 71.93 229.95 L 71.23 230.78 C 70.67 231.44 70.75 232.43 71.41 232.98 C 72.07 233.54 73.05 233.46 73.61 232.80 Z M 74.32 231.96 L 75.00 231.15 C 75.56 230.49 75.47 229.51 74.82 228.95 C 74.16 228.40 73.17 228.48 72.62 229.14 L 71.93 229.95 C 71.38 230.61 71.46 231.60 72.12 232.15 C 72.78 232.71 73.76 232.62 74.32 231.96 Z M 75.01 231.15 L 75.66 230.37 C 76.21 229.70 76.13 228.72 75.47 228.17 C 74.80 227.61 73.82 227.70 73.27 228.36 L 72.61 229.14 C 72.06 229.80 72.15 230.79 72.81 231.34 C 73.47 231.90 74.45 231.81 75.01 231.15 Z M 75.67 230.36 L 76.28 229.62 C 76.83 228.95 76.74 227.97 76.08 227.42 C 75.41 226.87 74.43 226.96 73.88 227.62 L 73.26 228.37 C 72.71 229.03 72.80 230.02 73.47 230.57 C 74.13 231.12 75.11 231.02 75.67 230.36 Z M 76.29 229.61 L 76.86 228.91 C 77.41 228.24 77.31 227.26 76.64 226.71 C 75.97 226.17 74.99 226.27 74.44 226.93 L 73.87 227.63 C 73.33 228.30 73.42 229.28 74.09 229.83 C 74.76 230.37 75.74 230.28 76.29 229.61 Z M 76.87 228.90 L 77.39 228.26 C 77.93 227.58 77.82 226.60 77.15 226.06 C 76.48 225.52 75.49 225.63 74.95 226.30 L 74.43 226.94 C 73.89 227.62 74.00 228.60 74.67 229.14 C 75.34 229.68 76.33 229.57 76.87 228.90 Z M 77.40 228.24 L 78.08 227.37 C 78.61 226.69 78.49 225.71 77.81 225.18 C 77.13 224.65 76.15 224.77 75.62 225.45 L 74.94 226.32 C 74.41 227.00 74.53 227.98 75.21 228.51 C 75.89 229.04 76.87 228.92 77.40 228.24 Z M 78.11 227.33 L 78.80 226.38 C 79.31 225.69 79.16 224.71 78.47 224.20 C 77.77 223.69 76.79 223.84 76.28 224.54 L 75.59 225.48 C 75.08 226.18 75.23 227.16 75.92 227.67 C 76.62 228.18 77.59 228.03 78.11 227.33 Z M 78.84 226.34 L 79.37 225.55 C 79.85 224.84 79.67 223.86 78.95 223.38 C 78.24 222.90 77.27 223.08 76.78 223.80 L 76.25 224.58 C 75.77 225.30 75.95 226.27 76.67 226.75 C 77.38 227.24 78.35 227.05 78.84 226.34 Z M 79.40 225.50 L 79.83 224.81 C 80.29 224.08 80.07 223.12 79.34 222.66 C 78.61 222.20 77.64 222.42 77.19 223.15 L 76.75 223.85 C 76.30 224.58 76.52 225.54 77.25 226.00 C 77.98 226.45 78.94 226.23 79.40 225.50 Z M 79.85 224.78 L 80.27 224.08 C 80.71 223.34 80.47 222.38 79.73 221.94 C 78.99 221.49 78.03 221.74 77.59 222.48 L 77.17 223.18 C 76.73 223.92 76.97 224.88 77.71 225.32 C 78.45 225.76 79.41 225.52 79.85 224.78 Z M 80.28 224.07 L 80.76 223.25 C 81.20 222.50 80.95 221.55 80.20 221.11 C 79.46 220.67 78.50 220.92 78.07 221.66 L 77.58 222.49 C 77.15 223.23 77.40 224.19 78.14 224.62 C 78.88 225.06 79.84 224.81 80.28 224.07 Z M 80.77 223.24 L 81.26 222.37 C 81.69 221.62 81.44 220.67 80.69 220.24 C 79.94 219.81 78.99 220.07 78.56 220.81 L 78.06 221.68 C 77.63 222.42 77.89 223.38 78.63 223.81 C 79.38 224.24 80.34 223.98 80.77 223.24 Z M 81.27 222.36 L 81.79 221.44 C 82.21 220.68 81.94 219.73 81.19 219.31 C 80.44 218.89 79.49 219.16 79.06 219.91 L 78.55 220.83 C 78.13 221.58 78.40 222.53 79.15 222.95 C 79.90 223.38 80.85 223.11 81.27 222.36 Z M 81.80 221.42 L 82.26 220.56 C 82.68 219.81 82.40 218.86 81.64 218.45 C 80.88 218.03 79.93 218.31 79.52 219.07 L 79.06 219.93 C 78.64 220.68 78.92 221.63 79.68 222.04 C 80.44 222.46 81.39 222.18 81.80 221.42 Z M 82.27 220.55 L 82.73 219.68 C 83.14 218.92 82.85 217.98 82.09 217.57 C 81.33 217.17 80.38 217.45 79.98 218.21 L 79.51 219.08 C 79.11 219.84 79.40 220.79 80.16 221.19 C 80.92 221.60 81.86 221.31 82.27 220.55 Z M 82.74 219.67 L 83.21 218.78 C 83.61 218.01 83.32 217.07 82.55 216.67 C 81.79 216.27 80.85 216.56 80.45 217.32 L 79.97 218.22 C 79.57 218.99 79.87 219.93 80.63 220.33 C 81.39 220.73 82.34 220.44 82.74 219.67 Z M 83.21 218.77 L 83.69 217.85 C 84.09 217.09 83.79 216.15 83.02 215.75 C 82.26 215.35 81.32 215.65 80.92 216.41 L 80.44 217.33 C 80.04 218.10 80.34 219.04 81.11 219.44 C 81.87 219.83 82.82 219.53 83.21 218.77 Z M 83.69 217.85 L 84.15 216.96 C 84.55 216.19 84.25 215.25 83.48 214.85 C 82.72 214.46 81.77 214.76 81.38 215.52 L 80.92 216.42 C 80.52 217.18 80.82 218.13 81.59 218.52 C 82.35 218.92 83.29 218.62 83.69 217.85 Z M 84.15 216.96 L 84.61 216.07 C 85.00 215.31 84.70 214.37 83.94 213.97 C 83.17 213.57 82.23 213.87 81.83 214.64 L 81.38 215.52 C 80.98 216.29 81.28 217.23 82.05 217.63 C 82.82 218.02 83.76 217.72 84.15 216.96 Z M 84.61 216.08 L 85.07 215.19 C 85.46 214.43 85.17 213.49 84.40 213.09 C 83.64 212.69 82.70 212.99 82.30 213.75 L 81.84 214.64 C 81.44 215.40 81.74 216.34 82.50 216.74 C 83.27 217.14 84.21 216.84 84.61 216.08 Z M 85.06 215.20 L 85.53 214.31 C 85.93 213.55 85.64 212.60 84.88 212.20 C 84.12 211.80 83.17 212.09 82.77 212.85 L 82.30 213.74 C 81.90 214.51 82.19 215.45 82.95 215.85 C 83.72 216.26 84.66 215.96 85.06 215.20 Z M 85.53 214.32 L 86.00 213.44 C 86.41 212.68 86.13 211.73 85.37 211.32 C 84.61 210.92 83.66 211.20 83.25 211.96 L 82.78 212.84 C 82.37 213.60 82.65 214.55 83.41 214.96 C 84.17 215.37 85.12 215.08 85.53 214.32 Z M 86.00 213.45 L 86.47 212.58 C 86.89 211.83 86.61 210.88 85.85 210.46 C 85.10 210.05 84.15 210.32 83.73 211.08 L 83.26 211.95 C 82.84 212.70 83.12 213.65 83.88 214.07 C 84.63 214.48 85.58 214.21 86.00 213.45 Z M 86.47 212.59 L 86.95 211.72 C 87.37 210.96 87.10 210.01 86.34 209.59 C 85.59 209.18 84.64 209.45 84.22 210.20 L 83.74 211.07 C 83.32 211.83 83.59 212.78 84.35 213.20 C 85.10 213.62 86.05 213.34 86.47 212.59 Z M 86.95 211.72 L 87.44 210.84 C 87.86 210.08 87.59 209.13 86.83 208.71 C 86.08 208.30 85.13 208.57 84.71 209.32 L 84.22 210.20 C 83.80 210.96 84.08 211.91 84.83 212.32 C 85.58 212.74 86.53 212.47 86.95 211.72 Z M 87.44 210.83 L 87.93 209.95 C 88.34 209.19 88.07 208.24 87.31 207.83 C 86.56 207.41 85.61 207.69 85.19 208.44 L 84.71 209.33 C 84.29 210.08 84.57 211.03 85.32 211.45 C 86.08 211.86 87.03 211.59 87.44 210.83 Z M 87.93 209.94 L 88.41 209.05 C 88.82 208.29 88.54 207.35 87.78 206.94 C 87.02 206.53 86.07 206.81 85.66 207.57 L 85.19 208.45 C 84.78 209.21 85.06 210.16 85.82 210.57 C 86.58 210.98 87.52 210.69 87.93 209.94 Z M 88.41 209.05 L 88.88 208.16 C 89.29 207.40 89.00 206.46 88.24 206.05 C 87.48 205.65 86.53 205.93 86.13 206.70 L 85.66 207.58 C 85.25 208.34 85.54 209.29 86.30 209.69 C 87.06 210.10 88.01 209.81 88.41 209.05 Z M 88.89 208.16 L 89.35 207.27 C 89.76 206.51 89.47 205.57 88.70 205.16 C 87.94 204.76 87.00 205.05 86.59 205.81 L 86.13 206.70 C 85.72 207.46 86.01 208.41 86.78 208.81 C 87.54 209.21 88.48 208.92 88.89 208.16 Z M 89.35 207.28 L 89.82 206.39 C 90.23 205.63 89.94 204.69 89.18 204.28 C 88.41 203.88 87.47 204.17 87.06 204.93 L 86.59 205.81 C 86.19 206.57 86.48 207.52 87.24 207.92 C 88.00 208.33 88.95 208.04 89.35 207.28 Z M 89.82 206.40 L 90.29 205.52 C 90.70 204.76 90.42 203.81 89.66 203.40 C 88.90 203.00 87.95 203.28 87.54 204.04 L 87.07 204.92 C 86.66 205.68 86.94 206.63 87.70 207.04 C 88.46 207.44 89.41 207.16 89.82 206.40 Z M 90.29 205.53 L 90.77 204.64 C 91.19 203.89 90.91 202.94 90.16 202.52 C 89.40 202.11 88.45 202.39 88.04 203.14 L 87.55 204.03 C 87.13 204.78 87.41 205.73 88.17 206.15 C 88.92 206.56 89.87 206.29 90.29 205.53 Z M 90.77 204.65 L 91.26 203.77 C 91.68 203.02 91.41 202.07 90.66 201.65 C 89.90 201.23 88.95 201.50 88.53 202.25 L 88.04 203.13 C 87.62 203.88 87.89 204.84 88.64 205.26 C 89.40 205.68 90.35 205.41 90.77 204.65 Z M 91.25 203.78 L 91.75 202.91 C 92.17 202.16 91.90 201.21 91.15 200.78 C 90.40 200.36 89.45 200.63 89.03 201.38 L 88.54 202.25 C 88.11 203.00 88.38 203.95 89.13 204.37 C 89.88 204.80 90.83 204.53 91.25 203.78 Z M 91.74 202.91 L 92.23 202.05 C 92.66 201.30 92.39 200.35 91.64 199.93 C 90.89 199.50 89.94 199.76 89.52 200.51 L 89.03 201.37 C 88.60 202.12 88.87 203.08 89.61 203.50 C 90.36 203.93 91.32 203.66 91.74 202.91 Z M 92.23 202.06 L 92.72 201.20 C 93.14 200.45 92.88 199.49 92.13 199.07 C 91.38 198.64 90.43 198.90 90.00 199.65 L 89.52 200.51 C 89.09 201.26 89.35 202.21 90.10 202.64 C 90.85 203.07 91.80 202.81 92.23 202.06 Z M 92.72 201.20 L 93.21 200.34 C 93.63 199.59 93.37 198.64 92.62 198.21 C 91.87 197.78 90.92 198.05 90.49 198.80 L 90.00 199.65 C 89.58 200.40 89.84 201.36 90.59 201.78 C 91.34 202.21 92.29 201.95 92.72 201.20 Z M 93.21 200.34 L 93.70 199.48 C 94.12 198.73 93.86 197.77 93.11 197.35 C 92.36 196.92 91.40 197.19 90.98 197.94 L 90.49 198.80 C 90.07 199.55 90.33 200.50 91.08 200.93 C 91.83 201.35 92.78 201.09 93.21 200.34 Z M 93.70 199.47 L 94.19 198.60 C 94.61 197.85 94.35 196.89 93.60 196.47 C 92.85 196.05 91.90 196.31 91.47 197.06 L 90.98 197.94 C 90.55 198.69 90.82 199.64 91.57 200.07 C 92.32 200.49 93.27 200.22 93.70 199.47 Z M 94.19 198.59 L 94.69 197.71 C 95.11 196.95 94.85 196.00 94.09 195.58 C 93.34 195.16 92.39 195.43 91.97 196.18 L 91.47 197.07 C 91.05 197.82 91.32 198.77 92.07 199.19 C 92.82 199.61 93.77 199.35 94.19 198.59 Z M 94.69 197.70 L 95.18 196.84 C 95.60 196.09 95.33 195.13 94.57 194.71 C 93.82 194.29 92.87 194.56 92.45 195.32 L 91.97 196.18 C 91.55 196.93 91.82 197.89 92.57 198.31 C 93.32 198.73 94.27 198.46 94.69 197.70 Z M 95.18 196.84 L 95.67 195.96 C 96.09 195.21 95.82 194.25 95.07 193.83 C 94.31 193.41 93.36 193.68 92.94 194.44 L 92.45 195.32 C 92.03 196.07 92.30 197.02 93.05 197.44 C 93.80 197.86 94.76 197.59 95.18 196.84 Z M 95.67 195.96 L 96.16 195.08 C 96.58 194.33 96.31 193.38 95.56 192.95 C 94.81 192.53 93.86 192.80 93.44 193.55 L 92.94 194.43 C 92.52 195.19 92.79 196.14 93.54 196.56 C 94.29 196.98 95.24 196.71 95.67 195.96 Z M 96.16 195.08 L 96.65 194.21 C 97.07 193.46 96.81 192.51 96.06 192.08 C 95.31 191.66 94.36 191.92 93.93 192.67 L 93.44 193.55 C 93.02 194.30 93.28 195.25 94.03 195.67 C 94.78 196.10 95.73 195.83 96.16 195.08 Z M 96.65 194.22 L 97.15 193.33 C 97.58 192.59 97.32 191.63 96.57 191.20 C 95.83 190.78 94.87 191.03 94.44 191.78 L 93.94 192.67 C 93.51 193.41 93.77 194.37 94.52 194.80 C 95.26 195.23 96.22 194.97 96.65 194.22 Z M 97.15 193.34 L 97.67 192.45 C 98.10 191.70 97.85 190.74 97.11 190.31 C 96.36 189.88 95.40 190.13 94.97 190.88 L 94.45 191.77 C 94.02 192.52 94.27 193.47 95.01 193.91 C 95.76 194.34 96.71 194.09 97.15 193.34 Z M 97.67 192.45 L 98.18 191.58 C 98.61 190.84 98.36 189.88 97.62 189.45 C 96.88 189.01 95.92 189.26 95.48 190.00 L 94.97 190.87 C 94.54 191.61 94.79 192.57 95.53 193.01 C 96.27 193.44 97.23 193.19 97.67 192.45 Z M 98.18 191.58 L 98.67 190.74 C 99.11 190.00 98.86 189.04 98.12 188.61 C 97.37 188.17 96.42 188.42 95.98 189.16 L 95.48 190.00 C 95.05 190.75 95.30 191.70 96.04 192.14 C 96.78 192.58 97.74 192.33 98.18 191.58 Z M 98.67 190.74 L 99.15 189.91 C 99.59 189.17 99.34 188.21 98.59 187.78 C 97.85 187.34 96.89 187.59 96.46 188.34 L 95.98 189.16 C 95.54 189.91 95.79 190.86 96.54 191.30 C 97.28 191.73 98.24 191.48 98.67 190.74 Z M 99.16 189.90 L 99.67 189.02 C 100.10 188.27 99.84 187.32 99.10 186.89 C 98.35 186.46 97.39 186.71 96.96 187.46 L 96.45 188.35 C 96.02 189.09 96.28 190.05 97.03 190.48 C 97.77 190.91 98.73 190.65 99.16 189.90 Z M 99.67 189.01 L 100.17 188.14 C 100.59 187.39 100.33 186.44 99.58 186.01 C 98.83 185.59 97.88 185.85 97.45 186.60 L 96.96 187.47 C 96.53 188.22 96.80 189.17 97.55 189.60 C 98.30 190.02 99.25 189.76 99.67 189.01 Z M 100.17 188.13 L 100.65 187.27 C 101.07 186.52 100.81 185.57 100.05 185.15 C 99.30 184.73 98.35 184.99 97.93 185.75 L 97.45 186.61 C 97.03 187.36 97.29 188.31 98.05 188.73 C 98.80 189.15 99.75 188.89 100.17 188.13 Z M 100.66 187.26 L 101.14 186.40 C 101.55 185.64 101.28 184.69 100.53 184.28 C 99.77 183.86 98.82 184.13 98.40 184.89 L 97.92 185.75 C 97.51 186.51 97.78 187.46 98.54 187.88 C 99.29 188.29 100.24 188.02 100.66 187.26 Z M 101.14 186.39 L 101.63 185.50 C 102.04 184.75 101.76 183.80 101.01 183.39 C 100.25 182.97 99.30 183.25 98.89 184.01 L 98.40 184.89 C 97.99 185.65 98.26 186.60 99.02 187.01 C 99.78 187.43 100.73 187.15 101.14 186.39 Z M 101.63 185.50 L 102.11 184.61 C 102.52 183.86 102.24 182.91 101.48 182.50 C 100.72 182.09 99.78 182.37 99.36 183.12 L 98.88 184.01 C 98.47 184.77 98.75 185.72 99.51 186.13 C 100.27 186.54 101.22 186.26 101.63 185.50 Z M 102.11 184.61 L 102.58 183.73 C 102.99 182.97 102.71 182.03 101.95 181.62 C 101.19 181.21 100.24 181.49 99.83 182.25 L 99.36 183.13 C 98.95 183.89 99.24 184.83 100.00 185.24 C 100.76 185.65 101.70 185.37 102.11 184.61 Z M 102.58 183.73 L 103.02 182.91 C 103.43 182.14 103.14 181.20 102.38 180.79 C 101.62 180.39 100.68 180.67 100.27 181.43 L 99.83 182.26 C 99.42 183.02 99.71 183.96 100.47 184.37 C 101.23 184.78 102.18 184.49 102.58 183.73 Z M 103.03 182.90 L 103.44 182.13 C 103.84 181.37 103.55 180.43 102.79 180.02 C 102.03 179.61 101.09 179.90 100.68 180.66 L 100.27 181.44 C 99.86 182.20 100.15 183.14 100.91 183.55 C 101.67 183.95 102.62 183.66 103.03 182.90 Z M 103.43 182.14 L 103.88 181.32 C 104.28 180.56 104.00 179.61 103.24 179.20 C 102.48 178.79 101.53 179.08 101.13 179.84 L 100.68 180.66 C 100.28 181.42 100.56 182.36 101.32 182.77 C 102.08 183.18 103.03 182.90 103.43 182.14 Z M 103.87 181.32 L 104.38 180.40 C 104.79 179.64 104.51 178.69 103.76 178.28 C 103.00 177.87 102.05 178.15 101.64 178.90 L 101.13 179.83 C 100.72 180.58 101.00 181.53 101.75 181.95 C 102.51 182.36 103.46 182.08 103.87 181.32 Z M 104.37 180.41 L 104.94 179.39 C 105.36 178.64 105.09 177.69 104.34 177.27 C 103.58 176.85 102.63 177.12 102.21 177.87 L 101.64 178.89 C 101.22 179.64 101.49 180.59 102.25 181.01 C 103.00 181.43 103.95 181.16 104.37 180.41 Z M 104.93 179.40 L 105.39 178.59 C 105.81 177.84 105.55 176.89 104.80 176.47 C 104.05 176.04 103.10 176.31 102.67 177.06 L 102.22 177.86 C 101.79 178.61 102.06 179.56 102.81 179.99 C 103.56 180.41 104.51 180.15 104.93 179.40 Z M 105.39 178.60 L 105.88 177.74 C 106.31 176.99 106.05 176.04 105.30 175.61 C 104.55 175.18 103.60 175.44 103.17 176.19 L 102.68 177.05 C 102.25 177.80 102.51 178.75 103.25 179.18 C 104.00 179.61 104.96 179.35 105.39 178.60 Z M 105.88 177.75 L 106.40 176.85 C 106.83 176.11 106.58 175.15 105.83 174.72 C 105.09 174.28 104.13 174.54 103.70 175.28 L 103.18 176.18 C 102.74 176.92 103.00 177.88 103.74 178.31 C 104.49 178.75 105.44 178.49 105.88 177.75 Z M 106.39 176.86 L 106.93 175.96 C 107.36 175.22 107.12 174.26 106.38 173.82 C 105.64 173.38 104.68 173.63 104.24 174.37 L 103.70 175.27 C 103.26 176.01 103.51 176.97 104.25 177.41 C 104.99 177.85 105.95 177.61 106.39 176.86 Z M 106.92 175.97 L 107.45 175.09 C 107.90 174.35 107.66 173.39 106.93 172.94 C 106.19 172.50 105.23 172.73 104.78 173.47 L 104.25 174.36 C 103.80 175.09 104.04 176.05 104.77 176.50 C 105.51 176.95 106.47 176.71 106.92 175.97 Z M 107.44 175.10 L 107.97 174.26 C 108.42 173.53 108.20 172.57 107.47 172.11 C 106.73 171.66 105.77 171.88 105.32 172.61 L 104.79 173.46 C 104.34 174.19 104.56 175.15 105.29 175.61 C 106.03 176.06 106.99 175.84 107.44 175.10 Z M 107.95 174.28 L 108.56 173.35 C 109.02 172.62 108.82 171.66 108.09 171.19 C 107.37 170.72 106.40 170.93 105.93 171.66 L 105.33 172.59 C 104.86 173.32 105.07 174.28 105.79 174.75 C 106.52 175.22 107.49 175.01 107.95 174.28 Z M 108.54 173.38 L 109.14 172.49 C 109.62 171.77 109.43 170.80 108.72 170.32 C 108.00 169.84 107.03 170.02 106.55 170.74 L 105.95 171.63 C 105.47 172.34 105.66 173.31 106.37 173.80 C 107.09 174.28 108.06 174.09 108.54 173.38 Z M 109.12 172.51 L 109.69 171.70 C 110.19 171.00 110.02 170.02 109.31 169.53 C 108.61 169.03 107.64 169.20 107.14 169.90 L 106.57 170.71 C 106.07 171.42 106.24 172.39 106.95 172.89 C 107.65 173.39 108.63 173.22 109.12 172.51 Z M 109.68 171.72 L 110.23 170.97 C 110.73 170.27 110.58 169.29 109.88 168.79 C 109.19 168.28 108.21 168.43 107.70 169.13 L 107.15 169.88 C 106.65 170.58 106.80 171.56 107.50 172.06 C 108.19 172.57 109.17 172.42 109.68 171.72 Z M 110.22 170.98 L 110.76 170.25 C 111.27 169.56 111.13 168.58 110.43 168.07 C 109.74 167.56 108.76 167.70 108.25 168.39 L 107.71 169.12 C 107.20 169.81 107.34 170.79 108.03 171.30 C 108.73 171.82 109.70 171.67 110.22 170.98 Z M 110.75 170.26 L 110.88 170.09 C 111.39 169.40 111.25 168.42 110.56 167.91 C 109.87 167.39 108.89 167.53 108.38 168.22 L 108.25 168.39 C 107.74 169.08 107.88 170.06 108.57 170.58 C 109.26 171.09 110.24 170.95 110.75 170.26 Z"
      fill="black"
      fill-rule="nonzero" /></svg>