<svg xmlns="http://www.w3.org/2000/svg" width="300" height="300" viewBox="0 0 300 300">
<path d="M 109.66 76.56 L 109.47 77.53 C 109.29 78.37 109.84 79.20 110.68 79.37 C 111.53 79.54 112.35 79.00 112.53 78.15 L 112.72 77.18 C 112.90 76.34 112.35 75.51 111.51 75.34 C 110.66 75.17 109.84 75.71 109.66 76.56 Z M 109.46 77.55 L 109.28 78.53 C 109.11 79.38 109.67 80.19 110.52 80.35 C 111.36 80.52 112.18 79.96 112.34 79.11 L 112.53 78.13 C 112.69 77.29 112.13 76.47 111.29 76.31 C 110.44 76.15 109.62 76.70 109.46 77.55 Z M 109.27 78.57 L 109.10 79.56 C 108.96 80.41 109.54 81.21 110.39 81.35 C 111.24 81.50 112.04 80.92 112.18 80.07 L 112.35 79.08 C 112.49 78.22 111.91 77.42 111.06 77.28 C 110.21 77.14 109.41 77.72 109.27 78.57 Z M 109.10 79.61 L 108.97 80.57 C 108.86 81.42 109.46 82.21 110.32 82.32 C 111.17 82.43 111.95 81.83 112.07 80.98 L 112.19 80.02 C 112.30 79.16 111.70 78.38 110.85 78.27 C 109.99 78.15 109.21 78.76 109.10 79.61 Z M 108.97 80.59 L 108.86 81.56 C 108.76 82.42 109.37 83.19 110.23 83.29 C 111.09 83.39 111.86 82.77 111.96 81.91 L 112.07 80.95 C 112.17 80.09 111.55 79.32 110.70 79.22 C 109.84 79.12 109.07 79.74 108.97 80.59 Z M 108.86 81.54 L 108.73 82.55 C 108.63 83.40 109.24 84.18 110.09 84.29 C 110.95 84.40 111.73 83.79 111.83 82.93 L 111.96 81.93 C 112.06 81.07 111.46 80.29 110.60 80.19 C 109.74 80.08 108.97 80.69 108.86 81.54 Z M 108.74 82.50 L 108.58 83.51 C 108.45 84.36 109.03 85.16 109.89 85.29 C 110.74 85.42 111.54 84.84 111.67 83.99 L 111.83 82.98 C 111.96 82.13 111.38 81.33 110.52 81.20 C 109.67 81.07 108.87 81.65 108.74 82.50 Z M 108.59 83.45 L 108.44 84.26 C 108.27 85.11 108.82 85.93 109.67 86.09 C 110.52 86.26 111.33 85.71 111.50 84.86 L 111.66 84.05 C 111.82 83.20 111.27 82.38 110.43 82.22 C 109.58 82.05 108.76 82.60 108.59 83.45 Z M 108.45 84.21 L 108.25 85.09 C 108.05 85.93 108.58 86.77 109.42 86.96 C 110.26 87.15 111.10 86.63 111.29 85.79 L 111.49 84.91 C 111.68 84.07 111.16 83.23 110.32 83.04 C 109.48 82.85 108.64 83.37 108.45 84.21 Z M 108.26 85.04 L 108.00 86.01 C 107.79 86.84 108.29 87.70 109.12 87.91 C 109.96 88.13 110.81 87.63 111.03 86.79 L 111.28 85.83 C 111.49 85.00 110.99 84.14 110.16 83.93 C 109.33 83.71 108.47 84.21 108.26 85.04 Z M 108.01 85.97 L 107.71 87.05 C 107.47 87.88 107.95 88.75 108.78 88.98 C 109.61 89.22 110.47 88.74 110.71 87.91 L 111.02 86.83 C 111.25 86.00 110.77 85.14 109.95 84.90 C 109.12 84.66 108.25 85.14 108.01 85.97 Z M 107.71 87.03 L 107.37 88.14 C 107.12 88.96 107.58 89.84 108.41 90.09 C 109.23 90.34 110.11 89.88 110.36 89.05 L 110.70 87.94 C 110.95 87.11 110.49 86.24 109.66 85.99 C 108.84 85.74 107.97 86.20 107.71 87.03 Z M 107.38 88.12 L 107.09 89.04 C 106.83 89.86 107.28 90.74 108.10 91.00 C 108.92 91.26 109.80 90.81 110.06 89.98 L 110.35 89.07 C 110.62 88.25 110.16 87.37 109.34 87.11 C 108.52 86.85 107.64 87.30 107.38 88.12 Z M 107.09 89.03 L 106.78 89.99 C 106.51 90.81 106.96 91.69 107.78 91.96 C 108.60 92.23 109.48 91.78 109.74 90.96 L 110.06 90.00 C 110.33 89.18 109.88 88.29 109.06 88.03 C 108.24 87.76 107.36 88.21 107.09 89.03 Z M 106.78 89.98 L 106.45 90.97 C 106.18 91.79 106.62 92.67 107.44 92.94 C 108.26 93.22 109.14 92.77 109.41 91.96 L 109.74 90.97 C 110.01 90.15 109.57 89.26 108.75 88.99 C 107.94 88.72 107.05 89.16 106.78 89.98 Z M 106.45 90.96 L 106.12 91.96 C 105.84 92.77 106.28 93.66 107.10 93.93 C 107.91 94.21 108.80 93.77 109.07 92.96 L 109.41 91.96 C 109.69 91.15 109.25 90.26 108.43 89.98 C 107.61 89.71 106.73 90.15 106.45 90.96 Z M 106.12 91.95 L 105.78 92.92 C 105.51 93.74 105.94 94.63 106.76 94.91 C 107.57 95.19 108.46 94.75 108.74 93.94 L 109.07 92.96 C 109.35 92.15 108.92 91.26 108.10 90.98 C 107.29 90.70 106.40 91.13 106.12 91.95 Z M 105.79 92.92 L 105.46 93.85 C 105.18 94.67 105.61 95.56 106.43 95.84 C 107.24 96.12 108.13 95.69 108.41 94.88 L 108.74 93.94 C 109.02 93.13 108.59 92.24 107.77 91.95 C 106.96 91.67 106.07 92.11 105.79 92.92 Z M 105.46 93.85 L 105.14 94.77 C 104.86 95.59 105.29 96.48 106.10 96.76 C 106.91 97.05 107.80 96.62 108.09 95.80 L 108.41 94.88 C 108.70 94.07 108.27 93.18 107.45 92.89 C 106.64 92.61 105.75 93.04 105.46 93.85 Z M 105.14 94.77 L 104.75 95.89 C 104.46 96.70 104.89 97.59 105.70 97.88 C 106.51 98.17 107.40 97.74 107.69 96.93 L 108.09 95.81 C 108.37 95.00 107.95 94.11 107.14 93.82 C 106.32 93.53 105.43 93.96 105.14 94.77 Z M 104.75 95.88 L 104.39 96.87 C 104.10 97.68 104.52 98.57 105.33 98.87 C 106.14 99.16 107.04 98.74 107.33 97.93 L 107.69 96.94 C 107.98 96.13 107.56 95.23 106.75 94.94 C 105.94 94.65 105.04 95.07 104.75 95.88 Z M 104.40 96.85 L 104.07 97.74 C 103.77 98.55 104.18 99.45 104.98 99.75 C 105.79 100.05 106.69 99.64 106.99 98.83 L 107.32 97.94 C 107.63 97.14 107.22 96.24 106.41 95.93 C 105.60 95.63 104.70 96.04 104.40 96.85 Z M 104.07 97.72 L 103.75 98.55 C 103.44 99.35 103.84 100.26 104.64 100.57 C 105.45 100.88 106.35 100.48 106.66 99.68 L 106.98 98.85 C 107.30 98.05 106.90 97.14 106.09 96.83 C 105.29 96.52 104.39 96.92 104.07 97.72 Z M 103.76 98.53 L 103.43 99.35 C 103.11 100.15 103.49 101.06 104.29 101.38 C 105.09 101.71 106.00 101.32 106.32 100.52 L 106.66 99.70 C 106.98 98.90 106.59 97.99 105.80 97.67 C 105.00 97.34 104.09 97.73 103.76 98.53 Z M 103.44 99.33 L 103.04 100.26 C 102.71 101.05 103.08 101.97 103.87 102.30 C 104.67 102.64 105.58 102.27 105.92 101.48 L 106.31 100.55 C 106.65 99.75 106.28 98.84 105.49 98.50 C 104.69 98.16 103.78 98.53 103.44 99.33 Z M 103.05 100.24 L 102.65 101.16 C 102.30 101.95 102.66 102.87 103.45 103.21 C 104.24 103.56 105.16 103.20 105.50 102.42 L 105.91 101.50 C 106.26 100.71 105.90 99.79 105.11 99.44 C 104.32 99.09 103.40 99.45 103.05 100.24 Z M 102.65 101.14 L 102.24 102.05 C 101.89 102.83 102.23 103.76 103.02 104.12 C 103.80 104.47 104.73 104.12 105.09 103.34 L 105.50 102.43 C 105.85 101.65 105.51 100.72 104.72 100.36 C 103.94 100.01 103.01 100.36 102.65 101.14 Z M 102.25 102.04 L 101.83 102.93 C 101.47 103.71 101.81 104.64 102.59 105.00 C 103.37 105.37 104.30 105.03 104.67 104.24 L 105.08 103.35 C 105.44 102.57 105.10 101.64 104.32 101.28 C 103.54 100.91 102.61 101.25 102.25 102.04 Z M 101.84 102.92 L 101.43 103.80 C 101.06 104.58 101.39 105.51 102.17 105.87 C 102.95 106.24 103.88 105.91 104.25 105.13 L 104.66 104.25 C 105.03 103.47 104.69 102.54 103.91 102.18 C 103.13 101.81 102.20 102.14 101.84 102.92 Z M 101.43 103.78 L 101.01 104.66 C 100.64 105.44 100.96 106.37 101.74 106.74 C 102.52 107.12 103.45 106.79 103.82 106.01 L 104.25 105.14 C 104.62 104.36 104.29 103.43 103.51 103.05 C 102.74 102.68 101.80 103.01 101.43 103.78 Z M 101.02 104.65 L 100.58 105.54 C 100.19 106.32 100.51 107.25 101.29 107.63 C 102.06 108.01 103.00 107.70 103.38 106.92 L 103.82 106.03 C 104.20 105.25 103.88 104.32 103.11 103.94 C 102.33 103.56 101.40 103.87 101.02 104.65 Z M 100.58 105.53 L 100.11 106.46 C 99.72 107.23 100.03 108.17 100.80 108.56 C 101.57 108.95 102.51 108.64 102.90 107.87 L 103.37 106.94 C 103.76 106.17 103.45 105.23 102.68 104.84 C 101.91 104.45 100.97 104.76 100.58 105.53 Z M 100.12 106.45 L 99.67 107.31 C 99.27 108.08 99.57 109.02 100.33 109.42 C 101.10 109.82 102.04 109.52 102.44 108.75 L 102.89 107.89 C 103.29 107.12 102.99 106.18 102.22 105.78 C 101.46 105.38 100.52 105.68 100.12 106.45 Z M 99.68 107.30 L 99.21 108.17 C 98.81 108.93 99.10 109.88 99.86 110.28 C 100.62 110.68 101.57 110.40 101.97 109.63 L 102.43 108.77 C 102.84 108.00 102.55 107.06 101.79 106.65 C 101.02 106.25 100.08 106.54 99.68 107.30 Z M 99.22 108.16 L 98.74 109.05 C 98.33 109.80 98.61 110.75 99.37 111.16 C 100.12 111.57 101.07 111.29 101.48 110.53 L 101.97 109.65 C 102.38 108.89 102.10 107.94 101.34 107.53 C 100.58 107.12 99.63 107.40 99.22 108.16 Z M 98.75 109.03 L 98.25 109.93 C 97.83 110.68 98.10 111.63 98.86 112.05 C 99.61 112.47 100.56 112.20 100.98 111.44 L 101.48 110.55 C 101.89 109.79 101.62 108.84 100.87 108.42 C 100.11 108.01 99.16 108.28 98.75 109.03 Z M 98.26 109.92 L 97.75 110.80 C 97.33 111.55 97.59 112.51 98.34 112.93 C 99.09 113.36 100.04 113.09 100.47 112.34 L 100.97 111.46 C 101.40 110.71 101.13 109.75 100.38 109.33 C 99.63 108.90 98.68 109.17 98.26 109.92 Z M 97.76 110.79 L 97.25 111.67 C 96.82 112.42 97.07 113.37 97.82 113.80 C 98.56 114.24 99.52 113.98 99.95 113.24 L 100.46 112.36 C 100.89 111.61 100.64 110.66 99.89 110.22 C 99.15 109.79 98.19 110.04 97.76 110.79 Z M 97.26 111.66 L 96.75 112.52 C 96.31 113.26 96.55 114.22 97.29 114.66 C 98.03 115.10 98.99 114.85 99.43 114.11 L 99.94 113.25 C 100.38 112.51 100.14 111.55 99.40 111.11 C 98.66 110.67 97.70 110.92 97.26 111.66 Z M 96.75 112.51 L 96.24 113.36 C 95.79 114.10 96.03 115.06 96.77 115.51 C 97.50 115.95 98.46 115.71 98.91 114.98 L 99.42 114.12 C 99.87 113.39 99.63 112.43 98.90 111.98 C 98.16 111.53 97.20 111.77 96.75 112.51 Z M 96.24 113.35 L 95.72 114.20 C 95.27 114.94 95.50 115.90 96.24 116.35 C 96.98 116.80 97.94 116.57 98.39 115.83 L 98.90 114.98 C 99.36 114.25 99.12 113.29 98.39 112.84 C 97.65 112.39 96.69 112.62 96.24 113.35 Z M 95.73 114.19 L 95.20 115.04 C 94.75 115.77 94.98 116.74 95.71 117.19 C 96.45 117.64 97.41 117.42 97.86 116.68 L 98.38 115.84 C 98.84 115.10 98.61 114.14 97.88 113.69 C 97.14 113.23 96.18 113.46 95.73 114.19 Z M 95.21 115.04 L 94.68 115.88 C 94.23 116.61 94.45 117.57 95.19 118.03 C 95.92 118.48 96.88 118.26 97.34 117.53 L 97.86 116.68 C 98.31 115.95 98.09 114.99 97.36 114.54 C 96.62 114.08 95.66 114.30 95.21 115.04 Z M 94.69 115.87 L 94.16 116.72 C 93.70 117.45 93.92 118.41 94.65 118.87 C 95.38 119.33 96.35 119.11 96.80 118.37 L 97.33 117.53 C 97.79 116.80 97.57 115.84 96.84 115.38 C 96.11 114.92 95.14 115.14 94.69 115.87 Z M 94.16 116.71 L 93.63 117.56 C 93.17 118.28 93.38 119.25 94.11 119.71 C 94.84 120.17 95.80 119.96 96.26 119.23 L 96.80 118.38 C 97.26 117.65 97.05 116.69 96.32 116.23 C 95.59 115.77 94.62 115.98 94.16 116.71 Z M 93.63 117.55 L 93.09 118.39 C 92.62 119.11 92.83 120.08 93.55 120.55 C 94.28 121.02 95.25 120.81 95.71 120.08 L 96.26 119.24 C 96.72 118.51 96.52 117.55 95.79 117.08 C 95.07 116.61 94.10 116.82 93.63 117.55 Z M 93.10 118.38 L 92.54 119.22 C 92.07 119.94 92.27 120.91 92.99 121.38 C 93.71 121.86 94.68 121.66 95.15 120.94 L 95.70 120.10 C 96.18 119.38 95.98 118.41 95.26 117.93 C 94.54 117.46 93.57 117.66 93.10 118.38 Z M 92.55 119.20 L 92.00 120.02 C 91.52 120.74 91.71 121.71 92.42 122.19 C 93.13 122.67 94.10 122.49 94.59 121.77 L 95.14 120.95 C 95.62 120.24 95.43 119.27 94.72 118.78 C 94.01 118.30 93.04 118.49 92.55 119.20 Z M 92.01 120.01 L 91.45 120.83 C 90.96 121.54 91.13 122.51 91.84 123.00 C 92.55 123.49 93.52 123.31 94.01 122.60 L 94.58 121.79 C 95.07 121.08 94.89 120.10 94.18 119.61 C 93.47 119.12 92.50 119.30 92.01 120.01 Z M 91.45 120.81 L 90.88 121.63 C 90.38 122.33 90.55 123.31 91.25 123.80 C 91.96 124.30 92.93 124.13 93.43 123.43 L 94.00 122.61 C 94.50 121.91 94.33 120.94 93.63 120.44 C 92.93 119.94 91.95 120.11 91.45 120.81 Z M 90.89 121.61 L 90.30 122.43 C 89.80 123.13 89.95 124.10 90.65 124.61 C 91.35 125.11 92.33 124.95 92.83 124.26 L 93.42 123.44 C 93.93 122.74 93.77 121.77 93.07 121.26 C 92.37 120.76 91.39 120.92 90.89 121.61 Z M 90.31 122.42 L 89.71 123.24 C 89.20 123.93 89.35 124.91 90.04 125.42 C 90.74 125.93 91.72 125.78 92.23 125.08 L 92.83 124.27 C 93.34 123.57 93.19 122.59 92.49 122.08 C 91.80 121.57 90.82 121.72 90.31 122.42 Z M 89.72 123.23 L 89.11 124.04 C 88.60 124.73 88.74 125.71 89.43 126.22 C 90.12 126.74 91.10 126.59 91.61 125.90 L 92.22 125.09 C 92.73 124.40 92.59 123.42 91.90 122.91 C 91.21 122.39 90.23 122.54 89.72 123.23 Z M 89.12 124.03 L 88.51 124.83 C 87.99 125.52 88.12 126.50 88.81 127.02 C 89.50 127.54 90.48 127.41 91.00 126.72 L 91.61 125.91 C 92.13 125.22 91.99 124.24 91.31 123.72 C 90.62 123.20 89.64 123.34 89.12 124.03 Z M 88.51 124.83 L 87.90 125.63 C 87.37 126.31 87.50 127.29 88.19 127.82 C 88.87 128.34 89.85 128.21 90.38 127.53 L 90.99 126.73 C 91.52 126.04 91.39 125.06 90.70 124.54 C 90.02 124.01 89.04 124.14 88.51 124.83 Z M 87.90 125.62 L 87.29 126.41 C 86.76 127.09 86.89 128.07 87.57 128.60 C 88.25 129.13 89.23 129.01 89.76 128.33 L 90.37 127.54 C 90.90 126.85 90.78 125.87 90.09 125.35 C 89.41 124.82 88.43 124.94 87.90 125.62 Z M 87.30 126.40 L 86.69 127.18 C 86.16 127.86 86.28 128.84 86.95 129.37 C 87.63 129.90 88.61 129.78 89.15 129.11 L 89.75 128.33 C 90.28 127.65 90.17 126.67 89.49 126.14 C 88.81 125.61 87.83 125.73 87.30 126.40 Z M 86.70 127.17 L 86.08 127.95 C 85.54 128.62 85.65 129.60 86.33 130.14 C 87.00 130.68 87.99 130.56 88.52 129.89 L 89.14 129.11 C 89.68 128.44 89.56 127.46 88.89 126.92 C 88.21 126.38 87.23 126.50 86.70 127.17 Z M 86.08 127.94 L 85.46 128.71 C 84.92 129.39 85.03 130.37 85.70 130.91 C 86.38 131.45 87.36 131.34 87.90 130.67 L 88.52 129.90 C 89.06 129.22 88.95 128.24 88.28 127.70 C 87.61 127.16 86.62 127.27 86.08 127.94 Z M 85.47 128.71 L 84.85 129.47 C 84.31 130.14 84.41 131.12 85.08 131.67 C 85.75 132.21 86.73 132.11 87.27 131.44 L 87.89 130.67 C 88.44 130.00 88.33 129.02 87.66 128.48 C 86.99 127.93 86.01 128.04 85.47 128.71 Z M 84.85 129.47 L 84.22 130.24 C 83.68 130.91 83.78 131.89 84.45 132.43 C 85.11 132.98 86.10 132.88 86.64 132.21 L 87.27 131.44 C 87.82 130.77 87.72 129.79 87.05 129.25 C 86.38 128.70 85.40 128.80 84.85 129.47 Z M 84.23 130.23 L 83.58 131.02 C 83.03 131.69 83.13 132.67 83.80 133.22 C 84.46 133.77 85.45 133.67 85.99 133.00 L 86.64 132.21 C 87.19 131.55 87.09 130.56 86.42 130.02 C 85.76 129.47 84.77 129.57 84.23 130.23 Z M 83.58 131.02 L 82.95 131.79 C 82.40 132.45 82.50 133.44 83.17 133.98 C 83.83 134.53 84.82 134.44 85.36 133.77 L 85.99 133.00 C 86.54 132.34 86.44 131.35 85.78 130.81 C 85.11 130.26 84.13 130.36 83.58 131.02 Z M 82.95 131.79 L 82.32 132.56 C 81.77 133.22 81.87 134.21 82.53 134.75 C 83.20 135.30 84.18 135.21 84.73 134.54 L 85.36 133.77 C 85.91 133.10 85.82 132.12 85.15 131.57 C 84.48 131.02 83.50 131.12 82.95 131.79 Z M 82.32 132.56 L 81.68 133.34 C 81.13 134.00 81.22 134.99 81.89 135.54 C 82.55 136.08 83.54 135.99 84.09 135.32 L 84.73 134.54 C 85.28 133.87 85.18 132.89 84.52 132.34 C 83.85 131.80 82.87 131.89 82.32 132.56 Z M 81.68 133.34 L 81.03 134.12 C 80.48 134.79 80.58 135.77 81.24 136.32 C 81.91 136.87 82.89 136.77 83.44 136.11 L 84.09 135.32 C 84.63 134.66 84.54 133.67 83.87 133.12 C 83.21 132.58 82.22 132.67 81.68 133.34 Z M 81.03 134.12 L 80.39 134.90 C 79.85 135.56 79.94 136.55 80.61 137.09 C 81.27 137.64 82.26 137.55 82.80 136.88 L 83.44 136.11 C 83.99 135.44 83.89 134.46 83.23 133.91 C 82.56 133.36 81.58 133.46 81.03 134.12 Z M 80.39 134.90 L 79.74 135.69 C 79.19 136.36 79.29 137.34 79.95 137.89 C 80.62 138.44 81.60 138.34 82.15 137.67 L 82.81 136.88 C 83.35 136.21 83.26 135.23 82.59 134.68 C 81.92 134.13 80.94 134.23 80.39 134.90 Z M 79.74 135.69 L 79.07 136.51 C 78.52 137.18 78.62 138.16 79.28 138.71 C 79.95 139.26 80.93 139.16 81.48 138.49 L 82.15 137.67 C 82.70 137.01 82.60 136.02 81.94 135.48 C 81.27 134.93 80.29 135.03 79.74 135.69 Z M 79.07 136.51 L 78.42 137.30 C 77.87 137.97 77.97 138.95 78.64 139.50 C 79.30 140.04 80.29 139.95 80.83 139.28 L 81.48 138.49 C 82.03 137.83 81.93 136.84 81.26 136.30 C 80.60 135.75 79.61 135.85 79.07 136.51 Z M 78.42 137.30 L 77.80 138.06 C 77.25 138.72 77.35 139.71 78.01 140.25 C 78.68 140.80 79.67 140.70 80.21 140.04 L 80.83 139.28 C 81.38 138.61 81.28 137.63 80.62 137.08 C 79.95 136.54 78.97 136.63 78.42 137.30 Z M 77.80 138.06 L 77.20 138.78 C 76.66 139.45 76.75 140.43 77.42 140.98 C 78.09 141.53 79.07 141.43 79.62 140.76 L 80.21 140.04 C 80.76 139.37 80.66 138.39 80.00 137.84 C 79.33 137.29 78.34 137.39 77.80 138.06 Z M 77.20 138.78 L 76.57 139.56 C 76.02 140.23 76.12 141.21 76.78 141.76 C 77.45 142.30 78.43 142.21 78.98 141.54 L 79.62 140.76 C 80.17 140.10 80.07 139.11 79.40 138.56 C 78.74 138.02 77.75 138.11 77.20 138.78 Z M 76.57 139.56 L 75.92 140.35 C 75.37 141.01 75.47 142.00 76.13 142.54 C 76.80 143.09 77.78 143.00 78.33 142.33 L 78.98 141.54 C 79.53 140.88 79.43 139.89 78.76 139.34 C 78.10 138.80 77.11 138.89 76.57 139.56 Z M 75.92 140.34 L 75.29 141.10 C 74.74 141.77 74.84 142.75 75.50 143.30 C 76.16 143.85 77.15 143.76 77.70 143.09 L 78.33 142.33 C 78.88 141.67 78.78 140.69 78.12 140.14 C 77.46 139.59 76.47 139.68 75.92 140.34 Z M 75.30 141.10 L 74.68 141.84 C 74.13 142.50 74.21 143.48 74.87 144.04 C 75.54 144.59 76.52 144.50 77.07 143.84 L 77.69 143.10 C 78.25 142.44 78.16 141.45 77.50 140.90 C 76.84 140.35 75.85 140.43 75.30 141.10 Z M 74.68 141.83 L 74.04 142.59 C 73.48 143.25 73.57 144.23 74.22 144.79 C 74.88 145.35 75.87 145.27 76.42 144.61 L 77.07 143.85 C 77.62 143.19 77.54 142.20 76.88 141.65 C 76.23 141.09 75.24 141.17 74.68 141.83 Z M 74.04 142.59 L 73.39 143.36 C 72.83 144.01 72.91 145.00 73.57 145.56 C 74.22 146.12 75.21 146.04 75.77 145.38 L 76.42 144.61 C 76.98 143.95 76.90 142.97 76.24 142.41 C 75.59 141.85 74.60 141.93 74.04 142.59 Z M 73.39 143.36 L 72.74 144.13 C 72.18 144.78 72.27 145.77 72.92 146.33 C 73.58 146.88 74.57 146.80 75.12 146.14 L 75.77 145.38 C 76.33 144.72 76.24 143.73 75.59 143.18 C 74.93 142.62 73.94 142.70 73.39 143.36 Z M 72.73 144.14 L 72.10 144.89 C 71.55 145.56 71.64 146.54 72.31 147.09 C 72.97 147.64 73.96 147.55 74.51 146.89 L 75.13 146.13 C 75.68 145.47 75.59 144.48 74.93 143.93 C 74.27 143.38 73.28 143.47 72.73 144.14 Z M 72.09 144.91 L 71.50 145.65 C 70.96 146.32 71.06 147.30 71.73 147.84 C 72.40 148.38 73.39 148.28 73.93 147.61 L 74.52 146.87 C 75.06 146.20 74.96 145.21 74.28 144.67 C 73.61 144.13 72.63 144.24 72.09 144.91 Z M 71.48 145.66 L 70.89 146.41 C 70.36 147.09 70.48 148.07 71.16 148.61 C 71.84 149.14 72.82 149.02 73.35 148.34 L 73.94 147.59 C 74.47 146.91 74.35 145.93 73.68 145.40 C 73.00 144.87 72.02 144.98 71.48 145.66 Z M 70.89 146.42 L 70.27 147.22 C 69.74 147.90 69.87 148.88 70.55 149.41 C 71.23 149.94 72.21 149.81 72.74 149.13 L 73.36 148.33 C 73.88 147.65 73.76 146.67 73.08 146.14 C 72.40 145.62 71.42 145.74 70.89 146.42 Z M 70.27 147.22 L 69.61 148.08 C 69.08 148.76 69.21 149.74 69.89 150.27 C 70.57 150.80 71.55 150.67 72.08 149.99 L 72.74 149.13 C 73.27 148.45 73.14 147.47 72.46 146.94 C 71.78 146.41 70.80 146.54 70.27 147.22 Z M 69.61 148.08 L 69.03 148.83 C 68.50 149.51 68.62 150.49 69.31 151.02 C 69.99 151.55 70.97 151.42 71.50 150.74 L 72.08 149.99 C 72.61 149.31 72.48 148.33 71.80 147.80 C 71.12 147.27 70.14 147.40 69.61 148.08 Z M 69.03 148.83 L 68.41 149.62 C 67.89 150.31 68.01 151.29 68.69 151.81 C 69.38 152.34 70.36 152.22 70.88 151.53 L 71.50 150.74 C 72.02 150.06 71.90 149.08 71.22 148.55 C 70.53 148.02 69.55 148.15 69.03 148.83 Z M 68.41 149.63 L 67.78 150.44 C 67.26 151.13 67.39 152.11 68.07 152.63 C 68.76 153.16 69.74 153.03 70.26 152.34 L 70.89 151.53 C 71.41 150.85 71.28 149.87 70.60 149.34 C 69.91 148.82 68.93 148.94 68.41 149.63 Z M 67.78 150.45 L 67.16 151.27 C 66.64 151.95 66.77 152.93 67.46 153.45 C 68.15 153.97 69.13 153.84 69.65 153.15 L 70.27 152.34 C 70.79 151.65 70.65 150.67 69.97 150.15 C 69.28 149.63 68.30 149.76 67.78 150.45 Z M 67.15 151.28 L 66.54 152.09 C 66.03 152.78 66.17 153.76 66.86 154.28 C 67.56 154.79 68.53 154.65 69.05 153.96 L 69.66 153.14 C 70.17 152.45 70.03 151.47 69.34 150.96 C 68.64 150.44 67.67 150.59 67.15 151.28 Z M 66.53 152.11 L 65.91 152.96 C 65.41 153.66 65.56 154.64 66.26 155.14 C 66.96 155.65 67.93 155.49 68.44 154.80 L 69.06 153.94 C 69.57 153.24 69.41 152.27 68.71 151.76 C 68.02 151.25 67.04 151.41 66.53 152.11 Z M 65.90 152.98 L 65.32 153.80 C 64.82 154.50 64.99 155.48 65.69 155.98 C 66.40 156.47 67.37 156.31 67.87 155.60 L 68.45 154.78 C 68.95 154.08 68.78 153.10 68.08 152.60 C 67.37 152.11 66.40 152.27 65.90 152.98 Z M 65.31 153.81 L 64.76 154.61 C 64.27 155.32 64.44 156.30 65.15 156.79 C 65.86 157.28 66.83 157.10 67.32 156.39 L 67.88 155.59 C 68.37 154.88 68.19 153.91 67.48 153.42 C 66.77 152.93 65.80 153.10 65.31 153.81 Z M 64.75 154.63 L 64.21 155.42 C 63.73 156.13 63.91 157.10 64.63 157.58 C 65.34 158.07 66.31 157.88 66.79 157.17 L 67.33 156.38 C 67.82 155.67 67.63 154.70 66.92 154.21 C 66.20 153.73 65.23 153.91 64.75 154.63 Z M 64.21 155.42 L 63.65 156.25 C 63.17 156.96 63.36 157.93 64.08 158.41 C 64.80 158.89 65.77 158.70 66.25 157.99 L 66.80 157.16 C 67.28 156.45 67.09 155.48 66.37 155.00 C 65.66 154.52 64.69 154.71 64.21 155.42 Z M 63.65 156.25 L 63.10 157.09 C 62.62 157.81 62.81 158.77 63.53 159.25 C 64.25 159.73 65.22 159.53 65.70 158.82 L 66.25 157.98 C 66.73 157.26 66.53 156.30 65.81 155.82 C 65.10 155.34 64.13 155.54 63.65 156.25 Z M 63.09 157.09 L 62.54 157.92 C 62.07 158.64 62.26 159.61 62.98 160.09 C 63.70 160.56 64.67 160.36 65.15 159.65 L 65.70 158.81 C 66.17 158.09 65.98 157.12 65.26 156.65 C 64.54 156.17 63.57 156.37 63.09 157.09 Z M 62.54 157.93 L 61.99 158.76 C 61.52 159.48 61.72 160.45 62.44 160.92 C 63.16 161.40 64.13 161.20 64.60 160.48 L 65.15 159.64 C 65.62 158.92 65.42 157.95 64.70 157.48 C 63.98 157.01 63.01 157.21 62.54 157.93 Z M 61.99 158.76 L 61.83 159.01 C 61.35 159.73 61.55 160.70 62.27 161.17 C 62.99 161.65 63.96 161.45 64.44 160.73 L 64.60 160.48 C 65.07 159.76 64.87 158.79 64.15 158.31 C 63.43 157.84 62.47 158.04 61.99 158.76 Z"
      fill="black"
      fill-rule="nonzero" /><path d="M 106.41 106.22 L 107.44 106.32 C 108.30 106.40 109.06 105.78 109.15 104.92 C 109.23 104.06 108.61 103.30 107.75 103.21 L 106.72 103.11 C 105.86 103.02 105.10 103.65 105.01 104.51 C 104.93 105.37 105.55 106.13 106.41 106.22 Z M 107.47 106.32 L 108.48 106.40 C 109.34 106.47 110.10 105.83 110.16 104.97 C 110.23 104.11 109.59 103.36 108.73 103.29 L 107.72 103.21 C 106.86 103.14 106.11 103.78 106.04 104.64 C 105.97 105.50 106.61 106.25 107.47 106.32 Z M 108.55 106.41 L 109.53 106.45 C 110.40 106.48 111.12 105.81 111.16 104.95 C 111.19 104.09 110.52 103.36 109.66 103.33 L 108.67 103.29 C 107.81 103.25 107.08 103.92 107.05 104.78 C 107.01 105.65 107.68 106.37 108.55 106.41 Z M 109.64 106.45 L 110.59 106.42 C 111.45 106.40 112.13 105.69 112.11 104.82 C 112.09 103.96 111.38 103.28 110.51 103.30 L 109.56 103.33 C 108.70 103.35 108.01 104.06 108.04 104.92 C 108.06 105.79 108.77 106.47 109.64 106.45 Z M 110.73 106.41 L 111.69 106.31 C 112.54 106.21 113.16 105.44 113.06 104.58 C 112.97 103.73 112.20 103.11 111.34 103.20 L 110.38 103.31 C 109.52 103.41 108.91 104.18 109.00 105.03 C 109.10 105.89 109.87 106.51 110.73 106.41 Z M 111.80 106.29 L 112.75 106.11 C 113.60 105.95 114.16 105.14 114.00 104.29 C 113.84 103.44 113.03 102.88 112.18 103.04 L 111.23 103.22 C 110.38 103.38 109.82 104.19 109.98 105.04 C 110.14 105.89 110.95 106.45 111.80 106.29 Z M 112.82 106.10 L 113.82 105.86 C 114.66 105.67 115.18 104.83 114.98 103.99 C 114.78 103.15 113.94 102.63 113.11 102.82 L 112.11 103.06 C 111.27 103.25 110.75 104.10 110.95 104.93 C 111.15 105.77 111.99 106.29 112.82 106.10 Z M 113.84 105.86 L 114.79 105.62 C 115.62 105.41 116.13 104.56 115.92 103.72 C 115.71 102.89 114.86 102.38 114.02 102.59 L 113.08 102.83 C 112.24 103.04 111.74 103.89 111.95 104.73 C 112.16 105.56 113.01 106.07 113.84 105.86 Z M 114.79 105.62 L 115.67 105.40 C 116.51 105.18 117.02 104.34 116.80 103.50 C 116.59 102.66 115.74 102.16 114.91 102.37 L 114.02 102.59 C 113.19 102.80 112.68 103.65 112.89 104.49 C 113.10 105.32 113.95 105.83 114.79 105.62 Z M 115.67 105.40 L 116.61 105.16 C 117.45 104.96 117.96 104.11 117.76 103.27 C 117.55 102.44 116.70 101.93 115.87 102.13 L 114.92 102.37 C 114.08 102.57 113.57 103.42 113.78 104.26 C 113.98 105.09 114.83 105.60 115.67 105.40 Z M 116.60 105.17 L 117.61 104.93 C 118.45 104.73 118.97 103.89 118.77 103.05 C 118.57 102.21 117.73 101.69 116.89 101.89 L 115.88 102.13 C 115.04 102.33 114.52 103.17 114.72 104.01 C 114.92 104.85 115.76 105.37 116.60 105.17 Z M 117.59 104.93 L 118.67 104.69 C 119.51 104.50 120.04 103.67 119.85 102.83 C 119.66 101.99 118.83 101.46 117.99 101.64 L 116.91 101.88 C 116.07 102.07 115.54 102.91 115.73 103.75 C 115.92 104.59 116.75 105.12 117.59 104.93 Z M 118.65 104.70 L 119.66 104.48 C 120.51 104.31 121.05 103.48 120.87 102.64 C 120.70 101.79 119.87 101.25 119.03 101.43 L 118.01 101.64 C 117.16 101.82 116.62 102.64 116.80 103.49 C 116.97 104.33 117.80 104.87 118.65 104.70 Z M 119.64 104.49 L 120.65 104.29 C 121.50 104.13 122.05 103.31 121.89 102.46 C 121.72 101.61 120.90 101.06 120.05 101.23 L 119.05 101.42 C 118.20 101.59 117.65 102.41 117.81 103.26 C 117.98 104.10 118.80 104.65 119.64 104.49 Z M 120.64 104.29 L 121.65 104.11 C 122.50 103.95 123.06 103.14 122.91 102.29 C 122.75 101.44 121.94 100.88 121.09 101.04 L 120.07 101.22 C 119.22 101.38 118.66 102.19 118.82 103.04 C 118.97 103.89 119.79 104.45 120.64 104.29 Z M 121.64 104.11 L 122.64 103.94 C 123.49 103.79 124.06 102.98 123.91 102.13 C 123.76 101.28 122.96 100.71 122.11 100.86 L 121.10 101.03 C 120.25 101.18 119.68 101.99 119.83 102.84 C 119.98 103.69 120.79 104.26 121.64 104.11 Z M 122.62 103.94 L 123.59 103.78 C 124.44 103.64 125.02 102.84 124.88 101.99 C 124.74 101.14 123.94 100.56 123.09 100.70 L 122.12 100.86 C 121.27 101.00 120.69 101.80 120.83 102.65 C 120.97 103.50 121.77 104.08 122.62 103.94 Z M 123.57 103.79 L 124.54 103.64 C 125.39 103.51 125.98 102.71 125.85 101.86 C 125.72 101.01 124.92 100.42 124.07 100.55 L 123.10 100.70 C 122.25 100.83 121.67 101.62 121.79 102.47 C 121.92 103.33 122.72 103.91 123.57 103.79 Z M 124.51 103.64 L 125.61 103.49 C 126.46 103.38 127.06 102.59 126.94 101.74 C 126.83 100.88 126.04 100.28 125.18 100.40 L 124.09 100.55 C 123.24 100.67 122.64 101.45 122.76 102.31 C 122.87 103.16 123.66 103.76 124.51 103.64 Z M 125.58 103.50 L 126.58 103.38 C 127.43 103.28 128.04 102.50 127.94 101.64 C 127.84 100.79 127.06 100.18 126.21 100.28 L 125.21 100.40 C 124.35 100.50 123.74 101.28 123.85 102.13 C 123.95 102.99 124.72 103.60 125.58 103.50 Z M 126.55 103.38 L 127.49 103.28 C 128.35 103.19 128.97 102.43 128.88 101.57 C 128.79 100.71 128.02 100.09 127.17 100.18 L 126.23 100.28 C 125.37 100.36 124.75 101.13 124.84 101.99 C 124.93 102.85 125.70 103.47 126.55 103.38 Z M 127.47 103.29 L 128.38 103.20 C 129.24 103.12 129.87 102.36 129.79 101.50 C 129.72 100.65 128.96 100.01 128.10 100.09 L 127.18 100.18 C 126.33 100.26 125.69 101.02 125.77 101.87 C 125.85 102.73 126.61 103.36 127.47 103.29 Z M 128.37 103.20 L 129.36 103.12 C 130.22 103.05 130.86 102.29 130.79 101.44 C 130.71 100.58 129.96 99.94 129.10 100.01 L 128.11 100.09 C 127.25 100.16 126.61 100.92 126.68 101.78 C 126.76 102.64 127.51 103.27 128.37 103.20 Z M 129.35 103.12 L 130.34 103.05 C 131.20 102.98 131.85 102.23 131.78 101.37 C 131.72 100.51 130.97 99.87 130.11 99.93 L 129.11 100.01 C 128.25 100.07 127.61 100.82 127.67 101.68 C 127.74 102.54 128.49 103.19 129.35 103.12 Z M 130.33 103.05 L 131.33 102.98 C 132.19 102.93 132.84 102.18 132.79 101.32 C 132.73 100.46 131.99 99.81 131.13 99.87 L 130.12 99.93 C 129.26 99.99 128.61 100.73 128.67 101.59 C 128.73 102.45 129.47 103.10 130.33 103.05 Z M 131.31 102.98 L 132.32 102.93 C 133.18 102.88 133.84 102.14 133.79 101.28 C 133.74 100.42 133.00 99.76 132.14 99.81 L 131.14 99.87 C 130.28 99.91 129.62 100.65 129.67 101.51 C 129.72 102.37 130.45 103.03 131.31 102.98 Z M 132.30 102.93 L 133.30 102.88 C 134.16 102.84 134.83 102.11 134.79 101.25 C 134.75 100.39 134.02 99.72 133.16 99.76 L 132.16 99.81 C 131.30 99.85 130.63 100.58 130.67 101.44 C 130.71 102.30 131.44 102.97 132.30 102.93 Z M 133.29 102.88 L 134.29 102.84 C 135.15 102.81 135.82 102.08 135.79 101.22 C 135.76 100.36 135.03 99.69 134.17 99.72 L 133.17 99.76 C 132.31 99.80 131.64 100.52 131.67 101.38 C 131.70 102.24 132.43 102.92 133.29 102.88 Z M 134.28 102.84 L 135.28 102.81 C 136.15 102.78 136.82 102.06 136.79 101.19 C 136.76 100.33 136.04 99.66 135.17 99.69 L 134.18 99.72 C 133.31 99.75 132.64 100.48 132.67 101.34 C 132.70 102.20 133.42 102.87 134.28 102.84 Z M 135.28 102.81 L 136.28 102.78 C 137.15 102.75 137.82 102.02 137.79 101.16 C 137.76 100.30 137.04 99.63 136.18 99.65 L 135.18 99.69 C 134.32 99.72 133.64 100.44 133.67 101.30 C 133.70 102.16 134.42 102.84 135.28 102.81 Z M 136.28 102.78 L 137.29 102.74 C 138.16 102.71 138.83 101.99 138.80 101.13 C 138.78 100.27 138.05 99.59 137.19 99.62 L 136.18 99.65 C 135.32 99.68 134.64 100.40 134.67 101.27 C 134.70 102.13 135.42 102.80 136.28 102.78 Z M 137.29 102.74 L 138.29 102.71 C 139.15 102.69 139.83 101.97 139.81 101.11 C 139.78 100.25 139.06 99.57 138.20 99.59 L 137.20 99.62 C 136.34 99.65 135.66 100.37 135.68 101.23 C 135.71 102.09 136.43 102.77 137.29 102.74 Z M 138.28 102.71 L 139.27 102.69 C 140.13 102.67 140.82 101.95 140.80 101.09 C 140.78 100.23 140.06 99.55 139.20 99.57 L 138.21 99.59 C 137.35 99.61 136.66 100.33 136.68 101.19 C 136.71 102.05 137.42 102.73 138.28 102.71 Z M 139.26 102.69 L 140.27 102.67 C 141.14 102.66 141.82 101.95 141.81 101.09 C 141.79 100.22 141.08 99.54 140.22 99.55 L 139.21 99.57 C 138.35 99.58 137.66 100.29 137.67 101.15 C 137.69 102.02 138.40 102.70 139.26 102.69 Z M 140.26 102.67 L 141.28 102.66 C 142.14 102.66 142.84 101.95 142.83 101.09 C 142.82 100.23 142.12 99.54 141.25 99.54 L 140.23 99.55 C 139.37 99.56 138.68 100.26 138.69 101.13 C 138.69 101.99 139.40 102.68 140.26 102.67 Z M 141.27 102.66 L 142.27 102.66 C 143.13 102.66 143.82 101.96 143.82 101.10 C 143.82 100.23 143.12 99.54 142.26 99.54 L 141.26 99.54 C 140.40 99.55 139.70 100.25 139.71 101.11 C 139.71 101.97 140.41 102.67 141.27 102.66 Z M 142.26 102.66 L 143.22 102.66 C 144.09 102.66 144.79 101.96 144.79 101.10 C 144.78 100.24 144.09 99.54 143.22 99.54 L 142.26 99.54 C 141.40 99.54 140.70 100.24 140.70 101.10 C 140.70 101.96 141.40 102.66 142.26 102.66 Z M 143.22 102.66 L 144.14 102.66 C 145.01 102.66 145.71 101.96 145.71 101.10 C 145.71 100.24 145.01 99.54 144.14 99.54 L 143.22 99.54 C 142.36 99.54 141.66 100.24 141.66 101.10 C 141.66 101.96 142.36 102.66 143.22 102.66 Z M 144.14 102.66 L 145.10 102.66 C 145.96 102.66 146.66 101.96 146.66 101.10 C 146.66 100.24 145.96 99.54 145.10 99.54 L 144.14 99.54 C 143.28 99.54 142.58 100.24 142.58 101.10 C 142.58 101.96 143.28 102.66 144.14 102.66 Z M 145.10 102.66 L 146.14 102.66 C 147.00 102.66 147.70 101.96 147.70 101.10 C 147.70 100.24 147.00 99.54 146.14 99.54 L 145.10 99.54 C 144.23 99.54 143.53 100.24 143.53 101.10 C 143.53 101.96 144.23 102.66 145.10 102.66 Z M 146.14 102.66 L 147.20 102.66 C 148.06 102.66 148.76 101.96 148.76 101.10 C 148.76 100.24 148.06 99.54 147.20 99.54 L 146.14 99.54 C 145.27 99.54 144.57 100.24 144.57 101.10 C 144.57 101.96 145.27 102.66 146.14 102.66 Z M 147.20 102.66 L 148.19 102.66 C 149.05 102.66 149.75 101.96 149.75 101.10 C 149.75 100.24 149.05 99.54 148.19 99.54 L 147.20 99.54 C 146.34 99.54 145.64 100.24 145.64 101.10 C 145.64 101.96 146.34 102.66 147.20 102.66 Z M 148.19 102.66 L 149.23 102.66 C 150.09 102.66 150.79 101.96 150.79 101.10 C 150.79 100.24 150.09 99.54 149.23 99.54 L 148.19 99.54 C 147.33 99.54 146.63 100.24 146.63 101.10 C 146.63 101.96 147.33 102.66 148.19 102.66 Z M 149.23 102.66 L 150.26 102.66 C 151.12 102.66 151.82 101.96 151.82 101.10 C 151.82 100.24 151.12 99.54 150.26 99.54 L 149.23 99.54 C 148.36 99.54 147.67 100.24 147.67 101.10 C 147.67 101.96 148.36 102.66 149.23 102.66 Z M 150.26 102.66 L 151.25 102.66 C 152.11 102.66 152.81 101.96 152.81 101.10 C 152.81 100.24 152.11 99.54 151.25 99.54 L 150.26 99.54 C 149.40 99.54 148.70 100.24 148.70 101.10 C 148.70 101.96 149.40 102.66 150.26 102.66 Z M 151.25 102.66 L 152.34 102.66 C 153.20 102.66 153.90 101.96 153.90 101.10 C 153.90 100.24 153.20 99.54 152.34 99.54 L 151.25 99.54 C 150.39 99.54 149.69 100.24 149.69 101.10 C 149.69 101.96 150.39 102.66 151.25 102.66 Z M 152.33 102.66 L 153.38 102.66 C 154.25 102.66 154.95 101.97 154.95 101.10 C 154.95 100.24 154.25 99.54 153.39 99.54 L 152.34 99.54 C 151.48 99.54 150.78 100.24 150.77 101.10 C 150.77 101.96 151.47 102.66 152.33 102.66 Z M 153.38 102.66 L 154.32 102.67 C 155.18 102.68 155.89 101.98 155.89 101.12 C 155.90 100.26 155.20 99.55 154.34 99.55 L 153.40 99.54 C 152.53 99.54 151.83 100.23 151.83 101.09 C 151.82 101.95 152.51 102.66 153.38 102.66 Z M 154.31 102.67 L 155.20 102.68 C 156.06 102.70 156.77 102.01 156.79 101.15 C 156.80 100.29 156.11 99.58 155.25 99.56 L 154.35 99.55 C 153.49 99.53 152.78 100.22 152.77 101.08 C 152.76 101.95 153.44 102.66 154.31 102.67 Z M 155.18 102.68 L 156.18 102.71 C 157.05 102.73 157.76 102.05 157.79 101.19 C 157.81 100.33 157.13 99.61 156.27 99.59 L 155.27 99.56 C 154.41 99.54 153.69 100.22 153.67 101.08 C 153.64 101.94 154.32 102.66 155.18 102.68 Z M 156.17 102.71 L 157.17 102.75 C 158.03 102.78 158.75 102.10 158.78 101.24 C 158.81 100.38 158.14 99.66 157.28 99.63 L 156.28 99.59 C 155.42 99.56 154.70 100.23 154.67 101.09 C 154.64 101.96 155.31 102.68 156.17 102.71 Z M 157.16 102.75 L 158.16 102.79 C 159.02 102.82 159.75 102.15 159.78 101.29 C 159.82 100.43 159.15 99.70 158.29 99.67 L 157.29 99.63 C 156.42 99.59 155.70 100.26 155.66 101.12 C 155.63 101.98 156.30 102.71 157.16 102.75 Z M 158.16 102.79 L 159.14 102.83 C 160.00 102.86 160.73 102.19 160.77 101.33 C 160.80 100.47 160.13 99.74 159.27 99.71 L 158.29 99.67 C 157.43 99.63 156.70 100.30 156.66 101.16 C 156.63 102.03 157.30 102.75 158.16 102.79 Z M 159.15 102.83 L 160.15 102.86 C 161.01 102.89 161.73 102.22 161.76 101.36 C 161.79 100.49 161.12 99.77 160.26 99.74 L 159.26 99.71 C 158.40 99.67 157.68 100.35 157.65 101.21 C 157.61 102.07 158.29 102.79 159.15 102.83 Z M 160.16 102.86 L 161.17 102.89 C 162.04 102.91 162.75 102.23 162.78 101.37 C 162.80 100.51 162.12 99.79 161.26 99.77 L 160.24 99.74 C 159.38 99.72 158.66 100.40 158.64 101.26 C 158.62 102.12 159.30 102.84 160.16 102.86 Z M 161.19 102.89 L 162.17 102.91 C 163.04 102.92 163.75 102.23 163.76 101.37 C 163.77 100.51 163.09 99.80 162.22 99.78 L 161.24 99.77 C 160.38 99.75 159.67 100.44 159.66 101.30 C 159.64 102.17 160.33 102.88 161.19 102.89 Z M 162.19 102.91 L 163.18 102.91 C 164.04 102.92 164.74 102.23 164.75 101.36 C 164.76 100.50 164.06 99.80 163.20 99.79 L 162.21 99.78 C 161.35 99.78 160.64 100.47 160.64 101.33 C 160.63 102.20 161.32 102.90 162.19 102.91 Z M 163.18 102.91 L 164.20 102.92 C 165.06 102.92 165.76 102.22 165.76 101.36 C 165.76 100.50 165.07 99.80 164.20 99.79 L 163.19 99.79 C 162.33 99.79 161.63 100.49 161.63 101.35 C 161.63 102.21 162.32 102.91 163.18 102.91 Z M 164.20 102.92 L 165.21 102.92 C 166.08 102.92 166.78 102.22 166.78 101.35 C 166.78 100.49 166.08 99.79 165.21 99.79 L 164.20 99.79 C 163.34 99.79 162.64 100.49 162.64 101.35 C 162.64 102.22 163.34 102.92 164.20 102.92 Z M 165.21 102.92 L 166.20 102.92 C 167.07 102.92 167.77 102.22 167.77 101.35 C 167.77 100.49 167.07 99.79 166.20 99.79 L 165.21 99.79 C 164.35 99.79 163.65 100.49 163.65 101.35 C 163.65 102.22 164.35 102.92 165.21 102.92 Z M 166.20 102.92 L 167.21 102.92 C 168.07 102.92 168.77 102.22 168.77 101.35 C 168.77 100.49 168.07 99.79 167.21 99.79 L 166.20 99.79 C 165.34 99.79 164.64 100.49 164.64 101.35 C 164.64 102.22 165.34 102.92 166.20 102.92 Z M 167.21 102.92 L 168.22 102.92 C 169.08 102.92 169.78 102.22 169.78 101.35 C 169.78 100.49 169.08 99.79 168.22 99.79 L 167.21 99.79 C 166.34 99.79 165.65 100.49 165.65 101.35 C 165.65 102.22 166.34 102.92 167.21 102.92 Z M 168.22 102.92 L 169.23 102.92 C 170.09 102.92 170.79 102.22 170.79 101.35 C 170.79 100.49 170.09 99.79 169.23 99.79 L 168.22 99.79 C 167.36 99.79 166.66 100.49 166.66 101.35 C 166.66 102.22 167.36 102.92 168.22 102.92 Z M 169.23 102.92 L 170.23 102.92 C 171.09 102.92 171.79 102.22 171.79 101.35 C 171.79 100.49 171.09 99.79 170.23 99.79 L 169.23 99.79 C 168.36 99.79 167.67 100.49 167.67 101.35 C 167.67 102.22 168.36 102.92 169.23 102.92 Z M 170.23 102.92 L 171.23 102.92 C 172.09 102.92 172.79 102.22 172.79 101.35 C 172.79 100.49 172.09 99.79 171.23 99.79 L 170.23 99.79 C 169.37 99.79 168.67 100.49 168.67 101.35 C 168.67 102.22 169.37 102.92 170.23 102.92 Z M 171.23 102.92 L 172.22 102.92 C 173.08 102.92 173.78 102.22 173.78 101.35 C 173.78 100.49 173.08 99.79 172.22 99.79 L 171.23 99.79 C 170.37 99.79 169.67 100.49 169.67 101.35 C 169.67 102.22 170.37 102.92 171.23 102.92 Z M 172.22 102.92 L 173.24 102.92 C 174.10 102.92 174.80 102.22 174.80 101.35 C 174.80 100.49 174.10 99.79 173.24 99.79 L 172.22 99.79 C 171.36 99.79 170.66 100.49 170.66 101.35 C 170.66 102.22 171.36 102.92 172.22 102.92 Z M 173.24 102.92 L 174.25 102.92 C 175.11 102.92 175.81 102.22 175.81 101.35 C 175.81 100.49 175.11 99.79 174.25 99.79 L 173.24 99.79 C 172.38 99.79 171.68 100.49 171.68 101.35 C 171.68 102.22 172.38 102.92 173.24 102.92 Z M 174.25 102.92 L 175.24 102.92 C 176.10 102.92 176.80 102.22 176.80 101.35 C 176.80 100.49 176.10 99.79 175.24 99.79 L 174.25 99.79 C 173.39 99.79 172.69 100.49 172.69 101.35 C 172.69 102.22 173.39 102.92 174.25 102.92 Z M 175.24 102.92 L 176.19 102.92 C 177.05 102.92 177.75 102.22 177.75 101.35 C 177.75 100.49 177.05 99.79 176.19 99.79 L 175.24 99.79 C 174.37 99.79 173.68 100.49 173.68 101.35 C 173.68 102.22 174.37 102.92 175.24 102.92 Z M 176.19 102.92 L 177.11 102.92 C 177.97 102.92 178.67 102.22 178.67 101.35 C 178.67 100.49 177.97 99.79 177.11 99.79 L 176.19 99.79 C 175.32 99.79 174.62 100.49 174.62 101.35 C 174.62 102.22 175.32 102.92 176.19 102.92 Z M 177.11 102.92 L 178.09 102.92 C 178.95 102.92 179.65 102.22 179.65 101.35 C 179.65 100.49 178.95 99.79 178.09 99.79 L 177.11 99.79 C 176.25 99.79 175.55 100.49 175.55 101.35 C 175.55 102.22 176.25 102.92 177.11 102.92 Z M 178.09 102.92 L 179.17 102.92 C 180.03 102.92 180.73 102.22 180.73 101.35 C 180.73 100.49 180.03 99.79 179.17 99.79 L 178.09 99.79 C 177.22 99.79 176.53 100.49 176.53 101.35 C 176.53 102.22 177.22 102.92 178.09 102.92 Z M 179.17 102.92 L 180.15 102.92 C 181.02 102.92 181.72 102.22 181.72 101.35 C 181.72 100.49 181.02 99.79 180.15 99.79 L 179.17 99.79 C 178.30 99.79 177.61 100.49 177.61 101.35 C 177.61 102.22 178.30 102.92 179.17 102.92 Z M 180.15 102.92 L 181.11 102.92 C 181.98 102.92 182.68 102.22 182.68 101.35 C 182.68 100.49 181.98 99.79 181.11 99.79 L 180.15 99.79 C 179.29 99.79 178.59 100.49 178.59 101.35 C 178.59 102.22 179.29 102.92 180.15 102.92 Z M 181.11 102.92 L 182.12 102.92 C 182.99 102.92 183.69 102.22 183.69 101.35 C 183.69 100.49 182.99 99.79 182.12 99.79 L 181.11 99.79 C 180.25 99.79 179.55 100.49 179.55 101.35 C 179.55 102.22 180.25 102.92 181.11 102.92 Z M 182.12 102.92 L 183.16 102.92 C 184.03 102.92 184.72 102.22 184.72 101.35 C 184.72 100.49 184.03 99.79 183.16 99.79 L 182.12 99.79 C 181.26 99.79 180.56 100.49 180.56 101.35 C 180.56 102.22 181.26 102.92 182.12 102.92 Z M 183.16 102.92 L 184.21 102.92 C 185.07 102.92 185.77 102.22 185.77 101.35 C 185.77 100.49 185.07 99.79 184.21 99.79 L 183.16 99.79 C 182.30 99.79 181.60 100.49 181.60 101.35 C 181.60 102.22 182.30 102.92 183.16 102.92 Z M 184.21 102.92 L 185.26 102.92 C 186.12 102.92 186.82 102.22 186.82 101.35 C 186.82 100.49 186.12 99.79 185.26 99.79 L 184.21 99.79 C 183.34 99.79 182.65 100.49 182.65 101.35 C 182.65 102.22 183.34 102.92 184.21 102.92 Z M 185.26 102.92 L 186.31 102.92 C 187.17 102.92 187.87 102.22 187.87 101.36 C 187.88 100.50 187.18 99.80 186.32 99.80 L 185.26 99.79 C 184.40 99.79 183.70 100.49 183.70 101.35 C 183.70 102.21 184.40 102.91 185.26 102.92 Z M 186.30 102.92 L 187.32 102.92 C 188.18 102.93 188.88 102.24 188.89 101.37 C 188.90 100.51 188.20 99.81 187.34 99.80 L 186.32 99.80 C 185.46 99.79 184.76 100.48 184.75 101.35 C 184.75 102.21 185.44 102.91 186.30 102.92 Z M 187.30 102.92 L 188.28 102.94 C 189.15 102.95 189.86 102.27 189.87 101.41 C 189.88 100.54 189.20 99.83 188.33 99.82 L 187.35 99.80 C 186.49 99.79 185.78 100.48 185.77 101.34 C 185.75 102.20 186.44 102.91 187.30 102.92 Z M 188.26 102.94 L 189.21 102.97 C 190.07 102.99 190.79 102.32 190.81 101.45 C 190.84 100.59 190.16 99.87 189.30 99.85 L 188.36 99.82 C 187.49 99.79 186.77 100.47 186.75 101.33 C 186.72 102.19 187.40 102.91 188.26 102.94 Z M 189.18 102.97 L 190.19 103.02 C 191.05 103.06 191.78 102.40 191.83 101.54 C 191.87 100.67 191.20 99.94 190.34 99.90 L 189.33 99.85 C 188.47 99.81 187.74 100.47 187.69 101.33 C 187.65 102.19 188.31 102.92 189.18 102.97 Z M 190.15 103.02 L 191.18 103.09 C 192.04 103.15 192.79 102.51 192.85 101.65 C 192.92 100.79 192.27 100.04 191.41 99.98 L 190.38 99.90 C 189.52 99.84 188.77 100.48 188.71 101.34 C 188.65 102.20 189.29 102.95 190.15 103.02 Z M 191.14 103.09 L 192.13 103.18 C 192.99 103.27 193.75 102.64 193.84 101.78 C 193.92 100.92 193.29 100.16 192.44 100.08 L 191.45 99.98 C 190.59 99.90 189.83 100.52 189.74 101.38 C 189.66 102.24 190.29 103.00 191.14 103.09 Z M 192.10 103.18 L 193.05 103.30 C 193.90 103.40 194.68 102.79 194.78 101.93 C 194.89 101.08 194.28 100.30 193.42 100.20 L 192.47 100.08 C 191.62 99.98 190.84 100.59 190.73 101.44 C 190.63 102.30 191.24 103.08 192.10 103.18 Z M 193.01 103.29 L 193.99 103.43 C 194.85 103.55 195.64 102.96 195.76 102.11 C 195.88 101.25 195.29 100.46 194.44 100.34 L 193.45 100.20 C 192.60 100.08 191.81 100.67 191.69 101.53 C 191.57 102.38 192.16 103.17 193.01 103.29 Z M 193.97 103.43 L 194.97 103.59 C 195.82 103.72 196.62 103.14 196.76 102.29 C 196.89 101.44 196.31 100.64 195.46 100.50 L 194.46 100.34 C 193.61 100.21 192.81 100.79 192.67 101.64 C 192.54 102.49 193.12 103.29 193.97 103.43 Z M 194.96 103.59 L 195.94 103.75 C 196.79 103.89 197.60 103.31 197.74 102.46 C 197.88 101.61 197.30 100.81 196.45 100.67 L 195.47 100.51 C 194.62 100.36 193.82 100.94 193.68 101.79 C 193.54 102.64 194.11 103.45 194.96 103.59 Z M 195.95 103.75 L 196.92 103.90 C 197.77 104.04 198.57 103.46 198.70 102.60 C 198.84 101.75 198.26 100.95 197.41 100.82 L 196.44 100.67 C 195.59 100.53 194.79 101.11 194.66 101.96 C 194.52 102.81 195.10 103.61 195.95 103.75 Z M 196.94 103.91 L 197.94 104.05 C 198.79 104.17 199.58 103.57 199.70 102.72 C 199.82 101.87 199.23 101.08 198.38 100.96 L 197.38 100.81 C 196.53 100.69 195.74 101.29 195.62 102.14 C 195.50 103.00 196.09 103.79 196.94 103.91 Z M 197.97 104.05 L 198.96 104.17 C 199.81 104.28 200.59 103.67 200.70 102.81 C 200.80 101.96 200.20 101.18 199.34 101.07 L 198.35 100.95 C 197.49 100.85 196.71 101.45 196.61 102.31 C 196.50 103.17 197.11 103.95 197.97 104.05 Z M 198.98 104.18 L 199.97 104.28 C 200.83 104.37 201.60 103.76 201.69 102.90 C 201.78 102.04 201.16 101.27 200.31 101.18 L 199.32 101.07 C 198.46 100.98 197.69 101.60 197.60 102.46 C 197.50 103.31 198.12 104.08 198.98 104.18 Z M 199.99 104.28 L 200.95 104.38 C 201.81 104.46 202.57 103.83 202.66 102.97 C 202.74 102.12 202.11 101.35 201.25 101.27 L 200.29 101.18 C 199.43 101.09 198.67 101.72 198.58 102.58 C 198.50 103.44 199.13 104.20 199.99 104.28 Z M 200.97 104.38 L 201.92 104.46 C 202.77 104.53 203.53 103.90 203.60 103.04 C 203.68 102.18 203.04 101.42 202.18 101.35 L 201.24 101.27 C 200.38 101.19 199.62 101.83 199.55 102.69 C 199.47 103.55 200.11 104.31 200.97 104.38 Z M 201.94 104.46 L 202.93 104.53 C 203.79 104.59 204.53 103.94 204.59 103.08 C 204.65 102.22 204.00 101.48 203.14 101.42 L 202.16 101.35 C 201.30 101.29 200.55 101.94 200.49 102.80 C 200.43 103.66 201.08 104.40 201.94 104.46 Z M 202.96 104.53 L 204.01 104.59 C 204.87 104.63 205.61 103.97 205.65 103.10 C 205.69 102.24 205.03 101.51 204.17 101.47 L 203.11 101.41 C 202.25 101.37 201.52 102.03 201.48 102.90 C 201.43 103.76 202.10 104.49 202.96 104.53 Z M 204.04 104.59 L 205.06 104.62 C 205.92 104.64 206.64 103.97 206.66 103.11 C 206.69 102.24 206.01 101.52 205.15 101.50 L 204.14 101.47 C 203.28 101.44 202.56 102.12 202.53 102.98 C 202.50 103.84 203.18 104.56 204.04 104.59 Z M 205.08 104.62 L 206.09 104.64 C 206.95 104.65 207.66 103.96 207.68 103.10 C 207.69 102.24 207.01 101.53 206.14 101.51 L 205.13 101.50 C 204.27 101.48 203.56 102.17 203.54 103.03 C 203.53 103.89 204.22 104.60 205.08 104.62 Z M 206.11 104.64 L 207.13 104.64 C 207.99 104.65 208.70 103.96 208.71 103.09 C 208.71 102.23 208.02 101.53 207.16 101.52 L 206.13 101.51 C 205.27 101.51 204.56 102.20 204.56 103.06 C 204.55 103.92 205.24 104.63 206.11 104.64 Z M 207.14 104.64 L 208.15 104.65 C 209.01 104.65 209.71 103.95 209.71 103.09 C 209.71 102.23 209.02 101.53 208.15 101.52 L 207.15 101.52 C 206.29 101.52 205.59 102.22 205.58 103.08 C 205.58 103.94 206.28 104.64 207.14 104.64 Z M 208.15 104.65 L 209.16 104.65 C 210.03 104.65 210.73 103.95 210.73 103.09 C 210.73 102.22 210.03 101.52 209.16 101.52 L 208.15 101.52 C 207.29 101.52 206.59 102.22 206.59 103.08 C 206.59 103.95 207.29 104.65 208.15 104.65 Z M 209.16 104.65 L 210.23 104.65 C 211.09 104.65 211.79 103.95 211.79 103.09 C 211.79 102.22 211.09 101.52 210.23 101.52 L 209.16 101.52 C 208.30 101.52 207.60 102.22 207.60 103.09 C 207.60 103.95 208.30 104.65 209.16 104.65 Z M 210.23 104.65 L 211.21 104.65 C 212.07 104.65 212.77 103.95 212.77 103.09 C 212.77 102.22 212.07 101.52 211.21 101.52 L 210.23 101.52 C 209.36 101.52 208.67 102.22 208.67 103.09 C 208.67 103.95 209.36 104.65 210.23 104.65 Z M 211.21 104.65 L 212.14 104.65 C 213.00 104.65 213.70 103.95 213.70 103.09 C 213.70 102.22 213.00 101.52 212.14 101.52 L 211.21 101.52 C 210.35 101.52 209.65 102.22 209.65 103.09 C 209.65 103.95 210.35 104.65 211.21 104.65 Z M 212.14 104.65 L 213.11 104.65 C 213.98 104.65 214.68 103.95 214.68 103.09 C 214.68 102.22 213.98 101.52 213.11 101.52 L 212.14 101.52 C 211.28 101.52 210.58 102.22 210.58 103.08 C 210.58 103.95 211.28 104.65 212.14 104.65 Z M 213.11 104.65 L 214.10 104.65 C 214.96 104.65 215.66 103.96 215.67 103.09 C 215.67 102.23 214.97 101.53 214.11 101.53 L 213.12 101.52 C 212.26 101.52 211.56 102.22 211.55 103.08 C 211.55 103.94 212.25 104.64 213.11 104.65 Z M 214.09 104.65 L 215.10 104.66 C 215.96 104.67 216.66 103.97 216.67 103.11 C 216.68 102.25 215.99 101.54 215.12 101.54 L 214.12 101.53 C 213.26 101.52 212.55 102.21 212.54 103.07 C 212.54 103.94 213.23 104.64 214.09 104.65 Z M 215.08 104.66 L 216.09 104.68 C 216.95 104.69 217.66 104.01 217.68 103.15 C 217.70 102.28 217.01 101.57 216.15 101.56 L 215.14 101.54 C 214.28 101.52 213.56 102.21 213.55 103.07 C 213.53 103.93 214.22 104.64 215.08 104.66 Z M 216.07 104.68 L 217.07 104.71 C 217.94 104.74 218.66 104.07 218.69 103.20 C 218.72 102.34 218.04 101.62 217.18 101.59 L 216.17 101.56 C 215.31 101.53 214.59 102.20 214.56 103.06 C 214.53 103.93 215.20 104.65 216.07 104.68 Z M 217.03 104.71 L 218.04 104.77 C 218.90 104.82 219.64 104.16 219.69 103.30 C 219.74 102.44 219.09 101.70 218.23 101.65 L 217.22 101.59 C 216.36 101.54 215.62 102.20 215.57 103.06 C 215.52 103.92 216.17 104.66 217.03 104.71 Z M 217.98 104.76 L 218.96 104.86 C 219.82 104.95 220.59 104.32 220.67 103.46 C 220.75 102.60 220.13 101.84 219.27 101.75 L 218.28 101.66 C 217.43 101.57 216.66 102.20 216.58 103.06 C 216.49 103.92 217.12 104.68 217.98 104.76 Z M 218.88 104.85 L 219.90 105.01 C 220.75 105.14 221.55 104.56 221.68 103.71 C 221.81 102.85 221.23 102.06 220.38 101.92 L 219.36 101.76 C 218.50 101.63 217.71 102.22 217.57 103.07 C 217.44 103.92 218.03 104.72 218.88 104.85 Z M 219.78 104.98 L 220.74 105.22 C 221.58 105.42 222.42 104.90 222.63 104.06 C 222.83 103.22 222.31 102.38 221.47 102.18 L 220.50 101.95 C 219.66 101.75 218.82 102.26 218.62 103.10 C 218.42 103.94 218.94 104.78 219.78 104.98 Z M 220.59 105.17 L 221.50 105.49 C 222.32 105.78 223.21 105.35 223.49 104.54 C 223.78 103.72 223.35 102.83 222.54 102.55 L 221.62 102.23 C 220.81 101.94 219.92 102.37 219.63 103.18 C 219.35 103.99 219.78 104.88 220.59 105.17 Z M 221.32 105.42 L 222.21 105.86 C 222.98 106.24 223.92 105.93 224.30 105.16 C 224.69 104.39 224.38 103.45 223.60 103.06 L 222.72 102.62 C 221.95 102.24 221.01 102.55 220.62 103.32 C 220.24 104.09 220.55 105.03 221.32 105.42 Z M 222.02 105.75 L 222.84 106.31 C 223.56 106.80 224.53 106.62 225.02 105.91 C 225.50 105.20 225.32 104.23 224.61 103.74 L 223.79 103.17 C 223.08 102.69 222.11 102.87 221.62 103.58 C 221.13 104.29 221.31 105.26 222.02 105.75 Z M 222.66 106.17 L 223.40 106.85 C 224.03 107.44 225.02 107.41 225.61 106.77 C 226.20 106.14 226.16 105.16 225.53 104.57 L 224.79 103.88 C 224.16 103.29 223.17 103.33 222.59 103.96 C 222.00 104.59 222.03 105.58 222.66 106.17 Z M 223.24 106.68 L 223.86 107.46 C 224.40 108.13 225.38 108.24 226.05 107.70 C 226.73 107.17 226.84 106.18 226.30 105.51 L 225.69 104.74 C 225.15 104.06 224.17 103.95 223.49 104.49 C 222.82 105.03 222.71 106.01 223.24 106.68 Z M 223.75 107.30 L 224.27 108.15 C 224.72 108.89 225.68 109.12 226.42 108.67 C 227.15 108.22 227.38 107.26 226.94 106.53 L 226.41 105.67 C 225.97 104.93 225.01 104.70 224.27 105.15 C 223.53 105.60 223.30 106.56 223.75 107.30 Z M 224.19 108.00 L 224.62 108.92 C 224.99 109.70 225.92 110.03 226.70 109.66 C 227.48 109.30 227.81 108.37 227.44 107.59 L 227.02 106.67 C 226.65 105.89 225.72 105.56 224.94 105.93 C 224.16 106.29 223.82 107.22 224.19 108.00 Z M 224.56 108.78 L 224.89 109.70 C 225.19 110.51 226.08 110.93 226.89 110.64 C 227.70 110.34 228.12 109.45 227.83 108.64 L 227.50 107.72 C 227.21 106.91 226.31 106.49 225.50 106.78 C 224.69 107.08 224.27 107.97 224.56 108.78 Z M 224.86 109.58 L 225.11 110.51 C 225.34 111.35 226.20 111.84 227.03 111.61 C 227.86 111.38 228.35 110.52 228.12 109.69 L 227.87 108.76 C 227.64 107.92 226.78 107.43 225.95 107.66 C 225.12 107.89 224.63 108.75 224.86 109.58 Z M 225.09 110.42 L 225.30 111.42 C 225.47 112.26 226.30 112.80 227.15 112.62 C 227.99 112.45 228.53 111.62 228.35 110.77 L 228.15 109.78 C 227.97 108.94 227.14 108.40 226.30 108.58 C 225.45 108.75 224.91 109.58 225.09 110.42 Z M 225.29 111.36 L 225.46 112.36 C 225.61 113.21 226.41 113.78 227.26 113.64 C 228.11 113.49 228.68 112.68 228.54 111.83 L 228.36 110.83 C 228.22 109.98 227.41 109.41 226.56 109.56 C 225.71 109.70 225.14 110.51 225.29 111.36 Z M 225.46 112.33 L 225.60 113.30 C 225.73 114.15 226.53 114.74 227.38 114.61 C 228.23 114.48 228.82 113.68 228.69 112.83 L 228.54 111.87 C 228.41 111.01 227.62 110.43 226.77 110.56 C 225.91 110.68 225.33 111.48 225.46 112.33 Z M 225.60 113.27 L 225.73 114.27 C 225.85 115.13 226.63 115.73 227.49 115.61 C 228.34 115.50 228.94 114.71 228.83 113.86 L 228.69 112.86 C 228.58 112.00 227.79 111.40 226.94 111.52 C 226.08 111.63 225.48 112.42 225.60 113.27 Z M 225.73 114.25 L 225.85 115.27 C 225.95 116.12 226.73 116.74 227.58 116.63 C 228.44 116.53 229.05 115.76 228.95 114.90 L 228.83 113.88 C 228.73 113.03 227.95 112.41 227.10 112.52 C 226.24 112.62 225.63 113.39 225.73 114.25 Z M 225.85 115.24 L 225.95 116.28 C 226.04 117.13 226.80 117.76 227.66 117.67 C 228.52 117.58 229.14 116.82 229.06 115.96 L 228.95 114.93 C 228.87 114.07 228.10 113.44 227.24 113.53 C 226.38 113.62 225.76 114.38 225.85 115.24 Z M 225.95 116.25 L 226.03 117.28 C 226.11 118.14 226.86 118.78 227.72 118.71 C 228.58 118.63 229.22 117.88 229.15 117.02 L 229.06 115.99 C 228.99 115.13 228.23 114.49 227.37 114.56 C 226.51 114.63 225.88 115.39 225.95 116.25 Z M 226.03 117.26 L 226.10 118.26 C 226.16 119.12 226.90 119.77 227.76 119.71 C 228.62 119.65 229.27 118.91 229.22 118.05 L 229.15 117.05 C 229.09 116.19 228.35 115.54 227.49 115.59 C 226.63 115.65 225.97 116.40 226.03 117.26 Z M 226.10 118.23 L 226.15 119.18 C 226.19 120.05 226.92 120.71 227.78 120.66 C 228.65 120.62 229.31 119.89 229.27 119.03 L 229.22 118.07 C 229.17 117.21 228.44 116.55 227.58 116.59 C 226.72 116.63 226.05 117.37 226.10 118.23 Z M 226.15 119.16 L 226.18 120.06 C 226.21 120.92 226.93 121.59 227.79 121.56 C 228.65 121.53 229.33 120.81 229.30 119.95 L 229.27 119.05 C 229.24 118.19 228.51 117.52 227.65 117.55 C 226.79 117.57 226.12 118.30 226.15 119.16 Z M 226.18 120.04 L 226.20 120.94 C 226.22 121.80 226.94 122.49 227.80 122.46 C 228.66 122.44 229.34 121.73 229.32 120.86 L 229.30 119.96 C 229.28 119.10 228.56 118.42 227.70 118.44 C 226.83 118.47 226.15 119.18 226.18 120.04 Z M 226.20 120.95 L 226.23 121.94 C 226.25 122.80 226.97 123.48 227.83 123.45 C 228.70 123.43 229.37 122.71 229.35 121.85 L 229.32 120.86 C 229.29 120.00 228.58 119.32 227.71 119.34 C 226.85 119.37 226.17 120.09 226.20 120.95 Z M 226.23 121.96 L 226.28 123.12 C 226.31 123.98 227.04 124.65 227.90 124.61 C 228.76 124.58 229.43 123.85 229.40 122.99 L 229.35 121.83 C 229.31 120.96 228.58 120.30 227.72 120.33 C 226.86 120.37 226.19 121.10 226.23 121.96 Z M 226.28 123.14 L 226.33 124.07 C 226.38 124.93 227.11 125.59 227.98 125.55 C 228.84 125.50 229.50 124.76 229.45 123.90 L 229.40 122.97 C 229.35 122.11 228.61 121.45 227.75 121.50 C 226.89 121.54 226.23 122.28 226.28 123.14 Z M 226.33 124.09 L 226.39 125.06 C 226.45 125.92 227.19 126.57 228.05 126.52 C 228.91 126.46 229.56 125.72 229.51 124.86 L 229.45 123.89 C 229.39 123.03 228.65 122.37 227.79 122.43 C 226.93 122.48 226.28 123.23 226.33 124.09 Z M 226.39 125.07 L 226.47 126.10 C 226.53 126.96 227.27 127.61 228.13 127.55 C 228.99 127.48 229.64 126.74 229.58 125.88 L 229.51 124.85 C 229.45 123.99 228.70 123.34 227.84 123.40 C 226.98 123.46 226.33 124.21 226.39 125.07 Z M 226.47 126.11 L 226.55 127.15 C 226.61 128.01 227.36 128.66 228.22 128.59 C 229.08 128.53 229.73 127.78 229.66 126.92 L 229.58 125.87 C 229.51 125.01 228.76 124.37 227.90 124.43 C 227.04 124.50 226.40 125.25 226.47 126.11 Z M 226.55 127.16 L 226.63 128.20 C 226.71 129.06 227.46 129.70 228.32 129.63 C 229.18 129.55 229.82 128.80 229.75 127.94 L 229.66 126.91 C 229.59 126.05 228.83 125.41 227.97 125.48 C 227.12 125.55 226.48 126.31 226.55 127.16 Z M 226.64 128.21 L 226.73 129.21 C 226.80 130.07 227.56 130.70 228.42 130.62 C 229.28 130.55 229.91 129.79 229.84 128.93 L 229.75 127.93 C 229.67 127.07 228.91 126.44 228.05 126.52 C 227.19 126.59 226.56 127.35 226.64 128.21 Z M 226.73 129.22 L 226.83 130.24 C 226.91 131.10 227.68 131.72 228.53 131.64 C 229.39 131.56 230.02 130.79 229.93 129.93 L 229.83 128.92 C 229.75 128.06 228.99 127.43 228.13 127.51 C 227.27 127.60 226.64 128.36 226.73 129.22 Z M 226.83 130.25 L 226.93 131.22 C 227.02 132.08 227.79 132.70 228.65 132.61 C 229.51 132.51 230.13 131.75 230.04 130.89 L 229.93 129.92 C 229.84 129.06 229.07 128.44 228.22 128.53 C 227.36 128.63 226.74 129.40 226.83 130.25 Z M 226.93 131.23 L 227.04 132.18 C 227.14 133.04 227.91 133.65 228.77 133.56 C 229.62 133.46 230.24 132.69 230.14 131.83 L 230.04 130.88 C 229.94 130.02 229.17 129.41 228.31 129.50 C 227.45 129.60 226.84 130.37 226.93 131.23 Z M 227.04 132.19 L 227.15 133.16 C 227.25 134.02 228.03 134.63 228.89 134.53 C 229.74 134.43 230.36 133.66 230.26 132.80 L 230.14 131.83 C 230.04 130.97 229.27 130.36 228.41 130.46 C 227.55 130.56 226.94 131.33 227.04 132.19 Z M 227.15 133.16 L 227.28 134.19 C 227.38 135.05 228.15 135.66 229.01 135.56 C 229.86 135.46 230.48 134.69 230.38 133.83 L 230.26 132.80 C 230.16 131.94 229.38 131.33 228.52 131.43 C 227.67 131.53 227.05 132.30 227.15 133.16 Z M 227.27 134.19 L 227.38 135.11 C 227.48 135.97 228.25 136.59 229.11 136.49 C 229.97 136.39 230.58 135.61 230.48 134.76 L 230.38 133.83 C 230.28 132.98 229.50 132.36 228.65 132.46 C 227.79 132.56 227.18 133.33 227.27 134.19 Z M 227.38 135.11 L 227.48 136.03 C 227.58 136.88 228.35 137.50 229.21 137.41 C 230.07 137.31 230.68 136.54 230.59 135.68 L 230.48 134.76 C 230.39 133.90 229.61 133.29 228.76 133.38 C 227.90 133.48 227.28 134.25 227.38 135.11 Z M 227.48 136.02 L 227.59 136.99 C 227.68 137.84 228.45 138.46 229.31 138.37 C 230.17 138.28 230.79 137.51 230.69 136.65 L 230.59 135.68 C 230.49 134.83 229.72 134.21 228.87 134.30 C 228.01 134.39 227.39 135.17 227.48 136.02 Z M 227.59 136.98 L 227.69 137.98 C 227.78 138.84 228.55 139.46 229.41 139.38 C 230.26 139.29 230.89 138.52 230.80 137.66 L 230.69 136.66 C 230.60 135.80 229.84 135.18 228.98 135.27 C 228.12 135.36 227.50 136.12 227.59 136.98 Z M 227.69 137.98 L 227.79 139.01 C 227.88 139.87 228.64 140.50 229.50 140.41 C 230.36 140.33 230.99 139.56 230.90 138.70 L 230.80 137.67 C 230.71 136.81 229.95 136.18 229.09 136.27 C 228.23 136.35 227.61 137.12 227.69 137.98 Z M 227.79 139.00 L 227.89 140.06 C 227.97 140.92 228.73 141.55 229.59 141.47 C 230.45 141.39 231.08 140.63 231.00 139.77 L 230.90 138.71 C 230.82 137.85 230.06 137.22 229.20 137.30 C 228.34 137.38 227.71 138.14 227.79 139.00 Z M 227.89 140.05 L 227.98 141.12 C 228.06 141.98 228.81 142.62 229.67 142.54 C 230.53 142.47 231.17 141.71 231.09 140.85 L 231.00 139.78 C 230.93 138.92 230.17 138.29 229.31 138.36 C 228.45 138.43 227.82 139.19 227.89 140.05 Z M 227.98 141.11 L 228.06 142.11 C 228.13 142.97 228.88 143.62 229.74 143.55 C 230.60 143.48 231.24 142.73 231.17 141.87 L 231.10 140.87 C 231.03 140.01 230.28 139.36 229.42 139.43 C 228.56 139.50 227.91 140.25 227.98 141.11 Z M 228.06 142.10 L 228.13 143.10 C 228.19 143.96 228.94 144.61 229.80 144.55 C 230.66 144.49 231.31 143.74 231.25 142.88 L 231.17 141.88 C 231.11 141.02 230.37 140.37 229.51 140.44 C 228.65 140.50 228.00 141.24 228.06 142.10 Z M 228.13 143.09 L 228.19 144.09 C 228.25 144.95 228.99 145.60 229.85 145.55 C 230.71 145.49 231.36 144.75 231.31 143.89 L 231.25 142.89 C 231.19 142.03 230.45 141.38 229.59 141.43 C 228.73 141.49 228.08 142.23 228.13 143.09 Z M 228.19 144.08 L 228.25 145.08 C 228.30 145.94 229.04 146.60 229.90 146.55 C 230.76 146.50 231.42 145.76 231.37 144.90 L 231.31 143.90 C 231.26 143.04 230.53 142.38 229.66 142.43 C 228.80 142.48 228.14 143.22 228.19 144.08 Z M 228.25 145.07 L 228.30 146.07 C 228.34 146.93 229.07 147.59 229.93 147.55 C 230.79 147.51 231.46 146.78 231.42 145.92 L 231.37 144.92 C 231.33 144.05 230.59 143.39 229.73 143.43 C 228.87 143.47 228.21 144.21 228.25 145.07 Z M 228.30 146.06 L 228.34 147.06 C 228.38 147.92 229.10 148.59 229.96 148.55 C 230.83 148.52 231.50 147.79 231.46 146.93 L 231.42 145.93 C 231.38 145.07 230.65 144.40 229.79 144.43 C 228.93 144.47 228.26 145.20 228.30 146.06 Z M 228.34 147.05 L 228.37 148.04 C 228.40 148.91 229.13 149.58 229.99 149.55 C 230.85 149.52 231.52 148.80 231.49 147.93 L 231.46 146.94 C 231.43 146.08 230.71 145.40 229.84 145.43 C 228.98 145.46 228.31 146.18 228.34 147.05 Z M 228.37 148.03 L 228.40 149.06 C 228.43 149.92 229.14 150.60 230.01 150.58 C 230.87 150.55 231.55 149.83 231.52 148.97 L 231.49 147.95 C 231.47 147.08 230.75 146.40 229.89 146.43 C 229.03 146.45 228.35 147.17 228.37 148.03 Z M 228.40 149.05 L 228.42 150.11 C 228.44 150.97 229.15 151.66 230.02 151.64 C 230.88 151.62 231.56 150.91 231.54 150.05 L 231.52 148.98 C 231.51 148.12 230.79 147.44 229.93 147.45 C 229.07 147.47 228.38 148.18 228.40 149.05 Z M 228.42 150.10 L 228.44 151.15 C 228.45 152.01 229.16 152.70 230.02 152.69 C 230.88 152.68 231.57 151.97 231.56 151.11 L 231.55 150.06 C 231.53 149.19 230.82 148.51 229.96 148.52 C 229.10 148.53 228.41 149.24 228.42 150.10 Z M 228.44 151.14 L 228.45 152.17 C 228.46 153.03 229.16 153.73 230.02 153.72 C 230.89 153.71 231.58 153.00 231.57 152.14 L 231.56 151.11 C 231.55 150.25 230.85 149.56 229.98 149.57 C 229.12 149.58 228.43 150.28 228.44 151.14 Z M 228.45 152.17 L 228.45 153.16 C 228.46 154.03 229.16 154.72 230.02 154.72 C 230.89 154.71 231.58 154.01 231.58 153.15 L 231.57 152.15 C 231.57 151.29 230.86 150.59 230.00 150.60 C 229.14 150.60 228.44 151.30 228.45 152.17 Z M 228.45 153.16 L 228.46 154.12 C 228.46 154.99 229.16 155.68 230.02 155.68 C 230.88 155.68 231.58 154.98 231.58 154.12 L 231.58 153.15 C 231.57 152.29 230.87 151.59 230.01 151.59 C 229.15 151.60 228.45 152.30 228.45 153.16 Z M 228.46 154.12 L 228.46 155.04 C 228.46 155.90 229.16 156.60 230.02 156.60 C 230.88 156.60 231.58 155.90 231.58 155.04 L 231.58 154.12 C 231.58 153.26 230.88 152.56 230.02 152.56 C 229.15 152.56 228.46 153.26 228.46 154.12 Z M 228.46 155.04 L 228.46 156.06 C 228.46 156.92 229.16 157.62 230.02 157.62 C 230.88 157.62 231.58 156.92 231.58 156.06 L 231.58 155.04 C 231.58 154.18 230.88 153.48 230.02 153.48 C 229.16 153.48 228.46 154.18 228.46 155.04 Z M 228.46 156.06 L 228.46 157.14 C 228.46 158.00 229.16 158.70 230.02 158.70 C 230.88 158.70 231.58 158.00 231.58 157.14 L 231.58 156.06 C 231.58 155.19 230.88 154.50 230.02 154.50 C 229.16 154.50 228.46 155.19 228.46 156.06 Z M 228.46 157.14 L 228.46 158.15 C 228.46 159.01 229.16 159.71 230.02 159.71 C 230.88 159.71 231.58 159.01 231.58 158.15 L 231.58 157.14 C 231.58 156.28 230.88 155.58 230.02 155.58 C 229.16 155.58 228.46 156.28 228.46 157.14 Z M 228.46 158.15 L 228.46 159.11 C 228.46 159.98 229.16 160.68 230.02 160.68 C 230.88 160.68 231.58 159.98 231.58 159.11 L 231.58 158.15 C 231.58 157.29 230.88 156.59 230.02 156.59 C 229.16 156.59 228.46 157.29 228.46 158.15 Z M 228.46 159.11 L 228.46 160.04 C 228.46 160.91 229.16 161.60 230.02 161.60 C 230.88 161.60 231.58 160.91 231.58 160.04 L 231.58 159.11 C 231.58 158.25 230.88 157.55 230.02 157.55 C 229.16 157.55 228.46 158.25 228.46 159.11 Z M 228.46 160.04 L 228.46 160.96 C 228.46 161.83 229.16 162.53 230.02 162.53 C 230.88 162.53 231.58 161.83 231.58 160.96 L 231.58 160.04 C 231.58 159.18 230.88 158.48 230.02 158.48 C 229.16 158.48 228.46 159.18 228.46 160.04 Z M 228.46 160.96 L 228.45 161.90 C 228.45 162.77 229.15 163.47 230.01 163.47 C 230.87 163.47 231.58 162.77 231.58 161.91 L 231.58 160.97 C 231.58 160.11 230.88 159.41 230.02 159.40 C 229.16 159.40 228.46 160.10 228.46 160.96 Z M 228.45 161.89 L 228.45 162.85 C 228.44 163.71 229.13 164.42 229.99 164.43 C 230.85 164.43 231.56 163.74 231.57 162.88 L 231.58 161.92 C 231.58 161.06 230.89 160.35 230.03 160.35 C 229.17 160.34 228.46 161.03 228.45 161.89 Z M 228.45 162.83 L 228.43 163.83 C 228.41 164.69 229.09 165.40 229.95 165.42 C 230.81 165.44 231.53 164.76 231.55 163.89 L 231.57 162.90 C 231.59 162.04 230.90 161.32 230.04 161.30 C 229.18 161.29 228.46 161.97 228.45 162.83 Z M 228.43 163.80 L 228.39 164.85 C 228.36 165.71 229.03 166.44 229.89 166.47 C 230.75 166.50 231.48 165.83 231.51 164.97 L 231.55 163.92 C 231.58 163.06 230.90 162.33 230.04 162.30 C 229.18 162.27 228.46 162.94 228.43 163.80 Z M 228.39 164.83 L 228.33 165.88 C 228.29 166.74 228.95 167.47 229.81 167.52 C 230.67 167.57 231.40 166.91 231.45 166.04 L 231.51 164.99 C 231.55 164.13 230.89 163.40 230.03 163.35 C 229.17 163.30 228.43 163.96 228.39 164.83 Z M 228.33 165.85 L 228.27 166.82 C 228.21 167.68 228.86 168.42 229.72 168.48 C 230.58 168.54 231.32 167.89 231.38 167.03 L 231.45 166.07 C 231.51 165.21 230.86 164.46 230.00 164.40 C 229.14 164.34 228.39 164.99 228.33 165.85 Z M 228.27 166.80 L 228.19 167.80 C 228.12 168.66 228.77 169.41 229.63 169.48 C 230.49 169.54 231.24 168.90 231.30 168.04 L 231.38 167.04 C 231.45 166.18 230.81 165.43 229.95 165.37 C 229.09 165.30 228.34 165.94 228.27 166.80 Z M 228.19 167.79 L 228.11 168.80 C 228.03 169.66 228.67 170.42 229.53 170.49 C 230.39 170.56 231.14 169.93 231.22 169.07 L 231.30 168.05 C 231.38 167.19 230.74 166.44 229.88 166.36 C 229.02 166.29 228.26 166.93 228.19 167.79 Z M 228.11 168.80 L 228.02 169.82 C 227.94 170.68 228.57 171.44 229.43 171.51 C 230.29 171.59 231.05 170.95 231.13 170.10 L 231.22 169.07 C 231.29 168.21 230.66 167.46 229.80 167.38 C 228.94 167.30 228.18 167.94 228.11 168.80 Z M 228.02 169.82 L 227.92 170.83 C 227.85 171.69 228.48 172.45 229.34 172.53 C 230.20 172.60 230.96 171.97 231.03 171.11 L 231.13 170.10 C 231.20 169.24 230.57 168.48 229.71 168.40 C 228.85 168.33 228.09 168.96 228.02 169.82 Z M 227.92 170.83 L 227.84 171.81 C 227.76 172.67 228.40 173.43 229.25 173.51 C 230.11 173.58 230.87 172.95 230.95 172.09 L 231.03 171.11 C 231.11 170.25 230.48 169.49 229.62 169.42 C 228.76 169.34 228.00 169.97 227.92 170.83 Z M 227.84 171.82 L 227.76 172.74 C 227.68 173.60 228.32 174.36 229.18 174.43 C 230.04 174.50 230.80 173.87 230.87 173.01 L 230.95 172.09 C 231.02 171.23 230.38 170.47 229.53 170.40 C 228.67 170.32 227.91 170.96 227.84 171.82 Z M 227.76 172.75 L 227.68 173.66 C 227.61 174.52 228.25 175.27 229.11 175.35 C 229.97 175.42 230.72 174.78 230.79 173.92 L 230.87 173.00 C 230.94 172.14 230.30 171.39 229.44 171.32 C 228.58 171.25 227.83 171.89 227.76 172.75 Z M 227.68 173.67 L 227.61 174.60 C 227.54 175.46 228.18 176.21 229.04 176.28 C 229.90 176.35 230.65 175.70 230.72 174.85 L 230.80 173.91 C 230.86 173.05 230.22 172.30 229.36 172.23 C 228.50 172.17 227.75 172.81 227.68 173.67 Z M 227.61 174.61 L 227.54 175.58 C 227.47 176.44 228.11 177.19 228.97 177.26 C 229.83 177.32 230.58 176.68 230.65 175.82 L 230.72 174.84 C 230.79 173.98 230.14 173.23 229.28 173.17 C 228.42 173.10 227.67 173.75 227.61 174.61 Z M 227.53 175.59 L 227.46 176.63 C 227.40 177.49 228.04 178.24 228.90 178.30 C 229.76 178.37 230.51 177.72 230.57 176.86 L 230.65 175.81 C 230.71 174.95 230.06 174.21 229.20 174.14 C 228.35 174.08 227.60 174.73 227.53 175.59 Z M 227.46 176.64 L 227.38 177.78 C 227.32 178.64 227.97 179.38 228.83 179.44 C 229.69 179.50 230.43 178.86 230.49 178.00 L 230.57 176.86 C 230.63 176.00 229.99 175.25 229.13 175.19 C 228.27 175.13 227.52 175.78 227.46 176.64 Z M 227.38 177.78 L 227.31 178.81 C 227.25 179.67 227.90 180.41 228.76 180.47 C 229.62 180.53 230.36 179.88 230.42 179.02 L 230.49 177.99 C 230.55 177.13 229.90 176.39 229.04 176.33 C 228.18 176.27 227.44 176.92 227.38 177.78 Z M 227.31 178.81 L 227.24 179.82 C 227.18 180.68 227.83 181.43 228.69 181.49 C 229.55 181.55 230.29 180.90 230.35 180.04 L 230.42 179.02 C 230.48 178.16 229.83 177.42 228.97 177.36 C 228.11 177.30 227.37 177.95 227.31 178.81 Z M 227.24 179.83 L 227.17 180.87 C 227.11 181.73 227.76 182.48 228.62 182.54 C 229.48 182.60 230.22 181.94 230.28 181.08 L 230.35 180.03 C 230.41 179.17 229.76 178.43 228.90 178.37 C 228.04 178.31 227.30 178.96 227.24 179.83 Z M 227.17 180.88 L 227.10 181.94 C 227.04 182.80 227.69 183.55 228.55 183.60 C 229.41 183.66 230.15 183.01 230.21 182.15 L 230.28 181.08 C 230.34 180.22 229.69 179.48 228.83 179.42 C 227.97 179.36 227.22 180.02 227.17 180.88 Z M 227.10 181.94 L 227.03 183.00 C 226.97 183.86 227.62 184.60 228.48 184.66 C 229.34 184.72 230.09 184.07 230.14 183.21 L 230.21 182.15 C 230.27 181.29 229.62 180.54 228.76 180.49 C 227.90 180.43 227.15 181.08 227.10 181.94 Z M 227.03 183.00 L 226.96 184.03 C 226.90 184.89 227.56 185.64 228.42 185.69 C 229.28 185.75 230.02 185.10 230.08 184.24 L 230.14 183.20 C 230.20 182.34 229.54 181.60 228.68 181.55 C 227.82 181.49 227.08 182.14 227.03 183.00 Z M 226.96 184.04 L 226.90 185.02 C 226.84 185.88 227.50 186.62 228.36 186.68 C 229.22 186.73 229.96 186.08 230.01 185.22 L 230.08 184.23 C 230.13 183.37 229.48 182.63 228.62 182.58 C 227.76 182.52 227.01 183.18 226.96 184.04 Z M 226.90 185.02 L 226.84 185.93 C 226.79 186.79 227.44 187.54 228.30 187.59 C 229.16 187.64 229.90 186.99 229.96 186.13 L 230.01 185.21 C 230.07 184.35 229.41 183.61 228.55 183.56 C 227.69 183.51 226.95 184.16 226.90 185.02 Z M 226.84 185.94 L 226.78 186.93 C 226.73 187.79 227.39 188.53 228.25 188.58 C 229.11 188.63 229.85 187.98 229.90 187.12 L 229.96 186.12 C 230.01 185.26 229.35 184.52 228.49 184.47 C 227.63 184.42 226.89 185.08 226.84 185.94 Z M 226.78 186.94 L 226.72 188.06 C 226.67 188.93 227.33 189.66 228.19 189.71 C 229.05 189.76 229.79 189.10 229.84 188.24 L 229.90 187.11 C 229.95 186.25 229.29 185.51 228.43 185.47 C 227.57 185.42 226.83 186.08 226.78 186.94 Z M 226.72 188.07 L 226.67 189.03 C 226.63 189.90 227.29 190.63 228.15 190.67 C 229.01 190.72 229.74 190.05 229.79 189.19 L 229.84 188.23 C 229.88 187.37 229.22 186.64 228.36 186.59 C 227.50 186.55 226.76 187.21 226.72 188.07 Z M 226.67 189.04 L 226.63 189.93 C 226.59 190.79 227.25 191.52 228.11 191.56 C 228.97 191.61 229.71 190.94 229.75 190.08 L 229.79 189.19 C 229.83 188.33 229.16 187.60 228.30 187.55 C 227.44 187.51 226.71 188.18 226.67 189.04 Z M 226.63 189.93 L 226.59 190.85 C 226.55 191.71 227.21 192.44 228.07 192.48 C 228.93 192.52 229.66 191.85 229.70 190.99 L 229.75 190.08 C 229.79 189.22 229.12 188.49 228.26 188.45 C 227.40 188.41 226.67 189.07 226.63 189.93 Z M 226.59 190.84 L 226.54 191.80 C 226.50 192.66 227.16 193.40 228.03 193.44 C 228.89 193.48 229.62 192.81 229.66 191.95 L 229.70 190.99 C 229.74 190.13 229.08 189.40 228.22 189.36 C 227.36 189.32 226.63 189.98 226.59 190.84 Z M 226.54 191.80 L 226.50 192.72 C 226.45 193.58 227.12 194.31 227.98 194.35 C 228.84 194.39 229.57 193.73 229.61 192.87 L 229.66 191.95 C 229.70 191.09 229.04 190.36 228.18 190.32 C 227.31 190.28 226.58 190.94 226.54 191.80 Z M 226.50 192.71 L 226.45 193.70 C 226.40 194.57 227.07 195.30 227.93 195.34 C 228.79 195.39 229.52 194.72 229.56 193.86 L 229.61 192.87 C 229.66 192.01 228.99 191.28 228.13 191.23 C 227.27 191.19 226.54 191.85 226.50 192.71 Z M 226.45 193.70 L 226.39 194.74 C 226.35 195.60 227.01 196.33 227.87 196.38 C 228.73 196.42 229.47 195.76 229.51 194.90 L 229.56 193.86 C 229.61 193.00 228.95 192.27 228.08 192.22 C 227.22 192.18 226.49 192.84 226.45 193.70 Z M 226.39 194.74 L 226.34 195.79 C 226.29 196.65 226.95 197.39 227.82 197.43 C 228.68 197.48 229.41 196.82 229.46 195.95 L 229.51 194.90 C 229.56 194.04 228.89 193.31 228.03 193.26 C 227.17 193.22 226.44 193.88 226.39 194.74 Z M 226.34 195.79 L 226.28 196.83 C 226.24 197.69 226.90 198.43 227.76 198.47 C 228.62 198.52 229.36 197.86 229.40 197.00 L 229.46 195.96 C 229.50 195.09 228.84 194.36 227.98 194.31 C 227.12 194.27 226.38 194.93 226.34 195.79 Z M 226.28 196.83 L 226.23 197.83 C 226.18 198.69 226.85 199.43 227.71 199.47 C 228.57 199.52 229.30 198.86 229.35 198.00 L 229.40 197.00 C 229.45 196.14 228.79 195.40 227.92 195.36 C 227.06 195.31 226.33 195.97 226.28 196.83 Z M 226.23 197.83 L 226.17 198.88 C 226.13 199.74 226.79 200.48 227.65 200.53 C 228.51 200.57 229.24 199.91 229.29 199.05 L 229.35 198.00 C 229.39 197.14 228.73 196.40 227.87 196.36 C 227.01 196.31 226.28 196.97 226.23 197.83 Z M 226.17 198.88 L 226.12 199.88 C 226.07 200.74 226.73 201.48 227.59 201.53 C 228.45 201.57 229.19 200.92 229.23 200.06 L 229.29 199.05 C 229.34 198.19 228.68 197.46 227.82 197.41 C 226.96 197.36 226.22 198.02 226.17 198.88 Z M 226.12 199.87 L 226.06 200.84 C 226.01 201.70 226.66 202.44 227.52 202.49 C 228.38 202.54 229.12 201.89 229.17 201.03 L 229.23 200.06 C 229.29 199.20 228.63 198.46 227.77 198.41 C 226.91 198.36 226.17 199.01 226.12 199.87 Z M 226.06 200.82 L 225.99 201.78 C 225.93 202.64 226.58 203.39 227.44 203.45 C 228.30 203.51 229.05 202.86 229.11 202.00 L 229.17 201.04 C 229.23 200.18 228.58 199.43 227.72 199.37 C 226.86 199.31 226.12 199.96 226.06 200.82 Z M 225.99 201.77 L 225.92 202.75 C 225.85 203.61 226.49 204.36 227.35 204.43 C 228.21 204.50 228.96 203.86 229.03 203.00 L 229.11 202.01 C 229.17 201.15 228.53 200.40 227.67 200.33 C 226.81 200.27 226.06 200.91 225.99 201.77 Z M 225.92 202.74 L 225.83 203.73 C 225.76 204.59 226.39 205.35 227.25 205.42 C 228.11 205.50 228.87 204.86 228.94 204.00 L 229.03 203.01 C 229.10 202.15 228.47 201.40 227.61 201.32 C 226.75 201.24 225.99 201.88 225.92 202.74 Z M 225.83 203.72 L 225.74 204.66 C 225.66 205.52 226.29 206.28 227.15 206.36 C 228.00 206.45 228.77 205.82 228.85 204.96 L 228.94 204.02 C 229.02 203.16 228.39 202.40 227.54 202.31 C 226.68 202.23 225.92 202.86 225.83 203.72 Z M 225.74 204.65 L 225.64 205.63 C 225.55 206.49 226.18 207.26 227.03 207.34 C 227.89 207.43 228.66 206.81 228.75 205.95 L 228.85 204.97 C 228.94 204.11 228.31 203.35 227.46 203.26 C 226.60 203.17 225.83 203.79 225.74 204.65 Z M 225.64 205.62 L 225.53 206.63 C 225.43 207.49 226.05 208.26 226.91 208.35 C 227.77 208.45 228.54 207.83 228.63 206.97 L 228.75 205.96 C 228.84 205.11 228.22 204.34 227.37 204.24 C 226.51 204.14 225.74 204.76 225.64 205.62 Z M 225.53 206.62 L 225.41 207.64 C 225.31 208.50 225.92 209.27 226.78 209.37 C 227.63 209.48 228.41 208.86 228.51 208.01 L 228.63 206.99 C 228.73 206.13 228.12 205.35 227.27 205.25 C 226.41 205.15 225.63 205.76 225.53 206.62 Z M 225.41 207.63 L 225.28 208.65 C 225.17 209.50 225.78 210.29 226.63 210.39 C 227.49 210.50 228.27 209.90 228.38 209.04 L 228.51 208.02 C 228.62 207.17 228.01 206.38 227.16 206.27 C 226.30 206.17 225.52 206.77 225.41 207.63 Z M 225.28 208.64 L 225.15 209.64 C 225.03 210.50 225.63 211.29 226.48 211.40 C 227.34 211.52 228.12 210.92 228.24 210.06 L 228.38 209.06 C 228.49 208.20 227.89 207.42 227.04 207.30 C 226.19 207.18 225.40 207.78 225.28 208.64 Z M 225.15 209.63 L 224.99 210.72 C 224.86 211.57 225.45 212.37 226.31 212.49 C 227.16 212.62 227.95 212.03 228.08 211.17 L 228.24 210.08 C 228.36 209.23 227.77 208.43 226.92 208.31 C 226.07 208.19 225.27 208.78 225.15 209.63 Z M 224.99 210.70 L 224.82 211.79 C 224.69 212.64 225.27 213.44 226.12 213.57 C 226.97 213.71 227.77 213.13 227.90 212.27 L 228.08 211.19 C 228.21 210.34 227.63 209.54 226.78 209.41 C 225.92 209.27 225.13 209.85 224.99 210.70 Z M 224.82 211.77 L 224.65 212.80 C 224.51 213.65 225.08 214.45 225.93 214.60 C 226.78 214.74 227.58 214.17 227.73 213.32 L 227.90 212.29 C 228.05 211.44 227.47 210.63 226.62 210.49 C 225.77 210.35 224.97 210.92 224.82 211.77 Z M 224.65 212.78 L 224.48 213.75 C 224.33 214.60 224.89 215.41 225.74 215.56 C 226.59 215.72 227.40 215.15 227.55 214.30 L 227.73 213.34 C 227.88 212.49 227.31 211.68 226.46 211.52 C 225.62 211.37 224.80 211.93 224.65 212.78 Z M 224.48 213.74 L 224.31 214.64 C 224.15 215.48 224.70 216.30 225.55 216.46 C 226.40 216.62 227.22 216.07 227.38 215.22 L 227.55 214.32 C 227.71 213.47 227.15 212.66 226.31 212.49 C 225.46 212.33 224.64 212.89 224.48 213.74 Z M 224.31 214.62 L 224.14 215.47 C 223.97 216.32 224.52 217.14 225.36 217.31 C 226.21 217.48 227.03 216.94 227.20 216.09 L 227.37 215.24 C 227.54 214.39 227.00 213.57 226.15 213.40 C 225.31 213.23 224.48 213.77 224.31 214.62 Z M 224.14 215.45 L 223.91 216.56 C 223.72 217.40 224.26 218.23 225.10 218.42 C 225.95 218.60 226.78 218.06 226.96 217.22 L 227.20 216.11 C 227.38 215.27 226.84 214.44 226.00 214.26 C 225.16 214.07 224.33 214.61 224.14 215.45 Z M 223.91 216.54 L 223.69 217.51 C 223.49 218.35 224.01 219.19 224.85 219.39 C 225.69 219.58 226.53 219.06 226.73 218.22 L 226.95 217.24 C 227.15 216.40 226.62 215.56 225.78 215.37 C 224.94 215.17 224.11 215.70 223.91 216.54 Z M 223.69 217.50 L 223.47 218.39 C 223.27 219.23 223.78 220.07 224.62 220.28 C 225.46 220.48 226.30 219.97 226.50 219.13 L 226.72 218.23 C 226.93 217.40 226.41 216.55 225.57 216.35 C 224.74 216.14 223.89 216.66 223.69 217.50 Z M 223.47 218.39 L 223.25 219.27 C 223.05 220.11 223.56 220.96 224.39 221.16 C 225.23 221.37 226.08 220.86 226.28 220.02 L 226.50 219.13 C 226.71 218.30 226.20 217.45 225.36 217.24 C 224.53 217.04 223.68 217.55 223.47 218.39 Z M 223.25 219.28 L 223.02 220.22 C 222.82 221.06 223.33 221.90 224.17 222.11 C 225.00 222.31 225.85 221.80 226.05 220.96 L 226.28 220.02 C 226.49 219.18 225.98 218.34 225.14 218.13 C 224.30 217.93 223.46 218.44 223.25 219.28 Z M 223.02 220.22 L 222.79 221.19 C 222.58 222.03 223.10 222.88 223.94 223.08 C 224.78 223.28 225.62 222.76 225.82 221.93 L 226.06 220.96 C 226.26 220.12 225.74 219.28 224.90 219.07 C 224.07 218.87 223.22 219.39 223.02 220.22 Z M 222.79 221.20 L 222.55 222.21 C 222.35 223.05 222.86 223.89 223.70 224.09 C 224.54 224.29 225.38 223.77 225.58 222.93 L 225.82 221.92 C 226.02 221.08 225.50 220.24 224.67 220.04 C 223.83 219.84 222.98 220.36 222.79 221.20 Z M 222.55 222.21 L 222.33 223.11 C 222.14 223.95 222.66 224.79 223.49 224.99 C 224.33 225.19 225.17 224.67 225.37 223.83 L 225.58 222.93 C 225.78 222.09 225.26 221.25 224.42 221.05 C 223.58 220.85 222.74 221.37 222.55 222.21 Z M 222.34 223.10 L 222.11 224.02 C 221.91 224.86 222.43 225.70 223.26 225.90 C 224.10 226.11 224.94 225.59 225.15 224.75 L 225.37 223.84 C 225.57 223.00 225.06 222.16 224.22 221.95 C 223.38 221.75 222.54 222.26 222.34 223.10 Z M 222.12 224.00 L 221.87 224.97 C 221.65 225.80 222.15 226.65 222.99 226.87 C 223.82 227.09 224.67 226.58 224.89 225.75 L 225.14 224.78 C 225.36 223.94 224.86 223.09 224.02 222.88 C 223.19 222.66 222.34 223.16 222.12 224.00 Z M 221.88 224.93 L 221.58 225.97 C 221.35 226.80 221.83 227.66 222.66 227.90 C 223.49 228.13 224.35 227.65 224.59 226.82 L 224.88 225.78 C 225.12 224.95 224.63 224.09 223.80 223.86 C 222.97 223.62 222.11 224.10 221.88 224.93 Z M 221.59 225.93 L 221.28 226.94 C 221.02 227.76 221.48 228.63 222.31 228.89 C 223.13 229.15 224.01 228.69 224.26 227.87 L 224.58 226.86 C 224.83 226.04 224.37 225.16 223.55 224.91 C 222.73 224.65 221.85 225.11 221.59 225.93 Z M 221.29 226.90 L 220.97 227.87 C 220.69 228.69 221.13 229.58 221.95 229.85 C 222.76 230.13 223.65 229.69 223.92 228.87 L 224.25 227.90 C 224.53 227.08 224.09 226.20 223.27 225.92 C 222.45 225.65 221.57 226.09 221.29 226.90 Z M 220.98 227.84 L 220.62 228.82 C 220.33 229.63 220.75 230.53 221.57 230.82 C 222.38 231.11 223.27 230.69 223.56 229.88 L 223.91 228.90 C 224.21 228.09 223.78 227.19 222.97 226.90 C 222.16 226.61 221.27 227.03 220.98 227.84 Z M 220.63 228.79 L 220.27 229.74 C 219.96 230.55 220.37 231.45 221.17 231.76 C 221.98 232.07 222.88 231.66 223.19 230.86 L 223.55 229.90 C 223.86 229.10 223.46 228.20 222.65 227.89 C 221.84 227.58 220.94 227.99 220.63 228.79 Z M 220.28 229.71 L 219.92 230.61 C 219.60 231.41 219.98 232.32 220.78 232.64 C 221.58 232.97 222.49 232.58 222.81 231.78 L 223.18 230.89 C 223.50 230.09 223.12 229.18 222.32 228.85 C 221.52 228.53 220.61 228.91 220.28 229.71 Z M 219.94 230.57 L 219.51 231.54 C 219.17 232.33 219.52 233.25 220.31 233.59 C 221.10 233.94 222.02 233.58 222.37 232.79 L 222.80 231.82 C 223.14 231.03 222.78 230.11 221.99 229.77 C 221.20 229.42 220.28 229.78 219.94 230.57 Z M 219.54 231.48 L 219.07 232.44 C 218.69 233.22 219.02 234.15 219.79 234.53 C 220.57 234.90 221.50 234.58 221.88 233.81 L 222.35 232.85 C 222.72 232.07 222.40 231.14 221.62 230.76 C 220.85 230.38 219.91 230.71 219.54 231.48 Z M 219.10 232.38 L 218.65 233.22 C 218.24 233.98 218.52 234.92 219.28 235.33 C 220.04 235.74 220.99 235.46 221.40 234.70 L 221.85 233.86 C 222.26 233.11 221.98 232.16 221.22 231.75 C 220.46 231.34 219.51 231.62 219.10 232.38 Z M 218.68 233.17 L 218.22 233.94 C 217.79 234.68 218.04 235.64 218.78 236.08 C 219.52 236.51 220.48 236.26 220.92 235.52 L 221.37 234.75 C 221.81 234.01 221.56 233.05 220.81 232.61 C 220.07 232.18 219.11 232.43 218.68 233.17 Z M 218.25 233.90 L 217.74 234.71 C 217.29 235.44 217.51 236.40 218.24 236.86 C 218.97 237.32 219.93 237.10 220.39 236.36 L 220.89 235.56 C 221.35 234.83 221.13 233.86 220.40 233.41 C 219.67 232.95 218.70 233.17 218.25 233.90 Z M 217.78 234.65 L 217.23 235.46 C 216.74 236.17 216.92 237.14 217.63 237.63 C 218.34 238.12 219.31 237.94 219.80 237.23 L 220.35 236.42 C 220.84 235.71 220.66 234.74 219.95 234.25 C 219.24 233.76 218.27 233.94 217.78 234.65 Z M 217.28 235.38 L 216.65 236.18 C 216.12 236.86 216.23 237.84 216.91 238.37 C 217.59 238.91 218.57 238.79 219.10 238.11 L 219.74 237.31 C 220.27 236.63 220.15 235.65 219.48 235.12 C 218.80 234.58 217.82 234.70 217.28 235.38 Z M 216.72 236.10 L 216.07 236.81 C 215.49 237.45 215.54 238.44 216.17 239.02 C 216.81 239.60 217.80 239.55 218.38 238.91 L 219.03 238.20 C 219.61 237.56 219.56 236.57 218.93 235.99 C 218.29 235.41 217.30 235.46 216.72 236.10 Z M 216.14 236.74 L 215.47 237.39 C 214.85 237.99 214.83 238.98 215.43 239.60 C 216.03 240.22 217.01 240.24 217.63 239.64 L 218.31 238.99 C 218.93 238.39 218.95 237.40 218.35 236.78 C 217.75 236.16 216.76 236.14 216.14 236.74 Z M 215.54 237.33 L 214.78 237.98 C 214.12 238.54 214.05 239.52 214.61 240.18 C 215.17 240.83 216.15 240.91 216.81 240.35 L 217.57 239.70 C 218.22 239.14 218.30 238.15 217.74 237.50 C 217.18 236.84 216.19 236.77 215.54 237.33 Z M 214.85 237.92 L 214.00 238.56 C 213.32 239.08 213.19 240.06 213.71 240.75 C 214.23 241.44 215.21 241.57 215.90 241.05 L 216.74 240.40 C 217.43 239.88 217.56 238.90 217.04 238.22 C 216.51 237.53 215.53 237.40 214.85 237.92 Z M 214.07 238.51 L 213.20 239.11 C 212.48 239.59 212.30 240.56 212.78 241.28 C 213.27 241.99 214.24 242.17 214.95 241.69 L 215.83 241.10 C 216.54 240.61 216.73 239.64 216.24 238.93 C 215.76 238.21 214.79 238.03 214.07 238.51 Z M 213.26 239.07 L 212.41 239.59 C 211.67 240.04 211.45 241.00 211.90 241.74 C 212.35 242.47 213.31 242.70 214.04 242.25 L 214.89 241.73 C 215.62 241.28 215.85 240.32 215.40 239.58 C 214.95 238.85 213.99 238.62 213.26 239.07 Z M 212.46 239.56 L 211.58 240.06 C 210.82 240.48 210.56 241.43 210.98 242.18 C 211.41 242.94 212.36 243.20 213.11 242.78 L 213.99 242.28 C 214.74 241.85 215.01 240.90 214.59 240.15 C 214.16 239.40 213.21 239.14 212.46 239.56 Z M 211.62 240.03 L 210.72 240.50 C 209.95 240.90 209.66 241.85 210.06 242.61 C 210.45 243.37 211.40 243.67 212.16 243.27 L 213.06 242.80 C 213.83 242.40 214.13 241.46 213.73 240.70 C 213.33 239.93 212.39 239.63 211.62 240.03 Z M 210.76 240.48 L 209.86 240.92 C 209.08 241.29 208.76 242.22 209.13 243.00 C 209.51 243.78 210.44 244.10 211.22 243.73 L 212.12 243.29 C 212.89 242.92 213.22 241.99 212.85 241.21 C 212.47 240.43 211.54 240.11 210.76 240.48 Z M 209.91 240.90 L 208.98 241.31 C 208.19 241.65 207.83 242.58 208.18 243.36 C 208.53 244.15 209.45 244.51 210.24 244.16 L 211.17 243.75 C 211.96 243.40 212.31 242.48 211.97 241.69 C 211.62 240.90 210.69 240.55 209.91 240.90 Z M 209.03 241.28 L 208.06 241.67 C 207.26 241.99 206.88 242.90 207.20 243.70 C 207.52 244.50 208.43 244.89 209.23 244.57 L 210.19 244.18 C 210.99 243.86 211.38 242.95 211.06 242.15 C 210.74 241.35 209.83 240.96 209.03 241.28 Z M 208.11 241.65 L 207.17 242.00 C 206.36 242.29 205.95 243.19 206.24 244.00 C 206.54 244.81 207.44 245.23 208.25 244.93 L 209.18 244.59 C 209.99 244.29 210.41 243.39 210.11 242.58 C 209.82 241.77 208.92 241.36 208.11 241.65 Z M 207.21 241.98 L 206.29 242.30 C 205.47 242.57 205.03 243.46 205.31 244.28 C 205.59 245.09 206.47 245.53 207.29 245.25 L 208.21 244.94 C 209.03 244.67 209.47 243.78 209.19 242.96 C 208.91 242.15 208.03 241.71 207.21 241.98 Z M 206.32 242.29 L 205.40 242.58 C 204.58 242.84 204.12 243.72 204.39 244.54 C 204.65 245.36 205.53 245.82 206.35 245.55 L 207.26 245.26 C 208.09 245.00 208.54 244.12 208.28 243.30 C 208.01 242.48 207.14 242.03 206.32 242.29 Z M 205.41 242.58 L 204.44 242.88 C 203.61 243.13 203.15 244.00 203.40 244.83 C 203.66 245.65 204.53 246.11 205.35 245.86 L 206.33 245.56 C 207.16 245.31 207.62 244.43 207.37 243.61 C 207.11 242.78 206.24 242.32 205.41 242.58 Z M 204.45 242.87 L 203.48 243.16 C 202.65 243.40 202.18 244.27 202.42 245.10 C 202.67 245.93 203.53 246.40 204.36 246.15 L 205.34 245.87 C 206.16 245.62 206.64 244.75 206.39 243.93 C 206.15 243.10 205.28 242.63 204.45 242.87 Z M 203.50 243.15 L 202.54 243.42 C 201.71 243.65 201.22 244.52 201.45 245.35 C 201.69 246.18 202.55 246.66 203.38 246.43 L 204.34 246.16 C 205.17 245.93 205.65 245.07 205.42 244.24 C 205.19 243.41 204.33 242.92 203.50 243.15 Z M 202.57 243.41 L 201.63 243.66 C 200.79 243.88 200.29 244.73 200.51 245.56 C 200.73 246.40 201.58 246.90 202.42 246.68 L 203.35 246.44 C 204.19 246.22 204.69 245.37 204.47 244.53 C 204.25 243.70 203.40 243.20 202.57 243.41 Z M 201.67 243.65 L 200.67 243.88 C 199.83 244.08 199.31 244.92 199.50 245.76 C 199.70 246.60 200.54 247.12 201.38 246.92 L 202.38 246.69 C 203.22 246.49 203.74 245.65 203.54 244.81 C 203.34 243.97 202.50 243.45 201.67 243.65 Z M 200.71 243.87 L 199.73 244.07 C 198.89 244.25 198.34 245.07 198.51 245.92 C 198.69 246.76 199.51 247.31 200.36 247.13 L 201.34 246.93 C 202.18 246.76 202.73 245.94 202.55 245.09 C 202.38 244.25 201.56 243.70 200.71 243.87 Z M 199.78 244.07 L 198.81 244.23 C 197.96 244.38 197.39 245.18 197.54 246.03 C 197.68 246.88 198.49 247.45 199.34 247.31 L 200.31 247.14 C 201.16 247.00 201.73 246.19 201.58 245.34 C 201.44 244.49 200.63 243.92 199.78 244.07 Z M 198.86 244.22 L 197.91 244.35 C 197.06 244.47 196.46 245.26 196.58 246.11 C 196.69 246.97 197.48 247.57 198.33 247.45 L 199.29 247.32 C 200.14 247.20 200.74 246.41 200.62 245.56 C 200.50 244.70 199.72 244.11 198.86 244.22 Z M 197.96 244.35 L 197.05 244.44 C 196.20 244.54 195.57 245.30 195.66 246.16 C 195.76 247.02 196.52 247.64 197.38 247.55 L 198.29 247.45 C 199.14 247.36 199.77 246.59 199.67 245.74 C 199.58 244.88 198.81 244.26 197.96 244.35 Z M 197.10 244.44 L 196.14 244.51 C 195.28 244.58 194.64 245.33 194.71 246.19 C 194.77 247.05 195.52 247.69 196.38 247.63 L 197.34 247.55 C 198.20 247.49 198.84 246.74 198.77 245.88 C 198.71 245.02 197.96 244.37 197.10 244.44 Z M 196.18 244.51 L 195.14 244.57 C 194.28 244.61 193.62 245.35 193.67 246.21 C 193.71 247.07 194.45 247.73 195.31 247.68 L 196.34 247.63 C 197.20 247.59 197.87 246.85 197.82 245.99 C 197.78 245.13 197.04 244.47 196.18 244.51 Z M 195.17 244.57 L 194.07 244.60 C 193.21 244.63 192.53 245.35 192.56 246.21 C 192.59 247.07 193.31 247.75 194.17 247.72 L 195.28 247.69 C 196.14 247.66 196.81 246.94 196.79 246.07 C 196.76 245.21 196.04 244.54 195.17 244.57 Z M 194.09 244.60 L 193.11 244.62 C 192.24 244.64 191.56 245.35 191.58 246.21 C 191.59 247.07 192.30 247.76 193.17 247.74 L 194.15 247.72 C 195.01 247.71 195.70 246.99 195.68 246.13 C 195.66 245.27 194.95 244.58 194.09 244.60 Z M 193.12 244.62 L 192.09 244.63 C 191.23 244.64 190.54 245.35 190.55 246.21 C 190.56 247.07 191.26 247.76 192.13 247.75 L 193.15 247.74 C 194.02 247.73 194.71 247.02 194.70 246.16 C 194.69 245.30 193.98 244.61 193.12 244.62 Z M 192.10 244.63 L 191.06 244.64 C 190.20 244.64 189.51 245.34 189.51 246.21 C 189.52 247.07 190.22 247.76 191.08 247.76 L 192.12 247.75 C 192.98 247.75 193.68 247.05 193.67 246.18 C 193.67 245.32 192.96 244.63 192.10 244.63 Z M 191.07 244.64 L 190.06 244.64 C 189.20 244.64 188.50 245.34 188.50 246.20 C 188.50 247.07 189.20 247.76 190.07 247.76 L 191.08 247.76 C 191.94 247.76 192.64 247.06 192.63 246.19 C 192.63 245.33 191.93 244.63 191.07 244.64 Z M 190.06 244.64 L 189.11 244.64 C 188.25 244.64 187.55 245.34 187.55 246.20 C 187.55 247.06 188.25 247.76 189.11 247.76 L 190.06 247.76 C 190.93 247.76 191.62 247.06 191.62 246.20 C 191.62 245.34 190.92 244.64 190.06 244.64 Z M 189.11 244.64 L 188.00 244.64 C 187.13 244.64 186.44 245.34 186.44 246.20 C 186.44 247.06 187.14 247.76 188.00 247.76 L 189.11 247.76 C 189.97 247.76 190.67 247.06 190.67 246.20 C 190.67 245.34 189.97 244.64 189.11 244.64 Z M 187.99 244.64 L 186.98 244.65 C 186.12 244.65 185.43 245.36 185.43 246.22 C 185.44 247.08 186.14 247.78 187.01 247.77 L 188.01 247.76 C 188.87 247.76 189.57 247.05 189.56 246.19 C 189.55 245.33 188.85 244.63 187.99 244.64 Z M 186.96 244.65 L 186.02 244.67 C 185.15 244.69 184.47 245.40 184.49 246.26 C 184.51 247.12 185.22 247.81 186.08 247.79 L 187.03 247.77 C 187.89 247.75 188.57 247.04 188.56 246.17 C 188.54 245.31 187.82 244.63 186.96 244.65 Z M 185.98 244.67 L 185.05 244.71 C 184.18 244.75 183.52 245.47 183.55 246.34 C 183.59 247.20 184.32 247.87 185.18 247.83 L 186.12 247.79 C 186.98 247.75 187.65 247.02 187.61 246.16 C 187.57 245.30 186.84 244.63 185.98 244.67 Z M 185.01 244.71 L 184.05 244.77 C 183.19 244.83 182.53 245.57 182.59 246.43 C 182.65 247.29 183.39 247.95 184.25 247.89 L 185.21 247.83 C 186.07 247.77 186.73 247.03 186.67 246.17 C 186.61 245.31 185.87 244.65 185.01 244.71 Z M 184.02 244.78 L 183.03 244.86 C 182.17 244.93 181.53 245.68 181.60 246.54 C 181.67 247.40 182.43 248.04 183.29 247.97 L 184.28 247.89 C 185.14 247.82 185.78 247.06 185.70 246.20 C 185.63 245.34 184.88 244.71 184.02 244.78 Z M 183.01 244.86 L 182.00 244.95 C 181.14 245.04 180.51 245.80 180.59 246.65 C 180.67 247.51 181.43 248.14 182.29 248.06 L 183.30 247.97 C 184.16 247.89 184.79 247.13 184.71 246.27 C 184.63 245.41 183.87 244.78 183.01 244.86 Z M 181.99 244.96 L 181.00 245.05 C 180.14 245.14 179.52 245.90 179.60 246.76 C 179.69 247.62 180.45 248.25 181.31 248.16 L 182.30 248.06 C 183.16 247.98 183.78 247.21 183.70 246.36 C 183.61 245.50 182.85 244.87 181.99 244.96 Z"
      fill="black"
      fill-rule="nonzero" /></svg>