<svg xmlns="http://www.w3.org/2000/svg" width="300" height="300" viewBox="0 0 300 300">
<path d="M 104.81 87.82 L 104.55 88.75 C 104.31 89.58 104.80 90.44 105.63 90.68 C 106.46 90.91 107.32 90.43 107.55 89.60 L 107.81 88.67 C 108.05 87.84 107.56 86.98 106.73 86.74 C 105.90 86.51 105.04 86.99 104.81 87.82 Z M 104.54 88.79 L 104.29 89.74 C 104.08 90.58 104.59 91.43 105.42 91.64 C 106.26 91.85 107.11 91.35 107.32 90.51 L 107.56 89.56 C 107.78 88.72 107.27 87.87 106.43 87.66 C 105.60 87.45 104.75 87.95 104.54 88.79 Z M 104.28 89.81 L 104.07 90.82 C 103.90 91.66 104.45 92.49 105.29 92.66 C 106.13 92.83 106.96 92.29 107.13 91.44 L 107.34 90.44 C 107.51 89.59 106.96 88.77 106.12 88.60 C 105.28 88.42 104.45 88.97 104.28 89.81 Z M 104.06 90.91 L 103.92 91.91 C 103.79 92.76 104.39 93.55 105.24 93.67 C 106.10 93.79 106.89 93.20 107.01 92.34 L 107.15 91.35 C 107.27 90.49 106.68 89.70 105.82 89.58 C 104.97 89.46 104.18 90.06 104.06 90.91 Z M 103.91 91.99 L 103.82 92.97 C 103.74 93.83 104.38 94.59 105.23 94.67 C 106.09 94.74 106.85 94.11 106.93 93.25 L 107.02 92.26 C 107.09 91.40 106.46 90.65 105.60 90.57 C 104.74 90.49 103.98 91.13 103.91 91.99 Z M 103.81 93.03 L 103.76 94.04 C 103.71 94.90 104.37 95.64 105.23 95.68 C 106.10 95.73 106.83 95.07 106.88 94.21 L 106.93 93.19 C 106.98 92.33 106.32 91.60 105.46 91.55 C 104.60 91.50 103.86 92.17 103.81 93.03 Z M 103.76 94.08 L 103.73 95.09 C 103.70 95.95 104.38 96.67 105.24 96.70 C 106.10 96.73 106.82 96.05 106.85 95.19 L 106.88 94.17 C 106.91 93.31 106.23 92.59 105.37 92.56 C 104.51 92.54 103.79 93.21 103.76 94.08 Z M 103.73 95.11 L 103.71 96.12 C 103.69 96.98 104.38 97.69 105.24 97.70 C 106.10 97.72 106.82 97.03 106.83 96.17 L 106.85 95.17 C 106.86 94.31 106.18 93.59 105.31 93.58 C 104.45 93.56 103.74 94.25 103.73 95.11 Z M 103.71 96.13 L 103.70 97.12 C 103.69 97.98 104.39 98.69 105.25 98.69 C 106.11 98.70 106.82 98.00 106.82 97.14 L 106.83 96.15 C 106.84 95.29 106.14 94.59 105.28 94.58 C 104.42 94.58 103.71 95.27 103.71 96.13 Z M 103.70 97.14 L 103.71 98.13 C 103.71 98.99 104.41 99.68 105.27 99.68 C 106.14 99.68 106.83 98.97 106.83 98.11 L 106.82 97.12 C 106.82 96.26 106.12 95.57 105.25 95.57 C 104.39 95.57 103.70 96.28 103.70 97.14 Z M 103.71 98.15 L 103.73 99.16 C 103.74 100.02 104.45 100.71 105.32 100.69 C 106.18 100.67 106.86 99.96 106.85 99.10 L 106.83 98.09 C 106.81 97.23 106.10 96.54 105.24 96.56 C 104.38 96.57 103.69 97.29 103.71 98.15 Z M 103.73 99.18 L 103.76 100.15 C 103.79 101.01 104.51 101.69 105.37 101.66 C 106.23 101.63 106.91 100.91 106.88 100.05 L 106.85 99.08 C 106.82 98.22 106.10 97.54 105.23 97.57 C 104.37 97.60 103.70 98.32 103.73 99.18 Z M 103.76 100.18 L 103.81 101.14 C 103.85 102.00 104.58 102.67 105.44 102.63 C 106.30 102.58 106.97 101.85 106.92 100.99 L 106.88 100.02 C 106.83 99.16 106.10 98.50 105.24 98.54 C 104.38 98.58 103.72 99.32 103.76 100.18 Z M 103.81 101.18 L 103.88 102.17 C 103.94 103.03 104.69 103.68 105.55 103.62 C 106.41 103.56 107.05 102.81 106.99 101.95 L 106.92 100.96 C 106.86 100.10 106.12 99.45 105.26 99.51 C 104.40 99.57 103.75 100.32 103.81 101.18 Z M 103.88 102.21 L 103.98 103.24 C 104.07 104.10 104.83 104.73 105.69 104.64 C 106.55 104.56 107.17 103.80 107.09 102.94 L 106.99 101.91 C 106.91 101.05 106.14 100.43 105.28 100.51 C 104.43 100.59 103.80 101.36 103.88 102.21 Z M 103.99 103.29 L 104.12 104.32 C 104.23 105.17 105.01 105.78 105.87 105.67 C 106.72 105.56 107.33 104.77 107.22 103.92 L 107.08 102.89 C 106.97 102.03 106.19 101.43 105.34 101.54 C 104.48 101.65 103.88 102.43 103.99 103.29 Z M 104.13 104.36 L 104.28 105.32 C 104.42 106.17 105.22 106.75 106.07 106.62 C 106.92 106.48 107.50 105.68 107.36 104.83 L 107.21 103.87 C 107.07 103.02 106.27 102.44 105.42 102.58 C 104.57 102.71 103.99 103.51 104.13 104.36 Z M 104.29 105.36 L 104.47 106.34 C 104.63 107.18 105.44 107.74 106.29 107.58 C 107.14 107.43 107.70 106.61 107.54 105.76 L 107.36 104.79 C 107.20 103.94 106.38 103.38 105.54 103.54 C 104.69 103.70 104.13 104.52 104.29 105.36 Z M 104.48 106.37 L 104.68 107.35 C 104.86 108.20 105.68 108.74 106.53 108.56 C 107.37 108.39 107.91 107.56 107.74 106.71 L 107.53 105.73 C 107.36 104.89 106.53 104.34 105.69 104.52 C 104.84 104.70 104.30 105.52 104.48 106.37 Z M 104.69 107.38 L 104.91 108.37 C 105.10 109.21 105.94 109.74 106.78 109.55 C 107.62 109.36 108.15 108.52 107.96 107.68 L 107.73 106.69 C 107.54 105.85 106.71 105.32 105.87 105.51 C 105.02 105.70 104.50 106.54 104.69 107.38 Z M 104.92 108.39 L 105.15 109.37 C 105.35 110.20 106.19 110.72 107.03 110.52 C 107.87 110.32 108.39 109.48 108.19 108.64 L 107.95 107.66 C 107.75 106.83 106.91 106.31 106.07 106.51 C 105.23 106.71 104.71 107.55 104.92 108.39 Z M 105.15 109.38 L 105.38 110.28 C 105.59 111.12 106.43 111.63 107.27 111.42 C 108.11 111.21 108.62 110.36 108.41 109.53 L 108.18 108.62 C 107.97 107.79 107.13 107.28 106.29 107.49 C 105.45 107.70 104.94 108.54 105.15 109.38 Z M 105.38 110.30 L 105.62 111.22 C 105.84 112.05 106.69 112.56 107.52 112.34 C 108.36 112.12 108.86 111.27 108.64 110.44 L 108.40 109.51 C 108.19 108.68 107.34 108.18 106.50 108.39 C 105.67 108.61 105.16 109.46 105.38 110.30 Z M 105.62 111.23 L 105.88 112.18 C 106.10 113.02 106.96 113.51 107.79 113.29 C 108.63 113.06 109.12 112.20 108.90 111.37 L 108.64 110.42 C 108.41 109.59 107.56 109.10 106.73 109.32 C 105.89 109.54 105.40 110.40 105.62 111.23 Z M 105.88 112.20 L 106.16 113.19 C 106.39 114.02 107.25 114.51 108.08 114.27 C 108.92 114.04 109.40 113.18 109.17 112.35 L 108.89 111.36 C 108.66 110.53 107.80 110.04 106.97 110.28 C 106.14 110.51 105.65 111.37 105.88 112.20 Z M 106.16 113.20 L 106.47 114.24 C 106.71 115.07 107.57 115.55 108.40 115.31 C 109.23 115.07 109.70 114.21 109.47 113.38 L 109.16 112.34 C 108.93 111.51 108.06 111.03 107.23 111.27 C 106.40 111.51 105.93 112.37 106.16 113.20 Z M 106.47 114.26 L 106.75 115.20 C 107.00 116.03 107.86 116.50 108.69 116.25 C 109.52 116.01 109.99 115.14 109.74 114.31 L 109.46 113.37 C 109.22 112.54 108.35 112.07 107.52 112.31 C 106.69 112.56 106.22 113.43 106.47 114.26 Z M 106.75 115.21 L 107.03 116.13 C 107.28 116.95 108.16 117.42 108.98 117.17 C 109.81 116.92 110.27 116.04 110.02 115.22 L 109.74 114.30 C 109.49 113.48 108.62 113.01 107.79 113.26 C 106.97 113.51 106.50 114.39 106.75 115.21 Z M 107.04 116.14 L 107.33 117.08 C 107.59 117.91 108.47 118.37 109.29 118.11 C 110.11 117.85 110.57 116.97 110.31 116.15 L 110.02 115.21 C 109.76 114.38 108.88 113.93 108.06 114.18 C 107.24 114.44 106.78 115.32 107.04 116.14 Z M 107.34 117.10 L 107.65 118.06 C 107.91 118.88 108.79 119.33 109.61 119.07 C 110.43 118.80 110.88 117.92 110.62 117.10 L 110.31 116.14 C 110.04 115.32 109.16 114.87 108.34 115.13 C 107.52 115.40 107.07 116.28 107.34 117.10 Z M 107.65 118.07 L 107.98 119.05 C 108.25 119.87 109.13 120.31 109.95 120.04 C 110.77 119.76 111.21 118.88 110.94 118.06 L 110.61 117.09 C 110.34 116.27 109.46 115.83 108.64 116.10 C 107.82 116.37 107.38 117.26 107.65 118.07 Z M 107.98 119.06 L 108.32 120.04 C 108.60 120.85 109.49 121.29 110.30 121.01 C 111.12 120.72 111.55 119.84 111.27 119.02 L 110.93 118.05 C 110.65 117.23 109.76 116.80 108.95 117.08 C 108.13 117.36 107.70 118.25 107.98 119.06 Z M 108.32 120.06 L 108.67 121.02 C 108.96 121.84 109.85 122.26 110.67 121.97 C 111.48 121.68 111.90 120.78 111.61 119.97 L 111.26 119.00 C 110.97 118.19 110.08 117.77 109.27 118.06 C 108.45 118.35 108.03 119.24 108.32 120.06 Z M 108.68 121.04 L 109.05 122.05 C 109.35 122.85 110.25 123.26 111.06 122.96 C 111.87 122.66 112.28 121.76 111.98 120.95 L 111.60 119.95 C 111.30 119.14 110.40 118.73 109.59 119.04 C 108.79 119.34 108.38 120.24 108.68 121.04 Z M 109.06 122.07 L 109.44 123.06 C 109.76 123.86 110.66 124.26 111.46 123.95 C 112.27 123.63 112.67 122.73 112.35 121.93 L 111.97 120.93 C 111.66 120.13 110.75 119.73 109.95 120.04 C 109.15 120.36 108.75 121.26 109.06 122.07 Z M 109.45 123.07 L 109.84 124.04 C 110.16 124.84 111.06 125.23 111.86 124.91 C 112.67 124.59 113.05 123.68 112.73 122.88 L 112.35 121.91 C 112.03 121.11 111.12 120.72 110.32 121.04 C 109.52 121.36 109.13 122.27 109.45 123.07 Z M 109.84 124.05 L 110.22 124.98 C 110.55 125.78 111.46 126.16 112.26 125.84 C 113.05 125.51 113.44 124.60 113.11 123.80 L 112.73 122.87 C 112.40 122.07 111.49 121.68 110.70 122.01 C 109.90 122.34 109.51 123.25 109.84 124.05 Z M 110.22 124.98 L 110.59 125.88 C 110.92 126.68 111.83 127.06 112.63 126.73 C 113.43 126.40 113.81 125.49 113.48 124.69 L 113.11 123.79 C 112.78 123.00 111.87 122.62 111.07 122.95 C 110.27 123.27 109.89 124.19 110.22 124.98 Z M 110.59 125.88 L 110.95 126.74 C 111.28 127.54 112.19 127.92 112.99 127.59 C 113.78 127.26 114.16 126.35 113.83 125.55 L 113.48 124.69 C 113.15 123.89 112.24 123.52 111.44 123.84 C 110.64 124.17 110.26 125.09 110.59 125.88 Z M 110.94 126.74 L 111.31 127.63 C 111.64 128.43 112.55 128.81 113.35 128.49 C 114.14 128.16 114.53 127.25 114.20 126.45 L 113.84 125.56 C 113.51 124.76 112.60 124.37 111.80 124.70 C 111.00 125.03 110.62 125.94 110.94 126.74 Z M 111.31 127.62 L 111.71 128.63 C 112.03 129.43 112.94 129.82 113.74 129.50 C 114.54 129.18 114.93 128.27 114.61 127.47 L 114.21 126.46 C 113.89 125.66 112.98 125.27 112.18 125.59 C 111.38 125.91 110.99 126.82 111.31 127.62 Z M 111.71 128.62 L 112.08 129.57 C 112.39 130.37 113.30 130.77 114.10 130.45 C 114.90 130.14 115.30 129.23 114.98 128.43 L 114.61 127.48 C 114.30 126.68 113.39 126.28 112.59 126.60 C 111.79 126.91 111.39 127.82 111.71 128.62 Z M 112.07 129.56 L 112.42 130.46 C 112.73 131.27 113.63 131.67 114.44 131.36 C 115.24 131.05 115.64 130.15 115.33 129.34 L 114.99 128.44 C 114.68 127.63 113.77 127.23 112.97 127.54 C 112.17 127.85 111.76 128.76 112.07 129.56 Z M 112.42 130.46 L 112.75 131.33 C 113.06 132.13 113.96 132.54 114.76 132.23 C 115.57 131.92 115.97 131.02 115.67 130.22 L 115.34 129.35 C 115.03 128.54 114.13 128.14 113.32 128.44 C 112.52 128.75 112.11 129.65 112.42 130.46 Z M 112.75 131.33 L 113.09 132.23 C 113.40 133.03 114.30 133.44 115.10 133.13 C 115.91 132.83 116.32 131.92 116.01 131.12 L 115.67 130.22 C 115.36 129.41 114.46 129.01 113.65 129.31 C 112.85 129.62 112.44 130.52 112.75 131.33 Z M 113.09 132.23 L 113.45 133.18 C 113.76 133.98 114.66 134.39 115.46 134.08 C 116.27 133.78 116.68 132.88 116.37 132.07 L 116.01 131.12 C 115.70 130.31 114.80 129.91 114.00 130.21 C 113.19 130.52 112.79 131.42 113.09 132.23 Z M 113.45 133.17 L 113.80 134.11 C 114.11 134.92 115.00 135.33 115.81 135.03 C 116.62 134.72 117.03 133.82 116.73 133.02 L 116.37 132.08 C 116.07 131.27 115.17 130.86 114.36 131.16 C 113.56 131.46 113.15 132.36 113.45 133.17 Z M 113.80 134.10 L 114.14 135.03 C 114.44 135.84 115.33 136.26 116.14 135.96 C 116.95 135.66 117.37 134.77 117.07 133.96 L 116.73 133.03 C 116.43 132.22 115.54 131.80 114.73 132.10 C 113.92 132.40 113.50 133.29 113.80 134.10 Z M 114.13 135.02 L 114.46 135.94 C 114.75 136.75 115.64 137.18 116.45 136.89 C 117.27 136.60 117.69 135.71 117.40 134.89 L 117.08 133.97 C 116.79 133.16 115.90 132.74 115.08 133.02 C 114.27 133.31 113.85 134.20 114.13 135.02 Z M 114.45 135.92 L 114.78 136.87 C 115.06 137.69 115.94 138.12 116.76 137.85 C 117.58 137.57 118.01 136.68 117.73 135.87 L 117.41 134.91 C 117.13 134.10 116.25 133.66 115.43 133.94 C 114.61 134.22 114.18 135.10 114.45 135.92 Z M 114.77 136.86 L 115.09 137.80 C 115.36 138.62 116.24 139.07 117.06 138.80 C 117.88 138.53 118.32 137.64 118.05 136.82 L 117.74 135.88 C 117.47 135.06 116.59 134.62 115.77 134.89 C 114.95 135.16 114.50 136.04 114.77 136.86 Z M 115.08 137.80 L 115.39 138.74 C 115.66 139.56 116.54 140.01 117.36 139.74 C 118.18 139.47 118.63 138.59 118.36 137.77 L 118.05 136.83 C 117.78 136.01 116.90 135.56 116.08 135.83 C 115.26 136.10 114.82 136.98 115.08 137.80 Z M 115.40 138.75 L 115.71 139.70 C 115.98 140.52 116.86 140.96 117.68 140.69 C 118.50 140.42 118.95 139.54 118.67 138.72 L 118.36 137.77 C 118.09 136.95 117.21 136.51 116.39 136.78 C 115.57 137.05 115.12 137.93 115.40 138.75 Z M 115.71 139.71 L 116.04 140.66 C 116.31 141.48 117.20 141.92 118.02 141.64 C 118.83 141.36 119.27 140.47 118.99 139.66 L 118.67 138.71 C 118.39 137.89 117.51 137.46 116.69 137.73 C 115.87 138.01 115.44 138.90 115.71 139.71 Z M 116.04 140.68 L 116.38 141.63 C 116.67 142.45 117.56 142.87 118.37 142.58 C 119.19 142.30 119.61 141.40 119.32 140.59 L 118.99 139.64 C 118.70 138.83 117.81 138.40 116.99 138.69 C 116.18 138.98 115.76 139.87 116.04 140.68 Z M 116.39 141.66 L 116.74 142.60 C 117.04 143.41 117.94 143.82 118.75 143.52 C 119.56 143.21 119.97 142.32 119.67 141.51 L 119.31 140.57 C 119.01 139.76 118.11 139.35 117.31 139.65 C 116.50 139.95 116.09 140.85 116.39 141.66 Z M 116.75 142.63 L 117.12 143.55 C 117.44 144.35 118.34 144.74 119.15 144.42 C 119.95 144.11 120.34 143.20 120.02 142.40 L 119.65 141.48 C 119.34 140.68 118.43 140.28 117.63 140.60 C 116.83 140.92 116.43 141.83 116.75 142.63 Z M 117.14 143.59 L 117.57 144.60 C 117.91 145.40 118.83 145.76 119.62 145.42 C 120.42 145.08 120.78 144.16 120.44 143.37 L 120.00 142.35 C 119.66 141.56 118.74 141.20 117.95 141.54 C 117.16 141.88 116.79 142.80 117.14 143.59 Z M 117.60 144.66 L 118.06 145.63 C 118.43 146.41 119.36 146.74 120.14 146.37 C 120.92 146.00 121.25 145.07 120.88 144.29 L 120.41 143.31 C 120.04 142.54 119.11 142.21 118.33 142.58 C 117.56 142.95 117.23 143.88 117.60 144.66 Z M 118.10 145.70 L 118.55 146.54 C 118.96 147.30 119.91 147.58 120.67 147.17 C 121.43 146.76 121.71 145.82 121.30 145.06 L 120.84 144.22 C 120.43 143.46 119.49 143.18 118.73 143.59 C 117.97 144.00 117.69 144.94 118.10 145.70 Z M 118.62 146.66 L 119.14 147.44 C 119.61 148.16 120.58 148.36 121.30 147.88 C 122.02 147.41 122.22 146.44 121.74 145.72 L 121.23 144.94 C 120.75 144.22 119.78 144.02 119.06 144.50 C 118.35 144.97 118.15 145.94 118.62 146.66 Z M 119.33 147.68 L 120.05 148.40 C 120.66 149.01 121.65 149.02 122.26 148.41 C 122.87 147.80 122.87 146.82 122.27 146.20 L 121.55 145.48 C 120.94 144.87 119.95 144.86 119.34 145.47 C 118.73 146.08 118.73 147.07 119.33 147.68 Z M 120.26 148.58 L 120.64 148.85 C 121.34 149.35 122.32 149.18 122.82 148.48 C 123.31 147.77 123.15 146.80 122.44 146.30 L 122.06 146.03 C 121.36 145.53 120.38 145.70 119.88 146.40 C 119.39 147.10 119.55 148.08 120.26 148.58 Z"
      fill="black"
      fill-rule="nonzero" /><path d="M 199.73 113.69 L 198.73 113.65 C 197.87 113.62 197.14 114.29 197.11 115.15 C 197.07 116.01 197.74 116.74 198.60 116.77 L 199.60 116.81 C 200.46 116.85 201.19 116.17 201.22 115.31 C 201.26 114.45 200.59 113.73 199.73 113.69 Z M 198.72 113.65 L 197.72 113.62 C 196.86 113.59 196.14 114.26 196.11 115.12 C 196.08 115.98 196.75 116.71 197.61 116.74 L 198.61 116.77 C 199.47 116.80 200.20 116.13 200.23 115.27 C 200.26 114.41 199.58 113.68 198.72 113.65 Z M 197.71 113.62 L 196.71 113.59 C 195.85 113.56 195.13 114.24 195.11 115.11 C 195.08 115.97 195.76 116.69 196.62 116.71 L 197.62 116.74 C 198.49 116.76 199.20 116.08 199.23 115.22 C 199.25 114.36 198.57 113.64 197.71 113.62 Z M 196.69 113.59 L 195.80 113.58 C 194.93 113.56 194.22 114.25 194.21 115.12 C 194.20 115.98 194.89 116.69 195.75 116.70 L 196.65 116.71 C 197.51 116.72 198.22 116.03 198.23 115.17 C 198.24 114.31 197.55 113.60 196.69 113.59 Z M 195.74 113.58 L 194.82 113.60 C 193.96 113.62 193.27 114.34 193.30 115.20 C 193.32 116.06 194.03 116.74 194.90 116.72 L 195.81 116.70 C 196.68 116.68 197.36 115.96 197.34 115.10 C 197.31 114.24 196.60 113.55 195.74 113.58 Z M 194.73 113.60 L 193.70 113.69 C 192.84 113.76 192.20 114.52 192.28 115.38 C 192.35 116.24 193.10 116.87 193.96 116.80 L 194.99 116.72 C 195.85 116.64 196.48 115.89 196.41 115.03 C 196.34 114.17 195.58 113.53 194.73 113.60 Z M 193.60 113.70 L 192.47 113.87 C 191.62 114.00 191.03 114.79 191.16 115.65 C 191.28 116.50 192.08 117.09 192.93 116.96 L 194.06 116.79 C 194.92 116.66 195.50 115.87 195.38 115.02 C 195.25 114.16 194.45 113.57 193.60 113.70 Z M 192.40 113.88 L 191.47 114.07 C 190.62 114.24 190.07 115.06 190.24 115.90 C 190.40 116.75 191.23 117.30 192.07 117.13 L 193.00 116.95 C 193.85 116.78 194.40 115.96 194.23 115.11 C 194.07 114.27 193.24 113.72 192.40 113.88 Z M 191.43 114.08 L 190.44 114.30 C 189.59 114.49 189.06 115.32 189.25 116.16 C 189.44 117.00 190.27 117.53 191.12 117.35 L 192.11 117.12 C 192.95 116.94 193.48 116.10 193.29 115.26 C 193.10 114.42 192.27 113.89 191.43 114.08 Z M 190.41 114.30 L 189.40 114.55 C 188.56 114.74 188.04 115.59 188.24 116.43 C 188.44 117.26 189.28 117.78 190.12 117.58 L 191.14 117.34 C 191.98 117.14 192.49 116.30 192.29 115.46 C 192.09 114.62 191.25 114.10 190.41 114.30 Z M 189.39 114.55 L 188.39 114.79 C 187.55 115.00 187.03 115.84 187.24 116.68 C 187.44 117.52 188.29 118.03 189.13 117.83 L 190.13 117.58 C 190.97 117.38 191.48 116.53 191.28 115.69 C 191.07 114.86 190.23 114.34 189.39 114.55 Z M 188.39 114.79 L 187.44 115.02 C 186.60 115.23 186.08 116.07 186.29 116.91 C 186.49 117.75 187.33 118.26 188.17 118.06 L 189.12 117.83 C 189.96 117.62 190.48 116.78 190.27 115.94 C 190.07 115.10 189.23 114.59 188.39 114.79 Z M 187.45 115.02 L 186.44 115.25 C 185.60 115.45 185.08 116.29 185.27 117.13 C 185.46 117.97 186.30 118.49 187.14 118.30 L 188.16 118.06 C 189.00 117.87 189.52 117.03 189.33 116.19 C 189.13 115.35 188.29 114.82 187.45 115.02 Z M 186.47 115.25 L 185.51 115.45 C 184.67 115.63 184.13 116.46 184.31 117.30 C 184.49 118.14 185.32 118.68 186.16 118.50 L 187.12 118.30 C 187.96 118.12 188.50 117.29 188.32 116.45 C 188.14 115.61 187.31 115.07 186.47 115.25 Z M 185.54 115.44 L 184.61 115.62 C 183.76 115.78 183.21 116.60 183.37 117.45 C 183.53 118.29 184.34 118.85 185.19 118.69 L 186.13 118.51 C 186.97 118.35 187.53 117.53 187.37 116.69 C 187.21 115.84 186.39 115.28 185.54 115.44 Z M 184.64 115.62 L 183.66 115.78 C 182.81 115.92 182.24 116.73 182.39 117.58 C 182.53 118.43 183.33 119.00 184.19 118.86 L 185.16 118.69 C 186.01 118.55 186.58 117.74 186.44 116.89 C 186.30 116.04 185.49 115.47 184.64 115.62 Z M 183.69 115.78 L 182.72 115.92 C 181.87 116.06 181.28 116.85 181.41 117.70 C 181.54 118.56 182.34 119.14 183.19 119.01 L 184.16 118.86 C 185.01 118.73 185.60 117.93 185.47 117.08 C 185.34 116.23 184.54 115.65 183.69 115.78 Z M 182.73 115.92 L 181.81 116.06 C 180.96 116.18 180.36 116.97 180.49 117.82 C 180.61 118.68 181.40 119.27 182.25 119.15 L 183.18 119.01 C 184.03 118.89 184.62 118.10 184.50 117.25 C 184.38 116.39 183.59 115.80 182.73 115.92 Z M 181.82 116.05 L 180.84 116.19 C 179.98 116.31 179.39 117.09 179.50 117.95 C 179.62 118.80 180.41 119.40 181.26 119.28 L 182.24 119.15 C 183.10 119.03 183.70 118.24 183.58 117.39 C 183.46 116.53 182.67 115.94 181.82 116.05 Z M 180.85 116.19 L 179.83 116.32 C 178.97 116.44 178.37 117.22 178.48 118.08 C 178.60 118.93 179.38 119.53 180.24 119.42 L 181.26 119.28 C 182.11 119.17 182.71 118.38 182.60 117.53 C 182.48 116.68 181.70 116.07 180.85 116.19 Z M 179.83 116.32 L 178.79 116.46 C 177.94 116.57 177.33 117.35 177.44 118.21 C 177.56 119.06 178.34 119.66 179.19 119.55 L 180.23 119.42 C 181.09 119.31 181.69 118.53 181.58 117.67 C 181.47 116.82 180.69 116.21 179.83 116.32 Z M 178.80 116.46 L 177.76 116.59 C 176.90 116.70 176.30 117.48 176.41 118.33 C 176.51 119.19 177.30 119.80 178.15 119.69 L 179.19 119.55 C 180.05 119.45 180.65 118.66 180.54 117.81 C 180.43 116.95 179.65 116.35 178.80 116.46 Z M 177.76 116.59 L 176.73 116.72 C 175.88 116.83 175.27 117.61 175.38 118.46 C 175.49 119.32 176.27 119.92 177.12 119.82 L 178.15 119.69 C 179.00 119.58 179.61 118.80 179.50 117.94 C 179.40 117.09 178.61 116.48 177.76 116.59 Z M 176.73 116.72 L 175.72 116.85 C 174.87 116.96 174.26 117.74 174.37 118.59 C 174.48 119.45 175.26 120.05 176.12 119.94 L 177.13 119.82 C 177.98 119.71 178.59 118.93 178.48 118.07 C 178.37 117.21 177.59 116.61 176.73 116.72 Z M 175.72 116.85 L 174.72 116.98 C 173.87 117.09 173.27 117.88 173.38 118.73 C 173.49 119.59 174.28 120.19 175.13 120.07 L 176.12 119.94 C 176.98 119.83 177.58 119.05 177.47 118.19 C 177.35 117.34 176.57 116.73 175.72 116.85 Z M 174.71 116.98 L 173.73 117.12 C 172.88 117.24 172.28 118.03 172.40 118.88 C 172.52 119.74 173.31 120.33 174.17 120.21 L 175.15 120.07 C 176.00 119.95 176.59 119.16 176.47 118.31 C 176.35 117.45 175.56 116.86 174.71 116.98 Z M 173.71 117.12 L 172.74 117.27 C 171.89 117.40 171.30 118.20 171.43 119.05 C 171.57 119.90 172.36 120.49 173.21 120.36 L 174.18 120.21 C 175.04 120.08 175.62 119.28 175.49 118.43 C 175.36 117.58 174.56 116.99 173.71 117.12 Z M 172.72 117.27 L 171.73 117.44 C 170.88 117.59 170.30 118.39 170.45 119.24 C 170.59 120.09 171.40 120.67 172.25 120.52 L 173.24 120.35 C 174.09 120.21 174.66 119.40 174.52 118.55 C 174.37 117.70 173.57 117.13 172.72 117.27 Z M 171.70 117.45 L 170.65 117.65 C 169.80 117.81 169.24 118.62 169.40 119.47 C 169.56 120.32 170.38 120.87 171.22 120.71 L 172.28 120.52 C 173.12 120.36 173.68 119.54 173.52 118.69 C 173.36 117.85 172.55 117.29 171.70 117.45 Z M 170.62 117.65 L 169.60 117.86 C 168.75 118.03 168.21 118.86 168.38 119.70 C 168.55 120.55 169.38 121.09 170.22 120.92 L 171.25 120.71 C 172.09 120.54 172.64 119.71 172.47 118.87 C 172.29 118.02 171.47 117.48 170.62 117.65 Z M 169.58 117.86 L 168.60 118.08 C 167.75 118.26 167.22 119.09 167.40 119.94 C 167.59 120.78 168.42 121.31 169.26 121.13 L 170.24 120.92 C 171.09 120.73 171.62 119.90 171.44 119.06 C 171.25 118.22 170.42 117.68 169.58 117.86 Z M 168.58 118.08 L 167.66 118.29 C 166.82 118.48 166.29 119.32 166.48 120.16 C 166.67 121.00 167.51 121.53 168.35 121.34 L 169.28 121.13 C 170.12 120.93 170.64 120.10 170.45 119.26 C 170.26 118.42 169.42 117.89 168.58 118.08 Z M 167.65 118.29 L 166.74 118.51 C 165.90 118.71 165.38 119.55 165.58 120.39 C 165.78 121.23 166.62 121.75 167.46 121.55 L 168.36 121.33 C 169.20 121.14 169.72 120.29 169.52 119.46 C 169.33 118.62 168.49 118.10 167.65 118.29 Z M 166.73 118.51 L 165.74 118.76 C 164.90 118.96 164.39 119.81 164.59 120.65 C 164.80 121.48 165.65 121.99 166.48 121.79 L 167.47 121.54 C 168.31 121.34 168.82 120.49 168.61 119.65 C 168.41 118.82 167.56 118.31 166.73 118.51 Z M 165.71 118.76 L 164.78 119.01 C 163.95 119.24 163.45 120.09 163.68 120.92 C 163.90 121.76 164.75 122.25 165.59 122.03 L 166.51 121.78 C 167.35 121.56 167.84 120.70 167.62 119.87 C 167.40 119.04 166.54 118.54 165.71 118.76 Z M 164.74 119.02 L 163.80 119.30 C 162.98 119.55 162.51 120.42 162.75 121.24 C 163.00 122.07 163.87 122.54 164.69 122.29 L 165.63 122.02 C 166.45 121.77 166.93 120.90 166.68 120.08 C 166.43 119.25 165.56 118.78 164.74 119.02 Z M 163.76 119.31 L 162.83 119.62 C 162.01 119.89 161.57 120.77 161.83 121.59 C 162.10 122.41 162.99 122.86 163.80 122.59 L 164.74 122.28 C 165.55 122.01 166.00 121.13 165.73 120.31 C 165.46 119.49 164.58 119.05 163.76 119.31 Z M 162.80 119.63 L 161.93 119.94 C 161.11 120.23 160.69 121.12 160.97 121.93 C 161.26 122.75 162.15 123.17 162.97 122.88 L 163.84 122.58 C 164.65 122.29 165.08 121.40 164.79 120.58 C 164.50 119.77 163.61 119.34 162.80 119.63 Z M 161.90 119.95 L 160.97 120.30 C 160.17 120.60 159.76 121.50 160.06 122.31 C 160.37 123.12 161.27 123.52 162.07 123.22 L 163.00 122.87 C 163.80 122.57 164.21 121.67 163.91 120.86 C 163.60 120.05 162.70 119.65 161.90 119.95 Z M 160.94 120.31 L 159.98 120.70 C 159.18 121.02 158.79 121.93 159.11 122.73 C 159.44 123.53 160.34 123.91 161.14 123.59 L 162.10 123.21 C 162.90 122.89 163.29 121.98 162.97 121.18 C 162.65 120.38 161.74 119.99 160.94 120.31 Z M 159.95 120.71 L 158.97 121.13 C 158.18 121.47 157.81 122.38 158.15 123.18 C 158.49 123.97 159.41 124.34 160.20 124.00 L 161.18 123.58 C 161.97 123.24 162.34 122.32 162.00 121.53 C 161.66 120.74 160.74 120.37 159.95 120.71 Z M 158.94 121.14 L 157.99 121.57 C 157.21 121.93 156.86 122.86 157.22 123.64 C 157.58 124.43 158.51 124.77 159.29 124.41 L 160.24 123.98 C 161.02 123.62 161.36 122.70 161.01 121.91 C 160.65 121.13 159.72 120.78 158.94 121.14 Z M 157.96 121.59 L 157.06 122.03 C 156.28 122.41 155.96 123.34 156.34 124.12 C 156.72 124.89 157.65 125.21 158.43 124.84 L 159.33 124.40 C 160.10 124.02 160.42 123.08 160.04 122.31 C 159.67 121.53 158.73 121.21 157.96 121.59 Z M 157.02 122.05 L 156.13 122.51 C 155.37 122.90 155.07 123.85 155.46 124.61 C 155.86 125.38 156.80 125.68 157.57 125.28 L 158.46 124.82 C 159.22 124.42 159.52 123.48 159.13 122.72 C 158.73 121.95 157.79 121.65 157.02 122.05 Z M 156.10 122.52 L 155.22 123.00 C 154.47 123.42 154.19 124.36 154.60 125.12 C 155.01 125.88 155.96 126.16 156.72 125.74 L 157.60 125.26 C 158.36 124.85 158.63 123.90 158.22 123.15 C 157.81 122.39 156.86 122.11 156.10 122.52 Z M 155.19 123.02 L 154.33 123.52 C 153.58 123.95 153.32 124.90 153.75 125.65 C 154.18 126.40 155.14 126.65 155.88 126.22 L 156.75 125.73 C 157.50 125.30 157.75 124.34 157.33 123.60 C 156.90 122.85 155.94 122.59 155.19 123.02 Z M 154.30 123.53 L 153.45 124.05 C 152.71 124.49 152.47 125.45 152.92 126.19 C 153.36 126.93 154.32 127.17 155.06 126.72 L 155.91 126.21 C 156.65 125.76 156.89 124.80 156.44 124.07 C 156.00 123.33 155.04 123.09 154.30 123.53 Z M 153.42 124.06 L 152.59 124.59 C 151.86 125.05 151.64 126.01 152.10 126.74 C 152.56 127.47 153.52 127.69 154.25 127.23 L 155.09 126.70 C 155.82 126.24 156.04 125.28 155.58 124.55 C 155.12 123.82 154.15 123.60 153.42 124.06 Z M 152.56 124.60 L 151.74 125.15 C 151.02 125.62 150.81 126.59 151.29 127.31 C 151.76 128.03 152.73 128.23 153.45 127.76 L 154.28 127.21 C 155.00 126.74 155.20 125.77 154.72 125.05 C 154.25 124.33 153.28 124.13 152.56 124.60 Z M 151.71 125.16 L 150.89 125.72 C 150.18 126.21 150.00 127.18 150.48 127.89 C 150.97 128.60 151.94 128.79 152.65 128.30 L 153.47 127.74 C 154.19 127.26 154.37 126.28 153.88 125.57 C 153.40 124.86 152.43 124.68 151.71 125.16 Z M 150.87 125.74 L 150.05 126.32 C 149.34 126.82 149.18 127.79 149.67 128.49 C 150.17 129.20 151.15 129.37 151.85 128.87 L 152.67 128.29 C 153.38 127.79 153.54 126.82 153.05 126.11 C 152.55 125.41 151.57 125.24 150.87 125.74 Z M 150.03 126.33 L 149.20 126.93 C 148.51 127.44 148.35 128.42 148.86 129.12 C 149.37 129.81 150.34 129.97 151.04 129.46 L 151.87 128.86 C 152.57 128.35 152.72 127.37 152.21 126.67 C 151.70 125.98 150.73 125.82 150.03 126.33 Z M 149.19 126.95 L 148.34 127.58 C 147.65 128.09 147.51 129.07 148.03 129.76 C 148.54 130.45 149.52 130.59 150.21 130.08 L 151.06 129.45 C 151.75 128.93 151.89 127.95 151.37 127.26 C 150.86 126.57 149.88 126.43 149.19 126.95 Z M 148.33 127.59 L 147.49 128.23 C 146.81 128.75 146.67 129.73 147.20 130.41 C 147.72 131.10 148.70 131.23 149.39 130.71 L 150.22 130.07 C 150.91 129.55 151.04 128.57 150.52 127.88 C 150.00 127.20 149.02 127.06 148.33 127.59 Z M 147.48 128.23 L 146.67 128.86 C 145.99 129.39 145.86 130.37 146.39 131.05 C 146.92 131.74 147.90 131.86 148.58 131.33 L 149.39 130.70 C 150.08 130.17 150.20 129.19 149.67 128.51 C 149.15 127.83 148.17 127.71 147.48 128.23 Z M 146.66 128.87 L 145.89 129.47 C 145.21 130.01 145.09 130.99 145.62 131.67 C 146.15 132.34 147.13 132.46 147.81 131.93 L 148.59 131.33 C 149.26 130.80 149.38 129.82 148.85 129.14 C 148.32 128.46 147.34 128.34 146.66 128.87 Z M 145.88 129.48 L 145.17 130.04 C 144.49 130.57 144.37 131.55 144.91 132.23 C 145.44 132.91 146.42 133.03 147.10 132.49 L 147.81 131.93 C 148.49 131.40 148.61 130.42 148.08 129.74 C 147.54 129.06 146.56 128.94 145.88 129.48 Z M 145.17 130.04 L 144.30 130.72 C 143.62 131.26 143.50 132.24 144.04 132.92 C 144.57 133.59 145.55 133.71 146.23 133.18 L 147.10 132.49 C 147.78 131.96 147.89 130.98 147.36 130.30 C 146.83 129.62 145.85 129.51 145.17 130.04 Z M 144.30 130.73 L 143.49 131.36 C 142.81 131.90 142.70 132.88 143.23 133.55 C 143.77 134.23 144.75 134.35 145.43 133.81 L 146.23 133.18 C 146.91 132.64 147.02 131.66 146.49 130.98 C 145.96 130.31 144.97 130.19 144.30 130.73 Z M 143.49 131.37 L 142.77 131.94 C 142.09 132.47 141.98 133.46 142.52 134.13 C 143.05 134.81 144.04 134.92 144.71 134.38 L 145.43 133.81 C 146.11 133.27 146.22 132.29 145.68 131.61 C 145.14 130.94 144.16 130.83 143.49 131.37 Z M 142.76 131.95 L 142.08 132.49 C 141.41 133.03 141.31 134.02 141.85 134.69 C 142.39 135.36 143.38 135.46 144.05 134.92 L 144.72 134.37 C 145.39 133.83 145.50 132.85 144.95 132.18 C 144.41 131.51 143.43 131.40 142.76 131.95 Z M 142.08 132.50 L 141.41 133.04 C 140.74 133.59 140.64 134.57 141.19 135.24 C 141.73 135.91 142.72 136.01 143.38 135.46 L 144.05 134.91 C 144.72 134.37 144.82 133.38 144.27 132.72 C 143.73 132.05 142.74 131.95 142.08 132.50 Z M 141.41 133.04 L 140.66 133.65 C 140.00 134.19 139.90 135.18 140.44 135.85 C 140.98 136.51 141.97 136.61 142.64 136.07 L 143.38 135.46 C 144.05 134.92 144.15 133.93 143.61 133.27 C 143.06 132.60 142.08 132.50 141.41 133.04 Z M 140.67 133.64 L 139.79 134.35 C 139.12 134.89 139.02 135.87 139.56 136.54 C 140.09 137.21 141.08 137.32 141.75 136.78 L 142.63 136.08 C 143.30 135.54 143.41 134.55 142.87 133.88 C 142.33 133.21 141.34 133.10 140.67 133.64 Z M 139.81 134.34 L 138.99 134.98 C 138.31 135.52 138.19 136.50 138.73 137.18 C 139.26 137.85 140.24 137.97 140.92 137.44 L 141.74 136.79 C 142.42 136.26 142.53 135.27 142.00 134.60 C 141.46 133.92 140.48 133.80 139.81 134.34 Z M 138.99 134.98 L 138.22 135.59 C 137.54 136.12 137.41 137.10 137.94 137.78 C 138.47 138.46 139.46 138.58 140.14 138.05 L 140.91 137.44 C 141.59 136.91 141.72 135.93 141.19 135.25 C 140.66 134.57 139.67 134.45 138.99 134.98 Z M 138.22 135.58 L 137.40 136.22 C 136.72 136.75 136.59 137.73 137.12 138.41 C 137.65 139.09 138.63 139.21 139.31 138.69 L 140.13 138.05 C 140.81 137.52 140.94 136.54 140.41 135.86 C 139.88 135.18 138.90 135.05 138.22 135.58 Z M 137.40 136.22 L 136.57 136.86 C 135.89 137.38 135.76 138.36 136.29 139.05 C 136.82 139.73 137.80 139.85 138.48 139.33 L 139.31 138.69 C 139.99 138.16 140.12 137.18 139.59 136.50 C 139.07 135.82 138.09 135.69 137.40 136.22 Z M 136.57 136.85 L 135.77 137.47 C 135.09 138.00 134.96 138.98 135.48 139.66 C 136.01 140.35 136.99 140.47 137.67 139.95 L 138.48 139.33 C 139.16 138.80 139.29 137.82 138.76 137.14 C 138.24 136.46 137.26 136.33 136.57 136.85 Z M 135.77 137.47 L 134.97 138.09 C 134.28 138.62 134.15 139.60 134.68 140.28 C 135.21 140.96 136.19 141.09 136.87 140.57 L 137.67 139.95 C 138.36 139.42 138.48 138.44 137.96 137.76 C 137.43 137.08 136.45 136.95 135.77 137.47 Z M 134.97 138.09 L 134.07 138.78 C 133.39 139.31 133.26 140.29 133.78 140.97 C 134.31 141.65 135.29 141.78 135.97 141.26 L 136.87 140.57 C 137.55 140.04 137.68 139.06 137.16 138.38 C 136.63 137.69 135.65 137.57 134.97 138.09 Z M 134.07 138.78 L 133.28 139.38 C 132.59 139.91 132.46 140.89 132.98 141.57 C 133.51 142.26 134.49 142.39 135.17 141.87 L 135.97 141.26 C 136.65 140.74 136.78 139.76 136.26 139.07 C 135.74 138.39 134.76 138.25 134.07 138.78 Z M 133.29 139.38 L 132.56 139.93 C 131.87 140.44 131.73 141.42 132.24 142.11 C 132.76 142.80 133.74 142.94 134.43 142.42 L 135.16 141.87 C 135.85 141.36 135.99 140.38 135.47 139.69 C 134.96 139.00 133.98 138.86 133.29 139.38 Z M 132.57 139.92 L 131.88 140.42 C 131.18 140.93 131.03 141.91 131.54 142.61 C 132.05 143.30 133.03 143.45 133.72 142.94 L 134.41 142.44 C 135.11 141.93 135.26 140.95 134.75 140.25 C 134.24 139.56 133.27 139.41 132.57 139.92 Z M 131.89 140.41 L 131.24 140.88 C 130.54 141.38 130.38 142.35 130.88 143.05 C 131.38 143.75 132.36 143.92 133.06 143.42 L 133.71 142.95 C 134.41 142.45 134.57 141.48 134.07 140.78 C 133.57 140.07 132.59 139.91 131.89 140.41 Z M 131.25 140.87 L 130.54 141.37 C 129.83 141.87 129.66 142.85 130.16 143.55 C 130.66 144.25 131.63 144.42 132.34 143.93 L 133.05 143.42 C 133.76 142.92 133.92 141.95 133.43 141.25 C 132.93 140.54 131.95 140.37 131.25 140.87 Z M 130.54 141.38 L 129.70 141.96 C 129.00 142.46 128.83 143.44 129.33 144.14 C 129.83 144.84 130.80 145.01 131.51 144.51 L 132.34 143.92 C 133.04 143.43 133.21 142.45 132.71 141.75 C 132.21 141.04 131.24 140.88 130.54 141.38 Z M 129.70 141.97 L 128.70 142.68 C 128.00 143.18 127.84 144.16 128.34 144.86 C 128.84 145.56 129.82 145.72 130.52 145.22 L 131.51 144.51 C 132.22 144.01 132.38 143.03 131.88 142.33 C 131.38 141.63 130.40 141.47 129.70 141.97 Z M 128.69 142.69 L 127.83 143.31 C 127.13 143.82 126.98 144.79 127.48 145.49 C 127.99 146.19 128.96 146.35 129.66 145.84 L 130.52 145.22 C 131.22 144.71 131.38 143.74 130.87 143.04 C 130.37 142.34 129.39 142.18 128.69 142.69 Z M 127.83 143.31 L 127.04 143.89 C 126.34 144.39 126.19 145.37 126.70 146.07 C 127.20 146.76 128.18 146.92 128.88 146.41 L 129.66 145.84 C 130.36 145.33 130.51 144.35 130.01 143.66 C 129.50 142.96 128.52 142.81 127.83 143.31 Z M 127.04 143.89 L 126.20 144.50 C 125.51 145.01 125.36 145.98 125.87 146.68 C 126.38 147.38 127.35 147.53 128.05 147.02 L 128.88 146.41 C 129.58 145.90 129.73 144.92 129.22 144.23 C 128.71 143.53 127.73 143.38 127.04 143.89 Z M 126.20 144.50 L 125.35 145.13 C 124.65 145.64 124.50 146.62 125.01 147.31 C 125.52 148.01 126.50 148.16 127.20 147.64 L 128.05 147.02 C 128.75 146.50 128.89 145.53 128.38 144.83 C 127.87 144.14 126.90 143.99 126.20 144.50 Z M 125.34 145.13 L 124.49 145.76 C 123.79 146.28 123.65 147.25 124.16 147.95 C 124.67 148.64 125.65 148.79 126.34 148.27 L 127.20 147.64 C 127.89 147.13 128.04 146.15 127.53 145.46 C 127.01 144.77 126.04 144.62 125.34 145.13 Z M 124.49 145.77 L 123.65 146.38 C 122.96 146.90 122.82 147.88 123.33 148.57 C 123.84 149.26 124.82 149.40 125.51 148.89 L 126.35 148.27 C 127.04 147.76 127.18 146.78 126.67 146.09 C 126.16 145.40 125.18 145.25 124.49 145.77 Z M 123.65 146.39 L 122.86 146.97 C 122.17 147.49 122.03 148.47 122.55 149.16 C 123.06 149.85 124.04 149.99 124.73 149.47 L 125.52 148.89 C 126.21 148.37 126.35 147.39 125.83 146.70 C 125.32 146.01 124.34 145.87 123.65 146.39 Z M 122.86 146.98 L 122.09 147.56 C 121.40 148.07 121.26 149.05 121.78 149.74 C 122.29 150.43 123.27 150.57 123.96 150.05 L 124.74 149.47 C 125.42 148.95 125.56 147.98 125.05 147.29 C 124.53 146.60 123.55 146.46 122.86 146.98 Z M 122.08 147.56 L 121.12 148.29 C 120.43 148.82 120.30 149.79 120.82 150.48 C 121.34 151.17 122.32 151.30 123.01 150.78 L 123.97 150.05 C 124.65 149.53 124.79 148.55 124.27 147.86 C 123.74 147.17 122.76 147.04 122.08 147.56 Z M 121.10 148.31 L 120.30 148.93 C 119.62 149.46 119.50 150.45 120.03 151.12 C 120.56 151.80 121.54 151.93 122.22 151.39 L 123.02 150.77 C 123.70 150.24 123.82 149.25 123.29 148.58 C 122.76 147.90 121.78 147.78 121.10 148.31 Z M 120.27 148.95 L 119.57 149.53 C 118.90 150.07 118.80 151.05 119.34 151.72 C 119.89 152.39 120.87 152.49 121.54 151.95 L 122.24 151.38 C 122.91 150.83 123.01 149.85 122.47 149.18 C 121.93 148.51 120.94 148.41 120.27 148.95 Z M 119.54 149.55 L 118.88 150.12 C 118.22 150.68 118.14 151.66 118.70 152.32 C 119.26 152.97 120.25 153.05 120.90 152.49 L 121.57 151.92 C 122.22 151.36 122.30 150.38 121.74 149.72 C 121.18 149.07 120.19 148.99 119.54 149.55 Z M 118.85 150.14 L 118.18 150.74 C 117.54 151.31 117.48 152.30 118.06 152.94 C 118.63 153.59 119.62 153.64 120.26 153.07 L 120.93 152.47 C 121.57 151.89 121.63 150.91 121.05 150.26 C 120.48 149.62 119.49 149.57 118.85 150.14 Z M 118.16 150.76 L 117.47 151.40 C 116.84 151.98 116.80 152.97 117.39 153.60 C 117.98 154.24 118.96 154.27 119.60 153.68 L 120.28 153.05 C 120.92 152.46 120.95 151.47 120.37 150.84 C 119.78 150.21 118.79 150.17 118.16 150.76 Z M 117.45 151.42 L 116.74 152.10 C 116.11 152.70 116.10 153.69 116.69 154.31 C 117.29 154.93 118.28 154.95 118.90 154.35 L 119.62 153.67 C 120.24 153.07 120.26 152.08 119.66 151.46 C 119.06 150.84 118.07 150.82 117.45 151.42 Z M 116.72 152.12 L 115.99 152.85 C 115.38 153.46 115.37 154.45 115.98 155.06 C 116.59 155.67 117.58 155.67 118.19 155.06 L 118.92 154.34 C 119.53 153.73 119.53 152.74 118.92 152.13 C 118.32 151.52 117.33 151.51 116.72 152.12 Z M 115.97 152.87 L 115.24 153.62 C 114.64 154.24 114.65 155.23 115.27 155.83 C 115.89 156.43 116.88 156.42 117.48 155.80 L 118.21 155.04 C 118.81 154.42 118.79 153.44 118.17 152.83 C 117.56 152.23 116.57 152.25 115.97 152.87 Z M 115.22 153.65 L 114.51 154.41 C 113.92 155.04 113.95 156.03 114.58 156.61 C 115.21 157.20 116.20 157.17 116.79 156.54 L 117.50 155.77 C 118.09 155.14 118.05 154.16 117.42 153.57 C 116.79 152.98 115.80 153.02 115.22 153.65 Z M 114.48 154.43 L 113.81 155.19 C 113.23 155.83 113.29 156.82 113.93 157.39 C 114.57 157.97 115.56 157.91 116.13 157.27 L 116.81 156.51 C 117.39 155.87 117.33 154.88 116.69 154.31 C 116.05 153.73 115.06 153.79 114.48 154.43 Z M 113.79 155.21 L 113.13 155.98 C 112.57 156.63 112.64 157.62 113.29 158.18 C 113.95 158.74 114.93 158.67 115.50 158.01 L 116.15 157.25 C 116.72 156.59 116.64 155.61 115.99 155.05 C 115.33 154.48 114.35 154.56 113.79 155.21 Z M 113.11 156.00 L 112.47 156.77 C 111.92 157.44 112.02 158.42 112.68 158.97 C 113.35 159.52 114.33 159.42 114.88 158.76 L 115.52 157.99 C 116.07 157.32 115.97 156.34 115.31 155.79 C 114.64 155.24 113.66 155.34 113.11 156.00 Z M 112.45 156.79 L 111.84 157.57 C 111.31 158.24 111.42 159.23 112.10 159.76 C 112.77 160.30 113.75 160.18 114.29 159.51 L 114.90 158.73 C 115.44 158.06 115.32 157.07 114.65 156.54 C 113.97 156.00 112.99 156.12 112.45 156.79 Z M 111.82 157.59 L 111.22 158.38 C 110.70 159.07 110.84 160.05 111.52 160.57 C 112.21 161.09 113.19 160.96 113.71 160.27 L 114.31 159.48 C 114.83 158.79 114.70 157.81 114.01 157.29 C 113.32 156.77 112.34 156.91 111.82 157.59 Z M 111.20 158.41 L 110.61 159.23 C 110.10 159.93 110.26 160.90 110.95 161.41 C 111.65 161.92 112.63 161.76 113.13 161.06 L 113.73 160.24 C 114.24 159.54 114.08 158.57 113.38 158.06 C 112.69 157.55 111.71 157.71 111.20 158.41 Z M 110.59 159.25 L 110.02 160.08 C 109.52 160.79 109.70 161.76 110.41 162.25 C 111.11 162.74 112.09 162.57 112.58 161.86 L 113.15 161.04 C 113.64 160.33 113.47 159.36 112.76 158.86 C 112.05 158.37 111.08 158.55 110.59 159.25 Z M 110.00 160.10 L 109.45 160.93 C 108.97 161.65 109.16 162.62 109.88 163.09 C 110.60 163.57 111.57 163.38 112.04 162.66 L 112.60 161.84 C 113.08 161.12 112.88 160.15 112.17 159.67 C 111.45 159.19 110.48 159.39 110.00 160.10 Z M 109.43 160.95 L 108.90 161.78 C 108.43 162.51 108.64 163.47 109.37 163.94 C 110.09 164.41 111.06 164.20 111.52 163.47 L 112.06 162.64 C 112.53 161.92 112.32 160.95 111.59 160.48 C 110.87 160.02 109.90 160.23 109.43 160.95 Z M 108.89 161.80 L 108.36 162.65 C 107.90 163.38 108.13 164.34 108.86 164.80 C 109.59 165.25 110.56 165.03 111.01 164.30 L 111.54 163.45 C 111.99 162.72 111.77 161.76 111.04 161.30 C 110.30 160.85 109.34 161.07 108.89 161.80 Z M 108.35 162.66 L 107.83 163.52 C 107.38 164.26 107.62 165.22 108.36 165.67 C 109.10 166.11 110.06 165.88 110.50 165.14 L 111.02 164.28 C 111.47 163.54 111.23 162.58 110.49 162.14 C 109.76 161.69 108.80 161.93 108.35 162.66 Z M 107.82 163.53 L 107.31 164.40 C 106.87 165.14 107.12 166.09 107.86 166.53 C 108.60 166.97 109.56 166.73 110.00 165.99 L 110.51 165.13 C 110.95 164.39 110.70 163.43 109.96 162.99 C 109.22 162.55 108.26 162.79 107.82 163.53 Z M 107.31 164.40 L 106.80 165.26 C 106.37 166.01 106.62 166.96 107.36 167.40 C 108.10 167.84 109.06 167.59 109.50 166.84 L 110.00 165.98 C 110.44 165.24 110.19 164.28 109.45 163.85 C 108.70 163.41 107.75 163.66 107.31 164.40 Z M 106.80 165.26 L 106.30 166.12 C 105.86 166.87 106.11 167.82 106.86 168.26 C 107.60 168.69 108.56 168.45 108.99 167.70 L 109.50 166.84 C 109.93 166.10 109.68 165.14 108.94 164.71 C 108.20 164.27 107.24 164.52 106.80 165.26 Z M 106.30 166.12 L 105.82 166.93 C 105.38 167.67 105.63 168.63 106.37 169.07 C 107.12 169.50 108.07 169.26 108.51 168.52 L 108.99 167.71 C 109.43 166.96 109.18 166.01 108.44 165.57 C 107.70 165.13 106.74 165.38 106.30 166.12 Z M 105.82 166.93 L 105.35 167.73 C 104.91 168.47 105.15 169.43 105.90 169.87 C 106.64 170.31 107.60 170.06 108.04 169.32 L 108.51 168.52 C 108.95 167.78 108.71 166.82 107.96 166.38 C 107.22 165.94 106.26 166.18 105.82 166.93 Z M 105.35 167.73 L 104.86 168.56 C 104.42 169.30 104.67 170.26 105.41 170.70 C 106.15 171.13 107.11 170.89 107.55 170.15 L 108.04 169.32 C 108.48 168.57 108.23 167.62 107.49 167.18 C 106.74 166.74 105.79 166.99 105.35 167.73 Z M 104.85 168.57 L 104.34 169.45 C 103.91 170.19 104.16 171.15 104.91 171.58 C 105.65 172.01 106.61 171.76 107.04 171.02 L 107.55 170.14 C 107.99 169.39 107.73 168.44 106.99 168.00 C 106.24 167.57 105.29 167.82 104.85 168.57 Z M 104.34 169.46 L 103.80 170.40 C 103.37 171.15 103.63 172.11 104.38 172.53 C 105.13 172.96 106.08 172.70 106.51 171.95 L 107.05 171.00 C 107.48 170.25 107.22 169.30 106.47 168.87 C 105.72 168.45 104.76 168.71 104.34 169.46 Z M 103.79 170.42 L 103.31 171.28 C 102.89 172.03 103.16 172.98 103.91 173.40 C 104.66 173.82 105.61 173.55 106.03 172.80 L 106.52 171.94 C 106.94 171.18 106.67 170.23 105.91 169.81 C 105.16 169.39 104.21 169.66 103.79 170.42 Z M 103.30 171.29 L 102.85 172.11 C 102.44 172.86 102.72 173.81 103.47 174.23 C 104.23 174.64 105.18 174.36 105.59 173.61 L 106.04 172.79 C 106.45 172.03 106.18 171.09 105.42 170.67 C 104.66 170.26 103.72 170.53 103.30 171.29 Z M 102.85 172.12 L 102.39 172.97 C 101.98 173.73 102.26 174.68 103.02 175.09 C 103.78 175.50 104.73 175.21 105.14 174.46 L 105.60 173.60 C 106.01 172.84 105.72 171.89 104.96 171.48 C 104.20 171.07 103.26 171.36 102.85 172.12 Z M 102.38 172.98 L 101.91 173.87 C 101.51 174.64 101.80 175.58 102.56 175.98 C 103.32 176.39 104.26 176.10 104.67 175.34 L 105.14 174.45 C 105.54 173.69 105.25 172.74 104.49 172.34 C 103.73 171.93 102.79 172.22 102.38 172.98 Z M 101.90 173.88 L 101.43 174.80 C 101.03 175.56 101.32 176.51 102.09 176.90 C 102.85 177.30 103.79 177.01 104.19 176.24 L 104.67 175.33 C 105.07 174.56 104.78 173.62 104.01 173.22 C 103.25 172.82 102.30 173.12 101.90 173.88 Z M 101.42 174.81 L 100.94 175.74 C 100.55 176.51 100.85 177.45 101.61 177.84 C 102.38 178.24 103.32 177.94 103.72 177.17 L 104.20 176.24 C 104.59 175.47 104.29 174.53 103.52 174.13 C 102.76 173.74 101.82 174.04 101.42 174.81 Z M 100.94 175.75 L 100.46 176.69 C 100.07 177.46 100.38 178.40 101.15 178.79 C 101.91 179.18 102.85 178.87 103.24 178.10 L 103.72 177.16 C 104.11 176.39 103.80 175.45 103.03 175.06 C 102.27 174.67 101.33 174.98 100.94 175.75 Z M 100.45 176.70 L 100.00 177.60 C 99.62 178.38 99.93 179.31 100.70 179.70 C 101.48 180.08 102.41 179.77 102.80 179.00 L 103.25 178.09 C 103.63 177.32 103.32 176.39 102.55 176.00 C 101.78 175.62 100.84 175.93 100.45 176.70 Z M 100.00 177.61 L 99.56 178.51 C 99.18 179.28 99.50 180.22 100.28 180.60 C 101.05 180.97 101.99 180.65 102.37 179.88 L 102.80 178.99 C 103.18 178.21 102.86 177.28 102.09 176.90 C 101.31 176.52 100.38 176.84 100.00 177.61 Z M 99.56 178.52 L 99.13 179.41 C 98.75 180.19 99.08 181.12 99.86 181.50 C 100.63 181.87 101.57 181.54 101.94 180.77 L 102.37 179.87 C 102.74 179.09 102.42 178.16 101.64 177.79 C 100.86 177.41 99.93 177.74 99.56 178.52 Z M 99.12 179.42 L 98.70 180.32 C 98.33 181.10 98.66 182.03 99.44 182.40 C 100.22 182.77 101.15 182.43 101.52 181.65 L 101.95 180.75 C 102.31 179.97 101.98 179.04 101.20 178.68 C 100.42 178.31 99.49 178.64 99.12 179.42 Z M 98.69 180.34 L 98.27 181.24 C 97.91 182.03 98.26 182.95 99.04 183.31 C 99.82 183.68 100.75 183.33 101.11 182.55 L 101.53 181.64 C 101.89 180.86 101.55 179.93 100.76 179.57 C 99.98 179.21 99.05 179.55 98.69 180.34 Z M 98.27 181.26 L 97.86 182.17 C 97.50 182.96 97.85 183.88 98.64 184.24 C 99.43 184.59 100.35 184.24 100.70 183.45 L 101.12 182.54 C 101.47 181.75 101.12 180.83 100.33 180.47 C 99.55 180.12 98.62 180.47 98.27 181.26 Z M 97.85 182.18 L 97.44 183.11 C 97.10 183.90 97.46 184.82 98.25 185.17 C 99.04 185.51 99.96 185.15 100.30 184.37 L 100.71 183.44 C 101.06 182.65 100.70 181.73 99.91 181.38 C 99.12 181.04 98.20 181.40 97.85 182.18 Z M 97.44 183.12 L 97.02 184.09 C 96.69 184.88 97.05 185.80 97.85 186.14 C 98.64 186.48 99.56 186.11 99.90 185.32 L 100.31 184.35 C 100.65 183.56 100.28 182.64 99.49 182.30 C 98.69 181.96 97.78 182.33 97.44 183.12 Z M 97.02 184.11 L 96.60 185.11 C 96.27 185.90 96.65 186.82 97.44 187.15 C 98.24 187.48 99.15 187.10 99.48 186.31 L 99.90 185.30 C 100.23 184.51 99.86 183.59 99.06 183.26 C 98.26 182.93 97.35 183.31 97.02 184.11 Z M 96.60 185.12 L 96.19 186.12 C 95.87 186.92 96.25 187.83 97.05 188.15 C 97.85 188.47 98.76 188.09 99.09 187.29 L 99.49 186.30 C 99.81 185.50 99.43 184.59 98.63 184.26 C 97.83 183.94 96.92 184.32 96.60 185.12 Z M 96.19 186.13 L 95.80 187.10 C 95.48 187.90 95.88 188.81 96.68 189.13 C 97.48 189.45 98.39 189.05 98.70 188.25 L 99.09 187.28 C 99.41 186.48 99.02 185.57 98.21 185.25 C 97.41 184.93 96.51 185.33 96.19 186.13 Z M 95.80 187.11 L 95.43 188.05 C 95.12 188.85 95.52 189.75 96.32 190.07 C 97.13 190.38 98.03 189.98 98.35 189.18 L 98.71 188.24 C 99.02 187.44 98.62 186.53 97.82 186.22 C 97.01 185.91 96.11 186.31 95.80 187.11 Z M 95.43 188.06 L 95.10 188.94 C 94.79 189.74 95.19 190.65 96.00 190.95 C 96.81 191.26 97.71 190.85 98.01 190.05 L 98.35 189.17 C 98.66 188.36 98.25 187.46 97.44 187.15 C 96.64 186.84 95.74 187.25 95.43 188.06 Z M 95.09 188.95 L 94.79 189.76 C 94.49 190.57 94.90 191.47 95.71 191.77 C 96.52 192.07 97.41 191.66 97.72 190.85 L 98.02 190.04 C 98.32 189.23 97.91 188.33 97.10 188.03 C 96.29 187.73 95.39 188.14 95.09 188.95 Z M 94.78 189.78 L 94.41 190.80 C 94.12 191.61 94.54 192.51 95.35 192.80 C 96.17 193.09 97.06 192.67 97.35 191.86 L 97.72 190.84 C 98.01 190.02 97.59 189.13 96.78 188.84 C 95.97 188.55 95.08 188.97 94.78 189.78 Z M 94.40 190.83 L 94.06 191.84 C 93.79 192.66 94.23 193.54 95.04 193.82 C 95.86 194.09 96.75 193.66 97.02 192.84 L 97.36 191.83 C 97.64 191.01 97.20 190.13 96.38 189.85 C 95.57 189.57 94.68 190.01 94.40 190.83 Z M 94.05 191.89 L 93.78 192.79 C 93.53 193.61 94.00 194.48 94.82 194.73 C 95.65 194.98 96.52 194.51 96.77 193.69 L 97.04 192.79 C 97.29 191.96 96.82 191.09 95.99 190.85 C 95.17 190.60 94.30 191.06 94.05 191.89 Z M 93.76 192.85 L 93.54 193.71 C 93.32 194.55 93.83 195.40 94.66 195.61 C 95.50 195.83 96.35 195.32 96.56 194.49 L 96.78 193.63 C 97.00 192.79 96.50 191.94 95.66 191.73 C 94.83 191.51 93.97 192.01 93.76 192.85 Z M 93.52 193.77 L 93.33 194.66 C 93.15 195.50 93.69 196.33 94.53 196.51 C 95.37 196.69 96.20 196.16 96.39 195.31 L 96.58 194.43 C 96.76 193.59 96.22 192.75 95.38 192.57 C 94.54 192.39 93.71 192.93 93.52 193.77 Z M 93.32 194.71 L 93.15 195.65 C 93.00 196.50 93.57 197.31 94.41 197.46 C 95.26 197.61 96.07 197.05 96.23 196.20 L 96.40 195.26 C 96.55 194.41 95.98 193.60 95.14 193.45 C 94.29 193.30 93.48 193.86 93.32 194.71 Z M 93.15 195.70 L 93.00 196.69 C 92.87 197.54 93.46 198.34 94.32 198.46 C 95.17 198.59 95.96 198.00 96.09 197.14 L 96.23 196.15 C 96.36 195.30 95.77 194.50 94.92 194.38 C 94.06 194.25 93.27 194.84 93.15 195.70 Z M 92.99 196.74 L 92.88 197.77 C 92.78 198.63 93.39 199.40 94.25 199.50 C 95.11 199.60 95.88 198.98 95.98 198.13 L 96.10 197.09 C 96.19 196.24 95.58 195.46 94.72 195.37 C 93.86 195.27 93.09 195.88 92.99 196.74 Z M 92.87 197.83 L 92.79 198.88 C 92.72 199.74 93.36 200.49 94.22 200.56 C 95.08 200.63 95.83 199.99 95.90 199.13 L 95.98 198.08 C 96.05 197.22 95.41 196.46 94.55 196.39 C 93.69 196.33 92.94 196.97 92.87 197.83 Z M 92.78 198.93 L 92.73 199.96 C 92.69 200.82 93.36 201.55 94.22 201.59 C 95.08 201.63 95.81 200.97 95.85 200.10 L 95.90 199.08 C 95.94 198.22 95.28 197.48 94.42 197.44 C 93.55 197.40 92.82 198.07 92.78 198.93 Z M 92.73 200.01 L 92.72 201.03 C 92.70 201.89 93.39 202.60 94.25 202.62 C 95.11 202.63 95.82 201.94 95.84 201.08 L 95.85 200.06 C 95.87 199.19 95.18 198.48 94.32 198.47 C 93.46 198.46 92.75 199.14 92.73 200.01 Z M 92.72 201.08 L 92.73 202.08 C 92.75 202.94 93.46 203.63 94.32 203.61 C 95.18 203.60 95.87 202.89 95.85 202.03 L 95.84 201.03 C 95.82 200.17 95.11 199.48 94.25 199.49 C 93.39 199.51 92.70 200.22 92.72 201.08 Z M 92.73 202.13 L 92.78 203.09 C 92.83 203.95 93.56 204.61 94.42 204.57 C 95.28 204.53 95.95 203.79 95.90 202.93 L 95.85 201.97 C 95.81 201.11 95.07 200.45 94.21 200.49 C 93.35 200.54 92.69 201.27 92.73 202.13 Z M 92.79 203.16 L 92.89 204.20 C 92.97 205.05 93.73 205.68 94.59 205.60 C 95.45 205.52 96.08 204.76 96.00 203.90 L 95.90 202.86 C 95.82 202.00 95.05 201.38 94.20 201.46 C 93.34 201.54 92.71 202.30 92.79 203.16 Z M 92.90 204.28 L 93.05 205.28 C 93.18 206.14 93.97 206.72 94.83 206.59 C 95.68 206.47 96.27 205.67 96.14 204.82 L 95.99 203.81 C 95.86 202.96 95.06 202.38 94.21 202.50 C 93.36 202.63 92.77 203.43 92.90 204.28 Z M 93.07 205.38 L 93.27 206.33 C 93.45 207.17 94.28 207.71 95.13 207.53 C 95.97 207.34 96.51 206.51 96.32 205.67 L 96.12 204.72 C 95.94 203.88 95.11 203.34 94.26 203.52 C 93.42 203.71 92.89 204.54 93.07 205.38 Z M 93.30 206.43 L 93.56 207.34 C 93.79 208.17 94.66 208.65 95.48 208.42 C 96.31 208.18 96.80 207.32 96.56 206.49 L 96.30 205.57 C 96.06 204.74 95.20 204.26 94.37 204.50 C 93.54 204.73 93.06 205.60 93.30 206.43 Z M 93.59 207.43 L 93.91 208.36 C 94.19 209.17 95.08 209.60 95.90 209.31 C 96.71 209.03 97.14 208.14 96.86 207.33 L 96.53 206.40 C 96.25 205.59 95.36 205.16 94.54 205.44 C 93.73 205.73 93.30 206.62 93.59 207.43 Z M 93.94 208.43 L 94.31 209.35 C 94.64 210.15 95.55 210.53 96.35 210.21 C 97.15 209.88 97.53 208.97 97.20 208.17 L 96.83 207.25 C 96.50 206.45 95.59 206.07 94.79 206.40 C 93.99 206.72 93.61 207.63 93.94 208.43 Z M 94.34 209.41 L 94.76 210.33 C 95.11 211.11 96.04 211.46 96.82 211.10 C 97.61 210.75 97.95 209.82 97.60 209.04 L 97.18 208.12 C 96.82 207.33 95.90 206.98 95.11 207.34 C 94.33 207.70 93.98 208.62 94.34 209.41 Z M 94.77 210.37 L 95.22 211.27 C 95.60 212.05 96.53 212.37 97.31 211.99 C 98.08 211.61 98.40 210.68 98.02 209.90 L 97.58 209.00 C 97.20 208.22 96.27 207.90 95.49 208.28 C 94.72 208.66 94.40 209.59 94.77 210.37 Z M 95.23 211.31 L 95.69 212.19 C 96.09 212.95 97.03 213.25 97.79 212.85 C 98.56 212.46 98.86 211.52 98.46 210.75 L 98.01 209.87 C 97.61 209.10 96.67 208.81 95.90 209.20 C 95.14 209.60 94.84 210.54 95.23 211.31 Z M 95.71 212.22 L 96.19 213.10 C 96.60 213.85 97.55 214.13 98.31 213.72 C 99.06 213.30 99.34 212.35 98.93 211.60 L 98.44 210.72 C 98.03 209.96 97.08 209.68 96.32 210.10 C 95.57 210.51 95.29 211.46 95.71 212.22 Z M 96.21 213.14 L 96.72 214.01 C 97.15 214.75 98.11 215.00 98.86 214.57 C 99.60 214.13 99.85 213.18 99.42 212.43 L 98.91 211.56 C 98.47 210.82 97.51 210.56 96.77 211.00 C 96.03 211.44 95.77 212.39 96.21 213.14 Z M 96.74 214.05 L 97.28 214.90 C 97.74 215.63 98.70 215.85 99.43 215.40 C 100.16 214.94 100.38 213.98 99.92 213.24 L 99.39 212.39 C 98.93 211.66 97.97 211.44 97.24 211.90 C 96.51 212.35 96.29 213.32 96.74 214.05 Z M 97.31 214.94 L 97.86 215.77 C 98.34 216.49 99.31 216.68 100.03 216.20 C 100.75 215.72 100.94 214.75 100.46 214.03 L 99.90 213.20 C 99.42 212.49 98.45 212.30 97.73 212.78 C 97.02 213.26 96.82 214.23 97.31 214.94 Z M 97.89 215.82 L 98.48 216.63 C 98.98 217.33 99.96 217.49 100.66 216.98 C 101.36 216.48 101.52 215.50 101.01 214.80 L 100.43 213.99 C 99.92 213.29 98.95 213.13 98.25 213.64 C 97.55 214.14 97.39 215.12 97.89 215.82 Z M 98.51 216.67 L 99.12 217.46 C 99.65 218.14 100.63 218.26 101.32 217.74 C 102.00 217.21 102.12 216.23 101.59 215.54 L 100.98 214.76 C 100.45 214.08 99.47 213.95 98.79 214.48 C 98.11 215.01 97.98 215.99 98.51 216.67 Z M 99.16 217.51 L 99.80 218.27 C 100.35 218.93 101.34 219.02 102.00 218.46 C 102.66 217.91 102.75 216.92 102.19 216.26 L 101.55 215.50 C 101.00 214.84 100.02 214.75 99.35 215.31 C 98.69 215.86 98.61 216.84 99.16 217.51 Z M 99.84 218.31 L 100.50 219.05 C 101.08 219.69 102.07 219.74 102.71 219.16 C 103.35 218.59 103.40 217.60 102.82 216.96 L 102.16 216.22 C 101.58 215.58 100.59 215.53 99.95 216.10 C 99.31 216.68 99.26 217.67 99.84 218.31 Z M 100.54 219.08 L 101.23 219.81 C 101.82 220.43 102.81 220.45 103.43 219.85 C 104.06 219.26 104.08 218.27 103.48 217.65 L 102.79 216.92 C 102.19 216.30 101.20 216.28 100.58 216.88 C 99.96 217.47 99.94 218.46 100.54 219.08 Z M 101.26 219.84 L 101.97 220.54 C 102.58 221.15 103.57 221.14 104.18 220.53 C 104.79 219.92 104.78 218.93 104.17 218.32 L 103.45 217.62 C 102.84 217.01 101.85 217.01 101.24 217.63 C 100.64 218.24 100.64 219.23 101.26 219.84 Z M 102.00 220.57 L 102.66 221.20 C 103.29 221.79 104.27 221.76 104.87 221.13 C 105.46 220.51 105.43 219.52 104.81 218.93 L 104.14 218.30 C 103.52 217.71 102.53 217.73 101.94 218.36 C 101.34 218.99 101.37 219.98 102.00 220.57 Z M 102.69 221.22 L 103.38 221.84 C 104.02 222.41 105.01 222.36 105.58 221.72 C 106.16 221.07 106.10 220.09 105.46 219.51 L 104.77 218.90 C 104.13 218.32 103.14 218.38 102.57 219.02 C 101.99 219.66 102.05 220.65 102.69 221.22 Z M 103.42 221.87 L 104.18 222.50 C 104.84 223.06 105.82 222.97 106.37 222.30 C 106.93 221.64 106.84 220.66 106.17 220.11 L 105.42 219.48 C 104.76 218.92 103.77 219.01 103.22 219.68 C 102.67 220.34 102.76 221.32 103.42 221.87 Z M 104.22 222.54 L 105.07 223.20 C 105.76 223.72 106.74 223.60 107.26 222.91 C 107.79 222.23 107.66 221.25 106.98 220.72 L 106.13 220.07 C 105.45 219.54 104.46 219.67 103.94 220.35 C 103.41 221.03 103.54 222.01 104.22 222.54 Z M 105.12 223.23 L 106.01 223.87 C 106.71 224.37 107.69 224.21 108.19 223.50 C 108.69 222.80 108.53 221.83 107.82 221.33 L 106.93 220.69 C 106.23 220.19 105.26 220.35 104.76 221.05 C 104.25 221.76 104.42 222.73 105.12 223.23 Z M 106.05 223.89 L 106.88 224.45 C 107.60 224.93 108.57 224.74 109.05 224.03 C 109.53 223.31 109.34 222.34 108.62 221.86 L 107.79 221.30 C 107.07 220.82 106.10 221.01 105.62 221.73 C 105.14 222.44 105.33 223.41 106.05 223.89 Z M 106.91 224.47 L 107.79 225.03 C 108.51 225.50 109.48 225.29 109.94 224.56 C 110.41 223.84 110.20 222.87 109.47 222.41 L 108.59 221.84 C 107.87 221.38 106.90 221.59 106.44 222.31 C 105.97 223.04 106.18 224.01 106.91 224.47 Z M 107.81 225.05 L 108.70 225.60 C 109.44 226.05 110.40 225.82 110.85 225.08 C 111.30 224.35 111.07 223.39 110.34 222.94 L 109.45 222.39 C 108.71 221.94 107.75 222.17 107.30 222.90 C 106.85 223.64 107.08 224.60 107.81 225.05 Z M 108.73 225.61 L 109.61 226.13 C 110.35 226.56 111.31 226.32 111.74 225.57 C 112.18 224.83 111.93 223.87 111.19 223.44 L 110.31 222.92 C 109.57 222.48 108.61 222.73 108.18 223.48 C 107.74 224.22 107.99 225.18 108.73 225.61 Z M 109.63 226.14 L 110.46 226.61 C 111.21 227.03 112.17 226.76 112.59 226.01 C 113.01 225.25 112.74 224.30 111.99 223.88 L 111.16 223.42 C 110.41 223.00 109.45 223.27 109.03 224.02 C 108.61 224.77 108.88 225.72 109.63 226.14 Z M 110.51 226.63 L 111.49 227.14 C 112.26 227.54 113.20 227.24 113.60 226.48 C 113.99 225.71 113.70 224.77 112.93 224.37 L 111.94 223.86 C 111.18 223.46 110.23 223.76 109.84 224.53 C 109.44 225.29 109.74 226.23 110.51 226.63 Z M 111.56 227.17 L 112.53 227.62 C 113.31 227.98 114.24 227.64 114.60 226.86 C 114.96 226.08 114.62 225.15 113.84 224.79 L 112.87 224.34 C 112.08 223.98 111.16 224.32 110.79 225.10 C 110.43 225.88 110.77 226.81 111.56 227.17 Z M 112.60 227.65 L 113.46 228.00 C 114.26 228.33 115.17 227.94 115.49 227.14 C 115.82 226.34 115.43 225.43 114.63 225.11 L 113.77 224.76 C 112.97 224.44 112.06 224.82 111.74 225.62 C 111.41 226.42 111.80 227.33 112.60 227.65 Z M 113.51 228.02 L 114.32 228.32 C 115.13 228.61 116.02 228.19 116.32 227.38 C 116.61 226.57 116.20 225.68 115.39 225.38 L 114.58 225.09 C 113.77 224.79 112.88 225.21 112.58 226.02 C 112.28 226.83 112.70 227.73 113.51 228.02 Z M 114.34 228.32 L 115.24 228.64 C 116.05 228.92 116.94 228.49 117.23 227.68 C 117.51 226.87 117.08 225.98 116.27 225.69 L 115.37 225.38 C 114.55 225.09 113.66 225.52 113.38 226.33 C 113.09 227.15 113.52 228.04 114.34 228.32 Z M 115.25 228.64 L 116.19 228.96 C 117.00 229.24 117.89 228.80 118.17 227.99 C 118.45 227.17 118.01 226.28 117.19 226.01 L 116.26 225.69 C 115.44 225.41 114.56 225.85 114.28 226.66 C 114.00 227.48 114.44 228.36 115.25 228.64 Z M 116.20 228.97 L 117.17 229.29 C 117.99 229.56 118.87 229.11 119.14 228.29 C 119.41 227.47 118.97 226.59 118.15 226.32 L 117.18 226.00 C 116.36 225.73 115.48 226.18 115.21 227.00 C 114.94 227.81 115.38 228.70 116.20 228.97 Z M 117.19 229.29 L 118.13 229.59 C 118.95 229.85 119.83 229.40 120.09 228.57 C 120.35 227.75 119.89 226.87 119.07 226.61 L 118.13 226.31 C 117.31 226.05 116.43 226.51 116.17 227.33 C 115.91 228.15 116.37 229.03 117.19 229.29 Z M 118.15 229.59 L 119.08 229.88 C 119.90 230.13 120.77 229.66 121.02 228.84 C 121.28 228.01 120.81 227.14 119.99 226.89 L 119.05 226.61 C 118.23 226.36 117.36 226.82 117.11 227.65 C 116.86 228.47 117.32 229.34 118.15 229.59 Z M 119.10 229.88 L 120.07 230.16 C 120.90 230.40 121.76 229.93 122.00 229.10 C 122.24 228.27 121.76 227.40 120.93 227.16 L 119.96 226.88 C 119.14 226.65 118.27 227.12 118.03 227.95 C 117.79 228.78 118.27 229.65 119.10 229.88 Z M 120.09 230.17 L 121.10 230.44 C 121.93 230.67 122.79 230.18 123.01 229.34 C 123.24 228.51 122.75 227.65 121.91 227.43 L 120.91 227.16 C 120.07 226.93 119.22 227.42 118.99 228.26 C 118.77 229.09 119.26 229.95 120.09 230.17 Z M 121.13 230.45 L 122.06 230.69 C 122.90 230.90 123.74 230.39 123.95 229.55 C 124.16 228.72 123.66 227.87 122.82 227.66 L 121.89 227.42 C 121.05 227.21 120.20 227.72 119.99 228.56 C 119.78 229.39 120.29 230.24 121.13 230.45 Z M 122.08 230.69 L 123.03 230.92 C 123.87 231.11 124.71 230.59 124.91 229.76 C 125.11 228.92 124.59 228.08 123.75 227.88 L 122.80 227.65 C 121.96 227.45 121.12 227.97 120.92 228.81 C 120.72 229.65 121.24 230.49 122.08 230.69 Z M 123.05 230.92 L 124.03 231.14 C 124.87 231.33 125.71 230.80 125.90 229.96 C 126.08 229.12 125.56 228.28 124.71 228.09 L 123.73 227.87 C 122.89 227.68 122.06 228.21 121.87 229.05 C 121.68 229.90 122.21 230.73 123.05 230.92 Z M 124.04 231.14 L 125.06 231.36 C 125.90 231.54 126.73 231.01 126.91 230.16 C 127.10 229.32 126.56 228.49 125.72 228.31 L 124.70 228.09 C 123.86 227.91 123.03 228.45 122.85 229.29 C 122.66 230.13 123.20 230.96 124.04 231.14 Z M 125.07 231.36 L 126.07 231.57 C 126.92 231.75 127.74 231.21 127.92 230.36 C 128.10 229.52 127.55 228.69 126.71 228.52 L 125.71 228.31 C 124.86 228.13 124.04 228.67 123.86 229.52 C 123.68 230.36 124.23 231.19 125.07 231.36 Z M 126.08 231.57 L 127.08 231.78 C 127.92 231.95 128.75 231.40 128.92 230.56 C 129.09 229.71 128.54 228.89 127.70 228.72 L 126.70 228.51 C 125.86 228.34 125.03 228.89 124.86 229.73 C 124.69 230.58 125.24 231.40 126.08 231.57 Z M 127.08 231.78 L 128.08 231.98 C 128.93 232.14 129.75 231.60 129.92 230.75 C 130.08 229.90 129.54 229.08 128.69 228.91 L 127.69 228.72 C 126.85 228.55 126.02 229.10 125.86 229.94 C 125.69 230.79 126.24 231.61 127.08 231.78 Z M 128.09 231.98 L 129.07 232.17 C 129.91 232.33 130.73 231.78 130.90 230.94 C 131.06 230.09 130.51 229.27 129.66 229.10 L 128.68 228.91 C 127.84 228.75 127.02 229.30 126.85 230.15 C 126.69 230.99 127.24 231.81 128.09 231.98 Z M 129.07 232.17 L 130.03 232.35 C 130.87 232.51 131.69 231.96 131.85 231.11 C 132.01 230.27 131.46 229.45 130.61 229.29 L 129.66 229.10 C 128.81 228.94 127.99 229.50 127.83 230.34 C 127.67 231.19 128.23 232.01 129.07 232.17 Z M 130.03 232.35 L 131.06 232.55 C 131.90 232.70 132.72 232.15 132.88 231.30 C 133.04 230.45 132.48 229.63 131.63 229.48 L 130.61 229.28 C 129.76 229.13 128.94 229.68 128.78 230.53 C 128.63 231.38 129.18 232.19 130.03 232.35 Z M 131.06 232.55 L 132.04 232.73 C 132.89 232.88 133.70 232.32 133.86 231.47 C 134.01 230.62 133.45 229.81 132.60 229.65 L 131.62 229.47 C 130.77 229.32 129.96 229.88 129.81 230.73 C 129.65 231.58 130.21 232.39 131.06 232.55 Z M 132.05 232.73 L 133.01 232.90 C 133.86 233.05 134.67 232.48 134.82 231.63 C 134.97 230.78 134.41 229.97 133.56 229.82 L 132.60 229.65 C 131.75 229.50 130.94 230.07 130.79 230.92 C 130.64 231.77 131.20 232.58 132.05 232.73 Z M 133.02 232.90 L 133.99 233.06 C 134.84 233.21 135.64 232.64 135.79 231.79 C 135.94 230.94 135.36 230.13 134.51 229.99 L 133.55 229.82 C 132.70 229.67 131.89 230.25 131.75 231.09 C 131.60 231.94 132.17 232.75 133.02 232.90 Z M 133.99 233.07 L 134.98 233.23 C 135.83 233.37 136.63 232.80 136.77 231.95 C 136.91 231.10 136.34 230.29 135.49 230.15 L 134.51 229.99 C 133.66 229.84 132.85 230.42 132.71 231.27 C 132.57 232.12 133.14 232.92 133.99 233.07 Z M 134.99 233.23 L 135.98 233.39 C 136.83 233.53 137.63 232.95 137.77 232.09 C 137.90 231.24 137.32 230.44 136.47 230.31 L 135.48 230.15 C 134.63 230.01 133.83 230.59 133.69 231.44 C 133.55 232.29 134.13 233.09 134.99 233.23 Z M 135.99 233.39 L 136.99 233.54 C 137.84 233.67 138.64 233.08 138.77 232.23 C 138.89 231.38 138.31 230.58 137.45 230.45 L 136.46 230.30 C 135.61 230.18 134.81 230.76 134.68 231.61 C 134.55 232.47 135.14 233.26 135.99 233.39 Z M 137.01 233.54 L 137.99 233.68 C 138.85 233.80 139.63 233.20 139.75 232.35 C 139.87 231.50 139.28 230.71 138.42 230.59 L 137.44 230.45 C 136.58 230.33 135.79 230.93 135.68 231.78 C 135.56 232.64 136.15 233.43 137.01 233.54 Z M 138.01 233.68 L 139.04 233.81 C 139.90 233.92 140.68 233.32 140.79 232.46 C 140.89 231.60 140.29 230.82 139.43 230.72 L 138.40 230.59 C 137.55 230.48 136.77 231.08 136.66 231.94 C 136.55 232.80 137.16 233.58 138.01 233.68 Z M 139.06 233.82 L 140.06 233.93 C 140.92 234.03 141.69 233.42 141.79 232.56 C 141.89 231.70 141.28 230.93 140.42 230.83 L 139.42 230.71 C 138.56 230.62 137.79 231.23 137.69 232.09 C 137.59 232.94 138.20 233.72 139.06 233.82 Z M 140.07 233.93 L 141.04 234.04 C 141.90 234.13 142.67 233.52 142.77 232.66 C 142.86 231.80 142.24 231.03 141.39 230.94 L 140.41 230.83 C 139.56 230.73 138.78 231.35 138.69 232.21 C 138.59 233.07 139.21 233.84 140.07 233.93 Z M 141.04 234.04 L 141.99 234.15 C 142.85 234.24 143.62 233.62 143.71 232.77 C 143.81 231.91 143.19 231.14 142.33 231.04 L 141.39 230.94 C 140.53 230.84 139.76 231.46 139.66 232.32 C 139.57 233.17 140.19 233.94 141.04 234.04 Z M 141.98 234.14 L 142.92 234.25 C 143.77 234.35 144.55 233.74 144.65 232.88 C 144.75 232.02 144.13 231.25 143.27 231.15 L 142.34 231.04 C 141.48 230.94 140.71 231.56 140.61 232.42 C 140.51 233.27 141.13 234.05 141.98 234.14 Z M 142.92 234.25 L 143.88 234.36 C 144.74 234.46 145.51 233.85 145.61 232.99 C 145.71 232.14 145.10 231.36 144.24 231.26 L 143.28 231.15 C 142.42 231.05 141.64 231.67 141.55 232.52 C 141.45 233.38 142.06 234.15 142.92 234.25 Z M 143.88 234.37 L 144.93 234.48 C 145.78 234.58 146.56 233.97 146.65 233.11 C 146.75 232.25 146.14 231.48 145.28 231.38 L 144.24 231.26 C 143.38 231.17 142.61 231.78 142.51 232.64 C 142.41 233.49 143.03 234.27 143.88 234.37 Z M 144.93 234.48 L 145.93 234.59 C 146.79 234.69 147.56 234.07 147.65 233.21 C 147.74 232.35 147.12 231.58 146.27 231.49 L 145.27 231.38 C 144.42 231.29 143.64 231.91 143.55 232.76 C 143.46 233.62 144.08 234.39 144.93 234.48 Z M 145.94 234.59 L 146.89 234.69 C 147.75 234.78 148.51 234.16 148.60 233.30 C 148.69 232.44 148.07 231.67 147.21 231.59 L 146.26 231.49 C 145.40 231.40 144.63 232.02 144.55 232.88 C 144.46 233.74 145.08 234.51 145.94 234.59 Z M 146.90 234.69 L 147.90 234.79 C 148.76 234.87 149.52 234.24 149.60 233.38 C 149.69 232.52 149.06 231.76 148.20 231.68 L 147.20 231.59 C 146.34 231.50 145.58 232.13 145.49 232.99 C 145.41 233.85 146.04 234.61 146.90 234.69 Z M 147.92 234.79 L 148.95 234.88 C 149.81 234.95 150.57 234.31 150.64 233.45 C 150.71 232.59 150.07 231.84 149.21 231.76 L 148.18 231.68 C 147.32 231.61 146.57 232.25 146.49 233.10 C 146.42 233.96 147.06 234.72 147.92 234.79 Z M 148.98 234.88 L 150.02 234.95 C 150.88 235.01 151.62 234.36 151.68 233.50 C 151.74 232.64 151.09 231.89 150.23 231.83 L 149.19 231.76 C 148.33 231.70 147.58 232.35 147.52 233.21 C 147.47 234.07 148.12 234.82 148.98 234.88 Z M 150.05 234.95 L 151.06 235.00 C 151.92 235.04 152.66 234.38 152.70 233.52 C 152.74 232.66 152.08 231.92 151.22 231.88 L 150.20 231.83 C 149.34 231.79 148.61 232.45 148.56 233.31 C 148.52 234.17 149.18 234.91 150.05 234.95 Z M 151.09 235.00 L 152.08 235.03 C 152.95 235.06 153.67 234.38 153.69 233.52 C 153.72 232.66 153.05 231.94 152.18 231.91 L 151.19 231.88 C 150.33 231.85 149.61 232.53 149.58 233.39 C 149.55 234.25 150.23 234.97 151.09 235.00 Z M 152.11 235.03 L 153.10 235.05 C 153.96 235.07 154.67 234.38 154.69 233.52 C 154.70 232.66 154.02 231.94 153.15 231.93 L 152.16 231.91 C 151.30 231.90 150.59 232.58 150.57 233.45 C 150.56 234.31 151.24 235.02 152.11 235.03 Z M 153.11 235.05 L 154.11 235.06 C 154.97 235.07 155.68 234.37 155.68 233.51 C 155.69 232.65 155.00 231.94 154.13 231.94 L 153.14 231.93 C 152.28 231.92 151.57 232.62 151.56 233.48 C 151.56 234.34 152.25 235.04 153.11 235.05 Z M 154.12 235.06 L 155.13 235.06 C 155.99 235.06 156.69 234.36 156.69 233.50 C 156.69 232.64 155.99 231.94 155.13 231.94 L 154.12 231.94 C 153.26 231.94 152.56 232.63 152.56 233.49 C 152.56 234.36 153.26 235.06 154.12 235.06 Z M 155.13 235.06 L 156.11 235.06 C 156.97 235.06 157.67 234.36 157.67 233.50 C 157.67 232.64 156.97 231.94 156.11 231.94 L 155.13 231.94 C 154.27 231.94 153.57 232.64 153.57 233.50 C 153.57 234.36 154.27 235.06 155.13 235.06 Z M 156.11 235.06 L 157.08 235.06 C 157.94 235.06 158.64 234.36 158.64 233.50 C 158.64 232.64 157.94 231.94 157.08 231.94 L 156.11 231.94 C 155.24 231.94 154.55 232.64 154.55 233.50 C 154.55 234.36 155.25 235.06 156.11 235.06 Z M 157.08 235.06 L 158.07 235.06 C 158.93 235.06 159.63 234.36 159.63 233.49 C 159.63 232.63 158.93 231.93 158.06 231.94 L 157.07 231.94 C 156.21 231.94 155.51 232.64 155.52 233.50 C 155.52 234.36 156.22 235.06 157.08 235.06 Z M 158.07 235.06 L 159.08 235.05 C 159.94 235.05 160.64 234.35 160.64 233.48 C 160.63 232.62 159.93 231.93 159.07 231.93 L 158.06 231.94 C 157.20 231.94 156.50 232.64 156.51 233.50 C 156.51 234.37 157.21 235.06 158.07 235.06 Z M 159.09 235.05 L 160.11 235.05 C 160.97 235.04 161.67 234.33 161.66 233.47 C 161.65 232.61 160.95 231.92 160.09 231.92 L 159.06 231.93 C 158.20 231.94 157.51 232.64 157.51 233.50 C 157.52 234.37 158.22 235.06 159.09 235.05 Z M 160.12 235.05 L 161.13 235.03 C 162.00 235.02 162.69 234.32 162.68 233.45 C 162.67 232.59 161.96 231.90 161.10 231.91 L 160.08 231.92 C 159.22 231.93 158.53 232.64 158.54 233.50 C 158.55 234.36 159.26 235.06 160.12 235.05 Z M 161.14 235.03 L 162.05 235.02 C 162.91 235.00 163.60 234.29 163.58 233.43 C 163.57 232.57 162.86 231.88 161.99 231.90 L 161.09 231.91 C 160.23 231.93 159.54 232.64 159.55 233.50 C 159.57 234.36 160.28 235.05 161.14 235.03 Z M 162.06 235.02 L 162.99 234.99 C 163.85 234.97 164.53 234.25 164.51 233.39 C 164.49 232.53 163.77 231.85 162.91 231.87 L 161.98 231.90 C 161.12 231.92 160.44 232.64 160.46 233.50 C 160.48 234.36 161.20 235.04 162.06 235.02 Z M 163.01 234.99 L 163.97 234.95 C 164.84 234.92 165.51 234.19 165.47 233.33 C 165.44 232.47 164.71 231.80 163.85 231.83 L 162.89 231.87 C 162.03 231.91 161.36 232.63 161.39 233.49 C 161.42 234.35 162.15 235.03 163.01 234.99 Z M 164.00 234.95 L 165.00 234.90 C 165.87 234.85 166.52 234.11 166.48 233.25 C 166.43 232.39 165.69 231.73 164.83 231.78 L 163.83 231.83 C 162.96 231.88 162.31 232.62 162.35 233.48 C 162.40 234.34 163.14 235.00 164.00 234.95 Z M 165.03 234.89 L 166.09 234.82 C 166.95 234.75 167.59 234.00 167.53 233.14 C 167.47 232.28 166.72 231.64 165.86 231.70 L 164.80 231.78 C 163.94 231.84 163.30 232.59 163.36 233.45 C 163.42 234.31 164.17 234.96 165.03 234.89 Z M 166.12 234.81 L 167.24 234.71 C 168.10 234.63 168.73 233.87 168.65 233.01 C 168.57 232.15 167.80 231.52 166.95 231.60 L 165.83 231.71 C 164.97 231.79 164.34 232.55 164.42 233.40 C 164.50 234.26 165.26 234.89 166.12 234.81 Z M 167.27 234.71 L 168.27 234.59 C 169.12 234.50 169.74 233.72 169.64 232.87 C 169.55 232.01 168.77 231.39 167.92 231.49 L 166.92 231.60 C 166.06 231.70 165.44 232.47 165.54 233.33 C 165.64 234.19 166.41 234.80 167.27 234.71 Z M 168.29 234.59 L 169.28 234.47 C 170.14 234.36 170.74 233.58 170.63 232.72 C 170.53 231.86 169.75 231.26 168.89 231.37 L 167.90 231.49 C 167.04 231.60 166.43 232.38 166.54 233.24 C 166.65 234.09 167.43 234.70 168.29 234.59 Z M 169.30 234.46 L 170.32 234.32 C 171.17 234.20 171.77 233.42 171.65 232.56 C 171.53 231.71 170.74 231.11 169.89 231.23 L 168.87 231.37 C 168.02 231.49 167.42 232.28 167.54 233.13 C 167.66 233.98 168.45 234.58 169.30 234.46 Z M 170.33 234.32 L 171.36 234.17 C 172.21 234.04 172.80 233.25 172.67 232.39 C 172.55 231.54 171.75 230.95 170.90 231.08 L 169.87 231.23 C 169.02 231.36 168.43 232.15 168.56 233.00 C 168.68 233.86 169.48 234.45 170.33 234.32 Z M 171.37 234.17 L 172.39 234.01 C 173.24 233.87 173.82 233.07 173.69 232.22 C 173.56 231.37 172.76 230.79 171.91 230.92 L 170.89 231.08 C 170.03 231.21 169.45 232.01 169.59 232.86 C 169.72 233.72 170.52 234.30 171.37 234.17 Z M 172.40 234.00 L 173.40 233.84 C 174.25 233.70 174.83 232.90 174.69 232.05 C 174.55 231.20 173.75 230.62 172.90 230.76 L 171.90 230.92 C 171.04 231.06 170.47 231.87 170.61 232.72 C 170.75 233.57 171.55 234.14 172.40 234.00 Z M 173.41 233.84 L 174.38 233.68 C 175.23 233.53 175.80 232.73 175.66 231.87 C 175.51 231.02 174.71 230.45 173.86 230.60 L 172.89 230.76 C 172.04 230.91 171.47 231.71 171.61 232.56 C 171.75 233.41 172.56 233.98 173.41 233.84 Z M 174.39 233.67 L 175.31 233.51 C 176.16 233.36 176.73 232.55 176.58 231.71 C 176.43 230.86 175.62 230.29 174.77 230.44 L 173.85 230.60 C 173.00 230.75 172.43 231.56 172.58 232.41 C 172.73 233.25 173.54 233.82 174.39 233.67 Z M 175.32 233.51 L 176.36 233.32 C 177.21 233.17 177.78 232.36 177.62 231.51 C 177.47 230.66 176.66 230.10 175.81 230.25 L 174.76 230.44 C 173.92 230.59 173.35 231.40 173.50 232.25 C 173.66 233.10 174.47 233.66 175.32 233.51 Z M 176.37 233.32 L 177.37 233.13 C 178.21 232.98 178.77 232.16 178.61 231.31 C 178.45 230.46 177.64 229.91 176.79 230.07 L 175.80 230.25 C 174.95 230.41 174.39 231.23 174.55 232.07 C 174.71 232.92 175.53 233.48 176.37 233.32 Z M 177.38 233.13 L 178.33 232.95 C 179.17 232.78 179.73 231.96 179.56 231.11 C 179.39 230.27 178.57 229.72 177.73 229.88 L 176.78 230.07 C 175.93 230.23 175.38 231.05 175.55 231.90 C 175.71 232.75 176.53 233.30 177.38 233.13 Z M 178.34 232.94 L 179.28 232.75 C 180.12 232.58 180.67 231.76 180.49 230.91 C 180.32 230.07 179.50 229.52 178.65 229.69 L 177.72 229.88 C 176.87 230.06 176.33 230.88 176.50 231.73 C 176.67 232.57 177.50 233.12 178.34 232.94 Z M 179.29 232.75 L 180.24 232.55 C 181.08 232.37 181.62 231.54 181.44 230.70 C 181.26 229.85 180.43 229.32 179.59 229.49 L 178.64 229.70 C 177.80 229.88 177.26 230.70 177.44 231.55 C 177.62 232.39 178.45 232.93 179.29 232.75 Z M 180.25 232.55 L 181.23 232.33 C 182.07 232.14 182.60 231.31 182.42 230.47 C 182.23 229.63 181.40 229.09 180.56 229.28 L 179.57 229.50 C 178.73 229.68 178.20 230.52 178.39 231.36 C 178.57 232.20 179.40 232.73 180.25 232.55 Z M 181.24 232.33 L 182.23 232.10 C 183.07 231.91 183.59 231.08 183.40 230.24 C 183.21 229.40 182.38 228.87 181.54 229.06 L 180.55 229.28 C 179.71 229.47 179.18 230.31 179.37 231.15 C 179.56 231.99 180.40 232.52 181.24 232.33 Z M 182.23 232.10 L 183.22 231.87 C 184.06 231.68 184.58 230.84 184.39 230.00 C 184.19 229.16 183.36 228.64 182.52 228.83 L 181.53 229.06 C 180.69 229.25 180.17 230.09 180.36 230.93 C 180.55 231.77 181.39 232.30 182.23 232.10 Z M 183.23 231.87 L 184.24 231.63 C 185.08 231.44 185.60 230.60 185.40 229.76 C 185.20 228.92 184.36 228.40 183.52 228.59 L 182.51 228.83 C 181.67 229.03 181.15 229.87 181.35 230.71 C 181.55 231.55 182.39 232.07 183.23 231.87 Z M 184.25 231.63 L 185.27 231.39 C 186.11 231.19 186.62 230.35 186.42 229.51 C 186.22 228.67 185.38 228.15 184.54 228.35 L 183.52 228.60 C 182.68 228.80 182.16 229.64 182.36 230.48 C 182.56 231.32 183.41 231.83 184.25 231.63 Z M 185.27 231.39 L 186.28 231.14 C 187.12 230.94 187.63 230.09 187.43 229.26 C 187.22 228.42 186.38 227.90 185.54 228.11 L 184.54 228.35 C 183.70 228.56 183.18 229.40 183.39 230.24 C 183.59 231.08 184.43 231.59 185.27 231.39 Z M 186.29 231.14 L 187.26 230.90 C 188.09 230.69 188.61 229.85 188.40 229.01 C 188.19 228.17 187.34 227.66 186.51 227.87 L 185.54 228.11 C 184.70 228.32 184.19 229.16 184.40 230.00 C 184.60 230.84 185.45 231.35 186.29 231.14 Z M 187.26 230.90 L 188.18 230.67 C 189.01 230.46 189.52 229.61 189.31 228.77 C 189.10 227.94 188.25 227.43 187.42 227.64 L 186.50 227.87 C 185.66 228.08 185.16 228.93 185.37 229.77 C 185.58 230.60 186.43 231.11 187.26 230.90 Z M 188.19 230.67 L 189.20 230.40 C 190.04 230.19 190.54 229.34 190.32 228.50 C 190.11 227.67 189.26 227.16 188.42 227.38 L 187.41 227.64 C 186.57 227.86 186.07 228.71 186.29 229.55 C 186.50 230.38 187.35 230.88 188.19 230.67 Z M 189.22 230.40 L 190.35 230.10 C 191.18 229.87 191.68 229.02 191.45 228.18 C 191.23 227.35 190.37 226.86 189.54 227.08 L 188.41 227.38 C 187.57 227.61 187.08 228.46 187.30 229.30 C 187.53 230.13 188.38 230.62 189.22 230.40 Z M 190.36 230.09 L 191.33 229.82 C 192.16 229.59 192.65 228.73 192.42 227.90 C 192.19 227.07 191.33 226.58 190.50 226.81 L 189.53 227.08 C 188.69 227.32 188.21 228.18 188.44 229.01 C 188.67 229.84 189.53 230.32 190.36 230.09 Z M 191.34 229.82 L 192.20 229.58 C 193.03 229.34 193.51 228.47 193.27 227.65 C 193.04 226.82 192.17 226.34 191.34 226.57 L 190.49 226.82 C 189.66 227.05 189.18 227.92 189.41 228.75 C 189.65 229.58 190.51 230.06 191.34 229.82 Z M 192.20 229.57 L 193.00 229.35 C 193.82 229.11 194.30 228.25 194.07 227.42 C 193.83 226.59 192.97 226.11 192.14 226.35 L 191.34 226.57 C 190.51 226.81 190.03 227.67 190.27 228.50 C 190.51 229.33 191.37 229.81 192.20 229.57 Z M 192.99 229.35 L 193.94 229.08 C 194.77 228.85 195.26 227.99 195.02 227.16 C 194.79 226.33 193.93 225.84 193.10 226.08 L 192.14 226.34 C 191.31 226.58 190.83 227.44 191.06 228.27 C 191.30 229.10 192.16 229.58 192.99 229.35 Z M 193.93 229.08 L 194.90 228.82 C 195.73 228.59 196.22 227.73 195.99 226.90 C 195.76 226.07 194.91 225.58 194.07 225.81 L 193.11 226.07 C 192.28 226.30 191.79 227.16 192.01 227.99 C 192.24 228.82 193.10 229.31 193.93 229.08 Z M 194.89 228.82 L 195.85 228.56 C 196.68 228.34 197.18 227.48 196.95 226.65 C 196.73 225.82 195.87 225.32 195.04 225.55 L 194.08 225.81 C 193.25 226.03 192.75 226.89 192.98 227.72 C 193.20 228.55 194.06 229.05 194.89 228.82 Z M 195.85 228.56 L 196.50 228.39 C 197.33 228.17 197.83 227.31 197.60 226.48 C 197.38 225.65 196.52 225.15 195.69 225.37 L 195.04 225.55 C 194.21 225.77 193.72 226.63 193.94 227.46 C 194.16 228.29 195.02 228.79 195.85 228.56 Z"
      fill="black"
      fill-rule="nonzero" /></svg>