<svg xmlns="http://www.w3.org/2000/svg" width="300" height="300" viewBox="0 0 300 300">
<path d="M 119.23 91.92 L 120.17 91.95 C 121.04 91.99 121.76 91.31 121.79 90.45 C 121.82 89.59 121.15 88.86 120.29 88.83 L 119.34 88.80 C 118.48 88.77 117.75 89.44 117.72 90.30 C 117.69 91.16 118.36 91.89 119.23 91.92 Z M 120.15 91.95 L 121.11 92.00 C 121.97 92.05 122.71 91.38 122.75 90.52 C 122.79 89.66 122.13 88.93 121.27 88.88 L 120.31 88.83 C 119.45 88.79 118.71 89.45 118.67 90.32 C 118.63 91.18 119.29 91.91 120.15 91.95 Z M 121.07 92.00 L 122.06 92.08 C 122.92 92.14 123.67 91.50 123.73 90.64 C 123.80 89.78 123.16 89.03 122.30 88.96 L 121.31 88.89 C 120.45 88.82 119.70 89.46 119.63 90.32 C 119.57 91.18 120.21 91.93 121.07 92.00 Z M 122.00 92.07 L 123.02 92.19 C 123.88 92.29 124.65 91.68 124.75 90.82 C 124.85 89.96 124.24 89.19 123.38 89.09 L 122.36 88.97 C 121.50 88.87 120.73 89.48 120.63 90.34 C 120.53 91.19 121.14 91.97 122.00 92.07 Z M 122.95 92.18 L 123.99 92.35 C 124.84 92.49 125.64 91.91 125.78 91.06 C 125.92 90.21 125.34 89.41 124.49 89.27 L 123.45 89.10 C 122.60 88.96 121.80 89.54 121.66 90.39 C 121.52 91.24 122.10 92.04 122.95 92.18 Z M 123.93 92.34 L 124.87 92.53 C 125.71 92.70 126.54 92.16 126.71 91.32 C 126.88 90.47 126.34 89.65 125.49 89.47 L 124.56 89.28 C 123.71 89.10 122.89 89.65 122.71 90.49 C 122.54 91.34 123.08 92.16 123.93 92.34 Z M 124.82 92.52 L 125.79 92.75 C 126.62 92.95 127.47 92.43 127.67 91.59 C 127.87 90.75 127.35 89.91 126.51 89.71 L 125.54 89.48 C 124.70 89.28 123.86 89.80 123.66 90.64 C 123.46 91.48 123.98 92.32 124.82 92.52 Z M 125.75 92.74 L 126.73 93.00 C 127.57 93.22 128.42 92.72 128.64 91.88 C 128.86 91.05 128.36 90.20 127.53 89.98 L 126.54 89.72 C 125.71 89.50 124.86 90.00 124.64 90.84 C 124.42 91.67 124.92 92.52 125.75 92.74 Z M 126.71 92.99 L 127.69 93.27 C 128.53 93.50 129.39 93.02 129.62 92.19 C 129.85 91.36 129.37 90.49 128.54 90.26 L 127.55 89.99 C 126.72 89.75 125.86 90.24 125.63 91.07 C 125.39 91.90 125.88 92.76 126.71 92.99 Z M 127.68 93.26 L 128.65 93.55 C 129.48 93.79 130.35 93.32 130.59 92.49 C 130.83 91.66 130.36 90.80 129.53 90.55 L 128.56 90.27 C 127.73 90.02 126.86 90.50 126.62 91.33 C 126.38 92.15 126.85 93.02 127.68 93.26 Z M 128.64 93.55 L 129.58 93.83 C 130.41 94.08 131.28 93.61 131.53 92.79 C 131.78 91.96 131.31 91.09 130.48 90.84 L 129.54 90.56 C 128.72 90.31 127.85 90.78 127.60 91.60 C 127.35 92.43 127.82 93.30 128.64 93.55 Z M 129.57 93.83 L 130.48 94.11 C 131.30 94.36 132.18 93.90 132.43 93.07 C 132.68 92.25 132.22 91.38 131.40 91.12 L 130.49 90.84 C 129.67 90.59 128.80 91.05 128.54 91.88 C 128.29 92.70 128.75 93.57 129.57 93.83 Z M 130.46 94.10 L 131.37 94.39 C 132.19 94.65 133.07 94.20 133.33 93.38 C 133.59 92.55 133.14 91.68 132.32 91.41 L 131.41 91.13 C 130.59 90.87 129.71 91.32 129.45 92.14 C 129.19 92.96 129.64 93.84 130.46 94.10 Z M 131.35 94.38 L 132.28 94.69 C 133.10 94.96 133.98 94.52 134.25 93.70 C 134.52 92.88 134.08 92.00 133.26 91.73 L 132.33 91.42 C 131.51 91.15 130.63 91.59 130.36 92.41 C 130.09 93.23 130.54 94.11 131.35 94.38 Z M 132.26 94.68 L 133.22 95.01 C 134.03 95.29 134.92 94.86 135.20 94.05 C 135.48 93.23 135.05 92.34 134.23 92.06 L 133.27 91.73 C 132.46 91.45 131.57 91.88 131.29 92.70 C 131.01 93.52 131.44 94.40 132.26 94.68 Z M 133.20 95.01 L 134.21 95.37 C 135.02 95.66 135.92 95.24 136.21 94.43 C 136.50 93.62 136.08 92.72 135.27 92.43 L 134.25 92.07 C 133.44 91.78 132.55 92.20 132.26 93.01 C 131.97 93.82 132.39 94.72 133.20 95.01 Z M 134.19 95.36 L 135.15 95.72 C 135.96 96.02 136.86 95.61 137.16 94.80 C 137.46 93.99 137.05 93.09 136.24 92.79 L 135.28 92.44 C 134.47 92.14 133.58 92.55 133.28 93.36 C 132.97 94.16 133.39 95.06 134.19 95.36 Z M 135.14 95.71 L 136.04 96.06 C 136.85 96.37 137.75 95.97 138.06 95.16 C 138.37 94.35 137.96 93.45 137.16 93.14 L 136.26 92.80 C 135.45 92.49 134.55 92.89 134.24 93.70 C 133.93 94.50 134.33 95.41 135.14 95.71 Z M 136.03 96.06 L 136.96 96.42 C 137.76 96.74 138.67 96.34 138.98 95.54 C 139.30 94.74 138.90 93.83 138.10 93.51 L 137.17 93.15 C 136.37 92.83 135.46 93.23 135.15 94.03 C 134.83 94.83 135.23 95.74 136.03 96.06 Z M 136.95 96.42 L 137.90 96.80 C 138.70 97.12 139.61 96.73 139.93 95.93 C 140.25 95.13 139.86 94.22 139.06 93.90 L 138.11 93.52 C 137.31 93.20 136.40 93.59 136.08 94.39 C 135.76 95.18 136.15 96.09 136.95 96.42 Z M 137.88 96.79 L 138.84 97.19 C 139.64 97.51 140.55 97.14 140.88 96.34 C 141.21 95.54 140.83 94.63 140.03 94.30 L 139.07 93.91 C 138.28 93.58 137.37 93.96 137.04 94.75 C 136.71 95.55 137.09 96.46 137.88 96.79 Z M 138.83 97.18 L 139.77 97.58 C 140.57 97.92 141.48 97.55 141.82 96.75 C 142.15 95.96 141.78 95.04 140.99 94.71 L 140.04 94.31 C 139.25 93.97 138.33 94.34 138.00 95.14 C 137.66 95.93 138.03 96.85 138.83 97.18 Z M 139.76 97.58 L 140.69 97.98 C 141.48 98.32 142.40 97.96 142.74 97.17 C 143.08 96.38 142.72 95.46 141.93 95.11 L 141.00 94.71 C 140.21 94.37 139.29 94.73 138.95 95.52 C 138.61 96.31 138.97 97.23 139.76 97.58 Z M 140.67 97.97 L 141.57 98.37 C 142.35 98.72 143.28 98.37 143.63 97.58 C 143.98 96.80 143.63 95.87 142.84 95.52 L 141.94 95.12 C 141.16 94.77 140.23 95.12 139.88 95.91 C 139.53 96.70 139.88 97.62 140.67 97.97 Z M 141.55 98.36 L 142.55 98.83 C 143.34 99.19 144.26 98.85 144.63 98.07 C 144.99 97.29 144.65 96.36 143.87 96.00 L 142.86 95.53 C 142.08 95.17 141.15 95.51 140.79 96.29 C 140.43 97.07 140.77 98.00 141.55 98.36 Z M 142.53 98.82 L 143.48 99.28 C 144.26 99.65 145.19 99.33 145.57 98.55 C 145.94 97.77 145.61 96.84 144.84 96.47 L 143.89 96.01 C 143.11 95.63 142.18 95.96 141.80 96.73 C 141.43 97.51 141.75 98.44 142.53 98.82 Z M 143.46 99.27 L 144.36 99.72 C 145.13 100.11 146.07 99.80 146.46 99.03 C 146.84 98.26 146.53 97.32 145.76 96.93 L 144.86 96.48 C 144.09 96.09 143.15 96.40 142.76 97.17 C 142.38 97.94 142.69 98.88 143.46 99.27 Z M 144.34 99.71 L 145.20 100.16 C 145.96 100.56 146.91 100.26 147.31 99.50 C 147.71 98.74 147.41 97.79 146.65 97.39 L 145.79 96.94 C 145.02 96.54 144.08 96.84 143.68 97.60 C 143.28 98.37 143.57 99.31 144.34 99.71 Z M 145.18 100.15 L 146.01 100.60 C 146.77 101.01 147.72 100.73 148.13 99.97 C 148.54 99.22 148.26 98.27 147.50 97.86 L 146.67 97.40 C 145.91 96.99 144.96 97.27 144.55 98.03 C 144.14 98.79 144.42 99.74 145.18 100.15 Z M 145.99 100.59 L 146.80 101.04 C 147.55 101.47 148.50 101.20 148.93 100.45 C 149.35 99.70 149.08 98.75 148.33 98.32 L 147.52 97.87 C 146.77 97.44 145.82 97.71 145.40 98.46 C 144.97 99.21 145.24 100.17 145.99 100.59 Z M 146.78 101.03 L 147.68 101.56 C 148.42 101.99 149.38 101.74 149.81 100.99 C 150.25 100.25 149.99 99.29 149.25 98.86 L 148.35 98.33 C 147.60 97.90 146.65 98.15 146.21 98.90 C 145.78 99.64 146.03 100.60 146.78 101.03 Z M 147.66 101.55 L 148.58 102.10 C 149.32 102.54 150.28 102.30 150.72 101.56 C 151.17 100.82 150.93 99.86 150.19 99.42 L 149.27 98.87 C 148.53 98.42 147.57 98.66 147.12 99.40 C 146.68 100.14 146.92 101.10 147.66 101.55 Z M 148.57 102.09 L 149.46 102.63 C 150.19 103.08 151.15 102.85 151.60 102.11 C 152.05 101.37 151.82 100.41 151.08 99.96 L 150.20 99.42 C 149.46 98.97 148.50 99.21 148.05 99.94 C 147.60 100.68 147.83 101.64 148.57 102.09 Z M 149.45 102.62 L 150.29 103.14 C 151.02 103.60 151.98 103.37 152.44 102.64 C 152.89 101.90 152.66 100.94 151.93 100.49 L 151.09 99.97 C 150.36 99.51 149.39 99.74 148.94 100.48 C 148.49 101.21 148.71 102.17 149.45 102.62 Z M 150.29 103.14 L 151.07 103.63 C 151.80 104.08 152.77 103.86 153.22 103.12 C 153.67 102.39 153.45 101.43 152.71 100.97 L 151.93 100.49 C 151.20 100.03 150.24 100.26 149.78 100.99 C 149.33 101.73 149.55 102.69 150.29 103.14 Z M 151.08 103.63 L 151.92 104.15 C 152.66 104.60 153.62 104.37 154.07 103.64 C 154.52 102.90 154.29 101.94 153.56 101.49 L 152.71 100.97 C 151.97 100.52 151.01 100.75 150.56 101.48 C 150.11 102.22 150.34 103.18 151.08 103.63 Z M 151.93 104.16 L 152.86 104.71 C 153.60 105.16 154.55 104.92 155.00 104.18 C 155.44 103.44 155.20 102.48 154.46 102.03 L 153.54 101.48 C 152.80 101.04 151.84 101.28 151.40 102.02 C 150.96 102.76 151.20 103.71 151.93 104.16 Z M 152.87 104.72 L 153.71 105.21 C 154.45 105.64 155.41 105.39 155.84 104.65 C 156.28 103.90 156.02 102.95 155.28 102.51 L 154.45 102.03 C 153.70 101.59 152.75 101.84 152.31 102.59 C 151.88 103.33 152.13 104.29 152.87 104.72 Z M 153.72 105.22 L 154.51 105.67 C 155.26 106.09 156.21 105.83 156.64 105.08 C 157.07 104.33 156.80 103.38 156.05 102.95 L 155.26 102.50 C 154.52 102.08 153.56 102.34 153.14 103.09 C 152.71 103.84 152.97 104.79 153.72 105.22 Z M 154.52 105.67 L 155.36 106.14 C 156.11 106.56 157.06 106.29 157.48 105.53 C 157.90 104.78 157.63 103.83 156.88 103.41 L 156.04 102.94 C 155.29 102.53 154.34 102.80 153.92 103.55 C 153.50 104.30 153.77 105.25 154.52 105.67 Z M 155.37 106.14 L 156.24 106.62 C 156.99 107.03 157.94 106.75 158.35 106.00 C 158.77 105.24 158.49 104.29 157.73 103.88 L 156.87 103.40 C 156.11 102.99 155.16 103.27 154.75 104.02 C 154.33 104.78 154.61 105.73 155.37 106.14 Z M 156.24 106.62 L 157.14 107.10 C 157.89 107.51 158.84 107.23 159.25 106.47 C 159.66 105.71 159.37 104.76 158.62 104.35 L 157.72 103.87 C 156.96 103.46 156.02 103.75 155.61 104.51 C 155.20 105.27 155.48 106.21 156.24 106.62 Z M 157.14 107.11 L 158.03 107.57 C 158.79 107.98 159.73 107.69 160.14 106.93 C 160.54 106.17 160.25 105.22 159.49 104.82 L 158.61 104.35 C 157.85 103.94 156.90 104.23 156.50 104.99 C 156.09 105.76 156.38 106.70 157.14 107.11 Z M 158.03 107.58 L 158.89 108.03 C 159.66 108.43 160.60 108.13 161.00 107.37 C 161.40 106.61 161.10 105.66 160.34 105.26 L 159.48 104.81 C 158.72 104.41 157.78 104.71 157.38 105.47 C 156.98 106.24 157.27 107.18 158.03 107.58 Z M 158.91 108.04 L 159.80 108.49 C 160.56 108.88 161.50 108.58 161.90 107.81 C 162.29 107.05 161.99 106.10 161.22 105.71 L 160.33 105.26 C 159.56 104.86 158.62 105.17 158.23 105.93 C 157.83 106.70 158.14 107.64 158.91 108.04 Z M 159.81 108.50 L 160.74 108.96 C 161.51 109.34 162.45 109.03 162.83 108.25 C 163.22 107.48 162.90 106.54 162.13 106.16 L 161.20 105.70 C 160.43 105.32 159.49 105.64 159.11 106.41 C 158.73 107.18 159.04 108.12 159.81 108.50 Z M 160.76 108.97 L 161.66 109.40 C 162.44 109.77 163.37 109.44 163.74 108.66 C 164.11 107.88 163.78 106.95 163.00 106.58 L 162.10 106.15 C 161.33 105.78 160.39 106.11 160.02 106.89 C 159.65 107.67 159.98 108.60 160.76 108.97 Z M 161.68 109.41 L 162.58 109.82 C 163.36 110.18 164.29 109.84 164.65 109.05 C 165.01 108.27 164.66 107.34 163.88 106.98 L 162.99 106.57 C 162.20 106.21 161.27 106.55 160.91 107.34 C 160.55 108.12 160.90 109.05 161.68 109.41 Z M 162.59 109.82 L 163.51 110.24 C 164.29 110.59 165.22 110.24 165.57 109.45 C 165.92 108.66 165.57 107.74 164.78 107.39 L 163.87 106.98 C 163.08 106.62 162.16 106.97 161.80 107.76 C 161.45 108.55 161.80 109.47 162.59 109.82 Z M 163.51 110.24 L 164.45 110.65 C 165.23 111.00 166.16 110.64 166.51 109.85 C 166.85 109.07 166.50 108.14 165.71 107.80 L 164.78 107.38 C 163.99 107.04 163.07 107.39 162.72 108.18 C 162.37 108.97 162.73 109.89 163.51 110.24 Z M 164.45 110.65 L 165.38 111.06 C 166.17 111.41 167.09 111.05 167.43 110.26 C 167.78 109.47 167.42 108.55 166.63 108.20 L 165.70 107.79 C 164.91 107.45 163.99 107.81 163.65 108.60 C 163.30 109.39 163.66 110.31 164.45 110.65 Z M 165.38 111.06 L 166.29 111.46 C 167.08 111.81 168.01 111.45 168.35 110.66 C 168.70 109.87 168.34 108.95 167.55 108.60 L 166.63 108.20 C 165.84 107.85 164.92 108.21 164.57 109.00 C 164.23 109.79 164.59 110.71 165.38 111.06 Z M 166.29 111.46 L 167.21 111.86 C 168.00 112.21 168.92 111.85 169.27 111.06 C 169.61 110.27 169.26 109.35 168.47 109.00 L 167.55 108.60 C 166.76 108.26 165.84 108.62 165.49 109.40 C 165.14 110.19 165.50 111.12 166.29 111.46 Z M 167.21 111.86 L 168.13 112.27 C 168.92 112.61 169.84 112.25 170.18 111.47 C 170.53 110.68 170.17 109.76 169.38 109.41 L 168.47 109.01 C 167.68 108.66 166.76 109.02 166.41 109.81 C 166.06 110.59 166.42 111.52 167.21 111.86 Z M 168.12 112.26 L 169.04 112.67 C 169.83 113.02 170.75 112.66 171.10 111.88 C 171.45 111.09 171.09 110.17 170.31 109.82 L 169.39 109.41 C 168.60 109.06 167.68 109.42 167.33 110.20 C 166.98 110.99 167.33 111.92 168.12 112.26 Z M 169.04 112.67 L 169.98 113.09 C 170.76 113.44 171.69 113.09 172.04 112.30 C 172.39 111.51 172.04 110.59 171.25 110.24 L 170.31 109.82 C 169.52 109.47 168.60 109.82 168.25 110.61 C 167.90 111.39 168.25 112.32 169.04 112.67 Z M 169.97 113.09 L 170.89 113.50 C 171.68 113.86 172.60 113.51 172.96 112.73 C 173.31 111.94 172.97 111.02 172.18 110.66 L 171.26 110.24 C 170.47 109.89 169.55 110.23 169.19 111.02 C 168.84 111.81 169.18 112.73 169.97 113.09 Z M 170.88 113.50 L 171.78 113.91 C 172.56 114.27 173.49 113.93 173.85 113.15 C 174.21 112.36 173.87 111.44 173.09 111.08 L 172.19 110.66 C 171.41 110.30 170.48 110.65 170.12 111.43 C 169.76 112.21 170.10 113.14 170.88 113.50 Z M 171.77 113.91 L 172.65 114.32 C 173.43 114.68 174.36 114.35 174.72 113.57 C 175.09 112.79 174.75 111.86 173.97 111.49 L 173.10 111.08 C 172.32 110.72 171.39 111.05 171.02 111.83 C 170.65 112.61 170.99 113.54 171.77 113.91 Z M 172.63 114.31 L 173.56 114.76 C 174.33 115.13 175.27 114.80 175.64 114.02 C 176.01 113.25 175.69 112.31 174.91 111.94 L 173.98 111.50 C 173.21 111.12 172.28 111.45 171.90 112.23 C 171.53 113.01 171.86 113.94 172.63 114.31 Z M 173.54 114.75 L 174.44 115.19 C 175.21 115.57 176.15 115.25 176.53 114.48 C 176.91 113.70 176.59 112.77 175.82 112.39 L 174.92 111.95 C 174.15 111.57 173.21 111.89 172.83 112.66 C 172.45 113.43 172.77 114.37 173.54 114.75 Z M 174.43 115.18 L 175.31 115.62 C 176.08 116.01 177.01 115.70 177.40 114.93 C 177.79 114.16 177.48 113.22 176.71 112.83 L 175.83 112.39 C 175.06 112.01 174.12 112.32 173.73 113.09 C 173.34 113.86 173.66 114.80 174.43 115.18 Z M 175.30 115.62 L 176.11 116.03 C 176.88 116.42 177.82 116.12 178.21 115.35 C 178.60 114.58 178.29 113.64 177.53 113.25 L 176.71 112.84 C 175.95 112.45 175.01 112.75 174.61 113.52 C 174.22 114.29 174.53 115.23 175.30 115.62 Z M 176.10 116.03 L 176.85 116.41 C 177.62 116.81 178.56 116.51 178.95 115.74 C 179.35 114.97 179.04 114.03 178.28 113.64 L 177.53 113.25 C 176.76 112.86 175.82 113.16 175.43 113.93 C 175.03 114.70 175.34 115.64 176.10 116.03 Z M 176.85 116.41 L 177.67 116.83 C 178.43 117.23 179.38 116.93 179.77 116.16 C 180.16 115.39 179.86 114.45 179.10 114.06 L 178.28 113.64 C 177.51 113.24 176.57 113.54 176.18 114.31 C 175.78 115.08 176.08 116.02 176.85 116.41 Z M 177.67 116.84 L 178.61 117.32 C 179.37 117.71 180.31 117.41 180.71 116.64 C 181.10 115.87 180.80 114.93 180.03 114.54 L 179.09 114.06 C 178.33 113.66 177.39 113.97 176.99 114.73 C 176.60 115.50 176.90 116.44 177.67 116.84 Z M 178.61 117.32 L 179.71 117.88 C 180.48 118.27 181.42 117.96 181.81 117.19 C 182.20 116.43 181.90 115.49 181.13 115.09 L 180.03 114.53 C 179.26 114.14 178.32 114.45 177.93 115.22 C 177.54 115.99 177.84 116.93 178.61 117.32 Z M 179.71 117.88 L 180.57 118.31 C 181.34 118.70 182.28 118.39 182.67 117.62 C 183.05 116.85 182.75 115.91 181.98 115.52 L 181.12 115.09 C 180.35 114.70 179.41 115.01 179.03 115.78 C 178.64 116.55 178.95 117.49 179.71 117.88 Z M 180.57 118.31 L 181.45 118.75 C 182.22 119.14 183.16 118.83 183.55 118.06 C 183.93 117.29 183.62 116.35 182.85 115.96 L 181.97 115.52 C 181.20 115.14 180.26 115.45 179.88 116.22 C 179.49 116.99 179.80 117.93 180.57 118.31 Z M 181.45 118.76 L 182.38 119.22 C 183.15 119.60 184.09 119.29 184.47 118.52 C 184.85 117.74 184.54 116.81 183.77 116.42 L 182.85 115.96 C 182.08 115.58 181.14 115.89 180.75 116.66 C 180.37 117.43 180.68 118.37 181.45 118.76 Z M 182.38 119.22 L 183.32 119.68 C 184.10 120.07 185.03 119.75 185.42 118.98 C 185.80 118.20 185.48 117.27 184.71 116.89 L 183.76 116.42 C 182.99 116.04 182.06 116.35 181.67 117.13 C 181.29 117.90 181.61 118.84 182.38 119.22 Z M 183.33 119.69 L 184.27 120.15 C 185.05 120.53 185.98 120.20 186.36 119.43 C 186.74 118.66 186.42 117.72 185.64 117.34 L 184.70 116.88 C 183.93 116.50 182.99 116.82 182.61 117.60 C 182.23 118.37 182.56 119.31 183.33 119.69 Z M 184.28 120.15 L 185.20 120.59 C 185.97 120.97 186.91 120.64 187.28 119.86 C 187.65 119.09 187.33 118.15 186.55 117.78 L 185.63 117.34 C 184.86 116.96 183.93 117.29 183.55 118.07 C 183.18 118.84 183.50 119.78 184.28 120.15 Z M 185.21 120.60 L 186.08 121.01 C 186.85 121.38 187.79 121.04 188.15 120.26 C 188.52 119.48 188.19 118.55 187.41 118.19 L 186.54 117.77 C 185.76 117.41 184.83 117.74 184.46 118.52 C 184.09 119.30 184.43 120.23 185.21 120.60 Z M 186.09 121.02 L 187.19 121.52 C 187.98 121.88 188.90 121.53 189.26 120.75 C 189.62 119.97 189.28 119.04 188.49 118.68 L 187.39 118.18 C 186.61 117.82 185.68 118.16 185.32 118.95 C 184.96 119.73 185.31 120.66 186.09 121.02 Z M 187.22 121.53 L 188.25 121.98 C 189.04 122.32 189.96 121.96 190.30 121.17 C 190.64 120.37 190.28 119.46 189.49 119.11 L 188.46 118.67 C 187.67 118.33 186.75 118.69 186.41 119.48 C 186.07 120.27 186.43 121.19 187.22 121.53 Z M 188.29 121.99 L 189.19 122.36 C 189.99 122.68 190.90 122.29 191.23 121.49 C 191.55 120.69 191.16 119.78 190.36 119.46 L 189.45 119.10 C 188.65 118.77 187.74 119.16 187.42 119.96 C 187.10 120.76 187.49 121.67 188.29 121.99 Z M 189.24 122.38 L 190.06 122.68 C 190.87 122.97 191.77 122.55 192.06 121.74 C 192.36 120.93 191.94 120.04 191.13 119.74 L 190.31 119.44 C 189.50 119.15 188.61 119.57 188.31 120.38 C 188.02 121.19 188.43 122.08 189.24 122.38 Z M 190.12 122.70 L 190.89 122.94 C 191.72 123.21 192.59 122.75 192.86 121.93 C 193.12 121.11 192.67 120.23 191.85 119.97 L 191.07 119.72 C 190.25 119.46 189.37 119.91 189.11 120.73 C 188.85 121.55 189.30 122.43 190.12 122.70 Z M 190.97 122.97 L 192.00 123.24 C 192.83 123.46 193.68 122.96 193.90 122.13 C 194.12 121.29 193.63 120.44 192.79 120.22 L 191.77 119.95 C 190.94 119.73 190.08 120.22 189.86 121.06 C 189.64 121.89 190.14 122.75 190.97 122.97 Z M 192.08 123.26 L 193.05 123.46 C 193.90 123.63 194.72 123.08 194.89 122.24 C 195.07 121.39 194.52 120.57 193.68 120.40 L 192.71 120.20 C 191.86 120.03 191.04 120.57 190.86 121.42 C 190.69 122.26 191.24 123.09 192.08 123.26 Z M 193.13 123.47 L 194.07 123.61 C 194.92 123.75 195.72 123.16 195.85 122.31 C 195.98 121.46 195.40 120.66 194.55 120.53 L 193.60 120.38 C 192.75 120.25 191.95 120.84 191.82 121.69 C 191.69 122.54 192.28 123.34 193.13 123.47 Z M 194.12 123.62 L 195.11 123.74 C 195.96 123.84 196.74 123.23 196.84 122.38 C 196.94 121.52 196.33 120.74 195.48 120.64 L 194.50 120.52 C 193.64 120.42 192.86 121.03 192.76 121.89 C 192.66 122.74 193.27 123.52 194.12 123.62 Z M 195.13 123.74 L 196.13 123.84 C 196.99 123.93 197.75 123.31 197.84 122.45 C 197.93 121.59 197.30 120.82 196.45 120.74 L 195.45 120.64 C 194.59 120.55 193.83 121.17 193.74 122.03 C 193.65 122.89 194.28 123.65 195.13 123.74 Z M 196.14 123.84 L 197.13 123.94 C 197.99 124.03 198.75 123.40 198.84 122.54 C 198.92 121.68 198.29 120.92 197.44 120.83 L 196.44 120.74 C 195.58 120.65 194.82 121.28 194.74 122.14 C 194.65 123.00 195.28 123.76 196.14 123.84 Z M 197.11 123.94 L 198.08 124.05 C 198.94 124.14 199.71 123.52 199.80 122.66 C 199.89 121.81 199.27 121.04 198.42 120.94 L 197.45 120.84 C 196.60 120.74 195.83 121.36 195.73 122.22 C 195.64 123.08 196.26 123.85 197.11 123.94 Z M 198.03 124.04 L 198.99 124.17 C 199.85 124.29 200.63 123.69 200.75 122.84 C 200.87 121.99 200.27 121.20 199.42 121.08 L 198.46 120.95 C 197.61 120.83 196.82 121.43 196.70 122.28 C 196.58 123.13 197.18 123.92 198.03 124.04 Z M 198.92 124.16 L 199.92 124.34 C 200.77 124.50 201.58 123.94 201.74 123.09 C 201.89 122.24 201.33 121.43 200.48 121.27 L 199.49 121.09 C 198.64 120.93 197.83 121.50 197.67 122.34 C 197.51 123.19 198.08 124.01 198.92 124.16 Z M 199.84 124.33 L 200.84 124.56 C 201.68 124.76 202.52 124.25 202.72 123.41 C 202.92 122.57 202.40 121.73 201.56 121.53 L 200.56 121.29 C 199.72 121.09 198.88 121.61 198.68 122.45 C 198.48 123.29 199.00 124.13 199.84 124.33 Z M 200.77 124.54 L 201.71 124.82 C 202.54 125.06 203.41 124.58 203.65 123.76 C 203.89 122.93 203.41 122.06 202.58 121.82 L 201.64 121.55 C 200.81 121.31 199.94 121.78 199.70 122.61 C 199.46 123.44 199.94 124.30 200.77 124.54 Z M 201.64 124.80 L 202.60 125.13 C 203.42 125.41 204.31 124.97 204.59 124.16 C 204.87 123.34 204.43 122.45 203.62 122.17 L 202.65 121.84 C 201.84 121.56 200.95 122.00 200.67 122.81 C 200.39 123.63 200.83 124.52 201.64 124.80 Z M 202.52 125.10 L 203.47 125.48 C 204.27 125.80 205.18 125.41 205.50 124.62 C 205.82 123.82 205.44 122.91 204.64 122.58 L 203.69 122.20 C 202.89 121.88 201.98 122.27 201.66 123.07 C 201.34 123.87 201.73 124.77 202.52 125.10 Z M 203.38 125.44 L 204.31 125.89 C 205.08 126.26 206.02 125.93 206.39 125.16 C 206.76 124.38 206.44 123.45 205.66 123.07 L 204.73 122.62 C 203.95 122.25 203.02 122.58 202.65 123.35 C 202.27 124.13 202.60 125.06 203.38 125.44 Z M 204.21 125.83 L 205.10 126.35 C 205.85 126.78 206.80 126.52 207.23 125.77 C 207.66 125.03 207.41 124.07 206.66 123.64 L 205.76 123.13 C 205.02 122.70 204.06 122.95 203.63 123.70 C 203.20 124.45 203.46 125.40 204.21 125.83 Z M 205.01 126.29 L 205.83 126.84 C 206.55 127.32 207.52 127.13 208.00 126.41 C 208.48 125.70 208.29 124.73 207.57 124.25 L 206.75 123.70 C 206.03 123.22 205.06 123.41 204.58 124.13 C 204.10 124.84 204.29 125.81 205.01 126.29 Z M 205.75 126.79 L 206.51 127.36 C 207.19 127.88 208.17 127.75 208.70 127.06 C 209.22 126.38 209.09 125.40 208.40 124.88 L 207.65 124.30 C 206.96 123.78 205.98 123.91 205.46 124.60 C 204.94 125.28 205.07 126.26 205.75 126.79 Z M 206.44 127.31 L 207.22 127.97 C 207.88 128.53 208.87 128.45 209.42 127.79 C 209.98 127.14 209.90 126.15 209.25 125.59 L 208.46 124.93 C 207.81 124.37 206.82 124.45 206.26 125.11 C 205.71 125.76 205.79 126.75 206.44 127.31 Z M 207.17 127.93 L 207.90 128.60 C 208.54 129.19 209.52 129.15 210.11 128.52 C 210.70 127.89 210.66 126.90 210.03 126.31 L 209.30 125.64 C 208.66 125.05 207.68 125.09 207.09 125.72 C 206.50 126.35 206.54 127.34 207.17 127.93 Z M 207.88 128.58 L 208.58 129.26 C 209.20 129.86 210.18 129.85 210.79 129.23 C 211.39 128.61 211.37 127.62 210.76 127.02 L 210.05 126.34 C 209.44 125.74 208.45 125.75 207.85 126.37 C 207.25 126.99 207.26 127.98 207.88 128.58 Z M 208.57 129.26 L 208.66 129.35 C 209.28 129.95 210.27 129.94 210.87 129.33 C 211.48 128.71 211.47 127.72 210.85 127.12 L 210.76 127.03 C 210.15 126.42 209.16 126.43 208.55 127.05 C 207.95 127.66 207.96 128.65 208.57 129.26 Z"
      fill="black"
      fill-rule="nonzero" /><path d="M 102.74 155.86 L 103.69 156.01 C 104.54 156.15 105.34 155.57 105.48 154.72 C 105.62 153.87 105.04 153.07 104.19 152.93 L 103.25 152.78 C 102.39 152.64 101.59 153.22 101.45 154.07 C 101.32 154.92 101.89 155.72 102.74 155.86 Z M 103.68 156.01 L 104.64 156.18 C 105.49 156.32 106.30 155.75 106.44 154.90 C 106.59 154.05 106.02 153.25 105.17 153.10 L 104.20 152.93 C 103.35 152.79 102.55 153.36 102.40 154.21 C 102.26 155.06 102.83 155.87 103.68 156.01 Z M 104.62 156.17 L 105.63 156.36 C 106.47 156.52 107.29 155.96 107.45 155.11 C 107.61 154.27 107.05 153.45 106.20 153.29 L 105.19 153.10 C 104.34 152.95 103.53 153.50 103.37 154.35 C 103.21 155.20 103.77 156.01 104.62 156.17 Z M 105.59 156.36 L 106.57 156.56 C 107.41 156.73 108.24 156.19 108.42 155.35 C 108.59 154.50 108.05 153.68 107.20 153.50 L 106.23 153.30 C 105.39 153.12 104.56 153.67 104.38 154.51 C 104.21 155.35 104.75 156.18 105.59 156.36 Z M 106.55 156.55 L 107.47 156.76 C 108.31 156.95 109.15 156.42 109.34 155.58 C 109.52 154.74 108.99 153.90 108.15 153.71 L 107.23 153.51 C 106.39 153.32 105.55 153.85 105.36 154.69 C 105.18 155.53 105.71 156.37 106.55 156.55 Z M 107.46 156.76 L 108.43 156.98 C 109.27 157.17 110.11 156.65 110.30 155.81 C 110.50 154.97 109.97 154.13 109.13 153.94 L 108.16 153.71 C 107.32 153.52 106.48 154.05 106.29 154.89 C 106.10 155.73 106.62 156.56 107.46 156.76 Z M 108.43 156.98 L 109.45 157.21 C 110.29 157.40 111.12 156.88 111.32 156.04 C 111.51 155.20 110.98 154.36 110.14 154.17 L 109.13 153.94 C 108.29 153.75 107.45 154.27 107.26 155.11 C 107.07 155.95 107.59 156.79 108.43 156.98 Z M 109.46 157.21 L 110.50 157.44 C 111.34 157.63 112.17 157.10 112.36 156.26 C 112.55 155.41 112.01 154.58 111.17 154.40 L 110.13 154.17 C 109.29 153.98 108.46 154.51 108.27 155.35 C 108.08 156.20 108.62 157.03 109.46 157.21 Z M 110.51 157.45 L 111.53 157.66 C 112.37 157.84 113.20 157.30 113.38 156.45 C 113.55 155.61 113.01 154.78 112.17 154.60 L 111.16 154.39 C 110.31 154.22 109.48 154.76 109.31 155.60 C 109.13 156.44 109.67 157.27 110.51 157.45 Z M 111.54 157.66 L 112.56 157.87 C 113.40 158.04 114.23 157.49 114.40 156.64 C 114.57 155.80 114.02 154.98 113.17 154.81 L 112.16 154.60 C 111.31 154.43 110.49 154.98 110.32 155.83 C 110.15 156.67 110.70 157.49 111.54 157.66 Z M 112.57 157.87 L 113.56 158.06 C 114.40 158.23 115.22 157.67 115.39 156.83 C 115.55 155.98 115.00 155.16 114.15 155.00 L 113.16 154.80 C 112.32 154.64 111.50 155.19 111.33 156.04 C 111.17 156.89 111.72 157.70 112.57 157.87 Z M 113.57 158.06 L 114.50 158.24 C 115.35 158.40 116.17 157.84 116.33 157.00 C 116.49 156.15 115.93 155.33 115.08 155.17 L 114.15 155.00 C 113.30 154.83 112.48 155.39 112.32 156.24 C 112.16 157.09 112.72 157.90 113.57 158.06 Z M 114.51 158.24 L 115.50 158.43 C 116.35 158.58 117.17 158.02 117.32 157.18 C 117.48 156.33 116.92 155.51 116.07 155.36 L 115.08 155.17 C 114.23 155.01 113.41 155.57 113.26 156.42 C 113.10 157.27 113.66 158.08 114.51 158.24 Z M 115.51 158.43 L 116.50 158.61 C 117.35 158.76 118.16 158.20 118.31 157.35 C 118.47 156.50 117.90 155.69 117.06 155.53 L 116.07 155.35 C 115.22 155.20 114.41 155.76 114.25 156.61 C 114.10 157.46 114.66 158.27 115.51 158.43 Z M 116.51 158.61 L 117.45 158.77 C 118.30 158.92 119.11 158.35 119.26 157.50 C 119.41 156.66 118.84 155.85 117.99 155.70 L 117.05 155.53 C 116.20 155.38 115.39 155.95 115.24 156.80 C 115.09 157.65 115.66 158.46 116.51 158.61 Z M 117.46 158.77 L 118.43 158.94 C 119.28 159.08 120.08 158.51 120.23 157.66 C 120.37 156.81 119.80 156.00 118.95 155.86 L 117.99 155.70 C 117.14 155.55 116.33 156.12 116.19 156.97 C 116.04 157.82 116.61 158.63 117.46 158.77 Z M 118.43 158.94 L 119.36 159.09 C 120.21 159.23 121.01 158.66 121.15 157.81 C 121.30 156.96 120.72 156.15 119.87 156.01 L 118.94 155.86 C 118.09 155.72 117.29 156.29 117.15 157.14 C 117.01 157.99 117.58 158.80 118.43 158.94 Z M 119.36 159.09 L 120.34 159.25 C 121.19 159.39 121.99 158.81 122.13 157.96 C 122.27 157.11 121.69 156.31 120.84 156.17 L 119.86 156.01 C 119.01 155.87 118.21 156.45 118.07 157.30 C 117.93 158.15 118.51 158.95 119.36 159.09 Z M 120.34 159.25 L 121.36 159.42 C 122.21 159.55 123.01 158.97 123.15 158.12 C 123.28 157.27 122.70 156.47 121.85 156.33 L 120.84 156.17 C 119.99 156.03 119.19 156.61 119.05 157.46 C 118.91 158.32 119.49 159.12 120.34 159.25 Z M 121.36 159.42 L 122.39 159.58 C 123.25 159.72 124.05 159.14 124.18 158.28 C 124.32 157.43 123.74 156.63 122.89 156.50 L 121.85 156.33 C 121.00 156.20 120.20 156.78 120.06 157.63 C 119.93 158.48 120.51 159.28 121.36 159.42 Z M 122.40 159.58 L 123.36 159.73 C 124.21 159.87 125.01 159.29 125.15 158.44 C 125.28 157.59 124.70 156.79 123.85 156.65 L 122.88 156.50 C 122.03 156.36 121.23 156.94 121.10 157.79 C 120.96 158.65 121.54 159.45 122.40 159.58 Z M 123.36 159.73 L 124.33 159.89 C 125.18 160.03 125.99 159.45 126.12 158.60 C 126.26 157.74 125.68 156.94 124.83 156.81 L 123.85 156.65 C 123.00 156.51 122.20 157.09 122.06 157.95 C 121.93 158.80 122.51 159.60 123.36 159.73 Z M 124.33 159.89 L 125.32 160.05 C 126.17 160.19 126.97 159.61 127.11 158.76 C 127.25 157.91 126.67 157.11 125.82 156.97 L 124.83 156.81 C 123.98 156.67 123.18 157.24 123.04 158.10 C 122.90 158.95 123.48 159.75 124.33 159.89 Z M 125.31 160.05 L 126.31 160.22 C 127.16 160.37 127.97 159.80 128.12 158.95 C 128.26 158.10 127.69 157.29 126.84 157.14 L 125.83 156.97 C 124.98 156.83 124.18 157.40 124.03 158.25 C 123.89 159.10 124.46 159.90 125.31 160.05 Z M 126.30 160.22 L 127.28 160.40 C 128.13 160.55 128.94 159.98 129.09 159.13 C 129.25 158.28 128.68 157.47 127.83 157.32 L 126.85 157.15 C 126.00 156.99 125.19 157.56 125.04 158.41 C 124.89 159.26 125.45 160.07 126.30 160.22 Z M 127.27 160.39 L 128.25 160.58 C 129.09 160.73 129.91 160.18 130.07 159.33 C 130.23 158.48 129.67 157.67 128.82 157.51 L 127.85 157.32 C 127.00 157.17 126.18 157.72 126.02 158.57 C 125.86 159.42 126.42 160.23 127.27 160.39 Z M 128.23 160.57 L 129.22 160.77 C 130.06 160.93 130.89 160.38 131.05 159.53 C 131.22 158.69 130.66 157.87 129.82 157.70 L 128.83 157.51 C 127.99 157.34 127.17 157.90 127.00 158.74 C 126.84 159.59 127.39 160.41 128.23 160.57 Z M 129.21 160.76 L 130.20 160.97 C 131.04 161.14 131.86 160.59 132.04 159.75 C 132.21 158.90 131.67 158.08 130.82 157.91 L 129.83 157.70 C 128.99 157.53 128.16 158.08 127.99 158.92 C 127.82 159.77 128.36 160.59 129.21 160.76 Z M 130.18 160.96 L 131.17 161.17 C 132.01 161.35 132.84 160.82 133.02 159.97 C 133.20 159.13 132.66 158.30 131.82 158.12 L 130.83 157.91 C 129.99 157.73 129.16 158.27 128.98 159.11 C 128.80 159.95 129.34 160.78 130.18 160.96 Z M 131.16 161.17 L 132.14 161.39 C 132.98 161.58 133.82 161.05 134.00 160.20 C 134.19 159.36 133.66 158.53 132.82 158.34 L 131.83 158.12 C 130.99 157.94 130.16 158.47 129.97 159.31 C 129.78 160.15 130.31 160.98 131.16 161.17 Z M 132.13 161.39 L 133.11 161.61 C 133.95 161.81 134.79 161.28 134.98 160.44 C 135.17 159.60 134.65 158.76 133.81 158.57 L 132.83 158.34 C 131.99 158.15 131.15 158.67 130.96 159.51 C 130.77 160.36 131.29 161.19 132.13 161.39 Z M 133.10 161.61 L 134.07 161.84 C 134.91 162.04 135.75 161.52 135.95 160.68 C 136.15 159.85 135.63 159.00 134.79 158.80 L 133.82 158.57 C 132.98 158.37 132.14 158.89 131.94 159.73 C 131.74 160.57 132.26 161.41 133.10 161.61 Z M 134.06 161.84 L 135.02 162.08 C 135.86 162.28 136.70 161.77 136.91 160.93 C 137.12 160.09 136.60 159.25 135.77 159.04 L 134.80 158.81 C 133.96 158.60 133.12 159.11 132.91 159.95 C 132.71 160.79 133.22 161.63 134.06 161.84 Z M 135.01 162.07 L 135.99 162.32 C 136.83 162.53 137.67 162.02 137.89 161.19 C 138.10 160.35 137.59 159.50 136.75 159.29 L 135.78 159.05 C 134.94 158.83 134.09 159.34 133.88 160.18 C 133.67 161.01 134.18 161.86 135.01 162.07 Z M 135.98 162.32 L 136.97 162.58 C 137.81 162.79 138.66 162.29 138.88 161.46 C 139.09 160.62 138.59 159.77 137.76 159.55 L 136.76 159.29 C 135.93 159.08 135.08 159.58 134.86 160.41 C 134.64 161.25 135.15 162.10 135.98 162.32 Z M 136.96 162.57 L 137.94 162.83 C 138.77 163.06 139.63 162.56 139.85 161.73 C 140.08 160.90 139.58 160.04 138.75 159.82 L 137.77 159.56 C 136.94 159.33 136.08 159.83 135.86 160.66 C 135.64 161.49 136.13 162.35 136.96 162.57 Z M 137.93 162.83 L 138.88 163.10 C 139.71 163.33 140.57 162.84 140.80 162.01 C 141.03 161.18 140.55 160.32 139.72 160.09 L 138.76 159.82 C 137.93 159.59 137.07 160.08 136.84 160.91 C 136.61 161.74 137.09 162.60 137.93 162.83 Z M 138.86 163.09 L 139.78 163.36 C 140.61 163.60 141.47 163.12 141.72 162.30 C 141.96 161.47 141.48 160.60 140.65 160.36 L 139.73 160.09 C 138.90 159.85 138.04 160.33 137.80 161.16 C 137.56 161.98 138.03 162.85 138.86 163.09 Z M 139.76 163.35 L 140.75 163.65 C 141.57 163.91 142.44 163.44 142.70 162.62 C 142.95 161.80 142.49 160.92 141.66 160.67 L 140.67 160.37 C 139.85 160.11 138.98 160.58 138.72 161.40 C 138.47 162.23 138.93 163.10 139.76 163.35 Z M 140.72 163.65 L 141.67 163.96 C 142.49 164.22 143.37 163.77 143.64 162.95 C 143.91 162.13 143.46 161.25 142.64 160.99 L 141.69 160.68 C 140.86 160.41 139.98 160.86 139.72 161.68 C 139.45 162.50 139.90 163.38 140.72 163.65 Z M 141.65 163.95 L 142.58 164.27 C 143.40 164.54 144.28 164.11 144.56 163.29 C 144.84 162.48 144.41 161.59 143.59 161.31 L 142.66 160.99 C 141.84 160.71 140.96 161.15 140.68 161.97 C 140.40 162.78 140.83 163.67 141.65 163.95 Z M 142.56 164.26 L 143.49 164.59 C 144.30 164.88 145.19 164.46 145.48 163.64 C 145.77 162.83 145.35 161.94 144.54 161.65 L 143.61 161.32 C 142.80 161.03 141.91 161.45 141.62 162.26 C 141.33 163.07 141.75 163.97 142.56 164.26 Z M 143.47 164.58 L 144.41 164.93 C 145.22 165.23 146.12 164.82 146.42 164.01 C 146.72 163.21 146.31 162.31 145.50 162.01 L 144.56 161.66 C 143.75 161.35 142.85 161.77 142.55 162.57 C 142.25 163.38 142.66 164.28 143.47 164.58 Z M 144.39 164.92 L 145.33 165.29 C 146.13 165.60 147.04 165.20 147.35 164.40 C 147.66 163.60 147.26 162.69 146.46 162.38 L 145.52 162.01 C 144.72 161.70 143.81 162.10 143.50 162.90 C 143.19 163.71 143.59 164.61 144.39 164.92 Z M 145.30 165.28 L 146.23 165.66 C 147.03 165.99 147.94 165.60 148.26 164.81 C 148.59 164.01 148.21 163.10 147.41 162.77 L 146.49 162.39 C 145.69 162.06 144.78 162.45 144.45 163.24 C 144.12 164.04 144.51 164.95 145.30 165.28 Z M 146.20 165.65 L 147.11 166.04 C 147.90 166.39 148.82 166.02 149.16 165.23 C 149.51 164.44 149.14 163.52 148.35 163.18 L 147.44 162.78 C 146.65 162.44 145.73 162.80 145.39 163.59 C 145.04 164.38 145.41 165.30 146.20 165.65 Z M 147.08 166.03 L 148.00 166.46 C 148.78 166.82 149.71 166.48 150.07 165.70 C 150.44 164.91 150.10 163.99 149.31 163.62 L 148.39 163.19 C 147.60 162.83 146.68 163.17 146.31 163.96 C 145.95 164.74 146.29 165.67 147.08 166.03 Z M 147.98 166.45 L 148.88 166.88 C 149.66 167.25 150.59 166.93 150.96 166.15 C 151.34 165.37 151.01 164.44 150.23 164.07 L 149.34 163.63 C 148.56 163.26 147.63 163.59 147.25 164.36 C 146.88 165.14 147.20 166.07 147.98 166.45 Z M 148.87 166.88 L 149.76 167.31 C 150.53 167.68 151.47 167.36 151.84 166.59 C 152.22 165.81 151.90 164.88 151.12 164.50 L 150.24 164.07 C 149.47 163.69 148.53 164.01 148.15 164.79 C 147.78 165.56 148.10 166.50 148.87 166.88 Z M 149.76 167.31 L 150.67 167.74 C 151.44 168.12 152.38 167.79 152.75 167.01 C 153.12 166.24 152.80 165.30 152.02 164.93 L 151.12 164.50 C 150.34 164.12 149.41 164.45 149.03 165.23 C 148.66 166.00 148.99 166.94 149.76 167.31 Z M 150.68 167.75 L 151.59 168.18 C 152.37 168.55 153.30 168.21 153.67 167.43 C 154.04 166.65 153.70 165.72 152.92 165.35 L 152.00 164.92 C 151.22 164.56 150.29 164.89 149.93 165.67 C 149.56 166.45 149.90 167.38 150.68 167.75 Z M 151.60 168.18 L 152.51 168.60 C 153.29 168.96 154.22 168.62 154.58 167.84 C 154.94 167.05 154.60 166.13 153.82 165.77 L 152.91 165.35 C 152.13 164.99 151.20 165.33 150.84 166.11 C 150.48 166.90 150.82 167.82 151.60 168.18 Z M 152.51 168.60 L 153.41 169.01 C 154.19 169.37 155.12 169.03 155.48 168.24 C 155.84 167.46 155.49 166.53 154.71 166.17 L 153.81 165.76 C 153.03 165.40 152.10 165.75 151.74 166.53 C 151.38 167.32 151.73 168.24 152.51 168.60 Z M 153.41 169.01 L 154.34 169.43 C 155.12 169.79 156.05 169.44 156.40 168.66 C 156.76 167.87 156.41 166.95 155.63 166.59 L 154.71 166.17 C 153.92 165.81 153.00 166.16 152.64 166.95 C 152.28 167.73 152.63 168.66 153.41 169.01 Z M 154.34 169.43 L 155.24 169.85 C 156.03 170.20 156.95 169.86 157.31 169.07 C 157.67 168.29 157.32 167.36 156.54 167.00 L 155.63 166.59 C 154.84 166.23 153.92 166.58 153.56 167.37 C 153.20 168.15 153.55 169.08 154.34 169.43 Z M 155.24 169.85 L 156.14 170.25 C 156.93 170.61 157.85 170.26 158.21 169.48 C 158.57 168.69 158.22 167.77 157.43 167.41 L 156.53 167.00 C 155.75 166.65 154.82 166.99 154.47 167.78 C 154.11 168.56 154.46 169.49 155.24 169.85 Z M 156.14 170.25 L 157.06 170.67 C 157.85 171.03 158.77 170.68 159.13 169.89 C 159.48 169.11 159.14 168.18 158.35 167.83 L 157.43 167.41 C 156.65 167.06 155.72 167.40 155.37 168.19 C 155.01 168.97 155.36 169.90 156.14 170.25 Z M 157.07 170.67 L 157.99 171.08 C 158.77 171.44 159.70 171.08 160.05 170.30 C 160.40 169.51 160.05 168.59 159.26 168.23 L 158.34 167.82 C 157.56 167.47 156.63 167.82 156.28 168.61 C 155.93 169.40 156.28 170.32 157.07 170.67 Z M 158.00 171.09 L 158.91 171.49 C 159.70 171.83 160.62 171.47 160.96 170.67 C 161.31 169.88 160.94 168.96 160.15 168.62 L 159.24 168.23 C 158.45 167.88 157.53 168.25 157.19 169.04 C 156.85 169.83 157.21 170.75 158.00 171.09 Z M 158.94 171.50 L 159.86 171.88 C 160.65 172.21 161.57 171.83 161.90 171.03 C 162.22 170.23 161.85 169.32 161.05 168.99 L 160.13 168.61 C 159.33 168.28 158.42 168.66 158.09 169.46 C 157.76 170.25 158.14 171.17 158.94 171.50 Z M 159.88 171.88 L 160.80 172.25 C 161.60 172.57 162.51 172.18 162.83 171.37 C 163.15 170.57 162.75 169.67 161.95 169.35 L 161.03 168.98 C 160.23 168.66 159.32 169.06 159.00 169.86 C 158.68 170.66 159.08 171.57 159.88 171.88 Z M 160.81 172.26 L 161.74 172.62 C 162.55 172.93 163.45 172.53 163.77 171.73 C 164.08 170.92 163.68 170.02 162.87 169.71 L 161.94 169.34 C 161.14 169.03 160.23 169.43 159.92 170.23 C 159.61 171.04 160.01 171.94 160.81 172.26 Z M 161.74 172.62 L 162.60 172.95 C 163.40 173.26 164.31 172.86 164.62 172.06 C 164.93 171.26 164.54 170.35 163.73 170.04 L 162.88 169.71 C 162.07 169.39 161.17 169.79 160.85 170.60 C 160.54 171.40 160.94 172.30 161.74 172.62 Z M 162.60 172.95 L 163.46 173.28 C 164.26 173.59 165.16 173.19 165.47 172.39 C 165.78 171.58 165.38 170.68 164.58 170.37 L 163.73 170.04 C 162.92 169.73 162.02 170.13 161.71 170.93 C 161.40 171.74 161.80 172.64 162.60 172.95 Z M 163.47 173.29 L 164.42 173.64 C 165.22 173.94 166.12 173.54 166.43 172.73 C 166.73 171.92 166.32 171.02 165.51 170.72 L 164.57 170.36 C 163.76 170.06 162.86 170.47 162.56 171.27 C 162.25 172.08 162.66 172.98 163.47 173.29 Z M 164.44 173.65 L 165.53 174.04 C 166.34 174.33 167.23 173.91 167.53 173.10 C 167.82 172.29 167.40 171.40 166.59 171.10 L 165.49 170.71 C 164.68 170.42 163.79 170.84 163.50 171.65 C 163.20 172.46 163.63 173.36 164.44 173.65 Z M 165.55 174.05 L 166.34 174.32 C 167.16 174.61 168.05 174.18 168.33 173.36 C 168.61 172.55 168.18 171.66 167.37 171.37 L 166.57 171.10 C 165.75 170.82 164.86 171.25 164.58 172.06 C 164.30 172.88 164.73 173.76 165.55 174.05 Z M 166.35 174.33 L 167.22 174.62 C 168.04 174.90 168.93 174.46 169.20 173.64 C 169.48 172.82 169.04 171.94 168.22 171.66 L 167.35 171.37 C 166.54 171.09 165.65 171.53 165.37 172.35 C 165.10 173.17 165.54 174.05 166.35 174.33 Z M 167.24 174.63 L 168.17 174.93 C 168.99 175.20 169.88 174.76 170.14 173.94 C 170.41 173.12 169.97 172.24 169.15 171.97 L 168.21 171.66 C 167.39 171.39 166.51 171.84 166.24 172.66 C 165.97 173.47 166.42 174.36 167.24 174.63 Z M 168.19 174.94 L 169.18 175.26 C 170.01 175.52 170.88 175.07 171.15 174.25 C 171.41 173.43 170.96 172.55 170.14 172.28 L 169.14 171.96 C 168.32 171.70 167.44 172.15 167.17 172.97 C 166.91 173.80 167.36 174.67 168.19 174.94 Z M 169.20 175.26 L 170.25 175.59 C 171.07 175.85 171.95 175.39 172.20 174.57 C 172.46 173.74 172.00 172.87 171.18 172.61 L 170.13 172.28 C 169.30 172.02 168.43 172.48 168.17 173.31 C 167.91 174.13 168.37 175.00 169.20 175.26 Z M 170.26 175.59 L 171.31 175.91 C 172.14 176.17 173.01 175.70 173.26 174.88 C 173.51 174.05 173.05 173.18 172.22 172.93 L 171.17 172.61 C 170.34 172.36 169.47 172.82 169.22 173.65 C 168.97 174.47 169.44 175.34 170.26 175.59 Z M 171.32 175.92 L 172.31 176.21 C 173.13 176.46 174.00 175.99 174.25 175.16 C 174.50 174.33 174.03 173.46 173.20 173.22 L 172.21 172.92 C 171.39 172.68 170.52 173.15 170.27 173.97 C 170.03 174.80 170.50 175.67 171.32 175.92 Z M 172.31 176.21 L 173.31 176.51 C 174.14 176.75 175.01 176.27 175.25 175.45 C 175.49 174.62 175.02 173.75 174.19 173.51 L 173.19 173.22 C 172.37 172.97 171.50 173.45 171.26 174.27 C 171.01 175.10 171.49 175.97 172.31 176.21 Z M 173.31 176.51 L 174.31 176.80 C 175.14 177.04 176.00 176.56 176.24 175.73 C 176.49 174.91 176.01 174.04 175.18 173.80 L 174.19 173.51 C 173.36 173.27 172.49 173.74 172.25 174.57 C 172.01 175.40 172.49 176.26 173.31 176.51 Z M 174.31 176.80 L 175.28 177.08 C 176.11 177.32 176.98 176.85 177.22 176.02 C 177.46 175.19 176.98 174.32 176.16 174.08 L 175.18 173.80 C 174.35 173.56 173.49 174.03 173.25 174.86 C 173.01 175.69 173.48 176.55 174.31 176.80 Z M 175.28 177.08 L 176.22 177.35 C 177.05 177.60 177.91 177.12 178.16 176.29 C 178.40 175.47 177.92 174.60 177.10 174.36 L 176.16 174.08 C 175.33 173.84 174.46 174.31 174.22 175.14 C 173.98 175.97 174.45 176.84 175.28 177.08 Z M 176.21 177.35 L 177.10 177.62 C 177.93 177.86 178.80 177.39 179.04 176.56 C 179.29 175.74 178.82 174.87 177.99 174.62 L 177.10 174.36 C 176.28 174.11 175.41 174.59 175.16 175.41 C 174.92 176.24 175.39 177.11 176.21 177.35 Z M 177.09 177.61 L 178.18 177.94 C 179.00 178.19 179.88 177.73 180.13 176.90 C 180.38 176.08 179.91 175.21 179.09 174.96 L 178.00 174.63 C 177.17 174.37 176.30 174.84 176.05 175.66 C 175.80 176.49 176.27 177.36 177.09 177.61 Z M 178.16 177.94 L 179.20 178.27 C 180.02 178.53 180.90 178.07 181.16 177.25 C 181.42 176.43 180.97 175.55 180.14 175.29 L 179.11 174.96 C 178.28 174.70 177.41 175.15 177.15 175.98 C 176.88 176.80 177.34 177.68 178.16 177.94 Z M 179.17 178.26 L 180.10 178.57 C 180.92 178.85 181.80 178.41 182.08 177.59 C 182.35 176.78 181.92 175.89 181.10 175.61 L 180.17 175.30 C 179.35 175.02 178.47 175.46 178.19 176.28 C 177.92 177.10 178.35 177.98 179.17 178.26 Z M 180.07 178.56 L 180.91 178.87 C 181.72 179.16 182.61 178.74 182.91 177.93 C 183.20 177.12 182.78 176.23 181.97 175.93 L 181.13 175.63 C 180.32 175.33 179.43 175.75 179.13 176.56 C 178.84 177.37 179.26 178.27 180.07 178.56 Z M 180.86 178.85 L 181.68 179.18 C 182.48 179.50 183.39 179.10 183.71 178.30 C 184.03 177.50 183.64 176.59 182.84 176.28 L 182.02 175.95 C 181.22 175.63 180.31 176.02 179.99 176.82 C 179.67 177.62 180.06 178.53 180.86 178.85 Z M 181.62 179.15 L 182.53 179.56 C 183.32 179.91 184.24 179.56 184.60 178.77 C 184.95 177.99 184.60 177.06 183.81 176.71 L 182.90 176.30 C 182.11 175.95 181.19 176.30 180.84 177.09 C 180.48 177.87 180.83 178.80 181.62 179.15 Z M 182.44 179.52 L 183.31 179.97 C 184.07 180.38 185.02 180.08 185.42 179.32 C 185.82 178.56 185.53 177.61 184.77 177.21 L 183.90 176.75 C 183.14 176.35 182.19 176.64 181.79 177.41 C 181.39 178.17 181.68 179.11 182.44 179.52 Z M 183.21 179.91 L 184.06 180.45 C 184.79 180.90 185.75 180.68 186.21 179.95 C 186.67 179.22 186.44 178.26 185.71 177.80 L 184.87 177.27 C 184.14 176.81 183.17 177.03 182.72 177.76 C 182.26 178.49 182.48 179.46 183.21 179.91 Z M 183.96 180.38 L 184.74 180.95 C 185.44 181.46 186.41 181.31 186.92 180.62 C 187.43 179.92 187.28 178.95 186.59 178.44 L 185.81 177.86 C 185.11 177.35 184.14 177.50 183.63 178.20 C 183.12 178.89 183.27 179.87 183.96 180.38 Z M 184.66 180.89 L 185.41 181.52 C 186.07 182.07 187.05 181.98 187.61 181.32 C 188.16 180.66 188.07 179.68 187.41 179.12 L 186.67 178.50 C 186.01 177.94 185.02 178.03 184.47 178.69 C 183.91 179.35 184.00 180.34 184.66 180.89 Z M 185.33 181.45 L 186.06 182.15 C 186.69 182.74 187.68 182.72 188.27 182.10 C 188.87 181.47 188.84 180.48 188.22 179.89 L 187.49 179.19 C 186.86 178.60 185.87 178.62 185.28 179.24 C 184.68 179.87 184.71 180.86 185.33 181.45 Z M 185.99 182.08 L 186.70 182.84 C 187.28 183.47 188.27 183.51 188.90 182.93 C 189.54 182.35 189.58 181.36 188.99 180.73 L 188.29 179.96 C 187.71 179.33 186.72 179.29 186.08 179.87 C 185.45 180.45 185.41 181.44 185.99 182.08 Z M 186.63 182.76 L 187.26 183.55 C 187.80 184.22 188.78 184.33 189.45 183.79 C 190.13 183.25 190.24 182.27 189.70 181.60 L 189.06 180.81 C 188.52 180.13 187.54 180.02 186.87 180.56 C 186.20 181.10 186.09 182.09 186.63 182.76 Z M 187.20 183.47 L 187.78 184.28 C 188.27 184.99 189.25 185.15 189.95 184.66 C 190.66 184.16 190.82 183.18 190.33 182.48 L 189.75 181.67 C 189.25 180.97 188.28 180.80 187.58 181.30 C 186.87 181.80 186.71 182.77 187.20 183.47 Z M 187.74 184.23 L 188.28 185.07 C 188.75 185.79 189.72 186.00 190.44 185.53 C 191.16 185.07 191.37 184.10 190.91 183.38 L 190.36 182.54 C 189.90 181.81 188.93 181.60 188.20 182.07 C 187.48 182.54 187.27 183.50 187.74 184.23 Z M 188.26 185.03 L 188.78 185.89 C 189.23 186.63 190.19 186.87 190.93 186.42 C 191.66 185.97 191.90 185.01 191.45 184.27 L 190.93 183.41 C 190.48 182.68 189.52 182.44 188.78 182.89 C 188.05 183.34 187.81 184.30 188.26 185.03 Z M 188.77 185.88 L 189.21 186.62 C 189.65 187.36 190.61 187.61 191.35 187.17 C 192.09 186.73 192.34 185.78 191.90 185.04 L 191.46 184.29 C 191.02 183.55 190.06 183.30 189.32 183.74 C 188.58 184.18 188.33 185.13 188.77 185.88 Z"
      fill="black"
      fill-rule="nonzero" /><path d="M 95.67 215.00 L 96.13 215.90 C 96.53 216.67 97.47 216.97 98.23 216.57 C 99.00 216.18 99.30 215.24 98.91 214.47 L 98.44 213.57 C 98.05 212.80 97.11 212.50 96.34 212.90 C 95.57 213.29 95.27 214.23 95.67 215.00 Z M 96.20 216.01 L 96.72 216.86 C 97.18 217.59 98.14 217.81 98.88 217.35 C 99.61 216.90 99.83 215.93 99.37 215.20 L 98.84 214.36 C 98.39 213.63 97.42 213.40 96.69 213.86 C 95.96 214.32 95.74 215.28 96.20 216.01 Z M 96.89 217.07 L 97.54 217.80 C 98.12 218.45 99.10 218.50 99.75 217.92 C 100.39 217.35 100.44 216.36 99.87 215.72 L 99.21 214.99 C 98.63 214.35 97.65 214.29 97.01 214.87 C 96.36 215.44 96.31 216.43 96.89 217.07 Z M 97.81 218.04 L 98.56 218.56 C 99.27 219.06 100.24 218.88 100.73 218.18 C 101.23 217.47 101.05 216.49 100.34 216.00 L 99.60 215.48 C 98.89 214.99 97.92 215.16 97.42 215.87 C 96.93 216.58 97.10 217.55 97.81 218.04 Z M 98.80 218.70 L 99.67 219.10 C 100.46 219.46 101.38 219.11 101.74 218.32 C 102.10 217.54 101.75 216.61 100.97 216.26 L 100.10 215.86 C 99.31 215.50 98.39 215.85 98.03 216.64 C 97.67 217.42 98.02 218.35 98.80 218.70 Z M 99.83 219.16 L 100.81 219.48 C 101.63 219.75 102.51 219.31 102.78 218.49 C 103.05 217.67 102.61 216.79 101.79 216.52 L 100.81 216.20 C 99.99 215.92 99.11 216.37 98.84 217.19 C 98.57 218.01 99.01 218.89 99.83 219.16 Z M 100.89 219.51 L 101.94 219.79 C 102.77 220.02 103.63 219.53 103.86 218.70 C 104.09 217.87 103.60 217.01 102.76 216.78 L 101.71 216.50 C 100.88 216.27 100.02 216.76 99.79 217.59 C 99.57 218.42 100.06 219.28 100.89 219.51 Z M 101.97 219.80 L 102.94 220.05 C 103.78 220.27 104.63 219.76 104.84 218.93 C 105.06 218.09 104.55 217.24 103.72 217.03 L 102.74 216.78 C 101.90 216.56 101.05 217.07 100.84 217.90 C 100.63 218.74 101.13 219.59 101.97 219.80 Z M 102.96 220.05 L 103.95 220.30 C 104.79 220.51 105.63 220.00 105.84 219.16 C 106.05 218.33 105.54 217.48 104.70 217.27 L 103.71 217.02 C 102.87 216.82 102.02 217.33 101.82 218.16 C 101.61 219.00 102.12 219.85 102.96 220.05 Z M 103.96 220.30 L 104.94 220.54 C 105.77 220.75 106.62 220.23 106.82 219.40 C 107.03 218.56 106.52 217.71 105.68 217.51 L 104.70 217.27 C 103.86 217.06 103.02 217.58 102.81 218.42 C 102.61 219.25 103.12 220.10 103.96 220.30 Z M 104.94 220.54 L 105.87 220.77 C 106.71 220.98 107.55 220.46 107.76 219.63 C 107.96 218.79 107.45 217.94 106.61 217.74 L 105.68 217.51 C 104.84 217.31 104.00 217.82 103.79 218.66 C 103.59 219.49 104.10 220.34 104.94 220.54 Z M 105.87 220.77 L 106.89 221.02 C 107.73 221.23 108.57 220.72 108.78 219.88 C 108.99 219.05 108.48 218.20 107.64 217.99 L 106.62 217.74 C 105.78 217.53 104.93 218.04 104.73 218.88 C 104.52 219.72 105.03 220.56 105.87 220.77 Z M 106.89 221.02 L 107.86 221.26 C 108.70 221.47 109.54 220.96 109.75 220.12 C 109.95 219.28 109.44 218.44 108.61 218.23 L 107.64 217.99 C 106.80 217.79 105.96 218.30 105.75 219.13 C 105.54 219.97 106.06 220.82 106.89 221.02 Z M 107.87 221.27 L 108.81 221.49 C 109.65 221.69 110.49 221.17 110.69 220.33 C 110.89 219.49 110.37 218.65 109.53 218.45 L 108.59 218.23 C 107.75 218.03 106.91 218.55 106.71 219.39 C 106.51 220.23 107.03 221.07 107.87 221.27 Z M 108.83 221.49 L 109.76 221.70 C 110.60 221.88 111.44 221.35 111.62 220.51 C 111.81 219.67 111.28 218.84 110.43 218.65 L 109.50 218.44 C 108.66 218.26 107.83 218.79 107.64 219.63 C 107.46 220.47 107.99 221.31 108.83 221.49 Z M 109.78 221.70 L 110.73 221.90 C 111.57 222.07 112.39 221.53 112.57 220.68 C 112.74 219.84 112.20 219.01 111.35 218.84 L 110.41 218.64 C 109.57 218.47 108.74 219.02 108.57 219.86 C 108.40 220.70 108.94 221.53 109.78 221.70 Z M 110.73 221.90 L 111.72 222.09 C 112.56 222.26 113.38 221.71 113.55 220.87 C 113.72 220.02 113.17 219.20 112.33 219.03 L 111.34 218.84 C 110.50 218.67 109.68 219.22 109.51 220.06 C 109.34 220.91 109.89 221.73 110.73 221.90 Z M 111.71 222.09 L 112.74 222.30 C 113.59 222.47 114.41 221.92 114.58 221.07 C 114.75 220.23 114.20 219.41 113.35 219.24 L 112.33 219.03 C 111.48 218.86 110.66 219.41 110.49 220.26 C 110.32 221.10 110.87 221.92 111.71 222.09 Z M 112.73 222.30 L 113.64 222.49 C 114.49 222.66 115.31 222.12 115.49 221.27 C 115.66 220.43 115.12 219.60 114.28 219.43 L 113.37 219.24 C 112.52 219.06 111.69 219.61 111.52 220.45 C 111.34 221.30 111.89 222.12 112.73 222.30 Z M 113.64 222.48 L 114.54 222.68 C 115.39 222.85 116.21 222.32 116.39 221.47 C 116.57 220.63 116.03 219.80 115.19 219.62 L 114.28 219.43 C 113.44 219.25 112.61 219.79 112.43 220.63 C 112.25 221.48 112.79 222.31 113.64 222.48 Z M 114.54 222.68 L 115.51 222.88 C 116.35 223.06 117.18 222.52 117.36 221.68 C 117.54 220.83 117.00 220.01 116.15 219.83 L 115.19 219.62 C 114.35 219.44 113.52 219.98 113.34 220.82 C 113.16 221.67 113.70 222.50 114.54 222.68 Z M 115.51 222.88 L 116.55 223.10 C 117.39 223.28 118.22 222.73 118.40 221.89 C 118.57 221.05 118.03 220.22 117.19 220.04 L 116.15 219.83 C 115.31 219.65 114.48 220.19 114.30 221.03 C 114.12 221.88 114.67 222.70 115.51 222.88 Z M 116.56 223.10 L 117.63 223.32 C 118.48 223.49 119.30 222.95 119.47 222.10 C 119.64 221.26 119.10 220.43 118.25 220.26 L 117.18 220.04 C 116.33 219.87 115.51 220.41 115.34 221.26 C 115.17 222.10 115.71 222.93 116.56 223.10 Z M 117.64 223.32 L 118.55 223.50 C 119.39 223.67 120.22 223.12 120.38 222.27 C 120.55 221.43 120.00 220.61 119.16 220.44 L 118.25 220.26 C 117.40 220.09 116.58 220.64 116.41 221.49 C 116.24 222.33 116.79 223.15 117.64 223.32 Z M 118.56 223.50 L 119.51 223.69 C 120.36 223.85 121.18 223.30 121.34 222.45 C 121.50 221.61 120.95 220.79 120.10 220.62 L 119.15 220.44 C 118.30 220.27 117.48 220.83 117.32 221.67 C 117.16 222.52 117.71 223.34 118.56 223.50 Z M 119.52 223.69 L 120.50 223.88 C 121.35 224.04 122.17 223.48 122.33 222.63 C 122.49 221.79 121.93 220.97 121.09 220.81 L 120.10 220.62 C 119.25 220.46 118.43 221.02 118.27 221.86 C 118.11 222.71 118.67 223.53 119.52 223.69 Z M 120.51 223.88 L 121.52 224.07 C 122.37 224.22 123.19 223.67 123.34 222.82 C 123.50 221.97 122.94 221.16 122.10 221.00 L 121.08 220.81 C 120.23 220.65 119.42 221.21 119.26 222.06 C 119.10 222.90 119.66 223.72 120.51 223.88 Z M 121.53 224.07 L 122.55 224.26 C 123.40 224.41 124.21 223.85 124.37 223.00 C 124.53 222.15 123.96 221.34 123.12 221.18 L 122.09 221.00 C 121.24 220.84 120.43 221.40 120.27 222.25 C 120.12 223.10 120.68 223.91 121.53 224.07 Z M 122.56 224.26 L 123.58 224.44 C 124.43 224.60 125.24 224.03 125.40 223.18 C 125.55 222.34 124.99 221.52 124.14 221.37 L 123.11 221.18 C 122.26 221.03 121.45 221.59 121.30 222.44 C 121.14 223.29 121.71 224.10 122.56 224.26 Z M 123.59 224.44 L 124.61 224.62 C 125.45 224.78 126.26 224.21 126.42 223.36 C 126.57 222.51 126.00 221.70 125.15 221.55 L 124.14 221.37 C 123.29 221.22 122.48 221.78 122.32 222.63 C 122.17 223.48 122.74 224.29 123.59 224.44 Z M 124.61 224.62 L 125.62 224.80 C 126.46 224.95 127.27 224.38 127.42 223.54 C 127.57 222.69 127.01 221.88 126.16 221.73 L 125.15 221.55 C 124.30 221.40 123.49 221.97 123.34 222.82 C 123.19 223.67 123.76 224.48 124.61 224.62 Z M 125.62 224.80 L 126.61 224.98 C 127.46 225.13 128.27 224.56 128.42 223.71 C 128.57 222.86 128.00 222.05 127.15 221.90 L 126.16 221.73 C 125.31 221.58 124.50 222.15 124.35 223.00 C 124.20 223.85 124.77 224.65 125.62 224.80 Z M 126.61 224.98 L 127.59 225.15 C 128.44 225.30 129.25 224.73 129.40 223.88 C 129.55 223.03 128.98 222.22 128.13 222.07 L 127.15 221.90 C 126.30 221.75 125.49 222.32 125.34 223.17 C 125.20 224.02 125.76 224.83 126.61 224.98 Z M 127.59 225.15 L 128.56 225.31 C 129.41 225.46 130.21 224.89 130.36 224.04 C 130.51 223.19 129.94 222.39 129.09 222.24 L 128.13 222.07 C 127.28 221.92 126.47 222.49 126.32 223.34 C 126.18 224.19 126.74 225.00 127.59 225.15 Z M 128.56 225.31 L 129.50 225.48 C 130.35 225.63 131.16 225.06 131.31 224.21 C 131.45 223.36 130.89 222.55 130.04 222.40 L 129.09 222.24 C 128.24 222.09 127.43 222.66 127.29 223.51 C 127.14 224.36 127.71 225.17 128.56 225.31 Z M 129.50 225.48 L 130.51 225.66 C 131.36 225.80 132.17 225.24 132.31 224.39 C 132.46 223.54 131.89 222.73 131.05 222.58 L 130.04 222.40 C 129.19 222.25 128.38 222.82 128.23 223.67 C 128.08 224.52 128.65 225.33 129.50 225.48 Z M 130.51 225.66 L 131.50 225.83 C 132.34 225.98 133.15 225.41 133.30 224.56 C 133.45 223.71 132.88 222.90 132.04 222.75 L 131.05 222.58 C 130.20 222.43 129.39 223.00 129.24 223.85 C 129.09 224.70 129.66 225.51 130.51 225.66 Z M 131.50 225.83 L 132.47 226.00 C 133.32 226.15 134.13 225.58 134.28 224.73 C 134.43 223.88 133.86 223.07 133.01 222.92 L 132.03 222.75 C 131.19 222.60 130.38 223.17 130.23 224.02 C 130.08 224.87 130.65 225.68 131.50 225.83 Z M 132.48 226.00 L 133.45 226.17 C 134.30 226.32 135.11 225.75 135.26 224.90 C 135.40 224.05 134.83 223.24 133.99 223.09 L 133.01 222.92 C 132.16 222.78 131.35 223.35 131.21 224.20 C 131.06 225.04 131.63 225.85 132.48 226.00 Z M 133.45 226.17 L 134.43 226.34 C 135.28 226.48 136.09 225.91 136.23 225.06 C 136.38 224.21 135.81 223.41 134.96 223.26 L 133.98 223.09 C 133.13 222.95 132.32 223.52 132.18 224.37 C 132.03 225.22 132.60 226.02 133.45 226.17 Z M 134.43 226.34 L 135.42 226.51 C 136.27 226.65 137.07 226.08 137.22 225.23 C 137.36 224.38 136.79 223.57 135.94 223.43 L 134.95 223.26 C 134.10 223.12 133.30 223.69 133.16 224.54 C 133.01 225.39 133.58 226.20 134.43 226.34 Z M 135.42 226.51 L 136.41 226.67 C 137.26 226.81 138.07 226.24 138.21 225.39 C 138.35 224.54 137.78 223.73 136.93 223.59 L 135.93 223.43 C 135.08 223.28 134.28 223.86 134.14 224.71 C 134.00 225.56 134.57 226.36 135.42 226.51 Z M 136.42 226.67 L 137.41 226.83 C 138.27 226.97 139.07 226.40 139.21 225.55 C 139.35 224.70 138.77 223.89 137.92 223.75 L 136.92 223.59 C 136.07 223.45 135.27 224.03 135.13 224.88 C 134.99 225.73 135.57 226.53 136.42 226.67 Z M 137.42 226.83 L 138.41 227.00 C 139.26 227.13 140.06 226.55 140.20 225.70 C 140.34 224.85 139.76 224.05 138.91 223.91 L 137.92 223.75 C 137.06 223.61 136.26 224.19 136.13 225.04 C 135.99 225.90 136.57 226.70 137.42 226.83 Z M 138.41 227.00 L 139.40 227.15 C 140.25 227.29 141.05 226.71 141.19 225.86 C 141.33 225.01 140.75 224.21 139.89 224.07 L 138.91 223.91 C 138.06 223.78 137.26 224.36 137.12 225.21 C 136.98 226.06 137.56 226.86 138.41 227.00 Z M 139.40 227.15 L 140.37 227.31 C 141.23 227.44 142.03 226.86 142.16 226.01 C 142.30 225.16 141.72 224.36 140.86 224.23 L 139.89 224.07 C 139.04 223.94 138.24 224.52 138.11 225.37 C 137.97 226.22 138.55 227.02 139.40 227.15 Z M 140.37 227.31 L 141.42 227.47 C 142.27 227.61 143.07 227.03 143.21 226.18 C 143.34 225.33 142.76 224.53 141.91 224.39 L 140.86 224.23 C 140.01 224.09 139.21 224.67 139.08 225.52 C 138.94 226.37 139.52 227.17 140.37 227.31 Z M 141.42 227.47 L 142.45 227.64 C 143.30 227.77 144.10 227.19 144.24 226.34 C 144.37 225.49 143.79 224.69 142.94 224.56 L 141.91 224.39 C 141.06 224.26 140.26 224.84 140.12 225.69 C 139.99 226.54 140.57 227.34 141.42 227.47 Z M 142.45 227.64 L 143.44 227.80 C 144.30 227.94 145.10 227.36 145.23 226.51 C 145.37 225.66 144.79 224.85 143.94 224.72 L 142.94 224.56 C 142.09 224.42 141.29 225.00 141.15 225.85 C 141.02 226.70 141.60 227.50 142.45 227.64 Z M 143.44 227.80 L 144.40 227.96 C 145.25 228.10 146.05 227.52 146.19 226.67 C 146.33 225.82 145.76 225.02 144.91 224.88 L 143.95 224.72 C 143.10 224.58 142.29 225.15 142.15 226.00 C 142.01 226.85 142.59 227.66 143.44 227.80 Z M 144.39 227.96 L 145.30 228.11 C 146.15 228.26 146.96 227.69 147.10 226.84 C 147.25 225.99 146.68 225.18 145.83 225.04 L 144.92 224.88 C 144.07 224.73 143.26 225.30 143.11 226.15 C 142.97 227.00 143.54 227.81 144.39 227.96 Z M 145.29 228.11 L 146.29 228.29 C 147.14 228.45 147.95 227.89 148.11 227.04 C 148.26 226.19 147.70 225.38 146.85 225.22 L 145.85 225.04 C 145.00 224.89 144.18 225.45 144.03 226.30 C 143.88 227.14 144.44 227.96 145.29 228.11 Z M 146.28 228.29 L 147.27 228.48 C 148.12 228.64 148.93 228.08 149.09 227.23 C 149.25 226.39 148.70 225.57 147.85 225.41 L 146.86 225.22 C 146.02 225.06 145.20 225.62 145.04 226.47 C 144.88 227.32 145.44 228.13 146.28 228.29 Z M 147.27 228.48 L 148.23 228.66 C 149.08 228.82 149.90 228.27 150.06 227.42 C 150.22 226.57 149.66 225.76 148.82 225.59 L 147.85 225.41 C 147.01 225.25 146.19 225.81 146.03 226.65 C 145.87 227.50 146.42 228.32 147.27 228.48 Z M 148.24 228.66 L 149.20 228.84 C 150.05 229.00 150.86 228.44 151.02 227.59 C 151.18 226.74 150.62 225.93 149.77 225.77 L 148.81 225.59 C 147.96 225.44 147.15 226.00 146.99 226.84 C 146.83 227.69 147.39 228.51 148.24 228.66 Z M 149.22 228.84 L 150.17 229.01 C 151.02 229.16 151.83 228.59 151.98 227.74 C 152.13 226.90 151.56 226.09 150.71 225.94 L 149.75 225.77 C 148.91 225.62 148.10 226.19 147.95 227.04 C 147.80 227.89 148.37 228.70 149.22 228.84 Z M 150.19 229.02 L 151.16 229.18 C 152.01 229.32 152.81 228.74 152.95 227.89 C 153.09 227.04 152.52 226.24 151.67 226.10 L 150.70 225.94 C 149.85 225.79 149.04 226.37 148.90 227.22 C 148.76 228.07 149.34 228.87 150.19 229.02 Z M 151.16 229.18 L 152.15 229.34 C 153.00 229.47 153.80 228.90 153.94 228.04 C 154.08 227.19 153.50 226.39 152.65 226.25 L 151.66 226.09 C 150.81 225.96 150.01 226.54 149.87 227.39 C 149.73 228.24 150.31 229.04 151.16 229.18 Z M 152.15 229.34 L 153.16 229.50 C 154.01 229.64 154.81 229.06 154.95 228.21 C 155.08 227.35 154.51 226.55 153.65 226.42 L 152.65 226.25 C 151.80 226.12 151.00 226.70 150.86 227.55 C 150.72 228.40 151.30 229.20 152.15 229.34 Z M 153.15 229.50 L 154.16 229.66 C 155.01 229.80 155.82 229.23 155.96 228.38 C 156.10 227.53 155.52 226.72 154.67 226.58 L 153.66 226.42 C 152.81 226.28 152.01 226.85 151.87 227.70 C 151.73 228.55 152.30 229.36 153.15 229.50 Z M 154.15 229.66 L 155.15 229.83 C 156.00 229.98 156.80 229.41 156.95 228.56 C 157.09 227.71 156.52 226.90 155.67 226.75 L 154.68 226.59 C 153.83 226.44 153.02 227.01 152.88 227.86 C 152.73 228.71 153.30 229.52 154.15 229.66 Z M 155.14 229.83 L 156.14 230.00 C 156.99 230.15 157.79 229.58 157.94 228.73 C 158.09 227.88 157.52 227.08 156.67 226.93 L 155.68 226.76 C 154.83 226.61 154.02 227.18 153.87 228.03 C 153.72 228.88 154.29 229.68 155.14 229.83 Z M 156.13 230.00 L 157.12 230.18 C 157.97 230.32 158.78 229.76 158.93 228.91 C 159.07 228.06 158.51 227.25 157.66 227.10 L 156.67 226.93 C 155.82 226.78 155.01 227.35 154.86 228.20 C 154.72 229.05 155.28 229.86 156.13 230.00 Z M 157.12 230.18 L 158.09 230.35 C 158.94 230.49 159.75 229.92 159.90 229.07 C 160.05 228.22 159.48 227.42 158.63 227.27 L 157.66 227.10 C 156.81 226.95 156.00 227.52 155.85 228.37 C 155.70 229.22 156.27 230.03 157.12 230.18 Z M 158.10 230.35 L 159.10 230.52 C 159.95 230.66 160.75 230.09 160.90 229.24 C 161.04 228.39 160.47 227.58 159.62 227.44 L 158.62 227.27 C 157.77 227.12 156.97 227.69 156.82 228.54 C 156.68 229.39 157.25 230.20 158.10 230.35 Z M 159.10 230.52 L 160.10 230.68 C 160.95 230.83 161.75 230.25 161.89 229.40 C 162.04 228.55 161.46 227.75 160.61 227.60 L 159.62 227.44 C 158.77 227.30 157.96 227.87 157.82 228.72 C 157.68 229.57 158.25 230.38 159.10 230.52 Z M 160.10 230.68 L 161.08 230.84 C 161.93 230.98 162.74 230.41 162.87 229.56 C 163.01 228.71 162.44 227.90 161.59 227.76 L 160.61 227.60 C 159.76 227.46 158.95 228.04 158.81 228.89 C 158.67 229.74 159.25 230.54 160.10 230.68 Z M 161.08 230.85 L 162.06 231.00 C 162.91 231.14 163.71 230.56 163.85 229.71 C 163.99 228.86 163.41 228.06 162.56 227.92 L 161.58 227.76 C 160.73 227.63 159.93 228.20 159.79 229.05 C 159.66 229.91 160.23 230.71 161.08 230.85 Z M 162.06 231.00 L 163.05 231.16 C 163.90 231.30 164.71 230.72 164.84 229.87 C 164.98 229.02 164.40 228.22 163.55 228.08 L 162.56 227.92 C 161.71 227.78 160.90 228.36 160.77 229.21 C 160.63 230.06 161.21 230.87 162.06 231.00 Z M 163.05 231.16 L 164.06 231.33 C 164.91 231.46 165.71 230.88 165.85 230.03 C 165.99 229.18 165.41 228.38 164.56 228.24 L 163.55 228.08 C 162.70 227.94 161.90 228.52 161.76 229.37 C 161.62 230.23 162.20 231.03 163.05 231.16 Z M 164.06 231.33 L 165.06 231.48 C 165.91 231.62 166.71 231.04 166.84 230.19 C 166.98 229.34 166.40 228.54 165.55 228.40 L 164.56 228.24 C 163.70 228.11 162.90 228.69 162.77 229.54 C 162.63 230.39 163.21 231.19 164.06 231.33 Z M 165.06 231.48 L 166.03 231.64 C 166.88 231.77 167.68 231.19 167.81 230.34 C 167.95 229.49 167.37 228.69 166.51 228.55 L 165.55 228.40 C 164.69 228.27 163.89 228.85 163.76 229.70 C 163.63 230.55 164.21 231.35 165.06 231.48 Z M 166.03 231.64 L 167.03 231.79 C 167.89 231.92 168.68 231.34 168.81 230.49 C 168.95 229.64 168.36 228.84 167.51 228.71 L 166.51 228.55 C 165.66 228.42 164.86 229.00 164.73 229.86 C 164.60 230.71 165.18 231.51 166.03 231.64 Z M 167.04 231.79 L 168.05 231.95 C 168.90 232.08 169.70 231.49 169.83 230.64 C 169.96 229.79 169.37 228.99 168.52 228.86 L 167.51 228.71 C 166.65 228.58 165.86 229.16 165.73 230.01 C 165.60 230.87 166.18 231.66 167.04 231.79 Z M 168.05 231.95 L 169.03 232.10 C 169.88 232.22 170.68 231.64 170.81 230.79 C 170.94 229.93 170.35 229.14 169.50 229.01 L 168.52 228.86 C 167.67 228.73 166.87 229.32 166.74 230.17 C 166.61 231.02 167.20 231.82 168.05 231.95 Z M 169.02 232.09 L 169.97 232.24 C 170.82 232.37 171.62 231.79 171.75 230.94 C 171.88 230.08 171.30 229.29 170.45 229.16 L 169.50 229.01 C 168.65 228.88 167.85 229.46 167.72 230.31 C 167.59 231.17 168.17 231.96 169.02 232.09 Z M 169.96 232.24 L 170.85 232.38 C 171.70 232.52 172.50 231.94 172.64 231.09 C 172.78 230.24 172.20 229.44 171.35 229.30 L 170.46 229.16 C 169.60 229.02 168.80 229.60 168.67 230.45 C 168.53 231.30 169.11 232.10 169.96 232.24 Z M 170.83 232.38 L 171.76 232.54 C 172.61 232.69 173.41 232.12 173.56 231.27 C 173.71 230.42 173.14 229.61 172.29 229.46 L 171.36 229.30 C 170.51 229.16 169.71 229.73 169.56 230.58 C 169.41 231.43 169.98 232.23 170.83 232.38 Z M 171.73 232.54 L 172.75 232.73 C 173.60 232.88 174.41 232.33 174.57 231.48 C 174.73 230.63 174.17 229.81 173.32 229.66 L 172.31 229.47 C 171.46 229.31 170.65 229.87 170.49 230.71 C 170.33 231.56 170.89 232.38 171.73 232.54 Z M 172.73 232.72 L 173.80 232.94 C 174.65 233.11 175.47 232.56 175.64 231.72 C 175.81 230.87 175.26 230.05 174.42 229.88 L 173.35 229.66 C 172.50 229.49 171.68 230.04 171.51 230.88 C 171.34 231.73 171.88 232.55 172.73 232.72 Z M 173.78 232.93 L 174.69 233.13 C 175.53 233.31 176.36 232.77 176.54 231.93 C 176.72 231.08 176.18 230.25 175.34 230.07 L 174.44 229.88 C 173.59 229.70 172.76 230.24 172.58 231.08 C 172.40 231.92 172.94 232.75 173.78 232.93 Z M 174.67 233.12 L 175.64 233.34 C 176.48 233.53 177.31 233.00 177.50 232.15 C 177.69 231.31 177.16 230.48 176.32 230.29 L 175.35 230.08 C 174.51 229.89 173.68 230.42 173.49 231.26 C 173.30 232.10 173.83 232.94 174.67 233.12 Z M 175.63 233.34 L 176.63 233.57 C 177.47 233.76 178.31 233.24 178.50 232.40 C 178.70 231.56 178.17 230.72 177.33 230.53 L 176.33 230.29 C 175.49 230.10 174.65 230.62 174.46 231.46 C 174.26 232.30 174.79 233.14 175.63 233.34 Z M 176.61 233.57 L 177.63 233.81 C 178.47 234.02 179.31 233.50 179.52 232.66 C 179.72 231.82 179.20 230.98 178.37 230.78 L 177.35 230.53 C 176.51 230.33 175.67 230.84 175.46 231.68 C 175.26 232.52 175.78 233.36 176.61 233.57 Z M 177.61 233.81 L 178.62 234.06 C 179.46 234.28 180.31 233.77 180.52 232.94 C 180.73 232.10 180.23 231.25 179.39 231.04 L 178.38 230.78 C 177.55 230.57 176.70 231.07 176.49 231.91 C 176.27 232.75 176.78 233.60 177.61 233.81 Z M 178.60 234.06 L 179.66 234.34 C 180.49 234.57 181.34 234.07 181.57 233.24 C 181.79 232.41 181.30 231.55 180.47 231.33 L 179.41 231.04 C 178.58 230.82 177.72 231.31 177.50 232.15 C 177.27 232.98 177.77 233.83 178.60 234.06 Z M 179.63 234.34 L 180.65 234.63 C 181.48 234.86 182.34 234.38 182.58 233.55 C 182.81 232.72 182.33 231.86 181.51 231.62 L 180.49 231.33 C 179.66 231.10 178.80 231.58 178.56 232.41 C 178.32 233.24 178.80 234.10 179.63 234.34 Z M 180.62 234.62 L 181.59 234.91 C 182.41 235.16 183.28 234.69 183.53 233.87 C 183.78 233.04 183.32 232.17 182.49 231.92 L 181.53 231.63 C 180.70 231.38 179.83 231.85 179.58 232.67 C 179.33 233.50 179.80 234.37 180.62 234.62 Z M 181.56 234.90 L 182.47 235.19 C 183.29 235.46 184.17 235.01 184.43 234.19 C 184.70 233.36 184.24 232.48 183.42 232.22 L 182.52 231.93 C 181.70 231.67 180.82 232.12 180.55 232.94 C 180.29 233.76 180.74 234.64 181.56 234.90 Z M 182.44 235.18 L 183.29 235.47 C 184.11 235.75 184.99 235.32 185.27 234.50 C 185.55 233.69 185.12 232.80 184.30 232.52 L 183.45 232.23 C 182.63 231.95 181.75 232.39 181.47 233.20 C 181.19 234.02 181.62 234.91 182.44 235.18 Z M 183.25 235.46 L 184.24 235.83 C 185.05 236.12 185.95 235.71 186.25 234.90 C 186.54 234.09 186.13 233.20 185.32 232.90 L 184.33 232.53 C 183.53 232.23 182.63 232.65 182.33 233.46 C 182.03 234.27 182.45 235.16 183.25 235.46 Z M 184.19 235.81 L 185.11 236.18 C 185.91 236.51 186.82 236.13 187.14 235.33 C 187.47 234.53 187.09 233.62 186.29 233.29 L 185.37 232.92 C 184.57 232.59 183.66 232.97 183.34 233.77 C 183.01 234.57 183.39 235.48 184.19 235.81 Z M 185.05 236.16 L 185.93 236.56 C 186.71 236.92 187.64 236.57 188.00 235.79 C 188.36 235.01 188.01 234.08 187.23 233.72 L 186.35 233.32 C 185.57 232.96 184.64 233.30 184.28 234.09 C 183.92 234.87 184.26 235.80 185.05 236.16 Z M 185.87 236.53 L 186.73 236.97 C 187.50 237.37 188.44 237.06 188.83 236.29 C 189.23 235.53 188.92 234.59 188.16 234.19 L 187.29 233.75 C 186.52 233.36 185.58 233.66 185.19 234.43 C 184.80 235.20 185.10 236.14 185.87 236.53 Z M 186.68 236.94 L 187.50 237.41 C 188.25 237.83 189.20 237.57 189.62 236.82 C 190.05 236.07 189.78 235.11 189.03 234.69 L 188.21 234.22 C 187.46 233.80 186.51 234.06 186.09 234.81 C 185.66 235.57 185.93 236.52 186.68 236.94 Z M 187.44 237.37 L 188.27 237.89 C 189.00 238.35 189.96 238.13 190.42 237.40 C 190.88 236.67 190.66 235.70 189.93 235.25 L 189.09 234.72 C 188.36 234.27 187.40 234.49 186.94 235.22 C 186.48 235.95 186.71 236.91 187.44 237.37 Z M 188.21 237.85 L 189.04 238.43 C 189.75 238.93 190.73 238.75 191.22 238.05 C 191.71 237.34 191.54 236.37 190.83 235.87 L 189.99 235.29 C 189.29 234.80 188.31 234.97 187.82 235.68 C 187.33 236.38 187.50 237.36 188.21 237.85 Z M 188.98 238.38 L 189.81 239.04 C 190.49 239.57 191.48 239.45 192.01 238.77 C 192.54 238.09 192.42 237.11 191.74 236.58 L 190.90 235.92 C 190.22 235.39 189.24 235.51 188.71 236.19 C 188.18 236.87 188.30 237.85 188.98 238.38 Z M 189.75 238.99 L 190.48 239.62 C 191.13 240.18 192.12 240.11 192.68 239.46 C 193.25 238.81 193.18 237.83 192.53 237.26 L 191.80 236.63 C 191.15 236.07 190.16 236.13 189.60 236.79 C 189.03 237.44 189.10 238.42 189.75 238.99 Z M 190.43 239.58 L 191.15 240.25 C 191.78 240.84 192.77 240.81 193.36 240.18 C 193.95 239.55 193.92 238.57 193.29 237.98 L 192.57 237.30 C 191.94 236.71 190.95 236.74 190.36 237.37 C 189.77 238.00 189.81 238.99 190.43 239.58 Z M 191.12 240.22 L 191.84 240.93 C 192.45 241.54 193.44 241.54 194.05 240.92 C 194.65 240.31 194.65 239.32 194.04 238.71 L 193.32 238.01 C 192.71 237.40 191.72 237.40 191.11 238.02 C 190.51 238.63 190.51 239.62 191.12 240.22 Z M 191.82 240.92 L 192.54 241.65 C 193.14 242.26 194.13 242.27 194.74 241.67 C 195.36 241.07 195.37 240.08 194.77 239.46 L 194.05 238.73 C 193.45 238.12 192.46 238.10 191.85 238.71 C 191.23 239.31 191.22 240.30 191.82 240.92 Z M 192.53 241.64 L 193.11 242.24 C 193.71 242.86 194.70 242.88 195.32 242.28 C 195.94 241.69 195.96 240.70 195.36 240.08 L 194.78 239.47 C 194.18 238.85 193.19 238.83 192.57 239.43 C 191.95 240.03 191.93 241.02 192.53 241.64 Z"
      fill="black"
      fill-rule="nonzero" /></svg>