<svg xmlns="http://www.w3.org/2000/svg" width="300" height="300" viewBox="0 0 300 300">
<path d="M 104.90 82.18 L 104.42 81.34 C 104.00 80.59 103.04 80.33 102.29 80.76 C 101.54 81.18 101.28 82.14 101.71 82.89 L 102.18 83.72 C 102.61 84.47 103.56 84.74 104.31 84.31 C 105.06 83.88 105.32 82.93 104.90 82.18 Z M 104.45 81.40 L 104.00 80.52 C 103.61 79.76 102.66 79.46 101.90 79.85 C 101.13 80.25 100.83 81.19 101.23 81.96 L 101.68 82.83 C 102.07 83.60 103.01 83.90 103.78 83.50 C 104.55 83.11 104.85 82.16 104.45 81.40 Z M 104.05 80.63 L 103.65 79.69 C 103.32 78.89 102.40 78.52 101.61 78.86 C 100.81 79.19 100.44 80.11 100.78 80.90 L 101.18 81.85 C 101.51 82.64 102.43 83.01 103.22 82.68 C 104.02 82.34 104.39 81.43 104.05 80.63 Z M 103.71 79.84 L 103.35 78.66 C 103.09 77.84 102.22 77.37 101.39 77.63 C 100.57 77.88 100.11 78.75 100.36 79.58 L 100.72 80.75 C 100.97 81.58 101.85 82.04 102.67 81.79 C 103.50 81.54 103.96 80.66 103.71 79.84 Z M 103.37 78.76 L 103.10 77.61 C 102.90 76.77 102.06 76.25 101.22 76.45 C 100.38 76.65 99.86 77.49 100.06 78.33 L 100.33 79.48 C 100.53 80.32 101.37 80.84 102.21 80.64 C 103.05 80.44 103.57 79.60 103.37 78.76 Z M 103.09 77.58 L 102.92 76.91 C 102.70 76.07 101.85 75.57 101.02 75.79 C 100.18 76.00 99.68 76.85 99.90 77.69 L 100.07 78.36 C 100.28 79.19 101.14 79.70 101.97 79.48 C 102.81 79.27 103.31 78.41 103.09 77.58 Z M 99.94 76.75 L 99.84 77.02 C 99.54 77.83 99.95 78.73 100.76 79.03 C 101.57 79.34 102.47 78.93 102.77 78.12 L 102.87 77.85 C 103.17 77.04 102.76 76.14 101.95 75.84 C 101.15 75.53 100.25 75.94 99.94 76.75 Z M 99.74 77.54 L 99.72 78.78 C 99.71 79.64 100.39 80.35 101.25 80.36 C 102.12 80.38 102.83 79.69 102.84 78.83 L 102.87 77.60 C 102.88 76.74 102.20 76.03 101.33 76.01 C 100.47 75.99 99.76 76.68 99.74 77.54 Z M 99.72 78.80 L 99.72 79.93 C 99.72 80.79 100.42 81.49 101.28 81.49 C 102.14 81.49 102.84 80.79 102.84 79.93 L 102.84 78.80 C 102.84 77.94 102.15 77.24 101.28 77.24 C 100.42 77.24 99.72 77.94 99.72 78.80 Z M 99.72 79.93 L 99.72 80.93 C 99.72 81.79 100.42 82.49 101.28 82.49 C 102.14 82.49 102.84 81.79 102.84 80.93 L 102.84 79.93 C 102.84 79.06 102.14 78.37 101.28 78.37 C 100.42 78.37 99.72 79.06 99.72 79.93 Z M 99.72 80.93 L 99.72 81.94 C 99.72 82.80 100.42 83.50 101.28 83.50 C 102.14 83.50 102.84 82.80 102.84 81.94 L 102.84 80.93 C 102.84 80.06 102.14 79.36 101.28 79.36 C 100.42 79.36 99.72 80.06 99.72 80.93 Z M 99.72 81.94 L 99.72 82.95 C 99.72 83.81 100.42 84.51 101.28 84.51 C 102.14 84.51 102.84 83.81 102.84 82.95 L 102.84 81.94 C 102.84 81.08 102.14 80.38 101.28 80.38 C 100.42 80.38 99.72 81.08 99.72 81.94 Z M 99.72 82.95 L 99.72 83.94 C 99.72 84.80 100.42 85.50 101.28 85.50 C 102.14 85.50 102.84 84.80 102.84 83.94 L 102.84 82.95 C 102.84 82.09 102.14 81.39 101.28 81.39 C 100.42 81.39 99.72 82.09 99.72 82.95 Z M 99.72 83.94 L 99.72 84.93 C 99.72 85.79 100.42 86.49 101.28 86.49 C 102.14 86.49 102.84 85.79 102.84 84.93 L 102.84 83.94 C 102.84 83.08 102.14 82.38 101.28 82.38 C 100.42 82.38 99.72 83.08 99.72 83.94 Z M 99.72 84.93 L 99.72 85.94 C 99.72 86.80 100.42 87.50 101.28 87.50 C 102.14 87.50 102.84 86.80 102.84 85.94 L 102.84 84.93 C 102.84 84.07 102.14 83.37 101.28 83.37 C 100.42 83.37 99.72 84.07 99.72 84.93 Z M 99.72 85.94 L 99.72 86.82 C 99.72 87.68 100.42 88.38 101.28 88.38 C 102.14 88.38 102.84 87.69 102.84 86.82 L 102.84 85.94 C 102.84 85.08 102.15 84.38 101.28 84.38 C 100.42 84.38 99.72 85.08 99.72 85.94 Z M 99.72 86.81 L 99.72 87.65 C 99.71 88.51 100.41 89.21 101.27 89.22 C 102.13 89.22 102.83 88.53 102.84 87.66 L 102.84 86.83 C 102.85 85.97 102.15 85.27 101.29 85.26 C 100.43 85.26 99.73 85.95 99.72 86.81 Z M 99.72 87.63 L 99.70 88.55 C 99.68 89.41 100.37 90.12 101.23 90.14 C 102.09 90.16 102.81 89.47 102.82 88.61 L 102.84 87.68 C 102.85 86.82 102.17 86.11 101.31 86.09 C 100.44 86.08 99.73 86.76 99.72 87.63 Z M 99.70 88.53 L 99.66 89.59 C 99.64 90.45 100.31 91.17 101.17 91.20 C 102.03 91.23 102.76 90.56 102.79 89.69 L 102.82 88.63 C 102.85 87.77 102.18 87.05 101.31 87.02 C 100.45 86.99 99.73 87.66 99.70 88.53 Z M 99.67 89.56 L 99.60 90.81 C 99.56 91.67 100.22 92.40 101.08 92.45 C 101.95 92.49 102.68 91.83 102.72 90.97 L 102.78 89.72 C 102.83 88.86 102.16 88.13 101.30 88.08 C 100.44 88.04 99.71 88.70 99.67 89.56 Z M 99.60 90.79 L 99.54 91.73 C 99.49 92.59 100.14 93.34 101.00 93.39 C 101.87 93.44 102.61 92.79 102.66 91.93 L 102.72 90.98 C 102.77 90.12 102.12 89.38 101.26 89.33 C 100.40 89.27 99.66 89.93 99.60 90.79 Z M 99.55 91.72 L 99.48 92.65 C 99.42 93.51 100.07 94.25 100.93 94.31 C 101.79 94.37 102.54 93.73 102.60 92.87 L 102.66 91.94 C 102.72 91.08 102.07 90.34 101.21 90.28 C 100.35 90.21 99.61 90.86 99.55 91.72 Z M 99.48 92.64 L 99.41 93.62 C 99.34 94.48 99.99 95.23 100.85 95.29 C 101.71 95.36 102.46 94.71 102.52 93.85 L 102.59 92.87 C 102.66 92.01 102.01 91.26 101.15 91.20 C 100.29 91.14 99.55 91.78 99.48 92.64 Z M 99.41 93.62 L 99.33 94.64 C 99.26 95.50 99.91 96.25 100.77 96.31 C 101.63 96.38 102.38 95.74 102.44 94.88 L 102.52 93.86 C 102.59 93.00 101.95 92.25 101.09 92.18 C 100.23 92.11 99.48 92.76 99.41 93.62 Z M 99.33 94.63 L 99.25 95.68 C 99.18 96.54 99.82 97.29 100.68 97.36 C 101.54 97.42 102.29 96.78 102.36 95.92 L 102.44 94.88 C 102.51 94.02 101.87 93.27 101.01 93.20 C 100.15 93.13 99.40 93.77 99.33 94.63 Z M 99.25 95.68 L 99.16 96.73 C 99.10 97.59 99.74 98.34 100.60 98.41 C 101.46 98.48 102.21 97.84 102.28 96.98 L 102.36 95.92 C 102.43 95.06 101.79 94.31 100.93 94.24 C 100.07 94.18 99.32 94.82 99.25 95.68 Z M 99.16 96.73 L 99.08 97.78 C 99.01 98.64 99.66 99.39 100.52 99.46 C 101.38 99.52 102.13 98.88 102.19 98.02 L 102.28 96.97 C 102.34 96.12 101.70 95.36 100.84 95.30 C 99.98 95.23 99.23 95.87 99.16 96.73 Z M 99.08 97.78 L 99.00 98.80 C 98.94 99.66 99.58 100.41 100.44 100.48 C 101.30 100.55 102.05 99.90 102.12 99.04 L 102.19 98.02 C 102.26 97.16 101.62 96.41 100.76 96.34 C 99.90 96.28 99.15 96.92 99.08 97.78 Z M 99.00 98.81 L 98.92 99.95 C 98.86 100.81 99.50 101.55 100.36 101.62 C 101.22 101.68 101.97 101.04 102.03 100.18 L 102.12 99.04 C 102.18 98.18 101.53 97.43 100.67 97.37 C 99.81 97.30 99.07 97.95 99.00 98.81 Z M 98.92 99.95 L 98.84 101.06 C 98.78 101.92 99.43 102.67 100.29 102.73 C 101.15 102.79 101.90 102.14 101.96 101.28 L 102.03 100.17 C 102.09 99.31 101.44 98.56 100.58 98.50 C 99.72 98.44 98.98 99.09 98.92 99.95 Z M 98.84 101.07 L 98.77 102.13 C 98.72 102.99 99.37 103.73 100.23 103.78 C 101.09 103.84 101.83 103.19 101.89 102.33 L 101.96 101.27 C 102.01 100.41 101.36 99.67 100.50 99.61 C 99.64 99.56 98.90 100.21 98.84 101.07 Z M 98.77 102.13 L 98.71 103.13 C 98.66 104.00 99.32 104.73 100.18 104.79 C 101.04 104.84 101.78 104.18 101.83 103.32 L 101.89 102.32 C 101.94 101.46 101.28 100.72 100.42 100.67 C 99.56 100.62 98.82 101.27 98.77 102.13 Z M 98.71 103.14 L 98.66 104.09 C 98.61 104.95 99.28 105.69 100.14 105.73 C 101.00 105.78 101.73 105.12 101.78 104.26 L 101.83 103.31 C 101.88 102.45 101.22 101.72 100.35 101.67 C 99.49 101.62 98.76 102.28 98.71 103.14 Z M 98.66 104.10 L 98.62 104.99 C 98.58 105.85 99.24 106.58 100.10 106.62 C 100.97 106.66 101.70 106.00 101.74 105.14 L 101.78 104.25 C 101.82 103.39 101.16 102.65 100.29 102.61 C 99.43 102.57 98.70 103.24 98.66 104.10 Z M 98.62 105.00 L 98.58 105.86 C 98.55 106.72 99.22 107.45 100.08 107.48 C 100.94 107.51 101.67 106.84 101.70 105.98 L 101.74 105.13 C 101.77 104.26 101.10 103.54 100.24 103.50 C 99.38 103.47 98.65 104.14 98.62 105.00 Z M 98.58 105.87 L 98.55 106.92 C 98.53 107.79 99.20 108.51 100.06 108.53 C 100.93 108.56 101.65 107.88 101.67 107.02 L 101.70 105.97 C 101.73 105.11 101.05 104.39 100.19 104.36 C 99.33 104.33 98.61 105.01 98.58 105.87 Z M 98.55 106.94 L 98.53 107.93 C 98.51 108.79 99.20 109.50 100.06 109.52 C 100.92 109.54 101.64 108.85 101.65 107.99 L 101.67 107.00 C 101.69 106.14 101.01 105.43 100.14 105.41 C 99.28 105.39 98.57 106.08 98.55 106.94 Z M 98.53 107.94 L 98.52 108.90 C 98.51 109.77 99.20 110.47 100.06 110.48 C 100.92 110.50 101.63 109.81 101.64 108.94 L 101.65 107.98 C 101.66 107.12 100.97 106.41 100.11 106.40 C 99.25 106.39 98.54 107.08 98.53 107.94 Z M 98.52 108.91 L 98.51 109.88 C 98.50 110.74 99.19 111.45 100.06 111.46 C 100.92 111.47 101.62 110.77 101.63 109.91 L 101.64 108.94 C 101.65 108.08 100.96 107.37 100.09 107.36 C 99.23 107.35 98.53 108.05 98.52 108.91 Z M 98.51 109.88 L 98.50 110.89 C 98.49 111.75 99.18 112.46 100.05 112.47 C 100.91 112.48 101.61 111.78 101.62 110.92 L 101.63 109.91 C 101.64 109.05 100.95 108.34 100.09 108.34 C 99.22 108.33 98.52 109.02 98.51 109.88 Z M 98.50 110.89 L 98.49 111.86 C 98.48 112.72 99.17 113.43 100.03 113.44 C 100.89 113.45 101.60 112.76 101.61 111.90 L 101.62 110.93 C 101.63 110.06 100.94 109.36 100.08 109.35 C 99.22 109.34 98.51 110.03 98.50 110.89 Z M 98.49 111.86 L 98.47 112.87 C 98.46 113.73 99.15 114.44 100.01 114.45 C 100.87 114.47 101.58 113.78 101.59 112.92 L 101.61 111.90 C 101.62 111.04 100.94 110.33 100.07 110.32 C 99.21 110.31 98.50 110.99 98.49 111.86 Z M 98.47 112.86 L 98.45 113.89 C 98.43 114.75 99.12 115.46 99.98 115.48 C 100.84 115.50 101.56 114.81 101.57 113.95 L 101.59 112.92 C 101.61 112.06 100.93 111.35 100.06 111.33 C 99.20 111.31 98.49 112.00 98.47 112.86 Z M 98.45 113.88 L 98.43 114.90 C 98.41 115.76 99.09 116.48 99.95 116.50 C 100.81 116.52 101.53 115.84 101.55 114.98 L 101.57 113.96 C 101.59 113.10 100.91 112.38 100.05 112.36 C 99.19 112.34 98.47 113.02 98.45 113.88 Z M 98.43 114.89 L 98.40 115.88 C 98.37 116.75 99.05 117.47 99.91 117.49 C 100.77 117.52 101.49 116.84 101.52 115.98 L 101.55 114.99 C 101.57 114.13 100.90 113.41 100.04 113.38 C 99.17 113.35 98.45 114.03 98.43 114.89 Z M 98.40 115.87 L 98.36 116.91 C 98.32 117.77 98.99 118.50 99.86 118.53 C 100.72 118.56 101.44 117.89 101.48 117.03 L 101.52 115.99 C 101.55 115.13 100.88 114.41 100.02 114.37 C 99.16 114.34 98.43 115.01 98.40 115.87 Z M 98.36 116.89 L 98.31 117.95 C 98.26 118.81 98.93 119.54 99.79 119.58 C 100.65 119.63 101.38 118.96 101.42 118.10 L 101.48 117.05 C 101.52 116.18 100.85 115.45 99.99 115.41 C 99.13 115.37 98.40 116.03 98.36 116.89 Z M 98.31 117.94 L 98.25 118.93 C 98.20 119.79 98.86 120.53 99.72 120.58 C 100.58 120.62 101.32 119.97 101.37 119.11 L 101.42 118.11 C 101.47 117.25 100.81 116.51 99.95 116.47 C 99.09 116.42 98.36 117.08 98.31 117.94 Z M 98.25 118.92 L 98.19 119.87 C 98.14 120.73 98.79 121.48 99.65 121.53 C 100.51 121.58 101.25 120.93 101.31 120.07 L 101.37 119.11 C 101.42 118.25 100.77 117.51 99.91 117.46 C 99.05 117.41 98.30 118.06 98.25 118.92 Z M 98.19 119.87 L 98.13 120.81 C 98.08 121.67 98.73 122.41 99.59 122.47 C 100.45 122.52 101.19 121.87 101.25 121.01 L 101.31 120.07 C 101.36 119.21 100.71 118.47 99.85 118.41 C 98.99 118.36 98.25 119.01 98.19 119.87 Z M 98.13 120.81 L 98.07 121.80 C 98.02 122.66 98.67 123.40 99.53 123.45 C 100.39 123.51 101.13 122.85 101.19 121.99 L 101.25 121.01 C 101.30 120.15 100.65 119.40 99.79 119.35 C 98.93 119.30 98.19 119.95 98.13 120.81 Z M 98.07 121.80 L 98.01 122.79 C 97.95 123.65 98.61 124.40 99.47 124.45 C 100.33 124.50 101.07 123.85 101.12 122.99 L 101.19 121.99 C 101.24 121.13 100.59 120.39 99.73 120.34 C 98.86 120.28 98.12 120.94 98.07 121.80 Z M 98.01 122.79 L 97.94 123.79 C 97.89 124.65 98.54 125.39 99.40 125.45 C 100.26 125.50 101.00 124.85 101.06 123.99 L 101.12 122.99 C 101.18 122.13 100.53 121.39 99.67 121.33 C 98.81 121.28 98.06 121.93 98.01 122.79 Z M 97.94 123.78 L 97.87 124.79 C 97.81 125.65 98.46 126.39 99.32 126.45 C 100.18 126.51 100.93 125.86 100.99 125.00 L 101.06 124.00 C 101.12 123.14 100.47 122.39 99.61 122.33 C 98.75 122.27 98.00 122.92 97.94 123.78 Z M 97.87 124.78 L 97.80 125.76 C 97.74 126.62 98.38 127.37 99.24 127.44 C 100.10 127.50 100.85 126.86 100.91 126.00 L 100.99 125.01 C 101.05 124.15 100.41 123.40 99.55 123.34 C 98.69 123.27 97.94 123.92 97.87 124.78 Z M 97.80 125.75 L 97.72 126.73 C 97.65 127.59 98.29 128.35 99.15 128.42 C 100.01 128.49 100.76 127.85 100.83 126.99 L 100.91 126.01 C 100.98 125.15 100.34 124.40 99.48 124.33 C 98.62 124.25 97.87 124.89 97.80 125.75 Z M 97.72 126.73 L 97.64 127.72 C 97.56 128.58 98.20 129.33 99.06 129.41 C 99.92 129.48 100.67 128.84 100.75 127.98 L 100.83 126.99 C 100.91 126.14 100.27 125.38 99.41 125.31 C 98.55 125.23 97.80 125.87 97.72 126.73 Z M 97.64 127.71 L 97.55 128.72 C 97.47 129.58 98.11 130.33 98.97 130.41 C 99.83 130.49 100.58 129.85 100.66 128.99 L 100.75 127.99 C 100.82 127.13 100.19 126.37 99.33 126.29 C 98.47 126.22 97.71 126.85 97.64 127.71 Z M 97.55 128.72 L 97.46 129.74 C 97.38 130.60 98.02 131.35 98.88 131.43 C 99.74 131.50 100.50 130.87 100.57 130.01 L 100.66 128.99 C 100.73 128.13 100.10 127.37 99.24 127.30 C 98.38 127.22 97.62 127.86 97.55 128.72 Z M 97.46 129.74 L 97.38 130.71 C 97.30 131.57 97.94 132.32 98.80 132.40 C 99.66 132.47 100.41 131.83 100.49 130.97 L 100.57 130.01 C 100.64 129.15 100.01 128.39 99.15 128.32 C 98.29 128.24 97.53 128.88 97.46 129.74 Z M 97.38 130.71 L 97.29 131.69 C 97.22 132.55 97.86 133.31 98.72 133.38 C 99.58 133.46 100.33 132.82 100.40 131.96 L 100.49 130.97 C 100.56 130.11 99.92 129.36 99.06 129.28 C 98.21 129.21 97.45 129.85 97.38 130.71 Z M 97.29 131.69 L 97.21 132.70 C 97.13 133.55 97.77 134.31 98.63 134.38 C 99.49 134.46 100.24 133.82 100.32 132.96 L 100.40 131.96 C 100.48 131.10 99.84 130.34 98.98 130.27 C 98.12 130.20 97.37 130.83 97.29 131.69 Z M 97.21 132.69 L 97.12 133.71 C 97.04 134.57 97.68 135.32 98.54 135.40 C 99.40 135.47 100.15 134.84 100.23 133.98 L 100.32 132.96 C 100.39 132.11 99.76 131.35 98.90 131.27 C 98.04 131.20 97.28 131.83 97.21 132.69 Z M 97.12 133.70 L 97.03 134.70 C 96.95 135.56 97.58 136.32 98.44 136.40 C 99.30 136.47 100.06 135.84 100.14 134.98 L 100.23 133.98 C 100.31 133.13 99.67 132.37 98.81 132.29 C 97.96 132.21 97.20 132.84 97.12 133.70 Z M 97.03 134.70 L 96.94 135.63 C 96.86 136.49 97.49 137.25 98.35 137.33 C 99.21 137.41 99.97 136.78 100.05 135.92 L 100.14 134.99 C 100.22 134.13 99.59 133.37 98.73 133.29 C 97.87 133.21 97.11 133.84 97.03 134.70 Z M 96.94 135.63 L 96.85 136.58 C 96.78 137.44 97.41 138.20 98.27 138.28 C 99.12 138.36 99.88 137.73 99.96 136.87 L 100.05 135.92 C 100.13 135.06 99.50 134.30 98.64 134.22 C 97.78 134.14 97.02 134.77 96.94 135.63 Z M 96.85 136.59 L 96.77 137.57 C 96.69 138.43 97.33 139.19 98.18 139.26 C 99.04 139.34 99.80 138.70 99.88 137.84 L 99.96 136.86 C 100.04 136.00 99.41 135.24 98.55 135.17 C 97.69 135.09 96.93 135.73 96.85 136.59 Z M 96.77 137.58 L 96.68 138.61 C 96.61 139.47 97.25 140.22 98.11 140.29 C 98.97 140.36 99.72 139.72 99.79 138.86 L 99.88 137.83 C 99.95 136.97 99.31 136.22 98.45 136.15 C 97.59 136.08 96.84 136.72 96.77 137.58 Z M 96.68 138.62 L 96.60 139.71 C 96.54 140.57 97.19 141.32 98.05 141.38 C 98.91 141.44 99.65 140.80 99.72 139.94 L 99.80 138.85 C 99.86 137.99 99.21 137.24 98.35 137.18 C 97.49 137.12 96.74 137.76 96.68 138.62 Z M 96.60 139.72 L 96.54 140.73 C 96.48 141.59 97.14 142.33 98.00 142.39 C 98.86 142.44 99.60 141.79 99.65 140.92 L 99.72 139.92 C 99.77 139.06 99.12 138.32 98.26 138.26 C 97.40 138.21 96.66 138.86 96.60 139.72 Z M 96.54 140.74 L 96.48 141.76 C 96.43 142.62 97.09 143.36 97.95 143.40 C 98.82 143.45 99.55 142.79 99.60 141.93 L 99.66 140.91 C 99.70 140.05 99.04 139.32 98.18 139.27 C 97.32 139.22 96.58 139.88 96.54 140.74 Z M 96.48 141.77 L 96.43 142.80 C 96.39 143.66 97.05 144.39 97.92 144.44 C 98.78 144.48 99.51 143.81 99.55 142.95 L 99.60 141.92 C 99.64 141.06 98.98 140.33 98.12 140.28 C 97.25 140.24 96.52 140.91 96.48 141.77 Z M 96.43 142.81 L 96.39 143.84 C 96.35 144.70 97.02 145.43 97.88 145.46 C 98.74 145.50 99.47 144.83 99.51 143.97 L 99.55 142.94 C 99.59 142.08 98.92 141.35 98.06 141.32 C 97.20 141.28 96.47 141.95 96.43 142.81 Z M 96.39 143.85 L 96.35 144.85 C 96.32 145.71 96.99 146.44 97.85 146.47 C 98.71 146.50 99.44 145.83 99.47 144.97 L 99.51 143.96 C 99.54 143.10 98.87 142.38 98.00 142.34 C 97.14 142.31 96.42 142.99 96.39 143.85 Z M 96.35 144.86 L 96.32 145.82 C 96.29 146.68 96.97 147.40 97.83 147.43 C 98.69 147.46 99.41 146.78 99.44 145.92 L 99.47 144.96 C 99.50 144.10 98.82 143.38 97.96 143.35 C 97.10 143.32 96.38 144.00 96.35 144.86 Z M 96.32 145.83 L 96.29 146.91 C 96.27 147.77 96.95 148.48 97.82 148.51 C 98.68 148.53 99.39 147.85 99.41 146.98 L 99.44 145.91 C 99.46 145.05 98.78 144.33 97.92 144.31 C 97.06 144.29 96.34 144.97 96.32 145.83 Z M 96.29 146.92 L 96.27 148.03 C 96.26 148.89 96.95 149.60 97.81 149.61 C 98.67 149.63 99.38 148.94 99.40 148.08 L 99.41 146.97 C 99.43 146.11 98.74 145.40 97.88 145.38 C 97.02 145.37 96.31 146.06 96.29 146.92 Z M 96.27 148.04 L 96.26 149.04 C 96.26 149.90 96.95 150.61 97.81 150.62 C 98.67 150.63 99.38 149.93 99.39 149.07 L 99.40 148.07 C 99.40 147.21 98.71 146.50 97.85 146.49 C 96.99 146.48 96.28 147.17 96.27 148.04 Z M 96.26 149.05 L 96.26 149.97 C 96.26 150.83 96.95 151.54 97.82 151.54 C 98.68 151.54 99.38 150.85 99.38 149.98 L 99.39 149.06 C 99.39 148.20 98.69 147.50 97.83 147.50 C 96.97 147.49 96.27 148.19 96.26 149.05 Z M 96.26 149.98 L 96.26 150.84 C 96.26 151.70 96.96 152.40 97.82 152.40 C 98.68 152.40 99.38 151.70 99.38 150.84 L 99.38 149.98 C 99.38 149.12 98.68 148.42 97.82 148.42 C 96.96 148.42 96.26 149.12 96.26 149.98 Z M 96.26 150.84 L 96.26 151.89 C 96.26 152.75 96.96 153.45 97.82 153.45 C 98.68 153.45 99.38 152.75 99.38 151.89 L 99.38 150.84 C 99.38 149.98 98.68 149.28 97.82 149.28 C 96.96 149.28 96.26 149.98 96.26 150.84 Z M 96.26 151.89 L 96.26 152.90 C 96.26 153.76 96.96 154.46 97.82 154.46 C 98.68 154.46 99.38 153.76 99.38 152.90 L 99.38 151.89 C 99.38 151.03 98.68 150.33 97.82 150.33 C 96.96 150.33 96.26 151.03 96.26 151.89 Z M 96.26 152.90 L 96.26 153.87 C 96.26 154.73 96.96 155.43 97.82 155.43 C 98.68 155.43 99.38 154.73 99.38 153.87 L 99.38 152.90 C 99.38 152.04 98.68 151.34 97.82 151.34 C 96.96 151.34 96.26 152.04 96.26 152.90 Z M 96.26 153.87 L 96.26 154.82 C 96.26 155.68 96.96 156.38 97.82 156.38 C 98.68 156.38 99.38 155.68 99.38 154.82 L 99.38 153.86 C 99.38 153.00 98.68 152.30 97.82 152.30 C 96.96 152.30 96.26 153.00 96.26 153.87 Z M 96.26 154.83 L 96.27 155.80 C 96.27 156.66 96.98 157.36 97.84 157.35 C 98.70 157.34 99.39 156.64 99.39 155.78 L 99.38 154.81 C 99.38 153.95 98.67 153.25 97.81 153.26 C 96.95 153.26 96.25 153.97 96.26 154.83 Z M 96.27 155.83 L 96.29 156.82 C 96.32 157.69 97.03 158.37 97.90 158.34 C 98.76 158.32 99.44 157.60 99.41 156.74 L 99.39 155.75 C 99.37 154.88 98.65 154.20 97.79 154.23 C 96.92 154.25 96.24 154.97 96.27 155.83 Z M 96.30 156.87 L 96.36 157.92 C 96.40 158.78 97.14 159.44 98.00 159.39 C 98.86 159.34 99.52 158.60 99.47 157.74 L 99.41 156.69 C 99.36 155.83 98.63 155.17 97.76 155.22 C 96.90 155.27 96.25 156.01 96.30 156.87 Z M 96.36 157.97 L 96.44 158.89 C 96.52 159.75 97.27 160.39 98.13 160.31 C 98.99 160.24 99.63 159.48 99.55 158.62 L 99.47 157.69 C 99.39 156.83 98.64 156.20 97.78 156.27 C 96.92 156.35 96.28 157.11 96.36 157.97 Z M 96.44 158.93 L 96.55 159.91 C 96.65 160.76 97.42 161.38 98.27 161.29 C 99.13 161.19 99.75 160.42 99.66 159.56 L 99.55 158.58 C 99.45 157.73 98.68 157.11 97.82 157.20 C 96.97 157.30 96.35 158.07 96.44 158.93 Z M 96.55 159.93 L 96.68 160.95 C 96.79 161.80 97.57 162.41 98.42 162.30 C 99.28 162.19 99.89 161.41 99.78 160.56 L 99.65 159.54 C 99.55 158.68 98.77 158.08 97.91 158.18 C 97.05 158.29 96.45 159.07 96.55 159.93 Z M 96.68 160.96 L 96.82 162.01 C 96.94 162.86 97.72 163.46 98.58 163.34 C 99.43 163.23 100.03 162.44 99.92 161.59 L 99.78 160.54 C 99.66 159.69 98.88 159.09 98.02 159.20 C 97.17 159.32 96.57 160.10 96.68 160.96 Z M 96.83 162.01 L 96.97 163.04 C 97.09 163.90 97.88 164.49 98.73 164.38 C 99.58 164.26 100.18 163.47 100.06 162.61 L 99.92 161.58 C 99.80 160.73 99.01 160.13 98.16 160.25 C 97.30 160.37 96.71 161.16 96.83 162.01 Z M 96.97 163.05 L 97.11 164.07 C 97.23 164.92 98.02 165.52 98.87 165.40 C 99.73 165.28 100.32 164.49 100.20 163.64 L 100.06 162.61 C 99.94 161.76 99.15 161.16 98.30 161.28 C 97.45 161.40 96.85 162.19 96.97 163.05 Z M 97.11 164.07 L 97.25 165.06 C 97.36 165.92 98.15 166.51 99.01 166.40 C 99.86 166.28 100.46 165.49 100.34 164.64 L 100.20 163.64 C 100.09 162.79 99.30 162.19 98.45 162.31 C 97.59 162.42 96.99 163.21 97.11 164.07 Z M 97.25 165.05 L 97.37 166.00 C 97.48 166.86 98.26 167.46 99.12 167.35 C 99.97 167.24 100.58 166.45 100.47 165.60 L 100.34 164.65 C 100.23 163.79 99.45 163.19 98.59 163.30 C 97.74 163.41 97.13 164.20 97.25 165.05 Z M 97.37 165.98 L 97.49 167.00 C 97.59 167.86 98.36 168.47 99.22 168.37 C 100.08 168.27 100.69 167.50 100.59 166.64 L 100.47 165.62 C 100.37 164.76 99.59 164.15 98.74 164.25 C 97.88 164.35 97.27 165.12 97.37 165.98 Z M 97.48 166.98 L 97.59 167.99 C 97.67 168.85 98.44 169.47 99.30 169.38 C 100.16 169.30 100.78 168.53 100.69 167.67 L 100.59 166.66 C 100.50 165.81 99.74 165.18 98.88 165.27 C 98.02 165.36 97.40 166.12 97.48 166.98 Z M 97.59 167.97 L 97.67 168.93 C 97.75 169.79 98.51 170.42 99.37 170.34 C 100.23 170.26 100.86 169.51 100.78 168.65 L 100.70 167.69 C 100.62 166.83 99.86 166.20 99.00 166.28 C 98.14 166.35 97.51 167.11 97.59 167.97 Z M 97.67 168.92 L 97.75 169.88 C 97.83 170.74 98.58 171.37 99.44 171.30 C 100.30 171.23 100.94 170.47 100.86 169.61 L 100.78 168.65 C 100.71 167.79 99.95 167.16 99.09 167.23 C 98.23 167.31 97.60 168.06 97.67 168.92 Z M 97.75 169.88 L 97.84 170.87 C 97.91 171.73 98.67 172.37 99.53 172.30 C 100.39 172.22 101.02 171.47 100.95 170.61 L 100.86 169.61 C 100.79 168.75 100.04 168.12 99.18 168.19 C 98.32 168.26 97.68 169.02 97.75 169.88 Z M 97.84 170.87 L 97.92 171.87 C 97.99 172.73 98.74 173.37 99.60 173.30 C 100.46 173.23 101.10 172.48 101.03 171.62 L 100.95 170.62 C 100.88 169.76 100.13 169.12 99.27 169.19 C 98.41 169.25 97.77 170.01 97.84 170.87 Z M 97.92 171.85 L 97.99 172.85 C 98.05 173.71 98.79 174.35 99.65 174.29 C 100.51 174.24 101.16 173.49 101.10 172.63 L 101.03 171.64 C 100.97 170.78 100.23 170.13 99.37 170.19 C 98.51 170.25 97.86 170.99 97.92 171.85 Z M 97.98 172.82 L 98.04 173.81 C 98.09 174.67 98.82 175.33 99.68 175.28 C 100.54 175.23 101.20 174.50 101.16 173.64 L 101.10 172.65 C 101.05 171.79 100.32 171.13 99.46 171.18 C 98.60 171.23 97.94 171.96 97.98 172.82 Z M 98.04 173.79 L 98.08 174.78 C 98.12 175.64 98.85 176.31 99.71 176.27 C 100.57 176.23 101.24 175.50 101.20 174.64 L 101.16 173.65 C 101.12 172.79 100.39 172.12 99.53 172.16 C 98.67 172.20 98.00 172.93 98.04 173.79 Z M 98.08 174.77 L 98.12 175.79 C 98.15 176.65 98.88 177.32 99.74 177.29 C 100.60 177.25 101.27 176.53 101.24 175.67 L 101.20 174.65 C 101.17 173.79 100.44 173.12 99.58 173.15 C 98.72 173.18 98.05 173.91 98.08 174.77 Z M 98.12 175.79 L 98.16 176.75 C 98.19 177.62 98.92 178.29 99.78 178.25 C 100.64 178.22 101.31 177.49 101.28 176.63 L 101.24 175.67 C 101.21 174.80 100.48 174.13 99.62 174.17 C 98.76 174.20 98.09 174.93 98.12 175.79 Z M 98.16 176.77 L 98.21 177.76 C 98.25 178.62 98.98 179.28 99.84 179.24 C 100.70 179.20 101.37 178.47 101.33 177.60 L 101.28 176.62 C 101.23 175.76 100.50 175.09 99.64 175.13 C 98.78 175.18 98.12 175.91 98.16 176.77 Z M 98.21 177.79 L 98.28 178.81 C 98.34 179.67 99.08 180.32 99.94 180.26 C 100.80 180.20 101.45 179.45 101.39 178.59 L 101.32 177.57 C 101.26 176.71 100.52 176.06 99.66 176.12 C 98.80 176.18 98.15 176.93 98.21 177.79 Z M 98.28 178.85 L 98.38 179.88 C 98.47 180.74 99.23 181.37 100.09 181.28 C 100.95 181.20 101.57 180.44 101.49 179.58 L 101.39 178.55 C 101.31 177.69 100.54 177.06 99.68 177.15 C 98.83 177.23 98.20 177.99 98.28 178.85 Z M 98.39 179.93 L 98.52 180.94 C 98.62 181.80 99.41 182.40 100.26 182.29 C 101.12 182.19 101.72 181.40 101.61 180.55 L 101.48 179.53 C 101.38 178.68 100.60 178.07 99.74 178.18 C 98.88 178.29 98.28 179.07 98.39 179.93 Z M 98.52 180.96 L 98.66 181.97 C 98.78 182.82 99.57 183.41 100.42 183.29 C 101.28 183.17 101.87 182.39 101.75 181.53 L 101.61 180.53 C 101.49 179.67 100.70 179.08 99.85 179.20 C 98.99 179.32 98.40 180.11 98.52 180.96 Z M 98.66 181.96 L 98.79 182.93 C 98.91 183.79 99.70 184.39 100.55 184.27 C 101.41 184.15 102.00 183.36 101.89 182.51 L 101.75 181.54 C 101.64 180.68 100.85 180.08 99.99 180.20 C 99.14 180.32 98.54 181.11 98.66 181.96 Z M 98.79 182.90 L 98.90 183.90 C 99.00 184.75 99.77 185.37 100.63 185.27 C 101.49 185.17 102.10 184.40 102.00 183.54 L 101.89 182.55 C 101.79 181.69 101.02 181.07 100.16 181.17 C 99.31 181.27 98.69 182.04 98.79 182.90 Z M 98.90 183.84 L 98.97 184.85 C 99.04 185.71 99.79 186.35 100.65 186.28 C 101.51 186.21 102.15 185.46 102.09 184.60 L 102.01 183.60 C 101.94 182.74 101.19 182.10 100.33 182.16 C 99.47 182.23 98.83 182.98 98.90 183.84 Z M 98.97 184.79 L 99.01 185.77 C 99.04 186.63 99.77 187.30 100.63 187.26 C 101.49 187.23 102.16 186.50 102.13 185.64 L 102.09 184.66 C 102.06 183.80 101.33 183.13 100.47 183.17 C 99.61 183.20 98.94 183.93 98.97 184.79 Z M 99.01 185.71 L 99.01 186.79 C 99.02 187.65 99.72 188.35 100.58 188.34 C 101.45 188.34 102.14 187.64 102.14 186.77 L 102.13 185.70 C 102.13 184.83 101.42 184.14 100.56 184.14 C 99.70 184.15 99.01 184.85 99.01 185.71 Z M 99.02 186.69 L 98.95 187.90 C 98.90 188.76 99.55 189.50 100.41 189.55 C 101.27 189.60 102.01 188.95 102.06 188.08 L 102.13 186.87 C 102.18 186.01 101.53 185.27 100.67 185.22 C 99.81 185.17 99.07 185.83 99.02 186.69 Z M 99.04 187.46 L 98.80 188.11 C 98.51 188.92 98.93 189.82 99.74 190.11 C 100.55 190.40 101.45 189.98 101.74 189.17 L 101.97 188.52 C 102.27 187.71 101.85 186.82 101.03 186.53 C 100.22 186.23 99.33 186.65 99.04 187.46 Z M 101.12 187.34 L 100.66 187.03 C 99.93 186.56 98.97 186.76 98.50 187.48 C 98.02 188.21 98.23 189.17 98.95 189.65 L 99.42 189.95 C 100.14 190.42 101.11 190.22 101.58 189.50 C 102.05 188.77 101.85 187.81 101.12 187.34 Z M 101.20 187.65 L 100.69 186.60 C 100.31 185.83 99.37 185.51 98.60 185.89 C 97.83 186.27 97.51 187.21 97.89 187.98 L 98.40 189.03 C 98.78 189.80 99.72 190.12 100.49 189.74 C 101.27 189.36 101.58 188.42 101.20 187.65 Z M 100.80 186.90 L 100.53 185.84 C 100.31 185.01 99.46 184.51 98.62 184.72 C 97.79 184.94 97.29 185.79 97.50 186.62 L 97.78 187.68 C 97.99 188.52 98.85 189.02 99.68 188.80 C 100.52 188.59 101.02 187.74 100.80 186.90 Z M 100.57 186.06 L 100.46 185.10 C 100.37 184.24 99.60 183.62 98.74 183.71 C 97.88 183.81 97.26 184.58 97.36 185.44 L 97.46 186.40 C 97.56 187.26 98.33 187.88 99.19 187.78 C 100.04 187.69 100.66 186.92 100.57 186.06 Z M 100.47 185.22 L 100.44 184.20 C 100.41 183.34 99.69 182.66 98.83 182.69 C 97.97 182.71 97.29 183.43 97.32 184.30 L 97.35 185.31 C 97.38 186.18 98.09 186.85 98.96 186.83 C 99.82 186.80 100.50 186.08 100.47 185.22 Z M 100.44 184.25 L 100.44 183.22 C 100.44 182.36 99.74 181.66 98.87 181.66 C 98.01 181.66 97.31 182.36 97.32 183.22 L 97.32 184.25 C 97.32 185.11 98.02 185.81 98.88 185.81 C 99.74 185.81 100.44 185.11 100.44 184.25 Z M 100.44 183.22 L 100.44 182.22 C 100.44 181.36 99.74 180.66 98.88 180.66 C 98.02 180.66 97.32 181.36 97.32 182.22 L 97.32 183.22 C 97.32 184.08 98.02 184.78 98.88 184.78 C 99.74 184.78 100.44 184.08 100.44 183.22 Z M 100.44 182.22 L 100.44 181.21 C 100.44 180.35 99.74 179.65 98.88 179.65 C 98.02 179.65 97.32 180.35 97.32 181.21 L 97.32 182.22 C 97.32 183.09 98.02 183.79 98.88 183.79 C 99.74 183.79 100.44 183.09 100.44 182.22 Z M 100.44 181.21 L 100.44 180.21 C 100.44 179.35 99.74 178.65 98.88 178.65 C 98.02 178.65 97.32 179.35 97.32 180.21 L 97.32 181.21 C 97.32 182.07 98.02 182.77 98.88 182.77 C 99.74 182.77 100.44 182.07 100.44 181.21 Z M 100.44 180.21 L 100.44 179.19 C 100.44 178.33 99.74 177.63 98.88 177.63 C 98.02 177.63 97.32 178.33 97.32 179.19 L 97.32 180.21 C 97.32 181.07 98.02 181.77 98.88 181.77 C 99.74 181.77 100.44 181.07 100.44 180.21 Z M 100.44 179.19 L 100.44 178.19 C 100.44 177.32 99.74 176.62 98.88 176.62 C 98.02 176.62 97.32 177.32 97.32 178.19 L 97.32 179.19 C 97.32 180.05 98.02 180.75 98.88 180.75 C 99.74 180.75 100.44 180.05 100.44 179.19 Z M 100.44 178.19 L 100.44 177.20 C 100.44 176.34 99.74 175.64 98.88 175.64 C 98.02 175.64 97.32 176.34 97.32 177.20 L 97.32 178.19 C 97.32 179.05 98.02 179.75 98.88 179.75 C 99.74 179.75 100.44 179.05 100.44 178.19 Z M 100.44 177.20 L 100.44 176.22 C 100.44 175.35 99.74 174.66 98.88 174.66 C 98.02 174.66 97.32 175.35 97.32 176.22 L 97.32 177.20 C 97.32 178.06 98.02 178.76 98.88 178.76 C 99.74 178.76 100.44 178.06 100.44 177.20 Z M 100.44 176.22 L 100.44 175.23 C 100.44 174.37 99.74 173.67 98.88 173.67 C 98.02 173.67 97.32 174.37 97.32 175.23 L 97.32 176.22 C 97.32 177.08 98.02 177.78 98.88 177.78 C 99.74 177.78 100.44 177.08 100.44 176.22 Z M 100.44 175.23 L 100.44 174.23 C 100.44 173.36 99.74 172.67 98.88 172.67 C 98.02 172.67 97.32 173.36 97.32 174.23 L 97.32 175.23 C 97.32 176.09 98.02 176.79 98.88 176.79 C 99.74 176.79 100.44 176.09 100.44 175.23 Z M 100.44 174.23 L 100.44 173.21 C 100.44 172.35 99.74 171.65 98.88 171.65 C 98.02 171.65 97.32 172.35 97.32 173.21 L 97.32 174.23 C 97.32 175.09 98.02 175.79 98.88 175.79 C 99.74 175.79 100.44 175.09 100.44 174.23 Z M 100.44 173.21 L 100.44 172.22 C 100.44 171.36 99.74 170.66 98.88 170.66 C 98.02 170.66 97.32 171.36 97.32 172.22 L 97.32 173.21 C 97.32 174.07 98.01 174.77 98.88 174.77 C 99.74 174.77 100.44 174.08 100.44 173.21 Z M 100.44 172.22 L 100.44 171.22 C 100.45 170.36 99.75 169.66 98.89 169.66 C 98.02 169.65 97.32 170.35 97.32 171.21 L 97.32 172.21 C 97.31 173.08 98.01 173.78 98.87 173.78 C 99.73 173.78 100.44 173.09 100.44 172.22 Z M 100.44 171.23 L 100.45 170.23 C 100.46 169.37 99.77 168.66 98.91 168.65 C 98.04 168.65 97.34 169.34 97.33 170.20 L 97.32 171.20 C 97.31 172.07 98.00 172.77 98.87 172.78 C 99.73 172.79 100.43 172.10 100.44 171.23 Z M 100.45 170.24 L 100.47 169.26 C 100.49 168.40 99.80 167.68 98.94 167.67 C 98.08 167.65 97.36 168.34 97.35 169.20 L 97.33 170.19 C 97.31 171.05 98.00 171.76 98.86 171.78 C 99.72 171.79 100.44 171.11 100.45 170.24 Z M 100.47 169.28 L 100.50 168.33 C 100.53 167.47 99.85 166.74 98.99 166.72 C 98.13 166.69 97.41 167.36 97.38 168.22 L 97.35 169.18 C 97.32 170.04 98.00 170.76 98.86 170.79 C 99.72 170.82 100.44 170.14 100.47 169.28 Z M 100.50 168.36 L 100.55 167.38 C 100.60 166.52 99.94 165.78 99.08 165.73 C 98.22 165.69 97.48 166.35 97.44 167.21 L 97.38 168.19 C 97.33 169.05 97.99 169.79 98.85 169.83 C 99.72 169.88 100.45 169.22 100.50 168.36 Z M 100.55 167.42 L 100.64 166.39 C 100.71 165.53 100.07 164.77 99.21 164.70 C 98.35 164.63 97.60 165.27 97.53 166.13 L 97.44 167.16 C 97.37 168.02 98.01 168.78 98.86 168.85 C 99.72 168.92 100.48 168.28 100.55 167.42 Z M 100.63 166.43 L 100.75 165.42 C 100.85 164.56 100.23 163.78 99.37 163.69 C 98.52 163.59 97.74 164.20 97.65 165.06 L 97.53 166.08 C 97.43 166.94 98.05 167.71 98.90 167.81 C 99.76 167.91 100.53 167.29 100.63 166.43 Z M 100.74 165.45 L 100.88 164.46 C 101.00 163.60 100.41 162.81 99.55 162.69 C 98.70 162.57 97.91 163.17 97.79 164.02 L 97.65 165.02 C 97.53 165.88 98.13 166.67 98.98 166.78 C 99.84 166.90 100.62 166.31 100.74 165.45 Z M 100.88 164.49 L 101.04 163.47 C 101.17 162.62 100.59 161.82 99.74 161.69 C 98.89 161.55 98.09 162.13 97.96 162.98 L 97.79 163.99 C 97.66 164.85 98.24 165.65 99.09 165.78 C 99.94 165.92 100.74 165.34 100.88 164.49 Z M 101.03 163.50 L 101.21 162.51 C 101.36 161.66 100.79 160.85 99.94 160.70 C 99.09 160.55 98.28 161.11 98.14 161.96 L 97.96 162.96 C 97.81 163.81 98.38 164.62 99.23 164.77 C 100.08 164.92 100.89 164.35 101.03 163.50 Z M 101.21 162.53 L 101.39 161.56 C 101.56 160.71 101.00 159.89 100.16 159.73 C 99.31 159.57 98.49 160.12 98.33 160.97 L 98.14 161.94 C 97.98 162.79 98.53 163.60 99.38 163.77 C 100.22 163.93 101.04 163.38 101.21 162.53 Z M 101.39 161.58 L 101.60 160.56 C 101.78 159.71 101.24 158.89 100.40 158.71 C 99.55 158.53 98.72 159.07 98.55 159.92 L 98.33 160.94 C 98.15 161.79 98.70 162.61 99.54 162.79 C 100.38 162.97 101.21 162.43 101.39 161.58 Z M 101.60 160.58 L 101.81 159.61 C 102.00 158.77 101.47 157.94 100.63 157.75 C 99.79 157.56 98.95 158.09 98.77 158.93 L 98.55 159.90 C 98.36 160.74 98.89 161.57 99.73 161.76 C 100.58 161.95 101.41 161.42 101.60 160.58 Z M 101.81 159.62 L 102.03 158.68 C 102.22 157.84 101.69 157.00 100.85 156.81 C 100.01 156.62 99.18 157.15 98.98 157.99 L 98.77 158.93 C 98.58 159.77 99.10 160.60 99.94 160.80 C 100.78 160.99 101.62 160.46 101.81 159.62 Z M 102.03 158.68 L 102.24 157.73 C 102.43 156.89 101.90 156.05 101.06 155.86 C 100.22 155.68 99.38 156.20 99.20 157.04 L 98.98 157.99 C 98.79 158.83 99.32 159.67 100.16 159.86 C 101.00 160.05 101.84 159.52 102.03 158.68 Z M 102.24 157.72 L 102.45 156.76 C 102.64 155.92 102.11 155.08 101.26 154.90 C 100.42 154.71 99.59 155.25 99.40 156.09 L 99.19 157.05 C 99.01 157.90 99.54 158.73 100.38 158.91 C 101.23 159.10 102.06 158.56 102.24 157.72 Z M 102.45 156.76 L 102.67 155.77 C 102.85 154.93 102.32 154.10 101.48 153.92 C 100.63 153.73 99.80 154.27 99.62 155.11 L 99.40 156.09 C 99.22 156.93 99.75 157.77 100.60 157.95 C 101.44 158.13 102.27 157.60 102.45 156.76 Z M 102.67 155.78 L 102.89 154.79 C 103.07 153.94 102.54 153.11 101.70 152.93 C 100.86 152.74 100.03 153.27 99.84 154.11 L 99.62 155.10 C 99.43 155.95 99.97 156.78 100.81 156.97 C 101.65 157.15 102.48 156.62 102.67 155.78 Z M 102.89 154.80 L 103.08 153.93 C 103.27 153.09 102.75 152.26 101.91 152.06 C 101.07 151.87 100.23 152.40 100.04 153.24 L 99.84 154.10 C 99.65 154.94 100.18 155.78 101.02 155.97 C 101.86 156.16 102.69 155.64 102.89 154.80 Z M 103.08 153.94 L 103.27 153.13 C 103.47 152.29 102.95 151.45 102.11 151.25 C 101.27 151.05 100.43 151.57 100.23 152.41 L 100.04 153.23 C 99.84 154.07 100.36 154.91 101.20 155.11 C 102.04 155.30 102.88 154.78 103.08 153.94 Z M 103.27 153.13 L 103.49 152.24 C 103.69 151.40 103.17 150.56 102.33 150.36 C 101.49 150.15 100.65 150.67 100.45 151.51 L 100.23 152.41 C 100.03 153.24 100.55 154.09 101.39 154.29 C 102.23 154.49 103.07 153.97 103.27 153.13 Z M 103.48 152.24 L 103.73 151.22 C 103.94 150.38 103.42 149.53 102.58 149.33 C 101.75 149.13 100.90 149.64 100.70 150.48 L 100.45 151.51 C 100.25 152.34 100.76 153.19 101.60 153.39 C 102.44 153.59 103.28 153.08 103.48 152.24 Z M 103.73 151.22 L 104.03 150.01 C 104.23 149.17 103.72 148.33 102.88 148.12 C 102.04 147.92 101.20 148.43 100.99 149.27 L 100.70 150.48 C 100.50 151.32 101.01 152.16 101.85 152.36 C 102.68 152.57 103.53 152.06 103.73 151.22 Z M 104.03 150.01 L 104.27 149.04 C 104.47 148.20 103.96 147.35 103.12 147.15 C 102.28 146.95 101.44 147.46 101.23 148.30 L 100.99 149.27 C 100.79 150.11 101.30 150.95 102.14 151.16 C 102.98 151.36 103.82 150.85 104.03 150.01 Z M 104.27 149.04 L 104.50 148.07 C 104.71 147.23 104.19 146.38 103.36 146.18 C 102.52 145.98 101.67 146.49 101.47 147.33 L 101.23 148.30 C 101.03 149.13 101.54 149.98 102.38 150.18 C 103.22 150.39 104.06 149.88 104.27 149.04 Z M 104.50 148.07 L 104.75 147.05 C 104.96 146.21 104.44 145.37 103.61 145.16 C 102.77 144.96 101.92 145.47 101.72 146.31 L 101.47 147.32 C 101.26 148.16 101.78 149.01 102.61 149.21 C 103.45 149.42 104.30 148.91 104.50 148.07 Z M 104.75 147.05 L 105.01 146.02 C 105.21 145.18 104.70 144.33 103.86 144.13 C 103.03 143.92 102.18 144.43 101.98 145.27 L 101.72 146.31 C 101.51 147.14 102.02 147.99 102.86 148.20 C 103.70 148.40 104.55 147.89 104.75 147.05 Z M 105.01 146.02 L 105.26 144.99 C 105.47 144.16 104.96 143.31 104.12 143.10 C 103.28 142.89 102.44 143.40 102.23 144.24 L 101.98 145.27 C 101.77 146.10 102.28 146.95 103.11 147.16 C 103.95 147.37 104.80 146.86 105.01 146.02 Z M 105.26 145.00 L 105.51 144.01 C 105.72 143.17 105.21 142.32 104.37 142.11 C 103.54 141.90 102.69 142.41 102.48 143.25 L 102.23 144.24 C 102.02 145.07 102.53 145.92 103.37 146.13 C 104.20 146.34 105.05 145.83 105.26 145.00 Z M 105.51 144.01 L 105.74 143.09 C 105.95 142.25 105.45 141.40 104.61 141.19 C 103.78 140.98 102.93 141.49 102.71 142.32 L 102.48 143.24 C 102.27 144.08 102.77 144.93 103.61 145.14 C 104.44 145.35 105.29 144.85 105.51 144.01 Z M 105.74 143.10 L 106.00 142.11 C 106.21 141.27 105.71 140.42 104.88 140.21 C 104.04 139.99 103.19 140.49 102.97 141.32 L 102.72 142.31 C 102.50 143.15 103.00 144.00 103.84 144.22 C 104.67 144.43 105.52 143.93 105.74 143.10 Z M 105.99 142.12 L 106.29 141.02 C 106.52 140.19 106.02 139.33 105.19 139.10 C 104.36 138.88 103.50 139.37 103.28 140.20 L 102.98 141.31 C 102.75 142.14 103.24 143.00 104.08 143.22 C 104.91 143.45 105.77 142.96 105.99 142.12 Z M 106.28 141.04 L 106.55 140.11 C 106.79 139.28 106.31 138.41 105.48 138.18 C 104.65 137.94 103.79 138.42 103.55 139.25 L 103.28 140.18 C 103.05 141.01 103.53 141.87 104.35 142.11 C 105.18 142.35 106.05 141.87 106.28 141.04 Z M 106.54 140.13 L 106.80 139.28 C 107.05 138.46 106.59 137.58 105.76 137.33 C 104.94 137.08 104.07 137.55 103.82 138.37 L 103.56 139.22 C 103.31 140.05 103.77 140.92 104.60 141.17 C 105.42 141.42 106.29 140.96 106.54 140.13 Z M 106.80 139.30 L 107.07 138.44 C 107.33 137.62 106.87 136.74 106.05 136.48 C 105.23 136.22 104.35 136.67 104.09 137.50 L 103.82 138.36 C 103.56 139.18 104.02 140.06 104.84 140.32 C 105.66 140.58 106.54 140.12 106.80 139.30 Z M 107.07 138.45 L 107.35 137.58 C 107.61 136.75 107.16 135.88 106.34 135.61 C 105.52 135.35 104.64 135.80 104.38 136.62 L 104.10 137.49 C 103.83 138.31 104.28 139.19 105.10 139.45 C 105.92 139.72 106.80 139.27 107.07 138.45 Z M 107.35 137.58 L 107.65 136.66 C 107.91 135.84 107.46 134.96 106.64 134.69 C 105.82 134.43 104.94 134.88 104.68 135.70 L 104.38 136.61 C 104.11 137.43 104.56 138.31 105.38 138.58 C 106.20 138.85 107.08 138.40 107.35 137.58 Z M 107.64 136.67 L 107.96 135.70 C 108.23 134.88 107.79 134.00 106.97 133.73 C 106.15 133.46 105.27 133.90 105.00 134.72 L 104.68 135.69 C 104.41 136.51 104.85 137.39 105.67 137.66 C 106.49 137.93 107.37 137.49 107.64 136.67 Z M 107.96 135.71 L 108.29 134.72 C 108.56 133.90 108.12 133.01 107.31 132.74 C 106.49 132.47 105.60 132.91 105.33 133.73 L 105.00 134.72 C 104.73 135.53 105.17 136.42 105.98 136.69 C 106.80 136.96 107.69 136.52 107.96 135.71 Z M 108.29 134.72 L 108.62 133.74 C 108.90 132.93 108.46 132.04 107.65 131.76 C 106.83 131.48 105.95 131.92 105.67 132.74 L 105.33 133.72 C 105.06 134.53 105.49 135.42 106.31 135.70 C 107.12 135.98 108.01 135.54 108.29 134.72 Z M 108.62 133.75 L 108.96 132.78 C 109.24 131.96 108.81 131.07 108.00 130.79 C 107.19 130.50 106.30 130.93 106.01 131.75 L 105.67 132.72 C 105.39 133.54 105.82 134.43 106.63 134.71 C 107.45 135.00 108.34 134.57 108.62 133.75 Z M 108.95 132.79 L 109.30 131.83 C 109.59 131.02 109.17 130.12 108.36 129.83 C 107.55 129.54 106.65 129.96 106.36 130.77 L 106.02 131.73 C 105.72 132.55 106.15 133.44 106.96 133.73 C 107.77 134.02 108.66 133.60 108.95 132.79 Z M 109.29 131.85 L 109.64 130.92 C 109.94 130.11 109.53 129.21 108.72 128.91 C 107.91 128.61 107.02 129.02 106.71 129.83 L 106.37 130.76 C 106.07 131.56 106.48 132.46 107.29 132.76 C 108.09 133.06 108.99 132.65 109.29 131.85 Z M 109.63 130.94 L 109.99 130.03 C 110.30 129.22 109.90 128.32 109.09 128.01 C 108.29 127.69 107.39 128.09 107.07 128.90 L 106.72 129.81 C 106.41 130.61 106.81 131.52 107.61 131.83 C 108.42 132.14 109.32 131.74 109.63 130.94 Z M 109.98 130.05 L 110.35 129.13 C 110.67 128.33 110.28 127.42 109.48 127.10 C 108.68 126.78 107.77 127.16 107.45 127.96 L 107.08 128.88 C 106.76 129.68 107.15 130.59 107.95 130.91 C 108.75 131.23 109.66 130.84 109.98 130.05 Z M 110.34 129.15 L 110.73 128.23 C 111.06 127.43 110.69 126.52 109.89 126.18 C 109.10 125.85 108.18 126.22 107.85 127.02 L 107.46 127.94 C 107.13 128.74 107.50 129.65 108.29 129.99 C 109.09 130.32 110.00 129.95 110.34 129.15 Z M 110.72 128.24 L 111.13 127.30 C 111.47 126.51 111.11 125.59 110.31 125.25 C 109.52 124.91 108.60 125.27 108.26 126.06 L 107.85 127.00 C 107.51 127.79 107.88 128.71 108.67 129.05 C 109.46 129.40 110.38 129.03 110.72 128.24 Z M 111.12 127.32 L 111.54 126.38 C 111.89 125.59 111.53 124.67 110.74 124.32 C 109.96 123.97 109.03 124.32 108.68 125.11 L 108.27 126.05 C 107.92 126.84 108.27 127.76 109.06 128.11 C 109.85 128.46 110.77 128.10 111.12 127.32 Z M 111.53 126.39 L 111.95 125.47 C 112.30 124.69 111.96 123.76 111.17 123.41 C 110.39 123.05 109.46 123.40 109.10 124.18 L 108.69 125.10 C 108.33 125.88 108.68 126.81 109.47 127.17 C 110.25 127.52 111.18 127.17 111.53 126.39 Z M 111.94 125.48 L 112.35 124.60 C 112.71 123.82 112.37 122.89 111.59 122.53 C 110.80 122.17 109.87 122.51 109.51 123.30 L 109.11 124.17 C 108.75 124.96 109.09 125.88 109.87 126.24 C 110.66 126.61 111.58 126.26 111.94 125.48 Z M 112.35 124.61 L 112.78 123.68 C 113.14 122.90 112.81 121.97 112.03 121.61 C 111.25 121.24 110.32 121.58 109.95 122.36 L 109.52 123.29 C 109.15 124.07 109.49 125.00 110.27 125.36 C 111.05 125.73 111.98 125.39 112.35 124.61 Z M 112.77 123.70 L 113.21 122.77 C 113.59 121.99 113.26 121.06 112.48 120.69 C 111.70 120.32 110.77 120.65 110.40 121.43 L 109.96 122.35 C 109.58 123.13 109.91 124.06 110.69 124.43 C 111.47 124.80 112.40 124.47 112.77 123.70 Z M 113.21 122.79 L 113.64 121.91 C 114.02 121.14 113.70 120.20 112.93 119.82 C 112.15 119.44 111.22 119.76 110.84 120.53 L 110.40 121.41 C 110.02 122.18 110.34 123.12 111.12 123.50 C 111.89 123.88 112.83 123.56 113.21 122.79 Z M 113.63 121.93 L 114.06 121.08 C 114.46 120.31 114.15 119.37 113.38 118.98 C 112.61 118.58 111.67 118.89 111.28 119.66 L 110.85 120.51 C 110.45 121.28 110.76 122.22 111.53 122.61 C 112.30 123.01 113.24 122.70 113.63 121.93 Z M 114.05 121.10 L 114.51 120.24 C 114.91 119.48 114.62 118.53 113.86 118.13 C 113.10 117.73 112.15 118.02 111.75 118.78 L 111.29 119.64 C 110.89 120.40 111.18 121.34 111.94 121.75 C 112.70 122.15 113.65 121.86 114.05 121.10 Z M 114.49 120.26 L 114.97 119.40 C 115.39 118.64 115.11 117.69 114.36 117.28 C 113.60 116.86 112.65 117.13 112.24 117.89 L 111.76 118.75 C 111.34 119.51 111.62 120.46 112.37 120.88 C 113.13 121.29 114.08 121.02 114.49 120.26 Z M 114.96 119.42 L 115.46 118.55 C 115.89 117.80 115.63 116.85 114.89 116.42 C 114.14 115.99 113.19 116.24 112.76 116.99 L 112.25 117.86 C 111.82 118.61 112.08 119.56 112.83 120.00 C 113.57 120.43 114.53 120.17 114.96 119.42 Z M 115.44 118.58 L 115.97 117.71 C 116.42 116.97 116.18 116.01 115.44 115.57 C 114.70 115.12 113.74 115.36 113.30 116.09 L 112.77 116.96 C 112.33 117.70 112.56 118.66 113.30 119.11 C 114.04 119.55 115.00 119.32 115.44 118.58 Z M 115.95 117.74 L 116.49 116.90 C 116.96 116.17 116.74 115.20 116.02 114.74 C 115.29 114.28 114.32 114.49 113.86 115.21 L 113.32 116.06 C 112.85 116.79 113.07 117.75 113.79 118.22 C 114.52 118.68 115.48 118.47 115.95 117.74 Z M 116.47 116.93 L 117.03 116.11 C 117.51 115.39 117.32 114.42 116.61 113.94 C 115.90 113.46 114.92 113.64 114.44 114.36 L 113.88 115.18 C 113.40 115.89 113.59 116.86 114.30 117.35 C 115.01 117.83 115.98 117.64 116.47 116.93 Z M 117.00 116.14 L 117.58 115.33 C 118.08 114.63 117.92 113.66 117.22 113.15 C 116.52 112.65 115.55 112.81 115.04 113.51 L 114.46 114.32 C 113.96 115.02 114.12 116.00 114.82 116.50 C 115.53 117.00 116.50 116.84 117.00 116.14 Z M 117.56 115.36 L 118.16 114.57 C 118.68 113.88 118.55 112.90 117.86 112.38 C 117.17 111.86 116.19 112.00 115.67 112.68 L 115.07 113.48 C 114.55 114.17 114.68 115.15 115.37 115.67 C 116.06 116.19 117.04 116.05 117.56 115.36 Z M 118.14 114.59 L 118.76 113.81 C 119.30 113.13 119.18 112.15 118.51 111.62 C 117.83 111.08 116.85 111.19 116.32 111.87 L 115.69 112.65 C 115.16 113.33 115.27 114.31 115.95 114.85 C 116.62 115.38 117.60 115.27 118.14 114.59 Z M 118.74 113.84 L 119.36 113.09 C 119.92 112.42 119.82 111.44 119.16 110.89 C 118.50 110.34 117.51 110.43 116.96 111.09 L 116.34 111.84 C 115.79 112.50 115.88 113.49 116.54 114.04 C 117.20 114.59 118.19 114.50 118.74 113.84 Z M 119.34 113.11 L 119.99 112.37 C 120.56 111.72 120.49 110.73 119.84 110.16 C 119.19 109.60 118.21 109.66 117.64 110.31 L 116.99 111.06 C 116.42 111.71 116.49 112.70 117.14 113.26 C 117.79 113.83 118.77 113.76 119.34 113.11 Z M 119.96 112.40 L 120.65 111.66 C 121.23 111.02 121.19 110.04 120.56 109.45 C 119.92 108.87 118.94 108.91 118.35 109.54 L 117.67 110.28 C 117.08 110.92 117.12 111.90 117.76 112.49 C 118.39 113.07 119.38 113.03 119.96 112.40 Z M 120.62 111.69 L 121.33 110.96 C 121.93 110.34 121.92 109.35 121.31 108.75 C 120.69 108.15 119.70 108.16 119.10 108.78 L 118.38 109.51 C 117.78 110.12 117.79 111.11 118.41 111.71 C 119.03 112.32 120.01 112.31 120.62 111.69 Z M 121.30 110.99 L 122.01 110.31 C 122.63 109.71 122.65 108.72 122.05 108.10 C 121.45 107.48 120.47 107.46 119.85 108.06 L 119.13 108.74 C 118.51 109.34 118.49 110.33 119.09 110.95 C 119.69 111.57 120.68 111.59 121.30 110.99 Z M 121.98 110.34 L 122.71 109.67 C 123.35 109.09 123.40 108.10 122.82 107.47 C 122.24 106.83 121.25 106.78 120.61 107.36 L 119.88 108.03 C 119.24 108.61 119.19 109.59 119.77 110.23 C 120.35 110.87 121.34 110.92 121.98 110.34 Z M 122.68 109.70 L 123.44 109.04 C 124.09 108.48 124.16 107.50 123.60 106.84 C 123.04 106.19 122.05 106.12 121.40 106.68 L 120.64 107.33 C 119.99 107.90 119.92 108.88 120.48 109.54 C 121.04 110.19 122.03 110.26 122.68 109.70 Z M 123.41 109.07 L 124.19 108.43 C 124.86 107.88 124.95 106.90 124.41 106.23 C 123.86 105.56 122.88 105.47 122.21 106.01 L 121.43 106.66 C 120.76 107.20 120.66 108.19 121.21 108.85 C 121.76 109.52 122.74 109.62 123.41 109.07 Z M 124.16 108.45 L 124.95 107.83 C 125.63 107.30 125.75 106.32 125.22 105.64 C 124.68 104.96 123.70 104.84 123.02 105.37 L 122.24 105.99 C 121.56 106.52 121.44 107.51 121.97 108.18 C 122.50 108.86 123.49 108.98 124.16 108.45 Z M 124.93 107.85 L 125.67 107.30 C 126.35 106.78 126.49 105.80 125.98 105.11 C 125.46 104.42 124.48 104.28 123.79 104.80 L 123.05 105.35 C 122.36 105.87 122.22 106.85 122.74 107.54 C 123.26 108.23 124.24 108.37 124.93 107.85 Z M 125.64 107.32 L 126.41 106.76 C 127.11 106.26 127.27 105.29 126.77 104.59 C 126.27 103.89 125.29 103.72 124.59 104.23 L 123.82 104.78 C 123.12 105.28 122.96 106.26 123.46 106.96 C 123.96 107.66 124.94 107.82 125.64 107.32 Z M 126.38 106.79 L 127.19 106.23 C 127.90 105.75 128.09 104.78 127.61 104.06 C 127.12 103.35 126.15 103.17 125.44 103.65 L 124.62 104.20 C 123.91 104.69 123.72 105.66 124.21 106.37 C 124.69 107.09 125.66 107.27 126.38 106.79 Z M 127.16 106.25 L 128.03 105.69 C 128.76 105.23 128.97 104.26 128.50 103.54 C 128.04 102.81 127.07 102.60 126.35 103.07 L 125.47 103.63 C 124.74 104.09 124.53 105.06 125.00 105.78 C 125.47 106.51 126.43 106.72 127.16 106.25 Z M 128.00 105.71 L 128.95 105.14 C 129.68 104.69 129.92 103.73 129.47 102.99 C 129.02 102.26 128.06 102.02 127.33 102.47 L 126.38 103.04 C 125.64 103.49 125.41 104.45 125.85 105.19 C 126.30 105.93 127.26 106.16 128.00 105.71 Z M 128.92 105.15 L 129.77 104.66 C 130.52 104.23 130.78 103.27 130.34 102.53 C 129.91 101.78 128.96 101.53 128.21 101.96 L 127.36 102.45 C 126.61 102.88 126.35 103.84 126.79 104.58 C 127.22 105.33 128.17 105.59 128.92 105.15 Z M 129.75 104.67 L 130.64 104.17 C 131.40 103.75 131.67 102.80 131.25 102.05 C 130.83 101.30 129.88 101.03 129.12 101.45 L 128.23 101.94 C 127.48 102.36 127.21 103.32 127.63 104.07 C 128.05 104.82 129.00 105.09 129.75 104.67 Z M 130.63 104.18 L 131.54 103.69 C 132.30 103.28 132.58 102.33 132.17 101.57 C 131.76 100.82 130.81 100.53 130.05 100.95 L 129.14 101.44 C 128.38 101.85 128.10 102.80 128.51 103.56 C 128.92 104.31 129.87 104.59 130.63 104.18 Z M 131.52 103.70 L 132.43 103.22 C 133.20 102.81 133.49 101.87 133.09 101.11 C 132.68 100.34 131.74 100.05 130.98 100.46 L 130.06 100.94 C 129.30 101.34 129.01 102.29 129.41 103.05 C 129.82 103.81 130.76 104.10 131.52 103.70 Z M 132.42 103.22 L 133.31 102.76 C 134.08 102.37 134.38 101.42 133.98 100.66 C 133.59 99.89 132.64 99.59 131.88 99.99 L 130.99 100.45 C 130.22 100.85 129.92 101.79 130.32 102.55 C 130.72 103.32 131.66 103.62 132.42 103.22 Z M 133.30 102.77 L 134.15 102.34 C 134.92 101.95 135.23 101.01 134.84 100.24 C 134.45 99.47 133.51 99.16 132.74 99.55 L 131.89 99.98 C 131.12 100.37 130.81 101.31 131.20 102.08 C 131.59 102.85 132.53 103.16 133.30 102.77 Z M 134.14 102.34 L 135.09 101.87 C 135.87 101.48 136.18 100.54 135.80 99.77 C 135.41 99.00 134.47 98.69 133.70 99.07 L 132.75 99.55 C 131.98 99.93 131.66 100.87 132.05 101.64 C 132.43 102.41 133.37 102.73 134.14 102.34 Z M 135.08 101.87 L 136.02 101.42 C 136.79 101.04 137.11 100.11 136.74 99.33 C 136.36 98.56 135.43 98.23 134.65 98.61 L 133.72 99.07 C 132.94 99.44 132.62 100.38 132.99 101.15 C 133.37 101.93 134.31 102.25 135.08 101.87 Z M 136.00 101.43 L 136.88 101.01 C 137.66 100.65 137.99 99.72 137.63 98.94 C 137.26 98.16 136.33 97.82 135.55 98.19 L 134.67 98.60 C 133.89 98.97 133.55 99.90 133.92 100.68 C 134.29 101.46 135.22 101.80 136.00 101.43 Z M 136.86 101.02 L 137.72 100.63 C 138.50 100.28 138.85 99.35 138.50 98.57 C 138.14 97.78 137.21 97.43 136.43 97.79 L 135.57 98.18 C 134.78 98.54 134.44 99.46 134.79 100.25 C 135.15 101.03 136.07 101.38 136.86 101.02 Z M 137.70 100.64 L 138.58 100.26 C 139.37 99.91 139.72 98.99 139.38 98.20 C 139.03 97.41 138.11 97.05 137.32 97.40 L 136.45 97.78 C 135.66 98.13 135.30 99.05 135.64 99.84 C 135.99 100.63 136.91 100.99 137.70 100.64 Z M 138.56 100.26 L 139.45 99.88 C 140.25 99.55 140.62 98.63 140.28 97.84 C 139.94 97.04 139.03 96.67 138.23 97.01 L 137.34 97.39 C 136.54 97.73 136.17 98.65 136.51 99.44 C 136.85 100.23 137.77 100.60 138.56 100.26 Z M 139.44 99.89 L 140.37 99.51 C 141.16 99.17 141.54 98.26 141.21 97.46 C 140.88 96.67 139.97 96.29 139.17 96.62 L 138.25 97.00 C 137.45 97.34 137.07 98.25 137.40 99.05 C 137.73 99.84 138.64 100.22 139.44 99.89 Z M 140.36 99.51 L 141.30 99.13 C 142.10 98.80 142.48 97.89 142.16 97.09 C 141.84 96.30 140.93 95.91 140.13 96.23 L 139.18 96.62 C 138.38 96.94 138.00 97.85 138.32 98.65 C 138.65 99.45 139.56 99.83 140.36 99.51 Z M 141.29 99.13 L 142.23 98.76 C 143.03 98.44 143.42 97.53 143.11 96.73 C 142.79 95.93 141.88 95.54 141.08 95.86 L 140.14 96.23 C 139.34 96.55 138.94 97.45 139.26 98.26 C 139.58 99.06 140.49 99.45 141.29 99.13 Z M 142.22 98.76 L 143.14 98.41 C 143.95 98.09 144.35 97.19 144.04 96.39 C 143.73 95.58 142.82 95.18 142.02 95.49 L 141.09 95.85 C 140.29 96.16 139.89 97.07 140.20 97.87 C 140.51 98.68 141.41 99.07 142.22 98.76 Z M 143.13 98.41 L 144.15 98.03 C 144.95 97.73 145.36 96.83 145.06 96.02 C 144.75 95.21 143.85 94.80 143.05 95.11 L 142.03 95.49 C 141.22 95.79 140.82 96.69 141.12 97.50 C 141.42 98.31 142.32 98.71 143.13 98.41 Z M 144.12 98.04 L 145.10 97.69 C 145.91 97.40 146.33 96.50 146.04 95.69 C 145.75 94.88 144.86 94.46 144.05 94.75 L 143.07 95.10 C 142.26 95.39 141.84 96.28 142.13 97.09 C 142.42 97.91 143.31 98.33 144.12 98.04 Z M 145.07 97.70 L 146.00 97.39 C 146.82 97.11 147.26 96.23 146.99 95.41 C 146.71 94.59 145.83 94.15 145.01 94.43 L 144.08 94.74 C 143.26 95.01 142.82 95.90 143.09 96.71 C 143.37 97.53 144.25 97.97 145.07 97.70 Z M 145.96 97.40 L 146.85 97.13 C 147.67 96.88 148.14 96.01 147.89 95.18 C 147.64 94.36 146.77 93.89 145.94 94.14 L 145.05 94.41 C 144.23 94.66 143.76 95.53 144.01 96.36 C 144.26 97.18 145.13 97.65 145.96 97.40 Z M 146.79 97.15 L 147.70 96.91 C 148.53 96.69 149.03 95.84 148.82 95.01 C 148.60 94.17 147.75 93.67 146.91 93.89 L 146.00 94.13 C 145.17 94.34 144.67 95.19 144.89 96.03 C 145.10 96.86 145.95 97.36 146.79 97.15 Z M 147.61 96.93 L 148.54 96.74 C 149.39 96.57 149.93 95.75 149.76 94.90 C 149.59 94.06 148.76 93.51 147.92 93.68 L 146.99 93.87 C 146.15 94.04 145.60 94.87 145.77 95.71 C 145.95 96.56 146.77 97.10 147.61 96.93 Z M 148.45 96.76 L 149.41 96.62 C 150.27 96.50 150.86 95.71 150.74 94.86 C 150.62 94.01 149.83 93.41 148.98 93.53 L 148.01 93.67 C 147.16 93.79 146.56 94.57 146.68 95.43 C 146.80 96.28 147.59 96.88 148.45 96.76 Z M 149.32 96.63 L 150.38 96.55 C 151.24 96.48 151.88 95.72 151.81 94.86 C 151.74 94.00 150.99 93.36 150.13 93.43 L 149.07 93.52 C 148.21 93.59 147.57 94.34 147.64 95.20 C 147.71 96.06 148.46 96.70 149.32 96.63 Z M 150.32 96.55 L 151.32 96.51 C 152.19 96.48 152.86 95.75 152.82 94.89 C 152.79 94.03 152.07 93.36 151.21 93.39 L 150.20 93.43 C 149.34 93.46 148.66 94.19 148.70 95.05 C 148.73 95.91 149.45 96.58 150.32 96.55 Z M 151.28 96.51 L 152.29 96.51 C 153.15 96.50 153.85 95.79 153.84 94.93 C 153.83 94.07 153.13 93.38 152.27 93.38 L 151.25 93.39 C 150.39 93.40 149.70 94.10 149.70 94.96 C 149.71 95.83 150.41 96.52 151.28 96.51 Z M 152.25 96.51 L 153.29 96.52 C 154.15 96.54 154.86 95.86 154.88 94.99 C 154.90 94.13 154.21 93.42 153.35 93.40 L 152.31 93.38 C 151.45 93.37 150.73 94.05 150.72 94.91 C 150.70 95.78 151.39 96.49 152.25 96.51 Z M 153.25 96.52 L 154.27 96.57 C 155.13 96.61 155.87 95.94 155.90 95.08 C 155.94 94.22 155.28 93.49 154.42 93.45 L 153.39 93.40 C 152.53 93.36 151.80 94.03 151.76 94.89 C 151.72 95.75 152.39 96.48 153.25 96.52 Z M 154.22 96.57 L 155.19 96.64 C 156.05 96.71 156.80 96.07 156.87 95.21 C 156.93 94.35 156.29 93.60 155.43 93.53 L 154.47 93.45 C 153.61 93.39 152.86 94.03 152.79 94.89 C 152.72 95.75 153.36 96.50 154.22 96.57 Z M 155.12 96.64 L 156.13 96.76 C 156.99 96.86 157.77 96.25 157.87 95.40 C 157.98 94.54 157.37 93.76 156.51 93.66 L 155.50 93.54 C 154.64 93.43 153.87 94.04 153.76 94.90 C 153.66 95.75 154.27 96.53 155.12 96.64 Z M 156.05 96.75 L 157.01 96.91 C 157.86 97.06 158.66 96.50 158.81 95.65 C 158.96 94.80 158.40 93.99 157.55 93.84 L 156.59 93.67 C 155.74 93.52 154.94 94.09 154.79 94.94 C 154.64 95.79 155.20 96.60 156.05 96.75 Z M 156.94 96.90 L 157.87 97.11 C 158.71 97.29 159.54 96.76 159.73 95.92 C 159.92 95.08 159.38 94.24 158.54 94.06 L 157.61 93.85 C 156.77 93.67 155.94 94.20 155.75 95.04 C 155.57 95.88 156.10 96.72 156.94 96.90 Z M 157.84 97.10 L 158.82 97.34 C 159.66 97.54 160.51 97.03 160.71 96.19 C 160.91 95.35 160.40 94.51 159.56 94.30 L 158.57 94.07 C 157.74 93.86 156.89 94.38 156.69 95.21 C 156.49 96.05 157.00 96.90 157.84 97.10 Z M 158.82 97.34 L 159.76 97.57 C 160.60 97.77 161.45 97.26 161.65 96.42 C 161.85 95.58 161.34 94.74 160.50 94.53 L 159.56 94.31 C 158.72 94.10 157.88 94.61 157.68 95.45 C 157.47 96.29 157.99 97.13 158.82 97.34 Z M 159.77 97.57 L 160.73 97.80 C 161.57 98.00 162.41 97.49 162.61 96.65 C 162.81 95.81 162.30 94.97 161.46 94.76 L 160.50 94.53 C 159.66 94.33 158.82 94.85 158.62 95.69 C 158.41 96.52 158.93 97.37 159.77 97.57 Z M 160.73 97.80 L 161.73 98.04 C 162.57 98.25 163.41 97.73 163.61 96.89 C 163.82 96.06 163.30 95.21 162.46 95.01 L 161.46 94.77 C 160.62 94.56 159.78 95.08 159.58 95.91 C 159.37 96.75 159.89 97.60 160.73 97.80 Z M 161.72 98.04 L 162.73 98.29 C 163.56 98.50 164.41 97.99 164.62 97.15 C 164.82 96.31 164.31 95.47 163.48 95.26 L 162.47 95.01 C 161.63 94.80 160.79 95.31 160.58 96.15 C 160.37 96.99 160.88 97.83 161.72 98.04 Z M 162.71 98.29 L 163.69 98.54 C 164.53 98.75 165.38 98.25 165.59 97.41 C 165.81 96.58 165.30 95.73 164.47 95.51 L 163.49 95.26 C 162.66 95.05 161.80 95.55 161.59 96.39 C 161.38 97.22 161.88 98.07 162.71 98.29 Z M 163.67 98.53 L 164.70 98.81 C 165.53 99.04 166.39 98.55 166.61 97.72 C 166.84 96.88 166.35 96.03 165.52 95.80 L 164.49 95.52 C 163.66 95.29 162.80 95.78 162.57 96.62 C 162.35 97.45 162.84 98.31 163.67 98.53 Z M 164.67 98.80 L 165.66 99.10 C 166.49 99.34 167.36 98.87 167.60 98.04 C 167.85 97.21 167.38 96.35 166.55 96.10 L 165.55 95.81 C 164.72 95.56 163.86 96.04 163.61 96.86 C 163.37 97.69 163.84 98.56 164.67 98.80 Z M 165.63 99.08 L 166.56 99.39 C 167.38 99.65 168.26 99.20 168.52 98.38 C 168.79 97.56 168.34 96.68 167.52 96.42 L 166.59 96.11 C 165.77 95.85 164.89 96.30 164.62 97.12 C 164.36 97.94 164.81 98.82 165.63 99.08 Z M 166.51 99.37 L 167.40 99.69 C 168.22 99.98 169.11 99.55 169.40 98.74 C 169.69 97.93 169.26 97.04 168.45 96.75 L 167.56 96.43 C 166.75 96.14 165.86 96.57 165.57 97.38 C 165.28 98.19 165.70 99.08 166.51 99.37 Z M 167.36 99.67 L 168.25 100.02 C 169.05 100.33 169.95 99.93 170.27 99.13 C 170.58 98.33 170.18 97.42 169.38 97.11 L 168.49 96.76 C 167.69 96.45 166.78 96.85 166.47 97.65 C 166.16 98.45 166.56 99.36 167.36 99.67 Z M 168.20 100.00 L 169.11 100.39 C 169.90 100.72 170.82 100.36 171.15 99.56 C 171.49 98.77 171.12 97.85 170.33 97.51 L 169.43 97.13 C 168.63 96.79 167.72 97.16 167.38 97.95 C 167.04 98.74 167.41 99.66 168.20 100.00 Z M 169.06 100.36 L 169.96 100.79 C 170.74 101.15 171.67 100.82 172.03 100.04 C 172.40 99.26 172.06 98.33 171.28 97.96 L 170.38 97.54 C 169.60 97.17 168.67 97.51 168.31 98.29 C 167.94 99.07 168.27 100.00 169.06 100.36 Z M 169.90 100.76 L 170.80 101.22 C 171.57 101.62 172.51 101.32 172.91 100.55 C 173.30 99.79 173.00 98.85 172.24 98.45 L 171.34 97.99 C 170.57 97.59 169.63 97.89 169.23 98.66 C 168.84 99.42 169.14 100.36 169.90 100.76 Z M 170.75 101.19 L 171.63 101.70 C 172.38 102.12 173.33 101.86 173.76 101.11 C 174.18 100.37 173.92 99.41 173.17 98.98 L 172.29 98.48 C 171.54 98.05 170.59 98.32 170.16 99.06 C 169.74 99.81 170.00 100.77 170.75 101.19 Z M 171.57 101.66 L 172.42 102.19 C 173.15 102.65 174.12 102.43 174.57 101.70 C 175.03 100.96 174.81 100.00 174.07 99.55 L 173.23 99.02 C 172.50 98.56 171.53 98.78 171.08 99.51 C 170.62 100.24 170.84 101.21 171.57 101.66 Z M 172.38 102.16 L 173.21 102.73 C 173.93 103.21 174.90 103.02 175.38 102.30 C 175.86 101.59 175.67 100.62 174.95 100.14 L 174.12 99.57 C 173.40 99.09 172.43 99.28 171.95 100.00 C 171.47 100.71 171.66 101.68 172.38 102.16 Z M 173.17 102.70 L 173.99 103.29 C 174.69 103.79 175.66 103.63 176.17 102.93 C 176.67 102.23 176.51 101.25 175.81 100.75 L 174.99 100.16 C 174.29 99.66 173.32 99.82 172.81 100.52 C 172.31 101.22 172.47 102.20 173.17 102.70 Z M 173.95 103.26 L 174.74 103.86 C 175.43 104.39 176.41 104.25 176.93 103.57 C 177.45 102.88 177.32 101.90 176.64 101.38 L 175.84 100.78 C 175.16 100.25 174.18 100.39 173.66 101.07 C 173.13 101.76 173.27 102.74 173.95 103.26 Z M 174.71 103.84 L 175.51 104.48 C 176.18 105.02 177.16 104.91 177.70 104.24 C 178.24 103.57 178.14 102.58 177.47 102.04 L 176.67 101.40 C 176.00 100.86 175.01 100.97 174.47 101.64 C 173.93 102.31 174.04 103.30 174.71 103.84 Z M 175.48 104.45 L 176.25 105.10 C 176.91 105.66 177.89 105.58 178.45 104.92 C 179.00 104.26 178.92 103.27 178.26 102.72 L 177.50 102.07 C 176.84 101.51 175.85 101.59 175.30 102.25 C 174.74 102.91 174.82 103.90 175.48 104.45 Z M 176.22 105.08 L 176.96 105.73 C 177.61 106.31 178.59 106.25 179.17 105.60 C 179.74 104.95 179.68 103.97 179.03 103.40 L 178.29 102.74 C 177.64 102.17 176.66 102.23 176.08 102.88 C 175.51 103.52 175.57 104.51 176.22 105.08 Z M 176.94 105.71 L 177.66 106.38 C 178.30 106.96 179.28 106.92 179.87 106.29 C 180.45 105.65 180.41 104.66 179.77 104.08 L 179.05 103.42 C 178.42 102.83 177.43 102.87 176.85 103.51 C 176.26 104.14 176.30 105.13 176.94 105.71 Z M 177.64 106.36 L 178.36 107.05 C 178.99 107.64 179.97 107.62 180.57 106.99 C 181.16 106.37 181.14 105.38 180.52 104.79 L 179.80 104.10 C 179.17 103.50 178.18 103.53 177.59 104.15 C 176.99 104.78 177.02 105.76 177.64 106.36 Z M 178.34 107.02 L 179.04 107.73 C 179.65 108.33 180.64 108.33 181.25 107.72 C 181.86 107.11 181.86 106.12 181.25 105.51 L 180.54 104.81 C 179.93 104.20 178.94 104.20 178.33 104.82 C 177.72 105.43 177.73 106.41 178.34 107.02 Z M 179.01 107.70 L 179.70 108.42 C 180.30 109.04 181.28 109.07 181.91 108.47 C 182.53 107.88 182.56 106.89 181.96 106.27 L 181.28 105.54 C 180.68 104.92 179.69 104.89 179.07 105.49 C 178.44 106.08 178.42 107.07 179.01 107.70 Z M 179.67 108.39 L 180.34 109.14 C 180.92 109.78 181.90 109.83 182.55 109.26 C 183.19 108.68 183.24 107.70 182.67 107.05 L 182.00 106.30 C 181.42 105.66 180.43 105.61 179.79 106.18 C 179.15 106.76 179.09 107.74 179.67 108.39 Z M 180.31 109.10 L 180.95 109.86 C 181.50 110.52 182.49 110.60 183.15 110.05 C 183.81 109.50 183.89 108.51 183.34 107.85 L 182.70 107.09 C 182.15 106.43 181.16 106.34 180.50 106.90 C 179.84 107.45 179.76 108.44 180.31 109.10 Z M 180.92 109.83 L 181.54 110.61 C 182.08 111.28 183.06 111.40 183.74 110.86 C 184.41 110.32 184.52 109.34 183.99 108.67 L 183.37 107.88 C 182.83 107.21 181.85 107.10 181.17 107.63 C 180.50 108.17 180.38 109.15 180.92 109.83 Z M 181.52 110.58 L 182.13 111.38 C 182.65 112.07 183.63 112.20 184.32 111.68 C 185.00 111.16 185.14 110.18 184.62 109.49 L 184.01 108.69 C 183.49 108.01 182.51 107.87 181.82 108.40 C 181.14 108.92 181.00 109.90 181.52 110.58 Z M 182.11 111.36 L 182.71 112.17 C 183.22 112.87 184.19 113.02 184.89 112.51 C 185.58 112.00 185.73 111.02 185.23 110.32 L 184.63 109.52 C 184.12 108.82 183.15 108.67 182.45 109.18 C 181.76 109.69 181.60 110.67 182.11 111.36 Z M 182.69 112.15 L 183.29 112.99 C 183.79 113.69 184.76 113.85 185.47 113.35 C 186.17 112.85 186.33 111.88 185.83 111.18 L 185.24 110.34 C 184.74 109.64 183.76 109.48 183.06 109.98 C 182.36 110.48 182.19 111.45 182.69 112.15 Z M 183.28 112.97 L 183.85 113.80 C 184.35 114.51 185.32 114.69 186.03 114.20 C 186.74 113.70 186.91 112.73 186.42 112.02 L 185.84 111.19 C 185.35 110.48 184.38 110.31 183.67 110.80 C 182.96 111.29 182.79 112.26 183.28 112.97 Z M 183.84 113.79 L 184.40 114.61 C 184.88 115.32 185.85 115.51 186.57 115.03 C 187.28 114.55 187.47 113.58 186.99 112.86 L 186.43 112.04 C 185.95 111.32 184.98 111.14 184.26 111.62 C 183.55 112.10 183.36 113.07 183.84 113.79 Z M 184.39 114.59 L 184.92 115.40 C 185.39 116.12 186.36 116.33 187.08 115.85 C 187.80 115.38 188.00 114.41 187.53 113.69 L 187.00 112.88 C 186.52 112.16 185.56 111.96 184.84 112.43 C 184.12 112.90 183.91 113.87 184.39 114.59 Z M 184.91 115.39 L 185.44 116.22 C 185.90 116.94 186.86 117.16 187.59 116.69 C 188.32 116.23 188.53 115.27 188.07 114.54 L 187.54 113.71 C 187.08 112.98 186.11 112.77 185.39 113.23 C 184.66 113.69 184.45 114.66 184.91 115.39 Z M 185.42 116.19 L 185.93 117.03 C 186.38 117.76 187.34 118.00 188.08 117.55 C 188.81 117.10 189.05 116.14 188.60 115.40 L 188.09 114.56 C 187.64 113.83 186.68 113.60 185.94 114.05 C 185.20 114.49 184.97 115.46 185.42 116.19 Z M 185.91 117.00 L 186.42 117.86 C 186.85 118.61 187.81 118.86 188.55 118.43 C 189.30 118.00 189.55 117.04 189.12 116.30 L 188.61 115.43 C 188.18 114.68 187.23 114.43 186.48 114.86 C 185.73 115.30 185.48 116.25 185.91 117.00 Z M 186.40 117.83 L 186.90 118.73 C 187.31 119.49 188.26 119.77 189.02 119.35 C 189.77 118.93 190.05 117.99 189.63 117.23 L 189.14 116.33 C 188.72 115.57 187.77 115.30 187.02 115.71 C 186.26 116.13 185.98 117.08 186.40 117.83 Z M 186.88 118.70 L 187.34 119.59 C 187.74 120.35 188.68 120.65 189.44 120.25 C 190.21 119.86 190.51 118.91 190.11 118.15 L 189.65 117.26 C 189.25 116.50 188.31 116.20 187.54 116.60 C 186.78 116.99 186.48 117.94 186.88 118.70 Z M 187.32 119.55 L 187.77 120.47 C 188.15 121.25 189.08 121.57 189.86 121.19 C 190.63 120.81 190.95 119.88 190.58 119.10 L 190.13 118.19 C 189.75 117.41 188.82 117.09 188.04 117.47 C 187.27 117.84 186.94 118.78 187.32 119.55 Z M 187.75 120.43 L 188.16 121.35 C 188.52 122.14 189.44 122.49 190.23 122.13 C 191.01 121.78 191.36 120.86 191.01 120.07 L 190.60 119.15 C 190.24 118.36 189.32 118.01 188.53 118.36 C 187.75 118.72 187.39 119.64 187.75 120.43 Z M 188.14 121.29 L 188.50 122.19 C 188.82 122.99 189.73 123.38 190.53 123.06 C 191.33 122.74 191.72 121.83 191.40 121.03 L 191.03 120.13 C 190.71 119.33 189.80 118.94 189.00 119.26 C 188.20 119.58 187.82 120.49 188.14 121.29 Z M 188.47 122.11 L 188.81 123.11 C 189.09 123.93 189.97 124.37 190.79 124.09 C 191.61 123.81 192.04 122.92 191.77 122.11 L 191.43 121.11 C 191.15 120.29 190.26 119.86 189.45 120.13 C 188.63 120.41 188.19 121.30 188.47 122.11 Z M 188.78 123.03 L 189.05 123.99 C 189.28 124.82 190.14 125.30 190.97 125.07 C 191.80 124.84 192.29 123.98 192.06 123.15 L 191.79 122.19 C 191.56 121.36 190.70 120.87 189.87 121.11 C 189.04 121.34 188.55 122.20 188.78 123.03 Z M 189.03 123.92 L 189.25 124.86 C 189.44 125.70 190.27 126.23 191.11 126.04 C 191.95 125.85 192.48 125.01 192.29 124.17 L 192.08 123.22 C 191.89 122.38 191.05 121.86 190.21 122.05 C 189.37 122.24 188.84 123.07 189.03 123.92 Z M 189.24 124.81 L 189.42 125.75 C 189.58 126.59 190.40 127.15 191.25 126.98 C 192.09 126.82 192.65 126.00 192.48 125.15 L 192.30 124.22 C 192.14 123.37 191.32 122.82 190.47 122.98 C 189.62 123.15 189.07 123.97 189.24 124.81 Z M 189.41 125.72 L 189.57 126.65 C 189.72 127.50 190.53 128.07 191.38 127.92 C 192.23 127.78 192.80 126.97 192.65 126.12 L 192.49 125.18 C 192.34 124.33 191.53 123.77 190.68 123.91 C 189.83 124.06 189.26 124.87 189.41 125.72 Z M 189.57 126.63 L 189.73 127.61 C 189.86 128.46 190.66 129.04 191.51 128.91 C 192.36 128.77 192.94 127.97 192.81 127.12 L 192.65 126.14 C 192.52 125.29 191.72 124.71 190.87 124.84 C 190.02 124.98 189.43 125.78 189.57 126.63 Z M 189.72 127.59 L 189.88 128.63 C 190.01 129.48 190.80 130.07 191.65 129.94 C 192.51 129.82 193.09 129.02 192.97 128.17 L 192.81 127.13 C 192.68 126.28 191.89 125.69 191.04 125.82 C 190.18 125.95 189.60 126.74 189.72 127.59 Z M 189.88 128.62 L 190.02 129.61 C 190.14 130.46 190.93 131.06 191.79 130.93 C 192.64 130.81 193.23 130.02 193.11 129.17 L 192.97 128.18 C 192.84 127.32 192.05 126.73 191.20 126.86 C 190.35 126.98 189.75 127.77 189.88 128.62 Z M 190.02 129.60 L 190.15 130.56 C 190.27 131.42 191.06 132.01 191.91 131.89 C 192.77 131.78 193.36 130.99 193.24 130.13 L 193.11 129.17 C 192.99 128.32 192.20 127.72 191.35 127.84 C 190.49 127.96 189.90 128.75 190.02 129.60 Z M 190.15 130.56 L 190.28 131.55 C 190.40 132.41 191.18 133.01 192.04 132.89 C 192.89 132.78 193.49 131.99 193.38 131.14 L 193.25 130.14 C 193.13 129.29 192.35 128.69 191.49 128.80 C 190.64 128.92 190.04 129.70 190.15 130.56 Z M 190.28 131.54 L 190.41 132.56 C 190.52 133.41 191.30 134.02 192.15 133.91 C 193.01 133.81 193.62 133.02 193.51 132.17 L 193.38 131.15 C 193.27 130.29 192.49 129.69 191.64 129.80 C 190.78 129.90 190.17 130.68 190.28 131.54 Z M 190.41 132.54 L 190.53 133.58 C 190.63 134.43 191.40 135.05 192.26 134.95 C 193.12 134.85 193.73 134.07 193.63 133.22 L 193.51 132.18 C 193.41 131.33 192.64 130.71 191.78 130.81 C 190.92 130.91 190.31 131.69 190.41 132.54 Z M 190.53 133.56 L 190.63 134.53 C 190.72 135.39 191.49 136.01 192.35 135.92 C 193.20 135.83 193.83 135.06 193.73 134.20 L 193.63 133.23 C 193.54 132.37 192.77 131.75 191.92 131.84 C 191.06 131.93 190.44 132.70 190.53 133.56 Z M 190.63 134.52 L 190.72 135.49 C 190.81 136.35 191.57 136.98 192.43 136.90 C 193.28 136.81 193.91 136.05 193.83 135.19 L 193.74 134.22 C 193.65 133.36 192.89 132.73 192.03 132.81 C 191.17 132.89 190.55 133.66 190.63 134.52 Z M 190.72 135.48 L 190.81 136.47 C 190.89 137.33 191.64 137.96 192.50 137.89 C 193.36 137.81 194.00 137.05 193.92 136.19 L 193.83 135.20 C 193.76 134.34 193.00 133.71 192.14 133.79 C 191.28 133.86 190.65 134.62 190.72 135.48 Z M 190.81 136.46 L 190.89 137.47 C 190.96 138.33 191.72 138.97 192.58 138.90 C 193.44 138.83 194.08 138.07 194.00 137.21 L 193.92 136.20 C 193.85 135.34 193.09 134.70 192.24 134.78 C 191.38 134.85 190.74 135.60 190.81 136.46 Z M 190.89 137.47 L 190.97 138.50 C 191.04 139.36 191.79 140.00 192.65 139.93 C 193.51 139.87 194.15 139.11 194.09 138.25 L 194.00 137.22 C 193.94 136.36 193.18 135.72 192.33 135.79 C 191.47 135.85 190.82 136.61 190.89 137.47 Z M 190.97 138.50 L 191.05 139.53 C 191.12 140.39 191.87 141.03 192.73 140.97 C 193.59 140.90 194.23 140.15 194.16 139.29 L 194.09 138.26 C 194.02 137.40 193.27 136.76 192.41 136.82 C 191.55 136.89 190.91 137.64 190.97 138.50 Z M 191.05 139.52 L 191.13 140.56 C 191.19 141.42 191.94 142.07 192.80 142.01 C 193.66 141.94 194.30 141.20 194.24 140.34 L 194.17 139.30 C 194.10 138.44 193.36 137.79 192.50 137.85 C 191.64 137.91 190.99 138.66 191.05 139.52 Z M 191.13 140.55 L 191.19 141.57 C 191.25 142.43 192.00 143.08 192.86 143.03 C 193.72 142.97 194.37 142.22 194.31 141.36 L 194.24 140.34 C 194.18 139.48 193.44 138.83 192.58 138.89 C 191.72 138.95 191.07 139.69 191.13 140.55 Z M 191.19 141.56 L 191.25 142.54 C 191.30 143.40 192.04 144.06 192.91 144.01 C 193.77 143.95 194.42 143.21 194.37 142.35 L 194.31 141.37 C 194.26 140.51 193.52 139.86 192.66 139.91 C 191.80 139.96 191.14 140.70 191.19 141.56 Z M 191.25 142.53 L 191.30 143.45 C 191.34 144.31 192.08 144.97 192.94 144.93 C 193.80 144.88 194.46 144.15 194.42 143.29 L 194.37 142.37 C 194.33 141.51 193.59 140.85 192.73 140.89 C 191.87 140.93 191.21 141.67 191.25 142.53 Z M 191.30 143.42 L 191.34 144.56 C 191.37 145.43 192.09 146.10 192.96 146.07 C 193.82 146.04 194.49 145.31 194.46 144.45 L 194.42 143.31 C 194.39 142.45 193.66 141.78 192.80 141.81 C 191.94 141.84 191.27 142.56 191.30 143.42 Z M 191.34 144.54 L 191.36 145.55 C 191.38 146.41 192.10 147.10 192.96 147.08 C 193.82 147.06 194.50 146.34 194.48 145.48 L 194.46 144.47 C 194.44 143.61 193.73 142.93 192.86 142.95 C 192.00 142.97 191.32 143.68 191.34 144.54 Z M 191.36 145.54 L 191.38 146.46 C 191.39 147.33 192.10 148.01 192.96 148.00 C 193.83 147.99 194.51 147.28 194.50 146.41 L 194.48 145.49 C 194.47 144.63 193.76 143.94 192.90 143.96 C 192.03 143.97 191.35 144.68 191.36 145.54 Z M 191.38 146.47 L 191.40 147.38 C 191.42 148.25 192.13 148.93 192.99 148.91 C 193.85 148.89 194.54 148.18 194.52 147.31 L 194.50 146.40 C 194.48 145.54 193.77 144.86 192.90 144.88 C 192.04 144.90 191.36 145.61 191.38 146.47 Z M 191.40 147.40 L 191.43 148.36 C 191.46 149.22 192.18 149.90 193.04 149.87 C 193.90 149.84 194.58 149.12 194.55 148.26 L 194.52 147.30 C 194.49 146.44 193.77 145.76 192.91 145.79 C 192.04 145.82 191.37 146.54 191.40 147.40 Z M 191.43 148.37 L 191.47 149.36 C 191.50 150.22 192.23 150.90 193.09 150.86 C 193.95 150.83 194.62 150.10 194.59 149.24 L 194.55 148.25 C 194.52 147.39 193.79 146.72 192.93 146.75 C 192.07 146.78 191.40 147.51 191.43 148.37 Z M 191.47 149.36 L 191.51 150.41 C 191.54 151.27 192.26 151.95 193.12 151.91 C 193.99 151.88 194.66 151.16 194.63 150.30 L 194.59 149.25 C 194.56 148.38 193.83 147.71 192.97 147.74 C 192.11 147.78 191.44 148.50 191.47 149.36 Z M 191.51 150.40 L 191.54 151.36 C 191.57 152.23 192.29 152.90 193.15 152.87 C 194.01 152.85 194.69 152.12 194.66 151.26 L 194.63 150.30 C 194.60 149.44 193.88 148.77 193.02 148.79 C 192.15 148.82 191.48 149.54 191.51 150.40 Z M 191.54 151.36 L 191.57 152.37 C 191.59 153.23 192.31 153.91 193.17 153.88 C 194.04 153.85 194.71 153.13 194.69 152.27 L 194.66 151.27 C 194.63 150.40 193.91 149.73 193.05 149.75 C 192.19 149.78 191.51 150.50 191.54 151.36 Z M 191.57 152.37 L 191.60 153.39 C 191.62 154.25 192.34 154.93 193.20 154.90 C 194.07 154.88 194.74 154.16 194.72 153.30 L 194.69 152.27 C 194.66 151.41 193.94 150.73 193.08 150.76 C 192.22 150.78 191.54 151.50 191.57 152.37 Z M 191.60 153.39 L 191.63 154.41 C 191.66 155.27 192.38 155.95 193.24 155.92 C 194.10 155.90 194.78 155.18 194.75 154.31 L 194.72 153.30 C 194.69 152.43 193.97 151.76 193.11 151.78 C 192.25 151.81 191.57 152.53 191.60 153.39 Z M 191.63 154.41 L 191.66 155.42 C 191.69 156.28 192.41 156.96 193.27 156.93 C 194.14 156.90 194.81 156.18 194.78 155.32 L 194.75 154.31 C 194.72 153.45 194.00 152.77 193.14 152.80 C 192.28 152.83 191.60 153.55 191.63 154.41 Z M 191.66 155.42 L 191.69 156.41 C 191.72 157.27 192.44 157.95 193.31 157.92 C 194.17 157.89 194.84 157.17 194.82 156.31 L 194.78 155.32 C 194.75 154.45 194.03 153.78 193.17 153.81 C 192.31 153.84 191.63 154.56 191.66 155.42 Z M 191.69 156.40 L 191.72 157.39 C 191.75 158.26 192.47 158.94 193.33 158.91 C 194.19 158.89 194.87 158.17 194.84 157.31 L 194.82 156.31 C 194.79 155.45 194.07 154.77 193.21 154.80 C 192.35 154.82 191.67 155.54 191.69 156.40 Z M 191.72 157.38 L 191.74 158.37 C 191.76 159.24 192.47 159.92 193.34 159.90 C 194.20 159.89 194.88 159.17 194.87 158.31 L 194.84 157.32 C 194.83 156.46 194.11 155.77 193.25 155.79 C 192.39 155.81 191.70 156.52 191.72 157.38 Z M 191.74 158.36 L 191.76 159.32 C 191.77 160.18 192.47 160.87 193.34 160.86 C 194.20 160.85 194.89 160.14 194.88 159.28 L 194.87 158.32 C 194.85 157.46 194.15 156.77 193.29 156.78 C 192.42 156.79 191.73 157.50 191.74 158.36 Z M 191.75 159.31 L 191.76 160.29 C 191.77 161.15 192.47 161.85 193.33 161.84 C 194.19 161.84 194.89 161.14 194.88 160.27 L 194.88 159.29 C 194.87 158.43 194.17 157.73 193.31 157.74 C 192.44 157.74 191.75 158.44 191.75 159.31 Z M 191.76 160.29 L 191.76 161.30 C 191.77 162.17 192.47 162.86 193.33 162.86 C 194.19 162.86 194.89 162.16 194.89 161.30 L 194.88 160.28 C 194.88 159.42 194.18 158.72 193.32 158.72 C 192.46 158.72 191.76 159.42 191.76 160.29 Z M 191.76 161.30 L 191.76 162.36 C 191.76 163.22 192.46 163.92 193.33 163.92 C 194.19 163.92 194.89 163.22 194.89 162.36 L 194.89 161.30 C 194.89 160.44 194.19 159.74 193.32 159.74 C 192.46 159.74 191.76 160.44 191.76 161.30 Z M 191.76 162.36 L 191.76 163.37 C 191.76 164.23 192.46 164.93 193.32 164.93 C 194.19 164.93 194.89 164.23 194.89 163.37 L 194.89 162.36 C 194.89 161.49 194.19 160.79 193.32 160.79 C 192.46 160.79 191.76 161.49 191.76 162.36 Z M 191.76 163.37 L 191.76 164.39 C 191.76 165.25 192.46 165.95 193.32 165.95 C 194.19 165.95 194.89 165.25 194.89 164.39 L 194.89 163.37 C 194.89 162.51 194.19 161.81 193.32 161.81 C 192.46 161.81 191.76 162.51 191.76 163.37 Z M 191.76 164.39 L 191.76 165.41 C 191.76 166.27 192.46 166.97 193.32 166.97 C 194.19 166.97 194.89 166.27 194.89 165.41 L 194.89 164.39 C 194.89 163.53 194.19 162.83 193.32 162.83 C 192.46 162.83 191.76 163.53 191.76 164.39 Z M 191.76 165.41 L 191.76 166.39 C 191.76 167.25 192.46 167.95 193.32 167.95 C 194.19 167.95 194.89 167.25 194.89 166.39 L 194.89 165.41 C 194.89 164.54 194.19 163.85 193.32 163.85 C 192.46 163.85 191.76 164.54 191.76 165.41 Z M 191.76 166.39 L 191.76 167.40 C 191.76 168.26 192.46 168.96 193.32 168.96 C 194.19 168.96 194.89 168.26 194.89 167.40 L 194.89 166.39 C 194.89 165.53 194.19 164.83 193.32 164.83 C 192.46 164.83 191.76 165.53 191.76 166.39 Z M 191.76 167.40 L 191.76 168.44 C 191.76 169.31 192.45 170.01 193.32 170.01 C 194.18 170.01 194.88 169.32 194.88 168.45 L 194.89 167.41 C 194.89 166.54 194.19 165.84 193.33 165.84 C 192.47 165.84 191.77 166.53 191.76 167.40 Z M 191.76 168.43 L 191.75 169.41 C 191.73 170.27 192.42 170.98 193.29 171.00 C 194.15 171.01 194.86 170.32 194.87 169.46 L 194.88 168.47 C 194.89 167.61 194.21 166.90 193.34 166.89 C 192.48 166.88 191.77 167.56 191.76 168.43 Z M 191.75 169.38 L 191.72 170.33 C 191.69 171.19 192.36 171.91 193.22 171.94 C 194.08 171.97 194.81 171.30 194.84 170.43 L 194.87 169.49 C 194.90 168.63 194.22 167.90 193.36 167.87 C 192.50 167.85 191.78 168.52 191.75 169.38 Z M 191.72 170.28 L 191.66 171.20 C 191.61 172.06 192.26 172.80 193.12 172.86 C 193.98 172.91 194.72 172.26 194.78 171.39 L 194.83 170.48 C 194.89 169.62 194.23 168.88 193.37 168.82 C 192.51 168.77 191.77 169.42 191.72 170.28 Z M 191.66 171.15 L 191.58 172.08 C 191.50 172.94 192.13 173.70 192.98 173.78 C 193.84 173.86 194.60 173.23 194.68 172.37 L 194.77 171.45 C 194.85 170.59 194.22 169.83 193.37 169.74 C 192.51 169.66 191.75 170.29 191.66 171.15 Z M 191.58 172.03 L 191.46 173.01 C 191.35 173.87 191.95 174.65 192.80 174.76 C 193.66 174.87 194.44 174.27 194.55 173.41 L 194.68 172.43 C 194.79 171.57 194.18 170.79 193.33 170.68 C 192.47 170.57 191.69 171.17 191.58 172.03 Z M 191.46 172.97 L 191.29 174.05 C 191.15 174.90 191.73 175.70 192.59 175.83 C 193.44 175.97 194.24 175.39 194.37 174.54 L 194.55 173.46 C 194.68 172.61 194.10 171.81 193.25 171.67 C 192.40 171.53 191.60 172.11 191.46 172.97 Z M 191.30 174.01 L 191.14 174.89 C 190.98 175.74 191.54 176.55 192.39 176.70 C 193.24 176.86 194.05 176.30 194.21 175.45 L 194.37 174.57 C 194.52 173.72 193.96 172.91 193.11 172.76 C 192.26 172.60 191.45 173.17 191.30 174.01 Z M 191.14 174.86 L 190.97 175.73 C 190.80 176.57 191.35 177.39 192.20 177.56 C 193.04 177.73 193.87 177.18 194.03 176.33 L 194.20 175.47 C 194.37 174.63 193.82 173.80 192.98 173.64 C 192.13 173.47 191.31 174.02 191.14 174.86 Z M 190.97 175.70 L 190.78 176.64 C 190.60 177.48 191.13 178.31 191.98 178.49 C 192.82 178.67 193.65 178.13 193.83 177.29 L 194.03 176.36 C 194.21 175.51 193.67 174.68 192.83 174.50 C 191.98 174.32 191.15 174.86 190.97 175.70 Z M 190.78 176.61 L 190.55 177.62 C 190.36 178.46 190.89 179.29 191.73 179.48 C 192.57 179.67 193.41 179.15 193.60 178.31 L 193.83 177.31 C 194.02 176.47 193.49 175.63 192.65 175.44 C 191.81 175.25 190.97 175.77 190.78 176.61 Z M 190.56 177.60 L 190.30 178.67 C 190.10 179.51 190.61 180.35 191.45 180.55 C 192.29 180.75 193.13 180.24 193.34 179.40 L 193.59 178.33 C 193.80 177.49 193.28 176.64 192.44 176.44 C 191.60 176.24 190.76 176.76 190.56 177.60 Z M 190.30 178.65 L 190.01 179.80 C 189.80 180.64 190.31 181.49 191.14 181.70 C 191.98 181.91 192.83 181.40 193.04 180.57 L 193.33 179.42 C 193.54 178.58 193.04 177.73 192.20 177.52 C 191.37 177.31 190.52 177.82 190.30 178.65 Z M 190.02 179.79 L 189.79 180.65 C 189.57 181.48 190.07 182.34 190.90 182.56 C 191.73 182.78 192.59 182.28 192.81 181.45 L 193.04 180.58 C 193.26 179.75 192.76 178.89 191.92 178.67 C 191.09 178.45 190.24 178.95 190.02 179.79 Z M 189.79 180.64 L 189.55 181.54 C 189.32 182.37 189.81 183.23 190.65 183.45 C 191.48 183.68 192.34 183.19 192.56 182.36 L 192.81 181.46 C 193.03 180.62 192.54 179.77 191.71 179.54 C 190.88 179.31 190.02 179.81 189.79 180.64 Z M 189.55 181.53 L 189.29 182.46 C 189.06 183.29 189.54 184.15 190.37 184.38 C 191.20 184.61 192.07 184.13 192.30 183.30 L 192.56 182.37 C 192.79 181.54 192.31 180.67 191.48 180.44 C 190.65 180.21 189.78 180.70 189.55 181.53 Z M 189.29 182.44 L 189.02 183.40 C 188.78 184.23 189.26 185.10 190.09 185.33 C 190.92 185.57 191.78 185.09 192.02 184.26 L 192.30 183.31 C 192.53 182.48 192.05 181.61 191.23 181.38 C 190.40 181.14 189.53 181.62 189.29 182.44 Z M 189.02 183.39 L 188.73 184.37 C 188.49 185.20 188.96 186.07 189.79 186.31 C 190.62 186.55 191.48 186.08 191.73 185.25 L 192.02 184.27 C 192.26 183.45 191.79 182.58 190.96 182.34 C 190.13 182.09 189.27 182.56 189.02 183.39 Z M 188.74 184.36 L 188.43 185.36 C 188.19 186.19 188.65 187.06 189.48 187.31 C 190.30 187.56 191.17 187.09 191.42 186.26 L 191.73 185.26 C 191.98 184.44 191.51 183.57 190.68 183.32 C 189.86 183.07 188.99 183.54 188.74 184.36 Z M 188.44 185.35 L 188.12 186.36 C 187.87 187.19 188.33 188.06 189.15 188.32 C 189.98 188.57 190.85 188.11 191.11 187.29 L 191.42 186.27 C 191.68 185.45 191.21 184.58 190.39 184.32 C 189.57 184.07 188.69 184.53 188.44 185.35 Z M 188.13 186.35 L 187.80 187.38 C 187.54 188.20 187.99 189.08 188.82 189.34 C 189.64 189.60 190.52 189.15 190.78 188.32 L 191.10 187.30 C 191.36 186.48 190.91 185.60 190.09 185.34 C 189.27 185.08 188.39 185.53 188.13 186.35 Z M 187.80 187.37 L 187.47 188.39 C 187.20 189.21 187.65 190.10 188.47 190.36 C 189.29 190.63 190.17 190.18 190.44 189.36 L 190.77 188.33 C 191.04 187.51 190.59 186.63 189.77 186.37 C 188.95 186.10 188.07 186.55 187.80 187.37 Z M 187.47 188.38 L 187.13 189.41 C 186.86 190.23 187.30 191.11 188.12 191.38 C 188.94 191.66 189.82 191.22 190.09 190.40 L 190.43 189.37 C 190.71 188.55 190.27 187.67 189.45 187.40 C 188.63 187.12 187.75 187.57 187.47 188.38 Z M 187.13 189.40 L 186.79 190.41 C 186.51 191.23 186.95 192.12 187.76 192.39 C 188.58 192.67 189.47 192.24 189.74 191.42 L 190.09 190.41 C 190.37 189.59 189.93 188.70 189.12 188.43 C 188.30 188.15 187.41 188.58 187.13 189.40 Z M 186.79 190.40 L 186.45 191.40 C 186.16 192.21 186.59 193.10 187.41 193.38 C 188.22 193.67 189.11 193.24 189.40 192.42 L 189.74 191.43 C 190.02 190.62 189.59 189.73 188.78 189.44 C 187.97 189.16 187.08 189.59 186.79 190.40 Z M 186.45 191.39 L 186.11 192.35 C 185.82 193.16 186.25 194.05 187.06 194.34 C 187.87 194.63 188.76 194.20 189.05 193.39 L 189.39 192.43 C 189.68 191.62 189.26 190.73 188.44 190.44 C 187.63 190.15 186.74 190.57 186.45 191.39 Z M 186.11 192.34 L 185.78 193.26 C 185.48 194.07 185.90 194.96 186.71 195.26 C 187.53 195.55 188.42 195.13 188.71 194.32 L 189.05 193.40 C 189.34 192.59 188.92 191.70 188.11 191.40 C 187.30 191.11 186.41 191.53 186.11 192.34 Z M 185.78 193.25 L 185.46 194.12 C 185.16 194.93 185.57 195.82 186.38 196.12 C 187.19 196.42 188.09 196.01 188.39 195.20 L 188.71 194.33 C 189.01 193.52 188.60 192.62 187.79 192.33 C 186.98 192.03 186.08 192.44 185.78 193.25 Z M 185.46 194.11 L 185.16 194.92 C 184.85 195.72 185.26 196.62 186.06 196.93 C 186.87 197.23 187.77 196.83 188.08 196.02 L 188.38 195.21 C 188.69 194.41 188.28 193.50 187.48 193.20 C 186.67 192.89 185.77 193.30 185.46 194.11 Z M 185.16 194.90 L 184.76 195.94 C 184.44 196.74 184.84 197.65 185.64 197.96 C 186.44 198.28 187.35 197.88 187.66 197.08 L 188.07 196.04 C 188.39 195.24 187.99 194.33 187.19 194.02 C 186.38 193.70 185.48 194.10 185.16 194.90 Z M 184.77 195.92 L 184.34 196.96 C 184.01 197.76 184.39 198.67 185.19 199.00 C 185.99 199.32 186.90 198.94 187.23 198.14 L 187.66 197.10 C 187.98 196.30 187.60 195.39 186.80 195.06 C 186.00 194.74 185.09 195.12 184.77 195.92 Z M 184.35 196.94 L 183.96 197.85 C 183.62 198.64 183.99 199.56 184.78 199.90 C 185.57 200.24 186.49 199.87 186.83 199.08 L 187.22 198.17 C 187.56 197.37 187.19 196.46 186.40 196.12 C 185.60 195.78 184.69 196.15 184.35 196.94 Z M 183.97 197.83 L 183.60 198.65 C 183.25 199.44 183.61 200.36 184.40 200.71 C 185.19 201.06 186.11 200.71 186.46 199.92 L 186.82 199.10 C 187.17 198.31 186.81 197.39 186.03 197.04 C 185.24 196.69 184.32 197.04 183.97 197.83 Z M 183.61 198.64 L 183.26 199.42 C 182.90 200.20 183.25 201.13 184.04 201.48 C 184.82 201.84 185.75 201.49 186.10 200.70 L 186.45 199.93 C 186.81 199.14 186.46 198.22 185.67 197.86 C 184.89 197.51 183.96 197.86 183.61 198.64 Z M 183.26 199.42 L 182.88 200.25 C 182.52 201.04 182.87 201.96 183.66 202.32 C 184.44 202.67 185.37 202.33 185.72 201.54 L 186.10 200.70 C 186.46 199.92 186.11 198.99 185.32 198.64 C 184.54 198.28 183.61 198.63 183.26 199.42 Z M 182.88 200.25 L 182.48 201.12 C 182.12 201.91 182.47 202.83 183.25 203.19 C 184.04 203.55 184.96 203.21 185.32 202.42 L 185.72 201.55 C 186.08 200.76 185.73 199.84 184.95 199.48 C 184.17 199.12 183.24 199.46 182.88 200.25 Z M 182.49 201.11 L 182.07 202.00 C 181.70 202.78 182.03 203.71 182.81 204.08 C 183.59 204.45 184.52 204.11 184.89 203.33 L 185.31 202.44 C 185.68 201.66 185.35 200.73 184.57 200.36 C 183.79 199.99 182.86 200.33 182.49 201.11 Z M 182.08 201.98 L 181.62 202.90 C 181.24 203.67 181.55 204.61 182.33 204.99 C 183.10 205.37 184.04 205.06 184.42 204.29 L 184.88 203.36 C 185.26 202.59 184.94 201.65 184.17 201.27 C 183.40 200.89 182.46 201.20 182.08 201.98 Z M 181.64 202.86 L 181.15 203.80 C 180.75 204.56 181.04 205.50 181.80 205.90 C 182.56 206.31 183.51 206.01 183.91 205.25 L 184.40 204.32 C 184.80 203.56 184.51 202.61 183.75 202.21 C 182.98 201.81 182.04 202.10 181.64 202.86 Z M 181.17 203.76 L 180.67 204.66 C 180.25 205.41 180.51 206.36 181.27 206.78 C 182.02 207.20 182.97 206.93 183.39 206.18 L 183.89 205.28 C 184.31 204.53 184.04 203.58 183.29 203.16 C 182.54 202.74 181.59 203.01 181.17 203.76 Z M 180.68 204.63 L 180.16 205.53 C 179.72 206.27 179.97 207.23 180.71 207.66 C 181.46 208.10 182.41 207.85 182.85 207.11 L 183.37 206.21 C 183.81 205.47 183.56 204.51 182.82 204.07 C 182.07 203.64 181.12 203.89 180.68 204.63 Z M 180.17 205.50 L 179.64 206.36 C 179.19 207.10 179.42 208.06 180.15 208.51 C 180.89 208.96 181.85 208.73 182.30 208.00 L 182.83 207.13 C 183.28 206.40 183.06 205.44 182.32 204.99 C 181.59 204.53 180.62 204.76 180.17 205.50 Z M 179.66 206.34 L 179.14 207.15 C 178.67 207.87 178.88 208.84 179.60 209.30 C 180.33 209.77 181.29 209.56 181.76 208.84 L 182.28 208.03 C 182.75 207.30 182.54 206.34 181.82 205.87 C 181.09 205.40 180.13 205.61 179.66 206.34 Z M 179.16 207.11 L 178.57 207.97 C 178.09 208.68 178.27 209.65 178.98 210.14 C 179.69 210.63 180.66 210.44 181.15 209.73 L 181.74 208.87 C 182.22 208.16 182.04 207.19 181.33 206.70 C 180.62 206.22 179.65 206.40 179.16 207.11 Z M 178.61 207.92 L 177.98 208.76 C 177.46 209.46 177.61 210.43 178.30 210.95 C 178.99 211.46 179.97 211.32 180.48 210.63 L 181.11 209.78 C 181.63 209.09 181.49 208.11 180.79 207.60 C 180.10 207.08 179.13 207.23 178.61 207.92 Z M 178.03 208.70 L 177.42 209.43 C 176.87 210.10 176.96 211.08 177.63 211.63 C 178.29 212.18 179.28 212.09 179.83 211.43 L 180.43 210.69 C 180.98 210.03 180.89 209.04 180.23 208.49 C 179.56 207.94 178.58 208.04 178.03 208.70 Z M 177.48 209.37 L 176.86 210.04 C 176.28 210.67 176.32 211.66 176.96 212.24 C 177.59 212.83 178.58 212.79 179.16 212.15 L 179.77 211.49 C 180.36 210.85 180.32 209.86 179.68 209.28 C 179.05 208.70 178.06 208.74 177.48 209.37 Z M 176.92 209.98 L 176.23 210.66 C 175.62 211.27 175.61 212.26 176.22 212.87 C 176.82 213.48 177.81 213.49 178.42 212.88 L 179.11 212.21 C 179.72 211.60 179.73 210.61 179.12 210.00 C 178.52 209.39 177.53 209.38 176.92 209.98 Z M 176.28 210.61 L 175.55 211.27 C 174.91 211.85 174.85 212.83 175.43 213.48 C 176.00 214.12 176.99 214.17 177.63 213.60 L 178.37 212.94 C 179.01 212.36 179.06 211.37 178.49 210.73 C 177.91 210.09 176.93 210.04 176.28 210.61 Z M 175.60 211.22 L 174.80 211.87 C 174.14 212.42 174.03 213.40 174.58 214.07 C 175.12 214.74 176.10 214.84 176.77 214.30 L 177.57 213.65 C 178.24 213.10 178.34 212.12 177.80 211.45 C 177.26 210.78 176.27 210.68 175.60 211.22 Z M 174.86 211.83 L 174.08 212.41 C 173.39 212.92 173.25 213.90 173.77 214.59 C 174.28 215.28 175.26 215.43 175.95 214.91 L 176.72 214.34 C 177.41 213.82 177.56 212.84 177.04 212.15 C 176.53 211.46 175.55 211.32 174.86 211.83 Z M 174.12 212.38 L 173.32 212.94 C 172.62 213.44 172.45 214.42 172.95 215.12 C 173.44 215.82 174.42 215.99 175.12 215.50 L 175.92 214.94 C 176.62 214.44 176.79 213.46 176.29 212.76 C 175.80 212.06 174.82 211.89 174.12 212.38 Z M 173.34 212.94 L 172.50 213.51 C 171.79 214.00 171.61 214.97 172.10 215.68 C 172.59 216.39 173.56 216.57 174.27 216.08 L 175.11 215.50 C 175.82 215.02 176.00 214.04 175.51 213.33 C 175.02 212.62 174.05 212.45 173.34 212.94 Z M 172.50 213.51 L 171.63 214.12 C 170.92 214.61 170.74 215.58 171.23 216.29 C 171.73 217.00 172.70 217.17 173.41 216.68 L 174.28 216.08 C 174.99 215.59 175.16 214.62 174.67 213.91 C 174.18 213.20 173.21 213.02 172.50 213.51 Z M 171.61 214.13 L 170.84 214.68 C 170.13 215.18 169.97 216.15 170.47 216.86 C 170.97 217.56 171.94 217.72 172.64 217.23 L 173.42 216.67 C 174.12 216.17 174.29 215.20 173.79 214.50 C 173.29 213.79 172.32 213.63 171.61 214.13 Z M 170.82 214.69 L 170.03 215.26 C 169.34 215.77 169.18 216.75 169.69 217.44 C 170.20 218.14 171.17 218.30 171.87 217.79 L 172.66 217.21 C 173.35 216.71 173.51 215.73 173.00 215.03 C 172.49 214.34 171.52 214.18 170.82 214.69 Z M 170.02 215.27 L 169.21 215.87 C 168.52 216.39 168.38 217.37 168.89 218.06 C 169.41 218.75 170.38 218.89 171.08 218.38 L 171.88 217.78 C 172.57 217.26 172.72 216.29 172.20 215.59 C 171.69 214.90 170.71 214.76 170.02 215.27 Z M 169.20 215.88 L 168.37 216.51 C 167.69 217.03 167.55 218.01 168.07 218.70 C 168.59 219.38 169.57 219.52 170.26 219.00 L 171.09 218.37 C 171.77 217.85 171.91 216.87 171.39 216.18 C 170.87 215.50 169.89 215.36 169.20 215.88 Z M 168.36 216.52 L 167.59 217.11 C 166.91 217.64 166.78 218.62 167.31 219.30 C 167.84 219.98 168.82 220.11 169.50 219.58 L 170.27 218.99 C 170.95 218.46 171.08 217.48 170.55 216.80 C 170.03 216.12 169.04 215.99 168.36 216.52 Z M 167.58 217.12 L 166.87 217.68 C 166.20 218.21 166.08 219.19 166.61 219.87 C 167.14 220.55 168.13 220.66 168.80 220.13 L 169.51 219.58 C 170.19 219.04 170.31 218.06 169.77 217.38 C 169.24 216.71 168.26 216.59 167.58 217.12 Z M 166.86 217.69 L 166.13 218.28 C 165.45 218.82 165.35 219.80 165.89 220.47 C 166.43 221.15 167.41 221.25 168.08 220.71 L 168.82 220.12 C 169.49 219.58 169.60 218.60 169.06 217.93 C 168.51 217.25 167.53 217.15 166.86 217.69 Z M 166.11 218.29 L 165.34 218.93 C 164.68 219.48 164.58 220.46 165.13 221.13 C 165.68 221.79 166.67 221.88 167.33 221.33 L 168.10 220.70 C 168.76 220.15 168.86 219.16 168.31 218.50 C 167.76 217.84 166.77 217.74 166.11 218.29 Z M 165.32 218.94 L 164.51 219.64 C 163.85 220.19 163.78 221.18 164.33 221.84 C 164.89 222.49 165.88 222.57 166.54 222.01 L 167.35 221.32 C 168.00 220.76 168.08 219.77 167.52 219.12 C 166.97 218.46 165.98 218.38 165.32 218.94 Z M 164.49 219.65 L 163.63 220.41 C 162.98 220.98 162.92 221.96 163.48 222.61 C 164.05 223.26 165.04 223.32 165.69 222.76 L 166.55 222.00 C 167.20 221.43 167.26 220.44 166.70 219.79 C 166.13 219.15 165.14 219.08 164.49 219.65 Z M 163.61 220.42 L 162.89 221.07 C 162.25 221.65 162.20 222.63 162.78 223.28 C 163.36 223.92 164.34 223.97 164.98 223.39 L 165.70 222.74 C 166.34 222.17 166.40 221.18 165.82 220.54 C 165.24 219.90 164.25 219.85 163.61 220.42 Z M 162.88 221.08 L 162.14 221.76 C 161.50 222.35 161.46 223.33 162.04 223.97 C 162.63 224.60 163.61 224.65 164.25 224.06 L 164.99 223.38 C 165.63 222.80 165.67 221.81 165.09 221.18 C 164.51 220.54 163.52 220.50 162.88 221.08 Z M 162.13 221.77 L 161.37 222.47 C 160.74 223.06 160.71 224.05 161.29 224.68 C 161.88 225.31 162.87 225.35 163.50 224.76 L 164.26 224.06 C 164.89 223.47 164.92 222.48 164.34 221.85 C 163.75 221.22 162.76 221.18 162.13 221.77 Z M 161.37 222.48 L 160.61 223.19 C 159.98 223.78 159.95 224.77 160.54 225.39 C 161.13 226.02 162.12 226.05 162.75 225.47 L 163.50 224.76 C 164.13 224.17 164.16 223.18 163.57 222.55 C 162.98 221.92 162.00 221.89 161.37 222.48 Z M 160.61 223.19 L 159.86 223.89 C 159.24 224.49 159.21 225.48 159.80 226.10 C 160.39 226.73 161.38 226.76 162.01 226.16 L 162.75 225.46 C 163.38 224.87 163.41 223.88 162.81 223.25 C 162.22 222.63 161.23 222.60 160.61 223.19 Z M 159.86 223.90 L 159.14 224.58 C 158.52 225.17 158.49 226.16 159.09 226.79 C 159.68 227.41 160.67 227.44 161.30 226.84 L 162.01 226.16 C 162.64 225.57 162.66 224.58 162.07 223.95 C 161.47 223.33 160.49 223.30 159.86 223.90 Z M 159.14 224.58 L 158.46 225.23 C 157.83 225.83 157.81 226.82 158.40 227.44 C 159.00 228.07 159.99 228.09 160.61 227.49 L 161.30 226.84 C 161.92 226.25 161.94 225.26 161.35 224.63 C 160.75 224.01 159.77 223.99 159.14 224.58 Z M 158.46 225.24 L 157.60 226.05 C 156.98 226.65 156.96 227.63 157.55 228.26 C 158.15 228.88 159.14 228.90 159.76 228.31 L 160.61 227.49 C 161.24 226.90 161.26 225.91 160.66 225.29 C 160.07 224.66 159.08 224.64 158.46 225.24 Z M 157.60 226.05 L 156.83 226.79 C 156.21 227.39 156.19 228.38 156.79 229.00 C 157.38 229.62 158.37 229.64 158.99 229.04 L 159.76 228.30 C 160.39 227.71 160.41 226.72 159.81 226.10 C 159.21 225.48 158.22 225.46 157.60 226.05 Z M 156.83 226.79 L 156.12 227.47 C 155.51 228.07 155.49 229.06 156.09 229.68 C 156.69 230.30 157.68 230.32 158.30 229.72 L 159.00 229.04 C 159.62 228.44 159.63 227.45 159.04 226.83 C 158.44 226.21 157.45 226.20 156.83 226.79 Z M 156.12 227.48 L 155.47 228.12 C 154.85 228.72 154.84 229.71 155.44 230.33 C 156.05 230.94 157.04 230.95 157.65 230.35 L 158.30 229.71 C 158.92 229.11 158.93 228.12 158.33 227.50 C 157.72 226.89 156.73 226.88 156.12 227.48 Z M 155.46 228.13 L 154.85 228.74 C 154.23 229.34 154.23 230.33 154.84 230.94 C 155.45 231.56 156.44 231.56 157.05 230.95 L 157.66 230.34 C 158.27 229.73 158.27 228.74 157.67 228.13 C 157.06 227.52 156.07 227.52 155.46 228.13 Z M 154.84 228.75 L 154.14 229.45 C 153.53 230.07 153.54 231.05 154.15 231.66 C 154.76 232.27 155.75 232.26 156.36 231.65 L 157.06 230.94 C 157.66 230.33 157.66 229.34 157.04 228.73 C 156.43 228.13 155.44 228.13 154.84 228.75 Z M 154.14 229.45 L 153.44 230.15 C 152.84 230.77 152.84 231.76 153.46 232.36 C 154.07 232.97 155.06 232.96 155.66 232.35 L 156.36 231.65 C 156.96 231.03 156.96 230.05 156.34 229.44 C 155.73 228.83 154.74 228.84 154.14 229.45 Z M 153.46 230.14 L 152.75 230.84 C 152.14 231.45 152.13 232.43 152.74 233.05 C 153.35 233.66 154.34 233.66 154.95 233.06 L 155.65 232.36 C 156.27 231.75 156.27 230.77 155.66 230.15 C 155.06 229.54 154.07 229.54 153.46 230.14 Z M 152.78 230.81 L 152.04 231.51 C 151.42 232.10 151.39 233.09 151.98 233.72 C 152.58 234.34 153.56 234.37 154.19 233.78 L 154.92 233.08 C 155.55 232.49 155.58 231.50 154.98 230.87 C 154.39 230.25 153.40 230.22 152.78 230.81 Z M 152.08 231.48 L 151.32 232.15 C 150.68 232.73 150.62 233.72 151.20 234.36 C 151.77 235.00 152.76 235.06 153.40 234.48 L 154.16 233.81 C 154.80 233.23 154.85 232.25 154.28 231.60 C 153.71 230.96 152.72 230.91 152.08 231.48 Z M 151.35 232.13 L 150.57 232.79 C 149.91 233.35 149.83 234.33 150.39 234.99 C 150.95 235.65 151.93 235.73 152.59 235.17 L 153.37 234.51 C 154.03 233.95 154.11 232.97 153.55 232.31 C 152.99 231.65 152.01 231.57 151.35 232.13 Z M 150.59 232.77 L 149.80 233.42 C 149.14 233.97 149.04 234.95 149.58 235.62 C 150.13 236.28 151.12 236.38 151.78 235.83 L 152.57 235.19 C 153.24 234.64 153.34 233.66 152.79 232.99 C 152.24 232.32 151.26 232.23 150.59 232.77 Z M 149.81 233.41 L 149.04 234.03 C 148.37 234.57 148.26 235.56 148.80 236.23 C 149.34 236.90 150.32 237.01 150.99 236.47 L 151.77 235.84 C 152.44 235.30 152.55 234.32 152.01 233.65 C 151.47 232.98 150.49 232.87 149.81 233.41 Z M 149.04 234.03 L 148.29 234.63 C 147.61 235.17 147.50 236.15 148.04 236.82 C 148.58 237.50 149.56 237.61 150.23 237.07 L 150.99 236.47 C 151.66 235.93 151.77 234.95 151.24 234.28 C 150.70 233.60 149.72 233.49 149.04 234.03 Z M 148.29 234.63 L 147.52 235.24 C 146.84 235.78 146.73 236.76 147.27 237.43 C 147.80 238.11 148.78 238.22 149.46 237.69 L 150.23 237.08 C 150.91 236.54 151.02 235.56 150.48 234.88 C 149.95 234.21 148.97 234.09 148.29 234.63 Z M 147.54 235.23 L 146.78 235.82 C 146.09 236.34 145.97 237.32 146.49 238.01 C 147.02 238.69 148.00 238.81 148.68 238.29 L 149.44 237.70 C 150.13 237.17 150.25 236.19 149.73 235.51 C 149.20 234.83 148.22 234.70 147.54 235.23 Z M 146.80 235.79 L 146.00 236.38 C 145.31 236.89 145.16 237.87 145.67 238.56 C 146.18 239.26 147.16 239.41 147.86 238.90 L 148.66 238.31 C 149.35 237.80 149.50 236.82 148.99 236.13 C 148.48 235.43 147.50 235.28 146.80 235.79 Z M 146.04 236.36 L 145.18 236.95 C 144.48 237.44 144.30 238.41 144.79 239.12 C 145.28 239.83 146.25 240.01 146.96 239.52 L 147.82 238.92 C 148.53 238.43 148.70 237.46 148.21 236.75 C 147.72 236.04 146.75 235.87 146.04 236.36 Z M 145.22 236.93 L 144.41 237.46 C 143.69 237.93 143.48 238.90 143.96 239.62 C 144.43 240.34 145.40 240.54 146.12 240.07 L 146.93 239.54 C 147.65 239.06 147.85 238.10 147.38 237.38 C 146.91 236.66 145.94 236.45 145.22 236.93 Z M 144.43 237.45 L 143.57 237.99 C 142.84 238.45 142.62 239.42 143.08 240.15 C 143.54 240.87 144.51 241.09 145.24 240.63 L 146.10 240.08 C 146.83 239.62 147.04 238.66 146.58 237.93 C 146.12 237.20 145.16 236.98 144.43 237.45 Z M 143.58 237.98 L 142.70 238.52 C 141.97 238.98 141.74 239.94 142.19 240.67 C 142.65 241.41 143.61 241.63 144.34 241.18 L 145.22 240.64 C 145.96 240.18 146.18 239.22 145.73 238.49 C 145.28 237.76 144.31 237.53 143.58 237.98 Z M 142.71 238.52 L 141.85 239.04 C 141.11 239.49 140.87 240.45 141.32 241.19 C 141.77 241.93 142.73 242.16 143.47 241.71 L 144.33 241.19 C 145.07 240.74 145.30 239.78 144.86 239.04 C 144.41 238.31 143.45 238.07 142.71 238.52 Z M 141.85 239.04 L 140.98 239.57 C 140.24 240.01 140.00 240.97 140.44 241.71 C 140.88 242.45 141.84 242.69 142.58 242.24 L 143.46 241.72 C 144.20 241.27 144.44 240.32 143.99 239.58 C 143.55 238.84 142.59 238.60 141.85 239.04 Z M 140.98 239.56 L 140.05 240.12 C 139.31 240.56 139.07 241.52 139.51 242.26 C 139.95 243.00 140.91 243.24 141.65 242.80 L 142.58 242.25 C 143.32 241.81 143.56 240.85 143.12 240.11 C 142.68 239.37 141.72 239.12 140.98 239.56 Z M 140.06 240.11 L 139.20 240.62 C 138.46 241.05 138.21 242.01 138.65 242.75 C 139.08 243.50 140.04 243.75 140.78 243.31 L 141.64 242.80 C 142.38 242.37 142.63 241.41 142.20 240.67 C 141.76 239.92 140.80 239.68 140.06 240.11 Z M 139.21 240.61 L 138.40 241.08 C 137.65 241.52 137.40 242.47 137.83 243.22 C 138.26 243.96 139.22 244.22 139.96 243.78 L 140.78 243.31 C 141.52 242.88 141.77 241.92 141.34 241.18 C 140.91 240.43 139.95 240.18 139.21 240.61 Z M 138.40 241.08 L 137.59 241.54 C 136.85 241.97 136.59 242.93 137.02 243.67 C 137.45 244.42 138.40 244.68 139.15 244.25 L 139.96 243.79 C 140.70 243.36 140.96 242.41 140.53 241.66 C 140.11 240.91 139.15 240.65 138.40 241.08 Z M 137.61 241.54 L 136.76 242.01 C 136.01 242.44 135.74 243.39 136.16 244.14 C 136.59 244.89 137.54 245.16 138.29 244.74 L 139.14 244.26 C 139.89 243.84 140.15 242.88 139.73 242.13 C 139.31 241.38 138.36 241.11 137.61 241.54 Z M 136.77 242.01 L 135.91 242.48 C 135.15 242.89 134.87 243.84 135.29 244.60 C 135.70 245.35 136.65 245.63 137.40 245.22 L 138.27 244.74 C 139.03 244.33 139.31 243.38 138.89 242.63 C 138.48 241.87 137.53 241.59 136.77 242.01 Z M 135.93 242.47 L 135.02 242.94 C 134.26 243.35 133.97 244.29 134.37 245.05 C 134.77 245.82 135.71 246.11 136.48 245.71 L 137.38 245.23 C 138.15 244.83 138.44 243.89 138.04 243.12 C 137.64 242.36 136.69 242.07 135.93 242.47 Z M 135.05 242.93 L 134.14 243.39 C 133.37 243.78 133.06 244.72 133.45 245.49 C 133.83 246.26 134.77 246.57 135.54 246.18 L 136.45 245.72 C 137.22 245.33 137.53 244.39 137.14 243.62 C 136.75 242.85 135.82 242.54 135.05 242.93 Z M 134.16 243.38 L 133.25 243.82 C 132.47 244.19 132.14 245.13 132.52 245.90 C 132.89 246.68 133.82 247.01 134.60 246.63 L 135.52 246.19 C 136.29 245.82 136.62 244.88 136.25 244.11 C 135.87 243.33 134.94 243.00 134.16 243.38 Z M 133.27 243.81 L 132.35 244.23 C 131.56 244.59 131.22 245.51 131.58 246.30 C 131.94 247.08 132.86 247.43 133.65 247.07 L 134.57 246.64 C 135.36 246.29 135.70 245.36 135.34 244.58 C 134.98 243.79 134.06 243.45 133.27 243.81 Z M 132.38 244.21 L 131.47 244.60 C 130.68 244.95 130.31 245.86 130.66 246.66 C 131.00 247.45 131.91 247.81 132.71 247.47 L 133.61 247.08 C 134.41 246.74 134.77 245.82 134.43 245.03 C 134.09 244.24 133.17 243.87 132.38 244.21 Z M 131.52 244.58 L 130.54 244.97 C 129.74 245.28 129.34 246.19 129.65 246.99 C 129.97 247.79 130.87 248.19 131.68 247.88 L 132.66 247.49 C 133.46 247.18 133.86 246.27 133.54 245.47 C 133.23 244.67 132.33 244.27 131.52 244.58 Z M 130.66 244.93 L 129.67 245.23 C 128.84 245.48 128.38 246.35 128.63 247.17 C 128.88 248.00 129.75 248.46 130.57 248.21 L 131.56 247.92 C 132.39 247.67 132.85 246.80 132.60 245.97 C 132.35 245.14 131.48 244.68 130.66 244.93 Z M 129.91 245.17 L 128.97 245.31 C 128.11 245.43 127.52 246.21 127.64 247.07 C 127.76 247.92 128.55 248.52 129.40 248.40 L 130.34 248.27 C 131.19 248.15 131.79 247.36 131.67 246.50 C 131.55 245.65 130.76 245.05 129.91 245.17 Z M 129.33 245.30 L 128.42 245.21 C 127.56 245.13 126.80 245.76 126.72 246.62 C 126.64 247.48 127.27 248.24 128.12 248.32 L 129.04 248.41 C 129.90 248.49 130.66 247.86 130.74 247.00 C 130.82 246.14 130.19 245.38 129.33 245.30 Z M 128.77 245.29 L 127.86 244.98 C 127.04 244.70 126.16 245.14 125.88 245.96 C 125.60 246.77 126.04 247.66 126.86 247.94 L 127.77 248.24 C 128.59 248.52 129.47 248.08 129.75 247.27 C 130.03 246.45 129.59 245.56 128.77 245.29 Z M 128.06 245.06 L 127.16 244.61 C 126.39 244.22 125.45 244.53 125.06 245.30 C 124.67 246.07 124.98 247.01 125.75 247.39 L 126.66 247.85 C 127.43 248.24 128.36 247.93 128.75 247.16 C 129.14 246.39 128.83 245.45 128.06 245.06 Z M 127.24 244.65 L 126.44 244.19 C 125.70 243.76 124.74 244.01 124.31 244.75 C 123.88 245.50 124.13 246.45 124.87 246.89 L 125.67 247.35 C 126.41 247.78 127.37 247.53 127.80 246.79 C 128.24 246.04 127.98 245.09 127.24 244.65 Z"
      fill="black"
      fill-rule="nonzero" /></svg>