<svg xmlns="http://www.w3.org/2000/svg" width="300" height="300" viewBox="0 0 300 300">
<path d="M 116.31 84.45 L 117.24 84.73 C 118.07 84.98 118.94 84.52 119.19 83.69 C 119.44 82.87 118.98 82.00 118.15 81.74 L 117.22 81.46 C 116.40 81.21 115.53 81.67 115.28 82.50 C 115.02 83.32 115.49 84.19 116.31 84.45 Z M 117.27 84.74 L 118.21 85.01 C 119.04 85.25 119.91 84.77 120.14 83.94 C 120.38 83.11 119.90 82.24 119.07 82.01 L 118.13 81.74 C 117.30 81.50 116.43 81.98 116.20 82.81 C 115.96 83.64 116.44 84.50 117.27 84.74 Z M 118.27 85.02 L 119.25 85.27 C 120.08 85.47 120.93 84.97 121.14 84.13 C 121.35 83.29 120.84 82.44 120.00 82.24 L 119.02 81.99 C 118.18 81.78 117.34 82.29 117.13 83.13 C 116.92 83.97 117.43 84.81 118.27 85.02 Z M 119.32 85.28 L 120.30 85.48 C 121.14 85.65 121.96 85.10 122.13 84.25 C 122.30 83.41 121.75 82.59 120.91 82.42 L 119.93 82.22 C 119.08 82.05 118.26 82.60 118.09 83.45 C 117.92 84.29 118.47 85.11 119.32 85.28 Z M 120.36 85.49 L 121.24 85.63 C 122.09 85.76 122.89 85.18 123.03 84.33 C 123.16 83.47 122.58 82.68 121.72 82.54 L 120.84 82.40 C 119.99 82.27 119.19 82.85 119.06 83.71 C 118.93 84.56 119.51 85.36 120.36 85.49 Z M 121.27 85.63 L 122.21 85.76 C 123.06 85.88 123.85 85.28 123.97 84.42 C 124.09 83.57 123.49 82.78 122.63 82.67 L 121.69 82.54 C 120.84 82.42 120.05 83.02 119.94 83.87 C 119.82 84.73 120.42 85.51 121.27 85.63 Z M 122.21 85.76 L 123.22 85.90 C 124.08 86.01 124.86 85.41 124.98 84.56 C 125.09 83.71 124.50 82.92 123.64 82.80 L 122.63 82.67 C 121.78 82.55 120.99 83.15 120.87 84.00 C 120.76 84.86 121.36 85.64 122.21 85.76 Z M 123.20 85.89 L 124.30 86.06 C 125.15 86.18 125.95 85.60 126.07 84.74 C 126.20 83.89 125.61 83.10 124.76 82.97 L 123.66 82.81 C 122.81 82.68 122.01 83.27 121.89 84.12 C 121.76 84.97 122.35 85.77 123.20 85.89 Z M 124.27 86.05 L 125.26 86.22 C 126.11 86.37 126.92 85.80 127.07 84.95 C 127.21 84.10 126.64 83.29 125.79 83.14 L 124.79 82.97 C 123.94 82.83 123.13 83.40 122.99 84.25 C 122.84 85.10 123.42 85.91 124.27 86.05 Z M 125.24 86.22 L 126.17 86.40 C 127.02 86.56 127.84 86.00 128.00 85.15 C 128.16 84.31 127.60 83.49 126.76 83.33 L 125.82 83.15 C 124.97 82.99 124.15 83.54 123.99 84.39 C 123.83 85.24 124.39 86.06 125.24 86.22 Z M 126.15 86.39 L 127.12 86.59 C 127.97 86.76 128.79 86.22 128.97 85.38 C 129.14 84.53 128.60 83.71 127.75 83.53 L 126.78 83.33 C 125.93 83.16 125.11 83.70 124.94 84.55 C 124.76 85.39 125.31 86.22 126.15 86.39 Z M 127.11 86.59 L 128.10 86.80 C 128.95 86.99 129.78 86.45 129.96 85.61 C 130.14 84.77 129.61 83.94 128.77 83.75 L 127.77 83.54 C 126.93 83.35 126.10 83.89 125.91 84.73 C 125.73 85.57 126.26 86.40 127.11 86.59 Z M 128.09 86.80 L 129.10 87.03 C 129.94 87.22 130.77 86.70 130.97 85.86 C 131.16 85.02 130.63 84.18 129.79 83.99 L 128.78 83.76 C 127.94 83.56 127.11 84.09 126.91 84.93 C 126.72 85.77 127.25 86.61 128.09 86.80 Z M 129.08 87.03 L 130.09 87.27 C 130.93 87.47 131.77 86.95 131.97 86.11 C 132.17 85.27 131.65 84.43 130.81 84.23 L 129.81 83.99 C 128.97 83.79 128.13 84.31 127.93 85.15 C 127.73 85.99 128.24 86.83 129.08 87.03 Z M 130.08 87.26 L 131.11 87.52 C 131.95 87.73 132.80 87.22 133.00 86.38 C 133.21 85.54 132.70 84.70 131.86 84.49 L 130.83 84.23 C 129.99 84.03 129.14 84.54 128.94 85.37 C 128.73 86.21 129.24 87.06 130.08 87.26 Z M 131.10 87.52 L 132.17 87.79 C 133.01 88.01 133.86 87.50 134.07 86.67 C 134.28 85.83 133.78 84.98 132.95 84.77 L 131.87 84.49 C 131.04 84.28 130.19 84.78 129.97 85.62 C 129.76 86.45 130.26 87.30 131.10 87.52 Z M 132.16 87.79 L 133.19 88.06 C 134.02 88.28 134.88 87.78 135.10 86.95 C 135.32 86.12 134.82 85.26 133.98 85.04 L 132.96 84.77 C 132.12 84.55 131.27 85.05 131.05 85.88 C 130.83 86.71 131.33 87.57 132.16 87.79 Z M 133.18 88.06 L 134.15 88.32 C 134.98 88.55 135.84 88.06 136.07 87.22 C 136.29 86.39 135.80 85.53 134.97 85.31 L 133.99 85.04 C 133.16 84.82 132.31 85.31 132.08 86.14 C 131.85 86.97 132.35 87.83 133.18 88.06 Z M 134.14 88.32 L 135.05 88.57 C 135.88 88.80 136.74 88.32 136.97 87.49 C 137.20 86.65 136.72 85.79 135.89 85.56 L 134.98 85.31 C 134.15 85.08 133.29 85.57 133.06 86.40 C 132.82 87.23 133.31 88.09 134.14 88.32 Z M 135.04 88.57 L 135.87 88.81 C 136.70 89.04 137.57 88.56 137.80 87.73 C 138.04 86.90 137.56 86.04 136.73 85.80 L 135.90 85.57 C 135.07 85.33 134.20 85.81 133.97 86.64 C 133.73 87.47 134.21 88.33 135.04 88.57 Z M 135.86 88.80 L 136.85 89.09 C 137.67 89.33 138.54 88.86 138.78 88.03 C 139.03 87.20 138.55 86.34 137.72 86.09 L 136.74 85.81 C 135.91 85.56 135.04 86.04 134.80 86.87 C 134.56 87.69 135.03 88.56 135.86 88.80 Z M 136.83 89.08 L 137.76 89.37 C 138.59 89.63 139.46 89.16 139.71 88.34 C 139.97 87.51 139.50 86.64 138.68 86.39 L 137.74 86.10 C 136.92 85.85 136.05 86.31 135.79 87.13 C 135.54 87.96 136.00 88.83 136.83 89.08 Z M 137.73 89.36 L 138.63 89.66 C 139.45 89.93 140.33 89.48 140.60 88.66 C 140.87 87.84 140.43 86.96 139.61 86.69 L 138.71 86.40 C 137.89 86.13 137.01 86.57 136.74 87.39 C 136.47 88.21 136.91 89.09 137.73 89.36 Z M 138.60 89.65 L 139.55 89.98 C 140.36 90.27 141.25 89.84 141.54 89.03 C 141.83 88.21 141.40 87.32 140.58 87.04 L 139.64 86.70 C 138.83 86.42 137.93 86.84 137.65 87.66 C 137.36 88.47 137.79 89.36 138.60 89.65 Z M 139.52 89.97 L 140.43 90.31 C 141.24 90.61 142.14 90.20 142.44 89.39 C 142.74 88.58 142.32 87.68 141.52 87.38 L 140.61 87.04 C 139.80 86.75 138.90 87.16 138.60 87.97 C 138.30 88.77 138.72 89.67 139.52 89.97 Z M 140.42 90.30 L 141.37 90.67 C 142.17 90.97 143.07 90.57 143.38 89.77 C 143.69 88.96 143.29 88.06 142.48 87.75 L 141.53 87.39 C 140.73 87.08 139.82 87.48 139.51 88.29 C 139.21 89.09 139.61 90.00 140.42 90.30 Z M 141.36 90.66 L 142.32 91.04 C 143.13 91.35 144.03 90.96 144.35 90.15 C 144.66 89.35 144.26 88.44 143.46 88.13 L 142.49 87.75 C 141.69 87.44 140.78 87.84 140.47 88.64 C 140.16 89.44 140.55 90.35 141.36 90.66 Z M 142.32 91.04 L 143.26 91.41 C 144.06 91.73 144.97 91.34 145.29 90.53 C 145.61 89.73 145.21 88.82 144.41 88.51 L 143.47 88.13 C 142.66 87.82 141.76 88.21 141.44 89.01 C 141.12 89.81 141.52 90.72 142.32 91.04 Z M 143.26 91.41 L 144.16 91.77 C 144.96 92.09 145.87 91.70 146.19 90.90 C 146.51 90.10 146.12 89.19 145.32 88.87 L 144.42 88.51 C 143.62 88.19 142.71 88.58 142.39 89.38 C 142.07 90.18 142.46 91.09 143.26 91.41 Z M 144.15 91.77 L 145.04 92.12 C 145.84 92.45 146.75 92.06 147.07 91.26 C 147.39 90.46 147.00 89.55 146.20 89.23 L 145.32 88.87 C 144.52 88.55 143.61 88.94 143.29 89.74 C 142.97 90.54 143.35 91.44 144.15 91.77 Z M 145.04 92.12 L 145.90 92.47 C 146.70 92.80 147.61 92.41 147.93 91.61 C 148.25 90.81 147.87 89.90 147.07 89.58 L 146.21 89.23 C 145.41 88.90 144.50 89.29 144.17 90.09 C 143.85 90.89 144.24 91.80 145.04 92.12 Z M 145.90 92.47 L 146.81 92.84 C 147.61 93.17 148.52 92.78 148.85 91.98 C 149.17 91.19 148.79 90.27 147.99 89.95 L 147.07 89.58 C 146.27 89.25 145.36 89.64 145.04 90.44 C 144.71 91.24 145.10 92.15 145.90 92.47 Z M 146.82 92.84 L 147.85 93.26 C 148.65 93.59 149.56 93.20 149.88 92.40 C 150.21 91.60 149.82 90.69 149.02 90.37 L 147.99 89.95 C 147.19 89.63 146.28 90.01 145.95 90.81 C 145.63 91.61 146.02 92.52 146.82 92.84 Z M 147.85 93.26 L 148.68 93.60 C 149.48 93.92 150.39 93.53 150.71 92.73 C 151.03 91.93 150.65 91.02 149.85 90.70 L 149.02 90.37 C 148.22 90.05 147.31 90.43 146.99 91.23 C 146.66 92.03 147.05 92.94 147.85 93.26 Z M 148.68 93.60 L 149.59 93.96 C 150.39 94.28 151.29 93.89 151.61 93.09 C 151.93 92.29 151.54 91.38 150.74 91.06 L 149.84 90.70 C 149.04 90.38 148.13 90.77 147.81 91.57 C 147.49 92.37 147.88 93.28 148.68 93.60 Z M 149.59 93.96 L 150.54 94.34 C 151.35 94.65 152.25 94.26 152.57 93.46 C 152.88 92.65 152.49 91.75 151.69 91.43 L 150.74 91.06 C 149.93 90.74 149.03 91.13 148.71 91.94 C 148.40 92.74 148.79 93.65 149.59 93.96 Z M 150.55 94.34 L 151.53 94.72 C 152.34 95.03 153.24 94.63 153.55 93.83 C 153.86 93.02 153.46 92.12 152.66 91.81 L 151.68 91.43 C 150.88 91.12 149.97 91.52 149.66 92.32 C 149.35 93.13 149.75 94.03 150.55 94.34 Z M 151.54 94.72 L 152.53 95.09 C 153.33 95.40 154.23 94.99 154.54 94.18 C 154.84 93.38 154.43 92.48 153.63 92.17 L 152.65 91.80 C 151.84 91.50 150.94 91.91 150.63 92.71 C 150.33 93.52 150.74 94.42 151.54 94.72 Z M 152.54 95.10 L 153.50 95.45 C 154.31 95.75 155.21 95.33 155.51 94.52 C 155.80 93.71 155.38 92.81 154.57 92.52 L 153.61 92.17 C 152.80 91.87 151.91 92.29 151.61 93.10 C 151.31 93.91 151.73 94.80 152.54 95.10 Z M 153.53 95.46 L 154.54 95.81 C 155.35 96.09 156.24 95.66 156.53 94.85 C 156.81 94.03 156.38 93.14 155.56 92.86 L 154.55 92.51 C 153.74 92.23 152.85 92.66 152.56 93.47 C 152.28 94.29 152.71 95.18 153.53 95.46 Z M 154.57 95.82 L 155.54 96.14 C 156.36 96.41 157.24 95.96 157.51 95.14 C 157.78 94.32 157.34 93.44 156.52 93.17 L 155.54 92.85 C 154.72 92.58 153.84 93.03 153.57 93.85 C 153.30 94.67 153.75 95.55 154.57 95.82 Z M 155.57 96.15 L 156.52 96.44 C 157.34 96.69 158.21 96.23 158.47 95.41 C 158.72 94.58 158.26 93.71 157.44 93.46 L 156.49 93.16 C 155.67 92.91 154.79 93.37 154.54 94.20 C 154.28 95.02 154.75 95.89 155.57 96.15 Z M 156.54 96.45 L 157.47 96.72 C 158.30 96.96 159.17 96.48 159.41 95.65 C 159.65 94.82 159.17 93.96 158.34 93.72 L 157.41 93.45 C 156.58 93.21 155.72 93.69 155.48 94.51 C 155.24 95.34 155.71 96.21 156.54 96.45 Z M 157.50 96.72 L 158.42 96.98 C 159.26 97.20 160.11 96.71 160.34 95.88 C 160.57 95.05 160.08 94.19 159.24 93.96 L 158.32 93.71 C 157.48 93.48 156.63 93.98 156.40 94.81 C 156.17 95.64 156.67 96.50 157.50 96.72 Z M 158.44 96.98 L 159.36 97.22 C 160.20 97.43 161.05 96.93 161.26 96.09 C 161.48 95.26 160.97 94.41 160.14 94.19 L 159.22 93.96 C 158.39 93.74 157.54 94.25 157.32 95.08 C 157.11 95.92 157.61 96.77 158.44 96.98 Z M 159.38 97.22 L 160.28 97.44 C 161.12 97.65 161.97 97.14 162.17 96.30 C 162.38 95.46 161.87 94.62 161.03 94.41 L 160.12 94.19 C 159.28 93.98 158.44 94.50 158.23 95.33 C 158.03 96.17 158.54 97.02 159.38 97.22 Z M 160.29 97.45 L 161.23 97.67 C 162.07 97.87 162.91 97.35 163.11 96.51 C 163.31 95.67 162.79 94.83 161.95 94.63 L 161.02 94.41 C 160.18 94.21 159.34 94.73 159.14 95.57 C 158.94 96.41 159.46 97.25 160.29 97.45 Z M 161.23 97.67 L 162.20 97.90 C 163.04 98.09 163.88 97.57 164.07 96.73 C 164.27 95.89 163.75 95.05 162.91 94.86 L 161.94 94.63 C 161.11 94.43 160.27 94.95 160.07 95.79 C 159.87 96.63 160.39 97.47 161.23 97.67 Z M 162.20 97.90 L 163.20 98.13 C 164.04 98.33 164.88 97.81 165.07 96.97 C 165.27 96.13 164.75 95.29 163.91 95.09 L 162.91 94.86 C 162.07 94.66 161.23 95.18 161.03 96.02 C 160.84 96.86 161.36 97.70 162.20 97.90 Z M 163.20 98.13 L 164.24 98.38 C 165.08 98.57 165.92 98.06 166.12 97.22 C 166.32 96.38 165.80 95.54 164.96 95.34 L 163.91 95.09 C 163.07 94.89 162.23 95.41 162.04 96.25 C 161.84 97.09 162.36 97.93 163.20 98.13 Z M 164.24 98.38 L 165.23 98.61 C 166.07 98.82 166.91 98.30 167.11 97.46 C 167.31 96.62 166.80 95.78 165.96 95.58 L 164.97 95.34 C 164.13 95.14 163.29 95.65 163.08 96.49 C 162.88 97.33 163.40 98.17 164.24 98.38 Z M 165.22 98.61 L 166.18 98.85 C 167.02 99.05 167.86 98.54 168.07 97.70 C 168.27 96.86 167.76 96.02 166.92 95.81 L 165.96 95.58 C 165.13 95.37 164.28 95.89 164.08 96.73 C 163.87 97.56 164.39 98.41 165.22 98.61 Z M 166.18 98.85 L 167.16 99.09 C 167.99 99.29 168.84 98.78 169.05 97.94 C 169.25 97.11 168.74 96.26 167.90 96.06 L 166.92 95.81 C 166.09 95.61 165.24 96.12 165.03 96.96 C 164.83 97.79 165.34 98.64 166.18 98.85 Z M 167.15 99.09 L 168.15 99.33 C 168.98 99.54 169.83 99.03 170.04 98.19 C 170.24 97.35 169.73 96.51 168.89 96.30 L 167.90 96.06 C 167.07 95.85 166.22 96.36 166.01 97.20 C 165.81 98.03 166.32 98.88 167.15 99.09 Z M 168.15 99.33 L 169.14 99.58 C 169.98 99.78 170.82 99.27 171.03 98.43 C 171.23 97.60 170.72 96.75 169.88 96.54 L 168.89 96.30 C 168.06 96.09 167.21 96.61 167.00 97.44 C 166.80 98.28 167.31 99.13 168.15 99.33 Z M 169.14 99.58 L 170.12 99.82 C 170.96 100.02 171.81 99.51 172.01 98.67 C 172.21 97.83 171.70 96.99 170.86 96.78 L 169.88 96.54 C 169.04 96.34 168.20 96.85 167.99 97.69 C 167.79 98.53 168.30 99.37 169.14 99.58 Z M 170.13 99.82 L 171.09 100.05 C 171.93 100.25 172.77 99.73 172.97 98.89 C 173.17 98.06 172.66 97.21 171.82 97.01 L 170.86 96.78 C 170.02 96.58 169.18 97.10 168.97 97.93 C 168.77 98.77 169.29 99.62 170.13 99.82 Z M 171.10 100.05 L 172.15 100.29 C 172.99 100.49 173.83 99.97 174.02 99.13 C 174.22 98.29 173.70 97.45 172.86 97.25 L 171.81 97.01 C 170.97 96.81 170.13 97.33 169.94 98.17 C 169.74 99.01 170.26 99.85 171.10 100.05 Z M 172.15 100.30 L 173.21 100.54 C 174.05 100.73 174.88 100.20 175.08 99.36 C 175.27 98.52 174.74 97.68 173.90 97.49 L 172.85 97.25 C 172.01 97.06 171.17 97.59 170.98 98.43 C 170.79 99.27 171.31 100.10 172.15 100.30 Z M 173.21 100.54 L 174.22 100.76 C 175.06 100.95 175.89 100.43 176.08 99.58 C 176.27 98.74 175.74 97.91 174.90 97.72 L 173.90 97.49 C 173.06 97.30 172.22 97.83 172.03 98.67 C 171.84 99.51 172.37 100.35 173.21 100.54 Z M 174.22 100.76 L 175.18 100.98 C 176.02 101.17 176.86 100.64 177.05 99.80 C 177.23 98.96 176.71 98.12 175.86 97.93 L 174.90 97.72 C 174.06 97.53 173.23 98.06 173.04 98.90 C 172.85 99.74 173.38 100.58 174.22 100.76 Z M 175.18 100.98 L 176.09 101.19 C 176.93 101.38 177.77 100.85 177.96 100.01 C 178.15 99.17 177.63 98.34 176.79 98.14 L 175.87 97.93 C 175.03 97.74 174.19 98.27 174.00 99.11 C 173.81 99.95 174.33 100.79 175.18 100.98 Z M 176.08 101.19 L 176.96 101.39 C 177.80 101.59 178.64 101.07 178.83 100.23 C 179.03 99.39 178.51 98.55 177.67 98.35 L 176.80 98.15 C 175.96 97.95 175.12 98.47 174.92 99.31 C 174.72 100.15 175.24 100.99 176.08 101.19 Z M 176.94 101.39 L 177.98 101.64 C 178.82 101.85 179.67 101.34 179.87 100.50 C 180.08 99.67 179.57 98.82 178.73 98.61 L 177.69 98.36 C 176.85 98.15 176.01 98.66 175.80 99.50 C 175.59 100.33 176.10 101.18 176.94 101.39 Z M 177.97 101.64 L 178.98 101.90 C 179.82 102.12 180.67 101.62 180.89 100.78 C 181.10 99.95 180.60 99.10 179.77 98.88 L 178.75 98.62 C 177.91 98.40 177.06 98.90 176.85 99.74 C 176.63 100.57 177.13 101.42 177.97 101.64 Z M 178.97 101.90 L 179.93 102.16 C 180.76 102.38 181.62 101.88 181.84 101.05 C 182.06 100.22 181.57 99.36 180.73 99.14 L 179.78 98.88 C 178.95 98.66 178.09 99.16 177.87 99.99 C 177.65 100.82 178.14 101.68 178.97 101.90 Z M 179.93 102.16 L 180.83 102.40 C 181.66 102.62 182.52 102.13 182.74 101.30 C 182.96 100.46 182.47 99.61 181.64 99.38 L 180.74 99.14 C 179.90 98.92 179.05 99.41 178.82 100.24 C 178.60 101.07 179.09 101.93 179.93 102.16 Z M 180.83 102.40 L 181.81 102.66 C 182.64 102.88 183.49 102.38 183.71 101.54 C 183.93 100.71 183.44 99.86 182.60 99.64 L 181.63 99.38 C 180.80 99.16 179.94 99.66 179.72 100.49 C 179.50 101.33 180.00 102.18 180.83 102.40 Z M 181.80 102.65 L 182.87 102.94 C 183.70 103.17 184.56 102.67 184.79 101.84 C 185.01 101.01 184.52 100.15 183.68 99.93 L 182.61 99.64 C 181.78 99.41 180.92 99.91 180.70 100.74 C 180.47 101.57 180.96 102.43 181.80 102.65 Z M 182.79 102.92 L 183.72 103.22 C 184.54 103.49 185.42 103.04 185.68 102.22 C 185.95 101.40 185.50 100.52 184.68 100.25 L 183.76 99.95 C 182.94 99.68 182.06 100.13 181.79 100.95 C 181.53 101.77 181.98 102.65 182.79 102.92 Z M 183.51 103.13 L 184.29 103.52 C 185.06 103.90 186.00 103.59 186.38 102.81 C 186.76 102.04 186.44 101.11 185.67 100.72 L 184.89 100.34 C 184.12 99.95 183.18 100.27 182.80 101.04 C 182.42 101.82 182.73 102.75 183.51 103.13 Z M 183.87 103.22 L 184.58 103.94 C 185.18 104.55 186.17 104.56 186.78 103.96 C 187.40 103.35 187.41 102.37 186.80 101.75 L 186.09 101.03 C 185.49 100.41 184.50 100.40 183.89 101.01 C 183.27 101.61 183.26 102.60 183.87 103.22 Z M 184.33 103.61 L 184.67 104.23 C 185.09 104.98 186.04 105.25 186.80 104.83 C 187.55 104.41 187.82 103.46 187.40 102.71 L 187.05 102.09 C 186.63 101.33 185.68 101.06 184.93 101.48 C 184.18 101.90 183.91 102.85 184.33 103.61 Z"
      fill="black"
      fill-rule="nonzero" /><path d="M 106.45 115.74 L 105.90 116.61 C 105.45 117.34 105.67 118.30 106.40 118.76 C 107.13 119.22 108.09 119.00 108.55 118.27 L 109.09 117.40 C 109.55 116.67 109.33 115.71 108.60 115.25 C 107.87 114.79 106.90 115.01 106.45 115.74 Z M 105.88 116.65 L 105.37 117.52 C 104.94 118.27 105.19 119.22 105.93 119.66 C 106.68 120.09 107.63 119.84 108.07 119.09 L 108.58 118.22 C 109.01 117.48 108.76 116.52 108.01 116.09 C 107.27 115.65 106.31 115.91 105.88 116.65 Z M 105.32 117.61 L 104.88 118.50 C 104.50 119.27 104.82 120.20 105.59 120.59 C 106.36 120.97 107.30 120.66 107.68 119.88 L 108.12 119.00 C 108.50 118.23 108.19 117.29 107.41 116.91 C 106.64 116.53 105.71 116.84 105.32 117.61 Z M 104.82 118.64 L 104.48 119.56 C 104.18 120.37 104.59 121.27 105.39 121.57 C 106.20 121.87 107.10 121.46 107.40 120.65 L 107.74 119.73 C 108.05 118.93 107.63 118.03 106.83 117.73 C 106.02 117.43 105.12 117.84 104.82 118.64 Z M 104.43 119.73 L 104.19 120.68 C 103.98 121.52 104.48 122.36 105.32 122.58 C 106.16 122.79 107.00 122.28 107.21 121.44 L 107.45 120.49 C 107.66 119.65 107.16 118.80 106.32 118.59 C 105.48 118.38 104.64 118.89 104.43 119.73 Z M 104.16 120.81 L 104.00 121.80 C 103.86 122.65 104.44 123.45 105.29 123.59 C 106.14 123.73 106.94 123.15 107.08 122.30 L 107.24 121.31 C 107.38 120.46 106.80 119.66 105.95 119.52 C 105.10 119.38 104.30 119.96 104.16 120.81 Z M 103.99 121.89 L 103.88 122.89 C 103.79 123.75 104.41 124.52 105.27 124.61 C 106.13 124.70 106.90 124.08 106.99 123.22 L 107.09 122.21 C 107.18 121.36 106.56 120.59 105.70 120.50 C 104.85 120.41 104.08 121.03 103.99 121.89 Z M 103.88 122.94 L 103.81 123.92 C 103.74 124.78 104.39 125.53 105.25 125.59 C 106.11 125.66 106.86 125.01 106.92 124.15 L 106.99 123.17 C 107.05 122.31 106.41 121.56 105.55 121.50 C 104.69 121.43 103.94 122.08 103.88 122.94 Z M 103.80 123.95 L 103.75 124.95 C 103.70 125.81 104.35 126.55 105.22 126.60 C 106.08 126.65 106.81 125.99 106.86 125.13 L 106.92 124.13 C 106.97 123.27 106.31 122.53 105.45 122.48 C 104.59 122.43 103.85 123.09 103.80 123.95 Z M 103.75 124.96 L 103.69 125.97 C 103.65 126.84 104.31 127.57 105.17 127.61 C 106.03 127.66 106.77 127.00 106.81 126.14 L 106.86 125.12 C 106.91 124.26 106.25 123.53 105.39 123.48 C 104.52 123.44 103.79 124.10 103.75 124.96 Z M 103.69 125.97 L 103.64 126.94 C 103.59 127.80 104.25 128.54 105.11 128.59 C 105.97 128.64 106.71 127.98 106.76 127.12 L 106.81 126.14 C 106.86 125.28 106.20 124.55 105.34 124.50 C 104.48 124.45 103.74 125.11 103.69 125.97 Z M 103.64 126.94 L 103.58 127.91 C 103.53 128.77 104.18 129.51 105.04 129.56 C 105.90 129.61 106.64 128.96 106.70 128.10 L 106.76 127.13 C 106.81 126.27 106.15 125.53 105.29 125.47 C 104.43 125.42 103.69 126.08 103.64 126.94 Z M 103.58 127.91 L 103.52 128.90 C 103.47 129.77 104.12 130.51 104.98 130.56 C 105.85 130.61 106.59 129.95 106.64 129.09 L 106.70 128.09 C 106.75 127.23 106.09 126.49 105.23 126.44 C 104.37 126.39 103.63 127.05 103.58 127.91 Z M 103.52 128.91 L 103.46 129.96 C 103.42 130.82 104.08 131.56 104.94 131.60 C 105.80 131.65 106.53 130.99 106.58 130.13 L 106.64 129.08 C 106.68 128.22 106.02 127.49 105.16 127.44 C 104.30 127.39 103.57 128.05 103.52 128.91 Z M 103.46 129.97 L 103.42 130.89 C 103.38 131.75 104.05 132.49 104.91 132.52 C 105.77 132.56 106.50 131.90 106.54 131.04 L 106.58 130.12 C 106.62 129.26 105.95 128.53 105.09 128.49 C 104.23 128.45 103.50 129.11 103.46 129.97 Z M 103.42 130.90 L 103.38 131.85 C 103.35 132.72 104.02 133.44 104.88 133.48 C 105.74 133.51 106.47 132.84 106.50 131.98 L 106.54 131.03 C 106.57 130.17 105.90 129.44 105.04 129.40 C 104.18 129.37 103.45 130.04 103.42 130.90 Z M 103.38 131.86 L 103.34 132.86 C 103.31 133.72 103.98 134.45 104.85 134.48 C 105.71 134.51 106.43 133.84 106.46 132.98 L 106.50 131.97 C 106.53 131.11 105.86 130.39 105.00 130.36 C 104.14 130.32 103.41 131.00 103.38 131.86 Z M 103.34 132.86 L 103.31 133.92 C 103.27 134.78 103.95 135.50 104.81 135.53 C 105.67 135.57 106.39 134.89 106.43 134.03 L 106.46 132.98 C 106.50 132.11 105.82 131.39 104.96 131.36 C 104.10 131.33 103.38 132.00 103.34 132.86 Z M 103.31 133.91 L 103.27 134.99 C 103.23 135.86 103.90 136.58 104.77 136.61 C 105.63 136.65 106.35 135.97 106.39 135.11 L 106.43 134.03 C 106.46 133.17 105.79 132.45 104.92 132.41 C 104.06 132.38 103.34 133.05 103.31 133.91 Z M 103.27 134.99 L 103.22 136.03 C 103.19 136.89 103.86 137.62 104.72 137.65 C 105.58 137.68 106.31 137.01 106.34 136.15 L 106.38 135.12 C 106.42 134.25 105.75 133.53 104.89 133.49 C 104.03 133.46 103.30 134.13 103.27 134.99 Z M 103.22 136.02 L 103.18 137.07 C 103.14 137.93 103.81 138.66 104.67 138.69 C 105.53 138.73 106.26 138.06 106.30 137.20 L 106.34 136.16 C 106.38 135.30 105.71 134.57 104.85 134.53 C 103.99 134.49 103.26 135.16 103.22 136.02 Z M 103.18 137.06 L 103.13 138.09 C 103.09 138.95 103.76 139.68 104.62 139.72 C 105.48 139.76 106.21 139.09 106.25 138.23 L 106.30 137.21 C 106.34 136.35 105.67 135.61 104.81 135.58 C 103.95 135.54 103.22 136.20 103.18 137.06 Z M 103.13 138.08 L 103.08 139.06 C 103.04 139.92 103.70 140.65 104.57 140.69 C 105.43 140.74 106.16 140.07 106.20 139.21 L 106.25 138.24 C 106.29 137.38 105.63 136.64 104.77 136.60 C 103.91 136.56 103.18 137.22 103.13 138.08 Z M 103.08 139.05 L 103.03 139.97 C 102.99 140.83 103.65 141.57 104.51 141.61 C 105.37 141.66 106.10 141.00 106.15 140.14 L 106.20 139.22 C 106.25 138.36 105.59 137.62 104.73 137.58 C 103.87 137.53 103.13 138.19 103.08 139.05 Z M 103.03 139.96 L 102.97 141.00 C 102.91 141.86 103.57 142.60 104.43 142.66 C 105.29 142.71 106.03 142.06 106.08 141.20 L 106.15 140.15 C 106.20 139.29 105.55 138.55 104.69 138.50 C 103.83 138.44 103.09 139.10 103.03 139.96 Z M 102.97 140.99 L 102.90 141.94 C 102.84 142.80 103.49 143.55 104.35 143.61 C 105.21 143.67 105.95 143.03 106.02 142.17 L 106.08 141.21 C 106.15 140.35 105.50 139.60 104.64 139.54 C 103.78 139.48 103.03 140.13 102.97 140.99 Z M 102.90 141.93 L 102.83 142.89 C 102.76 143.75 103.41 144.50 104.26 144.57 C 105.12 144.63 105.88 143.99 105.94 143.13 L 106.01 142.17 C 106.08 141.31 105.44 140.56 104.58 140.50 C 103.72 140.43 102.97 141.08 102.90 141.93 Z M 102.83 142.89 L 102.75 143.88 C 102.68 144.74 103.33 145.50 104.19 145.56 C 105.05 145.63 105.80 144.99 105.86 144.13 L 105.94 143.13 C 106.01 142.27 105.37 141.52 104.51 141.45 C 103.65 141.39 102.90 142.03 102.83 142.89 Z M 102.75 143.89 L 102.68 144.78 C 102.62 145.64 103.26 146.39 104.12 146.46 C 104.98 146.52 105.73 145.88 105.80 145.02 L 105.86 144.12 C 105.93 143.27 105.29 142.51 104.43 142.45 C 103.57 142.38 102.82 143.03 102.75 143.89 Z M 102.68 144.78 L 102.61 145.75 C 102.54 146.61 103.19 147.36 104.05 147.42 C 104.91 147.49 105.66 146.84 105.72 145.99 L 105.80 145.02 C 105.86 144.16 105.22 143.41 104.36 143.34 C 103.50 143.28 102.75 143.92 102.68 144.78 Z M 102.61 145.74 L 102.53 146.77 C 102.46 147.63 103.10 148.38 103.96 148.44 C 104.82 148.51 105.57 147.87 105.64 147.01 L 105.72 145.99 C 105.79 145.13 105.15 144.38 104.29 144.31 C 103.43 144.24 102.68 144.88 102.61 145.74 Z M 102.53 146.76 L 102.44 147.82 C 102.37 148.68 103.01 149.43 103.87 149.50 C 104.73 149.57 105.49 148.93 105.56 148.07 L 105.64 147.01 C 105.71 146.15 105.07 145.40 104.21 145.33 C 103.35 145.26 102.60 145.90 102.53 146.76 Z M 102.44 147.82 L 102.35 148.88 C 102.28 149.74 102.92 150.49 103.78 150.57 C 104.64 150.64 105.39 150.00 105.47 149.14 L 105.56 148.08 C 105.63 147.22 104.99 146.46 104.13 146.39 C 103.27 146.32 102.52 146.96 102.44 147.82 Z M 102.35 148.87 L 102.27 149.80 C 102.20 150.66 102.83 151.42 103.69 151.49 C 104.55 151.57 105.31 150.94 105.38 150.08 L 105.46 149.15 C 105.54 148.29 104.91 147.53 104.05 147.46 C 103.19 147.38 102.43 148.01 102.35 148.87 Z M 102.27 149.79 L 102.18 150.74 C 102.10 151.60 102.73 152.36 103.59 152.44 C 104.45 152.52 105.21 151.89 105.29 151.03 L 105.38 150.09 C 105.46 149.23 104.83 148.47 103.97 148.39 C 103.11 148.30 102.35 148.94 102.27 149.79 Z M 102.19 150.73 L 102.09 151.70 C 102.00 152.55 102.63 153.32 103.49 153.41 C 104.35 153.49 105.11 152.86 105.20 152.01 L 105.29 151.04 C 105.38 150.18 104.75 149.42 103.89 149.33 C 103.04 149.24 102.27 149.87 102.19 150.73 Z M 102.09 151.69 L 101.98 152.69 C 101.89 153.55 102.51 154.32 103.37 154.41 C 104.23 154.50 105.00 153.88 105.09 153.02 L 105.19 152.02 C 105.29 151.16 104.66 150.39 103.81 150.30 C 102.95 150.21 102.18 150.83 102.09 151.69 Z M 101.98 152.68 L 101.87 153.73 C 101.77 154.59 102.39 155.36 103.25 155.45 C 104.10 155.55 104.87 154.93 104.97 154.08 L 105.09 153.03 C 105.18 152.17 104.57 151.40 103.71 151.30 C 102.85 151.21 102.08 151.82 101.98 152.68 Z M 101.87 153.72 L 101.74 154.80 C 101.64 155.65 102.25 156.43 103.11 156.53 C 103.97 156.63 104.74 156.02 104.84 155.16 L 104.97 154.09 C 105.07 153.23 104.46 152.45 103.60 152.35 C 102.75 152.25 101.97 152.86 101.87 153.72 Z M 101.74 154.79 L 101.62 155.77 C 101.52 156.63 102.12 157.41 102.98 157.52 C 103.84 157.62 104.61 157.01 104.72 156.16 L 104.84 155.17 C 104.95 154.32 104.34 153.54 103.48 153.43 C 102.63 153.33 101.85 153.93 101.74 154.79 Z M 101.62 155.77 L 101.49 156.78 C 101.38 157.64 101.99 158.42 102.84 158.53 C 103.70 158.64 104.48 158.03 104.59 157.18 L 104.72 156.16 C 104.83 155.31 104.22 154.53 103.37 154.42 C 102.51 154.31 101.73 154.91 101.62 155.77 Z M 101.49 156.78 L 101.36 157.80 C 101.25 158.66 101.85 159.44 102.70 159.55 C 103.56 159.66 104.34 159.06 104.45 158.21 L 104.59 157.18 C 104.70 156.33 104.10 155.54 103.24 155.43 C 102.39 155.32 101.61 155.92 101.49 156.78 Z M 101.36 157.79 L 101.22 158.82 C 101.11 159.67 101.70 160.46 102.56 160.57 C 103.41 160.69 104.20 160.09 104.32 159.23 L 104.45 158.21 C 104.57 157.36 103.97 156.57 103.12 156.46 C 102.26 156.34 101.48 156.94 101.36 157.79 Z M 101.22 158.81 L 101.08 159.81 C 100.96 160.66 101.56 161.45 102.41 161.57 C 103.27 161.69 104.06 161.10 104.18 160.24 L 104.31 159.24 C 104.43 158.39 103.84 157.60 102.98 157.48 C 102.13 157.36 101.34 157.96 101.22 158.81 Z M 101.08 159.80 L 100.95 160.77 C 100.82 161.62 101.42 162.41 102.27 162.54 C 103.12 162.66 103.91 162.07 104.04 161.21 L 104.17 160.25 C 104.30 159.39 103.70 158.60 102.85 158.48 C 102.00 158.36 101.21 158.95 101.08 159.80 Z M 100.95 160.76 L 100.80 161.73 C 100.68 162.58 101.27 163.38 102.12 163.50 C 102.97 163.63 103.77 163.04 103.89 162.19 L 104.04 161.22 C 104.16 160.37 103.57 159.57 102.72 159.45 C 101.87 159.32 101.07 159.91 100.95 160.76 Z M 100.80 161.72 L 100.63 162.84 C 100.50 163.70 101.08 164.49 101.94 164.63 C 102.79 164.76 103.59 164.17 103.72 163.32 L 103.89 162.20 C 104.02 161.35 103.44 160.55 102.59 160.42 C 101.73 160.29 100.94 160.87 100.80 161.72 Z M 100.63 162.83 L 100.47 163.86 C 100.33 164.71 100.91 165.52 101.76 165.65 C 102.61 165.79 103.41 165.21 103.55 164.36 L 103.72 163.33 C 103.85 162.48 103.27 161.68 102.42 161.54 C 101.57 161.40 100.77 161.98 100.63 162.83 Z M 100.47 163.85 L 100.31 164.81 C 100.16 165.66 100.73 166.46 101.58 166.61 C 102.43 166.75 103.24 166.18 103.38 165.33 L 103.55 164.37 C 103.69 163.52 103.12 162.72 102.27 162.57 C 101.42 162.43 100.61 163.00 100.47 163.85 Z M 100.31 164.79 L 100.15 165.70 C 99.99 166.55 100.56 167.36 101.41 167.51 C 102.26 167.66 103.07 167.10 103.22 166.25 L 103.38 165.34 C 103.53 164.50 102.97 163.68 102.12 163.53 C 101.27 163.38 100.46 163.95 100.31 164.79 Z M 100.15 165.69 L 99.98 166.57 C 99.83 167.41 100.39 168.23 101.23 168.39 C 102.08 168.54 102.90 167.99 103.05 167.14 L 103.22 166.26 C 103.38 165.41 102.82 164.60 101.97 164.44 C 101.12 164.28 100.31 164.84 100.15 165.69 Z M 99.99 166.55 L 99.79 167.55 C 99.63 168.40 100.18 169.22 101.03 169.38 C 101.88 169.54 102.70 168.99 102.86 168.14 L 103.05 167.15 C 103.22 166.30 102.66 165.48 101.82 165.32 C 100.97 165.15 100.15 165.71 99.99 166.55 Z M 99.80 167.54 L 99.60 168.53 C 99.43 169.37 99.98 170.19 100.83 170.36 C 101.67 170.53 102.49 169.98 102.66 169.14 L 102.86 168.15 C 103.03 167.30 102.48 166.48 101.63 166.31 C 100.78 166.15 99.96 166.70 99.80 167.54 Z M 99.60 168.52 L 99.40 169.50 C 99.23 170.35 99.78 171.17 100.63 171.34 C 101.47 171.51 102.30 170.96 102.47 170.12 L 102.66 169.14 C 102.83 168.29 102.28 167.47 101.44 167.30 C 100.59 167.13 99.77 167.68 99.60 168.52 Z M 99.40 169.50 L 99.21 170.47 C 99.04 171.32 99.59 172.14 100.43 172.31 C 101.28 172.48 102.10 171.93 102.27 171.09 L 102.47 170.11 C 102.63 169.27 102.09 168.45 101.24 168.28 C 100.40 168.11 99.57 168.66 99.40 169.50 Z M 99.21 170.48 L 99.02 171.43 C 98.86 172.28 99.41 173.10 100.25 173.26 C 101.10 173.43 101.92 172.88 102.09 172.03 L 102.27 171.08 C 102.44 170.24 101.89 169.41 101.04 169.25 C 100.20 169.08 99.37 169.63 99.21 170.48 Z M 99.02 171.43 L 98.84 172.37 C 98.68 173.22 99.23 174.04 100.08 174.20 C 100.92 174.36 101.74 173.81 101.91 172.96 L 102.09 172.03 C 102.25 171.18 101.70 170.36 100.85 170.20 C 100.00 170.03 99.19 170.59 99.02 171.43 Z M 98.84 172.37 L 98.65 173.32 C 98.49 174.17 99.04 174.99 99.88 175.16 C 100.73 175.32 101.55 174.77 101.72 173.92 L 101.90 172.97 C 102.07 172.12 101.52 171.30 100.67 171.13 C 99.83 170.97 99.01 171.52 98.84 172.37 Z M 98.66 173.31 L 98.45 174.31 C 98.28 175.15 98.83 175.97 99.67 176.15 C 100.52 176.32 101.34 175.77 101.51 174.93 L 101.72 173.93 C 101.89 173.09 101.34 172.26 100.50 172.09 C 99.65 171.92 98.83 172.47 98.66 173.31 Z M 98.46 174.29 L 98.24 175.33 C 98.06 176.18 98.59 177.00 99.44 177.18 C 100.28 177.36 101.11 176.83 101.29 175.98 L 101.51 174.94 C 101.69 174.10 101.15 173.27 100.31 173.09 C 99.47 172.91 98.64 173.45 98.46 174.29 Z M 98.24 175.31 L 98.01 176.31 C 97.82 177.15 98.35 177.99 99.19 178.18 C 100.04 178.37 100.87 177.84 101.06 177.00 L 101.29 176.00 C 101.47 175.16 100.95 174.32 100.11 174.13 C 99.26 173.94 98.43 174.47 98.24 175.31 Z M 98.02 176.30 L 97.78 177.30 C 97.58 178.14 98.10 178.98 98.94 179.18 C 99.78 179.38 100.62 178.86 100.82 178.02 L 101.06 177.01 C 101.25 176.17 100.73 175.33 99.89 175.14 C 99.06 174.94 98.22 175.46 98.02 176.30 Z M 97.78 177.29 L 97.54 178.30 C 97.33 179.14 97.85 179.98 98.69 180.19 C 99.52 180.39 100.37 179.88 100.57 179.04 L 100.82 178.03 C 101.02 177.19 100.51 176.35 99.67 176.14 C 98.83 175.94 97.99 176.45 97.78 177.29 Z M 97.54 178.29 L 97.29 179.27 C 97.08 180.11 97.59 180.96 98.43 181.17 C 99.27 181.38 100.11 180.87 100.32 180.03 L 100.57 179.05 C 100.78 178.21 100.27 177.37 99.43 177.16 C 98.60 176.95 97.75 177.45 97.54 178.29 Z M 97.30 179.26 L 97.06 180.19 C 96.84 181.03 97.35 181.88 98.18 182.09 C 99.02 182.31 99.87 181.81 100.08 180.97 L 100.32 180.04 C 100.54 179.21 100.03 178.36 99.20 178.14 C 98.36 177.93 97.51 178.43 97.30 179.26 Z M 97.06 180.18 L 96.80 181.19 C 96.58 182.02 97.07 182.87 97.91 183.09 C 98.74 183.31 99.60 182.81 99.82 181.98 L 100.08 180.98 C 100.30 180.15 99.80 179.29 98.97 179.07 C 98.13 178.85 97.28 179.35 97.06 180.18 Z M 96.80 181.17 L 96.52 182.19 C 96.29 183.02 96.78 183.88 97.61 184.11 C 98.45 184.33 99.31 183.84 99.53 183.01 L 99.81 182.00 C 100.04 181.16 99.55 180.31 98.72 180.08 C 97.89 179.85 97.03 180.34 96.80 181.17 Z M 96.53 182.16 L 96.26 183.09 C 96.02 183.92 96.50 184.78 97.32 185.02 C 98.15 185.26 99.02 184.79 99.26 183.96 L 99.53 183.04 C 99.77 182.21 99.29 181.34 98.46 181.10 C 97.63 180.86 96.77 181.34 96.53 182.16 Z M 96.27 183.06 L 95.99 183.95 C 95.74 184.77 96.20 185.64 97.02 185.90 C 97.85 186.15 98.72 185.69 98.98 184.87 L 99.25 183.99 C 99.51 183.16 99.05 182.29 98.22 182.03 C 97.40 181.78 96.52 182.24 96.27 183.06 Z M 96.00 183.92 L 95.72 184.79 C 95.44 185.61 95.89 186.49 96.71 186.76 C 97.53 187.03 98.41 186.59 98.68 185.77 L 98.97 184.90 C 99.24 184.08 98.79 183.20 97.97 182.92 C 97.16 182.65 96.27 183.10 96.00 183.92 Z M 95.72 184.76 L 95.41 185.66 C 95.13 186.47 95.56 187.36 96.37 187.65 C 97.18 187.93 98.07 187.50 98.36 186.69 L 98.67 185.79 C 98.96 184.98 98.53 184.09 97.71 183.80 C 96.90 183.52 96.01 183.95 95.72 184.76 Z M 95.42 185.63 L 95.07 186.57 C 94.77 187.38 95.19 188.28 96.00 188.58 C 96.80 188.87 97.70 188.46 98.00 187.65 L 98.35 186.71 C 98.65 185.91 98.24 185.01 97.43 184.71 C 96.62 184.41 95.72 184.82 95.42 185.63 Z M 95.08 186.54 L 94.70 187.53 C 94.38 188.34 94.78 189.24 95.58 189.56 C 96.39 189.87 97.29 189.47 97.60 188.67 L 97.99 187.68 C 98.31 186.88 97.91 185.97 97.11 185.66 C 96.30 185.34 95.40 185.74 95.08 186.54 Z M 94.71 187.51 L 94.25 188.63 C 93.92 189.42 94.30 190.34 95.10 190.66 C 95.89 190.99 96.81 190.61 97.13 189.81 L 97.59 188.70 C 97.92 187.90 97.54 186.99 96.74 186.66 C 95.95 186.33 95.03 186.71 94.71 187.51 Z M 94.26 188.59 L 93.76 189.71 C 93.41 190.50 93.77 191.42 94.56 191.77 C 95.35 192.12 96.27 191.77 96.62 190.98 L 97.12 189.85 C 97.47 189.06 97.11 188.14 96.32 187.79 C 95.54 187.44 94.61 187.80 94.26 188.59 Z M 93.80 189.63 L 93.34 190.53 C 92.95 191.30 93.25 192.24 94.01 192.64 C 94.78 193.03 95.72 192.73 96.12 191.96 L 96.58 191.06 C 96.97 190.29 96.67 189.35 95.90 188.96 C 95.14 188.56 94.20 188.87 93.80 189.63 Z M 93.48 190.31 L 93.12 190.79 C 92.60 191.48 92.73 192.46 93.42 192.98 C 94.11 193.50 95.09 193.36 95.61 192.67 L 95.97 192.19 C 96.49 191.50 96.36 190.52 95.67 190.00 C 94.98 189.48 94.00 189.62 93.48 190.31 Z M 95.47 190.63 L 95.19 190.35 C 94.58 189.74 93.60 189.73 92.98 190.34 C 92.37 190.94 92.36 191.93 92.97 192.54 L 93.25 192.83 C 93.86 193.44 94.85 193.45 95.46 192.84 C 96.07 192.24 96.08 191.25 95.47 190.63 Z M 95.64 191.41 L 95.62 190.27 C 95.60 189.41 94.89 188.73 94.02 188.74 C 93.16 188.76 92.48 189.47 92.50 190.34 L 92.52 191.48 C 92.54 192.34 93.25 193.02 94.11 193.01 C 94.97 192.99 95.66 192.28 95.64 191.41 Z M 95.61 190.45 L 95.72 189.27 C 95.80 188.41 95.17 187.65 94.31 187.57 C 93.45 187.49 92.69 188.12 92.61 188.98 L 92.50 190.16 C 92.42 191.02 93.05 191.78 93.91 191.86 C 94.77 191.94 95.53 191.31 95.61 190.45 Z M 95.71 189.36 L 95.86 188.37 C 95.99 187.52 95.41 186.72 94.56 186.59 C 93.70 186.46 92.91 187.05 92.77 187.90 L 92.62 188.89 C 92.49 189.74 93.07 190.54 93.93 190.67 C 94.78 190.80 95.58 190.21 95.71 189.36 Z M 95.84 188.46 L 96.05 187.48 C 96.23 186.64 95.70 185.81 94.85 185.63 C 94.01 185.45 93.18 185.99 93.00 186.83 L 92.79 187.81 C 92.61 188.65 93.15 189.48 93.99 189.66 C 94.84 189.84 95.66 189.30 95.84 188.46 Z M 96.03 187.57 L 96.30 186.61 C 96.53 185.78 96.04 184.92 95.21 184.69 C 94.38 184.46 93.52 184.95 93.29 185.78 L 93.02 186.74 C 92.79 187.57 93.28 188.43 94.11 188.66 C 94.94 188.89 95.80 188.40 96.03 187.57 Z M 96.27 186.70 L 96.58 185.78 C 96.86 184.96 96.42 184.08 95.61 183.80 C 94.79 183.52 93.91 183.96 93.63 184.77 L 93.31 185.69 C 93.04 186.51 93.47 187.40 94.29 187.67 C 95.10 187.95 95.99 187.52 96.27 186.70 Z M 96.55 185.86 L 96.92 184.95 C 97.24 184.15 96.86 183.24 96.06 182.91 C 95.26 182.59 94.35 182.98 94.03 183.78 L 93.66 184.69 C 93.33 185.49 93.72 186.40 94.52 186.72 C 95.32 187.05 96.23 186.66 96.55 185.86 Z M 96.89 185.02 L 97.32 184.09 C 97.68 183.31 97.34 182.38 96.56 182.02 C 95.77 181.66 94.85 182.00 94.48 182.78 L 94.06 183.71 C 93.70 184.49 94.04 185.42 94.82 185.78 C 95.60 186.14 96.53 185.80 96.89 185.02 Z M 97.29 184.15 L 97.72 183.30 C 98.11 182.54 97.81 181.60 97.04 181.20 C 96.27 180.81 95.33 181.12 94.94 181.89 L 94.51 182.73 C 94.12 183.50 94.42 184.44 95.19 184.83 C 95.96 185.22 96.90 184.91 97.29 184.15 Z M 97.70 183.35 L 98.13 182.57 C 98.54 181.82 98.27 180.87 97.51 180.45 C 96.75 180.04 95.81 180.31 95.39 181.07 L 94.96 181.84 C 94.55 182.60 94.82 183.55 95.58 183.96 C 96.33 184.38 97.28 184.10 97.70 183.35 Z M 98.10 182.61 L 98.59 181.78 C 99.03 181.04 98.78 180.08 98.03 179.65 C 97.29 179.21 96.33 179.46 95.90 180.20 L 95.41 181.03 C 94.97 181.77 95.22 182.73 95.97 183.16 C 96.71 183.60 97.67 183.35 98.10 182.61 Z M 98.57 181.82 L 99.13 180.93 C 99.58 180.20 99.36 179.23 98.63 178.77 C 97.90 178.32 96.94 178.54 96.48 179.27 L 95.92 180.17 C 95.46 180.90 95.68 181.86 96.42 182.32 C 97.15 182.77 98.11 182.55 98.57 181.82 Z M 99.11 180.96 L 99.75 179.97 C 100.23 179.25 100.03 178.29 99.31 177.81 C 98.59 177.34 97.62 177.54 97.14 178.26 L 96.50 179.24 C 96.02 179.96 96.22 180.93 96.94 181.40 C 97.66 181.88 98.63 181.68 99.11 180.96 Z M 99.74 180.00 L 100.29 179.19 C 100.77 178.48 100.59 177.51 99.88 177.02 C 99.17 176.53 98.20 176.72 97.71 177.43 L 97.16 178.24 C 96.67 178.95 96.86 179.92 97.57 180.41 C 98.28 180.89 99.25 180.71 99.74 180.00 Z M 100.28 179.20 L 100.86 178.37 C 101.36 177.66 101.19 176.69 100.48 176.19 C 99.77 175.70 98.80 175.87 98.31 176.58 L 97.72 177.41 C 97.23 178.12 97.40 179.09 98.10 179.59 C 98.81 180.08 99.78 179.91 100.28 179.20 Z M 100.86 178.38 L 101.46 177.53 C 101.96 176.83 101.80 175.85 101.10 175.35 C 100.40 174.85 99.42 175.01 98.92 175.71 L 98.32 176.56 C 97.81 177.27 97.98 178.24 98.68 178.74 C 99.38 179.24 100.36 179.08 100.86 178.38 Z M 101.46 177.54 L 102.07 176.70 C 102.57 176.00 102.42 175.03 101.72 174.52 C 101.03 174.01 100.05 174.17 99.54 174.86 L 98.93 175.70 C 98.42 176.40 98.58 177.38 99.28 177.88 C 99.97 178.39 100.95 178.24 101.46 177.54 Z M 102.06 176.71 L 102.65 175.91 C 103.17 175.21 103.02 174.24 102.33 173.72 C 101.64 173.21 100.66 173.35 100.14 174.05 L 99.55 174.85 C 99.04 175.54 99.18 176.52 99.87 177.04 C 100.57 177.55 101.55 177.40 102.06 176.71 Z M 102.65 175.92 L 103.21 175.17 C 103.73 174.49 103.59 173.51 102.90 172.99 C 102.21 172.47 101.24 172.60 100.72 173.29 L 100.15 174.04 C 99.63 174.72 99.77 175.70 100.46 176.22 C 101.15 176.74 102.13 176.61 102.65 175.92 Z M 103.19 175.19 L 103.88 174.31 C 104.41 173.63 104.29 172.65 103.60 172.12 C 102.92 171.59 101.94 171.71 101.41 172.39 L 100.73 173.27 C 100.20 173.96 100.32 174.94 101.00 175.47 C 101.68 175.99 102.67 175.87 103.19 175.19 Z M 103.86 174.34 L 104.50 173.55 C 105.04 172.88 104.94 171.90 104.27 171.35 C 103.60 170.81 102.62 170.91 102.07 171.58 L 101.44 172.37 C 100.89 173.03 100.99 174.02 101.66 174.56 C 102.33 175.11 103.31 175.00 103.86 174.34 Z M 104.47 173.58 L 105.08 172.87 C 105.65 172.22 105.57 171.23 104.92 170.67 C 104.27 170.11 103.28 170.18 102.72 170.83 L 102.10 171.55 C 101.54 172.20 101.61 173.18 102.27 173.75 C 102.92 174.31 103.91 174.24 104.47 173.58 Z M 105.05 172.91 L 105.68 172.22 C 106.26 171.58 106.22 170.59 105.59 170.01 C 104.95 169.43 103.96 169.47 103.38 170.11 L 102.75 170.80 C 102.17 171.43 102.21 172.42 102.85 173.00 C 103.48 173.59 104.47 173.54 105.05 172.91 Z M 105.66 172.25 L 106.33 171.55 C 106.93 170.93 106.91 169.94 106.29 169.34 C 105.66 168.74 104.68 168.76 104.08 169.38 L 103.41 170.08 C 102.81 170.70 102.83 171.69 103.45 172.29 C 104.07 172.89 105.06 172.87 105.66 172.25 Z M 106.30 171.57 L 107.02 170.86 C 107.63 170.25 107.63 169.26 107.02 168.65 C 106.41 168.04 105.43 168.04 104.82 168.65 L 104.10 169.36 C 103.49 169.97 103.49 170.96 104.10 171.57 C 104.71 172.18 105.69 172.18 106.30 171.57 Z M 107.00 170.88 L 107.74 170.16 C 108.37 169.57 108.39 168.58 107.79 167.96 C 107.19 167.33 106.20 167.31 105.58 167.91 L 104.84 168.63 C 104.21 169.22 104.19 170.21 104.79 170.83 C 105.39 171.46 106.38 171.48 107.00 170.88 Z M 107.72 170.18 L 108.47 169.50 C 109.10 168.91 109.14 167.92 108.56 167.29 C 107.97 166.66 106.98 166.62 106.35 167.20 L 105.60 167.89 C 104.97 168.48 104.93 169.46 105.51 170.10 C 106.10 170.73 107.09 170.77 107.72 170.18 Z M 108.44 169.52 L 109.16 168.89 C 109.81 168.32 109.87 167.33 109.30 166.68 C 108.73 166.04 107.74 165.97 107.10 166.54 L 106.38 167.18 C 105.73 167.75 105.67 168.73 106.24 169.38 C 106.81 170.03 107.79 170.09 108.44 169.52 Z M 109.12 168.92 L 109.91 168.27 C 110.58 167.72 110.68 166.74 110.13 166.07 C 109.58 165.41 108.60 165.31 107.93 165.86 L 107.14 166.51 C 106.47 167.05 106.37 168.04 106.92 168.71 C 107.47 169.37 108.45 169.47 109.12 168.92 Z M 109.85 168.32 L 110.63 167.75 C 111.32 167.24 111.47 166.26 110.96 165.57 C 110.45 164.87 109.47 164.72 108.78 165.23 L 108.00 165.81 C 107.30 166.32 107.15 167.29 107.66 167.99 C 108.18 168.68 109.15 168.83 109.85 168.32 Z M 110.54 167.81 L 111.36 167.28 C 112.09 166.81 112.30 165.85 111.83 165.12 C 111.37 164.40 110.40 164.19 109.68 164.65 L 108.86 165.18 C 108.13 165.64 107.92 166.61 108.39 167.34 C 108.85 168.06 109.82 168.27 110.54 167.81 Z M 111.28 167.33 L 112.17 166.83 C 112.93 166.41 113.19 165.45 112.77 164.70 C 112.35 163.95 111.40 163.68 110.65 164.11 L 109.75 164.61 C 109.00 165.03 108.74 165.98 109.16 166.73 C 109.58 167.48 110.53 167.75 111.28 167.33 Z M 112.12 166.86 L 112.97 166.43 C 113.74 166.04 114.05 165.10 113.66 164.33 C 113.27 163.56 112.33 163.25 111.56 163.64 L 110.70 164.07 C 109.94 164.46 109.63 165.40 110.02 166.17 C 110.41 166.94 111.35 167.25 112.12 166.86 Z M 112.93 166.45 L 113.85 166.02 C 114.63 165.65 114.96 164.72 114.60 163.94 C 114.23 163.16 113.30 162.82 112.52 163.19 L 111.60 163.62 C 110.82 163.99 110.49 164.92 110.85 165.70 C 111.22 166.48 112.15 166.81 112.93 166.45 Z M 113.81 166.03 L 114.76 165.62 C 115.55 165.27 115.91 164.35 115.56 163.56 C 115.21 162.77 114.29 162.41 113.50 162.76 L 112.56 163.17 C 111.77 163.52 111.41 164.44 111.75 165.23 C 112.10 166.02 113.02 166.38 113.81 166.03 Z M 114.72 165.63 L 115.66 165.25 C 116.46 164.92 116.84 164.01 116.51 163.21 C 116.19 162.41 115.27 162.03 114.48 162.36 L 113.54 162.74 C 112.74 163.07 112.36 163.98 112.68 164.78 C 113.01 165.58 113.92 165.96 114.72 165.63 Z M 115.62 165.26 L 116.59 164.89 C 117.40 164.59 117.80 163.69 117.50 162.88 C 117.19 162.07 116.29 161.67 115.48 161.98 L 114.51 162.34 C 113.71 162.65 113.30 163.55 113.61 164.36 C 113.92 165.16 114.82 165.57 115.62 165.26 Z M 116.55 164.91 L 117.52 164.57 C 118.34 164.29 118.77 163.40 118.49 162.59 C 118.20 161.77 117.31 161.34 116.50 161.62 L 115.53 161.96 C 114.71 162.24 114.28 163.13 114.56 163.95 C 114.84 164.76 115.73 165.19 116.55 164.91 Z M 117.48 164.59 L 118.41 164.29 C 119.24 164.04 119.70 163.16 119.44 162.34 C 119.18 161.52 118.30 161.06 117.48 161.31 L 116.54 161.61 C 115.72 161.87 115.26 162.74 115.52 163.56 C 115.78 164.39 116.65 164.85 117.48 164.59 Z M 118.38 164.31 L 119.30 164.04 C 120.13 163.81 120.61 162.94 120.37 162.11 C 120.14 161.28 119.27 160.80 118.44 161.04 L 117.52 161.30 C 116.69 161.54 116.21 162.40 116.45 163.23 C 116.68 164.06 117.55 164.54 118.38 164.31 Z M 119.27 164.05 L 120.20 163.81 C 121.03 163.59 121.53 162.73 121.31 161.90 C 121.09 161.06 120.24 160.57 119.40 160.79 L 118.47 161.03 C 117.64 161.25 117.14 162.11 117.36 162.94 C 117.58 163.77 118.44 164.27 119.27 164.05 Z M 120.18 163.81 L 121.13 163.58 C 121.96 163.37 122.47 162.52 122.26 161.68 C 122.06 160.85 121.21 160.34 120.37 160.55 L 119.43 160.78 C 118.59 160.99 118.08 161.84 118.29 162.67 C 118.50 163.51 119.34 164.02 120.18 163.81 Z M 121.11 163.58 L 122.08 163.35 C 122.92 163.15 123.44 162.31 123.24 161.47 C 123.04 160.63 122.20 160.11 121.36 160.31 L 120.39 160.54 C 119.55 160.74 119.03 161.58 119.23 162.42 C 119.43 163.26 120.27 163.78 121.11 163.58 Z M 122.07 163.35 L 123.06 163.12 C 123.91 162.93 124.43 162.10 124.24 161.25 C 124.05 160.41 123.21 159.89 122.37 160.08 L 121.37 160.31 C 120.53 160.50 120.01 161.34 120.20 162.18 C 120.39 163.02 121.23 163.54 122.07 163.35 Z M 123.06 163.13 L 124.04 162.91 C 124.88 162.72 125.41 161.88 125.23 161.04 C 125.04 160.20 124.20 159.67 123.36 159.86 L 122.38 160.08 C 121.54 160.27 121.01 161.10 121.19 161.94 C 121.38 162.78 122.22 163.31 123.06 163.13 Z M 124.04 162.91 L 125.00 162.70 C 125.84 162.51 126.37 161.68 126.19 160.84 C 126.00 159.99 125.17 159.46 124.33 159.65 L 123.37 159.86 C 122.53 160.04 121.99 160.88 122.18 161.72 C 122.36 162.56 123.20 163.09 124.04 162.91 Z M 125.00 162.70 L 125.97 162.48 C 126.81 162.30 127.35 161.47 127.16 160.62 C 126.98 159.78 126.14 159.25 125.30 159.43 L 124.33 159.65 C 123.48 159.83 122.95 160.66 123.14 161.51 C 123.32 162.35 124.15 162.88 125.00 162.70 Z M 125.97 162.48 L 126.96 162.27 C 127.80 162.08 128.33 161.25 128.15 160.41 C 127.96 159.56 127.13 159.03 126.29 159.22 L 125.30 159.43 C 124.46 159.62 123.93 160.45 124.11 161.29 C 124.30 162.13 125.13 162.67 125.97 162.48 Z M 126.96 162.26 L 127.96 162.04 C 128.80 161.86 129.33 161.02 129.15 160.18 C 128.96 159.34 128.13 158.81 127.28 159.00 L 126.29 159.22 C 125.44 159.40 124.91 160.24 125.10 161.08 C 125.29 161.92 126.12 162.45 126.96 162.26 Z M 127.96 162.04 L 128.94 161.82 C 129.78 161.63 130.31 160.80 130.12 159.96 C 129.93 159.12 129.09 158.59 128.25 158.78 L 127.28 159.00 C 126.44 159.19 125.91 160.02 126.10 160.86 C 126.29 161.70 127.12 162.23 127.96 162.04 Z M 128.94 161.82 L 129.92 161.60 C 130.76 161.41 131.28 160.57 131.09 159.73 C 130.90 158.89 130.06 158.36 129.22 158.56 L 128.25 158.78 C 127.41 158.97 126.88 159.81 127.07 160.65 C 127.26 161.49 128.10 162.01 128.94 161.82 Z M 129.92 161.60 L 130.90 161.37 C 131.74 161.18 132.26 160.34 132.07 159.50 C 131.87 158.66 131.04 158.14 130.20 158.33 L 129.22 158.56 C 128.38 158.75 127.85 159.59 128.05 160.43 C 128.24 161.27 129.08 161.79 129.92 161.60 Z M 130.90 161.37 L 131.88 161.14 C 132.72 160.95 133.24 160.11 133.04 159.27 C 132.85 158.43 132.01 157.91 131.17 158.10 L 130.19 158.33 C 129.35 158.53 128.83 159.37 129.03 160.21 C 129.22 161.05 130.06 161.57 130.90 161.37 Z M 131.88 161.14 L 132.86 160.91 C 133.70 160.71 134.22 159.87 134.02 159.03 C 133.82 158.19 132.98 157.67 132.14 157.87 L 131.16 158.10 C 130.32 158.30 129.80 159.15 130.00 159.98 C 130.20 160.82 131.04 161.34 131.88 161.14 Z M 132.86 160.91 L 133.84 160.68 C 134.68 160.48 135.19 159.63 134.99 158.79 C 134.79 157.96 133.95 157.44 133.11 157.64 L 132.13 157.87 C 131.29 158.08 130.78 158.92 130.98 159.76 C 131.18 160.59 132.02 161.11 132.86 160.91 Z M 133.84 160.68 L 134.81 160.44 C 135.65 160.24 136.17 159.39 135.96 158.56 C 135.76 157.72 134.92 157.20 134.08 157.41 L 133.11 157.64 C 132.27 157.84 131.75 158.69 131.96 159.52 C 132.16 160.36 133.00 160.88 133.84 160.68 Z M 134.81 160.44 L 135.78 160.21 C 136.62 160.00 137.14 159.16 136.93 158.32 C 136.73 157.48 135.89 156.97 135.05 157.17 L 134.08 157.41 C 133.24 157.61 132.73 158.45 132.93 159.29 C 133.13 160.13 133.98 160.64 134.81 160.44 Z M 135.78 160.21 L 136.75 159.97 C 137.59 159.77 138.10 158.92 137.90 158.09 C 137.70 157.25 136.85 156.73 136.02 156.94 L 135.05 157.17 C 134.21 157.37 133.70 158.22 133.90 159.06 C 134.10 159.89 134.94 160.41 135.78 160.21 Z M 136.75 159.97 L 137.73 159.74 C 138.57 159.53 139.08 158.69 138.88 157.85 C 138.68 157.01 137.83 156.50 137.00 156.70 L 136.02 156.94 C 135.18 157.14 134.66 157.98 134.87 158.82 C 135.07 159.66 135.91 160.17 136.75 159.97 Z M 137.73 159.74 L 138.71 159.50 C 139.55 159.29 140.06 158.45 139.86 157.61 C 139.65 156.77 138.81 156.26 137.97 156.46 L 136.99 156.70 C 136.16 156.90 135.64 157.75 135.84 158.59 C 136.05 159.42 136.89 159.94 137.73 159.74 Z M 138.71 159.50 L 139.69 159.26 C 140.52 159.05 141.03 158.20 140.83 157.37 C 140.62 156.53 139.78 156.02 138.94 156.23 L 137.97 156.46 C 137.13 156.67 136.62 157.52 136.82 158.35 C 137.03 159.19 137.88 159.70 138.71 159.50 Z M 139.70 159.25 L 140.66 159.01 C 141.49 158.80 142.00 157.95 141.79 157.11 C 141.58 156.28 140.73 155.77 139.89 155.98 L 138.93 156.23 C 138.09 156.44 137.59 157.29 137.80 158.12 C 138.01 158.96 138.86 159.47 139.70 159.25 Z M 140.67 159.01 L 141.64 158.75 C 142.48 158.53 142.97 157.68 142.75 156.84 C 142.53 156.01 141.68 155.51 140.85 155.73 L 139.88 155.99 C 139.04 156.21 138.55 157.06 138.77 157.90 C 138.99 158.73 139.84 159.23 140.67 159.01 Z M 141.66 158.75 L 142.64 158.47 C 143.47 158.24 143.96 157.39 143.73 156.55 C 143.50 155.72 142.64 155.23 141.81 155.46 L 140.83 155.74 C 140.00 155.96 139.51 156.82 139.74 157.66 C 139.97 158.49 140.83 158.97 141.66 158.75 Z M 142.66 158.47 L 143.62 158.19 C 144.45 157.96 144.93 157.09 144.69 156.26 C 144.46 155.43 143.59 154.95 142.76 155.19 L 141.80 155.47 C 140.97 155.71 140.49 156.57 140.73 157.40 C 140.96 158.23 141.83 158.71 142.66 158.47 Z M 143.64 158.19 L 144.58 157.91 C 145.41 157.66 145.88 156.79 145.64 155.97 C 145.39 155.14 144.52 154.67 143.70 154.91 L 142.75 155.20 C 141.92 155.44 141.45 156.31 141.70 157.14 C 141.94 157.96 142.81 158.43 143.64 158.19 Z M 144.59 157.91 L 145.53 157.62 C 146.36 157.37 146.82 156.50 146.57 155.67 C 146.32 154.85 145.45 154.38 144.62 154.63 L 143.69 154.92 C 142.86 155.17 142.40 156.04 142.65 156.87 C 142.90 157.69 143.77 158.16 144.59 157.91 Z M 145.54 157.62 L 146.50 157.32 C 147.33 157.06 147.79 156.19 147.53 155.37 C 147.28 154.54 146.40 154.08 145.58 154.34 L 144.62 154.64 C 143.79 154.89 143.33 155.76 143.59 156.59 C 143.84 157.41 144.72 157.87 145.54 157.62 Z M 146.50 157.32 L 147.45 157.03 C 148.28 156.77 148.74 155.90 148.49 155.07 C 148.23 154.25 147.36 153.79 146.54 154.04 L 145.58 154.34 C 144.76 154.59 144.30 155.46 144.55 156.29 C 144.80 157.11 145.68 157.57 146.50 157.32 Z M 147.44 157.03 L 148.39 156.75 C 149.22 156.50 149.69 155.63 149.44 154.80 C 149.20 153.98 148.33 153.51 147.50 153.75 L 146.55 154.04 C 145.72 154.28 145.25 155.15 145.50 155.98 C 145.75 156.81 146.61 157.28 147.44 157.03 Z M 148.37 156.75 L 149.33 156.48 C 150.16 156.25 150.64 155.39 150.41 154.56 C 150.17 153.73 149.31 153.24 148.48 153.48 L 147.52 153.75 C 146.69 153.98 146.21 154.84 146.44 155.67 C 146.68 156.50 147.54 156.99 148.37 156.75 Z M 149.30 156.49 L 150.26 156.24 C 151.09 156.03 151.59 155.17 151.38 154.34 C 151.16 153.50 150.31 153.00 149.47 153.22 L 148.51 153.47 C 147.68 153.69 147.18 154.54 147.39 155.37 C 147.61 156.21 148.46 156.71 149.30 156.49 Z M 150.23 156.25 L 151.20 156.02 C 152.04 155.82 152.56 154.98 152.36 154.14 C 152.16 153.30 151.32 152.78 150.48 152.98 L 149.51 153.21 C 148.67 153.41 148.15 154.25 148.35 155.09 C 148.55 155.93 149.39 156.45 150.23 156.25 Z M 151.17 156.03 L 152.15 155.82 C 152.99 155.64 153.53 154.81 153.35 153.96 C 153.17 153.12 152.34 152.58 151.50 152.76 L 150.51 152.97 C 149.67 153.15 149.13 153.98 149.31 154.83 C 149.49 155.67 150.32 156.21 151.17 156.03 Z M 152.11 155.82 L 153.10 155.64 C 153.95 155.47 154.50 154.66 154.34 153.81 C 154.18 152.96 153.36 152.41 152.51 152.57 L 151.53 152.76 C 150.68 152.92 150.13 153.74 150.29 154.58 C 150.45 155.43 151.27 155.99 152.11 155.82 Z M 153.06 155.64 L 154.04 155.48 C 154.89 155.34 155.47 154.53 155.33 153.68 C 155.19 152.83 154.38 152.26 153.53 152.40 L 152.55 152.56 C 151.70 152.70 151.12 153.51 151.27 154.36 C 151.41 155.21 152.21 155.78 153.06 155.64 Z M 154.01 155.48 L 154.99 155.34 C 155.85 155.22 156.44 154.43 156.32 153.58 C 156.20 152.72 155.41 152.13 154.55 152.25 L 153.57 152.39 C 152.71 152.51 152.12 153.30 152.24 154.16 C 152.36 155.01 153.15 155.61 154.01 155.48 Z M 154.95 155.35 L 155.95 155.23 C 156.80 155.13 157.42 154.36 157.32 153.50 C 157.22 152.64 156.44 152.03 155.59 152.13 L 154.59 152.25 C 153.74 152.35 153.12 153.12 153.22 153.98 C 153.32 154.84 154.10 155.45 154.95 155.35 Z M 155.91 155.24 L 156.91 155.15 C 157.77 155.07 158.40 154.31 158.32 153.45 C 158.25 152.59 157.49 151.96 156.63 152.04 L 155.63 152.13 C 154.77 152.21 154.13 152.97 154.21 153.82 C 154.29 154.68 155.05 155.32 155.91 155.24 Z M 156.87 155.15 L 157.84 155.08 C 158.70 155.03 159.35 154.28 159.30 153.42 C 159.24 152.56 158.50 151.91 157.64 151.97 L 156.66 152.03 C 155.80 152.09 155.15 152.83 155.21 153.70 C 155.27 154.56 156.01 155.21 156.87 155.15 Z M 157.81 155.09 L 158.80 155.04 C 159.66 155.00 160.33 154.27 160.29 153.41 C 160.25 152.54 159.51 151.88 158.65 151.92 L 157.67 151.97 C 156.80 152.01 156.14 152.74 156.18 153.60 C 156.22 154.46 156.95 155.13 157.81 155.09 Z M 158.78 155.04 L 159.78 155.01 C 160.64 154.98 161.32 154.26 161.29 153.40 C 161.27 152.54 160.55 151.86 159.68 151.89 L 158.68 151.92 C 157.82 151.95 157.14 152.67 157.17 153.53 C 157.19 154.39 157.91 155.07 158.78 155.04 Z M 159.76 155.01 L 160.79 154.99 C 161.65 154.97 162.34 154.26 162.32 153.40 C 162.30 152.53 161.59 151.85 160.73 151.87 L 159.70 151.89 C 158.84 151.90 158.16 152.62 158.17 153.48 C 158.19 154.34 158.90 155.03 159.76 155.01 Z M 160.78 154.99 L 161.76 154.98 C 162.62 154.97 163.31 154.26 163.30 153.40 C 163.29 152.53 162.59 151.84 161.72 151.85 L 160.74 151.87 C 159.88 151.88 159.19 152.58 159.20 153.45 C 159.21 154.31 159.92 155.00 160.78 154.99 Z M 161.75 154.98 L 162.73 154.97 C 163.60 154.97 164.29 154.27 164.29 153.40 C 164.28 152.54 163.58 151.85 162.72 151.85 L 161.73 151.85 C 160.87 151.86 160.18 152.56 160.18 153.42 C 160.18 154.28 160.89 154.98 161.75 154.98 Z M 162.72 154.97 L 163.72 154.98 C 164.59 154.98 165.29 154.28 165.29 153.42 C 165.29 152.56 164.60 151.86 163.74 151.85 L 162.73 151.85 C 161.87 151.85 161.17 152.54 161.17 153.40 C 161.16 154.27 161.86 154.97 162.72 154.97 Z M 163.71 154.98 L 164.73 154.99 C 165.59 155.00 166.30 154.31 166.31 153.45 C 166.32 152.59 165.63 151.88 164.77 151.87 L 163.75 151.85 C 162.89 151.84 162.18 152.53 162.17 153.39 C 162.16 154.26 162.85 154.96 163.71 154.98 Z M 164.71 154.99 L 165.71 155.01 C 166.57 155.03 167.29 154.35 167.31 153.49 C 167.33 152.63 166.65 151.91 165.78 151.89 L 164.78 151.87 C 163.92 151.85 163.21 152.53 163.19 153.39 C 163.17 154.25 163.85 154.97 164.71 154.99 Z M 165.69 155.01 L 166.61 155.04 C 167.47 155.07 168.19 154.40 168.22 153.54 C 168.26 152.68 167.58 151.95 166.72 151.92 L 165.80 151.89 C 164.94 151.86 164.22 152.53 164.19 153.40 C 164.16 154.26 164.83 154.98 165.69 155.01 Z M 166.58 155.04 L 167.52 155.09 C 168.38 155.14 169.12 154.48 169.16 153.62 C 169.21 152.76 168.55 152.02 167.69 151.98 L 166.75 151.92 C 165.89 151.88 165.15 152.54 165.11 153.40 C 165.06 154.26 165.72 155.00 166.58 155.04 Z M 167.49 155.09 L 168.47 155.17 C 169.33 155.23 170.08 154.59 170.15 153.73 C 170.21 152.87 169.57 152.12 168.71 152.05 L 167.73 151.98 C 166.87 151.91 166.12 152.55 166.05 153.41 C 165.98 154.27 166.63 155.02 167.49 155.09 Z M 168.43 155.16 L 169.46 155.27 C 170.32 155.36 171.09 154.74 171.18 153.88 C 171.27 153.02 170.65 152.26 169.79 152.17 L 168.75 152.06 C 167.89 151.97 167.13 152.59 167.04 153.45 C 166.95 154.31 167.57 155.07 168.43 155.16 Z M 169.42 155.27 L 170.53 155.42 C 171.38 155.53 172.17 154.93 172.28 154.08 C 172.40 153.22 171.80 152.44 170.94 152.32 L 169.83 152.17 C 168.98 152.06 168.19 152.66 168.08 153.51 C 167.97 154.37 168.57 155.15 169.42 155.27 Z M 170.49 155.41 L 171.41 155.56 C 172.26 155.69 173.06 155.11 173.20 154.26 C 173.33 153.41 172.75 152.61 171.90 152.47 L 170.98 152.33 C 170.13 152.19 169.33 152.77 169.20 153.62 C 169.06 154.47 169.64 155.27 170.49 155.41 Z M 171.38 155.55 L 172.33 155.72 C 173.17 155.87 173.99 155.31 174.14 154.46 C 174.29 153.61 173.72 152.80 172.88 152.65 L 171.93 152.48 C 171.08 152.33 170.27 152.89 170.12 153.74 C 169.97 154.59 170.53 155.40 171.38 155.55 Z M 172.30 155.72 L 173.28 155.91 C 174.13 156.07 174.95 155.52 175.11 154.67 C 175.27 153.83 174.72 153.01 173.88 152.84 L 172.90 152.65 C 172.05 152.49 171.23 153.04 171.07 153.89 C 170.90 154.73 171.46 155.55 172.30 155.72 Z M 173.26 155.90 L 174.26 156.11 C 175.10 156.29 175.93 155.74 176.10 154.90 C 176.28 154.05 175.74 153.23 174.89 153.05 L 173.90 152.85 C 173.05 152.67 172.22 153.21 172.05 154.06 C 171.87 154.90 172.42 155.73 173.26 155.90 Z M 174.24 156.11 L 175.25 156.33 C 176.09 156.51 176.93 155.98 177.11 155.14 C 177.30 154.29 176.76 153.46 175.92 153.28 L 174.91 153.06 C 174.07 152.87 173.23 153.41 173.05 154.25 C 172.87 155.09 173.40 155.92 174.24 156.11 Z M 175.24 156.32 L 176.25 156.56 C 177.09 156.75 177.93 156.22 178.12 155.38 C 178.31 154.54 177.79 153.70 176.95 153.51 L 175.93 153.28 C 175.09 153.09 174.26 153.61 174.06 154.45 C 173.87 155.30 174.40 156.13 175.24 156.32 Z M 176.24 156.55 L 177.25 156.79 C 178.09 156.99 178.93 156.47 179.13 155.63 C 179.33 154.79 178.81 153.95 177.97 153.75 L 176.96 153.51 C 176.12 153.32 175.28 153.84 175.08 154.67 C 174.88 155.51 175.40 156.35 176.24 156.55 Z M 177.24 156.79 L 178.32 157.05 C 179.15 157.26 180.00 156.74 180.20 155.91 C 180.41 155.07 179.89 154.22 179.06 154.02 L 177.98 153.76 C 177.14 153.55 176.30 154.06 176.09 154.90 C 175.89 155.74 176.40 156.58 177.24 156.79 Z M 178.31 157.05 L 179.36 157.31 C 180.19 157.52 181.04 157.01 181.25 156.18 C 181.46 155.34 180.95 154.49 180.12 154.28 L 179.07 154.02 C 178.23 153.81 177.38 154.32 177.17 155.16 C 176.96 155.99 177.47 156.84 178.31 157.05 Z M 179.35 157.31 L 180.36 157.57 C 181.20 157.78 182.05 157.28 182.26 156.44 C 182.47 155.61 181.97 154.76 181.13 154.54 L 180.12 154.29 C 179.29 154.07 178.44 154.58 178.22 155.41 C 178.01 156.25 178.52 157.10 179.35 157.31 Z M 180.36 157.57 L 181.32 157.82 C 182.16 158.03 183.01 157.53 183.22 156.69 C 183.44 155.86 182.94 155.01 182.10 154.79 L 181.14 154.54 C 180.30 154.33 179.45 154.83 179.24 155.67 C 179.02 156.50 179.52 157.35 180.36 157.57 Z M 181.32 157.82 L 182.23 158.05 C 183.06 158.27 183.92 157.76 184.13 156.93 C 184.35 156.09 183.85 155.24 183.01 155.03 L 182.10 154.79 C 181.27 154.58 180.42 155.08 180.20 155.91 C 179.98 156.75 180.49 157.60 181.32 157.82 Z M 182.23 158.05 L 183.08 158.27 C 183.91 158.48 184.76 157.98 184.98 157.14 C 185.19 156.31 184.69 155.46 183.85 155.24 L 183.01 155.03 C 182.17 154.81 181.32 155.32 181.11 156.15 C 180.89 156.99 181.40 157.84 182.23 158.05 Z M 183.08 158.27 L 184.14 158.54 C 184.98 158.75 185.83 158.24 186.04 157.40 C 186.25 156.57 185.74 155.72 184.91 155.51 L 183.84 155.24 C 183.01 155.03 182.16 155.54 181.95 156.38 C 181.74 157.21 182.25 158.06 183.08 158.27 Z M 184.15 158.54 L 185.18 158.79 C 186.02 159.00 186.86 158.49 187.07 157.65 C 187.28 156.81 186.76 155.97 185.93 155.76 L 184.90 155.51 C 184.06 155.30 183.21 155.81 183.01 156.65 C 182.80 157.49 183.31 158.33 184.15 158.54 Z M 185.18 158.79 L 186.10 159.02 C 186.94 159.23 187.79 158.71 187.99 157.88 C 188.20 157.04 187.69 156.19 186.85 155.99 L 185.93 155.76 C 185.09 155.55 184.24 156.06 184.04 156.90 C 183.83 157.74 184.34 158.59 185.18 158.79 Z M 186.09 159.02 L 186.95 159.24 C 187.79 159.45 188.64 158.95 188.85 158.11 C 189.07 157.28 188.56 156.43 187.73 156.21 L 186.87 155.99 C 186.03 155.78 185.18 156.28 184.97 157.12 C 184.75 157.95 185.26 158.80 186.09 159.02 Z M 186.93 159.23 L 187.84 159.48 C 188.67 159.71 189.53 159.22 189.76 158.39 C 189.98 157.56 189.50 156.70 188.66 156.47 L 187.75 156.22 C 186.92 155.99 186.06 156.48 185.84 157.31 C 185.61 158.14 186.10 159.00 186.93 159.23 Z M 187.80 159.47 L 188.74 159.75 C 189.57 160.00 190.44 159.54 190.69 158.71 C 190.94 157.89 190.47 157.02 189.65 156.77 L 188.70 156.48 C 187.88 156.23 187.01 156.70 186.76 157.52 C 186.51 158.35 186.97 159.22 187.80 159.47 Z M 188.69 159.74 L 189.64 160.06 C 190.45 160.34 191.34 159.91 191.62 159.09 C 191.90 158.28 191.46 157.39 190.65 157.11 L 189.70 156.78 C 188.89 156.50 188.00 156.94 187.72 157.75 C 187.44 158.57 187.87 159.46 188.69 159.74 Z M 189.57 160.04 L 190.53 160.41 C 191.33 160.73 192.24 160.33 192.55 159.53 C 192.86 158.73 192.47 157.82 191.67 157.50 L 190.71 157.13 C 189.91 156.82 189.00 157.21 188.69 158.02 C 188.37 158.82 188.77 159.72 189.57 160.04 Z M 190.46 160.39 L 191.35 160.78 C 192.14 161.13 193.06 160.78 193.41 159.99 C 193.76 159.20 193.41 158.28 192.62 157.93 L 191.73 157.53 C 190.94 157.18 190.02 157.54 189.67 158.32 C 189.32 159.11 189.67 160.03 190.46 160.39 Z M 191.29 160.75 L 192.19 161.20 C 192.96 161.58 193.90 161.26 194.28 160.49 C 194.66 159.72 194.34 158.78 193.57 158.40 L 192.68 157.95 C 191.91 157.57 190.97 157.89 190.59 158.66 C 190.20 159.43 190.52 160.37 191.29 160.75 Z M 192.13 161.17 L 193.02 161.65 C 193.78 162.06 194.73 161.78 195.14 161.02 C 195.55 160.27 195.27 159.32 194.51 158.91 L 193.62 158.42 C 192.87 158.01 191.92 158.29 191.51 159.05 C 191.09 159.81 191.38 160.76 192.13 161.17 Z M 192.97 161.62 L 193.84 162.14 C 194.59 162.58 195.54 162.33 195.98 161.59 C 196.42 160.85 196.18 159.89 195.43 159.45 L 194.56 158.94 C 193.82 158.50 192.86 158.74 192.42 159.48 C 191.98 160.23 192.23 161.18 192.97 161.62 Z M 193.80 162.11 L 194.55 162.59 C 195.28 163.06 196.25 162.85 196.71 162.12 C 197.18 161.39 196.96 160.43 196.24 159.96 L 195.48 159.48 C 194.75 159.01 193.79 159.23 193.32 159.95 C 192.86 160.68 193.07 161.65 193.80 162.11 Z M 194.51 162.56 L 195.27 163.09 C 195.98 163.58 196.96 163.41 197.45 162.70 C 197.94 161.99 197.76 161.02 197.05 160.53 L 196.28 159.99 C 195.57 159.50 194.60 159.68 194.11 160.39 C 193.62 161.10 193.80 162.07 194.51 162.56 Z M 195.23 163.06 L 196.03 163.66 C 196.72 164.17 197.69 164.03 198.21 163.34 C 198.73 162.65 198.59 161.67 197.90 161.16 L 197.10 160.56 C 196.41 160.04 195.43 160.18 194.91 160.87 C 194.40 161.56 194.54 162.54 195.23 163.06 Z M 195.98 163.62 L 196.83 164.31 C 197.50 164.85 198.49 164.74 199.03 164.07 C 199.57 163.40 199.46 162.42 198.79 161.88 L 197.94 161.19 C 197.27 160.65 196.29 160.76 195.75 161.43 C 195.20 162.10 195.31 163.08 195.98 163.62 Z M 196.80 164.28 L 197.60 164.96 C 198.25 165.52 199.24 165.45 199.80 164.79 C 200.36 164.14 200.28 163.15 199.63 162.59 L 198.83 161.91 C 198.17 161.35 197.19 161.42 196.63 162.08 C 196.06 162.73 196.14 163.72 196.80 164.28 Z M 197.57 164.94 L 198.31 165.60 C 198.95 166.17 199.94 166.12 200.51 165.48 C 201.09 164.83 201.03 163.85 200.39 163.27 L 199.65 162.61 C 199.01 162.04 198.02 162.09 197.45 162.74 C 196.87 163.38 196.93 164.37 197.57 164.94 Z M 198.29 165.58 L 199.05 166.28 C 199.68 166.86 200.67 166.82 201.25 166.19 C 201.84 165.56 201.80 164.57 201.16 163.99 L 200.41 163.29 C 199.78 162.70 198.79 162.74 198.20 163.38 C 197.62 164.01 197.66 165.00 198.29 165.58 Z M 199.03 166.26 L 199.78 166.98 C 200.41 167.57 201.39 167.55 201.99 166.93 C 202.58 166.30 202.56 165.31 201.93 164.72 L 201.18 164.00 C 200.56 163.41 199.57 163.43 198.97 164.06 C 198.38 164.68 198.40 165.67 199.03 166.26 Z M 199.76 166.96 L 200.49 167.68 C 201.11 168.28 202.10 168.28 202.70 167.66 C 203.31 167.04 203.30 166.06 202.68 165.45 L 201.95 164.74 C 201.34 164.13 200.35 164.14 199.74 164.76 C 199.14 165.37 199.15 166.36 199.76 166.96 Z M 200.48 167.66 L 201.16 168.36 C 201.77 168.98 202.76 168.98 203.37 168.38 C 203.99 167.77 203.99 166.78 203.39 166.17 L 202.70 165.47 C 202.10 164.86 201.11 164.85 200.49 165.45 C 199.88 166.06 199.87 167.05 200.48 167.66 Z M 201.14 168.34 L 201.88 169.11 C 202.47 169.74 203.46 169.77 204.08 169.18 C 204.71 168.59 204.74 167.60 204.15 166.97 L 203.41 166.19 C 202.82 165.57 201.83 165.54 201.21 166.13 C 200.58 166.72 200.55 167.71 201.14 168.34 Z M 201.84 169.08 L 202.56 169.89 C 203.14 170.53 204.12 170.59 204.77 170.02 C 205.41 169.44 205.47 168.46 204.90 167.81 L 204.18 167.01 C 203.60 166.36 202.62 166.30 201.97 166.88 C 201.33 167.45 201.27 168.44 201.84 169.08 Z M 202.53 169.85 L 203.16 170.61 C 203.71 171.27 204.69 171.36 205.36 170.81 C 206.02 170.26 206.11 169.28 205.56 168.61 L 204.93 167.85 C 204.38 167.19 203.40 167.10 202.73 167.65 C 202.07 168.20 201.98 169.18 202.53 169.85 Z M 203.12 170.57 L 203.69 171.30 C 204.22 171.98 205.20 172.11 205.88 171.58 C 206.56 171.06 206.69 170.08 206.16 169.39 L 205.60 168.66 C 205.07 167.98 204.09 167.85 203.41 168.38 C 202.72 168.90 202.60 169.88 203.12 170.57 Z M 203.66 171.26 L 204.19 171.99 C 204.69 172.69 205.67 172.85 206.37 172.35 C 207.07 171.84 207.23 170.87 206.72 170.17 L 206.19 169.43 C 205.69 168.73 204.72 168.58 204.02 169.08 C 203.32 169.58 203.16 170.56 203.66 171.26 Z M 204.16 171.95 L 204.72 172.78 C 205.20 173.50 206.17 173.69 206.89 173.21 C 207.60 172.73 207.79 171.75 207.31 171.04 L 206.75 170.21 C 206.27 169.49 205.30 169.30 204.58 169.79 C 203.87 170.27 203.68 171.24 204.16 171.95 Z M 204.69 172.74 L 205.22 173.59 C 205.68 174.32 206.64 174.54 207.38 174.09 C 208.11 173.63 208.33 172.66 207.87 171.93 L 207.34 171.08 C 206.88 170.35 205.92 170.13 205.19 170.59 C 204.46 171.05 204.24 172.01 204.69 172.74 Z M 205.19 173.54 L 205.69 174.41 C 206.12 175.15 207.08 175.41 207.83 174.98 C 208.57 174.55 208.83 173.60 208.40 172.85 L 207.90 171.98 C 207.47 171.24 206.52 170.98 205.77 171.41 C 205.02 171.84 204.76 172.79 205.19 173.54 Z M 205.66 174.35 L 206.13 175.23 C 206.53 176.00 207.47 176.29 208.23 175.89 C 209.00 175.49 209.29 174.55 208.89 173.78 L 208.43 172.90 C 208.03 172.14 207.08 171.84 206.32 172.25 C 205.56 172.65 205.26 173.59 205.66 174.35 Z M 206.10 175.18 L 206.50 176.02 C 206.87 176.80 207.80 177.13 208.58 176.77 C 209.36 176.40 209.69 175.47 209.32 174.69 L 208.92 173.84 C 208.55 173.06 207.62 172.73 206.84 173.10 C 206.06 173.47 205.73 174.40 206.10 175.18 Z M 206.47 175.97 L 206.85 176.85 C 207.19 177.64 208.10 178.01 208.90 177.67 C 209.69 177.33 210.06 176.42 209.72 175.62 L 209.34 174.74 C 209.01 173.95 208.09 173.58 207.30 173.92 C 206.50 174.26 206.13 175.17 206.47 175.97 Z M 206.83 176.80 L 207.19 177.73 C 207.50 178.54 208.40 178.94 209.20 178.63 C 210.01 178.32 210.41 177.41 210.10 176.61 L 209.74 175.67 C 209.43 174.87 208.53 174.47 207.72 174.78 C 206.92 175.09 206.52 175.99 206.83 176.80 Z M 207.17 177.69 L 207.53 178.70 C 207.81 179.51 208.70 179.94 209.52 179.66 C 210.33 179.37 210.76 178.48 210.47 177.67 L 210.12 176.65 C 209.83 175.84 208.94 175.41 208.13 175.70 C 207.31 175.98 206.89 176.87 207.17 177.69 Z M 207.51 178.67 L 207.82 179.61 C 208.09 180.43 208.97 180.88 209.79 180.61 C 210.61 180.34 211.06 179.46 210.79 178.64 L 210.48 177.70 C 210.22 176.88 209.33 176.43 208.51 176.70 C 207.69 176.97 207.25 177.85 207.51 178.67 Z M 207.81 179.59 L 208.11 180.53 C 208.36 181.35 209.23 181.82 210.06 181.56 C 210.88 181.31 211.34 180.43 211.09 179.61 L 210.80 178.67 C 210.54 177.84 209.67 177.38 208.85 177.63 C 208.02 177.89 207.56 178.76 207.81 179.59 Z M 208.10 180.51 L 208.38 181.48 C 208.63 182.31 209.49 182.79 210.32 182.54 C 211.15 182.30 211.62 181.44 211.38 180.61 L 211.10 179.63 C 210.85 178.80 209.99 178.33 209.16 178.57 C 208.33 178.81 207.86 179.68 208.10 180.51 Z M 208.38 181.46 L 208.65 182.45 C 208.88 183.28 209.74 183.77 210.57 183.54 C 211.40 183.31 211.89 182.45 211.66 181.62 L 211.39 180.63 C 211.16 179.80 210.30 179.31 209.47 179.54 C 208.64 179.77 208.15 180.63 208.38 181.46 Z M 208.64 182.43 L 208.90 183.41 C 209.11 184.24 209.96 184.74 210.80 184.53 C 211.63 184.31 212.14 183.46 211.92 182.63 L 211.67 181.64 C 211.45 180.81 210.60 180.31 209.76 180.52 C 208.93 180.74 208.43 181.59 208.64 182.43 Z M 208.89 183.38 L 209.13 184.38 C 209.33 185.21 210.17 185.73 211.01 185.53 C 211.85 185.33 212.37 184.49 212.16 183.65 L 211.93 182.65 C 211.73 181.82 210.88 181.30 210.05 181.50 C 209.21 181.70 208.69 182.54 208.89 183.38 Z M 209.12 184.34 L 209.34 185.35 C 209.52 186.19 210.35 186.73 211.19 186.54 C 212.04 186.36 212.57 185.53 212.39 184.69 L 212.17 183.68 C 211.99 182.84 211.16 182.30 210.32 182.49 C 209.47 182.67 208.94 183.50 209.12 184.34 Z M 209.33 185.31 L 209.52 186.29 C 209.68 187.14 210.50 187.69 211.35 187.53 C 212.19 187.37 212.75 186.55 212.59 185.70 L 212.40 184.72 C 212.23 183.88 211.42 183.32 210.57 183.49 C 209.72 183.65 209.17 184.47 209.33 185.31 Z M 209.51 186.26 L 209.68 187.22 C 209.82 188.07 210.63 188.65 211.48 188.50 C 212.33 188.36 212.90 187.55 212.76 186.70 L 212.59 185.74 C 212.45 184.89 211.64 184.32 210.79 184.46 C 209.94 184.60 209.37 185.41 209.51 186.26 Z M 209.67 187.19 L 209.81 188.15 C 209.94 189.01 210.73 189.60 211.58 189.47 C 212.44 189.35 213.03 188.55 212.90 187.70 L 212.76 186.74 C 212.64 185.88 211.84 185.29 210.99 185.42 C 210.14 185.54 209.55 186.34 209.67 187.19 Z M 209.81 188.12 L 209.93 189.07 C 210.03 189.92 210.82 190.53 211.67 190.42 C 212.53 190.31 213.13 189.53 213.02 188.68 L 212.91 187.73 C 212.80 186.88 212.02 186.27 211.16 186.38 C 210.31 186.49 209.70 187.27 209.81 188.12 Z M 209.92 189.04 L 210.02 189.99 C 210.12 190.84 210.88 191.47 211.74 191.37 C 212.60 191.28 213.22 190.51 213.13 189.66 L 213.03 188.71 C 212.94 187.85 212.17 187.23 211.31 187.32 C 210.45 187.41 209.83 188.18 209.92 189.04 Z M 210.02 189.96 L 210.11 190.93 C 210.18 191.79 210.94 192.43 211.80 192.35 C 212.66 192.28 213.29 191.52 213.22 190.66 L 213.13 189.69 C 213.06 188.83 212.30 188.19 211.44 188.27 C 210.58 188.34 209.95 189.10 210.02 189.96 Z M 210.10 190.91 L 210.17 191.92 C 210.23 192.78 210.98 193.43 211.84 193.37 C 212.70 193.31 213.35 192.56 213.29 191.70 L 213.22 190.69 C 213.16 189.83 212.41 189.18 211.55 189.24 C 210.69 189.30 210.05 190.05 210.10 190.91 Z M 210.17 191.89 L 210.23 192.94 C 210.27 193.80 211.01 194.46 211.87 194.42 C 212.73 194.38 213.39 193.64 213.35 192.78 L 213.29 191.73 C 213.25 190.87 212.51 190.20 211.65 190.25 C 210.79 190.29 210.13 191.03 210.17 191.89 Z M 210.23 192.92 L 210.26 193.95 C 210.29 194.81 211.02 195.48 211.88 195.45 C 212.74 195.42 213.41 194.70 213.38 193.84 L 213.35 192.81 C 213.32 191.94 212.59 191.27 211.73 191.30 C 210.87 191.33 210.20 192.05 210.23 192.92 Z M 210.26 193.92 L 210.28 194.93 C 210.30 195.79 211.01 196.48 211.87 196.46 C 212.73 196.45 213.42 195.74 213.40 194.87 L 213.38 193.86 C 213.37 193.00 212.66 192.32 211.79 192.33 C 210.93 192.35 210.25 193.06 210.26 193.92 Z M 210.28 194.90 L 210.28 195.92 C 210.27 196.79 210.97 197.49 211.83 197.49 C 212.70 197.49 213.40 196.79 213.40 195.93 L 213.40 194.91 C 213.40 194.05 212.71 193.34 211.85 193.34 C 210.98 193.34 210.28 194.04 210.28 194.90 Z M 210.28 195.88 L 210.25 196.90 C 210.22 197.76 210.90 198.48 211.76 198.51 C 212.62 198.53 213.34 197.85 213.37 196.99 L 213.40 195.97 C 213.42 195.11 212.75 194.39 211.88 194.37 C 211.02 194.34 210.30 195.02 210.28 195.88 Z M 210.25 196.85 L 210.19 197.84 C 210.13 198.70 210.79 199.45 211.65 199.50 C 212.51 199.56 213.25 198.90 213.30 198.04 L 213.37 197.05 C 213.42 196.18 212.77 195.44 211.91 195.39 C 211.05 195.33 210.30 195.99 210.25 196.85 Z M 210.19 197.78 L 210.09 198.73 C 210.00 199.59 210.62 200.36 211.48 200.45 C 212.34 200.54 213.11 199.92 213.20 199.06 L 213.30 198.11 C 213.39 197.25 212.77 196.48 211.91 196.39 C 211.05 196.30 210.28 196.92 210.19 197.78 Z M 210.10 198.64 L 209.92 199.74 C 209.78 200.59 210.35 201.39 211.20 201.53 C 212.05 201.68 212.86 201.10 213.00 200.25 L 213.18 199.15 C 213.33 198.30 212.75 197.50 211.90 197.36 C 211.05 197.21 210.25 197.79 210.10 198.64 Z M 209.94 199.63 L 209.70 200.67 C 209.50 201.51 210.02 202.35 210.86 202.55 C 211.69 202.74 212.54 202.23 212.73 201.39 L 212.98 200.35 C 213.18 199.51 212.66 198.67 211.82 198.47 C 210.98 198.28 210.14 198.80 209.94 199.63 Z M 209.72 200.58 L 209.44 201.52 C 209.19 202.35 209.66 203.22 210.48 203.47 C 211.31 203.71 212.18 203.25 212.43 202.42 L 212.71 201.48 C 212.96 200.65 212.49 199.78 211.67 199.53 C 210.84 199.28 209.97 199.75 209.72 200.58 Z M 209.46 201.45 L 209.15 202.31 C 208.86 203.12 209.29 204.02 210.10 204.31 C 210.91 204.59 211.81 204.17 212.10 203.36 L 212.40 202.49 C 212.69 201.68 212.27 200.79 211.45 200.50 C 210.64 200.21 209.75 200.64 209.46 201.45 Z M 209.17 202.26 L 208.84 203.10 C 208.52 203.90 208.91 204.81 209.71 205.13 C 210.51 205.45 211.42 205.06 211.74 204.26 L 212.08 203.41 C 212.39 202.61 212.00 201.70 211.20 201.38 C 210.40 201.07 209.49 201.46 209.17 202.26 Z M 208.86 203.06 L 208.48 203.93 C 208.13 204.72 208.50 205.64 209.29 205.98 C 210.08 206.33 211.00 205.96 211.34 205.17 L 211.72 204.30 C 212.06 203.51 211.70 202.59 210.91 202.25 C 210.12 201.90 209.20 202.27 208.86 203.06 Z M 208.50 203.88 L 208.09 204.75 C 207.72 205.52 208.05 206.46 208.83 206.83 C 209.61 207.20 210.54 206.86 210.91 206.09 L 211.32 205.22 C 211.69 204.44 211.36 203.51 210.58 203.14 C 209.80 202.77 208.87 203.10 208.50 203.88 Z M 208.11 204.71 L 207.63 205.64 C 207.24 206.41 207.55 207.35 208.32 207.74 C 209.09 208.13 210.03 207.82 210.42 207.05 L 210.89 206.12 C 211.28 205.35 210.97 204.41 210.21 204.02 C 209.44 203.63 208.50 203.94 208.11 204.71 Z M 207.64 205.62 L 207.20 206.46 C 206.80 207.23 207.09 208.17 207.85 208.57 C 208.61 208.97 209.56 208.68 209.96 207.92 L 210.41 207.07 C 210.81 206.31 210.52 205.37 209.75 204.97 C 208.99 204.56 208.05 204.86 207.64 205.62 Z M 207.20 206.45 L 206.77 207.26 C 206.37 208.02 206.65 208.96 207.41 209.37 C 208.17 209.78 209.12 209.49 209.52 208.73 L 209.96 207.93 C 210.36 207.17 210.08 206.22 209.32 205.82 C 208.56 205.41 207.61 205.69 207.20 206.45 Z M 206.78 207.25 L 206.31 208.11 C 205.90 208.87 206.18 209.82 206.94 210.23 C 207.69 210.64 208.64 210.36 209.05 209.60 L 209.52 208.74 C 209.93 207.98 209.65 207.03 208.89 206.62 C 208.14 206.21 207.19 206.49 206.78 207.25 Z M 206.31 208.11 L 205.81 209.02 C 205.40 209.78 205.68 210.72 206.43 211.14 C 207.19 211.55 208.14 211.27 208.55 210.52 L 209.05 209.61 C 209.46 208.85 209.19 207.90 208.43 207.49 C 207.67 207.07 206.72 207.35 206.31 208.11 Z M 205.81 209.02 L 205.29 209.96 C 204.88 210.72 205.15 211.67 205.91 212.08 C 206.67 212.50 207.61 212.22 208.03 211.47 L 208.55 210.52 C 208.97 209.76 208.69 208.81 207.93 208.40 C 207.18 207.98 206.23 208.26 205.81 209.02 Z M 205.29 209.96 L 204.77 210.91 C 204.36 211.66 204.63 212.61 205.39 213.03 C 206.14 213.44 207.09 213.17 207.51 212.41 L 208.03 211.47 C 208.44 210.71 208.17 209.76 207.41 209.35 C 206.66 208.93 205.71 209.21 205.29 209.96 Z M 204.77 210.91 L 204.30 211.76 C 203.89 212.52 204.16 213.47 204.92 213.88 C 205.67 214.30 206.62 214.03 207.04 213.27 L 207.51 212.41 C 207.93 211.66 207.65 210.71 206.89 210.29 C 206.14 209.88 205.19 210.15 204.77 210.91 Z M 204.30 211.76 L 203.82 212.63 C 203.41 213.39 203.68 214.34 204.44 214.75 C 205.19 215.17 206.14 214.89 206.56 214.14 L 207.04 213.27 C 207.45 212.52 207.18 211.57 206.42 211.15 C 205.67 210.73 204.72 211.01 204.30 211.76 Z M 203.82 212.63 L 203.34 213.51 C 202.93 214.26 203.20 215.21 203.96 215.63 C 204.71 216.05 205.66 215.77 206.08 215.01 L 206.56 214.14 C 206.97 213.38 206.70 212.43 205.94 212.02 C 205.19 211.60 204.24 211.88 203.82 212.63 Z M 203.34 213.51 L 202.86 214.39 C 202.44 215.15 202.72 216.10 203.47 216.51 C 204.23 216.93 205.18 216.65 205.59 215.90 L 206.08 215.01 C 206.49 214.26 206.22 213.31 205.46 212.89 C 204.71 212.48 203.76 212.75 203.34 213.51 Z M 202.85 214.39 L 202.37 215.28 C 201.95 216.04 202.23 216.99 202.98 217.40 C 203.74 217.82 204.69 217.54 205.10 216.78 L 205.59 215.90 C 206.01 215.14 205.73 214.19 204.97 213.78 C 204.22 213.36 203.27 213.64 202.85 214.39 Z M 202.37 215.28 L 201.88 216.17 C 201.46 216.93 201.74 217.88 202.50 218.29 C 203.25 218.71 204.20 218.43 204.62 217.67 L 205.11 216.78 C 205.52 216.03 205.24 215.08 204.49 214.66 C 203.73 214.25 202.78 214.53 202.37 215.28 Z M 201.88 216.17 L 201.38 217.08 C 200.97 217.84 201.25 218.78 202.00 219.20 C 202.76 219.61 203.71 219.33 204.12 218.58 L 204.62 217.67 C 205.03 216.92 204.75 215.97 204.00 215.55 C 203.24 215.14 202.29 215.42 201.88 216.17 Z M 201.38 217.08 L 200.89 217.98 C 200.48 218.73 200.76 219.68 201.51 220.10 C 202.27 220.51 203.22 220.23 203.63 219.48 L 204.12 218.58 C 204.54 217.82 204.26 216.87 203.50 216.46 C 202.75 216.04 201.80 216.32 201.38 217.08 Z M 200.89 217.98 L 200.40 218.87 C 199.99 219.62 200.26 220.57 201.02 220.99 C 201.77 221.40 202.72 221.13 203.14 220.37 L 203.63 219.48 C 204.04 218.72 203.77 217.78 203.01 217.36 C 202.26 216.94 201.31 217.22 200.89 217.98 Z M 200.41 218.86 L 199.92 219.73 C 199.50 220.49 199.77 221.44 200.53 221.86 C 201.28 222.28 202.23 222.00 202.65 221.25 L 203.14 220.38 C 203.55 219.62 203.28 218.67 202.53 218.25 C 201.78 217.83 200.83 218.11 200.41 218.86 Z M 199.93 219.73 L 199.44 220.58 C 199.02 221.33 199.29 222.28 200.04 222.71 C 200.79 223.13 201.74 222.86 202.16 222.11 L 202.65 221.26 C 203.07 220.51 202.80 219.56 202.05 219.13 C 201.30 218.71 200.35 218.98 199.93 219.73 Z M 199.45 220.57 L 198.97 221.40 C 198.55 222.15 198.80 223.10 199.55 223.53 C 200.30 223.96 201.25 223.70 201.68 222.95 L 202.16 222.12 C 202.59 221.38 202.33 220.42 201.58 219.99 C 200.83 219.56 199.88 219.82 199.45 220.57 Z M 198.98 221.38 L 198.44 222.30 C 198.01 223.05 198.25 224.00 199.00 224.44 C 199.74 224.88 200.70 224.63 201.13 223.89 L 201.67 222.97 C 202.11 222.23 201.86 221.27 201.12 220.83 C 200.38 220.39 199.42 220.64 198.98 221.38 Z M 198.46 222.28 L 197.91 223.18 C 197.46 223.91 197.69 224.88 198.43 225.32 C 199.16 225.77 200.12 225.54 200.57 224.81 L 201.12 223.91 C 201.57 223.17 201.34 222.21 200.60 221.76 C 199.87 221.31 198.90 221.55 198.46 222.28 Z M 197.93 223.15 L 197.38 224.00 C 196.92 224.73 197.13 225.69 197.86 226.16 C 198.58 226.62 199.55 226.41 200.01 225.68 L 200.56 224.83 C 201.02 224.11 200.81 223.14 200.08 222.68 C 199.35 222.21 198.39 222.42 197.93 223.15 Z M 197.40 223.97 L 196.86 224.77 C 196.38 225.49 196.57 226.46 197.28 226.94 C 198.00 227.42 198.97 227.23 199.45 226.52 L 199.99 225.72 C 200.47 225.00 200.29 224.03 199.57 223.55 C 198.86 223.07 197.89 223.25 197.40 223.97 Z M 196.89 224.73 L 196.35 225.49 C 195.84 226.19 196.00 227.16 196.70 227.67 C 197.40 228.17 198.38 228.01 198.88 227.31 L 199.42 226.56 C 199.93 225.86 199.77 224.88 199.07 224.38 C 198.37 223.87 197.39 224.03 196.89 224.73 Z M 196.38 225.44 L 195.75 226.25 C 195.22 226.93 195.34 227.91 196.02 228.44 C 196.69 228.98 197.68 228.85 198.21 228.18 L 198.84 227.36 C 199.37 226.68 199.25 225.70 198.57 225.17 C 197.89 224.64 196.91 224.76 196.38 225.44 Z M 195.79 226.20 L 195.10 227.00 C 194.54 227.65 194.62 228.64 195.27 229.20 C 195.92 229.76 196.91 229.69 197.47 229.03 L 198.16 228.23 C 198.72 227.58 198.65 226.59 198.00 226.03 C 197.34 225.47 196.36 225.54 195.79 226.20 Z M 195.16 226.94 L 194.47 227.66 C 193.87 228.28 193.90 229.27 194.52 229.87 C 195.14 230.46 196.13 230.44 196.73 229.81 L 197.42 229.09 C 198.01 228.47 197.99 227.48 197.37 226.89 C 196.74 226.29 195.75 226.31 195.16 226.94 Z M 194.53 227.60 L 193.85 228.24 C 193.22 228.83 193.19 229.82 193.78 230.44 C 194.37 231.07 195.36 231.10 195.98 230.52 L 196.67 229.87 C 197.30 229.28 197.33 228.30 196.74 227.67 C 196.15 227.04 195.16 227.01 194.53 227.60 Z M 193.92 228.17 L 193.17 228.79 C 192.50 229.34 192.41 230.33 192.96 230.99 C 193.51 231.66 194.49 231.75 195.16 231.20 L 195.91 230.58 C 196.58 230.03 196.67 229.05 196.12 228.38 C 195.57 227.72 194.59 227.62 193.92 228.17 Z M 193.26 228.72 L 192.43 229.31 C 191.73 229.81 191.56 230.78 192.06 231.49 C 192.56 232.19 193.54 232.36 194.24 231.86 L 195.07 231.27 C 195.77 230.77 195.94 229.80 195.44 229.10 C 194.94 228.39 193.96 228.23 193.26 228.72 Z M 192.53 229.25 L 191.70 229.75 C 190.96 230.20 190.72 231.16 191.16 231.89 C 191.61 232.63 192.57 232.87 193.31 232.42 L 194.14 231.92 C 194.88 231.48 195.12 230.52 194.67 229.78 C 194.23 229.04 193.27 228.80 192.53 229.25 Z M 191.78 229.70 L 190.92 230.15 C 190.16 230.55 189.86 231.50 190.26 232.26 C 190.66 233.02 191.61 233.32 192.37 232.92 L 193.23 232.47 C 193.99 232.07 194.28 231.13 193.88 230.36 C 193.48 229.60 192.54 229.30 191.78 229.70 Z M 190.99 230.12 L 190.14 230.52 C 189.35 230.88 189.02 231.81 189.38 232.59 C 189.75 233.37 190.68 233.71 191.46 233.35 L 192.31 232.95 C 193.09 232.58 193.43 231.65 193.06 230.87 C 192.70 230.09 191.77 229.76 190.99 230.12 Z M 190.20 230.49 L 189.29 230.87 C 188.49 231.20 188.11 232.12 188.45 232.91 C 188.78 233.71 189.69 234.08 190.49 233.75 L 191.40 233.37 C 192.19 233.04 192.57 232.13 192.24 231.33 C 191.91 230.54 190.99 230.16 190.20 230.49 Z M 189.35 230.85 L 188.36 231.21 C 187.55 231.51 187.14 232.41 187.44 233.22 C 187.74 234.02 188.63 234.44 189.44 234.14 L 190.43 233.78 C 191.24 233.48 191.65 232.58 191.35 231.77 C 191.05 230.96 190.15 230.55 189.35 230.85 Z M 188.42 231.19 L 187.49 231.50 C 186.67 231.77 186.23 232.65 186.50 233.47 C 186.77 234.29 187.65 234.73 188.47 234.46 L 189.39 234.16 C 190.21 233.89 190.66 233.01 190.39 232.19 C 190.12 231.37 189.23 230.92 188.42 231.19 Z M 187.53 231.48 L 186.64 231.75 C 185.81 232.00 185.34 232.87 185.59 233.70 C 185.84 234.52 186.71 234.99 187.53 234.74 L 188.43 234.47 C 189.25 234.23 189.72 233.36 189.47 232.53 C 189.23 231.70 188.36 231.24 187.53 231.48 Z M 186.66 231.74 L 185.71 232.01 C 184.88 232.24 184.39 233.11 184.63 233.94 C 184.86 234.77 185.72 235.25 186.55 235.02 L 187.51 234.75 C 188.34 234.52 188.82 233.66 188.59 232.83 C 188.35 232.00 187.49 231.51 186.66 231.74 Z M 185.73 232.01 L 184.72 232.27 C 183.89 232.50 183.39 233.35 183.61 234.18 C 183.83 235.02 184.69 235.51 185.52 235.29 L 186.53 235.02 C 187.36 234.80 187.86 233.95 187.64 233.11 C 187.42 232.28 186.56 231.78 185.73 232.01 Z M 184.73 232.27 L 183.67 232.54 C 182.84 232.76 182.33 233.61 182.55 234.44 C 182.76 235.28 183.61 235.78 184.45 235.57 L 185.51 235.30 C 186.34 235.08 186.85 234.23 186.63 233.40 C 186.42 232.56 185.57 232.06 184.73 232.27 Z M 183.68 232.54 L 182.69 232.79 C 181.85 233.00 181.35 233.85 181.55 234.68 C 181.76 235.52 182.61 236.03 183.45 235.82 L 184.44 235.57 C 185.27 235.36 185.78 234.51 185.57 233.68 C 185.36 232.84 184.52 232.33 183.68 232.54 Z M 182.70 232.79 L 181.69 233.03 C 180.85 233.24 180.34 234.08 180.54 234.92 C 180.75 235.76 181.59 236.27 182.43 236.07 L 183.44 235.82 C 184.28 235.61 184.79 234.77 184.59 233.93 C 184.38 233.09 183.54 232.58 182.70 232.79 Z M 181.70 233.03 L 180.70 233.27 C 179.86 233.47 179.34 234.31 179.54 235.15 C 179.74 235.99 180.58 236.50 181.42 236.31 L 182.42 236.07 C 183.26 235.87 183.78 235.03 183.58 234.19 C 183.38 233.35 182.54 232.83 181.70 233.03 Z M 180.71 233.26 L 179.75 233.49 C 178.91 233.68 178.38 234.52 178.57 235.36 C 178.76 236.20 179.60 236.72 180.44 236.53 L 181.41 236.31 C 182.25 236.12 182.78 235.28 182.58 234.44 C 182.39 233.60 181.55 233.07 180.71 233.26 Z M 179.76 233.48 L 178.85 233.68 C 178.01 233.86 177.48 234.69 177.66 235.54 C 177.84 236.38 178.67 236.91 179.52 236.73 L 180.43 236.53 C 181.27 236.35 181.80 235.52 181.62 234.68 C 181.44 233.83 180.60 233.30 179.76 233.48 Z M 178.88 233.67 L 177.79 233.89 C 176.94 234.06 176.40 234.88 176.57 235.73 C 176.73 236.57 177.56 237.12 178.40 236.95 L 179.49 236.74 C 180.34 236.57 180.88 235.74 180.72 234.90 C 180.55 234.05 179.72 233.51 178.88 233.67 Z M 177.82 233.89 L 176.82 234.07 C 175.97 234.22 175.41 235.03 175.56 235.88 C 175.72 236.73 176.53 237.29 177.38 237.14 L 178.37 236.96 C 179.22 236.81 179.79 235.99 179.63 235.14 C 179.48 234.30 178.67 233.73 177.82 233.89 Z M 176.84 234.06 L 175.91 234.22 C 175.06 234.37 174.49 235.17 174.63 236.02 C 174.78 236.87 175.58 237.44 176.43 237.30 L 177.36 237.14 C 178.21 237.00 178.78 236.19 178.64 235.34 C 178.50 234.49 177.69 233.92 176.84 234.06 Z M 175.91 234.22 L 175.00 234.37 C 174.15 234.52 173.58 235.32 173.72 236.17 C 173.86 237.02 174.67 237.60 175.52 237.45 L 176.43 237.30 C 177.28 237.16 177.86 236.35 177.71 235.50 C 177.57 234.65 176.76 234.08 175.91 234.22 Z M 174.99 234.38 L 174.02 234.55 C 173.17 234.69 172.60 235.50 172.75 236.35 C 172.90 237.20 173.71 237.77 174.55 237.62 L 175.53 237.45 C 176.38 237.30 176.95 236.50 176.80 235.65 C 176.65 234.80 175.84 234.23 174.99 234.38 Z M 174.01 234.55 L 173.03 234.72 C 172.18 234.87 171.61 235.68 171.76 236.53 C 171.91 237.38 172.72 237.95 173.57 237.80 L 174.56 237.62 C 175.41 237.47 175.97 236.66 175.82 235.81 C 175.67 234.96 174.86 234.40 174.01 234.55 Z M 173.03 234.72 L 172.04 234.89 C 171.19 235.04 170.62 235.85 170.77 236.70 C 170.92 237.55 171.73 238.12 172.57 237.97 L 173.57 237.80 C 174.42 237.65 174.99 236.84 174.84 235.99 C 174.69 235.14 173.88 234.57 173.03 234.72 Z M 172.05 234.89 L 171.05 235.06 C 170.20 235.20 169.63 236.00 169.77 236.86 C 169.91 237.71 170.72 238.28 171.57 238.14 L 172.56 237.97 C 173.41 237.83 173.99 237.03 173.85 236.17 C 173.70 235.32 172.90 234.75 172.05 234.89 Z M 171.07 235.06 L 170.08 235.21 C 169.22 235.35 168.64 236.15 168.78 237.00 C 168.91 237.85 169.71 238.43 170.57 238.30 L 171.56 238.14 C 172.41 238.00 172.99 237.20 172.85 236.35 C 172.72 235.50 171.92 234.92 171.07 235.06 Z M 170.08 235.21 L 169.09 235.36 C 168.24 235.50 167.66 236.29 167.79 237.15 C 167.92 238.00 168.72 238.58 169.57 238.45 L 170.56 238.30 C 171.41 238.17 171.99 237.37 171.86 236.52 C 171.73 235.67 170.93 235.08 170.08 235.21 Z M 169.10 235.36 L 168.12 235.51 C 167.26 235.64 166.68 236.44 166.81 237.29 C 166.94 238.14 167.73 238.73 168.58 238.60 L 169.57 238.45 C 170.42 238.32 171.01 237.53 170.88 236.67 C 170.75 235.82 169.95 235.23 169.10 235.36 Z M 168.11 235.51 L 167.12 235.67 C 166.27 235.80 165.68 236.59 165.81 237.44 C 165.94 238.30 166.74 238.88 167.59 238.75 L 168.59 238.60 C 169.44 238.47 170.02 237.67 169.89 236.82 C 169.76 235.97 168.97 235.38 168.11 235.51 Z M 167.12 235.67 L 166.13 235.82 C 165.28 235.95 164.69 236.75 164.82 237.60 C 164.95 238.45 165.75 239.03 166.60 238.90 L 167.59 238.75 C 168.44 238.62 169.03 237.82 168.90 236.97 C 168.77 236.12 167.97 235.53 167.12 235.67 Z M 166.13 235.82 L 165.14 235.97 C 164.29 236.10 163.71 236.90 163.84 237.75 C 163.97 238.60 164.77 239.19 165.62 239.06 L 166.60 238.90 C 167.46 238.77 168.04 237.97 167.91 237.12 C 167.78 236.27 166.98 235.69 166.13 235.82 Z M 165.14 235.97 L 164.15 236.12 C 163.30 236.26 162.71 237.05 162.85 237.91 C 162.98 238.76 163.78 239.34 164.63 239.21 L 165.62 239.06 C 166.47 238.92 167.06 238.13 166.92 237.27 C 166.79 236.42 165.99 235.84 165.14 235.97 Z M 164.15 236.12 L 163.15 236.28 C 162.29 236.41 161.71 237.21 161.84 238.06 C 161.98 238.92 162.78 239.50 163.63 239.37 L 164.63 239.21 C 165.48 239.08 166.06 238.28 165.93 237.43 C 165.80 236.57 165.00 235.99 164.15 236.12 Z M 163.14 236.28 L 162.15 236.44 C 161.30 236.57 160.72 237.37 160.86 238.22 C 160.99 239.08 161.79 239.66 162.64 239.52 L 163.63 239.37 C 164.48 239.23 165.06 238.43 164.93 237.58 C 164.79 236.73 163.99 236.15 163.14 236.28 Z M 162.15 236.44 L 161.19 236.60 C 160.34 236.73 159.76 237.54 159.90 238.39 C 160.03 239.24 160.84 239.82 161.69 239.68 L 162.65 239.52 C 163.50 239.38 164.08 238.58 163.94 237.73 C 163.80 236.88 163.00 236.30 162.15 236.44 Z M 161.18 236.60 L 160.26 236.75 C 159.41 236.89 158.84 237.70 158.98 238.55 C 159.12 239.40 159.93 239.97 160.78 239.83 L 161.69 239.68 C 162.54 239.53 163.12 238.73 162.98 237.88 C 162.83 237.03 162.03 236.45 161.18 236.60 Z M 160.26 236.75 L 159.31 236.91 C 158.46 237.05 157.89 237.86 158.03 238.71 C 158.18 239.56 158.98 240.13 159.83 239.99 L 160.78 239.83 C 161.63 239.69 162.20 238.88 162.06 238.03 C 161.92 237.18 161.11 236.61 160.26 236.75 Z M 159.32 236.91 L 158.29 237.08 C 157.44 237.22 156.86 238.03 157.00 238.88 C 157.14 239.73 157.95 240.30 158.80 240.16 L 159.83 239.99 C 160.68 239.85 161.26 239.04 161.11 238.19 C 160.97 237.34 160.17 236.77 159.32 236.91 Z M 158.29 237.08 L 157.30 237.24 C 156.45 237.38 155.87 238.18 156.01 239.03 C 156.14 239.88 156.94 240.46 157.80 240.32 L 158.79 240.16 C 159.64 240.02 160.22 239.22 160.08 238.37 C 159.95 237.52 159.15 236.94 158.29 237.08 Z M 157.30 237.24 L 156.37 237.39 C 155.52 237.52 154.94 238.32 155.07 239.17 C 155.21 240.02 156.00 240.60 156.86 240.47 L 157.79 240.32 C 158.64 240.19 159.22 239.39 159.09 238.54 C 158.95 237.69 158.16 237.11 157.30 237.24 Z M 156.38 237.38 L 155.39 237.53 C 154.54 237.66 153.95 238.46 154.08 239.31 C 154.21 240.16 155.00 240.75 155.86 240.62 L 156.85 240.47 C 157.70 240.34 158.29 239.55 158.16 238.69 C 158.03 237.84 157.23 237.25 156.38 237.38 Z M 155.40 237.53 L 154.37 237.68 C 153.52 237.81 152.92 238.60 153.05 239.45 C 153.17 240.31 153.97 240.90 154.82 240.77 L 155.85 240.62 C 156.70 240.50 157.29 239.71 157.17 238.85 C 157.04 238.00 156.25 237.41 155.40 237.53 Z M 154.38 237.68 L 153.33 237.83 C 152.48 237.94 151.88 238.73 152.00 239.59 C 152.12 240.44 152.91 241.04 153.76 240.92 L 154.81 240.77 C 155.66 240.66 156.26 239.87 156.14 239.01 C 156.02 238.16 155.23 237.56 154.38 237.68 Z M 153.35 237.82 L 152.34 237.96 C 151.48 238.07 150.88 238.85 150.99 239.70 C 151.10 240.56 151.89 241.16 152.74 241.05 L 153.75 240.92 C 154.60 240.81 155.21 240.03 155.10 239.17 C 154.98 238.32 154.20 237.71 153.35 237.82 Z M 152.35 237.95 L 151.36 238.08 C 150.50 238.18 149.90 238.96 150.00 239.81 C 150.11 240.67 150.88 241.28 151.74 241.17 L 152.73 241.05 C 153.58 240.95 154.19 240.17 154.09 239.31 C 153.98 238.46 153.20 237.85 152.35 237.95 Z M 151.37 238.07 L 150.38 238.19 C 149.52 238.29 148.91 239.07 149.01 239.92 C 149.11 240.78 149.89 241.39 150.75 241.29 L 151.73 241.18 C 152.59 241.07 153.20 240.30 153.10 239.44 C 153.00 238.59 152.22 237.97 151.37 238.07 Z M 150.38 238.19 L 149.39 238.30 C 148.54 238.40 147.92 239.18 148.02 240.03 C 148.12 240.89 148.89 241.51 149.75 241.41 L 150.74 241.29 C 151.60 241.19 152.21 240.42 152.11 239.56 C 152.01 238.71 151.24 238.09 150.38 238.19 Z M 149.39 238.30 L 148.39 238.42 C 147.54 238.52 146.92 239.29 147.02 240.15 C 147.12 241.01 147.89 241.62 148.75 241.52 L 149.75 241.41 C 150.61 241.31 151.22 240.53 151.12 239.68 C 151.02 238.82 150.25 238.21 149.39 238.30 Z M 148.39 238.42 L 147.40 238.54 C 146.54 238.64 145.93 239.41 146.03 240.27 C 146.13 241.13 146.91 241.74 147.76 241.64 L 148.75 241.52 C 149.61 241.42 150.22 240.64 150.12 239.79 C 150.02 238.93 149.25 238.32 148.39 238.42 Z M 147.40 238.54 L 146.41 238.65 C 145.55 238.76 144.94 239.53 145.04 240.39 C 145.14 241.24 145.92 241.86 146.77 241.76 L 147.76 241.64 C 148.62 241.54 149.23 240.76 149.13 239.90 C 149.03 239.05 148.25 238.44 147.40 238.54 Z M 146.41 238.65 L 145.41 238.77 C 144.56 238.87 143.94 239.64 144.04 240.50 C 144.14 241.36 144.92 241.97 145.77 241.87 L 146.77 241.76 C 147.63 241.66 148.24 240.88 148.14 240.02 C 148.04 239.17 147.27 238.55 146.41 238.65 Z M 145.42 238.77 L 144.42 238.88 C 143.56 238.97 142.95 239.75 143.04 240.60 C 143.14 241.46 143.91 242.08 144.76 241.98 L 145.76 241.87 C 146.62 241.78 147.24 241.01 147.14 240.15 C 147.05 239.29 146.28 238.67 145.42 238.77 Z M 144.43 238.88 L 143.44 238.98 C 142.58 239.07 141.96 239.83 142.04 240.69 C 142.13 241.55 142.90 242.17 143.75 242.09 L 144.75 241.98 C 145.61 241.90 146.23 241.13 146.15 240.27 C 146.06 239.42 145.29 238.79 144.43 238.88 Z M 143.46 238.98 L 142.46 239.07 C 141.60 239.14 140.97 239.90 141.04 240.76 C 141.12 241.62 141.88 242.25 142.74 242.18 L 143.74 242.09 C 144.59 242.01 145.23 241.25 145.15 240.39 C 145.07 239.53 144.32 238.90 143.46 238.98 Z M 142.48 239.07 L 141.48 239.14 C 140.62 239.21 139.98 239.95 140.04 240.81 C 140.11 241.67 140.86 242.32 141.72 242.25 L 142.72 242.18 C 143.58 242.11 144.22 241.36 144.16 240.50 C 144.09 239.64 143.34 239.00 142.48 239.07 Z M 141.51 239.14 L 140.51 239.20 C 139.65 239.25 139.00 239.99 139.05 240.85 C 139.10 241.72 139.84 242.37 140.70 242.32 L 141.70 242.26 C 142.56 242.20 143.21 241.46 143.16 240.60 C 143.11 239.74 142.37 239.09 141.51 239.14 Z M 140.53 239.20 L 139.54 239.25 C 138.67 239.29 138.01 240.02 138.05 240.88 C 138.10 241.74 138.83 242.41 139.69 242.37 L 140.68 242.32 C 141.54 242.28 142.21 241.54 142.17 240.68 C 142.12 239.82 141.39 239.16 140.53 239.20 Z M 139.55 239.25 L 138.56 239.28 C 137.69 239.32 137.02 240.04 137.05 240.90 C 137.09 241.76 137.81 242.44 138.67 242.40 L 139.67 242.37 C 140.53 242.34 141.20 241.61 141.17 240.75 C 141.14 239.89 140.42 239.22 139.55 239.25 Z M 138.57 239.28 L 137.57 239.31 C 136.71 239.33 136.03 240.05 136.05 240.91 C 136.07 241.77 136.79 242.45 137.65 242.43 L 138.65 242.40 C 139.52 242.38 140.20 241.66 140.17 240.80 C 140.15 239.94 139.43 239.26 138.57 239.28 Z M 137.58 239.31 L 136.58 239.33 C 135.72 239.34 135.03 240.05 135.05 240.92 C 135.06 241.78 135.77 242.46 136.64 242.45 L 137.64 242.43 C 138.50 242.42 139.19 241.71 139.17 240.84 C 139.16 239.98 138.45 239.29 137.58 239.31 Z M 136.59 239.33 L 135.59 239.34 C 134.72 239.35 134.03 240.05 134.04 240.92 C 134.05 241.78 134.76 242.47 135.62 242.46 L 136.62 242.45 C 137.49 242.44 138.18 241.73 138.17 240.87 C 138.16 240.01 137.45 239.32 136.59 239.33 Z M 135.59 239.34 L 134.59 239.34 C 133.73 239.35 133.03 240.05 133.04 240.91 C 133.04 241.77 133.74 242.47 134.61 242.47 L 135.61 242.46 C 136.47 242.46 137.17 241.75 137.16 240.89 C 137.16 240.03 136.46 239.33 135.59 239.34 Z M 134.59 239.34 L 133.60 239.34 C 132.73 239.35 132.04 240.05 132.04 240.91 C 132.04 241.77 132.74 242.47 133.60 242.47 L 134.60 242.47 C 135.46 242.46 136.16 241.76 136.16 240.90 C 136.16 240.04 135.46 239.34 134.59 239.34 Z M 133.60 239.34 L 132.60 239.34 C 131.74 239.35 131.04 240.04 131.04 240.91 C 131.04 241.77 131.74 242.47 132.60 242.47 L 133.60 242.47 C 134.46 242.47 135.16 241.77 135.16 240.91 C 135.16 240.04 134.46 239.34 133.60 239.34 Z M 132.61 239.34 L 131.56 239.34 C 130.70 239.34 130.00 240.04 129.99 240.90 C 129.99 241.76 130.69 242.46 131.55 242.47 L 132.60 242.47 C 133.46 242.47 134.16 241.77 134.16 240.91 C 134.17 240.05 133.47 239.35 132.61 239.34 Z M 131.57 239.34 L 130.55 239.33 C 129.69 239.32 128.98 240.01 128.97 240.88 C 128.96 241.74 129.65 242.44 130.51 242.45 L 131.54 242.47 C 132.40 242.47 133.11 241.78 133.12 240.92 C 133.13 240.06 132.43 239.35 131.57 239.34 Z M 130.58 239.33 L 129.58 239.30 C 128.72 239.28 128.00 239.96 127.97 240.82 C 127.95 241.68 128.63 242.40 129.49 242.42 L 130.49 242.45 C 131.35 242.48 132.07 241.80 132.09 240.94 C 132.12 240.08 131.44 239.36 130.58 239.33 Z M 129.62 239.31 L 128.66 239.25 C 127.80 239.20 127.06 239.86 127.01 240.72 C 126.96 241.58 127.62 242.32 128.48 242.37 L 129.45 242.42 C 130.31 242.47 131.04 241.81 131.09 240.95 C 131.14 240.09 130.48 239.35 129.62 239.31 Z M 128.72 239.26 L 127.77 239.17 C 126.91 239.08 126.15 239.71 126.07 240.57 C 125.99 241.43 126.62 242.19 127.47 242.27 L 128.42 242.36 C 129.28 242.45 130.04 241.82 130.12 240.96 C 130.21 240.10 129.58 239.34 128.72 239.26 Z M 127.85 239.18 L 126.89 239.03 C 126.04 238.91 125.25 239.49 125.12 240.35 C 124.99 241.20 125.58 241.99 126.43 242.12 L 127.39 242.26 C 128.24 242.39 129.04 241.80 129.17 240.95 C 129.29 240.10 128.70 239.30 127.85 239.18 Z M 126.99 239.05 L 126.05 238.85 C 125.20 238.67 124.37 239.21 124.19 240.05 C 124.01 240.89 124.55 241.72 125.39 241.90 L 126.34 242.10 C 127.18 242.28 128.01 241.75 128.19 240.90 C 128.37 240.06 127.83 239.23 126.99 239.05 Z M 126.15 238.87 L 125.19 238.60 C 124.36 238.37 123.50 238.85 123.26 239.68 C 123.02 240.51 123.51 241.37 124.34 241.61 L 125.29 241.88 C 126.12 242.11 126.99 241.63 127.22 240.80 C 127.46 239.97 126.98 239.11 126.15 238.87 Z M 125.28 238.63 L 124.29 238.28 C 123.48 237.99 122.58 238.42 122.30 239.23 C 122.01 240.04 122.43 240.93 123.25 241.22 L 124.24 241.57 C 125.05 241.86 125.95 241.44 126.23 240.62 C 126.52 239.81 126.10 238.92 125.28 238.63 Z M 124.37 238.31 L 123.44 237.92 C 122.64 237.59 121.73 237.97 121.39 238.76 C 121.06 239.56 121.44 240.47 122.23 240.80 L 123.17 241.19 C 123.96 241.52 124.88 241.15 125.21 240.35 C 125.54 239.56 125.16 238.64 124.37 238.31 Z M 123.50 237.95 L 122.58 237.51 C 121.80 237.14 120.87 237.47 120.50 238.25 C 120.13 239.03 120.46 239.96 121.24 240.33 L 122.17 240.77 C 122.95 241.14 123.88 240.81 124.25 240.03 C 124.62 239.25 124.28 238.32 123.50 237.95 Z M 122.65 237.55 L 121.74 237.06 C 120.98 236.65 120.03 236.93 119.62 237.69 C 119.21 238.45 119.50 239.40 120.26 239.81 L 121.17 240.30 C 121.93 240.71 122.87 240.42 123.28 239.66 C 123.69 238.90 123.41 237.96 122.65 237.55 Z M 121.82 237.10 L 120.95 236.57 C 120.22 236.12 119.26 236.34 118.80 237.08 C 118.35 237.81 118.58 238.77 119.31 239.22 L 120.17 239.76 C 120.91 240.21 121.87 239.99 122.32 239.25 C 122.78 238.52 122.55 237.56 121.82 237.10 Z M 121.05 236.63 L 120.27 236.07 C 119.57 235.56 118.60 235.72 118.09 236.41 C 117.58 237.11 117.74 238.09 118.44 238.59 L 119.21 239.16 C 119.91 239.67 120.89 239.51 121.39 238.82 C 121.90 238.12 121.75 237.14 121.05 236.63 Z M 120.40 236.18 L 119.63 235.48 C 119.00 234.90 118.01 234.94 117.43 235.58 C 116.85 236.22 116.90 237.21 117.53 237.79 L 118.30 238.49 C 118.94 239.07 119.93 239.02 120.51 238.38 C 121.09 237.74 121.04 236.76 120.40 236.18 Z M 119.78 235.63 L 119.11 234.84 C 118.56 234.17 117.58 234.09 116.92 234.64 C 116.25 235.20 116.17 236.18 116.72 236.84 L 117.39 237.63 C 117.94 238.30 118.93 238.38 119.59 237.83 C 120.25 237.27 120.33 236.29 119.78 235.63 Z M 119.23 234.98 L 118.69 234.17 C 118.22 233.45 117.26 233.25 116.53 233.72 C 115.81 234.19 115.61 235.16 116.08 235.88 L 116.61 236.69 C 117.08 237.41 118.05 237.62 118.77 237.15 C 119.49 236.67 119.70 235.71 119.23 234.98 Z M 118.76 234.27 L 118.30 233.45 C 117.89 232.70 116.94 232.42 116.18 232.83 C 115.43 233.25 115.15 234.20 115.57 234.95 L 116.02 235.78 C 116.44 236.53 117.38 236.81 118.14 236.39 C 118.90 235.98 119.17 235.03 118.76 234.27 Z M 118.32 233.48 L 118.15 233.16 C 117.76 232.40 116.81 232.10 116.05 232.50 C 115.28 232.89 114.99 233.84 115.38 234.60 L 115.55 234.92 C 115.95 235.69 116.89 235.99 117.66 235.59 C 118.42 235.19 118.72 234.25 118.32 233.48 Z"
      fill="black"
      fill-rule="nonzero" /></svg>