<svg xmlns="http://www.w3.org/2000/svg" width="300" height="300" viewBox="0 0 300 300">
<path d="M 103.23 75.84 L 102.90 76.79 C 102.63 77.61 103.07 78.50 103.88 78.77 C 104.70 79.05 105.59 78.61 105.86 77.79 L 106.19 76.84 C 106.46 76.02 106.02 75.13 105.21 74.86 C 104.39 74.58 103.50 75.02 103.23 75.84 Z M 102.88 76.86 L 102.60 77.82 C 102.36 78.65 102.84 79.52 103.67 79.76 C 104.50 80.00 105.36 79.52 105.60 78.69 L 105.88 77.73 C 106.12 76.90 105.65 76.04 104.82 75.80 C 103.99 75.56 103.12 76.03 102.88 76.86 Z M 102.57 77.96 L 102.38 78.93 C 102.22 79.77 102.77 80.59 103.62 80.76 C 104.46 80.92 105.28 80.37 105.45 79.52 L 105.64 78.56 C 105.80 77.71 105.25 76.89 104.40 76.72 C 103.56 76.56 102.74 77.11 102.57 77.96 Z M 102.36 79.12 L 102.30 80.06 C 102.24 80.92 102.89 81.67 103.75 81.72 C 104.61 81.78 105.35 81.13 105.41 80.27 L 105.47 79.33 C 105.53 78.47 104.88 77.72 104.02 77.67 C 103.16 77.61 102.41 78.26 102.36 79.12 Z M 102.29 80.23 L 102.33 81.19 C 102.36 82.05 103.09 82.72 103.95 82.69 C 104.81 82.66 105.48 81.93 105.45 81.07 L 105.41 80.10 C 105.38 79.24 104.65 78.57 103.79 78.61 C 102.93 78.64 102.26 79.36 102.29 80.23 Z M 102.34 81.28 L 102.43 82.30 C 102.51 83.16 103.28 83.79 104.13 83.71 C 104.99 83.63 105.62 82.87 105.54 82.01 L 105.45 80.98 C 105.36 80.12 104.60 79.49 103.74 79.58 C 102.89 79.66 102.26 80.42 102.34 81.28 Z M 102.44 82.32 L 102.54 83.31 C 102.63 84.17 103.40 84.79 104.26 84.70 C 105.12 84.61 105.74 83.84 105.65 82.98 L 105.54 81.99 C 105.45 81.13 104.68 80.51 103.82 80.60 C 102.97 80.70 102.34 81.46 102.44 82.32 Z M 102.54 83.30 L 102.63 84.21 C 102.71 85.07 103.47 85.70 104.33 85.62 C 105.19 85.53 105.82 84.77 105.74 83.91 L 105.65 83.00 C 105.56 82.14 104.80 81.51 103.94 81.59 C 103.08 81.68 102.46 82.44 102.54 83.30 Z M 102.63 84.19 L 102.71 85.17 C 102.78 86.03 103.53 86.67 104.39 86.60 C 105.25 86.53 105.89 85.77 105.82 84.91 L 105.74 83.93 C 105.67 83.07 104.91 82.44 104.05 82.51 C 103.19 82.58 102.55 83.33 102.63 84.19 Z M 102.71 85.15 L 102.78 86.19 C 102.83 87.05 103.58 87.70 104.44 87.65 C 105.30 87.59 105.95 86.84 105.89 85.98 L 105.82 84.94 C 105.76 84.08 105.02 83.43 104.16 83.49 C 103.30 83.54 102.65 84.29 102.71 85.15 Z M 102.77 86.16 L 102.83 87.27 C 102.87 88.13 103.60 88.79 104.46 88.75 C 105.32 88.71 105.99 87.98 105.95 87.12 L 105.89 86.01 C 105.85 85.15 105.12 84.49 104.26 84.53 C 103.40 84.57 102.73 85.30 102.77 86.16 Z M 102.83 87.24 L 102.86 88.22 C 102.88 89.08 103.61 89.76 104.47 89.73 C 105.33 89.71 106.01 88.99 105.98 88.12 L 105.95 87.14 C 105.92 86.28 105.20 85.61 104.34 85.63 C 103.48 85.66 102.80 86.38 102.83 87.24 Z M 102.86 88.20 L 102.88 89.21 C 102.89 90.07 103.60 90.76 104.47 90.74 C 105.33 90.73 106.01 90.02 106.00 89.15 L 105.98 88.14 C 105.96 87.28 105.25 86.60 104.39 86.61 C 103.53 86.63 102.84 87.34 102.86 88.20 Z M 102.88 89.20 L 102.89 90.22 C 102.90 91.08 103.60 91.77 104.46 91.76 C 105.33 91.75 106.02 91.05 106.01 90.19 L 106.00 89.17 C 105.99 88.30 105.28 87.61 104.42 87.62 C 103.56 87.63 102.87 88.34 102.88 89.20 Z M 102.89 90.21 L 102.89 91.22 C 102.89 92.08 103.60 92.78 104.46 92.78 C 105.32 92.77 106.02 92.07 106.01 91.21 L 106.01 90.20 C 106.01 89.33 105.30 88.64 104.44 88.64 C 103.58 88.64 102.88 89.35 102.89 90.21 Z M 102.89 91.22 L 102.89 92.20 C 102.89 93.06 103.59 93.76 104.45 93.76 C 105.32 93.76 106.01 93.06 106.01 92.20 L 106.01 91.21 C 106.01 90.35 105.31 89.65 104.45 89.65 C 103.59 89.65 102.89 90.35 102.89 91.22 Z M 102.89 92.20 L 102.89 93.24 C 102.89 94.10 103.59 94.80 104.45 94.80 C 105.31 94.80 106.01 94.10 106.01 93.24 L 106.01 92.20 C 106.01 91.34 105.31 90.64 104.45 90.64 C 103.59 90.64 102.89 91.34 102.89 92.20 Z M 102.89 93.24 L 102.89 94.25 C 102.89 95.11 103.59 95.81 104.45 95.81 C 105.31 95.81 106.01 95.11 106.01 94.25 L 106.01 93.24 C 106.01 92.37 105.31 91.68 104.45 91.68 C 103.59 91.68 102.89 92.37 102.89 93.24 Z M 102.89 94.25 L 102.89 95.24 C 102.89 96.10 103.59 96.80 104.45 96.80 C 105.31 96.80 106.01 96.10 106.01 95.24 L 106.01 94.25 C 106.01 93.39 105.31 92.69 104.45 92.69 C 103.59 92.69 102.89 93.39 102.89 94.25 Z M 102.89 95.24 L 102.89 96.21 C 102.89 97.07 103.59 97.77 104.45 97.77 C 105.31 97.77 106.01 97.07 106.01 96.21 L 106.01 95.24 C 106.01 94.37 105.31 93.67 104.45 93.67 C 103.59 93.67 102.89 94.37 102.89 95.24 Z M 102.89 96.21 L 102.89 97.17 C 102.89 98.04 103.59 98.74 104.45 98.74 C 105.31 98.74 106.01 98.04 106.01 97.17 L 106.01 96.21 C 106.01 95.35 105.31 94.65 104.45 94.65 C 103.59 94.65 102.89 95.35 102.89 96.21 Z M 102.89 97.17 L 102.89 98.01 C 102.89 98.87 103.59 99.57 104.45 99.57 C 105.31 99.57 106.01 98.87 106.01 98.01 L 106.01 97.17 C 106.01 96.31 105.31 95.61 104.45 95.61 C 103.59 95.61 102.89 96.31 102.89 97.17 Z M 102.89 98.01 L 102.89 98.89 C 102.89 99.75 103.59 100.45 104.45 100.45 C 105.31 100.45 106.01 99.75 106.01 98.89 L 106.01 98.01 C 106.01 97.15 105.31 96.45 104.45 96.45 C 103.59 96.45 102.89 97.15 102.89 98.01 Z M 102.89 98.89 L 102.89 99.84 C 102.89 100.70 103.59 101.40 104.45 101.40 C 105.31 101.40 106.01 100.70 106.01 99.84 L 106.01 98.89 C 106.01 98.03 105.31 97.33 104.45 97.33 C 103.59 97.33 102.89 98.03 102.89 98.89 Z M 102.89 99.84 L 102.89 100.88 C 102.89 101.75 103.59 102.45 104.45 102.45 C 105.31 102.45 106.01 101.75 106.01 100.88 L 106.01 99.84 C 106.01 98.98 105.31 98.28 104.45 98.28 C 103.59 98.28 102.89 98.98 102.89 99.84 Z M 102.89 100.88 L 102.89 102.05 C 102.89 102.91 103.59 103.61 104.45 103.61 C 105.31 103.61 106.01 102.91 106.01 102.05 L 106.01 100.88 C 106.01 100.02 105.31 99.32 104.45 99.32 C 103.59 99.32 102.89 100.02 102.89 100.88 Z M 102.89 102.05 L 102.89 103.13 C 102.89 103.99 103.59 104.69 104.45 104.69 C 105.31 104.69 106.01 103.99 106.01 103.13 L 106.01 102.05 C 106.01 101.19 105.31 100.49 104.45 100.49 C 103.59 100.49 102.89 101.19 102.89 102.05 Z M 102.89 103.13 L 102.89 104.04 C 102.89 104.90 103.59 105.60 104.45 105.60 C 105.31 105.60 106.01 104.91 106.01 104.04 L 106.01 103.13 C 106.01 102.27 105.32 101.57 104.45 101.57 C 103.59 101.57 102.89 102.27 102.89 103.13 Z M 102.89 104.04 L 102.89 105.00 C 102.89 105.86 103.59 106.56 104.45 106.56 C 105.31 106.57 106.01 105.87 106.01 105.01 L 106.01 104.04 C 106.01 103.18 105.32 102.48 104.45 102.48 C 103.59 102.48 102.89 103.18 102.89 104.04 Z M 102.89 105.00 L 102.89 106.00 C 102.88 106.86 103.58 107.56 104.44 107.56 C 105.30 107.57 106.01 106.87 106.01 106.01 L 106.01 105.01 C 106.01 104.15 105.32 103.45 104.46 103.44 C 103.59 103.44 102.89 104.14 102.89 105.00 Z M 102.89 105.99 L 102.88 107.02 C 102.87 107.88 103.57 108.59 104.43 108.59 C 105.29 108.60 106.00 107.90 106.00 107.04 L 106.01 106.01 C 106.01 105.15 105.32 104.45 104.46 104.44 C 103.59 104.44 102.89 105.13 102.89 105.99 Z M 102.88 107.02 L 102.87 108.06 C 102.86 108.92 103.55 109.63 104.42 109.64 C 105.28 109.64 105.98 108.95 105.99 108.09 L 106.00 107.04 C 106.01 106.18 105.32 105.48 104.46 105.47 C 103.59 105.46 102.89 106.15 102.88 107.02 Z M 102.87 108.05 L 102.86 109.10 C 102.85 109.96 103.53 110.67 104.40 110.68 C 105.26 110.70 105.97 110.01 105.98 109.14 L 105.99 108.09 C 106.00 107.23 105.31 106.52 104.45 106.51 C 103.59 106.50 102.88 107.19 102.87 108.05 Z M 102.86 109.09 L 102.84 110.14 C 102.82 111.00 103.51 111.71 104.37 111.73 C 105.23 111.74 105.94 111.06 105.96 110.19 L 105.98 109.15 C 105.99 108.29 105.31 107.58 104.45 107.56 C 103.58 107.55 102.87 108.23 102.86 109.09 Z M 102.84 110.13 L 102.81 111.15 C 102.79 112.02 103.47 112.73 104.34 112.75 C 105.20 112.77 105.91 112.09 105.93 111.23 L 105.96 110.20 C 105.98 109.34 105.30 108.63 104.44 108.60 C 103.57 108.58 102.86 109.27 102.84 110.13 Z M 102.81 111.14 L 102.78 112.26 C 102.75 113.12 103.43 113.84 104.29 113.87 C 105.15 113.89 105.87 113.22 105.90 112.36 L 105.93 111.24 C 105.96 110.38 105.29 109.66 104.42 109.63 C 103.56 109.60 102.84 110.28 102.81 111.14 Z M 102.78 112.24 L 102.73 113.35 C 102.70 114.21 103.37 114.94 104.23 114.97 C 105.09 115.01 105.82 114.34 105.85 113.48 L 105.90 112.37 C 105.93 111.51 105.26 110.78 104.40 110.75 C 103.54 110.71 102.81 111.38 102.78 112.24 Z M 102.74 113.34 L 102.69 114.41 C 102.65 115.27 103.31 116.00 104.17 116.04 C 105.03 116.08 105.76 115.41 105.80 114.55 L 105.85 113.49 C 105.89 112.63 105.23 111.90 104.37 111.86 C 103.51 111.81 102.78 112.48 102.74 113.34 Z M 102.69 114.40 L 102.63 115.42 C 102.59 116.28 103.25 117.02 104.11 117.06 C 104.97 117.11 105.70 116.45 105.75 115.59 L 105.80 114.56 C 105.85 113.70 105.19 112.97 104.33 112.92 C 103.47 112.88 102.73 113.54 102.69 114.40 Z M 102.63 115.41 L 102.58 116.39 C 102.53 117.25 103.18 117.99 104.04 118.04 C 104.90 118.09 105.64 117.43 105.69 116.57 L 105.75 115.59 C 105.80 114.73 105.14 113.99 104.28 113.94 C 103.42 113.89 102.68 114.55 102.63 115.41 Z M 102.58 116.38 L 102.52 117.32 C 102.46 118.18 103.12 118.92 103.98 118.97 C 104.84 119.02 105.58 118.37 105.63 117.51 L 105.69 116.58 C 105.75 115.72 105.09 114.97 104.23 114.92 C 103.37 114.87 102.63 115.52 102.58 116.38 Z M 102.52 117.31 L 102.46 118.20 C 102.41 119.06 103.06 119.80 103.92 119.86 C 104.78 119.91 105.52 119.26 105.58 118.40 L 105.63 117.51 C 105.69 116.65 105.04 115.91 104.18 115.85 C 103.32 115.80 102.57 116.45 102.52 117.31 Z M 102.46 118.20 L 102.40 119.10 C 102.35 119.96 103.00 120.70 103.86 120.76 C 104.72 120.81 105.46 120.16 105.52 119.30 L 105.58 118.40 C 105.63 117.54 104.98 116.80 104.12 116.74 C 103.26 116.68 102.52 117.34 102.46 118.20 Z M 102.40 119.10 L 102.34 120.13 C 102.28 120.99 102.94 121.73 103.80 121.79 C 104.66 121.84 105.40 121.19 105.46 120.33 L 105.52 119.30 C 105.57 118.44 104.92 117.70 104.06 117.64 C 103.20 117.59 102.46 118.24 102.40 119.10 Z M 102.34 120.14 L 102.28 121.12 C 102.23 121.98 102.89 122.72 103.75 122.77 C 104.61 122.82 105.35 122.16 105.40 121.30 L 105.46 120.32 C 105.51 119.46 104.85 118.72 103.99 118.67 C 103.13 118.62 102.39 119.28 102.34 120.14 Z M 102.28 121.13 L 102.23 122.09 C 102.19 122.95 102.85 123.69 103.71 123.73 C 104.57 123.78 105.30 123.12 105.35 122.25 L 105.40 121.29 C 105.44 120.43 104.78 119.70 103.92 119.65 C 103.06 119.61 102.33 120.27 102.28 121.13 Z M 102.23 122.11 L 102.19 123.08 C 102.15 123.94 102.82 124.67 103.68 124.70 C 104.54 124.74 105.27 124.07 105.31 123.21 L 105.35 122.24 C 105.39 121.38 104.72 120.65 103.86 120.61 C 103.00 120.58 102.27 121.24 102.23 122.11 Z M 102.19 123.09 L 102.15 124.10 C 102.12 124.96 102.80 125.68 103.66 125.71 C 104.52 125.74 105.24 125.06 105.27 124.20 L 105.31 123.20 C 105.34 122.34 104.66 121.61 103.80 121.58 C 102.94 121.55 102.22 122.23 102.19 123.09 Z M 102.15 124.11 L 102.13 125.10 C 102.11 125.96 102.79 126.68 103.65 126.70 C 104.51 126.72 105.23 126.04 105.25 125.18 L 105.27 124.19 C 105.29 123.33 104.61 122.61 103.75 122.59 C 102.89 122.57 102.17 123.25 102.15 124.11 Z M 102.13 125.11 L 102.11 126.08 C 102.10 126.94 102.79 127.65 103.65 127.67 C 104.51 127.68 105.22 126.99 105.23 126.13 L 105.25 125.17 C 105.26 124.30 104.58 123.59 103.72 123.58 C 102.85 123.57 102.14 124.25 102.13 125.11 Z M 102.11 126.09 L 102.10 127.09 C 102.09 127.95 102.78 128.66 103.65 128.67 C 104.51 128.68 105.21 127.99 105.22 127.12 L 105.23 126.12 C 105.24 125.26 104.55 124.55 103.69 124.54 C 102.83 124.54 102.12 125.23 102.11 126.09 Z M 102.10 127.10 L 102.10 128.12 C 102.09 128.98 102.78 129.68 103.65 129.69 C 104.51 129.69 105.21 129.00 105.22 128.14 L 105.22 127.12 C 105.23 126.25 104.54 125.55 103.67 125.54 C 102.81 125.54 102.11 126.23 102.10 127.10 Z M 102.10 128.12 L 102.09 129.15 C 102.09 130.01 102.78 130.71 103.65 130.72 C 104.51 130.72 105.21 130.02 105.21 129.16 L 105.22 128.13 C 105.22 127.27 104.52 126.57 103.66 126.57 C 102.80 126.56 102.10 127.26 102.10 128.12 Z M 102.09 129.15 L 102.09 130.18 C 102.09 131.04 102.79 131.74 103.65 131.74 C 104.51 131.74 105.21 131.04 105.21 130.18 L 105.21 129.16 C 105.22 128.30 104.52 127.60 103.65 127.59 C 102.79 127.59 102.09 128.29 102.09 129.15 Z M 102.09 130.18 L 102.09 131.18 C 102.09 132.04 102.79 132.74 103.65 132.74 C 104.51 132.74 105.21 132.04 105.21 131.18 L 105.21 130.18 C 105.21 129.32 104.51 128.62 103.65 128.62 C 102.79 128.62 102.09 129.32 102.09 130.18 Z M 102.09 131.18 L 102.09 132.24 C 102.09 133.11 102.79 133.81 103.65 133.81 C 104.51 133.81 105.21 133.11 105.21 132.24 L 105.21 131.18 C 105.21 130.32 104.51 129.62 103.65 129.62 C 102.79 129.62 102.09 130.32 102.09 131.18 Z M 102.09 132.24 L 102.09 133.29 C 102.09 134.16 102.79 134.86 103.65 134.86 C 104.51 134.86 105.21 134.16 105.21 133.29 L 105.21 132.24 C 105.21 131.38 104.51 130.68 103.65 130.68 C 102.79 130.68 102.09 131.38 102.09 132.24 Z M 102.09 133.29 L 102.09 134.31 C 102.09 135.17 102.79 135.87 103.65 135.87 C 104.51 135.87 105.21 135.17 105.21 134.31 L 105.21 133.29 C 105.21 132.43 104.51 131.73 103.65 131.73 C 102.79 131.73 102.09 132.43 102.09 133.29 Z M 102.09 134.31 L 102.09 135.29 C 102.09 136.15 102.79 136.85 103.65 136.85 C 104.51 136.85 105.21 136.15 105.21 135.29 L 105.21 134.31 C 105.21 133.45 104.51 132.75 103.65 132.75 C 102.79 132.75 102.09 133.45 102.09 134.31 Z M 102.09 135.29 L 102.09 136.25 C 102.09 137.11 102.79 137.81 103.65 137.81 C 104.51 137.81 105.21 137.11 105.21 136.25 L 105.21 135.29 C 105.21 134.43 104.51 133.73 103.65 133.73 C 102.79 133.73 102.09 134.43 102.09 135.29 Z M 102.09 136.25 L 102.09 137.18 C 102.09 138.05 102.79 138.74 103.65 138.74 C 104.51 138.74 105.21 138.05 105.21 137.18 L 105.21 136.25 C 105.21 135.38 104.51 134.68 103.65 134.68 C 102.79 134.68 102.09 135.38 102.09 136.25 Z M 102.09 137.18 L 102.09 138.19 C 102.09 139.06 102.79 139.76 103.65 139.76 C 104.51 139.76 105.21 139.06 105.21 138.19 L 105.21 137.18 C 105.21 136.32 104.51 135.62 103.65 135.62 C 102.79 135.62 102.09 136.32 102.09 137.18 Z M 102.09 138.19 L 102.09 139.21 C 102.09 140.07 102.79 140.77 103.65 140.77 C 104.51 140.77 105.21 140.07 105.21 139.21 L 105.21 138.19 C 105.21 137.33 104.51 136.63 103.65 136.63 C 102.79 136.63 102.09 137.33 102.09 138.19 Z M 102.09 139.21 L 102.09 140.21 C 102.09 141.07 102.79 141.77 103.65 141.77 C 104.51 141.77 105.21 141.07 105.21 140.21 L 105.21 139.21 C 105.21 138.34 104.51 137.65 103.65 137.65 C 102.79 137.65 102.09 138.34 102.09 139.21 Z M 102.09 140.21 L 102.09 141.20 C 102.09 142.06 102.79 142.76 103.65 142.76 C 104.51 142.76 105.21 142.06 105.21 141.20 L 105.21 140.21 C 105.21 139.34 104.51 138.65 103.65 138.65 C 102.79 138.65 102.09 139.34 102.09 140.21 Z M 102.09 141.20 L 102.09 142.18 C 102.09 143.05 102.79 143.74 103.65 143.74 C 104.51 143.74 105.21 143.05 105.21 142.18 L 105.21 141.20 C 105.21 140.34 104.51 139.64 103.65 139.64 C 102.79 139.64 102.09 140.34 102.09 141.20 Z M 102.09 142.18 L 102.09 143.18 C 102.09 144.04 102.79 144.74 103.65 144.74 C 104.51 144.74 105.21 144.04 105.21 143.18 L 105.21 142.18 C 105.21 141.32 104.51 140.62 103.65 140.62 C 102.79 140.62 102.09 141.32 102.09 142.18 Z M 102.09 143.18 L 102.09 144.18 C 102.09 145.04 102.79 145.74 103.65 145.74 C 104.51 145.74 105.21 145.04 105.21 144.18 L 105.21 143.18 C 105.21 142.32 104.51 141.62 103.65 141.62 C 102.79 141.62 102.09 142.32 102.09 143.18 Z M 102.09 144.18 L 102.09 145.18 C 102.09 146.04 102.79 146.74 103.65 146.74 C 104.51 146.74 105.21 146.04 105.21 145.18 L 105.21 144.18 C 105.21 143.32 104.51 142.62 103.65 142.62 C 102.79 142.62 102.09 143.32 102.09 144.18 Z M 102.09 145.18 L 102.09 146.18 C 102.09 147.04 102.79 147.74 103.65 147.74 C 104.51 147.74 105.21 147.04 105.21 146.18 L 105.21 145.18 C 105.21 144.32 104.51 143.62 103.65 143.62 C 102.79 143.62 102.09 144.32 102.09 145.18 Z M 102.09 146.18 L 102.09 147.18 C 102.09 148.04 102.79 148.74 103.65 148.74 C 104.51 148.74 105.21 148.04 105.21 147.18 L 105.21 146.18 C 105.21 145.32 104.51 144.62 103.65 144.62 C 102.79 144.62 102.09 145.32 102.09 146.18 Z M 102.09 147.18 L 102.09 148.16 C 102.09 149.02 102.79 149.72 103.65 149.72 C 104.51 149.72 105.21 149.02 105.21 148.16 L 105.21 147.18 C 105.21 146.31 104.51 145.62 103.65 145.62 C 102.79 145.62 102.09 146.31 102.09 147.18 Z M 102.09 148.16 L 102.09 149.11 C 102.09 149.98 102.79 150.67 103.65 150.67 C 104.52 150.67 105.21 149.97 105.21 149.11 L 105.21 148.16 C 105.21 147.29 104.51 146.60 103.65 146.60 C 102.79 146.60 102.09 147.30 102.09 148.16 Z M 102.09 149.12 L 102.09 150.09 C 102.10 150.95 102.80 151.65 103.66 151.64 C 104.52 151.64 105.22 150.94 105.22 150.08 L 105.21 149.11 C 105.21 148.25 104.51 147.55 103.65 147.55 C 102.78 147.55 102.09 148.26 102.09 149.12 Z M 102.09 150.09 L 102.10 151.09 C 102.11 151.95 102.81 152.64 103.67 152.63 C 104.54 152.63 105.23 151.92 105.22 151.06 L 105.22 150.07 C 105.21 149.21 104.51 148.51 103.64 148.52 C 102.78 148.53 102.09 149.23 102.09 150.09 Z M 102.10 151.09 L 102.11 152.12 C 102.13 152.98 102.83 153.67 103.70 153.66 C 104.56 153.65 105.25 152.94 105.24 152.08 L 105.22 151.05 C 105.21 150.19 104.50 149.50 103.64 149.51 C 102.78 149.52 102.09 150.23 102.10 151.09 Z M 102.11 152.13 L 102.14 153.20 C 102.15 154.06 102.87 154.74 103.73 154.73 C 104.59 154.71 105.28 154.00 105.26 153.13 L 105.24 152.07 C 105.22 151.21 104.51 150.52 103.64 150.54 C 102.78 150.55 102.10 151.27 102.11 152.13 Z M 102.14 153.21 L 102.16 154.18 C 102.19 155.04 102.90 155.72 103.77 155.70 C 104.63 155.68 105.31 154.96 105.28 154.10 L 105.26 153.12 C 105.23 152.26 104.52 151.58 103.66 151.61 C 102.79 151.63 102.11 152.35 102.14 153.21 Z M 102.16 154.19 L 102.19 155.18 C 102.22 156.04 102.94 156.71 103.80 156.69 C 104.67 156.66 105.34 155.94 105.31 155.08 L 105.28 154.09 C 105.26 153.23 104.54 152.55 103.67 152.58 C 102.81 152.60 102.14 153.32 102.16 154.19 Z M 102.19 155.18 L 102.23 156.19 C 102.26 157.05 102.98 157.72 103.84 157.70 C 104.70 157.67 105.38 156.94 105.35 156.08 L 105.31 155.07 C 105.29 154.21 104.56 153.54 103.70 153.57 C 102.84 153.60 102.17 154.32 102.19 155.18 Z M 102.23 156.19 L 102.26 157.21 C 102.29 158.07 103.01 158.74 103.88 158.71 C 104.74 158.68 105.41 157.96 105.38 157.10 L 105.35 156.08 C 105.32 155.22 104.60 154.55 103.74 154.57 C 102.87 154.60 102.20 155.33 102.23 156.19 Z M 102.26 157.20 L 102.30 158.22 C 102.32 159.08 103.04 159.76 103.91 159.73 C 104.77 159.70 105.44 158.98 105.42 158.12 L 105.38 157.10 C 105.36 156.24 104.63 155.56 103.77 155.59 C 102.91 155.62 102.23 156.34 102.26 157.20 Z M 102.29 158.21 L 102.32 159.22 C 102.35 160.08 103.07 160.76 103.93 160.74 C 104.79 160.71 105.47 159.99 105.44 159.13 L 105.42 158.13 C 105.39 157.26 104.67 156.58 103.81 156.61 C 102.95 156.63 102.27 157.35 102.29 158.21 Z M 102.32 159.21 L 102.35 160.28 C 102.37 161.14 103.08 161.82 103.94 161.80 C 104.81 161.79 105.49 161.07 105.47 160.21 L 105.44 159.14 C 105.43 158.28 104.71 157.59 103.85 157.61 C 102.99 157.63 102.30 158.35 102.32 159.21 Z M 102.35 160.27 L 102.36 161.36 C 102.38 162.22 103.09 162.91 103.95 162.89 C 104.81 162.88 105.50 162.17 105.49 161.31 L 105.47 160.22 C 105.46 159.36 104.75 158.67 103.88 158.68 C 103.02 158.70 102.33 159.41 102.35 160.27 Z M 102.36 161.35 L 102.37 162.39 C 102.38 163.25 103.09 163.95 103.95 163.94 C 104.81 163.93 105.50 163.22 105.50 162.36 L 105.49 161.32 C 105.48 160.46 104.77 159.76 103.91 159.77 C 103.05 159.78 102.36 160.49 102.36 161.35 Z M 102.37 162.38 L 102.38 163.37 C 102.38 164.23 103.09 164.93 103.95 164.93 C 104.81 164.92 105.51 164.22 105.50 163.36 L 105.50 162.37 C 105.49 161.51 104.79 160.81 103.93 160.81 C 103.07 160.82 102.37 161.52 102.37 162.38 Z M 102.38 163.37 L 102.38 164.30 C 102.38 165.16 103.08 165.86 103.95 165.85 C 104.81 165.85 105.50 165.15 105.50 164.29 L 105.50 163.36 C 105.50 162.50 104.80 161.80 103.94 161.80 C 103.08 161.81 102.38 162.51 102.38 163.37 Z M 102.38 164.29 L 102.38 165.19 C 102.38 166.05 103.08 166.75 103.94 166.75 C 104.80 166.75 105.50 166.05 105.50 165.19 L 105.50 164.29 C 105.50 163.43 104.80 162.73 103.94 162.73 C 103.08 162.73 102.38 163.43 102.38 164.29 Z M 102.38 165.19 L 102.38 166.28 C 102.38 167.15 103.08 167.85 103.94 167.85 C 104.80 167.85 105.50 167.15 105.50 166.28 L 105.50 165.19 C 105.50 164.33 104.80 163.63 103.94 163.63 C 103.08 163.63 102.38 164.33 102.38 165.19 Z M 102.38 166.28 L 102.38 167.28 C 102.38 168.14 103.08 168.84 103.94 168.84 C 104.80 168.84 105.50 168.14 105.50 167.28 L 105.50 166.28 C 105.50 165.42 104.80 164.72 103.94 164.72 C 103.08 164.72 102.38 165.42 102.38 166.28 Z M 102.38 167.28 L 102.38 168.22 C 102.38 169.09 103.08 169.78 103.94 169.78 C 104.80 169.78 105.50 169.09 105.50 168.22 L 105.50 167.28 C 105.50 166.42 104.80 165.72 103.94 165.72 C 103.08 165.72 102.38 166.42 102.38 167.28 Z M 102.38 168.22 L 102.38 169.15 C 102.38 170.02 103.08 170.72 103.94 170.72 C 104.80 170.72 105.50 170.02 105.50 169.15 L 105.50 168.22 C 105.50 167.36 104.80 166.66 103.94 166.66 C 103.08 166.66 102.38 167.36 102.38 168.22 Z M 102.38 169.16 L 102.38 170.10 C 102.38 170.97 103.08 171.66 103.94 171.66 C 104.81 171.66 105.50 170.96 105.50 170.10 L 105.50 169.15 C 105.50 168.29 104.80 167.59 103.94 167.59 C 103.08 167.59 102.38 168.29 102.38 169.16 Z M 102.38 170.11 L 102.38 171.09 C 102.39 171.95 103.09 172.65 103.95 172.65 C 104.81 172.65 105.51 171.95 105.51 171.08 L 105.50 170.10 C 105.50 169.24 104.80 168.54 103.94 168.54 C 103.08 168.54 102.38 169.25 102.38 170.11 Z M 102.38 171.10 L 102.39 172.13 C 102.40 172.99 103.10 173.68 103.96 173.68 C 104.82 173.67 105.52 172.97 105.51 172.11 L 105.51 171.08 C 105.50 170.22 104.80 169.52 103.94 169.53 C 103.07 169.53 102.38 170.24 102.38 171.10 Z M 102.39 172.14 L 102.40 173.17 C 102.41 174.03 103.12 174.72 103.98 174.71 C 104.84 174.70 105.54 173.99 105.53 173.13 L 105.51 172.10 C 105.50 171.24 104.80 170.55 103.93 170.56 C 103.07 170.57 102.38 171.27 102.39 172.14 Z M 102.40 173.17 L 102.42 174.13 C 102.43 174.99 103.14 175.68 104.00 175.67 C 104.87 175.65 105.55 174.94 105.54 174.08 L 105.53 173.13 C 105.51 172.26 104.80 171.58 103.94 171.59 C 103.08 171.60 102.39 172.31 102.40 173.17 Z M 102.42 174.13 L 102.44 175.12 C 102.45 175.98 103.16 176.67 104.02 176.66 C 104.89 176.64 105.57 175.93 105.56 175.07 L 105.54 174.08 C 105.53 173.22 104.81 172.53 103.95 172.54 C 103.09 172.56 102.40 173.27 102.42 174.13 Z M 102.44 175.12 L 102.45 176.14 C 102.47 177.00 103.18 177.69 104.04 177.67 C 104.90 177.66 105.59 176.95 105.57 176.09 L 105.56 175.07 C 105.54 174.21 104.83 173.52 103.97 173.53 C 103.11 173.55 102.42 174.26 102.44 175.12 Z M 102.45 176.14 L 102.47 177.17 C 102.48 178.04 103.19 178.73 104.05 178.71 C 104.91 178.70 105.60 177.99 105.59 177.13 L 105.57 176.09 C 105.56 175.23 104.85 174.54 103.99 174.55 C 103.13 174.56 102.44 175.27 102.45 176.14 Z M 102.47 177.17 L 102.48 178.18 C 102.49 179.04 103.19 179.73 104.06 179.72 C 104.92 179.72 105.61 179.01 105.60 178.15 L 105.59 177.14 C 105.58 176.27 104.87 175.58 104.01 175.59 C 103.15 175.60 102.46 176.31 102.47 177.17 Z M 102.48 178.17 L 102.49 179.17 C 102.49 180.03 103.20 180.73 104.06 180.72 C 104.92 180.71 105.61 180.01 105.61 179.15 L 105.60 178.15 C 105.59 177.29 104.89 176.60 104.03 176.60 C 103.17 176.61 102.47 177.31 102.48 178.17 Z M 102.49 179.17 L 102.49 180.17 C 102.50 181.03 103.20 181.73 104.06 181.72 C 104.93 181.72 105.62 181.01 105.61 180.15 L 105.61 179.15 C 105.60 178.29 104.90 177.59 104.04 177.60 C 103.17 177.60 102.48 178.31 102.49 179.17 Z M 102.49 180.17 L 102.50 181.18 C 102.51 182.04 103.21 182.73 104.07 182.73 C 104.93 182.72 105.63 182.02 105.62 181.16 L 105.61 180.15 C 105.61 179.29 104.90 178.59 104.04 178.60 C 103.18 178.61 102.49 179.31 102.49 180.17 Z M 102.50 181.18 L 102.51 182.19 C 102.52 183.05 103.23 183.74 104.09 183.73 C 104.95 183.72 105.64 183.02 105.63 182.15 L 105.62 181.15 C 105.61 180.29 104.91 179.60 104.04 179.61 C 103.18 179.61 102.49 180.32 102.50 181.18 Z M 102.51 182.19 L 102.52 183.10 C 102.54 183.96 103.25 184.65 104.11 184.64 C 104.97 184.62 105.66 183.91 105.65 183.05 L 105.63 182.15 C 105.62 181.28 104.91 180.60 104.05 180.61 C 103.19 180.62 102.50 181.33 102.51 182.19 Z M 102.52 183.11 L 102.54 183.98 C 102.56 184.85 103.27 185.53 104.13 185.51 C 105.00 185.50 105.68 184.78 105.66 183.92 L 105.65 183.05 C 105.63 182.18 104.92 181.50 104.05 181.52 C 103.19 181.53 102.51 182.25 102.52 183.11 Z M 102.54 183.99 L 102.56 184.91 C 102.58 185.77 103.30 186.45 104.16 186.43 C 105.02 186.41 105.70 185.70 105.68 184.84 L 105.66 183.92 C 105.64 183.06 104.93 182.37 104.07 182.39 C 103.21 182.41 102.52 183.13 102.54 183.99 Z M 102.56 184.91 L 102.59 185.89 C 102.60 186.76 103.32 187.44 104.18 187.42 C 105.04 187.40 105.73 186.68 105.71 185.82 L 105.68 184.84 C 105.66 183.97 104.95 183.29 104.09 183.31 C 103.23 183.33 102.54 184.05 102.56 184.91 Z M 102.59 185.89 L 102.61 186.97 C 102.63 187.84 103.34 188.52 104.21 188.50 C 105.07 188.48 105.75 187.77 105.73 186.90 L 105.71 185.82 C 105.69 184.96 104.97 184.28 104.11 184.30 C 103.25 184.32 102.57 185.03 102.59 185.89 Z M 102.61 186.97 L 102.63 188.18 C 102.65 189.04 103.37 189.72 104.23 189.71 C 105.09 189.69 105.77 188.97 105.76 188.11 L 105.73 186.91 C 105.71 186.05 105.00 185.36 104.14 185.38 C 103.28 185.40 102.59 186.11 102.61 186.97 Z M 102.63 188.17 L 102.65 189.12 C 102.67 189.98 103.38 190.67 104.24 190.65 C 105.11 190.63 105.79 189.92 105.77 189.06 L 105.76 188.12 C 105.74 187.25 105.03 186.57 104.17 186.58 C 103.30 186.60 102.62 187.31 102.63 188.17 Z M 102.65 189.12 L 102.67 190.09 C 102.69 190.95 103.40 191.64 104.26 191.62 C 105.12 191.60 105.81 190.89 105.79 190.03 L 105.77 189.06 C 105.76 188.20 105.05 187.51 104.18 187.53 C 103.32 187.54 102.64 188.26 102.65 189.12 Z M 102.67 190.09 L 102.69 191.10 C 102.70 191.96 103.42 192.65 104.28 192.63 C 105.14 192.61 105.83 191.90 105.81 191.04 L 105.79 190.03 C 105.78 189.17 105.06 188.48 104.20 188.50 C 103.34 188.51 102.65 189.22 102.67 190.09 Z M 102.69 191.10 L 102.71 192.13 C 102.72 193.00 103.44 193.68 104.30 193.67 C 105.16 193.65 105.85 192.94 105.83 192.08 L 105.81 191.04 C 105.79 190.18 105.08 189.49 104.22 189.51 C 103.36 189.52 102.67 190.24 102.69 191.10 Z M 102.71 192.14 L 102.73 193.18 C 102.75 194.04 103.46 194.73 104.32 194.71 C 105.18 194.70 105.87 193.98 105.85 193.12 L 105.83 192.07 C 105.81 191.21 105.10 190.53 104.24 190.54 C 103.38 190.56 102.69 191.27 102.71 192.14 Z M 102.73 193.19 L 102.75 194.23 C 102.77 195.09 103.49 195.77 104.35 195.75 C 105.21 195.73 105.89 195.02 105.87 194.16 L 105.85 193.12 C 105.83 192.26 105.12 191.57 104.26 191.59 C 103.39 191.61 102.71 192.32 102.73 193.19 Z M 102.75 194.23 L 102.78 195.25 C 102.80 196.11 103.51 196.79 104.38 196.77 C 105.24 196.75 105.92 196.03 105.90 195.17 L 105.87 194.15 C 105.85 193.29 105.14 192.61 104.27 192.63 C 103.41 192.65 102.73 193.37 102.75 194.23 Z M 102.78 195.25 L 102.80 196.24 C 102.83 197.10 103.55 197.78 104.41 197.75 C 105.27 197.73 105.95 197.01 105.93 196.15 L 105.90 195.17 C 105.87 194.31 105.16 193.63 104.29 193.65 C 103.43 193.67 102.75 194.39 102.78 195.25 Z M 102.81 196.24 L 102.84 197.34 C 102.87 198.21 103.59 198.88 104.45 198.85 C 105.32 198.82 105.99 198.10 105.96 197.24 L 105.93 196.14 C 105.90 195.28 105.18 194.60 104.31 194.63 C 103.45 194.66 102.78 195.38 102.81 196.24 Z M 102.84 197.36 L 102.89 198.52 C 102.93 199.38 103.65 200.05 104.52 200.02 C 105.38 199.98 106.05 199.25 106.01 198.39 L 105.96 197.23 C 105.93 196.37 105.20 195.70 104.34 195.73 C 103.48 195.77 102.81 196.50 102.84 197.36 Z M 102.89 198.54 L 102.95 199.61 C 102.99 200.47 103.73 201.13 104.59 201.08 C 105.45 201.04 106.11 200.30 106.07 199.44 L 106.01 198.37 C 105.96 197.51 105.23 196.85 104.37 196.90 C 103.51 196.94 102.85 197.68 102.89 198.54 Z M 102.95 199.63 L 103.02 200.61 C 103.07 201.47 103.82 202.12 104.68 202.06 C 105.54 202.01 106.19 201.26 106.13 200.40 L 106.06 199.42 C 106.01 198.56 105.26 197.91 104.40 197.97 C 103.54 198.02 102.89 198.77 102.95 199.63 Z M 103.02 200.64 L 103.10 201.55 C 103.17 202.41 103.92 203.05 104.78 202.97 C 105.64 202.90 106.28 202.14 106.21 201.28 L 106.13 200.37 C 106.06 199.51 105.30 198.88 104.44 198.95 C 103.58 199.02 102.94 199.78 103.02 200.64 Z M 103.10 201.58 L 103.19 202.43 C 103.28 203.29 104.05 203.91 104.91 203.82 C 105.76 203.73 106.38 202.96 106.29 202.10 L 106.20 201.25 C 106.11 200.39 105.34 199.77 104.49 199.86 C 103.63 199.96 103.01 200.73 103.10 201.58 Z M 103.19 202.47 L 103.32 203.40 C 103.43 204.26 104.22 204.86 105.07 204.74 C 105.93 204.63 106.53 203.84 106.41 202.99 L 106.29 202.06 C 106.18 201.21 105.39 200.61 104.54 200.72 C 103.68 200.83 103.08 201.62 103.19 202.47 Z M 103.32 203.45 L 103.50 204.52 C 103.64 205.37 104.45 205.94 105.30 205.80 C 106.15 205.66 106.72 204.86 106.58 204.01 L 106.40 202.94 C 106.26 202.09 105.46 201.51 104.61 201.66 C 103.76 201.80 103.18 202.60 103.32 203.45 Z M 103.51 204.56 L 103.71 205.56 C 103.87 206.40 104.69 206.95 105.54 206.79 C 106.38 206.62 106.94 205.80 106.77 204.95 L 106.57 203.96 C 106.41 203.11 105.59 202.56 104.74 202.73 C 103.89 202.90 103.34 203.72 103.51 204.56 Z M 103.71 205.59 L 103.92 206.52 C 104.10 207.36 104.94 207.89 105.78 207.71 C 106.62 207.52 107.15 206.69 106.97 205.85 L 106.76 204.92 C 106.57 204.08 105.74 203.54 104.90 203.73 C 104.06 203.92 103.53 204.75 103.71 205.59 Z M 103.92 206.54 L 104.13 207.43 C 104.33 208.27 105.17 208.79 106.01 208.59 C 106.85 208.39 107.37 207.55 107.17 206.71 L 106.96 205.82 C 106.76 204.98 105.92 204.47 105.08 204.66 C 104.24 204.86 103.72 205.70 103.92 206.54 Z M 104.14 207.44 L 104.38 208.45 C 104.58 209.29 105.43 209.80 106.26 209.60 C 107.10 209.40 107.62 208.55 107.41 207.71 L 107.17 206.70 C 106.97 205.87 106.12 205.35 105.29 205.55 C 104.45 205.76 103.93 206.60 104.14 207.44 Z M 104.38 208.44 L 104.61 209.41 C 104.80 210.24 105.65 210.76 106.48 210.57 C 107.32 210.37 107.84 209.53 107.64 208.69 L 107.42 207.72 C 107.22 206.88 106.38 206.36 105.54 206.56 C 104.70 206.76 104.18 207.60 104.38 208.44 Z M 104.60 209.38 L 104.81 210.33 C 104.99 211.17 105.83 211.71 106.67 211.52 C 107.51 211.33 108.04 210.50 107.86 209.66 L 107.65 208.71 C 107.46 207.87 106.63 207.34 105.79 207.52 C 104.95 207.71 104.42 208.54 104.60 209.38 Z M 104.80 210.29 L 104.99 211.25 C 105.15 212.10 105.97 212.65 106.82 212.49 C 107.66 212.32 108.22 211.50 108.05 210.66 L 107.87 209.70 C 107.70 208.85 106.88 208.30 106.04 208.46 C 105.19 208.63 104.64 209.45 104.80 210.29 Z M 104.98 211.21 L 105.15 212.19 C 105.29 213.04 106.09 213.62 106.94 213.47 C 107.79 213.33 108.37 212.52 108.22 211.67 L 108.06 210.70 C 107.92 209.85 107.11 209.27 106.26 209.41 C 105.41 209.56 104.84 210.36 104.98 211.21 Z M 105.14 212.16 L 105.29 213.16 C 105.41 214.01 106.21 214.60 107.06 214.47 C 107.91 214.35 108.50 213.55 108.38 212.70 L 108.23 211.70 C 108.10 210.85 107.31 210.26 106.46 210.39 C 105.60 210.52 105.01 211.31 105.14 212.16 Z M 105.29 213.14 L 105.42 214.14 C 105.53 214.99 106.32 215.59 107.17 215.48 C 108.03 215.36 108.63 214.58 108.51 213.72 L 108.38 212.72 C 108.27 211.87 107.48 211.27 106.63 211.38 C 105.77 211.50 105.17 212.28 105.29 213.14 Z M 105.42 214.12 L 105.54 215.09 C 105.64 215.95 106.42 216.56 107.28 216.45 C 108.13 216.34 108.74 215.57 108.64 214.71 L 108.52 213.74 C 108.41 212.88 107.63 212.27 106.77 212.38 C 105.92 212.49 105.31 213.27 105.42 214.12 Z M 105.54 215.08 L 105.65 216.07 C 105.75 216.93 106.53 217.54 107.38 217.44 C 108.24 217.34 108.85 216.56 108.75 215.71 L 108.64 214.72 C 108.54 213.86 107.76 213.25 106.91 213.35 C 106.05 213.45 105.44 214.23 105.54 215.08 Z M 105.65 216.06 L 105.76 217.07 C 105.86 217.92 106.63 218.54 107.48 218.45 C 108.34 218.35 108.96 217.58 108.86 216.72 L 108.75 215.72 C 108.66 214.86 107.89 214.24 107.03 214.34 C 106.17 214.43 105.56 215.20 105.65 216.06 Z M 105.76 217.06 L 105.86 218.04 C 105.96 218.90 106.73 219.52 107.58 219.43 C 108.44 219.34 109.06 218.57 108.97 217.71 L 108.87 216.73 C 108.77 215.87 108.00 215.25 107.15 215.34 C 106.29 215.44 105.67 216.20 105.76 217.06 Z M 105.86 218.04 L 105.96 218.99 C 106.05 219.85 106.82 220.47 107.68 220.38 C 108.54 220.29 109.16 219.52 109.07 218.66 L 108.97 217.71 C 108.88 216.85 108.11 216.23 107.26 216.32 C 106.40 216.41 105.77 217.18 105.86 218.04 Z M 105.96 218.99 L 106.07 219.98 C 106.16 220.83 106.92 221.46 107.78 221.37 C 108.64 221.28 109.26 220.51 109.17 219.65 L 109.07 218.67 C 108.98 217.81 108.21 217.18 107.36 217.27 C 106.50 217.36 105.87 218.13 105.96 218.99 Z M 106.07 219.98 L 106.17 221.01 C 106.26 221.87 107.03 222.49 107.89 222.40 C 108.75 222.31 109.37 221.54 109.28 220.68 L 109.17 219.65 C 109.08 218.79 108.31 218.17 107.46 218.26 C 106.60 218.35 105.98 219.12 106.07 219.98 Z M 106.17 221.01 L 106.28 222.04 C 106.37 222.89 107.14 223.51 108.00 223.42 C 108.86 223.33 109.48 222.56 109.39 221.71 L 109.28 220.68 C 109.19 219.82 108.42 219.20 107.56 219.29 C 106.70 219.39 106.08 220.15 106.17 221.01 Z M 106.28 222.04 L 106.39 223.02 C 106.49 223.88 107.26 224.50 108.11 224.40 C 108.97 224.31 109.59 223.54 109.50 222.68 L 109.39 221.70 C 109.29 220.84 108.52 220.22 107.67 220.32 C 106.81 220.41 106.19 221.18 106.28 222.04 Z M 106.39 223.03 L 106.51 224.03 C 106.61 224.89 107.38 225.51 108.24 225.41 C 109.09 225.31 109.71 224.53 109.61 223.68 L 109.49 222.67 C 109.40 221.82 108.62 221.20 107.77 221.30 C 106.91 221.40 106.29 222.18 106.39 223.03 Z M 106.51 224.05 L 106.63 225.05 C 106.74 225.91 107.52 226.52 108.37 226.41 C 109.23 226.31 109.84 225.53 109.73 224.67 L 109.61 223.67 C 109.50 222.81 108.72 222.20 107.87 222.31 C 107.01 222.41 106.40 223.19 106.51 224.05 Z M 106.64 225.07 L 106.77 226.07 C 106.88 226.92 107.67 227.52 108.52 227.41 C 109.38 227.29 109.98 226.51 109.86 225.65 L 109.73 224.66 C 109.62 223.80 108.83 223.20 107.98 223.32 C 107.12 223.43 106.52 224.22 106.64 225.07 Z M 106.77 226.09 L 106.92 227.12 C 107.05 227.97 107.84 228.56 108.70 228.43 C 109.55 228.31 110.14 227.51 110.01 226.66 L 109.86 225.63 C 109.73 224.78 108.94 224.19 108.09 224.31 C 107.23 224.44 106.65 225.23 106.77 226.09 Z M 106.93 227.15 L 107.10 228.16 C 107.24 229.01 108.04 229.59 108.89 229.44 C 109.75 229.30 110.32 228.50 110.18 227.65 L 110.01 226.63 C 109.87 225.78 109.06 225.21 108.21 225.35 C 107.36 225.49 106.79 226.30 106.93 227.15 Z M 107.10 228.20 L 107.29 229.17 C 107.45 230.02 108.27 230.58 109.12 230.42 C 109.96 230.26 110.52 229.44 110.36 228.59 L 110.17 227.61 C 110.01 226.77 109.19 226.21 108.35 226.37 C 107.50 226.53 106.94 227.35 107.10 228.20 Z M 107.30 229.21 L 107.50 230.16 C 107.69 231.00 108.52 231.53 109.36 231.35 C 110.20 231.17 110.74 230.34 110.55 229.49 L 110.35 228.55 C 110.17 227.71 109.33 227.17 108.49 227.36 C 107.65 227.54 107.12 228.37 107.30 229.21 Z M 107.51 230.20 L 107.74 231.12 C 107.95 231.95 108.80 232.46 109.64 232.25 C 110.47 232.04 110.98 231.19 110.77 230.36 L 110.54 229.45 C 110.33 228.61 109.49 228.10 108.65 228.31 C 107.81 228.52 107.31 229.37 107.51 230.20 Z M 107.76 231.17 L 108.02 232.07 C 108.26 232.90 109.12 233.38 109.95 233.14 C 110.78 232.90 111.26 232.03 111.02 231.21 L 110.76 230.31 C 110.52 229.48 109.65 229.00 108.83 229.24 C 108.00 229.48 107.52 230.34 107.76 231.17 Z M 108.03 232.12 L 108.33 233.04 C 108.60 233.86 109.48 234.31 110.30 234.04 C 111.12 233.77 111.57 232.89 111.30 232.07 L 111.00 231.16 C 110.74 230.34 109.86 229.89 109.04 230.15 C 108.22 230.42 107.77 231.30 108.03 232.12 Z M 108.34 233.08 L 108.69 234.05 C 108.98 234.86 109.87 235.28 110.68 234.99 C 111.49 234.71 111.92 233.81 111.63 233.00 L 111.29 232.03 C 111.00 231.22 110.10 230.79 109.29 231.08 C 108.48 231.37 108.05 232.27 108.34 233.08 Z M 108.70 234.08 L 109.08 235.09 C 109.39 235.90 110.29 236.30 111.10 236.00 C 111.90 235.69 112.31 234.79 112.00 233.98 L 111.62 232.97 C 111.31 232.16 110.41 231.76 109.61 232.06 C 108.80 232.37 108.39 233.27 108.70 234.08 Z M 109.09 235.11 L 109.45 236.02 C 109.77 236.82 110.68 237.22 111.48 236.90 C 112.28 236.58 112.67 235.68 112.36 234.87 L 112.00 233.96 C 111.68 233.16 110.77 232.77 109.97 233.09 C 109.17 233.40 108.77 234.31 109.09 235.11 Z M 109.46 236.04 L 109.85 236.99 C 110.18 237.79 111.09 238.17 111.88 237.84 C 112.68 237.51 113.06 236.60 112.74 235.80 L 112.35 234.86 C 112.02 234.06 111.11 233.68 110.31 234.00 C 109.51 234.33 109.13 235.24 109.46 236.04 Z M 109.86 237.01 L 110.26 237.96 C 110.60 238.76 111.52 239.12 112.31 238.79 C 113.11 238.45 113.47 237.53 113.14 236.74 L 112.73 235.78 C 112.39 234.99 111.47 234.62 110.68 234.96 C 109.89 235.30 109.52 236.22 109.86 237.01 Z M 110.28 237.99 L 110.69 238.92 C 111.04 239.70 111.97 240.06 112.75 239.70 C 113.54 239.35 113.89 238.43 113.54 237.64 L 113.12 236.71 C 112.77 235.92 111.85 235.57 111.06 235.93 C 110.27 236.28 109.92 237.20 110.28 237.99 Z M 110.71 238.95 L 111.12 239.82 C 111.49 240.60 112.42 240.93 113.20 240.56 C 113.98 240.19 114.31 239.26 113.94 238.48 L 113.53 237.61 C 113.15 236.83 112.22 236.50 111.44 236.87 C 110.67 237.24 110.34 238.17 110.71 238.95 Z M 111.15 239.87 L 111.67 240.87 C 112.06 241.63 113.01 241.93 113.77 241.53 C 114.54 241.13 114.83 240.19 114.44 239.43 L 113.92 238.43 C 113.52 237.66 112.57 237.37 111.81 237.76 C 111.05 238.16 110.75 239.11 111.15 239.87 Z M 111.70 240.94 L 112.23 241.84 C 112.67 242.58 113.62 242.83 114.37 242.39 C 115.11 241.96 115.36 241.00 114.92 240.26 L 114.40 239.36 C 113.96 238.61 113.01 238.36 112.26 238.80 C 111.52 239.24 111.27 240.19 111.70 240.94 Z M 112.28 241.91 L 112.80 242.70 C 113.28 243.42 114.25 243.61 114.97 243.14 C 115.68 242.66 115.88 241.69 115.40 240.97 L 114.88 240.18 C 114.40 239.46 113.43 239.27 112.71 239.75 C 112.00 240.22 111.80 241.19 112.28 241.91 Z M 112.85 242.77 L 113.39 243.49 C 113.90 244.18 114.88 244.32 115.57 243.80 C 116.26 243.28 116.40 242.30 115.89 241.61 L 115.35 240.90 C 114.83 240.21 113.86 240.07 113.17 240.59 C 112.48 241.11 112.34 242.08 112.85 242.77 Z M 113.44 243.56 L 114.07 244.30 C 114.63 244.96 115.61 245.05 116.27 244.49 C 116.93 243.94 117.02 242.95 116.46 242.29 L 115.83 241.54 C 115.27 240.88 114.29 240.80 113.63 241.36 C 112.97 241.91 112.89 242.90 113.44 243.56 Z M 114.14 244.38 L 114.82 245.09 C 115.42 245.71 116.40 245.74 117.03 245.14 C 117.65 244.55 117.67 243.56 117.08 242.94 L 116.40 242.22 C 115.80 241.60 114.81 241.57 114.19 242.17 C 113.57 242.76 113.54 243.75 114.14 244.38 Z M 114.89 245.16 L 115.63 245.84 C 116.26 246.42 117.25 246.38 117.83 245.75 C 118.42 245.12 118.38 244.13 117.74 243.55 L 117.01 242.87 C 116.38 242.28 115.39 242.32 114.80 242.95 C 114.22 243.59 114.26 244.57 114.89 245.16 Z M 115.69 245.90 L 116.47 246.53 C 117.13 247.08 118.12 246.98 118.66 246.31 C 119.21 245.65 119.11 244.66 118.45 244.12 L 117.67 243.48 C 117.01 242.94 116.02 243.04 115.48 243.70 C 114.93 244.37 115.03 245.35 115.69 245.90 Z M 116.53 246.58 L 117.32 247.16 C 118.01 247.67 118.99 247.53 119.50 246.83 C 120.01 246.14 119.87 245.16 119.17 244.65 L 118.38 244.07 C 117.69 243.56 116.71 243.70 116.20 244.40 C 115.69 245.09 115.84 246.07 116.53 246.58 Z M 117.38 247.21 L 118.22 247.76 C 118.93 248.24 119.90 248.05 120.38 247.33 C 120.86 246.61 120.66 245.64 119.95 245.16 L 119.11 244.61 C 118.39 244.13 117.42 244.32 116.95 245.04 C 116.47 245.76 116.66 246.73 117.38 247.21 Z M 118.28 247.80 L 119.15 248.33 C 119.89 248.77 120.85 248.53 121.29 247.79 C 121.74 247.05 121.50 246.09 120.76 245.65 L 119.89 245.12 C 119.15 244.68 118.19 244.92 117.74 245.66 C 117.30 246.40 117.54 247.36 118.28 247.80 Z M 119.21 248.36 L 120.10 248.84 C 120.85 249.25 121.80 248.97 122.21 248.21 C 122.62 247.45 122.34 246.50 121.58 246.09 L 120.70 245.62 C 119.94 245.21 118.99 245.49 118.58 246.25 C 118.17 247.00 118.45 247.95 119.21 248.36 Z M 120.16 248.87 L 121.05 249.30 C 121.83 249.68 122.76 249.36 123.14 248.58 C 123.51 247.80 123.19 246.87 122.41 246.49 L 121.52 246.06 C 120.74 245.69 119.81 246.01 119.43 246.79 C 119.06 247.56 119.38 248.50 120.16 248.87 Z M 121.12 249.33 L 122.04 249.73 C 122.83 250.07 123.75 249.70 124.09 248.91 C 124.43 248.12 124.06 247.20 123.27 246.86 L 122.35 246.46 C 121.56 246.12 120.64 246.49 120.30 247.28 C 119.96 248.08 120.32 248.99 121.12 249.33 Z M 122.10 249.76 L 123.05 250.11 C 123.85 250.41 124.75 250.00 125.06 249.20 C 125.36 248.39 124.95 247.49 124.14 247.19 L 123.20 246.83 C 122.39 246.53 121.49 246.94 121.19 247.75 C 120.89 248.55 121.30 249.45 122.10 249.76 Z M 123.12 250.13 L 124.06 250.44 C 124.88 250.70 125.76 250.25 126.02 249.43 C 126.29 248.61 125.84 247.73 125.02 247.47 L 124.08 247.16 C 123.26 246.90 122.38 247.35 122.11 248.17 C 121.85 248.99 122.29 249.87 123.12 250.13 Z M 124.13 250.46 L 125.08 250.72 C 125.91 250.95 126.77 250.46 127.00 249.62 C 127.22 248.79 126.73 247.93 125.90 247.71 L 124.95 247.45 C 124.12 247.22 123.26 247.71 123.03 248.54 C 122.80 249.37 123.29 250.23 124.13 250.46 Z M 125.15 250.74 L 126.13 250.95 C 126.97 251.14 127.80 250.61 127.99 249.77 C 128.18 248.93 127.65 248.09 126.81 247.91 L 125.83 247.69 C 124.99 247.50 124.15 248.03 123.97 248.87 C 123.78 249.71 124.31 250.55 125.15 250.74 Z M 126.20 250.97 L 127.20 251.14 C 128.05 251.29 128.86 250.72 129.01 249.87 C 129.15 249.02 128.58 248.21 127.73 248.06 L 126.73 247.89 C 125.88 247.75 125.07 248.32 124.93 249.17 C 124.78 250.02 125.35 250.82 126.20 250.97 Z M 127.28 251.15 L 128.29 251.28 C 129.15 251.38 129.93 250.77 130.03 249.91 C 130.14 249.06 129.53 248.28 128.67 248.18 L 127.66 248.05 C 126.80 247.95 126.02 248.56 125.92 249.41 C 125.81 250.27 126.42 251.05 127.28 251.15 Z M 128.36 251.28 L 129.37 251.36 C 130.23 251.43 130.99 250.79 131.05 249.93 C 131.12 249.07 130.48 248.32 129.62 248.25 L 128.61 248.17 C 127.75 248.10 126.99 248.74 126.92 249.60 C 126.86 250.46 127.50 251.21 128.36 251.28 Z M 129.42 251.37 L 130.43 251.42 C 131.29 251.46 132.02 250.80 132.07 249.93 C 132.11 249.07 131.45 248.34 130.58 248.30 L 129.58 248.25 C 128.71 248.21 127.98 248.87 127.94 249.73 C 127.90 250.59 128.56 251.32 129.42 251.37 Z M 130.46 251.42 L 131.45 251.45 C 132.31 251.47 133.03 250.79 133.05 249.93 C 133.08 249.07 132.40 248.35 131.54 248.32 L 130.55 248.30 C 129.69 248.27 128.97 248.95 128.95 249.81 C 128.92 250.67 129.60 251.39 130.46 251.42 Z M 131.46 251.45 L 132.47 251.46 C 133.33 251.48 134.04 250.79 134.06 249.93 C 134.07 249.07 133.38 248.36 132.52 248.34 L 131.52 248.32 C 130.65 248.31 129.94 249.00 129.93 249.86 C 129.92 250.72 130.60 251.43 131.46 251.45 Z M 132.48 251.46 L 133.50 251.47 C 134.37 251.48 135.07 250.79 135.08 249.93 C 135.09 249.06 134.39 248.36 133.53 248.35 L 132.51 248.34 C 131.65 248.33 130.94 249.03 130.93 249.89 C 130.93 250.75 131.62 251.46 132.48 251.46 Z M 133.51 251.47 L 134.50 251.48 C 135.36 251.48 136.06 250.78 136.06 249.92 C 136.07 249.06 135.37 248.36 134.51 248.35 L 133.52 248.35 C 132.66 248.35 131.96 249.04 131.96 249.91 C 131.95 250.77 132.65 251.47 133.51 251.47 Z M 134.50 251.48 L 135.47 251.48 C 136.33 251.48 137.03 250.78 137.03 249.92 C 137.03 249.05 136.33 248.36 135.47 248.35 L 134.50 248.35 C 133.64 248.35 132.94 249.05 132.94 249.91 C 132.94 250.78 133.64 251.48 134.50 251.48 Z M 135.47 251.48 L 136.46 251.48 C 137.32 251.47 138.02 250.77 138.02 249.91 C 138.02 249.05 137.32 248.35 136.45 248.35 L 135.47 248.35 C 134.60 248.36 133.91 249.06 133.91 249.92 C 133.91 250.78 134.61 251.48 135.47 251.48 Z M 136.47 251.48 L 137.47 251.46 C 138.33 251.45 139.02 250.75 139.01 249.88 C 139.00 249.02 138.30 248.33 137.43 248.34 L 136.44 248.35 C 135.57 248.36 134.88 249.07 134.89 249.93 C 134.90 250.80 135.61 251.49 136.47 251.48 Z M 137.51 251.46 L 138.51 251.43 C 139.37 251.40 140.05 250.68 140.02 249.82 C 139.99 248.95 139.27 248.28 138.40 248.31 L 137.40 248.34 C 136.54 248.37 135.86 249.09 135.89 249.96 C 135.92 250.82 136.64 251.49 137.51 251.46 Z M 138.56 251.43 L 139.55 251.36 C 140.41 251.30 141.06 250.56 141.00 249.70 C 140.94 248.84 140.20 248.19 139.34 248.25 L 138.35 248.31 C 137.49 248.37 136.84 249.11 136.90 249.97 C 136.96 250.83 137.70 251.48 138.56 251.43 Z M 139.60 251.36 L 140.55 251.26 C 141.40 251.17 142.03 250.40 141.94 249.54 C 141.85 248.69 141.08 248.06 140.22 248.15 L 139.28 248.25 C 138.42 248.34 137.80 249.11 137.89 249.96 C 137.98 250.82 138.75 251.45 139.60 251.36 Z M 140.59 251.25 L 141.57 251.12 C 142.42 251.01 143.02 250.22 142.90 249.37 C 142.79 248.51 142.00 247.91 141.15 248.03 L 140.18 248.16 C 139.32 248.27 138.72 249.06 138.84 249.91 C 138.95 250.77 139.74 251.37 140.59 251.25 Z M 141.60 251.12 L 142.63 250.95 C 143.48 250.82 144.06 250.02 143.93 249.17 C 143.79 248.32 142.99 247.74 142.14 247.87 L 141.11 248.03 C 140.26 248.17 139.68 248.97 139.82 249.82 C 139.95 250.67 140.75 251.25 141.60 251.12 Z M 142.65 250.95 L 143.68 250.77 C 144.53 250.63 145.10 249.82 144.95 248.97 C 144.81 248.12 144.00 247.55 143.15 247.70 L 142.12 247.87 C 141.27 248.02 140.70 248.83 140.85 249.68 C 140.99 250.53 141.80 251.10 142.65 250.95 Z M 143.70 250.77 L 144.70 250.59 C 145.55 250.43 146.11 249.62 145.95 248.77 C 145.80 247.92 144.98 247.36 144.14 247.51 L 143.13 247.70 C 142.29 247.85 141.72 248.67 141.88 249.51 C 142.03 250.36 142.85 250.92 143.70 250.77 Z M 144.71 250.58 L 145.73 250.39 C 146.57 250.23 147.13 249.41 146.96 248.56 C 146.80 247.71 145.98 247.16 145.14 247.32 L 144.12 247.52 C 143.28 247.68 142.72 248.50 142.88 249.35 C 143.05 250.19 143.87 250.75 144.71 250.58 Z M 145.74 250.39 L 146.73 250.19 C 147.57 250.01 148.12 249.19 147.95 248.35 C 147.78 247.50 146.95 246.95 146.11 247.13 L 145.12 247.33 C 144.28 247.50 143.73 248.32 143.90 249.17 C 144.07 250.01 144.90 250.56 145.74 250.39 Z M 146.75 250.18 L 147.68 249.98 C 148.52 249.80 149.06 248.97 148.88 248.13 C 148.70 247.28 147.87 246.75 147.02 246.93 L 146.09 247.13 C 145.25 247.31 144.71 248.14 144.89 248.98 C 145.07 249.83 145.90 250.36 146.75 250.18 Z M 147.70 249.98 L 148.78 249.73 C 149.62 249.53 150.14 248.69 149.95 247.85 C 149.75 247.01 148.92 246.49 148.08 246.68 L 147.00 246.93 C 146.16 247.13 145.64 247.97 145.83 248.81 C 146.02 249.65 146.86 250.17 147.70 249.98 Z M 148.80 249.72 L 149.76 249.49 C 150.60 249.28 151.11 248.44 150.91 247.60 C 150.70 246.76 149.86 246.25 149.02 246.45 L 148.06 246.69 C 147.22 246.89 146.71 247.74 146.91 248.57 C 147.11 249.41 147.96 249.93 148.80 249.72 Z M 149.75 249.49 L 150.65 249.28 C 151.49 249.08 152.01 248.23 151.81 247.39 C 151.61 246.56 150.77 246.04 149.93 246.24 L 149.03 246.45 C 148.19 246.65 147.67 247.49 147.87 248.33 C 148.07 249.17 148.91 249.69 149.75 249.49 Z M 150.62 249.28 L 151.50 249.09 C 152.34 248.91 152.88 248.08 152.69 247.24 C 152.51 246.39 151.68 245.86 150.84 246.04 L 149.96 246.23 C 149.12 246.41 148.58 247.24 148.76 248.09 C 148.95 248.93 149.78 249.47 150.62 249.28 Z M 151.47 249.10 L 152.38 248.92 C 153.23 248.76 153.78 247.94 153.62 247.09 C 153.45 246.24 152.63 245.69 151.79 245.86 L 150.87 246.03 C 150.02 246.20 149.47 247.02 149.64 247.86 C 149.80 248.71 150.62 249.26 151.47 249.10 Z M 152.37 248.92 L 153.37 248.74 C 154.22 248.59 154.79 247.77 154.63 246.93 C 154.48 246.08 153.67 245.51 152.82 245.67 L 151.81 245.85 C 150.96 246.01 150.40 246.82 150.55 247.67 C 150.70 248.51 151.52 249.08 152.37 248.92 Z M 153.37 248.74 L 154.44 248.55 C 155.29 248.40 155.86 247.59 155.70 246.74 C 155.55 245.89 154.74 245.33 153.90 245.48 L 152.82 245.67 C 151.97 245.82 151.41 246.63 151.56 247.48 C 151.71 248.33 152.52 248.89 153.37 248.74 Z M 154.44 248.55 L 155.38 248.38 C 156.23 248.23 156.80 247.42 156.64 246.57 C 156.49 245.72 155.68 245.16 154.83 245.31 L 153.89 245.48 C 153.04 245.63 152.48 246.44 152.63 247.29 C 152.78 248.14 153.59 248.70 154.44 248.55 Z M 155.39 248.38 L 156.38 248.20 C 157.23 248.05 157.79 247.24 157.64 246.39 C 157.49 245.54 156.67 244.98 155.82 245.13 L 154.83 245.31 C 153.98 245.46 153.42 246.28 153.57 247.13 C 153.73 247.97 154.54 248.54 155.39 248.38 Z M 156.39 248.20 L 157.41 248.01 C 158.25 247.85 158.81 247.04 158.65 246.19 C 158.50 245.34 157.68 244.78 156.83 244.94 L 155.82 245.13 C 154.97 245.29 154.41 246.11 154.57 246.95 C 154.73 247.80 155.54 248.36 156.39 248.20 Z M 157.42 248.01 L 158.42 247.81 C 159.27 247.65 159.82 246.83 159.66 245.98 C 159.49 245.14 158.67 244.59 157.83 244.75 L 156.82 244.94 C 155.98 245.11 155.42 245.93 155.59 246.77 C 155.75 247.62 156.57 248.17 157.42 248.01 Z M 158.44 247.81 L 159.45 247.60 C 160.30 247.43 160.84 246.61 160.67 245.76 C 160.49 244.92 159.67 244.37 158.82 244.55 L 157.81 244.75 C 156.97 244.93 156.42 245.75 156.59 246.60 C 156.77 247.44 157.59 247.98 158.44 247.81 Z M 159.47 247.60 L 160.47 247.38 C 161.31 247.20 161.84 246.36 161.66 245.52 C 161.47 244.68 160.64 244.15 159.80 244.33 L 158.80 244.55 C 157.96 244.73 157.43 245.57 157.61 246.41 C 157.80 247.25 158.63 247.78 159.47 247.60 Z M 160.49 247.37 L 161.45 247.15 C 162.29 246.95 162.81 246.11 162.61 245.27 C 162.41 244.43 161.57 243.91 160.73 244.11 L 159.77 244.34 C 158.93 244.54 158.41 245.38 158.61 246.22 C 158.81 247.05 159.65 247.57 160.49 247.37 Z M 161.48 247.14 L 162.42 246.90 C 163.26 246.69 163.76 245.84 163.55 245.00 C 163.33 244.17 162.48 243.66 161.65 243.87 L 160.71 244.12 C 159.87 244.33 159.37 245.18 159.58 246.01 C 159.79 246.85 160.64 247.35 161.48 247.14 Z M 162.45 246.89 L 163.39 246.64 C 164.22 246.41 164.71 245.55 164.48 244.72 C 164.25 243.89 163.39 243.40 162.56 243.62 L 161.62 243.88 C 160.79 244.11 160.30 244.97 160.53 245.80 C 160.76 246.63 161.62 247.12 162.45 246.89 Z M 163.41 246.63 L 164.35 246.36 C 165.18 246.11 165.66 245.25 165.41 244.42 C 165.17 243.59 164.31 243.12 163.48 243.36 L 162.54 243.63 C 161.71 243.87 161.24 244.74 161.48 245.57 C 161.72 246.39 162.58 246.87 163.41 246.63 Z M 164.37 246.35 L 165.33 246.06 C 166.15 245.80 166.62 244.93 166.36 244.11 C 166.11 243.28 165.24 242.82 164.41 243.07 L 163.46 243.36 C 162.63 243.62 162.17 244.49 162.42 245.31 C 162.68 246.14 163.55 246.60 164.37 246.35 Z M 165.35 246.05 L 166.31 245.74 C 167.13 245.47 167.58 244.59 167.32 243.77 C 167.05 242.95 166.17 242.50 165.35 242.77 L 164.39 243.08 C 163.57 243.34 163.12 244.22 163.38 245.04 C 163.65 245.86 164.53 246.31 165.35 246.05 Z M 166.33 245.73 L 167.30 245.40 C 168.12 245.13 168.56 244.24 168.28 243.43 C 168.00 242.61 167.12 242.17 166.30 242.45 L 165.33 242.77 C 164.52 243.05 164.08 243.94 164.35 244.75 C 164.63 245.57 165.52 246.01 166.33 245.73 Z M 167.32 245.40 L 168.26 245.07 C 169.07 244.78 169.50 243.89 169.21 243.08 C 168.93 242.26 168.03 241.84 167.22 242.12 L 166.28 242.45 C 165.47 242.74 165.04 243.63 165.33 244.44 C 165.61 245.26 166.51 245.68 167.32 245.40 Z M 168.27 245.06 L 169.21 244.72 C 170.02 244.43 170.44 243.53 170.15 242.72 C 169.85 241.91 168.96 241.49 168.15 241.79 L 167.21 242.13 C 166.40 242.42 165.98 243.31 166.27 244.13 C 166.57 244.94 167.46 245.36 168.27 245.06 Z M 169.22 244.72 L 170.16 244.38 C 170.97 244.08 171.38 243.18 171.09 242.37 C 170.79 241.56 169.89 241.15 169.08 241.44 L 168.14 241.79 C 167.33 242.09 166.92 242.98 167.21 243.79 C 167.51 244.60 168.41 245.02 169.22 244.72 Z M 170.16 244.38 L 171.10 244.03 C 171.91 243.74 172.32 242.84 172.03 242.03 C 171.73 241.22 170.83 240.80 170.02 241.10 L 169.08 241.44 C 168.27 241.74 167.86 242.64 168.15 243.45 C 168.45 244.26 169.35 244.67 170.16 244.38 Z M 171.09 244.03 L 172.01 243.70 C 172.82 243.41 173.24 242.52 172.95 241.71 C 172.66 240.89 171.76 240.47 170.95 240.77 L 170.03 241.10 C 169.22 241.39 168.80 242.28 169.09 243.09 C 169.38 243.91 170.28 244.33 171.09 244.03 Z M 172.00 243.71 L 172.90 243.39 C 173.71 243.11 174.14 242.21 173.85 241.40 C 173.57 240.59 172.67 240.16 171.86 240.45 L 170.96 240.76 C 170.15 241.05 169.72 241.94 170.01 242.75 C 170.29 243.57 171.18 243.99 172.00 243.71 Z M 172.88 243.40 L 173.80 243.08 C 174.62 242.80 175.06 241.91 174.78 241.10 C 174.50 240.28 173.61 239.85 172.79 240.13 L 171.87 240.44 C 171.06 240.72 170.62 241.61 170.90 242.42 C 171.18 243.24 172.07 243.67 172.88 243.40 Z M 173.79 243.09 L 174.75 242.77 C 175.57 242.50 176.01 241.61 175.74 240.79 C 175.47 239.98 174.58 239.53 173.77 239.80 L 172.81 240.12 C 171.99 240.39 171.55 241.28 171.82 242.10 C 172.09 242.91 172.97 243.36 173.79 243.09 Z M 174.74 242.77 L 175.74 242.45 C 176.57 242.18 177.02 241.30 176.75 240.48 C 176.49 239.66 175.61 239.21 174.79 239.47 L 173.78 239.80 C 172.96 240.06 172.51 240.94 172.77 241.77 C 173.04 242.59 173.92 243.04 174.74 242.77 Z M 175.73 242.45 L 176.72 242.14 C 177.54 241.88 178.00 241.01 177.74 240.19 C 177.48 239.36 176.60 238.90 175.78 239.16 L 174.80 239.47 C 173.98 239.73 173.52 240.61 173.78 241.43 C 174.03 242.25 174.91 242.71 175.73 242.45 Z M 176.70 242.15 L 177.69 241.84 C 178.51 241.59 178.97 240.72 178.72 239.89 C 178.47 239.07 177.60 238.61 176.77 238.86 L 175.79 239.16 C 174.97 239.41 174.50 240.29 174.75 241.11 C 175.01 241.93 175.88 242.40 176.70 242.15 Z M 177.68 241.85 L 178.67 241.55 C 179.50 241.30 179.96 240.43 179.72 239.61 C 179.47 238.78 178.60 238.31 177.77 238.56 L 176.78 238.86 C 175.96 239.10 175.49 239.97 175.73 240.80 C 175.98 241.63 176.85 242.09 177.68 241.85 Z M 178.66 241.55 L 179.64 241.27 C 180.47 241.03 180.94 240.16 180.70 239.33 C 180.46 238.50 179.59 238.03 178.76 238.27 L 177.78 238.56 C 176.96 238.80 176.48 239.66 176.72 240.49 C 176.97 241.32 177.83 241.79 178.66 241.55 Z M 179.63 241.27 L 180.57 241.00 C 181.39 240.77 181.88 239.90 181.64 239.08 C 181.40 238.25 180.54 237.76 179.71 238.00 L 178.77 238.27 C 177.94 238.50 177.46 239.37 177.70 240.20 C 177.93 241.02 178.80 241.51 179.63 241.27 Z M 180.55 241.01 L 181.52 240.74 C 182.35 240.51 182.84 239.66 182.62 238.82 C 182.39 237.99 181.53 237.50 180.70 237.73 L 179.73 238.00 C 178.89 238.22 178.41 239.08 178.63 239.91 C 178.86 240.75 179.72 241.24 180.55 241.01 Z M 181.50 240.75 L 182.58 240.47 C 183.41 240.25 183.91 239.40 183.70 238.56 C 183.48 237.73 182.62 237.23 181.79 237.45 L 180.72 237.73 C 179.88 237.94 179.38 238.80 179.60 239.63 C 179.82 240.46 180.67 240.96 181.50 240.75 Z M 182.57 240.47 L 183.53 240.23 C 184.36 240.02 184.87 239.17 184.66 238.33 C 184.45 237.50 183.60 236.99 182.76 237.20 L 181.80 237.44 C 180.97 237.65 180.46 238.50 180.67 239.34 C 180.88 240.17 181.73 240.68 182.57 240.47 Z M 183.53 240.23 L 184.41 240.01 C 185.24 239.80 185.75 238.95 185.54 238.11 C 185.33 237.28 184.48 236.77 183.65 236.98 L 182.77 237.20 C 181.93 237.41 181.42 238.26 181.63 239.09 C 181.84 239.93 182.69 240.44 183.53 240.23 Z M 184.42 240.00 L 185.31 239.77 C 186.14 239.55 186.64 238.70 186.42 237.86 C 186.20 237.03 185.35 236.53 184.51 236.75 L 183.63 236.98 C 182.80 237.20 182.30 238.05 182.52 238.89 C 182.74 239.72 183.59 240.22 184.42 240.00 Z M 185.35 239.76 L 186.28 239.49 C 187.10 239.24 187.58 238.38 187.33 237.55 C 187.09 236.72 186.23 236.25 185.40 236.49 L 184.47 236.76 C 183.64 237.00 183.17 237.87 183.41 238.70 C 183.65 239.53 184.52 240.00 185.35 239.76 Z M 186.35 239.46 L 187.28 239.14 C 188.10 238.86 188.53 237.97 188.25 237.15 C 187.96 236.34 187.07 235.91 186.26 236.19 L 185.32 236.51 C 184.51 236.80 184.08 237.69 184.36 238.50 C 184.64 239.32 185.53 239.75 186.35 239.46 Z M 187.38 239.10 L 188.35 238.70 C 189.14 238.36 189.52 237.45 189.18 236.65 C 188.85 235.86 187.93 235.48 187.14 235.82 L 186.17 236.22 C 185.37 236.56 185.00 237.47 185.33 238.27 C 185.67 239.06 186.58 239.44 187.38 239.10 Z M 188.44 238.66 L 189.24 238.26 C 190.02 237.87 190.33 236.94 189.95 236.17 C 189.57 235.39 188.63 235.08 187.86 235.46 L 187.05 235.86 C 186.28 236.24 185.96 237.18 186.34 237.95 C 186.73 238.72 187.66 239.04 188.44 238.66 Z M 189.32 238.21 L 190.15 237.74 C 190.90 237.31 191.16 236.36 190.74 235.61 C 190.31 234.86 189.36 234.60 188.61 235.03 L 187.78 235.50 C 187.03 235.93 186.77 236.88 187.19 237.63 C 187.62 238.38 188.57 238.64 189.32 238.21 Z M 190.24 237.69 L 191.09 237.13 C 191.81 236.66 192.01 235.69 191.54 234.97 C 191.06 234.25 190.10 234.05 189.38 234.52 L 188.53 235.08 C 187.80 235.55 187.60 236.52 188.08 237.24 C 188.55 237.96 189.52 238.16 190.24 237.69 Z M 191.17 237.07 L 192.03 236.42 C 192.72 235.90 192.86 234.92 192.34 234.23 C 191.82 233.55 190.84 233.41 190.15 233.93 L 189.29 234.58 C 188.60 235.10 188.47 236.08 188.99 236.77 C 189.51 237.45 190.49 237.59 191.17 237.07 Z M 192.11 236.36 L 192.91 235.66 C 193.56 235.10 193.63 234.11 193.07 233.46 C 192.50 232.81 191.52 232.74 190.87 233.30 L 190.07 234.00 C 189.42 234.56 189.35 235.55 189.91 236.20 C 190.48 236.85 191.46 236.92 192.11 236.36 Z M 192.98 235.61 L 193.72 234.89 C 194.34 234.29 194.35 233.30 193.75 232.68 C 193.15 232.06 192.16 232.04 191.54 232.65 L 190.80 233.36 C 190.18 233.96 190.17 234.95 190.77 235.57 C 191.37 236.19 192.36 236.21 192.98 235.61 Z M 193.77 234.84 L 194.48 234.08 C 195.07 233.45 195.04 232.47 194.41 231.88 C 193.78 231.28 192.80 231.31 192.21 231.94 L 191.49 232.70 C 190.90 233.32 190.93 234.31 191.56 234.90 C 192.19 235.49 193.18 235.46 193.77 234.84 Z M 194.52 234.04 L 195.18 233.28 C 195.75 232.63 195.68 231.64 195.03 231.07 C 194.38 230.51 193.39 230.57 192.83 231.22 L 192.16 231.99 C 191.60 232.64 191.67 233.62 192.32 234.19 C 192.97 234.76 193.95 234.69 194.52 234.04 Z M 195.22 233.23 L 195.82 232.49 C 196.36 231.82 196.26 230.84 195.59 230.29 C 194.92 229.75 193.93 229.86 193.39 230.53 L 192.79 231.27 C 192.25 231.94 192.35 232.92 193.02 233.46 C 193.69 234.01 194.68 233.90 195.22 233.23 Z M 195.86 232.44 L 196.48 231.60 C 197.00 230.90 196.85 229.93 196.16 229.41 C 195.47 228.90 194.49 229.04 193.98 229.73 L 193.35 230.58 C 192.84 231.27 192.98 232.25 193.67 232.76 C 194.37 233.27 195.34 233.13 195.86 232.44 Z M 196.53 231.54 L 197.11 230.67 C 197.59 229.96 197.40 228.99 196.68 228.51 C 195.97 228.03 195.00 228.22 194.51 228.93 L 193.94 229.80 C 193.45 230.51 193.65 231.48 194.36 231.96 C 195.08 232.44 196.05 232.25 196.53 231.54 Z M 197.14 230.62 L 197.64 229.81 C 198.09 229.07 197.86 228.11 197.13 227.66 C 196.39 227.21 195.43 227.44 194.98 228.17 L 194.48 228.99 C 194.03 229.72 194.26 230.68 194.99 231.13 C 195.73 231.58 196.69 231.35 197.14 230.62 Z M 197.65 229.78 L 198.12 228.99 C 198.56 228.25 198.31 227.29 197.57 226.85 C 196.82 226.41 195.87 226.66 195.43 227.41 L 194.96 228.20 C 194.53 228.94 194.77 229.90 195.52 230.34 C 196.26 230.77 197.22 230.53 197.65 229.78 Z M 198.12 228.99 L 198.62 228.15 C 199.06 227.40 198.82 226.45 198.08 226.01 C 197.33 225.57 196.38 225.81 195.94 226.55 L 195.43 227.40 C 194.99 228.14 195.24 229.10 195.98 229.54 C 196.72 229.98 197.68 229.74 198.12 228.99 Z M 198.62 228.16 L 199.14 227.29 C 199.58 226.56 199.34 225.60 198.61 225.15 C 197.87 224.71 196.91 224.94 196.46 225.68 L 195.94 226.54 C 195.50 227.28 195.73 228.24 196.47 228.69 C 197.21 229.13 198.17 228.89 198.62 228.16 Z M 199.13 227.30 L 199.66 226.44 C 200.11 225.71 199.87 224.75 199.14 224.30 C 198.40 223.85 197.44 224.08 196.99 224.81 L 196.47 225.67 C 196.02 226.41 196.25 227.37 196.98 227.82 C 197.72 228.27 198.68 228.04 199.13 227.30 Z M 199.65 226.45 L 200.18 225.60 C 200.63 224.87 200.40 223.91 199.67 223.45 C 198.94 223.00 197.97 223.23 197.52 223.96 L 197.00 224.81 C 196.54 225.54 196.77 226.50 197.50 226.96 C 198.24 227.41 199.20 227.18 199.65 226.45 Z M 200.17 225.61 L 200.70 224.77 C 201.15 224.04 200.93 223.08 200.20 222.62 C 199.47 222.16 198.51 222.38 198.05 223.12 L 197.53 223.95 C 197.07 224.68 197.29 225.65 198.02 226.11 C 198.75 226.56 199.71 226.34 200.17 225.61 Z M 200.69 224.78 L 201.22 223.94 C 201.69 223.21 201.47 222.25 200.74 221.79 C 200.01 221.32 199.05 221.54 198.59 222.27 L 198.05 223.11 C 197.59 223.84 197.81 224.80 198.54 225.26 C 199.26 225.72 200.23 225.51 200.69 224.78 Z M 201.22 223.95 L 201.77 223.10 C 202.24 222.37 202.03 221.41 201.30 220.94 C 200.58 220.47 199.61 220.68 199.14 221.40 L 198.59 222.26 C 198.13 222.98 198.34 223.95 199.06 224.42 C 199.79 224.88 200.75 224.67 201.22 223.95 Z M 201.76 223.11 L 202.30 222.28 C 202.77 221.56 202.57 220.59 201.85 220.12 C 201.13 219.65 200.16 219.85 199.69 220.57 L 199.15 221.40 C 198.68 222.12 198.88 223.08 199.60 223.56 C 200.32 224.03 201.29 223.83 201.76 223.11 Z M 202.29 222.29 L 202.85 221.46 C 203.33 220.74 203.14 219.77 202.42 219.29 C 201.70 218.81 200.74 219.00 200.26 219.72 L 199.70 220.56 C 199.22 221.28 199.41 222.25 200.13 222.72 C 200.85 223.20 201.82 223.01 202.29 222.29 Z M 202.84 221.47 L 203.41 220.64 C 203.90 219.93 203.72 218.95 203.01 218.47 C 202.30 217.98 201.32 218.16 200.84 218.87 L 200.27 219.71 C 199.78 220.42 199.96 221.39 200.67 221.88 C 201.38 222.36 202.36 222.18 202.84 221.47 Z M 203.40 220.66 L 203.97 219.85 C 204.47 219.15 204.30 218.17 203.60 217.67 C 202.89 217.18 201.92 217.34 201.42 218.05 L 200.85 218.85 C 200.35 219.56 200.52 220.53 201.22 221.03 C 201.93 221.53 202.90 221.36 203.40 220.66 Z M 203.96 219.87 L 204.53 219.09 C 205.04 218.40 204.89 217.42 204.19 216.91 C 203.50 216.40 202.52 216.55 202.01 217.24 L 201.44 218.02 C 200.93 218.72 201.08 219.70 201.77 220.21 C 202.47 220.72 203.44 220.57 203.96 219.87 Z M 204.51 219.11 L 205.11 218.33 C 205.63 217.64 205.50 216.66 204.81 216.14 C 204.13 215.62 203.15 215.75 202.62 216.44 L 202.03 217.22 C 201.50 217.91 201.64 218.89 202.32 219.41 C 203.01 219.93 203.99 219.80 204.51 219.11 Z M 205.09 218.35 L 205.73 217.54 C 206.26 216.86 206.15 215.88 205.47 215.35 C 204.79 214.81 203.81 214.93 203.28 215.61 L 202.64 216.42 C 202.11 217.10 202.22 218.08 202.90 218.61 C 203.58 219.14 204.56 219.03 205.09 218.35 Z M 205.72 217.56 L 206.32 216.81 C 206.87 216.14 206.76 215.16 206.09 214.61 C 205.42 214.07 204.44 214.17 203.90 214.84 L 203.29 215.59 C 202.75 216.26 202.85 217.24 203.52 217.79 C 204.19 218.33 205.17 218.23 205.72 217.56 Z M 206.31 216.83 L 206.92 216.10 C 207.47 215.44 207.38 214.45 206.72 213.90 C 206.05 213.35 205.07 213.44 204.52 214.10 L 203.91 214.83 C 203.36 215.49 203.45 216.47 204.11 217.02 C 204.77 217.58 205.76 217.49 206.31 216.83 Z M 206.90 216.12 L 207.55 215.37 C 208.11 214.72 208.04 213.73 207.39 213.17 C 206.74 212.60 205.75 212.67 205.19 213.32 L 204.54 214.08 C 203.97 214.73 204.04 215.72 204.69 216.28 C 205.35 216.84 206.33 216.77 206.90 216.12 Z M 207.53 215.39 L 208.22 214.62 C 208.80 213.98 208.75 213.00 208.12 212.42 C 207.48 211.84 206.49 211.89 205.91 212.53 L 205.21 213.30 C 204.63 213.94 204.68 214.92 205.32 215.50 C 205.96 216.08 206.95 216.03 207.53 215.39 Z M 208.20 214.65 L 208.94 213.87 C 209.54 213.25 209.52 212.26 208.89 211.66 C 208.27 211.07 207.28 211.09 206.68 211.71 L 205.94 212.50 C 205.34 213.12 205.37 214.11 205.99 214.70 C 206.61 215.30 207.60 215.28 208.20 214.65 Z M 208.91 213.90 L 209.65 213.17 C 210.26 212.56 210.27 211.58 209.66 210.96 C 209.05 210.35 208.06 210.35 207.45 210.95 L 206.71 211.68 C 206.10 212.29 206.10 213.28 206.71 213.89 C 207.31 214.50 208.30 214.51 208.91 213.90 Z M 209.63 213.19 L 210.38 212.48 C 211.01 211.88 211.03 210.89 210.44 210.27 C 209.84 209.64 208.85 209.62 208.23 210.21 L 207.47 210.93 C 206.85 211.53 206.82 212.51 207.42 213.14 C 208.01 213.76 209.00 213.79 209.63 213.19 Z M 210.36 212.49 L 211.12 211.80 C 211.75 211.22 211.79 210.23 211.21 209.59 C 210.62 208.96 209.64 208.92 209.00 209.50 L 208.25 210.19 C 207.61 210.78 207.57 211.77 208.16 212.40 C 208.74 213.04 209.73 213.08 210.36 212.49 Z M 211.10 211.81 L 211.83 211.16 C 212.47 210.58 212.53 209.60 211.95 208.95 C 211.38 208.31 210.39 208.26 209.75 208.83 L 209.02 209.49 C 208.38 210.06 208.32 211.05 208.90 211.69 C 209.47 212.33 210.46 212.39 211.10 211.81 Z M 211.82 211.17 L 212.51 210.56 C 213.16 209.99 213.22 209.00 212.66 208.35 C 212.09 207.71 211.10 207.64 210.45 208.21 L 209.76 208.82 C 209.11 209.39 209.05 210.38 209.62 211.03 C 210.19 211.67 211.17 211.74 211.82 211.17 Z M 212.50 210.57 L 213.35 209.84 C 214.00 209.27 214.07 208.29 213.51 207.64 C 212.95 206.98 211.96 206.91 211.31 207.47 L 210.46 208.20 C 209.81 208.77 209.74 209.75 210.30 210.41 C 210.87 211.06 211.85 211.13 212.50 210.57 Z M 213.33 209.85 L 214.09 209.22 C 214.75 208.66 214.84 207.68 214.29 207.02 C 213.73 206.36 212.75 206.27 212.09 206.82 L 211.33 207.46 C 210.66 208.01 210.58 209.00 211.13 209.66 C 211.68 210.32 212.67 210.41 213.33 209.85 Z M 214.06 209.24 L 214.79 208.66 C 215.46 208.12 215.57 207.14 215.03 206.47 C 214.49 205.79 213.51 205.68 212.84 206.22 L 212.11 206.80 C 211.44 207.34 211.33 208.32 211.87 208.99 C 212.41 209.67 213.39 209.78 214.06 209.24 Z M 214.76 208.69 L 215.57 208.07 C 216.26 207.55 216.39 206.57 215.87 205.88 C 215.35 205.19 214.37 205.06 213.69 205.58 L 212.87 206.20 C 212.18 206.72 212.05 207.69 212.57 208.38 C 213.09 209.07 214.07 209.21 214.76 208.69 Z M 215.54 208.09 L 216.44 207.44 C 217.14 206.94 217.30 205.97 216.80 205.27 C 216.29 204.57 215.32 204.41 214.62 204.91 L 213.72 205.56 C 213.02 206.06 212.86 207.04 213.36 207.74 C 213.86 208.44 214.84 208.60 215.54 208.09 Z M 216.42 207.46 L 217.19 206.92 C 217.90 206.43 218.08 205.46 217.59 204.75 C 217.10 204.04 216.13 203.87 215.42 204.36 L 214.64 204.89 C 213.93 205.38 213.75 206.35 214.24 207.06 C 214.73 207.77 215.71 207.95 216.42 207.46 Z M 217.15 206.95 L 218.03 206.39 C 218.75 205.92 218.96 204.96 218.49 204.23 C 218.03 203.51 217.06 203.30 216.34 203.76 L 215.46 204.33 C 214.73 204.79 214.52 205.76 214.99 206.48 C 215.46 207.21 216.42 207.42 217.15 206.95 Z M 217.86 206.48 L 217.98 206.43 C 218.75 206.05 219.08 205.12 218.71 204.34 C 218.34 203.57 217.40 203.24 216.63 203.61 L 216.51 203.67 C 215.73 204.04 215.40 204.97 215.77 205.75 C 216.15 206.53 217.08 206.86 217.86 206.48 Z"
      fill="black"
      fill-rule="nonzero" /></svg>