<svg xmlns="http://www.w3.org/2000/svg" width="300" height="300" viewBox="0 0 300 300">
<path d="M 99.37 89.97 L 99.12 90.94 C 98.90 91.77 99.41 92.63 100.24 92.84 C 101.08 93.06 101.93 92.55 102.14 91.72 L 102.39 90.75 C 102.61 89.91 102.11 89.06 101.27 88.85 C 100.44 88.63 99.59 89.13 99.37 89.97 Z M 99.11 90.98 L 98.89 91.95 C 98.69 92.79 99.22 93.63 100.06 93.83 C 100.90 94.02 101.73 93.49 101.93 92.65 L 102.15 91.68 C 102.35 90.84 101.82 90.00 100.98 89.81 C 100.14 89.61 99.30 90.14 99.11 90.98 Z M 98.87 92.03 L 98.70 93.02 C 98.55 93.86 99.11 94.67 99.96 94.82 C 100.81 94.97 101.62 94.41 101.77 93.56 L 101.94 92.58 C 102.09 91.73 101.53 90.92 100.68 90.77 C 99.83 90.62 99.02 91.18 98.87 92.03 Z M 98.68 93.13 L 98.58 94.10 C 98.50 94.96 99.12 95.73 99.98 95.81 C 100.84 95.90 101.60 95.27 101.69 94.42 L 101.79 93.44 C 101.87 92.59 101.25 91.82 100.39 91.73 C 99.53 91.65 98.77 92.27 98.68 93.13 Z M 98.57 94.22 L 98.55 95.21 C 98.53 96.07 99.21 96.79 100.07 96.81 C 100.93 96.83 101.65 96.15 101.67 95.29 L 101.70 94.30 C 101.72 93.44 101.04 92.72 100.17 92.70 C 99.31 92.68 98.60 93.36 98.57 94.22 Z M 98.55 95.32 L 98.60 96.33 C 98.63 97.19 99.36 97.86 100.22 97.82 C 101.08 97.79 101.75 97.06 101.71 96.20 L 101.67 95.18 C 101.63 94.32 100.90 93.65 100.04 93.69 C 99.18 93.73 98.51 94.46 98.55 95.32 Z M 98.60 96.42 L 98.70 97.35 C 98.78 98.21 99.55 98.83 100.41 98.75 C 101.26 98.66 101.89 97.90 101.80 97.04 L 101.71 96.11 C 101.62 95.25 100.86 94.62 100.00 94.71 C 99.14 94.80 98.52 95.56 98.60 96.42 Z M 98.70 97.42 L 98.84 98.32 C 98.96 99.18 99.75 99.77 100.60 99.65 C 101.46 99.52 102.05 98.73 101.93 97.88 L 101.79 96.97 C 101.67 96.12 100.88 95.53 100.03 95.65 C 99.17 95.77 98.58 96.57 98.70 97.42 Z M 98.84 98.37 L 99.02 99.35 C 99.17 100.20 99.98 100.77 100.83 100.62 C 101.68 100.47 102.24 99.66 102.09 98.81 L 101.92 97.83 C 101.77 96.98 100.96 96.41 100.11 96.56 C 99.26 96.71 98.69 97.53 98.84 98.37 Z M 99.02 99.39 L 99.24 100.47 C 99.41 101.32 100.24 101.87 101.08 101.70 C 101.93 101.53 102.47 100.70 102.30 99.86 L 102.09 98.77 C 101.92 97.93 101.09 97.38 100.25 97.55 C 99.40 97.72 98.85 98.54 99.02 99.39 Z M 99.25 100.49 L 99.46 101.47 C 99.64 102.32 100.47 102.85 101.31 102.67 C 102.15 102.49 102.69 101.66 102.51 100.82 L 102.30 99.84 C 102.12 99.00 101.29 98.46 100.45 98.64 C 99.60 98.82 99.07 99.65 99.25 100.49 Z M 99.46 101.48 L 99.66 102.42 C 99.85 103.26 100.68 103.80 101.52 103.61 C 102.37 103.43 102.90 102.60 102.71 101.75 L 102.51 100.81 C 102.32 99.97 101.49 99.44 100.65 99.62 C 99.81 99.81 99.27 100.64 99.46 101.48 Z M 99.67 102.42 L 99.88 103.41 C 100.07 104.25 100.90 104.78 101.74 104.60 C 102.59 104.41 103.12 103.58 102.93 102.74 L 102.71 101.75 C 102.53 100.91 101.70 100.38 100.85 100.56 C 100.01 100.75 99.48 101.58 99.67 102.42 Z M 99.88 103.41 L 100.10 104.42 C 100.29 105.26 101.12 105.79 101.96 105.61 C 102.80 105.43 103.34 104.59 103.15 103.75 L 102.93 102.74 C 102.75 101.90 101.92 101.37 101.07 101.55 C 100.23 101.73 99.70 102.56 99.88 103.41 Z M 100.10 104.41 L 100.32 105.42 C 100.49 106.26 101.32 106.80 102.17 106.62 C 103.01 106.45 103.55 105.62 103.37 104.77 L 103.15 103.76 C 102.98 102.92 102.15 102.38 101.30 102.56 C 100.46 102.74 99.92 103.56 100.10 104.41 Z M 100.31 105.41 L 100.52 106.41 C 100.69 107.26 101.51 107.80 102.36 107.63 C 103.20 107.46 103.75 106.63 103.58 105.79 L 103.37 104.79 C 103.20 103.94 102.38 103.40 101.53 103.57 C 100.69 103.74 100.14 104.56 100.31 105.41 Z M 100.51 106.39 L 100.70 107.38 C 100.86 108.23 101.68 108.79 102.53 108.62 C 103.37 108.46 103.93 107.65 103.77 106.80 L 103.58 105.81 C 103.42 104.96 102.60 104.41 101.75 104.57 C 100.91 104.73 100.35 105.54 100.51 106.39 Z M 100.70 107.36 L 100.87 108.34 C 101.02 109.19 101.83 109.75 102.67 109.60 C 103.52 109.46 104.09 108.65 103.94 107.80 L 103.77 106.82 C 103.62 105.97 102.81 105.40 101.96 105.55 C 101.12 105.70 100.55 106.51 100.70 107.36 Z M 100.86 108.31 L 101.02 109.29 C 101.15 110.14 101.96 110.72 102.81 110.58 C 103.66 110.44 104.24 109.64 104.10 108.79 L 103.95 107.82 C 103.81 106.97 103.01 106.39 102.16 106.52 C 101.31 106.66 100.73 107.46 100.86 108.31 Z M 101.02 109.26 L 101.16 110.24 C 101.28 111.10 102.07 111.69 102.92 111.57 C 103.78 111.44 104.37 110.65 104.25 109.80 L 104.11 108.82 C 103.98 107.96 103.19 107.37 102.34 107.49 C 101.48 107.62 100.89 108.41 101.02 109.26 Z M 101.15 110.22 L 101.28 111.23 C 101.39 112.08 102.18 112.69 103.03 112.58 C 103.89 112.47 104.49 111.68 104.38 110.83 L 104.25 109.82 C 104.14 108.97 103.36 108.36 102.50 108.47 C 101.65 108.58 101.04 109.37 101.15 110.22 Z M 101.28 111.21 L 101.39 112.14 C 101.49 113.00 102.26 113.61 103.12 113.51 C 103.97 113.42 104.59 112.64 104.49 111.79 L 104.38 110.85 C 104.28 109.99 103.51 109.38 102.65 109.48 C 101.80 109.58 101.18 110.35 101.28 111.21 Z M 101.39 112.13 L 101.49 113.09 C 101.58 113.94 102.34 114.57 103.20 114.48 C 104.06 114.39 104.68 113.62 104.59 112.76 L 104.49 111.80 C 104.40 110.94 103.63 110.32 102.78 110.41 C 101.92 110.50 101.30 111.27 101.39 112.13 Z M 101.49 113.07 L 101.58 114.06 C 101.66 114.92 102.43 115.55 103.29 115.46 C 104.14 115.38 104.77 114.62 104.69 113.76 L 104.59 112.77 C 104.51 111.91 103.75 111.29 102.89 111.37 C 102.03 111.45 101.40 112.21 101.49 113.07 Z M 101.58 114.05 L 101.67 115.06 C 101.75 115.92 102.51 116.55 103.37 116.47 C 104.23 116.40 104.86 115.64 104.78 114.78 L 104.69 113.77 C 104.61 112.91 103.85 112.28 102.99 112.35 C 102.14 112.43 101.50 113.19 101.58 114.05 Z M 101.67 115.05 L 101.76 116.09 C 101.84 116.94 102.59 117.58 103.45 117.51 C 104.31 117.43 104.95 116.67 104.87 115.82 L 104.78 114.78 C 104.71 113.92 103.95 113.29 103.09 113.36 C 102.23 113.44 101.60 114.19 101.67 115.05 Z M 101.76 116.08 L 101.85 117.13 C 101.92 117.99 102.68 118.63 103.54 118.56 C 104.40 118.49 105.03 117.73 104.96 116.87 L 104.87 115.82 C 104.80 114.96 104.04 114.32 103.18 114.40 C 102.33 114.47 101.69 115.22 101.76 116.08 Z M 101.85 117.13 L 101.94 118.18 C 102.01 119.04 102.76 119.68 103.62 119.61 C 104.48 119.53 105.12 118.78 105.05 117.92 L 104.96 116.87 C 104.89 116.01 104.13 115.38 103.27 115.45 C 102.42 115.52 101.78 116.27 101.85 117.13 Z M 101.94 118.18 L 102.02 119.23 C 102.10 120.09 102.85 120.73 103.71 120.65 C 104.57 120.58 105.21 119.83 105.14 118.97 L 105.05 117.92 C 104.98 117.06 104.22 116.42 103.36 116.49 C 102.50 116.57 101.87 117.32 101.94 118.18 Z M 102.02 119.23 L 102.11 120.26 C 102.18 121.12 102.93 121.76 103.79 121.69 C 104.65 121.62 105.29 120.86 105.22 120.00 L 105.14 118.97 C 105.07 118.11 104.31 117.47 103.45 117.54 C 102.59 117.61 101.95 118.37 102.02 119.23 Z M 102.11 120.26 L 102.19 121.26 C 102.26 122.12 103.01 122.76 103.87 122.69 C 104.73 122.62 105.37 121.87 105.30 121.01 L 105.22 120.01 C 105.15 119.15 104.40 118.51 103.54 118.58 C 102.68 118.65 102.04 119.40 102.11 120.26 Z M 102.19 121.26 L 102.27 122.21 C 102.34 123.07 103.09 123.72 103.95 123.65 C 104.81 123.58 105.45 122.82 105.38 121.97 L 105.30 121.01 C 105.23 120.15 104.48 119.51 103.62 119.58 C 102.76 119.65 102.12 120.40 102.19 121.26 Z M 102.27 122.21 L 102.34 123.10 C 102.40 123.96 103.16 124.61 104.02 124.54 C 104.88 124.47 105.52 123.72 105.45 122.86 L 105.38 121.97 C 105.31 121.11 104.56 120.47 103.70 120.53 C 102.84 120.60 102.20 121.35 102.27 122.21 Z M 102.34 123.10 L 102.42 124.23 C 102.49 125.09 103.24 125.73 104.10 125.66 C 104.96 125.60 105.60 124.85 105.54 123.99 L 105.45 122.86 C 105.38 122.00 104.63 121.36 103.77 121.43 C 102.92 121.49 102.27 122.24 102.34 123.10 Z M 102.42 124.22 L 102.50 125.24 C 102.56 126.10 103.31 126.74 104.17 126.68 C 105.03 126.62 105.67 125.87 105.61 125.01 L 105.54 123.99 C 105.47 123.13 104.73 122.49 103.87 122.55 C 103.01 122.61 102.36 123.36 102.42 124.22 Z M 102.50 125.23 L 102.56 126.18 C 102.62 127.04 103.36 127.69 104.23 127.63 C 105.09 127.57 105.73 126.82 105.68 125.96 L 105.61 125.02 C 105.55 124.16 104.81 123.51 103.95 123.57 C 103.09 123.62 102.44 124.37 102.50 125.23 Z M 102.56 126.17 L 102.62 127.10 C 102.68 127.96 103.42 128.61 104.28 128.55 C 105.14 128.49 105.79 127.75 105.74 126.89 L 105.68 125.97 C 105.62 125.11 104.88 124.46 104.02 124.51 C 103.16 124.57 102.50 125.31 102.56 126.17 Z M 102.62 127.09 L 102.68 128.04 C 102.73 128.90 103.48 129.55 104.34 129.50 C 105.20 129.44 105.85 128.70 105.80 127.84 L 105.74 126.90 C 105.68 126.03 104.94 125.38 104.08 125.44 C 103.22 125.49 102.57 126.23 102.62 127.09 Z M 102.68 128.03 L 102.74 129.01 C 102.79 129.87 103.53 130.53 104.39 130.48 C 105.25 130.42 105.91 129.68 105.86 128.82 L 105.80 127.84 C 105.74 126.98 105.00 126.33 104.14 126.38 C 103.28 126.43 102.63 127.17 102.68 128.03 Z M 102.74 129.01 L 102.80 130.01 C 102.85 130.88 103.59 131.53 104.45 131.48 C 105.31 131.43 105.97 130.69 105.92 129.83 L 105.86 128.83 C 105.80 127.97 105.07 127.31 104.20 127.36 C 103.34 127.41 102.69 128.15 102.74 129.01 Z M 102.80 130.01 L 102.86 131.03 C 102.91 131.90 103.65 132.55 104.51 132.50 C 105.37 132.45 106.03 131.71 105.98 130.85 L 105.92 129.83 C 105.87 128.97 105.13 128.31 104.27 128.36 C 103.41 128.41 102.75 129.15 102.80 130.01 Z M 102.86 131.03 L 102.92 132.04 C 102.97 132.91 103.70 133.56 104.56 133.51 C 105.43 133.46 106.08 132.73 106.03 131.87 L 105.98 130.85 C 105.93 129.99 105.19 129.34 104.33 129.39 C 103.47 129.43 102.81 130.17 102.86 131.03 Z M 102.92 132.04 L 102.97 133.03 C 103.02 133.89 103.76 134.55 104.62 134.50 C 105.48 134.45 106.14 133.71 106.09 132.85 L 106.03 131.87 C 105.98 131.01 105.25 130.35 104.39 130.40 C 103.53 130.44 102.87 131.18 102.92 132.04 Z M 102.97 133.02 L 103.03 134.02 C 103.07 134.88 103.81 135.54 104.67 135.49 C 105.53 135.45 106.19 134.71 106.14 133.85 L 106.09 132.86 C 106.04 131.99 105.31 131.33 104.45 131.38 C 103.58 131.43 102.92 132.16 102.97 133.02 Z M 103.03 134.01 L 103.08 135.02 C 103.12 135.88 103.85 136.54 104.72 136.50 C 105.58 136.45 106.24 135.72 106.20 134.86 L 106.14 133.85 C 106.10 132.99 105.37 132.33 104.51 132.38 C 103.64 132.42 102.98 133.15 103.03 134.01 Z M 103.08 135.01 L 103.12 136.03 C 103.16 136.89 103.89 137.55 104.76 137.51 C 105.62 137.47 106.28 136.74 106.24 135.88 L 106.20 134.87 C 106.16 134.00 105.42 133.34 104.56 133.38 C 103.70 133.42 103.04 134.15 103.08 135.01 Z M 103.12 136.02 L 103.17 137.03 C 103.20 137.89 103.93 138.56 104.79 138.52 C 105.65 138.49 106.32 137.76 106.29 136.90 L 106.24 135.89 C 106.21 135.03 105.48 134.36 104.62 134.39 C 103.76 134.43 103.09 135.16 103.12 136.02 Z M 103.17 137.02 L 103.20 138.03 C 103.24 138.90 103.96 139.57 104.82 139.53 C 105.69 139.50 106.36 138.78 106.32 137.92 L 106.29 136.90 C 106.25 136.04 105.53 135.37 104.67 135.40 C 103.80 135.44 103.13 136.16 103.17 137.02 Z M 103.20 138.03 L 103.24 139.04 C 103.27 139.90 104.00 140.57 104.86 140.54 C 105.72 140.51 106.39 139.78 106.36 138.92 L 106.32 137.92 C 106.29 137.05 105.57 136.38 104.71 136.41 C 103.84 136.45 103.17 137.17 103.20 138.03 Z M 103.24 139.04 L 103.28 140.03 C 103.31 140.90 104.04 141.57 104.90 141.53 C 105.76 141.50 106.43 140.77 106.40 139.91 L 106.36 138.92 C 106.33 138.06 105.60 137.39 104.74 137.42 C 103.88 137.45 103.21 138.18 103.24 139.04 Z M 103.28 140.04 L 103.32 141.02 C 103.36 141.88 104.09 142.55 104.95 142.51 C 105.81 142.48 106.48 141.75 106.44 140.89 L 106.40 139.91 C 106.36 139.04 105.63 138.38 104.77 138.41 C 103.91 138.45 103.24 139.18 103.28 140.04 Z M 103.32 141.03 L 103.37 142.02 C 103.42 142.88 104.15 143.55 105.01 143.50 C 105.87 143.46 106.53 142.73 106.49 141.87 L 106.44 140.88 C 106.40 140.02 105.67 139.35 104.81 139.39 C 103.95 139.44 103.28 140.17 103.32 141.03 Z M 103.37 142.03 L 103.42 143.01 C 103.47 143.87 104.20 144.53 105.07 144.48 C 105.93 144.44 106.59 143.71 106.54 142.84 L 106.49 141.86 C 106.45 141.00 105.71 140.34 104.85 140.39 C 103.99 140.43 103.33 141.16 103.37 142.03 Z M 103.42 143.01 L 103.48 144.00 C 103.52 144.86 104.25 145.52 105.12 145.48 C 105.98 145.43 106.64 144.70 106.59 143.84 L 106.54 142.85 C 106.50 141.98 105.76 141.32 104.90 141.37 C 104.04 141.41 103.38 142.15 103.42 143.01 Z M 103.48 143.99 L 103.52 145.01 C 103.56 145.88 104.30 146.54 105.16 146.50 C 106.02 146.46 106.68 145.73 106.64 144.87 L 106.59 143.84 C 106.55 142.98 105.82 142.32 104.96 142.36 C 104.10 142.40 103.43 143.13 103.48 143.99 Z M 103.52 145.00 L 103.56 145.99 C 103.60 146.85 104.33 147.52 105.19 147.48 C 106.05 147.45 106.72 146.72 106.68 145.86 L 106.64 144.88 C 106.61 144.01 105.88 143.35 105.02 143.38 C 104.16 143.42 103.49 144.14 103.52 145.00 Z M 103.56 145.98 L 103.60 146.98 C 103.63 147.84 104.35 148.51 105.22 148.48 C 106.08 148.45 106.75 147.73 106.72 146.87 L 106.68 145.87 C 106.65 145.01 105.93 144.33 105.07 144.36 C 104.21 144.39 103.53 145.12 103.56 145.98 Z M 103.60 146.97 L 103.63 147.99 C 103.66 148.85 104.38 149.53 105.24 149.50 C 106.11 149.47 106.78 148.75 106.75 147.89 L 106.72 146.87 C 106.69 146.01 105.97 145.33 105.11 145.36 C 104.25 145.39 103.57 146.11 103.60 146.97 Z M 103.63 147.98 L 103.66 149.00 C 103.69 149.86 104.41 150.54 105.27 150.51 C 106.13 150.48 106.81 149.76 106.78 148.90 L 106.75 147.89 C 106.73 147.03 106.01 146.35 105.14 146.38 C 104.28 146.40 103.61 147.12 103.63 147.98 Z M 103.66 149.00 L 103.69 149.99 C 103.72 150.85 104.44 151.53 105.30 151.51 C 106.16 151.48 106.84 150.76 106.81 149.90 L 106.78 148.90 C 106.76 148.04 106.04 147.36 105.18 147.39 C 104.31 147.41 103.64 148.13 103.66 149.00 Z M 103.69 149.99 L 103.73 151.06 C 103.75 151.92 104.47 152.60 105.34 152.57 C 106.20 152.54 106.87 151.82 106.85 150.96 L 106.81 149.90 C 106.79 149.03 106.07 148.36 105.21 148.38 C 104.34 148.41 103.67 149.13 103.69 149.99 Z M 103.73 151.06 L 103.76 152.08 C 103.78 152.94 104.50 153.62 105.37 153.59 C 106.23 153.57 106.90 152.85 106.88 151.99 L 106.85 150.96 C 106.82 150.10 106.10 149.42 105.24 149.45 C 104.38 149.47 103.70 150.19 103.73 151.06 Z M 103.76 152.08 L 103.79 153.06 C 103.81 153.93 104.53 154.60 105.39 154.58 C 106.25 154.56 106.93 153.84 106.91 152.98 L 106.88 151.99 C 106.85 151.13 106.14 150.45 105.27 150.47 C 104.41 150.50 103.73 151.21 103.76 152.08 Z M 103.79 153.06 L 103.81 154.01 C 103.83 154.87 104.54 155.55 105.41 155.53 C 106.27 155.51 106.95 154.80 106.93 153.93 L 106.91 152.98 C 106.89 152.12 106.17 151.44 105.31 151.46 C 104.45 151.48 103.76 152.20 103.79 153.06 Z M 103.81 154.00 L 103.82 154.98 C 103.84 155.85 104.55 156.53 105.41 156.52 C 106.27 156.50 106.96 155.79 106.95 154.93 L 106.93 153.95 C 106.91 153.08 106.20 152.40 105.34 152.41 C 104.48 152.43 103.79 153.14 103.81 154.00 Z M 103.82 154.97 L 103.83 155.97 C 103.84 156.83 104.55 157.53 105.41 157.52 C 106.27 157.51 106.96 156.80 106.96 155.94 L 106.95 154.94 C 106.94 154.08 106.23 153.39 105.37 153.40 C 104.51 153.40 103.82 154.11 103.82 154.97 Z M 103.83 155.96 L 103.84 156.95 C 103.84 157.81 104.54 158.51 105.41 158.51 C 106.27 158.50 106.96 157.80 106.96 156.94 L 106.96 155.95 C 106.95 155.09 106.25 154.39 105.39 154.40 C 104.53 154.40 103.83 155.10 103.83 155.96 Z M 103.84 156.95 L 103.84 157.94 C 103.84 158.80 104.54 159.50 105.40 159.50 C 106.26 159.50 106.96 158.80 106.96 157.94 L 106.96 156.94 C 106.96 156.08 106.26 155.38 105.40 155.38 C 104.54 155.38 103.84 156.08 103.84 156.95 Z M 103.84 157.94 L 103.84 158.93 C 103.84 159.79 104.54 160.49 105.40 160.49 C 106.26 160.49 106.96 159.79 106.96 158.93 L 106.96 157.94 C 106.96 157.08 106.26 156.38 105.40 156.38 C 104.54 156.38 103.84 157.08 103.84 157.94 Z M 103.84 158.93 L 103.84 159.92 C 103.84 160.79 104.54 161.49 105.40 161.49 C 106.26 161.49 106.96 160.79 106.96 159.92 L 106.96 158.93 C 106.96 158.07 106.26 157.37 105.40 157.37 C 104.54 157.37 103.84 158.07 103.84 158.93 Z M 103.84 159.92 L 103.84 160.93 C 103.84 161.80 104.54 162.49 105.40 162.49 C 106.26 162.49 106.96 161.80 106.96 160.93 L 106.96 159.92 C 106.96 159.06 106.26 158.36 105.40 158.36 C 104.54 158.36 103.84 159.06 103.84 159.92 Z M 103.84 160.93 L 103.84 161.94 C 103.84 162.80 104.54 163.50 105.40 163.50 C 106.26 163.50 106.96 162.80 106.96 161.94 L 106.96 160.93 C 106.96 160.07 106.26 159.37 105.40 159.37 C 104.54 159.37 103.84 160.07 103.84 160.93 Z M 103.84 161.94 L 103.84 162.95 C 103.84 163.81 104.54 164.51 105.40 164.51 C 106.26 164.51 106.96 163.81 106.96 162.95 L 106.96 161.94 C 106.96 161.08 106.26 160.38 105.40 160.38 C 104.54 160.38 103.84 161.08 103.84 161.94 Z M 103.84 162.95 L 103.84 163.95 C 103.84 164.81 104.54 165.51 105.40 165.51 C 106.26 165.51 106.96 164.81 106.96 163.95 L 106.96 162.95 C 106.96 162.09 106.26 161.39 105.40 161.39 C 104.54 161.39 103.84 162.09 103.84 162.95 Z M 103.84 163.95 L 103.84 164.95 C 103.84 165.81 104.54 166.51 105.40 166.51 C 106.26 166.51 106.96 165.81 106.96 164.95 L 106.96 163.95 C 106.96 163.09 106.26 162.39 105.40 162.39 C 104.54 162.39 103.84 163.09 103.84 163.95 Z M 103.84 164.95 L 103.84 165.94 C 103.84 166.81 104.54 167.50 105.40 167.50 C 106.26 167.50 106.96 166.81 106.96 165.94 L 106.96 164.95 C 106.96 164.08 106.26 163.39 105.40 163.39 C 104.54 163.39 103.84 164.08 103.84 164.95 Z M 103.84 165.94 L 103.84 166.93 C 103.84 167.79 104.54 168.49 105.40 168.49 C 106.26 168.49 106.96 167.79 106.96 166.93 L 106.96 165.94 C 106.96 165.08 106.26 164.38 105.40 164.38 C 104.54 164.38 103.84 165.08 103.84 165.94 Z M 103.84 166.93 L 103.84 167.91 C 103.84 168.77 104.54 169.47 105.40 169.47 C 106.26 169.47 106.96 168.77 106.96 167.91 L 106.96 166.93 C 106.96 166.06 106.26 165.37 105.40 165.37 C 104.54 165.37 103.84 166.06 103.84 166.93 Z M 103.84 167.91 L 103.84 168.90 C 103.84 169.76 104.54 170.46 105.40 170.46 C 106.26 170.46 106.96 169.76 106.96 168.90 L 106.96 167.91 C 106.96 167.04 106.26 166.34 105.40 166.34 C 104.54 166.34 103.84 167.04 103.84 167.91 Z M 103.84 168.90 L 103.84 169.92 C 103.84 170.78 104.54 171.48 105.40 171.48 C 106.26 171.48 106.96 170.78 106.96 169.92 L 106.96 168.90 C 106.96 168.04 106.26 167.34 105.40 167.34 C 104.54 167.34 103.84 168.04 103.84 168.90 Z M 103.84 169.92 L 103.84 170.93 C 103.84 171.80 104.54 172.50 105.40 172.50 C 106.26 172.50 106.96 171.80 106.96 170.93 L 106.96 169.92 C 106.96 169.06 106.26 168.36 105.40 168.36 C 104.54 168.36 103.84 169.06 103.84 169.92 Z M 103.84 170.93 L 103.84 171.93 C 103.84 172.79 104.54 173.49 105.40 173.49 C 106.26 173.49 106.96 172.79 106.96 171.93 L 106.96 170.93 C 106.96 170.07 106.26 169.37 105.40 169.37 C 104.54 169.37 103.84 170.07 103.84 170.93 Z M 103.84 171.93 L 103.84 172.93 C 103.84 173.79 104.54 174.49 105.40 174.49 C 106.26 174.49 106.96 173.79 106.96 172.93 L 106.96 171.93 C 106.96 171.06 106.26 170.36 105.40 170.36 C 104.54 170.36 103.84 171.06 103.84 171.93 Z M 103.84 172.93 L 103.84 173.94 C 103.84 174.80 104.54 175.50 105.40 175.50 C 106.26 175.50 106.96 174.80 106.96 173.94 L 106.96 172.93 C 106.96 172.07 106.26 171.37 105.40 171.37 C 104.54 171.37 103.84 172.07 103.84 172.93 Z M 103.84 173.94 L 103.84 174.94 C 103.84 175.81 104.54 176.50 105.40 176.50 C 106.26 176.50 106.96 175.81 106.96 174.94 L 106.96 173.94 C 106.96 173.08 106.26 172.38 105.40 172.38 C 104.54 172.38 103.84 173.08 103.84 173.94 Z M 103.84 174.94 L 103.84 175.97 C 103.84 176.84 104.54 177.53 105.40 177.53 C 106.26 177.53 106.96 176.84 106.96 175.97 L 106.96 174.94 C 106.96 174.08 106.26 173.38 105.40 173.38 C 104.54 173.38 103.84 174.08 103.84 174.94 Z M 103.84 175.97 L 103.84 176.99 C 103.84 177.85 104.54 178.55 105.40 178.55 C 106.26 178.55 106.96 177.85 106.96 176.99 L 106.96 175.97 C 106.96 175.11 106.26 174.41 105.40 174.41 C 104.54 174.41 103.84 175.11 103.84 175.97 Z M 103.84 176.99 L 103.84 177.99 C 103.84 178.85 104.54 179.55 105.40 179.55 C 106.26 179.55 106.96 178.85 106.96 177.99 L 106.96 176.99 C 106.96 176.13 106.26 175.43 105.40 175.43 C 104.54 175.43 103.84 176.13 103.84 176.99 Z M 103.84 177.99 L 103.84 178.96 C 103.84 179.82 104.54 180.52 105.40 180.52 C 106.26 180.52 106.96 179.82 106.96 178.96 L 106.96 177.99 C 106.96 177.13 106.26 176.43 105.40 176.43 C 104.54 176.43 103.84 177.13 103.84 177.99 Z M 103.84 178.96 L 103.84 179.96 C 103.84 180.82 104.54 181.52 105.40 181.52 C 106.26 181.52 106.96 180.82 106.96 179.96 L 106.96 178.96 C 106.96 178.10 106.26 177.40 105.40 177.40 C 104.54 177.40 103.84 178.10 103.84 178.96 Z M 103.84 179.96 L 103.84 180.98 C 103.84 181.84 104.54 182.54 105.40 182.54 C 106.26 182.54 106.96 181.84 106.96 180.98 L 106.96 179.96 C 106.96 179.10 106.26 178.40 105.40 178.40 C 104.54 178.40 103.84 179.10 103.84 179.96 Z M 103.84 180.98 L 103.84 181.97 C 103.84 182.83 104.54 183.53 105.40 183.53 C 106.26 183.53 106.96 182.83 106.96 181.97 L 106.96 180.98 C 106.96 180.11 106.26 179.41 105.40 179.41 C 104.54 179.41 103.84 180.11 103.84 180.98 Z M 103.84 181.97 L 103.84 182.95 C 103.84 183.81 104.54 184.51 105.40 184.51 C 106.26 184.51 106.96 183.81 106.96 182.95 L 106.96 181.97 C 106.96 181.11 106.26 180.41 105.40 180.41 C 104.54 180.41 103.84 181.11 103.84 181.97 Z M 103.84 182.95 L 103.84 183.88 C 103.84 184.74 104.54 185.44 105.40 185.44 C 106.26 185.44 106.96 184.74 106.96 183.88 L 106.96 182.95 C 106.96 182.09 106.26 181.39 105.40 181.39 C 104.54 181.39 103.84 182.09 103.84 182.95 Z M 103.84 183.88 L 103.84 184.81 C 103.84 185.67 104.54 186.37 105.40 186.37 C 106.26 186.37 106.96 185.67 106.96 184.81 L 106.96 183.88 C 106.96 183.02 106.26 182.32 105.40 182.32 C 104.54 182.32 103.84 183.02 103.84 183.88 Z M 103.84 184.81 L 103.84 185.78 C 103.84 186.64 104.54 187.34 105.40 187.34 C 106.26 187.34 106.96 186.64 106.96 185.78 L 106.96 184.81 C 106.96 183.94 106.26 183.24 105.40 183.24 C 104.54 183.24 103.84 183.94 103.84 184.81 Z M 103.84 185.78 L 103.84 186.85 C 103.84 187.71 104.54 188.41 105.40 188.41 C 106.26 188.41 106.96 187.71 106.96 186.85 L 106.96 185.78 C 106.96 184.92 106.26 184.22 105.40 184.22 C 104.54 184.22 103.84 184.92 103.84 185.78 Z M 103.84 186.85 L 103.84 187.90 C 103.84 188.76 104.54 189.46 105.40 189.46 C 106.26 189.46 106.96 188.76 106.96 187.90 L 106.96 186.85 C 106.96 185.98 106.26 185.28 105.40 185.28 C 104.54 185.28 103.84 185.98 103.84 186.85 Z M 103.84 187.90 L 103.84 188.84 C 103.84 189.70 104.54 190.40 105.40 190.40 C 106.26 190.40 106.96 189.70 106.96 188.84 L 106.96 187.90 C 106.96 187.04 106.26 186.34 105.40 186.34 C 104.54 186.34 103.84 187.04 103.84 187.90 Z M 103.84 188.84 L 103.84 189.82 C 103.84 190.68 104.54 191.38 105.40 191.38 C 106.26 191.38 106.96 190.68 106.96 189.82 L 106.96 188.84 C 106.96 187.97 106.26 187.27 105.40 187.27 C 104.54 187.27 103.84 187.97 103.84 188.84 Z M 103.84 189.82 L 103.84 190.84 C 103.84 191.70 104.54 192.40 105.40 192.40 C 106.26 192.40 106.96 191.70 106.96 190.84 L 106.96 189.82 C 106.96 188.96 106.26 188.26 105.40 188.26 C 104.54 188.26 103.84 188.96 103.84 189.82 Z M 103.84 190.84 L 103.84 191.88 C 103.84 192.74 104.54 193.44 105.40 193.44 C 106.26 193.44 106.96 192.74 106.96 191.88 L 106.96 190.84 C 106.96 189.98 106.26 189.28 105.40 189.28 C 104.54 189.28 103.84 189.98 103.84 190.84 Z M 103.84 191.88 L 103.84 192.93 C 103.84 193.79 104.54 194.49 105.40 194.49 C 106.26 194.49 106.96 193.79 106.96 192.93 L 106.96 191.88 C 106.96 191.02 106.26 190.32 105.40 190.32 C 104.54 190.32 103.84 191.02 103.84 191.88 Z M 103.84 192.93 L 103.84 193.97 C 103.84 194.83 104.54 195.53 105.40 195.53 C 106.26 195.53 106.96 194.83 106.96 193.97 L 106.96 192.93 C 106.96 192.06 106.26 191.36 105.40 191.36 C 104.54 191.36 103.84 192.06 103.84 192.93 Z M 103.84 193.97 L 103.84 195.01 C 103.84 195.87 104.54 196.57 105.40 196.57 C 106.26 196.57 106.96 195.87 106.96 195.01 L 106.96 193.97 C 106.96 193.11 106.26 192.41 105.40 192.41 C 104.54 192.41 103.84 193.11 103.84 193.97 Z M 103.84 195.01 L 103.84 196.02 C 103.84 196.89 104.54 197.59 105.40 197.59 C 106.26 197.59 106.96 196.89 106.96 196.02 L 106.96 195.01 C 106.96 194.15 106.26 193.45 105.40 193.45 C 104.54 193.45 103.84 194.15 103.84 195.01 Z M 103.84 196.02 L 103.84 197.02 C 103.84 197.88 104.54 198.58 105.40 198.58 C 106.26 198.58 106.96 197.88 106.96 197.02 L 106.96 196.02 C 106.96 195.16 106.26 194.46 105.40 194.46 C 104.54 194.46 103.84 195.16 103.84 196.02 Z M 103.84 197.02 L 103.84 198.00 C 103.84 198.86 104.54 199.56 105.40 199.56 C 106.26 199.56 106.96 198.86 106.96 198.00 L 106.96 197.02 C 106.96 196.16 106.26 195.46 105.40 195.46 C 104.54 195.46 103.84 196.16 103.84 197.02 Z M 103.84 198.00 L 103.84 198.95 C 103.84 199.81 104.54 200.51 105.40 200.51 C 106.26 200.51 106.96 199.81 106.96 198.95 L 106.96 198.00 C 106.96 197.13 106.26 196.43 105.40 196.43 C 104.54 196.43 103.84 197.13 103.84 198.00 Z M 103.84 198.95 L 103.84 199.98 C 103.84 200.84 104.54 201.54 105.40 201.54 C 106.26 201.54 106.96 200.84 106.96 199.98 L 106.96 198.95 C 106.96 198.09 106.26 197.39 105.40 197.39 C 104.54 197.39 103.84 198.09 103.84 198.95 Z M 103.84 199.98 L 103.84 201.00 C 103.84 201.87 104.54 202.57 105.40 202.57 C 106.26 202.57 106.96 201.87 106.96 201.00 L 106.96 199.98 C 106.96 199.12 106.26 198.42 105.40 198.42 C 104.54 198.42 103.84 199.12 103.84 199.98 Z M 103.84 201.00 L 103.84 202.01 C 103.84 202.87 104.54 203.57 105.40 203.57 C 106.26 203.57 106.96 202.87 106.96 202.01 L 106.96 201.00 C 106.96 200.14 106.26 199.44 105.40 199.44 C 104.54 199.44 103.84 200.14 103.84 201.00 Z M 103.84 202.01 L 103.84 202.99 C 103.84 203.85 104.54 204.55 105.40 204.55 C 106.26 204.55 106.96 203.85 106.96 202.99 L 106.96 202.01 C 106.96 201.14 106.26 200.45 105.40 200.45 C 104.54 200.45 103.84 201.14 103.84 202.01 Z M 103.84 202.99 L 103.84 203.95 C 103.84 204.82 104.54 205.51 105.40 205.51 C 106.26 205.51 106.96 204.82 106.96 203.95 L 106.96 202.99 C 106.96 202.13 106.26 201.43 105.40 201.43 C 104.54 201.43 103.84 202.13 103.84 202.99 Z M 103.84 203.95 L 103.84 204.98 C 103.84 205.84 104.54 206.54 105.40 206.54 C 106.26 206.54 106.96 205.84 106.96 204.98 L 106.96 203.95 C 106.96 203.09 106.26 202.39 105.40 202.39 C 104.54 202.39 103.84 203.09 103.84 203.95 Z M 103.84 204.98 L 103.84 206.00 C 103.84 206.86 104.54 207.56 105.40 207.56 C 106.26 207.56 106.96 206.86 106.96 206.00 L 106.96 204.98 C 106.96 204.11 106.26 203.41 105.40 203.41 C 104.54 203.41 103.84 204.11 103.84 204.98 Z M 103.84 206.00 L 103.84 207.00 C 103.84 207.86 104.54 208.56 105.40 208.56 C 106.26 208.56 106.96 207.86 106.96 207.00 L 106.96 206.00 C 106.96 205.14 106.26 204.44 105.40 204.44 C 104.54 204.44 103.84 205.14 103.84 206.00 Z M 103.84 207.00 L 103.84 207.98 C 103.84 208.84 104.54 209.54 105.40 209.54 C 106.26 209.54 106.96 208.84 106.96 207.98 L 106.96 207.00 C 106.96 206.14 106.26 205.44 105.40 205.44 C 104.54 205.44 103.84 206.14 103.84 207.00 Z M 103.84 207.98 L 103.84 208.95 C 103.84 209.82 104.54 210.52 105.40 210.52 C 106.26 210.52 106.96 209.82 106.96 208.95 L 106.96 207.98 C 106.96 207.12 106.26 206.42 105.40 206.42 C 104.54 206.42 103.84 207.12 103.84 207.98 Z M 103.84 208.95 L 103.84 210.00 C 103.84 210.86 104.54 211.56 105.40 211.56 C 106.26 211.56 106.96 210.86 106.96 210.00 L 106.96 208.95 C 106.96 208.09 106.26 207.39 105.40 207.39 C 104.54 207.39 103.84 208.09 103.84 208.95 Z M 103.84 210.00 L 103.84 211.02 C 103.84 211.88 104.54 212.58 105.40 212.58 C 106.26 212.58 106.96 211.88 106.96 211.02 L 106.96 210.00 C 106.96 209.14 106.26 208.44 105.40 208.44 C 104.54 208.44 103.84 209.14 103.84 210.00 Z M 103.84 211.02 L 103.84 211.99 C 103.84 212.86 104.54 213.56 105.40 213.56 C 106.26 213.56 106.96 212.86 106.96 211.99 L 106.96 211.02 C 106.96 210.15 106.26 209.45 105.40 209.45 C 104.54 209.45 103.84 210.15 103.84 211.02 Z M 103.84 211.99 L 103.84 212.95 C 103.84 213.81 104.54 214.51 105.40 214.51 C 106.26 214.51 106.96 213.81 106.96 212.95 L 106.96 211.99 C 106.96 211.13 106.26 210.43 105.40 210.43 C 104.54 210.43 103.84 211.13 103.84 211.99 Z M 103.84 212.95 L 103.84 214.00 C 103.84 214.86 104.54 215.56 105.40 215.56 C 106.26 215.56 106.96 214.86 106.96 214.00 L 106.96 212.95 C 106.96 212.09 106.26 211.39 105.40 211.39 C 104.54 211.39 103.84 212.09 103.84 212.95 Z M 103.84 214.00 L 103.84 215.00 C 103.84 215.86 104.54 216.56 105.40 216.56 C 106.26 216.56 106.96 215.86 106.96 215.00 L 106.96 214.00 C 106.96 213.13 106.26 212.43 105.40 212.43 C 104.54 212.43 103.84 213.13 103.84 214.00 Z M 103.84 215.00 L 103.84 215.97 C 103.84 216.83 104.54 217.53 105.40 217.53 C 106.26 217.53 106.96 216.83 106.96 215.97 L 106.96 215.00 C 106.96 214.14 106.26 213.44 105.40 213.44 C 104.54 213.44 103.84 214.14 103.84 215.00 Z M 103.84 215.97 L 103.84 216.94 C 103.84 217.81 104.54 218.51 105.40 218.51 C 106.26 218.51 106.96 217.81 106.96 216.94 L 106.96 215.97 C 106.96 215.10 106.26 214.40 105.40 214.40 C 104.54 214.40 103.84 215.10 103.84 215.97 Z M 103.84 216.95 L 103.84 217.94 C 103.84 218.80 104.54 219.50 105.40 219.50 C 106.27 219.50 106.96 218.79 106.96 217.93 L 106.96 216.94 C 106.96 216.08 106.26 215.38 105.40 215.38 C 104.53 215.38 103.84 216.08 103.84 216.95 Z M 103.84 217.95 L 103.85 218.94 C 103.85 219.80 104.56 220.50 105.42 220.49 C 106.28 220.49 106.98 219.78 106.97 218.92 L 106.96 217.92 C 106.96 217.06 106.25 216.37 105.39 216.37 C 104.53 216.38 103.83 217.08 103.84 217.95 Z M 103.85 218.95 L 103.86 219.94 C 103.87 220.80 104.58 221.49 105.45 221.48 C 106.31 221.46 107.00 220.76 106.98 219.89 L 106.97 218.91 C 106.96 218.05 106.25 217.36 105.39 217.37 C 104.52 217.38 103.84 218.09 103.85 218.95 Z M 103.86 219.97 L 103.89 220.90 C 103.92 221.76 104.64 222.44 105.51 222.41 C 106.37 222.38 107.04 221.66 107.01 220.80 L 106.98 219.86 C 106.95 219.00 106.23 218.33 105.37 218.36 C 104.51 218.38 103.83 219.11 103.86 219.97 Z M 103.90 220.97 L 103.97 221.95 C 104.04 222.81 104.79 223.45 105.65 223.39 C 106.51 223.32 107.15 222.57 107.09 221.71 L 107.01 220.73 C 106.94 219.87 106.19 219.22 105.33 219.29 C 104.47 219.36 103.83 220.11 103.90 220.97 Z M 103.98 222.05 L 104.13 223.09 C 104.26 223.95 105.05 224.54 105.90 224.42 C 106.75 224.30 107.35 223.51 107.22 222.65 L 107.08 221.61 C 106.95 220.75 106.16 220.16 105.31 220.28 C 104.46 220.41 103.86 221.20 103.98 222.05 Z M 104.15 223.21 L 104.37 224.21 C 104.56 225.05 105.39 225.59 106.23 225.40 C 107.08 225.22 107.61 224.39 107.42 223.54 L 107.20 222.54 C 107.02 221.70 106.19 221.16 105.35 221.35 C 104.50 221.53 103.97 222.37 104.15 223.21 Z M 104.40 224.31 L 104.67 225.26 C 104.91 226.09 105.77 226.57 106.60 226.34 C 107.43 226.10 107.91 225.24 107.67 224.41 L 107.40 223.45 C 107.16 222.62 106.30 222.14 105.47 222.38 C 104.64 222.61 104.16 223.48 104.40 224.31 Z M 104.69 225.34 L 105.02 226.30 C 105.30 227.12 106.18 227.56 107.00 227.28 C 107.82 227.00 108.26 226.12 107.98 225.30 L 107.65 224.33 C 107.37 223.52 106.49 223.08 105.67 223.36 C 104.85 223.63 104.42 224.52 104.69 225.34 Z M 105.05 226.37 L 105.42 227.32 C 105.73 228.12 106.63 228.52 107.44 228.21 C 108.24 227.90 108.64 226.99 108.32 226.19 L 107.95 225.24 C 107.64 224.43 106.74 224.04 105.93 224.35 C 105.13 224.66 104.73 225.57 105.05 226.37 Z M 105.44 227.38 L 105.84 228.29 C 106.19 229.08 107.11 229.43 107.90 229.09 C 108.69 228.74 109.04 227.82 108.70 227.03 L 108.30 226.12 C 107.95 225.34 107.03 224.98 106.24 225.32 C 105.45 225.67 105.09 226.59 105.44 227.38 Z M 105.87 228.36 L 106.36 229.34 C 106.75 230.11 107.69 230.42 108.46 230.03 C 109.23 229.64 109.54 228.71 109.15 227.93 L 108.66 226.96 C 108.28 226.19 107.34 225.88 106.57 226.26 C 105.80 226.65 105.49 227.59 105.87 228.36 Z M 106.41 229.42 L 106.92 230.30 C 107.35 231.05 108.30 231.30 109.05 230.87 C 109.80 230.44 110.05 229.49 109.62 228.74 L 109.11 227.85 C 108.68 227.11 107.72 226.85 106.98 227.28 C 106.23 227.71 105.98 228.67 106.41 229.42 Z M 106.97 230.38 L 107.50 231.18 C 107.97 231.90 108.94 232.10 109.66 231.62 C 110.38 231.15 110.58 230.18 110.10 229.46 L 109.57 228.66 C 109.10 227.94 108.13 227.74 107.41 228.22 C 106.69 228.69 106.49 229.66 106.97 230.38 Z M 107.55 231.26 L 108.11 232.00 C 108.63 232.69 109.61 232.83 110.30 232.31 C 110.98 231.79 111.12 230.81 110.60 230.12 L 110.05 229.38 C 109.53 228.69 108.55 228.55 107.86 229.07 C 107.17 229.59 107.03 230.57 107.55 231.26 Z M 108.18 232.09 L 108.85 232.85 C 109.42 233.49 110.40 233.56 111.05 232.99 C 111.70 232.42 111.76 231.43 111.19 230.78 L 110.53 230.03 C 109.96 229.38 108.97 229.32 108.33 229.89 C 107.68 230.46 107.62 231.45 108.18 232.09 Z M 108.99 232.98 L 109.72 233.63 C 110.37 234.21 111.35 234.15 111.92 233.50 C 112.50 232.85 112.44 231.87 111.79 231.30 L 111.06 230.65 C 110.41 230.08 109.42 230.14 108.85 230.78 C 108.28 231.43 108.34 232.41 108.99 232.98 Z M 109.93 233.79 L 110.78 234.32 C 111.51 234.78 112.47 234.55 112.93 233.82 C 113.38 233.09 113.16 232.13 112.43 231.67 L 111.58 231.14 C 110.85 230.68 109.89 230.91 109.43 231.64 C 108.97 232.37 109.20 233.33 109.93 233.79 Z M 111.01 234.44 L 111.86 234.79 C 112.66 235.11 113.57 234.73 113.89 233.93 C 114.22 233.13 113.84 232.22 113.04 231.90 L 112.19 231.55 C 111.40 231.22 110.48 231.61 110.16 232.40 C 109.83 233.20 110.21 234.11 111.01 234.44 Z M 112.05 234.85 L 112.96 235.09 C 113.79 235.31 114.65 234.82 114.87 233.98 C 115.09 233.15 114.60 232.30 113.76 232.07 L 112.85 231.83 C 112.02 231.61 111.16 232.11 110.94 232.94 C 110.72 233.77 111.21 234.63 112.05 234.85 Z M 113.10 235.12 L 114.11 235.29 C 114.96 235.43 115.77 234.86 115.91 234.01 C 116.05 233.16 115.48 232.36 114.63 232.21 L 113.62 232.04 C 112.77 231.90 111.97 232.47 111.82 233.33 C 111.68 234.18 112.25 234.98 113.10 235.12 Z M 114.22 235.31 L 115.30 235.41 C 116.16 235.50 116.92 234.87 117.01 234.01 C 117.09 233.15 116.46 232.39 115.61 232.30 L 114.52 232.20 C 113.66 232.11 112.90 232.74 112.81 233.60 C 112.73 234.46 113.36 235.22 114.22 235.31 Z M 115.37 235.42 L 116.31 235.46 C 117.17 235.51 117.90 234.85 117.95 233.98 C 117.99 233.12 117.33 232.39 116.47 232.35 L 115.53 232.30 C 114.67 232.26 113.94 232.92 113.89 233.78 C 113.85 234.64 114.51 235.37 115.37 235.42 Z M 116.37 235.47 L 117.28 235.48 C 118.14 235.49 118.84 234.80 118.85 233.93 C 118.86 233.07 118.17 232.36 117.31 232.35 L 116.41 232.34 C 115.54 232.34 114.84 233.03 114.83 233.89 C 114.82 234.75 115.51 235.46 116.37 235.47 Z M 117.34 235.48 L 118.30 235.45 C 119.16 235.42 119.84 234.70 119.81 233.84 C 119.78 232.98 119.06 232.30 118.20 232.33 L 117.24 232.36 C 116.38 232.38 115.71 233.10 115.73 233.96 C 115.76 234.83 116.48 235.50 117.34 235.48 Z M 118.37 235.44 L 119.39 235.37 C 120.25 235.30 120.89 234.55 120.83 233.69 C 120.76 232.83 120.01 232.19 119.15 232.25 L 118.13 232.33 C 117.27 232.39 116.63 233.14 116.69 234.00 C 116.76 234.86 117.51 235.51 118.37 235.44 Z M 119.46 235.36 L 120.54 235.23 C 121.40 235.12 122.01 234.35 121.91 233.49 C 121.80 232.63 121.03 232.02 120.17 232.13 L 119.08 232.26 C 118.23 232.36 117.62 233.14 117.72 234.00 C 117.82 234.85 118.60 235.46 119.46 235.36 Z M 120.61 235.22 L 121.71 235.04 C 122.56 234.90 123.13 234.10 122.99 233.24 C 122.85 232.39 122.05 231.82 121.20 231.96 L 120.10 232.14 C 119.25 232.28 118.68 233.08 118.82 233.93 C 118.96 234.78 119.76 235.36 120.61 235.22 Z M 121.76 235.03 L 122.75 234.83 C 123.60 234.66 124.14 233.84 123.98 232.99 C 123.81 232.15 122.98 231.60 122.14 231.77 L 121.15 231.97 C 120.30 232.14 119.75 232.96 119.92 233.80 C 120.09 234.65 120.91 235.20 121.76 235.03 Z M 122.79 234.82 L 123.80 234.59 C 124.64 234.41 125.17 233.57 124.98 232.73 C 124.79 231.89 123.96 231.36 123.12 231.55 L 122.10 231.78 C 121.26 231.97 120.73 232.80 120.92 233.64 C 121.11 234.48 121.95 235.01 122.79 234.82 Z M 123.83 234.59 L 124.85 234.34 C 125.69 234.13 126.20 233.29 126.00 232.45 C 125.79 231.61 124.95 231.10 124.11 231.31 L 123.09 231.55 C 122.25 231.76 121.74 232.60 121.94 233.44 C 122.15 234.28 122.99 234.79 123.83 234.59 Z M 124.87 234.33 L 125.88 234.07 C 126.71 233.86 127.21 233.00 126.99 232.17 C 126.78 231.33 125.92 230.83 125.09 231.05 L 124.09 231.31 C 123.25 231.53 122.75 232.38 122.97 233.22 C 123.19 234.05 124.04 234.55 124.87 234.33 Z M 125.89 234.07 L 126.85 233.81 C 127.68 233.58 128.17 232.72 127.95 231.89 C 127.72 231.06 126.86 230.57 126.03 230.79 L 125.07 231.06 C 124.24 231.28 123.75 232.14 123.98 232.97 C 124.20 233.80 125.06 234.29 125.89 234.07 Z M 126.87 233.80 L 127.76 233.55 C 128.59 233.32 129.07 232.45 128.84 231.62 C 128.61 230.79 127.74 230.31 126.91 230.54 L 126.02 230.80 C 125.19 231.03 124.70 231.89 124.94 232.72 C 125.17 233.55 126.04 234.04 126.87 233.80 Z M 127.77 233.55 L 128.84 233.24 C 129.67 233.00 130.15 232.13 129.91 231.30 C 129.67 230.47 128.80 230.00 127.97 230.24 L 126.90 230.55 C 126.07 230.79 125.60 231.65 125.84 232.48 C 126.08 233.31 126.94 233.79 127.77 233.55 Z M 128.86 233.23 L 129.94 232.91 C 130.76 232.66 131.23 231.79 130.98 230.96 C 130.74 230.14 129.87 229.67 129.04 229.92 L 127.96 230.24 C 127.13 230.49 126.66 231.36 126.91 232.19 C 127.16 233.01 128.03 233.48 128.86 233.23 Z M 129.95 232.90 L 130.87 232.61 C 131.70 232.36 132.16 231.48 131.90 230.66 C 131.64 229.84 130.77 229.38 129.94 229.63 L 129.02 229.92 C 128.20 230.18 127.74 231.05 128.00 231.88 C 128.26 232.70 129.13 233.16 129.95 232.90 Z M 130.89 232.61 L 131.70 232.35 C 132.52 232.08 132.97 231.20 132.71 230.38 C 132.44 229.56 131.56 229.11 130.74 229.38 L 129.93 229.64 C 129.11 229.90 128.66 230.78 128.92 231.61 C 129.19 232.43 130.07 232.88 130.89 232.61 Z M 131.72 232.34 L 132.56 232.06 C 133.38 231.79 133.82 230.91 133.55 230.09 C 133.28 229.27 132.39 228.83 131.57 229.10 L 130.73 229.38 C 129.91 229.65 129.47 230.54 129.74 231.35 C 130.01 232.17 130.90 232.61 131.72 232.34 Z M 132.57 232.06 L 133.52 231.73 C 134.34 231.46 134.77 230.57 134.50 229.75 C 134.22 228.94 133.33 228.50 132.51 228.78 L 131.56 229.10 C 130.75 229.38 130.31 230.27 130.59 231.08 C 130.87 231.90 131.75 232.34 132.57 232.06 Z M 133.53 231.73 L 134.47 231.40 C 135.29 231.12 135.71 230.22 135.43 229.41 C 135.14 228.60 134.25 228.17 133.44 228.45 L 132.50 228.78 C 131.69 229.07 131.26 229.96 131.54 230.77 C 131.83 231.59 132.72 232.01 133.53 231.73 Z M 134.49 231.40 L 135.42 231.06 C 136.23 230.76 136.65 229.87 136.36 229.06 C 136.06 228.25 135.17 227.83 134.36 228.12 L 133.42 228.46 C 132.61 228.75 132.19 229.65 132.49 230.46 C 132.78 231.27 133.68 231.69 134.49 231.40 Z M 135.44 231.05 L 136.37 230.70 C 137.17 230.40 137.58 229.50 137.28 228.69 C 136.97 227.88 136.07 227.47 135.27 227.78 L 134.34 228.13 C 133.53 228.43 133.12 229.33 133.43 230.14 C 133.73 230.95 134.63 231.35 135.44 231.05 Z M 136.38 230.69 L 137.32 230.33 C 138.12 230.02 138.52 229.11 138.20 228.31 C 137.89 227.50 136.99 227.11 136.18 227.42 L 135.25 227.78 C 134.45 228.10 134.05 229.00 134.36 229.81 C 134.68 230.61 135.58 231.01 136.38 230.69 Z M 137.33 230.32 L 138.27 229.95 C 139.07 229.62 139.45 228.72 139.13 227.92 C 138.81 227.12 137.90 226.73 137.10 227.05 L 136.17 227.43 C 135.37 227.75 134.98 228.66 135.30 229.46 C 135.62 230.26 136.53 230.65 137.33 230.32 Z M 138.28 229.94 L 139.11 229.59 C 139.91 229.26 140.28 228.35 139.95 227.55 C 139.62 226.76 138.71 226.38 137.91 226.71 L 137.08 227.06 C 136.29 227.39 135.91 228.30 136.24 229.10 C 136.57 229.90 137.49 230.27 138.28 229.94 Z M 139.15 229.58 L 139.99 229.20 C 140.78 228.85 141.13 227.93 140.78 227.14 C 140.43 226.36 139.51 226.00 138.72 226.35 L 137.88 226.73 C 137.09 227.08 136.73 228.00 137.09 228.79 C 137.44 229.58 138.36 229.93 139.15 229.58 Z M 140.04 229.18 L 140.95 228.74 C 141.73 228.36 142.05 227.43 141.68 226.65 C 141.30 225.87 140.37 225.55 139.59 225.93 L 138.67 226.37 C 137.90 226.75 137.57 227.69 137.95 228.46 C 138.33 229.24 139.26 229.56 140.04 229.18 Z M 141.01 228.71 L 142.03 228.17 C 142.79 227.76 143.08 226.81 142.67 226.05 C 142.26 225.29 141.32 225.01 140.56 225.41 L 139.54 225.95 C 138.78 226.36 138.49 227.31 138.89 228.07 C 139.30 228.83 140.25 229.12 141.01 228.71 Z M 142.07 228.14 L 142.89 227.67 C 143.64 227.25 143.90 226.29 143.47 225.54 C 143.04 224.80 142.09 224.54 141.34 224.96 L 140.52 225.43 C 139.77 225.86 139.51 226.82 139.94 227.56 C 140.36 228.31 141.32 228.57 142.07 228.14 Z M 142.91 227.66 L 143.78 227.14 C 144.52 226.70 144.76 225.74 144.32 225.00 C 143.88 224.26 142.92 224.02 142.18 224.46 L 141.31 224.98 C 140.57 225.42 140.33 226.38 140.77 227.12 C 141.22 227.86 142.17 228.10 142.91 227.66 Z M 143.80 227.13 L 144.69 226.58 C 145.42 226.13 145.65 225.16 145.19 224.43 C 144.74 223.70 143.78 223.47 143.04 223.93 L 142.16 224.47 C 141.43 224.93 141.20 225.89 141.65 226.62 C 142.11 227.35 143.07 227.58 143.80 227.13 Z M 144.71 226.57 L 145.58 226.01 C 146.30 225.55 146.52 224.58 146.05 223.86 C 145.59 223.13 144.62 222.92 143.90 223.38 L 143.03 223.94 C 142.30 224.40 142.09 225.37 142.55 226.09 C 143.01 226.82 143.98 227.03 144.71 226.57 Z M 145.60 226.00 L 146.42 225.46 C 147.14 224.98 147.34 224.01 146.87 223.29 C 146.39 222.57 145.42 222.37 144.70 222.85 L 143.88 223.39 C 143.16 223.87 142.96 224.84 143.43 225.56 C 143.91 226.28 144.88 226.47 145.60 226.00 Z M 146.44 225.44 L 147.35 224.82 C 148.07 224.33 148.25 223.36 147.76 222.65 C 147.27 221.94 146.30 221.75 145.59 222.24 L 144.68 222.86 C 143.97 223.35 143.79 224.32 144.27 225.03 C 144.76 225.75 145.73 225.93 146.44 225.44 Z M 147.38 224.80 L 148.24 224.18 C 148.94 223.68 149.10 222.70 148.60 222.00 C 148.09 221.30 147.12 221.14 146.42 221.65 L 145.56 222.26 C 144.86 222.76 144.70 223.74 145.20 224.44 C 145.71 225.14 146.68 225.30 147.38 224.80 Z M 148.27 224.16 L 149.04 223.58 C 149.73 223.06 149.86 222.08 149.34 221.39 C 148.83 220.71 147.85 220.57 147.16 221.09 L 146.39 221.67 C 145.70 222.19 145.56 223.16 146.08 223.85 C 146.60 224.54 147.58 224.68 148.27 224.16 Z M 149.06 223.56 L 149.77 223.00 C 150.45 222.47 150.57 221.49 150.04 220.81 C 149.50 220.13 148.52 220.02 147.84 220.55 L 147.13 221.11 C 146.45 221.64 146.34 222.62 146.87 223.30 C 147.40 223.98 148.38 224.09 149.06 223.56 Z M 149.79 222.99 L 150.54 222.38 C 151.21 221.84 151.31 220.86 150.77 220.19 C 150.22 219.52 149.24 219.41 148.57 219.96 L 147.82 220.56 C 147.15 221.11 147.05 222.09 147.60 222.76 C 148.14 223.43 149.12 223.53 149.79 222.99 Z M 150.55 222.37 L 151.32 221.73 C 151.98 221.18 152.07 220.19 151.52 219.53 C 150.96 218.87 149.98 218.78 149.32 219.33 L 148.55 219.97 C 147.89 220.52 147.80 221.51 148.36 222.17 C 148.91 222.83 149.89 222.92 150.55 222.37 Z M 151.33 221.72 L 152.09 221.07 C 152.75 220.51 152.82 219.52 152.26 218.87 C 151.70 218.21 150.72 218.14 150.06 218.70 L 149.30 219.35 C 148.65 219.91 148.57 220.89 149.13 221.55 C 149.69 222.20 150.68 222.28 151.33 221.72 Z M 152.10 221.06 L 152.86 220.40 C 153.51 219.83 153.57 218.85 153.01 218.20 C 152.44 217.55 151.45 217.48 150.80 218.05 L 150.05 218.71 C 149.40 219.28 149.33 220.26 149.90 220.91 C 150.47 221.56 151.45 221.63 152.10 221.06 Z M 152.87 220.39 L 153.59 219.75 C 154.23 219.18 154.29 218.19 153.72 217.55 C 153.15 216.90 152.16 216.84 151.51 217.42 L 150.79 218.06 C 150.15 218.63 150.09 219.62 150.66 220.26 C 151.24 220.91 152.22 220.96 152.87 220.39 Z M 153.60 219.74 L 154.33 219.08 C 154.97 218.50 155.02 217.52 154.45 216.88 C 153.87 216.24 152.88 216.18 152.24 216.76 L 151.51 217.42 C 150.87 218.00 150.82 218.99 151.39 219.63 C 151.97 220.27 152.96 220.32 153.60 219.74 Z M 154.34 219.08 L 155.09 218.39 C 155.73 217.81 155.78 216.83 155.20 216.19 C 154.62 215.55 153.63 215.50 152.99 216.08 L 152.24 216.77 C 151.60 217.35 151.55 218.33 152.13 218.97 C 152.71 219.61 153.70 219.66 154.34 219.08 Z M 155.09 218.39 L 155.85 217.70 C 156.48 217.12 156.53 216.13 155.95 215.50 C 155.37 214.86 154.38 214.81 153.74 215.40 L 152.99 216.08 C 152.35 216.66 152.31 217.65 152.89 218.29 C 153.47 218.93 154.45 218.97 155.09 218.39 Z M 155.85 217.70 L 156.57 217.04 C 157.21 216.46 157.25 215.48 156.67 214.84 C 156.09 214.20 155.10 214.16 154.46 214.74 L 153.74 215.40 C 153.10 215.98 153.06 216.96 153.64 217.60 C 154.22 218.24 155.21 218.28 155.85 217.70 Z M 156.56 217.05 L 157.31 216.38 C 157.94 215.80 157.99 214.81 157.41 214.17 C 156.83 213.53 155.85 213.48 155.21 214.06 L 154.47 214.73 C 153.83 215.31 153.78 216.30 154.36 216.94 C 154.94 217.58 155.93 217.63 156.56 217.05 Z M 157.30 216.38 L 158.05 215.70 C 158.70 215.13 158.75 214.14 158.17 213.50 C 157.60 212.86 156.61 212.80 155.97 213.38 L 155.21 214.06 C 154.57 214.63 154.52 215.62 155.09 216.26 C 155.67 216.90 156.66 216.96 157.30 216.38 Z M 158.04 215.71 L 158.81 215.04 C 159.46 214.47 159.52 213.48 158.95 212.83 C 158.38 212.19 157.39 212.13 156.74 212.70 L 155.98 213.37 C 155.33 213.94 155.27 214.93 155.84 215.57 C 156.41 216.22 157.40 216.28 158.04 215.71 Z M 158.80 215.05 L 159.55 214.40 C 160.20 213.83 160.28 212.85 159.71 212.19 C 159.15 211.54 158.16 211.47 157.51 212.03 L 156.76 212.69 C 156.10 213.25 156.03 214.24 156.60 214.89 C 157.16 215.54 158.15 215.61 158.80 215.05 Z M 159.54 214.41 L 160.30 213.76 C 160.96 213.20 161.04 212.22 160.49 211.56 C 159.93 210.90 158.94 210.82 158.29 211.38 L 157.52 212.02 C 156.86 212.58 156.78 213.57 157.34 214.22 C 157.90 214.88 158.88 214.96 159.54 214.41 Z M 160.29 213.77 L 161.06 213.13 C 161.72 212.58 161.82 211.60 161.27 210.93 C 160.72 210.27 159.73 210.18 159.07 210.73 L 158.30 211.37 C 157.63 211.92 157.54 212.90 158.09 213.57 C 158.64 214.23 159.63 214.32 160.29 213.77 Z M 161.05 213.14 L 161.83 212.51 C 162.50 211.97 162.60 210.98 162.05 210.31 C 161.51 209.64 160.53 209.54 159.86 210.09 L 159.08 210.72 C 158.41 211.26 158.31 212.25 158.85 212.91 C 159.40 213.58 160.38 213.69 161.05 213.14 Z M 161.81 212.52 L 162.57 211.92 C 163.25 211.38 163.36 210.40 162.82 209.72 C 162.28 209.05 161.30 208.94 160.63 209.47 L 159.87 210.08 C 159.20 210.61 159.08 211.60 159.62 212.27 C 160.16 212.95 161.14 213.06 161.81 212.52 Z M 162.56 211.92 L 163.32 211.33 C 164.00 210.80 164.12 209.82 163.59 209.14 C 163.06 208.46 162.08 208.34 161.40 208.87 L 160.64 209.47 C 159.96 210.00 159.84 210.98 160.37 211.66 C 160.90 212.34 161.88 212.46 162.56 211.92 Z M 163.32 211.33 L 164.10 210.73 C 164.78 210.20 164.91 209.22 164.38 208.54 C 163.85 207.86 162.87 207.73 162.19 208.26 L 161.41 208.86 C 160.72 209.39 160.60 210.37 161.13 211.05 C 161.65 211.74 162.63 211.86 163.32 211.33 Z M 164.09 210.73 L 164.91 210.11 C 165.59 209.58 165.72 208.60 165.20 207.92 C 164.67 207.24 163.69 207.11 163.01 207.63 L 162.20 208.25 C 161.51 208.78 161.38 209.76 161.91 210.44 C 162.43 211.13 163.41 211.26 164.09 210.73 Z M 164.91 210.11 L 165.73 209.48 C 166.41 208.96 166.55 207.98 166.02 207.29 C 165.50 206.61 164.52 206.48 163.83 207.00 L 163.01 207.63 C 162.33 208.15 162.19 209.13 162.72 209.82 C 163.24 210.50 164.22 210.63 164.91 210.11 Z M 165.73 209.48 L 166.49 208.90 C 167.18 208.38 167.31 207.40 166.79 206.71 C 166.26 206.03 165.28 205.89 164.60 206.42 L 163.83 207.00 C 163.15 207.52 163.02 208.50 163.54 209.19 C 164.06 209.87 165.04 210.01 165.73 209.48 Z M 166.49 208.90 L 167.28 208.30 C 167.96 207.78 168.10 206.80 167.57 206.11 C 167.05 205.43 166.07 205.30 165.39 205.82 L 164.60 206.42 C 163.91 206.94 163.78 207.92 164.30 208.60 C 164.82 209.29 165.80 209.42 166.49 208.90 Z M 167.27 208.30 L 168.08 207.69 C 168.77 207.17 168.90 206.19 168.38 205.51 C 167.86 204.82 166.88 204.68 166.19 205.21 L 165.39 205.82 C 164.70 206.34 164.57 207.32 165.09 208.00 C 165.61 208.69 166.59 208.82 167.27 208.30 Z M 168.08 207.70 L 168.89 207.08 C 169.58 206.56 169.72 205.58 169.20 204.89 C 168.68 204.20 167.70 204.07 167.02 204.59 L 166.20 205.20 C 165.51 205.72 165.37 206.70 165.89 207.39 C 166.41 208.08 167.39 208.21 168.08 207.70 Z M 168.89 207.08 L 169.71 206.47 C 170.40 205.95 170.54 204.97 170.03 204.28 C 169.51 203.59 168.53 203.45 167.84 203.97 L 167.02 204.58 C 166.33 205.10 166.19 206.08 166.71 206.77 C 167.22 207.46 168.20 207.60 168.89 207.08 Z M 169.71 206.47 L 170.52 205.87 C 171.21 205.35 171.36 204.38 170.84 203.68 C 170.33 202.99 169.35 202.85 168.66 203.36 L 167.85 203.96 C 167.16 204.48 167.01 205.45 167.53 206.15 C 168.04 206.84 169.02 206.98 169.71 206.47 Z M 170.52 205.87 L 171.33 205.27 C 172.02 204.76 172.17 203.79 171.66 203.09 C 171.14 202.40 170.17 202.25 169.47 202.76 L 168.66 203.36 C 167.97 203.87 167.82 204.85 168.33 205.54 C 168.84 206.23 169.82 206.38 170.52 205.87 Z M 171.32 205.28 L 172.13 204.69 C 172.83 204.18 172.98 203.20 172.47 202.50 C 171.96 201.81 170.98 201.66 170.29 202.17 L 169.48 202.76 C 168.78 203.27 168.63 204.24 169.14 204.94 C 169.65 205.64 170.63 205.79 171.32 205.28 Z M 172.13 204.69 L 172.93 204.10 C 173.63 203.59 173.78 202.62 173.28 201.92 C 172.77 201.22 171.79 201.07 171.09 201.58 L 170.29 202.16 C 169.59 202.67 169.44 203.65 169.95 204.34 C 170.45 205.04 171.43 205.20 172.13 204.69 Z M 172.93 204.10 L 173.73 203.52 C 174.43 203.02 174.59 202.04 174.08 201.34 C 173.57 200.64 172.60 200.49 171.90 200.99 L 171.10 201.58 C 170.40 202.08 170.24 203.06 170.75 203.76 C 171.25 204.45 172.23 204.61 172.93 204.10 Z M 173.73 203.52 L 174.54 202.94 C 175.24 202.43 175.40 201.46 174.89 200.76 C 174.39 200.06 173.41 199.90 172.71 200.41 L 171.90 200.99 C 171.20 201.50 171.05 202.47 171.55 203.17 C 172.06 203.87 173.03 204.03 173.73 203.52 Z M 174.54 202.94 L 175.36 202.35 C 176.06 201.85 176.21 200.87 175.71 200.17 C 175.20 199.47 174.23 199.31 173.53 199.82 L 172.71 200.41 C 172.01 200.91 171.86 201.89 172.36 202.59 C 172.87 203.28 173.84 203.44 174.54 202.94 Z M 175.36 202.35 L 176.17 201.76 C 176.87 201.26 177.02 200.28 176.52 199.58 C 176.01 198.88 175.04 198.73 174.34 199.23 L 173.53 199.82 C 172.83 200.32 172.67 201.30 173.18 202.00 C 173.68 202.70 174.66 202.85 175.36 202.35 Z M 176.17 201.76 L 176.98 201.17 C 177.68 200.66 177.83 199.69 177.32 198.99 C 176.82 198.29 175.84 198.14 175.14 198.65 L 174.34 199.23 C 173.64 199.74 173.48 200.72 173.99 201.42 C 174.50 202.11 175.48 202.27 176.17 201.76 Z M 176.99 201.17 L 177.79 200.58 C 178.48 200.07 178.63 199.09 178.12 198.39 C 177.61 197.70 176.63 197.55 175.94 198.06 L 175.14 198.65 C 174.44 199.16 174.29 200.14 174.80 200.83 C 175.31 201.53 176.29 201.68 176.99 201.17 Z M 177.80 200.57 L 178.60 199.97 C 179.29 199.46 179.43 198.48 178.92 197.79 C 178.40 197.10 177.42 196.96 176.73 197.47 L 175.93 198.07 C 175.24 198.58 175.10 199.56 175.61 200.25 C 176.13 200.94 177.10 201.09 177.80 200.57 Z M 178.61 199.97 L 179.41 199.36 C 180.10 198.84 180.23 197.86 179.71 197.17 C 179.19 196.48 178.21 196.35 177.53 196.87 L 176.72 197.48 C 176.03 198.00 175.90 198.98 176.42 199.66 C 176.94 200.35 177.92 200.49 178.61 199.97 Z M 179.42 199.35 L 180.22 198.74 C 180.90 198.22 181.03 197.24 180.51 196.55 C 179.98 195.87 179.00 195.74 178.32 196.26 L 177.52 196.87 C 176.84 197.40 176.71 198.38 177.23 199.06 C 177.75 199.75 178.73 199.88 179.42 199.35 Z M 180.22 198.74 L 181.01 198.12 C 181.70 197.60 181.82 196.62 181.29 195.93 C 180.76 195.25 179.78 195.13 179.10 195.66 L 178.31 196.27 C 177.63 196.80 177.51 197.78 178.03 198.46 C 178.56 199.14 179.54 199.26 180.22 198.74 Z M 181.02 198.12 L 181.80 197.51 C 182.48 196.98 182.60 196.00 182.07 195.32 C 181.54 194.64 180.56 194.52 179.88 195.05 L 179.10 195.66 C 178.42 196.19 178.30 197.17 178.83 197.85 C 179.36 198.53 180.34 198.65 181.02 198.12 Z M 181.80 197.51 L 182.59 196.89 C 183.27 196.36 183.39 195.38 182.85 194.70 C 182.32 194.02 181.34 193.90 180.66 194.44 L 179.88 195.05 C 179.20 195.58 179.08 196.56 179.61 197.24 C 180.14 197.92 181.13 198.04 181.80 197.51 Z M 182.59 196.89 L 183.41 196.25 C 184.09 195.71 184.21 194.73 183.67 194.05 C 183.14 193.38 182.16 193.26 181.48 193.79 L 180.66 194.44 C 179.98 194.97 179.87 195.95 180.40 196.63 C 180.93 197.31 181.91 197.42 182.59 196.89 Z M 183.41 196.24 L 184.22 195.61 C 184.89 195.07 185.01 194.09 184.47 193.42 C 183.94 192.74 182.96 192.62 182.28 193.16 L 181.48 193.79 C 180.80 194.33 180.69 195.31 181.22 195.99 C 181.75 196.66 182.74 196.78 183.41 196.24 Z M 184.22 195.61 L 185.00 194.99 C 185.68 194.45 185.79 193.47 185.25 192.79 C 184.72 192.12 183.74 192.00 183.06 192.54 L 182.28 193.16 C 181.60 193.70 181.49 194.68 182.03 195.35 C 182.56 196.03 183.54 196.14 184.22 195.61 Z M 185.01 194.98 L 185.76 194.38 C 186.43 193.84 186.54 192.86 186.01 192.19 C 185.47 191.51 184.49 191.40 183.81 191.94 L 183.06 192.54 C 182.38 193.08 182.27 194.06 182.81 194.74 C 183.35 195.41 184.33 195.52 185.01 194.98 Z M 185.76 194.38 L 186.53 193.76 C 187.20 193.22 187.31 192.24 186.77 191.57 C 186.23 190.89 185.24 190.79 184.57 191.33 L 183.81 191.94 C 183.14 192.48 183.03 193.47 183.57 194.14 C 184.11 194.81 185.09 194.92 185.76 194.38 Z M 186.54 193.75 L 187.33 193.11 C 188.00 192.56 188.10 191.58 187.56 190.91 C 187.01 190.24 186.03 190.14 185.36 190.68 L 184.56 191.33 C 183.90 191.88 183.80 192.86 184.34 193.53 C 184.88 194.20 185.87 194.30 186.54 193.75 Z M 187.34 193.10 L 188.11 192.46 C 188.77 191.92 188.87 190.93 188.32 190.27 C 187.77 189.60 186.78 189.51 186.12 190.06 L 185.35 190.69 C 184.69 191.24 184.60 192.23 185.15 192.89 C 185.69 193.55 186.68 193.65 187.34 193.10 Z M 188.12 192.45 L 188.87 191.83 C 189.52 191.27 189.61 190.28 189.05 189.63 C 188.49 188.97 187.51 188.88 186.85 189.44 L 186.11 190.07 C 185.45 190.63 185.36 191.61 185.92 192.27 C 186.48 192.93 187.46 193.01 188.12 192.45 Z M 188.88 191.81 L 189.62 191.17 C 190.27 190.61 190.35 189.62 189.78 188.97 C 189.22 188.32 188.23 188.25 187.58 188.81 L 186.84 189.45 C 186.18 190.02 186.11 191.00 186.68 191.65 C 187.24 192.31 188.23 192.38 188.88 191.81 Z M 189.64 191.16 L 190.39 190.49 C 191.04 189.92 191.10 188.93 190.52 188.29 C 189.95 187.64 188.97 187.58 188.32 188.15 L 187.57 188.82 C 186.92 189.39 186.86 190.38 187.43 191.03 C 188.00 191.67 188.99 191.73 189.64 191.16 Z M 190.40 190.48 L 191.15 189.81 C 191.79 189.23 191.84 188.24 191.26 187.60 C 190.69 186.96 189.70 186.91 189.06 187.49 L 188.31 188.16 C 187.67 188.74 187.62 189.73 188.20 190.37 C 188.77 191.01 189.76 191.06 190.40 190.48 Z M 191.16 189.80 L 191.89 189.12 C 192.53 188.54 192.58 187.56 191.99 186.92 C 191.41 186.28 190.42 186.24 189.79 186.82 L 189.05 187.49 C 188.41 188.08 188.37 189.06 188.95 189.70 C 189.53 190.34 190.52 190.38 191.16 189.80 Z M 191.90 189.12 L 192.63 188.45 C 193.26 187.86 193.30 186.87 192.72 186.24 C 192.13 185.61 191.15 185.57 190.51 186.15 L 189.78 186.83 C 189.15 187.41 189.11 188.40 189.69 189.03 C 190.28 189.67 191.27 189.70 191.90 189.12 Z M 192.63 188.44 L 193.39 187.74 C 194.02 187.16 194.05 186.17 193.46 185.54 C 192.88 184.91 191.89 184.87 191.26 185.46 L 190.51 186.16 C 189.88 186.74 189.84 187.73 190.43 188.36 C 191.02 188.99 192.00 189.03 192.63 188.44 Z M 193.39 187.74 L 194.12 187.05 C 194.75 186.46 194.78 185.47 194.19 184.85 C 193.60 184.22 192.61 184.19 191.98 184.78 L 191.25 185.46 C 190.62 186.05 190.59 187.04 191.18 187.67 C 191.78 188.30 192.76 188.33 193.39 187.74 Z M 194.13 187.05 L 194.84 186.37 C 195.46 185.77 195.48 184.79 194.89 184.16 C 194.29 183.54 193.31 183.51 192.68 184.11 L 191.97 184.79 C 191.35 185.38 191.32 186.37 191.92 186.99 C 192.51 187.62 193.50 187.64 194.13 187.05 Z M 194.84 186.36 L 195.56 185.67 C 196.18 185.07 196.20 184.08 195.60 183.46 C 195.00 182.84 194.01 182.82 193.39 183.42 L 192.67 184.12 C 192.05 184.72 192.04 185.71 192.64 186.33 C 193.24 186.95 194.23 186.96 194.84 186.36 Z M 195.57 185.66 L 196.29 184.95 C 196.91 184.35 196.92 183.36 196.32 182.74 C 195.71 182.13 194.72 182.12 194.11 182.72 L 193.38 183.43 C 192.77 184.03 192.76 185.02 193.36 185.64 C 193.96 186.25 194.95 186.26 195.57 185.66 Z M 196.29 184.95 L 197.01 184.25 C 197.62 183.65 197.63 182.66 197.03 182.04 C 196.43 181.43 195.44 181.42 194.82 182.02 L 194.11 182.72 C 193.49 183.32 193.48 184.31 194.08 184.93 C 194.69 185.54 195.68 185.55 196.29 184.95 Z M 197.00 184.26 L 197.70 183.59 C 198.32 182.99 198.34 182.00 197.74 181.38 C 197.14 180.76 196.16 180.74 195.53 181.34 L 194.83 182.01 C 194.21 182.61 194.19 183.60 194.79 184.22 C 195.39 184.84 196.38 184.86 197.00 184.26 Z M 197.68 183.60 L 198.35 182.98 C 198.98 182.39 199.02 181.40 198.43 180.77 C 197.84 180.14 196.85 180.11 196.22 180.69 L 195.55 181.32 C 194.92 181.91 194.89 182.90 195.47 183.53 C 196.06 184.16 197.05 184.19 197.68 183.60 Z M 198.33 183.00 L 199.04 182.36 C 199.68 181.78 199.73 180.80 199.15 180.16 C 198.57 179.52 197.59 179.46 196.95 180.04 L 196.24 180.68 C 195.60 181.25 195.55 182.24 196.13 182.88 C 196.70 183.52 197.69 183.57 198.33 183.00 Z M 199.02 182.38 L 199.80 181.70 C 200.45 181.13 200.52 180.15 199.95 179.50 C 199.38 178.85 198.40 178.78 197.75 179.34 L 196.97 180.02 C 196.31 180.59 196.25 181.58 196.81 182.23 C 197.38 182.88 198.37 182.94 199.02 182.38 Z M 199.78 181.71 L 200.59 181.03 C 201.24 180.47 201.32 179.48 200.77 178.83 C 200.21 178.17 199.22 178.09 198.57 178.65 L 197.76 179.33 C 197.10 179.89 197.02 180.87 197.58 181.53 C 198.14 182.19 199.13 182.27 199.78 181.71 Z M 200.58 181.04 L 201.29 180.44 C 201.95 179.89 202.04 178.91 201.49 178.24 C 200.93 177.58 199.95 177.49 199.29 178.05 L 198.58 178.64 C 197.91 179.19 197.82 180.18 198.38 180.84 C 198.93 181.50 199.91 181.59 200.58 181.04 Z M 201.28 180.45 L 202.04 179.82 C 202.71 179.28 202.81 178.29 202.26 177.63 C 201.71 176.96 200.73 176.86 200.06 177.41 L 199.30 178.04 C 198.63 178.58 198.53 179.57 199.08 180.23 C 199.63 180.90 200.61 181.00 201.28 180.45 Z M 202.03 179.83 L 202.84 179.19 C 203.51 178.65 203.62 177.66 203.08 176.99 C 202.54 176.32 201.55 176.21 200.88 176.75 L 200.08 177.40 C 199.40 177.94 199.30 178.92 199.84 179.59 C 200.38 180.27 201.36 180.37 202.03 179.83 Z M 202.82 179.20 L 203.65 178.55 C 204.33 178.01 204.45 177.03 203.92 176.36 C 203.38 175.68 202.40 175.56 201.72 176.09 L 200.90 176.74 C 200.22 177.27 200.10 178.25 200.63 178.93 C 201.16 179.61 202.14 179.73 202.82 179.20 Z M 203.63 178.56 L 204.47 177.92 C 205.15 177.40 205.29 176.42 204.76 175.74 C 204.24 175.05 203.26 174.92 202.58 175.44 L 201.74 176.08 C 201.05 176.60 200.92 177.58 201.45 178.27 C 201.97 178.95 202.95 179.08 203.63 178.56 Z M 204.45 177.94 L 205.28 177.32 C 205.98 176.81 206.13 175.83 205.62 175.14 C 205.10 174.45 204.13 174.30 203.43 174.81 L 202.60 175.42 C 201.90 175.94 201.75 176.91 202.27 177.61 C 202.78 178.30 203.75 178.45 204.45 177.94 Z M 205.26 177.34 L 206.09 176.75 C 206.80 176.25 206.96 175.27 206.46 174.57 C 205.96 173.87 204.99 173.70 204.28 174.20 L 203.45 174.79 C 202.75 175.29 202.59 176.27 203.09 176.97 C 203.59 177.67 204.56 177.84 205.26 177.34 Z M 206.07 176.76 L 206.89 176.20 C 207.60 175.71 207.79 174.74 207.30 174.03 C 206.81 173.32 205.84 173.14 205.13 173.62 L 204.30 174.19 C 203.59 174.68 203.41 175.65 203.90 176.36 C 204.39 177.07 205.36 177.25 206.07 176.76 Z M 206.87 176.21 L 207.69 175.67 C 208.41 175.20 208.60 174.23 208.13 173.51 C 207.65 172.79 206.68 172.59 205.96 173.07 L 205.15 173.61 C 204.43 174.09 204.23 175.06 204.71 175.77 C 205.19 176.49 206.15 176.69 206.87 176.21 Z M 207.67 175.69 L 208.48 175.17 C 209.20 174.70 209.41 173.74 208.95 173.01 C 208.48 172.29 207.52 172.07 206.79 172.54 L 205.98 173.06 C 205.26 173.52 205.04 174.49 205.51 175.21 C 205.97 175.94 206.94 176.15 207.67 175.69 Z M 208.45 175.18 L 209.32 174.65 C 210.05 174.20 210.28 173.24 209.83 172.50 C 209.37 171.77 208.41 171.54 207.68 171.99 L 206.82 172.52 C 206.08 172.98 205.85 173.94 206.31 174.67 C 206.76 175.41 207.72 175.63 208.45 175.18 Z M 209.29 174.66 L 210.15 174.15 C 210.89 173.71 211.14 172.76 210.70 172.01 C 210.26 171.27 209.30 171.03 208.56 171.47 L 207.70 171.98 C 206.96 172.42 206.72 173.38 207.16 174.12 C 207.60 174.86 208.55 175.10 209.29 174.66 Z M 210.13 174.17 L 210.99 173.67 C 211.74 173.24 212.00 172.29 211.57 171.54 C 211.14 170.79 210.19 170.53 209.44 170.96 L 208.58 171.46 C 207.83 171.89 207.57 172.84 208.00 173.59 C 208.43 174.34 209.39 174.59 210.13 174.17 Z M 210.98 173.68 L 211.84 173.20 C 212.60 172.78 212.87 171.83 212.45 171.08 C 212.03 170.32 211.08 170.05 210.33 170.47 L 209.46 170.95 C 208.70 171.37 208.43 172.32 208.85 173.08 C 209.27 173.83 210.22 174.10 210.98 173.68 Z M 211.83 173.21 L 212.72 172.72 C 213.48 172.31 213.76 171.36 213.35 170.61 C 212.94 169.85 212.00 169.57 211.24 169.98 L 210.34 170.46 C 209.58 170.87 209.30 171.82 209.71 172.58 C 210.12 173.34 211.07 173.62 211.83 173.21 Z M 212.71 172.73 L 213.64 172.23 C 214.41 171.83 214.69 170.88 214.29 170.12 C 213.88 169.36 212.94 169.07 212.18 169.48 L 211.25 169.97 C 210.49 170.38 210.20 171.32 210.60 172.08 C 211.01 172.84 211.95 173.13 212.71 172.73 Z M 213.64 172.23 L 214.56 171.75 C 215.32 171.35 215.61 170.40 215.21 169.64 C 214.80 168.88 213.86 168.59 213.09 168.99 L 212.18 169.48 C 211.42 169.88 211.13 170.82 211.53 171.59 C 211.94 172.35 212.88 172.64 213.64 172.23 Z M 214.56 171.75 L 215.44 171.28 C 216.20 170.87 216.48 169.93 216.08 169.17 C 215.67 168.41 214.72 168.12 213.96 168.53 L 213.09 168.99 C 212.33 169.40 212.04 170.35 212.45 171.11 C 212.86 171.87 213.80 172.15 214.56 171.75 Z M 215.45 171.27 L 216.26 170.83 C 217.01 170.41 217.29 169.46 216.87 168.71 C 216.46 167.95 215.51 167.67 214.75 168.09 L 213.95 168.53 C 213.19 168.95 212.92 169.90 213.33 170.66 C 213.75 171.41 214.70 171.69 215.45 171.27 Z M 216.29 170.81 L 217.24 170.26 C 217.98 169.82 218.23 168.87 217.80 168.12 C 217.36 167.38 216.41 167.13 215.66 167.56 L 214.72 168.11 C 213.98 168.54 213.72 169.50 214.16 170.24 C 214.59 170.99 215.55 171.24 216.29 170.81 Z M 217.28 170.23 L 218.13 169.70 C 218.86 169.24 219.08 168.28 218.63 167.55 C 218.17 166.82 217.21 166.60 216.48 167.05 L 215.62 167.58 C 214.89 168.04 214.67 169.00 215.13 169.73 C 215.58 170.47 216.55 170.69 217.28 170.23 Z M 218.16 169.68 L 218.93 169.18 C 219.65 168.70 219.85 167.74 219.38 167.02 C 218.91 166.29 217.94 166.09 217.22 166.57 L 216.45 167.07 C 215.73 167.54 215.52 168.51 216.00 169.23 C 216.47 169.95 217.44 170.15 218.16 169.68 Z M 218.94 169.17 L 219.22 168.98 C 219.94 168.50 220.13 167.53 219.66 166.82 C 219.18 166.10 218.21 165.90 217.49 166.38 L 217.21 166.57 C 216.49 167.05 216.30 168.02 216.77 168.74 C 217.25 169.45 218.22 169.65 218.94 169.17 Z"
      fill="black"
      fill-rule="nonzero" /></svg>