<svg xmlns="http://www.w3.org/2000/svg" width="300" height="300" viewBox="0 0 300 300">
<path d="M 72.97 189.86 L 73.26 188.91 C 73.52 188.09 73.06 187.21 72.24 186.95 C 71.42 186.69 70.54 187.15 70.28 187.98 L 69.99 188.93 C 69.73 189.75 70.19 190.62 71.01 190.88 C 71.83 191.14 72.71 190.68 72.97 189.86 Z M 73.25 188.95 L 73.57 188.01 C 73.86 187.20 73.43 186.31 72.61 186.03 C 71.80 185.74 70.91 186.17 70.62 186.99 L 70.30 187.93 C 70.02 188.75 70.45 189.63 71.26 189.92 C 72.08 190.20 72.97 189.77 73.25 188.95 Z M 73.54 188.10 L 73.92 187.17 C 74.26 186.38 73.88 185.46 73.08 185.13 C 72.28 184.80 71.37 185.18 71.04 185.98 L 70.66 186.90 C 70.33 187.70 70.71 188.61 71.50 188.94 C 72.30 189.27 73.21 188.89 73.54 188.10 Z M 73.87 187.30 L 74.33 186.41 C 74.73 185.65 74.43 184.71 73.66 184.31 C 72.90 183.91 71.96 184.21 71.56 184.97 L 71.10 185.86 C 70.70 186.62 71.00 187.56 71.76 187.96 C 72.53 188.36 73.47 188.06 73.87 187.30 Z M 74.26 186.53 L 74.79 185.69 C 75.25 184.96 75.04 184.00 74.31 183.54 C 73.58 183.08 72.62 183.29 72.16 184.02 L 71.62 184.86 C 71.16 185.58 71.38 186.55 72.11 187.01 C 72.83 187.47 73.80 187.26 74.26 186.53 Z M 74.75 185.76 L 75.33 184.94 C 75.83 184.24 75.66 183.27 74.96 182.77 C 74.26 182.27 73.28 182.43 72.78 183.13 L 72.20 183.95 C 71.70 184.65 71.87 185.63 72.57 186.13 C 73.27 186.63 74.24 186.46 74.75 185.76 Z M 75.31 184.97 L 75.91 184.16 C 76.43 183.47 76.29 182.49 75.59 181.98 C 74.90 181.46 73.93 181.60 73.41 182.29 L 72.81 183.10 C 72.29 183.79 72.43 184.77 73.12 185.29 C 73.81 185.81 74.79 185.66 75.31 184.97 Z M 75.92 184.16 L 76.50 183.36 C 77.02 182.67 76.87 181.69 76.18 181.18 C 75.49 180.67 74.51 180.81 73.99 181.50 L 73.41 182.30 C 72.89 182.99 73.04 183.97 73.73 184.48 C 74.42 185.00 75.40 184.85 75.92 184.16 Z M 76.51 183.35 L 77.09 182.55 C 77.60 181.85 77.44 180.88 76.74 180.37 C 76.04 179.87 75.07 180.02 74.56 180.72 L 73.98 181.52 C 73.48 182.22 73.64 183.19 74.33 183.70 C 75.03 184.20 76.01 184.05 76.51 183.35 Z M 77.09 182.55 L 77.67 181.74 C 78.18 181.05 78.02 180.07 77.32 179.56 C 76.62 179.06 75.65 179.22 75.14 179.92 L 74.56 180.72 C 74.05 181.42 74.21 182.40 74.91 182.90 C 75.61 183.41 76.59 183.25 77.09 182.55 Z M 77.67 181.76 L 78.27 180.93 C 78.78 180.24 78.63 179.26 77.94 178.75 C 77.24 178.24 76.27 178.39 75.76 179.08 L 75.15 179.91 C 74.64 180.60 74.79 181.58 75.48 182.09 C 76.18 182.60 77.15 182.45 77.67 181.76 Z M 78.26 180.95 L 78.79 180.25 C 79.31 179.56 79.18 178.58 78.49 178.06 C 77.80 177.54 76.82 177.67 76.30 178.36 L 75.77 179.06 C 75.25 179.75 75.38 180.73 76.07 181.25 C 76.76 181.77 77.74 181.64 78.26 180.95 Z M 78.77 180.27 L 79.31 179.58 C 79.84 178.90 79.73 177.92 79.05 177.39 C 78.37 176.86 77.39 176.97 76.85 177.65 L 76.32 178.34 C 75.78 179.02 75.90 180.00 76.58 180.53 C 77.26 181.06 78.24 180.95 78.77 180.27 Z M 79.30 179.60 L 79.90 178.86 C 80.44 178.19 80.33 177.20 79.66 176.66 C 78.99 176.12 78.01 176.22 77.47 176.89 L 76.87 177.63 C 76.33 178.31 76.43 179.29 77.10 179.83 C 77.77 180.37 78.76 180.27 79.30 179.60 Z M 79.88 178.87 L 80.56 178.06 C 81.11 177.40 81.02 176.41 80.35 175.86 C 79.69 175.31 78.71 175.40 78.16 176.07 L 77.48 176.88 C 76.93 177.54 77.02 178.53 77.68 179.08 C 78.35 179.63 79.33 179.54 79.88 178.87 Z M 80.55 178.07 L 81.32 177.17 C 81.87 176.51 81.80 175.53 81.14 174.97 C 80.48 174.41 79.50 174.49 78.94 175.15 L 78.17 176.05 C 77.61 176.71 77.69 177.69 78.35 178.25 C 79.00 178.81 79.99 178.73 80.55 178.07 Z M 81.31 177.18 L 81.98 176.40 C 82.55 175.75 82.47 174.76 81.82 174.20 C 81.17 173.63 80.18 173.71 79.62 174.36 L 78.95 175.14 C 78.38 175.79 78.45 176.77 79.11 177.34 C 79.76 177.90 80.74 177.83 81.31 177.18 Z M 81.98 176.41 L 82.64 175.64 C 83.21 174.99 83.15 174.01 82.50 173.44 C 81.85 172.87 80.86 172.94 80.30 173.59 L 79.63 174.35 C 79.06 175.00 79.12 175.99 79.77 176.55 C 80.42 177.12 81.41 177.06 81.98 176.41 Z M 82.64 175.65 L 83.34 174.86 C 83.91 174.21 83.85 173.23 83.20 172.66 C 82.55 172.09 81.57 172.15 81.00 172.79 L 80.30 173.58 C 79.73 174.23 79.79 175.21 80.44 175.78 C 81.08 176.36 82.07 176.29 82.64 175.65 Z M 83.33 174.87 L 84.03 174.08 C 84.61 173.43 84.55 172.45 83.91 171.87 C 83.26 171.30 82.28 171.36 81.70 172.00 L 81.00 172.79 C 80.43 173.43 80.48 174.42 81.13 174.99 C 81.77 175.57 82.76 175.51 83.33 174.87 Z M 84.03 174.08 L 84.72 173.31 C 85.30 172.67 85.25 171.68 84.60 171.11 C 83.96 170.53 82.98 170.58 82.40 171.22 L 81.71 171.99 C 81.13 172.64 81.18 173.62 81.83 174.20 C 82.47 174.77 83.45 174.72 84.03 174.08 Z M 84.72 173.31 L 85.38 172.58 C 85.96 171.95 85.91 170.96 85.27 170.38 C 84.63 169.80 83.65 169.85 83.07 170.49 L 82.40 171.22 C 81.83 171.86 81.87 172.84 82.51 173.42 C 83.15 174.00 84.14 173.95 84.72 173.31 Z M 85.38 172.59 L 85.99 171.92 C 86.57 171.28 86.53 170.30 85.89 169.71 C 85.26 169.13 84.27 169.18 83.69 169.81 L 83.07 170.48 C 82.49 171.12 82.53 172.10 83.17 172.69 C 83.81 173.27 84.79 173.23 85.38 172.59 Z M 85.98 171.93 L 86.82 171.03 C 87.41 170.39 87.37 169.41 86.74 168.82 C 86.11 168.23 85.12 168.27 84.54 168.90 L 83.70 169.80 C 83.11 170.43 83.14 171.42 83.77 172.01 C 84.40 172.60 85.39 172.56 85.98 171.93 Z M 86.81 171.04 L 87.56 170.25 C 88.15 169.63 88.12 168.64 87.50 168.05 C 86.88 167.45 85.89 167.48 85.29 168.10 L 84.55 168.89 C 83.95 169.51 83.98 170.50 84.60 171.09 C 85.23 171.69 86.22 171.66 86.81 171.04 Z M 87.55 170.26 L 88.18 169.61 C 88.77 168.99 88.76 168.00 88.14 167.40 C 87.51 166.80 86.53 166.82 85.93 167.44 L 85.30 168.09 C 84.70 168.72 84.72 169.70 85.34 170.30 C 85.96 170.90 86.95 170.88 87.55 170.26 Z M 88.18 169.61 L 88.74 169.03 C 89.33 168.40 89.31 167.42 88.69 166.82 C 88.07 166.22 87.08 166.24 86.48 166.86 L 85.93 167.45 C 85.33 168.07 85.35 169.06 85.97 169.65 C 86.59 170.25 87.58 170.23 88.18 169.61 Z M 88.75 169.01 L 89.27 168.46 C 89.86 167.83 89.82 166.84 89.20 166.25 C 88.57 165.66 87.58 165.70 86.99 166.33 L 86.47 166.88 C 85.88 167.51 85.91 168.50 86.54 169.08 C 87.17 169.67 88.16 169.64 88.75 169.01 Z M 89.28 168.44 L 89.83 167.84 C 90.41 167.21 90.36 166.22 89.72 165.64 C 89.09 165.06 88.10 165.10 87.52 165.74 L 86.97 166.34 C 86.39 166.98 86.44 167.97 87.08 168.55 C 87.72 169.13 88.70 169.08 89.28 168.44 Z M 89.84 167.83 L 90.48 167.11 C 91.05 166.47 91.00 165.48 90.35 164.91 C 89.71 164.34 88.72 164.39 88.15 165.04 L 87.51 165.75 C 86.94 166.40 86.99 167.38 87.64 167.96 C 88.28 168.53 89.27 168.47 89.84 167.83 Z M 90.48 167.11 L 91.27 166.21 C 91.84 165.57 91.78 164.58 91.13 164.01 C 90.49 163.44 89.50 163.50 88.93 164.15 L 88.14 165.04 C 87.57 165.69 87.63 166.68 88.28 167.25 C 88.93 167.82 89.91 167.75 90.48 167.11 Z M 91.27 166.21 L 92.05 165.33 C 92.61 164.68 92.55 163.70 91.90 163.13 C 91.25 162.56 90.27 162.62 89.70 163.27 L 88.93 164.15 C 88.36 164.80 88.42 165.79 89.07 166.36 C 89.72 166.92 90.70 166.86 91.27 166.21 Z M 92.05 165.33 L 92.67 164.62 C 93.24 163.97 93.17 162.99 92.53 162.42 C 91.88 161.85 90.89 161.91 90.32 162.56 L 89.70 163.27 C 89.13 163.92 89.20 164.91 89.84 165.48 C 90.49 166.04 91.48 165.98 92.05 165.33 Z M 92.67 164.62 L 93.34 163.86 C 93.91 163.21 93.84 162.22 93.20 161.65 C 92.55 161.09 91.56 161.15 90.99 161.80 L 90.32 162.56 C 89.75 163.21 89.82 164.20 90.47 164.77 C 91.12 165.33 92.10 165.27 92.67 164.62 Z M 93.34 163.86 L 94.04 163.06 C 94.61 162.41 94.54 161.43 93.89 160.86 C 93.24 160.29 92.26 160.35 91.69 161.00 L 90.99 161.80 C 90.42 162.45 90.49 163.43 91.14 164.00 C 91.79 164.57 92.77 164.51 93.34 163.86 Z M 94.04 163.06 L 94.74 162.26 C 95.31 161.61 95.25 160.62 94.60 160.05 C 93.95 159.49 92.96 159.55 92.40 160.20 L 91.69 161.00 C 91.12 161.65 91.19 162.64 91.83 163.21 C 92.48 163.77 93.47 163.71 94.04 163.06 Z M 94.74 162.26 L 95.44 161.47 C 96.01 160.82 95.94 159.83 95.29 159.26 C 94.65 158.69 93.66 158.76 93.09 159.41 L 92.40 160.20 C 91.83 160.85 91.89 161.83 92.54 162.40 C 93.19 162.97 94.17 162.91 94.74 162.26 Z M 95.44 161.47 L 96.10 160.71 C 96.67 160.06 96.61 159.08 95.96 158.51 C 95.31 157.94 94.33 158.00 93.76 158.65 L 93.09 159.41 C 92.52 160.05 92.59 161.04 93.23 161.61 C 93.88 162.18 94.87 162.11 95.44 161.47 Z M 96.10 160.71 L 96.72 160.01 C 97.29 159.36 97.22 158.38 96.58 157.81 C 95.93 157.24 94.94 157.30 94.37 157.95 L 93.76 158.65 C 93.19 159.30 93.25 160.28 93.90 160.85 C 94.54 161.42 95.53 161.36 96.10 160.71 Z M 96.72 160.01 L 97.56 159.06 C 98.13 158.41 98.06 157.43 97.42 156.86 C 96.77 156.29 95.78 156.35 95.21 156.99 L 94.37 157.95 C 93.80 158.59 93.87 159.58 94.51 160.15 C 95.16 160.72 96.15 160.66 96.72 160.01 Z M 97.56 159.06 L 98.30 158.21 C 98.87 157.57 98.81 156.58 98.17 156.01 C 97.52 155.44 96.53 155.50 95.96 156.15 L 95.21 156.99 C 94.64 157.64 94.71 158.63 95.35 159.20 C 96.00 159.77 96.98 159.71 97.56 159.06 Z M 98.30 158.21 L 98.92 157.51 C 99.49 156.87 99.42 155.88 98.78 155.31 C 98.13 154.74 97.14 154.80 96.57 155.45 L 95.96 156.15 C 95.39 156.80 95.45 157.78 96.10 158.35 C 96.75 158.92 97.73 158.86 98.30 158.21 Z M 98.92 157.51 L 99.45 156.90 C 100.02 156.25 99.95 155.26 99.30 154.70 C 98.64 154.13 97.66 154.20 97.09 154.85 L 96.57 155.46 C 96.00 156.11 96.07 157.10 96.72 157.66 C 97.37 158.23 98.36 158.16 98.92 157.51 Z M 99.46 156.89 L 100.01 156.24 C 100.57 155.58 100.49 154.59 99.83 154.04 C 99.17 153.48 98.19 153.56 97.63 154.22 L 97.08 154.87 C 96.52 155.53 96.61 156.51 97.26 157.07 C 97.92 157.63 98.91 157.54 99.46 156.89 Z M 100.03 156.22 L 100.67 155.44 C 101.22 154.78 101.12 153.79 100.46 153.24 C 99.79 152.69 98.81 152.79 98.26 153.46 L 97.62 154.23 C 97.07 154.90 97.16 155.88 97.83 156.43 C 98.50 156.98 99.48 156.89 100.03 156.22 Z M 100.68 155.43 L 101.30 154.66 C 101.85 153.99 101.74 153.00 101.07 152.46 C 100.40 151.92 99.42 152.02 98.88 152.69 L 98.25 153.47 C 97.71 154.14 97.81 155.12 98.48 155.66 C 99.15 156.20 100.14 156.10 100.68 155.43 Z M 101.31 154.65 L 101.92 153.90 C 102.46 153.23 102.35 152.24 101.68 151.70 C 101.01 151.16 100.03 151.27 99.49 151.94 L 98.88 152.69 C 98.33 153.36 98.44 154.35 99.11 154.89 C 99.78 155.43 100.76 155.32 101.31 154.65 Z M 101.91 153.90 L 102.49 153.20 C 103.03 152.53 102.93 151.54 102.26 151.00 C 101.59 150.46 100.60 150.56 100.06 151.23 L 99.49 151.93 C 98.95 152.60 99.05 153.59 99.72 154.13 C 100.39 154.67 101.37 154.57 101.91 153.90 Z M 102.49 153.19 L 103.09 152.44 C 103.63 151.77 103.53 150.79 102.86 150.25 C 102.19 149.71 101.20 149.81 100.66 150.48 L 100.06 151.23 C 99.52 151.90 99.62 152.89 100.29 153.43 C 100.96 153.97 101.95 153.86 102.49 153.19 Z M 103.10 152.44 L 103.77 151.59 C 104.31 150.92 104.19 149.94 103.52 149.40 C 102.85 148.86 101.86 148.97 101.33 149.65 L 100.66 150.49 C 100.12 151.17 100.23 152.15 100.91 152.68 C 101.58 153.22 102.56 153.11 103.10 152.44 Z M 103.78 151.58 L 104.39 150.80 C 104.92 150.12 104.80 149.14 104.12 148.61 C 103.44 148.08 102.46 148.20 101.93 148.88 L 101.32 149.66 C 100.79 150.34 100.91 151.32 101.59 151.85 C 102.26 152.38 103.25 152.26 103.78 151.58 Z M 104.40 150.79 L 104.98 150.04 C 105.50 149.36 105.38 148.38 104.69 147.85 C 104.01 147.32 103.03 147.45 102.50 148.13 L 101.93 148.88 C 101.40 149.57 101.53 150.55 102.21 151.07 C 102.89 151.60 103.87 151.47 104.40 150.79 Z M 104.98 150.03 L 105.59 149.23 C 106.12 148.55 105.98 147.57 105.30 147.05 C 104.61 146.52 103.63 146.65 103.11 147.34 L 102.50 148.14 C 101.98 148.83 102.11 149.81 102.79 150.33 C 103.48 150.85 104.46 150.72 104.98 150.03 Z M 105.60 149.23 L 106.23 148.39 C 106.74 147.71 106.61 146.73 105.92 146.21 C 105.23 145.69 104.25 145.83 103.73 146.52 L 103.10 147.35 C 102.59 148.04 102.72 149.01 103.41 149.53 C 104.10 150.05 105.08 149.92 105.60 149.23 Z M 106.23 148.39 L 106.86 147.54 C 107.38 146.85 107.23 145.87 106.54 145.35 C 105.85 144.84 104.87 144.98 104.36 145.68 L 103.73 146.52 C 103.21 147.21 103.35 148.19 104.05 148.71 C 104.74 149.22 105.72 149.08 106.23 148.39 Z M 106.87 147.53 L 107.49 146.69 C 108.00 145.99 107.85 145.02 107.15 144.51 C 106.46 144.00 105.48 144.14 104.97 144.84 L 104.35 145.68 C 103.84 146.38 103.99 147.36 104.69 147.87 C 105.38 148.38 106.36 148.23 106.87 147.53 Z M 107.49 146.68 L 108.10 145.85 C 108.60 145.15 108.44 144.17 107.75 143.67 C 107.05 143.16 106.07 143.32 105.57 144.02 L 104.96 144.85 C 104.46 145.55 104.61 146.52 105.31 147.03 C 106.01 147.53 106.99 147.38 107.49 146.68 Z M 108.10 145.84 L 108.69 145.02 C 109.19 144.32 109.03 143.34 108.32 142.84 C 107.62 142.34 106.65 142.50 106.15 143.20 L 105.56 144.02 C 105.06 144.73 105.22 145.70 105.92 146.20 C 106.62 146.70 107.60 146.54 108.10 145.84 Z M 108.69 145.01 L 109.26 144.20 C 109.76 143.50 109.59 142.53 108.89 142.03 C 108.18 141.53 107.21 141.70 106.71 142.40 L 106.14 143.21 C 105.64 143.91 105.81 144.89 106.52 145.39 C 107.22 145.88 108.19 145.72 108.69 145.01 Z M 109.27 144.20 L 109.82 143.41 C 110.32 142.70 110.14 141.73 109.44 141.23 C 108.73 140.74 107.76 140.91 107.26 141.62 L 106.71 142.41 C 106.21 143.11 106.39 144.09 107.09 144.58 C 107.80 145.08 108.77 144.90 109.27 144.20 Z M 109.82 143.40 L 110.41 142.56 C 110.90 141.85 110.72 140.88 110.01 140.39 C 109.31 139.90 108.33 140.07 107.84 140.78 L 107.26 141.62 C 106.77 142.33 106.94 143.30 107.65 143.79 C 108.36 144.28 109.33 144.11 109.82 143.40 Z M 110.41 142.56 L 111.00 141.71 C 111.49 141.00 111.31 140.03 110.61 139.54 C 109.90 139.04 108.93 139.22 108.43 139.93 L 107.84 140.78 C 107.35 141.49 107.53 142.46 108.23 142.96 C 108.94 143.45 109.92 143.27 110.41 142.56 Z M 110.99 141.71 L 111.57 140.89 C 112.07 140.19 111.90 139.21 111.19 138.72 C 110.48 138.22 109.51 138.39 109.02 139.10 L 108.44 139.92 C 107.94 140.63 108.11 141.60 108.82 142.10 C 109.53 142.59 110.50 142.42 110.99 141.71 Z M 111.56 140.91 L 112.13 140.12 C 112.63 139.42 112.47 138.44 111.77 137.94 C 111.07 137.44 110.09 137.60 109.59 138.30 L 109.03 139.08 C 108.52 139.79 108.68 140.76 109.38 141.26 C 110.08 141.77 111.06 141.61 111.56 140.91 Z M 112.11 140.14 L 112.67 139.39 C 113.19 138.69 113.05 137.72 112.36 137.20 C 111.67 136.68 110.69 136.83 110.17 137.52 L 109.61 138.27 C 109.09 138.96 109.23 139.94 109.93 140.46 C 110.62 140.97 111.59 140.83 112.11 140.14 Z M 112.65 139.42 L 113.25 138.65 C 113.78 137.98 113.66 137.00 112.98 136.46 C 112.31 135.93 111.32 136.05 110.79 136.73 L 110.20 137.49 C 109.66 138.17 109.78 139.15 110.46 139.68 C 111.14 140.21 112.12 140.09 112.65 139.42 Z M 113.23 138.68 L 113.84 137.93 C 114.39 137.27 114.29 136.28 113.62 135.74 C 112.95 135.19 111.97 135.29 111.42 135.95 L 110.81 136.70 C 110.27 137.37 110.36 138.35 111.03 138.90 C 111.70 139.44 112.68 139.35 113.23 138.68 Z M 113.83 137.95 L 114.47 137.18 C 115.03 136.52 114.94 135.54 114.28 134.98 C 113.62 134.43 112.64 134.51 112.08 135.17 L 111.44 135.94 C 110.88 136.60 110.97 137.58 111.63 138.14 C 112.29 138.69 113.27 138.61 113.83 137.95 Z M 114.47 137.19 L 115.16 136.38 C 115.72 135.72 115.64 134.73 114.98 134.18 C 114.32 133.62 113.34 133.70 112.78 134.35 L 112.09 135.17 C 111.53 135.82 111.61 136.81 112.27 137.37 C 112.92 137.93 113.91 137.85 114.47 137.19 Z M 115.16 136.38 L 115.80 135.63 C 116.35 134.97 116.27 133.98 115.62 133.43 C 114.96 132.87 113.97 132.95 113.42 133.60 L 112.78 134.35 C 112.22 135.01 112.30 136.00 112.96 136.56 C 113.61 137.11 114.60 137.03 115.16 136.38 Z M 115.80 135.63 L 116.46 134.84 C 117.02 134.19 116.94 133.20 116.28 132.64 C 115.62 132.09 114.64 132.17 114.08 132.82 L 113.42 133.61 C 112.86 134.26 112.94 135.25 113.60 135.81 C 114.25 136.36 115.24 136.28 115.80 135.63 Z M 116.46 134.84 L 117.13 134.06 C 117.69 133.40 117.61 132.42 116.95 131.86 C 116.29 131.30 115.31 131.38 114.75 132.04 L 114.08 132.82 C 113.52 133.48 113.60 134.46 114.26 135.02 C 114.92 135.58 115.90 135.50 116.46 134.84 Z M 117.13 134.06 L 117.78 133.30 C 118.34 132.64 118.26 131.65 117.60 131.10 C 116.94 130.54 115.96 130.61 115.40 131.27 L 114.75 132.03 C 114.19 132.69 114.27 133.68 114.92 134.24 C 115.58 134.79 116.57 134.72 117.13 134.06 Z M 117.77 133.30 L 118.42 132.55 C 118.98 131.89 118.90 130.91 118.25 130.34 C 117.60 129.78 116.61 129.86 116.05 130.51 L 115.40 131.27 C 114.84 131.92 114.92 132.91 115.57 133.47 C 116.23 134.03 117.21 133.95 117.77 133.30 Z M 118.41 132.55 L 119.14 131.72 C 119.70 131.06 119.63 130.08 118.98 129.51 C 118.33 128.95 117.34 129.02 116.78 129.67 L 116.05 130.51 C 115.49 131.16 115.56 132.15 116.21 132.71 C 116.86 133.27 117.85 133.20 118.41 132.55 Z M 119.13 131.72 L 119.79 130.98 C 120.35 130.33 120.29 129.34 119.64 128.77 C 118.99 128.20 118.01 128.27 117.44 128.92 L 116.78 129.67 C 116.21 130.31 116.28 131.30 116.93 131.87 C 117.58 132.44 118.56 132.37 119.13 131.72 Z M 119.78 130.98 L 120.39 130.29 C 120.96 129.65 120.90 128.66 120.26 128.09 C 119.61 127.52 118.63 127.58 118.05 128.22 L 117.44 128.91 C 116.87 129.56 116.93 130.54 117.58 131.12 C 118.22 131.69 119.21 131.63 119.78 130.98 Z M 120.39 130.30 L 121.02 129.59 C 121.59 128.95 121.54 127.97 120.89 127.39 C 120.25 126.82 119.26 126.87 118.69 127.51 L 118.06 128.22 C 117.48 128.86 117.54 129.85 118.18 130.42 C 118.82 131.00 119.81 130.94 120.39 130.30 Z M 121.01 129.60 L 121.68 128.86 C 122.25 128.21 122.20 127.23 121.56 126.65 C 120.92 126.08 119.93 126.13 119.35 126.77 L 118.69 127.51 C 118.12 128.15 118.17 129.14 118.81 129.72 C 119.45 130.29 120.44 130.24 121.01 129.60 Z M 121.68 128.85 L 122.35 128.11 C 122.92 127.46 122.86 126.48 122.22 125.90 C 121.57 125.33 120.59 125.39 120.01 126.03 L 119.35 126.78 C 118.78 127.42 118.83 128.41 119.48 128.98 C 120.12 129.55 121.11 129.50 121.68 128.85 Z M 122.36 128.10 L 123.02 127.34 C 123.59 126.69 123.52 125.70 122.87 125.14 C 122.22 124.57 121.23 124.63 120.67 125.28 L 120.00 126.04 C 119.44 126.69 119.50 127.68 120.15 128.24 C 120.80 128.81 121.79 128.75 122.36 128.10 Z M 123.03 127.33 L 123.68 126.57 C 124.24 125.91 124.16 124.93 123.51 124.37 C 122.85 123.80 121.87 123.88 121.31 124.54 L 120.66 125.30 C 120.10 125.95 120.17 126.94 120.83 127.50 C 121.48 128.06 122.47 127.98 123.03 127.33 Z M 123.68 126.56 L 124.33 125.80 C 124.89 125.14 124.81 124.15 124.15 123.60 C 123.50 123.04 122.51 123.12 121.95 123.77 L 121.30 124.54 C 120.74 125.20 120.82 126.18 121.48 126.74 C 122.14 127.30 123.12 127.22 123.68 126.56 Z M 124.33 125.80 L 124.98 125.04 C 125.54 124.39 125.46 123.40 124.81 122.84 C 124.15 122.28 123.17 122.36 122.61 123.01 L 121.96 123.77 C 121.40 124.42 121.47 125.41 122.13 125.97 C 122.78 126.53 123.77 126.46 124.33 125.80 Z M 124.97 125.05 L 125.64 124.29 C 126.21 123.64 126.14 122.65 125.49 122.09 C 124.84 121.52 123.86 121.58 123.29 122.23 L 122.62 123.00 C 122.05 123.65 122.12 124.63 122.76 125.20 C 123.41 125.77 124.40 125.70 124.97 125.05 Z M 125.63 124.30 L 126.30 123.55 C 126.87 122.91 126.82 121.93 126.17 121.35 C 125.53 120.78 124.54 120.83 123.97 121.47 L 123.30 122.22 C 122.73 122.86 122.78 123.85 123.42 124.42 C 124.06 125.00 125.05 124.94 125.63 124.30 Z M 126.29 123.56 L 126.95 122.84 C 127.53 122.20 127.49 121.21 126.85 120.63 C 126.21 120.05 125.22 120.10 124.64 120.73 L 123.98 121.46 C 123.40 122.10 123.44 123.09 124.08 123.67 C 124.72 124.25 125.71 124.20 126.29 123.56 Z M 126.94 122.84 L 127.61 122.12 C 128.19 121.49 128.15 120.50 127.52 119.92 C 126.88 119.33 125.89 119.37 125.31 120.01 L 124.65 120.73 C 124.06 121.36 124.10 122.35 124.74 122.93 C 125.37 123.52 126.36 123.48 126.94 122.84 Z M 127.60 122.13 L 128.27 121.41 C 128.86 120.78 128.82 119.79 128.19 119.21 C 127.56 118.62 126.57 118.65 125.99 119.28 L 125.32 120.00 C 124.73 120.63 124.76 121.62 125.39 122.21 C 126.02 122.80 127.01 122.76 127.60 122.13 Z M 128.26 121.42 L 128.95 120.69 C 129.55 120.06 129.52 119.07 128.89 118.48 C 128.27 117.89 127.28 117.92 126.69 118.54 L 125.99 119.28 C 125.40 119.90 125.43 120.89 126.05 121.48 C 126.68 122.07 127.67 122.05 128.26 121.42 Z M 128.94 120.70 L 129.65 119.97 C 130.24 119.35 130.23 118.36 129.60 117.76 C 128.98 117.16 127.99 117.18 127.40 117.80 L 126.69 118.53 C 126.10 119.15 126.12 120.14 126.74 120.74 C 127.36 121.34 128.35 121.32 128.94 120.70 Z M 129.63 119.98 L 130.33 119.28 C 130.93 118.67 130.93 117.68 130.31 117.07 C 129.70 116.46 128.71 116.47 128.11 117.08 L 127.41 117.79 C 126.80 118.40 126.81 119.39 127.42 120.00 C 128.04 120.60 129.03 120.60 129.63 119.98 Z M 130.30 119.30 L 131.03 118.60 C 131.65 118.00 131.67 117.01 131.07 116.39 C 130.47 115.77 129.48 115.76 128.86 116.36 L 128.13 117.06 C 127.51 117.66 127.50 118.65 128.10 119.27 C 128.70 119.89 129.68 119.90 130.30 119.30 Z M 130.99 118.64 L 131.74 117.96 C 132.38 117.38 132.43 116.39 131.85 115.75 C 131.27 115.11 130.29 115.06 129.65 115.64 L 128.90 116.32 C 128.26 116.90 128.21 117.89 128.79 118.53 C 129.37 119.17 130.35 119.21 130.99 118.64 Z M 131.68 118.01 L 132.49 117.35 C 133.16 116.80 133.26 115.82 132.71 115.15 C 132.17 114.48 131.19 114.38 130.52 114.93 L 129.71 115.59 C 129.04 116.14 128.94 117.12 129.48 117.79 C 130.03 118.46 131.01 118.55 131.68 118.01 Z M 132.38 117.43 L 133.22 116.86 C 133.94 116.37 134.12 115.40 133.64 114.69 C 133.16 113.98 132.19 113.79 131.47 114.27 L 130.63 114.84 C 129.92 115.33 129.73 116.30 130.21 117.01 C 130.70 117.73 131.67 117.91 132.38 117.43 Z M 133.03 116.97 L 133.89 116.55 C 134.67 116.18 135.00 115.24 134.62 114.47 C 134.25 113.69 133.31 113.37 132.54 113.74 L 131.67 114.16 C 130.89 114.53 130.57 115.47 130.94 116.24 C 131.32 117.02 132.25 117.35 133.03 116.97 Z M 133.58 116.67 L 134.50 116.44 C 135.34 116.24 135.85 115.40 135.65 114.56 C 135.45 113.72 134.61 113.21 133.77 113.41 L 132.85 113.63 C 132.01 113.83 131.50 114.67 131.70 115.51 C 131.90 116.35 132.74 116.87 133.58 116.67 Z M 134.11 116.49 L 135.08 116.50 C 135.94 116.51 136.65 115.83 136.66 114.96 C 136.68 114.10 135.99 113.39 135.13 113.38 L 134.16 113.37 C 133.30 113.35 132.59 114.04 132.57 114.90 C 132.56 115.77 133.25 116.47 134.11 116.49 Z M 134.72 116.45 L 135.70 116.70 C 136.53 116.91 137.38 116.40 137.59 115.57 C 137.80 114.73 137.30 113.88 136.46 113.67 L 135.48 113.43 C 134.65 113.22 133.80 113.72 133.59 114.56 C 133.38 115.40 133.89 116.24 134.72 116.45 Z M 135.41 116.60 L 136.33 117.03 C 137.10 117.40 138.04 117.07 138.41 116.30 C 138.78 115.52 138.45 114.59 137.67 114.21 L 136.75 113.78 C 135.97 113.41 135.04 113.74 134.67 114.51 C 134.30 115.29 134.63 116.22 135.41 116.60 Z M 136.12 116.91 L 136.92 117.46 C 137.63 117.94 138.60 117.76 139.09 117.05 C 139.57 116.33 139.39 115.36 138.68 114.88 L 137.87 114.33 C 137.16 113.85 136.19 114.03 135.71 114.75 C 135.22 115.46 135.41 116.43 136.12 116.91 Z M 136.78 117.35 L 137.54 118.01 C 138.20 118.57 139.18 118.50 139.75 117.85 C 140.31 117.19 140.24 116.21 139.58 115.64 L 138.82 114.99 C 138.16 114.42 137.18 114.50 136.62 115.15 C 136.05 115.80 136.13 116.79 136.78 117.35 Z M 137.44 117.91 L 138.15 118.65 C 138.75 119.27 139.74 119.29 140.36 118.69 C 140.98 118.09 141.00 117.10 140.40 116.48 L 139.69 115.74 C 139.09 115.12 138.10 115.11 137.48 115.70 C 136.86 116.30 136.84 117.29 137.44 117.91 Z M 138.07 118.56 L 138.70 119.32 C 139.25 119.99 140.23 120.08 140.90 119.53 C 141.56 118.98 141.66 118.00 141.11 117.34 L 140.48 116.57 C 139.93 115.91 138.95 115.81 138.28 116.36 C 137.62 116.91 137.52 117.90 138.07 118.56 Z M 138.64 119.24 L 139.20 120.02 C 139.70 120.72 140.68 120.89 141.38 120.38 C 142.08 119.88 142.24 118.90 141.74 118.20 L 141.17 117.42 C 140.67 116.72 139.70 116.56 139.00 117.06 C 138.30 117.56 138.13 118.54 138.64 119.24 Z M 139.15 119.95 L 139.68 120.79 C 140.15 121.52 141.11 121.73 141.84 121.27 C 142.57 120.81 142.78 119.84 142.32 119.11 L 141.79 118.28 C 141.32 117.55 140.36 117.33 139.63 117.80 C 138.90 118.26 138.69 119.22 139.15 119.95 Z M 139.65 120.73 L 140.17 121.63 C 140.60 122.38 141.55 122.63 142.30 122.20 C 143.05 121.77 143.30 120.82 142.87 120.07 L 142.35 119.17 C 141.92 118.42 140.97 118.17 140.22 118.60 C 139.47 119.03 139.22 119.99 139.65 120.73 Z M 140.15 121.59 L 140.62 122.47 C 141.03 123.23 141.98 123.51 142.74 123.10 C 143.50 122.69 143.78 121.74 143.37 120.98 L 142.89 120.11 C 142.48 119.35 141.54 119.07 140.78 119.48 C 140.02 119.89 139.74 120.84 140.15 121.59 Z M 140.61 122.45 L 141.06 123.32 C 141.46 124.09 142.40 124.39 143.17 123.99 C 143.93 123.60 144.23 122.65 143.84 121.89 L 143.38 121.01 C 142.98 120.24 142.04 119.94 141.28 120.34 C 140.51 120.74 140.21 121.68 140.61 122.45 Z M 141.06 123.31 L 141.51 124.21 C 141.90 124.98 142.84 125.29 143.61 124.91 C 144.38 124.52 144.69 123.58 144.30 122.81 L 143.85 121.90 C 143.46 121.13 142.52 120.82 141.75 121.21 C 140.98 121.60 140.67 122.54 141.06 123.31 Z M 141.50 124.20 L 141.95 125.12 C 142.34 125.89 143.27 126.21 144.04 125.83 C 144.82 125.45 145.14 124.51 144.76 123.74 L 144.31 122.82 C 143.93 122.05 142.99 121.73 142.22 122.11 C 141.44 122.49 141.12 123.43 141.50 124.20 Z M 141.95 125.11 L 142.39 126.01 C 142.76 126.79 143.70 127.11 144.47 126.73 C 145.25 126.36 145.57 125.42 145.20 124.65 L 144.76 123.75 C 144.38 122.97 143.45 122.65 142.67 123.02 C 141.90 123.40 141.57 124.33 141.95 125.11 Z M 142.39 126.01 L 142.80 126.87 C 143.17 127.64 144.11 127.97 144.88 127.60 C 145.66 127.22 145.99 126.29 145.61 125.51 L 145.20 124.65 C 144.83 123.88 143.89 123.55 143.12 123.92 C 142.34 124.30 142.01 125.23 142.39 126.01 Z M 142.80 126.86 L 143.21 127.73 C 143.59 128.51 144.52 128.83 145.30 128.46 C 146.07 128.09 146.40 127.16 146.03 126.38 L 145.62 125.52 C 145.24 124.74 144.31 124.41 143.53 124.78 C 142.76 125.15 142.43 126.09 142.80 126.86 Z M 143.21 127.73 L 143.64 128.62 C 144.01 129.39 144.94 129.72 145.72 129.35 C 146.50 128.98 146.83 128.05 146.45 127.27 L 146.03 126.38 C 145.66 125.60 144.73 125.27 143.95 125.64 C 143.17 126.02 142.84 126.95 143.21 127.73 Z M 143.64 128.62 L 144.09 129.55 C 144.46 130.33 145.39 130.66 146.17 130.29 C 146.95 129.92 147.28 128.99 146.90 128.21 L 146.45 127.27 C 146.08 126.49 145.15 126.16 144.37 126.53 C 143.59 126.91 143.27 127.84 143.64 128.62 Z M 144.09 129.56 L 144.53 130.49 C 144.91 131.27 145.84 131.60 146.62 131.22 C 147.39 130.85 147.72 129.92 147.35 129.14 L 146.90 128.21 C 146.53 127.43 145.60 127.10 144.82 127.47 C 144.04 127.85 143.71 128.78 144.09 129.56 Z M 144.54 130.49 L 144.95 131.36 C 145.33 132.13 146.26 132.46 147.04 132.09 C 147.81 131.71 148.14 130.78 147.77 130.00 L 147.35 129.14 C 146.98 128.36 146.04 128.03 145.27 128.41 C 144.49 128.78 144.16 129.71 144.54 130.49 Z M 144.95 131.36 L 145.39 132.26 C 145.76 133.03 146.70 133.36 147.47 132.98 C 148.25 132.61 148.57 131.68 148.20 130.90 L 147.76 130.00 C 147.39 129.22 146.46 128.90 145.68 129.27 C 144.90 129.65 144.58 130.58 144.95 131.36 Z M 145.39 132.26 L 145.83 133.18 C 146.21 133.96 147.15 134.28 147.92 133.90 C 148.70 133.53 149.02 132.59 148.64 131.82 L 148.20 130.90 C 147.82 130.12 146.89 129.80 146.11 130.17 C 145.34 130.55 145.01 131.48 145.39 132.26 Z M 145.84 133.18 L 146.29 134.11 C 146.67 134.88 147.60 135.20 148.37 134.83 C 149.15 134.45 149.47 133.51 149.09 132.74 L 148.64 131.81 C 148.26 131.04 147.33 130.72 146.55 131.10 C 145.78 131.47 145.46 132.41 145.84 133.18 Z M 146.29 134.11 L 146.74 135.03 C 147.12 135.80 148.05 136.12 148.83 135.74 C 149.60 135.36 149.92 134.42 149.54 133.65 L 149.09 132.74 C 148.71 131.96 147.78 131.64 147.00 132.02 C 146.23 132.40 145.91 133.34 146.29 134.11 Z M 146.74 135.03 L 147.21 135.99 C 147.60 136.76 148.53 137.08 149.31 136.70 C 150.08 136.31 150.40 135.38 150.01 134.60 L 149.54 133.65 C 149.16 132.87 148.22 132.56 147.45 132.94 C 146.67 133.32 146.36 134.26 146.74 135.03 Z M 147.22 136.00 L 147.71 136.98 C 148.10 137.75 149.03 138.06 149.80 137.67 C 150.57 137.29 150.89 136.35 150.50 135.58 L 150.01 134.60 C 149.62 133.83 148.69 133.51 147.91 133.90 C 147.14 134.29 146.83 135.22 147.22 136.00 Z M 147.71 136.99 L 148.19 137.91 C 148.58 138.68 149.52 138.99 150.29 138.60 C 151.05 138.21 151.36 137.27 150.97 136.50 L 150.50 135.57 C 150.11 134.80 149.17 134.50 148.40 134.89 C 147.63 135.28 147.32 136.22 147.71 136.99 Z M 148.19 137.93 L 148.64 138.79 C 149.04 139.56 149.98 139.85 150.75 139.46 C 151.51 139.06 151.81 138.12 151.41 137.35 L 150.96 136.48 C 150.56 135.72 149.62 135.42 148.86 135.82 C 148.09 136.22 147.79 137.16 148.19 137.93 Z M 148.65 138.81 L 149.08 139.61 C 149.49 140.37 150.43 140.65 151.19 140.25 C 151.95 139.84 152.24 138.89 151.83 138.13 L 151.40 137.33 C 151.00 136.57 150.05 136.29 149.29 136.69 C 148.53 137.10 148.24 138.05 148.65 138.81 Z M 149.09 139.63 L 149.57 140.48 C 149.99 141.23 150.94 141.50 151.69 141.08 C 152.44 140.66 152.71 139.71 152.29 138.96 L 151.82 138.11 C 151.40 137.36 150.45 137.09 149.69 137.51 C 148.94 137.93 148.67 138.88 149.09 139.63 Z M 149.59 140.52 L 150.13 141.42 C 150.57 142.16 151.53 142.40 152.27 141.96 C 153.01 141.52 153.25 140.56 152.81 139.82 L 152.27 138.92 C 151.83 138.18 150.87 137.93 150.13 138.38 C 149.39 138.82 149.15 139.78 149.59 140.52 Z M 150.16 141.47 L 150.68 142.28 C 151.15 143.00 152.11 143.21 152.84 142.74 C 153.56 142.27 153.77 141.30 153.30 140.58 L 152.78 139.77 C 152.31 139.05 151.34 138.84 150.62 139.31 C 149.90 139.78 149.69 140.74 150.16 141.47 Z M 150.71 142.32 L 151.25 143.09 C 151.74 143.80 152.72 143.97 153.42 143.47 C 154.13 142.98 154.30 142.01 153.81 141.30 L 153.27 140.53 C 152.77 139.83 151.80 139.65 151.09 140.15 C 150.39 140.64 150.22 141.62 150.71 142.32 Z M 151.28 143.13 L 151.86 143.90 C 152.37 144.60 153.35 144.74 154.04 144.22 C 154.73 143.70 154.87 142.72 154.36 142.03 L 153.78 141.26 C 153.26 140.57 152.28 140.43 151.59 140.94 C 150.90 141.46 150.76 142.44 151.28 143.13 Z M 151.88 143.94 L 152.50 144.72 C 153.04 145.40 154.02 145.51 154.69 144.98 C 155.37 144.44 155.48 143.46 154.95 142.78 L 154.33 142.00 C 153.80 141.32 152.82 141.21 152.14 141.74 C 151.46 142.28 151.35 143.26 151.88 143.94 Z M 152.52 144.75 L 153.17 145.53 C 153.72 146.19 154.70 146.29 155.37 145.74 C 156.03 145.19 156.12 144.20 155.57 143.54 L 154.93 142.76 C 154.38 142.09 153.40 142.00 152.73 142.55 C 152.07 143.10 151.97 144.08 152.52 144.75 Z M 153.18 145.55 L 153.80 146.27 C 154.36 146.92 155.35 147.00 156.00 146.44 C 156.66 145.88 156.73 144.89 156.17 144.24 L 155.56 143.52 C 155.00 142.86 154.01 142.79 153.36 143.35 C 152.70 143.91 152.62 144.89 153.18 145.55 Z M 153.81 146.28 L 154.37 146.91 C 154.94 147.56 155.92 147.62 156.57 147.05 C 157.22 146.48 157.28 145.49 156.71 144.84 L 156.16 144.22 C 155.59 143.57 154.60 143.51 153.95 144.08 C 153.31 144.65 153.24 145.64 153.81 146.28 Z M 154.38 146.93 L 155.00 147.60 C 155.58 148.24 156.57 148.29 157.20 147.71 C 157.84 147.13 157.89 146.14 157.31 145.50 L 156.69 144.83 C 156.11 144.19 155.12 144.14 154.49 144.72 C 153.85 145.30 153.80 146.29 154.38 146.93 Z M 155.01 147.62 L 155.73 148.39 C 156.32 149.02 157.31 149.05 157.94 148.46 C 158.57 147.87 158.60 146.88 158.01 146.25 L 157.29 145.48 C 156.70 144.86 155.71 144.82 155.08 145.41 C 154.45 146.00 154.42 146.99 155.01 147.62 Z M 155.75 148.40 L 156.61 149.30 C 157.21 149.92 158.20 149.94 158.82 149.34 C 159.44 148.74 159.46 147.76 158.86 147.13 L 158.00 146.24 C 157.40 145.61 156.41 145.60 155.79 146.19 C 155.17 146.79 155.15 147.78 155.75 148.40 Z M 156.62 149.31 L 157.26 149.97 C 157.86 150.58 158.85 150.59 159.47 149.99 C 160.09 149.39 160.10 148.40 159.49 147.78 L 158.85 147.13 C 158.25 146.51 157.26 146.50 156.64 147.10 C 156.03 147.70 156.02 148.69 156.62 149.31 Z M 157.27 149.97 L 157.94 150.66 C 158.55 151.27 159.54 151.28 160.15 150.67 C 160.76 150.07 160.77 149.08 160.17 148.47 L 159.49 147.78 C 158.89 147.17 157.90 147.16 157.28 147.76 C 156.67 148.37 156.66 149.36 157.27 149.97 Z M 157.94 150.66 L 158.66 151.38 C 159.27 152.00 160.26 152.00 160.87 151.39 C 161.48 150.79 161.49 149.80 160.88 149.19 L 160.16 148.46 C 159.56 147.85 158.57 147.85 157.96 148.45 C 157.34 149.06 157.34 150.05 157.94 150.66 Z M 158.66 151.39 L 159.40 152.13 C 160.01 152.74 161.00 152.74 161.61 152.13 C 162.22 151.53 162.22 150.54 161.61 149.93 L 160.88 149.18 C 160.27 148.57 159.28 148.57 158.67 149.18 C 158.06 149.79 158.05 150.77 158.66 151.39 Z M 159.40 152.13 L 160.14 152.87 C 160.75 153.49 161.74 153.49 162.35 152.88 C 162.96 152.27 162.97 151.28 162.36 150.67 L 161.61 149.93 C 161.00 149.31 160.02 149.31 159.41 149.92 C 158.79 150.53 158.79 151.52 159.40 152.13 Z M 160.15 152.88 L 160.88 153.61 C 161.49 154.22 162.47 154.22 163.08 153.61 C 163.70 153.00 163.70 152.01 163.09 151.40 L 162.36 150.67 C 161.75 150.06 160.76 150.06 160.15 150.67 C 159.54 151.28 159.54 152.27 160.15 152.88 Z M 160.88 153.61 L 161.58 154.31 C 162.19 154.92 163.18 154.92 163.79 154.32 C 164.40 153.71 164.40 152.72 163.79 152.11 L 163.09 151.40 C 162.48 150.79 161.49 150.79 160.88 151.40 C 160.27 152.01 160.27 153.00 160.88 153.61 Z M 161.58 154.31 L 162.37 155.10 C 162.98 155.71 163.96 155.71 164.58 155.10 C 165.19 154.49 165.19 153.51 164.58 152.90 L 163.79 152.11 C 163.18 151.50 162.19 151.50 161.58 152.11 C 160.97 152.71 160.97 153.70 161.58 154.31 Z M 162.37 155.10 L 163.13 155.86 C 163.74 156.48 164.73 156.48 165.34 155.87 C 165.95 155.26 165.95 154.27 165.34 153.66 L 164.58 152.90 C 163.97 152.29 162.98 152.28 162.37 152.89 C 161.76 153.50 161.76 154.49 162.37 155.10 Z M 163.13 155.87 L 163.84 156.58 C 164.45 157.19 165.44 157.19 166.05 156.58 C 166.66 155.97 166.66 154.98 166.05 154.37 L 165.34 153.66 C 164.73 153.05 163.74 153.05 163.13 153.66 C 162.52 154.27 162.52 155.26 163.13 155.87 Z M 163.84 156.58 L 164.52 157.25 C 165.13 157.86 166.12 157.86 166.73 157.25 C 167.34 156.64 167.33 155.65 166.72 155.04 L 166.05 154.37 C 165.44 153.76 164.45 153.76 163.84 154.37 C 163.23 154.98 163.23 155.97 163.84 156.58 Z M 164.52 157.25 L 165.17 157.90 C 165.79 158.51 166.78 158.51 167.38 157.90 C 167.99 157.28 167.99 156.30 167.38 155.69 L 166.72 155.04 C 166.11 154.43 165.12 154.44 164.51 155.05 C 163.91 155.66 163.91 156.65 164.52 157.25 Z M 165.18 157.91 L 165.83 158.55 C 166.45 159.16 167.44 159.15 168.04 158.54 C 168.65 157.93 168.64 156.94 168.03 156.33 L 167.37 155.69 C 166.76 155.08 165.77 155.09 165.16 155.70 C 164.56 156.31 164.56 157.30 165.18 157.91 Z M 165.84 158.56 L 166.60 159.30 C 167.21 159.90 168.20 159.89 168.80 159.28 C 169.41 158.66 169.40 157.67 168.78 157.07 L 168.02 156.33 C 167.41 155.72 166.42 155.74 165.82 156.35 C 165.21 156.97 165.22 157.96 165.84 158.56 Z M 166.60 159.30 L 167.35 160.04 C 167.97 160.64 168.96 160.62 169.56 160.00 C 170.16 159.39 170.15 158.40 169.53 157.80 L 168.78 157.07 C 168.16 156.47 167.17 156.48 166.57 157.10 C 165.97 157.71 165.98 158.70 166.60 159.30 Z M 167.35 160.04 L 168.08 160.74 C 168.70 161.34 169.69 161.33 170.29 160.71 C 170.89 160.09 170.87 159.10 170.25 158.50 L 169.52 157.79 C 168.90 157.19 167.92 157.21 167.32 157.83 C 166.72 158.45 166.73 159.44 167.35 160.04 Z M 168.09 160.75 L 168.78 161.41 C 169.40 162.01 170.39 161.99 170.99 161.37 C 171.58 160.75 171.57 159.76 170.94 159.16 L 170.25 158.50 C 169.63 157.90 168.64 157.92 168.04 158.54 C 167.45 159.16 167.47 160.15 168.09 160.75 Z M 168.78 161.42 L 169.44 162.04 C 170.06 162.64 171.05 162.62 171.65 161.99 C 172.24 161.37 172.22 160.38 171.60 159.79 L 170.94 159.16 C 170.32 158.56 169.33 158.59 168.73 159.21 C 168.14 159.83 168.16 160.82 168.78 161.42 Z M 169.44 162.05 L 170.12 162.69 C 170.75 163.28 171.73 163.26 172.33 162.63 C 172.92 162.01 172.90 161.02 172.27 160.43 L 171.59 159.78 C 170.97 159.19 169.98 159.22 169.39 159.84 C 168.79 160.47 168.82 161.45 169.44 162.05 Z M 170.12 162.69 L 170.79 163.32 C 171.42 163.91 172.40 163.89 173.00 163.26 C 173.59 162.63 173.56 161.65 172.93 161.05 L 172.27 160.42 C 171.64 159.83 170.65 159.86 170.06 160.49 C 169.47 161.11 169.50 162.10 170.12 162.69 Z M 170.79 163.32 L 171.51 164.00 C 172.13 164.59 173.12 164.56 173.71 163.94 C 174.31 163.31 174.28 162.32 173.65 161.73 L 172.93 161.05 C 172.31 160.46 171.32 160.49 170.73 161.12 C 170.13 161.74 170.16 162.73 170.79 163.32 Z M 171.51 164.00 L 172.34 164.79 C 172.97 165.38 173.95 165.35 174.55 164.73 C 175.14 164.10 175.11 163.11 174.49 162.52 L 173.65 161.73 C 173.03 161.14 172.04 161.17 171.45 161.79 C 170.85 162.42 170.88 163.41 171.51 164.00 Z M 172.34 164.79 L 172.96 165.37 C 173.58 165.97 174.57 165.94 175.16 165.32 C 175.76 164.69 175.73 163.70 175.11 163.11 L 174.49 162.52 C 173.86 161.93 172.88 161.96 172.28 162.58 C 171.69 163.21 171.71 164.19 172.34 164.79 Z M 172.95 165.37 L 173.61 166.00 C 174.23 166.59 175.22 166.57 175.81 165.94 C 176.41 165.32 176.39 164.33 175.76 163.74 L 175.11 163.11 C 174.49 162.52 173.50 162.54 172.90 163.16 C 172.31 163.79 172.33 164.78 172.95 165.37 Z M 173.60 165.99 L 174.31 166.67 C 174.93 167.26 175.92 167.24 176.51 166.62 C 177.11 166.00 177.09 165.01 176.47 164.41 L 175.77 163.74 C 175.14 163.14 174.16 163.16 173.56 163.78 C 172.96 164.41 172.98 165.40 173.60 165.99 Z M 174.30 166.66 L 175.04 167.38 C 175.66 167.98 176.65 167.96 177.25 167.34 C 177.85 166.72 177.83 165.73 177.21 165.13 L 176.47 164.42 C 175.85 163.82 174.86 163.83 174.26 164.45 C 173.67 165.07 173.68 166.06 174.30 166.66 Z M 175.03 167.37 L 175.80 168.12 C 176.41 168.72 177.40 168.71 178.00 168.09 C 178.61 167.47 178.60 166.49 177.98 165.88 L 177.22 165.14 C 176.60 164.53 175.61 164.55 175.01 165.16 C 174.41 165.78 174.42 166.77 175.03 167.37 Z M 175.79 168.11 L 176.57 168.88 C 177.18 169.48 178.17 169.48 178.77 168.87 C 179.38 168.25 179.38 167.26 178.76 166.66 L 177.99 165.89 C 177.37 165.28 176.38 165.29 175.78 165.90 C 175.17 166.51 175.18 167.50 175.79 168.11 Z M 176.56 168.87 L 177.34 169.65 C 177.95 170.26 178.93 170.26 179.55 169.66 C 180.16 169.05 180.16 168.06 179.55 167.45 L 178.77 166.67 C 178.16 166.06 177.17 166.05 176.56 166.66 C 175.95 167.27 175.95 168.26 176.56 168.87 Z M 177.33 169.64 L 178.08 170.40 C 178.68 171.02 179.67 171.03 180.28 170.43 C 180.90 169.82 180.91 168.83 180.30 168.22 L 179.56 167.46 C 178.95 166.84 177.97 166.83 177.35 167.44 C 176.73 168.04 176.72 169.03 177.33 169.64 Z M 178.07 170.40 L 178.80 171.16 C 179.40 171.78 180.39 171.79 181.01 171.19 C 181.63 170.59 181.65 169.61 181.05 168.99 L 180.31 168.23 C 179.71 167.61 178.72 167.59 178.10 168.19 C 177.48 168.79 177.47 169.78 178.07 170.40 Z M 178.79 171.15 L 179.51 171.90 C 180.11 172.52 181.09 172.55 181.72 171.95 C 182.34 171.36 182.37 170.37 181.77 169.75 L 181.05 168.99 C 180.46 168.37 179.47 168.35 178.85 168.94 C 178.22 169.54 178.20 170.52 178.79 171.15 Z M 179.50 171.89 L 180.20 172.63 C 180.79 173.26 181.78 173.29 182.41 172.70 C 183.04 172.11 183.07 171.12 182.47 170.49 L 181.78 169.75 C 181.19 169.13 180.20 169.10 179.57 169.69 C 178.94 170.28 178.91 171.26 179.50 171.89 Z M 180.19 172.63 L 180.86 173.35 C 181.45 173.98 182.44 174.02 183.07 173.43 C 183.70 172.84 183.74 171.85 183.15 171.22 L 182.48 170.50 C 181.89 169.87 180.91 169.83 180.27 170.42 C 179.64 171.01 179.61 171.99 180.19 172.63 Z M 180.86 173.34 L 181.50 174.04 C 182.08 174.67 183.07 174.72 183.71 174.13 C 184.34 173.55 184.38 172.56 183.80 171.93 L 183.16 171.23 C 182.58 170.59 181.59 170.55 180.95 171.14 C 180.32 171.72 180.28 172.71 180.86 173.34 Z M 181.49 174.03 L 182.10 174.70 C 182.68 175.34 183.67 175.39 184.31 174.81 C 184.94 174.23 184.99 173.24 184.41 172.60 L 183.81 171.93 C 183.23 171.30 182.24 171.25 181.60 171.83 C 180.96 172.41 180.91 173.39 181.49 174.03 Z M 182.09 174.69 L 182.83 175.52 C 183.41 176.16 184.39 176.21 185.04 175.64 C 185.68 175.06 185.73 174.08 185.16 173.44 L 184.42 172.61 C 183.84 171.97 182.86 171.91 182.22 172.49 C 181.57 173.06 181.52 174.05 182.09 174.69 Z M 182.82 175.51 L 183.52 176.31 C 184.09 176.95 185.08 177.02 185.73 176.45 C 186.37 175.88 186.44 174.89 185.87 174.25 L 185.17 173.45 C 184.60 172.80 183.61 172.73 182.96 173.30 C 182.32 173.87 182.25 174.86 182.82 175.51 Z M 183.51 176.29 L 184.16 177.05 C 184.72 177.70 185.71 177.78 186.36 177.22 C 187.02 176.66 187.09 175.67 186.53 175.02 L 185.88 174.26 C 185.32 173.61 184.33 173.53 183.68 174.09 C 183.03 174.65 182.95 175.64 183.51 176.29 Z M 184.15 177.03 L 184.75 177.76 C 185.31 178.42 186.29 178.51 186.95 177.96 C 187.61 177.41 187.70 176.42 187.15 175.76 L 186.54 175.03 C 185.99 174.37 185.01 174.28 184.35 174.84 C 183.68 175.39 183.59 176.37 184.15 177.03 Z M 184.74 177.74 L 185.31 178.45 C 185.86 179.12 186.84 179.22 187.51 178.68 C 188.18 178.14 188.28 177.16 187.74 176.49 L 187.17 175.78 C 186.62 175.11 185.64 175.00 184.97 175.55 C 184.30 176.09 184.20 177.07 184.74 177.74 Z M 185.30 178.43 L 185.90 179.20 C 186.43 179.88 187.41 179.99 188.09 179.46 C 188.77 178.93 188.89 177.95 188.35 177.27 L 187.75 176.51 C 187.22 175.83 186.24 175.71 185.56 176.24 C 184.88 176.77 184.77 177.75 185.30 178.43 Z M 185.88 179.18 L 186.50 179.99 C 187.02 180.67 188.00 180.81 188.68 180.28 C 189.37 179.76 189.50 178.78 188.98 178.10 L 188.37 177.29 C 187.85 176.60 186.87 176.47 186.18 176.99 C 185.50 177.51 185.36 178.49 185.88 179.18 Z M 186.48 179.97 L 187.08 180.77 C 187.59 181.47 188.57 181.61 189.26 181.10 C 189.95 180.59 190.10 179.61 189.59 178.92 L 188.99 178.11 C 188.48 177.42 187.50 177.27 186.81 177.79 C 186.12 178.30 185.97 179.28 186.48 179.97 Z M 187.07 180.76 L 187.65 181.56 C 188.15 182.26 189.13 182.42 189.83 181.91 C 190.53 181.41 190.68 180.43 190.18 179.73 L 189.60 178.93 C 189.09 178.23 188.12 178.08 187.42 178.58 C 186.72 179.09 186.56 180.06 187.07 180.76 Z M 187.64 181.56 L 188.21 182.35 C 188.71 183.06 189.69 183.22 190.39 182.72 C 191.09 182.22 191.26 181.24 190.75 180.54 L 190.18 179.74 C 189.68 179.04 188.71 178.88 188.01 179.38 C 187.30 179.88 187.14 180.85 187.64 181.56 Z M 188.21 182.35 L 188.80 183.19 C 189.30 183.89 190.27 184.06 190.98 183.56 C 191.68 183.06 191.85 182.08 191.35 181.38 L 190.76 180.54 C 190.26 179.84 189.28 179.67 188.58 180.17 C 187.88 180.67 187.71 181.65 188.21 182.35 Z M 188.80 183.18 L 189.38 184.01 C 189.87 184.71 190.85 184.89 191.55 184.39 C 192.26 183.90 192.43 182.92 191.94 182.22 L 191.35 181.39 C 190.86 180.68 189.89 180.51 189.18 181.01 C 188.47 181.50 188.30 182.47 188.80 183.18 Z M 189.37 184.00 L 189.94 184.82 C 190.43 185.53 191.41 185.71 192.11 185.22 C 192.82 184.72 193.00 183.75 192.51 183.04 L 191.94 182.22 C 191.45 181.51 190.48 181.34 189.77 181.83 C 189.06 182.32 188.88 183.29 189.37 184.00 Z M 189.94 184.81 L 190.49 185.62 C 190.97 186.33 191.94 186.51 192.65 186.03 C 193.37 185.54 193.55 184.57 193.07 183.86 L 192.51 183.05 C 192.03 182.34 191.06 182.16 190.35 182.64 C 189.63 183.13 189.45 184.10 189.94 184.81 Z M 190.48 185.61 L 191.04 186.45 C 191.52 187.17 192.49 187.36 193.21 186.88 C 193.92 186.40 194.12 185.43 193.64 184.72 L 193.07 183.87 C 192.59 183.15 191.62 182.96 190.91 183.44 C 190.19 183.92 190.00 184.89 190.48 185.61 Z M 191.03 186.44 L 191.59 187.29 C 192.07 188.01 193.03 188.21 193.75 187.74 C 194.48 187.27 194.68 186.30 194.20 185.58 L 193.65 184.73 C 193.17 184.01 192.21 183.81 191.48 184.28 C 190.76 184.75 190.56 185.72 191.03 186.44 Z M 191.59 187.28 L 192.13 188.12 C 192.60 188.84 193.56 189.05 194.29 188.58 C 195.01 188.11 195.22 187.15 194.75 186.42 L 194.21 185.59 C 193.74 184.86 192.77 184.66 192.05 185.13 C 191.33 185.59 191.12 186.56 191.59 187.28 Z M 192.13 188.12 L 192.65 188.93 C 193.12 189.66 194.08 189.87 194.81 189.40 C 195.53 188.93 195.74 187.97 195.28 187.24 L 194.75 186.43 C 194.28 185.70 193.32 185.49 192.59 185.96 C 191.87 186.42 191.66 187.39 192.13 188.12 Z M 192.65 188.93 L 193.19 189.77 C 193.66 190.49 194.63 190.70 195.35 190.23 C 196.07 189.77 196.28 188.80 195.81 188.08 L 195.28 187.24 C 194.81 186.52 193.84 186.31 193.12 186.77 C 192.39 187.24 192.18 188.21 192.65 188.93 Z M 193.20 189.78 L 193.74 190.61 C 194.22 191.33 195.18 191.54 195.90 191.06 C 196.63 190.59 196.83 189.62 196.36 188.90 L 195.81 188.07 C 195.34 187.35 194.37 187.14 193.65 187.62 C 192.93 188.09 192.72 189.06 193.20 189.78 Z M 193.75 190.63 L 194.31 191.45 C 194.79 192.17 195.76 192.36 196.48 191.88 C 197.19 191.39 197.38 190.42 196.90 189.71 L 196.34 188.88 C 195.86 188.17 194.89 187.98 194.18 188.46 C 193.46 188.94 193.27 189.91 193.75 190.63 Z M 194.33 191.48 L 194.90 192.30 C 195.40 193.00 196.37 193.17 197.08 192.68 C 197.78 192.18 197.95 191.21 197.46 190.50 L 196.88 189.68 C 196.39 188.98 195.41 188.81 194.71 189.30 C 194.00 189.80 193.83 190.77 194.33 191.48 Z M 194.92 192.33 L 195.52 193.13 C 196.03 193.82 197.00 193.97 197.70 193.46 C 198.39 192.95 198.54 191.97 198.03 191.27 L 197.44 190.47 C 196.93 189.78 195.95 189.63 195.25 190.14 C 194.56 190.66 194.41 191.63 194.92 192.33 Z M 195.54 193.16 L 196.15 193.95 C 196.68 194.63 197.66 194.76 198.34 194.23 C 199.02 193.70 199.15 192.72 198.62 192.04 L 198.01 191.25 C 197.48 190.56 196.50 190.44 195.82 190.97 C 195.13 191.49 195.01 192.48 195.54 193.16 Z M 196.17 193.98 L 196.81 194.76 C 197.35 195.43 198.33 195.53 199.00 194.99 C 199.67 194.44 199.77 193.46 199.23 192.79 L 198.60 192.01 C 198.05 191.34 197.07 191.24 196.40 191.78 C 195.73 192.33 195.63 193.31 196.17 193.98 Z M 196.83 194.79 L 197.48 195.55 C 198.04 196.21 199.02 196.29 199.68 195.73 C 200.34 195.17 200.42 194.18 199.86 193.53 L 199.21 192.76 C 198.65 192.11 197.66 192.03 197.01 192.59 C 196.35 193.15 196.27 194.13 196.83 194.79 Z M 197.51 195.58 L 198.18 196.33 C 198.76 196.98 199.75 197.03 200.39 196.46 C 201.03 195.88 201.08 194.89 200.51 194.25 L 199.83 193.50 C 199.26 192.85 198.27 192.80 197.63 193.38 C 196.98 193.95 196.93 194.94 197.51 195.58 Z M 198.21 196.37 L 198.90 197.09 C 199.50 197.72 200.48 197.74 201.11 197.15 C 201.73 196.56 201.76 195.57 201.17 194.94 L 200.48 194.22 C 199.88 193.59 198.90 193.57 198.27 194.16 C 197.65 194.75 197.62 195.74 198.21 196.37 Z M 198.94 197.13 L 199.64 197.82 C 200.25 198.43 201.24 198.42 201.85 197.81 C 202.45 197.20 202.45 196.21 201.83 195.60 L 201.13 194.91 C 200.52 194.30 199.53 194.31 198.92 194.92 C 198.32 195.53 198.32 196.52 198.94 197.13 Z M 199.68 197.86 L 200.36 198.50 C 201.00 199.08 201.98 199.05 202.57 198.41 C 203.16 197.78 203.12 196.79 202.49 196.21 L 201.80 195.57 C 201.17 194.98 200.18 195.02 199.59 195.65 C 199.01 196.28 199.04 197.27 199.68 197.86 Z M 200.41 198.53 L 201.10 199.14 C 201.76 199.70 202.74 199.63 203.31 198.97 C 203.87 198.32 203.80 197.33 203.14 196.77 L 202.44 196.17 C 201.79 195.61 200.81 195.68 200.24 196.33 C 199.68 196.99 199.75 197.97 200.41 198.53 Z M 201.15 199.18 L 201.92 199.79 C 202.60 200.32 203.58 200.21 204.11 199.53 C 204.65 198.86 204.54 197.88 203.86 197.34 L 203.09 196.73 C 202.42 196.19 201.44 196.31 200.90 196.98 C 200.37 197.66 200.48 198.64 201.15 199.18 Z M 201.97 199.82 L 202.84 200.46 C 203.53 200.97 204.51 200.82 205.02 200.12 C 205.53 199.42 205.38 198.45 204.68 197.94 L 203.81 197.30 C 203.12 196.79 202.14 196.94 201.63 197.64 C 201.12 198.34 201.27 199.31 201.97 199.82 Z M 202.88 200.49 L 203.71 201.05 C 204.42 201.54 205.39 201.36 205.88 200.65 C 206.36 199.93 206.18 198.96 205.47 198.48 L 204.64 197.91 C 203.93 197.42 202.96 197.61 202.47 198.32 C 201.98 199.03 202.17 200.00 202.88 200.49 Z M 203.74 201.07 L 204.51 201.58 C 205.23 202.05 206.20 201.84 206.67 201.12 C 207.14 200.40 206.94 199.43 206.21 198.96 L 205.44 198.46 C 204.72 197.99 203.75 198.19 203.28 198.91 C 202.81 199.63 203.01 200.60 203.74 201.07 Z M 204.53 201.59 L 205.36 202.11 C 206.09 202.57 207.06 202.35 207.52 201.62 C 207.97 200.89 207.75 199.92 207.02 199.47 L 206.19 198.95 C 205.46 198.49 204.50 198.71 204.04 199.44 C 203.58 200.17 203.80 201.13 204.53 201.59 Z M 205.38 202.12 L 206.26 202.66 C 207.00 203.10 207.96 202.87 208.41 202.13 C 208.85 201.39 208.62 200.43 207.88 199.98 L 207.00 199.45 C 206.26 199.01 205.30 199.24 204.86 199.98 C 204.41 200.72 204.65 201.68 205.38 202.12 Z M 206.28 202.67 L 207.19 203.20 C 207.94 203.64 208.89 203.39 209.33 202.64 C 209.77 201.90 209.52 200.94 208.77 200.51 L 207.86 199.97 C 207.12 199.54 206.16 199.79 205.72 200.53 C 205.29 201.28 205.54 202.23 206.28 202.67 Z M 207.21 203.21 L 208.15 203.74 C 208.90 204.17 209.85 203.91 210.28 203.16 C 210.70 202.41 210.44 201.45 209.69 201.03 L 208.75 200.50 C 208.00 200.07 207.05 200.33 206.62 201.08 C 206.20 201.83 206.46 202.79 207.21 203.21 Z M 208.17 203.75 L 209.09 204.26 C 209.85 204.68 210.80 204.40 211.21 203.65 C 211.63 202.89 211.35 201.94 210.60 201.53 L 209.67 201.02 C 208.91 200.60 207.97 200.88 207.55 201.63 C 207.14 202.39 207.41 203.34 208.17 203.75 Z M 209.11 204.27 L 210.04 204.77 C 210.80 205.17 211.74 204.88 212.15 204.12 C 212.55 203.36 212.27 202.42 211.51 202.01 L 210.58 201.52 C 209.82 201.11 208.88 201.40 208.47 202.16 C 208.06 202.92 208.35 203.87 209.11 204.27 Z M 210.05 204.77 L 210.96 205.25 C 211.73 205.65 212.67 205.35 213.07 204.59 C 213.47 203.82 213.17 202.88 212.41 202.48 L 211.49 202.00 C 210.73 201.61 209.79 201.90 209.39 202.67 C 208.99 203.43 209.29 204.37 210.05 204.77 Z M 210.98 205.26 L 211.87 205.71 C 212.63 206.10 213.57 205.80 213.97 205.03 C 214.36 204.26 214.05 203.32 213.29 202.93 L 212.40 202.47 C 211.63 202.08 210.69 202.39 210.29 203.15 C 209.90 203.92 210.21 204.86 210.98 205.26 Z M 211.88 205.71 L 212.73 206.14 C 213.50 206.53 214.44 206.22 214.83 205.45 C 215.21 204.68 214.90 203.74 214.13 203.35 L 213.28 202.92 C 212.51 202.54 211.57 202.85 211.18 203.62 C 210.79 204.39 211.10 205.33 211.88 205.71 Z M 212.74 206.15 L 213.57 206.56 C 214.35 206.94 215.28 206.63 215.67 205.85 C 216.05 205.08 215.73 204.15 214.96 203.76 L 214.12 203.35 C 213.35 202.97 212.41 203.28 212.03 204.06 C 211.65 204.83 211.97 205.77 212.74 206.15 Z M 213.58 206.56 L 214.60 207.06 C 215.38 207.44 216.31 207.12 216.69 206.35 C 217.07 205.57 216.75 204.64 215.97 204.26 L 214.95 203.76 C 214.18 203.38 213.24 203.70 212.86 204.48 C 212.48 205.25 212.81 206.19 213.58 206.56 Z M 214.60 207.07 L 215.53 207.52 C 216.31 207.90 217.24 207.57 217.62 206.80 C 218.00 206.02 217.68 205.09 216.90 204.71 L 215.97 204.26 C 215.20 203.88 214.26 204.20 213.88 204.98 C 213.51 205.75 213.83 206.69 214.60 207.07 Z M 215.53 207.52 L 216.38 207.93 C 217.15 208.32 218.09 208.00 218.47 207.22 C 218.85 206.45 218.53 205.51 217.76 205.13 L 216.91 204.71 C 216.13 204.33 215.20 204.65 214.82 205.43 C 214.44 206.20 214.75 207.14 215.53 207.52 Z M 216.36 207.93 L 217.15 208.33 C 217.92 208.71 218.86 208.41 219.25 207.64 C 219.64 206.87 219.33 205.93 218.56 205.54 L 217.77 205.14 C 217.00 204.75 216.06 205.06 215.68 205.83 C 215.29 206.60 215.59 207.54 216.36 207.93 Z M 217.13 208.31 L 217.95 208.75 C 218.71 209.15 219.66 208.86 220.06 208.09 C 220.46 207.33 220.17 206.39 219.40 205.98 L 218.58 205.55 C 217.82 205.15 216.88 205.44 216.48 206.20 C 216.07 206.97 216.37 207.91 217.13 208.31 Z M 217.94 208.74 L 218.76 209.19 C 219.52 209.59 220.47 209.31 220.88 208.55 C 221.29 207.79 221.00 206.84 220.25 206.44 L 219.42 205.99 C 218.66 205.58 217.71 205.87 217.30 206.62 C 216.89 207.38 217.18 208.33 217.94 208.74 Z M 218.77 209.19 L 219.66 209.66 C 220.42 210.06 221.37 209.77 221.77 209.01 C 222.17 208.25 221.88 207.30 221.12 206.90 L 220.24 206.43 C 219.47 206.03 218.53 206.32 218.13 207.08 C 217.72 207.84 218.01 208.79 218.77 209.19 Z M 219.69 209.67 L 220.67 210.17 C 221.44 210.56 222.38 210.25 222.77 209.48 C 223.15 208.71 222.85 207.77 222.08 207.38 L 221.10 206.89 C 220.33 206.50 219.39 206.81 219.00 207.58 C 218.61 208.35 218.92 209.28 219.69 209.67 Z M 220.70 210.18 L 221.56 210.60 C 222.34 210.97 223.27 210.65 223.65 209.87 C 224.02 209.09 223.69 208.16 222.92 207.79 L 222.05 207.37 C 221.27 206.99 220.34 207.32 219.97 208.10 C 219.59 208.88 219.92 209.81 220.70 210.18 Z M 221.58 210.61 L 222.51 211.04 C 223.29 211.40 224.22 211.06 224.58 210.28 C 224.95 209.50 224.61 208.57 223.83 208.21 L 222.90 207.78 C 222.12 207.41 221.19 207.75 220.82 208.53 C 220.46 209.31 220.80 210.24 221.58 210.61 Z M 222.52 211.04 L 223.47 211.48 C 224.25 211.83 225.18 211.49 225.53 210.70 C 225.89 209.92 225.55 208.99 224.76 208.63 L 223.81 208.20 C 223.03 207.85 222.10 208.19 221.75 208.98 C 221.39 209.76 221.73 210.69 222.52 211.04 Z M 223.47 211.48 L 224.40 211.90 C 225.19 212.25 226.11 211.90 226.47 211.11 C 226.82 210.32 226.47 209.40 225.68 209.05 L 224.75 208.63 C 223.97 208.28 223.04 208.63 222.69 209.42 C 222.34 210.20 222.69 211.13 223.47 211.48 Z M 224.41 211.90 L 225.31 212.30 C 226.10 212.65 227.02 212.29 227.37 211.50 C 227.72 210.72 227.37 209.79 226.58 209.44 L 225.68 209.04 C 224.89 208.69 223.96 209.05 223.62 209.84 C 223.27 210.63 223.62 211.55 224.41 211.90 Z M 225.31 212.30 L 226.29 212.73 C 227.07 213.08 228.00 212.72 228.34 211.93 C 228.69 211.14 228.33 210.22 227.55 209.87 L 226.57 209.44 C 225.79 209.10 224.86 209.45 224.52 210.24 C 224.17 211.03 224.53 211.95 225.31 212.30 Z M 226.28 212.73 L 227.17 213.12 C 227.96 213.47 228.88 213.12 229.23 212.33 C 229.58 211.54 229.23 210.62 228.44 210.27 L 227.55 209.87 C 226.76 209.52 225.84 209.88 225.49 210.67 C 225.14 211.45 225.49 212.38 226.28 212.73 Z M 227.16 213.12 L 228.03 213.51 C 228.82 213.87 229.74 213.52 230.10 212.74 C 230.45 211.95 230.11 211.03 229.32 210.67 L 228.45 210.27 C 227.67 209.92 226.74 210.27 226.39 211.05 C 226.03 211.84 226.38 212.76 227.16 213.12 Z M 228.01 213.50 L 228.90 213.92 C 229.68 214.28 230.61 213.95 230.97 213.17 C 231.34 212.39 231.00 211.46 230.22 211.09 L 229.34 210.68 C 228.56 210.31 227.63 210.65 227.26 211.43 C 226.90 212.21 227.23 213.14 228.01 213.50 Z M 228.88 213.91 L 229.75 214.33 C 230.53 214.71 231.46 214.39 231.84 213.61 C 232.21 212.84 231.89 211.91 231.12 211.53 L 230.24 211.10 C 229.47 210.72 228.53 211.05 228.16 211.82 C 227.78 212.60 228.10 213.53 228.88 213.91 Z M 229.73 214.32 L 230.63 214.78 C 231.40 215.17 232.34 214.87 232.73 214.10 C 233.12 213.33 232.81 212.39 232.04 212.00 L 231.14 211.54 C 230.37 211.15 229.43 211.45 229.04 212.22 C 228.65 212.99 228.96 213.93 229.73 214.32 Z M 230.60 214.77 L 231.50 215.25 C 232.26 215.66 233.21 215.37 233.61 214.61 C 234.02 213.85 233.74 212.90 232.98 212.50 L 232.07 212.01 C 231.31 211.61 230.37 211.89 229.96 212.65 C 229.55 213.41 229.84 214.36 230.60 214.77 Z M 231.46 215.23 L 232.34 215.73 C 233.09 216.15 234.04 215.89 234.47 215.15 C 234.90 214.40 234.63 213.44 233.89 213.02 L 233.01 212.52 C 232.26 212.09 231.31 212.35 230.88 213.10 C 230.46 213.85 230.72 214.80 231.46 215.23 Z M 232.29 215.70 L 233.18 216.25 C 233.91 216.70 234.87 216.48 235.33 215.74 C 235.78 215.01 235.55 214.05 234.82 213.59 L 233.93 213.04 C 233.20 212.59 232.24 212.82 231.78 213.55 C 231.33 214.28 231.56 215.25 232.29 215.70 Z M 233.13 216.22 L 233.97 216.78 C 234.69 217.26 235.66 217.07 236.14 216.35 C 236.62 215.63 236.42 214.66 235.71 214.18 L 234.87 213.62 C 234.15 213.14 233.18 213.34 232.70 214.05 C 232.22 214.77 232.41 215.74 233.13 216.22 Z M 233.94 216.76 L 234.74 217.32 C 235.45 217.82 236.42 217.65 236.92 216.95 C 237.41 216.24 237.25 215.27 236.54 214.77 L 235.74 214.21 C 235.04 213.71 234.06 213.88 233.56 214.58 C 233.07 215.29 233.24 216.26 233.94 216.76 Z M 234.72 217.31 L 235.50 217.88 C 236.20 218.39 237.18 218.23 237.68 217.53 C 238.19 216.84 238.04 215.86 237.34 215.35 L 236.56 214.79 C 235.86 214.28 234.89 214.43 234.38 215.13 C 233.87 215.83 234.03 216.80 234.72 217.31 Z M 235.50 217.88 L 235.58 217.94 C 236.28 218.45 237.25 218.29 237.76 217.60 C 238.27 216.90 238.12 215.93 237.43 215.42 L 237.34 215.36 C 236.65 214.85 235.67 215.00 235.16 215.69 C 234.65 216.39 234.80 217.37 235.50 217.88 Z"
      fill="black"
      fill-rule="nonzero" /></svg>