<svg xmlns="http://www.w3.org/2000/svg" width="300" height="300" viewBox="0 0 300 300">
<path d="M 122.17 120.40 L 121.56 121.18 C 121.03 121.86 121.15 122.84 121.83 123.37 C 122.50 123.90 123.49 123.78 124.02 123.10 L 124.63 122.32 C 125.16 121.64 125.04 120.66 124.36 120.13 C 123.68 119.60 122.70 119.72 122.17 120.40 Z M 121.51 121.25 L 120.94 122.07 C 120.45 122.77 120.62 123.75 121.33 124.24 C 122.04 124.73 123.01 124.55 123.50 123.85 L 124.07 123.03 C 124.56 122.32 124.39 121.35 123.68 120.86 C 122.97 120.37 122.00 120.54 121.51 121.25 Z M 120.85 122.22 L 120.37 123.10 C 119.96 123.86 120.25 124.80 121.01 125.21 C 121.77 125.62 122.71 125.34 123.12 124.58 L 123.60 123.70 C 124.01 122.94 123.72 121.99 122.96 121.58 C 122.20 121.17 121.26 121.46 120.85 122.22 Z M 120.28 123.31 L 119.97 124.18 C 119.68 124.99 120.10 125.89 120.91 126.17 C 121.73 126.46 122.62 126.04 122.91 125.23 L 123.22 124.36 C 123.51 123.55 123.08 122.66 122.27 122.37 C 121.46 122.08 120.57 122.50 120.28 123.31 Z M 119.91 124.38 L 119.72 125.26 C 119.54 126.10 120.08 126.93 120.92 127.11 C 121.77 127.29 122.60 126.75 122.78 125.91 L 122.97 125.03 C 123.15 124.19 122.61 123.36 121.77 123.18 C 120.92 123.00 120.09 123.53 119.91 124.38 Z M 119.70 125.39 L 119.58 126.37 C 119.48 127.22 120.09 128.00 120.94 128.11 C 121.80 128.21 122.58 127.60 122.68 126.75 L 122.80 125.77 C 122.91 124.92 122.30 124.14 121.44 124.03 C 120.59 123.93 119.81 124.54 119.70 125.39 Z M 119.57 126.45 L 119.50 127.54 C 119.44 128.40 120.09 129.14 120.95 129.20 C 121.81 129.26 122.56 128.61 122.62 127.75 L 122.69 126.66 C 122.75 125.80 122.10 125.06 121.24 125.00 C 120.38 124.94 119.63 125.59 119.57 126.45 Z M 119.50 127.58 L 119.45 128.64 C 119.42 129.50 120.09 130.23 120.95 130.26 C 121.81 130.30 122.54 129.63 122.57 128.77 L 122.62 127.71 C 122.65 126.85 121.98 126.12 121.12 126.08 C 120.26 126.05 119.53 126.72 119.50 127.58 Z M 119.45 128.66 L 119.42 129.56 C 119.40 130.42 120.07 131.14 120.93 131.17 C 121.80 131.19 122.52 130.52 122.54 129.66 L 122.57 128.75 C 122.60 127.89 121.92 127.17 121.06 127.14 C 120.20 127.12 119.48 127.79 119.45 128.66 Z M 119.42 129.57 L 119.40 130.52 C 119.38 131.38 120.06 132.10 120.92 132.12 C 121.78 132.14 122.50 131.46 122.52 130.60 L 122.55 129.65 C 122.57 128.78 121.89 128.07 121.02 128.05 C 120.16 128.02 119.45 128.70 119.42 129.57 Z M 119.40 130.53 L 119.38 131.53 C 119.36 132.40 120.05 133.11 120.91 133.13 C 121.77 133.14 122.48 132.46 122.50 131.60 L 122.52 130.59 C 122.54 129.73 121.85 129.02 120.99 129.00 C 120.13 128.98 119.42 129.67 119.40 130.53 Z M 119.38 131.54 L 119.36 132.59 C 119.35 133.45 120.04 134.16 120.90 134.17 C 121.76 134.18 122.47 133.50 122.48 132.63 L 122.50 131.59 C 122.51 130.73 121.83 130.02 120.96 130.00 C 120.10 129.99 119.39 130.68 119.38 131.54 Z M 119.36 132.59 L 119.35 133.67 C 119.34 134.53 120.03 135.24 120.89 135.25 C 121.75 135.26 122.46 134.57 122.47 133.71 L 122.49 132.63 C 122.50 131.77 121.80 131.06 120.94 131.05 C 120.08 131.04 119.37 131.73 119.36 132.59 Z M 119.35 133.67 L 119.34 134.74 C 119.33 135.61 120.03 136.31 120.89 136.32 C 121.75 136.33 122.46 135.63 122.46 134.77 L 122.47 133.70 C 122.48 132.84 121.79 132.13 120.92 132.13 C 120.06 132.12 119.36 132.81 119.35 133.67 Z M 119.34 134.75 L 119.33 135.76 C 119.33 136.62 120.02 137.32 120.89 137.33 C 121.75 137.33 122.45 136.64 122.46 135.78 L 122.46 134.77 C 122.47 133.91 121.77 133.20 120.91 133.20 C 120.05 133.19 119.35 133.89 119.34 134.75 Z M 119.33 135.76 L 119.33 136.78 C 119.33 137.64 120.02 138.34 120.88 138.35 C 121.75 138.35 122.45 137.66 122.45 136.79 L 122.46 135.78 C 122.46 134.91 121.76 134.21 120.90 134.21 C 120.04 134.20 119.34 134.90 119.33 135.76 Z M 119.33 136.78 L 119.33 137.80 C 119.32 138.66 120.02 139.36 120.88 139.37 C 121.75 139.37 122.45 138.67 122.45 137.81 L 122.45 136.79 C 122.45 135.93 121.76 135.23 120.90 135.23 C 120.03 135.22 119.33 135.92 119.33 136.78 Z M 119.33 137.80 L 119.33 138.81 C 119.32 139.67 120.02 140.37 120.88 140.38 C 121.75 140.38 122.45 139.68 122.45 138.82 L 122.45 137.81 C 122.45 136.94 121.75 136.24 120.89 136.24 C 120.03 136.24 119.33 136.94 119.33 137.80 Z M 119.33 138.81 L 119.33 139.81 C 119.32 140.67 120.02 141.37 120.89 141.37 C 121.75 141.37 122.45 140.67 122.45 139.81 L 122.45 138.82 C 122.45 137.95 121.75 137.25 120.89 137.25 C 120.03 137.25 119.33 137.95 119.33 138.81 Z M 119.33 139.81 L 119.32 140.78 C 119.32 141.64 120.02 142.34 120.89 142.34 C 121.75 142.34 122.45 141.64 122.45 140.78 L 122.45 139.81 C 122.45 138.95 121.75 138.25 120.89 138.25 C 120.02 138.25 119.33 138.95 119.33 139.81 Z M 119.32 140.78 L 119.32 141.84 C 119.32 142.70 120.02 143.40 120.89 143.40 C 121.75 143.40 122.45 142.70 122.45 141.84 L 122.45 140.78 C 122.45 139.92 121.75 139.22 120.89 139.22 C 120.02 139.22 119.32 139.92 119.32 140.78 Z M 119.32 141.84 L 119.32 142.95 C 119.32 143.81 120.02 144.51 120.89 144.51 C 121.75 144.51 122.45 143.81 122.45 142.95 L 122.45 141.84 C 122.45 140.98 121.75 140.28 120.89 140.28 C 120.02 140.28 119.32 140.98 119.32 141.84 Z M 119.32 142.95 L 119.32 144.00 C 119.32 144.86 120.02 145.56 120.89 145.56 C 121.75 145.56 122.45 144.86 122.45 144.00 L 122.45 142.95 C 122.45 142.09 121.75 141.39 120.89 141.39 C 120.02 141.39 119.32 142.09 119.32 142.95 Z M 119.32 144.00 L 119.32 144.98 C 119.32 145.84 120.02 146.54 120.89 146.54 C 121.75 146.54 122.45 145.84 122.45 144.98 L 122.45 144.00 C 122.45 143.13 121.75 142.43 120.89 142.43 C 120.02 142.43 119.32 143.13 119.32 144.00 Z M 119.32 144.98 L 119.32 145.90 C 119.32 146.76 120.02 147.46 120.89 147.46 C 121.75 147.46 122.45 146.76 122.45 145.90 L 122.45 144.98 C 122.45 144.12 121.75 143.42 120.89 143.42 C 120.02 143.42 119.32 144.12 119.32 144.98 Z M 119.32 145.90 L 119.32 146.78 C 119.32 147.64 120.02 148.34 120.89 148.34 C 121.75 148.34 122.45 147.64 122.45 146.78 L 122.45 145.90 C 122.45 145.03 121.75 144.33 120.89 144.33 C 120.02 144.33 119.32 145.03 119.32 145.90 Z M 119.32 146.78 L 119.33 147.90 C 119.33 148.76 120.03 149.46 120.89 149.46 C 121.75 149.46 122.45 148.76 122.45 147.90 L 122.45 146.78 C 122.45 145.91 121.75 145.21 120.88 145.22 C 120.02 145.22 119.32 145.92 119.32 146.78 Z M 119.33 147.91 L 119.33 148.91 C 119.34 149.77 120.04 150.46 120.90 150.46 C 121.77 150.45 122.46 149.75 122.46 148.89 L 122.45 147.89 C 122.44 147.02 121.74 146.33 120.88 146.34 C 120.01 146.34 119.32 147.05 119.33 147.91 Z M 119.33 148.93 L 119.35 149.85 C 119.37 150.71 120.08 151.40 120.94 151.38 C 121.80 151.36 122.49 150.65 122.47 149.79 L 122.45 148.87 C 122.44 148.01 121.73 147.32 120.86 147.34 C 120.00 147.35 119.32 148.07 119.33 148.93 Z M 119.35 149.88 L 119.39 150.82 C 119.42 151.68 120.15 152.35 121.01 152.32 C 121.87 152.29 122.54 151.56 122.51 150.70 L 122.47 149.76 C 122.44 148.90 121.71 148.23 120.85 148.26 C 119.99 148.29 119.32 149.02 119.35 149.88 Z M 119.39 150.86 L 119.45 151.86 C 119.51 152.72 120.25 153.37 121.11 153.32 C 121.97 153.26 122.62 152.52 122.57 151.66 L 122.51 150.66 C 122.45 149.80 121.71 149.15 120.85 149.20 C 119.99 149.26 119.34 150.00 119.39 150.86 Z M 119.46 151.90 L 119.55 152.89 C 119.62 153.75 120.38 154.39 121.24 154.31 C 122.10 154.23 122.73 153.47 122.66 152.61 L 122.57 151.62 C 122.49 150.76 121.73 150.13 120.87 150.21 C 120.01 150.28 119.38 151.04 119.46 151.90 Z M 119.55 152.94 L 119.67 153.92 C 119.77 154.78 120.54 155.39 121.40 155.29 C 122.26 155.19 122.87 154.42 122.77 153.56 L 122.65 152.57 C 122.55 151.71 121.77 151.10 120.92 151.20 C 120.06 151.30 119.45 152.08 119.55 152.94 Z M 119.67 153.96 L 119.81 154.95 C 119.93 155.80 120.73 156.39 121.58 156.27 C 122.43 156.15 123.03 155.36 122.90 154.50 L 122.76 153.52 C 122.64 152.67 121.85 152.07 121.00 152.20 C 120.14 152.32 119.55 153.11 119.67 153.96 Z M 119.82 154.97 L 119.97 155.96 C 120.11 156.81 120.91 157.39 121.76 157.25 C 122.61 157.12 123.19 156.32 123.06 155.47 L 122.90 154.48 C 122.76 153.63 121.96 153.05 121.11 153.18 C 120.26 153.32 119.68 154.12 119.82 154.97 Z M 119.97 155.96 L 120.14 156.96 C 120.28 157.81 121.08 158.39 121.93 158.25 C 122.78 158.11 123.36 157.31 123.22 156.46 L 123.05 155.46 C 122.92 154.61 122.11 154.03 121.26 154.17 C 120.41 154.31 119.83 155.11 119.97 155.96 Z M 120.14 156.96 L 120.29 157.93 C 120.43 158.78 121.23 159.36 122.08 159.22 C 122.93 159.09 123.51 158.29 123.38 157.43 L 123.22 156.46 C 123.08 155.61 122.28 155.03 121.43 155.17 C 120.58 155.30 120.00 156.10 120.14 156.96 Z M 120.29 157.93 L 120.45 158.91 C 120.58 159.76 121.38 160.34 122.23 160.21 C 123.08 160.08 123.67 159.28 123.53 158.43 L 123.38 157.44 C 123.24 156.59 122.44 156.01 121.59 156.14 C 120.74 156.27 120.16 157.07 120.29 157.93 Z M 120.45 158.91 L 120.60 159.91 C 120.74 160.76 121.53 161.34 122.39 161.21 C 123.24 161.07 123.82 160.28 123.69 159.42 L 123.53 158.43 C 123.40 157.58 122.60 156.99 121.75 157.13 C 120.90 157.26 120.31 158.06 120.45 158.91 Z M 120.60 159.91 L 120.76 160.89 C 120.89 161.74 121.69 162.33 122.54 162.19 C 123.39 162.06 123.98 161.26 123.84 160.41 L 123.69 159.42 C 123.55 158.57 122.76 157.99 121.90 158.12 C 121.05 158.26 120.47 159.05 120.60 159.91 Z M 120.76 160.89 L 120.91 161.87 C 121.04 162.72 121.84 163.31 122.69 163.18 C 123.54 163.04 124.13 162.25 123.99 161.39 L 123.84 160.41 C 123.71 159.56 122.91 158.98 122.06 159.11 C 121.21 159.24 120.62 160.04 120.76 160.89 Z M 120.91 161.86 L 121.06 162.86 C 121.18 163.71 121.98 164.30 122.83 164.17 C 123.68 164.04 124.27 163.25 124.14 162.39 L 124.00 161.40 C 123.87 160.55 123.07 159.96 122.22 160.09 C 121.37 160.22 120.78 161.01 120.91 161.86 Z M 121.05 162.84 L 121.19 163.84 C 121.31 164.69 122.10 165.29 122.96 165.17 C 123.81 165.05 124.41 164.26 124.29 163.41 L 124.15 162.41 C 124.03 161.56 123.24 160.96 122.38 161.08 C 121.53 161.20 120.93 161.99 121.05 162.84 Z M 121.19 163.82 L 121.32 164.80 C 121.43 165.66 122.21 166.26 123.06 166.15 C 123.92 166.04 124.52 165.26 124.41 164.41 L 124.29 163.43 C 124.18 162.57 123.40 161.97 122.54 162.08 C 121.69 162.18 121.08 162.97 121.19 163.82 Z M 121.31 164.79 L 121.43 165.78 C 121.53 166.64 122.31 167.25 123.17 167.15 C 124.02 167.04 124.63 166.27 124.53 165.41 L 124.42 164.42 C 124.31 163.56 123.54 162.95 122.68 163.05 C 121.82 163.16 121.21 163.93 121.31 164.79 Z M 121.43 165.77 L 121.54 166.77 C 121.64 167.63 122.41 168.25 123.27 168.15 C 124.13 168.05 124.74 167.28 124.65 166.42 L 124.53 165.42 C 124.44 164.56 123.66 163.95 122.81 164.04 C 121.95 164.14 121.33 164.91 121.43 165.77 Z M 121.54 166.77 L 121.65 167.76 C 121.75 168.62 122.52 169.24 123.38 169.14 C 124.23 169.05 124.85 168.28 124.76 167.42 L 124.65 166.43 C 124.55 165.57 123.78 164.95 122.92 165.05 C 122.07 165.14 121.45 165.91 121.54 166.77 Z M 121.65 167.76 L 121.76 168.75 C 121.85 169.60 122.62 170.22 123.48 170.13 C 124.34 170.04 124.96 169.27 124.86 168.41 L 124.76 167.42 C 124.66 166.56 123.89 165.95 123.04 166.04 C 122.18 166.13 121.56 166.90 121.65 167.76 Z M 121.76 168.74 L 121.87 169.74 C 121.96 170.60 122.73 171.22 123.58 171.13 C 124.44 171.03 125.06 170.27 124.97 169.41 L 124.86 168.41 C 124.77 167.55 124.00 166.93 123.15 167.02 C 122.29 167.12 121.67 167.88 121.76 168.74 Z M 121.86 169.73 L 121.97 170.74 C 122.06 171.60 122.82 172.22 123.68 172.13 C 124.54 172.04 125.16 171.28 125.07 170.42 L 124.97 169.41 C 124.88 168.56 124.11 167.93 123.26 168.02 C 122.40 168.11 121.78 168.88 121.86 169.73 Z M 121.97 170.74 L 122.07 171.72 C 122.15 172.58 122.92 173.21 123.78 173.12 C 124.63 173.03 125.26 172.27 125.17 171.41 L 125.08 170.42 C 124.99 169.57 124.22 168.94 123.37 169.03 C 122.51 169.11 121.88 169.88 121.97 170.74 Z M 122.07 171.72 L 122.16 172.71 C 122.24 173.57 123.01 174.19 123.87 174.11 C 124.72 174.03 125.35 173.27 125.27 172.41 L 125.17 171.42 C 125.09 170.56 124.33 169.93 123.47 170.01 C 122.61 170.10 121.98 170.86 122.07 171.72 Z M 122.16 172.70 L 122.25 173.70 C 122.33 174.56 123.09 175.19 123.95 175.11 C 124.81 175.03 125.44 174.27 125.36 173.41 L 125.27 172.42 C 125.19 171.56 124.43 170.92 123.57 171.00 C 122.71 171.08 122.08 171.84 122.16 172.70 Z M 122.25 173.69 L 122.34 174.70 C 122.41 175.56 123.17 176.19 124.03 176.12 C 124.89 176.05 125.53 175.29 125.45 174.43 L 125.36 173.42 C 125.29 172.56 124.53 171.93 123.67 172.00 C 122.81 172.08 122.18 172.83 122.25 173.69 Z M 122.34 174.69 L 122.42 175.69 C 122.49 176.55 123.24 177.19 124.10 177.12 C 124.96 177.05 125.60 176.29 125.53 175.43 L 125.45 174.44 C 125.38 173.58 124.63 172.94 123.77 173.01 C 122.91 173.08 122.27 173.83 122.34 174.69 Z M 122.42 175.68 L 122.50 176.68 C 122.56 177.54 123.31 178.18 124.17 178.12 C 125.03 178.05 125.68 177.30 125.61 176.44 L 125.53 175.44 C 125.47 174.58 124.72 173.94 123.86 174.00 C 123.00 174.07 122.35 174.82 122.42 175.68 Z M 122.50 176.67 L 122.57 177.67 C 122.63 178.53 123.38 179.18 124.24 179.12 C 125.10 179.05 125.75 178.30 125.68 177.44 L 125.61 176.44 C 125.55 175.58 124.80 174.94 123.94 175.00 C 123.08 175.07 122.43 175.81 122.50 176.67 Z M 122.57 177.67 L 122.64 178.66 C 122.70 179.52 123.45 180.17 124.31 180.11 C 125.17 180.05 125.82 179.30 125.75 178.44 L 125.68 177.45 C 125.62 176.59 124.88 175.94 124.02 176.00 C 123.16 176.06 122.51 176.81 122.57 177.67 Z M 122.64 178.66 L 122.71 179.68 C 122.77 180.54 123.51 181.19 124.37 181.13 C 125.23 181.07 125.88 180.32 125.83 179.46 L 125.76 178.45 C 125.70 177.59 124.95 176.94 124.09 177.00 C 123.23 177.06 122.58 177.80 122.64 178.66 Z M 122.71 179.67 L 122.78 180.68 C 122.83 181.54 123.58 182.19 124.44 182.13 C 125.30 182.08 125.95 181.33 125.89 180.47 L 125.83 179.47 C 125.77 178.61 125.03 177.96 124.17 178.01 C 123.30 178.07 122.65 178.81 122.71 179.67 Z M 122.78 180.67 L 122.84 181.66 C 122.89 182.52 123.63 183.18 124.49 183.12 C 125.35 183.07 126.01 182.33 125.95 181.47 L 125.89 180.48 C 125.84 179.62 125.10 178.96 124.24 179.02 C 123.38 179.07 122.72 179.81 122.78 180.67 Z M 122.84 181.65 L 122.89 182.64 C 122.94 183.50 123.68 184.16 124.54 184.11 C 125.40 184.07 126.06 183.33 126.01 182.47 L 125.95 181.48 C 125.91 180.62 125.17 179.96 124.31 180.01 C 123.45 180.05 122.79 180.79 122.84 181.65 Z M 122.89 182.63 L 122.94 183.66 C 122.98 184.53 123.72 185.19 124.58 185.15 C 125.44 185.10 126.10 184.37 126.06 183.51 L 126.01 182.48 C 125.97 181.62 125.23 180.95 124.37 181.00 C 123.51 181.04 122.85 181.77 122.89 182.63 Z M 122.94 183.66 L 122.99 184.66 C 123.02 185.52 123.75 186.19 124.61 186.15 C 125.48 186.11 126.14 185.38 126.11 184.52 L 126.06 183.52 C 126.02 182.66 125.29 181.99 124.43 182.03 C 123.57 182.07 122.90 182.80 122.94 183.66 Z M 122.99 184.65 L 123.02 185.62 C 123.06 186.49 123.79 187.16 124.65 187.12 C 125.51 187.09 126.18 186.36 126.14 185.50 L 126.11 184.53 C 126.07 183.67 125.34 183.00 124.48 183.03 C 123.62 183.07 122.95 183.79 122.99 184.65 Z M 123.02 185.62 L 123.06 186.61 C 123.10 187.47 123.82 188.14 124.68 188.11 C 125.54 188.08 126.22 187.35 126.18 186.49 L 126.14 185.50 C 126.11 184.64 125.39 183.97 124.52 184.00 C 123.66 184.03 122.99 184.76 123.02 185.62 Z M 123.06 186.61 L 123.10 187.60 C 123.13 188.46 123.86 189.13 124.72 189.10 C 125.58 189.07 126.25 188.34 126.22 187.48 L 126.18 186.49 C 126.15 185.63 125.43 184.96 124.56 184.99 C 123.70 185.02 123.03 185.75 123.06 186.61 Z M 123.10 187.60 L 123.14 188.59 C 123.17 189.45 123.89 190.12 124.76 190.09 C 125.62 190.06 126.29 189.34 126.26 188.47 L 126.22 187.48 C 126.19 186.62 125.46 185.95 124.60 185.98 C 123.74 186.01 123.07 186.74 123.10 187.60 Z M 123.14 188.59 L 123.18 189.59 C 123.21 190.45 123.93 191.13 124.79 191.09 C 125.66 191.06 126.33 190.33 126.30 189.47 L 126.26 188.47 C 126.22 187.61 125.50 186.94 124.64 186.97 C 123.78 187.01 123.10 187.73 123.14 188.59 Z M 123.18 189.59 L 123.21 190.60 C 123.25 191.46 123.97 192.13 124.83 192.10 C 125.69 192.06 126.37 191.34 126.33 190.48 L 126.30 189.47 C 126.26 188.61 125.54 187.94 124.68 187.97 C 123.81 188.01 123.14 188.73 123.18 189.59 Z M 123.21 190.59 L 123.25 191.60 C 123.28 192.46 124.00 193.14 124.86 193.11 C 125.72 193.08 126.40 192.35 126.37 191.49 L 126.33 190.48 C 126.30 189.62 125.58 188.95 124.72 188.98 C 123.86 189.01 123.18 189.73 123.21 190.59 Z M 123.25 191.59 L 123.27 192.58 C 123.30 193.44 124.01 194.12 124.88 194.10 C 125.74 194.07 126.42 193.36 126.40 192.49 L 126.37 191.50 C 126.35 190.64 125.63 189.96 124.77 189.99 C 123.90 190.01 123.22 190.73 123.25 191.59 Z M 123.27 192.56 L 123.29 193.49 C 123.30 194.35 124.01 195.04 124.87 195.03 C 125.74 195.01 126.42 194.30 126.41 193.44 L 126.40 192.51 C 126.38 191.65 125.67 190.96 124.81 190.97 C 123.95 190.99 123.26 191.70 123.27 192.56 Z M 123.29 193.48 L 123.29 194.43 C 123.30 195.30 124.00 195.99 124.87 195.98 C 125.73 195.98 126.42 195.27 126.42 194.41 L 126.41 193.46 C 126.40 192.59 125.70 191.90 124.84 191.91 C 123.98 191.91 123.28 192.62 123.29 193.48 Z M 123.29 194.43 L 123.30 195.47 C 123.30 196.33 124.00 197.03 124.86 197.03 C 125.72 197.03 126.42 196.33 126.42 195.47 L 126.42 194.42 C 126.42 193.56 125.72 192.86 124.85 192.86 C 123.99 192.86 123.29 193.56 123.29 194.43 Z M 123.30 195.47 L 123.30 196.47 C 123.30 197.34 124.00 198.03 124.86 198.03 C 125.72 198.03 126.42 197.34 126.42 196.47 L 126.42 195.47 C 126.42 194.61 125.72 193.91 124.86 193.91 C 124.00 193.91 123.30 194.61 123.30 195.47 Z M 123.30 196.47 L 123.30 197.41 C 123.30 198.28 124.00 198.98 124.86 198.98 C 125.72 198.98 126.42 198.28 126.42 197.41 L 126.42 196.47 C 126.42 195.61 125.72 194.91 124.86 194.91 C 124.00 194.91 123.30 195.61 123.30 196.47 Z M 123.30 197.41 L 123.30 198.42 C 123.30 199.28 124.00 199.98 124.86 199.98 C 125.72 199.98 126.42 199.28 126.42 198.42 L 126.42 197.41 C 126.42 196.55 125.72 195.85 124.86 195.85 C 124.00 195.85 123.30 196.55 123.30 197.41 Z M 123.30 198.42 L 123.30 199.46 C 123.30 200.32 124.00 201.02 124.86 201.02 C 125.72 201.02 126.42 200.32 126.42 199.46 L 126.42 198.42 C 126.42 197.55 125.72 196.85 124.86 196.85 C 124.00 196.85 123.30 197.55 123.30 198.42 Z M 123.30 199.46 L 123.30 200.52 C 123.30 201.38 124.00 202.08 124.86 202.08 C 125.72 202.08 126.42 201.38 126.42 200.52 L 126.42 199.46 C 126.42 198.60 125.72 197.90 124.86 197.90 C 124.00 197.90 123.30 198.60 123.30 199.46 Z M 123.30 200.52 L 123.30 201.55 C 123.30 202.42 124.00 203.11 124.86 203.11 C 125.72 203.11 126.42 202.42 126.42 201.55 L 126.42 200.52 C 126.42 199.65 125.72 198.96 124.86 198.96 C 124.00 198.96 123.30 199.65 123.30 200.52 Z M 123.30 201.55 L 123.30 202.57 C 123.30 203.43 124.00 204.13 124.86 204.13 C 125.72 204.13 126.42 203.43 126.42 202.57 L 126.42 201.55 C 126.42 200.69 125.72 199.99 124.86 199.99 C 124.00 199.99 123.30 200.69 123.30 201.55 Z M 123.30 202.57 L 123.30 203.57 C 123.30 204.43 124.00 205.13 124.86 205.13 C 125.72 205.13 126.42 204.43 126.42 203.57 L 126.42 202.57 C 126.42 201.70 125.72 201.01 124.86 201.01 C 124.00 201.01 123.30 201.70 123.30 202.57 Z M 123.30 203.57 L 123.30 204.56 C 123.30 205.43 124.00 206.13 124.86 206.13 C 125.72 206.13 126.42 205.43 126.42 204.56 L 126.42 203.57 C 126.42 202.71 125.72 202.01 124.86 202.01 C 124.00 202.01 123.30 202.71 123.30 203.57 Z M 123.30 204.56 L 123.30 205.55 C 123.30 206.41 124.00 207.11 124.86 207.11 C 125.72 207.11 126.42 206.41 126.42 205.55 L 126.42 204.56 C 126.42 203.70 125.72 203.00 124.86 203.00 C 124.00 203.00 123.30 203.70 123.30 204.56 Z M 123.30 205.55 L 123.30 206.55 C 123.30 207.42 124.00 208.11 124.86 208.11 C 125.72 208.11 126.42 207.42 126.42 206.55 L 126.42 205.55 C 126.42 204.68 125.72 203.99 124.86 203.99 C 124.00 203.99 123.30 204.68 123.30 205.55 Z M 123.30 206.55 L 123.30 207.57 C 123.30 208.43 124.00 209.13 124.86 209.13 C 125.72 209.13 126.42 208.43 126.42 207.57 L 126.42 206.55 C 126.42 205.69 125.72 204.99 124.86 204.99 C 124.00 204.99 123.30 205.69 123.30 206.55 Z M 123.30 207.57 L 123.30 208.57 C 123.30 209.43 124.00 210.13 124.86 210.13 C 125.72 210.13 126.42 209.43 126.42 208.57 L 126.42 207.57 C 126.42 206.71 125.72 206.01 124.86 206.01 C 124.00 206.01 123.30 206.71 123.30 207.57 Z M 123.30 208.57 L 123.30 209.56 C 123.30 210.42 124.00 211.12 124.86 211.12 C 125.72 211.12 126.42 210.42 126.42 209.56 L 126.42 208.57 C 126.42 207.71 125.72 207.01 124.86 207.01 C 124.00 207.01 123.30 207.71 123.30 208.57 Z M 123.30 209.56 L 123.30 210.54 C 123.30 211.40 124.00 212.10 124.86 212.10 C 125.72 212.10 126.42 211.40 126.42 210.54 L 126.42 209.56 C 126.42 208.70 125.72 208.00 124.86 208.00 C 124.00 208.00 123.30 208.70 123.30 209.56 Z M 123.30 210.54 L 123.30 211.57 C 123.30 212.43 124.00 213.13 124.86 213.13 C 125.72 213.13 126.42 212.43 126.42 211.57 L 126.42 210.54 C 126.42 209.68 125.72 208.98 124.86 208.98 C 124.00 208.98 123.30 209.68 123.30 210.54 Z M 123.30 211.57 L 123.30 212.58 C 123.30 213.45 124.00 214.15 124.86 214.15 C 125.72 214.15 126.42 213.45 126.42 212.58 L 126.42 211.57 C 126.42 210.70 125.72 210.01 124.86 210.01 C 124.00 210.01 123.30 210.70 123.30 211.57 Z M 123.30 212.58 L 123.30 213.58 C 123.30 214.45 124.00 215.15 124.86 215.15 C 125.72 215.15 126.42 214.45 126.42 213.58 L 126.42 212.58 C 126.42 211.72 125.72 211.02 124.86 211.02 C 124.00 211.02 123.30 211.72 123.30 212.58 Z M 123.30 213.58 L 123.30 214.56 C 123.30 215.42 124.00 216.12 124.86 216.12 C 125.72 216.12 126.42 215.42 126.42 214.56 L 126.42 213.58 C 126.42 212.72 125.72 212.02 124.86 212.02 C 124.00 212.02 123.30 212.72 123.30 213.58 Z M 123.30 214.56 L 123.30 215.56 C 123.30 216.42 124.00 217.12 124.86 217.12 C 125.72 217.12 126.42 216.42 126.42 215.56 L 126.42 214.56 C 126.42 213.70 125.72 213.00 124.86 213.00 C 124.00 213.00 123.30 213.70 123.30 214.56 Z M 123.30 215.56 L 123.30 216.58 C 123.30 217.45 124.00 218.15 124.86 218.15 C 125.72 218.15 126.42 217.45 126.42 216.58 L 126.42 215.56 C 126.42 214.69 125.72 214.00 124.86 214.00 C 124.00 214.00 123.30 214.69 123.30 215.56 Z M 123.30 216.58 L 123.30 217.58 C 123.30 218.45 124.00 219.15 124.86 219.15 C 125.72 219.15 126.42 218.45 126.42 217.58 L 126.42 216.58 C 126.42 215.72 125.72 215.02 124.86 215.02 C 124.00 215.02 123.30 215.72 123.30 216.58 Z M 123.30 217.58 L 123.30 218.56 C 123.30 219.42 124.00 220.12 124.86 220.12 C 125.72 220.12 126.42 219.42 126.42 218.56 L 126.42 217.58 C 126.42 216.72 125.72 216.02 124.86 216.02 C 124.00 216.02 123.30 216.72 123.30 217.58 Z M 123.30 218.56 L 123.30 219.54 C 123.30 220.40 124.00 221.10 124.86 221.10 C 125.72 221.10 126.42 220.40 126.42 219.54 L 126.42 218.56 C 126.42 217.70 125.72 217.00 124.86 217.00 C 124.00 217.00 123.30 217.70 123.30 218.56 Z M 123.30 219.54 L 123.30 220.53 C 123.30 221.39 124.00 222.09 124.86 222.09 C 125.73 222.09 126.42 221.39 126.42 220.52 L 126.42 219.53 C 126.42 218.67 125.72 217.97 124.85 217.98 C 123.99 217.98 123.29 218.68 123.30 219.54 Z M 123.30 220.54 L 123.31 221.53 C 123.31 222.39 124.02 223.09 124.88 223.08 C 125.74 223.07 126.44 222.37 126.43 221.51 L 126.42 220.51 C 126.41 219.65 125.71 218.96 124.85 218.97 C 123.98 218.97 123.29 219.68 123.30 220.54 Z M 123.31 221.55 L 123.33 222.55 C 123.34 223.42 124.05 224.10 124.92 224.09 C 125.78 224.07 126.46 223.36 126.45 222.50 L 126.43 221.49 C 126.41 220.63 125.70 219.94 124.84 219.96 C 123.98 219.97 123.29 220.69 123.31 221.55 Z M 123.33 222.58 L 123.36 223.59 C 123.39 224.45 124.11 225.13 124.97 225.10 C 125.83 225.07 126.51 224.35 126.48 223.49 L 126.45 222.47 C 126.42 221.61 125.70 220.94 124.84 220.97 C 123.97 220.99 123.30 221.72 123.33 222.58 Z M 123.36 223.63 L 123.42 224.65 C 123.47 225.51 124.21 226.16 125.07 226.11 C 125.93 226.06 126.59 225.33 126.54 224.47 L 126.48 223.45 C 126.43 222.59 125.69 221.93 124.83 221.98 C 123.97 222.03 123.31 222.77 123.36 223.63 Z M 123.43 224.71 L 123.53 225.72 C 123.61 226.58 124.38 227.20 125.24 227.12 C 126.10 227.03 126.72 226.26 126.63 225.41 L 126.53 224.40 C 126.45 223.54 125.68 222.92 124.82 223.00 C 123.96 223.09 123.34 223.86 123.43 224.71 Z M 123.54 225.82 L 123.70 226.79 C 123.85 227.64 124.65 228.22 125.50 228.07 C 126.35 227.93 126.93 227.13 126.78 226.28 L 126.62 225.31 C 126.48 224.46 125.67 223.88 124.82 224.02 C 123.97 224.17 123.40 224.97 123.54 225.82 Z M 123.73 226.94 L 123.99 227.90 C 124.21 228.73 125.07 229.23 125.90 229.01 C 126.73 228.78 127.23 227.93 127.01 227.10 L 126.75 226.13 C 126.53 225.30 125.67 224.80 124.84 225.03 C 124.01 225.25 123.51 226.10 123.73 226.94 Z M 124.05 228.08 L 124.42 229.00 C 124.74 229.80 125.65 230.19 126.45 229.87 C 127.25 229.55 127.64 228.64 127.32 227.84 L 126.95 226.92 C 126.63 226.12 125.72 225.73 124.92 226.05 C 124.12 226.37 123.73 227.28 124.05 228.08 Z M 124.50 229.18 L 124.98 230.04 C 125.40 230.79 126.35 231.07 127.10 230.65 C 127.86 230.23 128.13 229.28 127.71 228.53 L 127.24 227.67 C 126.82 226.91 125.87 226.64 125.11 227.06 C 124.36 227.47 124.09 228.42 124.50 229.18 Z M 125.08 230.20 L 125.66 231.01 C 126.17 231.71 127.14 231.87 127.84 231.36 C 128.54 230.86 128.70 229.88 128.20 229.18 L 127.61 228.37 C 127.11 227.67 126.13 227.51 125.43 228.02 C 124.73 228.52 124.58 229.50 125.08 230.20 Z M 125.76 231.13 L 126.41 231.87 C 126.99 232.51 127.97 232.57 128.62 232.00 C 129.26 231.43 129.32 230.44 128.75 229.80 L 128.10 229.06 C 127.53 228.42 126.54 228.36 125.90 228.93 C 125.25 229.50 125.19 230.49 125.76 231.13 Z M 126.51 231.96 L 127.24 232.66 C 127.86 233.25 128.85 233.22 129.44 232.60 C 130.04 231.97 130.01 230.98 129.39 230.39 L 128.66 229.70 C 128.03 229.11 127.04 229.13 126.45 229.76 C 125.86 230.38 125.88 231.37 126.51 231.96 Z M 127.33 232.74 L 128.12 233.37 C 128.79 233.91 129.77 233.81 130.31 233.14 C 130.85 232.47 130.75 231.49 130.08 230.94 L 129.29 230.31 C 128.62 229.77 127.64 229.87 127.10 230.54 C 126.56 231.21 126.66 232.20 127.33 232.74 Z M 128.22 233.45 L 129.05 234.02 C 129.76 234.50 130.73 234.32 131.22 233.61 C 131.70 232.90 131.52 231.93 130.81 231.44 L 129.98 230.87 C 129.27 230.38 128.30 230.56 127.81 231.28 C 127.32 231.99 127.50 232.96 128.22 233.45 Z M 129.15 234.08 L 130.04 234.59 C 130.79 235.02 131.75 234.76 132.17 234.01 C 132.60 233.26 132.34 232.31 131.59 231.88 L 130.70 231.37 C 129.96 230.94 129.00 231.20 128.57 231.95 C 128.15 232.70 128.41 233.66 129.15 234.08 Z M 130.15 234.65 L 131.06 235.08 C 131.84 235.44 132.77 235.11 133.14 234.33 C 133.50 233.55 133.17 232.62 132.39 232.25 L 131.49 231.82 C 130.71 231.46 129.78 231.79 129.41 232.57 C 129.04 233.35 129.37 234.28 130.15 234.65 Z M 131.16 235.12 L 132.08 235.47 C 132.88 235.79 133.78 235.39 134.10 234.58 C 134.41 233.78 134.01 232.87 133.20 232.56 L 132.29 232.21 C 131.48 231.90 130.58 232.30 130.27 233.10 C 129.96 233.90 130.36 234.81 131.16 235.12 Z M 132.17 235.51 L 133.10 235.80 C 133.92 236.06 134.80 235.60 135.06 234.78 C 135.32 233.96 134.86 233.08 134.04 232.82 L 133.11 232.53 C 132.29 232.27 131.41 232.73 131.15 233.55 C 130.89 234.37 131.35 235.25 132.17 235.51 Z M 133.19 235.83 L 134.14 236.06 C 134.98 236.27 135.83 235.76 136.04 234.92 C 136.24 234.09 135.73 233.24 134.90 233.03 L 133.95 232.80 C 133.11 232.59 132.26 233.10 132.05 233.93 C 131.85 234.77 132.36 235.62 133.19 235.83 Z M 134.24 236.08 L 135.21 236.26 C 136.06 236.42 136.88 235.86 137.03 235.02 C 137.19 234.17 136.63 233.35 135.79 233.20 L 134.81 233.01 C 133.96 232.86 133.14 233.41 132.99 234.26 C 132.83 235.11 133.39 235.93 134.24 236.08 Z M 135.30 236.28 L 136.32 236.41 C 137.18 236.52 137.96 235.92 138.07 235.06 C 138.18 234.21 137.58 233.43 136.72 233.32 L 135.70 233.18 C 134.85 233.07 134.06 233.67 133.95 234.53 C 133.84 235.38 134.44 236.17 135.30 236.28 Z M 136.39 236.42 L 137.35 236.50 C 138.21 236.58 138.97 235.94 139.04 235.08 C 139.11 234.22 138.48 233.46 137.62 233.39 L 136.66 233.31 C 135.80 233.23 135.04 233.87 134.97 234.73 C 134.89 235.59 135.53 236.34 136.39 236.42 Z M 137.40 236.50 L 138.40 236.56 C 139.26 236.60 139.99 235.94 140.04 235.08 C 140.09 234.22 139.43 233.49 138.56 233.44 L 137.57 233.39 C 136.71 233.34 135.97 234.00 135.93 234.86 C 135.88 235.72 136.54 236.46 137.40 236.50 Z M 138.44 236.56 L 139.45 236.59 C 140.32 236.61 141.03 235.93 141.06 235.07 C 141.08 234.21 140.40 233.49 139.54 233.47 L 138.52 233.44 C 137.66 233.41 136.94 234.09 136.92 234.96 C 136.90 235.82 137.58 236.54 138.44 236.56 Z M 139.49 236.59 L 140.51 236.60 C 141.37 236.60 142.08 235.91 142.08 235.05 C 142.09 234.18 141.40 233.48 140.53 233.47 L 139.51 233.47 C 138.65 233.46 137.94 234.15 137.94 235.02 C 137.93 235.88 138.62 236.58 139.49 236.59 Z M 140.54 236.60 L 141.57 236.58 C 142.44 236.57 143.13 235.86 143.12 235.00 C 143.11 234.14 142.40 233.45 141.54 233.46 L 140.50 233.47 C 139.64 233.48 138.95 234.19 138.96 235.05 C 138.97 235.92 139.68 236.61 140.54 236.60 Z M 141.63 236.58 L 142.64 236.53 C 143.50 236.49 144.17 235.76 144.13 234.90 C 144.09 234.04 143.35 233.37 142.49 233.41 L 141.48 233.46 C 140.62 233.50 139.95 234.24 140.00 235.10 C 140.04 235.96 140.77 236.62 141.63 236.58 Z M 142.73 236.53 L 143.71 236.42 C 144.57 236.33 145.19 235.56 145.10 234.71 C 145.01 233.85 144.24 233.23 143.38 233.32 L 142.40 233.42 C 141.55 233.51 140.92 234.28 141.02 235.14 C 141.11 235.99 141.87 236.62 142.73 236.53 Z M 143.84 236.40 L 144.79 236.22 C 145.63 236.06 146.19 235.25 146.03 234.40 C 145.87 233.55 145.05 233.00 144.21 233.16 L 143.26 233.34 C 142.41 233.50 141.85 234.31 142.01 235.16 C 142.17 236.01 142.99 236.56 143.84 236.40 Z M 144.94 236.19 L 145.90 235.90 C 146.73 235.66 147.20 234.79 146.95 233.96 C 146.71 233.13 145.84 232.66 145.01 232.91 L 144.05 233.19 C 143.22 233.44 142.75 234.31 143.00 235.14 C 143.25 235.96 144.12 236.43 144.94 236.19 Z M 146.04 235.85 L 146.96 235.48 C 147.76 235.15 148.15 234.24 147.82 233.44 C 147.50 232.65 146.59 232.26 145.79 232.59 L 144.87 232.96 C 144.07 233.28 143.69 234.19 144.01 234.99 C 144.33 235.79 145.25 236.18 146.04 235.85 Z M 147.07 235.43 L 147.97 234.98 C 148.74 234.60 149.05 233.66 148.66 232.89 C 148.28 232.12 147.34 231.80 146.57 232.19 L 145.68 232.64 C 144.91 233.02 144.59 233.96 144.98 234.73 C 145.36 235.50 146.30 235.81 147.07 235.43 Z M 148.04 234.94 L 148.87 234.47 C 149.62 234.04 149.88 233.09 149.46 232.34 C 149.03 231.59 148.08 231.33 147.33 231.76 L 146.50 232.23 C 145.75 232.66 145.48 233.61 145.91 234.36 C 146.34 235.11 147.29 235.37 148.04 234.94 Z M 148.92 234.44 L 149.73 233.94 C 150.46 233.48 150.69 232.52 150.23 231.79 C 149.78 231.06 148.81 230.83 148.08 231.29 L 147.28 231.79 C 146.54 232.24 146.32 233.20 146.77 233.94 C 147.23 234.67 148.19 234.89 148.92 234.44 Z M 149.77 233.91 L 150.60 233.36 C 151.32 232.88 151.51 231.91 151.03 231.19 C 150.55 230.48 149.58 230.28 148.87 230.76 L 148.04 231.31 C 147.32 231.79 147.13 232.76 147.61 233.48 C 148.08 234.20 149.05 234.39 149.77 233.91 Z M 150.63 233.34 L 151.50 232.73 C 152.20 232.23 152.37 231.26 151.88 230.55 C 151.38 229.85 150.41 229.68 149.70 230.17 L 148.84 230.78 C 148.13 231.28 147.96 232.25 148.46 232.96 C 148.95 233.66 149.92 233.83 150.63 233.34 Z M 151.52 232.71 L 152.31 232.14 C 153.01 231.63 153.16 230.65 152.65 229.96 C 152.15 229.26 151.17 229.11 150.47 229.61 L 149.68 230.19 C 148.98 230.70 148.83 231.67 149.34 232.37 C 149.84 233.07 150.82 233.22 151.52 232.71 Z M 152.32 232.13 L 153.07 231.57 C 153.76 231.06 153.91 230.08 153.39 229.39 C 152.88 228.70 151.90 228.55 151.21 229.07 L 150.46 229.62 C 149.77 230.14 149.62 231.12 150.14 231.81 C 150.65 232.50 151.63 232.64 152.32 232.13 Z M 153.08 231.56 L 153.86 230.97 C 154.55 230.45 154.68 229.47 154.16 228.78 C 153.64 228.10 152.66 227.96 151.98 228.48 L 151.20 229.08 C 150.51 229.60 150.37 230.58 150.90 231.26 C 151.42 231.95 152.40 232.08 153.08 231.56 Z M 153.87 230.96 L 154.69 230.34 C 155.37 229.81 155.50 228.83 154.97 228.15 C 154.44 227.46 153.46 227.34 152.78 227.86 L 151.97 228.49 C 151.28 229.02 151.16 230.00 151.68 230.68 C 152.21 231.36 153.19 231.49 153.87 230.96 Z M 154.69 230.33 L 155.54 229.67 C 156.22 229.14 156.34 228.16 155.81 227.48 C 155.28 226.80 154.29 226.68 153.62 227.21 L 152.77 227.87 C 152.09 228.40 151.97 229.38 152.50 230.06 C 153.03 230.74 154.01 230.86 154.69 230.33 Z M 155.55 229.67 L 156.38 229.00 C 157.06 228.47 157.17 227.49 156.64 226.81 C 156.10 226.13 155.12 226.02 154.44 226.56 L 153.61 227.22 C 152.93 227.75 152.82 228.73 153.35 229.41 C 153.89 230.09 154.87 230.20 155.55 229.67 Z M 156.39 229.00 L 157.20 228.35 C 157.87 227.82 157.98 226.83 157.44 226.16 C 156.91 225.49 155.92 225.37 155.25 225.91 L 154.44 226.56 C 153.77 227.10 153.65 228.08 154.19 228.75 C 154.73 229.43 155.71 229.54 156.39 229.00 Z M 157.20 228.35 L 158.01 227.70 C 158.68 227.16 158.79 226.18 158.25 225.51 C 157.71 224.83 156.73 224.72 156.06 225.26 L 155.25 225.91 C 154.57 226.45 154.47 227.44 155.00 228.11 C 155.54 228.78 156.53 228.89 157.20 228.35 Z M 158.01 227.70 L 158.81 227.06 C 159.48 226.52 159.59 225.54 159.05 224.87 C 158.51 224.19 157.53 224.08 156.86 224.62 L 156.06 225.26 C 155.39 225.80 155.28 226.79 155.82 227.46 C 156.36 228.13 157.34 228.24 158.01 227.70 Z M 158.81 227.06 L 159.58 226.45 C 160.25 225.91 160.36 224.93 159.82 224.25 C 159.29 223.58 158.30 223.47 157.63 224.01 L 156.86 224.62 C 156.19 225.16 156.08 226.14 156.61 226.82 C 157.15 227.49 158.13 227.60 158.81 227.06 Z M 159.57 226.45 L 160.30 225.88 C 160.98 225.34 161.09 224.36 160.56 223.68 C 160.02 223.01 159.04 222.89 158.36 223.43 L 157.64 224.00 C 156.96 224.54 156.85 225.52 157.38 226.20 C 157.92 226.87 158.90 226.99 159.57 226.45 Z M 160.29 225.88 L 161.15 225.21 C 161.84 224.68 161.96 223.70 161.43 223.02 C 160.90 222.34 159.92 222.22 159.24 222.75 L 158.37 223.42 C 157.69 223.95 157.57 224.93 158.10 225.61 C 158.63 226.29 159.61 226.41 160.29 225.88 Z M 161.14 225.22 L 161.97 224.60 C 162.66 224.08 162.79 223.10 162.27 222.41 C 161.75 221.72 160.77 221.59 160.08 222.11 L 159.25 222.73 C 158.57 223.26 158.43 224.23 158.95 224.92 C 159.47 225.61 160.45 225.74 161.14 225.22 Z M 161.95 224.61 L 162.72 224.05 C 163.41 223.54 163.56 222.56 163.05 221.86 C 162.54 221.17 161.57 221.02 160.87 221.53 L 160.10 222.09 C 159.41 222.60 159.26 223.58 159.77 224.28 C 160.28 224.97 161.25 225.12 161.95 224.61 Z M 162.70 224.06 L 163.45 223.53 C 164.15 223.03 164.31 222.06 163.81 221.35 C 163.31 220.65 162.34 220.49 161.64 220.99 L 160.89 221.51 C 160.19 222.01 160.02 222.99 160.52 223.69 C 161.02 224.39 162.00 224.56 162.70 224.06 Z M 163.43 223.54 L 164.22 223.00 C 164.93 222.51 165.10 221.54 164.61 220.83 C 164.12 220.12 163.15 219.94 162.44 220.43 L 161.65 220.97 C 160.94 221.46 160.77 222.44 161.26 223.14 C 161.75 223.85 162.72 224.03 163.43 223.54 Z M 164.20 223.01 L 165.02 222.46 C 165.74 221.98 165.93 221.01 165.45 220.29 C 164.97 219.58 164.00 219.38 163.28 219.86 L 162.46 220.42 C 161.74 220.90 161.55 221.87 162.03 222.58 C 162.51 223.30 163.48 223.49 164.20 223.01 Z M 165.01 222.47 L 165.85 221.92 C 166.57 221.45 166.77 220.48 166.30 219.76 C 165.83 219.04 164.87 218.83 164.14 219.30 L 163.30 219.85 C 162.58 220.32 162.38 221.29 162.85 222.01 C 163.32 222.74 164.28 222.94 165.01 222.47 Z M 165.83 221.93 L 166.69 221.39 C 167.42 220.93 167.63 219.97 167.17 219.24 C 166.71 218.51 165.75 218.29 165.02 218.75 L 164.16 219.29 C 163.43 219.75 163.22 220.72 163.68 221.45 C 164.14 222.17 165.10 222.39 165.83 221.93 Z M 166.67 221.40 L 167.52 220.89 C 168.25 220.44 168.48 219.48 168.03 218.74 C 167.59 218.00 166.62 217.77 165.89 218.22 L 165.04 218.74 C 164.30 219.19 164.07 220.15 164.52 220.89 C 164.97 221.62 165.93 221.85 166.67 221.40 Z M 167.50 220.90 L 168.36 220.39 C 169.10 219.95 169.34 218.99 168.90 218.25 C 168.46 217.51 167.51 217.26 166.76 217.70 L 165.91 218.21 C 165.17 218.65 164.92 219.61 165.36 220.35 C 165.80 221.09 166.76 221.34 167.50 220.90 Z M 168.34 220.40 L 169.21 219.90 C 169.95 219.47 170.21 218.52 169.78 217.77 C 169.35 217.02 168.40 216.76 167.65 217.19 L 166.78 217.69 C 166.03 218.12 165.78 219.08 166.21 219.82 C 166.64 220.57 167.59 220.83 168.34 220.40 Z M 169.19 219.91 L 170.07 219.42 C 170.82 219.00 171.09 218.05 170.67 217.29 C 170.25 216.54 169.30 216.27 168.55 216.69 L 167.67 217.18 C 166.92 217.60 166.65 218.55 167.07 219.31 C 167.49 220.06 168.44 220.33 169.19 219.91 Z M 170.06 219.43 L 170.94 218.95 C 171.69 218.54 171.97 217.59 171.56 216.83 C 171.15 216.07 170.20 215.79 169.45 216.20 L 168.56 216.68 C 167.81 217.10 167.53 218.04 167.94 218.80 C 168.35 219.56 169.30 219.84 170.06 219.43 Z M 170.92 218.96 L 171.81 218.49 C 172.57 218.08 172.86 217.14 172.46 216.37 C 172.05 215.61 171.11 215.32 170.35 215.73 L 169.46 216.20 C 168.70 216.60 168.41 217.55 168.81 218.31 C 169.22 219.07 170.16 219.36 170.92 218.96 Z M 171.80 218.49 L 172.69 218.03 C 173.45 217.63 173.75 216.69 173.35 215.92 C 172.95 215.16 172.01 214.86 171.25 215.26 L 170.36 215.72 C 169.59 216.12 169.30 217.06 169.69 217.83 C 170.09 218.59 171.03 218.89 171.80 218.49 Z M 172.68 218.04 L 173.56 217.58 C 174.33 217.19 174.63 216.25 174.24 215.48 C 173.85 214.71 172.91 214.41 172.14 214.80 L 171.26 215.25 C 170.49 215.65 170.18 216.59 170.58 217.36 C 170.97 218.12 171.91 218.43 172.68 218.04 Z M 173.55 217.59 L 174.46 217.13 C 175.23 216.74 175.54 215.80 175.15 215.03 C 174.76 214.26 173.82 213.95 173.05 214.34 L 172.15 214.80 C 171.38 215.19 171.07 216.13 171.46 216.90 C 171.85 217.67 172.78 217.97 173.55 217.59 Z M 174.46 217.13 L 175.36 216.68 C 176.13 216.29 176.44 215.35 176.05 214.58 C 175.66 213.81 174.72 213.50 173.95 213.89 L 173.05 214.34 C 172.28 214.73 171.98 215.67 172.36 216.44 C 172.75 217.21 173.69 217.52 174.46 217.13 Z M 175.37 216.67 L 176.25 216.22 C 177.02 215.82 177.32 214.88 176.93 214.12 C 176.54 213.35 175.60 213.05 174.83 213.44 L 173.94 213.89 C 173.18 214.29 172.87 215.23 173.27 215.99 C 173.66 216.76 174.60 217.06 175.37 216.67 Z M 176.27 216.21 L 177.14 215.75 C 177.91 215.34 178.20 214.40 177.79 213.64 C 177.39 212.88 176.45 212.58 175.68 212.99 L 174.81 213.45 C 174.05 213.85 173.76 214.80 174.16 215.56 C 174.56 216.32 175.51 216.61 176.27 216.21 Z M 177.17 215.74 L 178.07 215.24 C 178.83 214.82 179.10 213.87 178.69 213.12 C 178.27 212.36 177.32 212.09 176.57 212.50 L 175.66 213.00 C 174.91 213.42 174.63 214.36 175.05 215.12 C 175.46 215.88 176.41 216.15 177.17 215.74 Z M 178.08 215.23 L 178.96 214.73 C 179.72 214.31 179.98 213.36 179.56 212.61 C 179.13 211.86 178.18 211.59 177.43 212.01 L 176.55 212.51 C 175.80 212.93 175.53 213.89 175.96 214.64 C 176.38 215.39 177.33 215.65 178.08 215.23 Z M 178.97 214.73 L 179.82 214.25 C 180.57 213.82 180.83 212.87 180.41 212.12 C 179.98 211.37 179.03 211.11 178.28 211.53 L 177.43 212.02 C 176.68 212.44 176.41 213.39 176.84 214.14 C 177.26 214.89 178.22 215.16 178.97 214.73 Z M 179.81 214.25 L 180.67 213.78 C 181.42 213.36 181.69 212.41 181.27 211.65 C 180.85 210.90 179.90 210.63 179.15 211.05 L 178.29 211.53 C 177.54 211.95 177.27 212.90 177.69 213.65 C 178.11 214.40 179.06 214.67 179.81 214.25 Z M 180.65 213.78 L 181.53 213.31 C 182.28 212.89 182.56 211.95 182.15 211.19 C 181.73 210.43 180.79 210.15 180.03 210.57 L 179.16 211.04 C 178.40 211.46 178.12 212.40 178.54 213.16 C 178.95 213.92 179.90 214.20 180.65 213.78 Z M 181.53 213.30 L 182.40 212.83 C 183.15 212.41 183.43 211.46 183.01 210.71 C 182.60 209.95 181.65 209.68 180.89 210.09 L 180.02 210.57 C 179.27 210.98 178.99 211.93 179.41 212.69 C 179.82 213.44 180.77 213.72 181.53 213.30 Z M 182.42 212.82 L 183.29 212.32 C 184.04 211.89 184.30 210.94 183.88 210.19 C 183.45 209.44 182.50 209.18 181.75 209.60 L 180.87 210.10 C 180.12 210.53 179.86 211.48 180.29 212.23 C 180.71 212.98 181.67 213.24 182.42 212.82 Z M 183.32 212.30 L 184.17 211.79 C 184.91 211.35 185.16 210.39 184.71 209.65 C 184.27 208.91 183.31 208.67 182.57 209.11 L 181.72 209.62 C 180.98 210.06 180.74 211.02 181.18 211.76 C 181.62 212.50 182.58 212.74 183.32 212.30 Z M 184.20 211.78 L 185.06 211.24 C 185.79 210.79 186.01 209.82 185.56 209.09 C 185.10 208.36 184.14 208.14 183.41 208.59 L 182.55 209.13 C 181.82 209.58 181.59 210.54 182.05 211.28 C 182.50 212.01 183.47 212.23 184.20 211.78 Z M 185.08 211.23 L 185.92 210.68 C 186.65 210.21 186.85 209.25 186.39 208.52 C 185.92 207.80 184.95 207.59 184.23 208.06 L 183.38 208.61 C 182.66 209.08 182.45 210.04 182.92 210.77 C 183.39 211.49 184.36 211.70 185.08 211.23 Z M 185.95 210.67 L 186.73 210.14 C 187.44 209.66 187.63 208.68 187.15 207.97 C 186.67 207.26 185.70 207.07 184.98 207.55 L 184.20 208.08 C 183.49 208.56 183.30 209.53 183.78 210.24 C 184.26 210.96 185.23 211.15 185.95 210.67 Z M 186.76 210.12 L 187.51 209.58 C 188.22 209.08 188.38 208.11 187.88 207.40 C 187.38 206.70 186.41 206.54 185.70 207.04 L 184.95 207.57 C 184.25 208.07 184.08 209.05 184.58 209.75 C 185.08 210.45 186.06 210.62 186.76 210.12 Z M 187.55 209.55 L 188.34 208.96 C 189.03 208.44 189.16 207.46 188.64 206.77 C 188.12 206.08 187.14 205.95 186.45 206.47 L 185.67 207.06 C 184.98 207.59 184.84 208.56 185.36 209.25 C 185.88 209.94 186.86 210.07 187.55 209.55 Z M 188.37 208.93 L 189.25 208.23 C 189.92 207.69 190.02 206.71 189.48 206.03 C 188.94 205.36 187.96 205.25 187.29 205.79 L 186.42 206.50 C 185.75 207.04 185.64 208.02 186.18 208.69 C 186.72 209.36 187.70 209.47 188.37 208.93 Z M 189.27 208.21 L 189.97 207.62 C 190.63 207.07 190.71 206.09 190.16 205.43 C 189.61 204.76 188.62 204.68 187.96 205.23 L 187.26 205.82 C 186.60 206.37 186.52 207.35 187.07 208.01 C 187.62 208.68 188.61 208.76 189.27 208.21 Z M 189.98 207.61 L 190.70 206.99 C 191.35 206.43 191.42 205.44 190.86 204.79 C 190.30 204.14 189.31 204.06 188.66 204.63 L 187.94 205.25 C 187.29 205.81 187.22 206.80 187.78 207.45 C 188.35 208.10 189.33 208.17 189.98 207.61 Z M 190.72 206.98 L 191.47 206.31 C 192.11 205.74 192.17 204.75 191.60 204.11 C 191.03 203.46 190.04 203.40 189.40 203.97 L 188.64 204.64 C 188.00 205.21 187.94 206.20 188.51 206.85 C 189.08 207.49 190.07 207.55 190.72 206.98 Z M 191.48 206.30 L 192.26 205.59 C 192.89 205.01 192.94 204.02 192.36 203.38 C 191.78 202.75 190.79 202.70 190.15 203.28 L 189.38 203.99 C 188.74 204.57 188.70 205.56 189.28 206.19 C 189.86 206.83 190.85 206.88 191.48 206.30 Z M 192.27 205.57 L 193.05 204.84 C 193.68 204.25 193.71 203.26 193.12 202.63 C 192.53 202.01 191.54 201.98 190.92 202.57 L 190.14 203.30 C 189.51 203.89 189.48 204.88 190.07 205.51 C 190.66 206.13 191.65 206.16 192.27 205.57 Z M 193.07 204.82 L 193.82 204.10 C 194.44 203.50 194.45 202.51 193.85 201.89 C 193.25 201.27 192.27 201.26 191.65 201.86 L 190.90 202.58 C 190.28 203.18 190.26 204.17 190.86 204.79 C 191.46 205.41 192.45 205.42 193.07 204.82 Z M 193.84 204.08 L 194.54 203.38 C 195.15 202.77 195.15 201.78 194.54 201.17 C 193.93 200.56 192.94 200.56 192.33 201.17 L 191.63 201.87 C 191.02 202.48 191.02 203.47 191.63 204.08 C 192.24 204.69 193.23 204.69 193.84 204.08 Z M 194.55 203.37 L 195.25 202.66 C 195.85 202.05 195.84 201.06 195.23 200.45 C 194.61 199.85 193.62 199.86 193.02 200.47 L 192.32 201.18 C 191.72 201.80 191.73 202.79 192.34 203.39 C 192.96 203.99 193.95 203.99 194.55 203.37 Z M 195.25 202.66 L 195.95 201.94 C 196.55 201.32 196.53 200.33 195.91 199.73 C 195.30 199.13 194.31 199.15 193.71 199.77 L 193.01 200.48 C 192.41 201.10 192.43 202.09 193.05 202.69 C 193.66 203.29 194.65 203.27 195.25 202.66 Z M 195.95 201.94 L 196.64 201.22 C 197.24 200.60 197.23 199.61 196.61 199.01 C 195.99 198.41 195.00 198.43 194.40 199.05 L 193.70 199.77 C 193.11 200.39 193.12 201.38 193.74 201.98 C 194.36 202.58 195.35 202.56 195.95 201.94 Z M 196.64 201.22 L 197.35 200.50 C 197.95 199.88 197.93 198.89 197.32 198.29 C 196.70 197.69 195.71 197.70 195.11 198.32 L 194.40 199.05 C 193.80 199.66 193.82 200.65 194.43 201.25 C 195.05 201.85 196.04 201.84 196.64 201.22 Z M 197.34 200.51 L 198.04 199.79 C 198.65 199.18 198.64 198.19 198.03 197.59 C 197.42 196.98 196.43 196.99 195.82 197.60 L 195.12 198.31 C 194.51 198.93 194.52 199.92 195.13 200.52 C 195.74 201.13 196.73 201.12 197.34 200.51 Z M 198.03 199.80 L 198.74 199.10 C 199.35 198.49 199.35 197.50 198.75 196.89 C 198.14 196.28 197.15 196.28 196.54 196.89 L 195.83 197.59 C 195.22 198.20 195.22 199.19 195.83 199.80 C 196.43 200.41 197.42 200.41 198.03 199.80 Z M 198.73 199.11 L 199.45 198.41 C 200.06 197.81 200.08 196.82 199.48 196.20 C 198.87 195.59 197.89 195.57 197.27 196.18 L 196.55 196.88 C 195.93 197.48 195.92 198.47 196.52 199.08 C 197.12 199.70 198.11 199.71 198.73 199.11 Z M 199.43 198.42 L 200.16 197.73 C 200.79 197.14 200.81 196.15 200.22 195.52 C 199.62 194.90 198.63 194.87 198.01 195.47 L 197.28 196.16 C 196.66 196.76 196.63 197.75 197.23 198.37 C 197.82 198.99 198.81 199.02 199.43 198.42 Z M 200.15 197.74 L 200.88 197.06 C 201.52 196.47 201.55 195.49 200.97 194.86 C 200.38 194.22 199.39 194.19 198.76 194.77 L 198.02 195.46 C 197.39 196.04 197.36 197.03 197.94 197.66 C 198.53 198.29 199.52 198.33 200.15 197.74 Z M 200.87 197.08 L 201.61 196.41 C 202.25 195.83 202.30 194.84 201.72 194.20 C 201.15 193.56 200.16 193.51 199.52 194.09 L 198.78 194.76 C 198.14 195.33 198.09 196.32 198.66 196.96 C 199.24 197.60 200.23 197.65 200.87 197.08 Z M 201.59 196.42 L 202.33 195.78 C 202.98 195.21 203.05 194.23 202.48 193.58 C 201.92 192.93 200.93 192.86 200.28 193.43 L 199.54 194.07 C 198.89 194.64 198.82 195.62 199.39 196.27 C 199.95 196.92 200.94 196.99 201.59 196.42 Z M 202.31 195.80 L 203.05 195.18 C 203.71 194.62 203.79 193.64 203.24 192.98 C 202.68 192.32 201.70 192.23 201.04 192.79 L 200.30 193.41 C 199.64 193.96 199.56 194.95 200.11 195.61 C 200.67 196.27 201.65 196.35 202.31 195.80 Z M 203.02 195.20 L 203.78 194.59 C 204.45 194.05 204.55 193.06 204.01 192.39 C 203.47 191.72 202.48 191.62 201.81 192.16 L 201.06 192.77 C 200.39 193.31 200.29 194.29 200.83 194.96 C 201.37 195.63 202.35 195.74 203.02 195.20 Z M 203.75 194.61 L 204.52 194.01 C 205.21 193.48 205.33 192.50 204.80 191.82 C 204.27 191.14 203.29 191.01 202.61 191.54 L 201.84 192.14 C 201.16 192.67 201.03 193.65 201.56 194.33 C 202.09 195.01 203.07 195.14 203.75 194.61 Z M 204.50 194.03 L 205.30 193.43 C 206.00 192.91 206.14 191.93 205.62 191.24 C 205.11 190.55 204.13 190.41 203.44 190.92 L 202.63 191.52 C 201.94 192.04 201.80 193.01 202.32 193.71 C 202.83 194.40 203.81 194.54 204.50 194.03 Z M 205.28 193.45 L 206.12 192.84 C 206.82 192.34 206.99 191.37 206.48 190.67 C 205.98 189.96 205.01 189.80 204.31 190.30 L 203.46 190.91 C 202.76 191.41 202.60 192.38 203.10 193.08 C 203.60 193.78 204.58 193.95 205.28 193.45 Z M 206.10 192.86 L 206.97 192.26 C 207.68 191.78 207.86 190.80 207.37 190.09 C 206.88 189.38 205.91 189.20 205.20 189.69 L 204.33 190.29 C 203.62 190.77 203.44 191.75 203.93 192.46 C 204.41 193.17 205.39 193.35 206.10 192.86 Z M 206.95 192.28 L 207.72 191.76 C 208.44 191.29 208.64 190.32 208.16 189.60 C 207.68 188.88 206.71 188.68 206.00 189.16 L 205.22 189.68 C 204.50 190.15 204.31 191.12 204.78 191.84 C 205.26 192.56 206.23 192.75 206.95 192.28 Z M 207.71 191.77 L 208.51 191.25 C 209.24 190.78 209.45 189.82 208.98 189.09 C 208.51 188.37 207.54 188.16 206.82 188.63 L 206.01 189.15 C 205.29 189.62 205.08 190.59 205.55 191.31 C 206.02 192.03 206.98 192.24 207.71 191.77 Z M 208.50 191.26 L 209.34 190.73 C 210.06 190.27 210.28 189.30 209.82 188.57 C 209.36 187.85 208.39 187.63 207.66 188.09 L 206.83 188.62 C 206.10 189.08 205.89 190.05 206.35 190.78 C 206.81 191.50 207.77 191.72 208.50 191.26 Z M 209.33 190.74 L 210.18 190.20 C 210.91 189.74 211.14 188.78 210.68 188.05 C 210.22 187.32 209.26 187.10 208.53 187.55 L 207.67 188.09 C 206.94 188.54 206.72 189.51 207.18 190.24 C 207.63 190.97 208.59 191.19 209.33 190.74 Z M 210.17 190.21 L 211.05 189.67 C 211.78 189.22 212.01 188.25 211.56 187.52 C 211.10 186.79 210.14 186.56 209.41 187.01 L 208.54 187.55 C 207.80 188.00 207.57 188.96 208.03 189.70 C 208.48 190.43 209.44 190.66 210.17 190.21 Z M 211.04 189.67 L 211.93 189.13 C 212.66 188.68 212.89 187.72 212.44 186.98 C 211.99 186.25 211.03 186.02 210.30 186.47 L 209.41 187.01 C 208.68 187.46 208.45 188.42 208.90 189.15 C 209.35 189.89 210.31 190.12 211.04 189.67 Z M 211.92 189.13 L 212.81 188.59 C 213.55 188.14 213.78 187.18 213.34 186.44 C 212.89 185.71 211.93 185.47 211.19 185.92 L 210.30 186.46 C 209.56 186.91 209.33 187.87 209.78 188.61 C 210.23 189.35 211.19 189.58 211.92 189.13 Z M 212.81 188.59 L 213.19 188.36 C 213.93 187.91 214.16 186.95 213.72 186.21 C 213.27 185.48 212.31 185.24 211.57 185.69 L 211.19 185.92 C 210.45 186.37 210.22 187.33 210.67 188.07 C 211.12 188.80 212.08 189.04 212.81 188.59 Z"
      fill="black"
      fill-rule="nonzero" /></svg>