<svg xmlns="http://www.w3.org/2000/svg" width="300" height="300" viewBox="0 0 300 300">
<path d="M 147.48 75.21 L 146.84 76.00 C 146.29 76.66 146.38 77.65 147.05 78.20 C 147.71 78.75 148.69 78.65 149.24 77.99 L 149.89 77.20 C 150.44 76.54 150.35 75.55 149.68 75.00 C 149.02 74.46 148.03 74.55 147.48 75.21 Z M 146.82 76.01 L 146.19 76.80 C 145.65 77.47 145.76 78.46 146.43 79.00 C 147.10 79.54 148.08 79.43 148.62 78.76 L 149.26 77.97 C 149.80 77.30 149.69 76.32 149.02 75.78 C 148.35 75.24 147.36 75.34 146.82 76.01 Z M 146.16 76.84 L 145.56 77.63 C 145.04 78.32 145.18 79.30 145.86 79.82 C 146.55 80.34 147.53 80.20 148.05 79.52 L 148.65 78.72 C 149.17 78.04 149.04 77.06 148.35 76.54 C 147.66 76.01 146.68 76.15 146.16 76.84 Z M 145.52 77.68 L 144.96 78.49 C 144.47 79.20 144.65 80.18 145.36 80.67 C 146.07 81.16 147.04 80.98 147.53 80.27 L 148.09 79.46 C 148.58 78.75 148.40 77.78 147.69 77.29 C 146.99 76.80 146.01 76.98 145.52 77.68 Z M 144.91 78.57 L 144.38 79.45 C 143.93 80.19 144.16 81.15 144.90 81.60 C 145.64 82.04 146.60 81.81 147.05 81.07 L 147.58 80.19 C 148.03 79.46 147.80 78.50 147.06 78.05 C 146.32 77.60 145.36 77.83 144.91 78.57 Z M 144.34 79.53 L 143.86 80.41 C 143.46 81.17 143.74 82.12 144.50 82.52 C 145.26 82.93 146.21 82.64 146.62 81.88 L 147.09 81.00 C 147.50 80.24 147.21 79.29 146.45 78.88 C 145.69 78.48 144.74 78.77 144.34 79.53 Z M 143.83 80.48 L 143.41 81.36 C 143.04 82.14 143.38 83.07 144.15 83.44 C 144.93 83.81 145.87 83.48 146.23 82.70 L 146.65 81.81 C 147.02 81.03 146.69 80.10 145.91 79.74 C 145.13 79.37 144.20 79.70 143.83 80.48 Z M 143.38 81.42 L 143.00 82.32 C 142.67 83.12 143.04 84.03 143.83 84.37 C 144.63 84.70 145.54 84.33 145.88 83.54 L 146.26 82.64 C 146.60 81.84 146.22 80.93 145.43 80.59 C 144.64 80.26 143.72 80.63 143.38 81.42 Z M 142.98 82.38 L 142.63 83.30 C 142.33 84.11 142.74 85.01 143.55 85.31 C 144.35 85.61 145.25 85.21 145.56 84.40 L 145.90 83.48 C 146.21 82.67 145.80 81.77 144.99 81.47 C 144.19 81.17 143.28 81.57 142.98 82.38 Z M 142.61 83.36 L 142.30 84.30 C 142.03 85.12 142.47 86.00 143.29 86.28 C 144.10 86.55 144.99 86.11 145.26 85.29 L 145.58 84.34 C 145.85 83.53 145.41 82.64 144.59 82.37 C 143.77 82.10 142.89 82.54 142.61 83.36 Z M 142.28 84.35 L 142.00 85.32 C 141.75 86.14 142.22 87.01 143.05 87.26 C 143.88 87.50 144.75 87.03 144.99 86.20 L 145.28 85.24 C 145.52 84.41 145.05 83.54 144.22 83.30 C 143.40 83.05 142.53 83.52 142.28 84.35 Z M 141.98 85.36 L 141.75 86.25 C 141.53 87.09 142.03 87.94 142.86 88.16 C 143.70 88.38 144.55 87.88 144.77 87.05 L 145.00 86.16 C 145.22 85.32 144.73 84.47 143.89 84.25 C 143.06 84.03 142.20 84.53 141.98 85.36 Z M 141.74 86.31 L 141.52 87.26 C 141.34 88.10 141.87 88.94 142.71 89.12 C 143.55 89.31 144.38 88.78 144.57 87.94 L 144.78 86.99 C 144.97 86.15 144.44 85.31 143.60 85.13 C 142.76 84.94 141.92 85.47 141.74 86.31 Z M 141.51 87.33 L 141.33 88.35 C 141.18 89.20 141.75 90.01 142.60 90.16 C 143.45 90.31 144.26 89.74 144.41 88.89 L 144.59 87.87 C 144.73 87.02 144.16 86.21 143.32 86.06 C 142.47 85.92 141.66 86.48 141.51 87.33 Z M 141.32 88.44 L 141.19 89.51 C 141.09 90.37 141.70 91.15 142.56 91.25 C 143.41 91.35 144.19 90.74 144.29 89.89 L 144.42 88.81 C 144.52 87.95 143.91 87.17 143.06 87.07 C 142.20 86.97 141.42 87.58 141.32 88.44 Z M 141.18 89.59 L 141.11 90.59 C 141.05 91.45 141.70 92.19 142.56 92.26 C 143.42 92.32 144.16 91.67 144.23 90.81 L 144.30 89.81 C 144.36 88.95 143.71 88.20 142.85 88.14 C 141.99 88.08 141.25 88.73 141.18 89.59 Z M 141.11 90.64 L 141.07 91.66 C 141.03 92.53 141.70 93.25 142.57 93.29 C 143.43 93.32 144.15 92.65 144.19 91.79 L 144.23 90.76 C 144.26 89.90 143.59 89.17 142.73 89.14 C 141.87 89.10 141.14 89.78 141.11 90.64 Z M 141.07 91.70 L 141.05 92.72 C 141.03 93.58 141.72 94.30 142.58 94.31 C 143.44 94.33 144.15 93.64 144.17 92.78 L 144.19 91.76 C 144.20 90.89 143.52 90.18 142.66 90.17 C 141.79 90.15 141.08 90.84 141.07 91.70 Z M 141.05 92.74 L 141.04 93.73 C 141.04 94.59 141.73 95.29 142.59 95.30 C 143.46 95.30 144.16 94.61 144.16 93.75 L 144.17 92.76 C 144.17 91.90 143.48 91.19 142.62 91.19 C 141.76 91.18 141.05 91.88 141.05 92.74 Z M 141.04 93.74 L 141.04 94.75 C 141.04 95.61 141.74 96.31 142.60 96.31 C 143.46 96.31 144.16 95.61 144.16 94.75 L 144.16 93.74 C 144.16 92.87 143.47 92.18 142.60 92.18 C 141.74 92.18 141.04 92.87 141.04 93.74 Z M 141.04 94.75 L 141.04 95.80 C 141.04 96.66 141.74 97.36 142.60 97.36 C 143.47 97.36 144.16 96.66 144.16 95.80 L 144.16 94.75 C 144.16 93.89 143.47 93.19 142.60 93.19 C 141.74 93.19 141.04 93.89 141.04 94.75 Z M 141.04 95.80 L 141.04 96.77 C 141.04 97.63 141.74 98.33 142.60 98.33 C 143.47 98.33 144.16 97.63 144.16 96.77 L 144.16 95.80 C 144.16 94.93 143.47 94.23 142.60 94.23 C 141.74 94.23 141.04 94.93 141.04 95.80 Z M 141.04 96.77 L 141.04 97.71 C 141.04 98.57 141.74 99.27 142.60 99.27 C 143.47 99.27 144.16 98.57 144.16 97.71 L 144.16 96.77 C 144.16 95.90 143.47 95.21 142.60 95.21 C 141.74 95.21 141.04 95.90 141.04 96.77 Z M 141.04 97.71 L 141.04 98.64 C 141.04 99.51 141.74 100.21 142.60 100.21 C 143.47 100.21 144.17 99.51 144.17 98.64 L 144.17 97.71 C 144.17 96.85 143.47 96.15 142.60 96.15 C 141.74 96.15 141.04 96.85 141.04 97.71 Z M 141.03 98.64 L 141.03 99.60 C 141.03 100.46 141.74 101.17 142.60 101.17 C 143.47 101.17 144.17 100.46 144.17 99.60 L 144.17 98.64 C 144.17 97.77 143.47 97.07 142.60 97.07 C 141.74 97.07 141.03 97.77 141.03 98.64 Z M 141.03 99.60 L 141.03 100.60 C 141.03 101.47 141.73 102.18 142.60 102.18 C 143.47 102.18 144.18 101.47 144.18 100.60 L 144.18 99.60 C 144.18 98.73 143.47 98.02 142.60 98.02 C 141.73 98.02 141.03 98.73 141.03 99.60 Z M 141.02 100.60 L 141.02 101.67 C 141.02 102.54 141.73 103.25 142.60 103.25 C 143.48 103.25 144.19 102.54 144.19 101.67 L 144.19 100.60 C 144.19 99.73 143.48 99.02 142.60 99.02 C 141.73 99.02 141.02 99.73 141.02 100.60 Z M 141.02 101.67 L 141.02 102.64 C 141.02 103.52 141.73 104.23 142.60 104.23 C 143.48 104.23 144.19 103.52 144.19 102.64 L 144.19 101.67 C 144.19 100.79 143.48 100.08 142.60 100.08 C 141.73 100.08 141.02 100.79 141.02 101.67 Z M 141.02 102.64 L 141.02 103.61 C 141.02 104.49 141.73 105.20 142.60 105.20 C 143.48 105.20 144.19 104.49 144.19 103.61 L 144.19 102.64 C 144.19 101.77 143.48 101.06 142.60 101.06 C 141.73 101.06 141.02 101.77 141.02 102.64 Z M 141.02 103.61 L 141.02 104.61 C 141.02 105.49 141.73 106.20 142.60 106.20 C 143.48 106.20 144.19 105.49 144.19 104.61 L 144.19 103.61 C 144.19 102.73 143.48 102.02 142.60 102.02 C 141.73 102.02 141.02 102.73 141.02 103.61 Z M 141.02 104.61 L 141.02 105.64 C 141.02 106.51 141.73 107.22 142.60 107.22 C 143.48 107.22 144.19 106.51 144.19 105.64 L 144.19 104.61 C 144.19 103.73 143.48 103.03 142.60 103.03 C 141.73 103.03 141.02 103.73 141.02 104.61 Z M 141.02 105.64 L 141.02 106.69 C 141.02 107.56 141.73 108.27 142.60 108.27 C 143.48 108.27 144.19 107.56 144.19 106.69 L 144.19 105.64 C 144.19 104.76 143.48 104.06 142.60 104.06 C 141.73 104.06 141.02 104.76 141.02 105.64 Z M 141.02 106.69 L 141.02 107.65 C 141.02 108.52 141.73 109.23 142.60 109.23 C 143.48 109.23 144.19 108.52 144.19 107.65 L 144.19 106.69 C 144.19 105.82 143.48 105.11 142.60 105.11 C 141.73 105.11 141.02 105.82 141.02 106.69 Z M 141.02 107.65 L 141.02 108.60 C 141.02 109.48 141.73 110.19 142.60 110.19 C 143.48 110.19 144.19 109.48 144.19 108.60 L 144.19 107.65 C 144.19 106.77 143.48 106.06 142.60 106.06 C 141.73 106.06 141.02 106.77 141.02 107.65 Z M 141.01 108.60 L 141.01 109.58 C 141.01 110.46 141.72 111.17 142.60 111.17 C 143.48 111.17 144.19 110.46 144.19 109.58 L 144.19 108.60 C 144.19 107.72 143.48 107.01 142.60 107.01 C 141.72 107.01 141.01 107.72 141.01 108.60 Z M 141.01 109.58 L 141.01 110.59 C 141.01 111.47 141.72 112.19 142.60 112.19 C 143.48 112.19 144.20 111.47 144.20 110.59 L 144.20 109.58 C 144.20 108.70 143.48 107.99 142.60 107.99 C 141.72 107.99 141.01 108.70 141.01 109.58 Z M 141.00 110.59 L 141.00 111.64 C 141.00 112.52 141.72 113.24 142.60 113.24 C 143.49 113.24 144.20 112.52 144.20 111.64 L 144.20 110.59 C 144.20 109.71 143.49 108.99 142.60 108.99 C 141.72 108.99 141.00 109.71 141.00 110.59 Z M 141.00 111.64 L 141.00 112.67 C 141.00 113.56 141.72 114.27 142.60 114.27 C 143.49 114.27 144.20 113.56 144.20 112.67 L 144.20 111.64 C 144.20 110.76 143.49 110.04 142.60 110.04 C 141.72 110.04 141.00 110.76 141.00 111.64 Z M 141.00 112.67 L 141.00 113.61 C 141.00 114.50 141.72 115.22 142.60 115.22 C 143.49 115.22 144.21 114.50 144.21 113.61 L 144.21 112.67 C 144.21 111.79 143.49 111.07 142.60 111.07 C 141.72 111.07 141.00 111.79 141.00 112.67 Z M 141.00 113.61 L 141.00 114.59 C 141.00 115.47 141.72 116.19 142.60 116.19 C 143.49 116.19 144.21 115.47 144.21 114.59 L 144.21 113.61 C 144.21 112.73 143.49 112.01 142.60 112.01 C 141.72 112.01 141.00 112.73 141.00 113.61 Z M 141.00 114.59 L 141.00 115.58 C 141.00 116.47 141.72 117.19 142.60 117.19 C 143.49 117.19 144.21 116.47 144.21 115.58 L 144.21 114.59 C 144.21 113.70 143.49 112.98 142.60 112.98 C 141.72 112.98 141.00 113.70 141.00 114.59 Z M 141.00 115.58 L 141.00 116.60 C 141.00 117.49 141.72 118.21 142.60 118.21 C 143.49 118.21 144.21 117.49 144.21 116.60 L 144.21 115.58 C 144.21 114.70 143.49 113.98 142.60 113.98 C 141.72 113.98 141.00 114.70 141.00 115.58 Z M 141.00 116.60 L 141.00 117.64 C 141.00 118.52 141.72 119.24 142.60 119.24 C 143.49 119.24 144.21 118.52 144.21 117.64 L 144.21 116.60 C 144.21 115.72 143.49 115.00 142.60 115.00 C 141.72 115.00 141.00 115.72 141.00 116.60 Z M 141.00 117.64 L 141.00 118.68 C 141.00 119.57 141.72 120.29 142.60 120.29 C 143.49 120.29 144.21 119.57 144.21 118.68 L 144.21 117.64 C 144.21 116.75 143.49 116.03 142.60 116.03 C 141.72 116.03 141.00 116.75 141.00 117.64 Z M 141.00 118.68 L 141.00 119.66 C 141.00 120.55 141.72 121.27 142.60 121.27 C 143.49 121.27 144.21 120.55 144.21 119.66 L 144.21 118.68 C 144.21 117.80 143.49 117.08 142.60 117.08 C 141.72 117.08 141.00 117.80 141.00 118.68 Z M 141.00 119.66 L 141.00 120.62 C 141.00 121.51 141.72 122.23 142.60 122.23 C 143.49 122.23 144.21 121.51 144.21 120.62 L 144.21 119.67 C 144.21 118.78 143.49 118.06 142.60 118.06 C 141.72 118.06 141.00 118.78 141.00 119.66 Z M 141.00 120.62 L 141.00 121.59 C 141.00 122.48 141.71 123.20 142.60 123.20 C 143.49 123.20 144.21 122.48 144.21 121.59 L 144.21 120.62 C 144.21 119.74 143.49 119.02 142.60 119.02 C 141.72 119.02 141.00 119.73 141.00 120.62 Z M 141.00 121.59 L 140.99 122.57 C 140.99 123.46 141.71 124.18 142.60 124.18 C 143.48 124.18 144.21 123.46 144.21 122.58 L 144.21 121.59 C 144.21 120.71 143.49 119.99 142.60 119.98 C 141.72 119.98 141.00 120.70 141.00 121.59 Z M 140.99 122.57 L 140.99 123.57 C 140.99 124.46 141.70 125.18 142.59 125.18 C 143.48 125.19 144.20 124.47 144.20 123.58 L 144.21 122.58 C 144.21 121.69 143.49 120.97 142.61 120.97 C 141.72 120.96 141.00 121.68 140.99 122.57 Z M 140.99 123.57 L 140.98 124.59 C 140.98 125.48 141.70 126.20 142.58 126.21 C 143.47 126.21 144.20 125.49 144.20 124.61 L 144.21 123.58 C 144.21 122.70 143.49 121.97 142.60 121.97 C 141.72 121.96 140.99 122.68 140.99 123.57 Z M 140.98 124.59 L 140.98 125.64 C 140.97 126.53 141.69 127.25 142.57 127.26 C 143.46 127.26 144.19 126.55 144.19 125.66 L 144.20 124.61 C 144.21 123.72 143.49 123.00 142.60 122.99 C 141.71 122.98 140.99 123.70 140.98 124.59 Z M 140.98 125.63 L 140.97 126.66 C 140.96 127.55 141.67 128.27 142.56 128.28 C 143.45 128.29 144.18 127.57 144.19 126.68 L 144.19 125.66 C 144.20 124.77 143.49 124.05 142.60 124.04 C 141.71 124.03 140.98 124.74 140.98 125.63 Z M 140.97 126.65 L 140.96 127.57 C 140.95 128.46 141.66 129.19 142.55 129.20 C 143.44 129.21 144.17 128.50 144.18 127.61 L 144.19 126.69 C 144.20 125.80 143.48 125.07 142.59 125.06 C 141.70 125.05 140.98 125.76 140.97 126.65 Z M 140.96 127.57 L 140.94 128.51 C 140.93 129.40 141.64 130.13 142.53 130.14 C 143.42 130.15 144.15 129.44 144.17 128.55 L 144.18 127.61 C 144.19 126.72 143.48 125.99 142.59 125.98 C 141.70 125.97 140.97 126.68 140.96 127.57 Z M 140.94 128.51 L 140.93 129.47 C 140.92 130.36 141.63 131.09 142.52 131.11 C 143.41 131.12 144.14 130.41 144.15 129.52 L 144.17 128.56 C 144.18 127.67 143.47 126.93 142.58 126.92 C 141.69 126.91 140.96 127.62 140.94 128.51 Z M 140.93 129.47 L 140.91 130.45 C 140.90 131.35 141.61 132.08 142.50 132.09 C 143.39 132.11 144.12 131.40 144.14 130.51 L 144.15 129.52 C 144.17 128.63 143.46 127.90 142.57 127.88 C 141.68 127.87 140.94 128.58 140.93 129.47 Z M 140.91 130.45 L 140.89 131.46 C 140.87 132.35 141.58 133.09 142.48 133.10 C 143.37 133.12 144.10 132.41 144.12 131.52 L 144.14 130.51 C 144.15 129.62 143.45 128.88 142.55 128.87 C 141.66 128.85 140.93 129.56 140.91 130.45 Z M 140.89 131.45 L 140.87 132.48 C 140.85 133.38 141.56 134.11 142.45 134.13 C 143.34 134.15 144.08 133.44 144.10 132.55 L 144.12 131.52 C 144.14 130.63 143.43 129.89 142.54 129.87 C 141.65 129.86 140.91 130.56 140.89 131.45 Z M 140.87 132.48 L 140.84 133.53 C 140.82 134.42 141.53 135.16 142.42 135.19 C 143.31 135.21 144.05 134.50 144.07 133.61 L 144.10 132.56 C 144.12 131.66 143.41 130.92 142.52 130.90 C 141.63 130.88 140.89 131.59 140.87 132.48 Z M 140.84 133.53 L 140.82 134.60 C 140.79 135.50 141.50 136.24 142.39 136.26 C 143.28 136.28 144.03 135.58 144.05 134.69 L 144.08 133.61 C 144.10 132.72 143.39 131.98 142.50 131.95 C 141.61 131.93 140.87 132.64 140.84 133.53 Z M 140.82 134.60 L 140.79 135.64 C 140.76 136.53 141.47 137.27 142.36 137.30 C 143.25 137.32 143.99 136.62 144.02 135.73 L 144.05 134.69 C 144.07 133.80 143.37 133.05 142.48 133.03 C 141.58 133.00 140.84 133.71 140.82 134.60 Z M 140.79 135.63 L 140.76 136.61 C 140.73 137.50 141.43 138.24 142.33 138.27 C 143.22 138.30 143.96 137.60 143.99 136.70 L 144.02 135.73 C 144.05 134.84 143.34 134.09 142.45 134.06 C 141.56 134.04 140.81 134.74 140.79 135.63 Z M 140.76 136.60 L 140.73 137.59 C 140.70 138.48 141.40 139.23 142.29 139.26 C 143.18 139.29 143.93 138.59 143.96 137.69 L 143.99 136.71 C 144.02 135.81 143.32 135.07 142.43 135.04 C 141.53 135.01 140.79 135.71 140.76 136.60 Z M 140.73 137.59 L 140.69 138.59 C 140.66 139.48 141.36 140.23 142.25 140.26 C 143.15 140.29 143.90 139.59 143.93 138.69 L 143.96 137.70 C 143.99 136.80 143.29 136.06 142.40 136.03 C 141.50 136.00 140.76 136.70 140.73 137.59 Z M 140.69 138.58 L 140.66 139.59 C 140.63 140.48 141.32 141.23 142.22 141.26 C 143.11 141.29 143.86 140.59 143.89 139.70 L 143.92 138.70 C 143.96 137.80 143.26 137.06 142.37 137.02 C 141.47 136.99 140.72 137.69 140.69 138.58 Z M 140.66 139.59 L 140.62 140.60 C 140.59 141.49 141.28 142.24 142.18 142.27 C 143.07 142.30 143.82 141.61 143.85 140.72 L 143.89 139.71 C 143.92 138.81 143.23 138.06 142.33 138.03 C 141.44 138.00 140.69 138.69 140.66 139.59 Z M 140.62 140.59 L 140.58 141.61 C 140.55 142.50 141.24 143.25 142.13 143.28 C 143.03 143.32 143.78 142.62 143.81 141.73 L 143.85 140.72 C 143.89 139.83 143.19 139.07 142.30 139.04 C 141.41 139.01 140.65 139.70 140.62 140.59 Z M 140.58 141.60 L 140.54 142.62 C 140.50 143.51 141.20 144.26 142.09 144.30 C 142.98 144.33 143.74 143.64 143.77 142.75 L 143.81 141.73 C 143.85 140.84 143.15 140.09 142.26 140.05 C 141.37 140.02 140.62 140.71 140.58 141.60 Z M 140.54 142.61 L 140.50 143.62 C 140.46 144.51 141.15 145.27 142.05 145.30 C 142.94 145.34 143.69 144.65 143.73 143.76 L 143.77 142.75 C 143.81 141.86 143.12 141.10 142.22 141.07 C 141.33 141.03 140.58 141.72 140.54 142.61 Z M 140.50 143.62 L 140.46 144.62 C 140.42 145.51 141.11 146.27 142.00 146.31 C 142.89 146.35 143.65 145.65 143.68 144.76 L 143.73 143.76 C 143.77 142.87 143.08 142.11 142.18 142.07 C 141.29 142.04 140.54 142.73 140.50 143.62 Z M 140.46 144.62 L 140.41 145.63 C 140.37 146.52 141.06 147.27 141.95 147.31 C 142.84 147.35 143.60 146.66 143.64 145.77 L 143.68 144.76 C 143.72 143.87 143.03 143.12 142.14 143.08 C 141.25 143.04 140.50 143.73 140.46 144.62 Z M 140.41 145.62 L 140.36 146.65 C 140.32 147.54 141.01 148.30 141.90 148.34 C 142.79 148.38 143.55 147.69 143.59 146.80 L 143.64 145.77 C 143.68 144.88 142.99 144.13 142.10 144.08 C 141.21 144.04 140.45 144.73 140.41 145.62 Z M 140.36 146.65 L 140.31 147.67 C 140.27 148.56 140.96 149.31 141.85 149.36 C 142.74 149.40 143.50 148.71 143.54 147.82 L 143.59 146.80 C 143.63 145.91 142.95 145.15 142.05 145.11 C 141.16 145.07 140.41 145.76 140.36 146.65 Z M 140.31 147.66 L 140.26 148.67 C 140.22 149.56 140.91 150.32 141.80 150.37 C 142.69 150.41 143.45 149.72 143.49 148.83 L 143.54 147.82 C 143.59 146.93 142.90 146.17 142.01 146.13 C 141.12 146.09 140.36 146.77 140.31 147.66 Z M 140.26 148.67 L 140.21 149.67 C 140.17 150.56 140.86 151.32 141.75 151.37 C 142.64 151.41 143.40 150.73 143.44 149.83 L 143.49 148.83 C 143.54 147.94 142.85 147.18 141.96 147.14 C 141.07 147.09 140.31 147.78 140.26 148.67 Z M 140.21 149.67 L 140.16 150.66 C 140.12 151.55 140.80 152.31 141.69 152.36 C 142.58 152.41 143.34 151.72 143.39 150.83 L 143.44 149.84 C 143.49 148.94 142.80 148.18 141.91 148.14 C 141.02 148.09 140.26 148.78 140.21 149.67 Z M 140.16 150.66 L 140.11 151.65 C 140.06 152.54 140.75 153.30 141.64 153.35 C 142.53 153.40 143.29 152.71 143.34 151.82 L 143.39 150.83 C 143.44 149.94 142.75 149.18 141.86 149.13 C 140.97 149.09 140.21 149.77 140.16 150.66 Z M 140.11 151.65 L 140.06 152.63 C 140.01 153.53 140.69 154.29 141.58 154.33 C 142.48 154.38 143.24 153.70 143.28 152.81 L 143.34 151.82 C 143.39 150.93 142.70 150.17 141.81 150.12 C 140.92 150.07 140.16 150.76 140.11 151.65 Z M 140.06 152.63 L 140.00 153.62 C 139.96 154.51 140.64 155.27 141.53 155.32 C 142.42 155.37 143.18 154.68 143.23 153.79 L 143.28 152.81 C 143.33 151.92 142.65 151.16 141.76 151.11 C 140.87 151.06 140.11 151.74 140.06 152.63 Z M 140.00 153.62 L 139.95 154.60 C 139.90 155.49 140.58 156.25 141.48 156.30 C 142.37 156.35 143.13 155.66 143.18 154.77 L 143.23 153.79 C 143.28 152.90 142.60 152.14 141.71 152.09 C 140.82 152.04 140.05 152.72 140.00 153.62 Z M 139.95 154.60 L 139.90 155.58 C 139.85 156.47 140.53 157.24 141.42 157.29 C 142.31 157.34 143.07 156.65 143.12 155.76 L 143.18 154.77 C 143.23 153.88 142.54 153.12 141.65 153.07 C 140.76 153.02 140.00 153.70 139.95 154.60 Z M 139.90 155.58 L 139.84 156.58 C 139.79 157.47 140.47 158.23 141.36 158.28 C 142.25 158.33 143.02 157.65 143.07 156.76 L 143.12 155.76 C 143.17 154.87 142.49 154.11 141.60 154.06 C 140.71 154.01 139.95 154.69 139.90 155.58 Z M 139.84 156.58 L 139.79 157.57 C 139.74 158.46 140.42 159.22 141.31 159.27 C 142.20 159.32 142.96 158.64 143.01 157.75 L 143.07 156.76 C 143.12 155.87 142.43 155.10 141.54 155.05 C 140.65 155.00 139.89 155.69 139.84 156.58 Z M 139.79 157.57 L 139.73 158.57 C 139.68 159.46 140.36 160.22 141.25 160.27 C 142.14 160.32 142.90 159.64 142.95 158.75 L 143.01 157.75 C 143.06 156.86 142.38 156.10 141.49 156.05 C 140.60 156.00 139.84 156.68 139.79 157.57 Z M 139.73 158.57 L 139.67 159.56 C 139.62 160.45 140.31 161.21 141.20 161.26 C 142.09 161.31 142.85 160.63 142.90 159.74 L 142.95 158.75 C 143.00 157.86 142.32 157.09 141.43 157.04 C 140.54 156.99 139.78 157.68 139.73 158.57 Z M 139.67 159.56 L 139.62 160.56 C 139.57 161.45 140.25 162.21 141.14 162.26 C 142.03 162.31 142.79 161.63 142.84 160.74 L 142.90 159.74 C 142.95 158.85 142.27 158.09 141.38 158.04 C 140.49 157.99 139.72 158.67 139.67 159.56 Z M 139.62 160.56 L 139.56 161.56 C 139.51 162.45 140.19 163.21 141.08 163.26 C 141.97 163.31 142.74 162.63 142.79 161.74 L 142.84 160.74 C 142.89 159.85 142.21 159.09 141.32 159.04 C 140.43 158.99 139.67 159.67 139.62 160.56 Z M 139.56 161.56 L 139.51 162.56 C 139.46 163.45 140.14 164.21 141.03 164.26 C 141.92 164.31 142.68 163.63 142.73 162.74 L 142.78 161.74 C 142.83 160.85 142.15 160.09 141.26 160.04 C 140.37 159.99 139.61 160.67 139.56 161.56 Z M 139.51 162.56 L 139.45 163.57 C 139.40 164.46 140.08 165.22 140.97 165.27 C 141.86 165.31 142.62 164.63 142.67 163.74 L 142.73 162.74 C 142.78 161.85 142.10 161.09 141.21 161.04 C 140.32 160.99 139.56 161.67 139.51 162.56 Z M 139.45 163.57 L 139.40 164.57 C 139.35 165.46 140.03 166.22 140.92 166.27 C 141.81 166.32 142.57 165.64 142.62 164.75 L 142.67 163.74 C 142.72 162.85 142.04 162.09 141.15 162.05 C 140.26 162.00 139.50 162.68 139.45 163.57 Z M 139.40 164.57 L 139.34 165.57 C 139.30 166.45 139.98 167.21 140.87 167.26 C 141.75 167.31 142.51 166.63 142.56 165.74 L 142.62 164.75 C 142.67 163.86 141.98 163.10 141.10 163.05 C 140.21 163.00 139.45 163.69 139.40 164.57 Z M 139.35 165.57 L 139.29 166.56 C 139.24 167.45 139.92 168.21 140.81 168.25 C 141.70 168.30 142.46 167.62 142.51 166.73 L 142.56 165.74 C 142.61 164.85 141.93 164.09 141.04 164.04 C 140.15 164.00 139.39 164.68 139.35 165.57 Z M 139.29 166.56 L 139.24 167.56 C 139.19 168.44 139.87 169.20 140.76 169.25 C 141.65 169.30 142.41 168.62 142.45 167.73 L 142.51 166.73 C 142.56 165.85 141.87 165.09 140.99 165.04 C 140.10 164.99 139.34 165.67 139.29 166.56 Z M 139.24 167.56 L 139.19 168.55 C 139.14 169.44 139.82 170.20 140.71 170.25 C 141.59 170.29 142.35 169.61 142.40 168.73 L 142.45 167.73 C 142.50 166.84 141.82 166.08 140.93 166.03 C 140.05 165.99 139.29 166.67 139.24 167.56 Z M 139.19 168.55 L 139.13 169.55 C 139.08 170.44 139.76 171.20 140.65 171.24 C 141.54 171.29 142.30 170.61 142.34 169.73 L 142.40 168.73 C 142.45 167.84 141.77 167.08 140.88 167.03 C 139.99 166.98 139.23 167.66 139.19 168.55 Z M 139.13 169.55 L 139.08 170.55 C 139.03 171.44 139.71 172.20 140.60 172.24 C 141.48 172.29 142.24 171.61 142.29 170.73 L 142.34 169.73 C 142.39 168.84 141.71 168.08 140.83 168.03 C 139.94 167.98 139.18 168.66 139.13 169.55 Z M 139.08 170.55 L 139.02 171.55 C 138.97 172.44 139.65 173.20 140.54 173.24 C 141.42 173.29 142.18 172.62 142.23 171.73 L 142.29 170.73 C 142.34 169.84 141.66 169.08 140.77 169.03 C 139.89 168.98 139.13 169.66 139.08 170.55 Z M 139.02 171.55 L 138.97 172.55 C 138.92 173.44 139.59 174.20 140.48 174.25 C 141.37 174.30 142.12 173.62 142.17 172.73 L 142.23 171.73 C 142.28 170.84 141.60 170.09 140.72 170.04 C 139.83 169.99 139.07 170.66 139.02 171.55 Z M 138.97 172.55 L 138.91 173.55 C 138.86 174.44 139.54 175.20 140.42 175.25 C 141.31 175.30 142.06 174.62 142.12 173.74 L 142.17 172.73 C 142.22 171.85 141.55 171.09 140.66 171.04 C 139.78 170.99 139.02 171.66 138.97 172.55 Z M 138.91 173.55 L 138.85 174.56 C 138.80 175.44 139.47 176.20 140.36 176.26 C 141.24 176.31 142.00 175.63 142.06 174.75 L 142.11 173.74 C 142.17 172.85 141.49 172.09 140.61 172.04 C 139.72 171.99 138.96 172.67 138.91 173.55 Z M 138.85 174.56 L 138.79 175.59 C 138.74 176.47 139.41 177.23 140.29 177.29 C 141.18 177.34 141.94 176.67 141.99 175.78 L 142.05 174.75 C 142.11 173.87 141.43 173.11 140.55 173.05 C 139.67 173.00 138.91 173.67 138.85 174.56 Z M 138.79 175.59 L 138.73 176.62 C 138.67 177.50 139.34 178.26 140.23 178.32 C 141.11 178.37 141.87 177.70 141.93 176.81 L 141.99 175.78 C 142.05 174.90 141.37 174.14 140.49 174.09 C 139.61 174.03 138.85 174.70 138.79 175.59 Z M 138.73 176.61 L 138.66 177.64 C 138.61 178.52 139.28 179.28 140.16 179.34 C 141.04 179.40 141.81 178.72 141.86 177.84 L 141.93 176.82 C 141.98 175.93 141.31 175.17 140.43 175.12 C 139.54 175.06 138.78 175.73 138.73 176.61 Z M 138.66 177.64 L 138.60 178.65 C 138.54 179.54 139.21 180.30 140.09 180.36 C 140.98 180.41 141.74 179.74 141.80 178.86 L 141.86 177.84 C 141.92 176.96 141.25 176.20 140.37 176.14 C 139.48 176.08 138.72 176.75 138.66 177.64 Z M 138.60 178.65 L 138.53 179.66 C 138.48 180.54 139.14 181.30 140.03 181.36 C 140.91 181.42 141.67 180.75 141.73 179.87 L 141.79 178.86 C 141.85 177.98 141.18 177.22 140.30 177.16 C 139.42 177.10 138.66 177.77 138.60 178.65 Z M 138.53 179.66 L 138.47 180.65 C 138.41 181.54 139.08 182.30 139.96 182.36 C 140.84 182.41 141.60 181.75 141.66 180.86 L 141.73 179.87 C 141.79 178.99 141.12 178.23 140.24 178.17 C 139.35 178.11 138.59 178.78 138.53 179.66 Z M 138.47 180.65 L 138.40 181.63 C 138.34 182.51 139.01 183.28 139.89 183.34 C 140.77 183.39 141.54 182.73 141.60 181.85 L 141.66 180.87 C 141.72 179.98 141.05 179.22 140.17 179.16 C 139.29 179.10 138.53 179.77 138.47 180.65 Z M 138.40 181.63 L 138.34 182.60 C 138.28 183.48 138.95 184.24 139.83 184.30 C 140.71 184.36 141.47 183.69 141.53 182.81 L 141.60 181.85 C 141.65 180.97 140.99 180.20 140.11 180.14 C 139.23 180.08 138.46 180.75 138.40 181.63 Z M 138.34 182.59 L 138.28 183.54 C 138.22 184.42 138.88 185.18 139.76 185.24 C 140.64 185.30 141.41 184.64 141.47 183.76 L 141.53 182.81 C 141.59 181.93 140.92 181.17 140.04 181.11 C 139.16 181.05 138.40 181.71 138.34 182.59 Z M 138.28 183.54 L 138.21 184.57 C 138.15 185.45 138.81 186.21 139.69 186.27 C 140.57 186.33 141.33 185.67 141.39 184.79 L 141.46 183.76 C 141.52 182.88 140.86 182.11 139.98 182.05 C 139.10 181.99 138.34 182.66 138.28 183.54 Z M 138.21 184.57 L 138.13 185.62 C 138.07 186.50 138.74 187.26 139.62 187.32 C 140.50 187.38 141.26 186.72 141.32 185.84 L 141.39 184.79 C 141.45 183.91 140.79 183.14 139.91 183.08 C 139.03 183.02 138.27 183.69 138.21 184.57 Z M 138.13 185.61 L 138.06 186.64 C 138.00 187.52 138.67 188.28 139.55 188.34 C 140.42 188.40 141.19 187.74 141.25 186.86 L 141.32 185.84 C 141.38 184.96 140.72 184.19 139.84 184.13 C 138.96 184.07 138.20 184.73 138.13 185.61 Z M 138.06 186.64 L 137.99 187.64 C 137.93 188.52 138.59 189.28 139.47 189.34 C 140.35 189.41 141.12 188.74 141.18 187.86 L 141.25 186.86 C 141.31 185.98 140.65 185.22 139.77 185.16 C 138.89 185.09 138.13 185.76 138.06 186.64 Z M 137.99 187.64 L 137.92 188.62 C 137.86 189.50 138.52 190.27 139.40 190.33 C 140.28 190.39 141.04 189.73 141.11 188.85 L 141.18 187.87 C 141.24 186.99 140.58 186.22 139.70 186.16 C 138.82 186.10 138.06 186.76 137.99 187.64 Z M 137.92 188.62 L 137.85 189.59 C 137.79 190.47 138.45 191.24 139.33 191.30 C 140.21 191.36 140.97 190.70 141.04 189.83 L 141.11 188.85 C 141.17 187.97 140.51 187.21 139.63 187.15 C 138.75 187.08 137.99 187.74 137.92 188.62 Z M 137.85 189.59 L 137.78 190.55 C 137.72 191.43 138.38 192.20 139.25 192.26 C 140.13 192.33 140.90 191.67 140.96 190.79 L 141.03 189.83 C 141.10 188.95 140.44 188.18 139.56 188.12 C 138.68 188.05 137.92 188.71 137.85 189.59 Z M 137.78 190.55 L 137.71 191.50 C 137.64 192.38 138.30 193.15 139.18 193.22 C 140.06 193.28 140.82 192.62 140.89 191.75 L 140.96 190.79 C 141.03 189.91 140.37 189.15 139.49 189.08 C 138.62 189.01 137.85 189.67 137.78 190.55 Z M 137.71 191.50 L 137.63 192.51 C 137.56 193.38 138.22 194.15 139.10 194.22 C 139.98 194.29 140.74 193.63 140.81 192.75 L 140.89 191.75 C 140.96 190.87 140.30 190.10 139.42 190.04 C 138.55 189.97 137.78 190.62 137.71 191.50 Z M 137.63 192.50 L 137.55 193.54 C 137.48 194.42 138.13 195.19 139.01 195.26 C 139.89 195.33 140.66 194.67 140.73 193.80 L 140.81 192.76 C 140.88 191.88 140.23 191.11 139.35 191.04 C 138.47 190.97 137.70 191.63 137.63 192.50 Z M 137.55 193.54 L 137.47 194.57 C 137.40 195.45 138.05 196.21 138.92 196.29 C 139.80 196.36 140.57 195.70 140.64 194.83 L 140.73 193.80 C 140.80 192.92 140.14 192.15 139.27 192.08 C 138.39 192.01 137.62 192.66 137.55 193.54 Z M 137.47 194.57 L 137.38 195.58 C 137.31 196.46 137.96 197.23 138.84 197.30 C 139.71 197.37 140.48 196.72 140.56 195.85 L 140.64 194.83 C 140.71 193.95 140.06 193.18 139.19 193.11 C 138.31 193.04 137.54 193.69 137.47 194.57 Z M 137.38 195.58 L 137.30 196.58 C 137.22 197.46 137.87 198.23 138.75 198.30 C 139.63 198.37 140.40 197.72 140.47 196.85 L 140.56 195.85 C 140.63 194.97 139.98 194.20 139.10 194.13 C 138.23 194.05 137.46 194.70 137.38 195.58 Z M 137.30 196.58 L 137.22 197.55 C 137.14 198.43 137.79 199.20 138.66 199.28 C 139.54 199.35 140.31 198.70 140.39 197.83 L 140.47 196.85 C 140.55 195.97 139.90 195.20 139.02 195.13 C 138.15 195.05 137.38 195.70 137.30 196.58 Z M 137.22 197.55 L 137.13 198.50 C 137.06 199.38 137.70 200.15 138.58 200.23 C 139.45 200.30 140.23 199.66 140.30 198.78 L 140.39 197.83 C 140.46 196.95 139.82 196.18 138.94 196.11 C 138.06 196.03 137.29 196.68 137.22 197.55 Z M 137.13 198.50 L 137.05 199.45 C 136.97 200.33 137.62 201.10 138.49 201.18 C 139.37 201.26 140.14 200.61 140.22 199.74 L 140.30 198.78 C 140.38 197.91 139.73 197.14 138.86 197.06 C 137.98 196.98 137.21 197.63 137.13 198.50 Z M 137.05 199.45 L 136.95 200.52 C 136.87 201.39 137.52 202.17 138.40 202.24 C 139.27 202.32 140.04 201.68 140.12 200.80 L 140.22 199.74 C 140.30 198.86 139.65 198.09 138.78 198.01 C 137.90 197.93 137.13 198.58 137.05 199.45 Z M 136.95 200.52 L 136.86 201.54 C 136.78 202.42 137.42 203.19 138.30 203.27 C 139.17 203.35 139.95 202.71 140.03 201.83 L 140.12 200.81 C 140.20 199.93 139.56 199.16 138.68 199.08 C 137.81 199.00 137.03 199.64 136.95 200.52 Z M 136.86 201.54 L 136.77 202.53 C 136.68 203.41 137.33 204.18 138.20 204.27 C 139.08 204.35 139.85 203.70 139.94 202.83 L 140.03 201.84 C 140.11 200.96 139.47 200.18 138.59 200.10 C 137.72 200.02 136.94 200.66 136.86 201.54 Z M 136.77 202.53 L 136.67 203.50 C 136.59 204.37 137.23 205.15 138.10 205.24 C 138.98 205.32 139.76 204.68 139.84 203.80 L 139.94 202.83 C 140.02 201.96 139.38 201.18 138.50 201.10 C 137.63 201.01 136.85 201.65 136.77 202.53 Z M 136.67 203.49 L 136.58 204.45 C 136.49 205.32 137.13 206.10 138.01 206.19 C 138.88 206.28 139.66 205.64 139.75 204.76 L 139.84 203.81 C 139.93 202.93 139.29 202.15 138.41 202.07 C 137.54 201.98 136.76 202.62 136.67 203.49 Z M 136.58 204.44 L 136.48 205.39 C 136.39 206.27 137.03 207.05 137.91 207.14 C 138.78 207.23 139.56 206.59 139.65 205.71 L 139.75 204.77 C 139.84 203.89 139.20 203.11 138.32 203.02 C 137.45 202.93 136.67 203.57 136.58 204.44 Z M 136.48 205.39 L 136.38 206.40 C 136.29 207.27 136.92 208.06 137.79 208.15 C 138.67 208.24 139.45 207.61 139.54 206.73 L 139.65 205.72 C 139.74 204.84 139.11 204.06 138.23 203.97 C 137.36 203.88 136.57 204.51 136.48 205.39 Z M 136.38 206.39 L 136.27 207.40 C 136.18 208.28 136.81 209.06 137.68 209.16 C 138.55 209.25 139.34 208.62 139.43 207.74 L 139.54 206.74 C 139.64 205.86 139.00 205.08 138.13 204.98 C 137.26 204.89 136.47 205.52 136.38 206.39 Z M 136.27 207.40 L 136.16 208.40 C 136.06 209.27 136.69 210.06 137.57 210.16 C 138.44 210.25 139.22 209.62 139.32 208.75 L 139.43 207.75 C 139.53 206.88 138.90 206.09 138.03 205.99 C 137.15 205.90 136.37 206.53 136.27 207.40 Z M 136.16 208.40 L 136.05 209.39 C 135.95 210.26 136.58 211.05 137.45 211.14 C 138.32 211.24 139.11 210.62 139.21 209.75 L 139.32 208.75 C 139.42 207.88 138.79 207.10 137.92 207.00 C 137.05 206.90 136.26 207.53 136.16 208.40 Z M 136.05 209.38 L 135.94 210.36 C 135.84 211.23 136.46 212.02 137.33 212.12 C 138.20 212.22 138.99 211.60 139.09 210.73 L 139.20 209.75 C 139.30 208.88 138.68 208.09 137.81 207.99 C 136.94 207.89 136.15 208.51 136.05 209.38 Z M 135.94 210.36 L 135.82 211.34 C 135.72 212.21 136.34 213.00 137.21 213.10 C 138.08 213.21 138.87 212.59 138.97 211.72 L 139.09 210.73 C 139.19 209.86 138.57 209.07 137.70 208.97 C 136.83 208.87 136.04 209.49 135.94 210.36 Z M 135.83 211.34 L 135.70 212.38 C 135.60 213.24 136.21 214.03 137.08 214.14 C 137.95 214.24 138.74 213.63 138.84 212.76 L 138.97 211.72 C 139.08 210.85 138.46 210.06 137.59 209.96 C 136.72 209.85 135.93 210.47 135.83 211.34 Z M 135.70 212.37 L 135.58 213.38 C 135.47 214.25 136.08 215.04 136.95 215.15 C 137.82 215.26 138.61 214.64 138.72 213.78 L 138.84 212.76 C 138.95 211.90 138.33 211.10 137.47 211.00 C 136.60 210.89 135.81 211.50 135.70 212.37 Z M 135.58 213.38 L 135.45 214.37 C 135.34 215.23 135.95 216.03 136.82 216.14 C 137.69 216.25 138.48 215.63 138.59 214.77 L 138.71 213.78 C 138.82 212.91 138.21 212.12 137.35 212.01 C 136.48 211.90 135.69 212.51 135.58 213.38 Z M 135.45 214.36 L 135.33 215.33 C 135.22 216.19 135.82 216.99 136.69 217.10 C 137.55 217.21 138.35 216.60 138.46 215.74 L 138.59 214.77 C 138.70 213.91 138.09 213.12 137.22 213.00 C 136.36 212.89 135.57 213.50 135.45 214.36 Z M 135.33 215.32 L 135.20 216.27 C 135.09 217.13 135.69 217.92 136.56 218.04 C 137.42 218.15 138.22 217.55 138.33 216.68 L 138.46 215.74 C 138.57 214.88 137.97 214.08 137.10 213.97 C 136.24 213.85 135.45 214.46 135.33 215.32 Z M 135.21 216.26 L 135.07 217.24 C 134.95 218.10 135.56 218.90 136.42 219.01 C 137.28 219.13 138.08 218.53 138.20 217.67 L 138.33 216.69 C 138.45 215.83 137.85 215.03 136.98 214.91 C 136.12 214.79 135.32 215.40 135.21 216.26 Z M 135.07 217.23 L 134.94 218.20 C 134.81 219.06 135.41 219.86 136.27 219.98 C 137.14 220.10 137.93 219.50 138.06 218.64 L 138.19 217.67 C 138.32 216.81 137.72 216.01 136.85 215.89 C 135.99 215.77 135.19 216.37 135.07 217.23 Z M 134.94 218.19 L 134.79 219.17 C 134.67 220.03 135.26 220.83 136.13 220.95 C 136.99 221.08 137.79 220.48 137.91 219.62 L 138.06 218.65 C 138.18 217.79 137.58 216.99 136.72 216.86 C 135.86 216.74 135.06 217.33 134.94 218.19 Z M 134.80 219.16 L 134.65 220.16 C 134.52 221.02 135.11 221.82 135.97 221.95 C 136.83 222.08 137.63 221.49 137.76 220.63 L 137.91 219.63 C 138.04 218.77 137.45 217.97 136.59 217.84 C 135.73 217.71 134.93 218.30 134.80 219.16 Z M 134.65 220.15 L 134.49 221.18 C 134.36 222.04 134.95 222.85 135.81 222.98 C 136.67 223.11 137.47 222.52 137.60 221.66 L 137.76 220.63 C 137.89 219.77 137.30 218.97 136.44 218.84 C 135.58 218.71 134.78 219.29 134.65 220.15 Z M 134.49 221.18 L 134.33 222.20 C 134.20 223.05 134.78 223.86 135.64 224.00 C 136.50 224.13 137.30 223.54 137.44 222.69 L 137.60 221.67 C 137.73 220.81 137.15 220.01 136.29 219.87 C 135.43 219.74 134.63 220.32 134.49 221.18 Z M 134.34 222.19 L 134.17 223.22 C 134.03 224.08 134.61 224.88 135.46 225.02 C 136.32 225.16 137.13 224.58 137.27 223.73 L 137.43 222.70 C 137.57 221.84 136.99 221.03 136.14 220.89 C 135.28 220.75 134.48 221.33 134.34 222.19 Z M 134.17 223.21 L 134.00 224.23 C 133.85 225.08 134.42 225.89 135.28 226.04 C 136.13 226.18 136.94 225.61 137.09 224.76 L 137.26 223.74 C 137.41 222.89 136.83 222.08 135.98 221.93 C 135.13 221.78 134.32 222.36 134.17 223.21 Z M 134.00 224.21 L 133.82 225.18 C 133.67 226.03 134.23 226.84 135.08 227.00 C 135.93 227.16 136.75 226.59 136.90 225.74 L 137.08 224.77 C 137.24 223.92 136.67 223.11 135.82 222.95 C 134.97 222.80 134.16 223.36 134.00 224.21 Z M 133.83 225.15 L 133.65 226.05 C 133.48 226.89 134.03 227.72 134.88 227.89 C 135.72 228.06 136.55 227.51 136.72 226.66 L 136.90 225.77 C 137.07 224.92 136.52 224.10 135.67 223.93 C 134.82 223.76 134.00 224.31 133.83 225.15 Z M 133.67 225.99 L 133.32 227.41 C 133.12 228.25 133.63 229.09 134.47 229.30 C 135.31 229.50 136.15 228.98 136.36 228.15 L 136.70 226.72 C 136.91 225.88 136.39 225.04 135.55 224.84 C 134.71 224.63 133.87 225.15 133.67 225.99 Z M 133.39 227.18 L 133.10 227.91 C 132.77 228.71 133.15 229.62 133.95 229.95 C 134.74 230.28 135.66 229.90 135.98 229.10 L 136.28 228.37 C 136.61 227.57 136.23 226.66 135.43 226.33 C 134.64 226.01 133.72 226.39 133.39 227.18 Z M 135.75 227.52 L 135.57 227.30 C 135.03 226.63 134.04 226.54 133.38 227.08 C 132.71 227.63 132.61 228.61 133.16 229.28 L 133.33 229.49 C 133.88 230.16 134.86 230.26 135.53 229.71 C 136.20 229.17 136.29 228.18 135.75 227.52 Z M 135.92 228.16 L 135.85 227.38 C 135.78 226.52 135.02 225.89 134.16 225.96 C 133.30 226.03 132.67 226.79 132.74 227.65 L 132.81 228.42 C 132.88 229.28 133.64 229.92 134.50 229.85 C 135.36 229.77 135.99 229.01 135.92 228.16 Z M 135.86 227.51 L 135.85 226.38 C 135.85 225.52 135.14 224.83 134.28 224.83 C 133.42 224.84 132.72 225.54 132.73 226.41 L 132.74 227.53 C 132.74 228.39 133.45 229.08 134.31 229.08 C 135.17 229.07 135.87 228.37 135.86 227.51 Z M 135.85 226.45 L 135.89 225.17 C 135.92 224.31 135.25 223.59 134.38 223.56 C 133.52 223.53 132.80 224.21 132.77 225.07 L 132.73 226.34 C 132.70 227.20 133.38 227.93 134.24 227.95 C 135.10 227.98 135.82 227.31 135.85 226.45 Z M 135.89 225.22 L 135.96 224.13 C 136.02 223.27 135.36 222.53 134.50 222.47 C 133.64 222.42 132.90 223.07 132.84 223.93 L 132.77 225.02 C 132.72 225.88 133.37 226.62 134.23 226.68 C 135.09 226.73 135.83 226.08 135.89 225.22 Z M 135.96 224.18 L 136.05 223.17 C 136.13 222.31 135.50 221.55 134.64 221.47 C 133.78 221.39 133.02 222.02 132.94 222.88 L 132.85 223.89 C 132.77 224.75 133.40 225.51 134.26 225.59 C 135.12 225.67 135.88 225.04 135.96 224.18 Z M 136.05 223.21 L 136.16 222.23 C 136.27 221.37 135.65 220.59 134.80 220.49 C 133.94 220.39 133.16 221.00 133.06 221.86 L 132.95 222.84 C 132.84 223.69 133.46 224.47 134.31 224.57 C 135.17 224.68 135.94 224.06 136.05 223.21 Z M 136.16 222.26 L 136.30 221.30 C 136.42 220.45 135.82 219.66 134.97 219.53 C 134.12 219.41 133.33 220.01 133.20 220.86 L 133.07 221.82 C 132.95 222.68 133.54 223.47 134.39 223.59 C 135.25 223.71 136.04 223.12 136.16 222.26 Z M 136.29 221.33 L 136.45 220.36 C 136.58 219.51 136.01 218.70 135.15 218.57 C 134.30 218.43 133.50 219.01 133.36 219.86 L 133.21 220.83 C 133.07 221.68 133.65 222.48 134.50 222.62 C 135.35 222.76 136.15 222.18 136.29 221.33 Z M 136.44 220.38 L 136.62 219.40 C 136.77 218.55 136.20 217.74 135.35 217.59 C 134.50 217.44 133.69 218.01 133.54 218.86 L 133.37 219.84 C 133.22 220.69 133.79 221.50 134.64 221.65 C 135.49 221.80 136.29 221.23 136.44 220.38 Z M 136.61 219.41 L 136.80 218.43 C 136.95 217.58 136.40 216.76 135.55 216.61 C 134.70 216.45 133.88 217.01 133.73 217.86 L 133.54 218.84 C 133.39 219.69 133.95 220.50 134.79 220.66 C 135.64 220.82 136.46 220.26 136.61 219.41 Z M 136.79 218.44 L 136.98 217.45 C 137.15 216.61 136.59 215.79 135.75 215.63 C 134.90 215.46 134.08 216.02 133.92 216.86 L 133.73 217.85 C 133.57 218.69 134.12 219.51 134.97 219.67 C 135.81 219.84 136.63 219.28 136.79 218.44 Z M 136.98 217.46 L 137.10 216.85 C 137.27 216.00 136.72 215.18 135.87 215.02 C 135.02 214.85 134.20 215.40 134.04 216.25 L 133.92 216.86 C 133.75 217.71 134.31 218.53 135.15 218.69 C 136.00 218.86 136.82 218.30 136.98 217.46 Z"
      fill="black"
      fill-rule="nonzero" /><path d="M 150.29 155.73 L 150.97 155.10 C 151.60 154.52 151.65 153.53 151.06 152.90 C 150.48 152.26 149.49 152.22 148.86 152.80 L 148.18 153.42 C 147.54 154.01 147.50 154.99 148.08 155.63 C 148.67 156.26 149.65 156.31 150.29 155.73 Z M 150.87 155.18 L 151.62 154.60 C 152.30 154.07 152.42 153.09 151.89 152.41 C 151.36 151.73 150.38 151.61 149.70 152.14 L 148.95 152.72 C 148.27 153.25 148.15 154.23 148.68 154.91 C 149.21 155.59 150.19 155.71 150.87 155.18 Z M 151.43 154.73 L 152.32 154.22 C 153.07 153.79 153.33 152.84 152.90 152.09 C 152.47 151.34 151.52 151.08 150.77 151.51 L 149.89 152.01 C 149.14 152.44 148.88 153.40 149.30 154.14 C 149.73 154.89 150.68 155.15 151.43 154.73 Z M 152.08 154.33 L 153.09 153.97 C 153.90 153.67 154.32 152.78 154.03 151.97 C 153.74 151.16 152.84 150.74 152.03 151.03 L 151.01 151.40 C 150.20 151.69 149.78 152.59 150.08 153.40 C 150.37 154.21 151.26 154.63 152.08 154.33 Z M 152.89 154.02 L 153.83 153.82 C 154.68 153.63 155.21 152.80 155.03 151.96 C 154.84 151.12 154.01 150.58 153.17 150.77 L 152.23 150.97 C 151.39 151.16 150.85 151.99 151.04 152.83 C 151.22 153.67 152.05 154.21 152.89 154.02 Z M 153.72 153.84 L 154.73 153.70 C 155.59 153.58 156.18 152.79 156.06 151.93 C 155.94 151.08 155.15 150.48 154.30 150.60 L 153.28 150.75 C 152.43 150.87 151.83 151.66 151.95 152.51 C 152.07 153.36 152.86 153.96 153.72 153.84 Z M 154.66 153.70 L 155.70 153.61 C 156.56 153.53 157.19 152.77 157.12 151.91 C 157.04 151.05 156.28 150.42 155.42 150.50 L 154.38 150.59 C 153.52 150.67 152.88 151.43 152.96 152.29 C 153.04 153.15 153.80 153.78 154.66 153.70 Z M 155.66 153.61 L 156.68 153.55 C 157.54 153.50 158.19 152.76 158.14 151.90 C 158.09 151.04 157.35 150.38 156.49 150.43 L 155.47 150.50 C 154.61 150.55 153.95 151.29 154.00 152.15 C 154.06 153.01 154.80 153.66 155.66 153.61 Z M 156.65 153.55 L 157.64 153.51 C 158.50 153.47 159.17 152.74 159.13 151.87 C 159.09 151.01 158.36 150.35 157.49 150.39 L 156.51 150.43 C 155.65 150.47 154.98 151.20 155.02 152.06 C 155.06 152.92 155.79 153.59 156.65 153.55 Z M 157.63 153.51 L 158.76 153.46 C 159.62 153.42 160.29 152.69 160.25 151.83 C 160.21 150.97 159.48 150.30 158.62 150.34 L 157.50 150.39 C 156.64 150.42 155.97 151.15 156.01 152.01 C 156.04 152.88 156.77 153.54 157.63 153.51 Z M 158.76 153.46 L 159.74 153.41 C 160.60 153.37 161.27 152.64 161.23 151.78 C 161.19 150.92 160.46 150.25 159.60 150.29 L 158.62 150.34 C 157.76 150.38 157.09 151.11 157.13 151.97 C 157.17 152.83 157.90 153.50 158.76 153.46 Z M 159.75 153.41 L 160.66 153.37 C 161.52 153.32 162.19 152.59 162.14 151.73 C 162.10 150.87 161.37 150.21 160.51 150.25 L 159.59 150.29 C 158.73 150.34 158.07 151.07 158.11 151.93 C 158.15 152.79 158.89 153.45 159.75 153.41 Z M 160.67 153.37 L 161.58 153.32 C 162.45 153.27 163.11 152.53 163.06 151.67 C 163.01 150.81 162.27 150.15 161.41 150.20 L 160.50 150.25 C 159.64 150.30 158.98 151.03 159.03 151.89 C 159.07 152.75 159.81 153.41 160.67 153.37 Z M 161.60 153.32 L 162.54 153.26 C 163.40 153.20 164.06 152.46 164.00 151.60 C 163.95 150.74 163.21 150.09 162.35 150.14 L 161.40 150.20 C 160.54 150.25 159.89 150.99 159.94 151.85 C 159.99 152.72 160.74 153.37 161.60 153.32 Z M 162.56 153.26 L 163.56 153.18 C 164.42 153.12 165.06 152.38 165.00 151.52 C 164.94 150.66 164.19 150.01 163.33 150.07 L 162.33 150.14 C 161.47 150.20 160.83 150.95 160.89 151.81 C 160.95 152.67 161.70 153.32 162.56 153.26 Z M 163.57 153.18 L 164.62 153.10 C 165.48 153.03 166.12 152.27 166.05 151.41 C 165.97 150.55 165.22 149.91 164.36 149.98 L 163.31 150.07 C 162.46 150.14 161.82 150.90 161.89 151.76 C 161.96 152.62 162.71 153.25 163.57 153.18 Z M 164.64 153.09 L 165.64 153.00 C 166.49 152.92 167.12 152.16 167.04 151.30 C 166.96 150.44 166.20 149.81 165.34 149.89 L 164.34 149.99 C 163.48 150.07 162.85 150.83 162.94 151.69 C 163.02 152.55 163.78 153.18 164.64 153.09 Z M 165.65 153.00 L 166.61 152.90 C 167.47 152.80 168.09 152.04 168.00 151.18 C 167.91 150.32 167.14 149.70 166.28 149.79 L 165.32 149.89 C 164.47 149.98 163.84 150.75 163.94 151.61 C 164.03 152.47 164.80 153.09 165.65 153.00 Z M 166.63 152.89 L 167.62 152.78 C 168.48 152.68 169.09 151.90 168.99 151.05 C 168.89 150.19 168.12 149.58 167.26 149.68 L 166.27 149.79 C 165.41 149.89 164.80 150.67 164.90 151.52 C 165.00 152.38 165.77 152.99 166.63 152.89 Z M 167.64 152.78 L 168.65 152.65 C 169.51 152.54 170.11 151.76 170.01 150.90 C 169.90 150.05 169.12 149.44 168.26 149.55 L 167.24 149.68 C 166.39 149.79 165.78 150.57 165.89 151.42 C 166.00 152.28 166.78 152.88 167.64 152.78 Z M 168.67 152.65 L 169.70 152.50 C 170.55 152.39 171.15 151.60 171.04 150.75 C 170.92 149.89 170.13 149.29 169.28 149.41 L 168.25 149.55 C 167.39 149.67 166.79 150.46 166.91 151.31 C 167.03 152.16 167.81 152.76 168.67 152.65 Z M 169.71 152.50 L 170.68 152.36 C 171.53 152.24 172.12 151.45 172.00 150.59 C 171.87 149.74 171.08 149.15 170.23 149.27 L 169.27 149.41 C 168.41 149.54 167.82 150.33 167.94 151.18 C 168.07 152.03 168.86 152.63 169.71 152.50 Z M 170.69 152.36 L 171.66 152.21 C 172.52 152.09 173.10 151.29 172.97 150.44 C 172.85 149.59 172.05 149.00 171.20 149.13 L 170.22 149.27 C 169.37 149.40 168.78 150.20 168.91 151.05 C 169.04 151.90 169.83 152.49 170.69 152.36 Z M 171.67 152.21 L 172.66 152.06 C 173.51 151.93 174.10 151.13 173.96 150.28 C 173.83 149.42 173.03 148.84 172.18 148.97 L 171.19 149.13 C 170.34 149.26 169.76 150.06 169.89 150.91 C 170.02 151.76 170.82 152.35 171.67 152.21 Z M 172.67 152.06 L 173.67 151.90 C 174.52 151.76 175.10 150.97 174.97 150.11 C 174.83 149.26 174.03 148.68 173.18 148.82 L 172.18 148.97 C 171.33 149.11 170.74 149.91 170.88 150.76 C 171.01 151.61 171.81 152.19 172.67 152.06 Z M 173.67 151.90 L 174.68 151.74 C 175.53 151.60 176.11 150.80 175.97 149.95 C 175.84 149.10 175.04 148.52 174.19 148.66 L 173.18 148.82 C 172.33 148.95 171.75 149.75 171.88 150.60 C 172.02 151.46 172.82 152.04 173.67 151.90 Z M 174.68 151.74 L 175.66 151.58 C 176.51 151.45 177.09 150.65 176.96 149.80 C 176.82 148.94 176.02 148.36 175.17 148.50 L 174.19 148.66 C 173.34 148.79 172.75 149.59 172.89 150.44 C 173.03 151.29 173.83 151.87 174.68 151.74 Z M 175.66 151.58 L 176.65 151.43 C 177.50 151.29 178.08 150.49 177.94 149.64 C 177.81 148.79 177.01 148.21 176.16 148.34 L 175.17 148.50 C 174.32 148.63 173.74 149.43 173.87 150.29 C 174.01 151.14 174.81 151.72 175.66 151.58 Z M 176.65 151.43 L 177.64 151.27 C 178.49 151.13 179.07 150.33 178.93 149.48 C 178.80 148.63 178.00 148.05 177.15 148.19 L 176.16 148.34 C 175.31 148.48 174.72 149.28 174.86 150.13 C 174.99 150.98 175.79 151.56 176.65 151.43 Z M 177.64 151.27 L 178.63 151.11 C 179.48 150.98 180.06 150.18 179.92 149.33 C 179.79 148.47 178.99 147.89 178.14 148.03 L 177.15 148.19 C 176.30 148.32 175.71 149.12 175.85 149.97 C 175.98 150.82 176.78 151.40 177.64 151.27 Z M 178.63 151.11 L 179.62 150.96 C 180.47 150.82 181.05 150.02 180.91 149.17 C 180.78 148.32 179.98 147.74 179.13 147.87 L 178.14 148.03 C 177.29 148.16 176.71 148.96 176.84 149.81 C 176.97 150.67 177.77 151.25 178.63 151.11 Z M 179.62 150.96 L 180.65 150.79 C 181.50 150.66 182.08 149.86 181.94 149.01 C 181.81 148.16 181.01 147.58 180.16 147.71 L 179.13 147.87 C 178.28 148.01 177.70 148.81 177.83 149.66 C 177.96 150.51 178.76 151.09 179.62 150.96 Z M 180.65 150.79 L 181.66 150.63 C 182.51 150.50 183.10 149.70 182.96 148.85 C 182.83 148.00 182.03 147.41 181.18 147.55 L 180.16 147.71 C 179.31 147.84 178.73 148.64 178.86 149.49 C 178.99 150.35 179.79 150.93 180.65 150.79 Z M 181.66 150.63 L 182.66 150.47 C 183.51 150.34 184.09 149.54 183.96 148.69 C 183.82 147.84 183.02 147.26 182.17 147.39 L 181.18 147.55 C 180.32 147.68 179.74 148.48 179.88 149.34 C 180.01 150.19 180.81 150.77 181.66 150.63 Z M 182.66 150.47 L 183.63 150.32 C 184.48 150.18 185.06 149.38 184.92 148.53 C 184.78 147.68 183.98 147.10 183.13 147.24 L 182.17 147.39 C 181.32 147.53 180.74 148.33 180.87 149.18 C 181.01 150.03 181.81 150.61 182.66 150.47 Z M 183.63 150.32 L 184.56 150.17 C 185.42 150.03 185.99 149.23 185.86 148.38 C 185.72 147.53 184.92 146.95 184.07 147.09 L 183.13 147.24 C 182.28 147.38 181.70 148.18 181.84 149.03 C 181.98 149.88 182.78 150.46 183.63 150.32 Z M 184.57 150.17 L 185.60 150.00 C 186.45 149.86 187.03 149.05 186.88 148.20 C 186.74 147.35 185.94 146.78 185.09 146.92 L 184.06 147.09 C 183.21 147.23 182.63 148.03 182.77 148.88 C 182.92 149.73 183.72 150.31 184.57 150.17 Z M 185.61 150.00 L 186.59 149.83 C 187.44 149.68 188.01 148.87 187.87 148.02 C 187.72 147.17 186.92 146.60 186.07 146.75 L 185.08 146.92 C 184.23 147.06 183.66 147.87 183.81 148.72 C 183.95 149.57 184.76 150.14 185.61 150.00 Z M 186.60 149.82 L 187.57 149.65 C 188.42 149.50 188.98 148.69 188.83 147.84 C 188.68 146.99 187.86 146.43 187.02 146.58 L 186.05 146.75 C 185.21 146.90 184.64 147.71 184.79 148.56 C 184.94 149.41 185.76 149.98 186.60 149.82 Z M 187.58 149.65 L 188.54 149.47 C 189.39 149.31 189.94 148.49 189.78 147.65 C 189.63 146.80 188.81 146.24 187.96 146.40 L 187.00 146.58 C 186.15 146.74 185.60 147.56 185.76 148.41 C 185.92 149.25 186.73 149.81 187.58 149.65 Z M 188.56 149.47 L 189.53 149.27 C 190.37 149.10 190.92 148.28 190.75 147.44 C 190.58 146.59 189.76 146.04 188.92 146.21 L 187.95 146.40 C 187.10 146.57 186.55 147.39 186.72 148.24 C 186.89 149.09 187.71 149.63 188.56 149.47 Z M 189.54 149.27 L 190.52 149.06 C 191.37 148.89 191.91 148.06 191.73 147.22 C 191.56 146.37 190.73 145.83 189.88 146.01 L 188.90 146.21 C 188.06 146.39 187.52 147.22 187.69 148.06 C 187.87 148.90 188.70 149.45 189.54 149.27 Z M 190.53 149.06 L 191.52 148.85 C 192.36 148.67 192.90 147.83 192.71 146.99 C 192.53 146.15 191.70 145.61 190.86 145.80 L 189.87 146.01 C 189.03 146.19 188.50 147.02 188.68 147.87 C 188.86 148.71 189.69 149.25 190.53 149.06 Z M 191.53 148.85 L 192.51 148.63 C 193.35 148.44 193.88 147.60 193.69 146.76 C 193.50 145.92 192.66 145.39 191.82 145.58 L 190.85 145.80 C 190.01 145.99 189.48 146.82 189.66 147.66 C 189.85 148.51 190.69 149.04 191.53 148.85 Z M 192.52 148.63 L 193.50 148.40 C 194.34 148.20 194.87 147.37 194.67 146.53 C 194.48 145.68 193.64 145.16 192.80 145.35 L 191.81 145.58 C 190.97 145.78 190.45 146.62 190.64 147.46 C 190.84 148.30 191.68 148.82 192.52 148.63 Z M 193.51 148.40 L 194.49 148.17 C 195.33 147.97 195.85 147.13 195.66 146.29 C 195.46 145.45 194.62 144.93 193.78 145.13 L 192.80 145.36 C 191.96 145.55 191.44 146.39 191.63 147.23 C 191.83 148.07 192.67 148.59 193.51 148.40 Z M 194.49 148.17 L 195.46 147.94 C 196.30 147.74 196.82 146.90 196.62 146.06 C 196.43 145.22 195.59 144.70 194.75 144.90 L 193.78 145.13 C 192.94 145.32 192.42 146.16 192.62 147.00 C 192.81 147.84 193.65 148.36 194.49 148.17 Z M 195.46 147.94 L 196.42 147.72 C 197.26 147.52 197.78 146.68 197.58 145.84 C 197.39 145.00 196.55 144.48 195.71 144.67 L 194.75 144.90 C 193.91 145.09 193.39 145.93 193.58 146.77 C 193.78 147.61 194.62 148.13 195.46 147.94 Z M 196.40 147.72 L 197.38 147.50 C 198.22 147.31 198.75 146.48 198.56 145.64 C 198.38 144.80 197.54 144.27 196.70 144.45 L 195.72 144.67 C 194.88 144.86 194.35 145.69 194.54 146.54 C 194.73 147.38 195.56 147.91 196.40 147.72 Z M 197.37 147.50 L 198.35 147.29 C 199.19 147.11 199.73 146.28 199.55 145.44 C 199.37 144.60 198.54 144.06 197.70 144.24 L 196.71 144.45 C 195.87 144.63 195.33 145.46 195.51 146.30 C 195.69 147.15 196.52 147.68 197.37 147.50 Z M 198.34 147.30 L 199.32 147.09 C 200.16 146.92 200.70 146.10 200.53 145.25 C 200.36 144.41 199.53 143.86 198.69 144.04 L 197.71 144.24 C 196.86 144.41 196.32 145.24 196.49 146.08 C 196.67 146.93 197.49 147.47 198.34 147.30 Z M 199.30 147.10 L 200.28 146.90 C 201.12 146.74 201.67 145.92 201.51 145.07 C 201.34 144.22 200.52 143.67 199.67 143.84 L 198.70 144.03 C 197.85 144.20 197.30 145.02 197.47 145.87 C 197.64 146.71 198.46 147.26 199.30 147.10 Z M 200.27 146.91 L 201.25 146.72 C 202.10 146.56 202.66 145.74 202.50 144.89 C 202.34 144.05 201.52 143.49 200.67 143.65 L 199.68 143.84 C 198.84 144.00 198.28 144.82 198.44 145.66 C 198.60 146.51 199.42 147.07 200.27 146.91 Z M 201.24 146.72 L 202.23 146.54 C 203.08 146.39 203.64 145.58 203.49 144.73 C 203.33 143.88 202.52 143.32 201.67 143.47 L 200.69 143.65 C 199.84 143.80 199.27 144.61 199.43 145.46 C 199.58 146.31 200.39 146.87 201.24 146.72 Z M 202.21 146.55 L 203.19 146.38 C 204.04 146.24 204.62 145.44 204.47 144.59 C 204.33 143.74 203.53 143.16 202.68 143.30 L 201.69 143.47 C 200.84 143.61 200.27 144.41 200.41 145.26 C 200.55 146.11 201.36 146.69 202.21 146.55 Z M 203.17 146.39 L 204.15 146.24 C 205.00 146.11 205.59 145.32 205.46 144.46 C 205.33 143.61 204.53 143.02 203.68 143.15 L 202.70 143.30 C 201.85 143.43 201.26 144.22 201.39 145.08 C 201.52 145.93 202.31 146.52 203.17 146.39 Z M 204.12 146.24 L 205.13 146.11 C 205.99 146.00 206.59 145.21 206.48 144.36 C 206.36 143.50 205.58 142.90 204.72 143.01 L 203.71 143.15 C 202.85 143.26 202.25 144.04 202.37 144.90 C 202.48 145.75 203.26 146.36 204.12 146.24 Z M 205.11 146.11 L 206.11 146.00 C 206.97 145.90 207.58 145.12 207.48 144.27 C 207.38 143.41 206.61 142.80 205.75 142.89 L 204.75 143.01 C 203.89 143.11 203.28 143.89 203.38 144.74 C 203.48 145.60 204.25 146.21 205.11 146.11 Z M 206.09 146.00 L 207.08 145.90 C 207.94 145.81 208.56 145.04 208.47 144.18 C 208.38 143.32 207.61 142.70 206.75 142.79 L 205.77 142.89 C 204.91 142.98 204.29 143.75 204.38 144.61 C 204.47 145.47 205.24 146.09 206.09 146.00 Z M 207.07 145.90 L 208.00 145.81 C 208.86 145.72 209.48 144.96 209.40 144.10 C 209.32 143.24 208.55 142.62 207.70 142.70 L 206.76 142.79 C 205.91 142.87 205.28 143.64 205.36 144.49 C 205.44 145.35 206.21 145.98 207.07 145.90 Z M 207.98 145.81 L 208.87 145.73 C 209.73 145.65 210.37 144.90 210.29 144.04 C 210.21 143.18 209.46 142.54 208.60 142.62 L 207.71 142.70 C 206.85 142.77 206.22 143.53 206.29 144.39 C 206.37 145.25 207.13 145.88 207.98 145.81 Z M 208.85 145.73 L 209.79 145.66 C 210.65 145.60 211.30 144.86 211.24 144.00 C 211.18 143.14 210.43 142.49 209.57 142.55 L 208.62 142.62 C 207.76 142.68 207.12 143.43 207.18 144.29 C 207.24 145.15 207.99 145.79 208.85 145.73 Z M 209.76 145.67 L 210.84 145.61 C 211.70 145.57 212.37 144.84 212.32 143.98 C 212.28 143.12 211.55 142.45 210.69 142.49 L 209.61 142.55 C 208.75 142.59 208.08 143.32 208.13 144.18 C 208.17 145.05 208.90 145.71 209.76 145.67 Z M 210.81 145.61 L 211.89 145.58 C 212.75 145.56 213.43 144.84 213.40 143.98 C 213.38 143.11 212.66 142.44 211.80 142.46 L 210.72 142.49 C 209.86 142.52 209.18 143.24 209.20 144.10 C 209.23 144.96 209.95 145.64 210.81 145.61 Z M 211.86 145.58 L 212.84 145.57 C 213.71 145.56 214.40 144.86 214.39 143.99 C 214.38 143.13 213.67 142.44 212.81 142.45 L 211.83 142.46 C 210.96 142.47 210.27 143.18 210.28 144.04 C 210.29 144.90 211.00 145.59 211.86 145.58 Z M 212.81 145.57 L 213.84 145.59 C 214.70 145.60 215.41 144.91 215.42 144.05 C 215.44 143.18 214.75 142.48 213.88 142.46 L 212.85 142.45 C 211.99 142.44 211.28 143.13 211.27 143.99 C 211.25 144.85 211.94 145.56 212.81 145.57 Z M 213.79 145.58 L 214.84 145.63 C 215.70 145.67 216.43 145.01 216.47 144.15 C 216.51 143.29 215.84 142.56 214.98 142.52 L 213.94 142.47 C 213.08 142.43 212.34 143.09 212.30 143.95 C 212.26 144.81 212.93 145.54 213.79 145.58 Z M 214.76 145.63 L 215.78 145.72 C 216.64 145.81 217.40 145.17 217.48 144.32 C 217.56 143.46 216.93 142.70 216.07 142.62 L 215.06 142.52 C 214.20 142.44 213.44 143.07 213.36 143.93 C 213.27 144.79 213.91 145.55 214.76 145.63 Z M 215.68 145.71 L 216.62 145.86 C 217.47 146.00 218.27 145.42 218.41 144.57 C 218.55 143.72 217.97 142.92 217.12 142.78 L 216.17 142.63 C 215.32 142.49 214.52 143.07 214.38 143.92 C 214.25 144.77 214.82 145.57 215.68 145.71 Z M 216.44 145.82 L 217.59 146.15 C 218.42 146.39 219.28 145.91 219.52 145.08 C 219.75 144.25 219.27 143.39 218.44 143.15 L 217.30 142.82 C 216.47 142.58 215.60 143.06 215.37 143.89 C 215.13 144.72 215.61 145.59 216.44 145.82 Z M 217.33 146.05 L 218.27 146.51 C 219.04 146.89 219.98 146.57 220.36 145.80 C 220.74 145.03 220.42 144.09 219.64 143.71 L 218.70 143.25 C 217.93 142.87 216.99 143.19 216.61 143.96 C 216.23 144.74 216.55 145.67 217.33 146.05 Z M 217.98 146.33 L 218.69 146.90 C 219.36 147.44 220.34 147.33 220.88 146.66 C 221.42 145.98 221.31 145.00 220.64 144.46 L 219.93 143.89 C 219.26 143.35 218.28 143.46 217.74 144.14 C 217.20 144.81 217.31 145.79 217.98 146.33 Z M 218.41 146.61 L 218.91 147.28 C 219.42 147.98 220.40 148.12 221.09 147.61 C 221.78 147.10 221.93 146.12 221.42 145.43 L 220.92 144.75 C 220.41 144.06 219.43 143.91 218.73 144.42 C 218.04 144.94 217.90 145.91 218.41 146.61 Z M 218.68 146.83 L 218.99 147.79 C 219.25 148.61 220.13 149.06 220.95 148.80 C 221.77 148.53 222.22 147.65 221.96 146.83 L 221.65 145.87 C 221.38 145.05 220.50 144.60 219.68 144.87 C 218.86 145.13 218.41 146.01 218.68 146.83 Z M 218.91 147.21 L 218.85 148.19 C 218.80 149.05 219.46 149.79 220.32 149.84 C 221.18 149.90 221.92 149.24 221.97 148.38 L 222.03 147.41 C 222.08 146.55 221.43 145.81 220.57 145.75 C 219.71 145.70 218.97 146.35 218.91 147.21 Z M 218.99 147.64 L 218.59 148.52 C 218.23 149.30 218.58 150.23 219.36 150.59 C 220.15 150.94 221.07 150.60 221.43 149.82 L 221.83 148.93 C 222.19 148.15 221.84 147.22 221.06 146.87 C 220.28 146.51 219.35 146.85 218.99 147.64 Z M 218.84 148.13 L 218.22 148.83 C 217.65 149.48 217.71 150.47 218.36 151.04 C 219.00 151.61 219.99 151.55 220.56 150.90 L 221.18 150.20 C 221.75 149.55 221.69 148.57 221.04 148.00 C 220.40 147.43 219.41 147.49 218.84 148.13 Z M 218.40 148.66 L 217.62 149.30 C 216.95 149.84 216.85 150.83 217.39 151.49 C 217.94 152.16 218.92 152.26 219.59 151.72 L 220.37 151.08 C 221.04 150.53 221.14 149.55 220.60 148.88 C 220.06 148.21 219.07 148.11 218.40 148.66 Z M 217.71 149.23 L 216.84 149.84 C 216.13 150.33 215.96 151.31 216.45 152.01 C 216.95 152.72 217.92 152.89 218.63 152.40 L 219.50 151.79 C 220.20 151.29 220.38 150.32 219.88 149.61 C 219.39 148.91 218.41 148.74 217.71 149.23 Z"
      fill="black"
      fill-rule="nonzero" /><path d="M 79.37 244.44 L 80.38 244.31 C 81.24 244.20 81.84 243.41 81.73 242.56 C 81.62 241.70 80.84 241.10 79.98 241.21 L 78.96 241.34 C 78.11 241.45 77.50 242.24 77.61 243.09 C 77.73 243.95 78.51 244.55 79.37 244.44 Z M 80.38 244.31 L 81.39 244.19 C 82.25 244.08 82.86 243.30 82.75 242.44 C 82.64 241.58 81.86 240.97 81.00 241.08 L 79.99 241.21 C 79.13 241.31 78.52 242.09 78.63 242.95 C 78.74 243.81 79.52 244.42 80.38 244.31 Z M 81.37 244.19 L 82.38 244.08 C 83.24 243.98 83.86 243.20 83.76 242.34 C 83.67 241.48 82.89 240.86 82.03 240.96 L 81.02 241.08 C 80.16 241.17 79.54 241.95 79.64 242.81 C 79.74 243.67 80.51 244.29 81.37 244.19 Z M 82.36 244.08 L 83.36 243.98 C 84.22 243.90 84.85 243.13 84.77 242.27 C 84.68 241.40 83.92 240.77 83.05 240.86 L 82.05 240.95 C 81.19 241.04 80.56 241.81 80.64 242.67 C 80.73 243.54 81.50 244.17 82.36 244.08 Z M 83.33 243.99 L 84.32 243.91 C 85.18 243.85 85.83 243.09 85.76 242.22 C 85.70 241.36 84.94 240.71 84.07 240.77 L 83.09 240.85 C 82.22 240.92 81.57 241.67 81.64 242.54 C 81.70 243.41 82.46 244.06 83.33 243.99 Z M 84.27 243.92 L 85.25 243.87 C 86.12 243.83 86.79 243.09 86.74 242.22 C 86.70 241.35 85.96 240.68 85.09 240.72 L 84.12 240.77 C 83.25 240.81 82.58 241.55 82.62 242.42 C 82.66 243.29 83.40 243.96 84.27 243.92 Z M 85.19 243.87 L 86.16 243.86 C 87.03 243.85 87.73 243.13 87.71 242.26 C 87.70 241.38 86.98 240.69 86.11 240.70 L 85.14 240.72 C 84.27 240.73 83.58 241.45 83.59 242.32 C 83.60 243.19 84.32 243.89 85.19 243.87 Z M 86.10 243.86 L 87.12 243.89 C 87.99 243.91 88.72 243.22 88.74 242.35 C 88.76 241.47 88.07 240.75 87.20 240.73 L 86.17 240.70 C 85.30 240.68 84.58 241.37 84.55 242.24 C 84.53 243.11 85.22 243.84 86.10 243.86 Z M 87.06 243.88 L 88.07 243.95 C 88.94 244.00 89.69 243.34 89.74 242.47 C 89.80 241.60 89.14 240.85 88.26 240.79 L 87.26 240.73 C 86.39 240.67 85.64 241.34 85.58 242.21 C 85.53 243.08 86.19 243.83 87.06 243.88 Z M 88.02 243.94 L 89.01 244.04 C 89.88 244.12 90.65 243.48 90.73 242.61 C 90.81 241.74 90.17 240.97 89.31 240.89 L 88.31 240.80 C 87.45 240.71 86.67 241.35 86.59 242.22 C 86.51 243.09 87.15 243.86 88.02 243.94 Z M 88.97 244.03 L 89.95 244.15 C 90.82 244.25 91.60 243.64 91.71 242.77 C 91.81 241.90 91.19 241.12 90.33 241.01 L 89.34 240.89 C 88.48 240.79 87.69 241.41 87.59 242.28 C 87.48 243.14 88.10 243.93 88.97 244.03 Z M 89.93 244.15 L 90.90 244.28 C 91.77 244.40 92.57 243.79 92.68 242.93 C 92.80 242.06 92.20 241.27 91.33 241.15 L 90.35 241.02 C 89.49 240.90 88.69 241.50 88.57 242.37 C 88.46 243.23 89.06 244.03 89.93 244.15 Z M 90.89 244.28 L 91.87 244.42 C 92.73 244.55 93.54 243.95 93.66 243.09 C 93.79 242.22 93.19 241.42 92.33 241.29 L 91.35 241.15 C 90.48 241.03 89.68 241.62 89.56 242.49 C 89.43 243.35 90.03 244.15 90.89 244.28 Z M 91.87 244.42 L 92.85 244.56 C 93.71 244.69 94.51 244.09 94.64 243.23 C 94.77 242.37 94.17 241.57 93.31 241.44 L 92.33 241.29 C 91.46 241.17 90.66 241.76 90.54 242.63 C 90.41 243.49 91.00 244.29 91.87 244.42 Z M 92.85 244.57 L 93.83 244.71 C 94.69 244.83 95.49 244.24 95.62 243.37 C 95.75 242.51 95.15 241.71 94.28 241.58 L 93.30 241.44 C 92.44 241.31 91.64 241.91 91.51 242.77 C 91.39 243.64 91.98 244.44 92.85 244.57 Z M 93.83 244.71 L 94.82 244.85 C 95.68 244.97 96.48 244.37 96.61 243.51 C 96.73 242.64 96.13 241.84 95.27 241.72 L 94.28 241.58 C 93.42 241.46 92.61 242.06 92.49 242.92 C 92.37 243.79 92.97 244.59 93.83 244.71 Z M 94.82 244.85 L 95.82 244.99 C 96.68 245.11 97.48 244.51 97.60 243.64 C 97.72 242.78 97.12 241.98 96.25 241.86 L 95.26 241.72 C 94.40 241.60 93.60 242.20 93.48 243.07 C 93.36 243.93 93.96 244.73 94.82 244.85 Z M 95.82 244.99 L 96.82 245.13 C 97.68 245.24 98.48 244.64 98.60 243.77 C 98.72 242.90 98.11 242.11 97.24 241.99 L 96.25 241.86 C 95.38 241.74 94.58 242.35 94.47 243.21 C 94.35 244.08 94.96 244.88 95.82 244.99 Z M 96.83 245.13 L 97.83 245.26 C 98.69 245.37 99.49 244.76 99.60 243.89 C 99.71 243.02 99.10 242.23 98.24 242.12 L 97.23 241.99 C 96.37 241.88 95.57 242.49 95.46 243.35 C 95.35 244.22 95.96 245.02 96.83 245.13 Z M 97.84 245.26 L 98.83 245.38 C 99.70 245.49 100.49 244.87 100.59 244.01 C 100.70 243.14 100.08 242.35 99.22 242.24 L 98.23 242.12 C 97.36 242.01 96.57 242.63 96.46 243.49 C 96.35 244.36 96.97 245.15 97.84 245.26 Z M 98.84 245.38 L 99.81 245.50 C 100.68 245.60 101.47 244.98 101.57 244.11 C 101.67 243.24 101.05 242.45 100.18 242.35 L 99.21 242.24 C 98.34 242.14 97.55 242.76 97.45 243.63 C 97.35 244.49 97.97 245.28 98.84 245.38 Z M 99.82 245.50 L 100.80 245.61 C 101.67 245.70 102.45 245.08 102.55 244.21 C 102.64 243.34 102.02 242.56 101.15 242.46 L 100.17 242.35 C 99.30 242.26 98.52 242.88 98.42 243.75 C 98.33 244.62 98.95 245.40 99.82 245.50 Z M 100.81 245.61 L 101.80 245.71 C 102.66 245.80 103.44 245.17 103.53 244.30 C 103.63 243.44 103.00 242.66 102.13 242.57 L 101.14 242.46 C 100.27 242.37 99.49 243.00 99.40 243.87 C 99.31 244.74 99.94 245.51 100.81 245.61 Z M 101.80 245.71 L 102.80 245.81 C 103.67 245.90 104.44 245.26 104.53 244.40 C 104.62 243.53 103.99 242.75 103.12 242.67 L 102.12 242.57 C 101.25 242.48 100.48 243.11 100.39 243.98 C 100.30 244.85 100.94 245.62 101.80 245.71 Z M 102.81 245.81 L 103.82 245.91 C 104.69 245.99 105.46 245.35 105.54 244.48 C 105.62 243.62 104.99 242.85 104.12 242.76 L 103.11 242.67 C 102.24 242.58 101.47 243.22 101.39 244.09 C 101.31 244.96 101.94 245.73 102.81 245.81 Z M 103.83 245.91 L 104.85 246.00 C 105.72 246.08 106.48 245.44 106.56 244.57 C 106.64 243.70 106.00 242.94 105.13 242.86 L 104.11 242.76 C 103.24 242.69 102.48 243.32 102.40 244.19 C 102.32 245.06 102.96 245.83 103.83 245.91 Z M 104.85 246.00 L 105.80 246.08 C 106.67 246.16 107.44 245.51 107.51 244.65 C 107.59 243.78 106.94 243.01 106.08 242.94 L 105.13 242.86 C 104.26 242.78 103.49 243.42 103.42 244.29 C 103.34 245.16 103.99 245.92 104.85 246.00 Z M 105.81 246.08 L 106.75 246.16 C 107.62 246.23 108.38 245.58 108.45 244.72 C 108.52 243.85 107.88 243.09 107.01 243.01 L 106.07 242.94 C 105.20 242.87 104.44 243.51 104.37 244.38 C 104.30 245.25 104.94 246.01 105.81 246.08 Z M 106.76 246.16 L 107.72 246.23 C 108.59 246.30 109.34 245.65 109.41 244.78 C 109.48 243.91 108.83 243.15 107.96 243.09 L 107.00 243.01 C 106.13 242.95 105.37 243.60 105.30 244.47 C 105.24 245.34 105.89 246.09 106.76 246.16 Z M 107.72 246.24 L 108.70 246.31 C 109.57 246.37 110.33 245.71 110.39 244.84 C 110.45 243.97 109.80 243.21 108.93 243.15 L 107.95 243.08 C 107.08 243.02 106.32 243.68 106.26 244.55 C 106.20 245.42 106.85 246.17 107.72 246.24 Z M 108.71 246.31 L 109.72 246.37 C 110.59 246.43 111.34 245.77 111.40 244.90 C 111.45 244.02 110.79 243.27 109.92 243.22 L 108.92 243.15 C 108.05 243.10 107.29 243.76 107.24 244.63 C 107.18 245.50 107.84 246.25 108.71 246.31 Z M 109.73 246.37 L 110.76 246.43 C 111.64 246.48 112.38 245.82 112.43 244.94 C 112.48 244.07 111.82 243.32 110.94 243.27 L 109.91 243.21 C 109.04 243.16 108.29 243.83 108.24 244.70 C 108.19 245.58 108.86 246.32 109.73 246.37 Z M 110.78 246.43 L 111.84 246.49 C 112.72 246.53 113.46 245.86 113.50 244.98 C 113.54 244.11 112.87 243.37 112.00 243.32 L 110.93 243.27 C 110.06 243.23 109.31 243.90 109.27 244.77 C 109.23 245.65 109.90 246.39 110.78 246.43 Z M 111.85 246.49 L 112.88 246.53 C 113.75 246.57 114.49 245.89 114.53 245.01 C 114.56 244.14 113.89 243.40 113.01 243.36 L 111.99 243.32 C 111.11 243.29 110.37 243.96 110.34 244.84 C 110.30 245.71 110.98 246.45 111.85 246.49 Z M 112.89 246.53 L 113.80 246.57 C 114.68 246.60 115.41 245.91 115.44 245.04 C 115.47 244.16 114.79 243.43 113.91 243.40 L 113.00 243.36 C 112.12 243.33 111.39 244.02 111.36 244.89 C 111.33 245.77 112.01 246.50 112.89 246.53 Z M 113.81 246.57 L 114.75 246.59 C 115.62 246.62 116.35 245.93 116.38 245.05 C 116.40 244.18 115.71 243.45 114.84 243.42 L 113.90 243.39 C 113.03 243.37 112.30 244.06 112.27 244.93 C 112.24 245.81 112.93 246.54 113.81 246.57 Z M 114.75 246.59 L 115.71 246.62 C 116.59 246.64 117.32 245.95 117.34 245.07 C 117.36 244.19 116.67 243.47 115.79 243.44 L 114.83 243.42 C 113.95 243.40 113.23 244.09 113.20 244.97 C 113.18 245.85 113.88 246.57 114.75 246.59 Z M 115.72 246.62 L 116.70 246.64 C 117.58 246.66 118.30 245.96 118.32 245.08 C 118.34 244.21 117.64 243.48 116.77 243.46 L 115.78 243.44 C 114.91 243.43 114.18 244.12 114.16 245.00 C 114.15 245.88 114.84 246.60 115.72 246.62 Z M 116.71 246.64 L 117.71 246.66 C 118.59 246.67 119.31 245.97 119.33 245.10 C 119.34 244.22 118.64 243.49 117.77 243.48 L 116.76 243.46 C 115.88 243.45 115.16 244.15 115.15 245.02 C 115.13 245.90 115.83 246.63 116.71 246.64 Z M 117.72 246.66 L 118.75 246.67 C 119.63 246.68 120.35 245.98 120.36 245.10 C 120.37 244.23 119.67 243.50 118.79 243.49 L 117.76 243.48 C 116.88 243.47 116.16 244.17 116.15 245.05 C 116.14 245.92 116.84 246.65 117.72 246.66 Z M 118.75 246.67 L 119.80 246.68 C 120.68 246.69 121.40 245.99 121.41 245.11 C 121.42 244.23 120.72 243.51 119.84 243.50 L 118.79 243.49 C 117.91 243.48 117.19 244.19 117.18 245.07 C 117.17 245.94 117.87 246.66 118.75 246.67 Z M 119.81 246.69 L 120.88 246.69 C 121.76 246.70 122.48 246.00 122.49 245.12 C 122.49 244.24 121.79 243.52 120.91 243.51 L 119.84 243.50 C 118.96 243.50 118.24 244.20 118.23 245.08 C 118.22 245.96 118.93 246.68 119.81 246.69 Z M 120.89 246.70 L 121.96 246.70 C 122.84 246.71 123.56 246.00 123.57 245.12 C 123.57 244.24 122.86 243.52 121.98 243.52 L 120.91 243.51 C 120.03 243.51 119.31 244.21 119.30 245.09 C 119.30 245.97 120.01 246.69 120.89 246.70 Z M 121.96 246.70 L 122.93 246.71 C 123.81 246.71 124.53 246.00 124.53 245.12 C 124.54 244.24 123.83 243.53 122.95 243.52 L 121.98 243.52 C 121.10 243.51 120.39 244.22 120.38 245.10 C 120.38 245.98 121.09 246.70 121.96 246.70 Z M 122.93 246.71 L 123.92 246.71 C 124.80 246.72 125.51 246.01 125.51 245.13 C 125.52 244.25 124.81 243.53 123.93 243.53 L 122.95 243.52 C 122.07 243.52 121.35 244.23 121.35 245.11 C 121.34 245.99 122.06 246.70 122.93 246.71 Z M 123.92 246.71 L 124.91 246.71 C 125.79 246.72 126.51 246.01 126.51 245.13 C 126.51 244.25 125.80 243.53 124.92 243.53 L 123.93 243.53 C 123.05 243.52 122.33 244.24 122.33 245.12 C 122.33 246.00 123.04 246.71 123.92 246.71 Z M 124.91 246.71 L 125.92 246.72 C 126.80 246.72 127.51 246.00 127.51 245.12 C 127.51 244.24 126.80 243.53 125.92 243.53 L 124.92 243.53 C 124.04 243.53 123.32 244.24 123.32 245.12 C 123.32 246.00 124.03 246.71 124.91 246.71 Z M 125.92 246.72 L 126.93 246.71 C 127.81 246.71 128.52 246.00 128.52 245.12 C 128.52 244.24 127.80 243.53 126.92 243.53 L 125.91 243.53 C 125.03 243.53 124.32 244.24 124.32 245.12 C 124.32 246.00 125.04 246.72 125.92 246.72 Z M 126.93 246.71 L 127.94 246.71 C 128.82 246.71 129.53 245.99 129.53 245.11 C 129.53 244.23 128.81 243.52 127.93 243.52 L 126.92 243.53 C 126.04 243.53 125.33 244.25 125.33 245.13 C 125.33 246.01 126.05 246.72 126.93 246.71 Z M 127.95 246.71 L 128.96 246.70 C 129.84 246.70 130.55 245.98 130.54 245.10 C 130.54 244.22 129.82 243.51 128.94 243.52 L 127.93 243.52 C 127.05 243.53 126.34 244.25 126.34 245.13 C 126.35 246.01 127.07 246.72 127.95 246.71 Z M 128.96 246.70 L 129.98 246.70 C 130.86 246.69 131.57 245.97 131.56 245.09 C 131.55 244.21 130.83 243.50 129.95 243.51 L 128.94 243.52 C 128.06 243.52 127.35 244.24 127.36 245.12 C 127.36 246.01 128.08 246.71 128.96 246.70 Z M 129.98 246.70 L 130.99 246.68 C 131.87 246.67 132.58 245.95 132.57 245.07 C 132.56 244.19 131.84 243.49 130.96 243.50 L 129.95 243.51 C 129.07 243.52 128.36 244.24 128.37 245.12 C 128.38 246.00 129.10 246.71 129.98 246.70 Z M 131.00 246.68 L 132.00 246.67 C 132.88 246.66 133.59 245.93 133.57 245.05 C 133.56 244.17 132.84 243.47 131.96 243.48 L 130.95 243.50 C 130.07 243.51 129.37 244.23 129.38 245.11 C 129.39 245.99 130.12 246.70 131.00 246.68 Z M 132.01 246.67 L 133.04 246.65 C 133.92 246.64 134.63 245.91 134.61 245.03 C 134.59 244.15 133.87 243.45 132.99 243.46 L 131.95 243.48 C 131.07 243.50 130.37 244.22 130.38 245.10 C 130.40 245.99 131.13 246.69 132.01 246.67 Z M 133.05 246.65 L 134.12 246.63 C 135.00 246.61 135.69 245.88 135.67 245.00 C 135.66 244.12 134.93 243.42 134.04 243.44 L 132.98 243.46 C 132.10 243.48 131.40 244.21 131.42 245.09 C 131.44 245.97 132.17 246.67 133.05 246.65 Z M 134.12 246.63 L 135.17 246.60 C 136.06 246.58 136.75 245.84 136.73 244.96 C 136.70 244.08 135.97 243.39 135.09 243.41 L 134.04 243.44 C 133.16 243.46 132.46 244.20 132.48 245.08 C 132.51 245.96 133.24 246.65 134.12 246.63 Z M 135.18 246.60 L 136.22 246.57 C 137.10 246.54 137.79 245.80 137.77 244.92 C 137.74 244.04 137.00 243.35 136.12 243.38 L 135.08 243.41 C 134.20 243.44 133.51 244.18 133.54 245.06 C 133.56 245.94 134.30 246.63 135.18 246.60 Z M 136.23 246.57 L 137.25 246.53 C 138.13 246.49 138.82 245.75 138.79 244.87 C 138.75 243.99 138.01 243.30 137.13 243.34 L 136.11 243.37 C 135.23 243.41 134.54 244.15 134.57 245.03 C 134.61 245.92 135.35 246.60 136.23 246.57 Z M 137.26 246.53 L 138.27 246.48 C 139.15 246.44 139.83 245.69 139.79 244.81 C 139.75 243.93 139.00 243.25 138.12 243.29 L 137.12 243.33 C 136.23 243.38 135.55 244.12 135.59 245.01 C 135.63 245.89 136.38 246.57 137.26 246.53 Z M 138.28 246.48 L 139.27 246.43 C 140.15 246.38 140.82 245.63 140.78 244.75 C 140.73 243.86 139.97 243.19 139.09 243.23 L 138.11 243.29 C 137.23 243.34 136.55 244.09 136.60 244.97 C 136.65 245.85 137.40 246.53 138.28 246.48 Z M 139.28 246.43 L 140.24 246.37 C 141.13 246.31 141.80 245.55 141.74 244.67 C 141.68 243.79 140.92 243.12 140.04 243.17 L 139.08 243.23 C 138.20 243.29 137.53 244.05 137.58 244.93 C 137.64 245.82 138.40 246.49 139.28 246.43 Z M 140.26 246.37 L 141.20 246.30 C 142.08 246.23 142.75 245.47 142.68 244.58 C 142.62 243.70 141.85 243.04 140.97 243.10 L 140.02 243.17 C 139.14 243.24 138.48 244.01 138.55 244.89 C 138.61 245.77 139.38 246.43 140.26 246.37 Z M 141.22 246.30 L 142.14 246.22 C 143.02 246.14 143.67 245.37 143.60 244.49 C 143.52 243.60 142.75 242.95 141.86 243.03 L 140.95 243.10 C 140.07 243.18 139.41 243.96 139.49 244.84 C 139.56 245.72 140.34 246.37 141.22 246.30 Z M 142.16 246.22 L 143.14 246.12 C 144.02 246.03 144.66 245.25 144.57 244.37 C 144.49 243.49 143.70 242.84 142.82 242.93 L 141.84 243.03 C 140.96 243.12 140.32 243.90 140.41 244.78 C 140.49 245.66 141.28 246.31 142.16 246.22 Z M 143.16 246.12 L 144.16 246.00 C 145.04 245.90 145.67 245.11 145.57 244.23 C 145.47 243.35 144.67 242.72 143.79 242.82 L 142.79 242.93 C 141.92 243.03 141.28 243.83 141.38 244.71 C 141.49 245.59 142.28 246.22 143.16 246.12 Z M 144.18 246.00 L 145.16 245.88 C 146.04 245.76 146.65 244.96 146.54 244.08 C 146.43 243.20 145.62 242.58 144.74 242.69 L 143.77 242.82 C 142.89 242.94 142.27 243.74 142.38 244.62 C 142.50 245.50 143.30 246.12 144.18 246.00 Z M 145.18 245.87 L 146.14 245.73 C 147.02 245.61 147.63 244.79 147.50 243.92 C 147.38 243.04 146.56 242.43 145.69 242.56 L 144.72 242.70 C 143.85 242.82 143.24 243.64 143.36 244.51 C 143.49 245.39 144.30 246.00 145.18 245.87 Z M 146.16 245.73 L 147.13 245.58 C 148.00 245.44 148.60 244.62 148.46 243.75 C 148.32 242.87 147.50 242.27 146.63 242.41 L 145.67 242.56 C 144.79 242.70 144.19 243.52 144.33 244.39 C 144.47 245.27 145.29 245.87 146.16 245.73 Z M 147.14 245.58 L 148.11 245.42 C 148.98 245.27 149.57 244.44 149.43 243.57 C 149.28 242.69 148.45 242.10 147.58 242.25 L 146.61 242.41 C 145.74 242.56 145.15 243.39 145.29 244.26 C 145.44 245.14 146.27 245.72 147.14 245.58 Z M 148.12 245.41 L 149.11 245.24 C 149.98 245.08 150.56 244.25 150.41 243.38 C 150.25 242.51 149.42 241.92 148.55 242.08 L 147.56 242.25 C 146.69 242.41 146.11 243.24 146.26 244.11 C 146.42 244.99 147.25 245.57 148.12 245.41 Z M 149.12 245.24 L 150.12 245.05 C 150.99 244.89 151.57 244.05 151.41 243.18 C 151.25 242.31 150.41 241.73 149.54 241.90 L 148.53 242.08 C 147.66 242.24 147.09 243.08 147.25 243.95 C 147.41 244.82 148.24 245.40 149.12 245.24 Z M 150.13 245.05 L 151.15 244.86 C 152.02 244.69 152.59 243.85 152.43 242.98 C 152.26 242.11 151.43 241.54 150.55 241.70 L 149.53 241.90 C 148.66 242.06 148.09 242.90 148.25 243.77 C 148.42 244.64 149.26 245.22 150.13 245.05 Z M 151.16 244.86 L 152.06 244.68 C 152.94 244.51 153.51 243.67 153.34 242.80 C 153.17 241.93 152.33 241.36 151.46 241.53 L 150.55 241.70 C 149.68 241.87 149.11 242.71 149.28 243.58 C 149.44 244.45 150.29 245.02 151.16 244.86 Z M 152.07 244.68 L 153.00 244.50 C 153.87 244.33 154.44 243.49 154.27 242.62 C 154.10 241.75 153.26 241.18 152.39 241.35 L 151.45 241.53 C 150.58 241.70 150.02 242.54 150.19 243.41 C 150.35 244.28 151.20 244.85 152.07 244.68 Z M 153.01 244.50 L 153.96 244.31 C 154.83 244.14 155.40 243.29 155.23 242.42 C 155.05 241.55 154.21 240.99 153.34 241.16 L 152.38 241.35 C 151.51 241.52 150.95 242.36 151.12 243.23 C 151.29 244.10 152.14 244.67 153.01 244.50 Z M 153.96 244.31 L 154.94 244.12 C 155.81 243.94 156.37 243.10 156.20 242.23 C 156.03 241.36 155.18 240.79 154.31 240.96 L 153.34 241.16 C 152.47 241.33 151.90 242.18 152.07 243.05 C 152.25 243.92 153.09 244.48 153.96 244.31 Z M 154.94 244.12 L 155.93 243.92 C 156.80 243.74 157.36 242.89 157.19 242.02 C 157.01 241.15 156.16 240.59 155.29 240.77 L 154.31 240.97 C 153.44 241.14 152.87 241.99 153.05 242.86 C 153.22 243.73 154.07 244.29 154.94 244.12 Z M 155.93 243.92 L 156.93 243.71 C 157.80 243.53 158.37 242.69 158.19 241.82 C 158.01 240.95 157.16 240.38 156.29 240.56 L 155.29 240.77 C 154.42 240.94 153.86 241.79 154.04 242.66 C 154.21 243.53 155.06 244.09 155.93 243.92 Z M 156.94 243.71 L 157.95 243.50 C 158.82 243.32 159.38 242.47 159.20 241.60 C 159.02 240.73 158.17 240.17 157.30 240.35 L 156.29 240.56 C 155.42 240.74 154.86 241.59 155.04 242.46 C 155.22 243.33 156.07 243.89 156.94 243.71 Z M 157.95 243.50 L 158.96 243.29 C 159.83 243.11 160.39 242.26 160.21 241.39 C 160.03 240.52 159.17 239.96 158.30 240.14 L 157.29 240.35 C 156.42 240.54 155.86 241.39 156.05 242.26 C 156.23 243.13 157.08 243.69 157.95 243.50 Z M 158.97 243.29 L 159.98 243.08 C 160.85 242.89 161.41 242.04 161.22 241.17 C 161.04 240.30 160.18 239.75 159.32 239.93 L 158.30 240.14 C 157.43 240.33 156.88 241.18 157.06 242.05 C 157.24 242.92 158.10 243.48 158.97 243.29 Z M 159.98 243.08 L 161.00 242.86 C 161.87 242.68 162.42 241.82 162.23 240.95 C 162.05 240.08 161.19 239.53 160.32 239.71 L 159.31 239.93 C 158.44 240.12 157.89 240.97 158.07 241.84 C 158.26 242.71 159.11 243.26 159.98 243.08 Z M 161.00 242.86 L 162.02 242.64 C 162.89 242.45 163.44 241.60 163.25 240.73 C 163.06 239.86 162.21 239.31 161.34 239.49 L 160.32 239.71 C 159.45 239.90 158.90 240.76 159.09 241.63 C 159.27 242.50 160.13 243.05 161.00 242.86 Z M 162.02 242.64 L 163.03 242.42 C 163.90 242.23 164.45 241.37 164.26 240.50 C 164.07 239.63 163.21 239.08 162.35 239.27 L 161.33 239.50 C 160.47 239.69 159.92 240.54 160.11 241.41 C 160.30 242.28 161.15 242.83 162.02 242.64 Z M 163.04 242.42 L 164.04 242.19 C 164.91 242.00 165.46 241.14 165.27 240.28 C 165.07 239.41 164.21 238.86 163.35 239.05 L 162.34 239.27 C 161.47 239.47 160.93 240.33 161.12 241.19 C 161.31 242.06 162.17 242.61 163.04 242.42 Z M 164.05 242.19 L 165.04 241.97 C 165.91 241.78 166.45 240.92 166.26 240.05 C 166.06 239.18 165.20 238.64 164.34 238.83 L 163.34 239.05 C 162.47 239.25 161.93 240.11 162.12 240.98 C 162.32 241.84 163.18 242.39 164.05 242.19 Z M 165.04 241.97 L 166.03 241.75 C 166.90 241.55 167.44 240.69 167.24 239.82 C 167.05 238.95 166.18 238.41 165.32 238.61 L 164.33 238.83 C 163.47 239.03 162.92 239.89 163.12 240.76 C 163.32 241.62 164.18 242.17 165.04 241.97 Z M 166.03 241.75 L 167.01 241.52 C 167.87 241.32 168.41 240.46 168.22 239.59 C 168.02 238.73 167.15 238.19 166.29 238.39 L 165.31 238.61 C 164.45 238.81 163.91 239.67 164.11 240.54 C 164.30 241.40 165.17 241.94 166.03 241.75 Z M 167.01 241.52 L 167.97 241.30 C 168.84 241.10 169.38 240.23 169.18 239.37 C 168.98 238.50 168.11 237.96 167.25 238.16 L 166.28 238.39 C 165.42 238.59 164.88 239.45 165.08 240.32 C 165.28 241.18 166.15 241.72 167.01 241.52 Z M 167.98 241.30 L 168.92 241.07 C 169.79 240.87 170.33 240.01 170.12 239.14 C 169.92 238.28 169.05 237.74 168.19 237.94 L 167.24 238.16 C 166.38 238.37 165.84 239.23 166.04 240.10 C 166.25 240.96 167.11 241.50 167.98 241.30 Z M 168.93 241.07 L 169.86 240.85 C 170.73 240.65 171.26 239.78 171.06 238.92 C 170.85 238.05 169.98 237.52 169.12 237.72 L 168.19 237.94 C 167.32 238.15 166.79 239.02 166.99 239.88 C 167.20 240.74 168.06 241.28 168.93 241.07 Z M 169.87 240.85 L 170.79 240.63 C 171.65 240.42 172.18 239.55 171.98 238.69 C 171.77 237.83 170.90 237.29 170.04 237.50 L 169.12 237.72 C 168.25 237.93 167.72 238.80 167.93 239.66 C 168.13 240.53 169.00 241.06 169.87 240.85 Z M 170.79 240.63 L 171.82 240.38 C 172.69 240.17 173.22 239.30 173.01 238.44 C 172.80 237.57 171.93 237.04 171.06 237.25 L 170.03 237.50 C 169.17 237.71 168.64 238.58 168.85 239.45 C 169.06 240.31 169.93 240.84 170.79 240.63 Z M 171.83 240.38 L 172.84 240.13 C 173.70 239.92 174.23 239.04 174.02 238.18 C 173.80 237.32 172.93 236.79 172.07 237.00 L 171.06 237.25 C 170.20 237.47 169.67 238.34 169.88 239.20 C 170.09 240.06 170.97 240.59 171.83 240.38 Z M 172.85 240.13 L 173.84 239.88 C 174.70 239.66 175.22 238.79 175.01 237.93 C 174.79 237.07 173.92 236.54 173.06 236.76 L 172.07 237.01 C 171.20 237.22 170.68 238.09 170.89 238.96 C 171.11 239.82 171.98 240.34 172.85 240.13 Z M 173.84 239.88 L 174.82 239.63 C 175.68 239.41 176.20 238.54 175.98 237.68 C 175.76 236.81 174.89 236.29 174.03 236.51 L 173.05 236.76 C 172.19 236.98 171.67 237.85 171.89 238.71 C 172.11 239.57 172.98 240.10 173.84 239.88 Z M 174.82 239.63 L 175.79 239.38 C 176.65 239.16 177.16 238.28 176.94 237.42 C 176.72 236.56 175.84 236.04 174.98 236.27 L 174.02 236.51 C 173.16 236.73 172.64 237.61 172.87 238.47 C 173.09 239.33 173.96 239.85 174.82 239.63 Z M 175.79 239.38 L 176.74 239.13 C 177.60 238.91 178.11 238.03 177.89 237.17 C 177.66 236.31 176.78 235.79 175.92 236.02 L 174.98 236.27 C 174.12 236.49 173.60 237.37 173.83 238.23 C 174.05 239.09 174.93 239.60 175.79 239.38 Z M 176.74 239.13 L 177.68 238.88 C 178.54 238.65 179.05 237.77 178.82 236.91 C 178.59 236.06 177.71 235.54 176.85 235.77 L 175.92 236.02 C 175.06 236.25 174.55 237.13 174.78 237.99 C 175.00 238.85 175.89 239.36 176.74 239.13 Z M 177.69 238.88 L 178.61 238.63 C 179.47 238.40 179.98 237.52 179.75 236.66 C 179.51 235.80 178.63 235.29 177.77 235.52 L 176.85 235.77 C 175.99 236.01 175.48 236.89 175.71 237.75 C 175.94 238.60 176.83 239.11 177.69 238.88 Z M 178.62 238.63 L 179.57 238.37 C 180.43 238.13 180.93 237.25 180.70 236.39 C 180.46 235.53 179.58 235.03 178.72 235.26 L 177.77 235.53 C 176.91 235.76 176.40 236.65 176.64 237.50 C 176.87 238.36 177.76 238.86 178.62 238.63 Z M 179.58 238.37 L 180.61 238.08 C 181.46 237.84 181.96 236.95 181.72 236.10 C 181.49 235.24 180.60 234.74 179.74 234.98 L 178.72 235.26 C 177.86 235.50 177.36 236.39 177.60 237.25 C 177.84 238.10 178.72 238.60 179.58 238.37 Z M 180.61 238.08 L 181.62 237.79 C 182.48 237.55 182.98 236.66 182.73 235.81 C 182.49 234.95 181.60 234.45 180.75 234.69 L 179.74 234.98 C 178.88 235.22 178.38 236.11 178.62 236.97 C 178.86 237.82 179.75 238.32 180.61 238.08 Z M 181.63 237.79 L 182.62 237.51 C 183.48 237.27 183.97 236.38 183.73 235.52 C 183.48 234.66 182.59 234.17 181.74 234.41 L 180.74 234.69 C 179.89 234.94 179.39 235.83 179.63 236.69 C 179.88 237.54 180.77 238.04 181.63 237.79 Z M 182.62 237.51 L 183.59 237.23 C 184.45 236.99 184.94 236.09 184.70 235.24 C 184.45 234.38 183.56 233.89 182.70 234.13 L 181.73 234.41 C 180.88 234.66 180.38 235.55 180.63 236.41 C 180.87 237.26 181.77 237.76 182.62 237.51 Z M 183.59 237.23 L 184.54 236.96 C 185.40 236.71 185.89 235.82 185.64 234.96 C 185.40 234.11 184.51 233.61 183.65 233.86 L 182.70 234.13 C 181.85 234.38 181.35 235.27 181.60 236.13 C 181.84 236.98 182.74 237.48 183.59 237.23 Z M 184.54 236.96 L 185.46 236.70 C 186.31 236.45 186.81 235.56 186.56 234.70 C 186.32 233.85 185.42 233.35 184.57 233.60 L 183.65 233.86 C 182.79 234.11 182.30 235.00 182.54 235.86 C 182.79 236.71 183.68 237.21 184.54 236.96 Z M 185.45 236.70 L 186.34 236.45 C 187.20 236.20 187.69 235.31 187.45 234.45 C 187.20 233.59 186.31 233.10 185.45 233.34 L 184.57 233.59 C 183.71 233.84 183.21 234.73 183.46 235.59 C 183.70 236.45 184.60 236.94 185.45 236.70 Z M 186.33 236.45 L 187.32 236.17 C 188.18 235.93 188.68 235.03 188.44 234.18 C 188.20 233.32 187.30 232.82 186.44 233.06 L 185.46 233.34 C 184.60 233.58 184.10 234.48 184.34 235.33 C 184.58 236.19 185.48 236.69 186.33 236.45 Z M 187.32 236.17 L 188.34 235.89 C 189.20 235.65 189.70 234.76 189.46 233.90 C 189.22 233.04 188.33 232.53 187.47 232.77 L 186.45 233.06 C 185.59 233.30 185.09 234.19 185.33 235.05 C 185.57 235.91 186.46 236.41 187.32 236.17 Z M 188.33 235.89 L 189.31 235.62 C 190.17 235.39 190.68 234.50 190.44 233.64 C 190.21 232.77 189.32 232.27 188.45 232.50 L 187.48 232.77 C 186.61 233.01 186.11 233.90 186.34 234.76 C 186.58 235.62 187.47 236.13 188.33 235.89 Z M 189.30 235.63 L 190.25 235.37 C 191.11 235.14 191.62 234.25 191.39 233.39 C 191.16 232.52 190.27 232.01 189.40 232.24 L 188.46 232.50 C 187.60 232.73 187.08 233.62 187.32 234.49 C 187.55 235.35 188.44 235.86 189.30 235.63 Z M 190.24 235.38 L 191.17 235.13 C 192.03 234.90 192.55 234.01 192.32 233.14 C 192.09 232.28 191.20 231.76 190.33 231.99 L 189.41 232.24 C 188.54 232.47 188.03 233.36 188.26 234.23 C 188.49 235.09 189.38 235.61 190.24 235.38 Z M 191.17 235.13 L 192.08 234.89 C 192.95 234.66 193.47 233.77 193.24 232.91 C 193.01 232.04 192.12 231.52 191.25 231.75 L 190.34 231.99 C 189.47 232.22 188.95 233.11 189.18 233.98 C 189.41 234.84 190.30 235.36 191.17 235.13 Z M 192.08 234.89 L 193.03 234.65 C 193.89 234.42 194.41 233.53 194.19 232.66 C 193.96 231.80 193.07 231.28 192.21 231.50 L 191.26 231.75 C 190.39 231.98 189.87 232.86 190.10 233.73 C 190.32 234.60 191.21 235.12 192.08 234.89 Z M 193.02 234.65 L 194.00 234.39 C 194.87 234.17 195.39 233.28 195.17 232.42 C 194.94 231.55 194.06 231.03 193.19 231.25 L 192.21 231.50 C 191.34 231.73 190.82 232.61 191.04 233.48 C 191.27 234.35 192.15 234.87 193.02 234.65 Z M 193.99 234.39 L 194.97 234.15 C 195.84 233.93 196.36 233.05 196.14 232.18 C 195.93 231.31 195.04 230.78 194.17 231.00 L 193.20 231.25 C 192.33 231.47 191.80 232.35 192.02 233.22 C 192.24 234.09 193.12 234.61 193.99 234.39 Z M 194.96 234.15 L 195.93 233.91 C 196.80 233.69 197.34 232.82 197.12 231.95 C 196.91 231.08 196.03 230.55 195.16 230.76 L 194.19 231.00 C 193.32 231.21 192.78 232.09 193.00 232.96 C 193.21 233.83 194.09 234.36 194.96 234.15 Z M 195.92 233.91 L 196.89 233.68 C 197.76 233.47 198.30 232.60 198.09 231.73 C 197.89 230.86 197.01 230.32 196.14 230.53 L 195.17 230.76 C 194.30 230.97 193.77 231.84 193.97 232.71 C 194.18 233.58 195.05 234.12 195.92 233.91 Z M 196.87 233.68 L 197.83 233.47 C 198.70 233.27 199.25 232.40 199.05 231.53 C 198.86 230.66 197.99 230.11 197.12 230.31 L 196.16 230.53 C 195.29 230.72 194.74 231.59 194.94 232.46 C 195.14 233.33 196.00 233.88 196.87 233.68 Z M 197.81 233.47 L 198.83 233.25 C 199.70 233.07 200.26 232.21 200.08 231.34 C 199.89 230.46 199.03 229.90 198.16 230.09 L 197.14 230.31 C 196.26 230.49 195.71 231.35 195.89 232.22 C 196.08 233.10 196.94 233.66 197.81 233.47 Z M 198.81 233.26 L 199.82 233.06 C 200.70 232.89 201.27 232.04 201.09 231.16 C 200.92 230.28 200.07 229.71 199.19 229.88 L 198.18 230.08 C 197.30 230.26 196.73 231.11 196.91 231.98 C 197.08 232.86 197.93 233.43 198.81 233.26 Z M 199.79 233.07 L 200.79 232.89 C 201.66 232.73 202.25 231.89 202.09 231.01 C 201.93 230.13 201.09 229.54 200.21 229.70 L 199.22 229.88 C 198.34 230.04 197.76 230.88 197.91 231.76 C 198.07 232.64 198.91 233.22 199.79 233.07 Z M 200.76 232.89 L 201.73 232.74 C 202.61 232.59 203.21 231.76 203.07 230.88 C 202.92 230.00 202.09 229.40 201.21 229.54 L 200.24 229.70 C 199.36 229.84 198.76 230.67 198.90 231.55 C 199.04 232.44 199.87 233.03 200.76 232.89 Z M 201.70 232.74 L 202.64 232.61 C 203.53 232.48 204.14 231.66 204.02 230.77 C 203.89 229.89 203.07 229.27 202.19 229.40 L 201.24 229.53 C 200.35 229.66 199.74 230.48 199.86 231.36 C 199.99 232.25 200.81 232.87 201.70 232.74 Z M 202.61 232.61 L 203.62 232.49 C 204.51 232.38 205.14 231.58 205.04 230.69 C 204.93 229.80 204.12 229.17 203.24 229.27 L 202.22 229.39 C 201.33 229.50 200.70 230.31 200.81 231.20 C 200.91 232.08 201.72 232.72 202.61 232.61 Z M 203.58 232.49 L 204.62 232.39 C 205.51 232.30 206.16 231.51 206.08 230.62 C 205.99 229.74 205.20 229.09 204.31 229.17 L 203.27 229.27 C 202.38 229.36 201.73 230.15 201.82 231.04 C 201.91 231.92 202.70 232.58 203.58 232.49 Z M 204.59 232.39 L 205.59 232.31 C 206.48 232.25 207.14 231.47 207.08 230.58 C 207.01 229.70 206.24 229.03 205.35 229.10 L 204.35 229.17 C 203.46 229.24 202.79 230.01 202.86 230.90 C 202.92 231.79 203.70 232.46 204.59 232.39 Z M 205.56 232.31 L 206.52 232.26 C 207.41 232.21 208.09 231.45 208.04 230.56 C 207.99 229.67 207.23 228.99 206.34 229.04 L 205.38 229.10 C 204.49 229.15 203.81 229.91 203.86 230.79 C 203.91 231.68 204.67 232.36 205.56 232.31 Z M 206.50 232.26 L 207.45 232.22 C 208.34 232.19 209.03 231.44 208.99 230.55 C 208.96 229.66 208.21 228.97 207.32 229.01 L 206.37 229.05 C 205.48 229.08 204.79 229.83 204.83 230.71 C 204.86 231.60 205.61 232.29 206.50 232.26 Z M 207.43 232.22 L 208.48 232.19 C 209.37 232.17 210.07 231.44 210.05 230.55 C 210.03 229.66 209.29 228.96 208.40 228.98 L 207.35 229.01 C 206.46 229.03 205.76 229.77 205.78 230.65 C 205.80 231.54 206.54 232.24 207.43 232.22 Z M 208.46 232.19 L 209.47 232.18 C 210.36 232.17 211.07 231.44 211.06 230.56 C 211.05 229.67 210.32 228.96 209.43 228.97 L 208.42 228.98 C 207.54 228.99 206.83 229.72 206.84 230.61 C 206.85 231.49 207.58 232.20 208.46 232.19 Z M 209.46 232.18 L 210.42 232.18 C 211.31 232.18 212.02 231.45 212.02 230.57 C 212.02 229.68 211.30 228.96 210.41 228.97 L 209.45 228.97 C 208.56 228.97 207.84 229.70 207.85 230.58 C 207.85 231.47 208.57 232.19 209.46 232.18 Z M 210.41 232.18 L 211.36 232.18 C 212.25 232.18 212.97 231.46 212.97 230.57 C 212.97 229.69 212.25 228.97 211.36 228.97 L 210.42 228.97 C 209.53 228.97 208.81 229.69 208.81 230.57 C 208.81 231.46 209.53 232.18 210.41 232.18 Z M 211.34 232.17 L 212.30 232.19 C 213.18 232.20 213.91 231.50 213.92 230.62 C 213.94 229.73 213.23 229.01 212.35 228.99 L 211.39 228.98 C 210.51 228.96 209.78 229.66 209.76 230.55 C 209.75 231.43 210.45 232.16 211.34 232.17 Z M 212.21 232.18 L 213.19 232.24 C 214.07 232.30 214.83 231.64 214.89 230.77 C 214.95 229.89 214.29 229.13 213.41 229.07 L 212.44 229.00 C 211.56 228.94 210.80 229.60 210.74 230.48 C 210.68 231.35 211.34 232.11 212.21 232.18 Z M 213.07 232.22 L 214.11 232.38 C 214.97 232.51 215.78 231.92 215.91 231.05 C 216.04 230.19 215.44 229.38 214.58 229.25 L 213.54 229.09 C 212.68 228.96 211.87 229.56 211.74 230.42 C 211.61 231.28 212.20 232.09 213.07 232.22 Z M 213.98 232.35 L 214.92 232.57 C 215.77 232.77 216.62 232.25 216.82 231.41 C 217.02 230.56 216.50 229.71 215.66 229.51 L 214.71 229.28 C 213.86 229.08 213.01 229.60 212.81 230.45 C 212.61 231.30 213.13 232.15 213.98 232.35 Z M 214.81 232.54 L 215.78 232.84 C 216.60 233.11 217.49 232.65 217.75 231.82 C 218.01 230.99 217.55 230.11 216.73 229.85 L 215.76 229.54 C 214.94 229.28 214.05 229.74 213.79 230.57 C 213.53 231.39 213.99 232.28 214.81 232.54 Z M 215.67 232.80 L 216.62 233.18 C 217.42 233.51 218.34 233.11 218.66 232.31 C 218.98 231.51 218.59 230.60 217.79 230.27 L 216.83 229.89 C 216.03 229.57 215.12 229.96 214.80 230.76 C 214.47 231.57 214.86 232.48 215.67 232.80 Z M 216.50 233.13 L 217.40 233.58 C 218.17 233.97 219.11 233.66 219.50 232.89 C 219.89 232.11 219.58 231.17 218.81 230.78 L 217.91 230.33 C 217.13 229.94 216.19 230.25 215.81 231.02 C 215.42 231.80 215.73 232.74 216.50 233.13 Z M 217.26 233.49 L 218.12 234.05 C 218.84 234.52 219.81 234.31 220.28 233.59 C 220.75 232.86 220.54 231.89 219.81 231.43 L 218.95 230.87 C 218.23 230.40 217.26 230.61 216.79 231.33 C 216.33 232.06 216.53 233.03 217.26 233.49 Z M 217.98 233.95 L 218.76 234.59 C 219.43 235.13 220.41 235.04 220.96 234.37 C 221.50 233.70 221.41 232.72 220.74 232.17 L 219.96 231.53 C 219.29 230.98 218.31 231.08 217.76 231.75 C 217.21 232.42 217.31 233.40 217.98 233.95 Z M 218.66 234.50 L 219.37 235.19 C 219.98 235.79 220.97 235.77 221.57 235.16 C 222.18 234.54 222.16 233.55 221.54 232.95 L 220.84 232.26 C 220.22 231.66 219.23 231.67 218.63 232.29 C 218.03 232.91 218.04 233.90 218.66 234.50 Z M 219.31 235.13 L 219.97 235.84 C 220.56 236.47 221.55 236.51 222.18 235.92 C 222.81 235.34 222.85 234.35 222.26 233.72 L 221.60 233.00 C 221.01 232.37 220.02 232.34 219.39 232.92 C 218.76 233.51 218.73 234.50 219.31 235.13 Z M 219.96 235.83 L 220.12 236.00 C 220.70 236.64 221.68 236.69 222.32 236.11 C 222.96 235.53 223.01 234.54 222.43 233.90 L 222.27 233.73 C 221.70 233.09 220.71 233.04 220.07 233.62 C 219.43 234.20 219.38 235.19 219.96 235.83 Z"
      fill="black"
      fill-rule="nonzero" /></svg>