<svg xmlns="http://www.w3.org/2000/svg" width="300" height="300" viewBox="0 0 300 300">
<path d="M 117.04 140.45 L 117.57 139.60 C 118.02 138.86 117.79 137.90 117.05 137.45 C 116.32 137.00 115.36 137.23 114.90 137.96 L 114.38 138.82 C 113.93 139.55 114.16 140.51 114.90 140.96 C 115.63 141.42 116.59 141.19 117.04 140.45 Z M 117.51 139.67 L 118.09 138.86 C 118.58 138.15 118.41 137.18 117.70 136.68 C 116.99 136.19 116.02 136.36 115.53 137.07 L 114.96 137.89 C 114.46 138.59 114.63 139.57 115.34 140.06 C 116.05 140.55 117.02 140.38 117.51 139.67 Z M 117.97 139.00 L 118.63 138.26 C 119.21 137.62 119.15 136.63 118.51 136.06 C 117.87 135.48 116.88 135.54 116.31 136.18 L 115.64 136.92 C 115.07 137.57 115.12 138.55 115.77 139.13 C 116.41 139.70 117.40 139.65 117.97 139.00 Z M 118.46 138.43 L 119.21 137.81 C 119.88 137.27 119.98 136.29 119.43 135.62 C 118.89 134.95 117.90 134.85 117.24 135.40 L 116.48 136.01 C 115.82 136.56 115.72 137.54 116.26 138.21 C 116.81 138.88 117.79 138.97 118.46 138.43 Z M 119.07 137.92 L 119.91 137.38 C 120.63 136.91 120.84 135.94 120.38 135.22 C 119.91 134.49 118.94 134.29 118.22 134.75 L 117.38 135.29 C 116.65 135.76 116.44 136.73 116.91 137.45 C 117.38 138.18 118.34 138.38 119.07 137.92 Z M 119.84 137.42 L 120.72 136.91 C 121.47 136.49 121.73 135.53 121.30 134.78 C 120.87 134.04 119.92 133.78 119.17 134.20 L 118.29 134.71 C 117.54 135.14 117.28 136.09 117.71 136.84 C 118.14 137.59 119.09 137.85 119.84 137.42 Z M 120.72 136.92 L 121.58 136.43 C 122.32 136.00 122.59 135.05 122.16 134.30 C 121.73 133.55 120.78 133.29 120.03 133.72 L 119.17 134.20 C 118.42 134.63 118.16 135.58 118.59 136.33 C 119.02 137.08 119.97 137.34 120.72 136.92 Z M 121.59 136.42 L 122.43 135.93 C 123.17 135.49 123.42 134.53 122.98 133.79 C 122.55 133.05 121.59 132.80 120.85 133.23 L 120.01 133.72 C 119.27 134.16 119.02 135.12 119.46 135.86 C 119.89 136.60 120.85 136.85 121.59 136.42 Z M 122.43 135.93 L 123.29 135.42 C 124.04 134.99 124.29 134.03 123.85 133.28 C 123.41 132.54 122.46 132.29 121.71 132.73 L 120.85 133.23 C 120.10 133.67 119.86 134.63 120.29 135.37 C 120.73 136.11 121.68 136.36 122.43 135.93 Z M 123.28 135.43 L 124.18 134.92 C 124.93 134.49 125.19 133.54 124.76 132.79 C 124.34 132.04 123.38 131.78 122.63 132.20 L 121.73 132.72 C 120.98 133.14 120.72 134.10 121.15 134.85 C 121.57 135.60 122.53 135.86 123.28 135.43 Z M 124.15 134.93 L 124.98 134.48 C 125.74 134.07 126.02 133.12 125.60 132.36 C 125.19 131.61 124.24 131.33 123.49 131.74 L 122.66 132.19 C 121.90 132.60 121.62 133.55 122.04 134.31 C 122.45 135.06 123.40 135.34 124.15 134.93 Z M 124.94 134.50 L 125.82 134.05 C 126.59 133.66 126.89 132.72 126.50 131.95 C 126.11 131.18 125.17 130.88 124.40 131.27 L 123.52 131.72 C 122.75 132.11 122.45 133.05 122.84 133.82 C 123.24 134.59 124.18 134.89 124.94 134.50 Z M 125.78 134.07 L 126.70 133.63 C 127.48 133.27 127.82 132.34 127.45 131.56 C 127.08 130.78 126.15 130.44 125.37 130.81 L 124.44 131.25 C 123.66 131.62 123.33 132.55 123.70 133.33 C 124.07 134.11 125.00 134.44 125.78 134.07 Z M 126.65 133.66 L 127.62 133.25 C 128.41 132.91 128.78 131.99 128.44 131.20 C 128.11 130.40 127.19 130.04 126.39 130.37 L 125.42 130.79 C 124.63 131.12 124.26 132.04 124.60 132.84 C 124.94 133.63 125.85 134.00 126.65 133.66 Z M 127.56 133.27 L 128.49 132.92 C 129.29 132.62 129.70 131.72 129.40 130.91 C 129.09 130.10 128.19 129.69 127.39 130.00 L 126.46 130.35 C 125.65 130.65 125.24 131.55 125.55 132.36 C 125.85 133.17 126.75 133.57 127.56 133.27 Z M 128.43 132.94 L 129.38 132.62 C 130.20 132.35 130.64 131.47 130.37 130.65 C 130.09 129.83 129.21 129.39 128.39 129.66 L 127.44 129.98 C 126.63 130.25 126.18 131.14 126.46 131.95 C 126.73 132.77 127.61 133.21 128.43 132.94 Z M 129.33 132.64 L 130.29 132.35 C 131.12 132.11 131.59 131.24 131.35 130.42 C 131.10 129.59 130.24 129.12 129.41 129.36 L 128.44 129.65 C 127.62 129.89 127.14 130.76 127.39 131.58 C 127.63 132.41 128.50 132.88 129.33 132.64 Z M 130.24 132.37 L 131.22 132.11 C 132.05 131.90 132.55 131.04 132.33 130.21 C 132.12 129.38 131.26 128.88 130.43 129.09 L 129.46 129.35 C 128.62 129.56 128.12 130.42 128.34 131.25 C 128.56 132.09 129.41 132.59 130.24 132.37 Z M 131.17 132.13 L 132.16 131.90 C 133.00 131.71 133.52 130.87 133.33 130.03 C 133.14 129.19 132.30 128.67 131.46 128.86 L 130.48 129.08 C 129.64 129.27 129.11 130.11 129.30 130.95 C 129.49 131.79 130.33 132.32 131.17 132.13 Z M 132.11 131.91 L 133.12 131.71 C 133.96 131.54 134.51 130.72 134.35 129.88 C 134.18 129.03 133.36 128.48 132.51 128.65 L 131.51 128.85 C 130.66 129.02 130.11 129.84 130.28 130.68 C 130.45 131.53 131.27 132.08 132.11 131.91 Z M 133.08 131.72 L 134.07 131.55 C 134.92 131.40 135.49 130.59 135.35 129.75 C 135.20 128.90 134.39 128.33 133.54 128.47 L 132.55 128.64 C 131.70 128.79 131.13 129.60 131.28 130.44 C 131.42 131.29 132.23 131.87 133.08 131.72 Z M 134.04 131.55 L 135.02 131.41 C 135.87 131.28 136.46 130.48 136.33 129.63 C 136.20 128.78 135.41 128.19 134.55 128.32 L 133.58 128.47 C 132.72 128.59 132.14 129.39 132.26 130.24 C 132.39 131.09 133.19 131.68 134.04 131.55 Z M 134.99 131.41 L 135.95 131.28 C 136.81 131.17 137.41 130.38 137.29 129.53 C 137.18 128.67 136.40 128.07 135.54 128.19 L 134.58 128.32 C 133.73 128.43 133.12 129.21 133.24 130.07 C 133.35 130.92 134.14 131.52 134.99 131.41 Z M 135.93 131.29 L 136.95 131.16 C 137.81 131.06 138.42 130.28 138.32 129.43 C 138.22 128.57 137.44 127.96 136.58 128.06 L 135.56 128.19 C 134.70 128.29 134.09 129.07 134.20 129.92 C 134.30 130.78 135.08 131.39 135.93 131.29 Z M 136.95 131.16 L 137.95 131.05 C 138.81 130.95 139.42 130.18 139.32 129.32 C 139.23 128.47 138.45 127.85 137.60 127.95 L 136.59 128.06 C 135.74 128.16 135.12 128.93 135.22 129.79 C 135.32 130.65 136.09 131.26 136.95 131.16 Z M 137.95 131.05 L 138.94 130.94 C 139.79 130.84 140.41 130.06 140.31 129.21 C 140.21 128.35 139.43 127.73 138.58 127.83 L 137.59 127.95 C 136.74 128.05 136.12 128.82 136.22 129.68 C 136.32 130.53 137.10 131.15 137.95 131.05 Z M 138.95 130.93 L 139.91 130.81 C 140.77 130.70 141.38 129.92 141.27 129.07 C 141.16 128.21 140.38 127.61 139.52 127.71 L 138.56 127.84 C 137.70 127.94 137.10 128.73 137.21 129.58 C 137.32 130.44 138.10 131.04 138.95 130.93 Z M 139.94 130.81 L 140.95 130.66 C 141.80 130.54 142.39 129.74 142.27 128.89 C 142.14 128.04 141.35 127.45 140.50 127.57 L 139.49 127.72 C 138.64 127.84 138.05 128.64 138.17 129.49 C 138.30 130.34 139.09 130.93 139.94 130.81 Z M 140.99 130.65 L 141.98 130.48 C 142.83 130.34 143.40 129.53 143.25 128.68 C 143.11 127.83 142.30 127.26 141.45 127.41 L 140.46 127.58 C 139.61 127.72 139.04 128.53 139.18 129.38 C 139.33 130.23 140.14 130.80 140.99 130.65 Z M 142.02 130.48 L 142.99 130.28 C 143.84 130.11 144.39 129.29 144.22 128.45 C 144.05 127.60 143.23 127.05 142.38 127.22 L 141.41 127.42 C 140.56 127.58 140.01 128.41 140.18 129.25 C 140.35 130.10 141.17 130.65 142.02 130.48 Z M 143.04 130.27 L 143.99 130.05 C 144.83 129.86 145.36 129.02 145.16 128.18 C 144.97 127.34 144.13 126.82 143.29 127.01 L 142.33 127.23 C 141.49 127.43 140.97 128.26 141.17 129.10 C 141.36 129.94 142.20 130.47 143.04 130.27 Z M 144.04 130.04 L 144.98 129.80 C 145.81 129.58 146.31 128.73 146.09 127.89 C 145.87 127.06 145.02 126.56 144.19 126.77 L 143.25 127.02 C 142.41 127.24 141.91 128.09 142.13 128.93 C 142.35 129.76 143.20 130.26 144.04 130.04 Z M 145.00 129.79 L 145.95 129.53 C 146.78 129.30 147.27 128.44 147.04 127.61 C 146.81 126.78 145.95 126.29 145.12 126.52 L 144.17 126.78 C 143.34 127.01 142.85 127.87 143.08 128.70 C 143.31 129.53 144.17 130.02 145.00 129.79 Z M 145.94 129.53 L 146.92 129.26 C 147.75 129.03 148.24 128.18 148.02 127.34 C 147.79 126.51 146.93 126.02 146.10 126.25 L 145.12 126.52 C 144.29 126.74 143.80 127.60 144.03 128.44 C 144.25 129.27 145.11 129.76 145.94 129.53 Z M 146.90 129.27 L 147.90 129.01 C 148.73 128.80 149.23 127.95 149.02 127.11 C 148.81 126.28 147.96 125.77 147.12 125.99 L 146.12 126.24 C 145.29 126.46 144.78 127.31 145.00 128.14 C 145.21 128.98 146.06 129.48 146.90 129.27 Z M 147.86 129.02 L 148.85 128.79 C 149.69 128.60 150.21 127.76 150.02 126.92 C 149.82 126.08 148.98 125.56 148.14 125.75 L 147.16 125.98 C 146.32 126.17 145.79 127.01 145.99 127.85 C 146.18 128.69 147.02 129.22 147.86 129.02 Z M 148.81 128.80 L 149.82 128.59 C 150.66 128.42 151.20 127.59 151.03 126.75 C 150.85 125.90 150.03 125.36 149.18 125.53 L 148.18 125.74 C 147.34 125.92 146.79 126.74 146.97 127.59 C 147.14 128.43 147.97 128.97 148.81 128.80 Z M 149.78 128.60 L 150.76 128.42 C 151.61 128.27 152.17 127.46 152.02 126.61 C 151.86 125.76 151.05 125.20 150.20 125.35 L 149.22 125.53 C 148.37 125.68 147.81 126.49 147.96 127.34 C 148.11 128.19 148.93 128.75 149.78 128.60 Z M 150.70 128.43 L 151.69 128.29 C 152.54 128.16 153.14 127.37 153.01 126.52 C 152.89 125.67 152.10 125.07 151.24 125.20 L 150.26 125.34 C 149.40 125.47 148.81 126.26 148.94 127.11 C 149.06 127.96 149.85 128.56 150.70 128.43 Z M 151.62 128.30 L 152.66 128.20 C 153.51 128.11 154.14 127.35 154.06 126.49 C 153.97 125.63 153.21 125.00 152.35 125.09 L 151.31 125.19 C 150.46 125.27 149.83 126.04 149.91 126.90 C 150.00 127.75 150.76 128.38 151.62 128.30 Z M 152.57 128.20 L 153.55 128.16 C 154.41 128.12 155.08 127.39 155.04 126.53 C 155.00 125.67 154.28 125.00 153.41 125.04 L 152.44 125.08 C 151.57 125.12 150.91 125.85 150.94 126.71 C 150.98 127.57 151.71 128.24 152.57 128.20 Z M 153.47 128.16 L 154.42 128.17 C 155.28 128.18 155.99 127.48 156.00 126.62 C 156.00 125.76 155.31 125.05 154.45 125.05 L 153.50 125.04 C 152.64 125.03 151.93 125.72 151.92 126.58 C 151.91 127.45 152.61 128.15 153.47 128.16 Z M 154.34 128.17 L 155.32 128.22 C 156.18 128.28 156.92 127.62 156.97 126.76 C 157.02 125.90 156.37 125.16 155.51 125.11 L 154.53 125.05 C 153.67 125.00 152.93 125.65 152.88 126.51 C 152.83 127.37 153.48 128.11 154.34 128.17 Z M 155.22 128.21 L 156.20 128.34 C 157.06 128.45 157.84 127.84 157.95 126.99 C 158.06 126.13 157.45 125.35 156.60 125.24 L 155.61 125.12 C 154.76 125.01 153.97 125.61 153.87 126.47 C 153.76 127.32 154.36 128.11 155.22 128.21 Z M 156.07 128.32 L 157.05 128.53 C 157.90 128.72 158.73 128.18 158.91 127.34 C 159.10 126.50 158.56 125.66 157.72 125.48 L 156.73 125.27 C 155.89 125.08 155.06 125.62 154.88 126.46 C 154.69 127.30 155.23 128.13 156.07 128.32 Z M 156.89 128.49 L 157.84 128.80 C 158.66 129.07 159.54 128.63 159.81 127.81 C 160.08 126.99 159.64 126.11 158.82 125.84 L 157.88 125.52 C 157.06 125.25 156.18 125.70 155.90 126.51 C 155.63 127.33 156.08 128.22 156.89 128.49 Z M 157.70 128.75 L 158.61 129.15 C 159.40 129.49 160.32 129.13 160.67 128.34 C 161.01 127.55 160.65 126.63 159.86 126.29 L 158.96 125.89 C 158.17 125.54 157.25 125.90 156.90 126.69 C 156.55 127.48 156.91 128.40 157.70 128.75 Z M 158.52 129.10 L 159.42 129.57 C 160.18 129.96 161.12 129.66 161.52 128.89 C 161.91 128.13 161.61 127.19 160.85 126.79 L 159.95 126.33 C 159.19 125.93 158.24 126.23 157.85 127.00 C 157.45 127.77 157.75 128.71 158.52 129.10 Z M 159.37 129.54 L 160.25 130.04 C 161.00 130.46 161.95 130.19 162.38 129.44 C 162.80 128.69 162.53 127.74 161.78 127.32 L 160.90 126.82 C 160.15 126.40 159.19 126.66 158.77 127.41 C 158.35 128.16 158.61 129.12 159.37 129.54 Z M 160.23 130.03 L 161.07 130.51 C 161.82 130.95 162.77 130.69 163.21 129.95 C 163.64 129.20 163.38 128.25 162.64 127.81 L 161.80 127.33 C 161.05 126.89 160.10 127.15 159.67 127.89 C 159.23 128.64 159.49 129.59 160.23 130.03 Z M 161.08 130.52 L 161.94 131.01 C 162.68 131.44 163.64 131.18 164.07 130.43 C 164.49 129.68 164.23 128.72 163.48 128.30 L 162.63 127.81 C 161.88 127.38 160.93 127.64 160.50 128.39 C 160.07 129.14 160.33 130.09 161.08 130.52 Z M 161.97 131.03 L 162.86 131.51 C 163.62 131.92 164.57 131.63 164.97 130.87 C 165.38 130.12 165.10 129.17 164.34 128.76 L 163.45 128.28 C 162.69 127.87 161.75 128.15 161.34 128.91 C 160.93 129.67 161.21 130.62 161.97 131.03 Z M 162.91 131.53 L 163.84 131.99 C 164.61 132.37 165.55 132.05 165.93 131.28 C 166.31 130.50 165.99 129.57 165.21 129.19 L 164.29 128.73 C 163.52 128.35 162.58 128.67 162.20 129.44 C 161.82 130.22 162.14 131.15 162.91 131.53 Z M 163.89 132.02 L 164.82 132.42 C 165.61 132.77 166.53 132.42 166.88 131.63 C 167.23 130.84 166.87 129.92 166.08 129.57 L 165.16 129.16 C 164.37 128.81 163.45 129.17 163.10 129.96 C 162.75 130.75 163.11 131.67 163.89 132.02 Z M 164.87 132.44 L 165.82 132.83 C 166.62 133.15 167.53 132.76 167.85 131.96 C 168.17 131.16 167.78 130.25 166.98 129.93 L 166.03 129.55 C 165.24 129.23 164.33 129.61 164.00 130.41 C 163.68 131.21 164.07 132.12 164.87 132.44 Z M 165.86 132.84 L 166.80 133.19 C 167.60 133.49 168.50 133.07 168.80 132.27 C 169.10 131.46 168.69 130.56 167.88 130.26 L 166.94 129.91 C 166.13 129.61 165.23 130.03 164.93 130.84 C 164.64 131.65 165.05 132.54 165.86 132.84 Z M 166.84 133.20 L 167.78 133.52 C 168.60 133.80 169.49 133.36 169.76 132.54 C 170.04 131.73 169.60 130.84 168.78 130.56 L 167.84 130.24 C 167.02 129.97 166.13 130.41 165.86 131.23 C 165.58 132.04 166.02 132.93 166.84 133.20 Z M 167.82 133.54 L 168.82 133.84 C 169.64 134.10 170.52 133.63 170.77 132.81 C 171.02 131.99 170.56 131.11 169.74 130.86 L 168.74 130.55 C 167.92 130.30 167.04 130.76 166.79 131.58 C 166.54 132.41 167.00 133.28 167.82 133.54 Z M 168.84 133.85 L 169.78 134.12 C 170.60 134.37 171.47 133.90 171.72 133.07 C 171.96 132.24 171.49 131.37 170.66 131.13 L 169.72 130.85 C 168.89 130.61 168.02 131.08 167.78 131.91 C 167.54 132.73 168.01 133.60 168.84 133.85 Z M 169.76 134.12 L 170.67 134.40 C 171.50 134.65 172.37 134.19 172.62 133.36 C 172.87 132.54 172.41 131.67 171.59 131.41 L 170.68 131.13 C 169.85 130.88 168.98 131.35 168.73 132.17 C 168.47 132.99 168.94 133.87 169.76 134.12 Z M 170.62 134.38 L 171.52 134.69 C 172.33 134.97 173.22 134.54 173.50 133.72 C 173.78 132.91 173.35 132.02 172.53 131.74 L 171.64 131.43 C 170.82 131.15 169.93 131.58 169.65 132.40 C 169.37 133.21 169.81 134.10 170.62 134.38 Z M 171.43 134.66 L 172.34 135.03 C 173.13 135.36 174.05 134.97 174.37 134.17 C 174.70 133.38 174.32 132.47 173.52 132.14 L 172.62 131.77 C 171.82 131.44 170.91 131.83 170.58 132.62 C 170.25 133.42 170.64 134.33 171.43 134.66 Z M 172.23 134.98 L 173.15 135.44 C 173.92 135.83 174.86 135.51 175.24 134.74 C 175.63 133.97 175.32 133.03 174.55 132.65 L 173.63 132.19 C 172.85 131.80 171.92 132.12 171.53 132.89 C 171.15 133.66 171.46 134.60 172.23 134.98 Z M 173.04 135.38 L 173.92 135.91 C 174.66 136.36 175.62 136.12 176.06 135.39 C 176.51 134.65 176.28 133.69 175.54 133.24 L 174.66 132.71 C 173.92 132.26 172.96 132.50 172.51 133.23 C 172.07 133.97 172.30 134.93 173.04 135.38 Z M 173.83 135.85 L 174.65 136.43 C 175.36 136.93 176.33 136.76 176.83 136.06 C 177.32 135.35 177.16 134.38 176.45 133.88 L 175.63 133.30 C 174.92 132.81 173.95 132.97 173.45 133.68 C 172.96 134.38 173.12 135.36 173.83 135.85 Z M 174.58 136.38 L 175.39 137.02 C 176.06 137.55 177.05 137.44 177.58 136.76 C 178.11 136.08 178.00 135.10 177.32 134.57 L 176.52 133.93 C 175.84 133.40 174.86 133.51 174.33 134.19 C 173.79 134.87 173.91 135.85 174.58 136.38 Z M 175.33 136.97 L 176.09 137.63 C 176.74 138.19 177.72 138.12 178.29 137.47 C 178.86 136.82 178.79 135.84 178.13 135.27 L 177.38 134.61 C 176.73 134.05 175.74 134.12 175.18 134.77 C 174.61 135.42 174.68 136.41 175.33 136.97 Z M 176.03 137.58 L 176.78 138.29 C 177.40 138.89 178.39 138.86 178.98 138.24 C 179.58 137.62 179.56 136.63 178.93 136.03 L 178.19 135.32 C 177.57 134.73 176.58 134.75 175.98 135.37 C 175.39 135.99 175.41 136.98 176.03 137.58 Z M 176.71 138.22 L 177.41 138.98 C 177.99 139.61 178.98 139.65 179.61 139.06 C 180.25 138.47 180.28 137.49 179.70 136.85 L 179.00 136.10 C 178.41 135.47 177.43 135.43 176.79 136.02 C 176.16 136.60 176.12 137.59 176.71 138.22 Z M 177.33 138.89 L 177.94 139.65 C 178.48 140.32 179.46 140.43 180.14 139.89 C 180.81 139.35 180.92 138.36 180.38 137.69 L 179.77 136.94 C 179.23 136.26 178.25 136.16 177.58 136.70 C 176.90 137.24 176.80 138.22 177.33 138.89 Z M 177.87 139.55 L 178.41 140.34 C 178.90 141.05 179.87 141.23 180.58 140.74 C 181.29 140.25 181.47 139.28 180.99 138.57 L 180.44 137.78 C 179.96 137.07 178.98 136.89 178.27 137.38 C 177.56 137.87 177.38 138.84 177.87 139.55 Z M 178.35 140.25 L 178.86 141.11 C 179.29 141.85 180.25 142.10 180.99 141.66 C 181.74 141.23 181.99 140.27 181.55 139.53 L 181.05 138.67 C 180.61 137.92 179.65 137.67 178.91 138.11 C 178.17 138.55 177.92 139.50 178.35 140.25 Z M 178.81 141.01 L 179.25 141.91 C 179.64 142.68 180.57 143.00 181.35 142.61 C 182.12 142.23 182.43 141.29 182.05 140.52 L 181.60 139.62 C 181.22 138.85 180.28 138.54 179.51 138.92 C 178.74 139.30 178.42 140.24 178.81 141.01 Z M 179.21 141.81 L 179.59 142.74 C 179.92 143.53 180.83 143.91 181.63 143.58 C 182.43 143.25 182.81 142.34 182.48 141.54 L 182.09 140.62 C 181.76 139.82 180.85 139.44 180.05 139.77 C 179.26 140.10 178.88 141.02 179.21 141.81 Z M 179.55 142.63 L 179.86 143.56 C 180.14 144.38 181.02 144.82 181.84 144.55 C 182.66 144.28 183.10 143.39 182.83 142.57 L 182.51 141.64 C 182.24 140.83 181.36 140.38 180.54 140.66 C 179.72 140.93 179.28 141.82 179.55 142.63 Z M 179.83 143.45 L 180.07 144.41 C 180.29 145.25 181.13 145.75 181.97 145.54 C 182.81 145.33 183.31 144.48 183.10 143.64 L 182.86 142.69 C 182.65 141.85 181.80 141.34 180.96 141.55 C 180.13 141.77 179.62 142.62 179.83 143.45 Z M 180.05 144.29 L 180.22 145.30 C 180.37 146.14 181.17 146.72 182.02 146.57 C 182.87 146.42 183.44 145.62 183.30 144.77 L 183.13 143.76 C 182.98 142.91 182.17 142.34 181.32 142.49 C 180.47 142.63 179.90 143.44 180.05 144.29 Z M 180.21 145.18 L 180.30 146.15 C 180.38 147.01 181.15 147.63 182.00 147.55 C 182.86 147.47 183.49 146.70 183.41 145.85 L 183.31 144.88 C 183.23 144.02 182.47 143.39 181.61 143.48 C 180.75 143.56 180.12 144.32 180.21 145.18 Z M 180.29 146.04 L 180.32 147.02 C 180.35 147.89 181.07 148.56 181.93 148.54 C 182.79 148.51 183.47 147.79 183.44 146.93 L 183.41 145.95 C 183.39 145.09 182.67 144.41 181.81 144.44 C 180.95 144.46 180.27 145.18 180.29 146.04 Z M 180.32 146.92 L 180.28 147.93 C 180.25 148.79 180.92 149.52 181.78 149.55 C 182.64 149.59 183.37 148.92 183.40 148.05 L 183.44 147.04 C 183.48 146.18 182.80 145.45 181.94 145.42 C 181.08 145.38 180.36 146.06 180.32 146.92 Z M 180.29 147.83 L 180.18 148.86 C 180.09 149.72 180.71 150.49 181.56 150.58 C 182.42 150.67 183.19 150.05 183.28 149.20 L 183.40 148.16 C 183.49 147.30 182.87 146.53 182.01 146.44 C 181.15 146.35 180.38 146.97 180.29 147.83 Z M 180.19 148.76 L 180.02 149.74 C 179.87 150.59 180.44 151.40 181.29 151.54 C 182.14 151.69 182.95 151.12 183.10 150.28 L 183.27 149.30 C 183.42 148.45 182.85 147.64 182.00 147.49 C 181.15 147.34 180.34 147.91 180.19 148.76 Z M 180.04 149.66 L 179.81 150.64 C 179.62 151.48 180.15 152.32 180.99 152.51 C 181.83 152.70 182.67 152.18 182.86 151.34 L 183.08 150.35 C 183.27 149.51 182.75 148.68 181.91 148.48 C 181.07 148.29 180.23 148.82 180.04 149.66 Z M 179.83 150.58 L 179.57 151.55 C 179.34 152.38 179.83 153.24 180.66 153.47 C 181.49 153.69 182.35 153.20 182.58 152.37 L 182.84 151.40 C 183.07 150.57 182.58 149.71 181.75 149.48 C 180.92 149.26 180.06 149.75 179.83 150.58 Z M 179.58 151.50 L 179.29 152.45 C 179.03 153.27 179.49 154.15 180.32 154.40 C 181.14 154.66 182.02 154.19 182.27 153.37 L 182.56 152.42 C 182.82 151.60 182.36 150.72 181.53 150.47 C 180.71 150.21 179.83 150.68 179.58 151.50 Z M 179.30 152.41 L 178.98 153.36 C 178.71 154.18 179.15 155.06 179.96 155.34 C 180.78 155.61 181.67 155.17 181.94 154.35 L 182.26 153.41 C 182.53 152.59 182.09 151.70 181.27 151.43 C 180.46 151.16 179.57 151.60 179.30 152.41 Z M 178.99 153.35 L 178.66 154.28 C 178.38 155.10 178.81 155.98 179.62 156.27 C 180.44 156.55 181.33 156.12 181.61 155.30 L 181.94 154.37 C 182.22 153.56 181.79 152.67 180.97 152.38 C 180.16 152.10 179.27 152.53 178.99 153.35 Z M 178.66 154.29 L 178.34 155.23 C 178.06 156.05 178.49 156.93 179.31 157.21 C 180.12 157.49 181.01 157.06 181.29 156.24 L 181.61 155.30 C 181.89 154.48 181.46 153.59 180.64 153.32 C 179.83 153.04 178.94 153.47 178.66 154.29 Z M 178.33 155.26 L 178.02 156.22 C 177.76 157.04 178.21 157.92 179.03 158.18 C 179.85 158.44 180.73 157.99 180.99 157.17 L 181.30 156.21 C 181.56 155.39 181.11 154.51 180.29 154.25 C 179.47 153.99 178.59 154.44 178.33 155.26 Z M 178.01 156.25 L 177.73 157.20 C 177.49 158.03 177.96 158.89 178.79 159.14 C 179.62 159.38 180.49 158.91 180.73 158.08 L 181.01 157.13 C 181.25 156.30 180.77 155.44 179.95 155.19 C 179.12 154.95 178.25 155.42 178.01 156.25 Z M 177.72 157.23 L 177.46 158.20 C 177.23 159.03 177.72 159.89 178.55 160.11 C 179.38 160.34 180.24 159.85 180.47 159.02 L 180.74 158.05 C 180.96 157.22 180.47 156.36 179.64 156.13 C 178.81 155.91 177.95 156.40 177.72 157.23 Z M 177.45 158.21 L 177.20 159.19 C 176.98 160.03 177.48 160.88 178.31 161.10 C 179.15 161.32 180.00 160.82 180.22 159.98 L 180.47 159.00 C 180.69 158.17 180.19 157.32 179.36 157.10 C 178.52 156.88 177.67 157.38 177.45 158.21 Z M 177.20 159.20 L 176.95 160.19 C 176.73 161.02 177.24 161.87 178.08 162.08 C 178.91 162.30 179.76 161.79 179.97 160.96 L 180.22 159.97 C 180.43 159.14 179.93 158.29 179.09 158.07 C 178.26 157.86 177.41 158.37 177.20 159.20 Z M 176.95 160.18 L 176.69 161.19 C 176.47 162.02 176.98 162.87 177.81 163.09 C 178.65 163.30 179.50 162.80 179.71 161.97 L 179.97 160.96 C 180.19 160.13 179.68 159.27 178.85 159.06 C 178.01 158.84 177.16 159.35 176.95 160.18 Z M 176.70 161.15 L 176.42 162.12 C 176.19 162.95 176.66 163.81 177.49 164.05 C 178.32 164.28 179.19 163.80 179.42 162.98 L 179.70 162.00 C 179.94 161.18 179.46 160.31 178.63 160.07 C 177.80 159.84 176.94 160.32 176.70 161.15 Z M 176.45 162.04 L 176.13 162.96 C 175.85 163.78 176.28 164.67 177.10 164.95 C 177.91 165.23 178.80 164.79 179.08 163.98 L 179.40 163.05 C 179.68 162.24 179.25 161.35 178.43 161.07 C 177.62 160.79 176.73 161.22 176.45 162.04 Z M 176.18 162.84 L 175.79 163.71 C 175.44 164.50 175.80 165.42 176.59 165.77 C 177.38 166.12 178.30 165.76 178.65 164.97 L 179.03 164.10 C 179.38 163.31 179.02 162.39 178.24 162.04 C 177.45 161.69 176.53 162.05 176.18 162.84 Z M 175.87 163.56 L 175.39 164.39 C 174.95 165.13 175.20 166.09 175.95 166.52 C 176.69 166.96 177.65 166.70 178.08 165.96 L 178.57 165.13 C 179.00 164.39 178.75 163.43 178.01 162.99 C 177.26 162.56 176.31 162.81 175.87 163.56 Z M 175.49 164.23 L 174.90 165.00 C 174.38 165.69 174.51 166.67 175.20 167.19 C 175.88 167.71 176.86 167.58 177.39 166.90 L 177.98 166.12 C 178.50 165.43 178.37 164.45 177.68 163.93 C 177.00 163.41 176.02 163.54 175.49 164.23 Z M 175.02 164.86 L 174.30 165.61 C 173.70 166.23 173.72 167.21 174.34 167.81 C 174.96 168.41 175.95 168.40 176.55 167.78 L 177.27 167.03 C 177.87 166.41 177.85 165.43 177.23 164.83 C 176.61 164.23 175.62 164.24 175.02 164.86 Z M 174.41 165.50 L 173.66 166.15 C 173.00 166.71 172.92 167.69 173.48 168.35 C 174.04 169.00 175.03 169.08 175.68 168.52 L 176.44 167.88 C 177.10 167.32 177.17 166.33 176.61 165.68 C 176.06 165.02 175.07 164.94 174.41 165.50 Z M 173.74 166.08 L 172.96 166.66 C 172.27 167.17 172.13 168.15 172.64 168.84 C 173.16 169.54 174.14 169.68 174.83 169.16 L 175.60 168.59 C 176.30 168.07 176.44 167.09 175.92 166.40 C 175.41 165.71 174.43 165.57 173.74 166.08 Z M 173.02 166.62 L 172.19 167.19 C 171.47 167.67 171.29 168.64 171.77 169.35 C 172.25 170.07 173.22 170.25 173.94 169.77 L 174.77 169.20 C 175.49 168.72 175.67 167.75 175.19 167.03 C 174.71 166.32 173.73 166.14 173.02 166.62 Z M 172.23 167.16 L 171.35 167.71 C 170.63 168.18 170.41 169.14 170.87 169.87 C 171.33 170.60 172.30 170.81 173.03 170.35 L 173.90 169.80 C 174.63 169.33 174.84 168.37 174.38 167.64 C 173.92 166.91 172.95 166.70 172.23 167.16 Z M 171.38 167.70 L 170.49 168.24 C 169.76 168.68 169.52 169.65 169.97 170.38 C 170.42 171.12 171.38 171.35 172.12 170.90 L 173.00 170.37 C 173.74 169.92 173.97 168.96 173.52 168.22 C 173.08 167.48 172.11 167.25 171.38 167.70 Z M 170.51 168.23 L 169.58 168.78 C 168.84 169.22 168.60 170.18 169.04 170.92 C 169.48 171.66 170.44 171.90 171.18 171.46 L 172.10 170.91 C 172.84 170.47 173.09 169.51 172.65 168.77 C 172.21 168.03 171.25 167.79 170.51 168.23 Z M 169.59 168.77 L 168.69 169.30 C 167.95 169.74 167.70 170.70 168.13 171.44 C 168.57 172.18 169.53 172.43 170.27 171.99 L 171.17 171.47 C 171.91 171.03 172.16 170.07 171.73 169.33 C 171.29 168.59 170.33 168.34 169.59 168.77 Z M 168.69 169.30 L 167.83 169.81 C 167.09 170.25 166.84 171.20 167.27 171.95 C 167.71 172.69 168.67 172.94 169.41 172.50 L 170.27 171.99 C 171.01 171.56 171.26 170.60 170.83 169.86 C 170.39 169.11 169.43 168.87 168.69 169.30 Z M 167.82 169.81 L 167.02 170.29 C 166.28 170.73 166.03 171.69 166.47 172.43 C 166.92 173.17 167.87 173.42 168.61 172.97 L 169.42 172.50 C 170.16 172.05 170.40 171.10 169.96 170.36 C 169.52 169.61 168.56 169.37 167.82 169.81 Z M 167.00 170.30 L 166.16 170.82 C 165.42 171.27 165.19 172.23 165.65 172.97 C 166.10 173.70 167.06 173.93 167.79 173.48 L 168.63 172.96 C 169.37 172.51 169.60 171.55 169.15 170.82 C 168.69 170.08 167.73 169.85 167.00 170.30 Z M 166.13 170.84 L 165.29 171.38 C 164.56 171.84 164.35 172.81 164.82 173.54 C 165.29 174.26 166.25 174.47 166.98 174.01 L 167.82 173.46 C 168.54 173.00 168.76 172.03 168.29 171.31 C 167.82 170.58 166.86 170.37 166.13 170.84 Z M 165.27 171.39 L 164.46 171.93 C 163.74 172.41 163.55 173.38 164.03 174.09 C 164.51 174.81 165.48 175.01 166.19 174.53 L 167.00 173.99 C 167.72 173.51 167.91 172.54 167.43 171.83 C 166.95 171.11 165.99 170.91 165.27 171.39 Z M 164.45 171.94 L 163.63 172.49 C 162.92 172.98 162.73 173.95 163.22 174.66 C 163.70 175.37 164.67 175.56 165.39 175.07 L 166.20 174.52 C 166.92 174.04 167.10 173.06 166.62 172.35 C 166.13 171.64 165.16 171.45 164.45 171.94 Z M 163.63 172.49 L 162.82 173.05 C 162.11 173.54 161.92 174.51 162.41 175.22 C 162.90 175.93 163.87 176.11 164.58 175.63 L 165.39 175.07 C 166.10 174.59 166.29 173.61 165.80 172.90 C 165.31 172.19 164.34 172.01 163.63 172.49 Z M 162.81 173.05 L 161.97 173.63 C 161.27 174.12 161.09 175.09 161.58 175.80 C 162.07 176.51 163.04 176.69 163.75 176.20 L 164.59 175.62 C 165.29 175.13 165.47 174.16 164.98 173.45 C 164.49 172.74 163.52 172.56 162.81 173.05 Z M 161.96 173.64 L 161.13 174.22 C 160.43 174.72 160.26 175.69 160.76 176.40 C 161.25 177.10 162.23 177.27 162.93 176.78 L 163.76 176.19 C 164.47 175.70 164.63 174.72 164.14 174.02 C 163.64 173.31 162.67 173.14 161.96 173.64 Z M 161.12 174.24 L 160.30 174.83 C 159.60 175.34 159.45 176.31 159.95 177.01 C 160.46 177.71 161.44 177.86 162.13 177.36 L 162.95 176.76 C 163.65 176.26 163.80 175.28 163.30 174.58 C 162.79 173.88 161.81 173.73 161.12 174.24 Z M 160.27 174.85 L 159.47 175.46 C 158.78 175.98 158.64 176.96 159.17 177.65 C 159.69 178.33 160.67 178.47 161.35 177.95 L 162.16 177.34 C 162.85 176.82 162.98 175.84 162.46 175.15 C 161.94 174.46 160.96 174.33 160.27 174.85 Z M 159.44 175.48 L 158.67 176.09 C 157.99 176.63 157.88 177.61 158.42 178.29 C 158.95 178.96 159.93 179.07 160.61 178.54 L 161.38 177.93 C 162.05 177.39 162.17 176.41 161.63 175.73 C 161.10 175.06 160.11 174.95 159.44 175.48 Z M 158.64 176.11 L 157.88 176.74 C 157.22 177.29 157.13 178.28 157.68 178.94 C 158.23 179.60 159.21 179.70 159.88 179.15 L 160.63 178.52 C 161.30 177.97 161.39 176.98 160.84 176.32 C 160.29 175.66 159.31 175.56 158.64 176.11 Z M 157.86 176.76 L 157.12 177.40 C 156.47 177.97 156.39 178.95 156.96 179.60 C 157.52 180.26 158.51 180.33 159.16 179.77 L 159.90 179.13 C 160.55 178.56 160.62 177.58 160.06 176.92 C 159.50 176.27 158.51 176.20 157.86 176.76 Z M 157.09 177.43 L 156.35 178.10 C 155.71 178.68 155.66 179.67 156.24 180.31 C 156.82 180.94 157.81 180.99 158.45 180.41 L 159.19 179.74 C 159.83 179.16 159.87 178.17 159.29 177.54 C 158.71 176.90 157.73 176.85 157.09 177.43 Z M 156.31 178.13 L 155.59 178.84 C 154.97 179.44 154.95 180.43 155.55 181.05 C 156.15 181.67 157.14 181.68 157.76 181.08 L 158.48 180.38 C 159.10 179.78 159.12 178.79 158.52 178.17 C 157.92 177.55 156.93 177.54 156.31 178.13 Z M 155.54 178.88 L 154.84 179.62 C 154.24 180.24 154.27 181.23 154.89 181.82 C 155.52 182.42 156.50 182.40 157.10 181.77 L 157.80 181.04 C 158.40 180.41 158.37 179.43 157.75 178.83 C 157.13 178.24 156.14 178.26 155.54 178.88 Z M 154.80 179.66 L 154.13 180.42 C 153.56 181.07 153.62 182.05 154.27 182.62 C 154.91 183.20 155.90 183.13 156.47 182.49 L 157.14 181.73 C 157.71 181.08 157.65 180.10 157.00 179.53 C 156.36 178.95 155.37 179.02 154.80 179.66 Z M 154.10 180.45 L 153.46 181.22 C 152.91 181.88 152.99 182.87 153.66 183.42 C 154.32 183.97 155.30 183.88 155.86 183.22 L 156.50 182.46 C 157.05 181.79 156.96 180.81 156.30 180.26 C 155.64 179.70 154.65 179.79 154.10 180.45 Z M 153.44 181.24 L 152.83 182.00 C 152.29 182.68 152.39 183.66 153.06 184.20 C 153.73 184.74 154.72 184.64 155.26 183.97 L 155.87 183.20 C 156.41 182.53 156.31 181.55 155.64 181.01 C 154.97 180.47 153.98 180.57 153.44 181.24 Z M 152.82 182.01 L 152.18 182.81 C 151.65 183.49 151.76 184.47 152.43 185.01 C 153.11 185.54 154.09 185.43 154.63 184.76 L 155.26 183.96 C 155.80 183.28 155.69 182.30 155.01 181.76 C 154.34 181.23 153.36 181.34 152.82 182.01 Z M 152.19 182.80 L 151.56 183.58 C 151.02 184.25 151.13 185.23 151.80 185.78 C 152.47 186.32 153.45 186.21 153.99 185.54 L 154.62 184.77 C 155.16 184.10 155.06 183.11 154.39 182.57 C 153.71 182.03 152.73 182.13 152.19 182.80 Z M 151.58 183.56 L 150.95 184.31 C 150.39 184.97 150.48 185.95 151.14 186.51 C 151.80 187.06 152.78 186.98 153.34 186.32 L 153.97 185.57 C 154.53 184.91 154.44 183.92 153.78 183.37 C 153.12 182.81 152.14 182.90 151.58 183.56 Z M 150.98 184.27 L 150.30 185.03 C 149.73 185.67 149.78 186.66 150.43 187.23 C 151.07 187.81 152.06 187.75 152.63 187.11 L 153.31 186.36 C 153.88 185.71 153.83 184.73 153.18 184.15 C 152.54 183.58 151.56 183.63 150.98 184.27 Z M 150.29 185.04 L 149.63 185.80 C 149.06 186.46 149.13 187.44 149.78 188.01 C 150.43 188.57 151.42 188.51 151.98 187.86 L 152.65 187.09 C 153.21 186.44 153.14 185.46 152.49 184.89 C 151.84 184.32 150.86 184.39 150.29 185.04 Z M 149.53 185.92 L 148.96 186.72 C 148.46 187.42 148.62 188.39 149.32 188.90 C 150.03 189.40 151.00 189.24 151.50 188.54 L 152.07 187.74 C 152.58 187.04 152.41 186.06 151.71 185.56 C 151.01 185.06 150.04 185.22 149.53 185.92 Z M 148.82 186.96 L 148.42 187.81 C 148.05 188.59 148.38 189.52 149.16 189.89 C 149.94 190.26 150.87 189.93 151.24 189.15 L 151.64 188.29 C 152.01 187.52 151.68 186.58 150.90 186.22 C 150.12 185.85 149.19 186.18 148.82 186.96 Z M 148.32 188.08 L 148.08 189.01 C 147.86 189.85 148.36 190.70 149.19 190.92 C 150.02 191.14 150.88 190.64 151.10 189.81 L 151.34 188.88 C 151.56 188.04 151.06 187.19 150.23 186.97 C 149.39 186.75 148.54 187.25 148.32 188.08 Z M 148.04 189.21 L 147.90 190.22 C 147.79 191.08 148.40 191.86 149.25 191.97 C 150.11 192.09 150.89 191.48 151.00 190.63 L 151.13 189.61 C 151.24 188.76 150.64 187.97 149.79 187.86 C 148.93 187.75 148.15 188.35 148.04 189.21 Z M 147.89 190.33 L 147.83 191.36 C 147.78 192.22 148.43 192.96 149.29 193.02 C 150.15 193.07 150.89 192.42 150.95 191.55 L 151.01 190.52 C 151.06 189.66 150.41 188.92 149.55 188.87 C 148.69 188.82 147.95 189.47 147.89 190.33 Z M 147.83 191.41 L 147.80 192.41 C 147.77 193.27 148.45 193.99 149.31 194.02 C 150.17 194.04 150.89 193.37 150.92 192.51 L 150.95 191.51 C 150.98 190.64 150.30 189.92 149.44 189.90 C 148.57 189.87 147.85 190.55 147.83 191.41 Z M 147.80 192.44 L 147.79 193.46 C 147.78 194.32 148.47 195.03 149.33 195.04 C 150.19 195.05 150.90 194.36 150.91 193.50 L 150.92 192.48 C 150.93 191.62 150.24 190.91 149.38 190.90 C 148.52 190.89 147.81 191.58 147.80 192.44 Z M 147.79 193.47 L 147.78 194.47 C 147.78 195.34 148.48 196.04 149.34 196.04 C 150.20 196.04 150.90 195.34 150.91 194.48 L 150.91 193.48 C 150.91 192.62 150.21 191.92 149.35 191.91 C 148.49 191.91 147.79 192.61 147.79 193.47 Z M 147.78 194.48 L 147.78 195.51 C 147.78 196.37 148.48 197.07 149.34 197.07 C 150.21 197.07 150.91 196.37 150.91 195.51 L 150.91 194.48 C 150.91 193.62 150.21 192.92 149.34 192.92 C 148.48 192.92 147.78 193.62 147.78 194.48 Z M 147.78 195.51 L 147.78 196.51 C 147.78 197.37 148.48 198.07 149.34 198.07 C 150.21 198.07 150.91 197.37 150.91 196.51 L 150.91 195.51 C 150.91 194.65 150.21 193.95 149.34 193.95 C 148.48 193.95 147.78 194.65 147.78 195.51 Z M 147.78 196.51 L 147.78 197.49 C 147.78 198.35 148.48 199.05 149.34 199.05 C 150.21 199.05 150.91 198.35 150.91 197.49 L 150.91 196.51 C 150.91 195.65 150.21 194.95 149.34 194.95 C 148.48 194.95 147.78 195.65 147.78 196.51 Z M 147.78 197.49 L 147.78 198.47 C 147.78 199.33 148.48 200.03 149.34 200.03 C 150.21 200.03 150.91 199.33 150.91 198.47 L 150.91 197.49 C 150.91 196.63 150.21 195.93 149.34 195.93 C 148.48 195.93 147.78 196.63 147.78 197.49 Z M 147.78 198.47 L 147.78 199.46 C 147.78 200.33 148.48 201.03 149.34 201.03 C 150.21 201.03 150.91 200.33 150.91 199.46 L 150.91 198.47 C 150.91 197.61 150.21 196.91 149.34 196.91 C 148.48 196.91 147.78 197.61 147.78 198.47 Z M 147.78 199.46 L 147.78 200.47 C 147.78 201.33 148.48 202.03 149.34 202.03 C 150.21 202.03 150.91 201.33 150.91 200.47 L 150.91 199.46 C 150.91 198.60 150.21 197.90 149.34 197.90 C 148.48 197.90 147.78 198.60 147.78 199.46 Z M 147.78 200.47 L 147.78 201.48 C 147.78 202.34 148.48 203.04 149.34 203.04 C 150.21 203.04 150.91 202.34 150.91 201.48 L 150.91 200.47 C 150.91 199.60 150.21 198.91 149.34 198.91 C 148.48 198.91 147.78 199.60 147.78 200.47 Z M 147.78 201.47 L 147.78 202.49 C 147.78 203.36 148.47 204.06 149.34 204.06 C 150.20 204.06 150.90 203.37 150.90 202.50 L 150.91 201.48 C 150.91 200.62 150.21 199.92 149.35 199.92 C 148.49 199.91 147.79 200.61 147.78 201.47 Z M 147.78 202.47 L 147.76 203.48 C 147.75 204.34 148.44 205.05 149.30 205.07 C 150.16 205.08 150.87 204.39 150.89 203.53 L 150.90 202.53 C 150.92 201.66 150.23 200.95 149.37 200.94 C 148.50 200.92 147.79 201.61 147.78 202.47 Z M 147.76 203.44 L 147.72 204.41 C 147.68 205.27 148.35 206.00 149.21 206.03 C 150.08 206.07 150.80 205.40 150.84 204.54 L 150.88 203.57 C 150.92 202.71 150.25 201.98 149.39 201.94 C 148.53 201.91 147.80 202.57 147.76 203.44 Z M 147.73 204.34 L 147.64 205.36 C 147.57 206.22 148.20 206.98 149.06 207.05 C 149.92 207.13 150.68 206.49 150.75 205.63 L 150.84 204.61 C 150.91 203.75 150.27 202.99 149.41 202.92 C 148.56 202.85 147.80 203.48 147.73 204.34 Z M 147.65 205.31 L 147.52 206.29 C 147.42 207.15 148.03 207.93 148.89 208.03 C 149.74 208.14 150.52 207.53 150.62 206.67 L 150.74 205.69 C 150.85 204.83 150.24 204.05 149.38 203.95 C 148.53 203.84 147.75 204.45 147.65 205.31 Z M 147.53 206.27 L 147.40 207.19 C 147.28 208.05 147.87 208.84 148.72 208.96 C 149.58 209.08 150.37 208.48 150.49 207.63 L 150.62 206.70 C 150.74 205.85 150.15 205.06 149.29 204.94 C 148.44 204.82 147.65 205.41 147.53 206.27 Z"
      fill="black"
      fill-rule="nonzero" /><path d="M 147.17 240.16 L 147.03 239.13 C 146.91 238.27 146.12 237.68 145.27 237.80 C 144.41 237.92 143.82 238.70 143.94 239.56 L 144.08 240.59 C 144.20 241.44 144.99 242.04 145.84 241.92 C 146.70 241.80 147.29 241.01 147.17 240.16 Z M 147.04 239.21 L 146.95 238.20 C 146.88 237.34 146.12 236.71 145.26 236.78 C 144.40 236.85 143.77 237.61 143.84 238.47 L 143.93 239.48 C 144.00 240.33 144.76 240.97 145.62 240.90 C 146.48 240.82 147.11 240.07 147.04 239.21 Z M 146.96 238.38 L 146.99 237.42 C 147.01 236.55 146.33 235.83 145.47 235.81 C 144.61 235.78 143.89 236.46 143.87 237.32 L 143.84 238.29 C 143.81 239.15 144.49 239.87 145.35 239.90 C 146.21 239.92 146.93 239.24 146.96 238.38 Z M 146.94 237.75 L 147.23 236.61 C 147.44 235.77 146.93 234.92 146.10 234.71 C 145.26 234.50 144.41 235.01 144.20 235.85 L 143.91 236.99 C 143.70 237.82 144.21 238.67 145.04 238.88 C 145.88 239.09 146.73 238.59 146.94 237.75 Z M 146.94 237.19 L 147.49 236.49 C 148.03 235.81 147.91 234.83 147.23 234.29 C 146.55 233.76 145.57 233.88 145.03 234.56 L 144.48 235.27 C 143.95 235.94 144.07 236.93 144.75 237.46 C 145.43 237.99 146.41 237.87 146.94 237.19 Z M 145.41 236.83 L 145.89 237.14 C 146.61 237.61 147.58 237.41 148.05 236.69 C 148.52 235.97 148.32 235.00 147.59 234.53 L 147.12 234.22 C 146.40 233.74 145.43 233.95 144.96 234.67 C 144.49 235.39 144.69 236.36 145.41 236.83 Z M 145.26 236.34 L 145.54 237.14 C 145.82 237.96 146.71 238.39 147.53 238.11 C 148.34 237.83 148.77 236.94 148.49 236.12 L 148.22 235.32 C 147.93 234.51 147.04 234.08 146.23 234.36 C 145.41 234.64 144.98 235.53 145.26 236.34 Z M 145.48 236.90 L 145.66 237.98 C 145.81 238.83 146.62 239.40 147.47 239.26 C 148.32 239.11 148.89 238.30 148.74 237.45 L 148.55 236.37 C 148.41 235.52 147.60 234.95 146.75 235.09 C 145.90 235.24 145.33 236.05 145.48 236.90 Z M 145.64 237.81 L 145.71 238.98 C 145.76 239.84 146.50 240.49 147.36 240.44 C 148.22 240.39 148.88 239.65 148.83 238.79 L 148.76 237.63 C 148.71 236.77 147.97 236.11 147.11 236.16 C 146.25 236.21 145.59 236.95 145.64 237.81 Z M 145.72 238.74 L 145.59 240.07 C 145.51 240.93 146.14 241.69 147.00 241.77 C 147.86 241.85 148.62 241.22 148.70 240.36 L 148.82 239.03 C 148.91 238.17 148.27 237.41 147.42 237.33 C 146.56 237.25 145.80 237.88 145.72 238.74 Z M 145.68 239.69 L 145.32 240.69 C 145.03 241.50 145.46 242.39 146.27 242.68 C 147.08 242.97 147.97 242.55 148.26 241.73 L 148.62 240.74 C 148.91 239.92 148.48 239.03 147.67 238.74 C 146.86 238.45 145.96 238.88 145.68 239.69 Z M 145.91 239.92 L 145.47 240.22 C 144.76 240.71 144.57 241.68 145.06 242.39 C 145.55 243.10 146.52 243.29 147.23 242.80 L 147.67 242.50 C 148.38 242.01 148.57 241.04 148.08 240.33 C 147.60 239.62 146.62 239.43 145.91 239.92 Z M 147.58 240.55 L 147.15 239.99 C 146.62 239.31 145.64 239.19 144.96 239.72 C 144.28 240.25 144.15 241.23 144.68 241.91 L 145.12 242.47 C 145.65 243.15 146.63 243.27 147.31 242.74 C 147.99 242.21 148.11 241.23 147.58 240.55 Z M 147.42 240.53 L 147.10 239.39 C 146.86 238.56 146.00 238.08 145.17 238.31 C 144.34 238.55 143.86 239.41 144.09 240.24 L 144.41 241.38 C 144.65 242.21 145.51 242.69 146.34 242.46 C 147.17 242.22 147.65 241.36 147.42 240.53 Z M 147.14 239.60 L 146.99 238.53 C 146.87 237.67 146.08 237.08 145.23 237.20 C 144.38 237.32 143.78 238.10 143.90 238.96 L 144.05 240.03 C 144.17 240.89 144.96 241.48 145.81 241.36 C 146.66 241.24 147.26 240.46 147.14 239.60 Z M 147.00 238.68 L 146.96 237.68 C 146.92 236.82 146.20 236.15 145.33 236.19 C 144.47 236.23 143.80 236.96 143.84 237.82 L 143.89 238.81 C 143.92 239.67 144.65 240.34 145.51 240.30 C 146.37 240.27 147.04 239.54 147.00 238.68 Z M 146.96 237.80 L 147.00 236.80 C 147.02 235.94 146.35 235.22 145.49 235.19 C 144.63 235.16 143.90 235.83 143.87 236.70 L 143.84 237.70 C 143.81 238.56 144.49 239.28 145.35 239.31 C 146.21 239.34 146.93 238.66 146.96 237.80 Z M 146.99 236.91 L 147.11 235.74 C 147.20 234.89 146.57 234.12 145.72 234.03 C 144.86 233.94 144.09 234.56 144.00 235.42 L 143.88 236.59 C 143.79 237.44 144.42 238.21 145.27 238.30 C 146.13 238.39 146.90 237.77 146.99 236.91 Z M 147.07 235.97 L 147.33 234.95 C 147.55 234.11 147.04 233.26 146.21 233.05 C 145.37 232.83 144.52 233.33 144.31 234.17 L 144.04 235.19 C 143.83 236.03 144.33 236.88 145.17 237.09 C 146.00 237.31 146.85 236.81 147.07 235.97 Z M 146.83 235.75 L 147.30 235.35 C 147.95 234.79 148.03 233.81 147.48 233.15 C 146.92 232.49 145.93 232.41 145.28 232.97 L 144.81 233.37 C 144.15 233.93 144.07 234.91 144.63 235.57 C 145.19 236.23 146.17 236.31 146.83 235.75 Z M 145.43 235.47 L 146.09 235.90 C 146.82 236.37 147.78 236.16 148.25 235.44 C 148.72 234.72 148.52 233.75 147.80 233.28 L 147.14 232.85 C 146.42 232.38 145.45 232.59 144.98 233.31 C 144.51 234.03 144.71 235.00 145.43 235.47 Z M 145.63 235.43 L 146.26 236.42 C 146.73 237.14 147.70 237.35 148.42 236.89 C 149.15 236.42 149.36 235.46 148.89 234.73 L 148.26 233.75 C 147.79 233.02 146.83 232.81 146.10 233.28 C 145.38 233.74 145.17 234.71 145.63 235.43 Z M 146.09 236.03 L 146.46 237.26 C 146.72 238.08 147.59 238.54 148.41 238.29 C 149.24 238.03 149.70 237.16 149.45 236.33 L 149.07 235.11 C 148.82 234.29 147.94 233.83 147.12 234.08 C 146.29 234.34 145.83 235.21 146.09 236.03 Z M 146.40 236.65 L 146.31 237.54 C 146.23 238.40 146.86 239.16 147.72 239.24 C 148.58 239.32 149.34 238.69 149.42 237.84 L 149.51 236.94 C 149.59 236.09 148.96 235.32 148.10 235.24 C 147.24 235.16 146.48 235.79 146.40 236.65 Z M 147.78 236.13 L 147.26 236.16 C 146.40 236.21 145.74 236.95 145.79 237.81 C 145.84 238.67 146.58 239.33 147.44 239.28 L 147.96 239.25 C 148.82 239.20 149.48 238.46 149.43 237.60 C 149.38 236.74 148.64 236.08 147.78 236.13 Z M 148.28 236.46 L 147.70 236.03 C 147.01 235.52 146.03 235.67 145.52 236.36 C 145.01 237.05 145.15 238.03 145.84 238.54 L 146.42 238.97 C 147.12 239.49 148.09 239.34 148.61 238.65 C 149.12 237.95 148.97 236.98 148.28 236.46 Z M 147.86 236.17 L 147.14 235.47 C 146.53 234.87 145.54 234.88 144.94 235.50 C 144.33 236.11 144.35 237.10 144.96 237.71 L 145.68 238.41 C 146.30 239.01 147.29 239.00 147.89 238.38 C 148.49 237.76 148.48 236.77 147.86 236.17 Z M 147.20 235.53 L 146.39 234.65 C 145.81 234.02 144.82 233.98 144.19 234.56 C 143.55 235.14 143.51 236.13 144.10 236.77 L 144.91 237.65 C 145.49 238.28 146.48 238.32 147.11 237.74 C 147.75 237.15 147.79 236.17 147.20 235.53 Z M 146.41 234.67 L 145.63 233.79 C 145.06 233.14 144.07 233.08 143.43 233.65 C 142.78 234.23 142.72 235.21 143.29 235.86 L 144.07 236.74 C 144.65 237.39 145.63 237.45 146.28 236.88 C 146.92 236.31 146.98 235.32 146.41 234.67 Z"
      fill="black"
      fill-rule="nonzero" /></svg>