<svg xmlns="http://www.w3.org/2000/svg" width="300" height="300" viewBox="0 0 300 300">
<path d="M 148.38 161.41 L 148.26 160.40 C 148.16 159.55 147.38 158.94 146.53 159.04 C 145.67 159.14 145.06 159.92 145.16 160.77 L 145.28 161.78 C 145.38 162.64 146.16 163.25 147.01 163.15 C 147.87 163.05 148.48 162.27 148.38 161.41 Z M 148.27 160.47 L 148.19 159.47 C 148.12 158.61 147.37 157.97 146.51 158.03 C 145.65 158.10 145.01 158.85 145.08 159.71 L 145.15 160.71 C 145.22 161.57 145.97 162.21 146.83 162.15 C 147.69 162.08 148.33 161.33 148.27 160.47 Z M 148.19 159.60 L 148.20 158.62 C 148.21 157.76 147.52 157.05 146.66 157.05 C 145.80 157.04 145.09 157.73 145.08 158.59 L 145.07 159.57 C 145.06 160.44 145.76 161.14 146.62 161.15 C 147.48 161.16 148.19 160.47 148.19 159.60 Z M 148.18 158.86 L 148.37 157.69 C 148.51 156.84 147.94 156.04 147.09 155.90 C 146.24 155.76 145.43 156.34 145.29 157.19 L 145.10 158.35 C 144.96 159.20 145.54 160.01 146.39 160.15 C 147.24 160.29 148.04 159.71 148.18 158.86 Z M 148.24 158.12 L 148.65 157.27 C 149.03 156.49 148.71 155.56 147.93 155.18 C 147.15 154.80 146.22 155.13 145.84 155.90 L 145.43 156.76 C 145.05 157.54 145.38 158.47 146.15 158.85 C 146.93 159.22 147.86 158.90 148.24 158.12 Z M 147.64 158.10 L 148.25 157.94 C 149.09 157.72 149.59 156.87 149.37 156.04 C 149.16 155.20 148.30 154.70 147.47 154.92 L 146.86 155.07 C 146.02 155.29 145.52 156.14 145.74 156.98 C 145.95 157.81 146.81 158.31 147.64 158.10 Z M 146.84 157.61 L 147.53 158.20 C 148.18 158.76 149.17 158.68 149.73 158.03 C 150.29 157.37 150.21 156.39 149.56 155.83 L 148.88 155.24 C 148.22 154.68 147.24 154.76 146.68 155.41 C 146.11 156.07 146.19 157.05 146.84 157.61 Z M 147.13 157.69 L 147.65 158.77 C 148.03 159.55 148.96 159.87 149.74 159.50 C 150.51 159.13 150.84 158.20 150.47 157.42 L 149.95 156.34 C 149.58 155.56 148.64 155.23 147.87 155.60 C 147.09 155.98 146.76 156.91 147.13 157.69 Z M 147.52 158.32 L 147.67 159.34 C 147.79 160.19 148.59 160.78 149.44 160.66 C 150.29 160.53 150.88 159.74 150.76 158.89 L 150.61 157.87 C 150.48 157.01 149.69 156.42 148.83 156.55 C 147.98 156.67 147.39 157.47 147.52 158.32 Z M 147.66 158.93 L 147.54 159.94 C 147.44 160.80 148.05 161.57 148.91 161.68 C 149.76 161.78 150.54 161.17 150.64 160.31 L 150.76 159.30 C 150.86 158.44 150.25 157.67 149.39 157.56 C 148.54 157.46 147.76 158.07 147.66 158.93 Z M 147.68 159.45 L 147.27 160.31 C 146.90 161.09 147.23 162.02 148.01 162.40 C 148.78 162.77 149.72 162.44 150.09 161.66 L 150.50 160.80 C 150.87 160.02 150.54 159.09 149.76 158.72 C 148.99 158.35 148.05 158.67 147.68 159.45 Z M 147.72 159.76 L 146.95 160.36 C 146.27 160.89 146.14 161.87 146.67 162.55 C 147.20 163.23 148.18 163.35 148.86 162.82 L 149.64 162.22 C 150.32 161.69 150.44 160.71 149.91 160.03 C 149.38 159.35 148.40 159.23 147.72 159.76 Z M 147.57 160.06 L 146.59 160.28 C 145.74 160.46 145.21 161.29 145.39 162.14 C 145.58 162.98 146.41 163.51 147.25 163.33 L 148.24 163.12 C 149.08 162.93 149.61 162.10 149.43 161.26 C 149.25 160.42 148.42 159.88 147.57 160.06 Z M 147.24 160.28 L 146.29 160.08 C 145.45 159.90 144.62 160.44 144.45 161.29 C 144.27 162.13 144.81 162.96 145.66 163.14 L 146.60 163.33 C 147.44 163.51 148.27 162.97 148.45 162.12 C 148.62 161.28 148.08 160.45 147.24 160.28 Z M 147.00 160.43 L 146.32 159.84 C 145.67 159.28 144.68 159.35 144.12 160.00 C 143.55 160.65 143.62 161.64 144.27 162.20 L 144.95 162.79 C 145.60 163.35 146.59 163.28 147.15 162.63 C 147.72 161.98 147.65 160.99 147.00 160.43 Z M 146.70 160.35 L 146.28 159.47 C 145.91 158.69 144.98 158.36 144.20 158.73 C 143.42 159.10 143.09 160.04 143.47 160.81 L 143.89 161.69 C 144.26 162.47 145.19 162.80 145.97 162.43 C 146.75 162.06 147.08 161.12 146.70 160.35 Z M 146.40 159.79 L 146.16 158.75 C 145.97 157.91 145.13 157.38 144.29 157.57 C 143.45 157.76 142.92 158.60 143.12 159.44 L 143.35 160.49 C 143.54 161.33 144.38 161.85 145.22 161.66 C 146.06 161.47 146.59 160.63 146.40 159.79 Z M 146.19 158.93 L 146.08 157.89 C 145.99 157.04 145.22 156.41 144.37 156.50 C 143.51 156.59 142.89 157.36 142.98 158.22 L 143.08 159.26 C 143.17 160.12 143.94 160.74 144.80 160.65 C 145.66 160.56 146.28 159.79 146.19 158.93 Z M 146.09 158.10 L 146.12 157.09 C 146.14 156.23 145.46 155.51 144.60 155.49 C 143.74 155.46 143.02 156.14 143.00 157.00 L 142.97 158.01 C 142.94 158.87 143.62 159.59 144.49 159.62 C 145.35 159.64 146.07 158.96 146.09 158.10 Z M 146.08 157.39 L 146.29 156.45 C 146.49 155.61 145.96 154.77 145.12 154.58 C 144.28 154.39 143.44 154.92 143.25 155.76 L 143.04 156.70 C 142.84 157.54 143.37 158.38 144.21 158.57 C 145.05 158.76 145.89 158.24 146.08 157.39 Z M 146.14 156.85 L 146.61 155.99 C 147.02 155.23 146.74 154.28 145.99 153.87 C 145.23 153.46 144.28 153.74 143.87 154.50 L 143.40 155.36 C 142.99 156.12 143.27 157.06 144.03 157.48 C 144.78 157.89 145.73 157.61 146.14 156.85 Z M 146.34 156.35 L 147.05 155.65 C 147.66 155.05 147.67 154.06 147.06 153.45 C 146.45 152.83 145.47 152.83 144.85 153.43 L 144.14 154.13 C 143.53 154.74 143.52 155.73 144.13 156.34 C 144.74 156.95 145.72 156.96 146.34 156.35 Z M 146.68 155.92 L 147.56 155.46 C 148.32 155.05 148.61 154.11 148.21 153.35 C 147.81 152.58 146.86 152.29 146.10 152.70 L 145.22 153.16 C 144.46 153.57 144.17 154.51 144.57 155.27 C 144.97 156.04 145.92 156.33 146.68 155.92 Z M 147.11 155.61 L 148.05 155.44 C 148.89 155.28 149.45 154.47 149.30 153.62 C 149.14 152.77 148.33 152.21 147.48 152.37 L 146.55 152.54 C 145.70 152.70 145.14 153.51 145.29 154.36 C 145.45 155.21 146.27 155.77 147.11 155.61 Z M 147.53 155.45 L 148.46 155.59 C 149.32 155.72 150.11 155.13 150.24 154.28 C 150.37 153.42 149.78 152.63 148.93 152.50 L 147.99 152.36 C 147.14 152.23 146.35 152.82 146.22 153.67 C 146.09 154.52 146.68 155.32 147.53 155.45 Z M 147.92 155.40 L 148.80 155.90 C 149.55 156.33 150.50 156.07 150.93 155.32 C 151.36 154.57 151.10 153.62 150.35 153.19 L 149.47 152.69 C 148.72 152.26 147.77 152.52 147.34 153.27 C 146.91 154.02 147.17 154.97 147.92 155.40 Z M 148.39 155.56 L 149.08 156.37 C 149.63 157.03 150.62 157.11 151.28 156.56 C 151.94 156.00 152.02 155.01 151.46 154.36 L 150.77 153.54 C 150.21 152.88 149.23 152.80 148.57 153.36 C 147.91 153.91 147.83 154.90 148.39 155.56 Z M 148.86 156.05 L 149.33 157.00 C 149.71 157.78 150.64 158.10 151.41 157.73 C 152.19 157.35 152.51 156.42 152.14 155.64 L 151.67 154.68 C 151.30 153.91 150.36 153.58 149.59 153.96 C 148.81 154.34 148.49 155.27 148.86 156.05 Z M 149.22 156.70 L 149.47 157.72 C 149.68 158.56 150.52 159.07 151.36 158.86 C 152.20 158.66 152.71 157.81 152.50 156.97 L 152.25 155.95 C 152.04 155.11 151.20 154.60 150.36 154.81 C 149.52 155.01 149.01 155.86 149.22 156.70 Z M 149.43 157.30 L 149.40 158.24 C 149.37 159.10 150.05 159.82 150.91 159.85 C 151.77 159.87 152.49 159.20 152.52 158.34 L 152.55 157.40 C 152.57 156.53 151.90 155.81 151.04 155.79 C 150.17 155.76 149.45 156.44 149.43 157.30 Z M 149.60 157.52 L 149.18 158.26 C 148.75 159.01 149.02 159.97 149.77 160.39 C 150.52 160.81 151.47 160.55 151.90 159.80 L 152.32 159.05 C 152.74 158.30 152.47 157.35 151.72 156.93 C 150.97 156.50 150.02 156.77 149.60 157.52 Z M 149.85 157.63 L 149.00 158.05 C 148.22 158.43 147.91 159.36 148.29 160.14 C 148.67 160.91 149.60 161.23 150.38 160.85 L 151.23 160.43 C 152.00 160.05 152.32 159.11 151.94 158.34 C 151.56 157.57 150.62 157.25 149.85 157.63 Z M 149.60 157.89 L 148.56 157.95 C 147.70 158.00 147.05 158.74 147.10 159.60 C 147.14 160.46 147.88 161.12 148.74 161.07 L 149.78 161.01 C 150.64 160.96 151.29 160.22 151.25 159.36 C 151.20 158.50 150.46 157.84 149.60 157.89 Z M 149.04 157.99 L 148.07 157.75 C 147.23 157.53 146.38 158.04 146.17 158.88 C 145.96 159.71 146.46 160.56 147.30 160.77 L 148.27 161.02 C 149.10 161.23 149.95 160.73 150.17 159.89 C 150.38 159.06 149.87 158.21 149.04 157.99 Z M 148.63 158.01 L 147.83 157.41 C 147.14 156.89 146.16 157.03 145.64 157.72 C 145.12 158.41 145.26 159.39 145.95 159.91 L 146.74 160.51 C 147.43 161.03 148.41 160.89 148.93 160.20 C 149.45 159.51 149.31 158.53 148.63 158.01 Z M 148.26 157.91 L 147.80 157.06 C 147.38 156.31 146.43 156.03 145.68 156.44 C 144.92 156.86 144.64 157.81 145.06 158.56 L 145.52 159.41 C 145.93 160.17 146.88 160.44 147.64 160.03 C 148.40 159.62 148.67 158.67 148.26 157.91 Z M 147.94 157.45 L 147.71 156.47 C 147.50 155.63 146.66 155.12 145.82 155.32 C 144.98 155.52 144.47 156.37 144.67 157.20 L 144.91 158.18 C 145.11 159.02 145.96 159.53 146.80 159.33 C 147.63 159.13 148.15 158.28 147.94 157.45 Z M 147.74 156.68 L 147.64 155.69 C 147.55 154.83 146.79 154.20 145.93 154.29 C 145.07 154.38 144.45 155.14 144.54 156.00 L 144.64 157.00 C 144.72 157.85 145.49 158.48 146.35 158.39 C 147.21 158.30 147.83 157.54 147.74 156.68 Z M 147.65 155.91 L 147.69 154.91 C 147.72 154.05 147.05 153.33 146.19 153.29 C 145.33 153.26 144.60 153.93 144.57 154.79 L 144.53 155.78 C 144.49 156.64 145.16 157.37 146.03 157.40 C 146.89 157.44 147.61 156.77 147.65 155.91 Z M 147.65 155.19 L 147.87 154.21 C 148.06 153.37 147.53 152.54 146.69 152.35 C 145.85 152.16 145.01 152.69 144.83 153.53 L 144.61 154.51 C 144.42 155.35 144.94 156.18 145.79 156.37 C 146.63 156.56 147.46 156.03 147.65 155.19 Z M 147.77 154.52 L 148.19 153.60 C 148.54 152.81 148.19 151.89 147.41 151.53 C 146.62 151.18 145.70 151.53 145.34 152.31 L 144.93 153.23 C 144.57 154.01 144.92 154.94 145.71 155.29 C 146.49 155.65 147.42 155.30 147.77 154.52 Z M 148.02 153.88 L 148.62 153.06 C 149.13 152.37 148.97 151.39 148.28 150.88 C 147.58 150.37 146.61 150.53 146.10 151.22 L 145.50 152.04 C 144.99 152.73 145.15 153.71 145.84 154.22 C 146.54 154.73 147.52 154.57 148.02 153.88 Z M 148.37 153.33 L 149.12 152.69 C 149.78 152.13 149.85 151.14 149.29 150.49 C 148.73 149.83 147.74 149.76 147.09 150.32 L 146.34 150.96 C 145.69 151.52 145.61 152.50 146.17 153.16 C 146.73 153.81 147.72 153.89 148.37 153.33 Z M 148.75 152.93 L 149.67 152.51 C 150.46 152.15 150.81 151.23 150.45 150.44 C 150.10 149.66 149.17 149.31 148.39 149.66 L 147.46 150.08 C 146.68 150.43 146.33 151.36 146.68 152.14 C 147.04 152.93 147.96 153.28 148.75 152.93 Z M 149.22 152.63 L 150.21 152.51 C 151.07 152.41 151.68 151.63 151.57 150.77 C 151.47 149.92 150.69 149.31 149.83 149.41 L 148.84 149.54 C 147.98 149.64 147.38 150.42 147.48 151.28 C 147.59 152.13 148.37 152.74 149.22 152.63 Z M 149.73 152.50 L 150.68 152.68 C 151.53 152.84 152.35 152.28 152.51 151.43 C 152.67 150.58 152.11 149.77 151.26 149.61 L 150.31 149.43 C 149.46 149.27 148.65 149.83 148.49 150.67 C 148.33 151.52 148.88 152.34 149.73 152.50 Z M 150.20 152.50 L 151.02 152.97 C 151.77 153.40 152.73 153.14 153.15 152.39 C 153.58 151.64 153.32 150.69 152.57 150.26 L 151.75 149.79 C 151.00 149.36 150.05 149.62 149.62 150.37 C 149.19 151.12 149.45 152.07 150.20 152.50 Z M 150.66 152.69 L 151.34 153.41 C 151.94 154.03 152.92 154.06 153.55 153.47 C 154.18 152.88 154.21 151.89 153.61 151.26 L 152.93 150.54 C 152.34 149.92 151.35 149.89 150.73 150.48 C 150.10 151.07 150.07 152.06 150.66 152.69 Z M 151.13 153.12 L 151.65 154.02 C 152.09 154.77 153.04 155.02 153.79 154.59 C 154.53 154.15 154.79 153.20 154.35 152.45 L 153.83 151.55 C 153.40 150.80 152.44 150.55 151.70 150.98 C 150.95 151.42 150.70 152.37 151.13 153.12 Z M 151.54 153.78 L 151.87 154.67 C 152.16 155.47 153.06 155.89 153.87 155.59 C 154.68 155.29 155.09 154.39 154.80 153.59 L 154.47 152.70 C 154.17 151.89 153.27 151.47 152.46 151.77 C 151.65 152.07 151.24 152.97 151.54 153.78 Z M 151.81 154.47 L 152.03 155.44 C 152.22 156.28 153.05 156.81 153.89 156.62 C 154.73 156.43 155.26 155.59 155.07 154.75 L 154.85 153.78 C 154.66 152.94 153.83 152.41 152.99 152.60 C 152.15 152.79 151.62 153.63 151.81 154.47 Z M 152.00 155.27 L 152.12 156.30 C 152.21 157.16 152.99 157.78 153.85 157.68 C 154.70 157.58 155.32 156.81 155.22 155.95 L 155.10 154.92 C 155.00 154.06 154.23 153.45 153.37 153.54 C 152.52 153.64 151.90 154.42 152.00 155.27 Z M 152.11 156.16 L 152.13 157.25 C 152.14 158.11 152.86 158.80 153.72 158.78 C 154.58 158.76 155.27 158.05 155.25 157.19 L 155.23 156.10 C 155.21 155.23 154.50 154.55 153.64 154.57 C 152.77 154.58 152.09 155.29 152.11 156.16 Z M 152.14 157.07 L 152.03 158.13 C 151.95 158.99 152.57 159.76 153.43 159.84 C 154.29 159.93 155.05 159.30 155.14 158.44 L 155.24 157.37 C 155.33 156.52 154.70 155.75 153.84 155.67 C 152.98 155.58 152.22 156.21 152.14 157.07 Z M 152.09 157.83 L 151.81 158.74 C 151.56 159.56 152.02 160.44 152.85 160.69 C 153.67 160.94 154.55 160.48 154.80 159.65 L 155.08 158.75 C 155.33 157.92 154.87 157.05 154.04 156.80 C 153.22 156.54 152.34 157.01 152.09 157.83 Z M 152.10 158.21 L 151.56 158.87 C 151.01 159.54 151.11 160.52 151.78 161.06 C 152.45 161.61 153.43 161.51 153.98 160.84 L 154.52 160.18 C 155.06 159.51 154.96 158.53 154.29 157.99 C 153.62 157.44 152.64 157.54 152.10 158.21 Z M 152.32 158.36 L 151.45 158.62 C 150.63 158.87 150.16 159.74 150.41 160.57 C 150.66 161.39 151.53 161.86 152.36 161.61 L 153.22 161.35 C 154.05 161.10 154.51 160.23 154.26 159.40 C 154.01 158.58 153.14 158.11 152.32 158.36 Z M 152.27 158.60 L 151.27 158.36 C 150.43 158.16 149.59 158.67 149.39 159.51 C 149.18 160.35 149.70 161.19 150.54 161.39 L 151.54 161.63 C 152.38 161.83 153.22 161.32 153.43 160.48 C 153.63 159.64 153.11 158.80 152.27 158.60 Z M 151.79 158.59 L 150.96 158.02 C 150.25 157.52 149.28 157.70 148.79 158.41 C 148.30 159.12 148.48 160.09 149.18 160.58 L 150.01 161.16 C 150.72 161.65 151.70 161.47 152.19 160.76 C 152.68 160.05 152.50 159.08 151.79 158.59 Z M 151.22 158.24 L 150.56 157.52 C 149.97 156.89 148.98 156.85 148.35 157.43 C 147.72 158.02 147.68 159.01 148.26 159.64 L 148.93 160.36 C 149.51 160.99 150.50 161.03 151.13 160.45 C 151.77 159.86 151.81 158.87 151.22 158.24 Z M 150.68 157.68 L 150.08 156.83 C 149.58 156.13 148.61 155.96 147.91 156.46 C 147.20 156.96 147.04 157.93 147.54 158.63 L 148.13 159.48 C 148.63 160.19 149.61 160.35 150.31 159.85 C 151.01 159.36 151.18 158.38 150.68 157.68 Z M 150.16 156.95 L 149.64 156.06 C 149.21 155.31 148.26 155.05 147.51 155.48 C 146.76 155.92 146.51 156.87 146.94 157.62 L 147.46 158.51 C 147.89 159.26 148.84 159.52 149.59 159.08 C 150.34 158.65 150.59 157.70 150.16 156.95 Z M 149.71 156.18 L 149.21 155.11 C 148.85 154.33 147.92 153.99 147.14 154.36 C 146.35 154.72 146.02 155.65 146.38 156.43 L 146.88 157.50 C 147.24 158.28 148.17 158.62 148.95 158.25 C 149.73 157.89 150.07 156.96 149.71 156.18 Z M 149.30 155.34 L 149.01 154.33 C 148.77 153.50 147.90 153.02 147.08 153.26 C 146.25 153.49 145.77 154.36 146.00 155.19 L 146.29 156.20 C 146.53 157.03 147.40 157.51 148.22 157.27 C 149.05 157.04 149.53 156.17 149.30 155.34 Z M 149.06 154.87 L 149.12 154.07 C 149.19 153.21 148.54 152.46 147.68 152.40 C 146.82 152.34 146.07 152.98 146.01 153.84 L 145.95 154.64 C 145.88 155.50 146.53 156.25 147.39 156.32 C 148.25 156.38 149.00 155.73 149.06 154.87 Z M 148.64 155.08 L 149.26 154.49 C 149.89 153.90 149.91 152.91 149.31 152.28 C 148.72 151.66 147.73 151.64 147.11 152.24 L 146.49 152.83 C 145.86 153.42 145.84 154.41 146.44 155.04 C 147.03 155.66 148.02 155.68 148.64 155.08 Z M 148.31 154.92 L 149.31 154.84 C 150.17 154.77 150.81 154.02 150.74 153.16 C 150.67 152.30 149.92 151.66 149.06 151.73 L 148.06 151.81 C 147.20 151.88 146.56 152.63 146.63 153.49 C 146.70 154.35 147.45 154.99 148.31 154.92 Z M 148.39 154.63 L 149.19 155.10 C 149.93 155.53 150.89 155.28 151.32 154.54 C 151.76 153.79 151.51 152.83 150.76 152.40 L 149.97 151.94 C 149.22 151.50 148.27 151.75 147.83 152.50 C 147.40 153.24 147.65 154.20 148.39 154.63 Z M 148.64 154.56 L 149.12 155.34 C 149.57 156.08 150.53 156.31 151.27 155.86 C 152.00 155.41 152.23 154.45 151.78 153.71 L 151.31 152.93 C 150.86 152.20 149.90 151.97 149.16 152.42 C 148.43 152.87 148.19 153.83 148.64 154.56 Z M 148.96 154.97 L 149.26 156.00 C 149.51 156.82 150.38 157.29 151.20 157.05 C 152.03 156.80 152.50 155.93 152.25 155.11 L 151.95 154.08 C 151.70 153.26 150.83 152.78 150.01 153.03 C 149.18 153.28 148.71 154.15 148.96 154.97 Z M 149.21 155.77 L 149.37 156.85 C 149.49 157.70 150.28 158.30 151.13 158.17 C 151.99 158.05 152.58 157.26 152.46 156.41 L 152.30 155.33 C 152.18 154.48 151.39 153.88 150.54 154.01 C 149.68 154.13 149.09 154.92 149.21 155.77 Z M 149.35 156.70 L 149.40 157.71 C 149.44 158.58 150.17 159.24 151.03 159.20 C 151.89 159.16 152.56 158.43 152.52 157.57 L 152.47 156.56 C 152.43 155.70 151.70 155.03 150.84 155.07 C 149.98 155.11 149.31 155.84 149.35 156.70 Z M 149.40 157.58 L 149.36 158.59 C 149.32 159.45 149.99 160.18 150.85 160.22 C 151.71 160.25 152.44 159.58 152.48 158.72 L 152.52 157.71 C 152.55 156.85 151.88 156.12 151.02 156.08 C 150.16 156.05 149.43 156.72 149.40 157.58 Z M 149.37 158.45 L 149.24 159.42 C 149.12 160.28 149.72 161.06 150.58 161.18 C 151.43 161.29 152.22 160.69 152.33 159.84 L 152.46 158.86 C 152.58 158.01 151.98 157.22 151.12 157.11 C 150.27 156.99 149.48 157.59 149.37 158.45 Z M 149.27 159.24 L 149.01 160.26 C 148.79 161.10 149.30 161.95 150.13 162.16 C 150.97 162.38 151.82 161.88 152.03 161.04 L 152.30 160.02 C 152.51 159.18 152.01 158.33 151.17 158.12 C 150.34 157.90 149.49 158.41 149.27 159.24 Z M 149.10 160.02 L 148.69 160.94 C 148.34 161.72 148.69 162.65 149.48 163.00 C 150.27 163.35 151.19 162.99 151.54 162.21 L 151.95 161.29 C 152.30 160.50 151.94 159.58 151.16 159.23 C 150.37 158.88 149.45 159.23 149.10 160.02 Z M 148.86 160.64 L 148.30 161.40 C 147.78 162.09 147.93 163.07 148.62 163.58 C 149.32 164.10 150.29 163.95 150.81 163.26 L 151.37 162.50 C 151.88 161.81 151.73 160.83 151.04 160.32 C 150.35 159.80 149.37 159.95 148.86 160.64 Z M 148.60 161.09 L 147.76 161.74 C 147.08 162.26 146.95 163.24 147.47 163.92 C 148.00 164.61 148.98 164.74 149.66 164.21 L 150.50 163.57 C 151.19 163.04 151.32 162.06 150.79 161.38 C 150.27 160.69 149.29 160.56 148.60 161.09 Z M 148.24 161.48 L 147.28 161.79 C 146.46 162.05 146.00 162.92 146.26 163.74 C 146.52 164.57 147.40 165.02 148.22 164.76 L 149.18 164.46 C 150.00 164.20 150.46 163.33 150.20 162.50 C 149.94 161.68 149.06 161.23 148.24 161.48 Z M 148.18 161.77 L 147.40 161.55 C 146.57 161.32 145.70 161.80 145.47 162.63 C 145.24 163.46 145.72 164.32 146.55 164.56 L 147.33 164.78 C 148.16 165.01 149.02 164.53 149.25 163.70 C 149.49 162.87 149.01 162.01 148.18 161.77 Z M 148.27 162.19 L 147.83 161.53 C 147.36 160.81 146.39 160.61 145.67 161.09 C 144.95 161.56 144.75 162.53 145.23 163.25 L 145.67 163.92 C 146.15 164.64 147.11 164.83 147.83 164.36 C 148.55 163.88 148.75 162.91 148.27 162.19 Z M 148.06 162.05 L 147.83 161.03 C 147.64 160.19 146.81 159.66 145.97 159.84 C 145.13 160.03 144.60 160.86 144.78 161.70 L 145.01 162.72 C 145.19 163.57 146.02 164.10 146.87 163.91 C 147.71 163.73 148.24 162.90 148.06 162.05 Z M 147.87 161.31 L 147.82 160.08 C 147.79 159.22 147.07 158.55 146.21 158.58 C 145.35 158.61 144.67 159.33 144.70 160.19 L 144.75 161.42 C 144.78 162.28 145.50 162.96 146.36 162.93 C 147.22 162.90 147.90 162.17 147.87 161.31 Z M 147.82 160.28 L 147.92 159.11 C 148.00 158.25 147.37 157.49 146.51 157.41 C 145.65 157.34 144.89 157.97 144.81 158.83 L 144.71 160.00 C 144.63 160.86 145.26 161.62 146.12 161.69 C 146.98 161.77 147.74 161.14 147.82 160.28 Z M 147.87 159.40 L 148.15 158.43 C 148.39 157.60 147.91 156.73 147.08 156.49 C 146.25 156.25 145.39 156.73 145.15 157.56 L 144.87 158.54 C 144.63 159.36 145.11 160.23 145.94 160.47 C 146.76 160.71 147.63 160.23 147.87 159.40 Z M 147.77 159.08 L 148.27 158.56 C 148.87 157.94 148.85 156.95 148.23 156.35 C 147.61 155.75 146.62 155.77 146.02 156.39 L 145.53 156.91 C 144.93 157.53 144.95 158.52 145.57 159.12 C 146.19 159.72 147.18 159.70 147.77 159.08 Z M 146.95 159.03 L 147.56 159.10 C 148.41 159.21 149.19 158.60 149.30 157.75 C 149.41 156.89 148.80 156.11 147.95 156.00 L 147.34 155.93 C 146.49 155.82 145.71 156.43 145.60 157.28 C 145.49 158.14 146.10 158.92 146.95 159.03 Z M 146.91 158.87 L 147.64 159.33 C 148.36 159.80 149.33 159.59 149.80 158.86 C 150.26 158.14 150.05 157.17 149.33 156.71 L 148.60 156.24 C 147.87 155.77 146.91 155.98 146.44 156.71 C 145.97 157.43 146.18 158.40 146.91 158.87 Z M 147.44 159.18 L 148.27 159.92 C 148.91 160.50 149.90 160.44 150.47 159.80 C 151.05 159.15 150.99 158.17 150.35 157.59 L 149.52 156.86 C 148.88 156.28 147.89 156.34 147.32 156.98 C 146.74 157.62 146.80 158.61 147.44 159.18 Z M 148.20 159.86 L 149.07 160.74 C 149.68 161.35 150.67 161.36 151.28 160.75 C 151.89 160.15 151.90 159.16 151.29 158.54 L 150.42 157.66 C 149.81 157.05 148.82 157.04 148.21 157.65 C 147.60 158.25 147.59 159.24 148.20 159.86 Z M 149.06 160.73 L 149.28 160.95 C 149.88 161.57 150.86 161.59 151.48 160.99 C 152.11 160.39 152.12 159.40 151.52 158.78 L 151.31 158.56 C 150.71 157.94 149.72 157.92 149.10 158.52 C 148.48 159.12 148.46 160.11 149.06 160.73 Z"
      fill="black"
      fill-rule="nonzero" /><path d="M 146.84 226.55 L 147.56 225.66 C 148.11 225.00 148.01 224.01 147.34 223.47 C 146.67 222.92 145.69 223.02 145.14 223.69 L 144.42 224.57 C 143.87 225.24 143.97 226.22 144.64 226.77 C 145.31 227.31 146.29 227.21 146.84 226.55 Z M 147.35 225.87 L 148.08 225.26 C 148.75 224.71 148.83 223.72 148.28 223.06 C 147.73 222.40 146.74 222.31 146.08 222.86 L 145.35 223.48 C 144.69 224.03 144.60 225.02 145.15 225.68 C 145.71 226.34 146.69 226.43 147.35 225.87 Z M 147.24 225.62 L 147.99 225.54 C 148.85 225.45 149.47 224.68 149.38 223.83 C 149.29 222.97 148.53 222.35 147.67 222.43 L 146.92 222.51 C 146.07 222.60 145.44 223.36 145.53 224.22 C 145.62 225.08 146.38 225.70 147.24 225.62 Z M 146.95 225.27 L 147.69 225.78 C 148.40 226.27 149.37 226.09 149.86 225.38 C 150.35 224.67 150.17 223.70 149.46 223.21 L 148.71 222.70 C 148.00 222.21 147.03 222.39 146.54 223.10 C 146.05 223.81 146.23 224.78 146.95 225.27 Z M 147.34 225.45 L 148.03 226.35 C 148.56 227.03 149.54 227.16 150.23 226.63 C 150.91 226.10 151.03 225.12 150.50 224.44 L 149.81 223.54 C 149.28 222.86 148.30 222.73 147.62 223.26 C 146.93 223.79 146.81 224.77 147.34 225.45 Z M 147.91 226.17 L 148.39 227.00 C 148.82 227.75 149.77 228.01 150.52 227.58 C 151.27 227.15 151.53 226.20 151.10 225.45 L 150.62 224.62 C 150.19 223.87 149.24 223.61 148.49 224.04 C 147.74 224.47 147.49 225.42 147.91 226.17 Z M 148.33 226.88 L 148.73 227.75 C 149.09 228.54 150.02 228.88 150.80 228.52 C 151.58 228.16 151.93 227.23 151.57 226.45 L 151.16 225.57 C 150.80 224.79 149.88 224.45 149.09 224.81 C 148.31 225.17 147.97 226.10 148.33 226.88 Z M 148.69 227.65 L 149.05 228.62 C 149.36 229.43 150.26 229.83 151.06 229.53 C 151.87 229.22 152.28 228.32 151.97 227.52 L 151.61 226.55 C 151.30 225.74 150.40 225.33 149.60 225.64 C 148.79 225.94 148.38 226.84 148.69 227.65 Z M 149.02 228.54 L 149.36 229.61 C 149.62 230.44 150.50 230.89 151.32 230.63 C 152.14 230.38 152.60 229.50 152.34 228.68 L 152.00 227.60 C 151.74 226.78 150.87 226.32 150.05 226.58 C 149.22 226.84 148.77 227.71 149.02 228.54 Z M 149.34 229.53 L 149.63 230.68 C 149.85 231.52 150.70 232.02 151.53 231.81 C 152.37 231.59 152.87 230.74 152.66 229.91 L 152.37 228.76 C 152.15 227.92 151.30 227.42 150.47 227.63 C 149.63 227.85 149.13 228.70 149.34 229.53 Z M 149.60 230.54 L 149.77 231.59 C 149.90 232.44 150.70 233.02 151.56 232.88 C 152.41 232.75 152.99 231.95 152.85 231.10 L 152.69 230.05 C 152.55 229.20 151.75 228.62 150.90 228.75 C 150.05 228.89 149.47 229.69 149.60 230.54 Z M 149.75 231.25 L 149.71 232.02 C 149.66 232.88 150.31 233.62 151.17 233.67 C 152.04 233.72 152.77 233.07 152.83 232.20 L 152.87 231.43 C 152.92 230.57 152.26 229.83 151.40 229.78 C 150.54 229.73 149.80 230.39 149.75 231.25 Z M 150.31 230.88 L 149.85 231.24 C 149.16 231.76 149.03 232.74 149.56 233.43 C 150.09 234.11 151.07 234.24 151.75 233.71 L 152.22 233.35 C 152.90 232.82 153.03 231.84 152.50 231.16 C 151.98 230.48 151.00 230.35 150.31 230.88 Z M 151.32 231.00 L 150.42 230.69 C 149.61 230.40 148.72 230.83 148.43 231.64 C 148.15 232.45 148.57 233.35 149.39 233.63 L 150.28 233.95 C 151.09 234.23 151.98 233.81 152.27 232.99 C 152.56 232.18 152.13 231.29 151.32 231.00 Z M 150.82 230.90 L 149.82 230.17 C 149.12 229.66 148.15 229.81 147.64 230.51 C 147.13 231.21 147.29 232.19 147.98 232.69 L 148.99 233.42 C 149.68 233.93 150.66 233.77 151.17 233.08 C 151.67 232.38 151.52 231.40 150.82 230.90 Z M 149.97 230.29 L 149.24 229.61 C 148.61 229.02 147.62 229.05 147.03 229.68 C 146.44 230.31 146.48 231.30 147.11 231.89 L 147.84 232.57 C 148.47 233.16 149.45 233.13 150.04 232.50 C 150.63 231.87 150.60 230.88 149.97 230.29 Z M 149.33 229.70 L 148.64 228.94 C 148.06 228.30 147.07 228.25 146.44 228.83 C 145.80 229.41 145.75 230.40 146.33 231.04 L 147.02 231.80 C 147.60 232.44 148.58 232.49 149.22 231.91 C 149.86 231.33 149.91 230.34 149.33 229.70 Z M 148.72 229.04 L 148.11 228.24 C 147.59 227.55 146.61 227.42 145.92 227.95 C 145.24 228.47 145.11 229.45 145.63 230.13 L 146.24 230.94 C 146.77 231.62 147.75 231.75 148.43 231.23 C 149.12 230.70 149.25 229.72 148.72 229.04 Z M 148.20 228.37 L 147.67 227.51 C 147.22 226.78 146.26 226.55 145.52 227.00 C 144.79 227.46 144.56 228.42 145.02 229.15 L 145.54 230.01 C 145.99 230.74 146.96 230.97 147.69 230.51 C 148.42 230.06 148.65 229.10 148.20 228.37 Z M 147.77 227.69 L 147.35 226.77 C 147.00 225.98 146.08 225.63 145.29 225.98 C 144.50 226.33 144.15 227.26 144.50 228.04 L 144.92 228.97 C 145.27 229.76 146.20 230.11 146.98 229.76 C 147.77 229.40 148.12 228.48 147.77 227.69 Z M 147.43 226.97 L 147.16 226.04 C 146.92 225.21 146.05 224.73 145.22 224.97 C 144.40 225.21 143.92 226.08 144.16 226.90 L 144.43 227.84 C 144.67 228.67 145.53 229.14 146.36 228.90 C 147.19 228.66 147.67 227.80 147.43 226.97 Z M 147.20 226.22 L 147.04 225.25 C 146.90 224.40 146.09 223.82 145.24 223.96 C 144.39 224.11 143.82 224.91 143.96 225.76 L 144.12 226.73 C 144.26 227.58 145.06 228.15 145.91 228.01 C 146.76 227.87 147.34 227.07 147.20 226.22 Z M 147.05 225.39 L 146.98 224.39 C 146.91 223.53 146.16 222.88 145.30 222.95 C 144.44 223.01 143.80 223.76 143.87 224.62 L 143.94 225.62 C 144.01 226.48 144.76 227.13 145.62 227.06 C 146.48 227.00 147.12 226.25 147.05 225.39 Z M 146.98 224.53 L 147.00 223.52 C 147.01 222.65 146.32 221.94 145.46 221.93 C 144.60 221.92 143.89 222.61 143.88 223.47 L 143.86 224.48 C 143.85 225.35 144.54 226.05 145.40 226.07 C 146.26 226.08 146.97 225.39 146.98 224.53 Z M 146.99 223.69 L 147.11 222.70 C 147.22 221.85 146.61 221.07 145.76 220.96 C 144.90 220.85 144.12 221.46 144.01 222.31 L 143.89 223.30 C 143.78 224.15 144.39 224.93 145.24 225.04 C 146.10 225.15 146.88 224.54 146.99 223.69 Z M 147.06 222.93 L 147.35 221.93 C 147.58 221.10 147.10 220.23 146.27 220.00 C 145.44 219.76 144.58 220.25 144.34 221.08 L 144.06 222.08 C 143.82 222.91 144.31 223.77 145.14 224.01 C 145.97 224.24 146.83 223.76 147.06 222.93 Z M 147.22 222.24 L 147.70 221.35 C 148.10 220.59 147.82 219.64 147.06 219.24 C 146.30 218.83 145.35 219.12 144.94 219.88 L 144.47 220.76 C 144.06 221.52 144.35 222.47 145.11 222.88 C 145.87 223.28 146.82 223.00 147.22 222.24 Z M 147.42 221.72 L 148.09 221.06 C 148.70 220.45 148.70 219.46 148.10 218.85 C 147.49 218.24 146.50 218.24 145.89 218.84 L 145.22 219.51 C 144.61 220.11 144.61 221.10 145.21 221.71 C 145.82 222.33 146.81 222.33 147.42 221.72 Z M 147.61 221.38 L 148.48 221.00 C 149.27 220.66 149.64 219.74 149.29 218.95 C 148.95 218.16 148.03 217.80 147.24 218.14 L 146.36 218.52 C 145.57 218.86 145.21 219.78 145.56 220.57 C 145.90 221.37 146.82 221.73 147.61 221.38 Z M 147.94 221.13 L 148.93 221.08 C 149.79 221.04 150.45 220.31 150.41 219.45 C 150.37 218.59 149.63 217.92 148.77 217.97 L 147.78 218.01 C 146.92 218.06 146.26 218.79 146.30 219.65 C 146.34 220.51 147.08 221.17 147.94 221.13 Z M 148.38 221.01 L 149.36 221.32 C 150.19 221.58 151.06 221.12 151.32 220.30 C 151.58 219.48 151.12 218.60 150.30 218.34 L 149.32 218.03 C 148.49 217.78 147.62 218.23 147.36 219.06 C 147.10 219.88 147.56 220.76 148.38 221.01 Z M 148.91 221.09 L 149.66 221.64 C 150.36 222.15 151.34 222.00 151.84 221.31 C 152.35 220.61 152.20 219.63 151.51 219.12 L 150.75 218.57 C 150.06 218.06 149.08 218.21 148.57 218.91 C 148.06 219.61 148.21 220.58 148.91 221.09 Z M 149.39 221.39 L 150.03 222.15 C 150.58 222.81 151.57 222.90 152.23 222.35 C 152.89 221.79 152.98 220.81 152.42 220.15 L 151.78 219.38 C 151.23 218.72 150.24 218.63 149.58 219.19 C 148.92 219.74 148.83 220.72 149.39 221.39 Z M 149.86 221.91 L 150.36 222.82 C 150.78 223.57 151.73 223.84 152.49 223.43 C 153.24 223.01 153.51 222.06 153.10 221.30 L 152.59 220.39 C 152.17 219.64 151.22 219.37 150.47 219.78 C 149.71 220.20 149.44 221.15 149.86 221.91 Z M 150.26 222.58 L 150.60 223.54 C 150.89 224.36 151.78 224.78 152.59 224.49 C 153.40 224.21 153.83 223.31 153.54 222.50 L 153.20 221.54 C 152.91 220.73 152.02 220.30 151.21 220.59 C 150.39 220.88 149.97 221.77 150.26 222.58 Z M 150.54 223.32 L 150.73 224.31 C 150.90 225.16 151.72 225.71 152.57 225.54 C 153.41 225.37 153.96 224.55 153.80 223.71 L 153.60 222.72 C 153.43 221.87 152.61 221.32 151.77 221.49 C 150.92 221.66 150.37 222.48 150.54 223.32 Z M 150.71 224.11 L 150.77 225.11 C 150.83 225.97 151.57 226.62 152.43 226.56 C 153.29 226.50 153.94 225.76 153.89 224.90 L 153.82 223.90 C 153.77 223.04 153.02 222.39 152.16 222.45 C 151.30 222.51 150.65 223.25 150.71 224.11 Z M 150.77 224.92 L 150.72 225.93 C 150.67 226.79 151.33 227.53 152.19 227.57 C 153.05 227.62 153.79 226.96 153.83 226.10 L 153.89 225.09 C 153.93 224.23 153.27 223.49 152.41 223.44 C 151.55 223.40 150.82 224.06 150.77 224.92 Z M 150.74 225.72 L 150.54 226.76 C 150.38 227.60 150.93 228.42 151.78 228.58 C 152.63 228.75 153.45 228.19 153.61 227.35 L 153.81 226.31 C 153.97 225.46 153.42 224.64 152.57 224.48 C 151.73 224.32 150.91 224.87 150.74 225.72 Z M 150.64 226.44 L 150.26 227.35 C 149.92 228.14 150.29 229.06 151.09 229.39 C 151.88 229.73 152.80 229.36 153.13 228.56 L 153.51 227.66 C 153.85 226.87 153.48 225.95 152.68 225.61 C 151.89 225.28 150.97 225.65 150.64 226.44 Z M 150.52 226.93 L 149.92 227.62 C 149.35 228.27 149.42 229.25 150.07 229.82 C 150.72 230.39 151.71 230.32 152.27 229.67 L 152.87 228.98 C 153.44 228.33 153.37 227.34 152.72 226.78 C 152.07 226.21 151.08 226.28 150.52 226.93 Z M 150.38 227.26 L 149.55 227.69 C 148.78 228.08 148.48 229.02 148.88 229.79 C 149.27 230.56 150.22 230.86 150.98 230.46 L 151.81 230.03 C 152.58 229.63 152.88 228.69 152.48 227.92 C 152.08 227.16 151.14 226.86 150.38 227.26 Z M 149.97 227.54 L 148.98 227.73 C 148.13 227.90 147.58 228.72 147.74 229.56 C 147.91 230.41 148.73 230.96 149.57 230.80 L 150.56 230.60 C 151.41 230.44 151.96 229.62 151.80 228.77 C 151.63 227.93 150.81 227.38 149.97 227.54 Z M 149.29 227.70 L 148.23 227.69 C 147.37 227.69 146.66 228.38 146.65 229.24 C 146.65 230.10 147.34 230.81 148.20 230.82 L 149.26 230.83 C 150.12 230.83 150.83 230.14 150.84 229.28 C 150.84 228.42 150.15 227.71 149.29 227.70 Z M 148.48 227.72 L 147.46 227.54 C 146.61 227.39 145.81 227.96 145.66 228.81 C 145.51 229.66 146.08 230.47 146.93 230.62 L 147.95 230.79 C 148.80 230.94 149.61 230.37 149.75 229.52 C 149.90 228.67 149.33 227.86 148.48 227.72 Z M 147.74 227.62 L 146.81 227.27 C 146.00 226.96 145.10 227.37 144.80 228.18 C 144.49 228.99 144.90 229.89 145.71 230.19 L 146.65 230.54 C 147.46 230.84 148.36 230.43 148.66 229.63 C 148.96 228.82 148.55 227.92 147.74 227.62 Z M 147.15 227.44 L 146.36 226.90 C 145.65 226.41 144.68 226.58 144.19 227.29 C 143.69 228.00 143.87 228.98 144.58 229.47 L 145.37 230.01 C 146.08 230.50 147.05 230.33 147.54 229.62 C 148.03 228.91 147.86 227.94 147.15 227.44 Z M 146.71 227.24 L 146.13 226.47 C 145.61 225.78 144.63 225.64 143.94 226.17 C 143.26 226.69 143.12 227.66 143.64 228.35 L 144.22 229.12 C 144.74 229.81 145.72 229.95 146.41 229.43 C 147.10 228.91 147.23 227.93 146.71 227.24 Z M 146.36 226.90 L 146.04 225.97 C 145.76 225.15 144.87 224.72 144.05 225.00 C 143.24 225.28 142.81 226.17 143.09 226.99 L 143.41 227.92 C 143.69 228.73 144.58 229.17 145.39 228.89 C 146.21 228.60 146.64 227.72 146.36 226.90 Z M 146.12 226.42 L 146.08 225.41 C 146.05 224.54 145.33 223.87 144.47 223.90 C 143.60 223.94 142.93 224.66 142.96 225.52 L 143.00 226.53 C 143.03 227.40 143.76 228.07 144.62 228.04 C 145.48 228.00 146.15 227.28 146.12 226.42 Z M 146.04 225.84 L 146.28 224.89 C 146.49 224.06 145.98 223.21 145.14 223.00 C 144.31 222.79 143.46 223.30 143.25 224.13 L 143.01 225.08 C 142.80 225.92 143.31 226.77 144.14 226.98 C 144.98 227.19 145.83 226.68 146.04 225.84 Z M 146.14 225.25 L 146.61 224.37 C 147.01 223.61 146.73 222.67 145.97 222.26 C 145.21 221.86 144.26 222.14 143.85 222.90 L 143.39 223.78 C 142.98 224.54 143.27 225.48 144.03 225.89 C 144.79 226.30 145.73 226.01 146.14 225.25 Z M 146.42 224.65 L 147.08 223.87 C 147.64 223.22 147.55 222.23 146.90 221.67 C 146.24 221.12 145.25 221.20 144.70 221.86 L 144.04 222.63 C 143.48 223.29 143.56 224.27 144.22 224.83 C 144.88 225.39 145.86 225.31 146.42 224.65 Z M 146.85 224.10 L 147.68 223.44 C 148.36 222.91 148.49 221.93 147.96 221.25 C 147.43 220.57 146.45 220.45 145.77 220.98 L 144.93 221.63 C 144.25 222.16 144.12 223.14 144.65 223.82 C 145.18 224.50 146.16 224.63 146.85 224.10 Z M 147.39 223.63 L 148.38 223.16 C 149.16 222.79 149.50 221.86 149.13 221.08 C 148.77 220.30 147.84 219.97 147.06 220.33 L 146.06 220.80 C 145.28 221.16 144.95 222.09 145.31 222.87 C 145.68 223.65 146.61 223.99 147.39 223.63 Z M 147.96 223.29 L 148.90 223.14 C 149.76 223.01 150.34 222.21 150.21 221.36 C 150.07 220.51 149.28 219.92 148.42 220.06 L 147.48 220.20 C 146.63 220.34 146.04 221.13 146.18 221.99 C 146.31 222.84 147.11 223.42 147.96 223.29 Z M 148.17 223.08 L 148.93 223.33 C 149.75 223.61 150.63 223.17 150.91 222.35 C 151.18 221.53 150.74 220.65 149.92 220.37 L 149.16 220.12 C 148.34 219.84 147.46 220.29 147.18 221.10 C 146.91 221.92 147.35 222.81 148.17 223.08 Z M 148.16 222.76 L 148.67 223.48 C 149.17 224.18 150.14 224.34 150.85 223.84 C 151.55 223.33 151.71 222.36 151.21 221.66 L 150.70 220.95 C 150.19 220.24 149.22 220.08 148.52 220.59 C 147.82 221.09 147.66 222.06 148.16 222.76 Z M 148.44 223.00 L 148.73 224.03 C 148.97 224.86 149.84 225.34 150.67 225.10 C 151.50 224.86 151.97 223.99 151.73 223.16 L 151.44 222.13 C 151.20 221.30 150.33 220.83 149.50 221.07 C 148.67 221.31 148.20 222.17 148.44 223.00 Z M 148.69 223.84 L 148.86 224.90 C 149.00 225.75 149.80 226.33 150.65 226.19 C 151.50 226.06 152.08 225.26 151.94 224.40 L 151.78 223.35 C 151.64 222.50 150.84 221.92 149.99 222.06 C 149.14 222.19 148.56 222.99 148.69 223.84 Z M 148.85 224.80 L 148.95 225.80 C 149.03 226.66 149.80 227.29 150.65 227.21 C 151.51 227.12 152.14 226.36 152.05 225.50 L 151.96 224.50 C 151.87 223.64 151.11 223.01 150.25 223.10 C 149.39 223.18 148.76 223.95 148.85 224.80 Z M 148.94 225.70 L 148.97 226.71 C 149.00 227.57 149.72 228.25 150.58 228.23 C 151.44 228.20 152.12 227.48 152.09 226.62 L 152.06 225.61 C 152.04 224.74 151.32 224.07 150.45 224.09 C 149.59 224.12 148.91 224.84 148.94 225.70 Z M 148.97 226.58 L 148.92 227.58 C 148.87 228.44 149.52 229.18 150.39 229.23 C 151.25 229.27 151.98 228.62 152.03 227.76 L 152.09 226.75 C 152.14 225.89 151.48 225.15 150.62 225.11 C 149.76 225.06 149.02 225.72 148.97 226.58 Z M 148.94 227.38 L 148.74 228.44 C 148.58 229.28 149.14 230.10 149.99 230.26 C 150.84 230.42 151.65 229.86 151.81 229.01 L 152.01 227.95 C 152.17 227.11 151.61 226.29 150.76 226.13 C 149.91 225.97 149.10 226.53 148.94 227.38 Z M 148.83 228.13 L 148.46 229.04 C 148.13 229.84 148.51 230.75 149.31 231.08 C 150.11 231.41 151.02 231.02 151.35 230.23 L 151.72 229.32 C 152.05 228.52 151.67 227.61 150.87 227.28 C 150.07 226.95 149.16 227.33 148.83 228.13 Z M 148.71 228.63 L 148.12 229.33 C 147.56 229.99 147.65 230.98 148.31 231.53 C 148.97 232.09 149.95 232.00 150.51 231.34 L 151.10 230.64 C 151.65 229.98 151.57 228.99 150.91 228.44 C 150.25 227.88 149.26 227.97 148.71 228.63 Z M 148.61 228.94 L 147.71 229.39 C 146.94 229.78 146.62 230.72 147.01 231.49 C 147.40 232.26 148.34 232.57 149.11 232.19 L 150.01 231.73 C 150.78 231.35 151.09 230.41 150.71 229.64 C 150.32 228.87 149.38 228.55 148.61 228.94 Z M 148.33 229.23 L 147.34 229.28 C 146.48 229.33 145.82 230.06 145.86 230.92 C 145.91 231.78 146.64 232.45 147.50 232.40 L 148.49 232.35 C 149.35 232.30 150.01 231.57 149.97 230.71 C 149.92 229.85 149.19 229.19 148.33 229.23 Z M 148.06 229.42 L 147.25 229.06 C 146.46 228.70 145.54 229.06 145.19 229.85 C 144.83 230.63 145.19 231.56 145.98 231.91 L 146.78 232.27 C 147.57 232.62 148.49 232.26 148.85 231.48 C 149.20 230.69 148.84 229.77 148.06 229.42 Z M 147.82 229.50 L 147.28 228.83 C 146.74 228.16 145.75 228.06 145.08 228.60 C 144.41 229.14 144.31 230.12 144.86 230.79 L 145.40 231.46 C 145.94 232.13 146.93 232.24 147.59 231.69 C 148.26 231.15 148.37 230.17 147.82 229.50 Z M 147.52 229.25 L 147.15 228.28 C 146.84 227.48 145.94 227.08 145.14 227.39 C 144.33 227.70 143.93 228.60 144.24 229.40 L 144.61 230.37 C 144.92 231.18 145.82 231.58 146.63 231.27 C 147.43 230.96 147.83 230.06 147.52 229.25 Z M 147.23 228.58 L 147.04 227.44 C 146.89 226.59 146.08 226.02 145.23 226.17 C 144.38 226.32 143.81 227.12 143.96 227.97 L 144.16 229.11 C 144.31 229.96 145.12 230.53 145.96 230.38 C 146.81 230.23 147.38 229.43 147.23 228.58 Z M 147.06 227.62 L 147.00 226.61 C 146.95 225.75 146.21 225.10 145.35 225.15 C 144.49 225.19 143.83 225.93 143.88 226.79 L 143.94 227.79 C 143.99 228.66 144.73 229.31 145.59 229.26 C 146.45 229.21 147.11 228.48 147.06 227.62 Z M 147.00 226.75 L 147.03 225.71 C 147.06 224.85 146.39 224.13 145.52 224.10 C 144.66 224.07 143.94 224.75 143.91 225.61 L 143.88 226.65 C 143.85 227.52 144.53 228.24 145.39 228.26 C 146.25 228.29 146.97 227.62 147.00 226.75 Z M 147.02 225.86 L 147.15 224.85 C 147.27 223.99 146.66 223.21 145.81 223.10 C 144.95 222.99 144.17 223.59 144.06 224.44 L 143.93 225.46 C 143.81 226.31 144.42 227.10 145.27 227.21 C 146.13 227.32 146.91 226.72 147.02 225.86 Z M 147.12 225.04 L 147.36 224.12 C 147.57 223.28 147.07 222.43 146.24 222.21 C 145.40 222.00 144.55 222.50 144.34 223.33 L 144.10 224.25 C 143.88 225.09 144.38 225.94 145.21 226.16 C 146.05 226.37 146.90 225.87 147.12 225.04 Z M 147.24 224.44 L 147.77 223.39 C 148.16 222.62 147.86 221.68 147.09 221.29 C 146.33 220.89 145.39 221.20 144.99 221.96 L 144.46 223.01 C 144.06 223.78 144.37 224.72 145.13 225.11 C 145.90 225.51 146.84 225.20 147.24 224.44 Z M 147.44 223.83 L 148.16 223.16 C 148.80 222.58 148.85 221.59 148.26 220.96 C 147.68 220.32 146.70 220.28 146.06 220.86 L 145.33 221.52 C 144.69 222.11 144.65 223.09 145.23 223.73 C 145.81 224.37 146.80 224.41 147.44 223.83 Z M 147.40 223.54 L 148.18 223.40 C 149.03 223.23 149.58 222.42 149.42 221.57 C 149.26 220.72 148.44 220.17 147.60 220.33 L 146.82 220.48 C 145.97 220.64 145.42 221.46 145.58 222.30 C 145.74 223.15 146.56 223.70 147.40 223.54 Z M 147.14 223.23 L 147.83 223.61 C 148.58 224.02 149.53 223.74 149.95 222.99 C 150.36 222.23 150.08 221.28 149.33 220.87 L 148.64 220.49 C 147.88 220.08 146.93 220.36 146.52 221.11 C 146.11 221.87 146.38 222.82 147.14 223.23 Z M 147.33 223.17 L 147.92 223.96 C 148.44 224.65 149.42 224.79 150.11 224.28 C 150.80 223.76 150.94 222.78 150.42 222.09 L 149.83 221.30 C 149.31 220.61 148.33 220.47 147.64 220.99 C 146.95 221.51 146.81 222.48 147.33 223.17 Z M 147.74 223.65 L 148.21 224.73 C 148.56 225.52 149.48 225.88 150.27 225.53 C 151.06 225.19 151.42 224.27 151.07 223.48 L 150.60 222.40 C 150.25 221.61 149.33 221.25 148.54 221.60 C 147.75 221.94 147.39 222.86 147.74 223.65 Z M 148.14 224.53 L 148.41 225.49 C 148.64 226.32 149.51 226.80 150.34 226.57 C 151.17 226.34 151.65 225.47 151.41 224.64 L 151.14 223.68 C 150.91 222.85 150.05 222.37 149.22 222.60 C 148.39 222.83 147.90 223.70 148.14 224.53 Z M 148.38 225.36 L 148.57 226.36 C 148.73 227.21 149.55 227.76 150.40 227.60 C 151.24 227.44 151.80 226.62 151.64 225.77 L 151.45 224.77 C 151.28 223.93 150.46 223.37 149.62 223.53 C 148.77 223.70 148.22 224.51 148.38 225.36 Z M 148.56 226.27 L 148.69 227.27 C 148.80 228.13 149.58 228.73 150.43 228.62 C 151.29 228.51 151.89 227.73 151.78 226.87 L 151.65 225.86 C 151.54 225.01 150.76 224.41 149.90 224.52 C 149.05 224.63 148.44 225.41 148.56 226.27 Z M 148.68 227.20 L 148.76 228.19 C 148.84 229.04 149.59 229.68 150.45 229.61 C 151.31 229.53 151.95 228.78 151.87 227.92 L 151.79 226.94 C 151.72 226.08 150.96 225.44 150.10 225.52 C 149.24 225.59 148.61 226.35 148.68 227.20 Z M 148.76 228.11 L 148.80 229.23 C 148.83 230.09 149.55 230.76 150.42 230.73 C 151.28 230.70 151.95 229.98 151.92 229.11 L 151.88 228.00 C 151.85 227.13 151.12 226.46 150.26 226.49 C 149.40 226.52 148.73 227.25 148.76 228.11 Z M 148.80 229.04 L 148.72 230.03 C 148.64 230.88 149.28 231.64 150.14 231.72 C 151.00 231.79 151.75 231.15 151.83 230.30 L 151.91 229.31 C 151.99 228.45 151.35 227.69 150.49 227.62 C 149.64 227.54 148.88 228.18 148.80 229.04 Z M 148.80 229.66 L 148.51 230.49 C 148.23 231.31 148.67 232.20 149.48 232.48 C 150.30 232.76 151.19 232.32 151.46 231.50 L 151.75 230.67 C 152.03 229.85 151.59 228.96 150.78 228.68 C 149.96 228.40 149.07 228.84 148.80 229.66 Z M 148.82 229.96 L 148.12 230.75 C 147.55 231.40 147.61 232.39 148.25 232.96 C 148.90 233.53 149.89 233.47 150.46 232.82 L 151.16 232.03 C 151.73 231.39 151.67 230.40 151.02 229.83 C 150.38 229.26 149.39 229.32 148.82 229.96 Z M 148.73 230.33 L 147.83 230.67 C 147.03 230.98 146.62 231.88 146.93 232.69 C 147.23 233.49 148.14 233.90 148.94 233.59 L 149.84 233.25 C 150.65 232.94 151.05 232.04 150.75 231.23 C 150.44 230.43 149.54 230.02 148.73 230.33 Z M 148.94 230.67 L 148.20 230.39 C 147.40 230.08 146.49 230.48 146.19 231.29 C 145.88 232.10 146.28 233.00 147.09 233.31 L 147.83 233.59 C 148.63 233.90 149.54 233.49 149.85 232.69 C 150.15 231.88 149.75 230.98 148.94 230.67 Z M 148.96 231.01 L 148.48 230.25 C 148.02 229.52 147.05 229.31 146.32 229.77 C 145.60 230.23 145.38 231.20 145.84 231.93 L 146.33 232.69 C 146.79 233.41 147.76 233.63 148.48 233.16 C 149.21 232.70 149.42 231.74 148.96 231.01 Z M 148.65 230.63 L 148.33 229.57 C 148.07 228.75 147.19 228.29 146.37 228.55 C 145.55 228.80 145.09 229.68 145.34 230.50 L 145.67 231.55 C 145.93 232.38 146.80 232.84 147.62 232.58 C 148.45 232.32 148.91 231.45 148.65 230.63 Z M 148.37 229.77 L 148.18 228.65 C 148.03 227.80 147.22 227.24 146.37 227.38 C 145.52 227.53 144.95 228.34 145.10 229.19 L 145.30 230.31 C 145.45 231.16 146.25 231.72 147.10 231.57 C 147.95 231.43 148.52 230.62 148.37 229.77 Z M 148.20 228.84 L 148.14 227.79 C 148.10 226.93 147.36 226.27 146.50 226.31 C 145.64 226.36 144.98 227.09 145.02 227.95 L 145.08 229.00 C 145.12 229.86 145.86 230.53 146.72 230.48 C 147.58 230.44 148.24 229.70 148.20 228.84 Z M 148.13 228.11 L 148.27 227.16 C 148.40 226.31 147.82 225.52 146.97 225.38 C 146.12 225.25 145.32 225.84 145.19 226.69 L 145.04 227.63 C 144.91 228.48 145.49 229.28 146.35 229.41 C 147.20 229.55 148.00 228.96 148.13 228.11 Z M 148.08 227.72 L 148.57 226.87 C 149.01 226.12 148.76 225.17 148.02 224.73 C 147.27 224.29 146.32 224.54 145.88 225.29 L 145.38 226.14 C 144.95 226.88 145.20 227.84 145.94 228.27 C 146.68 228.71 147.64 228.46 148.08 227.72 Z M 148.00 227.43 L 148.90 226.92 C 149.65 226.49 149.91 225.54 149.48 224.79 C 149.05 224.04 148.10 223.78 147.35 224.21 L 146.45 224.72 C 145.70 225.15 145.44 226.10 145.87 226.85 C 146.30 227.60 147.25 227.86 148.00 227.43 Z M 147.64 227.05 L 148.40 227.30 C 149.22 227.57 150.10 227.12 150.37 226.30 C 150.64 225.48 150.19 224.60 149.38 224.33 L 148.61 224.08 C 147.79 223.81 146.91 224.26 146.64 225.08 C 146.37 225.89 146.82 226.78 147.64 227.05 Z M 147.39 226.25 L 147.70 227.33 C 147.94 228.16 148.81 228.64 149.64 228.40 C 150.46 228.16 150.94 227.30 150.70 226.47 L 150.39 225.38 C 150.15 224.55 149.28 224.07 148.45 224.31 C 147.63 224.55 147.15 225.42 147.39 226.25 Z M 147.71 227.35 L 147.90 227.98 C 148.15 228.80 149.02 229.27 149.84 229.02 C 150.67 228.77 151.14 227.90 150.89 227.08 L 150.70 226.45 C 150.45 225.62 149.58 225.16 148.75 225.41 C 147.93 225.66 147.46 226.53 147.71 227.35 Z M 150.62 228.49 L 151.18 227.78 C 151.71 227.10 151.59 226.12 150.92 225.59 C 150.24 225.05 149.26 225.17 148.72 225.85 L 148.16 226.56 C 147.63 227.24 147.75 228.22 148.43 228.76 C 149.11 229.29 150.09 229.17 150.62 228.49 Z M 150.65 228.21 L 151.55 227.76 C 152.33 227.38 152.64 226.44 152.26 225.67 C 151.88 224.90 150.94 224.58 150.17 224.97 L 149.26 225.42 C 148.49 225.80 148.17 226.73 148.55 227.51 C 148.94 228.28 149.87 228.60 150.65 228.21 Z M 150.10 227.73 L 150.98 228.22 C 151.74 228.63 152.69 228.36 153.11 227.61 C 153.52 226.85 153.25 225.90 152.50 225.48 L 151.62 225.00 C 150.86 224.58 149.91 224.85 149.49 225.61 C 149.08 226.36 149.35 227.31 150.10 227.73 Z M 153.30 226.75 L 153.26 226.09 C 153.20 225.23 152.46 224.58 151.60 224.63 C 150.74 224.69 150.08 225.43 150.14 226.29 L 150.18 226.95 C 150.24 227.81 150.98 228.46 151.84 228.41 C 152.70 228.35 153.35 227.61 153.30 226.75 Z M 152.75 225.04 L 152.26 224.59 C 151.63 224.01 150.64 224.05 150.06 224.68 C 149.47 225.32 149.51 226.30 150.15 226.89 L 150.64 227.34 C 151.28 227.92 152.26 227.88 152.85 227.25 C 153.43 226.61 153.39 225.62 152.75 225.04 Z M 149.70 225.32 L 149.44 226.26 C 149.21 227.09 149.69 227.95 150.52 228.18 C 151.35 228.42 152.21 227.93 152.45 227.10 L 152.71 226.16 C 152.94 225.33 152.46 224.47 151.63 224.24 C 150.80 224.00 149.93 224.49 149.70 225.32 Z M 149.68 225.76 L 149.10 226.55 C 148.59 227.24 148.74 228.22 149.44 228.73 C 150.13 229.24 151.11 229.09 151.62 228.39 L 152.20 227.60 C 152.71 226.91 152.56 225.93 151.87 225.42 C 151.17 224.91 150.19 225.06 149.68 225.76 Z M 150.55 225.92 L 149.65 225.81 C 148.79 225.71 148.02 226.32 147.91 227.18 C 147.81 228.04 148.43 228.81 149.28 228.91 L 150.18 229.02 C 151.04 229.12 151.81 228.51 151.91 227.65 C 152.01 226.80 151.40 226.02 150.55 225.92 Z M 150.48 226.18 L 149.66 225.48 C 149.01 224.92 148.02 225.00 147.46 225.65 C 146.90 226.31 146.98 227.29 147.63 227.85 L 148.45 228.55 C 149.10 229.11 150.09 229.03 150.65 228.38 C 151.21 227.72 151.13 226.74 150.48 226.18 Z M 150.13 226.17 L 149.83 225.29 C 149.56 224.48 148.67 224.04 147.85 224.32 C 147.04 224.59 146.60 225.48 146.88 226.30 L 147.17 227.17 C 147.45 227.98 148.33 228.42 149.15 228.14 C 149.97 227.87 150.40 226.98 150.13 226.17 Z M 149.90 226.00 L 150.03 225.03 C 150.14 224.17 149.54 223.39 148.68 223.28 C 147.83 223.16 147.05 223.77 146.93 224.62 L 146.81 225.59 C 146.69 226.45 147.30 227.23 148.15 227.34 C 149.01 227.46 149.79 226.85 149.90 226.00 Z M 149.86 225.56 L 150.37 224.60 C 150.77 223.84 150.48 222.89 149.72 222.49 C 148.96 222.08 148.02 222.37 147.61 223.13 L 147.10 224.09 C 146.70 224.85 146.99 225.80 147.75 226.20 C 148.51 226.61 149.46 226.32 149.86 225.56 Z M 150.11 224.95 L 150.84 224.20 C 151.44 223.58 151.43 222.59 150.81 221.99 C 150.19 221.39 149.20 221.40 148.60 222.02 L 147.87 222.78 C 147.27 223.40 147.28 224.39 147.90 224.99 C 148.52 225.59 149.51 225.57 150.11 224.95 Z M 150.55 224.44 L 151.42 223.89 C 152.15 223.44 152.38 222.47 151.92 221.74 C 151.47 221.01 150.50 220.79 149.77 221.24 L 148.90 221.78 C 148.17 222.24 147.94 223.20 148.40 223.93 C 148.85 224.67 149.82 224.89 150.55 224.44 Z M 150.96 224.08 L 151.84 223.87 C 152.68 223.67 153.20 222.83 152.99 221.99 C 152.79 221.15 151.95 220.64 151.11 220.84 L 150.23 221.05 C 149.39 221.25 148.88 222.09 149.08 222.93 C 149.28 223.77 150.12 224.29 150.96 224.08 Z M 151.01 223.85 L 151.89 224.12 C 152.71 224.37 153.58 223.91 153.84 223.09 C 154.09 222.26 153.63 221.39 152.81 221.13 L 151.94 220.86 C 151.11 220.61 150.24 221.07 149.98 221.89 C 149.73 222.72 150.19 223.59 151.01 223.85 Z M 151.20 223.69 L 151.87 224.41 C 152.45 225.04 153.44 225.08 154.07 224.49 C 154.71 223.91 154.75 222.92 154.16 222.29 L 153.49 221.57 C 152.91 220.93 151.92 220.89 151.29 221.48 C 150.65 222.06 150.62 223.05 151.20 223.69 Z M 151.58 223.95 L 151.99 224.93 C 152.32 225.73 153.24 226.10 154.03 225.76 C 154.83 225.43 155.20 224.51 154.87 223.72 L 154.45 222.74 C 154.12 221.95 153.20 221.57 152.41 221.91 C 151.61 222.24 151.24 223.16 151.58 223.95 Z M 151.88 224.55 L 152.03 225.56 C 152.15 226.41 152.94 227.00 153.79 226.88 C 154.65 226.76 155.24 225.97 155.12 225.11 L 154.97 224.10 C 154.85 223.25 154.06 222.66 153.21 222.78 C 152.35 222.90 151.76 223.69 151.88 224.55 Z M 152.02 225.18 L 151.92 226.18 C 151.84 227.04 152.47 227.80 153.33 227.89 C 154.18 227.97 154.95 227.34 155.03 226.48 L 155.13 225.48 C 155.21 224.63 154.58 223.86 153.72 223.78 C 152.86 223.70 152.10 224.33 152.02 225.18 Z M 152.03 225.75 L 151.66 226.66 C 151.34 227.46 151.73 228.37 152.53 228.69 C 153.33 229.01 154.24 228.62 154.56 227.82 L 154.92 226.91 C 155.25 226.11 154.86 225.20 154.06 224.88 C 153.26 224.56 152.35 224.95 152.03 225.75 Z M 151.98 226.17 L 151.26 226.93 C 150.67 227.55 150.69 228.54 151.32 229.14 C 151.94 229.73 152.93 229.70 153.53 229.08 L 154.24 228.32 C 154.84 227.69 154.81 226.70 154.18 226.11 C 153.56 225.52 152.57 225.54 151.98 226.17 Z M 151.87 226.53 L 150.98 226.85 C 150.17 227.13 149.74 228.03 150.03 228.84 C 150.32 229.65 151.21 230.08 152.02 229.79 L 152.91 229.47 C 153.73 229.18 154.15 228.29 153.86 227.48 C 153.58 226.67 152.68 226.24 151.87 226.53 Z M 151.89 226.80 L 151.08 226.60 C 150.24 226.39 149.39 226.89 149.18 227.73 C 148.97 228.56 149.47 229.41 150.31 229.62 L 151.12 229.83 C 151.95 230.04 152.80 229.54 153.02 228.70 C 153.23 227.87 152.72 227.02 151.89 226.80 Z M 151.75 226.96 L 151.08 226.35 C 150.45 225.77 149.46 225.81 148.88 226.45 C 148.30 227.09 148.34 228.07 148.98 228.66 L 149.64 229.26 C 150.28 229.85 151.27 229.80 151.85 229.17 C 152.43 228.53 152.39 227.54 151.75 226.96 Z M 151.39 226.74 L 150.86 225.79 C 150.44 225.04 149.49 224.77 148.74 225.19 C 147.99 225.61 147.72 226.57 148.14 227.32 L 148.67 228.27 C 149.09 229.02 150.04 229.29 150.79 228.87 C 151.55 228.45 151.81 227.49 151.39 226.74 Z M 151.00 226.11 L 150.69 225.07 C 150.44 224.24 149.58 223.77 148.75 224.01 C 147.92 224.25 147.45 225.12 147.69 225.95 L 148.00 227.00 C 148.25 227.82 149.12 228.30 149.94 228.05 C 150.77 227.81 151.24 226.94 151.00 226.11 Z M 150.74 225.29 L 150.59 224.30 C 150.47 223.45 149.68 222.85 148.83 222.97 C 147.97 223.10 147.38 223.89 147.50 224.74 L 147.65 225.73 C 147.77 226.58 148.56 227.17 149.41 227.05 C 150.27 226.93 150.86 226.14 150.74 225.29 Z M 150.61 224.45 L 150.56 223.41 C 150.52 222.55 149.79 221.89 148.93 221.93 C 148.06 221.97 147.40 222.70 147.44 223.56 L 147.49 224.59 C 147.53 225.46 148.26 226.12 149.12 226.08 C 149.99 226.04 150.65 225.31 150.61 224.45 Z M 150.56 223.53 L 150.59 222.51 C 150.61 221.65 149.93 220.93 149.07 220.91 C 148.21 220.88 147.49 221.56 147.47 222.42 L 147.44 223.44 C 147.42 224.31 148.10 225.02 148.96 225.05 C 149.82 225.07 150.54 224.39 150.56 223.53 Z M 150.58 222.62 L 150.68 221.60 C 150.77 220.74 150.14 219.97 149.28 219.89 C 148.42 219.80 147.66 220.43 147.58 221.29 L 147.48 222.31 C 147.39 223.17 148.02 223.94 148.88 224.02 C 149.73 224.11 150.50 223.48 150.58 222.62 Z M 150.66 221.76 L 150.90 220.59 C 151.08 219.75 150.54 218.92 149.70 218.74 C 148.85 218.57 148.02 219.11 147.85 219.95 L 147.60 221.12 C 147.42 221.97 147.97 222.79 148.81 222.97 C 149.65 223.15 150.48 222.61 150.66 221.76 Z M 150.78 220.94 L 151.18 220.11 C 151.55 219.33 151.23 218.40 150.45 218.03 C 149.67 217.66 148.74 217.99 148.37 218.76 L 147.97 219.60 C 147.59 220.37 147.92 221.31 148.70 221.68 C 149.48 222.05 150.41 221.72 150.78 220.94 Z M 150.66 220.73 L 151.27 220.31 C 151.98 219.82 152.16 218.85 151.67 218.14 C 151.18 217.43 150.21 217.25 149.50 217.73 L 148.89 218.15 C 148.18 218.64 148.00 219.61 148.49 220.32 C 148.97 221.03 149.94 221.21 150.66 220.73 Z M 150.19 220.57 L 151.05 220.68 C 151.90 220.79 152.69 220.18 152.79 219.33 C 152.90 218.47 152.30 217.69 151.44 217.58 L 150.58 217.47 C 149.73 217.36 148.94 217.97 148.83 218.82 C 148.73 219.68 149.33 220.46 150.19 220.57 Z M 150.28 220.36 L 151.13 221.02 C 151.81 221.55 152.79 221.44 153.32 220.76 C 153.85 220.08 153.73 219.10 153.06 218.56 L 152.21 217.90 C 151.53 217.37 150.55 217.49 150.02 218.17 C 149.49 218.85 149.60 219.83 150.28 220.36 Z M 150.75 220.58 L 151.24 221.42 C 151.67 222.16 152.63 222.41 153.37 221.97 C 154.12 221.54 154.37 220.58 153.93 219.84 L 153.44 219.00 C 153.00 218.26 152.05 218.01 151.30 218.45 C 150.56 218.88 150.31 219.84 150.75 220.58 Z M 151.09 221.08 L 151.37 221.99 C 151.62 222.81 152.49 223.28 153.32 223.02 C 154.14 222.77 154.60 221.90 154.35 221.08 L 154.08 220.17 C 153.82 219.35 152.95 218.88 152.13 219.13 C 151.30 219.39 150.84 220.26 151.09 221.08 Z M 151.31 221.75 L 151.46 222.77 C 151.58 223.63 152.37 224.22 153.22 224.10 C 154.08 223.98 154.67 223.19 154.55 222.34 L 154.40 221.31 C 154.28 220.46 153.49 219.87 152.64 219.99 C 151.79 220.11 151.19 220.90 151.31 221.75 Z M 151.44 222.58 L 151.46 223.67 C 151.48 224.53 152.19 225.22 153.05 225.21 C 153.91 225.19 154.60 224.48 154.58 223.62 L 154.56 222.53 C 154.55 221.67 153.84 220.98 152.98 220.99 C 152.12 221.01 151.43 221.72 151.44 222.58 Z M 151.47 223.50 L 151.37 224.58 C 151.29 225.44 151.92 226.20 152.78 226.28 C 153.64 226.35 154.40 225.72 154.48 224.86 L 154.58 223.79 C 154.66 222.93 154.02 222.17 153.17 222.09 C 152.31 222.01 151.55 222.64 151.47 223.50 Z M 151.39 224.41 L 151.19 225.45 C 151.02 226.29 151.56 227.11 152.41 227.28 C 153.25 227.45 154.08 226.91 154.25 226.06 L 154.45 225.03 C 154.62 224.18 154.08 223.36 153.23 223.19 C 152.39 223.02 151.56 223.57 151.39 224.41 Z M 151.23 225.26 L 150.92 226.21 C 150.65 227.03 151.09 227.91 151.91 228.18 C 152.73 228.45 153.61 228.01 153.88 227.19 L 154.20 226.24 C 154.47 225.43 154.03 224.54 153.21 224.27 C 152.39 224.00 151.51 224.44 151.23 225.26 Z M 151.01 225.99 L 150.59 226.80 C 150.20 227.57 150.50 228.51 151.27 228.90 C 152.03 229.30 152.98 229.00 153.37 228.23 L 153.79 227.42 C 154.18 226.65 153.88 225.71 153.12 225.31 C 152.35 224.92 151.41 225.22 151.01 225.99 Z M 150.81 226.48 L 150.13 227.26 C 149.56 227.91 149.62 228.90 150.27 229.47 C 150.92 230.04 151.90 229.97 152.47 229.32 L 153.16 228.55 C 153.72 227.90 153.66 226.91 153.01 226.34 C 152.36 225.77 151.38 225.84 150.81 226.48 Z M 150.54 226.93 L 149.68 227.40 C 148.93 227.82 148.65 228.77 149.07 229.53 C 149.49 230.28 150.44 230.55 151.19 230.14 L 152.05 229.66 C 152.81 229.24 153.08 228.29 152.66 227.54 C 152.25 226.78 151.30 226.51 150.54 226.93 Z M 150.24 227.22 L 149.31 227.34 C 148.45 227.45 147.85 228.23 147.96 229.09 C 148.07 229.94 148.85 230.55 149.70 230.44 L 150.64 230.32 C 151.49 230.21 152.10 229.43 151.99 228.57 C 151.88 227.72 151.09 227.11 150.24 227.22 Z M 149.84 227.37 L 148.94 227.16 C 148.10 226.98 147.27 227.51 147.08 228.35 C 146.89 229.19 147.42 230.02 148.26 230.21 L 149.16 230.41 C 150.01 230.60 150.84 230.07 151.03 229.23 C 151.22 228.39 150.69 227.55 149.84 227.37 Z M 149.28 227.28 L 148.39 226.85 C 147.61 226.48 146.68 226.81 146.30 227.59 C 145.93 228.36 146.26 229.30 147.04 229.67 L 147.93 230.10 C 148.70 230.47 149.64 230.14 150.01 229.36 C 150.38 228.59 150.05 227.65 149.28 227.28 Z M 148.54 226.94 L 147.65 226.38 C 146.91 225.93 145.95 226.15 145.50 226.88 C 145.04 227.61 145.26 228.58 146.00 229.03 L 146.89 229.59 C 147.62 230.04 148.58 229.82 149.04 229.09 C 149.49 228.35 149.27 227.39 148.54 226.94 Z M 147.68 226.40 L 147.44 226.24 C 146.72 225.77 145.75 225.96 145.27 226.68 C 144.80 227.40 145.00 228.37 145.71 228.85 L 145.96 229.01 C 146.68 229.48 147.65 229.29 148.12 228.57 C 148.60 227.85 148.40 226.88 147.68 226.40 Z"
      fill="black"
      fill-rule="nonzero" /></svg>