<svg xmlns="http://www.w3.org/2000/svg" width="300" height="300" viewBox="0 0 300 300">
<path d="M 149.79 85.24 L 149.73 86.20 C 149.67 87.06 150.32 87.81 151.18 87.86 C 152.04 87.92 152.78 87.27 152.84 86.41 L 152.91 85.45 C 152.96 84.59 152.31 83.85 151.45 83.79 C 150.59 83.73 149.85 84.38 149.79 85.24 Z M 149.73 86.20 L 149.66 87.16 C 149.60 88.02 150.25 88.77 151.11 88.83 C 151.97 88.89 152.71 88.24 152.77 87.38 L 152.84 86.42 C 152.90 85.56 152.25 84.81 151.39 84.75 C 150.53 84.69 149.79 85.34 149.73 86.20 Z M 149.66 87.15 L 149.58 88.13 C 149.52 88.99 150.16 89.74 151.02 89.81 C 151.88 89.87 152.63 89.23 152.70 88.37 L 152.77 87.40 C 152.84 86.54 152.20 85.78 151.34 85.72 C 150.48 85.65 149.73 86.29 149.66 87.15 Z M 149.58 88.11 L 149.50 89.10 C 149.42 89.96 150.05 90.72 150.91 90.80 C 151.77 90.88 152.53 90.24 152.61 89.38 L 152.69 88.39 C 152.77 87.53 152.14 86.77 151.28 86.70 C 150.42 86.62 149.66 87.25 149.58 88.11 Z M 149.50 89.08 L 149.39 90.10 C 149.30 90.95 149.93 91.72 150.78 91.81 C 151.64 91.90 152.41 91.28 152.50 90.42 L 152.60 89.41 C 152.69 88.55 152.07 87.78 151.21 87.69 C 150.35 87.60 149.59 88.22 149.50 89.08 Z M 149.40 90.07 L 149.27 91.11 C 149.16 91.96 149.77 92.74 150.63 92.85 C 151.49 92.95 152.26 92.34 152.37 91.49 L 152.49 90.45 C 152.60 89.59 151.99 88.81 151.13 88.71 C 150.28 88.60 149.50 89.21 149.40 90.07 Z M 149.27 91.08 L 149.13 92.07 C 149.01 92.93 149.61 93.72 150.46 93.84 C 151.32 93.96 152.11 93.36 152.23 92.51 L 152.36 91.51 C 152.48 90.66 151.89 89.87 151.04 89.75 C 150.18 89.63 149.39 90.23 149.27 91.08 Z M 149.14 92.05 L 148.98 93.03 C 148.85 93.88 149.43 94.68 150.28 94.81 C 151.14 94.94 151.93 94.36 152.07 93.51 L 152.22 92.53 C 152.35 91.68 151.77 90.88 150.92 90.75 C 150.07 90.61 149.27 91.20 149.14 92.05 Z M 148.99 93.01 L 148.82 94.00 C 148.67 94.85 149.25 95.65 150.10 95.80 C 150.95 95.94 151.75 95.37 151.90 94.52 L 152.06 93.53 C 152.21 92.68 151.64 91.87 150.79 91.73 C 149.94 91.58 149.13 92.16 148.99 93.01 Z M 148.82 93.98 L 148.64 94.98 C 148.49 95.83 149.05 96.64 149.90 96.79 C 150.75 96.95 151.56 96.39 151.71 95.54 L 151.89 94.54 C 152.05 93.69 151.48 92.88 150.64 92.72 C 149.79 92.57 148.97 93.13 148.82 93.98 Z M 148.64 94.97 L 148.45 95.97 C 148.29 96.81 148.85 97.63 149.70 97.79 C 150.54 97.95 151.36 97.39 151.52 96.55 L 151.71 95.55 C 151.87 94.70 151.31 93.89 150.47 93.72 C 149.62 93.56 148.80 94.12 148.64 94.97 Z M 148.45 95.96 L 148.26 96.94 C 148.09 97.79 148.64 98.61 149.49 98.78 C 150.34 98.94 151.16 98.39 151.32 97.55 L 151.52 96.56 C 151.69 95.71 151.13 94.89 150.29 94.72 C 149.44 94.56 148.62 95.11 148.45 95.96 Z M 148.26 96.94 L 148.07 97.91 C 147.89 98.76 148.44 99.58 149.29 99.75 C 150.13 99.92 150.96 99.37 151.13 98.53 L 151.32 97.55 C 151.49 96.71 150.95 95.89 150.10 95.72 C 149.26 95.55 148.43 96.09 148.26 96.94 Z M 148.07 97.91 L 147.85 98.96 C 147.68 99.81 148.22 100.63 149.06 100.81 C 149.91 100.98 150.73 100.43 150.91 99.59 L 151.12 98.53 C 151.30 97.69 150.75 96.86 149.91 96.69 C 149.06 96.52 148.24 97.06 148.07 97.91 Z M 147.85 98.96 L 147.62 100.05 C 147.45 100.89 147.99 101.72 148.83 101.90 C 149.68 102.07 150.50 101.53 150.68 100.69 L 150.91 99.60 C 151.08 98.75 150.54 97.92 149.70 97.75 C 148.85 97.57 148.03 98.11 147.85 98.96 Z M 147.62 100.04 L 147.40 101.08 C 147.22 101.93 147.76 102.75 148.60 102.93 C 149.45 103.11 150.28 102.58 150.46 101.73 L 150.68 100.69 C 150.86 99.85 150.32 99.02 149.48 98.84 C 148.63 98.66 147.80 99.20 147.62 100.04 Z M 147.40 101.07 L 147.19 102.06 C 147.00 102.90 147.54 103.73 148.38 103.91 C 149.22 104.10 150.05 103.57 150.24 102.72 L 150.45 101.74 C 150.64 100.90 150.11 100.07 149.26 99.88 C 148.42 99.70 147.59 100.23 147.40 101.07 Z M 147.19 102.04 L 146.98 102.96 C 146.79 103.80 147.32 104.64 148.16 104.83 C 149.00 105.02 149.84 104.49 150.03 103.65 L 150.24 102.73 C 150.43 101.89 149.90 101.06 149.06 100.87 C 148.22 100.68 147.38 101.20 147.19 102.04 Z M 146.99 102.95 L 146.79 103.78 C 146.59 104.62 147.11 105.46 147.95 105.66 C 148.79 105.86 149.63 105.34 149.83 104.50 L 150.03 103.66 C 150.22 102.82 149.71 101.98 148.87 101.78 C 148.03 101.59 147.19 102.11 146.99 102.95 Z M 146.79 103.76 L 146.53 104.80 C 146.32 105.63 146.83 106.48 147.67 106.69 C 148.50 106.90 149.35 106.39 149.56 105.56 L 149.82 104.53 C 150.03 103.69 149.53 102.84 148.69 102.63 C 147.85 102.42 147.01 102.93 146.79 103.76 Z M 146.54 104.76 L 146.26 105.79 C 146.03 106.62 146.52 107.48 147.35 107.71 C 148.18 107.94 149.04 107.45 149.27 106.62 L 149.55 105.59 C 149.78 104.76 149.29 103.90 148.46 103.67 C 147.63 103.44 146.77 103.93 146.54 104.76 Z M 146.27 105.76 L 146.00 106.66 C 145.76 107.49 146.23 108.35 147.06 108.60 C 147.88 108.84 148.75 108.37 149.00 107.55 L 149.26 106.65 C 149.51 105.82 149.04 104.95 148.21 104.71 C 147.38 104.46 146.51 104.94 146.27 105.76 Z M 146.01 106.64 L 145.75 107.47 C 145.50 108.29 145.96 109.17 146.78 109.42 C 147.61 109.68 148.48 109.22 148.74 108.39 L 148.99 107.56 C 149.25 106.74 148.79 105.87 147.96 105.61 C 147.14 105.36 146.26 105.82 146.01 106.64 Z M 145.75 107.46 L 145.46 108.41 C 145.20 109.24 145.66 110.11 146.48 110.37 C 147.31 110.63 148.18 110.17 148.44 109.35 L 148.73 108.40 C 148.99 107.57 148.53 106.70 147.71 106.44 C 146.89 106.18 146.01 106.64 145.75 107.46 Z M 145.46 108.41 L 145.16 109.36 C 144.90 110.18 145.35 111.06 146.18 111.32 C 147.00 111.58 147.88 111.12 148.14 110.30 L 148.44 109.35 C 148.70 108.53 148.24 107.65 147.42 107.39 C 146.60 107.13 145.72 107.59 145.46 108.41 Z M 145.16 109.35 L 144.85 110.30 C 144.59 111.12 145.04 112.00 145.86 112.27 C 146.68 112.53 147.56 112.08 147.82 111.26 L 148.13 110.31 C 148.40 109.49 147.95 108.61 147.13 108.35 C 146.31 108.08 145.43 108.53 145.16 109.35 Z M 144.86 110.29 L 144.58 111.12 C 144.31 111.94 144.75 112.82 145.56 113.10 C 146.38 113.37 147.27 112.93 147.54 112.11 L 147.82 111.28 C 148.09 110.46 147.65 109.58 146.83 109.30 C 146.02 109.03 145.13 109.47 144.86 110.29 Z M 144.59 111.10 L 144.28 111.96 C 144.00 112.78 144.42 113.67 145.24 113.95 C 146.05 114.24 146.94 113.81 147.23 113.00 L 147.53 112.14 C 147.82 111.32 147.39 110.43 146.58 110.14 C 145.77 109.86 144.87 110.29 144.59 111.10 Z M 144.29 111.94 L 143.93 112.91 C 143.63 113.71 144.04 114.61 144.84 114.92 C 145.65 115.22 146.55 114.81 146.85 114.00 L 147.22 113.03 C 147.52 112.22 147.11 111.32 146.30 111.02 C 145.49 110.72 144.60 111.13 144.29 111.94 Z M 143.94 112.88 L 143.52 113.95 C 143.20 114.75 143.59 115.66 144.39 115.98 C 145.19 116.29 146.10 115.90 146.42 115.10 L 146.84 114.03 C 147.16 113.23 146.77 112.32 145.97 112.00 C 145.16 111.68 144.26 112.08 143.94 112.88 Z M 143.52 113.93 L 143.16 114.81 C 142.83 115.61 143.21 116.52 144.01 116.85 C 144.81 117.18 145.72 116.80 146.05 116.00 L 146.41 115.12 C 146.74 114.32 146.36 113.41 145.56 113.08 C 144.76 112.75 143.85 113.13 143.52 113.93 Z M 143.16 114.80 L 142.77 115.74 C 142.44 116.54 142.81 117.45 143.60 117.79 C 144.40 118.12 145.31 117.75 145.65 116.95 L 146.04 116.01 C 146.38 115.22 146.00 114.30 145.21 113.97 C 144.41 113.64 143.50 114.01 143.16 114.80 Z M 142.77 115.73 L 142.36 116.70 C 142.02 117.49 142.39 118.41 143.19 118.74 C 143.98 119.08 144.90 118.72 145.23 117.92 L 145.64 116.96 C 145.98 116.17 145.62 115.25 144.82 114.91 C 144.03 114.57 143.11 114.94 142.77 115.73 Z M 142.37 116.69 L 141.96 117.64 C 141.61 118.43 141.98 119.35 142.77 119.69 C 143.56 120.03 144.48 119.67 144.82 118.88 L 145.23 117.93 C 145.57 117.14 145.21 116.22 144.42 115.88 C 143.63 115.53 142.71 115.90 142.37 116.69 Z M 141.96 117.63 L 141.57 118.53 C 141.22 119.32 141.58 120.24 142.37 120.58 C 143.16 120.93 144.08 120.57 144.43 119.78 L 144.82 118.88 C 145.16 118.09 144.80 117.17 144.01 116.83 C 143.23 116.48 142.30 116.84 141.96 117.63 Z M 141.57 118.52 L 141.11 119.55 C 140.76 120.34 141.12 121.26 141.91 121.61 C 142.70 121.96 143.62 121.60 143.97 120.82 L 144.42 119.78 C 144.77 119.00 144.42 118.07 143.63 117.72 C 142.84 117.38 141.92 117.73 141.57 118.52 Z M 141.12 119.54 L 140.69 120.50 C 140.33 121.28 140.68 122.21 141.47 122.56 C 142.26 122.92 143.18 122.56 143.53 121.78 L 143.96 120.82 C 144.32 120.04 143.97 119.11 143.18 118.76 C 142.39 118.41 141.47 118.76 141.12 119.54 Z M 140.69 120.49 L 140.30 121.35 C 139.94 122.13 140.29 123.06 141.07 123.42 C 141.85 123.78 142.78 123.43 143.14 122.65 L 143.53 121.79 C 143.89 121.00 143.54 120.08 142.76 119.72 C 141.98 119.36 141.05 119.71 140.69 120.49 Z M 140.30 121.34 L 139.93 122.14 C 139.57 122.93 139.91 123.85 140.69 124.22 C 141.47 124.58 142.40 124.24 142.76 123.46 L 143.13 122.65 C 143.50 121.87 143.16 120.94 142.37 120.58 C 141.59 120.22 140.66 120.56 140.30 121.34 Z M 139.93 122.14 L 139.51 123.03 C 139.15 123.81 139.48 124.74 140.26 125.10 C 141.05 125.47 141.97 125.13 142.34 124.35 L 142.76 123.46 C 143.12 122.68 142.79 121.75 142.01 121.39 C 141.23 121.02 140.30 121.36 139.93 122.14 Z M 139.52 123.02 L 139.09 123.93 C 138.72 124.71 139.06 125.64 139.84 126.00 C 140.62 126.37 141.55 126.04 141.91 125.26 L 142.34 124.36 C 142.71 123.58 142.37 122.65 141.59 122.28 C 140.81 121.91 139.88 122.24 139.52 123.02 Z M 139.09 123.93 L 138.66 124.83 C 138.30 125.61 138.63 126.54 139.41 126.91 C 140.19 127.28 141.12 126.94 141.49 126.16 L 141.91 125.26 C 142.28 124.48 141.95 123.55 141.17 123.18 C 140.39 122.81 139.46 123.15 139.09 123.93 Z M 138.66 124.83 L 138.24 125.74 C 137.87 126.52 138.21 127.45 138.99 127.81 C 139.77 128.18 140.70 127.84 141.07 127.06 L 141.49 126.16 C 141.86 125.38 141.52 124.45 140.74 124.08 C 139.96 123.72 139.03 124.05 138.66 124.83 Z M 138.24 125.74 L 137.82 126.64 C 137.45 127.43 137.79 128.35 138.58 128.72 C 139.36 129.08 140.29 128.74 140.65 127.96 L 141.07 127.06 C 141.43 126.28 141.09 125.35 140.31 124.98 C 139.53 124.62 138.60 124.96 138.24 125.74 Z M 137.82 126.64 L 137.40 127.55 C 137.03 128.33 137.37 129.26 138.15 129.62 C 138.93 129.99 139.86 129.65 140.22 128.87 L 140.65 127.96 C 141.01 127.18 140.68 126.25 139.90 125.89 C 139.11 125.52 138.19 125.86 137.82 126.64 Z M 137.40 127.54 L 136.97 128.45 C 136.60 129.23 136.93 130.16 137.71 130.53 C 138.48 130.90 139.42 130.57 139.79 129.79 L 140.22 128.88 C 140.59 128.10 140.26 127.17 139.48 126.80 C 138.70 126.43 137.77 126.76 137.40 127.54 Z M 136.97 128.43 L 136.53 129.33 C 136.16 130.11 136.48 131.04 137.25 131.42 C 138.03 131.80 138.96 131.48 139.34 130.70 L 139.78 129.80 C 140.16 129.03 139.84 128.09 139.06 127.72 C 138.29 127.34 137.35 127.66 136.97 128.43 Z M 136.54 129.32 L 136.09 130.22 C 135.71 130.99 136.03 131.93 136.80 132.31 C 137.57 132.70 138.51 132.38 138.89 131.61 L 139.34 130.71 C 139.72 129.94 139.40 129.00 138.63 128.62 C 137.86 128.24 136.92 128.55 136.54 129.32 Z M 136.09 130.22 L 135.65 131.12 C 135.27 131.89 135.59 132.83 136.36 133.21 C 137.13 133.59 138.07 133.28 138.45 132.50 L 138.89 131.60 C 139.28 130.83 138.96 129.90 138.18 129.51 C 137.41 129.13 136.48 129.45 136.09 130.22 Z M 135.65 131.13 L 135.21 132.03 C 134.84 132.80 135.16 133.74 135.94 134.11 C 136.71 134.49 137.65 134.17 138.02 133.39 L 138.46 132.49 C 138.83 131.72 138.51 130.78 137.73 130.41 C 136.96 130.03 136.02 130.36 135.65 131.13 Z M 135.21 132.04 L 134.78 132.94 C 134.41 133.72 134.74 134.65 135.52 135.02 C 136.30 135.39 137.23 135.06 137.60 134.28 L 138.03 133.38 C 138.40 132.60 138.06 131.67 137.28 131.30 C 136.50 130.93 135.57 131.26 135.21 132.04 Z M 134.78 132.95 L 134.35 133.85 C 133.99 134.63 134.33 135.56 135.11 135.93 C 135.89 136.29 136.82 135.95 137.18 135.17 L 137.61 134.27 C 137.97 133.49 137.63 132.56 136.85 132.19 C 136.07 131.83 135.14 132.17 134.78 132.95 Z M 134.36 133.85 L 133.93 134.76 C 133.56 135.54 133.90 136.47 134.68 136.84 C 135.46 137.20 136.39 136.87 136.76 136.09 L 137.18 135.17 C 137.55 134.39 137.21 133.46 136.43 133.10 C 135.65 132.73 134.72 133.07 134.36 133.85 Z M 133.93 134.76 L 133.50 135.66 C 133.13 136.44 133.46 137.37 134.24 137.74 C 135.02 138.11 135.95 137.78 136.32 137.00 L 136.75 136.09 C 137.12 135.32 136.79 134.38 136.01 134.01 C 135.23 133.64 134.30 133.98 133.93 134.76 Z M 133.51 135.65 L 133.07 136.55 C 132.69 137.33 133.01 138.26 133.79 138.64 C 134.56 139.02 135.50 138.69 135.87 137.92 L 136.32 137.01 C 136.69 136.24 136.37 135.30 135.59 134.93 C 134.82 134.55 133.88 134.87 133.51 135.65 Z M 133.08 136.53 L 132.63 137.43 C 132.24 138.20 132.55 139.14 133.32 139.52 C 134.09 139.91 135.03 139.60 135.42 138.83 L 135.87 137.94 C 136.25 137.17 135.94 136.23 135.17 135.84 C 134.40 135.45 133.46 135.76 133.08 136.53 Z M 132.64 137.40 L 132.17 138.29 C 131.77 139.05 132.06 140.00 132.83 140.40 C 133.59 140.80 134.53 140.51 134.94 139.74 L 135.40 138.86 C 135.80 138.09 135.51 137.15 134.75 136.75 C 133.99 136.35 133.04 136.64 132.64 137.40 Z M 132.19 138.26 L 131.70 139.15 C 131.28 139.91 131.55 140.86 132.31 141.27 C 133.06 141.69 134.01 141.42 134.43 140.66 L 134.92 139.77 C 135.34 139.01 135.06 138.07 134.31 137.65 C 133.55 137.23 132.60 137.51 132.19 138.26 Z M 131.71 139.14 L 131.21 140.00 C 130.79 140.75 131.05 141.70 131.80 142.13 C 132.55 142.56 133.50 142.30 133.93 141.55 L 134.42 140.68 C 134.85 139.93 134.58 138.98 133.83 138.55 C 133.09 138.12 132.13 138.39 131.71 139.14 Z M 131.22 140.00 L 130.73 140.84 C 130.30 141.59 130.55 142.54 131.30 142.97 C 132.05 143.40 133.00 143.15 133.43 142.40 L 133.92 141.55 C 134.35 140.81 134.10 139.85 133.35 139.42 C 132.60 138.99 131.65 139.25 131.22 140.00 Z M 130.73 140.84 L 130.26 141.66 C 129.83 142.41 130.09 143.37 130.83 143.79 C 131.58 144.22 132.53 143.97 132.96 143.22 L 133.43 142.40 C 133.86 141.65 133.61 140.70 132.86 140.27 C 132.11 139.84 131.16 140.10 130.73 140.84 Z M 130.26 141.66 L 129.78 142.49 C 129.34 143.24 129.60 144.19 130.34 144.62 C 131.09 145.06 132.04 144.80 132.48 144.06 L 132.96 143.22 C 133.39 142.48 133.14 141.52 132.39 141.09 C 131.65 140.66 130.69 140.91 130.26 141.66 Z M 129.79 142.47 L 129.26 143.35 C 128.82 144.09 129.06 145.05 129.80 145.49 C 130.54 145.94 131.50 145.69 131.94 144.95 L 132.47 144.07 C 132.91 143.33 132.67 142.38 131.93 141.93 C 131.19 141.49 130.23 141.73 129.79 142.47 Z M 129.28 143.33 L 128.73 144.21 C 128.27 144.94 128.49 145.91 129.23 146.36 C 129.96 146.82 130.92 146.59 131.38 145.86 L 131.93 144.98 C 132.38 144.25 132.16 143.28 131.43 142.83 C 130.69 142.37 129.73 142.60 129.28 143.33 Z M 128.74 144.19 L 128.20 145.02 C 127.74 145.74 127.94 146.71 128.67 147.18 C 129.39 147.65 130.36 147.44 130.83 146.71 L 131.36 145.88 C 131.83 145.16 131.62 144.19 130.90 143.73 C 130.17 143.26 129.21 143.47 128.74 144.19 Z M 128.21 145.00 L 127.65 145.85 C 127.17 146.57 127.37 147.54 128.08 148.02 C 128.80 148.50 129.77 148.30 130.25 147.58 L 130.82 146.73 C 131.29 146.01 131.10 145.04 130.38 144.57 C 129.66 144.09 128.69 144.28 128.21 145.00 Z M 127.66 145.84 L 127.08 146.68 C 126.60 147.40 126.78 148.37 127.49 148.85 C 128.21 149.34 129.18 149.16 129.66 148.44 L 130.24 147.60 C 130.72 146.89 130.54 145.91 129.83 145.43 C 129.12 144.94 128.14 145.13 127.66 145.84 Z M 127.09 146.67 L 126.52 147.49 C 126.02 148.20 126.19 149.17 126.90 149.67 C 127.61 150.16 128.58 149.99 129.08 149.28 L 129.65 148.46 C 130.15 147.75 129.97 146.78 129.27 146.28 C 128.56 145.79 127.59 145.96 127.09 146.67 Z M 126.54 147.46 L 125.88 148.34 C 125.37 149.04 125.51 150.01 126.21 150.53 C 126.90 151.04 127.88 150.90 128.39 150.20 L 129.05 149.32 C 129.56 148.63 129.42 147.65 128.73 147.13 C 128.03 146.62 127.06 146.76 126.54 147.46 Z M 125.97 148.24 L 125.31 148.99 C 124.73 149.63 124.79 150.62 125.44 151.19 C 126.08 151.76 127.07 151.70 127.64 151.06 L 128.31 150.31 C 128.88 149.67 128.82 148.68 128.17 148.11 C 127.53 147.53 126.54 147.59 125.97 148.24 Z M 125.50 148.80 L 124.78 149.38 C 124.11 149.92 124.00 150.90 124.54 151.57 C 125.08 152.25 126.06 152.35 126.73 151.82 L 127.45 151.24 C 128.12 150.70 128.23 149.72 127.69 149.05 C 127.15 148.38 126.17 148.27 125.50 148.80 Z M 125.13 149.17 L 124.29 149.54 C 123.51 149.88 123.15 150.81 123.50 151.59 C 123.85 152.38 124.77 152.74 125.56 152.39 L 126.39 152.02 C 127.18 151.68 127.53 150.75 127.19 149.97 C 126.84 149.18 125.92 148.82 125.13 149.17 Z M 124.65 149.43 L 123.70 149.59 C 122.85 149.74 122.29 150.55 122.44 151.40 C 122.59 152.25 123.39 152.82 124.24 152.67 L 125.20 152.50 C 126.04 152.35 126.61 151.54 126.46 150.69 C 126.31 149.84 125.50 149.28 124.65 149.43 Z M 123.93 149.57 L 122.91 149.60 C 122.04 149.63 121.37 150.35 121.39 151.21 C 121.42 152.07 122.14 152.75 123.00 152.72 L 124.02 152.69 C 124.88 152.67 125.56 151.95 125.53 151.08 C 125.51 150.22 124.79 149.54 123.93 149.57 Z M 123.00 149.60 L 122.13 149.58 C 121.27 149.55 120.55 150.23 120.53 151.09 C 120.50 151.96 121.18 152.67 122.05 152.70 L 122.91 152.72 C 123.77 152.75 124.49 152.07 124.51 151.21 C 124.54 150.34 123.86 149.63 123.00 149.60 Z"
      fill="black"
      fill-rule="nonzero" /><path d="M 145.75 115.36 L 146.58 114.79 C 147.29 114.29 147.47 113.32 146.98 112.61 C 146.49 111.90 145.51 111.73 144.81 112.22 L 143.97 112.80 C 143.26 113.29 143.09 114.26 143.58 114.97 C 144.07 115.68 145.04 115.85 145.75 115.36 Z M 146.51 114.84 L 147.36 114.32 C 148.10 113.87 148.33 112.91 147.88 112.17 C 147.44 111.44 146.48 111.20 145.74 111.65 L 144.89 112.17 C 144.15 112.62 143.91 113.58 144.36 114.31 C 144.81 115.05 145.77 115.28 146.51 114.84 Z M 147.19 114.41 L 148.09 114.01 C 148.87 113.66 149.23 112.73 148.87 111.95 C 148.52 111.16 147.60 110.81 146.81 111.16 L 145.91 111.56 C 145.13 111.91 144.77 112.83 145.12 113.62 C 145.48 114.41 146.40 114.76 147.19 114.41 Z M 147.83 114.10 L 148.76 113.86 C 149.60 113.66 150.11 112.81 149.90 111.97 C 149.69 111.14 148.85 110.63 148.01 110.83 L 147.07 111.07 C 146.24 111.28 145.73 112.12 145.93 112.96 C 146.14 113.80 146.99 114.31 147.83 114.10 Z M 148.55 113.90 L 149.53 113.80 C 150.39 113.71 151.01 112.95 150.92 112.09 C 150.83 111.23 150.07 110.61 149.21 110.70 L 148.23 110.80 C 147.37 110.88 146.74 111.65 146.83 112.51 C 146.92 113.37 147.69 113.99 148.55 113.90 Z M 149.41 113.81 L 150.43 113.78 C 151.29 113.76 151.97 113.05 151.95 112.18 C 151.93 111.32 151.21 110.64 150.35 110.66 L 149.33 110.69 C 148.47 110.71 147.79 111.42 147.81 112.29 C 147.83 113.15 148.55 113.83 149.41 113.81 Z M 150.39 113.78 L 151.41 113.78 C 152.27 113.78 152.97 113.08 152.97 112.22 C 152.97 111.36 152.27 110.66 151.40 110.66 L 150.39 110.66 C 149.53 110.66 148.83 111.36 148.83 112.22 C 148.83 113.09 149.53 113.78 150.39 113.78 Z M 151.40 113.78 L 152.41 113.78 C 153.27 113.78 153.97 113.08 153.97 112.22 C 153.97 111.36 153.27 110.66 152.41 110.66 L 151.40 110.66 C 150.54 110.66 149.84 111.36 149.84 112.22 C 149.84 113.08 150.54 113.78 151.40 113.78 Z M 152.41 113.78 L 153.41 113.78 C 154.27 113.78 154.97 113.08 154.97 112.22 C 154.97 111.36 154.27 110.66 153.41 110.66 L 152.41 110.66 C 151.54 110.66 150.85 111.36 150.85 112.22 C 150.85 113.08 151.54 113.78 152.41 113.78 Z M 153.41 113.78 L 154.41 113.78 C 155.27 113.78 155.97 113.08 155.97 112.22 C 155.97 111.36 155.27 110.66 154.41 110.66 L 153.41 110.66 C 152.55 110.66 151.85 111.36 151.85 112.22 C 151.85 113.08 152.55 113.78 153.41 113.78 Z M 154.41 113.78 L 155.40 113.78 C 156.26 113.78 156.96 113.08 156.96 112.22 C 156.96 111.35 156.25 110.66 155.39 110.66 L 154.40 110.66 C 153.54 110.66 152.84 111.36 152.84 112.23 C 152.85 113.09 153.55 113.79 154.41 113.78 Z M 155.42 113.78 L 156.41 113.77 C 157.28 113.75 157.96 113.04 157.95 112.18 C 157.94 111.32 157.23 110.63 156.37 110.64 L 155.37 110.66 C 154.51 110.67 153.82 111.38 153.84 112.24 C 153.85 113.11 154.56 113.79 155.42 113.78 Z M 156.45 113.77 L 157.46 113.73 C 158.32 113.70 158.99 112.97 158.96 112.11 C 158.93 111.25 158.20 110.58 157.34 110.61 L 156.33 110.64 C 155.47 110.68 154.80 111.40 154.83 112.26 C 154.86 113.12 155.59 113.80 156.45 113.77 Z M 157.50 113.73 L 158.46 113.66 C 159.32 113.61 159.98 112.87 159.92 112.01 C 159.87 111.14 159.12 110.49 158.26 110.55 L 157.30 110.61 C 156.44 110.67 155.79 111.41 155.84 112.27 C 155.90 113.13 156.64 113.78 157.50 113.73 Z M 158.49 113.66 L 159.46 113.58 C 160.32 113.51 160.96 112.76 160.89 111.90 C 160.82 111.04 160.07 110.40 159.21 110.47 L 158.24 110.55 C 157.38 110.62 156.74 111.37 156.81 112.23 C 156.88 113.09 157.63 113.73 158.49 113.66 Z M 159.46 113.58 L 160.47 113.50 C 161.33 113.44 161.97 112.68 161.90 111.82 C 161.83 110.97 161.08 110.32 160.22 110.39 L 159.21 110.47 C 158.35 110.54 157.71 111.29 157.78 112.15 C 157.85 113.01 158.60 113.65 159.46 113.58 Z M 160.44 113.51 L 161.49 113.44 C 162.35 113.39 163.01 112.65 162.95 111.78 C 162.90 110.92 162.16 110.27 161.30 110.32 L 160.25 110.39 C 159.39 110.44 158.73 111.18 158.79 112.05 C 158.84 112.91 159.58 113.56 160.44 113.51 Z M 161.45 113.44 L 162.42 113.41 C 163.28 113.37 163.95 112.65 163.92 111.79 C 163.89 110.92 163.16 110.25 162.30 110.29 L 161.33 110.32 C 160.47 110.35 159.80 111.08 159.83 111.94 C 159.87 112.80 160.59 113.48 161.45 113.44 Z M 162.39 113.41 L 163.39 113.39 C 164.25 113.37 164.93 112.66 164.92 111.80 C 164.90 110.94 164.19 110.25 163.33 110.27 L 162.33 110.28 C 161.47 110.30 160.79 111.01 160.80 111.87 C 160.82 112.74 161.53 113.42 162.39 113.41 Z M 163.36 113.39 L 164.37 113.39 C 165.24 113.38 165.93 112.68 165.93 111.82 C 165.93 110.96 165.23 110.26 164.37 110.26 L 163.35 110.27 C 162.49 110.27 161.79 110.97 161.80 111.83 C 161.80 112.69 162.50 113.39 163.36 113.39 Z M 164.36 113.39 L 165.38 113.39 C 166.24 113.40 166.94 112.71 166.95 111.85 C 166.96 110.98 166.27 110.28 165.40 110.27 L 164.38 110.26 C 163.52 110.26 162.82 110.95 162.81 111.81 C 162.80 112.67 163.49 113.38 164.36 113.39 Z M 165.36 113.39 L 166.38 113.41 C 167.24 113.43 167.95 112.74 167.97 111.88 C 167.98 111.02 167.30 110.30 166.43 110.29 L 165.42 110.27 C 164.55 110.26 163.84 110.94 163.83 111.81 C 163.81 112.67 164.50 113.38 165.36 113.39 Z M 166.36 113.41 L 167.37 113.44 C 168.23 113.47 168.95 112.79 168.97 111.93 C 169.00 111.07 168.32 110.35 167.46 110.32 L 166.45 110.29 C 165.59 110.26 164.87 110.94 164.85 111.80 C 164.82 112.67 165.50 113.39 166.36 113.41 Z M 167.34 113.44 L 168.33 113.49 C 169.19 113.53 169.93 112.87 169.97 112.01 C 170.02 111.15 169.35 110.42 168.49 110.37 L 167.49 110.32 C 166.63 110.28 165.90 110.94 165.86 111.80 C 165.81 112.66 166.47 113.40 167.34 113.44 Z M 168.29 113.49 L 169.27 113.57 C 170.13 113.63 170.89 112.99 170.95 112.13 C 171.02 111.27 170.38 110.52 169.52 110.45 L 168.54 110.38 C 167.68 110.31 166.92 110.95 166.86 111.81 C 166.79 112.67 167.43 113.42 168.29 113.49 Z M 169.22 113.56 L 170.22 113.68 C 171.07 113.78 171.85 113.16 171.95 112.31 C 172.05 111.45 171.44 110.68 170.58 110.58 L 169.58 110.46 C 168.72 110.36 167.95 110.97 167.85 111.83 C 167.75 112.69 168.36 113.46 169.22 113.56 Z M 170.17 113.67 L 171.17 113.82 C 172.03 113.95 172.82 113.36 172.95 112.51 C 173.08 111.66 172.49 110.86 171.64 110.73 L 170.63 110.58 C 169.78 110.45 168.98 111.04 168.85 111.89 C 168.73 112.75 169.31 113.54 170.17 113.67 Z M 171.15 113.82 L 172.13 113.99 C 172.98 114.13 173.79 113.56 173.93 112.71 C 174.08 111.86 173.51 111.05 172.66 110.91 L 171.67 110.74 C 170.82 110.59 170.01 111.17 169.87 112.02 C 169.72 112.87 170.30 113.67 171.15 113.82 Z M 172.13 113.98 L 173.09 114.15 C 173.94 114.30 174.75 113.73 174.90 112.88 C 175.04 112.03 174.47 111.22 173.63 111.07 L 172.66 110.91 C 171.81 110.76 171.00 111.33 170.86 112.18 C 170.71 113.03 171.28 113.84 172.13 113.98 Z M 173.12 114.15 L 174.10 114.31 C 174.95 114.44 175.75 113.86 175.89 113.01 C 176.02 112.16 175.44 111.36 174.59 111.23 L 173.60 111.07 C 172.75 110.94 171.95 111.52 171.82 112.37 C 171.68 113.22 172.27 114.02 173.12 114.15 Z M 174.12 114.31 L 175.12 114.46 C 175.97 114.58 176.76 113.99 176.89 113.13 C 177.01 112.28 176.42 111.49 175.56 111.37 L 174.57 111.22 C 173.71 111.10 172.92 111.69 172.80 112.55 C 172.68 113.40 173.27 114.19 174.12 114.31 Z M 175.10 114.45 L 176.08 114.60 C 176.94 114.74 177.73 114.15 177.86 113.30 C 177.99 112.45 177.41 111.65 176.56 111.52 L 175.58 111.37 C 174.72 111.24 173.93 111.82 173.80 112.68 C 173.67 113.53 174.25 114.32 175.10 114.45 Z M 176.03 114.60 L 177.00 114.78 C 177.85 114.94 178.67 114.38 178.83 113.53 C 178.98 112.68 178.42 111.87 177.58 111.71 L 176.61 111.53 C 175.76 111.37 174.94 111.93 174.79 112.77 C 174.63 113.62 175.19 114.44 176.03 114.60 Z M 176.91 114.76 L 177.88 115.00 C 178.71 115.21 179.56 114.71 179.77 113.87 C 179.98 113.03 179.48 112.18 178.64 111.97 L 177.67 111.73 C 176.84 111.52 175.99 112.02 175.78 112.86 C 175.57 113.70 176.07 114.54 176.91 114.76 Z M 177.67 114.93 L 178.58 115.30 C 179.38 115.63 180.29 115.25 180.61 114.45 C 180.94 113.65 180.56 112.74 179.76 112.41 L 178.85 112.04 C 178.05 111.72 177.14 112.10 176.81 112.90 C 176.49 113.69 176.87 114.61 177.67 114.93 Z M 178.24 115.11 L 179.02 115.69 C 179.71 116.20 180.69 116.06 181.20 115.36 C 181.72 114.67 181.57 113.69 180.88 113.18 L 180.10 112.60 C 179.40 112.09 178.43 112.24 177.91 112.93 C 177.40 113.62 177.55 114.60 178.24 115.11 Z M 178.66 115.32 L 179.22 116.14 C 179.71 116.85 180.68 117.03 181.39 116.54 C 182.11 116.05 182.29 115.08 181.80 114.37 L 181.24 113.55 C 180.75 112.84 179.78 112.66 179.06 113.15 C 178.35 113.64 178.17 114.61 178.66 115.32 Z M 179.03 115.75 L 179.32 116.62 C 179.60 117.44 180.49 117.87 181.30 117.60 C 182.12 117.32 182.56 116.43 182.28 115.62 L 181.99 114.75 C 181.71 113.94 180.83 113.50 180.01 113.77 C 179.19 114.05 178.75 114.94 179.03 115.75 Z M 179.26 116.38 L 179.43 117.37 C 179.57 118.22 180.38 118.79 181.23 118.65 C 182.08 118.51 182.65 117.70 182.51 116.85 L 182.34 115.86 C 182.20 115.01 181.40 114.44 180.55 114.58 C 179.69 114.72 179.12 115.53 179.26 116.38 Z M 179.41 117.20 L 179.47 118.25 C 179.52 119.12 180.26 119.77 181.12 119.72 C 181.98 119.67 182.64 118.93 182.59 118.07 L 182.53 117.02 C 182.48 116.16 181.74 115.50 180.88 115.55 C 180.02 115.60 179.36 116.34 179.41 117.20 Z M 179.47 118.13 L 179.45 119.17 C 179.43 120.04 180.12 120.75 180.98 120.77 C 181.84 120.78 182.55 120.10 182.57 119.24 L 182.59 118.19 C 182.61 117.33 181.92 116.62 181.06 116.60 C 180.20 116.58 179.49 117.27 179.47 118.13 Z M 179.46 119.07 L 179.37 120.10 C 179.29 120.96 179.93 121.71 180.79 121.79 C 181.65 121.86 182.40 121.23 182.48 120.37 L 182.57 119.34 C 182.64 118.48 182.00 117.73 181.14 117.65 C 180.29 117.58 179.53 118.21 179.46 119.07 Z M 179.38 120.00 L 179.23 120.98 C 179.10 121.84 179.68 122.63 180.53 122.76 C 181.39 122.89 182.18 122.31 182.31 121.46 L 182.46 120.47 C 182.60 119.62 182.01 118.82 181.16 118.69 C 180.31 118.56 179.51 119.14 179.38 120.00 Z M 179.24 120.90 L 179.04 121.83 C 178.86 122.68 179.40 123.50 180.25 123.68 C 181.09 123.86 181.92 123.33 182.10 122.48 L 182.30 121.55 C 182.48 120.70 181.94 119.87 181.10 119.69 C 180.25 119.51 179.42 120.05 179.24 120.90 Z M 179.06 121.78 L 178.82 122.73 C 178.61 123.56 179.12 124.41 179.95 124.62 C 180.79 124.83 181.64 124.32 181.85 123.49 L 182.09 122.54 C 182.29 121.70 181.79 120.85 180.95 120.64 C 180.11 120.43 179.27 120.94 179.06 121.78 Z M 178.82 122.71 L 178.57 123.69 C 178.35 124.53 178.85 125.38 179.69 125.59 C 180.52 125.81 181.37 125.31 181.59 124.48 L 181.84 123.50 C 182.06 122.66 181.56 121.81 180.73 121.59 C 179.89 121.38 179.04 121.88 178.82 122.71 Z M 178.57 123.70 L 178.33 124.65 C 178.11 125.48 178.62 126.33 179.46 126.54 C 180.29 126.76 181.14 126.25 181.35 125.41 L 181.59 124.47 C 181.80 123.63 181.30 122.78 180.46 122.57 C 179.63 122.36 178.78 122.87 178.57 123.70 Z M 178.32 124.66 L 178.08 125.65 C 177.87 126.49 178.38 127.33 179.22 127.54 C 180.06 127.75 180.90 127.24 181.11 126.40 L 181.36 125.41 C 181.56 124.57 181.05 123.72 180.21 123.52 C 179.38 123.31 178.53 123.82 178.32 124.66 Z M 178.08 125.66 L 177.83 126.66 C 177.63 127.50 178.15 128.34 178.98 128.54 C 179.82 128.75 180.67 128.23 180.87 127.40 L 181.11 126.39 C 181.31 125.55 180.80 124.71 179.96 124.51 C 179.12 124.30 178.28 124.82 178.08 125.66 Z M 177.83 126.66 L 177.60 127.65 C 177.40 128.48 177.92 129.33 178.75 129.53 C 179.59 129.73 180.44 129.21 180.64 128.37 L 180.87 127.39 C 181.07 126.55 180.55 125.71 179.71 125.51 C 178.87 125.31 178.03 125.83 177.83 126.66 Z M 177.60 127.65 L 177.36 128.65 C 177.17 129.49 177.69 130.33 178.53 130.53 C 179.37 130.72 180.21 130.20 180.40 129.36 L 180.64 128.37 C 180.83 127.53 180.31 126.69 179.47 126.49 C 178.63 126.29 177.79 126.81 177.60 127.65 Z M 177.36 128.66 L 177.12 129.68 C 176.93 130.52 177.46 131.36 178.30 131.55 C 179.14 131.75 179.97 131.22 180.17 130.38 L 180.40 129.36 C 180.60 128.52 180.07 127.68 179.23 127.48 C 178.39 127.29 177.55 127.82 177.36 128.66 Z M 177.12 129.69 L 176.91 130.65 C 176.72 131.49 177.25 132.33 178.09 132.52 C 178.93 132.71 179.76 132.18 179.95 131.34 L 180.17 130.37 C 180.36 129.53 179.83 128.70 178.99 128.51 C 178.15 128.32 177.31 128.85 177.12 129.69 Z M 176.91 130.66 L 176.70 131.59 C 176.52 132.43 177.05 133.26 177.89 133.45 C 178.74 133.63 179.57 133.10 179.75 132.26 L 179.96 131.33 C 180.14 130.49 179.61 129.65 178.76 129.47 C 177.92 129.28 177.09 129.82 176.91 130.66 Z M 176.70 131.60 L 176.51 132.50 C 176.33 133.34 176.87 134.17 177.71 134.35 C 178.55 134.53 179.38 133.99 179.56 133.15 L 179.75 132.25 C 179.93 131.40 179.40 130.58 178.55 130.40 C 177.71 130.22 176.88 130.75 176.70 131.60 Z M 176.51 132.50 L 176.32 133.38 C 176.15 134.22 176.69 135.05 177.53 135.23 C 178.38 135.40 179.20 134.86 179.38 134.02 L 179.56 133.14 C 179.74 132.30 179.20 131.47 178.35 131.30 C 177.51 131.12 176.68 131.66 176.51 132.50 Z M 176.32 133.38 L 176.13 134.31 C 175.96 135.15 176.50 135.98 177.34 136.15 C 178.19 136.33 179.01 135.79 179.19 134.94 L 179.38 134.01 C 179.56 133.17 179.01 132.34 178.17 132.17 C 177.32 131.99 176.50 132.54 176.32 133.38 Z M 176.13 134.31 L 175.92 135.32 C 175.75 136.16 176.29 136.99 177.13 137.16 C 177.98 137.34 178.80 136.80 178.98 135.95 L 179.19 134.94 C 179.36 134.10 178.82 133.27 177.98 133.10 C 177.13 132.92 176.31 133.46 176.13 134.31 Z M 175.92 135.32 L 175.69 136.43 C 175.51 137.28 176.05 138.10 176.90 138.28 C 177.74 138.46 178.57 137.92 178.74 137.07 L 178.98 135.95 C 179.16 135.11 178.61 134.28 177.77 134.11 C 176.93 133.93 176.10 134.47 175.92 135.32 Z M 175.69 136.43 L 175.51 137.29 C 175.33 138.13 175.87 138.96 176.71 139.14 C 177.56 139.32 178.38 138.78 178.56 137.93 L 178.74 137.08 C 178.92 136.23 178.38 135.40 177.54 135.23 C 176.70 135.05 175.87 135.59 175.69 136.43 Z M 175.51 137.28 L 175.32 138.14 C 175.14 138.98 175.68 139.82 176.52 140.00 C 177.36 140.18 178.19 139.64 178.38 138.80 L 178.56 137.94 C 178.74 137.10 178.21 136.27 177.36 136.09 C 176.52 135.90 175.69 136.44 175.51 137.28 Z M 175.33 138.13 L 175.12 139.05 C 174.94 139.89 175.47 140.73 176.31 140.91 C 177.15 141.10 177.98 140.57 178.17 139.73 L 178.37 138.81 C 178.56 137.97 178.03 137.13 177.19 136.95 C 176.35 136.76 175.51 137.29 175.33 138.13 Z M 175.12 139.04 L 174.90 140.01 C 174.71 140.85 175.23 141.69 176.07 141.88 C 176.91 142.07 177.75 141.55 177.94 140.71 L 178.17 139.74 C 178.36 138.90 177.84 138.06 177.00 137.87 C 176.15 137.67 175.32 138.20 175.12 139.04 Z M 174.90 140.00 L 174.66 141.02 C 174.46 141.86 174.98 142.70 175.82 142.90 C 176.66 143.10 177.50 142.59 177.70 141.75 L 177.94 140.72 C 178.14 139.88 177.62 139.04 176.79 138.84 C 175.95 138.64 175.10 139.16 174.90 140.00 Z M 174.66 141.01 L 174.39 142.09 C 174.19 142.93 174.70 143.77 175.53 143.98 C 176.37 144.19 177.22 143.68 177.42 142.84 L 177.69 141.76 C 177.90 140.93 177.39 140.08 176.56 139.87 C 175.72 139.66 174.87 140.17 174.66 141.01 Z M 174.40 142.07 L 174.10 143.20 C 173.89 144.04 174.39 144.89 175.22 145.11 C 176.06 145.32 176.91 144.82 177.13 143.99 L 177.42 142.86 C 177.64 142.02 177.14 141.17 176.30 140.95 C 175.47 140.74 174.62 141.24 174.40 142.07 Z M 174.11 143.19 L 173.87 144.07 C 173.65 144.90 174.14 145.75 174.97 145.98 C 175.80 146.21 176.66 145.71 176.89 144.88 L 177.12 144.00 C 177.35 143.17 176.86 142.32 176.02 142.09 C 175.19 141.86 174.33 142.36 174.11 143.19 Z M 173.87 144.05 L 173.62 144.96 C 173.39 145.79 173.88 146.65 174.71 146.88 C 175.54 147.11 176.40 146.63 176.63 145.80 L 176.88 144.89 C 177.11 144.06 176.63 143.20 175.80 142.97 C 174.97 142.74 174.11 143.22 173.87 144.05 Z M 173.63 144.94 L 173.36 145.87 C 173.12 146.70 173.60 147.56 174.43 147.80 C 175.26 148.04 176.12 147.56 176.36 146.73 L 176.63 145.81 C 176.87 144.98 176.39 144.11 175.56 143.88 C 174.73 143.64 173.86 144.12 173.63 144.94 Z M 173.36 145.86 L 173.08 146.80 C 172.84 147.63 173.31 148.50 174.14 148.74 C 174.96 148.99 175.83 148.52 176.08 147.69 L 176.36 146.74 C 176.60 145.92 176.13 145.05 175.30 144.80 C 174.48 144.56 173.61 145.03 173.36 145.86 Z M 173.09 146.79 L 172.79 147.76 C 172.54 148.58 173.01 149.45 173.83 149.70 C 174.66 149.95 175.53 149.49 175.78 148.66 L 176.07 147.70 C 176.32 146.88 175.86 146.00 175.03 145.75 C 174.21 145.50 173.34 145.97 173.09 146.79 Z M 172.80 147.75 L 172.49 148.72 C 172.24 149.55 172.70 150.42 173.52 150.68 C 174.34 150.94 175.22 150.48 175.47 149.65 L 175.78 148.67 C 176.03 147.85 175.57 146.98 174.75 146.72 C 173.93 146.46 173.05 146.92 172.80 147.75 Z M 172.50 148.71 L 172.18 149.71 C 171.92 150.53 172.37 151.41 173.19 151.67 C 174.01 151.93 174.89 151.48 175.15 150.66 L 175.47 149.66 C 175.73 148.84 175.28 147.96 174.46 147.70 C 173.64 147.44 172.76 147.89 172.50 148.71 Z M 172.18 149.70 L 171.85 150.70 C 171.59 151.52 172.03 152.40 172.85 152.67 C 173.67 152.93 174.56 152.49 174.82 151.67 L 175.15 150.67 C 175.42 149.85 174.97 148.96 174.15 148.70 C 173.33 148.43 172.45 148.88 172.18 149.70 Z M 171.86 150.69 L 171.52 151.70 C 171.25 152.51 171.69 153.40 172.51 153.67 C 173.32 153.95 174.21 153.51 174.48 152.69 L 174.82 151.68 C 175.09 150.86 174.65 149.98 173.83 149.70 C 173.02 149.43 172.13 149.87 171.86 150.69 Z M 171.52 151.69 L 171.19 152.66 C 170.91 153.47 171.35 154.36 172.16 154.64 C 172.98 154.92 173.87 154.48 174.15 153.67 L 174.48 152.70 C 174.76 151.88 174.32 150.99 173.51 150.72 C 172.69 150.44 171.80 150.87 171.52 151.69 Z M 171.20 152.65 L 170.86 153.61 C 170.58 154.42 171.01 155.31 171.82 155.60 C 172.63 155.88 173.52 155.45 173.81 154.64 L 174.14 153.68 C 174.43 152.86 174.00 151.97 173.18 151.69 C 172.37 151.40 171.48 151.83 171.20 152.65 Z M 170.86 153.60 L 170.52 154.56 C 170.23 155.38 170.66 156.27 171.47 156.56 C 172.28 156.84 173.18 156.42 173.47 155.61 L 173.81 154.65 C 174.09 153.83 173.67 152.94 172.86 152.65 C 172.04 152.36 171.15 152.79 170.86 153.60 Z M 170.52 154.56 L 170.18 155.51 C 169.89 156.33 170.31 157.22 171.12 157.51 C 171.93 157.80 172.83 157.38 173.12 156.57 L 173.46 155.61 C 173.75 154.80 173.33 153.91 172.52 153.62 C 171.71 153.32 170.82 153.74 170.52 154.56 Z M 170.18 155.51 L 169.83 156.46 C 169.54 157.27 169.96 158.17 170.77 158.46 C 171.58 158.76 172.47 158.34 172.77 157.53 L 173.12 156.58 C 173.41 155.77 172.99 154.87 172.18 154.58 C 171.37 154.28 170.48 154.70 170.18 155.51 Z M 169.84 156.46 L 169.49 157.40 C 169.19 158.21 169.60 159.11 170.41 159.41 C 171.22 159.70 172.12 159.29 172.42 158.48 L 172.77 157.54 C 173.06 156.73 172.65 155.83 171.84 155.53 C 171.03 155.23 170.13 155.65 169.84 156.46 Z M 169.49 157.40 L 169.14 158.33 C 168.84 159.14 169.25 160.04 170.06 160.34 C 170.87 160.64 171.77 160.23 172.07 159.42 L 172.42 158.48 C 172.72 157.68 172.31 156.78 171.50 156.48 C 170.69 156.18 169.79 156.59 169.49 157.40 Z M 169.14 158.33 L 168.80 159.25 C 168.50 160.06 168.91 160.96 169.71 161.26 C 170.52 161.56 171.42 161.15 171.72 160.35 L 172.07 159.42 C 172.37 158.62 171.96 157.72 171.15 157.41 C 170.34 157.11 169.45 157.52 169.14 158.33 Z M 168.80 159.25 L 168.46 160.16 C 168.15 160.97 168.56 161.87 169.37 162.17 C 170.18 162.47 171.08 162.07 171.38 161.26 L 171.72 160.35 C 172.03 159.54 171.62 158.64 170.81 158.34 C 170.00 158.04 169.10 158.44 168.80 159.25 Z M 168.46 160.16 L 168.12 161.06 C 167.81 161.87 168.22 162.77 169.03 163.07 C 169.84 163.38 170.74 162.97 171.04 162.16 L 171.38 161.26 C 171.68 160.45 171.28 159.55 170.47 159.25 C 169.66 158.94 168.76 159.35 168.46 160.16 Z M 168.12 161.06 L 167.73 162.10 C 167.42 162.91 167.83 163.81 168.64 164.11 C 169.44 164.42 170.34 164.01 170.65 163.20 L 171.04 162.16 C 171.34 161.36 170.94 160.45 170.13 160.15 C 169.32 159.85 168.42 160.25 168.12 161.06 Z M 167.73 162.10 L 167.34 163.12 C 167.04 163.92 167.45 164.82 168.25 165.13 C 169.06 165.43 169.96 165.03 170.26 164.22 L 170.65 163.20 C 170.95 162.40 170.54 161.50 169.74 161.19 C 168.93 160.89 168.03 161.30 167.73 162.10 Z M 167.34 163.12 L 166.97 164.10 C 166.67 164.91 167.08 165.81 167.88 166.11 C 168.69 166.42 169.59 166.01 169.89 165.20 L 170.26 164.22 C 170.57 163.41 170.16 162.51 169.35 162.21 C 168.55 161.90 167.65 162.31 167.34 163.12 Z M 166.97 164.10 L 166.61 165.06 C 166.31 165.86 166.72 166.76 167.52 167.07 C 168.33 167.37 169.23 166.96 169.54 166.16 L 169.89 165.20 C 170.20 164.39 169.79 163.49 168.98 163.19 C 168.18 162.89 167.28 163.30 166.97 164.10 Z M 166.61 165.06 L 166.27 165.98 C 165.96 166.79 166.37 167.69 167.18 167.99 C 167.99 168.29 168.89 167.89 169.19 167.08 L 169.54 166.15 C 169.84 165.35 169.43 164.45 168.62 164.14 C 167.81 163.84 166.91 164.25 166.61 165.06 Z M 166.27 165.98 L 165.93 166.88 C 165.63 167.68 166.04 168.58 166.85 168.88 C 167.66 169.19 168.56 168.77 168.86 167.97 L 169.19 167.08 C 169.49 166.27 169.08 165.37 168.27 165.07 C 167.47 164.77 166.57 165.18 166.27 165.98 Z M 165.93 166.88 L 165.61 167.74 C 165.32 168.55 165.73 169.45 166.54 169.74 C 167.35 170.04 168.24 169.63 168.54 168.82 L 168.86 167.96 C 169.16 167.15 168.75 166.26 167.94 165.96 C 167.13 165.66 166.23 166.07 165.93 166.88 Z M 165.61 167.74 L 165.31 168.57 C 165.01 169.38 165.43 170.28 166.24 170.57 C 167.05 170.87 167.94 170.45 168.24 169.64 L 168.54 168.82 C 168.84 168.01 168.43 167.11 167.62 166.81 C 166.81 166.52 165.91 166.93 165.61 167.74 Z M 165.31 168.58 L 164.91 169.67 C 164.62 170.48 165.04 171.38 165.85 171.67 C 166.66 171.96 167.55 171.54 167.85 170.73 L 168.24 169.64 C 168.54 168.83 168.12 167.93 167.31 167.64 C 166.50 167.34 165.60 167.76 165.31 168.58 Z M 164.91 169.68 L 164.54 170.73 C 164.25 171.54 164.67 172.43 165.48 172.72 C 166.30 173.01 167.19 172.59 167.48 171.77 L 167.85 170.72 C 168.14 169.91 167.71 169.02 166.90 168.73 C 166.09 168.44 165.20 168.87 164.91 169.68 Z M 164.53 170.74 L 164.19 171.72 C 163.91 172.53 164.34 173.42 165.15 173.70 C 165.97 173.99 166.86 173.56 167.14 172.74 L 167.48 171.76 C 167.76 170.95 167.33 170.06 166.52 169.78 C 165.71 169.49 164.82 169.92 164.53 170.74 Z M 164.19 171.73 L 163.88 172.63 C 163.60 173.45 164.04 174.33 164.86 174.61 C 165.67 174.89 166.56 174.45 166.84 173.64 L 167.15 172.73 C 167.42 171.92 166.99 171.03 166.17 170.75 C 165.35 170.47 164.47 170.91 164.19 171.73 Z M 163.88 172.64 L 163.60 173.47 C 163.33 174.29 163.78 175.17 164.59 175.44 C 165.41 175.72 166.30 175.27 166.57 174.45 L 166.84 173.62 C 167.11 172.81 166.67 171.92 165.85 171.65 C 165.03 171.38 164.15 171.82 163.88 172.64 Z M 163.60 173.49 L 163.32 174.34 C 163.06 175.17 163.51 176.04 164.33 176.31 C 165.15 176.57 166.03 176.12 166.30 175.30 L 166.57 174.44 C 166.84 173.62 166.38 172.74 165.56 172.48 C 164.74 172.21 163.86 172.66 163.60 173.49 Z M 163.32 174.36 L 162.99 175.43 C 162.74 176.25 163.20 177.13 164.03 177.38 C 164.85 177.63 165.72 177.17 165.98 176.34 L 166.30 175.28 C 166.55 174.45 166.09 173.58 165.27 173.33 C 164.44 173.08 163.57 173.54 163.32 174.36 Z M 162.99 175.45 L 162.71 176.38 C 162.47 177.21 162.94 178.07 163.77 178.32 C 164.60 178.56 165.47 178.09 165.71 177.26 L 165.98 176.33 C 166.22 175.50 165.75 174.63 164.92 174.39 C 164.10 174.15 163.23 174.62 162.99 175.45 Z M 162.71 176.38 L 162.46 177.24 C 162.22 178.07 162.70 178.94 163.53 179.17 C 164.36 179.41 165.22 178.94 165.46 178.11 L 165.71 177.25 C 165.95 176.42 165.47 175.56 164.64 175.32 C 163.82 175.08 162.95 175.56 162.71 176.38 Z M 162.47 177.23 L 162.19 178.15 C 161.95 178.98 162.42 179.85 163.24 180.10 C 164.07 180.34 164.94 179.87 165.18 179.04 L 165.46 178.12 C 165.70 177.29 165.23 176.42 164.41 176.18 C 163.58 175.93 162.71 176.40 162.47 177.23 Z M 162.19 178.15 L 161.91 179.10 C 161.66 179.93 162.12 180.80 162.95 181.05 C 163.77 181.30 164.64 180.83 164.89 180.00 L 165.18 179.05 C 165.43 178.22 164.96 177.35 164.14 177.10 C 163.31 176.86 162.44 177.32 162.19 178.15 Z M 161.90 179.11 L 161.62 180.07 C 161.37 180.90 161.84 181.77 162.67 182.01 C 163.49 182.26 164.36 181.79 164.61 180.96 L 164.90 180.00 C 165.14 179.17 164.67 178.30 163.85 178.06 C 163.02 177.81 162.15 178.28 161.90 179.11 Z M 161.61 180.09 L 161.34 181.05 C 161.10 181.88 161.58 182.75 162.41 182.98 C 163.24 183.22 164.10 182.74 164.34 181.91 L 164.61 180.94 C 164.85 180.11 164.37 179.25 163.54 179.01 C 162.71 178.78 161.85 179.26 161.61 180.09 Z M 161.33 181.07 L 161.07 182.04 C 160.84 182.87 161.33 183.73 162.16 183.95 C 162.99 184.18 163.85 183.69 164.08 182.86 L 164.34 181.89 C 164.57 181.06 164.08 180.20 163.25 179.97 C 162.42 179.75 161.56 180.24 161.33 181.07 Z M 161.07 182.04 L 160.81 183.01 C 160.58 183.84 161.08 184.70 161.91 184.92 C 162.74 185.15 163.60 184.65 163.82 183.82 L 164.08 182.85 C 164.31 182.02 163.81 181.16 162.98 180.94 C 162.15 180.72 161.29 181.21 161.07 182.04 Z M 160.81 183.01 L 160.56 183.92 C 160.34 184.75 160.83 185.61 161.66 185.83 C 162.50 186.05 163.35 185.56 163.58 184.73 L 163.82 183.82 C 164.05 182.99 163.55 182.13 162.72 181.91 C 161.89 181.68 161.03 182.18 160.81 183.01 Z M 160.57 183.91 L 160.32 184.80 C 160.09 185.63 160.58 186.49 161.41 186.72 C 162.24 186.95 163.10 186.46 163.33 185.63 L 163.57 184.74 C 163.80 183.91 163.32 183.05 162.49 182.82 C 161.66 182.59 160.80 183.08 160.57 183.91 Z M 160.32 184.79 L 160.04 185.76 C 159.80 186.59 160.28 187.45 161.11 187.69 C 161.94 187.93 162.81 187.45 163.04 186.62 L 163.32 185.65 C 163.56 184.82 163.08 183.95 162.25 183.72 C 161.43 183.48 160.56 183.96 160.32 184.79 Z M 160.05 185.74 L 159.73 186.79 C 159.49 187.62 159.96 188.49 160.78 188.73 C 161.61 188.98 162.48 188.51 162.73 187.68 L 163.04 186.64 C 163.29 185.81 162.82 184.94 161.99 184.69 C 161.16 184.45 160.29 184.92 160.05 185.74 Z M 159.74 186.78 L 159.47 187.64 C 159.22 188.46 159.68 189.34 160.50 189.59 C 161.33 189.85 162.20 189.38 162.46 188.56 L 162.72 187.70 C 162.98 186.87 162.51 186.00 161.69 185.74 C 160.87 185.49 159.99 185.95 159.74 186.78 Z M 159.48 187.63 L 159.18 188.56 C 158.92 189.38 159.38 190.26 160.20 190.52 C 161.02 190.78 161.90 190.32 162.16 189.50 L 162.45 188.57 C 162.71 187.75 162.26 186.87 161.43 186.61 C 160.61 186.35 159.74 186.81 159.48 187.63 Z M 159.19 188.55 L 158.87 189.53 C 158.60 190.35 159.05 191.23 159.87 191.49 C 160.69 191.76 161.57 191.31 161.84 190.49 L 162.15 189.51 C 162.42 188.69 161.97 187.81 161.15 187.55 C 160.33 187.28 159.45 187.73 159.19 188.55 Z M 158.87 189.51 L 158.54 190.52 C 158.26 191.34 158.70 192.22 159.52 192.50 C 160.34 192.77 161.22 192.33 161.50 191.51 L 161.83 190.50 C 162.11 189.69 161.66 188.80 160.85 188.53 C 160.03 188.26 159.14 188.70 158.87 189.51 Z M 158.54 190.51 L 158.19 191.51 C 157.91 192.32 158.35 193.21 159.16 193.49 C 159.98 193.77 160.87 193.34 161.15 192.53 L 161.49 191.52 C 161.77 190.71 161.34 189.82 160.53 189.54 C 159.71 189.26 158.82 189.69 158.54 190.51 Z M 158.20 191.49 L 157.86 192.45 C 157.57 193.27 157.99 194.16 158.81 194.45 C 159.62 194.74 160.51 194.31 160.80 193.50 L 161.14 192.54 C 161.43 191.73 161.01 190.84 160.19 190.55 C 159.38 190.26 158.49 190.68 158.20 191.49 Z M 157.86 192.44 L 157.52 193.39 C 157.22 194.20 157.64 195.10 158.45 195.39 C 159.25 195.69 160.15 195.27 160.45 194.46 L 160.80 193.51 C 161.09 192.70 160.67 191.81 159.86 191.51 C 159.06 191.21 158.16 191.63 157.86 192.44 Z M 157.52 193.38 L 157.17 194.32 C 156.87 195.13 157.28 196.03 158.08 196.33 C 158.89 196.63 159.79 196.22 160.09 195.41 L 160.44 194.47 C 160.75 193.67 160.34 192.77 159.53 192.46 C 158.72 192.16 157.82 192.57 157.52 193.38 Z M 157.17 194.31 L 156.82 195.24 C 156.51 196.04 156.92 196.94 157.73 197.25 C 158.53 197.56 159.43 197.15 159.74 196.34 L 160.09 195.42 C 160.40 194.61 159.99 193.71 159.18 193.41 C 158.38 193.10 157.48 193.51 157.17 194.31 Z M 156.82 195.23 L 156.47 196.14 C 156.16 196.95 156.56 197.85 157.37 198.16 C 158.17 198.47 159.08 198.07 159.39 197.26 L 159.74 196.35 C 160.05 195.54 159.64 194.64 158.84 194.33 C 158.03 194.02 157.13 194.42 156.82 195.23 Z M 156.47 196.14 L 156.10 197.10 C 155.79 197.90 156.19 198.80 156.99 199.12 C 157.80 199.43 158.70 199.03 159.01 198.22 L 159.39 197.27 C 159.70 196.46 159.30 195.56 158.49 195.25 C 157.69 194.94 156.79 195.33 156.47 196.14 Z M 156.10 197.09 L 155.74 198.03 C 155.42 198.83 155.82 199.74 156.62 200.05 C 157.42 200.37 158.33 199.97 158.64 199.17 L 159.01 198.23 C 159.33 197.43 158.93 196.52 158.13 196.21 C 157.33 195.89 156.42 196.29 156.10 197.09 Z M 155.74 198.02 L 155.37 198.94 C 155.05 199.74 155.44 200.65 156.25 200.97 C 157.05 201.29 157.95 200.90 158.27 200.10 L 158.64 199.18 C 158.96 198.38 158.57 197.47 157.77 197.15 C 156.97 196.83 156.06 197.22 155.74 198.02 Z M 155.38 198.93 L 155.01 199.85 C 154.68 200.64 155.07 201.55 155.87 201.88 C 156.67 202.20 157.58 201.82 157.90 201.02 L 158.27 200.11 C 158.59 199.31 158.21 198.40 157.41 198.07 C 156.61 197.75 155.70 198.14 155.38 198.93 Z M 155.01 199.83 L 154.63 200.75 C 154.31 201.54 154.68 202.46 155.48 202.78 C 156.28 203.11 157.19 202.74 157.52 201.94 L 157.90 201.03 C 158.23 200.23 157.85 199.32 157.05 198.99 C 156.25 198.66 155.34 199.04 155.01 199.83 Z M 154.64 200.74 L 154.25 201.65 C 153.92 202.45 154.29 203.36 155.08 203.70 C 155.88 204.04 156.79 203.66 157.13 202.87 L 157.52 201.95 C 157.85 201.15 157.48 200.24 156.68 199.90 C 155.89 199.57 154.97 199.94 154.64 200.74 Z M 154.25 201.65 L 153.86 202.57 C 153.52 203.36 153.89 204.28 154.68 204.61 C 155.47 204.95 156.39 204.59 156.73 203.79 L 157.12 202.88 C 157.46 202.08 157.10 201.17 156.30 200.83 C 155.51 200.49 154.59 200.85 154.25 201.65 Z M 153.86 202.56 L 153.47 203.48 C 153.12 204.27 153.49 205.19 154.28 205.53 C 155.07 205.87 155.99 205.51 156.33 204.72 L 156.73 203.80 C 157.07 203.01 156.71 202.09 155.92 201.75 C 155.12 201.40 154.20 201.77 153.86 202.56 Z M 153.47 203.48 L 153.07 204.40 C 152.73 205.19 153.09 206.11 153.88 206.45 C 154.67 206.79 155.59 206.43 155.93 205.64 L 156.33 204.72 C 156.68 203.93 156.31 203.01 155.52 202.66 C 154.73 202.32 153.81 202.69 153.47 203.48 Z M 153.07 204.40 L 152.69 205.27 C 152.35 206.06 152.72 206.98 153.51 207.32 C 154.30 207.66 155.22 207.30 155.56 206.51 L 155.94 205.64 C 156.28 204.84 155.91 203.93 155.12 203.58 C 154.33 203.24 153.41 203.61 153.07 204.40 Z M 152.69 205.27 L 152.32 206.13 C 151.98 206.92 152.35 207.84 153.14 208.18 C 153.93 208.52 154.85 208.16 155.19 207.37 L 155.56 206.51 C 155.90 205.71 155.54 204.80 154.74 204.46 C 153.95 204.11 153.03 204.48 152.69 205.27 Z M 152.32 206.13 L 151.94 207.02 C 151.60 207.81 151.96 208.73 152.75 209.07 C 153.54 209.41 154.46 209.05 154.80 208.26 L 155.19 207.37 C 155.53 206.58 155.17 205.66 154.37 205.32 C 153.58 204.97 152.66 205.34 152.32 206.13 Z M 151.94 207.01 L 151.54 207.95 C 151.19 208.74 151.55 209.66 152.35 210.00 C 153.14 210.34 154.06 209.98 154.40 209.19 L 154.80 208.26 C 155.15 207.47 154.78 206.55 153.99 206.20 C 153.20 205.86 152.28 206.22 151.94 207.01 Z M 151.54 207.94 L 151.10 208.93 C 150.76 209.72 151.12 210.64 151.91 210.99 C 152.70 211.33 153.62 210.97 153.96 210.18 L 154.40 209.19 C 154.74 208.40 154.38 207.48 153.59 207.14 C 152.80 206.79 151.88 207.15 151.54 207.94 Z M 151.11 208.92 L 150.70 209.84 C 150.35 210.63 150.71 211.55 151.50 211.90 C 152.29 212.25 153.21 211.89 153.56 211.10 L 153.96 210.19 C 154.31 209.40 153.95 208.48 153.17 208.13 C 152.38 207.78 151.46 208.14 151.11 208.92 Z M 150.70 209.83 L 150.32 210.69 C 149.97 211.48 150.32 212.40 151.11 212.76 C 151.90 213.11 152.82 212.76 153.17 211.97 L 153.55 211.11 C 153.91 210.32 153.55 209.40 152.77 209.05 C 151.98 208.69 151.06 209.05 150.70 209.83 Z M 150.32 210.69 L 149.92 211.58 C 149.56 212.37 149.91 213.29 150.70 213.65 C 151.48 214.00 152.41 213.65 152.76 212.87 L 153.17 211.97 C 153.52 211.19 153.17 210.26 152.39 209.91 C 151.60 209.55 150.68 209.90 150.32 210.69 Z M 149.92 211.57 L 149.50 212.49 C 149.14 213.28 149.48 214.20 150.27 214.56 C 151.05 214.92 151.98 214.58 152.34 213.79 L 152.76 212.88 C 153.12 212.09 152.78 211.17 151.99 210.81 C 151.21 210.45 150.28 210.79 149.92 211.57 Z M 149.50 212.48 L 149.07 213.42 C 148.70 214.20 149.04 215.13 149.82 215.49 C 150.60 215.86 151.53 215.52 151.90 214.74 L 152.33 213.80 C 152.70 213.02 152.36 212.09 151.58 211.73 C 150.80 211.36 149.87 211.70 149.50 212.48 Z M 149.07 213.41 L 148.62 214.35 C 148.25 215.13 148.58 216.06 149.36 216.43 C 150.14 216.80 151.07 216.47 151.44 215.69 L 151.89 214.75 C 152.26 213.97 151.93 213.04 151.15 212.67 C 150.38 212.30 149.44 212.63 149.07 213.41 Z M 148.63 214.33 L 148.17 215.28 C 147.79 216.05 148.11 216.99 148.89 217.36 C 149.66 217.74 150.60 217.42 150.98 216.64 L 151.44 215.70 C 151.81 214.93 151.49 213.99 150.72 213.62 C 149.94 213.24 149.01 213.56 148.63 214.33 Z M 148.18 215.26 L 147.69 216.23 C 147.31 217.00 147.62 217.94 148.39 218.32 C 149.16 218.71 150.10 218.40 150.49 217.63 L 150.97 216.66 C 151.36 215.89 151.04 214.95 150.27 214.56 C 149.50 214.18 148.56 214.49 148.18 215.26 Z M 147.70 216.21 L 147.22 217.16 C 146.82 217.93 147.13 218.87 147.89 219.26 C 148.66 219.66 149.60 219.35 149.99 218.59 L 150.48 217.64 C 150.87 216.87 150.57 215.93 149.80 215.54 C 149.04 215.14 148.09 215.45 147.70 216.21 Z M 147.22 217.15 L 146.74 218.07 C 146.34 218.84 146.64 219.78 147.40 220.18 C 148.16 220.58 149.11 220.28 149.51 219.52 L 149.99 218.60 C 150.39 217.83 150.09 216.89 149.33 216.49 C 148.56 216.09 147.62 216.39 147.22 217.15 Z M 146.75 218.06 L 146.27 218.95 C 145.87 219.71 146.16 220.65 146.92 221.06 C 147.68 221.46 148.63 221.17 149.03 220.41 L 149.50 219.53 C 149.91 218.77 149.62 217.82 148.86 217.42 C 148.10 217.01 147.15 217.30 146.75 218.06 Z M 146.28 218.94 L 145.82 219.78 C 145.41 220.54 145.70 221.49 146.46 221.90 C 147.22 222.31 148.16 222.02 148.57 221.26 L 149.03 220.42 C 149.44 219.66 149.15 218.72 148.39 218.31 C 147.64 217.90 146.69 218.18 146.28 218.94 Z M 145.83 219.77 L 145.40 220.56 C 144.98 221.32 145.26 222.27 146.02 222.68 C 146.77 223.10 147.72 222.82 148.14 222.06 L 148.57 221.27 C 148.98 220.51 148.70 219.57 147.95 219.15 C 147.19 218.74 146.24 219.02 145.83 219.77 Z M 145.40 220.56 L 144.88 221.49 C 144.47 222.25 144.74 223.20 145.49 223.61 C 146.25 224.03 147.20 223.76 147.62 223.00 L 148.13 222.07 C 148.55 221.31 148.28 220.36 147.52 219.95 C 146.77 219.53 145.82 219.80 145.40 220.56 Z M 144.89 221.48 L 144.36 222.41 C 143.94 223.16 144.21 224.12 144.96 224.54 C 145.71 224.96 146.66 224.70 147.09 223.94 L 147.61 223.01 C 148.03 222.26 147.77 221.31 147.02 220.89 C 146.26 220.46 145.31 220.73 144.89 221.48 Z M 144.37 222.39 L 143.88 223.24 C 143.45 223.99 143.71 224.94 144.45 225.37 C 145.20 225.81 146.15 225.55 146.59 224.81 L 147.08 223.96 C 147.51 223.22 147.25 222.26 146.51 221.83 C 145.76 221.40 144.81 221.65 144.37 222.39 Z M 143.90 223.22 L 143.42 224.00 C 142.98 224.74 143.22 225.70 143.95 226.15 C 144.69 226.59 145.65 226.35 146.10 225.62 L 146.57 224.83 C 147.02 224.09 146.78 223.13 146.04 222.69 C 145.30 222.24 144.34 222.48 143.90 223.22 Z M 143.44 223.98 L 142.94 224.76 C 142.48 225.49 142.70 226.45 143.43 226.92 C 144.16 227.38 145.12 227.16 145.58 226.43 L 146.08 225.64 C 146.54 224.92 146.32 223.95 145.59 223.49 C 144.87 223.03 143.90 223.25 143.44 223.98 Z M 142.96 224.73 L 142.40 225.58 C 141.92 226.30 142.11 227.27 142.83 227.75 C 143.55 228.23 144.52 228.03 145.00 227.31 L 145.56 226.46 C 146.04 225.74 145.85 224.77 145.13 224.30 C 144.41 223.82 143.44 224.01 142.96 224.73 Z M 142.41 225.56 L 141.84 226.39 C 141.35 227.10 141.53 228.07 142.23 228.56 C 142.94 229.05 143.92 228.88 144.41 228.17 L 144.98 227.34 C 145.47 226.63 145.29 225.66 144.59 225.17 C 143.88 224.67 142.90 224.85 142.41 225.56 Z M 141.85 226.37 L 141.28 227.17 C 140.78 227.87 140.94 228.85 141.64 229.35 C 142.34 229.85 143.32 229.69 143.82 228.99 L 144.39 228.19 C 144.89 227.48 144.73 226.51 144.03 226.01 C 143.33 225.51 142.35 225.67 141.85 226.37 Z M 141.29 227.16 L 140.70 227.97 C 140.19 228.66 140.34 229.64 141.04 230.15 C 141.73 230.66 142.71 230.50 143.22 229.81 L 143.81 229.00 C 144.32 228.30 144.17 227.33 143.47 226.82 C 142.78 226.31 141.80 226.46 141.29 227.16 Z M 140.71 227.96 L 140.10 228.78 C 139.58 229.47 139.73 230.45 140.42 230.96 C 141.11 231.48 142.09 231.33 142.60 230.64 L 143.21 229.82 C 143.73 229.12 143.58 228.15 142.89 227.63 C 142.20 227.12 141.22 227.26 140.71 227.96 Z M 140.10 228.78 L 139.51 229.57 C 138.99 230.26 139.13 231.24 139.83 231.75 C 140.52 232.27 141.49 232.12 142.01 231.43 L 142.60 230.64 C 143.12 229.95 142.97 228.97 142.28 228.46 C 141.59 227.94 140.61 228.08 140.10 228.78 Z M 139.51 229.57 L 138.94 230.34 C 138.42 231.03 138.56 232.01 139.26 232.52 C 139.95 233.04 140.93 232.89 141.44 232.20 L 142.01 231.43 C 142.53 230.74 142.38 229.76 141.69 229.25 C 141.00 228.73 140.02 228.88 139.51 229.57 Z M 138.93 230.34 L 138.39 231.08 C 137.88 231.77 138.02 232.75 138.72 233.26 C 139.41 233.77 140.39 233.63 140.90 232.93 L 141.44 232.20 C 141.96 231.50 141.81 230.52 141.12 230.01 C 140.42 229.50 139.44 229.65 138.93 230.34 Z M 138.39 231.07 L 137.82 231.84 C 137.30 232.53 137.45 233.51 138.14 234.02 C 138.83 234.54 139.80 234.40 140.32 233.71 L 140.89 232.94 C 141.41 232.25 141.27 231.27 140.58 230.75 C 139.89 230.24 138.91 230.38 138.39 231.07 Z M 137.83 231.82 L 137.19 232.66 C 136.66 233.34 136.79 234.32 137.47 234.85 C 138.15 235.37 139.14 235.25 139.66 234.56 L 140.31 233.72 C 140.83 233.04 140.71 232.06 140.02 231.54 C 139.34 231.01 138.36 231.14 137.83 231.82 Z M 137.20 232.64 L 136.56 233.45 C 136.02 234.12 136.13 235.11 136.80 235.64 C 137.48 236.18 138.46 236.07 139.00 235.40 L 139.64 234.59 C 140.18 233.91 140.07 232.93 139.40 232.39 C 138.72 231.85 137.74 231.96 137.20 232.64 Z M 136.57 233.43 L 135.94 234.20 C 135.39 234.87 135.48 235.85 136.15 236.40 C 136.81 236.95 137.80 236.85 138.35 236.19 L 138.98 235.42 C 139.53 234.75 139.43 233.77 138.77 233.22 C 138.10 232.67 137.12 232.77 136.57 233.43 Z M 135.95 234.18 L 135.28 234.97 C 134.72 235.63 134.80 236.61 135.46 237.17 C 136.12 237.73 137.10 237.65 137.66 236.99 L 138.33 236.21 C 138.89 235.55 138.81 234.56 138.15 234.00 C 137.50 233.45 136.51 233.53 135.95 234.18 Z M 135.30 234.95 L 134.62 235.72 C 134.05 236.36 134.11 237.35 134.76 237.92 C 135.40 238.49 136.39 238.43 136.96 237.79 L 137.64 237.01 C 138.21 236.37 138.15 235.38 137.50 234.81 C 136.86 234.24 135.87 234.30 135.30 234.95 Z M 134.64 235.69 L 133.98 236.41 C 133.39 237.04 133.43 238.03 134.06 238.62 C 134.70 239.20 135.69 239.16 136.27 238.53 L 136.94 237.81 C 137.52 237.18 137.48 236.19 136.85 235.61 C 136.22 235.02 135.23 235.06 134.64 235.69 Z M 134.03 236.36 L 133.09 237.28 C 132.47 237.89 132.46 238.88 133.07 239.49 C 133.67 240.11 134.66 240.12 135.27 239.51 L 136.22 238.58 C 136.83 237.98 136.84 236.99 136.24 236.38 C 135.64 235.76 134.65 235.75 134.03 236.36 Z M 133.25 237.14 L 132.44 237.74 C 131.75 238.26 131.60 239.23 132.11 239.93 C 132.63 240.62 133.60 240.77 134.30 240.25 L 135.11 239.65 C 135.80 239.14 135.95 238.16 135.43 237.47 C 134.92 236.78 133.94 236.63 133.25 237.14 Z M 133.11 237.46 L 132.52 237.56 C 131.67 237.70 131.10 238.51 131.24 239.36 C 131.39 240.21 132.19 240.78 133.04 240.64 L 133.63 240.54 C 134.48 240.39 135.05 239.59 134.91 238.74 C 134.76 237.89 133.96 237.32 133.11 237.46 Z M 134.12 238.29 L 133.76 237.69 C 133.31 236.95 132.35 236.71 131.62 237.16 C 130.88 237.60 130.64 238.56 131.08 239.30 L 131.44 239.90 C 131.89 240.64 132.85 240.88 133.59 240.44 C 134.33 239.99 134.56 239.03 134.12 238.29 Z M 133.97 238.31 L 133.83 237.20 C 133.73 236.34 132.95 235.73 132.09 235.84 C 131.24 235.94 130.63 236.72 130.73 237.58 L 130.87 238.69 C 130.98 239.54 131.75 240.15 132.61 240.04 C 133.47 239.94 134.07 239.16 133.97 238.31 Z M 133.84 237.31 L 133.81 236.73 C 133.77 235.87 133.04 235.21 132.18 235.25 C 131.31 235.29 130.65 236.03 130.70 236.89 L 130.72 237.46 C 130.77 238.32 131.50 238.99 132.36 238.94 C 133.22 238.90 133.89 238.17 133.84 237.31 Z"
      fill="black"
      fill-rule="nonzero" /></svg>