<svg xmlns="http://www.w3.org/2000/svg" width="300" height="300" viewBox="0 0 300 300">
<path d="M 87.95 127.97 L 88.36 128.87 C 88.72 129.65 89.65 130.00 90.44 129.64 C 91.22 129.28 91.56 128.35 91.20 127.57 L 90.79 126.66 C 90.43 125.88 89.50 125.54 88.71 125.90 C 87.93 126.26 87.59 127.18 87.95 127.97 Z M 88.39 128.93 L 88.84 129.81 C 89.23 130.58 90.17 130.89 90.94 130.50 C 91.71 130.11 92.02 129.17 91.63 128.40 L 91.17 127.51 C 90.78 126.74 89.84 126.44 89.07 126.83 C 88.31 127.22 88.00 128.16 88.39 128.93 Z M 88.90 129.92 L 89.43 130.78 C 89.88 131.51 90.84 131.74 91.58 131.29 C 92.31 130.84 92.54 129.88 92.09 129.15 L 91.57 128.29 C 91.11 127.55 90.15 127.32 89.42 127.77 C 88.68 128.23 88.45 129.19 88.90 129.92 Z M 89.52 130.92 L 90.12 131.69 C 90.65 132.37 91.63 132.50 92.31 131.97 C 93.00 131.45 93.12 130.47 92.59 129.78 L 92.00 129.01 C 91.47 128.33 90.49 128.20 89.81 128.73 C 89.12 129.25 89.00 130.23 89.52 130.92 Z M 90.22 131.81 L 90.90 132.53 C 91.49 133.16 92.48 133.19 93.11 132.60 C 93.74 132.01 93.77 131.02 93.18 130.39 L 92.50 129.67 C 91.91 129.04 90.92 129.01 90.29 129.60 C 89.66 130.19 89.63 131.18 90.22 131.81 Z M 90.98 132.61 L 91.73 133.30 C 92.37 133.88 93.35 133.84 93.94 133.20 C 94.52 132.57 94.48 131.58 93.84 131.00 L 93.09 130.31 C 92.46 129.73 91.47 129.77 90.89 130.41 C 90.31 131.04 90.35 132.03 90.98 132.61 Z M 91.80 133.36 L 92.54 133.96 C 93.20 134.51 94.19 134.41 94.73 133.74 C 95.28 133.07 95.18 132.09 94.51 131.54 L 93.77 130.94 C 93.11 130.39 92.12 130.49 91.58 131.16 C 91.03 131.83 91.13 132.81 91.80 133.36 Z M 92.59 134.00 L 93.29 134.52 C 93.99 135.04 94.96 134.89 95.48 134.20 C 95.99 133.51 95.85 132.53 95.16 132.02 L 94.46 131.50 C 93.76 130.98 92.79 131.13 92.27 131.82 C 91.76 132.51 91.90 133.49 92.59 134.00 Z M 93.36 134.57 L 94.14 135.10 C 94.86 135.58 95.83 135.38 96.31 134.67 C 96.79 133.95 96.60 132.98 95.88 132.50 L 95.09 131.97 C 94.38 131.49 93.41 131.69 92.93 132.40 C 92.45 133.12 92.64 134.09 93.36 134.57 Z M 94.20 135.13 L 95.12 135.69 C 95.86 136.14 96.82 135.91 97.27 135.17 C 97.71 134.43 97.48 133.47 96.74 133.02 L 95.82 132.47 C 95.09 132.02 94.13 132.25 93.68 132.99 C 93.23 133.73 93.46 134.69 94.20 135.13 Z M 95.17 135.72 L 96.16 136.28 C 96.91 136.70 97.87 136.43 98.29 135.68 C 98.71 134.93 98.44 133.97 97.69 133.55 L 96.70 133.00 C 95.94 132.57 94.99 132.84 94.57 133.59 C 94.15 134.35 94.42 135.30 95.17 135.72 Z M 96.19 136.29 L 97.04 136.75 C 97.80 137.15 98.75 136.86 99.15 136.10 C 99.56 135.34 99.27 134.39 98.51 133.99 L 97.66 133.54 C 96.90 133.13 95.95 133.42 95.55 134.18 C 95.14 134.94 95.43 135.89 96.19 136.29 Z M 97.06 136.75 L 97.97 137.22 C 98.73 137.62 99.67 137.32 100.07 136.55 C 100.47 135.79 100.17 134.85 99.40 134.45 L 98.49 133.98 C 97.73 133.58 96.78 133.88 96.39 134.65 C 95.99 135.42 96.29 136.36 97.06 136.75 Z M 97.98 137.23 L 98.91 137.70 C 99.68 138.09 100.62 137.79 101.01 137.02 C 101.40 136.25 101.09 135.31 100.32 134.92 L 99.39 134.44 C 98.62 134.05 97.68 134.36 97.29 135.13 C 96.90 135.90 97.21 136.84 97.98 137.23 Z M 98.92 137.71 L 99.85 138.17 C 100.62 138.56 101.55 138.25 101.94 137.48 C 102.33 136.71 102.02 135.77 101.25 135.38 L 100.32 134.92 C 99.55 134.53 98.61 134.84 98.22 135.61 C 97.84 136.38 98.15 137.32 98.92 137.71 Z M 99.85 138.17 L 100.74 138.62 C 101.51 139.01 102.45 138.70 102.83 137.93 C 103.22 137.16 102.91 136.22 102.14 135.83 L 101.25 135.38 C 100.48 135.00 99.54 135.31 99.15 136.08 C 98.77 136.85 99.08 137.79 99.85 138.17 Z M 100.74 138.62 L 101.65 139.08 C 102.42 139.47 103.36 139.16 103.75 138.39 C 104.14 137.63 103.83 136.69 103.06 136.30 L 102.14 135.83 C 101.37 135.44 100.43 135.75 100.05 136.52 C 99.66 137.29 99.97 138.23 100.74 138.62 Z M 101.64 139.08 L 102.67 139.61 C 103.43 140.00 104.38 139.70 104.77 138.94 C 105.17 138.17 104.87 137.23 104.10 136.83 L 103.08 136.30 C 102.31 135.91 101.37 136.21 100.97 136.97 C 100.58 137.74 100.88 138.68 101.64 139.08 Z M 102.65 139.60 L 103.53 140.07 C 104.29 140.48 105.24 140.20 105.64 139.44 C 106.05 138.68 105.77 137.73 105.01 137.32 L 104.13 136.85 C 103.37 136.44 102.42 136.72 102.01 137.48 C 101.60 138.24 101.89 139.19 102.65 139.60 Z M 103.50 140.05 L 104.28 140.50 C 105.03 140.93 105.98 140.67 106.41 139.92 C 106.83 139.17 106.57 138.22 105.83 137.79 L 105.04 137.34 C 104.30 136.91 103.34 137.17 102.91 137.92 C 102.49 138.67 102.75 139.63 103.50 140.05 Z M 104.23 140.47 L 104.95 140.92 C 105.69 141.37 106.65 141.14 107.10 140.40 C 107.55 139.67 107.32 138.71 106.59 138.26 L 105.87 137.81 C 105.13 137.36 104.17 137.59 103.72 138.33 C 103.27 139.06 103.50 140.02 104.23 140.47 Z M 104.91 140.89 L 105.63 141.36 C 106.35 141.84 107.32 141.64 107.79 140.93 C 108.27 140.21 108.07 139.24 107.35 138.76 L 106.63 138.28 C 105.91 137.81 104.95 138.01 104.47 138.72 C 103.99 139.44 104.19 140.41 104.91 140.89 Z M 105.60 141.34 L 106.35 141.87 C 107.06 142.36 108.03 142.19 108.53 141.48 C 109.02 140.78 108.85 139.80 108.14 139.31 L 107.38 138.78 C 106.68 138.29 105.70 138.46 105.21 139.17 C 104.72 139.88 104.89 140.85 105.60 141.34 Z M 106.34 141.86 L 107.19 142.47 C 107.89 142.97 108.86 142.80 109.36 142.10 C 109.87 141.40 109.70 140.42 109.00 139.92 L 108.15 139.32 C 107.45 138.82 106.47 138.98 105.97 139.68 C 105.47 140.39 105.64 141.36 106.34 141.86 Z M 107.19 142.47 L 108.15 143.15 C 108.85 143.65 109.83 143.49 110.33 142.78 C 110.83 142.08 110.66 141.11 109.96 140.61 L 109.00 139.92 C 108.30 139.42 107.32 139.59 106.82 140.29 C 106.32 140.99 106.49 141.97 107.19 142.47 Z M 108.16 143.16 L 108.93 143.70 C 109.64 144.20 110.61 144.03 111.11 143.32 C 111.60 142.62 111.43 141.64 110.73 141.15 L 109.95 140.60 C 109.25 140.11 108.27 140.28 107.78 140.98 C 107.28 141.69 107.45 142.66 108.16 143.16 Z M 108.94 143.71 L 109.78 144.29 C 110.48 144.78 111.46 144.60 111.95 143.90 C 112.44 143.19 112.27 142.22 111.56 141.72 L 110.72 141.14 C 110.02 140.65 109.04 140.82 108.55 141.53 C 108.06 142.24 108.23 143.21 108.94 143.71 Z M 109.78 144.29 L 110.65 144.89 C 111.36 145.38 112.33 145.20 112.82 144.49 C 113.31 143.78 113.13 142.80 112.42 142.31 L 111.55 141.72 C 110.84 141.23 109.87 141.41 109.38 142.12 C 108.89 142.83 109.07 143.80 109.78 144.29 Z M 110.65 144.89 L 111.52 145.48 C 112.23 145.97 113.20 145.78 113.69 145.07 C 114.17 144.36 113.99 143.38 113.28 142.90 L 112.41 142.31 C 111.70 141.82 110.73 142.01 110.24 142.72 C 109.76 143.43 109.94 144.41 110.65 144.89 Z M 111.53 145.49 L 112.36 146.05 C 113.08 146.53 114.05 146.34 114.53 145.62 C 115.01 144.91 114.82 143.94 114.10 143.45 L 113.27 142.89 C 112.55 142.41 111.58 142.60 111.10 143.32 C 110.62 144.03 110.81 145.00 111.53 145.49 Z M 112.37 146.05 L 113.19 146.60 C 113.91 147.07 114.88 146.87 115.36 146.15 C 115.83 145.43 115.63 144.47 114.91 143.99 L 114.09 143.45 C 113.37 142.97 112.40 143.17 111.93 143.89 C 111.45 144.61 111.65 145.58 112.37 146.05 Z M 113.21 146.61 L 114.18 147.23 C 114.91 147.70 115.88 147.48 116.34 146.76 C 116.81 146.03 116.59 145.07 115.87 144.60 L 114.90 143.98 C 114.17 143.51 113.20 143.73 112.74 144.45 C 112.27 145.18 112.49 146.14 113.21 146.61 Z M 114.21 147.25 L 115.07 147.77 C 115.80 148.22 116.76 147.99 117.21 147.25 C 117.66 146.52 117.43 145.56 116.70 145.11 L 115.84 144.58 C 115.11 144.13 114.14 144.37 113.69 145.10 C 113.24 145.84 113.48 146.80 114.21 147.25 Z M 115.09 147.79 L 115.88 148.25 C 116.63 148.68 117.58 148.43 118.02 147.68 C 118.45 146.94 118.20 145.98 117.45 145.55 L 116.67 145.09 C 115.92 144.66 114.97 144.91 114.53 145.65 C 114.10 146.40 114.35 147.35 115.09 147.79 Z M 115.91 148.26 L 116.68 148.69 C 117.44 149.11 118.39 148.85 118.81 148.09 C 119.23 147.34 118.96 146.39 118.21 145.97 L 117.43 145.53 C 116.68 145.11 115.73 145.38 115.31 146.14 C 114.88 146.89 115.15 147.84 115.91 148.26 Z M 116.70 148.70 L 117.54 149.16 C 118.30 149.57 119.24 149.29 119.65 148.53 C 120.06 147.77 119.78 146.82 119.02 146.41 L 118.19 145.96 C 117.43 145.55 116.48 145.83 116.07 146.59 C 115.66 147.35 115.94 148.29 116.70 148.70 Z M 117.55 149.17 L 118.43 149.63 C 119.19 150.03 120.13 149.73 120.54 148.97 C 120.94 148.21 120.64 147.26 119.88 146.86 L 119.01 146.40 C 118.24 146.00 117.30 146.29 116.90 147.06 C 116.50 147.82 116.79 148.76 117.55 149.17 Z M 118.44 149.63 L 119.35 150.10 C 120.12 150.49 121.06 150.19 121.45 149.42 C 121.84 148.65 121.54 147.71 120.77 147.32 L 119.87 146.85 C 119.10 146.46 118.16 146.76 117.77 147.53 C 117.37 148.30 117.68 149.24 118.44 149.63 Z M 119.37 150.11 L 120.29 150.57 C 121.07 150.95 122.00 150.64 122.39 149.87 C 122.77 149.10 122.46 148.16 121.69 147.77 L 120.76 147.31 C 119.99 146.93 119.05 147.24 118.66 148.01 C 118.28 148.78 118.59 149.72 119.37 150.11 Z M 120.31 150.58 L 121.10 150.96 C 121.88 151.34 122.81 151.02 123.19 150.24 C 123.57 149.46 123.24 148.53 122.47 148.15 L 121.67 147.77 C 120.90 147.39 119.96 147.71 119.59 148.49 C 119.21 149.26 119.53 150.20 120.31 150.58 Z M 121.12 150.97 L 121.96 151.36 C 122.74 151.73 123.67 151.40 124.04 150.62 C 124.40 149.84 124.07 148.91 123.29 148.54 L 122.45 148.15 C 121.67 147.78 120.74 148.11 120.37 148.89 C 120.01 149.67 120.34 150.60 121.12 150.97 Z M 121.98 151.37 L 122.88 151.78 C 123.66 152.14 124.59 151.79 124.94 151.01 C 125.30 150.22 124.95 149.30 124.17 148.94 L 123.27 148.53 C 122.48 148.17 121.56 148.52 121.20 149.31 C 120.85 150.09 121.19 151.02 121.98 151.37 Z M 122.90 151.79 L 123.88 152.22 C 124.67 152.57 125.59 152.21 125.94 151.41 C 126.28 150.62 125.92 149.70 125.13 149.36 L 124.15 148.93 C 123.36 148.58 122.44 148.95 122.09 149.74 C 121.75 150.53 122.11 151.45 122.90 151.79 Z M 123.90 152.23 L 124.93 152.66 C 125.73 153.00 126.64 152.62 126.98 151.83 C 127.31 151.03 126.94 150.12 126.14 149.78 L 125.11 149.35 C 124.32 149.02 123.40 149.39 123.07 150.19 C 122.74 150.98 123.11 151.90 123.90 152.23 Z M 124.95 152.67 L 125.84 153.03 C 126.64 153.36 127.55 152.97 127.87 152.17 C 128.20 151.37 127.81 150.46 127.01 150.14 L 126.13 149.78 C 125.33 149.45 124.42 149.83 124.09 150.63 C 123.77 151.43 124.15 152.34 124.95 152.67 Z M 125.85 153.03 L 126.78 153.41 C 127.58 153.73 128.49 153.34 128.81 152.54 C 129.13 151.74 128.74 150.83 127.94 150.51 L 127.00 150.13 C 126.20 149.81 125.30 150.20 124.98 151.01 C 124.66 151.81 125.05 152.71 125.85 153.03 Z M 126.79 153.41 L 127.75 153.79 C 128.55 154.10 129.46 153.71 129.77 152.91 C 130.09 152.11 129.69 151.20 128.89 150.88 L 127.93 150.51 C 127.13 150.19 126.22 150.58 125.91 151.39 C 125.59 152.19 125.99 153.09 126.79 153.41 Z M 127.75 153.79 L 128.72 154.17 C 129.52 154.48 130.42 154.08 130.74 153.28 C 131.05 152.48 130.66 151.57 129.85 151.26 L 128.89 150.88 C 128.08 150.57 127.18 150.96 126.87 151.77 C 126.55 152.57 126.95 153.48 127.75 153.79 Z M 128.72 154.17 L 129.67 154.54 C 130.47 154.85 131.38 154.45 131.69 153.65 C 132.00 152.84 131.60 151.94 130.80 151.63 L 129.85 151.26 C 129.05 150.94 128.14 151.34 127.83 152.15 C 127.52 152.95 127.91 153.86 128.72 154.17 Z M 129.67 154.54 L 130.58 154.89 C 131.38 155.20 132.29 154.80 132.60 154.00 C 132.91 153.20 132.51 152.29 131.71 151.98 L 130.80 151.63 C 129.99 151.31 129.09 151.71 128.78 152.52 C 128.47 153.32 128.86 154.22 129.67 154.54 Z M 130.58 154.89 L 131.49 155.25 C 132.30 155.56 133.20 155.16 133.51 154.36 C 133.83 153.55 133.43 152.65 132.63 152.34 L 131.71 151.98 C 130.91 151.67 130.00 152.06 129.69 152.87 C 129.38 153.67 129.77 154.58 130.58 154.89 Z M 131.49 155.25 L 132.38 155.59 C 133.18 155.91 134.09 155.51 134.40 154.71 C 134.71 153.90 134.32 153.00 133.51 152.68 L 132.63 152.34 C 131.83 152.02 130.92 152.42 130.61 153.22 C 130.29 154.03 130.69 154.93 131.49 155.25 Z M 132.38 155.59 L 133.25 155.93 C 134.05 156.25 134.96 155.85 135.27 155.05 C 135.59 154.25 135.19 153.34 134.39 153.03 L 133.52 152.68 C 132.71 152.37 131.81 152.76 131.49 153.57 C 131.18 154.37 131.57 155.28 132.38 155.59 Z M 133.25 155.93 L 134.14 156.29 C 134.94 156.60 135.85 156.21 136.17 155.40 C 136.48 154.60 136.09 153.70 135.29 153.38 L 134.39 153.03 C 133.59 152.71 132.68 153.11 132.37 153.91 C 132.05 154.71 132.45 155.62 133.25 155.93 Z M 134.14 156.28 L 135.09 156.66 C 135.89 156.97 136.80 156.58 137.11 155.78 C 137.43 154.98 137.04 154.07 136.23 153.75 L 135.29 153.38 C 134.48 153.06 133.58 153.46 133.26 154.26 C 132.95 155.06 133.34 155.97 134.14 156.28 Z M 135.09 156.66 L 136.12 157.07 C 136.93 157.38 137.83 156.99 138.15 156.19 C 138.47 155.38 138.07 154.48 137.27 154.16 L 136.23 153.75 C 135.43 153.44 134.53 153.83 134.21 154.63 C 133.89 155.44 134.29 156.34 135.09 156.66 Z M 136.12 157.07 L 137.05 157.43 C 137.85 157.75 138.76 157.35 139.07 156.55 C 139.39 155.75 138.99 154.84 138.19 154.52 L 137.27 154.16 C 136.47 153.85 135.56 154.24 135.24 155.04 C 134.93 155.84 135.32 156.75 136.12 157.07 Z M 137.05 157.43 L 137.99 157.80 C 138.79 158.12 139.70 157.72 140.02 156.92 C 140.33 156.12 139.94 155.21 139.14 154.90 L 138.19 154.52 C 137.39 154.21 136.48 154.60 136.17 155.40 C 135.85 156.21 136.24 157.11 137.05 157.43 Z M 137.99 157.80 L 138.97 158.19 C 139.77 158.50 140.68 158.11 140.99 157.31 C 141.31 156.51 140.92 155.60 140.12 155.28 L 139.14 154.90 C 138.34 154.58 137.43 154.97 137.11 155.78 C 136.79 156.58 137.19 157.48 137.99 157.80 Z M 138.96 158.19 L 139.95 158.58 C 140.75 158.90 141.66 158.51 141.98 157.70 C 142.30 156.90 141.91 156.00 141.10 155.68 L 140.12 155.29 C 139.32 154.97 138.41 155.36 138.09 156.16 C 137.77 156.96 138.16 157.87 138.96 158.19 Z M 139.95 158.58 L 140.92 158.97 C 141.72 159.29 142.63 158.90 142.95 158.10 C 143.27 157.30 142.88 156.39 142.08 156.07 L 141.11 155.68 C 140.31 155.36 139.40 155.75 139.08 156.55 C 138.76 157.35 139.15 158.26 139.95 158.58 Z M 140.92 158.96 L 141.85 159.34 C 142.65 159.66 143.56 159.28 143.88 158.48 C 144.21 157.68 143.82 156.77 143.02 156.45 L 142.08 156.07 C 141.29 155.75 140.38 156.13 140.05 156.93 C 139.73 157.73 140.12 158.64 140.92 158.96 Z M 141.84 159.34 L 142.72 159.70 C 143.52 160.02 144.43 159.64 144.75 158.84 C 145.08 158.05 144.70 157.13 143.90 156.81 L 143.03 156.45 C 142.23 156.12 141.32 156.51 140.99 157.30 C 140.66 158.10 141.05 159.01 141.84 159.34 Z M 142.71 159.69 L 143.65 160.09 C 144.45 160.42 145.36 160.05 145.70 159.25 C 146.03 158.45 145.65 157.54 144.86 157.21 L 143.91 156.81 C 143.12 156.48 142.20 156.85 141.87 157.65 C 141.54 158.45 141.91 159.36 142.71 159.69 Z M 143.63 160.08 L 144.78 160.58 C 145.57 160.92 146.49 160.56 146.83 159.77 C 147.18 158.98 146.82 158.06 146.03 157.72 L 144.88 157.22 C 144.09 156.87 143.17 157.23 142.82 158.02 C 142.48 158.81 142.84 159.73 143.63 160.08 Z M 144.74 160.56 L 145.66 160.99 C 146.44 161.35 147.37 161.02 147.73 160.23 C 148.10 159.45 147.76 158.52 146.98 158.16 L 146.06 157.73 C 145.28 157.37 144.35 157.71 143.99 158.49 C 143.62 159.27 143.96 160.20 144.74 160.56 Z M 145.61 160.97 L 146.37 161.35 C 147.13 161.74 148.07 161.43 148.46 160.67 C 148.85 159.90 148.55 158.96 147.78 158.57 L 147.02 158.18 C 146.25 157.79 145.32 158.10 144.92 158.87 C 144.53 159.64 144.84 160.58 145.61 160.97 Z M 146.32 161.32 L 146.99 161.70 C 147.74 162.12 148.69 161.84 149.11 161.09 C 149.53 160.33 149.26 159.38 148.50 158.97 L 147.83 158.59 C 147.08 158.18 146.12 158.45 145.71 159.20 C 145.29 159.96 145.56 160.91 146.32 161.32 Z M 146.94 161.67 L 147.80 162.18 C 148.53 162.63 149.49 162.39 149.94 161.65 C 150.38 160.91 150.14 159.95 149.40 159.51 L 148.55 158.99 C 147.81 158.55 146.85 158.79 146.41 159.53 C 145.96 160.27 146.20 161.23 146.94 161.67 Z M 147.75 162.15 L 148.58 162.70 C 149.31 163.17 150.27 162.96 150.74 162.24 C 151.21 161.52 151.01 160.55 150.28 160.08 L 149.45 159.54 C 148.73 159.07 147.76 159.27 147.29 159.99 C 146.82 160.72 147.03 161.68 147.75 162.15 Z M 148.54 162.67 L 149.37 163.24 C 150.07 163.74 151.05 163.56 151.54 162.86 C 152.03 162.15 151.86 161.18 151.15 160.68 L 150.33 160.11 C 149.62 159.61 148.65 159.79 148.15 160.49 C 147.66 161.20 147.83 162.17 148.54 162.67 Z M 149.33 163.22 L 150.12 163.80 C 150.82 164.32 151.79 164.17 152.31 163.48 C 152.82 162.79 152.67 161.81 151.98 161.30 L 151.19 160.71 C 150.50 160.20 149.52 160.34 149.00 161.03 C 148.49 161.73 148.64 162.70 149.33 163.22 Z M 150.09 163.78 L 150.88 164.39 C 151.56 164.92 152.54 164.80 153.07 164.12 C 153.60 163.45 153.48 162.46 152.80 161.93 L 152.01 161.32 C 151.33 160.79 150.35 160.91 149.82 161.59 C 149.29 162.27 149.41 163.25 150.09 163.78 Z M 150.85 164.37 L 151.63 165.01 C 152.29 165.56 153.27 165.46 153.82 164.80 C 154.37 164.13 154.28 163.15 153.61 162.60 L 152.83 161.96 C 152.17 161.41 151.18 161.51 150.63 162.17 C 150.08 162.84 150.18 163.82 150.85 164.37 Z M 151.59 164.98 L 152.35 165.64 C 153.01 166.21 153.99 166.14 154.56 165.49 C 155.12 164.84 155.05 163.85 154.40 163.29 L 153.64 162.63 C 152.99 162.06 152.00 162.13 151.44 162.78 C 150.87 163.43 150.94 164.42 151.59 164.98 Z M 152.33 165.62 L 153.07 166.29 C 153.71 166.87 154.70 166.82 155.28 166.18 C 155.85 165.54 155.80 164.55 155.16 163.98 L 154.42 163.31 C 153.78 162.73 152.80 162.78 152.22 163.42 C 151.64 164.06 151.69 165.05 152.33 165.62 Z M 153.06 166.29 L 153.80 166.96 C 154.44 167.54 155.42 167.50 156.01 166.87 C 156.59 166.23 156.55 165.24 155.91 164.66 L 155.17 163.98 C 154.54 163.40 153.55 163.44 152.97 164.08 C 152.38 164.72 152.43 165.70 153.06 166.29 Z M 153.81 166.97 L 154.55 167.64 C 155.19 168.22 156.18 168.17 156.76 167.53 C 157.34 166.90 157.29 165.91 156.65 165.33 L 155.91 164.66 C 155.27 164.08 154.28 164.12 153.70 164.76 C 153.12 165.40 153.17 166.39 153.81 166.97 Z M 154.57 167.66 L 155.31 168.31 C 155.96 168.88 156.95 168.82 157.52 168.17 C 158.09 167.52 158.02 166.54 157.37 165.97 L 156.63 165.31 C 155.98 164.74 155.00 164.81 154.43 165.46 C 153.86 166.10 153.92 167.09 154.57 167.66 Z M 155.34 168.33 L 156.10 168.98 C 156.76 169.53 157.74 169.45 158.30 168.79 C 158.85 168.13 158.77 167.14 158.11 166.59 L 157.35 165.95 C 156.69 165.39 155.71 165.47 155.15 166.13 C 154.59 166.79 154.68 167.78 155.34 168.33 Z M 156.13 169.00 L 156.91 169.63 C 157.58 170.17 158.56 170.06 159.10 169.39 C 159.64 168.72 159.54 167.74 158.87 167.20 L 158.08 166.57 C 157.41 166.03 156.43 166.13 155.89 166.80 C 155.35 167.47 155.45 168.46 156.13 169.00 Z M 156.94 169.65 L 157.73 170.26 C 158.42 170.79 159.40 170.66 159.92 169.97 C 160.45 169.29 160.32 168.31 159.63 167.78 L 158.84 167.17 C 158.15 166.65 157.17 166.78 156.65 167.46 C 156.12 168.15 156.25 169.13 156.94 169.65 Z M 157.77 170.29 L 158.57 170.87 C 159.27 171.38 160.24 171.22 160.75 170.52 C 161.26 169.83 161.10 168.85 160.41 168.34 L 159.60 167.76 C 158.90 167.25 157.93 167.41 157.42 168.10 C 156.91 168.80 157.07 169.78 157.77 170.29 Z M 158.61 170.89 L 159.43 171.46 C 160.14 171.95 161.12 171.77 161.60 171.06 C 162.09 170.35 161.91 169.38 161.20 168.89 L 160.37 168.32 C 159.66 167.83 158.69 168.01 158.20 168.72 C 157.71 169.44 157.89 170.41 158.61 170.89 Z M 159.47 171.49 L 160.32 172.03 C 161.04 172.50 162.01 172.29 162.47 171.57 C 162.94 170.84 162.73 169.88 162.01 169.41 L 161.16 168.86 C 160.44 168.40 159.47 168.60 159.00 169.33 C 158.54 170.05 158.75 171.02 159.47 171.49 Z M 160.36 172.06 L 161.22 172.58 C 161.96 173.03 162.92 172.79 163.37 172.05 C 163.81 171.31 163.57 170.35 162.84 169.91 L 161.97 169.38 C 161.23 168.94 160.27 169.18 159.82 169.91 C 159.38 170.65 159.62 171.61 160.36 172.06 Z M 161.26 172.60 L 162.14 173.10 C 162.89 173.52 163.84 173.26 164.27 172.51 C 164.69 171.76 164.43 170.80 163.68 170.38 L 162.80 169.88 C 162.05 169.46 161.10 169.72 160.67 170.47 C 160.25 171.22 160.51 172.18 161.26 172.60 Z M 162.17 173.11 L 163.05 173.59 C 163.80 173.99 164.75 173.71 165.16 172.95 C 165.57 172.19 165.28 171.24 164.52 170.83 L 163.65 170.36 C 162.89 169.96 161.94 170.24 161.53 171.00 C 161.12 171.76 161.41 172.71 162.17 173.11 Z M 163.07 173.60 L 163.91 174.03 C 164.68 174.43 165.62 174.13 166.01 173.36 C 166.41 172.59 166.11 171.65 165.34 171.26 L 164.50 170.82 C 163.73 170.43 162.79 170.73 162.40 171.49 C 162.00 172.26 162.30 173.20 163.07 173.60 Z M 163.93 174.04 L 164.70 174.42 C 165.47 174.81 166.41 174.49 166.79 173.72 C 167.18 172.95 166.86 172.01 166.09 171.63 L 165.32 171.24 C 164.55 170.86 163.61 171.18 163.23 171.95 C 162.84 172.72 163.16 173.66 163.93 174.04 Z M 164.73 174.44 L 165.57 174.83 C 166.35 175.20 167.28 174.86 167.65 174.08 C 168.01 173.30 167.67 172.37 166.89 172.00 L 166.06 171.61 C 165.28 171.25 164.35 171.58 163.98 172.36 C 163.62 173.14 163.95 174.07 164.73 174.44 Z M 165.61 174.85 L 166.57 175.27 C 167.36 175.62 168.28 175.26 168.63 174.47 C 168.97 173.68 168.61 172.76 167.82 172.41 L 166.86 171.99 C 166.07 171.64 165.15 172.00 164.80 172.79 C 164.46 173.58 164.82 174.50 165.61 174.85 Z M 166.60 175.28 L 167.70 175.73 C 168.50 176.06 169.41 175.68 169.74 174.89 C 170.07 174.09 169.69 173.18 168.89 172.85 L 167.79 172.40 C 166.99 172.07 166.08 172.45 165.75 173.25 C 165.43 174.04 165.81 174.95 166.60 175.28 Z M 167.72 175.74 L 168.60 176.09 C 169.40 176.41 170.31 176.01 170.63 175.21 C 170.94 174.41 170.55 173.50 169.75 173.19 L 168.87 172.84 C 168.07 172.52 167.16 172.92 166.84 173.72 C 166.52 174.52 166.92 175.43 167.72 175.74 Z M 168.61 176.09 L 169.56 176.46 C 170.36 176.77 171.27 176.38 171.58 175.57 C 171.89 174.77 171.49 173.86 170.69 173.55 L 169.74 173.18 C 168.93 172.87 168.03 173.27 167.72 174.07 C 167.41 174.88 167.81 175.78 168.61 176.09 Z M 169.56 176.46 L 170.54 176.84 C 171.35 177.15 172.25 176.75 172.56 175.94 C 172.87 175.14 172.47 174.24 171.66 173.93 L 170.68 173.55 C 169.88 173.24 168.97 173.64 168.66 174.45 C 168.36 175.25 168.76 176.15 169.56 176.46 Z M 170.54 176.84 L 171.52 177.22 C 172.33 177.53 173.23 177.13 173.54 176.32 C 173.85 175.52 173.45 174.61 172.64 174.30 L 171.66 173.93 C 170.86 173.62 169.96 174.02 169.65 174.82 C 169.34 175.63 169.74 176.53 170.54 176.84 Z M 171.52 177.22 L 172.47 177.58 C 173.27 177.89 174.17 177.50 174.49 176.69 C 174.80 175.89 174.40 174.98 173.59 174.67 L 172.65 174.31 C 171.84 173.99 170.94 174.39 170.63 175.20 C 170.32 176.00 170.72 176.90 171.52 177.22 Z M 172.46 177.58 L 173.33 177.93 C 174.13 178.24 175.04 177.85 175.36 177.05 C 175.67 176.25 175.28 175.34 174.48 175.02 L 173.60 174.68 C 172.80 174.36 171.89 174.75 171.58 175.55 C 171.26 176.36 171.65 177.26 172.46 177.58 Z M 173.31 177.92 L 174.43 178.38 C 175.23 178.71 176.14 178.33 176.47 177.53 C 176.80 176.73 176.42 175.82 175.62 175.49 L 174.50 175.03 C 173.70 174.70 172.79 175.08 172.46 175.88 C 172.13 176.68 172.51 177.59 173.31 177.92 Z M 174.40 178.36 L 175.35 178.78 C 176.14 179.13 177.06 178.77 177.41 177.98 C 177.76 177.19 177.40 176.27 176.61 175.92 L 175.65 175.50 C 174.86 175.16 173.94 175.52 173.59 176.31 C 173.25 177.10 173.61 178.02 174.40 178.36 Z M 175.32 178.77 L 176.14 179.16 C 176.92 179.52 177.85 179.19 178.22 178.41 C 178.59 177.63 178.25 176.70 177.47 176.33 L 176.64 175.94 C 175.86 175.57 174.93 175.91 174.57 176.69 C 174.20 177.47 174.54 178.40 175.32 178.77 Z M 176.11 179.14 L 176.87 179.52 C 177.64 179.91 178.58 179.60 178.96 178.83 C 179.35 178.05 179.04 177.12 178.27 176.73 L 177.51 176.35 C 176.74 175.96 175.80 176.27 175.41 177.04 C 175.03 177.81 175.34 178.75 176.11 179.14 Z M 176.84 179.51 L 177.66 179.94 C 178.43 180.34 179.37 180.05 179.77 179.29 C 180.17 178.53 179.88 177.58 179.12 177.18 L 178.30 176.74 C 177.54 176.34 176.59 176.63 176.19 177.40 C 175.79 178.16 176.08 179.10 176.84 179.51 Z M 177.64 179.93 L 178.49 180.40 C 179.24 180.81 180.19 180.54 180.61 179.78 C 181.03 179.03 180.75 178.08 180.00 177.66 L 179.15 177.19 C 178.39 176.78 177.44 177.05 177.03 177.80 C 176.61 178.56 176.88 179.51 177.64 179.93 Z M 178.47 180.38 L 179.35 180.89 C 180.09 181.32 181.05 181.06 181.48 180.31 C 181.91 179.56 181.65 178.61 180.90 178.18 L 180.02 177.68 C 179.27 177.25 178.32 177.50 177.89 178.25 C 177.46 179.00 177.72 179.95 178.47 180.38 Z M 179.33 180.88 L 180.23 181.41 C 180.97 181.85 181.93 181.61 182.37 180.86 C 182.81 180.12 182.56 179.17 181.82 178.73 L 180.92 178.19 C 180.18 177.75 179.22 178.00 178.78 178.74 C 178.34 179.48 178.58 180.44 179.33 180.88 Z M 180.21 181.40 L 181.04 181.91 C 181.78 182.36 182.74 182.13 183.19 181.39 C 183.64 180.65 183.41 179.69 182.67 179.24 L 181.84 178.74 C 181.10 178.29 180.14 178.52 179.69 179.26 C 179.24 179.99 179.47 180.95 180.21 181.40 Z M 181.03 181.90 L 181.88 182.43 C 182.61 182.89 183.57 182.67 184.03 181.94 C 184.49 181.21 184.27 180.25 183.54 179.79 L 182.69 179.26 C 181.96 178.80 180.99 179.02 180.54 179.75 C 180.08 180.48 180.30 181.44 181.03 181.90 Z M 181.86 182.42 L 182.71 182.98 C 183.43 183.45 184.40 183.25 184.87 182.52 C 185.34 181.80 185.14 180.83 184.42 180.36 L 183.56 179.81 C 182.84 179.33 181.88 179.54 181.40 180.26 C 180.93 180.98 181.13 181.95 181.86 182.42 Z M 182.68 182.96 L 183.51 183.53 C 184.22 184.02 185.19 183.83 185.68 183.12 C 186.17 182.41 185.99 181.44 185.28 180.95 L 184.45 180.38 C 183.73 179.89 182.76 180.08 182.27 180.79 C 181.79 181.50 181.97 182.47 182.68 182.96 Z M 183.47 183.50 L 184.31 184.11 C 185.01 184.62 185.99 184.47 186.49 183.77 C 187.00 183.07 186.85 182.10 186.15 181.59 L 185.31 180.98 C 184.61 180.47 183.64 180.62 183.13 181.32 C 182.62 182.02 182.78 182.99 183.47 183.50 Z M 184.28 184.09 L 185.09 184.71 C 185.77 185.23 186.75 185.10 187.27 184.41 C 187.80 183.73 187.67 182.75 186.98 182.23 L 186.18 181.61 C 185.50 181.09 184.52 181.22 183.99 181.90 C 183.47 182.59 183.60 183.57 184.28 184.09 Z M 185.07 184.69 L 185.84 185.30 C 186.52 185.84 187.50 185.72 188.03 185.04 C 188.57 184.37 188.45 183.39 187.78 182.85 L 187.00 182.24 C 186.33 181.71 185.34 181.82 184.81 182.50 C 184.28 183.18 184.39 184.16 185.07 184.69 Z M 185.84 185.30 L 186.59 185.90 C 187.26 186.44 188.25 186.33 188.78 185.65 C 189.32 184.98 189.21 184.00 188.54 183.46 L 187.78 182.86 C 187.11 182.32 186.13 182.43 185.59 183.10 C 185.05 183.78 185.16 184.76 185.84 185.30 Z M 186.60 185.90 L 187.40 186.54 C 188.08 187.08 189.06 186.96 189.59 186.29 C 190.13 185.61 190.01 184.63 189.34 184.09 L 188.53 183.46 C 187.86 182.92 186.88 183.04 186.34 183.71 C 185.80 184.39 185.92 185.37 186.60 185.90 Z M 187.41 186.55 L 188.21 187.17 C 188.89 187.70 189.87 187.57 190.40 186.89 C 190.93 186.21 190.80 185.23 190.12 184.70 L 189.33 184.08 C 188.64 183.55 187.66 183.68 187.14 184.36 C 186.61 185.04 186.73 186.02 187.41 186.55 Z M 188.22 187.18 L 189.01 187.78 C 189.70 188.30 190.68 188.16 191.20 187.47 C 191.72 186.79 191.58 185.81 190.90 185.29 L 190.11 184.69 C 189.42 184.17 188.44 184.31 187.92 184.99 C 187.40 185.68 187.54 186.66 188.22 187.18 Z M 189.03 187.79 L 189.82 188.37 C 190.52 188.88 191.49 188.73 192.00 188.03 C 192.51 187.34 192.36 186.36 191.67 185.85 L 190.88 185.27 C 190.18 184.76 189.20 184.91 188.69 185.61 C 188.18 186.31 188.34 187.28 189.03 187.79 Z M 189.85 188.39 L 190.67 188.97 C 191.37 189.46 192.35 189.29 192.84 188.59 C 193.34 187.88 193.17 186.91 192.46 186.41 L 191.64 185.83 C 190.94 185.34 189.96 185.51 189.47 186.21 C 188.97 186.92 189.14 187.89 189.85 188.39 Z M 190.69 188.98 L 191.52 189.54 C 192.23 190.02 193.20 189.83 193.68 189.12 C 194.17 188.40 193.98 187.43 193.26 186.95 L 192.44 186.39 C 191.72 185.91 190.75 186.10 190.27 186.82 C 189.79 187.53 189.98 188.50 190.69 188.98 Z M 191.54 189.55 L 192.38 190.09 C 193.10 190.56 194.07 190.36 194.54 189.63 C 195.00 188.91 194.80 187.94 194.07 187.47 L 193.24 186.93 C 192.52 186.46 191.55 186.67 191.08 187.39 C 190.61 188.12 190.82 189.08 191.54 189.55 Z M 192.40 190.11 L 193.22 190.62 C 193.95 191.08 194.91 190.86 195.37 190.13 C 195.83 189.40 195.61 188.44 194.88 187.98 L 194.06 187.46 C 193.33 187.00 192.36 187.22 191.90 187.95 C 191.44 188.68 191.67 189.65 192.40 190.11 Z M 193.23 190.63 L 194.06 191.14 C 194.80 191.60 195.76 191.37 196.21 190.64 C 196.66 189.90 196.44 188.94 195.70 188.49 L 194.87 187.97 C 194.13 187.52 193.17 187.75 192.72 188.48 C 192.26 189.21 192.49 190.18 193.23 190.63 Z M 194.06 191.14 L 194.92 191.68 C 195.66 192.13 196.62 191.90 197.07 191.17 C 197.53 190.43 197.30 189.47 196.56 189.02 L 195.70 188.49 C 194.97 188.03 194.01 188.26 193.55 189.00 C 193.10 189.73 193.33 190.69 194.06 191.14 Z M 194.91 191.67 L 195.79 192.22 C 196.52 192.68 197.48 192.46 197.94 191.73 C 198.40 191.00 198.18 190.03 197.45 189.57 L 196.57 189.03 C 195.84 188.57 194.88 188.79 194.42 189.52 C 193.96 190.25 194.18 191.21 194.91 191.67 Z M 195.78 192.21 L 196.62 192.75 C 197.35 193.21 198.31 193.00 198.78 192.27 C 199.24 191.55 199.03 190.58 198.30 190.12 L 197.46 189.58 C 196.73 189.12 195.77 189.33 195.30 190.06 C 194.84 190.78 195.05 191.75 195.78 192.21 Z M 196.62 192.75 L 197.47 193.29 C 198.20 193.76 199.17 193.54 199.63 192.82 C 200.09 192.09 199.88 191.12 199.15 190.66 L 198.30 190.12 C 197.57 189.65 196.61 189.87 196.14 190.60 C 195.68 191.32 195.89 192.29 196.62 192.75 Z M 197.49 193.30 L 198.34 193.83 C 199.07 194.29 200.04 194.06 200.49 193.33 C 200.95 192.60 200.72 191.64 199.99 191.18 L 199.14 190.65 C 198.40 190.20 197.44 190.42 196.99 191.15 C 196.53 191.89 196.76 192.85 197.49 193.30 Z M 198.37 193.85 L 199.24 194.36 C 199.98 194.80 200.94 194.55 201.38 193.81 C 201.81 193.07 201.57 192.11 200.83 191.67 L 199.96 191.16 C 199.22 190.72 198.26 190.97 197.82 191.71 C 197.38 192.46 197.63 193.41 198.37 193.85 Z M 199.28 194.39 L 200.18 194.88 C 200.94 195.30 201.89 195.02 202.30 194.27 C 202.72 193.51 202.44 192.56 201.69 192.15 L 200.78 191.65 C 200.03 191.23 199.08 191.51 198.66 192.27 C 198.25 193.02 198.52 193.97 199.28 194.39 Z M 200.22 194.90 L 201.11 195.36 C 201.88 195.75 202.82 195.45 203.21 194.68 C 203.60 193.91 203.30 192.97 202.53 192.58 L 201.65 192.12 C 200.88 191.73 199.94 192.03 199.54 192.80 C 199.15 193.57 199.45 194.51 200.22 194.90 Z M 201.14 195.37 L 202.02 195.80 C 202.79 196.17 203.73 195.85 204.10 195.07 C 204.48 194.29 204.15 193.36 203.37 192.99 L 202.50 192.56 C 201.72 192.19 200.79 192.51 200.42 193.29 C 200.04 194.06 200.37 195.00 201.14 195.37 Z M 202.04 195.81 L 202.95 196.23 C 203.73 196.59 204.66 196.25 205.02 195.47 C 205.38 194.68 205.04 193.76 204.26 193.39 L 203.35 192.97 C 202.57 192.61 201.64 192.95 201.28 193.73 C 200.92 194.52 201.26 195.45 202.04 195.81 Z M 202.95 196.23 L 203.87 196.65 C 204.65 197.01 205.58 196.66 205.94 195.88 C 206.29 195.10 205.95 194.17 205.17 193.81 L 204.25 193.39 C 203.47 193.03 202.54 193.38 202.18 194.16 C 201.82 194.94 202.17 195.87 202.95 196.23 Z M 203.85 196.64 L 204.74 197.07 C 205.52 197.44 206.45 197.10 206.82 196.33 C 207.19 195.55 206.86 194.62 206.08 194.25 L 205.19 193.82 C 204.41 193.45 203.48 193.78 203.11 194.56 C 202.74 195.34 203.07 196.27 203.85 196.64 Z M 204.70 197.04 L 205.58 197.50 C 206.34 197.89 207.29 197.59 207.68 196.83 C 208.08 196.06 207.78 195.12 207.01 194.72 L 206.13 194.27 C 205.36 193.87 204.42 194.17 204.03 194.94 C 203.63 195.71 203.93 196.65 204.70 197.04 Z M 205.52 197.46 L 206.39 197.97 C 207.14 198.39 208.09 198.14 208.52 197.39 C 208.95 196.64 208.69 195.69 207.94 195.26 L 207.07 194.76 C 206.32 194.33 205.37 194.59 204.94 195.33 C 204.51 196.08 204.77 197.03 205.52 197.46 Z M 206.32 197.93 L 207.17 198.46 C 207.89 198.93 208.86 198.72 209.32 197.99 C 209.79 197.27 209.57 196.30 208.85 195.84 L 208.01 195.30 C 207.28 194.83 206.32 195.04 205.85 195.77 C 205.39 196.50 205.60 197.46 206.32 197.93 Z M 207.10 198.42 L 207.93 199.01 C 208.63 199.51 209.61 199.35 210.11 198.64 C 210.61 197.94 210.44 196.97 209.74 196.47 L 208.91 195.88 C 208.21 195.38 207.23 195.54 206.73 196.24 C 206.23 196.95 206.40 197.92 207.10 198.42 Z M 207.86 198.96 L 208.81 199.72 C 209.48 200.26 210.47 200.15 211.00 199.47 C 211.54 198.80 211.43 197.81 210.76 197.28 L 209.81 196.52 C 209.13 195.98 208.15 196.09 207.61 196.77 C 207.08 197.44 207.19 198.42 207.86 198.96 Z M 208.73 199.65 L 209.43 200.28 C 210.06 200.87 211.05 200.82 211.63 200.19 C 212.21 199.55 212.17 198.56 211.53 197.98 L 210.84 197.35 C 210.20 196.76 209.21 196.81 208.63 197.44 C 208.05 198.08 208.09 199.07 208.73 199.65 Z M 208.92 199.18 L 208.93 199.58 C 208.96 200.44 209.68 201.12 210.54 201.09 C 211.40 201.06 212.08 200.34 212.05 199.48 L 212.04 199.08 C 212.01 198.22 211.29 197.54 210.43 197.57 C 209.57 197.60 208.89 198.32 208.92 199.18 Z M 210.87 198.01 L 210.65 197.96 C 209.82 197.75 208.97 198.25 208.75 199.09 C 208.54 199.92 209.05 200.77 209.89 200.98 L 210.11 201.04 C 210.94 201.25 211.79 200.75 212.00 199.91 C 212.22 199.07 211.71 198.22 210.87 198.01 Z"
      fill="black"
      fill-rule="nonzero" /><path d="M 89.01 195.65 L 87.91 196.38 C 87.19 196.86 87.00 197.83 87.47 198.55 C 87.95 199.27 88.92 199.46 89.64 198.98 L 90.74 198.25 C 91.46 197.77 91.65 196.81 91.18 196.09 C 90.70 195.37 89.73 195.17 89.01 195.65 Z M 88.20 196.23 L 87.57 196.48 C 86.77 196.80 86.37 197.70 86.69 198.50 C 87.00 199.31 87.91 199.70 88.71 199.39 L 89.34 199.14 C 90.15 198.82 90.54 197.92 90.23 197.11 C 89.91 196.31 89.01 195.92 88.20 196.23 Z M 89.64 198.38 L 89.78 197.89 C 90.02 197.06 89.55 196.20 88.73 195.95 C 87.90 195.71 87.03 196.18 86.79 197.01 L 86.64 197.49 C 86.40 198.32 86.87 199.19 87.70 199.43 C 88.52 199.67 89.39 199.20 89.64 198.38 Z M 89.52 198.40 L 90.21 197.51 C 90.74 196.83 90.61 195.85 89.93 195.32 C 89.25 194.79 88.27 194.92 87.74 195.60 L 87.05 196.49 C 86.52 197.18 86.65 198.16 87.33 198.68 C 88.01 199.21 88.99 199.09 89.52 198.40 Z M 90.04 197.70 L 90.91 196.89 C 91.54 196.30 91.58 195.31 90.99 194.68 C 90.41 194.05 89.42 194.01 88.79 194.60 L 87.91 195.41 C 87.28 195.99 87.24 196.98 87.83 197.61 C 88.42 198.25 89.40 198.28 90.04 197.70 Z M 90.74 197.03 L 91.52 196.49 C 92.23 196.00 92.41 195.02 91.92 194.31 C 91.43 193.61 90.45 193.43 89.74 193.92 L 88.96 194.46 C 88.25 194.95 88.07 195.92 88.56 196.63 C 89.05 197.34 90.03 197.52 90.74 197.03 Z M 91.40 196.56 L 92.27 196.07 C 93.02 195.64 93.28 194.69 92.85 193.94 C 92.43 193.19 91.47 192.93 90.72 193.35 L 89.86 193.84 C 89.11 194.27 88.85 195.22 89.27 195.97 C 89.70 196.72 90.65 196.99 91.40 196.56 Z M 92.20 196.11 L 93.14 195.63 C 93.91 195.24 94.22 194.30 93.83 193.53 C 93.44 192.76 92.50 192.45 91.73 192.84 L 90.79 193.32 C 90.02 193.71 89.71 194.65 90.10 195.42 C 90.49 196.19 91.43 196.49 92.20 196.11 Z M 93.12 195.64 L 94.03 195.19 C 94.80 194.82 95.12 193.88 94.75 193.11 C 94.37 192.33 93.43 192.01 92.66 192.39 L 91.75 192.83 C 90.97 193.21 90.65 194.15 91.03 194.92 C 91.41 195.70 92.34 196.02 93.12 195.64 Z M 94.03 195.19 L 94.94 194.75 C 95.71 194.37 96.03 193.43 95.65 192.66 C 95.27 191.88 94.34 191.57 93.56 191.95 L 92.66 192.39 C 91.88 192.77 91.56 193.71 91.94 194.48 C 92.32 195.25 93.26 195.57 94.03 195.19 Z M 94.95 194.74 L 95.86 194.29 C 96.63 193.90 96.95 192.96 96.56 192.19 C 96.17 191.42 95.24 191.11 94.46 191.49 L 93.55 191.95 C 92.78 192.34 92.47 193.27 92.86 194.05 C 93.24 194.82 94.18 195.13 94.95 194.74 Z M 95.88 194.28 L 96.77 193.82 C 97.53 193.42 97.83 192.48 97.44 191.71 C 97.04 190.95 96.10 190.65 95.33 191.04 L 94.44 191.50 C 93.68 191.90 93.38 192.84 93.78 193.61 C 94.17 194.37 95.12 194.67 95.88 194.28 Z M 96.80 193.80 L 97.65 193.33 C 98.41 192.92 98.68 191.97 98.27 191.21 C 97.85 190.46 96.90 190.18 96.15 190.60 L 95.30 191.06 C 94.54 191.48 94.27 192.43 94.68 193.18 C 95.09 193.94 96.04 194.21 96.80 193.80 Z M 97.69 193.31 L 98.51 192.83 C 99.25 192.39 99.50 191.43 99.06 190.69 C 98.62 189.94 97.66 189.70 96.92 190.14 L 96.10 190.62 C 95.36 191.06 95.12 192.02 95.56 192.76 C 96.00 193.50 96.95 193.75 97.69 193.31 Z M 98.56 192.79 L 99.37 192.27 C 100.10 191.80 100.30 190.83 99.84 190.11 C 99.37 189.39 98.40 189.18 97.68 189.65 L 96.87 190.17 C 96.14 190.64 95.94 191.61 96.40 192.33 C 96.87 193.05 97.84 193.26 98.56 192.79 Z M 99.42 192.24 L 100.27 191.64 C 100.97 191.14 101.14 190.17 100.65 189.46 C 100.15 188.76 99.18 188.59 98.47 189.09 L 97.63 189.68 C 96.92 190.18 96.75 191.15 97.25 191.86 C 97.74 192.56 98.72 192.73 99.42 192.24 Z M 100.31 191.61 L 101.13 191.00 C 101.82 190.48 101.95 189.50 101.44 188.81 C 100.92 188.12 99.94 187.98 99.25 188.50 L 98.43 189.11 C 97.74 189.63 97.61 190.61 98.12 191.30 C 98.64 191.99 99.62 192.13 100.31 191.61 Z M 101.15 190.98 L 101.91 190.38 C 102.58 189.85 102.70 188.87 102.17 188.19 C 101.64 187.51 100.65 187.40 99.98 187.93 L 99.22 188.52 C 98.55 189.05 98.43 190.04 98.96 190.71 C 99.49 191.39 100.48 191.51 101.15 190.98 Z M 101.93 190.37 L 102.71 189.73 C 103.38 189.18 103.48 188.20 102.94 187.53 C 102.39 186.86 101.41 186.76 100.74 187.31 L 99.96 187.95 C 99.29 188.49 99.19 189.47 99.73 190.14 C 100.28 190.81 101.26 190.91 101.93 190.37 Z M 102.73 189.71 L 103.52 189.05 C 104.18 188.49 104.27 187.51 103.71 186.85 C 103.16 186.19 102.17 186.10 101.51 186.66 L 100.72 187.32 C 100.06 187.88 99.98 188.86 100.53 189.52 C 101.09 190.18 102.07 190.27 102.73 189.71 Z M 103.54 189.03 L 104.32 188.35 C 104.97 187.78 105.04 186.80 104.47 186.15 C 103.91 185.50 102.92 185.43 102.27 186.00 L 101.49 186.67 C 100.84 187.24 100.77 188.23 101.34 188.88 C 101.91 189.53 102.89 189.60 103.54 189.03 Z M 104.34 188.33 L 105.10 187.65 C 105.74 187.07 105.79 186.08 105.21 185.44 C 104.63 184.80 103.65 184.75 103.01 185.33 L 102.25 186.01 C 101.61 186.59 101.56 187.58 102.14 188.22 C 102.72 188.86 103.70 188.91 104.34 188.33 Z M 105.12 187.63 L 105.89 186.90 C 106.52 186.31 106.55 185.32 105.96 184.69 C 105.37 184.07 104.38 184.04 103.75 184.63 L 102.98 185.35 C 102.35 185.94 102.32 186.93 102.92 187.56 C 103.51 188.19 104.50 188.22 105.12 187.63 Z M 105.91 186.88 L 106.64 186.17 C 107.26 185.57 107.27 184.58 106.66 183.96 C 106.06 183.35 105.07 183.34 104.46 183.94 L 103.73 184.65 C 103.11 185.25 103.10 186.24 103.71 186.86 C 104.31 187.47 105.30 187.48 105.91 186.88 Z M 106.65 186.16 L 107.35 185.46 C 107.96 184.85 107.95 183.86 107.34 183.25 C 106.73 182.64 105.74 182.65 105.13 183.26 L 104.44 183.95 C 103.83 184.56 103.84 185.55 104.45 186.16 C 105.06 186.77 106.05 186.77 106.65 186.16 Z M 107.36 185.45 L 108.03 184.76 C 108.63 184.15 108.62 183.16 108.01 182.55 C 107.39 181.95 106.40 181.96 105.80 182.58 L 105.13 183.27 C 104.52 183.88 104.53 184.87 105.15 185.47 C 105.76 186.08 106.75 186.07 107.36 185.45 Z M 108.03 184.76 L 108.71 184.07 C 109.31 183.46 109.30 182.47 108.68 181.86 C 108.07 181.26 107.08 181.27 106.47 181.89 L 105.80 182.58 C 105.20 183.19 105.21 184.18 105.82 184.79 C 106.44 185.39 107.43 185.38 108.03 184.76 Z M 108.70 184.08 L 109.39 183.38 C 110.00 182.77 110.00 181.78 109.38 181.17 C 108.77 180.56 107.78 180.57 107.18 181.18 L 106.48 181.88 C 105.87 182.49 105.88 183.48 106.49 184.09 C 107.10 184.70 108.09 184.69 108.70 184.08 Z M 109.38 183.39 L 110.09 182.69 C 110.70 182.09 110.71 181.10 110.10 180.49 C 109.50 179.87 108.51 179.87 107.89 180.47 L 107.19 181.17 C 106.57 181.77 106.57 182.76 107.17 183.38 C 107.78 183.99 108.77 184.00 109.38 183.39 Z M 110.07 182.71 L 110.79 182.02 C 111.42 181.42 111.44 180.44 110.85 179.81 C 110.25 179.19 109.26 179.17 108.64 179.76 L 107.91 180.45 C 107.29 181.05 107.27 182.04 107.86 182.66 C 108.46 183.28 109.45 183.31 110.07 182.71 Z M 110.77 182.04 L 111.52 181.36 C 112.15 180.78 112.20 179.79 111.62 179.15 C 111.03 178.52 110.05 178.47 109.41 179.05 L 108.66 179.74 C 108.03 180.32 107.98 181.31 108.56 181.94 C 109.15 182.58 110.13 182.62 110.77 182.04 Z M 111.49 181.38 L 112.24 180.73 C 112.89 180.17 112.96 179.18 112.39 178.53 C 111.82 177.88 110.84 177.81 110.19 178.38 L 109.44 179.03 C 108.79 179.59 108.72 180.58 109.29 181.23 C 109.85 181.88 110.84 181.95 111.49 181.38 Z M 112.21 180.76 L 112.96 180.13 C 113.63 179.58 113.72 178.60 113.17 177.94 C 112.63 177.27 111.64 177.18 110.98 177.73 L 110.22 178.35 C 109.55 178.90 109.46 179.88 110.01 180.55 C 110.56 181.21 111.54 181.31 112.21 180.76 Z M 112.93 180.16 L 113.72 179.55 C 114.39 179.01 114.51 178.03 113.98 177.35 C 113.45 176.68 112.47 176.56 111.79 177.09 L 111.01 177.70 C 110.33 178.23 110.21 179.21 110.74 179.89 C 111.27 180.57 112.25 180.69 112.93 180.16 Z M 113.68 179.57 L 114.49 178.97 C 115.18 178.46 115.33 177.48 114.82 176.79 C 114.30 176.10 113.33 175.95 112.63 176.46 L 111.82 177.06 C 111.13 177.57 110.99 178.55 111.50 179.25 C 112.01 179.94 112.99 180.08 113.68 179.57 Z M 114.46 179.00 L 115.29 178.41 C 116.00 177.92 116.17 176.94 115.68 176.24 C 115.18 175.53 114.21 175.36 113.50 175.85 L 112.67 176.44 C 111.96 176.93 111.79 177.91 112.28 178.61 C 112.78 179.32 113.75 179.49 114.46 179.00 Z M 115.26 178.44 L 116.13 177.86 C 116.85 177.39 117.05 176.42 116.57 175.70 C 116.10 174.98 115.13 174.78 114.41 175.25 L 113.54 175.83 C 112.82 176.30 112.62 177.27 113.10 177.99 C 113.57 178.71 114.54 178.91 115.26 178.44 Z M 116.10 177.88 L 116.99 177.32 C 117.72 176.87 117.94 175.90 117.49 175.17 C 117.03 174.44 116.07 174.22 115.34 174.68 L 114.44 175.23 C 113.71 175.69 113.49 176.65 113.95 177.38 C 114.40 178.12 115.36 178.34 116.10 177.88 Z M 116.96 177.34 L 117.85 176.82 C 118.59 176.38 118.83 175.42 118.40 174.68 C 117.96 173.94 117.00 173.69 116.26 174.13 L 115.37 174.66 C 114.63 175.10 114.38 176.05 114.82 176.80 C 115.26 177.54 116.22 177.78 116.96 177.34 Z M 117.82 176.83 L 118.68 176.35 C 119.43 175.92 119.70 174.97 119.28 174.22 C 118.85 173.47 117.90 173.20 117.15 173.63 L 116.29 174.11 C 115.53 174.54 115.27 175.49 115.69 176.24 C 116.12 176.99 117.07 177.26 117.82 176.83 Z M 118.65 176.36 L 119.47 175.92 C 120.23 175.52 120.52 174.57 120.11 173.81 C 119.71 173.05 118.76 172.76 118.00 173.17 L 117.18 173.61 C 116.42 174.02 116.13 174.96 116.54 175.72 C 116.95 176.48 117.89 176.77 118.65 176.36 Z M 119.44 175.94 L 120.31 175.50 C 121.08 175.12 121.39 174.18 121.01 173.41 C 120.62 172.64 119.68 172.33 118.91 172.71 L 118.04 173.15 C 117.27 173.54 116.96 174.48 117.34 175.25 C 117.73 176.02 118.67 176.33 119.44 175.94 Z M 120.26 175.53 L 121.14 175.13 C 121.92 174.77 122.27 173.84 121.91 173.06 C 121.55 172.27 120.63 171.93 119.84 172.29 L 118.96 172.69 C 118.18 173.05 117.83 173.97 118.19 174.76 C 118.55 175.54 119.48 175.89 120.26 175.53 Z M 121.08 175.15 L 121.96 174.79 C 122.76 174.47 123.15 173.56 122.82 172.76 C 122.50 171.96 121.59 171.58 120.79 171.90 L 119.90 172.26 C 119.10 172.59 118.72 173.50 119.04 174.30 C 119.37 175.10 120.28 175.48 121.08 175.15 Z M 121.91 174.81 L 122.88 174.46 C 123.69 174.16 124.10 173.27 123.81 172.46 C 123.51 171.65 122.61 171.23 121.81 171.53 L 120.84 171.88 C 120.03 172.18 119.61 173.07 119.91 173.88 C 120.21 174.69 121.10 175.11 121.91 174.81 Z M 122.84 174.47 L 123.78 174.15 C 124.60 173.88 125.04 172.99 124.76 172.17 C 124.48 171.36 123.60 170.92 122.78 171.20 L 121.84 171.52 C 121.02 171.79 120.59 172.68 120.86 173.50 C 121.14 174.31 122.03 174.75 122.84 174.47 Z M 123.76 174.16 L 124.73 173.85 C 125.55 173.58 125.99 172.70 125.73 171.88 C 125.46 171.06 124.58 170.61 123.76 170.88 L 122.80 171.19 C 121.98 171.46 121.53 172.34 121.80 173.16 C 122.06 173.98 122.94 174.43 123.76 174.16 Z M 124.71 173.85 L 125.71 173.54 C 126.53 173.28 126.99 172.40 126.73 171.58 C 126.47 170.76 125.59 170.30 124.77 170.56 L 123.77 170.88 C 122.95 171.14 122.50 172.01 122.76 172.83 C 123.02 173.66 123.89 174.11 124.71 173.85 Z M 125.70 173.54 L 126.69 173.23 C 127.51 172.98 127.97 172.10 127.71 171.28 C 127.46 170.45 126.58 169.99 125.76 170.25 L 124.77 170.56 C 123.95 170.82 123.49 171.69 123.75 172.51 C 124.00 173.34 124.88 173.80 125.70 173.54 Z M 126.69 173.23 L 127.61 172.94 C 128.44 172.69 128.90 171.81 128.64 170.99 C 128.38 170.17 127.51 169.71 126.69 169.96 L 125.76 170.25 C 124.94 170.51 124.48 171.38 124.73 172.21 C 124.99 173.03 125.86 173.49 126.69 173.23 Z M 127.62 172.94 L 128.61 172.63 C 129.43 172.37 129.89 171.50 129.63 170.68 C 129.38 169.85 128.50 169.39 127.68 169.65 L 126.68 169.96 C 125.86 170.22 125.40 171.10 125.66 171.92 C 125.92 172.74 126.79 173.20 127.62 172.94 Z M 128.62 172.63 L 129.55 172.33 C 130.37 172.07 130.83 171.19 130.56 170.37 C 130.30 169.55 129.42 169.09 128.60 169.36 L 127.67 169.66 C 126.85 169.92 126.39 170.80 126.66 171.62 C 126.92 172.44 127.80 172.89 128.62 172.63 Z M 129.57 172.33 L 130.47 172.03 C 131.29 171.76 131.73 170.87 131.46 170.05 C 131.19 169.24 130.30 168.79 129.49 169.06 L 128.58 169.36 C 127.77 169.63 127.32 170.52 127.59 171.33 C 127.86 172.15 128.75 172.60 129.57 172.33 Z M 130.48 172.02 L 131.43 171.70 C 132.25 171.42 132.68 170.53 132.40 169.71 C 132.12 168.90 131.24 168.46 130.42 168.74 L 129.47 169.07 C 128.65 169.35 128.22 170.24 128.50 171.05 C 128.78 171.87 129.67 172.30 130.48 172.02 Z M 131.45 171.69 L 132.30 171.39 C 133.12 171.10 133.54 170.21 133.26 169.40 C 132.97 168.59 132.08 168.16 131.27 168.44 L 130.41 168.75 C 129.60 169.03 129.17 169.93 129.45 170.74 C 129.74 171.55 130.63 171.98 131.45 171.69 Z M 132.31 171.39 L 133.22 171.06 C 134.03 170.77 134.45 169.87 134.16 169.06 C 133.86 168.25 132.97 167.83 132.16 168.12 L 131.25 168.45 C 130.44 168.74 130.02 169.64 130.32 170.45 C 130.61 171.26 131.50 171.68 132.31 171.39 Z M 133.23 171.06 L 134.18 170.70 C 134.99 170.40 135.40 169.50 135.10 168.70 C 134.80 167.89 133.91 167.47 133.10 167.77 L 132.14 168.13 C 131.34 168.43 130.92 169.33 131.22 170.13 C 131.52 170.94 132.42 171.36 133.23 171.06 Z M 134.20 170.70 L 135.18 170.32 C 135.98 170.01 136.39 169.11 136.08 168.30 C 135.77 167.50 134.87 167.10 134.06 167.40 L 133.08 167.78 C 132.28 168.09 131.87 168.99 132.18 169.80 C 132.49 170.60 133.39 171.00 134.20 170.70 Z M 135.20 170.31 L 136.19 169.92 C 136.99 169.60 137.38 168.70 137.07 167.89 C 136.75 167.09 135.84 166.70 135.04 167.02 L 134.05 167.41 C 133.24 167.73 132.85 168.64 133.17 169.44 C 133.49 170.24 134.40 170.63 135.20 170.31 Z M 136.21 169.91 L 137.15 169.52 C 137.95 169.19 138.33 168.28 138.00 167.48 C 137.67 166.69 136.76 166.31 135.96 166.64 L 135.02 167.03 C 134.22 167.36 133.84 168.27 134.17 169.06 C 134.50 169.86 135.41 170.24 136.21 169.91 Z M 137.18 169.51 L 138.11 169.11 C 138.90 168.77 139.26 167.85 138.92 167.06 C 138.58 166.27 137.66 165.90 136.87 166.25 L 135.94 166.65 C 135.15 166.99 134.78 167.91 135.12 168.70 C 135.47 169.49 136.39 169.85 137.18 169.51 Z M 138.13 169.10 L 139.05 168.68 C 139.83 168.33 140.18 167.40 139.82 166.62 C 139.46 165.83 138.54 165.49 137.75 165.84 L 136.84 166.26 C 136.06 166.61 135.71 167.54 136.07 168.33 C 136.42 169.11 137.35 169.46 138.13 169.10 Z M 139.08 168.67 L 139.97 168.24 C 140.75 167.86 141.08 166.93 140.70 166.15 C 140.33 165.38 139.39 165.05 138.62 165.43 L 137.72 165.86 C 136.95 166.23 136.62 167.16 136.99 167.94 C 137.37 168.72 138.30 169.04 139.08 168.67 Z M 140.01 168.22 L 140.88 167.77 C 141.65 167.38 141.95 166.44 141.56 165.67 C 141.16 164.90 140.22 164.60 139.45 165.00 L 138.58 165.44 C 137.81 165.84 137.51 166.78 137.91 167.55 C 138.30 168.31 139.24 168.61 140.01 168.22 Z M 140.92 167.75 L 141.81 167.26 C 142.56 166.85 142.84 165.90 142.42 165.14 C 142.01 164.39 141.06 164.11 140.30 164.53 L 139.41 165.02 C 138.66 165.43 138.38 166.38 138.80 167.14 C 139.22 167.89 140.17 168.17 140.92 167.75 Z M 141.85 167.24 L 142.72 166.73 C 143.46 166.29 143.71 165.33 143.27 164.59 C 142.84 163.85 141.88 163.60 141.14 164.04 L 140.26 164.55 C 139.52 164.99 139.27 165.95 139.71 166.69 C 140.15 167.43 141.10 167.68 141.85 167.24 Z M 142.75 166.70 L 143.60 166.17 C 144.34 165.72 144.56 164.76 144.10 164.02 C 143.64 163.29 142.68 163.07 141.95 163.53 L 141.10 164.06 C 140.37 164.51 140.15 165.48 140.60 166.21 C 141.06 166.94 142.02 167.16 142.75 166.70 Z M 143.63 166.16 L 144.46 165.61 C 145.18 165.14 145.38 164.17 144.91 163.45 C 144.44 162.73 143.47 162.53 142.75 163.00 L 141.92 163.54 C 141.20 164.02 141.00 164.99 141.47 165.71 C 141.94 166.43 142.91 166.63 143.63 166.16 Z M 144.48 165.60 L 145.29 165.05 C 146.01 164.56 146.19 163.59 145.70 162.88 C 145.22 162.16 144.25 161.98 143.53 162.47 L 142.73 163.02 C 142.01 163.50 141.83 164.47 142.31 165.19 C 142.80 165.90 143.77 166.08 144.48 165.60 Z M 145.31 165.03 L 146.15 164.44 C 146.86 163.94 147.03 162.97 146.53 162.27 C 146.04 161.56 145.06 161.39 144.36 161.89 L 143.52 162.48 C 142.81 162.98 142.64 163.95 143.14 164.65 C 143.63 165.36 144.61 165.53 145.31 165.03 Z M 146.17 164.43 L 147.00 163.83 C 147.70 163.32 147.85 162.34 147.35 161.65 C 146.84 160.95 145.86 160.79 145.17 161.30 L 144.34 161.90 C 143.64 162.41 143.49 163.38 143.99 164.08 C 144.50 164.78 145.48 164.93 146.17 164.43 Z M 147.02 163.81 L 147.82 163.21 C 148.51 162.69 148.65 161.71 148.13 161.02 C 147.61 160.33 146.64 160.20 145.95 160.71 L 145.14 161.32 C 144.46 161.83 144.32 162.81 144.83 163.50 C 145.35 164.19 146.33 164.33 147.02 163.81 Z M 147.84 163.19 L 148.61 162.59 C 149.29 162.06 149.42 161.08 148.88 160.40 C 148.35 159.72 147.37 159.60 146.69 160.13 L 145.92 160.73 C 145.24 161.26 145.12 162.24 145.65 162.92 C 146.18 163.60 147.16 163.72 147.84 163.19 Z M 148.64 162.57 L 149.40 161.96 C 150.07 161.41 150.17 160.43 149.62 159.76 C 149.08 159.09 148.10 158.99 147.43 159.53 L 146.67 160.15 C 146.00 160.69 145.90 161.68 146.44 162.35 C 146.99 163.01 147.97 163.12 148.64 162.57 Z M 149.42 161.94 L 150.19 161.28 C 150.85 160.73 150.93 159.74 150.37 159.08 C 149.82 158.43 148.83 158.34 148.17 158.90 L 147.40 159.55 C 146.75 160.11 146.66 161.10 147.22 161.75 C 147.78 162.41 148.76 162.49 149.42 161.94 Z M 150.21 161.27 L 150.96 160.62 C 151.61 160.05 151.67 159.06 151.10 158.41 C 150.54 157.76 149.55 157.70 148.90 158.27 L 148.16 158.92 C 147.51 159.48 147.44 160.47 148.01 161.12 C 148.57 161.77 149.56 161.84 150.21 161.27 Z M 150.97 160.61 L 151.71 159.95 C 152.35 159.38 152.41 158.39 151.83 157.75 C 151.26 157.10 150.27 157.04 149.63 157.62 L 148.89 158.27 C 148.25 158.85 148.19 159.83 148.76 160.48 C 149.34 161.12 150.32 161.18 150.97 160.61 Z M 151.71 159.95 L 152.45 159.29 C 153.10 158.71 153.15 157.72 152.58 157.08 C 152.00 156.44 151.02 156.38 150.37 156.96 L 149.63 157.62 C 148.99 158.19 148.93 159.18 149.50 159.82 C 150.08 160.47 151.06 160.52 151.71 159.95 Z M 152.45 159.29 L 153.19 158.63 C 153.84 158.06 153.90 157.07 153.33 156.43 C 152.76 155.78 151.77 155.72 151.13 156.29 L 150.38 156.95 C 149.73 157.52 149.67 158.51 150.24 159.15 C 150.81 159.80 151.80 159.86 152.45 159.29 Z M 153.18 158.64 L 153.94 157.99 C 154.60 157.42 154.67 156.44 154.11 155.78 C 153.54 155.13 152.56 155.06 151.91 155.62 L 151.14 156.28 C 150.49 156.84 150.41 157.83 150.98 158.48 C 151.54 159.13 152.53 159.21 153.18 158.64 Z M 153.92 158.00 L 154.70 157.36 C 155.36 156.81 155.45 155.83 154.90 155.16 C 154.35 154.50 153.36 154.41 152.70 154.96 L 151.93 155.60 C 151.26 156.15 151.17 157.14 151.72 157.80 C 152.27 158.46 153.26 158.56 153.92 158.00 Z M 154.66 157.39 L 155.44 156.77 C 156.12 156.24 156.24 155.26 155.70 154.58 C 155.17 153.90 154.19 153.79 153.51 154.32 L 152.73 154.93 C 152.05 155.47 151.94 156.45 152.47 157.13 C 153.01 157.80 153.99 157.92 154.66 157.39 Z M 155.40 156.80 L 156.23 156.19 C 156.93 155.68 157.08 154.70 156.57 154.01 C 156.06 153.32 155.08 153.17 154.39 153.68 L 153.55 154.29 C 152.86 154.80 152.71 155.78 153.22 156.47 C 153.73 157.17 154.71 157.31 155.40 156.80 Z M 156.19 156.22 L 157.03 155.65 C 157.74 155.16 157.92 154.19 157.43 153.48 C 156.94 152.77 155.97 152.59 155.26 153.08 L 154.42 153.65 C 153.71 154.14 153.54 155.11 154.02 155.82 C 154.51 156.53 155.48 156.71 156.19 156.22 Z M 156.99 155.67 L 157.82 155.13 C 158.54 154.66 158.75 153.69 158.28 152.97 C 157.81 152.25 156.84 152.04 156.12 152.51 L 155.29 153.05 C 154.57 153.52 154.36 154.49 154.83 155.21 C 155.31 155.94 156.27 156.14 156.99 155.67 Z M 157.80 155.15 L 158.62 154.63 C 159.35 154.17 159.57 153.21 159.11 152.48 C 158.66 151.75 157.69 151.53 156.96 151.99 L 156.14 152.50 C 155.41 152.96 155.19 153.92 155.65 154.65 C 156.10 155.38 157.07 155.60 157.80 155.15 Z M 158.60 154.64 L 159.46 154.12 C 160.19 153.67 160.43 152.71 159.98 151.98 C 159.53 151.24 158.57 151.01 157.83 151.45 L 156.98 151.97 C 156.24 152.42 156.01 153.38 156.46 154.12 C 156.91 154.86 157.87 155.09 158.60 154.64 Z M 159.44 154.13 L 160.30 153.63 C 161.04 153.19 161.28 152.23 160.85 151.49 C 160.41 150.75 159.45 150.50 158.71 150.94 L 157.85 151.44 C 157.11 151.88 156.86 152.84 157.30 153.58 C 157.74 154.33 158.70 154.57 159.44 154.13 Z M 160.28 153.64 L 161.14 153.14 C 161.89 152.71 162.15 151.76 161.72 151.01 C 161.29 150.26 160.34 150.00 159.59 150.43 L 158.73 150.93 C 157.98 151.36 157.72 152.31 158.15 153.06 C 158.57 153.81 159.53 154.07 160.28 153.64 Z M 161.12 153.15 L 162.00 152.67 C 162.75 152.25 163.03 151.30 162.61 150.55 C 162.19 149.79 161.24 149.52 160.49 149.94 L 159.61 150.42 C 158.86 150.84 158.58 151.79 159.00 152.54 C 159.42 153.30 160.37 153.57 161.12 153.15 Z M 161.98 152.68 L 162.85 152.21 C 163.61 151.80 163.90 150.86 163.49 150.10 C 163.08 149.34 162.13 149.05 161.37 149.46 L 160.51 149.93 C 159.75 150.34 159.46 151.28 159.87 152.04 C 160.28 152.80 161.22 153.09 161.98 152.68 Z M 162.84 152.22 L 163.73 151.75 C 164.49 151.34 164.78 150.40 164.38 149.64 C 163.97 148.87 163.03 148.58 162.27 148.99 L 161.38 149.46 C 160.62 149.86 160.33 150.80 160.73 151.57 C 161.14 152.33 162.08 152.62 162.84 152.22 Z M 163.73 151.75 L 164.62 151.27 C 165.38 150.87 165.67 149.92 165.27 149.16 C 164.86 148.40 163.92 148.11 163.16 148.52 L 162.26 148.99 C 161.50 149.39 161.21 150.34 161.62 151.10 C 162.02 151.86 162.97 152.15 163.73 151.75 Z M 164.63 151.27 L 165.52 150.79 C 166.27 150.38 166.56 149.43 166.15 148.67 C 165.74 147.92 164.79 147.63 164.03 148.04 L 163.15 148.52 C 162.39 148.93 162.11 149.88 162.51 150.64 C 162.92 151.39 163.87 151.68 164.63 151.27 Z M 165.53 150.78 L 166.40 150.30 C 167.15 149.88 167.43 148.93 167.01 148.18 C 166.59 147.42 165.64 147.15 164.89 147.57 L 164.02 148.05 C 163.26 148.47 162.99 149.42 163.41 150.17 C 163.83 150.93 164.78 151.20 165.53 150.78 Z M 166.42 150.29 L 167.28 149.80 C 168.03 149.37 168.29 148.42 167.86 147.67 C 167.44 146.92 166.48 146.66 165.74 147.09 L 164.87 147.58 C 164.12 148.01 163.86 148.96 164.29 149.71 C 164.71 150.46 165.67 150.72 166.42 150.29 Z M 167.30 149.79 L 168.16 149.28 C 168.91 148.85 169.16 147.89 168.72 147.15 C 168.29 146.40 167.33 146.15 166.59 146.59 L 165.72 147.09 C 164.98 147.53 164.73 148.49 165.16 149.23 C 165.60 149.97 166.55 150.23 167.30 149.79 Z M 168.18 149.27 L 169.04 148.76 C 169.78 148.31 170.02 147.36 169.57 146.62 C 169.13 145.88 168.17 145.64 167.43 146.08 L 166.57 146.60 C 165.83 147.04 165.59 148.00 166.04 148.74 C 166.48 149.48 167.44 149.72 168.18 149.27 Z M 169.05 148.75 L 169.88 148.24 C 170.62 147.79 170.84 146.82 170.39 146.09 C 169.94 145.36 168.98 145.13 168.24 145.58 L 167.42 146.09 C 166.68 146.54 166.45 147.50 166.90 148.24 C 167.36 148.97 168.32 149.20 169.05 148.75 Z M 169.90 148.23 L 170.74 147.69 C 171.46 147.23 171.68 146.27 171.21 145.54 C 170.75 144.81 169.79 144.60 169.06 145.06 L 168.22 145.59 C 167.50 146.06 167.28 147.02 167.75 147.75 C 168.21 148.47 169.17 148.69 169.90 148.23 Z M 170.76 147.68 L 171.60 147.12 C 172.32 146.65 172.52 145.68 172.04 144.96 C 171.57 144.24 170.60 144.04 169.88 144.52 L 169.04 145.08 C 168.32 145.55 168.12 146.52 168.60 147.24 C 169.07 147.96 170.04 148.16 170.76 147.68 Z M 171.63 147.11 L 172.48 146.52 C 173.19 146.03 173.36 145.06 172.87 144.35 C 172.38 143.64 171.41 143.46 170.70 143.95 L 169.85 144.54 C 169.14 145.03 168.97 146.00 169.46 146.71 C 169.95 147.42 170.92 147.60 171.63 147.11 Z M 172.50 146.50 L 173.31 145.92 C 174.01 145.41 174.16 144.44 173.66 143.74 C 173.16 143.04 172.18 142.88 171.48 143.39 L 170.68 143.97 C 169.98 144.47 169.82 145.45 170.32 146.15 C 170.83 146.85 171.80 147.00 172.50 146.50 Z M 173.32 145.91 L 174.13 145.31 C 174.82 144.80 174.97 143.82 174.45 143.13 C 173.94 142.43 172.96 142.29 172.27 142.80 L 171.46 143.40 C 170.77 143.91 170.63 144.89 171.14 145.58 C 171.65 146.28 172.63 146.42 173.32 145.91 Z M 174.14 145.31 L 174.94 144.70 C 175.63 144.18 175.77 143.21 175.26 142.52 C 174.74 141.83 173.76 141.69 173.07 142.20 L 172.26 142.81 C 171.57 143.32 171.43 144.30 171.95 144.99 C 172.47 145.68 173.45 145.82 174.14 145.31 Z M 174.94 144.70 L 175.74 144.10 C 176.43 143.59 176.58 142.61 176.06 141.92 C 175.55 141.23 174.57 141.08 173.88 141.60 L 173.07 142.20 C 172.38 142.71 172.24 143.69 172.75 144.38 C 173.27 145.08 174.25 145.22 174.94 144.70 Z M 175.73 144.11 L 176.55 143.52 C 177.24 143.01 177.40 142.04 176.89 141.34 C 176.38 140.64 175.40 140.49 174.71 141.00 L 173.89 141.59 C 173.19 142.10 173.04 143.07 173.55 143.77 C 174.06 144.47 175.03 144.62 175.73 144.11 Z M 176.52 143.53 L 177.36 142.95 C 178.07 142.45 178.24 141.48 177.74 140.77 C 177.24 140.07 176.27 139.90 175.56 140.39 L 174.73 140.98 C 174.02 141.48 173.85 142.45 174.35 143.16 C 174.85 143.86 175.82 144.03 176.52 143.53 Z M 177.34 142.96 L 178.17 142.40 C 178.88 141.92 179.07 140.95 178.59 140.23 C 178.10 139.52 177.13 139.33 176.42 139.81 L 175.59 140.38 C 174.87 140.86 174.69 141.83 175.17 142.55 C 175.65 143.26 176.62 143.45 177.34 142.96 Z M 178.14 142.42 L 178.97 141.88 C 179.69 141.41 179.90 140.44 179.43 139.72 C 178.96 138.99 177.99 138.79 177.27 139.26 L 176.44 139.80 C 175.72 140.27 175.51 141.24 175.98 141.96 C 176.45 142.68 177.42 142.89 178.14 142.42 Z M 178.95 141.89 L 179.78 141.38 C 180.51 140.92 180.73 139.96 180.27 139.22 C 179.82 138.49 178.85 138.27 178.12 138.73 L 177.29 139.24 C 176.56 139.70 176.34 140.66 176.80 141.40 C 177.25 142.13 178.22 142.35 178.95 141.89 Z M 179.75 141.39 L 180.63 140.86 C 181.37 140.42 181.62 139.46 181.17 138.72 C 180.73 137.98 179.77 137.74 179.03 138.18 L 178.15 138.71 C 177.41 139.15 177.17 140.11 177.61 140.85 C 178.05 141.59 179.01 141.83 179.75 141.39 Z M 180.60 140.88 L 181.48 140.38 C 182.23 139.96 182.50 139.00 182.07 138.25 C 181.65 137.50 180.70 137.24 179.95 137.67 L 179.06 138.16 C 178.31 138.59 178.05 139.54 178.48 140.29 C 178.90 141.04 179.85 141.31 180.60 140.88 Z M 181.45 140.40 L 182.32 139.93 C 183.08 139.53 183.37 138.58 182.97 137.82 C 182.56 137.06 181.61 136.77 180.85 137.18 L 179.98 137.65 C 179.22 138.05 178.93 139.00 179.34 139.76 C 179.74 140.52 180.69 140.81 181.45 140.40 Z M 182.28 139.95 L 183.15 139.52 C 183.92 139.14 184.23 138.20 183.85 137.43 C 183.47 136.66 182.53 136.35 181.76 136.73 L 180.89 137.16 C 180.12 137.54 179.81 138.48 180.19 139.25 C 180.58 140.03 181.51 140.34 182.28 139.95 Z M 183.10 139.55 L 184.06 139.11 C 184.84 138.75 185.19 137.82 184.83 137.04 C 184.47 136.26 183.54 135.91 182.76 136.27 L 181.80 136.71 C 181.02 137.07 180.67 137.99 181.03 138.78 C 181.39 139.56 182.32 139.91 183.10 139.55 Z M 184.01 139.13 L 184.94 138.74 C 185.74 138.40 186.11 137.49 185.78 136.69 C 185.44 135.90 184.53 135.53 183.73 135.86 L 182.80 136.25 C 182.01 136.58 181.63 137.50 181.97 138.29 C 182.30 139.09 183.22 139.46 184.01 139.13 Z M 184.90 138.75 L 185.81 138.40 C 186.61 138.09 187.01 137.19 186.70 136.38 C 186.39 135.58 185.48 135.18 184.68 135.49 L 183.77 135.84 C 182.97 136.15 182.57 137.06 182.88 137.86 C 183.19 138.67 184.10 139.07 184.90 138.75 Z M 185.77 138.42 L 186.69 138.09 C 187.50 137.79 187.92 136.90 187.63 136.09 C 187.34 135.28 186.44 134.86 185.63 135.15 L 184.71 135.48 C 183.90 135.77 183.48 136.67 183.77 137.48 C 184.07 138.29 184.96 138.71 185.77 138.42 Z M 186.66 138.10 L 187.60 137.78 C 188.42 137.50 188.86 136.62 188.58 135.80 C 188.31 134.98 187.42 134.55 186.60 134.82 L 185.66 135.14 C 184.84 135.41 184.40 136.30 184.68 137.12 C 184.96 137.93 185.84 138.37 186.66 138.10 Z M 187.58 137.79 L 188.52 137.48 C 189.34 137.22 189.79 136.34 189.53 135.52 C 189.27 134.70 188.39 134.25 187.57 134.51 L 186.62 134.81 C 185.80 135.08 185.35 135.96 185.61 136.78 C 185.88 137.60 186.76 138.05 187.58 137.79 Z M 188.51 137.49 L 189.46 137.19 C 190.28 136.93 190.74 136.05 190.48 135.23 C 190.22 134.41 189.35 133.95 188.52 134.21 L 187.58 134.51 C 186.75 134.77 186.30 135.64 186.55 136.46 C 186.81 137.29 187.69 137.74 188.51 137.49 Z M 189.47 137.19 L 190.38 136.89 C 191.20 136.63 191.66 135.75 191.39 134.93 C 191.13 134.11 190.25 133.66 189.43 133.92 L 188.51 134.21 C 187.69 134.48 187.24 135.36 187.51 136.18 C 187.77 137.00 188.65 137.45 189.47 137.19 Z M 190.43 136.88 L 191.37 136.54 C 192.18 136.26 192.61 135.36 192.32 134.55 C 192.03 133.74 191.14 133.31 190.33 133.60 L 189.38 133.93 C 188.57 134.22 188.15 135.11 188.43 135.93 C 188.72 136.74 189.61 137.17 190.43 136.88 Z M 191.44 136.52 L 192.40 136.12 C 193.20 135.79 193.58 134.88 193.25 134.08 C 192.92 133.29 192.01 132.91 191.21 133.23 L 190.25 133.63 C 189.45 133.96 189.07 134.87 189.40 135.67 C 189.73 136.47 190.64 136.84 191.44 136.52 Z M 192.49 136.08 L 193.40 135.63 C 194.17 135.25 194.49 134.31 194.11 133.54 C 193.73 132.77 192.79 132.45 192.02 132.83 L 191.11 133.28 C 190.34 133.66 190.02 134.60 190.40 135.37 C 190.79 136.14 191.72 136.46 192.49 136.08 Z M 193.50 135.58 L 194.36 135.07 C 195.10 134.64 195.35 133.68 194.92 132.94 C 194.48 132.19 193.52 131.94 192.78 132.38 L 191.92 132.88 C 191.17 133.32 190.92 134.28 191.36 135.02 C 191.80 135.76 192.75 136.01 193.50 135.58 Z M 194.46 135.01 L 195.29 134.44 C 196.00 133.95 196.17 132.97 195.68 132.26 C 195.19 131.56 194.22 131.38 193.51 131.87 L 192.68 132.44 C 191.97 132.93 191.79 133.91 192.29 134.62 C 192.78 135.32 193.75 135.50 194.46 135.01 Z M 195.39 134.36 L 196.17 133.72 C 196.83 133.17 196.93 132.19 196.38 131.52 C 195.83 130.86 194.85 130.76 194.18 131.31 L 193.41 131.95 C 192.74 132.50 192.64 133.48 193.19 134.15 C 193.74 134.81 194.73 134.91 195.39 134.36 Z M 196.27 133.62 L 197.01 132.89 C 197.62 132.28 197.62 131.29 197.01 130.68 C 196.41 130.07 195.42 130.07 194.81 130.68 L 194.07 131.41 C 193.46 132.01 193.46 133.00 194.07 133.61 C 194.68 134.23 195.66 134.23 196.27 133.62 Z M 197.08 132.81 L 197.76 132.04 C 198.33 131.39 198.26 130.41 197.62 129.84 C 196.97 129.27 195.98 129.33 195.41 129.98 L 194.73 130.75 C 194.17 131.40 194.23 132.39 194.88 132.96 C 195.53 133.53 196.51 133.46 197.08 132.81 Z M 197.78 132.02 L 198.42 131.26 C 198.98 130.61 198.89 129.62 198.24 129.06 C 197.58 128.51 196.59 128.59 196.04 129.25 L 195.39 130.00 C 194.84 130.66 194.92 131.65 195.58 132.20 C 196.23 132.76 197.22 132.68 197.78 132.02 Z M 198.38 131.31 L 199.01 130.62 C 199.59 129.98 199.55 129.00 198.92 128.41 C 198.28 127.83 197.29 127.87 196.71 128.51 L 196.08 129.20 C 195.49 129.83 195.54 130.82 196.17 131.41 C 196.81 131.99 197.79 131.95 198.38 131.31 Z M 198.90 130.73 L 199.67 130.05 C 200.31 129.48 200.37 128.49 199.80 127.84 C 199.23 127.20 198.24 127.14 197.60 127.71 L 196.83 128.40 C 196.18 128.97 196.12 129.95 196.69 130.60 C 197.27 131.24 198.25 131.30 198.90 130.73 Z M 199.53 130.16 L 200.34 129.59 C 201.04 129.10 201.21 128.12 200.72 127.42 C 200.22 126.71 199.25 126.54 198.54 127.03 L 197.74 127.60 C 197.03 128.10 196.86 129.07 197.35 129.78 C 197.85 130.48 198.82 130.65 199.53 130.16 Z M 200.22 129.66 L 201.07 129.17 C 201.82 128.74 202.07 127.79 201.64 127.04 C 201.21 126.29 200.26 126.04 199.51 126.47 L 198.66 126.96 C 197.91 127.39 197.66 128.35 198.09 129.09 C 198.52 129.84 199.48 130.10 200.22 129.66 Z M 201.00 129.21 L 201.87 128.77 C 202.64 128.37 202.94 127.43 202.55 126.67 C 202.16 125.90 201.22 125.59 200.45 125.99 L 199.58 126.43 C 198.81 126.82 198.51 127.76 198.90 128.53 C 199.29 129.30 200.23 129.60 201.00 129.21 Z M 201.86 128.77 L 202.75 128.32 C 203.52 127.94 203.83 127.00 203.44 126.23 C 203.05 125.46 202.11 125.15 201.34 125.54 L 200.46 125.98 C 199.69 126.37 199.38 127.31 199.76 128.08 C 200.15 128.85 201.09 129.16 201.86 128.77 Z M 202.80 128.30 L 203.69 127.81 C 204.44 127.39 204.72 126.44 204.30 125.69 C 203.89 124.93 202.94 124.66 202.18 125.07 L 201.29 125.56 C 200.54 125.98 200.26 126.93 200.68 127.68 C 201.10 128.44 202.05 128.71 202.80 128.30 Z M 203.79 127.75 L 204.61 127.21 C 205.33 126.74 205.53 125.77 205.06 125.05 C 204.59 124.33 203.62 124.13 202.90 124.60 L 202.08 125.13 C 201.36 125.60 201.16 126.57 201.63 127.29 C 202.10 128.02 203.07 128.22 203.79 127.75 Z M 204.69 127.15 L 205.46 126.58 C 206.15 126.06 206.28 125.08 205.77 124.39 C 205.25 123.70 204.27 123.56 203.58 124.08 L 202.81 124.66 C 202.12 125.18 201.99 126.16 202.50 126.84 C 203.02 127.53 204.00 127.67 204.69 127.15 Z M 205.49 126.55 L 206.28 125.92 C 206.95 125.38 207.06 124.40 206.52 123.73 C 205.99 123.05 205.00 122.94 204.33 123.48 L 203.54 124.11 C 202.87 124.65 202.76 125.63 203.30 126.30 C 203.84 126.98 204.82 127.09 205.49 126.55 Z M 206.27 125.93 L 207.10 125.27 C 207.78 124.73 207.90 123.75 207.36 123.08 C 206.83 122.40 205.84 122.28 205.17 122.82 L 204.34 123.48 C 203.66 124.01 203.54 124.99 204.08 125.67 C 204.61 126.35 205.60 126.46 206.27 125.93 Z M 207.07 125.29 L 207.84 124.72 C 208.53 124.20 208.67 123.22 208.16 122.53 C 207.64 121.84 206.66 121.70 205.97 122.22 L 205.20 122.79 C 204.51 123.31 204.37 124.29 204.89 124.98 C 205.40 125.67 206.38 125.81 207.07 125.29 Z M 207.81 124.74 L 208.62 124.16 C 209.32 123.66 209.48 122.69 208.98 121.99 C 208.48 121.28 207.50 121.12 206.80 121.62 L 206.00 122.20 C 205.30 122.70 205.13 123.67 205.64 124.38 C 206.14 125.08 207.11 125.24 207.81 124.74 Z M 208.60 124.18 L 209.43 123.60 C 210.14 123.11 210.32 122.13 209.82 121.43 C 209.33 120.72 208.36 120.54 207.65 121.03 L 206.82 121.61 C 206.11 122.10 205.93 123.07 206.43 123.78 C 206.92 124.49 207.89 124.67 208.60 124.18 Z M 209.42 123.61 L 210.27 123.02 C 210.99 122.54 211.17 121.57 210.68 120.85 C 210.20 120.14 209.23 119.96 208.51 120.44 L 207.66 121.03 C 206.95 121.51 206.77 122.48 207.25 123.19 C 207.74 123.91 208.71 124.09 209.42 123.61 Z M 210.27 123.03 L 210.63 122.78 C 211.35 122.29 211.53 121.32 211.05 120.61 C 210.57 119.90 209.60 119.71 208.88 120.19 L 208.52 120.44 C 207.80 120.93 207.62 121.90 208.10 122.61 C 208.59 123.32 209.56 123.51 210.27 123.03 Z"
      fill="black"
      fill-rule="nonzero" /><path d="M 150.91 89.91 L 150.61 90.89 C 150.37 91.71 150.83 92.58 151.66 92.83 C 152.48 93.08 153.35 92.61 153.60 91.79 L 153.90 90.81 C 154.15 89.99 153.68 89.11 152.86 88.87 C 152.03 88.62 151.16 89.08 150.91 89.91 Z M 150.61 90.91 L 150.33 91.88 C 150.10 92.71 150.58 93.58 151.41 93.81 C 152.24 94.05 153.10 93.56 153.34 92.73 L 153.61 91.76 C 153.85 90.93 153.36 90.07 152.53 89.84 C 151.70 89.60 150.84 90.08 150.61 90.91 Z M 150.32 91.94 L 150.08 92.90 C 149.88 93.74 150.39 94.58 151.23 94.79 C 152.07 94.99 152.91 94.48 153.12 93.64 L 153.35 92.68 C 153.56 91.84 153.04 91.00 152.20 90.79 C 151.37 90.59 150.52 91.10 150.32 91.94 Z M 150.07 92.99 L 149.89 93.94 C 149.74 94.79 150.30 95.60 151.15 95.76 C 151.99 95.91 152.81 95.35 152.96 94.50 L 153.14 93.55 C 153.29 92.70 152.73 91.89 151.88 91.73 C 151.03 91.58 150.22 92.14 150.07 92.99 Z M 149.88 94.05 L 149.76 95.01 C 149.67 95.87 150.28 96.64 151.14 96.74 C 152.00 96.84 152.77 96.22 152.87 95.37 L 152.98 94.40 C 153.08 93.54 152.46 92.77 151.60 92.67 C 150.75 92.57 149.97 93.19 149.88 94.05 Z M 149.76 95.09 L 149.70 96.08 C 149.64 96.95 150.30 97.69 151.16 97.74 C 152.02 97.79 152.76 97.14 152.81 96.28 L 152.87 95.28 C 152.93 94.42 152.27 93.68 151.41 93.63 C 150.55 93.58 149.81 94.23 149.76 95.09 Z M 149.69 96.14 L 149.67 97.18 C 149.64 98.04 150.32 98.76 151.18 98.78 C 152.04 98.81 152.76 98.13 152.79 97.27 L 152.82 96.22 C 152.84 95.36 152.16 94.64 151.30 94.62 C 150.44 94.59 149.72 95.27 149.69 96.14 Z M 149.66 97.20 L 149.65 98.16 C 149.64 99.03 150.33 99.73 151.19 99.75 C 152.05 99.76 152.76 99.07 152.77 98.21 L 152.79 97.24 C 152.80 96.38 152.11 95.67 151.25 95.66 C 150.39 95.65 149.68 96.34 149.66 97.20 Z M 149.65 98.17 L 149.64 99.18 C 149.63 100.04 150.32 100.74 151.19 100.75 C 152.05 100.76 152.75 100.07 152.76 99.21 L 152.77 98.20 C 152.78 97.34 152.09 96.63 151.23 96.62 C 150.36 96.62 149.66 97.31 149.65 98.17 Z M 149.64 99.18 L 149.63 100.20 C 149.62 101.06 150.31 101.76 151.18 101.77 C 152.04 101.78 152.74 101.09 152.75 100.23 L 152.76 99.21 C 152.77 98.34 152.08 97.64 151.22 97.63 C 150.36 97.62 149.65 98.31 149.64 99.18 Z M 149.63 100.19 L 149.62 101.19 C 149.60 102.06 150.29 102.76 151.15 102.78 C 152.02 102.79 152.72 102.10 152.74 101.24 L 152.75 100.24 C 152.77 99.37 152.08 98.66 151.22 98.65 C 150.35 98.64 149.64 99.33 149.63 100.19 Z M 149.62 101.18 L 149.60 102.09 C 149.58 102.95 150.26 103.66 151.12 103.68 C 151.98 103.70 152.70 103.02 152.72 102.16 L 152.74 101.25 C 152.76 100.39 152.07 99.68 151.21 99.66 C 150.35 99.64 149.64 100.32 149.62 101.18 Z M 149.60 102.08 L 149.57 103.01 C 149.55 103.87 150.23 104.59 151.09 104.61 C 151.95 104.64 152.67 103.96 152.69 103.09 L 152.72 102.16 C 152.74 101.30 152.06 100.59 151.20 100.56 C 150.34 100.54 149.62 101.22 149.60 102.08 Z M 149.57 103.01 L 149.55 104.01 C 149.53 104.88 150.21 105.59 151.07 105.61 C 151.93 105.63 152.65 104.95 152.67 104.09 L 152.69 103.09 C 152.71 102.23 152.03 101.51 151.17 101.49 C 150.31 101.47 149.59 102.15 149.57 103.01 Z M 149.55 104.02 L 149.52 105.14 C 149.51 106.00 150.19 106.71 151.06 106.73 C 151.92 106.74 152.63 106.06 152.65 105.20 L 152.67 104.08 C 152.68 103.22 152.00 102.51 151.14 102.49 C 150.28 102.47 149.56 103.16 149.55 104.02 Z M 149.52 105.15 L 149.51 106.12 C 149.50 106.98 150.19 107.69 151.05 107.70 C 151.92 107.71 152.62 107.02 152.63 106.16 L 152.65 105.19 C 152.66 104.32 151.97 103.62 151.11 103.61 C 150.24 103.59 149.54 104.28 149.52 105.15 Z M 149.51 106.12 L 149.50 107.07 C 149.50 107.93 150.19 108.64 151.05 108.64 C 151.91 108.65 152.62 107.96 152.63 107.10 L 152.63 106.15 C 152.64 105.29 151.95 104.58 151.09 104.58 C 150.23 104.57 149.52 105.26 149.51 106.12 Z M 149.50 107.07 L 149.50 108.07 C 149.49 108.93 150.18 109.64 151.05 109.64 C 151.91 109.65 152.61 108.95 152.62 108.09 L 152.63 107.09 C 152.63 106.23 151.94 105.53 151.08 105.52 C 150.21 105.52 149.51 106.21 149.50 107.07 Z M 149.50 108.07 L 149.49 109.10 C 149.48 109.96 150.17 110.67 151.04 110.67 C 151.90 110.68 152.60 109.99 152.61 109.12 L 152.62 108.09 C 152.63 107.23 151.93 106.53 151.07 106.52 C 150.21 106.51 149.50 107.21 149.50 108.07 Z M 149.49 109.10 L 149.48 110.14 C 149.47 111.01 150.16 111.71 151.02 111.72 C 151.89 111.73 152.59 111.04 152.60 110.18 L 152.61 109.13 C 152.62 108.27 151.93 107.56 151.07 107.55 C 150.20 107.54 149.50 108.23 149.49 109.10 Z M 149.48 110.14 L 149.46 111.18 C 149.45 112.05 150.14 112.75 151.00 112.77 C 151.86 112.78 152.57 112.09 152.59 111.23 L 152.60 110.18 C 152.61 109.32 151.92 108.61 151.06 108.60 C 150.20 108.59 149.49 109.28 149.48 110.14 Z M 149.46 111.17 L 149.44 112.14 C 149.43 113.01 150.11 113.72 150.97 113.74 C 151.84 113.75 152.55 113.07 152.57 112.21 L 152.58 111.24 C 152.60 110.37 151.92 109.66 151.05 109.64 C 150.19 109.63 149.48 110.31 149.46 111.17 Z M 149.44 112.13 L 149.42 113.03 C 149.40 113.89 150.08 114.61 150.94 114.63 C 151.80 114.65 152.52 113.97 152.54 113.11 L 152.57 112.22 C 152.59 111.35 151.91 110.64 151.05 110.61 C 150.18 110.59 149.47 111.27 149.44 112.13 Z M 149.42 113.02 L 149.39 113.92 C 149.36 114.78 150.03 115.50 150.90 115.53 C 151.76 115.56 152.48 114.89 152.51 114.03 L 152.54 113.12 C 152.57 112.26 151.90 111.54 151.04 111.51 C 150.17 111.48 149.45 112.15 149.42 113.02 Z M 149.39 113.91 L 149.35 114.84 C 149.31 115.70 149.98 116.43 150.84 116.46 C 151.70 116.50 152.43 115.83 152.47 114.97 L 152.51 114.04 C 152.55 113.18 151.88 112.45 151.02 112.41 C 150.16 112.38 149.43 113.04 149.39 113.91 Z M 149.35 114.82 L 149.30 115.80 C 149.26 116.66 149.92 117.40 150.78 117.44 C 151.64 117.49 152.37 116.83 152.42 115.96 L 152.47 114.98 C 152.51 114.12 151.85 113.39 150.99 113.34 C 150.13 113.30 149.40 113.96 149.35 114.82 Z M 149.30 115.79 L 149.24 116.84 C 149.19 117.70 149.84 118.44 150.70 118.49 C 151.56 118.54 152.30 117.89 152.36 117.03 L 152.42 115.98 C 152.47 115.12 151.81 114.38 150.95 114.33 C 150.09 114.27 149.35 114.93 149.30 115.79 Z M 149.24 116.83 L 149.16 117.97 C 149.11 118.83 149.76 119.58 150.62 119.63 C 151.48 119.69 152.22 119.04 152.28 118.18 L 152.35 117.04 C 152.41 116.18 151.76 115.43 150.90 115.38 C 150.04 115.32 149.30 115.97 149.24 116.83 Z M 149.16 117.96 L 149.08 119.06 C 149.02 119.92 149.67 120.67 150.53 120.73 C 151.39 120.79 152.14 120.15 152.20 119.29 L 152.28 118.19 C 152.34 117.33 151.69 116.58 150.83 116.52 C 149.97 116.46 149.23 117.10 149.16 117.96 Z M 149.08 119.05 L 149.01 119.99 C 148.95 120.85 149.59 121.60 150.45 121.67 C 151.31 121.73 152.06 121.09 152.13 120.23 L 152.20 119.29 C 152.26 118.43 151.62 117.68 150.76 117.62 C 149.90 117.55 149.15 118.19 149.08 119.05 Z M 149.01 119.99 L 148.94 120.97 C 148.87 121.83 149.51 122.58 150.37 122.65 C 151.23 122.72 151.98 122.08 152.05 121.22 L 152.13 120.23 C 152.19 119.38 151.55 118.62 150.69 118.56 C 149.83 118.49 149.08 119.13 149.01 119.99 Z M 148.94 120.97 L 148.85 121.99 C 148.78 122.85 149.42 123.60 150.28 123.67 C 151.14 123.74 151.90 123.10 151.97 122.24 L 152.05 121.22 C 152.12 120.36 151.48 119.61 150.62 119.54 C 149.76 119.47 149.01 120.11 148.94 120.97 Z M 148.85 121.98 L 148.77 123.02 C 148.70 123.88 149.34 124.63 150.19 124.71 C 151.05 124.78 151.81 124.14 151.88 123.28 L 151.96 122.24 C 152.04 121.38 151.40 120.63 150.54 120.56 C 149.68 120.49 148.92 121.12 148.85 121.98 Z M 148.77 123.02 L 148.68 124.07 C 148.61 124.92 149.25 125.68 150.10 125.75 C 150.96 125.82 151.72 125.19 151.79 124.33 L 151.88 123.28 C 151.95 122.42 151.31 121.67 150.45 121.59 C 149.59 121.52 148.84 122.16 148.77 123.02 Z M 148.68 124.06 L 148.59 125.11 C 148.52 125.97 149.15 126.72 150.01 126.80 C 150.87 126.87 151.63 126.23 151.70 125.37 L 151.79 124.33 C 151.86 123.47 151.23 122.71 150.37 122.64 C 149.51 122.57 148.75 123.21 148.68 124.06 Z M 148.59 125.11 L 148.50 126.13 C 148.43 126.99 149.07 127.75 149.92 127.82 C 150.78 127.90 151.54 127.26 151.61 126.40 L 151.70 125.37 C 151.78 124.51 151.14 123.76 150.28 123.68 C 149.42 123.61 148.66 124.25 148.59 125.11 Z M 148.50 126.13 L 148.42 127.13 C 148.34 127.99 148.98 128.75 149.84 128.82 C 150.70 128.90 151.45 128.26 151.53 127.40 L 151.61 126.40 C 151.69 125.54 151.05 124.79 150.19 124.71 C 149.33 124.64 148.58 125.27 148.50 126.13 Z M 148.42 127.13 L 148.33 128.10 C 148.26 128.95 148.90 129.71 149.75 129.79 C 150.61 129.86 151.37 129.22 151.44 128.36 L 151.53 127.40 C 151.60 126.54 150.97 125.79 150.11 125.71 C 149.25 125.64 148.49 126.28 148.42 127.13 Z M 148.33 128.10 L 148.25 129.09 C 148.17 129.95 148.81 130.71 149.67 130.78 C 150.53 130.86 151.28 130.22 151.36 129.36 L 151.44 128.36 C 151.52 127.51 150.88 126.75 150.02 126.68 C 149.16 126.60 148.41 127.24 148.33 128.10 Z M 148.25 129.10 L 148.15 130.19 C 148.08 131.04 148.72 131.80 149.58 131.87 C 150.43 131.95 151.19 131.31 151.26 130.45 L 151.36 129.36 C 151.43 128.50 150.79 127.75 149.94 127.67 C 149.08 127.60 148.32 128.24 148.25 129.10 Z M 148.15 130.19 L 148.07 131.21 C 147.99 132.07 148.63 132.82 149.49 132.90 C 150.35 132.97 151.11 132.33 151.18 131.47 L 151.26 130.45 C 151.34 129.59 150.70 128.84 149.84 128.76 C 148.98 128.69 148.23 129.33 148.15 130.19 Z M 148.07 131.21 L 147.99 132.18 C 147.92 133.04 148.56 133.80 149.41 133.87 C 150.27 133.94 151.03 133.30 151.10 132.44 L 151.18 131.47 C 151.25 130.61 150.61 129.85 149.75 129.78 C 148.89 129.71 148.14 130.35 148.07 131.21 Z M 147.99 132.19 L 147.91 133.13 C 147.84 133.99 148.48 134.74 149.34 134.81 C 150.20 134.88 150.96 134.24 151.02 133.38 L 151.10 132.44 C 151.17 131.58 150.53 130.82 149.67 130.76 C 148.81 130.69 148.05 131.33 147.99 132.19 Z M 147.91 133.14 L 147.84 134.08 C 147.77 134.94 148.42 135.69 149.28 135.75 C 150.14 135.82 150.89 135.17 150.95 134.31 L 151.02 133.38 C 151.09 132.52 150.45 131.77 149.59 131.70 C 148.73 131.63 147.98 132.28 147.91 133.14 Z M 147.84 134.08 L 147.77 135.04 C 147.71 135.90 148.35 136.64 149.21 136.71 C 150.07 136.77 150.82 136.12 150.88 135.26 L 150.95 134.31 C 151.02 133.45 150.37 132.70 149.51 132.64 C 148.65 132.58 147.90 133.22 147.84 134.08 Z M 147.77 135.04 L 147.70 136.03 C 147.64 136.89 148.29 137.64 149.15 137.70 C 150.01 137.76 150.76 137.11 150.82 136.25 L 150.88 135.26 C 150.94 134.40 150.29 133.65 149.43 133.59 C 148.57 133.53 147.83 134.18 147.77 135.04 Z M 147.70 136.04 L 147.64 137.01 C 147.58 137.87 148.23 138.61 149.09 138.67 C 149.96 138.72 150.70 138.07 150.75 137.21 L 150.82 136.24 C 150.87 135.38 150.22 134.64 149.36 134.58 C 148.50 134.53 147.76 135.18 147.70 136.04 Z M 147.64 137.01 L 147.58 137.97 C 147.53 138.83 148.18 139.57 149.04 139.62 C 149.90 139.68 150.64 139.02 150.70 138.16 L 150.75 137.21 C 150.81 136.35 150.15 135.61 149.29 135.55 C 148.43 135.50 147.69 136.15 147.64 137.01 Z M 147.58 137.97 L 147.52 138.96 C 147.47 139.82 148.13 140.56 148.99 140.61 C 149.85 140.66 150.59 140.01 150.64 139.15 L 150.70 138.16 C 150.75 137.30 150.09 136.56 149.23 136.51 C 148.37 136.46 147.63 137.11 147.58 137.97 Z M 147.52 138.97 L 147.46 139.98 C 147.42 140.84 148.07 141.58 148.94 141.63 C 149.80 141.68 150.53 141.02 150.58 140.16 L 150.64 139.14 C 150.69 138.28 150.03 137.54 149.17 137.50 C 148.30 137.45 147.57 138.11 147.52 138.97 Z M 147.46 139.99 L 147.41 141.02 C 147.36 141.88 148.03 142.61 148.89 142.66 C 149.75 142.70 150.48 142.04 150.53 141.18 L 150.58 140.15 C 150.63 139.29 149.97 138.56 149.10 138.51 C 148.24 138.47 147.51 139.13 147.46 139.99 Z M 147.41 141.02 L 147.36 142.06 C 147.32 142.92 147.98 143.65 148.84 143.69 C 149.70 143.74 150.43 143.07 150.48 142.21 L 150.53 141.18 C 150.57 140.32 149.91 139.58 149.05 139.54 C 148.18 139.50 147.45 140.16 147.41 141.02 Z M 147.36 142.06 L 147.31 143.09 C 147.27 143.95 147.94 144.68 148.80 144.72 C 149.66 144.76 150.39 144.09 150.43 143.23 L 150.48 142.20 C 150.52 141.34 149.85 140.61 148.99 140.57 C 148.13 140.53 147.40 141.20 147.36 142.06 Z M 147.31 143.10 L 147.27 144.11 C 147.23 144.97 147.90 145.70 148.76 145.73 C 149.63 145.77 150.35 145.10 150.39 144.24 L 150.43 143.23 C 150.47 142.36 149.80 141.64 148.94 141.60 C 148.07 141.57 147.35 142.24 147.31 143.10 Z M 147.27 144.12 L 147.23 145.10 C 147.20 145.96 147.87 146.69 148.73 146.72 C 149.60 146.75 150.32 146.08 150.35 145.22 L 150.39 144.23 C 150.42 143.37 149.75 142.64 148.89 142.61 C 148.02 142.58 147.30 143.25 147.27 144.12 Z M 147.23 145.11 L 147.20 146.20 C 147.17 147.06 147.85 147.78 148.71 147.81 C 149.57 147.84 150.29 147.16 150.32 146.30 L 150.35 145.21 C 150.38 144.34 149.70 143.62 148.84 143.60 C 147.98 143.57 147.26 144.25 147.23 145.11 Z M 147.20 146.21 L 147.17 147.34 C 147.15 148.21 147.83 148.92 148.69 148.94 C 149.55 148.96 150.27 148.28 150.29 147.42 L 150.32 146.29 C 150.34 145.43 149.66 144.71 148.80 144.69 C 147.93 144.67 147.22 145.35 147.20 146.21 Z M 147.17 147.35 L 147.15 148.43 C 147.14 149.29 147.82 150.00 148.68 150.02 C 149.55 150.03 150.26 149.35 150.27 148.48 L 150.29 147.41 C 150.31 146.55 149.62 145.84 148.76 145.82 C 147.90 145.81 147.19 146.49 147.17 147.35 Z M 147.15 148.44 L 147.14 149.45 C 147.13 150.32 147.82 151.02 148.68 151.03 C 149.54 151.04 150.25 150.35 150.26 149.49 L 150.27 148.47 C 150.28 147.61 149.59 146.90 148.73 146.89 C 147.87 146.88 147.16 147.57 147.15 148.44 Z M 147.14 149.46 L 147.13 150.43 C 147.12 151.29 147.82 151.99 148.68 152.00 C 149.54 152.00 150.25 151.31 150.25 150.45 L 150.26 149.48 C 150.27 148.62 149.57 147.92 148.71 147.91 C 147.85 147.90 147.14 148.60 147.14 149.46 Z M 147.13 150.43 L 147.13 151.35 C 147.12 152.21 147.82 152.91 148.68 152.91 C 149.55 152.92 150.25 152.22 150.25 151.36 L 150.25 150.44 C 150.26 149.58 149.56 148.88 148.70 148.88 C 147.84 148.87 147.13 149.57 147.13 150.43 Z M 147.13 151.35 L 147.13 152.22 C 147.13 153.09 147.82 153.79 148.69 153.79 C 149.55 153.79 150.25 153.09 150.25 152.23 L 150.25 151.36 C 150.25 150.49 149.55 149.79 148.69 149.79 C 147.83 149.79 147.13 150.49 147.13 151.35 Z M 147.13 152.22 L 147.13 153.18 C 147.13 154.04 147.83 154.74 148.69 154.74 C 149.55 154.74 150.25 154.04 150.25 153.18 L 150.25 152.22 C 150.25 151.36 149.55 150.66 148.69 150.66 C 147.83 150.66 147.13 151.36 147.13 152.22 Z M 147.13 153.18 L 147.13 154.22 C 147.13 155.08 147.83 155.78 148.69 155.78 C 149.55 155.78 150.25 155.08 150.25 154.22 L 150.25 153.18 C 150.25 152.32 149.55 151.62 148.69 151.62 C 147.83 151.62 147.13 152.32 147.13 153.18 Z M 147.13 154.22 L 147.13 155.22 C 147.13 156.08 147.83 156.78 148.69 156.78 C 149.55 156.78 150.25 156.08 150.25 155.22 L 150.25 154.22 C 150.25 153.36 149.55 152.66 148.69 152.66 C 147.83 152.66 147.13 153.36 147.13 154.22 Z M 147.13 155.22 L 147.13 156.19 C 147.13 157.06 147.83 157.75 148.69 157.75 C 149.55 157.75 150.25 157.06 150.25 156.19 L 150.25 155.22 C 150.25 154.36 149.55 153.66 148.69 153.66 C 147.83 153.66 147.13 154.36 147.13 155.22 Z M 147.13 156.19 L 147.13 157.16 C 147.13 158.02 147.83 158.72 148.69 158.72 C 149.55 158.72 150.25 158.02 150.25 157.16 L 150.25 156.19 C 150.25 155.33 149.55 154.63 148.69 154.63 C 147.83 154.63 147.13 155.33 147.13 156.19 Z M 147.13 157.16 L 147.13 158.15 C 147.13 159.01 147.83 159.71 148.69 159.71 C 149.55 159.71 150.25 159.01 150.25 158.15 L 150.25 157.16 C 150.25 156.30 149.55 155.60 148.69 155.60 C 147.83 155.60 147.13 156.30 147.13 157.16 Z M 147.13 158.15 L 147.13 159.19 C 147.13 160.05 147.83 160.75 148.69 160.75 C 149.55 160.75 150.25 160.05 150.25 159.19 L 150.25 158.15 C 150.25 157.28 149.55 156.58 148.69 156.58 C 147.83 156.58 147.13 157.28 147.13 158.15 Z M 147.13 159.19 L 147.13 160.24 C 147.12 161.10 147.82 161.80 148.68 161.80 C 149.55 161.80 150.25 161.10 150.25 160.24 L 150.25 159.19 C 150.25 158.33 149.55 157.63 148.69 157.63 C 147.83 157.63 147.13 158.33 147.13 159.19 Z M 147.13 160.23 L 147.12 161.26 C 147.12 162.12 147.81 162.82 148.68 162.83 C 149.54 162.83 150.24 162.13 150.24 161.27 L 150.25 160.25 C 150.25 159.38 149.55 158.68 148.69 158.68 C 147.83 158.68 147.13 159.37 147.13 160.23 Z M 147.12 161.25 L 147.11 162.23 C 147.11 163.09 147.80 163.80 148.66 163.80 C 149.53 163.81 150.23 163.11 150.24 162.25 L 150.24 161.28 C 150.25 160.41 149.56 159.71 148.69 159.70 C 147.83 159.70 147.13 160.39 147.12 161.25 Z M 147.11 162.22 L 147.10 163.12 C 147.09 163.98 147.78 164.69 148.64 164.70 C 149.51 164.71 150.21 164.02 150.23 163.16 L 150.24 162.26 C 150.25 161.40 149.56 160.69 148.70 160.68 C 147.83 160.67 147.13 161.36 147.11 162.22 Z M 147.10 163.11 L 147.08 164.25 C 147.06 165.11 147.74 165.83 148.60 165.85 C 149.46 165.87 150.18 165.19 150.20 164.32 L 150.22 163.18 C 150.24 162.32 149.56 161.60 148.70 161.58 C 147.84 161.56 147.12 162.24 147.10 163.11 Z M 147.08 164.23 L 147.04 165.23 C 147.01 166.09 147.68 166.81 148.54 166.85 C 149.40 166.88 150.13 166.21 150.16 165.34 L 150.20 164.35 C 150.23 163.49 149.56 162.76 148.70 162.73 C 147.83 162.70 147.11 163.37 147.08 164.23 Z M 147.04 165.21 L 146.99 166.12 C 146.95 166.98 147.61 167.71 148.47 167.76 C 149.33 167.80 150.07 167.14 150.11 166.28 L 150.16 165.37 C 150.20 164.51 149.54 163.77 148.68 163.73 C 147.82 163.68 147.09 164.34 147.04 165.21 Z M 146.99 166.10 L 146.93 167.04 C 146.88 167.90 147.53 168.64 148.39 168.69 C 149.25 168.75 150.00 168.10 150.05 167.24 L 150.11 166.30 C 150.17 165.44 149.51 164.69 148.65 164.64 C 147.79 164.58 147.05 165.24 146.99 166.10 Z M 146.94 167.03 L 146.86 168.03 C 146.80 168.89 147.45 169.63 148.31 169.69 C 149.17 169.75 149.92 169.11 149.98 168.25 L 150.05 167.25 C 150.11 166.39 149.46 165.64 148.60 165.58 C 147.74 165.52 147.00 166.17 146.94 167.03 Z M 146.86 168.03 L 146.80 169.03 C 146.74 169.89 147.39 170.63 148.25 170.69 C 149.11 170.75 149.85 170.10 149.91 169.24 L 149.98 168.24 C 150.04 167.38 149.39 166.64 148.53 166.58 C 147.67 166.52 146.92 167.17 146.86 168.03 Z M 146.79 169.04 L 146.73 170.03 C 146.68 170.89 147.34 171.63 148.20 171.68 C 149.06 171.73 149.80 171.08 149.85 170.22 L 149.91 169.23 C 149.96 168.37 149.31 167.63 148.45 167.58 C 147.59 167.53 146.85 168.18 146.79 169.04 Z M 146.73 170.04 L 146.68 171.02 C 146.64 171.88 147.30 172.61 148.17 172.66 C 149.03 172.70 149.76 172.04 149.80 171.18 L 149.85 170.20 C 149.90 169.34 149.23 168.61 148.37 168.56 C 147.51 168.52 146.78 169.18 146.73 170.04 Z M 146.68 171.02 L 146.64 172.02 C 146.59 172.88 147.26 173.61 148.12 173.65 C 148.98 173.70 149.71 173.03 149.75 172.17 L 149.80 171.18 C 149.85 170.31 149.18 169.58 148.32 169.54 C 147.46 169.50 146.73 170.16 146.68 171.02 Z M 146.64 172.01 L 146.58 173.03 C 146.53 173.89 147.19 174.63 148.05 174.68 C 148.91 174.73 149.65 174.07 149.70 173.21 L 149.75 172.18 C 149.80 171.32 149.14 170.58 148.28 170.54 C 147.42 170.49 146.68 171.15 146.64 172.01 Z M 146.58 173.02 L 146.52 174.00 C 146.46 174.86 147.11 175.61 147.97 175.66 C 148.83 175.72 149.57 175.07 149.63 174.21 L 149.70 173.22 C 149.75 172.36 149.10 171.62 148.24 171.56 C 147.38 171.51 146.64 172.16 146.58 173.02 Z M 146.52 173.99 L 146.44 175.00 C 146.38 175.86 147.02 176.61 147.88 176.67 C 148.74 176.74 149.49 176.09 149.56 175.23 L 149.63 174.22 C 149.69 173.36 149.05 172.61 148.19 172.55 C 147.33 172.49 146.58 173.13 146.52 173.99 Z M 146.44 175.00 L 146.36 176.00 C 146.30 176.86 146.94 177.61 147.80 177.68 C 148.66 177.75 149.41 177.10 149.48 176.24 L 149.56 175.24 C 149.62 174.38 148.98 173.63 148.12 173.56 C 147.26 173.49 146.51 174.14 146.44 175.00 Z M 146.36 176.00 L 146.28 177.02 C 146.22 177.88 146.86 178.63 147.72 178.70 C 148.58 178.76 149.33 178.12 149.40 177.26 L 149.48 176.25 C 149.55 175.39 148.90 174.63 148.04 174.57 C 147.18 174.50 146.43 175.14 146.36 176.00 Z M 146.28 177.02 L 146.20 178.02 C 146.13 178.88 146.78 179.63 147.64 179.70 C 148.50 179.77 149.25 179.13 149.32 178.27 L 149.40 177.26 C 149.46 176.40 148.82 175.65 147.96 175.58 C 147.10 175.52 146.35 176.16 146.28 177.02 Z M 146.20 178.02 L 146.13 179.00 C 146.06 179.86 146.70 180.61 147.56 180.68 C 148.42 180.75 149.17 180.11 149.24 179.25 L 149.32 178.27 C 149.38 177.41 148.74 176.66 147.88 176.59 C 147.02 176.52 146.27 177.16 146.20 178.02 Z M 146.13 179.00 L 146.05 179.92 C 145.98 180.78 146.62 181.53 147.48 181.60 C 148.34 181.67 149.09 181.03 149.16 180.17 L 149.24 179.25 C 149.31 178.39 148.67 177.64 147.81 177.57 C 146.95 177.50 146.19 178.14 146.13 179.00 Z M 146.05 179.92 L 145.98 180.78 C 145.91 181.64 146.55 182.39 147.41 182.46 C 148.27 182.53 149.02 181.89 149.09 181.03 L 149.16 180.17 C 149.23 179.31 148.59 178.56 147.73 178.49 C 146.87 178.42 146.12 179.06 146.05 179.92 Z M 145.98 180.77 L 145.90 181.73 C 145.83 182.58 146.47 183.34 147.33 183.41 C 148.19 183.48 148.94 182.84 149.01 181.98 L 149.09 181.03 C 149.17 180.17 148.53 179.42 147.67 179.35 C 146.81 179.28 146.05 179.92 145.98 180.77 Z M 145.90 181.72 L 145.81 182.83 C 145.73 183.69 146.37 184.45 147.23 184.52 C 148.09 184.60 148.84 183.96 148.92 183.10 L 149.01 181.99 C 149.09 181.13 148.45 180.37 147.59 180.30 C 146.73 180.23 145.98 180.86 145.90 181.72 Z M 145.81 182.83 L 145.71 183.89 C 145.64 184.75 146.27 185.51 147.13 185.59 C 147.99 185.66 148.75 185.03 148.82 184.17 L 148.92 183.10 C 148.99 182.25 148.36 181.49 147.50 181.41 C 146.64 181.33 145.88 181.97 145.81 182.83 Z M 145.71 183.89 L 145.63 184.84 C 145.55 185.70 146.18 186.46 147.04 186.53 C 147.90 186.61 148.66 185.98 148.74 185.12 L 148.82 184.17 C 148.90 183.31 148.27 182.55 147.41 182.48 C 146.55 182.40 145.79 183.03 145.71 183.89 Z M 145.63 184.84 L 145.53 185.85 C 145.46 186.71 146.09 187.47 146.95 187.55 C 147.81 187.62 148.57 186.99 148.64 186.13 L 148.74 185.12 C 148.81 184.26 148.18 183.50 147.32 183.43 C 146.46 183.35 145.70 183.98 145.63 184.84 Z M 145.53 185.85 L 145.44 186.89 C 145.36 187.75 146.00 188.51 146.86 188.59 C 147.71 188.66 148.47 188.03 148.55 187.17 L 148.64 186.13 C 148.72 185.27 148.09 184.51 147.23 184.44 C 146.37 184.36 145.61 184.99 145.53 185.85 Z M 145.44 186.89 L 145.35 187.93 C 145.27 188.79 145.91 189.55 146.76 189.63 C 147.62 189.70 148.38 189.07 148.46 188.21 L 148.55 187.17 C 148.63 186.31 147.99 185.55 147.13 185.48 C 146.28 185.40 145.52 186.03 145.44 186.89 Z M 145.35 187.94 L 145.26 188.95 C 145.19 189.81 145.82 190.56 146.68 190.64 C 147.54 190.71 148.30 190.08 148.37 189.22 L 148.46 188.21 C 148.53 187.35 147.90 186.59 147.04 186.52 C 146.18 186.44 145.42 187.08 145.35 187.94 Z M 145.26 188.95 L 145.17 189.99 C 145.10 190.85 145.74 191.61 146.60 191.68 C 147.46 191.75 148.21 191.11 148.29 190.25 L 148.37 189.21 C 148.44 188.35 147.80 187.60 146.94 187.53 C 146.08 187.45 145.33 188.09 145.26 188.95 Z M 145.17 190.00 L 145.09 191.03 C 145.03 191.89 145.67 192.64 146.53 192.71 C 147.39 192.77 148.14 192.13 148.21 191.27 L 148.29 190.24 C 148.35 189.38 147.71 188.63 146.85 188.57 C 145.99 188.50 145.24 189.14 145.17 190.00 Z M 145.09 191.04 L 145.03 192.02 C 144.97 192.88 145.62 193.63 146.48 193.69 C 147.34 193.74 148.08 193.09 148.14 192.23 L 148.21 191.26 C 148.27 190.40 147.62 189.65 146.76 189.59 C 145.90 189.53 145.15 190.18 145.09 191.04 Z M 145.03 192.04 L 144.97 193.00 C 144.92 193.86 145.58 194.59 146.44 194.65 C 147.30 194.70 148.04 194.04 148.09 193.18 L 148.14 192.22 C 148.19 191.36 147.54 190.62 146.68 190.57 C 145.81 190.52 145.08 191.18 145.03 192.04 Z M 144.97 193.01 L 144.92 193.98 C 144.88 194.84 145.54 195.58 146.40 195.62 C 147.27 195.66 148.00 195.00 148.04 194.13 L 148.09 193.16 C 148.13 192.30 147.46 191.57 146.60 191.53 C 145.74 191.49 145.01 192.15 144.97 193.01 Z M 144.92 194.00 L 144.88 194.98 C 144.85 195.84 145.52 196.57 146.38 196.60 C 147.24 196.64 147.97 195.97 148.00 195.10 L 148.04 194.12 C 148.07 193.26 147.40 192.53 146.54 192.50 C 145.68 192.46 144.95 193.14 144.92 194.00 Z M 144.88 194.99 L 144.85 195.99 C 144.82 196.85 145.50 197.57 146.36 197.60 C 147.22 197.63 147.94 196.95 147.97 196.09 L 148.00 195.09 C 148.03 194.23 147.35 193.51 146.49 193.48 C 145.63 193.46 144.91 194.13 144.88 194.99 Z M 144.85 196.00 L 144.82 197.02 C 144.80 197.89 145.48 198.60 146.35 198.62 C 147.21 198.64 147.92 197.96 147.95 197.10 L 147.97 196.08 C 147.99 195.22 147.31 194.50 146.45 194.48 C 145.59 194.46 144.87 195.14 144.85 196.00 Z M 144.82 197.03 L 144.80 198.05 C 144.79 198.92 145.47 199.63 146.33 199.65 C 147.20 199.66 147.91 198.98 147.93 198.12 L 147.95 197.09 C 147.96 196.23 147.28 195.52 146.42 195.50 C 145.55 195.48 144.84 196.17 144.82 197.03 Z M 144.80 198.06 L 144.79 199.06 C 144.77 199.93 145.46 200.64 146.32 200.65 C 147.19 200.66 147.90 199.98 147.91 199.11 L 147.93 198.11 C 147.94 197.25 147.25 196.54 146.39 196.52 C 145.53 196.51 144.82 197.20 144.80 198.06 Z M 144.79 199.07 L 144.78 200.05 C 144.77 200.91 145.46 201.62 146.32 201.63 C 147.18 201.64 147.89 200.95 147.90 200.09 L 147.91 199.11 C 147.92 198.25 147.23 197.54 146.37 197.53 C 145.51 197.52 144.80 198.21 144.79 199.07 Z M 144.78 200.05 L 144.77 201.13 C 144.76 201.99 145.45 202.70 146.31 202.71 C 147.18 202.71 147.88 202.02 147.89 201.16 L 147.90 200.08 C 147.91 199.22 147.21 198.51 146.35 198.51 C 145.49 198.50 144.78 199.19 144.78 200.05 Z M 144.77 201.14 L 144.76 202.15 C 144.76 203.01 145.45 203.72 146.31 203.72 C 147.18 203.72 147.88 203.03 147.88 202.17 L 147.89 201.15 C 147.89 200.29 147.20 199.59 146.34 199.58 C 145.47 199.58 144.77 200.27 144.77 201.14 Z M 144.76 202.15 L 144.76 203.13 C 144.76 203.99 145.45 204.69 146.32 204.69 C 147.18 204.69 147.88 204.00 147.88 203.13 L 147.88 202.16 C 147.89 201.30 147.19 200.60 146.33 200.60 C 145.46 200.60 144.76 201.29 144.76 202.15 Z M 144.76 203.13 L 144.76 204.08 C 144.76 204.94 145.46 205.64 146.32 205.64 C 147.18 205.64 147.88 204.94 147.88 204.08 L 147.88 203.13 C 147.88 202.27 147.18 201.57 146.32 201.57 C 145.46 201.57 144.76 202.27 144.76 203.13 Z M 144.76 204.08 L 144.76 205.05 C 144.76 205.92 145.46 206.62 146.32 206.62 C 147.18 206.62 147.88 205.92 147.88 205.05 L 147.88 204.08 C 147.88 203.22 147.18 202.52 146.32 202.52 C 145.46 202.52 144.76 203.22 144.76 204.08 Z M 144.76 205.05 L 144.76 206.05 C 144.76 206.92 145.46 207.62 146.32 207.62 C 147.18 207.62 147.88 206.92 147.88 206.05 L 147.88 205.05 C 147.88 204.19 147.18 203.49 146.32 203.49 C 145.46 203.49 144.76 204.19 144.76 205.05 Z M 144.76 206.05 L 144.76 207.06 C 144.76 207.92 145.46 208.62 146.32 208.62 C 147.18 208.62 147.88 207.92 147.88 207.06 L 147.88 206.05 C 147.88 205.19 147.18 204.49 146.32 204.49 C 145.46 204.49 144.76 205.19 144.76 206.05 Z M 144.76 207.06 L 144.76 208.06 C 144.76 208.92 145.46 209.62 146.32 209.62 C 147.18 209.62 147.88 208.92 147.88 208.06 L 147.88 207.06 C 147.88 206.19 147.18 205.50 146.32 205.50 C 145.46 205.50 144.76 206.19 144.76 207.06 Z M 144.76 208.06 L 144.76 209.06 C 144.76 209.93 145.46 210.62 146.32 210.62 C 147.18 210.62 147.88 209.93 147.88 209.06 L 147.88 208.06 C 147.88 207.20 147.18 206.50 146.32 206.50 C 145.46 206.50 144.76 207.20 144.76 208.06 Z M 144.76 209.06 L 144.76 210.08 C 144.76 210.95 145.46 211.65 146.32 211.65 C 147.18 211.65 147.88 210.95 147.88 210.08 L 147.88 209.06 C 147.88 208.20 147.18 207.50 146.32 207.50 C 145.46 207.50 144.76 208.20 144.76 209.06 Z M 144.76 210.08 L 144.76 211.09 C 144.76 211.95 145.46 212.65 146.32 212.65 C 147.18 212.65 147.88 211.95 147.88 211.09 L 147.88 210.08 C 147.88 209.22 147.18 208.52 146.32 208.52 C 145.46 208.52 144.76 209.22 144.76 210.08 Z M 144.76 211.09 L 144.76 212.08 C 144.76 212.95 145.46 213.65 146.32 213.65 C 147.18 213.65 147.88 212.95 147.88 212.08 L 147.88 211.09 C 147.88 210.23 147.18 209.53 146.32 209.53 C 145.46 209.53 144.76 210.23 144.76 211.09 Z M 144.76 212.08 L 144.76 213.06 C 144.76 213.92 145.46 214.62 146.32 214.62 C 147.18 214.62 147.88 213.92 147.88 213.06 L 147.88 212.08 C 147.88 211.22 147.18 210.52 146.32 210.52 C 145.46 210.52 144.76 211.22 144.76 212.08 Z M 144.76 213.06 L 144.76 214.08 C 144.76 214.94 145.46 215.64 146.32 215.64 C 147.18 215.64 147.88 214.94 147.88 214.08 L 147.88 213.06 C 147.88 212.20 147.18 211.50 146.32 211.50 C 145.46 211.50 144.76 212.20 144.76 213.06 Z M 144.76 214.08 L 144.76 215.08 C 144.76 215.94 145.46 216.64 146.32 216.64 C 147.18 216.64 147.88 215.94 147.88 215.08 L 147.88 214.08 C 147.88 213.22 147.18 212.52 146.32 212.52 C 145.46 212.52 144.76 213.22 144.76 214.08 Z M 144.76 215.08 L 144.76 216.07 C 144.76 216.93 145.46 217.63 146.32 217.63 C 147.18 217.63 147.88 216.93 147.88 216.07 L 147.88 215.08 C 147.88 214.22 147.18 213.52 146.32 213.52 C 145.46 213.52 144.76 214.22 144.76 215.08 Z M 144.76 216.07 L 144.76 217.05 C 144.76 217.92 145.46 218.62 146.32 218.62 C 147.18 218.62 147.88 217.92 147.88 217.05 L 147.88 216.07 C 147.88 215.21 147.18 214.51 146.32 214.51 C 145.46 214.51 144.76 215.21 144.76 216.07 Z M 144.76 217.05 L 144.76 218.03 C 144.76 218.89 145.46 219.59 146.32 219.59 C 147.18 219.59 147.88 218.90 147.88 218.03 L 147.88 217.06 C 147.88 216.19 147.18 215.49 146.32 215.49 C 145.46 215.49 144.76 216.19 144.76 217.05 Z M 144.76 218.03 L 144.75 219.02 C 144.75 219.88 145.45 220.58 146.31 220.58 C 147.17 220.59 147.87 219.89 147.88 219.03 L 147.88 218.04 C 147.88 217.18 147.19 216.47 146.32 216.47 C 145.46 216.47 144.76 217.17 144.76 218.03 Z M 144.75 219.01 L 144.75 220.02 C 144.74 220.88 145.43 221.58 146.29 221.59 C 147.16 221.60 147.86 220.91 147.87 220.04 L 147.88 219.03 C 147.88 218.17 147.19 217.47 146.33 217.46 C 145.47 217.45 144.76 218.15 144.75 219.01 Z M 144.75 220.01 L 144.73 221.02 C 144.72 221.88 145.41 222.59 146.27 222.61 C 147.13 222.62 147.84 221.93 147.85 221.07 L 147.87 220.05 C 147.88 219.19 147.19 218.48 146.33 218.47 C 145.47 218.46 144.76 219.14 144.75 220.01 Z M 144.73 221.01 L 144.71 221.96 C 144.69 222.82 145.37 223.54 146.23 223.56 C 147.09 223.58 147.81 222.90 147.83 222.03 L 147.85 221.08 C 147.87 220.22 147.19 219.50 146.33 219.48 C 145.47 219.46 144.75 220.15 144.73 221.01 Z M 144.71 221.94 L 144.68 222.93 C 144.65 223.79 145.32 224.51 146.18 224.54 C 147.04 224.57 147.77 223.90 147.80 223.03 L 147.83 222.05 C 147.86 221.19 147.18 220.47 146.32 220.44 C 145.46 220.41 144.74 221.08 144.71 221.94 Z M 144.68 222.91 L 144.63 223.92 C 144.59 224.78 145.25 225.51 146.11 225.55 C 146.98 225.59 147.71 224.93 147.75 224.07 L 147.80 223.05 C 147.84 222.19 147.17 221.46 146.31 221.42 C 145.45 221.38 144.72 222.05 144.68 222.91 Z M 144.63 223.90 L 144.57 224.94 C 144.51 225.80 145.17 226.54 146.03 226.60 C 146.89 226.65 147.63 226.00 147.68 225.14 L 147.75 224.09 C 147.80 223.23 147.15 222.49 146.28 222.44 C 145.42 222.38 144.68 223.04 144.63 223.90 Z M 144.57 224.91 L 144.48 226.03 C 144.41 226.89 145.05 227.64 145.91 227.71 C 146.77 227.78 147.52 227.14 147.59 226.28 L 147.68 225.16 C 147.75 224.30 147.11 223.55 146.25 223.48 C 145.39 223.41 144.64 224.06 144.57 224.91 Z M 144.48 225.99 L 144.37 227.10 C 144.28 227.96 144.90 228.73 145.75 228.82 C 146.61 228.91 147.38 228.29 147.47 227.43 L 147.59 226.32 C 147.68 225.46 147.05 224.69 146.20 224.60 C 145.34 224.51 144.57 225.14 144.48 225.99 Z M 144.37 227.04 L 144.22 228.05 C 144.10 228.91 144.69 229.70 145.54 229.82 C 146.40 229.95 147.19 229.36 147.31 228.50 L 147.46 227.49 C 147.59 226.64 147.00 225.85 146.14 225.72 C 145.29 225.60 144.50 226.19 144.37 227.04 Z M 144.24 227.94 L 144.06 228.79 C 143.87 229.63 144.41 230.46 145.25 230.65 C 146.09 230.83 146.92 230.30 147.11 229.46 L 147.29 228.61 C 147.48 227.77 146.95 226.94 146.10 226.75 C 145.26 226.57 144.43 227.10 144.24 227.94 Z M 144.18 228.44 L 143.72 229.39 C 143.35 230.16 143.67 231.10 144.45 231.47 C 145.23 231.85 146.16 231.52 146.53 230.74 L 146.99 229.80 C 147.37 229.02 147.04 228.09 146.26 227.72 C 145.49 227.34 144.55 227.67 144.18 228.44 Z M 144.44 228.67 L 143.70 229.03 C 142.93 229.41 142.61 230.35 142.99 231.12 C 143.38 231.90 144.31 232.21 145.09 231.83 L 145.82 231.46 C 146.59 231.08 146.91 230.15 146.53 229.37 C 146.14 228.60 145.21 228.28 144.44 228.67 Z M 144.09 228.90 L 144.02 228.91 C 143.17 229.08 142.62 229.90 142.78 230.75 C 142.95 231.59 143.77 232.14 144.62 231.98 L 144.69 231.96 C 145.54 231.80 146.09 230.98 145.93 230.13 C 145.76 229.28 144.94 228.73 144.09 228.90 Z"
      fill="black"
      fill-rule="nonzero" /></svg>