<svg xmlns="http://www.w3.org/2000/svg" width="300" height="300" viewBox="0 0 300 300">
<path d="M 131.99 92.63 L 132.95 93.00 C 133.75 93.30 134.65 92.89 134.96 92.09 C 135.27 91.28 134.86 90.38 134.05 90.07 L 133.10 89.71 C 132.29 89.41 131.39 89.81 131.09 90.62 C 130.78 91.43 131.19 92.33 131.99 92.63 Z M 132.87 92.97 L 133.80 93.37 C 134.59 93.71 135.51 93.35 135.85 92.56 C 136.20 91.77 135.84 90.85 135.04 90.51 L 134.12 90.10 C 133.33 89.76 132.41 90.12 132.07 90.91 C 131.72 91.70 132.08 92.62 132.87 92.97 Z M 133.65 93.30 L 134.50 93.78 C 135.25 94.20 136.21 93.94 136.63 93.19 C 137.06 92.44 136.79 91.49 136.04 91.06 L 135.19 90.58 C 134.44 90.15 133.49 90.42 133.06 91.17 C 132.64 91.92 132.90 92.87 133.65 93.30 Z M 134.31 93.65 L 135.01 94.20 C 135.69 94.74 136.67 94.62 137.20 93.94 C 137.74 93.26 137.62 92.28 136.94 91.75 L 136.24 91.19 C 135.56 90.66 134.58 90.78 134.05 91.45 C 133.51 92.13 133.63 93.11 134.31 93.65 Z M 134.84 94.05 L 135.46 94.71 C 136.05 95.33 137.04 95.36 137.67 94.77 C 138.30 94.18 138.33 93.19 137.74 92.56 L 137.11 91.90 C 136.52 91.28 135.54 91.25 134.91 91.84 C 134.28 92.43 134.25 93.42 134.84 94.05 Z M 135.35 94.58 L 135.96 95.38 C 136.49 96.07 137.46 96.21 138.15 95.69 C 138.84 95.17 138.97 94.19 138.45 93.50 L 137.84 92.69 C 137.32 92.00 136.34 91.87 135.66 92.39 C 134.97 92.91 134.83 93.89 135.35 94.58 Z M 135.91 95.30 L 136.55 96.28 C 137.02 97.00 137.99 97.19 138.71 96.72 C 139.43 96.25 139.63 95.28 139.16 94.56 L 138.51 93.58 C 138.04 92.86 137.07 92.66 136.35 93.14 C 135.63 93.61 135.43 94.58 135.91 95.30 Z M 136.53 96.24 L 137.02 97.04 C 137.47 97.77 138.44 98.00 139.17 97.54 C 139.90 97.09 140.13 96.13 139.67 95.39 L 139.18 94.60 C 138.73 93.86 137.76 93.64 137.03 94.09 C 136.30 94.54 136.07 95.51 136.53 96.24 Z M 137.01 97.02 L 137.52 97.87 C 137.96 98.61 138.92 98.85 139.66 98.41 C 140.40 97.97 140.64 97.01 140.20 96.27 L 139.69 95.41 C 139.24 94.67 138.28 94.43 137.54 94.88 C 136.81 95.32 136.56 96.28 137.01 97.02 Z M 137.51 97.86 L 138.04 98.75 C 138.47 99.50 139.43 99.75 140.17 99.31 C 140.92 98.88 141.17 97.92 140.73 97.18 L 140.21 96.28 C 139.77 95.54 138.82 95.29 138.07 95.72 C 137.33 96.16 137.08 97.11 137.51 97.86 Z M 138.03 98.74 L 138.54 99.64 C 138.97 100.39 139.93 100.65 140.67 100.22 C 141.42 99.79 141.68 98.84 141.25 98.09 L 140.74 97.19 C 140.31 96.44 139.36 96.18 138.61 96.61 C 137.86 97.04 137.60 97.99 138.03 98.74 Z M 138.54 99.63 L 139.03 100.51 C 139.45 101.26 140.40 101.53 141.16 101.10 C 141.91 100.68 142.17 99.73 141.75 98.98 L 141.26 98.10 C 140.84 97.35 139.89 97.08 139.13 97.50 C 138.38 97.93 138.11 98.88 138.54 99.63 Z M 139.02 100.50 L 139.51 101.38 C 139.93 102.14 140.88 102.41 141.63 101.99 C 142.39 101.58 142.66 100.63 142.25 99.87 L 141.76 98.99 C 141.34 98.23 140.39 97.96 139.64 98.38 C 138.88 98.79 138.61 99.74 139.02 100.50 Z M 139.51 101.37 L 139.98 102.24 C 140.39 102.99 141.34 103.27 142.09 102.86 C 142.85 102.45 143.13 101.50 142.72 100.75 L 142.25 99.88 C 141.84 99.13 140.89 98.84 140.13 99.26 C 139.38 99.67 139.10 100.61 139.51 101.37 Z M 139.97 102.23 L 140.43 103.08 C 140.84 103.84 141.78 104.12 142.54 103.71 C 143.30 103.30 143.59 102.36 143.18 101.60 L 142.72 100.75 C 142.32 99.99 141.37 99.71 140.61 100.12 C 139.85 100.52 139.57 101.47 139.97 102.23 Z M 140.43 103.08 L 140.89 103.94 C 141.30 104.70 142.24 104.99 143.00 104.58 C 143.76 104.17 144.05 103.22 143.64 102.46 L 143.18 101.60 C 142.77 100.84 141.83 100.55 141.07 100.96 C 140.31 101.37 140.02 102.32 140.43 103.08 Z M 140.89 103.94 L 141.39 104.86 C 141.80 105.62 142.74 105.90 143.50 105.49 C 144.26 105.09 144.55 104.14 144.14 103.38 L 143.64 102.46 C 143.23 101.70 142.28 101.42 141.53 101.83 C 140.77 102.24 140.48 103.18 140.89 103.94 Z M 141.39 104.87 L 141.86 105.73 C 142.27 106.49 143.22 106.77 143.98 106.35 C 144.74 105.94 145.02 104.99 144.60 104.24 L 144.13 103.37 C 143.72 102.62 142.77 102.34 142.02 102.75 C 141.26 103.16 140.98 104.11 141.39 104.87 Z M 141.86 105.73 L 142.35 106.63 C 142.77 107.38 143.72 107.66 144.47 107.24 C 145.23 106.83 145.50 105.88 145.09 105.12 L 144.60 104.23 C 144.19 103.48 143.24 103.20 142.48 103.61 C 141.73 104.03 141.45 104.98 141.86 105.73 Z M 142.35 106.63 L 142.86 107.54 C 143.27 108.29 144.22 108.57 144.98 108.15 C 145.73 107.74 146.01 106.79 145.59 106.03 L 145.09 105.12 C 144.67 104.37 143.72 104.09 142.97 104.51 C 142.21 104.92 141.94 105.87 142.35 106.63 Z M 142.86 107.54 L 143.35 108.44 C 143.77 109.20 144.72 109.47 145.48 109.05 C 146.23 108.64 146.50 107.69 146.09 106.93 L 145.59 106.03 C 145.17 105.28 144.22 105.00 143.47 105.42 C 142.71 105.84 142.44 106.78 142.86 107.54 Z M 143.35 108.44 L 143.83 109.31 C 144.25 110.06 145.20 110.34 145.95 109.92 C 146.71 109.50 146.98 108.56 146.57 107.80 L 146.09 106.93 C 145.67 106.18 144.72 105.90 143.97 106.32 C 143.21 106.74 142.94 107.69 143.35 108.44 Z M 143.83 109.31 L 144.32 110.19 C 144.73 110.95 145.68 111.22 146.44 110.81 C 147.20 110.39 147.47 109.44 147.06 108.69 L 146.57 107.80 C 146.15 107.05 145.20 106.77 144.45 107.19 C 143.69 107.60 143.42 108.55 143.83 109.31 Z M 144.32 110.19 L 144.86 111.18 C 145.27 111.94 146.22 112.22 146.98 111.80 C 147.73 111.39 148.01 110.44 147.60 109.69 L 147.06 108.69 C 146.64 107.94 145.70 107.66 144.94 108.07 C 144.18 108.48 143.90 109.43 144.32 110.19 Z M 144.86 111.18 L 145.33 112.06 C 145.74 112.82 146.69 113.10 147.45 112.69 C 148.21 112.28 148.49 111.33 148.08 110.57 L 147.60 109.69 C 147.19 108.93 146.25 108.65 145.49 109.06 C 144.73 109.47 144.45 110.42 144.86 111.18 Z M 145.33 112.05 L 145.76 112.85 C 146.16 113.62 147.11 113.90 147.87 113.50 C 148.63 113.09 148.92 112.15 148.51 111.39 L 148.08 110.58 C 147.68 109.82 146.73 109.53 145.97 109.94 C 145.21 110.34 144.92 111.29 145.33 112.05 Z M 145.75 112.84 L 146.17 113.65 C 146.57 114.41 147.51 114.70 148.28 114.30 C 149.04 113.90 149.34 112.96 148.94 112.20 L 148.52 111.40 C 148.12 110.63 147.17 110.34 146.41 110.74 C 145.65 111.14 145.35 112.08 145.75 112.84 Z M 146.16 113.63 L 146.63 114.55 C 147.02 115.31 147.96 115.62 148.73 115.22 C 149.50 114.83 149.80 113.89 149.41 113.12 L 148.94 112.21 C 148.55 111.44 147.61 111.14 146.84 111.53 C 146.07 111.92 145.77 112.87 146.16 113.63 Z M 146.62 114.53 L 147.07 115.42 C 147.45 116.19 148.39 116.51 149.16 116.12 C 149.93 115.74 150.25 114.80 149.86 114.03 L 149.42 113.14 C 149.03 112.37 148.10 112.05 147.33 112.44 C 146.55 112.82 146.24 113.76 146.62 114.53 Z M 147.06 115.40 L 147.48 116.28 C 147.85 117.05 148.78 117.38 149.56 117.01 C 150.34 116.64 150.66 115.70 150.29 114.93 L 149.87 114.05 C 149.50 113.27 148.57 112.94 147.79 113.32 C 147.01 113.69 146.68 114.62 147.06 115.40 Z M 147.46 116.25 L 147.89 117.17 C 148.25 117.95 149.17 118.30 149.96 117.94 C 150.74 117.58 151.08 116.65 150.72 115.87 L 150.30 114.95 C 149.94 114.17 149.02 113.82 148.23 114.18 C 147.45 114.54 147.10 115.47 147.46 116.25 Z M 147.88 117.15 L 148.28 118.07 C 148.63 118.85 149.56 119.21 150.34 118.86 C 151.13 118.51 151.49 117.59 151.14 116.80 L 150.73 115.89 C 150.38 115.10 149.46 114.74 148.67 115.09 C 147.88 115.44 147.53 116.36 147.88 117.15 Z M 148.28 118.06 L 148.67 118.96 C 149.02 119.75 149.94 120.12 150.73 119.77 C 151.52 119.43 151.88 118.51 151.54 117.72 L 151.14 116.81 C 150.80 116.02 149.88 115.66 149.09 116.00 C 148.30 116.34 147.93 117.26 148.28 118.06 Z M 148.67 118.96 L 148.71 119.05 C 149.06 119.84 149.98 120.21 150.77 119.87 C 151.56 119.52 151.92 118.60 151.58 117.81 L 151.54 117.72 C 151.19 116.93 150.28 116.56 149.48 116.91 C 148.69 117.25 148.33 118.17 148.67 118.96 Z"
      fill="black"
      fill-rule="nonzero" /><path d="M 113.10 135.64 L 113.19 136.65 C 113.26 137.51 114.02 138.15 114.88 138.07 C 115.73 138.00 116.37 137.24 116.30 136.38 L 116.21 135.38 C 116.14 134.52 115.38 133.88 114.52 133.96 C 113.66 134.03 113.03 134.79 113.10 135.64 Z M 113.19 136.71 L 113.31 137.70 C 113.42 138.56 114.20 139.17 115.05 139.06 C 115.91 138.96 116.52 138.18 116.41 137.32 L 116.29 136.33 C 116.19 135.47 115.41 134.86 114.55 134.97 C 113.70 135.07 113.09 135.85 113.19 136.71 Z M 113.33 137.82 L 113.52 138.79 C 113.69 139.63 114.51 140.18 115.36 140.01 C 116.20 139.85 116.75 139.02 116.59 138.18 L 116.40 137.21 C 116.23 136.36 115.41 135.81 114.56 135.98 C 113.71 136.15 113.16 136.97 113.33 137.82 Z M 113.57 138.95 L 113.87 139.91 C 114.13 140.73 115.00 141.19 115.83 140.93 C 116.65 140.67 117.10 139.79 116.85 138.97 L 116.54 138.01 C 116.29 137.19 115.41 136.73 114.59 136.99 C 113.76 137.25 113.31 138.13 113.57 138.95 Z M 113.93 140.07 L 114.34 140.99 C 114.69 141.77 115.61 142.13 116.40 141.78 C 117.18 141.43 117.54 140.51 117.19 139.72 L 116.78 138.81 C 116.43 138.02 115.51 137.66 114.72 138.01 C 113.94 138.36 113.58 139.28 113.93 140.07 Z M 114.41 141.13 L 114.90 141.99 C 115.33 142.74 116.28 143.00 117.03 142.57 C 117.78 142.15 118.04 141.19 117.61 140.44 L 117.12 139.58 C 116.69 138.83 115.74 138.57 114.99 139.00 C 114.24 139.42 113.98 140.38 114.41 141.13 Z M 114.97 142.11 L 115.51 142.89 C 116.00 143.59 116.98 143.77 117.69 143.28 C 118.39 142.79 118.57 141.82 118.08 141.11 L 117.54 140.33 C 117.05 139.62 116.07 139.44 115.37 139.93 C 114.66 140.43 114.48 141.40 114.97 142.11 Z M 115.59 142.99 L 116.20 143.73 C 116.75 144.40 117.73 144.50 118.40 143.95 C 119.07 143.40 119.16 142.42 118.62 141.75 L 118.00 141.01 C 117.46 140.34 116.47 140.24 115.81 140.79 C 115.14 141.34 115.04 142.32 115.59 142.99 Z M 116.28 143.82 L 116.99 144.57 C 117.58 145.20 118.57 145.22 119.19 144.63 C 119.82 144.04 119.85 143.05 119.26 142.42 L 118.54 141.67 C 117.95 141.04 116.96 141.02 116.34 141.61 C 115.71 142.20 115.68 143.19 116.28 143.82 Z M 117.04 144.63 L 117.76 145.31 C 118.38 145.90 119.37 145.88 119.97 145.25 C 120.56 144.63 120.54 143.64 119.91 143.05 L 119.20 142.37 C 118.57 141.77 117.59 141.79 116.99 142.42 C 116.40 143.04 116.42 144.03 117.04 144.63 Z M 117.80 145.34 L 118.51 145.98 C 119.15 146.55 120.14 146.50 120.71 145.86 C 121.29 145.22 121.23 144.23 120.59 143.65 L 119.88 143.02 C 119.24 142.44 118.25 142.49 117.68 143.14 C 117.10 143.78 117.15 144.76 117.80 145.34 Z M 118.53 145.99 L 119.29 146.66 C 119.94 147.22 120.93 147.15 121.49 146.50 C 122.06 145.85 121.99 144.87 121.34 144.30 L 120.57 143.64 C 119.92 143.07 118.94 143.14 118.37 143.79 C 117.81 144.44 117.87 145.43 118.53 145.99 Z M 119.30 146.66 L 120.09 147.35 C 120.75 147.91 121.73 147.84 122.29 147.18 C 122.86 146.53 122.78 145.54 122.13 144.98 L 121.33 144.30 C 120.68 143.73 119.69 143.81 119.13 144.46 C 118.57 145.12 118.64 146.10 119.30 146.66 Z M 120.09 147.35 L 120.88 148.03 C 121.54 148.60 122.52 148.52 123.08 147.87 C 123.65 147.22 123.58 146.23 122.92 145.67 L 122.13 144.98 C 121.48 144.42 120.49 144.49 119.93 145.14 C 119.36 145.80 119.44 146.78 120.09 147.35 Z M 120.88 148.02 L 121.65 148.70 C 122.30 149.27 123.28 149.20 123.85 148.56 C 124.42 147.91 124.35 146.92 123.70 146.35 L 122.93 145.68 C 122.28 145.11 121.30 145.17 120.73 145.82 C 120.16 146.47 120.23 147.46 120.88 148.02 Z M 121.64 148.70 L 122.40 149.37 C 123.05 149.94 124.03 149.88 124.61 149.24 C 125.18 148.59 125.12 147.60 124.47 147.03 L 123.71 146.36 C 123.07 145.79 122.08 145.85 121.51 146.49 C 120.94 147.14 121.00 148.12 121.64 148.70 Z M 122.40 149.36 L 123.13 150.03 C 123.78 150.60 124.76 150.55 125.34 149.90 C 125.91 149.26 125.86 148.27 125.22 147.70 L 124.48 147.04 C 123.84 146.46 122.85 146.52 122.27 147.16 C 121.70 147.80 121.75 148.79 122.40 149.36 Z M 123.13 150.02 L 123.84 150.66 C 124.48 151.24 125.47 151.19 126.05 150.55 C 126.63 149.91 126.58 148.93 125.94 148.35 L 125.22 147.70 C 124.58 147.13 123.60 147.18 123.02 147.82 C 122.44 148.46 122.49 149.44 123.13 150.02 Z M 123.84 150.66 L 124.61 151.36 C 125.24 151.94 126.23 151.90 126.81 151.26 C 127.39 150.63 127.35 149.64 126.71 149.06 L 125.94 148.35 C 125.30 147.77 124.32 147.82 123.74 148.45 C 123.15 149.09 123.20 150.08 123.84 150.66 Z M 124.60 151.36 L 125.33 152.03 C 125.96 152.62 126.95 152.58 127.54 151.94 C 128.12 151.31 128.08 150.32 127.45 149.74 L 126.72 149.06 C 126.08 148.48 125.10 148.52 124.51 149.15 C 123.93 149.78 123.97 150.77 124.60 151.36 Z M 125.32 152.03 L 126.04 152.69 C 126.67 153.28 127.65 153.24 128.24 152.61 C 128.83 151.98 128.80 150.99 128.16 150.41 L 127.45 149.74 C 126.82 149.15 125.84 149.19 125.25 149.82 C 124.66 150.45 124.69 151.44 125.32 152.03 Z M 126.03 152.68 L 126.73 153.34 C 127.36 153.93 128.35 153.90 128.94 153.28 C 129.53 152.65 129.50 151.66 128.87 151.07 L 128.17 150.41 C 127.54 149.82 126.55 149.85 125.96 150.48 C 125.37 151.10 125.40 152.09 126.03 152.68 Z M 126.73 153.34 L 127.43 154.00 C 128.06 154.59 129.04 154.56 129.63 153.93 C 130.23 153.30 130.19 152.31 129.57 151.72 L 128.87 151.07 C 128.24 150.48 127.25 150.51 126.66 151.14 C 126.07 151.77 126.10 152.75 126.73 153.34 Z M 127.44 154.01 L 128.17 154.68 C 128.81 155.26 129.79 155.22 130.38 154.59 C 130.96 153.95 130.92 152.96 130.28 152.38 L 129.55 151.71 C 128.92 151.13 127.93 151.17 127.35 151.80 C 126.76 152.44 126.81 153.43 127.44 154.01 Z M 128.20 154.70 L 128.97 155.39 C 129.62 155.95 130.61 155.89 131.18 155.24 C 131.75 154.60 131.68 153.61 131.03 153.04 L 130.26 152.36 C 129.61 151.79 128.62 151.85 128.05 152.50 C 127.48 153.15 127.55 154.13 128.20 154.70 Z M 129.01 155.41 L 129.79 156.06 C 130.45 156.61 131.44 156.52 131.99 155.86 C 132.54 155.20 132.45 154.21 131.78 153.66 L 131.00 153.01 C 130.34 152.46 129.35 152.55 128.80 153.22 C 128.25 153.88 128.34 154.86 129.01 155.41 Z M 129.82 156.09 L 130.58 156.69 C 131.26 157.22 132.24 157.11 132.77 156.43 C 133.31 155.75 133.19 154.77 132.51 154.24 L 131.75 153.64 C 131.07 153.10 130.09 153.22 129.56 153.90 C 129.03 154.57 129.14 155.55 129.82 156.09 Z M 130.60 156.70 L 131.40 157.31 C 132.08 157.83 133.06 157.70 133.58 157.01 C 134.11 156.33 133.97 155.35 133.29 154.82 L 132.49 154.22 C 131.81 153.70 130.83 153.83 130.30 154.52 C 129.78 155.20 129.92 156.18 130.60 156.70 Z M 131.41 157.32 L 132.23 157.93 C 132.92 158.44 133.90 158.30 134.41 157.61 C 134.93 156.91 134.78 155.94 134.09 155.42 L 133.27 154.81 C 132.58 154.30 131.60 154.44 131.09 155.14 C 130.57 155.83 130.72 156.81 131.41 157.32 Z M 132.24 157.93 L 133.07 158.54 C 133.76 159.05 134.74 158.90 135.25 158.21 C 135.76 157.51 135.61 156.54 134.92 156.03 L 134.08 155.42 C 133.39 154.91 132.41 155.06 131.90 155.75 C 131.39 156.45 131.54 157.42 132.24 157.93 Z M 133.07 158.55 L 133.19 158.63 C 133.89 159.14 134.86 158.99 135.37 158.30 C 135.88 157.60 135.73 156.62 135.03 156.11 L 134.91 156.03 C 134.22 155.52 133.24 155.67 132.73 156.36 C 132.22 157.06 132.38 158.04 133.07 158.55 Z"
      fill="black"
      fill-rule="nonzero" /><path d="M 186.99 139.66 L 186.92 140.75 C 186.87 141.61 187.52 142.36 188.38 142.41 C 189.24 142.47 189.98 141.81 190.04 140.95 L 190.11 139.86 C 190.16 139.00 189.51 138.26 188.65 138.20 C 187.79 138.15 187.05 138.80 186.99 139.66 Z M 186.92 140.75 L 186.85 141.82 C 186.80 142.68 187.45 143.43 188.31 143.48 C 189.17 143.54 189.91 142.89 189.97 142.03 L 190.04 140.96 C 190.10 140.10 189.45 139.35 188.59 139.30 C 187.73 139.24 186.98 139.89 186.92 140.75 Z M 186.85 141.81 L 186.78 142.85 C 186.71 143.71 187.36 144.46 188.22 144.52 C 189.08 144.59 189.83 143.94 189.89 143.08 L 189.97 142.04 C 190.03 141.18 189.38 140.43 188.52 140.37 C 187.66 140.31 186.92 140.95 186.85 141.81 Z M 186.78 142.84 L 186.70 143.82 C 186.63 144.68 187.26 145.44 188.12 145.51 C 188.98 145.58 189.74 144.94 189.81 144.08 L 189.89 143.10 C 189.96 142.24 189.32 141.48 188.46 141.41 C 187.60 141.34 186.85 141.98 186.78 142.84 Z M 186.70 143.80 L 186.61 144.72 C 186.52 145.57 187.15 146.34 188.01 146.42 C 188.87 146.51 189.63 145.88 189.72 145.02 L 189.81 144.11 C 189.89 143.25 189.26 142.48 188.41 142.40 C 187.55 142.31 186.78 142.94 186.70 143.80 Z M 186.61 144.68 L 186.50 145.60 C 186.39 146.45 187.00 147.23 187.86 147.34 C 188.71 147.44 189.49 146.84 189.60 145.98 L 189.71 145.06 C 189.82 144.20 189.21 143.42 188.35 143.32 C 187.50 143.21 186.72 143.82 186.61 144.68 Z M 186.51 145.53 L 186.33 146.63 C 186.18 147.48 186.76 148.29 187.61 148.43 C 188.46 148.57 189.26 148.00 189.41 147.15 L 189.59 146.05 C 189.73 145.20 189.16 144.39 188.31 144.25 C 187.46 144.11 186.65 144.68 186.51 145.53 Z M 186.34 146.55 L 186.13 147.50 C 185.94 148.34 186.47 149.17 187.31 149.36 C 188.15 149.55 188.99 149.02 189.18 148.18 L 189.39 147.23 C 189.58 146.39 189.05 145.55 188.21 145.37 C 187.36 145.18 186.53 145.71 186.34 146.55 Z M 186.15 147.42 L 185.91 148.30 C 185.68 149.13 186.17 149.99 187.00 150.22 C 187.83 150.44 188.69 149.96 188.92 149.12 L 189.16 148.25 C 189.39 147.42 188.90 146.56 188.07 146.33 C 187.23 146.10 186.38 146.59 186.15 147.42 Z M 185.92 148.26 L 185.65 149.14 C 185.40 149.97 185.87 150.84 186.69 151.09 C 187.52 151.34 188.39 150.87 188.64 150.05 L 188.91 149.16 C 189.16 148.34 188.69 147.47 187.87 147.22 C 187.04 146.97 186.17 147.43 185.92 148.26 Z M 185.66 149.12 L 185.36 150.04 C 185.10 150.86 185.55 151.74 186.37 152.01 C 187.20 152.27 188.07 151.82 188.34 150.99 L 188.63 150.07 C 188.90 149.25 188.44 148.37 187.62 148.11 C 186.80 147.84 185.92 148.30 185.66 149.12 Z M 185.37 150.02 L 185.05 150.97 C 184.77 151.79 185.21 152.68 186.02 152.95 C 186.84 153.23 187.73 152.79 188.00 151.98 L 188.33 151.02 C 188.61 150.20 188.17 149.32 187.35 149.04 C 186.54 148.76 185.65 149.20 185.37 150.02 Z M 185.06 150.94 L 184.70 151.92 C 184.41 152.73 184.83 153.63 185.64 153.92 C 186.45 154.22 187.34 153.80 187.64 152.99 L 187.99 152.01 C 188.29 151.20 187.87 150.30 187.06 150.01 C 186.25 149.71 185.35 150.13 185.06 150.94 Z M 184.71 151.89 L 184.41 152.66 C 184.10 153.47 184.50 154.37 185.31 154.68 C 186.11 155.00 187.01 154.60 187.33 153.79 L 187.63 153.02 C 187.94 152.22 187.54 151.31 186.73 151.00 C 185.93 150.69 185.03 151.09 184.71 151.89 Z M 184.43 152.63 L 184.11 153.40 C 183.78 154.20 184.16 155.11 184.95 155.44 C 185.75 155.77 186.66 155.39 186.99 154.60 L 187.31 153.83 C 187.64 153.03 187.27 152.12 186.47 151.79 C 185.67 151.46 184.76 151.83 184.43 152.63 Z M 184.12 153.37 L 183.75 154.22 C 183.40 155.00 183.75 155.93 184.54 156.28 C 185.33 156.63 186.25 156.27 186.60 155.48 L 186.98 154.63 C 187.33 153.85 186.97 152.92 186.18 152.57 C 185.40 152.22 184.47 152.58 184.12 153.37 Z M 183.76 154.18 L 183.30 155.16 C 182.93 155.94 183.27 156.87 184.05 157.23 C 184.83 157.60 185.76 157.27 186.12 156.49 L 186.58 155.52 C 186.95 154.74 186.62 153.81 185.84 153.44 C 185.06 153.07 184.13 153.40 183.76 154.18 Z M 183.31 155.13 L 182.75 156.26 C 182.37 157.03 182.68 157.97 183.46 158.35 C 184.23 158.74 185.17 158.42 185.55 157.65 L 186.11 156.52 C 186.49 155.74 186.18 154.81 185.41 154.42 C 184.63 154.04 183.70 154.36 183.31 155.13 Z M 182.76 156.24 L 182.32 157.11 C 181.93 157.87 182.23 158.82 183.00 159.21 C 183.76 159.60 184.70 159.30 185.10 158.53 L 185.54 157.67 C 185.93 156.90 185.63 155.96 184.86 155.57 C 184.09 155.17 183.15 155.48 182.76 156.24 Z M 182.32 157.10 L 181.89 157.93 C 181.49 158.69 181.79 159.63 182.55 160.03 C 183.32 160.43 184.26 160.14 184.66 159.37 L 185.09 158.54 C 185.49 157.78 185.20 156.83 184.43 156.43 C 183.67 156.04 182.72 156.33 182.32 157.10 Z M 181.90 157.92 L 181.43 158.79 C 181.03 159.56 181.32 160.50 182.08 160.90 C 182.84 161.31 183.79 161.02 184.19 160.25 L 184.66 159.38 C 185.06 158.62 184.77 157.67 184.01 157.27 C 183.24 156.87 182.30 157.16 181.90 157.92 Z M 181.44 158.79 L 180.95 159.69 C 180.54 160.45 180.83 161.40 181.59 161.81 C 182.35 162.22 183.29 161.93 183.70 161.17 L 184.19 160.26 C 184.60 159.50 184.31 158.56 183.55 158.15 C 182.79 157.74 181.84 158.03 181.44 158.79 Z M 180.95 159.69 L 180.45 160.61 C 180.04 161.37 180.32 162.32 181.08 162.73 C 181.84 163.14 182.79 162.86 183.20 162.10 L 183.70 161.18 C 184.11 160.42 183.83 159.47 183.07 159.06 C 182.31 158.65 181.36 158.93 180.95 159.69 Z M 180.46 160.60 L 179.95 161.53 C 179.53 162.29 179.81 163.24 180.57 163.65 C 181.32 164.06 182.27 163.79 182.69 163.03 L 183.19 162.11 C 183.61 161.35 183.33 160.40 182.58 159.99 C 181.82 159.57 180.87 159.85 180.46 160.60 Z M 179.95 161.52 L 179.45 162.44 C 179.03 163.19 179.30 164.14 180.05 164.56 C 180.81 164.98 181.76 164.70 182.18 163.95 L 182.68 163.04 C 183.10 162.28 182.83 161.33 182.07 160.92 C 181.32 160.50 180.37 160.77 179.95 161.52 Z M 179.45 162.43 L 178.95 163.31 C 178.53 164.07 178.80 165.02 179.55 165.44 C 180.30 165.86 181.25 165.59 181.68 164.84 L 182.17 163.96 C 182.59 163.21 182.33 162.25 181.58 161.83 C 180.82 161.41 179.87 161.68 179.45 162.43 Z M 178.96 163.31 L 178.43 164.23 C 178.00 164.98 178.27 165.93 179.02 166.36 C 179.76 166.79 180.72 166.53 181.14 165.78 L 181.67 164.85 C 182.10 164.10 181.84 163.15 181.09 162.72 C 180.34 162.29 179.38 162.56 178.96 163.31 Z M 178.44 164.22 L 177.83 165.26 C 177.40 166.01 177.65 166.97 178.40 167.40 C 179.15 167.83 180.10 167.58 180.53 166.83 L 181.14 165.79 C 181.57 165.04 181.32 164.09 180.57 163.65 C 179.82 163.22 178.87 163.47 178.44 164.22 Z M 177.84 165.25 L 177.27 166.21 C 176.83 166.95 177.08 167.91 177.82 168.35 C 178.56 168.79 179.52 168.54 179.96 167.80 L 180.53 166.84 C 180.97 166.10 180.72 165.14 179.98 164.70 C 179.24 164.26 178.28 164.51 177.84 165.25 Z M 177.28 166.20 L 176.75 167.07 C 176.31 167.81 176.54 168.77 177.28 169.21 C 178.02 169.66 178.98 169.42 179.43 168.68 L 179.95 167.81 C 180.40 167.07 180.16 166.11 179.42 165.67 C 178.69 165.22 177.73 165.46 177.28 166.20 Z M 176.76 167.06 L 176.27 167.86 C 175.82 168.59 176.05 169.55 176.78 170.01 C 177.51 170.46 178.48 170.23 178.93 169.49 L 179.42 168.70 C 179.87 167.96 179.64 167.00 178.91 166.55 C 178.17 166.10 177.21 166.32 176.76 167.06 Z M 176.27 167.85 L 175.82 168.58 C 175.36 169.31 175.58 170.27 176.31 170.73 C 177.04 171.19 178.01 170.97 178.46 170.24 L 178.92 169.51 C 179.38 168.77 179.16 167.81 178.43 167.35 C 177.70 166.90 176.73 167.12 176.27 167.85 Z M 175.82 168.57 L 175.40 169.24 C 174.94 169.96 175.15 170.93 175.88 171.39 C 176.60 171.85 177.57 171.64 178.03 170.91 L 178.46 170.25 C 178.92 169.52 178.71 168.55 177.98 168.09 C 177.25 167.63 176.29 167.84 175.82 168.57 Z M 175.40 169.23 L 174.80 170.16 C 174.33 170.89 174.54 171.86 175.26 172.32 C 175.98 172.79 176.95 172.58 177.42 171.86 L 178.03 170.92 C 178.49 170.20 178.29 169.23 177.56 168.76 C 176.84 168.30 175.87 168.50 175.40 169.23 Z M 174.80 170.16 L 174.24 171.01 C 173.77 171.73 173.97 172.69 174.69 173.17 C 175.41 173.64 176.38 173.44 176.85 172.72 L 177.41 171.87 C 177.89 171.15 177.69 170.18 176.97 169.71 C 176.25 169.23 175.28 169.44 174.80 170.16 Z M 174.25 171.00 L 173.73 171.79 C 173.25 172.51 173.45 173.48 174.17 173.95 C 174.89 174.43 175.86 174.23 176.33 173.51 L 176.85 172.72 C 177.33 172.01 177.13 171.04 176.41 170.56 C 175.69 170.09 174.72 170.28 174.25 171.00 Z M 173.73 171.79 L 173.22 172.55 C 172.75 173.28 172.95 174.24 173.67 174.72 C 174.39 175.19 175.36 174.99 175.83 174.27 L 176.33 173.51 C 176.81 172.79 176.61 171.82 175.89 171.35 C 175.17 170.87 174.20 171.07 173.73 171.79 Z M 173.22 172.56 L 172.70 173.37 C 172.23 174.09 172.44 175.06 173.16 175.52 C 173.88 175.99 174.85 175.79 175.32 175.06 L 175.84 174.26 C 176.31 173.54 176.10 172.57 175.38 172.10 C 174.65 171.63 173.69 171.84 173.22 172.56 Z M 172.69 173.37 L 172.17 174.20 C 171.70 174.93 171.92 175.89 172.64 176.36 C 173.37 176.82 174.34 176.61 174.80 175.88 L 175.33 175.05 C 175.79 174.33 175.58 173.36 174.85 172.90 C 174.12 172.43 173.16 172.65 172.69 173.37 Z M 172.16 174.21 L 171.62 175.07 C 171.16 175.80 171.38 176.76 172.11 177.22 C 172.84 177.68 173.80 177.46 174.26 176.73 L 174.80 175.87 C 175.26 175.14 175.04 174.18 174.31 173.72 C 173.58 173.26 172.62 173.48 172.16 174.21 Z M 171.62 175.07 L 171.07 175.96 C 170.61 176.69 170.83 177.65 171.56 178.11 C 172.29 178.57 173.26 178.34 173.71 177.61 L 174.27 176.73 C 174.72 175.99 174.50 175.03 173.77 174.58 C 173.04 174.12 172.07 174.34 171.62 175.07 Z M 171.06 175.96 L 170.55 176.79 C 170.09 177.52 170.32 178.48 171.05 178.94 C 171.78 179.39 172.75 179.17 173.20 178.44 L 173.72 177.61 C 174.17 176.88 173.95 175.91 173.21 175.46 C 172.48 175.00 171.52 175.23 171.06 175.96 Z M 170.55 176.79 L 170.02 177.64 C 169.57 178.37 169.79 179.34 170.53 179.79 C 171.26 180.25 172.22 180.02 172.67 179.29 L 173.20 178.44 C 173.66 177.70 173.43 176.74 172.70 176.29 C 171.96 175.83 171.00 176.06 170.55 176.79 Z M 170.02 177.64 L 169.49 178.50 C 169.03 179.24 169.26 180.20 169.99 180.65 C 170.72 181.11 171.69 180.88 172.14 180.15 L 172.67 179.29 C 173.13 178.55 172.90 177.59 172.17 177.14 C 171.44 176.68 170.48 176.91 170.02 177.64 Z M 169.49 178.50 L 168.95 179.36 C 168.50 180.09 168.72 181.06 169.45 181.51 C 170.18 181.97 171.15 181.74 171.60 181.01 L 172.14 180.15 C 172.59 179.42 172.37 178.46 171.64 178.00 C 170.91 177.54 169.94 177.77 169.49 178.50 Z M 168.95 179.36 L 168.41 180.23 C 167.95 180.96 168.17 181.93 168.90 182.39 C 169.63 182.84 170.59 182.62 171.05 181.89 L 171.60 181.01 C 172.06 180.28 171.84 179.32 171.11 178.86 C 170.38 178.41 169.41 178.63 168.95 179.36 Z M 168.41 180.23 L 167.86 181.09 C 167.40 181.82 167.62 182.79 168.35 183.25 C 169.08 183.71 170.05 183.49 170.51 182.76 L 171.05 181.89 C 171.51 181.16 171.29 180.20 170.56 179.74 C 169.83 179.28 168.87 179.50 168.41 180.23 Z M 167.87 181.09 L 167.33 181.93 C 166.87 182.66 167.09 183.63 167.82 184.09 C 168.54 184.55 169.51 184.33 169.97 183.60 L 170.50 182.76 C 170.97 182.03 170.75 181.07 170.02 180.61 C 169.29 180.15 168.33 180.36 167.87 181.09 Z M 167.33 181.93 L 166.81 182.75 C 166.35 183.48 166.57 184.44 167.29 184.90 C 168.02 185.37 168.98 185.15 169.45 184.42 L 169.97 183.61 C 170.43 182.88 170.22 181.91 169.49 181.45 C 168.76 180.99 167.80 181.20 167.33 181.93 Z M 166.82 182.75 L 166.28 183.58 C 165.82 184.31 166.03 185.27 166.76 185.74 C 167.48 186.20 168.45 185.99 168.91 185.26 L 169.45 184.43 C 169.91 183.70 169.70 182.74 168.97 182.27 C 168.25 181.81 167.28 182.02 166.82 182.75 Z M 166.28 183.58 L 165.74 184.42 C 165.28 185.14 165.49 186.11 166.21 186.58 C 166.94 187.04 167.91 186.83 168.37 186.11 L 168.91 185.27 C 169.38 184.54 169.17 183.57 168.44 183.11 C 167.71 182.64 166.75 182.85 166.28 183.58 Z M 165.75 184.42 L 165.21 185.25 C 164.74 185.97 164.95 186.94 165.67 187.40 C 166.40 187.87 167.37 187.66 167.83 186.94 L 168.37 186.11 C 168.84 185.38 168.63 184.42 167.90 183.95 C 167.18 183.48 166.21 183.69 165.75 184.42 Z M 165.21 185.24 L 164.67 186.08 C 164.20 186.80 164.40 187.77 165.13 188.24 C 165.85 188.71 166.82 188.50 167.29 187.78 L 167.83 186.94 C 168.30 186.22 168.09 185.25 167.37 184.78 C 166.65 184.31 165.68 184.52 165.21 185.24 Z M 164.67 186.08 L 164.13 186.90 C 163.66 187.62 163.87 188.59 164.59 189.06 C 165.31 189.53 166.28 189.33 166.75 188.60 L 167.29 187.78 C 167.76 187.06 167.55 186.09 166.83 185.62 C 166.11 185.15 165.14 185.36 164.67 186.08 Z M 164.14 186.90 L 163.59 187.73 C 163.12 188.45 163.32 189.42 164.04 189.89 C 164.76 190.36 165.73 190.16 166.20 189.44 L 166.75 188.61 C 167.22 187.88 167.02 186.92 166.30 186.45 C 165.58 185.97 164.61 186.17 164.14 186.90 Z M 163.59 187.72 L 163.04 188.57 C 162.57 189.29 162.77 190.26 163.49 190.73 C 164.21 191.20 165.18 191.00 165.65 190.28 L 166.20 189.44 C 166.68 188.72 166.48 187.75 165.76 187.28 C 165.03 186.80 164.07 187.00 163.59 187.72 Z M 163.04 188.57 L 162.48 189.42 C 162.01 190.14 162.21 191.11 162.93 191.58 C 163.65 192.05 164.62 191.85 165.09 191.13 L 165.65 190.28 C 166.12 189.56 165.92 188.59 165.20 188.12 C 164.48 187.65 163.51 187.85 163.04 188.57 Z M 162.48 189.42 L 161.93 190.26 C 161.45 190.98 161.65 191.95 162.37 192.42 C 163.10 192.90 164.06 192.70 164.54 191.97 L 165.09 191.13 C 165.56 190.41 165.36 189.44 164.64 188.97 C 163.92 188.50 162.96 188.70 162.48 189.42 Z M 161.93 190.26 L 161.38 191.10 C 160.90 191.82 161.10 192.78 161.82 193.26 C 162.54 193.73 163.51 193.53 163.98 192.81 L 164.54 191.98 C 165.01 191.26 164.81 190.29 164.09 189.81 C 163.37 189.34 162.40 189.54 161.93 190.26 Z M 161.38 191.09 L 160.83 191.93 C 160.35 192.65 160.55 193.62 161.27 194.09 C 161.99 194.57 162.96 194.37 163.43 193.65 L 163.98 192.82 C 164.46 192.10 164.26 191.13 163.54 190.65 C 162.82 190.18 161.85 190.37 161.38 191.09 Z M 160.83 191.92 L 160.28 192.75 C 159.80 193.47 159.99 194.44 160.71 194.92 C 161.43 195.40 162.40 195.20 162.88 194.48 L 163.43 193.65 C 163.91 192.94 163.71 191.97 162.99 191.49 C 162.28 191.01 161.31 191.21 160.83 191.92 Z M 160.28 192.75 L 159.72 193.58 C 159.24 194.30 159.43 195.27 160.15 195.75 C 160.86 196.23 161.83 196.04 162.31 195.32 L 162.87 194.49 C 163.35 193.77 163.16 192.80 162.45 192.32 C 161.73 191.84 160.76 192.03 160.28 192.75 Z M 159.72 193.58 L 159.16 194.41 C 158.68 195.13 158.87 196.10 159.58 196.58 C 160.30 197.06 161.27 196.87 161.75 196.16 L 162.31 195.32 C 162.79 194.61 162.61 193.64 161.89 193.16 C 161.18 192.68 160.21 192.86 159.72 193.58 Z M 159.16 194.41 L 158.60 195.24 C 158.12 195.96 158.31 196.93 159.03 197.41 C 159.74 197.89 160.71 197.70 161.19 196.99 L 161.75 196.16 C 162.23 195.44 162.04 194.47 161.33 193.99 C 160.61 193.51 159.64 193.70 159.16 194.41 Z M 158.60 195.25 L 158.05 196.07 C 157.57 196.79 157.76 197.76 158.48 198.24 C 159.20 198.72 160.17 198.52 160.64 197.81 L 161.20 196.98 C 161.68 196.26 161.48 195.29 160.77 194.82 C 160.05 194.34 159.08 194.53 158.60 195.25 Z M 158.04 196.08 L 157.49 196.92 C 157.02 197.64 157.22 198.61 157.94 199.08 C 158.66 199.55 159.62 199.36 160.10 198.64 L 160.65 197.80 C 161.12 197.08 160.93 196.11 160.21 195.64 C 159.49 195.16 158.52 195.36 158.04 196.08 Z M 157.48 196.93 L 156.94 197.77 C 156.47 198.49 156.68 199.46 157.40 199.93 C 158.12 200.40 159.09 200.19 159.56 199.47 L 160.11 198.62 C 160.57 197.90 160.37 196.93 159.64 196.47 C 158.92 196.00 157.95 196.20 157.48 196.93 Z M 156.93 197.78 L 156.40 198.62 C 155.93 199.35 156.15 200.32 156.88 200.78 C 157.60 201.24 158.57 201.03 159.03 200.30 L 159.57 199.46 C 160.03 198.73 159.82 197.76 159.09 197.30 C 158.36 196.84 157.40 197.05 156.93 197.78 Z M 156.39 198.63 L 155.86 199.48 C 155.41 200.21 155.63 201.17 156.36 201.63 C 157.09 202.09 158.05 201.86 158.51 201.13 L 159.04 200.29 C 159.49 199.56 159.27 198.59 158.54 198.14 C 157.81 197.68 156.85 197.90 156.39 198.63 Z M 155.86 199.49 L 155.33 200.35 C 154.88 201.08 155.11 202.04 155.84 202.49 C 156.58 202.94 157.54 202.71 157.99 201.98 L 158.52 201.12 C 158.97 200.39 158.74 199.43 158.00 198.97 C 157.27 198.52 156.31 198.75 155.86 199.49 Z M 155.32 200.35 L 154.80 201.22 C 154.36 201.95 154.59 202.91 155.33 203.36 C 156.07 203.81 157.03 203.57 157.48 202.83 L 158.00 201.97 C 158.44 201.23 158.21 200.27 157.47 199.83 C 156.73 199.38 155.77 199.62 155.32 200.35 Z M 154.80 201.22 L 154.29 202.08 C 153.85 202.82 154.09 203.78 154.83 204.22 C 155.57 204.66 156.53 204.42 156.97 203.68 L 157.48 202.82 C 157.92 202.08 157.68 201.12 156.94 200.68 C 156.20 200.24 155.24 200.48 154.80 201.22 Z M 154.28 202.09 L 153.78 202.94 C 153.34 203.68 153.59 204.64 154.33 205.07 C 155.07 205.51 156.03 205.27 156.47 204.53 L 156.97 203.68 C 157.41 202.93 157.17 201.98 156.42 201.54 C 155.68 201.10 154.72 201.34 154.28 202.09 Z M 153.78 202.94 L 153.26 203.81 C 152.83 204.56 153.07 205.51 153.82 205.95 C 154.56 206.39 155.52 206.14 155.95 205.40 L 156.47 204.52 C 156.91 203.78 156.66 202.82 155.92 202.39 C 155.17 201.95 154.22 202.20 153.78 202.94 Z M 153.26 203.81 L 152.75 204.68 C 152.32 205.42 152.56 206.38 153.30 206.82 C 154.05 207.26 155.00 207.01 155.44 206.27 L 155.95 205.40 C 156.39 204.66 156.15 203.70 155.40 203.26 C 154.66 202.82 153.70 203.07 153.26 203.81 Z M 152.76 204.68 L 152.25 205.53 C 151.81 206.27 152.05 207.23 152.79 207.67 C 153.53 208.11 154.49 207.87 154.93 207.12 L 155.44 206.27 C 155.88 205.53 155.64 204.57 154.90 204.13 C 154.16 203.69 153.20 203.93 152.76 204.68 Z M 152.25 205.52 L 151.74 206.36 C 151.30 207.10 151.53 208.06 152.27 208.51 C 153.01 208.95 153.97 208.72 154.41 207.98 L 154.93 207.13 C 155.37 206.40 155.14 205.44 154.40 204.99 C 153.66 204.54 152.70 204.78 152.25 205.52 Z M 151.75 206.35 L 151.22 207.21 C 150.77 207.94 150.99 208.91 151.73 209.36 C 152.46 209.81 153.42 209.59 153.88 208.85 L 154.41 207.99 C 154.86 207.26 154.63 206.30 153.90 205.84 C 153.17 205.39 152.20 205.62 151.75 206.35 Z M 151.23 207.20 L 150.69 208.04 C 150.24 208.77 150.46 209.74 151.19 210.20 C 151.92 210.66 152.88 210.44 153.34 209.71 L 153.87 208.86 C 154.33 208.13 154.11 207.17 153.38 206.71 C 152.65 206.25 151.68 206.47 151.23 207.20 Z M 150.70 208.04 L 150.17 208.87 C 149.71 209.60 149.92 210.57 150.65 211.03 C 151.38 211.49 152.34 211.28 152.80 210.55 L 153.33 209.71 C 153.80 208.98 153.58 208.02 152.85 207.56 C 152.13 207.10 151.16 207.31 150.70 208.04 Z M 150.17 208.87 L 149.63 209.71 C 149.17 210.44 149.38 211.40 150.11 211.87 C 150.84 212.33 151.80 212.12 152.27 211.39 L 152.80 210.55 C 153.27 209.82 153.05 208.86 152.33 208.40 C 151.60 207.93 150.63 208.15 150.17 208.87 Z M 149.63 209.71 L 149.10 210.55 C 148.63 211.28 148.84 212.25 149.57 212.71 C 150.30 213.17 151.26 212.96 151.73 212.24 L 152.26 211.39 C 152.73 210.67 152.52 209.70 151.79 209.24 C 151.06 208.77 150.10 208.99 149.63 209.71 Z M 149.10 210.55 L 148.56 211.40 C 148.09 212.12 148.31 213.09 149.03 213.55 C 149.76 214.02 150.72 213.80 151.19 213.08 L 151.73 212.24 C 152.19 211.51 151.98 210.54 151.25 210.08 C 150.52 209.62 149.56 209.83 149.10 210.55 Z M 148.56 211.40 L 148.02 212.24 C 147.55 212.97 147.77 213.94 148.49 214.40 C 149.22 214.86 150.19 214.65 150.65 213.92 L 151.19 213.08 C 151.65 212.35 151.44 211.38 150.71 210.92 C 149.99 210.46 149.02 210.67 148.56 211.40 Z M 148.02 212.24 L 147.48 213.09 C 147.01 213.82 147.23 214.79 147.95 215.25 C 148.68 215.71 149.65 215.50 150.11 214.77 L 150.65 213.92 C 151.11 213.19 150.90 212.23 150.17 211.77 C 149.44 211.30 148.48 211.52 148.02 212.24 Z M 147.47 213.10 L 146.94 213.94 C 146.48 214.67 146.69 215.64 147.42 216.10 C 148.15 216.56 149.11 216.34 149.58 215.61 L 150.11 214.77 C 150.57 214.04 150.36 213.07 149.63 212.61 C 148.90 212.15 147.93 212.37 147.47 213.10 Z M 146.94 213.95 L 146.41 214.79 C 145.95 215.52 146.17 216.48 146.90 216.94 C 147.63 217.40 148.59 217.18 149.05 216.45 L 149.58 215.61 C 150.04 214.88 149.82 213.92 149.09 213.46 C 148.36 213.00 147.39 213.22 146.94 213.95 Z M 146.41 214.79 L 145.87 215.65 C 145.41 216.38 145.63 217.34 146.36 217.80 C 147.09 218.26 148.06 218.04 148.51 217.31 L 149.05 216.45 C 149.51 215.71 149.29 214.75 148.56 214.29 C 147.83 213.84 146.86 214.06 146.41 214.79 Z M 145.87 215.65 L 145.33 216.49 C 144.88 217.22 145.09 218.19 145.82 218.65 C 146.55 219.11 147.52 218.89 147.98 218.16 L 148.51 217.31 C 148.97 216.58 148.75 215.62 148.02 215.16 C 147.29 214.70 146.33 214.92 145.87 215.65 Z M 145.35 216.48 L 144.81 217.31 C 144.34 218.03 144.55 219.00 145.27 219.47 C 145.99 219.94 146.96 219.73 147.43 219.00 L 147.97 218.18 C 148.43 217.45 148.23 216.49 147.50 216.02 C 146.78 215.55 145.81 215.75 145.35 216.48 Z M 144.83 217.28 L 144.31 218.04 C 143.83 218.75 144.02 219.72 144.73 220.21 C 145.44 220.69 146.41 220.50 146.90 219.79 L 147.41 219.03 C 147.89 218.32 147.71 217.35 146.99 216.86 C 146.28 216.38 145.31 216.57 144.83 217.28 Z M 144.33 218.01 L 143.81 218.74 C 143.31 219.44 143.47 220.42 144.17 220.92 C 144.87 221.42 145.85 221.26 146.35 220.56 L 146.87 219.82 C 147.38 219.12 147.21 218.15 146.51 217.64 C 145.81 217.14 144.84 217.31 144.33 218.01 Z M 143.83 218.71 L 143.23 219.51 C 142.71 220.20 142.85 221.17 143.54 221.69 C 144.23 222.21 145.21 222.07 145.73 221.38 L 146.33 220.59 C 146.85 219.90 146.71 218.92 146.02 218.40 C 145.33 217.88 144.35 218.02 143.83 218.71 Z M 143.25 219.48 L 142.54 220.39 C 142.01 221.07 142.12 222.05 142.80 222.58 C 143.48 223.11 144.46 223.00 144.99 222.32 L 145.71 221.41 C 146.24 220.73 146.12 219.75 145.44 219.22 C 144.77 218.69 143.79 218.80 143.25 219.48 Z M 142.55 220.37 L 141.98 221.08 C 141.44 221.75 141.54 222.74 142.21 223.28 C 142.88 223.82 143.87 223.71 144.41 223.04 L 144.98 222.34 C 145.52 221.66 145.42 220.68 144.75 220.14 C 144.08 219.60 143.09 219.70 142.55 220.37 Z M 141.99 221.07 L 141.38 221.81 C 140.83 222.47 140.93 223.46 141.59 224.01 C 142.26 224.55 143.24 224.46 143.79 223.79 L 144.40 223.05 C 144.95 222.39 144.85 221.41 144.19 220.86 C 143.52 220.31 142.54 220.40 141.99 221.07 Z M 141.39 221.80 L 140.74 222.57 C 140.18 223.23 140.27 224.22 140.93 224.77 C 141.59 225.33 142.58 225.24 143.13 224.58 L 143.78 223.81 C 144.34 223.15 144.25 222.16 143.59 221.61 C 142.93 221.05 141.95 221.14 141.39 221.80 Z M 140.75 222.56 L 140.07 223.35 C 139.51 224.01 139.58 224.99 140.24 225.56 C 140.89 226.12 141.88 226.04 142.44 225.39 L 143.12 224.59 C 143.68 223.94 143.61 222.95 142.95 222.39 C 142.30 221.83 141.31 221.91 140.75 222.56 Z M 140.08 223.34 L 139.38 224.13 C 138.81 224.78 138.87 225.77 139.52 226.34 C 140.17 226.91 141.15 226.84 141.72 226.20 L 142.42 225.40 C 142.99 224.76 142.93 223.77 142.28 223.20 C 141.64 222.63 140.65 222.69 140.08 223.34 Z M 139.40 224.12 L 138.69 224.90 C 138.11 225.53 138.16 226.52 138.80 227.10 C 139.44 227.68 140.42 227.63 141.00 226.99 L 141.71 226.21 C 142.29 225.58 142.24 224.59 141.60 224.01 C 140.96 223.43 139.98 223.48 139.40 224.12 Z M 138.71 224.88 L 138.00 225.63 C 137.41 226.26 137.44 227.25 138.07 227.84 C 138.70 228.43 139.69 228.40 140.28 227.77 L 140.99 227.01 C 141.58 226.38 141.54 225.40 140.91 224.81 C 140.29 224.22 139.30 224.25 138.71 224.88 Z M 138.02 225.61 L 137.31 226.34 C 136.71 226.96 136.73 227.95 137.35 228.55 C 137.97 229.15 138.95 229.13 139.56 228.51 L 140.26 227.79 C 140.86 227.17 140.85 226.18 140.23 225.58 C 139.61 224.98 138.62 224.99 138.02 225.61 Z M 137.33 226.32 L 136.63 227.02 C 136.02 227.63 136.02 228.62 136.62 229.23 C 137.23 229.84 138.22 229.84 138.83 229.23 L 139.54 228.53 C 140.15 227.92 140.15 226.93 139.54 226.32 C 138.93 225.71 137.94 225.71 137.33 226.32 Z M 136.65 227.00 L 135.94 227.68 C 135.32 228.28 135.30 229.27 135.90 229.89 C 136.50 230.51 137.49 230.53 138.11 229.93 L 138.81 229.25 C 139.43 228.65 139.45 227.67 138.85 227.04 C 138.26 226.42 137.27 226.41 136.65 227.00 Z M 135.96 227.67 L 135.25 228.33 C 134.62 228.91 134.59 229.90 135.18 230.53 C 135.76 231.16 136.75 231.20 137.38 230.61 L 138.09 229.95 C 138.72 229.36 138.75 228.37 138.17 227.74 C 137.58 227.11 136.59 227.08 135.96 227.67 Z M 135.27 228.31 L 134.51 229.00 C 133.87 229.57 133.82 230.56 134.39 231.20 C 134.97 231.84 135.96 231.89 136.60 231.32 L 137.36 230.63 C 138.00 230.05 138.05 229.06 137.48 228.42 C 136.90 227.78 135.91 227.73 135.27 228.31 Z M 134.53 228.98 L 133.75 229.66 C 133.10 230.22 133.04 231.21 133.61 231.86 C 134.17 232.51 135.16 232.58 135.81 232.01 L 136.58 231.33 C 137.23 230.76 137.30 229.78 136.73 229.13 C 136.16 228.48 135.18 228.41 134.53 228.98 Z M 133.77 229.64 L 133.00 230.30 C 132.34 230.86 132.26 231.84 132.82 232.50 C 133.38 233.15 134.37 233.23 135.02 232.67 L 135.79 232.02 C 136.45 231.46 136.53 230.48 135.97 229.82 C 135.41 229.16 134.43 229.08 133.77 229.64 Z M 133.01 230.29 L 132.26 230.92 C 131.59 231.47 131.50 232.45 132.05 233.11 C 132.60 233.78 133.59 233.87 134.25 233.32 L 135.01 232.69 C 135.67 232.14 135.76 231.15 135.21 230.49 C 134.66 229.82 133.68 229.73 133.01 230.29 Z M 132.27 230.91 L 131.53 231.51 C 130.86 232.06 130.76 233.04 131.30 233.71 C 131.85 234.38 132.83 234.48 133.50 233.93 L 134.24 233.33 C 134.91 232.78 135.01 231.80 134.46 231.13 C 133.92 230.46 132.94 230.36 132.27 230.91 Z M 131.54 231.50 L 130.72 232.16 C 130.04 232.70 129.94 233.68 130.48 234.35 C 131.01 235.03 132.00 235.13 132.67 234.59 L 133.49 233.94 C 134.16 233.40 134.27 232.42 133.73 231.74 C 133.19 231.07 132.21 230.96 131.54 231.50 Z M 130.72 232.15 L 129.91 232.80 C 129.23 233.33 129.12 234.32 129.65 234.99 C 130.19 235.67 131.17 235.78 131.85 235.25 L 132.66 234.60 C 133.34 234.07 133.45 233.08 132.92 232.41 C 132.38 231.73 131.40 231.62 130.72 232.15 Z M 129.91 232.80 L 129.13 233.41 C 128.45 233.95 128.34 234.93 128.87 235.61 C 129.40 236.28 130.39 236.40 131.06 235.86 L 131.84 235.25 C 132.52 234.71 132.64 233.73 132.10 233.06 C 131.57 232.38 130.59 232.26 129.91 232.80 Z M 129.13 233.41 L 128.38 234.00 C 127.71 234.54 127.59 235.52 128.13 236.20 C 128.66 236.87 129.65 236.99 130.32 236.45 L 131.07 235.86 C 131.74 235.33 131.86 234.35 131.32 233.67 C 130.79 232.99 129.80 232.88 129.13 233.41 Z M 128.37 234.01 L 127.62 234.62 C 126.95 235.16 126.84 236.14 127.38 236.81 C 127.92 237.48 128.90 237.59 129.58 237.05 L 130.33 236.45 C 131.00 235.91 131.11 234.92 130.57 234.25 C 130.03 233.58 129.05 233.47 128.37 234.01 Z M 127.61 234.62 L 126.84 235.25 C 126.17 235.80 126.07 236.78 126.61 237.45 C 127.15 238.12 128.14 238.22 128.81 237.68 L 129.58 237.05 C 130.25 236.50 130.35 235.52 129.81 234.85 C 129.27 234.18 128.28 234.08 127.61 234.62 Z M 126.84 235.25 L 126.07 235.87 C 125.40 236.41 125.30 237.40 125.84 238.07 C 126.38 238.74 127.37 238.84 128.04 238.30 L 128.80 237.68 C 129.47 237.14 129.58 236.16 129.03 235.48 C 128.49 234.81 127.51 234.71 126.84 235.25 Z M 126.09 235.86 L 125.31 236.47 C 124.63 237.01 124.51 237.99 125.05 238.67 C 125.58 239.34 126.56 239.46 127.24 238.93 L 128.02 238.31 C 128.70 237.78 128.82 236.80 128.28 236.12 C 127.75 235.44 126.77 235.32 126.09 235.86 Z M 125.33 236.45 L 124.56 237.04 C 123.87 237.56 123.73 238.54 124.25 239.23 C 124.77 239.91 125.75 240.05 126.44 239.53 L 127.21 238.95 C 127.90 238.43 128.04 237.45 127.52 236.76 C 127.00 236.07 126.02 235.93 125.33 236.45 Z M 124.58 237.02 L 123.78 237.60 C 123.08 238.11 122.93 239.09 123.44 239.78 C 123.94 240.48 124.92 240.64 125.62 240.13 L 126.42 239.55 C 127.11 239.04 127.27 238.06 126.76 237.37 C 126.25 236.67 125.28 236.52 124.58 237.02 Z M 123.80 237.59 L 122.97 238.18 C 122.27 238.68 122.10 239.65 122.60 240.36 C 123.10 241.06 124.08 241.22 124.78 240.72 L 125.60 240.14 C 126.31 239.64 126.47 238.66 125.97 237.96 C 125.47 237.26 124.50 237.09 123.80 237.59 Z M 122.98 238.17 L 122.14 238.76 C 121.43 239.26 121.26 240.23 121.76 240.94 C 122.25 241.64 123.23 241.81 123.93 241.32 L 124.77 240.73 C 125.48 240.23 125.65 239.26 125.15 238.56 C 124.66 237.85 123.69 237.68 122.98 238.17 Z M 122.14 238.76 L 121.85 238.96 C 121.14 239.46 120.97 240.43 121.46 241.14 C 121.96 241.85 122.93 242.02 123.64 241.52 L 123.93 241.32 C 124.64 240.83 124.81 239.85 124.32 239.15 C 123.82 238.44 122.85 238.27 122.14 238.76 Z"
      fill="black"
      fill-rule="nonzero" /></svg>