<svg xmlns="http://www.w3.org/2000/svg" width="300" height="300" viewBox="0 0 300 300">
<path d="M 120.38 62.16 L 120.38 63.14 C 120.38 64.00 121.08 64.70 121.94 64.70 C 122.80 64.70 123.50 64.00 123.50 63.14 L 123.50 62.16 C 123.50 61.30 122.80 60.60 121.94 60.60 C 121.08 60.60 120.38 61.30 120.38 62.16 Z M 120.38 63.14 L 120.38 64.12 C 120.38 64.99 121.08 65.69 121.94 65.69 C 122.80 65.69 123.50 64.99 123.50 64.12 L 123.50 63.14 C 123.50 62.27 122.80 61.57 121.94 61.57 C 121.08 61.57 120.38 62.27 120.38 63.14 Z M 120.38 64.12 L 120.38 65.14 C 120.38 66.00 121.08 66.70 121.94 66.70 C 122.80 66.70 123.50 66.00 123.50 65.14 L 123.50 64.12 C 123.50 63.26 122.80 62.56 121.94 62.56 C 121.08 62.56 120.38 63.26 120.38 64.12 Z M 120.38 65.14 L 120.38 66.14 C 120.38 67.00 121.08 67.70 121.94 67.70 C 122.80 67.70 123.50 67.00 123.50 66.14 L 123.50 65.14 C 123.50 64.28 122.80 63.58 121.94 63.58 C 121.08 63.58 120.38 64.28 120.38 65.14 Z M 120.38 66.14 L 120.38 67.12 C 120.38 67.99 121.08 68.69 121.94 68.69 C 122.80 68.69 123.50 67.99 123.50 67.12 L 123.50 66.14 C 123.50 65.27 122.80 64.58 121.94 64.58 C 121.08 64.58 120.38 65.27 120.38 66.14 Z M 120.38 67.12 L 120.38 68.13 C 120.38 69.00 121.08 69.70 121.94 69.70 C 122.80 69.70 123.50 69.00 123.50 68.13 L 123.50 67.12 C 123.50 66.26 122.80 65.56 121.94 65.56 C 121.08 65.56 120.38 66.26 120.38 67.12 Z M 120.38 68.13 L 120.38 69.16 C 120.38 70.02 121.08 70.72 121.94 70.72 C 122.80 70.72 123.50 70.02 123.50 69.16 L 123.50 68.13 C 123.50 67.27 122.80 66.57 121.94 66.57 C 121.08 66.57 120.38 67.27 120.38 68.13 Z M 120.38 69.16 L 120.38 70.19 C 120.38 71.05 121.08 71.75 121.94 71.75 C 122.80 71.75 123.50 71.05 123.50 70.19 L 123.50 69.16 C 123.50 68.29 122.80 67.59 121.94 67.59 C 121.08 67.59 120.38 68.29 120.38 69.16 Z M 120.38 70.19 L 120.38 71.21 C 120.38 72.07 121.08 72.77 121.94 72.77 C 122.80 72.77 123.50 72.07 123.50 71.21 L 123.50 70.19 C 123.50 69.33 122.80 68.63 121.94 68.63 C 121.08 68.63 120.38 69.33 120.38 70.19 Z M 120.38 71.21 L 120.38 72.20 C 120.38 73.06 121.08 73.76 121.94 73.76 C 122.80 73.76 123.50 73.06 123.50 72.20 L 123.50 71.21 C 123.50 70.35 122.80 69.65 121.94 69.65 C 121.08 69.65 120.38 70.35 120.38 71.21 Z M 120.38 72.20 L 120.38 73.16 C 120.38 74.02 121.08 74.72 121.94 74.72 C 122.80 74.72 123.50 74.02 123.50 73.16 L 123.50 72.20 C 123.50 71.34 122.80 70.64 121.94 70.64 C 121.08 70.64 120.38 71.34 120.38 72.20 Z M 120.38 73.16 L 120.38 74.16 C 120.38 75.02 121.08 75.72 121.94 75.72 C 122.80 75.72 123.50 75.02 123.50 74.16 L 123.50 73.16 C 123.50 72.30 122.80 71.60 121.94 71.60 C 121.08 71.60 120.38 72.30 120.38 73.16 Z M 120.38 74.16 L 120.38 75.13 C 120.38 76.00 121.08 76.70 121.94 76.70 C 122.80 76.70 123.50 76.00 123.50 75.13 L 123.50 74.16 C 123.50 73.29 122.80 72.59 121.94 72.59 C 121.08 72.59 120.38 73.29 120.38 74.16 Z M 120.38 75.13 L 120.38 76.15 C 120.38 77.01 121.08 77.71 121.94 77.71 C 122.80 77.71 123.50 77.01 123.50 76.15 L 123.50 75.13 C 123.50 74.27 122.80 73.57 121.94 73.57 C 121.08 73.57 120.38 74.27 120.38 75.13 Z M 120.38 76.15 L 120.38 77.07 C 120.38 77.94 121.08 78.64 121.94 78.64 C 122.80 78.64 123.50 77.94 123.50 77.07 L 123.50 76.15 C 123.50 75.28 122.80 74.59 121.94 74.59 C 121.08 74.59 120.38 75.28 120.38 76.15 Z M 120.38 77.07 L 120.38 78.02 C 120.38 78.88 121.08 79.58 121.94 79.58 C 122.80 79.58 123.50 78.88 123.50 78.02 L 123.50 77.07 C 123.50 76.21 122.80 75.51 121.94 75.51 C 121.08 75.51 120.38 76.21 120.38 77.07 Z M 120.38 78.02 L 120.38 79.03 C 120.38 79.90 121.08 80.60 121.94 80.60 C 122.80 80.60 123.50 79.90 123.50 79.03 L 123.50 78.02 C 123.50 77.16 122.80 76.46 121.94 76.46 C 121.08 76.46 120.38 77.16 120.38 78.02 Z M 120.38 79.03 L 120.38 80.12 C 120.38 80.98 121.08 81.68 121.94 81.68 C 122.80 81.68 123.50 80.98 123.50 80.12 L 123.50 79.03 C 123.50 78.17 122.80 77.47 121.94 77.47 C 121.08 77.47 120.38 78.17 120.38 79.03 Z M 120.38 80.12 L 120.38 81.10 C 120.38 81.96 121.08 82.66 121.94 82.66 C 122.80 82.66 123.50 81.96 123.50 81.10 L 123.50 80.12 C 123.50 79.25 122.81 78.55 121.94 78.55 C 121.08 78.55 120.38 79.25 120.38 80.12 Z M 120.38 81.10 L 120.38 82.05 C 120.38 82.91 121.08 83.61 121.94 83.61 C 122.80 83.61 123.50 82.91 123.50 82.05 L 123.50 81.10 C 123.50 80.24 122.81 79.54 121.94 79.54 C 121.08 79.54 120.38 80.24 120.38 81.10 Z M 120.38 82.04 L 120.38 83.03 C 120.37 83.89 121.07 84.59 121.93 84.60 C 122.79 84.60 123.49 83.90 123.50 83.04 L 123.50 82.06 C 123.51 81.19 122.81 80.49 121.95 80.49 C 121.09 80.48 120.38 81.18 120.38 82.04 Z M 120.38 83.02 L 120.37 84.04 C 120.36 84.91 121.05 85.61 121.91 85.62 C 122.78 85.63 123.48 84.93 123.49 84.07 L 123.50 83.05 C 123.51 82.19 122.81 81.48 121.95 81.47 C 121.09 81.47 120.38 82.16 120.38 83.02 Z M 120.37 84.03 L 120.35 85.09 C 120.34 85.95 121.03 86.66 121.89 86.67 C 122.75 86.69 123.46 86.00 123.47 85.14 L 123.49 84.08 C 123.50 83.22 122.81 82.51 121.95 82.50 C 121.09 82.48 120.38 83.17 120.37 84.03 Z M 120.35 85.08 L 120.33 86.14 C 120.31 87.00 120.99 87.72 121.86 87.73 C 122.72 87.75 123.43 87.07 123.45 86.21 L 123.47 85.15 C 123.49 84.28 122.81 83.57 121.95 83.55 C 121.08 83.53 120.37 84.22 120.35 85.08 Z M 120.33 86.13 L 120.30 87.17 C 120.27 88.04 120.95 88.76 121.82 88.78 C 122.68 88.80 123.40 88.13 123.42 87.26 L 123.45 86.22 C 123.47 85.36 122.80 84.64 121.93 84.61 C 121.07 84.59 120.35 85.27 120.33 86.13 Z M 120.30 87.17 L 120.26 88.21 C 120.24 89.07 120.91 89.79 121.77 89.82 C 122.63 89.85 123.36 89.18 123.38 88.31 L 123.42 87.27 C 123.45 86.41 122.77 85.69 121.91 85.66 C 121.05 85.63 120.33 86.31 120.30 87.17 Z M 120.26 88.20 L 120.23 89.22 C 120.19 90.08 120.87 90.81 121.73 90.84 C 122.59 90.87 123.31 90.20 123.35 89.34 L 123.38 88.32 C 123.42 87.46 122.74 86.73 121.88 86.70 C 121.02 86.67 120.30 87.34 120.26 88.20 Z M 120.23 89.22 L 120.19 90.19 C 120.15 91.05 120.82 91.78 121.68 91.82 C 122.55 91.85 123.27 91.18 123.31 90.32 L 123.35 89.34 C 123.38 88.48 122.71 87.76 121.85 87.72 C 120.99 87.69 120.26 88.36 120.23 89.22 Z M 120.19 90.19 L 120.15 91.10 C 120.11 91.96 120.78 92.69 121.64 92.73 C 122.51 92.76 123.23 92.09 123.27 91.23 L 123.31 90.32 C 123.34 89.46 122.67 88.73 121.81 88.70 C 120.95 88.66 120.22 89.33 120.19 90.19 Z M 120.15 91.10 L 120.10 92.23 C 120.07 93.09 120.73 93.82 121.60 93.85 C 122.46 93.89 123.19 93.22 123.22 92.36 L 123.27 91.23 C 123.31 90.37 122.64 89.64 121.77 89.61 C 120.91 89.57 120.19 90.24 120.15 91.10 Z M 120.10 92.23 L 120.06 93.25 C 120.02 94.12 120.69 94.84 121.55 94.88 C 122.41 94.92 123.14 94.25 123.18 93.39 L 123.22 92.36 C 123.26 91.50 122.59 90.77 121.73 90.73 C 120.87 90.70 120.14 91.37 120.10 92.23 Z M 120.06 93.25 L 120.02 94.19 C 119.98 95.05 120.65 95.78 121.51 95.82 C 122.37 95.85 123.10 95.18 123.14 94.32 L 123.18 93.39 C 123.21 92.52 122.55 91.80 121.68 91.76 C 120.82 91.72 120.10 92.39 120.06 93.25 Z M 120.02 94.19 L 119.98 95.09 C 119.95 95.95 120.61 96.68 121.48 96.71 C 122.34 96.75 123.06 96.08 123.10 95.22 L 123.14 94.32 C 123.18 93.46 122.51 92.73 121.65 92.70 C 120.78 92.66 120.06 93.33 120.02 94.19 Z M 119.98 95.09 L 119.94 96.10 C 119.90 96.97 120.57 97.69 121.43 97.73 C 122.29 97.77 123.02 97.10 123.06 96.24 L 123.10 95.22 C 123.14 94.36 122.47 93.63 121.61 93.59 C 120.75 93.56 120.02 94.22 119.98 95.09 Z M 119.94 96.10 L 119.90 97.11 C 119.86 97.97 120.53 98.70 121.39 98.74 C 122.25 98.77 122.98 98.10 123.02 97.24 L 123.06 96.23 C 123.09 95.37 122.43 94.65 121.56 94.61 C 120.70 94.57 119.97 95.24 119.94 96.10 Z M 119.90 97.11 L 119.86 98.10 C 119.82 98.96 120.49 99.69 121.35 99.72 C 122.21 99.76 122.94 99.09 122.98 98.22 L 123.02 97.24 C 123.05 96.38 122.38 95.65 121.52 95.62 C 120.66 95.58 119.93 96.25 119.90 97.11 Z M 119.86 98.10 L 119.82 99.07 C 119.79 99.93 120.46 100.66 121.32 100.69 C 122.18 100.72 122.91 100.05 122.94 99.19 L 122.98 98.22 C 123.01 97.36 122.34 96.63 121.48 96.60 C 120.62 96.57 119.89 97.24 119.86 98.10 Z M 119.82 99.08 L 119.79 100.05 C 119.76 100.91 120.43 101.63 121.29 101.66 C 122.15 101.69 122.88 101.01 122.91 100.15 L 122.94 99.18 C 122.97 98.32 122.29 97.60 121.43 97.57 C 120.57 97.54 119.85 98.22 119.82 99.08 Z M 119.78 100.06 L 119.76 101.06 C 119.73 101.92 120.42 102.64 121.28 102.66 C 122.14 102.69 122.86 102.01 122.88 101.14 L 122.91 100.14 C 122.93 99.28 122.25 98.56 121.39 98.54 C 120.53 98.52 119.81 99.20 119.78 100.06 Z M 119.76 101.08 L 119.74 102.09 C 119.73 102.95 120.41 103.66 121.27 103.67 C 122.14 103.69 122.85 103.00 122.86 102.14 L 122.88 101.13 C 122.89 100.27 122.21 99.56 121.35 99.54 C 120.48 99.53 119.77 100.21 119.76 101.08 Z M 119.74 102.10 L 119.73 103.04 C 119.73 103.90 120.42 104.60 121.28 104.61 C 122.14 104.62 122.85 103.92 122.86 103.06 L 122.86 102.13 C 122.87 101.26 122.18 100.56 121.31 100.55 C 120.45 100.55 119.75 101.24 119.74 102.10 Z M 119.73 103.05 L 119.73 104.05 C 119.74 104.91 120.44 105.61 121.30 105.60 C 122.16 105.60 122.86 104.90 122.86 104.04 L 122.86 103.05 C 122.85 102.18 122.15 101.49 121.29 101.49 C 120.43 101.49 119.73 102.19 119.73 103.05 Z M 119.73 104.06 L 119.75 105.11 C 119.76 105.97 120.47 106.66 121.33 106.65 C 122.19 106.64 122.88 105.93 122.87 105.07 L 122.86 104.02 C 122.85 103.16 122.14 102.47 121.28 102.48 C 120.41 102.49 119.72 103.20 119.73 104.06 Z M 119.75 105.12 L 119.77 106.18 C 119.80 107.04 120.51 107.72 121.37 107.70 C 122.24 107.68 122.92 106.96 122.90 106.10 L 122.87 105.05 C 122.85 104.19 122.13 103.50 121.27 103.52 C 120.41 103.55 119.73 104.26 119.75 105.12 Z M 119.77 106.20 L 119.81 107.17 C 119.84 108.03 120.56 108.71 121.43 108.68 C 122.29 108.65 122.96 107.92 122.93 107.06 L 122.90 106.08 C 122.86 105.22 122.14 104.55 121.28 104.58 C 120.42 104.61 119.74 105.33 119.77 106.20 Z M 119.81 107.18 L 119.85 108.18 C 119.89 109.04 120.62 109.71 121.48 109.67 C 122.34 109.63 123.01 108.90 122.97 108.04 L 122.93 107.05 C 122.89 106.19 122.16 105.52 121.30 105.56 C 120.44 105.59 119.77 106.32 119.81 107.18 Z M 119.85 108.19 L 119.90 109.19 C 119.95 110.06 120.68 110.72 121.54 110.68 C 122.40 110.64 123.06 109.90 123.02 109.04 L 122.97 108.03 C 122.93 107.17 122.20 106.51 121.34 106.55 C 120.48 106.59 119.81 107.33 119.85 108.19 Z M 119.90 109.20 L 119.96 110.22 C 120.00 111.08 120.74 111.74 121.60 111.69 C 122.46 111.65 123.12 110.91 123.07 110.05 L 123.02 109.04 C 122.98 108.18 122.24 107.51 121.38 107.56 C 120.52 107.60 119.86 108.34 119.90 109.20 Z M 119.96 110.22 L 119.98 110.70 C 120.03 111.56 120.76 112.22 121.63 112.18 C 122.49 112.13 123.15 111.40 123.10 110.54 L 123.07 110.05 C 123.03 109.19 122.29 108.53 121.43 108.57 C 120.57 108.62 119.91 109.36 119.96 110.22 Z"
      fill="black"
      fill-rule="nonzero" /><path d="M 178.28 64.73 L 177.13 64.60 C 176.28 64.49 175.50 65.11 175.40 65.96 C 175.30 66.82 175.91 67.59 176.76 67.70 L 177.91 67.83 C 178.77 67.93 179.54 67.32 179.64 66.47 C 179.75 65.61 179.13 64.83 178.28 64.73 Z M 177.02 64.59 L 175.97 64.54 C 175.10 64.50 174.37 65.16 174.33 66.02 C 174.29 66.88 174.96 67.61 175.82 67.65 L 176.87 67.71 C 177.74 67.75 178.47 67.08 178.51 66.22 C 178.55 65.36 177.88 64.63 177.02 64.59 Z M 175.68 64.55 L 174.79 64.67 C 173.94 64.79 173.34 65.57 173.46 66.43 C 173.57 67.28 174.36 67.88 175.22 67.76 L 176.10 67.64 C 176.96 67.53 177.55 66.74 177.44 65.88 C 177.32 65.03 176.53 64.43 175.68 64.55 Z M 174.19 64.89 L 173.54 65.28 C 172.80 65.73 172.57 66.70 173.02 67.43 C 173.47 68.17 174.43 68.40 175.17 67.95 L 175.82 67.55 C 176.56 67.10 176.79 66.14 176.34 65.40 C 175.89 64.67 174.92 64.43 174.19 64.89 Z M 172.96 65.91 L 172.58 66.65 C 172.19 67.42 172.50 68.36 173.27 68.75 C 174.04 69.14 174.98 68.84 175.37 68.07 L 175.75 67.32 C 176.14 66.55 175.83 65.61 175.06 65.22 C 174.29 64.83 173.35 65.14 172.96 65.91 Z M 172.43 67.12 L 172.27 68.14 C 172.13 68.99 172.71 69.79 173.57 69.93 C 174.42 70.07 175.22 69.49 175.35 68.63 L 175.52 67.61 C 175.65 66.76 175.07 65.96 174.22 65.82 C 173.37 65.68 172.57 66.26 172.43 67.12 Z M 172.25 68.32 L 172.20 69.48 C 172.16 70.34 172.83 71.07 173.69 71.11 C 174.55 71.15 175.28 70.49 175.32 69.62 L 175.37 68.46 C 175.41 67.60 174.74 66.87 173.88 66.83 C 173.02 66.79 172.29 67.46 172.25 68.32 Z M 172.20 69.52 L 172.18 70.47 C 172.16 71.34 172.84 72.05 173.71 72.07 C 174.57 72.09 175.28 71.40 175.30 70.54 L 175.32 69.59 C 175.34 68.72 174.65 68.01 173.79 67.99 C 172.93 67.98 172.22 68.66 172.20 69.52 Z M 172.18 70.49 L 172.17 71.49 C 172.16 72.36 172.85 73.06 173.71 73.07 C 174.57 73.08 175.28 72.39 175.29 71.53 L 175.30 70.52 C 175.31 69.66 174.62 68.96 173.76 68.95 C 172.89 68.94 172.19 69.63 172.18 70.49 Z M 172.17 71.50 L 172.16 72.53 C 172.16 73.40 172.85 74.10 173.71 74.10 C 174.58 74.11 175.28 73.41 175.28 72.55 L 175.29 71.52 C 175.29 70.66 174.60 69.95 173.74 69.95 C 172.87 69.95 172.17 70.64 172.17 71.50 Z M 172.16 72.54 L 172.16 73.57 C 172.16 74.43 172.86 75.13 173.72 75.13 C 174.58 75.13 175.28 74.43 175.28 73.57 L 175.28 72.54 C 175.28 71.68 174.59 70.98 173.72 70.98 C 172.86 70.98 172.16 71.68 172.16 72.54 Z M 172.16 73.57 L 172.16 74.58 C 172.16 75.44 172.86 76.14 173.72 76.14 C 174.58 76.14 175.28 75.44 175.28 74.58 L 175.28 73.57 C 175.28 72.71 174.58 72.01 173.72 72.01 C 172.86 72.01 172.16 72.71 172.16 73.57 Z M 172.16 74.58 L 172.16 75.58 C 172.16 76.44 172.86 77.14 173.72 77.14 C 174.58 77.14 175.28 76.44 175.28 75.58 L 175.28 74.58 C 175.28 73.72 174.58 73.02 173.72 73.02 C 172.86 73.02 172.16 73.72 172.16 74.58 Z M 172.16 75.58 L 172.16 76.56 C 172.16 77.42 172.86 78.12 173.72 78.12 C 174.58 78.12 175.28 77.42 175.28 76.56 L 175.28 75.58 C 175.28 74.72 174.58 74.02 173.72 74.02 C 172.86 74.02 172.16 74.72 172.16 75.58 Z M 172.16 76.56 L 172.16 77.55 C 172.16 78.41 172.86 79.11 173.72 79.11 C 174.58 79.11 175.28 78.41 175.28 77.55 L 175.28 76.56 C 175.28 75.70 174.58 75.00 173.72 75.00 C 172.86 75.00 172.16 75.70 172.16 76.56 Z M 172.16 77.55 L 172.16 78.57 C 172.16 79.43 172.86 80.13 173.72 80.13 C 174.58 80.13 175.28 79.43 175.28 78.57 L 175.28 77.55 C 175.28 76.69 174.58 75.99 173.72 75.99 C 172.86 75.99 172.16 76.69 172.16 77.55 Z M 172.16 78.57 L 172.16 79.59 C 172.16 80.45 172.86 81.15 173.72 81.15 C 174.58 81.15 175.28 80.45 175.28 79.59 L 175.28 78.57 C 175.28 77.71 174.58 77.01 173.72 77.01 C 172.86 77.01 172.16 77.71 172.16 78.57 Z M 172.16 79.59 L 172.16 80.63 C 172.16 81.49 172.86 82.19 173.72 82.19 C 174.58 82.19 175.28 81.49 175.28 80.63 L 175.28 79.59 C 175.28 78.73 174.58 78.03 173.72 78.03 C 172.86 78.03 172.16 78.73 172.16 79.59 Z M 172.16 80.63 L 172.16 81.66 C 172.16 82.52 172.86 83.22 173.72 83.22 C 174.58 83.22 175.28 82.52 175.28 81.66 L 175.28 80.63 C 175.28 79.77 174.58 79.07 173.72 79.07 C 172.86 79.07 172.16 79.77 172.16 80.63 Z M 172.16 81.66 L 172.16 82.64 C 172.16 83.50 172.86 84.20 173.72 84.20 C 174.58 84.20 175.28 83.50 175.28 82.64 L 175.28 81.66 C 175.28 80.79 174.58 80.10 173.72 80.10 C 172.86 80.10 172.16 80.79 172.16 81.66 Z M 172.16 82.64 L 172.16 83.61 C 172.16 84.47 172.86 85.17 173.72 85.17 C 174.58 85.17 175.28 84.47 175.28 83.61 L 175.28 82.64 C 175.28 81.78 174.58 81.08 173.72 81.08 C 172.86 81.08 172.16 81.78 172.16 82.64 Z M 172.16 83.61 L 172.16 84.69 C 172.16 85.55 172.86 86.25 173.72 86.25 C 174.58 86.25 175.28 85.55 175.28 84.69 L 175.28 83.61 C 175.28 82.74 174.58 82.05 173.72 82.05 C 172.86 82.05 172.16 82.74 172.16 83.61 Z M 172.16 84.69 L 172.16 85.66 C 172.16 86.52 172.86 87.22 173.72 87.22 C 174.58 87.22 175.28 86.52 175.28 85.66 L 175.28 84.69 C 175.28 83.82 174.58 83.12 173.72 83.12 C 172.86 83.12 172.16 83.82 172.16 84.69 Z M 172.16 85.66 L 172.16 86.59 C 172.16 87.45 172.86 88.15 173.72 88.15 C 174.58 88.15 175.28 87.45 175.28 86.59 L 175.28 85.66 C 175.28 84.80 174.58 84.10 173.72 84.10 C 172.86 84.10 172.16 84.80 172.16 85.66 Z M 172.16 86.59 L 172.16 87.54 C 172.16 88.40 172.86 89.10 173.72 89.10 C 174.58 89.10 175.28 88.40 175.28 87.54 L 175.28 86.59 C 175.28 85.73 174.58 85.03 173.72 85.03 C 172.86 85.03 172.16 85.73 172.16 86.59 Z M 172.16 87.54 L 172.16 88.52 C 172.16 89.38 172.86 90.08 173.72 90.08 C 174.58 90.08 175.28 89.38 175.28 88.52 L 175.28 87.54 C 175.28 86.68 174.58 85.98 173.72 85.98 C 172.86 85.98 172.16 86.68 172.16 87.54 Z M 172.16 88.52 L 172.16 89.54 C 172.16 90.40 172.86 91.10 173.72 91.10 C 174.58 91.10 175.28 90.40 175.28 89.54 L 175.28 88.52 C 175.28 87.66 174.58 86.96 173.72 86.96 C 172.86 86.96 172.16 87.66 172.16 88.52 Z M 172.16 89.54 L 172.16 90.57 C 172.16 91.43 172.86 92.13 173.72 92.13 C 174.58 92.13 175.28 91.43 175.28 90.57 L 175.28 89.54 C 175.28 88.68 174.58 87.98 173.72 87.98 C 172.86 87.98 172.16 88.68 172.16 89.54 Z M 172.16 90.57 L 172.16 91.56 C 172.16 92.42 172.86 93.12 173.72 93.12 C 174.58 93.12 175.28 92.42 175.28 91.56 L 175.28 90.57 C 175.28 89.71 174.58 89.01 173.72 89.01 C 172.86 89.01 172.16 89.71 172.16 90.57 Z M 172.16 91.56 L 172.16 92.56 C 172.16 93.43 172.86 94.13 173.72 94.13 C 174.58 94.13 175.28 93.43 175.28 92.56 L 175.28 91.56 C 175.28 90.70 174.58 90.00 173.72 90.00 C 172.86 90.00 172.16 90.70 172.16 91.56 Z M 172.16 92.56 L 172.16 93.57 C 172.16 94.43 172.86 95.13 173.72 95.13 C 174.58 95.13 175.28 94.43 175.28 93.57 L 175.28 92.56 C 175.28 91.70 174.58 91.00 173.72 91.00 C 172.86 91.00 172.16 91.70 172.16 92.56 Z M 172.16 93.57 L 172.16 94.58 C 172.16 95.44 172.86 96.14 173.72 96.14 C 174.58 96.14 175.28 95.44 175.28 94.58 L 175.28 93.57 C 175.28 92.71 174.58 92.01 173.72 92.01 C 172.86 92.01 172.16 92.71 172.16 93.57 Z M 172.16 94.58 L 172.16 95.58 C 172.16 96.44 172.86 97.14 173.72 97.14 C 174.58 97.14 175.28 96.44 175.28 95.58 L 175.28 94.58 C 175.28 93.71 174.58 93.01 173.72 93.01 C 172.86 93.01 172.16 93.71 172.16 94.58 Z M 172.16 95.58 L 172.16 96.58 C 172.16 97.44 172.86 98.14 173.72 98.14 C 174.58 98.14 175.28 97.44 175.28 96.58 L 175.28 95.58 C 175.28 94.72 174.58 94.02 173.72 94.02 C 172.86 94.02 172.16 94.72 172.16 95.58 Z M 172.16 96.58 L 172.16 97.57 C 172.16 98.44 172.86 99.14 173.72 99.14 C 174.58 99.14 175.28 98.44 175.28 97.57 L 175.28 96.58 C 175.28 95.72 174.58 95.02 173.72 95.02 C 172.86 95.02 172.16 95.72 172.16 96.58 Z M 172.16 97.57 L 172.16 98.51 C 172.16 99.38 172.86 100.08 173.72 100.08 C 174.58 100.08 175.28 99.38 175.28 98.51 L 175.28 97.57 C 175.28 96.71 174.58 96.01 173.72 96.01 C 172.86 96.01 172.16 96.71 172.16 97.57 Z M 172.16 98.51 L 172.16 99.45 C 172.16 100.31 172.86 101.01 173.72 101.01 C 174.58 101.01 175.28 100.31 175.28 99.45 L 175.28 98.51 C 175.28 97.65 174.58 96.95 173.72 96.95 C 172.86 96.95 172.16 97.65 172.16 98.51 Z M 172.16 99.45 L 172.16 100.43 C 172.16 101.29 172.86 101.99 173.72 101.99 C 174.58 101.99 175.28 101.29 175.28 100.43 L 175.28 99.45 C 175.28 98.58 174.58 97.88 173.72 97.88 C 172.86 97.88 172.16 98.58 172.16 99.45 Z M 172.16 100.43 L 172.16 101.50 C 172.16 102.37 172.86 103.07 173.72 103.07 C 174.58 103.07 175.28 102.37 175.28 101.50 L 175.28 100.43 C 175.28 99.57 174.58 98.87 173.72 98.87 C 172.86 98.87 172.16 99.57 172.16 100.43 Z M 172.16 101.50 L 172.16 102.53 C 172.16 103.40 172.86 104.09 173.72 104.09 C 174.58 104.09 175.28 103.40 175.28 102.53 L 175.28 101.50 C 175.28 100.64 174.58 99.94 173.72 99.94 C 172.86 99.94 172.16 100.64 172.16 101.50 Z M 172.16 102.53 L 172.16 103.51 C 172.16 104.37 172.86 105.07 173.72 105.07 C 174.58 105.07 175.28 104.37 175.28 103.51 L 175.28 102.53 C 175.28 101.67 174.58 100.97 173.72 100.97 C 172.86 100.97 172.16 101.67 172.16 102.53 Z M 172.16 103.51 L 172.16 104.53 C 172.16 105.39 172.85 106.09 173.72 106.09 C 174.58 106.09 175.28 105.39 175.28 104.53 L 175.28 103.51 C 175.28 102.65 174.59 101.95 173.72 101.95 C 172.86 101.95 172.16 102.65 172.16 103.51 Z M 172.16 104.52 L 172.15 105.55 C 172.15 106.42 172.84 107.12 173.71 107.12 C 174.57 107.13 175.27 106.43 175.27 105.57 L 175.28 104.54 C 175.28 103.67 174.59 102.97 173.73 102.97 C 172.86 102.96 172.16 103.66 172.16 104.52 Z M 172.15 105.55 L 172.14 106.57 C 172.14 107.43 172.83 108.13 173.69 108.14 C 174.56 108.15 175.26 107.45 175.27 106.59 L 175.27 105.57 C 175.28 104.71 174.59 104.01 173.73 104.00 C 172.86 103.99 172.16 104.69 172.15 105.55 Z M 172.14 106.56 L 172.13 107.57 C 172.12 108.44 172.81 109.14 173.67 109.16 C 174.53 109.17 175.24 108.48 175.25 107.61 L 175.27 106.60 C 175.28 105.74 174.59 105.03 173.73 105.02 C 172.86 105.01 172.16 105.70 172.14 106.56 Z M 172.13 107.57 L 172.11 108.62 C 172.10 109.48 172.78 110.19 173.64 110.21 C 174.51 110.22 175.22 109.54 175.23 108.67 L 175.25 107.62 C 175.27 106.76 174.58 106.05 173.72 106.03 C 172.86 106.02 172.15 106.70 172.13 107.57 Z M 172.11 108.61 L 172.09 109.61 C 172.07 110.47 172.75 111.19 173.62 111.21 C 174.48 111.23 175.19 110.54 175.21 109.68 L 175.23 108.68 C 175.25 107.82 174.57 107.10 173.71 107.08 C 172.85 107.06 172.13 107.75 172.11 108.61 Z M 172.09 109.61 L 172.07 110.58 C 172.05 111.44 172.73 112.16 173.59 112.18 C 174.45 112.20 175.17 111.52 175.19 110.66 L 175.21 109.68 C 175.23 108.82 174.55 108.11 173.69 108.09 C 172.83 108.07 172.11 108.75 172.09 109.61 Z M 172.07 110.59 L 172.05 111.55 C 172.03 112.41 172.71 113.13 173.57 113.14 C 174.44 113.16 175.15 112.48 175.17 111.62 L 175.19 110.65 C 175.21 109.79 174.52 109.08 173.66 109.06 C 172.80 109.04 172.08 109.72 172.07 110.59 Z M 172.05 111.56 L 172.03 112.57 C 172.02 113.43 172.71 114.14 173.57 114.15 C 174.43 114.16 175.14 113.48 175.15 112.61 L 175.17 111.61 C 175.18 110.75 174.49 110.04 173.63 110.02 C 172.77 110.01 172.06 110.70 172.05 111.56 Z M 172.03 112.57 L 172.02 113.61 C 172.01 114.47 172.71 115.18 173.57 115.19 C 174.43 115.20 175.14 114.50 175.14 113.64 L 175.15 112.60 C 175.16 111.74 174.47 111.04 173.61 111.03 C 172.74 111.02 172.04 111.71 172.03 112.57 Z M 172.02 113.62 L 172.02 114.64 C 172.01 115.50 172.71 116.21 173.57 116.21 C 174.43 116.22 175.13 115.52 175.14 114.66 L 175.14 113.63 C 175.15 112.77 174.45 112.07 173.59 112.07 C 172.73 112.06 172.02 112.76 172.02 113.62 Z M 172.02 114.65 L 172.01 115.63 C 172.01 116.49 172.71 117.19 173.57 117.20 C 174.44 117.20 175.14 116.50 175.14 115.64 L 175.14 114.65 C 175.14 113.79 174.44 113.09 173.58 113.09 C 172.72 113.09 172.02 113.79 172.02 114.65 Z M 172.01 115.63 L 172.01 116.59 C 172.01 117.45 172.71 118.15 173.58 118.15 C 174.44 118.15 175.14 117.45 175.14 116.59 L 175.14 115.64 C 175.14 114.77 174.44 114.07 173.58 114.07 C 172.71 114.07 172.01 114.77 172.01 115.63 Z M 172.01 116.59 L 172.01 117.67 C 172.01 118.53 172.71 119.23 173.58 119.23 C 174.44 119.23 175.14 118.53 175.14 117.67 L 175.14 116.59 C 175.14 115.73 174.44 115.03 173.58 115.03 C 172.71 115.03 172.01 115.73 172.01 116.59 Z M 172.01 117.67 L 172.01 118.66 C 172.01 119.52 172.71 120.22 173.58 120.22 C 174.44 120.22 175.14 119.52 175.14 118.66 L 175.14 117.67 C 175.14 116.81 174.44 116.11 173.58 116.11 C 172.71 116.11 172.01 116.81 172.01 117.67 Z M 172.01 118.66 L 172.01 119.60 C 172.01 120.46 172.71 121.16 173.58 121.16 C 174.44 121.16 175.14 120.46 175.14 119.60 L 175.14 118.66 C 175.14 117.80 174.44 117.10 173.58 117.10 C 172.71 117.10 172.01 117.80 172.01 118.66 Z M 172.01 119.60 L 172.01 119.88 C 172.01 120.75 172.71 121.44 173.58 121.44 C 174.44 121.44 175.14 120.75 175.14 119.88 L 175.14 119.60 C 175.14 118.73 174.44 118.03 173.58 118.03 C 172.71 118.03 172.01 118.73 172.01 119.60 Z"
      fill="black"
      fill-rule="nonzero" /></svg>