<svg xmlns="http://www.w3.org/2000/svg" width="300" height="300" viewBox="0 0 300 300">
<path d="M 174.38 85.59 L 173.47 85.93 C 172.67 86.23 172.26 87.13 172.56 87.94 C 172.86 88.74 173.76 89.15 174.57 88.85 L 175.47 88.51 C 176.28 88.21 176.69 87.31 176.39 86.50 C 176.08 85.70 175.18 85.29 174.38 85.59 Z M 173.41 85.95 L 172.51 86.34 C 171.71 86.67 171.34 87.59 171.68 88.38 C 172.02 89.18 172.93 89.55 173.73 89.21 L 174.63 88.83 C 175.43 88.49 175.80 87.57 175.46 86.78 C 175.12 85.99 174.21 85.62 173.41 85.95 Z M 172.39 86.39 L 171.48 86.87 C 170.71 87.27 170.42 88.21 170.82 88.98 C 171.22 89.74 172.16 90.03 172.92 89.64 L 173.84 89.16 C 174.60 88.76 174.90 87.81 174.50 87.05 C 174.10 86.29 173.16 85.99 172.39 86.39 Z M 171.35 86.94 L 170.53 87.48 C 169.81 87.95 169.60 88.92 170.07 89.64 C 170.54 90.36 171.51 90.57 172.23 90.09 L 173.05 89.56 C 173.78 89.09 173.98 88.12 173.51 87.40 C 173.04 86.68 172.07 86.47 171.35 86.94 Z M 170.44 87.54 L 169.65 88.14 C 168.96 88.67 168.83 89.65 169.35 90.33 C 169.87 91.02 170.85 91.15 171.53 90.63 L 172.33 90.03 C 173.01 89.51 173.15 88.53 172.62 87.84 C 172.10 87.16 171.12 87.02 170.44 87.54 Z M 169.59 88.19 L 168.81 88.85 C 168.14 89.40 168.06 90.38 168.61 91.04 C 169.16 91.71 170.15 91.79 170.81 91.24 L 171.59 90.58 C 172.25 90.03 172.34 89.05 171.79 88.39 C 171.23 87.72 170.25 87.64 169.59 88.19 Z M 168.77 88.87 L 168.01 89.55 C 167.36 90.12 167.30 91.11 167.87 91.76 C 168.45 92.40 169.43 92.46 170.08 91.89 L 170.84 91.21 C 171.49 90.64 171.55 89.65 170.98 89.01 C 170.40 88.36 169.42 88.30 168.77 88.87 Z M 167.99 89.57 L 167.24 90.25 C 166.60 90.83 166.55 91.82 167.13 92.46 C 167.71 93.10 168.70 93.14 169.34 92.56 L 170.09 91.88 C 170.73 91.30 170.78 90.31 170.20 89.67 C 169.62 89.03 168.63 88.99 167.99 89.57 Z M 167.24 90.25 L 166.50 90.93 C 165.86 91.51 165.81 92.50 166.40 93.13 C 166.98 93.77 167.96 93.82 168.60 93.23 L 169.34 92.56 C 169.98 91.98 170.02 90.99 169.44 90.35 C 168.86 89.72 167.87 89.67 167.24 90.25 Z M 166.51 90.92 L 165.77 91.57 C 165.13 92.15 165.07 93.14 165.65 93.78 C 166.22 94.42 167.21 94.48 167.85 93.90 L 168.59 93.25 C 169.23 92.67 169.29 91.69 168.71 91.04 C 168.14 90.40 167.15 90.34 166.51 90.92 Z M 165.80 91.55 L 165.05 92.19 C 164.39 92.75 164.31 93.74 164.87 94.39 C 165.43 95.05 166.41 95.13 167.07 94.57 L 167.82 93.93 C 168.48 93.37 168.56 92.38 168.00 91.73 C 167.44 91.07 166.46 90.99 165.80 91.55 Z M 165.09 92.16 L 164.31 92.77 C 163.64 93.31 163.53 94.29 164.07 94.97 C 164.60 95.64 165.59 95.75 166.26 95.22 L 167.03 94.60 C 167.71 94.06 167.82 93.08 167.28 92.41 C 166.74 91.73 165.76 91.62 165.09 92.16 Z M 164.36 92.74 L 163.56 93.33 C 162.86 93.85 162.72 94.82 163.23 95.52 C 163.74 96.21 164.72 96.36 165.42 95.84 L 166.22 95.25 C 166.91 94.74 167.06 93.76 166.54 93.07 C 166.03 92.37 165.05 92.23 164.36 92.74 Z M 163.61 93.30 L 162.77 93.87 C 162.06 94.35 161.88 95.32 162.36 96.04 C 162.85 96.75 163.82 96.93 164.53 96.45 L 165.37 95.88 C 166.08 95.39 166.26 94.42 165.78 93.71 C 165.29 93.00 164.32 92.81 163.61 93.30 Z M 162.82 93.83 L 161.98 94.36 C 161.25 94.82 161.03 95.78 161.49 96.51 C 161.95 97.24 162.91 97.46 163.64 97.01 L 164.48 96.48 C 165.21 96.02 165.43 95.06 164.98 94.33 C 164.52 93.60 163.56 93.38 162.82 93.83 Z M 162.03 94.33 L 161.20 94.81 C 160.45 95.24 160.19 96.19 160.62 96.94 C 161.05 97.69 162.01 97.95 162.75 97.52 L 163.59 97.04 C 164.34 96.61 164.60 95.65 164.17 94.90 C 163.74 94.16 162.78 93.90 162.03 94.33 Z M 161.24 94.79 L 160.37 95.25 C 159.60 95.66 159.32 96.60 159.72 97.36 C 160.13 98.13 161.07 98.41 161.83 98.01 L 162.71 97.54 C 163.47 97.14 163.76 96.19 163.35 95.43 C 162.95 94.67 162.00 94.38 161.24 94.79 Z M 160.40 95.23 L 159.49 95.69 C 158.71 96.08 158.40 97.01 158.79 97.78 C 159.17 98.56 160.11 98.87 160.88 98.48 L 161.80 98.03 C 162.57 97.64 162.88 96.70 162.50 95.93 C 162.11 95.16 161.17 94.85 160.40 95.23 Z M 159.52 95.68 L 158.60 96.11 C 157.83 96.47 157.49 97.40 157.86 98.18 C 158.23 98.96 159.16 99.30 159.94 98.93 L 160.85 98.50 C 161.63 98.13 161.96 97.20 161.59 96.42 C 161.23 95.64 160.30 95.31 159.52 95.68 Z M 158.62 96.10 L 157.77 96.48 C 156.99 96.84 156.64 97.77 157.00 98.55 C 157.36 99.34 158.28 99.68 159.07 99.33 L 159.92 98.94 C 160.70 98.58 161.05 97.66 160.69 96.87 C 160.34 96.09 159.41 95.74 158.62 96.10 Z M 157.78 96.48 L 156.89 96.88 C 156.11 97.23 155.76 98.16 156.11 98.94 C 156.46 99.73 157.39 100.08 158.17 99.73 L 159.06 99.33 C 159.85 98.98 160.20 98.05 159.84 97.27 C 159.49 96.48 158.57 96.13 157.78 96.48 Z M 156.89 96.88 L 155.97 97.30 C 155.18 97.65 154.83 98.58 155.19 99.36 C 155.54 100.15 156.47 100.50 157.25 100.14 L 158.18 99.73 C 158.96 99.37 159.31 98.45 158.96 97.66 C 158.60 96.88 157.68 96.53 156.89 96.88 Z M 155.95 97.30 L 154.99 97.75 C 154.21 98.11 153.87 99.04 154.23 99.82 C 154.59 100.60 155.52 100.94 156.30 100.58 L 157.26 100.14 C 158.05 99.78 158.39 98.85 158.03 98.07 C 157.67 97.28 156.74 96.94 155.95 97.30 Z M 154.97 97.76 L 154.04 98.20 C 153.26 98.57 152.93 99.51 153.31 100.28 C 153.68 101.06 154.61 101.39 155.39 101.02 L 156.32 100.57 C 157.10 100.20 157.43 99.27 157.06 98.49 C 156.68 97.71 155.75 97.39 154.97 97.76 Z M 154.02 98.21 L 153.13 98.65 C 152.36 99.03 152.04 99.97 152.42 100.74 C 152.80 101.51 153.74 101.83 154.51 101.45 L 155.40 101.01 C 156.18 100.63 156.50 99.69 156.11 98.92 C 155.73 98.15 154.80 97.83 154.02 98.21 Z M 153.12 98.66 L 152.22 99.11 C 151.45 99.50 151.14 100.44 151.53 101.21 C 151.91 101.98 152.85 102.29 153.62 101.90 L 154.53 101.44 C 155.30 101.06 155.61 100.12 155.22 99.35 C 154.83 98.58 153.89 98.27 153.12 98.66 Z M 152.21 99.12 L 151.30 99.58 C 150.53 99.98 150.23 100.92 150.63 101.69 C 151.02 102.45 151.96 102.75 152.73 102.36 L 153.63 101.90 C 154.40 101.50 154.70 100.56 154.31 99.79 C 153.91 99.03 152.97 98.72 152.21 99.12 Z M 151.29 99.59 L 150.40 100.05 C 149.63 100.45 149.34 101.40 149.74 102.16 C 150.13 102.92 151.08 103.22 151.84 102.82 L 152.74 102.36 C 153.50 101.96 153.80 101.02 153.40 100.25 C 153.00 99.49 152.06 99.19 151.29 99.59 Z M 150.39 100.06 L 149.52 100.51 C 148.76 100.92 148.47 101.86 148.87 102.62 C 149.27 103.39 150.21 103.68 150.97 103.28 L 151.85 102.82 C 152.61 102.42 152.90 101.47 152.50 100.71 C 152.10 99.95 151.16 99.66 150.39 100.06 Z M 149.52 100.52 L 148.60 101.00 C 147.84 101.40 147.55 102.35 147.95 103.11 C 148.35 103.87 149.30 104.16 150.06 103.76 L 150.98 103.28 C 151.74 102.87 152.03 101.93 151.63 101.17 C 151.23 100.41 150.28 100.11 149.52 100.52 Z M 148.60 101.00 L 147.71 101.47 C 146.95 101.87 146.65 102.82 147.05 103.58 C 147.45 104.34 148.40 104.64 149.16 104.23 L 150.06 103.76 C 150.82 103.36 151.11 102.42 150.71 101.66 C 150.31 100.89 149.37 100.60 148.60 101.00 Z M 147.72 101.47 L 146.84 101.92 C 146.07 102.32 145.77 103.26 146.17 104.02 C 146.57 104.79 147.51 105.09 148.27 104.69 L 149.15 104.24 C 149.92 103.84 150.22 102.90 149.82 102.14 C 149.43 101.37 148.48 101.07 147.72 101.47 Z M 146.86 101.91 L 145.98 102.35 C 145.21 102.74 144.90 103.68 145.29 104.45 C 145.67 105.22 146.61 105.53 147.38 105.14 L 148.26 104.70 C 149.03 104.31 149.34 103.38 148.95 102.61 C 148.57 101.84 147.63 101.52 146.86 101.91 Z M 146.00 102.34 L 145.12 102.77 C 144.34 103.14 144.02 104.07 144.39 104.85 C 144.77 105.63 145.70 105.95 146.48 105.58 L 147.36 105.15 C 148.14 104.78 148.46 103.84 148.09 103.07 C 147.71 102.29 146.78 101.96 146.00 102.34 Z M 145.15 102.75 L 144.26 103.16 C 143.47 103.52 143.13 104.45 143.49 105.23 C 143.85 106.01 144.77 106.36 145.56 106.00 L 146.45 105.59 C 147.23 105.23 147.58 104.31 147.22 103.52 C 146.86 102.74 145.93 102.39 145.15 102.75 Z M 144.29 103.15 L 143.38 103.54 C 142.59 103.89 142.23 104.81 142.57 105.60 C 142.91 106.39 143.83 106.75 144.62 106.41 L 145.53 106.01 C 146.32 105.67 146.68 104.75 146.34 103.96 C 146.00 103.17 145.08 102.80 144.29 103.15 Z M 143.40 103.53 L 142.48 103.91 C 141.68 104.24 141.30 105.16 141.63 105.95 C 141.96 106.75 142.88 107.13 143.67 106.80 L 144.60 106.42 C 145.39 106.09 145.77 105.17 145.44 104.38 C 145.11 103.58 144.20 103.20 143.40 103.53 Z M 142.50 103.90 L 141.56 104.27 C 140.76 104.59 140.37 105.50 140.68 106.30 C 141.00 107.10 141.91 107.50 142.71 107.18 L 143.65 106.81 C 144.45 106.49 144.84 105.59 144.53 104.79 C 144.21 103.98 143.31 103.59 142.50 103.90 Z M 141.59 104.27 L 140.64 104.62 C 139.83 104.92 139.42 105.82 139.72 106.63 C 140.03 107.44 140.93 107.85 141.73 107.54 L 142.68 107.19 C 143.49 106.89 143.90 105.99 143.60 105.18 C 143.30 104.37 142.40 103.96 141.59 104.27 Z M 140.66 104.61 L 139.71 104.95 C 138.90 105.24 138.48 106.13 138.77 106.95 C 139.06 107.76 139.95 108.18 140.76 107.89 L 141.71 107.55 C 142.52 107.26 142.95 106.37 142.66 105.56 C 142.37 104.75 141.47 104.32 140.66 104.61 Z M 139.74 104.94 L 138.79 105.26 C 137.97 105.54 137.53 106.42 137.81 107.24 C 138.09 108.06 138.97 108.50 139.79 108.22 L 140.74 107.90 C 141.55 107.62 141.99 106.74 141.72 105.92 C 141.44 105.11 140.56 104.67 139.74 104.94 Z M 138.82 105.25 L 137.87 105.55 C 137.04 105.81 136.59 106.69 136.85 107.51 C 137.10 108.33 137.98 108.79 138.80 108.53 L 139.76 108.23 C 140.58 107.97 141.04 107.09 140.78 106.27 C 140.52 105.45 139.64 104.99 138.82 105.25 Z M 137.90 105.54 L 136.94 105.82 C 136.11 106.06 135.63 106.93 135.88 107.76 C 136.12 108.58 136.98 109.06 137.81 108.82 L 138.77 108.54 C 139.60 108.30 140.07 107.43 139.83 106.61 C 139.59 105.78 138.73 105.30 137.90 105.54 Z M 136.98 105.81 L 136.01 106.07 C 135.18 106.29 134.68 107.14 134.90 107.97 C 135.12 108.81 135.97 109.31 136.81 109.08 L 137.77 108.83 C 138.61 108.61 139.10 107.76 138.88 106.92 C 138.66 106.09 137.81 105.59 136.98 105.81 Z M 136.05 106.06 L 135.07 106.29 C 134.23 106.48 133.71 107.32 133.91 108.16 C 134.11 109.00 134.95 109.52 135.78 109.33 L 136.77 109.10 C 137.61 108.90 138.13 108.06 137.93 107.22 C 137.73 106.38 136.89 105.86 136.05 106.06 Z M 135.11 106.28 L 134.11 106.48 C 133.27 106.65 132.73 107.48 132.90 108.32 C 133.07 109.17 133.90 109.71 134.74 109.54 L 135.74 109.34 C 136.59 109.16 137.13 108.34 136.96 107.49 C 136.78 106.65 135.96 106.10 135.11 106.28 Z M 134.15 106.47 L 133.16 106.65 C 132.31 106.80 131.74 107.61 131.89 108.46 C 132.05 109.31 132.86 109.88 133.70 109.73 L 134.70 109.55 C 135.55 109.40 136.12 108.59 135.97 107.74 C 135.81 106.89 135.00 106.32 134.15 106.47 Z M 133.19 106.65 L 132.20 106.80 C 131.35 106.93 130.77 107.73 130.90 108.58 C 131.03 109.43 131.83 110.02 132.68 109.88 L 133.67 109.73 C 134.52 109.60 135.11 108.80 134.97 107.95 C 134.84 107.10 134.04 106.51 133.19 106.65 Z M 132.24 106.79 L 131.26 106.92 C 130.41 107.04 129.81 107.82 129.92 108.68 C 130.04 109.53 130.82 110.13 131.67 110.02 L 132.65 109.89 C 133.50 109.77 134.10 108.99 133.99 108.14 C 133.88 107.28 133.09 106.68 132.24 106.79 Z M 131.29 106.92 L 130.33 107.03 C 129.47 107.13 128.85 107.90 128.95 108.76 C 129.05 109.61 129.82 110.23 130.68 110.13 L 131.65 110.02 C 132.50 109.92 133.12 109.15 133.02 108.29 C 132.92 107.44 132.15 106.82 131.29 106.92 Z M 130.35 107.03 L 129.38 107.12 C 128.52 107.20 127.89 107.96 127.97 108.82 C 128.05 109.68 128.81 110.31 129.67 110.23 L 130.65 110.13 C 131.51 110.05 132.14 109.29 132.06 108.43 C 131.97 107.57 131.21 106.94 130.35 107.03 Z M 129.41 107.12 L 128.43 107.19 C 127.57 107.26 126.93 108.01 126.99 108.87 C 127.06 109.73 127.81 110.37 128.67 110.30 L 129.64 110.23 C 130.50 110.16 131.15 109.41 131.08 108.55 C 131.02 107.70 130.27 107.05 129.41 107.12 Z M 128.46 107.19 L 127.47 107.25 C 126.61 107.30 125.95 108.04 126.00 108.90 C 126.05 109.76 126.79 110.41 127.65 110.36 L 128.64 110.31 C 129.50 110.26 130.16 109.52 130.11 108.66 C 130.06 107.80 129.32 107.14 128.46 107.19 Z M 127.50 107.25 L 126.48 107.29 C 125.62 107.32 124.95 108.05 124.98 108.91 C 125.02 109.78 125.75 110.44 126.61 110.41 L 127.63 110.37 C 128.49 110.33 129.16 109.60 129.12 108.74 C 129.09 107.88 128.36 107.21 127.50 107.25 Z M 126.50 107.29 L 125.42 107.32 C 124.56 107.34 123.88 108.06 123.91 108.92 C 123.93 109.78 124.65 110.46 125.51 110.44 L 126.59 110.41 C 127.45 110.39 128.13 109.67 128.10 108.81 C 128.08 107.94 127.36 107.26 126.50 107.29 Z M 125.44 107.32 L 124.32 107.33 C 123.46 107.34 122.77 108.05 122.78 108.91 C 122.79 109.78 123.50 110.47 124.36 110.45 L 125.49 110.44 C 126.35 110.43 127.04 109.72 127.03 108.86 C 127.02 108.00 126.31 107.31 125.44 107.32 Z M 124.35 107.33 L 123.26 107.33 C 122.39 107.32 121.69 108.02 121.69 108.88 C 121.68 109.74 122.38 110.44 123.24 110.45 L 124.33 110.45 C 125.20 110.46 125.90 109.76 125.90 108.90 C 125.91 108.04 125.21 107.34 124.35 107.33 Z M 123.30 107.33 L 122.30 107.29 C 121.44 107.27 120.72 107.94 120.69 108.80 C 120.66 109.67 121.34 110.39 122.20 110.42 L 123.20 110.45 C 124.06 110.48 124.78 109.80 124.81 108.94 C 124.84 108.08 124.16 107.36 123.30 107.33 Z M 122.37 107.30 L 121.54 107.23 C 120.68 107.16 119.92 107.81 119.86 108.67 C 119.79 109.53 120.43 110.28 121.29 110.34 L 122.13 110.41 C 122.99 110.48 123.74 109.84 123.81 108.98 C 123.87 108.12 123.23 107.37 122.37 107.30 Z M 121.81 107.28 L 120.70 106.98 C 119.87 106.76 119.01 107.26 118.79 108.09 C 118.57 108.93 119.07 109.78 119.90 110.00 L 121.01 110.30 C 121.85 110.52 122.70 110.02 122.92 109.19 C 123.14 108.36 122.65 107.50 121.81 107.28 Z M 121.58 107.60 L 121.22 107.08 C 120.73 106.37 119.76 106.20 119.05 106.69 C 118.34 107.18 118.16 108.15 118.66 108.86 L 119.02 109.38 C 119.51 110.09 120.48 110.27 121.19 109.78 C 121.90 109.28 122.08 108.31 121.58 107.60 Z"
      fill="black"
      fill-rule="nonzero" /><path d="M 108.31 161.17 L 109.37 161.17 C 110.23 161.17 110.93 160.48 110.93 159.61 C 110.93 158.75 110.23 158.05 109.37 158.05 L 108.31 158.05 C 107.45 158.05 106.75 158.75 106.75 159.61 C 106.75 160.48 107.45 161.17 108.31 161.17 Z M 109.37 161.17 L 110.41 161.17 C 111.27 161.17 111.97 160.48 111.97 159.61 C 111.97 158.75 111.27 158.05 110.41 158.05 L 109.37 158.05 C 108.50 158.05 107.81 158.75 107.81 159.61 C 107.81 160.48 108.50 161.17 109.37 161.17 Z M 110.41 161.17 L 111.43 161.17 C 112.29 161.17 112.99 160.48 112.99 159.61 C 112.99 158.75 112.29 158.05 111.43 158.05 L 110.41 158.05 C 109.55 158.05 108.85 158.75 108.85 159.61 C 108.85 160.48 109.55 161.17 110.41 161.17 Z M 111.43 161.17 L 112.42 161.17 C 113.28 161.17 113.98 160.48 113.98 159.61 C 113.98 158.75 113.28 158.05 112.42 158.05 L 111.43 158.05 C 110.57 158.05 109.87 158.75 109.87 159.61 C 109.87 160.48 110.57 161.17 111.43 161.17 Z M 112.42 161.17 L 113.37 161.17 C 114.23 161.17 114.93 160.48 114.93 159.61 C 114.93 158.75 114.23 158.05 113.37 158.05 L 112.42 158.05 C 111.56 158.05 110.86 158.75 110.86 159.61 C 110.86 160.48 111.56 161.17 112.42 161.17 Z M 113.37 161.17 L 114.34 161.17 C 115.20 161.17 115.90 160.48 115.90 159.61 C 115.90 158.75 115.20 158.05 114.34 158.05 L 113.37 158.05 C 112.51 158.05 111.81 158.75 111.81 159.61 C 111.81 160.48 112.51 161.17 113.37 161.17 Z M 114.34 161.17 L 115.35 161.17 C 116.21 161.17 116.91 160.48 116.91 159.61 C 116.91 158.75 116.21 158.05 115.35 158.05 L 114.34 158.05 C 113.47 158.05 112.78 158.75 112.78 159.61 C 112.78 160.48 113.47 161.17 114.34 161.17 Z M 115.35 161.17 L 116.33 161.17 C 117.19 161.17 117.89 160.48 117.89 159.61 C 117.89 158.75 117.19 158.05 116.33 158.05 L 115.35 158.05 C 114.49 158.05 113.79 158.75 113.79 159.61 C 113.79 160.48 114.49 161.17 115.35 161.17 Z M 116.33 161.17 L 117.30 161.17 C 118.17 161.17 118.86 160.48 118.86 159.61 C 118.86 158.75 118.17 158.05 117.30 158.05 L 116.33 158.05 C 115.47 158.05 114.77 158.75 114.77 159.61 C 114.77 160.48 115.47 161.17 116.33 161.17 Z M 117.30 161.17 L 118.30 161.17 C 119.17 161.17 119.86 160.48 119.86 159.61 C 119.86 158.75 119.17 158.05 118.30 158.05 L 117.30 158.05 C 116.44 158.05 115.74 158.75 115.74 159.61 C 115.74 160.48 116.44 161.17 117.30 161.17 Z M 118.30 161.17 L 119.30 161.17 C 120.16 161.17 120.86 160.48 120.86 159.61 C 120.86 158.75 120.16 158.05 119.30 158.05 L 118.30 158.05 C 117.44 158.05 116.74 158.75 116.74 159.61 C 116.74 160.48 117.44 161.17 118.30 161.17 Z M 119.30 161.17 L 120.31 161.17 C 121.18 161.17 121.88 160.48 121.88 159.61 C 121.88 158.75 121.18 158.05 120.31 158.05 L 119.30 158.05 C 118.44 158.05 117.74 158.75 117.74 159.61 C 117.74 160.48 118.44 161.17 119.30 161.17 Z M 120.31 161.17 L 121.34 161.17 C 122.21 161.17 122.90 160.48 122.90 159.61 C 122.90 158.75 122.21 158.05 121.34 158.05 L 120.31 158.05 C 119.45 158.05 118.75 158.75 118.75 159.61 C 118.75 160.48 119.45 161.17 120.31 161.17 Z M 121.34 161.17 L 122.36 161.17 C 123.22 161.17 123.92 160.48 123.92 159.61 C 123.92 158.75 123.22 158.05 122.36 158.05 L 121.34 158.05 C 120.48 158.05 119.78 158.75 119.78 159.61 C 119.78 160.48 120.48 161.17 121.34 161.17 Z M 122.36 161.17 L 123.34 161.17 C 124.20 161.17 124.90 160.48 124.90 159.61 C 124.90 158.75 124.20 158.05 123.34 158.05 L 122.36 158.05 C 121.50 158.05 120.80 158.75 120.80 159.61 C 120.80 160.48 121.50 161.17 122.36 161.17 Z M 123.34 161.17 L 124.39 161.17 C 125.25 161.17 125.95 160.48 125.95 159.61 C 125.95 158.75 125.25 158.05 124.39 158.05 L 123.34 158.05 C 122.48 158.05 121.78 158.75 121.78 159.61 C 121.78 160.48 122.48 161.17 123.34 161.17 Z M 124.39 161.17 L 125.44 161.17 C 126.30 161.17 127.00 160.48 127.00 159.61 C 127.00 158.75 126.30 158.05 125.44 158.05 L 124.39 158.05 C 123.53 158.05 122.83 158.75 122.83 159.61 C 122.83 160.48 123.53 161.17 124.39 161.17 Z M 125.44 161.17 L 126.42 161.17 C 127.28 161.17 127.98 160.48 127.98 159.61 C 127.98 158.75 127.28 158.05 126.42 158.05 L 125.44 158.05 C 124.58 158.05 123.88 158.75 123.88 159.61 C 123.88 160.48 124.58 161.17 125.44 161.17 Z M 126.42 161.17 L 127.35 161.17 C 128.21 161.17 128.91 160.48 128.91 159.61 C 128.91 158.75 128.21 158.05 127.35 158.05 L 126.42 158.05 C 125.56 158.05 124.86 158.75 124.86 159.61 C 124.86 160.48 125.56 161.17 126.42 161.17 Z M 127.35 161.17 L 128.32 161.17 C 129.18 161.17 129.88 160.48 129.88 159.61 C 129.88 158.75 129.18 158.05 128.32 158.05 L 127.35 158.05 C 126.49 158.05 125.79 158.75 125.79 159.61 C 125.79 160.48 126.49 161.17 127.35 161.17 Z M 128.32 161.17 L 129.32 161.17 C 130.18 161.17 130.88 160.48 130.88 159.61 C 130.88 158.75 130.18 158.05 129.32 158.05 L 128.32 158.05 C 127.45 158.05 126.75 158.75 126.75 159.61 C 126.75 160.48 127.45 161.17 128.32 161.17 Z M 129.32 161.17 L 130.32 161.17 C 131.18 161.17 131.88 160.48 131.88 159.61 C 131.88 158.75 131.18 158.05 130.32 158.05 L 129.32 158.05 C 128.45 158.05 127.76 158.75 127.76 159.61 C 127.76 160.48 128.45 161.17 129.32 161.17 Z M 130.32 161.17 L 131.32 161.17 C 132.18 161.17 132.88 160.48 132.88 159.61 C 132.88 158.75 132.18 158.05 131.32 158.05 L 130.32 158.05 C 129.45 158.05 128.76 158.75 128.76 159.61 C 128.76 160.48 129.45 161.17 130.32 161.17 Z M 131.32 161.17 L 132.32 161.17 C 133.18 161.17 133.88 160.48 133.88 159.61 C 133.88 158.75 133.18 158.05 132.32 158.05 L 131.32 158.05 C 130.45 158.05 129.75 158.75 129.75 159.61 C 129.75 160.48 130.45 161.17 131.32 161.17 Z M 132.32 161.17 L 133.31 161.17 C 134.18 161.17 134.88 160.48 134.88 159.61 C 134.88 158.75 134.18 158.05 133.31 158.05 L 132.32 158.05 C 131.45 158.05 130.75 158.75 130.75 159.61 C 130.75 160.48 131.45 161.17 132.32 161.17 Z M 133.31 161.17 L 134.31 161.17 C 135.18 161.17 135.88 160.48 135.88 159.61 C 135.88 158.75 135.18 158.05 134.31 158.05 L 133.31 158.05 C 132.45 158.05 131.75 158.75 131.75 159.61 C 131.75 160.48 132.45 161.17 133.31 161.17 Z M 134.31 161.17 L 135.32 161.17 C 136.18 161.17 136.88 160.48 136.88 159.61 C 136.88 158.75 136.18 158.05 135.32 158.05 L 134.31 158.05 C 133.45 158.05 132.75 158.75 132.75 159.61 C 132.75 160.48 133.45 161.17 134.31 161.17 Z M 135.32 161.17 L 136.32 161.17 C 137.18 161.17 137.88 160.48 137.88 159.61 C 137.88 158.75 137.18 158.05 136.32 158.05 L 135.32 158.05 C 134.45 158.05 133.75 158.75 133.75 159.61 C 133.75 160.48 134.45 161.17 135.32 161.17 Z M 136.32 161.17 L 137.32 161.17 C 138.18 161.17 138.88 160.48 138.88 159.61 C 138.88 158.75 138.18 158.05 137.32 158.05 L 136.32 158.05 C 135.46 158.05 134.76 158.75 134.76 159.61 C 134.76 160.48 135.46 161.17 136.32 161.17 Z M 137.32 161.17 L 138.32 161.17 C 139.18 161.17 139.88 160.48 139.88 159.61 C 139.88 158.75 139.18 158.05 138.32 158.05 L 137.32 158.05 C 136.46 158.05 135.76 158.75 135.76 159.61 C 135.76 160.48 136.46 161.17 137.32 161.17 Z M 138.32 161.17 L 139.27 161.17 C 140.13 161.17 140.83 160.48 140.83 159.61 C 140.83 158.75 140.13 158.05 139.27 158.05 L 138.32 158.05 C 137.46 158.05 136.76 158.75 136.76 159.61 C 136.76 160.48 137.46 161.17 138.32 161.17 Z M 139.27 161.17 L 140.18 161.17 C 141.04 161.17 141.74 160.46 141.73 159.60 C 141.73 158.74 141.03 158.04 140.16 158.05 L 139.26 158.05 C 138.40 158.06 137.70 158.76 137.70 159.62 C 137.71 160.48 138.41 161.18 139.27 161.17 Z M 140.20 161.17 L 141.17 161.15 C 142.03 161.13 142.71 160.42 142.70 159.56 C 142.68 158.70 141.97 158.01 141.10 158.03 L 140.14 158.05 C 139.28 158.06 138.59 158.78 138.61 159.64 C 138.63 160.50 139.34 161.19 140.20 161.17 Z M 141.20 161.15 L 142.26 161.11 C 143.12 161.07 143.79 160.35 143.76 159.48 C 143.72 158.62 143.00 157.95 142.14 157.99 L 141.07 158.03 C 140.21 158.06 139.54 158.79 139.58 159.65 C 139.61 160.51 140.34 161.18 141.20 161.15 Z M 142.30 161.10 L 143.39 161.04 C 144.25 160.98 144.90 160.24 144.85 159.38 C 144.79 158.52 144.05 157.87 143.19 157.92 L 142.10 157.99 C 141.24 158.04 140.59 158.78 140.64 159.64 C 140.69 160.50 141.44 161.16 142.30 161.10 Z M 143.41 161.04 L 144.40 160.96 C 145.26 160.89 145.90 160.14 145.84 159.28 C 145.77 158.42 145.02 157.78 144.16 157.85 L 143.17 157.92 C 142.31 157.99 141.67 158.74 141.73 159.60 C 141.80 160.46 142.55 161.10 143.41 161.04 Z M 144.42 160.96 L 145.45 160.86 C 146.31 160.79 146.95 160.03 146.87 159.17 C 146.79 158.31 146.04 157.68 145.18 157.75 L 144.14 157.85 C 143.28 157.92 142.65 158.68 142.73 159.54 C 142.80 160.40 143.56 161.03 144.42 160.96 Z M 145.47 160.86 L 146.51 160.76 C 147.37 160.68 147.99 159.92 147.91 159.06 C 147.83 158.20 147.06 157.57 146.21 157.65 L 145.17 157.76 C 144.31 157.84 143.68 158.60 143.76 159.46 C 143.85 160.32 144.61 160.95 145.47 160.86 Z M 146.52 160.76 L 147.52 160.66 C 148.38 160.57 149.01 159.80 148.92 158.94 C 148.83 158.09 148.06 157.46 147.20 157.55 L 146.20 157.66 C 145.34 157.74 144.72 158.51 144.80 159.37 C 144.89 160.23 145.66 160.85 146.52 160.76 Z M 147.53 160.66 L 148.47 160.55 C 149.32 160.46 149.94 159.69 149.85 158.83 C 149.76 157.98 148.99 157.36 148.13 157.45 L 147.19 157.55 C 146.34 157.65 145.72 158.42 145.81 159.27 C 145.91 160.13 146.68 160.75 147.53 160.66 Z M 148.48 160.55 L 149.64 160.42 C 150.50 160.32 151.11 159.55 151.01 158.69 C 150.92 157.83 150.14 157.22 149.29 157.32 L 148.12 157.45 C 147.26 157.55 146.65 158.32 146.75 159.18 C 146.85 160.04 147.62 160.65 148.48 160.55 Z M 149.65 160.42 L 150.67 160.29 C 151.52 160.19 152.13 159.41 152.03 158.56 C 151.92 157.70 151.14 157.09 150.29 157.20 L 149.28 157.32 C 148.42 157.42 147.81 158.20 147.91 159.06 C 148.02 159.91 148.80 160.52 149.65 160.42 Z M 150.67 160.29 L 151.57 160.18 C 152.43 160.07 153.03 159.29 152.92 158.44 C 152.81 157.58 152.03 156.97 151.18 157.08 L 150.28 157.20 C 149.43 157.30 148.82 158.09 148.93 158.94 C 149.04 159.80 149.82 160.40 150.67 160.29 Z M 151.57 160.18 L 152.45 160.07 C 153.31 159.96 153.91 159.18 153.80 158.32 C 153.70 157.47 152.91 156.86 152.06 156.97 L 151.18 157.08 C 150.32 157.19 149.72 157.97 149.83 158.83 C 149.93 159.68 150.72 160.29 151.57 160.18 Z M 152.44 160.07 L 153.43 159.95 C 154.28 159.85 154.89 159.07 154.79 158.21 C 154.68 157.36 153.91 156.75 153.05 156.85 L 152.07 156.97 C 151.21 157.07 150.60 157.85 150.71 158.71 C 150.81 159.56 151.59 160.17 152.44 160.07 Z M 153.41 159.95 L 154.40 159.84 C 155.26 159.75 155.88 158.98 155.79 158.12 C 155.69 157.27 154.92 156.65 154.07 156.74 L 153.07 156.85 C 152.21 156.94 151.59 157.71 151.69 158.57 C 151.78 159.43 152.55 160.05 153.41 159.95 Z M 154.37 159.85 L 155.38 159.76 C 156.24 159.68 156.87 158.92 156.80 158.06 C 156.72 157.20 155.96 156.57 155.10 156.65 L 154.10 156.74 C 153.24 156.81 152.60 157.57 152.68 158.43 C 152.76 159.29 153.51 159.92 154.37 159.85 Z M 155.34 159.76 L 156.32 159.69 C 157.18 159.64 157.83 158.89 157.78 158.03 C 157.72 157.17 156.98 156.52 156.12 156.58 L 155.14 156.64 C 154.28 156.70 153.63 157.45 153.68 158.31 C 153.74 159.17 154.48 159.82 155.34 159.76 Z M 156.30 159.70 L 157.29 159.65 C 158.15 159.60 158.82 158.87 158.77 158.01 C 158.73 157.15 158.00 156.48 157.14 156.53 L 156.14 156.58 C 155.28 156.62 154.62 157.35 154.66 158.22 C 154.70 159.08 155.44 159.74 156.30 159.70 Z M 157.28 159.65 L 158.29 159.60 C 159.16 159.57 159.83 158.84 159.79 157.98 C 159.75 157.12 159.02 156.45 158.16 156.48 L 157.15 156.53 C 156.29 156.56 155.62 157.29 155.66 158.15 C 155.69 159.01 156.42 159.68 157.28 159.65 Z M 158.29 159.60 L 159.28 159.56 C 160.15 159.53 160.81 158.80 160.78 157.94 C 160.74 157.08 160.02 156.41 159.16 156.44 L 158.17 156.48 C 157.30 156.52 156.63 157.25 156.67 158.11 C 156.70 158.97 157.43 159.64 158.29 159.60 Z M 159.28 159.56 L 160.28 159.52 C 161.14 159.49 161.81 158.76 161.77 157.90 C 161.73 157.04 161.01 156.37 160.15 156.40 L 159.16 156.44 C 158.29 156.48 157.62 157.21 157.66 158.07 C 157.70 158.93 158.42 159.60 159.28 159.56 Z M 160.27 159.52 L 161.28 159.48 C 162.14 159.45 162.81 158.72 162.78 157.86 C 162.74 157.00 162.02 156.33 161.15 156.36 L 160.15 156.40 C 159.29 156.44 158.62 157.16 158.65 158.03 C 158.69 158.89 159.41 159.56 160.27 159.52 Z M 161.28 159.48 L 162.29 159.44 C 163.15 159.41 163.83 158.68 163.79 157.82 C 163.76 156.96 163.03 156.29 162.17 156.32 L 161.16 156.36 C 160.29 156.39 159.62 157.12 159.66 157.98 C 159.69 158.84 160.42 159.51 161.28 159.48 Z M 162.29 159.44 L 163.28 159.41 C 164.14 159.37 164.81 158.65 164.78 157.79 C 164.75 156.93 164.02 156.25 163.16 156.29 L 162.17 156.32 C 161.31 156.35 160.64 157.08 160.67 157.94 C 160.70 158.80 161.43 159.47 162.29 159.44 Z M 163.27 159.41 L 164.27 159.37 C 165.13 159.35 165.81 158.63 165.78 157.76 C 165.75 156.90 165.03 156.23 164.17 156.25 L 163.17 156.29 C 162.31 156.31 161.63 157.03 161.66 157.90 C 161.69 158.76 162.41 159.43 163.27 159.41 Z M 164.26 159.37 L 165.26 159.35 C 166.13 159.33 166.81 158.61 166.79 157.75 C 166.76 156.89 166.05 156.21 165.19 156.23 L 164.18 156.25 C 163.32 156.27 162.64 156.99 162.66 157.85 C 162.68 158.72 163.40 159.40 164.26 159.37 Z M 165.25 159.35 L 166.26 159.33 C 167.12 159.32 167.81 158.60 167.79 157.74 C 167.78 156.88 167.07 156.19 166.21 156.21 L 165.20 156.23 C 164.34 156.24 163.65 156.95 163.66 157.82 C 163.68 158.68 164.39 159.36 165.25 159.35 Z M 166.25 159.33 L 167.25 159.32 C 168.12 159.31 168.81 158.61 168.80 157.75 C 168.79 156.88 168.09 156.19 167.22 156.20 L 166.22 156.21 C 165.36 156.22 164.66 156.92 164.67 157.79 C 164.68 158.65 165.39 159.34 166.25 159.33 Z M 167.25 159.32 L 168.25 159.32 C 169.11 159.31 169.81 158.61 169.80 157.75 C 169.80 156.89 169.10 156.19 168.24 156.20 L 167.23 156.20 C 166.37 156.20 165.67 156.90 165.68 157.77 C 165.68 158.63 166.38 159.33 167.25 159.32 Z M 168.24 159.32 L 169.24 159.32 C 170.10 159.32 170.80 158.62 170.80 157.75 C 170.80 156.89 170.10 156.19 169.24 156.19 L 168.24 156.20 C 167.38 156.20 166.68 156.90 166.68 157.76 C 166.68 158.62 167.38 159.32 168.24 159.32 Z M 169.24 159.32 L 170.25 159.32 C 171.11 159.32 171.81 158.62 171.81 157.76 C 171.81 156.89 171.11 156.19 170.25 156.19 L 169.24 156.19 C 168.38 156.19 167.68 156.89 167.68 157.76 C 167.68 158.62 168.38 159.32 169.24 159.32 Z M 170.25 159.32 L 171.26 159.32 C 172.12 159.32 172.82 158.62 172.82 157.76 C 172.82 156.89 172.12 156.19 171.26 156.19 L 170.25 156.19 C 169.39 156.19 168.69 156.89 168.69 157.76 C 168.69 158.62 169.39 159.32 170.25 159.32 Z M 171.26 159.32 L 172.25 159.32 C 173.11 159.32 173.81 158.62 173.81 157.76 C 173.81 156.89 173.11 156.19 172.25 156.19 L 171.26 156.19 C 170.39 156.19 169.69 156.89 169.69 157.76 C 169.69 158.62 170.39 159.32 171.26 159.32 Z M 172.25 159.32 L 173.23 159.32 C 174.09 159.32 174.79 158.62 174.79 157.76 C 174.79 156.89 174.09 156.19 173.23 156.19 L 172.25 156.19 C 171.39 156.19 170.69 156.89 170.69 157.76 C 170.69 158.62 171.39 159.32 172.25 159.32 Z M 173.23 159.32 L 174.16 159.32 C 175.03 159.32 175.73 158.62 175.73 157.76 C 175.73 156.89 175.03 156.19 174.16 156.19 L 173.23 156.19 C 172.37 156.19 171.67 156.89 171.67 157.76 C 171.67 158.62 172.37 159.32 173.23 159.32 Z M 174.16 159.32 L 175.13 159.32 C 175.99 159.32 176.69 158.62 176.69 157.76 C 176.69 156.89 175.99 156.19 175.13 156.19 L 174.16 156.19 C 173.30 156.19 172.60 156.89 172.60 157.76 C 172.60 158.62 173.30 159.32 174.16 159.32 Z M 175.13 159.32 L 176.16 159.32 C 177.02 159.32 177.72 158.62 177.72 157.76 C 177.72 156.89 177.02 156.19 176.16 156.19 L 175.13 156.19 C 174.27 156.19 173.57 156.89 173.57 157.76 C 173.57 158.62 174.27 159.32 175.13 159.32 Z M 176.16 159.32 L 177.21 159.32 C 178.08 159.32 178.77 158.62 178.77 157.76 C 178.77 156.89 178.08 156.19 177.21 156.19 L 176.16 156.19 C 175.30 156.19 174.60 156.89 174.60 157.76 C 174.60 158.62 175.30 159.32 176.16 159.32 Z M 177.21 159.32 L 178.19 159.32 C 179.05 159.32 179.75 158.62 179.75 157.76 C 179.75 156.90 179.06 156.20 178.19 156.20 L 177.22 156.19 C 176.35 156.19 175.65 156.89 175.65 157.75 C 175.65 158.62 176.35 159.32 177.21 159.32 Z M 178.18 159.32 L 179.20 159.32 C 180.06 159.33 180.76 158.64 180.77 157.77 C 180.78 156.91 180.08 156.21 179.22 156.20 L 178.20 156.20 C 177.34 156.19 176.64 156.88 176.63 157.75 C 176.62 158.61 177.32 159.31 178.18 159.32 Z M 179.18 159.32 L 180.21 159.34 C 181.07 159.35 181.78 158.67 181.80 157.80 C 181.81 156.94 181.12 156.23 180.26 156.22 L 179.23 156.20 C 178.37 156.19 177.66 156.88 177.65 157.74 C 177.63 158.60 178.32 159.31 179.18 159.32 Z M 180.19 159.34 L 181.19 159.37 C 182.06 159.39 182.78 158.72 182.80 157.85 C 182.83 156.99 182.15 156.27 181.29 156.25 L 180.28 156.22 C 179.42 156.19 178.70 156.87 178.67 157.73 C 178.65 158.60 179.33 159.32 180.19 159.34 Z M 181.16 159.37 L 182.19 159.42 C 183.05 159.46 183.78 158.80 183.82 157.94 C 183.87 157.07 183.20 156.34 182.34 156.30 L 181.32 156.25 C 180.46 156.21 179.72 156.87 179.68 157.73 C 179.64 158.59 180.30 159.33 181.16 159.37 Z M 182.16 159.42 L 183.16 159.49 C 184.02 159.54 184.77 158.89 184.83 158.03 C 184.89 157.17 184.24 156.43 183.38 156.37 L 182.37 156.30 C 181.51 156.24 180.76 156.89 180.71 157.75 C 180.65 158.61 181.30 159.36 182.16 159.42 Z M 183.15 159.48 L 184.12 159.56 C 184.98 159.63 185.73 158.99 185.80 158.13 C 185.87 157.27 185.23 156.51 184.37 156.45 L 183.39 156.37 C 182.53 156.30 181.78 156.95 181.71 157.81 C 181.65 158.67 182.29 159.42 183.15 159.48 Z M 184.13 159.56 L 185.10 159.64 C 185.96 159.70 186.71 159.06 186.78 158.20 C 186.84 157.34 186.20 156.59 185.34 156.52 L 184.36 156.45 C 183.51 156.38 182.75 157.03 182.69 157.88 C 182.62 158.74 183.27 159.49 184.13 159.56 Z M 185.12 159.64 L 186.15 159.70 C 187.01 159.76 187.75 159.10 187.80 158.24 C 187.86 157.38 187.21 156.64 186.35 156.59 L 185.32 156.52 C 184.46 156.47 183.72 157.12 183.66 157.98 C 183.61 158.84 184.26 159.58 185.12 159.64 Z M 186.17 159.70 L 187.24 159.75 C 188.10 159.79 188.83 159.13 188.87 158.27 C 188.91 157.40 188.25 156.67 187.39 156.63 L 186.32 156.58 C 185.46 156.54 184.73 157.21 184.69 158.07 C 184.65 158.93 185.31 159.66 186.17 159.70 Z M 187.27 159.75 L 188.31 159.78 C 189.17 159.81 189.89 159.13 189.91 158.27 C 189.94 157.41 189.26 156.69 188.40 156.66 L 187.36 156.63 C 186.50 156.61 185.78 157.29 185.75 158.15 C 185.73 159.01 186.41 159.73 187.27 159.75 Z M 188.34 159.78 L 189.29 159.79 C 190.15 159.80 190.86 159.11 190.87 158.25 C 190.87 157.38 190.18 156.68 189.32 156.67 L 188.37 156.66 C 187.50 156.65 186.80 157.35 186.79 158.21 C 186.78 159.07 187.48 159.78 188.34 159.78 Z M 189.34 159.79 L 190.37 159.77 C 191.24 159.75 191.92 159.04 191.90 158.18 C 191.88 157.31 191.17 156.63 190.31 156.65 L 189.27 156.67 C 188.41 156.69 187.73 157.40 187.74 158.27 C 187.76 159.13 188.48 159.81 189.34 159.79 Z M 190.46 159.77 L 191.48 159.69 C 192.34 159.62 192.99 158.87 192.92 158.01 C 192.86 157.15 192.11 156.51 191.25 156.57 L 190.22 156.65 C 189.36 156.72 188.72 157.47 188.78 158.33 C 188.85 159.19 189.60 159.83 190.46 159.77 Z M 191.56 159.68 L 192.32 159.58 C 193.17 159.48 193.78 158.69 193.67 157.84 C 193.56 156.98 192.78 156.38 191.93 156.49 L 191.17 156.58 C 190.31 156.69 189.71 157.47 189.82 158.33 C 189.92 159.18 190.71 159.79 191.56 159.68 Z"
      fill="black"
      fill-rule="nonzero" /><path d="M 150.84 98.17 L 150.84 99.19 C 150.84 100.05 151.54 100.75 152.40 100.75 C 153.27 100.75 153.97 100.05 153.97 99.19 L 153.97 98.17 C 153.97 97.31 153.27 96.61 152.40 96.61 C 151.54 96.61 150.84 97.31 150.84 98.17 Z M 150.84 99.19 L 150.84 100.20 C 150.84 101.06 151.54 101.76 152.40 101.76 C 153.27 101.76 153.97 101.06 153.97 100.20 L 153.97 99.19 C 153.97 98.33 153.27 97.63 152.40 97.63 C 151.54 97.63 150.84 98.33 150.84 99.19 Z M 150.84 100.20 L 150.84 101.19 C 150.84 102.06 151.54 102.75 152.40 102.75 C 153.27 102.75 153.97 102.06 153.97 101.19 L 153.97 100.20 C 153.97 99.34 153.27 98.64 152.40 98.64 C 151.54 98.64 150.84 99.34 150.84 100.20 Z M 150.84 101.19 L 150.84 102.19 C 150.84 103.05 151.54 103.75 152.40 103.75 C 153.27 103.75 153.97 103.05 153.97 102.19 L 153.97 101.19 C 153.97 100.33 153.27 99.63 152.40 99.63 C 151.54 99.63 150.84 100.33 150.84 101.19 Z M 150.84 102.19 L 150.84 103.22 C 150.84 104.08 151.54 104.78 152.40 104.78 C 153.27 104.78 153.97 104.08 153.97 103.22 L 153.97 102.19 C 153.97 101.32 153.27 100.62 152.40 100.62 C 151.54 100.62 150.84 101.32 150.84 102.19 Z M 150.84 103.22 L 150.84 104.22 C 150.84 105.08 151.54 105.78 152.40 105.78 C 153.27 105.78 153.97 105.08 153.97 104.22 L 153.97 103.22 C 153.97 102.36 153.27 101.66 152.40 101.66 C 151.54 101.66 150.84 102.36 150.84 103.22 Z M 150.84 104.22 L 150.84 105.18 C 150.84 106.05 151.54 106.75 152.40 106.75 C 153.27 106.75 153.97 106.05 153.97 105.18 L 153.97 104.22 C 153.97 103.36 153.27 102.66 152.40 102.66 C 151.54 102.66 150.84 103.36 150.84 104.22 Z M 150.84 105.19 L 150.85 106.10 C 150.85 106.96 151.55 107.66 152.41 107.66 C 153.27 107.66 153.97 106.96 153.97 106.10 L 153.97 105.18 C 153.96 104.32 153.26 103.62 152.40 103.62 C 151.54 103.62 150.84 104.33 150.84 105.19 Z M 150.85 106.13 L 150.86 107.06 C 150.88 107.92 151.59 108.61 152.45 108.59 C 153.32 108.57 154.00 107.86 153.98 107.00 L 153.97 106.07 C 153.95 105.21 153.24 104.52 152.38 104.54 C 151.52 104.55 150.83 105.27 150.85 106.13 Z M 150.86 107.11 L 150.92 108.13 C 150.96 108.99 151.70 109.65 152.56 109.61 C 153.42 109.56 154.08 108.83 154.04 107.97 L 153.98 106.95 C 153.94 106.09 153.20 105.42 152.34 105.47 C 151.48 105.51 150.82 106.25 150.86 107.11 Z M 150.92 108.19 L 151.02 109.28 C 151.10 110.14 151.86 110.78 152.72 110.70 C 153.58 110.62 154.21 109.86 154.13 109.00 L 154.03 107.91 C 153.95 107.05 153.19 106.41 152.33 106.49 C 151.48 106.57 150.84 107.33 150.92 108.19 Z M 151.03 109.33 L 151.14 110.27 C 151.24 111.12 152.02 111.73 152.88 111.63 C 153.73 111.53 154.34 110.75 154.24 109.89 L 154.13 108.96 C 154.02 108.10 153.25 107.49 152.39 107.59 C 151.53 107.70 150.92 108.47 151.03 109.33 Z M 151.14 110.29 L 151.28 111.29 C 151.39 112.14 152.18 112.74 153.03 112.63 C 153.89 112.51 154.49 111.73 154.37 110.87 L 154.24 109.87 C 154.12 109.02 153.34 108.42 152.48 108.53 C 151.63 108.65 151.03 109.43 151.14 110.29 Z M 151.28 111.30 L 151.42 112.33 C 151.54 113.18 152.33 113.78 153.19 113.66 C 154.04 113.54 154.63 112.75 154.52 111.89 L 154.37 110.87 C 154.25 110.01 153.46 109.42 152.61 109.54 C 151.76 109.65 151.16 110.44 151.28 111.30 Z M 151.42 112.32 L 151.56 113.35 C 151.68 114.20 152.47 114.80 153.32 114.68 C 154.18 114.56 154.77 113.77 154.66 112.92 L 154.52 111.90 C 154.40 111.04 153.61 110.45 152.76 110.56 C 151.90 110.68 151.31 111.47 151.42 112.32 Z M 151.56 113.33 L 151.69 114.32 C 151.80 115.18 152.58 115.78 153.44 115.67 C 154.29 115.56 154.90 114.78 154.79 113.92 L 154.66 112.93 C 154.55 112.08 153.77 111.48 152.91 111.59 C 152.06 111.69 151.45 112.48 151.56 113.33 Z M 151.69 114.30 L 151.79 115.26 C 151.89 116.12 152.66 116.74 153.52 116.64 C 154.38 116.55 154.99 115.77 154.90 114.92 L 154.79 113.95 C 154.69 113.09 153.92 112.48 153.06 112.57 C 152.21 112.67 151.59 113.44 151.69 114.30 Z M 151.79 115.24 L 151.88 116.18 C 151.96 117.04 152.72 117.67 153.58 117.59 C 154.44 117.51 155.07 116.75 154.99 115.89 L 154.90 114.94 C 154.82 114.09 154.06 113.45 153.20 113.54 C 152.34 113.62 151.71 114.38 151.79 115.24 Z M 151.88 116.16 L 151.95 117.12 C 152.02 117.98 152.77 118.62 153.63 118.56 C 154.49 118.49 155.13 117.74 155.07 116.88 L 154.99 115.91 C 154.92 115.05 154.17 114.41 153.31 114.48 C 152.45 114.54 151.81 115.30 151.88 116.16 Z M 151.95 117.10 L 152.02 118.14 C 152.08 119.00 152.82 119.65 153.68 119.59 C 154.54 119.53 155.19 118.79 155.14 117.93 L 155.07 116.90 C 155.01 116.04 154.27 115.39 153.41 115.44 C 152.55 115.50 151.89 116.24 151.95 117.10 Z M 152.02 118.13 L 152.08 119.18 C 152.13 120.04 152.87 120.70 153.73 120.65 C 154.60 120.59 155.25 119.85 155.20 118.99 L 155.14 117.94 C 155.09 117.08 154.35 116.42 153.49 116.48 C 152.63 116.53 151.97 117.27 152.02 118.13 Z M 152.08 119.17 L 152.14 120.18 C 152.19 121.04 152.92 121.70 153.79 121.65 C 154.65 121.60 155.30 120.86 155.26 120.00 L 155.20 119.00 C 155.15 118.14 154.42 117.48 153.55 117.53 C 152.69 117.58 152.03 118.31 152.08 119.17 Z M 152.14 120.17 L 152.19 121.21 C 152.24 122.07 152.97 122.74 153.84 122.69 C 154.70 122.64 155.36 121.91 155.31 121.05 L 155.26 120.01 C 155.21 119.14 154.48 118.48 153.62 118.53 C 152.75 118.57 152.09 119.31 152.14 120.17 Z M 152.19 121.21 L 152.25 122.26 C 152.29 123.12 153.02 123.78 153.88 123.74 C 154.74 123.70 155.41 122.96 155.36 122.10 L 155.31 121.05 C 155.27 120.19 154.54 119.53 153.68 119.57 C 152.81 119.61 152.15 120.35 152.19 121.21 Z M 152.25 122.25 L 152.29 123.27 C 152.33 124.14 153.06 124.80 153.92 124.76 C 154.79 124.72 155.45 123.99 155.41 123.13 L 155.36 122.11 C 155.32 121.25 154.59 120.58 153.73 120.62 C 152.87 120.66 152.21 121.39 152.25 122.25 Z M 152.29 123.27 L 152.33 124.23 C 152.37 125.09 153.10 125.76 153.96 125.72 C 154.82 125.68 155.49 124.96 155.45 124.09 L 155.41 123.14 C 155.38 122.27 154.65 121.61 153.79 121.64 C 152.93 121.68 152.26 122.41 152.29 123.27 Z M 152.33 124.21 L 152.37 125.29 C 152.40 126.15 153.12 126.82 153.99 126.79 C 154.85 126.76 155.52 126.04 155.49 125.18 L 155.45 124.11 C 155.42 123.24 154.70 122.57 153.84 122.60 C 152.98 122.63 152.30 123.35 152.33 124.21 Z M 152.37 125.27 L 152.40 126.39 C 152.42 127.25 153.13 127.93 154.00 127.91 C 154.86 127.89 155.54 127.18 155.52 126.31 L 155.49 125.20 C 155.47 124.33 154.75 123.65 153.89 123.67 C 153.03 123.69 152.35 124.41 152.37 125.27 Z M 152.40 126.37 L 152.41 127.32 C 152.42 128.18 153.13 128.87 153.99 128.86 C 154.85 128.85 155.54 128.14 155.53 127.28 L 155.52 126.33 C 155.51 125.47 154.80 124.78 153.94 124.79 C 153.08 124.80 152.39 125.51 152.40 126.37 Z M 152.41 127.30 L 152.41 128.15 C 152.41 129.01 153.11 129.71 153.98 129.71 C 154.84 129.71 155.54 129.00 155.53 128.14 L 155.53 127.29 C 155.53 126.43 154.83 125.73 153.96 125.74 C 153.10 125.74 152.41 126.44 152.41 127.30 Z M 152.41 128.15 L 152.41 129.08 C 152.41 129.94 153.11 130.64 153.97 130.64 C 154.83 130.64 155.53 129.94 155.53 129.08 L 155.53 128.15 C 155.53 127.28 154.83 126.59 153.97 126.59 C 153.11 126.59 152.41 127.28 152.41 128.15 Z M 152.41 129.08 L 152.41 130.07 C 152.41 130.93 153.11 131.63 153.97 131.63 C 154.83 131.63 155.53 130.93 155.53 130.07 L 155.53 129.08 C 155.53 128.22 154.83 127.52 153.97 127.52 C 153.11 127.52 152.41 128.22 152.41 129.08 Z M 152.41 130.07 L 152.41 131.08 C 152.41 131.95 153.11 132.64 153.97 132.64 C 154.83 132.64 155.53 131.95 155.53 131.08 L 155.53 130.07 C 155.53 129.21 154.83 128.51 153.97 128.51 C 153.11 128.51 152.41 129.21 152.41 130.07 Z M 152.41 131.08 L 152.41 132.08 C 152.41 132.95 153.11 133.64 153.97 133.64 C 154.83 133.64 155.53 132.95 155.53 132.08 L 155.53 131.08 C 155.53 130.22 154.83 129.52 153.97 129.52 C 153.11 129.52 152.41 130.22 152.41 131.08 Z M 152.41 132.08 L 152.41 133.07 C 152.41 133.93 153.11 134.63 153.97 134.63 C 154.83 134.63 155.53 133.93 155.53 133.07 L 155.53 132.08 C 155.53 131.22 154.83 130.52 153.97 130.52 C 153.11 130.52 152.41 131.22 152.41 132.08 Z M 152.41 133.07 L 152.41 134.08 C 152.41 134.94 153.11 135.64 153.97 135.64 C 154.83 135.64 155.53 134.94 155.53 134.08 L 155.53 133.07 C 155.53 132.21 154.83 131.51 153.97 131.51 C 153.11 131.51 152.41 132.21 152.41 133.07 Z M 152.41 134.08 L 152.41 135.10 C 152.41 135.96 153.11 136.66 153.97 136.66 C 154.83 136.66 155.53 135.96 155.53 135.10 L 155.53 134.08 C 155.53 133.22 154.83 132.52 153.97 132.52 C 153.11 132.52 152.41 133.22 152.41 134.08 Z M 152.41 135.10 L 152.41 136.08 C 152.41 136.94 153.11 137.64 153.97 137.64 C 154.83 137.64 155.53 136.94 155.53 136.08 L 155.53 135.10 C 155.53 134.23 154.83 133.53 153.97 133.53 C 153.11 133.53 152.41 134.23 152.41 135.10 Z M 152.41 136.08 L 152.41 137.08 C 152.41 137.94 153.11 138.64 153.97 138.64 C 154.83 138.64 155.53 137.94 155.53 137.08 L 155.53 136.08 C 155.53 135.22 154.83 134.52 153.97 134.52 C 153.11 134.52 152.41 135.22 152.41 136.08 Z M 152.41 137.08 L 152.41 138.09 C 152.41 138.95 153.11 139.65 153.97 139.65 C 154.83 139.65 155.53 138.95 155.53 138.09 L 155.53 137.08 C 155.53 136.22 154.83 135.52 153.97 135.52 C 153.11 135.52 152.41 136.22 152.41 137.08 Z M 152.41 138.09 L 152.41 139.10 C 152.41 139.96 153.11 140.66 153.97 140.66 C 154.83 140.66 155.53 139.96 155.53 139.10 L 155.53 138.09 C 155.53 137.23 154.83 136.53 153.97 136.53 C 153.11 136.53 152.41 137.23 152.41 138.09 Z M 152.41 139.10 L 152.41 140.10 C 152.41 140.96 153.11 141.66 153.97 141.66 C 154.83 141.66 155.53 140.96 155.53 140.10 L 155.53 139.10 C 155.53 138.23 154.83 137.54 153.97 137.54 C 153.11 137.54 152.41 138.23 152.41 139.10 Z M 152.41 140.10 L 152.41 141.10 C 152.41 141.96 153.11 142.66 153.97 142.66 C 154.83 142.66 155.53 141.96 155.53 141.10 L 155.53 140.10 C 155.53 139.24 154.83 138.54 153.97 138.54 C 153.11 138.54 152.41 139.24 152.41 140.10 Z M 152.41 141.10 L 152.41 142.10 C 152.41 142.96 153.11 143.66 153.97 143.66 C 154.83 143.66 155.53 142.96 155.53 142.10 L 155.53 141.10 C 155.53 140.24 154.83 139.54 153.97 139.54 C 153.11 139.54 152.41 140.24 152.41 141.10 Z M 152.41 142.10 L 152.41 143.11 C 152.41 143.97 153.11 144.67 153.97 144.67 C 154.83 144.67 155.53 143.97 155.53 143.11 L 155.53 142.10 C 155.53 141.24 154.83 140.54 153.97 140.54 C 153.11 140.54 152.41 141.24 152.41 142.10 Z M 152.41 143.11 L 152.41 144.11 C 152.41 144.97 153.11 145.67 153.97 145.67 C 154.83 145.67 155.53 144.97 155.53 144.11 L 155.53 143.11 C 155.53 142.24 154.83 141.54 153.97 141.54 C 153.11 141.54 152.41 142.24 152.41 143.11 Z M 152.41 144.11 L 152.41 145.10 C 152.41 145.96 153.11 146.66 153.97 146.66 C 154.83 146.66 155.53 145.96 155.53 145.10 L 155.53 144.11 C 155.53 143.24 154.83 142.55 153.97 142.55 C 153.11 142.55 152.41 143.24 152.41 144.11 Z M 152.41 145.10 L 152.41 146.10 C 152.41 146.96 153.11 147.66 153.97 147.66 C 154.83 147.66 155.53 146.96 155.53 146.10 L 155.53 145.10 C 155.53 144.24 154.83 143.54 153.97 143.54 C 153.11 143.54 152.41 144.24 152.41 145.10 Z M 152.41 146.10 L 152.41 147.10 C 152.41 147.97 153.11 148.66 153.97 148.66 C 154.83 148.66 155.53 147.97 155.53 147.10 L 155.53 146.10 C 155.53 145.24 154.83 144.54 153.97 144.54 C 153.11 144.54 152.41 145.24 152.41 146.10 Z M 152.41 147.10 L 152.41 148.10 C 152.41 148.97 153.11 149.67 153.97 149.67 C 154.83 149.67 155.53 148.97 155.53 148.10 L 155.53 147.10 C 155.53 146.24 154.83 145.54 153.97 145.54 C 153.11 145.54 152.41 146.24 152.41 147.10 Z M 152.41 148.10 L 152.41 149.10 C 152.41 149.96 153.11 150.66 153.97 150.66 C 154.83 150.66 155.53 149.96 155.53 149.10 L 155.53 148.10 C 155.53 147.24 154.83 146.54 153.97 146.54 C 153.11 146.54 152.41 147.24 152.41 148.10 Z M 152.41 149.10 L 152.41 150.11 C 152.41 150.97 153.11 151.67 153.97 151.67 C 154.83 151.67 155.53 150.97 155.53 150.11 L 155.53 149.10 C 155.53 148.24 154.83 147.54 153.97 147.54 C 153.11 147.54 152.41 148.24 152.41 149.10 Z M 152.41 150.11 L 152.41 151.12 C 152.41 151.98 153.10 152.68 153.97 152.68 C 154.83 152.68 155.53 151.99 155.53 151.12 L 155.53 150.11 C 155.53 149.25 154.84 148.55 153.97 148.55 C 153.11 148.55 152.41 149.25 152.41 150.11 Z M 152.41 151.11 L 152.40 152.10 C 152.40 152.97 153.09 153.67 153.95 153.68 C 154.81 153.68 155.52 152.99 155.52 152.13 L 155.53 151.13 C 155.54 150.27 154.84 149.57 153.98 149.56 C 153.12 149.55 152.41 150.25 152.41 151.11 Z M 152.40 152.09 L 152.39 153.07 C 152.38 153.94 153.06 154.65 153.93 154.66 C 154.79 154.67 155.50 153.98 155.51 153.12 L 155.52 152.14 C 155.54 151.28 154.85 150.57 153.99 150.55 C 153.12 150.54 152.41 151.23 152.40 152.09 Z M 152.39 153.06 L 152.36 154.05 C 152.34 154.91 153.02 155.63 153.89 155.65 C 154.75 155.67 155.46 154.99 155.48 154.13 L 155.51 153.14 C 155.53 152.27 154.85 151.56 153.99 151.54 C 153.13 151.52 152.41 152.20 152.39 153.06 Z M 152.36 154.03 L 152.33 155.02 C 152.30 155.88 152.97 156.61 153.83 156.64 C 154.69 156.67 155.42 156.00 155.45 155.13 L 155.48 154.14 C 155.52 153.28 154.84 152.56 153.98 152.53 C 153.12 152.50 152.39 153.17 152.36 154.03 Z M 152.33 155.00 L 152.28 156.02 C 152.24 156.88 152.91 157.61 153.77 157.65 C 154.63 157.69 155.36 157.03 155.40 156.17 L 155.45 155.15 C 155.49 154.29 154.82 153.56 153.96 153.52 C 153.10 153.48 152.37 154.14 152.33 155.00 Z M 152.28 156.00 L 152.22 156.99 C 152.18 157.85 152.83 158.59 153.69 158.64 C 154.55 158.69 155.29 158.03 155.34 157.17 L 155.40 156.18 C 155.45 155.32 154.79 154.58 153.93 154.54 C 153.07 154.49 152.33 155.14 152.28 156.00 Z M 152.23 156.97 L 152.16 157.98 C 152.10 158.84 152.75 159.58 153.61 159.64 C 154.47 159.70 155.21 159.05 155.27 158.19 L 155.34 157.19 C 155.40 156.33 154.75 155.58 153.89 155.52 C 153.03 155.46 152.28 156.11 152.23 156.97 Z M 152.16 157.96 L 152.08 158.97 C 152.01 159.83 152.65 160.58 153.51 160.65 C 154.37 160.71 155.12 160.07 155.19 159.21 L 155.27 158.21 C 155.34 157.35 154.70 156.60 153.84 156.53 C 152.98 156.46 152.23 157.10 152.16 157.96 Z M 152.08 158.95 L 151.99 159.95 C 151.91 160.81 152.54 161.57 153.40 161.65 C 154.26 161.73 155.02 161.10 155.10 160.24 L 155.19 159.23 C 155.27 158.38 154.64 157.61 153.78 157.54 C 152.92 157.46 152.16 158.09 152.08 158.95 Z M 151.99 159.93 L 151.88 160.93 C 151.79 161.79 152.42 162.56 153.27 162.65 C 154.13 162.74 154.90 162.11 154.99 161.26 L 155.10 160.26 C 155.19 159.40 154.56 158.63 153.71 158.54 C 152.85 158.45 152.08 159.07 151.99 159.93 Z M 151.89 160.92 L 151.77 161.90 C 151.68 162.76 152.29 163.53 153.15 163.63 C 154.00 163.73 154.78 163.11 154.88 162.26 L 154.99 161.27 C 155.09 160.41 154.47 159.64 153.61 159.54 C 152.76 159.44 151.98 160.06 151.89 160.92 Z M 151.77 161.90 L 151.66 162.88 C 151.56 163.74 152.17 164.51 153.02 164.62 C 153.88 164.72 154.66 164.10 154.76 163.25 L 154.87 162.26 C 154.98 161.41 154.36 160.63 153.51 160.53 C 152.65 160.43 151.88 161.04 151.77 161.90 Z M 151.66 162.88 L 151.54 163.87 C 151.44 164.72 152.05 165.50 152.91 165.60 C 153.77 165.70 154.54 165.09 154.64 164.23 L 154.76 163.25 C 154.86 162.39 154.25 161.62 153.39 161.51 C 152.53 161.41 151.76 162.03 151.66 162.88 Z M 151.54 163.87 L 151.43 164.86 C 151.33 165.72 151.94 166.49 152.79 166.59 C 153.65 166.69 154.43 166.08 154.53 165.23 L 154.64 164.23 C 154.74 163.38 154.13 162.60 153.27 162.50 C 152.42 162.40 151.64 163.01 151.54 163.87 Z M 151.42 164.86 L 151.31 165.86 C 151.21 166.72 151.82 167.49 152.68 167.59 C 153.54 167.69 154.31 167.08 154.41 166.22 L 154.53 165.22 C 154.63 164.37 154.01 163.59 153.16 163.49 C 152.30 163.39 151.52 164.01 151.42 164.86 Z M 151.31 165.86 L 151.19 166.86 C 151.09 167.71 151.71 168.49 152.56 168.59 C 153.42 168.69 154.20 168.07 154.29 167.22 L 154.41 166.22 C 154.51 165.37 153.90 164.59 153.04 164.49 C 152.18 164.39 151.41 165.01 151.31 165.86 Z M 151.19 166.85 L 151.08 167.84 C 150.98 168.70 151.59 169.47 152.44 169.57 C 153.30 169.68 154.08 169.06 154.18 168.21 L 154.29 167.22 C 154.40 166.36 153.78 165.59 152.93 165.49 C 152.07 165.38 151.30 166.00 151.19 166.85 Z M 151.08 167.83 L 150.96 168.83 C 150.85 169.68 151.46 170.46 152.31 170.57 C 153.17 170.67 153.95 170.06 154.05 169.21 L 154.18 168.22 C 154.28 167.36 153.67 166.58 152.82 166.47 C 151.96 166.37 151.18 166.98 151.08 167.83 Z M 150.96 168.81 L 150.83 169.81 C 150.71 170.67 151.32 171.45 152.17 171.56 C 153.03 171.67 153.81 171.07 153.92 170.22 L 154.05 169.22 C 154.16 168.36 153.56 167.58 152.71 167.47 C 151.85 167.36 151.07 167.96 150.96 168.81 Z M 150.83 169.80 L 150.69 170.77 C 150.57 171.62 151.17 172.41 152.02 172.53 C 152.88 172.65 153.66 172.06 153.78 171.20 L 153.92 170.23 C 154.04 169.38 153.44 168.59 152.59 168.47 C 151.74 168.35 150.95 168.94 150.83 169.80 Z M 150.69 170.76 L 150.55 171.74 C 150.43 172.60 151.02 173.39 151.87 173.51 C 152.72 173.64 153.52 173.05 153.64 172.19 L 153.78 171.21 C 153.91 170.36 153.32 169.56 152.46 169.44 C 151.61 169.32 150.82 169.91 150.69 170.76 Z M 150.55 171.74 L 150.40 172.74 C 150.28 173.60 150.87 174.39 151.72 174.51 C 152.58 174.64 153.37 174.05 153.49 173.20 L 153.64 172.20 C 153.76 171.34 153.17 170.55 152.32 170.42 C 151.47 170.30 150.68 170.89 150.55 171.74 Z M 150.40 172.75 L 150.26 173.74 C 150.14 174.60 150.73 175.39 151.59 175.51 C 152.44 175.63 153.23 175.04 153.35 174.19 L 153.49 173.19 C 153.62 172.34 153.02 171.55 152.17 171.42 C 151.32 171.30 150.53 171.89 150.40 172.75 Z M 150.26 173.75 L 150.12 174.73 C 150.00 175.58 150.60 176.37 151.45 176.49 C 152.30 176.61 153.09 176.02 153.21 175.16 L 153.35 174.18 C 153.47 173.33 152.88 172.54 152.02 172.42 C 151.17 172.30 150.38 172.89 150.26 173.75 Z M 150.12 174.72 L 149.98 175.71 C 149.86 176.57 150.45 177.36 151.30 177.48 C 152.15 177.61 152.95 177.01 153.07 176.16 L 153.21 175.17 C 153.34 174.32 152.75 173.52 151.89 173.40 C 151.04 173.28 150.25 173.87 150.12 174.72 Z M 149.98 175.70 L 149.83 176.70 C 149.69 177.55 150.28 178.35 151.13 178.48 C 151.98 178.61 152.78 178.03 152.91 177.18 L 153.07 176.18 C 153.20 175.33 152.62 174.53 151.76 174.39 C 150.91 174.26 150.11 174.85 149.98 175.70 Z M 149.83 176.67 L 149.66 177.66 C 149.51 178.51 150.08 179.32 150.93 179.46 C 151.78 179.61 152.59 179.04 152.74 178.19 L 152.91 177.20 C 153.05 176.35 152.48 175.54 151.63 175.40 C 150.78 175.25 149.98 175.82 149.83 176.67 Z M 149.66 177.64 L 149.48 178.62 C 149.32 179.46 149.88 180.28 150.72 180.44 C 151.57 180.60 152.39 180.04 152.55 179.20 L 152.73 178.21 C 152.89 177.37 152.34 176.55 151.49 176.39 C 150.64 176.23 149.82 176.79 149.66 177.64 Z M 149.48 178.60 L 149.29 179.58 C 149.12 180.43 149.67 181.25 150.51 181.42 C 151.36 181.59 152.18 181.04 152.35 180.19 L 152.54 179.21 C 152.71 178.37 152.17 177.55 151.32 177.38 C 150.47 177.21 149.65 177.76 149.48 178.60 Z M 149.29 179.57 L 149.09 180.55 C 148.91 181.40 149.45 182.22 150.30 182.40 C 151.14 182.57 151.97 182.03 152.14 181.19 L 152.35 180.20 C 152.52 179.36 151.98 178.53 151.13 178.36 C 150.29 178.18 149.46 178.73 149.29 179.57 Z M 149.09 180.55 L 148.88 181.53 C 148.71 182.38 149.25 183.20 150.09 183.38 C 150.93 183.56 151.76 183.02 151.94 182.17 L 152.14 181.19 C 152.32 180.34 151.78 179.52 150.93 179.34 C 150.09 179.17 149.26 179.71 149.09 180.55 Z M 148.88 181.53 L 148.68 182.51 C 148.50 183.36 149.04 184.19 149.88 184.36 C 150.73 184.54 151.55 184.00 151.73 183.16 L 151.94 182.17 C 152.11 181.33 151.57 180.50 150.73 180.32 C 149.89 180.15 149.06 180.69 148.88 181.53 Z M 148.68 182.51 L 148.47 183.49 C 148.29 184.33 148.82 185.16 149.67 185.34 C 150.51 185.52 151.34 184.98 151.52 184.14 L 151.73 183.16 C 151.91 182.32 151.37 181.49 150.53 181.31 C 149.69 181.13 148.86 181.66 148.68 182.51 Z M 148.47 183.48 L 148.25 184.45 C 148.07 185.29 148.60 186.12 149.44 186.31 C 150.28 186.49 151.12 185.96 151.30 185.12 L 151.52 184.15 C 151.70 183.31 151.17 182.47 150.33 182.29 C 149.49 182.10 148.65 182.63 148.47 183.48 Z M 148.26 184.43 L 148.03 185.42 C 147.84 186.26 148.36 187.10 149.20 187.29 C 150.04 187.48 150.88 186.96 151.07 186.12 L 151.30 185.13 C 151.49 184.29 150.97 183.46 150.13 183.26 C 149.29 183.07 148.45 183.59 148.26 184.43 Z M 148.03 185.41 L 147.80 186.39 C 147.60 187.22 148.12 188.07 148.95 188.27 C 149.79 188.47 150.64 187.95 150.84 187.11 L 151.07 186.13 C 151.27 185.29 150.75 184.45 149.92 184.25 C 149.08 184.05 148.23 184.57 148.03 185.41 Z M 147.80 186.37 L 147.56 187.34 C 147.35 188.18 147.86 189.02 148.70 189.23 C 149.54 189.44 150.39 188.93 150.59 188.09 L 150.83 187.13 C 151.04 186.29 150.53 185.44 149.69 185.23 C 148.86 185.03 148.01 185.54 147.80 186.37 Z M 147.57 187.33 L 147.32 188.28 C 147.11 189.12 147.61 189.97 148.45 190.18 C 149.28 190.40 150.13 189.89 150.35 189.06 L 150.59 188.10 C 150.80 187.27 150.30 186.42 149.46 186.20 C 148.63 185.99 147.78 186.49 147.57 187.33 Z M 147.32 188.27 L 147.06 189.27 C 146.84 190.11 147.34 190.96 148.17 191.18 C 149.01 191.40 149.86 190.90 150.08 190.07 L 150.34 189.07 C 150.56 188.23 150.07 187.38 149.23 187.16 C 148.40 186.94 147.54 187.44 147.32 188.27 Z M 147.06 189.27 L 146.80 190.24 C 146.58 191.08 147.07 191.93 147.90 192.16 C 148.73 192.38 149.59 191.89 149.81 191.05 L 150.08 190.08 C 150.30 189.24 149.81 188.39 148.98 188.16 C 148.14 187.94 147.29 188.43 147.06 189.27 Z M 146.80 190.24 L 146.54 191.18 C 146.32 192.01 146.81 192.87 147.64 193.10 C 148.47 193.33 149.33 192.84 149.56 192.00 L 149.81 191.06 C 150.04 190.23 149.55 189.37 148.72 189.14 C 147.89 188.92 147.03 189.41 146.80 190.24 Z M 146.54 191.18 L 146.29 192.12 C 146.06 192.95 146.55 193.81 147.38 194.04 C 148.21 194.27 149.07 193.78 149.30 192.95 L 149.55 192.01 C 149.78 191.18 149.29 190.32 148.46 190.09 C 147.63 189.86 146.77 190.35 146.54 191.18 Z M 146.29 192.12 L 146.02 193.07 C 145.79 193.90 146.28 194.76 147.11 194.99 C 147.94 195.22 148.80 194.73 149.03 193.90 L 149.29 192.95 C 149.53 192.12 149.04 191.26 148.21 191.03 C 147.38 190.80 146.52 191.29 146.29 192.12 Z M 146.03 193.06 L 145.75 194.01 C 145.52 194.84 145.99 195.70 146.82 195.94 C 147.65 196.18 148.52 195.70 148.75 194.87 L 149.03 193.92 C 149.26 193.09 148.79 192.22 147.96 191.98 C 147.13 191.75 146.26 192.23 146.03 193.06 Z M 145.76 193.99 L 145.47 194.96 C 145.22 195.78 145.69 196.65 146.52 196.90 C 147.34 197.15 148.21 196.68 148.46 195.85 L 148.75 194.88 C 149.00 194.06 148.53 193.19 147.70 192.94 C 146.87 192.69 146.00 193.16 145.76 193.99 Z M 145.47 194.94 L 145.18 195.89 C 144.92 196.71 145.38 197.58 146.20 197.84 C 147.02 198.10 147.90 197.64 148.16 196.82 L 148.45 195.87 C 148.71 195.05 148.25 194.17 147.43 193.92 C 146.61 193.66 145.73 194.12 145.47 194.94 Z M 145.18 195.87 L 144.87 196.83 C 144.60 197.65 145.04 198.53 145.86 198.80 C 146.68 199.07 147.56 198.62 147.83 197.80 L 148.15 196.84 C 148.42 196.02 147.97 195.14 147.15 194.87 C 146.34 194.60 145.45 195.05 145.18 195.87 Z M 144.88 196.81 L 144.55 197.76 C 144.26 198.57 144.70 199.46 145.51 199.74 C 146.32 200.02 147.21 199.59 147.50 198.78 L 147.83 197.83 C 148.11 197.01 147.68 196.12 146.86 195.84 C 146.05 195.56 145.16 195.99 144.88 196.81 Z M 144.56 197.73 L 144.23 198.61 C 143.93 199.42 144.35 200.32 145.15 200.62 C 145.96 200.91 146.86 200.50 147.16 199.69 L 147.49 198.81 C 147.78 198.00 147.37 197.10 146.56 196.80 C 145.75 196.50 144.86 196.92 144.56 197.73 Z M 144.24 198.58 L 143.90 199.44 C 143.58 200.24 143.98 201.15 144.78 201.47 C 145.58 201.78 146.49 201.39 146.80 200.59 L 147.15 199.73 C 147.46 198.93 147.07 198.02 146.27 197.70 C 145.47 197.38 144.56 197.78 144.24 198.58 Z M 143.91 199.41 L 143.53 200.32 C 143.19 201.12 143.56 202.03 144.36 202.37 C 145.15 202.70 146.07 202.33 146.40 201.54 L 146.79 200.62 C 147.13 199.83 146.75 198.91 145.96 198.58 C 145.17 198.24 144.25 198.61 143.91 199.41 Z M 143.54 200.30 L 143.08 201.32 C 142.73 202.11 143.09 203.03 143.87 203.38 C 144.66 203.73 145.58 203.38 145.94 202.59 L 146.39 201.56 C 146.74 200.78 146.39 199.85 145.60 199.50 C 144.81 199.15 143.89 199.51 143.54 200.30 Z M 143.09 201.31 L 142.74 202.07 C 142.38 202.85 142.73 203.78 143.51 204.14 C 144.29 204.50 145.22 204.15 145.58 203.37 L 145.93 202.61 C 146.29 201.82 145.94 200.90 145.16 200.54 C 144.38 200.18 143.45 200.52 143.09 201.31 Z M 142.75 202.05 L 142.36 202.87 C 142.00 203.65 142.33 204.58 143.11 204.95 C 143.89 205.32 144.82 204.98 145.19 204.20 L 145.57 203.38 C 145.94 202.60 145.60 201.67 144.82 201.30 C 144.04 200.94 143.11 201.27 142.75 202.05 Z M 142.37 202.86 L 141.95 203.74 C 141.57 204.52 141.90 205.45 142.68 205.82 C 143.45 206.20 144.39 205.87 144.76 205.09 L 145.18 204.21 C 145.56 203.44 145.23 202.50 144.45 202.13 C 143.68 201.76 142.74 202.08 142.37 202.86 Z M 141.95 203.73 L 141.49 204.67 C 141.11 205.44 141.42 206.38 142.20 206.76 C 142.97 207.14 143.91 206.82 144.29 206.05 L 144.75 205.11 C 145.13 204.34 144.82 203.40 144.04 203.02 C 143.27 202.64 142.33 202.95 141.95 203.73 Z M 141.50 204.65 L 140.99 205.64 C 140.60 206.41 140.91 207.35 141.68 207.74 C 142.45 208.13 143.39 207.83 143.78 207.06 L 144.28 206.06 C 144.67 205.30 144.36 204.36 143.60 203.97 C 142.83 203.58 141.89 203.88 141.50 204.65 Z M 141.00 205.63 L 140.48 206.62 C 140.08 207.38 140.38 208.33 141.14 208.73 C 141.91 209.13 142.85 208.83 143.25 208.07 L 143.77 207.07 C 144.17 206.31 143.87 205.37 143.11 204.97 C 142.34 204.57 141.40 204.86 141.00 205.63 Z M 140.49 206.61 L 140.02 207.49 C 139.61 208.25 139.90 209.19 140.65 209.60 C 141.41 210.01 142.36 209.72 142.77 208.96 L 143.24 208.08 C 143.65 207.32 143.36 206.37 142.60 205.97 C 141.84 205.56 140.90 205.85 140.49 206.61 Z M 140.02 207.47 L 139.53 208.37 C 139.12 209.13 139.40 210.08 140.15 210.49 C 140.91 210.90 141.86 210.63 142.27 209.87 L 142.76 208.97 C 143.18 208.22 142.90 207.27 142.14 206.86 C 141.39 206.44 140.44 206.72 140.02 207.47 Z M 139.54 208.36 L 139.04 209.26 C 138.62 210.01 138.88 210.96 139.64 211.38 C 140.39 211.80 141.34 211.53 141.76 210.78 L 142.26 209.88 C 142.68 209.13 142.42 208.18 141.66 207.76 C 140.91 207.34 139.96 207.61 139.54 208.36 Z M 139.04 209.25 L 138.54 210.14 C 138.11 210.89 138.37 211.84 139.12 212.27 C 139.87 212.69 140.82 212.43 141.25 211.68 L 141.76 210.79 C 142.18 210.04 141.92 209.09 141.17 208.66 C 140.42 208.24 139.47 208.50 139.04 209.25 Z M 138.54 210.13 L 138.04 210.99 C 137.60 211.74 137.86 212.70 138.60 213.13 C 139.35 213.56 140.30 213.31 140.74 212.56 L 141.24 211.69 C 141.67 210.95 141.42 209.99 140.68 209.56 C 139.93 209.13 138.98 209.38 138.54 210.13 Z M 138.04 210.98 L 137.55 211.82 C 137.11 212.56 137.35 213.52 138.09 213.96 C 138.84 214.40 139.79 214.15 140.23 213.41 L 140.73 212.58 C 141.17 211.83 140.93 210.88 140.18 210.44 C 139.44 210.00 138.48 210.24 138.04 210.98 Z M 137.56 211.80 L 137.04 212.66 C 136.59 213.40 136.82 214.36 137.56 214.80 C 138.30 215.25 139.26 215.02 139.71 214.28 L 140.23 213.43 C 140.67 212.69 140.44 211.73 139.70 211.28 C 138.97 210.83 138.00 211.07 137.56 211.80 Z M 137.05 212.64 L 136.46 213.58 C 136.00 214.31 136.22 215.28 136.95 215.74 C 137.68 216.19 138.65 215.97 139.10 215.24 L 139.70 214.30 C 140.15 213.57 139.93 212.60 139.20 212.15 C 138.47 211.69 137.51 211.91 137.05 212.64 Z M 136.47 213.56 L 135.91 214.44 C 135.44 215.16 135.65 216.13 136.37 216.59 C 137.09 217.06 138.06 216.86 138.53 216.13 L 139.09 215.26 C 139.56 214.54 139.35 213.57 138.63 213.10 C 137.91 212.63 136.94 212.84 136.47 213.56 Z M 135.92 214.42 L 135.38 215.23 C 134.90 215.95 135.09 216.92 135.81 217.39 C 136.53 217.87 137.49 217.68 137.97 216.96 L 138.52 216.15 C 139.00 215.43 138.80 214.46 138.09 213.99 C 137.37 213.51 136.40 213.70 135.92 214.42 Z M 135.39 215.21 L 134.86 215.98 C 134.37 216.69 134.55 217.66 135.26 218.15 C 135.97 218.64 136.95 218.46 137.43 217.75 L 137.96 216.98 C 138.45 216.27 138.27 215.30 137.56 214.81 C 136.85 214.32 135.88 214.50 135.39 215.21 Z M 134.87 215.96 L 134.35 216.70 C 133.85 217.41 134.02 218.38 134.73 218.88 C 135.43 219.37 136.41 219.21 136.90 218.50 L 137.42 217.76 C 137.92 217.06 137.75 216.08 137.05 215.59 C 136.34 215.09 135.37 215.26 134.87 215.96 Z M 134.36 216.69 L 133.75 217.53 C 133.25 218.23 133.41 219.21 134.11 219.71 C 134.81 220.21 135.78 220.06 136.29 219.36 L 136.89 218.51 C 137.40 217.81 137.24 216.84 136.54 216.33 C 135.84 215.83 134.86 215.99 134.36 216.69 Z M 133.76 217.52 L 133.15 218.35 C 132.64 219.04 132.79 220.02 133.49 220.53 C 134.18 221.04 135.16 220.89 135.67 220.20 L 136.28 219.37 C 136.79 218.67 136.64 217.70 135.95 217.19 C 135.25 216.68 134.27 216.82 133.76 217.52 Z M 133.16 218.34 L 132.56 219.14 C 132.04 219.82 132.18 220.80 132.87 221.32 C 133.56 221.84 134.54 221.70 135.06 221.01 L 135.66 220.21 C 136.18 219.52 136.04 218.54 135.35 218.03 C 134.66 217.51 133.68 217.65 133.16 218.34 Z M 132.57 219.12 L 131.98 219.88 C 131.46 220.57 131.59 221.55 132.27 222.07 C 132.95 222.60 133.93 222.47 134.46 221.79 L 135.05 221.03 C 135.57 220.34 135.44 219.36 134.76 218.84 C 134.08 218.31 133.10 218.44 132.57 219.12 Z M 132.00 219.87 L 131.39 220.64 C 130.85 221.32 130.97 222.30 131.65 222.83 C 132.32 223.37 133.30 223.25 133.84 222.57 L 134.45 221.81 C 134.98 221.13 134.87 220.15 134.19 219.61 C 133.51 219.08 132.53 219.19 132.00 219.87 Z M 131.40 220.62 L 130.75 221.41 C 130.21 222.08 130.31 223.07 130.98 223.61 C 131.64 224.16 132.63 224.06 133.17 223.39 L 133.82 222.59 C 134.37 221.93 134.27 220.94 133.60 220.40 C 132.93 219.85 131.95 219.95 131.40 220.62 Z M 130.78 221.39 L 130.13 222.14 C 129.57 222.80 129.65 223.78 130.31 224.34 C 130.96 224.90 131.95 224.82 132.51 224.17 L 133.15 223.42 C 133.71 222.76 133.63 221.77 132.98 221.21 C 132.32 220.65 131.34 220.73 130.78 221.39 Z M 130.16 222.11 L 129.51 222.83 C 128.93 223.48 128.99 224.46 129.63 225.04 C 130.27 225.62 131.26 225.56 131.83 224.92 L 132.48 224.20 C 133.06 223.56 133.01 222.57 132.37 221.99 C 131.72 221.42 130.74 221.47 130.16 222.11 Z M 129.54 222.80 L 128.86 223.51 C 128.27 224.14 128.29 225.12 128.92 225.72 C 129.54 226.31 130.53 226.29 131.13 225.66 L 131.80 224.95 C 132.40 224.33 132.37 223.34 131.75 222.75 C 131.12 222.15 130.13 222.18 129.54 222.80 Z M 128.89 223.48 L 128.19 224.19 C 127.58 224.80 127.58 225.79 128.19 226.39 C 128.80 227.00 129.79 227.00 130.40 226.39 L 131.10 225.69 C 131.71 225.08 131.71 224.09 131.10 223.48 C 130.49 222.87 129.50 222.87 128.89 223.48 Z M 128.21 224.17 L 127.49 224.87 C 126.87 225.46 126.85 226.45 127.45 227.07 C 128.05 227.69 129.04 227.71 129.66 227.11 L 130.38 226.41 C 131.00 225.81 131.01 224.83 130.42 224.21 C 129.82 223.59 128.83 223.57 128.21 224.17 Z M 127.50 224.85 L 126.77 225.55 C 126.14 226.14 126.11 227.13 126.71 227.76 C 127.30 228.38 128.29 228.41 128.91 227.81 L 129.65 227.12 C 130.27 226.53 130.30 225.54 129.70 224.91 C 129.11 224.29 128.12 224.26 127.50 224.85 Z M 126.77 225.55 L 126.56 225.75 C 125.93 226.34 125.90 227.33 126.49 227.95 C 127.08 228.58 128.07 228.61 128.70 228.02 L 128.91 227.82 C 129.54 227.22 129.57 226.24 128.98 225.61 C 128.38 224.98 127.40 224.95 126.77 225.55 Z"
      fill="black"
      fill-rule="nonzero" /></svg>