<svg xmlns="http://www.w3.org/2000/svg" width="300" height="300" viewBox="0 0 300 300">
<path d="M 109.80 88.34 L 109.41 89.11 C 109.03 89.89 109.34 90.82 110.12 91.21 C 110.89 91.59 111.83 91.27 112.21 90.50 L 112.59 89.73 C 112.98 88.96 112.66 88.02 111.89 87.64 C 111.11 87.25 110.18 87.57 109.80 88.34 Z M 109.38 89.19 L 109.01 90.03 C 108.67 90.82 109.03 91.74 109.82 92.09 C 110.61 92.43 111.53 92.07 111.87 91.28 L 112.24 90.43 C 112.59 89.64 112.22 88.72 111.43 88.38 C 110.64 88.03 109.72 88.40 109.38 89.19 Z M 108.96 90.15 L 108.62 91.15 C 108.35 91.97 108.78 92.86 109.60 93.13 C 110.42 93.41 111.30 92.97 111.58 92.16 L 111.92 91.16 C 112.20 90.34 111.76 89.45 110.94 89.18 C 110.13 88.90 109.24 89.34 108.96 90.15 Z M 108.59 91.28 L 108.32 92.35 C 108.12 93.19 108.63 94.03 109.47 94.24 C 110.30 94.45 111.15 93.93 111.36 93.10 L 111.62 92.03 C 111.83 91.19 111.31 90.35 110.48 90.14 C 109.64 89.93 108.79 90.45 108.59 91.28 Z M 108.30 92.44 L 108.14 93.31 C 107.99 94.15 108.55 94.97 109.39 95.13 C 110.24 95.28 111.06 94.72 111.21 93.88 L 111.37 93.01 C 111.53 92.16 110.97 91.35 110.12 91.19 C 109.28 91.03 108.46 91.59 108.30 92.44 Z M 108.13 93.36 L 107.99 94.31 C 107.86 95.16 108.45 95.96 109.30 96.08 C 110.15 96.21 110.95 95.63 111.08 94.78 L 111.22 93.83 C 111.35 92.97 110.77 92.18 109.91 92.05 C 109.06 91.92 108.26 92.51 108.13 93.36 Z M 107.99 94.34 L 107.86 95.35 C 107.75 96.21 108.35 96.99 109.21 97.10 C 110.06 97.21 110.84 96.61 110.95 95.75 L 111.08 94.74 C 111.19 93.89 110.59 93.10 109.73 92.99 C 108.88 92.88 108.10 93.49 107.99 94.34 Z M 107.85 95.38 L 107.73 96.43 C 107.64 97.29 108.26 98.06 109.11 98.16 C 109.97 98.25 110.74 97.63 110.84 96.78 L 110.96 95.73 C 111.05 94.87 110.43 94.10 109.58 94.00 C 108.72 93.90 107.95 94.52 107.85 95.38 Z M 107.73 96.45 L 107.62 97.52 C 107.54 98.38 108.16 99.14 109.02 99.23 C 109.88 99.32 110.64 98.69 110.73 97.83 L 110.84 96.76 C 110.93 95.90 110.30 95.14 109.44 95.05 C 108.59 94.96 107.82 95.59 107.73 96.45 Z M 107.62 97.53 L 107.52 98.61 C 107.44 99.47 108.07 100.23 108.93 100.32 C 109.79 100.40 110.55 99.77 110.63 98.91 L 110.73 97.82 C 110.81 96.97 110.18 96.20 109.32 96.12 C 108.47 96.04 107.70 96.67 107.62 97.53 Z M 107.52 98.62 L 107.42 99.70 C 107.34 100.56 107.98 101.32 108.84 101.40 C 109.69 101.48 110.45 100.85 110.53 99.99 L 110.63 98.90 C 110.71 98.04 110.08 97.28 109.22 97.21 C 108.36 97.13 107.60 97.76 107.52 98.62 Z M 107.42 99.71 L 107.33 100.77 C 107.25 101.62 107.89 102.38 108.75 102.46 C 109.61 102.53 110.36 101.90 110.44 101.04 L 110.53 99.98 C 110.61 99.12 109.97 98.37 109.11 98.29 C 108.25 98.21 107.50 98.85 107.42 99.71 Z M 107.33 100.77 L 107.24 101.79 C 107.17 102.64 107.81 103.40 108.67 103.47 C 109.53 103.55 110.28 102.91 110.35 102.05 L 110.44 101.03 C 110.51 100.17 109.88 99.42 109.02 99.35 C 108.16 99.27 107.40 99.91 107.33 100.77 Z M 107.24 101.79 L 107.16 102.75 C 107.09 103.61 107.73 104.37 108.59 104.44 C 109.45 104.51 110.20 103.87 110.27 103.01 L 110.35 102.05 C 110.43 101.19 109.79 100.43 108.93 100.36 C 108.07 100.29 107.31 100.93 107.24 101.79 Z M 107.16 102.76 L 107.09 103.66 C 107.02 104.52 107.66 105.27 108.52 105.34 C 109.38 105.41 110.13 104.77 110.20 103.91 L 110.27 103.01 C 110.34 102.15 109.70 101.40 108.84 101.33 C 107.98 101.26 107.23 101.90 107.16 102.76 Z M 107.09 103.66 L 107.01 104.67 C 106.94 105.53 107.58 106.28 108.44 106.35 C 109.30 106.42 110.05 105.78 110.12 104.92 L 110.20 103.91 C 110.27 103.05 109.63 102.29 108.77 102.23 C 107.91 102.16 107.16 102.80 107.09 103.66 Z M 107.01 104.67 L 106.92 105.74 C 106.85 106.59 107.49 107.35 108.35 107.42 C 109.21 107.49 109.97 106.85 110.04 105.99 L 110.12 104.92 C 110.19 104.06 109.55 103.31 108.69 103.24 C 107.83 103.17 107.08 103.81 107.01 104.67 Z M 106.92 105.72 L 106.84 106.68 C 106.76 107.54 107.39 108.30 108.25 108.38 C 109.11 108.46 109.87 107.82 109.95 106.96 L 110.03 106.00 C 110.11 105.14 109.48 104.38 108.62 104.31 C 107.76 104.23 107.00 104.86 106.92 105.72 Z M 106.84 106.66 L 106.74 107.57 C 106.65 108.42 107.27 109.19 108.13 109.29 C 108.98 109.38 109.75 108.76 109.85 107.90 L 109.94 106.99 C 110.04 106.14 109.42 105.37 108.56 105.27 C 107.70 105.18 106.93 105.80 106.84 106.66 Z M 106.75 107.53 L 106.62 108.46 C 106.51 109.32 107.11 110.10 107.96 110.22 C 108.82 110.33 109.60 109.73 109.72 108.88 L 109.84 107.94 C 109.96 107.09 109.36 106.30 108.50 106.19 C 107.65 106.07 106.86 106.67 106.75 107.53 Z M 106.63 108.43 L 106.47 109.41 C 106.34 110.26 106.92 111.06 107.78 111.20 C 108.63 111.33 109.43 110.74 109.56 109.89 L 109.71 108.91 C 109.84 108.06 109.26 107.26 108.41 107.13 C 107.56 107.00 106.76 107.58 106.63 108.43 Z M 106.48 109.40 L 106.31 110.39 C 106.17 111.24 106.75 112.05 107.60 112.19 C 108.45 112.32 109.26 111.75 109.39 110.90 L 109.56 109.90 C 109.70 109.05 109.12 108.25 108.27 108.11 C 107.42 107.97 106.61 108.55 106.48 109.40 Z M 106.31 110.40 L 106.15 111.40 C 106.02 112.25 106.60 113.05 107.45 113.19 C 108.31 113.32 109.10 112.74 109.24 111.89 L 109.40 110.89 C 109.53 110.04 108.95 109.24 108.10 109.10 C 107.25 108.97 106.45 109.55 106.31 110.40 Z M 106.15 111.43 L 106.01 112.42 C 105.89 113.27 106.48 114.06 107.34 114.18 C 108.19 114.30 108.98 113.71 109.10 112.86 L 109.24 111.86 C 109.36 111.01 108.77 110.22 107.91 110.10 C 107.06 109.98 106.27 110.57 106.15 111.43 Z M 106.01 112.44 L 105.88 113.44 C 105.77 114.29 106.38 115.07 107.24 115.18 C 108.09 115.29 108.87 114.68 108.98 113.83 L 109.11 112.83 C 109.21 111.98 108.61 111.20 107.75 111.09 C 106.90 110.98 106.12 111.59 106.01 112.44 Z M 105.88 113.45 L 105.76 114.44 C 105.66 115.29 106.27 116.07 107.13 116.17 C 107.98 116.28 108.76 115.66 108.86 114.81 L 108.98 113.82 C 109.08 112.96 108.47 112.18 107.62 112.08 C 106.76 111.98 105.98 112.59 105.88 113.45 Z M 105.76 114.44 L 105.65 115.41 C 105.54 116.26 106.15 117.04 107.01 117.14 C 107.86 117.25 108.64 116.64 108.75 115.78 L 108.86 114.81 C 108.97 113.95 108.36 113.18 107.50 113.07 C 106.64 112.97 105.87 113.58 105.76 114.44 Z M 105.65 115.40 L 105.55 116.16 C 105.44 117.02 106.05 117.80 106.90 117.90 C 107.76 118.01 108.54 117.41 108.65 116.55 L 108.74 115.79 C 108.85 114.93 108.25 114.15 107.39 114.04 C 106.54 113.94 105.75 114.54 105.65 115.40 Z M 105.55 116.15 L 105.44 116.98 C 105.33 117.83 105.93 118.62 106.79 118.73 C 107.64 118.84 108.43 118.24 108.54 117.39 L 108.65 116.56 C 108.76 115.70 108.16 114.92 107.30 114.81 C 106.45 114.70 105.66 115.30 105.55 116.15 Z M 105.44 116.98 L 105.32 117.93 C 105.20 118.78 105.80 119.57 106.66 119.68 C 107.51 119.80 108.30 119.20 108.41 118.34 L 108.54 117.39 C 108.65 116.54 108.05 115.75 107.20 115.64 C 106.34 115.52 105.56 116.12 105.44 116.98 Z M 105.32 117.92 L 105.16 119.06 C 105.05 119.91 105.65 120.70 106.50 120.82 C 107.35 120.93 108.14 120.33 108.26 119.48 L 108.41 118.34 C 108.53 117.49 107.93 116.70 107.07 116.59 C 106.22 116.47 105.43 117.07 105.32 117.92 Z M 105.16 119.06 L 104.99 120.34 C 104.87 121.20 105.47 121.98 106.33 122.10 C 107.18 122.21 107.97 121.62 108.08 120.76 L 108.26 119.48 C 108.37 118.62 107.77 117.84 106.92 117.72 C 106.06 117.61 105.28 118.21 105.16 119.06 Z M 104.99 120.34 L 104.86 121.26 C 104.75 122.12 105.35 122.90 106.20 123.02 C 107.06 123.13 107.84 122.53 107.96 121.68 L 108.08 120.76 C 108.20 119.91 107.60 119.12 106.74 119.00 C 105.89 118.89 105.10 119.49 104.99 120.34 Z M 104.86 121.26 L 104.73 122.25 C 104.62 123.11 105.22 123.89 106.07 124.01 C 106.93 124.12 107.71 123.52 107.83 122.67 L 107.96 121.68 C 108.07 120.82 107.47 120.04 106.62 119.92 C 105.76 119.81 104.98 120.41 104.86 121.26 Z M 104.73 122.26 L 104.59 123.29 C 104.48 124.15 105.08 124.93 105.93 125.05 C 106.79 125.16 107.57 124.56 107.69 123.71 L 107.83 122.67 C 107.94 121.81 107.34 121.03 106.49 120.91 C 105.63 120.80 104.85 121.40 104.73 122.26 Z M 104.59 123.30 L 104.45 124.36 C 104.34 125.21 104.94 126.00 105.79 126.11 C 106.65 126.22 107.43 125.62 107.55 124.77 L 107.69 123.71 C 107.80 122.85 107.20 122.07 106.35 121.95 C 105.49 121.84 104.71 122.44 104.59 123.30 Z M 104.45 124.36 L 104.31 125.42 C 104.20 126.27 104.80 127.06 105.66 127.17 C 106.51 127.28 107.30 126.68 107.41 125.83 L 107.55 124.77 C 107.66 123.91 107.06 123.13 106.20 123.01 C 105.35 122.90 104.56 123.50 104.45 124.36 Z M 104.31 125.42 L 104.18 126.46 C 104.07 127.31 104.67 128.09 105.52 128.20 C 106.38 128.32 107.16 127.71 107.27 126.86 L 107.41 125.82 C 107.52 124.97 106.92 124.19 106.06 124.07 C 105.21 123.96 104.42 124.57 104.31 125.42 Z M 104.18 126.46 L 104.05 127.44 C 103.94 128.30 104.55 129.08 105.40 129.19 C 106.26 129.30 107.04 128.69 107.15 127.84 L 107.27 126.85 C 107.38 126.00 106.78 125.22 105.92 125.11 C 105.07 125.00 104.29 125.60 104.18 126.46 Z M 104.05 127.45 L 103.94 128.35 C 103.83 129.21 104.44 129.99 105.29 130.10 C 106.15 130.20 106.93 129.60 107.04 128.74 L 107.15 127.83 C 107.26 126.98 106.65 126.20 105.79 126.09 C 104.94 125.98 104.16 126.59 104.05 127.45 Z M 103.94 128.36 L 103.79 129.62 C 103.68 130.48 104.29 131.25 105.15 131.35 C 106.01 131.46 106.78 130.85 106.89 129.99 L 107.04 128.73 C 107.14 127.88 106.53 127.10 105.67 127.00 C 104.82 126.89 104.04 127.51 103.94 128.36 Z M 103.78 129.63 L 103.65 130.81 C 103.56 131.67 104.18 132.44 105.04 132.53 C 105.89 132.63 106.66 132.01 106.76 131.15 L 106.89 129.98 C 106.98 129.12 106.36 128.35 105.51 128.25 C 104.65 128.16 103.88 128.78 103.78 129.63 Z M 103.65 130.83 L 103.56 131.76 C 103.48 132.62 104.10 133.39 104.96 133.47 C 105.82 133.55 106.58 132.93 106.67 132.07 L 106.76 131.13 C 106.84 130.27 106.22 129.51 105.36 129.43 C 104.50 129.34 103.74 129.97 103.65 130.83 Z M 103.56 131.78 L 103.49 132.56 C 103.42 133.42 104.05 134.18 104.91 134.26 C 105.77 134.33 106.53 133.70 106.60 132.84 L 106.67 132.05 C 106.74 131.19 106.11 130.44 105.25 130.36 C 104.39 130.29 103.63 130.92 103.56 131.78 Z M 103.49 132.57 L 103.44 133.14 C 103.37 134.00 104.01 134.76 104.87 134.83 C 105.73 134.90 106.49 134.26 106.56 133.40 L 106.60 132.83 C 106.67 131.97 106.03 131.21 105.17 131.14 C 104.31 131.07 103.56 131.71 103.49 132.57 Z"
      fill="black"
      fill-rule="nonzero" /><path d="M 111.35 97.83 L 111.99 97.04 C 112.53 96.37 112.42 95.39 111.75 94.85 C 111.08 94.31 110.10 94.41 109.56 95.08 L 108.92 95.87 C 108.38 96.54 108.49 97.52 109.16 98.06 C 109.83 98.61 110.81 98.50 111.35 97.83 Z M 111.90 97.14 L 112.59 96.42 C 113.18 95.79 113.16 94.80 112.53 94.21 C 111.91 93.62 110.92 93.64 110.33 94.27 L 109.64 94.99 C 109.05 95.61 109.07 96.60 109.70 97.19 C 110.32 97.79 111.31 97.76 111.90 97.14 Z M 112.39 96.59 L 113.18 96.00 C 113.87 95.48 114.01 94.51 113.49 93.82 C 112.98 93.13 112.00 92.99 111.31 93.50 L 110.52 94.09 C 109.83 94.61 109.69 95.59 110.21 96.28 C 110.73 96.97 111.70 97.11 112.39 96.59 Z M 112.90 96.17 L 113.71 95.79 C 114.49 95.43 114.83 94.50 114.47 93.72 C 114.11 92.94 113.18 92.60 112.40 92.96 L 111.59 93.34 C 110.81 93.70 110.47 94.63 110.83 95.41 C 111.19 96.19 112.12 96.53 112.90 96.17 Z M 113.49 95.88 L 114.42 95.61 C 115.25 95.37 115.73 94.51 115.49 93.68 C 115.25 92.85 114.38 92.37 113.55 92.61 L 112.62 92.88 C 111.79 93.12 111.32 93.98 111.55 94.81 C 111.79 95.64 112.66 96.12 113.49 95.88 Z M 114.28 95.64 L 115.34 95.44 C 116.19 95.28 116.74 94.46 116.58 93.61 C 116.42 92.77 115.60 92.21 114.75 92.37 L 113.69 92.58 C 112.85 92.74 112.29 93.56 112.45 94.40 C 112.62 95.25 113.43 95.80 114.28 95.64 Z M 115.28 95.45 L 116.27 95.30 C 117.12 95.17 117.71 94.38 117.58 93.53 C 117.46 92.67 116.66 92.09 115.81 92.21 L 114.82 92.36 C 113.96 92.49 113.37 93.28 113.50 94.14 C 113.63 94.99 114.42 95.58 115.28 95.45 Z M 116.25 95.31 L 117.21 95.18 C 118.06 95.06 118.66 94.28 118.55 93.43 C 118.44 92.57 117.65 91.97 116.80 92.08 L 115.84 92.21 C 114.98 92.32 114.38 93.11 114.49 93.96 C 114.61 94.82 115.39 95.42 116.25 95.31 Z M 117.19 95.18 L 118.20 95.06 C 119.05 94.95 119.66 94.17 119.55 93.32 C 119.45 92.46 118.67 91.85 117.82 91.96 L 116.81 92.08 C 115.96 92.19 115.35 92.96 115.45 93.82 C 115.56 94.68 116.34 95.28 117.19 95.18 Z M 118.19 95.06 L 119.22 94.94 C 120.07 94.84 120.69 94.06 120.59 93.20 C 120.48 92.35 119.71 91.74 118.85 91.84 L 117.82 91.96 C 116.97 92.06 116.35 92.83 116.45 93.69 C 116.56 94.55 117.33 95.16 118.19 95.06 Z M 119.21 94.94 L 120.24 94.82 C 121.09 94.72 121.71 93.95 121.61 93.09 C 121.51 92.23 120.74 91.62 119.88 91.72 L 118.86 91.84 C 118.00 91.93 117.38 92.71 117.48 93.57 C 117.58 94.42 118.36 95.04 119.21 94.94 Z M 120.24 94.82 L 121.20 94.71 C 122.05 94.61 122.67 93.83 122.57 92.98 C 122.47 92.12 121.69 91.51 120.84 91.61 L 119.88 91.72 C 119.02 91.82 118.41 92.59 118.51 93.45 C 118.61 94.31 119.38 94.92 120.24 94.82 Z M 121.20 94.71 L 122.17 94.59 C 123.02 94.49 123.64 93.71 123.53 92.86 C 123.43 92.00 122.66 91.39 121.80 91.49 L 120.83 91.61 C 119.98 91.71 119.37 92.48 119.47 93.34 C 119.57 94.20 120.34 94.81 121.20 94.71 Z M 122.17 94.59 L 123.16 94.47 C 124.01 94.37 124.62 93.59 124.52 92.74 C 124.42 91.88 123.64 91.27 122.78 91.37 L 121.80 91.49 C 120.94 91.60 120.33 92.37 120.43 93.23 C 120.54 94.09 121.32 94.70 122.17 94.59 Z M 123.16 94.47 L 124.18 94.35 C 125.04 94.24 125.65 93.46 125.54 92.60 C 125.43 91.75 124.65 91.14 123.80 91.25 L 122.78 91.37 C 121.92 91.48 121.32 92.26 121.42 93.12 C 121.53 93.97 122.31 94.58 123.16 94.47 Z M 124.19 94.34 L 125.18 94.22 C 126.03 94.11 126.64 93.33 126.53 92.47 C 126.42 91.62 125.64 91.01 124.78 91.12 L 123.79 91.25 C 122.94 91.36 122.33 92.14 122.44 92.99 C 122.55 93.85 123.33 94.45 124.19 94.34 Z M 125.18 94.22 L 126.06 94.11 C 126.91 93.99 127.52 93.21 127.41 92.36 C 127.30 91.50 126.51 90.90 125.66 91.01 L 124.78 91.12 C 123.92 91.23 123.32 92.02 123.43 92.87 C 123.54 93.73 124.32 94.33 125.18 94.22 Z M 126.06 94.11 L 126.98 93.99 C 127.84 93.88 128.44 93.09 128.33 92.24 C 128.22 91.38 127.44 90.78 126.58 90.89 L 125.66 91.01 C 124.80 91.12 124.20 91.90 124.31 92.76 C 124.42 93.61 125.20 94.22 126.06 94.11 Z M 126.98 93.99 L 127.95 93.86 C 128.81 93.75 129.42 92.97 129.31 92.12 C 129.20 91.26 128.42 90.66 127.56 90.77 L 126.59 90.89 C 125.73 91.00 125.13 91.78 125.24 92.63 C 125.34 93.49 126.13 94.09 126.98 93.99 Z M 127.95 93.86 L 128.98 93.74 C 129.83 93.63 130.44 92.85 130.34 92.00 C 130.23 91.14 129.45 90.53 128.60 90.64 L 127.57 90.76 C 126.71 90.87 126.10 91.65 126.21 92.50 C 126.31 93.36 127.09 93.97 127.95 93.86 Z M 128.97 93.74 L 130.06 93.61 C 130.91 93.51 131.53 92.73 131.43 91.88 C 131.32 91.02 130.55 90.41 129.69 90.51 L 128.60 90.64 C 127.75 90.74 127.13 91.51 127.24 92.37 C 127.34 93.23 128.11 93.84 128.97 93.74 Z M 130.05 93.61 L 131.15 93.49 C 132.00 93.39 132.62 92.62 132.52 91.76 C 132.43 90.90 131.66 90.29 130.80 90.38 L 129.70 90.51 C 128.84 90.60 128.23 91.38 128.32 92.23 C 128.42 93.09 129.19 93.71 130.05 93.61 Z M 131.14 93.49 L 132.12 93.38 C 132.98 93.29 133.60 92.52 133.51 91.67 C 133.42 90.81 132.65 90.19 131.79 90.28 L 130.81 90.38 C 129.95 90.47 129.33 91.24 129.42 92.10 C 129.51 92.96 130.28 93.58 131.14 93.49 Z M 132.11 93.38 L 133.12 93.28 C 133.98 93.19 134.61 92.43 134.52 91.57 C 134.43 90.71 133.67 90.09 132.81 90.17 L 131.80 90.28 C 130.94 90.37 130.31 91.13 130.40 91.99 C 130.49 92.85 131.26 93.47 132.11 93.38 Z M 133.12 93.28 L 134.15 93.18 C 135.00 93.10 135.63 92.33 135.55 91.48 C 135.46 90.62 134.70 89.99 133.84 90.07 L 132.81 90.17 C 131.96 90.26 131.33 91.02 131.41 91.88 C 131.50 92.74 132.26 93.37 133.12 93.28 Z M 134.14 93.18 L 135.17 93.08 C 136.03 93.00 136.66 92.24 136.58 91.38 C 136.49 90.53 135.73 89.90 134.87 89.98 L 133.85 90.07 C 132.99 90.15 132.36 90.91 132.44 91.77 C 132.52 92.63 133.28 93.26 134.14 93.18 Z M 135.16 93.09 L 136.18 92.99 C 137.03 92.92 137.67 92.16 137.59 91.30 C 137.51 90.44 136.75 89.81 135.90 89.88 L 134.88 89.98 C 134.02 90.05 133.39 90.81 133.47 91.67 C 133.54 92.53 134.30 93.16 135.16 93.09 Z M 136.17 92.99 L 137.16 92.91 C 138.02 92.84 138.65 92.08 138.58 91.22 C 138.50 90.36 137.75 89.72 136.89 89.80 L 135.90 89.88 C 135.04 89.96 134.41 90.71 134.48 91.57 C 134.55 92.43 135.31 93.07 136.17 92.99 Z M 137.15 92.91 L 138.10 92.83 C 138.96 92.76 139.60 92.01 139.53 91.15 C 139.46 90.29 138.70 89.65 137.84 89.72 L 136.90 89.80 C 136.04 89.87 135.40 90.62 135.47 91.48 C 135.54 92.34 136.29 92.98 137.15 92.91 Z M 138.09 92.83 L 139.19 92.75 C 140.05 92.68 140.70 91.93 140.63 91.07 C 140.57 90.21 139.82 89.57 138.96 89.64 L 137.85 89.72 C 136.99 89.79 136.35 90.54 136.41 91.40 C 136.48 92.26 137.23 92.90 138.09 92.83 Z M 139.18 92.75 L 140.27 92.67 C 141.13 92.61 141.78 91.87 141.72 91.01 C 141.66 90.15 140.92 89.50 140.06 89.56 L 138.97 89.63 C 138.11 89.69 137.46 90.44 137.52 91.30 C 137.58 92.16 138.32 92.81 139.18 92.75 Z M 140.26 92.67 L 141.27 92.61 C 142.13 92.56 142.79 91.82 142.73 90.96 C 142.68 90.10 141.94 89.44 141.08 89.50 L 140.07 89.56 C 139.21 89.61 138.55 90.35 138.60 91.21 C 138.66 92.07 139.40 92.73 140.26 92.67 Z M 141.26 92.61 L 142.21 92.56 C 143.07 92.52 143.74 91.79 143.69 90.92 C 143.65 90.06 142.91 89.40 142.05 89.45 L 141.10 89.50 C 140.23 89.54 139.57 90.27 139.62 91.14 C 139.66 92.00 140.40 92.66 141.26 92.61 Z M 142.20 92.56 L 143.11 92.53 C 143.97 92.49 144.64 91.76 144.60 90.90 C 144.57 90.04 143.84 89.37 142.98 89.41 L 142.07 89.45 C 141.20 89.48 140.54 90.21 140.57 91.07 C 140.61 91.93 141.34 92.60 142.20 92.56 Z M 143.09 92.53 L 143.99 92.50 C 144.86 92.47 145.53 91.75 145.50 90.89 C 145.48 90.03 144.76 89.35 143.89 89.38 L 142.99 89.41 C 142.13 89.43 141.46 90.16 141.48 91.02 C 141.51 91.88 142.23 92.55 143.09 92.53 Z M 143.98 92.50 L 145.01 92.48 C 145.88 92.46 146.56 91.74 146.54 90.88 C 146.52 90.02 145.81 89.34 144.95 89.35 L 143.91 89.38 C 143.05 89.40 142.37 90.11 142.38 90.97 C 142.40 91.83 143.12 92.52 143.98 92.50 Z M 145.00 92.48 L 146.02 92.47 C 146.88 92.46 147.57 91.75 147.56 90.89 C 147.55 90.02 146.84 89.33 145.98 89.34 L 144.96 89.35 C 144.10 89.36 143.41 90.07 143.42 90.93 C 143.43 91.80 144.14 92.49 145.00 92.48 Z M 146.00 92.47 L 147.00 92.46 C 147.86 92.46 148.56 91.76 148.56 90.90 C 148.55 90.04 147.85 89.34 146.99 89.34 L 145.99 89.34 C 145.13 89.34 144.44 90.05 144.44 90.91 C 144.44 91.77 145.14 92.47 146.00 92.47 Z M 146.99 92.46 L 147.96 92.47 C 148.82 92.47 149.53 91.78 149.53 90.92 C 149.54 90.05 148.84 89.35 147.98 89.35 L 147.00 89.34 C 146.14 89.34 145.44 90.03 145.43 90.89 C 145.43 91.75 146.12 92.46 146.99 92.46 Z M 147.95 92.47 L 148.93 92.48 C 149.79 92.49 150.50 91.80 150.51 90.94 C 150.52 90.08 149.83 89.37 148.97 89.36 L 147.99 89.35 C 147.13 89.34 146.42 90.02 146.41 90.89 C 146.40 91.75 147.09 92.46 147.95 92.47 Z M 148.91 92.48 L 149.93 92.50 C 150.79 92.53 151.50 91.84 151.52 90.98 C 151.54 90.12 150.86 89.40 150.00 89.38 L 148.99 89.36 C 148.12 89.34 147.41 90.02 147.39 90.88 C 147.37 91.75 148.05 92.46 148.91 92.48 Z M 149.90 92.50 L 150.89 92.55 C 151.76 92.58 152.48 91.91 152.52 91.05 C 152.55 90.19 151.89 89.46 151.02 89.43 L 150.03 89.38 C 149.17 89.35 148.44 90.02 148.40 90.88 C 148.37 91.74 149.04 92.47 149.90 92.50 Z M 150.85 92.54 L 151.84 92.61 C 152.70 92.67 153.44 92.02 153.50 91.16 C 153.56 90.30 152.91 89.56 152.05 89.50 L 151.07 89.43 C 150.21 89.37 149.46 90.02 149.40 90.88 C 149.34 91.74 149.99 92.48 150.85 92.54 Z M 151.78 92.61 L 152.77 92.71 C 153.63 92.80 154.39 92.17 154.48 91.32 C 154.57 90.46 153.95 89.69 153.09 89.60 L 152.11 89.50 C 151.25 89.41 150.48 90.03 150.39 90.89 C 150.30 91.75 150.93 92.52 151.78 92.61 Z M 152.71 92.70 L 153.68 92.84 C 154.53 92.96 155.33 92.37 155.45 91.52 C 155.57 90.66 154.98 89.87 154.12 89.75 L 153.15 89.61 C 152.30 89.49 151.51 90.08 151.39 90.94 C 151.26 91.79 151.86 92.58 152.71 92.70 Z M 153.64 92.83 L 154.62 93.00 C 155.46 93.15 156.27 92.58 156.42 91.73 C 156.57 90.88 156.00 90.07 155.15 89.93 L 154.17 89.76 C 153.32 89.61 152.51 90.18 152.36 91.03 C 152.22 91.88 152.79 92.69 153.64 92.83 Z M 154.59 93.00 L 155.57 93.19 C 156.42 93.35 157.24 92.79 157.40 91.95 C 157.56 91.10 157.01 90.28 156.16 90.12 L 155.17 89.93 C 154.33 89.77 153.51 90.32 153.35 91.17 C 153.19 92.02 153.74 92.84 154.59 93.00 Z M 155.56 93.18 L 156.56 93.38 C 157.40 93.55 158.22 93.00 158.39 92.15 C 158.56 91.31 158.01 90.48 157.16 90.32 L 156.17 90.12 C 155.32 89.95 154.50 90.50 154.34 91.35 C 154.17 92.19 154.72 93.02 155.56 93.18 Z M 156.56 93.38 L 157.54 93.57 C 158.39 93.74 159.21 93.18 159.37 92.34 C 159.54 91.49 158.98 90.67 158.14 90.51 L 157.16 90.32 C 156.31 90.15 155.49 90.71 155.33 91.55 C 155.16 92.40 155.72 93.22 156.56 93.38 Z M 157.56 93.57 L 158.53 93.75 C 159.38 93.91 160.19 93.35 160.35 92.50 C 160.50 91.65 159.94 90.84 159.09 90.68 L 158.12 90.50 C 157.27 90.35 156.46 90.91 156.31 91.76 C 156.15 92.61 156.71 93.42 157.56 93.57 Z M 158.56 93.76 L 159.54 93.92 C 160.39 94.06 161.19 93.49 161.34 92.64 C 161.48 91.79 160.90 90.98 160.05 90.84 L 159.07 90.68 C 158.22 90.53 157.42 91.11 157.27 91.96 C 157.13 92.81 157.70 93.61 158.56 93.76 Z M 159.57 93.93 L 160.56 94.07 C 161.41 94.20 162.21 93.61 162.33 92.76 C 162.46 91.90 161.87 91.11 161.02 90.98 L 160.02 90.84 C 159.17 90.71 158.38 91.30 158.25 92.15 C 158.12 93.01 158.71 93.80 159.57 93.93 Z M 160.60 94.08 L 161.61 94.20 C 162.46 94.31 163.24 93.71 163.35 92.85 C 163.46 91.99 162.85 91.21 161.99 91.11 L 160.98 90.98 C 160.13 90.87 159.35 91.48 159.24 92.33 C 159.13 93.19 159.74 93.97 160.60 94.08 Z M 161.64 94.21 L 162.63 94.31 C 163.49 94.39 164.25 93.77 164.34 92.91 C 164.42 92.05 163.80 91.29 162.94 91.20 L 161.96 91.10 C 161.10 91.02 160.33 91.64 160.25 92.50 C 160.16 93.36 160.79 94.12 161.64 94.21 Z M 162.66 94.31 L 163.65 94.39 C 164.51 94.46 165.26 93.82 165.33 92.96 C 165.40 92.10 164.76 91.35 163.90 91.28 L 162.91 91.20 C 162.05 91.13 161.30 91.77 161.23 92.63 C 161.16 93.49 161.80 94.24 162.66 94.31 Z M 163.67 94.39 L 164.68 94.46 C 165.54 94.52 166.28 93.87 166.34 93.01 C 166.40 92.15 165.74 91.40 164.88 91.34 L 163.88 91.28 C 163.02 91.22 162.28 91.87 162.22 92.73 C 162.16 93.59 162.81 94.34 163.67 94.39 Z M 164.69 94.46 L 165.69 94.52 C 166.55 94.57 167.29 93.91 167.34 93.05 C 167.39 92.19 166.74 91.45 165.88 91.40 L 164.87 91.34 C 164.01 91.29 163.27 91.95 163.22 92.81 C 163.17 93.67 163.83 94.41 164.69 94.46 Z M 165.70 94.52 L 166.71 94.58 C 167.57 94.62 168.30 93.96 168.35 93.10 C 168.40 92.24 167.74 91.51 166.88 91.46 L 165.87 91.40 C 165.01 91.36 164.27 92.01 164.23 92.88 C 164.18 93.74 164.84 94.47 165.70 94.52 Z M 166.70 94.58 L 167.74 94.63 C 168.60 94.68 169.33 94.02 169.38 93.16 C 169.43 92.30 168.77 91.56 167.91 91.52 L 166.88 91.46 C 166.02 91.41 165.28 92.07 165.23 92.93 C 165.19 93.79 165.84 94.53 166.70 94.58 Z M 167.74 94.63 L 168.76 94.69 C 169.62 94.74 170.35 94.08 170.40 93.21 C 170.45 92.35 169.79 91.62 168.92 91.57 L 167.91 91.52 C 167.05 91.47 166.31 92.13 166.26 92.99 C 166.22 93.85 166.88 94.59 167.74 94.63 Z M 168.76 94.69 L 169.76 94.74 C 170.62 94.78 171.35 94.12 171.40 93.26 C 171.44 92.40 170.78 91.66 169.92 91.62 L 168.92 91.57 C 168.06 91.53 167.32 92.19 167.28 93.05 C 167.24 93.91 167.90 94.65 168.76 94.69 Z M 169.77 94.74 L 170.74 94.78 C 171.61 94.82 172.33 94.15 172.37 93.29 C 172.41 92.43 171.74 91.70 170.88 91.66 L 169.91 91.62 C 169.04 91.58 168.32 92.25 168.28 93.11 C 168.24 93.97 168.91 94.70 169.77 94.74 Z M 170.76 94.78 L 171.76 94.81 C 172.62 94.84 173.34 94.17 173.37 93.30 C 173.40 92.44 172.72 91.72 171.86 91.69 L 170.86 91.66 C 170.00 91.63 169.28 92.31 169.25 93.17 C 169.22 94.03 169.90 94.75 170.76 94.78 Z M 171.78 94.81 L 172.81 94.84 C 173.68 94.85 174.39 94.17 174.41 93.31 C 174.42 92.45 173.74 91.73 172.88 91.71 L 171.84 91.69 C 170.98 91.68 170.27 92.36 170.25 93.22 C 170.23 94.08 170.92 94.80 171.78 94.81 Z M 172.82 94.84 L 173.82 94.85 C 174.68 94.86 175.39 94.17 175.40 93.31 C 175.41 92.45 174.73 91.74 173.86 91.73 L 172.87 91.71 C 172.00 91.70 171.30 92.39 171.28 93.25 C 171.27 94.12 171.96 94.82 172.82 94.84 Z M 173.82 94.85 L 174.79 94.86 C 175.66 94.87 176.36 94.18 176.37 93.32 C 176.38 92.46 175.69 91.75 174.83 91.74 L 173.86 91.73 C 173.00 91.72 172.29 92.41 172.28 93.27 C 172.27 94.13 172.96 94.84 173.82 94.85 Z M 174.79 94.86 L 175.76 94.88 C 176.62 94.89 177.33 94.20 177.34 93.34 C 177.36 92.48 176.67 91.77 175.81 91.75 L 174.84 91.74 C 173.97 91.72 173.26 92.41 173.25 93.27 C 173.24 94.14 173.92 94.85 174.79 94.86 Z M 175.74 94.88 L 176.73 94.90 C 177.59 94.93 178.31 94.25 178.33 93.39 C 178.36 92.52 177.68 91.81 176.82 91.78 L 175.82 91.75 C 174.96 91.73 174.24 92.41 174.22 93.27 C 174.20 94.13 174.88 94.85 175.74 94.88 Z M 176.70 94.90 L 177.69 94.95 C 178.55 94.99 179.28 94.32 179.32 93.46 C 179.37 92.60 178.70 91.87 177.84 91.83 L 176.85 91.78 C 175.99 91.74 175.25 92.41 175.21 93.27 C 175.17 94.13 175.84 94.86 176.70 94.90 Z M 177.65 94.95 L 178.66 95.02 C 179.52 95.08 180.26 94.43 180.32 93.57 C 180.39 92.71 179.74 91.97 178.88 91.90 L 177.88 91.83 C 177.02 91.77 176.27 92.42 176.21 93.28 C 176.15 94.14 176.79 94.88 177.65 94.95 Z M 178.61 95.01 L 179.61 95.12 C 180.46 95.20 181.23 94.58 181.32 93.72 C 181.41 92.86 180.78 92.10 179.93 92.01 L 178.93 91.91 C 178.07 91.82 177.30 92.44 177.21 93.30 C 177.13 94.16 177.75 94.93 178.61 95.01 Z M 179.55 95.11 L 180.55 95.25 C 181.40 95.36 182.19 94.77 182.31 93.91 C 182.42 93.06 181.83 92.27 180.97 92.15 L 179.98 92.02 C 179.12 91.90 178.34 92.50 178.22 93.35 C 178.10 94.21 178.70 94.99 179.55 95.11 Z M 180.49 95.24 L 181.48 95.41 C 182.33 95.56 183.14 95.00 183.29 94.15 C 183.44 93.30 182.88 92.49 182.03 92.34 L 181.03 92.16 C 180.18 92.01 179.37 92.58 179.22 93.43 C 179.07 94.28 179.64 95.09 180.49 95.24 Z M 181.41 95.40 L 182.39 95.62 C 183.23 95.81 184.06 95.28 184.25 94.44 C 184.44 93.60 183.91 92.76 183.07 92.57 L 182.10 92.35 C 181.26 92.16 180.42 92.69 180.23 93.53 C 180.04 94.37 180.57 95.21 181.41 95.40 Z M 182.30 95.60 L 183.29 95.88 C 184.12 96.12 184.98 95.64 185.22 94.81 C 185.46 93.98 184.98 93.11 184.15 92.88 L 183.16 92.59 C 182.33 92.36 181.46 92.84 181.23 93.67 C 180.99 94.49 181.47 95.36 182.30 95.60 Z M 183.19 95.85 L 184.16 96.20 C 184.98 96.49 185.87 96.07 186.16 95.26 C 186.46 94.45 186.04 93.56 185.23 93.26 L 184.25 92.91 C 183.44 92.62 182.55 93.04 182.25 93.85 C 181.96 94.66 182.38 95.55 183.19 95.85 Z M 184.05 96.15 L 184.95 96.56 C 185.74 96.92 186.66 96.57 187.02 95.78 C 187.38 95.00 187.03 94.07 186.24 93.72 L 185.34 93.31 C 184.55 92.95 183.63 93.30 183.27 94.09 C 182.92 94.87 183.27 95.80 184.05 96.15 Z M 184.83 96.50 L 185.65 96.96 C 186.40 97.39 187.35 97.12 187.77 96.37 C 188.20 95.62 187.94 94.67 187.19 94.24 L 186.37 93.78 C 185.62 93.36 184.67 93.62 184.24 94.37 C 183.81 95.12 184.08 96.07 184.83 96.50 Z M 185.50 96.87 L 186.33 97.47 C 187.02 97.98 188.00 97.82 188.51 97.12 C 189.01 96.43 188.86 95.45 188.16 94.94 L 187.33 94.34 C 186.64 93.83 185.66 93.99 185.15 94.68 C 184.65 95.38 184.80 96.36 185.50 96.87 Z M 186.18 97.34 L 186.90 98.02 C 187.53 98.61 188.51 98.58 189.11 97.96 C 189.70 97.33 189.67 96.34 189.04 95.75 L 188.31 95.07 C 187.69 94.48 186.70 94.51 186.11 95.14 C 185.52 95.76 185.55 96.75 186.18 97.34 Z M 186.77 97.89 L 187.40 98.64 C 187.96 99.30 188.94 99.38 189.60 98.83 C 190.26 98.27 190.35 97.29 189.79 96.63 L 189.16 95.88 C 188.61 95.22 187.62 95.14 186.96 95.69 C 186.30 96.25 186.22 97.23 186.77 97.89 Z M 187.30 98.51 L 187.82 99.27 C 188.30 99.98 189.27 100.17 189.99 99.68 C 190.70 99.20 190.89 98.23 190.40 97.51 L 189.89 96.76 C 189.40 96.04 188.43 95.86 187.72 96.34 C 187.01 96.83 186.82 97.80 187.30 98.51 Z M 187.72 99.11 L 188.16 99.95 C 188.55 100.71 189.50 101.01 190.26 100.62 C 191.03 100.22 191.33 99.28 190.93 98.51 L 190.50 97.67 C 190.10 96.91 189.16 96.61 188.39 97.00 C 187.63 97.40 187.33 98.34 187.72 99.11 Z M 188.07 99.75 L 188.42 100.73 C 188.71 101.55 189.60 101.97 190.41 101.69 C 191.23 101.40 191.65 100.51 191.36 99.69 L 191.02 98.71 C 190.73 97.90 189.84 97.47 189.02 97.76 C 188.21 98.05 187.79 98.94 188.07 99.75 Z M 188.37 100.54 L 188.59 101.57 C 188.77 102.41 189.60 102.95 190.44 102.77 C 191.29 102.58 191.82 101.75 191.64 100.91 L 191.42 99.88 C 191.24 99.04 190.41 98.51 189.56 98.69 C 188.72 98.87 188.18 99.70 188.37 100.54 Z M 188.56 101.43 L 188.68 102.39 C 188.79 103.24 189.57 103.85 190.42 103.75 C 191.28 103.64 191.89 102.86 191.78 102.01 L 191.66 101.05 C 191.56 100.19 190.78 99.58 189.92 99.69 C 189.07 99.80 188.46 100.58 188.56 101.43 Z M 188.67 102.30 L 188.74 103.31 C 188.79 104.17 189.54 104.83 190.40 104.77 C 191.26 104.72 191.91 103.98 191.86 103.11 L 191.79 102.10 C 191.74 101.24 190.99 100.58 190.13 100.64 C 189.27 100.69 188.62 101.44 188.67 102.30 Z M 188.74 103.24 L 188.75 104.28 C 188.77 105.14 189.48 105.83 190.34 105.81 C 191.20 105.80 191.89 105.09 191.87 104.23 L 191.86 103.19 C 191.84 102.33 191.13 101.64 190.27 101.65 C 189.41 101.67 188.72 102.38 188.74 103.24 Z M 188.75 104.21 L 188.73 105.23 C 188.70 106.09 189.38 106.81 190.25 106.83 C 191.11 106.85 191.83 106.17 191.85 105.31 L 191.87 104.29 C 191.90 103.43 191.22 102.71 190.35 102.69 C 189.49 102.67 188.78 103.35 188.75 104.21 Z M 188.73 105.16 L 188.66 106.20 C 188.60 107.06 189.25 107.80 190.11 107.86 C 190.97 107.92 191.72 107.27 191.77 106.41 L 191.84 105.38 C 191.90 104.52 191.25 103.77 190.39 103.71 C 189.53 103.65 188.79 104.30 188.73 105.16 Z M 188.67 106.13 L 188.55 107.12 C 188.46 107.98 189.07 108.75 189.93 108.85 C 190.79 108.95 191.56 108.33 191.66 107.47 L 191.77 106.48 C 191.86 105.62 191.25 104.85 190.39 104.75 C 189.53 104.66 188.76 105.27 188.67 106.13 Z M 188.56 107.06 L 188.41 108.03 C 188.29 108.88 188.87 109.68 189.72 109.81 C 190.58 109.94 191.37 109.35 191.50 108.50 L 191.65 107.53 C 191.78 106.68 191.19 105.88 190.34 105.75 C 189.49 105.62 188.69 106.21 188.56 107.06 Z M 188.42 107.98 L 188.25 108.95 C 188.09 109.80 188.65 110.61 189.50 110.77 C 190.35 110.92 191.16 110.36 191.32 109.51 L 191.49 108.54 C 191.65 107.70 191.09 106.88 190.24 106.73 C 189.39 106.57 188.58 107.14 188.42 107.98 Z M 188.25 108.92 L 188.05 109.91 C 187.88 110.75 188.43 111.58 189.27 111.75 C 190.12 111.92 190.94 111.37 191.11 110.53 L 191.31 109.54 C 191.48 108.69 190.94 107.87 190.09 107.70 C 189.25 107.53 188.42 108.08 188.25 108.92 Z M 188.06 109.89 L 187.84 110.90 C 187.66 111.74 188.20 112.57 189.04 112.75 C 189.89 112.93 190.72 112.39 190.90 111.55 L 191.11 110.54 C 191.29 109.70 190.75 108.87 189.91 108.69 C 189.06 108.51 188.23 109.05 188.06 109.89 Z M 187.84 110.89 L 187.62 111.89 C 187.44 112.73 187.97 113.56 188.81 113.75 C 189.66 113.93 190.49 113.40 190.67 112.56 L 190.89 111.56 C 191.08 110.71 190.55 109.88 189.70 109.70 C 188.86 109.51 188.03 110.04 187.84 110.89 Z M 187.62 111.88 L 187.41 112.85 C 187.22 113.69 187.75 114.53 188.59 114.72 C 189.43 114.90 190.27 114.38 190.46 113.53 L 190.67 112.56 C 190.86 111.72 190.33 110.89 189.49 110.70 C 188.65 110.51 187.81 111.04 187.62 111.88 Z M 187.41 112.85 L 187.19 113.81 C 187.01 114.65 187.54 115.48 188.38 115.67 C 189.22 115.86 190.05 115.33 190.24 114.49 L 190.45 113.53 C 190.64 112.69 190.11 111.86 189.27 111.67 C 188.43 111.48 187.60 112.01 187.41 112.85 Z M 187.19 113.81 L 186.96 114.86 C 186.77 115.71 187.30 116.54 188.15 116.73 C 188.99 116.91 189.82 116.38 190.01 115.54 L 190.24 114.49 C 190.43 113.64 189.90 112.81 189.06 112.62 C 188.21 112.44 187.38 112.97 187.19 113.81 Z M 186.96 114.86 L 186.75 115.82 C 186.56 116.67 187.09 117.50 187.94 117.68 C 188.78 117.87 189.61 117.34 189.80 116.50 L 190.01 115.54 C 190.19 114.70 189.66 113.86 188.82 113.68 C 187.98 113.49 187.15 114.02 186.96 114.86 Z M 186.75 115.82 L 186.55 116.72 C 186.36 117.57 186.89 118.40 187.73 118.59 C 188.57 118.78 189.41 118.25 189.59 117.40 L 189.80 116.50 C 189.98 115.66 189.45 114.82 188.61 114.64 C 187.77 114.45 186.94 114.98 186.75 115.82 Z M 186.55 116.72 L 186.33 117.67 C 186.14 118.51 186.66 119.35 187.51 119.54 C 188.35 119.73 189.18 119.21 189.37 118.37 L 189.59 117.41 C 189.78 116.57 189.26 115.73 188.42 115.54 C 187.58 115.35 186.74 115.88 186.55 116.72 Z M 186.33 117.67 L 186.11 118.64 C 185.92 119.48 186.44 120.32 187.28 120.51 C 188.12 120.70 188.96 120.18 189.15 119.34 L 189.37 118.37 C 189.57 117.53 189.04 116.69 188.20 116.50 C 187.36 116.30 186.52 116.83 186.33 117.67 Z M 186.11 118.64 L 185.88 119.62 C 185.69 120.47 186.22 121.30 187.06 121.49 C 187.90 121.68 188.74 121.15 188.93 120.31 L 189.15 119.33 C 189.34 118.49 188.82 117.66 187.97 117.47 C 187.13 117.27 186.30 117.80 186.11 118.64 Z M 185.88 119.64 L 185.67 120.59 C 185.49 121.43 186.02 122.26 186.87 122.45 C 187.71 122.63 188.54 122.10 188.72 121.26 L 188.93 120.30 C 189.12 119.46 188.58 118.63 187.74 118.44 C 186.90 118.26 186.07 118.79 185.88 119.64 Z M 185.67 120.60 L 185.47 121.56 C 185.29 122.41 185.82 123.24 186.67 123.42 C 187.51 123.60 188.34 123.06 188.52 122.21 L 188.73 121.25 C 188.91 120.41 188.37 119.58 187.52 119.40 C 186.68 119.22 185.85 119.75 185.67 120.60 Z M 185.47 121.56 L 185.25 122.56 C 185.08 123.40 185.61 124.23 186.46 124.41 C 187.30 124.59 188.13 124.05 188.31 123.21 L 188.52 122.21 C 188.70 121.37 188.16 120.54 187.32 120.36 C 186.47 120.18 185.65 120.72 185.47 121.56 Z M 185.26 122.55 L 185.05 123.52 C 184.86 124.37 185.40 125.20 186.24 125.38 C 187.09 125.56 187.92 125.03 188.10 124.18 L 188.31 123.21 C 188.49 122.37 187.95 121.54 187.11 121.36 C 186.27 121.18 185.44 121.71 185.26 122.55 Z M 185.05 123.52 L 184.84 124.46 C 184.66 125.30 185.19 126.13 186.04 126.32 C 186.88 126.50 187.71 125.97 187.89 125.12 L 188.10 124.19 C 188.28 123.34 187.75 122.51 186.90 122.33 C 186.06 122.14 185.23 122.68 185.05 123.52 Z M 184.84 124.47 L 184.63 125.44 C 184.45 126.29 184.99 127.12 185.83 127.30 C 186.67 127.48 187.50 126.94 187.68 126.10 L 187.89 125.12 C 188.07 124.28 187.54 123.45 186.69 123.27 C 185.85 123.09 185.02 123.62 184.84 124.47 Z M 184.63 125.46 L 184.42 126.48 C 184.24 127.33 184.79 128.15 185.63 128.33 C 186.48 128.50 187.30 127.96 187.48 127.11 L 187.69 126.09 C 187.86 125.24 187.32 124.42 186.47 124.24 C 185.63 124.07 184.80 124.61 184.63 125.46 Z M 184.41 126.50 L 184.23 127.46 C 184.06 128.31 184.61 129.13 185.46 129.29 C 186.31 129.46 187.13 128.91 187.29 128.06 L 187.48 127.10 C 187.64 126.25 187.09 125.43 186.24 125.27 C 185.40 125.10 184.58 125.66 184.41 126.50 Z M 184.22 127.48 L 184.04 128.44 C 183.89 129.29 184.45 130.10 185.29 130.26 C 186.14 130.42 186.96 129.86 187.11 129.01 L 187.29 128.05 C 187.45 127.20 186.89 126.38 186.04 126.23 C 185.20 126.07 184.38 126.63 184.22 127.48 Z M 184.04 128.45 L 183.86 129.44 C 183.71 130.29 184.28 131.10 185.12 131.25 C 185.97 131.41 186.78 130.84 186.94 129.99 L 187.12 129.00 C 187.27 128.15 186.70 127.34 185.86 127.19 C 185.01 127.04 184.20 127.60 184.04 128.45 Z M 183.86 129.45 L 183.68 130.46 C 183.53 131.31 184.10 132.12 184.95 132.27 C 185.80 132.42 186.61 131.85 186.76 131.00 L 186.94 129.99 C 187.09 129.14 186.52 128.33 185.67 128.18 C 184.82 128.03 184.01 128.60 183.86 129.45 Z M 183.68 130.46 L 183.51 131.46 C 183.36 132.31 183.93 133.12 184.77 133.27 C 185.62 133.42 186.43 132.85 186.58 132.00 L 186.76 131.00 C 186.91 130.15 186.34 129.34 185.49 129.19 C 184.64 129.04 183.83 129.61 183.68 130.46 Z M 183.51 131.46 L 183.34 132.43 C 183.19 133.28 183.75 134.09 184.60 134.24 C 185.45 134.39 186.26 133.82 186.41 132.97 L 186.58 132.00 C 186.73 131.15 186.17 130.34 185.32 130.19 C 184.47 130.04 183.66 130.61 183.51 131.46 Z M 183.34 132.43 L 183.16 133.40 C 183.01 134.25 183.57 135.06 184.42 135.22 C 185.27 135.37 186.08 134.80 186.23 133.96 L 186.41 132.98 C 186.56 132.13 186.00 131.32 185.15 131.16 C 184.30 131.01 183.49 131.58 183.34 132.43 Z M 183.16 133.40 L 182.98 134.39 C 182.83 135.24 183.39 136.05 184.24 136.21 C 185.09 136.36 185.90 135.80 186.05 134.95 L 186.23 133.96 C 186.39 133.11 185.83 132.30 184.98 132.14 C 184.13 131.99 183.32 132.55 183.16 133.40 Z M 182.98 134.38 L 182.80 135.38 C 182.64 136.23 183.20 137.05 184.05 137.20 C 184.89 137.36 185.71 136.80 185.87 135.95 L 186.05 134.95 C 186.21 134.11 185.65 133.29 184.80 133.13 C 183.95 132.98 183.14 133.54 182.98 134.38 Z M 182.80 135.38 L 182.61 136.35 C 182.45 137.20 183.01 138.01 183.86 138.17 C 184.70 138.33 185.52 137.78 185.68 136.93 L 185.86 135.96 C 186.03 135.11 185.47 134.30 184.62 134.14 C 183.78 133.97 182.96 134.53 182.80 135.38 Z M 182.61 136.34 L 182.43 137.32 C 182.26 138.16 182.82 138.98 183.66 139.15 C 184.51 139.31 185.33 138.76 185.49 137.91 L 185.68 136.94 C 185.84 136.09 185.29 135.27 184.44 135.11 C 183.60 134.94 182.78 135.50 182.61 136.34 Z M 182.43 137.31 L 182.23 138.30 C 182.07 139.14 182.62 139.96 183.47 140.13 C 184.32 140.29 185.13 139.74 185.30 138.89 L 185.49 137.91 C 185.66 137.07 185.10 136.25 184.26 136.08 C 183.41 135.92 182.59 136.47 182.43 137.31 Z M 182.23 138.30 L 182.04 139.29 C 181.88 140.13 182.43 140.95 183.28 141.12 C 184.12 141.28 184.94 140.73 185.11 139.88 L 185.30 138.89 C 185.46 138.05 184.91 137.23 184.07 137.06 C 183.22 136.90 182.40 137.45 182.23 138.30 Z M 182.04 139.29 L 181.85 140.28 C 181.68 141.13 182.24 141.95 183.08 142.11 C 183.93 142.28 184.75 141.72 184.91 140.88 L 185.11 139.88 C 185.27 139.04 184.72 138.22 183.87 138.05 C 183.02 137.89 182.21 138.44 182.04 139.29 Z M 181.85 140.29 L 181.66 141.27 C 181.50 142.11 182.05 142.93 182.90 143.09 C 183.75 143.26 184.56 142.70 184.73 141.85 L 184.91 140.88 C 185.08 140.03 184.52 139.21 183.67 139.05 C 182.83 138.89 182.01 139.44 181.85 140.29 Z M 181.66 141.27 L 181.47 142.25 C 181.31 143.10 181.87 143.92 182.72 144.08 C 183.56 144.24 184.38 143.68 184.54 142.84 L 184.73 141.85 C 184.89 141.01 184.33 140.19 183.49 140.03 C 182.64 139.87 181.82 140.42 181.66 141.27 Z M 181.47 142.25 L 181.29 143.24 C 181.13 144.08 181.68 144.90 182.53 145.06 C 183.38 145.22 184.19 144.67 184.35 143.82 L 184.54 142.83 C 184.70 141.99 184.14 141.17 183.30 141.01 C 182.45 140.85 181.63 141.41 181.47 142.25 Z M 181.29 143.24 L 181.10 144.22 C 180.94 145.07 181.50 145.88 182.34 146.05 C 183.19 146.21 184.01 145.65 184.17 144.80 L 184.35 143.82 C 184.52 142.97 183.96 142.16 183.11 141.99 C 182.26 141.83 181.45 142.39 181.29 143.24 Z M 181.10 144.22 L 180.91 145.20 C 180.75 146.05 181.31 146.87 182.15 147.03 C 183.00 147.19 183.82 146.64 183.98 145.79 L 184.17 144.81 C 184.33 143.96 183.77 143.14 182.93 142.98 C 182.08 142.82 181.26 143.37 181.10 144.22 Z M 180.91 145.20 L 180.72 146.20 C 180.55 147.05 181.11 147.87 181.95 148.03 C 182.80 148.20 183.62 147.64 183.78 146.80 L 183.98 145.79 C 184.14 144.95 183.59 144.13 182.74 143.96 C 181.90 143.80 181.08 144.35 180.91 145.20 Z M 180.72 146.20 L 180.52 147.19 C 180.36 148.04 180.91 148.86 181.76 149.03 C 182.60 149.19 183.42 148.64 183.59 147.79 L 183.78 146.80 C 183.95 145.95 183.40 145.13 182.55 144.97 C 181.71 144.80 180.89 145.35 180.72 146.20 Z M 180.52 147.19 L 180.33 148.17 C 180.16 149.02 180.71 149.84 181.56 150.01 C 182.40 150.18 183.22 149.63 183.39 148.78 L 183.59 147.80 C 183.76 146.95 183.21 146.13 182.36 145.96 C 181.52 145.79 180.69 146.34 180.52 147.19 Z M 180.33 148.17 L 180.14 149.13 C 179.96 149.98 180.51 150.80 181.36 150.97 C 182.20 151.14 183.03 150.60 183.20 149.75 L 183.39 148.79 C 183.56 147.94 183.02 147.12 182.17 146.95 C 181.32 146.78 180.50 147.32 180.33 148.17 Z M 180.14 149.13 L 179.94 150.08 C 179.77 150.93 180.31 151.75 181.16 151.93 C 182.00 152.10 182.83 151.55 183.00 150.71 L 183.19 149.76 C 183.37 148.91 182.82 148.09 181.98 147.91 C 181.14 147.74 180.31 148.28 180.14 149.13 Z M 179.94 150.08 L 179.74 151.04 C 179.56 151.89 180.10 152.71 180.95 152.89 C 181.79 153.07 182.62 152.52 182.80 151.68 L 183.00 150.72 C 183.17 149.87 182.63 149.04 181.79 148.87 C 180.95 148.69 180.12 149.23 179.94 150.08 Z M 179.74 151.04 L 179.54 152.00 C 179.36 152.84 179.89 153.67 180.74 153.85 C 181.58 154.03 182.41 153.49 182.59 152.65 L 182.79 151.69 C 182.97 150.84 182.44 150.01 181.59 149.83 C 180.75 149.65 179.92 150.19 179.74 151.04 Z M 179.54 151.99 L 179.33 152.96 C 179.14 153.80 179.68 154.64 180.52 154.82 C 181.37 155.00 182.20 154.46 182.38 153.62 L 182.59 152.65 C 182.77 151.81 182.24 150.98 181.39 150.79 C 180.55 150.61 179.72 151.15 179.54 151.99 Z M 179.33 152.96 L 179.11 153.96 C 178.92 154.80 179.46 155.63 180.30 155.82 C 181.14 156.00 181.97 155.47 182.16 154.63 L 182.38 153.63 C 182.56 152.78 182.03 151.95 181.19 151.77 C 180.35 151.58 179.51 152.11 179.33 152.96 Z M 179.11 153.95 L 178.89 154.92 C 178.71 155.76 179.24 156.60 180.08 156.78 C 180.92 156.97 181.75 156.44 181.94 155.60 L 182.16 154.63 C 182.34 153.79 181.81 152.95 180.97 152.77 C 180.13 152.58 179.30 153.11 179.11 153.95 Z M 178.89 154.92 L 178.68 155.88 C 178.49 156.73 179.02 157.56 179.86 157.75 C 180.70 157.94 181.54 157.41 181.72 156.57 L 181.94 155.60 C 182.13 154.76 181.60 153.93 180.76 153.74 C 179.92 153.55 179.08 154.08 178.89 154.92 Z M 178.68 155.88 L 178.46 156.87 C 178.27 157.71 178.79 158.54 179.64 158.73 C 180.48 158.92 181.31 158.40 181.50 157.55 L 181.72 156.57 C 181.91 155.73 181.39 154.89 180.54 154.70 C 179.70 154.51 178.87 155.04 178.68 155.88 Z M 178.46 156.87 L 178.23 157.86 C 178.04 158.70 178.57 159.53 179.41 159.72 C 180.25 159.92 181.09 159.39 181.28 158.55 L 181.50 157.56 C 181.69 156.71 181.17 155.88 180.32 155.69 C 179.48 155.50 178.65 156.02 178.46 156.87 Z M 178.23 157.86 L 178.01 158.84 C 177.82 159.68 178.34 160.52 179.18 160.71 C 180.03 160.90 180.86 160.37 181.05 159.53 L 181.28 158.55 C 181.47 157.71 180.94 156.87 180.10 156.68 C 179.26 156.49 178.42 157.02 178.23 157.86 Z M 178.01 158.84 L 177.78 159.83 C 177.59 160.67 178.12 161.51 178.96 161.70 C 179.80 161.89 180.64 161.37 180.83 160.53 L 181.05 159.53 C 181.24 158.69 180.72 157.86 179.88 157.66 C 179.04 157.47 178.20 158.00 178.01 158.84 Z M 177.78 159.83 L 177.56 160.82 C 177.37 161.66 177.89 162.50 178.73 162.69 C 179.57 162.88 180.41 162.36 180.60 161.52 L 180.83 160.53 C 181.02 159.68 180.49 158.85 179.65 158.66 C 178.81 158.47 177.97 158.99 177.78 159.83 Z M 177.56 160.82 L 177.34 161.80 C 177.14 162.64 177.67 163.47 178.51 163.66 C 179.35 163.86 180.19 163.33 180.38 162.49 L 180.60 161.52 C 180.79 160.67 180.27 159.84 179.43 159.65 C 178.58 159.46 177.75 159.98 177.56 160.82 Z M 177.34 161.80 L 177.12 162.76 C 176.93 163.60 177.45 164.44 178.29 164.63 C 179.14 164.82 179.97 164.29 180.16 163.45 L 180.38 162.49 C 180.57 161.65 180.04 160.81 179.20 160.62 C 178.36 160.43 177.53 160.96 177.34 161.80 Z M 177.12 162.76 L 176.90 163.72 C 176.71 164.56 177.24 165.40 178.08 165.59 C 178.92 165.78 179.76 165.25 179.95 164.41 L 180.16 163.45 C 180.35 162.61 179.82 161.77 178.98 161.58 C 178.14 161.39 177.31 161.92 177.12 162.76 Z M 176.90 163.72 L 176.68 164.69 C 176.50 165.53 177.03 166.36 177.87 166.55 C 178.71 166.74 179.54 166.21 179.73 165.37 L 179.95 164.41 C 180.14 163.57 179.61 162.73 178.76 162.54 C 177.92 162.35 177.09 162.88 176.90 163.72 Z M 176.68 164.69 L 176.47 165.65 C 176.28 166.50 176.81 167.33 177.65 167.52 C 178.50 167.70 179.33 167.17 179.52 166.33 L 179.73 165.37 C 179.92 164.53 179.39 163.69 178.55 163.50 C 177.71 163.32 176.87 163.85 176.68 164.69 Z M 176.47 165.66 L 176.25 166.63 C 176.07 167.47 176.60 168.31 177.44 168.49 C 178.28 168.68 179.12 168.15 179.30 167.30 L 179.52 166.33 C 179.70 165.49 179.17 164.66 178.33 164.47 C 177.49 164.28 176.65 164.82 176.47 165.66 Z M 176.25 166.63 L 176.04 167.61 C 175.85 168.46 176.39 169.29 177.23 169.47 C 178.07 169.66 178.90 169.13 179.09 168.28 L 179.30 167.30 C 179.49 166.46 178.95 165.63 178.11 165.44 C 177.27 165.26 176.44 165.79 176.25 166.63 Z M 176.04 167.62 L 175.82 168.61 C 175.64 169.45 176.17 170.28 177.02 170.46 C 177.86 170.65 178.69 170.11 178.87 169.27 L 179.09 168.28 C 179.27 167.44 178.74 166.61 177.89 166.42 C 177.05 166.24 176.22 166.78 176.04 167.62 Z M 175.82 168.61 L 175.61 169.58 C 175.43 170.42 175.97 171.25 176.81 171.44 C 177.65 171.62 178.48 171.08 178.66 170.24 L 178.87 169.27 C 179.06 168.42 178.52 167.59 177.68 167.41 C 176.83 167.23 176.00 167.77 175.82 168.61 Z M 175.61 169.58 L 175.41 170.55 C 175.23 171.40 175.76 172.23 176.61 172.41 C 177.45 172.59 178.28 172.05 178.46 171.20 L 178.67 170.24 C 178.85 169.39 178.31 168.56 177.46 168.38 C 176.62 168.20 175.79 168.74 175.61 169.58 Z M 175.40 170.56 L 175.20 171.53 C 175.02 172.38 175.56 173.20 176.40 173.38 C 177.25 173.56 178.07 173.02 178.25 172.18 L 178.46 171.20 C 178.64 170.36 178.10 169.53 177.26 169.35 C 176.41 169.17 175.58 169.71 175.40 170.56 Z M 175.20 171.53 L 174.99 172.52 C 174.81 173.36 175.35 174.19 176.20 174.37 C 177.04 174.54 177.87 174.00 178.05 173.16 L 178.25 172.18 C 178.43 171.33 177.89 170.50 177.05 170.33 C 176.20 170.15 175.37 170.69 175.20 171.53 Z M 174.99 172.52 L 174.78 173.51 C 174.61 174.35 175.15 175.18 175.99 175.36 C 176.84 175.53 177.66 174.99 177.84 174.15 L 178.05 173.16 C 178.22 172.31 177.68 171.49 176.84 171.31 C 175.99 171.13 175.17 171.68 174.99 172.52 Z M 174.78 173.51 L 174.58 174.50 C 174.40 175.35 174.94 176.17 175.79 176.35 C 176.63 176.52 177.46 175.98 177.63 175.14 L 177.84 174.15 C 178.02 173.30 177.47 172.48 176.63 172.30 C 175.78 172.13 174.96 172.67 174.78 173.51 Z M 174.58 174.51 L 174.37 175.50 C 174.20 176.34 174.74 177.17 175.59 177.34 C 176.43 177.51 177.26 176.97 177.43 176.13 L 177.64 175.14 C 177.81 174.29 177.27 173.47 176.42 173.29 C 175.58 173.12 174.75 173.66 174.58 174.51 Z M 174.37 175.50 L 174.17 176.49 C 174.00 177.33 174.55 178.16 175.39 178.33 C 176.24 178.50 177.06 177.96 177.23 177.11 L 177.43 176.12 C 177.60 175.28 177.06 174.45 176.21 174.28 C 175.37 174.11 174.54 174.66 174.37 175.50 Z M 174.17 176.49 L 173.97 177.48 C 173.81 178.32 174.35 179.14 175.20 179.31 C 176.05 179.48 176.87 178.93 177.04 178.09 L 177.23 177.11 C 177.40 176.26 176.85 175.44 176.01 175.27 C 175.16 175.10 174.34 175.65 174.17 176.49 Z M 173.97 177.48 L 173.78 178.45 C 173.62 179.30 174.17 180.12 175.02 180.28 C 175.86 180.45 176.68 179.90 176.85 179.05 L 177.04 178.08 C 177.20 177.23 176.65 176.41 175.80 176.25 C 174.96 176.08 174.14 176.64 173.97 177.48 Z M 173.78 178.46 L 173.60 179.43 C 173.44 180.28 173.99 181.10 174.84 181.26 C 175.69 181.42 176.51 180.86 176.67 180.01 L 176.85 179.04 C 177.01 178.19 176.45 177.38 175.61 177.22 C 174.76 177.06 173.94 177.61 173.78 178.46 Z M 173.60 179.44 L 173.42 180.42 C 173.26 181.27 173.82 182.08 174.67 182.24 C 175.52 182.40 176.33 181.84 176.49 180.99 L 176.67 180.01 C 176.82 179.16 176.26 178.34 175.42 178.19 C 174.57 178.03 173.75 178.59 173.60 179.44 Z M 173.41 180.43 L 173.24 181.40 C 173.08 182.25 173.65 183.06 174.50 183.21 C 175.34 183.37 176.16 182.81 176.31 181.96 L 176.49 180.98 C 176.64 180.14 176.08 179.32 175.23 179.17 C 174.38 179.01 173.57 179.58 173.41 180.43 Z M 173.24 181.40 L 173.06 182.38 C 172.91 183.22 173.47 184.04 174.32 184.19 C 175.17 184.34 175.98 183.78 176.13 182.93 L 176.31 181.96 C 176.46 181.11 175.90 180.30 175.05 180.14 C 174.20 179.99 173.39 180.55 173.24 181.40 Z M 173.06 182.37 L 172.88 183.36 C 172.72 184.21 173.29 185.02 174.13 185.18 C 174.98 185.34 175.80 184.77 175.95 183.93 L 176.13 182.94 C 176.29 182.09 175.73 181.27 174.88 181.12 C 174.03 180.96 173.22 181.53 173.06 182.37 Z M 172.88 183.36 L 172.70 184.34 C 172.54 185.19 173.10 186.01 173.94 186.16 C 174.79 186.32 175.61 185.77 175.77 184.92 L 175.95 183.93 C 176.11 183.08 175.55 182.27 174.70 182.11 C 173.86 181.95 173.04 182.51 172.88 183.36 Z M 172.70 184.34 L 172.51 185.32 C 172.35 186.17 172.90 186.99 173.75 187.15 C 174.60 187.31 175.41 186.76 175.58 185.91 L 175.76 184.92 C 175.93 184.08 175.37 183.26 174.52 183.10 C 173.68 182.93 172.86 183.49 172.70 184.34 Z M 172.51 185.32 L 172.32 186.31 C 172.15 187.16 172.71 187.98 173.55 188.14 C 174.40 188.30 175.22 187.75 175.38 186.90 L 175.58 185.91 C 175.74 185.07 175.19 184.25 174.34 184.08 C 173.49 183.92 172.67 184.47 172.51 185.32 Z M 172.32 186.31 L 172.13 187.30 C 171.96 188.15 172.51 188.97 173.36 189.13 C 174.21 189.30 175.03 188.74 175.19 187.90 L 175.38 186.91 C 175.55 186.06 174.99 185.24 174.15 185.08 C 173.30 184.91 172.48 185.46 172.32 186.31 Z M 172.12 187.30 L 171.94 188.28 C 171.77 189.13 172.33 189.95 173.17 190.11 C 174.02 190.27 174.84 189.72 175.00 188.87 L 175.19 187.89 C 175.35 187.05 174.80 186.23 173.95 186.07 C 173.11 185.90 172.29 186.46 172.12 187.30 Z M 171.94 188.29 L 171.75 189.29 C 171.58 190.13 172.14 190.95 172.99 191.11 C 173.83 191.27 174.65 190.72 174.81 189.87 L 175.00 188.87 C 175.16 188.02 174.61 187.20 173.76 187.04 C 172.91 186.88 172.10 187.44 171.94 188.29 Z M 171.74 189.29 L 171.55 190.32 C 171.40 191.17 171.95 191.99 172.80 192.14 C 173.65 192.30 174.47 191.74 174.62 190.89 L 174.81 189.86 C 174.97 189.01 174.41 188.20 173.56 188.04 C 172.72 187.89 171.90 188.45 171.74 189.29 Z M 171.55 190.33 L 171.37 191.33 C 171.22 192.17 171.78 192.99 172.63 193.14 C 173.48 193.30 174.29 192.73 174.44 191.88 L 174.62 190.89 C 174.78 190.04 174.21 189.23 173.37 189.07 C 172.52 188.92 171.71 189.48 171.55 190.33 Z M 171.37 191.33 L 171.20 192.29 C 171.05 193.14 171.61 193.95 172.46 194.10 C 173.31 194.26 174.12 193.69 174.27 192.84 L 174.44 191.88 C 174.59 191.03 174.03 190.22 173.18 190.07 C 172.33 189.92 171.52 190.48 171.37 191.33 Z M 171.20 192.30 L 171.03 193.23 C 170.88 194.07 171.45 194.88 172.30 195.03 C 173.15 195.18 173.96 194.62 174.11 193.77 L 174.27 192.84 C 174.42 191.99 173.85 191.18 173.01 191.03 C 172.16 190.88 171.35 191.45 171.20 192.30 Z M 171.03 193.23 L 170.86 194.22 C 170.71 195.07 171.28 195.88 172.13 196.03 C 172.98 196.17 173.79 195.61 173.94 194.76 L 174.11 193.76 C 174.26 192.91 173.69 192.11 172.84 191.96 C 171.99 191.81 171.18 192.38 171.03 193.23 Z M 170.86 194.22 L 170.69 195.21 C 170.55 196.06 171.12 196.87 171.97 197.01 C 172.82 197.16 173.62 196.59 173.77 195.74 L 173.94 194.75 C 174.08 193.90 173.51 193.10 172.66 192.95 C 171.81 192.80 171.01 193.37 170.86 194.22 Z M 170.69 195.21 L 170.53 196.19 C 170.38 197.04 170.96 197.84 171.81 197.99 C 172.66 198.13 173.46 197.56 173.60 196.71 L 173.77 195.73 C 173.91 194.88 173.34 194.08 172.49 193.93 C 171.64 193.79 170.83 194.36 170.69 195.21 Z M 170.53 196.19 L 170.36 197.17 C 170.22 198.02 170.80 198.83 171.65 198.97 C 172.50 199.11 173.30 198.53 173.44 197.68 L 173.61 196.70 C 173.75 195.85 173.17 195.05 172.32 194.91 C 171.47 194.77 170.67 195.34 170.53 196.19 Z M 170.36 197.18 L 170.20 198.16 C 170.07 199.01 170.65 199.81 171.50 199.95 C 172.35 200.08 173.15 199.50 173.29 198.65 L 173.44 197.68 C 173.58 196.82 173.00 196.02 172.15 195.88 C 171.30 195.75 170.50 196.33 170.36 197.18 Z M 170.20 198.16 L 170.05 199.15 C 169.91 200.00 170.49 200.80 171.35 200.93 C 172.20 201.07 173.00 200.49 173.13 199.64 L 173.29 198.65 C 173.42 197.80 172.84 197.00 171.99 196.86 C 171.14 196.73 170.34 197.31 170.20 198.16 Z M 170.05 199.15 L 169.89 200.15 C 169.76 201.00 170.35 201.80 171.20 201.93 C 172.05 202.06 172.85 201.48 172.98 200.63 L 173.13 199.63 C 173.26 198.78 172.68 197.98 171.83 197.85 C 170.98 197.72 170.18 198.30 170.05 199.15 Z M 169.89 200.15 L 169.74 201.15 C 169.61 202.00 170.20 202.80 171.05 202.92 C 171.91 203.05 172.70 202.46 172.83 201.61 L 172.98 200.62 C 173.11 199.77 172.52 198.97 171.67 198.84 C 170.82 198.71 170.02 199.30 169.89 200.15 Z M 169.74 201.15 L 169.60 202.15 C 169.47 203.01 170.06 203.80 170.91 203.93 C 171.77 204.05 172.56 203.46 172.68 202.61 L 172.83 201.61 C 172.96 200.75 172.37 199.96 171.51 199.83 C 170.66 199.71 169.87 200.30 169.74 201.15 Z M 169.59 202.16 L 169.45 203.16 C 169.33 204.02 169.92 204.81 170.78 204.93 C 171.63 205.05 172.42 204.46 172.54 203.60 L 172.69 202.60 C 172.81 201.75 172.21 200.96 171.36 200.84 C 170.51 200.71 169.72 201.31 169.59 202.16 Z M 169.45 203.17 L 169.31 204.15 C 169.19 205.01 169.79 205.80 170.64 205.92 C 171.50 206.04 172.29 205.44 172.41 204.59 L 172.54 203.60 C 172.66 202.74 172.07 201.95 171.21 201.84 C 170.36 201.72 169.57 202.31 169.45 203.17 Z M 169.31 204.16 L 169.18 205.14 C 169.06 205.99 169.66 206.78 170.51 206.89 C 171.37 207.01 172.16 206.41 172.27 205.56 L 172.41 204.58 C 172.52 203.73 171.93 202.94 171.07 202.82 C 170.22 202.71 169.43 203.30 169.31 204.16 Z M 169.18 205.14 L 169.04 206.13 C 168.93 206.99 169.53 207.77 170.38 207.89 C 171.24 208.01 172.02 207.41 172.14 206.55 L 172.27 205.56 C 172.39 204.70 171.79 203.92 170.94 203.80 C 170.08 203.69 169.29 204.28 169.18 205.14 Z M 169.04 206.13 L 168.91 207.14 C 168.79 208.00 169.39 208.78 170.25 208.90 C 171.10 209.01 171.89 208.41 172.00 207.56 L 172.14 206.55 C 172.25 205.70 171.65 204.91 170.80 204.80 C 169.95 204.68 169.16 205.28 169.04 206.13 Z M 168.91 207.14 L 168.77 208.13 C 168.66 208.98 169.25 209.77 170.11 209.89 C 170.96 210.00 171.75 209.41 171.87 208.55 L 172.00 207.56 C 172.12 206.71 171.52 205.92 170.67 205.80 C 169.81 205.69 169.03 206.28 168.91 207.14 Z M 168.77 208.12 L 168.64 209.09 C 168.52 209.95 169.11 210.74 169.97 210.86 C 170.82 210.98 171.61 210.38 171.73 209.53 L 171.87 208.56 C 171.99 207.70 171.39 206.91 170.54 206.79 C 169.68 206.68 168.89 207.27 168.77 208.12 Z M 168.64 209.09 L 168.50 210.01 C 168.38 210.87 168.97 211.66 169.82 211.78 C 170.68 211.91 171.47 211.32 171.59 210.46 L 171.73 209.54 C 171.85 208.68 171.26 207.89 170.41 207.77 C 169.56 207.64 168.76 208.23 168.64 209.09 Z M 168.50 210.01 L 168.37 210.94 C 168.25 211.79 168.84 212.58 169.69 212.71 C 170.54 212.83 171.33 212.24 171.46 211.39 L 171.59 210.46 C 171.72 209.61 171.13 208.82 170.27 208.69 C 169.42 208.57 168.63 209.16 168.50 210.01 Z M 168.37 210.95 L 168.23 211.93 C 168.11 212.78 168.71 213.57 169.57 213.69 C 170.42 213.80 171.21 213.21 171.33 212.35 L 171.46 211.38 C 171.58 210.52 170.98 209.73 170.13 209.62 C 169.27 209.50 168.49 210.09 168.37 210.95 Z M 168.23 211.95 L 168.10 213.03 C 167.99 213.88 168.60 214.66 169.45 214.77 C 170.31 214.87 171.09 214.27 171.19 213.41 L 171.33 212.33 C 171.44 211.48 170.83 210.70 169.97 210.59 C 169.12 210.48 168.34 211.09 168.23 211.95 Z M 168.09 213.05 L 167.99 214.02 C 167.89 214.88 168.51 215.65 169.37 215.75 C 170.22 215.84 171.00 215.22 171.09 214.37 L 171.20 213.39 C 171.29 212.53 170.67 211.76 169.82 211.67 C 168.96 211.57 168.19 212.19 168.09 213.05 Z M 167.98 214.04 L 167.89 215.01 C 167.80 215.86 168.43 216.63 169.29 216.71 C 170.15 216.80 170.91 216.17 171.00 215.31 L 171.09 214.35 C 171.18 213.49 170.55 212.73 169.69 212.64 C 168.83 212.56 168.07 213.18 167.98 214.04 Z M 167.89 215.02 L 167.80 216.03 C 167.72 216.89 168.35 217.65 169.21 217.73 C 170.07 217.80 170.83 217.17 170.90 216.31 L 171.00 215.30 C 171.07 214.44 170.44 213.68 169.58 213.61 C 168.72 213.53 167.97 214.16 167.89 215.02 Z M 167.79 216.04 L 167.71 217.07 C 167.63 217.93 168.27 218.69 169.13 218.76 C 169.99 218.83 170.75 218.19 170.82 217.34 L 170.91 216.30 C 170.98 215.44 170.34 214.69 169.48 214.62 C 168.62 214.54 167.87 215.18 167.79 216.04 Z M 167.71 217.08 L 167.63 218.11 C 167.56 218.97 168.20 219.72 169.06 219.79 C 169.92 219.86 170.67 219.22 170.74 218.36 L 170.82 217.33 C 170.89 216.47 170.24 215.72 169.38 215.65 C 168.52 215.58 167.77 216.22 167.71 217.08 Z M 167.63 218.12 L 167.55 219.16 C 167.49 220.02 168.14 220.76 169.00 220.83 C 169.86 220.89 170.60 220.24 170.67 219.38 L 170.74 218.35 C 170.80 217.49 170.15 216.74 169.29 216.68 C 168.43 216.62 167.69 217.26 167.63 218.12 Z M 167.55 219.17 L 167.48 220.21 C 167.43 221.07 168.08 221.82 168.94 221.87 C 169.80 221.93 170.54 221.28 170.60 220.42 L 170.67 219.37 C 170.72 218.51 170.07 217.77 169.21 217.71 C 168.35 217.65 167.61 218.31 167.55 219.17 Z M 167.48 220.22 L 167.42 221.23 C 167.37 222.09 168.03 222.83 168.89 222.88 C 169.75 222.93 170.49 222.27 170.54 221.41 L 170.60 220.40 C 170.65 219.54 169.99 218.80 169.13 218.75 C 168.27 218.71 167.53 219.36 167.48 220.22 Z M 167.42 221.25 L 167.38 222.23 C 167.33 223.09 168.00 223.82 168.86 223.86 C 169.72 223.90 170.45 223.24 170.49 222.38 L 170.54 221.40 C 170.58 220.54 169.92 219.80 169.06 219.76 C 168.20 219.72 167.46 220.38 167.42 221.25 Z M 167.37 222.24 L 167.34 223.20 C 167.30 224.06 167.98 224.79 168.84 224.82 C 169.70 224.86 170.42 224.18 170.46 223.32 L 170.49 222.36 C 170.53 221.50 169.86 220.77 168.99 220.74 C 168.13 220.71 167.41 221.38 167.37 222.24 Z M 167.34 223.22 L 167.31 224.38 C 167.28 225.25 167.96 225.96 168.82 225.99 C 169.69 226.01 170.40 225.33 170.43 224.47 L 170.46 223.30 C 170.48 222.44 169.80 221.72 168.94 221.70 C 168.08 221.68 167.36 222.36 167.34 223.22 Z M 167.31 224.40 L 167.29 225.73 C 167.27 226.59 167.96 227.30 168.83 227.31 C 169.69 227.33 170.40 226.64 170.41 225.77 L 170.43 224.45 C 170.44 223.59 169.75 222.88 168.89 222.86 C 168.03 222.85 167.32 223.54 167.31 224.40 Z M 167.29 225.75 L 167.29 226.70 C 167.29 227.57 167.98 228.27 168.85 228.27 C 169.71 228.27 170.41 227.57 170.41 226.71 L 170.41 225.75 C 170.41 224.89 169.71 224.19 168.85 224.19 C 167.99 224.19 167.29 224.89 167.29 225.75 Z M 167.29 226.77 L 167.30 227.10 C 167.34 227.96 168.07 228.62 168.93 228.59 C 169.79 228.55 170.46 227.82 170.42 226.96 L 170.41 226.64 C 170.37 225.77 169.64 225.11 168.78 225.15 C 167.92 225.18 167.25 225.91 167.29 226.77 Z M 170.42 227.10 L 170.45 226.50 C 170.49 225.64 169.83 224.90 168.97 224.86 C 168.11 224.82 167.37 225.48 167.33 226.34 L 167.30 226.95 C 167.26 227.81 167.92 228.54 168.78 228.59 C 169.65 228.63 170.38 227.96 170.42 227.10 Z M 170.45 226.47 L 170.49 225.19 C 170.52 224.33 169.84 223.61 168.98 223.59 C 168.11 223.56 167.40 224.24 167.37 225.10 L 167.33 226.37 C 167.30 227.23 167.98 227.95 168.84 227.98 C 169.71 228.01 170.43 227.33 170.45 226.47 Z M 170.49 225.19 L 170.51 224.53 C 170.53 223.67 169.85 222.95 168.99 222.93 C 168.13 222.91 167.41 223.58 167.39 224.45 L 167.37 225.10 C 167.35 225.96 168.02 226.68 168.89 226.71 C 169.75 226.73 170.47 226.05 170.49 225.19 Z"
      fill="black"
      fill-rule="nonzero" /></svg>