<svg xmlns="http://www.w3.org/2000/svg" width="300" height="300" viewBox="0 0 300 300">
<path d="M 193.93 86.41 L 193.13 85.88 C 192.41 85.41 191.44 85.61 190.97 86.33 C 190.49 87.05 190.69 88.01 191.41 88.49 L 192.21 89.02 C 192.93 89.49 193.90 89.29 194.37 88.57 C 194.85 87.85 194.65 86.88 193.93 86.41 Z M 193.19 85.92 L 192.40 85.35 C 191.71 84.84 190.73 85.00 190.22 85.70 C 189.72 86.39 189.87 87.37 190.57 87.88 L 191.35 88.45 C 192.05 88.96 193.03 88.80 193.53 88.10 C 194.04 87.41 193.89 86.43 193.19 85.92 Z M 192.51 85.44 L 191.75 84.77 C 191.10 84.21 190.11 84.28 189.55 84.93 C 188.98 85.58 189.05 86.56 189.70 87.13 L 190.46 87.79 C 191.11 88.36 192.10 88.29 192.66 87.64 C 193.23 86.99 193.16 86.00 192.51 85.44 Z M 191.88 84.90 L 191.17 84.12 C 190.59 83.49 189.60 83.44 188.97 84.02 C 188.33 84.60 188.28 85.59 188.86 86.23 L 189.57 87.00 C 190.15 87.64 191.14 87.69 191.77 87.11 C 192.41 86.52 192.46 85.54 191.88 84.90 Z M 191.27 84.25 L 190.69 83.45 C 190.18 82.76 189.20 82.61 188.50 83.12 C 187.81 83.63 187.66 84.61 188.17 85.31 L 188.76 86.10 C 189.27 86.80 190.25 86.94 190.94 86.43 C 191.64 85.92 191.79 84.95 191.27 84.25 Z M 190.74 83.52 L 190.17 82.67 C 189.70 81.94 188.73 81.74 188.01 82.22 C 187.29 82.69 187.09 83.66 187.56 84.38 L 188.13 85.24 C 188.60 85.96 189.57 86.16 190.29 85.69 C 191.01 85.21 191.21 84.24 190.74 83.52 Z M 190.19 82.68 L 189.64 81.82 C 189.17 81.09 188.21 80.88 187.48 81.34 C 186.75 81.80 186.54 82.77 187.00 83.49 L 187.55 84.36 C 188.01 85.09 188.98 85.30 189.70 84.84 C 190.43 84.38 190.65 83.41 190.19 82.68 Z M 189.62 81.79 L 189.07 80.98 C 188.60 80.26 187.63 80.06 186.91 80.54 C 186.19 81.02 186.00 81.99 186.48 82.71 L 187.02 83.52 C 187.50 84.24 188.47 84.43 189.18 83.96 C 189.90 83.48 190.10 82.51 189.62 81.79 Z M 189.01 80.88 L 188.36 80.05 C 187.83 79.37 186.85 79.25 186.17 79.78 C 185.49 80.31 185.37 81.29 185.90 81.97 L 186.54 82.80 C 187.07 83.48 188.05 83.60 188.73 83.07 C 189.41 82.54 189.54 81.56 189.01 80.88 Z M 188.24 79.91 L 187.52 79.19 C 186.92 78.58 185.93 78.58 185.32 79.19 C 184.70 79.79 184.70 80.78 185.31 81.39 L 186.02 82.11 C 186.63 82.72 187.62 82.73 188.23 82.12 C 188.84 81.51 188.84 80.52 188.24 79.91 Z M 187.36 79.05 L 186.59 78.47 C 185.90 77.95 184.93 78.09 184.41 78.78 C 183.89 79.46 184.02 80.44 184.71 80.96 L 185.48 81.54 C 186.16 82.06 187.14 81.92 187.66 81.23 C 188.18 80.55 188.04 79.57 187.36 79.05 Z M 186.40 78.35 L 185.57 77.89 C 184.81 77.47 183.86 77.75 183.45 78.50 C 183.03 79.26 183.31 80.21 184.06 80.62 L 184.90 81.09 C 185.66 81.50 186.60 81.22 187.02 80.47 C 187.44 79.71 187.16 78.76 186.40 78.35 Z M 185.40 77.81 L 184.47 77.44 C 183.67 77.12 182.76 77.51 182.44 78.31 C 182.12 79.11 182.51 80.02 183.31 80.34 L 184.24 80.71 C 185.04 81.03 185.94 80.64 186.26 79.84 C 186.59 79.04 186.20 78.13 185.40 77.81 Z M 184.34 77.39 L 183.37 77.10 C 182.55 76.85 181.68 77.32 181.43 78.15 C 181.18 78.97 181.65 79.84 182.47 80.09 L 183.44 80.38 C 184.27 80.63 185.14 80.16 185.39 79.34 C 185.64 78.51 185.17 77.64 184.34 77.39 Z M 183.28 77.08 L 182.30 76.85 C 181.46 76.65 180.62 77.17 180.43 78.01 C 180.23 78.85 180.75 79.69 181.59 79.88 L 182.57 80.11 C 183.40 80.31 184.24 79.79 184.44 78.95 C 184.64 78.11 184.12 77.27 183.28 77.08 Z M 182.24 76.83 L 181.26 76.64 C 180.41 76.48 179.59 77.03 179.43 77.88 C 179.27 78.73 179.82 79.54 180.67 79.71 L 181.65 79.90 C 182.50 80.06 183.31 79.51 183.48 78.66 C 183.64 77.81 183.09 77.00 182.24 76.83 Z M 181.20 76.63 L 180.23 76.48 C 179.37 76.34 178.58 76.93 178.44 77.78 C 178.31 78.63 178.89 79.43 179.74 79.56 L 180.72 79.72 C 181.57 79.85 182.37 79.27 182.50 78.42 C 182.64 77.57 182.06 76.77 181.20 76.63 Z M 180.17 76.47 L 179.19 76.35 C 178.33 76.25 177.56 76.86 177.45 77.72 C 177.35 78.57 177.96 79.35 178.82 79.45 L 179.80 79.57 C 180.65 79.67 181.43 79.06 181.53 78.21 C 181.64 77.35 181.03 76.57 180.17 76.47 Z M 179.14 76.35 L 178.17 76.26 C 177.31 76.19 176.55 76.82 176.48 77.68 C 176.40 78.54 177.04 79.30 177.90 79.37 L 178.87 79.46 C 179.73 79.53 180.48 78.90 180.56 78.04 C 180.63 77.18 180.00 76.42 179.14 76.35 Z M 178.13 76.26 L 177.25 76.21 C 176.39 76.15 175.65 76.81 175.59 77.67 C 175.54 78.53 176.20 79.27 177.06 79.32 L 177.94 79.38 C 178.80 79.43 179.54 78.77 179.59 77.91 C 179.64 77.05 178.99 76.31 178.13 76.26 Z M 177.22 76.21 L 176.26 76.17 C 175.40 76.13 174.67 76.80 174.64 77.66 C 174.60 78.52 175.27 79.25 176.13 79.28 L 177.09 79.32 C 177.95 79.36 178.67 78.69 178.71 77.83 C 178.75 76.97 178.08 76.24 177.22 76.21 Z M 176.24 76.16 L 175.19 76.14 C 174.32 76.11 173.61 76.79 173.58 77.66 C 173.56 78.52 174.24 79.23 175.10 79.26 L 176.16 79.29 C 177.02 79.31 177.73 78.63 177.76 77.77 C 177.78 76.90 177.10 76.19 176.24 76.16 Z M 175.17 76.14 L 174.03 76.12 C 173.17 76.10 172.46 76.79 172.45 77.65 C 172.43 78.52 173.12 79.23 173.98 79.24 L 175.12 79.26 C 175.98 79.27 176.69 78.58 176.71 77.72 C 176.72 76.86 176.03 76.15 175.17 76.14 Z M 174.02 76.12 L 173.06 76.11 C 172.20 76.10 171.49 76.80 171.49 77.66 C 171.48 78.52 172.18 79.23 173.04 79.23 L 174.00 79.24 C 174.86 79.25 175.56 78.55 175.57 77.69 C 175.58 76.83 174.88 76.12 174.02 76.12 Z M 173.04 76.11 L 172.03 76.12 C 171.17 76.12 170.47 76.83 170.48 77.69 C 170.49 78.55 171.19 79.25 172.05 79.24 L 173.06 79.23 C 173.92 79.23 174.62 78.52 174.61 77.66 C 174.60 76.80 173.90 76.10 173.04 76.11 Z M 172.00 76.12 L 170.97 76.15 C 170.10 76.17 169.43 76.89 169.45 77.75 C 169.48 78.62 170.19 79.29 171.06 79.27 L 172.09 79.24 C 172.95 79.21 173.63 78.50 173.60 77.63 C 173.58 76.77 172.86 76.09 172.00 76.12 Z M 170.92 76.15 L 169.89 76.21 C 169.03 76.26 168.38 77.00 168.43 77.86 C 168.48 78.73 169.22 79.38 170.08 79.33 L 171.11 79.27 C 171.97 79.22 172.62 78.48 172.57 77.62 C 172.52 76.75 171.78 76.10 170.92 76.15 Z M 169.83 76.22 L 168.84 76.32 C 167.98 76.41 167.35 77.17 167.44 78.03 C 167.53 78.89 168.30 79.51 169.15 79.43 L 170.15 79.32 C 171.00 79.24 171.63 78.47 171.54 77.61 C 171.45 76.75 170.68 76.13 169.83 76.22 Z M 168.74 76.33 L 167.71 76.50 C 166.85 76.64 166.28 77.45 166.42 78.30 C 166.56 79.15 167.36 79.72 168.21 79.58 L 169.25 79.41 C 170.10 79.27 170.68 78.47 170.54 77.62 C 170.39 76.77 169.59 76.19 168.74 76.33 Z M 167.59 76.53 L 166.58 76.77 C 165.74 76.98 165.23 77.82 165.43 78.66 C 165.63 79.50 166.48 80.01 167.32 79.81 L 168.33 79.56 C 169.17 79.36 169.68 78.51 169.48 77.67 C 169.27 76.84 168.43 76.32 167.59 76.53 Z M 166.46 76.81 L 165.52 77.11 C 164.70 77.38 164.25 78.26 164.52 79.08 C 164.79 79.90 165.67 80.35 166.49 80.08 L 167.43 79.77 C 168.25 79.51 168.70 78.63 168.43 77.81 C 168.16 76.99 167.28 76.54 166.46 76.81 Z M 165.42 77.15 L 164.53 77.51 C 163.73 77.84 163.34 78.75 163.67 79.55 C 163.99 80.34 164.90 80.73 165.70 80.41 L 166.59 80.04 C 167.39 79.72 167.77 78.81 167.45 78.01 C 167.13 77.21 166.22 76.83 165.42 77.15 Z M 164.44 77.55 L 163.59 77.96 C 162.81 78.33 162.48 79.26 162.85 80.04 C 163.22 80.81 164.16 81.15 164.93 80.77 L 165.79 80.37 C 166.56 80.00 166.90 79.07 166.52 78.29 C 166.15 77.51 165.22 77.18 164.44 77.55 Z M 163.52 77.99 L 162.65 78.46 C 161.89 78.87 161.61 79.81 162.02 80.57 C 162.43 81.33 163.37 81.62 164.13 81.21 L 165.00 80.74 C 165.76 80.33 166.05 79.38 165.64 78.62 C 165.23 77.87 164.28 77.58 163.52 77.99 Z M 162.59 78.49 L 161.74 79.00 C 161.00 79.45 160.76 80.41 161.20 81.15 C 161.65 81.88 162.61 82.13 163.34 81.68 L 164.20 81.17 C 164.94 80.73 165.18 79.77 164.73 79.03 C 164.29 78.29 163.33 78.05 162.59 78.49 Z M 161.68 79.04 L 160.85 79.59 C 160.13 80.07 159.93 81.04 160.41 81.75 C 160.88 82.47 161.85 82.67 162.57 82.20 L 163.40 81.65 C 164.12 81.17 164.32 80.20 163.84 79.48 C 163.37 78.76 162.40 78.57 161.68 79.04 Z M 160.79 79.63 L 159.98 80.22 C 159.28 80.73 159.12 81.70 159.62 82.40 C 160.13 83.10 161.11 83.26 161.80 82.75 L 162.62 82.16 C 163.32 81.65 163.48 80.68 162.97 79.98 C 162.47 79.28 161.49 79.12 160.79 79.63 Z M 159.93 80.26 L 159.14 80.87 C 158.46 81.40 158.34 82.38 158.87 83.06 C 159.41 83.74 160.39 83.86 161.07 83.33 L 161.85 82.71 C 162.53 82.18 162.65 81.20 162.12 80.52 C 161.59 79.84 160.61 79.72 159.93 80.26 Z M 159.10 80.91 L 158.34 81.55 C 157.68 82.10 157.60 83.09 158.15 83.75 C 158.71 84.41 159.70 84.49 160.35 83.93 L 161.11 83.29 C 161.77 82.74 161.85 81.75 161.30 81.09 C 160.74 80.44 159.75 80.35 159.10 80.91 Z M 158.30 81.59 L 157.56 82.26 C 156.92 82.84 156.87 83.83 157.45 84.47 C 158.04 85.10 159.02 85.15 159.66 84.57 L 160.40 83.89 C 161.04 83.31 161.08 82.33 160.50 81.69 C 159.92 81.05 158.93 81.01 158.30 81.59 Z M 157.51 82.30 L 156.79 83.01 C 156.18 83.62 156.17 84.60 156.78 85.22 C 157.39 85.83 158.37 85.84 158.99 85.23 L 159.70 84.53 C 160.32 83.92 160.32 82.93 159.72 82.32 C 159.11 81.70 158.12 81.70 157.51 82.30 Z M 156.75 83.06 L 156.06 83.80 C 155.47 84.43 155.51 85.41 156.14 86.00 C 156.77 86.59 157.75 86.56 158.34 85.93 L 159.03 85.19 C 159.62 84.56 159.59 83.57 158.96 82.98 C 158.33 82.39 157.34 82.43 156.75 83.06 Z M 156.02 83.84 L 155.42 84.54 C 154.86 85.20 154.93 86.18 155.59 86.74 C 156.24 87.30 157.23 87.23 157.79 86.58 L 158.39 85.88 C 158.95 85.22 158.87 84.24 158.22 83.68 C 157.56 83.12 156.58 83.19 156.02 83.84 Z M 155.38 84.59 L 154.80 85.32 C 154.27 86.00 154.38 86.98 155.06 87.51 C 155.74 88.05 156.72 87.93 157.25 87.26 L 157.83 86.53 C 158.36 85.85 158.25 84.87 157.57 84.33 C 156.89 83.80 155.91 83.91 155.38 84.59 Z M 154.77 85.37 L 154.19 86.15 C 153.69 86.85 153.84 87.83 154.54 88.33 C 155.23 88.84 156.21 88.69 156.72 87.99 L 157.29 87.21 C 157.80 86.51 157.64 85.53 156.95 85.03 C 156.25 84.52 155.27 84.67 154.77 85.37 Z M 154.16 86.20 L 153.59 87.05 C 153.10 87.76 153.29 88.73 154.00 89.22 C 154.72 89.70 155.69 89.51 156.17 88.80 L 156.75 87.95 C 157.23 87.23 157.04 86.26 156.33 85.78 C 155.62 85.30 154.65 85.48 154.16 86.20 Z M 153.56 87.09 L 152.97 88.03 C 152.50 88.76 152.72 89.72 153.45 90.18 C 154.18 90.64 155.14 90.43 155.60 89.70 L 156.20 88.76 C 156.66 88.03 156.44 87.07 155.71 86.61 C 154.98 86.14 154.02 86.36 153.56 87.09 Z M 152.95 88.06 L 152.43 88.92 C 151.98 89.66 152.22 90.62 152.96 91.06 C 153.70 91.51 154.66 91.27 155.10 90.53 L 155.62 89.67 C 156.07 88.93 155.83 87.97 155.09 87.52 C 154.35 87.08 153.39 87.32 152.95 88.06 Z M 152.42 88.94 L 151.92 89.80 C 151.49 90.55 151.74 91.50 152.49 91.94 C 153.23 92.37 154.19 92.11 154.62 91.37 L 155.12 90.51 C 155.55 89.76 155.29 88.81 154.55 88.37 C 153.80 87.94 152.85 88.20 152.42 88.94 Z M 151.91 89.82 L 151.41 90.71 C 150.99 91.47 151.25 92.42 152.01 92.84 C 152.76 93.26 153.71 92.99 154.13 92.24 L 154.63 91.35 C 155.05 90.60 154.78 89.64 154.03 89.22 C 153.28 88.80 152.33 89.07 151.91 89.82 Z M 151.40 90.73 L 150.90 91.64 C 150.49 92.40 150.77 93.34 151.53 93.76 C 152.29 94.17 153.23 93.89 153.65 93.13 L 154.14 92.22 C 154.55 91.47 154.27 90.52 153.52 90.11 C 152.76 89.69 151.81 89.97 151.40 90.73 Z M 150.89 91.65 L 150.41 92.56 C 150.01 93.32 150.30 94.27 151.06 94.67 C 151.83 95.08 152.77 94.78 153.17 94.02 L 153.65 93.12 C 154.06 92.35 153.77 91.41 153.01 91.01 C 152.24 90.60 151.30 90.89 150.89 91.65 Z M 150.41 92.58 L 149.95 93.46 C 149.56 94.23 149.86 95.17 150.62 95.57 C 151.39 95.96 152.33 95.66 152.73 94.89 L 153.18 94.01 C 153.58 93.24 153.28 92.30 152.51 91.90 C 151.74 91.51 150.80 91.81 150.41 92.58 Z M 149.94 93.48 L 149.50 94.37 C 149.11 95.14 149.43 96.08 150.20 96.46 C 150.97 96.85 151.91 96.54 152.29 95.76 L 152.73 94.88 C 153.12 94.10 152.81 93.17 152.03 92.78 C 151.26 92.40 150.33 92.71 149.94 93.48 Z M 149.49 94.39 L 149.00 95.41 C 148.62 96.19 148.95 97.12 149.73 97.50 C 150.51 97.87 151.44 97.54 151.81 96.76 L 152.30 95.74 C 152.68 94.96 152.35 94.03 151.57 93.66 C 150.79 93.29 149.86 93.61 149.49 94.39 Z M 148.98 95.44 L 148.55 96.39 C 148.19 97.18 148.54 98.10 149.32 98.46 C 150.11 98.82 151.03 98.47 151.39 97.69 L 151.82 96.74 C 152.18 95.95 151.84 95.03 151.05 94.67 C 150.27 94.31 149.34 94.66 148.98 95.44 Z M 148.54 96.42 L 148.15 97.32 C 147.81 98.11 148.17 99.03 148.96 99.37 C 149.75 99.71 150.67 99.35 151.01 98.56 L 151.40 97.66 C 151.75 96.87 151.38 95.95 150.59 95.61 C 149.80 95.27 148.88 95.63 148.54 96.42 Z M 148.14 97.34 L 147.79 98.20 C 147.46 98.99 147.84 99.90 148.64 100.23 C 149.43 100.56 150.34 100.18 150.67 99.38 L 151.02 98.53 C 151.35 97.73 150.97 96.82 150.18 96.49 C 149.38 96.16 148.47 96.54 148.14 97.34 Z M 147.78 98.22 L 147.45 99.05 C 147.14 99.85 147.53 100.76 148.33 101.08 C 149.14 101.39 150.04 100.99 150.36 100.19 L 150.68 99.36 C 151.00 98.56 150.60 97.65 149.80 97.34 C 149.00 97.02 148.09 97.42 147.78 98.22 Z M 147.44 99.08 L 147.08 100.05 C 146.77 100.86 147.19 101.76 147.99 102.06 C 148.80 102.36 149.70 101.95 150.00 101.14 L 150.37 100.17 C 150.67 99.36 150.26 98.46 149.45 98.16 C 148.64 97.86 147.74 98.27 147.44 99.08 Z M 147.07 100.08 L 146.73 101.03 C 146.44 101.84 146.87 102.73 147.68 103.02 C 148.49 103.31 149.38 102.89 149.67 102.07 L 150.01 101.12 C 150.30 100.31 149.87 99.41 149.06 99.13 C 148.25 98.84 147.36 99.26 147.07 100.08 Z M 146.72 101.05 L 146.40 101.99 C 146.13 102.80 146.57 103.69 147.38 103.97 C 148.20 104.24 149.09 103.80 149.36 102.99 L 149.68 102.05 C 149.96 101.24 149.52 100.35 148.70 100.07 C 147.88 99.80 147.00 100.24 146.72 101.05 Z M 146.40 102.01 L 146.10 102.93 C 145.84 103.75 146.29 104.63 147.11 104.89 C 147.93 105.16 148.81 104.71 149.07 103.89 L 149.37 102.97 C 149.63 102.15 149.18 101.27 148.36 101.00 C 147.54 100.74 146.66 101.19 146.40 102.01 Z M 146.10 102.94 L 145.80 103.90 C 145.55 104.72 146.01 105.60 146.83 105.85 C 147.65 106.11 148.53 105.65 148.78 104.82 L 149.08 103.87 C 149.33 103.04 148.87 102.17 148.05 101.91 C 147.22 101.66 146.35 102.12 146.10 102.94 Z M 145.79 103.92 L 145.51 104.88 C 145.27 105.71 145.74 106.58 146.57 106.82 C 147.40 107.06 148.26 106.59 148.51 105.76 L 148.79 104.80 C 149.03 103.97 148.56 103.11 147.73 102.86 C 146.90 102.62 146.04 103.09 145.79 103.92 Z M 145.50 104.91 L 145.24 105.86 C 145.01 106.70 145.50 107.55 146.33 107.78 C 147.16 108.01 148.02 107.52 148.25 106.69 L 148.51 105.74 C 148.74 104.90 148.26 104.05 147.42 103.82 C 146.59 103.59 145.73 104.08 145.50 104.91 Z M 145.23 105.89 L 144.99 106.86 C 144.77 107.69 145.28 108.54 146.11 108.76 C 146.95 108.97 147.80 108.47 148.01 107.63 L 148.26 106.67 C 148.47 105.83 147.97 104.98 147.13 104.77 C 146.30 104.55 145.45 105.06 145.23 105.89 Z M 144.98 106.89 L 144.78 107.75 C 144.58 108.59 145.10 109.43 145.94 109.62 C 146.78 109.82 147.62 109.30 147.82 108.46 L 148.02 107.60 C 148.22 106.76 147.70 105.92 146.86 105.72 C 146.02 105.53 145.18 106.05 144.98 106.89 Z M 144.77 107.78 L 144.58 108.67 C 144.40 109.51 144.94 110.34 145.78 110.52 C 146.62 110.70 147.45 110.16 147.63 109.32 L 147.82 108.43 C 148.00 107.59 147.47 106.76 146.62 106.58 C 145.78 106.40 144.95 106.94 144.77 107.78 Z M 144.57 108.70 L 144.39 109.66 C 144.23 110.51 144.78 111.33 145.63 111.49 C 146.48 111.65 147.29 111.10 147.46 110.25 L 147.64 109.29 C 147.80 108.44 147.25 107.62 146.40 107.46 C 145.55 107.30 144.74 107.85 144.57 108.70 Z M 144.38 109.69 L 144.20 110.76 C 144.05 111.61 144.63 112.42 145.48 112.56 C 146.33 112.71 147.13 112.14 147.28 111.29 L 147.46 110.22 C 147.61 109.37 147.04 108.56 146.19 108.42 C 145.34 108.27 144.53 108.84 144.38 109.69 Z M 144.20 110.79 L 144.03 111.88 C 143.90 112.73 144.48 113.53 145.33 113.66 C 146.19 113.79 146.98 113.21 147.11 112.35 L 147.28 111.26 C 147.41 110.41 146.83 109.61 145.98 109.48 C 145.12 109.35 144.33 109.94 144.20 110.79 Z M 144.03 111.90 L 143.90 112.80 C 143.77 113.66 144.37 114.45 145.22 114.57 C 146.08 114.69 146.87 114.10 146.99 113.24 L 147.12 112.34 C 147.24 111.48 146.64 110.69 145.79 110.57 C 144.94 110.45 144.15 111.04 144.03 111.90 Z M 143.89 112.81 L 143.76 113.78 C 143.65 114.63 144.25 115.42 145.10 115.53 C 145.96 115.65 146.74 115.05 146.86 114.19 L 146.99 113.23 C 147.10 112.38 146.50 111.59 145.65 111.48 C 144.80 111.36 144.01 111.96 143.89 112.81 Z M 143.76 113.79 L 143.64 114.79 C 143.53 115.65 144.13 116.43 144.99 116.54 C 145.84 116.65 146.62 116.04 146.73 115.19 L 146.86 114.18 C 146.97 113.33 146.37 112.55 145.51 112.44 C 144.65 112.33 143.87 112.93 143.76 113.79 Z M 143.63 114.80 L 143.51 115.83 C 143.40 116.69 144.01 117.47 144.87 117.57 C 145.73 117.67 146.50 117.07 146.61 116.21 L 146.73 115.18 C 146.84 114.32 146.23 113.54 145.37 113.44 C 144.52 113.34 143.74 113.95 143.63 114.80 Z M 143.51 115.84 L 143.39 116.88 C 143.29 117.74 143.90 118.51 144.76 118.61 C 145.61 118.71 146.39 118.10 146.49 117.24 L 146.61 116.20 C 146.71 115.34 146.10 114.57 145.24 114.47 C 144.38 114.37 143.61 114.98 143.51 115.84 Z M 143.39 116.89 L 143.27 117.92 C 143.17 118.78 143.79 119.55 144.65 119.65 C 145.51 119.74 146.28 119.13 146.37 118.27 L 146.49 117.23 C 146.58 116.38 145.97 115.60 145.11 115.51 C 144.25 115.41 143.48 116.03 143.39 116.89 Z M 143.27 117.93 L 143.15 119.02 C 143.06 119.87 143.68 120.64 144.54 120.73 C 145.40 120.82 146.17 120.20 146.26 119.35 L 146.37 118.26 C 146.47 117.40 145.84 116.63 144.99 116.54 C 144.13 116.45 143.36 117.07 143.27 117.93 Z M 143.15 119.02 L 143.04 120.12 C 142.96 120.98 143.58 121.74 144.44 121.83 C 145.30 121.92 146.06 121.29 146.15 120.43 L 146.26 119.34 C 146.35 118.48 145.72 117.71 144.86 117.63 C 144.00 117.54 143.24 118.17 143.15 119.02 Z M 143.04 120.13 L 142.94 121.18 C 142.86 122.04 143.49 122.80 144.35 122.88 C 145.21 122.96 145.97 122.33 146.05 121.47 L 146.15 120.42 C 146.23 119.56 145.60 118.80 144.74 118.72 C 143.89 118.64 143.12 119.27 143.04 120.13 Z M 142.94 121.19 L 142.85 122.19 C 142.78 123.05 143.41 123.81 144.27 123.88 C 145.13 123.96 145.89 123.32 145.96 122.46 L 146.05 121.46 C 146.13 120.61 145.49 119.85 144.63 119.77 C 143.78 119.70 143.02 120.33 142.94 121.19 Z M 142.85 122.20 L 142.78 123.14 C 142.71 124.00 143.34 124.76 144.20 124.83 C 145.06 124.90 145.82 124.26 145.89 123.40 L 145.96 122.45 C 146.03 121.59 145.40 120.84 144.54 120.77 C 143.68 120.70 142.92 121.34 142.85 122.20 Z M 142.77 123.15 L 142.71 124.03 C 142.65 124.89 143.29 125.64 144.15 125.71 C 145.01 125.77 145.76 125.13 145.82 124.27 L 145.89 123.39 C 145.95 122.53 145.31 121.78 144.45 121.71 C 143.59 121.65 142.84 122.29 142.77 123.15 Z M 142.71 124.05 L 142.64 125.05 C 142.59 125.91 143.24 126.66 144.10 126.71 C 144.96 126.77 145.70 126.12 145.76 125.26 L 145.82 124.25 C 145.88 123.39 145.23 122.65 144.37 122.59 C 143.51 122.54 142.76 123.19 142.71 124.05 Z M 142.64 125.07 L 142.59 126.10 C 142.54 126.97 143.20 127.70 144.06 127.75 C 144.92 127.79 145.66 127.13 145.70 126.27 L 145.76 125.24 C 145.81 124.38 145.15 123.64 144.28 123.60 C 143.42 123.55 142.69 124.21 142.64 125.07 Z M 142.58 126.12 L 142.54 127.08 C 142.50 127.94 143.17 128.67 144.03 128.71 C 144.89 128.75 145.62 128.09 145.66 127.22 L 145.70 126.26 C 145.74 125.40 145.08 124.67 144.22 124.63 C 143.35 124.59 142.62 125.26 142.58 126.12 Z M 142.54 127.09 L 142.50 128.03 C 142.47 128.89 143.14 129.62 144.00 129.66 C 144.86 129.69 145.59 129.02 145.62 128.16 L 145.66 127.22 C 145.70 126.36 145.03 125.63 144.17 125.59 C 143.30 125.56 142.58 126.23 142.54 127.09 Z M 142.50 128.03 L 142.46 128.98 C 142.42 129.84 143.09 130.57 143.95 130.61 C 144.81 130.64 145.54 129.98 145.58 129.12 L 145.62 128.17 C 145.66 127.31 144.99 126.58 144.13 126.54 C 143.27 126.50 142.54 127.17 142.50 128.03 Z M 142.46 128.97 L 142.42 129.93 C 142.37 130.79 143.04 131.52 143.90 131.57 C 144.76 131.61 145.49 130.94 145.53 130.08 L 145.58 129.12 C 145.62 128.26 144.95 127.53 144.09 127.49 C 143.23 127.45 142.50 128.11 142.46 128.97 Z M 142.42 129.93 L 142.37 130.93 C 142.33 131.79 142.99 132.52 143.86 132.56 C 144.72 132.60 145.45 131.94 145.49 131.07 L 145.53 130.08 C 145.57 129.22 144.91 128.49 144.05 128.45 C 143.19 128.41 142.46 129.07 142.42 129.93 Z M 142.37 130.94 L 142.33 131.96 C 142.29 132.82 142.96 133.55 143.82 133.59 C 144.68 133.62 145.41 132.95 145.45 132.09 L 145.49 131.07 C 145.52 130.21 144.86 129.48 143.99 129.44 C 143.13 129.41 142.40 130.08 142.37 130.94 Z M 142.33 131.97 L 142.29 133.01 C 142.26 133.88 142.94 134.60 143.80 134.63 C 144.66 134.66 145.38 133.98 145.41 133.12 L 145.45 132.08 C 145.48 131.22 144.80 130.49 143.94 130.47 C 143.08 130.44 142.35 131.11 142.33 131.97 Z M 142.29 133.03 L 142.27 134.03 C 142.25 134.89 142.93 135.60 143.79 135.62 C 144.65 135.64 145.37 134.96 145.39 134.10 L 145.41 133.10 C 145.43 132.24 144.75 131.53 143.89 131.51 C 143.02 131.49 142.31 132.17 142.29 133.03 Z M 142.27 134.04 L 142.25 135.04 C 142.24 135.90 142.93 136.61 143.79 136.62 C 144.66 136.63 145.36 135.94 145.38 135.08 L 145.39 134.08 C 145.40 133.22 144.71 132.51 143.85 132.50 C 142.99 132.49 142.28 133.18 142.27 134.04 Z M 142.25 135.05 L 142.25 136.05 C 142.24 136.91 142.94 137.61 143.80 137.62 C 144.66 137.62 145.36 136.93 145.37 136.07 L 145.38 135.07 C 145.38 134.20 144.69 133.50 143.83 133.49 C 142.96 133.49 142.26 134.18 142.25 135.05 Z M 142.25 136.05 L 142.24 137.06 C 142.24 137.92 142.94 138.62 143.80 138.62 C 144.66 138.62 145.37 137.93 145.37 137.07 L 145.37 136.06 C 145.37 135.20 144.67 134.50 143.81 134.50 C 142.95 134.49 142.25 135.19 142.25 136.05 Z M 142.24 137.06 L 142.24 138.07 C 142.24 138.93 142.94 139.63 143.81 139.63 C 144.67 139.63 145.37 138.93 145.37 138.07 L 145.37 137.06 C 145.37 136.20 144.67 135.50 143.81 135.50 C 142.94 135.50 142.24 136.20 142.24 137.06 Z M 142.24 138.07 L 142.24 139.06 C 142.24 139.93 142.94 140.62 143.81 140.62 C 144.67 140.62 145.37 139.93 145.37 139.06 L 145.37 138.07 C 145.37 137.21 144.67 136.51 143.81 136.51 C 142.94 136.51 142.24 137.21 142.24 138.07 Z M 142.24 139.06 L 142.24 140.06 C 142.24 140.92 142.94 141.62 143.81 141.62 C 144.67 141.62 145.37 140.92 145.37 140.06 L 145.37 139.06 C 145.37 138.20 144.67 137.50 143.81 137.50 C 142.94 137.50 142.24 138.20 142.24 139.06 Z M 142.24 140.06 L 142.24 141.06 C 142.24 141.93 142.94 142.62 143.81 142.62 C 144.67 142.62 145.37 141.93 145.37 141.06 L 145.37 140.06 C 145.37 139.20 144.67 138.50 143.81 138.50 C 142.94 138.50 142.24 139.20 142.24 140.06 Z M 142.24 141.06 L 142.24 142.07 C 142.24 142.93 142.94 143.63 143.81 143.63 C 144.67 143.63 145.37 142.93 145.37 142.07 L 145.37 141.06 C 145.37 140.20 144.67 139.50 143.81 139.50 C 142.94 139.50 142.24 140.20 142.24 141.06 Z M 142.24 142.07 L 142.24 143.08 C 142.24 143.94 142.94 144.64 143.81 144.64 C 144.67 144.64 145.37 143.94 145.37 143.08 L 145.37 142.07 C 145.37 141.20 144.67 140.51 143.81 140.51 C 142.94 140.51 142.24 141.20 142.24 142.07 Z M 142.24 143.08 L 142.24 144.09 C 142.24 144.95 142.94 145.65 143.81 145.65 C 144.67 145.65 145.37 144.95 145.37 144.09 L 145.37 143.08 C 145.37 142.21 144.67 141.51 143.81 141.51 C 142.94 141.51 142.24 142.21 142.24 143.08 Z M 142.24 144.09 L 142.24 145.10 C 142.24 145.97 142.94 146.66 143.81 146.66 C 144.67 146.66 145.37 145.97 145.37 145.10 L 145.37 144.09 C 145.37 143.23 144.67 142.53 143.81 142.53 C 142.94 142.53 142.24 143.23 142.24 144.09 Z M 142.24 145.10 L 142.24 146.10 C 142.24 146.97 142.94 147.67 143.81 147.67 C 144.67 147.67 145.37 146.97 145.37 146.10 L 145.37 145.10 C 145.37 144.24 144.67 143.54 143.81 143.54 C 142.94 143.54 142.24 144.24 142.24 145.10 Z M 142.24 146.10 L 142.24 147.09 C 142.24 147.95 142.94 148.65 143.81 148.65 C 144.67 148.65 145.37 147.95 145.37 147.09 L 145.37 146.10 C 145.37 145.24 144.67 144.54 143.81 144.54 C 142.94 144.54 142.24 145.24 142.24 146.10 Z M 142.24 147.09 L 142.24 148.07 C 142.24 148.93 142.94 149.63 143.81 149.63 C 144.67 149.63 145.37 148.93 145.37 148.07 L 145.37 147.09 C 145.37 146.23 144.67 145.53 143.81 145.53 C 142.94 145.53 142.24 146.23 142.24 147.09 Z M 142.24 148.07 L 142.24 149.05 C 142.24 149.92 142.94 150.61 143.81 150.61 C 144.67 150.61 145.37 149.92 145.37 149.05 L 145.37 148.07 C 145.37 147.21 144.67 146.51 143.81 146.51 C 142.94 146.51 142.24 147.21 142.24 148.07 Z M 142.24 149.05 L 142.24 150.04 C 142.24 150.90 142.94 151.60 143.81 151.60 C 144.67 151.60 145.37 150.90 145.37 150.04 L 145.37 149.05 C 145.37 148.19 144.67 147.49 143.81 147.49 C 142.94 147.49 142.24 148.19 142.24 149.05 Z M 142.24 150.04 L 142.24 151.03 C 142.24 151.90 142.94 152.59 143.81 152.59 C 144.67 152.59 145.37 151.90 145.37 151.03 L 145.37 150.04 C 145.37 149.17 144.67 148.47 143.81 148.47 C 142.94 148.47 142.24 149.17 142.24 150.04 Z M 142.24 151.03 L 142.24 152.06 C 142.24 152.92 142.94 153.62 143.81 153.62 C 144.67 153.62 145.37 152.92 145.37 152.06 L 145.37 151.03 C 145.37 150.17 144.67 149.47 143.81 149.47 C 142.94 149.47 142.24 150.17 142.24 151.03 Z M 142.24 152.06 L 142.24 153.04 C 142.24 153.90 142.94 154.60 143.81 154.60 C 144.67 154.60 145.37 153.90 145.37 153.04 L 145.37 152.06 C 145.37 151.20 144.67 150.50 143.81 150.50 C 142.94 150.50 142.24 151.20 142.24 152.06 Z M 142.24 153.04 L 142.24 154.03 C 142.24 154.89 142.94 155.59 143.81 155.59 C 144.67 155.59 145.37 154.89 145.37 154.03 L 145.37 153.04 C 145.37 152.18 144.67 151.48 143.81 151.48 C 142.94 151.48 142.24 152.18 142.24 153.04 Z M 142.24 154.03 L 142.24 155.04 C 142.24 155.90 142.94 156.60 143.81 156.60 C 144.67 156.60 145.37 155.90 145.37 155.04 L 145.37 154.03 C 145.37 153.17 144.67 152.47 143.81 152.47 C 142.94 152.47 142.24 153.17 142.24 154.03 Z M 142.24 155.04 L 142.24 156.06 C 142.24 156.92 142.94 157.62 143.81 157.62 C 144.67 157.62 145.37 156.92 145.37 156.06 L 145.37 155.04 C 145.37 154.18 144.67 153.48 143.81 153.48 C 142.94 153.48 142.24 154.18 142.24 155.04 Z M 142.24 156.06 L 142.24 157.07 C 142.24 157.93 142.94 158.63 143.81 158.63 C 144.67 158.63 145.37 157.93 145.37 157.07 L 145.37 156.06 C 145.37 155.20 144.67 154.50 143.81 154.50 C 142.94 154.50 142.24 155.20 142.24 156.06 Z M 142.24 157.07 L 142.24 158.09 C 142.24 158.96 142.94 159.65 143.81 159.65 C 144.67 159.65 145.37 158.96 145.37 158.09 L 145.37 157.07 C 145.37 156.21 144.67 155.51 143.81 155.51 C 142.94 155.51 142.24 156.21 142.24 157.07 Z M 142.24 158.09 L 142.24 159.11 C 142.24 159.97 142.94 160.67 143.81 160.67 C 144.67 160.67 145.37 159.97 145.37 159.11 L 145.37 158.09 C 145.37 157.23 144.67 156.53 143.81 156.53 C 142.94 156.53 142.24 157.23 142.24 158.09 Z M 142.24 159.11 L 142.24 160.11 C 142.24 160.97 142.94 161.67 143.81 161.67 C 144.67 161.67 145.37 160.97 145.37 160.11 L 145.37 159.11 C 145.37 158.25 144.67 157.55 143.81 157.55 C 142.94 157.55 142.24 158.25 142.24 159.11 Z M 142.24 160.11 L 142.24 161.10 C 142.24 161.96 142.94 162.66 143.81 162.66 C 144.67 162.66 145.37 161.96 145.37 161.10 L 145.37 160.11 C 145.37 159.25 144.67 158.55 143.81 158.55 C 142.94 158.55 142.24 159.25 142.24 160.11 Z M 142.24 161.10 L 142.24 162.08 C 142.24 162.94 142.94 163.64 143.81 163.64 C 144.67 163.64 145.37 162.94 145.37 162.08 L 145.37 161.10 C 145.37 160.24 144.67 159.54 143.81 159.54 C 142.94 159.54 142.24 160.24 142.24 161.10 Z M 142.24 162.08 L 142.24 163.07 C 142.24 163.93 142.94 164.63 143.81 164.63 C 144.67 164.63 145.37 163.93 145.37 163.07 L 145.37 162.08 C 145.37 161.22 144.67 160.52 143.81 160.52 C 142.94 160.52 142.24 161.22 142.24 162.08 Z M 142.24 163.07 L 142.24 164.07 C 142.24 164.93 142.94 165.63 143.81 165.63 C 144.67 165.63 145.37 164.93 145.37 164.07 L 145.37 163.07 C 145.37 162.21 144.67 161.51 143.81 161.51 C 142.94 161.51 142.24 162.21 142.24 163.07 Z M 142.24 164.07 L 142.24 165.07 C 142.24 165.93 142.94 166.63 143.81 166.63 C 144.67 166.63 145.37 165.93 145.37 165.07 L 145.37 164.07 C 145.37 163.21 144.67 162.51 143.81 162.51 C 142.94 162.51 142.24 163.21 142.24 164.07 Z M 142.24 165.07 L 142.24 166.07 C 142.24 166.93 142.94 167.63 143.81 167.63 C 144.67 167.63 145.37 166.93 145.37 166.07 L 145.37 165.07 C 145.37 164.21 144.67 163.51 143.81 163.51 C 142.94 163.51 142.24 164.21 142.24 165.07 Z M 142.24 166.07 L 142.24 167.07 C 142.24 167.93 142.94 168.63 143.81 168.63 C 144.67 168.63 145.37 167.93 145.37 167.07 L 145.37 166.07 C 145.37 165.21 144.67 164.51 143.81 164.51 C 142.94 164.51 142.24 165.21 142.24 166.07 Z M 142.24 167.07 L 142.24 168.05 C 142.24 168.92 142.94 169.62 143.81 169.62 C 144.67 169.62 145.37 168.92 145.37 168.05 L 145.37 167.07 C 145.37 166.21 144.67 165.51 143.81 165.51 C 142.94 165.51 142.24 166.21 142.24 167.07 Z M 142.24 168.05 L 142.24 169.04 C 142.24 169.90 142.94 170.60 143.81 170.60 C 144.67 170.60 145.37 169.90 145.37 169.04 L 145.37 168.05 C 145.37 167.19 144.67 166.49 143.81 166.49 C 142.94 166.49 142.24 167.19 142.24 168.05 Z M 142.24 169.04 L 142.24 170.04 C 142.24 170.90 142.94 171.60 143.81 171.60 C 144.67 171.60 145.37 170.90 145.37 170.04 L 145.37 169.04 C 145.37 168.18 144.67 167.48 143.81 167.48 C 142.94 167.48 142.24 168.18 142.24 169.04 Z M 142.24 170.04 L 142.24 171.05 C 142.24 171.91 142.94 172.61 143.81 172.61 C 144.67 172.61 145.37 171.91 145.37 171.05 L 145.37 170.04 C 145.37 169.18 144.67 168.48 143.81 168.48 C 142.94 168.48 142.24 169.18 142.24 170.04 Z M 142.24 171.05 L 142.24 172.07 C 142.24 172.93 142.94 173.63 143.81 173.63 C 144.67 173.63 145.37 172.93 145.37 172.07 L 145.37 171.05 C 145.37 170.19 144.67 169.49 143.81 169.49 C 142.94 169.49 142.24 170.19 142.24 171.05 Z M 142.24 172.07 L 142.24 173.05 C 142.24 173.92 142.94 174.61 143.81 174.61 C 144.67 174.61 145.37 173.92 145.37 173.05 L 145.37 172.07 C 145.37 171.21 144.67 170.51 143.81 170.51 C 142.94 170.51 142.24 171.21 142.24 172.07 Z M 142.24 173.05 L 142.24 174.05 C 142.24 174.91 142.94 175.61 143.81 175.61 C 144.67 175.61 145.37 174.91 145.37 174.05 L 145.37 173.05 C 145.37 172.19 144.67 171.49 143.81 171.49 C 142.94 171.49 142.24 172.19 142.24 173.05 Z M 142.24 174.05 L 142.24 175.05 C 142.24 175.91 142.94 176.61 143.81 176.61 C 144.67 176.61 145.37 175.91 145.37 175.05 L 145.37 174.05 C 145.37 173.18 144.67 172.48 143.81 172.48 C 142.94 172.48 142.24 173.18 142.24 174.05 Z M 142.24 175.05 L 142.24 176.06 C 142.24 176.92 142.94 177.62 143.81 177.62 C 144.67 177.62 145.37 176.92 145.37 176.06 L 145.37 175.05 C 145.37 174.18 144.67 173.49 143.81 173.49 C 142.94 173.49 142.24 174.18 142.24 175.05 Z M 142.24 176.06 L 142.24 177.07 C 142.24 177.93 142.94 178.63 143.81 178.63 C 144.67 178.63 145.37 177.93 145.37 177.07 L 145.37 176.06 C 145.37 175.19 144.67 174.49 143.81 174.49 C 142.94 174.49 142.24 175.19 142.24 176.06 Z M 142.24 177.07 L 142.24 178.08 C 142.24 178.94 142.94 179.64 143.81 179.64 C 144.67 179.64 145.37 178.94 145.37 178.08 L 145.37 177.07 C 145.37 176.21 144.67 175.51 143.81 175.51 C 142.94 175.51 142.24 176.21 142.24 177.07 Z M 142.24 178.08 L 142.24 179.09 C 142.24 179.95 142.94 180.65 143.81 180.65 C 144.67 180.65 145.37 179.95 145.37 179.09 L 145.37 178.08 C 145.37 177.22 144.67 176.52 143.81 176.52 C 142.94 176.52 142.24 177.22 142.24 178.08 Z M 142.24 179.09 L 142.24 180.10 C 142.24 180.96 142.94 181.66 143.81 181.66 C 144.67 181.66 145.37 180.96 145.37 180.10 L 145.37 179.09 C 145.37 178.23 144.67 177.53 143.81 177.53 C 142.94 177.53 142.24 178.23 142.24 179.09 Z M 142.24 180.10 L 142.24 181.09 C 142.24 181.96 142.94 182.65 143.81 182.65 C 144.67 182.65 145.37 181.96 145.37 181.09 L 145.37 180.10 C 145.37 179.23 144.67 178.53 143.81 178.53 C 142.94 178.53 142.24 179.23 142.24 180.10 Z M 142.24 181.09 L 142.24 182.08 C 142.24 182.94 142.94 183.64 143.81 183.64 C 144.67 183.64 145.37 182.94 145.37 182.08 L 145.37 181.09 C 145.37 180.23 144.67 179.53 143.81 179.53 C 142.94 179.53 142.24 180.23 142.24 181.09 Z M 142.24 182.08 L 142.24 183.08 C 142.24 183.95 142.94 184.65 143.81 184.65 C 144.67 184.65 145.37 183.95 145.37 183.08 L 145.37 182.08 C 145.37 181.22 144.67 180.52 143.81 180.52 C 142.94 180.52 142.24 181.22 142.24 182.08 Z M 142.24 183.08 L 142.24 184.10 C 142.24 184.96 142.94 185.66 143.81 185.66 C 144.67 185.66 145.37 184.96 145.37 184.10 L 145.37 183.08 C 145.37 182.22 144.67 181.52 143.81 181.52 C 142.94 181.52 142.24 182.22 142.24 183.08 Z M 142.24 184.10 L 142.24 185.10 C 142.24 185.97 142.94 186.67 143.81 186.67 C 144.67 186.67 145.37 185.97 145.37 185.10 L 145.37 184.10 C 145.37 183.24 144.67 182.54 143.81 182.54 C 142.94 182.54 142.24 183.24 142.24 184.10 Z M 142.24 185.10 L 142.24 186.10 C 142.24 186.96 142.94 187.66 143.81 187.66 C 144.67 187.66 145.37 186.96 145.37 186.10 L 145.37 185.10 C 145.37 184.24 144.67 183.54 143.81 183.54 C 142.94 183.54 142.24 184.24 142.24 185.10 Z M 142.24 186.10 L 142.24 187.08 C 142.24 187.94 142.94 188.64 143.81 188.64 C 144.67 188.64 145.37 187.94 145.37 187.08 L 145.37 186.10 C 145.37 185.24 144.67 184.54 143.81 184.54 C 142.94 184.54 142.24 185.24 142.24 186.10 Z M 142.24 187.08 L 142.24 188.08 C 142.24 188.94 142.94 189.64 143.81 189.64 C 144.67 189.64 145.37 188.94 145.37 188.08 L 145.37 187.08 C 145.37 186.22 144.67 185.52 143.81 185.52 C 142.94 185.52 142.24 186.22 142.24 187.08 Z M 142.24 188.08 L 142.24 189.09 C 142.24 189.96 142.94 190.65 143.81 190.65 C 144.67 190.65 145.37 189.96 145.37 189.09 L 145.37 188.08 C 145.37 187.22 144.67 186.52 143.81 186.52 C 142.94 186.52 142.24 187.22 142.24 188.08 Z M 142.24 189.09 L 142.24 190.10 C 142.24 190.96 142.94 191.66 143.81 191.66 C 144.67 191.66 145.37 190.96 145.37 190.10 L 145.37 189.09 C 145.37 188.23 144.67 187.53 143.81 187.53 C 142.94 187.53 142.24 188.23 142.24 189.09 Z M 142.24 190.10 L 142.24 191.09 C 142.24 191.95 142.94 192.65 143.81 192.65 C 144.67 192.65 145.37 191.95 145.37 191.09 L 145.37 190.10 C 145.37 189.23 144.67 188.54 143.81 188.54 C 142.94 188.54 142.24 189.23 142.24 190.10 Z M 142.24 191.09 L 142.24 192.08 C 142.24 192.94 142.94 193.64 143.81 193.64 C 144.67 193.64 145.37 192.94 145.37 192.08 L 145.37 191.09 C 145.37 190.23 144.67 189.53 143.81 189.53 C 142.94 189.53 142.24 190.23 142.24 191.09 Z M 142.24 192.08 L 142.24 193.08 C 142.24 193.94 142.94 194.64 143.81 194.64 C 144.67 194.64 145.37 193.94 145.37 193.08 L 145.37 192.08 C 145.37 191.21 144.67 190.51 143.81 190.51 C 142.94 190.51 142.24 191.21 142.24 192.08 Z M 142.24 193.08 L 142.24 194.09 C 142.24 194.95 142.94 195.65 143.81 195.65 C 144.67 195.65 145.37 194.95 145.37 194.09 L 145.37 193.08 C 145.37 192.22 144.67 191.52 143.81 191.52 C 142.94 191.52 142.24 192.22 142.24 193.08 Z M 142.24 194.09 L 142.24 195.09 C 142.24 195.95 142.94 196.65 143.81 196.65 C 144.67 196.65 145.37 195.95 145.37 195.09 L 145.37 194.09 C 145.37 193.23 144.67 192.53 143.81 192.53 C 142.94 192.53 142.24 193.23 142.24 194.09 Z M 142.24 195.09 L 142.24 196.08 C 142.24 196.94 142.94 197.64 143.81 197.64 C 144.67 197.64 145.37 196.94 145.37 196.08 L 145.37 195.09 C 145.37 194.22 144.67 193.52 143.81 193.52 C 142.94 193.52 142.24 194.22 142.24 195.09 Z M 142.24 196.08 L 142.24 197.07 C 142.24 197.94 142.94 198.63 143.81 198.63 C 144.67 198.63 145.37 197.94 145.37 197.07 L 145.37 196.08 C 145.37 195.22 144.67 194.52 143.81 194.52 C 142.94 194.52 142.24 195.22 142.24 196.08 Z M 142.24 197.07 L 142.24 198.08 C 142.24 198.95 142.94 199.64 143.81 199.64 C 144.67 199.64 145.37 198.95 145.37 198.08 L 145.37 197.07 C 145.37 196.21 144.67 195.51 143.81 195.51 C 142.94 195.51 142.24 196.21 142.24 197.07 Z M 142.24 198.08 L 142.24 199.09 C 142.24 199.95 142.94 200.65 143.81 200.65 C 144.67 200.65 145.37 199.95 145.37 199.09 L 145.37 198.08 C 145.37 197.22 144.67 196.52 143.81 196.52 C 142.94 196.52 142.24 197.22 142.24 198.08 Z M 142.24 199.09 L 142.24 200.09 C 142.24 200.95 142.94 201.65 143.81 201.65 C 144.67 201.65 145.37 200.95 145.37 200.09 L 145.37 199.09 C 145.37 198.23 144.67 197.53 143.81 197.53 C 142.94 197.53 142.24 198.23 142.24 199.09 Z M 142.24 200.09 L 142.24 201.08 C 142.24 201.94 142.94 202.64 143.81 202.64 C 144.67 202.64 145.37 201.94 145.37 201.08 L 145.37 200.09 C 145.37 199.22 144.67 198.53 143.81 198.53 C 142.94 198.53 142.24 199.22 142.24 200.09 Z M 142.24 201.08 L 142.24 202.10 C 142.24 202.96 142.94 203.66 143.81 203.66 C 144.67 203.66 145.37 202.96 145.37 202.10 L 145.37 201.08 C 145.37 200.21 144.67 199.51 143.81 199.51 C 142.94 199.51 142.24 200.21 142.24 201.08 Z M 142.24 202.10 L 142.24 203.12 C 142.24 203.98 142.94 204.68 143.81 204.68 C 144.67 204.68 145.37 203.98 145.37 203.12 L 145.37 202.10 C 145.37 201.24 144.67 200.54 143.81 200.54 C 142.94 200.54 142.24 201.24 142.24 202.10 Z M 142.24 203.12 L 142.24 204.12 C 142.24 204.98 142.94 205.68 143.81 205.68 C 144.67 205.68 145.37 204.98 145.37 204.12 L 145.37 203.12 C 145.37 202.26 144.67 201.56 143.81 201.56 C 142.94 201.56 142.24 202.26 142.24 203.12 Z M 142.24 204.12 L 142.24 205.09 C 142.24 205.95 142.94 206.65 143.81 206.65 C 144.67 206.65 145.37 205.95 145.37 205.09 L 145.37 204.12 C 145.37 203.25 144.67 202.56 143.81 202.56 C 142.94 202.56 142.24 203.25 142.24 204.12 Z M 142.24 205.09 L 142.24 206.09 C 142.24 206.95 142.94 207.65 143.81 207.65 C 144.67 207.65 145.37 206.95 145.37 206.09 L 145.37 205.09 C 145.37 204.23 144.67 203.53 143.81 203.53 C 142.94 203.53 142.24 204.23 142.24 205.09 Z M 142.24 206.09 L 142.24 207.09 C 142.24 207.95 142.94 208.65 143.81 208.65 C 144.67 208.65 145.37 207.95 145.37 207.09 L 145.37 206.09 C 145.37 205.22 144.67 204.52 143.81 204.52 C 142.94 204.52 142.24 205.22 142.24 206.09 Z M 142.24 207.09 L 142.24 208.08 C 142.24 208.94 142.94 209.64 143.81 209.64 C 144.67 209.64 145.37 208.94 145.37 208.08 L 145.37 207.09 C 145.37 206.23 144.67 205.53 143.81 205.53 C 142.94 205.53 142.24 206.23 142.24 207.09 Z M 142.24 208.08 L 142.24 209.07 C 142.24 209.93 142.94 210.63 143.81 210.63 C 144.67 210.63 145.37 209.93 145.37 209.07 L 145.37 208.08 C 145.37 207.22 144.67 206.52 143.81 206.52 C 142.94 206.52 142.24 207.22 142.24 208.08 Z M 142.24 209.07 L 142.24 210.06 C 142.24 210.92 142.94 211.62 143.81 211.62 C 144.67 211.62 145.37 210.92 145.37 210.06 L 145.37 209.07 C 145.37 208.21 144.67 207.51 143.81 207.51 C 142.94 207.51 142.24 208.21 142.24 209.07 Z M 142.24 210.06 L 142.24 211.05 C 142.24 211.92 142.94 212.62 143.81 212.62 C 144.67 212.62 145.37 211.92 145.37 211.05 L 145.37 210.06 C 145.37 209.20 144.67 208.50 143.81 208.50 C 142.94 208.50 142.24 209.20 142.24 210.06 Z M 142.24 211.05 L 142.24 212.06 C 142.24 212.92 142.94 213.62 143.81 213.62 C 144.67 213.62 145.37 212.92 145.37 212.06 L 145.37 211.05 C 145.37 210.19 144.67 209.49 143.81 209.49 C 142.94 209.49 142.24 210.19 142.24 211.05 Z M 142.24 212.06 L 142.24 213.07 C 142.24 213.93 142.94 214.63 143.81 214.63 C 144.67 214.63 145.37 213.93 145.37 213.07 L 145.37 212.06 C 145.37 211.20 144.67 210.50 143.81 210.50 C 142.94 210.50 142.24 211.20 142.24 212.06 Z M 142.24 213.07 L 142.24 214.08 C 142.24 214.94 142.94 215.64 143.81 215.64 C 144.67 215.64 145.37 214.94 145.37 214.08 L 145.37 213.07 C 145.37 212.21 144.67 211.51 143.81 211.51 C 142.94 211.51 142.24 212.21 142.24 213.07 Z M 142.24 214.08 L 142.24 215.09 C 142.24 215.95 142.94 216.65 143.81 216.65 C 144.67 216.65 145.37 215.95 145.37 215.09 L 145.37 214.08 C 145.37 213.22 144.67 212.52 143.81 212.52 C 142.94 212.52 142.24 213.22 142.24 214.08 Z M 142.24 215.09 L 142.24 216.09 C 142.24 216.95 142.94 217.65 143.81 217.65 C 144.67 217.65 145.37 216.95 145.37 216.09 L 145.37 215.09 C 145.37 214.23 144.67 213.53 143.81 213.53 C 142.94 213.53 142.24 214.23 142.24 215.09 Z M 142.24 216.09 L 142.24 217.07 C 142.24 217.94 142.94 218.63 143.81 218.63 C 144.67 218.63 145.37 217.94 145.37 217.07 L 145.37 216.09 C 145.37 215.23 144.67 214.53 143.81 214.53 C 142.94 214.53 142.24 215.23 142.24 216.09 Z M 142.24 217.07 L 142.24 218.09 C 142.24 218.95 142.94 219.65 143.81 219.65 C 144.67 219.65 145.37 218.95 145.37 218.09 L 145.37 217.07 C 145.37 216.21 144.67 215.51 143.81 215.51 C 142.94 215.51 142.24 216.21 142.24 217.07 Z M 142.24 218.09 L 142.24 219.09 C 142.24 219.96 142.94 220.66 143.81 220.66 C 144.67 220.66 145.37 219.96 145.37 219.09 L 145.37 218.09 C 145.37 217.23 144.67 216.53 143.81 216.53 C 142.94 216.53 142.24 217.23 142.24 218.09 Z M 142.24 219.09 L 142.24 220.09 C 142.24 220.95 142.94 221.65 143.81 221.65 C 144.67 221.65 145.37 220.95 145.37 220.09 L 145.37 219.09 C 145.37 218.23 144.67 217.53 143.81 217.53 C 142.94 217.53 142.24 218.23 142.24 219.09 Z M 142.24 220.09 L 142.24 221.08 C 142.24 221.94 142.94 222.64 143.81 222.64 C 144.67 222.64 145.37 221.94 145.37 221.08 L 145.37 220.09 C 145.37 219.22 144.67 218.52 143.81 218.52 C 142.94 218.52 142.24 219.22 142.24 220.09 Z M 142.24 221.08 L 142.24 222.10 C 142.24 222.96 142.94 223.66 143.81 223.66 C 144.67 223.66 145.37 222.96 145.37 222.10 L 145.37 221.08 C 145.37 220.21 144.67 219.52 143.81 219.52 C 142.94 219.52 142.24 220.21 142.24 221.08 Z M 142.24 222.10 L 142.24 223.10 C 142.24 223.96 142.94 224.66 143.81 224.66 C 144.67 224.66 145.37 223.96 145.37 223.10 L 145.37 222.10 C 145.37 221.24 144.67 220.54 143.81 220.54 C 142.94 220.54 142.24 221.24 142.24 222.10 Z M 142.24 223.10 L 142.24 224.08 C 142.24 224.95 142.94 225.65 143.81 225.65 C 144.67 225.65 145.37 224.95 145.37 224.08 L 145.37 223.10 C 145.37 222.24 144.67 221.54 143.81 221.54 C 142.94 221.54 142.24 222.24 142.24 223.10 Z M 142.24 224.08 L 142.24 225.04 C 142.24 225.90 142.94 226.60 143.81 226.60 C 144.67 226.60 145.37 225.90 145.37 225.04 L 145.37 224.08 C 145.37 223.22 144.67 222.52 143.81 222.52 C 142.94 222.52 142.24 223.22 142.24 224.08 Z M 142.24 225.04 L 142.24 226.00 C 142.24 226.86 142.94 227.56 143.81 227.56 C 144.67 227.56 145.37 226.86 145.37 226.00 L 145.37 225.04 C 145.37 224.18 144.67 223.48 143.81 223.48 C 142.94 223.48 142.24 224.18 142.24 225.04 Z M 142.24 226.00 L 142.24 227.00 C 142.24 227.86 142.94 228.56 143.81 228.56 C 144.67 228.56 145.37 227.86 145.37 227.00 L 145.37 226.00 C 145.37 225.14 144.67 224.44 143.81 224.44 C 142.94 224.44 142.24 225.14 142.24 226.00 Z M 142.24 227.00 L 142.24 228.06 C 142.24 228.92 142.94 229.62 143.81 229.62 C 144.67 229.62 145.37 228.92 145.37 228.06 L 145.37 227.00 C 145.37 226.14 144.67 225.44 143.81 225.44 C 142.94 225.44 142.24 226.14 142.24 227.00 Z M 142.24 228.06 L 142.24 229.03 C 142.24 229.89 142.94 230.59 143.81 230.59 C 144.67 230.59 145.37 229.89 145.37 229.03 L 145.37 228.06 C 145.37 227.20 144.67 226.50 143.81 226.50 C 142.94 226.50 142.24 227.20 142.24 228.06 Z M 142.24 229.03 L 142.24 230.05 C 142.24 230.91 142.94 231.61 143.81 231.61 C 144.67 231.61 145.37 230.91 145.37 230.05 L 145.37 229.03 C 145.37 228.17 144.67 227.47 143.81 227.47 C 142.94 227.47 142.24 228.17 142.24 229.03 Z M 142.24 230.05 L 142.24 231.07 C 142.24 231.93 142.94 232.63 143.81 232.63 C 144.67 232.63 145.37 231.93 145.37 231.07 L 145.37 230.05 C 145.37 229.18 144.67 228.48 143.81 228.48 C 142.94 228.48 142.24 229.18 142.24 230.05 Z M 142.24 231.07 L 142.24 232.08 C 142.24 232.94 142.94 233.64 143.81 233.64 C 144.67 233.64 145.37 232.94 145.37 232.08 L 145.37 231.07 C 145.37 230.21 144.67 229.51 143.81 229.51 C 142.94 229.51 142.24 230.21 142.24 231.07 Z M 142.24 232.08 L 142.24 233.15 C 142.24 234.01 142.94 234.71 143.81 234.71 C 144.67 234.71 145.37 234.01 145.37 233.15 L 145.37 232.08 C 145.37 231.21 144.67 230.51 143.81 230.51 C 142.94 230.51 142.24 231.21 142.24 232.08 Z M 142.24 233.15 L 142.24 234.18 C 142.24 235.04 142.94 235.74 143.81 235.74 C 144.67 235.74 145.37 235.04 145.37 234.18 L 145.37 233.15 C 145.37 232.29 144.67 231.59 143.81 231.59 C 142.94 231.59 142.24 232.29 142.24 233.15 Z M 142.24 234.18 L 142.24 235.14 C 142.24 236.01 142.94 236.70 143.81 236.70 C 144.67 236.70 145.37 236.01 145.37 235.14 L 145.37 234.18 C 145.37 233.32 144.67 232.62 143.81 232.62 C 142.94 232.62 142.24 233.32 142.24 234.18 Z M 142.24 235.14 L 142.24 236.06 C 142.24 236.92 142.94 237.62 143.81 237.62 C 144.67 237.62 145.37 236.92 145.37 236.06 L 145.37 235.14 C 145.37 234.28 144.67 233.58 143.81 233.58 C 142.94 233.58 142.24 234.28 142.24 235.14 Z M 142.24 236.05 L 142.24 236.98 C 142.23 237.84 142.92 238.55 143.78 238.55 C 144.65 238.56 145.35 237.87 145.36 237.00 L 145.37 236.08 C 145.37 235.21 144.68 234.51 143.82 234.50 C 142.96 234.49 142.25 235.19 142.24 236.05 Z M 142.24 236.92 L 142.19 237.88 C 142.16 238.74 142.82 239.47 143.68 239.51 C 144.55 239.55 145.27 238.88 145.31 238.02 L 145.36 237.06 C 145.40 236.20 144.73 235.47 143.87 235.43 C 143.01 235.39 142.28 236.06 142.24 236.92 Z M 142.20 237.79 L 142.09 238.84 C 142.00 239.70 142.62 240.47 143.48 240.56 C 144.34 240.64 145.11 240.02 145.20 239.16 L 145.31 238.11 C 145.40 237.25 144.77 236.49 143.92 236.40 C 143.06 236.31 142.29 236.93 142.20 237.79 Z M 142.10 238.75 L 141.95 239.71 C 141.81 240.56 142.38 241.37 143.23 241.51 C 144.08 241.65 144.89 241.07 145.03 240.22 L 145.18 239.26 C 145.32 238.40 144.75 237.60 143.90 237.46 C 143.05 237.32 142.24 237.90 142.10 238.75 Z M 141.96 239.65 L 141.77 240.57 C 141.60 241.41 142.14 242.24 142.99 242.41 C 143.83 242.58 144.66 242.04 144.83 241.19 L 145.02 240.28 C 145.19 239.43 144.64 238.61 143.80 238.44 C 142.95 238.26 142.13 238.81 141.96 239.65 Z M 141.78 240.53 L 141.56 241.50 C 141.36 242.35 141.89 243.18 142.73 243.37 C 143.57 243.57 144.41 243.04 144.60 242.20 L 144.82 241.23 C 145.01 240.39 144.49 239.55 143.65 239.36 C 142.81 239.16 141.97 239.69 141.78 240.53 Z M 141.56 241.48 L 141.31 242.50 C 141.11 243.34 141.62 244.18 142.46 244.39 C 143.30 244.59 144.14 244.08 144.35 243.24 L 144.59 242.22 C 144.80 241.38 144.28 240.54 143.45 240.34 C 142.61 240.13 141.76 240.64 141.56 241.48 Z M 141.32 242.49 L 141.05 243.53 C 140.84 244.36 141.35 245.21 142.19 245.42 C 143.02 245.63 143.87 245.13 144.08 244.29 L 144.34 243.25 C 144.55 242.41 144.05 241.57 143.21 241.35 C 142.38 241.14 141.53 241.65 141.32 242.49 Z M 141.05 243.52 L 140.94 243.96 C 140.73 244.79 141.24 245.64 142.07 245.85 C 142.91 246.07 143.76 245.56 143.97 244.73 L 144.08 244.29 C 144.29 243.46 143.79 242.61 142.95 242.40 C 142.12 242.18 141.27 242.69 141.05 243.52 Z"
      fill="black"
      fill-rule="nonzero" /><path d="M 107.85 138.97 L 108.02 138.00 C 108.17 137.15 107.61 136.34 106.76 136.18 C 105.91 136.03 105.10 136.60 104.95 137.44 L 104.77 138.42 C 104.62 139.27 105.19 140.08 106.04 140.23 C 106.88 140.38 107.70 139.82 107.85 138.97 Z M 107.99 138.12 L 108.25 137.17 C 108.47 136.34 107.98 135.48 107.14 135.26 C 106.31 135.04 105.45 135.53 105.23 136.37 L 104.98 137.32 C 104.75 138.15 105.25 139.01 106.08 139.23 C 106.91 139.45 107.77 138.96 107.99 138.12 Z M 108.16 137.42 L 108.58 136.51 C 108.93 135.72 108.59 134.79 107.80 134.44 C 107.02 134.08 106.09 134.43 105.73 135.21 L 105.32 136.12 C 104.96 136.91 105.31 137.83 106.09 138.19 C 106.88 138.55 107.80 138.20 108.16 137.42 Z M 108.41 136.79 L 108.98 136.03 C 109.49 135.33 109.35 134.36 108.66 133.84 C 107.97 133.33 106.99 133.47 106.47 134.16 L 105.90 134.93 C 105.39 135.62 105.53 136.59 106.22 137.11 C 106.91 137.63 107.89 137.48 108.41 136.79 Z M 108.79 136.23 L 109.49 135.58 C 110.12 134.99 110.15 134.00 109.57 133.37 C 108.98 132.74 107.99 132.71 107.36 133.30 L 106.66 133.95 C 106.03 134.54 106.00 135.53 106.59 136.16 C 107.17 136.79 108.16 136.82 108.79 136.23 Z M 109.33 135.71 L 110.16 135.12 C 110.86 134.62 111.02 133.64 110.52 132.94 C 110.02 132.24 109.05 132.08 108.34 132.58 L 107.52 133.17 C 106.82 133.67 106.65 134.64 107.15 135.35 C 107.66 136.05 108.63 136.21 109.33 135.71 Z M 110.02 135.21 L 110.93 134.69 C 111.69 134.27 111.95 133.32 111.53 132.56 C 111.10 131.81 110.15 131.55 109.40 131.97 L 108.48 132.49 C 107.73 132.91 107.47 133.86 107.89 134.62 C 108.31 135.37 109.27 135.63 110.02 135.21 Z M 110.81 134.76 L 111.77 134.32 C 112.56 133.97 112.91 133.05 112.56 132.26 C 112.20 131.47 111.28 131.12 110.49 131.48 L 109.53 131.91 C 108.74 132.26 108.39 133.18 108.74 133.97 C 109.10 134.76 110.02 135.11 110.81 134.76 Z M 111.66 134.37 L 112.64 134.02 C 113.45 133.73 113.87 132.84 113.58 132.03 C 113.29 131.22 112.40 130.79 111.59 131.08 L 110.61 131.43 C 109.80 131.72 109.37 132.61 109.66 133.42 C 109.95 134.24 110.84 134.66 111.66 134.37 Z M 112.54 134.05 L 113.51 133.77 C 114.34 133.54 114.82 132.67 114.59 131.85 C 114.35 131.02 113.49 130.54 112.66 130.77 L 111.68 131.05 C 110.85 131.29 110.37 132.15 110.61 132.98 C 110.85 133.81 111.71 134.29 112.54 134.05 Z M 113.44 133.79 L 114.38 133.58 C 115.22 133.39 115.75 132.55 115.55 131.71 C 115.36 130.87 114.52 130.34 113.68 130.53 L 112.74 130.75 C 111.90 130.94 111.37 131.78 111.57 132.62 C 111.76 133.46 112.60 133.99 113.44 133.79 Z M 114.32 133.59 L 115.29 133.41 C 116.13 133.26 116.69 132.44 116.54 131.59 C 116.38 130.75 115.57 130.19 114.72 130.34 L 113.75 130.52 C 112.90 130.68 112.34 131.49 112.50 132.34 C 112.65 133.19 113.47 133.75 114.32 133.59 Z M 115.22 133.42 L 116.24 133.28 C 117.10 133.16 117.69 132.37 117.57 131.51 C 117.45 130.66 116.66 130.07 115.80 130.19 L 114.78 130.33 C 113.93 130.45 113.34 131.24 113.46 132.10 C 113.58 132.95 114.37 133.54 115.22 133.42 Z M 116.17 133.29 L 117.14 133.19 C 118.00 133.11 118.63 132.35 118.54 131.49 C 118.46 130.63 117.70 130.00 116.84 130.09 L 115.87 130.18 C 115.02 130.26 114.39 131.02 114.47 131.88 C 114.55 132.74 115.32 133.37 116.17 133.29 Z M 117.08 133.20 L 118.03 133.14 C 118.89 133.09 119.55 132.35 119.50 131.49 C 119.45 130.63 118.71 129.98 117.85 130.03 L 116.90 130.08 C 116.04 130.13 115.38 130.87 115.43 131.73 C 115.48 132.59 116.22 133.25 117.08 133.20 Z M 117.99 133.14 L 118.93 133.12 C 119.80 133.09 120.47 132.37 120.45 131.51 C 120.42 130.65 119.70 129.97 118.84 129.99 L 117.90 130.02 C 117.03 130.05 116.36 130.77 116.38 131.63 C 116.41 132.49 117.13 133.17 117.99 133.14 Z M 118.91 133.12 L 119.89 133.10 C 120.75 133.09 121.44 132.39 121.43 131.52 C 121.42 130.66 120.72 129.97 119.85 129.98 L 118.87 129.99 C 118.01 130.00 117.32 130.71 117.33 131.57 C 117.34 132.44 118.04 133.13 118.91 133.12 Z M 119.88 133.10 L 120.92 133.10 C 121.78 133.10 122.48 132.40 122.48 131.54 C 122.48 130.67 121.77 129.98 120.91 129.98 L 119.87 129.98 C 119.01 129.98 118.31 130.69 118.31 131.55 C 118.31 132.41 119.02 133.11 119.88 133.10 Z M 120.92 133.10 L 121.91 133.10 C 122.77 133.10 123.47 132.40 123.47 131.54 C 123.47 130.68 122.77 129.98 121.91 129.98 L 120.92 129.98 C 120.05 129.98 119.36 130.68 119.36 131.54 C 119.36 132.40 120.05 133.10 120.92 133.10 Z M 121.91 133.10 L 122.88 133.10 C 123.74 133.10 124.44 132.40 124.44 131.54 C 124.44 130.68 123.74 129.98 122.88 129.98 L 121.91 129.98 C 121.04 129.98 120.34 130.68 120.34 131.54 C 120.34 132.40 121.04 133.10 121.91 133.10 Z M 122.88 133.10 L 123.89 133.10 C 124.75 133.10 125.45 132.40 125.45 131.54 C 125.45 130.68 124.75 129.98 123.89 129.98 L 122.88 129.98 C 122.02 129.98 121.32 130.68 121.32 131.54 C 121.32 132.40 122.02 133.10 122.88 133.10 Z M 123.89 133.10 L 124.93 133.10 C 125.79 133.10 126.49 132.40 126.49 131.54 C 126.49 130.68 125.79 129.98 124.93 129.98 L 123.89 129.98 C 123.03 129.98 122.33 130.68 122.33 131.54 C 122.33 132.40 123.03 133.10 123.89 133.10 Z M 124.93 133.10 L 125.94 133.10 C 126.80 133.10 127.50 132.40 127.50 131.54 C 127.50 130.68 126.80 129.98 125.94 129.98 L 124.93 129.98 C 124.06 129.98 123.37 130.68 123.37 131.54 C 123.37 132.40 124.06 133.10 124.93 133.10 Z M 125.94 133.10 L 126.93 133.10 C 127.79 133.10 128.49 132.40 128.49 131.54 C 128.49 130.68 127.79 129.98 126.93 129.98 L 125.94 129.98 C 125.08 129.98 124.38 130.68 124.38 131.54 C 124.38 132.40 125.08 133.10 125.94 133.10 Z M 126.93 133.10 L 127.93 133.10 C 128.79 133.10 129.49 132.40 129.49 131.54 C 129.49 130.68 128.79 129.98 127.93 129.98 L 126.93 129.98 C 126.07 129.98 125.37 130.68 125.37 131.54 C 125.37 132.40 126.07 133.10 126.93 133.10 Z M 127.93 133.10 L 128.94 133.10 C 129.80 133.10 130.50 132.40 130.50 131.54 C 130.50 130.68 129.80 129.98 128.94 129.98 L 127.93 129.98 C 127.07 129.98 126.37 130.68 126.37 131.54 C 126.37 132.40 127.07 133.10 127.93 133.10 Z M 128.94 133.10 L 129.95 133.10 C 130.81 133.10 131.51 132.40 131.51 131.54 C 131.51 130.68 130.81 129.98 129.95 129.98 L 128.94 129.98 C 128.07 129.98 127.38 130.68 127.38 131.54 C 127.38 132.40 128.07 133.10 128.94 133.10 Z M 129.94 133.10 L 130.94 133.10 C 131.80 133.10 132.50 132.41 132.51 131.54 C 132.51 130.68 131.81 129.98 130.95 129.98 L 129.95 129.98 C 129.09 129.98 128.39 130.68 128.39 131.54 C 128.38 132.40 129.08 133.10 129.94 133.10 Z M 130.93 133.10 L 131.93 133.11 C 132.79 133.12 133.50 132.43 133.51 131.56 C 133.51 130.70 132.82 130.00 131.96 129.99 L 130.96 129.98 C 130.10 129.97 129.39 130.67 129.38 131.53 C 129.38 132.39 130.07 133.10 130.93 133.10 Z M 131.91 133.11 L 132.91 133.13 C 133.78 133.15 134.49 132.47 134.51 131.61 C 134.53 130.74 133.84 130.03 132.98 130.01 L 131.98 129.99 C 131.12 129.97 130.40 130.65 130.39 131.52 C 130.37 132.38 131.05 133.09 131.91 133.11 Z M 132.88 133.13 L 133.88 133.17 C 134.74 133.21 135.47 132.54 135.51 131.68 C 135.54 130.82 134.87 130.09 134.01 130.05 L 133.01 130.01 C 132.15 129.98 131.42 130.65 131.39 131.51 C 131.35 132.37 132.02 133.10 132.88 133.13 Z M 133.84 133.17 L 134.86 133.24 C 135.72 133.29 136.46 132.64 136.52 131.78 C 136.58 130.92 135.93 130.18 135.07 130.12 L 134.05 130.06 C 133.19 130.00 132.45 130.65 132.39 131.51 C 132.33 132.37 132.98 133.11 133.84 133.17 Z M 134.83 133.24 L 135.84 133.32 C 136.70 133.40 137.46 132.76 137.53 131.90 C 137.61 131.05 136.97 130.29 136.11 130.21 L 135.10 130.12 C 134.24 130.05 133.48 130.69 133.41 131.54 C 133.33 132.40 133.97 133.16 134.83 133.24 Z M 135.82 133.32 L 136.82 133.42 C 137.68 133.51 138.44 132.88 138.53 132.02 C 138.62 131.17 137.99 130.40 137.13 130.32 L 136.13 130.22 C 135.28 130.13 134.51 130.76 134.42 131.61 C 134.34 132.47 134.96 133.24 135.82 133.32 Z M 136.82 133.42 L 137.79 133.52 C 138.65 133.61 139.42 132.99 139.51 132.13 C 139.59 131.27 138.97 130.51 138.11 130.42 L 137.14 130.32 C 136.28 130.23 135.51 130.85 135.42 131.71 C 135.33 132.57 135.96 133.33 136.82 133.42 Z M 137.80 133.52 L 138.79 133.62 C 139.65 133.70 140.41 133.07 140.49 132.22 C 140.58 131.36 139.95 130.59 139.09 130.51 L 138.10 130.42 C 137.25 130.33 136.48 130.96 136.40 131.82 C 136.32 132.68 136.94 133.44 137.80 133.52 Z M 138.81 133.62 L 139.82 133.71 C 140.68 133.78 141.44 133.14 141.51 132.28 C 141.58 131.43 140.95 130.67 140.09 130.60 L 139.07 130.51 C 138.21 130.44 137.46 131.07 137.38 131.93 C 137.31 132.79 137.95 133.55 138.81 133.62 Z M 139.84 133.71 L 140.83 133.78 C 141.69 133.85 142.44 133.20 142.50 132.35 C 142.57 131.49 141.92 130.74 141.07 130.67 L 140.07 130.60 C 139.21 130.53 138.46 131.17 138.40 132.03 C 138.33 132.89 138.98 133.64 139.84 133.71 Z M 140.84 133.78 L 141.82 133.85 C 142.68 133.91 143.42 133.27 143.48 132.41 C 143.55 131.55 142.90 130.80 142.04 130.74 L 141.06 130.67 C 140.20 130.61 139.45 131.26 139.39 132.12 C 139.33 132.98 139.98 133.72 140.84 133.78 Z M 141.82 133.85 L 142.81 133.92 C 143.67 133.98 144.41 133.33 144.47 132.47 C 144.53 131.61 143.88 130.87 143.02 130.81 L 142.04 130.74 C 141.18 130.68 140.43 131.33 140.37 132.19 C 140.31 133.05 140.96 133.79 141.82 133.85 Z M 142.81 133.92 L 143.81 133.99 C 144.67 134.05 145.41 133.41 145.48 132.55 C 145.54 131.69 144.89 130.94 144.03 130.88 L 143.03 130.81 C 142.17 130.75 141.42 131.39 141.36 132.26 C 141.30 133.12 141.95 133.86 142.81 133.92 Z M 143.81 133.99 L 144.81 134.06 C 145.67 134.13 146.41 133.48 146.47 132.62 C 146.54 131.76 145.89 131.01 145.03 130.95 L 144.03 130.88 C 143.17 130.82 142.42 131.46 142.36 132.32 C 142.30 133.18 142.95 133.93 143.81 133.99 Z M 144.81 134.06 L 145.80 134.14 C 146.66 134.20 147.41 133.55 147.47 132.69 C 147.53 131.83 146.88 131.08 146.02 131.02 L 145.03 130.95 C 144.17 130.89 143.42 131.54 143.36 132.40 C 143.30 133.26 143.95 134.00 144.81 134.06 Z M 145.80 134.14 L 146.81 134.21 C 147.67 134.27 148.41 133.62 148.47 132.76 C 148.54 131.90 147.89 131.15 147.03 131.09 L 146.02 131.02 C 145.16 130.96 144.41 131.61 144.35 132.47 C 144.29 133.33 144.94 134.07 145.80 134.14 Z M 146.81 134.21 L 147.82 134.27 C 148.68 134.33 149.43 133.68 149.48 132.82 C 149.54 131.96 148.89 131.22 148.03 131.16 L 147.02 131.09 C 146.16 131.03 145.42 131.68 145.36 132.55 C 145.30 133.41 145.95 134.15 146.81 134.21 Z M 147.84 134.28 L 148.83 134.33 C 149.69 134.38 150.43 133.73 150.48 132.87 C 150.53 132.01 149.87 131.27 149.01 131.22 L 148.02 131.16 C 147.16 131.11 146.42 131.76 146.37 132.63 C 146.32 133.49 146.97 134.22 147.84 134.28 Z M 148.85 134.33 L 149.83 134.38 C 150.69 134.42 151.42 133.75 151.46 132.89 C 151.50 132.03 150.83 131.30 149.97 131.26 L 148.99 131.22 C 148.13 131.18 147.40 131.84 147.36 132.70 C 147.32 133.57 147.99 134.30 148.85 134.33 Z M 149.86 134.38 L 150.86 134.41 C 151.72 134.43 152.44 133.75 152.47 132.89 C 152.49 132.03 151.81 131.31 150.95 131.29 L 149.94 131.26 C 149.08 131.23 148.36 131.91 148.34 132.78 C 148.32 133.64 148.99 134.36 149.86 134.38 Z M 150.89 134.41 L 151.88 134.42 C 152.75 134.43 153.45 133.74 153.46 132.88 C 153.48 132.02 152.79 131.31 151.92 131.30 L 150.93 131.29 C 150.06 131.27 149.36 131.96 149.34 132.83 C 149.33 133.69 150.02 134.40 150.89 134.41 Z M 151.90 134.42 L 152.89 134.42 C 153.76 134.43 154.46 133.73 154.46 132.87 C 154.46 132.01 153.77 131.31 152.90 131.30 L 151.91 131.30 C 151.05 131.30 150.35 131.99 150.34 132.85 C 150.34 133.72 151.04 134.42 151.90 134.42 Z M 152.90 134.42 L 153.89 134.42 C 154.76 134.43 155.46 133.73 155.46 132.86 C 155.46 132.00 154.76 131.30 153.89 131.30 L 152.90 131.30 C 152.04 131.30 151.34 132.00 151.34 132.86 C 151.34 133.73 152.04 134.42 152.90 134.42 Z M 153.89 134.42 L 154.89 134.42 C 155.75 134.42 156.45 133.73 156.45 132.86 C 156.45 132.00 155.75 131.30 154.89 131.30 L 153.89 131.30 C 153.03 131.30 152.33 132.00 152.33 132.86 C 152.33 133.73 153.03 134.42 153.89 134.42 Z M 154.89 134.42 L 155.89 134.42 C 156.75 134.42 157.45 133.73 157.45 132.86 C 157.45 132.00 156.75 131.30 155.89 131.30 L 154.89 131.30 C 154.03 131.30 153.33 132.00 153.33 132.86 C 153.33 133.73 154.03 134.42 154.89 134.42 Z M 155.89 134.42 L 156.90 134.42 C 157.76 134.42 158.46 133.73 158.46 132.86 C 158.46 132.00 157.76 131.30 156.90 131.30 L 155.89 131.30 C 155.03 131.30 154.33 132.00 154.33 132.86 C 154.33 133.73 155.03 134.42 155.89 134.42 Z M 156.90 134.42 L 157.89 134.42 C 158.75 134.42 159.45 133.73 159.45 132.86 C 159.45 132.00 158.75 131.30 157.89 131.30 L 156.90 131.30 C 156.03 131.30 155.34 132.00 155.34 132.86 C 155.34 133.73 156.03 134.42 156.90 134.42 Z M 157.89 134.42 L 158.88 134.42 C 159.74 134.42 160.44 133.73 160.44 132.86 C 160.44 132.00 159.74 131.30 158.88 131.30 L 157.89 131.30 C 157.02 131.30 156.33 132.00 156.33 132.86 C 156.33 133.73 157.02 134.42 157.89 134.42 Z M 158.88 134.42 L 159.88 134.42 C 160.75 134.42 161.44 133.73 161.44 132.86 C 161.44 132.00 160.75 131.30 159.88 131.30 L 158.88 131.30 C 158.02 131.30 157.32 132.00 157.32 132.86 C 157.32 133.73 158.02 134.42 158.88 134.42 Z M 159.88 134.42 L 160.89 134.42 C 161.76 134.42 162.45 133.73 162.45 132.86 C 162.45 132.00 161.76 131.30 160.89 131.30 L 159.88 131.30 C 159.02 131.30 158.32 132.00 158.32 132.86 C 158.32 133.73 159.02 134.42 159.88 134.42 Z M 160.89 134.42 L 161.89 134.42 C 162.75 134.42 163.45 133.73 163.45 132.86 C 163.45 132.00 162.75 131.30 161.89 131.30 L 160.89 131.30 C 160.03 131.30 159.33 132.00 159.33 132.86 C 159.33 133.73 160.03 134.42 160.89 134.42 Z M 161.89 134.42 L 162.89 134.42 C 163.75 134.42 164.45 133.73 164.45 132.86 C 164.45 132.00 163.75 131.30 162.89 131.30 L 161.89 131.30 C 161.03 131.30 160.33 132.00 160.33 132.86 C 160.33 133.73 161.03 134.42 161.89 134.42 Z M 162.89 134.42 L 163.90 134.42 C 164.76 134.42 165.46 133.73 165.46 132.86 C 165.46 132.00 164.76 131.30 163.90 131.30 L 162.89 131.30 C 162.03 131.30 161.33 132.00 161.33 132.86 C 161.33 133.73 162.03 134.42 162.89 134.42 Z M 163.90 134.42 L 164.90 134.42 C 165.76 134.42 166.46 133.73 166.46 132.86 C 166.46 132.00 165.76 131.30 164.90 131.30 L 163.90 131.30 C 163.04 131.30 162.34 132.00 162.34 132.86 C 162.34 133.73 163.04 134.42 163.90 134.42 Z M 164.90 134.42 L 165.90 134.42 C 166.76 134.42 167.46 133.73 167.46 132.86 C 167.46 132.00 166.76 131.30 165.90 131.30 L 164.90 131.30 C 164.04 131.30 163.34 132.00 163.34 132.86 C 163.34 133.73 164.04 134.42 164.90 134.42 Z M 165.90 134.42 L 166.90 134.42 C 167.76 134.42 168.46 133.73 168.46 132.86 C 168.46 132.00 167.76 131.30 166.90 131.30 L 165.90 131.30 C 165.04 131.30 164.34 132.00 164.34 132.86 C 164.34 133.73 165.04 134.42 165.90 134.42 Z M 166.90 134.42 L 167.90 134.42 C 168.76 134.42 169.46 133.73 169.46 132.86 C 169.46 132.00 168.76 131.30 167.90 131.30 L 166.90 131.30 C 166.03 131.30 165.33 132.00 165.33 132.86 C 165.33 133.73 166.03 134.42 166.90 134.42 Z M 167.90 134.42 L 168.77 134.42 C 169.63 134.42 170.33 133.73 170.33 132.86 C 170.33 132.00 169.63 131.30 168.77 131.30 L 167.90 131.30 C 167.03 131.30 166.33 132.00 166.33 132.86 C 166.33 133.73 167.03 134.42 167.90 134.42 Z M 168.77 134.42 L 169.63 134.42 C 170.49 134.42 171.19 133.73 171.19 132.86 C 171.19 132.00 170.49 131.30 169.63 131.30 L 168.77 131.30 C 167.90 131.30 167.21 132.00 167.21 132.86 C 167.21 133.73 167.90 134.42 168.77 134.42 Z M 169.63 134.42 L 170.57 134.42 C 171.44 134.42 172.14 133.73 172.14 132.86 C 172.14 132.00 171.44 131.30 170.57 131.30 L 169.63 131.30 C 168.76 131.30 168.06 132.00 168.06 132.86 C 168.06 133.73 168.76 134.42 169.63 134.42 Z M 170.57 134.42 L 171.66 134.42 C 172.52 134.42 173.22 133.73 173.22 132.86 C 173.22 132.00 172.52 131.30 171.66 131.30 L 170.57 131.30 C 169.71 131.30 169.01 132.00 169.01 132.86 C 169.01 133.73 169.71 134.42 170.57 134.42 Z M 171.66 134.42 L 172.89 134.42 C 173.75 134.42 174.45 133.73 174.45 132.86 C 174.45 132.00 173.75 131.30 172.89 131.30 L 171.66 131.30 C 170.80 131.30 170.10 132.00 170.10 132.86 C 170.10 133.73 170.80 134.42 171.66 134.42 Z M 172.89 134.42 L 173.82 134.42 C 174.68 134.42 175.38 133.73 175.38 132.86 C 175.38 132.00 174.68 131.30 173.82 131.30 L 172.89 131.30 C 172.03 131.30 171.33 132.00 171.33 132.86 C 171.33 133.73 172.03 134.43 172.89 134.42 Z M 173.82 134.42 L 174.82 134.42 C 175.69 134.42 176.38 133.72 176.38 132.86 C 176.38 132.00 175.68 131.30 174.82 131.30 L 173.82 131.30 C 172.96 131.30 172.26 132.00 172.26 132.86 C 172.26 133.73 172.96 134.43 173.82 134.42 Z M 174.83 134.42 L 175.87 134.42 C 176.73 134.42 177.43 133.72 177.42 132.86 C 177.42 131.99 176.72 131.30 175.86 131.30 L 174.82 131.30 C 173.96 131.30 173.26 132.00 173.26 132.87 C 173.26 133.73 173.96 134.43 174.83 134.42 Z M 175.87 134.42 L 176.93 134.42 C 177.79 134.41 178.48 133.71 178.48 132.85 C 178.48 131.99 177.77 131.29 176.91 131.29 L 175.86 131.30 C 174.99 131.30 174.30 132.00 174.30 132.87 C 174.31 133.73 175.01 134.43 175.87 134.42 Z M 176.93 134.42 L 177.97 134.41 C 178.83 134.40 179.53 133.70 179.52 132.84 C 179.52 131.98 178.81 131.28 177.95 131.29 L 176.91 131.29 C 176.05 131.30 175.35 132.00 175.36 132.87 C 175.36 133.73 176.07 134.42 176.93 134.42 Z M 177.98 134.41 L 178.98 134.40 C 179.84 134.39 180.54 133.68 180.53 132.82 C 180.52 131.96 179.81 131.27 178.95 131.28 L 177.94 131.29 C 177.08 131.30 176.39 132.00 176.40 132.87 C 176.41 133.73 177.12 134.42 177.98 134.41 Z M 178.99 134.40 L 179.93 134.38 C 180.79 134.37 181.48 133.66 181.46 132.80 C 181.45 131.94 180.74 131.25 179.88 131.26 L 178.94 131.28 C 178.08 131.29 177.39 132.00 177.40 132.86 C 177.42 133.72 178.13 134.41 178.99 134.40 Z M 179.94 134.38 L 181.20 134.35 C 182.06 134.33 182.74 133.61 182.72 132.75 C 182.70 131.89 181.98 131.21 181.12 131.23 L 179.86 131.26 C 179.00 131.28 178.32 132.00 178.34 132.86 C 178.36 133.72 179.08 134.40 179.94 134.38 Z M 181.22 134.35 L 182.32 134.31 C 183.18 134.28 183.85 133.55 183.82 132.69 C 183.78 131.83 183.06 131.16 182.20 131.19 L 181.10 131.23 C 180.24 131.26 179.57 131.99 179.60 132.85 C 179.63 133.71 180.36 134.38 181.22 134.35 Z M 182.34 134.31 L 183.29 134.26 C 184.15 134.21 184.81 133.48 184.76 132.62 C 184.72 131.76 183.98 131.09 183.12 131.14 L 182.17 131.19 C 181.31 131.23 180.65 131.97 180.70 132.83 C 180.74 133.69 181.48 134.35 182.34 134.31 Z M 183.31 134.26 L 184.14 134.20 C 185.01 134.15 185.66 133.40 185.60 132.54 C 185.54 131.68 184.80 131.03 183.94 131.09 L 183.10 131.14 C 182.24 131.20 181.59 131.94 181.65 132.80 C 181.70 133.66 182.45 134.31 183.31 134.26 Z M 184.16 134.20 L 185.04 134.13 C 185.89 134.07 186.54 133.32 186.47 132.46 C 186.41 131.60 185.66 130.96 184.80 131.02 L 183.93 131.09 C 183.07 131.15 182.42 131.90 182.49 132.76 C 182.55 133.62 183.30 134.27 184.16 134.20 Z M 185.05 134.13 L 186.08 134.05 C 186.94 133.98 187.57 133.22 187.50 132.36 C 187.43 131.50 186.68 130.87 185.82 130.94 L 184.79 131.02 C 183.93 131.09 183.29 131.85 183.36 132.71 C 183.43 133.57 184.19 134.20 185.05 134.13 Z M 186.09 134.05 L 187.06 133.96 C 187.92 133.88 188.55 133.13 188.48 132.27 C 188.40 131.41 187.64 130.77 186.78 130.85 L 185.81 130.94 C 184.95 131.01 184.32 131.77 184.39 132.63 C 184.47 133.49 185.23 134.12 186.09 134.05 Z M 187.07 133.96 L 187.89 133.88 C 188.75 133.80 189.38 133.04 189.30 132.19 C 189.23 131.33 188.47 130.70 187.61 130.77 L 186.78 130.85 C 185.92 130.93 185.29 131.69 185.37 132.55 C 185.45 133.41 186.21 134.04 187.07 133.96 Z"
      fill="black"
      fill-rule="nonzero" /></svg>