<svg xmlns="http://www.w3.org/2000/svg" width="300" height="300" viewBox="0 0 300 300">
<path d="M 106.55 91.21 L 105.83 91.89 C 105.20 92.48 105.17 93.47 105.76 94.10 C 106.35 94.73 107.34 94.76 107.97 94.17 L 108.69 93.48 C 109.32 92.89 109.35 91.90 108.76 91.27 C 108.17 90.65 107.18 90.62 106.55 91.21 Z M 105.69 92.04 L 105.07 92.80 C 104.52 93.47 104.62 94.45 105.29 95.00 C 105.95 95.54 106.94 95.44 107.48 94.78 L 108.10 94.02 C 108.65 93.35 108.55 92.37 107.88 91.82 C 107.22 91.27 106.23 91.37 105.69 92.04 Z M 104.85 93.15 L 104.44 94.05 C 104.09 94.84 104.44 95.76 105.23 96.12 C 106.01 96.47 106.94 96.12 107.29 95.33 L 107.70 94.43 C 108.05 93.64 107.70 92.72 106.92 92.36 C 106.13 92.01 105.21 92.36 104.85 93.15 Z M 104.32 94.49 L 104.21 95.32 C 104.10 96.18 104.71 96.96 105.56 97.07 C 106.42 97.18 107.20 96.58 107.31 95.72 L 107.42 94.89 C 107.53 94.04 106.92 93.25 106.07 93.14 C 105.21 93.03 104.43 93.64 104.32 94.49 Z M 104.20 95.63 L 104.27 96.52 C 104.33 97.38 105.08 98.03 105.94 97.97 C 106.80 97.90 107.44 97.16 107.38 96.30 L 107.32 95.41 C 107.26 94.55 106.51 93.90 105.65 93.97 C 104.79 94.03 104.14 94.77 104.20 95.63 Z M 104.30 96.73 L 104.50 97.71 C 104.68 98.56 105.51 99.10 106.35 98.92 C 107.19 98.75 107.73 97.92 107.56 97.08 L 107.35 96.09 C 107.18 95.25 106.35 94.70 105.51 94.88 C 104.66 95.06 104.12 95.88 104.30 96.73 Z M 104.54 97.85 L 104.87 98.93 C 105.12 99.75 106.00 100.21 106.82 99.96 C 107.65 99.71 108.11 98.83 107.85 98.01 L 107.52 96.93 C 107.27 96.11 106.39 95.65 105.57 95.90 C 104.75 96.16 104.28 97.03 104.54 97.85 Z M 104.90 99.02 L 105.31 100.09 C 105.62 100.90 106.52 101.30 107.32 100.99 C 108.13 100.69 108.53 99.79 108.23 98.98 L 107.82 97.91 C 107.51 97.11 106.61 96.70 105.81 97.01 C 105.00 97.32 104.60 98.22 104.90 99.02 Z M 105.33 100.15 L 105.74 101.09 C 106.08 101.88 106.99 102.25 107.79 101.91 C 108.58 101.57 108.95 100.65 108.61 99.86 L 108.20 98.92 C 107.86 98.13 106.94 97.76 106.15 98.10 C 105.36 98.44 104.99 99.36 105.33 100.15 Z M 105.75 101.13 L 106.19 102.08 C 106.55 102.86 107.48 103.20 108.26 102.84 C 109.05 102.48 109.39 101.55 109.03 100.77 L 108.59 99.82 C 108.23 99.04 107.30 98.70 106.52 99.06 C 105.73 99.42 105.39 100.35 105.75 101.13 Z M 106.21 102.11 L 106.66 103.05 C 107.04 103.82 107.98 104.14 108.75 103.76 C 109.53 103.39 109.85 102.45 109.47 101.68 L 109.01 100.74 C 108.63 99.97 107.70 99.64 106.92 100.02 C 106.15 100.40 105.83 101.34 106.21 102.11 Z M 106.68 103.07 L 107.13 103.96 C 107.52 104.73 108.46 105.04 109.23 104.65 C 110.00 104.26 110.30 103.32 109.91 102.55 L 109.46 101.65 C 109.07 100.88 108.13 100.58 107.36 100.97 C 106.59 101.36 106.28 102.30 106.68 103.07 Z M 107.14 103.98 L 107.58 104.81 C 107.98 105.58 108.92 105.87 109.69 105.47 C 110.45 105.07 110.74 104.12 110.34 103.36 L 109.90 102.53 C 109.50 101.77 108.56 101.47 107.80 101.87 C 107.03 102.28 106.74 103.22 107.14 103.98 Z M 107.59 104.83 L 108.11 105.79 C 108.52 106.55 109.47 106.83 110.22 106.42 C 110.98 106.01 111.26 105.07 110.85 104.31 L 110.33 103.34 C 109.92 102.58 108.97 102.30 108.22 102.71 C 107.46 103.12 107.18 104.07 107.59 104.83 Z M 108.12 105.81 L 108.64 106.75 C 109.06 107.50 110.01 107.77 110.77 107.35 C 111.52 106.93 111.79 105.98 111.37 105.23 L 110.84 104.29 C 110.42 103.54 109.47 103.27 108.72 103.69 C 107.97 104.11 107.70 105.06 108.12 105.81 Z M 108.65 106.77 L 109.12 107.58 C 109.55 108.32 110.50 108.58 111.25 108.15 C 112.00 107.72 112.25 106.77 111.82 106.02 L 111.36 105.21 C 110.93 104.47 109.98 104.21 109.23 104.64 C 108.48 105.07 108.22 106.02 108.65 106.77 Z M 109.12 107.59 L 109.55 108.33 C 109.99 109.07 110.95 109.32 111.69 108.89 C 112.43 108.45 112.69 107.50 112.25 106.75 L 111.82 106.01 C 111.38 105.27 110.43 105.02 109.68 105.45 C 108.94 105.89 108.69 106.84 109.12 107.59 Z M 109.55 108.33 L 110.04 109.16 C 110.48 109.91 111.43 110.16 112.18 109.72 C 112.92 109.29 113.17 108.33 112.74 107.59 L 112.25 106.75 C 111.82 106.01 110.86 105.76 110.12 106.19 C 109.37 106.63 109.12 107.58 109.55 108.33 Z M 110.04 109.17 L 110.55 110.02 C 110.98 110.77 111.94 111.02 112.68 110.58 C 113.43 110.14 113.68 109.19 113.24 108.44 L 112.74 107.59 C 112.30 106.84 111.34 106.59 110.60 107.03 C 109.86 107.47 109.61 108.42 110.04 109.17 Z M 110.55 110.03 L 111.07 110.90 C 111.51 111.65 112.47 111.89 113.21 111.45 C 113.95 111.00 114.20 110.05 113.75 109.30 L 113.24 108.43 C 112.79 107.69 111.83 107.45 111.09 107.89 C 110.35 108.34 110.11 109.29 110.55 110.03 Z M 111.08 110.92 L 111.60 111.76 C 112.05 112.49 113.01 112.72 113.74 112.27 C 114.48 111.82 114.71 110.86 114.26 110.13 L 113.74 109.29 C 113.29 108.55 112.33 108.32 111.60 108.77 C 110.86 109.22 110.63 110.19 111.08 110.92 Z M 111.60 111.77 L 112.13 112.60 C 112.58 113.33 113.55 113.55 114.28 113.10 C 115.01 112.64 115.23 111.68 114.77 110.94 L 114.25 110.11 C 113.79 109.38 112.83 109.16 112.10 109.62 C 111.37 110.08 111.15 111.04 111.60 111.77 Z M 112.13 112.61 L 112.67 113.46 C 113.14 114.19 114.10 114.41 114.83 113.94 C 115.56 113.48 115.77 112.52 115.31 111.79 L 114.77 110.94 C 114.30 110.21 113.34 109.99 112.61 110.46 C 111.88 110.92 111.67 111.88 112.13 112.61 Z M 112.68 113.47 L 113.23 114.33 C 113.69 115.06 114.66 115.27 115.38 114.81 C 116.11 114.34 116.32 113.38 115.86 112.65 L 115.31 111.79 C 114.84 111.06 113.88 110.85 113.15 111.31 C 112.42 111.78 112.21 112.74 112.68 113.47 Z M 113.23 114.33 L 113.75 115.15 C 114.21 115.87 115.18 116.08 115.90 115.62 C 116.63 115.16 116.84 114.19 116.38 113.46 L 115.86 112.65 C 115.39 111.92 114.43 111.71 113.70 112.17 C 112.98 112.64 112.76 113.60 113.23 114.33 Z M 113.75 115.14 L 114.28 115.98 C 114.75 116.71 115.71 116.92 116.44 116.46 C 117.16 116.00 117.38 115.03 116.91 114.30 L 116.38 113.46 C 115.92 112.74 114.95 112.52 114.22 112.99 C 113.50 113.45 113.28 114.42 113.75 115.14 Z M 114.28 115.98 L 114.83 116.84 C 115.29 117.57 116.26 117.78 116.98 117.32 C 117.71 116.86 117.93 115.89 117.46 115.17 L 116.92 114.30 C 116.45 113.58 115.49 113.36 114.76 113.83 C 114.03 114.29 113.82 115.25 114.28 115.98 Z M 114.83 116.84 L 115.37 117.69 C 115.83 118.42 116.80 118.64 117.52 118.18 C 118.25 117.71 118.47 116.75 118.01 116.02 L 117.46 115.17 C 117.00 114.44 116.04 114.22 115.31 114.69 C 114.58 115.15 114.37 116.11 114.83 116.84 Z M 115.37 117.69 L 115.88 118.50 C 116.34 119.23 117.31 119.44 118.04 118.98 C 118.76 118.52 118.98 117.56 118.52 116.83 L 118.01 116.02 C 117.54 115.29 116.58 115.08 115.85 115.54 C 115.12 116.00 114.91 116.97 115.37 117.69 Z M 115.88 118.51 L 116.41 119.33 C 116.88 120.06 117.84 120.27 118.57 119.81 C 119.30 119.34 119.51 118.38 119.04 117.65 L 118.51 116.82 C 118.05 116.10 117.08 115.88 116.36 116.35 C 115.63 116.81 115.42 117.78 115.88 118.51 Z M 116.42 119.34 L 116.97 120.20 C 117.44 120.92 118.41 121.12 119.13 120.65 C 119.86 120.18 120.06 119.22 119.59 118.49 L 119.04 117.64 C 118.57 116.92 117.60 116.71 116.88 117.18 C 116.15 117.65 115.95 118.62 116.42 119.34 Z M 116.98 120.21 L 117.57 121.09 C 118.05 121.81 119.02 122.00 119.74 121.52 C 120.45 121.05 120.65 120.08 120.17 119.36 L 119.58 118.48 C 119.10 117.76 118.14 117.57 117.42 118.04 C 116.70 118.52 116.51 119.49 116.98 120.21 Z M 117.58 121.11 L 118.12 121.89 C 118.61 122.60 119.58 122.79 120.29 122.30 C 121.00 121.82 121.18 120.84 120.70 120.13 L 120.16 119.34 C 119.67 118.63 118.70 118.45 117.99 118.94 C 117.28 119.42 117.09 120.39 117.58 121.11 Z M 118.13 121.90 L 118.69 122.71 C 119.18 123.41 120.15 123.59 120.86 123.10 C 121.57 122.60 121.74 121.63 121.25 120.92 L 120.69 120.12 C 120.20 119.41 119.22 119.24 118.52 119.73 C 117.81 120.22 117.63 121.20 118.13 121.90 Z M 118.69 122.72 L 119.27 123.54 C 119.77 124.24 120.74 124.41 121.45 123.91 C 122.15 123.41 122.32 122.44 121.82 121.73 L 121.24 120.91 C 120.74 120.21 119.77 120.04 119.07 120.54 C 118.36 121.04 118.19 122.01 118.69 122.72 Z M 119.28 123.54 L 119.87 124.38 C 120.37 125.08 121.35 125.24 122.05 124.74 C 122.75 124.24 122.91 123.26 122.41 122.56 L 121.82 121.73 C 121.32 121.03 120.34 120.86 119.64 121.36 C 118.94 121.86 118.77 122.84 119.28 123.54 Z M 119.87 124.38 L 120.48 125.22 C 120.98 125.92 121.96 126.08 122.66 125.58 C 123.36 125.08 123.52 124.10 123.02 123.40 L 122.41 122.56 C 121.91 121.86 120.93 121.70 120.23 122.20 C 119.53 122.70 119.37 123.68 119.87 124.38 Z M 120.48 125.22 L 121.05 126.01 C 121.55 126.71 122.53 126.87 123.23 126.36 C 123.93 125.86 124.08 124.88 123.58 124.18 L 123.01 123.40 C 122.51 122.70 121.53 122.54 120.84 123.05 C 120.14 123.55 119.98 124.52 120.48 125.22 Z M 121.05 126.01 L 121.61 126.79 C 122.12 127.49 123.09 127.65 123.79 127.15 C 124.49 126.64 124.65 125.67 124.15 124.97 L 123.58 124.18 C 123.08 123.48 122.10 123.33 121.40 123.83 C 120.70 124.33 120.54 125.31 121.05 126.01 Z M 121.61 126.79 L 122.19 127.59 C 122.69 128.29 123.66 128.45 124.36 127.95 C 125.06 127.45 125.22 126.47 124.72 125.77 L 124.15 124.97 C 123.64 124.27 122.67 124.11 121.97 124.61 C 121.27 125.12 121.11 126.09 121.61 126.79 Z M 122.18 127.59 L 122.77 128.41 C 123.27 129.11 124.25 129.27 124.95 128.77 C 125.65 128.27 125.81 127.29 125.31 126.59 L 124.72 125.77 C 124.22 125.07 123.25 124.91 122.54 125.41 C 121.84 125.91 121.68 126.89 122.18 127.59 Z M 122.77 128.40 L 123.37 129.25 C 123.86 129.95 124.84 130.12 125.54 129.62 C 126.25 129.12 126.41 128.14 125.91 127.44 L 125.31 126.60 C 124.81 125.89 123.84 125.73 123.13 126.23 C 122.43 126.73 122.27 127.70 122.77 128.40 Z M 123.36 129.24 L 123.95 130.08 C 124.45 130.79 125.42 130.96 126.13 130.46 C 126.83 129.97 127.00 128.99 126.51 128.29 L 125.91 127.45 C 125.42 126.74 124.44 126.57 123.74 127.07 C 123.03 127.56 122.87 128.54 123.36 129.24 Z M 123.95 130.08 L 124.50 130.87 C 125.00 131.58 125.97 131.75 126.68 131.26 C 127.38 130.76 127.56 129.79 127.06 129.08 L 126.51 128.29 C 126.02 127.58 125.04 127.41 124.34 127.90 C 123.63 128.40 123.46 129.37 123.95 130.08 Z M 124.50 130.87 L 125.06 131.68 C 125.55 132.39 126.53 132.56 127.24 132.07 C 127.94 131.58 128.12 130.61 127.63 129.90 L 127.07 129.09 C 126.58 128.38 125.60 128.20 124.89 128.69 C 124.19 129.19 124.01 130.16 124.50 130.87 Z M 125.06 131.67 L 125.63 132.50 C 126.12 133.21 127.09 133.39 127.80 132.90 C 128.51 132.42 128.69 131.44 128.20 130.73 L 127.63 129.91 C 127.14 129.20 126.17 129.02 125.46 129.50 C 124.75 129.99 124.57 130.96 125.06 131.67 Z M 125.63 132.50 L 126.20 133.34 C 126.68 134.05 127.66 134.23 128.37 133.75 C 129.08 133.26 129.26 132.29 128.78 131.58 L 128.21 130.74 C 127.72 130.03 126.75 129.84 126.04 130.33 C 125.32 130.81 125.14 131.79 125.63 132.50 Z M 126.20 133.33 L 126.77 134.18 C 127.25 134.89 128.22 135.08 128.94 134.59 C 129.65 134.11 129.84 133.14 129.35 132.43 L 128.78 131.58 C 128.30 130.87 127.33 130.68 126.61 131.16 C 125.90 131.65 125.71 132.62 126.20 133.33 Z M 126.76 134.17 L 127.33 135.02 C 127.81 135.73 128.78 135.92 129.50 135.44 C 130.22 134.96 130.41 133.99 129.92 133.28 L 129.36 132.43 C 128.87 131.72 127.90 131.53 127.19 132.01 C 126.47 132.49 126.28 133.46 126.76 134.17 Z M 127.33 135.01 L 127.89 135.86 C 128.37 136.57 129.34 136.77 130.06 136.29 C 130.78 135.81 130.97 134.84 130.49 134.12 L 129.93 133.28 C 129.45 132.56 128.48 132.37 127.76 132.85 C 127.05 133.33 126.85 134.30 127.33 135.01 Z M 127.89 135.85 L 128.45 136.69 C 128.92 137.41 129.89 137.61 130.61 137.13 C 131.33 136.65 131.52 135.69 131.05 134.97 L 130.49 134.13 C 130.02 133.41 129.05 133.21 128.33 133.69 C 127.61 134.16 127.41 135.13 127.89 135.85 Z M 128.44 136.69 L 128.99 137.52 C 129.47 138.24 130.44 138.44 131.16 137.97 C 131.88 137.50 132.08 136.53 131.60 135.81 L 131.05 134.97 C 130.58 134.25 129.61 134.05 128.89 134.52 C 128.17 135.00 127.97 135.97 128.44 136.69 Z M 128.99 137.52 L 129.54 138.36 C 130.01 139.08 130.98 139.28 131.70 138.81 C 132.42 138.34 132.62 137.37 132.15 136.65 L 131.61 135.81 C 131.13 135.09 130.17 134.89 129.44 135.36 C 128.72 135.83 128.52 136.80 128.99 137.52 Z M 129.53 138.35 L 130.07 139.19 C 130.54 139.91 131.51 140.11 132.23 139.65 C 132.96 139.18 133.16 138.21 132.69 137.49 L 132.15 136.65 C 131.68 135.93 130.72 135.72 129.99 136.19 C 129.27 136.66 129.06 137.63 129.53 138.35 Z M 130.07 139.18 L 130.61 140.01 C 131.08 140.74 132.04 140.95 132.77 140.48 C 133.49 140.02 133.70 139.05 133.23 138.32 L 132.70 137.49 C 132.23 136.77 131.26 136.56 130.54 137.02 C 129.81 137.49 129.61 138.46 130.07 139.18 Z M 130.61 140.01 L 131.15 140.87 C 131.62 141.59 132.58 141.81 133.31 141.34 C 134.04 140.88 134.25 139.91 133.78 139.18 L 133.24 138.33 C 132.77 137.60 131.81 137.39 131.08 137.85 C 130.35 138.32 130.14 139.28 130.61 140.01 Z M 131.15 140.86 L 131.70 141.73 C 132.17 142.46 133.13 142.67 133.86 142.21 C 134.59 141.75 134.80 140.78 134.34 140.06 L 133.79 139.19 C 133.32 138.46 132.36 138.25 131.63 138.71 C 130.90 139.17 130.69 140.14 131.15 140.86 Z M 131.70 141.73 L 132.25 142.59 C 132.71 143.32 133.67 143.53 134.40 143.07 C 135.13 142.61 135.35 141.65 134.88 140.92 L 134.34 140.06 C 133.88 139.33 132.91 139.11 132.19 139.57 C 131.46 140.03 131.24 141.00 131.70 141.73 Z M 132.24 142.59 L 132.78 143.44 C 133.24 144.17 134.20 144.39 134.93 143.93 C 135.66 143.47 135.88 142.50 135.42 141.77 L 134.89 140.92 C 134.43 140.19 133.46 139.97 132.73 140.43 C 132.00 140.89 131.78 141.86 132.24 142.59 Z M 132.78 143.44 L 133.31 144.27 C 133.76 145.00 134.73 145.22 135.46 144.76 C 136.19 144.30 136.41 143.34 135.95 142.61 L 135.42 141.77 C 134.96 141.04 134.00 140.82 133.27 141.28 C 132.54 141.74 132.32 142.71 132.78 143.44 Z M 133.31 144.27 L 133.82 145.09 C 134.28 145.82 135.24 146.04 135.97 145.58 C 136.70 145.12 136.92 144.16 136.46 143.43 L 135.95 142.61 C 135.49 141.88 134.53 141.66 133.80 142.12 C 133.07 142.58 132.85 143.54 133.31 144.27 Z M 133.82 145.09 L 134.35 145.93 C 134.81 146.66 135.77 146.88 136.50 146.42 C 137.23 145.96 137.45 145.00 136.99 144.27 L 136.46 143.43 C 136.00 142.70 135.04 142.48 134.31 142.94 C 133.58 143.40 133.36 144.36 133.82 145.09 Z M 134.35 145.93 L 134.89 146.79 C 135.35 147.52 136.31 147.74 137.04 147.28 C 137.77 146.82 137.99 145.86 137.53 145.13 L 136.99 144.27 C 136.53 143.54 135.57 143.32 134.84 143.78 C 134.11 144.24 133.89 145.20 134.35 145.93 Z M 134.89 146.79 L 135.42 147.63 C 135.88 148.36 136.85 148.58 137.58 148.12 C 138.30 147.66 138.52 146.70 138.06 145.97 L 137.53 145.13 C 137.07 144.40 136.11 144.18 135.38 144.64 C 134.65 145.10 134.43 146.06 134.89 146.79 Z M 135.42 147.63 L 135.95 148.47 C 136.41 149.20 137.37 149.42 138.10 148.96 C 138.83 148.50 139.05 147.53 138.59 146.80 L 138.06 145.97 C 137.60 145.24 136.64 145.02 135.91 145.48 C 135.18 145.94 134.96 146.90 135.42 147.63 Z M 135.95 148.47 L 136.47 149.30 C 136.93 150.03 137.90 150.25 138.63 149.79 C 139.36 149.33 139.57 148.37 139.11 147.64 L 138.59 146.80 C 138.13 146.07 137.17 145.85 136.44 146.31 C 135.71 146.77 135.49 147.74 135.95 148.47 Z M 136.47 149.30 L 137.00 150.14 C 137.46 150.87 138.42 151.09 139.15 150.63 C 139.88 150.17 140.10 149.21 139.64 148.48 L 139.12 147.64 C 138.66 146.91 137.69 146.69 136.96 147.15 C 136.23 147.61 136.01 148.57 136.47 149.30 Z M 137.00 150.14 L 137.52 150.97 C 137.98 151.70 138.94 151.92 139.67 151.47 C 140.40 151.01 140.62 150.04 140.17 149.31 L 139.65 148.48 C 139.19 147.75 138.22 147.53 137.49 147.99 C 136.76 148.45 136.54 149.41 137.00 150.14 Z M 137.52 150.97 L 138.05 151.81 C 138.50 152.55 139.47 152.77 140.20 152.31 C 140.93 151.85 141.15 150.89 140.69 150.16 L 140.17 149.32 C 139.71 148.58 138.75 148.36 138.02 148.82 C 137.29 149.28 137.06 150.24 137.52 150.97 Z M 138.05 151.81 L 138.58 152.66 C 139.03 153.40 139.99 153.62 140.73 153.16 C 141.46 152.71 141.68 151.75 141.23 151.01 L 140.70 150.16 C 140.24 149.43 139.28 149.21 138.55 149.66 C 137.81 150.12 137.59 151.08 138.05 151.81 Z M 138.57 152.66 L 139.11 153.52 C 139.56 154.25 140.52 154.48 141.26 154.02 C 141.99 153.57 142.21 152.61 141.76 151.87 L 141.23 151.02 C 140.77 150.28 139.81 150.06 139.08 150.51 C 138.35 150.97 138.12 151.93 138.57 152.66 Z M 139.10 153.52 L 139.64 154.38 C 140.09 155.11 141.05 155.34 141.78 154.88 C 142.52 154.43 142.74 153.47 142.29 152.74 L 141.76 151.88 C 141.31 151.14 140.35 150.92 139.61 151.37 C 138.88 151.82 138.65 152.78 139.10 153.52 Z M 139.63 154.37 L 140.16 155.24 C 140.61 155.97 141.58 156.20 142.31 155.75 C 143.04 155.30 143.27 154.34 142.82 153.60 L 142.29 152.74 C 141.84 152.00 140.88 151.77 140.15 152.23 C 139.41 152.68 139.18 153.64 139.63 154.37 Z M 140.16 155.23 L 140.69 156.10 C 141.14 156.83 142.10 157.06 142.84 156.62 C 143.57 156.17 143.80 155.20 143.35 154.47 L 142.83 153.60 C 142.38 152.87 141.42 152.64 140.68 153.09 C 139.94 153.54 139.71 154.50 140.16 155.23 Z M 140.69 156.09 L 141.21 156.95 C 141.66 157.69 142.62 157.92 143.35 157.48 C 144.09 157.03 144.33 156.07 143.88 155.33 L 143.36 154.47 C 142.91 153.74 141.95 153.50 141.21 153.95 C 140.47 154.40 140.24 155.36 140.69 156.09 Z M 141.21 156.95 L 141.72 157.80 C 142.17 158.54 143.13 158.78 143.86 158.34 C 144.60 157.89 144.84 156.93 144.40 156.19 L 143.88 155.34 C 143.44 154.60 142.48 154.36 141.74 154.81 C 141.00 155.25 140.76 156.21 141.21 156.95 Z M 141.72 157.80 L 142.23 158.65 C 142.67 159.39 143.63 159.63 144.37 159.19 C 145.11 158.75 145.35 157.79 144.91 157.05 L 144.40 156.20 C 143.96 155.46 143.00 155.22 142.26 155.66 C 141.52 156.10 141.28 157.06 141.72 157.80 Z M 142.23 158.65 L 142.73 159.49 C 143.17 160.23 144.13 160.48 144.87 160.04 C 145.61 159.60 145.85 158.64 145.41 157.90 L 144.91 157.05 C 144.47 156.31 143.51 156.07 142.77 156.51 C 142.03 156.95 141.79 157.90 142.23 158.65 Z M 142.72 159.49 L 143.24 160.36 C 143.67 161.10 144.63 161.35 145.37 160.92 C 146.12 160.48 146.37 159.52 145.93 158.78 L 145.42 157.91 C 144.98 157.16 144.02 156.91 143.28 157.35 C 142.54 157.79 142.29 158.74 142.72 159.49 Z M 143.23 160.35 L 143.74 161.23 C 144.18 161.97 145.13 162.23 145.88 161.79 C 146.62 161.36 146.87 160.40 146.44 159.66 L 145.93 158.78 C 145.50 158.04 144.54 157.79 143.80 158.22 C 143.05 158.65 142.80 159.61 143.23 160.35 Z M 143.74 161.22 L 144.24 162.09 C 144.67 162.84 145.62 163.10 146.37 162.67 C 147.12 162.24 147.37 161.28 146.94 160.53 L 146.44 159.66 C 146.01 158.92 145.06 158.66 144.31 159.09 C 143.57 159.52 143.31 160.47 143.74 161.22 Z M 144.23 162.08 L 144.73 162.95 C 145.15 163.70 146.10 163.96 146.85 163.53 C 147.60 163.11 147.87 162.15 147.44 161.40 L 146.95 160.54 C 146.52 159.79 145.57 159.53 144.82 159.95 C 144.07 160.38 143.81 161.33 144.23 162.08 Z M 144.72 162.94 L 145.20 163.80 C 145.63 164.55 146.58 164.82 147.33 164.40 C 148.08 163.98 148.35 163.02 147.93 162.27 L 147.44 161.41 C 147.02 160.66 146.07 160.39 145.32 160.82 C 144.57 161.24 144.30 162.19 144.72 162.94 Z M 145.20 163.79 L 145.68 164.67 C 146.10 165.42 147.05 165.69 147.81 165.28 C 148.56 164.86 148.83 163.91 148.41 163.15 L 147.93 162.28 C 147.51 161.53 146.56 161.25 145.81 161.67 C 145.05 162.09 144.78 163.04 145.20 163.79 Z M 145.68 164.66 L 146.16 165.54 C 146.58 166.30 147.53 166.58 148.28 166.16 C 149.04 165.75 149.32 164.80 148.90 164.04 L 148.42 163.16 C 148.01 162.40 147.06 162.13 146.30 162.54 C 145.54 162.95 145.27 163.90 145.68 164.66 Z M 146.16 165.54 L 146.64 166.42 C 147.05 167.18 147.99 167.46 148.75 167.05 C 149.51 166.64 149.79 165.69 149.38 164.93 L 148.91 164.05 C 148.50 163.29 147.55 163.01 146.79 163.42 C 146.03 163.83 145.75 164.78 146.16 165.54 Z M 146.63 166.41 L 147.10 167.29 C 147.51 168.05 148.46 168.34 149.22 167.93 C 149.98 167.52 150.26 166.57 149.86 165.81 L 149.38 164.94 C 148.98 164.18 148.03 163.89 147.27 164.30 C 146.51 164.71 146.23 165.65 146.63 166.41 Z M 147.10 167.29 L 147.57 168.16 C 147.97 168.92 148.92 169.21 149.68 168.81 C 150.44 168.40 150.73 167.46 150.32 166.70 L 149.86 165.82 C 149.45 165.06 148.51 164.77 147.75 165.17 C 146.98 165.58 146.70 166.52 147.10 167.29 Z M 147.57 168.16 L 148.03 169.04 C 148.44 169.80 149.38 170.09 150.14 169.69 C 150.90 169.28 151.19 168.34 150.79 167.58 L 150.33 166.70 C 149.92 165.94 148.98 165.65 148.21 166.05 C 147.45 166.45 147.16 167.40 147.57 168.16 Z M 148.03 169.04 L 148.50 169.92 C 148.90 170.68 149.84 170.97 150.61 170.57 C 151.37 170.17 151.66 169.22 151.26 168.46 L 150.79 167.58 C 150.39 166.82 149.45 166.52 148.68 166.93 C 147.92 167.33 147.63 168.27 148.03 169.04 Z M 148.50 169.92 L 148.96 170.80 C 149.36 171.56 150.30 171.86 151.07 171.46 C 151.83 171.06 152.13 170.11 151.72 169.35 L 151.26 168.47 C 150.86 167.70 149.92 167.41 149.15 167.81 C 148.39 168.21 148.09 169.15 148.50 169.92 Z M 148.96 170.80 L 149.42 171.68 C 149.82 172.45 150.76 172.74 151.52 172.35 C 152.29 171.95 152.59 171.01 152.19 170.24 L 151.73 169.35 C 151.33 168.59 150.39 168.29 149.62 168.69 C 148.86 169.09 148.56 170.03 148.96 170.80 Z M 149.42 171.68 L 149.87 172.57 C 150.27 173.33 151.21 173.63 151.98 173.24 C 152.74 172.85 153.04 171.90 152.65 171.14 L 152.19 170.25 C 151.80 169.48 150.86 169.18 150.09 169.57 C 149.32 169.97 149.02 170.91 149.42 171.68 Z M 149.87 172.56 L 150.32 173.45 C 150.71 174.22 151.65 174.53 152.42 174.14 C 153.19 173.75 153.50 172.81 153.11 172.04 L 152.65 171.15 C 152.26 170.38 151.32 170.07 150.55 170.46 C 149.79 170.85 149.48 171.79 149.87 172.56 Z M 150.32 173.44 L 150.77 174.34 C 151.15 175.11 152.09 175.42 152.86 175.03 C 153.63 174.65 153.94 173.71 153.56 172.94 L 153.11 172.05 C 152.72 171.27 151.79 170.96 151.02 171.35 C 150.24 171.74 149.93 172.67 150.32 173.44 Z M 150.76 174.33 L 151.21 175.23 C 151.59 176.00 152.53 176.31 153.30 175.93 C 154.07 175.55 154.39 174.61 154.00 173.84 L 153.56 172.94 C 153.18 172.17 152.24 171.85 151.47 172.24 C 150.70 172.62 150.38 173.56 150.76 174.33 Z M 151.20 175.22 L 151.65 176.12 C 152.03 176.89 152.96 177.21 153.74 176.83 C 154.51 176.45 154.83 175.51 154.45 174.74 L 154.01 173.84 C 153.63 173.07 152.69 172.75 151.92 173.13 C 151.14 173.51 150.82 174.45 151.20 175.22 Z M 151.64 176.12 L 152.08 177.02 C 152.46 177.79 153.40 178.11 154.17 177.73 C 154.95 177.35 155.27 176.42 154.89 175.64 L 154.45 174.74 C 154.07 173.97 153.14 173.65 152.36 174.03 C 151.59 174.41 151.27 175.34 151.64 176.12 Z M 152.08 177.01 L 152.52 177.92 C 152.90 178.69 153.84 179.01 154.61 178.63 C 155.39 178.26 155.71 177.32 155.33 176.55 L 154.89 175.65 C 154.51 174.87 153.58 174.55 152.80 174.93 C 152.03 175.30 151.71 176.24 152.08 177.01 Z M 152.52 177.92 L 152.97 178.82 C 153.35 179.60 154.28 179.92 155.06 179.54 C 155.83 179.16 156.15 178.23 155.77 177.45 L 155.33 176.55 C 154.95 175.77 154.02 175.45 153.24 175.83 C 152.47 176.21 152.15 177.14 152.52 177.92 Z M 152.97 178.83 L 153.41 179.73 C 153.79 180.50 154.73 180.82 155.50 180.44 C 156.28 180.06 156.60 179.13 156.22 178.35 L 155.77 177.45 C 155.39 176.68 154.46 176.36 153.68 176.74 C 152.91 177.12 152.59 178.05 152.97 178.83 Z M 153.42 179.74 L 153.86 180.63 C 154.25 181.41 155.18 181.72 155.95 181.34 C 156.73 180.95 157.04 180.02 156.66 179.24 L 156.21 178.35 C 155.83 177.58 154.89 177.26 154.12 177.64 C 153.35 178.03 153.03 178.96 153.42 179.74 Z M 153.87 180.64 L 154.31 181.53 C 154.70 182.30 155.64 182.61 156.41 182.22 C 157.18 181.83 157.49 180.89 157.10 180.12 L 156.65 179.24 C 156.26 178.47 155.33 178.16 154.56 178.55 C 153.79 178.93 153.48 179.87 153.87 180.64 Z M 154.32 181.54 L 154.77 182.42 C 155.17 183.19 156.11 183.49 156.88 183.09 C 157.64 182.70 157.94 181.75 157.55 180.99 L 157.10 180.11 C 156.70 179.34 155.76 179.04 154.99 179.44 C 154.23 179.84 153.93 180.78 154.32 181.54 Z M 154.78 182.44 L 155.26 183.34 C 155.67 184.10 156.61 184.39 157.37 183.99 C 158.14 183.58 158.42 182.64 158.02 181.88 L 157.54 180.97 C 157.14 180.21 156.19 179.92 155.43 180.33 C 154.67 180.73 154.38 181.67 154.78 182.44 Z M 155.27 183.36 L 155.76 184.25 C 156.17 185.00 157.12 185.28 157.87 184.87 C 158.63 184.46 158.91 183.51 158.50 182.75 L 158.01 181.86 C 157.60 181.11 156.65 180.83 155.89 181.24 C 155.14 181.65 154.86 182.60 155.27 183.36 Z M 155.76 184.26 L 156.25 185.13 C 156.67 185.88 157.62 186.15 158.37 185.73 C 159.13 185.31 159.40 184.36 158.98 183.61 L 158.49 182.74 C 158.07 181.98 157.12 181.72 156.36 182.14 C 155.61 182.56 155.34 183.51 155.76 184.26 Z M 156.26 185.14 L 156.75 186.00 C 157.17 186.75 158.13 187.01 158.88 186.58 C 159.62 186.15 159.88 185.20 159.46 184.45 L 158.97 183.60 C 158.54 182.85 157.59 182.59 156.84 183.01 C 156.09 183.44 155.83 184.40 156.26 185.14 Z M 156.75 186.01 L 157.25 186.87 C 157.69 187.61 158.64 187.86 159.39 187.43 C 160.13 186.99 160.38 186.04 159.95 185.29 L 159.45 184.44 C 159.02 183.69 158.06 183.44 157.31 183.88 C 156.57 184.31 156.32 185.27 156.75 186.01 Z M 157.26 186.88 L 157.79 187.77 C 158.23 188.51 159.19 188.75 159.93 188.31 C 160.67 187.87 160.91 186.91 160.47 186.17 L 159.94 185.28 C 159.50 184.54 158.54 184.30 157.80 184.74 C 157.06 185.18 156.82 186.14 157.26 186.88 Z M 157.80 187.78 L 158.32 188.65 C 158.77 189.38 159.73 189.62 160.47 189.17 C 161.21 188.72 161.44 187.76 160.99 187.03 L 160.46 186.16 C 160.02 185.42 159.06 185.19 158.32 185.64 C 157.58 186.08 157.35 187.04 157.80 187.78 Z M 158.33 188.66 L 158.85 189.50 C 159.31 190.23 160.27 190.46 161.00 190.01 C 161.74 189.55 161.96 188.59 161.51 187.86 L 160.98 187.01 C 160.53 186.28 159.57 186.06 158.83 186.51 C 158.10 186.97 157.88 187.93 158.33 188.66 Z M 158.86 189.51 L 159.38 190.33 C 159.84 191.05 160.80 191.27 161.53 190.81 C 162.26 190.35 162.48 189.38 162.01 188.66 L 161.50 187.84 C 161.04 187.11 160.07 186.90 159.35 187.36 C 158.62 187.82 158.40 188.79 158.86 189.51 Z M 159.38 190.34 L 159.94 191.19 C 160.41 191.92 161.37 192.12 162.10 191.65 C 162.82 191.19 163.03 190.22 162.56 189.50 L 162.01 188.64 C 161.54 187.92 160.57 187.71 159.85 188.18 C 159.12 188.65 158.92 189.62 159.38 190.34 Z M 159.95 191.21 L 160.51 192.05 C 160.98 192.77 161.95 192.96 162.67 192.49 C 163.39 192.01 163.58 191.04 163.11 190.32 L 162.55 189.48 C 162.07 188.76 161.10 188.57 160.38 189.04 C 159.67 189.52 159.47 190.49 159.95 191.21 Z M 160.52 192.07 L 161.08 192.88 C 161.56 193.59 162.54 193.78 163.25 193.29 C 163.96 192.80 164.14 191.83 163.65 191.12 L 163.09 190.30 C 162.61 189.59 161.64 189.41 160.92 189.90 C 160.21 190.38 160.03 191.36 160.52 192.07 Z M 161.09 192.90 L 161.65 193.70 C 162.15 194.40 163.13 194.57 163.83 194.07 C 164.53 193.57 164.70 192.60 164.20 191.90 L 163.64 191.10 C 163.14 190.40 162.17 190.23 161.46 190.73 C 160.76 191.22 160.59 192.20 161.09 192.90 Z M 161.67 193.72 L 162.27 194.54 C 162.78 195.24 163.75 195.39 164.45 194.88 C 165.15 194.37 165.30 193.39 164.79 192.69 L 164.19 191.88 C 163.68 191.18 162.70 191.03 162.01 191.54 C 161.31 192.05 161.16 193.02 161.67 193.72 Z M 162.28 194.56 L 162.89 195.37 C 163.41 196.06 164.39 196.20 165.08 195.68 C 165.77 195.16 165.91 194.18 165.39 193.49 L 164.77 192.68 C 164.26 191.99 163.28 191.85 162.59 192.37 C 161.90 192.89 161.76 193.87 162.28 194.56 Z M 162.91 195.38 L 163.51 196.17 C 164.04 196.86 165.02 196.98 165.70 196.45 C 166.39 195.93 166.51 194.95 165.99 194.27 L 165.38 193.48 C 164.85 192.79 163.87 192.67 163.19 193.19 C 162.50 193.72 162.38 194.70 162.91 195.38 Z M 163.52 196.18 L 164.12 196.94 C 164.65 197.62 165.63 197.74 166.31 197.21 C 166.99 196.68 167.11 195.69 166.57 195.02 L 165.98 194.26 C 165.45 193.58 164.47 193.46 163.79 193.99 C 163.11 194.52 162.99 195.50 163.52 196.18 Z M 164.12 196.95 L 164.75 197.74 C 165.28 198.41 166.27 198.53 166.94 197.99 C 167.62 197.46 167.73 196.47 167.20 195.80 L 166.57 195.01 C 166.03 194.33 165.05 194.22 164.38 194.76 C 163.70 195.29 163.59 196.27 164.12 196.95 Z M 164.76 197.75 L 165.37 198.52 C 165.91 199.19 166.90 199.29 167.57 198.75 C 168.24 198.21 168.35 197.23 167.81 196.56 L 167.19 195.79 C 166.65 195.12 165.66 195.01 164.99 195.55 C 164.32 196.09 164.22 197.08 164.76 197.75 Z M 165.38 198.53 L 166.01 199.30 C 166.56 199.96 167.54 200.06 168.21 199.51 C 168.88 198.97 168.98 197.98 168.43 197.32 L 167.80 196.55 C 167.25 195.88 166.27 195.78 165.60 196.33 C 164.93 196.88 164.84 197.86 165.38 198.53 Z M 166.02 199.31 L 166.57 199.96 C 167.12 200.62 168.10 200.71 168.76 200.16 C 169.43 199.60 169.52 198.62 168.96 197.96 L 168.42 197.31 C 167.87 196.65 166.88 196.56 166.22 197.11 C 165.56 197.66 165.47 198.65 166.02 199.31 Z M 166.57 199.97 L 167.09 200.57 C 167.64 201.23 168.63 201.31 169.29 200.76 C 169.94 200.20 170.03 199.21 169.47 198.56 L 168.96 197.95 C 168.40 197.29 167.41 197.21 166.76 197.77 C 166.10 198.32 166.02 199.31 166.57 199.97 Z M 167.09 200.58 L 167.68 201.27 C 168.25 201.92 169.23 202.00 169.89 201.44 C 170.54 200.88 170.62 199.89 170.05 199.24 L 169.46 198.55 C 168.90 197.89 167.92 197.82 167.26 198.38 C 166.61 198.94 166.53 199.93 167.09 200.58 Z M 167.69 201.28 L 168.39 202.09 C 168.96 202.74 169.94 202.81 170.59 202.25 C 171.25 201.68 171.32 200.69 170.75 200.04 L 170.05 199.23 C 169.48 198.58 168.50 198.51 167.85 199.07 C 167.20 199.64 167.12 200.62 167.69 201.28 Z M 168.40 202.09 L 169.24 203.06 C 169.81 203.71 170.80 203.78 171.45 203.21 C 172.10 202.65 172.16 201.66 171.60 201.01 L 170.75 200.04 C 170.18 199.39 169.20 199.32 168.55 199.89 C 167.90 200.46 167.83 201.44 168.40 202.09 Z M 169.25 203.07 L 169.92 203.83 C 170.48 204.48 171.47 204.55 172.12 203.98 C 172.77 203.41 172.83 202.42 172.26 201.77 L 171.59 201.01 C 171.03 200.36 170.04 200.29 169.39 200.86 C 168.74 201.43 168.68 202.42 169.25 203.07 Z M 169.92 203.83 L 170.56 204.56 C 171.12 205.21 172.11 205.27 172.76 204.71 C 173.41 204.14 173.47 203.15 172.90 202.50 L 172.26 201.77 C 171.70 201.13 170.71 201.06 170.06 201.63 C 169.41 202.20 169.35 203.18 169.92 203.83 Z M 170.56 204.56 L 171.23 205.33 C 171.80 205.98 172.79 206.04 173.44 205.48 C 174.08 204.91 174.15 203.92 173.58 203.27 L 172.90 202.50 C 172.33 201.85 171.35 201.79 170.70 202.36 C 170.05 202.93 169.99 203.91 170.56 204.56 Z M 171.23 205.33 L 171.93 206.13 C 172.50 206.77 173.48 206.84 174.13 206.27 C 174.78 205.70 174.84 204.71 174.28 204.07 L 173.58 203.27 C 173.01 202.62 172.02 202.56 171.38 203.13 C 170.73 203.70 170.66 204.68 171.23 205.33 Z M 171.93 206.13 L 172.63 206.93 C 173.20 207.57 174.19 207.64 174.83 207.07 C 175.48 206.50 175.55 205.52 174.98 204.87 L 174.28 204.07 C 173.71 203.42 172.72 203.35 172.07 203.92 C 171.42 204.49 171.36 205.48 171.93 206.13 Z M 172.63 206.92 L 173.32 207.71 C 173.89 208.36 174.88 208.43 175.52 207.86 C 176.17 207.29 176.24 206.31 175.67 205.66 L 174.98 204.87 C 174.41 204.22 173.42 204.15 172.78 204.72 C 172.13 205.29 172.06 206.28 172.63 206.92 Z M 173.32 207.71 L 173.99 208.48 C 174.55 209.12 175.54 209.19 176.19 208.62 C 176.84 208.06 176.90 207.07 176.34 206.42 L 175.67 205.66 C 175.10 205.01 174.12 204.94 173.47 205.51 C 172.82 206.08 172.75 207.06 173.32 207.71 Z M 173.98 208.47 L 174.61 209.19 C 175.17 209.84 176.16 209.91 176.81 209.34 C 177.46 208.78 177.53 207.79 176.96 207.14 L 176.34 206.42 C 175.77 205.77 174.79 205.70 174.14 206.27 C 173.49 206.84 173.42 207.82 173.98 208.47 Z M 174.61 209.19 L 175.37 210.07 C 175.93 210.72 176.92 210.79 177.57 210.22 C 178.22 209.66 178.29 208.67 177.73 208.02 L 176.97 207.14 C 176.40 206.49 175.42 206.42 174.76 206.98 C 174.11 207.55 174.04 208.53 174.61 209.19 Z M 175.36 210.06 L 176.15 210.98 C 176.71 211.63 177.70 211.71 178.35 211.15 C 179.00 210.59 179.08 209.60 178.52 208.95 L 177.73 208.03 C 177.17 207.37 176.19 207.30 175.53 207.86 C 174.88 208.42 174.80 209.40 175.36 210.06 Z M 176.14 210.97 L 176.80 211.75 C 177.35 212.41 178.34 212.49 179.00 211.93 C 179.66 211.38 179.74 210.39 179.18 209.73 L 178.53 208.96 C 177.97 208.30 176.99 208.21 176.33 208.77 C 175.67 209.32 175.58 210.31 176.14 210.97 Z M 176.79 211.73 L 177.34 212.41 C 177.89 213.07 178.88 213.17 179.54 212.62 C 180.21 212.07 180.30 211.09 179.75 210.42 L 179.19 209.75 C 178.64 209.08 177.66 208.99 177.00 209.54 C 176.33 210.09 176.24 211.07 176.79 211.73 Z M 177.33 212.39 L 177.82 213.00 C 178.36 213.67 179.34 213.78 180.02 213.24 C 180.69 212.70 180.79 211.71 180.25 211.04 L 179.76 210.43 C 179.22 209.76 178.24 209.66 177.57 210.20 C 176.90 210.74 176.79 211.72 177.33 212.39 Z M 177.81 212.99 L 178.37 213.70 C 178.90 214.38 179.88 214.49 180.56 213.96 C 181.24 213.43 181.35 212.45 180.82 211.77 L 180.26 211.06 C 179.73 210.38 178.75 210.26 178.07 210.79 C 177.39 211.33 177.28 212.31 177.81 212.99 Z M 178.35 213.67 L 178.94 214.46 C 179.46 215.14 180.44 215.28 181.13 214.76 C 181.81 214.24 181.95 213.26 181.43 212.57 L 180.84 211.79 C 180.32 211.10 179.34 210.97 178.65 211.49 C 177.97 212.01 177.83 212.99 178.35 213.67 Z M 178.92 214.43 L 179.50 215.23 C 180.00 215.93 180.97 216.09 181.67 215.58 C 182.37 215.08 182.53 214.11 182.03 213.41 L 181.45 212.60 C 180.95 211.90 179.97 211.74 179.27 212.25 C 178.57 212.75 178.41 213.73 178.92 214.43 Z M 179.47 215.20 L 180.05 216.05 C 180.54 216.76 181.51 216.94 182.22 216.46 C 182.93 215.97 183.12 215.00 182.63 214.29 L 182.05 213.44 C 181.57 212.73 180.60 212.54 179.88 213.03 C 179.17 213.51 178.99 214.48 179.47 215.20 Z M 180.03 216.02 L 180.56 216.84 C 181.03 217.56 182.00 217.77 182.72 217.30 C 183.45 216.84 183.65 215.87 183.19 215.15 L 182.65 214.32 C 182.19 213.60 181.22 213.39 180.50 213.86 C 179.77 214.33 179.56 215.29 180.03 216.02 Z M 180.54 216.81 L 181.07 217.67 C 181.53 218.41 182.49 218.64 183.22 218.19 C 183.96 217.74 184.19 216.78 183.74 216.04 L 183.21 215.18 C 182.75 214.44 181.79 214.21 181.06 214.66 C 180.32 215.11 180.09 216.07 180.54 216.81 Z M 181.05 217.64 L 181.56 218.52 C 182.00 219.27 182.95 219.52 183.70 219.09 C 184.44 218.66 184.70 217.70 184.27 216.96 L 183.76 216.08 C 183.32 215.33 182.37 215.07 181.62 215.51 C 180.88 215.94 180.62 216.89 181.05 217.64 Z M 181.54 218.48 L 182.01 219.35 C 182.42 220.11 183.37 220.39 184.12 219.98 C 184.88 219.58 185.17 218.63 184.76 217.87 L 184.29 217.00 C 183.88 216.24 182.93 215.95 182.17 216.36 C 181.42 216.77 181.13 217.72 181.54 218.48 Z M 181.98 219.30 L 182.42 220.18 C 182.80 220.96 183.73 221.28 184.50 220.90 C 185.28 220.52 185.60 219.58 185.22 218.81 L 184.79 217.92 C 184.41 217.15 183.47 216.83 182.70 217.21 C 181.92 217.59 181.60 218.52 181.98 219.30 Z M 182.39 220.12 L 182.78 221.01 C 183.12 221.80 184.04 222.16 184.83 221.82 C 185.62 221.47 185.98 220.55 185.64 219.76 L 185.25 218.87 C 184.91 218.08 183.99 217.72 183.19 218.07 C 182.40 218.41 182.04 219.33 182.39 220.12 Z M 182.75 220.95 L 183.11 221.88 C 183.42 222.68 184.32 223.08 185.13 222.77 C 185.93 222.46 186.33 221.56 186.02 220.75 L 185.66 219.82 C 185.35 219.02 184.45 218.62 183.64 218.93 C 182.84 219.24 182.44 220.14 182.75 220.95 Z M 183.09 221.83 L 183.43 222.80 C 183.71 223.62 184.60 224.05 185.41 223.77 C 186.23 223.49 186.66 222.60 186.38 221.78 L 186.04 220.81 C 185.76 219.99 184.87 219.56 184.06 219.84 C 183.24 220.12 182.81 221.01 183.09 221.83 Z M 183.42 222.77 L 183.72 223.71 C 183.98 224.53 184.86 224.98 185.68 224.71 C 186.50 224.45 186.95 223.57 186.69 222.75 L 186.39 221.81 C 186.12 220.99 185.24 220.54 184.42 220.81 C 183.60 221.07 183.15 221.95 183.42 222.77 Z M 183.72 223.71 L 184.03 224.68 C 184.30 225.50 185.18 225.94 186.00 225.68 C 186.82 225.41 187.27 224.53 187.00 223.71 L 186.69 222.74 C 186.42 221.92 185.54 221.47 184.72 221.74 C 183.90 222.01 183.45 222.89 183.72 223.71 Z M 184.04 224.71 L 184.38 225.67 C 184.67 226.49 185.56 226.92 186.37 226.63 C 187.18 226.35 187.61 225.46 187.33 224.64 L 186.99 223.68 C 186.71 222.86 185.82 222.43 185.00 222.72 C 184.19 223.00 183.76 223.89 184.04 224.71 Z M 184.41 225.74 L 184.77 226.66 C 185.09 227.46 186.00 227.85 186.80 227.54 C 187.60 227.22 187.99 226.31 187.68 225.51 L 187.31 224.58 C 186.99 223.78 186.08 223.39 185.28 223.71 C 184.48 224.03 184.09 224.94 184.41 225.74 Z M 184.82 226.76 L 185.27 227.70 C 185.65 228.48 186.58 228.80 187.36 228.43 C 188.13 228.05 188.46 227.12 188.08 226.34 L 187.63 225.41 C 187.26 224.63 186.32 224.30 185.55 224.68 C 184.77 225.05 184.44 225.99 184.82 226.76 Z M 185.33 227.81 L 185.84 228.68 C 186.27 229.43 187.23 229.68 187.97 229.25 C 188.72 228.81 188.97 227.86 188.54 227.11 L 188.03 226.23 C 187.59 225.49 186.64 225.24 185.89 225.67 C 185.15 226.10 184.89 227.06 185.33 227.81 Z M 185.89 228.76 L 186.43 229.58 C 186.91 230.30 187.88 230.49 188.59 230.02 C 189.31 229.54 189.51 228.57 189.03 227.85 L 188.49 227.03 C 188.01 226.32 187.04 226.12 186.32 226.60 C 185.61 227.08 185.41 228.04 185.89 228.76 Z M 186.46 229.62 L 187.02 230.41 C 187.52 231.11 188.50 231.27 189.20 230.77 C 189.90 230.27 190.06 229.29 189.56 228.59 L 189.00 227.81 C 188.50 227.11 187.52 226.94 186.82 227.44 C 186.12 227.95 185.96 228.92 186.46 229.62 Z M 187.03 230.42 L 187.14 230.57 C 187.65 231.27 188.63 231.43 189.32 230.92 C 190.02 230.41 190.18 229.44 189.67 228.74 L 189.55 228.58 C 189.05 227.88 188.07 227.73 187.37 228.24 C 186.67 228.74 186.52 229.72 187.03 230.42 Z"
      fill="black"
      fill-rule="nonzero" /><path d="M 192.99 90.74 L 192.39 91.53 C 191.88 92.22 192.01 93.20 192.70 93.72 C 193.39 94.24 194.37 94.10 194.89 93.41 L 195.48 92.62 C 196.00 91.93 195.86 90.95 195.17 90.44 C 194.48 89.92 193.51 90.06 192.99 90.74 Z M 192.38 91.55 L 191.79 92.35 C 191.28 93.05 191.43 94.02 192.13 94.53 C 192.82 95.04 193.80 94.89 194.31 94.20 L 194.90 93.40 C 195.41 92.70 195.26 91.72 194.57 91.21 C 193.87 90.70 192.89 90.85 192.38 91.55 Z M 191.77 92.38 L 191.20 93.20 C 190.70 93.91 190.87 94.88 191.58 95.38 C 192.29 95.87 193.26 95.70 193.76 94.99 L 194.33 94.17 C 194.83 93.46 194.65 92.49 193.95 92.00 C 193.24 91.50 192.27 91.67 191.77 92.38 Z M 191.17 93.24 L 190.64 94.06 C 190.16 94.78 190.37 95.75 191.09 96.22 C 191.81 96.69 192.78 96.49 193.25 95.77 L 193.78 94.95 C 194.25 94.23 194.05 93.26 193.33 92.79 C 192.61 92.32 191.64 92.52 191.17 93.24 Z M 190.61 94.11 L 190.12 94.91 C 189.67 95.65 189.90 96.61 190.64 97.06 C 191.38 97.51 192.34 97.27 192.79 96.53 L 193.28 95.73 C 193.72 94.99 193.49 94.03 192.75 93.58 C 192.02 93.13 191.06 93.37 190.61 94.11 Z M 190.09 94.95 L 189.61 95.81 C 189.18 96.56 189.44 97.51 190.19 97.94 C 190.94 98.37 191.89 98.10 192.32 97.35 L 192.81 96.50 C 193.23 95.75 192.97 94.79 192.22 94.37 C 191.47 93.94 190.52 94.20 190.09 94.95 Z M 189.59 95.84 L 189.09 96.77 C 188.68 97.52 188.97 98.47 189.73 98.88 C 190.49 99.29 191.43 99.00 191.84 98.24 L 192.34 97.32 C 192.75 96.56 192.46 95.62 191.70 95.21 C 190.94 94.80 190.00 95.08 189.59 95.84 Z M 189.08 96.79 L 188.62 97.67 C 188.23 98.44 188.53 99.38 189.30 99.78 C 190.06 100.17 191.00 99.87 191.40 99.10 L 191.85 98.22 C 192.25 97.45 191.95 96.51 191.18 96.12 C 190.42 95.72 189.47 96.02 189.08 96.79 Z M 188.62 97.69 L 188.21 98.50 C 187.82 99.27 188.13 100.21 188.90 100.60 C 189.67 100.99 190.61 100.68 191.00 99.91 L 191.41 99.09 C 191.79 98.32 191.48 97.38 190.71 96.99 C 189.94 96.61 189.00 96.92 188.62 97.69 Z M 188.20 98.51 L 187.77 99.37 C 187.39 100.14 187.70 101.08 188.47 101.46 C 189.24 101.85 190.18 101.54 190.56 100.77 L 191.00 99.90 C 191.38 99.13 191.07 98.19 190.30 97.81 C 189.53 97.42 188.59 97.73 188.20 98.51 Z M 187.77 99.37 L 187.32 100.28 C 186.93 101.05 187.24 101.98 188.01 102.37 C 188.78 102.76 189.72 102.45 190.10 101.68 L 190.56 100.77 C 190.95 100.00 190.64 99.06 189.87 98.67 C 189.10 98.29 188.16 98.60 187.77 99.37 Z M 187.32 100.27 L 186.83 101.22 C 186.44 101.99 186.74 102.93 187.51 103.32 C 188.27 103.72 189.22 103.41 189.61 102.65 L 190.10 101.69 C 190.49 100.92 190.19 99.98 189.42 99.59 C 188.65 99.20 187.71 99.50 187.32 100.27 Z M 186.84 101.21 L 186.33 102.18 C 185.93 102.94 186.22 103.88 186.98 104.28 C 187.75 104.69 188.69 104.39 189.09 103.63 L 189.60 102.66 C 190.00 101.90 189.71 100.96 188.95 100.55 C 188.18 100.15 187.24 100.45 186.84 101.21 Z M 186.34 102.16 L 185.84 103.08 C 185.43 103.83 185.71 104.78 186.47 105.19 C 187.23 105.60 188.18 105.32 188.59 104.56 L 189.08 103.64 C 189.49 102.89 189.21 101.94 188.45 101.53 C 187.69 101.12 186.75 101.40 186.34 102.16 Z M 185.85 103.06 L 185.34 103.99 C 184.92 104.74 185.19 105.69 185.95 106.11 C 186.70 106.52 187.65 106.25 188.07 105.50 L 188.58 104.58 C 189.00 103.82 188.73 102.87 187.97 102.45 C 187.22 102.04 186.27 102.31 185.85 103.06 Z M 185.35 103.97 L 184.83 104.88 C 184.41 105.63 184.67 106.58 185.42 107.00 C 186.17 107.43 187.13 107.17 187.55 106.41 L 188.06 105.51 C 188.49 104.76 188.22 103.81 187.47 103.38 C 186.72 102.96 185.77 103.22 185.35 103.97 Z M 184.84 104.86 L 184.34 105.73 C 183.91 106.48 184.17 107.43 184.91 107.86 C 185.66 108.29 186.61 108.04 187.04 107.29 L 187.54 106.43 C 187.98 105.68 187.72 104.73 186.97 104.29 C 186.23 103.86 185.27 104.12 184.84 104.86 Z M 184.35 105.72 L 183.88 106.52 C 183.44 107.26 183.68 108.22 184.42 108.66 C 185.17 109.09 186.12 108.85 186.56 108.11 L 187.04 107.31 C 187.48 106.56 187.23 105.61 186.49 105.17 C 185.75 104.73 184.79 104.97 184.35 105.72 Z M 183.89 106.50 L 183.34 107.40 C 182.89 108.13 183.12 109.09 183.86 109.54 C 184.59 109.99 185.55 109.76 186.00 109.02 L 186.55 108.12 C 187.00 107.39 186.77 106.43 186.03 105.98 C 185.30 105.53 184.34 105.76 183.89 106.50 Z M 183.35 107.37 L 182.76 108.30 C 182.30 109.02 182.52 109.99 183.24 110.45 C 183.97 110.91 184.94 110.70 185.40 109.97 L 185.99 109.05 C 186.45 108.32 186.24 107.36 185.51 106.89 C 184.78 106.43 183.82 106.64 183.35 107.37 Z M 182.78 108.27 L 182.26 109.06 C 181.78 109.78 181.98 110.75 182.70 111.23 C 183.42 111.70 184.39 111.50 184.87 110.78 L 185.39 109.99 C 185.86 109.27 185.66 108.31 184.94 107.83 C 184.22 107.36 183.25 107.56 182.78 108.27 Z M 182.26 109.06 L 181.78 109.78 C 181.31 110.50 181.50 111.47 182.22 111.94 C 182.94 112.42 183.91 112.23 184.38 111.51 L 184.86 110.79 C 185.34 110.07 185.14 109.10 184.43 108.62 C 183.71 108.14 182.74 108.34 182.26 109.06 Z M 181.77 109.80 L 181.26 110.59 C 180.79 111.31 181.00 112.28 181.72 112.75 C 182.44 113.22 183.41 113.01 183.88 112.29 L 184.39 111.49 C 184.86 110.77 184.66 109.80 183.93 109.33 C 183.21 108.86 182.24 109.07 181.77 109.80 Z M 181.25 110.60 L 180.72 111.43 C 180.26 112.16 180.47 113.13 181.20 113.59 C 181.93 114.05 182.89 113.84 183.35 113.11 L 183.89 112.28 C 184.35 111.55 184.14 110.58 183.41 110.12 C 182.68 109.66 181.72 109.87 181.25 110.60 Z M 180.73 111.43 L 180.18 112.28 C 179.71 113.00 179.92 113.97 180.64 114.44 C 181.36 114.90 182.33 114.70 182.80 113.97 L 183.35 113.12 C 183.82 112.39 183.61 111.43 182.88 110.96 C 182.16 110.49 181.19 110.70 180.73 111.43 Z M 180.19 112.26 L 179.64 113.08 C 179.16 113.80 179.35 114.77 180.06 115.25 C 180.78 115.73 181.75 115.54 182.23 114.82 L 182.78 113.99 C 183.26 113.28 183.07 112.31 182.36 111.83 C 181.64 111.35 180.67 111.54 180.19 112.26 Z M 179.65 113.06 L 179.10 113.86 C 178.60 114.56 178.78 115.54 179.49 116.03 C 180.19 116.52 181.17 116.35 181.66 115.64 L 182.21 114.84 C 182.71 114.14 182.53 113.16 181.83 112.67 C 181.12 112.18 180.15 112.35 179.65 113.06 Z M 179.11 113.84 L 178.52 114.66 C 178.03 115.37 178.19 116.34 178.89 116.84 C 179.60 117.34 180.57 117.17 181.07 116.47 L 181.65 115.65 C 182.15 114.95 181.99 113.97 181.28 113.47 C 180.58 112.98 179.60 113.14 179.11 113.84 Z M 178.53 114.66 L 177.92 115.51 C 177.42 116.21 177.59 117.19 178.29 117.69 C 178.99 118.19 179.97 118.02 180.47 117.32 L 181.07 116.47 C 181.57 115.77 181.41 114.79 180.70 114.29 C 180.00 113.79 179.03 113.96 178.53 114.66 Z M 177.92 115.51 L 177.37 116.29 C 176.88 116.99 177.05 117.97 177.75 118.46 C 178.46 118.96 179.43 118.79 179.93 118.09 L 180.47 117.31 C 180.97 116.61 180.80 115.63 180.09 115.14 C 179.39 114.64 178.42 114.81 177.92 115.51 Z M 177.37 116.29 L 176.82 117.08 C 176.33 117.78 176.50 118.75 177.20 119.25 C 177.91 119.74 178.88 119.57 179.38 118.87 L 179.93 118.08 C 180.42 117.38 180.25 116.40 179.55 115.91 C 178.84 115.41 177.87 115.58 177.37 116.29 Z M 176.82 117.07 L 176.24 117.89 C 175.75 118.60 175.92 119.57 176.62 120.07 C 177.33 120.57 178.30 120.40 178.80 119.69 L 179.38 118.87 C 179.87 118.17 179.70 117.19 179.00 116.70 C 178.29 116.20 177.32 116.37 176.82 117.07 Z M 176.25 117.89 L 175.63 118.75 C 175.13 119.45 175.30 120.43 176.00 120.93 C 176.70 121.43 177.68 121.26 178.18 120.56 L 178.79 119.70 C 179.29 119.00 179.13 118.02 178.43 117.52 C 177.72 117.02 176.75 117.19 176.25 117.89 Z M 175.64 118.74 L 175.05 119.55 C 174.55 120.25 174.70 121.22 175.40 121.73 C 176.10 122.24 177.07 122.08 177.58 121.38 L 178.17 120.57 C 178.67 119.87 178.52 118.90 177.82 118.39 C 177.12 117.89 176.15 118.04 175.64 118.74 Z M 175.06 119.54 L 174.49 120.32 C 173.98 121.01 174.13 121.99 174.82 122.50 C 175.51 123.01 176.49 122.86 177.00 122.17 L 177.57 121.39 C 178.09 120.70 177.94 119.72 177.24 119.21 C 176.55 118.70 175.57 118.85 175.06 119.54 Z M 174.49 120.31 L 173.90 121.11 C 173.38 121.80 173.53 122.78 174.22 123.29 C 174.91 123.81 175.89 123.66 176.40 122.97 L 177.00 122.17 C 177.51 121.48 177.37 120.50 176.68 119.99 C 175.99 119.47 175.01 119.62 174.49 120.31 Z M 173.90 121.10 L 173.29 121.92 C 172.77 122.61 172.91 123.59 173.60 124.10 C 174.29 124.62 175.27 124.48 175.79 123.79 L 176.40 122.98 C 176.92 122.29 176.78 121.31 176.09 120.79 C 175.40 120.27 174.42 120.41 173.90 121.10 Z M 173.29 121.92 L 172.67 122.75 C 172.15 123.44 172.29 124.41 172.98 124.93 C 173.67 125.45 174.65 125.31 175.17 124.62 L 175.79 123.79 C 176.31 123.10 176.17 122.13 175.48 121.61 C 174.79 121.09 173.81 121.23 173.29 121.92 Z M 172.67 122.75 L 172.07 123.55 C 171.55 124.24 171.69 125.22 172.38 125.73 C 173.07 126.25 174.04 126.11 174.56 125.42 L 175.17 124.62 C 175.68 123.93 175.54 122.95 174.86 122.44 C 174.17 121.92 173.19 122.06 172.67 122.75 Z M 172.07 123.55 L 171.49 124.31 C 170.97 125.00 171.11 125.98 171.80 126.50 C 172.49 127.02 173.47 126.88 173.99 126.19 L 174.56 125.42 C 175.08 124.73 174.94 123.75 174.25 123.24 C 173.56 122.72 172.58 122.86 172.07 123.55 Z M 171.49 124.32 L 170.91 125.09 C 170.39 125.78 170.54 126.76 171.23 127.28 C 171.92 127.79 172.89 127.65 173.41 126.96 L 173.99 126.18 C 174.51 125.49 174.37 124.52 173.68 124.00 C 172.98 123.48 172.01 123.63 171.49 124.32 Z M 170.91 125.10 L 170.31 125.89 C 169.80 126.59 169.95 127.56 170.64 128.08 C 171.33 128.59 172.31 128.45 172.82 127.76 L 173.41 126.96 C 173.93 126.27 173.78 125.29 173.09 124.77 C 172.40 124.26 171.42 124.41 170.91 125.10 Z M 170.31 125.90 L 169.71 126.72 C 169.19 127.42 169.34 128.39 170.04 128.90 C 170.73 129.42 171.71 129.27 172.22 128.57 L 172.83 127.75 C 173.34 127.06 173.19 126.08 172.49 125.57 C 171.80 125.06 170.82 125.21 170.31 125.90 Z M 169.70 126.73 L 169.08 127.58 C 168.57 128.28 168.72 129.26 169.42 129.76 C 170.11 130.27 171.09 130.12 171.60 129.42 L 172.22 128.57 C 172.73 127.87 172.58 126.90 171.88 126.39 C 171.19 125.88 170.21 126.03 169.70 126.73 Z M 169.07 127.59 L 168.50 128.38 C 167.99 129.08 168.15 130.06 168.85 130.56 C 169.55 131.07 170.52 130.91 171.03 130.21 L 171.60 129.42 C 172.11 128.72 171.95 127.74 171.25 127.24 C 170.55 126.73 169.58 126.89 169.07 127.59 Z M 168.49 128.39 L 167.93 129.17 C 167.43 129.87 167.59 130.85 168.29 131.35 C 168.99 131.86 169.97 131.69 170.47 130.99 L 171.03 130.21 C 171.54 129.51 171.38 128.53 170.67 128.03 C 169.97 127.52 169.00 127.68 168.49 128.39 Z M 167.92 129.18 L 167.35 129.98 C 166.85 130.69 167.02 131.67 167.72 132.17 C 168.43 132.67 169.40 132.50 169.90 131.80 L 170.48 130.99 C 170.98 130.28 170.81 129.31 170.11 128.81 C 169.40 128.31 168.43 128.47 167.92 129.18 Z M 167.35 129.99 L 166.77 130.81 C 166.27 131.52 166.44 132.50 167.15 133.00 C 167.85 133.49 168.83 133.32 169.33 132.62 L 169.91 131.79 C 170.41 131.08 170.24 130.11 169.53 129.61 C 168.82 129.11 167.84 129.28 167.35 129.99 Z M 166.76 130.82 L 166.18 131.66 C 165.68 132.37 165.86 133.35 166.57 133.84 C 167.28 134.33 168.26 134.16 168.75 133.45 L 169.33 132.61 C 169.83 131.90 169.65 130.92 168.94 130.43 C 168.23 129.93 167.25 130.11 166.76 130.82 Z M 166.17 131.66 L 165.59 132.51 C 165.10 133.22 165.28 134.20 165.99 134.69 C 166.71 135.18 167.68 135.00 168.17 134.29 L 168.76 133.44 C 169.25 132.73 169.07 131.75 168.35 131.26 C 167.64 130.77 166.66 130.95 166.17 131.66 Z M 165.58 132.52 L 165.00 133.37 C 164.52 134.08 164.70 135.06 165.42 135.55 C 166.14 136.04 167.11 135.85 167.60 135.13 L 168.18 134.28 C 168.67 133.57 168.48 132.59 167.76 132.10 C 167.05 131.61 166.07 131.80 165.58 132.52 Z M 165.00 133.37 L 164.44 134.21 C 163.95 134.93 164.14 135.91 164.87 136.39 C 165.59 136.88 166.56 136.68 167.05 135.96 L 167.61 135.13 C 168.09 134.41 167.90 133.43 167.18 132.94 C 166.46 132.46 165.48 132.65 165.00 133.37 Z M 164.43 134.22 L 163.88 135.06 C 163.40 135.78 163.59 136.75 164.32 137.23 C 165.04 137.71 166.02 137.52 166.50 136.79 L 167.05 135.96 C 167.53 135.23 167.33 134.26 166.61 133.78 C 165.89 133.30 164.91 133.49 164.43 134.22 Z M 163.87 135.06 L 163.32 135.90 C 162.85 136.63 163.05 137.60 163.78 138.08 C 164.50 138.55 165.48 138.35 165.95 137.62 L 166.50 136.79 C 166.98 136.06 166.77 135.09 166.05 134.61 C 165.32 134.13 164.35 134.34 163.87 135.06 Z M 163.32 135.91 L 162.78 136.74 C 162.30 137.47 162.51 138.44 163.24 138.92 C 163.96 139.39 164.94 139.18 165.41 138.45 L 165.95 137.62 C 166.43 136.89 166.22 135.92 165.49 135.44 C 164.77 134.97 163.79 135.18 163.32 135.91 Z M 162.77 136.75 L 162.23 137.59 C 161.76 138.32 161.97 139.29 162.70 139.76 C 163.43 140.23 164.40 140.02 164.87 139.29 L 165.41 138.45 C 165.88 137.72 165.67 136.75 164.94 136.28 C 164.21 135.81 163.24 136.02 162.77 136.75 Z M 162.23 137.59 L 161.69 138.43 C 161.23 139.16 161.44 140.13 162.17 140.60 C 162.90 141.07 163.87 140.85 164.34 140.12 L 164.88 139.28 C 165.34 138.55 165.13 137.58 164.40 137.11 C 163.67 136.65 162.70 136.86 162.23 137.59 Z M 161.69 138.43 L 161.15 139.28 C 160.69 140.01 160.90 140.98 161.63 141.45 C 162.37 141.91 163.34 141.70 163.80 140.96 L 164.34 140.12 C 164.81 139.39 164.59 138.42 163.86 137.95 C 163.13 137.48 162.16 137.70 161.69 138.43 Z M 161.15 139.28 L 160.60 140.14 C 160.14 140.88 160.36 141.85 161.09 142.31 C 161.82 142.78 162.79 142.56 163.26 141.83 L 163.81 140.96 C 164.27 140.23 164.05 139.26 163.32 138.79 C 162.59 138.33 161.62 138.55 161.15 139.28 Z M 160.60 140.15 L 160.05 141.01 C 159.59 141.74 159.81 142.72 160.55 143.18 C 161.28 143.64 162.26 143.42 162.72 142.69 L 163.26 141.83 C 163.73 141.09 163.51 140.12 162.77 139.65 C 162.03 139.19 161.06 139.41 160.60 140.15 Z M 160.05 141.01 L 159.51 141.87 C 159.05 142.61 159.28 143.58 160.01 144.04 C 160.75 144.50 161.72 144.28 162.19 143.54 L 162.72 142.69 C 163.19 141.95 162.96 140.97 162.22 140.51 C 161.49 140.05 160.51 140.27 160.05 141.01 Z M 159.51 141.87 L 158.98 142.72 C 158.52 143.46 158.75 144.44 159.49 144.90 C 160.23 145.36 161.20 145.13 161.66 144.39 L 162.19 143.54 C 162.65 142.80 162.43 141.82 161.68 141.36 C 160.94 140.90 159.97 141.13 159.51 141.87 Z M 158.98 142.72 L 158.46 143.56 C 158.00 144.31 158.23 145.28 158.98 145.74 C 159.72 146.20 160.69 145.97 161.15 145.22 L 161.67 144.38 C 162.13 143.64 161.90 142.67 161.15 142.21 C 160.41 141.75 159.43 141.98 158.98 142.72 Z M 158.45 143.57 L 157.95 144.39 C 157.49 145.14 157.73 146.12 158.48 146.57 C 159.22 147.03 160.20 146.79 160.65 146.04 L 161.16 145.22 C 161.61 144.47 161.38 143.50 160.63 143.04 C 159.88 142.58 158.91 142.82 158.45 143.57 Z M 157.94 144.40 L 157.43 145.25 C 156.98 146.00 157.22 146.97 157.97 147.42 C 158.72 147.88 159.69 147.64 160.15 146.89 L 160.66 146.04 C 161.11 145.29 160.87 144.31 160.12 143.86 C 159.37 143.41 158.40 143.65 157.94 144.40 Z M 157.43 145.25 L 156.92 146.10 C 156.47 146.86 156.71 147.83 157.47 148.28 C 158.22 148.73 159.20 148.49 159.64 147.73 L 160.15 146.88 C 160.60 146.13 160.36 145.15 159.60 144.70 C 158.85 144.25 157.88 144.50 157.43 145.25 Z M 156.91 146.11 L 156.41 146.96 C 155.97 147.72 156.22 148.69 156.97 149.14 C 157.73 149.58 158.70 149.33 159.15 148.57 L 159.65 147.73 C 160.10 146.97 159.84 146.00 159.09 145.55 C 158.33 145.10 157.36 145.36 156.91 146.11 Z M 156.41 146.97 L 155.91 147.82 C 155.47 148.58 155.73 149.55 156.48 149.99 C 157.24 150.43 158.22 150.18 158.66 149.42 L 159.15 148.57 C 159.60 147.81 159.34 146.83 158.58 146.39 C 157.82 145.95 156.85 146.21 156.41 146.97 Z M 155.91 147.82 L 155.41 148.69 C 154.97 149.45 155.23 150.42 155.99 150.86 C 156.75 151.30 157.73 151.04 158.16 150.28 L 158.66 149.41 C 159.10 148.65 158.84 147.68 158.08 147.24 C 157.32 146.80 156.35 147.06 155.91 147.82 Z M 155.40 148.69 L 154.90 149.57 C 154.46 150.34 154.73 151.31 155.49 151.75 C 156.26 152.18 157.23 151.92 157.66 151.15 L 158.17 150.27 C 158.61 149.51 158.34 148.54 157.58 148.10 C 156.81 147.66 155.84 147.93 155.40 148.69 Z M 154.90 149.58 L 154.40 150.45 C 153.97 151.21 154.24 152.19 155.00 152.62 C 155.77 153.05 156.74 152.79 157.17 152.02 L 157.67 151.15 C 158.10 150.39 157.83 149.41 157.07 148.98 C 156.30 148.54 155.33 148.81 154.90 149.58 Z M 154.40 150.45 L 153.92 151.31 C 153.48 152.07 153.76 153.05 154.52 153.48 C 155.29 153.91 156.26 153.64 156.70 152.87 L 157.18 152.02 C 157.61 151.25 157.34 150.28 156.57 149.84 C 155.80 149.41 154.83 149.68 154.40 150.45 Z M 153.91 151.31 L 153.42 152.18 C 152.99 152.95 153.27 153.92 154.04 154.35 C 154.80 154.78 155.78 154.51 156.21 153.74 L 156.70 152.87 C 157.13 152.10 156.86 151.13 156.09 150.70 C 155.32 150.26 154.35 150.54 153.91 151.31 Z M 153.42 152.18 L 152.93 153.06 C 152.50 153.83 152.77 154.80 153.54 155.24 C 154.31 155.67 155.29 155.39 155.72 154.62 L 156.21 153.74 C 156.64 152.97 156.37 152.00 155.60 151.57 C 154.83 151.13 153.86 151.41 153.42 152.18 Z M 152.93 153.06 L 152.43 153.94 C 152.00 154.71 152.27 155.69 153.04 156.12 C 153.81 156.56 154.79 156.28 155.22 155.51 L 155.72 154.63 C 156.15 153.85 155.88 152.88 155.11 152.45 C 154.34 152.01 153.36 152.29 152.93 153.06 Z M 152.43 153.94 L 151.93 154.82 C 151.50 155.59 151.77 156.57 152.54 157.01 C 153.31 157.44 154.29 157.17 154.73 156.40 L 155.22 155.51 C 155.66 154.74 155.38 153.76 154.61 153.33 C 153.84 152.89 152.86 153.17 152.43 153.94 Z M 151.93 154.82 L 151.44 155.69 C 151.00 156.46 151.27 157.44 152.04 157.88 C 152.82 158.32 153.80 158.04 154.23 157.27 L 154.73 156.40 C 155.16 155.63 154.89 154.65 154.12 154.21 C 153.35 153.77 152.37 154.05 151.93 154.82 Z M 151.44 155.69 L 150.93 156.58 C 150.49 157.35 150.76 158.33 151.53 158.77 C 152.30 159.21 153.28 158.94 153.72 158.17 L 154.23 157.28 C 154.67 156.51 154.40 155.52 153.63 155.09 C 152.86 154.65 151.88 154.91 151.44 155.69 Z M 150.93 156.58 L 150.42 157.46 C 149.98 158.23 150.24 159.22 151.01 159.66 C 151.78 160.10 152.76 159.84 153.21 159.07 L 153.72 158.18 C 154.16 157.41 153.90 156.42 153.13 155.98 C 152.36 155.54 151.37 155.81 150.93 156.58 Z M 150.42 157.46 L 149.92 158.33 C 149.47 159.10 149.73 160.08 150.50 160.53 C 151.27 160.97 152.25 160.71 152.70 159.94 L 153.20 159.07 C 153.65 158.30 153.39 157.32 152.62 156.87 C 151.85 156.43 150.87 156.69 150.42 157.46 Z M 149.92 158.33 L 149.42 159.19 C 148.97 159.95 149.23 160.94 149.99 161.39 C 150.76 161.83 151.75 161.58 152.19 160.81 L 152.70 159.95 C 153.14 159.18 152.88 158.20 152.12 157.75 C 151.35 157.30 150.37 157.56 149.92 158.33 Z M 149.42 159.18 L 148.92 160.03 C 148.47 160.80 148.73 161.78 149.49 162.23 C 150.26 162.68 151.24 162.43 151.69 161.66 L 152.19 160.81 C 152.64 160.05 152.39 159.06 151.62 158.61 C 150.86 158.16 149.87 158.42 149.42 159.18 Z M 148.92 160.03 L 148.43 160.86 C 147.97 161.63 148.23 162.61 148.99 163.07 C 149.75 163.52 150.74 163.27 151.19 162.50 L 151.69 161.67 C 152.14 160.90 151.89 159.92 151.13 159.46 C 150.36 159.01 149.38 159.26 148.92 160.03 Z M 148.43 160.86 L 147.93 161.70 C 147.47 162.46 147.72 163.45 148.48 163.91 C 149.24 164.36 150.23 164.11 150.68 163.35 L 151.19 162.51 C 151.64 161.75 151.40 160.76 150.63 160.30 C 149.87 159.85 148.89 160.10 148.43 160.86 Z M 147.93 161.70 L 147.41 162.55 C 146.95 163.32 147.19 164.30 147.96 164.76 C 148.72 165.22 149.71 164.98 150.16 164.22 L 150.68 163.36 C 151.14 162.60 150.90 161.61 150.14 161.15 C 149.38 160.69 148.39 160.93 147.93 161.70 Z M 147.41 162.55 L 146.89 163.40 C 146.43 164.16 146.67 165.15 147.43 165.62 C 148.19 166.08 149.18 165.84 149.64 165.08 L 150.16 164.22 C 150.63 163.46 150.38 162.47 149.62 162.01 C 148.86 161.55 147.87 161.79 147.41 162.55 Z M 146.89 163.39 L 146.37 164.24 C 145.90 165.00 146.14 166.00 146.90 166.46 C 147.66 166.93 148.65 166.69 149.12 165.93 L 149.64 165.08 C 150.11 164.33 149.87 163.33 149.11 162.87 C 148.35 162.40 147.36 162.64 146.89 163.39 Z M 146.37 164.24 L 145.85 165.08 C 145.37 165.84 145.61 166.84 146.36 167.31 C 147.12 167.78 148.12 167.55 148.59 166.79 L 149.12 165.94 C 149.59 165.19 149.35 164.19 148.60 163.72 C 147.84 163.25 146.84 163.48 146.37 164.24 Z M 145.85 165.07 L 145.32 165.92 C 144.84 166.67 145.07 167.67 145.82 168.15 C 146.58 168.62 147.58 168.40 148.05 167.64 L 148.58 166.80 C 149.06 166.04 148.83 165.04 148.08 164.57 C 147.32 164.09 146.33 164.32 145.85 165.07 Z M 145.32 165.91 L 144.78 166.75 C 144.30 167.50 144.52 168.50 145.28 168.98 C 146.03 169.47 147.03 169.25 147.51 168.49 L 148.05 167.65 C 148.53 166.90 148.31 165.90 147.56 165.42 C 146.80 164.93 145.80 165.16 145.32 165.91 Z M 144.79 166.74 L 144.25 167.56 C 143.77 168.31 143.98 169.32 144.73 169.80 C 145.48 170.29 146.49 170.08 146.97 169.32 L 147.51 168.50 C 147.99 167.75 147.78 166.75 147.03 166.26 C 146.28 165.77 145.27 165.99 144.79 166.74 Z M 144.26 167.56 L 143.72 168.38 C 143.23 169.13 143.44 170.13 144.18 170.62 C 144.93 171.11 145.94 170.90 146.42 170.16 L 146.97 169.33 C 147.46 168.58 147.25 167.58 146.50 167.09 C 145.75 166.60 144.75 166.81 144.26 167.56 Z M 143.72 168.38 L 143.17 169.21 C 142.68 169.95 142.89 170.96 143.63 171.45 C 144.38 171.94 145.38 171.74 145.87 170.99 L 146.42 170.16 C 146.91 169.42 146.71 168.41 145.96 167.92 C 145.22 167.43 144.22 167.63 143.72 168.38 Z M 143.18 169.21 L 142.62 170.04 C 142.13 170.78 142.33 171.79 143.07 172.28 C 143.82 172.78 144.82 172.57 145.31 171.83 L 145.87 171.00 C 146.36 170.25 146.16 169.25 145.42 168.76 C 144.67 168.26 143.67 168.46 143.18 169.21 Z M 142.62 170.04 L 142.06 170.88 C 141.57 171.62 141.77 172.62 142.51 173.12 C 143.25 173.62 144.25 173.42 144.75 172.67 L 145.31 171.83 C 145.80 171.09 145.61 170.09 144.86 169.59 C 144.12 169.10 143.12 169.30 142.62 170.04 Z M 142.06 170.88 L 141.50 171.73 C 141.00 172.47 141.20 173.47 141.94 173.97 C 142.68 174.46 143.68 174.27 144.18 173.53 L 144.75 172.68 C 145.24 171.93 145.04 170.93 144.30 170.44 C 143.56 169.94 142.56 170.14 142.06 170.88 Z M 141.50 171.73 L 140.94 172.56 C 140.44 173.30 140.64 174.30 141.38 174.80 C 142.12 175.29 143.12 175.09 143.62 174.35 L 144.18 173.53 C 144.67 172.79 144.47 171.78 143.73 171.29 C 142.99 170.79 141.99 170.99 141.50 171.73 Z M 140.94 172.56 L 140.38 173.39 C 139.88 174.13 140.08 175.13 140.82 175.63 C 141.56 176.13 142.56 175.93 143.06 175.19 L 143.62 174.36 C 144.12 173.62 143.92 172.61 143.18 172.12 C 142.44 171.62 141.44 171.82 140.94 172.56 Z M 140.38 173.39 L 139.82 174.22 C 139.32 174.96 139.52 175.97 140.26 176.46 C 141.00 176.96 142.00 176.77 142.50 176.03 L 143.06 175.19 C 143.56 174.45 143.36 173.45 142.62 172.95 C 141.88 172.45 140.88 172.65 140.38 173.39 Z M 139.82 174.22 L 139.26 175.05 C 138.76 175.79 138.95 176.80 139.69 177.30 C 140.43 177.80 141.43 177.60 141.93 176.86 L 142.50 176.03 C 143.00 175.29 142.80 174.29 142.06 173.79 C 141.33 173.29 140.32 173.48 139.82 174.22 Z M 139.26 175.05 L 138.69 175.87 C 138.19 176.61 138.38 177.62 139.12 178.12 C 139.86 178.62 140.86 178.43 141.37 177.70 L 141.93 176.87 C 142.43 176.13 142.24 175.13 141.51 174.62 C 140.77 174.12 139.76 174.31 139.26 175.05 Z M 138.70 175.87 L 138.13 176.69 C 137.63 177.42 137.81 178.43 138.55 178.94 C 139.28 179.44 140.29 179.26 140.80 178.52 L 141.36 177.70 C 141.87 176.97 141.68 175.96 140.95 175.45 C 140.21 174.95 139.20 175.13 138.70 175.87 Z M 138.14 176.68 L 137.57 177.49 C 137.06 178.22 137.24 179.23 137.98 179.74 C 138.71 180.25 139.72 180.07 140.23 179.34 L 140.79 178.53 C 141.31 177.79 141.13 176.79 140.39 176.27 C 139.66 175.76 138.65 175.94 138.14 176.68 Z M 137.58 177.48 L 137.01 178.29 C 136.49 179.02 136.67 180.03 137.40 180.54 C 138.13 181.06 139.14 180.89 139.65 180.16 L 140.22 179.35 C 140.74 178.62 140.56 177.61 139.83 177.09 C 139.10 176.58 138.09 176.75 137.58 177.48 Z M 137.02 178.28 L 136.44 179.08 C 135.92 179.81 136.09 180.82 136.82 181.34 C 137.54 181.86 138.55 181.69 139.07 180.96 L 139.65 180.16 C 140.17 179.44 140.00 178.43 139.27 177.91 C 138.55 177.39 137.54 177.55 137.02 178.28 Z M 136.45 179.07 L 135.87 179.87 C 135.35 180.59 135.50 181.60 136.22 182.13 C 136.95 182.65 137.96 182.49 138.48 181.77 L 139.06 180.97 C 139.59 180.25 139.43 179.24 138.71 178.72 C 137.99 178.19 136.98 178.35 136.45 179.07 Z M 135.88 179.86 L 135.29 180.66 C 134.75 181.37 134.91 182.39 135.62 182.92 C 136.34 183.45 137.35 183.30 137.88 182.58 L 138.47 181.78 C 139.00 181.07 138.85 180.05 138.14 179.52 C 137.42 178.99 136.41 179.14 135.88 179.86 Z M 135.30 180.65 L 134.68 181.46 C 134.15 182.17 134.29 183.18 135.00 183.72 C 135.71 184.25 136.72 184.11 137.26 183.40 L 137.87 182.59 C 138.41 181.88 138.27 180.87 137.56 180.33 C 136.84 179.80 135.83 179.94 135.30 180.65 Z M 134.69 181.45 L 134.07 182.26 C 133.52 182.97 133.66 183.98 134.36 184.52 C 135.07 185.07 136.08 184.93 136.62 184.23 L 137.25 183.41 C 137.79 182.71 137.66 181.69 136.96 181.15 C 136.25 180.61 135.24 180.74 134.69 181.45 Z M 134.08 182.25 L 133.48 183.02 C 132.93 183.72 133.05 184.73 133.75 185.28 C 134.46 185.83 135.47 185.70 136.02 185.00 L 136.61 184.24 C 137.16 183.54 137.04 182.52 136.34 181.98 C 135.64 181.43 134.62 181.55 134.08 182.25 Z M 133.48 183.01 L 132.87 183.79 C 132.32 184.49 132.43 185.50 133.13 186.05 C 133.83 186.60 134.84 186.49 135.39 185.79 L 136.01 185.01 C 136.56 184.31 136.44 183.30 135.75 182.75 C 135.05 182.20 134.04 182.31 133.48 183.01 Z M 132.87 183.78 L 132.25 184.57 C 131.69 185.26 131.80 186.27 132.50 186.83 C 133.19 187.38 134.20 187.27 134.76 186.58 L 135.39 185.79 C 135.94 185.10 135.83 184.09 135.14 183.53 C 134.44 182.98 133.43 183.09 132.87 183.78 Z M 132.25 184.56 L 131.62 185.35 C 131.06 186.04 131.16 187.05 131.85 187.61 C 132.55 188.17 133.56 188.06 134.12 187.37 L 134.76 186.58 C 135.31 185.89 135.21 184.88 134.52 184.32 C 133.82 183.76 132.81 183.87 132.25 184.56 Z M 131.62 185.34 L 130.98 186.13 C 130.42 186.82 130.52 187.83 131.21 188.39 C 131.90 188.95 132.91 188.85 133.47 188.16 L 134.11 187.38 C 134.68 186.69 134.57 185.67 133.88 185.11 C 133.20 184.55 132.18 184.65 131.62 185.34 Z M 130.98 186.12 L 130.34 186.91 C 129.78 187.59 129.88 188.61 130.57 189.17 C 131.25 189.73 132.27 189.63 132.83 188.95 L 133.47 188.17 C 134.03 187.48 133.93 186.46 133.25 185.90 C 132.56 185.34 131.55 185.44 130.98 186.12 Z M 130.35 186.90 L 129.71 187.68 C 129.14 188.36 129.24 189.38 129.92 189.94 C 130.61 190.51 131.62 190.41 132.19 189.72 L 132.83 188.95 C 133.39 188.26 133.29 187.25 132.61 186.69 C 131.92 186.12 130.91 186.22 130.35 186.90 Z M 129.71 187.68 L 129.05 188.47 C 128.49 189.15 128.58 190.17 129.26 190.73 C 129.95 191.30 130.96 191.20 131.53 190.52 L 132.18 189.73 C 132.75 189.04 132.66 188.03 131.97 187.46 C 131.29 186.90 130.28 186.99 129.71 187.68 Z M 129.05 188.47 L 128.40 189.25 C 127.84 189.93 127.93 190.94 128.61 191.51 C 129.29 192.08 130.31 191.98 130.87 191.30 L 131.52 190.52 C 132.09 189.84 132.00 188.83 131.31 188.26 C 130.63 187.69 129.62 187.79 129.05 188.47 Z M 128.41 189.25 L 127.76 190.02 C 127.20 190.70 127.29 191.71 127.97 192.28 C 128.65 192.85 129.66 192.76 130.23 192.08 L 130.87 191.30 C 131.44 190.62 131.35 189.61 130.67 189.05 C 129.99 188.48 128.97 188.57 128.41 189.25 Z M 127.77 190.02 L 127.13 190.78 C 126.56 191.46 126.65 192.47 127.33 193.04 C 128.01 193.61 129.02 193.52 129.59 192.84 L 130.22 192.08 C 130.79 191.40 130.70 190.39 130.02 189.82 C 129.34 189.25 128.33 189.34 127.77 190.02 Z M 127.13 190.78 L 126.50 191.54 C 125.93 192.22 126.02 193.23 126.70 193.79 C 127.38 194.36 128.38 194.27 128.95 193.59 L 129.58 192.84 C 130.15 192.16 130.06 191.15 129.38 190.58 C 128.71 190.02 127.70 190.11 127.13 190.78 Z M 126.50 191.54 L 125.87 192.29 C 125.30 192.97 125.39 193.97 126.07 194.54 C 126.75 195.11 127.75 195.02 128.32 194.34 L 128.95 193.59 C 129.52 192.92 129.43 191.91 128.75 191.34 C 128.08 190.77 127.07 190.86 126.50 191.54 Z M 125.87 192.29 L 125.23 193.05 C 124.66 193.73 124.75 194.74 125.43 195.31 C 126.10 195.87 127.11 195.78 127.68 195.11 L 128.32 194.34 C 128.89 193.67 128.80 192.66 128.12 192.09 C 127.45 191.53 126.44 191.61 125.87 192.29 Z M 125.23 193.06 L 124.57 193.84 C 124.01 194.52 124.10 195.53 124.77 196.09 C 125.45 196.66 126.45 196.57 127.02 195.89 L 127.68 195.11 C 128.24 194.43 128.16 193.42 127.48 192.86 C 126.80 192.29 125.80 192.38 125.23 193.06 Z M 124.57 193.85 L 123.92 194.63 C 123.35 195.30 123.44 196.31 124.12 196.87 C 124.80 197.44 125.80 197.35 126.37 196.67 L 127.02 195.89 C 127.58 195.22 127.49 194.21 126.82 193.64 C 126.14 193.08 125.14 193.17 124.57 193.85 Z M 123.92 194.63 L 123.27 195.40 C 122.71 196.08 122.80 197.08 123.48 197.65 C 124.15 198.21 125.16 198.12 125.72 197.44 L 126.37 196.67 C 126.93 195.99 126.84 194.99 126.16 194.43 C 125.49 193.86 124.48 193.95 123.92 194.63 Z M 123.27 195.41 L 122.64 196.17 C 122.08 196.85 122.17 197.85 122.85 198.41 C 123.52 198.98 124.53 198.88 125.09 198.20 L 125.72 197.44 C 126.28 196.76 126.19 195.76 125.51 195.20 C 124.84 194.64 123.83 194.73 123.27 195.41 Z M 122.64 196.18 L 122.01 196.93 C 121.46 197.61 121.55 198.61 122.23 199.17 C 122.91 199.73 123.91 199.63 124.47 198.95 L 125.09 198.20 C 125.65 197.52 125.55 196.52 124.87 195.96 C 124.20 195.40 123.19 195.50 122.64 196.18 Z M 122.01 196.94 L 121.40 197.69 C 120.84 198.37 120.94 199.37 121.62 199.92 C 122.30 200.48 123.30 200.38 123.86 199.70 L 124.47 198.95 C 125.03 198.27 124.93 197.27 124.25 196.71 C 123.57 196.16 122.57 196.26 122.01 196.94 Z M 121.40 197.70 L 120.75 198.49 C 120.20 199.17 120.31 200.17 120.99 200.72 C 121.67 201.27 122.67 201.17 123.22 200.49 L 123.86 199.69 C 124.41 199.01 124.31 198.01 123.63 197.46 C 122.95 196.91 121.95 197.01 121.40 197.70 Z M 120.75 198.50 L 120.12 199.29 C 119.58 199.97 119.69 200.97 120.37 201.51 C 121.05 202.06 122.05 201.95 122.59 201.26 L 123.22 200.48 C 123.77 199.79 123.66 198.80 122.97 198.25 C 122.29 197.71 121.29 197.82 120.75 198.50 Z M 120.12 199.30 L 119.50 200.08 C 118.96 200.76 119.08 201.76 119.77 202.30 C 120.45 202.84 121.44 202.72 121.98 202.03 L 122.60 201.25 C 123.14 200.57 123.02 199.58 122.33 199.04 C 121.65 198.50 120.66 198.61 120.12 199.30 Z M 119.50 200.09 L 118.89 200.87 C 118.36 201.56 118.48 202.55 119.17 203.08 C 119.86 203.61 120.85 203.49 121.38 202.80 L 121.99 202.02 C 122.52 201.34 122.40 200.35 121.71 199.81 C 121.02 199.28 120.03 199.40 119.50 200.09 Z M 118.89 200.88 L 118.29 201.66 C 117.76 202.35 117.89 203.34 118.58 203.87 C 119.27 204.40 120.26 204.26 120.78 203.58 L 121.38 202.79 C 121.91 202.10 121.78 201.12 121.09 200.59 C 120.40 200.06 119.42 200.19 118.89 200.88 Z M 118.28 201.67 L 117.69 202.47 C 117.16 203.16 117.30 204.14 117.99 204.66 C 118.68 205.18 119.67 205.05 120.19 204.36 L 120.79 203.56 C 121.31 202.87 121.17 201.89 120.48 201.37 C 119.79 200.85 118.81 200.98 118.28 201.67 Z M 117.68 202.48 L 117.09 203.27 C 116.57 203.97 116.72 204.95 117.41 205.47 C 118.10 205.98 119.09 205.84 119.60 205.14 L 120.20 204.35 C 120.71 203.65 120.57 202.67 119.87 202.15 C 119.18 201.64 118.20 201.78 117.68 202.48 Z M 117.08 203.28 L 116.49 204.09 C 115.98 204.79 116.13 205.77 116.83 206.28 C 117.53 206.79 118.51 206.64 119.02 205.94 L 119.61 205.13 C 120.12 204.44 119.97 203.46 119.27 202.95 C 118.57 202.43 117.59 202.59 117.08 203.28 Z M 116.48 204.10 L 115.90 204.92 C 115.39 205.62 115.55 206.59 116.25 207.10 C 116.95 207.60 117.93 207.45 118.44 206.75 L 119.02 205.93 C 119.53 205.23 119.37 204.25 118.67 203.75 C 117.97 203.24 116.99 203.40 116.48 204.10 Z M 115.89 204.93 L 115.31 205.75 C 114.81 206.45 114.98 207.43 115.68 207.93 C 116.39 208.42 117.36 208.26 117.86 207.55 L 118.44 206.73 C 118.94 206.03 118.77 205.05 118.07 204.55 C 117.37 204.06 116.39 204.22 115.89 204.93 Z M 115.30 205.76 L 114.73 206.58 C 114.24 207.29 114.41 208.26 115.12 208.75 C 115.83 209.25 116.80 209.07 117.30 208.36 L 117.87 207.54 C 118.36 206.83 118.19 205.86 117.48 205.37 C 116.77 204.87 115.80 205.05 115.30 205.76 Z M 114.72 206.59 L 114.16 207.43 C 113.67 208.14 113.85 209.11 114.57 209.60 C 115.28 210.08 116.25 209.90 116.74 209.19 L 117.30 208.35 C 117.79 207.64 117.61 206.67 116.89 206.18 C 116.18 205.70 115.21 205.88 114.72 206.59 Z M 114.15 207.44 L 113.59 208.28 C 113.11 209.00 113.30 209.96 114.02 210.44 C 114.73 210.92 115.70 210.73 116.18 210.01 L 116.74 209.17 C 117.22 208.46 117.03 207.49 116.31 207.01 C 115.60 206.53 114.63 206.72 114.15 207.44 Z M 113.58 208.29 L 113.03 209.13 C 112.55 209.85 112.76 210.82 113.48 211.29 C 114.20 211.76 115.17 211.56 115.64 210.84 L 116.19 210.00 C 116.66 209.28 116.46 208.31 115.74 207.84 C 115.02 207.37 114.05 207.57 113.58 208.29 Z M 113.02 209.14 L 112.48 209.98 C 112.01 210.71 112.22 211.67 112.95 212.14 C 113.68 212.60 114.64 212.39 115.11 211.67 L 115.65 210.83 C 116.11 210.10 115.90 209.14 115.18 208.67 C 114.45 208.21 113.49 208.42 113.02 209.14 Z M 112.47 209.99 L 111.94 210.83 C 111.48 211.56 111.70 212.53 112.43 212.99 C 113.16 213.45 114.13 213.23 114.59 212.50 L 115.11 211.66 C 115.57 210.93 115.36 209.96 114.63 209.50 C 113.90 209.04 112.93 209.26 112.47 209.99 Z M 111.94 210.84 L 111.42 211.68 C 110.96 212.42 111.19 213.38 111.92 213.83 C 112.66 214.28 113.62 214.06 114.07 213.33 L 114.59 212.49 C 115.05 211.75 114.82 210.79 114.09 210.34 C 113.35 209.88 112.39 210.11 111.94 210.84 Z M 111.41 211.69 L 110.89 212.55 C 110.44 213.29 110.67 214.25 111.41 214.70 C 112.15 215.15 113.11 214.91 113.56 214.18 L 114.08 213.31 C 114.53 212.58 114.29 211.62 113.56 211.17 C 112.82 210.72 111.86 210.96 111.41 211.69 Z M 110.88 212.56 L 110.37 213.43 C 109.92 214.17 110.17 215.13 110.91 215.57 C 111.65 216.01 112.60 215.77 113.05 215.03 L 113.56 214.17 C 114.00 213.43 113.76 212.47 113.02 212.02 C 112.28 211.58 111.32 211.82 110.88 212.56 Z M 110.36 213.44 L 109.85 214.30 C 109.42 215.05 109.67 216.00 110.41 216.44 C 111.15 216.88 112.11 216.63 112.55 215.88 L 113.05 215.02 C 113.49 214.27 113.24 213.32 112.50 212.88 C 111.75 212.45 110.80 212.70 110.36 213.44 Z M 109.85 214.31 L 109.35 215.18 C 108.92 215.92 109.18 216.88 109.92 217.31 C 110.67 217.74 111.62 217.48 112.05 216.74 L 112.55 215.87 C 112.98 215.12 112.73 214.17 111.98 213.74 C 111.23 213.31 110.28 213.57 109.85 214.31 Z M 109.34 215.19 L 108.85 216.05 C 108.43 216.80 108.69 217.75 109.44 218.18 C 110.19 218.60 111.15 218.34 111.57 217.59 L 112.06 216.73 C 112.49 215.98 112.22 215.02 111.47 214.60 C 110.72 214.17 109.77 214.44 109.34 215.19 Z M 108.85 216.06 L 108.36 216.94 C 107.94 217.69 108.21 218.64 108.97 219.06 C 109.72 219.48 110.67 219.21 111.09 218.45 L 111.58 217.58 C 112.00 216.83 111.73 215.87 110.97 215.46 C 110.22 215.04 109.27 215.31 108.85 216.06 Z M 108.36 216.95 L 107.87 217.83 C 107.46 218.59 107.74 219.54 108.49 219.95 C 109.25 220.37 110.20 220.09 110.61 219.33 L 111.10 218.44 C 111.51 217.69 111.23 216.74 110.48 216.32 C 109.72 215.91 108.77 216.19 108.36 216.95 Z M 107.87 217.84 L 107.39 218.73 C 106.98 219.49 107.26 220.43 108.02 220.84 C 108.78 221.25 109.73 220.97 110.14 220.21 L 110.62 219.32 C 111.02 218.56 110.74 217.62 109.98 217.21 C 109.22 216.80 108.28 217.08 107.87 217.84 Z M 107.39 218.73 L 106.92 219.62 C 106.51 220.38 106.80 221.32 107.56 221.73 C 108.32 222.13 109.26 221.85 109.67 221.09 L 110.14 220.20 C 110.55 219.44 110.26 218.50 109.50 218.09 C 108.74 217.69 107.79 217.97 107.39 218.73 Z M 106.91 219.62 L 106.45 220.50 C 106.05 221.26 106.34 222.20 107.10 222.61 C 107.86 223.01 108.80 222.72 109.21 221.96 L 109.67 221.08 C 110.08 220.32 109.79 219.37 109.02 218.97 C 108.26 218.57 107.32 218.86 106.91 219.62 Z M 106.45 220.50 L 105.99 221.37 C 105.59 222.13 105.88 223.08 106.64 223.48 C 107.40 223.88 108.35 223.59 108.75 222.83 L 109.21 221.95 C 109.61 221.19 109.32 220.25 108.56 219.85 C 107.79 219.44 106.85 219.74 106.45 220.50 Z M 105.99 221.37 L 105.50 222.30 C 105.10 223.06 105.39 224.01 106.15 224.41 C 106.91 224.81 107.86 224.52 108.26 223.76 L 108.75 222.83 C 109.15 222.06 108.86 221.12 108.10 220.72 C 107.33 220.32 106.39 220.61 105.99 221.37 Z M 105.50 222.30 L 105.02 223.21 C 104.61 223.97 104.90 224.92 105.66 225.32 C 106.42 225.72 107.37 225.43 107.77 224.67 L 108.26 223.76 C 108.66 223.00 108.37 222.05 107.61 221.65 C 106.85 221.25 105.90 221.54 105.50 222.30 Z M 105.02 223.20 L 104.54 224.09 C 104.14 224.85 104.42 225.79 105.18 226.20 C 105.94 226.61 106.89 226.32 107.29 225.56 L 107.77 224.68 C 108.18 223.92 107.89 222.97 107.13 222.57 C 106.37 222.16 105.43 222.44 105.02 223.20 Z M 104.55 224.07 L 104.08 224.92 C 103.67 225.68 103.94 226.63 104.70 227.04 C 105.46 227.46 106.41 227.18 106.82 226.43 L 107.29 225.58 C 107.70 224.82 107.43 223.87 106.67 223.46 C 105.91 223.04 104.97 223.32 104.55 224.07 Z M 104.09 224.91 L 103.63 225.73 C 103.20 226.48 103.47 227.44 104.22 227.86 C 104.97 228.28 105.92 228.02 106.34 227.27 L 106.81 226.44 C 107.24 225.69 106.97 224.74 106.22 224.32 C 105.47 223.89 104.52 224.16 104.09 224.91 Z M 103.64 225.71 L 103.11 226.62 C 102.67 227.36 102.92 228.32 103.66 228.75 C 104.40 229.19 105.36 228.94 105.80 228.20 L 106.33 227.29 C 106.77 226.55 106.52 225.59 105.78 225.16 C 105.04 224.72 104.08 224.97 103.64 225.71 Z M 103.12 226.59 L 102.59 227.45 C 102.14 228.18 102.37 229.14 103.11 229.59 C 103.84 230.05 104.80 229.82 105.25 229.08 L 105.78 228.23 C 106.23 227.49 106.00 226.53 105.27 226.08 C 104.53 225.63 103.57 225.86 103.12 226.59 Z M 102.61 227.43 L 102.08 228.25 C 101.62 228.97 101.84 229.94 102.56 230.40 C 103.29 230.87 104.26 230.65 104.72 229.92 L 105.24 229.10 C 105.70 228.38 105.49 227.41 104.76 226.95 C 104.04 226.48 103.07 226.70 102.61 227.43 Z M 102.09 228.23 L 101.57 229.03 C 101.10 229.76 101.30 230.72 102.02 231.20 C 102.74 231.67 103.71 231.47 104.18 230.74 L 104.71 229.94 C 105.18 229.22 104.98 228.25 104.26 227.78 C 103.53 227.31 102.57 227.51 102.09 228.23 Z M 101.58 229.02 L 101.01 229.88 C 100.53 230.59 100.72 231.56 101.44 232.04 C 102.16 232.52 103.13 232.33 103.61 231.61 L 104.17 230.76 C 104.65 230.04 104.46 229.07 103.74 228.59 C 103.02 228.11 102.05 228.31 101.58 229.02 Z M 101.02 229.86 L 100.44 230.71 C 99.96 231.42 100.14 232.39 100.86 232.87 C 101.57 233.36 102.54 233.18 103.02 232.46 L 103.60 231.62 C 104.08 230.91 103.90 229.94 103.19 229.45 C 102.47 228.97 101.50 229.15 101.02 229.86 Z M 100.45 230.69 L 99.89 231.50 C 99.39 232.21 99.56 233.19 100.27 233.68 C 100.98 234.17 101.95 234.00 102.45 233.29 L 103.01 232.48 C 103.51 231.77 103.33 230.80 102.63 230.30 C 101.92 229.81 100.95 229.98 100.45 230.69 Z M 99.90 231.49 L 99.34 232.26 C 98.83 232.96 98.99 233.94 99.69 234.44 C 100.39 234.95 101.37 234.79 101.87 234.09 L 102.43 233.31 C 102.94 232.61 102.78 231.64 102.08 231.13 C 101.38 230.63 100.40 230.79 99.90 231.49 Z M 99.36 232.24 L 98.78 233.01 C 98.26 233.70 98.40 234.68 99.09 235.19 C 99.78 235.71 100.76 235.57 101.28 234.88 L 101.85 234.11 C 102.37 233.42 102.23 232.45 101.54 231.93 C 100.85 231.41 99.87 231.55 99.36 232.24 Z M 98.80 232.98 L 98.21 233.74 C 97.67 234.42 97.80 235.41 98.48 235.94 C 99.16 236.47 100.14 236.34 100.67 235.66 L 101.26 234.90 C 101.79 234.22 101.67 233.24 100.99 232.71 C 100.31 232.18 99.33 232.30 98.80 232.98 Z M 98.22 233.73 L 97.58 234.52 C 97.04 235.19 97.15 236.18 97.82 236.72 C 98.49 237.26 99.47 237.15 100.01 236.48 L 100.65 235.68 C 101.19 235.01 101.09 234.03 100.41 233.49 C 99.74 232.95 98.76 233.05 98.22 233.73 Z M 97.59 234.51 L 96.94 235.30 C 96.40 235.97 96.49 236.95 97.16 237.50 C 97.83 238.04 98.81 237.95 99.36 237.28 L 100.00 236.49 C 100.55 235.82 100.45 234.84 99.79 234.29 C 99.12 233.75 98.13 233.84 97.59 234.51 Z M 96.95 235.29 L 96.33 236.03 C 95.78 236.70 95.88 237.68 96.54 238.23 C 97.20 238.78 98.19 238.69 98.74 238.03 L 99.35 237.29 C 99.90 236.62 99.81 235.64 99.15 235.09 C 98.48 234.54 97.50 234.63 96.95 235.29 Z M 96.34 236.03 L 95.69 236.80 C 95.14 237.46 95.22 238.44 95.88 239.00 C 96.54 239.55 97.52 239.47 98.08 238.81 L 98.73 238.04 C 99.29 237.38 99.20 236.39 98.54 235.84 C 97.88 235.28 96.90 235.37 96.34 236.03 Z M 95.70 236.79 L 95.03 237.57 C 94.47 238.23 94.54 239.21 95.19 239.77 C 95.85 240.33 96.83 240.26 97.40 239.61 L 98.07 238.82 C 98.63 238.17 98.56 237.18 97.90 236.62 C 97.25 236.06 96.26 236.13 95.70 236.79 Z M 95.04 237.56 L 94.36 238.33 C 93.79 238.97 93.85 239.96 94.50 240.53 C 95.15 241.10 96.13 241.04 96.70 240.39 L 97.38 239.62 C 97.95 238.97 97.89 237.99 97.24 237.42 C 96.60 236.85 95.61 236.91 95.04 237.56 Z M 94.38 238.31 L 93.68 239.08 C 93.10 239.72 93.14 240.70 93.78 241.28 C 94.42 241.86 95.41 241.82 95.99 241.18 L 96.69 240.41 C 97.27 239.77 97.22 238.79 96.58 238.21 C 95.95 237.63 94.96 237.67 94.38 238.31 Z M 93.70 239.06 L 93.00 239.80 C 92.41 240.43 92.44 241.42 93.06 242.01 C 93.69 242.60 94.68 242.57 95.27 241.94 L 95.97 241.20 C 96.56 240.57 96.53 239.58 95.90 238.99 C 95.27 238.40 94.29 238.43 93.70 239.06 Z M 93.01 239.79 L 92.32 240.50 C 91.72 241.12 91.74 242.11 92.36 242.71 C 92.98 243.31 93.97 243.29 94.57 242.67 L 95.26 241.95 C 95.86 241.33 95.84 240.35 95.22 239.75 C 94.60 239.15 93.61 239.17 93.01 239.79 Z M 92.33 240.49 L 91.65 241.19 C 91.04 241.80 91.05 242.79 91.67 243.39 C 92.28 244.00 93.27 243.99 93.88 243.37 L 94.56 242.68 C 95.16 242.06 95.15 241.07 94.54 240.47 C 93.92 239.87 92.94 239.87 92.33 240.49 Z M 91.65 241.18 L 91.17 241.67 C 90.57 242.28 90.57 243.27 91.18 243.87 C 91.80 244.48 92.79 244.47 93.39 243.86 L 93.87 243.38 C 94.48 242.76 94.47 241.78 93.86 241.17 C 93.25 240.56 92.26 240.57 91.65 241.18 Z"
      fill="black"
      fill-rule="nonzero" /></svg>