<svg xmlns="http://www.w3.org/2000/svg" width="300" height="300" viewBox="0 0 300 300">
<path d="M 149.62 157.28 L 148.96 156.50 C 148.40 155.84 147.41 155.76 146.76 156.32 C 146.10 156.88 146.02 157.86 146.58 158.52 L 147.24 159.30 C 147.80 159.96 148.79 160.04 149.45 159.48 C 150.10 158.92 150.18 157.93 149.62 157.28 Z M 148.98 156.53 L 148.35 155.74 C 147.81 155.07 146.82 154.96 146.15 155.50 C 145.48 156.04 145.37 157.03 145.92 157.70 L 146.55 158.49 C 147.09 159.16 148.08 159.27 148.75 158.72 C 149.42 158.18 149.52 157.20 148.98 156.53 Z M 148.40 155.81 L 147.82 155.00 C 147.32 154.30 146.34 154.14 145.64 154.64 C 144.94 155.14 144.78 156.12 145.28 156.82 L 145.86 157.63 C 146.37 158.33 147.34 158.49 148.04 157.99 C 148.74 157.48 148.90 156.51 148.40 155.81 Z M 147.89 155.11 L 147.40 154.27 C 146.96 153.53 146.00 153.28 145.26 153.72 C 144.51 154.16 144.27 155.12 144.71 155.86 L 145.21 156.70 C 145.65 157.45 146.60 157.69 147.35 157.25 C 148.09 156.81 148.33 155.85 147.89 155.11 Z M 147.48 154.44 L 147.08 153.52 C 146.74 152.73 145.82 152.37 145.03 152.71 C 144.24 153.06 143.87 153.98 144.22 154.77 L 144.62 155.69 C 144.97 156.48 145.89 156.84 146.68 156.50 C 147.47 156.15 147.83 155.23 147.48 154.44 Z M 147.15 153.73 L 146.88 152.72 C 146.65 151.88 145.79 151.40 144.96 151.62 C 144.13 151.85 143.64 152.71 143.87 153.54 L 144.14 154.56 C 144.37 155.39 145.23 155.88 146.06 155.65 C 146.89 155.42 147.38 154.56 147.15 153.73 Z M 146.92 152.93 L 146.79 151.92 C 146.68 151.06 145.89 150.46 145.04 150.57 C 144.18 150.68 143.58 151.47 143.69 152.32 L 143.82 153.33 C 143.93 154.19 144.72 154.79 145.57 154.68 C 146.43 154.57 147.03 153.78 146.92 152.93 Z M 146.80 152.13 L 146.81 151.17 C 146.82 150.31 146.12 149.60 145.26 149.60 C 144.40 149.59 143.70 150.28 143.69 151.14 L 143.68 152.11 C 143.67 152.97 144.36 153.67 145.23 153.68 C 146.09 153.69 146.79 153.00 146.80 152.13 Z M 146.79 151.42 L 146.95 150.47 C 147.09 149.62 146.52 148.82 145.67 148.67 C 144.82 148.53 144.01 149.10 143.87 149.95 L 143.71 150.90 C 143.57 151.75 144.14 152.55 144.99 152.70 C 145.84 152.84 146.64 152.27 146.79 151.42 Z M 146.87 150.76 L 147.23 149.81 C 147.53 149.01 147.12 148.11 146.31 147.80 C 145.51 147.50 144.61 147.91 144.30 148.71 L 143.95 149.66 C 143.64 150.47 144.05 151.37 144.86 151.67 C 145.66 151.98 146.56 151.57 146.87 150.76 Z M 147.11 150.06 L 147.60 149.22 C 148.04 148.48 147.80 147.52 147.06 147.08 C 146.32 146.64 145.36 146.89 144.92 147.63 L 144.42 148.47 C 143.98 149.21 144.23 150.17 144.97 150.61 C 145.71 151.05 146.67 150.80 147.11 150.06 Z M 147.51 149.36 L 148.09 148.58 C 148.61 147.89 148.47 146.91 147.78 146.39 C 147.09 145.88 146.11 146.02 145.59 146.71 L 145.01 147.49 C 144.49 148.18 144.64 149.16 145.33 149.68 C 146.02 150.19 146.99 150.05 147.51 149.36 Z M 148.06 148.63 L 148.65 147.89 C 149.20 147.22 149.09 146.24 148.42 145.70 C 147.75 145.15 146.77 145.26 146.23 145.93 L 145.63 146.66 C 145.09 147.33 145.19 148.31 145.86 148.86 C 146.53 149.40 147.51 149.30 148.06 148.63 Z M 148.65 147.90 L 149.27 147.13 C 149.82 146.47 149.72 145.48 149.06 144.94 C 148.39 144.39 147.40 144.49 146.86 145.16 L 146.23 145.92 C 145.69 146.59 145.79 147.57 146.45 148.12 C 147.12 148.66 148.10 148.56 148.65 147.90 Z M 149.29 147.11 L 149.94 146.29 C 150.47 145.62 150.35 144.64 149.68 144.10 C 149.00 143.57 148.02 143.69 147.48 144.36 L 146.84 145.18 C 146.31 145.86 146.42 146.84 147.10 147.37 C 147.78 147.91 148.76 147.79 149.29 147.11 Z M 149.97 146.25 L 150.56 145.44 C 151.07 144.74 150.92 143.76 150.23 143.25 C 149.53 142.75 148.55 142.90 148.04 143.59 L 147.45 144.41 C 146.94 145.10 147.09 146.08 147.79 146.59 C 148.48 147.10 149.46 146.95 149.97 146.25 Z M 150.59 145.40 L 151.16 144.58 C 151.64 143.87 151.47 142.90 150.76 142.41 C 150.05 141.92 149.07 142.10 148.58 142.81 L 148.02 143.63 C 147.53 144.34 147.71 145.31 148.42 145.80 C 149.13 146.29 150.10 146.11 150.59 145.40 Z M 151.17 144.57 L 151.73 143.72 C 152.21 143.01 152.02 142.04 151.31 141.56 C 150.59 141.08 149.62 141.27 149.14 141.98 L 148.57 142.82 C 148.09 143.54 148.28 144.51 149.00 144.99 C 149.71 145.47 150.68 145.28 151.17 144.57 Z M 151.73 143.73 L 152.30 142.89 C 152.78 142.18 152.59 141.20 151.88 140.72 C 151.16 140.24 150.19 140.43 149.71 141.14 L 149.14 141.98 C 148.66 142.69 148.85 143.66 149.56 144.15 C 150.28 144.63 151.25 144.44 151.73 143.73 Z M 152.28 142.91 L 152.89 142.05 C 153.39 141.34 153.22 140.37 152.51 139.87 C 151.81 139.38 150.83 139.54 150.34 140.25 L 149.73 141.11 C 149.23 141.82 149.40 142.79 150.10 143.29 C 150.81 143.79 151.78 143.62 152.28 142.91 Z M 152.84 142.11 L 153.49 141.29 C 154.02 140.61 153.90 139.63 153.22 139.10 C 152.54 138.57 151.56 138.68 151.03 139.36 L 150.39 140.18 C 149.85 140.86 149.97 141.84 150.65 142.38 C 151.33 142.91 152.31 142.79 152.84 142.11 Z M 153.39 141.41 L 154.06 140.70 C 154.66 140.08 154.64 139.09 154.01 138.50 C 153.39 137.90 152.40 137.92 151.81 138.54 L 151.13 139.24 C 150.54 139.87 150.56 140.86 151.18 141.45 C 151.80 142.05 152.79 142.03 153.39 141.41 Z M 153.87 140.87 L 154.61 140.32 C 155.30 139.80 155.44 138.82 154.92 138.13 C 154.41 137.44 153.43 137.30 152.74 137.82 L 152.00 138.37 C 151.31 138.89 151.17 139.87 151.68 140.56 C 152.20 141.25 153.18 141.39 153.87 140.87 Z M 154.25 140.52 L 155.26 140.12 C 156.06 139.81 156.45 138.90 156.14 138.10 C 155.82 137.30 154.92 136.90 154.11 137.22 L 153.10 137.62 C 152.30 137.93 151.91 138.84 152.22 139.64 C 152.54 140.44 153.44 140.84 154.25 140.52 Z M 154.67 140.23 L 155.62 140.24 C 156.48 140.25 157.19 139.56 157.20 138.70 C 157.21 137.84 156.52 137.13 155.65 137.12 L 154.70 137.11 C 153.84 137.10 153.13 137.79 153.12 138.65 C 153.11 139.52 153.81 140.22 154.67 140.23 Z M 154.82 140.01 L 155.53 140.45 C 156.26 140.90 157.22 140.67 157.68 139.94 C 158.13 139.21 157.90 138.25 157.17 137.79 L 156.46 137.35 C 155.72 136.90 154.76 137.13 154.31 137.86 C 153.86 138.60 154.08 139.56 154.82 140.01 Z M 154.99 139.90 L 155.42 140.65 C 155.85 141.40 156.81 141.66 157.56 141.23 C 158.30 140.80 158.56 139.85 158.13 139.10 L 157.70 138.35 C 157.27 137.60 156.32 137.34 155.57 137.77 C 154.82 138.19 154.56 139.15 154.99 139.90 Z M 155.28 140.29 L 155.55 141.30 C 155.78 142.13 156.64 142.62 157.48 142.39 C 158.31 142.16 158.79 141.30 158.56 140.47 L 158.28 139.46 C 158.05 138.63 157.19 138.14 156.36 138.37 C 155.53 138.60 155.05 139.46 155.28 140.29 Z M 155.52 141.13 L 155.69 142.23 C 155.83 143.08 156.63 143.66 157.48 143.53 C 158.33 143.39 158.91 142.59 158.78 141.74 L 158.60 140.64 C 158.47 139.79 157.67 139.21 156.81 139.34 C 155.96 139.48 155.38 140.28 155.52 141.13 Z M 155.68 142.16 L 155.78 143.06 C 155.88 143.91 156.65 144.53 157.51 144.43 C 158.37 144.34 158.98 143.56 158.89 142.71 L 158.79 141.81 C 158.69 140.95 157.92 140.34 157.06 140.44 C 156.20 140.53 155.59 141.30 155.68 142.16 Z M 155.78 143.01 L 155.86 143.96 C 155.93 144.82 156.68 145.46 157.54 145.39 C 158.40 145.32 159.04 144.57 158.97 143.71 L 158.89 142.76 C 158.82 141.90 158.07 141.26 157.21 141.33 C 156.35 141.40 155.71 142.15 155.78 143.01 Z M 155.85 143.92 L 155.91 144.95 C 155.96 145.81 156.69 146.47 157.55 146.42 C 158.41 146.38 159.07 145.64 159.03 144.78 L 158.97 143.75 C 158.93 142.89 158.19 142.23 157.33 142.28 C 156.47 142.33 155.81 143.06 155.85 143.92 Z M 155.91 144.91 L 155.94 146.01 C 155.97 146.87 156.69 147.55 157.55 147.53 C 158.41 147.50 159.09 146.78 159.06 145.92 L 159.03 144.82 C 159.00 143.96 158.28 143.28 157.42 143.30 C 156.56 143.33 155.88 144.05 155.91 144.91 Z M 155.94 145.98 L 155.95 147.02 C 155.96 147.89 156.67 148.58 157.53 148.57 C 158.39 148.56 159.08 147.85 159.07 146.99 L 159.06 145.95 C 159.05 145.09 158.35 144.40 157.49 144.40 C 156.62 144.41 155.93 145.12 155.94 145.98 Z M 155.95 146.99 L 155.94 148.03 C 155.93 148.89 156.63 149.60 157.49 149.60 C 158.35 149.61 159.06 148.92 159.06 148.06 L 159.07 147.02 C 159.08 146.16 158.39 145.45 157.53 145.45 C 156.66 145.44 155.96 146.13 155.95 146.99 Z M 155.94 148.00 L 155.91 149.04 C 155.88 149.90 156.56 150.62 157.42 150.64 C 158.29 150.67 159.01 149.99 159.03 149.13 L 159.06 148.09 C 159.09 147.23 158.41 146.51 157.55 146.48 C 156.69 146.46 155.97 147.13 155.94 148.00 Z M 155.91 148.99 L 155.85 150.01 C 155.80 150.87 156.46 151.61 157.32 151.66 C 158.18 151.71 158.92 151.05 158.97 150.19 L 159.03 149.17 C 159.08 148.31 158.42 147.58 157.56 147.53 C 156.70 147.48 155.96 148.13 155.91 148.99 Z M 155.86 149.95 L 155.77 150.91 C 155.69 151.77 156.32 152.53 157.18 152.61 C 158.03 152.69 158.80 152.06 158.88 151.20 L 158.97 150.24 C 159.05 149.39 158.42 148.62 157.56 148.54 C 156.70 148.46 155.94 149.09 155.86 149.95 Z M 155.78 150.82 L 155.62 151.85 C 155.50 152.70 156.08 153.50 156.94 153.62 C 157.79 153.75 158.58 153.16 158.71 152.31 L 158.87 151.29 C 158.99 150.43 158.41 149.64 157.55 149.51 C 156.70 149.38 155.91 149.97 155.78 150.82 Z M 155.65 151.71 L 155.40 152.77 C 155.19 153.61 155.71 154.45 156.55 154.65 C 157.39 154.85 158.23 154.34 158.43 153.50 L 158.69 152.45 C 158.89 151.61 158.37 150.76 157.53 150.56 C 156.70 150.36 155.85 150.88 155.65 151.71 Z M 155.44 152.61 L 155.12 153.51 C 154.83 154.32 155.25 155.22 156.06 155.51 C 156.88 155.80 157.77 155.38 158.06 154.56 L 158.38 153.66 C 158.67 152.85 158.25 151.96 157.44 151.66 C 156.63 151.37 155.74 151.80 155.44 152.61 Z M 155.18 153.36 L 154.80 154.16 C 154.42 154.94 154.75 155.87 155.52 156.25 C 156.30 156.62 157.23 156.30 157.61 155.52 L 158.00 154.72 C 158.37 153.94 158.05 153.01 157.27 152.63 C 156.49 152.26 155.56 152.58 155.18 153.36 Z M 154.87 154.03 L 154.34 154.89 C 153.89 155.62 154.13 156.58 154.86 157.03 C 155.60 157.48 156.56 157.25 157.01 156.52 L 157.54 155.65 C 157.98 154.92 157.75 153.96 157.02 153.51 C 156.28 153.06 155.32 153.29 154.87 154.03 Z M 154.47 154.71 L 153.83 155.49 C 153.28 156.15 153.37 157.14 154.04 157.68 C 154.70 158.23 155.68 158.14 156.23 157.48 L 156.88 156.70 C 157.43 156.03 157.34 155.05 156.67 154.50 C 156.01 153.95 155.02 154.04 154.47 154.71 Z M 154.09 155.24 L 153.33 155.82 C 152.64 156.34 152.51 157.32 153.03 158.01 C 153.55 158.69 154.53 158.82 155.22 158.30 L 155.98 157.72 C 156.66 157.20 156.80 156.22 156.27 155.54 C 155.75 154.85 154.77 154.72 154.09 155.24 Z M 153.78 155.58 L 152.85 155.88 C 152.03 156.15 151.59 157.04 151.86 157.86 C 152.13 158.68 153.01 159.12 153.83 158.85 L 154.76 158.54 C 155.58 158.27 156.02 157.39 155.75 156.57 C 155.48 155.75 154.60 155.31 153.78 155.58 Z M 153.41 155.81 L 152.41 155.76 C 151.55 155.73 150.82 156.39 150.79 157.26 C 150.75 158.12 151.42 158.85 152.28 158.88 L 153.27 158.93 C 154.13 158.96 154.86 158.30 154.90 157.44 C 154.94 156.57 154.27 155.85 153.41 155.81 Z M 153.00 155.91 L 152.11 155.49 C 151.33 155.13 150.40 155.47 150.04 156.25 C 149.67 157.03 150.01 157.96 150.79 158.32 L 151.69 158.74 C 152.47 159.10 153.40 158.76 153.76 157.98 C 154.13 157.20 153.79 156.27 153.00 155.91 Z M 152.61 155.87 L 152.00 155.18 C 151.43 154.54 150.44 154.49 149.80 155.07 C 149.16 155.64 149.10 156.63 149.68 157.27 L 150.29 157.95 C 150.87 158.59 151.86 158.65 152.50 158.07 C 153.14 157.49 153.19 156.51 152.61 155.87 Z M 152.24 155.53 L 151.80 154.65 C 151.42 153.87 150.48 153.56 149.71 153.94 C 148.93 154.32 148.62 155.26 149.00 156.03 L 149.44 156.92 C 149.83 157.69 150.76 158.01 151.53 157.63 C 152.31 157.24 152.62 156.31 152.24 155.53 Z M 151.89 154.87 L 151.57 153.86 C 151.32 153.04 150.44 152.58 149.62 152.84 C 148.80 153.10 148.34 153.97 148.59 154.79 L 148.91 155.80 C 149.17 156.63 150.04 157.09 150.87 156.83 C 151.69 156.57 152.15 155.70 151.89 154.87 Z M 151.61 153.99 L 151.40 153.04 C 151.21 152.20 150.38 151.67 149.54 151.85 C 148.69 152.04 148.16 152.87 148.35 153.71 L 148.56 154.67 C 148.75 155.51 149.58 156.04 150.42 155.85 C 151.26 155.67 151.79 154.83 151.61 153.99 Z M 151.42 153.13 L 151.27 152.19 C 151.13 151.34 150.33 150.75 149.48 150.89 C 148.63 151.03 148.05 151.83 148.18 152.68 L 148.33 153.62 C 148.47 154.47 149.27 155.05 150.12 154.92 C 150.97 154.78 151.55 153.98 151.42 153.13 Z M 151.28 152.27 L 151.17 151.27 C 151.08 150.41 150.31 149.79 149.46 149.88 C 148.60 149.97 147.98 150.73 148.07 151.59 L 148.17 152.59 C 148.26 153.45 149.03 154.07 149.89 153.98 C 150.74 153.89 151.37 153.13 151.28 152.27 Z M 151.18 151.33 L 151.11 150.26 C 151.06 149.40 150.31 148.75 149.45 148.80 C 148.59 148.86 147.94 149.60 147.99 150.46 L 148.06 151.53 C 148.11 152.39 148.85 153.04 149.72 152.99 C 150.58 152.93 151.23 152.19 151.18 151.33 Z M 151.11 150.31 L 151.08 149.35 C 151.05 148.49 150.33 147.81 149.47 147.84 C 148.61 147.87 147.93 148.59 147.96 149.45 L 147.99 150.41 C 148.02 151.28 148.74 151.95 149.60 151.92 C 150.46 151.89 151.14 151.17 151.11 150.31 Z M 151.08 149.39 L 151.07 148.38 C 151.07 147.52 150.36 146.83 149.50 146.84 C 148.64 146.84 147.94 147.55 147.95 148.41 L 147.96 149.42 C 147.97 150.28 148.67 150.97 149.53 150.96 C 150.40 150.96 151.09 150.25 151.08 149.39 Z M 151.07 148.42 L 151.09 147.40 C 151.10 146.54 150.42 145.83 149.56 145.81 C 148.69 145.80 147.98 146.48 147.97 147.34 L 147.95 148.37 C 147.94 149.23 148.62 149.94 149.48 149.96 C 150.35 149.97 151.06 149.29 151.07 148.42 Z M 151.09 147.44 L 151.13 146.43 C 151.17 145.56 150.51 144.83 149.65 144.79 C 148.78 144.76 148.05 145.42 148.02 146.28 L 147.97 147.30 C 147.93 148.16 148.60 148.89 149.46 148.93 C 150.32 148.97 151.05 148.30 151.09 147.44 Z M 151.13 146.48 L 151.22 145.41 C 151.29 144.55 150.65 143.80 149.79 143.73 C 148.93 143.66 148.18 144.30 148.11 145.16 L 148.02 146.23 C 147.95 147.09 148.59 147.84 149.45 147.91 C 150.31 147.98 151.06 147.34 151.13 146.48 Z M 151.21 145.50 L 151.35 144.44 C 151.47 143.59 150.88 142.80 150.02 142.68 C 149.17 142.57 148.38 143.16 148.26 144.02 L 148.12 145.07 C 148.00 145.92 148.60 146.71 149.45 146.83 C 150.30 146.95 151.09 146.35 151.21 145.50 Z M 151.33 144.57 L 151.55 143.61 C 151.74 142.77 151.21 141.94 150.37 141.75 C 149.53 141.56 148.69 142.08 148.50 142.93 L 148.28 143.89 C 148.10 144.73 148.62 145.56 149.46 145.75 C 150.31 145.94 151.14 145.42 151.33 144.57 Z M 151.49 143.80 L 151.80 142.94 C 152.09 142.13 151.67 141.23 150.86 140.94 C 150.05 140.65 149.15 141.07 148.86 141.89 L 148.56 142.74 C 148.26 143.55 148.69 144.45 149.50 144.74 C 150.31 145.03 151.20 144.61 151.49 143.80 Z M 151.66 143.23 L 152.25 142.26 C 152.70 141.53 152.47 140.57 151.73 140.12 C 151.00 139.67 150.03 139.90 149.59 140.64 L 149.00 141.60 C 148.55 142.34 148.78 143.30 149.52 143.75 C 150.25 144.19 151.22 143.96 151.66 143.23 Z M 151.92 142.65 L 152.69 142.00 C 153.35 141.45 153.44 140.46 152.88 139.80 C 152.33 139.14 151.35 139.06 150.68 139.61 L 149.92 140.25 C 149.25 140.81 149.17 141.79 149.72 142.45 C 150.28 143.11 151.26 143.20 151.92 142.65 Z M 151.79 142.36 L 152.51 142.32 C 153.37 142.26 154.02 141.52 153.97 140.66 C 153.91 139.80 153.17 139.15 152.31 139.20 L 151.59 139.25 C 150.73 139.30 150.07 140.05 150.13 140.91 C 150.18 141.77 150.93 142.42 151.79 142.36 Z M 151.30 141.86 L 151.81 142.37 C 152.41 142.98 153.40 142.98 154.01 142.37 C 154.62 141.76 154.63 140.78 154.02 140.16 L 153.51 139.66 C 152.90 139.05 151.92 139.05 151.30 139.66 C 150.69 140.26 150.69 141.25 151.30 141.86 Z M 151.46 141.85 L 151.85 142.80 C 152.17 143.60 153.08 143.99 153.88 143.66 C 154.68 143.34 155.07 142.43 154.74 141.63 L 154.36 140.68 C 154.04 139.88 153.13 139.50 152.33 139.82 C 151.53 140.14 151.14 141.05 151.46 141.85 Z M 151.77 142.53 L 152.02 143.78 C 152.20 144.63 153.03 145.17 153.87 145.00 C 154.71 144.82 155.26 144.00 155.08 143.15 L 154.82 141.90 C 154.65 141.05 153.82 140.51 152.98 140.69 C 152.13 140.86 151.59 141.69 151.77 142.53 Z M 152.00 143.65 L 152.12 144.59 C 152.22 145.45 152.99 146.06 153.85 145.96 C 154.71 145.86 155.32 145.08 155.22 144.23 L 155.10 143.28 C 155.00 142.43 154.23 141.82 153.37 141.92 C 152.51 142.02 151.90 142.79 152.00 143.65 Z M 152.11 144.52 L 152.18 145.53 C 152.24 146.39 152.99 147.04 153.85 146.98 C 154.71 146.91 155.36 146.17 155.30 145.31 L 155.22 144.30 C 155.16 143.44 154.41 142.79 153.55 142.85 C 152.69 142.91 152.05 143.66 152.11 144.52 Z M 152.18 145.48 L 152.22 146.51 C 152.25 147.37 152.97 148.05 153.83 148.01 C 154.70 147.98 155.37 147.26 155.34 146.40 L 155.30 145.36 C 155.27 144.50 154.54 143.83 153.68 143.86 C 152.82 143.89 152.15 144.61 152.18 145.48 Z M 152.22 146.47 L 152.22 147.49 C 152.23 148.35 152.93 149.05 153.80 149.04 C 154.66 149.03 155.35 148.33 155.35 147.47 L 155.34 146.44 C 155.33 145.58 154.63 144.89 153.76 144.89 C 152.90 144.90 152.21 145.60 152.22 146.47 Z M 152.22 147.45 L 152.20 148.45 C 152.19 149.31 152.87 150.02 153.74 150.04 C 154.60 150.06 155.31 149.37 155.33 148.51 L 155.35 147.51 C 155.36 146.65 154.68 145.94 153.81 145.92 C 152.95 145.90 152.24 146.59 152.22 147.45 Z M 152.21 148.39 L 152.15 149.42 C 152.10 150.28 152.76 151.02 153.63 151.06 C 154.49 151.11 155.22 150.45 155.27 149.59 L 155.32 148.56 C 155.37 147.70 154.71 146.97 153.85 146.92 C 152.99 146.87 152.25 147.53 152.21 148.39 Z M 152.16 149.32 L 152.05 150.29 C 151.95 151.15 152.56 151.92 153.41 152.02 C 154.27 152.12 155.05 151.51 155.15 150.65 L 155.26 149.69 C 155.36 148.83 154.75 148.06 153.89 147.95 C 153.04 147.85 152.26 148.47 152.16 149.32 Z M 152.07 150.16 L 151.87 151.10 C 151.70 151.95 152.24 152.77 153.08 152.95 C 153.93 153.12 154.75 152.58 154.93 151.73 L 155.13 150.79 C 155.30 149.94 154.76 149.12 153.91 148.94 C 153.07 148.77 152.24 149.31 152.07 150.16 Z M 151.91 150.95 L 151.61 151.91 C 151.35 152.74 151.81 153.61 152.63 153.87 C 153.45 154.13 154.33 153.67 154.59 152.85 L 154.89 151.88 C 155.15 151.06 154.69 150.19 153.87 149.93 C 153.05 149.67 152.17 150.13 151.91 150.95 Z M 151.66 151.77 L 151.20 152.85 C 150.86 153.65 151.23 154.56 152.02 154.90 C 152.82 155.24 153.73 154.87 154.07 154.08 L 154.53 152.99 C 154.87 152.20 154.50 151.28 153.71 150.95 C 152.92 150.61 152.00 150.98 151.66 151.77 Z M 151.26 152.72 L 150.70 153.75 C 150.29 154.51 150.57 155.46 151.33 155.87 C 152.08 156.28 153.03 156.00 153.44 155.25 L 154.01 154.21 C 154.42 153.46 154.14 152.51 153.38 152.09 C 152.62 151.68 151.68 151.96 151.26 152.72 Z M 150.80 153.59 L 150.22 154.40 C 149.72 155.10 149.88 156.08 150.58 156.58 C 151.28 157.08 152.26 156.92 152.76 156.22 L 153.34 155.41 C 153.84 154.71 153.68 153.74 152.98 153.23 C 152.28 152.73 151.31 152.89 150.80 153.59 Z M 150.51 154.09 L 149.99 154.51 C 149.32 155.06 149.21 156.04 149.75 156.71 C 150.29 157.38 151.28 157.49 151.95 156.95 L 152.47 156.53 C 153.14 155.99 153.25 155.00 152.71 154.33 C 152.17 153.66 151.18 153.55 150.51 154.09 Z M 151.46 154.25 L 151.02 154.11 C 150.21 153.84 149.32 154.28 149.05 155.10 C 148.78 155.92 149.23 156.80 150.05 157.07 L 150.48 157.21 C 151.30 157.48 152.18 157.04 152.45 156.22 C 152.72 155.40 152.28 154.52 151.46 154.25 Z M 151.99 155.02 L 151.70 154.28 C 151.39 153.48 150.48 153.08 149.68 153.39 C 148.88 153.71 148.48 154.61 148.79 155.42 L 149.08 156.16 C 149.40 156.96 150.30 157.36 151.10 157.04 C 151.91 156.73 152.30 155.82 151.99 155.02 Z M 151.79 154.62 L 151.62 153.41 C 151.49 152.55 150.70 151.96 149.85 152.09 C 148.99 152.21 148.40 153.00 148.53 153.86 L 148.70 155.07 C 148.83 155.93 149.62 156.52 150.47 156.39 C 151.33 156.27 151.92 155.48 151.79 154.62 Z M 151.63 153.52 L 151.54 152.22 C 151.48 151.36 150.74 150.71 149.88 150.77 C 149.01 150.83 148.37 151.57 148.42 152.43 L 148.51 153.74 C 148.57 154.60 149.32 155.25 150.18 155.19 C 151.04 155.13 151.69 154.38 151.63 153.52 Z M 151.54 152.26 L 151.50 151.27 C 151.47 150.41 150.74 149.74 149.88 149.77 C 149.02 149.80 148.35 150.53 148.38 151.39 L 148.42 152.39 C 148.46 153.25 149.18 153.92 150.04 153.89 C 150.90 153.85 151.58 153.13 151.54 152.26 Z M 151.50 151.29 L 151.48 150.25 C 151.46 149.39 150.74 148.71 149.88 148.73 C 149.02 148.75 148.34 149.46 148.36 150.32 L 148.38 151.36 C 148.40 152.23 149.12 152.91 149.98 152.89 C 150.84 152.87 151.52 152.16 151.50 151.29 Z M 151.48 150.27 L 151.47 149.22 C 151.46 148.36 150.75 147.66 149.89 147.67 C 149.03 147.68 148.34 148.39 148.35 149.25 L 148.36 150.30 C 148.37 151.16 149.07 151.86 149.93 151.85 C 150.80 151.84 151.49 151.13 151.48 150.27 Z M 151.47 149.24 L 151.47 148.21 C 151.47 147.34 150.77 146.64 149.91 146.64 C 149.05 146.64 148.35 147.34 148.35 148.20 L 148.35 149.23 C 148.35 150.09 149.04 150.79 149.91 150.80 C 150.77 150.80 151.47 150.10 151.47 149.24 Z M 151.47 148.22 L 151.48 147.25 C 151.49 146.39 150.80 145.68 149.94 145.67 C 149.08 145.66 148.37 146.35 148.36 147.21 L 148.35 148.19 C 148.34 149.05 149.03 149.76 149.89 149.77 C 150.75 149.77 151.46 149.08 151.47 148.22 Z M 151.48 147.27 L 151.50 146.26 C 151.52 145.39 150.84 144.68 149.98 144.66 C 149.12 144.64 148.40 145.32 148.38 146.19 L 148.36 147.20 C 148.34 148.06 149.02 148.77 149.88 148.79 C 150.75 148.81 151.46 148.13 151.48 147.27 Z M 151.50 146.28 L 151.55 145.11 C 151.58 144.25 150.91 143.52 150.05 143.49 C 149.19 143.45 148.46 144.12 148.43 144.99 L 148.38 146.16 C 148.35 147.02 149.02 147.75 149.88 147.78 C 150.74 147.81 151.47 147.14 151.50 146.28 Z M 151.55 145.15 L 151.61 144.18 C 151.67 143.32 151.02 142.58 150.16 142.52 C 149.30 142.46 148.56 143.11 148.50 143.97 L 148.43 144.94 C 148.37 145.80 149.02 146.55 149.88 146.61 C 150.75 146.66 151.49 146.01 151.55 145.15 Z M 151.61 144.23 L 151.69 143.37 C 151.78 142.51 151.15 141.75 150.29 141.67 C 149.44 141.58 148.67 142.21 148.59 143.07 L 148.50 143.92 C 148.42 144.78 149.04 145.54 149.90 145.63 C 150.76 145.71 151.52 145.09 151.61 144.23 Z M 151.69 143.42 L 151.80 142.56 C 151.91 141.71 151.30 140.93 150.45 140.82 C 149.59 140.71 148.81 141.31 148.70 142.17 L 148.59 143.02 C 148.48 143.88 149.09 144.66 149.94 144.77 C 150.80 144.88 151.58 144.27 151.69 143.42 Z M 151.79 142.61 L 151.94 141.69 C 152.07 140.83 151.49 140.03 150.64 139.90 C 149.78 139.77 148.98 140.35 148.85 141.20 L 148.71 142.12 C 148.57 142.98 149.16 143.77 150.01 143.91 C 150.86 144.04 151.66 143.46 151.79 142.61 Z M 151.93 141.73 L 152.11 140.75 C 152.27 139.90 151.71 139.09 150.87 138.93 C 150.02 138.77 149.20 139.32 149.04 140.17 L 148.86 141.15 C 148.70 142.00 149.26 142.82 150.11 142.98 C 150.95 143.14 151.77 142.58 151.93 141.73 Z M 152.10 140.80 L 152.34 139.71 C 152.53 138.87 151.99 138.04 151.15 137.85 C 150.31 137.67 149.48 138.20 149.29 139.05 L 149.05 140.13 C 148.87 140.97 149.40 141.80 150.24 141.99 C 151.09 142.17 151.92 141.64 152.10 140.80 Z M 152.33 139.75 L 152.56 138.82 C 152.76 137.99 152.25 137.14 151.41 136.94 C 150.58 136.73 149.73 137.24 149.53 138.08 L 149.30 139.01 C 149.09 139.85 149.61 140.69 150.45 140.90 C 151.28 141.10 152.13 140.59 152.33 139.75 Z M 152.55 138.85 L 152.81 137.88 C 153.03 137.05 152.54 136.19 151.70 135.97 C 150.87 135.75 150.02 136.24 149.79 137.08 L 149.53 138.05 C 149.31 138.88 149.81 139.74 150.64 139.96 C 151.47 140.18 152.33 139.69 152.55 138.85 Z M 152.80 137.92 L 153.09 136.93 C 153.33 136.10 152.85 135.23 152.02 134.99 C 151.20 134.75 150.33 135.23 150.09 136.06 L 149.80 137.04 C 149.56 137.87 150.04 138.74 150.87 138.98 C 151.69 139.22 152.56 138.74 152.80 137.92 Z M 153.08 136.97 L 153.39 136.00 C 153.65 135.18 153.19 134.30 152.37 134.04 C 151.55 133.77 150.67 134.23 150.41 135.05 L 150.10 136.02 C 149.84 136.84 150.29 137.72 151.11 137.98 C 151.94 138.24 152.81 137.79 153.08 136.97 Z M 153.37 136.05 L 153.72 135.07 C 154.01 134.26 153.59 133.36 152.77 133.07 C 151.96 132.78 151.07 133.20 150.78 134.02 L 150.43 135.00 C 150.14 135.81 150.56 136.70 151.37 136.99 C 152.18 137.28 153.08 136.86 153.37 136.05 Z M 153.69 135.15 L 154.09 134.19 C 154.43 133.40 154.05 132.48 153.26 132.15 C 152.46 131.81 151.55 132.19 151.21 132.98 L 150.81 133.93 C 150.47 134.73 150.85 135.65 151.64 135.98 C 152.44 136.32 153.35 135.94 153.69 135.15 Z M 154.03 134.32 L 154.49 133.45 C 154.90 132.69 154.60 131.74 153.84 131.34 C 153.08 130.93 152.14 131.23 151.73 131.99 L 151.27 132.86 C 150.87 133.62 151.16 134.56 151.92 134.97 C 152.68 135.37 153.63 135.08 154.03 134.32 Z M 154.40 133.61 L 154.94 132.82 C 155.43 132.12 155.25 131.14 154.54 130.65 C 153.83 130.16 152.86 130.34 152.37 131.05 L 151.83 131.83 C 151.34 132.54 151.51 133.51 152.22 134.00 C 152.93 134.49 153.90 134.32 154.40 133.61 Z M 154.79 133.01 L 155.50 132.25 C 156.10 131.62 156.07 130.63 155.44 130.04 C 154.81 129.45 153.82 129.48 153.23 130.11 L 152.52 130.86 C 151.93 131.49 151.96 132.48 152.58 133.07 C 153.21 133.66 154.20 133.63 154.79 133.01 Z M 155.30 132.43 L 156.16 131.79 C 156.85 131.28 157.00 130.30 156.49 129.61 C 155.97 128.92 154.99 128.77 154.30 129.29 L 153.44 129.92 C 152.75 130.44 152.60 131.41 153.11 132.11 C 153.63 132.80 154.60 132.95 155.30 132.43 Z M 155.85 131.97 L 156.74 131.59 C 157.53 131.25 157.89 130.33 157.55 129.54 C 157.21 128.75 156.29 128.38 155.50 128.72 L 154.61 129.11 C 153.82 129.45 153.46 130.37 153.80 131.16 C 154.14 131.95 155.06 132.31 155.85 131.97 Z M 156.19 131.72 L 157.03 131.68 C 157.90 131.64 158.56 130.92 158.53 130.06 C 158.49 129.19 157.76 128.53 156.90 128.56 L 156.05 128.60 C 155.19 128.63 154.52 129.36 154.56 130.22 C 154.60 131.08 155.32 131.75 156.19 131.72 Z M 156.25 131.50 L 157.03 131.91 C 157.79 132.31 158.73 132.02 159.13 131.25 C 159.53 130.49 159.24 129.54 158.47 129.15 L 157.69 128.74 C 156.93 128.34 155.98 128.63 155.58 129.40 C 155.19 130.16 155.48 131.11 156.25 131.50 Z M 156.54 131.51 L 157.17 132.29 C 157.72 132.96 158.70 133.06 159.37 132.52 C 160.04 131.97 160.14 130.99 159.59 130.32 L 158.96 129.54 C 158.42 128.87 157.43 128.77 156.76 129.32 C 156.09 129.86 155.99 130.85 156.54 131.51 Z M 156.97 131.98 L 157.45 132.97 C 157.82 133.75 158.75 134.08 159.53 133.71 C 160.30 133.34 160.64 132.41 160.26 131.63 L 159.79 130.63 C 159.42 129.86 158.49 129.53 157.71 129.90 C 156.93 130.27 156.60 131.20 156.97 131.98 Z M 157.37 132.77 L 157.65 133.66 C 157.91 134.49 158.78 134.94 159.61 134.68 C 160.43 134.42 160.88 133.55 160.63 132.72 L 160.34 131.83 C 160.08 131.01 159.21 130.55 158.39 130.81 C 157.56 131.07 157.11 131.95 157.37 132.77 Z M 157.61 133.53 L 157.82 134.49 C 158.01 135.33 158.84 135.87 159.68 135.68 C 160.52 135.50 161.06 134.67 160.87 133.82 L 160.66 132.86 C 160.48 132.02 159.64 131.48 158.80 131.67 C 157.96 131.85 157.43 132.69 157.61 133.53 Z M 157.80 134.39 L 157.96 135.41 C 158.09 136.26 158.88 136.85 159.74 136.72 C 160.59 136.59 161.18 135.80 161.05 134.94 L 160.89 133.92 C 160.76 133.07 159.97 132.49 159.11 132.61 C 158.26 132.74 157.68 133.54 157.80 134.39 Z M 157.95 135.34 L 158.06 136.39 C 158.15 137.24 158.91 137.87 159.77 137.78 C 160.63 137.69 161.25 136.92 161.16 136.07 L 161.06 135.02 C 160.97 134.16 160.20 133.54 159.34 133.62 C 158.48 133.71 157.86 134.48 157.95 135.34 Z M 158.05 136.34 L 158.12 137.33 C 158.19 138.19 158.93 138.83 159.79 138.77 C 160.65 138.71 161.30 137.96 161.24 137.10 L 161.17 136.11 C 161.11 135.25 160.36 134.61 159.50 134.67 C 158.64 134.73 157.99 135.48 158.05 136.34 Z M 158.12 137.29 L 158.17 138.29 C 158.21 139.15 158.94 139.82 159.81 139.78 C 160.67 139.74 161.33 139.00 161.29 138.14 L 161.24 137.14 C 161.20 136.28 160.47 135.62 159.61 135.66 C 158.75 135.70 158.08 136.43 158.12 137.29 Z M 158.17 138.27 L 158.20 139.27 C 158.23 140.13 158.95 140.81 159.81 140.78 C 160.67 140.76 161.35 140.04 161.32 139.18 L 161.29 138.17 C 161.26 137.31 160.54 136.63 159.68 136.66 C 158.82 136.68 158.14 137.40 158.17 138.27 Z M 158.20 139.25 L 158.22 140.25 C 158.24 141.12 158.95 141.80 159.81 141.79 C 160.67 141.77 161.36 141.06 161.34 140.20 L 161.32 139.19 C 161.31 138.33 160.59 137.65 159.73 137.66 C 158.87 137.68 158.18 138.39 158.20 139.25 Z M 158.22 140.24 L 158.23 141.26 C 158.24 142.13 158.94 142.82 159.81 142.81 C 160.67 142.80 161.36 142.09 161.35 141.23 L 161.34 140.21 C 161.33 139.35 160.63 138.65 159.76 138.66 C 158.90 138.67 158.21 139.38 158.22 140.24 Z M 158.23 141.24 L 158.22 142.26 C 158.22 143.12 158.91 143.82 159.78 143.83 C 160.64 143.83 161.34 143.14 161.35 142.28 L 161.35 141.26 C 161.36 140.39 160.66 139.69 159.80 139.69 C 158.94 139.68 158.23 140.38 158.23 141.24 Z M 158.22 142.21 L 158.19 143.21 C 158.16 144.07 158.83 144.79 159.69 144.82 C 160.55 144.86 161.28 144.18 161.31 143.32 L 161.34 142.32 C 161.38 141.46 160.70 140.74 159.84 140.71 C 158.98 140.68 158.26 141.35 158.22 142.21 Z M 158.19 143.13 L 158.11 144.11 C 158.04 144.97 158.68 145.72 159.54 145.79 C 160.39 145.86 161.15 145.23 161.22 144.37 L 161.30 143.39 C 161.38 142.54 160.74 141.78 159.88 141.71 C 159.02 141.64 158.26 142.27 158.19 143.13 Z M 158.12 144.01 L 157.98 144.97 C 157.85 145.82 158.44 146.61 159.29 146.74 C 160.14 146.87 160.94 146.28 161.07 145.43 L 161.21 144.47 C 161.34 143.61 160.75 142.82 159.90 142.69 C 159.04 142.57 158.25 143.15 158.12 144.01 Z M 158.00 144.85 L 157.78 145.80 C 157.59 146.64 158.12 147.48 158.96 147.67 C 159.80 147.86 160.64 147.33 160.83 146.49 L 161.05 145.54 C 161.24 144.70 160.71 143.86 159.87 143.67 C 159.03 143.48 158.19 144.01 158.00 144.85 Z M 157.81 145.69 L 157.53 146.63 C 157.27 147.45 157.73 148.33 158.56 148.58 C 159.38 148.83 160.26 148.37 160.51 147.55 L 160.80 146.60 C 161.05 145.78 160.59 144.91 159.77 144.65 C 158.94 144.40 158.07 144.86 157.81 145.69 Z M 157.56 146.53 L 157.19 147.48 C 156.88 148.28 157.28 149.19 158.09 149.50 C 158.89 149.81 159.80 149.40 160.11 148.60 L 160.47 147.65 C 160.78 146.85 160.38 145.94 159.58 145.63 C 158.77 145.32 157.87 145.72 157.56 146.53 Z M 157.23 147.39 L 156.81 148.31 C 156.45 149.09 156.80 150.02 157.58 150.38 C 158.37 150.73 159.30 150.39 159.65 149.60 L 160.07 148.69 C 160.43 147.90 160.08 146.98 159.30 146.62 C 158.51 146.26 157.59 146.61 157.23 147.39 Z M 156.85 148.24 L 156.40 149.10 C 156.00 149.86 156.30 150.81 157.06 151.20 C 157.83 151.60 158.77 151.31 159.17 150.54 L 159.62 149.68 C 160.02 148.91 159.72 147.97 158.95 147.57 C 158.19 147.17 157.25 147.47 156.85 148.24 Z M 156.44 149.03 L 155.93 149.89 C 155.49 150.63 155.74 151.59 156.48 152.03 C 157.23 152.47 158.18 152.22 158.62 151.48 L 159.13 150.61 C 159.57 149.87 159.32 148.91 158.58 148.47 C 157.83 148.04 156.88 148.28 156.44 149.03 Z M 155.98 149.82 L 155.41 150.66 C 154.93 151.38 155.12 152.35 155.84 152.83 C 156.56 153.31 157.53 153.11 158.01 152.40 L 158.57 151.55 C 159.05 150.83 158.86 149.87 158.14 149.39 C 157.43 148.91 156.46 149.10 155.98 149.82 Z M 155.47 150.58 L 154.85 151.39 C 154.32 152.08 154.45 153.06 155.14 153.58 C 155.82 154.11 156.80 153.98 157.32 153.29 L 157.95 152.48 C 158.47 151.80 158.34 150.82 157.66 150.29 C 156.97 149.77 155.99 149.90 155.47 150.58 Z M 154.92 151.30 L 154.21 152.10 C 153.64 152.74 153.69 153.73 154.33 154.30 C 154.98 154.88 155.96 154.82 156.54 154.18 L 157.25 153.38 C 157.82 152.74 157.77 151.75 157.13 151.18 C 156.48 150.60 155.50 150.66 154.92 151.30 Z M 154.30 152.01 L 153.53 152.74 C 152.91 153.33 152.88 154.32 153.48 154.95 C 154.07 155.57 155.06 155.60 155.68 155.00 L 156.45 154.27 C 157.08 153.68 157.10 152.69 156.51 152.06 C 155.91 151.44 154.92 151.41 154.30 152.01 Z M 153.63 152.65 L 152.84 153.28 C 152.17 153.82 152.06 154.80 152.59 155.47 C 153.13 156.15 154.11 156.26 154.79 155.72 L 155.58 155.09 C 156.25 154.55 156.36 153.57 155.83 152.90 C 155.29 152.22 154.31 152.11 153.63 152.65 Z M 152.97 153.19 L 152.18 153.70 C 151.45 154.16 151.24 155.13 151.71 155.85 C 152.17 156.58 153.14 156.79 153.86 156.32 L 154.66 155.81 C 155.38 155.35 155.59 154.38 155.13 153.66 C 154.66 152.93 153.70 152.72 152.97 153.19 Z M 152.37 153.59 L 151.47 154.00 C 150.69 154.36 150.35 155.29 150.70 156.07 C 151.06 156.86 151.99 157.20 152.77 156.84 L 153.67 156.43 C 154.45 156.07 154.80 155.14 154.44 154.36 C 154.08 153.58 153.15 153.23 152.37 153.59 Z M 151.82 153.89 L 150.77 154.10 C 149.93 154.27 149.38 155.09 149.55 155.94 C 149.72 156.78 150.54 157.33 151.39 157.16 L 152.43 156.95 C 153.27 156.78 153.82 155.96 153.65 155.12 C 153.49 154.27 152.66 153.72 151.82 153.89 Z M 151.35 154.09 L 150.45 153.93 C 149.60 153.78 148.79 154.35 148.64 155.20 C 148.49 156.05 149.05 156.86 149.90 157.01 L 150.81 157.17 C 151.66 157.32 152.47 156.75 152.62 155.90 C 152.77 155.05 152.20 154.24 151.35 154.09 Z M 151.11 154.22 L 150.43 153.71 C 149.74 153.20 148.76 153.34 148.25 154.03 C 147.73 154.72 147.87 155.70 148.56 156.22 L 149.24 156.72 C 149.93 157.24 150.91 157.09 151.43 156.40 C 151.94 155.71 151.80 154.73 151.11 154.22 Z M 150.83 154.14 L 150.39 153.43 C 149.93 152.70 148.97 152.47 148.24 152.92 C 147.50 153.38 147.28 154.34 147.73 155.07 L 148.17 155.78 C 148.62 156.52 149.58 156.75 150.32 156.29 C 151.05 155.84 151.28 154.88 150.83 154.14 Z M 150.53 153.74 L 150.21 152.81 C 149.93 151.99 149.04 151.56 148.23 151.84 C 147.41 152.12 146.98 153.01 147.26 153.82 L 147.58 154.76 C 147.86 155.58 148.75 156.01 149.57 155.73 C 150.38 155.45 150.81 154.56 150.53 153.74 Z M 150.27 153.01 L 150.04 151.88 C 149.87 151.04 149.05 150.49 148.20 150.66 C 147.36 150.83 146.81 151.65 146.98 152.50 L 147.20 153.62 C 147.37 154.47 148.20 155.02 149.04 154.85 C 149.89 154.68 150.43 153.85 150.27 153.01 Z M 150.06 152.00 L 149.93 150.94 C 149.83 150.08 149.05 149.47 148.19 149.58 C 147.34 149.68 146.73 150.46 146.83 151.31 L 146.96 152.38 C 147.06 153.23 147.84 153.84 148.70 153.74 C 149.55 153.63 150.16 152.86 150.06 152.00 Z M 149.94 151.01 L 149.86 150.00 C 149.79 149.14 149.04 148.50 148.18 148.57 C 147.32 148.63 146.68 149.38 146.75 150.24 L 146.82 151.25 C 146.89 152.11 147.64 152.75 148.50 152.68 C 149.36 152.62 150.00 151.86 149.94 151.01 Z M 149.86 150.05 L 149.81 149.02 C 149.77 148.16 149.04 147.49 148.18 147.53 C 147.32 147.58 146.65 148.31 146.69 149.17 L 146.74 150.20 C 146.78 151.06 147.52 151.72 148.38 151.68 C 149.24 151.64 149.90 150.91 149.86 150.05 Z M 149.81 149.05 L 149.79 148.03 C 149.76 147.17 149.05 146.49 148.18 146.51 C 147.32 146.53 146.64 147.25 146.66 148.11 L 146.69 149.13 C 146.71 150.00 147.43 150.68 148.29 150.65 C 149.16 150.63 149.84 149.91 149.81 149.05 Z M 149.79 148.05 L 149.78 147.07 C 149.77 146.21 149.06 145.52 148.20 145.53 C 147.34 145.53 146.65 146.24 146.65 147.10 L 146.66 148.09 C 146.67 148.95 147.38 149.64 148.24 149.63 C 149.10 149.62 149.80 148.92 149.79 148.05 Z M 149.78 147.09 L 149.78 146.02 C 149.78 145.16 149.08 144.46 148.22 144.45 C 147.36 144.45 146.66 145.15 146.66 146.01 L 146.65 147.08 C 146.65 147.94 147.35 148.65 148.21 148.65 C 149.07 148.65 149.77 147.95 149.78 147.09 Z M 149.78 146.05 L 149.80 144.99 C 149.82 144.13 149.14 143.42 148.28 143.40 C 147.42 143.38 146.70 144.06 146.68 144.92 L 146.66 145.98 C 146.64 146.84 147.32 147.56 148.18 147.58 C 149.04 147.60 149.76 146.91 149.78 146.05 Z M 149.80 145.05 L 149.86 144.09 C 149.91 143.23 149.26 142.48 148.40 142.43 C 147.54 142.38 146.80 143.03 146.74 143.89 L 146.68 144.86 C 146.63 145.72 147.29 146.46 148.15 146.51 C 149.01 146.57 149.75 145.91 149.80 145.05 Z M 149.85 144.17 L 149.96 143.27 C 150.06 142.42 149.45 141.64 148.59 141.54 C 147.74 141.44 146.96 142.05 146.86 142.91 L 146.75 143.81 C 146.65 144.66 147.26 145.44 148.12 145.54 C 148.97 145.64 149.75 145.03 149.85 144.17 Z M 149.94 143.39 L 150.13 142.44 C 150.29 141.59 149.74 140.77 148.90 140.60 C 148.05 140.44 147.23 140.99 147.06 141.83 L 146.88 142.79 C 146.71 143.63 147.26 144.45 148.11 144.62 C 148.95 144.79 149.77 144.24 149.94 143.39 Z M 150.09 142.58 L 150.37 141.62 C 150.62 140.80 150.14 139.93 149.32 139.68 C 148.49 139.44 147.62 139.92 147.38 140.74 L 147.10 141.70 C 146.85 142.52 147.33 143.39 148.16 143.63 C 148.98 143.88 149.85 143.40 150.09 142.58 Z M 150.32 141.77 L 150.70 140.84 C 151.02 140.04 150.63 139.13 149.83 138.81 C 149.03 138.49 148.12 138.87 147.80 139.67 L 147.43 140.60 C 147.10 141.40 147.49 142.31 148.29 142.63 C 149.09 142.95 150.00 142.57 150.32 141.77 Z M 150.63 140.99 L 151.12 140.06 C 151.53 139.29 151.24 138.35 150.47 137.95 C 149.71 137.54 148.77 137.83 148.36 138.60 L 147.87 139.53 C 147.47 140.29 147.76 141.24 148.52 141.64 C 149.28 142.04 150.23 141.75 150.63 140.99 Z M 151.02 140.23 L 151.65 139.33 C 152.15 138.63 151.99 137.65 151.29 137.15 C 150.58 136.65 149.61 136.82 149.11 137.52 L 148.47 138.42 C 147.97 139.12 148.14 140.10 148.84 140.60 C 149.54 141.10 150.52 140.93 151.02 140.23 Z M 151.40 139.61 L 152.12 138.99 C 152.78 138.43 152.85 137.44 152.29 136.79 C 151.73 136.13 150.74 136.06 150.09 136.62 L 149.36 137.24 C 148.71 137.80 148.64 138.79 149.20 139.44 C 149.76 140.10 150.75 140.17 151.40 139.61 Z M 151.41 139.34 L 152.19 139.18 C 153.04 139.01 153.58 138.19 153.41 137.34 C 153.24 136.49 152.42 135.95 151.57 136.12 L 150.80 136.27 C 149.95 136.45 149.40 137.27 149.57 138.11 C 149.74 138.96 150.57 139.51 151.41 139.34 Z M 151.20 139.05 L 151.99 139.44 C 152.77 139.81 153.70 139.49 154.08 138.71 C 154.45 137.94 154.13 137.00 153.35 136.63 L 152.56 136.24 C 151.79 135.87 150.85 136.19 150.48 136.97 C 150.10 137.74 150.43 138.68 151.20 139.05 Z M 151.53 139.09 L 152.24 139.87 C 152.83 140.50 153.82 140.53 154.45 139.95 C 155.08 139.36 155.12 138.37 154.53 137.74 L 153.82 136.97 C 153.23 136.34 152.24 136.30 151.61 136.89 C 150.98 137.47 150.94 138.46 151.53 139.09 Z M 152.04 139.59 L 152.59 140.53 C 153.02 141.28 153.97 141.53 154.72 141.10 C 155.47 140.67 155.72 139.72 155.29 138.97 L 154.74 138.02 C 154.31 137.27 153.35 137.02 152.61 137.45 C 151.86 137.88 151.61 138.84 152.04 139.59 Z M 152.48 140.30 L 152.83 141.24 C 153.13 142.05 154.03 142.45 154.84 142.15 C 155.65 141.85 156.05 140.95 155.75 140.14 L 155.40 139.20 C 155.10 138.40 154.20 137.99 153.39 138.29 C 152.58 138.59 152.17 139.49 152.48 140.30 Z M 152.77 141.06 L 153.01 142.04 C 153.22 142.87 154.07 143.38 154.91 143.18 C 155.74 142.97 156.25 142.12 156.05 141.29 L 155.81 140.32 C 155.60 139.48 154.75 138.97 153.92 139.17 C 153.08 139.38 152.57 140.23 152.77 141.06 Z M 152.99 141.92 L 153.16 142.90 C 153.30 143.75 154.11 144.32 154.96 144.18 C 155.81 144.04 156.38 143.23 156.24 142.38 L 156.07 141.40 C 155.92 140.55 155.12 139.98 154.27 140.12 C 153.42 140.27 152.85 141.07 152.99 141.92 Z M 153.15 142.85 L 153.27 143.76 C 153.38 144.61 154.17 145.21 155.02 145.10 C 155.88 144.99 156.48 144.20 156.37 143.35 L 156.24 142.44 C 156.13 141.58 155.35 140.98 154.49 141.09 C 153.64 141.21 153.04 141.99 153.15 142.85 Z M 153.26 143.71 L 153.36 144.65 C 153.45 145.50 154.21 146.13 155.07 146.04 C 155.93 145.95 156.55 145.19 156.47 144.33 L 156.37 143.39 C 156.28 142.54 155.52 141.91 154.66 142.00 C 153.80 142.09 153.18 142.85 153.26 143.71 Z M 153.36 144.60 L 153.43 145.62 C 153.49 146.48 154.24 147.13 155.10 147.07 C 155.96 147.00 156.61 146.25 156.55 145.40 L 156.47 144.37 C 156.41 143.51 155.66 142.87 154.80 142.93 C 153.94 142.99 153.29 143.74 153.36 144.60 Z M 153.43 145.59 L 153.49 146.72 C 153.53 147.58 154.26 148.25 155.12 148.20 C 155.99 148.16 156.65 147.43 156.60 146.56 L 156.55 145.43 C 156.50 144.57 155.77 143.91 154.91 143.95 C 154.05 143.99 153.39 144.73 153.43 145.59 Z M 153.48 146.68 L 153.51 147.82 C 153.54 148.69 154.25 149.37 155.11 149.34 C 155.98 149.32 156.66 148.60 156.64 147.74 L 156.61 146.60 C 156.58 145.74 155.87 145.06 155.01 145.08 C 154.14 145.10 153.46 145.82 153.48 146.68 Z M 153.51 147.75 L 153.49 148.86 C 153.47 149.72 154.15 150.44 155.01 150.46 C 155.87 150.48 156.59 149.80 156.61 148.94 L 156.64 147.82 C 156.66 146.96 155.97 146.24 155.11 146.22 C 154.25 146.20 153.53 146.88 153.51 147.75 Z M 153.50 148.71 L 153.38 149.66 C 153.27 150.51 153.88 151.29 154.74 151.40 C 155.59 151.51 156.37 150.90 156.48 150.05 L 156.60 149.09 C 156.70 148.24 156.10 147.46 155.24 147.35 C 154.39 147.24 153.61 147.85 153.50 148.71 Z M 153.48 149.27 L 153.21 149.96 C 152.89 150.76 153.28 151.66 154.08 151.98 C 154.88 152.30 155.79 151.91 156.11 151.11 L 156.38 150.43 C 156.70 149.63 156.31 148.72 155.51 148.40 C 154.71 148.08 153.80 148.47 153.48 149.27 Z M 154.28 149.02 L 153.55 149.20 C 152.71 149.41 152.20 150.26 152.41 151.10 C 152.62 151.93 153.47 152.44 154.31 152.23 L 155.04 152.05 C 155.88 151.84 156.38 150.99 156.17 150.15 C 155.96 149.32 155.11 148.81 154.28 149.02 Z M 154.88 149.48 L 154.04 148.84 C 153.36 148.31 152.38 148.44 151.85 149.12 C 151.33 149.80 151.45 150.78 152.14 151.31 L 152.97 151.95 C 153.66 152.48 154.64 152.35 155.16 151.67 C 155.69 150.99 155.56 150.01 154.88 149.48 Z M 154.42 149.26 L 153.90 148.40 C 153.45 147.66 152.49 147.42 151.75 147.87 C 151.01 148.32 150.78 149.28 151.23 150.02 L 151.76 150.88 C 152.20 151.62 153.16 151.86 153.90 151.41 C 154.64 150.96 154.87 150.00 154.42 149.26 Z M 154.04 148.71 L 153.74 147.80 C 153.46 146.98 152.57 146.54 151.76 146.81 C 150.94 147.09 150.50 147.98 150.78 148.79 L 151.08 149.70 C 151.36 150.52 152.24 150.96 153.06 150.69 C 153.88 150.41 154.32 149.53 154.04 148.71 Z M 153.79 148.00 L 153.60 146.99 C 153.43 146.14 152.62 145.59 151.77 145.75 C 150.92 145.91 150.37 146.73 150.53 147.57 L 150.72 148.59 C 150.88 149.43 151.70 149.99 152.55 149.83 C 153.40 149.67 153.95 148.85 153.79 148.00 Z M 153.61 147.12 L 153.50 146.00 C 153.41 145.14 152.64 144.52 151.78 144.61 C 150.93 144.70 150.30 145.46 150.39 146.32 L 150.51 147.44 C 150.60 148.30 151.37 148.92 152.22 148.83 C 153.08 148.74 153.70 147.98 153.61 147.12 Z M 153.51 146.11 L 153.46 144.86 C 153.44 144.00 152.71 143.33 151.85 143.36 C 150.99 143.38 150.32 144.11 150.34 144.97 L 150.39 146.21 C 150.41 147.07 151.14 147.75 152.00 147.72 C 152.86 147.69 153.53 146.97 153.51 146.11 Z M 153.46 145.08 L 153.56 144.13 C 153.65 143.27 153.03 142.50 152.17 142.41 C 151.32 142.32 150.55 142.94 150.45 143.80 L 150.35 144.75 C 150.26 145.61 150.88 146.38 151.74 146.47 C 152.59 146.56 153.36 145.94 153.46 145.08 Z M 153.19 144.98 L 153.52 144.60 C 154.09 143.95 154.02 142.96 153.36 142.40 C 152.71 141.83 151.73 141.90 151.16 142.55 L 150.83 142.94 C 150.26 143.59 150.33 144.58 150.98 145.14 C 151.63 145.71 152.62 145.64 153.19 144.98 Z M 151.36 144.79 L 151.99 145.30 C 152.66 145.84 153.64 145.74 154.18 145.07 C 154.73 144.40 154.62 143.41 153.95 142.87 L 153.32 142.36 C 152.65 141.82 151.67 141.92 151.13 142.59 C 150.59 143.26 150.69 144.25 151.36 144.79 Z M 151.58 144.80 L 152.15 145.91 C 152.54 146.67 153.48 146.98 154.25 146.58 C 155.02 146.19 155.32 145.25 154.93 144.48 L 154.36 143.37 C 153.97 142.61 153.03 142.30 152.26 142.70 C 151.49 143.09 151.19 144.03 151.58 144.80 Z M 152.02 145.56 L 152.24 146.47 C 152.44 147.30 153.28 147.82 154.12 147.62 C 154.96 147.42 155.47 146.58 155.27 145.74 L 155.06 144.83 C 154.86 143.99 154.01 143.47 153.17 143.68 C 152.34 143.88 151.82 144.72 152.02 145.56 Z M 152.20 146.24 L 152.29 147.22 C 152.37 148.08 153.13 148.71 153.99 148.64 C 154.84 148.56 155.48 147.80 155.40 146.94 L 155.31 145.96 C 155.23 145.10 154.47 144.47 153.61 144.55 C 152.76 144.63 152.12 145.38 152.20 146.24 Z M 152.28 147.11 L 152.30 148.16 C 152.32 149.02 153.03 149.71 153.89 149.70 C 154.75 149.68 155.44 148.97 155.42 148.11 L 155.41 147.05 C 155.39 146.19 154.68 145.51 153.82 145.52 C 152.96 145.53 152.27 146.24 152.28 147.11 Z M 152.30 148.13 L 152.30 149.07 C 152.30 149.93 153.00 150.63 153.86 150.64 C 154.72 150.64 155.42 149.94 155.42 149.08 L 155.42 148.14 C 155.42 147.28 154.73 146.58 153.86 146.58 C 153.00 146.57 152.30 147.27 152.30 148.13 Z M 152.30 149.05 L 152.29 149.99 C 152.27 150.85 152.96 151.56 153.82 151.58 C 154.69 151.59 155.40 150.90 155.41 150.04 L 155.42 149.10 C 155.43 148.24 154.75 147.53 153.88 147.51 C 153.02 147.50 152.31 148.19 152.30 149.05 Z M 152.29 149.95 L 152.24 150.95 C 152.21 151.81 152.88 152.54 153.74 152.58 C 154.60 152.62 155.33 151.95 155.36 151.09 L 155.41 150.08 C 155.44 149.22 154.78 148.49 153.91 148.45 C 153.05 148.42 152.32 149.09 152.29 149.95 Z M 152.25 150.89 L 152.16 151.97 C 152.09 152.83 152.73 153.58 153.59 153.65 C 154.45 153.72 155.20 153.08 155.27 152.22 L 155.36 151.15 C 155.43 150.29 154.79 149.53 153.93 149.46 C 153.07 149.39 152.32 150.03 152.25 150.89 Z M 152.17 151.90 L 152.04 152.94 C 151.93 153.79 152.54 154.57 153.39 154.68 C 154.25 154.79 155.03 154.18 155.14 153.33 L 155.27 152.29 C 155.37 151.44 154.77 150.65 153.91 150.55 C 153.06 150.44 152.28 151.05 152.17 151.90 Z M 152.05 152.88 L 151.88 153.88 C 151.75 154.73 152.32 155.53 153.17 155.67 C 154.03 155.81 154.83 155.23 154.97 154.38 L 155.13 153.38 C 155.27 152.53 154.69 151.73 153.84 151.59 C 152.99 151.45 152.18 152.03 152.05 152.88 Z M 151.89 153.84 L 151.70 154.85 C 151.54 155.70 152.10 156.51 152.95 156.67 C 153.79 156.83 154.61 156.27 154.77 155.43 L 154.96 154.42 C 155.12 153.57 154.56 152.75 153.71 152.59 C 152.87 152.43 152.05 152.99 151.89 153.84 Z M 151.71 154.82 L 151.50 155.82 C 151.32 156.66 151.86 157.49 152.71 157.67 C 153.55 157.84 154.38 157.30 154.56 156.45 L 154.76 155.46 C 154.94 154.61 154.40 153.78 153.55 153.61 C 152.71 153.43 151.88 153.98 151.71 154.82 Z M 151.50 155.80 L 151.29 156.76 C 151.10 157.60 151.63 158.44 152.48 158.62 C 153.32 158.81 154.15 158.28 154.34 157.44 L 154.55 156.48 C 154.74 155.63 154.21 154.80 153.36 154.61 C 152.52 154.43 151.69 154.96 151.50 155.80 Z M 151.29 156.75 L 151.06 157.76 C 150.86 158.60 151.39 159.44 152.23 159.63 C 153.07 159.82 153.91 159.30 154.10 158.46 L 154.33 157.45 C 154.53 156.61 154.01 155.77 153.17 155.58 C 152.33 155.38 151.49 155.91 151.29 156.75 Z M 151.06 157.75 L 150.82 158.77 C 150.61 159.61 151.13 160.45 151.97 160.65 C 152.81 160.85 153.65 160.34 153.85 159.50 L 154.10 158.47 C 154.30 157.63 153.78 156.79 152.94 156.59 C 152.10 156.39 151.26 156.91 151.06 157.75 Z M 150.82 158.76 L 150.58 159.71 C 150.38 160.55 150.89 161.40 151.72 161.60 C 152.56 161.81 153.41 161.30 153.61 160.46 L 153.85 159.51 C 154.06 158.67 153.55 157.83 152.71 157.62 C 151.87 157.41 151.03 157.92 150.82 158.76 Z M 150.58 159.70 L 150.35 160.62 C 150.14 161.45 150.65 162.30 151.49 162.51 C 152.32 162.72 153.17 162.22 153.38 161.38 L 153.61 160.47 C 153.82 159.63 153.32 158.78 152.48 158.57 C 151.64 158.36 150.80 158.87 150.58 159.70 Z M 150.36 160.61 L 150.12 161.52 C 149.91 162.36 150.41 163.21 151.25 163.42 C 152.08 163.63 152.94 163.13 153.15 162.29 L 153.38 161.38 C 153.59 160.55 153.09 159.70 152.25 159.48 C 151.42 159.27 150.57 159.78 150.36 160.61 Z M 150.12 161.52 L 149.88 162.46 C 149.67 163.29 150.17 164.14 151.01 164.36 C 151.84 164.57 152.69 164.07 152.91 163.23 L 153.15 162.30 C 153.36 161.46 152.86 160.61 152.02 160.40 C 151.19 160.18 150.34 160.68 150.12 161.52 Z M 149.88 162.45 L 149.63 163.41 C 149.42 164.24 149.91 165.10 150.75 165.31 C 151.58 165.53 152.44 165.03 152.65 164.20 L 152.91 163.24 C 153.12 162.41 152.62 161.55 151.79 161.33 C 150.96 161.12 150.10 161.62 149.88 162.45 Z M 149.64 163.40 L 149.37 164.39 C 149.15 165.23 149.64 166.08 150.47 166.31 C 151.31 166.53 152.16 166.04 152.39 165.20 L 152.65 164.21 C 152.87 163.38 152.38 162.52 151.55 162.30 C 150.71 162.07 149.86 162.57 149.64 163.40 Z M 149.37 164.38 L 149.11 165.35 C 148.88 166.18 149.37 167.04 150.20 167.27 C 151.03 167.50 151.89 167.01 152.12 166.18 L 152.38 165.21 C 152.61 164.38 152.12 163.52 151.29 163.29 C 150.46 163.06 149.60 163.55 149.37 164.38 Z M 149.11 165.34 L 148.85 166.27 C 148.61 167.10 149.09 167.96 149.92 168.20 C 150.75 168.43 151.62 167.95 151.85 167.12 L 152.11 166.19 C 152.35 165.36 151.87 164.50 151.04 164.26 C 150.21 164.03 149.34 164.51 149.11 165.34 Z M 148.85 166.26 L 148.57 167.22 C 148.33 168.05 148.81 168.92 149.64 169.16 C 150.47 169.39 151.33 168.92 151.57 168.09 L 151.85 167.13 C 152.09 166.30 151.61 165.44 150.78 165.20 C 149.95 164.96 149.09 165.43 148.85 166.26 Z M 148.57 167.21 L 148.28 168.20 C 148.04 169.02 148.51 169.89 149.34 170.13 C 150.17 170.38 151.04 169.90 151.28 169.08 L 151.57 168.10 C 151.81 167.27 151.34 166.40 150.51 166.16 C 149.68 165.91 148.82 166.39 148.57 167.21 Z M 148.29 168.19 L 147.99 169.18 C 147.74 170.01 148.21 170.88 149.03 171.13 C 149.86 171.37 150.73 170.91 150.98 170.08 L 151.28 169.09 C 151.52 168.26 151.06 167.39 150.23 167.14 C 149.40 166.89 148.53 167.36 148.29 168.19 Z M 147.99 169.18 L 147.70 170.11 C 147.45 170.94 147.92 171.81 148.74 172.06 C 149.57 172.31 150.44 171.85 150.69 171.02 L 150.98 170.09 C 151.23 169.26 150.76 168.39 149.94 168.14 C 149.11 167.89 148.24 168.35 147.99 169.18 Z M 147.71 170.11 L 147.42 171.05 C 147.16 171.87 147.62 172.74 148.45 173.00 C 149.27 173.25 150.14 172.79 150.40 171.97 L 150.69 171.03 C 150.94 170.20 150.48 169.33 149.66 169.07 C 148.83 168.82 147.96 169.28 147.71 170.11 Z M 147.42 171.04 L 147.12 171.99 C 146.86 172.82 147.32 173.69 148.15 173.95 C 148.97 174.20 149.85 173.74 150.10 172.92 L 150.40 171.97 C 150.65 171.15 150.19 170.27 149.37 170.02 C 148.55 169.76 147.67 170.22 147.42 171.04 Z M 147.12 171.99 L 146.82 172.96 C 146.56 173.78 147.02 174.66 147.84 174.91 C 148.67 175.17 149.54 174.71 149.80 173.89 L 150.10 172.92 C 150.36 172.10 149.90 171.22 149.08 170.97 C 148.25 170.71 147.38 171.17 147.12 171.99 Z M 146.82 172.96 L 146.51 173.94 C 146.25 174.77 146.71 175.64 147.54 175.90 C 148.36 176.16 149.23 175.70 149.49 174.87 L 149.80 173.89 C 150.06 173.07 149.60 172.19 148.78 171.93 C 147.95 171.68 147.08 172.14 146.82 172.96 Z M 146.51 173.94 L 146.22 174.87 C 145.96 175.70 146.42 176.57 147.25 176.83 C 148.07 177.09 148.94 176.63 149.20 175.81 L 149.49 174.87 C 149.75 174.05 149.29 173.18 148.47 172.92 C 147.64 172.66 146.77 173.12 146.51 173.94 Z M 146.22 174.87 L 145.92 175.82 C 145.67 176.64 146.12 177.52 146.95 177.78 C 147.77 178.03 148.65 177.58 148.90 176.75 L 149.20 175.81 C 149.46 174.98 149.00 174.11 148.18 173.85 C 147.36 173.59 146.48 174.05 146.22 174.87 Z M 145.93 175.81 L 145.62 176.77 C 145.36 177.59 145.82 178.47 146.64 178.73 C 147.46 178.99 148.34 178.54 148.60 177.71 L 148.90 176.76 C 149.16 175.94 148.71 175.06 147.89 174.80 C 147.06 174.54 146.19 174.99 145.93 175.81 Z M 145.62 176.76 L 145.31 177.72 C 145.05 178.54 145.50 179.42 146.32 179.69 C 147.14 179.95 148.02 179.50 148.28 178.68 L 148.60 177.72 C 148.86 176.90 148.41 176.02 147.59 175.76 C 146.77 175.49 145.89 175.94 145.62 176.76 Z M 145.32 177.71 L 145.00 178.68 C 144.73 179.49 145.17 180.38 145.99 180.65 C 146.81 180.92 147.69 180.48 147.96 179.66 L 148.28 178.70 C 148.55 177.88 148.11 176.99 147.29 176.72 C 146.47 176.45 145.59 176.89 145.32 177.71 Z M 145.00 178.66 L 144.68 179.62 C 144.40 180.43 144.83 181.32 145.65 181.60 C 146.47 181.88 147.35 181.44 147.63 180.63 L 147.96 179.67 C 148.24 178.86 147.80 177.97 146.98 177.69 C 146.17 177.41 145.28 177.85 145.00 178.66 Z M 144.68 179.60 L 144.35 180.55 C 144.06 181.36 144.49 182.26 145.30 182.54 C 146.11 182.83 147.00 182.40 147.29 181.59 L 147.63 180.64 C 147.91 179.83 147.49 178.94 146.67 178.65 C 145.86 178.36 144.97 178.79 144.68 179.60 Z M 144.35 180.54 L 144.01 181.48 C 143.71 182.29 144.13 183.18 144.94 183.48 C 145.75 183.77 146.65 183.36 146.94 182.55 L 147.29 181.61 C 147.58 180.80 147.16 179.90 146.35 179.60 C 145.54 179.31 144.65 179.73 144.35 180.54 Z M 144.02 181.46 L 143.66 182.40 C 143.36 183.20 143.77 184.10 144.57 184.41 C 145.38 184.71 146.28 184.30 146.58 183.50 L 146.94 182.56 C 147.24 181.76 146.83 180.86 146.03 180.55 C 145.22 180.25 144.32 180.65 144.02 181.46 Z M 143.67 182.38 L 143.31 183.31 C 143.00 184.11 143.39 185.01 144.20 185.33 C 145.00 185.64 145.90 185.24 146.22 184.44 L 146.58 183.51 C 146.89 182.71 146.49 181.81 145.69 181.49 C 144.89 181.18 143.98 181.58 143.67 182.38 Z M 143.31 183.29 L 142.94 184.21 C 142.62 185.01 143.01 185.92 143.81 186.24 C 144.61 186.57 145.52 186.18 145.84 185.38 L 146.21 184.46 C 146.53 183.66 146.15 182.75 145.35 182.43 C 144.55 182.10 143.64 182.49 143.31 183.29 Z M 142.95 184.20 L 142.56 185.12 C 142.23 185.92 142.61 186.83 143.40 187.16 C 144.20 187.49 145.11 187.12 145.45 186.32 L 145.83 185.40 C 146.16 184.60 145.79 183.69 144.99 183.36 C 144.20 183.02 143.28 183.40 142.95 184.20 Z M 142.57 185.10 L 142.18 186.02 C 141.83 186.81 142.20 187.73 142.99 188.07 C 143.78 188.41 144.70 188.05 145.04 187.26 L 145.44 186.34 C 145.78 185.55 145.41 184.63 144.62 184.29 C 143.83 183.95 142.91 184.31 142.57 185.10 Z M 142.18 186.01 L 141.78 186.92 C 141.43 187.71 141.78 188.63 142.57 188.98 C 143.36 189.33 144.28 188.97 144.63 188.18 L 145.04 187.27 C 145.39 186.48 145.03 185.56 144.24 185.21 C 143.45 184.86 142.53 185.22 142.18 186.01 Z M 141.78 186.90 L 141.37 187.81 C 141.01 188.60 141.36 189.52 142.14 189.88 C 142.93 190.24 143.86 189.89 144.21 189.11 L 144.63 188.20 C 144.98 187.41 144.64 186.49 143.85 186.13 C 143.07 185.77 142.14 186.12 141.78 186.90 Z M 141.38 187.80 L 140.95 188.71 C 140.59 189.49 140.93 190.42 141.71 190.78 C 142.49 191.15 143.42 190.81 143.78 190.03 L 144.21 189.12 C 144.57 188.34 144.23 187.41 143.45 187.04 C 142.67 186.68 141.74 187.02 141.38 187.80 Z M 140.96 188.70 L 140.53 189.60 C 140.16 190.38 140.49 191.31 141.27 191.68 C 142.05 192.05 142.98 191.72 143.35 190.94 L 143.78 190.04 C 144.15 189.26 143.82 188.33 143.04 187.96 C 142.26 187.59 141.33 187.92 140.96 188.70 Z M 140.54 189.59 L 140.10 190.49 C 139.72 191.26 140.04 192.19 140.82 192.57 C 141.59 192.95 142.53 192.63 142.90 191.85 L 143.34 190.95 C 143.72 190.18 143.40 189.24 142.62 188.87 C 141.85 188.49 140.91 188.81 140.54 189.59 Z M 140.10 190.47 L 139.66 191.37 C 139.27 192.14 139.58 193.08 140.36 193.46 C 141.13 193.85 142.06 193.53 142.45 192.76 L 142.90 191.87 C 143.28 191.10 142.97 190.16 142.20 189.77 C 141.43 189.39 140.49 189.70 140.10 190.47 Z M 139.67 191.35 L 139.21 192.24 C 138.81 193.01 139.11 193.95 139.88 194.34 C 140.65 194.74 141.59 194.44 141.98 193.67 L 142.44 192.78 C 142.84 192.01 142.53 191.07 141.77 190.68 C 141.00 190.28 140.06 190.58 139.67 191.35 Z M 139.22 192.22 L 138.75 193.11 C 138.34 193.87 138.63 194.81 139.40 195.22 C 140.16 195.62 141.10 195.33 141.51 194.57 L 141.97 193.69 C 142.38 192.93 142.09 191.98 141.33 191.58 C 140.57 191.17 139.62 191.46 139.22 192.22 Z M 138.76 193.09 L 138.27 193.97 C 137.86 194.73 138.14 195.68 138.89 196.09 C 139.65 196.51 140.60 196.23 141.01 195.47 L 141.50 194.59 C 141.91 193.83 141.63 192.88 140.88 192.47 C 140.12 192.05 139.17 192.33 138.76 193.09 Z M 138.28 193.95 L 137.79 194.83 C 137.36 195.58 137.63 196.53 138.38 196.96 C 139.13 197.38 140.08 197.12 140.50 196.37 L 141.00 195.49 C 141.43 194.74 141.16 193.79 140.41 193.36 C 139.66 192.94 138.71 193.20 138.28 193.95 Z M 137.80 194.82 L 137.29 195.68 C 136.86 196.43 137.11 197.38 137.86 197.82 C 138.60 198.25 139.56 198.00 139.99 197.25 L 140.50 196.38 C 140.93 195.64 140.68 194.68 139.93 194.25 C 139.18 193.82 138.23 194.07 137.80 194.82 Z M 137.30 195.67 L 136.79 196.53 C 136.35 197.27 136.60 198.23 137.34 198.67 C 138.08 199.11 139.04 198.86 139.48 198.12 L 139.99 197.26 C 140.43 196.52 140.18 195.56 139.44 195.12 C 138.70 194.68 137.74 194.93 137.30 195.67 Z M 136.80 196.52 L 136.29 197.36 C 135.84 198.10 136.08 199.06 136.82 199.51 C 137.56 199.95 138.52 199.71 138.96 198.98 L 139.47 198.13 C 139.92 197.39 139.68 196.43 138.94 195.99 C 138.20 195.54 137.24 195.78 136.80 196.52 Z M 136.29 197.36 L 135.77 198.21 C 135.32 198.94 135.56 199.90 136.29 200.35 C 137.03 200.80 137.99 200.57 138.44 199.83 L 138.96 198.98 C 139.41 198.25 139.17 197.29 138.44 196.84 C 137.70 196.39 136.74 196.62 136.29 197.36 Z M 135.78 198.20 L 135.25 199.05 C 134.80 199.79 135.03 200.75 135.76 201.20 C 136.49 201.65 137.46 201.42 137.91 200.69 L 138.43 199.84 C 138.89 199.11 138.66 198.14 137.92 197.69 C 137.19 197.24 136.23 197.47 135.78 198.20 Z M 135.26 199.04 L 134.73 199.89 C 134.27 200.62 134.49 201.58 135.23 202.04 C 135.96 202.50 136.92 202.27 137.38 201.54 L 137.90 200.70 C 138.36 199.97 138.14 199.00 137.41 198.55 C 136.68 198.09 135.71 198.31 135.26 199.04 Z M 134.73 199.88 L 134.20 200.73 C 133.74 201.46 133.96 202.42 134.69 202.88 C 135.42 203.34 136.38 203.12 136.84 202.39 L 137.37 201.55 C 137.83 200.82 137.62 199.86 136.89 199.40 C 136.16 198.94 135.19 199.15 134.73 199.88 Z M 134.20 200.72 L 133.67 201.56 C 133.20 202.29 133.41 203.25 134.14 203.72 C 134.86 204.18 135.83 203.97 136.30 203.25 L 136.83 202.40 C 137.30 201.68 137.09 200.71 136.36 200.25 C 135.64 199.78 134.67 199.99 134.20 200.72 Z M 133.67 201.55 L 133.13 202.39 C 132.66 203.11 132.87 204.08 133.59 204.55 C 134.31 205.02 135.28 204.81 135.75 204.09 L 136.29 203.25 C 136.76 202.53 136.55 201.56 135.83 201.09 C 135.11 200.62 134.14 200.83 133.67 201.55 Z M 133.13 202.38 L 132.59 203.21 C 132.12 203.94 132.32 204.90 133.04 205.38 C 133.76 205.85 134.73 205.65 135.20 204.93 L 135.74 204.10 C 136.22 203.37 136.02 202.41 135.29 201.93 C 134.57 201.46 133.61 201.66 133.13 202.38 Z M 132.59 203.21 L 132.04 204.04 C 131.56 204.76 131.76 205.73 132.48 206.21 C 133.20 206.68 134.17 206.48 134.64 205.77 L 135.20 204.93 C 135.67 204.21 135.47 203.24 134.75 202.77 C 134.04 202.29 133.07 202.49 132.59 203.21 Z M 132.04 204.04 L 131.49 204.87 C 131.01 205.59 131.20 206.56 131.92 207.04 C 132.64 207.52 133.61 207.32 134.09 206.60 L 134.64 205.77 C 135.12 205.05 134.93 204.08 134.21 203.60 C 133.49 203.13 132.52 203.32 132.04 204.04 Z M 131.49 204.87 L 130.93 205.71 C 130.45 206.42 130.64 207.39 131.36 207.87 C 132.08 208.35 133.05 208.16 133.52 207.44 L 134.08 206.61 C 134.56 205.89 134.37 204.92 133.65 204.44 C 132.94 203.96 131.97 204.15 131.49 204.87 Z M 130.93 205.71 L 130.56 206.26 C 130.08 206.98 130.27 207.95 130.99 208.43 C 131.70 208.91 132.67 208.72 133.15 208.00 L 133.52 207.44 C 134.00 206.73 133.81 205.76 133.10 205.28 C 132.38 204.80 131.41 204.99 130.93 205.71 Z"
      fill="black"
      fill-rule="nonzero" /></svg>