<svg xmlns="http://www.w3.org/2000/svg" width="300" height="300" viewBox="0 0 300 300">
<path d="M 149.49 151.75 L 148.99 150.97 C 148.53 150.24 147.56 150.03 146.84 150.50 C 146.11 150.97 145.90 151.93 146.37 152.66 L 146.86 153.43 C 147.33 154.16 148.30 154.37 149.02 153.90 C 149.75 153.44 149.96 152.47 149.49 151.75 Z M 149.05 151.07 L 148.60 150.23 C 148.19 149.47 147.24 149.19 146.48 149.60 C 145.72 150.01 145.44 150.96 145.85 151.71 L 146.31 152.56 C 146.72 153.31 147.66 153.60 148.42 153.19 C 149.18 152.78 149.46 151.83 149.05 151.07 Z M 148.68 150.42 L 148.31 149.44 C 148.00 148.63 147.10 148.23 146.30 148.54 C 145.49 148.84 145.09 149.74 145.39 150.55 L 145.77 151.53 C 146.07 152.33 146.97 152.74 147.78 152.43 C 148.59 152.12 148.99 151.22 148.68 150.42 Z M 148.38 149.66 L 148.15 148.65 C 147.97 147.80 147.13 147.27 146.29 147.46 C 145.45 147.64 144.92 148.48 145.10 149.32 L 145.33 150.33 C 145.51 151.17 146.35 151.70 147.19 151.52 C 148.03 151.33 148.56 150.50 148.38 149.66 Z M 148.18 148.82 L 148.07 147.82 C 147.98 146.96 147.21 146.34 146.36 146.43 C 145.50 146.52 144.88 147.29 144.97 148.15 L 145.08 149.15 C 145.17 150.01 145.94 150.63 146.79 150.53 C 147.65 150.44 148.27 149.67 148.18 148.82 Z M 148.08 147.95 L 148.06 146.90 C 148.04 146.04 147.32 145.36 146.46 145.38 C 145.60 145.40 144.91 146.12 144.94 146.98 L 144.96 148.02 C 144.98 148.88 145.70 149.57 146.56 149.54 C 147.42 149.52 148.10 148.81 148.08 147.95 Z M 148.06 147.02 L 148.11 146.00 C 148.15 145.14 147.49 144.40 146.63 144.36 C 145.77 144.32 145.03 144.98 144.99 145.84 L 144.94 146.86 C 144.89 147.73 145.56 148.46 146.42 148.50 C 147.28 148.55 148.01 147.88 148.06 147.02 Z M 148.10 146.12 L 148.22 145.17 C 148.34 144.32 147.74 143.53 146.88 143.42 C 146.03 143.30 145.24 143.91 145.13 144.76 L 145.00 145.71 C 144.89 146.57 145.49 147.35 146.34 147.47 C 147.20 147.58 147.98 146.98 148.10 146.12 Z M 148.19 145.36 L 148.46 144.28 C 148.68 143.44 148.18 142.59 147.34 142.38 C 146.51 142.16 145.66 142.66 145.44 143.50 L 145.16 144.58 C 144.95 145.41 145.45 146.26 146.29 146.48 C 147.12 146.69 147.97 146.19 148.19 145.36 Z M 148.39 144.50 L 148.78 143.60 C 149.12 142.81 148.75 141.89 147.96 141.55 C 147.17 141.21 146.25 141.58 145.91 142.37 L 145.52 143.27 C 145.18 144.06 145.54 144.98 146.34 145.32 C 147.13 145.66 148.05 145.30 148.39 144.50 Z M 148.67 143.80 L 149.16 143.00 C 149.60 142.27 149.37 141.31 148.63 140.86 C 147.90 140.41 146.94 140.65 146.49 141.38 L 146.01 142.17 C 145.56 142.91 145.79 143.87 146.53 144.32 C 147.27 144.77 148.23 144.53 148.67 143.80 Z M 149.07 143.13 L 149.62 142.40 C 150.14 141.71 150.00 140.73 149.31 140.21 C 148.62 139.69 147.64 139.83 147.13 140.52 L 146.57 141.26 C 146.06 141.94 146.20 142.92 146.88 143.44 C 147.57 143.96 148.55 143.82 149.07 143.13 Z M 149.55 142.48 L 150.18 141.76 C 150.74 141.11 150.67 140.12 150.02 139.56 C 149.37 138.99 148.38 139.06 147.82 139.72 L 147.19 140.44 C 146.63 141.09 146.70 142.07 147.35 142.64 C 148.00 143.20 148.99 143.13 149.55 142.48 Z M 150.11 141.83 L 150.83 141.10 C 151.43 140.49 151.42 139.50 150.80 138.89 C 150.18 138.29 149.20 138.30 148.59 138.92 L 147.88 139.65 C 147.28 140.26 147.29 141.25 147.91 141.86 C 148.52 142.46 149.51 142.45 150.11 141.83 Z M 150.77 141.15 L 151.56 140.42 C 152.19 139.83 152.22 138.85 151.64 138.21 C 151.05 137.58 150.06 137.55 149.43 138.14 L 148.64 138.87 C 148.01 139.46 147.98 140.44 148.57 141.08 C 149.16 141.71 150.14 141.74 150.77 141.15 Z M 151.52 140.46 L 152.26 139.81 C 152.91 139.25 152.98 138.26 152.42 137.61 C 151.85 136.96 150.87 136.89 150.21 137.46 L 149.47 138.10 C 148.82 138.67 148.75 139.65 149.31 140.30 C 149.88 140.95 150.87 141.02 151.52 140.46 Z M 152.22 139.85 L 153.01 139.21 C 153.68 138.67 153.79 137.69 153.25 137.02 C 152.71 136.34 151.72 136.24 151.05 136.78 L 150.26 137.42 C 149.59 137.96 149.48 138.94 150.02 139.61 C 150.56 140.28 151.54 140.39 152.22 139.85 Z M 152.95 139.25 L 153.78 138.65 C 154.47 138.14 154.62 137.17 154.11 136.47 C 153.60 135.78 152.63 135.62 151.93 136.13 L 151.11 136.74 C 150.41 137.24 150.26 138.22 150.77 138.92 C 151.28 139.61 152.26 139.76 152.95 139.25 Z M 153.70 138.71 L 154.53 138.17 C 155.25 137.70 155.46 136.74 155.00 136.01 C 154.53 135.29 153.56 135.08 152.84 135.55 L 152.01 136.08 C 151.28 136.55 151.07 137.51 151.54 138.24 C 152.01 138.96 152.97 139.17 153.70 138.71 Z M 154.41 138.24 L 155.39 137.73 C 156.15 137.32 156.44 136.38 156.04 135.62 C 155.64 134.85 154.70 134.56 153.93 134.96 L 152.96 135.48 C 152.19 135.88 151.90 136.82 152.30 137.59 C 152.70 138.35 153.65 138.64 154.41 138.24 Z M 155.21 137.81 L 156.16 137.45 C 156.96 137.15 157.37 136.25 157.07 135.44 C 156.77 134.63 155.87 134.22 155.06 134.53 L 154.11 134.88 C 153.30 135.19 152.89 136.09 153.20 136.89 C 153.50 137.70 154.40 138.11 155.21 137.81 Z M 155.92 137.52 L 156.83 137.33 C 157.68 137.16 158.22 136.34 158.05 135.50 C 157.88 134.65 157.06 134.10 156.21 134.27 L 155.30 134.46 C 154.46 134.63 153.91 135.45 154.08 136.30 C 154.25 137.14 155.07 137.69 155.92 137.52 Z M 156.48 137.36 L 157.47 137.39 C 158.34 137.41 159.05 136.73 159.07 135.87 C 159.09 135.00 158.41 134.29 157.55 134.27 L 156.56 134.24 C 155.70 134.22 154.98 134.90 154.96 135.77 C 154.94 136.63 155.62 137.34 156.48 137.36 Z M 156.94 137.28 L 157.86 137.64 C 158.67 137.95 159.57 137.56 159.88 136.75 C 160.20 135.95 159.80 135.05 159.00 134.73 L 158.08 134.37 C 157.28 134.06 156.37 134.46 156.06 135.26 C 155.74 136.06 156.14 136.97 156.94 137.28 Z M 157.14 137.07 L 157.66 137.83 C 158.15 138.54 159.12 138.72 159.83 138.23 C 160.54 137.74 160.73 136.77 160.24 136.06 L 159.72 135.30 C 159.23 134.59 158.26 134.41 157.55 134.90 C 156.84 135.39 156.66 136.36 157.14 137.07 Z M 157.39 136.98 L 157.41 137.79 C 157.43 138.65 158.15 139.33 159.01 139.31 C 159.87 139.29 160.55 138.57 160.53 137.71 L 160.51 136.91 C 160.49 136.04 159.77 135.36 158.91 135.38 C 158.05 135.40 157.37 136.12 157.39 136.98 Z M 157.45 137.38 L 157.24 138.26 C 157.04 139.10 157.55 139.95 158.39 140.15 C 159.23 140.35 160.07 139.84 160.27 139.00 L 160.49 138.12 C 160.69 137.28 160.18 136.44 159.34 136.23 C 158.50 136.03 157.66 136.54 157.45 137.38 Z M 157.29 138.09 L 156.92 139.07 C 156.62 139.88 157.03 140.78 157.84 141.08 C 158.65 141.38 159.55 140.97 159.85 140.17 L 160.22 139.18 C 160.52 138.37 160.11 137.47 159.30 137.17 C 158.50 136.87 157.60 137.28 157.29 138.09 Z M 156.96 138.99 L 156.50 140.03 C 156.15 140.82 156.51 141.74 157.29 142.09 C 158.08 142.44 159.00 142.08 159.35 141.29 L 159.81 140.25 C 160.16 139.46 159.81 138.54 159.02 138.19 C 158.23 137.84 157.31 138.20 156.96 138.99 Z M 156.51 140.00 L 156.05 140.99 C 155.68 141.78 156.02 142.70 156.80 143.07 C 157.58 143.44 158.51 143.10 158.87 142.32 L 159.34 141.32 C 159.71 140.54 159.37 139.61 158.59 139.25 C 157.81 138.88 156.88 139.22 156.51 140.00 Z M 156.05 140.98 L 155.61 141.91 C 155.23 142.69 155.56 143.62 156.34 143.99 C 157.12 144.37 158.05 144.04 158.42 143.26 L 158.87 142.33 C 159.24 141.55 158.91 140.62 158.13 140.25 C 157.35 139.88 156.42 140.21 156.05 140.98 Z M 155.61 141.90 L 155.17 142.81 C 154.79 143.58 155.11 144.52 155.88 144.90 C 156.66 145.28 157.59 144.96 157.97 144.18 L 158.42 143.27 C 158.80 142.50 158.48 141.56 157.70 141.18 C 156.93 140.80 155.99 141.12 155.61 141.90 Z M 155.18 142.79 L 154.73 143.67 C 154.34 144.44 154.64 145.38 155.41 145.77 C 156.18 146.16 157.12 145.85 157.51 145.09 L 157.96 144.20 C 158.35 143.44 158.05 142.50 157.28 142.10 C 156.51 141.71 155.57 142.02 155.18 142.79 Z M 154.74 143.64 L 154.29 144.49 C 153.88 145.25 154.17 146.19 154.93 146.60 C 155.69 147.01 156.64 146.72 157.04 145.96 L 157.50 145.11 C 157.90 144.35 157.62 143.41 156.86 143.00 C 156.10 142.59 155.15 142.88 154.74 143.64 Z M 154.31 144.45 L 153.80 145.35 C 153.37 146.09 153.63 147.05 154.38 147.48 C 155.13 147.91 156.08 147.65 156.51 146.90 L 157.02 146.00 C 157.45 145.25 157.19 144.30 156.44 143.87 C 155.69 143.44 154.74 143.70 154.31 144.45 Z M 153.83 145.29 L 153.28 146.15 C 152.82 146.88 153.04 147.85 153.77 148.31 C 154.49 148.77 155.46 148.55 155.92 147.83 L 156.47 146.96 C 156.93 146.23 156.72 145.27 155.99 144.80 C 155.26 144.34 154.30 144.56 153.83 145.29 Z M 153.34 146.07 L 152.76 146.86 C 152.25 147.56 152.40 148.54 153.10 149.05 C 153.79 149.56 154.77 149.41 155.28 148.71 L 155.86 147.91 C 156.37 147.22 156.22 146.24 155.52 145.73 C 154.83 145.22 153.85 145.37 153.34 146.07 Z M 152.85 146.76 L 152.21 147.47 C 151.64 148.12 151.71 149.11 152.35 149.68 C 153.00 150.25 153.99 150.18 154.56 149.54 L 155.19 148.82 C 155.76 148.17 155.70 147.19 155.05 146.62 C 154.40 146.05 153.42 146.11 152.85 146.76 Z M 152.35 147.34 L 151.53 148.07 C 150.88 148.64 150.82 149.63 151.39 150.27 C 151.97 150.92 152.95 150.98 153.60 150.40 L 154.42 149.67 C 155.07 149.10 155.13 148.11 154.55 147.47 C 153.98 146.82 153.00 146.76 152.35 147.34 Z M 151.73 147.91 L 150.79 148.50 C 150.06 148.96 149.84 149.92 150.30 150.65 C 150.75 151.38 151.72 151.61 152.45 151.15 L 153.39 150.56 C 154.12 150.10 154.34 149.14 153.89 148.41 C 153.43 147.68 152.46 147.45 151.73 147.91 Z M 151.17 148.33 L 150.31 148.59 C 149.48 148.84 149.02 149.71 149.27 150.54 C 149.52 151.36 150.39 151.83 151.21 151.58 L 152.07 151.32 C 152.90 151.07 153.36 150.20 153.11 149.37 C 152.87 148.55 151.99 148.08 151.17 148.33 Z M 151.19 148.58 L 150.50 148.38 C 149.67 148.14 148.81 148.62 148.57 149.45 C 148.33 150.28 148.81 151.14 149.63 151.38 L 150.33 151.58 C 151.15 151.82 152.02 151.35 152.26 150.52 C 152.50 149.69 152.02 148.82 151.19 148.58 Z M 151.41 149.08 L 150.96 148.33 C 150.51 147.60 149.55 147.36 148.81 147.80 C 148.08 148.25 147.84 149.21 148.28 149.95 L 148.73 150.69 C 149.18 151.43 150.14 151.67 150.87 151.22 C 151.61 150.78 151.85 149.82 151.41 149.08 Z M 151.15 148.82 L 150.92 147.73 C 150.74 146.88 149.91 146.34 149.07 146.52 C 148.22 146.70 147.69 147.53 147.86 148.37 L 148.09 149.46 C 148.27 150.31 149.10 150.85 149.94 150.67 C 150.79 150.49 151.33 149.66 151.15 148.82 Z M 150.95 147.91 L 150.85 146.90 C 150.77 146.04 150.01 145.41 149.15 145.49 C 148.29 145.57 147.66 146.33 147.74 147.19 L 147.84 148.19 C 147.92 149.05 148.68 149.68 149.53 149.60 C 150.39 149.52 151.02 148.76 150.95 147.91 Z M 150.86 146.99 L 150.82 146.06 C 150.79 145.20 150.07 144.52 149.21 144.55 C 148.35 144.58 147.67 145.31 147.70 146.17 L 147.74 147.10 C 147.77 147.97 148.49 148.64 149.35 148.61 C 150.22 148.58 150.89 147.85 150.86 146.99 Z M 150.82 146.13 L 150.84 145.13 C 150.84 144.26 150.15 143.56 149.29 143.55 C 148.43 143.54 147.72 144.23 147.71 145.09 L 147.70 146.10 C 147.69 146.96 148.38 147.67 149.25 147.67 C 150.11 147.68 150.82 146.99 150.82 146.13 Z M 150.83 145.19 L 150.89 144.09 C 150.93 143.23 150.27 142.50 149.41 142.45 C 148.55 142.41 147.81 143.07 147.77 143.93 L 147.72 145.03 C 147.67 145.89 148.33 146.63 149.20 146.67 C 150.06 146.71 150.79 146.05 150.83 145.19 Z M 150.89 144.14 L 150.97 143.13 C 151.04 142.27 150.40 141.52 149.54 141.45 C 148.68 141.38 147.92 142.02 147.85 142.88 L 147.77 143.89 C 147.70 144.75 148.35 145.50 149.20 145.57 C 150.06 145.64 150.82 145.00 150.89 144.14 Z M 150.96 143.17 L 151.07 142.16 C 151.16 141.30 150.54 140.53 149.68 140.44 C 148.83 140.35 148.06 140.97 147.97 141.83 L 147.86 142.84 C 147.77 143.70 148.39 144.47 149.25 144.56 C 150.10 144.65 150.87 144.03 150.96 143.17 Z M 151.07 142.20 L 151.20 141.18 C 151.32 140.32 150.72 139.54 149.87 139.42 C 149.01 139.30 148.23 139.90 148.11 140.76 L 147.97 141.78 C 147.86 142.64 148.45 143.42 149.31 143.54 C 150.16 143.65 150.95 143.06 151.07 142.20 Z M 151.20 141.23 L 151.37 140.24 C 151.51 139.39 150.94 138.58 150.10 138.43 C 149.25 138.29 148.44 138.86 148.29 139.71 L 148.12 140.70 C 147.97 141.55 148.54 142.36 149.39 142.51 C 150.24 142.65 151.05 142.08 151.20 141.23 Z M 151.35 140.31 L 151.56 139.37 C 151.75 138.53 151.22 137.69 150.38 137.51 C 149.54 137.32 148.70 137.85 148.51 138.69 L 148.31 139.63 C 148.12 140.48 148.65 141.31 149.49 141.50 C 150.33 141.68 151.17 141.15 151.35 140.31 Z M 151.53 139.48 L 151.86 138.42 C 152.10 137.59 151.64 136.72 150.81 136.47 C 149.99 136.22 149.12 136.69 148.87 137.51 L 148.54 138.58 C 148.29 139.40 148.76 140.27 149.59 140.52 C 150.41 140.77 151.28 140.31 151.53 139.48 Z M 151.80 138.57 L 152.19 137.64 C 152.52 136.85 152.15 135.93 151.35 135.60 C 150.56 135.27 149.64 135.64 149.31 136.44 L 148.92 137.36 C 148.59 138.15 148.96 139.07 149.76 139.40 C 150.55 139.74 151.47 139.36 151.80 138.57 Z M 152.11 137.81 L 152.57 137.00 C 152.99 136.25 152.73 135.29 151.97 134.87 C 151.22 134.45 150.27 134.71 149.85 135.46 L 149.39 136.27 C 148.97 137.02 149.23 137.98 149.98 138.40 C 150.73 138.82 151.68 138.56 152.11 137.81 Z M 152.46 137.15 L 153.03 136.39 C 153.54 135.69 153.39 134.71 152.69 134.20 C 152.00 133.69 151.02 133.84 150.51 134.54 L 149.95 135.30 C 149.44 136.00 149.59 136.98 150.28 137.49 C 150.98 138.00 151.95 137.85 152.46 137.15 Z M 152.89 136.55 L 153.60 135.81 C 154.20 135.19 154.18 134.21 153.56 133.61 C 152.93 133.01 151.95 133.03 151.35 133.65 L 150.65 134.38 C 150.05 135.00 150.07 135.99 150.69 136.59 C 151.31 137.18 152.30 137.17 152.89 136.55 Z M 153.40 135.99 L 154.20 135.40 C 154.89 134.89 155.04 133.91 154.53 133.22 C 154.02 132.52 153.04 132.38 152.35 132.89 L 151.55 133.48 C 150.85 133.99 150.71 134.96 151.22 135.66 C 151.73 136.35 152.71 136.50 153.40 135.99 Z M 153.91 135.57 L 154.81 135.17 C 155.59 134.81 155.95 133.89 155.59 133.10 C 155.24 132.32 154.32 131.96 153.53 132.32 L 152.63 132.72 C 151.85 133.07 151.49 134.00 151.85 134.78 C 152.20 135.57 153.12 135.92 153.91 135.57 Z M 154.44 135.28 L 155.44 135.10 C 156.29 134.95 156.86 134.14 156.71 133.29 C 156.55 132.44 155.74 131.87 154.89 132.03 L 153.89 132.20 C 153.04 132.36 152.48 133.17 152.63 134.02 C 152.78 134.87 153.59 135.43 154.44 135.28 Z M 155.07 135.12 L 156.07 135.18 C 156.93 135.24 157.67 134.59 157.73 133.73 C 157.78 132.87 157.13 132.12 156.27 132.07 L 155.27 132.00 C 154.41 131.95 153.67 132.60 153.61 133.46 C 153.56 134.32 154.21 135.06 155.07 135.12 Z M 155.68 135.11 L 156.59 135.41 C 157.41 135.69 158.29 135.24 158.57 134.43 C 158.84 133.61 158.40 132.72 157.58 132.45 L 156.66 132.15 C 155.85 131.87 154.96 132.31 154.69 133.13 C 154.42 133.95 154.86 134.83 155.68 135.11 Z M 156.18 135.21 L 156.96 135.76 C 157.67 136.26 158.64 136.09 159.14 135.38 C 159.64 134.68 159.47 133.71 158.77 133.21 L 157.99 132.66 C 157.28 132.16 156.31 132.33 155.81 133.03 C 155.31 133.73 155.48 134.71 156.18 135.21 Z M 156.66 135.47 L 157.28 136.23 C 157.82 136.90 158.81 137.00 159.47 136.46 C 160.14 135.91 160.24 134.93 159.70 134.26 L 159.08 133.50 C 158.53 132.83 157.55 132.73 156.88 133.27 C 156.21 133.82 156.11 134.80 156.66 135.47 Z M 157.10 135.96 L 157.57 136.89 C 157.96 137.66 158.90 137.97 159.67 137.57 C 160.44 137.18 160.75 136.24 160.36 135.48 L 159.88 134.54 C 159.49 133.77 158.55 133.47 157.78 133.86 C 157.01 134.25 156.71 135.19 157.10 135.96 Z M 157.48 136.67 L 157.78 137.59 C 158.05 138.41 158.94 138.85 159.75 138.58 C 160.57 138.31 161.02 137.43 160.75 136.61 L 160.45 135.69 C 160.18 134.88 159.29 134.43 158.48 134.70 C 157.66 134.97 157.21 135.85 157.48 136.67 Z M 157.74 137.41 L 157.94 138.40 C 158.11 139.24 158.93 139.79 159.78 139.62 C 160.62 139.44 161.17 138.62 161.00 137.77 L 160.80 136.79 C 160.62 135.94 159.80 135.40 158.95 135.57 C 158.11 135.74 157.56 136.57 157.74 137.41 Z M 157.91 138.23 L 158.00 139.25 C 158.08 140.10 158.84 140.74 159.70 140.66 C 160.56 140.58 161.19 139.82 161.11 138.96 L 161.02 137.94 C 160.94 137.08 160.18 136.45 159.32 136.53 C 158.46 136.61 157.83 137.37 157.91 138.23 Z M 158.00 139.07 L 157.98 140.10 C 157.96 140.97 158.65 141.68 159.51 141.69 C 160.37 141.71 161.08 141.03 161.10 140.16 L 161.12 139.13 C 161.14 138.27 160.45 137.56 159.59 137.54 C 158.73 137.53 158.01 138.21 158.00 139.07 Z M 157.99 139.92 L 157.86 140.94 C 157.74 141.79 158.34 142.58 159.19 142.70 C 160.05 142.81 160.83 142.21 160.95 141.36 L 161.09 140.34 C 161.20 139.49 160.60 138.70 159.75 138.59 C 158.89 138.47 158.11 139.07 157.99 139.92 Z M 157.89 140.76 L 157.64 141.72 C 157.43 142.55 157.93 143.41 158.77 143.62 C 159.60 143.83 160.45 143.33 160.67 142.50 L 160.91 141.54 C 161.13 140.70 160.63 139.85 159.79 139.64 C 158.96 139.42 158.11 139.92 157.89 140.76 Z M 157.70 141.54 L 157.35 142.42 C 157.04 143.22 157.43 144.13 158.24 144.45 C 159.04 144.76 159.94 144.37 160.26 143.57 L 160.61 142.68 C 160.92 141.88 160.53 140.97 159.73 140.66 C 158.93 140.34 158.02 140.73 157.70 141.54 Z M 157.44 142.23 L 156.99 143.04 C 156.58 143.80 156.85 144.75 157.60 145.17 C 158.35 145.58 159.30 145.31 159.72 144.56 L 160.17 143.75 C 160.59 143.00 160.32 142.05 159.57 141.63 C 158.81 141.21 157.86 141.48 157.44 142.23 Z M 157.10 142.88 L 156.53 143.65 C 156.02 144.35 156.17 145.33 156.87 145.84 C 157.56 146.35 158.54 146.20 159.05 145.50 L 159.62 144.72 C 160.13 144.03 159.98 143.05 159.28 142.54 C 158.59 142.03 157.61 142.18 157.10 142.88 Z M 156.62 143.54 L 155.91 144.34 C 155.34 144.98 155.40 145.97 156.04 146.54 C 156.68 147.12 157.67 147.06 158.24 146.41 L 158.96 145.61 C 159.53 144.97 159.47 143.98 158.83 143.41 C 158.18 142.84 157.20 142.90 156.62 143.54 Z M 155.97 144.28 L 155.25 145.00 C 154.65 145.61 154.65 146.60 155.26 147.20 C 155.87 147.81 156.86 147.81 157.47 147.20 L 158.18 146.48 C 158.79 145.87 158.79 144.88 158.18 144.27 C 157.57 143.66 156.58 143.67 155.97 144.28 Z M 155.30 144.95 L 154.56 145.64 C 153.92 146.22 153.88 147.21 154.47 147.84 C 155.05 148.48 156.04 148.52 156.67 147.93 L 157.42 147.25 C 158.05 146.66 158.09 145.67 157.51 145.04 C 156.93 144.41 155.94 144.37 155.30 144.95 Z M 154.62 145.58 L 153.82 146.24 C 153.16 146.79 153.06 147.77 153.61 148.44 C 154.16 149.10 155.15 149.20 155.81 148.65 L 156.61 147.99 C 157.28 147.44 157.37 146.45 156.82 145.79 C 156.27 145.12 155.29 145.03 154.62 145.58 Z M 153.91 146.17 L 153.09 146.76 C 152.39 147.26 152.22 148.23 152.72 148.93 C 153.22 149.64 154.19 149.80 154.90 149.30 L 155.72 148.72 C 156.42 148.22 156.59 147.24 156.09 146.54 C 155.59 145.84 154.62 145.67 153.91 146.17 Z M 153.23 146.67 L 152.33 147.17 C 151.58 147.59 151.30 148.54 151.72 149.29 C 152.14 150.05 153.09 150.32 153.85 149.90 L 154.75 149.39 C 155.51 148.97 155.78 148.02 155.36 147.27 C 154.94 146.52 153.99 146.25 153.23 146.67 Z M 152.59 147.06 L 151.51 147.42 C 150.70 147.70 150.26 148.58 150.54 149.40 C 150.81 150.22 151.70 150.65 152.52 150.38 L 153.59 150.01 C 154.41 149.73 154.84 148.85 154.57 148.03 C 154.29 147.22 153.40 146.78 152.59 147.06 Z M 151.92 147.34 L 150.97 147.40 C 150.10 147.45 149.45 148.19 149.50 149.05 C 149.55 149.91 150.29 150.57 151.16 150.51 L 152.11 150.46 C 152.97 150.40 153.63 149.66 153.57 148.80 C 153.52 147.94 152.78 147.29 151.92 147.34 Z M 151.55 147.47 L 150.77 147.22 C 149.96 146.95 149.07 147.39 148.80 148.21 C 148.53 149.03 148.97 149.91 149.79 150.18 L 150.57 150.44 C 151.39 150.71 152.27 150.27 152.54 149.45 C 152.81 148.63 152.37 147.75 151.55 147.47 Z M 151.40 147.61 L 150.85 147.04 C 150.25 146.42 149.26 146.40 148.64 147.00 C 148.02 147.60 148.00 148.59 148.60 149.21 L 149.16 149.78 C 149.76 150.40 150.75 150.42 151.37 149.82 C 151.99 149.22 152.00 148.23 151.40 147.61 Z M 151.16 147.52 L 150.80 146.64 C 150.46 145.85 149.55 145.47 148.75 145.81 C 147.96 146.14 147.58 147.06 147.92 147.85 L 148.29 148.73 C 148.62 149.52 149.54 149.90 150.33 149.56 C 151.13 149.23 151.50 148.31 151.16 147.52 Z M 150.89 146.95 L 150.67 145.80 C 150.50 144.95 149.68 144.40 148.84 144.57 C 147.99 144.73 147.44 145.55 147.60 146.40 L 147.82 147.55 C 147.99 148.39 148.81 148.94 149.66 148.78 C 150.50 148.62 151.05 147.80 150.89 146.95 Z M 150.69 145.95 L 150.59 144.95 C 150.51 144.10 149.75 143.47 148.89 143.55 C 148.03 143.63 147.40 144.40 147.48 145.25 L 147.58 146.25 C 147.66 147.11 148.43 147.74 149.28 147.65 C 150.14 147.57 150.77 146.81 150.69 145.95 Z M 150.60 145.04 L 150.56 144.06 C 150.52 143.20 149.79 142.53 148.93 142.56 C 148.07 142.60 147.40 143.33 147.44 144.19 L 147.48 145.17 C 147.51 146.03 148.24 146.70 149.10 146.66 C 149.97 146.63 150.63 145.90 150.60 145.04 Z M 150.56 144.13 L 150.56 143.11 C 150.57 142.24 149.87 141.54 149.01 141.54 C 148.15 141.53 147.44 142.23 147.44 143.09 L 147.43 144.12 C 147.43 144.98 148.13 145.68 148.99 145.68 C 149.85 145.69 150.55 144.99 150.56 144.13 Z M 150.56 143.18 L 150.62 142.15 C 150.66 141.28 150.00 140.55 149.14 140.50 C 148.28 140.46 147.54 141.12 147.50 141.98 L 147.44 143.01 C 147.40 143.87 148.06 144.61 148.92 144.66 C 149.78 144.70 150.51 144.04 150.56 143.18 Z M 150.61 142.23 L 150.72 141.22 C 150.81 140.36 150.20 139.59 149.34 139.50 C 148.48 139.40 147.71 140.02 147.62 140.88 L 147.50 141.89 C 147.41 142.75 148.03 143.52 148.89 143.61 C 149.74 143.71 150.51 143.09 150.61 142.23 Z M 150.70 141.33 L 150.90 140.27 C 151.05 139.42 150.49 138.61 149.64 138.45 C 148.79 138.30 147.98 138.86 147.82 139.71 L 147.63 140.77 C 147.48 141.62 148.04 142.43 148.89 142.58 C 149.74 142.74 150.55 142.17 150.70 141.33 Z M 150.87 140.39 L 151.13 139.39 C 151.35 138.56 150.86 137.70 150.02 137.48 C 149.19 137.26 148.33 137.76 148.11 138.59 L 147.85 139.59 C 147.63 140.43 148.13 141.28 148.96 141.50 C 149.79 141.72 150.65 141.22 150.87 140.39 Z M 151.10 139.51 L 151.42 138.58 C 151.71 137.77 151.28 136.88 150.47 136.59 C 149.66 136.30 148.77 136.73 148.48 137.54 L 148.15 138.47 C 147.86 139.28 148.29 140.18 149.10 140.46 C 149.92 140.75 150.81 140.32 151.10 139.51 Z M 151.38 138.70 L 151.76 137.84 C 152.11 137.05 151.76 136.12 150.98 135.77 C 150.19 135.42 149.26 135.77 148.91 136.56 L 148.53 137.42 C 148.17 138.21 148.53 139.13 149.31 139.49 C 150.10 139.84 151.02 139.49 151.38 138.70 Z M 151.70 137.95 L 152.19 137.08 C 152.60 136.33 152.33 135.38 151.57 134.96 C 150.82 134.54 149.87 134.82 149.45 135.57 L 148.97 136.44 C 148.55 137.20 148.83 138.15 149.58 138.56 C 150.34 138.98 151.29 138.71 151.70 137.95 Z M 152.11 137.21 L 152.70 136.35 C 153.19 135.64 153.01 134.67 152.30 134.18 C 151.59 133.69 150.61 133.87 150.12 134.58 L 149.53 135.44 C 149.04 136.15 149.22 137.12 149.93 137.61 C 150.64 138.10 151.62 137.92 152.11 137.21 Z M 152.58 136.50 L 153.24 135.75 C 153.81 135.11 153.75 134.12 153.10 133.55 C 152.45 132.98 151.47 133.04 150.90 133.69 L 150.24 134.43 C 149.67 135.08 149.73 136.07 150.38 136.64 C 151.03 137.21 152.01 137.15 152.58 136.50 Z M 153.08 135.91 L 153.80 135.30 C 154.45 134.74 154.53 133.76 153.97 133.10 C 153.41 132.44 152.43 132.36 151.77 132.92 L 151.06 133.53 C 150.40 134.09 150.32 135.08 150.88 135.73 C 151.44 136.39 152.42 136.47 153.08 135.91 Z M 153.55 135.47 L 154.49 134.94 C 155.24 134.52 155.51 133.57 155.09 132.82 C 154.67 132.07 153.72 131.80 152.96 132.22 L 152.02 132.75 C 151.27 133.17 151.00 134.13 151.42 134.88 C 151.85 135.63 152.80 135.90 153.55 135.47 Z M 154.09 135.10 L 155.08 134.86 C 155.91 134.66 156.43 133.82 156.23 132.98 C 156.03 132.14 155.18 131.63 154.34 131.83 L 153.36 132.06 C 152.52 132.27 152.01 133.11 152.21 133.95 C 152.41 134.79 153.26 135.30 154.09 135.10 Z M 154.41 134.88 L 155.26 135.05 C 156.11 135.21 156.93 134.66 157.10 133.82 C 157.27 132.97 156.72 132.15 155.87 131.98 L 155.01 131.81 C 154.17 131.65 153.35 132.20 153.18 133.04 C 153.01 133.89 153.56 134.71 154.41 134.88 Z M 154.49 134.64 L 155.08 135.21 C 155.70 135.81 156.69 135.79 157.29 135.16 C 157.88 134.54 157.86 133.55 157.24 132.96 L 156.65 132.39 C 156.02 131.79 155.04 131.81 154.44 132.43 C 153.84 133.06 153.86 134.05 154.49 134.64 Z M 154.74 134.73 L 155.14 135.62 C 155.50 136.40 156.43 136.75 157.21 136.39 C 158.00 136.03 158.34 135.11 157.98 134.32 L 157.58 133.43 C 157.22 132.65 156.30 132.31 155.51 132.66 C 154.73 133.02 154.38 133.95 154.74 134.73 Z M 155.04 135.32 L 155.30 136.42 C 155.49 137.26 156.33 137.78 157.17 137.59 C 158.01 137.39 158.54 136.56 158.34 135.72 L 158.09 134.62 C 157.89 133.78 157.05 133.25 156.21 133.45 C 155.37 133.64 154.85 134.48 155.04 135.32 Z M 155.27 136.26 L 155.39 137.21 C 155.49 138.06 156.27 138.67 157.12 138.57 C 157.98 138.46 158.59 137.69 158.49 136.83 L 158.37 135.88 C 158.27 135.02 157.49 134.41 156.63 134.52 C 155.78 134.62 155.17 135.40 155.27 136.26 Z M 155.38 137.07 L 155.41 138.01 C 155.44 138.87 156.16 139.55 157.02 139.52 C 157.89 139.49 158.56 138.76 158.53 137.90 L 158.50 136.96 C 158.46 136.10 157.74 135.43 156.88 135.46 C 156.02 135.49 155.34 136.21 155.38 137.07 Z M 155.41 137.87 L 155.35 138.87 C 155.31 139.73 155.97 140.46 156.83 140.51 C 157.69 140.56 158.42 139.90 158.47 139.04 L 158.53 138.04 C 158.58 137.18 157.92 136.45 157.06 136.40 C 156.19 136.35 155.46 137.01 155.41 137.87 Z M 155.37 138.72 L 155.21 139.78 C 155.08 140.64 155.67 141.43 156.52 141.56 C 157.37 141.69 158.17 141.10 158.30 140.25 L 158.46 139.19 C 158.59 138.33 158.00 137.54 157.15 137.41 C 156.29 137.28 155.50 137.87 155.37 138.72 Z M 155.24 139.65 L 154.98 140.68 C 154.78 141.52 155.29 142.36 156.13 142.57 C 156.97 142.77 157.81 142.26 158.02 141.42 L 158.27 140.39 C 158.47 139.55 157.96 138.71 157.12 138.50 C 156.29 138.30 155.44 138.81 155.24 139.65 Z M 155.01 140.57 L 154.70 141.55 C 154.43 142.37 154.89 143.25 155.71 143.51 C 156.53 143.78 157.41 143.33 157.67 142.51 L 157.99 141.53 C 158.25 140.71 157.80 139.83 156.98 139.56 C 156.16 139.30 155.28 139.75 155.01 140.57 Z M 154.73 141.46 L 154.35 142.44 C 154.04 143.24 154.44 144.15 155.24 144.46 C 156.04 144.77 156.95 144.37 157.26 143.57 L 157.64 142.59 C 157.95 141.79 157.55 140.89 156.75 140.57 C 155.95 140.26 155.04 140.66 154.73 141.46 Z M 154.39 142.36 L 153.96 143.29 C 153.60 144.07 153.95 145.00 154.73 145.36 C 155.52 145.71 156.44 145.37 156.80 144.58 L 157.23 143.65 C 157.58 142.87 157.24 141.94 156.45 141.58 C 155.67 141.23 154.74 141.57 154.39 142.36 Z M 154.00 143.20 L 153.55 144.05 C 153.14 144.81 153.43 145.76 154.19 146.17 C 154.95 146.57 155.90 146.28 156.30 145.52 L 156.76 144.67 C 157.16 143.91 156.88 142.96 156.12 142.56 C 155.35 142.15 154.41 142.44 154.00 143.20 Z M 153.62 143.93 L 153.00 144.88 C 152.52 145.61 152.72 146.57 153.45 147.05 C 154.17 147.52 155.13 147.32 155.61 146.60 L 156.23 145.64 C 156.71 144.92 156.50 143.96 155.78 143.48 C 155.06 143.01 154.09 143.21 153.62 143.93 Z M 153.17 144.67 L 152.36 145.53 C 151.76 146.16 151.79 147.14 152.42 147.74 C 153.05 148.33 154.04 148.30 154.63 147.67 L 155.44 146.81 C 156.03 146.18 156.00 145.20 155.37 144.61 C 154.75 144.01 153.76 144.04 153.17 144.67 Z M 152.85 145.17 L 152.17 145.48 C 151.38 145.83 151.03 146.76 151.38 147.55 C 151.74 148.33 152.66 148.68 153.45 148.33 L 154.13 148.02 C 154.92 147.67 155.27 146.75 154.92 145.96 C 154.56 145.17 153.64 144.82 152.85 145.17 Z M 153.68 145.61 L 153.19 145.28 C 152.47 144.79 151.50 144.98 151.02 145.69 C 150.53 146.40 150.72 147.38 151.43 147.86 L 151.93 148.20 C 152.65 148.68 153.62 148.50 154.10 147.78 C 154.58 147.07 154.40 146.10 153.68 145.61 Z M 153.82 146.15 L 153.56 145.22 C 153.33 144.39 152.47 143.90 151.64 144.13 C 150.81 144.36 150.32 145.22 150.55 146.05 L 150.81 146.98 C 151.03 147.81 151.89 148.30 152.72 148.07 C 153.56 147.84 154.04 146.99 153.82 146.15 Z M 153.61 145.55 L 153.55 144.36 C 153.51 143.50 152.77 142.84 151.91 142.88 C 151.05 142.93 150.39 143.66 150.43 144.52 L 150.49 145.71 C 150.54 146.58 151.27 147.24 152.13 147.19 C 152.99 147.15 153.66 146.42 153.61 145.55 Z M 153.55 144.54 L 153.61 143.51 C 153.67 142.65 153.01 141.91 152.15 141.86 C 151.29 141.81 150.55 142.46 150.50 143.32 L 150.43 144.35 C 150.38 145.21 151.04 145.95 151.90 146.00 C 152.76 146.05 153.50 145.40 153.55 144.54 Z M 153.58 143.73 L 153.79 142.76 C 153.96 141.92 153.42 141.09 152.57 140.92 C 151.73 140.74 150.90 141.28 150.73 142.13 L 150.53 143.10 C 150.35 143.95 150.89 144.77 151.74 144.95 C 152.58 145.12 153.41 144.58 153.58 143.73 Z M 153.69 143.07 L 154.07 142.18 C 154.42 141.39 154.06 140.47 153.27 140.13 C 152.47 139.78 151.55 140.15 151.21 140.94 L 150.83 141.82 C 150.48 142.61 150.84 143.53 151.63 143.88 C 152.42 144.22 153.34 143.86 153.69 143.07 Z M 153.88 142.52 L 154.48 141.74 C 155.01 141.06 154.88 140.08 154.20 139.55 C 153.52 139.02 152.54 139.15 152.01 139.83 L 151.41 140.60 C 150.88 141.28 151.00 142.26 151.68 142.79 C 152.37 143.32 153.35 143.20 153.88 142.52 Z M 154.23 142.00 L 155.00 141.37 C 155.67 140.83 155.78 139.84 155.24 139.17 C 154.69 138.50 153.71 138.40 153.04 138.94 L 152.26 139.57 C 151.59 140.11 151.49 141.10 152.03 141.77 C 152.57 142.44 153.56 142.54 154.23 142.00 Z M 154.73 141.55 L 155.65 141.08 C 156.42 140.69 156.73 139.75 156.34 138.98 C 155.95 138.21 155.01 137.90 154.24 138.29 L 153.31 138.76 C 152.55 139.16 152.24 140.10 152.63 140.86 C 153.02 141.63 153.96 141.94 154.73 141.55 Z M 155.33 141.20 L 156.41 140.92 C 157.24 140.71 157.75 139.86 157.53 139.02 C 157.32 138.19 156.47 137.68 155.63 137.90 L 154.56 138.17 C 153.72 138.39 153.22 139.24 153.43 140.07 C 153.65 140.91 154.50 141.41 155.33 141.20 Z M 155.91 140.97 L 156.85 141.03 C 157.71 141.10 158.45 140.45 158.51 139.59 C 158.58 138.73 157.93 137.98 157.07 137.92 L 156.13 137.85 C 155.27 137.79 154.52 138.44 154.46 139.30 C 154.40 140.16 155.05 140.91 155.91 140.97 Z M 155.99 140.70 L 156.55 141.15 C 157.23 141.68 158.21 141.57 158.74 140.89 C 159.28 140.22 159.16 139.23 158.49 138.70 L 157.93 138.25 C 157.25 137.72 156.27 137.83 155.73 138.51 C 155.20 139.18 155.31 140.17 155.99 140.70 Z M 156.01 140.31 L 156.20 141.07 C 156.42 141.91 157.27 142.41 158.10 142.19 C 158.94 141.98 159.44 141.13 159.23 140.29 L 159.03 139.53 C 158.82 138.70 157.96 138.20 157.13 138.41 C 156.29 138.63 155.79 139.48 156.01 140.31 Z M 156.16 140.56 L 156.07 141.66 C 156.01 142.52 156.65 143.27 157.51 143.33 C 158.37 143.40 159.12 142.76 159.19 141.90 L 159.27 140.80 C 159.34 139.94 158.69 139.19 157.83 139.13 C 156.97 139.06 156.22 139.70 156.16 140.56 Z M 156.11 141.43 L 155.83 142.63 C 155.64 143.47 156.17 144.30 157.01 144.50 C 157.85 144.69 158.69 144.16 158.88 143.32 L 159.15 142.13 C 159.35 141.29 158.82 140.45 157.98 140.26 C 157.14 140.06 156.30 140.59 156.11 141.43 Z M 155.86 142.53 L 155.59 143.44 C 155.34 144.27 155.81 145.14 156.64 145.38 C 157.46 145.63 158.33 145.16 158.58 144.33 L 158.85 143.42 C 159.10 142.59 158.63 141.73 157.80 141.48 C 156.98 141.23 156.11 141.70 155.86 142.53 Z M 155.60 143.39 L 155.28 144.36 C 155.00 145.18 155.44 146.06 156.26 146.34 C 157.08 146.61 157.96 146.17 158.24 145.36 L 158.56 144.39 C 158.84 143.57 158.40 142.68 157.58 142.41 C 156.76 142.13 155.88 142.57 155.60 143.39 Z M 155.29 144.32 L 154.93 145.30 C 154.63 146.11 155.05 147.01 155.85 147.31 C 156.66 147.61 157.56 147.19 157.86 146.38 L 158.22 145.40 C 158.52 144.59 158.11 143.69 157.30 143.39 C 156.49 143.09 155.59 143.51 155.29 144.32 Z M 154.94 145.27 L 154.56 146.24 C 154.24 147.04 154.63 147.94 155.44 148.26 C 156.24 148.58 157.14 148.19 157.46 147.39 L 157.84 146.42 C 158.16 145.62 157.77 144.71 156.97 144.39 C 156.17 144.07 155.26 144.47 154.94 145.27 Z M 154.57 146.20 L 154.19 147.11 C 153.85 147.90 154.22 148.82 155.01 149.16 C 155.81 149.49 156.72 149.12 157.06 148.33 L 157.45 147.42 C 157.78 146.63 157.41 145.71 156.62 145.37 C 155.83 145.04 154.91 145.41 154.57 146.20 Z M 154.21 147.06 L 153.63 148.29 C 153.26 149.07 153.60 150.00 154.38 150.37 C 155.16 150.74 156.09 150.40 156.46 149.62 L 157.04 148.38 C 157.40 147.60 157.07 146.67 156.29 146.31 C 155.51 145.94 154.58 146.28 154.21 147.06 Z M 153.69 148.18 L 153.12 149.19 C 152.69 149.94 152.95 150.89 153.70 151.32 C 154.45 151.74 155.40 151.48 155.83 150.73 L 156.40 149.73 C 156.83 148.98 156.57 148.03 155.82 147.60 C 155.07 147.17 154.11 147.43 153.69 148.18 Z M 153.32 148.91 L 152.87 149.40 C 152.29 150.04 152.33 151.02 152.97 151.60 C 153.60 152.19 154.59 152.14 155.17 151.51 L 155.62 151.01 C 156.21 150.38 156.16 149.39 155.53 148.81 C 154.89 148.23 153.90 148.27 153.32 148.91 Z M 154.73 149.06 L 154.40 148.90 C 153.63 148.51 152.69 148.82 152.30 149.59 C 151.92 150.36 152.23 151.29 152.99 151.68 L 153.32 151.85 C 154.09 152.23 155.03 151.93 155.42 151.16 C 155.80 150.39 155.49 149.45 154.73 149.06 Z M 155.24 150.03 L 155.08 149.12 C 154.94 148.27 154.13 147.70 153.28 147.85 C 152.43 147.99 151.86 148.80 152.00 149.65 L 152.16 150.55 C 152.30 151.40 153.11 151.97 153.96 151.83 C 154.81 151.68 155.38 150.88 155.24 150.03 Z M 155.10 149.35 L 155.07 148.00 C 155.05 147.13 154.33 146.45 153.47 146.47 C 152.61 146.50 151.93 147.21 151.95 148.07 L 151.98 149.42 C 152.00 150.28 152.72 150.97 153.58 150.95 C 154.44 150.92 155.13 150.21 155.10 149.35 Z M 155.07 148.05 L 155.08 147.08 C 155.09 146.22 154.40 145.51 153.54 145.50 C 152.68 145.49 151.97 146.18 151.96 147.05 L 151.95 148.02 C 151.94 148.88 152.63 149.59 153.49 149.60 C 154.35 149.61 155.06 148.92 155.07 148.05 Z M 155.08 147.13 L 155.12 146.12 C 155.16 145.26 154.49 144.53 153.63 144.50 C 152.77 144.46 152.04 145.13 152.00 145.99 L 151.96 147.00 C 151.93 147.86 152.59 148.59 153.46 148.62 C 154.32 148.66 155.05 147.99 155.08 147.13 Z M 155.12 146.19 L 155.21 145.18 C 155.28 144.32 154.64 143.56 153.78 143.49 C 152.92 143.42 152.17 144.05 152.09 144.91 L 152.01 145.93 C 151.94 146.79 152.57 147.54 153.43 147.61 C 154.29 147.69 155.05 147.05 155.12 146.19 Z M 155.20 145.26 L 155.34 144.27 C 155.46 143.42 154.87 142.63 154.01 142.50 C 153.16 142.38 152.37 142.97 152.25 143.83 L 152.10 144.82 C 151.98 145.68 152.58 146.47 153.43 146.59 C 154.28 146.71 155.07 146.12 155.20 145.26 Z M 155.32 144.39 L 155.55 143.36 C 155.73 142.52 155.20 141.68 154.36 141.49 C 153.52 141.31 152.68 141.84 152.50 142.68 L 152.27 143.71 C 152.08 144.55 152.61 145.39 153.45 145.57 C 154.29 145.76 155.13 145.23 155.32 144.39 Z M 155.51 143.48 L 155.81 142.51 C 156.07 141.69 155.61 140.81 154.79 140.56 C 153.96 140.30 153.09 140.76 152.83 141.58 L 152.53 142.56 C 152.27 143.38 152.73 144.25 153.56 144.51 C 154.38 144.77 155.26 144.31 155.51 143.48 Z M 155.77 142.63 L 156.14 141.72 C 156.46 140.92 156.07 140.01 155.27 139.69 C 154.47 139.37 153.56 139.76 153.24 140.56 L 152.87 141.47 C 152.55 142.27 152.94 143.18 153.74 143.50 C 154.54 143.82 155.45 143.43 155.77 142.63 Z M 156.08 141.83 L 156.53 140.93 C 156.92 140.16 156.60 139.22 155.83 138.84 C 155.06 138.45 154.12 138.77 153.74 139.54 L 153.29 140.45 C 152.90 141.22 153.22 142.15 153.99 142.54 C 154.76 142.92 155.70 142.61 156.08 141.83 Z M 156.44 141.09 L 157.09 140.10 C 157.57 139.38 157.37 138.41 156.65 137.94 C 155.93 137.46 154.96 137.66 154.48 138.38 L 153.83 139.38 C 153.36 140.10 153.56 141.07 154.28 141.54 C 155.00 142.01 155.97 141.81 156.44 141.09 Z M 156.77 140.45 L 157.43 139.92 C 158.10 139.38 158.20 138.40 157.66 137.73 C 157.12 137.06 156.14 136.95 155.47 137.49 L 154.81 138.03 C 154.14 138.57 154.03 139.55 154.58 140.22 C 155.12 140.89 156.10 141.00 156.77 140.45 Z M 156.02 140.21 L 156.63 140.38 C 157.46 140.62 158.32 140.14 158.56 139.31 C 158.80 138.48 158.32 137.62 157.49 137.38 L 156.88 137.21 C 156.05 136.97 155.18 137.45 154.95 138.28 C 154.71 139.11 155.19 139.97 156.02 140.21 Z M 155.68 139.62 L 156.14 140.47 C 156.54 141.23 157.49 141.52 158.25 141.11 C 159.01 140.70 159.30 139.76 158.89 139.00 L 158.44 138.15 C 158.03 137.39 157.08 137.10 156.32 137.51 C 155.56 137.91 155.28 138.86 155.68 139.62 Z M 155.97 139.94 L 156.12 141.09 C 156.24 141.95 157.03 142.55 157.88 142.43 C 158.74 142.31 159.33 141.53 159.22 140.67 L 159.06 139.52 C 158.94 138.67 158.16 138.07 157.30 138.19 C 156.45 138.30 155.85 139.09 155.97 139.94 Z M 156.12 140.72 L 156.03 141.58 C 155.94 142.44 156.56 143.21 157.42 143.30 C 158.27 143.39 159.04 142.76 159.13 141.91 L 159.22 141.05 C 159.31 140.19 158.69 139.42 157.83 139.33 C 156.98 139.24 156.21 139.86 156.12 140.72 Z M 156.07 141.36 L 155.83 142.28 C 155.62 143.12 156.12 143.97 156.96 144.18 C 157.80 144.39 158.64 143.89 158.86 143.05 L 159.09 142.13 C 159.31 141.29 158.80 140.44 157.97 140.23 C 157.13 140.02 156.28 140.52 156.07 141.36 Z M 155.87 142.15 L 155.52 143.16 C 155.23 143.97 155.66 144.87 156.47 145.15 C 157.28 145.44 158.17 145.01 158.46 144.20 L 158.82 143.19 C 159.10 142.37 158.68 141.48 157.86 141.19 C 157.05 140.91 156.16 141.34 155.87 142.15 Z M 155.54 143.10 L 155.13 144.13 C 154.80 144.93 155.19 145.84 155.99 146.16 C 156.79 146.48 157.70 146.09 158.02 145.29 L 158.44 144.26 C 158.76 143.46 158.37 142.55 157.57 142.23 C 156.77 141.91 155.86 142.30 155.54 143.10 Z M 155.14 144.10 L 154.75 145.02 C 154.41 145.81 154.78 146.73 155.57 147.06 C 156.37 147.40 157.28 147.03 157.62 146.24 L 158.01 145.32 C 158.35 144.53 157.98 143.61 157.19 143.27 C 156.39 142.94 155.48 143.31 155.14 144.10 Z M 154.76 144.99 L 154.34 145.93 C 153.98 146.72 154.33 147.64 155.12 147.99 C 155.91 148.35 156.83 148.00 157.18 147.21 L 157.61 146.27 C 157.96 145.48 157.61 144.56 156.82 144.20 C 156.04 143.85 155.11 144.20 154.76 144.99 Z M 154.35 145.90 L 153.91 146.83 C 153.53 147.60 153.86 148.54 154.64 148.91 C 155.42 149.28 156.35 148.95 156.72 148.18 L 157.17 147.25 C 157.54 146.47 157.21 145.54 156.43 145.16 C 155.66 144.79 154.72 145.12 154.35 145.90 Z M 153.93 146.78 L 153.47 147.66 C 153.07 148.43 153.37 149.37 154.13 149.77 C 154.90 150.17 155.84 149.87 156.24 149.10 L 156.70 148.22 C 157.10 147.46 156.80 146.51 156.03 146.12 C 155.27 145.72 154.33 146.02 153.93 146.78 Z M 153.51 147.59 L 152.94 148.56 C 152.51 149.30 152.76 150.26 153.50 150.69 C 154.24 151.13 155.20 150.88 155.64 150.14 L 156.20 149.18 C 156.64 148.43 156.39 147.48 155.65 147.04 C 154.90 146.60 153.94 146.85 153.51 147.59 Z M 153.04 148.41 L 152.28 149.42 C 151.77 150.11 151.91 151.09 152.60 151.61 C 153.29 152.12 154.27 151.98 154.79 151.29 L 155.54 150.28 C 156.06 149.59 155.92 148.61 155.22 148.10 C 154.53 147.58 153.56 147.72 153.04 148.41 Z M 152.64 149.08 L 152.00 149.53 C 151.29 150.03 151.12 151.00 151.62 151.71 C 152.11 152.41 153.09 152.58 153.79 152.08 L 154.43 151.63 C 155.14 151.14 155.31 150.16 154.81 149.46 C 154.32 148.75 153.34 148.58 152.64 149.08 Z M 153.66 149.45 L 153.23 149.20 C 152.48 148.78 151.52 149.04 151.10 149.79 C 150.67 150.54 150.94 151.49 151.69 151.92 L 152.12 152.16 C 152.87 152.59 153.83 152.33 154.25 151.58 C 154.68 150.83 154.41 149.87 153.66 149.45 Z M 153.95 150.12 L 153.72 149.32 C 153.47 148.49 152.61 148.01 151.78 148.26 C 150.95 148.50 150.48 149.37 150.72 150.20 L 150.96 151.00 C 151.20 151.83 152.07 152.30 152.90 152.06 C 153.72 151.81 154.20 150.95 153.95 150.12 Z M 153.77 149.60 L 153.66 148.48 C 153.57 147.62 152.81 146.99 151.95 147.08 C 151.09 147.17 150.47 147.94 150.55 148.79 L 150.67 149.91 C 150.75 150.77 151.52 151.40 152.38 151.31 C 153.24 151.22 153.86 150.46 153.77 149.60 Z M 153.67 148.59 L 153.63 147.40 C 153.60 146.54 152.88 145.86 152.02 145.89 C 151.16 145.92 150.48 146.64 150.51 147.50 L 150.55 148.68 C 150.57 149.55 151.29 150.22 152.15 150.20 C 153.02 150.17 153.69 149.45 153.67 148.59 Z M 153.63 147.46 L 153.64 146.43 C 153.64 145.57 152.95 144.86 152.09 144.86 C 151.22 144.85 150.52 145.55 150.52 146.41 L 150.51 147.44 C 150.50 148.30 151.20 149.00 152.06 149.01 C 152.92 149.02 153.62 148.32 153.63 147.46 Z M 153.64 146.50 L 153.69 145.53 C 153.74 144.67 153.08 143.94 152.21 143.89 C 151.35 143.84 150.62 144.50 150.57 145.36 L 150.52 146.33 C 150.47 147.19 151.13 147.93 151.99 147.98 C 152.85 148.02 153.59 147.36 153.64 146.50 Z M 153.68 145.62 L 153.79 144.65 C 153.89 143.80 153.27 143.02 152.42 142.92 C 151.56 142.83 150.79 143.44 150.69 144.30 L 150.58 145.27 C 150.48 146.13 151.10 146.90 151.95 147.00 C 152.81 147.10 153.58 146.48 153.68 145.62 Z M 153.78 144.74 L 153.95 143.78 C 154.09 142.93 153.52 142.12 152.68 141.97 C 151.83 141.83 151.02 142.39 150.87 143.24 L 150.70 144.21 C 150.55 145.06 151.12 145.87 151.97 146.01 C 152.82 146.16 153.63 145.59 153.78 144.74 Z M 153.93 143.88 L 154.16 142.91 C 154.36 142.07 153.84 141.23 153.01 141.03 C 152.17 140.82 151.32 141.34 151.12 142.18 L 150.89 143.15 C 150.69 143.98 151.20 144.83 152.04 145.03 C 152.88 145.23 153.72 144.71 153.93 143.88 Z M 154.12 143.04 L 154.44 142.07 C 154.71 141.25 154.27 140.37 153.45 140.10 C 152.64 139.83 151.75 140.27 151.48 141.09 L 151.16 142.05 C 150.89 142.87 151.33 143.75 152.15 144.03 C 152.97 144.30 153.85 143.86 154.12 143.04 Z M 154.38 142.24 L 154.80 141.32 C 155.17 140.54 154.83 139.61 154.05 139.24 C 153.27 138.88 152.34 139.22 151.97 140.00 L 151.55 140.92 C 151.18 141.70 151.52 142.63 152.30 142.99 C 153.08 143.36 154.01 143.02 154.38 142.24 Z M 154.68 141.54 L 155.32 140.60 C 155.80 139.89 155.62 138.92 154.91 138.43 C 154.19 137.95 153.22 138.13 152.74 138.84 L 152.10 139.78 C 151.61 140.49 151.80 141.47 152.51 141.95 C 153.22 142.44 154.19 142.25 154.68 141.54 Z M 155.11 140.85 L 155.89 140.10 C 156.52 139.50 156.54 138.51 155.94 137.89 C 155.35 137.27 154.36 137.25 153.73 137.84 L 152.95 138.59 C 152.33 139.19 152.30 140.18 152.90 140.80 C 153.50 141.42 154.48 141.45 155.11 140.85 Z M 155.49 140.38 L 156.28 139.99 C 157.06 139.62 157.39 138.69 157.01 137.91 C 156.64 137.13 155.70 136.81 154.93 137.18 L 154.13 137.56 C 153.36 137.94 153.03 138.87 153.41 139.65 C 153.78 140.43 154.71 140.75 155.49 140.38 Z M 155.35 140.13 L 156.07 140.25 C 156.92 140.39 157.73 139.82 157.87 138.97 C 158.02 138.12 157.44 137.31 156.59 137.17 L 155.86 137.05 C 155.01 136.91 154.21 137.48 154.07 138.33 C 153.92 139.18 154.50 139.98 155.35 140.13 Z M 155.16 139.75 L 155.75 140.41 C 156.33 141.06 157.31 141.12 157.96 140.55 C 158.60 139.98 158.66 138.99 158.09 138.34 L 157.50 137.68 C 156.93 137.03 155.94 136.97 155.30 137.54 C 154.65 138.11 154.59 139.10 155.16 139.75 Z M 155.49 139.99 L 155.91 141.00 C 156.25 141.80 157.17 142.17 157.96 141.83 C 158.75 141.50 159.13 140.58 158.79 139.79 L 158.36 138.77 C 158.03 137.98 157.11 137.60 156.32 137.94 C 155.52 138.28 155.15 139.19 155.49 139.99 Z M 155.84 140.77 L 156.10 141.83 C 156.31 142.66 157.16 143.17 157.99 142.96 C 158.83 142.75 159.34 141.91 159.13 141.07 L 158.87 140.02 C 158.66 139.18 157.81 138.67 156.98 138.88 C 156.14 139.09 155.63 139.94 155.84 140.77 Z M 156.07 141.66 L 156.21 142.67 C 156.33 143.52 157.12 144.12 157.97 144.00 C 158.82 143.88 159.42 143.09 159.30 142.24 L 159.16 141.23 C 159.04 140.38 158.25 139.78 157.40 139.90 C 156.55 140.02 155.95 140.81 156.07 141.66 Z M 156.19 142.51 L 156.23 143.51 C 156.27 144.37 157.00 145.04 157.86 145.01 C 158.72 144.97 159.39 144.25 159.35 143.39 L 159.31 142.39 C 159.28 141.53 158.55 140.86 157.69 140.89 C 156.83 140.92 156.16 141.65 156.19 142.51 Z M 156.24 143.36 L 156.18 144.34 C 156.12 145.20 156.78 145.94 157.64 145.99 C 158.50 146.04 159.24 145.39 159.29 144.53 L 159.35 143.54 C 159.41 142.68 158.75 141.94 157.89 141.89 C 157.03 141.84 156.29 142.49 156.24 143.36 Z M 156.20 144.17 L 156.03 145.16 C 155.88 146.01 156.45 146.82 157.30 146.96 C 158.15 147.11 158.96 146.54 159.10 145.69 L 159.27 144.70 C 159.42 143.85 158.85 143.04 158.00 142.89 C 157.15 142.75 156.34 143.32 156.20 144.17 Z M 156.07 144.98 L 155.79 145.94 C 155.54 146.76 156.02 147.63 156.84 147.87 C 157.67 148.12 158.54 147.64 158.78 146.82 L 159.06 145.86 C 159.31 145.04 158.83 144.17 158.00 143.93 C 157.18 143.68 156.31 144.16 156.07 144.98 Z M 155.84 145.77 L 155.46 146.69 C 155.13 147.49 155.50 148.40 156.30 148.73 C 157.09 149.07 158.01 148.69 158.34 147.90 L 158.73 146.98 C 159.06 146.18 158.68 145.27 157.89 144.93 C 157.09 144.60 156.18 144.98 155.84 145.77 Z M 155.54 146.53 L 155.00 147.49 C 154.58 148.24 154.85 149.19 155.60 149.61 C 156.36 150.03 157.31 149.76 157.73 149.01 L 158.26 148.06 C 158.68 147.30 158.42 146.35 157.66 145.93 C 156.91 145.51 155.96 145.78 155.54 146.53 Z M 155.16 147.26 L 154.51 148.04 C 153.96 148.71 154.06 149.69 154.73 150.24 C 155.39 150.79 156.37 150.69 156.92 150.03 L 157.57 149.24 C 158.12 148.57 158.02 147.59 157.36 147.04 C 156.69 146.49 155.71 146.59 155.16 147.26 Z M 154.92 147.70 L 154.17 148.14 C 153.43 148.59 153.19 149.54 153.63 150.28 C 154.08 151.02 155.04 151.26 155.78 150.82 L 156.52 150.37 C 157.26 149.93 157.50 148.97 157.06 148.23 C 156.61 147.49 155.66 147.25 154.92 147.70 Z M 155.07 147.92 L 154.17 147.87 C 153.31 147.82 152.57 148.48 152.52 149.34 C 152.47 150.20 153.13 150.94 153.99 150.99 L 154.88 151.04 C 155.74 151.09 156.48 150.43 156.53 149.57 C 156.58 148.71 155.93 147.97 155.07 147.92 Z M 154.97 148.15 L 154.16 147.58 C 153.45 147.09 152.47 147.26 151.98 147.97 C 151.49 148.68 151.66 149.65 152.37 150.14 L 153.19 150.71 C 153.90 151.20 154.87 151.03 155.36 150.32 C 155.86 149.61 155.68 148.64 154.97 148.15 Z M 154.60 148.06 L 154.07 147.17 C 153.63 146.43 152.67 146.19 151.93 146.64 C 151.19 147.08 150.95 148.04 151.39 148.78 L 151.92 149.66 C 152.37 150.40 153.33 150.64 154.07 150.20 C 154.81 149.75 155.05 148.80 154.60 148.06 Z M 154.25 147.60 L 154.02 146.68 C 153.82 145.84 152.97 145.33 152.14 145.53 C 151.30 145.74 150.79 146.58 150.99 147.42 L 151.22 148.34 C 151.42 149.18 152.27 149.70 153.10 149.49 C 153.94 149.29 154.45 148.44 154.25 147.60 Z M 154.06 146.92 L 153.97 145.89 C 153.90 145.04 153.15 144.40 152.29 144.47 C 151.43 144.55 150.79 145.30 150.86 146.16 L 150.95 147.18 C 151.02 148.04 151.78 148.68 152.64 148.60 C 153.50 148.53 154.14 147.77 154.06 146.92 Z M 153.98 146.01 L 153.97 144.96 C 153.95 144.10 153.25 143.41 152.38 143.42 C 151.52 143.44 150.83 144.15 150.84 145.01 L 150.86 146.05 C 150.87 146.91 151.58 147.60 152.44 147.59 C 153.30 147.58 153.99 146.87 153.98 146.01 Z M 153.97 144.99 L 153.97 143.99 C 153.98 143.12 153.28 142.42 152.42 142.42 C 151.56 142.41 150.85 143.11 150.85 143.97 L 150.84 144.98 C 150.84 145.84 151.54 146.54 152.40 146.55 C 153.26 146.55 153.96 145.86 153.97 144.99 Z M 153.97 144.04 L 154.01 143.06 C 154.05 142.20 153.38 141.47 152.52 141.44 C 151.65 141.40 150.93 142.07 150.89 142.93 L 150.85 143.91 C 150.81 144.77 151.48 145.50 152.34 145.54 C 153.21 145.57 153.93 144.90 153.97 144.04 Z M 154.00 143.18 L 154.12 142.19 C 154.22 141.34 153.61 140.56 152.75 140.46 C 151.89 140.36 151.12 140.97 151.02 141.83 L 150.90 142.81 C 150.80 143.67 151.41 144.45 152.27 144.55 C 153.12 144.65 153.90 144.04 154.00 143.18 Z M 154.09 142.35 L 154.32 141.34 C 154.51 140.50 153.98 139.67 153.14 139.48 C 152.29 139.29 151.46 139.82 151.27 140.66 L 151.04 141.67 C 150.86 142.51 151.38 143.34 152.23 143.53 C 153.07 143.72 153.90 143.19 154.09 142.35 Z M 154.27 141.52 L 154.62 140.52 C 154.90 139.71 154.47 138.82 153.66 138.53 C 152.85 138.25 151.95 138.68 151.67 139.49 L 151.32 140.48 C 151.04 141.30 151.46 142.19 152.28 142.47 C 153.09 142.76 153.98 142.33 154.27 141.52 Z M 154.52 140.74 L 154.99 139.84 C 155.40 139.08 155.11 138.14 154.34 137.73 C 153.58 137.33 152.64 137.62 152.23 138.38 L 151.76 139.28 C 151.36 140.04 151.65 140.98 152.41 141.39 C 153.17 141.79 154.12 141.50 154.52 140.74 Z M 154.80 140.14 L 155.39 139.45 C 155.95 138.79 155.88 137.81 155.23 137.24 C 154.58 136.68 153.59 136.75 153.03 137.41 L 152.43 138.09 C 151.87 138.75 151.94 139.73 152.59 140.30 C 153.25 140.86 154.23 140.79 154.80 140.14 Z M 154.92 139.82 L 155.81 139.37 C 156.58 138.97 156.88 138.04 156.49 137.27 C 156.10 136.50 155.16 136.19 154.39 136.58 L 153.50 137.03 C 152.73 137.42 152.43 138.36 152.82 139.13 C 153.21 139.90 154.15 140.21 154.92 139.82 Z M 155.12 139.53 L 156.09 139.52 C 156.95 139.51 157.64 138.80 157.63 137.94 C 157.62 137.08 156.91 136.39 156.05 136.40 L 155.08 136.41 C 154.22 136.42 153.53 137.13 153.54 137.99 C 153.55 138.86 154.26 139.55 155.12 139.53 Z M 155.48 139.40 L 156.39 139.78 C 157.19 140.11 158.10 139.73 158.43 138.93 C 158.76 138.14 158.38 137.22 157.58 136.89 L 156.66 136.52 C 155.87 136.19 154.96 136.57 154.63 137.37 C 154.30 138.16 154.68 139.08 155.48 139.40 Z M 155.97 139.52 L 156.69 140.14 C 157.34 140.71 158.33 140.63 158.89 139.98 C 159.45 139.32 159.38 138.34 158.73 137.78 L 158.00 137.15 C 157.35 136.59 156.36 136.67 155.80 137.32 C 155.24 137.97 155.31 138.96 155.97 139.52 Z M 156.46 139.90 L 157.08 140.71 C 157.60 141.40 158.58 141.53 159.26 141.01 C 159.95 140.49 160.09 139.51 159.57 138.82 L 158.95 138.02 C 158.43 137.33 157.45 137.19 156.77 137.72 C 156.08 138.24 155.94 139.22 156.46 139.90 Z M 156.95 140.52 L 157.45 141.43 C 157.86 142.18 158.81 142.46 159.57 142.05 C 160.32 141.63 160.60 140.69 160.19 139.93 L 159.69 139.02 C 159.28 138.26 158.33 137.98 157.57 138.40 C 156.82 138.81 156.54 139.76 156.95 140.52 Z M 157.37 141.26 L 157.75 142.20 C 158.08 143.00 158.99 143.39 159.78 143.06 C 160.58 142.74 160.97 141.83 160.65 141.03 L 160.27 140.09 C 159.94 139.29 159.03 138.91 158.23 139.23 C 157.43 139.55 157.05 140.46 157.37 141.26 Z M 157.70 142.06 L 157.99 143.02 C 158.23 143.84 159.10 144.31 159.93 144.07 C 160.76 143.82 161.23 142.95 160.98 142.12 L 160.69 141.17 C 160.45 140.34 159.58 139.87 158.75 140.12 C 157.93 140.37 157.46 141.24 157.70 142.06 Z M 157.96 142.91 L 158.18 143.88 C 158.36 144.72 159.20 145.25 160.04 145.06 C 160.88 144.87 161.41 144.04 161.22 143.20 L 161.01 142.23 C 160.82 141.39 159.98 140.86 159.14 141.05 C 158.30 141.24 157.77 142.07 157.96 142.91 Z M 158.16 143.81 L 158.33 144.75 C 158.48 145.60 159.29 146.17 160.14 146.02 C 160.99 145.87 161.55 145.06 161.40 144.21 L 161.24 143.27 C 161.09 142.42 160.28 141.85 159.43 142.00 C 158.58 142.15 158.01 142.96 158.16 143.81 Z M 158.32 144.69 L 158.45 145.65 C 158.57 146.50 159.35 147.10 160.21 146.98 C 161.06 146.87 161.66 146.08 161.54 145.23 L 161.41 144.27 C 161.30 143.41 160.51 142.81 159.66 142.93 C 158.80 143.05 158.20 143.83 158.32 144.69 Z M 158.44 145.59 L 158.54 146.60 C 158.62 147.46 159.38 148.09 160.24 148.01 C 161.10 147.93 161.73 147.17 161.65 146.31 L 161.55 145.29 C 161.47 144.43 160.71 143.80 159.85 143.88 C 158.99 143.97 158.36 144.73 158.44 145.59 Z M 158.54 146.55 L 158.59 147.57 C 158.64 148.43 159.38 149.09 160.24 149.04 C 161.10 148.99 161.76 148.25 161.71 147.39 L 161.65 146.37 C 161.60 145.51 160.86 144.85 160.00 144.90 C 159.14 144.95 158.49 145.69 158.54 146.55 Z M 158.59 147.52 L 158.62 148.49 C 158.64 149.35 159.35 150.03 160.22 150.01 C 161.08 149.99 161.76 149.28 161.74 148.41 L 161.71 147.44 C 161.69 146.58 160.98 145.90 160.11 145.92 C 159.25 145.94 158.57 146.66 158.59 147.52 Z M 158.62 148.44 L 158.61 149.45 C 158.60 150.31 159.29 151.01 160.15 151.02 C 161.01 151.03 161.72 150.34 161.73 149.48 L 161.74 148.47 C 161.75 147.61 161.06 146.90 160.19 146.89 C 159.33 146.88 158.63 147.57 158.62 148.44 Z M 158.61 149.38 L 158.56 150.41 C 158.51 151.27 159.18 152.00 160.04 152.05 C 160.90 152.09 161.63 151.43 161.67 150.57 L 161.73 149.54 C 161.77 148.68 161.11 147.95 160.25 147.90 C 159.38 147.86 158.65 148.52 158.61 149.38 Z M 158.56 150.33 L 158.46 151.34 C 158.38 152.20 159.01 152.96 159.86 153.04 C 160.72 153.13 161.49 152.50 161.57 151.64 L 161.67 150.64 C 161.75 149.78 161.13 149.02 160.27 148.93 C 159.41 148.85 158.65 149.48 158.56 150.33 Z M 158.47 151.26 L 158.33 152.21 C 158.20 153.07 158.79 153.86 159.64 153.99 C 160.50 154.12 161.29 153.53 161.42 152.67 L 161.56 151.72 C 161.69 150.87 161.10 150.07 160.25 149.95 C 159.40 149.82 158.60 150.41 158.47 151.26 Z M 158.34 152.15 L 158.16 153.11 C 157.99 153.95 158.55 154.77 159.39 154.93 C 160.24 155.10 161.06 154.55 161.22 153.70 L 161.41 152.74 C 161.57 151.89 161.02 151.07 160.17 150.91 C 159.32 150.75 158.51 151.30 158.34 152.15 Z M 158.17 153.06 L 157.94 154.04 C 157.75 154.88 158.28 155.72 159.12 155.91 C 159.96 156.10 160.80 155.57 160.99 154.73 L 161.21 153.75 C 161.40 152.91 160.88 152.07 160.04 151.88 C 159.19 151.69 158.36 152.21 158.17 153.06 Z M 157.95 154.00 L 157.69 155.03 C 157.48 155.87 157.99 156.72 158.83 156.93 C 159.66 157.14 160.51 156.63 160.72 155.79 L 160.98 154.77 C 161.19 153.93 160.68 153.08 159.84 152.87 C 159.01 152.66 158.16 153.17 157.95 154.00 Z M 157.70 155.01 L 157.44 156.00 C 157.22 156.83 157.72 157.68 158.55 157.90 C 159.38 158.12 160.24 157.63 160.46 156.79 L 160.72 155.81 C 160.94 154.98 160.44 154.12 159.60 153.90 C 158.77 153.68 157.92 154.18 157.70 155.01 Z M 157.44 155.98 L 157.17 156.99 C 156.94 157.82 157.44 158.68 158.27 158.90 C 159.10 159.13 159.96 158.64 160.18 157.80 L 160.45 156.80 C 160.68 155.97 160.19 155.11 159.36 154.89 C 158.52 154.66 157.67 155.15 157.44 155.98 Z M 157.17 156.98 L 156.90 157.97 C 156.67 158.80 157.16 159.66 157.99 159.89 C 158.82 160.12 159.68 159.63 159.91 158.80 L 160.18 157.81 C 160.41 156.98 159.92 156.12 159.09 155.89 C 158.26 155.66 157.40 156.15 157.17 156.98 Z M 156.90 157.97 L 156.63 158.92 C 156.40 159.75 156.89 160.61 157.72 160.84 C 158.55 161.07 159.41 160.58 159.64 159.75 L 159.91 158.80 C 160.14 157.97 159.65 157.11 158.82 156.88 C 157.99 156.65 157.13 157.14 156.90 157.97 Z M 156.63 158.91 L 156.37 159.86 C 156.14 160.69 156.62 161.55 157.45 161.78 C 158.29 162.01 159.15 161.53 159.38 160.70 L 159.64 159.75 C 159.87 158.92 159.39 158.06 158.56 157.83 C 157.73 157.60 156.87 158.08 156.63 158.91 Z M 156.37 159.86 L 156.08 160.91 C 155.85 161.74 156.33 162.60 157.16 162.83 C 158.00 163.06 158.86 162.58 159.09 161.74 L 159.38 160.69 C 159.61 159.86 159.12 159.00 158.29 158.77 C 157.46 158.54 156.60 159.03 156.37 159.86 Z M 156.08 160.91 L 155.82 161.85 C 155.59 162.68 156.07 163.54 156.91 163.77 C 157.74 164.00 158.60 163.51 158.83 162.68 L 159.09 161.74 C 159.32 160.91 158.83 160.05 158.00 159.82 C 157.17 159.59 156.31 160.08 156.08 160.91 Z M 155.82 161.85 L 155.57 162.73 C 155.34 163.56 155.83 164.42 156.66 164.65 C 157.49 164.88 158.35 164.40 158.58 163.57 L 158.83 162.68 C 159.06 161.85 158.57 160.99 157.74 160.76 C 156.91 160.53 156.05 161.02 155.82 161.85 Z M 155.57 162.73 L 155.31 163.65 C 155.08 164.48 155.56 165.35 156.39 165.58 C 157.22 165.81 158.09 165.33 158.32 164.50 L 158.58 163.57 C 158.81 162.74 158.33 161.88 157.50 161.65 C 156.67 161.41 155.81 161.90 155.57 162.73 Z M 155.31 163.65 L 155.04 164.61 C 154.80 165.44 155.28 166.30 156.11 166.54 C 156.94 166.77 157.81 166.29 158.04 165.46 L 158.32 164.50 C 158.55 163.68 158.07 162.81 157.24 162.57 C 156.41 162.34 155.55 162.82 155.31 163.65 Z M 155.04 164.60 L 154.76 165.57 C 154.52 166.40 155.00 167.27 155.83 167.51 C 156.66 167.74 157.52 167.27 157.76 166.44 L 158.04 165.47 C 158.28 164.64 157.80 163.78 156.98 163.54 C 156.15 163.30 155.28 163.77 155.04 164.60 Z M 154.76 165.57 L 154.48 166.53 C 154.24 167.36 154.71 168.22 155.54 168.47 C 156.37 168.71 157.24 168.24 157.48 167.41 L 157.76 166.44 C 158.00 165.62 157.53 164.75 156.70 164.51 C 155.87 164.27 155.01 164.74 154.76 165.57 Z M 154.48 166.53 L 154.20 167.48 C 153.96 168.31 154.43 169.18 155.26 169.42 C 156.08 169.67 156.95 169.19 157.19 168.37 L 157.48 167.41 C 157.72 166.58 157.25 165.72 156.42 165.47 C 155.60 165.23 154.73 165.70 154.48 166.53 Z M 154.20 167.48 L 153.92 168.44 C 153.67 169.27 154.15 170.14 154.97 170.38 C 155.80 170.62 156.67 170.15 156.91 169.32 L 157.20 168.36 C 157.44 167.54 156.97 166.67 156.14 166.43 C 155.31 166.18 154.44 166.66 154.20 167.48 Z M 153.92 168.45 L 153.64 169.41 C 153.40 170.24 153.87 171.11 154.70 171.35 C 155.53 171.59 156.40 171.11 156.64 170.28 L 156.91 169.32 C 157.15 168.49 156.68 167.62 155.85 167.38 C 155.02 167.14 154.16 167.62 153.92 168.45 Z M 153.63 169.42 L 153.36 170.37 C 153.13 171.20 153.61 172.06 154.44 172.30 C 155.27 172.53 156.13 172.05 156.37 171.22 L 156.64 170.27 C 156.87 169.44 156.39 168.58 155.56 168.35 C 154.73 168.11 153.87 168.59 153.63 169.42 Z M 153.36 170.37 L 153.09 171.33 C 152.86 172.16 153.34 173.02 154.17 173.26 C 155.00 173.49 155.86 173.01 156.10 172.18 L 156.37 171.22 C 156.60 170.39 156.12 169.53 155.29 169.29 C 154.46 169.06 153.60 169.54 153.36 170.37 Z M 153.09 171.33 L 152.82 172.30 C 152.58 173.13 153.06 173.99 153.89 174.23 C 154.72 174.47 155.58 173.99 155.82 173.16 L 156.10 172.18 C 156.33 171.36 155.85 170.49 155.02 170.26 C 154.19 170.02 153.33 170.50 153.09 171.33 Z M 152.82 172.29 L 152.54 173.25 C 152.30 174.08 152.77 174.94 153.60 175.19 C 154.43 175.43 155.29 174.95 155.54 174.13 L 155.82 173.17 C 156.06 172.34 155.58 171.47 154.76 171.23 C 153.93 170.99 153.06 171.46 152.82 172.29 Z M 152.54 173.24 L 152.26 174.20 C 152.01 175.02 152.48 175.89 153.30 176.14 C 154.13 176.39 155.00 175.92 155.25 175.09 L 155.53 174.14 C 155.78 173.31 155.31 172.44 154.48 172.19 C 153.66 171.95 152.79 172.41 152.54 173.24 Z M 152.26 174.19 L 151.97 175.15 C 151.72 175.98 152.18 176.85 153.01 177.10 C 153.83 177.35 154.70 176.88 154.95 176.06 L 155.25 175.10 C 155.50 174.27 155.03 173.40 154.20 173.15 C 153.38 172.90 152.51 173.37 152.26 174.19 Z M 151.97 175.15 L 151.67 176.11 C 151.42 176.94 151.88 177.81 152.71 178.06 C 153.53 178.31 154.41 177.85 154.66 177.03 L 154.95 176.06 C 155.20 175.24 154.74 174.36 153.92 174.11 C 153.09 173.86 152.22 174.32 151.97 175.15 Z M 151.67 176.11 L 151.38 177.07 C 151.12 177.90 151.58 178.77 152.41 179.03 C 153.23 179.28 154.11 178.82 154.36 177.99 L 154.66 177.03 C 154.91 176.20 154.45 175.33 153.62 175.08 C 152.80 174.82 151.93 175.29 151.67 176.11 Z M 151.38 177.07 L 151.08 178.02 C 150.82 178.84 151.28 179.72 152.10 179.98 C 152.92 180.24 153.80 179.78 154.06 178.96 L 154.36 178.00 C 154.62 177.18 154.16 176.30 153.34 176.04 C 152.51 175.79 151.64 176.24 151.38 177.07 Z M 151.08 178.01 L 150.77 178.95 C 150.51 179.77 150.96 180.65 151.78 180.92 C 152.60 181.19 153.48 180.74 153.74 179.92 L 154.05 178.97 C 154.32 178.15 153.87 177.27 153.05 177.01 C 152.23 176.74 151.35 177.19 151.08 178.01 Z M 150.78 178.93 L 150.46 179.88 C 150.18 180.70 150.61 181.58 151.43 181.86 C 152.24 182.14 153.13 181.71 153.41 180.89 L 153.74 179.94 C 154.02 179.13 153.58 178.24 152.77 177.96 C 151.95 177.68 151.06 178.11 150.78 178.93 Z M 150.46 179.86 L 150.12 180.81 C 149.83 181.62 150.25 182.51 151.06 182.81 C 151.87 183.10 152.76 182.68 153.06 181.87 L 153.40 180.92 C 153.69 180.11 153.27 179.21 152.46 178.92 C 151.65 178.63 150.76 179.05 150.46 179.86 Z M 150.13 180.79 L 149.78 181.72 C 149.47 182.52 149.88 183.42 150.68 183.73 C 151.49 184.03 152.39 183.63 152.70 182.82 L 153.05 181.89 C 153.35 181.09 152.95 180.19 152.14 179.88 C 151.33 179.57 150.43 179.98 150.13 180.79 Z M 149.78 181.70 L 149.43 182.60 C 149.12 183.40 149.51 184.31 150.31 184.62 C 151.12 184.94 152.02 184.54 152.34 183.74 L 152.69 182.84 C 153.00 182.04 152.61 181.13 151.81 180.82 C 151.00 180.50 150.10 180.90 149.78 181.70 Z M 149.44 182.58 L 149.08 183.44 C 148.76 184.24 149.14 185.15 149.94 185.48 C 150.74 185.81 151.65 185.42 151.97 184.63 L 152.33 183.76 C 152.65 182.96 152.27 182.05 151.47 181.72 C 150.68 181.40 149.77 181.78 149.44 182.58 Z M 149.10 183.40 L 148.71 184.28 C 148.35 185.07 148.71 185.99 149.49 186.34 C 150.28 186.70 151.20 186.35 151.56 185.56 L 151.95 184.67 C 152.31 183.89 151.95 182.96 151.17 182.61 C 150.38 182.26 149.46 182.61 149.10 183.40 Z M 148.74 184.22 L 148.26 185.16 C 147.87 185.93 148.18 186.87 148.95 187.26 C 149.72 187.65 150.66 187.34 151.05 186.57 L 151.53 185.62 C 151.91 184.85 151.60 183.91 150.83 183.53 C 150.06 183.14 149.13 183.45 148.74 184.22 Z M 148.29 185.10 L 147.82 185.95 C 147.39 186.70 147.66 187.66 148.41 188.08 C 149.16 188.50 150.12 188.23 150.54 187.48 L 151.02 186.63 C 151.44 185.88 151.17 184.93 150.42 184.51 C 149.67 184.08 148.72 184.35 148.29 185.10 Z M 147.85 185.90 L 147.35 186.72 C 146.90 187.45 147.13 188.41 147.86 188.86 C 148.60 189.31 149.56 189.08 150.01 188.35 L 150.51 187.53 C 150.96 186.80 150.73 185.84 149.99 185.39 C 149.26 184.94 148.30 185.17 147.85 185.90 Z M 147.38 186.67 L 146.82 187.51 C 146.34 188.23 146.54 189.20 147.26 189.68 C 147.97 190.15 148.94 189.96 149.42 189.24 L 149.98 188.40 C 150.45 187.68 150.26 186.71 149.54 186.23 C 148.82 185.76 147.85 185.95 147.38 186.67 Z M 146.85 187.46 L 146.24 188.31 C 145.74 189.01 145.90 189.99 146.60 190.49 C 147.30 190.99 148.27 190.83 148.78 190.13 L 149.39 189.29 C 149.89 188.59 149.73 187.61 149.03 187.11 C 148.33 186.60 147.35 186.76 146.85 187.46 Z M 146.28 188.26 L 145.63 189.09 C 145.10 189.77 145.21 190.75 145.89 191.28 C 146.57 191.81 147.55 191.70 148.08 191.02 L 148.74 190.19 C 149.27 189.51 149.15 188.53 148.47 187.99 C 147.79 187.46 146.81 187.58 146.28 188.26 Z M 145.67 189.03 L 145.01 189.80 C 144.45 190.45 144.52 191.44 145.17 192.00 C 145.83 192.57 146.81 192.49 147.38 191.84 L 148.04 191.07 C 148.60 190.42 148.53 189.44 147.88 188.87 C 147.22 188.31 146.24 188.38 145.67 189.03 Z M 145.06 189.75 L 144.37 190.48 C 143.77 191.10 143.80 192.09 144.43 192.68 C 145.05 193.28 146.04 193.25 146.63 192.63 L 147.33 191.90 C 147.92 191.27 147.89 190.28 147.27 189.69 C 146.64 189.09 145.65 189.12 145.06 189.75 Z M 144.42 190.43 L 143.70 191.12 C 143.08 191.72 143.06 192.70 143.65 193.33 C 144.25 193.95 145.24 193.97 145.86 193.37 L 146.58 192.68 C 147.20 192.08 147.22 191.09 146.63 190.47 C 146.03 189.85 145.04 189.83 144.42 190.43 Z M 143.75 191.07 L 143.00 191.72 C 142.36 192.29 142.29 193.28 142.86 193.93 C 143.42 194.57 144.41 194.64 145.06 194.07 L 145.81 193.42 C 146.46 192.85 146.52 191.87 145.96 191.22 C 145.39 190.57 144.40 190.50 143.75 191.07 Z M 143.06 191.67 L 142.28 192.29 C 141.61 192.83 141.49 193.81 142.03 194.48 C 142.56 195.16 143.54 195.27 144.22 194.74 L 145.00 194.12 C 145.68 193.59 145.79 192.61 145.26 191.93 C 144.72 191.25 143.74 191.14 143.06 191.67 Z M 142.35 192.24 L 141.45 192.88 C 140.75 193.38 140.59 194.36 141.09 195.06 C 141.59 195.76 142.56 195.92 143.26 195.42 L 144.16 194.79 C 144.86 194.29 145.02 193.31 144.52 192.61 C 144.02 191.91 143.05 191.74 142.35 192.24 Z M 141.51 192.84 L 140.62 193.41 C 139.90 193.88 139.69 194.85 140.16 195.57 C 140.63 196.30 141.59 196.50 142.32 196.04 L 143.21 195.46 C 143.93 195.00 144.14 194.03 143.67 193.30 C 143.20 192.58 142.24 192.37 141.51 192.84 Z M 140.68 193.38 L 139.82 193.89 C 139.08 194.33 138.83 195.28 139.27 196.03 C 139.71 196.77 140.67 197.01 141.41 196.57 L 142.27 196.07 C 143.01 195.63 143.25 194.67 142.81 193.93 C 142.37 193.19 141.42 192.94 140.68 193.38 Z M 139.87 193.86 L 139.08 194.29 C 138.33 194.70 138.05 195.65 138.46 196.41 C 138.87 197.16 139.82 197.44 140.58 197.03 L 141.36 196.60 C 142.12 196.19 142.40 195.24 141.99 194.48 C 141.57 193.73 140.63 193.45 139.87 193.86 Z M 139.14 194.26 L 138.16 194.74 C 137.39 195.12 137.07 196.06 137.45 196.83 C 137.83 197.60 138.77 197.92 139.54 197.54 L 140.52 197.06 C 141.29 196.68 141.61 195.74 141.23 194.97 C 140.85 194.20 139.91 193.88 139.14 194.26 Z M 138.24 194.71 L 137.33 195.09 C 136.54 195.43 136.17 196.35 136.51 197.14 C 136.85 197.94 137.77 198.30 138.56 197.97 L 139.47 197.58 C 140.26 197.24 140.63 196.32 140.29 195.53 C 139.95 194.73 139.03 194.37 138.24 194.71 Z M 137.39 195.07 L 136.62 195.37 C 135.81 195.67 135.41 196.58 135.72 197.38 C 136.02 198.19 136.93 198.59 137.73 198.28 L 138.50 197.99 C 139.31 197.68 139.71 196.78 139.40 195.97 C 139.09 195.17 138.19 194.76 137.39 195.07 Z"
      fill="black"
      fill-rule="nonzero" /></svg>