<svg xmlns="http://www.w3.org/2000/svg" width="300" height="300" viewBox="0 0 300 300">
<path d="M 153.59 152.90 L 152.98 152.18 C 152.42 151.53 151.44 151.45 150.78 152.01 C 150.13 152.57 150.05 153.56 150.61 154.21 L 151.22 154.93 C 151.78 155.58 152.76 155.66 153.42 155.10 C 154.07 154.54 154.15 153.55 153.59 152.90 Z M 153.02 152.23 L 152.42 151.48 C 151.89 150.80 150.91 150.69 150.23 151.22 C 149.56 151.75 149.44 152.74 149.97 153.41 L 150.57 154.17 C 151.10 154.84 152.09 154.96 152.76 154.42 C 153.44 153.89 153.55 152.91 153.02 152.23 Z M 152.49 151.57 L 151.92 150.73 C 151.44 150.02 150.47 149.83 149.76 150.32 C 149.04 150.80 148.86 151.77 149.34 152.49 L 149.91 153.32 C 150.39 154.04 151.36 154.22 152.08 153.74 C 152.79 153.25 152.98 152.28 152.49 151.57 Z M 152.00 150.86 L 151.48 149.91 C 151.07 149.15 150.12 148.88 149.36 149.29 C 148.60 149.71 148.33 150.66 148.74 151.41 L 149.26 152.36 C 149.68 153.12 150.63 153.39 151.38 152.98 C 152.14 152.56 152.42 151.61 152.00 150.86 Z M 151.54 150.03 L 151.15 149.14 C 150.81 148.35 149.88 147.99 149.10 148.34 C 148.31 148.69 147.95 149.61 148.29 150.40 L 148.68 151.29 C 149.03 152.08 149.95 152.44 150.74 152.09 C 151.53 151.74 151.89 150.82 151.54 150.03 Z M 151.19 149.24 L 150.84 148.28 C 150.55 147.47 149.65 147.05 148.84 147.34 C 148.03 147.64 147.61 148.53 147.91 149.34 L 148.25 150.30 C 148.55 151.11 149.44 151.53 150.25 151.24 C 151.06 150.94 151.48 150.05 151.19 149.24 Z M 150.87 148.36 L 150.57 147.37 C 150.32 146.55 149.45 146.08 148.63 146.33 C 147.80 146.58 147.33 147.45 147.58 148.27 L 147.88 149.26 C 148.13 150.09 149.00 150.56 149.82 150.31 C 150.65 150.06 151.12 149.19 150.87 148.36 Z M 150.59 147.45 L 150.35 146.47 C 150.15 145.63 149.30 145.12 148.46 145.33 C 147.62 145.53 147.11 146.38 147.32 147.22 L 147.56 148.20 C 147.77 149.03 148.61 149.55 149.45 149.34 C 150.29 149.13 150.80 148.29 150.59 147.45 Z M 150.37 146.55 L 150.18 145.56 C 150.02 144.71 149.20 144.15 148.36 144.31 C 147.51 144.48 146.95 145.29 147.11 146.14 L 147.30 147.13 C 147.46 147.98 148.28 148.54 149.13 148.38 C 149.97 148.22 150.53 147.40 150.37 146.55 Z M 150.20 145.66 L 150.07 144.58 C 149.97 143.72 149.19 143.11 148.33 143.21 C 147.48 143.31 146.87 144.09 146.97 144.95 L 147.10 146.03 C 147.20 146.89 147.97 147.50 148.83 147.40 C 149.69 147.30 150.30 146.52 150.20 145.66 Z M 150.08 144.71 L 150.04 143.71 C 150.01 142.85 149.29 142.18 148.43 142.21 C 147.57 142.24 146.89 142.96 146.92 143.82 L 146.96 144.82 C 146.99 145.68 147.71 146.35 148.57 146.32 C 149.43 146.29 150.11 145.57 150.08 144.71 Z M 150.04 143.85 L 150.09 142.92 C 150.13 142.06 149.47 141.33 148.61 141.28 C 147.75 141.24 147.01 141.90 146.97 142.76 L 146.92 143.69 C 146.88 144.55 147.54 145.28 148.40 145.33 C 149.26 145.37 150.00 144.71 150.04 143.85 Z M 150.08 143.06 L 150.21 142.10 C 150.33 141.25 149.73 140.46 148.87 140.34 C 148.02 140.23 147.23 140.82 147.11 141.68 L 146.98 142.63 C 146.87 143.48 147.46 144.27 148.32 144.39 C 149.17 144.51 149.96 143.91 150.08 143.06 Z M 150.18 142.26 L 150.42 141.28 C 150.62 140.44 150.11 139.59 149.27 139.39 C 148.43 139.19 147.59 139.70 147.38 140.54 L 147.14 141.52 C 146.94 142.36 147.45 143.20 148.29 143.41 C 149.13 143.61 149.97 143.10 150.18 142.26 Z M 150.35 141.48 L 150.72 140.57 C 151.03 139.76 150.64 138.86 149.84 138.54 C 149.04 138.22 148.13 138.62 147.81 139.42 L 147.45 140.33 C 147.13 141.13 147.53 142.04 148.33 142.36 C 149.13 142.68 150.04 142.28 150.35 141.48 Z M 150.60 140.80 L 151.11 139.95 C 151.56 139.22 151.33 138.26 150.60 137.81 C 149.86 137.36 148.90 137.59 148.45 138.33 L 147.93 139.18 C 147.48 139.91 147.71 140.88 148.45 141.32 C 149.19 141.77 150.15 141.54 150.60 140.80 Z M 150.92 140.21 L 151.63 139.45 C 152.22 138.82 152.19 137.83 151.56 137.24 C 150.93 136.65 149.94 136.69 149.35 137.31 L 148.64 138.07 C 148.05 138.70 148.09 139.69 148.71 140.28 C 149.34 140.87 150.33 140.84 150.92 140.21 Z M 151.32 139.71 L 152.15 139.19 C 152.88 138.74 153.11 137.77 152.65 137.04 C 152.20 136.31 151.23 136.08 150.50 136.54 L 149.67 137.06 C 148.94 137.51 148.71 138.47 149.17 139.21 C 149.62 139.94 150.59 140.16 151.32 139.71 Z M 151.61 139.40 L 152.53 139.23 C 153.37 139.07 153.93 138.25 153.77 137.41 C 153.61 136.56 152.80 136.00 151.95 136.16 L 151.04 136.33 C 150.19 136.49 149.63 137.30 149.79 138.15 C 149.95 139.00 150.76 139.56 151.61 139.40 Z M 151.85 139.20 L 152.77 139.45 C 153.61 139.66 154.46 139.16 154.68 138.33 C 154.90 137.49 154.39 136.64 153.56 136.42 L 152.63 136.18 C 151.80 135.97 150.94 136.47 150.73 137.30 C 150.51 138.14 151.01 138.99 151.85 139.20 Z M 152.22 139.18 L 153.02 139.79 C 153.71 140.31 154.69 140.18 155.21 139.50 C 155.73 138.81 155.60 137.83 154.92 137.31 L 154.12 136.70 C 153.43 136.17 152.45 136.30 151.93 136.99 C 151.40 137.67 151.53 138.65 152.22 139.18 Z M 152.65 139.38 L 153.16 140.20 C 153.62 140.93 154.58 141.15 155.31 140.70 C 156.04 140.24 156.27 139.28 155.81 138.54 L 155.29 137.72 C 154.83 136.99 153.87 136.77 153.14 137.23 C 152.41 137.68 152.19 138.65 152.65 139.38 Z M 152.99 139.81 L 153.25 140.73 C 153.50 141.56 154.36 142.03 155.19 141.79 C 156.02 141.55 156.49 140.68 156.25 139.85 L 155.98 138.94 C 155.74 138.11 154.88 137.63 154.05 137.87 C 153.22 138.12 152.75 138.98 152.99 139.81 Z M 153.20 140.44 L 153.30 141.46 C 153.38 142.32 154.15 142.95 155.00 142.87 C 155.86 142.78 156.49 142.02 156.41 141.16 L 156.31 140.14 C 156.22 139.28 155.46 138.65 154.60 138.74 C 153.74 138.82 153.12 139.58 153.20 140.44 Z M 153.29 141.24 L 153.25 142.31 C 153.21 143.17 153.88 143.90 154.74 143.94 C 155.60 143.97 156.33 143.31 156.37 142.45 L 156.41 141.38 C 156.45 140.52 155.78 139.79 154.92 139.75 C 154.06 139.72 153.33 140.38 153.29 141.24 Z M 153.27 142.12 L 153.10 143.13 C 152.96 143.98 153.54 144.79 154.39 144.93 C 155.24 145.07 156.04 144.49 156.18 143.64 L 156.35 142.63 C 156.49 141.78 155.91 140.98 155.06 140.84 C 154.21 140.70 153.40 141.27 153.27 142.12 Z M 153.15 142.93 L 152.85 143.90 C 152.61 144.72 153.07 145.60 153.90 145.84 C 154.72 146.09 155.59 145.63 155.84 144.80 L 156.14 143.84 C 156.38 143.01 155.92 142.14 155.09 141.89 C 154.27 141.64 153.40 142.11 153.15 142.93 Z M 152.94 143.67 L 152.52 144.55 C 152.14 145.33 152.46 146.26 153.24 146.64 C 154.01 147.02 154.95 146.69 155.32 145.92 L 155.75 145.03 C 156.13 144.26 155.81 143.32 155.03 142.95 C 154.26 142.57 153.32 142.89 152.94 143.67 Z M 152.69 144.28 L 152.02 145.13 C 151.49 145.81 151.62 146.79 152.30 147.32 C 152.98 147.85 153.96 147.73 154.49 147.05 L 155.15 146.19 C 155.68 145.51 155.56 144.53 154.88 144.00 C 154.20 143.47 153.22 143.60 152.69 144.28 Z M 152.31 144.85 L 151.41 145.53 C 150.73 146.06 150.60 147.04 151.12 147.72 C 151.65 148.41 152.63 148.54 153.31 148.01 L 154.20 147.33 C 154.89 146.81 155.02 145.83 154.49 145.14 C 153.97 144.46 152.99 144.33 152.31 144.85 Z M 151.96 145.26 L 151.14 145.48 C 150.31 145.71 149.81 146.56 150.04 147.40 C 150.26 148.23 151.12 148.72 151.95 148.50 L 152.77 148.28 C 153.60 148.06 154.10 147.20 153.87 146.37 C 153.65 145.54 152.79 145.04 151.96 145.26 Z M 152.46 145.72 L 151.93 145.34 C 151.23 144.84 150.25 145.00 149.75 145.70 C 149.25 146.40 149.41 147.38 150.11 147.88 L 150.63 148.26 C 151.33 148.76 152.31 148.60 152.81 147.90 C 153.32 147.20 153.16 146.23 152.46 145.72 Z M 152.53 146.21 L 152.29 145.32 C 152.07 144.49 151.22 143.99 150.39 144.21 C 149.55 144.43 149.05 145.28 149.27 146.12 L 149.51 147.01 C 149.73 147.84 150.58 148.34 151.41 148.12 C 152.25 147.90 152.75 147.05 152.53 146.21 Z M 152.34 145.63 L 152.27 144.45 C 152.22 143.59 151.49 142.94 150.63 142.98 C 149.77 143.03 149.11 143.77 149.16 144.63 L 149.22 145.81 C 149.27 146.67 150.01 147.33 150.87 147.28 C 151.73 147.23 152.39 146.49 152.34 145.63 Z M 152.28 144.52 L 152.26 143.48 C 152.25 142.62 151.54 141.93 150.68 141.95 C 149.82 141.96 149.13 142.67 149.14 143.53 L 149.15 144.56 C 149.17 145.43 149.87 146.12 150.74 146.10 C 151.60 146.09 152.29 145.38 152.28 144.52 Z M 152.26 143.50 L 152.26 142.51 C 152.25 141.65 151.55 140.95 150.68 140.96 C 149.82 140.97 149.13 141.67 149.13 142.53 L 149.14 143.52 C 149.15 144.38 149.85 145.07 150.71 145.07 C 151.57 145.06 152.27 144.36 152.26 143.50 Z M 152.26 142.52 L 152.25 141.51 C 152.25 140.65 151.55 139.95 150.69 139.96 C 149.83 139.96 149.13 140.66 149.13 141.52 L 149.13 142.52 C 149.14 143.39 149.84 144.08 150.70 144.08 C 151.56 144.08 152.26 143.38 152.26 142.52 Z M 152.25 141.52 L 152.25 140.49 C 152.25 139.63 151.55 138.93 150.69 138.93 C 149.83 138.93 149.13 139.63 149.13 140.50 L 149.13 141.52 C 149.13 142.38 149.83 143.08 150.69 143.08 C 151.56 143.08 152.25 142.38 152.25 141.52 Z M 152.25 140.50 L 152.26 139.55 C 152.26 138.69 151.56 137.99 150.70 137.98 C 149.84 137.98 149.14 138.68 149.13 139.54 L 149.13 140.49 C 149.13 141.35 149.83 142.05 150.69 142.06 C 151.55 142.06 152.25 141.36 152.25 140.50 Z M 152.26 139.57 L 152.27 138.59 C 152.28 137.72 151.59 137.01 150.73 137.00 C 149.87 136.99 149.16 137.68 149.15 138.54 L 149.13 139.52 C 149.12 140.38 149.81 141.09 150.67 141.11 C 151.53 141.12 152.24 140.43 152.26 139.57 Z M 152.27 138.62 L 152.31 137.60 C 152.34 136.74 151.67 136.02 150.80 135.99 C 149.94 135.95 149.22 136.63 149.19 137.49 L 149.15 138.51 C 149.12 139.37 149.79 140.09 150.65 140.12 C 151.51 140.15 152.24 139.48 152.27 138.62 Z M 152.30 137.65 L 152.38 136.60 C 152.43 135.74 151.78 134.99 150.92 134.94 C 150.06 134.88 149.32 135.53 149.26 136.39 L 149.19 137.44 C 149.13 138.30 149.78 139.05 150.64 139.10 C 151.50 139.16 152.25 138.51 152.30 137.65 Z M 152.37 136.66 L 152.49 135.55 C 152.59 134.70 151.97 133.93 151.11 133.83 C 150.25 133.74 149.48 134.36 149.39 135.21 L 149.27 136.32 C 149.17 137.18 149.79 137.95 150.65 138.05 C 151.50 138.14 152.28 137.52 152.37 136.66 Z M 152.48 135.66 L 152.67 134.60 C 152.82 133.75 152.26 132.94 151.41 132.78 C 150.56 132.63 149.75 133.19 149.60 134.04 L 149.40 135.11 C 149.25 135.95 149.81 136.77 150.66 136.92 C 151.51 137.07 152.32 136.51 152.48 135.66 Z M 152.62 134.78 L 152.91 133.85 C 153.16 133.02 152.70 132.15 151.88 131.89 C 151.05 131.64 150.18 132.10 149.93 132.93 L 149.64 133.86 C 149.39 134.68 149.85 135.56 150.67 135.81 C 151.50 136.06 152.37 135.60 152.62 134.78 Z M 152.78 134.16 L 153.18 133.45 C 153.61 132.70 153.35 131.74 152.60 131.32 C 151.85 130.89 150.89 131.15 150.47 131.90 L 150.06 132.61 C 149.64 133.36 149.90 134.32 150.65 134.74 C 151.40 135.17 152.35 134.91 152.78 134.16 Z M 152.67 133.99 L 153.43 133.50 C 154.16 133.03 154.37 132.07 153.90 131.34 C 153.44 130.62 152.47 130.40 151.74 130.87 L 150.98 131.36 C 150.26 131.83 150.04 132.79 150.51 133.52 C 150.98 134.24 151.94 134.45 152.67 133.99 Z M 152.39 133.73 L 153.29 133.85 C 154.15 133.96 154.93 133.35 155.04 132.50 C 155.15 131.64 154.55 130.86 153.69 130.75 L 152.79 130.64 C 151.93 130.53 151.15 131.13 151.04 131.99 C 150.93 132.84 151.53 133.62 152.39 133.73 Z M 152.51 133.51 L 153.37 134.22 C 154.04 134.76 155.02 134.66 155.57 133.99 C 156.11 133.32 156.01 132.34 155.35 131.80 L 154.48 131.09 C 153.81 130.55 152.83 130.65 152.28 131.31 C 151.74 131.98 151.84 132.97 152.51 133.51 Z M 153.06 133.87 L 153.54 134.59 C 154.02 135.31 154.99 135.50 155.70 135.02 C 156.42 134.54 156.61 133.57 156.14 132.86 L 155.66 132.14 C 155.18 131.42 154.21 131.23 153.49 131.71 C 152.77 132.19 152.58 133.16 153.06 133.87 Z M 153.44 134.41 L 153.87 135.29 C 154.25 136.06 155.18 136.38 155.96 136.00 C 156.73 135.62 157.05 134.69 156.67 133.91 L 156.24 133.03 C 155.86 132.26 154.92 131.94 154.15 132.32 C 153.37 132.70 153.06 133.64 153.44 134.41 Z M 153.82 135.18 L 154.20 136.15 C 154.52 136.96 155.43 137.35 156.23 137.03 C 157.03 136.71 157.42 135.81 157.11 135.00 L 156.72 134.03 C 156.40 133.22 155.50 132.83 154.69 133.15 C 153.89 133.47 153.50 134.37 153.82 135.18 Z M 154.18 136.08 L 154.53 137.10 C 154.80 137.92 155.69 138.35 156.51 138.07 C 157.32 137.80 157.76 136.91 157.48 136.09 L 157.13 135.07 C 156.86 134.26 155.97 133.82 155.15 134.10 C 154.34 134.38 153.90 135.27 154.18 136.08 Z M 154.51 137.06 L 154.82 138.07 C 155.08 138.89 155.96 139.35 156.78 139.09 C 157.60 138.84 158.06 137.96 157.81 137.14 L 157.49 136.13 C 157.24 135.31 156.36 134.85 155.54 135.11 C 154.72 135.36 154.26 136.24 154.51 137.06 Z M 154.82 138.04 L 155.10 139.02 C 155.35 139.85 156.21 140.32 157.04 140.08 C 157.87 139.84 158.34 138.97 158.10 138.14 L 157.81 137.16 C 157.57 136.34 156.70 135.86 155.88 136.11 C 155.05 136.35 154.57 137.22 154.82 138.04 Z M 155.10 138.99 L 155.36 139.94 C 155.58 140.77 156.44 141.26 157.27 141.04 C 158.10 140.81 158.59 139.95 158.37 139.12 L 158.11 138.17 C 157.88 137.34 157.02 136.85 156.19 137.08 C 155.36 137.30 154.87 138.16 155.10 138.99 Z M 155.35 139.91 L 155.58 140.85 C 155.79 141.69 156.64 142.20 157.48 141.99 C 158.31 141.78 158.82 140.93 158.61 140.10 L 158.38 139.15 C 158.17 138.32 157.32 137.81 156.48 138.02 C 155.65 138.23 155.14 139.07 155.35 139.91 Z M 155.58 140.82 L 155.80 141.79 C 155.99 142.63 156.82 143.16 157.66 142.97 C 158.50 142.78 159.03 141.94 158.84 141.10 L 158.62 140.13 C 158.43 139.29 157.59 138.76 156.75 138.95 C 155.91 139.14 155.38 139.98 155.58 140.82 Z M 155.79 141.76 L 155.99 142.75 C 156.17 143.60 156.99 144.14 157.83 143.97 C 158.68 143.79 159.22 142.97 159.05 142.12 L 158.85 141.13 C 158.67 140.29 157.85 139.74 157.00 139.92 C 156.16 140.09 155.62 140.91 155.79 141.76 Z M 155.99 142.72 L 156.18 143.73 C 156.33 144.58 157.15 145.14 158.00 144.98 C 158.84 144.82 159.40 144.01 159.24 143.16 L 159.06 142.15 C 158.90 141.30 158.08 140.74 157.23 140.90 C 156.39 141.06 155.83 141.88 155.99 142.72 Z M 156.17 143.71 L 156.35 144.73 C 156.49 145.58 157.30 146.15 158.15 146.01 C 159.00 145.86 159.57 145.06 159.42 144.21 L 159.25 143.18 C 159.10 142.33 158.30 141.76 157.45 141.91 C 156.60 142.05 156.03 142.86 156.17 143.71 Z M 156.34 144.71 L 156.50 145.71 C 156.63 146.56 157.43 147.15 158.28 147.01 C 159.13 146.88 159.72 146.08 159.58 145.23 L 159.43 144.23 C 159.30 143.38 158.50 142.79 157.65 142.93 C 156.79 143.06 156.21 143.86 156.34 144.71 Z M 156.49 145.69 L 156.63 146.64 C 156.74 147.49 157.53 148.09 158.39 147.97 C 159.24 147.85 159.84 147.06 159.72 146.21 L 159.59 145.26 C 159.47 144.40 158.68 143.81 157.83 143.92 C 156.97 144.04 156.38 144.83 156.49 145.69 Z M 156.62 146.60 L 156.74 147.66 C 156.84 148.51 157.62 149.13 158.47 149.03 C 159.33 148.93 159.94 148.16 159.85 147.30 L 159.72 146.24 C 159.62 145.39 158.85 144.77 157.99 144.87 C 157.14 144.97 156.52 145.75 156.62 146.60 Z M 156.74 147.60 L 156.82 148.64 C 156.89 149.50 157.64 150.15 158.50 150.08 C 159.36 150.01 160.00 149.26 159.93 148.40 L 159.85 147.36 C 159.79 146.50 159.03 145.86 158.17 145.92 C 157.31 145.99 156.67 146.74 156.74 147.60 Z M 156.82 148.56 L 156.84 149.50 C 156.85 150.37 157.57 151.05 158.43 151.03 C 159.29 151.01 159.98 150.30 159.96 149.44 L 159.94 148.49 C 159.92 147.63 159.20 146.94 158.34 146.96 C 157.48 146.98 156.80 147.69 156.82 148.56 Z M 156.84 149.40 L 156.80 150.30 C 156.76 151.17 157.43 151.90 158.29 151.93 C 159.15 151.97 159.88 151.30 159.92 150.44 L 159.96 149.54 C 159.99 148.68 159.33 147.95 158.47 147.91 C 157.60 147.87 156.88 148.54 156.84 149.40 Z M 156.81 150.16 L 156.65 151.29 C 156.53 152.14 157.13 152.93 157.98 153.05 C 158.84 153.17 159.63 152.58 159.74 151.72 L 159.90 150.59 C 160.02 149.73 159.43 148.95 158.57 148.83 C 157.72 148.71 156.93 149.30 156.81 150.16 Z M 156.74 150.95 L 156.39 151.87 C 156.09 152.68 156.49 153.58 157.30 153.88 C 158.11 154.19 159.01 153.78 159.31 152.97 L 159.66 152.06 C 159.96 151.25 159.56 150.35 158.75 150.05 C 157.94 149.74 157.04 150.15 156.74 150.95 Z M 156.91 151.18 L 156.29 151.65 C 155.61 152.17 155.48 153.15 156.00 153.83 C 156.52 154.52 157.50 154.65 158.19 154.13 L 158.80 153.66 C 159.48 153.14 159.62 152.16 159.09 151.48 C 158.57 150.79 157.59 150.66 156.91 151.18 Z M 157.39 151.33 L 156.55 151.25 C 155.70 151.17 154.93 151.80 154.85 152.66 C 154.77 153.52 155.40 154.28 156.25 154.36 L 157.09 154.44 C 157.95 154.52 158.71 153.90 158.80 153.04 C 158.88 152.18 158.25 151.42 157.39 151.33 Z M 157.16 151.44 L 156.24 150.93 C 155.48 150.51 154.53 150.78 154.12 151.54 C 153.70 152.29 153.97 153.24 154.72 153.66 L 155.65 154.17 C 156.40 154.59 157.35 154.32 157.77 153.56 C 158.19 152.81 157.91 151.86 157.16 151.44 Z M 156.58 151.19 L 155.79 150.40 C 155.18 149.80 154.19 149.80 153.58 150.41 C 152.98 151.02 152.98 152.01 153.59 152.62 L 154.38 153.40 C 154.99 154.01 155.98 154.01 156.59 153.40 C 157.20 152.78 157.19 151.80 156.58 151.19 Z M 156.01 150.67 L 155.48 149.85 C 155.02 149.12 154.06 148.90 153.33 149.37 C 152.60 149.83 152.39 150.79 152.85 151.52 L 153.37 152.35 C 153.84 153.08 154.80 153.29 155.53 152.83 C 156.26 152.37 156.47 151.40 156.01 150.67 Z M 155.60 150.06 L 155.20 149.14 C 154.85 148.35 153.93 147.99 153.14 148.33 C 152.35 148.67 151.99 149.59 152.33 150.38 L 152.73 151.31 C 153.08 152.10 154.00 152.46 154.79 152.12 C 155.58 151.77 155.94 150.85 155.60 150.06 Z M 155.26 149.30 L 154.96 148.33 C 154.71 147.51 153.84 147.04 153.01 147.30 C 152.19 147.55 151.72 148.42 151.98 149.25 L 152.27 150.22 C 152.52 151.04 153.40 151.51 154.22 151.25 C 155.05 151.00 155.51 150.13 155.26 149.30 Z M 154.99 148.46 L 154.78 147.45 C 154.59 146.61 153.76 146.08 152.92 146.26 C 152.08 146.44 151.54 147.27 151.73 148.12 L 151.94 149.12 C 152.13 149.96 152.96 150.50 153.80 150.32 C 154.64 150.13 155.18 149.30 154.99 148.46 Z M 154.80 147.56 L 154.65 146.55 C 154.52 145.70 153.73 145.11 152.87 145.24 C 152.02 145.36 151.43 146.16 151.56 147.01 L 151.71 148.01 C 151.83 148.87 152.63 149.46 153.48 149.33 C 154.33 149.20 154.92 148.41 154.80 147.56 Z M 154.66 146.64 L 154.56 145.65 C 154.48 144.79 153.72 144.16 152.87 144.24 C 152.01 144.32 151.38 145.08 151.46 145.94 L 151.55 146.93 C 151.63 147.78 152.39 148.42 153.25 148.34 C 154.11 148.25 154.74 147.49 154.66 146.64 Z M 154.57 145.71 L 154.52 144.75 C 154.47 143.89 153.73 143.23 152.87 143.27 C 152.01 143.32 151.35 144.06 151.40 144.92 L 151.45 145.88 C 151.50 146.74 152.23 147.40 153.10 147.36 C 153.96 147.31 154.62 146.57 154.57 145.71 Z M 154.52 144.84 L 154.52 143.89 C 154.53 143.03 153.83 142.33 152.97 142.32 C 152.11 142.32 151.41 143.01 151.40 143.87 L 151.40 144.83 C 151.39 145.69 152.09 146.39 152.95 146.39 C 153.81 146.40 154.51 145.70 154.52 144.84 Z M 154.50 144.17 L 154.67 143.24 C 154.83 142.39 154.27 141.57 153.43 141.41 C 152.58 141.25 151.76 141.81 151.60 142.66 L 151.43 143.59 C 151.27 144.44 151.83 145.26 152.67 145.42 C 153.52 145.58 154.34 145.02 154.50 144.17 Z M 154.53 143.66 L 155.00 142.74 C 155.39 141.98 155.09 141.04 154.33 140.64 C 153.56 140.25 152.62 140.55 152.22 141.31 L 151.75 142.23 C 151.36 143.00 151.66 143.94 152.42 144.34 C 153.19 144.73 154.13 144.43 154.53 143.66 Z M 154.75 143.10 L 155.48 142.32 C 156.07 141.69 156.04 140.71 155.41 140.12 C 154.78 139.52 153.80 139.55 153.21 140.18 L 152.47 140.96 C 151.88 141.59 151.91 142.57 152.54 143.17 C 153.17 143.76 154.16 143.73 154.75 143.10 Z M 155.27 142.51 L 156.16 141.85 C 156.85 141.34 157.00 140.37 156.49 139.67 C 155.98 138.98 155.00 138.83 154.31 139.34 L 153.42 140.00 C 152.72 140.51 152.57 141.48 153.08 142.18 C 153.60 142.87 154.57 143.02 155.27 142.51 Z M 155.96 141.98 L 156.92 141.48 C 157.68 141.07 157.97 140.13 157.57 139.37 C 157.17 138.60 156.22 138.31 155.46 138.71 L 154.51 139.21 C 153.74 139.62 153.45 140.56 153.85 141.32 C 154.25 142.09 155.20 142.38 155.96 141.98 Z M 156.64 141.59 L 157.51 141.33 C 158.34 141.08 158.81 140.21 158.56 139.38 C 158.31 138.56 157.44 138.09 156.62 138.34 L 155.74 138.60 C 154.91 138.85 154.45 139.72 154.69 140.54 C 154.94 141.37 155.81 141.84 156.64 141.59 Z M 156.85 141.38 L 157.60 141.48 C 158.45 141.61 159.24 141.01 159.36 140.16 C 159.48 139.30 158.89 138.51 158.04 138.39 L 157.28 138.29 C 156.43 138.16 155.64 138.76 155.52 139.61 C 155.40 140.47 155.99 141.26 156.85 141.38 Z M 156.51 140.79 L 156.95 141.46 C 157.42 142.18 158.38 142.39 159.10 141.92 C 159.83 141.45 160.03 140.48 159.56 139.76 L 159.13 139.09 C 158.66 138.36 157.69 138.16 156.97 138.63 C 156.24 139.10 156.04 140.07 156.51 140.79 Z M 156.70 140.71 L 156.76 141.76 C 156.81 142.62 157.55 143.28 158.41 143.22 C 159.27 143.17 159.93 142.43 159.88 141.57 L 159.81 140.52 C 159.76 139.66 159.02 139.00 158.16 139.05 C 157.30 139.10 156.64 139.84 156.70 140.71 Z M 156.77 141.44 L 156.61 142.56 C 156.48 143.41 157.07 144.21 157.93 144.33 C 158.78 144.46 159.57 143.87 159.70 143.01 L 159.86 141.89 C 159.99 141.04 159.40 140.25 158.54 140.12 C 157.69 140.00 156.90 140.59 156.77 141.44 Z M 156.64 142.39 L 156.39 143.36 C 156.17 144.20 156.67 145.05 157.51 145.27 C 158.34 145.48 159.20 144.98 159.41 144.15 L 159.67 143.18 C 159.88 142.34 159.38 141.49 158.55 141.27 C 157.71 141.06 156.86 141.56 156.64 142.39 Z M 156.43 143.24 L 156.10 144.20 C 155.81 145.01 156.24 145.90 157.05 146.18 C 157.87 146.47 158.76 146.04 159.04 145.22 L 159.38 144.27 C 159.66 143.46 159.23 142.57 158.42 142.28 C 157.60 142.00 156.71 142.43 156.43 143.24 Z M 156.13 144.09 L 155.74 145.01 C 155.40 145.81 155.77 146.72 156.56 147.06 C 157.35 147.40 158.27 147.04 158.61 146.24 L 159.00 145.33 C 159.34 144.53 158.98 143.62 158.18 143.27 C 157.39 142.93 156.47 143.30 156.13 144.09 Z M 155.78 144.92 L 155.32 145.84 C 154.93 146.61 155.23 147.55 156.00 147.94 C 156.77 148.33 157.71 148.02 158.10 147.25 L 158.57 146.34 C 158.96 145.57 158.65 144.63 157.88 144.24 C 157.11 143.85 156.17 144.15 155.78 144.92 Z M 155.38 145.73 L 154.84 146.61 C 154.38 147.34 154.61 148.30 155.35 148.76 C 156.08 149.21 157.04 148.98 157.49 148.25 L 158.04 147.36 C 158.49 146.63 158.26 145.67 157.53 145.21 C 156.79 144.76 155.83 144.99 155.38 145.73 Z M 154.94 146.45 L 154.33 147.22 C 153.80 147.90 153.91 148.88 154.58 149.42 C 155.26 149.95 156.24 149.84 156.77 149.17 L 157.39 148.40 C 157.92 147.73 157.81 146.74 157.14 146.21 C 156.46 145.67 155.48 145.78 154.94 146.45 Z M 154.51 147.04 L 153.81 147.66 C 153.17 148.24 153.12 149.23 153.70 149.87 C 154.27 150.51 155.26 150.56 155.90 149.98 L 156.60 149.36 C 157.24 148.78 157.29 147.79 156.71 147.15 C 156.14 146.51 155.15 146.46 154.51 147.04 Z M 154.10 147.46 L 153.14 147.99 C 152.39 148.41 152.12 149.36 152.54 150.11 C 152.96 150.87 153.91 151.14 154.66 150.72 L 155.62 150.19 C 156.37 149.77 156.64 148.82 156.22 148.06 C 155.80 147.31 154.85 147.04 154.10 147.46 Z M 153.56 147.83 L 152.59 148.05 C 151.75 148.24 151.22 149.08 151.41 149.92 C 151.60 150.76 152.44 151.29 153.28 151.10 L 154.25 150.88 C 155.09 150.69 155.62 149.85 155.43 149.01 C 155.24 148.17 154.40 147.64 153.56 147.83 Z M 153.23 148.04 L 152.37 147.88 C 151.53 147.72 150.71 148.27 150.55 149.12 C 150.39 149.97 150.94 150.78 151.79 150.94 L 152.64 151.11 C 153.49 151.27 154.31 150.71 154.47 149.87 C 154.63 149.02 154.07 148.20 153.23 148.04 Z M 153.11 148.24 L 152.47 147.68 C 151.83 147.11 150.84 147.18 150.27 147.83 C 149.70 148.47 149.77 149.46 150.42 150.03 L 151.05 150.59 C 151.70 151.15 152.69 151.09 153.25 150.44 C 153.82 149.79 153.76 148.81 153.11 148.24 Z M 152.83 148.14 L 152.37 147.24 C 151.97 146.48 151.03 146.18 150.26 146.58 C 149.50 146.98 149.20 147.92 149.60 148.68 L 150.06 149.57 C 150.46 150.34 151.40 150.64 152.16 150.24 C 152.93 149.84 153.23 148.90 152.83 148.14 Z M 152.48 147.53 L 152.17 146.44 C 151.93 145.61 151.06 145.13 150.23 145.37 C 149.41 145.61 148.93 146.47 149.17 147.30 L 149.48 148.40 C 149.72 149.22 150.59 149.70 151.41 149.46 C 152.24 149.23 152.72 148.36 152.48 147.53 Z M 152.20 146.58 L 152.03 145.65 C 151.87 144.80 151.06 144.25 150.21 144.40 C 149.36 144.56 148.80 145.38 148.96 146.22 L 149.13 147.15 C 149.29 148.00 150.10 148.56 150.95 148.40 C 151.80 148.25 152.36 147.43 152.20 146.58 Z M 152.04 145.74 L 151.91 144.74 C 151.80 143.89 151.02 143.28 150.17 143.39 C 149.31 143.50 148.71 144.29 148.82 145.14 L 148.95 146.14 C 149.06 146.99 149.84 147.60 150.69 147.49 C 151.55 147.38 152.15 146.59 152.04 145.74 Z M 151.92 144.80 L 151.83 143.78 C 151.75 142.92 150.99 142.28 150.14 142.36 C 149.28 142.44 148.64 143.19 148.72 144.05 L 148.81 145.08 C 148.89 145.94 149.64 146.57 150.50 146.50 C 151.36 146.42 152.00 145.66 151.92 144.80 Z M 151.83 143.82 L 151.77 142.79 C 151.72 141.93 150.98 141.28 150.12 141.33 C 149.26 141.38 148.60 142.12 148.65 142.98 L 148.72 144.01 C 148.77 144.87 149.51 145.52 150.37 145.47 C 151.23 145.42 151.88 144.68 151.83 143.82 Z M 151.77 142.84 L 151.74 141.75 C 151.71 140.89 150.99 140.21 150.13 140.24 C 149.27 140.27 148.59 140.99 148.62 141.85 L 148.65 142.93 C 148.68 143.80 149.40 144.47 150.26 144.45 C 151.12 144.42 151.80 143.70 151.77 142.84 Z M 151.74 141.84 L 151.76 140.81 C 151.78 139.94 151.10 139.23 150.24 139.21 C 149.38 139.19 148.66 139.87 148.64 140.73 L 148.62 141.76 C 148.60 142.63 149.28 143.34 150.14 143.36 C 151.00 143.38 151.72 142.70 151.74 141.84 Z M 151.75 140.95 L 151.87 140.00 C 151.97 139.14 151.35 138.36 150.50 138.26 C 149.64 138.16 148.86 138.78 148.76 139.63 L 148.65 140.59 C 148.55 141.44 149.16 142.22 150.02 142.32 C 150.88 142.42 151.65 141.81 151.75 140.95 Z M 151.82 140.22 L 152.07 139.33 C 152.29 138.49 151.80 137.64 150.97 137.41 C 150.14 137.18 149.28 137.68 149.05 138.51 L 148.81 139.40 C 148.58 140.24 149.07 141.09 149.91 141.32 C 150.74 141.55 151.60 141.05 151.82 140.22 Z M 151.94 139.65 L 152.42 138.74 C 152.83 137.98 152.54 137.03 151.78 136.63 C 151.02 136.22 150.08 136.51 149.67 137.27 L 149.18 138.18 C 148.78 138.94 149.06 139.89 149.82 140.29 C 150.58 140.70 151.53 140.41 151.94 139.65 Z M 152.17 139.08 L 152.85 138.38 C 153.45 137.75 153.43 136.77 152.80 136.17 C 152.18 135.57 151.19 135.59 150.60 136.22 L 149.92 136.92 C 149.32 137.54 149.34 138.53 149.97 139.13 C 150.59 139.73 151.58 139.71 152.17 139.08 Z M 152.48 138.66 L 153.33 138.19 C 154.08 137.77 154.35 136.82 153.93 136.07 C 153.51 135.31 152.56 135.04 151.81 135.46 L 150.96 135.93 C 150.21 136.35 149.94 137.30 150.36 138.06 C 150.78 138.81 151.73 139.08 152.48 138.66 Z M 152.87 138.36 L 153.89 138.16 C 154.73 137.99 155.28 137.17 155.12 136.33 C 154.95 135.48 154.13 134.93 153.28 135.09 L 152.27 135.29 C 151.42 135.46 150.87 136.28 151.04 137.13 C 151.20 137.97 152.02 138.52 152.87 138.36 Z M 153.36 138.17 L 154.34 138.31 C 155.19 138.44 155.98 137.85 156.11 137.00 C 156.23 136.14 155.64 135.35 154.79 135.22 L 153.81 135.08 C 152.96 134.96 152.16 135.55 152.04 136.40 C 151.92 137.25 152.51 138.05 153.36 138.17 Z M 153.70 138.07 L 154.46 138.57 C 155.17 139.05 156.14 138.85 156.62 138.13 C 157.10 137.41 156.90 136.45 156.18 135.97 L 155.42 135.47 C 154.71 134.99 153.74 135.19 153.26 135.91 C 152.78 136.63 152.98 137.59 153.70 138.07 Z M 153.95 138.03 L 154.40 138.83 C 154.82 139.58 155.77 139.86 156.52 139.44 C 157.28 139.02 157.55 138.07 157.13 137.32 L 156.68 136.51 C 156.27 135.76 155.32 135.49 154.56 135.91 C 153.81 136.32 153.53 137.27 153.95 138.03 Z M 154.23 138.37 L 154.42 139.38 C 154.59 140.23 155.41 140.78 156.25 140.62 C 157.10 140.46 157.65 139.64 157.49 138.79 L 157.30 137.78 C 157.13 136.93 156.32 136.38 155.47 136.54 C 154.62 136.70 154.07 137.52 154.23 138.37 Z M 154.40 139.08 L 154.39 140.11 C 154.38 140.97 155.08 141.68 155.94 141.68 C 156.80 141.69 157.51 141.00 157.51 140.13 L 157.52 139.10 C 157.53 138.24 156.83 137.53 155.97 137.53 C 155.11 137.52 154.40 138.21 154.40 139.08 Z M 154.40 139.91 L 154.28 140.83 C 154.16 141.69 154.76 142.48 155.61 142.59 C 156.46 142.71 157.25 142.11 157.37 141.26 L 157.50 140.34 C 157.61 139.48 157.02 138.69 156.16 138.58 C 155.31 138.46 154.52 139.05 154.40 139.91 Z M 154.30 140.70 L 154.08 141.66 C 153.88 142.50 154.41 143.34 155.25 143.53 C 156.09 143.73 156.93 143.20 157.12 142.36 L 157.34 141.40 C 157.54 140.56 157.01 139.72 156.17 139.53 C 155.33 139.33 154.50 139.86 154.30 140.70 Z M 154.10 141.57 L 153.80 142.59 C 153.56 143.42 154.03 144.29 154.85 144.53 C 155.68 144.78 156.55 144.31 156.79 143.48 L 157.10 142.46 C 157.34 141.63 156.87 140.76 156.04 140.52 C 155.22 140.27 154.35 140.74 154.10 141.57 Z M 153.82 142.54 L 153.50 143.50 C 153.22 144.32 153.67 145.20 154.48 145.47 C 155.30 145.75 156.19 145.30 156.46 144.49 L 156.78 143.53 C 157.05 142.71 156.61 141.83 155.79 141.55 C 154.97 141.28 154.09 141.72 153.82 142.54 Z M 153.51 143.47 L 153.17 144.40 C 152.88 145.22 153.31 146.11 154.12 146.40 C 154.93 146.69 155.83 146.26 156.12 145.45 L 156.45 144.52 C 156.74 143.70 156.31 142.81 155.50 142.52 C 154.69 142.23 153.80 142.66 153.51 143.47 Z M 153.18 144.38 L 152.83 145.33 C 152.52 146.14 152.93 147.04 153.74 147.34 C 154.55 147.64 155.45 147.23 155.75 146.43 L 156.11 145.47 C 156.41 144.67 156.00 143.77 155.19 143.47 C 154.38 143.16 153.48 143.57 153.18 144.38 Z M 152.83 145.32 L 152.46 146.27 C 152.15 147.07 152.55 147.97 153.35 148.29 C 154.16 148.60 155.06 148.20 155.37 147.40 L 155.74 146.45 C 156.06 145.64 155.66 144.74 154.85 144.43 C 154.05 144.11 153.14 144.51 152.83 145.32 Z M 152.47 146.25 L 152.07 147.24 C 151.75 148.04 152.14 148.95 152.94 149.28 C 153.74 149.60 154.65 149.21 154.97 148.41 L 155.37 147.41 C 155.69 146.61 155.30 145.70 154.50 145.38 C 153.70 145.06 152.79 145.45 152.47 146.25 Z M 152.09 147.20 L 151.59 148.34 C 151.24 149.13 151.60 150.05 152.38 150.40 C 153.17 150.75 154.09 150.39 154.44 149.60 L 154.95 148.46 C 155.30 147.67 154.94 146.75 154.15 146.40 C 153.36 146.05 152.44 146.41 152.09 147.20 Z M 151.68 148.15 L 151.17 148.99 C 150.72 149.73 150.95 150.69 151.68 151.14 C 152.42 151.59 153.38 151.36 153.83 150.63 L 154.35 149.79 C 154.80 149.05 154.57 148.09 153.83 147.64 C 153.10 147.19 152.14 147.42 151.68 148.15 Z M 151.66 148.50 L 151.11 148.85 C 150.38 149.31 150.17 150.28 150.64 151.00 C 151.11 151.73 152.07 151.94 152.80 151.47 L 153.34 151.13 C 154.07 150.66 154.28 149.69 153.81 148.97 C 153.35 148.24 152.38 148.03 151.66 148.50 Z M 152.60 148.74 L 152.06 148.49 C 151.27 148.14 150.35 148.49 149.99 149.27 C 149.64 150.06 149.99 150.99 150.77 151.34 L 151.31 151.58 C 152.10 151.94 153.02 151.59 153.38 150.80 C 153.73 150.02 153.38 149.09 152.60 148.74 Z M 152.68 149.00 L 152.15 148.27 C 151.64 147.57 150.66 147.42 149.97 147.93 C 149.27 148.43 149.11 149.41 149.62 150.11 L 150.15 150.84 C 150.66 151.53 151.64 151.69 152.33 151.18 C 153.03 150.67 153.18 149.70 152.68 149.00 Z M 152.32 148.57 L 151.84 147.47 C 151.50 146.68 150.59 146.31 149.79 146.65 C 149.00 146.99 148.64 147.91 148.98 148.71 L 149.45 149.81 C 149.79 150.60 150.71 150.96 151.50 150.62 C 152.29 150.28 152.66 149.36 152.32 148.57 Z M 151.91 147.67 L 151.59 146.50 C 151.36 145.67 150.50 145.19 149.66 145.42 C 148.83 145.65 148.35 146.51 148.58 147.34 L 148.91 148.51 C 149.14 149.34 150.00 149.82 150.83 149.59 C 151.66 149.36 152.15 148.50 151.91 147.67 Z M 151.62 146.63 L 151.43 145.65 C 151.27 144.80 150.46 144.24 149.61 144.40 C 148.76 144.56 148.20 145.38 148.36 146.23 L 148.55 147.21 C 148.71 148.06 149.53 148.62 150.37 148.46 C 151.22 148.30 151.78 147.48 151.62 146.63 Z M 151.45 145.73 L 151.31 144.71 C 151.19 143.85 150.41 143.25 149.55 143.37 C 148.70 143.48 148.10 144.27 148.21 145.12 L 148.35 146.15 C 148.47 147.00 149.25 147.60 150.11 147.49 C 150.96 147.37 151.56 146.58 151.45 145.73 Z M 151.32 144.77 L 151.22 143.74 C 151.14 142.88 150.37 142.25 149.52 142.33 C 148.66 142.42 148.03 143.18 148.11 144.04 L 148.21 145.06 C 148.29 145.92 149.05 146.55 149.91 146.47 C 150.77 146.39 151.40 145.63 151.32 144.77 Z M 151.22 143.78 L 151.15 142.79 C 151.10 141.93 150.35 141.28 149.49 141.33 C 148.63 141.39 147.98 142.13 148.04 143.00 L 148.11 143.99 C 148.16 144.85 148.91 145.50 149.77 145.45 C 150.63 145.39 151.28 144.64 151.22 143.78 Z M 151.16 142.82 L 151.11 141.85 C 151.07 140.99 150.34 140.32 149.48 140.36 C 148.62 140.40 147.95 141.14 147.99 142.00 L 148.04 142.96 C 148.08 143.83 148.81 144.49 149.67 144.45 C 150.53 144.41 151.20 143.68 151.16 142.82 Z M 151.11 141.87 L 151.08 140.75 C 151.05 139.89 150.33 139.21 149.46 139.24 C 148.60 139.27 147.93 139.99 147.95 140.85 L 147.99 141.97 C 148.02 142.83 148.74 143.51 149.60 143.48 C 150.46 143.46 151.14 142.73 151.11 141.87 Z M 151.08 140.78 L 151.06 139.77 C 151.05 138.91 150.34 138.22 149.48 138.23 C 148.62 138.25 147.93 138.96 147.94 139.82 L 147.95 140.82 C 147.97 141.68 148.68 142.37 149.54 142.36 C 150.40 142.35 151.09 141.64 151.08 140.78 Z M 151.06 139.80 L 151.06 138.87 C 151.07 138.01 150.37 137.31 149.51 137.30 C 148.64 137.30 147.94 138.00 147.94 138.86 L 147.94 139.79 C 147.94 140.65 148.63 141.35 149.50 141.36 C 150.36 141.36 151.06 140.66 151.06 139.80 Z M 151.06 138.89 L 151.08 137.91 C 151.10 137.05 150.41 136.34 149.55 136.32 C 148.69 136.31 147.97 136.99 147.96 137.86 L 147.94 138.84 C 147.93 139.70 148.61 140.41 149.47 140.43 C 150.34 140.44 151.05 139.76 151.06 138.89 Z M 151.08 137.98 L 151.15 136.74 C 151.20 135.88 150.55 135.14 149.69 135.09 C 148.83 135.04 148.09 135.69 148.04 136.55 L 147.96 137.79 C 147.91 138.65 148.57 139.39 149.43 139.44 C 150.29 139.49 151.03 138.84 151.08 137.98 Z M 151.10 137.07 L 151.33 136.25 C 151.56 135.42 151.07 134.56 150.24 134.32 C 149.41 134.09 148.55 134.58 148.32 135.41 L 148.09 136.23 C 147.86 137.06 148.34 137.92 149.17 138.15 C 150.00 138.38 150.86 137.90 151.10 137.07 Z M 150.10 137.36 L 150.54 137.28 C 151.39 137.13 151.96 136.32 151.80 135.47 C 151.65 134.62 150.84 134.06 149.99 134.21 L 149.54 134.29 C 148.70 134.45 148.13 135.26 148.29 136.11 C 148.44 136.96 149.25 137.52 150.10 137.36 Z M 149.20 136.89 L 149.79 137.44 C 150.42 138.03 151.41 138.00 152.00 137.37 C 152.59 136.74 152.56 135.76 151.93 135.17 L 151.33 134.61 C 150.70 134.02 149.72 134.05 149.13 134.68 C 148.54 135.31 148.57 136.30 149.20 136.89 Z M 149.55 137.16 L 150.22 138.17 C 150.69 138.90 151.66 139.10 152.38 138.63 C 153.10 138.15 153.30 137.19 152.83 136.46 L 152.17 135.45 C 151.70 134.73 150.73 134.53 150.01 135.00 C 149.28 135.47 149.08 136.44 149.55 137.16 Z M 150.12 138.00 L 150.65 139.09 C 151.03 139.87 151.96 140.19 152.74 139.81 C 153.51 139.44 153.84 138.50 153.46 137.73 L 152.93 136.64 C 152.55 135.86 151.62 135.54 150.84 135.92 C 150.07 136.29 149.74 137.23 150.12 138.00 Z M 150.60 138.96 L 150.96 139.93 C 151.27 140.74 152.17 141.14 152.98 140.84 C 153.78 140.53 154.19 139.63 153.88 138.83 L 153.51 137.86 C 153.21 137.05 152.31 136.64 151.50 136.95 C 150.70 137.26 150.29 138.16 150.60 138.96 Z M 150.92 139.81 L 151.21 140.81 C 151.45 141.64 152.31 142.12 153.14 141.88 C 153.97 141.64 154.45 140.77 154.21 139.95 L 153.92 138.95 C 153.68 138.12 152.82 137.64 151.99 137.88 C 151.16 138.12 150.68 138.98 150.92 139.81 Z M 151.18 140.67 L 151.36 141.65 C 151.52 142.49 152.34 143.05 153.18 142.89 C 154.03 142.73 154.59 141.92 154.43 141.07 L 154.25 140.09 C 154.09 139.24 153.27 138.68 152.42 138.84 C 151.58 139.00 151.02 139.82 151.18 140.67 Z M 151.34 141.46 L 151.39 142.37 C 151.45 143.23 152.19 143.89 153.05 143.83 C 153.91 143.78 154.56 143.04 154.51 142.18 L 154.45 141.26 C 154.40 140.40 153.66 139.75 152.80 139.80 C 151.94 139.85 151.28 140.60 151.34 141.46 Z M 151.41 142.03 L 151.22 143.23 C 151.08 144.08 151.66 144.88 152.52 145.02 C 153.37 145.15 154.17 144.57 154.30 143.72 L 154.49 142.52 C 154.63 141.67 154.05 140.87 153.20 140.73 C 152.35 140.60 151.55 141.18 151.41 142.03 Z M 151.40 142.71 L 150.93 143.55 C 150.51 144.30 150.77 145.25 151.52 145.67 C 152.28 146.10 153.23 145.83 153.65 145.08 L 154.12 144.24 C 154.54 143.49 154.28 142.54 153.53 142.12 C 152.77 141.69 151.82 141.96 151.40 142.71 Z M 151.53 142.95 L 150.86 143.32 C 150.11 143.74 149.84 144.69 150.26 145.44 C 150.67 146.20 151.62 146.47 152.38 146.05 L 153.05 145.68 C 153.80 145.26 154.07 144.31 153.66 143.56 C 153.24 142.80 152.29 142.53 151.53 142.95 Z M 151.99 143.17 L 151.16 142.97 C 150.32 142.76 149.48 143.28 149.27 144.12 C 149.07 144.95 149.59 145.80 150.42 146.00 L 151.25 146.20 C 152.09 146.40 152.93 145.89 153.14 145.05 C 153.34 144.21 152.83 143.37 151.99 143.17 Z M 151.88 143.36 L 151.13 142.64 C 150.51 142.04 149.52 142.05 148.92 142.67 C 148.32 143.29 148.34 144.28 148.96 144.88 L 149.70 145.60 C 150.32 146.20 151.31 146.19 151.91 145.57 C 152.51 144.95 152.50 143.96 151.88 143.36 Z M 151.46 143.10 L 151.03 142.18 C 150.67 141.39 149.74 141.05 148.96 141.42 C 148.18 141.78 147.84 142.71 148.20 143.49 L 148.63 144.41 C 148.99 145.20 149.92 145.54 150.70 145.17 C 151.48 144.81 151.82 143.88 151.46 143.10 Z M 151.15 142.56 L 150.99 141.64 C 150.83 140.79 150.02 140.22 149.17 140.37 C 148.33 140.53 147.76 141.34 147.91 142.19 L 148.08 143.11 C 148.23 143.96 149.04 144.52 149.89 144.37 C 150.74 144.22 151.30 143.41 151.15 142.56 Z M 151.01 141.90 L 151.00 140.88 C 151.00 140.02 150.29 139.33 149.43 139.33 C 148.57 139.34 147.87 140.04 147.88 140.91 L 147.89 141.92 C 147.90 142.79 148.60 143.48 149.46 143.47 C 150.32 143.47 151.02 142.76 151.01 141.90 Z M 150.99 141.08 L 151.12 140.01 C 151.23 139.15 150.62 138.37 149.76 138.27 C 148.90 138.16 148.13 138.77 148.02 139.63 L 147.89 140.71 C 147.79 141.56 148.40 142.34 149.25 142.44 C 150.11 142.55 150.89 141.94 150.99 141.08 Z M 151.10 140.16 L 151.32 139.18 C 151.50 138.33 150.98 137.50 150.13 137.31 C 149.29 137.12 148.46 137.65 148.27 138.49 L 148.05 139.48 C 147.86 140.32 148.39 141.15 149.23 141.34 C 150.07 141.53 150.91 141.00 151.10 140.16 Z M 151.28 139.29 L 151.58 138.34 C 151.83 137.51 151.37 136.64 150.55 136.39 C 149.73 136.13 148.85 136.59 148.60 137.42 L 148.30 138.37 C 148.05 139.20 148.51 140.07 149.33 140.33 C 150.16 140.58 151.03 140.12 151.28 139.29 Z M 151.55 138.44 L 151.91 137.50 C 152.22 136.69 151.82 135.79 151.01 135.48 C 150.21 135.17 149.30 135.57 148.99 136.38 L 148.63 137.32 C 148.32 138.12 148.72 139.02 149.53 139.33 C 150.33 139.64 151.24 139.24 151.55 138.44 Z M 151.87 137.58 L 152.29 136.67 C 152.65 135.88 152.30 134.96 151.51 134.60 C 150.73 134.24 149.80 134.59 149.45 135.37 L 149.03 136.29 C 148.67 137.07 149.02 138.00 149.80 138.36 C 150.59 138.71 151.51 138.37 151.87 137.58 Z M 152.25 136.75 L 152.74 135.83 C 153.14 135.06 152.85 134.12 152.08 133.72 C 151.32 133.31 150.38 133.61 149.97 134.37 L 149.49 135.29 C 149.08 136.06 149.38 137.00 150.14 137.40 C 150.90 137.80 151.85 137.51 152.25 136.75 Z M 152.68 135.92 L 153.23 135.02 C 153.69 134.29 153.46 133.33 152.73 132.88 C 151.99 132.42 151.03 132.65 150.58 133.38 L 150.03 134.28 C 149.57 135.01 149.80 135.97 150.53 136.43 C 151.27 136.88 152.23 136.65 152.68 135.92 Z M 153.16 135.14 L 153.75 134.34 C 154.27 133.65 154.13 132.67 153.44 132.16 C 152.75 131.64 151.77 131.78 151.25 132.47 L 150.66 133.27 C 150.14 133.96 150.28 134.94 150.97 135.45 C 151.66 135.97 152.64 135.83 153.16 135.14 Z M 153.64 134.48 L 154.28 133.80 C 154.87 133.18 154.84 132.19 154.22 131.60 C 153.59 131.00 152.60 131.03 152.01 131.66 L 151.37 132.33 C 150.78 132.96 150.80 133.95 151.43 134.54 C 152.05 135.13 153.04 135.11 153.64 134.48 Z M 154.07 133.99 L 154.95 133.34 C 155.65 132.83 155.80 131.86 155.29 131.16 C 154.78 130.47 153.80 130.31 153.11 130.82 L 152.22 131.47 C 151.53 131.98 151.38 132.96 151.88 133.65 C 152.39 134.35 153.37 134.50 154.07 133.99 Z M 154.54 133.56 L 155.49 133.23 C 156.30 132.95 156.73 132.06 156.45 131.24 C 156.17 130.43 155.28 130.00 154.46 130.28 L 153.52 130.61 C 152.70 130.89 152.27 131.78 152.55 132.59 C 152.84 133.41 153.72 133.84 154.54 133.56 Z M 154.67 133.29 L 155.50 133.45 C 156.34 133.62 157.16 133.07 157.33 132.22 C 157.50 131.37 156.95 130.55 156.10 130.39 L 155.28 130.22 C 154.43 130.06 153.61 130.61 153.44 131.45 C 153.28 132.30 153.83 133.12 154.67 133.29 Z M 154.65 132.97 L 155.18 133.56 C 155.77 134.19 156.76 134.24 157.39 133.65 C 158.03 133.07 158.07 132.08 157.48 131.45 L 156.95 130.86 C 156.37 130.23 155.38 130.18 154.74 130.77 C 154.11 131.35 154.07 132.34 154.65 132.97 Z M 154.90 133.12 L 155.29 134.03 C 155.64 134.82 156.55 135.18 157.35 134.84 C 158.14 134.50 158.50 133.58 158.16 132.79 L 157.77 131.88 C 157.43 131.09 156.51 130.73 155.72 131.07 C 154.92 131.41 154.56 132.33 154.90 133.12 Z M 155.21 133.79 L 155.50 134.90 C 155.71 135.74 156.56 136.24 157.40 136.03 C 158.23 135.81 158.74 134.96 158.52 134.13 L 158.24 133.02 C 158.02 132.18 157.17 131.68 156.34 131.89 C 155.50 132.11 155.00 132.96 155.21 133.79 Z M 155.47 134.79 L 155.65 135.78 C 155.81 136.63 156.62 137.20 157.47 137.04 C 158.32 136.89 158.88 136.08 158.73 135.23 L 158.55 134.24 C 158.39 133.39 157.58 132.82 156.73 132.98 C 155.88 133.13 155.32 133.94 155.47 134.79 Z M 155.64 135.72 L 155.77 136.68 C 155.89 137.53 156.68 138.13 157.53 138.01 C 158.39 137.89 158.99 137.11 158.87 136.25 L 158.74 135.29 C 158.62 134.44 157.83 133.84 156.98 133.96 C 156.12 134.08 155.53 134.86 155.64 135.72 Z M 155.77 136.63 L 155.87 137.62 C 155.96 138.48 156.73 139.10 157.58 139.01 C 158.44 138.93 159.07 138.16 158.98 137.30 L 158.87 136.30 C 158.79 135.45 158.02 134.82 157.16 134.91 C 156.30 135.00 155.68 135.77 155.77 136.63 Z M 155.87 137.58 L 155.95 138.62 C 156.01 139.48 156.76 140.12 157.62 140.06 C 158.48 139.99 159.12 139.24 159.06 138.38 L 158.98 137.34 C 158.92 136.48 158.17 135.84 157.31 135.90 C 156.45 135.97 155.80 136.72 155.87 137.58 Z M 155.94 138.59 L 156.00 139.57 C 156.05 140.43 156.79 141.09 157.65 141.04 C 158.51 141.00 159.17 140.26 159.12 139.40 L 159.06 138.41 C 159.01 137.55 158.28 136.89 157.42 136.94 C 156.55 136.99 155.90 137.73 155.94 138.59 Z M 156.00 139.55 L 156.04 140.50 C 156.07 141.36 156.80 142.03 157.66 141.99 C 158.52 141.96 159.19 141.23 159.16 140.37 L 159.12 139.42 C 159.08 138.56 158.35 137.89 157.49 137.93 C 156.63 137.96 155.96 138.69 156.00 139.55 Z M 156.04 140.48 L 156.07 141.47 C 156.09 142.33 156.81 143.01 157.68 142.98 C 158.54 142.95 159.22 142.23 159.19 141.37 L 159.16 140.39 C 159.13 139.53 158.41 138.85 157.55 138.87 C 156.69 138.90 156.01 139.62 156.04 140.48 Z M 156.07 141.45 L 156.09 142.47 C 156.11 143.34 156.82 144.02 157.68 144.00 C 158.55 143.98 159.23 143.27 159.21 142.41 L 159.19 141.39 C 159.17 140.52 158.46 139.84 157.59 139.86 C 156.73 139.88 156.05 140.59 156.07 141.45 Z M 156.09 142.46 L 156.10 143.52 C 156.12 144.38 156.83 145.07 157.69 145.06 C 158.55 145.05 159.24 144.34 159.23 143.47 L 159.21 142.42 C 159.20 141.56 158.49 140.87 157.63 140.88 C 156.77 140.89 156.08 141.60 156.09 142.46 Z M 156.10 143.51 L 156.11 144.51 C 156.12 145.37 156.83 146.06 157.69 146.06 C 158.55 146.05 159.24 145.34 159.24 144.48 L 159.23 143.48 C 159.22 142.62 158.51 141.93 157.65 141.94 C 156.79 141.94 156.10 142.65 156.10 143.51 Z M 156.11 144.50 L 156.12 145.47 C 156.12 146.33 156.82 147.03 157.68 147.03 C 158.54 147.03 159.24 146.33 159.24 145.46 L 159.24 144.49 C 159.23 143.63 158.53 142.93 157.67 142.93 C 156.81 142.94 156.11 143.64 156.11 144.50 Z M 156.12 145.45 L 156.11 146.44 C 156.10 147.30 156.79 148.01 157.65 148.02 C 158.51 148.03 159.22 147.34 159.23 146.48 L 159.24 145.48 C 159.25 144.62 158.56 143.91 157.69 143.90 C 156.83 143.90 156.13 144.59 156.12 145.45 Z M 156.11 146.41 L 156.08 147.42 C 156.05 148.28 156.73 149.00 157.59 149.03 C 158.45 149.05 159.17 148.37 159.20 147.51 L 159.23 146.50 C 159.25 145.64 158.57 144.92 157.71 144.90 C 156.85 144.87 156.13 145.55 156.11 146.41 Z M 156.08 147.39 L 156.02 148.41 C 155.98 149.27 156.64 150.00 157.50 150.05 C 158.36 150.09 159.10 149.43 159.14 148.57 L 159.20 147.55 C 159.24 146.69 158.58 145.95 157.72 145.91 C 156.86 145.86 156.12 146.52 156.08 147.39 Z M 156.03 148.36 L 155.94 149.39 C 155.87 150.25 156.52 151.01 157.37 151.07 C 158.23 151.14 158.99 150.50 159.06 149.64 L 159.14 148.61 C 159.21 147.75 158.57 147.00 157.71 146.93 C 156.85 146.86 156.10 147.50 156.03 148.36 Z M 155.95 149.34 L 155.83 150.40 C 155.73 151.25 156.35 152.03 157.20 152.12 C 158.06 152.22 158.83 151.61 158.93 150.75 L 159.05 149.69 C 159.15 148.84 158.53 148.06 157.68 147.97 C 156.82 147.87 156.05 148.49 155.95 149.34 Z M 155.84 150.35 L 155.69 151.40 C 155.56 152.25 156.16 153.04 157.01 153.16 C 157.86 153.29 158.65 152.69 158.78 151.84 L 158.93 150.80 C 159.05 149.94 158.46 149.15 157.60 149.03 C 156.75 148.91 155.96 149.50 155.84 150.35 Z M 155.69 151.36 L 155.52 152.38 C 155.38 153.23 155.95 154.03 156.80 154.18 C 157.65 154.32 158.45 153.75 158.60 152.90 L 158.77 151.88 C 158.91 151.03 158.34 150.22 157.49 150.08 C 156.64 149.94 155.83 150.51 155.69 151.36 Z M 155.53 152.34 L 155.34 153.32 C 155.18 154.17 155.73 154.98 156.58 155.15 C 157.43 155.31 158.24 154.75 158.41 153.90 L 158.59 152.93 C 158.75 152.08 158.20 151.27 157.35 151.10 C 156.50 150.94 155.69 151.50 155.53 152.34 Z M 155.34 153.29 L 155.15 154.21 C 154.98 155.05 155.52 155.88 156.36 156.06 C 157.20 156.23 158.03 155.69 158.21 154.85 L 158.40 153.93 C 158.58 153.09 158.04 152.26 157.19 152.08 C 156.35 151.91 155.52 152.45 155.34 153.29 Z M 155.16 154.18 L 154.94 155.15 C 154.75 155.99 155.28 156.82 156.12 157.01 C 156.96 157.21 157.79 156.68 157.98 155.84 L 158.20 154.87 C 158.39 154.03 157.87 153.20 157.03 153.01 C 156.19 152.82 155.35 153.34 155.16 154.18 Z M 154.95 155.12 L 154.69 156.17 C 154.48 157.01 154.99 157.85 155.83 158.06 C 156.67 158.27 157.51 157.76 157.72 156.92 L 157.98 155.87 C 158.18 155.03 157.67 154.18 156.84 153.98 C 156.00 153.77 155.15 154.28 154.95 155.12 Z M 154.69 156.14 L 154.44 157.09 C 154.22 157.92 154.71 158.78 155.55 159.00 C 156.38 159.22 157.24 158.73 157.46 157.89 L 157.71 156.95 C 157.93 156.11 157.44 155.26 156.61 155.04 C 155.77 154.81 154.92 155.31 154.69 156.14 Z M 154.45 157.07 L 154.20 157.95 C 153.96 158.78 154.44 159.64 155.27 159.88 C 156.10 160.11 156.97 159.63 157.20 158.80 L 157.45 157.92 C 157.69 157.09 157.20 156.22 156.38 155.99 C 155.55 155.75 154.68 156.24 154.45 157.07 Z M 154.20 157.94 L 153.94 158.84 C 153.70 159.67 154.17 160.53 155.00 160.78 C 155.83 161.02 156.69 160.54 156.94 159.71 L 157.20 158.81 C 157.44 157.99 156.96 157.12 156.14 156.88 C 155.31 156.64 154.44 157.11 154.20 157.94 Z M 153.94 158.83 L 153.66 159.78 C 153.42 160.60 153.89 161.47 154.71 161.72 C 155.54 161.96 156.41 161.49 156.65 160.66 L 156.93 159.72 C 157.18 158.89 156.71 158.02 155.88 157.78 C 155.05 157.53 154.18 158.01 153.94 158.83 Z M 153.66 159.77 L 153.37 160.72 C 153.12 161.55 153.59 162.42 154.41 162.67 C 155.24 162.92 156.11 162.46 156.36 161.63 L 156.65 160.67 C 156.90 159.85 156.44 158.98 155.61 158.73 C 154.79 158.48 153.91 158.94 153.66 159.77 Z M 153.38 160.71 L 153.07 161.68 C 152.81 162.50 153.27 163.38 154.09 163.64 C 154.91 163.90 155.79 163.44 156.05 162.62 L 156.36 161.65 C 156.61 160.82 156.16 159.95 155.34 159.69 C 154.51 159.43 153.64 159.89 153.38 160.71 Z M 153.08 161.66 L 152.77 162.60 C 152.50 163.42 152.95 164.31 153.76 164.57 C 154.58 164.84 155.47 164.40 155.74 163.58 L 156.04 162.64 C 156.31 161.82 155.87 160.94 155.05 160.67 C 154.23 160.40 153.35 160.84 153.08 161.66 Z M 152.77 162.59 L 152.46 163.53 C 152.18 164.34 152.62 165.23 153.43 165.51 C 154.25 165.78 155.14 165.35 155.41 164.53 L 155.73 163.59 C 156.01 162.78 155.57 161.89 154.75 161.61 C 153.94 161.34 153.05 161.77 152.77 162.59 Z M 152.46 163.52 L 152.13 164.47 C 151.85 165.28 152.28 166.17 153.10 166.45 C 153.91 166.73 154.80 166.30 155.08 165.49 L 155.41 164.54 C 155.69 163.72 155.26 162.83 154.44 162.55 C 153.63 162.27 152.74 162.70 152.46 163.52 Z M 152.13 164.46 L 151.80 165.43 C 151.51 166.24 151.95 167.13 152.76 167.41 C 153.57 167.70 154.46 167.27 154.75 166.45 L 155.08 165.49 C 155.36 164.67 154.93 163.78 154.12 163.50 C 153.30 163.22 152.41 163.65 152.13 164.46 Z M 151.80 165.43 L 151.48 166.35 C 151.20 167.17 151.63 168.06 152.44 168.34 C 153.26 168.62 154.15 168.19 154.43 167.37 L 154.75 166.45 C 155.03 165.63 154.60 164.75 153.78 164.46 C 152.97 164.18 152.08 164.61 151.80 165.43 Z M 151.48 166.35 L 151.16 167.28 C 150.87 168.09 151.30 168.98 152.12 169.26 C 152.93 169.55 153.82 169.12 154.11 168.30 L 154.43 167.38 C 154.71 166.56 154.28 165.67 153.46 165.39 C 152.65 165.11 151.76 165.54 151.48 166.35 Z M 151.16 167.27 L 150.83 168.21 C 150.54 169.02 150.96 169.92 151.77 170.20 C 152.59 170.49 153.48 170.07 153.77 169.25 L 154.10 168.31 C 154.39 167.50 153.97 166.61 153.15 166.32 C 152.34 166.03 151.45 166.46 151.16 167.27 Z M 150.83 168.19 L 150.48 169.16 C 150.18 169.97 150.60 170.86 151.40 171.16 C 152.21 171.46 153.11 171.04 153.41 170.23 L 153.76 169.27 C 154.06 168.46 153.64 167.56 152.83 167.27 C 152.03 166.97 151.13 167.39 150.83 168.19 Z M 150.49 169.14 L 150.12 170.07 C 149.82 170.88 150.22 171.78 151.02 172.09 C 151.83 172.40 152.73 172.00 153.04 171.19 L 153.40 170.26 C 153.71 169.45 153.31 168.55 152.50 168.24 C 151.70 167.93 150.80 168.33 150.49 169.14 Z M 150.13 170.05 L 149.77 170.97 C 149.44 171.77 149.83 172.68 150.63 173.00 C 151.43 173.32 152.34 172.93 152.66 172.13 L 153.03 171.22 C 153.35 170.41 152.96 169.51 152.16 169.19 C 151.36 168.86 150.45 169.25 150.13 170.05 Z M 149.77 170.96 L 149.39 171.88 C 149.06 172.68 149.44 173.59 150.24 173.92 C 151.03 174.25 151.95 173.87 152.27 173.07 L 152.66 172.15 C 152.99 171.35 152.61 170.44 151.81 170.11 C 151.01 169.78 150.10 170.16 149.77 170.96 Z M 149.39 171.87 L 149.00 172.81 C 148.67 173.60 149.04 174.52 149.83 174.85 C 150.63 175.18 151.54 174.81 151.88 174.02 L 152.27 173.08 C 152.60 172.29 152.23 171.37 151.44 171.04 C 150.64 170.71 149.73 171.08 149.39 171.87 Z M 149.00 172.80 L 148.61 173.73 C 148.27 174.52 148.64 175.44 149.43 175.78 C 150.22 176.12 151.14 175.75 151.48 174.95 L 151.88 174.02 C 152.21 173.23 151.84 172.31 151.05 171.97 C 150.26 171.64 149.34 172.01 149.00 172.80 Z M 148.61 173.73 L 148.21 174.65 C 147.87 175.45 148.24 176.37 149.03 176.70 C 149.82 177.04 150.74 176.68 151.08 175.89 L 151.48 174.96 C 151.82 174.16 151.45 173.25 150.66 172.91 C 149.86 172.57 148.95 172.93 148.61 173.73 Z M 148.21 174.65 L 147.81 175.57 C 147.47 176.36 147.84 177.28 148.63 177.62 C 149.42 177.97 150.34 177.60 150.68 176.81 L 151.08 175.89 C 151.42 175.10 151.06 174.18 150.26 173.84 C 149.47 173.49 148.55 173.86 148.21 174.65 Z M 147.82 175.56 L 147.42 176.48 C 147.07 177.27 147.43 178.19 148.22 178.54 C 149.01 178.88 149.93 178.52 150.28 177.73 L 150.68 176.82 C 151.02 176.03 150.66 175.11 149.87 174.76 C 149.08 174.42 148.16 174.77 147.82 175.56 Z M 147.42 176.47 L 147.01 177.38 C 146.66 178.16 147.02 179.09 147.80 179.44 C 148.59 179.79 149.51 179.44 149.87 178.65 L 150.27 177.74 C 150.62 176.95 150.27 176.03 149.48 175.68 C 148.69 175.33 147.77 175.68 147.42 176.47 Z M 147.02 177.36 L 146.61 178.27 C 146.25 179.05 146.59 179.98 147.38 180.34 C 148.16 180.70 149.09 180.35 149.45 179.57 L 149.86 178.66 C 150.22 177.88 149.87 176.95 149.09 176.59 C 148.30 176.24 147.38 176.58 147.02 177.36 Z M 146.61 178.25 L 146.19 179.16 C 145.82 179.94 146.16 180.87 146.94 181.24 C 147.72 181.60 148.65 181.27 149.01 180.49 L 149.44 179.58 C 149.81 178.80 149.47 177.87 148.69 177.51 C 147.91 177.14 146.98 177.47 146.61 178.25 Z M 146.20 179.14 L 145.76 180.04 C 145.38 180.81 145.71 181.75 146.48 182.13 C 147.26 182.50 148.19 182.18 148.57 181.40 L 149.00 180.51 C 149.38 179.73 149.06 178.80 148.28 178.42 C 147.51 178.04 146.57 178.37 146.20 179.14 Z M 145.77 180.02 L 145.32 180.91 C 144.93 181.68 145.24 182.62 146.01 183.01 C 146.78 183.40 147.72 183.09 148.11 182.32 L 148.56 181.42 C 148.95 180.65 148.64 179.72 147.87 179.33 C 147.10 178.94 146.16 179.25 145.77 180.02 Z M 145.33 180.89 L 144.87 181.78 C 144.47 182.54 144.76 183.48 145.52 183.88 C 146.29 184.28 147.23 183.99 147.63 183.23 L 148.10 182.34 C 148.50 181.58 148.20 180.63 147.44 180.23 C 146.68 179.83 145.73 180.13 145.33 180.89 Z M 144.88 181.75 L 144.40 182.63 C 143.98 183.39 144.26 184.34 145.02 184.75 C 145.77 185.17 146.72 184.89 147.14 184.13 L 147.62 183.25 C 148.03 182.49 147.75 181.54 147.00 181.13 C 146.24 180.72 145.29 181.00 144.88 181.75 Z M 144.41 182.61 L 143.91 183.48 C 143.49 184.23 143.75 185.18 144.50 185.61 C 145.25 186.04 146.20 185.78 146.63 185.03 L 147.12 184.15 C 147.55 183.41 147.29 182.45 146.54 182.03 C 145.79 181.60 144.84 181.86 144.41 182.61 Z M 143.93 183.46 L 143.42 184.32 C 142.98 185.06 143.22 186.02 143.96 186.46 C 144.70 186.90 145.66 186.66 146.10 185.91 L 146.61 185.05 C 147.05 184.31 146.81 183.35 146.07 182.91 C 145.32 182.47 144.37 182.72 143.93 183.46 Z M 143.43 184.30 L 142.91 185.15 C 142.45 185.88 142.68 186.85 143.42 187.30 C 144.15 187.75 145.11 187.52 145.57 186.79 L 146.09 185.94 C 146.54 185.20 146.31 184.24 145.58 183.79 C 144.84 183.34 143.88 183.57 143.43 184.30 Z M 142.92 185.13 L 142.38 185.97 C 141.92 186.69 142.13 187.66 142.86 188.12 C 143.59 188.59 144.55 188.37 145.02 187.65 L 145.55 186.81 C 146.02 186.08 145.80 185.11 145.08 184.65 C 144.35 184.19 143.38 184.40 142.92 185.13 Z M 142.40 185.95 L 141.83 186.80 C 141.35 187.52 141.55 188.49 142.27 188.97 C 142.99 189.44 143.96 189.25 144.43 188.53 L 145.00 187.67 C 145.48 186.95 145.28 185.98 144.56 185.50 C 143.84 185.03 142.87 185.23 142.40 185.95 Z M 141.84 186.78 L 141.27 187.62 C 140.79 188.33 140.97 189.30 141.68 189.79 C 142.39 190.28 143.36 190.09 143.85 189.38 L 144.42 188.55 C 144.91 187.84 144.73 186.86 144.01 186.38 C 143.30 185.89 142.33 186.07 141.84 186.78 Z M 141.29 187.60 L 140.71 188.41 C 140.22 189.12 140.38 190.09 141.09 190.59 C 141.79 191.08 142.77 190.92 143.26 190.21 L 143.84 189.40 C 144.33 188.70 144.17 187.72 143.46 187.23 C 142.76 186.73 141.78 186.90 141.29 187.60 Z M 140.73 188.39 L 140.16 189.18 C 139.65 189.87 139.80 190.85 140.50 191.36 C 141.19 191.86 142.17 191.71 142.68 191.01 L 143.25 190.23 C 143.76 189.53 143.60 188.56 142.91 188.05 C 142.21 187.54 141.23 187.70 140.73 188.39 Z M 140.17 189.16 L 139.56 189.97 C 139.04 190.66 139.18 191.64 139.87 192.16 C 140.56 192.67 141.54 192.53 142.06 191.84 L 142.67 191.03 C 143.18 190.34 143.04 189.36 142.35 188.85 C 141.66 188.33 140.69 188.47 140.17 189.16 Z M 139.57 189.96 L 138.96 190.75 C 138.43 191.44 138.56 192.42 139.24 192.94 C 139.92 193.47 140.90 193.34 141.43 192.66 L 142.04 191.86 C 142.57 191.18 142.44 190.20 141.76 189.67 C 141.08 189.14 140.10 189.27 139.57 189.96 Z M 138.96 190.74 L 138.35 191.52 C 137.82 192.20 137.94 193.18 138.62 193.71 C 139.30 194.25 140.28 194.13 140.81 193.45 L 141.42 192.67 C 141.95 191.99 141.83 191.01 141.16 190.48 C 140.48 189.95 139.50 190.06 138.96 190.74 Z M 138.36 191.52 L 137.75 192.28 C 137.21 192.96 137.33 193.94 138.00 194.48 C 138.68 195.01 139.66 194.90 140.20 194.22 L 140.81 193.45 C 141.34 192.78 141.23 191.80 140.55 191.26 C 139.88 190.73 138.89 190.84 138.36 191.52 Z M 137.75 192.28 L 137.66 192.39 C 137.13 193.07 137.24 194.05 137.92 194.58 C 138.59 195.12 139.57 195.01 140.11 194.33 L 140.20 194.22 C 140.73 193.55 140.62 192.57 139.94 192.03 C 139.27 191.49 138.29 191.61 137.75 192.28 Z"
      fill="black"
      fill-rule="nonzero" /></svg>