<svg xmlns="http://www.w3.org/2000/svg" width="300" height="300" viewBox="0 0 300 300">
<path d="M 151.71 150.60 L 151.71 149.56 C 151.71 148.70 151.01 148.00 150.14 148.00 C 149.28 148.00 148.58 148.70 148.58 149.57 L 148.58 150.60 C 148.58 151.47 149.28 152.17 150.15 152.16 C 151.01 152.16 151.71 151.47 151.71 150.60 Z M 151.71 149.56 L 151.70 148.54 C 151.70 147.68 151.00 146.98 150.14 146.98 C 149.28 146.99 148.58 147.69 148.58 148.55 L 148.58 149.57 C 148.59 150.43 149.29 151.13 150.15 151.13 C 151.01 151.12 151.71 150.42 151.71 149.56 Z M 151.70 148.53 L 151.70 147.54 C 151.69 146.68 150.98 145.99 150.12 146.00 C 149.26 146.00 148.57 146.71 148.57 147.57 L 148.58 148.56 C 148.59 149.42 149.29 150.11 150.16 150.11 C 151.02 150.10 151.71 149.39 151.70 148.53 Z M 151.69 147.53 L 151.68 146.58 C 151.66 145.72 150.95 145.03 150.09 145.05 C 149.23 145.06 148.54 145.77 148.56 146.63 L 148.57 147.58 C 148.59 148.45 149.30 149.13 150.16 149.12 C 151.02 149.10 151.71 148.39 151.69 147.53 Z M 151.68 146.56 L 151.65 145.60 C 151.63 144.74 150.91 144.06 150.05 144.09 C 149.18 144.11 148.51 144.83 148.53 145.69 L 148.56 146.65 C 148.58 147.51 149.30 148.19 150.16 148.17 C 151.02 148.14 151.70 147.42 151.68 146.56 Z M 151.65 145.60 L 151.62 144.63 C 151.59 143.77 150.87 143.09 150.01 143.12 C 149.15 143.15 148.47 143.87 148.50 144.73 L 148.53 145.70 C 148.56 146.56 149.28 147.23 150.14 147.21 C 151.00 147.18 151.68 146.46 151.65 145.60 Z M 151.62 144.64 L 151.59 143.60 C 151.57 142.74 150.85 142.06 149.99 142.08 C 149.13 142.11 148.45 142.83 148.47 143.69 L 148.50 144.72 C 148.52 145.59 149.24 146.27 150.10 146.24 C 150.96 146.22 151.64 145.50 151.62 144.64 Z M 151.59 143.62 L 151.58 142.61 C 151.56 141.75 150.85 141.06 149.99 141.08 C 149.13 141.09 148.44 141.80 148.45 142.67 L 148.47 143.67 C 148.49 144.53 149.20 145.22 150.06 145.21 C 150.92 145.19 151.61 144.48 151.59 143.62 Z M 151.58 142.62 L 151.57 141.62 C 151.56 140.76 150.85 140.06 149.99 140.07 C 149.13 140.08 148.44 140.78 148.44 141.65 L 148.45 142.65 C 148.46 143.52 149.17 144.21 150.03 144.20 C 150.89 144.19 151.58 143.49 151.58 142.62 Z M 151.57 141.63 L 151.56 140.59 C 151.56 139.73 150.86 139.03 149.99 139.04 C 149.13 139.04 148.44 139.74 148.44 140.60 L 148.44 141.64 C 148.45 142.50 149.15 143.20 150.01 143.19 C 150.87 143.19 151.57 142.49 151.57 141.63 Z M 151.56 140.60 L 151.56 139.58 C 151.56 138.72 150.86 138.02 150.00 138.02 C 149.14 138.02 148.44 138.72 148.44 139.58 L 148.44 140.60 C 148.44 141.46 149.14 142.16 150.00 142.16 C 150.87 142.16 151.56 141.46 151.56 140.60 Z M 151.56 139.58 L 151.56 138.57 C 151.56 137.71 150.86 137.01 150.00 137.01 C 149.14 137.01 148.44 137.71 148.44 138.57 L 148.44 139.58 C 148.44 140.44 149.14 141.14 150.00 141.14 C 150.86 141.14 151.56 140.44 151.56 139.58 Z M 151.56 138.58 L 151.57 137.52 C 151.57 136.66 150.88 135.96 150.02 135.95 C 149.16 135.94 148.45 136.64 148.45 137.50 L 148.44 138.56 C 148.43 139.42 149.13 140.12 149.99 140.13 C 150.85 140.14 151.56 139.44 151.56 138.58 Z M 151.57 137.56 L 151.60 136.59 C 151.63 135.73 150.96 135.01 150.09 134.98 C 149.23 134.95 148.51 135.62 148.48 136.48 L 148.45 137.46 C 148.42 138.32 149.09 139.04 149.95 139.07 C 150.81 139.10 151.54 138.43 151.57 137.56 Z M 151.60 136.67 L 151.68 135.73 C 151.75 134.87 151.12 134.11 150.26 134.04 C 149.40 133.97 148.64 134.60 148.57 135.46 L 148.49 136.40 C 148.41 137.26 149.05 138.02 149.91 138.09 C 150.77 138.17 151.52 137.53 151.60 136.67 Z M 151.66 135.84 L 151.82 134.86 C 151.95 134.01 151.37 133.21 150.52 133.08 C 149.67 132.94 148.87 133.53 148.73 134.38 L 148.58 135.35 C 148.45 136.20 149.03 137.00 149.88 137.14 C 150.73 137.27 151.53 136.69 151.66 135.84 Z M 151.79 135.00 L 152.03 134.01 C 152.24 133.17 151.73 132.33 150.89 132.12 C 150.06 131.91 149.21 132.43 149.00 133.26 L 148.76 134.25 C 148.55 135.08 149.06 135.93 149.90 136.14 C 150.74 136.34 151.58 135.83 151.79 135.00 Z M 151.99 134.17 L 152.33 133.23 C 152.62 132.42 152.21 131.52 151.40 131.23 C 150.59 130.93 149.69 131.35 149.40 132.16 L 149.05 133.10 C 148.76 133.91 149.17 134.81 149.98 135.10 C 150.79 135.40 151.69 134.98 151.99 134.17 Z M 152.24 133.43 L 152.72 132.54 C 153.13 131.78 152.84 130.84 152.08 130.43 C 151.32 130.02 150.38 130.30 149.97 131.06 L 149.49 131.96 C 149.08 132.72 149.36 133.66 150.12 134.07 C 150.88 134.48 151.83 134.19 152.24 133.43 Z M 152.53 132.81 L 153.22 132.00 C 153.78 131.34 153.70 130.36 153.04 129.80 C 152.38 129.24 151.40 129.32 150.84 129.98 L 150.15 130.79 C 149.59 131.45 149.67 132.44 150.33 132.99 C 150.99 133.55 151.97 133.47 152.53 132.81 Z M 152.84 132.33 L 153.65 131.84 C 154.39 131.40 154.62 130.44 154.18 129.70 C 153.73 128.96 152.77 128.72 152.04 129.17 L 151.22 129.65 C 150.49 130.10 150.25 131.06 150.69 131.80 C 151.14 132.54 152.10 132.77 152.84 132.33 Z M 152.93 132.06 L 153.81 132.01 C 154.67 131.96 155.33 131.23 155.28 130.37 C 155.23 129.50 154.49 128.85 153.63 128.89 L 152.75 128.94 C 151.89 128.99 151.23 129.73 151.28 130.59 C 151.33 131.45 152.07 132.11 152.93 132.06 Z M 153.10 131.89 L 153.97 132.26 C 154.77 132.60 155.68 132.24 156.02 131.44 C 156.36 130.65 156.00 129.73 155.21 129.39 L 154.34 129.02 C 153.55 128.68 152.63 129.04 152.29 129.84 C 151.95 130.63 152.31 131.55 153.10 131.89 Z M 153.57 132.01 L 154.36 132.69 C 155.02 133.25 156.00 133.17 156.56 132.52 C 157.13 131.86 157.05 130.88 156.40 130.32 L 155.61 129.64 C 154.95 129.08 153.97 129.16 153.40 129.81 C 152.84 130.47 152.92 131.45 153.57 132.01 Z M 154.11 132.41 L 154.71 133.25 C 155.21 133.96 156.19 134.12 156.89 133.62 C 157.59 133.12 157.75 132.14 157.25 131.44 L 156.65 130.60 C 156.15 129.89 155.17 129.73 154.47 130.23 C 153.77 130.73 153.61 131.71 154.11 132.41 Z M 154.54 132.95 L 154.92 133.85 C 155.25 134.65 156.16 135.02 156.96 134.69 C 157.75 134.36 158.13 133.45 157.80 132.65 L 157.42 131.75 C 157.09 130.95 156.18 130.58 155.38 130.91 C 154.59 131.24 154.21 132.15 154.54 132.95 Z M 154.84 133.60 L 155.06 134.57 C 155.25 135.41 156.09 135.93 156.93 135.74 C 157.77 135.55 158.30 134.71 158.10 133.87 L 157.88 132.90 C 157.68 132.06 156.85 131.53 156.01 131.73 C 155.17 131.92 154.64 132.76 154.84 133.60 Z M 155.03 134.41 L 155.16 135.43 C 155.27 136.29 156.05 136.89 156.90 136.78 C 157.76 136.68 158.37 135.90 158.26 135.04 L 158.13 134.02 C 158.02 133.17 157.24 132.56 156.39 132.67 C 155.53 132.78 154.92 133.56 155.03 134.41 Z M 155.15 135.36 L 155.23 136.34 C 155.29 137.20 156.05 137.84 156.91 137.78 C 157.76 137.71 158.41 136.96 158.34 136.10 L 158.27 135.12 C 158.20 134.26 157.45 133.61 156.59 133.68 C 155.73 133.75 155.09 134.50 155.15 135.36 Z M 155.23 136.29 L 155.27 137.30 C 155.31 138.16 156.05 138.82 156.91 138.78 C 157.77 138.74 158.43 138.01 158.39 137.15 L 158.34 136.14 C 158.30 135.28 157.57 134.62 156.71 134.66 C 155.85 134.70 155.18 135.43 155.23 136.29 Z M 155.27 137.26 L 155.30 138.27 C 155.32 139.13 156.04 139.81 156.90 139.79 C 157.77 139.77 158.45 139.05 158.42 138.19 L 158.39 137.18 C 158.37 136.32 157.65 135.64 156.79 135.66 C 155.93 135.68 155.25 136.40 155.27 137.26 Z M 155.30 138.25 L 155.31 139.27 C 155.33 140.13 156.04 140.82 156.90 140.81 C 157.76 140.80 158.45 140.09 158.44 139.22 L 158.42 138.21 C 158.41 137.34 157.70 136.66 156.84 136.67 C 155.98 136.68 155.29 137.39 155.30 138.25 Z M 155.31 139.24 L 155.31 140.25 C 155.31 141.12 156.00 141.82 156.87 141.82 C 157.73 141.83 158.43 141.13 158.43 140.27 L 158.44 139.25 C 158.44 138.39 157.74 137.69 156.88 137.69 C 156.02 137.68 155.32 138.38 155.31 139.24 Z M 155.31 140.20 L 155.27 141.19 C 155.24 142.05 155.91 142.78 156.77 142.81 C 157.63 142.85 158.36 142.18 158.39 141.32 L 158.43 140.32 C 158.47 139.46 157.80 138.74 156.93 138.70 C 156.07 138.67 155.35 139.34 155.31 140.20 Z M 155.28 141.11 L 155.19 142.07 C 155.10 142.93 155.73 143.69 156.59 143.78 C 157.45 143.86 158.21 143.23 158.29 142.37 L 158.39 141.40 C 158.47 140.54 157.84 139.78 156.98 139.70 C 156.12 139.62 155.36 140.25 155.28 141.11 Z M 155.20 141.95 L 155.04 142.90 C 154.89 143.75 155.46 144.56 156.31 144.71 C 157.15 144.86 157.96 144.29 158.11 143.44 L 158.28 142.49 C 158.43 141.64 157.86 140.83 157.01 140.68 C 156.16 140.54 155.35 141.10 155.20 141.95 Z M 155.07 142.75 L 154.81 143.70 C 154.57 144.53 155.06 145.39 155.89 145.62 C 156.72 145.85 157.58 145.37 157.81 144.54 L 158.08 143.59 C 158.31 142.76 157.82 141.90 156.99 141.67 C 156.16 141.44 155.30 141.92 155.07 142.75 Z M 154.86 143.53 L 154.47 144.50 C 154.15 145.30 154.54 146.21 155.33 146.53 C 156.13 146.85 157.04 146.47 157.37 145.67 L 157.76 144.70 C 158.08 143.90 157.69 142.99 156.89 142.67 C 156.09 142.35 155.18 142.73 154.86 143.53 Z M 154.54 144.35 L 154.07 145.23 C 153.67 145.99 153.96 146.94 154.72 147.34 C 155.48 147.74 156.43 147.45 156.83 146.69 L 157.30 145.81 C 157.70 145.05 157.41 144.11 156.65 143.70 C 155.89 143.30 154.94 143.59 154.54 144.35 Z M 154.15 145.10 L 153.59 145.95 C 153.12 146.67 153.32 147.64 154.04 148.11 C 154.76 148.58 155.73 148.38 156.20 147.66 L 156.76 146.82 C 157.23 146.09 157.03 145.13 156.31 144.65 C 155.59 144.18 154.62 144.38 154.15 145.10 Z M 153.68 145.82 L 153.04 146.62 C 152.50 147.29 152.61 148.27 153.28 148.81 C 153.95 149.36 154.93 149.25 155.47 148.58 L 156.11 147.79 C 156.66 147.12 156.55 146.13 155.88 145.59 C 155.21 145.05 154.23 145.15 153.68 145.82 Z M 153.17 146.48 L 152.46 147.17 C 151.84 147.77 151.83 148.76 152.43 149.38 C 153.03 150.00 154.02 150.01 154.64 149.41 L 155.35 148.72 C 155.96 148.12 155.98 147.13 155.38 146.51 C 154.78 145.89 153.79 145.88 153.17 146.48 Z M 152.66 147.00 L 151.75 147.63 C 151.04 148.12 150.86 149.09 151.35 149.80 C 151.84 150.51 152.81 150.69 153.52 150.20 L 154.43 149.58 C 155.14 149.09 155.32 148.11 154.83 147.40 C 154.34 146.69 153.37 146.52 152.66 147.00 Z M 152.07 147.46 L 151.12 147.83 C 150.32 148.15 149.92 149.05 150.24 149.86 C 150.55 150.66 151.46 151.06 152.26 150.74 L 153.21 150.37 C 154.01 150.06 154.41 149.15 154.09 148.35 C 153.78 147.54 152.87 147.15 152.07 147.46 Z M 151.60 147.73 L 150.70 147.78 C 149.84 147.83 149.18 148.57 149.23 149.43 C 149.28 150.29 150.02 150.95 150.88 150.90 L 151.78 150.85 C 152.64 150.80 153.30 150.06 153.25 149.20 C 153.20 148.33 152.46 147.68 151.60 147.73 Z M 151.36 147.89 L 150.52 147.56 C 149.72 147.25 148.82 147.64 148.50 148.45 C 148.19 149.25 148.58 150.15 149.39 150.47 L 150.22 150.79 C 151.02 151.11 151.93 150.71 152.24 149.91 C 152.56 149.11 152.16 148.20 151.36 147.89 Z M 151.05 147.90 L 150.36 147.22 C 149.74 146.62 148.75 146.63 148.15 147.24 C 147.55 147.86 147.56 148.85 148.17 149.45 L 148.86 150.13 C 149.48 150.73 150.47 150.72 151.07 150.11 C 151.67 149.49 151.66 148.50 151.05 147.90 Z M 150.63 147.58 L 150.12 146.66 C 149.70 145.91 148.75 145.64 148.00 146.06 C 147.24 146.48 146.97 147.43 147.39 148.18 L 147.90 149.10 C 148.32 149.85 149.27 150.12 150.02 149.70 C 150.78 149.28 151.05 148.33 150.63 147.58 Z M 150.25 146.98 L 149.96 146.00 C 149.71 145.18 148.84 144.71 148.02 144.96 C 147.19 145.20 146.72 146.07 146.97 146.90 L 147.26 147.87 C 147.51 148.70 148.38 149.17 149.20 148.92 C 150.03 148.67 150.50 147.80 150.25 146.98 Z M 150.01 146.25 L 149.88 145.26 C 149.77 144.41 148.99 143.80 148.14 143.92 C 147.28 144.03 146.68 144.81 146.79 145.66 L 146.92 146.65 C 147.03 147.51 147.81 148.11 148.67 148.00 C 149.52 147.89 150.12 147.11 150.01 146.25 Z M 149.90 145.43 L 149.87 144.42 C 149.85 143.56 149.14 142.88 148.27 142.90 C 147.41 142.92 146.73 143.63 146.75 144.50 L 146.78 145.50 C 146.80 146.36 147.51 147.05 148.37 147.02 C 149.24 147.00 149.92 146.29 149.90 145.43 Z M 149.87 144.51 L 149.90 143.51 C 149.93 142.65 149.25 141.93 148.39 141.90 C 147.53 141.87 146.81 142.55 146.78 143.41 L 146.75 144.41 C 146.72 145.27 147.40 145.99 148.26 146.02 C 149.12 146.05 149.84 145.37 149.87 144.51 Z M 149.90 143.56 L 149.97 142.58 C 150.02 141.72 149.37 140.98 148.51 140.92 C 147.65 140.86 146.91 141.52 146.85 142.38 L 146.79 143.36 C 146.73 144.22 147.38 144.96 148.24 145.02 C 149.10 145.07 149.84 144.42 149.90 143.56 Z M 149.96 142.67 L 150.08 141.68 C 150.18 140.82 149.57 140.05 148.71 139.95 C 147.86 139.84 147.08 140.45 146.98 141.31 L 146.86 142.29 C 146.76 143.15 147.37 143.93 148.22 144.03 C 149.08 144.13 149.86 143.52 149.96 142.67 Z M 150.06 141.79 L 150.25 140.78 C 150.41 139.93 149.86 139.11 149.01 138.95 C 148.16 138.79 147.35 139.35 147.19 140.19 L 146.99 141.20 C 146.83 142.05 147.39 142.87 148.23 143.03 C 149.08 143.19 149.90 142.63 150.06 141.79 Z M 150.23 140.88 L 150.47 139.97 C 150.69 139.13 150.19 138.28 149.36 138.06 C 148.53 137.84 147.67 138.34 147.45 139.17 L 147.21 140.09 C 146.99 140.92 147.49 141.77 148.32 141.99 C 149.15 142.21 150.01 141.72 150.23 140.88 Z M 150.45 140.04 L 150.75 139.10 C 151.01 138.28 150.56 137.40 149.74 137.14 C 148.91 136.88 148.04 137.33 147.77 138.15 L 147.47 139.09 C 147.21 139.92 147.67 140.79 148.49 141.06 C 149.31 141.32 150.19 140.86 150.45 140.04 Z M 150.73 139.15 L 151.08 138.19 C 151.37 137.37 150.94 136.48 150.13 136.19 C 149.32 135.90 148.42 136.33 148.13 137.14 L 147.79 138.10 C 147.50 138.91 147.93 139.81 148.74 140.10 C 149.55 140.39 150.44 139.96 150.73 139.15 Z M 151.06 138.22 L 151.44 137.24 C 151.74 136.44 151.34 135.53 150.53 135.23 C 149.72 134.92 148.82 135.33 148.52 136.13 L 148.15 137.11 C 147.84 137.91 148.25 138.82 149.05 139.12 C 149.86 139.43 150.76 139.02 151.06 138.22 Z M 151.43 137.26 L 151.80 136.31 C 152.12 135.50 151.72 134.60 150.92 134.28 C 150.12 133.97 149.21 134.36 148.90 135.16 L 148.52 136.12 C 148.21 136.92 148.60 137.82 149.40 138.14 C 150.21 138.46 151.11 138.06 151.43 137.26 Z M 151.80 136.33 L 152.18 135.39 C 152.51 134.59 152.13 133.68 151.33 133.35 C 150.53 133.02 149.62 133.41 149.29 134.20 L 148.91 135.14 C 148.58 135.94 148.96 136.85 149.76 137.18 C 150.56 137.51 151.47 137.12 151.80 136.33 Z M 152.17 135.41 L 152.56 134.50 C 152.90 133.71 152.54 132.79 151.75 132.45 C 150.95 132.11 150.04 132.47 149.69 133.26 L 149.30 134.18 C 148.96 134.97 149.33 135.89 150.12 136.23 C 150.91 136.57 151.83 136.20 152.17 135.41 Z M 152.55 134.53 L 152.96 133.65 C 153.31 132.86 152.97 131.93 152.19 131.58 C 151.40 131.22 150.48 131.56 150.12 132.34 L 149.71 133.23 C 149.35 134.01 149.69 134.94 150.48 135.30 C 151.26 135.66 152.19 135.32 152.55 134.53 Z M 152.93 133.70 L 153.40 132.77 C 153.79 132.00 153.48 131.06 152.71 130.67 C 151.94 130.28 151.01 130.59 150.62 131.36 L 150.14 132.29 C 149.75 133.06 150.06 134.00 150.83 134.39 C 151.60 134.78 152.54 134.47 152.93 133.70 Z M 153.35 132.86 L 153.86 132.01 C 154.30 131.27 154.06 130.31 153.31 129.87 C 152.57 129.43 151.62 129.67 151.17 130.41 L 150.67 131.26 C 150.23 132.00 150.47 132.96 151.21 133.40 C 151.95 133.85 152.91 133.60 153.35 132.86 Z M 153.77 132.14 L 154.34 131.36 C 154.85 130.67 154.71 129.69 154.01 129.18 C 153.32 128.67 152.34 128.82 151.83 129.51 L 151.26 130.28 C 150.75 130.98 150.89 131.95 151.59 132.47 C 152.28 132.98 153.26 132.83 153.77 132.14 Z M 154.20 131.53 L 154.97 130.74 C 155.58 130.13 155.57 129.14 154.95 128.53 C 154.33 127.93 153.35 127.94 152.74 128.56 L 151.97 129.34 C 151.37 129.96 151.38 130.95 151.99 131.55 C 152.61 132.16 153.60 132.15 154.20 131.53 Z M 154.70 130.97 L 155.57 130.41 C 156.29 129.95 156.51 128.98 156.04 128.26 C 155.58 127.53 154.62 127.32 153.89 127.78 L 153.02 128.33 C 152.29 128.80 152.08 129.76 152.54 130.49 C 153.01 131.22 153.97 131.43 154.70 130.97 Z M 154.84 130.65 L 155.66 130.59 C 156.52 130.53 157.16 129.78 157.10 128.92 C 157.04 128.06 156.29 127.42 155.43 127.48 L 154.61 127.54 C 153.75 127.60 153.11 128.35 153.17 129.21 C 153.23 130.07 153.98 130.71 154.84 130.65 Z M 154.55 130.24 L 155.13 130.72 C 155.80 131.26 156.78 131.17 157.33 130.50 C 157.87 129.83 157.78 128.85 157.11 128.30 L 156.53 127.83 C 155.87 127.28 154.88 127.38 154.34 128.04 C 153.79 128.71 153.89 129.69 154.55 130.24 Z M 154.73 130.22 L 155.18 131.09 C 155.57 131.85 156.51 132.16 157.28 131.76 C 158.04 131.37 158.35 130.43 157.95 129.66 L 157.51 128.80 C 157.12 128.03 156.17 127.73 155.41 128.12 C 154.64 128.52 154.34 129.46 154.73 130.22 Z M 155.07 130.81 L 155.39 131.92 C 155.63 132.74 156.49 133.22 157.32 132.98 C 158.15 132.74 158.63 131.87 158.39 131.05 L 158.06 129.94 C 157.82 129.11 156.96 128.63 156.13 128.87 C 155.30 129.11 154.82 129.98 155.07 130.81 Z M 155.35 131.75 L 155.53 132.79 C 155.68 133.64 156.49 134.21 157.34 134.06 C 158.19 133.91 158.76 133.10 158.61 132.25 L 158.42 131.21 C 158.27 130.36 157.46 129.79 156.61 129.94 C 155.77 130.09 155.20 130.90 155.35 131.75 Z M 155.52 132.69 L 155.62 133.66 C 155.71 134.52 156.48 135.14 157.34 135.05 C 158.20 134.96 158.82 134.19 158.73 133.33 L 158.62 132.36 C 158.53 131.50 157.76 130.88 156.90 130.97 C 156.05 131.06 155.43 131.83 155.52 132.69 Z M 155.61 133.59 L 155.67 134.59 C 155.72 135.45 156.46 136.10 157.32 136.05 C 158.18 136.00 158.84 135.26 158.79 134.40 L 158.73 133.41 C 158.68 132.54 157.94 131.89 157.08 131.94 C 156.22 131.99 155.56 132.73 155.61 133.59 Z M 155.67 134.54 L 155.70 135.56 C 155.72 136.42 156.44 137.10 157.30 137.08 C 158.17 137.05 158.85 136.33 158.82 135.47 L 158.79 134.45 C 158.77 133.59 158.05 132.91 157.19 132.93 C 156.33 132.96 155.65 133.68 155.67 134.54 Z M 155.70 135.54 L 155.71 136.55 C 155.72 137.41 156.43 138.10 157.29 138.09 C 158.16 138.08 158.85 137.37 158.84 136.51 L 158.82 135.49 C 158.81 134.63 158.10 133.94 157.24 133.95 C 156.38 133.97 155.69 134.67 155.70 135.54 Z M 155.71 136.54 L 155.72 137.53 C 155.72 138.40 156.42 139.09 157.28 139.09 C 158.15 139.09 158.84 138.39 158.84 137.52 L 158.84 136.53 C 158.83 135.66 158.13 134.97 157.27 134.97 C 156.41 134.97 155.71 135.67 155.71 136.54 Z M 155.72 137.51 L 155.70 138.51 C 155.69 139.38 156.38 140.08 157.24 140.09 C 158.11 140.11 158.81 139.42 158.83 138.55 L 158.84 137.55 C 158.85 136.69 158.16 135.98 157.30 135.97 C 156.44 135.96 155.73 136.65 155.72 137.51 Z M 155.70 138.48 L 155.67 139.48 C 155.63 140.34 156.31 141.06 157.17 141.10 C 158.03 141.13 158.75 140.46 158.79 139.59 L 158.82 138.59 C 158.86 137.73 158.18 137.01 157.32 136.97 C 156.46 136.94 155.74 137.61 155.70 138.48 Z M 155.67 139.43 L 155.60 140.42 C 155.54 141.28 156.19 142.03 157.05 142.09 C 157.91 142.15 158.66 141.50 158.71 140.64 L 158.78 139.64 C 158.84 138.78 158.20 138.04 157.34 137.98 C 156.48 137.92 155.73 138.57 155.67 139.43 Z M 155.61 140.36 L 155.49 141.40 C 155.40 142.25 156.02 143.02 156.87 143.12 C 157.73 143.21 158.50 142.59 158.60 141.74 L 158.71 140.70 C 158.80 139.85 158.18 139.07 157.33 138.98 C 156.47 138.89 155.70 139.50 155.61 140.36 Z M 155.50 141.33 L 155.35 142.34 C 155.22 143.20 155.81 143.99 156.66 144.12 C 157.51 144.25 158.31 143.66 158.44 142.81 L 158.59 141.80 C 158.72 140.94 158.13 140.15 157.28 140.02 C 156.42 139.89 155.63 140.48 155.50 141.33 Z M 155.36 142.29 L 155.18 143.26 C 155.02 144.11 155.58 144.93 156.42 145.08 C 157.27 145.24 158.09 144.69 158.24 143.84 L 158.43 142.86 C 158.59 142.02 158.03 141.20 157.18 141.04 C 156.33 140.88 155.52 141.44 155.36 142.29 Z M 155.19 143.21 L 154.98 144.14 C 154.79 144.98 155.32 145.82 156.16 146.01 C 157.00 146.19 157.84 145.67 158.03 144.82 L 158.23 143.89 C 158.42 143.05 157.89 142.21 157.05 142.03 C 156.21 141.84 155.37 142.37 155.19 143.21 Z M 154.99 144.09 L 154.74 145.05 C 154.52 145.89 155.02 146.74 155.85 146.96 C 156.69 147.18 157.54 146.68 157.76 145.84 L 158.01 144.88 C 158.23 144.04 157.73 143.19 156.90 142.97 C 156.06 142.75 155.21 143.25 154.99 144.09 Z M 154.76 144.99 L 154.47 145.93 C 154.21 146.75 154.67 147.62 155.49 147.88 C 156.32 148.14 157.19 147.68 157.45 146.85 L 157.74 145.91 C 158.00 145.09 157.54 144.21 156.71 143.96 C 155.89 143.70 155.01 144.16 154.76 144.99 Z M 154.49 145.85 L 154.15 146.77 C 153.85 147.58 154.26 148.48 155.07 148.78 C 155.88 149.08 156.78 148.67 157.08 147.86 L 157.42 146.93 C 157.72 146.12 157.31 145.23 156.50 144.93 C 155.69 144.63 154.79 145.04 154.49 145.85 Z M 154.18 146.69 L 153.77 147.63 C 153.43 148.42 153.79 149.34 154.58 149.69 C 155.37 150.03 156.29 149.67 156.63 148.88 L 157.04 147.94 C 157.39 147.15 157.03 146.23 156.24 145.88 C 155.45 145.54 154.53 145.90 154.18 146.69 Z M 153.81 147.54 L 153.31 148.53 C 152.92 149.29 153.22 150.23 153.99 150.63 C 154.75 151.02 155.70 150.72 156.09 149.95 L 156.59 148.97 C 156.99 148.20 156.68 147.26 155.91 146.87 C 155.15 146.47 154.21 146.78 153.81 147.54 Z M 153.39 148.39 L 152.81 149.28 C 152.35 150.01 152.56 150.98 153.28 151.44 C 154.01 151.91 154.97 151.70 155.44 150.97 L 156.01 150.08 C 156.48 149.36 156.27 148.39 155.54 147.93 C 154.82 147.46 153.85 147.67 153.39 148.39 Z M 152.98 149.07 L 152.35 149.75 C 151.77 150.38 151.80 151.37 152.43 151.95 C 153.07 152.54 154.05 152.50 154.64 151.87 L 155.27 151.19 C 155.86 150.56 155.82 149.57 155.19 148.98 C 154.56 148.40 153.57 148.44 152.98 149.07 Z M 152.83 149.39 L 152.05 149.76 C 151.27 150.13 150.94 151.06 151.30 151.84 C 151.67 152.62 152.60 152.95 153.38 152.59 L 154.16 152.22 C 154.94 151.85 155.28 150.92 154.91 150.14 C 154.54 149.36 153.61 149.03 152.83 149.39 Z M 153.03 149.64 L 152.13 149.46 C 151.28 149.29 150.46 149.84 150.28 150.68 C 150.11 151.53 150.66 152.35 151.50 152.52 L 152.41 152.70 C 153.25 152.88 154.07 152.33 154.25 151.48 C 154.42 150.64 153.87 149.82 153.03 149.64 Z M 152.88 149.85 L 152.12 149.14 C 151.49 148.56 150.50 148.59 149.91 149.23 C 149.33 149.86 149.36 150.85 150.00 151.43 L 150.75 152.14 C 151.39 152.72 152.37 152.68 152.96 152.05 C 153.55 151.42 153.51 150.43 152.88 149.85 Z M 152.46 149.59 L 152.04 148.76 C 151.66 147.98 150.72 147.67 149.95 148.05 C 149.17 148.44 148.86 149.37 149.24 150.15 L 149.66 150.98 C 150.04 151.76 150.98 152.07 151.75 151.69 C 152.52 151.30 152.84 150.37 152.46 149.59 Z M 152.15 149.07 L 151.92 148.13 C 151.71 147.30 150.86 146.79 150.02 147.01 C 149.19 147.22 148.68 148.07 148.89 148.90 L 149.13 149.84 C 149.34 150.67 150.19 151.18 151.03 150.97 C 151.86 150.75 152.37 149.90 152.15 149.07 Z M 151.95 148.32 L 151.82 147.28 C 151.71 146.43 150.93 145.82 150.07 145.93 C 149.22 146.04 148.61 146.83 148.72 147.68 L 148.86 148.72 C 148.97 149.57 149.75 150.18 150.60 150.07 C 151.46 149.96 152.06 149.18 151.95 148.32 Z M 151.83 147.38 L 151.76 146.31 C 151.71 145.45 150.97 144.79 150.10 144.85 C 149.24 144.90 148.59 145.65 148.65 146.51 L 148.71 147.58 C 148.77 148.44 149.51 149.09 150.37 149.04 C 151.23 148.99 151.88 148.24 151.83 147.38 Z M 151.76 146.35 L 151.73 145.34 C 151.70 144.48 150.98 143.81 150.11 143.84 C 149.25 143.87 148.58 144.59 148.61 145.45 L 148.64 146.46 C 148.67 147.32 149.40 148.00 150.26 147.97 C 151.12 147.94 151.79 147.21 151.76 146.35 Z M 151.73 145.37 L 151.71 144.36 C 151.70 143.50 150.99 142.81 150.13 142.83 C 149.26 142.84 148.58 143.55 148.59 144.42 L 148.61 145.43 C 148.62 146.29 149.33 146.97 150.20 146.96 C 151.06 146.95 151.74 146.23 151.73 145.37 Z M 151.71 144.38 L 151.71 143.38 C 151.70 142.52 151.00 141.83 150.14 141.83 C 149.28 141.83 148.58 142.54 148.59 143.40 L 148.59 144.40 C 148.60 145.26 149.30 145.96 150.16 145.95 C 151.02 145.95 151.72 145.24 151.71 144.38 Z M 151.71 143.39 L 151.71 142.39 C 151.71 141.53 151.01 140.83 150.15 140.83 C 149.28 140.83 148.58 141.53 148.58 142.39 L 148.59 143.39 C 148.59 144.25 149.28 144.95 150.15 144.95 C 151.01 144.95 151.71 144.25 151.71 143.39 Z M 151.71 142.41 L 151.72 141.36 C 151.72 140.50 151.03 139.79 150.17 139.79 C 149.31 139.78 148.60 140.47 148.59 141.34 L 148.58 142.38 C 148.58 143.24 149.27 143.95 150.13 143.95 C 151.00 143.96 151.70 143.27 151.71 142.41 Z M 151.71 141.42 L 151.76 140.42 C 151.80 139.56 151.13 138.83 150.27 138.79 C 149.41 138.75 148.68 139.42 148.64 140.28 L 148.59 141.28 C 148.56 142.14 149.22 142.87 150.09 142.91 C 150.95 142.95 151.68 142.28 151.71 141.42 Z M 151.75 140.52 L 151.86 139.57 C 151.96 138.72 151.34 137.94 150.48 137.84 C 149.63 137.75 148.85 138.36 148.76 139.22 L 148.65 140.17 C 148.55 141.03 149.17 141.80 150.02 141.90 C 150.88 142.00 151.65 141.38 151.75 140.52 Z M 151.83 139.74 L 152.05 138.77 C 152.24 137.93 151.72 137.09 150.88 136.90 C 150.04 136.71 149.20 137.23 149.01 138.07 L 148.78 139.05 C 148.59 139.89 149.12 140.73 149.96 140.92 C 150.80 141.11 151.64 140.58 151.83 139.74 Z M 151.98 139.00 L 152.35 138.07 C 152.67 137.27 152.28 136.36 151.48 136.04 C 150.68 135.72 149.77 136.11 149.45 136.91 L 149.08 137.84 C 148.76 138.64 149.15 139.55 149.95 139.87 C 150.75 140.19 151.66 139.80 151.98 139.00 Z M 152.21 138.34 L 152.74 137.52 C 153.22 136.80 153.02 135.84 152.29 135.36 C 151.57 134.89 150.61 135.09 150.13 135.81 L 149.60 136.63 C 149.12 137.35 149.33 138.32 150.05 138.79 C 150.77 139.27 151.74 139.06 152.21 138.34 Z M 152.50 137.82 L 153.27 137.11 C 153.90 136.52 153.94 135.53 153.35 134.90 C 152.77 134.27 151.78 134.23 151.15 134.81 L 150.38 135.52 C 149.75 136.11 149.71 137.09 150.29 137.73 C 150.88 138.36 151.86 138.40 152.50 137.82 Z M 152.88 137.37 L 153.83 136.91 C 154.61 136.53 154.93 135.60 154.56 134.82 C 154.19 134.05 153.25 133.72 152.48 134.10 L 151.53 134.55 C 150.75 134.93 150.43 135.86 150.80 136.64 C 151.18 137.41 152.11 137.74 152.88 137.37 Z M 153.10 137.06 L 153.98 137.09 C 154.84 137.12 155.57 136.45 155.60 135.59 C 155.62 134.72 154.95 134.00 154.09 133.97 L 153.21 133.94 C 152.35 133.91 151.62 134.59 151.59 135.45 C 151.56 136.31 152.24 137.03 153.10 137.06 Z M 152.95 136.65 L 153.50 137.19 C 154.12 137.79 155.11 137.77 155.71 137.15 C 156.31 136.53 156.29 135.55 155.68 134.95 L 155.12 134.41 C 154.50 133.81 153.51 133.83 152.91 134.45 C 152.31 135.07 152.33 136.05 152.95 136.65 Z M 153.13 136.63 L 153.46 137.50 C 153.77 138.30 154.67 138.71 155.48 138.40 C 156.28 138.09 156.69 137.19 156.38 136.38 L 156.05 135.51 C 155.74 134.71 154.84 134.30 154.03 134.61 C 153.23 134.92 152.82 135.82 153.13 136.63 Z M 153.39 137.22 L 153.59 138.31 C 153.74 139.15 154.56 139.71 155.40 139.56 C 156.25 139.40 156.81 138.59 156.66 137.74 L 156.46 136.66 C 156.30 135.81 155.49 135.25 154.64 135.41 C 153.79 135.56 153.23 136.38 153.39 137.22 Z M 153.57 138.17 L 153.68 139.29 C 153.76 140.15 154.52 140.78 155.38 140.69 C 156.24 140.61 156.87 139.85 156.78 138.99 L 156.68 137.87 C 156.59 137.01 155.83 136.39 154.97 136.47 C 154.11 136.55 153.48 137.32 153.57 138.17 Z M 153.67 139.23 L 153.73 140.24 C 153.77 141.10 154.51 141.76 155.37 141.71 C 156.23 141.67 156.89 140.93 156.84 140.07 L 156.79 139.06 C 156.74 138.20 156.01 137.54 155.15 137.58 C 154.29 137.63 153.63 138.36 153.67 139.23 Z M 153.73 140.19 L 153.75 141.18 C 153.77 142.04 154.48 142.73 155.34 142.71 C 156.20 142.69 156.89 141.97 156.87 141.11 L 156.85 140.12 C 156.83 139.26 156.11 138.57 155.25 138.59 C 154.39 138.61 153.71 139.32 153.73 140.19 Z M 153.75 141.14 L 153.74 142.13 C 153.74 142.99 154.44 143.69 155.30 143.69 C 156.16 143.70 156.86 143.00 156.87 142.14 L 156.87 141.15 C 156.87 140.29 156.17 139.59 155.31 139.58 C 154.45 139.58 153.75 140.28 153.75 141.14 Z M 153.74 142.11 L 153.73 143.11 C 153.71 143.97 154.40 144.68 155.26 144.70 C 156.12 144.71 156.83 144.03 156.85 143.16 L 156.87 142.16 C 156.88 141.30 156.20 140.59 155.33 140.57 C 154.47 140.56 153.76 141.24 153.74 142.11 Z M 153.73 143.08 L 153.69 144.10 C 153.66 144.96 154.34 145.68 155.20 145.71 C 156.06 145.74 156.78 145.06 156.81 144.20 L 156.85 143.19 C 156.88 142.32 156.20 141.60 155.34 141.57 C 154.48 141.55 153.75 142.22 153.73 143.08 Z M 153.69 144.06 L 153.63 145.07 C 153.58 145.93 154.24 146.67 155.10 146.72 C 155.96 146.77 156.70 146.11 156.75 145.25 L 156.81 144.24 C 156.86 143.38 156.21 142.64 155.35 142.59 C 154.48 142.54 153.75 143.20 153.69 144.06 Z M 153.64 145.00 L 153.54 145.98 C 153.46 146.84 154.08 147.61 154.94 147.69 C 155.80 147.78 156.56 147.15 156.65 146.29 L 156.75 145.31 C 156.83 144.45 156.21 143.69 155.35 143.60 C 154.49 143.52 153.72 144.15 153.64 145.00 Z M 153.55 145.90 L 153.40 146.87 C 153.27 147.72 153.85 148.52 154.70 148.66 C 155.55 148.79 156.35 148.21 156.48 147.36 L 156.64 146.38 C 156.77 145.53 156.19 144.73 155.34 144.60 C 154.49 144.46 153.69 145.04 153.55 145.90 Z M 153.42 146.77 L 153.20 147.73 C 153.01 148.57 153.53 149.40 154.37 149.60 C 155.21 149.79 156.05 149.26 156.24 148.42 L 156.46 147.46 C 156.66 146.62 156.13 145.79 155.29 145.59 C 154.45 145.40 153.61 145.93 153.42 146.77 Z M 153.23 147.62 L 152.94 148.57 C 152.69 149.39 153.15 150.26 153.98 150.51 C 154.80 150.77 155.68 150.30 155.93 149.48 L 156.22 148.53 C 156.47 147.71 156.00 146.83 155.18 146.58 C 154.35 146.33 153.48 146.80 153.23 147.62 Z M 152.97 148.47 L 152.61 149.43 C 152.31 150.24 152.72 151.14 153.53 151.44 C 154.34 151.74 155.24 151.33 155.54 150.53 L 155.90 149.57 C 156.20 148.76 155.79 147.86 154.98 147.56 C 154.17 147.26 153.27 147.67 152.97 148.47 Z M 152.65 149.35 L 152.23 150.28 C 151.89 151.07 152.25 151.99 153.03 152.34 C 153.82 152.69 154.74 152.33 155.09 151.54 L 155.50 150.61 C 155.85 149.82 155.49 148.90 154.70 148.55 C 153.92 148.20 152.99 148.56 152.65 149.35 Z M 152.29 150.18 L 151.80 151.09 C 151.40 151.85 151.69 152.79 152.45 153.20 C 153.21 153.60 154.15 153.32 154.56 152.55 L 155.04 151.65 C 155.45 150.89 155.16 149.94 154.40 149.54 C 153.64 149.13 152.69 149.42 152.29 150.18 Z M 151.89 150.94 L 151.33 151.76 C 150.85 152.47 151.03 153.44 151.75 153.93 C 152.46 154.41 153.43 154.23 153.92 153.52 L 154.47 152.70 C 154.96 151.99 154.77 151.02 154.06 150.53 C 153.35 150.05 152.37 150.23 151.89 150.94 Z M 151.51 151.55 L 150.79 152.29 C 150.18 152.90 150.20 153.89 150.81 154.49 C 151.43 155.10 152.42 155.08 153.02 154.47 L 153.74 153.73 C 154.34 153.11 154.33 152.12 153.71 151.52 C 153.10 150.92 152.11 150.93 151.51 151.55 Z M 151.13 152.02 L 150.19 152.56 C 149.44 152.99 149.18 153.94 149.61 154.69 C 150.04 155.44 150.99 155.70 151.74 155.27 L 152.68 154.73 C 153.43 154.30 153.69 153.35 153.26 152.60 C 152.83 151.85 151.88 151.59 151.13 152.02 Z M 150.81 152.36 L 149.93 152.45 C 149.07 152.54 148.44 153.30 148.53 154.16 C 148.62 155.02 149.38 155.64 150.24 155.56 L 151.12 155.47 C 151.98 155.38 152.60 154.62 152.52 153.76 C 152.43 152.90 151.66 152.28 150.81 152.36 Z M 150.90 152.68 L 150.23 152.26 C 149.49 151.81 148.53 152.03 148.08 152.77 C 147.63 153.50 147.85 154.46 148.59 154.92 L 149.26 155.33 C 150.00 155.79 150.96 155.56 151.41 154.82 C 151.86 154.09 151.64 153.13 150.90 152.68 Z M 150.79 152.86 L 150.34 152.01 C 149.94 151.25 149.00 150.96 148.23 151.36 C 147.47 151.76 147.18 152.71 147.58 153.47 L 148.03 154.32 C 148.43 155.08 149.37 155.37 150.14 154.97 C 150.90 154.57 151.19 153.62 150.79 152.86 Z M 150.48 152.37 L 150.21 151.27 C 150.00 150.43 149.16 149.92 148.32 150.13 C 147.48 150.33 146.97 151.18 147.18 152.01 L 147.45 153.11 C 147.65 153.95 148.50 154.46 149.33 154.26 C 150.17 154.05 150.68 153.21 150.48 152.37 Z M 150.24 151.44 L 150.11 150.48 C 150.00 149.63 149.22 149.03 148.36 149.14 C 147.51 149.26 146.90 150.04 147.02 150.90 L 147.14 151.85 C 147.26 152.70 148.04 153.30 148.90 153.19 C 149.75 153.08 150.35 152.29 150.24 151.44 Z M 150.12 150.58 L 150.05 149.59 C 149.99 148.73 149.24 148.09 148.38 148.15 C 147.52 148.21 146.88 148.96 146.94 149.82 L 147.01 150.80 C 147.07 151.66 147.82 152.31 148.68 152.25 C 149.54 152.19 150.18 151.44 150.12 150.58 Z M 150.06 149.65 L 150.02 148.62 C 149.99 147.76 149.27 147.09 148.41 147.12 C 147.55 147.14 146.87 147.87 146.90 148.73 L 146.94 149.76 C 146.96 150.62 147.69 151.29 148.55 151.27 C 149.41 151.24 150.08 150.51 150.06 149.65 Z M 150.02 148.65 L 150.01 147.65 C 149.99 146.78 149.28 146.10 148.42 146.11 C 147.56 146.12 146.87 146.83 146.88 147.69 L 146.90 148.70 C 146.91 149.56 147.62 150.25 148.48 150.24 C 149.35 150.22 150.03 149.51 150.02 148.65 Z M 150.01 147.66 L 150.00 146.69 C 150.00 145.82 149.29 145.13 148.43 145.13 C 147.57 145.14 146.87 145.84 146.88 146.70 L 146.88 147.68 C 146.89 148.54 147.59 149.24 148.45 149.23 C 149.32 149.23 150.01 148.52 150.01 147.66 Z M 150.00 146.70 L 150.01 145.70 C 150.01 144.84 149.32 144.13 148.45 144.13 C 147.59 144.13 146.89 144.82 146.88 145.68 L 146.88 146.69 C 146.87 147.55 147.57 148.25 148.43 148.26 C 149.29 148.26 150.00 147.56 150.00 146.70 Z M 150.01 145.72 L 150.02 144.69 C 150.04 143.83 149.35 143.12 148.49 143.10 C 147.63 143.09 146.92 143.77 146.90 144.64 L 146.88 145.66 C 146.87 146.53 147.56 147.24 148.42 147.25 C 149.28 147.27 149.99 146.58 150.01 145.72 Z M 150.02 144.71 L 150.06 143.74 C 150.08 142.87 149.41 142.15 148.55 142.12 C 147.68 142.10 146.96 142.77 146.93 143.63 L 146.90 144.61 C 146.87 145.47 147.55 146.20 148.41 146.22 C 149.27 146.25 150.00 145.58 150.02 144.71 Z M 150.05 143.78 L 150.11 142.83 C 150.16 141.97 149.51 141.23 148.65 141.18 C 147.79 141.13 147.05 141.78 146.99 142.64 L 146.94 143.59 C 146.88 144.45 147.54 145.19 148.40 145.24 C 149.26 145.30 150.00 144.64 150.05 143.78 Z M 150.10 142.91 L 150.21 141.94 C 150.31 141.08 149.69 140.31 148.84 140.21 C 147.98 140.12 147.21 140.73 147.11 141.59 L 147.00 142.56 C 146.91 143.42 147.52 144.19 148.38 144.29 C 149.24 144.39 150.01 143.77 150.10 142.91 Z M 150.20 142.04 L 150.38 141.03 C 150.54 140.19 149.98 139.37 149.13 139.22 C 148.28 139.06 147.47 139.62 147.31 140.47 L 147.13 141.48 C 146.97 142.33 147.53 143.14 148.38 143.30 C 149.23 143.45 150.04 142.89 150.20 142.04 Z M 150.36 141.16 L 150.64 140.12 C 150.86 139.28 150.37 138.43 149.54 138.20 C 148.71 137.98 147.85 138.47 147.62 139.30 L 147.34 140.34 C 147.12 141.18 147.61 142.03 148.44 142.26 C 149.27 142.48 150.13 141.99 150.36 141.16 Z M 150.60 140.24 L 150.95 139.26 C 151.25 138.44 150.83 137.55 150.02 137.26 C 149.21 136.96 148.31 137.38 148.02 138.19 L 147.66 139.18 C 147.37 139.99 147.79 140.88 148.60 141.18 C 149.41 141.47 150.31 141.05 150.60 140.24 Z M 150.91 139.37 L 151.35 138.40 C 151.70 137.62 151.36 136.69 150.57 136.34 C 149.79 135.98 148.86 136.33 148.50 137.11 L 148.07 138.08 C 147.71 138.86 148.06 139.79 148.84 140.15 C 149.63 140.50 150.55 140.16 150.91 139.37 Z M 151.28 138.53 L 151.79 137.63 C 152.22 136.88 151.96 135.93 151.21 135.50 C 150.46 135.08 149.50 135.34 149.08 136.09 L 148.57 136.99 C 148.14 137.74 148.40 138.69 149.15 139.12 C 149.90 139.54 150.86 139.28 151.28 138.53 Z M 151.70 137.78 L 152.26 137.01 C 152.77 136.32 152.62 135.34 151.92 134.83 C 151.23 134.32 150.25 134.47 149.74 135.17 L 149.18 135.94 C 148.67 136.64 148.82 137.61 149.51 138.12 C 150.21 138.63 151.19 138.48 151.70 137.78 Z M 152.08 137.22 L 152.75 136.57 C 153.37 135.98 153.39 134.99 152.79 134.37 C 152.20 133.75 151.21 133.73 150.59 134.32 L 149.92 134.96 C 149.30 135.56 149.28 136.55 149.88 137.17 C 150.47 137.79 151.46 137.81 152.08 137.22 Z M 152.36 136.85 L 153.28 136.40 C 154.05 136.02 154.37 135.08 153.99 134.31 C 153.61 133.53 152.67 133.21 151.90 133.59 L 150.98 134.05 C 150.20 134.43 149.89 135.36 150.27 136.14 C 150.65 136.91 151.58 137.23 152.36 136.85 Z M 152.61 136.56 L 153.54 136.54 C 154.40 136.53 155.09 135.82 155.08 134.96 C 155.07 134.10 154.36 133.41 153.50 133.42 L 152.57 133.43 C 151.71 133.45 151.02 134.15 151.03 135.02 C 151.04 135.88 151.75 136.57 152.61 136.56 Z M 152.85 136.39 L 153.74 136.81 C 154.52 137.18 155.45 136.85 155.82 136.07 C 156.18 135.29 155.85 134.36 155.07 133.99 L 154.18 133.57 C 153.40 133.20 152.47 133.54 152.11 134.32 C 151.74 135.10 152.07 136.03 152.85 136.39 Z M 153.31 136.52 L 153.97 137.16 C 154.59 137.77 155.58 137.76 156.18 137.14 C 156.79 136.53 156.78 135.54 156.16 134.93 L 155.50 134.29 C 154.88 133.68 153.89 133.69 153.29 134.31 C 152.69 134.92 152.70 135.91 153.31 136.52 Z M 153.79 136.94 L 154.35 137.75 C 154.84 138.45 155.81 138.63 156.52 138.14 C 157.23 137.64 157.40 136.67 156.91 135.96 L 156.35 135.16 C 155.86 134.45 154.88 134.28 154.18 134.77 C 153.47 135.26 153.29 136.23 153.79 136.94 Z M 154.25 137.60 L 154.75 138.52 C 155.16 139.28 156.11 139.56 156.87 139.15 C 157.63 138.73 157.91 137.79 157.50 137.03 L 157.00 136.11 C 156.59 135.35 155.64 135.07 154.88 135.48 C 154.12 135.89 153.84 136.84 154.25 137.60 Z M 154.70 138.42 L 155.14 139.37 C 155.49 140.16 156.42 140.51 157.20 140.15 C 157.99 139.79 158.34 138.87 157.98 138.08 L 157.55 137.13 C 157.19 136.34 156.26 136.00 155.48 136.35 C 154.69 136.71 154.35 137.63 154.70 138.42 Z M 155.11 139.31 L 155.50 140.29 C 155.82 141.09 156.73 141.48 157.53 141.16 C 158.33 140.84 158.72 139.94 158.40 139.14 L 158.01 138.15 C 157.69 137.35 156.78 136.96 155.98 137.28 C 155.18 137.60 154.79 138.51 155.11 139.31 Z M 155.48 140.24 L 155.84 141.26 C 156.13 142.07 157.03 142.49 157.84 142.20 C 158.65 141.91 159.07 141.02 158.78 140.21 L 158.42 139.19 C 158.13 138.38 157.24 137.95 156.43 138.24 C 155.62 138.53 155.19 139.43 155.48 140.24 Z M 155.83 141.20 L 156.12 142.13 C 156.38 142.96 157.26 143.41 158.08 143.15 C 158.90 142.89 159.36 142.01 159.10 141.19 L 158.80 140.26 C 158.54 139.44 157.67 138.98 156.84 139.24 C 156.02 139.50 155.57 140.38 155.83 141.20 Z M 156.11 142.09 L 156.36 142.97 C 156.60 143.80 157.46 144.28 158.29 144.04 C 159.12 143.80 159.60 142.94 159.36 142.11 L 159.11 141.23 C 158.87 140.40 158.01 139.92 157.18 140.16 C 156.35 140.40 155.87 141.27 156.11 142.09 Z M 156.35 142.95 L 156.61 143.89 C 156.84 144.73 157.70 145.22 158.53 144.99 C 159.36 144.76 159.85 143.90 159.62 143.07 L 159.37 142.13 C 159.14 141.30 158.28 140.81 157.45 141.03 C 156.62 141.26 156.13 142.12 156.35 142.95 Z M 156.61 143.87 L 156.85 144.84 C 157.07 145.67 157.92 146.18 158.75 145.96 C 159.59 145.75 160.09 144.90 159.88 144.06 L 159.63 143.09 C 159.42 142.26 158.57 141.76 157.73 141.97 C 156.89 142.18 156.39 143.03 156.61 143.87 Z M 156.84 144.80 L 157.07 145.77 C 157.26 146.61 158.10 147.14 158.94 146.94 C 159.78 146.75 160.30 145.91 160.11 145.07 L 159.89 144.10 C 159.70 143.26 158.86 142.74 158.02 142.93 C 157.18 143.12 156.65 143.96 156.84 144.80 Z M 157.05 145.71 L 157.24 146.71 C 157.40 147.55 158.22 148.11 159.06 147.95 C 159.91 147.79 160.47 146.98 160.31 146.13 L 160.12 145.13 C 159.96 144.29 159.15 143.73 158.30 143.89 C 157.45 144.05 156.89 144.86 157.05 145.71 Z M 157.22 146.58 L 157.33 147.58 C 157.41 148.44 158.18 149.06 159.04 148.98 C 159.90 148.89 160.52 148.12 160.43 147.26 L 160.33 146.26 C 160.24 145.40 159.47 144.78 158.62 144.86 C 157.76 144.95 157.13 145.72 157.22 146.58 Z M 157.32 147.32 L 157.26 148.30 C 157.20 149.16 157.86 149.91 158.72 149.96 C 159.58 150.02 160.32 149.36 160.38 148.50 L 160.44 147.52 C 160.49 146.66 159.84 145.92 158.98 145.87 C 158.12 145.81 157.38 146.46 157.32 147.32 Z M 157.34 147.91 L 157.02 148.85 C 156.75 149.66 157.19 150.55 158.01 150.82 C 158.82 151.10 159.71 150.66 159.98 149.84 L 160.30 148.90 C 160.57 148.08 160.13 147.20 159.31 146.92 C 158.50 146.65 157.61 147.09 157.34 147.91 Z M 157.24 148.43 L 156.64 149.26 C 156.14 149.96 156.30 150.93 156.99 151.44 C 157.69 151.94 158.67 151.78 159.17 151.08 L 159.77 150.25 C 160.27 149.56 160.11 148.58 159.41 148.08 C 158.72 147.57 157.74 147.73 157.24 148.43 Z M 157.01 148.89 L 156.21 149.46 C 155.50 149.95 155.33 150.93 155.83 151.63 C 156.33 152.34 157.30 152.51 158.01 152.01 L 158.81 151.44 C 159.51 150.95 159.68 149.97 159.18 149.27 C 158.69 148.56 157.71 148.40 157.01 148.89 Z M 156.80 149.20 L 155.90 149.38 C 155.05 149.55 154.50 150.37 154.67 151.22 C 154.84 152.06 155.66 152.61 156.50 152.44 L 157.41 152.26 C 158.26 152.10 158.81 151.28 158.64 150.43 C 158.47 149.58 157.65 149.03 156.80 149.20 Z M 156.54 149.39 L 155.62 149.18 C 154.78 148.99 153.94 149.52 153.75 150.36 C 153.56 151.20 154.09 152.04 154.93 152.23 L 155.86 152.44 C 156.70 152.63 157.53 152.10 157.72 151.26 C 157.91 150.42 157.39 149.58 156.54 149.39 Z M 156.09 149.37 L 155.21 148.84 C 154.47 148.39 153.51 148.62 153.06 149.36 C 152.61 150.10 152.85 151.06 153.59 151.50 L 154.46 152.04 C 155.20 152.49 156.16 152.25 156.61 151.51 C 157.06 150.78 156.82 149.82 156.09 149.37 Z M 155.53 149.10 L 154.82 148.34 C 154.23 147.72 153.24 147.69 152.61 148.28 C 151.99 148.88 151.96 149.86 152.55 150.49 L 153.26 151.24 C 153.85 151.87 154.84 151.90 155.47 151.30 C 156.10 150.71 156.12 149.72 155.53 149.10 Z M 155.02 148.61 L 154.51 147.77 C 154.07 147.03 153.11 146.79 152.37 147.24 C 151.63 147.68 151.39 148.64 151.84 149.38 L 152.35 150.22 C 152.79 150.96 153.75 151.20 154.49 150.75 C 155.23 150.31 155.47 149.35 155.02 148.61 Z M 154.62 147.99 L 154.24 147.05 C 153.91 146.25 153.00 145.86 152.20 146.19 C 151.41 146.51 151.02 147.43 151.35 148.22 L 151.73 149.16 C 152.05 149.96 152.97 150.34 153.76 150.02 C 154.56 149.69 154.95 148.78 154.62 147.99 Z M 154.30 147.23 L 154.03 146.25 C 153.81 145.42 152.95 144.93 152.12 145.15 C 151.29 145.38 150.80 146.24 151.02 147.07 L 151.29 148.05 C 151.51 148.88 152.37 149.37 153.20 149.14 C 154.04 148.92 154.53 148.06 154.30 147.23 Z M 154.07 146.40 L 153.91 145.42 C 153.77 144.57 152.96 143.99 152.11 144.13 C 151.26 144.27 150.68 145.07 150.82 145.92 L 150.99 146.91 C 151.13 147.76 151.93 148.34 152.78 148.20 C 153.63 148.06 154.21 147.26 154.07 146.40 Z M 153.92 145.55 L 153.85 144.57 C 153.78 143.71 153.03 143.07 152.17 143.13 C 151.31 143.20 150.67 143.95 150.73 144.81 L 150.81 145.79 C 150.87 146.65 151.62 147.29 152.48 147.23 C 153.34 147.16 153.99 146.41 153.92 145.55 Z M 153.85 144.67 L 153.84 143.68 C 153.84 142.82 153.13 142.13 152.27 142.13 C 151.41 142.14 150.71 142.85 150.72 143.71 L 150.73 144.70 C 150.74 145.57 151.44 146.26 152.31 146.25 C 153.17 146.24 153.86 145.54 153.85 144.67 Z M 153.84 143.74 L 153.87 142.73 C 153.90 141.87 153.22 141.15 152.36 141.13 C 151.50 141.10 150.78 141.78 150.75 142.64 L 150.72 143.65 C 150.70 144.51 151.37 145.23 152.24 145.26 C 153.10 145.28 153.82 144.60 153.84 143.74 Z M 153.87 142.78 L 153.93 141.79 C 153.98 140.93 153.32 140.19 152.46 140.14 C 151.60 140.09 150.86 140.75 150.81 141.61 L 150.75 142.60 C 150.70 143.46 151.36 144.20 152.22 144.25 C 153.08 144.29 153.82 143.64 153.87 142.78 Z M 153.92 141.86 L 154.03 140.86 C 154.12 140.00 153.49 139.24 152.64 139.15 C 151.78 139.05 151.01 139.68 150.92 140.53 L 150.82 141.54 C 150.73 142.39 151.35 143.16 152.20 143.25 C 153.06 143.34 153.83 142.72 153.92 141.86 Z M 154.01 140.98 L 154.19 139.98 C 154.34 139.13 153.78 138.32 152.93 138.17 C 152.08 138.02 151.27 138.58 151.12 139.43 L 150.94 140.42 C 150.78 141.27 151.35 142.08 152.20 142.23 C 153.04 142.39 153.86 141.82 154.01 140.98 Z M 154.15 140.14 L 154.44 139.15 C 154.68 138.33 154.21 137.46 153.38 137.22 C 152.55 136.98 151.69 137.45 151.44 138.28 L 151.15 139.27 C 150.91 140.09 151.39 140.96 152.22 141.20 C 153.04 141.45 153.91 140.97 154.15 140.14 Z M 154.37 139.35 L 154.79 138.41 C 155.14 137.62 154.79 136.70 154.00 136.34 C 153.21 135.99 152.29 136.35 151.94 137.13 L 151.52 138.08 C 151.17 138.87 151.52 139.79 152.31 140.14 C 153.09 140.49 154.02 140.14 154.37 139.35 Z M 154.66 138.63 L 155.21 137.81 C 155.69 137.09 155.50 136.12 154.78 135.65 C 154.06 135.17 153.09 135.36 152.61 136.08 L 152.07 136.90 C 151.59 137.62 151.78 138.59 152.50 139.07 C 153.22 139.55 154.19 139.35 154.66 138.63 Z M 155.00 138.07 L 155.68 137.41 C 156.30 136.81 156.31 135.82 155.71 135.20 C 155.11 134.58 154.12 134.57 153.50 135.17 L 152.83 135.82 C 152.21 136.42 152.19 137.41 152.79 138.03 C 153.39 138.65 154.38 138.67 155.00 138.07 Z M 155.32 137.67 L 156.26 137.17 C 157.03 136.77 157.32 135.83 156.92 135.06 C 156.52 134.30 155.57 134.01 154.81 134.41 L 153.86 134.91 C 153.10 135.31 152.81 136.25 153.21 137.02 C 153.61 137.78 154.55 138.07 155.32 137.67 Z M 155.76 137.34 L 156.74 137.20 C 157.60 137.08 158.19 136.29 158.07 135.43 C 157.95 134.58 157.16 133.98 156.31 134.11 L 155.32 134.25 C 154.47 134.37 153.87 135.16 153.99 136.01 C 154.11 136.86 154.90 137.46 155.76 137.34 Z M 156.04 137.14 L 156.89 137.41 C 157.71 137.68 158.59 137.23 158.86 136.42 C 159.13 135.60 158.68 134.71 157.86 134.45 L 157.01 134.17 C 156.19 133.90 155.31 134.35 155.04 135.17 C 154.77 135.99 155.22 136.87 156.04 137.14 Z M 156.21 136.97 L 156.70 137.52 C 157.28 138.16 158.26 138.22 158.91 137.65 C 159.55 137.07 159.61 136.09 159.03 135.44 L 158.54 134.89 C 157.97 134.25 156.98 134.19 156.34 134.76 C 155.70 135.34 155.64 136.32 156.21 136.97 Z M 156.42 137.06 L 156.75 137.89 C 157.07 138.69 157.98 139.08 158.78 138.76 C 159.58 138.44 159.97 137.53 159.65 136.73 L 159.32 135.90 C 159.00 135.10 158.09 134.71 157.29 135.03 C 156.49 135.35 156.10 136.26 156.42 137.06 Z M 156.67 137.61 L 156.88 138.71 C 157.05 139.55 157.87 140.10 158.72 139.94 C 159.56 139.77 160.11 138.95 159.95 138.10 L 159.73 137.01 C 159.57 136.16 158.74 135.61 157.90 135.78 C 157.05 135.95 156.50 136.77 156.67 137.61 Z M 156.86 138.57 L 156.99 139.77 C 157.08 140.62 157.85 141.25 158.70 141.16 C 159.56 141.07 160.18 140.30 160.09 139.44 L 159.97 138.24 C 159.88 137.38 159.11 136.76 158.25 136.85 C 157.40 136.94 156.77 137.71 156.86 138.57 Z M 156.98 139.70 L 157.05 140.67 C 157.10 141.53 157.84 142.18 158.70 142.12 C 159.56 142.07 160.22 141.33 160.16 140.47 L 160.10 139.50 C 160.04 138.64 159.30 137.99 158.44 138.05 C 157.58 138.10 156.93 138.84 156.98 139.70 Z M 157.04 140.62 L 157.08 141.64 C 157.11 142.50 157.84 143.18 158.70 143.14 C 159.56 143.11 160.23 142.39 160.20 141.53 L 160.16 140.51 C 160.13 139.65 159.41 138.97 158.55 139.01 C 157.68 139.04 157.01 139.76 157.04 140.62 Z M 157.08 141.60 L 157.09 142.64 C 157.10 143.51 157.81 144.20 158.67 144.19 C 159.53 144.18 160.22 143.47 160.21 142.61 L 160.20 141.57 C 160.19 140.71 159.49 140.01 158.62 140.02 C 157.76 140.03 157.07 140.74 157.08 141.60 Z M 157.09 142.60 L 157.07 143.63 C 157.06 144.49 157.75 145.20 158.61 145.22 C 159.47 145.23 160.18 144.55 160.20 143.69 L 160.21 142.65 C 160.23 141.79 159.54 141.08 158.68 141.07 C 157.82 141.05 157.11 141.74 157.09 142.60 Z M 157.08 143.58 L 157.03 144.57 C 156.98 145.43 157.65 146.17 158.51 146.21 C 159.37 146.25 160.10 145.59 160.15 144.73 L 160.19 143.74 C 160.24 142.88 159.57 142.14 158.71 142.10 C 157.85 142.06 157.12 142.72 157.08 143.58 Z M 157.03 144.50 L 156.93 145.57 C 156.85 146.43 157.48 147.19 158.34 147.27 C 159.20 147.35 159.96 146.72 160.04 145.86 L 160.14 144.80 C 160.22 143.94 159.59 143.18 158.73 143.10 C 157.87 143.01 157.11 143.64 157.03 144.50 Z M 156.94 145.47 L 156.77 146.55 C 156.64 147.40 157.22 148.20 158.07 148.34 C 158.92 148.47 159.72 147.89 159.86 147.04 L 160.03 145.96 C 160.16 145.11 159.58 144.31 158.73 144.17 C 157.88 144.04 157.08 144.62 156.94 145.47 Z M 156.79 146.44 L 156.57 147.41 C 156.38 148.25 156.90 149.09 157.74 149.28 C 158.58 149.47 159.42 148.95 159.61 148.11 L 159.84 147.15 C 160.03 146.30 159.51 145.47 158.67 145.27 C 157.83 145.08 156.99 145.60 156.79 146.44 Z M 156.60 147.30 L 156.33 148.18 C 156.08 149.00 156.54 149.88 157.37 150.13 C 158.19 150.38 159.07 149.92 159.32 149.09 L 159.59 148.21 C 159.84 147.39 159.37 146.52 158.55 146.26 C 157.73 146.01 156.85 146.48 156.60 147.30 Z M 156.36 148.09 L 156.04 148.94 C 155.74 149.75 156.15 150.65 156.95 150.95 C 157.76 151.25 158.66 150.85 158.96 150.04 L 159.29 149.19 C 159.59 148.38 159.18 147.48 158.38 147.17 C 157.57 146.87 156.67 147.28 156.36 148.09 Z M 156.08 148.84 L 155.65 149.78 C 155.30 150.56 155.64 151.49 156.42 151.85 C 157.21 152.21 158.13 151.86 158.49 151.08 L 158.92 150.14 C 159.28 149.35 158.94 148.43 158.15 148.07 C 157.37 147.71 156.44 148.06 156.08 148.84 Z M 155.73 149.64 L 155.22 150.50 C 154.79 151.24 155.03 152.20 155.78 152.64 C 156.52 153.07 157.48 152.82 157.91 152.08 L 158.42 151.22 C 158.86 150.48 158.61 149.52 157.86 149.08 C 157.12 148.65 156.16 148.89 155.73 149.64 Z M 155.35 150.32 L 154.74 151.08 C 154.21 151.75 154.32 152.74 154.99 153.27 C 155.67 153.81 156.65 153.70 157.19 153.02 L 157.79 152.26 C 158.33 151.59 158.21 150.60 157.54 150.07 C 156.86 149.53 155.88 149.64 155.35 150.32 Z M 154.95 150.87 L 154.13 151.57 C 153.48 152.13 153.40 153.12 153.96 153.77 C 154.52 154.42 155.51 154.50 156.16 153.94 L 156.98 153.23 C 157.64 152.67 157.71 151.69 157.15 151.03 C 156.59 150.38 155.60 150.30 154.95 150.87 Z M 154.48 151.34 L 153.53 151.79 C 152.75 152.15 152.42 153.09 152.79 153.87 C 153.16 154.64 154.09 154.98 154.87 154.61 L 155.81 154.16 C 156.59 153.80 156.93 152.87 156.56 152.09 C 156.19 151.31 155.26 150.97 154.48 151.34 Z M 154.29 151.64 L 153.44 151.59 C 152.58 151.54 151.84 152.20 151.79 153.06 C 151.74 153.92 152.40 154.66 153.26 154.71 L 154.11 154.76 C 154.97 154.81 155.71 154.15 155.76 153.29 C 155.81 152.43 155.15 151.69 154.29 151.64 Z M 154.48 152.07 L 153.97 151.54 C 153.37 150.92 152.38 150.89 151.76 151.49 C 151.14 152.09 151.12 153.08 151.71 153.70 L 152.22 154.23 C 152.82 154.85 153.81 154.87 154.43 154.28 C 155.05 153.68 155.07 152.69 154.48 152.07 Z M 154.31 152.10 L 154.02 151.27 C 153.74 150.46 152.85 150.03 152.03 150.32 C 151.22 150.60 150.79 151.49 151.08 152.31 L 151.37 153.13 C 151.65 153.95 152.54 154.38 153.36 154.09 C 154.17 153.81 154.60 152.92 154.31 152.10 Z M 154.09 151.56 L 153.94 150.51 C 153.81 149.65 153.01 149.07 152.16 149.19 C 151.31 149.32 150.72 150.12 150.85 150.97 L 151.01 152.02 C 151.13 152.87 151.93 153.46 152.78 153.33 C 153.63 153.21 154.22 152.41 154.09 151.56 Z M 153.95 150.67 L 153.90 149.50 C 153.86 148.64 153.14 147.97 152.28 148.01 C 151.41 148.04 150.75 148.77 150.78 149.63 L 150.83 150.80 C 150.87 151.67 151.60 152.33 152.46 152.30 C 153.32 152.26 153.99 151.53 153.95 150.67 Z M 153.90 149.60 L 153.93 148.52 C 153.95 147.65 153.27 146.94 152.41 146.92 C 151.55 146.90 150.83 147.58 150.81 148.44 L 150.78 149.53 C 150.76 150.39 151.44 151.10 152.30 151.13 C 153.17 151.15 153.88 150.47 153.90 149.60 Z M 153.92 148.61 L 154.01 147.59 C 154.08 146.73 153.44 145.97 152.58 145.90 C 151.72 145.83 150.97 146.47 150.90 147.33 L 150.81 148.35 C 150.74 149.21 151.38 149.96 152.24 150.03 C 153.10 150.11 153.85 149.47 153.92 148.61 Z M 154.00 147.68 L 154.14 146.69 C 154.27 145.84 153.68 145.04 152.83 144.92 C 151.97 144.79 151.18 145.38 151.05 146.24 L 150.91 147.23 C 150.78 148.08 151.37 148.88 152.23 149.00 C 153.08 149.13 153.87 148.54 154.00 147.68 Z M 154.12 146.80 L 154.33 145.84 C 154.52 145.00 153.99 144.16 153.14 143.98 C 152.30 143.80 151.47 144.33 151.28 145.17 L 151.07 146.13 C 150.89 146.97 151.42 147.80 152.27 147.99 C 153.11 148.17 153.94 147.64 154.12 146.80 Z M 154.30 145.96 L 154.58 145.03 C 154.83 144.21 154.37 143.33 153.54 143.08 C 152.72 142.83 151.85 143.30 151.60 144.12 L 151.32 145.05 C 151.06 145.88 151.53 146.75 152.36 147.00 C 153.18 147.25 154.05 146.78 154.30 145.96 Z M 154.54 145.17 L 154.93 144.20 C 155.25 143.40 154.87 142.49 154.07 142.16 C 153.27 141.84 152.36 142.22 152.04 143.02 L 151.64 143.99 C 151.32 144.79 151.70 145.70 152.50 146.02 C 153.30 146.35 154.21 145.96 154.54 145.17 Z M 154.87 144.34 L 155.34 143.44 C 155.74 142.68 155.44 141.73 154.68 141.33 C 153.92 140.93 152.97 141.22 152.57 141.99 L 152.10 142.88 C 151.70 143.65 151.99 144.59 152.76 144.99 C 153.52 145.39 154.47 145.10 154.87 144.34 Z M 155.26 143.57 L 155.80 142.75 C 156.27 142.03 156.07 141.06 155.35 140.59 C 154.63 140.12 153.66 140.32 153.19 141.04 L 152.65 141.86 C 152.18 142.58 152.38 143.55 153.10 144.02 C 153.82 144.49 154.79 144.29 155.26 143.57 Z M 155.71 142.87 L 156.31 142.13 C 156.85 141.46 156.75 140.47 156.08 139.93 C 155.41 139.39 154.42 139.49 153.88 140.16 L 153.28 140.91 C 152.74 141.58 152.84 142.57 153.51 143.11 C 154.18 143.65 155.17 143.55 155.71 142.87 Z M 156.19 142.26 L 156.98 141.49 C 157.60 140.89 157.61 139.90 157.01 139.28 C 156.41 138.66 155.42 138.65 154.80 139.25 L 154.01 140.03 C 153.39 140.63 153.38 141.62 153.98 142.24 C 154.58 142.85 155.57 142.87 156.19 142.26 Z M 156.77 141.66 L 157.60 141.09 C 158.32 140.61 158.50 139.64 158.02 138.92 C 157.53 138.21 156.56 138.03 155.85 138.51 L 155.01 139.08 C 154.30 139.57 154.11 140.54 154.60 141.25 C 155.09 141.96 156.06 142.15 156.77 141.66 Z M 157.24 141.28 L 158.09 140.98 C 158.90 140.70 159.33 139.81 159.05 139.00 C 158.77 138.18 157.88 137.75 157.06 138.03 L 156.21 138.33 C 155.40 138.61 154.97 139.50 155.25 140.31 C 155.53 141.13 156.42 141.56 157.24 141.28 Z M 157.45 141.06 L 158.40 141.14 C 159.26 141.21 160.01 140.57 160.08 139.71 C 160.15 138.85 159.51 138.10 158.65 138.03 L 157.70 137.95 C 156.84 137.88 156.09 138.52 156.02 139.38 C 155.95 140.24 156.59 141.00 157.45 141.06 Z M 157.73 140.93 L 158.58 141.43 C 159.32 141.87 160.28 141.63 160.72 140.88 C 161.16 140.14 160.91 139.19 160.17 138.75 L 159.32 138.24 C 158.58 137.80 157.62 138.05 157.18 138.79 C 156.74 139.53 156.99 140.49 157.73 140.93 Z M 158.08 140.97 L 158.64 141.79 C 159.13 142.50 160.10 142.68 160.81 142.20 C 161.52 141.71 161.71 140.74 161.22 140.03 L 160.66 139.21 C 160.18 138.50 159.21 138.31 158.49 138.80 C 157.78 139.28 157.60 140.26 158.08 140.97 Z M 158.39 141.18 L 158.55 142.09 C 158.70 142.94 159.51 143.50 160.36 143.35 C 161.21 143.21 161.78 142.40 161.63 141.55 L 161.47 140.64 C 161.32 139.79 160.51 139.22 159.66 139.37 C 158.81 139.52 158.24 140.33 158.39 141.18 Z M 158.54 141.62 L 158.41 142.61 C 158.30 143.46 158.91 144.25 159.76 144.36 C 160.62 144.47 161.40 143.86 161.51 143.01 L 161.64 142.02 C 161.75 141.16 161.15 140.38 160.29 140.27 C 159.44 140.16 158.65 140.76 158.54 141.62 Z M 158.48 142.30 L 158.14 143.30 C 157.86 144.12 158.30 145.01 159.11 145.28 C 159.93 145.56 160.82 145.13 161.10 144.31 L 161.44 143.31 C 161.72 142.50 161.28 141.61 160.47 141.33 C 159.65 141.05 158.76 141.49 158.48 142.30 Z M 158.23 143.10 L 157.78 143.97 C 157.39 144.74 157.70 145.68 158.46 146.07 C 159.23 146.46 160.17 146.16 160.56 145.39 L 161.01 144.52 C 161.40 143.75 161.10 142.81 160.33 142.42 C 159.56 142.03 158.62 142.33 158.23 143.10 Z M 157.86 143.84 L 157.33 144.67 C 156.86 145.40 157.07 146.37 157.80 146.83 C 158.53 147.29 159.49 147.08 159.96 146.36 L 160.49 145.52 C 160.95 144.80 160.74 143.83 160.01 143.37 C 159.29 142.90 158.32 143.11 157.86 143.84 Z M 157.38 144.60 L 156.78 145.42 C 156.27 146.12 156.43 147.10 157.13 147.60 C 157.83 148.11 158.80 147.95 159.31 147.25 L 159.90 146.43 C 160.41 145.73 160.25 144.76 159.56 144.25 C 158.86 143.75 157.88 143.90 157.38 144.60 Z M 156.80 145.39 L 156.17 146.22 C 155.65 146.91 155.78 147.88 156.47 148.41 C 157.15 148.93 158.13 148.80 158.66 148.11 L 159.29 147.28 C 159.81 146.60 159.68 145.62 158.99 145.10 C 158.30 144.57 157.32 144.71 156.80 145.39 Z M 156.21 146.17 L 155.55 146.97 C 155.00 147.63 155.09 148.62 155.76 149.17 C 156.42 149.72 157.40 149.62 157.95 148.96 L 158.62 148.16 C 159.17 147.50 159.07 146.51 158.41 145.96 C 157.75 145.41 156.76 145.51 156.21 146.17 Z M 155.66 146.85 L 154.95 147.54 C 154.34 148.14 154.33 149.13 154.93 149.75 C 155.53 150.36 156.52 150.37 157.14 149.77 L 157.84 149.08 C 158.46 148.48 158.47 147.49 157.87 146.87 C 157.27 146.26 156.28 146.24 155.66 146.85 Z M 155.20 147.34 L 154.39 147.86 C 153.66 148.33 153.45 149.30 153.92 150.02 C 154.38 150.75 155.35 150.96 156.07 150.49 L 156.89 149.97 C 157.61 149.50 157.82 148.54 157.36 147.81 C 156.89 147.09 155.93 146.88 155.20 147.34 Z M 154.87 147.66 L 153.84 147.90 C 153.00 148.10 152.48 148.94 152.68 149.78 C 152.88 150.62 153.72 151.14 154.56 150.94 L 155.59 150.70 C 156.43 150.50 156.95 149.66 156.75 148.82 C 156.55 147.98 155.71 147.46 154.87 147.66 Z M 154.61 147.91 L 153.72 147.67 C 152.88 147.45 152.03 147.95 151.80 148.78 C 151.58 149.61 152.07 150.47 152.91 150.69 L 153.80 150.93 C 154.63 151.15 155.49 150.66 155.71 149.83 C 155.93 148.99 155.44 148.14 154.61 147.91 Z M 154.54 148.22 L 154.03 147.58 C 153.50 146.90 152.52 146.78 151.84 147.32 C 151.16 147.85 151.05 148.83 151.58 149.51 L 152.09 150.15 C 152.62 150.83 153.60 150.94 154.28 150.41 C 154.96 149.87 155.07 148.89 154.54 148.22 Z M 154.33 148.18 L 154.12 147.31 C 153.92 146.47 153.08 145.95 152.24 146.15 C 151.40 146.35 150.88 147.19 151.08 148.03 L 151.29 148.90 C 151.49 149.74 152.33 150.26 153.17 150.06 C 154.01 149.86 154.53 149.02 154.33 148.18 Z M 154.16 147.60 L 154.11 146.52 C 154.07 145.66 153.34 145.00 152.48 145.04 C 151.62 145.07 150.95 145.80 150.99 146.66 L 151.04 147.74 C 151.08 148.60 151.81 149.27 152.67 149.23 C 153.53 149.19 154.20 148.46 154.16 147.60 Z M 154.11 146.65 L 154.15 145.51 C 154.18 144.65 153.51 143.92 152.65 143.89 C 151.78 143.86 151.06 144.54 151.03 145.40 L 150.99 146.54 C 150.96 147.40 151.63 148.12 152.50 148.15 C 153.36 148.19 154.08 147.51 154.11 146.65 Z M 154.15 145.56 L 154.22 144.56 C 154.28 143.70 153.63 142.95 152.77 142.89 C 151.91 142.83 151.16 143.48 151.10 144.34 L 151.03 145.35 C 150.97 146.21 151.62 146.95 152.48 147.01 C 153.34 147.07 154.09 146.42 154.15 145.56 Z M 154.21 144.61 L 154.32 143.61 C 154.41 142.75 153.79 141.98 152.93 141.89 C 152.08 141.80 151.31 142.42 151.22 143.28 L 151.11 144.28 C 151.02 145.14 151.64 145.91 152.49 146.00 C 153.35 146.09 154.12 145.47 154.21 144.61 Z M 154.31 143.69 L 154.47 142.70 C 154.60 141.85 154.03 141.05 153.17 140.91 C 152.32 140.78 151.52 141.36 151.39 142.21 L 151.23 143.19 C 151.09 144.05 151.67 144.85 152.52 144.98 C 153.37 145.12 154.17 144.54 154.31 143.69 Z M 154.45 142.81 L 154.67 141.85 C 154.87 141.01 154.35 140.17 153.51 139.97 C 152.67 139.77 151.83 140.30 151.63 141.14 L 151.41 142.10 C 151.21 142.94 151.73 143.78 152.57 143.97 C 153.41 144.17 154.25 143.65 154.45 142.81 Z M 154.63 141.99 L 154.97 140.99 C 155.25 140.17 154.81 139.28 153.99 139.01 C 153.18 138.73 152.29 139.17 152.01 139.98 L 151.67 140.99 C 151.40 141.81 151.83 142.69 152.65 142.97 C 153.47 143.25 154.35 142.81 154.63 141.99 Z M 154.89 141.18 L 155.34 140.27 C 155.72 139.50 155.40 138.56 154.63 138.18 C 153.85 137.80 152.92 138.12 152.54 138.89 L 152.09 139.80 C 151.71 140.57 152.03 141.51 152.80 141.89 C 153.58 142.27 154.51 141.95 154.89 141.18 Z M 155.21 140.49 L 155.76 139.72 C 156.26 139.02 156.10 138.04 155.40 137.54 C 154.70 137.04 153.72 137.20 153.22 137.90 L 152.67 138.67 C 152.17 139.38 152.33 140.35 153.03 140.85 C 153.73 141.36 154.70 141.19 155.21 140.49 Z M 155.53 139.97 L 156.30 139.28 C 156.95 138.71 157.00 137.72 156.42 137.08 C 155.85 136.44 154.86 136.38 154.22 136.96 L 153.45 137.65 C 152.81 138.22 152.75 139.21 153.33 139.85 C 153.90 140.49 154.89 140.55 155.53 139.97 Z M 155.94 139.52 L 156.89 139.06 C 157.66 138.69 157.99 137.75 157.61 136.98 C 157.23 136.20 156.30 135.88 155.52 136.26 L 154.58 136.72 C 153.80 137.09 153.48 138.03 153.86 138.80 C 154.23 139.58 155.17 139.90 155.94 139.52 Z M 156.30 139.22 L 157.20 139.17 C 158.06 139.12 158.72 138.38 158.67 137.52 C 158.62 136.66 157.88 136.00 157.02 136.05 L 156.11 136.10 C 155.25 136.15 154.60 136.89 154.65 137.75 C 154.70 138.61 155.44 139.27 156.30 139.22 Z M 156.31 138.95 L 157.01 139.36 C 157.75 139.80 158.71 139.56 159.15 138.81 C 159.59 138.07 159.34 137.11 158.60 136.68 L 157.90 136.26 C 157.16 135.83 156.20 136.07 155.76 136.81 C 155.33 137.56 155.57 138.51 156.31 138.95 Z M 156.48 138.84 L 156.97 139.64 C 157.42 140.37 158.38 140.60 159.12 140.14 C 159.85 139.69 160.08 138.73 159.62 137.99 L 159.13 137.20 C 158.68 136.47 157.72 136.24 156.98 136.69 C 156.25 137.15 156.02 138.11 156.48 138.84 Z M 156.81 139.28 L 157.14 140.34 C 157.40 141.16 158.28 141.62 159.10 141.36 C 159.92 141.10 160.38 140.22 160.12 139.40 L 159.79 138.35 C 159.53 137.52 158.65 137.07 157.83 137.33 C 157.01 137.59 156.55 138.46 156.81 139.28 Z M 157.09 140.14 L 157.28 141.19 C 157.43 142.04 158.24 142.60 159.09 142.45 C 159.94 142.30 160.50 141.49 160.35 140.64 L 160.17 139.60 C 160.02 138.75 159.21 138.18 158.36 138.33 C 157.51 138.48 156.94 139.30 157.09 140.14 Z M 157.26 141.04 L 157.34 142.05 C 157.41 142.90 158.16 143.54 159.02 143.47 C 159.88 143.40 160.52 142.65 160.45 141.79 L 160.37 140.79 C 160.30 139.93 159.55 139.29 158.69 139.36 C 157.83 139.43 157.19 140.18 157.26 141.04 Z M 157.34 141.88 L 157.31 142.89 C 157.30 143.75 157.98 144.47 158.84 144.49 C 159.70 144.51 160.42 143.82 160.44 142.96 L 160.46 141.95 C 160.48 141.09 159.79 140.38 158.93 140.36 C 158.07 140.34 157.36 141.02 157.34 141.88 Z M 157.33 142.70 L 157.19 143.68 C 157.06 144.53 157.66 145.32 158.51 145.45 C 159.36 145.57 160.15 144.98 160.28 144.13 L 160.42 143.15 C 160.54 142.30 159.95 141.51 159.10 141.38 C 158.25 141.26 157.46 141.85 157.33 142.70 Z M 157.24 143.45 L 156.96 144.36 C 156.71 145.18 157.18 146.06 158.00 146.31 C 158.83 146.56 159.70 146.09 159.95 145.27 L 160.23 144.36 C 160.48 143.53 160.01 142.66 159.19 142.41 C 158.36 142.16 157.49 142.62 157.24 143.45 Z M 157.07 144.10 L 156.63 144.96 C 156.24 145.72 156.55 146.66 157.32 147.06 C 158.08 147.45 159.02 147.14 159.42 146.37 L 159.85 145.52 C 160.24 144.75 159.93 143.81 159.17 143.42 C 158.40 143.03 157.46 143.34 157.07 144.10 Z M 156.79 144.71 L 156.17 145.51 C 155.65 146.20 155.78 147.18 156.46 147.70 C 157.14 148.23 158.12 148.10 158.65 147.41 L 159.26 146.61 C 159.79 145.93 159.66 144.95 158.97 144.43 C 158.29 143.90 157.31 144.03 156.79 144.71 Z M 156.35 145.32 L 155.54 146.07 C 154.91 146.65 154.87 147.64 155.46 148.27 C 156.04 148.90 157.03 148.94 157.66 148.36 L 158.47 147.61 C 159.10 147.02 159.14 146.04 158.56 145.40 C 157.97 144.77 156.98 144.73 156.35 145.32 Z M 155.71 145.93 L 154.78 146.58 C 154.07 147.07 153.89 148.04 154.39 148.75 C 154.88 149.46 155.85 149.63 156.56 149.14 L 157.49 148.49 C 158.20 148.00 158.38 147.03 157.89 146.32 C 157.39 145.61 156.42 145.44 155.71 145.93 Z M 154.97 146.47 L 153.99 146.96 C 153.22 147.34 152.91 148.28 153.29 149.05 C 153.68 149.82 154.62 150.13 155.39 149.75 L 156.37 149.26 C 157.14 148.87 157.45 147.93 157.06 147.16 C 156.68 146.39 155.74 146.08 154.97 146.47 Z M 154.30 146.84 L 153.40 147.07 C 152.57 147.29 152.07 148.14 152.28 148.98 C 152.50 149.81 153.35 150.31 154.19 150.10 L 155.08 149.86 C 155.91 149.65 156.42 148.80 156.20 147.96 C 155.98 147.13 155.13 146.62 154.30 146.84 Z M 154.11 147.06 L 153.41 146.91 C 152.57 146.74 151.74 147.28 151.57 148.12 C 151.39 148.97 151.94 149.80 152.78 149.97 L 153.48 150.11 C 154.32 150.29 155.15 149.74 155.32 148.90 C 155.50 148.05 154.95 147.23 154.11 147.06 Z M 154.41 147.60 L 153.99 146.94 C 153.52 146.22 152.56 146.00 151.83 146.47 C 151.11 146.94 150.90 147.90 151.36 148.63 L 151.78 149.28 C 152.25 150.01 153.21 150.22 153.94 149.75 C 154.66 149.29 154.88 148.32 154.41 147.60 Z M 154.23 147.61 L 154.11 146.60 C 154.02 145.75 153.24 145.13 152.39 145.23 C 151.53 145.33 150.91 146.10 151.01 146.96 L 151.12 147.96 C 151.22 148.82 151.99 149.43 152.85 149.34 C 153.71 149.24 154.32 148.46 154.23 147.61 Z M 154.12 146.91 L 154.21 145.76 C 154.28 144.90 153.65 144.15 152.79 144.07 C 151.93 144.00 151.17 144.64 151.10 145.50 L 151.01 146.65 C 150.93 147.51 151.57 148.26 152.43 148.34 C 153.29 148.41 154.05 147.77 154.12 146.91 Z M 154.19 145.92 L 154.40 144.85 C 154.56 144.00 154.01 143.18 153.16 143.02 C 152.31 142.86 151.49 143.41 151.33 144.26 L 151.12 145.33 C 150.96 146.18 151.52 147.00 152.36 147.16 C 153.21 147.33 154.03 146.77 154.19 145.92 Z M 154.37 144.97 L 154.64 143.99 C 154.87 143.16 154.39 142.30 153.56 142.07 C 152.73 141.84 151.87 142.32 151.64 143.15 L 151.36 144.13 C 151.13 144.96 151.61 145.83 152.44 146.06 C 153.28 146.29 154.14 145.80 154.37 144.97 Z M 154.61 144.09 L 154.93 143.18 C 155.22 142.36 154.79 141.47 153.98 141.18 C 153.17 140.90 152.28 141.32 151.99 142.14 L 151.67 143.05 C 151.38 143.87 151.81 144.76 152.62 145.04 C 153.43 145.33 154.32 144.90 154.61 144.09 Z M 154.91 143.24 L 155.27 142.37 C 155.59 141.57 155.21 140.66 154.41 140.33 C 153.61 140.01 152.70 140.39 152.37 141.19 L 152.02 142.07 C 151.69 142.87 152.07 143.78 152.87 144.10 C 153.67 144.43 154.58 144.04 154.91 143.24 Z M 155.24 142.43 L 155.65 141.52 C 156.01 140.74 155.66 139.81 154.88 139.45 C 154.10 139.10 153.17 139.44 152.81 140.22 L 152.40 141.13 C 152.04 141.91 152.39 142.84 153.17 143.20 C 153.96 143.55 154.88 143.21 155.24 142.43 Z M 155.60 141.62 L 156.07 140.75 C 156.49 139.99 156.21 139.05 155.45 138.63 C 154.69 138.22 153.74 138.50 153.33 139.26 L 152.86 140.13 C 152.45 140.89 152.73 141.83 153.49 142.25 C 154.24 142.66 155.19 142.38 155.60 141.62 Z M 156.00 140.88 L 156.56 140.03 C 157.05 139.32 156.86 138.35 156.14 137.87 C 155.42 137.39 154.45 137.58 153.97 138.29 L 153.41 139.14 C 152.93 139.85 153.12 140.82 153.83 141.30 C 154.55 141.78 155.52 141.59 156.00 140.88 Z M 156.46 140.18 L 157.20 139.31 C 157.76 138.65 157.68 137.66 157.03 137.10 C 156.37 136.54 155.39 136.62 154.83 137.28 L 154.08 138.15 C 153.52 138.81 153.60 139.79 154.25 140.35 C 154.91 140.91 155.90 140.83 156.46 140.18 Z M 157.01 139.49 L 157.81 138.83 C 158.48 138.28 158.57 137.29 158.02 136.63 C 157.47 135.96 156.48 135.87 155.82 136.42 L 155.02 137.09 C 154.35 137.64 154.26 138.63 154.81 139.29 C 155.36 139.95 156.35 140.04 157.01 139.49 Z M 157.31 139.11 L 158.05 138.86 C 158.87 138.58 159.31 137.70 159.04 136.88 C 158.76 136.06 157.88 135.62 157.06 135.90 L 156.32 136.14 C 155.50 136.42 155.06 137.30 155.34 138.12 C 155.61 138.94 156.50 139.38 157.31 139.11 Z M 156.79 138.73 L 157.39 139.07 C 158.14 139.50 159.09 139.24 159.52 138.49 C 159.94 137.74 159.68 136.79 158.93 136.36 L 158.33 136.02 C 157.58 135.59 156.63 135.86 156.20 136.61 C 155.78 137.35 156.04 138.31 156.79 138.73 Z M 156.76 138.41 L 157.19 139.28 C 157.57 140.06 158.51 140.37 159.28 139.99 C 160.05 139.61 160.37 138.67 159.99 137.90 L 159.56 137.03 C 159.18 136.25 158.24 135.94 157.47 136.32 C 156.69 136.70 156.38 137.63 156.76 138.41 Z M 157.07 138.93 L 157.34 140.16 C 157.53 141.00 158.37 141.53 159.21 141.35 C 160.05 141.16 160.58 140.32 160.39 139.48 L 160.11 138.25 C 159.92 137.41 159.09 136.88 158.25 137.07 C 157.41 137.26 156.88 138.09 157.07 138.93 Z M 157.32 140.01 L 157.42 140.90 C 157.53 141.76 158.31 142.36 159.16 142.26 C 160.02 142.15 160.63 141.38 160.52 140.52 L 160.41 139.63 C 160.31 138.78 159.53 138.17 158.68 138.27 C 157.82 138.38 157.21 139.16 157.32 140.01 Z M 157.42 140.83 L 157.49 141.79 C 157.55 142.65 158.30 143.30 159.16 143.23 C 160.02 143.17 160.67 142.42 160.60 141.56 L 160.53 140.59 C 160.47 139.73 159.72 139.09 158.86 139.15 C 158.00 139.22 157.35 139.97 157.42 140.83 Z M 157.49 141.74 L 157.53 142.77 C 157.57 143.63 158.30 144.30 159.16 144.26 C 160.02 144.22 160.69 143.49 160.65 142.63 L 160.61 141.61 C 160.57 140.75 159.84 140.08 158.98 140.12 C 158.12 140.15 157.45 140.88 157.49 141.74 Z M 157.53 142.74 L 157.56 143.80 C 157.58 144.66 158.29 145.34 159.15 145.32 C 160.01 145.30 160.70 144.58 160.68 143.72 L 160.65 142.66 C 160.63 141.80 159.92 141.12 159.05 141.14 C 158.19 141.16 157.51 141.87 157.53 142.74 Z M 157.56 143.78 L 157.57 144.85 C 157.58 145.71 158.29 146.40 159.15 146.39 C 160.01 146.38 160.70 145.67 160.69 144.81 L 160.68 143.74 C 160.67 142.88 159.96 142.19 159.10 142.20 C 158.23 142.21 157.54 142.92 157.56 143.78 Z M 157.57 144.84 L 157.57 145.87 C 157.58 146.73 158.28 147.43 159.14 147.42 C 160.01 147.42 160.70 146.72 160.70 145.85 L 160.69 144.82 C 160.69 143.96 159.98 143.26 159.12 143.27 C 158.26 143.27 157.56 143.98 157.57 144.84 Z M 157.57 145.85 L 157.57 146.88 C 157.56 147.74 158.26 148.44 159.12 148.45 C 159.98 148.45 160.68 147.76 160.69 146.90 L 160.70 145.87 C 160.70 145.01 160.01 144.31 159.15 144.30 C 158.28 144.30 157.58 144.99 157.57 145.85 Z M 157.57 146.85 L 157.54 147.85 C 157.52 148.71 158.20 149.43 159.06 149.45 C 159.92 149.48 160.64 148.80 160.66 147.93 L 160.69 146.93 C 160.71 146.07 160.03 145.35 159.17 145.33 C 158.31 145.30 157.59 145.99 157.57 146.85 Z M 157.54 147.81 L 157.49 148.79 C 157.44 149.65 158.10 150.38 158.96 150.43 C 159.83 150.48 160.56 149.82 160.61 148.95 L 160.66 147.98 C 160.71 147.12 160.05 146.38 159.19 146.33 C 158.33 146.29 157.59 146.95 157.54 147.81 Z M 157.50 148.73 L 157.41 149.67 C 157.33 150.53 157.96 151.29 158.82 151.37 C 159.68 151.45 160.44 150.82 160.52 149.96 L 160.60 149.01 C 160.68 148.16 160.05 147.40 159.19 147.32 C 158.34 147.24 157.57 147.87 157.50 148.73 Z M 157.42 149.60 L 157.27 150.61 C 157.15 151.46 157.74 152.25 158.59 152.38 C 159.45 152.50 160.24 151.91 160.36 151.05 L 160.51 150.04 C 160.63 149.19 160.04 148.40 159.18 148.27 C 158.33 148.15 157.54 148.74 157.42 149.60 Z M 157.29 150.52 L 157.09 151.50 C 156.92 152.34 157.47 153.17 158.32 153.33 C 159.16 153.50 159.98 152.95 160.15 152.11 L 160.35 151.14 C 160.52 150.29 159.97 149.47 159.12 149.30 C 158.28 149.13 157.45 149.68 157.29 150.52 Z M 157.11 151.42 L 156.87 152.38 C 156.66 153.21 157.16 154.06 158.00 154.27 C 158.84 154.48 159.69 153.97 159.90 153.14 L 160.14 152.18 C 160.35 151.35 159.84 150.50 159.00 150.29 C 158.17 150.08 157.32 150.59 157.11 151.42 Z M 156.89 152.31 L 156.60 153.26 C 156.36 154.09 156.83 154.96 157.65 155.21 C 158.48 155.45 159.35 154.98 159.60 154.15 L 159.88 153.20 C 160.12 152.38 159.65 151.51 158.83 151.26 C 158.00 151.02 157.13 151.49 156.89 152.31 Z M 156.62 153.22 L 156.30 154.18 C 156.02 155.00 156.46 155.88 157.28 156.16 C 158.10 156.43 158.98 155.99 159.26 155.17 L 159.58 154.20 C 159.85 153.39 159.41 152.50 158.59 152.23 C 157.78 151.96 156.89 152.40 156.62 153.22 Z M 156.31 154.15 L 155.95 155.12 C 155.66 155.93 156.08 156.83 156.89 157.12 C 157.70 157.41 158.60 156.99 158.89 156.18 L 159.24 155.21 C 159.54 154.40 159.12 153.50 158.31 153.21 C 157.50 152.92 156.60 153.34 156.31 154.15 Z M 155.96 155.10 L 155.60 156.06 C 155.29 156.86 155.69 157.77 156.50 158.07 C 157.31 158.38 158.21 157.98 158.51 157.17 L 158.88 156.21 C 159.19 155.40 158.79 154.50 157.98 154.19 C 157.17 153.89 156.27 154.29 155.96 155.10 Z M 155.60 156.04 L 155.24 156.96 C 154.92 157.76 155.31 158.67 156.12 158.99 C 156.92 159.31 157.83 158.91 158.14 158.11 L 158.51 157.19 C 158.83 156.39 158.43 155.48 157.63 155.16 C 156.83 154.85 155.92 155.24 155.60 156.04 Z M 155.24 156.95 L 154.90 157.81 C 154.57 158.61 154.96 159.52 155.76 159.84 C 156.56 160.17 157.47 159.78 157.79 158.98 L 158.14 158.12 C 158.46 157.32 158.08 156.41 157.28 156.09 C 156.48 155.77 155.57 156.15 155.24 156.95 Z M 154.90 157.80 L 154.48 158.83 C 154.15 159.63 154.53 160.54 155.32 160.87 C 156.12 161.20 157.03 160.82 157.36 160.02 L 157.79 158.99 C 158.11 158.19 157.73 157.28 156.94 156.95 C 156.14 156.62 155.23 157.00 154.90 157.80 Z M 154.48 158.82 L 154.09 159.73 C 153.76 160.53 154.13 161.44 154.93 161.78 C 155.72 162.11 156.64 161.74 156.97 160.95 L 157.36 160.03 C 157.69 159.24 157.32 158.32 156.53 157.99 C 155.73 157.65 154.82 158.02 154.48 158.82 Z M 154.10 159.71 L 153.73 160.56 C 153.39 161.35 153.75 162.27 154.54 162.62 C 155.33 162.96 156.25 162.60 156.59 161.81 L 156.96 160.97 C 157.31 160.18 156.95 159.25 156.16 158.91 C 155.37 158.56 154.45 158.92 154.10 159.71 Z M 153.74 160.54 L 153.34 161.41 C 152.99 162.20 153.33 163.12 154.12 163.48 C 154.90 163.84 155.83 163.49 156.18 162.71 L 156.58 161.84 C 156.94 161.05 156.60 160.12 155.81 159.77 C 155.03 159.41 154.10 159.75 153.74 160.54 Z M 153.35 161.39 L 152.93 162.29 C 152.56 163.07 152.89 164.00 153.67 164.37 C 154.45 164.74 155.38 164.40 155.75 163.63 L 156.18 162.73 C 156.54 161.95 156.21 161.02 155.43 160.65 C 154.65 160.28 153.72 160.61 153.35 161.39 Z M 152.93 162.27 L 152.49 163.18 C 152.12 163.96 152.44 164.89 153.22 165.27 C 153.99 165.64 154.93 165.32 155.30 164.55 L 155.74 163.64 C 156.12 162.86 155.80 161.93 155.02 161.55 C 154.25 161.18 153.31 161.50 152.93 162.27 Z M 152.50 163.17 L 152.06 164.06 C 151.68 164.84 152.00 165.77 152.77 166.15 C 153.55 166.53 154.48 166.21 154.86 165.44 L 155.30 164.55 C 155.68 163.78 155.36 162.84 154.59 162.46 C 153.81 162.08 152.88 162.40 152.50 163.17 Z M 152.07 164.05 L 151.63 164.93 C 151.24 165.70 151.55 166.64 152.32 167.03 C 153.09 167.41 154.03 167.10 154.42 166.33 L 154.86 165.45 C 155.24 164.68 154.93 163.74 154.16 163.36 C 153.39 162.97 152.45 163.28 152.07 164.05 Z M 151.63 164.91 L 151.17 165.81 C 150.78 166.58 151.08 167.52 151.84 167.91 C 152.61 168.31 153.55 168.01 153.95 167.24 L 154.41 166.35 C 154.80 165.58 154.50 164.64 153.74 164.24 C 152.97 163.85 152.03 164.15 151.63 164.91 Z M 151.18 165.79 L 150.70 166.68 C 150.30 167.44 150.58 168.38 151.34 168.79 C 152.10 169.20 153.05 168.92 153.45 168.16 L 153.93 167.27 C 154.34 166.51 154.06 165.56 153.30 165.15 C 152.54 164.74 151.59 165.03 151.18 165.79 Z M 150.72 166.65 L 150.25 167.49 C 149.83 168.24 150.10 169.19 150.85 169.61 C 151.60 170.03 152.55 169.77 152.97 169.01 L 153.44 168.18 C 153.86 167.43 153.59 166.48 152.84 166.05 C 152.09 165.63 151.14 165.90 150.72 166.65 Z M 150.26 167.48 L 149.76 168.34 C 149.34 169.09 149.60 170.04 150.35 170.47 C 151.09 170.90 152.05 170.64 152.48 169.89 L 152.97 169.03 C 153.40 168.28 153.14 167.32 152.39 166.90 C 151.64 166.47 150.68 166.73 150.26 167.48 Z M 149.77 168.34 L 149.25 169.23 C 148.82 169.98 149.08 170.94 149.83 171.36 C 150.58 171.79 151.53 171.53 151.96 170.79 L 152.47 169.89 C 152.90 169.14 152.64 168.19 151.90 167.76 C 151.15 167.33 150.19 167.59 149.77 168.34 Z M 149.25 169.24 L 148.75 170.12 C 148.32 170.87 148.58 171.83 149.33 172.25 C 150.08 172.68 151.04 172.41 151.46 171.66 L 151.96 170.78 C 152.39 170.03 152.13 169.08 151.38 168.65 C 150.63 168.23 149.67 168.49 149.25 169.24 Z M 148.74 170.13 L 148.26 170.99 C 147.84 171.74 148.10 172.70 148.85 173.12 C 149.61 173.54 150.56 173.27 150.98 172.52 L 151.47 171.66 C 151.89 170.91 151.62 169.95 150.87 169.53 C 150.12 169.11 149.16 169.38 148.74 170.13 Z M 148.26 170.99 L 147.76 171.87 C 147.34 172.62 147.61 173.58 148.36 174.00 C 149.11 174.42 150.06 174.15 150.49 173.40 L 150.98 172.52 C 151.40 171.77 151.14 170.82 150.38 170.40 C 149.63 169.97 148.68 170.24 148.26 170.99 Z M 147.77 171.87 L 147.27 172.75 C 146.84 173.50 147.10 174.45 147.85 174.88 C 148.60 175.30 149.56 175.04 149.98 174.29 L 150.48 173.41 C 150.91 172.66 150.64 171.70 149.89 171.28 C 149.14 170.85 148.19 171.12 147.77 171.87 Z M 147.27 172.74 L 146.77 173.60 C 146.34 174.35 146.60 175.30 147.34 175.73 C 148.09 176.16 149.05 175.91 149.48 175.16 L 149.98 174.30 C 150.41 173.55 150.15 172.60 149.41 172.17 C 148.66 171.74 147.70 171.99 147.27 172.74 Z M 146.78 173.59 L 146.29 174.42 C 145.85 175.16 146.09 176.12 146.84 176.56 C 147.58 177.00 148.54 176.75 148.97 176.01 L 149.47 175.18 C 149.91 174.43 149.66 173.48 148.92 173.04 C 148.18 172.60 147.22 172.84 146.78 173.59 Z M 146.29 174.41 L 145.79 175.25 C 145.34 175.99 145.58 176.94 146.32 177.39 C 147.06 177.84 148.02 177.60 148.46 176.86 L 148.97 176.02 C 149.41 175.28 149.18 174.32 148.44 173.88 C 147.70 173.43 146.74 173.67 146.29 174.41 Z M 145.79 175.24 L 145.27 176.10 C 144.82 176.83 145.05 177.80 145.79 178.24 C 146.52 178.69 147.48 178.46 147.93 177.73 L 148.46 176.87 C 148.91 176.13 148.68 175.17 147.94 174.72 C 147.20 174.27 146.24 174.50 145.79 175.24 Z M 145.27 176.10 L 144.72 176.99 C 144.27 177.73 144.50 178.69 145.23 179.14 C 145.97 179.59 146.93 179.36 147.38 178.62 L 147.93 177.73 C 148.38 177.00 148.15 176.03 147.42 175.58 C 146.68 175.13 145.72 175.36 145.27 176.10 Z M 144.72 176.99 L 144.22 177.80 C 143.77 178.54 144.00 179.50 144.73 179.95 C 145.47 180.40 146.43 180.17 146.88 179.44 L 147.38 178.63 C 147.83 177.89 147.60 176.93 146.87 176.48 C 146.14 176.03 145.17 176.25 144.72 176.99 Z M 144.22 177.80 L 143.70 178.64 C 143.25 179.37 143.47 180.34 144.20 180.79 C 144.94 181.25 145.90 181.02 146.35 180.29 L 146.88 179.45 C 147.33 178.71 147.11 177.75 146.37 177.30 C 145.64 176.84 144.68 177.07 144.22 177.80 Z M 143.71 178.63 L 143.16 179.49 C 142.70 180.22 142.92 181.18 143.65 181.64 C 144.38 182.10 145.34 181.88 145.80 181.16 L 146.35 180.30 C 146.81 179.57 146.59 178.61 145.86 178.14 C 145.13 177.68 144.17 177.90 143.71 178.63 Z M 143.17 179.47 L 142.62 180.33 C 142.15 181.06 142.36 182.02 143.08 182.49 C 143.81 182.96 144.77 182.75 145.24 182.03 L 145.80 181.17 C 146.26 180.45 146.06 179.48 145.33 179.01 C 144.61 178.54 143.64 178.75 143.17 179.47 Z M 142.63 180.31 L 142.07 181.16 C 141.59 181.88 141.78 182.85 142.50 183.32 C 143.21 183.80 144.18 183.61 144.66 182.89 L 145.23 182.05 C 145.71 181.33 145.51 180.36 144.80 179.88 C 144.08 179.40 143.11 179.60 142.63 180.31 Z M 142.08 181.13 L 141.50 181.98 C 141.00 182.68 141.18 183.66 141.89 184.15 C 142.59 184.64 143.57 184.47 144.06 183.76 L 144.65 182.92 C 145.14 182.21 144.96 181.24 144.26 180.75 C 143.55 180.25 142.58 180.43 142.08 181.13 Z M 141.51 181.95 L 140.92 182.77 C 140.42 183.47 140.57 184.44 141.27 184.95 C 141.97 185.46 142.94 185.30 143.45 184.60 L 144.04 183.78 C 144.55 183.09 144.39 182.11 143.69 181.60 C 143.00 181.10 142.02 181.25 141.51 181.95 Z M 140.94 182.75 L 140.34 183.54 C 139.82 184.23 139.96 185.21 140.65 185.73 C 141.34 186.25 142.32 186.11 142.84 185.42 L 143.43 184.62 C 143.95 183.93 143.81 182.95 143.12 182.44 C 142.43 181.92 141.46 182.06 140.94 182.75 Z M 140.35 183.53 L 139.75 184.30 C 139.22 184.99 139.35 185.97 140.03 186.50 C 140.71 187.02 141.69 186.90 142.22 186.22 L 142.82 185.44 C 143.35 184.76 143.23 183.78 142.54 183.25 C 141.86 182.72 140.88 182.84 140.35 183.53 Z M 139.76 184.29 L 139.15 185.06 C 138.61 185.73 138.72 186.71 139.40 187.25 C 140.07 187.79 141.05 187.68 141.59 187.00 L 142.21 186.23 C 142.74 185.56 142.63 184.58 141.96 184.04 C 141.28 183.50 140.30 183.61 139.76 184.29 Z M 139.16 185.04 L 138.52 185.82 C 137.98 186.49 138.08 187.48 138.74 188.02 C 139.41 188.57 140.40 188.47 140.94 187.80 L 141.58 187.02 C 142.13 186.35 142.03 185.37 141.36 184.82 C 140.69 184.28 139.71 184.38 139.16 185.04 Z M 138.54 185.81 L 137.89 186.58 C 137.34 187.24 137.42 188.23 138.08 188.78 C 138.75 189.33 139.73 189.25 140.28 188.58 L 140.93 187.81 C 141.48 187.15 141.40 186.17 140.73 185.62 C 140.07 185.06 139.09 185.15 138.54 185.81 Z M 137.90 186.57 L 137.25 187.32 C 136.69 187.98 136.77 188.96 137.42 189.52 C 138.07 190.09 139.06 190.01 139.62 189.36 L 140.27 188.60 C 140.83 187.94 140.76 186.96 140.10 186.40 C 139.45 185.84 138.46 185.91 137.90 186.57 Z M 137.26 187.31 L 136.61 188.05 C 136.04 188.70 136.10 189.69 136.75 190.26 C 137.40 190.83 138.38 190.76 138.95 190.12 L 139.61 189.37 C 140.18 188.72 140.12 187.74 139.47 187.17 C 138.82 186.60 137.83 186.66 137.26 187.31 Z M 136.62 188.04 L 135.95 188.78 C 135.38 189.42 135.43 190.41 136.07 190.98 C 136.71 191.56 137.69 191.51 138.27 190.87 L 138.94 190.13 C 139.52 189.49 139.47 188.50 138.83 187.93 C 138.19 187.35 137.20 187.40 136.62 188.04 Z M 135.97 188.77 L 135.28 189.50 C 134.70 190.14 134.74 191.13 135.37 191.71 C 136.01 192.30 136.99 192.26 137.58 191.62 L 138.26 190.88 C 138.85 190.25 138.81 189.26 138.17 188.68 C 137.54 188.09 136.55 188.13 135.97 188.77 Z M 135.29 189.49 L 134.61 190.22 C 134.02 190.85 134.05 191.84 134.68 192.43 C 135.31 193.02 136.30 192.99 136.89 192.36 L 137.57 191.63 C 138.16 191.00 138.13 190.02 137.50 189.43 C 136.87 188.84 135.88 188.87 135.29 189.49 Z M 134.62 190.22 L 133.93 190.94 C 133.33 191.56 133.36 192.55 133.99 193.15 C 134.61 193.74 135.60 193.72 136.19 193.09 L 136.88 192.37 C 137.47 191.74 137.45 190.76 136.82 190.16 C 136.20 189.57 135.21 189.59 134.62 190.22 Z M 133.93 190.94 L 133.24 191.66 C 132.65 192.28 132.67 193.27 133.29 193.86 C 133.92 194.46 134.90 194.44 135.50 193.81 L 136.19 193.09 C 136.78 192.47 136.76 191.48 136.14 190.89 C 135.52 190.29 134.53 190.31 133.93 190.94 Z M 133.25 191.65 L 133.13 191.77 C 132.54 192.40 132.56 193.38 133.18 193.98 C 133.80 194.58 134.79 194.56 135.39 193.93 L 135.50 193.81 C 136.10 193.19 136.07 192.20 135.45 191.61 C 134.83 191.01 133.84 191.03 133.25 191.65 Z"
      fill="black"
      fill-rule="nonzero" /></svg>