<svg xmlns="http://www.w3.org/2000/svg" width="300" height="300" viewBox="0 0 300 300">
<path d="M 148.79 151.95 L 148.15 151.24 C 147.57 150.60 146.58 150.55 145.94 151.12 C 145.30 151.70 145.25 152.69 145.83 153.33 L 146.47 154.04 C 147.05 154.68 148.04 154.73 148.68 154.15 C 149.32 153.58 149.37 152.59 148.79 151.95 Z M 148.24 151.35 L 147.66 150.57 C 147.15 149.88 146.17 149.73 145.48 150.25 C 144.78 150.76 144.64 151.74 145.15 152.43 L 145.73 153.21 C 146.25 153.91 147.23 154.05 147.92 153.54 C 148.61 153.02 148.75 152.05 148.24 151.35 Z M 147.81 150.81 L 147.35 149.88 C 146.97 149.11 146.03 148.79 145.26 149.17 C 144.49 149.56 144.17 150.49 144.55 151.27 L 145.01 152.19 C 145.39 152.96 146.32 153.28 147.10 152.90 C 147.87 152.52 148.19 151.58 147.81 150.81 Z M 147.46 150.18 L 147.22 149.24 C 147.00 148.41 146.14 147.91 145.31 148.13 C 144.48 148.34 143.98 149.20 144.19 150.03 L 144.44 150.97 C 144.66 151.80 145.51 152.30 146.35 152.09 C 147.18 151.87 147.68 151.01 147.46 150.18 Z M 147.26 149.46 L 147.14 148.46 C 147.04 147.61 146.26 146.99 145.41 147.09 C 144.55 147.19 143.94 147.97 144.04 148.82 L 144.15 149.82 C 144.25 150.67 145.03 151.29 145.89 151.19 C 146.74 151.09 147.36 150.31 147.26 149.46 Z M 147.15 148.61 L 147.13 147.57 C 147.10 146.71 146.39 146.03 145.53 146.05 C 144.67 146.07 143.98 146.78 144.00 147.65 L 144.03 148.68 C 144.05 149.54 144.76 150.23 145.63 150.20 C 146.49 150.18 147.17 149.47 147.15 148.61 Z M 147.12 147.68 L 147.17 146.66 C 147.20 145.80 146.54 145.07 145.68 145.03 C 144.81 145.00 144.09 145.66 144.05 146.53 L 144.00 147.54 C 143.97 148.40 144.64 149.13 145.50 149.17 C 146.36 149.21 147.09 148.54 147.12 147.68 Z M 147.16 146.75 L 147.28 145.66 C 147.37 144.80 146.74 144.03 145.89 143.94 C 145.03 143.86 144.26 144.48 144.17 145.34 L 144.06 146.43 C 143.97 147.29 144.59 148.06 145.45 148.14 C 146.30 148.23 147.07 147.61 147.16 146.75 Z M 147.25 145.83 L 147.47 144.83 C 147.65 143.98 147.12 143.15 146.27 142.97 C 145.43 142.78 144.60 143.32 144.42 144.16 L 144.20 145.17 C 144.01 146.01 144.55 146.84 145.39 147.02 C 146.23 147.21 147.06 146.67 147.25 145.83 Z M 147.37 145.12 L 147.74 144.28 C 148.09 143.49 147.73 142.57 146.94 142.22 C 146.15 141.87 145.23 142.23 144.88 143.02 L 144.51 143.86 C 144.17 144.65 144.52 145.57 145.31 145.92 C 146.10 146.27 147.02 145.91 147.37 145.12 Z M 147.48 144.69 L 148.12 143.96 C 148.70 143.32 148.64 142.33 147.99 141.76 C 147.35 141.19 146.36 141.24 145.79 141.89 L 145.14 142.61 C 144.57 143.26 144.63 144.25 145.28 144.82 C 145.92 145.39 146.91 145.33 147.48 144.69 Z M 147.69 144.30 L 148.61 143.81 C 149.37 143.41 149.66 142.46 149.26 141.70 C 148.85 140.94 147.90 140.65 147.14 141.06 L 146.22 141.55 C 145.46 141.95 145.17 142.90 145.58 143.66 C 145.98 144.42 146.93 144.71 147.69 144.30 Z M 147.98 143.99 L 148.91 143.93 C 149.77 143.87 150.42 143.12 150.36 142.26 C 150.30 141.40 149.55 140.75 148.69 140.81 L 147.77 140.88 C 146.91 140.94 146.26 141.68 146.32 142.54 C 146.38 143.40 147.12 144.05 147.98 143.99 Z M 147.97 143.69 L 148.67 144.14 C 149.40 144.60 150.37 144.38 150.83 143.65 C 151.29 142.92 151.07 141.96 150.34 141.50 L 149.63 141.05 C 148.91 140.59 147.94 140.81 147.48 141.54 C 147.02 142.27 147.24 143.23 147.97 143.69 Z M 148.14 143.58 L 148.62 144.43 C 149.04 145.18 149.99 145.45 150.75 145.03 C 151.50 144.61 151.77 143.66 151.35 142.91 L 150.87 142.06 C 150.45 141.30 149.50 141.03 148.75 141.45 C 147.99 141.87 147.72 142.82 148.14 143.58 Z M 148.49 144.12 L 148.81 145.18 C 149.05 146.01 149.92 146.48 150.75 146.23 C 151.57 145.99 152.04 145.12 151.80 144.29 L 151.48 143.23 C 151.24 142.40 150.37 141.93 149.54 142.17 C 148.71 142.42 148.24 143.29 148.49 144.12 Z M 148.77 145.05 L 148.97 146.02 C 149.14 146.86 149.96 147.41 150.81 147.24 C 151.65 147.07 152.20 146.25 152.03 145.40 L 151.83 144.43 C 151.66 143.58 150.84 143.04 149.99 143.21 C 149.15 143.38 148.60 144.20 148.77 145.05 Z M 148.95 145.93 L 149.09 146.92 C 149.21 147.77 150.00 148.37 150.85 148.25 C 151.71 148.13 152.30 147.34 152.18 146.48 L 152.04 145.49 C 151.92 144.64 151.13 144.04 150.28 144.16 C 149.43 144.28 148.83 145.07 148.95 145.93 Z M 149.08 146.84 L 149.17 147.84 C 149.25 148.70 150.01 149.34 150.87 149.26 C 151.73 149.18 152.36 148.42 152.28 147.56 L 152.19 146.56 C 152.11 145.70 151.36 145.07 150.50 145.15 C 149.64 145.22 149.00 145.98 149.08 146.84 Z M 149.17 147.76 L 149.20 148.83 C 149.23 149.69 149.96 150.36 150.82 150.33 C 151.68 150.30 152.35 149.58 152.32 148.72 L 152.29 147.65 C 152.26 146.79 151.53 146.11 150.67 146.14 C 149.81 146.17 149.14 146.90 149.17 147.76 Z M 149.21 148.60 L 149.10 149.60 C 149.01 150.45 149.62 151.23 150.48 151.32 C 151.34 151.42 152.11 150.80 152.20 149.94 L 152.32 148.94 C 152.41 148.09 151.79 147.31 150.94 147.22 C 150.08 147.12 149.31 147.74 149.21 148.60 Z M 149.23 149.12 L 148.86 149.95 C 148.50 150.74 148.85 151.66 149.63 152.02 C 150.42 152.38 151.34 152.03 151.70 151.24 L 152.07 150.41 C 152.43 149.63 152.08 148.70 151.30 148.35 C 150.51 147.99 149.59 148.34 149.23 149.12 Z M 149.29 149.38 L 148.58 149.96 C 147.91 150.50 147.81 151.49 148.35 152.16 C 148.89 152.83 149.88 152.93 150.55 152.39 L 151.26 151.81 C 151.93 151.27 152.03 150.29 151.49 149.62 C 150.95 148.95 149.96 148.84 149.29 149.38 Z M 149.08 149.69 L 148.12 150.00 C 147.30 150.27 146.86 151.15 147.13 151.97 C 147.40 152.79 148.28 153.24 149.10 152.97 L 150.05 152.66 C 150.87 152.39 151.32 151.51 151.05 150.69 C 150.78 149.87 149.90 149.42 149.08 149.69 Z M 148.54 149.93 L 147.49 149.97 C 146.63 150.01 145.96 150.74 146.00 151.60 C 146.03 152.46 146.76 153.13 147.62 153.09 L 148.68 153.05 C 149.54 153.01 150.21 152.28 150.17 151.42 C 150.13 150.56 149.40 149.89 148.54 149.93 Z M 147.88 150.01 L 146.90 149.80 C 146.06 149.62 145.23 150.16 145.05 151.00 C 144.87 151.84 145.41 152.67 146.25 152.85 L 147.23 153.06 C 148.08 153.24 148.91 152.70 149.08 151.86 C 149.26 151.01 148.73 150.19 147.88 150.01 Z M 147.28 149.93 L 146.40 149.48 C 145.63 149.10 144.69 149.40 144.30 150.17 C 143.91 150.94 144.22 151.88 144.99 152.27 L 145.87 152.72 C 146.64 153.11 147.58 152.80 147.97 152.03 C 148.36 151.26 148.05 150.32 147.28 149.93 Z M 146.76 149.73 L 146.02 149.05 C 145.39 148.47 144.40 148.51 143.82 149.14 C 143.23 149.77 143.27 150.76 143.90 151.34 L 144.63 152.02 C 145.27 152.61 146.25 152.57 146.84 151.94 C 147.43 151.31 147.39 150.32 146.76 149.73 Z M 146.29 149.38 L 145.80 148.58 C 145.34 147.85 144.38 147.62 143.65 148.08 C 142.92 148.53 142.69 149.49 143.14 150.23 L 143.64 151.02 C 144.09 151.75 145.05 151.98 145.79 151.53 C 146.52 151.07 146.74 150.11 146.29 149.38 Z M 145.93 148.86 L 145.59 147.94 C 145.29 147.13 144.39 146.72 143.58 147.02 C 142.77 147.32 142.36 148.22 142.66 149.03 L 143.01 149.95 C 143.31 150.76 144.21 151.17 145.02 150.87 C 145.82 150.57 146.24 149.67 145.93 148.86 Z M 145.65 148.14 L 145.42 147.13 C 145.23 146.29 144.40 145.76 143.56 145.95 C 142.72 146.14 142.19 146.97 142.38 147.81 L 142.60 148.83 C 142.79 149.67 143.63 150.20 144.47 150.01 C 145.31 149.82 145.84 148.98 145.65 148.14 Z M 145.45 147.27 L 145.31 146.23 C 145.20 145.38 144.42 144.77 143.56 144.88 C 142.71 145.00 142.11 145.78 142.22 146.63 L 142.35 147.67 C 142.46 148.53 143.25 149.13 144.10 149.02 C 144.96 148.91 145.56 148.12 145.45 147.27 Z M 145.32 146.35 L 145.27 145.33 C 145.22 144.47 144.49 143.81 143.63 143.86 C 142.77 143.90 142.11 144.64 142.15 145.50 L 142.21 146.51 C 142.25 147.38 142.99 148.04 143.85 147.99 C 144.71 147.95 145.37 147.21 145.32 146.35 Z M 145.27 145.47 L 145.31 144.47 C 145.34 143.61 144.67 142.88 143.81 142.85 C 142.94 142.82 142.22 143.49 142.19 144.35 L 142.15 145.36 C 142.12 146.22 142.79 146.94 143.65 146.98 C 144.51 147.01 145.24 146.33 145.27 145.47 Z M 145.29 144.64 L 145.44 143.68 C 145.56 142.82 144.98 142.03 144.12 141.90 C 143.27 141.77 142.48 142.36 142.35 143.21 L 142.20 144.18 C 142.08 145.03 142.66 145.83 143.52 145.96 C 144.37 146.08 145.16 145.49 145.29 144.64 Z M 145.39 143.90 L 145.69 142.90 C 145.94 142.08 145.47 141.21 144.65 140.96 C 143.82 140.71 142.95 141.17 142.70 142.00 L 142.40 142.99 C 142.15 143.82 142.61 144.69 143.44 144.94 C 144.26 145.19 145.14 144.72 145.39 143.90 Z M 145.58 143.17 L 146.05 142.26 C 146.45 141.50 146.14 140.55 145.38 140.16 C 144.61 139.76 143.67 140.06 143.28 140.83 L 142.81 141.73 C 142.41 142.50 142.71 143.44 143.48 143.84 C 144.25 144.23 145.19 143.93 145.58 143.17 Z M 145.86 142.55 L 146.47 141.81 C 147.03 141.15 146.94 140.16 146.28 139.61 C 145.61 139.06 144.63 139.15 144.08 139.81 L 143.46 140.54 C 142.91 141.21 143.00 142.19 143.66 142.74 C 144.32 143.30 145.31 143.21 145.86 142.55 Z M 146.15 142.11 L 147.00 141.54 C 147.71 141.05 147.90 140.08 147.42 139.37 C 146.94 138.65 145.97 138.46 145.26 138.94 L 144.41 139.51 C 143.69 139.99 143.50 140.96 143.98 141.68 C 144.46 142.40 145.43 142.59 146.15 142.11 Z M 146.48 141.76 L 147.48 141.53 C 148.32 141.33 148.84 140.49 148.64 139.65 C 148.44 138.81 147.60 138.29 146.76 138.49 L 145.77 138.72 C 144.93 138.92 144.41 139.76 144.61 140.60 C 144.80 141.44 145.64 141.96 146.48 141.76 Z M 146.67 141.50 L 147.52 141.76 C 148.35 142.01 149.22 141.54 149.47 140.71 C 149.71 139.89 149.25 139.02 148.42 138.77 L 147.57 138.51 C 146.75 138.26 145.87 138.73 145.63 139.55 C 145.38 140.38 145.84 141.25 146.67 141.50 Z M 146.71 141.18 L 147.19 141.84 C 147.70 142.53 148.67 142.69 149.37 142.18 C 150.07 141.67 150.22 140.69 149.71 139.99 L 149.23 139.34 C 148.72 138.64 147.75 138.49 147.05 139.00 C 146.35 139.51 146.20 140.49 146.71 141.18 Z M 146.95 141.34 L 147.21 142.29 C 147.44 143.12 148.31 143.61 149.14 143.37 C 149.97 143.14 150.45 142.28 150.22 141.45 L 149.95 140.50 C 149.72 139.67 148.86 139.18 148.03 139.41 C 147.20 139.64 146.71 140.51 146.95 141.34 Z M 147.17 142.05 L 147.30 143.19 C 147.40 144.04 148.17 144.66 149.03 144.56 C 149.89 144.46 150.50 143.68 150.40 142.82 L 150.27 141.69 C 150.17 140.83 149.39 140.22 148.53 140.32 C 147.68 140.42 147.06 141.20 147.17 142.05 Z M 147.29 143.09 L 147.35 144.10 C 147.39 144.96 148.13 145.62 148.99 145.57 C 149.85 145.52 150.51 144.78 150.46 143.92 L 150.41 142.92 C 150.36 142.06 149.62 141.40 148.76 141.45 C 147.90 141.50 147.24 142.23 147.29 143.09 Z M 147.34 144.05 L 147.37 145.05 C 147.39 145.91 148.10 146.59 148.96 146.57 C 149.82 146.55 150.51 145.84 150.49 144.98 L 150.47 143.98 C 150.45 143.11 149.73 142.43 148.87 142.45 C 148.01 142.47 147.32 143.18 147.34 144.05 Z M 147.37 145.00 L 147.36 146.01 C 147.36 146.87 148.05 147.58 148.92 147.58 C 149.78 147.58 150.48 146.89 150.48 146.03 L 150.49 145.02 C 150.49 144.16 149.80 143.45 148.93 143.45 C 148.07 143.45 147.37 144.14 147.37 145.00 Z M 147.36 145.98 L 147.34 146.99 C 147.31 147.85 147.99 148.57 148.85 148.59 C 149.72 148.61 150.43 147.93 150.46 147.07 L 150.48 146.06 C 150.51 145.20 149.83 144.48 148.96 144.46 C 148.10 144.44 147.39 145.12 147.36 145.98 Z M 147.34 146.95 L 147.29 147.96 C 147.24 148.82 147.91 149.55 148.77 149.60 C 149.63 149.64 150.36 148.98 150.41 148.11 L 150.46 147.10 C 150.50 146.24 149.83 145.51 148.97 145.47 C 148.11 145.43 147.38 146.09 147.34 146.95 Z M 147.29 147.91 L 147.21 148.90 C 147.13 149.76 147.77 150.52 148.63 150.59 C 149.49 150.66 150.25 150.03 150.32 149.17 L 150.40 148.17 C 150.47 147.31 149.84 146.55 148.98 146.48 C 148.12 146.41 147.36 147.05 147.29 147.91 Z M 147.21 148.83 L 147.08 149.81 C 146.97 150.67 147.57 151.45 148.42 151.57 C 149.28 151.68 150.06 151.08 150.18 150.23 L 150.31 149.24 C 150.42 148.39 149.82 147.60 148.97 147.49 C 148.11 147.37 147.33 147.97 147.21 148.83 Z M 147.10 149.71 L 146.90 150.69 C 146.73 151.54 147.28 152.36 148.13 152.53 C 148.97 152.70 149.80 152.15 149.97 151.31 L 150.16 150.32 C 150.33 149.48 149.78 148.66 148.94 148.49 C 148.09 148.32 147.27 148.87 147.10 149.71 Z M 146.93 150.58 L 146.66 151.55 C 146.43 152.39 146.91 153.25 147.74 153.48 C 148.57 153.71 149.43 153.22 149.67 152.39 L 149.94 151.42 C 150.17 150.59 149.68 149.73 148.85 149.50 C 148.02 149.26 147.16 149.75 146.93 150.58 Z M 146.70 151.44 L 146.35 152.38 C 146.06 153.18 146.47 154.08 147.28 154.38 C 148.09 154.68 148.99 154.26 149.28 153.45 L 149.63 152.51 C 149.93 151.70 149.51 150.81 148.70 150.51 C 147.89 150.21 146.99 150.63 146.70 151.44 Z M 146.40 152.25 L 145.99 153.14 C 145.62 153.92 145.96 154.85 146.74 155.22 C 147.52 155.58 148.45 155.25 148.82 154.47 L 149.23 153.57 C 149.60 152.79 149.26 151.86 148.48 151.50 C 147.70 151.13 146.77 151.47 146.40 152.25 Z M 146.07 152.99 L 145.43 154.03 C 144.98 154.76 145.21 155.73 145.95 156.18 C 146.68 156.63 147.64 156.39 148.09 155.66 L 148.73 154.62 C 149.18 153.88 148.95 152.92 148.22 152.47 C 147.48 152.02 146.52 152.25 146.07 152.99 Z M 145.63 153.77 L 144.94 154.51 C 144.35 155.13 144.38 156.12 145.00 156.71 C 145.63 157.30 146.62 157.27 147.21 156.65 L 147.90 155.91 C 148.49 155.29 148.46 154.30 147.83 153.71 C 147.21 153.12 146.22 153.15 145.63 153.77 Z M 145.81 154.04 L 145.22 154.14 C 144.37 154.28 143.80 155.09 143.94 155.94 C 144.09 156.79 144.90 157.36 145.75 157.22 L 146.34 157.11 C 147.19 156.97 147.76 156.16 147.61 155.31 C 147.47 154.46 146.66 153.89 145.81 154.04 Z M 146.77 154.80 L 146.36 154.19 C 145.87 153.48 144.90 153.29 144.19 153.78 C 143.48 154.26 143.29 155.23 143.78 155.94 L 144.19 156.55 C 144.68 157.27 145.65 157.45 146.36 156.97 C 147.07 156.48 147.26 155.51 146.77 154.80 Z M 146.58 154.69 L 146.31 153.59 C 146.11 152.76 145.26 152.24 144.43 152.45 C 143.59 152.66 143.08 153.50 143.28 154.34 L 143.55 155.44 C 143.76 156.28 144.60 156.79 145.44 156.58 C 146.28 156.38 146.79 155.53 146.58 154.69 Z M 146.35 153.78 L 146.21 152.64 C 146.11 151.78 145.34 151.17 144.48 151.27 C 143.62 151.37 143.01 152.15 143.11 153.00 L 143.25 154.15 C 143.35 155.01 144.12 155.62 144.98 155.52 C 145.84 155.42 146.45 154.64 146.35 153.78 Z M 146.22 152.74 L 146.17 151.76 C 146.13 150.90 145.39 150.24 144.53 150.28 C 143.67 150.32 143.01 151.06 143.05 151.92 L 143.10 152.90 C 143.15 153.76 143.88 154.43 144.74 154.38 C 145.60 154.34 146.27 153.60 146.22 152.74 Z M 146.17 151.85 L 146.18 150.84 C 146.18 149.98 145.49 149.27 144.62 149.27 C 143.76 149.27 143.06 149.96 143.06 150.82 L 143.05 151.83 C 143.05 152.69 143.74 153.40 144.61 153.40 C 145.47 153.40 146.17 152.71 146.17 151.85 Z M 146.17 150.93 L 146.24 149.91 C 146.29 149.05 145.63 148.31 144.77 148.26 C 143.91 148.20 143.17 148.86 143.12 149.72 L 143.06 150.74 C 143.01 151.60 143.66 152.34 144.52 152.39 C 145.38 152.44 146.12 151.79 146.17 150.93 Z M 146.23 150.00 L 146.35 148.97 C 146.46 148.12 145.85 147.34 144.99 147.23 C 144.13 147.13 143.36 147.74 143.25 148.60 L 143.13 149.63 C 143.02 150.48 143.63 151.26 144.49 151.36 C 145.35 151.47 146.12 150.86 146.23 150.00 Z M 146.34 149.08 L 146.53 148.06 C 146.69 147.21 146.14 146.39 145.29 146.23 C 144.44 146.07 143.62 146.63 143.46 147.47 L 143.27 148.49 C 143.11 149.34 143.66 150.16 144.51 150.32 C 145.36 150.48 146.17 149.92 146.34 149.08 Z M 146.50 148.18 L 146.77 147.22 C 147.00 146.39 146.51 145.53 145.68 145.30 C 144.85 145.07 143.99 145.56 143.76 146.39 L 143.49 147.35 C 143.26 148.18 143.75 149.04 144.58 149.27 C 145.41 149.50 146.27 149.01 146.50 148.18 Z M 146.72 147.36 L 147.06 146.47 C 147.37 145.67 146.97 144.76 146.17 144.45 C 145.36 144.14 144.46 144.55 144.15 145.35 L 143.81 146.24 C 143.50 147.05 143.90 147.95 144.70 148.26 C 145.51 148.57 146.41 148.17 146.72 147.36 Z M 146.97 146.67 L 147.52 145.69 C 147.93 144.93 147.66 143.98 146.91 143.56 C 146.16 143.14 145.20 143.42 144.79 144.17 L 144.24 145.15 C 143.82 145.91 144.09 146.86 144.85 147.28 C 145.60 147.69 146.55 147.42 146.97 146.67 Z M 147.31 145.98 L 148.00 145.21 C 148.58 144.57 148.53 143.59 147.89 143.01 C 147.25 142.43 146.27 142.48 145.69 143.12 L 144.99 143.88 C 144.42 144.52 144.46 145.51 145.10 146.08 C 145.74 146.66 146.73 146.62 147.31 145.98 Z M 147.44 145.61 L 148.18 145.30 C 148.98 144.97 149.36 144.06 149.03 143.26 C 148.70 142.47 147.79 142.09 146.99 142.42 L 146.25 142.72 C 145.45 143.05 145.07 143.96 145.40 144.76 C 145.73 145.56 146.64 145.94 147.44 145.61 Z M 147.03 145.32 L 147.80 145.61 C 148.61 145.91 149.51 145.51 149.81 144.70 C 150.12 143.89 149.71 142.99 148.90 142.69 L 148.13 142.40 C 147.33 142.09 146.43 142.50 146.12 143.31 C 145.82 144.12 146.23 145.02 147.03 145.32 Z M 147.17 145.17 L 147.84 145.95 C 148.40 146.60 149.39 146.68 150.04 146.11 C 150.69 145.55 150.77 144.57 150.21 143.91 L 149.54 143.13 C 148.98 142.48 147.99 142.40 147.34 142.96 C 146.68 143.53 146.61 144.51 147.17 145.17 Z M 147.61 145.59 L 148.07 146.58 C 148.44 147.36 149.37 147.69 150.15 147.33 C 150.93 146.96 151.26 146.03 150.90 145.25 L 150.44 144.27 C 150.07 143.49 149.14 143.15 148.36 143.52 C 147.58 143.88 147.24 144.81 147.61 145.59 Z M 147.97 146.31 L 148.22 147.26 C 148.44 148.10 149.29 148.60 150.13 148.38 C 150.96 148.16 151.46 147.31 151.24 146.47 L 150.99 145.52 C 150.78 144.69 149.92 144.19 149.09 144.40 C 148.26 144.62 147.76 145.48 147.97 146.31 Z M 148.19 147.09 L 148.33 148.09 C 148.45 148.94 149.24 149.53 150.09 149.41 C 150.95 149.29 151.54 148.50 151.42 147.65 L 151.28 146.65 C 151.16 145.79 150.37 145.20 149.51 145.32 C 148.66 145.44 148.07 146.23 148.19 147.09 Z M 148.32 147.98 L 148.39 149.00 C 148.45 149.86 149.20 150.50 150.06 150.44 C 150.92 150.38 151.57 149.63 151.50 148.77 L 151.43 147.75 C 151.37 146.89 150.62 146.25 149.76 146.31 C 148.90 146.37 148.26 147.12 148.32 147.98 Z M 148.39 148.92 L 148.41 149.95 C 148.43 150.81 149.15 151.49 150.01 151.47 C 150.87 151.45 151.55 150.73 151.53 149.87 L 151.51 148.85 C 151.49 147.99 150.77 147.30 149.91 147.32 C 149.05 147.35 148.37 148.06 148.39 148.92 Z M 148.41 149.83 L 148.36 150.82 C 148.31 151.68 148.97 152.42 149.84 152.46 C 150.70 152.51 151.43 151.85 151.48 150.99 L 151.53 149.99 C 151.58 149.13 150.92 148.40 150.06 148.35 C 149.20 148.30 148.46 148.96 148.41 149.83 Z M 148.38 150.63 L 148.21 151.60 C 148.06 152.45 148.63 153.26 149.48 153.40 C 150.33 153.55 151.14 152.99 151.29 152.14 L 151.46 151.18 C 151.61 150.33 151.04 149.52 150.19 149.37 C 149.34 149.22 148.53 149.79 148.38 150.63 Z M 148.29 151.31 L 147.86 152.43 C 147.55 153.23 147.95 154.14 148.76 154.45 C 149.56 154.76 150.46 154.36 150.77 153.55 L 151.21 152.43 C 151.52 151.62 151.12 150.72 150.31 150.41 C 149.51 150.10 148.60 150.50 148.29 151.31 Z M 148.21 151.89 L 147.61 152.49 C 147.01 153.11 147.02 154.09 147.63 154.70 C 148.24 155.30 149.23 155.30 149.84 154.68 L 150.43 154.09 C 151.03 153.47 151.03 152.48 150.41 151.88 C 149.80 151.27 148.81 151.28 148.21 151.89 Z M 149.29 152.13 L 148.70 151.91 C 147.90 151.60 147.00 152.00 146.69 152.80 C 146.38 153.60 146.78 154.51 147.58 154.82 L 148.16 155.04 C 148.97 155.36 149.87 154.95 150.18 154.15 C 150.49 153.35 150.09 152.44 149.29 152.13 Z M 149.47 152.54 L 148.96 151.71 C 148.51 150.98 147.54 150.75 146.81 151.20 C 146.08 151.66 145.85 152.62 146.30 153.35 L 146.81 154.18 C 147.27 154.92 148.23 155.14 148.96 154.69 C 149.70 154.24 149.92 153.28 149.47 152.54 Z M 149.11 152.04 L 148.72 150.88 C 148.45 150.07 147.57 149.63 146.75 149.90 C 145.93 150.17 145.49 151.06 145.76 151.88 L 146.15 153.03 C 146.42 153.84 147.31 154.29 148.12 154.01 C 148.94 153.74 149.38 152.85 149.11 152.04 Z M 148.78 151.13 L 148.62 150.08 C 148.48 149.23 147.68 148.66 146.82 148.79 C 145.97 148.93 145.40 149.73 145.53 150.58 L 145.70 151.63 C 145.84 152.48 146.64 153.06 147.49 152.92 C 148.34 152.78 148.92 151.98 148.78 151.13 Z M 148.64 150.35 L 148.64 149.34 C 148.65 148.48 147.96 147.77 147.10 147.76 C 146.24 147.75 145.53 148.45 145.52 149.31 L 145.51 150.32 C 145.50 151.18 146.20 151.89 147.06 151.90 C 147.92 151.90 148.63 151.21 148.64 150.35 Z M 148.61 149.67 L 148.82 148.75 C 149.01 147.91 148.49 147.07 147.65 146.88 C 146.81 146.69 145.97 147.21 145.77 148.05 L 145.56 148.97 C 145.37 149.81 145.89 150.65 146.73 150.85 C 147.57 151.04 148.41 150.51 148.61 149.67 Z M 148.63 149.21 L 149.20 148.26 C 149.65 147.52 149.41 146.57 148.67 146.12 C 147.93 145.67 146.97 145.91 146.53 146.65 L 145.96 147.59 C 145.51 148.33 145.75 149.29 146.49 149.74 C 147.23 150.18 148.19 149.94 148.63 149.21 Z M 148.73 148.76 L 149.53 148.22 C 150.25 147.75 150.44 146.78 149.97 146.06 C 149.49 145.34 148.52 145.15 147.80 145.62 L 147.00 146.16 C 146.28 146.63 146.09 147.60 146.57 148.32 C 147.04 149.04 148.01 149.23 148.73 148.76 Z M 148.35 148.45 L 149.06 148.60 C 149.91 148.78 150.73 148.24 150.91 147.39 C 151.09 146.55 150.54 145.72 149.70 145.54 L 148.98 145.40 C 148.14 145.22 147.31 145.76 147.14 146.61 C 146.96 147.45 147.50 148.28 148.35 148.45 Z M 148.11 147.98 L 148.62 148.68 C 149.12 149.38 150.10 149.54 150.80 149.04 C 151.50 148.54 151.65 147.56 151.15 146.86 L 150.65 146.16 C 150.15 145.46 149.17 145.30 148.47 145.81 C 147.77 146.31 147.61 147.28 148.11 147.98 Z M 148.41 148.29 L 148.78 149.35 C 149.07 150.16 149.96 150.59 150.78 150.30 C 151.59 150.01 152.02 149.12 151.73 148.31 L 151.36 147.25 C 151.07 146.44 150.18 146.01 149.36 146.30 C 148.55 146.59 148.12 147.48 148.41 148.29 Z M 148.73 149.16 L 148.94 150.14 C 149.12 150.99 149.95 151.52 150.80 151.34 C 151.64 151.16 152.18 150.33 152.00 149.49 L 151.78 148.50 C 151.60 147.66 150.77 147.12 149.93 147.30 C 149.09 147.48 148.55 148.31 148.73 149.16 Z M 148.92 150.03 L 149.04 150.88 C 149.16 151.73 149.95 152.33 150.81 152.21 C 151.66 152.09 152.25 151.30 152.13 150.44 L 152.02 149.60 C 151.90 148.74 151.11 148.15 150.25 148.27 C 149.40 148.39 148.80 149.18 148.92 150.03 Z M 149.03 150.80 L 149.12 151.74 C 149.19 152.60 149.95 153.23 150.81 153.16 C 151.67 153.08 152.30 152.32 152.23 151.46 L 152.14 150.52 C 152.07 149.66 151.31 149.03 150.45 149.11 C 149.59 149.18 148.96 149.94 149.03 150.80 Z M 149.11 151.68 L 149.17 152.76 C 149.21 153.62 149.95 154.28 150.81 154.23 C 151.67 154.19 152.33 153.46 152.29 152.60 L 152.23 151.52 C 152.19 150.66 151.45 150.00 150.59 150.04 C 149.73 150.09 149.07 150.82 149.11 151.68 Z M 149.17 152.72 L 149.20 153.94 C 149.22 154.80 149.94 155.48 150.80 155.45 C 151.67 155.43 152.35 154.71 152.32 153.85 L 152.29 152.63 C 152.26 151.77 151.54 151.09 150.68 151.12 C 149.82 151.14 149.14 151.86 149.17 152.72 Z M 149.20 153.92 L 149.22 154.87 C 149.23 155.73 149.94 156.41 150.80 156.40 C 151.66 156.39 152.35 155.68 152.34 154.81 L 152.32 153.87 C 152.31 153.01 151.60 152.32 150.73 152.33 C 149.87 152.35 149.19 153.06 149.20 153.92 Z M 149.22 154.86 L 149.23 155.87 C 149.23 156.73 149.94 157.42 150.80 157.41 C 151.66 157.40 152.36 156.70 152.35 155.83 L 152.34 154.82 C 152.33 153.96 151.62 153.27 150.76 153.28 C 149.90 153.29 149.21 153.99 149.22 154.86 Z M 149.23 155.86 L 149.23 156.90 C 149.23 157.76 149.94 158.46 150.80 158.46 C 151.66 158.45 152.36 157.75 152.35 156.89 L 152.35 155.84 C 152.34 154.98 151.64 154.29 150.78 154.29 C 149.92 154.29 149.22 154.99 149.23 155.86 Z M 149.23 156.89 L 149.23 157.94 C 149.23 158.81 149.92 159.51 150.79 159.51 C 151.65 159.51 152.35 158.81 152.35 157.95 L 152.35 156.90 C 152.35 156.04 151.66 155.34 150.79 155.33 C 149.93 155.33 149.23 156.03 149.23 156.89 Z M 149.23 157.94 L 149.22 158.96 C 149.21 159.83 149.91 160.53 150.77 160.54 C 151.63 160.54 152.34 159.85 152.34 158.99 L 152.35 157.96 C 152.36 157.10 151.66 156.39 150.80 156.39 C 149.94 156.38 149.23 157.07 149.23 157.94 Z M 149.22 158.95 L 149.21 159.93 C 149.20 160.79 149.89 161.50 150.75 161.51 C 151.61 161.52 152.32 160.83 152.33 159.97 L 152.34 159.00 C 152.35 158.13 151.67 157.42 150.80 157.41 C 149.94 157.40 149.23 158.09 149.22 158.95 Z M 149.21 159.91 L 149.18 160.98 C 149.17 161.85 149.85 162.56 150.71 162.58 C 151.57 162.60 152.29 161.91 152.31 161.05 L 152.33 159.98 C 152.35 159.12 151.67 158.41 150.80 158.39 C 149.94 158.37 149.23 159.05 149.21 159.91 Z M 149.19 160.96 L 149.14 162.10 C 149.11 162.96 149.79 163.69 150.65 163.72 C 151.51 163.75 152.23 163.07 152.26 162.21 L 152.31 161.07 C 152.34 160.21 151.66 159.49 150.80 159.46 C 149.94 159.43 149.22 160.10 149.19 160.96 Z M 149.15 162.07 L 149.09 163.06 C 149.04 163.92 149.70 164.66 150.56 164.71 C 151.42 164.76 152.16 164.10 152.21 163.24 L 152.26 162.24 C 152.31 161.38 151.65 160.65 150.79 160.60 C 149.93 160.55 149.19 161.21 149.15 162.07 Z M 149.09 163.02 L 149.02 163.92 C 148.95 164.78 149.59 165.53 150.45 165.60 C 151.31 165.67 152.06 165.03 152.13 164.17 L 152.20 163.28 C 152.27 162.42 151.63 161.66 150.77 161.59 C 149.92 161.52 149.16 162.16 149.09 163.02 Z M 149.02 163.88 L 148.93 164.73 C 148.84 165.59 149.46 166.36 150.32 166.45 C 151.17 166.54 151.94 165.92 152.04 165.06 L 152.13 164.21 C 152.22 163.35 151.60 162.58 150.74 162.49 C 149.88 162.40 149.11 163.02 149.02 163.88 Z M 148.94 164.69 L 148.81 165.64 C 148.70 166.49 149.30 167.27 150.15 167.39 C 151.01 167.50 151.79 166.90 151.91 166.04 L 152.03 165.10 C 152.14 164.25 151.54 163.46 150.69 163.35 C 149.83 163.24 149.05 163.84 148.94 164.69 Z M 148.82 165.60 L 148.67 166.57 C 148.53 167.42 149.12 168.22 149.97 168.35 C 150.82 168.48 151.62 167.90 151.75 167.05 L 151.90 166.08 C 152.03 165.23 151.45 164.43 150.60 164.30 C 149.75 164.17 148.95 164.75 148.82 165.60 Z M 148.67 166.54 L 148.50 167.53 C 148.35 168.38 148.91 169.19 149.76 169.34 C 150.61 169.49 151.42 168.92 151.57 168.07 L 151.75 167.08 C 151.90 166.23 151.33 165.42 150.48 165.27 C 149.63 165.12 148.82 165.69 148.67 166.54 Z M 148.50 167.50 L 148.30 168.54 C 148.14 169.38 148.69 170.20 149.54 170.36 C 150.38 170.53 151.20 169.98 151.37 169.13 L 151.57 168.10 C 151.73 167.25 151.18 166.43 150.33 166.27 C 149.48 166.10 148.67 166.66 148.50 167.50 Z M 148.31 168.52 L 148.11 169.45 C 147.94 170.30 148.48 171.12 149.32 171.30 C 150.17 171.47 150.99 170.93 151.17 170.09 L 151.36 169.15 C 151.54 168.30 150.99 167.48 150.15 167.30 C 149.31 167.13 148.48 167.67 148.31 168.52 Z M 148.11 169.44 L 147.91 170.40 C 147.72 171.24 148.26 172.08 149.10 172.26 C 149.95 172.44 150.78 171.90 150.96 171.06 L 151.17 170.10 C 151.35 169.26 150.81 168.43 149.97 168.24 C 149.13 168.06 148.30 168.60 148.11 169.44 Z M 147.91 170.39 L 147.69 171.38 C 147.50 172.22 148.03 173.05 148.88 173.24 C 149.72 173.43 150.55 172.90 150.74 172.05 L 150.96 171.07 C 151.14 170.23 150.61 169.39 149.77 169.21 C 148.93 169.02 148.09 169.55 147.91 170.39 Z M 147.69 171.37 L 147.47 172.38 C 147.28 173.22 147.80 174.05 148.65 174.24 C 149.49 174.43 150.32 173.90 150.51 173.06 L 150.74 172.06 C 150.93 171.22 150.40 170.38 149.56 170.19 C 148.71 170.00 147.88 170.53 147.69 171.37 Z M 147.47 172.38 L 147.24 173.37 C 147.05 174.21 147.58 175.05 148.42 175.24 C 149.26 175.43 150.10 174.90 150.29 174.06 L 150.51 173.06 C 150.70 172.22 150.17 171.39 149.33 171.20 C 148.49 171.01 147.65 171.54 147.47 172.38 Z M 147.24 173.37 L 147.02 174.34 C 146.83 175.18 147.36 176.01 148.20 176.20 C 149.04 176.39 149.88 175.86 150.07 175.02 L 150.29 174.06 C 150.48 173.22 149.95 172.38 149.11 172.19 C 148.27 172.00 147.43 172.53 147.24 173.37 Z M 147.03 174.33 L 146.80 175.30 C 146.61 176.14 147.14 176.98 147.98 177.17 C 148.82 177.36 149.65 176.84 149.85 176.00 L 150.07 175.03 C 150.26 174.19 149.74 173.35 148.90 173.16 C 148.05 172.96 147.22 173.49 147.03 174.33 Z M 146.81 175.29 L 146.58 176.27 C 146.38 177.10 146.90 177.95 147.74 178.14 C 148.58 178.34 149.42 177.82 149.62 176.98 L 149.84 176.01 C 150.04 175.17 149.52 174.33 148.68 174.13 C 147.84 173.93 147.00 174.45 146.81 175.29 Z M 146.58 176.25 L 146.34 177.23 C 146.13 178.07 146.64 178.91 147.48 179.12 C 148.32 179.33 149.17 178.81 149.37 177.98 L 149.61 177.00 C 149.82 176.16 149.31 175.31 148.47 175.11 C 147.63 174.90 146.79 175.41 146.58 176.25 Z M 146.34 177.21 L 146.09 178.20 C 145.87 179.03 146.37 179.88 147.21 180.10 C 148.04 180.32 148.89 179.81 149.11 178.98 L 149.37 178.00 C 149.58 177.16 149.08 176.31 148.25 176.09 C 147.41 175.88 146.56 176.38 146.34 177.21 Z M 146.09 178.18 L 145.83 179.16 C 145.60 179.99 146.09 180.85 146.92 181.08 C 147.75 181.30 148.61 180.81 148.84 179.98 L 149.11 179.00 C 149.33 178.17 148.84 177.31 148.01 177.08 C 147.18 176.86 146.32 177.35 146.09 178.18 Z M 145.83 179.14 L 145.55 180.12 C 145.31 180.94 145.79 181.81 146.62 182.05 C 147.45 182.28 148.31 181.81 148.55 180.98 L 148.83 180.00 C 149.07 179.17 148.59 178.31 147.76 178.07 C 146.93 177.83 146.07 178.31 145.83 179.14 Z M 145.56 180.10 L 145.27 181.06 C 145.02 181.88 145.49 182.75 146.31 183.00 C 147.14 183.25 148.01 182.78 148.26 181.96 L 148.55 181.00 C 148.79 180.17 148.33 179.30 147.50 179.05 C 146.67 178.80 145.80 179.27 145.56 180.10 Z M 145.27 181.04 L 144.98 181.97 C 144.72 182.79 145.18 183.67 146.00 183.93 C 146.82 184.19 147.70 183.73 147.96 182.91 L 148.25 181.97 C 148.51 181.15 148.05 180.28 147.23 180.02 C 146.41 179.76 145.53 180.22 145.27 181.04 Z M 144.98 181.95 L 144.68 182.89 C 144.41 183.71 144.85 184.59 145.67 184.86 C 146.49 185.13 147.38 184.68 147.64 183.86 L 147.95 182.93 C 148.22 182.11 147.77 181.23 146.96 180.96 C 146.14 180.69 145.25 181.13 144.98 181.95 Z M 144.68 182.87 L 144.36 183.80 C 144.08 184.62 144.52 185.51 145.33 185.79 C 146.15 186.07 147.03 185.63 147.32 184.82 L 147.64 183.88 C 147.92 183.07 147.48 182.18 146.67 181.90 C 145.85 181.62 144.97 182.05 144.68 182.87 Z M 144.37 183.78 L 144.04 184.71 C 143.75 185.52 144.17 186.41 144.98 186.70 C 145.79 187.00 146.68 186.57 146.98 185.76 L 147.31 184.84 C 147.60 184.03 147.18 183.14 146.37 182.84 C 145.56 182.55 144.66 182.97 144.37 183.78 Z M 144.05 184.68 L 143.70 185.61 C 143.39 186.42 143.80 187.32 144.61 187.62 C 145.42 187.93 146.32 187.52 146.62 186.71 L 146.97 185.78 C 147.27 184.98 146.86 184.08 146.06 183.77 C 145.25 183.47 144.35 183.88 144.05 184.68 Z M 143.70 185.60 L 143.33 186.55 C 143.02 187.36 143.41 188.26 144.22 188.57 C 145.02 188.89 145.93 188.49 146.24 187.69 L 146.61 186.73 C 146.93 185.93 146.53 185.02 145.72 184.71 C 144.92 184.40 144.02 184.79 143.70 185.60 Z M 143.34 186.54 L 142.97 187.45 C 142.65 188.25 143.04 189.15 143.84 189.48 C 144.64 189.80 145.55 189.41 145.87 188.61 L 146.23 187.70 C 146.55 186.90 146.17 185.99 145.37 185.67 C 144.57 185.35 143.66 185.74 143.34 186.54 Z M 142.98 187.43 L 142.59 188.36 C 142.27 189.16 142.65 190.07 143.44 190.40 C 144.24 190.73 145.15 190.35 145.48 189.55 L 145.86 188.62 C 146.19 187.83 145.81 186.91 145.01 186.58 C 144.22 186.26 143.30 186.64 142.98 187.43 Z M 142.60 188.35 L 142.20 189.28 C 141.87 190.08 142.24 190.99 143.03 191.33 C 143.83 191.66 144.74 191.29 145.08 190.50 L 145.48 189.56 C 145.81 188.77 145.44 187.85 144.65 187.52 C 143.85 187.18 142.94 187.55 142.60 188.35 Z M 142.21 189.27 L 141.81 190.20 C 141.46 190.99 141.82 191.91 142.62 192.25 C 143.41 192.60 144.33 192.23 144.67 191.44 L 145.07 190.51 C 145.42 189.72 145.05 188.80 144.26 188.46 C 143.47 188.11 142.55 188.48 142.21 189.27 Z M 141.81 190.18 L 141.41 191.09 C 141.05 191.88 141.41 192.80 142.19 193.16 C 142.98 193.51 143.90 193.15 144.26 192.37 L 144.66 191.46 C 145.01 190.67 144.66 189.75 143.87 189.40 C 143.09 189.04 142.16 189.40 141.81 190.18 Z M 141.41 191.07 L 140.97 192.04 C 140.60 192.82 140.94 193.75 141.73 194.11 C 142.51 194.47 143.44 194.13 143.80 193.35 L 144.25 192.39 C 144.61 191.60 144.27 190.68 143.49 190.31 C 142.70 189.95 141.78 190.29 141.41 191.07 Z M 140.98 192.02 L 140.53 192.95 C 140.15 193.73 140.48 194.66 141.25 195.04 C 142.03 195.41 142.96 195.08 143.34 194.31 L 143.79 193.37 C 144.16 192.60 143.84 191.66 143.06 191.29 C 142.29 190.91 141.35 191.24 140.98 192.02 Z M 140.54 192.93 L 140.09 193.81 C 139.70 194.58 140.01 195.52 140.78 195.91 C 141.55 196.30 142.49 195.99 142.88 195.22 L 143.33 194.33 C 143.71 193.56 143.41 192.62 142.64 192.24 C 141.87 191.85 140.93 192.16 140.54 192.93 Z M 140.10 193.79 L 139.66 194.63 C 139.26 195.39 139.55 196.34 140.31 196.74 C 141.07 197.14 142.02 196.85 142.42 196.09 L 142.87 195.25 C 143.27 194.48 142.98 193.54 142.21 193.14 C 141.45 192.73 140.51 193.03 140.10 193.79 Z M 139.68 194.60 L 139.21 195.45 C 138.79 196.20 139.06 197.15 139.81 197.57 C 140.56 197.99 141.51 197.72 141.93 196.96 L 142.40 196.12 C 142.82 195.37 142.55 194.42 141.80 194.00 C 141.05 193.58 140.09 193.85 139.68 194.60 Z M 139.22 195.41 L 138.70 196.30 C 138.27 197.04 138.51 198.00 139.26 198.44 C 140.00 198.87 140.96 198.63 141.39 197.88 L 141.91 197.00 C 142.35 196.25 142.10 195.30 141.36 194.86 C 140.62 194.42 139.66 194.67 139.22 195.41 Z M 138.72 196.27 L 138.20 197.12 C 137.74 197.85 137.97 198.81 138.70 199.26 C 139.44 199.72 140.40 199.49 140.85 198.76 L 141.38 197.91 C 141.83 197.18 141.60 196.22 140.87 195.76 C 140.14 195.31 139.17 195.54 138.72 196.27 Z M 138.21 197.09 L 137.68 197.91 C 137.22 198.64 137.43 199.60 138.15 200.07 C 138.88 200.54 139.84 200.33 140.31 199.60 L 140.84 198.78 C 141.30 198.06 141.10 197.09 140.37 196.62 C 139.65 196.16 138.68 196.37 138.21 197.09 Z M 137.70 197.89 L 137.15 198.72 C 136.67 199.44 136.87 200.41 137.59 200.88 C 138.31 201.36 139.28 201.16 139.75 200.44 L 140.30 199.62 C 140.77 198.90 140.58 197.93 139.86 197.46 C 139.14 196.98 138.17 197.18 137.70 197.89 Z M 137.16 198.70 L 136.59 199.53 C 136.11 200.25 136.29 201.22 137.01 201.70 C 137.72 202.19 138.69 202.00 139.18 201.29 L 139.74 200.46 C 140.23 199.74 140.04 198.77 139.33 198.29 C 138.62 197.80 137.65 197.99 137.16 198.70 Z M 136.61 199.52 L 136.03 200.34 C 135.54 201.04 135.71 202.02 136.42 202.51 C 137.12 203.01 138.10 202.83 138.59 202.13 L 139.16 201.31 C 139.66 200.60 139.49 199.63 138.78 199.13 C 138.07 198.64 137.10 198.81 136.61 199.52 Z M 136.05 200.32 L 135.47 201.12 C 134.96 201.82 135.12 202.79 135.81 203.30 C 136.51 203.81 137.49 203.65 137.99 202.95 L 138.58 202.15 C 139.08 201.45 138.93 200.47 138.23 199.97 C 137.53 199.46 136.55 199.62 136.05 200.32 Z M 135.48 201.10 L 134.87 201.91 C 134.35 202.60 134.49 203.58 135.18 204.10 C 135.87 204.62 136.84 204.48 137.36 203.79 L 137.98 202.97 C 138.50 202.29 138.36 201.31 137.67 200.79 C 136.98 200.27 136.00 200.41 135.48 201.10 Z M 134.89 201.89 L 134.26 202.68 C 133.73 203.36 133.85 204.34 134.53 204.87 C 135.20 205.41 136.18 205.29 136.72 204.61 L 137.34 203.81 C 137.88 203.14 137.76 202.16 137.08 201.62 C 136.40 201.09 135.42 201.21 134.89 201.89 Z M 134.28 202.66 L 133.66 203.42 C 133.11 204.09 133.21 205.07 133.87 205.62 C 134.54 206.17 135.52 206.07 136.07 205.40 L 136.70 204.64 C 137.24 203.97 137.15 202.99 136.48 202.44 C 135.81 201.89 134.83 201.99 134.28 202.66 Z M 133.68 203.39 L 133.04 204.14 C 132.48 204.79 132.55 205.78 133.21 206.34 C 133.86 206.90 134.85 206.83 135.41 206.17 L 136.05 205.43 C 136.61 204.78 136.53 203.79 135.88 203.23 C 135.23 202.67 134.24 202.74 133.68 203.39 Z M 133.07 204.11 L 132.40 204.85 C 131.82 205.49 131.87 206.48 132.51 207.06 C 133.15 207.63 134.14 207.58 134.72 206.94 L 135.38 206.20 C 135.96 205.56 135.91 204.57 135.27 203.99 C 134.63 203.42 133.64 203.47 133.07 204.11 Z M 132.42 204.83 L 131.74 205.55 C 131.15 206.18 131.18 207.17 131.81 207.76 C 132.44 208.35 133.43 208.31 134.02 207.69 L 134.69 206.96 C 135.28 206.34 135.25 205.35 134.62 204.76 C 134.00 204.17 133.01 204.20 132.42 204.83 Z M 131.76 205.53 L 131.06 206.26 C 130.46 206.88 130.48 207.87 131.10 208.46 C 131.72 209.06 132.70 209.05 133.30 208.43 L 134.00 207.70 C 134.60 207.08 134.58 206.09 133.96 205.49 C 133.34 204.90 132.35 204.91 131.76 205.53 Z M 131.07 206.25 L 130.38 206.94 C 129.78 207.56 129.79 208.55 130.40 209.15 C 131.02 209.76 132.01 209.75 132.61 209.13 L 133.29 208.43 C 133.90 207.82 133.89 206.83 133.27 206.23 C 132.66 205.62 131.67 205.63 131.07 206.25 Z M 130.39 206.94 L 129.68 207.65 C 129.08 208.26 129.08 209.25 129.69 209.86 C 130.31 210.46 131.30 210.46 131.90 209.85 L 132.61 209.14 C 133.21 208.52 133.21 207.53 132.60 206.93 C 131.98 206.32 130.99 206.33 130.39 206.94 Z M 129.69 207.65 L 128.97 208.37 C 128.36 208.98 128.36 209.97 128.97 210.57 C 129.59 211.18 130.57 211.18 131.18 210.57 L 131.90 209.85 C 132.51 209.24 132.51 208.25 131.89 207.64 C 131.28 207.03 130.30 207.04 129.69 207.65 Z M 128.97 208.36 L 128.64 208.70 C 128.03 209.31 128.03 210.30 128.64 210.91 C 129.25 211.52 130.24 211.52 130.85 210.91 L 131.18 210.57 C 131.79 209.96 131.79 208.97 131.18 208.36 C 130.57 207.75 129.58 207.75 128.97 208.36 Z"
      fill="black"
      fill-rule="nonzero" /></svg>