<svg xmlns="http://www.w3.org/2000/svg" width="300" height="300" viewBox="0 0 300 300">
<path d="M 154.23 147.40 L 153.67 146.51 C 153.21 145.78 152.24 145.56 151.51 146.02 C 150.79 146.48 150.57 147.45 151.03 148.18 L 151.60 149.07 C 152.06 149.80 153.02 150.02 153.75 149.56 C 154.48 149.09 154.70 148.13 154.23 147.40 Z M 153.68 146.53 L 153.14 145.64 C 152.69 144.90 151.73 144.67 150.99 145.12 C 150.26 145.57 150.02 146.53 150.47 147.27 L 151.02 148.15 C 151.47 148.89 152.43 149.12 153.16 148.67 C 153.90 148.22 154.13 147.26 153.68 146.53 Z M 153.16 145.68 L 152.67 144.81 C 152.25 144.06 151.29 143.80 150.54 144.22 C 149.79 144.64 149.53 145.60 149.95 146.35 L 150.45 147.22 C 150.87 147.97 151.82 148.24 152.57 147.81 C 153.33 147.39 153.59 146.43 153.16 145.68 Z M 152.71 144.89 L 152.29 144.03 C 151.91 143.26 150.97 142.94 150.20 143.33 C 149.42 143.71 149.11 144.65 149.49 145.42 L 149.91 146.27 C 150.30 147.04 151.23 147.36 152.00 146.98 C 152.78 146.59 153.09 145.66 152.71 144.89 Z M 152.34 144.16 L 151.98 143.24 C 151.67 142.43 150.77 142.03 149.96 142.35 C 149.16 142.66 148.76 143.57 149.07 144.37 L 149.43 145.29 C 149.75 146.10 150.65 146.49 151.46 146.18 C 152.26 145.87 152.66 144.96 152.34 144.16 Z M 152.05 143.45 L 151.81 142.43 C 151.62 141.59 150.78 141.06 149.94 141.26 C 149.10 141.46 148.58 142.29 148.77 143.13 L 149.01 144.16 C 149.20 145.00 150.04 145.52 150.88 145.32 C 151.72 145.13 152.25 144.29 152.05 143.45 Z M 151.85 142.73 L 151.82 141.76 C 151.79 140.90 151.07 140.22 150.21 140.25 C 149.35 140.28 148.67 141.00 148.70 141.86 L 148.73 142.83 C 148.76 143.69 149.48 144.37 150.34 144.34 C 151.20 144.31 151.88 143.59 151.85 142.73 Z M 151.79 142.13 L 151.98 141.22 C 152.16 140.37 151.61 139.55 150.77 139.37 C 149.93 139.19 149.10 139.74 148.92 140.58 L 148.73 141.49 C 148.56 142.34 149.10 143.16 149.94 143.34 C 150.79 143.52 151.61 142.98 151.79 142.13 Z M 151.85 141.58 L 152.28 140.71 C 152.66 139.94 152.34 139.00 151.56 138.62 C 150.79 138.25 149.85 138.57 149.48 139.34 L 149.05 140.21 C 148.67 140.99 148.99 141.92 149.77 142.30 C 150.54 142.68 151.48 142.36 151.85 141.58 Z M 152.12 140.98 L 152.73 140.18 C 153.25 139.49 153.13 138.51 152.44 137.99 C 151.76 137.46 150.78 137.59 150.25 138.28 L 149.64 139.08 C 149.11 139.76 149.24 140.74 149.93 141.27 C 150.61 141.79 151.59 141.66 152.12 140.98 Z M 152.57 140.35 L 153.30 139.65 C 153.93 139.05 153.94 138.06 153.35 137.44 C 152.75 136.82 151.76 136.80 151.14 137.40 L 150.41 138.10 C 149.79 138.70 149.77 139.69 150.37 140.31 C 150.96 140.93 151.95 140.95 152.57 140.35 Z M 153.15 139.78 L 153.98 139.17 C 154.67 138.65 154.81 137.67 154.30 136.98 C 153.78 136.29 152.81 136.15 152.11 136.66 L 151.29 137.27 C 150.60 137.79 150.45 138.76 150.97 139.46 C 151.48 140.15 152.46 140.29 153.15 139.78 Z M 153.79 139.28 L 154.69 138.79 C 155.45 138.38 155.73 137.43 155.31 136.67 C 154.90 135.92 153.95 135.64 153.19 136.05 L 152.29 136.54 C 151.54 136.96 151.26 137.91 151.67 138.66 C 152.09 139.42 153.04 139.70 153.79 139.28 Z M 154.45 138.90 L 155.37 138.58 C 156.18 138.30 156.62 137.41 156.34 136.60 C 156.06 135.78 155.17 135.35 154.35 135.63 L 153.43 135.95 C 152.62 136.23 152.19 137.12 152.47 137.93 C 152.75 138.75 153.64 139.18 154.45 138.90 Z M 155.08 138.65 L 156.04 138.51 C 156.89 138.39 157.48 137.60 157.36 136.75 C 157.24 135.89 156.45 135.30 155.60 135.42 L 154.64 135.56 C 153.79 135.68 153.19 136.47 153.32 137.33 C 153.44 138.18 154.23 138.77 155.08 138.65 Z M 155.71 138.53 L 156.70 138.59 C 157.56 138.65 158.30 138.00 158.36 137.14 C 158.42 136.28 157.77 135.54 156.91 135.48 L 155.92 135.41 C 155.06 135.35 154.32 136.00 154.26 136.86 C 154.20 137.72 154.85 138.47 155.71 138.53 Z M 156.31 138.52 L 157.26 138.83 C 158.08 139.10 158.96 138.66 159.23 137.84 C 159.50 137.02 159.06 136.14 158.24 135.87 L 157.29 135.55 C 156.48 135.28 155.59 135.73 155.32 136.55 C 155.05 137.37 155.50 138.25 156.31 138.52 Z M 156.86 138.64 L 157.66 139.18 C 158.37 139.67 159.35 139.49 159.83 138.78 C 160.32 138.07 160.14 137.10 159.43 136.61 L 158.63 136.06 C 157.92 135.57 156.95 135.75 156.46 136.47 C 155.97 137.18 156.15 138.15 156.86 138.64 Z M 157.38 138.93 L 158.00 139.63 C 158.57 140.28 159.56 140.33 160.20 139.76 C 160.85 139.19 160.91 138.20 160.33 137.56 L 159.71 136.86 C 159.14 136.21 158.15 136.16 157.51 136.73 C 156.86 137.30 156.81 138.29 157.38 138.93 Z M 157.85 139.43 L 158.39 140.28 C 158.85 141.01 159.81 141.23 160.54 140.77 C 161.27 140.31 161.49 139.34 161.03 138.62 L 160.49 137.76 C 160.03 137.03 159.06 136.81 158.33 137.28 C 157.60 137.74 157.39 138.70 157.85 139.43 Z M 158.30 140.13 L 158.78 141.10 C 159.16 141.88 160.09 142.20 160.86 141.82 C 161.64 141.44 161.96 140.51 161.58 139.73 L 161.11 138.76 C 160.73 137.99 159.80 137.67 159.02 138.05 C 158.25 138.43 157.93 139.36 158.30 140.13 Z M 158.73 141.00 L 159.08 141.87 C 159.41 142.67 160.32 143.06 161.12 142.74 C 161.92 142.41 162.30 141.50 161.98 140.70 L 161.63 139.83 C 161.30 139.03 160.39 138.65 159.59 138.97 C 158.79 139.29 158.41 140.20 158.73 141.00 Z M 159.05 141.78 L 159.35 142.68 C 159.63 143.50 160.51 143.94 161.33 143.67 C 162.15 143.39 162.59 142.51 162.31 141.69 L 162.01 140.79 C 161.74 139.97 160.85 139.53 160.04 139.81 C 159.22 140.08 158.78 140.97 159.05 141.78 Z M 159.32 142.59 L 159.58 143.55 C 159.80 144.39 160.66 144.88 161.49 144.66 C 162.32 144.44 162.82 143.59 162.60 142.76 L 162.34 141.79 C 162.12 140.95 161.27 140.46 160.43 140.68 C 159.60 140.90 159.10 141.75 159.32 142.59 Z M 159.56 143.45 L 159.76 144.50 C 159.93 145.35 160.75 145.90 161.59 145.73 C 162.44 145.57 162.99 144.75 162.83 143.90 L 162.62 142.85 C 162.46 142.01 161.64 141.46 160.79 141.62 C 159.94 141.79 159.39 142.61 159.56 143.45 Z M 159.75 144.41 L 159.89 145.45 C 160.00 146.30 160.79 146.90 161.64 146.79 C 162.49 146.67 163.09 145.89 162.98 145.03 L 162.84 144.00 C 162.73 143.14 161.94 142.54 161.09 142.66 C 160.23 142.77 159.63 143.55 159.75 144.41 Z M 159.88 145.37 L 159.96 146.39 C 160.04 147.25 160.79 147.88 161.65 147.81 C 162.51 147.74 163.15 146.98 163.08 146.12 L 162.99 145.11 C 162.91 144.25 162.16 143.61 161.30 143.69 C 160.44 143.76 159.80 144.52 159.88 145.37 Z M 159.96 146.33 L 160.01 147.37 C 160.06 148.23 160.79 148.89 161.65 148.85 C 162.51 148.81 163.17 148.07 163.13 147.21 L 163.08 146.18 C 163.04 145.32 162.30 144.65 161.44 144.70 C 160.58 144.74 159.92 145.47 159.96 146.33 Z M 160.01 147.32 L 160.03 148.34 C 160.05 149.21 160.76 149.89 161.63 149.87 C 162.49 149.85 163.17 149.14 163.15 148.28 L 163.13 147.26 C 163.11 146.40 162.40 145.71 161.54 145.73 C 160.68 145.75 159.99 146.46 160.01 147.32 Z M 160.03 148.30 L 160.03 149.28 C 160.02 150.14 160.72 150.85 161.58 150.85 C 162.44 150.85 163.14 150.16 163.15 149.30 L 163.15 148.32 C 163.16 147.46 162.46 146.76 161.60 146.75 C 160.74 146.75 160.04 147.44 160.03 148.30 Z M 160.03 149.24 L 159.99 150.27 C 159.97 151.13 160.64 151.85 161.50 151.88 C 162.36 151.91 163.09 151.24 163.11 150.37 L 163.15 149.34 C 163.18 148.48 162.50 147.76 161.64 147.73 C 160.78 147.70 160.06 148.38 160.03 149.24 Z M 160.00 150.19 L 159.91 151.26 C 159.84 152.12 160.48 152.87 161.34 152.95 C 162.20 153.02 162.95 152.38 163.02 151.52 L 163.11 150.45 C 163.18 149.59 162.54 148.84 161.68 148.77 C 160.82 148.70 160.07 149.33 160.00 150.19 Z M 159.93 151.11 L 159.76 152.06 C 159.60 152.91 160.17 153.72 161.02 153.87 C 161.86 154.03 162.68 153.46 162.83 152.61 L 163.00 151.67 C 163.16 150.82 162.59 150.01 161.74 149.85 C 160.90 149.70 160.08 150.26 159.93 151.11 Z M 159.81 151.85 L 159.53 152.71 C 159.25 153.53 159.70 154.41 160.52 154.68 C 161.34 154.95 162.22 154.51 162.49 153.69 L 162.78 152.83 C 163.05 152.01 162.60 151.13 161.78 150.85 C 160.97 150.58 160.08 151.03 159.81 151.85 Z M 159.63 152.47 L 159.18 153.32 C 158.78 154.08 159.07 155.02 159.83 155.43 C 160.59 155.83 161.54 155.54 161.94 154.78 L 162.39 153.93 C 162.79 153.17 162.50 152.23 161.74 151.82 C 160.98 151.42 160.03 151.71 159.63 152.47 Z M 159.32 153.10 L 158.71 153.89 C 158.19 154.58 158.32 155.56 159.01 156.08 C 159.69 156.60 160.67 156.47 161.20 155.79 L 161.80 154.99 C 162.33 154.31 162.19 153.33 161.51 152.80 C 160.82 152.28 159.84 152.41 159.32 153.10 Z M 158.89 153.70 L 158.15 154.39 C 157.52 154.98 157.49 155.97 158.08 156.60 C 158.67 157.23 159.66 157.26 160.29 156.67 L 161.03 155.98 C 161.65 155.39 161.68 154.40 161.09 153.77 C 160.50 153.14 159.52 153.11 158.89 153.70 Z M 158.37 154.22 L 157.52 154.77 C 156.80 155.24 156.60 156.21 157.06 156.93 C 157.53 157.65 158.50 157.86 159.22 157.39 L 160.07 156.84 C 160.79 156.37 161.00 155.40 160.53 154.68 C 160.06 153.96 159.09 153.75 158.37 154.22 Z M 157.80 154.63 L 156.84 155.01 C 156.04 155.33 155.64 156.23 155.96 157.04 C 156.28 157.84 157.19 158.23 157.99 157.91 L 158.95 157.53 C 159.75 157.21 160.14 156.31 159.83 155.50 C 159.51 154.70 158.60 154.31 157.80 154.63 Z M 157.14 154.92 L 156.14 155.10 C 155.30 155.25 154.73 156.06 154.88 156.91 C 155.03 157.76 155.85 158.33 156.69 158.17 L 157.69 158.00 C 158.54 157.85 159.10 157.03 158.95 156.19 C 158.80 155.34 157.99 154.77 157.14 154.92 Z M 156.47 155.08 L 155.50 155.05 C 154.64 155.02 153.92 155.70 153.89 156.56 C 153.86 157.42 154.54 158.14 155.40 158.17 L 156.37 158.20 C 157.23 158.22 157.95 157.55 157.98 156.69 C 158.01 155.82 157.33 155.10 156.47 155.08 Z M 155.86 155.10 L 154.97 154.86 C 154.14 154.64 153.28 155.13 153.06 155.96 C 152.83 156.80 153.32 157.65 154.16 157.88 L 155.05 158.12 C 155.88 158.34 156.73 157.85 156.96 157.01 C 157.18 156.18 156.69 155.33 155.86 155.10 Z M 155.32 155.00 L 154.51 154.56 C 153.76 154.14 152.81 154.41 152.39 155.16 C 151.97 155.92 152.24 156.87 153.00 157.29 L 153.81 157.73 C 154.56 158.15 155.51 157.88 155.93 157.13 C 156.35 156.37 156.07 155.42 155.32 155.00 Z M 154.77 154.74 L 154.00 154.08 C 153.35 153.52 152.36 153.59 151.80 154.24 C 151.24 154.90 151.32 155.88 151.97 156.45 L 152.74 157.10 C 153.39 157.67 154.38 157.59 154.94 156.94 C 155.50 156.28 155.42 155.30 154.77 154.74 Z M 154.16 154.23 L 153.43 153.40 C 152.86 152.75 151.88 152.69 151.23 153.26 C 150.58 153.83 150.52 154.81 151.09 155.46 L 151.81 156.29 C 152.38 156.94 153.37 157.00 154.02 156.44 C 154.66 155.87 154.73 154.88 154.16 154.23 Z M 153.51 153.50 L 152.93 152.71 C 152.41 152.02 151.44 151.87 150.74 152.39 C 150.05 152.90 149.90 153.88 150.42 154.57 L 151.00 155.36 C 151.52 156.05 152.50 156.20 153.19 155.69 C 153.88 155.17 154.03 154.20 153.51 153.50 Z M 152.98 152.79 L 152.41 151.92 C 151.94 151.20 150.97 151.00 150.25 151.47 C 149.53 151.94 149.33 152.91 149.80 153.63 L 150.37 154.50 C 150.84 155.22 151.80 155.42 152.53 154.95 C 153.25 154.48 153.45 153.51 152.98 152.79 Z M 152.46 152.00 L 151.94 151.10 C 151.51 150.35 150.56 150.10 149.81 150.53 C 149.06 150.96 148.81 151.91 149.24 152.66 L 149.75 153.56 C 150.19 154.30 151.14 154.56 151.89 154.13 C 152.63 153.70 152.89 152.74 152.46 152.00 Z M 151.99 151.19 L 151.55 150.31 C 151.17 149.53 150.23 149.22 149.46 149.60 C 148.69 149.99 148.37 150.92 148.76 151.70 L 149.19 152.58 C 149.58 153.35 150.51 153.66 151.29 153.28 C 152.06 152.90 152.37 151.96 151.99 151.19 Z M 151.61 150.44 L 151.21 149.40 C 150.90 148.60 150.00 148.20 149.19 148.51 C 148.39 148.82 147.99 149.72 148.30 150.53 L 148.70 151.56 C 149.01 152.37 149.91 152.77 150.72 152.46 C 151.52 152.15 151.92 151.24 151.61 150.44 Z M 151.28 149.64 L 151.07 148.63 C 150.89 147.78 150.06 147.24 149.22 147.42 C 148.38 147.60 147.83 148.42 148.01 149.27 L 148.23 150.29 C 148.40 151.13 149.23 151.67 150.07 151.49 C 150.92 151.32 151.46 150.49 151.28 149.64 Z M 151.10 149.02 L 151.14 148.12 C 151.18 147.26 150.52 146.53 149.66 146.49 C 148.79 146.45 148.06 147.11 148.02 147.97 L 147.98 148.87 C 147.94 149.73 148.61 150.47 149.47 150.51 C 150.33 150.55 151.06 149.88 151.10 149.02 Z M 151.02 148.65 L 151.38 147.80 C 151.71 147.00 151.33 146.09 150.53 145.76 C 149.74 145.43 148.82 145.80 148.49 146.60 L 148.14 147.45 C 147.81 148.25 148.19 149.16 148.98 149.49 C 149.78 149.82 150.69 149.44 151.02 148.65 Z M 151.05 148.29 L 151.75 147.57 C 152.36 146.96 152.35 145.97 151.73 145.37 C 151.12 144.76 150.13 144.77 149.52 145.39 L 148.82 146.11 C 148.22 146.72 148.23 147.71 148.84 148.31 C 149.46 148.92 150.45 148.91 151.05 148.29 Z M 151.20 147.94 L 152.10 147.59 C 152.91 147.29 153.31 146.38 153.00 145.58 C 152.70 144.77 151.79 144.37 150.99 144.68 L 150.08 145.02 C 149.28 145.33 148.87 146.23 149.18 147.04 C 149.49 147.84 150.39 148.25 151.20 147.94 Z M 151.33 147.68 L 152.22 147.80 C 153.07 147.92 153.86 147.33 153.98 146.47 C 154.10 145.62 153.50 144.83 152.65 144.71 L 151.76 144.59 C 150.91 144.47 150.12 145.07 150.00 145.92 C 149.88 146.77 150.48 147.56 151.33 147.68 Z M 151.63 147.60 L 152.46 148.09 C 153.20 148.54 154.16 148.30 154.60 147.56 C 155.05 146.82 154.81 145.86 154.07 145.42 L 153.24 144.92 C 152.50 144.48 151.54 144.71 151.10 145.45 C 150.65 146.19 150.89 147.15 151.63 147.60 Z M 152.11 147.81 L 152.84 148.60 C 153.42 149.23 154.41 149.28 155.04 148.69 C 155.68 148.11 155.72 147.12 155.14 146.49 L 154.41 145.70 C 153.83 145.06 152.84 145.02 152.21 145.61 C 151.57 146.19 151.53 147.18 152.11 147.81 Z M 152.63 148.31 L 153.12 149.18 C 153.55 149.93 154.50 150.19 155.25 149.77 C 156.00 149.34 156.26 148.39 155.84 147.64 L 155.34 146.77 C 154.92 146.02 153.97 145.76 153.22 146.18 C 152.47 146.61 152.20 147.56 152.63 148.31 Z M 153.01 148.94 L 153.34 149.86 C 153.63 150.67 154.53 151.09 155.34 150.79 C 156.15 150.50 156.57 149.61 156.28 148.80 L 155.95 147.88 C 155.65 147.07 154.76 146.65 153.95 146.94 C 153.14 147.24 152.72 148.13 153.01 148.94 Z M 153.29 149.68 L 153.52 150.67 C 153.72 151.51 154.56 152.03 155.40 151.83 C 156.24 151.64 156.76 150.80 156.56 149.96 L 156.33 148.97 C 156.13 148.13 155.29 147.61 154.45 147.81 C 153.61 148.00 153.09 148.84 153.29 149.68 Z M 153.50 150.55 L 153.65 151.58 C 153.78 152.43 154.58 153.02 155.43 152.89 C 156.28 152.76 156.87 151.97 156.74 151.11 L 156.58 150.08 C 156.46 149.23 155.66 148.64 154.81 148.77 C 153.96 148.90 153.37 149.69 153.50 150.55 Z M 153.64 151.49 L 153.74 152.56 C 153.81 153.42 154.57 154.06 155.43 153.98 C 156.29 153.90 156.92 153.14 156.85 152.28 L 156.75 151.21 C 156.67 150.35 155.92 149.71 155.06 149.79 C 154.20 149.87 153.56 150.63 153.64 151.49 Z M 153.73 152.42 L 153.73 153.46 C 153.73 154.32 154.42 155.02 155.29 155.03 C 156.15 155.03 156.85 154.33 156.85 153.47 L 156.85 152.43 C 156.86 151.57 156.16 150.86 155.30 150.86 C 154.43 150.86 153.73 151.56 153.73 152.42 Z M 153.75 153.22 L 153.60 154.16 C 153.46 155.01 154.04 155.81 154.89 155.95 C 155.74 156.09 156.54 155.51 156.68 154.65 L 156.83 153.71 C 156.97 152.86 156.39 152.06 155.54 151.92 C 154.69 151.79 153.88 152.37 153.75 153.22 Z M 153.72 153.75 L 153.32 154.62 C 152.95 155.40 153.29 156.33 154.07 156.69 C 154.85 157.06 155.78 156.72 156.15 155.94 L 156.55 155.07 C 156.92 154.29 156.58 153.36 155.80 152.99 C 155.02 152.63 154.09 152.97 153.72 153.75 Z M 153.73 154.08 L 152.93 154.76 C 152.27 155.31 152.18 156.30 152.74 156.96 C 153.30 157.62 154.28 157.70 154.94 157.15 L 155.74 156.47 C 156.40 155.91 156.48 154.93 155.93 154.27 C 155.37 153.61 154.38 153.53 153.73 154.08 Z M 153.80 154.40 L 152.92 154.47 C 152.06 154.54 151.42 155.30 151.50 156.16 C 151.57 157.02 152.33 157.66 153.18 157.58 L 154.07 157.51 C 154.92 157.43 155.56 156.68 155.49 155.82 C 155.42 154.96 154.66 154.32 153.80 154.40 Z M 154.05 154.83 L 153.44 154.32 C 152.78 153.77 151.80 153.86 151.25 154.53 C 150.70 155.19 150.79 156.17 151.45 156.72 L 152.05 157.23 C 152.72 157.78 153.70 157.69 154.25 157.02 C 154.80 156.36 154.71 155.38 154.05 154.83 Z M 153.86 154.85 L 153.45 154.00 C 153.08 153.22 152.15 152.89 151.37 153.26 C 150.59 153.63 150.26 154.57 150.63 155.34 L 151.04 156.19 C 151.41 156.97 152.34 157.30 153.12 156.93 C 153.90 156.56 154.23 155.63 153.86 154.85 Z M 153.55 154.28 L 153.27 153.21 C 153.06 152.38 152.20 151.88 151.37 152.10 C 150.53 152.32 150.03 153.17 150.25 154.00 L 150.53 155.07 C 150.75 155.90 151.60 156.40 152.44 156.18 C 153.27 155.97 153.77 155.11 153.55 154.28 Z M 153.31 153.37 L 153.13 152.26 C 153.00 151.41 152.21 150.82 151.35 150.96 C 150.50 151.09 149.92 151.89 150.05 152.74 L 150.22 153.85 C 150.35 154.70 151.15 155.28 152.00 155.15 C 152.85 155.02 153.44 154.22 153.31 153.37 Z M 153.15 152.37 L 153.06 151.34 C 152.99 150.48 152.23 149.84 151.37 149.91 C 150.52 149.98 149.88 150.74 149.95 151.60 L 150.04 152.63 C 150.11 153.49 150.86 154.13 151.72 154.05 C 152.58 153.98 153.22 153.23 153.15 152.37 Z M 153.07 151.42 L 153.04 150.43 C 153.02 149.56 152.30 148.89 151.44 148.91 C 150.57 148.93 149.89 149.65 149.92 150.51 L 149.94 151.51 C 149.97 152.37 150.69 153.05 151.55 153.03 C 152.41 153.00 153.09 152.29 153.07 151.42 Z M 153.04 150.50 L 153.06 149.53 C 153.07 148.67 152.38 147.96 151.52 147.95 C 150.66 147.93 149.95 148.62 149.93 149.48 L 149.92 150.44 C 149.90 151.30 150.59 152.02 151.45 152.03 C 152.31 152.04 153.02 151.36 153.04 150.50 Z M 153.05 149.59 L 153.12 148.31 C 153.17 147.45 152.51 146.71 151.65 146.67 C 150.79 146.62 150.06 147.28 150.01 148.14 L 149.94 149.42 C 149.89 150.28 150.55 151.02 151.41 151.07 C 152.27 151.11 153.01 150.45 153.05 149.59 Z M 153.11 148.46 L 153.26 147.50 C 153.39 146.65 152.80 145.85 151.95 145.72 C 151.09 145.59 150.30 146.18 150.17 147.03 L 150.02 147.99 C 149.89 148.84 150.48 149.64 151.33 149.77 C 152.18 149.90 152.98 149.31 153.11 148.46 Z M 151.34 148.78 L 151.54 148.83 C 152.38 149.04 153.23 148.53 153.43 147.69 C 153.64 146.85 153.13 146.01 152.29 145.80 L 152.09 145.75 C 151.25 145.54 150.40 146.05 150.20 146.89 C 149.99 147.73 150.50 148.57 151.34 148.78 Z M 150.41 147.71 L 150.63 148.56 C 150.85 149.40 151.70 149.90 152.53 149.68 C 153.37 149.46 153.87 148.61 153.65 147.78 L 153.43 146.92 C 153.21 146.09 152.36 145.59 151.53 145.81 C 150.69 146.02 150.19 146.88 150.41 147.71 Z M 150.60 148.41 L 150.80 149.67 C 150.93 150.52 151.73 151.10 152.58 150.96 C 153.44 150.83 154.02 150.03 153.88 149.18 L 153.68 147.92 C 153.55 147.07 152.75 146.49 151.90 146.63 C 151.05 146.76 150.46 147.56 150.60 148.41 Z M 150.78 149.56 L 150.90 150.93 C 150.98 151.78 151.74 152.42 152.60 152.34 C 153.45 152.27 154.09 151.51 154.01 150.65 L 153.89 149.29 C 153.82 148.43 153.06 147.79 152.20 147.87 C 151.34 147.94 150.71 148.70 150.78 149.56 Z M 150.90 150.73 L 150.86 151.79 C 150.82 152.65 151.49 153.38 152.35 153.41 C 153.22 153.44 153.94 152.77 153.98 151.91 L 154.02 150.85 C 154.05 149.99 153.38 149.26 152.52 149.23 C 151.66 149.19 150.93 149.87 150.90 150.73 Z M 151.17 150.91 L 150.89 151.28 C 150.38 151.97 150.52 152.94 151.20 153.46 C 151.89 153.98 152.87 153.84 153.39 153.15 L 153.66 152.79 C 154.18 152.10 154.04 151.12 153.36 150.60 C 152.67 150.08 151.69 150.22 151.17 150.91 Z M 153.25 151.11 L 152.77 150.63 C 152.16 150.02 151.17 150.01 150.56 150.62 C 149.95 151.23 149.94 152.22 150.55 152.83 L 151.04 153.32 C 151.64 153.93 152.63 153.93 153.24 153.32 C 153.85 152.71 153.86 151.73 153.25 151.11 Z M 153.08 151.09 L 152.58 149.99 C 152.23 149.20 151.30 148.85 150.52 149.21 C 149.73 149.56 149.38 150.49 149.74 151.27 L 150.24 152.37 C 150.59 153.16 151.52 153.51 152.30 153.15 C 153.09 152.80 153.44 151.87 153.08 151.09 Z M 152.68 150.28 L 152.42 149.12 C 152.23 148.28 151.39 147.75 150.55 147.94 C 149.71 148.14 149.18 148.97 149.38 149.81 L 149.64 150.98 C 149.83 151.82 150.67 152.34 151.51 152.15 C 152.35 151.96 152.88 151.12 152.68 150.28 Z M 152.46 149.39 L 152.41 148.34 C 152.37 147.47 151.63 146.81 150.77 146.85 C 149.91 146.89 149.25 147.62 149.29 148.48 L 149.34 149.54 C 149.38 150.40 150.11 151.07 150.97 151.03 C 151.83 150.98 152.50 150.25 152.46 149.39 Z M 152.39 148.64 L 152.54 147.65 C 152.67 146.80 152.08 146.01 151.23 145.88 C 150.38 145.75 149.58 146.34 149.45 147.19 L 149.30 148.18 C 149.17 149.03 149.76 149.83 150.61 149.95 C 151.47 150.08 152.26 149.50 152.39 148.64 Z M 152.41 148.09 L 152.79 147.28 C 153.16 146.50 152.82 145.57 152.04 145.20 C 151.26 144.83 150.33 145.17 149.96 145.95 L 149.58 146.76 C 149.22 147.54 149.55 148.47 150.33 148.83 C 151.11 149.20 152.04 148.87 152.41 148.09 Z M 152.34 147.84 L 153.12 147.23 C 153.80 146.70 153.92 145.72 153.39 145.04 C 152.86 144.36 151.88 144.24 151.20 144.77 L 150.42 145.38 C 149.74 145.92 149.62 146.90 150.15 147.58 C 150.68 148.26 151.66 148.38 152.34 147.84 Z M 152.43 147.54 L 153.40 147.37 C 154.25 147.21 154.82 146.40 154.66 145.55 C 154.51 144.71 153.70 144.14 152.85 144.29 L 151.88 144.47 C 151.03 144.62 150.47 145.43 150.62 146.28 C 150.77 147.13 151.59 147.69 152.43 147.54 Z M 152.71 147.33 L 153.65 147.60 C 154.48 147.83 155.34 147.34 155.57 146.51 C 155.80 145.68 155.32 144.82 154.49 144.59 L 153.55 144.33 C 152.71 144.09 151.85 144.58 151.62 145.41 C 151.39 146.24 151.88 147.10 152.71 147.33 Z M 153.07 147.29 L 153.71 147.83 C 154.37 148.38 155.35 148.30 155.91 147.64 C 156.46 146.98 156.38 145.99 155.72 145.44 L 155.07 144.90 C 154.41 144.34 153.43 144.43 152.87 145.09 C 152.32 145.75 152.40 146.73 153.07 147.29 Z M 153.40 147.47 L 153.90 148.27 C 154.37 149.00 155.33 149.21 156.06 148.75 C 156.79 148.29 157.00 147.33 156.54 146.60 L 156.03 145.80 C 155.57 145.07 154.61 144.85 153.88 145.31 C 153.15 145.78 152.93 146.74 153.40 147.47 Z M 153.76 147.99 L 154.15 149.01 C 154.46 149.81 155.36 150.22 156.17 149.91 C 156.97 149.61 157.38 148.70 157.07 147.90 L 156.68 146.88 C 156.37 146.07 155.47 145.67 154.67 145.97 C 153.86 146.28 153.46 147.18 153.76 147.99 Z M 154.09 148.83 L 154.34 149.84 C 154.55 150.67 155.39 151.19 156.23 150.98 C 157.07 150.77 157.58 149.93 157.37 149.09 L 157.13 148.08 C 156.92 147.24 156.08 146.73 155.24 146.94 C 154.40 147.14 153.89 147.99 154.09 148.83 Z M 154.32 149.73 L 154.47 150.61 C 154.62 151.46 155.42 152.03 156.27 151.88 C 157.12 151.74 157.69 150.93 157.55 150.08 L 157.40 149.20 C 157.25 148.35 156.45 147.78 155.60 147.92 C 154.75 148.07 154.17 148.88 154.32 149.73 Z M 154.46 150.53 L 154.57 151.48 C 154.68 152.34 155.46 152.95 156.31 152.84 C 157.17 152.74 157.78 151.96 157.67 151.11 L 157.56 150.16 C 157.45 149.30 156.68 148.69 155.82 148.80 C 154.96 148.90 154.35 149.68 154.46 150.53 Z M 154.57 151.43 L 154.65 152.44 C 154.73 153.30 155.48 153.94 156.34 153.87 C 157.20 153.79 157.84 153.04 157.77 152.18 L 157.68 151.16 C 157.61 150.30 156.85 149.67 155.99 149.74 C 155.13 149.81 154.50 150.57 154.57 151.43 Z M 154.65 152.40 L 154.71 153.48 C 154.76 154.34 155.50 155.00 156.36 154.95 C 157.22 154.90 157.88 154.16 157.83 153.30 L 157.77 152.22 C 157.72 151.36 156.98 150.70 156.12 150.75 C 155.26 150.80 154.60 151.54 154.65 152.40 Z M 154.71 153.45 L 154.75 154.56 C 154.79 155.42 155.51 156.09 156.37 156.06 C 157.24 156.02 157.91 155.30 157.87 154.44 L 157.83 153.33 C 157.80 152.47 157.07 151.80 156.21 151.83 C 155.35 151.86 154.68 152.59 154.71 153.45 Z M 154.75 154.54 L 154.78 155.50 C 154.80 156.36 155.52 157.05 156.38 157.02 C 157.24 157.00 157.92 156.29 157.90 155.43 L 157.88 154.46 C 157.85 153.60 157.14 152.92 156.28 152.94 C 155.41 152.96 154.73 153.67 154.75 154.54 Z M 154.78 155.48 L 154.79 156.48 C 154.80 157.34 155.51 158.03 156.37 158.02 C 157.23 158.01 157.92 157.30 157.91 156.44 L 157.90 155.45 C 157.89 154.58 157.18 153.89 156.32 153.90 C 155.46 153.91 154.77 154.62 154.78 155.48 Z M 154.79 156.45 L 154.79 157.47 C 154.78 158.33 155.48 159.03 156.34 159.03 C 157.21 159.03 157.91 158.34 157.91 157.47 L 157.91 156.46 C 157.91 155.60 157.22 154.90 156.35 154.90 C 155.49 154.89 154.79 155.59 154.79 156.45 Z M 154.79 157.44 L 154.77 158.46 C 154.75 159.32 155.44 160.03 156.30 160.05 C 157.16 160.07 157.87 159.38 157.89 158.52 L 157.91 157.50 C 157.92 156.64 157.24 155.93 156.38 155.91 C 155.52 155.89 154.80 156.58 154.79 157.44 Z M 154.77 158.43 L 154.73 159.44 C 154.70 160.31 155.37 161.03 156.23 161.06 C 157.09 161.10 157.82 160.43 157.85 159.56 L 157.89 158.55 C 157.92 157.69 157.25 156.96 156.39 156.93 C 155.53 156.90 154.80 157.57 154.77 158.43 Z M 154.73 159.41 L 154.67 160.41 C 154.62 161.27 155.27 162.01 156.13 162.06 C 157.00 162.12 157.74 161.46 157.79 160.60 L 157.85 159.60 C 157.90 158.74 157.24 158.00 156.38 157.95 C 155.52 157.89 154.78 158.55 154.73 159.41 Z M 154.67 160.37 L 154.58 161.45 C 154.50 162.31 155.14 163.06 156.00 163.14 C 156.86 163.21 157.61 162.58 157.69 161.72 L 157.78 160.64 C 157.86 159.78 157.22 159.03 156.36 158.95 C 155.51 158.88 154.75 159.51 154.67 160.37 Z M 154.58 161.40 L 154.46 162.50 C 154.36 163.36 154.97 164.13 155.83 164.23 C 156.68 164.33 157.46 163.72 157.56 162.86 L 157.69 161.76 C 157.78 160.91 157.17 160.13 156.31 160.03 C 155.46 159.93 154.68 160.55 154.58 161.40 Z M 154.46 162.46 L 154.31 163.50 C 154.19 164.35 154.78 165.14 155.64 165.27 C 156.49 165.39 157.28 164.80 157.40 163.94 L 157.55 162.90 C 157.67 162.05 157.08 161.26 156.23 161.13 C 155.37 161.01 154.58 161.61 154.46 162.46 Z M 154.32 163.46 L 154.16 164.44 C 154.01 165.29 154.59 166.10 155.44 166.24 C 156.29 166.38 157.09 165.81 157.24 164.96 L 157.40 163.98 C 157.54 163.13 156.97 162.32 156.11 162.18 C 155.26 162.04 154.46 162.61 154.32 163.46 Z M 154.16 164.41 L 153.99 165.32 C 153.83 166.17 154.39 166.98 155.24 167.14 C 156.09 167.30 156.90 166.74 157.06 165.89 L 157.23 164.99 C 157.39 164.14 156.83 163.32 155.98 163.17 C 155.14 163.01 154.32 163.57 154.16 164.41 Z M 154.00 165.29 L 153.83 166.13 C 153.65 166.97 154.20 167.80 155.04 167.97 C 155.89 168.14 156.71 167.60 156.89 166.75 L 157.06 165.92 C 157.23 165.07 156.68 164.25 155.84 164.08 C 155.00 163.90 154.17 164.45 154.00 165.29 Z M 153.83 166.10 L 153.58 167.22 C 153.39 168.06 153.92 168.89 154.76 169.08 C 155.60 169.27 156.44 168.74 156.63 167.90 L 156.88 166.78 C 157.07 165.94 156.54 165.11 155.70 164.92 C 154.86 164.73 154.02 165.26 153.83 166.10 Z M 153.59 167.18 L 153.35 168.14 C 153.13 168.98 153.64 169.83 154.48 170.04 C 155.31 170.25 156.16 169.74 156.37 168.91 L 156.62 167.94 C 156.83 167.11 156.32 166.26 155.49 166.05 C 154.65 165.84 153.80 166.34 153.59 167.18 Z M 153.36 168.10 L 153.11 168.98 C 152.88 169.81 153.36 170.67 154.19 170.90 C 155.02 171.14 155.88 170.65 156.12 169.82 L 156.36 168.95 C 156.60 168.12 156.11 167.26 155.28 167.02 C 154.45 166.79 153.59 167.27 153.36 168.10 Z M 153.12 168.94 L 152.85 169.83 C 152.60 170.66 153.06 171.53 153.89 171.78 C 154.71 172.03 155.59 171.57 155.84 170.74 L 156.11 169.85 C 156.36 169.03 155.89 168.16 155.07 167.91 C 154.24 167.66 153.37 168.12 153.12 168.94 Z M 152.86 169.81 L 152.56 170.75 C 152.29 171.57 152.75 172.45 153.57 172.71 C 154.39 172.98 155.27 172.52 155.53 171.70 L 155.83 170.76 C 156.09 169.94 155.64 169.06 154.82 168.80 C 154.00 168.54 153.12 168.99 152.86 169.81 Z M 152.56 170.74 L 152.25 171.70 C 151.98 172.52 152.42 173.40 153.24 173.67 C 154.06 173.94 154.95 173.49 155.21 172.67 L 155.53 171.71 C 155.79 170.89 155.35 170.01 154.53 169.74 C 153.71 169.47 152.83 169.92 152.56 170.74 Z M 152.25 171.70 L 151.93 172.66 C 151.66 173.48 152.11 174.37 152.93 174.63 C 153.75 174.90 154.63 174.46 154.90 173.64 L 155.21 172.67 C 155.48 171.85 155.04 170.97 154.22 170.70 C 153.40 170.43 152.51 170.88 152.25 171.70 Z M 151.93 172.67 L 151.62 173.61 C 151.35 174.43 151.80 175.31 152.62 175.58 C 153.44 175.85 154.32 175.40 154.59 174.58 L 154.90 173.64 C 155.16 172.82 154.72 171.94 153.90 171.67 C 153.08 171.40 152.20 171.85 151.93 172.67 Z M 151.62 173.60 L 151.30 174.54 C 151.03 175.36 151.47 176.25 152.28 176.52 C 153.10 176.80 153.99 176.36 154.26 175.54 L 154.58 174.59 C 154.86 173.78 154.42 172.89 153.60 172.62 C 152.79 172.34 151.90 172.78 151.62 173.60 Z M 151.32 174.51 L 150.97 175.46 C 150.68 176.27 151.10 177.17 151.91 177.46 C 152.72 177.75 153.62 177.33 153.91 176.52 L 154.25 175.57 C 154.54 174.76 154.12 173.87 153.31 173.57 C 152.50 173.28 151.61 173.70 151.32 174.51 Z M 150.99 175.42 L 150.62 176.35 C 150.30 177.15 150.70 178.06 151.50 178.37 C 152.30 178.69 153.21 178.30 153.53 177.50 L 153.89 176.56 C 154.21 175.76 153.82 174.85 153.02 174.54 C 152.21 174.22 151.31 174.61 150.99 175.42 Z M 150.64 176.31 L 150.24 177.23 C 149.90 178.02 150.27 178.94 151.06 179.28 C 151.86 179.62 152.77 179.25 153.11 178.46 L 153.51 177.54 C 153.85 176.75 153.48 175.83 152.69 175.49 C 151.90 175.15 150.98 175.52 150.64 176.31 Z M 150.26 177.20 L 149.84 178.11 C 149.49 178.90 149.84 179.82 150.62 180.18 C 151.41 180.53 152.33 180.18 152.69 179.40 L 153.10 178.49 C 153.46 177.70 153.11 176.78 152.32 176.42 C 151.54 176.07 150.61 176.42 150.26 177.20 Z M 149.85 178.10 L 149.43 179.00 C 149.07 179.78 149.41 180.71 150.19 181.08 C 150.97 181.44 151.90 181.10 152.26 180.32 L 152.68 179.41 C 153.05 178.63 152.71 177.70 151.93 177.34 C 151.14 176.98 150.22 177.32 149.85 178.10 Z M 149.44 178.99 L 149.00 179.90 C 148.64 180.68 148.97 181.61 149.75 181.98 C 150.53 182.35 151.46 182.02 151.83 181.24 L 152.26 180.33 C 152.63 179.55 152.29 178.62 151.51 178.25 C 150.74 177.88 149.80 178.21 149.44 178.99 Z M 149.01 179.88 L 148.57 180.78 C 148.20 181.56 148.52 182.49 149.29 182.87 C 150.07 183.25 151.00 182.93 151.38 182.15 L 151.82 181.26 C 152.20 180.48 151.88 179.55 151.10 179.17 C 150.33 178.79 149.39 179.11 149.01 179.88 Z M 148.59 180.75 L 148.13 181.64 C 147.74 182.41 148.04 183.35 148.81 183.74 C 149.58 184.13 150.52 183.83 150.91 183.06 L 151.37 182.18 C 151.76 181.41 151.46 180.47 150.69 180.08 C 149.92 179.68 148.98 179.99 148.59 180.75 Z M 148.15 181.61 L 147.67 182.49 C 147.26 183.25 147.54 184.19 148.30 184.61 C 149.06 185.02 150.00 184.74 150.41 183.98 L 150.89 183.10 C 151.31 182.34 151.03 181.39 150.27 180.98 C 149.51 180.57 148.56 180.85 148.15 181.61 Z M 147.69 182.45 L 147.19 183.32 C 146.76 184.07 147.01 185.02 147.76 185.46 C 148.51 185.89 149.46 185.63 149.89 184.88 L 150.40 184.01 C 150.83 183.27 150.57 182.31 149.82 181.88 C 149.08 181.45 148.12 181.71 147.69 182.45 Z M 147.21 183.29 L 146.69 184.14 C 146.24 184.88 146.47 185.84 147.21 186.29 C 147.95 186.74 148.91 186.50 149.36 185.77 L 149.87 184.92 C 150.32 184.18 150.09 183.22 149.35 182.77 C 148.62 182.32 147.66 182.55 147.21 183.29 Z M 146.71 184.11 L 146.17 184.95 C 145.70 185.67 145.91 186.64 146.64 187.11 C 147.36 187.57 148.33 187.36 148.79 186.64 L 149.34 185.80 C 149.80 185.07 149.59 184.11 148.87 183.64 C 148.14 183.17 147.18 183.38 146.71 184.11 Z M 146.19 184.92 L 145.63 185.75 C 145.14 186.46 145.33 187.44 146.04 187.92 C 146.76 188.40 147.73 188.21 148.21 187.50 L 148.77 186.67 C 149.26 185.96 149.07 184.99 148.36 184.50 C 147.64 184.02 146.67 184.21 146.19 184.92 Z M 145.65 185.72 L 145.07 186.54 C 144.57 187.24 144.74 188.21 145.44 188.71 C 146.14 189.21 147.12 189.04 147.62 188.34 L 148.19 187.53 C 148.69 186.83 148.53 185.85 147.82 185.35 C 147.12 184.85 146.14 185.02 145.65 185.72 Z M 145.09 186.51 L 144.51 187.29 C 144.00 187.98 144.15 188.96 144.84 189.47 C 145.53 189.98 146.51 189.84 147.03 189.14 L 147.60 188.37 C 148.11 187.67 147.96 186.70 147.27 186.18 C 146.58 185.67 145.60 185.82 145.09 186.51 Z M 144.53 187.26 L 143.99 187.96 C 143.46 188.65 143.59 189.63 144.27 190.15 C 144.96 190.68 145.94 190.55 146.46 189.87 L 147.01 189.17 C 147.53 188.48 147.41 187.50 146.72 186.98 C 146.04 186.45 145.06 186.58 144.53 187.26 Z M 144.02 187.93 L 143.41 188.68 C 142.87 189.35 142.97 190.33 143.64 190.87 C 144.31 191.42 145.29 191.32 145.83 190.65 L 146.44 189.90 C 146.98 189.23 146.88 188.25 146.21 187.71 C 145.54 187.16 144.56 187.26 144.02 187.93 Z M 143.44 188.64 L 142.73 189.47 C 142.17 190.12 142.24 191.11 142.90 191.67 C 143.55 192.23 144.53 192.16 145.10 191.50 L 145.80 190.68 C 146.37 190.03 146.29 189.04 145.64 188.48 C 144.99 187.92 144.00 187.99 143.44 188.64 Z M 142.75 189.44 L 142.07 190.20 C 141.49 190.84 141.54 191.83 142.18 192.41 C 142.82 192.98 143.81 192.93 144.39 192.29 L 145.07 191.53 C 145.65 190.89 145.60 189.90 144.96 189.32 C 144.32 188.75 143.33 188.80 142.75 189.44 Z M 142.08 190.18 L 141.45 190.87 C 140.86 191.50 140.90 192.49 141.53 193.07 C 142.16 193.66 143.15 193.62 143.74 192.99 L 144.37 192.31 C 144.96 191.68 144.92 190.69 144.29 190.10 C 143.66 189.52 142.67 189.55 142.08 190.18 Z M 141.46 190.86 L 140.77 191.58 C 140.18 192.21 140.21 193.19 140.84 193.79 C 141.46 194.38 142.45 194.35 143.04 193.73 L 143.73 193.00 C 144.32 192.38 144.29 191.39 143.67 190.80 C 143.04 190.20 142.05 190.23 141.46 190.86 Z M 140.78 191.57 L 140.06 192.32 C 139.47 192.94 139.49 193.93 140.11 194.53 C 140.73 195.12 141.72 195.10 142.32 194.48 L 143.04 193.73 C 143.63 193.11 143.61 192.12 142.99 191.53 C 142.37 190.93 141.38 190.95 140.78 191.57 Z M 140.07 192.31 L 139.34 193.07 C 138.74 193.69 138.75 194.68 139.37 195.28 C 139.99 195.88 140.98 195.86 141.58 195.24 L 142.31 194.49 C 142.91 193.87 142.90 192.88 142.28 192.28 C 141.66 191.68 140.67 191.69 140.07 192.31 Z M 139.34 193.07 L 138.60 193.82 C 138.00 194.44 138.01 195.43 138.63 196.03 C 139.25 196.63 140.23 196.62 140.84 196.00 L 141.57 195.25 C 142.18 194.63 142.16 193.64 141.55 193.04 C 140.93 192.44 139.94 192.45 139.34 193.07 Z M 138.61 193.82 L 137.89 194.55 C 137.28 195.17 137.29 196.16 137.91 196.76 C 138.52 197.36 139.51 197.35 140.11 196.74 L 140.83 196.01 C 141.44 195.39 141.43 194.40 140.81 193.80 C 140.20 193.19 139.21 193.20 138.61 193.82 Z M 137.89 194.55 L 137.18 195.27 C 136.57 195.88 136.58 196.87 137.19 197.48 C 137.81 198.08 138.79 198.08 139.40 197.46 L 140.11 196.74 C 140.72 196.13 140.71 195.14 140.10 194.53 C 139.48 193.93 138.49 193.94 137.89 194.55 Z M 137.18 195.27 L 136.48 195.98 C 135.87 196.59 135.88 197.58 136.49 198.18 C 137.10 198.79 138.09 198.79 138.70 198.17 L 139.40 197.46 C 140.01 196.85 140.00 195.86 139.39 195.26 C 138.78 194.65 137.79 194.65 137.18 195.27 Z M 136.48 195.97 L 135.78 196.67 C 135.18 197.29 135.18 198.28 135.79 198.88 C 136.40 199.49 137.39 199.49 138.00 198.88 L 138.69 198.17 C 139.30 197.56 139.30 196.57 138.69 195.97 C 138.08 195.36 137.09 195.36 136.48 195.97 Z M 135.78 196.67 L 135.09 197.37 C 134.48 197.98 134.49 198.97 135.10 199.58 C 135.71 200.19 136.70 200.18 137.30 199.57 L 138.00 198.88 C 138.61 198.26 138.60 197.28 137.99 196.67 C 137.38 196.06 136.39 196.06 135.78 196.67 Z M 135.09 197.37 L 134.76 197.71 C 134.15 198.32 134.15 199.31 134.76 199.92 C 135.37 200.52 136.36 200.52 136.97 199.91 L 137.30 199.57 C 137.91 198.96 137.91 197.97 137.30 197.36 C 136.69 196.76 135.70 196.76 135.09 197.37 Z"
      fill="black"
      fill-rule="nonzero" /></svg>