<svg xmlns="http://www.w3.org/2000/svg" width="300" height="300" viewBox="0 0 300 300">
<path d="M 148.38 138.61 L 148.50 137.57 C 148.59 136.71 147.98 135.94 147.12 135.84 C 146.26 135.75 145.49 136.37 145.39 137.22 L 145.28 138.26 C 145.18 139.12 145.80 139.89 146.66 139.99 C 147.51 140.08 148.29 139.47 148.38 138.61 Z M 148.44 137.85 L 148.72 136.92 C 148.98 136.10 148.51 135.22 147.69 134.97 C 146.86 134.72 145.99 135.19 145.74 136.01 L 145.45 136.94 C 145.20 137.77 145.67 138.64 146.49 138.89 C 147.32 139.14 148.19 138.68 148.44 137.85 Z M 148.41 137.48 L 149.01 136.79 C 149.58 136.13 149.50 135.15 148.85 134.59 C 148.19 134.02 147.21 134.10 146.65 134.75 L 146.05 135.45 C 145.48 136.10 145.56 137.09 146.21 137.65 C 146.87 138.21 147.85 138.14 148.41 137.48 Z M 148.48 137.19 L 149.28 136.82 C 150.06 136.46 150.41 135.53 150.05 134.75 C 149.68 133.97 148.76 133.62 147.97 133.98 L 147.18 134.35 C 146.39 134.71 146.05 135.64 146.41 136.42 C 146.77 137.21 147.70 137.55 148.48 137.19 Z M 148.96 136.93 L 149.95 136.71 C 150.80 136.52 151.33 135.69 151.14 134.85 C 150.95 134.00 150.12 133.47 149.28 133.66 L 148.29 133.88 C 147.45 134.06 146.92 134.90 147.10 135.74 C 147.29 136.58 148.12 137.11 148.96 136.93 Z M 149.79 136.73 L 150.87 136.61 C 151.72 136.52 152.34 135.74 152.24 134.89 C 152.14 134.03 151.37 133.41 150.51 133.51 L 149.44 133.63 C 148.58 133.73 147.97 134.50 148.07 135.36 C 148.16 136.22 148.94 136.83 149.79 136.73 Z M 150.80 136.62 L 151.93 136.54 C 152.79 136.48 153.44 135.74 153.38 134.88 C 153.32 134.02 152.57 133.37 151.71 133.43 L 150.58 133.50 C 149.72 133.56 149.07 134.31 149.13 135.17 C 149.19 136.03 149.94 136.68 150.80 136.62 Z M 151.82 136.55 L 152.90 136.55 C 153.76 136.55 154.46 135.85 154.46 134.99 C 154.46 134.12 153.76 133.42 152.90 133.42 L 151.82 133.42 C 150.96 133.42 150.26 134.12 150.26 134.98 C 150.26 135.85 150.96 136.54 151.82 136.55 Z M 152.59 136.52 L 153.49 136.70 C 154.33 136.87 155.15 136.32 155.33 135.47 C 155.50 134.63 154.95 133.81 154.10 133.64 L 153.21 133.45 C 152.36 133.28 151.54 133.83 151.37 134.68 C 151.20 135.52 151.74 136.34 152.59 136.52 Z M 152.91 136.45 L 153.56 136.90 C 154.27 137.39 155.24 137.21 155.73 136.50 C 156.22 135.79 156.04 134.82 155.33 134.33 L 154.68 133.88 C 153.97 133.39 153.00 133.57 152.51 134.28 C 152.02 134.99 152.20 135.96 152.91 136.45 Z M 153.08 136.37 L 153.49 137.11 C 153.91 137.86 154.86 138.13 155.61 137.71 C 156.37 137.29 156.64 136.34 156.22 135.59 L 155.81 134.85 C 155.39 134.10 154.44 133.83 153.69 134.25 C 152.93 134.67 152.66 135.62 153.08 136.37 Z M 153.34 136.71 L 153.58 137.72 C 153.78 138.55 154.62 139.07 155.46 138.87 C 156.30 138.67 156.81 137.83 156.61 136.99 L 156.37 135.99 C 156.17 135.15 155.33 134.63 154.49 134.83 C 153.65 135.03 153.14 135.87 153.34 136.71 Z M 153.54 137.52 L 153.67 138.70 C 153.76 139.56 154.53 140.18 155.38 140.09 C 156.24 140.00 156.86 139.23 156.77 138.37 L 156.65 137.19 C 156.56 136.33 155.79 135.71 154.93 135.80 C 154.07 135.89 153.45 136.66 153.54 137.52 Z M 153.66 138.62 L 153.71 139.58 C 153.76 140.44 154.49 141.10 155.35 141.06 C 156.21 141.01 156.87 140.28 156.83 139.42 L 156.78 138.45 C 156.73 137.59 156.00 136.93 155.14 136.98 C 154.28 137.02 153.62 137.75 153.66 138.62 Z M 153.71 139.53 L 153.73 140.54 C 153.74 141.41 154.45 142.09 155.31 142.08 C 156.18 142.06 156.86 141.35 156.85 140.49 L 156.83 139.47 C 156.82 138.61 156.11 137.92 155.24 137.94 C 154.38 137.95 153.69 138.66 153.71 139.53 Z M 153.73 140.49 L 153.71 141.53 C 153.69 142.39 154.38 143.10 155.24 143.11 C 156.10 143.13 156.82 142.44 156.83 141.58 L 156.85 140.55 C 156.86 139.68 156.18 138.97 155.31 138.96 C 154.45 138.94 153.74 139.63 153.73 140.49 Z M 153.71 141.47 L 153.65 142.48 C 153.61 143.34 154.27 144.07 155.13 144.12 C 155.99 144.17 156.72 143.51 156.77 142.65 L 156.83 141.64 C 156.88 140.78 156.22 140.04 155.36 139.99 C 154.49 139.95 153.76 140.61 153.71 141.47 Z M 153.66 142.40 L 153.55 143.44 C 153.46 144.30 154.08 145.06 154.94 145.15 C 155.80 145.24 156.57 144.62 156.66 143.76 L 156.77 142.72 C 156.86 141.87 156.23 141.10 155.38 141.01 C 154.52 140.92 153.75 141.54 153.66 142.40 Z M 153.57 143.34 L 153.39 144.40 C 153.24 145.25 153.81 146.06 154.66 146.20 C 155.51 146.35 156.32 145.77 156.46 144.92 L 156.64 143.86 C 156.79 143.01 156.22 142.21 155.37 142.06 C 154.52 141.92 153.71 142.49 153.57 143.34 Z M 153.41 144.30 L 153.18 145.26 C 152.98 146.10 153.50 146.94 154.34 147.14 C 155.17 147.34 156.02 146.82 156.22 145.98 L 156.44 145.02 C 156.64 144.19 156.12 143.34 155.29 143.14 C 154.45 142.95 153.60 143.46 153.41 144.30 Z M 153.20 145.18 L 152.94 146.05 C 152.69 146.88 153.16 147.75 153.99 148.00 C 154.82 148.24 155.69 147.77 155.93 146.94 L 156.19 146.07 C 156.44 145.24 155.97 144.37 155.14 144.13 C 154.32 143.88 153.45 144.35 153.20 145.18 Z M 152.96 145.98 L 152.64 146.92 C 152.35 147.73 152.78 148.62 153.60 148.91 C 154.41 149.19 155.30 148.76 155.58 147.95 L 155.91 147.01 C 156.19 146.20 155.76 145.31 154.95 145.02 C 154.14 144.74 153.25 145.17 152.96 145.98 Z M 152.67 146.82 L 152.28 147.74 C 151.94 148.54 152.31 149.45 153.10 149.79 C 153.90 150.13 154.81 149.76 155.15 148.97 L 155.55 148.04 C 155.88 147.25 155.52 146.33 154.72 146.00 C 153.93 145.66 153.01 146.03 152.67 146.82 Z M 152.36 147.59 L 151.88 148.43 C 151.45 149.18 151.71 150.14 152.46 150.56 C 153.21 150.99 154.17 150.72 154.59 149.97 L 155.07 149.13 C 155.50 148.38 155.24 147.42 154.49 147.00 C 153.74 146.57 152.78 146.84 152.36 147.59 Z M 152.02 148.23 L 151.35 149.05 C 150.81 149.73 150.92 150.71 151.59 151.25 C 152.26 151.79 153.25 151.68 153.79 151.01 L 154.45 150.18 C 154.99 149.51 154.88 148.53 154.21 147.99 C 153.54 147.45 152.56 147.55 152.02 148.23 Z M 151.61 148.80 L 150.78 149.45 C 150.10 149.98 149.98 150.96 150.51 151.64 C 151.04 152.32 152.02 152.44 152.70 151.91 L 153.53 151.26 C 154.21 150.73 154.33 149.75 153.80 149.07 C 153.27 148.39 152.29 148.27 151.61 148.80 Z M 151.40 149.16 L 150.57 149.34 C 149.73 149.53 149.20 150.37 149.39 151.21 C 149.58 152.05 150.41 152.58 151.25 152.39 L 152.08 152.20 C 152.92 152.02 153.45 151.18 153.26 150.34 C 153.08 149.50 152.24 148.97 151.40 149.16 Z M 151.71 149.52 L 151.01 149.11 C 150.27 148.67 149.31 148.92 148.87 149.66 C 148.43 150.40 148.67 151.36 149.42 151.80 L 150.11 152.21 C 150.86 152.65 151.81 152.40 152.25 151.66 C 152.69 150.92 152.45 149.96 151.71 149.52 Z M 151.53 149.61 L 150.97 148.75 C 150.51 148.03 149.54 147.82 148.82 148.28 C 148.09 148.75 147.88 149.72 148.35 150.44 L 148.90 151.30 C 149.37 152.02 150.33 152.23 151.06 151.77 C 151.78 151.30 151.99 150.33 151.53 149.61 Z M 151.13 149.07 L 150.76 148.02 C 150.47 147.21 149.58 146.79 148.76 147.08 C 147.95 147.37 147.53 148.26 147.82 149.07 L 148.19 150.12 C 148.48 150.93 149.37 151.36 150.18 151.07 C 151.00 150.78 151.42 149.89 151.13 149.07 Z M 150.82 148.24 L 150.62 147.27 C 150.45 146.42 149.63 145.88 148.78 146.05 C 147.94 146.22 147.39 147.04 147.56 147.89 L 147.76 148.86 C 147.93 149.70 148.75 150.25 149.60 150.08 C 150.44 149.91 150.99 149.08 150.82 148.24 Z M 150.64 147.38 L 150.51 146.39 C 150.40 145.54 149.62 144.93 148.77 145.04 C 147.91 145.15 147.31 145.93 147.42 146.79 L 147.54 147.78 C 147.65 148.63 148.44 149.24 149.29 149.13 C 150.15 149.02 150.75 148.24 150.64 147.38 Z M 150.52 146.40 L 150.39 145.40 C 150.29 144.54 149.51 143.93 148.65 144.04 C 147.80 144.14 147.19 144.92 147.29 145.77 L 147.42 146.78 C 147.52 147.64 148.30 148.25 149.15 148.14 C 150.01 148.04 150.62 147.26 150.52 146.40 Z M 150.38 145.34 L 150.23 144.37 C 150.09 143.52 149.29 142.94 148.44 143.08 C 147.59 143.21 147.01 144.02 147.15 144.87 L 147.30 145.83 C 147.44 146.68 148.24 147.26 149.09 147.13 C 149.94 146.99 150.52 146.19 150.38 145.34 Z M 150.23 144.35 L 150.05 143.37 C 149.91 142.52 149.10 141.95 148.25 142.10 C 147.40 142.25 146.83 143.06 146.98 143.91 L 147.15 144.89 C 147.30 145.74 148.11 146.31 148.96 146.16 C 149.81 146.01 150.37 145.20 150.23 144.35 Z M 150.06 143.41 L 149.91 142.41 C 149.79 141.55 148.99 140.96 148.14 141.09 C 147.29 141.22 146.70 142.01 146.82 142.86 L 146.97 143.87 C 147.10 144.72 147.89 145.31 148.75 145.18 C 149.60 145.05 150.19 144.26 150.06 143.41 Z M 149.92 142.50 L 149.84 141.49 C 149.76 140.63 149.01 139.99 148.15 140.07 C 147.29 140.14 146.65 140.90 146.73 141.76 L 146.81 142.77 C 146.89 143.63 147.64 144.26 148.50 144.19 C 149.36 144.12 150.00 143.36 149.92 142.50 Z M 149.84 141.62 L 149.84 140.61 C 149.84 139.75 149.14 139.05 148.28 139.05 C 147.42 139.05 146.72 139.75 146.72 140.61 L 146.72 141.62 C 146.72 142.48 147.42 143.18 148.28 143.18 C 149.14 143.18 149.84 142.49 149.84 141.62 Z M 149.83 140.78 L 149.94 139.79 C 150.04 138.93 149.42 138.16 148.56 138.07 C 147.70 137.97 146.93 138.59 146.84 139.45 L 146.73 140.44 C 146.63 141.30 147.25 142.07 148.11 142.16 C 148.97 142.26 149.74 141.64 149.83 140.78 Z M 149.90 140.00 L 150.15 139.05 C 150.36 138.21 149.85 137.36 149.02 137.15 C 148.18 136.94 147.33 137.44 147.12 138.28 L 146.88 139.23 C 146.66 140.07 147.17 140.92 148.01 141.13 C 148.84 141.34 149.69 140.84 149.90 140.00 Z M 150.06 139.30 L 150.48 138.37 C 150.84 137.58 150.49 136.66 149.70 136.30 C 148.92 135.95 147.99 136.29 147.64 137.08 L 147.21 138.02 C 146.86 138.80 147.20 139.73 147.99 140.08 C 148.77 140.44 149.70 140.09 150.06 139.30 Z M 150.32 138.65 L 150.90 137.85 C 151.41 137.16 151.27 136.18 150.57 135.67 C 149.88 135.16 148.90 135.30 148.39 136.00 L 147.80 136.80 C 147.29 137.49 147.44 138.47 148.13 138.98 C 148.83 139.49 149.80 139.34 150.32 138.65 Z M 150.64 138.13 L 151.38 137.52 C 152.05 136.97 152.14 135.98 151.59 135.32 C 151.05 134.65 150.06 134.56 149.40 135.11 L 148.65 135.72 C 147.99 136.27 147.89 137.25 148.44 137.92 C 148.99 138.58 149.97 138.68 150.64 138.13 Z M 150.99 137.75 L 151.93 137.36 C 152.73 137.02 153.10 136.11 152.77 135.31 C 152.44 134.52 151.52 134.14 150.73 134.48 L 149.79 134.87 C 148.99 135.21 148.62 136.12 148.95 136.92 C 149.28 137.71 150.20 138.09 150.99 137.75 Z M 151.44 137.48 L 152.43 137.41 C 153.29 137.34 153.94 136.60 153.87 135.74 C 153.81 134.88 153.07 134.23 152.21 134.29 L 151.22 134.36 C 150.36 134.42 149.71 135.17 149.77 136.03 C 149.83 136.89 150.58 137.54 151.44 137.48 Z M 151.83 137.33 L 152.74 137.63 C 153.56 137.90 154.44 137.46 154.71 136.64 C 154.98 135.83 154.54 134.94 153.72 134.67 L 152.81 134.37 C 151.99 134.09 151.11 134.54 150.84 135.36 C 150.56 136.17 151.01 137.06 151.83 137.33 Z M 152.20 137.32 L 152.87 137.92 C 153.52 138.49 154.51 138.43 155.08 137.78 C 155.65 137.13 155.58 136.15 154.94 135.58 L 154.26 134.98 C 153.62 134.41 152.63 134.47 152.06 135.12 C 151.49 135.77 151.55 136.75 152.20 137.32 Z M 152.61 137.62 L 153.17 138.45 C 153.65 139.16 154.62 139.35 155.33 138.87 C 156.05 138.39 156.24 137.42 155.76 136.70 L 155.20 135.87 C 154.72 135.16 153.75 134.97 153.03 135.45 C 152.32 135.93 152.13 136.90 152.61 137.62 Z M 153.05 138.25 L 153.51 139.21 C 153.88 139.99 154.82 140.32 155.59 139.95 C 156.37 139.58 156.70 138.64 156.33 137.87 L 155.87 136.90 C 155.50 136.12 154.57 135.79 153.79 136.16 C 153.01 136.54 152.68 137.47 153.05 138.25 Z M 153.46 139.09 L 153.82 140.02 C 154.12 140.82 155.03 141.22 155.83 140.92 C 156.64 140.61 157.04 139.71 156.73 138.90 L 156.38 137.98 C 156.07 137.17 155.17 136.77 154.36 137.08 C 153.56 137.39 153.16 138.29 153.46 139.09 Z M 153.78 139.93 L 154.07 140.84 C 154.33 141.66 155.21 142.12 156.03 141.86 C 156.85 141.60 157.31 140.72 157.05 139.90 L 156.76 138.99 C 156.50 138.17 155.63 137.71 154.81 137.97 C 153.98 138.23 153.53 139.10 153.78 139.93 Z M 154.05 140.75 L 154.29 141.72 C 154.50 142.55 155.34 143.06 156.18 142.85 C 157.02 142.64 157.53 141.79 157.32 140.96 L 157.08 139.99 C 156.87 139.16 156.02 138.65 155.18 138.86 C 154.35 139.06 153.84 139.91 154.05 140.75 Z M 154.27 141.63 L 154.47 142.68 C 154.63 143.53 155.45 144.08 156.30 143.92 C 157.14 143.76 157.70 142.94 157.54 142.09 L 157.34 141.04 C 157.17 140.20 156.36 139.64 155.51 139.80 C 154.66 139.96 154.11 140.78 154.27 141.63 Z M 154.46 142.61 L 154.60 143.58 C 154.72 144.44 155.51 145.03 156.37 144.91 C 157.22 144.78 157.81 143.99 157.69 143.14 L 157.55 142.16 C 157.42 141.31 156.63 140.72 155.78 140.84 C 154.93 140.96 154.33 141.76 154.46 142.61 Z M 154.59 143.54 L 154.70 144.53 C 154.80 145.39 155.57 146.01 156.43 145.91 C 157.29 145.81 157.90 145.04 157.81 144.18 L 157.69 143.19 C 157.60 142.33 156.83 141.71 155.97 141.81 C 155.11 141.91 154.50 142.68 154.59 143.54 Z M 154.70 144.50 L 154.79 145.52 C 154.87 146.38 155.62 147.01 156.48 146.93 C 157.34 146.86 157.98 146.10 157.90 145.24 L 157.81 144.22 C 157.74 143.36 156.98 142.73 156.12 142.80 C 155.26 142.88 154.62 143.64 154.70 144.50 Z M 154.79 145.49 L 154.86 146.50 C 154.91 147.36 155.66 148.01 156.52 147.95 C 157.38 147.89 158.03 147.15 157.97 146.29 L 157.90 145.27 C 157.84 144.41 157.10 143.76 156.24 143.82 C 155.38 143.88 154.73 144.62 154.79 145.49 Z M 154.85 146.47 L 154.90 147.48 C 154.95 148.34 155.68 149.00 156.54 148.96 C 157.40 148.91 158.07 148.18 158.02 147.32 L 157.97 146.32 C 157.93 145.46 157.20 144.79 156.34 144.84 C 155.47 144.88 154.81 145.61 154.85 146.47 Z M 154.90 147.45 L 154.94 148.51 C 154.97 149.37 155.69 150.04 156.55 150.02 C 157.41 149.99 158.09 149.27 158.06 148.41 L 158.02 147.35 C 158.00 146.49 157.28 145.81 156.41 145.84 C 155.55 145.87 154.88 146.59 154.90 147.45 Z M 154.94 148.48 L 154.95 149.48 C 154.96 150.34 155.67 151.03 156.53 151.02 C 157.40 151.01 158.09 150.30 158.07 149.44 L 158.06 148.43 C 158.05 147.57 157.34 146.88 156.48 146.90 C 155.61 146.91 154.92 147.62 154.94 148.48 Z M 154.95 149.46 L 154.95 150.42 C 154.95 151.28 155.64 151.98 156.51 151.99 C 157.37 151.99 158.07 151.29 158.07 150.43 L 158.07 149.46 C 158.07 148.60 157.38 147.90 156.52 147.90 C 155.65 147.90 154.95 148.59 154.95 149.46 Z M 154.95 150.40 L 154.93 151.36 C 154.92 152.22 155.61 152.93 156.47 152.94 C 157.33 152.95 158.04 152.26 158.06 151.40 L 158.07 150.45 C 158.08 149.59 157.40 148.88 156.53 148.86 C 155.67 148.85 154.96 149.54 154.95 150.40 Z M 154.94 151.33 L 154.91 152.33 C 154.88 153.19 155.56 153.91 156.42 153.93 C 157.28 153.95 158.00 153.28 158.03 152.41 L 158.06 151.42 C 158.08 150.56 157.40 149.84 156.54 149.82 C 155.68 149.79 154.96 150.47 154.94 151.33 Z M 154.91 152.28 L 154.85 153.28 C 154.81 154.14 155.46 154.87 156.33 154.92 C 157.19 154.97 157.92 154.31 157.97 153.45 L 158.03 152.46 C 158.07 151.60 157.42 150.86 156.55 150.81 C 155.69 150.76 154.96 151.42 154.91 152.28 Z M 154.86 153.21 L 154.76 154.21 C 154.68 155.07 155.30 155.83 156.16 155.91 C 157.02 156.00 157.78 155.37 157.87 154.51 L 157.97 153.52 C 158.05 152.66 157.42 151.89 156.56 151.81 C 155.71 151.73 154.94 152.35 154.86 153.21 Z M 154.77 154.12 L 154.62 155.08 C 154.49 155.93 155.08 156.73 155.93 156.86 C 156.78 156.99 157.58 156.41 157.71 155.56 L 157.86 154.60 C 157.99 153.75 157.40 152.95 156.55 152.82 C 155.70 152.69 154.90 153.27 154.77 154.12 Z M 154.64 155.00 L 154.47 155.82 C 154.29 156.66 154.83 157.49 155.67 157.67 C 156.51 157.85 157.34 157.31 157.52 156.46 L 157.69 155.64 C 157.87 154.80 157.33 153.97 156.49 153.79 C 155.65 153.61 154.82 154.15 154.64 155.00 Z M 154.48 155.75 L 154.26 156.62 C 154.04 157.46 154.54 158.31 155.37 158.52 C 156.21 158.74 157.06 158.24 157.28 157.40 L 157.50 156.53 C 157.72 155.70 157.22 154.85 156.38 154.63 C 155.55 154.41 154.70 154.91 154.48 155.75 Z M 154.27 156.57 L 153.99 157.53 C 153.74 158.35 154.21 159.22 155.04 159.47 C 155.87 159.71 156.73 159.24 156.98 158.41 L 157.26 157.46 C 157.51 156.63 157.04 155.76 156.21 155.52 C 155.38 155.27 154.51 155.74 154.27 156.57 Z M 154.00 157.49 L 153.65 158.57 C 153.38 159.40 153.84 160.27 154.66 160.54 C 155.48 160.80 156.36 160.35 156.62 159.53 L 156.97 158.45 C 157.23 157.63 156.78 156.75 155.96 156.49 C 155.14 156.22 154.26 156.67 154.00 157.49 Z M 153.65 158.56 L 153.29 159.63 C 153.02 160.44 153.46 161.33 154.28 161.60 C 155.09 161.88 155.98 161.44 156.25 160.62 L 156.61 159.55 C 156.89 158.73 156.45 157.85 155.63 157.57 C 154.81 157.30 153.93 157.74 153.65 158.56 Z M 153.30 159.62 L 152.99 160.53 C 152.71 161.34 153.14 162.23 153.96 162.51 C 154.77 162.79 155.66 162.36 155.94 161.54 L 156.25 160.63 C 156.53 159.81 156.10 158.93 155.28 158.65 C 154.47 158.37 153.58 158.80 153.30 159.62 Z M 152.99 160.52 L 152.65 161.48 C 152.37 162.30 152.80 163.19 153.62 163.47 C 154.43 163.75 155.32 163.32 155.60 162.51 L 155.94 161.55 C 156.22 160.73 155.79 159.84 154.98 159.56 C 154.16 159.28 153.27 159.71 152.99 160.52 Z M 152.66 161.48 L 152.31 162.46 C 152.02 163.28 152.45 164.17 153.26 164.45 C 154.08 164.74 154.97 164.31 155.25 163.50 L 155.60 162.51 C 155.89 161.70 155.46 160.81 154.65 160.52 C 153.83 160.23 152.94 160.66 152.66 161.48 Z M 152.31 162.46 L 151.96 163.45 C 151.67 164.26 152.09 165.15 152.91 165.44 C 153.72 165.73 154.61 165.31 154.90 164.49 L 155.25 163.50 C 155.54 162.69 155.12 161.80 154.31 161.51 C 153.49 161.22 152.60 161.64 152.31 162.46 Z M 151.96 163.44 L 151.61 164.41 C 151.32 165.22 151.74 166.12 152.55 166.41 C 153.36 166.70 154.26 166.28 154.55 165.47 L 154.90 164.50 C 155.19 163.69 154.77 162.79 153.96 162.50 C 153.15 162.21 152.25 162.63 151.96 163.44 Z M 151.61 164.41 L 151.28 165.33 C 150.98 166.14 151.40 167.04 152.21 167.34 C 153.02 167.63 153.91 167.21 154.21 166.40 L 154.55 165.48 C 154.84 164.67 154.43 163.77 153.62 163.47 C 152.81 163.18 151.91 163.60 151.61 164.41 Z M 151.28 165.33 L 150.93 166.26 C 150.63 167.07 151.05 167.97 151.86 168.27 C 152.66 168.57 153.56 168.15 153.86 167.34 L 154.21 166.41 C 154.51 165.60 154.09 164.70 153.28 164.40 C 152.48 164.11 151.58 164.52 151.28 165.33 Z M 150.94 166.25 L 150.52 167.35 C 150.22 168.16 150.62 169.06 151.43 169.37 C 152.23 169.67 153.14 169.26 153.44 168.46 L 153.86 167.35 C 154.16 166.55 153.76 165.65 152.95 165.34 C 152.14 165.04 151.24 165.44 150.94 166.25 Z M 150.53 167.34 L 150.15 168.31 C 149.84 169.11 150.23 170.02 151.04 170.33 C 151.84 170.64 152.75 170.25 153.06 169.44 L 153.44 168.47 C 153.75 167.67 153.35 166.76 152.55 166.45 C 151.74 166.14 150.84 166.54 150.53 167.34 Z M 150.15 168.30 L 149.80 169.17 C 149.48 169.97 149.87 170.88 150.67 171.20 C 151.47 171.52 152.38 171.13 152.70 170.33 L 153.05 169.46 C 153.37 168.65 152.98 167.75 152.18 167.43 C 151.38 167.11 150.47 167.50 150.15 168.30 Z M 149.81 169.16 L 149.47 169.98 C 149.15 170.78 149.53 171.69 150.33 172.02 C 151.12 172.34 152.04 171.96 152.36 171.16 L 152.70 170.34 C 153.02 169.55 152.64 168.63 151.84 168.31 C 151.05 167.98 150.13 168.36 149.81 169.16 Z M 149.48 169.97 L 149.13 170.80 C 148.80 171.59 149.18 172.51 149.97 172.84 C 150.77 173.17 151.68 172.79 152.02 172.00 L 152.36 171.17 C 152.69 170.37 152.31 169.46 151.52 169.13 C 150.72 168.80 149.81 169.17 149.48 169.97 Z M 149.13 170.79 L 148.75 171.71 C 148.42 172.50 148.79 173.42 149.58 173.75 C 150.38 174.09 151.29 173.71 151.63 172.92 L 152.01 172.00 C 152.35 171.21 151.97 170.29 151.18 169.96 C 150.38 169.62 149.47 170.00 149.13 170.79 Z M 148.75 171.71 L 148.36 172.63 C 148.03 173.43 148.40 174.34 149.19 174.67 C 149.99 175.01 150.90 174.64 151.24 173.84 L 151.63 172.92 C 151.96 172.12 151.59 171.21 150.79 170.87 C 150.00 170.54 149.08 170.91 148.75 171.71 Z M 148.36 172.63 L 147.97 173.56 C 147.64 174.35 148.01 175.27 148.81 175.60 C 149.60 175.94 150.52 175.56 150.85 174.77 L 151.24 173.84 C 151.57 173.04 151.20 172.13 150.40 171.80 C 149.61 171.46 148.69 171.84 148.36 172.63 Z M 147.97 173.56 L 147.59 174.49 C 147.26 175.29 147.63 176.20 148.43 176.53 C 149.23 176.86 150.14 176.48 150.47 175.69 L 150.85 174.76 C 151.18 173.97 150.81 173.05 150.01 172.72 C 149.21 172.39 148.30 172.77 147.97 173.56 Z M 147.58 174.50 L 147.21 175.40 C 146.89 176.20 147.27 177.11 148.07 177.44 C 148.86 177.77 149.78 177.38 150.10 176.58 L 150.47 175.68 C 150.80 174.88 150.42 173.97 149.62 173.64 C 148.82 173.32 147.91 173.70 147.58 174.50 Z M 147.21 175.40 L 146.84 176.31 C 146.52 177.11 146.90 178.02 147.70 178.34 C 148.50 178.67 149.41 178.29 149.73 177.49 L 150.10 176.58 C 150.43 175.78 150.04 174.87 149.25 174.55 C 148.45 174.22 147.54 174.61 147.21 175.40 Z M 146.85 176.30 L 146.47 177.22 C 146.14 178.02 146.52 178.93 147.32 179.26 C 148.11 179.59 149.03 179.21 149.36 178.41 L 149.73 177.49 C 150.06 176.70 149.68 175.78 148.88 175.45 C 148.09 175.13 147.17 175.51 146.85 176.30 Z M 146.47 177.21 L 146.08 178.15 C 145.74 178.94 146.11 179.86 146.91 180.20 C 147.70 180.53 148.62 180.16 148.95 179.36 L 149.35 178.42 C 149.68 177.63 149.31 176.71 148.52 176.38 C 147.72 176.04 146.81 176.42 146.47 177.21 Z M 146.08 178.13 L 145.68 179.07 C 145.33 179.86 145.69 180.78 146.48 181.12 C 147.27 181.47 148.19 181.10 148.54 180.31 L 148.95 179.38 C 149.29 178.59 148.93 177.67 148.14 177.33 C 147.35 176.98 146.43 177.34 146.08 178.13 Z M 145.69 179.05 L 145.28 179.95 C 144.92 180.73 145.27 181.66 146.06 182.01 C 146.84 182.37 147.77 182.02 148.12 181.23 L 148.53 180.33 C 148.89 179.55 148.54 178.62 147.75 178.27 C 146.97 177.91 146.04 178.26 145.69 179.05 Z M 145.29 179.93 L 144.86 180.84 C 144.50 181.62 144.83 182.55 145.61 182.92 C 146.40 183.28 147.32 182.94 147.69 182.16 L 148.12 181.25 C 148.48 180.47 148.14 179.54 147.36 179.17 C 146.58 178.81 145.65 179.15 145.29 179.93 Z M 144.87 180.82 L 144.43 181.74 C 144.05 182.51 144.38 183.45 145.16 183.82 C 145.93 184.20 146.87 183.87 147.24 183.09 L 147.68 182.18 C 148.06 181.40 147.73 180.47 146.95 180.10 C 146.18 179.72 145.24 180.05 144.87 180.82 Z M 144.44 181.72 L 143.99 182.62 C 143.60 183.39 143.92 184.33 144.69 184.72 C 145.46 185.10 146.40 184.79 146.78 184.01 L 147.23 183.11 C 147.62 182.34 147.30 181.40 146.53 181.02 C 145.76 180.63 144.82 180.95 144.44 181.72 Z M 144.00 182.60 L 143.52 183.52 C 143.13 184.28 143.43 185.23 144.20 185.62 C 144.96 186.02 145.90 185.72 146.30 184.95 L 146.77 184.03 C 147.17 183.27 146.87 182.33 146.10 181.93 C 145.33 181.54 144.39 181.84 144.00 182.60 Z M 143.54 183.50 L 143.04 184.43 C 142.63 185.19 142.91 186.13 143.67 186.54 C 144.43 186.95 145.38 186.66 145.79 185.90 L 146.29 184.97 C 146.69 184.21 146.41 183.27 145.65 182.86 C 144.89 182.45 143.94 182.74 143.54 183.50 Z M 143.05 184.41 L 142.55 185.29 C 142.13 186.05 142.40 187.00 143.16 187.42 C 143.91 187.84 144.86 187.57 145.28 186.81 L 145.78 185.93 C 146.20 185.17 145.92 184.22 145.17 183.80 C 144.42 183.38 143.47 183.65 143.05 184.41 Z M 142.56 185.27 L 142.08 186.12 C 141.65 186.86 141.90 187.82 142.65 188.25 C 143.39 188.68 144.35 188.43 144.78 187.68 L 145.27 186.84 C 145.70 186.09 145.44 185.13 144.70 184.70 C 143.95 184.27 143.00 184.53 142.56 185.27 Z M 142.09 186.09 L 141.61 186.89 C 141.17 187.63 141.41 188.59 142.15 189.03 C 142.89 189.47 143.85 189.23 144.29 188.50 L 144.77 187.70 C 145.21 186.96 144.97 186.00 144.23 185.56 C 143.49 185.12 142.53 185.36 142.09 186.09 Z M 141.63 186.87 L 141.08 187.74 C 140.62 188.48 140.85 189.44 141.58 189.89 C 142.31 190.35 143.27 190.13 143.73 189.40 L 144.28 188.52 C 144.73 187.79 144.51 186.82 143.78 186.37 C 143.05 185.91 142.08 186.14 141.63 186.87 Z M 141.09 187.72 L 140.55 188.56 C 140.08 189.29 140.29 190.25 141.01 190.72 C 141.74 191.19 142.70 190.98 143.17 190.26 L 143.72 189.42 C 144.18 188.69 143.98 187.73 143.25 187.26 C 142.53 186.79 141.56 187.00 141.09 187.72 Z M 140.56 188.55 L 140.02 189.36 C 139.54 190.08 139.74 191.05 140.46 191.52 C 141.18 192.00 142.15 191.81 142.62 191.09 L 143.16 190.27 C 143.64 189.56 143.44 188.59 142.73 188.11 C 142.01 187.63 141.04 187.83 140.56 188.55 Z M 140.03 189.35 L 139.48 190.16 C 139.00 190.88 139.19 191.85 139.91 192.33 C 140.62 192.81 141.59 192.62 142.07 191.91 L 142.62 191.10 C 143.10 190.38 142.91 189.41 142.19 188.93 C 141.48 188.45 140.51 188.64 140.03 189.35 Z M 139.48 190.16 L 138.92 190.99 C 138.44 191.70 138.63 192.67 139.34 193.15 C 140.06 193.64 141.03 193.45 141.51 192.73 L 142.07 191.91 C 142.55 191.20 142.37 190.22 141.65 189.74 C 140.94 189.26 139.97 189.45 139.48 190.16 Z M 138.93 190.98 L 138.36 191.81 C 137.87 192.52 138.05 193.49 138.77 193.98 C 139.48 194.46 140.45 194.28 140.94 193.57 L 141.51 192.74 C 141.99 192.03 141.81 191.06 141.10 190.57 C 140.39 190.08 139.42 190.27 138.93 190.98 Z M 138.37 191.79 L 137.79 192.61 C 137.30 193.32 137.47 194.29 138.17 194.79 C 138.88 195.28 139.85 195.11 140.35 194.41 L 140.92 193.59 C 141.42 192.88 141.25 191.91 140.55 191.41 C 139.84 190.92 138.87 191.09 138.37 191.79 Z M 137.81 192.59 L 137.22 193.40 C 136.71 194.09 136.86 195.07 137.56 195.58 C 138.25 196.09 139.23 195.94 139.74 195.24 L 140.33 194.43 C 140.84 193.74 140.69 192.76 139.99 192.25 C 139.30 191.74 138.32 191.89 137.81 192.59 Z M 137.24 193.37 L 136.62 194.18 C 136.10 194.86 136.23 195.84 136.92 196.36 C 137.61 196.89 138.58 196.75 139.11 196.07 L 139.72 195.27 C 140.24 194.58 140.11 193.60 139.42 193.08 C 138.74 192.56 137.76 192.69 137.24 193.37 Z M 136.64 194.16 L 136.02 194.94 C 135.49 195.62 135.61 196.60 136.29 197.13 C 136.96 197.67 137.95 197.55 138.48 196.87 L 139.09 196.09 C 139.63 195.41 139.51 194.43 138.83 193.89 C 138.15 193.36 137.17 193.48 136.64 194.16 Z M 136.03 194.93 L 135.41 195.70 C 134.88 196.38 134.99 197.36 135.66 197.90 C 136.33 198.44 137.32 198.33 137.85 197.65 L 138.47 196.88 C 139.01 196.21 138.90 195.22 138.22 194.69 C 137.55 194.15 136.57 194.26 136.03 194.93 Z M 135.42 195.70 L 135.30 195.85 C 134.76 196.52 134.87 197.50 135.54 198.04 C 136.21 198.58 137.20 198.47 137.74 197.80 L 137.85 197.65 C 138.39 196.98 138.28 196.00 137.61 195.46 C 136.94 194.92 135.95 195.03 135.42 195.70 Z"
      fill="black"
      fill-rule="nonzero" /></svg>