<svg xmlns="http://www.w3.org/2000/svg" width="300" height="300" viewBox="0 0 300 300">
<path d="M 144.69 144.31 L 143.49 144.53 C 142.64 144.68 142.08 145.49 142.23 146.34 C 142.39 147.19 143.20 147.75 144.05 147.60 L 145.25 147.38 C 146.10 147.23 146.66 146.41 146.51 145.56 C 146.35 144.72 145.54 144.15 144.69 144.31 Z M 143.55 144.52 L 142.43 144.68 C 141.58 144.80 140.98 145.59 141.11 146.44 C 141.23 147.30 142.02 147.89 142.87 147.77 L 143.99 147.61 C 144.84 147.49 145.44 146.70 145.31 145.84 C 145.19 144.99 144.40 144.40 143.55 144.52 Z M 142.58 144.66 L 141.65 144.70 C 140.78 144.74 140.12 145.47 140.15 146.33 C 140.19 147.19 140.92 147.86 141.78 147.82 L 142.72 147.78 C 143.58 147.74 144.25 147.02 144.21 146.15 C 144.17 145.29 143.45 144.63 142.58 144.66 Z M 142.03 144.73 L 141.35 144.60 C 140.51 144.42 139.68 144.97 139.51 145.81 C 139.34 146.66 139.88 147.48 140.73 147.66 L 141.40 147.79 C 142.25 147.96 143.07 147.42 143.24 146.57 C 143.42 145.73 142.87 144.91 142.03 144.73 Z M 142.36 145.29 L 141.95 144.64 C 141.49 143.91 140.52 143.69 139.79 144.15 C 139.06 144.60 138.84 145.57 139.30 146.30 L 139.72 146.96 C 140.18 147.69 141.14 147.91 141.87 147.45 C 142.60 146.99 142.82 146.02 142.36 145.29 Z M 142.16 145.78 L 142.36 144.77 C 142.53 143.93 141.99 143.10 141.14 142.93 C 140.30 142.76 139.47 143.30 139.30 144.15 L 139.10 145.16 C 138.92 146.00 139.47 146.82 140.31 147.00 C 141.16 147.17 141.98 146.62 142.16 145.78 Z M 142.24 145.13 L 142.70 144.17 C 143.07 143.39 142.74 142.46 141.96 142.09 C 141.19 141.72 140.25 142.05 139.88 142.82 L 139.42 143.79 C 139.05 144.57 139.38 145.50 140.16 145.87 C 140.94 146.24 141.87 145.91 142.24 145.13 Z M 142.62 144.32 L 143.13 143.50 C 143.58 142.76 143.36 141.80 142.62 141.35 C 141.89 140.89 140.93 141.12 140.47 141.85 L 139.96 142.67 C 139.51 143.41 139.74 144.37 140.47 144.82 C 141.20 145.28 142.16 145.05 142.62 144.32 Z M 143.07 143.58 L 143.66 142.75 C 144.16 142.05 143.99 141.07 143.29 140.57 C 142.59 140.08 141.61 140.24 141.11 140.94 L 140.53 141.77 C 140.03 142.47 140.19 143.45 140.90 143.95 C 141.60 144.45 142.57 144.28 143.07 143.58 Z M 143.63 142.79 L 144.26 141.96 C 144.78 141.27 144.64 140.29 143.96 139.77 C 143.27 139.25 142.29 139.39 141.77 140.08 L 141.14 140.91 C 140.62 141.59 140.76 142.57 141.45 143.09 C 142.13 143.61 143.11 143.48 143.63 142.79 Z M 144.25 141.97 L 144.86 141.18 C 145.39 140.49 145.26 139.51 144.58 138.99 C 143.90 138.46 142.92 138.59 142.39 139.27 L 141.78 140.06 C 141.25 140.75 141.38 141.73 142.06 142.25 C 142.74 142.78 143.72 142.65 144.25 141.97 Z M 144.86 141.19 L 145.48 140.39 C 146.02 139.71 145.90 138.73 145.22 138.20 C 144.54 137.66 143.56 137.78 143.03 138.46 L 142.40 139.26 C 141.87 139.94 141.99 140.92 142.66 141.45 C 143.34 141.98 144.32 141.87 144.86 141.19 Z M 145.47 140.40 L 146.10 139.63 C 146.64 138.95 146.53 137.97 145.86 137.43 C 145.18 136.89 144.20 137.00 143.66 137.67 L 143.04 138.45 C 142.50 139.12 142.61 140.10 143.28 140.64 C 143.95 141.18 144.93 141.07 145.47 140.40 Z M 146.08 139.64 L 146.74 138.85 C 147.29 138.18 147.20 137.20 146.53 136.65 C 145.87 136.10 144.88 136.19 144.33 136.86 L 143.68 137.65 C 143.13 138.32 143.22 139.30 143.88 139.85 C 144.55 140.40 145.53 140.31 146.08 139.64 Z M 146.71 138.89 L 147.37 138.13 C 147.94 137.48 147.88 136.50 147.24 135.93 C 146.59 135.36 145.60 135.42 145.03 136.07 L 144.37 136.82 C 143.80 137.47 143.86 138.45 144.50 139.02 C 145.15 139.59 146.14 139.53 146.71 138.89 Z M 147.31 138.19 L 147.99 137.50 C 148.60 136.89 148.59 135.90 147.98 135.30 C 147.36 134.69 146.38 134.70 145.77 135.31 L 145.09 136.00 C 144.49 136.62 144.49 137.60 145.11 138.21 C 145.72 138.82 146.71 138.81 147.31 138.19 Z M 147.90 137.59 L 148.68 136.92 C 149.33 136.36 149.40 135.37 148.84 134.72 C 148.28 134.07 147.29 134.00 146.64 134.56 L 145.86 135.23 C 145.21 135.79 145.14 136.77 145.70 137.43 C 146.26 138.08 147.25 138.15 147.90 137.59 Z M 148.47 137.07 L 149.35 136.54 C 150.08 136.09 150.31 135.12 149.86 134.39 C 149.41 133.65 148.45 133.42 147.71 133.88 L 146.84 134.41 C 146.11 134.86 145.88 135.82 146.33 136.56 C 146.78 137.29 147.74 137.52 148.47 137.07 Z M 148.87 136.73 L 149.77 136.53 C 150.62 136.34 151.15 135.51 150.96 134.67 C 150.77 133.83 149.94 133.29 149.10 133.48 L 148.19 133.68 C 147.35 133.87 146.82 134.70 147.00 135.54 C 147.19 136.39 148.02 136.92 148.87 136.73 Z M 149.02 136.51 L 149.85 136.74 C 150.68 136.97 151.54 136.48 151.77 135.65 C 152.00 134.82 151.52 133.96 150.69 133.73 L 149.85 133.50 C 149.02 133.27 148.16 133.76 147.93 134.59 C 147.70 135.42 148.19 136.28 149.02 136.51 Z M 149.33 136.48 L 150.10 137.06 C 150.79 137.58 151.77 137.44 152.29 136.75 C 152.80 136.06 152.67 135.09 151.98 134.57 L 151.21 133.99 C 150.52 133.47 149.54 133.61 149.02 134.30 C 148.50 134.98 148.64 135.96 149.33 136.48 Z M 149.82 136.79 L 150.49 137.63 C 151.03 138.30 152.01 138.41 152.69 137.88 C 153.36 137.34 153.47 136.36 152.93 135.68 L 152.26 134.84 C 151.72 134.17 150.74 134.06 150.06 134.59 C 149.39 135.13 149.28 136.11 149.82 136.79 Z M 150.33 137.38 L 150.80 138.28 C 151.20 139.04 152.14 139.34 152.91 138.94 C 153.67 138.54 153.96 137.59 153.56 136.83 L 153.09 135.93 C 152.69 135.17 151.75 134.87 150.99 135.27 C 150.22 135.67 149.93 136.62 150.33 137.38 Z M 150.71 138.07 L 151.03 138.97 C 151.31 139.78 152.20 140.21 153.02 139.92 C 153.83 139.64 154.26 138.75 153.97 137.93 L 153.65 137.03 C 153.37 136.22 152.48 135.79 151.66 136.08 C 150.85 136.37 150.42 137.26 150.71 138.07 Z M 150.98 138.81 L 151.21 139.79 C 151.41 140.63 152.25 141.14 153.09 140.94 C 153.93 140.74 154.45 139.90 154.25 139.06 L 154.02 138.09 C 153.82 137.25 152.98 136.73 152.14 136.93 C 151.30 137.13 150.78 137.97 150.98 138.81 Z M 151.19 139.67 L 151.35 140.71 C 151.49 141.56 152.29 142.14 153.14 142.00 C 153.99 141.87 154.57 141.07 154.44 140.22 L 154.27 139.18 C 154.14 138.33 153.34 137.75 152.48 137.88 C 151.63 138.02 151.05 138.82 151.19 139.67 Z M 151.34 140.63 L 151.45 141.66 C 151.55 142.52 152.31 143.14 153.17 143.05 C 154.03 142.96 154.65 142.19 154.56 141.33 L 154.45 140.30 C 154.36 139.44 153.59 138.82 152.73 138.91 C 151.87 139.00 151.25 139.77 151.34 140.63 Z M 151.45 141.60 L 151.52 142.62 C 151.57 143.48 152.32 144.13 153.18 144.07 C 154.04 144.01 154.69 143.27 154.63 142.41 L 154.56 141.39 C 154.51 140.53 153.76 139.88 152.90 139.94 C 152.04 140.00 151.39 140.74 151.45 141.60 Z M 151.51 142.55 L 151.54 143.57 C 151.56 144.44 152.28 145.12 153.14 145.09 C 154.01 145.07 154.69 144.35 154.66 143.49 L 154.63 142.47 C 154.61 141.61 153.89 140.93 153.03 140.95 C 152.17 140.98 151.49 141.69 151.51 142.55 Z M 151.54 143.50 L 151.52 144.50 C 151.51 145.36 152.19 146.07 153.05 146.09 C 153.92 146.11 154.63 145.42 154.64 144.56 L 154.66 143.56 C 154.68 142.70 153.99 141.99 153.13 141.97 C 152.27 141.95 151.56 142.64 151.54 143.50 Z M 151.53 144.41 L 151.45 145.39 C 151.39 146.25 152.03 147.00 152.89 147.06 C 153.75 147.13 154.50 146.48 154.57 145.62 L 154.64 144.65 C 154.70 143.79 154.06 143.04 153.20 142.97 C 152.34 142.91 151.59 143.55 151.53 144.41 Z M 151.47 145.26 L 151.30 146.35 C 151.16 147.20 151.74 148.00 152.59 148.14 C 153.45 148.27 154.25 147.69 154.38 146.84 L 154.55 145.75 C 154.69 144.90 154.10 144.10 153.25 143.97 C 152.40 143.83 151.60 144.41 151.47 145.26 Z M 151.34 146.16 L 151.06 147.12 C 150.82 147.95 151.29 148.82 152.12 149.06 C 152.95 149.30 153.82 148.82 154.06 147.99 L 154.34 147.03 C 154.58 146.20 154.10 145.34 153.27 145.10 C 152.45 144.85 151.58 145.33 151.34 146.16 Z M 151.16 146.87 L 150.75 147.69 C 150.37 148.47 150.69 149.40 151.46 149.79 C 152.23 150.17 153.17 149.85 153.55 149.08 L 153.96 148.25 C 154.34 147.48 154.02 146.54 153.25 146.16 C 152.48 145.78 151.54 146.09 151.16 146.87 Z M 150.96 147.37 L 150.31 148.14 C 149.75 148.80 149.82 149.78 150.48 150.34 C 151.13 150.90 152.12 150.83 152.68 150.17 L 153.34 149.40 C 153.90 148.74 153.82 147.76 153.16 147.20 C 152.51 146.64 151.52 146.72 150.96 147.37 Z M 150.69 147.81 L 149.81 148.34 C 149.07 148.78 148.83 149.74 149.27 150.48 C 149.71 151.22 150.66 151.46 151.41 151.02 L 152.29 150.50 C 153.03 150.06 153.27 149.10 152.83 148.36 C 152.39 147.62 151.44 147.37 150.69 147.81 Z M 150.52 148.12 L 149.62 148.17 C 148.76 148.22 148.11 148.96 148.16 149.82 C 148.21 150.68 148.94 151.34 149.81 151.29 L 150.70 151.24 C 151.56 151.19 152.22 150.45 152.17 149.59 C 152.12 148.73 151.38 148.07 150.52 148.12 Z M 150.56 148.42 L 149.87 147.97 C 149.14 147.50 148.18 147.71 147.71 148.43 C 147.24 149.16 147.45 150.13 148.17 150.59 L 148.87 151.04 C 149.59 151.51 150.56 151.30 151.03 150.58 C 151.49 149.86 151.29 148.89 150.56 148.42 Z M 150.31 148.40 L 149.76 147.59 C 149.27 146.88 148.30 146.70 147.59 147.18 C 146.88 147.67 146.69 148.64 147.18 149.35 L 147.73 150.16 C 148.22 150.87 149.19 151.06 149.90 150.57 C 150.61 150.09 150.79 149.12 150.31 148.40 Z M 149.90 147.85 L 149.46 146.84 C 149.11 146.05 148.20 145.69 147.40 146.03 C 146.61 146.37 146.25 147.29 146.60 148.08 L 147.04 149.10 C 147.38 149.89 148.30 150.25 149.09 149.91 C 149.88 149.56 150.24 148.64 149.90 147.85 Z M 149.51 146.98 L 149.19 145.98 C 148.92 145.16 148.04 144.71 147.22 144.98 C 146.40 145.25 145.95 146.13 146.22 146.95 L 146.54 147.95 C 146.81 148.76 147.69 149.21 148.51 148.95 C 149.33 148.68 149.78 147.80 149.51 146.98 Z M 149.22 146.08 L 148.97 145.11 C 148.76 144.28 147.91 143.77 147.08 143.98 C 146.24 144.19 145.73 145.04 145.94 145.88 L 146.19 146.85 C 146.40 147.68 147.25 148.19 148.08 147.98 C 148.92 147.77 149.43 146.92 149.22 146.08 Z M 148.99 145.21 L 148.81 144.23 C 148.65 143.39 147.84 142.83 146.99 142.99 C 146.14 143.14 145.58 143.96 145.74 144.81 L 145.92 145.78 C 146.08 146.63 146.90 147.19 147.74 147.03 C 148.59 146.87 149.15 146.06 148.99 145.21 Z M 148.82 144.32 L 148.70 143.33 C 148.59 142.48 147.80 141.87 146.95 141.98 C 146.09 142.09 145.49 142.87 145.60 143.73 L 145.73 144.72 C 145.84 145.57 146.62 146.18 147.48 146.07 C 148.33 145.96 148.93 145.17 148.82 144.32 Z M 148.71 143.42 L 148.64 142.42 C 148.58 141.56 147.83 140.91 146.97 140.97 C 146.11 141.03 145.46 141.77 145.52 142.63 L 145.59 143.64 C 145.65 144.50 146.40 145.15 147.26 145.09 C 148.12 145.03 148.77 144.28 148.71 143.42 Z M 148.64 142.54 L 148.65 141.54 C 148.66 140.68 147.97 139.97 147.11 139.96 C 146.24 139.95 145.54 140.64 145.53 141.51 L 145.52 142.51 C 145.51 143.37 146.20 144.08 147.06 144.08 C 147.92 144.09 148.63 143.40 148.64 142.54 Z M 148.64 141.70 L 148.75 140.72 C 148.85 139.86 148.24 139.09 147.38 138.99 C 146.52 138.89 145.75 139.51 145.65 140.36 L 145.54 141.34 C 145.44 142.20 146.05 142.98 146.91 143.07 C 147.77 143.17 148.54 142.56 148.64 141.70 Z M 148.72 140.92 L 148.96 139.97 C 149.16 139.13 148.66 138.28 147.82 138.07 C 146.98 137.86 146.14 138.37 145.93 139.21 L 145.69 140.16 C 145.48 141.00 145.99 141.85 146.82 142.06 C 147.66 142.27 148.51 141.76 148.72 140.92 Z M 148.88 140.19 L 149.26 139.28 C 149.59 138.49 149.22 137.57 148.42 137.24 C 147.63 136.91 146.71 137.28 146.38 138.08 L 146.00 138.99 C 145.67 139.78 146.04 140.70 146.84 141.03 C 147.63 141.36 148.55 140.99 148.88 140.19 Z M 149.14 139.51 L 149.68 138.66 C 150.14 137.93 149.92 136.97 149.19 136.51 C 148.46 136.04 147.50 136.26 147.04 136.99 L 146.50 137.84 C 146.04 138.57 146.26 139.54 146.99 140.00 C 147.72 140.46 148.68 140.24 149.14 139.51 Z M 149.51 138.88 L 150.28 138.04 C 150.86 137.41 150.82 136.42 150.18 135.84 C 149.55 135.26 148.56 135.30 147.98 135.93 L 147.21 136.77 C 146.63 137.41 146.67 138.39 147.31 138.98 C 147.94 139.56 148.93 139.52 149.51 138.88 Z M 150.06 138.24 L 150.96 137.57 C 151.65 137.05 151.79 136.07 151.28 135.38 C 150.76 134.69 149.78 134.55 149.09 135.06 L 148.19 135.74 C 147.50 136.25 147.36 137.23 147.88 137.92 C 148.39 138.61 149.37 138.76 150.06 138.24 Z M 150.56 137.78 L 151.36 137.50 C 152.17 137.21 152.59 136.31 152.30 135.50 C 152.01 134.69 151.11 134.27 150.30 134.56 L 149.50 134.85 C 148.69 135.14 148.27 136.03 148.56 136.84 C 148.85 137.65 149.74 138.08 150.56 137.78 Z M 150.05 137.38 L 150.58 137.69 C 151.33 138.12 152.29 137.86 152.72 137.12 C 153.15 136.37 152.89 135.42 152.15 134.99 L 151.61 134.68 C 150.86 134.25 149.91 134.50 149.48 135.25 C 149.05 135.99 149.30 136.95 150.05 137.38 Z M 149.84 136.67 L 150.04 137.58 C 150.22 138.42 151.05 138.96 151.90 138.77 C 152.74 138.59 153.27 137.76 153.09 136.92 L 152.89 136.00 C 152.71 135.16 151.87 134.63 151.03 134.81 C 150.19 135.00 149.66 135.83 149.84 136.67 Z M 150.00 137.25 L 150.00 138.47 C 150.00 139.33 150.69 140.03 151.56 140.03 C 152.42 140.03 153.12 139.34 153.12 138.47 L 153.12 137.25 C 153.13 136.39 152.43 135.69 151.57 135.69 C 150.71 135.69 150.00 136.38 150.00 137.25 Z M 150.00 138.38 L 149.95 139.38 C 149.90 140.24 150.56 140.97 151.42 141.02 C 152.28 141.07 153.02 140.41 153.06 139.55 L 153.12 138.56 C 153.17 137.70 152.51 136.96 151.65 136.91 C 150.79 136.86 150.05 137.52 150.00 138.38 Z M 149.95 139.28 L 149.84 140.28 C 149.74 141.13 150.35 141.91 151.21 142.01 C 152.07 142.11 152.84 141.49 152.94 140.64 L 153.06 139.64 C 153.16 138.79 152.54 138.01 151.69 137.91 C 150.83 137.81 150.05 138.43 149.95 139.28 Z M 149.86 140.12 L 149.65 141.10 C 149.47 141.94 150.00 142.77 150.84 142.96 C 151.68 143.14 152.52 142.61 152.70 141.77 L 152.91 140.79 C 153.10 139.95 152.57 139.12 151.72 138.93 C 150.88 138.75 150.05 139.28 149.86 140.12 Z M 149.72 140.88 L 149.30 141.96 C 149.00 142.77 149.40 143.67 150.21 143.98 C 151.01 144.28 151.91 143.88 152.22 143.07 L 152.63 141.99 C 152.94 141.18 152.54 140.28 151.73 139.97 C 150.93 139.67 150.02 140.07 149.72 140.88 Z M 149.46 141.66 L 148.86 142.57 C 148.38 143.29 148.58 144.26 149.30 144.73 C 150.02 145.21 150.99 145.01 151.47 144.29 L 152.07 143.38 C 152.54 142.66 152.34 141.69 151.62 141.21 C 150.90 140.74 149.93 140.94 149.46 141.66 Z M 149.53 142.00 L 148.90 142.28 C 148.11 142.63 147.76 143.55 148.11 144.34 C 148.46 145.13 149.38 145.48 150.17 145.13 L 150.79 144.86 C 151.58 144.51 151.94 143.59 151.59 142.80 C 151.24 142.01 150.32 141.65 149.53 142.00 Z M 150.64 142.61 L 150.18 142.14 C 149.57 141.53 148.58 141.53 147.97 142.13 C 147.36 142.74 147.36 143.73 147.96 144.34 L 148.43 144.81 C 149.03 145.42 150.02 145.42 150.63 144.81 C 151.25 144.21 151.25 143.22 150.64 142.61 Z M 150.53 142.67 L 150.16 141.74 C 149.85 140.93 148.94 140.54 148.14 140.85 C 147.34 141.16 146.94 142.07 147.25 142.87 L 147.62 143.81 C 147.93 144.61 148.84 145.01 149.64 144.70 C 150.44 144.38 150.84 143.48 150.53 142.67 Z M 150.23 141.95 L 149.96 140.79 C 149.77 139.95 148.93 139.43 148.09 139.62 C 147.25 139.82 146.72 140.66 146.92 141.50 L 147.19 142.66 C 147.38 143.50 148.22 144.02 149.06 143.83 C 149.90 143.63 150.42 142.79 150.23 141.95 Z M 149.99 140.93 L 149.82 139.73 C 149.71 138.88 148.92 138.28 148.06 138.39 C 147.21 138.51 146.61 139.30 146.73 140.15 L 146.89 141.36 C 147.01 142.21 147.79 142.81 148.65 142.69 C 149.50 142.58 150.10 141.79 149.99 140.93 Z M 149.84 139.96 L 149.85 138.90 C 149.86 138.04 149.17 137.33 148.30 137.32 C 147.44 137.31 146.74 138.00 146.73 138.86 L 146.71 139.92 C 146.70 140.78 147.40 141.49 148.26 141.50 C 149.12 141.51 149.83 140.82 149.84 139.96 Z M 149.77 139.38 L 150.04 138.58 C 150.31 137.77 149.87 136.88 149.06 136.60 C 148.24 136.33 147.35 136.77 147.08 137.58 L 146.81 138.38 C 146.53 139.20 146.97 140.08 147.79 140.36 C 148.60 140.64 149.49 140.20 149.77 139.38 Z M 149.48 139.34 L 150.17 138.84 C 150.86 138.33 151.01 137.36 150.51 136.66 C 150.00 135.96 149.02 135.81 148.32 136.32 L 147.64 136.82 C 146.94 137.33 146.79 138.31 147.30 139.00 C 147.80 139.70 148.78 139.85 149.48 139.34 Z M 149.30 139.14 L 150.29 139.10 C 151.16 139.07 151.83 138.35 151.79 137.48 C 151.76 136.62 151.04 135.95 150.17 135.98 L 149.18 136.02 C 148.32 136.05 147.65 136.78 147.68 137.64 C 147.72 138.50 148.44 139.17 149.30 139.14 Z M 149.56 138.95 L 150.47 139.39 C 151.25 139.76 152.18 139.43 152.56 138.66 C 152.93 137.88 152.60 136.95 151.82 136.57 L 150.91 136.14 C 150.13 135.76 149.20 136.09 148.83 136.87 C 148.45 137.65 148.78 138.58 149.56 138.95 Z M 149.93 138.96 L 150.52 139.69 C 151.06 140.36 152.04 140.46 152.71 139.92 C 153.38 139.38 153.49 138.40 152.95 137.73 L 152.36 137.00 C 151.82 136.33 150.84 136.22 150.17 136.77 C 149.50 137.31 149.39 138.29 149.93 138.96 Z M 150.29 139.31 L 150.69 140.25 C 151.02 141.05 151.93 141.42 152.73 141.09 C 153.53 140.76 153.90 139.84 153.57 139.05 L 153.17 138.10 C 152.84 137.31 151.93 136.93 151.13 137.27 C 150.34 137.60 149.96 138.51 150.29 139.31 Z M 150.60 139.99 L 150.84 141.04 C 151.03 141.88 151.86 142.41 152.71 142.22 C 153.55 142.03 154.08 141.19 153.89 140.35 L 153.65 139.31 C 153.46 138.46 152.63 137.94 151.78 138.13 C 150.94 138.31 150.41 139.15 150.60 139.99 Z M 150.81 140.81 L 150.88 141.87 C 150.95 142.73 151.69 143.38 152.55 143.31 C 153.41 143.25 154.06 142.50 154.00 141.64 L 153.92 140.58 C 153.86 139.72 153.11 139.08 152.25 139.14 C 151.39 139.20 150.74 139.95 150.81 140.81 Z M 150.90 141.52 L 150.75 142.48 C 150.62 143.33 151.20 144.12 152.05 144.26 C 152.90 144.39 153.70 143.81 153.83 142.95 L 153.98 141.99 C 154.12 141.14 153.53 140.34 152.68 140.21 C 151.83 140.08 151.03 140.66 150.90 141.52 Z M 150.95 141.91 L 150.47 142.71 C 150.03 143.45 150.28 144.41 151.02 144.85 C 151.76 145.30 152.71 145.05 153.16 144.31 L 153.63 143.51 C 154.07 142.77 153.83 141.82 153.09 141.37 C 152.35 140.93 151.39 141.17 150.95 141.91 Z M 151.04 142.16 L 150.19 142.64 C 149.44 143.07 149.18 144.02 149.61 144.77 C 150.03 145.52 150.98 145.78 151.73 145.35 L 152.59 144.87 C 153.34 144.44 153.60 143.49 153.17 142.74 C 152.75 141.99 151.79 141.73 151.04 142.16 Z M 151.12 142.44 L 150.16 142.35 C 149.30 142.26 148.54 142.89 148.45 143.74 C 148.36 144.60 148.99 145.37 149.85 145.45 L 150.81 145.55 C 151.66 145.64 152.43 145.01 152.52 144.16 C 152.60 143.30 151.98 142.53 151.12 142.44 Z M 151.03 142.72 L 150.37 142.15 C 149.72 141.59 148.74 141.65 148.17 142.30 C 147.61 142.95 147.67 143.94 148.32 144.51 L 148.98 145.08 C 149.63 145.64 150.62 145.58 151.18 144.93 C 151.75 144.28 151.68 143.29 151.03 142.72 Z M 150.71 142.56 L 150.22 141.70 C 149.79 140.95 148.84 140.69 148.09 141.12 C 147.34 141.55 147.08 142.50 147.51 143.25 L 147.99 144.10 C 148.42 144.85 149.37 145.11 150.12 144.69 C 150.87 144.26 151.13 143.30 150.71 142.56 Z M 150.34 141.98 L 150.00 140.95 C 149.72 140.14 148.84 139.70 148.02 139.97 C 147.20 140.25 146.76 141.13 147.04 141.95 L 147.38 142.97 C 147.66 143.79 148.54 144.23 149.36 143.96 C 150.18 143.68 150.62 142.80 150.34 141.98 Z M 150.06 141.19 L 149.88 140.11 C 149.73 139.26 148.93 138.69 148.08 138.83 C 147.23 138.98 146.65 139.78 146.80 140.63 L 146.98 141.71 C 147.12 142.56 147.93 143.13 148.78 142.99 C 149.63 142.85 150.20 142.04 150.06 141.19 Z M 149.90 140.39 L 149.91 139.34 C 149.91 138.48 149.22 137.77 148.36 137.76 C 147.50 137.76 146.79 138.45 146.78 139.31 L 146.77 140.36 C 146.77 141.22 147.46 141.93 148.32 141.93 C 149.18 141.94 149.89 141.25 149.90 140.39 Z M 149.87 139.68 L 150.09 138.74 C 150.28 137.90 149.76 137.06 148.92 136.86 C 148.08 136.66 147.24 137.19 147.05 138.03 L 146.83 138.97 C 146.63 139.81 147.15 140.65 147.99 140.84 C 148.83 141.04 149.67 140.52 149.87 139.68 Z M 149.94 139.13 L 150.38 138.31 C 150.79 137.56 150.51 136.61 149.75 136.20 C 149.00 135.78 148.05 136.06 147.64 136.82 L 147.20 137.63 C 146.78 138.39 147.06 139.34 147.82 139.75 C 148.58 140.16 149.53 139.88 149.94 139.13 Z M 150.12 138.67 L 150.79 137.98 C 151.40 137.37 151.39 136.38 150.78 135.77 C 150.17 135.17 149.18 135.17 148.57 135.79 L 147.90 136.47 C 147.29 137.08 147.30 138.07 147.91 138.68 C 148.52 139.28 149.51 139.28 150.12 138.67 Z M 150.58 138.16 L 151.40 137.59 C 152.11 137.09 152.28 136.12 151.78 135.41 C 151.29 134.71 150.31 134.54 149.61 135.03 L 148.79 135.61 C 148.08 136.10 147.91 137.07 148.40 137.78 C 148.90 138.49 149.87 138.66 150.58 138.16 Z M 151.31 137.65 L 152.19 137.12 C 152.93 136.68 153.17 135.72 152.73 134.98 C 152.29 134.24 151.33 134.00 150.59 134.44 L 149.70 134.97 C 148.96 135.41 148.72 136.37 149.16 137.11 C 149.61 137.85 150.57 138.09 151.31 137.65 Z M 152.19 137.12 L 153.05 136.60 C 153.79 136.16 154.04 135.20 153.59 134.46 C 153.15 133.72 152.19 133.48 151.45 133.92 L 150.59 134.44 C 149.85 134.88 149.61 135.84 150.05 136.58 C 150.49 137.32 151.45 137.56 152.19 137.12 Z M 153.01 136.63 L 153.88 136.15 C 154.63 135.73 154.91 134.78 154.49 134.02 C 154.07 133.27 153.12 133.00 152.37 133.42 L 151.50 133.90 C 150.74 134.32 150.47 135.27 150.89 136.02 C 151.31 136.78 152.26 137.05 153.01 136.63 Z M 153.75 136.21 L 154.66 135.81 C 155.45 135.46 155.81 134.54 155.46 133.75 C 155.11 132.96 154.19 132.60 153.40 132.95 L 152.49 133.35 C 151.71 133.70 151.35 134.62 151.69 135.41 C 152.04 136.20 152.96 136.56 153.75 136.21 Z M 154.45 135.89 L 155.42 135.62 C 156.25 135.39 156.74 134.53 156.52 133.70 C 156.29 132.87 155.43 132.38 154.60 132.61 L 153.62 132.88 C 152.79 133.10 152.30 133.96 152.53 134.79 C 152.76 135.63 153.61 136.11 154.45 135.89 Z M 155.14 135.67 L 156.14 135.59 C 157.00 135.52 157.64 134.76 157.57 133.90 C 157.50 133.04 156.75 132.40 155.89 132.47 L 154.88 132.56 C 154.02 132.63 153.38 133.38 153.45 134.24 C 153.52 135.10 154.28 135.74 155.14 135.67 Z M 155.77 135.57 L 156.74 135.73 C 157.59 135.86 158.39 135.29 158.52 134.43 C 158.66 133.58 158.08 132.78 157.23 132.64 L 156.26 132.49 C 155.41 132.35 154.61 132.93 154.47 133.78 C 154.34 134.63 154.92 135.43 155.77 135.57 Z M 156.28 135.58 L 157.12 136.01 C 157.89 136.40 158.83 136.09 159.22 135.32 C 159.61 134.55 159.30 133.61 158.53 133.22 L 157.69 132.79 C 156.92 132.40 155.98 132.71 155.59 133.48 C 155.20 134.25 155.51 135.19 156.28 135.58 Z M 156.76 135.76 L 157.47 136.42 C 158.11 137.00 159.09 136.97 159.68 136.34 C 160.27 135.71 160.23 134.72 159.60 134.13 L 158.89 133.47 C 158.26 132.88 157.27 132.92 156.68 133.55 C 156.10 134.18 156.13 135.17 156.76 135.76 Z M 157.27 136.19 L 157.88 137.02 C 158.38 137.72 159.36 137.87 160.06 137.37 C 160.75 136.86 160.91 135.88 160.40 135.19 L 159.80 134.36 C 159.29 133.66 158.32 133.50 157.62 134.01 C 156.92 134.52 156.77 135.49 157.27 136.19 Z M 157.77 136.85 L 158.26 137.75 C 158.67 138.51 159.62 138.79 160.38 138.38 C 161.14 137.97 161.42 137.02 161.00 136.26 L 160.51 135.36 C 160.10 134.60 159.15 134.32 158.39 134.73 C 157.64 135.14 157.36 136.09 157.77 136.85 Z M 158.20 137.62 L 158.58 138.53 C 158.92 139.32 159.84 139.69 160.63 139.35 C 161.43 139.01 161.79 138.09 161.46 137.30 L 161.07 136.39 C 160.73 135.60 159.81 135.23 159.02 135.57 C 158.23 135.91 157.86 136.83 158.20 137.62 Z M 158.54 138.41 L 158.85 139.35 C 159.13 140.17 160.01 140.61 160.83 140.34 C 161.65 140.07 162.09 139.18 161.82 138.37 L 161.50 137.42 C 161.23 136.60 160.34 136.16 159.53 136.43 C 158.71 136.71 158.27 137.59 158.54 138.41 Z M 158.82 139.24 L 159.07 140.23 C 159.28 141.06 160.13 141.57 160.97 141.35 C 161.80 141.14 162.31 140.29 162.10 139.46 L 161.85 138.47 C 161.63 137.64 160.78 137.13 159.95 137.35 C 159.11 137.56 158.61 138.41 158.82 139.24 Z M 159.05 140.14 L 159.23 141.09 C 159.40 141.94 160.21 142.49 161.06 142.33 C 161.91 142.17 162.46 141.35 162.30 140.50 L 162.12 139.55 C 161.95 138.70 161.14 138.15 160.29 138.31 C 159.44 138.47 158.89 139.29 159.05 140.14 Z M 159.22 141.02 L 159.36 141.98 C 159.48 142.84 160.27 143.43 161.12 143.31 C 161.98 143.19 162.57 142.40 162.45 141.54 L 162.31 140.58 C 162.19 139.72 161.40 139.13 160.55 139.25 C 159.69 139.37 159.10 140.16 159.22 141.02 Z M 159.35 141.92 L 159.45 142.92 C 159.54 143.78 160.31 144.41 161.16 144.32 C 162.02 144.23 162.65 143.47 162.56 142.61 L 162.46 141.61 C 162.37 140.75 161.61 140.12 160.75 140.21 C 159.89 140.30 159.26 141.06 159.35 141.92 Z M 159.45 142.87 L 159.52 143.91 C 159.58 144.77 160.32 145.42 161.18 145.36 C 162.04 145.31 162.69 144.56 162.63 143.70 L 162.56 142.66 C 162.51 141.80 161.76 141.15 160.90 141.21 C 160.04 141.27 159.39 142.01 159.45 142.87 Z M 159.52 143.87 L 159.55 144.82 C 159.59 145.68 160.32 146.35 161.18 146.32 C 162.04 146.28 162.71 145.56 162.67 144.70 L 162.64 143.74 C 162.60 142.88 161.87 142.21 161.01 142.25 C 160.15 142.28 159.48 143.01 159.52 143.87 Z M 159.55 144.78 L 159.57 145.75 C 159.58 146.61 160.29 147.30 161.15 147.29 C 162.01 147.27 162.70 146.56 162.69 145.70 L 162.68 144.74 C 162.66 143.87 161.95 143.19 161.09 143.20 C 160.23 143.21 159.54 143.92 159.55 144.78 Z M 159.57 145.71 L 159.56 146.71 C 159.55 147.57 160.24 148.28 161.10 148.29 C 161.96 148.30 162.67 147.61 162.68 146.74 L 162.69 145.74 C 162.70 144.88 162.01 144.17 161.15 144.16 C 160.28 144.16 159.58 144.85 159.57 145.71 Z M 159.56 146.67 L 159.52 147.71 C 159.48 148.57 160.16 149.30 161.02 149.33 C 161.88 149.36 162.60 148.69 162.64 147.83 L 162.68 146.79 C 162.71 145.93 162.04 145.20 161.18 145.17 C 160.32 145.13 159.59 145.81 159.56 146.67 Z M 159.52 147.67 L 159.45 148.67 C 159.40 149.53 160.05 150.28 160.91 150.33 C 161.77 150.39 162.51 149.74 162.57 148.87 L 162.64 147.87 C 162.69 147.01 162.04 146.27 161.18 146.21 C 160.32 146.15 159.58 146.81 159.52 147.67 Z M 159.46 148.63 L 159.37 149.56 C 159.29 150.42 159.93 151.18 160.78 151.26 C 161.64 151.34 162.40 150.71 162.48 149.85 L 162.57 148.92 C 162.65 148.06 162.01 147.30 161.16 147.22 C 160.30 147.14 159.54 147.77 159.46 148.63 Z M 159.38 149.52 L 159.26 150.48 C 159.15 151.34 159.76 152.12 160.62 152.22 C 161.47 152.33 162.25 151.72 162.36 150.86 L 162.48 149.90 C 162.58 149.04 161.97 148.26 161.12 148.16 C 160.26 148.05 159.48 148.66 159.38 149.52 Z M 159.27 150.42 L 159.11 151.42 C 158.97 152.27 159.55 153.07 160.40 153.21 C 161.25 153.34 162.05 152.76 162.19 151.91 L 162.35 150.92 C 162.49 150.07 161.91 149.27 161.05 149.13 C 160.20 148.99 159.40 149.57 159.27 150.42 Z M 159.12 151.36 L 158.91 152.38 C 158.74 153.23 159.29 154.05 160.13 154.22 C 160.98 154.39 161.80 153.84 161.97 153.00 L 162.18 151.97 C 162.35 151.13 161.80 150.31 160.96 150.14 C 160.11 149.96 159.29 150.51 159.12 151.36 Z M 158.93 152.31 L 158.67 153.36 C 158.46 154.19 158.97 155.04 159.81 155.25 C 160.64 155.46 161.49 154.95 161.70 154.11 L 161.96 153.06 C 162.17 152.23 161.66 151.38 160.82 151.17 C 159.98 150.97 159.13 151.48 158.93 152.31 Z M 158.69 153.29 L 158.40 154.28 C 158.15 155.10 158.63 155.97 159.46 156.21 C 160.28 156.46 161.15 155.98 161.39 155.16 L 161.68 154.17 C 161.92 153.35 161.45 152.48 160.62 152.24 C 159.80 151.99 158.93 152.47 158.69 153.29 Z M 158.41 154.23 L 158.09 155.21 C 157.82 156.03 158.26 156.92 159.08 157.19 C 159.90 157.45 160.78 157.01 161.05 156.19 L 161.38 155.20 C 161.65 154.38 161.20 153.50 160.38 153.23 C 159.56 152.96 158.68 153.41 158.41 154.23 Z M 158.10 155.18 L 157.75 156.15 C 157.46 156.96 157.89 157.86 158.70 158.15 C 159.51 158.44 160.40 158.01 160.69 157.20 L 161.04 156.23 C 161.33 155.42 160.91 154.52 160.10 154.23 C 159.28 153.94 158.39 154.37 158.10 155.18 Z M 157.76 156.12 L 157.40 157.07 C 157.10 157.87 157.51 158.78 158.31 159.08 C 159.12 159.39 160.02 158.98 160.32 158.17 L 160.68 157.23 C 160.99 156.42 160.58 155.52 159.78 155.22 C 158.97 154.91 158.07 155.32 157.76 156.12 Z M 157.41 157.05 L 157.06 157.95 C 156.74 158.75 157.14 159.65 157.94 159.97 C 158.74 160.29 159.65 159.89 159.96 159.09 L 160.32 158.19 C 160.63 157.39 160.24 156.48 159.44 156.17 C 158.64 155.85 157.73 156.25 157.41 157.05 Z M 157.06 157.93 L 156.70 158.83 C 156.38 159.63 156.76 160.54 157.56 160.86 C 158.36 161.19 159.27 160.80 159.60 160.00 L 159.96 159.10 C 160.28 158.30 159.90 157.39 159.10 157.07 C 158.30 156.75 157.39 157.13 157.06 157.93 Z M 156.70 158.82 L 156.29 159.84 C 155.96 160.64 156.34 161.55 157.14 161.88 C 157.94 162.20 158.85 161.82 159.18 161.02 L 159.59 160.01 C 159.92 159.21 159.54 158.30 158.74 157.97 C 157.94 157.64 157.03 158.02 156.70 158.82 Z M 156.29 159.83 L 155.91 160.75 C 155.57 161.55 155.95 162.46 156.75 162.79 C 157.54 163.13 158.46 162.75 158.79 161.95 L 159.17 161.03 C 159.50 160.24 159.13 159.32 158.33 158.99 C 157.54 158.66 156.62 159.03 156.29 159.83 Z M 155.91 160.74 L 155.54 161.61 C 155.21 162.41 155.58 163.32 156.37 163.66 C 157.17 163.99 158.08 163.62 158.42 162.83 L 158.79 161.96 C 159.12 161.17 158.75 160.25 157.96 159.91 C 157.16 159.58 156.25 159.95 155.91 160.74 Z M 155.55 161.61 L 155.18 162.46 C 154.84 163.25 155.21 164.17 156.00 164.51 C 156.80 164.85 157.72 164.48 158.05 163.69 L 158.42 162.83 C 158.76 162.04 158.39 161.12 157.59 160.78 C 156.80 160.45 155.88 160.81 155.55 161.61 Z M 155.18 162.46 L 154.82 163.31 C 154.48 164.11 154.84 165.02 155.64 165.36 C 156.43 165.70 157.35 165.34 157.69 164.54 L 158.05 163.69 C 158.39 162.90 158.02 161.98 157.23 161.64 C 156.44 161.30 155.52 161.67 155.18 162.46 Z M 154.82 163.31 L 154.43 164.20 C 154.09 164.99 154.46 165.91 155.25 166.25 C 156.04 166.59 156.96 166.22 157.30 165.43 L 157.68 164.55 C 158.03 163.75 157.66 162.84 156.87 162.49 C 156.07 162.15 155.16 162.52 154.82 163.31 Z M 154.44 164.20 L 154.04 165.12 C 153.70 165.91 154.06 166.83 154.85 167.17 C 155.65 167.51 156.56 167.15 156.91 166.36 L 157.30 165.43 C 157.64 164.64 157.28 163.72 156.49 163.38 C 155.69 163.04 154.78 163.41 154.44 164.20 Z M 154.04 165.12 L 153.62 166.09 C 153.28 166.88 153.65 167.80 154.44 168.14 C 155.23 168.48 156.15 168.11 156.49 167.32 L 156.91 166.36 C 157.25 165.57 156.88 164.65 156.09 164.31 C 155.30 163.96 154.38 164.33 154.04 165.12 Z M 153.62 166.09 L 153.23 167.00 C 152.89 167.79 153.25 168.71 154.04 169.05 C 154.84 169.39 155.75 169.03 156.10 168.24 L 156.49 167.32 C 156.83 166.53 156.47 165.61 155.67 165.27 C 154.88 164.93 153.96 165.30 153.62 166.09 Z M 153.23 167.00 L 152.86 167.87 C 152.51 168.66 152.88 169.58 153.67 169.92 C 154.46 170.26 155.38 169.89 155.72 169.10 L 156.10 168.24 C 156.44 167.45 156.07 166.53 155.28 166.19 C 154.49 165.84 153.57 166.21 153.23 167.00 Z M 152.86 167.87 L 152.47 168.77 C 152.13 169.56 152.49 170.48 153.29 170.82 C 154.08 171.16 155.00 170.79 155.34 170.00 L 155.72 169.10 C 156.06 168.31 155.70 167.39 154.91 167.05 C 154.11 166.71 153.20 167.08 152.86 167.87 Z M 152.47 168.77 L 152.07 169.70 C 151.73 170.49 152.09 171.41 152.88 171.75 C 153.68 172.09 154.60 171.72 154.94 170.93 L 155.34 170.00 C 155.68 169.21 155.31 168.29 154.52 167.95 C 153.73 167.61 152.81 167.97 152.47 168.77 Z M 152.07 169.70 L 151.65 170.66 C 151.31 171.45 151.68 172.37 152.47 172.71 C 153.26 173.05 154.18 172.68 154.52 171.89 L 154.94 170.93 C 155.28 170.14 154.91 169.22 154.12 168.88 C 153.33 168.54 152.41 168.90 152.07 169.70 Z M 151.65 170.66 L 151.24 171.63 C 150.89 172.42 151.26 173.34 152.05 173.68 C 152.84 174.02 153.76 173.66 154.10 172.86 L 154.52 171.89 C 154.86 171.10 154.50 170.18 153.71 169.84 C 152.91 169.50 151.99 169.87 151.65 170.66 Z M 151.24 171.63 L 150.85 172.52 C 150.51 173.31 150.88 174.23 151.67 174.57 C 152.46 174.91 153.38 174.54 153.72 173.75 L 154.10 172.86 C 154.44 172.07 154.08 171.15 153.29 170.81 C 152.50 170.47 151.58 170.84 151.24 171.63 Z M 150.85 172.52 L 150.46 173.42 C 150.12 174.22 150.49 175.13 151.28 175.48 C 152.07 175.82 152.99 175.45 153.33 174.66 L 153.72 173.75 C 154.06 172.96 153.70 172.04 152.90 171.70 C 152.11 171.36 151.19 171.72 150.85 172.52 Z M 150.46 173.42 L 150.07 174.35 C 149.72 175.14 150.09 176.06 150.88 176.40 C 151.67 176.74 152.59 176.37 152.93 175.58 L 153.33 174.66 C 153.67 173.87 153.31 172.95 152.51 172.61 C 151.72 172.27 150.80 172.63 150.46 173.42 Z M 150.06 174.35 L 149.66 175.28 C 149.32 176.07 149.69 176.99 150.48 177.33 C 151.27 177.67 152.19 177.30 152.53 176.51 L 152.93 175.58 C 153.27 174.79 152.91 173.87 152.12 173.53 C 151.32 173.19 150.41 173.55 150.06 174.35 Z M 149.66 175.28 L 149.26 176.21 C 148.92 177.01 149.29 177.92 150.08 178.26 C 150.87 178.60 151.79 178.24 152.13 177.45 L 152.53 176.51 C 152.87 175.72 152.51 174.80 151.71 174.46 C 150.92 174.12 150.00 174.49 149.66 175.28 Z M 149.26 176.22 L 148.86 177.15 C 148.52 177.94 148.89 178.86 149.68 179.20 C 150.47 179.54 151.39 179.17 151.73 178.38 L 152.13 177.44 C 152.47 176.65 152.10 175.73 151.31 175.39 C 150.52 175.06 149.60 175.42 149.26 176.22 Z M 148.86 177.15 L 148.46 178.08 C 148.13 178.87 148.49 179.79 149.29 180.13 C 150.08 180.47 151.00 180.10 151.34 179.31 L 151.73 178.38 C 152.07 177.59 151.70 176.67 150.91 176.33 C 150.12 175.99 149.20 176.36 148.86 177.15 Z M 148.46 178.08 L 148.07 179.00 C 147.73 179.80 148.10 180.71 148.89 181.05 C 149.69 181.39 150.60 181.02 150.94 180.23 L 151.34 179.31 C 151.67 178.51 151.31 177.60 150.51 177.26 C 149.72 176.92 148.80 177.29 148.46 178.08 Z M 148.07 179.00 L 147.68 179.92 C 147.34 180.71 147.70 181.63 148.50 181.97 C 149.29 182.31 150.21 181.94 150.55 181.15 L 150.94 180.23 C 151.28 179.44 150.91 178.52 150.12 178.18 C 149.33 177.84 148.41 178.21 148.07 179.00 Z M 147.68 179.92 L 147.28 180.83 C 146.94 181.62 147.31 182.54 148.10 182.88 C 148.89 183.23 149.81 182.86 150.15 182.07 L 150.54 181.15 C 150.89 180.36 150.52 179.44 149.73 179.10 C 148.94 178.76 148.02 179.12 147.68 179.92 Z M 147.29 180.83 L 146.89 181.74 C 146.54 182.53 146.90 183.45 147.69 183.79 C 148.48 184.14 149.40 183.78 149.75 182.99 L 150.15 182.08 C 150.49 181.29 150.13 180.37 149.34 180.02 C 148.55 179.68 147.63 180.04 147.29 180.83 Z M 146.89 181.73 L 146.49 182.64 C 146.14 183.43 146.49 184.35 147.28 184.70 C 148.07 185.05 148.99 184.69 149.34 183.91 L 149.75 183.00 C 150.09 182.21 149.74 181.28 148.95 180.94 C 148.16 180.59 147.24 180.94 146.89 181.73 Z M 146.49 182.63 L 146.07 183.56 C 145.72 184.35 146.07 185.27 146.86 185.62 C 147.64 185.98 148.57 185.63 148.92 184.84 L 149.34 183.91 C 149.69 183.13 149.34 182.20 148.56 181.85 C 147.77 181.50 146.84 181.85 146.49 182.63 Z M 146.08 183.55 L 145.66 184.47 C 145.30 185.26 145.64 186.18 146.42 186.54 C 147.21 186.90 148.14 186.56 148.49 185.77 L 148.92 184.85 C 149.28 184.07 148.93 183.14 148.15 182.78 C 147.36 182.42 146.44 182.77 146.08 183.55 Z M 145.66 184.46 L 145.23 185.38 C 144.87 186.16 145.21 187.09 145.99 187.45 C 146.77 187.82 147.70 187.48 148.06 186.70 L 148.49 185.79 C 148.85 185.00 148.52 184.08 147.74 183.71 C 146.95 183.35 146.03 183.68 145.66 184.46 Z M 145.24 185.37 L 144.81 186.27 C 144.44 187.05 144.76 187.98 145.54 188.35 C 146.32 188.72 147.25 188.39 147.62 187.62 L 148.06 186.71 C 148.43 185.93 148.10 185.00 147.32 184.63 C 146.54 184.26 145.61 184.59 145.24 185.37 Z M 144.81 186.26 L 144.38 187.15 C 144.00 187.92 144.32 188.86 145.10 189.23 C 145.87 189.61 146.80 189.29 147.18 188.52 L 147.62 187.63 C 148.00 186.85 147.68 185.92 146.90 185.54 C 146.13 185.16 145.19 185.48 144.81 186.26 Z M 144.39 187.13 L 143.95 188.00 C 143.56 188.77 143.87 189.71 144.64 190.10 C 145.42 190.48 146.35 190.17 146.74 189.40 L 147.18 188.53 C 147.56 187.76 147.25 186.82 146.48 186.44 C 145.71 186.05 144.77 186.36 144.39 187.13 Z M 143.96 187.99 L 143.49 188.89 C 143.09 189.66 143.40 190.60 144.16 191.00 C 144.93 191.39 145.87 191.09 146.26 190.32 L 146.73 189.42 C 147.13 188.65 146.83 187.71 146.06 187.31 C 145.29 186.92 144.35 187.22 143.96 187.99 Z M 143.50 188.88 L 143.02 189.77 C 142.62 190.54 142.91 191.48 143.67 191.89 C 144.43 192.29 145.38 192.00 145.78 191.24 L 146.26 190.34 C 146.66 189.58 146.37 188.63 145.61 188.23 C 144.85 187.82 143.90 188.12 143.50 188.88 Z M 143.03 189.76 L 142.55 190.64 C 142.14 191.40 142.42 192.35 143.18 192.76 C 143.94 193.17 144.89 192.89 145.30 192.13 L 145.77 191.25 C 146.19 190.49 145.90 189.54 145.15 189.13 C 144.39 188.72 143.44 189.00 143.03 189.76 Z M 142.56 190.63 L 142.08 191.50 C 141.66 192.26 141.94 193.20 142.70 193.62 C 143.45 194.04 144.40 193.76 144.82 193.01 L 145.29 192.14 C 145.71 191.38 145.43 190.43 144.68 190.02 C 143.92 189.60 142.97 189.88 142.56 190.63 Z M 142.08 191.49 L 141.61 192.35 C 141.19 193.11 141.46 194.06 142.21 194.48 C 142.97 194.89 143.92 194.62 144.34 193.87 L 144.81 193.01 C 145.23 192.26 144.96 191.31 144.21 190.89 C 143.45 190.47 142.50 190.74 142.08 191.49 Z M 141.61 192.35 L 141.24 193.01 C 140.82 193.76 141.09 194.71 141.84 195.13 C 142.59 195.55 143.55 195.28 143.97 194.53 L 144.33 193.87 C 144.75 193.12 144.48 192.17 143.73 191.75 C 142.98 191.33 142.03 191.60 141.61 192.35 Z"
      fill="black"
      fill-rule="nonzero" /></svg>