<svg xmlns="http://www.w3.org/2000/svg" width="300" height="300" viewBox="0 0 300 300">
<path d="M 152.90 149.99 L 152.09 149.41 C 151.38 148.92 150.41 149.09 149.91 149.79 C 149.41 150.50 149.58 151.47 150.29 151.97 L 151.11 152.54 C 151.81 153.04 152.78 152.87 153.28 152.16 C 153.78 151.46 153.61 150.49 152.90 149.99 Z M 152.22 149.52 L 151.48 148.86 C 150.83 148.30 149.84 148.36 149.27 149.00 C 148.70 149.65 148.77 150.64 149.41 151.21 L 150.15 151.86 C 150.80 152.43 151.79 152.37 152.36 151.72 C 152.93 151.07 152.87 150.09 152.22 149.52 Z M 151.71 149.12 L 151.12 148.31 C 150.61 147.61 149.63 147.46 148.94 147.97 C 148.24 148.48 148.09 149.45 148.60 150.15 L 149.18 150.96 C 149.69 151.65 150.67 151.81 151.37 151.30 C 152.06 150.79 152.21 149.81 151.71 149.12 Z M 151.31 148.65 L 150.98 147.84 C 150.66 147.04 149.75 146.65 148.95 146.97 C 148.15 147.30 147.76 148.20 148.08 149.00 L 148.41 149.81 C 148.73 150.61 149.64 151.00 150.44 150.68 C 151.24 150.36 151.63 149.45 151.31 148.65 Z M 151.06 148.09 L 150.85 147.16 C 150.67 146.31 149.84 145.78 149.00 145.96 C 148.15 146.15 147.62 146.98 147.80 147.82 L 148.01 148.76 C 148.19 149.60 149.02 150.13 149.87 149.95 C 150.71 149.77 151.24 148.93 151.06 148.09 Z M 150.88 147.31 L 150.76 146.27 C 150.67 145.41 149.89 144.79 149.04 144.89 C 148.18 144.99 147.56 145.76 147.66 146.62 L 147.78 147.66 C 147.87 148.52 148.65 149.14 149.50 149.04 C 150.36 148.94 150.98 148.17 150.88 147.31 Z M 150.77 146.35 L 150.71 145.23 C 150.66 144.37 149.92 143.71 149.06 143.76 C 148.20 143.81 147.54 144.55 147.59 145.41 L 147.65 146.53 C 147.70 147.39 148.44 148.05 149.30 148.00 C 150.16 147.95 150.82 147.21 150.77 146.35 Z M 150.71 145.29 L 150.68 144.23 C 150.67 143.37 149.95 142.68 149.09 142.70 C 148.23 142.72 147.54 143.44 147.56 144.30 L 147.59 145.36 C 147.61 146.22 148.32 146.90 149.18 146.88 C 150.04 146.86 150.73 146.15 150.71 145.29 Z M 150.68 144.31 L 150.72 143.26 C 150.74 142.40 150.06 141.68 149.20 141.65 C 148.34 141.63 147.62 142.30 147.59 143.17 L 147.56 144.22 C 147.54 145.08 148.22 145.80 149.08 145.82 C 149.94 145.85 150.66 145.17 150.68 144.31 Z M 150.71 143.39 L 150.82 142.40 C 150.92 141.54 150.30 140.77 149.45 140.67 C 148.59 140.57 147.82 141.19 147.72 142.04 L 147.60 143.03 C 147.51 143.89 148.12 144.66 148.98 144.76 C 149.83 144.86 150.61 144.25 150.71 143.39 Z M 150.78 142.61 L 151.01 141.74 C 151.22 140.91 150.72 140.06 149.89 139.84 C 149.05 139.62 148.20 140.13 147.98 140.96 L 147.76 141.83 C 147.54 142.66 148.04 143.52 148.88 143.73 C 149.71 143.95 150.56 143.45 150.78 142.61 Z M 150.84 142.15 L 151.39 141.21 C 151.83 140.46 151.58 139.51 150.84 139.07 C 150.10 138.63 149.14 138.88 148.70 139.62 L 148.15 140.56 C 147.71 141.30 147.96 142.26 148.70 142.70 C 149.44 143.13 150.40 142.89 150.84 142.15 Z M 150.90 141.72 L 151.70 141.20 C 152.42 140.72 152.62 139.76 152.15 139.04 C 151.68 138.31 150.71 138.11 149.99 138.59 L 149.19 139.11 C 148.47 139.58 148.27 140.55 148.74 141.27 C 149.22 141.99 150.18 142.19 150.90 141.72 Z M 150.84 141.45 L 151.74 141.46 C 152.61 141.46 153.31 140.76 153.31 139.90 C 153.31 139.04 152.61 138.34 151.75 138.33 L 150.85 138.33 C 149.99 138.33 149.29 139.03 149.28 139.89 C 149.28 140.75 149.98 141.45 150.84 141.45 Z M 151.01 141.27 L 151.76 141.67 C 152.52 142.08 153.47 141.80 153.88 141.04 C 154.28 140.28 154.00 139.33 153.24 138.93 L 152.49 138.52 C 151.73 138.11 150.78 138.39 150.37 139.15 C 149.96 139.91 150.25 140.86 151.01 141.27 Z M 151.45 141.46 L 152.19 142.13 C 152.83 142.71 153.82 142.66 154.40 142.02 C 154.98 141.38 154.93 140.39 154.29 139.82 L 153.55 139.14 C 152.91 138.56 151.92 138.61 151.34 139.25 C 150.77 139.89 150.81 140.88 151.45 141.46 Z M 152.07 142.00 L 152.79 142.82 C 153.36 143.46 154.34 143.52 154.99 142.95 C 155.64 142.38 155.70 141.40 155.13 140.75 L 154.41 139.94 C 153.84 139.29 152.85 139.23 152.21 139.80 C 151.56 140.37 151.50 141.36 152.07 142.00 Z M 152.75 142.77 L 153.45 143.63 C 154.00 144.30 154.98 144.40 155.65 143.85 C 156.31 143.30 156.41 142.32 155.87 141.65 L 155.17 140.80 C 154.62 140.13 153.64 140.03 152.97 140.57 C 152.30 141.12 152.20 142.10 152.75 142.77 Z M 153.40 143.57 L 154.03 144.42 C 154.54 145.11 155.51 145.26 156.21 144.75 C 156.90 144.24 157.05 143.26 156.54 142.57 L 155.92 141.72 C 155.41 141.02 154.43 140.87 153.73 141.38 C 153.04 141.89 152.89 142.87 153.40 143.57 Z M 153.89 144.20 L 154.33 145.05 C 154.72 145.82 155.66 146.12 156.43 145.73 C 157.19 145.34 157.50 144.40 157.11 143.63 L 156.67 142.78 C 156.28 142.01 155.34 141.71 154.57 142.10 C 153.81 142.49 153.50 143.43 153.89 144.20 Z M 154.17 144.59 L 154.31 145.45 C 154.45 146.31 155.25 146.89 156.10 146.75 C 156.95 146.61 157.53 145.81 157.40 144.96 L 157.26 144.09 C 157.12 143.24 156.32 142.66 155.47 142.80 C 154.62 142.93 154.04 143.74 154.17 144.59 Z M 154.33 144.86 L 154.13 145.75 C 153.94 146.59 154.47 147.43 155.31 147.62 C 156.15 147.81 156.99 147.28 157.18 146.44 L 157.38 145.55 C 157.57 144.71 157.04 143.87 156.20 143.68 C 155.36 143.49 154.52 144.02 154.33 144.86 Z M 154.30 145.32 L 153.80 146.19 C 153.38 146.94 153.64 147.90 154.39 148.32 C 155.14 148.75 156.09 148.49 156.52 147.74 L 157.01 146.87 C 157.44 146.12 157.18 145.17 156.43 144.74 C 155.68 144.31 154.72 144.57 154.30 145.32 Z M 154.01 145.91 L 153.27 146.71 C 152.69 147.34 152.73 148.33 153.36 148.91 C 154.00 149.50 154.99 149.46 155.57 148.82 L 156.31 148.02 C 156.89 147.39 156.85 146.40 156.22 145.82 C 155.58 145.23 154.59 145.27 154.01 145.91 Z M 153.50 146.51 L 152.57 147.18 C 151.88 147.69 151.73 148.67 152.24 149.37 C 152.75 150.06 153.72 150.21 154.42 149.70 L 155.34 149.03 C 156.04 148.52 156.19 147.54 155.68 146.84 C 155.17 146.15 154.20 146.00 153.50 146.51 Z M 152.85 147.02 L 151.88 147.46 C 151.10 147.81 150.75 148.74 151.10 149.52 C 151.45 150.31 152.38 150.66 153.16 150.31 L 154.14 149.87 C 154.92 149.51 155.27 148.59 154.92 147.80 C 154.56 147.02 153.64 146.67 152.85 147.02 Z M 152.39 147.33 L 151.53 147.40 C 150.67 147.48 150.04 148.23 150.11 149.09 C 150.19 149.95 150.94 150.59 151.80 150.51 L 152.66 150.44 C 153.52 150.36 154.15 149.61 154.08 148.75 C 154.00 147.89 153.25 147.25 152.39 147.33 Z M 152.55 147.67 L 151.95 147.26 C 151.24 146.77 150.27 146.95 149.78 147.67 C 149.29 148.38 149.47 149.35 150.19 149.84 L 150.78 150.25 C 151.50 150.73 152.47 150.55 152.95 149.84 C 153.44 149.13 153.26 148.16 152.55 147.67 Z M 152.53 148.00 L 152.21 147.15 C 151.91 146.34 151.01 145.93 150.20 146.24 C 149.40 146.54 148.99 147.44 149.29 148.25 L 149.61 149.10 C 149.91 149.90 150.81 150.31 151.61 150.01 C 152.42 149.71 152.83 148.81 152.53 148.00 Z M 152.30 147.51 L 152.17 146.42 C 152.07 145.56 151.29 144.95 150.44 145.05 C 149.58 145.15 148.97 145.93 149.07 146.79 L 149.20 147.88 C 149.30 148.74 150.08 149.35 150.93 149.25 C 151.79 149.15 152.40 148.37 152.30 147.51 Z M 152.18 146.54 L 152.14 145.43 C 152.10 144.56 151.38 143.89 150.51 143.93 C 149.65 143.96 148.98 144.69 149.02 145.55 L 149.06 146.66 C 149.09 147.52 149.82 148.19 150.68 148.16 C 151.54 148.13 152.21 147.40 152.18 146.54 Z M 152.14 145.47 L 152.13 144.46 C 152.12 143.59 151.42 142.90 150.55 142.91 C 149.69 142.91 149.00 143.62 149.01 144.48 L 149.01 145.50 C 149.02 146.36 149.73 147.06 150.59 147.05 C 151.45 147.04 152.14 146.34 152.14 145.47 Z M 152.13 144.53 L 152.17 143.54 C 152.20 142.68 151.53 141.95 150.67 141.92 C 149.81 141.89 149.08 142.56 149.05 143.42 L 149.01 144.41 C 148.97 145.27 149.64 146.00 150.51 146.03 C 151.37 146.06 152.09 145.39 152.13 144.53 Z M 152.16 143.65 L 152.26 142.68 C 152.35 141.82 151.73 141.05 150.88 140.96 C 150.02 140.87 149.25 141.49 149.16 142.34 L 149.05 143.31 C 148.96 144.17 149.58 144.94 150.44 145.03 C 151.30 145.12 152.07 144.50 152.16 143.65 Z M 152.24 142.81 L 152.43 141.86 C 152.59 141.01 152.04 140.19 151.19 140.03 C 150.35 139.86 149.53 140.42 149.36 141.26 L 149.18 142.21 C 149.01 143.06 149.57 143.88 150.41 144.04 C 151.26 144.21 152.08 143.66 152.24 142.81 Z M 152.40 141.99 L 152.67 141.05 C 152.91 140.22 152.43 139.35 151.60 139.12 C 150.77 138.88 149.91 139.36 149.67 140.18 L 149.39 141.13 C 149.16 141.96 149.63 142.82 150.46 143.06 C 151.29 143.30 152.16 142.82 152.40 141.99 Z M 152.62 141.17 L 152.99 140.23 C 153.30 139.42 152.89 138.52 152.09 138.21 C 151.28 137.90 150.38 138.31 150.07 139.11 L 149.71 140.06 C 149.40 140.86 149.80 141.77 150.61 142.07 C 151.41 142.38 152.32 141.98 152.62 141.17 Z M 152.94 140.34 L 153.38 139.41 C 153.75 138.63 153.42 137.70 152.65 137.33 C 151.87 136.96 150.94 137.29 150.57 138.07 L 150.12 139.00 C 149.75 139.78 150.08 140.71 150.86 141.08 C 151.64 141.45 152.57 141.12 152.94 140.34 Z M 153.33 139.52 L 153.84 138.64 C 154.27 137.89 154.01 136.93 153.27 136.50 C 152.52 136.07 151.57 136.33 151.13 137.07 L 150.62 137.96 C 150.19 138.70 150.45 139.66 151.19 140.09 C 151.94 140.52 152.89 140.27 153.33 139.52 Z M 153.75 138.76 L 154.34 137.94 C 154.85 137.24 154.69 136.26 153.98 135.76 C 153.28 135.26 152.31 135.42 151.81 136.12 L 151.22 136.95 C 150.71 137.65 150.87 138.62 151.58 139.12 C 152.28 139.63 153.25 139.46 153.75 138.76 Z M 154.22 138.09 L 154.89 137.38 C 155.47 136.75 155.44 135.76 154.81 135.17 C 154.18 134.58 153.19 134.62 152.60 135.25 L 151.93 135.97 C 151.35 136.60 151.38 137.58 152.01 138.17 C 152.64 138.76 153.63 138.72 154.22 138.09 Z M 154.67 137.57 L 155.53 136.94 C 156.22 136.43 156.38 135.45 155.87 134.76 C 155.36 134.06 154.38 133.91 153.68 134.42 L 152.82 135.05 C 152.13 135.56 151.98 136.54 152.48 137.23 C 152.99 137.93 153.97 138.08 154.67 137.57 Z M 155.18 137.13 L 156.16 136.75 C 156.96 136.44 157.36 135.53 157.04 134.73 C 156.73 133.92 155.82 133.53 155.02 133.84 L 154.04 134.23 C 153.23 134.54 152.84 135.45 153.15 136.25 C 153.47 137.05 154.37 137.45 155.18 137.13 Z M 155.60 136.86 L 156.50 136.85 C 157.37 136.84 158.06 136.14 158.05 135.27 C 158.04 134.41 157.34 133.72 156.48 133.73 L 155.57 133.74 C 154.71 133.74 154.02 134.45 154.03 135.31 C 154.03 136.17 154.74 136.87 155.60 136.86 Z M 155.69 136.63 L 156.40 137.06 C 157.14 137.50 158.10 137.26 158.55 136.52 C 158.99 135.78 158.75 134.82 158.01 134.38 L 157.29 133.95 C 156.55 133.51 155.59 133.75 155.15 134.49 C 154.71 135.23 154.95 136.19 155.69 136.63 Z M 155.88 136.54 L 156.38 137.35 C 156.83 138.08 157.79 138.31 158.53 137.86 C 159.26 137.40 159.49 136.44 159.04 135.71 L 158.53 134.90 C 158.08 134.16 157.12 133.94 156.39 134.39 C 155.65 134.84 155.42 135.80 155.88 136.54 Z M 156.22 137.02 L 156.56 138.04 C 156.83 138.86 157.72 139.30 158.53 139.03 C 159.35 138.76 159.80 137.88 159.53 137.06 L 159.19 136.04 C 158.92 135.22 158.04 134.78 157.22 135.05 C 156.40 135.32 155.95 136.20 156.22 137.02 Z M 156.52 137.89 L 156.74 138.89 C 156.93 139.74 157.77 140.27 158.61 140.08 C 159.45 139.89 159.98 139.06 159.79 138.22 L 159.57 137.21 C 159.38 136.37 158.55 135.84 157.70 136.03 C 156.86 136.21 156.33 137.05 156.52 137.89 Z M 156.73 138.79 L 156.88 139.77 C 157.01 140.62 157.80 141.21 158.66 141.07 C 159.51 140.94 160.09 140.15 159.96 139.29 L 159.81 138.32 C 159.68 137.46 158.88 136.88 158.03 137.01 C 157.18 137.14 156.59 137.94 156.73 138.79 Z M 156.86 139.66 L 156.95 140.66 C 157.02 141.52 157.78 142.16 158.64 142.08 C 159.49 142.01 160.13 141.26 160.06 140.40 L 159.97 139.40 C 159.90 138.54 159.15 137.90 158.29 137.98 C 157.43 138.05 156.79 138.80 156.86 139.66 Z M 156.94 140.56 L 156.96 141.56 C 156.97 142.42 157.68 143.11 158.55 143.09 C 159.41 143.08 160.10 142.37 160.08 141.50 L 160.06 140.50 C 160.05 139.64 159.34 138.95 158.48 138.97 C 157.61 138.98 156.93 139.69 156.94 140.56 Z M 156.96 141.43 L 156.90 142.43 C 156.85 143.29 157.50 144.03 158.36 144.08 C 159.22 144.14 159.96 143.48 160.02 142.62 L 160.08 141.63 C 160.13 140.77 159.48 140.03 158.62 139.97 C 157.76 139.92 157.02 140.57 156.96 141.43 Z M 156.92 142.26 L 156.75 143.25 C 156.60 144.10 157.17 144.91 158.01 145.05 C 158.86 145.20 159.67 144.64 159.82 143.79 L 160.00 142.80 C 160.14 141.95 159.58 141.14 158.73 140.99 C 157.88 140.84 157.07 141.41 156.92 142.26 Z M 156.80 143.02 L 156.49 143.97 C 156.21 144.79 156.65 145.67 157.47 145.94 C 158.29 146.22 159.17 145.78 159.45 144.96 L 159.76 144.01 C 160.04 143.20 159.60 142.31 158.78 142.04 C 157.96 141.76 157.08 142.20 156.80 143.02 Z M 156.59 143.73 L 156.13 144.59 C 155.73 145.35 156.01 146.29 156.77 146.70 C 157.53 147.10 158.48 146.82 158.89 146.06 L 159.34 145.20 C 159.75 144.44 159.46 143.49 158.70 143.09 C 157.94 142.68 156.99 142.97 156.59 143.73 Z M 156.22 144.44 L 155.66 145.26 C 155.17 145.97 155.35 146.94 156.06 147.43 C 156.77 147.92 157.74 147.74 158.23 147.03 L 158.79 146.21 C 159.28 145.50 159.10 144.52 158.39 144.04 C 157.68 143.55 156.71 143.73 156.22 144.44 Z M 155.71 145.19 L 155.09 146.00 C 154.56 146.68 154.69 147.66 155.37 148.19 C 156.06 148.71 157.04 148.58 157.56 147.90 L 158.18 147.09 C 158.71 146.41 158.58 145.43 157.90 144.90 C 157.21 144.38 156.23 144.51 155.71 145.19 Z M 155.09 146.00 L 154.48 146.79 C 153.95 147.48 154.08 148.46 154.76 148.98 C 155.45 149.51 156.43 149.38 156.95 148.69 L 157.56 147.90 C 158.09 147.21 157.96 146.23 157.27 145.71 C 156.59 145.18 155.61 145.31 155.09 146.00 Z M 154.46 146.82 L 153.87 147.61 C 153.36 148.30 153.51 149.28 154.21 149.79 C 154.90 150.30 155.88 150.15 156.39 149.46 L 156.97 148.67 C 157.48 147.97 157.33 147.00 156.64 146.48 C 155.95 145.97 154.97 146.12 154.46 146.82 Z M 153.86 147.62 L 153.28 148.43 C 152.78 149.13 152.94 150.11 153.64 150.61 C 154.34 151.12 155.31 150.96 155.82 150.26 L 156.40 149.44 C 156.90 148.74 156.74 147.77 156.04 147.27 C 155.34 146.76 154.37 146.92 153.86 147.62 Z M 153.28 148.43 L 152.69 149.26 C 152.18 149.96 152.34 150.94 153.04 151.44 C 153.74 151.94 154.72 151.78 155.22 151.08 L 155.82 150.26 C 156.32 149.55 156.16 148.58 155.46 148.08 C 154.76 147.57 153.78 147.73 153.28 148.43 Z M 152.70 149.24 L 151.96 150.24 C 151.45 150.93 151.59 151.91 152.28 152.42 C 152.97 152.94 153.95 152.79 154.47 152.10 L 155.21 151.10 C 155.72 150.41 155.58 149.43 154.88 148.92 C 154.19 148.41 153.21 148.55 152.70 149.24 Z M 152.06 150.12 L 151.31 150.94 C 150.74 151.58 150.78 152.57 151.42 153.15 C 152.06 153.73 153.05 153.68 153.63 153.04 L 154.37 152.22 C 154.95 151.58 154.90 150.59 154.26 150.01 C 153.62 149.43 152.63 149.48 152.06 150.12 Z M 151.90 150.54 L 151.31 150.77 C 150.51 151.09 150.12 152.00 150.43 152.80 C 150.75 153.60 151.66 153.99 152.46 153.67 L 153.05 153.44 C 153.85 153.12 154.24 152.22 153.92 151.41 C 153.60 150.61 152.70 150.22 151.90 150.54 Z M 153.20 151.38 L 152.92 150.94 C 152.46 150.21 151.49 150.00 150.76 150.46 C 150.04 150.92 149.82 151.88 150.28 152.61 L 150.57 153.06 C 151.03 153.79 151.99 154.00 152.72 153.54 C 153.45 153.08 153.67 152.11 153.20 151.38 Z M 153.15 151.56 L 153.03 150.70 C 152.91 149.85 152.13 149.25 151.27 149.37 C 150.42 149.48 149.82 150.27 149.94 151.13 L 150.05 151.99 C 150.17 152.84 150.96 153.44 151.81 153.32 C 152.67 153.21 153.27 152.42 153.15 151.56 Z M 153.04 150.90 L 153.04 149.77 C 153.03 148.91 152.32 148.21 151.46 148.22 C 150.60 148.23 149.91 148.93 149.91 149.79 L 149.92 150.93 C 149.93 151.79 150.63 152.48 151.50 152.47 C 152.36 152.47 153.05 151.76 153.04 150.90 Z M 153.03 149.87 L 153.10 148.63 C 153.15 147.77 152.49 147.03 151.63 146.98 C 150.77 146.93 150.03 147.59 149.99 148.45 L 149.92 149.69 C 149.87 150.55 150.53 151.29 151.39 151.34 C 152.25 151.39 152.98 150.73 153.03 149.87 Z M 153.10 148.69 L 153.21 147.56 C 153.30 146.70 152.67 145.94 151.81 145.85 C 150.95 145.77 150.19 146.39 150.10 147.25 L 149.99 148.38 C 149.91 149.24 150.53 150.01 151.39 150.09 C 152.25 150.18 153.01 149.55 153.10 148.69 Z M 153.20 147.62 L 153.35 146.58 C 153.46 145.72 152.86 144.94 152.01 144.82 C 151.15 144.70 150.37 145.30 150.25 146.16 L 150.11 147.19 C 149.99 148.05 150.59 148.83 151.45 148.95 C 152.30 149.07 153.09 148.47 153.20 147.62 Z M 153.34 146.63 L 153.50 145.65 C 153.65 144.80 153.08 144.00 152.22 143.85 C 151.37 143.71 150.57 144.28 150.42 145.13 L 150.26 146.11 C 150.11 146.96 150.69 147.76 151.54 147.91 C 152.39 148.05 153.19 147.48 153.34 146.63 Z M 153.50 145.69 L 153.68 144.76 C 153.85 143.92 153.30 143.10 152.45 142.93 C 151.61 142.76 150.78 143.31 150.62 144.16 L 150.43 145.09 C 150.27 145.93 150.82 146.75 151.66 146.92 C 152.51 147.09 153.33 146.54 153.50 145.69 Z M 153.67 144.80 L 153.88 143.87 C 154.06 143.02 153.53 142.19 152.69 142.01 C 151.85 141.82 151.01 142.35 150.83 143.19 L 150.62 144.13 C 150.44 144.97 150.97 145.80 151.81 145.99 C 152.65 146.17 153.49 145.64 153.67 144.80 Z M 153.87 143.89 L 154.11 142.90 C 154.31 142.07 153.79 141.22 152.95 141.02 C 152.11 140.82 151.27 141.34 151.07 142.18 L 150.83 143.17 C 150.63 144.01 151.15 144.85 151.99 145.05 C 152.83 145.25 153.67 144.73 153.87 143.89 Z M 154.10 142.93 L 154.35 141.97 C 154.56 141.13 154.06 140.28 153.23 140.07 C 152.39 139.85 151.54 140.35 151.33 141.19 L 151.08 142.15 C 150.86 142.99 151.37 143.84 152.20 144.05 C 153.03 144.27 153.89 143.77 154.10 142.93 Z M 154.34 141.99 L 154.60 141.04 C 154.83 140.21 154.34 139.35 153.51 139.12 C 152.68 138.90 151.82 139.38 151.59 140.22 L 151.33 141.17 C 151.10 142.00 151.59 142.86 152.42 143.08 C 153.26 143.31 154.11 142.82 154.34 141.99 Z M 154.60 141.07 L 154.88 140.09 C 155.12 139.26 154.65 138.39 153.82 138.15 C 152.99 137.91 152.13 138.39 151.89 139.21 L 151.60 140.19 C 151.36 141.02 151.83 141.89 152.66 142.13 C 153.49 142.37 154.36 141.89 154.60 141.07 Z M 154.85 140.18 L 155.20 139.21 C 155.50 138.40 155.08 137.50 154.26 137.21 C 153.45 136.92 152.56 137.34 152.27 138.15 L 151.92 139.12 C 151.62 139.93 152.04 140.83 152.85 141.12 C 153.67 141.41 154.56 140.99 154.85 140.18 Z M 155.09 139.45 L 155.57 138.61 C 156.00 137.86 155.74 136.90 155.00 136.48 C 154.25 136.05 153.29 136.31 152.86 137.06 L 152.38 137.90 C 151.95 138.65 152.21 139.60 152.96 140.03 C 153.71 140.46 154.66 140.20 155.09 139.45 Z M 155.26 138.99 L 155.96 138.37 C 156.60 137.79 156.65 136.81 156.08 136.17 C 155.50 135.52 154.52 135.47 153.87 136.04 L 153.18 136.67 C 152.54 137.24 152.48 138.23 153.06 138.87 C 153.63 139.52 154.62 139.57 155.26 138.99 Z M 155.43 138.68 L 156.32 138.37 C 157.13 138.09 157.56 137.20 157.28 136.39 C 157.00 135.57 156.11 135.14 155.30 135.42 L 154.41 135.73 C 153.59 136.01 153.16 136.90 153.44 137.72 C 153.72 138.53 154.61 138.96 155.43 138.68 Z M 155.83 138.46 L 156.84 138.45 C 157.70 138.43 158.39 137.73 158.38 136.86 C 158.37 136.00 157.66 135.31 156.79 135.32 L 155.79 135.34 C 154.92 135.35 154.23 136.06 154.25 136.92 C 154.26 137.78 154.97 138.47 155.83 138.46 Z M 156.38 138.38 L 157.36 138.67 C 158.19 138.91 159.05 138.43 159.29 137.60 C 159.53 136.78 159.06 135.91 158.23 135.67 L 157.25 135.39 C 156.42 135.15 155.56 135.62 155.32 136.45 C 155.08 137.28 155.55 138.14 156.38 138.38 Z M 156.86 138.42 L 157.65 139.01 C 158.34 139.52 159.31 139.38 159.83 138.69 C 160.35 138.00 160.20 137.02 159.51 136.51 L 158.73 135.92 C 158.04 135.40 157.06 135.54 156.54 136.23 C 156.03 136.93 156.17 137.90 156.86 138.42 Z M 157.23 138.54 L 157.68 139.31 C 158.11 140.06 159.07 140.31 159.81 139.88 C 160.56 139.44 160.81 138.49 160.38 137.74 L 159.93 136.97 C 159.50 136.23 158.54 135.97 157.79 136.41 C 157.05 136.84 156.80 137.80 157.23 138.54 Z M 157.51 138.91 L 157.75 139.85 C 157.96 140.69 158.81 141.19 159.65 140.98 C 160.48 140.77 160.99 139.92 160.78 139.09 L 160.54 138.14 C 160.33 137.31 159.48 136.80 158.64 137.01 C 157.81 137.23 157.30 138.07 157.51 138.91 Z M 157.71 139.59 L 157.79 140.63 C 157.86 141.49 158.61 142.13 159.47 142.06 C 160.33 141.99 160.97 141.24 160.91 140.38 L 160.82 139.34 C 160.75 138.48 160.00 137.84 159.14 137.91 C 158.28 137.98 157.64 138.73 157.71 139.59 Z M 157.79 140.48 L 157.77 141.54 C 157.76 142.40 158.45 143.11 159.31 143.12 C 160.17 143.14 160.88 142.45 160.89 141.59 L 160.91 140.53 C 160.92 139.67 160.23 138.96 159.37 138.94 C 158.51 138.93 157.80 139.62 157.79 140.48 Z M 157.77 141.46 L 157.71 142.55 C 157.65 143.41 158.30 144.15 159.16 144.21 C 160.02 144.26 160.77 143.61 160.82 142.75 L 160.89 141.66 C 160.95 140.80 160.29 140.06 159.43 140.00 C 158.57 139.95 157.83 140.60 157.77 141.46 Z M 157.71 142.50 L 157.61 143.54 C 157.53 144.40 158.16 145.16 159.02 145.24 C 159.87 145.32 160.64 144.69 160.72 143.83 L 160.82 142.80 C 160.90 141.94 160.27 141.18 159.41 141.09 C 158.55 141.01 157.79 141.64 157.71 142.50 Z M 157.61 143.49 L 157.50 144.46 C 157.39 145.32 158.00 146.10 158.85 146.20 C 159.71 146.31 160.49 145.70 160.59 144.85 L 160.71 143.88 C 160.82 143.02 160.21 142.24 159.36 142.14 C 158.50 142.03 157.72 142.64 157.61 143.49 Z M 157.50 144.43 L 157.37 145.35 C 157.24 146.20 157.84 146.99 158.69 147.12 C 159.54 147.24 160.34 146.65 160.46 145.79 L 160.59 144.88 C 160.71 144.02 160.12 143.23 159.27 143.11 C 158.41 142.99 157.62 143.58 157.50 144.43 Z M 157.37 145.33 L 157.22 146.29 C 157.09 147.14 157.67 147.94 158.52 148.07 C 159.38 148.21 160.17 147.62 160.31 146.77 L 160.46 145.81 C 160.59 144.96 160.00 144.16 159.15 144.03 C 158.30 143.89 157.50 144.48 157.37 145.33 Z M 157.22 146.29 L 157.07 147.25 C 156.93 148.11 157.51 148.91 158.36 149.04 C 159.21 149.18 160.01 148.60 160.15 147.75 L 160.30 146.78 C 160.44 145.93 159.86 145.13 159.01 144.99 C 158.16 144.85 157.36 145.43 157.22 146.29 Z M 157.07 147.26 L 156.91 148.24 C 156.78 149.10 157.36 149.90 158.21 150.03 C 159.06 150.16 159.86 149.58 160.00 148.73 L 160.15 147.74 C 160.28 146.89 159.70 146.09 158.85 145.96 C 158.00 145.82 157.20 146.41 157.07 147.26 Z M 156.91 148.26 L 156.76 149.26 C 156.64 150.11 157.23 150.91 158.08 151.03 C 158.93 151.16 159.72 150.57 159.85 149.71 L 160.00 148.71 C 160.12 147.86 159.53 147.07 158.68 146.94 C 157.83 146.82 157.03 147.41 156.91 148.26 Z M 156.76 149.27 L 156.62 150.24 C 156.51 151.10 157.10 151.89 157.96 152.01 C 158.81 152.13 159.60 151.53 159.72 150.68 L 159.85 149.70 C 159.97 148.85 159.38 148.06 158.52 147.94 C 157.67 147.82 156.88 148.42 156.76 149.27 Z M 156.62 150.24 L 156.48 151.24 C 156.36 152.10 156.96 152.89 157.81 153.01 C 158.67 153.13 159.46 152.53 159.58 151.68 L 159.72 150.68 C 159.84 149.82 159.24 149.03 158.39 148.91 C 157.53 148.79 156.74 149.39 156.62 150.24 Z M 156.49 151.23 L 156.34 152.24 C 156.21 153.09 156.79 153.88 157.65 154.01 C 158.50 154.14 159.30 153.55 159.42 152.70 L 159.57 151.69 C 159.70 150.84 159.11 150.05 158.26 149.92 C 157.41 149.79 156.61 150.38 156.49 151.23 Z M 156.34 152.21 L 156.17 153.20 C 156.03 154.05 156.60 154.85 157.45 155.00 C 158.30 155.14 159.11 154.57 159.25 153.72 L 159.42 152.73 C 159.56 151.88 158.99 151.07 158.14 150.93 C 157.29 150.78 156.48 151.36 156.34 152.21 Z M 156.18 153.16 L 155.99 154.13 C 155.82 154.97 156.37 155.79 157.22 155.96 C 158.06 156.13 158.88 155.58 159.05 154.73 L 159.24 153.76 C 159.41 152.92 158.86 152.09 158.01 151.93 C 157.17 151.76 156.35 152.31 156.18 153.16 Z M 156.00 154.08 L 155.78 155.04 C 155.58 155.88 156.10 156.72 156.94 156.91 C 157.78 157.11 158.62 156.59 158.82 155.75 L 159.04 154.78 C 159.24 153.94 158.71 153.10 157.87 152.91 C 157.03 152.71 156.19 153.24 156.00 154.08 Z M 155.79 154.98 L 155.52 155.95 C 155.30 156.78 155.79 157.64 156.62 157.87 C 157.45 158.10 158.31 157.61 158.54 156.77 L 158.80 155.80 C 159.03 154.97 158.54 154.11 157.71 153.89 C 156.87 153.66 156.02 154.15 155.79 154.98 Z M 155.54 155.89 L 155.24 156.87 C 154.98 157.69 155.43 158.56 156.26 158.82 C 157.08 159.08 157.96 158.63 158.21 157.80 L 158.52 156.83 C 158.78 156.01 158.32 155.13 157.50 154.87 C 156.68 154.62 155.80 155.07 155.54 155.89 Z M 155.25 156.82 L 154.91 157.79 C 154.63 158.60 155.06 159.49 155.87 159.77 C 156.69 160.06 157.58 159.63 157.86 158.82 L 158.20 157.85 C 158.48 157.04 158.05 156.15 157.24 155.86 C 156.43 155.58 155.54 156.00 155.25 156.82 Z M 154.92 157.75 L 154.57 158.71 C 154.26 159.52 154.67 160.42 155.48 160.72 C 156.29 161.02 157.19 160.61 157.49 159.80 L 157.85 158.85 C 158.15 158.04 157.74 157.14 156.93 156.84 C 156.13 156.54 155.23 156.95 154.92 157.75 Z M 154.58 158.69 L 154.22 159.60 C 153.90 160.40 154.30 161.31 155.10 161.62 C 155.90 161.94 156.81 161.54 157.12 160.74 L 157.48 159.83 C 157.80 159.02 157.40 158.12 156.60 157.80 C 155.80 157.49 154.89 157.88 154.58 158.69 Z M 154.22 159.59 L 153.85 160.51 C 153.53 161.31 153.91 162.22 154.71 162.54 C 155.51 162.86 156.42 162.48 156.75 161.68 L 157.12 160.75 C 157.44 159.95 157.05 159.05 156.25 158.72 C 155.45 158.40 154.54 158.79 154.22 159.59 Z M 153.85 160.50 L 153.48 161.42 C 153.15 162.22 153.54 163.13 154.33 163.46 C 155.13 163.78 156.04 163.40 156.37 162.60 L 156.74 161.68 C 157.07 160.88 156.69 159.97 155.89 159.65 C 155.09 159.32 154.18 159.70 153.85 160.50 Z M 153.48 161.43 L 153.11 162.33 C 152.79 163.13 153.17 164.04 153.97 164.36 C 154.77 164.68 155.68 164.30 156.01 163.50 L 156.37 162.60 C 156.69 161.80 156.31 160.89 155.51 160.56 C 154.71 160.24 153.80 160.63 153.48 161.43 Z M 153.11 162.34 L 152.74 163.27 C 152.42 164.07 152.82 164.98 153.62 165.30 C 154.42 165.61 155.33 165.22 155.64 164.42 L 156.01 163.49 C 156.33 162.68 155.93 161.78 155.13 161.46 C 154.33 161.14 153.42 161.54 153.11 162.34 Z M 152.73 163.29 L 152.41 164.14 C 152.10 164.94 152.50 165.85 153.30 166.16 C 154.11 166.46 155.01 166.06 155.32 165.26 L 155.65 164.40 C 155.96 163.60 155.55 162.70 154.75 162.39 C 153.94 162.08 153.04 162.48 152.73 163.29 Z M 152.40 164.15 L 152.06 165.06 C 151.75 165.87 152.16 166.77 152.96 167.07 C 153.77 167.38 154.67 166.97 154.98 166.17 L 155.32 165.25 C 155.63 164.44 155.22 163.54 154.42 163.24 C 153.61 162.93 152.71 163.34 152.40 164.15 Z M 152.06 165.06 L 151.69 166.02 C 151.39 166.83 151.79 167.73 152.60 168.04 C 153.40 168.34 154.30 167.94 154.61 167.13 L 154.98 166.17 C 155.28 165.36 154.88 164.46 154.07 164.15 C 153.27 163.85 152.36 164.25 152.06 165.06 Z M 151.69 166.02 L 151.31 167.02 C 151.00 167.83 151.40 168.73 152.20 169.04 C 153.00 169.35 153.91 168.95 154.22 168.15 L 154.61 167.14 C 154.92 166.34 154.52 165.43 153.71 165.12 C 152.91 164.81 152.00 165.21 151.69 166.02 Z M 151.31 167.01 L 150.96 167.89 C 150.65 168.69 151.04 169.60 151.84 169.91 C 152.64 170.23 153.55 169.84 153.87 169.04 L 154.21 168.16 C 154.53 167.36 154.14 166.45 153.34 166.13 C 152.53 165.81 151.63 166.21 151.31 167.01 Z M 150.97 167.88 L 150.61 168.77 C 150.29 169.57 150.67 170.48 151.47 170.81 C 152.27 171.13 153.18 170.74 153.50 169.94 L 153.86 169.05 C 154.19 168.25 153.80 167.34 153.00 167.01 C 152.20 166.69 151.29 167.08 150.97 167.88 Z M 150.61 168.77 L 150.23 169.69 C 149.91 170.49 150.29 171.40 151.09 171.72 C 151.89 172.05 152.80 171.67 153.12 170.87 L 153.50 169.95 C 153.83 169.15 153.44 168.24 152.65 167.91 C 151.85 167.59 150.94 167.97 150.61 168.77 Z M 150.24 169.68 L 149.84 170.64 C 149.51 171.44 149.89 172.35 150.69 172.68 C 151.49 173.01 152.40 172.62 152.73 171.83 L 153.12 170.87 C 153.45 170.08 153.07 169.16 152.27 168.84 C 151.48 168.51 150.56 168.89 150.24 169.68 Z M 149.84 170.64 L 149.44 171.62 C 149.11 172.42 149.48 173.33 150.28 173.66 C 151.08 173.99 151.99 173.61 152.32 172.82 L 152.73 171.83 C 153.06 171.03 152.68 170.12 151.88 169.79 C 151.09 169.46 150.17 169.84 149.84 170.64 Z M 149.44 171.62 L 149.09 172.47 C 148.75 173.26 149.13 174.18 149.93 174.51 C 150.72 174.84 151.64 174.46 151.97 173.66 L 152.32 172.82 C 152.65 172.02 152.27 171.11 151.48 170.78 C 150.68 170.45 149.77 170.82 149.44 171.62 Z M 149.09 172.46 L 148.72 173.34 C 148.39 174.13 148.77 175.05 149.56 175.38 C 150.36 175.71 151.27 175.33 151.61 174.54 L 151.97 173.66 C 152.30 172.87 151.92 171.95 151.13 171.62 C 150.33 171.29 149.42 171.67 149.09 172.46 Z M 148.72 173.34 L 148.35 174.24 C 148.01 175.03 148.39 175.95 149.19 176.28 C 149.98 176.61 150.90 176.24 151.23 175.44 L 151.61 174.54 C 151.94 173.74 151.56 172.83 150.76 172.50 C 149.97 172.16 149.05 172.54 148.72 173.34 Z M 148.35 174.24 L 147.96 175.17 C 147.62 175.97 148.00 176.88 148.79 177.22 C 149.59 177.55 150.50 177.17 150.84 176.38 L 151.23 175.44 C 151.56 174.65 151.18 173.73 150.39 173.40 C 149.59 173.07 148.68 173.44 148.35 174.24 Z M 147.96 175.17 L 147.55 176.15 C 147.22 176.94 147.59 177.86 148.39 178.19 C 149.18 178.52 150.10 178.15 150.43 177.35 L 150.84 176.38 C 151.17 175.58 150.79 174.67 150.00 174.34 C 149.20 174.00 148.29 174.38 147.96 175.17 Z M 147.55 176.15 L 147.13 177.15 C 146.79 177.95 147.17 178.86 147.96 179.20 C 148.76 179.53 149.67 179.15 150.01 178.36 L 150.43 177.35 C 150.76 176.56 150.39 175.64 149.59 175.31 C 148.80 174.98 147.88 175.35 147.55 176.15 Z M 147.13 177.15 L 146.76 178.03 C 146.42 178.82 146.80 179.74 147.59 180.07 C 148.39 180.40 149.30 180.03 149.64 179.24 L 150.01 178.36 C 150.34 177.57 149.97 176.65 149.17 176.32 C 148.38 175.98 147.46 176.36 147.13 177.15 Z M 146.76 178.02 L 146.38 178.92 C 146.04 179.72 146.42 180.63 147.21 180.97 C 148.00 181.30 148.92 180.93 149.26 180.14 L 149.64 179.24 C 149.97 178.45 149.60 177.53 148.81 177.19 C 148.01 176.86 147.10 177.23 146.76 178.02 Z M 146.38 178.92 L 145.99 179.83 C 145.65 180.63 146.02 181.54 146.82 181.88 C 147.61 182.22 148.53 181.85 148.86 181.06 L 149.25 180.14 C 149.59 179.35 149.22 178.43 148.43 178.09 C 147.64 177.76 146.72 178.12 146.38 178.92 Z M 145.99 179.83 L 145.59 180.76 C 145.25 181.55 145.62 182.47 146.41 182.81 C 147.20 183.15 148.12 182.79 148.46 181.99 L 148.86 181.06 C 149.20 180.27 148.84 179.35 148.05 179.01 C 147.25 178.67 146.34 179.04 145.99 179.83 Z M 145.60 180.75 L 145.19 181.68 C 144.84 182.47 145.20 183.40 145.99 183.74 C 146.78 184.09 147.70 183.73 148.05 182.94 L 148.46 182.00 C 148.80 181.21 148.44 180.29 147.65 179.94 C 146.86 179.60 145.94 179.96 145.60 180.75 Z M 145.19 181.68 L 144.78 182.61 C 144.43 183.40 144.78 184.32 145.57 184.67 C 146.36 185.02 147.28 184.67 147.63 183.88 L 148.04 182.94 C 148.40 182.16 148.04 181.23 147.25 180.88 C 146.46 180.53 145.54 180.89 145.19 181.68 Z M 144.78 182.60 L 144.36 183.53 C 144.00 184.32 144.35 185.24 145.14 185.60 C 145.92 185.95 146.85 185.61 147.20 184.82 L 147.62 183.89 C 147.98 183.11 147.63 182.18 146.85 181.82 C 146.06 181.47 145.14 181.82 144.78 182.60 Z M 144.36 183.52 L 143.94 184.44 C 143.58 185.22 143.92 186.15 144.70 186.51 C 145.48 186.87 146.41 186.53 146.77 185.75 L 147.20 184.83 C 147.56 184.05 147.22 183.12 146.44 182.76 C 145.66 182.40 144.73 182.74 144.36 183.52 Z M 143.94 184.42 L 143.51 185.33 C 143.14 186.11 143.48 187.04 144.25 187.41 C 145.03 187.78 145.97 187.45 146.33 186.67 L 146.77 185.76 C 147.14 184.98 146.80 184.05 146.02 183.68 C 145.25 183.31 144.31 183.64 143.94 184.42 Z M 143.52 185.32 L 143.08 186.21 C 142.71 186.99 143.03 187.92 143.81 188.30 C 144.58 188.68 145.51 188.36 145.89 187.58 L 146.33 186.68 C 146.71 185.91 146.38 184.97 145.61 184.60 C 144.83 184.22 143.90 184.54 143.52 185.32 Z M 143.09 186.20 L 142.65 187.09 C 142.26 187.87 142.58 188.80 143.35 189.19 C 144.12 189.57 145.06 189.26 145.44 188.49 L 145.89 187.59 C 146.27 186.82 145.96 185.88 145.18 185.50 C 144.41 185.12 143.47 185.43 143.09 186.20 Z M 142.65 187.08 L 142.20 187.97 C 141.81 188.74 142.12 189.68 142.88 190.07 C 143.65 190.46 144.59 190.15 144.98 189.39 L 145.44 188.50 C 145.83 187.73 145.52 186.79 144.75 186.40 C 143.98 186.01 143.04 186.31 142.65 187.08 Z M 142.21 187.96 L 141.75 188.84 C 141.35 189.60 141.65 190.55 142.41 190.95 C 143.17 191.34 144.12 191.05 144.52 190.28 L 144.98 189.40 C 145.37 188.63 145.08 187.69 144.31 187.29 C 143.55 186.89 142.61 187.19 142.21 187.96 Z M 141.75 188.83 L 141.28 189.71 C 140.88 190.47 141.17 191.42 141.93 191.82 C 142.69 192.23 143.63 191.94 144.04 191.18 L 144.51 190.29 C 144.91 189.53 144.63 188.59 143.87 188.18 C 143.10 187.78 142.16 188.07 141.75 188.83 Z M 141.29 189.70 L 140.82 190.57 C 140.40 191.33 140.68 192.27 141.44 192.69 C 142.20 193.10 143.15 192.82 143.56 192.06 L 144.03 191.19 C 144.44 190.43 144.16 189.48 143.41 189.07 C 142.65 188.66 141.70 188.94 141.29 189.70 Z M 140.82 190.56 L 140.34 191.42 C 139.92 192.18 140.19 193.13 140.95 193.55 C 141.70 193.97 142.65 193.69 143.07 192.94 L 143.55 192.07 C 143.97 191.32 143.70 190.37 142.94 189.95 C 142.19 189.53 141.24 189.80 140.82 190.56 Z M 140.35 191.41 L 139.86 192.28 C 139.43 193.03 139.69 193.98 140.45 194.41 C 141.20 194.83 142.15 194.57 142.57 193.82 L 143.06 192.95 C 143.49 192.20 143.22 191.25 142.47 190.82 C 141.72 190.40 140.77 190.66 140.35 191.41 Z M 139.86 192.27 L 139.36 193.14 C 138.93 193.89 139.19 194.84 139.94 195.27 C 140.68 195.70 141.64 195.44 142.07 194.70 L 142.57 193.83 C 143.00 193.08 142.74 192.13 141.99 191.70 C 141.25 191.27 140.29 191.52 139.86 192.27 Z M 139.37 193.13 L 138.86 193.99 C 138.43 194.74 138.68 195.69 139.42 196.13 C 140.16 196.57 141.12 196.31 141.56 195.57 L 142.06 194.70 C 142.50 193.96 142.25 193.00 141.50 192.57 C 140.76 192.13 139.80 192.38 139.37 193.13 Z M 138.87 193.99 L 138.35 194.85 C 137.91 195.59 138.16 196.55 138.90 196.99 C 139.64 197.43 140.60 197.19 141.04 196.44 L 141.55 195.58 C 141.99 194.84 141.75 193.88 141.01 193.44 C 140.26 193.00 139.31 193.24 138.87 193.99 Z M 138.36 194.84 L 137.84 195.70 C 137.39 196.44 137.63 197.40 138.37 197.85 C 139.11 198.29 140.07 198.05 140.51 197.31 L 141.03 196.45 C 141.48 195.71 141.24 194.75 140.50 194.31 C 139.76 193.86 138.80 194.10 138.36 194.84 Z M 137.84 195.70 L 137.32 196.56 C 136.87 197.29 137.10 198.25 137.84 198.70 C 138.58 199.15 139.54 198.92 139.99 198.18 L 140.51 197.32 C 140.96 196.59 140.73 195.62 139.99 195.18 C 139.25 194.73 138.29 194.96 137.84 195.70 Z M 137.32 196.55 L 136.80 197.40 C 136.34 198.14 136.57 199.10 137.31 199.55 C 138.04 200.01 139.00 199.78 139.45 199.04 L 139.98 198.19 C 140.43 197.45 140.21 196.49 139.47 196.04 C 138.74 195.59 137.78 195.82 137.32 196.55 Z M 136.80 197.40 L 136.27 198.25 C 135.81 198.98 136.03 199.94 136.76 200.40 C 137.50 200.86 138.46 200.63 138.92 199.90 L 139.45 199.05 C 139.91 198.32 139.68 197.36 138.95 196.90 C 138.22 196.44 137.26 196.66 136.80 197.40 Z M 136.28 198.24 L 135.74 199.08 C 135.27 199.81 135.49 200.78 136.22 201.24 C 136.94 201.70 137.91 201.49 138.37 200.76 L 138.91 199.91 C 139.37 199.19 139.16 198.22 138.43 197.76 C 137.70 197.29 136.74 197.51 136.28 198.24 Z M 135.74 199.07 L 135.20 199.91 C 134.73 200.64 134.94 201.60 135.66 202.07 C 136.39 202.54 137.35 202.33 137.82 201.61 L 138.36 200.77 C 138.83 200.05 138.63 199.08 137.90 198.61 C 137.18 198.14 136.21 198.35 135.74 199.07 Z M 135.21 199.90 L 134.66 200.73 C 134.18 201.45 134.38 202.42 135.10 202.90 C 135.82 203.37 136.79 203.17 137.26 202.45 L 137.81 201.62 C 138.29 200.90 138.09 199.93 137.37 199.46 C 136.65 198.98 135.68 199.18 135.21 199.90 Z M 134.67 200.72 L 134.11 201.54 C 133.63 202.26 133.81 203.23 134.53 203.71 C 135.24 204.20 136.21 204.01 136.70 203.29 L 137.25 202.47 C 137.74 201.75 137.55 200.78 136.83 200.30 C 136.12 199.82 135.15 200.01 134.67 200.72 Z M 134.12 201.53 L 133.55 202.35 C 133.06 203.06 133.24 204.03 133.95 204.52 C 134.66 205.01 135.63 204.83 136.12 204.12 L 136.69 203.31 C 137.18 202.60 137.00 201.63 136.29 201.14 C 135.58 200.64 134.61 200.82 134.12 201.53 Z M 133.56 202.33 L 132.98 203.15 C 132.48 203.86 132.65 204.83 133.35 205.33 C 134.05 205.83 135.03 205.66 135.53 204.96 L 136.11 204.14 C 136.61 203.44 136.44 202.46 135.74 201.96 C 135.04 201.46 134.06 201.63 133.56 202.33 Z M 132.99 203.14 L 132.40 203.95 C 131.89 204.65 132.05 205.63 132.75 206.13 C 133.45 206.64 134.42 206.48 134.93 205.79 L 135.52 204.97 C 136.02 204.28 135.87 203.30 135.17 202.79 C 134.47 202.29 133.50 202.44 132.99 203.14 Z M 132.41 203.94 L 131.81 204.75 C 131.30 205.44 131.45 206.42 132.14 206.93 C 132.83 207.44 133.81 207.30 134.32 206.60 L 134.92 205.80 C 135.43 205.10 135.29 204.13 134.59 203.61 C 133.90 203.10 132.92 203.25 132.41 203.94 Z M 131.82 204.74 L 131.22 205.53 C 130.70 206.22 130.84 207.20 131.53 207.72 C 132.22 208.24 133.20 208.10 133.72 207.41 L 134.32 206.61 C 134.84 205.92 134.70 204.94 134.01 204.43 C 133.32 203.91 132.34 204.05 131.82 204.74 Z M 131.23 205.53 L 130.62 206.32 C 130.10 207.01 130.23 207.99 130.92 208.51 C 131.61 209.03 132.59 208.90 133.11 208.21 L 133.71 207.42 C 134.23 206.73 134.10 205.75 133.41 205.23 C 132.73 204.71 131.75 204.84 131.23 205.53 Z M 130.63 206.32 L 130.02 207.11 C 129.50 207.79 129.63 208.77 130.31 209.30 C 130.99 209.82 131.97 209.69 132.50 209.01 L 133.11 208.22 C 133.63 207.53 133.50 206.55 132.82 206.03 C 132.13 205.50 131.15 205.63 130.63 206.32 Z M 130.02 207.10 L 129.42 207.89 C 128.89 208.58 129.02 209.56 129.70 210.08 C 130.38 210.61 131.36 210.48 131.89 209.80 L 132.50 209.01 C 133.02 208.33 132.90 207.35 132.21 206.82 C 131.53 206.29 130.55 206.42 130.02 207.10 Z M 129.42 207.89 L 129.31 208.04 C 128.78 208.72 128.91 209.70 129.59 210.23 C 130.27 210.75 131.25 210.63 131.78 209.94 L 131.89 209.80 C 132.42 209.12 132.29 208.14 131.61 207.61 C 130.92 207.08 129.94 207.21 129.42 207.89 Z"
      fill="black"
      fill-rule="nonzero" /></svg>