<svg xmlns="http://www.w3.org/2000/svg" width="300" height="300" viewBox="0 0 300 300">
<path d="M 153.33 152.17 L 152.78 151.30 C 152.33 150.57 151.36 150.34 150.63 150.80 C 149.90 151.26 149.68 152.22 150.13 152.95 L 150.68 153.82 C 151.14 154.55 152.10 154.78 152.83 154.32 C 153.56 153.86 153.78 152.90 153.33 152.17 Z M 152.82 151.36 L 152.32 150.48 C 151.90 149.73 150.95 149.46 150.20 149.89 C 149.44 150.31 149.18 151.26 149.60 152.01 L 150.10 152.89 C 150.52 153.64 151.48 153.91 152.23 153.48 C 152.98 153.06 153.24 152.11 152.82 151.36 Z M 152.39 150.61 L 151.99 149.72 C 151.64 148.93 150.72 148.58 149.93 148.93 C 149.14 149.28 148.79 150.20 149.14 150.99 L 149.54 151.88 C 149.89 152.67 150.81 153.02 151.60 152.67 C 152.39 152.32 152.74 151.40 152.39 150.61 Z M 152.07 149.94 L 151.81 148.99 C 151.58 148.16 150.72 147.67 149.89 147.90 C 149.06 148.13 148.57 148.99 148.80 149.82 L 149.06 150.77 C 149.29 151.60 150.15 152.09 150.98 151.86 C 151.81 151.63 152.30 150.77 152.07 149.94 Z M 151.86 149.24 L 151.75 148.25 C 151.66 147.39 150.89 146.77 150.04 146.86 C 149.18 146.95 148.56 147.72 148.65 148.58 L 148.75 149.57 C 148.84 150.42 149.61 151.05 150.47 150.96 C 151.32 150.87 151.95 150.10 151.86 149.24 Z M 151.76 148.46 L 151.79 147.46 C 151.81 146.60 151.13 145.88 150.27 145.86 C 149.41 145.83 148.69 146.51 148.67 147.37 L 148.64 148.37 C 148.61 149.23 149.29 149.95 150.15 149.97 C 151.01 150.00 151.73 149.32 151.76 148.46 Z M 151.78 147.62 L 151.90 146.63 C 152.01 145.78 151.41 145.00 150.55 144.89 C 149.70 144.78 148.91 145.38 148.80 146.24 L 148.68 147.22 C 148.57 148.07 149.17 148.85 150.03 148.96 C 150.88 149.07 151.67 148.47 151.78 147.62 Z M 151.88 146.74 L 152.08 145.77 C 152.25 144.93 151.70 144.10 150.85 143.93 C 150.01 143.77 149.18 144.31 149.02 145.16 L 148.82 146.13 C 148.65 146.97 149.20 147.80 150.05 147.96 C 150.89 148.13 151.72 147.59 151.88 146.74 Z M 152.06 145.84 L 152.30 144.86 C 152.51 144.03 152.00 143.18 151.16 142.97 C 150.32 142.77 149.48 143.28 149.27 144.12 L 149.03 145.09 C 148.82 145.93 149.34 146.78 150.17 146.98 C 151.01 147.19 151.86 146.68 152.06 145.84 Z M 152.29 144.89 L 152.56 143.92 C 152.78 143.09 152.28 142.23 151.45 142.01 C 150.62 141.78 149.76 142.28 149.54 143.11 L 149.28 144.09 C 149.06 144.92 149.55 145.78 150.38 146.00 C 151.22 146.22 152.07 145.73 152.29 144.89 Z M 152.55 143.93 L 152.81 142.97 C 153.04 142.14 152.55 141.28 151.72 141.06 C 150.89 140.83 150.03 141.32 149.80 142.15 L 149.54 143.10 C 149.31 143.94 149.80 144.79 150.64 145.02 C 151.47 145.25 152.33 144.76 152.55 143.93 Z M 152.81 142.98 L 153.08 142.02 C 153.31 141.19 152.83 140.33 152.00 140.09 C 151.17 139.86 150.31 140.34 150.08 141.17 L 149.80 142.14 C 149.57 142.97 150.06 143.83 150.89 144.07 C 151.72 144.30 152.58 143.81 152.81 142.98 Z M 153.08 142.03 L 153.36 141.06 C 153.60 140.23 153.12 139.36 152.30 139.12 C 151.47 138.88 150.60 139.36 150.36 140.19 L 150.08 141.16 C 149.84 141.99 150.32 142.85 151.14 143.09 C 151.97 143.34 152.84 142.86 153.08 142.03 Z M 153.35 141.08 L 153.66 140.10 C 153.91 139.28 153.45 138.40 152.63 138.15 C 151.80 137.89 150.93 138.35 150.67 139.18 L 150.37 140.16 C 150.12 140.98 150.58 141.86 151.40 142.11 C 152.22 142.37 153.10 141.91 153.35 141.08 Z M 153.63 140.17 L 153.98 139.22 C 154.27 138.41 153.86 137.52 153.05 137.22 C 152.24 136.93 151.34 137.34 151.04 138.15 L 150.70 139.10 C 150.40 139.91 150.82 140.81 151.63 141.11 C 152.44 141.40 153.34 140.98 153.63 140.17 Z M 153.92 139.36 L 154.34 138.48 C 154.71 137.70 154.38 136.77 153.60 136.40 C 152.83 136.03 151.89 136.36 151.52 137.13 L 151.10 138.02 C 150.73 138.79 151.06 139.73 151.84 140.10 C 152.62 140.47 153.55 140.14 153.92 139.36 Z M 154.21 138.70 L 154.86 137.78 C 155.35 137.08 155.18 136.11 154.48 135.61 C 153.77 135.11 152.80 135.28 152.30 135.99 L 151.66 136.91 C 151.16 137.61 151.33 138.59 152.03 139.08 C 152.74 139.58 153.71 139.41 154.21 138.70 Z M 154.51 138.14 L 155.32 137.54 C 156.01 137.02 156.15 136.04 155.64 135.35 C 155.12 134.66 154.14 134.52 153.45 135.03 L 152.65 135.63 C 151.95 136.15 151.81 137.13 152.33 137.82 C 152.84 138.51 153.82 138.65 154.51 138.14 Z M 153.93 137.78 L 154.58 137.98 C 155.40 138.23 156.28 137.76 156.53 136.94 C 156.78 136.11 156.31 135.24 155.49 134.99 L 154.84 134.79 C 154.01 134.54 153.14 135.01 152.89 135.83 C 152.64 136.66 153.11 137.53 153.93 137.78 Z M 153.60 137.10 L 153.89 137.77 C 154.23 138.56 155.15 138.93 155.94 138.58 C 156.73 138.24 157.09 137.32 156.75 136.53 L 156.47 135.86 C 156.12 135.07 155.21 134.71 154.41 135.05 C 153.62 135.39 153.26 136.31 153.60 137.10 Z M 153.78 137.44 L 153.97 138.42 C 154.13 139.27 154.94 139.83 155.79 139.67 C 156.64 139.51 157.20 138.70 157.04 137.85 L 156.85 136.87 C 156.70 136.02 155.88 135.46 155.04 135.62 C 154.19 135.77 153.63 136.59 153.78 137.44 Z M 153.95 138.28 L 154.06 139.44 C 154.13 140.30 154.89 140.93 155.75 140.85 C 156.61 140.77 157.24 140.01 157.16 139.15 L 157.06 137.99 C 156.98 137.14 156.22 136.50 155.36 136.58 C 154.50 136.66 153.87 137.42 153.95 138.28 Z M 154.05 139.37 L 154.11 140.53 C 154.15 141.39 154.88 142.06 155.75 142.01 C 156.61 141.97 157.27 141.24 157.23 140.38 L 157.17 139.22 C 157.13 138.36 156.39 137.69 155.53 137.74 C 154.67 137.78 154.01 138.51 154.05 139.37 Z M 154.11 140.49 L 154.13 141.54 C 154.15 142.40 154.87 143.08 155.73 143.06 C 156.59 143.04 157.27 142.32 157.25 141.46 L 157.23 140.42 C 157.21 139.56 156.49 138.87 155.63 138.89 C 154.77 138.91 154.09 139.63 154.11 140.49 Z M 154.13 141.47 L 154.11 142.47 C 154.10 143.33 154.79 144.04 155.65 144.06 C 156.51 144.07 157.22 143.38 157.24 142.52 L 157.25 141.52 C 157.27 140.66 156.58 139.95 155.72 139.94 C 154.86 139.92 154.15 140.61 154.13 141.47 Z M 154.12 142.38 L 154.05 143.35 C 153.98 144.21 154.63 144.96 155.49 145.02 C 156.35 145.08 157.10 144.44 157.16 143.58 L 157.23 142.61 C 157.30 141.75 156.65 141.00 155.79 140.94 C 154.93 140.88 154.18 141.52 154.12 142.38 Z M 154.06 143.23 L 153.92 144.19 C 153.79 145.04 154.38 145.84 155.24 145.96 C 156.09 146.09 156.88 145.50 157.01 144.64 L 157.15 143.69 C 157.27 142.84 156.69 142.04 155.83 141.92 C 154.98 141.79 154.19 142.38 154.06 143.23 Z M 153.94 144.07 L 153.72 145.05 C 153.52 145.89 154.05 146.73 154.89 146.92 C 155.73 147.12 156.57 146.59 156.76 145.75 L 156.99 144.77 C 157.18 143.93 156.65 143.09 155.81 142.90 C 154.97 142.70 154.14 143.23 153.94 144.07 Z M 153.74 144.95 L 153.45 145.92 C 153.21 146.75 153.67 147.62 154.50 147.86 C 155.33 148.11 156.20 147.64 156.44 146.82 L 156.73 145.85 C 156.98 145.03 156.51 144.16 155.69 143.91 C 154.86 143.66 153.99 144.13 153.74 144.95 Z M 153.48 145.85 L 153.14 146.79 C 152.86 147.60 153.28 148.49 154.09 148.78 C 154.91 149.07 155.80 148.64 156.09 147.83 L 156.42 146.89 C 156.71 146.08 156.28 145.19 155.47 144.90 C 154.66 144.61 153.76 145.03 153.48 145.85 Z M 153.16 146.74 L 152.80 147.65 C 152.49 148.46 152.88 149.36 153.68 149.68 C 154.48 149.99 155.39 149.60 155.71 148.80 L 156.07 147.88 C 156.38 147.08 155.99 146.17 155.19 145.85 C 154.38 145.54 153.48 145.93 153.16 146.74 Z M 152.82 147.61 L 152.42 148.53 C 152.08 149.33 152.45 150.24 153.24 150.58 C 154.04 150.92 154.95 150.56 155.29 149.76 L 155.69 148.84 C 156.03 148.05 155.66 147.13 154.87 146.79 C 154.08 146.45 153.16 146.82 152.82 147.61 Z M 152.45 148.47 L 152.02 149.36 C 151.65 150.14 151.98 151.07 152.76 151.45 C 153.53 151.82 154.47 151.49 154.84 150.71 L 155.27 149.82 C 155.64 149.05 155.31 148.11 154.53 147.74 C 153.76 147.37 152.82 147.70 152.45 148.47 Z M 152.06 149.29 L 151.58 150.16 C 151.17 150.92 151.45 151.87 152.20 152.28 C 152.96 152.70 153.91 152.42 154.32 151.66 L 154.80 150.79 C 155.21 150.03 154.94 149.09 154.18 148.67 C 153.43 148.26 152.48 148.53 152.06 149.29 Z M 151.63 150.08 L 151.09 150.94 C 150.63 151.67 150.84 152.63 151.57 153.09 C 152.30 153.55 153.26 153.34 153.73 152.61 L 154.27 151.75 C 154.73 151.02 154.52 150.06 153.79 149.59 C 153.06 149.13 152.10 149.35 151.63 150.08 Z M 151.16 150.84 L 150.54 151.66 C 150.02 152.35 150.17 153.33 150.86 153.85 C 151.55 154.36 152.52 154.22 153.04 153.53 L 153.66 152.71 C 154.17 152.02 154.03 151.04 153.34 150.52 C 152.65 150.01 151.67 150.15 151.16 150.84 Z M 150.65 151.53 L 149.96 152.27 C 149.38 152.90 149.41 153.89 150.04 154.48 C 150.67 155.06 151.66 155.03 152.25 154.40 L 152.93 153.66 C 153.52 153.03 153.49 152.04 152.85 151.45 C 152.22 150.87 151.24 150.90 150.65 151.53 Z M 150.13 152.11 L 149.39 152.71 C 148.71 153.24 148.60 154.22 149.13 154.90 C 149.67 155.57 150.65 155.69 151.33 155.15 L 152.08 154.55 C 152.75 154.02 152.86 153.04 152.33 152.36 C 151.79 151.69 150.81 151.57 150.13 152.11 Z M 149.69 152.52 L 148.71 152.98 C 147.93 153.35 147.59 154.28 147.96 155.06 C 148.33 155.84 149.26 156.17 150.04 155.80 L 151.02 155.34 C 151.80 154.97 152.14 154.04 151.77 153.26 C 151.40 152.48 150.47 152.15 149.69 152.52 Z M 149.19 152.84 L 148.20 152.96 C 147.34 153.07 146.73 153.85 146.84 154.70 C 146.94 155.56 147.72 156.17 148.58 156.06 L 149.56 155.94 C 150.42 155.84 151.03 155.06 150.92 154.20 C 150.82 153.35 150.04 152.74 149.19 152.84 Z M 148.88 153.03 L 148.04 152.75 C 147.22 152.47 146.34 152.91 146.06 153.73 C 145.79 154.55 146.23 155.43 147.05 155.71 L 147.89 155.99 C 148.71 156.27 149.59 155.83 149.87 155.01 C 150.14 154.19 149.70 153.31 148.88 153.03 Z M 148.70 153.18 L 148.17 152.60 C 147.59 151.96 146.60 151.91 145.97 152.49 C 145.33 153.08 145.28 154.06 145.86 154.70 L 146.39 155.28 C 146.97 155.92 147.95 155.96 148.59 155.38 C 149.23 154.80 149.28 153.82 148.70 153.18 Z M 148.45 153.04 L 148.09 152.19 C 147.75 151.40 146.83 151.03 146.04 151.37 C 145.25 151.71 144.88 152.62 145.22 153.42 L 145.58 154.26 C 145.92 155.06 146.84 155.42 147.63 155.09 C 148.42 154.75 148.79 153.83 148.45 153.04 Z M 148.18 152.46 L 147.94 151.38 C 147.75 150.54 146.91 150.01 146.07 150.20 C 145.23 150.39 144.70 151.23 144.89 152.07 L 145.13 153.15 C 145.32 153.99 146.16 154.52 147.00 154.33 C 147.84 154.14 148.37 153.30 148.18 152.46 Z M 147.96 151.53 L 147.82 150.40 C 147.71 149.54 146.92 148.94 146.07 149.05 C 145.21 149.16 144.61 149.94 144.72 150.80 L 144.86 151.92 C 144.97 152.78 145.76 153.38 146.61 153.27 C 147.47 153.16 148.07 152.38 147.96 151.53 Z M 147.82 150.47 L 147.74 149.50 C 147.67 148.64 146.92 148.00 146.06 148.07 C 145.20 148.15 144.56 148.90 144.63 149.76 L 144.71 150.73 C 144.78 151.59 145.54 152.22 146.40 152.15 C 147.26 152.08 147.89 151.33 147.82 150.47 Z M 147.75 149.54 L 147.69 148.53 C 147.64 147.67 146.90 147.01 146.04 147.06 C 145.18 147.11 144.52 147.85 144.57 148.71 L 144.63 149.72 C 144.68 150.58 145.41 151.24 146.28 151.19 C 147.14 151.14 147.79 150.40 147.75 149.54 Z M 147.69 148.56 L 147.65 147.53 C 147.62 146.67 146.89 146.00 146.03 146.03 C 145.17 146.06 144.50 146.79 144.53 147.65 L 144.57 148.68 C 144.60 149.54 145.33 150.21 146.19 150.18 C 147.05 150.15 147.72 149.42 147.69 148.56 Z M 147.65 147.55 L 147.63 146.53 C 147.60 145.67 146.89 144.99 146.03 145.01 C 145.16 145.03 144.48 145.75 144.50 146.61 L 144.53 147.63 C 144.55 148.49 145.27 149.17 146.13 149.15 C 146.99 149.13 147.67 148.41 147.65 147.55 Z M 147.63 146.55 L 147.61 145.52 C 147.60 144.66 146.89 143.97 146.02 143.98 C 145.16 144.00 144.47 144.71 144.49 145.57 L 144.50 146.60 C 144.52 147.46 145.23 148.15 146.09 148.13 C 146.95 148.12 147.64 147.41 147.63 146.55 Z M 147.61 145.53 L 147.60 144.45 C 147.59 143.59 146.89 142.89 146.03 142.90 C 145.17 142.91 144.47 143.61 144.48 144.47 L 144.49 145.56 C 144.49 146.42 145.20 147.11 146.06 147.11 C 146.92 147.10 147.62 146.40 147.61 145.53 Z M 147.60 144.47 L 147.61 143.45 C 147.62 142.59 146.93 141.89 146.06 141.88 C 145.20 141.87 144.50 142.56 144.49 143.43 L 144.48 144.45 C 144.47 145.31 145.16 146.01 146.03 146.02 C 146.89 146.03 147.59 145.34 147.60 144.47 Z M 147.61 143.50 L 147.64 142.54 C 147.68 141.67 147.00 140.95 146.14 140.92 C 145.28 140.89 144.56 141.56 144.52 142.42 L 144.49 143.38 C 144.46 144.25 145.13 144.97 145.99 145.00 C 146.85 145.03 147.58 144.36 147.61 143.50 Z M 147.64 142.60 L 147.71 141.69 C 147.77 140.83 147.13 140.08 146.27 140.01 C 145.41 139.95 144.66 140.59 144.60 141.45 L 144.53 142.36 C 144.46 143.22 145.11 143.97 145.97 144.04 C 146.83 144.10 147.58 143.46 147.64 142.60 Z M 147.70 141.77 L 147.83 140.76 C 147.94 139.90 147.34 139.12 146.49 139.01 C 145.63 138.90 144.85 139.50 144.74 140.36 L 144.60 141.37 C 144.49 142.22 145.10 143.01 145.95 143.12 C 146.81 143.23 147.59 142.63 147.70 141.77 Z M 147.82 140.86 L 148.01 139.88 C 148.18 139.03 147.63 138.21 146.78 138.04 C 145.93 137.88 145.11 138.43 144.95 139.27 L 144.75 140.25 C 144.59 141.10 145.14 141.92 145.98 142.09 C 146.83 142.26 147.65 141.70 147.82 140.86 Z M 147.99 139.98 L 148.24 139.03 C 148.46 138.20 147.97 137.34 147.14 137.12 C 146.30 136.90 145.45 137.39 145.22 138.22 L 144.97 139.17 C 144.75 140.00 145.24 140.86 146.07 141.08 C 146.91 141.31 147.76 140.81 147.99 139.98 Z M 148.21 139.13 L 148.53 138.19 C 148.81 137.37 148.37 136.48 147.55 136.21 C 146.74 135.93 145.85 136.37 145.57 137.18 L 145.25 138.12 C 144.98 138.94 145.41 139.83 146.23 140.10 C 147.05 140.38 147.93 139.94 148.21 139.13 Z M 148.49 138.29 L 148.89 137.34 C 149.23 136.54 148.86 135.63 148.07 135.29 C 147.27 134.95 146.36 135.32 146.02 136.12 L 145.61 137.07 C 145.28 137.87 145.65 138.79 146.44 139.12 C 147.24 139.46 148.15 139.09 148.49 138.29 Z M 148.82 137.49 L 149.31 136.62 C 149.73 135.86 149.47 134.91 148.72 134.49 C 147.96 134.07 147.01 134.33 146.59 135.08 L 146.10 135.96 C 145.67 136.71 145.94 137.67 146.69 138.09 C 147.44 138.51 148.40 138.24 148.82 137.49 Z M 149.17 136.83 L 149.76 136.09 C 150.30 135.41 150.20 134.43 149.52 133.89 C 148.85 133.35 147.87 133.46 147.33 134.13 L 146.73 134.87 C 146.19 135.54 146.30 136.53 146.97 137.07 C 147.65 137.61 148.63 137.50 149.17 136.83 Z M 149.47 136.36 L 150.36 135.71 C 151.05 135.20 151.20 134.22 150.68 133.53 C 150.17 132.83 149.19 132.69 148.50 133.20 L 147.62 133.85 C 146.93 134.37 146.78 135.34 147.29 136.04 C 147.80 136.73 148.78 136.88 149.47 136.36 Z M 149.88 135.95 L 150.83 135.66 C 151.66 135.42 152.13 134.55 151.88 133.72 C 151.63 132.90 150.76 132.43 149.94 132.67 L 148.98 132.96 C 148.16 133.21 147.69 134.08 147.93 134.90 C 148.18 135.73 149.05 136.20 149.88 135.95 Z M 150.01 135.68 L 150.80 135.88 C 151.64 136.09 152.49 135.57 152.69 134.74 C 152.90 133.90 152.39 133.05 151.55 132.85 L 150.76 132.65 C 149.92 132.45 149.08 132.96 148.87 133.80 C 148.66 134.63 149.17 135.48 150.01 135.68 Z M 149.91 135.28 L 150.40 135.96 C 150.91 136.65 151.89 136.81 152.59 136.30 C 153.28 135.79 153.44 134.82 152.93 134.12 L 152.44 133.45 C 151.93 132.75 150.95 132.59 150.26 133.10 C 149.56 133.61 149.41 134.59 149.91 135.28 Z M 150.15 135.40 L 150.40 136.43 C 150.60 137.27 151.44 137.79 152.28 137.59 C 153.12 137.38 153.63 136.54 153.43 135.70 L 153.19 134.67 C 152.98 133.84 152.14 133.32 151.30 133.52 C 150.46 133.72 149.95 134.56 150.15 135.40 Z M 150.36 136.16 L 150.42 137.21 C 150.47 138.07 151.21 138.73 152.07 138.67 C 152.93 138.62 153.59 137.88 153.54 137.02 L 153.47 135.97 C 153.42 135.11 152.68 134.46 151.82 134.51 C 150.96 134.56 150.30 135.30 150.36 136.16 Z M 150.42 137.07 L 150.39 137.97 C 150.36 138.83 151.04 139.55 151.90 139.58 C 152.76 139.60 153.48 138.93 153.51 138.06 L 153.54 137.16 C 153.56 136.30 152.89 135.58 152.02 135.55 C 151.16 135.53 150.44 136.21 150.42 137.07 Z M 150.40 137.87 L 150.30 138.85 C 150.22 139.70 150.85 140.47 151.71 140.55 C 152.56 140.63 153.33 140.00 153.41 139.14 L 153.50 138.17 C 153.59 137.31 152.96 136.55 152.10 136.46 C 151.24 136.38 150.48 137.01 150.40 137.87 Z M 150.31 138.76 L 150.15 139.83 C 150.02 140.69 150.61 141.48 151.46 141.61 C 152.32 141.74 153.11 141.15 153.24 140.30 L 153.40 139.23 C 153.53 138.37 152.94 137.58 152.09 137.45 C 151.23 137.32 150.44 137.91 150.31 138.76 Z M 150.16 139.77 L 149.96 140.84 C 149.80 141.68 150.35 142.50 151.20 142.66 C 152.05 142.83 152.86 142.27 153.03 141.42 L 153.23 140.36 C 153.39 139.51 152.83 138.69 151.99 138.53 C 151.14 138.37 150.32 138.93 150.16 139.77 Z M 149.97 140.79 L 149.75 141.78 C 149.56 142.62 150.10 143.45 150.94 143.64 C 151.78 143.83 152.61 143.29 152.80 142.45 L 153.02 141.47 C 153.20 140.62 152.67 139.79 151.83 139.61 C 150.99 139.42 150.15 139.95 149.97 140.79 Z M 149.76 141.74 L 149.51 142.75 C 149.30 143.58 149.82 144.43 150.65 144.64 C 151.49 144.84 152.34 144.33 152.54 143.49 L 152.79 142.49 C 153.00 141.65 152.49 140.81 151.65 140.60 C 150.81 140.39 149.97 140.90 149.76 141.74 Z M 149.52 142.71 L 149.25 143.70 C 149.02 144.53 149.51 145.39 150.34 145.62 C 151.17 145.85 152.03 145.36 152.26 144.53 L 152.53 143.53 C 152.76 142.70 152.27 141.84 151.44 141.62 C 150.61 141.39 149.75 141.88 149.52 142.71 Z M 149.26 143.66 L 148.97 144.60 C 148.72 145.42 149.18 146.30 150.01 146.55 C 150.83 146.80 151.71 146.34 151.96 145.51 L 152.25 144.57 C 152.50 143.75 152.04 142.87 151.21 142.62 C 150.39 142.37 149.51 142.83 149.26 143.66 Z M 148.99 144.54 L 148.61 145.61 C 148.32 146.43 148.75 147.32 149.56 147.61 C 150.37 147.90 151.27 147.47 151.55 146.66 L 151.94 145.58 C 152.22 144.77 151.80 143.87 150.99 143.59 C 150.17 143.30 149.28 143.72 148.99 144.54 Z M 148.66 145.48 L 148.13 146.65 C 147.77 147.44 148.11 148.36 148.90 148.72 C 149.68 149.08 150.61 148.74 150.97 147.95 L 151.50 146.79 C 151.86 146.00 151.52 145.08 150.73 144.72 C 149.95 144.36 149.02 144.70 148.66 145.48 Z M 148.35 146.30 L 147.88 146.86 C 147.33 147.52 147.42 148.51 148.08 149.06 C 148.75 149.61 149.73 149.52 150.28 148.86 L 150.75 148.30 C 151.30 147.64 151.21 146.66 150.55 146.10 C 149.88 145.55 148.90 145.64 148.35 146.30 Z M 149.99 146.59 L 149.67 146.36 C 148.97 145.86 147.99 146.02 147.49 146.72 C 146.99 147.42 147.15 148.40 147.85 148.90 L 148.18 149.13 C 148.88 149.63 149.85 149.47 150.35 148.77 C 150.86 148.06 150.69 147.09 149.99 146.59 Z M 150.29 147.34 L 150.12 146.44 C 149.96 145.59 149.15 145.03 148.30 145.19 C 147.45 145.36 146.90 146.17 147.06 147.02 L 147.23 147.92 C 147.39 148.77 148.21 149.32 149.05 149.16 C 149.90 149.00 150.46 148.18 150.29 147.34 Z M 150.15 146.66 L 150.10 145.44 C 150.06 144.57 149.34 143.90 148.47 143.94 C 147.61 143.98 146.94 144.70 146.98 145.57 L 147.03 146.79 C 147.07 147.66 147.79 148.32 148.65 148.29 C 149.52 148.25 150.19 147.53 150.15 146.66 Z M 150.10 145.55 L 150.13 144.41 C 150.16 143.55 149.48 142.83 148.62 142.80 C 147.76 142.78 147.04 143.46 147.01 144.32 L 146.98 145.45 C 146.95 146.32 147.63 147.04 148.49 147.06 C 149.35 147.09 150.07 146.41 150.10 145.55 Z M 150.13 144.51 L 150.22 143.50 C 150.30 142.64 149.67 141.88 148.81 141.80 C 147.95 141.72 147.19 142.35 147.11 143.21 L 147.02 144.22 C 146.94 145.08 147.57 145.84 148.43 145.92 C 149.29 146.00 150.05 145.37 150.13 144.51 Z M 150.21 143.60 L 150.36 142.65 C 150.49 141.79 149.91 141.00 149.06 140.86 C 148.21 140.73 147.41 141.31 147.27 142.16 L 147.12 143.11 C 146.99 143.97 147.57 144.77 148.42 144.90 C 149.28 145.03 150.08 144.45 150.21 143.60 Z M 150.34 142.74 L 150.55 141.79 C 150.73 140.95 150.20 140.12 149.35 139.94 C 148.51 139.75 147.68 140.29 147.50 141.13 L 147.29 142.07 C 147.11 142.91 147.64 143.75 148.48 143.93 C 149.33 144.11 150.16 143.58 150.34 142.74 Z M 150.52 141.89 L 150.79 140.93 C 151.03 140.10 150.54 139.24 149.71 139.01 C 148.88 138.77 148.02 139.26 147.79 140.09 L 147.52 141.04 C 147.28 141.87 147.77 142.73 148.60 142.96 C 149.43 143.20 150.29 142.72 150.52 141.89 Z M 150.76 141.03 L 151.10 140.09 C 151.39 139.28 150.96 138.38 150.15 138.09 C 149.34 137.81 148.44 138.23 148.15 139.04 L 147.82 139.99 C 147.53 140.80 147.95 141.69 148.77 141.98 C 149.58 142.27 150.47 141.85 150.76 141.03 Z M 151.06 140.19 L 151.46 139.27 C 151.81 138.48 151.45 137.56 150.66 137.21 C 149.87 136.86 148.95 137.22 148.60 138.01 L 148.20 138.94 C 147.85 139.73 148.21 140.65 149.00 141.00 C 149.79 141.34 150.71 140.98 151.06 140.19 Z M 151.40 139.39 L 151.88 138.50 C 152.30 137.75 152.02 136.80 151.26 136.39 C 150.50 135.97 149.55 136.25 149.14 137.01 L 148.66 137.89 C 148.25 138.65 148.53 139.60 149.29 140.01 C 150.04 140.42 150.99 140.14 151.40 139.39 Z M 151.78 138.67 L 152.36 137.86 C 152.87 137.16 152.71 136.18 152.01 135.68 C 151.31 135.17 150.33 135.33 149.83 136.03 L 149.24 136.85 C 148.74 137.55 148.90 138.52 149.60 139.02 C 150.30 139.53 151.28 139.37 151.78 138.67 Z M 152.18 138.06 L 152.91 137.36 C 153.53 136.76 153.54 135.77 152.94 135.15 C 152.34 134.53 151.35 134.52 150.74 135.12 L 150.01 135.83 C 149.39 136.43 149.38 137.41 149.98 138.03 C 150.58 138.65 151.57 138.67 152.18 138.06 Z M 152.61 137.58 L 153.58 137.02 C 154.32 136.58 154.57 135.62 154.14 134.88 C 153.70 134.14 152.74 133.89 152.00 134.33 L 151.03 134.89 C 150.29 135.33 150.04 136.29 150.48 137.03 C 150.91 137.77 151.87 138.02 152.61 137.58 Z M 153.07 137.21 L 154.00 137.04 C 154.85 136.88 155.41 136.07 155.26 135.22 C 155.10 134.37 154.29 133.81 153.44 133.97 L 152.51 134.14 C 151.66 134.29 151.10 135.10 151.25 135.95 C 151.41 136.80 152.22 137.36 153.07 137.21 Z M 152.99 136.88 L 153.67 137.24 C 154.43 137.64 155.38 137.35 155.78 136.59 C 156.18 135.82 155.89 134.88 155.13 134.48 L 154.45 134.12 C 153.68 133.72 152.74 134.01 152.34 134.77 C 151.94 135.54 152.23 136.48 152.99 136.88 Z M 152.97 136.48 L 153.32 137.29 C 153.66 138.08 154.58 138.45 155.37 138.11 C 156.16 137.76 156.52 136.85 156.18 136.05 L 155.83 135.24 C 155.49 134.45 154.57 134.08 153.78 134.43 C 152.99 134.77 152.62 135.69 152.97 136.48 Z M 153.20 136.82 L 153.30 137.90 C 153.38 138.76 154.14 139.39 155.00 139.31 C 155.86 139.22 156.49 138.46 156.41 137.60 L 156.30 136.52 C 156.22 135.67 155.46 135.04 154.60 135.12 C 153.74 135.20 153.11 135.96 153.20 136.82 Z M 153.30 137.63 L 153.22 138.67 C 153.15 139.53 153.79 140.28 154.65 140.35 C 155.51 140.42 156.26 139.77 156.33 138.91 L 156.41 137.87 C 156.48 137.01 155.83 136.26 154.97 136.19 C 154.11 136.13 153.36 136.77 153.30 137.63 Z M 153.24 138.48 L 153.06 139.35 C 152.89 140.20 153.43 141.02 154.28 141.20 C 155.12 141.37 155.95 140.83 156.12 139.98 L 156.30 139.11 C 156.48 138.27 155.93 137.44 155.09 137.26 C 154.25 137.09 153.42 137.63 153.24 138.48 Z M 153.10 139.21 L 152.82 140.13 C 152.57 140.95 153.03 141.82 153.85 142.08 C 154.68 142.33 155.55 141.87 155.80 141.04 L 156.09 140.12 C 156.34 139.30 155.87 138.43 155.05 138.17 C 154.23 137.92 153.35 138.38 153.10 139.21 Z M 152.85 140.04 L 152.47 141.06 C 152.17 141.87 152.58 142.77 153.39 143.07 C 154.20 143.37 155.09 142.96 155.39 142.15 L 155.77 141.13 C 156.08 140.32 155.66 139.42 154.86 139.12 C 154.05 138.82 153.15 139.23 152.85 140.04 Z M 152.48 141.03 L 152.09 142.01 C 151.77 142.81 152.16 143.72 152.96 144.04 C 153.76 144.36 154.67 143.97 154.99 143.17 L 155.38 142.19 C 155.70 141.39 155.31 140.48 154.51 140.16 C 153.71 139.84 152.80 140.23 152.48 141.03 Z M 152.10 141.99 L 151.72 142.91 C 151.39 143.70 151.77 144.62 152.56 144.95 C 153.36 145.28 154.27 144.90 154.60 144.10 L 154.98 143.19 C 155.31 142.39 154.93 141.48 154.14 141.15 C 153.34 140.82 152.43 141.20 152.10 141.99 Z M 151.73 142.89 L 151.32 143.84 C 150.97 144.63 151.34 145.55 152.13 145.89 C 152.92 146.23 153.84 145.87 154.18 145.08 L 154.59 144.12 C 154.93 143.33 154.57 142.41 153.78 142.07 C 152.99 141.73 152.07 142.09 151.73 142.89 Z M 151.33 143.81 L 150.90 144.76 C 150.54 145.55 150.89 146.47 151.67 146.83 C 152.46 147.19 153.38 146.84 153.74 146.05 L 154.17 145.10 C 154.53 144.32 154.18 143.39 153.39 143.04 C 152.61 142.68 151.68 143.03 151.33 143.81 Z M 150.91 144.73 L 150.47 145.64 C 150.10 146.41 150.42 147.35 151.20 147.72 C 151.97 148.10 152.91 147.78 153.28 147.00 L 153.72 146.09 C 154.10 145.31 153.77 144.38 153.00 144.00 C 152.22 143.63 151.29 143.95 150.91 144.73 Z M 150.50 145.58 L 150.01 146.50 C 149.60 147.26 149.89 148.21 150.65 148.61 C 151.41 149.02 152.36 148.73 152.76 147.97 L 153.25 147.05 C 153.66 146.29 153.37 145.35 152.61 144.94 C 151.85 144.54 150.91 144.82 150.50 145.58 Z M 150.07 146.39 L 149.35 147.52 C 148.89 148.24 149.10 149.21 149.82 149.67 C 150.55 150.14 151.51 149.93 151.98 149.20 L 152.70 148.08 C 153.17 147.36 152.96 146.39 152.23 145.92 C 151.51 145.46 150.54 145.67 150.07 146.39 Z M 149.52 147.29 L 148.87 147.99 C 148.28 148.62 148.32 149.61 148.95 150.20 C 149.58 150.79 150.57 150.75 151.16 150.12 L 151.81 149.42 C 152.39 148.79 152.36 147.81 151.73 147.22 C 151.10 146.63 150.11 146.66 149.52 147.29 Z M 149.49 147.59 L 148.95 147.78 C 148.14 148.07 147.71 148.96 148.00 149.77 C 148.29 150.59 149.18 151.01 149.99 150.72 L 150.54 150.53 C 151.35 150.24 151.77 149.35 151.49 148.53 C 151.20 147.72 150.30 147.30 149.49 147.59 Z M 150.54 148.11 L 150.10 147.70 C 149.47 147.11 148.48 147.15 147.89 147.78 C 147.31 148.40 147.34 149.39 147.97 149.98 L 148.40 150.39 C 149.03 150.98 150.02 150.95 150.61 150.32 C 151.20 149.69 151.17 148.70 150.54 148.11 Z M 150.53 148.38 L 150.23 147.43 C 149.97 146.60 149.10 146.14 148.28 146.40 C 147.45 146.65 146.99 147.53 147.25 148.35 L 147.54 149.30 C 147.80 150.13 148.67 150.59 149.50 150.33 C 150.32 150.08 150.78 149.20 150.53 148.38 Z M 150.29 147.68 L 150.11 146.35 C 150.00 145.50 149.21 144.90 148.36 145.01 C 147.50 145.13 146.90 145.91 147.01 146.77 L 147.19 148.09 C 147.30 148.95 148.09 149.55 148.94 149.44 C 149.80 149.32 150.40 148.54 150.29 147.68 Z M 150.12 146.46 L 150.05 145.50 C 150.00 144.64 149.25 143.99 148.39 144.04 C 147.53 144.10 146.88 144.84 146.94 145.71 L 147.00 146.67 C 147.06 147.53 147.81 148.18 148.67 148.12 C 149.53 148.06 150.18 147.32 150.12 146.46 Z M 150.06 145.54 L 150.02 144.52 C 149.99 143.66 149.26 142.99 148.40 143.02 C 147.54 143.05 146.87 143.78 146.90 144.64 L 146.94 145.66 C 146.97 146.52 147.69 147.19 148.56 147.16 C 149.42 147.13 150.09 146.40 150.06 145.54 Z M 150.02 144.55 L 150.00 143.51 C 149.99 142.65 149.27 141.96 148.41 141.98 C 147.55 142.00 146.86 142.71 146.88 143.57 L 146.90 144.61 C 146.91 145.47 147.63 146.16 148.49 146.14 C 149.35 146.13 150.04 145.41 150.02 144.55 Z M 150.00 143.53 L 149.99 142.52 C 149.99 141.65 149.29 140.96 148.42 140.96 C 147.56 140.97 146.87 141.67 146.87 142.53 L 146.88 143.55 C 146.88 144.41 147.59 145.11 148.45 145.10 C 149.31 145.10 150.01 144.39 150.00 143.53 Z M 149.99 142.52 L 149.99 141.52 C 149.99 140.66 149.29 139.96 148.43 139.96 C 147.57 139.96 146.87 140.66 146.87 141.52 L 146.87 142.53 C 146.87 143.39 147.57 144.09 148.43 144.09 C 149.30 144.09 150.00 143.39 149.99 142.52 Z M 149.99 141.52 L 149.99 140.41 C 149.99 139.54 149.30 138.85 148.43 138.85 C 147.57 138.85 146.87 139.54 146.87 140.41 L 146.87 141.52 C 146.87 142.38 147.57 143.08 148.43 143.08 C 149.30 143.08 149.99 142.38 149.99 141.52 Z M 149.99 140.41 L 149.99 139.42 C 149.99 138.55 149.30 137.85 148.43 137.85 C 147.57 137.85 146.87 138.55 146.87 139.42 L 146.87 140.41 C 146.87 141.27 147.57 141.97 148.43 141.97 C 149.30 141.97 149.99 141.27 149.99 140.41 Z M 149.99 139.42 L 149.99 138.50 C 149.99 137.64 149.30 136.94 148.43 136.94 C 147.57 136.94 146.87 137.64 146.87 138.50 L 146.87 139.42 C 146.87 140.28 147.57 140.98 148.43 140.98 C 149.30 140.98 149.99 140.28 149.99 139.42 Z M 149.99 138.50 L 150.00 137.34 C 150.00 136.48 149.30 135.78 148.44 135.78 C 147.58 135.78 146.88 136.47 146.87 137.34 L 146.87 138.50 C 146.87 139.36 147.57 140.06 148.43 140.06 C 149.29 140.06 149.99 139.37 149.99 138.50 Z M 149.99 137.43 L 150.06 136.34 C 150.10 135.48 149.45 134.75 148.58 134.70 C 147.72 134.65 146.99 135.31 146.94 136.17 L 146.88 137.25 C 146.83 138.11 147.49 138.85 148.35 138.90 C 149.21 138.95 149.95 138.29 149.99 137.43 Z M 148.86 137.77 L 149.08 137.72 C 149.92 137.52 150.43 136.68 150.23 135.84 C 150.04 135.00 149.19 134.49 148.36 134.68 L 148.14 134.74 C 147.30 134.94 146.78 135.78 146.98 136.62 C 147.18 137.46 148.02 137.97 148.86 137.77 Z M 147.30 136.87 L 147.71 137.74 C 148.08 138.52 149.01 138.86 149.79 138.49 C 150.57 138.12 150.91 137.19 150.54 136.41 L 150.13 135.54 C 149.76 134.76 148.83 134.42 148.05 134.79 C 147.27 135.16 146.94 136.09 147.30 136.87 Z M 147.83 137.95 L 148.47 138.90 C 148.96 139.61 149.93 139.80 150.64 139.31 C 151.36 138.83 151.54 137.86 151.06 137.15 L 150.42 136.20 C 149.94 135.49 148.96 135.30 148.25 135.79 C 147.54 136.27 147.35 137.24 147.83 137.95 Z M 149.31 139.51 L 150.23 139.80 C 151.05 140.05 151.93 139.59 152.18 138.76 C 152.43 137.94 151.97 137.06 151.14 136.81 L 150.22 136.53 C 149.40 136.28 148.53 136.74 148.27 137.56 C 148.02 138.39 148.48 139.26 149.31 139.51 Z M 150.81 139.86 L 151.77 139.78 C 152.63 139.72 153.27 138.96 153.21 138.10 C 153.14 137.24 152.38 136.60 151.52 136.67 L 150.56 136.75 C 149.70 136.82 149.06 137.57 149.13 138.43 C 149.20 139.29 149.95 139.93 150.81 139.86 Z M 150.94 139.62 L 151.59 139.95 C 152.36 140.34 153.30 140.03 153.69 139.26 C 154.08 138.49 153.77 137.55 153.00 137.16 L 152.35 136.83 C 151.58 136.45 150.64 136.75 150.26 137.52 C 149.87 138.29 150.18 139.23 150.94 139.62 Z M 150.86 139.15 L 151.20 139.98 C 151.53 140.78 152.44 141.16 153.24 140.83 C 154.03 140.50 154.41 139.59 154.08 138.79 L 153.74 137.96 C 153.41 137.16 152.50 136.78 151.70 137.11 C 150.90 137.44 150.53 138.36 150.86 139.15 Z M 151.10 139.65 L 151.30 140.79 C 151.45 141.64 152.25 142.21 153.10 142.07 C 153.95 141.92 154.52 141.11 154.38 140.26 L 154.18 139.12 C 154.03 138.27 153.23 137.70 152.38 137.85 C 151.53 137.99 150.96 138.80 151.10 139.65 Z M 151.29 140.70 L 151.39 141.65 C 151.49 142.50 152.26 143.12 153.12 143.03 C 153.97 142.93 154.59 142.16 154.49 141.30 L 154.39 140.35 C 154.29 139.50 153.52 138.88 152.66 138.98 C 151.81 139.07 151.19 139.84 151.29 140.70 Z M 151.39 141.61 L 151.47 142.50 C 151.54 143.35 152.30 143.99 153.16 143.91 C 154.02 143.84 154.65 143.08 154.58 142.22 L 154.50 141.34 C 154.42 140.48 153.66 139.84 152.80 139.92 C 151.95 140.00 151.31 140.75 151.39 141.61 Z M 151.46 142.46 L 151.53 143.44 C 151.59 144.30 152.33 144.95 153.19 144.89 C 154.05 144.83 154.70 144.09 154.64 143.23 L 154.58 142.25 C 154.52 141.39 153.78 140.74 152.92 140.80 C 152.06 140.86 151.41 141.60 151.46 142.46 Z M 151.53 143.40 L 151.58 144.52 C 151.62 145.38 152.35 146.05 153.21 146.01 C 154.07 145.97 154.74 145.24 154.70 144.38 L 154.65 143.26 C 154.61 142.40 153.88 141.74 153.02 141.77 C 152.15 141.81 151.49 142.54 151.53 143.40 Z M 151.58 144.49 L 151.61 145.57 C 151.63 146.43 152.35 147.11 153.21 147.09 C 154.07 147.06 154.75 146.34 154.73 145.48 L 154.70 144.40 C 154.67 143.54 153.95 142.86 153.09 142.89 C 152.23 142.91 151.55 143.63 151.58 144.49 Z M 151.61 145.55 L 151.62 146.47 C 151.63 147.33 152.34 148.02 153.21 148.01 C 154.07 147.99 154.76 147.28 154.74 146.42 L 154.73 145.50 C 154.71 144.64 154.01 143.95 153.14 143.96 C 152.28 143.98 151.59 144.69 151.61 145.55 Z M 151.62 146.45 L 151.62 147.43 C 151.63 148.29 152.33 148.99 153.19 148.99 C 154.05 148.98 154.75 148.28 154.75 147.42 L 154.74 146.44 C 154.74 145.58 154.04 144.88 153.18 144.88 C 152.31 144.89 151.62 145.59 151.62 146.45 Z M 151.62 147.41 L 151.61 148.43 C 151.60 149.29 152.29 150.00 153.15 150.01 C 154.02 150.02 154.72 149.33 154.73 148.47 L 154.75 147.44 C 154.76 146.58 154.06 145.87 153.20 145.86 C 152.34 145.85 151.63 146.55 151.62 147.41 Z M 151.61 148.40 L 151.58 149.45 C 151.56 150.31 152.24 151.03 153.10 151.05 C 153.96 151.08 154.68 150.40 154.70 149.54 L 154.73 148.49 C 154.76 147.63 154.08 146.91 153.22 146.89 C 152.36 146.86 151.64 147.54 151.61 148.40 Z M 151.58 149.42 L 151.53 150.46 C 151.49 151.33 152.15 152.06 153.02 152.10 C 153.88 152.14 154.61 151.48 154.65 150.62 L 154.70 149.57 C 154.74 148.71 154.08 147.97 153.22 147.93 C 152.36 147.89 151.62 148.55 151.58 149.42 Z M 151.53 150.43 L 151.46 151.46 C 151.40 152.32 152.04 153.07 152.90 153.13 C 153.76 153.20 154.51 152.55 154.57 151.69 L 154.65 150.65 C 154.71 149.79 154.06 149.05 153.20 148.98 C 152.34 148.92 151.60 149.57 151.53 150.43 Z M 151.46 151.42 L 151.35 152.53 C 151.26 153.39 151.88 154.15 152.74 154.24 C 153.60 154.33 154.37 153.71 154.45 152.85 L 154.57 151.74 C 154.66 150.88 154.03 150.11 153.18 150.02 C 152.32 149.93 151.55 150.56 151.46 151.42 Z M 151.35 152.48 L 151.21 153.56 C 151.10 154.42 151.70 155.20 152.55 155.32 C 153.41 155.43 154.19 154.83 154.30 153.98 L 154.45 152.90 C 154.56 152.04 153.96 151.26 153.11 151.14 C 152.25 151.03 151.47 151.63 151.35 152.48 Z M 151.22 153.52 L 151.05 154.55 C 150.92 155.40 151.49 156.20 152.35 156.34 C 153.20 156.47 154.00 155.89 154.13 155.04 L 154.30 154.02 C 154.43 153.16 153.86 152.36 153.00 152.23 C 152.15 152.09 151.35 152.67 151.22 153.52 Z M 151.06 154.51 L 150.88 155.48 C 150.73 156.33 151.29 157.14 152.14 157.30 C 152.99 157.45 153.80 156.89 153.95 156.04 L 154.13 155.07 C 154.28 154.23 153.72 153.41 152.87 153.26 C 152.02 153.10 151.21 153.67 151.06 154.51 Z M 150.89 155.45 L 150.71 156.35 C 150.54 157.20 151.09 158.02 151.93 158.19 C 152.78 158.36 153.60 157.81 153.77 156.97 L 153.95 156.07 C 154.12 155.22 153.57 154.40 152.72 154.23 C 151.88 154.06 151.06 154.61 150.89 155.45 Z M 150.71 156.33 L 150.53 157.18 C 150.35 158.03 150.89 158.86 151.73 159.04 C 152.58 159.22 153.40 158.68 153.58 157.83 L 153.76 156.98 C 153.94 156.14 153.40 155.31 152.56 155.13 C 151.72 154.95 150.89 155.49 150.71 156.33 Z M 150.53 157.17 L 150.29 158.27 C 150.10 159.11 150.63 159.95 151.47 160.14 C 152.31 160.32 153.15 159.79 153.33 158.95 L 153.58 157.85 C 153.77 157.01 153.24 156.17 152.40 155.98 C 151.55 155.80 150.72 156.33 150.53 157.17 Z M 150.29 158.25 L 150.06 159.23 C 149.86 160.07 150.38 160.91 151.22 161.11 C 152.05 161.31 152.90 160.79 153.10 159.95 L 153.33 158.97 C 153.53 158.14 153.01 157.29 152.17 157.09 C 151.33 156.89 150.49 157.41 150.29 158.25 Z M 150.07 159.20 L 149.83 160.10 C 149.61 160.93 150.11 161.78 150.95 162.00 C 151.78 162.22 152.64 161.72 152.85 160.88 L 153.09 159.98 C 153.31 159.15 152.81 158.30 151.97 158.08 C 151.14 157.86 150.28 158.36 150.07 159.20 Z M 149.84 160.06 L 149.59 160.94 C 149.35 161.77 149.83 162.63 150.66 162.87 C 151.49 163.11 152.35 162.63 152.59 161.80 L 152.84 160.92 C 153.08 160.09 152.60 159.23 151.77 158.99 C 150.94 158.75 150.08 159.23 149.84 160.06 Z M 149.60 160.91 L 149.31 161.84 C 149.05 162.66 149.51 163.54 150.33 163.80 C 151.16 164.05 152.03 163.59 152.29 162.77 L 152.58 161.84 C 152.84 161.01 152.38 160.14 151.56 159.88 C 150.73 159.62 149.86 160.08 149.60 160.91 Z M 149.31 161.82 L 149.00 162.77 C 148.73 163.59 149.18 164.47 150.00 164.74 C 150.82 165.01 151.70 164.56 151.97 163.74 L 152.28 162.79 C 152.55 161.97 152.10 161.09 151.29 160.82 C 150.47 160.55 149.58 161.00 149.31 161.82 Z M 149.01 162.76 L 148.68 163.72 C 148.41 164.54 148.85 165.42 149.67 165.70 C 150.49 165.97 151.37 165.53 151.64 164.71 L 151.97 163.75 C 152.24 162.93 151.80 162.05 150.98 161.77 C 150.16 161.50 149.28 161.94 149.01 162.76 Z M 148.68 163.73 L 148.37 164.67 C 148.10 165.49 148.54 166.37 149.36 166.64 C 150.18 166.91 151.06 166.47 151.33 165.65 L 151.65 164.71 C 151.92 163.89 151.47 163.01 150.65 162.73 C 149.84 162.46 148.95 162.91 148.68 163.73 Z M 148.37 164.67 L 148.07 165.60 C 147.80 166.42 148.25 167.30 149.07 167.57 C 149.88 167.83 150.77 167.39 151.03 166.57 L 151.34 165.64 C 151.60 164.82 151.16 163.94 150.34 163.67 C 149.52 163.41 148.64 163.85 148.37 164.67 Z M 148.07 165.59 L 147.76 166.54 C 147.49 167.36 147.93 168.24 148.75 168.51 C 149.57 168.78 150.45 168.33 150.72 167.52 L 151.03 166.57 C 151.30 165.75 150.86 164.87 150.04 164.60 C 149.22 164.33 148.34 164.77 148.07 165.59 Z M 147.76 166.53 L 147.43 167.50 C 147.16 168.32 147.60 169.21 148.41 169.48 C 149.23 169.76 150.12 169.32 150.39 168.50 L 150.72 167.53 C 150.99 166.71 150.55 165.82 149.74 165.55 C 148.92 165.27 148.03 165.71 147.76 166.53 Z M 147.44 167.49 L 147.11 168.44 C 146.82 169.25 147.25 170.14 148.06 170.43 C 148.88 170.71 149.77 170.28 150.05 169.47 L 150.38 168.52 C 150.67 167.70 150.24 166.81 149.43 166.53 C 148.61 166.24 147.72 166.67 147.44 167.49 Z M 147.11 168.42 L 146.77 169.35 C 146.48 170.16 146.90 171.05 147.71 171.35 C 148.52 171.64 149.42 171.22 149.71 170.41 L 150.05 169.48 C 150.34 168.67 149.92 167.78 149.11 167.48 C 148.30 167.19 147.41 167.61 147.11 168.42 Z M 146.78 169.33 L 146.43 170.27 C 146.12 171.08 146.53 171.98 147.34 172.28 C 148.15 172.59 149.05 172.18 149.35 171.37 L 149.70 170.43 C 150.01 169.62 149.60 168.72 148.79 168.42 C 147.98 168.12 147.08 168.53 146.78 169.33 Z M 146.43 170.26 L 146.07 171.21 C 145.76 172.01 146.15 172.91 146.96 173.22 C 147.76 173.54 148.67 173.14 148.98 172.33 L 149.34 171.39 C 149.66 170.58 149.26 169.68 148.45 169.37 C 147.65 169.06 146.74 169.46 146.43 170.26 Z M 146.07 171.19 L 145.70 172.13 C 145.38 172.93 145.77 173.84 146.57 174.16 C 147.37 174.48 148.28 174.09 148.60 173.29 L 148.97 172.35 C 149.29 171.55 148.90 170.64 148.10 170.32 C 147.30 170.00 146.39 170.39 146.07 171.19 Z M 145.70 172.12 L 145.32 173.05 C 144.99 173.85 145.37 174.76 146.17 175.09 C 146.97 175.42 147.88 175.03 148.21 174.24 L 148.59 173.30 C 148.92 172.51 148.54 171.59 147.74 171.27 C 146.94 170.94 146.03 171.32 145.70 172.12 Z M 145.32 173.04 L 144.94 173.96 C 144.60 174.76 144.98 175.67 145.77 176.01 C 146.56 176.34 147.48 175.97 147.81 175.17 L 148.20 174.25 C 148.54 173.45 148.16 172.54 147.37 172.20 C 146.57 171.87 145.66 172.24 145.32 173.04 Z M 144.94 173.95 L 144.55 174.87 C 144.21 175.66 144.58 176.58 145.37 176.92 C 146.16 177.26 147.08 176.89 147.42 176.10 L 147.81 175.18 C 148.15 174.39 147.78 173.47 146.99 173.13 C 146.19 172.79 145.28 173.16 144.94 173.95 Z M 144.55 174.86 L 144.16 175.78 C 143.82 176.57 144.18 177.49 144.97 177.83 C 145.77 178.17 146.68 177.80 147.03 177.01 L 147.42 176.10 C 147.76 175.31 147.39 174.39 146.60 174.05 C 145.81 173.71 144.89 174.07 144.55 174.86 Z M 144.16 175.77 L 143.75 176.72 C 143.41 177.51 143.77 178.43 144.57 178.77 C 145.36 179.11 146.28 178.75 146.62 177.95 L 147.03 177.01 C 147.37 176.22 147.00 175.30 146.21 174.96 C 145.42 174.62 144.50 174.98 144.16 175.77 Z M 143.75 176.71 L 143.34 177.65 C 143.00 178.44 143.36 179.36 144.15 179.71 C 144.94 180.05 145.86 179.69 146.21 178.90 L 146.62 177.96 C 146.96 177.17 146.60 176.25 145.81 175.90 C 145.02 175.56 144.10 175.92 143.75 176.71 Z M 143.35 177.64 L 142.94 178.56 C 142.59 179.35 142.95 180.27 143.74 180.62 C 144.53 180.97 145.45 180.61 145.80 179.82 L 146.20 178.91 C 146.55 178.12 146.20 177.20 145.41 176.85 C 144.62 176.50 143.70 176.85 143.35 177.64 Z M 142.95 178.54 L 142.55 179.42 C 142.19 180.21 142.54 181.13 143.32 181.49 C 144.11 181.85 145.03 181.50 145.39 180.72 L 145.79 179.84 C 146.15 179.05 145.80 178.13 145.02 177.77 C 144.23 177.41 143.31 177.76 142.95 178.54 Z M 142.56 179.40 L 142.13 180.31 C 141.76 181.09 142.09 182.02 142.87 182.39 C 143.64 182.76 144.58 182.43 144.95 181.65 L 145.38 180.74 C 145.75 179.96 145.42 179.03 144.64 178.66 C 143.86 178.29 142.93 178.62 142.56 179.40 Z M 142.14 180.28 L 141.69 181.18 C 141.30 181.95 141.62 182.89 142.39 183.28 C 143.16 183.66 144.10 183.35 144.48 182.58 L 144.93 181.68 C 145.32 180.91 145.01 179.97 144.23 179.58 C 143.46 179.20 142.53 179.51 142.14 180.28 Z M 141.70 181.16 L 141.25 182.03 C 140.85 182.80 141.15 183.74 141.91 184.14 C 142.68 184.53 143.62 184.24 144.02 183.47 L 144.47 182.60 C 144.87 181.84 144.57 180.90 143.81 180.50 C 143.04 180.10 142.10 180.39 141.70 181.16 Z M 141.26 182.01 L 140.79 182.88 C 140.38 183.64 140.67 184.58 141.43 184.99 C 142.19 185.40 143.13 185.12 143.54 184.36 L 144.01 183.49 C 144.42 182.73 144.13 181.79 143.37 181.38 C 142.61 180.97 141.67 181.25 141.26 182.01 Z M 140.80 182.87 L 140.37 183.64 C 139.96 184.40 140.23 185.35 140.99 185.76 C 141.74 186.18 142.69 185.90 143.11 185.15 L 143.53 184.37 C 143.95 183.62 143.68 182.67 142.92 182.25 C 142.16 181.83 141.22 182.11 140.80 182.87 Z M 140.38 183.62 L 139.92 184.43 C 139.49 185.18 139.75 186.14 140.50 186.56 C 141.25 186.99 142.20 186.73 142.63 185.98 L 143.10 185.17 C 143.52 184.42 143.26 183.47 142.51 183.04 C 141.76 182.61 140.81 182.87 140.38 183.62 Z M 139.94 184.40 L 139.41 185.27 C 138.97 186.01 139.21 186.97 139.95 187.42 C 140.69 187.86 141.65 187.62 142.09 186.88 L 142.61 186.01 C 143.06 185.27 142.82 184.31 142.08 183.87 C 141.34 183.43 140.38 183.66 139.94 184.40 Z M 139.44 185.24 L 138.83 186.19 C 138.37 186.92 138.58 187.88 139.31 188.35 C 140.04 188.81 141.00 188.59 141.47 187.87 L 142.07 186.91 C 142.53 186.19 142.32 185.22 141.59 184.76 C 140.86 184.30 139.90 184.51 139.44 185.24 Z M 138.85 186.16 L 138.33 186.94 C 137.85 187.66 138.04 188.63 138.76 189.11 C 139.48 189.59 140.45 189.39 140.93 188.68 L 141.45 187.89 C 141.93 187.18 141.73 186.21 141.02 185.73 C 140.30 185.25 139.33 185.44 138.85 186.16 Z M 138.34 186.93 L 137.81 187.70 C 137.32 188.41 137.50 189.38 138.21 189.87 C 138.92 190.36 139.89 190.18 140.38 189.47 L 140.91 188.70 C 141.40 187.98 141.22 187.01 140.51 186.52 C 139.80 186.04 138.83 186.22 138.34 186.93 Z M 137.82 187.69 L 137.25 188.50 C 136.75 189.21 136.92 190.18 137.63 190.68 C 138.33 191.17 139.31 191.00 139.80 190.29 L 140.37 189.48 C 140.87 188.78 140.70 187.80 139.99 187.31 C 139.29 186.81 138.31 186.98 137.82 187.69 Z M 137.25 188.49 L 136.65 189.33 C 136.15 190.03 136.32 191.01 137.02 191.51 C 137.72 192.01 138.70 191.84 139.20 191.14 L 139.80 190.30 C 140.30 189.60 140.13 188.63 139.43 188.13 C 138.73 187.63 137.75 187.79 137.25 188.49 Z M 136.66 189.33 L 136.04 190.18 C 135.54 190.88 135.70 191.86 136.40 192.36 C 137.10 192.86 138.07 192.71 138.58 192.01 L 139.19 191.15 C 139.70 190.45 139.54 189.47 138.84 188.97 C 138.14 188.47 137.16 188.63 136.66 189.33 Z M 136.04 190.18 L 135.42 191.05 C 134.91 191.75 135.07 192.72 135.77 193.23 C 136.47 193.73 137.44 193.57 137.95 192.88 L 138.58 192.01 C 139.08 191.31 138.92 190.33 138.22 189.83 C 137.52 189.32 136.55 189.48 136.04 190.18 Z M 135.42 191.05 L 135.36 191.12 C 134.86 191.82 135.01 192.80 135.71 193.30 C 136.41 193.81 137.39 193.65 137.89 192.95 L 137.95 192.88 C 138.45 192.18 138.30 191.20 137.60 190.70 C 136.90 190.19 135.92 190.35 135.42 191.05 Z"
      fill="black"
      fill-rule="nonzero" /></svg>