<svg xmlns="http://www.w3.org/2000/svg" width="300" height="300" viewBox="0 0 300 300">
<path d="M 152.10 149.13 L 152.17 148.08 C 152.23 147.22 151.58 146.47 150.72 146.42 C 149.86 146.36 149.11 147.01 149.06 147.87 L 148.99 148.92 C 148.93 149.78 149.58 150.53 150.44 150.58 C 151.30 150.64 152.05 149.99 152.10 149.13 Z M 152.15 148.26 L 152.33 147.28 C 152.49 146.43 151.93 145.62 151.08 145.46 C 150.23 145.30 149.42 145.86 149.26 146.71 L 149.08 147.69 C 148.92 148.54 149.49 149.35 150.33 149.51 C 151.18 149.67 152.00 149.10 152.15 148.26 Z M 152.20 147.69 L 152.62 146.82 C 153.01 146.05 152.69 145.11 151.91 144.73 C 151.14 144.35 150.21 144.66 149.82 145.44 L 149.40 146.30 C 149.01 147.08 149.33 148.01 150.10 148.40 C 150.88 148.78 151.81 148.46 152.20 147.69 Z M 152.19 147.36 L 153.08 146.65 C 153.76 146.12 153.88 145.14 153.34 144.46 C 152.81 143.78 151.83 143.67 151.15 144.20 L 150.26 144.90 C 149.58 145.44 149.46 146.42 150.00 147.09 C 150.53 147.77 151.51 147.89 152.19 147.36 Z M 151.85 146.96 L 152.52 147.08 C 153.37 147.23 154.18 146.66 154.33 145.81 C 154.47 144.96 153.90 144.15 153.05 144.00 L 152.38 143.89 C 151.53 143.74 150.72 144.31 150.58 145.16 C 150.43 146.01 151.00 146.82 151.85 146.96 Z M 151.23 145.57 L 151.24 146.31 C 151.26 147.17 151.97 147.86 152.83 147.84 C 153.69 147.82 154.38 147.11 154.36 146.25 L 154.35 145.51 C 154.33 144.65 153.62 143.97 152.76 143.98 C 151.90 144.00 151.21 144.71 151.23 145.57 Z M 151.33 145.75 L 150.96 146.77 C 150.67 147.58 151.09 148.48 151.90 148.77 C 152.71 149.07 153.60 148.65 153.90 147.84 L 154.27 146.81 C 154.56 146.00 154.14 145.10 153.33 144.81 C 152.52 144.52 151.63 144.94 151.33 145.75 Z M 151.13 146.43 L 150.48 147.41 C 150.00 148.13 150.19 149.10 150.91 149.58 C 151.62 150.06 152.59 149.87 153.07 149.15 L 153.73 148.17 C 154.21 147.46 154.02 146.49 153.30 146.01 C 152.58 145.53 151.61 145.72 151.13 146.43 Z M 150.83 147.03 L 149.96 147.69 C 149.27 148.21 149.14 149.19 149.66 149.88 C 150.18 150.57 151.15 150.70 151.84 150.19 L 152.72 149.53 C 153.40 149.01 153.54 148.03 153.02 147.34 C 152.50 146.65 151.52 146.51 150.83 147.03 Z M 150.62 147.40 L 149.72 147.57 C 148.87 147.72 148.31 148.54 148.47 149.38 C 148.62 150.23 149.43 150.79 150.28 150.64 L 151.18 150.47 C 152.03 150.32 152.59 149.51 152.44 148.66 C 152.28 147.81 151.47 147.25 150.62 147.40 Z M 150.68 147.70 L 149.96 147.35 C 149.18 146.98 148.25 147.31 147.88 148.09 C 147.51 148.86 147.83 149.80 148.61 150.17 L 149.33 150.51 C 150.10 150.88 151.04 150.56 151.41 149.78 C 151.78 149.00 151.45 148.07 150.68 147.70 Z M 150.56 147.86 L 150.06 147.15 C 149.56 146.44 148.59 146.28 147.88 146.77 C 147.18 147.27 147.01 148.24 147.51 148.95 L 148.01 149.66 C 148.51 150.37 149.48 150.53 150.19 150.04 C 150.89 149.54 151.06 148.56 150.56 147.86 Z M 150.25 147.52 L 149.89 146.51 C 149.60 145.70 148.70 145.27 147.89 145.56 C 147.08 145.85 146.66 146.75 146.95 147.56 L 147.31 148.57 C 147.60 149.39 148.50 149.81 149.31 149.52 C 150.12 149.23 150.54 148.33 150.25 147.52 Z M 149.95 146.74 L 149.74 145.62 C 149.58 144.77 148.76 144.22 147.91 144.38 C 147.07 144.54 146.51 145.36 146.67 146.21 L 146.89 147.33 C 147.05 148.17 147.87 148.73 148.71 148.57 C 149.56 148.40 150.11 147.59 149.95 146.74 Z M 149.76 145.76 L 149.66 144.77 C 149.57 143.91 148.81 143.29 147.95 143.37 C 147.09 143.46 146.47 144.22 146.55 145.08 L 146.65 146.07 C 146.74 146.93 147.50 147.55 148.36 147.47 C 149.22 147.38 149.84 146.62 149.76 145.76 Z M 149.67 144.86 L 149.62 143.83 C 149.58 142.97 148.85 142.30 147.99 142.34 C 147.13 142.38 146.46 143.11 146.50 143.97 L 146.55 145.00 C 146.59 145.86 147.32 146.52 148.18 146.49 C 149.04 146.45 149.71 145.72 149.67 144.86 Z M 149.62 143.89 L 149.62 142.87 C 149.61 142.01 148.91 141.31 148.04 141.32 C 147.18 141.33 146.49 142.03 146.49 142.89 L 146.50 143.91 C 146.51 144.77 147.21 145.47 148.07 145.46 C 148.93 145.46 149.63 144.75 149.62 143.89 Z M 149.62 142.91 L 149.64 141.93 C 149.65 141.07 148.97 140.36 148.11 140.34 C 147.24 140.32 146.53 141.01 146.51 141.87 L 146.49 142.85 C 146.48 143.71 147.16 144.42 148.02 144.44 C 148.88 144.46 149.60 143.78 149.62 142.91 Z M 149.63 141.97 L 149.68 140.90 C 149.72 140.04 149.06 139.31 148.19 139.27 C 147.33 139.23 146.60 139.90 146.56 140.76 L 146.51 141.83 C 146.48 142.69 147.14 143.42 148.00 143.46 C 148.86 143.50 149.59 142.84 149.63 141.97 Z M 149.68 140.98 L 149.77 139.99 C 149.86 139.13 149.23 138.37 148.37 138.28 C 147.51 138.20 146.75 138.83 146.67 139.69 L 146.57 140.68 C 146.49 141.54 147.11 142.30 147.97 142.38 C 148.83 142.46 149.59 141.84 149.68 140.98 Z M 149.75 140.12 L 149.93 139.18 C 150.08 138.33 149.52 137.52 148.67 137.36 C 147.82 137.21 147.01 137.77 146.86 138.62 L 146.68 139.55 C 146.53 140.40 147.09 141.22 147.94 141.37 C 148.79 141.53 149.60 140.97 149.75 140.12 Z M 149.89 139.35 L 150.17 138.42 C 150.41 137.59 149.95 136.72 149.12 136.47 C 148.29 136.22 147.42 136.69 147.18 137.52 L 146.90 138.45 C 146.65 139.27 147.12 140.14 147.94 140.39 C 148.77 140.64 149.64 140.17 149.89 139.35 Z M 150.10 138.61 L 150.51 137.68 C 150.86 136.89 150.51 135.97 149.72 135.62 C 148.93 135.27 148.01 135.62 147.66 136.41 L 147.25 137.33 C 146.89 138.12 147.25 139.04 148.03 139.39 C 148.82 139.75 149.74 139.39 150.10 138.61 Z M 150.40 137.89 L 150.94 137.04 C 151.41 136.32 151.20 135.35 150.47 134.88 C 149.75 134.42 148.78 134.63 148.32 135.35 L 147.77 136.20 C 147.30 136.92 147.51 137.89 148.24 138.36 C 148.97 138.82 149.93 138.61 150.40 137.89 Z M 150.76 137.27 L 151.43 136.57 C 152.03 135.94 152.00 134.95 151.38 134.36 C 150.76 133.76 149.77 133.79 149.17 134.41 L 148.50 135.12 C 147.90 135.74 147.93 136.73 148.55 137.33 C 149.17 137.92 150.16 137.90 150.76 137.27 Z M 151.13 136.81 L 152.03 136.25 C 152.76 135.80 152.99 134.84 152.53 134.10 C 152.08 133.37 151.11 133.15 150.38 133.60 L 149.48 134.16 C 148.75 134.62 148.52 135.58 148.98 136.31 C 149.43 137.05 150.40 137.27 151.13 136.81 Z M 151.62 136.43 L 152.60 136.16 C 153.43 135.93 153.92 135.07 153.69 134.24 C 153.46 133.41 152.60 132.92 151.77 133.15 L 150.79 133.42 C 149.96 133.65 149.47 134.51 149.70 135.34 C 149.93 136.18 150.79 136.66 151.62 136.43 Z M 152.07 136.21 L 152.99 136.28 C 153.85 136.34 154.60 135.70 154.66 134.84 C 154.72 133.98 154.08 133.23 153.22 133.17 L 152.30 133.10 C 151.44 133.04 150.69 133.68 150.63 134.54 C 150.57 135.40 151.21 136.15 152.07 136.21 Z M 152.32 136.07 L 153.08 136.51 C 153.82 136.95 154.78 136.69 155.21 135.95 C 155.64 135.20 155.39 134.25 154.65 133.81 L 153.89 133.37 C 153.14 132.94 152.19 133.19 151.76 133.94 C 151.32 134.68 151.57 135.64 152.32 136.07 Z M 152.62 136.11 L 153.21 136.87 C 153.73 137.56 154.71 137.69 155.40 137.16 C 156.08 136.63 156.21 135.65 155.68 134.97 L 155.10 134.21 C 154.57 133.53 153.59 133.40 152.91 133.92 C 152.23 134.45 152.10 135.43 152.62 136.11 Z M 153.04 136.59 L 153.50 137.58 C 153.87 138.35 154.81 138.68 155.58 138.31 C 156.36 137.94 156.69 137.01 156.32 136.23 L 155.85 135.25 C 155.48 134.47 154.55 134.14 153.77 134.51 C 152.99 134.88 152.66 135.82 153.04 136.59 Z M 153.45 137.44 L 153.80 138.38 C 154.09 139.19 154.99 139.60 155.80 139.31 C 156.61 139.01 157.02 138.11 156.72 137.30 L 156.38 136.36 C 156.08 135.55 155.18 135.14 154.37 135.44 C 153.56 135.74 153.15 136.64 153.45 137.44 Z M 153.77 138.30 L 154.06 139.25 C 154.31 140.08 155.19 140.54 156.01 140.28 C 156.84 140.03 157.30 139.16 157.04 138.33 L 156.75 137.38 C 156.50 136.56 155.63 136.10 154.80 136.35 C 153.98 136.60 153.51 137.48 153.77 138.30 Z M 154.04 139.17 L 154.28 140.15 C 154.49 140.99 155.33 141.50 156.17 141.29 C 157.01 141.09 157.52 140.24 157.31 139.40 L 157.07 138.42 C 156.86 137.58 156.02 137.07 155.18 137.28 C 154.34 137.48 153.83 138.33 154.04 139.17 Z M 154.26 140.06 L 154.45 141.07 C 154.60 141.92 155.41 142.48 156.26 142.33 C 157.11 142.17 157.67 141.36 157.52 140.51 L 157.33 139.50 C 157.18 138.65 156.36 138.09 155.51 138.24 C 154.67 138.40 154.10 139.21 154.26 140.06 Z M 154.43 140.95 L 154.54 142.02 C 154.63 142.88 155.39 143.51 156.25 143.42 C 157.11 143.33 157.73 142.56 157.64 141.70 L 157.53 140.63 C 157.45 139.77 156.68 139.15 155.82 139.24 C 154.96 139.33 154.34 140.09 154.43 140.95 Z M 154.53 141.83 L 154.51 142.84 C 154.49 143.71 155.17 144.42 156.03 144.44 C 156.89 144.46 157.61 143.78 157.63 142.92 L 157.65 141.90 C 157.67 141.04 156.99 140.32 156.13 140.30 C 155.27 140.28 154.55 140.97 154.53 141.83 Z M 154.55 142.53 L 154.34 143.43 C 154.15 144.28 154.68 145.11 155.52 145.30 C 156.36 145.50 157.19 144.97 157.38 144.13 L 157.59 143.23 C 157.78 142.39 157.26 141.55 156.41 141.36 C 155.57 141.17 154.74 141.69 154.55 142.53 Z M 154.54 142.95 L 154.00 143.82 C 153.54 144.55 153.76 145.51 154.49 145.97 C 155.22 146.43 156.18 146.21 156.64 145.48 L 157.18 144.61 C 157.64 143.88 157.42 142.92 156.69 142.46 C 155.96 142.00 155.00 142.22 154.54 142.95 Z M 154.46 143.35 L 153.62 143.90 C 152.90 144.38 152.70 145.35 153.18 146.07 C 153.66 146.79 154.63 146.98 155.34 146.51 L 156.18 145.95 C 156.90 145.47 157.10 144.50 156.62 143.78 C 156.14 143.07 155.17 142.87 154.46 143.35 Z M 154.39 143.65 L 153.52 143.70 C 152.66 143.74 152.00 144.48 152.05 145.34 C 152.10 146.20 152.83 146.86 153.69 146.81 L 154.57 146.76 C 155.43 146.71 156.09 145.98 156.04 145.12 C 155.99 144.26 155.25 143.60 154.39 143.65 Z M 154.48 143.96 L 153.81 143.51 C 153.09 143.03 152.12 143.22 151.64 143.93 C 151.16 144.65 151.35 145.62 152.06 146.10 L 152.74 146.55 C 153.45 147.03 154.42 146.84 154.90 146.12 C 155.38 145.41 155.19 144.44 154.48 143.96 Z M 154.28 144.00 L 153.76 143.14 C 153.32 142.40 152.36 142.16 151.62 142.60 C 150.88 143.04 150.64 144.00 151.08 144.74 L 151.59 145.60 C 152.04 146.34 152.99 146.59 153.74 146.14 C 154.48 145.70 154.72 144.74 154.28 144.00 Z M 153.92 143.51 L 153.59 142.38 C 153.35 141.56 152.49 141.08 151.66 141.32 C 150.83 141.56 150.35 142.43 150.60 143.26 L 150.92 144.38 C 151.16 145.21 152.03 145.68 152.86 145.44 C 153.69 145.20 154.16 144.33 153.92 143.51 Z M 153.64 142.61 L 153.51 141.63 C 153.40 140.78 152.61 140.18 151.76 140.29 C 150.90 140.40 150.30 141.19 150.42 142.04 L 150.55 143.03 C 150.66 143.88 151.45 144.48 152.30 144.37 C 153.16 144.25 153.76 143.47 153.64 142.61 Z M 153.52 141.80 L 153.50 140.77 C 153.47 139.90 152.76 139.22 151.90 139.24 C 151.03 139.27 150.35 139.98 150.38 140.85 L 150.40 141.88 C 150.42 142.74 151.14 143.42 152.00 143.40 C 152.87 143.38 153.55 142.66 153.52 141.80 Z M 153.49 140.93 L 153.58 139.92 C 153.65 139.06 153.01 138.31 152.15 138.23 C 151.29 138.16 150.54 138.80 150.46 139.66 L 150.38 140.68 C 150.31 141.54 150.95 142.29 151.81 142.36 C 152.67 142.43 153.42 141.79 153.49 140.93 Z M 153.55 140.12 L 153.75 139.17 C 153.94 138.32 153.40 137.49 152.56 137.31 C 151.72 137.12 150.89 137.66 150.70 138.50 L 150.50 139.46 C 150.31 140.30 150.85 141.13 151.69 141.32 C 152.53 141.50 153.36 140.97 153.55 140.12 Z M 153.66 139.45 L 154.09 138.47 C 154.43 137.68 154.06 136.76 153.27 136.42 C 152.48 136.08 151.56 136.44 151.22 137.24 L 150.80 138.22 C 150.45 139.01 150.82 139.93 151.61 140.27 C 152.40 140.61 153.32 140.24 153.66 139.45 Z M 153.91 138.77 L 154.49 137.98 C 155.00 137.28 154.84 136.31 154.15 135.80 C 153.45 135.29 152.47 135.45 151.96 136.14 L 151.39 136.93 C 150.88 137.63 151.04 138.61 151.73 139.12 C 152.43 139.62 153.41 139.47 153.91 138.77 Z M 154.28 138.21 L 154.98 137.58 C 155.61 136.99 155.65 136.00 155.07 135.37 C 154.48 134.74 153.49 134.69 152.86 135.28 L 152.17 135.91 C 151.54 136.50 151.49 137.49 152.08 138.12 C 152.66 138.75 153.65 138.80 154.28 138.21 Z M 154.74 137.75 L 155.71 137.16 C 156.44 136.70 156.67 135.74 156.21 135.01 C 155.76 134.27 154.80 134.05 154.06 134.50 L 153.10 135.10 C 152.36 135.55 152.14 136.51 152.59 137.25 C 153.04 137.98 154.01 138.21 154.74 137.75 Z M 155.19 137.36 L 156.10 137.18 C 156.94 137.01 157.50 136.19 157.33 135.35 C 157.16 134.50 156.34 133.95 155.49 134.12 L 154.58 134.30 C 153.74 134.46 153.19 135.29 153.35 136.13 C 153.52 136.98 154.34 137.53 155.19 137.36 Z M 154.86 136.90 L 155.43 137.33 C 156.12 137.85 157.10 137.71 157.62 137.02 C 158.14 136.33 158.00 135.35 157.31 134.83 L 156.73 134.40 C 156.04 133.88 155.06 134.02 154.55 134.71 C 154.03 135.40 154.17 136.38 154.86 136.90 Z M 154.87 136.51 L 155.11 137.35 C 155.34 138.18 156.21 138.66 157.04 138.42 C 157.87 138.19 158.35 137.32 158.11 136.49 L 157.87 135.65 C 157.63 134.82 156.77 134.34 155.94 134.58 C 155.11 134.81 154.63 135.68 154.87 136.51 Z M 155.05 136.99 L 155.10 138.09 C 155.13 138.95 155.86 139.62 156.72 139.58 C 157.58 139.54 158.25 138.82 158.22 137.96 L 158.17 136.85 C 158.13 135.99 157.41 135.32 156.54 135.36 C 155.68 135.40 155.01 136.12 155.05 136.99 Z M 155.10 137.89 L 155.01 139.04 C 154.93 139.90 155.57 140.65 156.43 140.72 C 157.29 140.79 158.05 140.15 158.12 139.29 L 158.21 138.15 C 158.28 137.29 157.64 136.54 156.78 136.46 C 155.92 136.39 155.17 137.03 155.10 137.89 Z M 155.02 138.90 L 154.85 139.92 C 154.70 140.77 155.28 141.58 156.13 141.72 C 156.98 141.87 157.78 141.29 157.93 140.44 L 158.10 139.43 C 158.25 138.58 157.67 137.77 156.82 137.63 C 155.97 137.48 155.17 138.05 155.02 138.90 Z M 154.87 139.82 L 154.64 140.79 C 154.44 141.63 154.95 142.47 155.79 142.67 C 156.63 142.87 157.47 142.36 157.67 141.52 L 157.91 140.54 C 158.11 139.71 157.59 138.86 156.75 138.66 C 155.91 138.46 155.07 138.98 154.87 139.82 Z M 154.66 140.72 L 154.39 141.65 C 154.15 142.48 154.62 143.34 155.45 143.58 C 156.28 143.82 157.14 143.35 157.39 142.52 L 157.65 141.59 C 157.89 140.76 157.42 139.89 156.59 139.65 C 155.76 139.41 154.90 139.89 154.66 140.72 Z M 154.40 141.60 L 154.09 142.55 C 153.83 143.37 154.28 144.25 155.10 144.51 C 155.92 144.78 156.80 144.33 157.07 143.51 L 157.37 142.56 C 157.64 141.74 157.19 140.86 156.37 140.60 C 155.55 140.33 154.67 140.78 154.40 141.60 Z M 154.11 142.50 L 153.78 143.43 C 153.49 144.24 153.91 145.14 154.72 145.43 C 155.53 145.72 156.42 145.30 156.72 144.49 L 157.05 143.55 C 157.34 142.74 156.92 141.85 156.11 141.56 C 155.30 141.27 154.40 141.69 154.11 142.50 Z M 153.80 143.37 L 153.43 144.30 C 153.10 145.10 153.49 146.01 154.29 146.33 C 155.09 146.65 156.00 146.26 156.32 145.47 L 156.69 144.54 C 157.02 143.74 156.63 142.83 155.83 142.51 C 155.03 142.19 154.12 142.58 153.80 143.37 Z M 153.45 144.23 L 153.02 145.18 C 152.66 145.96 153.01 146.89 153.79 147.25 C 154.58 147.61 155.50 147.26 155.86 146.48 L 156.29 145.53 C 156.65 144.75 156.31 143.82 155.52 143.46 C 154.74 143.10 153.81 143.45 153.45 144.23 Z M 153.08 145.07 L 152.57 145.99 C 152.15 146.74 152.42 147.69 153.17 148.11 C 153.92 148.53 154.87 148.26 155.29 147.51 L 155.81 146.59 C 156.23 145.83 155.96 144.88 155.20 144.46 C 154.45 144.04 153.50 144.31 153.08 145.07 Z M 152.71 145.77 L 152.10 146.53 C 151.56 147.20 151.67 148.19 152.34 148.73 C 153.01 149.27 154.00 149.16 154.54 148.49 L 155.15 147.72 C 155.69 147.05 155.58 146.07 154.91 145.53 C 154.23 144.99 153.25 145.10 152.71 145.77 Z M 152.48 146.19 L 151.70 146.69 C 150.97 147.15 150.75 148.11 151.22 148.84 C 151.68 149.57 152.64 149.79 153.37 149.33 L 154.15 148.83 C 154.88 148.37 155.10 147.40 154.64 146.67 C 154.17 145.94 153.21 145.73 152.48 146.19 Z M 152.42 146.45 L 151.43 146.52 C 150.57 146.58 149.93 147.33 149.99 148.19 C 150.05 149.05 150.80 149.70 151.66 149.63 L 152.65 149.56 C 153.51 149.50 154.15 148.76 154.09 147.90 C 154.03 147.04 153.28 146.39 152.42 146.45 Z M 152.25 146.68 L 151.38 146.25 C 150.61 145.86 149.67 146.17 149.29 146.94 C 148.90 147.71 149.21 148.65 149.98 149.04 L 150.85 149.47 C 151.62 149.86 152.55 149.55 152.94 148.78 C 153.33 148.01 153.02 147.07 152.25 146.68 Z M 152.00 146.80 L 151.53 146.07 C 151.07 145.34 150.10 145.13 149.38 145.59 C 148.65 146.05 148.43 147.02 148.90 147.75 L 149.36 148.48 C 149.83 149.21 150.79 149.42 151.52 148.96 C 152.25 148.50 152.46 147.53 152.00 146.80 Z M 151.74 146.56 L 151.52 145.64 C 151.33 144.80 150.49 144.27 149.65 144.47 C 148.81 144.66 148.29 145.50 148.48 146.34 L 148.69 147.26 C 148.89 148.10 149.73 148.62 150.57 148.43 C 151.41 148.24 151.93 147.40 151.74 146.56 Z M 151.56 145.87 L 151.48 144.80 C 151.42 143.94 150.67 143.30 149.81 143.36 C 148.95 143.42 148.30 144.17 148.37 145.03 L 148.44 146.10 C 148.51 146.96 149.26 147.61 150.12 147.54 C 150.98 147.48 151.62 146.73 151.56 145.87 Z M 151.48 144.89 L 151.47 143.80 C 151.45 142.94 150.74 142.26 149.88 142.27 C 149.01 142.29 148.33 143.00 148.34 143.86 L 148.36 144.94 C 148.38 145.81 149.09 146.49 149.95 146.48 C 150.81 146.46 151.50 145.75 151.48 144.89 Z M 151.47 143.84 L 151.47 142.83 C 151.47 141.97 150.77 141.27 149.91 141.27 C 149.05 141.27 148.35 141.97 148.34 142.83 L 148.34 143.83 C 148.34 144.69 149.04 145.39 149.90 145.39 C 150.76 145.40 151.46 144.70 151.47 143.84 Z M 151.47 142.89 L 151.50 141.89 C 151.54 141.03 150.86 140.30 150.00 140.27 C 149.14 140.24 148.42 140.91 148.38 141.77 L 148.35 142.77 C 148.31 143.64 148.99 144.36 149.85 144.39 C 150.71 144.42 151.43 143.75 151.47 142.89 Z M 151.50 141.98 L 151.59 140.98 C 151.67 140.12 151.04 139.36 150.18 139.28 C 149.33 139.20 148.56 139.83 148.48 140.69 L 148.39 141.68 C 148.31 142.54 148.94 143.30 149.80 143.38 C 150.65 143.46 151.42 142.83 151.50 141.98 Z M 151.57 141.10 L 151.75 140.12 C 151.90 139.27 151.33 138.46 150.48 138.32 C 149.63 138.17 148.82 138.73 148.67 139.58 L 148.50 140.56 C 148.35 141.41 148.92 142.22 149.77 142.37 C 150.62 142.52 151.43 141.95 151.57 141.10 Z M 151.72 140.25 L 151.97 139.29 C 152.20 138.46 151.70 137.60 150.87 137.38 C 150.03 137.16 149.18 137.66 148.96 138.49 L 148.70 139.45 C 148.48 140.29 148.98 141.14 149.81 141.36 C 150.64 141.58 151.50 141.09 151.72 140.25 Z M 151.94 139.41 L 152.27 138.46 C 152.55 137.65 152.12 136.76 151.31 136.48 C 150.49 136.19 149.60 136.62 149.32 137.44 L 148.99 138.38 C 148.71 139.19 149.14 140.08 149.95 140.37 C 150.77 140.65 151.66 140.22 151.94 139.41 Z M 152.23 138.56 L 152.62 137.63 C 152.96 136.84 152.58 135.92 151.79 135.59 C 150.99 135.25 150.08 135.62 149.74 136.42 L 149.35 137.34 C 149.02 138.14 149.39 139.05 150.19 139.39 C 150.98 139.72 151.90 139.35 152.23 138.56 Z M 152.59 137.70 L 153.03 136.78 C 153.41 136.01 153.09 135.07 152.31 134.70 C 151.53 134.32 150.60 134.65 150.22 135.42 L 149.78 136.34 C 149.40 137.12 149.73 138.05 150.50 138.43 C 151.28 138.80 152.21 138.48 152.59 137.70 Z M 152.99 136.87 L 153.49 135.98 C 153.92 135.23 153.65 134.28 152.90 133.86 C 152.15 133.43 151.20 133.69 150.77 134.44 L 150.27 135.33 C 149.85 136.08 150.11 137.04 150.86 137.46 C 151.61 137.89 152.56 137.62 152.99 136.87 Z M 153.41 136.11 L 153.98 135.29 C 154.48 134.59 154.31 133.61 153.60 133.12 C 152.89 132.62 151.92 132.80 151.42 133.50 L 150.85 134.32 C 150.36 135.03 150.53 136.00 151.24 136.49 C 151.94 136.99 152.92 136.82 153.41 136.11 Z M 153.85 135.45 L 154.51 134.74 C 155.09 134.11 155.05 133.12 154.41 132.54 C 153.77 131.95 152.79 132.00 152.20 132.63 L 151.55 133.34 C 150.97 133.98 151.01 134.97 151.65 135.55 C 152.28 136.13 153.27 136.09 153.85 135.45 Z M 154.28 134.94 L 155.18 134.28 C 155.87 133.76 156.02 132.79 155.50 132.09 C 154.99 131.40 154.01 131.26 153.32 131.77 L 152.42 132.43 C 151.73 132.95 151.59 133.93 152.10 134.62 C 152.61 135.31 153.59 135.45 154.28 134.94 Z M 154.85 134.47 L 155.79 134.08 C 156.59 133.75 156.97 132.83 156.64 132.04 C 156.31 131.24 155.40 130.86 154.60 131.19 L 153.65 131.58 C 152.86 131.91 152.48 132.82 152.81 133.62 C 153.14 134.42 154.05 134.80 154.85 134.47 Z M 155.26 134.19 L 156.13 134.16 C 156.99 134.12 157.66 133.40 157.62 132.53 C 157.59 131.67 156.86 131.00 156.00 131.04 L 155.13 131.07 C 154.27 131.11 153.60 131.83 153.64 132.70 C 153.67 133.56 154.40 134.23 155.26 134.19 Z M 155.29 133.95 L 156.01 134.36 C 156.76 134.79 157.71 134.53 158.14 133.78 C 158.57 133.03 158.30 132.08 157.55 131.65 L 156.83 131.24 C 156.08 130.81 155.13 131.08 154.70 131.83 C 154.28 132.58 154.54 133.53 155.29 133.95 Z M 155.46 133.84 L 155.97 134.65 C 156.43 135.38 157.39 135.60 158.12 135.14 C 158.85 134.69 159.07 133.72 158.62 132.99 L 158.11 132.18 C 157.65 131.45 156.69 131.23 155.95 131.68 C 155.22 132.14 155.00 133.10 155.46 133.84 Z M 155.79 134.26 L 156.11 135.35 C 156.35 136.18 157.22 136.66 158.05 136.42 C 158.87 136.18 159.35 135.31 159.11 134.48 L 158.79 133.39 C 158.55 132.56 157.69 132.08 156.86 132.32 C 156.03 132.56 155.55 133.43 155.79 134.26 Z M 156.06 135.13 L 156.18 135.99 C 156.30 136.85 157.09 137.45 157.94 137.33 C 158.80 137.21 159.39 136.42 159.28 135.57 L 159.16 134.71 C 159.04 133.85 158.25 133.25 157.40 133.37 C 156.54 133.49 155.95 134.28 156.06 135.13 Z M 156.17 135.82 L 156.19 136.75 C 156.21 137.61 156.92 138.30 157.79 138.28 C 158.65 138.26 159.33 137.54 159.31 136.68 L 159.29 135.75 C 159.27 134.88 158.56 134.20 157.69 134.22 C 156.83 134.24 156.15 134.96 156.17 135.82 Z M 156.20 136.57 L 156.10 137.59 C 156.02 138.45 156.65 139.21 157.51 139.29 C 158.37 139.37 159.13 138.74 159.21 137.88 L 159.31 136.86 C 159.39 136.01 158.76 135.24 157.90 135.16 C 157.04 135.08 156.28 135.71 156.20 136.57 Z M 156.13 137.41 L 155.89 138.51 C 155.71 139.36 156.25 140.19 157.09 140.36 C 157.94 140.54 158.77 140.01 158.95 139.16 L 159.18 138.06 C 159.36 137.22 158.82 136.39 157.98 136.21 C 157.14 136.03 156.31 136.57 156.13 137.41 Z M 155.93 138.36 L 155.62 139.33 C 155.36 140.15 155.82 141.03 156.64 141.29 C 157.46 141.55 158.34 141.10 158.60 140.28 L 158.91 139.31 C 159.17 138.49 158.72 137.61 157.89 137.35 C 157.07 137.09 156.19 137.54 155.93 138.36 Z M 155.66 139.22 L 155.29 140.16 C 154.97 140.96 155.36 141.86 156.16 142.19 C 156.96 142.51 157.87 142.12 158.19 141.32 L 158.56 140.38 C 158.88 139.58 158.49 138.67 157.69 138.35 C 156.89 138.03 155.98 138.42 155.66 139.22 Z M 155.32 140.07 L 154.88 141.01 C 154.52 141.79 154.85 142.72 155.64 143.09 C 156.42 143.45 157.35 143.12 157.71 142.34 L 158.15 141.40 C 158.52 140.62 158.18 139.69 157.40 139.32 C 156.62 138.96 155.69 139.29 155.32 140.07 Z M 154.92 140.94 L 154.44 141.84 C 154.03 142.60 154.31 143.55 155.07 143.96 C 155.83 144.36 156.78 144.08 157.19 143.32 L 157.67 142.41 C 158.08 141.65 157.80 140.70 157.04 140.30 C 156.28 139.89 155.33 140.18 154.92 140.94 Z M 154.48 141.77 L 153.96 142.63 C 153.51 143.36 153.75 144.32 154.49 144.77 C 155.22 145.22 156.18 144.98 156.63 144.24 L 157.15 143.39 C 157.59 142.65 157.36 141.69 156.62 141.25 C 155.88 140.80 154.92 141.04 154.48 141.77 Z M 154.01 142.54 L 153.43 143.39 C 152.94 144.09 153.11 145.07 153.82 145.56 C 154.53 146.05 155.50 145.87 155.99 145.17 L 156.58 144.32 C 157.07 143.62 156.89 142.64 156.18 142.15 C 155.48 141.66 154.50 141.84 154.01 142.54 Z M 153.51 143.28 L 152.79 144.14 C 152.24 144.80 152.33 145.79 152.99 146.34 C 153.65 146.89 154.64 146.80 155.19 146.14 L 155.91 145.28 C 156.46 144.61 156.37 143.63 155.71 143.08 C 155.05 142.52 154.06 142.61 153.51 143.28 Z M 152.92 144.00 L 152.19 144.69 C 151.56 145.28 151.53 146.27 152.12 146.89 C 152.71 147.52 153.70 147.55 154.33 146.96 L 155.06 146.28 C 155.69 145.69 155.72 144.70 155.13 144.07 C 154.54 143.44 153.55 143.41 152.92 144.00 Z M 152.37 144.54 L 151.62 145.06 C 150.91 145.56 150.74 146.53 151.23 147.24 C 151.72 147.94 152.69 148.12 153.40 147.63 L 154.15 147.11 C 154.86 146.62 155.03 145.64 154.54 144.94 C 154.05 144.23 153.08 144.05 152.37 144.54 Z M 151.85 144.93 L 151.02 145.32 C 150.24 145.68 149.90 146.61 150.26 147.39 C 150.62 148.17 151.55 148.51 152.33 148.15 L 153.17 147.76 C 153.95 147.40 154.29 146.47 153.93 145.69 C 153.56 144.91 152.63 144.57 151.85 144.93 Z M 151.33 145.21 L 150.28 145.45 C 149.44 145.64 148.91 146.48 149.11 147.32 C 149.30 148.16 150.14 148.69 150.98 148.49 L 152.02 148.26 C 152.86 148.06 153.39 147.23 153.20 146.39 C 153.00 145.54 152.17 145.02 151.33 145.21 Z M 150.69 145.41 L 149.71 145.37 C 148.85 145.34 148.12 146.01 148.09 146.87 C 148.05 147.73 148.72 148.46 149.59 148.49 L 150.57 148.53 C 151.43 148.57 152.15 147.90 152.19 147.04 C 152.22 146.17 151.55 145.45 150.69 145.41 Z M 150.25 145.49 L 149.44 145.15 C 148.65 144.82 147.73 145.19 147.40 145.99 C 147.06 146.78 147.44 147.70 148.23 148.03 L 149.05 148.37 C 149.84 148.71 150.76 148.33 151.09 147.54 C 151.42 146.74 151.05 145.83 150.25 145.49 Z M 150.00 145.55 L 149.42 144.91 C 148.84 144.27 147.86 144.21 147.22 144.79 C 146.57 145.37 146.52 146.35 147.10 146.99 L 147.68 147.64 C 148.25 148.28 149.24 148.33 149.88 147.75 C 150.52 147.18 150.57 146.19 150.00 145.55 Z M 149.70 145.35 L 149.32 144.44 C 148.99 143.64 148.08 143.27 147.28 143.60 C 146.49 143.93 146.11 144.84 146.44 145.64 L 146.82 146.55 C 147.15 147.35 148.06 147.72 148.86 147.39 C 149.66 147.06 150.03 146.15 149.70 145.35 Z M 149.41 144.73 L 149.19 143.61 C 149.02 142.76 148.20 142.21 147.35 142.38 C 146.51 142.55 145.96 143.37 146.13 144.22 L 146.35 145.34 C 146.52 146.19 147.34 146.74 148.19 146.57 C 149.03 146.40 149.58 145.58 149.41 144.73 Z M 149.21 143.76 L 149.12 142.83 C 149.04 141.98 148.27 141.35 147.41 141.43 C 146.56 141.52 145.93 142.28 146.01 143.14 L 146.10 144.06 C 146.19 144.92 146.95 145.55 147.81 145.46 C 148.67 145.38 149.29 144.62 149.21 143.76 Z M 149.13 142.93 L 149.09 141.94 C 149.06 141.08 148.33 140.40 147.47 140.44 C 146.61 140.47 145.94 141.19 145.97 142.05 L 146.01 143.05 C 146.04 143.91 146.76 144.58 147.62 144.55 C 148.49 144.51 149.16 143.79 149.13 142.93 Z M 149.09 142.02 L 149.10 140.99 C 149.12 140.13 148.43 139.42 147.57 139.40 C 146.70 139.39 146.00 140.08 145.98 140.94 L 145.97 141.97 C 145.95 142.83 146.64 143.54 147.51 143.56 C 148.37 143.57 149.08 142.88 149.09 142.02 Z M 149.10 141.06 L 149.17 140.02 C 149.22 139.16 148.57 138.42 147.71 138.37 C 146.85 138.31 146.11 138.97 146.05 139.83 L 145.99 140.87 C 145.93 141.73 146.58 142.47 147.44 142.52 C 148.31 142.58 149.05 141.93 149.10 141.06 Z M 149.16 140.10 L 149.28 139.09 C 149.37 138.23 148.76 137.46 147.90 137.36 C 147.05 137.26 146.27 137.88 146.17 138.73 L 146.06 139.75 C 145.96 140.61 146.58 141.38 147.43 141.48 C 148.29 141.57 149.06 140.96 149.16 140.10 Z M 149.26 139.18 L 149.44 138.19 C 149.58 137.34 149.01 136.53 148.16 136.38 C 147.32 136.24 146.51 136.80 146.36 137.65 L 146.19 138.64 C 146.04 139.49 146.61 140.30 147.46 140.45 C 148.31 140.59 149.12 140.03 149.26 139.18 Z M 149.41 138.30 L 149.65 137.34 C 149.86 136.50 149.35 135.65 148.51 135.45 C 147.68 135.24 146.83 135.75 146.62 136.58 L 146.38 137.54 C 146.17 138.38 146.68 139.23 147.52 139.44 C 148.36 139.65 149.20 139.14 149.41 138.30 Z M 149.61 137.46 L 149.93 136.52 C 150.21 135.71 149.78 134.82 148.96 134.54 C 148.14 134.27 147.26 134.70 146.98 135.52 L 146.66 136.46 C 146.38 137.27 146.82 138.16 147.63 138.44 C 148.45 138.72 149.34 138.28 149.61 137.46 Z M 149.88 136.66 L 150.29 135.74 C 150.65 134.95 150.30 134.03 149.51 133.67 C 148.72 133.32 147.80 133.67 147.45 134.46 L 147.03 135.38 C 146.68 136.17 147.03 137.09 147.82 137.45 C 148.60 137.80 149.53 137.45 149.88 136.66 Z M 150.23 135.87 L 150.74 134.96 C 151.17 134.21 150.91 133.26 150.16 132.83 C 149.41 132.41 148.46 132.67 148.03 133.42 L 147.51 134.33 C 147.09 135.07 147.35 136.03 148.10 136.45 C 148.85 136.88 149.80 136.62 150.23 135.87 Z M 150.67 135.09 L 151.26 134.24 C 151.76 133.53 151.59 132.56 150.88 132.06 C 150.17 131.57 149.20 131.74 148.71 132.45 L 148.11 133.29 C 147.62 134.00 147.79 134.97 148.49 135.47 C 149.20 135.96 150.17 135.79 150.67 135.09 Z M 151.17 134.36 L 151.81 133.61 C 152.38 132.96 152.30 131.97 151.65 131.41 C 151.00 130.84 150.01 130.92 149.45 131.57 L 148.80 132.32 C 148.24 132.98 148.31 133.96 148.96 134.52 C 149.62 135.09 150.60 135.01 151.17 134.36 Z M 151.69 133.74 L 152.37 133.12 C 153.00 132.53 153.04 131.54 152.46 130.91 C 151.88 130.27 150.89 130.23 150.25 130.82 L 149.58 131.44 C 148.94 132.02 148.90 133.01 149.48 133.65 C 150.07 134.28 151.05 134.32 151.69 133.74 Z M 152.13 133.29 L 153.12 132.68 C 153.86 132.22 154.08 131.26 153.63 130.53 C 153.17 129.80 152.21 129.57 151.48 130.02 L 150.49 130.64 C 149.76 131.09 149.53 132.06 149.98 132.79 C 150.44 133.52 151.40 133.75 152.13 133.29 Z M 152.62 132.88 L 153.56 132.68 C 154.41 132.50 154.94 131.67 154.77 130.83 C 154.59 129.99 153.76 129.45 152.92 129.63 L 151.98 129.82 C 151.13 130.00 150.60 130.83 150.77 131.67 C 150.95 132.52 151.78 133.06 152.62 132.88 Z M 152.63 132.59 L 153.39 132.91 C 154.19 133.24 155.10 132.87 155.43 132.07 C 155.77 131.28 155.39 130.36 154.60 130.03 L 153.84 129.71 C 153.05 129.38 152.13 129.75 151.80 130.55 C 151.47 131.34 151.84 132.26 152.63 132.59 Z M 152.68 132.31 L 153.12 133.00 C 153.59 133.73 154.56 133.94 155.28 133.47 C 156.01 133.01 156.22 132.04 155.75 131.32 L 155.31 130.63 C 154.84 129.90 153.88 129.69 153.15 130.16 C 152.43 130.62 152.22 131.59 152.68 132.31 Z M 152.94 132.61 L 153.23 133.57 C 153.48 134.40 154.35 134.87 155.17 134.62 C 156.00 134.37 156.47 133.50 156.22 132.68 L 155.93 131.71 C 155.69 130.89 154.82 130.42 153.99 130.66 C 153.16 130.91 152.70 131.78 152.94 132.61 Z M 153.18 133.37 L 153.36 134.46 C 153.49 135.31 154.29 135.89 155.14 135.76 C 156.00 135.62 156.58 134.82 156.44 133.97 L 156.27 132.88 C 156.13 132.03 155.33 131.45 154.48 131.58 C 153.63 131.72 153.05 132.52 153.18 133.37 Z M 153.35 134.36 L 153.44 135.42 C 153.52 136.27 154.28 136.91 155.14 136.83 C 155.99 136.75 156.63 135.99 156.55 135.13 L 156.45 134.08 C 156.38 133.22 155.62 132.59 154.76 132.66 C 153.90 132.74 153.27 133.50 153.35 134.36 Z M 153.44 135.34 L 153.48 136.33 C 153.52 137.19 154.24 137.86 155.11 137.82 C 155.97 137.79 156.64 137.06 156.60 136.20 L 156.56 135.21 C 156.52 134.35 155.79 133.68 154.93 133.72 C 154.07 133.75 153.40 134.48 153.44 135.34 Z M 153.48 136.26 L 153.48 137.24 C 153.48 138.11 154.18 138.81 155.04 138.81 C 155.90 138.81 156.60 138.11 156.60 137.25 L 156.60 136.26 C 156.60 135.40 155.90 134.70 155.04 134.70 C 154.18 134.70 153.48 135.40 153.48 136.26 Z M 153.48 137.19 L 153.44 138.20 C 153.41 139.06 154.08 139.78 154.94 139.82 C 155.81 139.85 156.53 139.18 156.56 138.31 L 156.60 137.30 C 156.63 136.44 155.96 135.72 155.10 135.68 C 154.23 135.65 153.51 136.33 153.48 137.19 Z M 153.44 138.15 L 153.38 139.13 C 153.32 139.99 153.97 140.73 154.84 140.79 C 155.70 140.85 156.44 140.19 156.50 139.33 L 156.56 138.36 C 156.62 137.50 155.96 136.75 155.10 136.70 C 154.24 136.64 153.50 137.29 153.44 138.15 Z M 153.38 139.07 L 153.28 140.07 C 153.19 140.93 153.82 141.70 154.67 141.79 C 155.53 141.87 156.30 141.25 156.39 140.39 L 156.49 139.39 C 156.58 138.53 155.95 137.77 155.10 137.68 C 154.24 137.59 153.47 138.21 153.38 139.07 Z M 153.29 139.99 L 153.13 141.00 C 153.00 141.85 153.58 142.65 154.44 142.78 C 155.29 142.91 156.09 142.33 156.22 141.48 L 156.38 140.48 C 156.51 139.62 155.93 138.82 155.08 138.69 C 154.22 138.56 153.43 139.14 153.29 139.99 Z M 153.16 140.88 L 152.93 141.86 C 152.73 142.70 153.26 143.54 154.10 143.73 C 154.94 143.93 155.78 143.41 155.97 142.57 L 156.20 141.59 C 156.39 140.75 155.87 139.91 155.03 139.72 C 154.19 139.52 153.35 140.04 153.16 140.88 Z M 152.97 141.70 L 152.62 142.73 C 152.34 143.55 152.77 144.44 153.59 144.72 C 154.40 145.00 155.29 144.57 155.57 143.75 L 155.93 142.72 C 156.21 141.91 155.77 141.02 154.96 140.74 C 154.14 140.45 153.26 140.89 152.97 141.70 Z M 152.71 142.53 L 152.24 143.44 C 151.84 144.21 152.15 145.15 152.91 145.54 C 153.68 145.94 154.62 145.63 155.01 144.87 L 155.48 143.96 C 155.88 143.19 155.58 142.25 154.81 141.85 C 154.04 141.46 153.10 141.76 152.71 142.53 Z M 152.40 143.19 L 151.82 143.93 C 151.28 144.61 151.40 145.59 152.08 146.12 C 152.76 146.65 153.74 146.54 154.27 145.86 L 154.85 145.12 C 155.39 144.44 155.27 143.46 154.59 142.93 C 153.91 142.39 152.93 142.51 152.40 143.19 Z M 152.14 143.62 L 151.34 144.19 C 150.64 144.70 150.48 145.67 150.98 146.37 C 151.48 147.07 152.46 147.23 153.16 146.73 L 153.95 146.16 C 154.65 145.66 154.82 144.69 154.31 143.99 C 153.81 143.28 152.84 143.12 152.14 143.62 Z M 151.86 143.95 L 150.86 144.21 C 150.03 144.43 149.52 145.28 149.74 146.11 C 149.96 146.95 150.81 147.45 151.64 147.23 L 152.64 146.97 C 153.48 146.76 153.98 145.91 153.76 145.07 C 153.55 144.24 152.69 143.74 151.86 143.95 Z M 151.53 144.19 L 150.61 144.02 C 149.77 143.87 148.95 144.43 148.80 145.28 C 148.65 146.13 149.21 146.94 150.06 147.09 L 150.97 147.26 C 151.82 147.41 152.63 146.85 152.79 146.00 C 152.94 145.15 152.38 144.34 151.53 144.19 Z M 151.37 144.38 L 150.72 143.81 C 150.07 143.24 149.08 143.31 148.51 143.95 C 147.95 144.60 148.01 145.59 148.66 146.16 L 149.31 146.73 C 149.95 147.30 150.94 147.23 151.51 146.59 C 152.08 145.94 152.02 144.95 151.37 144.38 Z M 151.11 144.35 L 150.72 143.47 C 150.37 142.68 149.45 142.32 148.66 142.67 C 147.87 143.02 147.52 143.94 147.87 144.73 L 148.26 145.62 C 148.61 146.41 149.53 146.76 150.32 146.41 C 151.11 146.06 151.46 145.14 151.11 144.35 Z M 150.83 143.80 L 150.61 142.71 C 150.45 141.87 149.63 141.32 148.78 141.48 C 147.93 141.65 147.38 142.47 147.55 143.32 L 147.76 144.40 C 147.93 145.25 148.75 145.80 149.60 145.63 C 150.44 145.46 150.99 144.64 150.83 143.80 Z M 150.64 142.87 L 150.55 141.92 C 150.47 141.07 149.71 140.43 148.85 140.51 C 147.99 140.59 147.36 141.35 147.44 142.21 L 147.53 143.16 C 147.61 144.02 148.37 144.65 149.22 144.57 C 150.08 144.49 150.71 143.73 150.64 142.87 Z M 150.55 142.02 L 150.52 141.03 C 150.50 140.17 149.78 139.49 148.91 139.52 C 148.05 139.55 147.38 140.27 147.40 141.13 L 147.43 142.12 C 147.46 142.98 148.18 143.65 149.04 143.63 C 149.90 143.60 150.58 142.88 150.55 142.02 Z M 150.52 141.10 L 150.54 140.07 C 150.55 139.20 149.85 138.50 148.99 138.49 C 148.13 138.48 147.42 139.17 147.41 140.03 L 147.40 141.06 C 147.39 141.92 148.08 142.63 148.94 142.64 C 149.81 142.65 150.51 141.96 150.52 141.10 Z M 150.53 140.11 L 150.58 139.07 C 150.61 138.21 149.94 137.48 149.08 137.44 C 148.22 137.41 147.49 138.08 147.46 138.94 L 147.41 139.98 C 147.38 140.85 148.05 141.57 148.91 141.61 C 149.77 141.64 150.50 140.97 150.53 140.11 Z M 150.57 139.13 L 150.66 138.10 C 150.73 137.24 150.09 136.49 149.23 136.42 C 148.37 136.35 147.62 136.99 147.54 137.85 L 147.46 138.88 C 147.39 139.74 148.03 140.49 148.89 140.56 C 149.75 140.63 150.50 139.99 150.57 139.13 Z M 150.64 138.23 L 150.81 137.24 C 150.95 136.39 150.37 135.58 149.52 135.44 C 148.67 135.30 147.87 135.88 147.73 136.73 L 147.56 137.72 C 147.42 138.57 147.99 139.37 148.84 139.52 C 149.69 139.66 150.50 139.08 150.64 138.23 Z M 150.76 137.45 L 151.04 136.54 C 151.30 135.72 150.84 134.84 150.02 134.58 C 149.20 134.32 148.32 134.78 148.06 135.60 L 147.78 136.51 C 147.52 137.34 147.98 138.21 148.80 138.47 C 149.62 138.73 150.50 138.27 150.76 137.45 Z M 150.90 136.86 L 151.42 135.97 C 151.85 135.23 151.60 134.27 150.85 133.84 C 150.11 133.40 149.15 133.66 148.72 134.40 L 148.20 135.29 C 147.77 136.03 148.02 136.99 148.77 137.42 C 149.51 137.86 150.47 137.60 150.90 136.86 Z M 151.18 136.29 L 151.88 135.58 C 152.49 134.97 152.48 133.98 151.87 133.37 C 151.26 132.76 150.27 132.77 149.66 133.38 L 148.96 134.09 C 148.35 134.70 148.36 135.69 148.97 136.29 C 149.58 136.90 150.57 136.90 151.18 136.29 Z M 151.58 135.81 L 152.41 135.31 C 153.15 134.86 153.38 133.90 152.93 133.17 C 152.49 132.43 151.53 132.19 150.79 132.64 L 149.96 133.14 C 149.23 133.59 148.99 134.55 149.44 135.29 C 149.88 136.02 150.84 136.26 151.58 135.81 Z M 152.06 135.47 L 152.98 135.18 C 153.81 134.92 154.27 134.05 154.01 133.23 C 153.75 132.40 152.88 131.94 152.06 132.20 L 151.14 132.48 C 150.31 132.74 149.85 133.62 150.11 134.44 C 150.36 135.26 151.24 135.72 152.06 135.47 Z M 152.50 135.25 L 153.45 135.26 C 154.31 135.28 155.02 134.59 155.03 133.73 C 155.04 132.87 154.36 132.16 153.49 132.14 L 152.54 132.13 C 151.68 132.12 150.97 132.80 150.96 133.67 C 150.95 134.53 151.63 135.24 152.50 135.25 Z M 152.83 135.13 L 153.76 135.54 C 154.54 135.90 155.47 135.55 155.82 134.76 C 156.17 133.97 155.82 133.05 155.03 132.70 L 154.11 132.28 C 153.32 131.93 152.40 132.28 152.05 133.06 C 151.69 133.85 152.04 134.78 152.83 135.13 Z M 153.31 135.24 L 153.98 135.90 C 154.60 136.50 155.59 136.49 156.19 135.87 C 156.79 135.25 156.78 134.26 156.16 133.66 L 155.49 133.00 C 154.87 132.40 153.88 132.41 153.28 133.03 C 152.68 133.65 152.69 134.63 153.31 135.24 Z M 153.78 135.66 L 154.33 136.46 C 154.82 137.17 155.79 137.35 156.50 136.87 C 157.21 136.38 157.39 135.41 156.91 134.70 L 156.36 133.90 C 155.87 133.19 154.90 133.00 154.19 133.49 C 153.48 133.98 153.30 134.95 153.78 135.66 Z M 154.24 136.30 L 154.72 137.23 C 155.12 137.99 156.06 138.29 156.83 137.89 C 157.59 137.49 157.89 136.54 157.49 135.78 L 157.00 134.86 C 156.60 134.09 155.66 133.80 154.89 134.20 C 154.13 134.60 153.84 135.54 154.24 136.30 Z M 154.66 137.11 L 155.07 138.08 C 155.40 138.88 156.32 139.25 157.11 138.92 C 157.91 138.59 158.28 137.67 157.95 136.88 L 157.54 135.90 C 157.21 135.11 156.30 134.73 155.50 135.06 C 154.71 135.40 154.33 136.31 154.66 137.11 Z M 155.03 137.98 L 155.35 138.94 C 155.63 139.76 156.51 140.20 157.33 139.93 C 158.15 139.65 158.59 138.77 158.31 137.95 L 157.99 136.99 C 157.72 136.17 156.84 135.73 156.02 136.00 C 155.20 136.27 154.76 137.16 155.03 137.98 Z M 155.32 138.82 L 155.55 139.76 C 155.76 140.60 156.61 141.11 157.44 140.90 C 158.28 140.69 158.79 139.84 158.58 139.01 L 158.35 138.07 C 158.14 137.23 157.29 136.72 156.46 136.93 C 155.62 137.14 155.11 137.99 155.32 138.82 Z M 155.53 139.64 L 155.68 140.58 C 155.82 141.43 156.63 142.00 157.48 141.86 C 158.33 141.72 158.90 140.92 158.76 140.07 L 158.61 139.13 C 158.47 138.28 157.66 137.70 156.81 137.84 C 155.96 137.98 155.39 138.79 155.53 139.64 Z M 155.67 140.47 L 155.76 141.47 C 155.85 142.33 156.61 142.95 157.47 142.87 C 158.33 142.79 158.95 142.03 158.87 141.17 L 158.78 140.17 C 158.69 139.32 157.93 138.69 157.07 138.77 C 156.21 138.85 155.59 139.61 155.67 140.47 Z M 155.76 141.40 L 155.81 142.45 C 155.86 143.31 156.59 143.98 157.45 143.93 C 158.32 143.89 158.98 143.15 158.93 142.29 L 158.88 141.24 C 158.83 140.38 158.10 139.71 157.24 139.76 C 156.38 139.80 155.71 140.54 155.76 141.40 Z M 155.81 142.42 L 155.84 143.35 C 155.86 144.21 156.58 144.89 157.45 144.86 C 158.31 144.84 158.99 144.12 158.96 143.26 L 158.93 142.33 C 158.91 141.47 158.19 140.79 157.33 140.81 C 156.47 140.84 155.79 141.56 155.81 142.42 Z M 155.84 143.32 L 155.85 144.31 C 155.86 145.18 156.57 145.87 157.43 145.86 C 158.29 145.85 158.98 145.14 158.97 144.28 L 158.96 143.28 C 158.95 142.42 158.24 141.73 157.38 141.74 C 156.52 141.75 155.83 142.46 155.84 143.32 Z M 155.85 144.29 L 155.85 145.32 C 155.84 146.18 156.54 146.88 157.40 146.88 C 158.26 146.89 158.96 146.19 158.97 145.33 L 158.97 144.30 C 158.98 143.44 158.28 142.74 157.42 142.73 C 156.56 142.73 155.85 143.43 155.85 144.29 Z M 155.85 145.29 L 155.82 146.33 C 155.81 147.19 156.49 147.91 157.35 147.92 C 158.21 147.94 158.93 147.26 158.95 146.40 L 158.97 145.36 C 158.99 144.50 158.30 143.78 157.44 143.76 C 156.58 143.74 155.87 144.43 155.85 145.29 Z M 155.82 146.30 L 155.78 147.33 C 155.75 148.19 156.42 148.91 157.28 148.95 C 158.14 148.99 158.87 148.32 158.90 147.45 L 158.94 146.43 C 158.98 145.57 158.31 144.84 157.45 144.80 C 156.59 144.77 155.86 145.44 155.82 146.30 Z M 155.78 147.29 L 155.72 148.33 C 155.66 149.19 156.31 149.94 157.17 149.99 C 158.03 150.05 158.78 149.39 158.83 148.53 L 158.90 147.49 C 158.96 146.63 158.30 145.89 157.44 145.83 C 156.58 145.78 155.84 146.43 155.78 147.29 Z M 155.72 148.29 L 155.62 149.31 C 155.54 150.17 156.18 150.93 157.03 151.01 C 157.89 151.09 158.65 150.46 158.73 149.60 L 158.83 148.58 C 158.91 147.72 158.28 146.96 157.42 146.88 C 156.56 146.80 155.80 147.43 155.72 148.29 Z M 155.63 149.26 L 155.51 150.25 C 155.40 151.10 156.00 151.88 156.86 151.99 C 157.71 152.10 158.50 151.49 158.60 150.64 L 158.73 149.65 C 158.84 148.80 158.23 148.01 157.37 147.91 C 156.52 147.80 155.74 148.41 155.63 149.26 Z M 155.51 150.19 L 155.36 151.16 C 155.22 152.01 155.80 152.81 156.65 152.95 C 157.50 153.09 158.30 152.51 158.44 151.66 L 158.60 150.69 C 158.73 149.84 158.16 149.04 157.30 148.90 C 156.45 148.76 155.65 149.34 155.51 150.19 Z M 155.37 151.10 L 155.18 152.05 C 155.01 152.90 155.56 153.72 156.41 153.89 C 157.25 154.06 158.07 153.51 158.24 152.66 L 158.43 151.71 C 158.60 150.87 158.05 150.04 157.20 149.88 C 156.36 149.71 155.54 150.26 155.37 151.10 Z M 155.19 152.00 L 154.97 152.95 C 154.77 153.79 155.29 154.63 156.13 154.83 C 156.97 155.02 157.81 154.50 158.01 153.66 L 158.23 152.72 C 158.43 151.88 157.91 151.04 157.07 150.84 C 156.23 150.64 155.39 151.16 155.19 152.00 Z M 154.98 152.90 L 154.72 153.85 C 154.50 154.68 154.99 155.54 155.82 155.76 C 156.66 155.99 157.51 155.49 157.74 154.66 L 157.99 153.71 C 158.22 152.88 157.72 152.02 156.89 151.80 C 156.06 151.57 155.20 152.07 154.98 152.90 Z M 154.73 153.81 L 154.45 154.77 C 154.21 155.60 154.68 156.46 155.50 156.71 C 156.33 156.95 157.20 156.48 157.44 155.65 L 157.73 154.70 C 157.97 153.87 157.50 153.00 156.67 152.76 C 155.85 152.51 154.98 152.99 154.73 153.81 Z M 154.46 154.74 L 154.16 155.70 C 153.90 156.52 154.35 157.40 155.18 157.66 C 156.00 157.92 156.87 157.46 157.13 156.64 L 157.44 155.68 C 157.70 154.86 157.24 153.98 156.42 153.72 C 155.59 153.46 154.72 153.92 154.46 154.74 Z M 154.16 155.68 L 153.84 156.65 C 153.58 157.47 154.02 158.35 154.84 158.62 C 155.66 158.89 156.54 158.44 156.81 157.62 L 157.13 156.66 C 157.40 155.84 156.95 154.96 156.13 154.69 C 155.31 154.42 154.43 154.87 154.16 155.68 Z M 153.85 156.64 L 153.53 157.59 C 153.26 158.41 153.70 159.30 154.52 159.57 C 155.33 159.84 156.22 159.40 156.49 158.58 L 156.81 157.63 C 157.08 156.81 156.64 155.93 155.82 155.66 C 155.00 155.38 154.12 155.82 153.85 156.64 Z M 153.53 157.59 L 153.22 158.52 C 152.94 159.34 153.38 160.22 154.20 160.50 C 155.01 160.78 155.90 160.34 156.17 159.52 L 156.49 158.59 C 156.77 157.77 156.33 156.88 155.51 156.61 C 154.69 156.33 153.81 156.77 153.53 157.59 Z M 153.22 158.51 L 152.90 159.45 C 152.62 160.27 153.05 161.16 153.86 161.44 C 154.68 161.72 155.57 161.28 155.85 160.47 L 156.17 159.53 C 156.45 158.71 156.02 157.83 155.20 157.55 C 154.39 157.26 153.50 157.70 153.22 158.51 Z M 152.90 159.44 L 152.57 160.38 C 152.28 161.20 152.70 162.09 153.52 162.38 C 154.33 162.66 155.22 162.24 155.51 161.43 L 155.84 160.48 C 156.13 159.67 155.71 158.78 154.89 158.49 C 154.08 158.20 153.19 158.63 152.90 159.44 Z M 152.57 160.37 L 152.22 161.32 C 151.93 162.12 152.34 163.02 153.15 163.32 C 153.96 163.62 154.86 163.20 155.16 162.39 L 155.50 161.44 C 155.80 160.63 155.38 159.74 154.58 159.44 C 153.77 159.14 152.87 159.56 152.57 160.37 Z M 152.23 161.30 L 151.86 162.25 C 151.56 163.06 151.96 163.96 152.76 164.27 C 153.57 164.58 154.47 164.17 154.78 163.37 L 155.15 162.41 C 155.46 161.61 155.05 160.70 154.25 160.40 C 153.44 160.09 152.54 160.49 152.23 161.30 Z M 151.87 162.23 L 151.48 163.22 C 151.16 164.02 151.55 164.93 152.35 165.25 C 153.15 165.57 154.06 165.18 154.38 164.38 L 154.77 163.39 C 155.09 162.59 154.70 161.68 153.90 161.36 C 153.10 161.04 152.19 161.43 151.87 162.23 Z M 151.49 163.20 L 151.08 164.17 C 150.75 164.97 151.13 165.88 151.93 166.21 C 152.72 166.54 153.64 166.17 153.97 165.37 L 154.37 164.40 C 154.70 163.60 154.32 162.69 153.53 162.36 C 152.73 162.03 151.82 162.40 151.49 163.20 Z M 151.09 164.16 L 150.69 165.10 C 150.35 165.89 150.72 166.81 151.51 167.15 C 152.30 167.48 153.22 167.12 153.56 166.32 L 153.96 165.39 C 154.30 164.59 153.93 163.68 153.14 163.34 C 152.34 163.00 151.43 163.37 151.09 164.16 Z M 150.69 165.08 L 150.30 165.97 C 149.96 166.76 150.32 167.68 151.11 168.03 C 151.90 168.37 152.82 168.01 153.17 167.22 L 153.55 166.34 C 153.90 165.55 153.54 164.63 152.75 164.28 C 151.96 163.93 151.04 164.29 150.69 165.08 Z M 150.31 165.96 L 149.95 166.77 C 149.59 167.56 149.95 168.49 150.74 168.84 C 151.52 169.19 152.45 168.83 152.80 168.05 L 153.16 167.23 C 153.51 166.44 153.16 165.52 152.37 165.17 C 151.58 164.82 150.66 165.17 150.31 165.96 Z M 149.95 166.76 L 149.53 167.70 C 149.17 168.48 149.52 169.41 150.30 169.76 C 151.09 170.12 152.01 169.77 152.37 168.99 L 152.79 168.06 C 153.15 167.27 152.80 166.35 152.02 165.99 C 151.23 165.63 150.31 165.98 149.95 166.76 Z M 149.54 167.68 L 149.13 168.54 C 148.76 169.32 149.09 170.25 149.87 170.62 C 150.65 170.99 151.58 170.65 151.95 169.87 L 152.36 169.01 C 152.73 168.23 152.39 167.30 151.61 166.93 C 150.83 166.56 149.90 166.90 149.54 167.68 Z M 149.14 168.51 L 148.71 169.37 C 148.33 170.15 148.65 171.08 149.42 171.47 C 150.19 171.85 151.13 171.53 151.51 170.76 L 151.94 169.90 C 152.32 169.13 152.01 168.19 151.23 167.81 C 150.46 167.42 149.52 167.74 149.14 168.51 Z M 148.73 169.35 L 148.24 170.28 C 147.84 171.05 148.14 171.99 148.90 172.39 C 149.67 172.79 150.61 172.49 151.01 171.72 L 151.50 170.79 C 151.90 170.02 151.60 169.08 150.83 168.68 C 150.07 168.28 149.13 168.58 148.73 169.35 Z M 148.25 170.26 L 147.80 171.10 C 147.39 171.86 147.67 172.81 148.43 173.22 C 149.19 173.63 150.14 173.34 150.55 172.59 L 151.00 171.74 C 151.41 170.99 151.13 170.04 150.37 169.63 C 149.61 169.22 148.66 169.50 148.25 170.26 Z M 147.81 171.09 L 147.31 171.98 C 146.89 172.74 147.17 173.69 147.92 174.11 C 148.67 174.52 149.62 174.25 150.04 173.50 L 150.54 172.60 C 150.96 171.85 150.68 170.90 149.93 170.48 C 149.17 170.06 148.22 170.33 147.81 171.09 Z M 147.32 171.97 L 146.80 172.88 C 146.38 173.63 146.64 174.59 147.39 175.01 C 148.14 175.43 149.09 175.17 149.52 174.42 L 150.03 173.51 C 150.46 172.76 150.19 171.81 149.44 171.38 C 148.69 170.96 147.74 171.22 147.32 171.97 Z M 146.81 172.87 L 146.30 173.75 C 145.87 174.50 146.12 175.45 146.87 175.89 C 147.61 176.32 148.57 176.06 149.00 175.32 L 149.51 174.43 C 149.94 173.69 149.69 172.73 148.94 172.30 C 148.20 171.87 147.24 172.12 146.81 172.87 Z M 146.31 173.74 L 145.82 174.56 C 145.38 175.30 145.62 176.26 146.36 176.70 C 147.10 177.14 148.06 176.90 148.50 176.16 L 148.99 175.33 C 149.43 174.59 149.19 173.63 148.45 173.19 C 147.71 172.75 146.75 173.00 146.31 173.74 Z M 145.83 174.54 L 145.22 175.52 C 144.77 176.25 144.99 177.21 145.72 177.67 C 146.45 178.13 147.42 177.90 147.87 177.17 L 148.48 176.18 C 148.94 175.45 148.71 174.49 147.98 174.03 C 147.25 173.58 146.29 173.80 145.83 174.54 Z M 145.25 175.48 L 144.69 176.31 C 144.22 177.03 144.41 178.00 145.13 178.47 C 145.85 178.95 146.82 178.76 147.30 178.04 L 147.85 177.21 C 148.32 176.49 148.13 175.52 147.41 175.04 C 146.69 174.57 145.72 174.76 145.25 175.48 Z M 144.72 176.27 L 144.20 177.00 C 143.70 177.70 143.87 178.68 144.57 179.18 C 145.27 179.68 146.24 179.52 146.74 178.81 L 147.27 178.08 C 147.77 177.38 147.60 176.40 146.90 175.90 C 146.20 175.40 145.22 175.57 144.72 176.27 Z M 144.23 176.96 L 143.71 177.65 C 143.18 178.34 143.32 179.32 144.00 179.84 C 144.69 180.36 145.67 180.23 146.19 179.54 L 146.72 178.85 C 147.24 178.17 147.10 177.19 146.42 176.66 C 145.73 176.14 144.75 176.28 144.23 176.96 Z M 143.74 177.61 L 143.17 178.31 C 142.63 178.98 142.73 179.96 143.40 180.50 C 144.06 181.05 145.05 180.95 145.59 180.28 L 146.16 179.58 C 146.70 178.91 146.60 177.93 145.93 177.39 C 145.27 176.84 144.28 176.94 143.74 177.61 Z M 143.21 178.26 L 142.55 179.01 C 141.98 179.66 142.04 180.64 142.69 181.21 C 143.34 181.78 144.32 181.72 144.89 181.07 L 145.55 180.33 C 146.12 179.68 146.06 178.69 145.41 178.12 C 144.76 177.55 143.78 177.62 143.21 178.26 Z M 142.59 178.97 L 141.79 179.81 C 141.20 180.43 141.23 181.42 141.85 182.01 C 142.48 182.61 143.47 182.58 144.06 181.95 L 144.86 181.12 C 145.45 180.49 145.42 179.50 144.80 178.91 C 144.17 178.32 143.18 178.34 142.59 178.97 Z M 141.82 179.78 L 141.19 180.41 C 140.58 181.02 140.58 182.01 141.19 182.62 C 141.80 183.23 142.79 183.23 143.40 182.62 L 144.03 181.98 C 144.64 181.37 144.64 180.38 144.03 179.78 C 143.42 179.17 142.43 179.17 141.82 179.78 Z M 141.21 180.40 L 140.53 181.06 C 139.91 181.66 139.90 182.65 140.50 183.26 C 141.11 183.88 142.09 183.89 142.71 183.29 L 143.39 182.63 C 144.00 182.03 144.02 181.04 143.41 180.43 C 142.81 179.81 141.82 179.80 141.21 180.40 Z M 140.54 181.05 L 139.82 181.74 C 139.19 182.34 139.17 183.33 139.77 183.95 C 140.36 184.57 141.35 184.59 141.97 184.00 L 142.70 183.30 C 143.32 182.71 143.34 181.72 142.75 181.09 C 142.15 180.47 141.16 180.45 140.54 181.05 Z M 139.82 181.73 L 139.06 182.46 C 138.43 183.05 138.41 184.04 139.00 184.66 C 139.59 185.29 140.58 185.32 141.21 184.72 L 141.97 184.00 C 142.59 183.41 142.62 182.42 142.03 181.80 C 141.44 181.17 140.45 181.14 139.82 181.73 Z M 139.06 182.45 L 138.28 183.19 C 137.65 183.78 137.62 184.77 138.21 185.40 C 138.80 186.02 139.79 186.05 140.42 185.46 L 141.20 184.73 C 141.83 184.14 141.86 183.15 141.27 182.52 C 140.68 181.89 139.69 181.86 139.06 182.45 Z M 138.28 183.19 L 137.82 183.62 C 137.19 184.21 137.16 185.20 137.75 185.83 C 138.34 186.46 139.33 186.49 139.95 185.90 L 140.42 185.47 C 141.05 184.88 141.08 183.89 140.49 183.26 C 139.90 182.63 138.91 182.60 138.28 183.19 Z"
      fill="black"
      fill-rule="nonzero" /></svg>