<svg xmlns="http://www.w3.org/2000/svg" width="300" height="300" viewBox="0 0 300 300">
<path d="M 196.92 79.74 L 197.35 78.45 C 197.63 77.63 197.19 76.75 196.37 76.47 C 195.56 76.19 194.67 76.63 194.39 77.45 L 193.96 78.74 C 193.68 79.55 194.12 80.44 194.94 80.72 C 195.75 80.99 196.64 80.55 196.92 79.74 Z M 197.35 78.46 L 197.74 77.35 C 198.02 76.53 197.59 75.64 196.77 75.36 C 195.96 75.08 195.07 75.51 194.79 76.32 L 194.40 77.44 C 194.12 78.25 194.55 79.14 195.36 79.42 C 196.18 79.71 197.06 79.28 197.35 78.46 Z M 197.72 77.39 L 198.01 76.62 C 198.32 75.82 197.91 74.92 197.11 74.61 C 196.30 74.30 195.40 74.71 195.09 75.51 L 194.80 76.28 C 194.50 77.09 194.90 77.99 195.71 78.29 C 196.51 78.60 197.41 78.20 197.72 77.39 Z M 197.86 76.92 L 198.02 76.69 C 198.49 75.97 198.29 75.00 197.57 74.52 C 196.85 74.05 195.88 74.25 195.40 74.97 L 195.25 75.21 C 194.78 75.93 194.98 76.90 195.70 77.37 C 196.42 77.85 197.39 77.64 197.86 76.92 Z M 195.16 75.62 L 195.08 76.23 C 194.97 77.09 195.57 77.87 196.42 77.99 C 197.28 78.10 198.06 77.50 198.18 76.65 L 198.26 76.04 C 198.37 75.18 197.77 74.40 196.92 74.28 C 196.06 74.17 195.28 74.77 195.16 75.62 Z M 195.12 76.04 L 194.78 77.33 C 194.56 78.16 195.06 79.02 195.90 79.24 C 196.73 79.45 197.58 78.95 197.80 78.12 L 198.14 76.83 C 198.36 76.00 197.86 75.15 197.02 74.93 C 196.19 74.71 195.34 75.21 195.12 76.04 Z M 194.81 77.25 L 194.45 78.35 C 194.19 79.17 194.64 80.05 195.46 80.32 C 196.28 80.58 197.16 80.13 197.42 79.31 L 197.78 78.20 C 198.04 77.38 197.59 76.50 196.77 76.24 C 195.95 75.97 195.07 76.43 194.81 77.25 Z M 194.47 78.30 L 194.13 79.23 C 193.84 80.04 194.26 80.94 195.07 81.23 C 195.88 81.52 196.78 81.10 197.07 80.29 L 197.40 79.36 C 197.70 78.55 197.28 77.65 196.47 77.36 C 195.65 77.07 194.76 77.49 194.47 78.30 Z M 194.14 79.20 L 193.77 80.15 C 193.46 80.96 193.86 81.86 194.67 82.17 C 195.47 82.48 196.37 82.09 196.69 81.28 L 197.06 80.33 C 197.37 79.52 196.97 78.62 196.16 78.31 C 195.36 77.99 194.46 78.39 194.14 79.20 Z M 193.79 80.12 L 193.39 81.08 C 193.07 81.88 193.45 82.79 194.24 83.12 C 195.04 83.44 195.95 83.06 196.28 82.26 L 196.67 81.31 C 197.00 80.51 196.62 79.60 195.82 79.27 C 195.02 78.95 194.11 79.33 193.79 80.12 Z M 193.40 81.05 L 193.00 81.98 C 192.66 82.77 193.03 83.69 193.82 84.03 C 194.61 84.37 195.53 84.01 195.87 83.22 L 196.27 82.29 C 196.61 81.50 196.25 80.58 195.46 80.24 C 194.67 79.90 193.75 80.26 193.40 81.05 Z M 193.02 81.95 L 192.58 82.90 C 192.23 83.69 192.57 84.61 193.36 84.97 C 194.14 85.33 195.07 84.98 195.43 84.19 L 195.86 83.24 C 196.22 82.46 195.87 81.53 195.08 81.18 C 194.30 80.82 193.37 81.17 193.02 81.95 Z M 192.60 82.87 L 192.15 83.81 C 191.78 84.58 192.11 85.52 192.89 85.89 C 193.67 86.26 194.60 85.93 194.97 85.15 L 195.41 84.22 C 195.79 83.44 195.46 82.51 194.68 82.14 C 193.90 81.77 192.97 82.10 192.60 82.87 Z M 192.16 83.78 L 191.73 84.67 C 191.34 85.44 191.66 86.37 192.43 86.76 C 193.20 87.14 194.14 86.83 194.52 86.05 L 194.96 85.17 C 195.34 84.40 195.03 83.46 194.25 83.08 C 193.48 82.70 192.55 83.01 192.16 83.78 Z M 191.73 84.65 L 191.30 85.51 C 190.91 86.28 191.21 87.22 191.98 87.61 C 192.75 88.00 193.69 87.69 194.08 86.92 L 194.52 86.07 C 194.91 85.30 194.60 84.36 193.83 83.97 C 193.06 83.58 192.12 83.88 191.73 84.65 Z M 191.30 85.51 L 190.86 86.36 C 190.47 87.13 190.78 88.07 191.55 88.46 C 192.32 88.85 193.26 88.55 193.65 87.78 L 194.08 86.92 C 194.47 86.16 194.17 85.22 193.40 84.82 C 192.63 84.43 191.69 84.74 191.30 85.51 Z M 190.86 86.37 L 190.43 87.23 C 190.04 88.00 190.35 88.94 191.12 89.32 C 191.89 89.71 192.83 89.40 193.21 88.63 L 193.65 87.77 C 194.04 87.00 193.73 86.06 192.96 85.68 C 192.19 85.29 191.25 85.60 190.86 86.37 Z M 190.43 87.23 L 189.98 88.11 C 189.59 88.88 189.90 89.82 190.67 90.21 C 191.44 90.59 192.38 90.29 192.77 89.52 L 193.21 88.63 C 193.60 87.86 193.29 86.93 192.52 86.54 C 191.75 86.15 190.81 86.46 190.43 87.23 Z M 189.98 88.11 L 189.53 89.01 C 189.14 89.78 189.44 90.72 190.21 91.11 C 190.98 91.50 191.92 91.19 192.31 90.42 L 192.77 89.52 C 193.16 88.75 192.85 87.81 192.08 87.42 C 191.31 87.03 190.37 87.34 189.98 88.11 Z M 189.53 89.00 L 189.06 89.93 C 188.66 90.69 188.97 91.63 189.73 92.03 C 190.50 92.42 191.44 92.12 191.83 91.35 L 192.31 90.43 C 192.70 89.66 192.40 88.72 191.63 88.33 C 190.86 87.93 189.92 88.24 189.53 89.00 Z M 189.06 89.92 L 188.67 90.67 C 188.27 91.43 188.57 92.38 189.33 92.78 C 190.09 93.17 191.04 92.88 191.44 92.11 L 191.83 91.36 C 192.23 90.60 191.93 89.65 191.17 89.25 C 190.40 88.85 189.46 89.15 189.06 89.92 Z M 188.67 90.66 L 188.28 91.39 C 187.88 92.16 188.17 93.10 188.93 93.51 C 189.69 93.91 190.64 93.62 191.04 92.86 L 191.43 92.12 C 191.83 91.36 191.55 90.42 190.78 90.01 C 190.02 89.61 189.08 89.90 188.67 90.66 Z M 188.29 91.38 L 187.86 92.17 C 187.45 92.93 187.73 93.88 188.49 94.29 C 189.25 94.70 190.20 94.42 190.61 93.66 L 191.03 92.87 C 191.45 92.11 191.16 91.16 190.40 90.75 C 189.65 90.34 188.70 90.63 188.29 91.38 Z M 187.87 92.16 L 187.39 93.03 C 186.97 93.78 187.25 94.73 188.00 95.15 C 188.76 95.57 189.71 95.29 190.12 94.54 L 190.60 93.67 C 191.02 92.91 190.74 91.96 189.99 91.55 C 189.23 91.13 188.28 91.41 187.87 92.16 Z M 187.39 93.02 L 186.85 93.99 C 186.43 94.74 186.70 95.69 187.45 96.12 C 188.20 96.54 189.15 96.27 189.58 95.52 L 190.12 94.55 C 190.54 93.79 190.27 92.84 189.52 92.42 C 188.77 92.00 187.82 92.27 187.39 93.02 Z M 186.86 93.98 L 186.23 95.08 C 185.81 95.83 186.07 96.78 186.82 97.21 C 187.57 97.63 188.52 97.37 188.95 96.62 L 189.57 95.52 C 190.00 94.78 189.73 93.82 188.98 93.40 C 188.24 92.97 187.28 93.23 186.86 93.98 Z M 186.24 95.07 L 185.76 95.90 C 185.33 96.65 185.59 97.60 186.34 98.03 C 187.09 98.46 188.04 98.20 188.47 97.45 L 188.94 96.63 C 189.37 95.88 189.11 94.93 188.37 94.50 C 187.62 94.07 186.66 94.33 186.24 95.07 Z M 185.76 95.90 L 185.31 96.68 C 184.88 97.43 185.13 98.39 185.88 98.82 C 186.62 99.25 187.58 98.99 188.01 98.25 L 188.47 97.46 C 188.90 96.71 188.64 95.76 187.90 95.32 C 187.15 94.89 186.20 95.15 185.76 95.90 Z M 185.31 96.68 L 184.83 97.51 C 184.39 98.26 184.65 99.21 185.39 99.65 C 186.14 100.08 187.09 99.83 187.53 99.08 L 188.01 98.25 C 188.44 97.51 188.19 96.55 187.44 96.12 C 186.70 95.68 185.74 95.94 185.31 96.68 Z M 184.83 97.51 L 184.32 98.37 C 183.89 99.11 184.14 100.07 184.88 100.51 C 185.63 100.94 186.58 100.69 187.02 99.95 L 187.52 99.08 C 187.96 98.34 187.71 97.38 186.96 96.95 C 186.22 96.51 185.26 96.76 184.83 97.51 Z M 184.33 98.37 L 183.81 99.25 C 183.37 100.00 183.62 100.95 184.36 101.39 C 185.10 101.83 186.06 101.58 186.50 100.84 L 187.02 99.95 C 187.45 99.21 187.21 98.25 186.46 97.81 C 185.72 97.38 184.76 97.62 184.33 98.37 Z M 183.81 99.25 L 183.27 100.15 C 182.84 100.89 183.08 101.85 183.82 102.29 C 184.57 102.73 185.52 102.48 185.96 101.74 L 186.50 100.84 C 186.93 100.10 186.69 99.14 185.95 98.70 C 185.20 98.26 184.25 98.51 183.81 99.25 Z M 183.28 100.15 L 182.74 101.05 C 182.30 101.79 182.54 102.75 183.28 103.19 C 184.02 103.63 184.98 103.39 185.42 102.65 L 185.96 101.74 C 186.40 101.00 186.16 100.04 185.42 99.60 C 184.68 99.16 183.72 99.41 183.28 100.15 Z M 182.74 101.05 L 182.20 101.95 C 181.76 102.69 182.00 103.65 182.74 104.09 C 183.48 104.54 184.44 104.30 184.88 103.56 L 185.42 102.65 C 185.86 101.91 185.62 100.95 184.88 100.51 C 184.14 100.07 183.18 100.31 182.74 101.05 Z M 182.20 101.95 L 181.66 102.84 C 181.22 103.58 181.46 104.54 182.20 104.98 C 182.93 105.43 183.89 105.19 184.34 104.45 L 184.88 103.56 C 185.32 102.82 185.08 101.86 184.34 101.42 C 183.61 100.97 182.65 101.21 182.20 101.95 Z M 181.67 102.84 L 181.14 103.71 C 180.69 104.45 180.92 105.41 181.66 105.85 C 182.40 106.30 183.36 106.07 183.81 105.33 L 184.34 104.46 C 184.78 103.72 184.55 102.76 183.81 102.31 C 183.07 101.86 182.11 102.10 181.67 102.84 Z M 181.14 103.70 L 180.51 104.72 C 180.06 105.46 180.29 106.42 181.03 106.87 C 181.76 107.32 182.73 107.09 183.18 106.36 L 183.80 105.34 C 184.25 104.60 184.02 103.64 183.29 103.19 C 182.55 102.74 181.59 102.97 181.14 103.70 Z M 180.52 104.72 L 179.91 105.71 C 179.45 106.44 179.68 107.40 180.41 107.86 C 181.14 108.31 182.10 108.08 182.56 107.35 L 183.17 106.36 C 183.63 105.63 183.40 104.67 182.67 104.21 C 181.93 103.76 180.97 103.98 180.52 104.72 Z M 179.91 105.70 L 179.32 106.64 C 178.86 107.37 179.09 108.33 179.82 108.79 C 180.55 109.25 181.51 109.03 181.97 108.30 L 182.56 107.36 C 183.01 106.63 182.79 105.66 182.06 105.21 C 181.33 104.75 180.37 104.97 179.91 105.70 Z M 179.32 106.63 L 178.77 107.52 C 178.30 108.25 178.52 109.21 179.25 109.67 C 179.98 110.13 180.94 109.92 181.40 109.19 L 181.96 108.30 C 182.42 107.57 182.21 106.61 181.48 106.15 C 180.75 105.69 179.79 105.90 179.32 106.63 Z M 178.77 107.51 L 178.24 108.34 C 177.78 109.07 177.99 110.03 178.72 110.50 C 179.44 110.96 180.41 110.75 180.87 110.02 L 181.40 109.19 C 181.86 108.47 181.65 107.50 180.92 107.04 C 180.20 106.57 179.23 106.79 178.77 107.51 Z M 178.24 108.34 L 177.75 109.11 C 177.28 109.83 177.49 110.80 178.21 111.26 C 178.94 111.73 179.91 111.52 180.37 110.80 L 180.87 110.03 C 181.33 109.30 181.13 108.34 180.40 107.87 C 179.68 107.40 178.71 107.61 178.24 108.34 Z M 177.75 109.10 L 177.29 109.81 C 176.82 110.53 177.03 111.50 177.75 111.97 C 178.47 112.44 179.44 112.23 179.91 111.51 L 180.37 110.80 C 180.84 110.08 180.63 109.11 179.91 108.64 C 179.19 108.17 178.22 108.38 177.75 109.10 Z M 177.29 109.80 L 176.87 110.45 C 176.40 111.17 176.60 112.14 177.32 112.61 C 178.04 113.08 179.01 112.88 179.48 112.16 L 179.90 111.52 C 180.38 110.79 180.18 109.83 179.46 109.35 C 178.73 108.88 177.77 109.08 177.29 109.80 Z M 176.88 110.44 L 176.25 111.38 C 175.78 112.10 175.97 113.07 176.69 113.54 C 177.41 114.02 178.38 113.83 178.85 113.11 L 179.48 112.17 C 179.96 111.45 179.76 110.48 179.04 110.00 C 178.32 109.53 177.35 109.72 176.88 110.44 Z M 176.26 111.37 L 175.69 112.21 C 175.21 112.92 175.39 113.89 176.11 114.37 C 176.82 114.86 177.79 114.67 178.27 113.96 L 178.84 113.12 C 179.33 112.41 179.14 111.44 178.43 110.95 C 177.72 110.47 176.75 110.65 176.26 111.37 Z M 175.70 112.19 L 175.17 112.95 C 174.68 113.65 174.85 114.63 175.56 115.12 C 176.27 115.61 177.24 115.44 177.73 114.73 L 178.26 113.98 C 178.76 113.27 178.58 112.30 177.88 111.80 C 177.17 111.31 176.20 111.48 175.70 112.19 Z M 175.19 112.93 L 174.65 113.68 C 174.15 114.38 174.31 115.35 175.01 115.86 C 175.71 116.36 176.68 116.20 177.19 115.50 L 177.72 114.75 C 178.23 114.05 178.06 113.07 177.36 112.57 C 176.66 112.07 175.69 112.23 175.19 112.93 Z M 174.66 113.67 L 174.13 114.39 C 173.62 115.08 173.77 116.06 174.47 116.57 C 175.17 117.08 176.14 116.93 176.65 116.23 L 177.18 115.51 C 177.69 114.81 177.54 113.84 176.84 113.33 C 176.14 112.82 175.17 112.97 174.66 113.67 Z M 174.14 114.38 L 173.66 115.02 C 173.15 115.72 173.29 116.70 173.99 117.21 C 174.68 117.72 175.66 117.57 176.17 116.88 L 176.65 116.24 C 177.16 115.55 177.01 114.57 176.32 114.05 C 175.63 113.54 174.65 113.69 174.14 114.38 Z M 173.66 115.02 L 173.14 115.72 C 172.62 116.41 172.76 117.39 173.45 117.91 C 174.14 118.42 175.12 118.28 175.64 117.59 L 176.17 116.89 C 176.68 116.20 176.54 115.22 175.85 114.70 C 175.16 114.19 174.18 114.33 173.66 115.02 Z M 173.14 115.72 L 172.56 116.49 C 172.04 117.17 172.18 118.15 172.86 118.67 C 173.55 119.19 174.53 119.06 175.05 118.37 L 175.63 117.60 C 176.15 116.91 176.02 115.93 175.33 115.41 C 174.64 114.89 173.66 115.03 173.14 115.72 Z M 172.57 116.48 L 171.92 117.32 C 171.40 118.01 171.53 118.99 172.22 119.51 C 172.90 120.03 173.88 119.90 174.40 119.22 L 175.05 118.38 C 175.57 117.69 175.44 116.71 174.75 116.19 C 174.07 115.66 173.09 115.79 172.57 116.48 Z M 171.93 117.31 L 171.22 118.23 C 170.69 118.91 170.82 119.89 171.50 120.42 C 172.18 120.95 173.16 120.82 173.69 120.14 L 174.40 119.22 C 174.93 118.54 174.80 117.56 174.12 117.03 C 173.44 116.51 172.46 116.63 171.93 117.31 Z M 171.22 118.23 L 170.47 119.19 C 169.94 119.87 170.06 120.85 170.74 121.38 C 171.42 121.91 172.40 121.79 172.93 121.11 L 173.68 120.15 C 174.22 119.47 174.09 118.49 173.42 117.96 C 172.74 117.43 171.75 117.55 171.22 118.23 Z M 170.48 119.18 L 169.88 119.95 C 169.34 120.62 169.46 121.61 170.14 122.14 C 170.81 122.67 171.80 122.56 172.33 121.88 L 172.93 121.11 C 173.46 120.44 173.35 119.45 172.67 118.92 C 171.99 118.39 171.01 118.50 170.48 119.18 Z M 169.88 119.94 L 169.25 120.74 C 168.71 121.42 168.83 122.40 169.50 122.93 C 170.18 123.47 171.16 123.35 171.70 122.68 L 172.33 121.88 C 172.86 121.20 172.75 120.22 172.07 119.69 C 171.39 119.15 170.41 119.27 169.88 119.94 Z M 169.25 120.74 L 168.60 121.55 C 168.07 122.23 168.18 123.21 168.86 123.75 C 169.53 124.28 170.52 124.17 171.05 123.49 L 171.70 122.68 C 172.23 122.00 172.12 121.02 171.44 120.48 C 170.77 119.95 169.78 120.06 169.25 120.74 Z M 168.60 121.55 L 167.95 122.38 C 167.42 123.05 167.53 124.03 168.21 124.57 C 168.88 125.10 169.86 124.99 170.40 124.32 L 171.05 123.49 C 171.59 122.82 171.47 121.83 170.80 121.30 C 170.12 120.76 169.14 120.88 168.60 121.55 Z M 167.95 122.38 L 167.30 123.20 C 166.77 123.87 166.88 124.85 167.56 125.39 C 168.23 125.92 169.22 125.81 169.75 125.13 L 170.40 124.31 C 170.93 123.64 170.82 122.66 170.14 122.12 C 169.47 121.59 168.49 121.70 167.95 122.38 Z M 167.30 123.20 L 166.67 124.00 C 166.13 124.68 166.25 125.66 166.93 126.19 C 167.60 126.73 168.58 126.61 169.12 125.94 L 169.75 125.13 C 170.29 124.45 170.17 123.47 169.49 122.94 C 168.82 122.40 167.83 122.52 167.30 123.20 Z M 166.66 124.01 L 166.05 124.78 C 165.52 125.46 165.64 126.44 166.32 126.97 C 167.00 127.51 167.98 127.39 168.51 126.71 L 169.12 125.93 C 169.65 125.25 169.53 124.27 168.86 123.74 C 168.18 123.21 167.20 123.33 166.66 124.01 Z M 166.05 124.79 L 165.48 125.53 C 164.95 126.21 165.07 127.19 165.75 127.72 C 166.43 128.25 167.41 128.12 167.94 127.44 L 168.52 126.70 C 169.05 126.02 168.92 125.04 168.24 124.51 C 167.56 123.98 166.58 124.11 166.05 124.79 Z M 165.47 125.53 L 164.81 126.39 C 164.29 127.07 164.42 128.05 165.10 128.58 C 165.79 129.10 166.77 128.97 167.29 128.29 L 167.95 127.43 C 168.47 126.75 168.34 125.77 167.66 125.25 C 166.97 124.72 165.99 124.85 165.47 125.53 Z M 164.80 126.40 L 164.09 127.35 C 163.58 128.04 163.72 129.02 164.41 129.54 C 165.10 130.05 166.08 129.91 166.59 129.22 L 167.30 128.27 C 167.82 127.58 167.68 126.61 166.99 126.09 C 166.30 125.57 165.32 125.71 164.80 126.40 Z M 164.08 127.37 L 163.46 128.22 C 162.96 128.92 163.11 129.90 163.81 130.40 C 164.51 130.91 165.49 130.75 165.99 130.05 L 166.61 129.20 C 167.11 128.51 166.96 127.53 166.26 127.02 C 165.56 126.52 164.58 126.67 164.08 127.37 Z M 163.44 128.25 L 162.91 129.02 C 162.41 129.73 162.59 130.71 163.30 131.20 C 164.01 131.69 164.98 131.51 165.47 130.81 L 166.01 130.03 C 166.50 129.32 166.33 128.35 165.62 127.86 C 164.91 127.36 163.94 127.54 163.44 128.25 Z M 162.89 129.05 L 162.40 129.78 C 161.93 130.50 162.13 131.47 162.84 131.94 C 163.56 132.42 164.53 132.22 165.01 131.50 L 165.49 130.78 C 165.97 130.06 165.77 129.09 165.05 128.61 C 164.33 128.14 163.36 128.33 162.89 129.05 Z M 162.39 129.81 L 161.94 130.51 C 161.48 131.24 161.70 132.21 162.43 132.67 C 163.16 133.13 164.12 132.91 164.58 132.18 L 165.03 131.47 C 165.49 130.74 165.27 129.78 164.54 129.32 C 163.81 128.86 162.84 129.08 162.39 129.81 Z M 161.92 130.54 L 161.42 131.39 C 160.97 132.13 161.21 133.09 161.95 133.54 C 162.69 133.98 163.65 133.74 164.10 133.00 L 164.60 132.15 C 165.05 131.41 164.80 130.45 164.06 130.01 C 163.32 129.56 162.37 129.80 161.92 130.54 Z M 161.40 131.43 L 160.90 132.30 C 160.48 133.05 160.74 134.01 161.49 134.43 C 162.24 134.86 163.19 134.59 163.62 133.84 L 164.11 132.96 C 164.54 132.21 164.27 131.26 163.52 130.84 C 162.77 130.41 161.82 130.68 161.40 131.43 Z M 160.88 132.34 L 160.41 133.22 C 160.00 133.98 160.29 134.92 161.05 135.33 C 161.81 135.74 162.76 135.45 163.16 134.69 L 163.64 133.81 C 164.04 133.05 163.76 132.10 163.00 131.70 C 162.24 131.29 161.29 131.58 160.88 132.34 Z M 160.40 133.24 L 159.95 134.13 C 159.56 134.90 159.86 135.84 160.63 136.23 C 161.40 136.62 162.34 136.31 162.73 135.54 L 163.18 134.66 C 163.57 133.89 163.26 132.95 162.50 132.56 C 161.73 132.17 160.79 132.48 160.40 133.24 Z M 159.93 134.16 L 159.50 135.05 C 159.12 135.83 159.45 136.76 160.22 137.14 C 161.00 137.51 161.93 137.19 162.31 136.41 L 162.74 135.52 C 163.12 134.74 162.80 133.81 162.02 133.43 C 161.24 133.05 160.31 133.38 159.93 134.16 Z M 159.49 135.08 L 159.06 136.00 C 158.70 136.78 159.04 137.71 159.82 138.07 C 160.61 138.43 161.53 138.09 161.90 137.31 L 162.32 136.39 C 162.68 135.61 162.34 134.68 161.56 134.32 C 160.78 133.95 159.85 134.30 159.49 135.08 Z M 159.05 136.03 L 158.65 136.94 C 158.30 137.73 158.66 138.66 159.45 139.00 C 160.23 139.35 161.16 138.99 161.50 138.20 L 161.91 137.28 C 162.25 136.49 161.90 135.57 161.11 135.23 C 160.32 134.88 159.40 135.24 159.05 136.03 Z M 158.63 136.97 L 158.25 137.88 C 157.92 138.68 158.29 139.59 159.09 139.93 C 159.88 140.26 160.80 139.89 161.13 139.09 L 161.51 138.18 C 161.85 137.38 161.47 136.47 160.68 136.13 C 159.88 135.80 158.97 136.17 158.63 136.97 Z M 158.24 137.91 L 157.87 138.82 C 157.55 139.63 157.94 140.53 158.74 140.85 C 159.55 141.17 160.45 140.78 160.77 139.98 L 161.14 139.07 C 161.46 138.27 161.07 137.36 160.27 137.04 C 159.47 136.72 158.56 137.11 158.24 137.91 Z M 157.87 138.85 L 157.49 139.83 C 157.18 140.64 157.59 141.54 158.39 141.85 C 159.20 142.15 160.10 141.75 160.41 140.94 L 160.78 139.96 C 161.09 139.15 160.69 138.25 159.88 137.95 C 159.07 137.64 158.17 138.04 157.87 138.85 Z M 157.48 139.85 L 157.13 140.82 C 156.84 141.63 157.26 142.52 158.07 142.82 C 158.88 143.11 159.77 142.69 160.07 141.88 L 160.42 140.92 C 160.71 140.11 160.29 139.22 159.48 138.92 C 158.67 138.63 157.78 139.04 157.48 139.85 Z M 157.13 140.83 L 156.80 141.76 C 156.52 142.57 156.95 143.46 157.76 143.75 C 158.57 144.03 159.46 143.60 159.75 142.79 L 160.07 141.87 C 160.36 141.05 159.93 140.16 159.12 139.88 C 158.30 139.59 157.41 140.02 157.13 140.83 Z M 156.80 141.77 L 156.50 142.66 C 156.22 143.47 156.66 144.36 157.48 144.64 C 158.29 144.91 159.18 144.47 159.46 143.66 L 159.75 142.78 C 160.03 141.96 159.59 141.07 158.78 140.80 C 157.96 140.52 157.07 140.96 156.80 141.77 Z M 156.49 142.68 L 156.21 143.56 C 155.94 144.38 156.39 145.26 157.21 145.52 C 158.03 145.79 158.91 145.34 159.18 144.51 L 159.46 143.64 C 159.73 142.82 159.28 141.94 158.46 141.67 C 157.64 141.41 156.76 141.86 156.49 142.68 Z M 156.19 143.60 L 155.93 144.51 C 155.70 145.34 156.17 146.20 157.00 146.44 C 157.83 146.68 158.70 146.20 158.93 145.37 L 159.19 144.47 C 159.43 143.64 158.95 142.77 158.12 142.53 C 157.30 142.30 156.43 142.78 156.19 143.60 Z M 155.92 144.57 L 155.67 145.58 C 155.47 146.42 155.99 147.26 156.83 147.47 C 157.67 147.67 158.51 147.15 158.71 146.31 L 158.95 145.30 C 159.15 144.46 158.64 143.62 157.80 143.42 C 156.96 143.22 156.12 143.74 155.92 144.57 Z M 155.66 145.65 L 155.45 146.72 C 155.29 147.56 155.84 148.38 156.69 148.55 C 157.53 148.71 158.35 148.16 158.52 147.31 L 158.73 146.24 C 158.89 145.40 158.34 144.58 157.49 144.41 C 156.64 144.25 155.82 144.80 155.66 145.65 Z M 155.44 146.78 L 155.29 147.78 C 155.15 148.63 155.74 149.43 156.59 149.56 C 157.44 149.69 158.24 149.11 158.37 148.26 L 158.53 147.26 C 158.66 146.40 158.08 145.61 157.23 145.47 C 156.37 145.34 155.58 145.92 155.44 146.78 Z M 155.28 147.85 L 155.16 148.90 C 155.07 149.76 155.68 150.53 156.54 150.62 C 157.40 150.72 158.17 150.10 158.26 149.24 L 158.38 148.19 C 158.48 147.33 157.86 146.56 157.00 146.47 C 156.14 146.37 155.37 146.99 155.28 147.85 Z M 155.15 148.99 L 155.10 150.04 C 155.06 150.90 155.72 151.63 156.59 151.67 C 157.45 151.71 158.18 151.05 158.22 150.19 L 158.27 149.15 C 158.31 148.29 157.65 147.55 156.79 147.51 C 155.93 147.47 155.20 148.13 155.15 148.99 Z M 155.10 150.18 L 155.14 151.15 C 155.18 152.01 155.90 152.68 156.76 152.64 C 157.63 152.61 158.30 151.88 158.26 151.02 L 158.22 150.05 C 158.19 149.19 157.46 148.52 156.60 148.55 C 155.74 148.59 155.07 149.31 155.10 150.18 Z M 155.17 151.39 L 155.36 152.35 C 155.53 153.19 156.35 153.74 157.20 153.57 C 158.04 153.40 158.59 152.58 158.42 151.74 L 158.23 150.78 C 158.06 149.93 157.24 149.38 156.40 149.55 C 155.55 149.72 155.00 150.54 155.17 151.39 Z M 155.49 152.72 L 155.93 153.64 C 156.30 154.42 157.24 154.74 158.01 154.37 C 158.79 154.00 159.12 153.06 158.74 152.29 L 158.30 151.36 C 157.93 150.59 156.99 150.26 156.22 150.64 C 155.44 151.01 155.11 151.94 155.49 152.72 Z M 156.12 153.94 L 156.72 154.68 C 157.26 155.35 158.24 155.46 158.91 154.92 C 159.58 154.38 159.69 153.40 159.15 152.72 L 158.55 151.98 C 158.01 151.31 157.03 151.21 156.36 151.75 C 155.69 152.29 155.58 153.27 156.12 153.94 Z M 156.81 154.79 L 157.47 155.47 C 158.07 156.09 159.06 156.10 159.68 155.50 C 160.30 154.90 160.31 153.91 159.71 153.29 L 159.05 152.61 C 158.45 152.00 157.46 151.98 156.84 152.58 C 156.23 153.18 156.21 154.17 156.81 154.79 Z M 157.43 155.43 L 158.07 156.14 C 158.65 156.78 159.63 156.83 160.27 156.26 C 160.92 155.68 160.97 154.69 160.39 154.05 L 159.75 153.34 C 159.18 152.70 158.19 152.64 157.55 153.22 C 156.91 153.80 156.85 154.78 157.43 155.43 Z M 158.01 156.07 L 158.62 156.84 C 159.16 157.51 160.14 157.62 160.82 157.09 C 161.49 156.55 161.60 155.57 161.07 154.89 L 160.45 154.12 C 159.92 153.45 158.93 153.34 158.26 153.87 C 157.58 154.41 157.47 155.39 158.01 156.07 Z M 158.59 156.79 L 159.19 157.61 C 159.69 158.31 160.67 158.46 161.37 157.95 C 162.06 157.44 162.22 156.46 161.71 155.77 L 161.11 154.95 C 160.60 154.25 159.62 154.10 158.93 154.61 C 158.23 155.11 158.08 156.09 158.59 156.79 Z M 159.16 157.58 L 159.74 158.40 C 160.23 159.11 161.20 159.29 161.91 158.80 C 162.62 158.31 162.79 157.34 162.30 156.63 L 161.73 155.80 C 161.24 155.09 160.27 154.91 159.56 155.41 C 158.85 155.90 158.67 156.87 159.16 157.58 Z M 159.72 158.38 L 160.24 159.16 C 160.72 159.88 161.69 160.07 162.41 159.59 C 163.12 159.11 163.32 158.14 162.84 157.42 L 162.32 156.65 C 161.84 155.93 160.87 155.74 160.15 156.22 C 159.43 156.70 159.24 157.67 159.72 158.38 Z M 160.23 159.14 L 160.76 159.96 C 161.23 160.68 162.19 160.89 162.92 160.42 C 163.64 159.95 163.85 158.99 163.38 158.26 L 162.85 157.44 C 162.38 156.72 161.42 156.51 160.69 156.98 C 159.97 157.45 159.76 158.41 160.23 159.14 Z M 160.74 159.93 L 161.29 160.81 C 161.74 161.54 162.71 161.77 163.44 161.31 C 164.17 160.86 164.40 159.89 163.94 159.16 L 163.39 158.28 C 162.94 157.55 161.98 157.33 161.24 157.78 C 160.51 158.24 160.29 159.20 160.74 159.93 Z M 161.27 160.79 L 161.83 161.72 C 162.27 162.46 163.23 162.70 163.97 162.25 C 164.71 161.81 164.95 160.85 164.51 160.11 L 163.95 159.19 C 163.51 158.45 162.55 158.20 161.81 158.65 C 161.07 159.09 160.83 160.05 161.27 160.79 Z M 161.82 161.70 L 162.32 162.57 C 162.75 163.32 163.71 163.57 164.46 163.14 C 165.20 162.71 165.46 161.75 165.03 161.01 L 164.52 160.13 C 164.09 159.39 163.13 159.13 162.39 159.56 C 161.64 159.99 161.39 160.95 161.82 161.70 Z M 162.31 162.56 L 162.82 163.46 C 163.25 164.21 164.20 164.47 164.95 164.05 C 165.70 163.63 165.97 162.67 165.54 161.92 L 165.03 161.02 C 164.61 160.27 163.66 160.01 162.91 160.43 C 162.16 160.85 161.89 161.81 162.31 162.56 Z M 162.82 163.45 L 163.31 164.34 C 163.73 165.10 164.68 165.37 165.44 164.95 C 166.19 164.54 166.46 163.59 166.05 162.83 L 165.55 161.93 C 165.13 161.18 164.18 160.91 163.43 161.33 C 162.67 161.74 162.40 162.69 162.82 163.45 Z M 163.31 164.34 L 163.78 165.20 C 164.19 165.96 165.14 166.23 165.90 165.82 C 166.66 165.41 166.93 164.46 166.52 163.70 L 166.05 162.84 C 165.64 162.08 164.69 161.80 163.93 162.22 C 163.18 162.63 162.90 163.58 163.31 164.34 Z M 163.78 165.19 L 164.23 166.03 C 164.64 166.79 165.59 167.07 166.35 166.66 C 167.11 166.25 167.39 165.31 166.98 164.55 L 166.52 163.71 C 166.11 162.95 165.17 162.67 164.41 163.08 C 163.65 163.49 163.37 164.43 163.78 165.19 Z M 164.23 166.03 L 164.68 166.87 C 165.09 167.63 166.03 167.92 166.79 167.51 C 167.55 167.10 167.84 166.16 167.43 165.40 L 166.98 164.55 C 166.57 163.79 165.63 163.51 164.87 163.91 C 164.11 164.32 163.82 165.27 164.23 166.03 Z M 164.68 166.86 L 165.12 167.69 C 165.52 168.45 166.47 168.74 167.23 168.34 C 167.99 167.93 168.28 166.99 167.87 166.23 L 167.44 165.40 C 167.03 164.64 166.09 164.35 165.32 164.75 C 164.56 165.16 164.27 166.10 164.68 166.86 Z M 165.11 167.69 L 165.58 168.57 C 165.98 169.34 166.93 169.63 167.69 169.22 C 168.45 168.82 168.74 167.88 168.34 167.12 L 167.88 166.23 C 167.47 165.47 166.53 165.18 165.77 165.58 C 165.00 165.98 164.71 166.93 165.11 167.69 Z M 165.58 168.57 L 166.08 169.53 C 166.49 170.29 167.43 170.58 168.19 170.18 C 168.96 169.78 169.25 168.83 168.85 168.07 L 168.34 167.12 C 167.94 166.35 167.00 166.06 166.23 166.46 C 165.47 166.86 165.18 167.81 165.58 168.57 Z M 166.08 169.53 L 166.52 170.36 C 166.92 171.12 167.87 171.42 168.63 171.01 C 169.39 170.61 169.69 169.67 169.29 168.91 L 168.85 168.07 C 168.44 167.31 167.50 167.02 166.74 167.42 C 165.97 167.82 165.68 168.76 166.08 169.53 Z M 166.52 170.36 L 166.99 171.26 C 167.39 172.02 168.34 172.31 169.10 171.91 C 169.86 171.51 170.16 170.57 169.76 169.80 L 169.29 168.91 C 168.89 168.14 167.94 167.85 167.18 168.25 C 166.41 168.65 166.12 169.60 166.52 170.36 Z M 166.99 171.25 L 167.47 172.18 C 167.87 172.94 168.82 173.24 169.58 172.84 C 170.34 172.44 170.64 171.50 170.24 170.73 L 169.76 169.81 C 169.36 169.04 168.42 168.75 167.65 169.15 C 166.89 169.54 166.59 170.49 166.99 171.25 Z M 167.47 172.17 L 167.95 173.10 C 168.35 173.87 169.29 174.17 170.05 173.77 C 170.82 173.37 171.12 172.43 170.72 171.67 L 170.24 170.74 C 169.85 169.97 168.91 169.67 168.14 170.07 C 167.37 170.47 167.08 171.41 167.47 172.17 Z M 167.95 173.09 L 168.40 173.99 C 168.80 174.76 169.74 175.06 170.51 174.67 C 171.27 174.28 171.58 173.34 171.18 172.57 L 170.73 171.67 C 170.34 170.91 169.39 170.60 168.63 170.99 C 167.86 171.39 167.56 172.33 167.95 173.09 Z M 168.40 173.98 L 168.88 174.93 C 169.26 175.70 170.20 176.01 170.97 175.63 C 171.74 175.24 172.05 174.30 171.67 173.53 L 171.19 172.58 C 170.80 171.81 169.87 171.50 169.10 171.88 C 168.32 172.27 168.01 173.21 168.40 173.98 Z M 168.87 174.91 L 169.34 175.89 C 169.72 176.67 170.66 176.99 171.43 176.61 C 172.21 176.24 172.53 175.30 172.15 174.53 L 171.68 173.55 C 171.30 172.77 170.36 172.45 169.59 172.83 C 168.81 173.20 168.49 174.14 168.87 174.91 Z M 169.33 175.87 L 169.75 176.77 C 170.12 177.55 171.05 177.88 171.83 177.51 C 172.61 177.15 172.95 176.22 172.58 175.44 L 172.16 174.54 C 171.79 173.76 170.86 173.43 170.08 173.80 C 169.30 174.16 168.97 175.09 169.33 175.87 Z M 169.75 176.75 L 170.13 177.59 C 170.49 178.37 171.41 178.72 172.20 178.36 C 172.98 178.00 173.33 177.08 172.97 176.29 L 172.59 175.45 C 172.23 174.67 171.30 174.32 170.52 174.68 C 169.73 175.04 169.39 175.96 169.75 176.75 Z M 170.12 177.58 L 170.50 178.41 C 170.85 179.20 171.77 179.55 172.56 179.20 C 173.34 178.85 173.70 177.92 173.35 177.14 L 172.98 176.30 C 172.62 175.52 171.70 175.16 170.91 175.51 C 170.13 175.87 169.77 176.79 170.12 177.58 Z M 170.49 178.40 L 170.89 179.32 C 171.24 180.10 172.16 180.46 172.95 180.12 C 173.74 179.77 174.10 178.85 173.75 178.06 L 173.35 177.14 C 173.00 176.36 172.08 176.00 171.29 176.34 C 170.50 176.69 170.15 177.61 170.49 178.40 Z M 170.89 179.31 L 171.30 180.23 C 171.64 181.02 172.56 181.38 173.35 181.04 C 174.14 180.69 174.50 179.77 174.16 178.98 L 173.75 178.06 C 173.41 177.27 172.49 176.91 171.70 177.26 C 170.91 177.60 170.55 178.52 170.89 179.31 Z M 171.30 180.23 L 171.70 181.15 C 172.04 181.94 172.97 182.30 173.76 181.96 C 174.54 181.61 174.90 180.69 174.56 179.90 L 174.16 178.98 C 173.81 178.19 172.89 177.83 172.10 178.18 C 171.31 178.52 170.95 179.44 171.30 180.23 Z M 171.70 181.16 L 172.10 182.07 C 172.45 182.86 173.37 183.22 174.16 182.87 C 174.95 182.52 175.31 181.60 174.96 180.81 L 174.56 179.90 C 174.21 179.11 173.29 178.75 172.50 179.10 C 171.71 179.45 171.35 180.37 171.70 181.16 Z M 172.11 182.08 L 172.52 183.00 C 172.87 183.79 173.80 184.14 174.58 183.79 C 175.37 183.44 175.72 182.51 175.37 181.73 L 174.96 180.80 C 174.61 180.02 173.68 179.66 172.89 180.01 C 172.11 180.37 171.76 181.29 172.11 182.08 Z M 172.52 183.01 L 172.93 183.92 C 173.29 184.70 174.21 185.05 175.00 184.70 C 175.79 184.34 176.13 183.41 175.78 182.63 L 175.37 181.72 C 175.01 180.93 174.09 180.58 173.30 180.94 C 172.52 181.30 172.17 182.22 172.52 183.01 Z M 172.94 183.92 L 173.35 184.82 C 173.71 185.61 174.63 185.95 175.42 185.60 C 176.20 185.24 176.55 184.31 176.19 183.53 L 175.78 182.62 C 175.42 181.84 174.49 181.49 173.71 181.85 C 172.92 182.21 172.58 183.14 172.94 183.92 Z M 173.35 184.83 L 173.77 185.74 C 174.13 186.52 175.06 186.87 175.84 186.51 C 176.62 186.15 176.97 185.22 176.61 184.44 L 176.19 183.52 C 175.83 182.74 174.90 182.40 174.12 182.76 C 173.33 183.12 172.99 184.04 173.35 184.83 Z M 173.77 185.74 L 174.20 186.67 C 174.56 187.45 175.49 187.79 176.27 187.43 C 177.05 187.07 177.39 186.15 177.03 185.36 L 176.61 184.43 C 176.24 183.65 175.32 183.31 174.53 183.67 C 173.75 184.03 173.41 184.96 173.77 185.74 Z M 174.20 186.67 L 174.62 187.58 C 174.98 188.37 175.91 188.71 176.69 188.35 C 177.47 187.99 177.82 187.06 177.45 186.28 L 177.03 185.36 C 176.67 184.58 175.74 184.24 174.96 184.60 C 174.18 184.96 173.84 185.89 174.20 186.67 Z M 174.62 187.58 L 175.03 188.47 C 175.39 189.25 176.32 189.60 177.10 189.24 C 177.88 188.88 178.22 187.95 177.86 187.17 L 177.46 186.28 C 177.09 185.49 176.17 185.15 175.38 185.51 C 174.60 185.87 174.26 186.80 174.62 187.58 Z M 175.03 188.47 L 175.44 189.37 C 175.80 190.15 176.72 190.50 177.51 190.14 C 178.29 189.78 178.64 188.85 178.28 188.07 L 177.87 187.17 C 177.51 186.39 176.58 186.04 175.80 186.40 C 175.01 186.76 174.67 187.68 175.03 188.47 Z M 175.44 189.37 L 175.85 190.26 C 176.20 191.05 177.13 191.40 177.91 191.04 C 178.70 190.68 179.04 189.76 178.69 188.97 L 178.28 188.07 C 177.92 187.29 177.00 186.94 176.21 187.30 C 175.43 187.65 175.08 188.58 175.44 189.37 Z M 175.84 190.26 L 176.25 191.16 C 176.61 191.95 177.53 192.30 178.32 191.94 C 179.10 191.59 179.45 190.66 179.10 189.88 L 178.69 188.98 C 178.33 188.19 177.41 187.84 176.62 188.20 C 175.84 188.55 175.49 189.47 175.84 190.26 Z M 176.25 191.16 L 176.66 192.08 C 177.02 192.87 177.94 193.22 178.73 192.86 C 179.51 192.51 179.86 191.58 179.51 190.80 L 179.10 189.88 C 178.74 189.09 177.82 188.74 177.03 189.10 C 176.25 189.45 175.90 190.37 176.25 191.16 Z M 176.66 192.08 L 177.07 192.98 C 177.42 193.76 178.34 194.12 179.13 193.76 C 179.92 193.41 180.27 192.49 179.91 191.70 L 179.51 190.80 C 179.16 190.01 178.23 189.66 177.45 190.01 C 176.66 190.37 176.31 191.29 176.66 192.08 Z M 177.07 192.98 L 177.48 193.90 C 177.83 194.69 178.76 195.04 179.54 194.68 C 180.33 194.33 180.68 193.41 180.33 192.62 L 179.91 191.70 C 179.56 190.91 178.64 190.56 177.85 190.91 C 177.06 191.27 176.71 192.19 177.07 192.98 Z M 177.48 193.90 L 177.90 194.82 C 178.25 195.61 179.18 195.96 179.96 195.61 C 180.75 195.25 181.10 194.33 180.74 193.54 L 180.33 192.62 C 179.97 191.83 179.05 191.48 178.26 191.84 C 177.48 192.19 177.13 193.12 177.48 193.90 Z M 177.90 194.83 L 178.32 195.76 C 178.68 196.54 179.60 196.89 180.39 196.53 C 181.17 196.18 181.52 195.25 181.16 194.47 L 180.74 193.54 C 180.39 192.75 179.46 192.41 178.68 192.76 C 177.89 193.12 177.54 194.04 177.90 194.83 Z M 178.32 195.76 L 178.75 196.68 C 179.10 197.47 180.03 197.81 180.81 197.45 C 181.60 197.09 181.94 196.17 181.58 195.38 L 181.16 194.46 C 180.80 193.68 179.88 193.33 179.09 193.69 C 178.31 194.05 177.96 194.98 178.32 195.76 Z M 178.75 196.69 L 179.16 197.59 C 179.53 198.37 180.45 198.71 181.24 198.35 C 182.02 197.99 182.36 197.06 182.00 196.28 L 181.58 195.38 C 181.22 194.60 180.29 194.26 179.51 194.62 C 178.73 194.98 178.39 195.91 178.75 196.69 Z M 179.17 197.59 L 179.58 198.48 C 179.94 199.26 180.87 199.60 181.65 199.23 C 182.44 198.87 182.77 197.94 182.41 197.16 L 182.00 196.27 C 181.63 195.49 180.70 195.15 179.92 195.52 C 179.14 195.88 178.80 196.81 179.17 197.59 Z M 179.58 198.48 L 180.00 199.38 C 180.37 200.16 181.30 200.50 182.08 200.13 C 182.86 199.76 183.20 198.83 182.83 198.05 L 182.41 197.15 C 182.04 196.37 181.11 196.04 180.33 196.41 C 179.55 196.77 179.21 197.70 179.58 198.48 Z M 180.00 199.38 L 180.43 200.28 C 180.80 201.06 181.73 201.40 182.51 201.03 C 183.29 200.66 183.62 199.73 183.25 198.95 L 182.83 198.05 C 182.46 197.27 181.53 196.94 180.75 197.31 C 179.97 197.67 179.64 198.60 180.00 199.38 Z M 180.43 200.28 L 180.85 201.19 C 181.21 201.97 182.14 202.31 182.92 201.94 C 183.71 201.58 184.04 200.65 183.68 199.87 L 183.26 198.96 C 182.89 198.18 181.96 197.84 181.18 198.20 C 180.40 198.57 180.06 199.50 180.43 200.28 Z M 180.85 201.18 L 181.26 202.08 C 181.62 202.87 182.55 203.21 183.33 202.85 C 184.11 202.49 184.46 201.57 184.10 200.78 L 183.68 199.88 C 183.33 199.09 182.40 198.75 181.61 199.11 C 180.83 199.47 180.49 200.39 180.85 201.18 Z M 181.26 202.07 L 181.66 202.98 C 182.02 203.77 182.94 204.12 183.73 203.76 C 184.52 203.41 184.87 202.48 184.51 201.70 L 184.10 200.79 C 183.75 200.00 182.82 199.66 182.04 200.01 C 181.25 200.36 180.90 201.29 181.26 202.07 Z M 181.66 202.98 L 182.08 203.89 C 182.43 204.68 183.35 205.03 184.14 204.68 C 184.93 204.32 185.28 203.40 184.92 202.61 L 184.51 201.70 C 184.16 200.91 183.23 200.56 182.45 200.91 C 181.66 201.27 181.31 202.19 181.66 202.98 Z M 182.08 203.90 L 182.49 204.82 C 182.85 205.61 183.78 205.95 184.56 205.60 C 185.35 205.24 185.69 204.32 185.34 203.53 L 184.92 202.61 C 184.57 201.82 183.64 201.48 182.86 201.83 C 182.07 202.19 181.72 203.11 182.08 203.90 Z M 182.50 204.83 L 182.91 205.73 C 183.27 206.51 184.20 206.85 184.98 206.49 C 185.77 206.13 186.11 205.21 185.75 204.42 L 185.34 203.52 C 184.98 202.74 184.05 202.40 183.26 202.76 C 182.48 203.12 182.14 204.04 182.50 204.83 Z M 182.91 205.73 L 183.33 206.63 C 183.69 207.42 184.62 207.76 185.40 207.40 C 186.18 207.03 186.53 206.11 186.17 205.32 L 185.75 204.42 C 185.39 203.64 184.46 203.30 183.68 203.66 C 182.89 204.02 182.55 204.95 182.91 205.73 Z M 183.33 206.63 L 183.74 207.54 C 184.10 208.32 185.03 208.67 185.81 208.31 C 186.60 207.96 186.94 207.03 186.58 206.25 L 186.17 205.33 C 185.81 204.55 184.88 204.20 184.10 204.56 C 183.32 204.92 182.97 205.84 183.33 206.63 Z M 183.74 207.52 L 184.14 208.44 C 184.49 209.23 185.41 209.58 186.20 209.23 C 186.99 208.89 187.35 207.96 187.00 207.18 L 186.59 206.26 C 186.24 205.47 185.32 205.12 184.53 205.46 C 183.74 205.81 183.39 206.74 183.74 207.52 Z M 184.13 208.42 L 184.51 209.31 C 184.85 210.10 185.77 210.47 186.56 210.13 C 187.35 209.79 187.72 208.88 187.38 208.08 L 187.01 207.19 C 186.67 206.40 185.75 206.03 184.96 206.37 C 184.16 206.71 183.79 207.63 184.13 208.42 Z M 184.51 209.29 L 184.88 210.21 C 185.21 211.00 186.12 211.38 186.92 211.06 C 187.72 210.73 188.10 209.81 187.77 209.02 L 187.39 208.10 C 187.06 207.30 186.15 206.92 185.35 207.25 C 184.56 207.58 184.18 208.50 184.51 209.29 Z M 184.88 210.19 L 185.26 211.14 C 185.58 211.94 186.49 212.33 187.29 212.01 C 188.09 211.69 188.48 210.78 188.15 209.98 L 187.77 209.03 C 187.45 208.23 186.54 207.84 185.74 208.16 C 184.94 208.48 184.56 209.39 184.88 210.19 Z M 185.25 211.13 L 185.63 212.08 C 185.94 212.88 186.85 213.28 187.65 212.96 C 188.45 212.65 188.85 211.74 188.53 210.94 L 188.16 209.99 C 187.84 209.18 186.94 208.79 186.13 209.11 C 185.33 209.42 184.94 210.33 185.25 211.13 Z M 185.62 212.07 L 185.98 212.98 C 186.29 213.79 187.19 214.19 187.99 213.88 C 188.80 213.57 189.20 212.66 188.89 211.86 L 188.54 210.95 C 188.23 210.14 187.32 209.74 186.52 210.05 C 185.71 210.36 185.31 211.27 185.62 212.07 Z M 185.97 212.97 L 186.33 213.91 C 186.63 214.72 187.53 215.12 188.34 214.82 C 189.14 214.51 189.55 213.61 189.25 212.81 L 188.89 211.87 C 188.59 211.06 187.69 210.66 186.88 210.96 C 186.07 211.27 185.67 212.17 185.97 212.97 Z M 186.32 213.90 L 186.67 214.85 C 186.97 215.66 187.86 216.07 188.67 215.78 C 189.48 215.48 189.90 214.58 189.60 213.77 L 189.25 212.82 C 188.95 212.01 188.06 211.60 187.25 211.89 C 186.44 212.19 186.02 213.09 186.32 213.90 Z M 186.66 214.83 L 187.00 215.79 C 187.29 216.60 188.18 217.03 188.99 216.74 C 189.81 216.45 190.23 215.56 189.95 214.75 L 189.61 213.79 C 189.32 212.98 188.43 212.55 187.61 212.84 C 186.80 213.13 186.38 214.02 186.66 214.83 Z M 187.00 215.77 L 187.32 216.72 C 187.59 217.54 188.48 217.97 189.30 217.70 C 190.11 217.42 190.55 216.53 190.27 215.72 L 189.95 214.77 C 189.68 213.95 188.79 213.51 187.97 213.79 C 187.16 214.07 186.72 214.95 187.00 215.77 Z M 187.31 216.70 L 187.62 217.65 C 187.89 218.47 188.77 218.92 189.59 218.65 C 190.41 218.38 190.86 217.50 190.59 216.68 L 190.28 215.73 C 190.01 214.91 189.13 214.47 188.31 214.73 C 187.49 215.00 187.04 215.88 187.31 216.70 Z M 187.62 217.64 L 187.92 218.59 C 188.18 219.41 189.06 219.87 189.88 219.60 C 190.70 219.34 191.16 218.47 190.90 217.64 L 190.59 216.69 C 190.33 215.87 189.45 215.42 188.63 215.68 C 187.81 215.94 187.36 216.82 187.62 217.64 Z M 187.92 218.58 L 188.21 219.54 C 188.47 220.36 189.35 220.82 190.17 220.56 C 190.99 220.31 191.45 219.43 191.20 218.61 L 190.90 217.65 C 190.64 216.83 189.77 216.37 188.94 216.63 C 188.12 216.88 187.66 217.76 187.92 218.58 Z M 188.21 219.53 L 188.51 220.50 C 188.77 221.32 189.64 221.79 190.47 221.53 C 191.29 221.28 191.75 220.40 191.50 219.58 L 191.20 218.61 C 190.94 217.79 190.07 217.33 189.24 217.58 C 188.42 217.84 187.96 218.71 188.21 219.53 Z M 188.51 220.50 L 188.81 221.47 C 189.07 222.30 189.94 222.76 190.76 222.50 C 191.59 222.25 192.05 221.38 191.80 220.55 L 191.50 219.58 C 191.24 218.76 190.37 218.29 189.54 218.55 C 188.72 218.80 188.26 219.67 188.51 220.50 Z M 188.81 221.47 L 189.11 222.44 C 189.36 223.26 190.23 223.72 191.06 223.47 C 191.88 223.22 192.35 222.35 192.09 221.52 L 191.80 220.55 C 191.54 219.73 190.67 219.27 189.85 219.52 C 189.02 219.77 188.56 220.64 188.81 221.47 Z M 189.11 222.43 L 189.39 223.38 C 189.65 224.21 190.52 224.67 191.34 224.42 C 192.17 224.17 192.63 223.30 192.38 222.48 L 192.09 221.53 C 191.84 220.70 190.97 220.23 190.15 220.48 C 189.32 220.74 188.86 221.61 189.11 222.43 Z M 189.39 223.38 L 189.67 224.31 C 189.92 225.13 190.79 225.60 191.61 225.35 C 192.44 225.11 192.91 224.24 192.66 223.41 L 192.38 222.48 C 192.14 221.66 191.27 221.19 190.44 221.43 C 189.61 221.68 189.15 222.55 189.39 223.38 Z M 189.67 224.30 L 189.96 225.29 C 190.20 226.12 191.07 226.59 191.90 226.35 C 192.72 226.10 193.20 225.24 192.96 224.41 L 192.66 223.42 C 192.42 222.59 191.55 222.12 190.73 222.36 C 189.90 222.60 189.43 223.47 189.67 224.30 Z M 189.96 225.28 L 190.23 226.24 C 190.47 227.07 191.33 227.55 192.16 227.31 C 192.99 227.07 193.47 226.21 193.23 225.38 L 192.96 224.42 C 192.72 223.59 191.86 223.11 191.03 223.35 C 190.20 223.58 189.72 224.45 189.96 225.28 Z M 190.23 226.22 L 190.49 227.17 C 190.72 228.00 191.58 228.49 192.41 228.26 C 193.24 228.04 193.73 227.18 193.50 226.35 L 193.24 225.40 C 193.01 224.56 192.15 224.08 191.32 224.30 C 190.49 224.53 190.00 225.39 190.23 226.22 Z M 190.48 227.16 L 190.73 228.11 C 190.95 228.94 191.81 229.44 192.64 229.22 C 193.47 229.00 193.97 228.15 193.75 227.31 L 193.50 226.36 C 193.28 225.53 192.43 225.03 191.60 225.25 C 190.76 225.47 190.26 226.32 190.48 227.16 Z M 190.73 228.09 L 190.98 229.08 C 191.19 229.91 192.03 230.42 192.87 230.21 C 193.71 230.00 194.21 229.16 194.00 228.32 L 193.76 227.33 C 193.55 226.50 192.70 225.99 191.86 226.20 C 191.03 226.41 190.52 227.25 190.73 228.09 Z M 190.97 229.07 L 191.21 230.06 C 191.42 230.89 192.26 231.41 193.10 231.20 C 193.94 231.00 194.45 230.15 194.25 229.32 L 194.01 228.33 C 193.80 227.49 192.96 226.98 192.12 227.18 C 191.28 227.39 190.77 228.23 190.97 229.07 Z M 191.21 230.06 L 191.45 231.03 C 191.66 231.86 192.50 232.38 193.34 232.17 C 194.18 231.97 194.69 231.12 194.48 230.28 L 194.25 229.31 C 194.04 228.48 193.20 227.96 192.36 228.17 C 191.52 228.37 191.01 229.22 191.21 230.06 Z M 191.46 231.04 L 191.69 231.97 C 191.90 232.81 192.75 233.31 193.59 233.10 C 194.42 232.89 194.93 232.04 194.72 231.20 L 194.48 230.27 C 194.27 229.43 193.42 228.93 192.58 229.14 C 191.75 229.35 191.24 230.20 191.46 231.04 Z M 191.70 231.99 L 191.93 232.86 C 192.15 233.69 193.01 234.19 193.84 233.96 C 194.67 233.74 195.17 232.88 194.95 232.05 L 194.71 231.18 C 194.49 230.35 193.63 229.85 192.80 230.08 C 191.97 230.30 191.47 231.16 191.70 231.99 Z M 191.93 232.87 L 192.18 233.76 C 192.40 234.59 193.26 235.08 194.09 234.85 C 194.93 234.63 195.42 233.77 195.19 232.94 L 194.94 232.04 C 194.72 231.21 193.86 230.72 193.03 230.95 C 192.19 231.18 191.70 232.04 191.93 232.87 Z M 192.18 233.76 L 192.44 234.74 C 192.67 235.57 193.52 236.06 194.35 235.84 C 195.19 235.61 195.68 234.76 195.45 233.92 L 195.19 232.94 C 194.96 232.11 194.11 231.62 193.28 231.84 C 192.44 232.07 191.95 232.92 192.18 233.76 Z M 192.44 234.72 L 192.73 235.84 C 192.94 236.68 193.80 237.18 194.63 236.96 C 195.46 236.75 195.97 235.89 195.75 235.06 L 195.46 233.94 C 195.24 233.10 194.39 232.60 193.56 232.82 C 192.72 233.04 192.22 233.89 192.44 234.72 Z M 192.72 235.83 L 192.94 236.70 C 193.15 237.53 194.00 238.04 194.83 237.84 C 195.67 237.63 196.18 236.78 195.97 235.94 L 195.75 235.07 C 195.54 234.24 194.70 233.73 193.86 233.94 C 193.02 234.14 192.51 234.99 192.72 235.83 Z M 192.94 236.69 L 193.17 237.63 C 193.37 238.47 194.22 238.99 195.05 238.78 C 195.89 238.58 196.41 237.73 196.20 236.89 L 195.97 235.95 C 195.77 235.11 194.92 234.60 194.09 234.80 C 193.25 235.01 192.73 235.85 192.94 236.69 Z M 193.17 237.63 L 193.41 238.62 C 193.61 239.46 194.45 239.98 195.29 239.77 C 196.13 239.57 196.64 238.73 196.44 237.89 L 196.20 236.90 C 196.00 236.06 195.16 235.54 194.32 235.75 C 193.48 235.95 192.96 236.79 193.17 237.63 Z M 193.41 238.62 L 193.65 239.64 C 193.85 240.48 194.69 240.99 195.53 240.79 C 196.37 240.59 196.89 239.75 196.69 238.91 L 196.44 237.89 C 196.24 237.05 195.40 236.54 194.56 236.74 C 193.72 236.94 193.20 237.78 193.41 238.62 Z M 193.65 239.64 L 193.90 240.66 C 194.10 241.50 194.94 242.01 195.78 241.81 C 196.62 241.61 197.13 240.76 196.93 239.92 L 196.69 238.91 C 196.48 238.07 195.64 237.55 194.80 237.76 C 193.96 237.96 193.45 238.80 193.65 239.64 Z M 193.90 240.66 L 194.14 241.66 C 194.35 242.50 195.19 243.01 196.03 242.80 C 196.87 242.60 197.38 241.75 197.17 240.92 L 196.93 239.92 C 196.73 239.08 195.88 238.57 195.04 238.78 C 194.20 238.98 193.69 239.83 193.90 240.66 Z M 194.14 241.67 L 194.41 242.74 C 194.62 243.58 195.47 244.09 196.31 243.88 C 197.14 243.67 197.65 242.82 197.44 241.98 L 197.17 240.91 C 196.96 240.07 196.12 239.56 195.28 239.77 C 194.44 239.98 193.93 240.83 194.14 241.67 Z M 194.41 242.75 L 194.67 243.77 C 194.89 244.61 195.74 245.11 196.57 244.90 C 197.41 244.68 197.91 243.83 197.70 243.00 L 197.44 241.98 C 197.23 241.14 196.38 240.64 195.54 240.85 C 194.71 241.06 194.20 241.91 194.41 242.75 Z M 194.68 243.77 L 194.92 244.74 C 195.14 245.58 195.99 246.08 196.83 245.87 C 197.66 245.65 198.16 244.80 197.95 243.97 L 197.70 243.00 C 197.48 242.16 196.63 241.66 195.80 241.87 C 194.96 242.09 194.46 242.94 194.68 243.77 Z M 194.92 244.74 L 195.16 245.67 C 195.38 246.50 196.23 247.01 197.06 246.79 C 197.90 246.58 198.40 245.73 198.19 244.89 L 197.95 243.97 C 197.73 243.13 196.88 242.63 196.05 242.84 C 195.21 243.06 194.71 243.91 194.92 244.74 Z M 195.16 245.66 L 195.38 246.55 C 195.60 247.39 196.45 247.89 197.28 247.68 C 198.12 247.47 198.62 246.62 198.41 245.79 L 198.19 244.90 C 197.98 244.06 197.13 243.56 196.29 243.77 C 195.46 243.98 194.95 244.83 195.16 245.66 Z M 195.38 246.54 L 195.62 247.51 C 195.83 248.34 196.67 248.86 197.51 248.65 C 198.35 248.45 198.86 247.60 198.65 246.76 L 198.41 245.80 C 198.21 244.96 197.36 244.45 196.53 244.65 C 195.69 244.86 195.18 245.70 195.38 246.54 Z M 195.62 247.50 L 195.85 248.48 C 196.05 249.32 196.89 249.84 197.73 249.64 C 198.57 249.44 199.09 248.60 198.89 247.76 L 198.65 246.78 C 198.46 245.94 197.61 245.42 196.78 245.62 C 195.94 245.82 195.42 246.66 195.62 247.50 Z M 195.85 248.48 L 196.07 249.44 C 196.27 250.28 197.11 250.80 197.95 250.61 C 198.79 250.41 199.31 249.57 199.11 248.73 L 198.89 247.77 C 198.70 246.93 197.86 246.41 197.02 246.60 C 196.18 246.80 195.65 247.64 195.85 248.48 Z M 196.07 249.44 L 196.29 250.39 C 196.48 251.23 197.32 251.75 198.16 251.56 C 199.00 251.37 199.53 250.53 199.33 249.69 L 199.11 248.74 C 198.92 247.90 198.08 247.37 197.24 247.57 C 196.40 247.76 195.88 248.60 196.07 249.44 Z M 196.29 250.39 L 196.52 251.36 C 196.71 252.20 197.55 252.72 198.39 252.53 C 199.23 252.33 199.75 251.50 199.56 250.66 L 199.33 249.69 C 199.14 248.85 198.30 248.32 197.46 248.52 C 196.62 248.71 196.10 249.55 196.29 250.39 Z M 196.52 251.36 L 196.75 252.38 C 196.95 253.21 197.79 253.74 198.63 253.54 C 199.47 253.34 199.99 252.50 199.79 251.66 L 199.56 250.65 C 199.36 249.81 198.52 249.29 197.68 249.49 C 196.84 249.68 196.32 250.52 196.52 251.36 Z M 196.75 252.37 L 196.98 253.37 C 197.18 254.21 198.02 254.74 198.86 254.54 C 199.70 254.35 200.22 253.51 200.03 252.67 L 199.79 251.67 C 199.60 250.83 198.76 250.30 197.92 250.50 C 197.08 250.69 196.56 251.53 196.75 252.37 Z M 196.98 253.36 L 197.20 254.33 C 197.38 255.17 198.22 255.70 199.06 255.51 C 199.90 255.32 200.43 254.49 200.24 253.65 L 200.03 252.68 C 199.84 251.84 199.01 251.31 198.16 251.50 C 197.32 251.68 196.79 252.52 196.98 253.36 Z M 197.19 254.30 L 197.38 255.24 C 197.56 256.08 198.38 256.63 199.23 256.45 C 200.07 256.28 200.62 255.45 200.44 254.61 L 200.25 253.67 C 200.07 252.83 199.25 252.28 198.40 252.46 C 197.56 252.63 197.02 253.46 197.19 254.30 Z M 197.38 255.21 L 197.62 256.50 C 197.77 257.34 198.59 257.90 199.44 257.75 C 200.28 257.59 200.84 256.78 200.69 255.93 L 200.45 254.64 C 200.29 253.79 199.48 253.23 198.63 253.39 C 197.78 253.54 197.22 254.36 197.38 255.21 Z M 197.63 256.55 L 197.82 257.44 C 198.01 258.29 198.84 258.82 199.68 258.64 C 200.52 258.45 201.06 257.62 200.87 256.78 L 200.68 255.88 C 200.49 255.04 199.66 254.50 198.82 254.69 C 197.98 254.87 197.44 255.70 197.63 256.55 Z M 198.40 258.35 L 198.73 258.61 C 199.41 259.13 200.39 259.00 200.92 258.32 C 201.45 257.64 201.32 256.66 200.63 256.13 L 200.30 255.87 C 199.62 255.35 198.64 255.47 198.11 256.16 C 197.58 256.84 197.71 257.82 198.40 258.35 Z M 201.06 258.11 L 201.44 257.40 C 201.85 256.65 201.57 255.70 200.81 255.29 C 200.05 254.88 199.10 255.16 198.69 255.92 L 198.31 256.63 C 197.90 257.38 198.18 258.33 198.94 258.74 C 199.70 259.15 200.65 258.87 201.06 258.11 Z"
      fill="black"
      fill-rule="nonzero" /><path d="M 232.08 68.13 L 231.83 69.08 C 231.61 69.92 232.11 70.77 232.94 70.99 C 233.78 71.20 234.63 70.70 234.85 69.87 L 235.10 68.92 C 235.32 68.08 234.82 67.23 233.98 67.01 C 233.15 66.79 232.30 67.29 232.08 68.13 Z M 231.83 69.08 L 231.58 70.04 C 231.36 70.87 231.86 71.72 232.69 71.94 C 233.52 72.16 234.38 71.66 234.60 70.83 L 234.85 69.87 C 235.07 69.04 234.57 68.19 233.74 67.97 C 232.90 67.75 232.05 68.25 231.83 69.08 Z M 231.58 70.03 L 231.32 70.99 C 231.10 71.83 231.60 72.68 232.43 72.90 C 233.26 73.12 234.12 72.63 234.34 71.80 L 234.60 70.83 C 234.82 70.00 234.32 69.15 233.49 68.92 C 232.66 68.70 231.80 69.20 231.58 70.03 Z M 231.33 70.99 L 231.06 71.95 C 230.84 72.79 231.33 73.64 232.16 73.87 C 232.99 74.10 233.85 73.60 234.08 72.77 L 234.34 71.80 C 234.56 70.97 234.07 70.11 233.24 69.89 C 232.41 69.66 231.55 70.15 231.33 70.99 Z M 231.06 71.94 L 230.79 72.92 C 230.56 73.75 231.05 74.61 231.88 74.85 C 232.71 75.08 233.57 74.59 233.80 73.76 L 234.07 72.78 C 234.30 71.95 233.82 71.09 232.99 70.86 C 232.16 70.63 231.30 71.11 231.06 71.94 Z M 230.80 72.91 L 230.52 73.87 C 230.28 74.70 230.76 75.56 231.59 75.80 C 232.42 76.04 233.29 75.56 233.52 74.73 L 233.80 73.77 C 234.03 72.94 233.56 72.08 232.73 71.84 C 231.90 71.60 231.03 72.08 230.80 72.91 Z M 230.52 73.86 L 230.24 74.81 C 230.00 75.63 230.47 76.50 231.30 76.75 C 232.13 76.99 232.99 76.52 233.24 75.69 L 233.52 74.74 C 233.76 73.92 233.29 73.05 232.46 72.80 C 231.64 72.56 230.77 73.03 230.52 73.86 Z M 230.25 74.79 L 229.96 75.75 C 229.71 76.57 230.17 77.45 230.99 77.70 C 231.82 77.95 232.69 77.49 232.94 76.66 L 233.23 75.71 C 233.49 74.88 233.02 74.01 232.20 73.76 C 231.37 73.50 230.50 73.97 230.25 74.79 Z M 229.96 75.73 L 229.66 76.69 C 229.40 77.51 229.85 78.39 230.68 78.65 C 231.50 78.91 232.37 78.46 232.64 77.63 L 232.94 76.68 C 233.20 75.85 232.74 74.98 231.92 74.72 C 231.10 74.46 230.22 74.91 229.96 75.73 Z M 229.66 76.68 L 229.35 77.63 C 229.08 78.45 229.52 79.33 230.34 79.60 C 231.16 79.87 232.05 79.43 232.31 78.61 L 232.63 77.65 C 232.90 76.83 232.45 75.95 231.63 75.68 C 230.82 75.41 229.93 75.86 229.66 76.68 Z M 229.35 77.62 L 229.03 78.57 C 228.75 79.39 229.18 80.27 230.00 80.55 C 230.81 80.83 231.70 80.40 231.98 79.58 L 232.31 78.63 C 232.59 77.81 232.15 76.92 231.34 76.64 C 230.52 76.36 229.63 76.80 229.35 77.62 Z M 229.03 78.55 L 228.67 79.56 C 228.38 80.37 228.80 81.27 229.62 81.56 C 230.43 81.85 231.32 81.42 231.61 80.61 L 231.97 79.60 C 232.26 78.79 231.84 77.90 231.03 77.61 C 230.22 77.32 229.33 77.74 229.03 78.55 Z M 228.68 79.54 L 228.31 80.54 C 228.01 81.35 228.42 82.25 229.23 82.55 C 230.04 82.85 230.93 82.44 231.23 81.63 L 231.61 80.63 C 231.91 79.82 231.50 78.92 230.69 78.62 C 229.88 78.32 228.98 78.73 228.68 79.54 Z M 228.31 80.53 L 227.94 81.49 C 227.64 82.29 228.04 83.20 228.84 83.51 C 229.65 83.81 230.55 83.41 230.86 82.61 L 231.23 81.64 C 231.54 80.84 231.14 79.94 230.33 79.63 C 229.53 79.32 228.62 79.72 228.31 80.53 Z M 227.95 81.48 L 227.59 82.39 C 227.28 83.19 227.67 84.10 228.47 84.41 C 229.28 84.73 230.18 84.33 230.50 83.53 L 230.86 82.62 C 231.17 81.82 230.77 80.91 229.97 80.59 C 229.17 80.28 228.26 80.68 227.95 81.48 Z M 227.59 82.38 L 227.26 83.23 C 226.94 84.03 227.33 84.94 228.13 85.26 C 228.93 85.58 229.84 85.19 230.15 84.39 L 230.49 83.54 C 230.81 82.74 230.42 81.83 229.62 81.51 C 228.82 81.19 227.91 81.58 227.59 82.38 Z M 227.26 83.22 L 226.87 84.18 C 226.55 84.98 226.93 85.89 227.73 86.22 C 228.53 86.54 229.44 86.15 229.76 85.35 L 230.15 84.39 C 230.48 83.59 230.09 82.68 229.29 82.36 C 228.49 82.04 227.58 82.43 227.26 83.22 Z M 226.87 84.18 L 226.47 85.16 C 226.15 85.96 226.54 86.87 227.33 87.19 C 228.13 87.52 229.04 87.13 229.37 86.33 L 229.76 85.36 C 230.09 84.56 229.70 83.65 228.90 83.32 C 228.11 83.00 227.20 83.38 226.87 84.18 Z M 226.47 85.16 L 226.12 86.04 C 225.80 86.84 226.18 87.75 226.98 88.07 C 227.78 88.39 228.69 88.01 229.01 87.21 L 229.37 86.33 C 229.69 85.53 229.31 84.62 228.51 84.30 C 227.71 83.97 226.80 84.36 226.47 85.16 Z M 226.11 86.05 L 225.78 86.89 C 225.46 87.69 225.86 88.60 226.66 88.92 C 227.46 89.23 228.37 88.84 228.69 88.04 L 229.02 87.20 C 229.34 86.40 228.94 85.49 228.14 85.17 C 227.34 84.86 226.43 85.25 226.11 86.05 Z M 225.78 86.91 L 225.43 87.81 C 225.12 88.61 225.52 89.51 226.33 89.82 C 227.13 90.13 228.04 89.73 228.35 88.92 L 228.69 88.02 C 229.00 87.22 228.60 86.32 227.79 86.01 C 226.99 85.70 226.08 86.10 225.78 86.91 Z M 225.43 87.82 L 225.08 88.74 C 224.78 89.55 225.18 90.45 225.99 90.75 C 226.80 91.06 227.70 90.65 228.00 89.84 L 228.35 88.91 C 228.65 88.11 228.24 87.21 227.44 86.90 C 226.63 86.60 225.73 87.01 225.43 87.82 Z M 225.08 88.75 L 224.72 89.71 C 224.42 90.51 224.83 91.41 225.64 91.71 C 226.45 92.01 227.35 91.60 227.65 90.79 L 228.00 89.84 C 228.30 89.03 227.89 88.13 227.08 87.83 C 226.28 87.53 225.38 87.94 225.08 88.75 Z M 224.72 89.70 L 224.37 90.64 C 224.07 91.45 224.48 92.35 225.29 92.65 C 226.10 92.95 227.00 92.54 227.30 91.73 L 227.65 90.79 C 227.95 89.99 227.54 89.09 226.73 88.79 C 225.92 88.49 225.02 88.90 224.72 89.70 Z M 224.37 90.64 L 224.03 91.56 C 223.72 92.36 224.13 93.26 224.94 93.57 C 225.75 93.87 226.65 93.46 226.95 92.66 L 227.30 91.74 C 227.60 90.93 227.19 90.03 226.38 89.73 C 225.58 89.42 224.68 89.83 224.37 90.64 Z M 224.03 91.55 L 223.67 92.49 C 223.37 93.30 223.77 94.20 224.58 94.51 C 225.38 94.81 226.29 94.41 226.59 93.60 L 226.95 92.66 C 227.25 91.85 226.85 90.95 226.04 90.65 C 225.24 90.34 224.34 90.75 224.03 91.55 Z M 223.67 92.49 L 223.31 93.45 C 223.00 94.25 223.40 95.15 224.21 95.46 C 225.01 95.77 225.92 95.37 226.22 94.56 L 226.59 93.61 C 226.90 92.80 226.50 91.90 225.69 91.59 C 224.89 91.28 223.98 91.68 223.67 92.49 Z M 223.31 93.44 L 222.95 94.37 C 222.64 95.17 223.04 96.08 223.85 96.39 C 224.65 96.70 225.55 96.30 225.86 95.49 L 226.22 94.57 C 226.53 93.76 226.13 92.86 225.33 92.55 C 224.52 92.24 223.62 92.64 223.31 93.44 Z M 222.95 94.37 L 222.59 95.29 C 222.28 96.10 222.68 97.00 223.48 97.31 C 224.29 97.63 225.19 97.23 225.50 96.42 L 225.86 95.50 C 226.18 94.69 225.78 93.79 224.97 93.48 C 224.17 93.16 223.26 93.56 222.95 94.37 Z M 222.59 95.29 L 222.23 96.23 C 221.92 97.03 222.32 97.94 223.12 98.25 C 223.92 98.56 224.83 98.16 225.14 97.36 L 225.50 96.42 C 225.82 95.62 225.42 94.72 224.61 94.40 C 223.81 94.09 222.91 94.49 222.59 95.29 Z M 222.23 96.23 L 221.86 97.17 C 221.55 97.98 221.95 98.88 222.75 99.19 C 223.56 99.50 224.46 99.10 224.77 98.30 L 225.14 97.36 C 225.45 96.55 225.05 95.65 224.25 95.34 C 223.44 95.03 222.54 95.42 222.23 96.23 Z M 221.86 97.18 L 221.50 98.11 C 221.19 98.91 221.59 99.82 222.40 100.13 C 223.20 100.44 224.11 100.04 224.42 99.23 L 224.78 98.30 C 225.09 97.49 224.68 96.59 223.88 96.28 C 223.08 95.97 222.17 96.37 221.86 97.18 Z M 221.50 98.11 L 221.14 99.04 C 220.83 99.85 221.23 100.75 222.04 101.06 C 222.84 101.37 223.75 100.97 224.06 100.17 L 224.42 99.23 C 224.73 98.43 224.32 97.52 223.52 97.21 C 222.71 96.90 221.81 97.31 221.50 98.11 Z M 221.14 99.04 L 220.78 99.98 C 220.47 100.78 220.87 101.68 221.67 102.00 C 222.48 102.31 223.38 101.91 223.69 101.10 L 224.06 100.17 C 224.37 99.37 223.97 98.46 223.16 98.15 C 222.36 97.84 221.46 98.24 221.14 99.04 Z M 220.79 99.97 L 220.42 100.90 C 220.10 101.70 220.50 102.61 221.30 102.92 C 222.10 103.24 223.01 102.84 223.32 102.04 L 223.69 101.11 C 224.01 100.31 223.61 99.40 222.81 99.09 C 222.01 98.77 221.10 99.17 220.79 99.97 Z M 220.42 100.89 L 220.05 101.82 C 219.72 102.61 220.11 103.52 220.91 103.85 C 221.71 104.17 222.62 103.78 222.94 102.98 L 223.32 102.05 C 223.64 101.26 223.26 100.35 222.46 100.02 C 221.66 99.70 220.75 100.09 220.42 100.89 Z M 220.05 101.80 L 219.67 102.72 C 219.34 103.52 219.71 104.43 220.51 104.76 C 221.30 105.10 222.22 104.72 222.55 103.93 L 222.94 103.00 C 223.27 102.21 222.89 101.29 222.10 100.96 C 221.30 100.63 220.39 101.00 220.05 101.80 Z M 219.68 102.70 L 219.28 103.62 C 218.94 104.41 219.30 105.33 220.09 105.67 C 220.88 106.02 221.80 105.65 222.15 104.86 L 222.54 103.94 C 222.89 103.15 222.52 102.23 221.73 101.89 C 220.94 101.55 220.02 101.91 219.68 102.70 Z M 219.29 103.60 L 218.88 104.50 C 218.52 105.29 218.87 106.22 219.66 106.57 C 220.44 106.93 221.37 106.58 221.72 105.79 L 222.13 104.88 C 222.49 104.10 222.14 103.17 221.36 102.82 C 220.57 102.46 219.65 102.81 219.29 103.60 Z M 218.89 104.48 L 218.46 105.39 C 218.09 106.16 218.42 107.10 219.20 107.47 C 219.98 107.83 220.91 107.50 221.28 106.72 L 221.71 105.82 C 222.08 105.04 221.75 104.11 220.97 103.74 C 220.19 103.37 219.26 103.70 218.89 104.48 Z M 218.47 105.36 L 218.03 106.27 C 217.65 107.04 217.96 107.98 218.74 108.36 C 219.51 108.74 220.45 108.42 220.83 107.65 L 221.27 106.75 C 221.65 105.97 221.34 105.04 220.56 104.65 C 219.79 104.27 218.85 104.59 218.47 105.36 Z M 218.03 106.25 L 217.58 107.15 C 217.19 107.92 217.50 108.86 218.27 109.24 C 219.04 109.63 219.98 109.32 220.37 108.55 L 220.82 107.66 C 221.21 106.89 220.90 105.95 220.13 105.56 C 219.36 105.17 218.42 105.48 218.03 106.25 Z M 217.58 107.14 L 217.13 108.03 C 216.74 108.80 217.05 109.74 217.82 110.13 C 218.58 110.52 219.52 110.21 219.92 109.44 L 220.37 108.56 C 220.76 107.79 220.45 106.85 219.68 106.46 C 218.92 106.07 217.98 106.37 217.58 107.14 Z M 217.13 108.03 L 216.68 108.93 C 216.29 109.69 216.59 110.63 217.36 111.02 C 218.13 111.42 219.07 111.11 219.46 110.34 L 219.92 109.44 C 220.31 108.67 220.00 107.73 219.23 107.34 C 218.46 106.95 217.52 107.26 217.13 108.03 Z M 216.68 108.93 L 216.22 109.82 C 215.83 110.59 216.14 111.53 216.91 111.92 C 217.68 112.31 218.62 112.00 219.01 111.23 L 219.46 110.34 C 219.85 109.57 219.54 108.63 218.77 108.24 C 218.01 107.85 217.07 108.16 216.68 108.93 Z M 216.22 109.82 L 215.77 110.71 C 215.38 111.48 215.68 112.42 216.45 112.81 C 217.22 113.20 218.16 112.89 218.55 112.13 L 219.01 111.24 C 219.40 110.47 219.09 109.53 218.32 109.14 C 217.56 108.75 216.62 109.05 216.22 109.82 Z M 215.78 110.70 L 215.32 111.58 C 214.92 112.34 215.22 113.28 215.99 113.68 C 216.75 114.08 217.69 113.78 218.09 113.02 L 218.55 112.14 C 218.94 111.37 218.65 110.43 217.88 110.03 C 217.12 109.63 216.17 109.93 215.78 110.70 Z M 215.33 111.56 L 214.85 112.46 C 214.44 113.22 214.73 114.17 215.49 114.57 C 216.25 114.98 217.19 114.69 217.60 113.93 L 218.08 113.03 C 218.49 112.27 218.20 111.33 217.44 110.92 C 216.68 110.51 215.73 110.80 215.33 111.56 Z M 214.86 112.44 L 214.37 113.34 C 213.95 114.09 214.23 115.04 214.98 115.46 C 215.74 115.87 216.69 115.59 217.10 114.84 L 217.59 113.95 C 218.01 113.19 217.73 112.24 216.98 111.83 C 216.22 111.41 215.27 111.69 214.86 112.44 Z M 214.37 113.32 L 213.89 114.19 C 213.47 114.94 213.74 115.90 214.49 116.32 C 215.24 116.74 216.19 116.47 216.61 115.72 L 217.10 114.85 C 217.52 114.10 217.25 113.15 216.50 112.72 C 215.75 112.30 214.79 112.57 214.37 113.32 Z M 213.89 114.18 L 213.41 115.03 C 212.99 115.78 213.25 116.73 214.00 117.16 C 214.75 117.58 215.70 117.32 216.13 116.57 L 216.61 115.72 C 217.03 114.97 216.77 114.02 216.02 113.60 C 215.27 113.17 214.32 113.43 213.89 114.18 Z M 213.42 115.02 L 212.92 115.90 C 212.49 116.64 212.75 117.60 213.50 118.03 C 214.24 118.46 215.20 118.20 215.63 117.45 L 216.13 116.57 C 216.55 115.83 216.30 114.87 215.55 114.44 C 214.80 114.01 213.85 114.27 213.42 115.02 Z M 212.92 115.89 L 212.43 116.74 C 211.99 117.49 212.25 118.44 212.99 118.88 C 213.74 119.31 214.69 119.06 215.13 118.31 L 215.62 117.46 C 216.05 116.71 215.80 115.75 215.05 115.32 C 214.31 114.89 213.35 115.14 212.92 115.89 Z M 212.43 116.73 L 211.92 117.59 C 211.49 118.33 211.73 119.29 212.47 119.73 C 213.22 120.17 214.17 119.92 214.61 119.18 L 215.12 118.32 C 215.56 117.58 215.31 116.62 214.57 116.18 C 213.83 115.74 212.87 115.99 212.43 116.73 Z M 211.93 117.58 L 211.42 118.43 C 210.97 119.17 211.21 120.13 211.95 120.57 C 212.69 121.02 213.65 120.78 214.09 120.04 L 214.61 119.19 C 215.05 118.45 214.81 117.49 214.07 117.05 C 213.33 116.60 212.38 116.84 211.93 117.58 Z M 211.42 118.42 L 210.90 119.28 C 210.45 120.02 210.68 120.98 211.42 121.43 C 212.15 121.88 213.12 121.64 213.56 120.91 L 214.09 120.05 C 214.54 119.31 214.31 118.35 213.57 117.90 C 212.83 117.45 211.87 117.69 211.42 118.42 Z M 210.90 119.27 L 210.37 120.13 C 209.92 120.87 210.15 121.83 210.88 122.28 C 211.62 122.73 212.58 122.51 213.03 121.77 L 213.56 120.91 C 214.01 120.18 213.79 119.22 213.05 118.76 C 212.32 118.31 211.36 118.54 210.90 119.27 Z M 210.38 120.13 L 209.85 120.98 C 209.39 121.72 209.62 122.68 210.35 123.13 C 211.08 123.59 212.04 123.36 212.50 122.63 L 213.03 121.78 C 213.48 121.04 213.26 120.08 212.53 119.63 C 211.79 119.17 210.83 119.40 210.38 120.13 Z M 209.85 120.98 L 209.31 121.85 C 208.85 122.59 209.07 123.55 209.81 124.00 C 210.54 124.46 211.50 124.23 211.96 123.50 L 212.50 122.63 C 212.95 121.90 212.73 120.93 212.00 120.48 C 211.26 120.02 210.30 120.25 209.85 120.98 Z M 209.30 121.86 L 208.78 122.71 C 208.33 123.44 208.55 124.40 209.29 124.86 C 210.02 125.31 210.98 125.08 211.44 124.35 L 211.96 123.50 C 212.41 122.76 212.18 121.80 211.45 121.35 C 210.72 120.90 209.75 121.12 209.30 121.86 Z M 208.77 122.72 L 208.27 123.55 C 207.82 124.29 208.06 125.25 208.79 125.70 C 209.53 126.14 210.49 125.91 210.94 125.17 L 211.44 124.34 C 211.89 123.60 211.65 122.64 210.92 122.19 C 210.18 121.74 209.22 121.98 208.77 122.72 Z M 208.26 123.57 L 207.79 124.36 C 207.35 125.10 207.60 126.06 208.34 126.50 C 209.09 126.93 210.04 126.69 210.48 125.94 L 210.95 125.15 C 211.38 124.41 211.14 123.46 210.40 123.02 C 209.65 122.58 208.70 122.83 208.26 123.57 Z M 207.78 124.37 L 207.32 125.18 C 206.89 125.93 207.14 126.89 207.89 127.32 C 208.64 127.75 209.59 127.49 210.02 126.74 L 210.49 125.93 C 210.92 125.18 210.66 124.23 209.91 123.80 C 209.17 123.37 208.21 123.63 207.78 124.37 Z M 207.31 125.20 L 206.81 126.09 C 206.39 126.84 206.65 127.79 207.40 128.21 C 208.16 128.64 209.11 128.37 209.53 127.62 L 210.03 126.73 C 210.45 125.98 210.19 125.02 209.43 124.60 C 208.68 124.18 207.73 124.45 207.31 125.20 Z M 206.80 126.10 L 206.28 127.04 C 205.86 127.80 206.13 128.75 206.89 129.16 C 207.64 129.58 208.59 129.31 209.01 128.56 L 209.53 127.61 C 209.95 126.86 209.68 125.91 208.93 125.49 C 208.17 125.07 207.22 125.34 206.80 126.10 Z M 206.28 127.05 L 205.87 127.79 C 205.45 128.55 205.73 129.50 206.49 129.91 C 207.24 130.33 208.19 130.05 208.61 129.29 L 209.01 128.55 C 209.43 127.79 209.15 126.84 208.40 126.43 C 207.64 126.02 206.69 126.29 206.28 127.05 Z M 205.86 127.80 L 205.43 128.61 C 205.02 129.37 205.30 130.32 206.06 130.73 C 206.82 131.14 207.77 130.85 208.17 130.09 L 208.61 129.28 C 209.02 128.52 208.74 127.58 207.98 127.17 C 207.22 126.76 206.27 127.04 205.86 127.80 Z M 205.42 128.63 L 204.95 129.51 C 204.55 130.27 204.84 131.21 205.61 131.62 C 206.37 132.02 207.31 131.73 207.72 130.96 L 208.18 130.08 C 208.58 129.32 208.29 128.37 207.53 127.97 C 206.77 127.57 205.82 127.86 205.42 128.63 Z M 204.95 129.52 L 204.46 130.48 C 204.07 131.24 204.37 132.18 205.14 132.58 C 205.90 132.97 206.84 132.67 207.24 131.90 L 207.73 130.95 C 208.12 130.18 207.81 129.24 207.05 128.85 C 206.28 128.45 205.34 128.76 204.95 129.52 Z M 204.45 130.49 L 203.94 131.52 C 203.56 132.29 203.88 133.23 204.65 133.61 C 205.42 133.99 206.36 133.68 206.74 132.90 L 207.25 131.88 C 207.63 131.11 207.31 130.17 206.54 129.79 C 205.77 129.41 204.83 129.72 204.45 130.49 Z M 203.93 131.54 L 203.47 132.50 C 203.10 133.28 203.43 134.21 204.21 134.58 C 204.99 134.95 205.92 134.62 206.29 133.84 L 206.75 132.88 C 207.12 132.11 206.79 131.17 206.02 130.80 C 205.24 130.43 204.31 130.76 203.93 131.54 Z M 203.47 132.51 L 203.03 133.45 C 202.67 134.23 203.01 135.16 203.79 135.53 C 204.57 135.89 205.50 135.55 205.86 134.77 L 206.30 133.83 C 206.66 133.05 206.32 132.12 205.54 131.75 C 204.76 131.39 203.83 131.73 203.47 132.51 Z M 203.02 133.47 L 202.59 134.42 C 202.24 135.21 202.59 136.13 203.37 136.49 C 204.16 136.84 205.08 136.49 205.44 135.71 L 205.87 134.75 C 206.22 133.97 205.88 133.04 205.09 132.69 C 204.30 132.33 203.38 132.68 203.02 133.47 Z M 202.59 134.43 L 202.17 135.39 C 201.82 136.17 202.18 137.10 202.97 137.44 C 203.76 137.79 204.68 137.43 205.03 136.64 L 205.45 135.69 C 205.79 134.90 205.43 133.98 204.65 133.63 C 203.86 133.29 202.94 133.64 202.59 134.43 Z M 202.16 135.40 L 201.76 136.33 C 201.42 137.12 201.79 138.04 202.58 138.38 C 203.37 138.72 204.29 138.35 204.63 137.56 L 205.03 136.63 C 205.37 135.84 205.01 134.92 204.21 134.58 C 203.42 134.24 202.50 134.61 202.16 135.40 Z M 201.76 136.34 L 201.39 137.23 C 201.05 138.03 201.43 138.94 202.22 139.27 C 203.02 139.61 203.93 139.23 204.27 138.44 L 204.64 137.55 C 204.97 136.75 204.60 135.84 203.80 135.50 C 203.01 135.17 202.09 135.55 201.76 136.34 Z M 201.38 137.25 L 201.04 138.09 C 200.72 138.88 201.10 139.79 201.90 140.12 C 202.70 140.44 203.61 140.06 203.93 139.26 L 204.27 138.42 C 204.60 137.62 204.21 136.71 203.41 136.39 C 202.61 136.06 201.70 136.45 201.38 137.25 Z M 201.03 138.11 L 200.59 139.24 C 200.28 140.05 200.68 140.95 201.48 141.26 C 202.29 141.57 203.19 141.17 203.50 140.37 L 203.94 139.24 C 204.25 138.43 203.85 137.53 203.05 137.22 C 202.25 136.90 201.34 137.30 201.03 138.11 Z M 200.58 139.27 L 200.22 140.26 C 199.93 141.07 200.34 141.97 201.15 142.26 C 201.96 142.56 202.86 142.14 203.15 141.33 L 203.51 140.34 C 203.81 139.53 203.39 138.63 202.58 138.34 C 201.77 138.04 200.87 138.46 200.58 139.27 Z M 200.21 140.29 L 199.91 141.17 C 199.63 141.99 200.07 142.87 200.88 143.15 C 201.70 143.43 202.59 142.99 202.86 142.18 L 203.16 141.30 C 203.44 140.48 203.01 139.60 202.19 139.32 C 201.37 139.04 200.49 139.47 200.21 140.29 Z M 199.90 141.20 L 199.64 142.01 C 199.38 142.83 199.83 143.71 200.65 143.97 C 201.47 144.24 202.35 143.78 202.61 142.96 L 202.87 142.15 C 203.14 141.33 202.69 140.45 201.87 140.19 C 201.05 139.92 200.17 140.38 199.90 141.20 Z M 199.63 142.02 L 199.35 142.93 C 199.10 143.76 199.55 144.63 200.38 144.89 C 201.20 145.14 202.08 144.68 202.33 143.86 L 202.62 142.95 C 202.87 142.13 202.41 141.25 201.59 140.99 C 200.77 140.74 199.89 141.20 199.63 142.02 Z M 199.35 142.95 L 199.06 143.91 C 198.82 144.74 199.29 145.60 200.11 145.85 C 200.94 146.09 201.81 145.62 202.05 144.80 L 202.34 143.84 C 202.58 143.01 202.11 142.15 201.29 141.90 C 200.46 141.66 199.59 142.13 199.35 142.95 Z M 199.05 143.94 L 198.79 144.90 C 198.56 145.73 199.05 146.59 199.88 146.81 C 200.71 147.04 201.57 146.55 201.80 145.72 L 202.06 144.77 C 202.29 143.93 201.80 143.08 200.97 142.85 C 200.14 142.62 199.28 143.11 199.05 143.94 Z M 198.78 144.94 L 198.55 145.87 C 198.34 146.71 198.86 147.56 199.69 147.76 C 200.53 147.97 201.38 147.46 201.58 146.62 L 201.81 145.68 C 202.02 144.84 201.51 144.00 200.67 143.79 C 199.83 143.59 198.99 144.10 198.78 144.94 Z M 198.54 145.92 L 198.36 146.79 C 198.18 147.63 198.72 148.46 199.56 148.64 C 200.41 148.81 201.23 148.27 201.41 147.43 L 201.59 146.57 C 201.77 145.73 201.23 144.90 200.39 144.72 C 199.54 144.54 198.72 145.08 198.54 145.92 Z M 198.34 146.85 L 198.19 147.78 C 198.04 148.63 198.62 149.44 199.47 149.58 C 200.32 149.73 201.12 149.15 201.27 148.30 L 201.42 147.37 C 201.57 146.52 200.99 145.71 200.14 145.57 C 199.29 145.43 198.49 146.00 198.34 146.85 Z M 198.18 147.85 L 198.05 148.90 C 197.94 149.76 198.55 150.53 199.41 150.64 C 200.27 150.74 201.04 150.13 201.15 149.28 L 201.28 148.23 C 201.38 147.38 200.77 146.60 199.92 146.49 C 199.06 146.39 198.28 147.00 198.18 147.85 Z M 198.04 148.97 L 197.95 150.10 C 197.89 150.96 198.53 151.71 199.39 151.78 C 200.25 151.85 201.00 151.21 201.07 150.35 L 201.16 149.21 C 201.22 148.35 200.58 147.60 199.72 147.53 C 198.86 147.46 198.11 148.11 198.04 148.97 Z M 197.95 150.16 L 197.91 151.13 C 197.87 151.99 198.53 152.72 199.40 152.76 C 200.26 152.80 200.99 152.13 201.02 151.27 L 201.07 150.30 C 201.11 149.43 200.44 148.71 199.58 148.67 C 198.72 148.63 197.99 149.29 197.95 150.16 Z M 197.90 151.17 L 197.89 152.20 C 197.87 153.07 198.56 153.78 199.42 153.79 C 200.28 153.81 200.99 153.12 201.01 152.26 L 201.03 151.23 C 201.04 150.37 200.36 149.66 199.49 149.64 C 198.63 149.63 197.92 150.31 197.90 151.17 Z M 197.89 152.25 L 197.89 153.29 C 197.90 154.15 198.61 154.85 199.47 154.84 C 200.33 154.83 201.02 154.13 201.02 153.26 L 201.01 152.22 C 201.00 151.36 200.29 150.66 199.43 150.67 C 198.57 150.68 197.88 151.38 197.89 152.25 Z M 197.90 153.34 L 197.94 154.36 C 197.97 155.23 198.70 155.90 199.56 155.86 C 200.42 155.83 201.09 155.10 201.06 154.24 L 201.02 153.22 C 200.98 152.35 200.26 151.68 199.39 151.72 C 198.53 151.75 197.86 152.48 197.90 153.34 Z M 197.94 154.42 L 198.02 155.39 C 198.08 156.25 198.83 156.89 199.69 156.82 C 200.55 156.76 201.20 156.00 201.13 155.14 L 201.05 154.18 C 200.99 153.32 200.23 152.68 199.37 152.75 C 198.52 152.81 197.87 153.56 197.94 154.42 Z M 198.03 155.48 L 198.17 156.54 C 198.29 157.39 199.08 157.99 199.93 157.87 C 200.78 157.76 201.38 156.97 201.26 156.12 L 201.12 155.05 C 201.00 154.20 200.21 153.60 199.36 153.72 C 198.51 153.84 197.91 154.62 198.03 155.48 Z M 198.19 156.66 L 198.42 157.68 C 198.61 158.53 199.44 159.06 200.28 158.87 C 201.12 158.69 201.65 157.85 201.47 157.01 L 201.24 155.99 C 201.06 155.15 200.22 154.62 199.38 154.80 C 198.54 154.99 198.01 155.82 198.19 156.66 Z M 198.45 157.81 L 198.74 158.72 C 198.99 159.54 199.87 160.00 200.69 159.75 C 201.51 159.49 201.97 158.62 201.72 157.79 L 201.43 156.88 C 201.18 156.06 200.30 155.60 199.48 155.86 C 198.66 156.11 198.20 156.99 198.45 157.81 Z M 198.77 158.81 L 199.10 159.68 C 199.40 160.48 200.31 160.88 201.11 160.58 C 201.92 160.27 202.32 159.37 202.01 158.56 L 201.68 157.70 C 201.38 156.90 200.47 156.49 199.67 156.80 C 198.86 157.11 198.46 158.01 198.77 158.81 Z M 199.11 159.72 L 199.45 160.52 C 199.78 161.31 200.69 161.69 201.49 161.36 C 202.28 161.02 202.66 160.11 202.33 159.31 L 202.00 158.52 C 201.66 157.72 200.75 157.35 199.95 157.68 C 199.16 158.01 198.78 158.92 199.11 159.72 Z M 199.45 160.54 L 199.80 161.33 C 200.14 162.12 201.06 162.48 201.85 162.14 C 202.64 161.79 203.01 160.87 202.66 160.08 L 202.32 159.29 C 201.98 158.50 201.06 158.14 200.27 158.48 C 199.47 158.83 199.11 159.75 199.45 160.54 Z M 199.81 161.35 L 200.20 162.21 C 200.55 163.00 201.47 163.35 202.26 162.99 C 203.05 162.64 203.40 161.71 203.04 160.93 L 202.65 160.06 C 202.30 159.28 201.37 158.93 200.59 159.28 C 199.80 159.64 199.45 160.56 199.81 161.35 Z M 200.20 162.23 L 200.65 163.19 C 201.02 163.97 201.95 164.31 202.73 163.94 C 203.51 163.58 203.85 162.65 203.48 161.87 L 203.03 160.91 C 202.67 160.13 201.74 159.79 200.96 160.15 C 200.18 160.52 199.84 161.45 200.20 162.23 Z M 200.66 163.20 L 201.18 164.29 C 201.56 165.07 202.49 165.40 203.27 165.02 C 204.04 164.65 204.37 163.72 204.00 162.94 L 203.47 161.85 C 203.10 161.08 202.17 160.75 201.39 161.12 C 200.61 161.50 200.29 162.43 200.66 163.20 Z M 201.19 164.30 L 201.63 165.20 C 202.01 165.97 202.94 166.29 203.72 165.91 C 204.49 165.53 204.81 164.60 204.43 163.82 L 203.99 162.93 C 203.61 162.15 202.68 161.83 201.90 162.21 C 201.13 162.59 200.81 163.53 201.19 164.30 Z M 201.63 165.21 L 202.08 166.11 C 202.47 166.89 203.40 167.20 204.17 166.82 C 204.95 166.43 205.26 165.50 204.88 164.73 L 204.43 163.82 C 204.04 163.05 203.11 162.73 202.33 163.11 C 201.56 163.50 201.25 164.43 201.63 165.21 Z M 202.08 166.12 L 202.55 167.06 C 202.94 167.83 203.88 168.14 204.65 167.75 C 205.42 167.37 205.73 166.43 205.35 165.66 L 204.88 164.72 C 204.49 163.95 203.55 163.64 202.78 164.02 C 202.01 164.41 201.70 165.35 202.08 166.12 Z M 202.55 167.06 L 203.03 168.00 C 203.42 168.77 204.35 169.08 205.12 168.69 C 205.89 168.31 206.20 167.37 205.82 166.60 L 205.34 165.66 C 204.96 164.89 204.02 164.58 203.25 164.96 C 202.48 165.35 202.17 166.29 202.55 167.06 Z M 203.03 168.00 L 203.49 168.92 C 203.88 169.69 204.82 170.00 205.59 169.61 C 206.36 169.22 206.67 168.29 206.28 167.52 L 205.82 166.60 C 205.43 165.83 204.49 165.52 203.72 165.90 C 202.95 166.29 202.64 167.23 203.03 168.00 Z M 203.49 168.92 L 203.93 169.79 C 204.32 170.56 205.26 170.87 206.03 170.48 C 206.80 170.10 207.11 169.16 206.72 168.39 L 206.28 167.52 C 205.89 166.75 204.95 166.44 204.18 166.82 C 203.41 167.21 203.10 168.15 203.49 168.92 Z M 203.93 169.79 L 204.37 170.66 C 204.75 171.43 205.69 171.74 206.46 171.35 C 207.23 170.97 207.54 170.03 207.16 169.26 L 206.72 168.39 C 206.33 167.62 205.40 167.31 204.62 167.69 C 203.85 168.08 203.54 169.02 203.93 169.79 Z M 204.36 170.65 L 204.90 171.74 C 205.28 172.51 206.22 172.83 206.99 172.44 C 207.77 172.06 208.08 171.12 207.70 170.35 L 207.16 169.27 C 206.78 168.49 205.84 168.18 205.07 168.56 C 204.29 168.94 203.98 169.88 204.36 170.65 Z M 204.90 171.73 L 205.34 172.64 C 205.72 173.42 206.66 173.74 207.43 173.36 C 208.20 172.98 208.53 172.05 208.15 171.27 L 207.70 170.36 C 207.32 169.58 206.39 169.26 205.61 169.64 C 204.84 170.02 204.52 170.95 204.90 171.73 Z M 205.34 172.63 L 205.72 173.43 C 206.09 174.21 207.02 174.54 207.80 174.17 C 208.58 173.80 208.91 172.87 208.54 172.09 L 208.15 171.29 C 207.78 170.51 206.85 170.18 206.07 170.55 C 205.29 170.92 204.96 171.85 205.34 172.63 Z M 205.71 173.42 L 206.07 174.18 C 206.43 174.96 207.36 175.30 208.14 174.93 C 208.92 174.57 209.26 173.64 208.90 172.86 L 208.54 172.10 C 208.18 171.32 207.25 170.98 206.47 171.35 C 205.69 171.71 205.35 172.64 205.71 173.42 Z M 206.06 174.17 L 206.46 175.04 C 206.82 175.83 207.74 176.17 208.53 175.82 C 209.31 175.46 209.66 174.53 209.30 173.75 L 208.90 172.87 C 208.54 172.09 207.62 171.74 206.83 172.10 C 206.05 172.45 205.70 173.38 206.06 174.17 Z M 206.46 175.03 L 206.86 175.94 C 207.21 176.73 208.14 177.08 208.92 176.73 C 209.71 176.38 210.06 175.45 209.71 174.66 L 209.31 173.76 C 208.95 172.97 208.03 172.62 207.24 172.97 C 206.46 173.32 206.10 174.25 206.46 175.03 Z M 206.86 175.93 L 207.27 176.86 C 207.62 177.65 208.54 178.01 209.33 177.66 C 210.11 177.31 210.47 176.39 210.12 175.60 L 209.71 174.67 C 209.37 173.88 208.44 173.53 207.66 173.87 C 206.87 174.22 206.51 175.14 206.86 175.93 Z M 207.27 176.86 L 207.67 177.78 C 208.02 178.57 208.94 178.93 209.73 178.58 C 210.52 178.24 210.88 177.32 210.53 176.53 L 210.12 175.60 C 209.78 174.81 208.86 174.45 208.07 174.80 C 207.28 175.15 206.92 176.07 207.27 176.86 Z M 207.67 177.78 L 208.07 178.68 C 208.41 179.47 209.33 179.83 210.12 179.48 C 210.91 179.14 211.27 178.22 210.93 177.43 L 210.53 176.53 C 210.19 175.74 209.26 175.38 208.47 175.73 C 207.69 176.07 207.33 176.99 207.67 177.78 Z M 208.07 178.69 L 208.47 179.60 C 208.82 180.39 209.74 180.75 210.53 180.40 C 211.32 180.05 211.68 179.13 211.33 178.34 L 210.92 177.42 C 210.58 176.64 209.65 176.28 208.87 176.63 C 208.08 176.98 207.72 177.90 208.07 178.69 Z M 208.48 179.61 L 208.89 180.53 C 209.24 181.32 210.16 181.67 210.95 181.32 C 211.74 180.97 212.09 180.05 211.74 179.26 L 211.33 178.33 C 210.97 177.55 210.05 177.19 209.26 177.54 C 208.48 177.90 208.12 178.82 208.48 179.61 Z M 208.89 180.54 L 209.31 181.46 C 209.67 182.25 210.59 182.59 211.38 182.24 C 212.16 181.88 212.51 180.95 212.15 180.17 L 211.74 179.25 C 211.38 178.46 210.45 178.12 209.67 178.47 C 208.88 178.83 208.54 179.76 208.89 180.54 Z M 209.32 181.47 L 209.74 182.38 C 210.10 183.16 211.02 183.50 211.81 183.14 C 212.59 182.78 212.93 181.85 212.57 181.07 L 212.15 180.16 C 211.79 179.38 210.86 179.04 210.08 179.40 C 209.30 179.76 208.95 180.69 209.32 181.47 Z M 209.74 182.38 L 210.16 183.29 C 210.52 184.07 211.45 184.41 212.23 184.05 C 213.01 183.69 213.35 182.76 212.99 181.98 L 212.57 181.07 C 212.20 180.28 211.28 179.94 210.49 180.31 C 209.71 180.67 209.37 181.60 209.74 182.38 Z M 210.16 183.29 L 210.58 184.20 C 210.94 184.98 211.87 185.32 212.65 184.96 C 213.43 184.60 213.77 183.67 213.41 182.89 L 212.99 181.98 C 212.63 181.20 211.70 180.85 210.92 181.22 C 210.14 181.58 209.80 182.51 210.16 183.29 Z M 210.58 184.19 L 210.99 185.10 C 211.35 185.88 212.27 186.23 213.06 185.87 C 213.84 185.51 214.19 184.59 213.83 183.80 L 213.42 182.89 C 213.06 182.11 212.13 181.76 211.35 182.12 C 210.56 182.48 210.22 183.41 210.58 184.19 Z M 210.99 185.09 L 211.40 186.00 C 211.75 186.79 212.67 187.14 213.46 186.79 C 214.25 186.43 214.60 185.51 214.24 184.72 L 213.83 183.81 C 213.48 183.03 212.56 182.67 211.77 183.03 C 210.98 183.38 210.63 184.30 210.99 185.09 Z M 211.39 186.00 L 211.80 186.91 C 212.15 187.70 213.08 188.05 213.86 187.70 C 214.65 187.35 215.00 186.42 214.65 185.64 L 214.25 184.73 C 213.89 183.94 212.97 183.59 212.18 183.94 C 211.40 184.29 211.04 185.21 211.39 186.00 Z M 211.80 186.91 L 212.21 187.82 C 212.56 188.61 213.49 188.96 214.27 188.61 C 215.06 188.26 215.41 187.33 215.06 186.55 L 214.65 185.63 C 214.30 184.85 213.37 184.50 212.59 184.85 C 211.80 185.20 211.45 186.13 211.80 186.91 Z M 212.21 187.83 L 212.63 188.74 C 212.98 189.52 213.91 189.87 214.69 189.51 C 215.48 189.16 215.83 188.23 215.47 187.45 L 215.06 186.54 C 214.70 185.75 213.77 185.41 212.99 185.76 C 212.20 186.12 211.86 187.05 212.21 187.83 Z M 212.63 188.75 L 213.05 189.65 C 213.41 190.43 214.34 190.77 215.12 190.41 C 215.90 190.05 216.24 189.12 215.88 188.34 L 215.46 187.44 C 215.10 186.65 214.17 186.31 213.39 186.68 C 212.61 187.04 212.27 187.97 212.63 188.75 Z M 213.05 189.66 L 213.47 190.56 C 213.84 191.34 214.77 191.68 215.55 191.32 C 216.33 190.95 216.67 190.02 216.30 189.24 L 215.88 188.33 C 215.51 187.55 214.59 187.22 213.80 187.58 C 213.02 187.95 212.69 188.88 213.05 189.66 Z M 213.48 190.57 L 213.90 191.48 C 214.27 192.26 215.20 192.59 215.98 192.23 C 216.76 191.86 217.10 190.93 216.73 190.15 L 216.30 189.24 C 215.94 188.46 215.01 188.12 214.23 188.49 C 213.45 188.85 213.11 189.78 213.48 190.57 Z M 213.90 191.47 L 214.33 192.38 C 214.69 193.16 215.62 193.50 216.40 193.14 C 217.18 192.77 217.52 191.84 217.16 191.06 L 216.73 190.15 C 216.36 189.37 215.44 189.03 214.65 189.40 C 213.87 189.76 213.54 190.69 213.90 191.47 Z M 214.32 192.38 L 214.74 193.28 C 215.11 194.07 216.03 194.41 216.82 194.04 C 217.60 193.68 217.94 192.75 217.58 191.97 L 217.16 191.06 C 216.79 190.28 215.87 189.94 215.08 190.31 C 214.30 190.67 213.96 191.60 214.32 192.38 Z M 214.74 193.28 L 215.16 194.18 C 215.51 194.97 216.44 195.31 217.22 194.96 C 218.01 194.60 218.35 193.67 218.00 192.89 L 217.58 191.98 C 217.22 191.19 216.30 190.85 215.51 191.21 C 214.73 191.57 214.38 192.49 214.74 193.28 Z M 215.15 194.17 L 215.56 195.09 C 215.91 195.87 216.84 196.23 217.62 195.87 C 218.41 195.52 218.76 194.60 218.41 193.81 L 218.00 192.90 C 217.65 192.11 216.72 191.76 215.94 192.11 C 215.15 192.46 214.80 193.39 215.15 194.17 Z M 215.55 195.07 L 215.96 195.99 C 216.30 196.78 217.22 197.14 218.01 196.80 C 218.80 196.45 219.16 195.53 218.82 194.74 L 218.42 193.82 C 218.07 193.03 217.15 192.67 216.36 193.02 C 215.57 193.36 215.21 194.28 215.55 195.07 Z M 215.95 195.98 L 216.34 196.90 C 216.68 197.69 217.60 198.06 218.39 197.73 C 219.18 197.39 219.55 196.47 219.21 195.68 L 218.82 194.76 C 218.49 193.96 217.57 193.59 216.78 193.93 C 215.98 194.27 215.61 195.19 215.95 195.98 Z M 216.34 196.89 L 216.72 197.82 C 217.06 198.61 217.97 198.99 218.77 198.65 C 219.56 198.32 219.94 197.41 219.61 196.61 L 219.22 195.69 C 218.89 194.89 217.97 194.52 217.18 194.85 C 216.38 195.18 216.01 196.10 216.34 196.89 Z M 216.72 197.81 L 217.11 198.74 C 217.44 199.53 218.35 199.91 219.15 199.58 C 219.94 199.25 220.32 198.33 219.99 197.54 L 219.61 196.61 C 219.28 195.82 218.36 195.44 217.57 195.77 C 216.77 196.10 216.39 197.02 216.72 197.81 Z M 217.11 198.74 L 217.49 199.66 C 217.82 200.45 218.74 200.83 219.53 200.50 C 220.33 200.16 220.71 199.25 220.37 198.45 L 219.99 197.54 C 219.66 196.74 218.74 196.36 217.95 196.70 C 217.15 197.03 216.78 197.94 217.11 198.74 Z M 217.49 199.66 L 217.88 200.57 C 218.21 201.37 219.13 201.74 219.92 201.40 C 220.72 201.07 221.09 200.15 220.76 199.36 L 220.37 198.45 C 220.04 197.65 219.12 197.28 218.33 197.62 C 217.53 197.95 217.16 198.87 217.49 199.66 Z M 217.88 200.57 L 218.26 201.49 C 218.60 202.28 219.52 202.65 220.31 202.32 C 221.10 201.98 221.48 201.07 221.14 200.27 L 220.75 199.36 C 220.42 198.56 219.50 198.19 218.71 198.53 C 217.92 198.86 217.54 199.78 217.88 200.57 Z M 218.26 201.48 L 218.65 202.40 C 218.98 203.20 219.90 203.58 220.69 203.24 C 221.49 202.91 221.86 202.00 221.53 201.20 L 221.14 200.28 C 220.81 199.48 219.90 199.11 219.10 199.44 C 218.30 199.77 217.93 200.68 218.26 201.48 Z M 218.64 202.39 L 219.03 203.34 C 219.36 204.14 220.27 204.52 221.07 204.19 C 221.86 203.87 222.25 202.95 221.92 202.16 L 221.53 201.21 C 221.21 200.41 220.30 200.03 219.50 200.36 C 218.70 200.68 218.32 201.60 218.64 202.39 Z M 219.02 203.32 L 219.39 204.23 C 219.70 205.03 220.61 205.42 221.41 205.10 C 222.21 204.78 222.61 203.88 222.29 203.08 L 221.93 202.17 C 221.61 201.37 220.70 200.98 219.90 201.30 C 219.10 201.62 218.71 202.52 219.02 203.32 Z M 219.38 204.22 L 219.74 205.15 C 220.05 205.95 220.96 206.35 221.76 206.03 C 222.57 205.72 222.96 204.82 222.65 204.01 L 222.29 203.09 C 221.98 202.28 221.07 201.89 220.27 202.20 C 219.47 202.51 219.07 203.42 219.38 204.22 Z M 219.74 205.14 L 220.10 206.08 C 220.41 206.88 221.31 207.29 222.11 206.98 C 222.92 206.67 223.32 205.77 223.01 204.96 L 222.65 204.02 C 222.35 203.22 221.44 202.81 220.64 203.12 C 219.83 203.43 219.43 204.33 219.74 205.14 Z M 220.10 206.07 L 220.45 207.02 C 220.76 207.83 221.66 208.24 222.47 207.93 C 223.27 207.63 223.68 206.73 223.38 205.92 L 223.02 204.97 C 222.71 204.16 221.81 203.76 221.01 204.06 C 220.20 204.36 219.79 205.27 220.10 206.07 Z M 220.45 207.02 L 220.80 207.96 C 221.11 208.77 222.01 209.18 222.81 208.88 C 223.62 208.57 224.03 207.67 223.73 206.87 L 223.38 205.92 C 223.07 205.12 222.18 204.71 221.37 205.01 C 220.56 205.31 220.15 206.21 220.45 207.02 Z M 220.80 207.96 L 221.15 208.89 C 221.45 209.70 222.35 210.11 223.16 209.81 C 223.97 209.51 224.38 208.62 224.08 207.81 L 223.73 206.87 C 223.43 206.06 222.53 205.65 221.72 205.95 C 220.92 206.25 220.50 207.15 220.80 207.96 Z M 221.15 208.89 L 221.49 209.83 C 221.79 210.63 222.69 211.05 223.50 210.75 C 224.30 210.46 224.72 209.56 224.42 208.75 L 224.08 207.81 C 223.78 207.00 222.89 206.59 222.08 206.88 C 221.27 207.18 220.85 208.08 221.15 208.89 Z M 221.49 209.82 L 221.83 210.76 C 222.12 211.57 223.02 211.99 223.83 211.70 C 224.64 211.40 225.06 210.51 224.77 209.70 L 224.43 208.76 C 224.13 207.95 223.24 207.53 222.43 207.82 C 221.62 208.11 221.20 209.01 221.49 209.82 Z M 221.83 210.75 L 222.16 211.70 C 222.45 212.51 223.34 212.93 224.16 212.65 C 224.97 212.36 225.39 211.47 225.10 210.65 L 224.77 209.71 C 224.48 208.89 223.59 208.47 222.78 208.76 C 221.96 209.05 221.54 209.94 221.83 210.75 Z M 222.16 211.69 L 222.49 212.63 C 222.77 213.44 223.66 213.87 224.47 213.59 C 225.29 213.31 225.72 212.42 225.44 211.60 L 225.11 210.66 C 224.82 209.85 223.94 209.42 223.12 209.70 C 222.31 209.98 221.88 210.87 222.16 211.69 Z M 222.48 212.62 L 222.81 213.57 C 223.08 214.38 223.97 214.82 224.79 214.54 C 225.60 214.26 226.04 213.38 225.76 212.56 L 225.44 211.61 C 225.16 210.80 224.27 210.36 223.46 210.64 C 222.64 210.92 222.21 211.80 222.48 212.62 Z M 222.80 213.56 L 223.12 214.51 C 223.39 215.32 224.28 215.77 225.10 215.49 C 225.91 215.22 226.35 214.34 226.08 213.52 L 225.76 212.57 C 225.49 211.75 224.61 211.31 223.79 211.58 C 222.97 211.86 222.53 212.74 222.80 213.56 Z M 223.12 214.50 L 223.43 215.45 C 223.70 216.27 224.58 216.72 225.40 216.45 C 226.22 216.18 226.66 215.30 226.40 214.48 L 226.08 213.53 C 225.82 212.71 224.93 212.26 224.11 212.53 C 223.29 212.80 222.85 213.68 223.12 214.50 Z M 223.43 215.44 L 223.74 216.41 C 224.00 217.23 224.88 217.68 225.70 217.42 C 226.52 217.15 226.97 216.27 226.71 215.45 L 226.40 214.49 C 226.13 213.66 225.26 213.21 224.43 213.48 C 223.61 213.74 223.16 214.62 223.43 215.44 Z M 223.73 216.40 L 224.04 217.38 C 224.31 218.20 225.18 218.66 226.00 218.40 C 226.83 218.14 227.28 217.26 227.02 216.44 L 226.71 215.46 C 226.45 214.64 225.57 214.18 224.75 214.44 C 223.93 214.70 223.47 215.58 223.73 216.40 Z M 224.04 217.38 L 224.35 218.34 C 224.61 219.17 225.48 219.62 226.30 219.36 C 227.13 219.11 227.58 218.23 227.33 217.41 L 227.02 216.44 C 226.76 215.62 225.89 215.16 225.07 215.42 C 224.24 215.68 223.79 216.55 224.04 217.38 Z M 224.35 218.34 L 224.64 219.29 C 224.90 220.11 225.78 220.57 226.60 220.31 C 227.42 220.05 227.88 219.18 227.62 218.35 L 227.33 217.41 C 227.07 216.59 226.19 216.13 225.37 216.39 C 224.55 216.64 224.09 217.52 224.35 218.34 Z M 224.64 219.29 L 224.93 220.20 C 225.19 221.02 226.07 221.48 226.89 221.22 C 227.71 220.96 228.17 220.09 227.91 219.26 L 227.62 218.35 C 227.36 217.53 226.49 217.07 225.66 217.33 C 224.84 217.59 224.38 218.47 224.64 219.29 Z M 224.93 220.21 L 225.25 221.19 C 225.51 222.02 226.39 222.47 227.21 222.21 C 228.03 221.95 228.48 221.07 228.22 220.25 L 227.91 219.26 C 227.65 218.44 226.77 217.98 225.95 218.25 C 225.12 218.51 224.67 219.38 224.93 220.21 Z M 225.25 221.19 L 225.55 222.15 C 225.81 222.97 226.69 223.42 227.51 223.16 C 228.33 222.90 228.79 222.02 228.53 221.20 L 228.22 220.25 C 227.96 219.42 227.08 218.97 226.26 219.23 C 225.44 219.49 224.99 220.37 225.25 221.19 Z M 225.55 222.14 L 225.84 223.08 C 226.10 223.90 226.98 224.36 227.80 224.10 C 228.62 223.84 229.08 222.96 228.82 222.14 L 228.53 221.20 C 228.27 220.38 227.39 219.92 226.57 220.18 C 225.75 220.44 225.29 221.32 225.55 222.14 Z M 225.84 223.06 L 226.13 224.00 C 226.38 224.83 227.25 225.29 228.07 225.04 C 228.90 224.79 229.36 223.92 229.11 223.09 L 228.83 222.15 C 228.57 221.33 227.70 220.86 226.88 221.12 C 226.05 221.37 225.59 222.24 225.84 223.06 Z M 226.12 223.99 L 226.40 224.95 C 226.65 225.78 227.51 226.25 228.34 226.01 C 229.17 225.77 229.64 224.90 229.40 224.07 L 229.12 223.11 C 228.87 222.28 228.01 221.81 227.18 222.05 C 226.35 222.29 225.88 223.16 226.12 223.99 Z M 226.40 224.94 L 226.68 225.91 C 226.92 226.74 227.78 227.22 228.61 226.98 C 229.44 226.74 229.92 225.88 229.68 225.05 L 229.40 224.08 C 229.16 223.25 228.30 222.77 227.47 223.01 C 226.64 223.25 226.16 224.11 226.40 224.94 Z M 226.68 225.91 L 226.95 226.87 C 227.19 227.70 228.05 228.18 228.88 227.94 C 229.71 227.71 230.19 226.84 229.95 226.01 L 229.68 225.05 C 229.44 224.22 228.58 223.74 227.75 223.98 C 226.92 224.21 226.44 225.08 226.68 225.91 Z M 226.95 226.87 L 227.23 227.83 C 227.47 228.66 228.33 229.14 229.16 228.90 C 229.99 228.66 230.47 227.80 230.23 226.97 L 229.95 226.01 C 229.71 225.18 228.85 224.70 228.02 224.94 C 227.19 225.18 226.71 226.05 226.95 226.87 Z M 227.23 227.84 L 227.52 228.83 C 227.77 229.66 228.64 230.13 229.46 229.89 C 230.29 229.64 230.76 228.77 230.52 227.95 L 230.23 226.96 C 229.98 226.13 229.11 225.66 228.29 225.90 C 227.46 226.15 226.99 227.02 227.23 227.84 Z M 227.52 228.83 L 227.81 229.79 C 228.05 230.62 228.92 231.09 229.75 230.85 C 230.58 230.60 231.05 229.73 230.80 228.91 L 230.52 227.94 C 230.27 227.12 229.40 226.65 228.58 226.89 C 227.75 227.14 227.28 228.01 227.52 228.83 Z M 227.81 229.79 L 228.08 230.72 C 228.32 231.55 229.19 232.03 230.02 231.78 C 230.84 231.54 231.32 230.68 231.08 229.85 L 230.80 228.91 C 230.56 228.08 229.70 227.61 228.87 227.85 C 228.04 228.09 227.57 228.96 227.81 229.79 Z M 228.07 230.71 L 228.33 231.62 C 228.56 232.45 229.42 232.93 230.25 232.70 C 231.08 232.47 231.57 231.60 231.34 230.77 L 231.08 229.87 C 230.85 229.04 229.99 228.55 229.16 228.78 C 228.33 229.01 227.84 229.88 228.07 230.71 Z M 228.32 231.60 L 228.57 232.51 C 228.79 233.34 229.65 233.84 230.48 233.61 C 231.32 233.39 231.81 232.53 231.59 231.70 L 231.34 230.79 C 231.12 229.96 230.26 229.46 229.43 229.69 C 228.59 229.91 228.10 230.77 228.32 231.60 Z M 228.57 232.51 L 228.82 233.47 C 229.05 234.30 229.90 234.80 230.73 234.58 C 231.57 234.35 232.06 233.50 231.84 232.67 L 231.59 231.70 C 231.36 230.87 230.51 230.38 229.68 230.60 C 228.84 230.82 228.35 231.67 228.57 232.51 Z M 228.83 233.47 L 229.11 234.53 C 229.34 235.36 230.19 235.85 231.03 235.63 C 231.86 235.40 232.35 234.54 232.12 233.71 L 231.84 232.66 C 231.62 231.83 230.76 231.33 229.93 231.56 C 229.09 231.78 228.60 232.64 228.83 233.47 Z M 229.11 234.54 L 229.37 235.45 C 229.60 236.28 230.46 236.76 231.29 236.53 C 232.12 236.30 232.61 235.44 232.37 234.61 L 232.12 233.70 C 231.89 232.87 231.03 232.39 230.20 232.62 C 229.37 232.85 228.88 233.71 229.11 234.54 Z M 229.37 235.45 L 229.64 236.41 C 229.87 237.23 230.73 237.72 231.56 237.48 C 232.39 237.25 232.88 236.39 232.64 235.56 L 232.37 234.60 C 232.14 233.78 231.28 233.29 230.45 233.53 C 229.62 233.76 229.13 234.62 229.37 235.45 Z M 229.64 236.41 L 229.92 237.39 C 230.16 238.22 231.02 238.70 231.85 238.47 C 232.68 238.23 233.16 237.37 232.92 236.54 L 232.64 235.55 C 232.40 234.72 231.54 234.24 230.71 234.48 C 229.88 234.72 229.40 235.58 229.64 236.41 Z M 229.92 237.40 L 230.21 238.39 C 230.44 239.22 231.31 239.70 232.14 239.46 C 232.97 239.22 233.44 238.36 233.21 237.53 L 232.92 236.54 C 232.68 235.71 231.82 235.23 230.99 235.47 C 230.16 235.70 229.68 236.57 229.92 237.40 Z M 230.21 238.39 L 230.49 239.38 C 230.73 240.21 231.59 240.69 232.42 240.45 C 233.25 240.21 233.73 239.35 233.49 238.52 L 233.21 237.53 C 232.97 236.70 232.10 236.22 231.27 236.46 C 230.45 236.70 229.97 237.56 230.21 238.39 Z M 230.49 239.38 L 230.77 240.37 C 231.01 241.20 231.88 241.68 232.71 241.44 C 233.53 241.21 234.01 240.34 233.78 239.51 L 233.49 238.52 C 233.25 237.69 232.39 237.21 231.56 237.45 C 230.73 237.69 230.25 238.55 230.49 239.38 Z M 230.77 240.37 L 231.05 241.34 C 231.29 242.17 232.16 242.65 232.98 242.41 C 233.81 242.17 234.29 241.31 234.05 240.48 L 233.78 239.51 C 233.54 238.68 232.67 238.21 231.84 238.44 C 231.02 238.68 230.54 239.55 230.77 240.37 Z M 231.05 241.34 L 231.33 242.29 C 231.57 243.12 232.43 243.60 233.26 243.36 C 234.09 243.12 234.57 242.25 234.33 241.42 L 234.05 240.48 C 233.81 239.65 232.95 239.17 232.12 239.41 C 231.29 239.65 230.81 240.52 231.05 241.34 Z M 231.33 242.30 L 231.60 243.23 C 231.84 244.06 232.71 244.53 233.54 244.29 C 234.37 244.05 234.84 243.18 234.60 242.35 L 234.33 241.42 C 234.08 240.59 233.22 240.12 232.39 240.36 C 231.56 240.60 231.09 241.47 231.33 242.30 Z M 231.60 243.24 L 231.89 244.20 C 232.14 245.02 233.00 245.49 233.83 245.25 C 234.66 245.00 235.13 244.13 234.88 243.30 L 234.60 242.35 C 234.35 241.52 233.48 241.05 232.65 241.30 C 231.83 241.54 231.36 242.41 231.60 243.24 Z M 231.89 244.21 L 232.20 245.18 C 232.45 246.00 233.33 246.46 234.15 246.21 C 234.97 245.95 235.43 245.08 235.18 244.25 L 234.88 243.29 C 234.62 242.46 233.75 242.00 232.92 242.26 C 232.10 242.51 231.64 243.39 231.89 244.21 Z M 232.21 245.21 L 232.53 246.17 C 232.80 246.98 233.69 247.42 234.50 247.15 C 235.32 246.88 235.76 245.99 235.49 245.17 L 235.17 244.22 C 234.89 243.40 234.01 242.96 233.19 243.24 C 232.37 243.51 231.93 244.40 232.21 245.21 Z M 232.54 246.22 L 232.89 247.15 C 233.19 247.95 234.09 248.36 234.90 248.06 C 235.71 247.76 236.12 246.86 235.82 246.05 L 235.47 245.12 C 235.17 244.31 234.27 243.91 233.46 244.21 C 232.65 244.51 232.24 245.41 232.54 246.22 Z M 232.92 247.22 L 233.31 248.12 C 233.65 248.91 234.57 249.28 235.36 248.94 C 236.15 248.60 236.52 247.68 236.18 246.89 L 235.79 245.98 C 235.45 245.19 234.53 244.82 233.74 245.16 C 232.94 245.50 232.58 246.42 232.92 247.22 Z M 233.35 248.20 L 233.80 249.11 C 234.18 249.88 235.12 250.19 235.89 249.81 C 236.66 249.42 236.98 248.49 236.59 247.72 L 236.14 246.81 C 235.76 246.04 234.82 245.72 234.05 246.11 C 233.28 246.49 232.96 247.43 233.35 248.20 Z M 233.83 249.17 L 234.32 250.04 C 234.73 250.80 235.68 251.07 236.44 250.65 C 237.19 250.23 237.46 249.28 237.05 248.53 L 236.56 247.65 C 236.14 246.90 235.19 246.63 234.44 247.05 C 233.68 247.47 233.41 248.42 233.83 249.17 Z M 234.34 250.08 L 234.85 250.93 C 235.29 251.68 236.24 251.92 236.98 251.48 C 237.73 251.04 237.97 250.08 237.53 249.34 L 237.02 248.49 C 236.58 247.75 235.62 247.50 234.88 247.94 C 234.14 248.38 233.90 249.34 234.34 250.08 Z M 234.86 250.95 L 235.28 251.65 C 235.73 252.38 236.69 252.61 237.43 252.16 C 238.16 251.71 238.39 250.75 237.94 250.02 L 237.52 249.32 C 237.07 248.59 236.11 248.35 235.37 248.81 C 234.64 249.26 234.41 250.22 234.86 250.95 Z"
      fill="black"
      fill-rule="nonzero" /></svg>