<svg xmlns="http://www.w3.org/2000/svg" width="300" height="300" viewBox="0 0 300 300">
<path d="M 142.46 79.60 L 141.75 78.47 C 141.29 77.75 140.32 77.53 139.59 77.99 C 138.87 78.45 138.65 79.42 139.11 80.15 L 139.83 81.27 C 140.29 82.00 141.25 82.21 141.98 81.75 C 142.71 81.29 142.93 80.32 142.46 79.60 Z M 141.64 78.32 L 141.01 77.56 C 140.46 76.89 139.48 76.80 138.81 77.34 C 138.15 77.89 138.05 78.88 138.60 79.54 L 139.23 80.30 C 139.78 80.97 140.76 81.06 141.42 80.52 C 142.09 79.97 142.19 78.98 141.64 78.32 Z M 139.97 77.00 L 139.52 76.95 C 138.66 76.86 137.89 77.49 137.80 78.34 C 137.72 79.20 138.34 79.97 139.20 80.06 L 139.64 80.10 C 140.50 80.19 141.27 79.57 141.36 78.71 C 141.45 77.85 140.82 77.08 139.97 77.00 Z M 137.87 78.01 L 137.67 78.64 C 137.40 79.45 137.84 80.34 138.66 80.61 C 139.48 80.88 140.36 80.43 140.63 79.61 L 140.84 78.99 C 141.11 78.17 140.66 77.29 139.85 77.02 C 139.03 76.75 138.14 77.20 137.87 78.01 Z M 137.60 78.98 L 137.50 80.02 C 137.43 80.88 138.06 81.64 138.92 81.71 C 139.78 81.79 140.54 81.16 140.61 80.30 L 140.71 79.26 C 140.78 78.41 140.15 77.65 139.29 77.57 C 138.43 77.49 137.67 78.13 137.60 78.98 Z M 137.50 80.13 L 137.47 81.34 C 137.45 82.20 138.14 82.92 139.00 82.94 C 139.86 82.95 140.58 82.27 140.59 81.41 L 140.62 80.19 C 140.64 79.33 139.95 78.62 139.09 78.60 C 138.23 78.58 137.52 79.26 137.50 80.13 Z M 137.47 81.37 L 137.47 82.56 C 137.47 83.42 138.17 84.12 139.03 84.12 C 139.89 84.12 140.59 83.42 140.59 82.56 L 140.59 81.38 C 140.60 80.52 139.90 79.82 139.03 79.81 C 138.17 79.81 137.47 80.51 137.47 81.37 Z M 137.47 82.56 L 137.47 83.61 C 137.47 84.47 138.17 85.17 139.03 85.17 C 139.89 85.17 140.59 84.47 140.59 83.61 L 140.59 82.56 C 140.59 81.70 139.89 81.00 139.03 81.00 C 138.17 81.00 137.47 81.70 137.47 82.56 Z M 137.47 83.61 L 137.47 84.56 C 137.47 85.43 138.17 86.12 139.03 86.12 C 139.89 86.12 140.59 85.43 140.59 84.56 L 140.59 83.61 C 140.59 82.75 139.89 82.05 139.03 82.05 C 138.17 82.05 137.47 82.75 137.47 83.61 Z M 137.47 84.56 L 137.47 85.49 C 137.47 86.35 138.17 87.05 139.03 87.05 C 139.89 87.05 140.59 86.35 140.59 85.49 L 140.59 84.56 C 140.59 83.70 139.89 83.00 139.03 83.00 C 138.17 83.00 137.47 83.70 137.47 84.56 Z M 137.47 85.49 L 137.47 86.42 C 137.47 87.28 138.17 87.98 139.03 87.98 C 139.89 87.98 140.59 87.28 140.59 86.42 L 140.59 85.49 C 140.59 84.63 139.89 83.93 139.03 83.93 C 138.17 83.93 137.47 84.63 137.47 85.49 Z M 137.47 86.42 L 137.47 87.39 C 137.47 88.26 138.17 88.96 139.03 88.96 C 139.89 88.96 140.59 88.26 140.59 87.39 L 140.59 86.42 C 140.59 85.56 139.89 84.86 139.03 84.86 C 138.17 84.86 137.47 85.56 137.47 86.42 Z M 137.47 87.39 L 137.47 88.42 C 137.47 89.29 138.17 89.99 139.03 89.99 C 139.89 89.99 140.59 89.29 140.59 88.42 L 140.59 87.39 C 140.59 86.53 139.89 85.83 139.03 85.83 C 138.17 85.83 137.47 86.53 137.47 87.39 Z M 137.47 88.42 L 137.47 89.46 C 137.47 90.33 138.17 91.03 139.03 91.03 C 139.89 91.03 140.59 90.33 140.59 89.46 L 140.59 88.42 C 140.59 87.56 139.89 86.86 139.03 86.86 C 138.17 86.86 137.47 87.56 137.47 88.42 Z M 137.47 89.46 L 137.47 90.42 C 137.47 91.29 138.17 91.98 139.03 91.98 C 139.89 91.98 140.59 91.29 140.59 90.42 L 140.59 89.46 C 140.59 88.60 139.89 87.90 139.03 87.90 C 138.17 87.90 137.47 88.60 137.47 89.46 Z M 137.47 90.42 L 137.47 91.42 C 137.47 92.28 138.17 92.98 139.03 92.98 C 139.89 92.98 140.59 92.28 140.59 91.42 L 140.59 90.42 C 140.59 89.56 139.89 88.86 139.03 88.86 C 138.17 88.86 137.47 89.56 137.47 90.42 Z M 137.47 91.42 L 137.47 92.44 C 137.47 93.30 138.17 94.00 139.03 94.00 C 139.89 94.00 140.59 93.30 140.59 92.44 L 140.59 91.42 C 140.59 90.56 139.89 89.86 139.03 89.86 C 138.17 89.86 137.47 90.56 137.47 91.42 Z M 137.47 92.44 L 137.47 93.48 C 137.47 94.34 138.17 95.04 139.03 95.04 C 139.89 95.04 140.59 94.34 140.59 93.48 L 140.59 92.44 C 140.59 91.58 139.89 90.88 139.03 90.88 C 138.17 90.88 137.47 91.58 137.47 92.44 Z M 137.47 93.48 L 137.47 94.48 C 137.47 95.34 138.17 96.04 139.03 96.04 C 139.89 96.04 140.59 95.34 140.59 94.48 L 140.59 93.48 C 140.59 92.62 139.89 91.92 139.03 91.92 C 138.17 91.92 137.47 92.62 137.47 93.48 Z M 137.47 94.48 L 137.47 95.48 C 137.47 96.34 138.17 97.04 139.03 97.04 C 139.89 97.04 140.59 96.34 140.59 95.48 L 140.59 94.48 C 140.59 93.62 139.89 92.92 139.03 92.92 C 138.17 92.92 137.47 93.62 137.47 94.48 Z M 137.47 95.48 L 137.47 96.48 C 137.47 97.34 138.17 98.04 139.03 98.04 C 139.89 98.04 140.59 97.34 140.59 96.48 L 140.59 95.48 C 140.59 94.61 139.89 93.92 139.03 93.92 C 138.17 93.92 137.47 94.61 137.47 95.48 Z M 137.47 96.48 L 137.47 97.48 C 137.47 98.34 138.17 99.04 139.03 99.04 C 139.89 99.04 140.59 98.34 140.59 97.48 L 140.59 96.48 C 140.59 95.62 139.89 94.92 139.03 94.92 C 138.17 94.92 137.47 95.62 137.47 96.48 Z M 137.47 97.48 L 137.47 98.48 C 137.47 99.35 138.17 100.04 139.03 100.04 C 139.89 100.04 140.59 99.35 140.59 98.48 L 140.59 97.48 C 140.59 96.62 139.89 95.92 139.03 95.92 C 138.17 95.92 137.47 96.62 137.47 97.48 Z M 137.47 98.48 L 137.47 99.48 C 137.47 100.34 138.17 101.04 139.03 101.04 C 139.89 101.04 140.59 100.34 140.59 99.48 L 140.59 98.48 C 140.59 97.62 139.89 96.92 139.03 96.92 C 138.17 96.92 137.47 97.62 137.47 98.48 Z M 137.47 99.48 L 137.47 100.48 C 137.47 101.34 138.17 102.04 139.03 102.04 C 139.89 102.04 140.59 101.34 140.59 100.48 L 140.59 99.48 C 140.59 98.62 139.89 97.92 139.03 97.92 C 138.17 97.92 137.47 98.62 137.47 99.48 Z M 137.47 100.48 L 137.47 101.48 C 137.47 102.34 138.17 103.04 139.03 103.04 C 139.89 103.04 140.59 102.34 140.59 101.48 L 140.59 100.48 C 140.59 99.61 139.89 98.91 139.03 98.91 C 138.17 98.91 137.47 99.61 137.47 100.48 Z M 137.47 101.48 L 137.47 102.48 C 137.47 103.34 138.17 104.04 139.03 104.04 C 139.89 104.04 140.59 103.34 140.59 102.48 L 140.59 101.48 C 140.59 100.61 139.89 99.91 139.03 99.91 C 138.17 99.91 137.47 100.61 137.47 101.48 Z M 137.47 102.48 L 137.47 103.47 C 137.47 104.34 138.17 105.04 139.03 105.04 C 139.89 105.04 140.59 104.34 140.59 103.47 L 140.59 102.48 C 140.59 101.62 139.89 100.92 139.03 100.92 C 138.17 100.92 137.47 101.62 137.47 102.48 Z M 137.47 103.47 L 137.47 104.46 C 137.47 105.33 138.17 106.03 139.03 106.03 C 139.89 106.03 140.59 105.33 140.59 104.46 L 140.59 103.47 C 140.59 102.61 139.89 101.91 139.03 101.91 C 138.17 101.91 137.47 102.61 137.47 103.47 Z M 137.47 104.46 L 137.47 105.46 C 137.47 106.32 138.17 107.02 139.03 107.02 C 139.89 107.02 140.59 106.32 140.59 105.46 L 140.59 104.46 C 140.59 103.60 139.89 102.90 139.03 102.90 C 138.17 102.90 137.47 103.60 137.47 104.46 Z M 137.47 105.46 L 137.47 106.47 C 137.47 107.33 138.17 108.03 139.03 108.03 C 139.89 108.03 140.59 107.33 140.59 106.47 L 140.59 105.46 C 140.59 104.60 139.89 103.90 139.03 103.90 C 138.17 103.90 137.47 104.60 137.47 105.46 Z M 137.47 106.47 L 137.47 107.48 C 137.47 108.34 138.17 109.04 139.03 109.04 C 139.89 109.04 140.59 108.34 140.59 107.48 L 140.59 106.47 C 140.59 105.60 139.89 104.91 139.03 104.91 C 138.17 104.91 137.47 105.60 137.47 106.47 Z M 137.47 107.48 L 137.47 108.47 C 137.47 109.33 138.17 110.03 139.03 110.03 C 139.89 110.03 140.59 109.33 140.59 108.47 L 140.59 107.48 C 140.59 106.62 139.89 105.92 139.03 105.92 C 138.17 105.92 137.47 106.62 137.47 107.48 Z M 137.47 108.47 L 137.47 109.46 C 137.47 110.33 138.17 111.02 139.03 111.02 C 139.90 111.02 140.59 110.33 140.59 109.46 L 140.59 108.47 C 140.59 107.61 139.90 106.91 139.03 106.91 C 138.17 106.91 137.47 107.61 137.47 108.47 Z M 137.47 109.46 L 137.47 110.46 C 137.47 111.33 138.17 112.02 139.03 112.02 C 139.90 112.02 140.60 111.33 140.60 110.46 L 140.60 109.46 C 140.60 108.60 139.90 107.90 139.03 107.90 C 138.17 107.90 137.47 108.60 137.47 109.46 Z M 137.47 110.46 L 137.47 111.47 C 137.47 112.33 138.17 113.03 139.03 113.03 C 139.90 113.03 140.60 112.33 140.60 111.47 L 140.60 110.46 C 140.60 109.60 139.90 108.90 139.03 108.90 C 138.17 108.90 137.47 109.60 137.47 110.46 Z M 137.47 111.47 L 137.47 112.48 C 137.47 113.35 138.17 114.05 139.03 114.05 C 139.90 114.05 140.60 113.35 140.60 112.48 L 140.60 111.47 C 140.60 110.60 139.90 109.90 139.03 109.90 C 138.17 109.90 137.47 110.60 137.47 111.47 Z M 137.47 112.48 L 137.47 113.47 C 137.47 114.33 138.17 115.03 139.03 115.03 C 139.90 115.03 140.60 114.33 140.60 113.47 L 140.60 112.48 C 140.60 111.62 139.90 110.92 139.03 110.92 C 138.17 110.92 137.47 111.62 137.47 112.48 Z M 137.47 113.47 L 137.47 114.45 C 137.47 115.32 138.17 116.02 139.03 116.02 C 139.90 116.02 140.60 115.32 140.60 114.45 L 140.60 113.47 C 140.60 112.60 139.90 111.90 139.03 111.90 C 138.17 111.90 137.47 112.60 137.47 113.47 Z M 137.46 114.45 L 137.46 115.45 C 137.46 116.32 138.17 117.02 139.03 117.02 C 139.90 117.02 140.60 116.32 140.60 115.45 L 140.60 114.45 C 140.60 113.59 139.90 112.89 139.03 112.89 C 138.17 112.89 137.46 113.59 137.46 114.45 Z M 137.46 115.45 L 137.46 116.46 C 137.46 117.32 138.17 118.02 139.03 118.02 C 139.90 118.02 140.60 117.32 140.60 116.46 L 140.60 115.45 C 140.60 114.58 139.90 113.88 139.03 113.88 C 138.17 113.88 137.46 114.58 137.46 115.45 Z M 137.46 116.46 L 137.46 117.47 C 137.46 118.34 138.17 119.04 139.03 119.04 C 139.90 119.04 140.60 118.34 140.60 117.47 L 140.60 116.46 C 140.60 115.59 139.90 114.89 139.03 114.89 C 138.17 114.89 137.46 115.59 137.46 116.46 Z M 137.46 117.47 L 137.46 118.45 C 137.46 119.32 138.16 120.03 139.03 120.03 C 139.90 120.03 140.60 119.32 140.60 118.45 L 140.60 117.48 C 140.60 116.61 139.90 115.90 139.03 115.90 C 138.16 115.90 137.46 116.61 137.46 117.47 Z M 137.46 118.45 L 137.46 119.42 C 137.46 120.29 138.16 120.99 139.03 120.99 C 139.90 120.99 140.60 120.29 140.60 119.42 L 140.61 118.46 C 140.61 117.59 139.90 116.88 139.03 116.88 C 138.16 116.88 137.46 117.58 137.46 118.45 Z M 137.45 119.41 L 137.45 120.40 C 137.45 121.27 138.15 121.98 139.02 121.98 C 139.89 121.98 140.60 121.28 140.60 120.41 L 140.61 119.43 C 140.61 118.56 139.91 117.85 139.04 117.84 C 138.17 117.84 137.46 118.54 137.45 119.41 Z M 137.45 120.39 L 137.44 121.39 C 137.43 122.27 138.13 122.98 139.01 122.99 C 139.88 122.99 140.59 122.29 140.60 121.42 L 140.61 120.42 C 140.62 119.54 139.91 118.83 139.04 118.82 C 138.17 118.81 137.45 119.52 137.45 120.39 Z M 137.43 121.38 L 137.42 122.41 C 137.41 123.29 138.11 124.00 138.98 124.02 C 139.86 124.03 140.58 123.33 140.59 122.45 L 140.60 121.43 C 140.62 120.55 139.92 119.83 139.04 119.82 C 138.17 119.81 137.45 120.51 137.43 121.38 Z M 137.42 122.40 L 137.40 123.45 C 137.38 124.33 138.07 125.05 138.95 125.07 C 139.83 125.09 140.55 124.39 140.57 123.52 L 140.59 122.46 C 140.61 121.59 139.91 120.86 139.04 120.84 C 138.16 120.83 137.43 121.52 137.42 122.40 Z M 137.39 123.44 L 137.37 124.39 C 137.34 125.27 138.04 126.00 138.91 126.03 C 139.79 126.05 140.52 125.36 140.55 124.48 L 140.57 123.53 C 140.60 122.65 139.91 121.92 139.03 121.89 C 138.15 121.87 137.42 122.56 137.39 123.44 Z M 137.37 124.38 L 137.33 125.36 C 137.30 126.24 137.99 126.97 138.87 127.00 C 139.75 127.03 140.49 126.34 140.52 125.46 L 140.55 124.49 C 140.58 123.61 139.89 122.87 139.01 122.85 C 138.13 122.82 137.40 123.51 137.37 124.38 Z M 137.33 125.35 L 137.29 126.34 C 137.26 127.22 137.95 127.96 138.83 127.99 C 139.71 128.03 140.45 127.34 140.48 126.46 L 140.52 125.47 C 140.55 124.59 139.87 123.85 138.99 123.82 C 138.11 123.78 137.37 124.47 137.33 125.35 Z M 137.29 126.33 L 137.25 127.34 C 137.21 128.22 137.90 128.96 138.78 129.00 C 139.66 129.04 140.40 128.36 140.44 127.47 L 140.48 126.47 C 140.52 125.59 139.84 124.84 138.95 124.81 C 138.07 124.77 137.33 125.45 137.29 126.33 Z M 137.25 127.34 L 137.20 128.36 C 137.16 129.24 137.85 129.98 138.73 130.02 C 139.61 130.06 140.35 129.38 140.39 128.50 L 140.44 127.48 C 140.48 126.60 139.80 125.85 138.92 125.81 C 138.04 125.77 137.29 126.45 137.25 127.34 Z M 137.20 128.35 L 137.15 129.39 C 137.11 130.27 137.79 131.02 138.67 131.06 C 139.56 131.10 140.30 130.42 140.35 129.54 L 140.40 128.50 C 140.44 127.62 139.76 126.87 138.87 126.83 C 137.99 126.79 137.24 127.47 137.20 128.35 Z M 137.15 129.38 L 137.10 130.39 C 137.06 131.27 137.74 132.02 138.62 132.07 C 139.50 132.11 140.26 131.43 140.30 130.55 L 140.35 129.54 C 140.39 128.66 139.71 127.91 138.83 127.86 C 137.95 127.82 137.20 128.50 137.15 129.38 Z M 137.10 130.39 L 137.05 131.37 C 137.01 132.26 137.69 133.01 138.57 133.05 C 139.45 133.10 140.21 132.42 140.25 131.53 L 140.30 130.55 C 140.35 129.66 139.66 128.91 138.78 128.87 C 137.90 128.82 137.14 129.50 137.10 130.39 Z M 137.05 131.37 L 137.00 132.36 C 136.95 133.25 137.63 134.00 138.52 134.05 C 139.41 134.09 140.16 133.41 140.20 132.52 L 140.25 131.53 C 140.30 130.65 139.62 129.89 138.73 129.85 C 137.85 129.80 137.09 130.49 137.05 131.37 Z M 136.99 132.36 L 136.94 133.36 C 136.90 134.25 137.58 135.00 138.47 135.05 C 139.36 135.09 140.11 134.41 140.16 133.52 L 140.21 132.52 C 140.25 131.64 139.57 130.88 138.68 130.84 C 137.80 130.79 137.04 131.48 136.99 132.36 Z M 136.94 133.36 L 136.89 134.36 C 136.85 135.25 137.53 136.01 138.42 136.05 C 139.31 136.10 140.06 135.42 140.11 134.53 L 140.16 133.52 C 140.20 132.63 139.52 131.88 138.63 131.83 C 137.74 131.79 136.99 132.47 136.94 133.36 Z M 136.89 134.37 L 136.84 135.37 C 136.79 136.26 137.48 137.02 138.37 137.07 C 139.26 137.11 140.02 136.42 140.06 135.53 L 140.11 134.53 C 140.16 133.63 139.47 132.88 138.58 132.83 C 137.69 132.79 136.93 133.48 136.89 134.37 Z M 136.83 135.38 L 136.79 136.39 C 136.74 137.28 137.43 138.04 138.32 138.08 C 139.21 138.13 139.97 137.44 140.02 136.54 L 140.07 135.53 C 140.11 134.64 139.42 133.88 138.53 133.84 C 137.64 133.80 136.88 134.48 136.83 135.38 Z M 136.78 136.39 L 136.74 137.39 C 136.70 138.29 137.39 139.04 138.28 139.09 C 139.17 139.13 139.93 138.44 139.97 137.54 L 140.02 136.54 C 140.06 135.65 139.37 134.89 138.48 134.85 C 137.58 134.81 136.83 135.50 136.78 136.39 Z M 136.74 137.39 L 136.69 138.39 C 136.65 139.29 137.34 140.04 138.24 140.08 C 139.13 140.13 139.89 139.43 139.93 138.54 L 139.97 137.54 C 140.01 136.65 139.32 135.89 138.43 135.85 C 137.53 135.81 136.78 136.50 136.74 137.39 Z M 136.69 138.40 L 136.65 139.40 C 136.61 140.29 137.30 141.05 138.19 141.08 C 139.09 141.12 139.84 140.43 139.88 139.54 L 139.93 138.54 C 139.97 137.64 139.27 136.89 138.38 136.85 C 137.49 136.81 136.73 137.50 136.69 138.40 Z M 136.65 139.40 L 136.60 140.40 C 136.57 141.29 137.26 142.05 138.15 142.09 C 139.05 142.12 139.80 141.43 139.84 140.54 L 139.88 139.54 C 139.92 138.64 139.23 137.89 138.33 137.85 C 137.44 137.81 136.69 138.50 136.65 139.40 Z M 136.60 140.40 L 136.56 141.40 C 136.53 142.29 137.22 143.05 138.11 143.09 C 139.01 143.12 139.76 142.43 139.80 141.54 L 139.84 140.54 C 139.88 139.64 139.18 138.89 138.29 138.85 C 137.40 138.81 136.64 139.51 136.60 140.40 Z M 136.56 141.40 L 136.52 142.40 C 136.49 143.30 137.18 144.05 138.07 144.09 C 138.97 144.12 139.72 143.43 139.76 142.53 L 139.80 141.53 C 139.84 140.64 139.14 139.89 138.25 139.85 C 137.35 139.81 136.60 140.51 136.56 141.40 Z M 136.52 142.40 L 136.48 143.40 C 136.45 144.29 137.14 145.05 138.04 145.08 C 138.93 145.12 139.68 144.42 139.72 143.53 L 139.76 142.53 C 139.79 141.64 139.10 140.89 138.20 140.85 C 137.31 140.81 136.56 141.51 136.52 142.40 Z M 136.48 143.40 L 136.44 144.42 C 136.41 145.31 137.10 146.07 138.00 146.10 C 138.89 146.14 139.64 145.44 139.68 144.55 L 139.72 143.53 C 139.75 142.63 139.06 141.88 138.16 141.85 C 137.27 141.81 136.52 142.51 136.48 143.40 Z M 136.44 144.42 L 136.40 145.44 C 136.37 146.33 137.06 147.09 137.96 147.12 C 138.85 147.16 139.61 146.46 139.64 145.57 L 139.68 144.55 C 139.72 143.65 139.02 142.90 138.12 142.86 C 137.23 142.83 136.48 143.52 136.44 144.42 Z M 136.40 145.44 L 136.36 146.45 C 136.32 147.35 137.02 148.10 137.92 148.14 C 138.81 148.17 139.57 147.47 139.60 146.58 L 139.64 145.57 C 139.68 144.67 138.98 143.92 138.08 143.88 C 137.19 143.85 136.43 144.54 136.40 145.44 Z M 136.36 146.45 L 136.32 147.45 C 136.28 148.35 136.98 149.11 137.87 149.14 C 138.77 149.18 139.53 148.48 139.56 147.59 L 139.60 146.58 C 139.64 145.68 138.94 144.93 138.05 144.89 C 137.15 144.86 136.39 145.55 136.36 146.45 Z M 136.32 147.45 L 136.27 148.44 C 136.23 149.34 136.93 150.10 137.83 150.14 C 138.73 150.17 139.48 149.48 139.52 148.58 L 139.56 147.59 C 139.60 146.69 138.91 145.93 138.01 145.89 C 137.11 145.86 136.35 146.55 136.32 147.45 Z M 136.27 148.44 L 136.23 149.42 C 136.19 150.32 136.88 151.08 137.78 151.12 C 138.68 151.16 139.44 150.46 139.48 149.57 L 139.52 148.59 C 139.56 147.69 138.87 146.93 137.97 146.89 C 137.07 146.85 136.31 147.54 136.27 148.44 Z M 136.23 149.41 L 136.18 150.38 C 136.14 151.28 136.83 152.04 137.73 152.09 C 138.63 152.13 139.39 151.44 139.43 150.54 L 139.48 149.57 C 139.52 148.67 138.83 147.91 137.93 147.87 C 137.03 147.82 136.27 148.52 136.23 149.41 Z M 136.18 150.37 L 136.13 151.36 C 136.08 152.26 136.77 153.02 137.67 153.07 C 138.57 153.12 139.33 152.43 139.38 151.53 L 139.43 150.54 C 139.48 149.65 138.79 148.88 137.89 148.83 C 136.99 148.79 136.23 149.48 136.18 150.37 Z M 136.13 151.35 L 136.07 152.33 C 136.02 153.23 136.71 154.00 137.61 154.05 C 138.50 154.10 139.27 153.41 139.32 152.51 L 139.38 151.54 C 139.43 150.64 138.74 149.87 137.85 149.82 C 136.95 149.77 136.18 150.46 136.13 151.35 Z M 136.08 152.33 L 136.02 153.30 C 135.96 154.20 136.65 154.97 137.54 155.02 C 138.44 155.08 139.21 154.39 139.26 153.50 L 139.32 152.52 C 139.38 151.62 138.69 150.85 137.80 150.80 C 136.90 150.75 136.13 151.43 136.08 152.33 Z M 136.02 153.30 L 135.96 154.28 C 135.90 155.18 136.58 155.95 137.48 156.01 C 138.37 156.06 139.15 155.38 139.20 154.49 L 139.26 153.50 C 139.32 152.61 138.64 151.83 137.74 151.78 C 136.85 151.72 136.08 152.40 136.02 153.30 Z M 135.96 154.28 L 135.90 155.28 C 135.84 156.18 136.52 156.95 137.41 157.01 C 138.31 157.07 139.08 156.39 139.14 155.49 L 139.20 154.49 C 139.26 153.60 138.58 152.82 137.68 152.77 C 136.79 152.71 136.02 153.39 135.96 154.28 Z M 135.90 155.28 L 135.83 156.31 C 135.77 157.21 136.45 157.98 137.34 158.04 C 138.24 158.09 139.01 157.42 139.07 156.52 L 139.13 155.49 C 139.19 154.60 138.51 153.83 137.62 153.77 C 136.73 153.71 135.96 154.39 135.90 155.28 Z M 135.83 156.31 L 135.77 157.31 C 135.71 158.21 136.38 158.98 137.28 159.04 C 138.17 159.09 138.94 158.42 139.00 157.53 L 139.07 156.52 C 139.12 155.63 138.45 154.86 137.55 154.80 C 136.66 154.74 135.89 155.42 135.83 156.31 Z M 135.77 157.31 L 135.70 158.27 C 135.64 159.16 136.32 159.94 137.21 159.99 C 138.11 160.05 138.88 159.38 138.94 158.48 L 139.00 157.53 C 139.06 156.63 138.38 155.86 137.49 155.80 C 136.60 155.74 135.82 156.42 135.77 157.31 Z M 135.70 158.27 L 135.64 159.25 C 135.58 160.15 136.25 160.92 137.15 160.98 C 138.04 161.04 138.81 160.36 138.87 159.47 L 138.94 158.49 C 138.99 157.59 138.32 156.82 137.43 156.76 C 136.53 156.70 135.76 157.38 135.70 158.27 Z M 135.64 159.25 L 135.57 160.25 C 135.51 161.14 136.18 161.91 137.08 161.98 C 137.97 162.04 138.74 161.36 138.80 160.47 L 138.87 159.47 C 138.93 158.58 138.26 157.81 137.36 157.75 C 136.47 157.69 135.70 158.36 135.64 159.25 Z M 135.57 160.25 L 135.50 161.26 C 135.44 162.15 136.11 162.92 137.00 162.99 C 137.90 163.05 138.67 162.38 138.73 161.48 L 138.80 160.47 C 138.86 159.58 138.19 158.81 137.30 158.75 C 136.41 158.68 135.63 159.36 135.57 160.25 Z M 135.50 161.26 L 135.43 162.27 C 135.37 163.17 136.04 163.94 136.93 164.00 C 137.82 164.07 138.59 163.40 138.66 162.51 L 138.73 161.49 C 138.79 160.60 138.12 159.82 137.23 159.76 C 136.34 159.69 135.57 160.37 135.50 161.26 Z M 135.43 162.27 L 135.35 163.29 C 135.29 164.18 135.96 164.96 136.85 165.02 C 137.74 165.09 138.51 164.42 138.58 163.53 L 138.66 162.51 C 138.72 161.62 138.05 160.84 137.16 160.78 C 136.27 160.71 135.50 161.38 135.43 162.27 Z M 135.36 163.29 L 135.28 164.30 C 135.21 165.19 135.87 165.97 136.76 166.04 C 137.65 166.11 138.43 165.44 138.50 164.55 L 138.58 163.54 C 138.65 162.65 137.98 161.87 137.09 161.80 C 136.20 161.73 135.42 162.40 135.36 163.29 Z M 135.28 164.30 L 135.20 165.28 C 135.13 166.17 135.79 166.95 136.68 167.02 C 137.57 167.10 138.34 166.43 138.42 165.54 L 138.50 164.56 C 138.57 163.67 137.91 162.89 137.02 162.82 C 136.13 162.75 135.35 163.41 135.28 164.30 Z M 135.20 165.28 L 135.12 166.26 C 135.04 167.15 135.70 167.93 136.59 168.00 C 137.48 168.08 138.26 167.42 138.33 166.53 L 138.42 165.55 C 138.49 164.66 137.83 163.88 136.94 163.81 C 136.06 163.73 135.27 164.39 135.20 165.28 Z M 135.12 166.25 L 135.03 167.23 C 134.95 168.12 135.61 168.90 136.50 168.98 C 137.38 169.06 138.17 168.40 138.24 167.52 L 138.33 166.53 C 138.41 165.65 137.75 164.87 136.86 164.79 C 135.98 164.71 135.20 165.37 135.12 166.25 Z M 135.03 167.23 L 134.95 168.22 C 134.87 169.10 135.52 169.88 136.41 169.96 C 137.29 170.04 138.08 169.39 138.15 168.50 L 138.24 167.52 C 138.32 166.63 137.67 165.85 136.78 165.77 C 135.90 165.69 135.11 166.35 135.03 167.23 Z M 134.95 168.21 L 134.86 169.21 C 134.78 170.09 135.43 170.87 136.31 170.95 C 137.20 171.04 137.98 170.38 138.06 169.50 L 138.15 168.51 C 138.23 167.62 137.58 166.84 136.70 166.76 C 135.81 166.68 135.03 167.33 134.95 168.21 Z M 134.86 169.20 L 134.77 170.21 C 134.68 171.09 135.34 171.88 136.22 171.96 C 137.10 172.04 137.89 171.39 137.97 170.50 L 138.06 169.50 C 138.14 168.61 137.49 167.83 136.61 167.75 C 135.72 167.67 134.94 168.32 134.86 169.20 Z M 134.77 170.21 L 134.67 171.23 C 134.59 172.11 135.24 172.89 136.13 172.98 C 137.01 173.06 137.79 172.41 137.87 171.52 L 137.97 170.50 C 138.05 169.62 137.40 168.84 136.51 168.76 C 135.63 168.67 134.85 169.32 134.77 170.21 Z M 134.67 171.23 L 134.58 172.24 C 134.50 173.13 135.15 173.91 136.03 173.99 C 136.92 174.07 137.70 173.42 137.78 172.54 L 137.87 171.52 C 137.95 170.64 137.30 169.86 136.42 169.78 C 135.54 169.70 134.76 170.35 134.67 171.23 Z M 134.58 172.24 L 134.49 173.24 C 134.41 174.12 135.06 174.90 135.94 174.98 C 136.83 175.06 137.61 174.41 137.69 173.53 L 137.78 172.54 C 137.86 171.65 137.21 170.87 136.33 170.79 C 135.44 170.71 134.66 171.36 134.58 172.24 Z M 134.49 173.24 L 134.40 174.24 C 134.32 175.12 134.97 175.90 135.85 175.98 C 136.74 176.06 137.52 175.41 137.60 174.53 L 137.69 173.53 C 137.77 172.64 137.12 171.86 136.24 171.78 C 135.35 171.70 134.57 172.35 134.49 173.24 Z M 134.40 174.24 L 134.31 175.25 C 134.23 176.13 134.88 176.91 135.76 176.99 C 136.64 177.07 137.42 176.42 137.50 175.54 L 137.59 174.53 C 137.67 173.65 137.02 172.87 136.14 172.79 C 135.26 172.71 134.48 173.36 134.40 174.24 Z M 134.31 175.25 L 134.22 176.26 C 134.14 177.14 134.79 177.92 135.67 178.00 C 136.55 178.08 137.33 177.43 137.41 176.55 L 137.50 175.54 C 137.58 174.66 136.93 173.88 136.05 173.80 C 135.17 173.72 134.39 174.37 134.31 175.25 Z M 134.22 176.26 L 134.13 177.27 C 134.05 178.15 134.70 178.92 135.58 179.00 C 136.46 179.08 137.24 178.43 137.32 177.56 L 137.41 176.55 C 137.49 175.67 136.84 174.89 135.96 174.81 C 135.08 174.73 134.30 175.38 134.22 176.26 Z M 134.13 177.26 L 134.04 178.26 C 133.96 179.14 134.61 179.92 135.49 180.00 C 136.37 180.08 137.15 179.43 137.23 178.55 L 137.32 177.56 C 137.40 176.68 136.75 175.90 135.87 175.82 C 134.99 175.74 134.21 176.39 134.13 177.26 Z M 134.04 178.26 L 133.95 179.24 C 133.87 180.12 134.52 180.90 135.40 180.98 C 136.28 181.06 137.05 180.42 137.13 179.54 L 137.22 178.55 C 137.31 177.68 136.66 176.90 135.78 176.82 C 134.90 176.74 134.12 177.38 134.04 178.26 Z M 133.95 179.24 L 133.86 180.23 C 133.78 181.11 134.43 181.88 135.30 181.97 C 136.18 182.05 136.96 181.40 137.04 180.52 L 137.13 179.54 C 137.21 178.66 136.57 177.88 135.69 177.80 C 134.81 177.72 134.04 178.37 133.95 179.24 Z M 133.86 180.23 L 133.77 181.26 C 133.68 182.14 134.33 182.92 135.20 183.00 C 136.08 183.08 136.86 182.44 136.94 181.56 L 137.04 180.53 C 137.12 179.65 136.48 178.87 135.60 178.79 C 134.72 178.71 133.95 179.35 133.86 180.23 Z M 133.77 181.26 L 133.67 182.27 C 133.59 183.15 134.23 183.93 135.11 184.01 C 135.98 184.09 136.76 183.45 136.84 182.58 L 136.94 181.56 C 137.02 180.69 136.38 179.91 135.51 179.83 C 134.63 179.74 133.85 180.38 133.77 181.26 Z M 133.67 182.27 L 133.58 183.27 C 133.49 184.14 134.13 184.92 135.01 185.00 C 135.88 185.09 136.66 184.45 136.74 183.57 L 136.84 182.58 C 136.93 181.70 136.28 180.92 135.41 180.84 C 134.54 180.76 133.76 181.40 133.67 182.27 Z M 133.58 183.26 L 133.48 184.25 C 133.40 185.12 134.04 185.90 134.91 185.98 C 135.78 186.07 136.56 185.43 136.65 184.56 L 136.74 183.57 C 136.83 182.70 136.19 181.92 135.32 181.84 C 134.44 181.75 133.66 182.39 133.58 183.26 Z M 133.48 184.25 L 133.39 185.22 C 133.30 186.10 133.94 186.87 134.81 186.96 C 135.68 187.04 136.46 186.41 136.55 185.53 L 136.64 184.56 C 136.73 183.69 136.09 182.91 135.22 182.82 C 134.35 182.74 133.57 183.37 133.48 184.25 Z M 133.39 185.22 L 133.29 186.20 C 133.21 187.07 133.84 187.84 134.71 187.93 C 135.59 188.02 136.36 187.38 136.45 186.51 L 136.55 185.54 C 136.63 184.66 136.00 183.89 135.12 183.80 C 134.25 183.71 133.48 184.35 133.39 185.22 Z M 133.30 186.20 L 133.20 187.17 C 133.11 188.05 133.75 188.82 134.62 188.91 C 135.49 189.00 136.26 188.36 136.35 187.49 L 136.45 186.51 C 136.53 185.64 135.90 184.86 135.03 184.78 C 134.16 184.69 133.38 185.33 133.30 186.20 Z M 133.20 187.17 L 133.10 188.17 C 133.01 189.04 133.65 189.82 134.52 189.90 C 135.39 189.99 136.16 189.36 136.25 188.49 L 136.35 187.49 C 136.43 186.62 135.80 185.85 134.93 185.76 C 134.06 185.67 133.29 186.31 133.20 187.17 Z M 133.10 188.17 L 133.00 189.18 C 132.91 190.05 133.55 190.82 134.41 190.91 C 135.28 191.00 136.06 190.36 136.15 189.49 L 136.25 188.49 C 136.33 187.62 135.70 186.84 134.83 186.76 C 133.96 186.67 133.19 187.30 133.10 188.17 Z M 133.00 189.18 L 132.90 190.19 C 132.81 191.05 133.44 191.83 134.31 191.92 C 135.18 192.00 135.95 191.37 136.04 190.50 L 136.14 189.50 C 136.23 188.63 135.60 187.85 134.73 187.76 C 133.86 187.68 133.09 188.31 133.00 189.18 Z M 132.90 190.19 L 132.80 191.19 C 132.71 192.06 133.34 192.83 134.21 192.92 C 135.08 193.01 135.85 192.38 135.94 191.51 L 136.04 190.50 C 136.13 189.64 135.50 188.86 134.63 188.77 C 133.76 188.69 132.99 189.32 132.90 190.19 Z M 132.80 191.19 L 132.70 192.19 C 132.61 193.06 133.24 193.83 134.11 193.92 C 134.97 194.01 135.75 193.38 135.83 192.51 L 135.94 191.51 C 136.03 190.65 135.40 189.87 134.53 189.78 C 133.66 189.69 132.89 190.32 132.80 191.19 Z M 132.70 192.19 L 132.60 193.18 C 132.51 194.04 133.14 194.82 134.00 194.91 C 134.87 195.00 135.64 194.37 135.73 193.50 L 135.83 192.51 C 135.92 191.65 135.29 190.87 134.43 190.78 C 133.56 190.69 132.79 191.32 132.70 192.19 Z M 132.60 193.18 L 132.50 194.15 C 132.41 195.01 133.04 195.79 133.90 195.88 C 134.77 195.97 135.54 195.34 135.63 194.47 L 135.73 193.50 C 135.82 192.64 135.19 191.86 134.33 191.77 C 133.46 191.68 132.69 192.31 132.60 193.18 Z M 132.50 194.15 L 132.40 195.14 C 132.30 196.00 132.93 196.78 133.80 196.87 C 134.66 196.96 135.43 196.33 135.52 195.46 L 135.63 194.48 C 135.72 193.61 135.09 192.84 134.23 192.75 C 133.36 192.66 132.59 193.28 132.50 194.15 Z M 132.40 195.14 L 132.29 196.14 C 132.20 197.00 132.82 197.77 133.69 197.87 C 134.55 197.96 135.33 197.33 135.42 196.47 L 135.52 195.47 C 135.61 194.60 134.99 193.83 134.13 193.74 C 133.26 193.65 132.49 194.27 132.40 195.14 Z M 132.29 196.14 L 132.19 197.12 C 132.09 197.98 132.72 198.76 133.58 198.85 C 134.44 198.94 135.22 198.32 135.31 197.46 L 135.42 196.47 C 135.51 195.61 134.88 194.83 134.02 194.74 C 133.16 194.65 132.38 195.27 132.29 196.14 Z M 132.19 197.12 L 132.08 198.10 C 131.99 198.96 132.61 199.74 133.47 199.83 C 134.33 199.92 135.11 199.30 135.20 198.44 L 135.31 197.46 C 135.40 196.60 134.78 195.82 133.92 195.73 C 133.06 195.64 132.28 196.26 132.19 197.12 Z M 132.08 198.10 L 131.97 199.08 C 131.88 199.94 132.50 200.71 133.36 200.81 C 134.22 200.91 135.00 200.28 135.09 199.42 L 135.20 198.44 C 135.29 197.58 134.67 196.81 133.81 196.71 C 132.95 196.62 132.18 197.24 132.08 198.10 Z M 131.98 199.08 L 131.86 200.07 C 131.77 200.93 132.39 201.70 133.25 201.80 C 134.11 201.89 134.88 201.28 134.98 200.42 L 135.09 199.43 C 135.19 198.57 134.57 197.79 133.71 197.69 C 132.85 197.60 132.07 198.22 131.98 199.08 Z M 131.87 200.06 L 131.75 201.07 C 131.65 201.93 132.27 202.70 133.13 202.80 C 133.99 202.90 134.76 202.28 134.86 201.42 L 134.98 200.42 C 135.07 199.56 134.46 198.78 133.60 198.69 C 132.74 198.59 131.96 199.20 131.87 200.06 Z M 131.75 201.07 L 131.64 202.05 C 131.54 202.91 132.15 203.69 133.01 203.79 C 133.87 203.88 134.65 203.27 134.75 202.41 L 134.86 201.43 C 134.96 200.57 134.34 199.79 133.49 199.69 C 132.63 199.59 131.85 200.21 131.75 201.07 Z M 131.64 202.05 L 131.52 203.04 C 131.42 203.90 132.04 204.67 132.89 204.77 C 133.75 204.87 134.53 204.26 134.63 203.40 L 134.75 202.41 C 134.85 201.56 134.23 200.78 133.37 200.68 C 132.52 200.58 131.74 201.19 131.64 202.05 Z M 131.52 203.04 L 131.41 204.04 C 131.30 204.89 131.92 205.67 132.77 205.77 C 133.63 205.87 134.41 205.26 134.51 204.40 L 134.63 203.40 C 134.73 202.55 134.12 201.77 133.26 201.67 C 132.40 201.57 131.63 202.18 131.52 203.04 Z M 131.41 204.03 L 131.29 205.04 C 131.18 205.90 131.80 206.68 132.65 206.78 C 133.51 206.88 134.29 206.27 134.39 205.41 L 134.51 204.41 C 134.61 203.55 134.00 202.77 133.14 202.67 C 132.29 202.57 131.51 203.18 131.41 204.03 Z M 131.29 205.04 L 131.17 206.04 C 131.06 206.90 131.67 207.68 132.53 207.78 C 133.39 207.89 134.16 207.28 134.27 206.42 L 134.39 205.41 C 134.49 204.56 133.88 203.78 133.03 203.68 C 132.17 203.57 131.39 204.18 131.29 205.04 Z M 131.17 206.04 L 131.04 207.04 C 130.94 207.90 131.55 208.68 132.41 208.78 C 133.26 208.88 134.04 208.27 134.15 207.42 L 134.27 206.42 C 134.37 205.56 133.76 204.79 132.91 204.68 C 132.05 204.58 131.27 205.19 131.17 206.04 Z M 131.05 207.04 L 130.92 208.02 C 130.82 208.88 131.43 209.66 132.28 209.76 C 133.14 209.87 133.92 209.26 134.02 208.40 L 134.15 207.42 C 134.25 206.56 133.64 205.78 132.79 205.68 C 131.93 205.57 131.15 206.18 131.05 207.04 Z M 130.92 208.02 L 130.80 209.04 C 130.69 209.89 131.30 210.67 132.16 210.78 C 133.01 210.88 133.79 210.27 133.90 209.42 L 134.02 208.40 C 134.13 207.55 133.52 206.77 132.67 206.66 C 131.81 206.56 131.03 207.17 130.92 208.02 Z M 130.80 209.04 L 130.67 210.07 C 130.57 210.92 131.17 211.70 132.03 211.81 C 132.88 211.92 133.66 211.31 133.77 210.45 L 133.90 209.42 C 134.00 208.56 133.40 207.78 132.54 207.68 C 131.69 207.57 130.91 208.18 130.80 209.04 Z M 130.67 210.07 L 130.55 211.08 C 130.44 211.93 131.05 212.71 131.90 212.82 C 132.76 212.93 133.54 212.32 133.64 211.46 L 133.77 210.45 C 133.88 209.60 133.27 208.82 132.41 208.71 C 131.56 208.60 130.78 209.21 130.67 210.07 Z M 130.55 211.08 L 130.42 212.07 C 130.31 212.92 130.92 213.70 131.78 213.81 C 132.63 213.92 133.41 213.31 133.52 212.46 L 133.64 211.46 C 133.75 210.61 133.15 209.83 132.29 209.72 C 131.43 209.61 130.65 210.22 130.55 211.08 Z M 130.42 212.07 L 130.30 213.04 C 130.19 213.90 130.80 214.68 131.65 214.78 C 132.51 214.89 133.29 214.29 133.40 213.43 L 133.52 212.46 C 133.63 211.60 133.02 210.82 132.17 210.71 C 131.31 210.60 130.53 211.21 130.42 212.07 Z M 130.30 213.04 L 130.18 214.00 C 130.07 214.86 130.67 215.64 131.53 215.75 C 132.38 215.86 133.16 215.25 133.27 214.40 L 133.40 213.43 C 133.50 212.58 132.90 211.80 132.04 211.69 C 131.19 211.58 130.41 212.18 130.30 213.04 Z M 130.18 214.00 L 130.05 214.95 C 129.94 215.81 130.55 216.59 131.40 216.70 C 132.26 216.81 133.04 216.20 133.15 215.35 L 133.27 214.40 C 133.38 213.54 132.78 212.76 131.92 212.65 C 131.07 212.54 130.29 213.14 130.18 214.00 Z M 130.05 214.95 L 129.92 215.99 C 129.81 216.85 130.41 217.63 131.27 217.74 C 132.12 217.85 132.91 217.25 133.02 216.39 L 133.15 215.35 C 133.26 214.50 132.66 213.71 131.80 213.60 C 130.95 213.49 130.16 214.10 130.05 214.95 Z M 129.92 215.99 L 129.79 217.03 C 129.67 217.88 130.28 218.67 131.13 218.78 C 131.99 218.89 132.77 218.28 132.88 217.43 L 133.02 216.40 C 133.13 215.54 132.52 214.76 131.67 214.65 C 130.81 214.54 130.03 215.14 129.92 215.99 Z M 129.79 217.03 L 129.65 218.04 C 129.54 218.90 130.15 219.68 131.00 219.79 C 131.86 219.90 132.64 219.30 132.75 218.44 L 132.88 217.43 C 132.99 216.57 132.39 215.79 131.53 215.68 C 130.68 215.57 129.90 216.17 129.79 217.03 Z M 129.65 218.04 L 129.53 219.03 C 129.42 219.88 130.02 220.67 130.88 220.78 C 131.73 220.89 132.51 220.28 132.62 219.43 L 132.75 218.44 C 132.86 217.58 132.26 216.80 131.40 216.69 C 130.55 216.58 129.76 217.19 129.65 218.04 Z M 129.53 219.03 L 129.41 219.98 C 129.30 220.84 129.90 221.62 130.76 221.73 C 131.61 221.84 132.39 221.23 132.50 220.38 L 132.62 219.42 C 132.73 218.57 132.13 217.79 131.27 217.68 C 130.42 217.57 129.64 218.17 129.53 219.03 Z M 129.40 219.99 L 129.29 220.91 C 129.18 221.76 129.79 222.54 130.64 222.65 C 131.50 222.76 132.28 222.15 132.39 221.30 L 132.50 220.37 C 132.61 219.52 132.00 218.74 131.15 218.63 C 130.29 218.52 129.51 219.13 129.40 219.99 Z M 129.29 220.91 L 129.17 221.92 C 129.06 222.78 129.67 223.56 130.53 223.66 C 131.38 223.77 132.16 223.16 132.26 222.30 L 132.39 221.29 C 132.49 220.44 131.88 219.66 131.03 219.55 C 130.17 219.45 129.39 220.06 129.29 220.91 Z M 129.17 221.93 L 129.05 222.90 C 128.94 223.76 129.55 224.54 130.41 224.64 C 131.27 224.74 132.04 224.13 132.15 223.28 L 132.26 222.30 C 132.37 221.45 131.76 220.67 130.90 220.56 C 130.05 220.46 129.27 221.07 129.17 221.93 Z M 129.05 222.90 L 128.93 223.87 C 128.82 224.72 129.43 225.50 130.29 225.61 C 131.14 225.71 131.92 225.10 132.03 224.25 L 132.15 223.28 C 132.25 222.42 131.64 221.64 130.79 221.54 C 129.93 221.44 129.15 222.04 129.05 222.90 Z M 128.93 223.86 L 128.81 224.84 C 128.70 225.70 129.30 226.48 130.16 226.59 C 131.01 226.69 131.80 226.09 131.90 225.23 L 132.03 224.25 C 132.14 223.40 131.53 222.62 130.67 222.51 C 129.82 222.40 129.04 223.01 128.93 223.86 Z M 128.81 224.83 L 128.67 225.85 C 128.56 226.71 129.16 227.49 130.01 227.61 C 130.87 227.72 131.65 227.12 131.77 226.26 L 131.90 225.24 C 132.02 224.39 131.41 223.60 130.56 223.49 C 129.70 223.38 128.92 223.98 128.81 224.83 Z M 128.67 225.85 L 128.54 226.80 C 128.42 227.65 129.02 228.44 129.87 228.56 C 130.73 228.68 131.52 228.08 131.63 227.23 L 131.77 226.27 C 131.88 225.42 131.29 224.63 130.43 224.51 C 129.58 224.39 128.79 224.99 128.67 225.85 Z M 128.54 226.79 L 128.40 227.78 C 128.28 228.63 128.88 229.42 129.73 229.54 C 130.58 229.66 131.37 229.07 131.49 228.21 L 131.63 227.23 C 131.75 226.38 131.16 225.59 130.31 225.47 C 129.45 225.35 128.66 225.94 128.54 226.79 Z M 128.40 227.78 L 128.26 228.78 C 128.14 229.64 128.73 230.43 129.59 230.55 C 130.44 230.67 131.23 230.07 131.35 229.22 L 131.49 228.21 C 131.61 227.36 131.02 226.57 130.17 226.45 C 129.31 226.33 128.52 226.92 128.40 227.78 Z M 128.26 228.79 L 128.12 229.80 C 128.00 230.66 128.60 231.44 129.45 231.56 C 130.31 231.68 131.10 231.08 131.21 230.23 L 131.35 229.22 C 131.47 228.36 130.87 227.57 130.02 227.46 C 129.16 227.34 128.38 227.94 128.26 228.79 Z M 128.12 229.81 L 127.99 230.82 C 127.88 231.67 128.48 232.46 129.33 232.57 C 130.19 232.68 130.97 232.08 131.08 231.22 L 131.21 230.22 C 131.33 229.36 130.72 228.58 129.87 228.47 C 129.01 228.36 128.23 228.96 128.12 229.81 Z M 127.99 230.83 L 127.86 231.90 C 127.75 232.76 128.36 233.54 129.22 233.64 C 130.08 233.74 130.85 233.13 130.96 232.27 L 131.09 231.21 C 131.19 230.35 130.58 229.57 129.72 229.47 C 128.87 229.37 128.09 229.98 127.99 230.83 Z M 127.85 231.93 L 127.71 233.29 C 127.62 234.15 128.25 234.92 129.10 235.00 C 129.96 235.09 130.73 234.47 130.82 233.61 L 130.96 232.25 C 131.05 231.39 130.43 230.62 129.57 230.54 C 128.71 230.45 127.94 231.07 127.85 231.93 Z M 127.71 233.32 L 127.61 234.46 C 127.53 235.32 128.17 236.08 129.03 236.15 C 129.89 236.23 130.64 235.59 130.72 234.73 L 130.82 233.59 C 130.90 232.73 130.26 231.97 129.40 231.90 C 128.54 231.82 127.79 232.46 127.71 233.32 Z M 127.61 234.49 L 127.55 235.29 C 127.49 236.15 128.14 236.90 129.00 236.96 C 129.86 237.02 130.61 236.37 130.67 235.51 L 130.72 234.70 C 130.78 233.84 130.13 233.10 129.27 233.04 C 128.41 232.98 127.67 233.63 127.61 234.49 Z M 127.55 235.37 L 127.54 235.72 C 127.53 236.58 128.21 237.29 129.08 237.31 C 129.94 237.32 130.65 236.64 130.66 235.77 L 130.67 235.42 C 130.68 234.56 130.00 233.85 129.13 233.84 C 128.27 233.82 127.56 234.51 127.55 235.37 Z M 130.64 235.99 L 130.74 235.38 C 130.87 234.53 130.29 233.73 129.44 233.60 C 128.59 233.46 127.79 234.05 127.66 234.90 L 127.56 235.50 C 127.43 236.36 128.01 237.16 128.86 237.29 C 129.71 237.42 130.51 236.84 130.64 235.99 Z M 130.75 235.35 L 130.93 233.95 C 131.05 233.10 130.45 232.31 129.59 232.20 C 128.74 232.08 127.95 232.68 127.84 233.54 L 127.65 234.93 C 127.54 235.79 128.13 236.57 128.99 236.69 C 129.84 236.80 130.63 236.20 130.75 235.35 Z M 130.93 233.97 L 131.05 233.11 C 131.18 232.25 130.58 231.46 129.73 231.34 C 128.88 231.22 128.09 231.81 127.96 232.66 L 127.84 233.53 C 127.72 234.38 128.31 235.17 129.17 235.29 C 130.02 235.41 130.81 234.82 130.93 233.97 Z M 131.05 233.10 L 131.18 232.20 C 131.30 231.35 130.71 230.56 129.86 230.44 C 129.00 230.32 128.21 230.91 128.09 231.76 L 127.96 232.67 C 127.84 233.52 128.44 234.31 129.29 234.43 C 130.14 234.55 130.93 233.96 131.05 233.10 Z M 131.18 232.19 L 131.32 231.20 C 131.43 230.35 130.83 229.56 129.97 229.45 C 129.12 229.33 128.33 229.93 128.22 230.79 L 128.09 231.78 C 127.98 232.63 128.58 233.42 129.43 233.53 C 130.29 233.64 131.07 233.04 131.18 232.19 Z M 131.32 231.18 L 131.45 230.08 C 131.55 229.23 130.93 228.45 130.08 228.35 C 129.22 228.25 128.45 228.86 128.35 229.72 L 128.22 230.81 C 128.12 231.67 128.73 232.44 129.59 232.55 C 130.44 232.65 131.22 232.03 131.32 231.18 Z M 131.45 230.06 L 131.56 228.94 C 131.65 228.08 131.02 227.32 130.16 227.23 C 129.30 227.15 128.54 227.77 128.45 228.63 L 128.34 229.75 C 128.26 230.61 128.88 231.37 129.74 231.46 C 130.60 231.54 131.36 230.91 131.45 230.06 Z M 131.56 228.91 L 131.64 227.95 C 131.71 227.09 131.08 226.34 130.22 226.27 C 129.36 226.20 128.60 226.84 128.53 227.70 L 128.45 228.65 C 128.38 229.51 129.02 230.27 129.88 230.34 C 130.74 230.41 131.49 229.77 131.56 228.91 Z M 131.64 227.94 L 131.72 226.93 C 131.78 226.07 131.13 225.33 130.27 225.26 C 129.41 225.20 128.66 225.85 128.60 226.71 L 128.53 227.71 C 128.47 228.57 129.11 229.32 129.97 229.38 C 130.83 229.44 131.58 228.80 131.64 227.94 Z M 131.72 226.92 L 131.78 225.89 C 131.83 225.03 131.18 224.29 130.32 224.23 C 129.46 224.18 128.72 224.83 128.66 225.69 L 128.60 226.72 C 128.55 227.58 129.20 228.32 130.06 228.38 C 130.92 228.43 131.66 227.78 131.72 226.92 Z M 131.78 225.88 L 131.84 224.84 C 131.88 223.98 131.22 223.25 130.36 223.20 C 129.50 223.15 128.77 223.81 128.72 224.68 L 128.66 225.71 C 128.62 226.57 129.28 227.30 130.14 227.35 C 131.00 227.40 131.74 226.74 131.78 225.88 Z M 131.84 224.83 L 131.88 223.82 C 131.92 222.96 131.26 222.22 130.40 222.19 C 129.54 222.15 128.81 222.81 128.77 223.67 L 128.72 224.69 C 128.68 225.55 129.35 226.28 130.21 226.32 C 131.07 226.36 131.80 225.69 131.84 224.83 Z M 131.89 223.80 L 131.92 222.83 C 131.96 221.97 131.28 221.24 130.42 221.21 C 129.56 221.18 128.84 221.85 128.80 222.71 L 128.77 223.69 C 128.73 224.55 129.40 225.27 130.27 225.30 C 131.13 225.34 131.85 224.67 131.89 223.80 Z M 131.92 222.81 L 131.96 221.71 C 131.98 220.85 131.30 220.13 130.44 220.11 C 129.58 220.08 128.86 220.76 128.83 221.62 L 128.80 222.72 C 128.78 223.58 129.46 224.30 130.32 224.33 C 131.18 224.35 131.90 223.68 131.92 222.81 Z M 131.96 221.70 L 131.98 220.65 C 131.99 219.79 131.31 219.07 130.45 219.06 C 129.58 219.04 128.87 219.72 128.85 220.59 L 128.83 221.64 C 128.82 222.50 129.50 223.21 130.36 223.23 C 131.23 223.24 131.94 222.56 131.96 221.70 Z M 131.98 220.63 L 131.99 219.64 C 132.00 218.78 131.31 218.07 130.44 218.07 C 129.58 218.06 128.88 218.75 128.87 219.61 L 128.85 220.60 C 128.84 221.46 129.54 222.17 130.40 222.18 C 131.26 222.19 131.97 221.50 131.98 220.63 Z M 131.99 219.63 L 131.99 218.68 C 132.00 217.82 131.30 217.12 130.44 217.12 C 129.58 217.11 128.87 217.81 128.87 218.67 L 128.87 219.62 C 128.86 220.48 129.56 221.18 130.42 221.19 C 131.28 221.19 131.98 220.50 131.99 219.63 Z M 131.99 218.68 L 131.99 217.75 C 131.99 216.89 131.30 216.19 130.43 216.19 C 129.57 216.19 128.87 216.89 128.87 217.75 L 128.87 218.67 C 128.87 219.54 129.57 220.24 130.43 220.24 C 131.29 220.24 131.99 219.54 131.99 218.68 Z M 131.99 217.75 L 131.99 217.47 C 131.99 216.60 131.30 215.90 130.43 215.90 C 129.57 215.90 128.87 216.60 128.87 217.47 L 128.87 217.75 C 128.87 218.61 129.57 219.31 130.43 219.31 C 131.29 219.31 131.99 218.61 131.99 217.75 Z"
      fill="black"
      fill-rule="nonzero" /><path d="M 142.33 149.10 L 142.72 148.17 C 143.05 147.38 142.68 146.46 141.89 146.13 C 141.09 145.79 140.18 146.17 139.84 146.96 L 139.45 147.89 C 139.12 148.68 139.49 149.60 140.28 149.93 C 141.08 150.26 141.99 149.89 142.33 149.10 Z M 142.71 148.20 L 143.11 147.28 C 143.46 146.49 143.10 145.57 142.31 145.22 C 141.52 144.87 140.60 145.23 140.25 146.02 L 139.85 146.94 C 139.50 147.73 139.86 148.65 140.65 149.00 C 141.44 149.34 142.36 148.98 142.71 148.20 Z M 143.09 147.32 L 143.52 146.42 C 143.89 145.64 143.56 144.71 142.79 144.34 C 142.01 143.97 141.08 144.30 140.70 145.08 L 140.27 145.98 C 139.90 146.76 140.23 147.69 141.01 148.06 C 141.79 148.43 142.72 148.10 143.09 147.32 Z M 143.49 146.49 L 143.96 145.61 C 144.37 144.85 144.08 143.90 143.32 143.50 C 142.56 143.09 141.62 143.37 141.21 144.13 L 140.74 145.01 C 140.33 145.77 140.61 146.72 141.37 147.12 C 142.13 147.53 143.08 147.25 143.49 146.49 Z M 143.91 145.69 L 144.44 144.84 C 144.90 144.11 144.67 143.15 143.94 142.69 C 143.21 142.24 142.24 142.46 141.79 143.20 L 141.26 144.05 C 140.80 144.78 141.03 145.74 141.76 146.20 C 142.49 146.65 143.46 146.43 143.91 145.69 Z M 144.39 144.92 L 144.97 144.10 C 145.47 143.40 145.31 142.43 144.61 141.93 C 143.90 141.43 142.93 141.59 142.43 142.29 L 141.84 143.11 C 141.34 143.82 141.51 144.79 142.21 145.29 C 142.91 145.79 143.89 145.63 144.39 144.92 Z M 144.92 144.17 L 145.55 143.38 C 146.08 142.71 145.97 141.72 145.30 141.19 C 144.62 140.65 143.64 140.76 143.10 141.44 L 142.48 142.23 C 141.94 142.90 142.05 143.88 142.73 144.42 C 143.40 144.96 144.39 144.84 144.92 144.17 Z M 145.51 143.43 L 146.16 142.68 C 146.72 142.02 146.65 141.04 146.00 140.47 C 145.34 139.91 144.36 139.98 143.79 140.64 L 143.14 141.39 C 142.58 142.04 142.65 143.03 143.30 143.59 C 143.96 144.16 144.94 144.08 145.51 143.43 Z M 146.12 142.71 L 146.80 141.98 C 147.38 141.35 147.34 140.36 146.70 139.78 C 146.07 139.19 145.08 139.24 144.50 139.87 L 143.83 140.60 C 143.24 141.23 143.28 142.22 143.92 142.81 C 144.55 143.39 145.54 143.35 146.12 142.71 Z M 146.77 142.01 L 147.48 141.28 C 148.07 140.66 148.06 139.67 147.44 139.07 C 146.82 138.47 145.83 138.49 145.23 139.11 L 144.52 139.84 C 143.92 140.46 143.94 141.45 144.56 142.05 C 145.18 142.65 146.17 142.63 146.77 142.01 Z M 147.45 141.31 L 148.16 140.60 C 148.77 140.00 148.78 139.01 148.17 138.40 C 147.57 137.78 146.58 137.78 145.97 138.38 L 145.26 139.08 C 144.64 139.69 144.64 140.68 145.24 141.29 C 145.85 141.91 146.84 141.91 147.45 141.31 Z M 148.14 140.63 L 148.86 139.95 C 149.48 139.36 149.51 138.37 148.92 137.74 C 148.33 137.11 147.34 137.09 146.71 137.68 L 145.99 138.36 C 145.36 138.95 145.34 139.94 145.93 140.57 C 146.52 141.19 147.51 141.22 148.14 140.63 Z M 148.83 139.97 L 149.56 139.30 C 150.20 138.72 150.25 137.74 149.67 137.10 C 149.09 136.46 148.10 136.41 147.46 136.99 L 146.73 137.66 C 146.09 138.24 146.05 139.23 146.63 139.86 C 147.21 140.50 148.20 140.55 148.83 139.97 Z M 149.54 139.32 L 150.29 138.67 C 150.93 138.11 151.00 137.12 150.43 136.47 C 149.87 135.82 148.88 135.76 148.23 136.32 L 147.49 136.97 C 146.84 137.54 146.77 138.53 147.34 139.18 C 147.91 139.83 148.89 139.89 149.54 139.32 Z M 150.25 138.70 L 151.02 138.07 C 151.68 137.52 151.78 136.54 151.23 135.87 C 150.68 135.21 149.70 135.11 149.03 135.66 L 148.27 136.29 C 147.60 136.84 147.51 137.83 148.05 138.49 C 148.60 139.16 149.59 139.25 150.25 138.70 Z M 150.97 138.11 L 151.77 137.50 C 152.45 136.98 152.59 136.00 152.07 135.32 C 151.55 134.63 150.57 134.49 149.88 135.02 L 149.08 135.62 C 148.40 136.14 148.26 137.12 148.78 137.81 C 149.30 138.50 150.28 138.63 150.97 138.11 Z M 151.70 137.55 L 152.54 136.98 C 153.25 136.50 153.44 135.53 152.95 134.81 C 152.47 134.10 151.50 133.91 150.78 134.40 L 149.95 134.97 C 149.23 135.45 149.05 136.42 149.53 137.14 C 150.02 137.85 150.99 138.04 151.70 137.55 Z M 152.46 137.03 L 153.27 136.55 C 154.01 136.10 154.25 135.14 153.81 134.41 C 153.36 133.67 152.41 133.42 151.67 133.87 L 150.86 134.35 C 150.12 134.79 149.88 135.75 150.32 136.49 C 150.76 137.23 151.72 137.47 152.46 137.03 Z M 153.19 136.59 L 154.04 136.14 C 154.80 135.74 155.10 134.80 154.70 134.04 C 154.30 133.27 153.35 132.98 152.59 133.38 L 151.74 133.82 C 150.98 134.23 150.69 135.17 151.09 135.93 C 151.49 136.70 152.43 136.99 153.19 136.59 Z M 153.97 136.18 L 154.87 135.77 C 155.65 135.41 156.00 134.48 155.64 133.70 C 155.28 132.91 154.35 132.57 153.57 132.93 L 152.67 133.34 C 151.88 133.70 151.54 134.63 151.90 135.41 C 152.26 136.20 153.18 136.54 153.97 136.18 Z M 154.80 135.80 L 155.77 135.41 C 156.57 135.09 156.96 134.18 156.64 133.38 C 156.32 132.58 155.41 132.19 154.61 132.51 L 153.64 132.90 C 152.84 133.22 152.45 134.13 152.77 134.93 C 153.09 135.73 154.00 136.12 154.80 135.80 Z M 155.71 135.43 L 156.71 135.08 C 157.52 134.80 157.95 133.91 157.66 133.09 C 157.38 132.28 156.49 131.85 155.67 132.14 L 154.67 132.49 C 153.86 132.77 153.43 133.66 153.72 134.48 C 154.00 135.29 154.89 135.72 155.71 135.43 Z M 156.66 135.10 L 157.62 134.80 C 158.45 134.54 158.90 133.66 158.65 132.84 C 158.39 132.02 157.51 131.56 156.69 131.82 L 155.72 132.12 C 154.90 132.38 154.44 133.25 154.70 134.08 C 154.96 134.90 155.83 135.36 156.66 135.10 Z M 157.59 134.81 L 158.58 134.52 C 159.41 134.29 159.89 133.42 159.65 132.59 C 159.41 131.76 158.55 131.28 157.72 131.52 L 156.73 131.81 C 155.90 132.04 155.42 132.91 155.66 133.74 C 155.89 134.57 156.76 135.05 157.59 134.81 Z M 158.55 134.53 L 159.54 134.27 C 160.38 134.05 160.87 133.19 160.65 132.36 C 160.43 131.52 159.57 131.03 158.74 131.25 L 157.75 131.51 C 156.92 131.73 156.42 132.59 156.64 133.42 C 156.86 134.26 157.72 134.75 158.55 134.53 Z M 159.52 134.27 L 160.48 134.03 C 161.32 133.83 161.83 132.98 161.62 132.14 C 161.41 131.31 160.56 130.80 159.72 131.00 L 158.76 131.24 C 157.93 131.45 157.42 132.30 157.63 133.14 C 157.83 133.97 158.68 134.48 159.52 134.27 Z M 160.46 134.04 L 161.40 133.82 C 162.24 133.62 162.76 132.78 162.56 131.94 C 162.36 131.10 161.52 130.58 160.68 130.78 L 159.74 131.00 C 158.91 131.20 158.38 132.04 158.58 132.88 C 158.78 133.72 159.62 134.24 160.46 134.04 Z M 161.38 133.82 L 162.45 133.59 C 163.29 133.40 163.82 132.57 163.64 131.72 C 163.45 130.88 162.62 130.35 161.78 130.54 L 160.70 130.77 C 159.86 130.96 159.33 131.79 159.52 132.64 C 159.70 133.48 160.54 134.01 161.38 133.82 Z M 162.43 133.59 L 163.41 133.39 C 164.25 133.21 164.79 132.39 164.62 131.54 C 164.45 130.70 163.62 130.16 162.78 130.33 L 161.80 130.53 C 160.95 130.71 160.41 131.53 160.58 132.38 C 160.76 133.22 161.58 133.76 162.43 133.59 Z M 163.39 133.39 L 164.31 133.21 C 165.16 133.05 165.71 132.23 165.55 131.39 C 165.39 130.54 164.57 129.99 163.72 130.15 L 162.80 130.33 C 161.95 130.49 161.39 131.31 161.56 132.16 C 161.72 133.00 162.54 133.56 163.39 133.39 Z M 164.30 133.22 L 165.21 133.05 C 166.06 132.89 166.62 132.08 166.47 131.23 C 166.31 130.38 165.50 129.82 164.65 129.98 L 163.73 130.15 C 162.89 130.30 162.32 131.12 162.48 131.96 C 162.64 132.81 163.45 133.37 164.30 133.22 Z M 165.20 133.05 L 166.14 132.88 C 166.99 132.73 167.56 131.92 167.41 131.07 C 167.26 130.22 166.44 129.66 165.60 129.81 L 164.66 129.98 C 163.81 130.13 163.24 130.94 163.39 131.79 C 163.54 132.64 164.35 133.20 165.20 133.05 Z M 166.13 132.89 L 167.10 132.72 C 167.95 132.58 168.52 131.77 168.38 130.92 C 168.24 130.07 167.43 129.50 166.58 129.64 L 165.61 129.81 C 164.76 129.95 164.19 130.76 164.33 131.61 C 164.47 132.46 165.28 133.03 166.13 132.89 Z M 167.08 132.72 L 168.09 132.56 C 168.95 132.43 169.53 131.63 169.39 130.78 C 169.26 129.93 168.46 129.34 167.61 129.48 L 166.60 129.64 C 165.74 129.78 165.16 130.57 165.30 131.43 C 165.43 132.28 166.23 132.86 167.08 132.72 Z M 168.07 132.57 L 169.11 132.42 C 169.96 132.29 170.55 131.50 170.43 130.65 C 170.30 129.79 169.51 129.20 168.66 129.33 L 167.62 129.48 C 166.77 129.60 166.18 130.39 166.30 131.25 C 166.43 132.10 167.22 132.69 168.07 132.57 Z M 169.09 132.42 L 170.08 132.29 C 170.93 132.17 171.53 131.39 171.42 130.53 C 171.31 129.68 170.52 129.08 169.67 129.19 L 168.68 129.32 C 167.82 129.44 167.22 130.22 167.34 131.08 C 167.45 131.93 168.24 132.53 169.09 132.42 Z M 170.07 132.29 L 171.07 132.16 C 171.93 132.05 172.54 131.27 172.43 130.42 C 172.32 129.56 171.54 128.96 170.68 129.06 L 169.68 129.19 C 168.82 129.30 168.22 130.08 168.32 130.93 C 168.43 131.79 169.21 132.40 170.07 132.29 Z M 171.07 132.16 L 172.07 132.04 C 172.93 131.93 173.54 131.15 173.43 130.30 C 173.33 129.44 172.55 128.83 171.69 128.94 L 170.69 129.06 C 169.83 129.17 169.22 129.95 169.33 130.80 C 169.43 131.66 170.21 132.27 171.07 132.16 Z M 172.07 132.04 L 173.05 131.92 C 173.91 131.81 174.52 131.03 174.41 130.18 C 174.31 129.32 173.53 128.71 172.67 128.82 L 171.69 128.94 C 170.84 129.04 170.23 129.82 170.33 130.68 C 170.44 131.54 171.22 132.14 172.07 132.04 Z M 173.06 131.92 L 174.08 131.79 C 174.94 131.68 175.54 130.90 175.43 130.04 C 175.32 129.19 174.54 128.58 173.69 128.69 L 172.67 128.82 C 171.81 128.93 171.20 129.71 171.31 130.56 C 171.42 131.42 172.20 132.03 173.06 131.92 Z M 174.08 131.79 L 175.08 131.66 C 175.94 131.55 176.54 130.76 176.43 129.91 C 176.32 129.05 175.54 128.45 174.68 128.56 L 173.68 128.69 C 172.83 128.80 172.23 129.58 172.34 130.44 C 172.45 131.29 173.23 131.90 174.08 131.79 Z M 175.08 131.66 L 176.06 131.53 C 176.91 131.42 177.51 130.64 177.40 129.79 C 177.29 128.93 176.51 128.33 175.66 128.44 L 174.68 128.56 C 173.83 128.67 173.22 129.45 173.33 130.31 C 173.44 131.16 174.23 131.77 175.08 131.66 Z M 176.05 131.53 L 177.02 131.41 C 177.87 131.31 178.48 130.53 178.38 129.67 C 178.27 128.82 177.49 128.21 176.63 128.32 L 175.66 128.44 C 174.81 128.54 174.20 129.32 174.31 130.18 C 174.41 131.03 175.19 131.64 176.05 131.53 Z M 177.01 131.42 L 177.99 131.30 C 178.85 131.20 179.46 130.43 179.36 129.57 C 179.27 128.71 178.49 128.10 177.63 128.20 L 176.65 128.31 C 175.79 128.41 175.18 129.19 175.27 130.04 C 175.37 130.90 176.15 131.51 177.01 131.42 Z M 177.98 131.30 L 178.98 131.20 C 179.84 131.10 180.46 130.33 180.36 129.48 C 180.27 128.62 179.50 128.00 178.65 128.09 L 177.65 128.20 C 176.79 128.29 176.17 129.06 176.26 129.92 C 176.35 130.77 177.12 131.39 177.98 131.30 Z M 178.97 131.20 L 179.97 131.10 C 180.82 131.01 181.45 130.25 181.37 129.39 C 181.28 128.53 180.52 127.91 179.66 127.99 L 178.66 128.09 C 177.80 128.17 177.17 128.94 177.26 129.80 C 177.34 130.66 178.11 131.28 178.97 131.20 Z M 179.95 131.10 L 180.94 131.01 C 181.80 130.93 182.44 130.17 182.36 129.31 C 182.28 128.46 181.52 127.82 180.66 127.90 L 179.67 127.99 C 178.81 128.07 178.18 128.83 178.26 129.69 C 178.33 130.54 179.09 131.18 179.95 131.10 Z M 180.93 131.01 L 181.85 130.93 C 182.71 130.86 183.35 130.11 183.28 129.25 C 183.21 128.39 182.46 127.75 181.60 127.82 L 180.67 127.90 C 179.82 127.97 179.18 128.72 179.25 129.58 C 179.32 130.44 180.07 131.08 180.93 131.01 Z M 181.84 130.94 L 182.79 130.86 C 183.65 130.80 184.29 130.05 184.22 129.19 C 184.16 128.33 183.41 127.69 182.55 127.75 L 181.61 127.82 C 180.75 127.89 180.10 128.64 180.17 129.50 C 180.23 130.36 180.98 131.00 181.84 130.94 Z M 182.78 130.86 L 183.78 130.79 C 184.64 130.73 185.29 129.99 185.22 129.13 C 185.16 128.27 184.42 127.62 183.56 127.68 L 182.56 127.75 C 181.70 127.81 181.05 128.56 181.11 129.42 C 181.17 130.28 181.92 130.93 182.78 130.86 Z M 183.77 130.79 L 184.87 130.72 C 185.73 130.66 186.38 129.92 186.32 129.06 C 186.26 128.20 185.51 127.55 184.65 127.60 L 183.56 127.68 C 182.70 127.74 182.05 128.48 182.11 129.34 C 182.17 130.20 182.91 130.85 183.77 130.79 Z M 184.87 130.72 L 185.78 130.66 C 186.64 130.60 187.29 129.86 187.23 129.00 C 187.17 128.14 186.43 127.49 185.57 127.54 L 184.66 127.60 C 183.80 127.66 183.15 128.41 183.20 129.27 C 183.26 130.13 184.01 130.78 184.87 130.72 Z M 185.77 130.66 L 186.68 130.60 C 187.55 130.54 188.20 129.80 188.14 128.94 C 188.09 128.08 187.34 127.43 186.48 127.48 L 185.57 127.54 C 184.71 127.60 184.06 128.34 184.11 129.20 C 184.17 130.06 184.91 130.71 185.77 130.66 Z M 186.68 130.60 L 187.65 130.54 C 188.51 130.49 189.16 129.75 189.11 128.89 C 189.06 128.03 188.32 127.37 187.46 127.42 L 186.49 127.48 C 185.63 127.54 184.97 128.28 185.03 129.14 C 185.08 130.00 185.82 130.65 186.68 130.60 Z M 187.64 130.54 L 188.66 130.49 C 189.52 130.44 190.18 129.70 190.14 128.84 C 190.09 127.98 189.35 127.32 188.49 127.37 L 187.47 127.42 C 186.61 127.47 185.95 128.21 186.00 129.07 C 186.04 129.93 186.78 130.59 187.64 130.54 Z M 188.65 130.49 L 189.72 130.44 C 190.58 130.40 191.25 129.67 191.21 128.81 C 191.17 127.95 190.44 127.28 189.58 127.32 L 188.51 127.37 C 187.64 127.41 186.98 128.14 187.02 129.00 C 187.06 129.86 187.79 130.53 188.65 130.49 Z M 189.71 130.44 L 190.82 130.40 C 191.69 130.37 192.36 129.64 192.33 128.78 C 192.30 127.92 191.57 127.25 190.71 127.28 L 189.59 127.32 C 188.73 127.35 188.06 128.07 188.09 128.94 C 188.12 129.80 188.85 130.47 189.71 130.44 Z M 190.81 130.40 L 191.84 130.37 C 192.70 130.35 193.38 129.63 193.36 128.77 C 193.34 127.91 192.62 127.23 191.76 127.25 L 190.73 127.28 C 189.86 127.30 189.18 128.02 189.21 128.88 C 189.23 129.74 189.95 130.42 190.81 130.40 Z M 191.83 130.37 L 192.87 130.35 C 193.73 130.34 194.41 129.62 194.40 128.76 C 194.38 127.90 193.67 127.21 192.81 127.23 L 191.77 127.25 C 190.91 127.27 190.22 127.98 190.24 128.84 C 190.26 129.70 190.97 130.39 191.83 130.37 Z M 192.86 130.35 L 193.89 130.34 C 194.76 130.33 195.45 129.62 195.44 128.76 C 195.43 127.90 194.72 127.21 193.86 127.22 L 192.82 127.23 C 191.96 127.24 191.26 127.95 191.28 128.81 C 191.29 129.67 191.99 130.36 192.86 130.35 Z M 193.89 130.34 L 194.91 130.33 C 195.77 130.33 196.47 129.62 196.46 128.76 C 196.46 127.90 195.75 127.20 194.89 127.21 L 193.86 127.22 C 193.00 127.22 192.31 127.93 192.31 128.79 C 192.32 129.65 193.02 130.35 193.89 130.34 Z M 194.91 130.33 L 195.91 130.33 C 196.77 130.33 197.46 129.62 197.46 128.76 C 197.46 127.90 196.76 127.20 195.89 127.21 L 194.89 127.21 C 194.03 127.21 193.34 127.91 193.34 128.78 C 193.34 129.64 194.04 130.34 194.91 130.33 Z M 195.90 130.33 L 196.86 130.33 C 197.72 130.33 198.42 129.63 198.42 128.76 C 198.42 127.90 197.72 127.20 196.85 127.21 L 195.90 127.21 C 195.04 127.21 194.34 127.91 194.34 128.77 C 194.34 129.63 195.04 130.33 195.90 130.33 Z M 196.86 130.33 L 197.82 130.33 C 198.68 130.33 199.38 129.63 199.38 128.77 C 199.38 127.90 198.68 127.20 197.82 127.20 L 196.86 127.21 C 195.99 127.21 195.30 127.90 195.30 128.77 C 195.30 129.63 195.99 130.33 196.86 130.33 Z M 197.82 130.33 L 198.96 130.33 C 199.82 130.33 200.52 129.63 200.52 128.77 C 200.52 127.91 199.82 127.21 198.96 127.21 L 197.82 127.20 C 196.96 127.20 196.26 127.90 196.26 128.76 C 196.26 129.63 196.96 130.33 197.82 130.33 Z M 198.95 130.33 L 199.99 130.33 C 200.85 130.34 201.55 129.64 201.56 128.78 C 201.56 127.92 200.86 127.22 200.00 127.21 L 198.97 127.21 C 198.10 127.20 197.40 127.90 197.40 128.76 C 197.39 129.62 198.09 130.32 198.95 130.33 Z M 199.97 130.33 L 200.93 130.35 C 201.79 130.36 202.50 129.67 202.51 128.81 C 202.53 127.95 201.84 127.24 200.97 127.22 L 200.02 127.21 C 199.15 127.20 198.44 127.89 198.43 128.75 C 198.42 129.61 199.11 130.32 199.97 130.33 Z M 200.91 130.35 L 201.81 130.37 C 202.68 130.39 203.39 129.71 203.42 128.85 C 203.44 127.99 202.76 127.27 201.90 127.25 L 200.99 127.23 C 200.13 127.20 199.42 127.88 199.39 128.74 C 199.37 129.60 200.05 130.32 200.91 130.35 Z M 201.79 130.37 L 202.72 130.41 C 203.58 130.45 204.31 129.79 204.35 128.93 C 204.39 128.06 203.73 127.33 202.86 127.29 L 201.93 127.25 C 201.07 127.21 200.34 127.88 200.30 128.74 C 200.26 129.60 200.92 130.33 201.79 130.37 Z M 202.69 130.41 L 203.71 130.48 C 204.57 130.54 205.31 129.88 205.37 129.02 C 205.43 128.16 204.78 127.42 203.92 127.36 L 202.90 127.30 C 202.03 127.24 201.29 127.89 201.23 128.75 C 201.18 129.61 201.83 130.35 202.69 130.41 Z M 203.69 130.48 L 204.69 130.56 C 205.55 130.63 206.30 129.99 206.37 129.13 C 206.44 128.27 205.80 127.51 204.94 127.45 L 203.94 127.36 C 203.08 127.30 202.33 127.94 202.26 128.80 C 202.19 129.65 202.83 130.41 203.69 130.48 Z M 204.68 130.56 L 205.66 130.64 C 206.52 130.72 207.27 130.08 207.35 129.22 C 207.42 128.36 206.79 127.61 205.93 127.53 L 204.95 127.45 C 204.09 127.37 203.33 128.01 203.26 128.87 C 203.18 129.72 203.82 130.48 204.68 130.56 Z M 205.66 130.64 L 206.63 130.73 C 207.49 130.80 208.25 130.16 208.32 129.30 C 208.39 128.45 207.76 127.69 206.90 127.62 L 205.93 127.53 C 205.07 127.46 204.31 128.09 204.24 128.95 C 204.17 129.81 204.80 130.57 205.66 130.64 Z M 206.64 130.73 L 207.62 130.81 C 208.48 130.87 209.24 130.23 209.30 129.37 C 209.37 128.51 208.73 127.76 207.87 127.69 L 206.89 127.61 C 206.03 127.55 205.28 128.19 205.21 129.05 C 205.14 129.91 205.78 130.66 206.64 130.73 Z M 207.63 130.81 L 208.61 130.88 C 209.47 130.95 210.22 130.30 210.29 129.44 C 210.35 128.58 209.71 127.83 208.85 127.77 L 207.87 127.69 C 207.01 127.63 206.26 128.27 206.19 129.13 C 206.13 129.99 206.77 130.74 207.63 130.81 Z M 208.61 130.88 L 209.62 130.96 C 210.47 131.02 211.23 130.38 211.29 129.52 C 211.36 128.66 210.71 127.91 209.85 127.84 L 208.85 127.77 C 207.99 127.70 207.24 128.35 207.17 129.21 C 207.11 130.07 207.75 130.82 208.61 130.88 Z M 209.61 130.96 L 210.63 131.04 C 211.48 131.11 212.24 130.47 212.31 129.61 C 212.37 128.75 211.73 127.99 210.87 127.93 L 209.86 127.84 C 209.00 127.78 208.25 128.42 208.18 129.28 C 208.11 130.14 208.75 130.89 209.61 130.96 Z M 210.61 131.04 L 211.61 131.13 C 212.47 131.20 213.23 130.57 213.31 129.71 C 213.38 128.85 212.75 128.09 211.89 128.02 L 210.89 127.93 C 210.03 127.85 209.27 128.48 209.19 129.34 C 209.12 130.20 209.75 130.96 210.61 131.04 Z M 211.57 131.12 L 212.59 131.24 C 213.44 131.34 214.22 130.72 214.31 129.86 C 214.41 129.01 213.80 128.23 212.94 128.14 L 211.93 128.02 C 211.07 127.92 210.30 128.54 210.20 129.40 C 210.10 130.25 210.72 131.03 211.57 131.12 Z M 212.53 131.23 L 213.52 131.38 C 214.37 131.51 215.17 130.93 215.30 130.07 C 215.43 129.22 214.84 128.42 213.99 128.29 L 213.00 128.14 C 212.14 128.01 211.35 128.60 211.22 129.45 C 211.09 130.30 211.67 131.10 212.53 131.23 Z M 213.43 131.37 L 214.40 131.57 C 215.24 131.75 216.07 131.21 216.25 130.36 C 216.42 129.52 215.88 128.69 215.04 128.51 L 214.08 128.31 C 213.23 128.13 212.41 128.67 212.23 129.52 C 212.05 130.36 212.59 131.19 213.43 131.37 Z M 214.28 131.54 L 215.28 131.83 C 216.11 132.07 216.97 131.59 217.22 130.77 C 217.46 129.94 216.98 129.07 216.15 128.83 L 215.16 128.54 C 214.33 128.30 213.46 128.78 213.22 129.61 C 212.98 130.43 213.46 131.30 214.28 131.54 Z M 215.18 131.80 L 216.12 132.14 C 216.93 132.43 217.82 132.02 218.12 131.21 C 218.42 130.40 218.00 129.50 217.19 129.21 L 216.25 128.86 C 215.44 128.57 214.54 128.99 214.25 129.80 C 213.95 130.61 214.37 131.50 215.18 131.80 Z M 216.05 132.11 L 216.95 132.49 C 217.75 132.82 218.66 132.44 218.99 131.65 C 219.33 130.85 218.95 129.94 218.15 129.60 L 217.25 129.23 C 216.46 128.90 215.54 129.28 215.21 130.07 C 214.88 130.87 215.26 131.78 216.05 132.11 Z M 216.93 132.48 L 217.48 132.72 C 218.27 133.06 219.19 132.70 219.53 131.91 C 219.88 131.12 219.52 130.20 218.73 129.85 L 218.18 129.62 C 217.39 129.27 216.47 129.63 216.12 130.42 C 215.78 131.21 216.14 132.13 216.93 132.48 Z"
      fill="black"
      fill-rule="nonzero" /><path d="M 57.78 251.48 L 57.59 250.48 C 57.43 249.64 56.61 249.08 55.77 249.24 C 54.92 249.40 54.36 250.22 54.52 251.06 L 54.71 252.06 C 54.87 252.91 55.69 253.47 56.53 253.31 C 57.38 253.15 57.94 252.33 57.78 251.48 Z M 57.62 250.73 L 57.59 249.75 C 57.56 248.89 56.84 248.21 55.98 248.23 C 55.12 248.26 54.44 248.98 54.47 249.84 L 54.50 250.82 C 54.52 251.68 55.24 252.36 56.10 252.33 C 56.96 252.31 57.64 251.59 57.62 250.73 Z M 57.52 250.26 L 57.81 249.33 C 58.06 248.51 57.60 247.63 56.78 247.37 C 55.96 247.12 55.08 247.58 54.83 248.40 L 54.54 249.33 C 54.28 250.15 54.74 251.03 55.56 251.29 C 56.39 251.54 57.26 251.08 57.52 250.26 Z M 57.55 249.83 L 58.09 249.14 C 58.62 248.46 58.50 247.48 57.82 246.94 C 57.14 246.41 56.16 246.53 55.63 247.21 L 55.09 247.90 C 54.56 248.58 54.67 249.56 55.35 250.09 C 56.03 250.63 57.01 250.51 57.55 249.83 Z M 57.86 249.37 L 58.62 248.74 C 59.28 248.19 59.37 247.21 58.82 246.54 C 58.27 245.88 57.28 245.79 56.62 246.34 L 55.86 246.97 C 55.20 247.52 55.11 248.51 55.66 249.17 C 56.21 249.83 57.19 249.92 57.86 249.37 Z M 58.45 248.86 L 59.35 248.29 C 60.08 247.83 60.29 246.86 59.83 246.14 C 59.37 245.41 58.40 245.19 57.67 245.66 L 56.78 246.22 C 56.05 246.69 55.84 247.65 56.30 248.38 C 56.76 249.11 57.73 249.32 58.45 248.86 Z M 59.24 248.36 L 60.18 247.86 C 60.95 247.46 61.24 246.51 60.84 245.75 C 60.44 244.99 59.49 244.69 58.73 245.09 L 57.79 245.59 C 57.02 245.99 56.73 246.94 57.13 247.70 C 57.53 248.46 58.47 248.76 59.24 248.36 Z M 60.10 247.90 L 61.02 247.48 C 61.81 247.13 62.16 246.21 61.81 245.42 C 61.45 244.63 60.53 244.28 59.74 244.64 L 58.82 245.05 C 58.03 245.41 57.68 246.33 58.03 247.12 C 58.39 247.90 59.31 248.25 60.10 247.90 Z M 60.95 247.52 L 61.87 247.16 C 62.67 246.85 63.07 245.95 62.76 245.14 C 62.45 244.34 61.55 243.94 60.75 244.25 L 59.82 244.60 C 59.02 244.91 58.62 245.82 58.93 246.62 C 59.24 247.42 60.14 247.83 60.95 247.52 Z M 61.80 247.19 L 62.73 246.88 C 63.55 246.61 64.00 245.72 63.73 244.90 C 63.46 244.09 62.57 243.64 61.75 243.91 L 60.82 244.22 C 60.00 244.49 59.56 245.37 59.83 246.19 C 60.10 247.01 60.98 247.46 61.80 247.19 Z M 62.68 246.89 L 63.61 246.62 C 64.44 246.38 64.92 245.52 64.68 244.69 C 64.44 243.86 63.58 243.39 62.75 243.62 L 61.81 243.89 C 60.98 244.13 60.50 245.00 60.74 245.83 C 60.98 246.66 61.85 247.13 62.68 246.89 Z M 63.57 246.64 L 64.45 246.41 C 65.28 246.19 65.79 245.34 65.57 244.50 C 65.35 243.67 64.50 243.17 63.67 243.39 L 62.79 243.61 C 61.95 243.83 61.45 244.68 61.67 245.52 C 61.89 246.35 62.74 246.85 63.57 246.64 Z M 64.42 246.42 L 65.35 246.20 C 66.19 246.00 66.71 245.16 66.51 244.32 C 66.31 243.48 65.47 242.96 64.63 243.16 L 63.70 243.38 C 62.86 243.58 62.34 244.42 62.54 245.26 C 62.74 246.09 63.58 246.61 64.42 246.42 Z M 65.32 246.20 L 66.32 245.99 C 67.16 245.80 67.69 244.97 67.51 244.13 C 67.33 243.29 66.50 242.75 65.66 242.93 L 64.66 243.15 C 63.81 243.33 63.28 244.16 63.46 245.01 C 63.64 245.85 64.48 246.39 65.32 246.20 Z M 66.29 245.99 L 67.38 245.77 C 68.22 245.60 68.77 244.78 68.60 243.93 C 68.43 243.09 67.61 242.54 66.76 242.71 L 65.68 242.93 C 64.83 243.10 64.29 243.92 64.46 244.77 C 64.63 245.61 65.45 246.16 66.29 245.99 Z M 67.36 245.78 L 68.35 245.59 C 69.19 245.43 69.75 244.61 69.59 243.76 C 69.43 242.92 68.61 242.36 67.76 242.52 L 66.78 242.71 C 65.93 242.87 65.37 243.69 65.53 244.53 C 65.70 245.38 66.51 245.94 67.36 245.78 Z M 68.33 245.59 L 69.31 245.41 C 70.16 245.26 70.72 244.44 70.57 243.60 C 70.41 242.75 69.60 242.19 68.75 242.34 L 67.77 242.52 C 66.92 242.67 66.36 243.49 66.52 244.33 C 66.67 245.18 67.49 245.75 68.33 245.59 Z M 69.30 245.41 L 70.31 245.24 C 71.15 245.09 71.72 244.28 71.57 243.43 C 71.42 242.58 70.62 242.01 69.77 242.16 L 68.76 242.34 C 67.91 242.49 67.34 243.30 67.49 244.15 C 67.64 244.99 68.45 245.56 69.30 245.41 Z M 70.29 245.24 L 71.31 245.07 C 72.16 244.93 72.73 244.12 72.59 243.27 C 72.45 242.42 71.64 241.85 70.79 241.99 L 69.78 242.16 C 68.93 242.30 68.35 243.11 68.50 243.96 C 68.64 244.81 69.44 245.38 70.29 245.24 Z M 71.30 245.07 L 72.30 244.91 C 73.15 244.77 73.73 243.97 73.59 243.12 C 73.45 242.27 72.65 241.69 71.80 241.83 L 70.80 241.99 C 69.95 242.12 69.37 242.92 69.51 243.78 C 69.64 244.63 70.44 245.21 71.30 245.07 Z M 72.28 244.91 L 73.26 244.77 C 74.12 244.64 74.70 243.84 74.57 242.99 C 74.45 242.14 73.65 241.55 72.80 241.68 L 71.82 241.83 C 70.96 241.95 70.38 242.75 70.51 243.60 C 70.63 244.46 71.43 245.04 72.28 244.91 Z M 73.25 244.77 L 74.29 244.62 C 75.15 244.50 75.74 243.71 75.62 242.86 C 75.50 242.00 74.71 241.41 73.86 241.53 L 72.81 241.68 C 71.96 241.80 71.36 242.58 71.48 243.44 C 71.60 244.29 72.39 244.89 73.25 244.77 Z M 74.28 244.62 L 75.27 244.49 C 76.13 244.38 76.73 243.60 76.62 242.75 C 76.51 241.89 75.73 241.29 74.87 241.40 L 73.88 241.53 C 73.02 241.64 72.42 242.42 72.53 243.27 C 72.64 244.13 73.42 244.73 74.28 244.62 Z M 75.26 244.50 L 76.23 244.38 C 77.09 244.28 77.70 243.50 77.60 242.64 C 77.49 241.79 76.72 241.18 75.86 241.28 L 74.89 241.40 C 74.03 241.50 73.42 242.28 73.52 243.13 C 73.63 243.99 74.40 244.60 75.26 244.50 Z M 76.22 244.38 L 77.18 244.27 C 78.04 244.18 78.66 243.40 78.56 242.55 C 78.46 241.69 77.69 241.07 76.83 241.17 L 75.87 241.28 C 75.01 241.37 74.40 242.15 74.49 243.00 C 74.59 243.86 75.36 244.48 76.22 244.38 Z M 77.18 244.27 L 78.14 244.17 C 79.00 244.07 79.62 243.30 79.53 242.45 C 79.43 241.59 78.66 240.97 77.81 241.06 L 76.84 241.17 C 75.98 241.26 75.36 242.03 75.46 242.89 C 75.55 243.75 76.32 244.37 77.18 244.27 Z M 78.14 244.17 L 79.10 244.07 C 79.95 243.97 80.57 243.21 80.48 242.35 C 80.39 241.49 79.62 240.87 78.77 240.96 L 77.81 241.06 C 76.95 241.15 76.33 241.92 76.42 242.78 C 76.51 243.64 77.28 244.26 78.14 244.17 Z M 79.09 244.07 L 80.07 243.96 C 80.93 243.87 81.55 243.11 81.46 242.25 C 81.37 241.39 80.60 240.77 79.75 240.86 L 78.77 240.96 C 77.91 241.05 77.29 241.82 77.38 242.68 C 77.47 243.53 78.24 244.16 79.09 244.07 Z M 80.07 243.96 L 81.07 243.86 C 81.93 243.77 82.55 243.01 82.46 242.15 C 82.37 241.29 81.61 240.67 80.75 240.76 L 79.75 240.86 C 78.89 240.95 78.27 241.71 78.36 242.57 C 78.44 243.43 79.21 244.05 80.07 243.96 Z M 81.07 243.86 L 82.08 243.76 C 82.94 243.67 83.56 242.90 83.48 242.05 C 83.39 241.19 82.62 240.56 81.77 240.65 L 80.75 240.75 C 79.89 240.84 79.27 241.61 79.35 242.47 C 79.44 243.32 80.21 243.95 81.07 243.86 Z M 82.08 243.76 L 83.11 243.65 C 83.97 243.57 84.60 242.80 84.51 241.94 C 84.42 241.09 83.66 240.46 82.80 240.55 L 81.77 240.65 C 80.91 240.74 80.28 241.50 80.37 242.36 C 80.46 243.22 81.22 243.84 82.08 243.76 Z M 83.11 243.65 L 84.08 243.56 C 84.93 243.47 85.56 242.71 85.48 241.85 C 85.39 240.99 84.63 240.37 83.77 240.45 L 82.80 240.55 C 81.94 240.63 81.32 241.40 81.40 242.26 C 81.49 243.11 82.25 243.74 83.11 243.65 Z M 84.08 243.56 L 85.05 243.46 C 85.91 243.38 86.54 242.61 86.45 241.75 C 86.37 240.89 85.60 240.27 84.74 240.35 L 83.77 240.45 C 82.91 240.54 82.28 241.30 82.37 242.16 C 82.45 243.02 83.22 243.64 84.08 243.56 Z M 85.06 243.46 L 86.05 243.36 C 86.91 243.27 87.53 242.51 87.44 241.65 C 87.36 240.79 86.59 240.17 85.73 240.25 L 84.74 240.35 C 83.88 240.44 83.26 241.21 83.35 242.06 C 83.43 242.92 84.20 243.55 85.06 243.46 Z M 86.05 243.36 L 87.06 243.25 C 87.91 243.17 88.54 242.40 88.45 241.54 C 88.36 240.68 87.59 240.06 86.73 240.15 L 85.73 240.25 C 84.87 240.34 84.25 241.11 84.34 241.97 C 84.43 242.83 85.19 243.45 86.05 243.36 Z M 87.06 243.25 L 88.08 243.14 C 88.94 243.05 89.56 242.28 89.46 241.42 C 89.37 240.57 88.60 239.95 87.74 240.04 L 86.72 240.15 C 85.87 240.24 85.25 241.01 85.34 241.87 C 85.44 242.73 86.21 243.35 87.06 243.25 Z M 88.09 243.14 L 89.09 243.03 C 89.95 242.93 90.56 242.16 90.47 241.30 C 90.37 240.44 89.59 239.83 88.74 239.93 L 87.73 240.04 C 86.88 240.14 86.26 240.91 86.36 241.77 C 86.46 242.63 87.23 243.24 88.09 243.14 Z M 89.10 243.03 L 90.08 242.91 C 90.94 242.81 91.55 242.03 91.45 241.17 C 91.35 240.32 90.57 239.71 89.71 239.81 L 88.73 239.93 C 87.87 240.03 87.26 240.81 87.37 241.66 C 87.47 242.52 88.24 243.13 89.10 243.03 Z M 90.09 242.91 L 91.08 242.79 C 91.94 242.68 92.54 241.90 92.44 241.05 C 92.33 240.19 91.55 239.58 90.70 239.69 L 89.71 239.81 C 88.85 239.91 88.24 240.69 88.35 241.55 C 88.45 242.41 89.23 243.01 90.09 242.91 Z M 91.08 242.79 L 92.08 242.66 C 92.93 242.55 93.54 241.77 93.43 240.92 C 93.33 240.06 92.55 239.46 91.69 239.56 L 90.69 239.69 C 89.84 239.79 89.23 240.58 89.34 241.43 C 89.45 242.29 90.23 242.89 91.08 242.79 Z M 92.08 242.66 L 93.08 242.53 C 93.93 242.43 94.54 241.65 94.43 240.79 C 94.32 239.93 93.54 239.33 92.69 239.44 L 91.69 239.56 C 90.83 239.67 90.23 240.45 90.34 241.31 C 90.44 242.16 91.22 242.77 92.08 242.66 Z M 93.08 242.53 L 94.08 242.41 C 94.93 242.30 95.54 241.52 95.43 240.67 C 95.32 239.81 94.54 239.20 93.69 239.31 L 92.69 239.44 C 91.83 239.54 91.23 240.32 91.33 241.18 C 91.44 242.03 92.22 242.64 93.08 242.53 Z M 94.07 242.41 L 95.08 242.29 C 95.93 242.18 96.54 241.40 96.44 240.55 C 96.33 239.69 95.55 239.08 94.70 239.19 L 93.69 239.31 C 92.84 239.42 92.23 240.19 92.33 241.05 C 92.44 241.91 93.22 242.52 94.07 242.41 Z M 95.07 242.29 L 96.08 242.17 C 96.94 242.06 97.55 241.28 97.44 240.43 C 97.34 239.57 96.56 238.96 95.71 239.07 L 94.70 239.19 C 93.84 239.29 93.23 240.07 93.34 240.92 C 93.44 241.78 94.22 242.39 95.07 242.29 Z M 96.08 242.17 L 97.08 242.05 C 97.94 241.94 98.55 241.17 98.45 240.31 C 98.34 239.45 97.57 238.84 96.71 238.95 L 95.71 239.07 C 94.85 239.17 94.24 239.94 94.34 240.80 C 94.45 241.66 95.22 242.27 96.08 242.17 Z M 97.08 242.05 L 98.08 241.93 C 98.93 241.82 99.54 241.05 99.44 240.19 C 99.34 239.34 98.56 238.72 97.70 238.83 L 96.71 238.95 C 95.85 239.05 95.24 239.83 95.35 240.68 C 95.45 241.54 96.23 242.15 97.08 242.05 Z M 98.08 241.93 L 99.06 241.81 C 99.92 241.70 100.53 240.92 100.42 240.07 C 100.32 239.21 99.54 238.60 98.69 238.71 L 97.70 238.83 C 96.85 238.93 96.24 239.71 96.34 240.57 C 96.44 241.42 97.22 242.03 98.08 241.93 Z M 99.07 241.81 L 100.04 241.68 C 100.90 241.58 101.51 240.80 101.40 239.94 C 101.29 239.09 100.51 238.48 99.66 238.59 L 98.68 238.71 C 97.83 238.82 97.22 239.60 97.33 240.45 C 97.43 241.31 98.21 241.91 99.07 241.81 Z M 100.05 241.68 L 101.04 241.56 C 101.90 241.44 102.50 240.66 102.39 239.81 C 102.28 238.95 101.49 238.35 100.64 238.46 L 99.65 238.59 C 98.79 238.70 98.19 239.48 98.30 240.34 C 98.41 241.19 99.20 241.80 100.05 241.68 Z M 101.05 241.55 L 102.04 241.42 C 102.90 241.31 103.50 240.52 103.38 239.66 C 103.27 238.81 102.48 238.21 101.63 238.32 L 100.63 238.46 C 99.78 238.57 99.18 239.36 99.29 240.22 C 99.41 241.07 100.19 241.67 101.05 241.55 Z M 102.05 241.42 L 103.04 241.28 C 103.89 241.17 104.49 240.38 104.37 239.52 C 104.25 238.67 103.46 238.07 102.61 238.19 L 101.62 238.32 C 100.76 238.44 100.17 239.23 100.29 240.09 C 100.41 240.94 101.19 241.54 102.05 241.42 Z M 103.04 241.28 L 104.03 241.14 C 104.88 241.02 105.48 240.23 105.36 239.38 C 105.24 238.52 104.44 237.93 103.59 238.05 L 102.60 238.19 C 101.75 238.31 101.15 239.10 101.27 239.96 C 101.40 240.81 102.19 241.41 103.04 241.28 Z M 104.03 241.14 L 105.02 241.00 C 105.87 240.88 106.47 240.09 106.34 239.23 C 106.22 238.38 105.43 237.78 104.57 237.91 L 103.59 238.05 C 102.73 238.17 102.14 238.96 102.26 239.82 C 102.38 240.67 103.17 241.27 104.03 241.14 Z M 105.02 241.00 L 106.00 240.86 C 106.86 240.74 107.45 239.94 107.33 239.09 C 107.21 238.23 106.41 237.64 105.56 237.76 L 104.57 237.90 C 103.71 238.03 103.12 238.82 103.24 239.68 C 103.37 240.53 104.16 241.13 105.02 241.00 Z M 106.00 240.86 L 106.95 240.73 C 107.80 240.60 108.40 239.81 108.27 238.95 C 108.15 238.10 107.36 237.50 106.50 237.62 L 105.56 237.76 C 104.70 237.88 104.11 238.68 104.23 239.54 C 104.35 240.39 105.15 240.99 106.00 240.86 Z M 106.94 240.73 L 107.90 240.59 C 108.76 240.47 109.36 239.68 109.23 238.82 C 109.11 237.96 108.32 237.36 107.46 237.49 L 106.50 237.62 C 105.64 237.75 105.05 238.54 105.17 239.40 C 105.29 240.26 106.09 240.85 106.94 240.73 Z M 107.90 240.60 L 108.87 240.46 C 109.73 240.34 110.33 239.54 110.21 238.69 C 110.09 237.83 109.30 237.23 108.44 237.35 L 107.46 237.48 C 106.60 237.61 106.01 238.40 106.13 239.26 C 106.25 240.12 107.04 240.72 107.90 240.60 Z M 108.87 240.46 L 109.87 240.32 C 110.73 240.21 111.33 239.41 111.21 238.55 C 111.09 237.69 110.30 237.09 109.44 237.21 L 108.44 237.35 C 107.58 237.46 106.98 238.26 107.10 239.12 C 107.22 239.98 108.01 240.58 108.87 240.46 Z M 109.86 240.33 L 110.89 240.19 C 111.75 240.08 112.36 239.29 112.24 238.42 C 112.13 237.56 111.34 236.96 110.47 237.07 L 109.45 237.21 C 108.59 237.32 107.98 238.11 108.09 238.97 C 108.21 239.84 109.00 240.44 109.86 240.33 Z M 110.88 240.19 L 111.92 240.06 C 112.78 239.95 113.39 239.16 113.28 238.30 C 113.17 237.44 112.38 236.83 111.52 236.94 L 110.48 237.07 C 109.62 237.18 109.01 237.97 109.12 238.83 C 109.23 239.69 110.02 240.30 110.88 240.19 Z M 111.91 240.06 L 112.85 239.95 C 113.71 239.84 114.33 239.05 114.22 238.19 C 114.11 237.33 113.33 236.71 112.46 236.82 L 111.52 236.93 C 110.66 237.04 110.05 237.83 110.15 238.69 C 110.26 239.56 111.05 240.17 111.91 240.06 Z M 112.84 239.95 L 113.80 239.84 C 114.67 239.73 115.29 238.95 115.18 238.08 C 115.08 237.22 114.30 236.60 113.43 236.70 L 112.47 236.82 C 111.60 236.92 110.98 237.70 111.09 238.57 C 111.19 239.44 111.98 240.05 112.84 239.95 Z M 113.80 239.84 L 114.78 239.72 C 115.65 239.62 116.27 238.84 116.17 237.97 C 116.07 237.11 115.29 236.49 114.42 236.59 L 113.44 236.70 C 112.57 236.80 111.95 237.58 112.05 238.45 C 112.15 239.32 112.93 239.94 113.80 239.84 Z M 114.78 239.73 L 115.78 239.61 C 116.65 239.52 117.27 238.74 117.18 237.87 C 117.08 237.00 116.30 236.37 115.43 236.47 L 114.43 236.58 C 113.56 236.68 112.93 237.46 113.03 238.33 C 113.13 239.20 113.91 239.82 114.78 239.73 Z M 115.78 239.62 L 116.79 239.51 C 117.66 239.41 118.29 238.63 118.20 237.76 C 118.10 236.89 117.32 236.26 116.45 236.36 L 115.44 236.47 C 114.57 236.56 113.94 237.34 114.03 238.21 C 114.12 239.08 114.91 239.71 115.78 239.62 Z M 116.79 239.51 L 117.82 239.40 C 118.69 239.31 119.32 238.53 119.23 237.66 C 119.14 236.79 118.36 236.16 117.49 236.25 L 116.46 236.36 C 115.59 236.45 114.96 237.23 115.05 238.10 C 115.14 238.97 115.92 239.60 116.79 239.51 Z M 117.82 239.40 L 118.84 239.30 C 119.71 239.21 120.35 238.43 120.26 237.56 C 120.17 236.69 119.39 236.05 118.52 236.14 L 117.50 236.25 C 116.62 236.33 115.99 237.11 116.08 237.98 C 116.17 238.86 116.94 239.49 117.82 239.40 Z M 118.84 239.30 L 119.82 239.20 C 120.69 239.12 121.33 238.34 121.24 237.47 C 121.15 236.60 120.38 235.96 119.51 236.04 L 118.52 236.14 C 117.65 236.23 117.02 237.00 117.10 237.88 C 117.19 238.75 117.96 239.39 118.84 239.30 Z M 119.81 239.20 L 120.80 239.11 C 121.67 239.02 122.31 238.25 122.23 237.38 C 122.14 236.50 121.37 235.87 120.49 235.95 L 119.51 236.05 C 118.64 236.13 118.00 236.91 118.08 237.78 C 118.17 238.65 118.94 239.29 119.81 239.20 Z M 120.80 239.11 L 121.79 239.01 C 122.66 238.93 123.30 238.15 123.22 237.28 C 123.13 236.41 122.36 235.77 121.49 235.86 L 120.50 235.95 C 119.62 236.03 118.98 236.81 119.07 237.68 C 119.15 238.55 119.93 239.19 120.80 239.11 Z M 121.79 239.01 L 122.79 238.92 C 123.66 238.83 124.30 238.06 124.21 237.19 C 124.13 236.31 123.35 235.68 122.48 235.76 L 121.49 235.86 C 120.62 235.94 119.98 236.71 120.06 237.59 C 120.15 238.46 120.92 239.10 121.79 239.01 Z M 122.79 238.91 L 123.79 238.82 C 124.66 238.73 125.30 237.96 125.21 237.09 C 125.13 236.21 124.35 235.58 123.48 235.66 L 122.48 235.76 C 121.61 235.85 120.97 236.62 121.06 237.49 C 121.14 238.36 121.92 239.00 122.79 238.91 Z M 123.79 238.82 L 124.80 238.72 C 125.67 238.63 126.30 237.85 126.22 236.98 C 126.13 236.11 125.35 235.48 124.48 235.56 L 123.48 235.66 C 122.61 235.75 121.97 236.53 122.06 237.40 C 122.15 238.27 122.92 238.90 123.79 238.82 Z M 124.80 238.71 L 125.81 238.61 C 126.68 238.52 127.31 237.74 127.22 236.87 C 127.13 236.00 126.36 235.37 125.49 235.46 L 124.48 235.56 C 123.61 235.65 122.98 236.43 123.07 237.30 C 123.16 238.17 123.93 238.80 124.80 238.71 Z M 125.82 238.61 L 126.82 238.50 C 127.69 238.41 128.31 237.63 128.22 236.76 C 128.13 235.89 127.35 235.26 126.48 235.35 L 125.48 235.46 C 124.61 235.55 123.98 236.33 124.08 237.20 C 124.17 238.07 124.95 238.70 125.82 238.61 Z M 126.82 238.50 L 127.82 238.39 C 128.69 238.30 129.32 237.51 129.22 236.64 C 129.12 235.77 128.34 235.15 127.47 235.24 L 126.47 235.35 C 125.60 235.45 124.98 236.23 125.07 237.10 C 125.17 237.97 125.95 238.60 126.82 238.50 Z M 127.82 238.39 L 128.82 238.28 C 129.69 238.18 130.32 237.40 130.22 236.53 C 130.12 235.66 129.33 235.03 128.46 235.13 L 127.47 235.24 C 126.60 235.34 125.97 236.13 126.07 237.00 C 126.17 237.87 126.95 238.49 127.82 238.39 Z M 128.82 238.28 L 129.82 238.16 C 130.69 238.06 131.31 237.28 131.21 236.41 C 131.11 235.54 130.33 234.92 129.46 235.02 L 128.46 235.13 C 127.59 235.23 126.97 236.02 127.07 236.89 C 127.17 237.76 127.96 238.38 128.82 238.28 Z M 129.82 238.16 L 130.82 238.05 C 131.69 237.95 132.31 237.16 132.21 236.29 C 132.11 235.42 131.32 234.80 130.45 234.90 L 129.46 235.02 C 128.59 235.12 127.96 235.90 128.06 236.77 C 128.17 237.64 128.95 238.27 129.82 238.16 Z M 130.82 238.05 L 131.81 237.93 C 132.68 237.83 133.30 237.04 133.20 236.17 C 133.10 235.30 132.31 234.68 131.44 234.78 L 130.45 234.90 C 129.58 235.00 128.96 235.79 129.06 236.66 C 129.16 237.53 129.95 238.15 130.82 238.05 Z M 131.81 237.93 L 132.80 237.82 C 133.67 237.72 134.29 236.93 134.19 236.06 C 134.09 235.19 133.30 234.56 132.43 234.67 L 131.44 234.78 C 130.57 234.88 129.95 235.67 130.05 236.54 C 130.15 237.41 130.94 238.04 131.81 237.93 Z M 132.80 237.82 L 133.80 237.70 C 134.67 237.60 135.30 236.81 135.20 235.94 C 135.10 235.07 134.31 234.45 133.44 234.55 L 132.43 234.67 C 131.56 234.77 130.94 235.55 131.04 236.42 C 131.14 237.30 131.93 237.92 132.80 237.82 Z M 133.80 237.70 L 134.84 237.58 C 135.71 237.48 136.34 236.70 136.24 235.82 C 136.14 234.95 135.35 234.33 134.48 234.43 L 133.44 234.55 C 132.57 234.65 131.94 235.43 132.04 236.31 C 132.14 237.18 132.93 237.80 133.80 237.70 Z M 134.84 237.58 L 135.87 237.47 C 136.74 237.37 137.37 236.58 137.27 235.71 C 137.17 234.84 136.38 234.21 135.51 234.31 L 134.48 234.43 C 133.61 234.53 132.98 235.31 133.08 236.18 C 133.18 237.06 133.97 237.68 134.84 237.58 Z M 135.87 237.47 L 136.88 237.35 C 137.75 237.25 138.38 236.47 138.28 235.60 C 138.18 234.72 137.40 234.10 136.53 234.20 L 135.51 234.31 C 134.64 234.41 134.01 235.20 134.11 236.07 C 134.21 236.94 135.00 237.57 135.87 237.47 Z M 136.88 237.35 L 137.88 237.24 C 138.75 237.14 139.37 236.36 139.28 235.48 C 139.18 234.61 138.39 233.99 137.52 234.08 L 136.53 234.20 C 135.65 234.29 135.03 235.08 135.13 235.95 C 135.22 236.82 136.01 237.45 136.88 237.35 Z M 137.88 237.24 L 138.85 237.13 C 139.72 237.03 140.35 236.24 140.25 235.37 C 140.15 234.50 139.36 233.88 138.49 233.97 L 137.52 234.08 C 136.65 234.18 136.02 234.97 136.12 235.84 C 136.22 236.71 137.01 237.34 137.88 237.24 Z M 138.85 237.13 L 139.79 237.02 C 140.66 236.92 141.29 236.14 141.19 235.26 C 141.09 234.39 140.30 233.77 139.43 233.87 L 138.49 233.97 C 137.62 234.07 136.99 234.86 137.09 235.73 C 137.19 236.60 137.98 237.23 138.85 237.13 Z M 139.79 237.02 L 140.76 236.91 C 141.64 236.81 142.26 236.02 142.16 235.15 C 142.06 234.28 141.27 233.65 140.40 233.75 L 139.43 233.87 C 138.56 233.97 137.93 234.76 138.03 235.63 C 138.13 236.50 138.92 237.12 139.79 237.02 Z M 140.77 236.91 L 141.81 236.79 C 142.68 236.68 143.31 235.89 143.20 235.02 C 143.10 234.15 142.31 233.53 141.44 233.63 L 140.40 233.75 C 139.53 233.86 138.90 234.65 139.00 235.52 C 139.11 236.39 139.90 237.01 140.77 236.91 Z M 141.81 236.79 L 142.82 236.67 C 143.69 236.56 144.32 235.77 144.21 234.90 C 144.11 234.03 143.32 233.41 142.45 233.51 L 141.44 233.63 C 140.57 233.73 139.95 234.52 140.05 235.40 C 140.15 236.27 140.94 236.89 141.81 236.79 Z M 142.82 236.67 L 143.81 236.55 C 144.68 236.45 145.30 235.66 145.20 234.79 C 145.09 233.92 144.31 233.29 143.43 233.40 L 142.45 233.51 C 141.58 233.61 140.96 234.40 141.06 235.28 C 141.16 236.15 141.95 236.77 142.82 236.67 Z M 143.80 236.55 L 144.77 236.44 C 145.64 236.34 146.26 235.55 146.16 234.68 C 146.06 233.81 145.27 233.18 144.40 233.28 L 143.44 233.40 C 142.57 233.50 141.94 234.28 142.04 235.16 C 142.14 236.03 142.93 236.65 143.80 236.55 Z M 144.76 236.44 L 145.72 236.33 C 146.59 236.24 147.22 235.45 147.12 234.58 C 147.02 233.71 146.24 233.08 145.37 233.18 L 144.41 233.28 C 143.54 233.38 142.91 234.17 143.01 235.04 C 143.10 235.91 143.89 236.54 144.76 236.44 Z M 145.71 236.34 L 146.68 236.23 C 147.55 236.14 148.18 235.36 148.09 234.48 C 148.00 233.61 147.22 232.98 146.34 233.07 L 145.37 233.18 C 144.50 233.27 143.87 234.05 143.96 234.92 C 144.06 235.80 144.84 236.43 145.71 236.34 Z M 146.67 236.23 L 147.66 236.13 C 148.53 236.04 149.17 235.27 149.08 234.39 C 149.00 233.52 148.22 232.89 147.34 232.97 L 146.35 233.07 C 145.48 233.16 144.85 233.94 144.93 234.81 C 145.02 235.68 145.80 236.32 146.67 236.23 Z M 147.65 236.13 L 148.65 236.04 C 149.52 235.95 150.16 235.18 150.08 234.31 C 149.99 233.43 149.22 232.80 148.35 232.88 L 147.35 232.97 C 146.48 233.06 145.84 233.83 145.92 234.70 C 146.01 235.58 146.78 236.22 147.65 236.13 Z M 148.64 236.04 L 149.64 235.95 C 150.51 235.87 151.15 235.10 151.08 234.22 C 151.00 233.35 150.23 232.71 149.35 232.79 L 148.36 232.88 C 147.48 232.96 146.84 233.73 146.92 234.60 C 147.00 235.47 147.77 236.12 148.64 236.04 Z M 149.63 235.95 L 150.63 235.86 C 151.50 235.78 152.15 235.02 152.07 234.14 C 152.00 233.27 151.23 232.63 150.36 232.70 L 149.36 232.79 C 148.49 232.86 147.84 233.63 147.92 234.50 C 147.99 235.38 148.76 236.02 149.63 235.95 Z M 150.63 235.86 L 151.63 235.78 C 152.50 235.70 153.15 234.94 153.07 234.07 C 153.00 233.20 152.24 232.55 151.36 232.62 L 150.36 232.70 C 149.49 232.77 148.84 233.54 148.92 234.41 C 148.99 235.28 149.75 235.93 150.63 235.86 Z M 151.62 235.78 L 152.62 235.70 C 153.49 235.63 154.14 234.87 154.07 233.99 C 154.00 233.12 153.24 232.47 152.37 232.54 L 151.37 232.62 C 150.50 232.69 149.85 233.45 149.92 234.32 C 149.99 235.20 150.75 235.85 151.62 235.78 Z M 152.61 235.70 L 153.61 235.62 C 154.48 235.55 155.14 234.79 155.07 233.92 C 155.00 233.05 154.24 232.40 153.37 232.46 L 152.37 232.54 C 151.50 232.61 150.85 233.37 150.92 234.24 C 150.98 235.11 151.74 235.76 152.61 235.70 Z M 153.61 235.62 L 154.60 235.55 C 155.48 235.49 156.13 234.73 156.07 233.86 C 156.01 232.98 155.25 232.33 154.37 232.39 L 153.38 232.46 C 152.51 232.53 151.85 233.29 151.91 234.16 C 151.98 235.03 152.73 235.69 153.61 235.62 Z M 154.60 235.55 L 155.60 235.48 C 156.47 235.42 157.13 234.66 157.07 233.79 C 157.01 232.92 156.25 232.26 155.38 232.32 L 154.38 232.39 C 153.51 232.45 152.85 233.21 152.91 234.08 C 152.97 234.95 153.73 235.61 154.60 235.55 Z M 155.59 235.48 L 156.59 235.42 C 157.46 235.36 158.12 234.61 158.06 233.73 C 158.01 232.86 157.25 232.20 156.38 232.26 L 155.38 232.32 C 154.51 232.38 153.85 233.13 153.91 234.00 C 153.96 234.88 154.72 235.54 155.59 235.48 Z M 156.58 235.42 L 157.57 235.36 C 158.45 235.30 159.11 234.55 159.06 233.68 C 159.01 232.81 158.26 232.14 157.38 232.20 L 156.39 232.26 C 155.52 232.31 154.85 233.06 154.90 233.93 C 154.96 234.80 155.71 235.47 156.58 235.42 Z M 157.57 235.36 L 158.54 235.30 C 159.42 235.25 160.08 234.51 160.04 233.63 C 159.99 232.76 159.24 232.09 158.37 232.14 L 157.39 232.20 C 156.52 232.25 155.85 232.99 155.90 233.86 C 155.95 234.74 156.69 235.40 157.57 235.36 Z M 158.54 235.30 L 159.52 235.25 C 160.39 235.21 161.06 234.47 161.02 233.59 C 160.97 232.72 160.23 232.05 159.36 232.10 L 158.38 232.14 C 157.51 232.19 156.83 232.93 156.88 233.80 C 156.92 234.67 157.66 235.34 158.54 235.30 Z M 159.51 235.25 L 160.50 235.21 C 161.37 235.17 162.04 234.43 162.00 233.56 C 161.97 232.69 161.23 232.01 160.36 232.05 L 159.37 232.10 C 158.50 232.13 157.82 232.87 157.86 233.74 C 157.90 234.61 158.64 235.29 159.51 235.25 Z M 160.49 235.21 L 161.49 235.17 C 162.36 235.14 163.04 234.40 163.00 233.53 C 162.97 232.66 162.24 231.98 161.37 232.02 L 160.37 232.05 C 159.50 232.09 158.82 232.82 158.85 233.69 C 158.88 234.56 159.62 235.24 160.49 235.21 Z M 161.48 235.17 L 162.49 235.14 C 163.36 235.11 164.05 234.38 164.02 233.51 C 164.00 232.64 163.27 231.96 162.40 231.99 L 161.38 232.02 C 160.51 232.04 159.83 232.77 159.85 233.64 C 159.88 234.51 160.61 235.19 161.48 235.17 Z M 162.48 235.13 L 163.51 235.11 C 164.38 235.09 165.07 234.37 165.05 233.50 C 165.03 232.63 164.31 231.94 163.44 231.96 L 162.41 231.99 C 161.54 232.01 160.85 232.73 160.87 233.60 C 160.89 234.47 161.61 235.15 162.48 235.13 Z M 163.50 235.11 L 164.50 235.09 C 165.37 235.08 166.06 234.36 166.05 233.50 C 166.03 232.63 165.32 231.93 164.45 231.95 L 163.45 231.96 C 162.58 231.98 161.89 232.69 161.90 233.56 C 161.91 234.43 162.63 235.12 163.50 235.11 Z M 164.49 235.09 L 165.50 235.08 C 166.37 235.07 167.07 234.36 167.06 233.49 C 167.05 232.63 166.34 231.93 165.47 231.94 L 164.46 231.95 C 163.59 231.96 162.89 232.67 162.90 233.54 C 162.91 234.41 163.62 235.10 164.49 235.09 Z M 165.50 235.08 L 166.51 235.08 C 167.38 235.07 168.08 234.36 168.07 233.49 C 168.07 232.63 167.36 231.93 166.49 231.93 L 165.48 231.94 C 164.61 231.94 163.91 232.65 163.91 233.52 C 163.92 234.39 164.63 235.09 165.50 235.08 Z M 166.50 235.08 L 167.51 235.07 C 168.38 235.07 169.08 234.36 169.08 233.50 C 169.08 232.63 168.37 231.93 167.50 231.93 L 166.49 231.93 C 165.63 231.93 164.92 232.64 164.93 233.51 C 164.93 234.38 165.64 235.08 166.50 235.08 Z M 167.51 235.07 L 168.50 235.07 C 169.37 235.07 170.07 234.37 170.07 233.50 C 170.07 232.63 169.37 231.93 168.50 231.93 L 167.51 231.93 C 166.64 231.93 165.93 232.63 165.94 233.50 C 165.94 234.37 166.64 235.07 167.51 235.07 Z M 168.50 235.07 L 169.48 235.07 C 170.35 235.07 171.05 234.37 171.05 233.50 C 171.05 232.63 170.35 231.93 169.48 231.93 L 168.50 231.93 C 167.63 231.93 166.93 232.63 166.93 233.50 C 166.93 234.37 167.63 235.07 168.50 235.07 Z M 169.48 235.07 L 170.53 235.07 C 171.40 235.07 172.10 234.37 172.10 233.50 C 172.10 232.63 171.40 231.93 170.53 231.93 L 169.48 231.93 C 168.61 231.93 167.91 232.63 167.91 233.50 C 167.91 234.37 168.61 235.07 169.48 235.07 Z M 170.53 235.07 L 171.55 235.07 C 172.42 235.07 173.12 234.37 173.12 233.50 C 173.12 232.63 172.42 231.93 171.55 231.93 L 170.53 231.93 C 169.66 231.93 168.96 232.63 168.96 233.50 C 168.96 234.37 169.66 235.07 170.53 235.07 Z M 171.55 235.07 L 172.55 235.07 C 173.41 235.07 174.11 234.36 174.11 233.50 C 174.11 232.63 173.41 231.93 172.55 231.93 L 171.55 231.93 C 170.69 231.93 169.98 232.63 169.98 233.50 C 169.98 234.36 170.69 235.07 171.55 235.07 Z M 172.55 235.06 L 173.52 235.06 C 174.39 235.06 175.09 234.36 175.09 233.50 C 175.09 232.64 174.39 231.93 173.52 231.93 L 172.55 231.93 C 171.68 231.93 170.98 232.64 170.98 233.50 C 170.98 234.36 171.68 235.06 172.55 235.06 Z M 173.52 235.06 L 174.49 235.06 C 175.35 235.06 176.05 234.36 176.05 233.50 C 176.05 232.64 175.35 231.94 174.49 231.94 L 173.52 231.94 C 172.66 231.94 171.96 232.64 171.96 233.50 C 171.96 234.36 172.66 235.06 173.52 235.06 Z M 174.49 235.06 L 175.48 235.06 C 176.34 235.06 177.04 234.36 177.04 233.50 C 177.04 232.64 176.34 231.94 175.48 231.94 L 174.49 231.94 C 173.63 231.94 172.93 232.64 172.93 233.50 C 172.93 234.36 173.63 235.06 174.49 235.06 Z M 175.48 235.06 L 176.49 235.06 C 177.36 235.06 178.05 234.36 178.05 233.50 C 178.05 232.64 177.36 231.94 176.49 231.94 L 175.48 231.94 C 174.62 231.94 173.92 232.64 173.92 233.50 C 173.92 234.36 174.62 235.06 175.48 235.06 Z M 176.49 235.06 L 177.50 235.06 C 178.36 235.06 179.06 234.36 179.06 233.50 C 179.06 232.64 178.36 231.94 177.50 231.94 L 176.49 231.94 C 175.63 231.94 174.93 232.64 174.93 233.50 C 174.93 234.36 175.63 235.06 176.49 235.06 Z M 177.50 235.06 L 178.50 235.06 C 179.36 235.06 180.06 234.36 180.06 233.50 C 180.06 232.64 179.36 231.94 178.50 231.94 L 177.50 231.94 C 176.64 231.94 175.94 232.64 175.94 233.50 C 175.94 234.36 176.64 235.06 177.50 235.06 Z M 178.50 235.06 L 179.49 235.06 C 180.35 235.06 181.05 234.36 181.05 233.50 C 181.05 232.64 180.35 231.94 179.49 231.94 L 178.50 231.94 C 177.64 231.94 176.94 232.64 176.94 233.50 C 176.94 234.36 177.64 235.06 178.50 235.06 Z M 179.49 235.06 L 180.50 235.06 C 181.36 235.06 182.06 234.36 182.06 233.50 C 182.06 232.64 181.36 231.94 180.50 231.94 L 179.49 231.94 C 178.63 231.94 177.93 232.64 177.93 233.50 C 177.93 234.36 178.63 235.06 179.49 235.06 Z M 180.50 235.06 L 181.55 235.06 C 182.41 235.06 183.11 234.36 183.11 233.50 C 183.11 232.64 182.41 231.94 181.55 231.94 L 180.50 231.94 C 179.63 231.94 178.94 232.64 178.94 233.50 C 178.94 234.36 179.63 235.06 180.50 235.06 Z M 181.55 235.06 L 182.57 235.06 C 183.44 235.06 184.14 234.36 184.14 233.50 C 184.14 232.64 183.44 231.94 182.57 231.94 L 181.55 231.94 C 180.69 231.94 179.99 232.64 179.99 233.50 C 179.99 234.36 180.69 235.06 181.55 235.06 Z M 182.57 235.06 L 183.57 235.06 C 184.43 235.06 185.13 234.36 185.13 233.50 C 185.13 232.64 184.43 231.94 183.57 231.94 L 182.57 231.94 C 181.71 231.94 181.01 232.64 181.01 233.50 C 181.01 234.36 181.71 235.06 182.57 235.06 Z M 183.57 235.06 L 184.51 235.06 C 185.38 235.06 186.07 234.36 186.07 233.50 C 186.07 232.64 185.38 231.94 184.51 231.94 L 183.57 231.94 C 182.70 231.94 182.00 232.64 182.00 233.50 C 182.00 234.36 182.70 235.06 183.57 235.06 Z M 184.51 235.06 L 185.53 235.06 C 186.39 235.06 187.09 234.36 187.09 233.50 C 187.09 232.64 186.39 231.94 185.53 231.94 L 184.51 231.94 C 183.65 231.94 182.95 232.64 182.95 233.50 C 182.95 234.36 183.65 235.06 184.51 235.06 Z M 185.53 235.06 L 186.57 235.06 C 187.43 235.06 188.13 234.37 188.14 233.50 C 188.14 232.64 187.44 231.94 186.58 231.94 L 185.53 231.94 C 184.67 231.94 183.97 232.64 183.97 233.50 C 183.97 234.36 184.67 235.06 185.53 235.06 Z M 186.57 235.06 L 187.55 235.07 C 188.41 235.07 189.11 234.38 189.12 233.51 C 189.12 232.65 188.43 231.95 187.57 231.94 L 186.58 231.94 C 185.72 231.94 185.02 232.63 185.01 233.49 C 185.01 234.36 185.70 235.06 186.57 235.06 Z M 187.54 235.07 L 188.48 235.08 C 189.34 235.09 190.05 234.40 190.06 233.53 C 190.07 232.67 189.38 231.97 188.51 231.96 L 187.58 231.94 C 186.71 231.94 186.01 232.63 186.00 233.49 C 185.99 234.35 186.68 235.06 187.54 235.07 Z M 188.46 235.08 L 189.44 235.10 C 190.30 235.12 191.01 234.43 191.03 233.57 C 191.05 232.71 190.36 231.99 189.50 231.98 L 188.53 231.96 C 187.67 231.94 186.95 232.62 186.94 233.48 C 186.92 234.35 187.60 235.06 188.46 235.08 Z M 189.42 235.10 L 190.41 235.13 C 191.27 235.16 191.99 234.48 192.02 233.62 C 192.04 232.76 191.37 232.03 190.50 232.01 L 189.52 231.98 C 188.66 231.95 187.94 232.63 187.91 233.49 C 187.88 234.35 188.56 235.07 189.42 235.10 Z M 190.39 235.13 L 191.39 235.17 C 192.25 235.21 192.98 234.54 193.01 233.67 C 193.05 232.81 192.38 232.09 191.52 232.05 L 190.52 232.01 C 189.66 231.97 188.93 232.64 188.90 233.50 C 188.86 234.36 189.53 235.09 190.39 235.13 Z M 191.37 235.17 L 192.39 235.22 C 193.25 235.26 193.98 234.60 194.03 233.74 C 194.07 232.88 193.41 232.14 192.55 232.10 L 191.53 232.05 C 190.67 232.01 189.94 232.67 189.89 233.53 C 189.85 234.39 190.51 235.13 191.37 235.17 Z M 192.38 235.22 L 193.38 235.28 C 194.24 235.32 194.98 234.67 195.03 233.80 C 195.08 232.94 194.42 232.21 193.56 232.16 L 192.56 232.10 C 191.69 232.05 190.96 232.71 190.91 233.57 C 190.86 234.43 191.52 235.17 192.38 235.22 Z M 193.38 235.28 L 194.39 235.33 C 195.25 235.39 195.99 234.73 196.04 233.87 C 196.09 233.01 195.44 232.27 194.57 232.22 L 193.56 232.16 C 192.70 232.11 191.96 232.76 191.91 233.63 C 191.86 234.49 192.52 235.23 193.38 235.28 Z M 194.39 235.33 L 195.39 235.39 C 196.25 235.44 196.99 234.78 197.04 233.92 C 197.09 233.06 196.43 232.32 195.57 232.28 L 194.57 232.22 C 193.71 232.17 192.97 232.83 192.92 233.69 C 192.87 234.55 193.53 235.29 194.39 235.33 Z M 195.40 235.39 L 196.41 235.45 C 197.27 235.49 198.01 234.83 198.05 233.97 C 198.10 233.11 197.44 232.37 196.58 232.33 L 195.56 232.27 C 194.70 232.23 193.97 232.89 193.92 233.75 C 193.88 234.61 194.54 235.35 195.40 235.39 Z M 196.42 235.45 L 197.43 235.50 C 198.29 235.54 199.03 234.87 199.07 234.01 C 199.11 233.15 198.44 232.42 197.58 232.38 L 196.57 232.33 C 195.71 232.29 194.98 232.95 194.93 233.81 C 194.89 234.68 195.56 235.41 196.42 235.45 Z M 197.44 235.50 L 198.42 235.54 C 199.28 235.58 200.01 234.91 200.05 234.05 C 200.08 233.19 199.42 232.46 198.55 232.42 L 197.58 232.38 C 196.71 232.34 195.98 233.01 195.95 233.87 C 195.91 234.73 196.58 235.46 197.44 235.50 Z M 198.42 235.54 L 199.39 235.58 C 200.25 235.62 200.98 234.95 201.02 234.09 C 201.06 233.23 200.39 232.50 199.53 232.46 L 198.55 232.42 C 197.69 232.38 196.96 233.05 196.93 233.91 C 196.89 234.77 197.56 235.50 198.42 235.54 Z M 199.39 235.58 L 200.38 235.62 C 201.24 235.66 201.97 234.99 202.00 234.13 C 202.04 233.27 201.37 232.54 200.51 232.50 L 199.53 232.46 C 198.66 232.42 197.94 233.09 197.90 233.95 C 197.86 234.81 198.53 235.54 199.39 235.58 Z M 200.38 235.62 L 201.38 235.66 C 202.25 235.70 202.97 235.02 203.00 234.16 C 203.04 233.30 202.37 232.58 201.51 232.54 L 200.51 232.50 C 199.64 232.47 198.92 233.14 198.89 234.00 C 198.85 234.86 199.52 235.59 200.38 235.62 Z M 201.40 235.66 L 202.41 235.69 C 203.27 235.72 203.99 235.04 204.02 234.18 C 204.04 233.32 203.37 232.60 202.50 232.57 L 201.49 232.54 C 200.63 232.52 199.91 233.19 199.88 234.05 C 199.86 234.92 200.54 235.64 201.40 235.66 Z M 202.43 235.69 L 203.43 235.71 C 204.29 235.73 205.00 235.04 205.01 234.18 C 205.03 233.32 204.34 232.61 203.48 232.59 L 202.49 232.57 C 201.62 232.56 200.91 233.24 200.90 234.10 C 200.88 234.97 201.57 235.68 202.43 235.69 Z M 203.44 235.71 L 204.44 235.72 C 205.30 235.73 206.01 235.03 206.01 234.17 C 206.02 233.31 205.33 232.60 204.47 232.60 L 203.47 232.59 C 202.60 232.58 201.90 233.28 201.89 234.14 C 201.89 235.00 202.58 235.70 203.44 235.71 Z M 204.45 235.72 L 205.45 235.72 C 206.32 235.72 207.02 235.03 207.02 234.16 C 207.02 233.30 206.32 232.60 205.46 232.60 L 204.46 232.60 C 203.59 232.60 202.89 233.29 202.89 234.16 C 202.89 235.02 203.59 235.72 204.45 235.72 Z M 205.46 235.72 L 206.46 235.72 C 207.32 235.72 208.02 235.02 208.02 234.16 C 208.02 233.30 207.32 232.60 206.46 232.60 L 205.46 232.60 C 204.60 232.60 203.90 233.30 203.90 234.16 C 203.90 235.02 204.60 235.72 205.46 235.72 Z M 206.46 235.72 L 207.46 235.72 C 208.32 235.72 209.02 235.02 209.02 234.16 C 209.02 233.30 208.32 232.60 207.46 232.60 L 206.46 232.60 C 205.60 232.60 204.90 233.30 204.90 234.16 C 204.90 235.02 205.60 235.72 206.46 235.72 Z M 207.46 235.72 L 208.46 235.72 C 209.32 235.72 210.02 235.02 210.02 234.16 C 210.02 233.30 209.32 232.60 208.46 232.60 L 207.46 232.60 C 206.60 232.60 205.90 233.30 205.90 234.16 C 205.90 235.02 206.60 235.72 207.46 235.72 Z M 208.46 235.72 L 209.46 235.72 C 210.32 235.72 211.02 235.02 211.02 234.16 C 211.02 233.30 210.32 232.60 209.46 232.60 L 208.46 232.60 C 207.60 232.60 206.90 233.30 206.90 234.16 C 206.90 235.02 207.60 235.72 208.46 235.72 Z M 209.46 235.72 L 210.47 235.72 C 211.33 235.72 212.03 235.02 212.03 234.16 C 212.03 233.30 211.33 232.60 210.47 232.60 L 209.46 232.60 C 208.60 232.60 207.90 233.30 207.90 234.16 C 207.90 235.02 208.60 235.72 209.46 235.72 Z M 210.47 235.72 L 211.48 235.72 C 212.34 235.72 213.04 235.02 213.04 234.16 C 213.04 233.30 212.34 232.60 211.48 232.60 L 210.47 232.60 C 209.61 232.60 208.91 233.30 208.91 234.16 C 208.91 235.02 209.61 235.72 210.47 235.72 Z M 211.48 235.72 L 212.47 235.72 C 213.33 235.72 214.03 235.02 214.03 234.16 C 214.03 233.30 213.33 232.60 212.47 232.60 L 211.48 232.60 C 210.61 232.60 209.92 233.30 209.92 234.16 C 209.92 235.02 210.61 235.72 211.48 235.72 Z M 212.47 235.72 L 213.42 235.72 C 214.28 235.72 214.98 235.02 214.98 234.16 C 214.98 233.30 214.28 232.60 213.42 232.60 L 212.47 232.60 C 211.61 232.60 210.91 233.30 210.91 234.16 C 210.91 235.02 211.61 235.72 212.47 235.72 Z M 213.42 235.72 L 214.36 235.72 C 215.22 235.72 215.92 235.02 215.92 234.16 C 215.92 233.30 215.22 232.60 214.36 232.60 L 213.42 232.60 C 212.56 232.60 211.86 233.30 211.86 234.16 C 211.86 235.02 212.56 235.72 213.42 235.72 Z M 214.36 235.72 L 215.36 235.72 C 216.22 235.72 216.92 235.02 216.92 234.16 C 216.92 233.30 216.22 232.60 215.36 232.60 L 214.36 232.60 C 213.50 232.60 212.80 233.30 212.80 234.16 C 212.80 235.02 213.50 235.72 214.36 235.72 Z M 215.36 235.72 L 216.46 235.72 C 217.32 235.72 218.02 235.02 218.02 234.16 C 218.02 233.30 217.32 232.60 216.46 232.60 L 215.36 232.60 C 214.50 232.60 213.80 233.30 213.80 234.16 C 213.80 235.02 214.50 235.72 215.36 235.72 Z M 216.46 235.72 L 217.40 235.72 C 218.27 235.72 218.97 235.02 218.97 234.16 C 218.97 233.30 218.27 232.60 217.40 232.60 L 216.46 232.60 C 215.60 232.60 214.90 233.30 214.90 234.16 C 214.90 235.02 215.60 235.72 216.46 235.72 Z M 217.40 235.72 L 218.41 235.72 C 219.27 235.72 219.97 235.02 219.97 234.16 C 219.97 233.30 219.27 232.60 218.41 232.60 L 217.40 232.60 C 216.54 232.60 215.84 233.30 215.84 234.16 C 215.84 235.02 216.54 235.72 217.40 235.72 Z M 218.41 235.72 L 219.44 235.72 C 220.30 235.72 221.00 235.02 221.00 234.16 C 221.00 233.30 220.30 232.60 219.44 232.60 L 218.41 232.60 C 217.55 232.60 216.85 233.30 216.85 234.16 C 216.85 235.02 217.55 235.72 218.41 235.72 Z M 219.44 235.72 L 220.46 235.72 C 221.33 235.72 222.03 235.02 222.03 234.16 C 222.03 233.30 221.33 232.60 220.46 232.60 L 219.44 232.60 C 218.58 232.60 217.88 233.30 217.88 234.16 C 217.88 235.02 218.58 235.72 219.44 235.72 Z M 220.46 235.72 L 221.50 235.72 C 222.36 235.72 223.06 235.02 223.06 234.16 C 223.06 233.30 222.36 232.60 221.50 232.60 L 220.46 232.60 C 219.60 232.60 218.90 233.30 218.90 234.16 C 218.90 235.02 219.60 235.72 220.46 235.72 Z M 221.50 235.72 L 222.55 235.73 C 223.41 235.73 224.11 235.03 224.11 234.17 C 224.11 233.31 223.42 232.61 222.55 232.60 L 221.50 232.60 C 220.64 232.60 219.94 233.30 219.94 234.16 C 219.94 235.02 220.63 235.72 221.50 235.72 Z M 222.53 235.73 L 223.52 235.74 C 224.39 235.75 225.09 235.05 225.10 234.19 C 225.11 233.33 224.42 232.62 223.56 232.61 L 222.57 232.60 C 221.70 232.59 221.00 233.28 220.99 234.15 C 220.98 235.01 221.67 235.72 222.53 235.73 Z M 223.50 235.74 L 224.46 235.76 C 225.32 235.78 226.04 235.10 226.06 234.24 C 226.08 233.38 225.40 232.66 224.54 232.64 L 223.58 232.61 C 222.72 232.59 222.00 233.27 221.98 234.13 C 221.96 235.00 222.64 235.71 223.50 235.74 Z M 224.42 235.76 L 225.39 235.81 C 226.25 235.85 226.98 235.18 227.02 234.32 C 227.06 233.46 226.40 232.73 225.54 232.69 L 224.57 232.64 C 223.71 232.60 222.98 233.26 222.94 234.13 C 222.90 234.99 223.56 235.72 224.42 235.76 Z M 225.35 235.80 L 226.35 235.88 C 227.21 235.94 227.96 235.29 228.02 234.43 C 228.08 233.57 227.43 232.82 226.57 232.76 L 225.57 232.69 C 224.71 232.63 223.97 233.27 223.90 234.13 C 223.84 234.99 224.49 235.74 225.35 235.80 Z M 226.32 235.87 L 227.32 235.96 C 228.18 236.04 228.93 235.40 229.01 234.55 C 229.09 233.69 228.45 232.93 227.59 232.85 L 226.60 232.76 C 225.74 232.69 224.98 233.32 224.91 234.18 C 224.83 235.04 225.46 235.80 226.32 235.87 Z M 227.30 235.96 L 228.29 236.06 C 229.15 236.14 229.92 235.52 230.00 234.66 C 230.09 233.80 229.46 233.04 228.60 232.95 L 227.61 232.85 C 226.75 232.77 225.99 233.39 225.90 234.25 C 225.82 235.11 226.44 235.87 227.30 235.96 Z M 228.29 236.06 L 228.66 236.10 C 229.51 236.18 230.28 235.56 230.37 234.70 C 230.46 233.84 229.83 233.08 228.97 232.99 L 228.61 232.95 C 227.75 232.86 226.98 233.49 226.89 234.35 C 226.81 235.20 227.43 235.97 228.29 236.06 Z"
      fill="black"
      fill-rule="nonzero" /></svg>