<svg xmlns="http://www.w3.org/2000/svg" width="300" height="300" viewBox="0 0 300 300">
<path d="M 137.69 168.43 L 136.70 168.19 C 135.87 167.99 135.02 168.50 134.82 169.34 C 134.61 170.18 135.13 171.02 135.97 171.22 L 136.95 171.46 C 137.79 171.67 138.63 171.15 138.84 170.32 C 139.04 169.48 138.53 168.63 137.69 168.43 Z M 136.75 168.20 L 135.78 167.93 C 134.95 167.70 134.09 168.19 133.86 169.02 C 133.63 169.85 134.12 170.71 134.95 170.94 L 135.92 171.21 C 136.75 171.44 137.61 170.95 137.84 170.12 C 138.07 169.29 137.58 168.43 136.75 168.20 Z M 135.88 167.96 L 134.95 167.64 C 134.13 167.36 133.24 167.79 132.96 168.60 C 132.68 169.42 133.11 170.31 133.92 170.59 L 134.85 170.91 C 135.67 171.20 136.56 170.77 136.84 169.95 C 137.12 169.14 136.69 168.25 135.88 167.96 Z M 135.09 167.70 L 134.20 167.28 C 133.42 166.92 132.49 167.26 132.12 168.04 C 131.76 168.82 132.10 169.75 132.88 170.11 L 133.77 170.53 C 134.56 170.89 135.49 170.55 135.85 169.77 C 136.21 168.99 135.87 168.06 135.09 167.70 Z M 134.37 167.38 L 133.54 166.85 C 132.81 166.39 131.85 166.61 131.39 167.34 C 130.93 168.07 131.14 169.03 131.87 169.49 L 132.71 170.02 C 133.44 170.48 134.40 170.26 134.86 169.53 C 135.32 168.80 135.10 167.84 134.37 167.38 Z M 133.72 166.99 L 132.96 166.34 C 132.31 165.78 131.32 165.85 130.76 166.51 C 130.20 167.16 130.28 168.15 130.93 168.71 L 131.69 169.36 C 132.35 169.92 133.33 169.84 133.89 169.19 C 134.45 168.53 134.38 167.55 133.72 166.99 Z M 133.13 166.50 L 132.48 165.75 C 131.92 165.10 130.93 165.03 130.28 165.60 C 129.63 166.16 129.56 167.15 130.12 167.80 L 130.77 168.54 C 131.33 169.20 132.32 169.27 132.97 168.70 C 133.62 168.14 133.69 167.15 133.13 166.50 Z M 132.61 165.92 L 132.09 165.13 C 131.62 164.41 130.65 164.21 129.93 164.68 C 129.21 165.15 129.01 166.11 129.48 166.84 L 129.99 167.63 C 130.46 168.35 131.43 168.55 132.15 168.08 C 132.88 167.61 133.08 166.65 132.61 165.92 Z M 132.18 165.29 L 131.74 164.40 C 131.36 163.63 130.42 163.31 129.65 163.69 C 128.88 164.08 128.56 165.01 128.94 165.78 L 129.39 166.68 C 129.77 167.45 130.70 167.77 131.48 167.38 C 132.25 167.00 132.57 166.06 132.18 165.29 Z M 131.81 164.56 L 131.45 163.57 C 131.15 162.76 130.25 162.34 129.45 162.64 C 128.64 162.94 128.22 163.83 128.52 164.64 L 128.88 165.63 C 129.17 166.44 130.07 166.85 130.88 166.56 C 131.69 166.26 132.10 165.36 131.81 164.56 Z M 131.49 163.71 L 131.24 162.76 C 131.03 161.92 130.17 161.42 129.34 161.64 C 128.50 161.86 128.00 162.71 128.22 163.55 L 128.47 164.50 C 128.69 165.34 129.54 165.84 130.38 165.62 C 131.21 165.40 131.71 164.55 131.49 163.71 Z M 131.27 162.87 L 131.10 161.95 C 130.95 161.10 130.14 160.54 129.29 160.69 C 128.44 160.85 127.88 161.66 128.03 162.51 L 128.20 163.43 C 128.35 164.28 129.16 164.84 130.01 164.69 C 130.86 164.53 131.42 163.72 131.27 162.87 Z M 131.12 162.04 L 131.00 161.06 C 130.89 160.21 130.11 159.60 129.26 159.70 C 128.40 159.81 127.79 160.59 127.90 161.44 L 128.02 162.42 C 128.12 163.28 128.90 163.88 129.76 163.78 C 130.61 163.68 131.22 162.90 131.12 162.04 Z M 131.00 161.13 L 130.92 160.10 C 130.86 159.24 130.11 158.60 129.25 158.67 C 128.39 158.73 127.74 159.48 127.81 160.34 L 127.89 161.37 C 127.96 162.23 128.71 162.88 129.57 162.81 C 130.43 162.74 131.07 161.99 131.00 161.13 Z M 130.93 160.16 L 130.88 159.07 C 130.84 158.21 130.11 157.54 129.25 157.58 C 128.39 157.62 127.72 158.35 127.76 159.21 L 127.81 160.29 C 127.84 161.15 128.57 161.82 129.43 161.78 C 130.30 161.75 130.96 161.02 130.93 160.16 Z M 130.88 159.11 L 130.86 158.13 C 130.84 157.26 130.13 156.58 129.27 156.60 C 128.41 156.61 127.72 157.33 127.74 158.19 L 127.76 159.17 C 127.78 160.03 128.49 160.72 129.35 160.70 C 130.21 160.68 130.90 159.97 130.88 159.11 Z M 130.86 158.16 L 130.87 157.17 C 130.87 156.31 130.18 155.61 129.31 155.60 C 128.45 155.60 127.75 156.29 127.74 157.16 L 127.74 158.15 C 127.73 159.01 128.43 159.71 129.29 159.72 C 130.15 159.72 130.86 159.03 130.86 158.16 Z M 130.86 157.22 L 130.90 156.21 C 130.94 155.35 130.26 154.63 129.40 154.59 C 128.54 154.56 127.82 155.23 127.78 156.10 L 127.74 157.10 C 127.71 157.97 128.38 158.69 129.25 158.72 C 130.11 158.76 130.83 158.08 130.86 157.22 Z M 130.90 156.28 L 130.98 155.27 C 131.05 154.41 130.40 153.65 129.54 153.59 C 128.68 153.52 127.93 154.16 127.87 155.02 L 127.79 156.03 C 127.72 156.89 128.36 157.64 129.22 157.71 C 130.08 157.78 130.83 157.14 130.90 156.28 Z M 130.97 155.34 L 131.10 154.34 C 131.21 153.49 130.61 152.70 129.75 152.59 C 128.90 152.48 128.11 153.09 128.00 153.94 L 127.87 154.94 C 127.76 155.80 128.37 156.58 129.22 156.69 C 130.08 156.80 130.86 156.20 130.97 155.34 Z M 131.08 154.43 L 131.27 153.45 C 131.43 152.61 130.88 151.79 130.03 151.63 C 129.18 151.46 128.37 152.02 128.20 152.87 L 128.02 153.85 C 127.86 154.70 128.41 155.51 129.26 155.68 C 130.11 155.84 130.92 155.28 131.08 154.43 Z M 131.25 153.55 L 131.50 152.59 C 131.72 151.76 131.22 150.91 130.38 150.69 C 129.55 150.47 128.69 150.97 128.48 151.81 L 128.23 152.77 C 128.01 153.60 128.51 154.45 129.34 154.67 C 130.18 154.89 131.03 154.39 131.25 153.55 Z M 131.47 152.69 L 131.78 151.75 C 132.05 150.93 131.60 150.05 130.78 149.78 C 129.97 149.51 129.08 149.96 128.81 150.77 L 128.51 151.71 C 128.24 152.53 128.68 153.41 129.50 153.68 C 130.32 153.95 131.20 153.51 131.47 152.69 Z M 131.75 151.84 L 132.11 150.91 C 132.43 150.11 132.04 149.20 131.23 148.89 C 130.43 148.57 129.52 148.97 129.21 149.77 L 128.84 150.69 C 128.53 151.49 128.92 152.40 129.72 152.72 C 130.53 153.03 131.43 152.64 131.75 151.84 Z M 132.08 150.99 L 132.50 150.07 C 132.85 149.29 132.51 148.36 131.72 148.00 C 130.94 147.65 130.01 147.99 129.65 148.78 L 129.24 149.69 C 128.88 150.48 129.23 151.40 130.01 151.76 C 130.80 152.12 131.73 151.77 132.08 150.99 Z M 132.47 150.13 L 132.93 149.22 C 133.32 148.45 133.01 147.51 132.25 147.12 C 131.48 146.73 130.54 147.04 130.15 147.81 L 129.68 148.72 C 129.29 149.49 129.60 150.43 130.37 150.82 C 131.14 151.21 132.08 150.90 132.47 150.13 Z M 132.90 149.27 L 133.39 148.40 C 133.80 147.65 133.53 146.70 132.78 146.28 C 132.02 145.86 131.07 146.13 130.65 146.89 L 130.17 147.76 C 129.76 148.51 130.03 149.46 130.78 149.88 C 131.54 150.30 132.49 150.02 132.90 149.27 Z M 133.36 148.45 L 133.88 147.58 C 134.32 146.84 134.08 145.88 133.34 145.44 C 132.60 145.00 131.64 145.24 131.19 145.98 L 130.68 146.84 C 130.24 147.59 130.48 148.54 131.22 148.99 C 131.96 149.43 132.92 149.19 133.36 148.45 Z M 133.85 147.63 L 134.39 146.77 C 134.86 146.05 134.65 145.08 133.92 144.62 C 133.20 144.15 132.23 144.36 131.77 145.09 L 131.22 145.94 C 130.76 146.67 130.97 147.63 131.69 148.10 C 132.42 148.56 133.38 148.35 133.85 147.63 Z M 134.37 146.82 L 134.94 145.98 C 135.43 145.27 135.24 144.30 134.53 143.81 C 133.82 143.33 132.85 143.51 132.36 144.22 L 131.79 145.05 C 131.30 145.76 131.49 146.73 132.20 147.22 C 132.91 147.71 133.88 147.53 134.37 146.82 Z M 134.91 146.02 L 135.50 145.22 C 136.01 144.52 135.86 143.55 135.17 143.04 C 134.47 142.53 133.49 142.68 132.98 143.37 L 132.39 144.18 C 131.88 144.87 132.03 145.85 132.73 146.36 C 133.42 146.87 134.40 146.72 134.91 146.02 Z M 135.47 145.26 L 136.08 144.48 C 136.62 143.80 136.50 142.82 135.83 142.29 C 135.15 141.75 134.17 141.87 133.63 142.55 L 133.02 143.33 C 132.48 144.01 132.60 144.99 133.28 145.52 C 133.95 146.06 134.93 145.94 135.47 145.26 Z M 136.05 144.53 L 136.72 143.74 C 137.27 143.09 137.20 142.10 136.54 141.54 C 135.88 140.98 134.90 141.06 134.34 141.72 L 133.67 142.50 C 133.11 143.16 133.19 144.14 133.85 144.70 C 134.50 145.26 135.49 145.18 136.05 144.53 Z M 136.67 143.79 L 137.36 143.05 C 137.94 142.42 137.91 141.43 137.28 140.85 C 136.64 140.26 135.66 140.30 135.07 140.93 L 134.38 141.67 C 133.80 142.30 133.83 143.29 134.46 143.87 C 135.10 144.46 136.08 144.42 136.67 143.79 Z M 137.31 143.10 L 138.02 142.41 C 138.63 141.80 138.64 140.81 138.03 140.20 C 137.43 139.58 136.44 139.58 135.83 140.18 L 135.12 140.88 C 134.50 141.48 134.50 142.47 135.10 143.09 C 135.71 143.70 136.69 143.71 137.31 143.10 Z M 137.96 142.46 L 138.69 141.80 C 139.34 141.23 139.39 140.24 138.82 139.60 C 138.24 138.96 137.26 138.90 136.61 139.48 L 135.88 140.13 C 135.24 140.71 135.18 141.69 135.76 142.34 C 136.33 142.98 137.32 143.03 137.96 142.46 Z M 138.64 141.85 L 139.40 141.23 C 140.07 140.69 140.17 139.71 139.63 139.04 C 139.08 138.37 138.10 138.27 137.43 138.81 L 136.67 139.43 C 136.00 139.97 135.90 140.95 136.44 141.62 C 136.98 142.29 137.97 142.39 138.64 141.85 Z M 139.34 141.28 L 140.14 140.69 C 140.84 140.18 140.99 139.21 140.48 138.51 C 139.97 137.81 138.99 137.66 138.30 138.17 L 137.49 138.76 C 136.80 139.27 136.65 140.25 137.15 140.94 C 137.66 141.64 138.64 141.79 139.34 141.28 Z M 140.08 140.73 L 140.92 140.18 C 141.64 139.70 141.83 138.74 141.36 138.02 C 140.88 137.30 139.91 137.10 139.19 137.58 L 138.36 138.13 C 137.64 138.61 137.44 139.58 137.92 140.30 C 138.39 141.01 139.36 141.21 140.08 140.73 Z M 140.86 140.22 L 141.72 139.70 C 142.46 139.25 142.70 138.29 142.25 137.56 C 141.81 136.82 140.85 136.58 140.11 137.02 L 139.25 137.54 C 138.51 137.99 138.27 138.95 138.72 139.68 C 139.16 140.42 140.12 140.66 140.86 140.22 Z M 141.67 139.73 L 142.54 139.25 C 143.30 138.83 143.57 137.88 143.16 137.13 C 142.74 136.37 141.79 136.10 141.04 136.51 L 140.16 136.99 C 139.41 137.41 139.13 138.36 139.55 139.11 C 139.96 139.87 140.91 140.14 141.67 139.73 Z M 142.49 139.27 L 143.38 138.83 C 144.15 138.44 144.46 137.50 144.08 136.73 C 143.69 135.96 142.75 135.65 141.98 136.04 L 141.09 136.48 C 140.32 136.87 140.01 137.81 140.40 138.58 C 140.78 139.35 141.72 139.66 142.49 139.27 Z M 143.33 138.85 L 144.26 138.42 C 145.04 138.06 145.38 137.14 145.02 136.35 C 144.66 135.57 143.74 135.23 142.95 135.59 L 142.03 136.01 C 141.24 136.37 140.90 137.30 141.26 138.08 C 141.62 138.87 142.55 139.21 143.33 138.85 Z M 144.21 138.45 L 145.15 138.05 C 145.95 137.72 146.33 136.81 145.99 136.01 C 145.66 135.21 144.75 134.84 143.95 135.17 L 143.00 135.56 C 142.21 135.90 141.83 136.81 142.16 137.61 C 142.50 138.40 143.41 138.78 144.21 138.45 Z M 145.09 138.07 L 146.04 137.72 C 146.85 137.42 147.26 136.53 146.96 135.72 C 146.66 134.91 145.76 134.50 144.96 134.80 L 144.01 135.15 C 143.20 135.45 142.79 136.34 143.09 137.15 C 143.39 137.96 144.29 138.37 145.09 138.07 Z M 145.98 137.75 L 146.92 137.44 C 147.74 137.18 148.19 136.30 147.93 135.48 C 147.67 134.66 146.79 134.21 145.97 134.47 L 145.02 134.77 C 144.20 135.04 143.75 135.91 144.01 136.74 C 144.28 137.56 145.15 138.01 145.98 137.75 Z M 146.84 137.47 L 147.78 137.22 C 148.61 137.00 149.11 136.14 148.89 135.31 C 148.67 134.47 147.81 133.98 146.98 134.20 L 146.04 134.45 C 145.21 134.67 144.71 135.53 144.93 136.36 C 145.16 137.19 146.01 137.69 146.84 137.47 Z M 147.69 137.24 L 148.67 137.04 C 149.51 136.86 150.06 136.04 149.89 135.19 C 149.71 134.35 148.89 133.81 148.04 133.98 L 147.06 134.18 C 146.22 134.35 145.68 135.18 145.85 136.02 C 146.02 136.87 146.85 137.41 147.69 137.24 Z M 148.58 137.05 L 149.57 136.91 C 150.43 136.79 151.02 136.00 150.90 135.15 C 150.78 134.29 149.99 133.70 149.13 133.82 L 148.14 133.96 C 147.28 134.08 146.69 134.87 146.81 135.73 C 146.93 136.58 147.72 137.17 148.58 137.05 Z M 149.48 136.92 L 150.47 136.84 C 151.33 136.77 151.97 136.02 151.90 135.16 C 151.83 134.30 151.08 133.66 150.22 133.73 L 149.23 133.81 C 148.37 133.88 147.73 134.63 147.80 135.49 C 147.87 136.35 148.62 136.99 149.48 136.92 Z M 150.39 136.85 L 151.37 136.82 C 152.24 136.80 152.92 136.08 152.89 135.22 C 152.87 134.36 152.16 133.68 151.29 133.70 L 150.30 133.72 C 149.44 133.75 148.76 134.46 148.78 135.33 C 148.81 136.19 149.52 136.87 150.39 136.85 Z M 151.30 136.82 L 152.29 136.84 C 153.15 136.86 153.86 136.18 153.89 135.32 C 153.91 134.46 153.22 133.74 152.36 133.72 L 151.37 133.70 C 150.51 133.68 149.79 134.36 149.77 135.22 C 149.75 136.08 150.44 136.80 151.30 136.82 Z M 152.21 136.84 L 153.17 136.91 C 154.03 136.97 154.78 136.32 154.84 135.46 C 154.90 134.60 154.25 133.85 153.39 133.79 L 152.43 133.73 C 151.57 133.67 150.83 134.31 150.77 135.17 C 150.71 136.03 151.35 136.78 152.21 136.84 Z M 153.08 136.90 L 154.04 137.02 C 154.90 137.14 155.68 136.53 155.79 135.68 C 155.90 134.82 155.30 134.04 154.45 133.93 L 153.48 133.80 C 152.63 133.69 151.84 134.29 151.73 135.15 C 151.62 136.00 152.22 136.79 153.08 136.90 Z M 153.93 137.01 L 154.90 137.21 C 155.75 137.38 156.57 136.84 156.75 135.99 C 156.92 135.15 156.38 134.32 155.53 134.15 L 154.56 133.95 C 153.71 133.77 152.89 134.32 152.72 135.16 C 152.54 136.01 153.09 136.83 153.93 137.01 Z M 154.77 137.17 L 155.76 137.47 C 156.58 137.71 157.45 137.24 157.70 136.41 C 157.94 135.59 157.47 134.72 156.65 134.47 L 155.66 134.18 C 154.84 133.93 153.97 134.41 153.72 135.23 C 153.48 136.06 153.95 136.93 154.77 137.17 Z M 155.62 137.42 L 156.59 137.81 C 157.39 138.13 158.30 137.74 158.62 136.94 C 158.94 136.14 158.55 135.23 157.75 134.91 L 156.78 134.52 C 155.98 134.20 155.07 134.59 154.75 135.39 C 154.43 136.19 154.82 137.10 155.62 137.42 Z M 156.47 137.75 L 157.38 138.21 C 158.15 138.60 159.09 138.28 159.47 137.51 C 159.86 136.74 159.55 135.81 158.78 135.42 L 157.87 134.96 C 157.10 134.58 156.16 134.89 155.78 135.66 C 155.39 136.43 155.70 137.37 156.47 137.75 Z M 157.29 138.16 L 158.19 138.68 C 158.93 139.12 159.89 138.87 160.32 138.12 C 160.76 137.38 160.50 136.42 159.76 135.99 L 158.87 135.46 C 158.12 135.03 157.16 135.28 156.73 136.03 C 156.30 136.77 156.55 137.73 157.29 138.16 Z M 158.12 138.64 L 158.99 139.20 C 159.71 139.67 160.68 139.47 161.15 138.74 C 161.62 138.02 161.41 137.05 160.69 136.58 L 159.82 136.02 C 159.10 135.56 158.13 135.76 157.66 136.49 C 157.19 137.21 157.40 138.18 158.12 138.64 Z M 158.94 139.17 L 159.75 139.74 C 160.46 140.24 161.43 140.07 161.93 139.36 C 162.42 138.66 162.25 137.68 161.55 137.19 L 160.73 136.62 C 160.03 136.12 159.05 136.29 158.56 137.00 C 158.06 137.70 158.23 138.68 158.94 139.17 Z M 159.72 139.72 L 160.46 140.27 C 161.15 140.79 162.13 140.64 162.65 139.95 C 163.16 139.26 163.02 138.28 162.33 137.77 L 161.58 137.21 C 160.89 136.70 159.91 136.84 159.40 137.53 C 158.88 138.22 159.03 139.20 159.72 139.72 Z M 160.43 140.25 L 161.33 140.96 C 162.01 141.49 162.99 141.37 163.52 140.70 C 164.06 140.02 163.94 139.04 163.26 138.50 L 162.36 137.79 C 161.68 137.26 160.70 137.38 160.17 138.05 C 159.64 138.73 159.75 139.71 160.43 140.25 Z M 161.29 140.92 L 162.07 141.58 C 162.73 142.13 163.72 142.05 164.27 141.39 C 164.83 140.73 164.74 139.74 164.08 139.19 L 163.30 138.54 C 162.64 137.98 161.66 138.07 161.10 138.73 C 160.55 139.39 160.63 140.37 161.29 140.92 Z M 162.03 141.54 L 162.72 142.16 C 163.36 142.74 164.35 142.69 164.92 142.05 C 165.50 141.41 165.45 140.42 164.81 139.84 L 164.12 139.22 C 163.48 138.65 162.49 138.70 161.92 139.34 C 161.34 139.98 161.39 140.97 162.03 141.54 Z M 162.69 142.13 L 163.32 142.74 C 163.95 143.34 164.94 143.32 165.53 142.69 C 166.13 142.07 166.11 141.08 165.48 140.49 L 164.84 139.87 C 164.22 139.28 163.23 139.30 162.64 139.92 C 162.04 140.55 162.06 141.54 162.69 142.13 Z M 163.30 142.72 L 163.93 143.35 C 164.53 143.96 165.52 143.96 166.13 143.36 C 166.75 142.75 166.75 141.76 166.14 141.15 L 165.51 140.51 C 164.90 139.90 163.91 139.90 163.30 140.51 C 162.69 141.12 162.69 142.10 163.30 142.72 Z M 163.90 143.32 L 164.55 144.01 C 165.14 144.64 166.13 144.67 166.76 144.08 C 167.38 143.49 167.41 142.50 166.82 141.87 L 166.17 141.18 C 165.58 140.55 164.59 140.52 163.96 141.11 C 163.34 141.70 163.31 142.69 163.90 143.32 Z M 164.52 143.98 L 165.23 144.78 C 165.81 145.42 166.79 145.48 167.44 144.90 C 168.08 144.33 168.14 143.34 167.56 142.70 L 166.85 141.90 C 166.28 141.26 165.29 141.20 164.65 141.78 C 164.00 142.35 163.95 143.34 164.52 143.98 Z M 165.21 144.75 L 165.89 145.55 C 166.45 146.21 167.44 146.28 168.09 145.72 C 168.75 145.16 168.83 144.18 168.27 143.52 L 167.58 142.72 C 167.02 142.07 166.04 141.99 165.38 142.55 C 164.73 143.11 164.65 144.10 165.21 144.75 Z M 165.88 145.53 L 166.46 146.24 C 167.01 146.90 168.00 146.99 168.66 146.44 C 169.32 145.89 169.42 144.91 168.87 144.25 L 168.28 143.54 C 167.73 142.88 166.75 142.78 166.08 143.33 C 165.42 143.88 165.33 144.87 165.88 145.53 Z M 166.45 146.22 L 167.06 146.98 C 167.60 147.66 168.58 147.76 169.25 147.23 C 169.93 146.69 170.03 145.70 169.50 145.03 L 168.88 144.27 C 168.34 143.59 167.36 143.48 166.69 144.02 C 166.01 144.56 165.91 145.54 166.45 146.22 Z M 167.04 146.96 L 167.67 147.77 C 168.19 148.46 169.17 148.58 169.86 148.06 C 170.54 147.53 170.67 146.55 170.14 145.87 L 169.51 145.05 C 168.99 144.37 168.01 144.24 167.32 144.77 C 166.64 145.30 166.51 146.28 167.04 146.96 Z M 167.65 147.75 L 168.27 148.60 C 168.78 149.29 169.76 149.44 170.45 148.93 C 171.15 148.42 171.30 147.44 170.79 146.75 L 170.16 145.90 C 169.65 145.20 168.67 145.05 167.98 145.56 C 167.28 146.07 167.14 147.05 167.65 147.75 Z M 168.25 148.56 L 168.86 149.44 C 169.35 150.15 170.32 150.32 171.03 149.83 C 171.74 149.34 171.91 148.37 171.42 147.66 L 170.81 146.78 C 170.32 146.07 169.35 145.90 168.64 146.39 C 167.93 146.88 167.76 147.85 168.25 148.56 Z M 168.83 149.40 L 169.39 150.26 C 169.86 150.99 170.83 151.19 171.55 150.73 C 172.27 150.26 172.48 149.29 172.01 148.57 L 171.45 147.70 C 170.98 146.98 170.01 146.77 169.29 147.24 C 168.57 147.71 168.36 148.68 168.83 149.40 Z M 169.36 150.22 L 169.88 151.09 C 170.33 151.83 171.29 152.07 172.03 151.63 C 172.76 151.18 173.00 150.22 172.56 149.48 L 172.04 148.61 C 171.59 147.87 170.64 147.63 169.90 148.08 C 169.16 148.52 168.92 149.48 169.36 150.22 Z M 169.85 151.04 L 170.34 151.92 C 170.75 152.68 171.70 152.95 172.46 152.54 C 173.21 152.12 173.49 151.18 173.08 150.42 L 172.59 149.54 C 172.18 148.78 171.23 148.50 170.47 148.92 C 169.72 149.33 169.44 150.28 169.85 151.04 Z M 170.31 151.86 L 170.75 152.76 C 171.13 153.53 172.07 153.84 172.84 153.46 C 173.61 153.08 173.93 152.14 173.55 151.37 L 173.11 150.48 C 172.72 149.71 171.79 149.39 171.01 149.77 C 170.24 150.15 169.92 151.09 170.31 151.86 Z M 170.72 152.69 L 171.11 153.59 C 171.46 154.38 172.38 154.74 173.17 154.39 C 173.96 154.05 174.32 153.13 173.97 152.34 L 173.58 151.44 C 173.23 150.65 172.31 150.29 171.52 150.63 C 170.73 150.98 170.37 151.90 170.72 152.69 Z M 171.08 153.52 L 171.43 154.43 C 171.73 155.24 172.63 155.64 173.44 155.34 C 174.25 155.03 174.65 154.13 174.35 153.32 L 174.00 152.41 C 173.70 151.61 172.80 151.20 171.99 151.50 C 171.18 151.81 170.78 152.71 171.08 153.52 Z M 171.40 154.35 L 171.71 155.32 C 171.97 156.14 172.84 156.60 173.67 156.34 C 174.49 156.08 174.94 155.20 174.68 154.38 L 174.38 153.41 C 174.12 152.58 173.24 152.13 172.42 152.39 C 171.60 152.65 171.14 153.53 171.40 154.35 Z M 171.68 155.24 L 171.94 156.22 C 172.15 157.05 173.00 157.56 173.84 157.34 C 174.67 157.13 175.18 156.27 174.96 155.44 L 174.71 154.46 C 174.49 153.63 173.64 153.12 172.81 153.34 C 171.97 153.55 171.47 154.41 171.68 155.24 Z M 171.92 156.14 L 172.12 157.13 C 172.30 157.97 173.12 158.51 173.97 158.34 C 174.81 158.17 175.35 157.34 175.18 156.50 L 174.98 155.51 C 174.80 154.67 173.98 154.13 173.13 154.30 C 172.29 154.47 171.75 155.30 171.92 156.14 Z M 172.11 157.06 L 172.27 158.04 C 172.40 158.89 173.20 159.47 174.06 159.33 C 174.91 159.19 175.49 158.39 175.35 157.54 L 175.19 156.56 C 175.05 155.71 174.25 155.13 173.40 155.27 C 172.55 155.41 171.97 156.21 172.11 157.06 Z M 172.26 157.98 L 172.38 158.95 C 172.48 159.81 173.26 160.42 174.11 160.32 C 174.97 160.21 175.58 159.43 175.48 158.58 L 175.36 157.60 C 175.25 156.75 174.48 156.14 173.62 156.24 C 172.76 156.34 172.15 157.12 172.26 157.98 Z M 172.37 158.90 L 172.46 159.90 C 172.53 160.75 173.29 161.39 174.14 161.32 C 175.00 161.24 175.64 160.49 175.57 159.63 L 175.48 158.63 C 175.41 157.77 174.65 157.14 173.79 157.21 C 172.93 157.28 172.30 158.04 172.37 158.90 Z M 172.45 159.83 L 172.50 160.84 C 172.53 161.70 173.26 162.37 174.13 162.33 C 174.99 162.29 175.65 161.56 175.62 160.70 L 175.57 159.69 C 175.53 158.83 174.80 158.16 173.94 158.20 C 173.08 158.24 172.41 158.97 172.45 159.83 Z M 172.49 160.75 L 172.48 161.75 C 172.47 162.61 173.17 163.32 174.03 163.33 C 174.89 163.34 175.60 162.65 175.61 161.78 L 175.62 160.79 C 175.63 159.92 174.93 159.22 174.07 159.21 C 173.21 159.20 172.50 159.89 172.49 160.75 Z M 172.49 161.64 L 172.41 162.63 C 172.34 163.49 172.98 164.24 173.84 164.31 C 174.70 164.38 175.45 163.74 175.52 162.88 L 175.60 161.89 C 175.67 161.03 175.03 160.28 174.17 160.21 C 173.31 160.14 172.56 160.78 172.49 161.64 Z M 172.43 162.50 L 172.26 163.48 C 172.13 164.33 172.70 165.13 173.55 165.27 C 174.40 165.41 175.21 164.84 175.35 163.99 L 175.51 163.01 C 175.65 162.16 175.07 161.35 174.22 161.21 C 173.37 161.07 172.56 161.65 172.43 162.50 Z M 172.30 163.34 L 172.05 164.29 C 171.83 165.12 172.33 165.97 173.16 166.19 C 174.00 166.41 174.85 165.91 175.07 165.08 L 175.32 164.13 C 175.53 163.29 175.03 162.44 174.20 162.22 C 173.37 162.00 172.51 162.50 172.30 163.34 Z M 172.09 164.15 L 171.76 165.06 C 171.47 165.87 171.89 166.76 172.70 167.06 C 173.51 167.35 174.40 166.93 174.70 166.12 L 175.02 165.21 C 175.32 164.40 174.90 163.51 174.09 163.21 C 173.28 162.92 172.38 163.34 172.09 164.15 Z M 171.81 164.94 L 171.40 165.84 C 171.04 166.62 171.39 167.55 172.17 167.91 C 172.95 168.27 173.88 167.92 174.24 167.14 L 174.65 166.24 C 175.01 165.45 174.66 164.53 173.88 164.17 C 173.09 163.81 172.17 164.16 171.81 164.94 Z M 171.45 165.74 L 170.97 166.62 C 170.55 167.38 170.83 168.33 171.59 168.74 C 172.35 169.15 173.30 168.87 173.71 168.12 L 174.19 167.23 C 174.60 166.48 174.32 165.53 173.57 165.12 C 172.81 164.70 171.86 164.98 171.45 165.74 Z M 171.02 166.54 L 170.47 167.40 C 170.01 168.13 170.23 169.10 170.96 169.55 C 171.69 170.01 172.66 169.79 173.12 169.06 L 173.66 168.20 C 174.12 167.47 173.90 166.51 173.17 166.05 C 172.44 165.59 171.47 165.81 171.02 166.54 Z M 170.52 167.33 L 169.92 168.18 C 169.43 168.88 169.59 169.85 170.30 170.35 C 171.00 170.85 171.97 170.68 172.47 169.98 L 173.07 169.13 C 173.57 168.43 173.40 167.46 172.70 166.96 C 171.99 166.46 171.02 166.63 170.52 167.33 Z M 169.97 168.12 L 169.31 168.96 C 168.78 169.64 168.90 170.62 169.58 171.15 C 170.26 171.68 171.24 171.56 171.77 170.88 L 172.43 170.04 C 172.96 169.36 172.84 168.38 172.16 167.85 C 171.48 167.32 170.50 167.44 169.97 168.12 Z M 169.35 168.91 L 168.66 169.72 C 168.10 170.37 168.18 171.36 168.84 171.92 C 169.50 172.47 170.48 172.40 171.04 171.74 L 171.73 170.93 C 172.29 170.27 172.21 169.29 171.55 168.73 C 170.90 168.17 169.91 168.25 169.35 168.91 Z M 168.70 169.67 L 168.00 170.44 C 167.42 171.08 167.46 172.06 168.10 172.64 C 168.74 173.23 169.73 173.18 170.31 172.54 L 171.00 171.78 C 171.59 171.14 171.54 170.16 170.90 169.57 C 170.27 168.99 169.28 169.04 168.70 169.67 Z M 168.03 170.40 L 167.35 171.11 C 166.75 171.73 166.76 172.72 167.38 173.32 C 168.00 173.92 168.99 173.91 169.59 173.29 L 170.27 172.58 C 170.87 171.96 170.86 170.97 170.24 170.37 C 169.62 169.77 168.63 169.79 168.03 170.40 Z M 167.37 171.08 L 166.72 171.73 C 166.10 172.33 166.09 173.32 166.69 173.93 C 167.30 174.55 168.28 174.56 168.90 173.96 L 169.56 173.32 C 170.17 172.71 170.19 171.73 169.58 171.11 C 168.98 170.49 167.99 170.48 167.37 171.08 Z M 166.75 171.70 L 166.04 172.36 C 165.41 172.94 165.37 173.93 165.96 174.56 C 166.54 175.19 167.53 175.23 168.16 174.65 L 168.87 173.99 C 169.50 173.40 169.54 172.41 168.95 171.78 C 168.37 171.15 167.38 171.11 166.75 171.70 Z M 166.08 172.32 L 165.34 172.95 C 164.69 173.52 164.61 174.50 165.17 175.15 C 165.74 175.81 166.72 175.88 167.38 175.32 L 168.12 174.68 C 168.77 174.12 168.85 173.14 168.28 172.48 C 167.72 171.83 166.74 171.75 166.08 172.32 Z M 165.40 172.90 L 164.66 173.48 C 163.98 174.01 163.85 174.99 164.38 175.67 C 164.91 176.35 165.89 176.48 166.57 175.95 L 167.32 175.37 C 168.00 174.84 168.12 173.86 167.59 173.18 C 167.06 172.50 166.08 172.38 165.40 172.90 Z M 164.72 173.44 L 163.90 174.01 C 163.19 174.51 163.03 175.48 163.52 176.19 C 164.02 176.89 164.99 177.06 165.70 176.57 L 166.51 175.99 C 167.22 175.50 167.39 174.52 166.89 173.82 C 166.40 173.11 165.42 172.94 164.72 173.44 Z M 163.94 173.99 L 163.10 174.54 C 162.38 175.01 162.18 175.98 162.65 176.70 C 163.12 177.42 164.09 177.62 164.81 177.15 L 165.66 176.59 C 166.38 176.12 166.58 175.15 166.10 174.43 C 165.63 173.71 164.66 173.51 163.94 173.99 Z M 163.12 174.53 L 162.28 175.06 C 161.55 175.52 161.33 176.48 161.79 177.21 C 162.25 177.94 163.22 178.16 163.95 177.70 L 164.79 177.17 C 165.52 176.71 165.73 175.74 165.27 175.01 C 164.81 174.28 163.85 174.07 163.12 174.53 Z M 162.30 175.04 L 161.41 175.59 C 160.67 176.04 160.44 177.00 160.89 177.73 C 161.34 178.47 162.30 178.70 163.04 178.25 L 163.93 177.71 C 164.66 177.26 164.90 176.30 164.45 175.56 C 164.00 174.83 163.04 174.59 162.30 175.04 Z M 161.43 175.58 L 160.53 176.11 C 159.79 176.55 159.54 177.50 159.98 178.25 C 160.42 178.99 161.38 179.23 162.12 178.79 L 163.02 178.26 C 163.76 177.82 164.01 176.87 163.57 176.12 C 163.13 175.38 162.17 175.14 161.43 175.58 Z M 160.55 176.10 L 159.68 176.59 C 158.93 177.02 158.67 177.97 159.10 178.72 C 159.53 179.47 160.48 179.73 161.23 179.30 L 162.10 178.81 C 162.85 178.38 163.11 177.42 162.68 176.68 C 162.25 175.93 161.30 175.67 160.55 176.10 Z M 159.71 176.58 L 158.82 177.06 C 158.06 177.47 157.78 178.42 158.20 179.18 C 158.61 179.94 159.56 180.22 160.31 179.80 L 161.20 179.32 C 161.96 178.91 162.24 177.96 161.83 177.20 C 161.42 176.44 160.47 176.16 159.71 176.58 Z M 158.87 177.04 L 157.94 177.50 C 157.17 177.88 156.86 178.82 157.25 179.59 C 157.63 180.36 158.57 180.68 159.34 180.29 L 160.27 179.83 C 161.04 179.44 161.35 178.50 160.96 177.73 C 160.58 176.96 159.64 176.65 158.87 177.04 Z M 158.02 177.46 L 157.15 177.85 C 156.36 178.19 156.00 179.11 156.34 179.90 C 156.69 180.69 157.61 181.05 158.40 180.71 L 159.27 180.32 C 160.06 179.98 160.42 179.06 160.07 178.27 C 159.73 177.48 158.81 177.12 158.02 177.46 Z M 157.22 177.81 L 156.33 178.15 C 155.52 178.45 155.12 179.35 155.42 180.16 C 155.72 180.97 156.62 181.38 157.43 181.07 L 158.32 180.74 C 159.13 180.43 159.54 179.53 159.24 178.73 C 158.93 177.92 158.03 177.51 157.22 177.81 Z M 156.39 178.13 L 155.50 178.42 C 154.68 178.69 154.24 179.57 154.51 180.39 C 154.78 181.21 155.66 181.66 156.48 181.39 L 157.37 181.09 C 158.19 180.82 158.63 179.94 158.36 179.12 C 158.09 178.30 157.21 177.86 156.39 178.13 Z M 155.55 178.41 L 154.66 178.67 C 153.83 178.91 153.36 179.78 153.60 180.60 C 153.85 181.43 154.71 181.91 155.54 181.66 L 156.43 181.40 C 157.26 181.16 157.73 180.29 157.49 179.46 C 157.25 178.64 156.38 178.16 155.55 178.41 Z M 154.71 178.65 L 153.75 178.90 C 152.92 179.11 152.41 179.96 152.63 180.80 C 152.84 181.63 153.69 182.14 154.53 181.92 L 155.49 181.68 C 156.32 181.46 156.83 180.61 156.61 179.78 C 156.40 178.94 155.55 178.44 154.71 178.65 Z M 153.81 178.88 L 152.79 179.10 C 151.95 179.28 151.41 180.11 151.59 180.96 C 151.77 181.80 152.60 182.34 153.45 182.16 L 154.47 181.94 C 155.31 181.76 155.85 180.93 155.67 180.08 C 155.49 179.24 154.66 178.70 153.81 178.88 Z M 152.86 179.09 L 151.80 179.27 C 150.95 179.41 150.37 180.22 150.52 181.07 C 150.66 181.92 151.46 182.49 152.31 182.35 L 153.38 182.17 C 154.23 182.03 154.80 181.22 154.66 180.37 C 154.52 179.52 153.71 178.95 152.86 179.09 Z M 151.88 179.26 L 150.82 179.38 C 149.97 179.48 149.35 180.25 149.45 181.11 C 149.55 181.97 150.32 182.58 151.18 182.48 L 152.23 182.36 C 153.09 182.26 153.70 181.49 153.61 180.63 C 153.51 179.77 152.73 179.16 151.88 179.26 Z M 150.90 179.37 L 149.86 179.44 C 149.00 179.50 148.34 180.24 148.40 181.10 C 148.46 181.96 149.20 182.61 150.06 182.56 L 151.10 182.49 C 151.96 182.43 152.62 181.69 152.56 180.83 C 152.50 179.97 151.76 179.32 150.90 179.37 Z M 149.93 179.44 L 148.90 179.46 C 148.04 179.47 147.35 180.18 147.37 181.04 C 147.38 181.91 148.09 182.59 148.96 182.58 L 149.99 182.56 C 150.85 182.54 151.53 181.83 151.52 180.97 C 151.50 180.11 150.79 179.42 149.93 179.44 Z M 148.98 179.46 L 147.98 179.43 C 147.12 179.40 146.40 180.08 146.38 180.94 C 146.35 181.80 147.03 182.52 147.89 182.55 L 148.88 182.58 C 149.74 182.60 150.46 181.93 150.49 181.06 C 150.51 180.20 149.84 179.48 148.98 179.46 Z M 148.07 179.43 L 147.14 179.35 C 146.28 179.28 145.52 179.92 145.45 180.78 C 145.38 181.63 146.01 182.39 146.87 182.46 L 147.80 182.54 C 148.66 182.61 149.42 181.98 149.49 181.12 C 149.56 180.26 148.93 179.50 148.07 179.43 Z M 147.24 179.36 L 146.21 179.20 C 145.36 179.07 144.56 179.65 144.43 180.50 C 144.29 181.36 144.88 182.16 145.73 182.29 L 146.76 182.45 C 147.62 182.58 148.41 182.00 148.55 181.15 C 148.68 180.30 148.10 179.50 147.24 179.36 Z M 146.35 179.23 L 145.35 178.98 C 144.52 178.77 143.67 179.27 143.46 180.11 C 143.24 180.94 143.75 181.79 144.58 182.00 L 145.58 182.26 C 146.42 182.47 147.27 181.97 147.48 181.13 C 147.70 180.29 147.19 179.45 146.35 179.23 Z M 145.51 179.03 L 144.61 178.69 C 143.80 178.40 142.90 178.81 142.60 179.62 C 142.31 180.43 142.72 181.33 143.53 181.63 L 144.43 181.96 C 145.24 182.25 146.14 181.84 146.43 181.03 C 146.73 180.22 146.32 179.32 145.51 179.03 Z M 144.75 178.75 L 143.91 178.35 C 143.13 177.98 142.20 178.31 141.83 179.08 C 141.45 179.86 141.78 180.79 142.56 181.17 L 143.39 181.57 C 144.17 181.94 145.10 181.61 145.48 180.84 C 145.85 180.06 145.52 179.13 144.75 178.75 Z M 144.02 178.41 L 143.18 177.92 C 142.43 177.49 141.48 177.74 141.04 178.49 C 140.61 179.23 140.87 180.19 141.61 180.62 L 142.45 181.11 C 143.19 181.54 144.15 181.29 144.58 180.54 C 145.02 179.80 144.76 178.84 144.02 178.41 Z M 143.27 177.98 L 142.45 177.42 C 141.73 176.94 140.76 177.13 140.28 177.85 C 139.80 178.56 139.99 179.53 140.70 180.01 L 141.52 180.57 C 142.24 181.05 143.21 180.86 143.69 180.15 C 144.17 179.43 143.98 178.46 143.27 177.98 Z M 142.52 177.48 L 141.72 176.86 C 141.03 176.34 140.05 176.47 139.53 177.16 C 139.01 177.84 139.14 178.82 139.82 179.34 L 140.63 179.96 C 141.31 180.48 142.29 180.35 142.81 179.67 C 143.34 178.98 143.21 178.00 142.52 177.48 Z M 141.78 176.91 L 141.01 176.26 C 140.35 175.71 139.37 175.79 138.81 176.44 C 138.25 177.10 138.34 178.09 138.99 178.64 L 139.76 179.30 C 140.42 179.85 141.40 179.77 141.96 179.11 C 142.52 178.46 142.44 177.47 141.78 176.91 Z M 141.06 176.31 L 140.35 175.65 C 139.72 175.07 138.73 175.11 138.15 175.74 C 137.56 176.38 137.60 177.37 138.24 177.95 L 138.94 178.60 C 139.58 179.19 140.57 179.15 141.15 178.51 C 141.74 177.88 141.69 176.89 141.06 176.31 Z M 140.39 175.69 L 139.69 174.99 C 139.08 174.39 138.09 174.39 137.48 175.01 C 136.87 175.62 136.88 176.61 137.49 177.21 L 138.20 177.91 C 138.81 178.52 139.80 178.51 140.40 177.90 C 141.01 177.29 141.01 176.30 140.39 175.69 Z M 139.72 175.03 L 139.02 174.29 C 138.42 173.66 137.43 173.64 136.81 174.23 C 136.18 174.82 136.16 175.81 136.75 176.44 L 137.46 177.18 C 138.05 177.81 139.04 177.83 139.67 177.24 C 140.29 176.64 140.32 175.65 139.72 175.03 Z M 139.04 174.32 L 138.36 173.55 C 137.78 172.91 136.79 172.86 136.15 173.44 C 135.51 174.02 135.46 175.01 136.04 175.65 L 136.73 176.41 C 137.30 177.05 138.29 177.10 138.93 176.52 C 139.57 175.94 139.62 174.96 139.04 174.32 Z M 138.38 173.58 L 137.74 172.84 C 137.18 172.19 136.19 172.11 135.54 172.68 C 134.89 173.24 134.81 174.23 135.38 174.88 L 136.02 175.62 C 136.58 176.27 137.56 176.35 138.22 175.78 C 138.87 175.22 138.94 174.23 138.38 173.58 Z M 137.76 172.87 L 137.13 172.09 C 136.58 171.43 135.60 171.33 134.93 171.88 C 134.27 172.43 134.17 173.41 134.72 174.08 L 135.35 174.85 C 135.90 175.52 136.89 175.61 137.55 175.06 C 138.22 174.52 138.31 173.53 137.76 172.87 Z M 137.15 172.12 L 136.53 171.33 C 136.00 170.65 135.01 170.53 134.34 171.06 C 133.66 171.59 133.54 172.57 134.07 173.25 L 134.69 174.05 C 135.23 174.73 136.21 174.85 136.89 174.32 C 137.56 173.78 137.68 172.80 137.15 172.12 Z M 136.55 171.36 L 135.95 170.54 C 135.43 169.85 134.45 169.70 133.76 170.22 C 133.07 170.73 132.92 171.71 133.44 172.40 L 134.04 173.22 C 134.56 173.91 135.54 174.06 136.23 173.54 C 136.92 173.03 137.07 172.05 136.55 171.36 Z M 135.97 170.58 L 135.38 169.74 C 134.89 169.03 133.92 168.86 133.21 169.35 C 132.50 169.84 132.33 170.82 132.82 171.52 L 133.41 172.37 C 133.90 173.07 134.88 173.25 135.58 172.75 C 136.29 172.26 136.47 171.29 135.97 170.58 Z M 135.41 169.77 L 134.85 168.92 C 134.37 168.20 133.41 168.00 132.69 168.47 C 131.97 168.95 131.77 169.91 132.24 170.64 L 132.80 171.49 C 133.27 172.21 134.24 172.41 134.96 171.93 C 135.68 171.46 135.88 170.49 135.41 169.77 Z M 134.87 168.95 L 134.34 168.10 C 133.88 167.37 132.92 167.15 132.19 167.60 C 131.46 168.06 131.23 169.02 131.69 169.75 L 132.22 170.60 C 132.67 171.33 133.64 171.56 134.37 171.10 C 135.10 170.65 135.32 169.69 134.87 168.95 Z M 134.36 168.13 L 133.86 167.29 C 133.42 166.55 132.47 166.30 131.72 166.74 C 130.98 167.18 130.73 168.14 131.17 168.88 L 131.67 169.72 C 132.11 170.46 133.07 170.71 133.81 170.27 C 134.55 169.83 134.80 168.88 134.36 168.13 Z M 133.88 167.32 L 133.39 166.45 C 132.97 165.70 132.02 165.43 131.26 165.85 C 130.51 166.28 130.25 167.23 130.67 167.98 L 131.16 168.85 C 131.58 169.60 132.53 169.87 133.28 169.45 C 134.03 169.02 134.30 168.07 133.88 167.32 Z M 133.41 166.48 L 132.92 165.58 C 132.52 164.82 131.57 164.53 130.81 164.94 C 130.05 165.35 129.76 166.29 130.17 167.05 L 130.65 167.95 C 131.06 168.71 132.01 169.00 132.77 168.59 C 133.53 168.18 133.81 167.24 133.41 166.48 Z M 132.93 165.60 L 132.48 164.72 C 132.08 163.95 131.14 163.65 130.38 164.04 C 129.61 164.44 129.31 165.38 129.70 166.15 L 130.16 167.03 C 130.55 167.80 131.50 168.10 132.26 167.70 C 133.03 167.31 133.33 166.37 132.93 165.60 Z M 132.49 164.73 L 132.05 163.86 C 131.66 163.09 130.72 162.78 129.95 163.16 C 129.18 163.55 128.87 164.49 129.26 165.26 L 129.70 166.13 C 130.08 166.90 131.02 167.21 131.79 166.83 C 132.56 166.44 132.87 165.50 132.49 164.73 Z M 132.05 163.86 L 131.83 163.42 C 131.44 162.65 130.51 162.34 129.74 162.72 C 128.96 163.11 128.65 164.04 129.04 164.82 L 129.26 165.26 C 129.64 166.03 130.58 166.34 131.35 165.96 C 132.12 165.57 132.43 164.63 132.05 163.86 Z"
      fill="black"
      fill-rule="nonzero" /></svg>