<svg xmlns="http://www.w3.org/2000/svg" width="300" height="300" viewBox="0 0 300 300">
<path d="M 130.38 169.33 L 129.80 168.47 C 129.32 167.76 128.35 167.57 127.63 168.05 C 126.92 168.54 126.73 169.51 127.21 170.22 L 127.79 171.08 C 128.27 171.79 129.24 171.98 129.96 171.49 C 130.67 171.01 130.86 170.04 130.38 169.33 Z M 129.82 168.51 L 129.28 167.65 C 128.81 166.92 127.85 166.71 127.12 167.17 C 126.39 167.63 126.18 168.60 126.64 169.33 L 127.19 170.18 C 127.65 170.91 128.62 171.13 129.34 170.66 C 130.07 170.20 130.29 169.23 129.82 168.51 Z M 129.32 167.73 L 128.84 166.86 C 128.42 166.11 127.47 165.84 126.72 166.26 C 125.96 166.68 125.69 167.64 126.11 168.39 L 126.60 169.25 C 127.02 170.00 127.97 170.27 128.72 169.85 C 129.47 169.43 129.74 168.48 129.32 167.73 Z M 128.90 166.99 L 128.51 166.11 C 128.16 165.32 127.24 164.97 126.45 165.32 C 125.67 165.67 125.31 166.59 125.66 167.38 L 126.05 168.26 C 126.40 169.05 127.32 169.40 128.11 169.05 C 128.90 168.70 129.25 167.78 128.90 166.99 Z M 128.58 166.29 L 128.29 165.33 C 128.04 164.50 127.17 164.04 126.34 164.29 C 125.52 164.53 125.05 165.41 125.30 166.23 L 125.59 167.20 C 125.84 168.02 126.71 168.49 127.54 168.24 C 128.36 167.99 128.83 167.12 128.58 166.29 Z M 128.33 165.50 L 128.15 164.52 C 128.00 163.67 127.18 163.11 126.33 163.27 C 125.49 163.42 124.93 164.24 125.08 165.09 L 125.26 166.06 C 125.42 166.91 126.23 167.47 127.08 167.32 C 127.93 167.16 128.49 166.35 128.33 165.50 Z M 128.17 164.65 L 128.07 163.66 C 127.98 162.80 127.22 162.18 126.36 162.26 C 125.50 162.35 124.88 163.12 124.96 163.97 L 125.06 164.96 C 125.15 165.82 125.92 166.44 126.77 166.36 C 127.63 166.27 128.26 165.50 128.17 164.65 Z M 128.08 163.73 L 128.02 162.76 C 127.98 161.90 127.24 161.24 126.38 161.28 C 125.52 161.33 124.86 162.06 124.91 162.92 L 124.96 163.90 C 125.00 164.76 125.74 165.42 126.60 165.37 C 127.46 165.33 128.12 164.59 128.08 163.73 Z M 128.03 162.83 L 128.02 161.85 C 128.01 160.99 127.31 160.30 126.45 160.30 C 125.58 160.31 124.89 161.01 124.90 161.87 L 124.90 162.85 C 124.91 163.71 125.61 164.41 126.48 164.40 C 127.34 164.39 128.03 163.69 128.03 162.83 Z M 128.02 161.95 L 128.07 160.95 C 128.12 160.09 127.46 159.35 126.60 159.31 C 125.74 159.26 125.01 159.91 124.96 160.77 L 124.90 161.77 C 124.85 162.63 125.51 163.37 126.37 163.42 C 127.23 163.47 127.97 162.81 128.02 161.95 Z M 128.06 161.08 L 128.20 160.05 C 128.32 159.20 127.73 158.41 126.87 158.29 C 126.02 158.17 125.23 158.76 125.11 159.62 L 124.97 160.65 C 124.85 161.50 125.45 162.29 126.30 162.41 C 127.15 162.53 127.94 161.93 128.06 161.08 Z M 128.18 160.18 L 128.38 159.28 C 128.57 158.44 128.04 157.60 127.20 157.41 C 126.36 157.22 125.53 157.75 125.34 158.59 L 125.13 159.49 C 124.95 160.33 125.47 161.17 126.32 161.36 C 127.16 161.55 127.99 161.02 128.18 160.18 Z M 128.36 159.38 L 128.63 158.47 C 128.88 157.64 128.41 156.77 127.58 156.52 C 126.76 156.27 125.89 156.74 125.64 157.57 L 125.36 158.49 C 125.12 159.31 125.59 160.18 126.41 160.43 C 127.24 160.68 128.11 160.21 128.36 159.38 Z M 128.60 158.56 L 128.95 157.61 C 129.25 156.80 128.83 155.90 128.02 155.60 C 127.21 155.31 126.32 155.72 126.02 156.53 L 125.67 157.48 C 125.37 158.29 125.79 159.19 126.60 159.48 C 127.41 159.78 128.30 159.37 128.60 158.56 Z M 128.92 157.69 L 129.34 156.71 C 129.68 155.91 129.31 155.00 128.52 154.66 C 127.73 154.32 126.81 154.68 126.47 155.47 L 126.05 156.45 C 125.71 157.25 126.08 158.16 126.87 158.50 C 127.66 158.84 128.58 158.48 128.92 157.69 Z M 129.31 156.77 L 129.77 155.82 C 130.14 155.05 129.82 154.11 129.04 153.74 C 128.26 153.36 127.33 153.69 126.96 154.47 L 126.50 155.41 C 126.12 156.19 126.45 157.12 127.23 157.50 C 128.00 157.87 128.94 157.55 129.31 156.77 Z M 129.74 155.87 L 130.22 154.96 C 130.62 154.20 130.33 153.25 129.56 152.85 C 128.80 152.45 127.86 152.75 127.46 153.51 L 126.98 154.42 C 126.58 155.18 126.87 156.13 127.64 156.53 C 128.40 156.93 129.34 156.63 129.74 155.87 Z M 130.20 155.00 L 130.71 154.09 C 131.13 153.34 130.85 152.39 130.10 151.97 C 129.35 151.55 128.40 151.82 127.98 152.57 L 127.48 153.48 C 127.06 154.23 127.33 155.18 128.08 155.60 C 128.83 156.02 129.78 155.75 130.20 155.00 Z M 130.69 154.12 L 131.20 153.25 C 131.63 152.50 131.38 151.55 130.64 151.11 C 129.89 150.68 128.94 150.93 128.50 151.67 L 127.99 152.55 C 127.56 153.29 127.81 154.25 128.56 154.68 C 129.30 155.12 130.26 154.86 130.69 154.12 Z M 131.19 153.27 L 131.68 152.45 C 132.13 151.71 131.89 150.75 131.15 150.30 C 130.42 149.86 129.46 150.09 129.01 150.83 L 128.51 151.65 C 128.07 152.39 128.31 153.35 129.04 153.80 C 129.78 154.24 130.74 154.01 131.19 153.27 Z M 131.67 152.46 L 132.23 151.57 C 132.69 150.83 132.46 149.87 131.73 149.42 C 131.00 148.96 130.04 149.18 129.58 149.92 L 129.02 150.81 C 128.57 151.55 128.79 152.51 129.52 152.96 C 130.25 153.42 131.22 153.19 131.67 152.46 Z M 132.22 151.59 L 132.78 150.71 C 133.25 149.98 133.04 149.01 132.31 148.55 C 131.59 148.08 130.62 148.29 130.16 149.02 L 129.59 149.90 C 129.13 150.62 129.34 151.59 130.06 152.06 C 130.79 152.52 131.75 152.31 132.22 151.59 Z M 132.77 150.72 L 133.30 149.93 C 133.78 149.21 133.58 148.24 132.86 147.76 C 132.14 147.29 131.17 147.48 130.70 148.20 L 130.17 149.00 C 129.69 149.72 129.89 150.69 130.61 151.16 C 131.33 151.64 132.29 151.44 132.77 150.72 Z M 133.29 149.94 L 133.81 149.18 C 134.29 148.47 134.10 147.50 133.39 147.01 C 132.68 146.53 131.71 146.72 131.22 147.43 L 130.71 148.19 C 130.22 148.90 130.41 149.87 131.12 150.36 C 131.84 150.84 132.81 150.65 133.29 149.94 Z M 133.80 149.19 L 134.36 148.39 C 134.85 147.68 134.67 146.71 133.96 146.22 C 133.25 145.73 132.28 145.90 131.79 146.61 L 131.23 147.42 C 130.74 148.13 130.92 149.10 131.63 149.59 C 132.34 150.08 133.31 149.90 133.80 149.19 Z M 134.35 148.40 L 134.92 147.59 C 135.42 146.88 135.25 145.91 134.55 145.41 C 133.84 144.91 132.87 145.08 132.37 145.79 L 131.80 146.60 C 131.30 147.30 131.47 148.28 132.17 148.77 C 132.87 149.27 133.85 149.10 134.35 148.40 Z M 134.91 147.61 L 135.50 146.79 C 136.01 146.10 135.85 145.12 135.16 144.61 C 134.46 144.10 133.48 144.26 132.98 144.95 L 132.38 145.77 C 131.88 146.46 132.03 147.44 132.73 147.95 C 133.42 148.46 134.40 148.30 134.91 147.61 Z M 135.48 146.82 L 136.09 146.02 C 136.61 145.33 136.47 144.35 135.79 143.83 C 135.10 143.31 134.12 143.44 133.60 144.13 L 132.99 144.93 C 132.47 145.62 132.61 146.60 133.30 147.12 C 133.98 147.64 134.96 147.50 135.48 146.82 Z M 136.07 146.04 L 136.69 145.26 C 137.22 144.58 137.10 143.60 136.43 143.06 C 135.75 142.53 134.77 142.65 134.23 143.32 L 133.62 144.11 C 133.08 144.78 133.20 145.77 133.88 146.30 C 134.56 146.83 135.54 146.72 136.07 146.04 Z M 136.67 145.28 L 137.30 144.50 C 137.85 143.83 137.75 142.85 137.08 142.30 C 136.41 141.76 135.43 141.86 134.88 142.53 L 134.25 143.30 C 133.71 143.97 133.81 144.96 134.47 145.50 C 135.14 146.05 136.13 145.94 136.67 145.28 Z M 137.29 144.52 L 137.94 143.75 C 138.49 143.09 138.41 142.10 137.74 141.55 C 137.08 140.99 136.10 141.08 135.55 141.74 L 134.90 142.51 C 134.34 143.17 134.43 144.15 135.09 144.71 C 135.75 145.26 136.73 145.18 137.29 144.52 Z M 137.92 143.76 L 138.51 143.08 C 139.08 142.43 139.00 141.44 138.35 140.88 C 137.70 140.31 136.71 140.39 136.15 141.04 L 135.56 141.72 C 135.00 142.37 135.07 143.36 135.72 143.92 C 136.37 144.49 137.36 144.42 137.92 143.76 Z M 138.49 143.10 L 139.11 142.41 C 139.69 141.77 139.64 140.78 139.00 140.21 C 138.36 139.63 137.37 139.68 136.79 140.32 L 136.17 141.02 C 135.59 141.66 135.65 142.64 136.29 143.22 C 136.93 143.80 137.92 143.74 138.49 143.10 Z M 139.09 142.44 L 139.78 141.70 C 140.38 141.08 140.35 140.09 139.72 139.50 C 139.09 138.90 138.10 138.93 137.51 139.56 L 136.82 140.30 C 136.23 140.92 136.25 141.91 136.88 142.50 C 137.51 143.09 138.50 143.07 139.09 142.44 Z M 139.76 141.73 L 140.56 140.93 C 141.16 140.32 141.16 139.33 140.55 138.72 C 139.94 138.11 138.95 138.11 138.34 138.73 L 137.54 139.53 C 136.93 140.14 136.94 141.13 137.55 141.74 C 138.16 142.35 139.15 142.34 139.76 141.73 Z M 140.53 140.95 L 141.21 140.30 C 141.83 139.70 141.85 138.71 141.25 138.09 C 140.65 137.47 139.66 137.45 139.04 138.05 L 138.37 138.70 C 137.74 139.30 137.73 140.29 138.32 140.91 C 138.92 141.53 139.91 141.55 140.53 140.95 Z M 141.19 140.32 L 141.90 139.66 C 142.53 139.07 142.57 138.08 141.98 137.45 C 141.39 136.82 140.41 136.78 139.77 137.37 L 139.06 138.03 C 138.43 138.62 138.39 139.61 138.98 140.24 C 139.57 140.87 140.55 140.91 141.19 140.32 Z M 141.88 139.68 L 142.63 139.00 C 143.28 138.43 143.33 137.44 142.76 136.80 C 142.19 136.16 141.20 136.10 140.56 136.67 L 139.80 137.35 C 139.15 137.92 139.10 138.91 139.67 139.55 C 140.25 140.20 141.23 140.25 141.88 139.68 Z M 142.61 139.03 L 143.40 138.35 C 144.05 137.80 144.13 136.81 143.58 136.15 C 143.02 135.50 142.03 135.42 141.38 135.98 L 140.58 136.65 C 139.93 137.21 139.85 138.19 140.41 138.85 C 140.97 139.51 141.95 139.59 142.61 139.03 Z M 143.36 138.38 L 144.17 137.73 C 144.85 137.19 144.95 136.21 144.41 135.54 C 143.87 134.86 142.89 134.76 142.22 135.30 L 141.41 135.95 C 140.74 136.49 140.63 137.47 141.17 138.14 C 141.71 138.82 142.69 138.92 143.36 138.38 Z M 144.13 137.76 L 144.97 137.14 C 145.66 136.62 145.80 135.64 145.28 134.95 C 144.76 134.26 143.79 134.12 143.10 134.64 L 142.26 135.26 C 141.57 135.78 141.43 136.76 141.95 137.45 C 142.46 138.14 143.44 138.28 144.13 137.76 Z M 144.91 137.18 L 145.80 136.57 C 146.51 136.08 146.69 135.11 146.21 134.40 C 145.72 133.69 144.75 133.51 144.04 133.99 L 143.15 134.60 C 142.44 135.09 142.26 136.06 142.74 136.77 C 143.23 137.48 144.20 137.66 144.91 137.18 Z M 145.74 136.61 L 146.62 136.07 C 147.35 135.62 147.58 134.66 147.13 133.92 C 146.68 133.19 145.71 132.96 144.98 133.41 L 144.10 133.95 C 143.37 134.40 143.14 135.36 143.59 136.10 C 144.04 136.83 145.00 137.06 145.74 136.61 Z M 146.54 136.11 L 147.41 135.64 C 148.17 135.23 148.45 134.28 148.04 133.52 C 147.63 132.76 146.68 132.48 145.92 132.90 L 145.05 133.37 C 144.29 133.78 144.01 134.73 144.43 135.49 C 144.84 136.24 145.79 136.52 146.54 136.11 Z M 147.33 135.68 L 148.19 135.28 C 148.97 134.91 149.30 133.98 148.94 133.20 C 148.57 132.42 147.64 132.08 146.86 132.45 L 146.00 132.86 C 145.22 133.22 144.89 134.15 145.25 134.93 C 145.62 135.71 146.55 136.05 147.33 135.68 Z M 148.10 135.32 L 148.97 134.97 C 149.77 134.65 150.17 133.75 149.85 132.95 C 149.53 132.14 148.63 131.75 147.83 132.07 L 146.95 132.41 C 146.15 132.73 145.75 133.63 146.07 134.44 C 146.39 135.24 147.29 135.63 148.10 135.32 Z M 148.86 135.01 L 149.87 134.70 C 150.69 134.45 151.15 133.57 150.90 132.75 C 150.64 131.92 149.77 131.46 148.95 131.72 L 147.94 132.03 C 147.11 132.28 146.65 133.15 146.91 133.98 C 147.16 134.80 148.03 135.26 148.86 135.01 Z M 149.74 134.73 L 150.73 134.51 C 151.57 134.33 152.10 133.49 151.92 132.65 C 151.73 131.81 150.90 131.28 150.06 131.46 L 149.07 131.68 C 148.23 131.87 147.70 132.70 147.88 133.55 C 148.07 134.39 148.90 134.92 149.74 134.73 Z M 150.61 134.53 L 151.58 134.40 C 152.43 134.28 153.03 133.49 152.90 132.63 C 152.78 131.78 151.99 131.18 151.14 131.31 L 150.17 131.44 C 149.32 131.56 148.73 132.36 148.85 133.21 C 148.97 134.06 149.76 134.66 150.61 134.53 Z M 151.47 134.41 L 152.41 134.34 C 153.27 134.28 153.92 133.53 153.86 132.67 C 153.80 131.81 153.05 131.17 152.19 131.23 L 151.25 131.29 C 150.39 131.36 149.74 132.10 149.80 132.96 C 149.86 133.82 150.61 134.47 151.47 134.41 Z M 152.30 134.35 L 153.30 134.35 C 154.16 134.35 154.86 133.65 154.86 132.79 C 154.86 131.92 154.16 131.22 153.30 131.22 L 152.30 131.22 C 151.44 131.22 150.74 131.92 150.74 132.78 C 150.74 133.65 151.44 134.35 152.30 134.35 Z M 153.15 134.34 L 154.13 134.44 C 154.98 134.52 155.75 133.89 155.83 133.03 C 155.92 132.18 155.29 131.41 154.43 131.33 L 153.45 131.23 C 152.60 131.15 151.83 131.77 151.75 132.63 C 151.66 133.49 152.29 134.25 153.15 134.34 Z M 153.93 134.40 L 154.90 134.62 C 155.74 134.82 156.57 134.29 156.77 133.45 C 156.96 132.61 156.43 131.77 155.59 131.58 L 154.63 131.36 C 153.79 131.17 152.95 131.69 152.76 132.53 C 152.56 133.37 153.09 134.21 153.93 134.40 Z M 154.68 134.56 L 155.62 134.93 C 156.42 135.24 157.33 134.84 157.64 134.04 C 157.96 133.23 157.56 132.33 156.75 132.02 L 155.81 131.65 C 155.01 131.34 154.10 131.73 153.79 132.54 C 153.48 133.34 153.87 134.24 154.68 134.56 Z M 155.43 134.84 L 156.24 135.28 C 156.99 135.70 157.94 135.43 158.36 134.68 C 158.78 133.92 158.51 132.97 157.75 132.55 L 156.94 132.11 C 156.19 131.69 155.24 131.96 154.82 132.71 C 154.40 133.47 154.68 134.42 155.43 134.84 Z M 156.11 135.20 L 156.91 135.76 C 157.62 136.25 158.59 136.07 159.08 135.36 C 159.57 134.66 159.39 133.68 158.69 133.19 L 157.89 132.64 C 157.18 132.14 156.20 132.32 155.71 133.03 C 155.22 133.74 155.40 134.71 156.11 135.20 Z M 156.81 135.68 L 157.60 136.33 C 158.27 136.87 159.25 136.77 159.79 136.11 C 160.34 135.44 160.24 134.46 159.57 133.91 L 158.78 133.26 C 158.12 132.72 157.13 132.82 156.59 133.49 C 156.04 134.15 156.14 135.14 156.81 135.68 Z M 157.53 136.26 L 158.30 136.98 C 158.93 137.57 159.92 137.53 160.51 136.90 C 161.09 136.26 161.05 135.28 160.42 134.69 L 159.65 133.97 C 159.01 133.39 158.03 133.43 157.44 134.06 C 156.85 134.69 156.89 135.68 157.53 136.26 Z M 158.25 136.93 L 158.96 137.66 C 159.56 138.27 160.55 138.28 161.17 137.68 C 161.78 137.07 161.79 136.09 161.19 135.47 L 160.47 134.74 C 159.87 134.13 158.88 134.12 158.27 134.72 C 157.65 135.32 157.64 136.31 158.25 136.93 Z M 158.92 137.61 L 159.58 138.34 C 160.16 138.98 161.14 139.03 161.78 138.45 C 162.42 137.87 162.47 136.88 161.89 136.24 L 161.23 135.52 C 160.65 134.88 159.67 134.83 159.03 135.41 C 158.39 135.99 158.34 136.97 158.92 137.61 Z M 159.54 138.30 L 160.18 139.06 C 160.74 139.72 161.72 139.80 162.38 139.25 C 163.04 138.69 163.13 137.71 162.57 137.05 L 161.93 136.29 C 161.37 135.63 160.39 135.54 159.73 136.10 C 159.07 136.65 158.99 137.64 159.54 138.30 Z M 160.15 139.02 L 160.77 139.81 C 161.30 140.49 162.28 140.61 162.96 140.08 C 163.64 139.54 163.76 138.56 163.23 137.88 L 162.61 137.09 C 162.07 136.41 161.09 136.29 160.41 136.83 C 159.73 137.36 159.62 138.34 160.15 139.02 Z M 160.73 139.77 L 161.33 140.59 C 161.84 141.28 162.82 141.44 163.51 140.93 C 164.21 140.42 164.36 139.44 163.86 138.75 L 163.26 137.93 C 162.75 137.23 161.77 137.08 161.08 137.59 C 160.38 138.09 160.23 139.07 160.73 139.77 Z M 161.30 140.55 L 161.87 141.38 C 162.36 142.10 163.33 142.28 164.04 141.80 C 164.76 141.31 164.94 140.34 164.46 139.63 L 163.89 138.79 C 163.40 138.08 162.43 137.89 161.72 138.38 C 161.00 138.86 160.82 139.83 161.30 140.55 Z M 161.85 141.34 L 162.38 142.19 C 162.85 142.92 163.81 143.13 164.54 142.67 C 165.27 142.21 165.48 141.25 165.02 140.52 L 164.48 139.67 C 164.02 138.94 163.06 138.73 162.33 139.19 C 161.60 139.65 161.38 140.61 161.85 141.34 Z M 162.36 142.15 L 162.87 143.02 C 163.31 143.76 164.27 144.00 165.01 143.56 C 165.75 143.12 166.00 142.17 165.56 141.43 L 165.05 140.56 C 164.61 139.82 163.65 139.57 162.91 140.01 C 162.17 140.45 161.92 141.41 162.36 142.15 Z M 162.85 142.97 L 163.33 143.85 C 163.75 144.61 164.70 144.88 165.45 144.47 C 166.21 144.05 166.48 143.10 166.07 142.35 L 165.58 141.47 C 165.17 140.71 164.22 140.44 163.46 140.85 C 162.71 141.27 162.43 142.22 162.85 142.97 Z M 163.31 143.81 L 163.76 144.69 C 164.15 145.46 165.09 145.77 165.86 145.38 C 166.63 144.99 166.93 144.05 166.54 143.28 L 166.09 142.39 C 165.70 141.62 164.76 141.32 163.99 141.71 C 163.22 142.10 162.92 143.04 163.31 143.81 Z M 163.73 144.65 L 164.16 145.55 C 164.52 146.33 165.45 146.67 166.23 146.31 C 167.01 145.94 167.35 145.01 166.99 144.23 L 166.56 143.33 C 166.20 142.55 165.27 142.21 164.49 142.57 C 163.71 142.94 163.37 143.86 163.73 144.65 Z M 164.13 145.50 L 164.53 146.45 C 164.87 147.24 165.78 147.61 166.58 147.28 C 167.37 146.94 167.75 146.03 167.41 145.23 L 167.01 144.29 C 166.68 143.49 165.76 143.12 164.96 143.45 C 164.17 143.79 163.80 144.70 164.13 145.50 Z M 164.51 146.39 L 164.87 147.34 C 165.17 148.14 166.07 148.55 166.88 148.25 C 167.69 147.94 168.09 147.04 167.79 146.24 L 167.43 145.29 C 167.13 144.48 166.23 144.08 165.42 144.38 C 164.61 144.68 164.21 145.58 164.51 146.39 Z M 164.85 147.28 L 165.16 148.22 C 165.43 149.04 166.31 149.48 167.13 149.21 C 167.95 148.94 168.39 148.06 168.12 147.24 L 167.81 146.30 C 167.54 145.48 166.66 145.03 165.84 145.30 C 165.02 145.58 164.58 146.46 164.85 147.28 Z M 165.14 148.16 L 165.41 149.10 C 165.64 149.93 166.51 150.41 167.34 150.17 C 168.16 149.94 168.65 149.07 168.41 148.24 L 168.14 147.30 C 167.91 146.47 167.04 145.99 166.21 146.23 C 165.38 146.46 164.90 147.33 165.14 148.16 Z M 165.39 149.03 L 165.62 149.99 C 165.82 150.83 166.66 151.35 167.50 151.15 C 168.33 150.95 168.85 150.11 168.66 149.27 L 168.43 148.31 C 168.23 147.47 167.39 146.95 166.55 147.15 C 165.71 147.35 165.19 148.19 165.39 149.03 Z M 165.60 149.92 L 165.79 150.93 C 165.95 151.77 166.77 152.33 167.61 152.17 C 168.46 152.01 169.02 151.19 168.86 150.35 L 168.67 149.34 C 168.51 148.50 167.69 147.94 166.85 148.10 C 166.00 148.26 165.44 149.08 165.60 149.92 Z M 165.78 150.86 L 165.92 151.85 C 166.04 152.71 166.84 153.30 167.69 153.18 C 168.54 153.05 169.14 152.26 169.01 151.41 L 168.87 150.41 C 168.75 149.56 167.96 148.97 167.10 149.09 C 166.25 149.21 165.66 150.00 165.78 150.86 Z M 165.91 151.79 L 166.02 152.78 C 166.10 153.63 166.87 154.26 167.73 154.17 C 168.59 154.08 169.21 153.31 169.12 152.46 L 169.02 151.47 C 168.93 150.61 168.17 149.99 167.31 150.08 C 166.45 150.17 165.83 150.93 165.91 151.79 Z M 166.01 152.72 L 166.08 153.70 C 166.13 154.56 166.88 155.21 167.74 155.15 C 168.60 155.09 169.25 154.35 169.19 153.49 L 169.13 152.51 C 169.07 151.65 168.33 151.00 167.46 151.06 C 166.60 151.12 165.95 151.86 166.01 152.72 Z M 166.07 153.64 L 166.11 154.64 C 166.14 155.50 166.86 156.17 167.72 156.15 C 168.58 156.12 169.26 155.39 169.23 154.53 L 169.20 153.54 C 169.17 152.68 168.44 152.00 167.58 152.03 C 166.72 152.06 166.05 152.78 166.07 153.64 Z M 166.11 154.56 L 166.09 155.55 C 166.08 156.42 166.77 157.13 167.63 157.14 C 168.49 157.15 169.20 156.46 169.22 155.60 L 169.23 154.61 C 169.24 153.74 168.55 153.04 167.69 153.02 C 166.83 153.01 166.12 153.70 166.11 154.56 Z M 166.10 155.45 L 166.02 156.44 C 165.95 157.30 166.60 158.05 167.46 158.12 C 168.32 158.19 169.07 157.54 169.13 156.69 L 169.21 155.70 C 169.28 154.84 168.63 154.09 167.78 154.02 C 166.92 153.95 166.16 154.60 166.10 155.45 Z M 166.04 156.32 L 165.88 157.31 C 165.74 158.16 166.32 158.96 167.18 159.10 C 168.03 159.23 168.83 158.65 168.96 157.80 L 169.12 156.81 C 169.25 155.96 168.67 155.16 167.82 155.02 C 166.97 154.89 166.17 155.47 166.04 156.32 Z M 165.91 157.18 L 165.68 158.10 C 165.47 158.93 165.98 159.78 166.82 159.99 C 167.65 160.20 168.50 159.69 168.71 158.85 L 168.94 157.93 C 169.14 157.10 168.63 156.25 167.80 156.04 C 166.96 155.83 166.11 156.34 165.91 157.18 Z M 165.71 157.97 L 165.43 158.82 C 165.15 159.63 165.59 160.52 166.41 160.79 C 167.23 161.07 168.11 160.63 168.39 159.81 L 168.67 158.97 C 168.95 158.16 168.51 157.27 167.69 156.99 C 166.87 156.72 165.99 157.16 165.71 157.97 Z M 165.47 158.71 L 165.11 159.58 C 164.77 160.38 165.15 161.29 165.94 161.62 C 166.74 161.96 167.65 161.58 167.99 160.79 L 168.35 159.92 C 168.68 159.12 168.31 158.21 167.51 157.88 C 166.72 157.54 165.80 157.92 165.47 158.71 Z M 165.15 159.49 L 164.70 160.39 C 164.32 161.17 164.64 162.10 165.41 162.49 C 166.18 162.87 167.12 162.55 167.50 161.78 L 167.95 160.87 C 168.33 160.10 168.01 159.16 167.24 158.78 C 166.46 158.40 165.53 158.72 165.15 159.49 Z M 164.74 160.32 L 164.20 161.27 C 163.78 162.02 164.05 162.98 164.80 163.40 C 165.55 163.82 166.51 163.55 166.93 162.80 L 167.46 161.85 C 167.88 161.10 167.62 160.15 166.86 159.72 C 166.11 159.30 165.16 159.57 164.74 160.32 Z M 164.24 161.22 L 163.65 162.17 C 163.19 162.90 163.42 163.87 164.15 164.32 C 164.89 164.77 165.85 164.55 166.30 163.81 L 166.89 162.86 C 167.35 162.12 167.12 161.16 166.39 160.71 C 165.65 160.26 164.69 160.48 164.24 161.22 Z M 163.67 162.13 L 163.15 162.93 C 162.67 163.65 162.87 164.62 163.59 165.09 C 164.31 165.57 165.28 165.37 165.75 164.65 L 166.28 163.85 C 166.75 163.13 166.55 162.17 165.84 161.69 C 165.12 161.21 164.15 161.41 163.67 162.13 Z M 163.17 162.90 L 162.60 163.72 C 162.11 164.43 162.28 165.40 162.99 165.89 C 163.70 166.38 164.67 166.21 165.16 165.50 L 165.73 164.68 C 166.22 163.97 166.05 163.00 165.34 162.51 C 164.63 162.01 163.66 162.19 163.17 162.90 Z M 162.62 163.69 L 162.02 164.52 C 161.51 165.22 161.67 166.20 162.37 166.70 C 163.07 167.21 164.04 167.05 164.55 166.35 L 165.15 165.52 C 165.65 164.82 165.49 163.85 164.80 163.34 C 164.10 162.84 163.12 162.99 162.62 163.69 Z M 162.03 164.50 L 161.41 165.33 C 160.90 166.02 161.04 166.99 161.73 167.51 C 162.42 168.03 163.39 167.89 163.91 167.20 L 164.53 166.37 C 165.05 165.68 164.91 164.70 164.22 164.19 C 163.53 163.67 162.55 163.81 162.03 164.50 Z M 161.43 165.30 L 160.80 166.12 C 160.27 166.80 160.39 167.78 161.07 168.31 C 161.75 168.84 162.74 168.71 163.26 168.03 L 163.90 167.22 C 164.42 166.54 164.30 165.56 163.62 165.03 C 162.94 164.50 161.96 164.62 161.43 165.30 Z M 160.82 166.09 L 160.19 166.88 C 159.65 167.55 159.75 168.53 160.42 169.07 C 161.09 169.61 162.08 169.51 162.62 168.84 L 163.25 168.05 C 163.79 167.38 163.68 166.40 163.01 165.86 C 162.34 165.32 161.36 165.42 160.82 166.09 Z M 160.20 166.85 L 159.56 167.63 C 159.01 168.29 159.09 169.27 159.75 169.83 C 160.42 170.38 161.40 170.29 161.95 169.63 L 162.60 168.86 C 163.15 168.20 163.06 167.21 162.40 166.66 C 161.74 166.11 160.76 166.19 160.20 166.85 Z M 159.58 167.60 L 158.86 168.43 C 158.29 169.08 158.35 170.06 159.00 170.63 C 159.65 171.20 160.64 171.13 161.21 170.49 L 161.93 169.66 C 162.50 169.01 162.43 168.02 161.78 167.45 C 161.14 166.89 160.15 166.95 159.58 167.60 Z M 158.88 168.40 L 158.18 169.17 C 157.59 169.80 157.63 170.79 158.27 171.37 C 158.90 171.96 159.89 171.92 160.47 171.28 L 161.18 170.51 C 161.76 169.88 161.72 168.89 161.09 168.31 C 160.45 167.72 159.47 167.77 158.88 168.40 Z M 158.20 169.14 L 157.51 169.85 C 156.91 170.47 156.93 171.46 157.55 172.06 C 158.17 172.66 159.16 172.64 159.76 172.02 L 160.45 171.31 C 161.05 170.69 161.03 169.70 160.41 169.10 C 159.79 168.50 158.80 168.52 158.20 169.14 Z M 157.54 169.83 L 156.86 170.50 C 156.25 171.11 156.24 172.10 156.85 172.71 C 157.45 173.32 158.44 173.33 159.05 172.72 L 159.73 172.05 C 160.35 171.44 160.35 170.45 159.75 169.84 C 159.14 169.23 158.15 169.22 157.54 169.83 Z M 156.88 170.48 L 156.21 171.12 C 155.58 171.71 155.56 172.70 156.15 173.33 C 156.74 173.95 157.73 173.98 158.36 173.38 L 159.03 172.74 C 159.66 172.15 159.68 171.16 159.09 170.54 C 158.49 169.91 157.51 169.89 156.88 170.48 Z M 156.23 171.10 L 155.52 171.75 C 154.88 172.33 154.84 173.32 155.42 173.95 C 156.00 174.59 156.99 174.63 157.63 174.05 L 158.34 173.40 C 158.97 172.82 159.02 171.83 158.43 171.20 C 157.85 170.56 156.86 170.52 156.23 171.10 Z M 155.54 171.73 L 154.77 172.41 C 154.13 172.98 154.07 173.96 154.64 174.61 C 155.21 175.26 156.19 175.32 156.84 174.75 L 157.61 174.07 C 158.25 173.50 158.31 172.51 157.74 171.87 C 157.17 171.22 156.19 171.16 155.54 171.73 Z M 154.80 172.38 L 154.03 173.03 C 153.37 173.59 153.28 174.57 153.84 175.23 C 154.40 175.89 155.38 175.98 156.04 175.42 L 156.81 174.77 C 157.47 174.21 157.56 173.23 157.00 172.57 C 156.44 171.91 155.46 171.83 154.80 172.38 Z M 154.06 173.01 L 153.28 173.63 C 152.61 174.16 152.50 175.15 153.03 175.82 C 153.57 176.50 154.55 176.61 155.23 176.07 L 156.01 175.45 C 156.68 174.91 156.79 173.93 156.25 173.25 C 155.72 172.58 154.74 172.47 154.06 173.01 Z M 153.32 173.60 L 152.53 174.18 C 151.84 174.70 151.70 175.68 152.22 176.37 C 152.73 177.06 153.71 177.20 154.40 176.69 L 155.19 176.10 C 155.88 175.58 156.02 174.61 155.51 173.91 C 154.99 173.22 154.01 173.08 153.32 173.60 Z M 152.58 174.15 L 151.77 174.71 C 151.06 175.20 150.89 176.17 151.38 176.88 C 151.87 177.59 152.84 177.77 153.55 177.28 L 154.36 176.72 C 155.06 176.23 155.24 175.26 154.75 174.55 C 154.26 173.84 153.29 173.66 152.58 174.15 Z M 151.83 174.67 L 150.97 175.21 C 150.24 175.67 150.02 176.63 150.48 177.36 C 150.94 178.09 151.90 178.31 152.63 177.85 L 153.49 177.32 C 154.22 176.86 154.44 175.89 153.98 175.16 C 153.52 174.43 152.56 174.21 151.83 174.67 Z M 151.04 175.17 L 150.17 175.65 C 149.42 176.07 149.15 177.02 149.57 177.78 C 149.99 178.53 150.94 178.80 151.69 178.38 L 152.56 177.89 C 153.32 177.48 153.59 176.52 153.17 175.77 C 152.75 175.02 151.80 174.75 151.04 175.17 Z M 150.25 175.61 L 149.36 176.04 C 148.58 176.41 148.26 177.35 148.63 178.12 C 149.00 178.90 149.94 179.23 150.71 178.85 L 151.61 178.42 C 152.38 178.05 152.71 177.12 152.34 176.34 C 151.96 175.56 151.03 175.24 150.25 175.61 Z M 149.45 176.00 L 148.53 176.37 C 147.73 176.69 147.35 177.60 147.67 178.40 C 147.99 179.20 148.90 179.59 149.70 179.27 L 150.62 178.90 C 151.42 178.57 151.81 177.66 151.49 176.86 C 151.16 176.06 150.25 175.68 149.45 176.00 Z M 148.64 176.33 L 147.70 176.63 C 146.88 176.90 146.43 177.78 146.69 178.60 C 146.96 179.42 147.84 179.87 148.66 179.60 L 149.59 179.30 C 150.41 179.04 150.87 178.16 150.60 177.34 C 150.34 176.52 149.46 176.07 148.64 176.33 Z M 147.80 176.60 L 146.86 176.84 C 146.02 177.05 145.51 177.89 145.72 178.73 C 145.92 179.57 146.77 180.08 147.61 179.87 L 148.55 179.63 C 149.39 179.43 149.90 178.58 149.69 177.74 C 149.49 176.91 148.64 176.40 147.80 176.60 Z M 146.95 176.82 L 145.97 177.00 C 145.13 177.16 144.57 177.97 144.72 178.82 C 144.88 179.67 145.70 180.23 146.55 180.07 L 147.52 179.89 C 148.37 179.73 148.93 178.92 148.77 178.07 C 148.61 177.22 147.79 176.66 146.95 176.82 Z M 146.05 176.99 L 145.06 177.12 C 144.20 177.23 143.60 178.02 143.72 178.87 C 143.83 179.73 144.62 180.33 145.47 180.21 L 146.47 180.08 C 147.32 179.97 147.92 179.18 147.81 178.33 C 147.69 177.47 146.91 176.87 146.05 176.99 Z M 145.12 177.11 L 144.10 177.21 C 143.25 177.28 142.61 178.04 142.69 178.90 C 142.77 179.76 143.53 180.39 144.39 180.31 L 145.40 180.22 C 146.26 180.14 146.90 179.38 146.82 178.53 C 146.74 177.67 145.98 177.03 145.12 177.11 Z M 144.16 177.20 L 143.12 177.26 C 142.25 177.31 141.60 178.04 141.64 178.90 C 141.69 179.76 142.43 180.42 143.29 180.38 L 144.33 180.32 C 145.19 180.27 145.85 179.53 145.80 178.67 C 145.76 177.81 145.02 177.15 144.16 177.20 Z M 143.17 177.26 L 142.10 177.28 C 141.24 177.30 140.56 178.02 140.58 178.88 C 140.60 179.74 141.31 180.42 142.17 180.40 L 143.24 180.38 C 144.10 180.36 144.78 179.64 144.76 178.78 C 144.74 177.92 144.03 177.24 143.17 177.26 Z M 142.16 177.28 L 141.11 177.27 C 140.25 177.26 139.54 177.95 139.53 178.81 C 139.52 179.67 140.21 180.38 141.07 180.39 L 142.12 180.40 C 142.98 180.41 143.69 179.72 143.70 178.86 C 143.71 178.00 143.02 177.29 142.16 177.28 Z M 141.18 177.27 L 140.17 177.22 C 139.31 177.17 138.58 177.83 138.53 178.69 C 138.49 179.56 139.15 180.29 140.01 180.34 L 141.01 180.39 C 141.87 180.43 142.61 179.77 142.65 178.91 C 142.70 178.05 142.04 177.32 141.18 177.27 Z M 140.25 177.22 L 139.32 177.13 C 138.46 177.04 137.70 177.66 137.61 178.52 C 137.52 179.38 138.14 180.14 139.00 180.23 L 139.93 180.33 C 140.79 180.42 141.56 179.80 141.64 178.94 C 141.73 178.08 141.11 177.31 140.25 177.22 Z M 139.43 177.14 L 138.50 176.98 C 137.65 176.83 136.84 177.39 136.69 178.24 C 136.54 179.09 137.11 179.90 137.96 180.05 L 138.89 180.22 C 139.74 180.37 140.55 179.80 140.70 178.95 C 140.85 178.10 140.28 177.29 139.43 177.14 Z M 138.66 177.01 L 137.72 176.75 C 136.90 176.51 136.03 176.99 135.80 177.82 C 135.56 178.65 136.04 179.51 136.87 179.75 L 137.80 180.02 C 138.63 180.25 139.49 179.77 139.73 178.94 C 139.97 178.11 139.49 177.25 138.66 177.01 Z M 137.89 176.80 L 137.01 176.45 C 136.21 176.12 135.30 176.50 134.98 177.30 C 134.65 178.10 135.03 179.01 135.83 179.34 L 136.71 179.70 C 137.51 180.02 138.42 179.64 138.74 178.84 C 139.07 178.04 138.69 177.13 137.89 176.80 Z M 137.13 176.50 L 136.22 176.04 C 135.45 175.65 134.51 175.96 134.12 176.73 C 133.73 177.50 134.04 178.44 134.81 178.83 L 135.71 179.28 C 136.48 179.67 137.42 179.37 137.81 178.60 C 138.20 177.83 137.90 176.89 137.13 176.50 Z M 136.28 176.07 L 135.40 175.58 C 134.65 175.16 133.69 175.43 133.27 176.18 C 132.86 176.94 133.13 177.89 133.88 178.31 L 134.76 178.80 C 135.51 179.22 136.46 178.95 136.88 178.19 C 137.30 177.44 137.03 176.49 136.28 176.07 Z M 135.42 175.60 L 134.58 175.10 C 133.83 174.67 132.87 174.92 132.44 175.66 C 132.01 176.41 132.26 177.37 133.00 177.80 L 133.85 178.29 C 134.60 178.73 135.55 178.48 135.99 177.73 C 136.42 176.98 136.17 176.03 135.42 175.60 Z M 134.60 175.12 L 133.72 174.58 C 132.98 174.13 132.02 174.37 131.57 175.11 C 131.13 175.84 131.36 176.80 132.10 177.25 L 132.98 177.79 C 133.72 178.23 134.68 178.00 135.12 177.26 C 135.57 176.52 135.34 175.56 134.60 175.12 Z M 133.74 174.60 L 132.87 174.04 C 132.14 173.58 131.17 173.79 130.71 174.52 C 130.25 175.25 130.47 176.21 131.19 176.68 L 132.07 177.23 C 132.80 177.70 133.76 177.48 134.23 176.75 C 134.69 176.02 134.47 175.06 133.74 174.60 Z M 132.90 174.06 L 132.06 173.50 C 131.35 173.02 130.38 173.21 129.90 173.92 C 129.42 174.64 129.61 175.61 130.32 176.09 L 131.16 176.65 C 131.87 177.13 132.84 176.94 133.33 176.23 C 133.81 175.51 133.62 174.54 132.90 174.06 Z M 132.11 173.53 L 131.24 172.90 C 130.55 172.39 129.57 172.55 129.06 173.24 C 128.55 173.94 128.71 174.92 129.41 175.42 L 130.27 176.06 C 130.97 176.56 131.95 176.41 132.45 175.71 C 132.96 175.02 132.81 174.04 132.11 173.53 Z M 131.31 172.95 L 130.47 172.27 C 129.80 171.73 128.82 171.83 128.27 172.50 C 127.73 173.18 127.84 174.16 128.51 174.70 L 129.34 175.38 C 130.01 175.92 131.00 175.81 131.54 175.14 C 132.08 174.47 131.98 173.49 131.31 172.95 Z M 130.53 172.33 L 129.80 171.67 C 129.16 171.10 128.18 171.15 127.60 171.79 C 127.02 172.43 127.08 173.42 127.72 173.99 L 128.44 174.65 C 129.09 175.22 130.07 175.17 130.65 174.53 C 131.22 173.89 131.17 172.90 130.53 172.33 Z M 129.86 171.72 L 129.21 171.09 C 128.60 170.48 127.61 170.49 127.01 171.10 C 126.40 171.71 126.41 172.70 127.02 173.31 L 127.66 173.94 C 128.28 174.55 129.27 174.54 129.87 173.93 C 130.48 173.32 130.47 172.33 129.86 171.72 Z M 129.25 171.13 L 128.59 170.42 C 128.00 169.79 127.01 169.76 126.38 170.35 C 125.75 170.94 125.72 171.93 126.31 172.56 L 126.98 173.27 C 127.57 173.89 128.56 173.93 129.19 173.33 C 129.81 172.74 129.84 171.76 129.25 171.13 Z M 128.63 170.46 L 127.96 169.70 C 127.40 169.05 126.41 168.99 125.76 169.55 C 125.11 170.12 125.04 171.11 125.61 171.76 L 126.27 172.51 C 126.84 173.16 127.83 173.23 128.48 172.66 C 129.13 172.10 129.19 171.11 128.63 170.46 Z M 128.00 169.75 L 127.38 168.98 C 126.84 168.31 125.86 168.21 125.19 168.75 C 124.52 169.29 124.41 170.27 124.95 170.94 L 125.57 171.71 C 126.11 172.38 127.10 172.49 127.77 171.94 C 128.44 171.40 128.54 170.42 128.00 169.75 Z M 127.42 169.03 L 126.86 168.28 C 126.35 167.59 125.37 167.44 124.68 167.96 C 123.98 168.47 123.84 169.45 124.36 170.14 L 124.92 170.90 C 125.43 171.59 126.41 171.73 127.10 171.22 C 127.79 170.70 127.94 169.72 127.42 169.03 Z M 126.90 168.33 L 126.39 167.58 C 125.91 166.86 124.94 166.68 124.22 167.16 C 123.51 167.64 123.32 168.61 123.80 169.33 L 124.31 170.08 C 124.80 170.80 125.77 170.99 126.48 170.50 C 127.20 170.02 127.38 169.05 126.90 168.33 Z M 126.44 167.65 L 125.93 166.81 C 125.49 166.07 124.53 165.82 123.79 166.26 C 123.05 166.70 122.81 167.66 123.25 168.40 L 123.76 169.25 C 124.20 169.99 125.15 170.24 125.90 169.79 C 126.64 169.35 126.88 168.40 126.44 167.65 Z M 125.98 166.89 L 125.47 165.90 C 125.07 165.13 124.13 164.83 123.36 165.22 C 122.60 165.62 122.30 166.56 122.69 167.33 L 123.20 168.32 C 123.60 169.09 124.54 169.39 125.31 168.99 C 126.07 168.60 126.37 167.66 125.98 166.89 Z M 125.50 165.96 L 125.12 165.12 C 124.76 164.34 123.83 163.99 123.05 164.35 C 122.26 164.71 121.92 165.64 122.28 166.42 L 122.66 167.26 C 123.02 168.04 123.94 168.39 124.73 168.03 C 125.51 167.67 125.86 166.75 125.50 165.96 Z M 125.13 165.16 L 124.76 164.29 C 124.43 163.49 123.51 163.12 122.72 163.46 C 121.92 163.80 121.55 164.71 121.89 165.51 L 122.26 166.38 C 122.59 167.18 123.51 167.55 124.31 167.21 C 125.10 166.87 125.47 165.96 125.13 165.16 Z M 124.77 164.31 L 124.40 163.38 C 124.08 162.58 123.17 162.19 122.37 162.51 C 121.57 162.83 121.18 163.74 121.50 164.54 L 121.88 165.48 C 122.20 166.28 123.11 166.67 123.91 166.35 C 124.71 166.02 125.10 165.11 124.77 164.31 Z M 124.40 163.39 L 124.02 162.41 C 123.71 161.61 122.81 161.21 122.00 161.53 C 121.20 161.84 120.80 162.74 121.11 163.55 L 121.49 164.53 C 121.81 165.33 122.71 165.73 123.52 165.41 C 124.32 165.10 124.72 164.20 124.40 163.39 Z M 124.03 162.42 L 123.64 161.42 C 123.33 160.62 122.43 160.21 121.63 160.52 C 120.82 160.83 120.42 161.73 120.73 162.54 L 121.11 163.54 C 121.42 164.34 122.32 164.75 123.13 164.44 C 123.93 164.13 124.33 163.23 124.03 162.42 Z M 123.64 161.42 L 123.55 161.17 C 123.24 160.36 122.34 159.96 121.53 160.27 C 120.73 160.57 120.32 161.48 120.63 162.28 L 120.73 162.53 C 121.03 163.34 121.93 163.74 122.74 163.44 C 123.55 163.13 123.95 162.23 123.64 161.42 Z"
      fill="black"
      fill-rule="nonzero" /></svg>