<svg xmlns="http://www.w3.org/2000/svg" width="300" height="300" viewBox="0 0 300 300">
<path d="M 137.06 171.45 L 136.74 170.48 C 136.48 169.66 135.60 169.21 134.78 169.47 C 133.96 169.74 133.51 170.62 133.77 171.44 L 134.08 172.41 C 134.35 173.23 135.23 173.68 136.05 173.42 C 136.87 173.15 137.32 172.28 137.06 171.45 Z M 136.75 170.50 L 136.45 169.53 C 136.20 168.71 135.32 168.25 134.50 168.50 C 133.68 168.75 133.21 169.63 133.47 170.45 L 133.77 171.42 C 134.02 172.24 134.89 172.71 135.72 172.45 C 136.54 172.20 137.00 171.32 136.75 170.50 Z M 136.46 169.57 L 136.19 168.60 C 135.96 167.77 135.09 167.29 134.26 167.52 C 133.43 167.76 132.95 168.62 133.19 169.45 L 133.46 170.41 C 133.69 171.24 134.55 171.73 135.38 171.49 C 136.21 171.26 136.70 170.40 136.46 169.57 Z M 136.21 168.66 L 135.97 167.70 C 135.77 166.87 134.93 166.35 134.09 166.55 C 133.25 166.76 132.74 167.60 132.94 168.44 L 133.17 169.39 C 133.37 170.23 134.22 170.75 135.05 170.54 C 135.89 170.34 136.41 169.50 136.21 168.66 Z M 135.99 167.79 L 135.81 166.81 C 135.65 165.96 134.84 165.40 133.99 165.56 C 133.14 165.71 132.58 166.53 132.74 167.38 L 132.92 168.36 C 133.08 169.20 133.89 169.76 134.74 169.61 C 135.59 169.45 136.15 168.63 135.99 167.79 Z M 135.82 166.90 L 135.70 165.88 C 135.59 165.02 134.81 164.41 133.96 164.52 C 133.10 164.62 132.49 165.40 132.60 166.26 L 132.73 167.28 C 132.83 168.14 133.61 168.75 134.47 168.64 C 135.32 168.53 135.93 167.76 135.82 166.90 Z M 135.71 165.96 L 135.63 164.95 C 135.57 164.09 134.83 163.44 133.97 163.51 C 133.11 163.57 132.46 164.31 132.52 165.17 L 132.59 166.18 C 132.65 167.04 133.40 167.69 134.26 167.62 C 135.12 167.56 135.77 166.82 135.71 165.96 Z M 135.64 165.01 L 135.61 164.03 C 135.58 163.17 134.86 162.49 134.00 162.52 C 133.14 162.55 132.46 163.27 132.49 164.13 L 132.52 165.11 C 132.54 165.97 133.26 166.65 134.13 166.62 C 134.99 166.60 135.66 165.88 135.64 165.01 Z M 135.61 164.07 L 135.60 163.11 C 135.60 162.25 134.89 161.55 134.03 161.56 C 133.17 161.56 132.47 162.27 132.48 163.13 L 132.49 164.09 C 132.49 164.95 133.19 165.65 134.06 165.64 C 134.92 165.64 135.61 164.94 135.61 164.07 Z M 135.60 163.15 L 135.62 162.15 C 135.63 161.29 134.94 160.58 134.08 160.57 C 133.22 160.55 132.51 161.24 132.50 162.10 L 132.48 163.09 C 132.47 163.96 133.15 164.67 134.01 164.68 C 134.88 164.69 135.59 164.01 135.60 163.15 Z M 135.61 162.23 L 135.68 161.25 C 135.73 160.39 135.08 159.65 134.22 159.59 C 133.36 159.54 132.61 160.19 132.56 161.05 L 132.50 162.03 C 132.44 162.89 133.10 163.63 133.96 163.69 C 134.82 163.74 135.56 163.09 135.61 162.23 Z M 135.67 161.36 L 135.80 160.37 C 135.92 159.52 135.32 158.73 134.47 158.62 C 133.61 158.50 132.82 159.10 132.71 159.95 L 132.57 160.94 C 132.45 161.79 133.05 162.58 133.91 162.70 C 134.76 162.81 135.55 162.22 135.67 161.36 Z M 135.78 160.51 L 136.00 159.54 C 136.19 158.70 135.67 157.86 134.83 157.67 C 133.99 157.47 133.15 158.00 132.96 158.84 L 132.73 159.81 C 132.54 160.65 133.06 161.49 133.90 161.68 C 134.74 161.88 135.58 161.35 135.78 160.51 Z M 135.96 159.67 L 136.24 158.80 C 136.51 157.98 136.06 157.10 135.23 156.84 C 134.41 156.58 133.53 157.03 133.27 157.85 L 132.99 158.71 C 132.73 159.53 133.18 160.41 134.00 160.67 C 134.82 160.94 135.70 160.49 135.96 159.67 Z M 136.21 158.90 L 136.56 158.01 C 136.88 157.21 136.49 156.30 135.68 155.98 C 134.88 155.66 133.97 156.06 133.66 156.86 L 133.30 157.75 C 132.99 158.55 133.38 159.46 134.18 159.78 C 134.98 160.10 135.89 159.70 136.21 158.90 Z M 136.53 158.08 L 136.95 157.16 C 137.31 156.38 136.97 155.45 136.18 155.09 C 135.40 154.73 134.47 155.08 134.11 155.86 L 133.69 156.78 C 133.33 157.57 133.68 158.49 134.46 158.85 C 135.24 159.21 136.17 158.87 136.53 158.08 Z M 136.92 157.22 L 137.41 156.26 C 137.80 155.49 137.50 154.55 136.73 154.16 C 135.96 153.77 135.02 154.07 134.63 154.84 L 134.14 155.80 C 133.75 156.57 134.05 157.51 134.82 157.90 C 135.59 158.29 136.53 157.99 136.92 157.22 Z M 137.39 156.31 L 137.91 155.37 C 138.33 154.61 138.05 153.66 137.30 153.25 C 136.54 152.83 135.59 153.10 135.18 153.86 L 134.66 154.80 C 134.24 155.55 134.51 156.50 135.27 156.92 C 136.02 157.34 136.97 157.06 137.39 156.31 Z M 137.89 155.40 L 138.41 154.51 C 138.85 153.77 138.60 152.81 137.85 152.37 C 137.11 151.94 136.15 152.19 135.72 152.93 L 135.19 153.82 C 134.76 154.57 135.01 155.52 135.75 155.96 C 136.50 156.39 137.45 156.14 137.89 155.40 Z M 138.39 154.54 L 138.94 153.65 C 139.39 152.91 139.16 151.95 138.42 151.50 C 137.69 151.05 136.72 151.28 136.27 152.02 L 135.73 152.91 C 135.28 153.64 135.51 154.60 136.25 155.05 C 136.98 155.50 137.94 155.27 138.39 154.54 Z M 138.92 153.67 L 139.47 152.81 C 139.94 152.08 139.72 151.11 138.99 150.65 C 138.27 150.19 137.30 150.40 136.84 151.13 L 136.29 152.00 C 135.83 152.72 136.04 153.69 136.77 154.15 C 137.50 154.61 138.46 154.40 138.92 153.67 Z M 139.46 152.83 L 140.00 152.00 C 140.48 151.28 140.28 150.32 139.56 149.84 C 138.84 149.37 137.87 149.57 137.39 150.29 L 136.85 151.11 C 136.38 151.83 136.58 152.80 137.30 153.27 C 138.02 153.75 138.99 153.55 139.46 152.83 Z M 139.99 152.03 L 140.50 151.27 C 140.99 150.55 140.81 149.58 140.09 149.10 C 139.38 148.61 138.41 148.80 137.92 149.51 L 137.41 150.27 C 136.92 150.98 137.11 151.95 137.82 152.44 C 138.53 152.92 139.50 152.74 139.99 152.03 Z M 140.49 151.29 L 141.15 150.36 C 141.65 149.65 141.49 148.68 140.79 148.18 C 140.08 147.68 139.11 147.84 138.61 148.55 L 137.94 149.48 C 137.44 150.18 137.61 151.16 138.31 151.66 C 139.01 152.16 139.99 152.00 140.49 151.29 Z M 141.13 150.39 L 141.74 149.57 C 142.26 148.88 142.12 147.90 141.43 147.39 C 140.74 146.87 139.76 147.01 139.25 147.70 L 138.63 148.51 C 138.12 149.20 138.25 150.18 138.94 150.70 C 139.63 151.22 140.61 151.08 141.13 150.39 Z M 141.72 149.60 L 142.29 148.87 C 142.83 148.19 142.71 147.21 142.03 146.68 C 141.36 146.15 140.37 146.26 139.84 146.94 L 139.27 147.67 C 138.73 148.35 138.85 149.33 139.53 149.86 C 140.21 150.39 141.19 150.28 141.72 149.60 Z M 142.28 148.89 L 142.84 148.21 C 143.38 147.54 143.28 146.55 142.61 146.01 C 141.94 145.47 140.96 145.57 140.41 146.24 L 139.86 146.92 C 139.31 147.59 139.41 148.57 140.08 149.12 C 140.75 149.66 141.74 149.56 142.28 148.89 Z M 142.82 148.22 L 143.40 147.53 C 143.95 146.87 143.86 145.88 143.20 145.33 C 142.54 144.78 141.56 144.87 141.00 145.53 L 140.43 146.22 C 139.87 146.88 139.96 147.87 140.62 148.42 C 141.29 148.97 142.27 148.88 142.82 148.22 Z M 143.37 147.57 L 144.00 146.85 C 144.57 146.21 144.52 145.22 143.87 144.65 C 143.23 144.08 142.24 144.14 141.67 144.78 L 141.04 145.49 C 140.46 146.14 140.52 147.12 141.16 147.70 C 141.81 148.27 142.80 148.21 143.37 147.57 Z M 143.95 146.91 L 144.69 146.15 C 145.29 145.53 145.28 144.54 144.66 143.94 C 144.04 143.34 143.06 143.35 142.45 143.97 L 141.72 144.73 C 141.12 145.35 141.13 146.33 141.75 146.94 C 142.36 147.54 143.35 147.52 143.95 146.91 Z M 144.64 146.20 L 145.41 145.48 C 146.04 144.89 146.07 143.90 145.48 143.27 C 144.89 142.64 143.91 142.61 143.28 143.20 L 142.51 143.92 C 141.88 144.51 141.84 145.50 142.43 146.13 C 143.02 146.76 144.01 146.79 144.64 146.20 Z M 145.36 145.52 L 146.07 144.91 C 146.72 144.35 146.80 143.36 146.23 142.71 C 145.67 142.06 144.68 141.98 144.03 142.55 L 143.32 143.16 C 142.67 143.72 142.60 144.71 143.16 145.36 C 143.73 146.01 144.71 146.09 145.36 145.52 Z M 146.03 144.94 L 146.80 144.32 C 147.48 143.78 147.58 142.80 147.04 142.13 C 146.50 141.45 145.52 141.35 144.85 141.89 L 144.07 142.51 C 143.40 143.05 143.29 144.04 143.83 144.71 C 144.37 145.38 145.36 145.49 146.03 144.94 Z M 146.76 144.36 L 147.59 143.74 C 148.28 143.23 148.42 142.25 147.91 141.56 C 147.39 140.87 146.42 140.72 145.72 141.24 L 144.90 141.85 C 144.20 142.36 144.06 143.34 144.57 144.03 C 145.09 144.73 146.06 144.87 146.76 144.36 Z M 147.53 143.78 L 148.40 143.20 C 149.11 142.71 149.30 141.74 148.82 141.03 C 148.33 140.31 147.36 140.13 146.65 140.61 L 145.78 141.20 C 145.07 141.68 144.88 142.65 145.36 143.36 C 145.84 144.08 146.81 144.27 147.53 143.78 Z M 148.33 143.24 L 149.22 142.71 C 149.96 142.26 150.20 141.30 149.75 140.56 C 149.31 139.82 148.35 139.59 147.61 140.03 L 146.72 140.56 C 145.98 141.01 145.74 141.97 146.18 142.71 C 146.63 143.45 147.59 143.69 148.33 143.24 Z M 149.13 142.75 L 150.04 142.28 C 150.80 141.89 151.10 140.94 150.70 140.18 C 150.31 139.41 149.36 139.11 148.60 139.51 L 147.69 139.98 C 146.93 140.38 146.63 141.32 147.03 142.09 C 147.43 142.85 148.37 143.15 149.13 142.75 Z M 149.95 142.33 L 150.86 141.92 C 151.65 141.58 152.01 140.66 151.67 139.87 C 151.32 139.08 150.40 138.72 149.61 139.06 L 148.69 139.47 C 147.90 139.81 147.54 140.74 147.89 141.53 C 148.24 142.31 149.16 142.67 149.95 142.33 Z M 150.77 141.96 L 151.70 141.62 C 152.51 141.33 152.93 140.43 152.64 139.62 C 152.34 138.81 151.45 138.39 150.64 138.69 L 149.70 139.03 C 148.89 139.32 148.47 140.22 148.77 141.03 C 149.06 141.84 149.96 142.26 150.77 141.96 Z M 151.61 141.65 L 152.56 141.38 C 153.38 141.14 153.86 140.27 153.62 139.44 C 153.38 138.61 152.51 138.14 151.68 138.38 L 150.73 138.66 C 149.91 138.90 149.43 139.76 149.67 140.59 C 149.91 141.42 150.78 141.90 151.61 141.65 Z M 152.46 141.40 L 153.43 141.19 C 154.27 141.00 154.80 140.16 154.61 139.32 C 154.42 138.48 153.59 137.95 152.75 138.14 L 151.78 138.36 C 150.94 138.54 150.41 139.38 150.60 140.22 C 150.78 141.06 151.62 141.59 152.46 141.40 Z M 153.33 141.20 L 154.37 141.04 C 155.22 140.90 155.80 140.10 155.67 139.25 C 155.53 138.40 154.73 137.82 153.88 137.95 L 152.84 138.12 C 151.99 138.26 151.41 139.06 151.55 139.91 C 151.68 140.76 152.48 141.34 153.33 141.20 Z M 154.28 141.05 L 155.34 140.94 C 156.19 140.86 156.82 140.09 156.73 139.23 C 156.65 138.38 155.88 137.75 155.02 137.84 L 153.97 137.94 C 153.11 138.03 152.49 138.79 152.57 139.65 C 152.66 140.51 153.42 141.14 154.28 141.05 Z M 155.25 140.95 L 156.28 140.90 C 157.14 140.87 157.81 140.14 157.77 139.28 C 157.73 138.41 157.00 137.75 156.14 137.78 L 155.11 137.83 C 154.25 137.87 153.58 138.60 153.62 139.46 C 153.66 140.32 154.39 140.99 155.25 140.95 Z M 156.19 140.91 L 157.17 140.92 C 158.04 140.93 158.74 140.24 158.75 139.38 C 158.76 138.51 158.07 137.81 157.21 137.80 L 156.23 137.78 C 155.37 137.77 154.66 138.46 154.65 139.33 C 154.64 140.19 155.33 140.90 156.19 140.91 Z M 157.08 140.91 L 157.98 140.98 C 158.84 141.05 159.59 140.40 159.65 139.54 C 159.72 138.68 159.07 137.93 158.21 137.87 L 157.31 137.80 C 156.45 137.74 155.70 138.38 155.64 139.24 C 155.57 140.10 156.22 140.85 157.08 140.91 Z M 157.85 140.97 L 158.82 141.12 C 159.67 141.26 160.47 140.68 160.61 139.83 C 160.74 138.98 160.16 138.17 159.31 138.04 L 158.34 137.88 C 157.49 137.75 156.69 138.33 156.56 139.18 C 156.42 140.03 157.00 140.83 157.85 140.97 Z M 158.63 141.08 L 159.54 141.34 C 160.37 141.58 161.24 141.10 161.47 140.27 C 161.71 139.44 161.23 138.58 160.40 138.34 L 159.49 138.08 C 158.66 137.84 157.80 138.32 157.56 139.15 C 157.33 139.98 157.81 140.84 158.63 141.08 Z M 159.36 141.27 L 160.24 141.65 C 161.03 141.99 161.95 141.62 162.29 140.83 C 162.62 140.04 162.26 139.12 161.46 138.78 L 160.59 138.40 C 159.79 138.06 158.88 138.43 158.54 139.22 C 158.20 140.02 158.56 140.94 159.36 141.27 Z M 160.10 141.59 L 161.03 142.09 C 161.79 142.51 162.74 142.23 163.15 141.47 C 163.57 140.72 163.29 139.77 162.53 139.35 L 161.60 138.84 C 160.84 138.43 159.89 138.71 159.48 139.47 C 159.07 140.22 159.34 141.17 160.10 141.59 Z M 160.97 142.06 L 161.79 142.56 C 162.52 143.01 163.48 142.78 163.93 142.04 C 164.38 141.31 164.15 140.35 163.42 139.89 L 162.60 139.39 C 161.86 138.94 160.90 139.17 160.45 139.91 C 160.00 140.64 160.23 141.60 160.97 142.06 Z M 161.75 142.53 L 162.58 143.08 C 163.31 143.55 164.27 143.34 164.74 142.62 C 165.21 141.90 165.01 140.93 164.29 140.46 L 163.45 139.92 C 162.73 139.45 161.76 139.65 161.29 140.37 C 160.82 141.10 161.03 142.06 161.75 142.53 Z M 162.56 143.06 L 163.41 143.64 C 164.13 144.13 165.10 143.95 165.58 143.24 C 166.07 142.52 165.89 141.55 165.17 141.07 L 164.32 140.48 C 163.60 139.99 162.63 140.18 162.15 140.89 C 161.66 141.60 161.84 142.57 162.56 143.06 Z M 163.39 143.63 L 164.24 144.23 C 164.94 144.73 165.91 144.57 166.41 143.87 C 166.92 143.16 166.75 142.19 166.05 141.69 L 165.20 141.08 C 164.50 140.58 163.52 140.75 163.02 141.45 C 162.52 142.15 162.69 143.13 163.39 143.63 Z M 164.21 144.21 L 165.02 144.81 C 165.71 145.33 166.69 145.19 167.20 144.49 C 167.72 143.80 167.57 142.82 166.88 142.31 L 166.08 141.71 C 165.38 141.19 164.41 141.34 163.89 142.03 C 163.38 142.72 163.52 143.70 164.21 144.21 Z M 164.98 144.79 L 165.84 145.46 C 166.52 146.00 167.50 145.88 168.04 145.20 C 168.57 144.52 168.45 143.54 167.77 143.01 L 166.92 142.33 C 166.24 141.80 165.26 141.92 164.72 142.60 C 164.19 143.27 164.31 144.26 164.98 144.79 Z M 165.80 145.43 L 166.63 146.13 C 167.29 146.68 168.28 146.60 168.83 145.94 C 169.39 145.28 169.30 144.29 168.64 143.74 L 167.81 143.04 C 167.15 142.49 166.17 142.57 165.61 143.23 C 165.06 143.89 165.14 144.88 165.80 145.43 Z M 166.60 146.10 L 167.32 146.75 C 167.97 147.32 168.95 147.26 169.53 146.62 C 170.10 145.98 170.05 144.99 169.40 144.42 L 168.68 143.77 C 168.03 143.20 167.05 143.25 166.47 143.89 C 165.90 144.54 165.96 145.52 166.60 146.10 Z M 167.30 146.73 L 167.96 147.33 C 168.59 147.92 169.57 147.88 170.16 147.25 C 170.75 146.62 170.71 145.63 170.08 145.05 L 169.43 144.44 C 168.80 143.85 167.81 143.89 167.22 144.52 C 166.63 145.15 166.67 146.14 167.30 146.73 Z M 167.95 147.33 L 168.61 147.95 C 169.24 148.54 170.22 148.51 170.81 147.88 C 171.41 147.26 171.38 146.27 170.75 145.68 L 170.09 145.05 C 169.46 144.46 168.47 144.49 167.88 145.12 C 167.29 145.75 167.32 146.73 167.95 147.33 Z M 168.59 147.93 L 169.27 148.59 C 169.89 149.19 170.88 149.17 171.48 148.55 C 172.08 147.94 172.06 146.95 171.44 146.35 L 170.76 145.69 C 170.15 145.09 169.16 145.11 168.56 145.73 C 167.96 146.35 167.97 147.33 168.59 147.93 Z M 169.23 148.55 L 169.92 149.27 C 170.52 149.89 171.51 149.91 172.13 149.31 C 172.75 148.71 172.77 147.72 172.17 147.10 L 171.48 146.39 C 170.88 145.77 169.90 145.75 169.27 146.34 C 168.65 146.94 168.63 147.93 169.23 148.55 Z M 169.87 149.21 L 170.58 150.03 C 171.15 150.68 172.14 150.75 172.79 150.18 C 173.44 149.61 173.50 148.63 172.94 147.98 L 172.22 147.16 C 171.66 146.51 170.67 146.44 170.02 147.01 C 169.37 147.57 169.30 148.56 169.87 149.21 Z M 170.54 149.98 L 171.10 150.69 C 171.64 151.36 172.62 151.47 173.30 150.94 C 173.97 150.40 174.08 149.42 173.55 148.74 L 172.98 148.03 C 172.44 147.36 171.46 147.25 170.79 147.78 C 170.11 148.32 170.00 149.30 170.54 149.98 Z M 171.07 150.64 L 171.65 151.43 C 172.16 152.12 173.14 152.27 173.83 151.76 C 174.53 151.25 174.67 150.27 174.16 149.57 L 173.58 148.79 C 173.07 148.09 172.09 147.95 171.40 148.46 C 170.70 148.97 170.56 149.95 171.07 150.64 Z M 171.62 151.38 L 172.19 152.23 C 172.68 152.94 173.65 153.12 174.36 152.64 C 175.07 152.15 175.26 151.18 174.77 150.47 L 174.19 149.62 C 173.71 148.91 172.74 148.73 172.03 149.21 C 171.31 149.70 171.13 150.67 171.62 151.38 Z M 172.16 152.18 L 172.72 153.07 C 173.17 153.80 174.14 154.02 174.87 153.56 C 175.60 153.11 175.82 152.14 175.36 151.41 L 174.81 150.52 C 174.35 149.79 173.39 149.57 172.65 150.02 C 171.92 150.48 171.70 151.45 172.16 152.18 Z M 172.68 153.01 L 173.20 153.92 C 173.62 154.67 174.58 154.94 175.33 154.51 C 176.08 154.09 176.34 153.14 175.92 152.38 L 175.40 151.47 C 174.97 150.72 174.02 150.46 173.27 150.88 C 172.52 151.31 172.26 152.26 172.68 153.01 Z M 173.16 153.86 L 173.62 154.77 C 174.01 155.54 174.95 155.85 175.72 155.46 C 176.49 155.07 176.80 154.13 176.41 153.36 L 175.95 152.45 C 175.56 151.68 174.63 151.37 173.86 151.76 C 173.09 152.15 172.78 153.08 173.16 153.86 Z M 173.59 154.70 L 174.00 155.62 C 174.34 156.41 175.27 156.77 176.05 156.42 C 176.84 156.07 177.20 155.15 176.85 154.36 L 176.44 153.43 C 176.10 152.65 175.17 152.29 174.39 152.64 C 173.60 152.99 173.24 153.91 173.59 154.70 Z M 173.96 155.54 L 174.32 156.48 C 174.63 157.28 175.53 157.69 176.33 157.38 C 177.14 157.07 177.54 156.17 177.24 155.37 L 176.88 154.43 C 176.58 153.63 175.68 153.22 174.87 153.53 C 174.06 153.84 173.66 154.74 173.96 155.54 Z M 174.29 156.39 L 174.59 157.33 C 174.85 158.15 175.73 158.61 176.55 158.35 C 177.37 158.08 177.83 157.21 177.56 156.39 L 177.27 155.45 C 177.00 154.63 176.13 154.17 175.31 154.43 C 174.48 154.70 174.03 155.57 174.29 156.39 Z M 174.56 157.24 L 174.81 158.20 C 175.02 159.04 175.87 159.54 176.71 159.33 C 177.54 159.11 178.05 158.26 177.83 157.43 L 177.59 156.47 C 177.38 155.64 176.53 155.13 175.69 155.35 C 174.86 155.56 174.35 156.41 174.56 157.24 Z M 174.79 158.11 L 174.98 159.10 C 175.14 159.95 175.96 160.50 176.80 160.34 C 177.65 160.18 178.21 159.36 178.04 158.51 L 177.85 157.52 C 177.69 156.67 176.87 156.12 176.03 156.28 C 175.18 156.44 174.63 157.26 174.79 158.11 Z M 174.96 159.01 L 175.09 160.00 C 175.21 160.86 175.99 161.46 176.85 161.35 C 177.70 161.23 178.30 160.45 178.19 159.59 L 178.06 158.60 C 177.94 157.75 177.16 157.15 176.31 157.26 C 175.45 157.37 174.85 158.16 174.96 159.01 Z M 175.09 159.92 L 175.17 160.91 C 175.23 161.77 175.99 162.41 176.85 162.35 C 177.71 162.28 178.35 161.52 178.28 160.66 L 178.20 159.67 C 178.13 158.81 177.38 158.17 176.52 158.24 C 175.66 158.31 175.02 159.06 175.09 159.92 Z M 175.16 160.84 L 175.20 161.83 C 175.22 162.70 175.95 163.37 176.81 163.34 C 177.67 163.31 178.35 162.59 178.32 161.73 L 178.28 160.74 C 178.25 159.87 177.53 159.20 176.67 159.23 C 175.81 159.26 175.13 159.98 175.16 160.84 Z M 175.19 161.77 L 175.19 162.76 C 175.18 163.63 175.88 164.33 176.74 164.34 C 177.60 164.34 178.31 163.65 178.31 162.78 L 178.32 161.79 C 178.32 160.93 177.63 160.23 176.76 160.22 C 175.90 160.21 175.20 160.91 175.19 161.77 Z M 175.19 162.69 L 175.14 163.68 C 175.09 164.54 175.75 165.28 176.61 165.32 C 177.47 165.37 178.21 164.71 178.26 163.85 L 178.31 162.86 C 178.35 162.00 177.69 161.26 176.83 161.21 C 175.97 161.17 175.24 161.83 175.19 162.69 Z M 175.15 163.58 L 175.03 164.57 C 174.93 165.43 175.54 166.20 176.40 166.30 C 177.26 166.40 178.03 165.79 178.13 164.93 L 178.25 163.95 C 178.35 163.09 177.73 162.32 176.88 162.22 C 176.02 162.12 175.25 162.73 175.15 163.58 Z M 175.05 164.45 L 174.86 165.43 C 174.69 166.28 175.24 167.10 176.09 167.27 C 176.93 167.43 177.75 166.88 177.92 166.04 L 178.11 165.06 C 178.28 164.21 177.73 163.39 176.88 163.22 C 176.04 163.06 175.22 163.61 175.05 164.45 Z M 174.89 165.29 L 174.60 166.27 C 174.36 167.09 174.83 167.96 175.66 168.20 C 176.49 168.45 177.36 167.98 177.60 167.15 L 177.89 166.18 C 178.13 165.35 177.66 164.48 176.83 164.24 C 176.00 163.99 175.13 164.47 174.89 165.29 Z M 174.65 166.12 L 174.27 167.07 C 173.94 167.87 174.33 168.78 175.13 169.11 C 175.93 169.43 176.84 169.05 177.16 168.25 L 177.55 167.29 C 177.87 166.49 177.49 165.58 176.69 165.26 C 175.89 164.94 174.98 165.32 174.65 166.12 Z M 174.32 166.96 L 173.86 167.88 C 173.47 168.65 173.78 169.59 174.54 169.98 C 175.31 170.37 176.25 170.06 176.64 169.29 L 177.11 168.36 C 177.50 167.59 177.19 166.66 176.42 166.27 C 175.65 165.88 174.71 166.19 174.32 166.96 Z M 173.91 167.79 L 173.39 168.66 C 172.95 169.41 173.19 170.36 173.93 170.80 C 174.68 171.24 175.63 171.00 176.07 170.26 L 176.59 169.38 C 177.03 168.64 176.79 167.68 176.04 167.24 C 175.30 166.80 174.35 167.05 173.91 167.79 Z M 173.43 168.59 L 172.89 169.40 C 172.41 170.11 172.60 171.08 173.32 171.57 C 174.03 172.05 175.00 171.85 175.48 171.14 L 176.03 170.33 C 176.51 169.61 176.32 168.64 175.60 168.16 C 174.88 167.68 173.91 167.87 173.43 168.59 Z M 172.94 169.33 L 172.34 170.13 C 171.82 170.82 171.97 171.80 172.66 172.31 C 173.35 172.83 174.32 172.69 174.84 172.00 L 175.44 171.20 C 175.95 170.51 175.81 169.54 175.12 169.02 C 174.43 168.50 173.45 168.64 172.94 169.33 Z M 172.40 170.06 L 171.70 170.89 C 171.15 171.55 171.23 172.53 171.89 173.09 C 172.55 173.64 173.53 173.56 174.09 172.90 L 174.79 172.07 C 175.34 171.41 175.26 170.43 174.60 169.87 C 173.94 169.31 172.95 169.40 172.40 170.06 Z M 171.77 170.81 L 171.09 171.52 C 170.50 172.14 170.52 173.13 171.14 173.72 C 171.77 174.32 172.75 174.30 173.35 173.67 L 174.02 172.97 C 174.62 172.35 174.60 171.36 173.97 170.76 C 173.35 170.17 172.36 170.19 171.77 170.81 Z M 171.15 171.46 L 170.49 172.08 C 169.86 172.67 169.83 173.66 170.42 174.29 C 171.01 174.91 172.00 174.95 172.62 174.36 L 173.29 173.73 C 173.92 173.14 173.95 172.16 173.36 171.53 C 172.77 170.90 171.78 170.87 171.15 171.46 Z M 170.54 172.04 L 169.87 172.61 C 169.22 173.18 169.15 174.16 169.71 174.82 C 170.27 175.47 171.26 175.54 171.91 174.98 L 172.58 174.40 C 173.23 173.84 173.30 172.85 172.74 172.20 C 172.17 171.54 171.19 171.47 170.54 172.04 Z M 169.92 172.57 L 169.19 173.15 C 168.52 173.69 168.41 174.67 168.95 175.35 C 169.49 176.02 170.47 176.13 171.14 175.59 L 171.86 175.01 C 172.54 174.48 172.65 173.49 172.11 172.82 C 171.57 172.15 170.59 172.04 169.92 172.57 Z M 169.24 173.11 L 168.40 173.73 C 167.71 174.24 167.56 175.22 168.07 175.92 C 168.58 176.61 169.56 176.76 170.26 176.25 L 171.09 175.63 C 171.79 175.12 171.94 174.14 171.42 173.45 C 170.91 172.75 169.94 172.60 169.24 173.11 Z M 168.44 173.70 L 167.55 174.32 C 166.84 174.81 166.66 175.79 167.15 176.50 C 167.64 177.20 168.61 177.38 169.32 176.89 L 170.22 176.27 C 170.93 175.78 171.10 174.81 170.61 174.10 C 170.12 173.39 169.15 173.21 168.44 173.70 Z M 167.57 174.31 L 166.81 174.81 C 166.10 175.28 165.90 176.25 166.37 176.97 C 166.85 177.69 167.82 177.89 168.54 177.41 L 169.30 176.91 C 170.01 176.43 170.21 175.46 169.74 174.75 C 169.26 174.03 168.29 173.83 167.57 174.31 Z M 166.84 174.79 L 166.01 175.32 C 165.28 175.79 165.07 176.75 165.53 177.48 C 166.00 178.21 166.96 178.42 167.69 177.95 L 168.52 177.42 C 169.24 176.96 169.46 176.00 168.99 175.27 C 168.53 174.54 167.56 174.33 166.84 174.79 Z M 166.03 175.31 L 165.15 175.85 C 164.42 176.30 164.19 177.26 164.64 178.00 C 165.09 178.73 166.06 178.96 166.79 178.51 L 167.67 177.97 C 168.40 177.52 168.63 176.55 168.18 175.82 C 167.73 175.09 166.76 174.86 166.03 175.31 Z M 165.18 175.83 L 164.27 176.37 C 163.52 176.81 163.28 177.77 163.72 178.51 C 164.15 179.25 165.11 179.50 165.85 179.06 L 166.77 178.52 C 167.51 178.08 167.75 177.13 167.32 176.38 C 166.88 175.64 165.92 175.40 165.18 175.83 Z M 164.29 176.36 L 163.37 176.88 C 162.62 177.30 162.35 178.25 162.77 179.00 C 163.20 179.75 164.15 180.02 164.90 179.60 L 165.83 179.08 C 166.58 178.66 166.84 177.70 166.42 176.95 C 166.00 176.20 165.05 175.93 164.29 176.36 Z M 163.40 176.86 L 162.48 177.35 C 161.72 177.75 161.43 178.69 161.84 179.46 C 162.24 180.22 163.18 180.51 163.95 180.10 L 164.86 179.62 C 165.63 179.21 165.92 178.27 165.51 177.51 C 165.11 176.74 164.16 176.45 163.40 176.86 Z M 162.52 177.33 L 161.61 177.78 C 160.83 178.16 160.52 179.10 160.90 179.87 C 161.28 180.64 162.22 180.96 162.99 180.58 L 163.91 180.12 C 164.68 179.74 165.00 178.80 164.61 178.03 C 164.23 177.26 163.29 176.94 162.52 177.33 Z M 161.65 177.76 L 160.74 178.18 C 159.95 178.54 159.61 179.46 159.97 180.25 C 160.33 181.03 161.25 181.37 162.04 181.02 L 162.95 180.60 C 163.73 180.24 164.08 179.31 163.72 178.53 C 163.36 177.74 162.43 177.40 161.65 177.76 Z M 160.78 178.16 L 159.87 178.54 C 159.08 178.87 158.71 179.79 159.04 180.58 C 159.37 181.38 160.29 181.75 161.08 181.42 L 161.99 181.04 C 162.79 180.70 163.16 179.79 162.83 178.99 C 162.49 178.20 161.58 177.82 160.78 178.16 Z M 159.93 178.52 L 159.02 178.86 C 158.21 179.17 157.81 180.07 158.11 180.87 C 158.42 181.68 159.32 182.09 160.12 181.78 L 161.03 181.44 C 161.84 181.13 162.24 180.23 161.94 179.42 C 161.63 178.62 160.73 178.21 159.93 178.52 Z M 159.07 178.84 L 158.13 179.16 C 157.31 179.43 156.87 180.32 157.14 181.13 C 157.42 181.95 158.30 182.39 159.12 182.12 L 160.07 181.80 C 160.88 181.53 161.32 180.64 161.05 179.83 C 160.78 179.01 159.89 178.57 159.07 178.84 Z M 158.19 179.14 L 157.21 179.42 C 156.38 179.66 155.91 180.53 156.15 181.35 C 156.39 182.18 157.25 182.66 158.08 182.42 L 159.06 182.14 C 159.89 181.90 160.36 181.03 160.12 180.20 C 159.88 179.38 159.02 178.90 158.19 179.14 Z M 157.28 179.40 L 156.30 179.64 C 155.46 179.84 154.95 180.69 155.15 181.53 C 155.36 182.36 156.20 182.88 157.04 182.68 L 158.01 182.44 C 158.85 182.23 159.37 181.39 159.16 180.55 C 158.96 179.71 158.12 179.20 157.28 179.40 Z M 156.37 179.63 L 155.39 179.82 C 154.55 179.99 154.00 180.81 154.17 181.65 C 154.33 182.50 155.15 183.05 156.00 182.88 L 156.97 182.69 C 157.82 182.52 158.37 181.70 158.20 180.86 C 158.03 180.01 157.21 179.46 156.37 179.63 Z M 155.46 179.81 L 154.49 179.96 C 153.64 180.09 153.05 180.88 153.18 181.74 C 153.31 182.59 154.11 183.17 154.96 183.04 L 155.93 182.89 C 156.79 182.76 157.37 181.97 157.24 181.11 C 157.11 180.26 156.31 179.68 155.46 179.81 Z M 154.56 179.95 L 153.58 180.05 C 152.72 180.15 152.10 180.92 152.19 181.77 C 152.29 182.63 153.06 183.25 153.91 183.16 L 154.90 183.05 C 155.75 182.96 156.37 182.19 156.28 181.33 C 156.19 180.47 155.42 179.85 154.56 179.95 Z M 153.65 180.05 L 152.66 180.11 C 151.80 180.16 151.14 180.90 151.19 181.76 C 151.24 182.62 151.98 183.27 152.84 183.22 L 153.84 183.16 C 154.70 183.11 155.35 182.37 155.30 181.51 C 155.25 180.65 154.51 180.00 153.65 180.05 Z M 152.75 180.10 L 151.75 180.11 C 150.89 180.11 150.19 180.81 150.19 181.67 C 150.20 182.53 150.90 183.23 151.76 183.23 L 152.75 183.23 C 153.62 183.22 154.31 182.52 154.31 181.66 C 154.31 180.80 153.61 180.10 152.75 180.10 Z M 151.85 180.11 L 150.86 180.05 C 150.00 180.00 149.26 180.65 149.20 181.51 C 149.15 182.37 149.81 183.11 150.67 183.16 L 151.66 183.23 C 152.52 183.28 153.26 182.62 153.31 181.76 C 153.37 180.90 152.71 180.16 151.85 180.11 Z M 150.97 180.06 L 149.97 179.93 C 149.11 179.81 148.33 180.42 148.22 181.27 C 148.10 182.13 148.71 182.91 149.56 183.02 L 150.56 183.15 C 151.41 183.27 152.20 182.66 152.31 181.81 C 152.42 180.95 151.82 180.17 150.97 180.06 Z M 150.08 179.95 L 149.07 179.74 C 148.23 179.56 147.40 180.11 147.23 180.95 C 147.05 181.79 147.59 182.62 148.44 182.79 L 149.45 183.00 C 150.29 183.18 151.12 182.64 151.29 181.79 C 151.47 180.95 150.92 180.12 150.08 179.95 Z M 149.17 179.76 L 148.17 179.48 C 147.34 179.25 146.48 179.74 146.25 180.57 C 146.02 181.40 146.50 182.26 147.33 182.49 L 148.34 182.77 C 149.17 183.00 150.03 182.51 150.26 181.68 C 150.49 180.85 150.00 179.99 149.17 179.76 Z M 148.25 179.51 L 147.28 179.18 C 146.47 178.90 145.58 179.34 145.30 180.15 C 145.02 180.97 145.46 181.86 146.28 182.13 L 147.25 182.46 C 148.06 182.74 148.95 182.31 149.23 181.49 C 149.51 180.67 149.07 179.79 148.25 179.51 Z M 147.36 179.21 L 146.44 178.84 C 145.64 178.52 144.73 178.91 144.41 179.71 C 144.09 180.51 144.48 181.42 145.28 181.74 L 146.20 182.11 C 147.00 182.43 147.91 182.04 148.23 181.23 C 148.55 180.43 148.16 179.53 147.36 179.21 Z M 146.51 178.87 L 145.67 178.49 C 144.88 178.13 143.96 178.47 143.60 179.26 C 143.24 180.04 143.59 180.97 144.37 181.32 L 145.21 181.71 C 146.00 182.07 146.92 181.72 147.28 180.94 C 147.64 180.15 147.29 179.23 146.51 178.87 Z M 145.75 178.53 L 144.77 178.01 C 144.01 177.60 143.06 177.89 142.66 178.66 C 142.25 179.42 142.55 180.36 143.31 180.77 L 144.29 181.28 C 145.05 181.69 145.99 181.40 146.40 180.64 C 146.80 179.87 146.51 178.93 145.75 178.53 Z M 144.86 178.06 L 144.00 177.53 C 143.27 177.07 142.31 177.30 141.85 178.03 C 141.40 178.76 141.62 179.72 142.36 180.18 L 143.21 180.71 C 143.95 181.17 144.91 180.94 145.36 180.21 C 145.82 179.48 145.59 178.51 144.86 178.06 Z M 144.08 177.58 L 143.33 177.04 C 142.62 176.54 141.65 176.70 141.15 177.41 C 140.65 178.11 140.81 179.08 141.52 179.58 L 142.27 180.12 C 142.98 180.62 143.95 180.46 144.45 179.76 C 144.95 179.05 144.79 178.08 144.08 177.58 Z M 143.38 177.08 L 142.68 176.53 C 142.00 176.00 141.02 176.12 140.49 176.80 C 139.96 177.48 140.08 178.46 140.76 178.99 L 141.46 179.54 C 142.14 180.07 143.12 179.95 143.65 179.27 C 144.18 178.59 144.06 177.61 143.38 177.08 Z M 142.73 176.57 L 142.04 175.99 C 141.38 175.43 140.40 175.51 139.84 176.17 C 139.28 176.83 139.36 177.81 140.02 178.37 L 140.71 178.96 C 141.37 179.51 142.35 179.43 142.91 178.77 C 143.47 178.11 143.39 177.13 142.73 176.57 Z M 142.10 176.04 L 141.38 175.37 C 140.75 174.78 139.76 174.81 139.17 175.44 C 138.58 176.07 138.62 177.06 139.25 177.65 L 139.96 178.32 C 140.59 178.91 141.58 178.88 142.17 178.25 C 142.76 177.62 142.73 176.63 142.10 176.04 Z M 141.43 175.42 L 140.64 174.60 C 140.04 173.98 139.05 173.97 138.43 174.57 C 137.81 175.17 137.80 176.16 138.40 176.78 L 139.19 177.59 C 139.79 178.21 140.78 178.23 141.40 177.63 C 142.02 177.03 142.03 176.04 141.43 175.42 Z M 140.68 174.65 L 140.07 173.97 C 139.49 173.33 138.50 173.28 137.86 173.85 C 137.22 174.43 137.17 175.42 137.75 176.06 L 138.36 176.74 C 138.94 177.38 139.92 177.43 140.57 176.85 C 141.21 176.27 141.26 175.29 140.68 174.65 Z M 140.09 174.00 L 139.47 173.27 C 138.91 172.62 137.92 172.54 137.27 173.10 C 136.61 173.66 136.54 174.65 137.10 175.30 L 137.72 176.03 C 138.28 176.68 139.27 176.76 139.92 176.20 C 140.58 175.64 140.65 174.65 140.09 174.00 Z M 139.49 173.30 L 138.85 172.51 C 138.31 171.84 137.32 171.75 136.65 172.29 C 135.99 172.84 135.89 173.82 136.43 174.49 L 137.08 175.27 C 137.62 175.94 138.61 176.04 139.27 175.49 C 139.94 174.95 140.04 173.97 139.49 173.30 Z M 138.87 172.54 L 138.23 171.71 C 137.70 171.03 136.72 170.91 136.04 171.44 C 135.36 171.97 135.24 172.95 135.76 173.63 L 136.41 174.46 C 136.94 175.14 137.92 175.26 138.60 174.73 C 139.28 174.20 139.40 173.22 138.87 172.54 Z M 138.25 171.74 L 137.62 170.89 C 137.11 170.19 136.14 170.05 135.44 170.56 C 134.75 171.07 134.60 172.05 135.11 172.74 L 135.74 173.60 C 136.25 174.29 137.23 174.44 137.92 173.93 C 138.62 173.42 138.77 172.44 138.25 171.74 Z M 137.65 170.93 L 137.06 170.07 C 136.57 169.36 135.60 169.19 134.89 169.68 C 134.18 170.17 134.00 171.14 134.49 171.85 L 135.08 172.70 C 135.57 173.41 136.55 173.59 137.25 173.10 C 137.96 172.61 138.14 171.63 137.65 170.93 Z M 137.09 170.11 L 136.53 169.26 C 136.06 168.54 135.10 168.33 134.37 168.81 C 133.65 169.28 133.45 170.24 133.92 170.97 L 134.47 171.81 C 134.94 172.54 135.91 172.74 136.63 172.27 C 137.35 171.80 137.56 170.83 137.09 170.11 Z M 136.55 169.29 L 136.02 168.44 C 135.57 167.71 134.61 167.48 133.88 167.94 C 133.14 168.39 132.92 169.35 133.37 170.08 L 133.90 170.94 C 134.35 171.67 135.31 171.89 136.05 171.44 C 136.78 170.99 137.01 170.02 136.55 169.29 Z M 136.04 168.46 L 135.53 167.61 C 135.09 166.87 134.13 166.63 133.39 167.07 C 132.65 167.51 132.41 168.47 132.85 169.21 L 133.36 170.06 C 133.80 170.80 134.76 171.04 135.50 170.60 C 136.24 170.16 136.48 169.20 136.04 168.46 Z M 135.54 167.62 L 135.04 166.77 C 134.61 166.02 133.65 165.77 132.91 166.20 C 132.16 166.64 131.91 167.59 132.34 168.34 L 132.84 169.19 C 133.27 169.94 134.23 170.19 134.97 169.76 C 135.72 169.33 135.97 168.37 135.54 167.62 Z M 135.05 166.78 L 134.66 166.11 C 134.23 165.37 133.28 165.11 132.53 165.54 C 131.79 165.97 131.53 166.92 131.96 167.67 L 132.34 168.33 C 132.77 169.08 133.72 169.34 134.47 168.91 C 135.22 168.48 135.48 167.52 135.05 166.78 Z"
      fill="black"
      fill-rule="nonzero" /></svg>