<svg xmlns="http://www.w3.org/2000/svg" width="300" height="300" viewBox="0 0 300 300">
<path d="M 135.11 165.59 L 134.23 165.01 C 133.51 164.54 132.54 164.74 132.07 165.46 C 131.60 166.18 131.80 167.15 132.52 167.62 L 133.40 168.20 C 134.12 168.67 135.09 168.47 135.56 167.75 C 136.04 167.03 135.84 166.06 135.11 165.59 Z M 134.28 165.04 L 133.44 164.45 C 132.74 163.95 131.76 164.11 131.26 164.82 C 130.76 165.52 130.93 166.50 131.63 166.99 L 132.47 167.59 C 133.18 168.09 134.15 167.92 134.65 167.22 C 135.15 166.51 134.98 165.54 134.28 165.04 Z M 133.54 164.52 L 132.78 163.89 C 132.12 163.34 131.14 163.43 130.58 164.09 C 130.03 164.76 130.12 165.74 130.78 166.29 L 131.54 166.92 C 132.20 167.47 133.18 167.38 133.74 166.72 C 134.29 166.06 134.20 165.07 133.54 164.52 Z M 132.93 164.03 L 132.31 163.36 C 131.72 162.72 130.73 162.68 130.10 163.27 C 129.47 163.85 129.43 164.84 130.01 165.48 L 130.64 166.15 C 131.22 166.79 132.21 166.82 132.84 166.24 C 133.48 165.66 133.52 164.67 132.93 164.03 Z M 132.49 163.59 L 132.02 162.84 C 131.56 162.10 130.60 161.88 129.87 162.33 C 129.13 162.79 128.91 163.75 129.36 164.48 L 129.83 165.24 C 130.29 165.97 131.25 166.20 131.98 165.74 C 132.72 165.29 132.94 164.33 132.49 163.59 Z M 132.16 163.12 L 131.84 162.25 C 131.54 161.44 130.64 161.03 129.83 161.33 C 129.02 161.62 128.61 162.52 128.91 163.33 L 129.23 164.20 C 129.52 165.01 130.42 165.42 131.23 165.13 C 132.04 164.83 132.45 163.93 132.16 163.12 Z M 131.90 162.50 L 131.71 161.48 C 131.55 160.63 130.74 160.07 129.89 160.23 C 129.04 160.39 128.48 161.20 128.64 162.05 L 128.84 163.08 C 129.00 163.93 129.81 164.48 130.66 164.33 C 131.51 164.17 132.06 163.35 131.90 162.50 Z M 131.73 161.65 L 131.65 160.54 C 131.59 159.68 130.84 159.04 129.98 159.10 C 129.12 159.17 128.47 159.91 128.54 160.77 L 128.62 161.88 C 128.69 162.74 129.44 163.39 130.30 163.32 C 131.15 163.26 131.80 162.51 131.73 161.65 Z M 131.66 160.64 L 131.64 159.71 C 131.63 158.85 130.92 158.16 130.06 158.17 C 129.20 158.18 128.51 158.89 128.52 159.75 L 128.53 160.68 C 128.54 161.54 129.25 162.23 130.12 162.22 C 130.98 162.21 131.67 161.50 131.66 160.64 Z M 131.64 159.78 L 131.67 158.79 C 131.70 157.93 131.02 157.21 130.16 157.18 C 129.30 157.15 128.58 157.83 128.55 158.69 L 128.52 159.68 C 128.49 160.54 129.17 161.26 130.03 161.29 C 130.89 161.32 131.61 160.64 131.64 159.78 Z M 131.67 158.86 L 131.75 157.83 C 131.81 156.97 131.17 156.22 130.31 156.15 C 129.45 156.09 128.70 156.73 128.63 157.59 L 128.56 158.62 C 128.49 159.48 129.14 160.23 130.00 160.30 C 130.86 160.36 131.60 159.72 131.67 158.86 Z M 131.74 157.90 L 131.87 156.86 C 131.97 156.00 131.36 155.23 130.51 155.12 C 129.65 155.02 128.87 155.62 128.77 156.48 L 128.64 157.52 C 128.54 158.37 129.14 159.15 130.00 159.26 C 130.86 159.36 131.64 158.75 131.74 157.90 Z M 131.86 156.94 L 132.03 155.92 C 132.18 155.08 131.62 154.27 130.77 154.12 C 129.92 153.97 129.11 154.53 128.96 155.38 L 128.78 156.40 C 128.63 157.25 129.20 158.06 130.05 158.21 C 130.90 158.36 131.71 157.79 131.86 156.94 Z M 132.01 156.03 L 132.27 154.98 C 132.48 154.14 131.96 153.30 131.13 153.09 C 130.29 152.89 129.44 153.40 129.24 154.24 L 128.98 155.28 C 128.78 156.12 129.29 156.96 130.13 157.17 C 130.96 157.37 131.81 156.86 132.01 156.03 Z M 132.24 155.09 L 132.57 154.06 C 132.84 153.24 132.39 152.36 131.57 152.09 C 130.75 151.83 129.87 152.27 129.61 153.09 L 129.27 154.12 C 129.00 154.94 129.45 155.83 130.27 156.09 C 131.09 156.36 131.97 155.91 132.24 155.09 Z M 132.54 154.16 L 132.92 153.21 C 133.24 152.41 132.86 151.50 132.06 151.18 C 131.26 150.86 130.35 151.24 130.03 152.04 L 129.64 152.99 C 129.32 153.79 129.71 154.70 130.50 155.02 C 131.30 155.35 132.21 154.96 132.54 154.16 Z M 132.88 153.30 L 133.30 152.42 C 133.67 151.64 133.34 150.71 132.56 150.34 C 131.78 149.97 130.85 150.30 130.48 151.08 L 130.06 151.96 C 129.69 152.73 130.03 153.67 130.80 154.04 C 131.58 154.41 132.51 154.07 132.88 153.30 Z M 133.26 152.49 L 133.69 151.69 C 134.10 150.93 133.81 149.98 133.05 149.58 C 132.29 149.17 131.35 149.46 130.94 150.22 L 130.51 151.01 C 130.11 151.77 130.39 152.72 131.15 153.13 C 131.91 153.54 132.86 153.25 133.26 152.49 Z M 133.66 151.74 L 134.18 150.87 C 134.61 150.12 134.37 149.17 133.62 148.73 C 132.88 148.29 131.92 148.54 131.49 149.29 L 130.97 150.16 C 130.53 150.91 130.78 151.86 131.53 152.30 C 132.27 152.74 133.23 152.49 133.66 151.74 Z M 134.15 150.91 L 134.71 150.03 C 135.17 149.30 134.96 148.34 134.23 147.87 C 133.50 147.41 132.54 147.63 132.08 148.36 L 131.51 149.24 C 131.05 149.97 131.27 150.93 131.99 151.39 C 132.72 151.86 133.69 151.64 134.15 150.91 Z M 134.69 150.07 L 135.23 149.26 C 135.71 148.55 135.52 147.58 134.81 147.10 C 134.09 146.61 133.12 146.80 132.64 147.52 L 132.10 148.32 C 131.62 149.03 131.81 150.00 132.52 150.49 C 133.24 150.97 134.21 150.78 134.69 150.07 Z M 135.22 149.28 L 135.74 148.53 C 136.23 147.82 136.05 146.85 135.35 146.36 C 134.64 145.87 133.66 146.04 133.17 146.75 L 132.65 147.50 C 132.16 148.21 132.34 149.18 133.04 149.67 C 133.75 150.16 134.73 149.99 135.22 149.28 Z M 135.74 148.53 L 136.32 147.69 C 136.81 146.98 136.63 146.01 135.92 145.52 C 135.21 145.03 134.24 145.21 133.75 145.91 L 133.17 146.75 C 132.68 147.46 132.86 148.43 133.57 148.92 C 134.27 149.42 135.25 149.24 135.74 148.53 Z M 136.32 147.69 L 136.89 146.88 C 137.38 146.17 137.20 145.19 136.49 144.70 C 135.79 144.21 134.81 144.39 134.32 145.09 L 133.75 145.91 C 133.26 146.62 133.44 147.59 134.14 148.09 C 134.85 148.58 135.82 148.40 136.32 147.69 Z M 136.88 146.89 L 137.45 146.09 C 137.95 145.38 137.78 144.41 137.08 143.91 C 136.37 143.41 135.40 143.58 134.90 144.28 L 134.33 145.08 C 133.83 145.78 134.00 146.76 134.70 147.26 C 135.40 147.76 136.38 147.59 136.88 146.89 Z M 137.43 146.11 L 137.95 145.40 C 138.47 144.71 138.32 143.73 137.63 143.22 C 136.93 142.71 135.96 142.85 135.44 143.55 L 134.92 144.25 C 134.41 144.95 134.55 145.93 135.24 146.44 C 135.94 146.95 136.92 146.80 137.43 146.11 Z M 137.92 145.44 L 138.50 144.72 C 139.03 144.04 138.92 143.06 138.24 142.53 C 137.56 141.99 136.58 142.10 136.05 142.78 L 135.47 143.50 C 134.94 144.18 135.05 145.16 135.73 145.70 C 136.41 146.23 137.39 146.12 137.92 145.44 Z M 138.46 144.77 L 139.14 143.97 C 139.70 143.32 139.63 142.33 138.97 141.77 C 138.32 141.21 137.33 141.28 136.77 141.94 L 136.09 142.73 C 135.53 143.39 135.60 144.37 136.25 144.93 C 136.91 145.50 137.89 145.42 138.46 144.77 Z M 139.10 144.01 L 139.84 143.21 C 140.43 142.58 140.39 141.59 139.76 141.01 C 139.13 140.42 138.14 140.46 137.55 141.09 L 136.81 141.89 C 136.23 142.52 136.26 143.51 136.90 144.10 C 137.53 144.68 138.52 144.65 139.10 144.01 Z M 139.82 143.24 L 140.46 142.58 C 141.06 141.97 141.05 140.98 140.43 140.38 C 139.82 139.77 138.83 139.79 138.23 140.40 L 137.58 141.06 C 136.98 141.68 136.99 142.66 137.61 143.27 C 138.23 143.87 139.21 143.86 139.82 143.24 Z M 140.44 142.61 L 141.14 141.91 C 141.76 141.31 141.77 140.32 141.16 139.71 C 140.56 139.09 139.57 139.08 138.96 139.68 L 138.25 140.38 C 137.63 140.98 137.62 141.97 138.23 142.59 C 138.83 143.20 139.82 143.21 140.44 142.61 Z M 141.12 141.94 L 141.87 141.23 C 142.50 140.64 142.53 139.65 141.94 139.02 C 141.35 138.40 140.37 138.36 139.74 138.95 L 138.98 139.66 C 138.35 140.25 138.32 141.24 138.91 141.87 C 139.50 142.50 140.49 142.53 141.12 141.94 Z M 141.84 141.26 L 142.63 140.55 C 143.27 139.98 143.33 138.99 142.75 138.35 C 142.18 137.71 141.19 137.65 140.55 138.23 L 139.76 138.93 C 139.12 139.50 139.07 140.49 139.64 141.13 C 140.21 141.77 141.20 141.83 141.84 141.26 Z M 142.60 140.58 L 143.40 139.91 C 144.06 139.35 144.14 138.37 143.58 137.71 C 143.03 137.05 142.04 136.97 141.38 137.52 L 140.58 138.20 C 139.92 138.75 139.84 139.74 140.40 140.40 C 140.95 141.06 141.94 141.14 142.60 140.58 Z M 143.35 139.94 L 144.19 139.28 C 144.87 138.75 144.99 137.77 144.45 137.09 C 143.92 136.41 142.94 136.30 142.26 136.83 L 141.42 137.49 C 140.75 138.02 140.63 139.00 141.16 139.68 C 141.70 140.36 142.68 140.48 143.35 139.94 Z M 144.14 139.32 L 144.98 138.72 C 145.68 138.21 145.83 137.23 145.33 136.54 C 144.82 135.84 143.85 135.68 143.15 136.19 L 142.31 136.79 C 141.61 137.30 141.46 138.27 141.96 138.97 C 142.47 139.67 143.44 139.83 144.14 139.32 Z M 144.92 138.75 L 145.76 138.20 C 146.48 137.73 146.68 136.76 146.20 136.04 C 145.73 135.32 144.76 135.12 144.04 135.60 L 143.20 136.15 C 142.48 136.62 142.29 137.59 142.76 138.31 C 143.24 139.03 144.20 139.23 144.92 138.75 Z M 145.70 138.24 L 146.53 137.75 C 147.27 137.31 147.52 136.35 147.08 135.61 C 146.64 134.87 145.68 134.62 144.94 135.06 L 144.10 135.56 C 143.36 136.00 143.12 136.96 143.56 137.70 C 144.00 138.44 144.95 138.68 145.70 138.24 Z M 146.46 137.79 L 147.30 137.34 C 148.06 136.94 148.35 136.00 147.95 135.24 C 147.55 134.47 146.60 134.18 145.84 134.58 L 145.01 135.02 C 144.24 135.42 143.95 136.37 144.35 137.13 C 144.75 137.89 145.70 138.19 146.46 137.79 Z M 147.22 137.38 L 148.14 136.96 C 148.93 136.61 149.27 135.68 148.92 134.90 C 148.56 134.11 147.63 133.76 146.85 134.12 L 145.92 134.54 C 145.14 134.90 144.79 135.83 145.15 136.61 C 145.51 137.39 146.43 137.74 147.22 137.38 Z M 148.05 137.00 L 149.00 136.64 C 149.80 136.33 150.21 135.43 149.90 134.63 C 149.60 133.82 148.69 133.42 147.89 133.72 L 146.94 134.08 C 146.13 134.39 145.73 135.29 146.04 136.10 C 146.34 136.90 147.24 137.31 148.05 137.00 Z M 148.90 136.67 L 149.85 136.38 C 150.68 136.13 151.14 135.25 150.89 134.43 C 150.63 133.60 149.76 133.14 148.94 133.40 L 147.98 133.69 C 147.16 133.94 146.70 134.82 146.95 135.64 C 147.20 136.46 148.08 136.93 148.90 136.67 Z M 149.76 136.41 L 150.71 136.18 C 151.55 135.98 152.07 135.14 151.87 134.30 C 151.67 133.46 150.83 132.94 149.99 133.14 L 149.03 133.37 C 148.20 133.57 147.68 134.41 147.88 135.25 C 148.07 136.09 148.92 136.61 149.76 136.41 Z M 150.61 136.20 L 151.57 136.04 C 152.42 135.90 152.99 135.09 152.85 134.24 C 152.71 133.39 151.90 132.82 151.05 132.96 L 150.09 133.12 C 149.24 133.27 148.67 134.07 148.81 134.92 C 148.95 135.77 149.76 136.34 150.61 136.20 Z M 151.45 136.05 L 152.43 135.97 C 153.29 135.89 153.92 135.13 153.84 134.27 C 153.76 133.41 153.01 132.78 152.15 132.86 L 151.17 132.94 C 150.31 133.02 149.68 133.78 149.76 134.64 C 149.83 135.50 150.59 136.13 151.45 136.05 Z M 152.26 135.97 L 153.24 135.99 C 154.10 136.00 154.81 135.31 154.83 134.45 C 154.84 133.59 154.15 132.88 153.29 132.87 L 152.31 132.85 C 151.45 132.84 150.74 133.52 150.73 134.39 C 150.71 135.25 151.40 135.96 152.26 135.97 Z M 153.03 135.97 L 154.01 136.12 C 154.86 136.25 155.66 135.67 155.79 134.81 C 155.92 133.96 155.34 133.17 154.48 133.03 L 153.50 132.88 C 152.65 132.75 151.85 133.34 151.72 134.19 C 151.59 135.04 152.18 135.84 153.03 135.97 Z M 153.77 136.06 L 154.75 136.38 C 155.57 136.64 156.45 136.19 156.71 135.37 C 156.98 134.55 156.53 133.67 155.71 133.41 L 154.72 133.09 C 153.90 132.83 153.02 133.28 152.76 134.10 C 152.50 134.92 152.95 135.80 153.77 136.06 Z M 154.52 136.29 L 155.41 136.73 C 156.18 137.12 157.12 136.81 157.51 136.04 C 157.89 135.27 157.58 134.33 156.81 133.94 L 155.93 133.50 C 155.16 133.11 154.22 133.42 153.83 134.19 C 153.45 134.96 153.75 135.90 154.52 136.29 Z M 155.25 136.64 L 156.10 137.20 C 156.82 137.67 157.78 137.48 158.26 136.76 C 158.73 136.04 158.54 135.07 157.82 134.59 L 156.97 134.04 C 156.25 133.56 155.28 133.76 154.81 134.48 C 154.33 135.20 154.53 136.17 155.25 136.64 Z M 155.99 137.12 L 156.80 137.76 C 157.48 138.30 158.46 138.18 159.00 137.50 C 159.53 136.82 159.41 135.84 158.73 135.31 L 157.92 134.67 C 157.24 134.14 156.26 134.25 155.73 134.93 C 155.20 135.61 155.31 136.59 155.99 137.12 Z M 156.73 137.70 L 157.49 138.38 C 158.13 138.96 159.12 138.90 159.70 138.26 C 160.27 137.61 160.21 136.63 159.57 136.05 L 158.81 135.37 C 158.17 134.80 157.18 134.85 156.60 135.50 C 156.03 136.14 156.09 137.13 156.73 137.70 Z M 157.44 138.33 L 158.13 139.01 C 158.75 139.62 159.73 139.61 160.34 138.99 C 160.94 138.38 160.93 137.39 160.32 136.78 L 159.62 136.10 C 159.01 135.50 158.02 135.51 157.42 136.12 C 156.81 136.74 156.82 137.73 157.44 138.33 Z M 158.09 138.97 L 158.84 139.77 C 159.43 140.40 160.42 140.43 161.05 139.84 C 161.67 139.25 161.71 138.26 161.12 137.63 L 160.36 136.83 C 159.77 136.20 158.78 136.17 158.16 136.76 C 157.53 137.35 157.50 138.34 158.09 138.97 Z M 158.79 139.72 L 159.47 140.51 C 160.04 141.16 161.02 141.24 161.68 140.68 C 162.33 140.11 162.41 139.13 161.84 138.47 L 161.16 137.68 C 160.60 137.03 159.61 136.95 158.96 137.52 C 158.31 138.08 158.23 139.06 158.79 139.72 Z M 159.43 140.46 L 160.02 141.20 C 160.55 141.88 161.53 141.99 162.21 141.46 C 162.89 140.92 163.00 139.94 162.47 139.27 L 161.88 138.53 C 161.35 137.85 160.37 137.73 159.69 138.27 C 159.01 138.80 158.90 139.78 159.43 140.46 Z M 159.99 141.16 L 160.52 141.88 C 161.04 142.57 162.01 142.71 162.71 142.20 C 163.40 141.69 163.54 140.71 163.03 140.02 L 162.50 139.30 C 161.98 138.61 161.00 138.47 160.31 138.98 C 159.62 139.49 159.48 140.47 159.99 141.16 Z M 160.51 141.86 L 161.03 142.59 C 161.53 143.29 162.51 143.45 163.21 142.95 C 163.91 142.44 164.07 141.47 163.57 140.77 L 163.04 140.04 C 162.54 139.34 161.56 139.18 160.86 139.68 C 160.16 140.18 160.00 141.16 160.51 141.86 Z M 161.01 142.56 L 161.54 143.34 C 162.03 144.05 163.00 144.23 163.71 143.75 C 164.42 143.26 164.61 142.29 164.12 141.58 L 163.59 140.80 C 163.10 140.09 162.13 139.90 161.42 140.39 C 160.71 140.87 160.52 141.84 161.01 142.56 Z M 161.51 143.29 L 162.07 144.17 C 162.53 144.90 163.50 145.12 164.22 144.66 C 164.95 144.20 165.17 143.23 164.71 142.50 L 164.15 141.62 C 163.69 140.89 162.72 140.68 162.00 141.14 C 161.27 141.60 161.05 142.56 161.51 143.29 Z M 162.04 144.13 L 162.58 145.05 C 163.02 145.79 163.97 146.04 164.72 145.61 C 165.46 145.17 165.71 144.22 165.28 143.47 L 164.74 142.55 C 164.30 141.80 163.34 141.55 162.60 141.99 C 161.86 142.43 161.61 143.38 162.04 144.13 Z M 162.56 145.01 L 163.00 145.82 C 163.42 146.58 164.37 146.85 165.12 146.44 C 165.88 146.02 166.16 145.07 165.74 144.32 L 165.30 143.51 C 164.88 142.75 163.93 142.48 163.18 142.89 C 162.42 143.31 162.15 144.26 162.56 145.01 Z M 162.99 145.79 L 163.44 146.66 C 163.84 147.43 164.78 147.73 165.54 147.33 C 166.31 146.93 166.61 145.99 166.21 145.22 L 165.76 144.35 C 165.36 143.58 164.42 143.29 163.65 143.68 C 162.89 144.08 162.59 145.02 162.99 145.79 Z M 163.42 146.63 L 163.87 147.55 C 164.25 148.33 165.18 148.65 165.96 148.27 C 166.73 147.89 167.06 146.96 166.68 146.19 L 166.23 145.26 C 165.85 144.48 164.92 144.16 164.14 144.54 C 163.37 144.92 163.04 145.85 163.42 146.63 Z M 163.85 147.51 L 164.29 148.47 C 164.64 149.26 165.57 149.61 166.35 149.25 C 167.14 148.89 167.49 147.97 167.13 147.18 L 166.70 146.22 C 166.34 145.44 165.42 145.09 164.63 145.45 C 163.85 145.80 163.50 146.73 163.85 147.51 Z M 164.27 148.43 L 164.67 149.40 C 165.00 150.20 165.92 150.58 166.71 150.25 C 167.51 149.92 167.89 149.00 167.56 148.21 L 167.15 147.23 C 166.82 146.43 165.91 146.06 165.11 146.39 C 164.32 146.72 163.94 147.63 164.27 148.43 Z M 164.65 149.35 L 165.01 150.32 C 165.31 151.12 166.21 151.53 167.02 151.23 C 167.83 150.93 168.24 150.03 167.94 149.23 L 167.58 148.26 C 167.28 147.45 166.38 147.04 165.57 147.34 C 164.76 147.64 164.35 148.54 164.65 149.35 Z M 164.99 150.26 L 165.31 151.23 C 165.58 152.04 166.46 152.49 167.28 152.22 C 168.10 151.95 168.54 151.07 168.28 150.25 L 167.96 149.28 C 167.69 148.46 166.81 148.02 165.99 148.29 C 165.17 148.56 164.72 149.44 164.99 150.26 Z M 165.29 151.17 L 165.57 152.13 C 165.80 152.96 166.67 153.44 167.50 153.20 C 168.32 152.97 168.81 152.10 168.57 151.27 L 168.29 150.31 C 168.06 149.48 167.19 149.00 166.36 149.24 C 165.54 149.47 165.05 150.34 165.29 151.17 Z M 165.55 152.07 L 165.78 153.03 C 165.98 153.86 166.83 154.38 167.66 154.18 C 168.50 153.98 169.02 153.13 168.82 152.29 L 168.59 151.34 C 168.38 150.50 167.54 149.98 166.70 150.18 C 165.86 150.38 165.35 151.23 165.55 152.07 Z M 165.77 152.96 L 165.95 153.91 C 166.12 154.76 166.94 155.31 167.78 155.14 C 168.63 154.98 169.18 154.16 169.02 153.31 L 168.83 152.36 C 168.67 151.51 167.85 150.96 167.00 151.13 C 166.15 151.29 165.60 152.11 165.77 152.96 Z M 165.94 153.84 L 166.08 154.82 C 166.21 155.68 167.00 156.27 167.85 156.14 C 168.71 156.02 169.30 155.22 169.17 154.37 L 169.03 153.39 C 168.90 152.53 168.11 151.94 167.26 152.07 C 166.40 152.19 165.81 152.99 165.94 153.84 Z M 166.07 154.74 L 166.16 155.73 C 166.24 156.59 167.00 157.22 167.86 157.15 C 168.72 157.07 169.35 156.31 169.27 155.45 L 169.18 154.46 C 169.11 153.60 168.35 152.97 167.49 153.04 C 166.63 153.12 166.00 153.88 166.07 154.74 Z M 166.16 155.63 L 166.18 156.62 C 166.20 157.48 166.91 158.16 167.77 158.14 C 168.64 158.12 169.32 157.41 169.30 156.55 L 169.28 155.56 C 169.26 154.69 168.54 154.01 167.68 154.03 C 166.82 154.05 166.14 154.76 166.16 155.63 Z M 166.18 156.50 L 166.13 157.49 C 166.08 158.35 166.74 159.08 167.60 159.13 C 168.46 159.18 169.20 158.52 169.25 157.66 L 169.30 156.66 C 169.34 155.80 168.68 155.07 167.82 155.02 C 166.96 154.98 166.23 155.64 166.18 156.50 Z M 166.14 157.36 L 166.00 158.35 C 165.88 159.21 166.48 160.00 167.34 160.11 C 168.19 160.23 168.98 159.64 169.10 158.78 L 169.23 157.79 C 169.35 156.93 168.75 156.14 167.90 156.03 C 167.05 155.91 166.26 156.50 166.14 157.36 Z M 166.03 158.23 L 165.82 159.16 C 165.63 160.00 166.16 160.83 167.00 161.02 C 167.84 161.21 168.67 160.68 168.86 159.84 L 169.07 158.91 C 169.26 158.07 168.73 157.23 167.89 157.04 C 167.05 156.86 166.21 157.38 166.03 158.23 Z M 165.85 159.04 L 165.57 159.95 C 165.32 160.77 165.78 161.65 166.60 161.90 C 167.43 162.15 168.30 161.69 168.55 160.86 L 168.83 159.96 C 169.08 159.13 168.62 158.26 167.80 158.01 C 166.97 157.75 166.10 158.22 165.85 159.04 Z M 165.60 159.85 L 165.25 160.77 C 164.95 161.57 165.35 162.47 166.16 162.78 C 166.96 163.09 167.86 162.68 168.17 161.88 L 168.52 160.96 C 168.83 160.16 168.42 159.26 167.62 158.95 C 166.81 158.64 165.91 159.05 165.60 159.85 Z M 165.29 160.68 L 164.87 161.60 C 164.52 162.39 164.87 163.31 165.65 163.67 C 166.44 164.02 167.36 163.67 167.72 162.89 L 168.14 161.96 C 168.49 161.18 168.14 160.25 167.36 159.90 C 166.57 159.54 165.65 159.89 165.29 160.68 Z M 164.91 161.52 L 164.43 162.45 C 164.03 163.22 164.33 164.16 165.10 164.55 C 165.86 164.95 166.81 164.65 167.20 163.89 L 167.68 162.96 C 168.08 162.20 167.78 161.25 167.02 160.86 C 166.25 160.46 165.31 160.76 164.91 161.52 Z M 164.47 162.38 L 163.93 163.31 C 163.50 164.06 163.75 165.01 164.49 165.44 C 165.24 165.88 166.19 165.62 166.63 164.88 L 167.17 163.95 C 167.60 163.21 167.35 162.25 166.60 161.82 C 165.86 161.39 164.90 161.64 164.47 162.38 Z M 163.96 163.26 L 163.40 164.13 C 162.94 164.86 163.15 165.82 163.88 166.29 C 164.61 166.75 165.57 166.54 166.04 165.81 L 166.60 164.93 C 167.06 164.21 166.84 163.24 166.12 162.78 C 165.39 162.31 164.43 162.53 163.96 163.26 Z M 163.43 164.09 L 162.84 164.95 C 162.35 165.67 162.54 166.64 163.25 167.12 C 163.96 167.61 164.93 167.43 165.42 166.72 L 166.01 165.85 C 166.50 165.14 166.31 164.17 165.60 163.68 C 164.89 163.19 163.92 163.38 163.43 164.09 Z M 162.86 164.92 L 162.26 165.76 C 161.75 166.46 161.91 167.44 162.61 167.94 C 163.31 168.45 164.28 168.29 164.79 167.59 L 165.40 166.75 C 165.90 166.05 165.74 165.07 165.04 164.57 C 164.35 164.06 163.37 164.22 162.86 164.92 Z M 162.28 165.73 L 161.67 166.54 C 161.15 167.23 161.29 168.20 161.97 168.72 C 162.66 169.24 163.64 169.11 164.16 168.42 L 164.77 167.62 C 165.29 166.93 165.15 165.95 164.46 165.43 C 163.78 164.91 162.80 165.05 162.28 165.73 Z M 161.69 166.52 L 161.09 167.27 C 160.56 167.95 160.68 168.93 161.36 169.46 C 162.04 169.99 163.02 169.88 163.55 169.20 L 164.14 168.44 C 164.67 167.76 164.56 166.78 163.88 166.25 C 163.20 165.72 162.22 165.84 161.69 166.52 Z M 161.11 167.25 L 160.52 167.98 C 159.98 168.65 160.08 169.63 160.75 170.18 C 161.42 170.72 162.40 170.62 162.95 169.94 L 163.54 169.22 C 164.08 168.55 163.97 167.56 163.30 167.02 C 162.63 166.48 161.65 166.58 161.11 167.25 Z M 160.53 167.96 L 159.80 168.85 C 159.24 169.51 159.33 170.49 159.99 171.04 C 160.65 171.60 161.64 171.51 162.19 170.85 L 162.93 169.96 C 163.48 169.30 163.40 168.32 162.73 167.76 C 162.07 167.21 161.09 167.30 160.53 167.96 Z M 159.81 168.82 L 159.15 169.59 C 158.58 170.24 158.65 171.23 159.31 171.79 C 159.96 172.36 160.94 172.29 161.51 171.64 L 162.17 170.87 C 162.74 170.22 162.67 169.23 162.02 168.67 C 161.37 168.10 160.38 168.17 159.81 168.82 Z M 159.17 169.57 L 158.55 170.26 C 157.98 170.90 158.03 171.89 158.67 172.46 C 159.31 173.04 160.30 172.98 160.87 172.34 L 161.49 171.66 C 162.07 171.01 162.01 170.03 161.37 169.45 C 160.73 168.88 159.74 168.93 159.17 169.57 Z M 158.56 170.24 L 157.97 170.89 C 157.39 171.52 157.43 172.51 158.07 173.09 C 158.70 173.68 159.69 173.64 160.27 173.00 L 160.86 172.36 C 161.45 171.72 161.40 170.73 160.77 170.15 C 160.13 169.57 159.15 169.61 158.56 170.24 Z M 157.98 170.88 L 157.36 171.55 C 156.77 172.18 156.81 173.17 157.44 173.75 C 158.07 174.34 159.06 174.31 159.64 173.67 L 160.26 173.01 C 160.85 172.38 160.82 171.39 160.18 170.80 C 159.55 170.21 158.57 170.25 157.98 170.88 Z M 157.37 171.53 L 156.72 172.22 C 156.12 172.84 156.15 173.83 156.77 174.43 C 157.39 175.02 158.38 175.00 158.98 174.37 L 159.63 173.69 C 160.23 173.06 160.20 172.08 159.58 171.48 C 158.95 170.89 157.97 170.91 157.37 171.53 Z M 156.74 172.20 L 156.01 172.93 C 155.41 173.54 155.41 174.53 156.03 175.14 C 156.64 175.74 157.63 175.74 158.23 175.13 L 158.96 174.39 C 159.56 173.78 159.56 172.79 158.94 172.18 C 158.33 171.58 157.34 171.59 156.74 172.20 Z M 156.03 172.91 L 155.25 173.68 C 154.63 174.28 154.62 175.27 155.22 175.88 C 155.82 176.50 156.81 176.51 157.43 175.91 L 158.21 175.15 C 158.83 174.54 158.84 173.56 158.24 172.94 C 157.64 172.32 156.65 172.31 156.03 172.91 Z M 155.27 173.66 L 154.60 174.29 C 153.97 174.88 153.95 175.87 154.54 176.49 C 155.13 177.12 156.12 177.15 156.74 176.56 L 157.41 175.93 C 158.04 175.34 158.07 174.35 157.47 173.72 C 156.88 173.10 155.90 173.07 155.27 173.66 Z M 154.62 174.27 L 153.90 174.92 C 153.26 175.50 153.21 176.49 153.79 177.13 C 154.37 177.77 155.36 177.81 156.00 177.23 L 156.72 176.58 C 157.36 176.00 157.41 175.01 156.83 174.37 C 156.25 173.73 155.26 173.69 154.62 174.27 Z M 153.93 174.90 L 153.16 175.56 C 152.50 176.12 152.43 177.11 152.99 177.76 C 153.56 178.42 154.54 178.49 155.20 177.93 L 155.97 177.26 C 156.62 176.70 156.69 175.71 156.13 175.06 C 155.57 174.41 154.58 174.33 153.93 174.90 Z M 153.19 175.53 L 152.38 176.19 C 151.71 176.73 151.61 177.71 152.15 178.38 C 152.69 179.05 153.68 179.16 154.35 178.61 L 155.16 177.96 C 155.83 177.41 155.93 176.43 155.39 175.76 C 154.85 175.09 153.86 174.99 153.19 175.53 Z M 152.43 176.15 L 151.59 176.78 C 150.90 177.30 150.76 178.28 151.27 178.97 C 151.79 179.66 152.77 179.80 153.46 179.28 L 154.30 178.65 C 154.99 178.13 155.13 177.16 154.61 176.47 C 154.10 175.78 153.12 175.64 152.43 176.15 Z M 151.65 176.74 L 150.79 177.33 C 150.07 177.81 149.89 178.78 150.37 179.50 C 150.86 180.21 151.83 180.39 152.54 179.91 L 153.40 179.32 C 154.11 178.84 154.30 177.87 153.81 177.15 C 153.33 176.44 152.36 176.26 151.65 176.74 Z M 150.85 177.28 L 149.98 177.81 C 149.24 178.26 149.00 179.22 149.45 179.96 C 149.90 180.70 150.86 180.93 151.60 180.48 L 152.47 179.95 C 153.21 179.50 153.44 178.54 153.00 177.81 C 152.55 177.07 151.59 176.84 150.85 177.28 Z M 150.05 177.77 L 149.16 178.25 C 148.40 178.65 148.11 179.60 148.52 180.36 C 148.93 181.12 149.87 181.41 150.63 181.00 L 151.52 180.53 C 152.28 180.12 152.57 179.17 152.16 178.41 C 151.76 177.65 150.81 177.37 150.05 177.77 Z M 149.24 178.21 L 148.34 178.62 C 147.56 178.98 147.22 179.91 147.58 180.69 C 147.94 181.47 148.87 181.82 149.65 181.46 L 150.55 181.04 C 151.33 180.68 151.68 179.76 151.32 178.97 C 150.96 178.19 150.03 177.85 149.24 178.21 Z M 148.44 178.58 L 147.53 178.93 C 146.72 179.24 146.32 180.14 146.63 180.95 C 146.94 181.75 147.84 182.15 148.65 181.85 L 149.56 181.50 C 150.36 181.19 150.76 180.28 150.45 179.48 C 150.14 178.67 149.24 178.27 148.44 178.58 Z M 147.63 178.89 L 146.70 179.18 C 145.87 179.43 145.41 180.30 145.66 181.13 C 145.91 181.95 146.78 182.42 147.61 182.17 L 148.54 181.88 C 149.37 181.63 149.83 180.76 149.58 179.93 C 149.33 179.11 148.46 178.64 147.63 178.89 Z M 146.81 179.15 L 145.82 179.37 C 144.98 179.56 144.45 180.40 144.64 181.24 C 144.83 182.08 145.67 182.61 146.51 182.42 L 147.50 182.20 C 148.34 182.01 148.86 181.17 148.67 180.33 C 148.49 179.49 147.65 178.96 146.81 179.15 Z M 145.93 179.35 L 144.94 179.51 C 144.09 179.64 143.50 180.43 143.64 181.29 C 143.77 182.14 144.56 182.72 145.42 182.59 L 146.41 182.44 C 147.26 182.31 147.84 181.51 147.71 180.66 C 147.58 179.80 146.78 179.22 145.93 179.35 Z M 145.03 179.49 L 144.04 179.59 C 143.18 179.67 142.55 180.43 142.63 181.29 C 142.72 182.15 143.48 182.78 144.34 182.70 L 145.33 182.60 C 146.18 182.52 146.81 181.76 146.73 180.90 C 146.65 180.04 145.89 179.41 145.03 179.49 Z M 144.12 179.58 L 143.12 179.63 C 142.26 179.67 141.60 180.40 141.64 181.26 C 141.68 182.12 142.41 182.79 143.27 182.75 L 144.26 182.70 C 145.12 182.66 145.79 181.93 145.75 181.07 C 145.71 180.21 144.98 179.54 144.12 179.58 Z M 143.18 179.63 L 142.19 179.63 C 141.33 179.64 140.64 180.35 140.64 181.21 C 140.65 182.07 141.35 182.76 142.22 182.76 L 143.21 182.75 C 144.07 182.74 144.76 182.04 144.76 181.18 C 144.75 180.31 144.05 179.62 143.18 179.63 Z M 142.25 179.63 L 141.26 179.61 C 140.40 179.58 139.68 180.26 139.65 181.12 C 139.62 181.98 140.30 182.70 141.16 182.73 L 142.16 182.76 C 143.02 182.78 143.74 182.10 143.76 181.24 C 143.79 180.38 143.11 179.66 142.25 179.63 Z M 141.35 179.61 L 140.36 179.52 C 139.50 179.45 138.74 180.08 138.67 180.94 C 138.59 181.80 139.23 182.56 140.08 182.63 L 141.07 182.72 C 141.93 182.80 142.69 182.16 142.77 181.30 C 142.84 180.44 142.21 179.69 141.35 179.61 Z M 140.48 179.54 L 139.51 179.37 C 138.66 179.23 137.85 179.80 137.71 180.65 C 137.56 181.50 138.13 182.31 138.98 182.45 L 139.96 182.62 C 140.81 182.76 141.62 182.19 141.76 181.34 C 141.91 180.49 141.33 179.68 140.48 179.54 Z M 139.66 179.41 L 138.70 179.14 C 137.87 178.91 137.01 179.39 136.78 180.22 C 136.54 181.05 137.03 181.92 137.86 182.15 L 138.83 182.42 C 139.66 182.65 140.52 182.16 140.75 181.33 C 140.98 180.50 140.49 179.64 139.66 179.41 Z M 138.88 179.20 L 137.94 178.81 C 137.14 178.48 136.23 178.86 135.90 179.66 C 135.57 180.45 135.95 181.37 136.74 181.70 L 137.68 182.09 C 138.48 182.42 139.39 182.04 139.72 181.24 C 140.05 180.44 139.67 179.53 138.88 179.20 Z M 138.10 178.89 L 137.22 178.39 C 136.46 177.97 135.51 178.24 135.09 178.99 C 134.67 179.74 134.93 180.69 135.69 181.12 L 136.58 181.62 C 137.33 182.04 138.28 181.77 138.70 181.02 C 139.12 180.27 138.86 179.31 138.10 178.89 Z M 137.34 178.47 L 136.48 177.88 C 135.77 177.39 134.80 177.57 134.31 178.28 C 133.82 178.99 134.00 179.96 134.71 180.45 L 135.57 181.04 C 136.28 181.53 137.25 181.35 137.74 180.64 C 138.23 179.93 138.05 178.96 137.34 178.47 Z M 136.57 177.95 L 135.77 177.31 C 135.09 176.77 134.11 176.88 133.57 177.55 C 133.04 178.23 133.15 179.21 133.82 179.75 L 134.62 180.39 C 135.30 180.93 136.28 180.81 136.82 180.14 C 137.36 179.47 137.25 178.48 136.57 177.95 Z M 135.83 177.36 L 135.09 176.70 C 134.45 176.13 133.46 176.18 132.89 176.83 C 132.31 177.47 132.37 178.46 133.02 179.03 L 133.76 179.69 C 134.40 180.27 135.39 180.21 135.96 179.56 C 136.53 178.92 136.48 177.93 135.83 177.36 Z M 135.14 176.74 L 134.47 176.10 C 133.85 175.50 132.86 175.52 132.27 176.14 C 131.67 176.76 131.68 177.75 132.30 178.35 L 132.97 178.99 C 133.59 179.59 134.58 179.57 135.18 178.95 C 135.78 178.33 135.76 177.34 135.14 176.74 Z M 134.51 176.14 L 133.72 175.31 C 133.12 174.69 132.13 174.67 131.51 175.27 C 130.89 175.87 130.87 176.85 131.47 177.48 L 132.26 178.31 C 132.86 178.93 133.85 178.95 134.47 178.35 C 135.09 177.75 135.11 176.77 134.51 176.14 Z M 133.77 175.37 L 133.11 174.61 C 132.54 173.96 131.56 173.89 130.90 174.45 C 130.25 175.02 130.18 176.00 130.75 176.65 L 131.41 177.42 C 131.98 178.07 132.96 178.14 133.62 177.57 C 134.27 177.01 134.34 176.02 133.77 175.37 Z M 133.16 174.67 L 132.60 173.95 C 132.07 173.27 131.09 173.14 130.41 173.67 C 129.73 174.20 129.60 175.18 130.13 175.86 L 130.69 176.59 C 131.22 177.27 132.20 177.39 132.88 176.86 C 133.57 176.34 133.69 175.36 133.16 174.67 Z M 132.65 174.02 L 132.13 173.27 C 131.64 172.56 130.66 172.38 129.96 172.88 C 129.25 173.37 129.07 174.34 129.56 175.05 L 130.08 175.80 C 130.58 176.51 131.55 176.68 132.26 176.19 C 132.97 175.70 133.14 174.72 132.65 174.02 Z M 132.17 173.33 L 131.64 172.49 C 131.18 171.76 130.22 171.54 129.49 172.00 C 128.76 172.45 128.54 173.42 129.00 174.15 L 129.52 174.99 C 129.98 175.72 130.95 175.94 131.68 175.48 C 132.41 175.02 132.63 174.06 132.17 173.33 Z M 131.68 172.55 L 131.19 171.68 C 130.76 170.93 129.81 170.67 129.06 171.09 C 128.31 171.51 128.04 172.47 128.47 173.22 L 128.96 174.09 C 129.39 174.84 130.34 175.10 131.09 174.68 C 131.84 174.25 132.10 173.30 131.68 172.55 Z M 131.22 171.74 L 130.76 170.84 C 130.36 170.07 129.42 169.77 128.66 170.16 C 127.89 170.55 127.58 171.49 127.98 172.26 L 128.44 173.16 C 128.83 173.93 129.77 174.23 130.54 173.84 C 131.31 173.45 131.61 172.50 131.22 171.74 Z M 130.78 170.89 L 130.37 170.00 C 130.01 169.22 129.08 168.88 128.30 169.24 C 127.51 169.60 127.17 170.53 127.54 171.31 L 127.95 172.21 C 128.31 172.99 129.24 173.33 130.02 172.96 C 130.81 172.60 131.15 171.67 130.78 170.89 Z M 130.39 170.05 L 130.01 169.13 C 129.67 168.34 128.76 167.96 127.96 168.30 C 127.17 168.63 126.79 169.54 127.13 170.34 L 127.51 171.26 C 127.85 172.06 128.76 172.43 129.56 172.10 C 130.35 171.76 130.73 170.85 130.39 170.05 Z M 130.03 169.19 L 129.67 168.24 C 129.37 167.43 128.47 167.02 127.67 167.33 C 126.86 167.63 126.45 168.53 126.75 169.33 L 127.11 170.28 C 127.41 171.09 128.31 171.50 129.11 171.20 C 129.92 170.90 130.33 170.00 130.03 169.19 Z M 129.69 168.30 L 129.38 167.35 C 129.11 166.53 128.23 166.08 127.41 166.35 C 126.59 166.63 126.15 167.51 126.42 168.33 L 126.73 169.28 C 127.00 170.10 127.88 170.54 128.70 170.27 C 129.52 170.00 129.97 169.12 129.69 168.30 Z M 129.40 167.40 L 129.11 166.44 C 128.87 165.61 128.00 165.14 127.18 165.38 C 126.35 165.63 125.88 166.49 126.12 167.32 L 126.40 168.28 C 126.64 169.11 127.51 169.58 128.34 169.33 C 129.17 169.09 129.64 168.22 129.40 167.40 Z M 129.12 166.47 L 128.86 165.50 C 128.64 164.67 127.78 164.18 126.95 164.40 C 126.12 164.63 125.62 165.48 125.85 166.32 L 126.11 167.29 C 126.33 168.12 127.19 168.61 128.02 168.39 C 128.85 168.16 129.35 167.31 129.12 166.47 Z M 128.87 165.53 L 128.62 164.55 C 128.41 163.72 127.56 163.21 126.73 163.42 C 125.89 163.63 125.38 164.48 125.60 165.32 L 125.84 166.29 C 126.05 167.13 126.90 167.64 127.74 167.42 C 128.57 167.21 129.08 166.36 128.87 165.53 Z M 128.63 164.57 L 128.39 163.59 C 128.18 162.75 127.34 162.24 126.50 162.45 C 125.66 162.65 125.15 163.49 125.36 164.33 L 125.59 165.31 C 125.80 166.14 126.64 166.66 127.48 166.45 C 128.32 166.25 128.83 165.40 128.63 164.57 Z M 128.39 163.60 L 128.16 162.63 C 127.96 161.79 127.12 161.27 126.28 161.47 C 125.44 161.67 124.92 162.51 125.12 163.35 L 125.35 164.32 C 125.55 165.16 126.39 165.68 127.23 165.48 C 128.07 165.28 128.59 164.44 128.39 163.60 Z M 128.16 162.63 L 127.93 161.66 C 127.74 160.82 126.90 160.30 126.06 160.50 C 125.22 160.69 124.70 161.53 124.89 162.37 L 125.12 163.35 C 125.32 164.19 126.16 164.71 127.00 164.51 C 127.84 164.31 128.36 163.47 128.16 162.63 Z M 127.93 161.66 L 127.84 161.24 C 127.64 160.40 126.80 159.88 125.96 160.08 C 125.12 160.27 124.60 161.11 124.79 161.95 L 124.89 162.37 C 125.09 163.21 125.93 163.73 126.77 163.54 C 127.61 163.34 128.13 162.50 127.93 161.66 Z"
      fill="black"
      fill-rule="nonzero" /></svg>