<svg xmlns="http://www.w3.org/2000/svg" width="300" height="300" viewBox="0 0 300 300">
<path d="M 133.02 167.31 L 132.24 166.64 C 131.59 166.08 130.60 166.15 130.04 166.80 C 129.47 167.45 129.55 168.44 130.20 169.00 L 130.98 169.68 C 131.63 170.24 132.62 170.17 133.18 169.52 C 133.74 168.86 133.67 167.88 133.02 167.31 Z M 132.28 166.67 L 131.53 165.98 C 130.90 165.40 129.91 165.44 129.32 166.07 C 128.74 166.70 128.78 167.69 129.41 168.28 L 130.16 168.97 C 130.79 169.55 131.78 169.51 132.37 168.88 C 132.95 168.25 132.91 167.26 132.28 166.67 Z M 131.60 166.06 L 130.92 165.34 C 130.33 164.71 129.34 164.68 128.72 165.27 C 128.09 165.86 128.06 166.85 128.65 167.48 L 129.33 168.20 C 129.93 168.83 130.91 168.86 131.54 168.27 C 132.17 167.67 132.20 166.69 131.60 166.06 Z M 131.03 165.47 L 130.45 164.70 C 129.93 164.01 128.95 163.87 128.26 164.39 C 127.58 164.91 127.44 165.89 127.96 166.58 L 128.54 167.35 C 129.06 168.04 130.04 168.17 130.73 167.65 C 131.42 167.13 131.55 166.15 131.03 165.47 Z M 130.58 164.89 L 130.12 164.05 C 129.71 163.29 128.76 163.01 128.00 163.43 C 127.25 163.84 126.97 164.78 127.38 165.54 L 127.83 166.38 C 128.24 167.14 129.19 167.42 129.95 167.01 C 130.71 166.60 130.99 165.65 130.58 164.89 Z M 130.22 164.27 L 129.89 163.36 C 129.60 162.55 128.71 162.13 127.90 162.42 C 127.08 162.71 126.66 163.60 126.95 164.41 L 127.28 165.32 C 127.57 166.14 128.46 166.56 129.28 166.27 C 130.09 165.98 130.51 165.08 130.22 164.27 Z M 129.95 163.55 L 129.73 162.58 C 129.54 161.74 128.70 161.21 127.86 161.40 C 127.02 161.59 126.49 162.42 126.68 163.26 L 126.90 164.23 C 127.09 165.07 127.92 165.60 128.76 165.41 C 129.61 165.22 130.13 164.39 129.95 163.55 Z M 129.75 162.72 L 129.62 161.70 C 129.51 160.85 128.73 160.24 127.87 160.35 C 127.02 160.46 126.41 161.25 126.52 162.10 L 126.66 163.12 C 126.77 163.98 127.55 164.58 128.41 164.47 C 129.26 164.36 129.86 163.57 129.75 162.72 Z M 129.63 161.80 L 129.56 160.75 C 129.50 159.89 128.76 159.24 127.90 159.30 C 127.04 159.36 126.39 160.10 126.44 160.96 L 126.52 162.01 C 126.57 162.87 127.32 163.52 128.18 163.46 C 129.04 163.40 129.69 162.66 129.63 161.80 Z M 129.56 160.82 L 129.54 159.79 C 129.52 158.92 128.81 158.24 127.94 158.26 C 127.08 158.28 126.40 158.99 126.42 159.86 L 126.44 160.89 C 126.46 161.76 127.18 162.44 128.04 162.42 C 128.90 162.40 129.58 161.68 129.56 160.82 Z M 129.54 159.86 L 129.56 158.83 C 129.58 157.96 128.90 157.25 128.04 157.23 C 127.18 157.21 126.46 157.89 126.44 158.75 L 126.42 159.79 C 126.40 160.65 127.08 161.36 127.94 161.38 C 128.81 161.40 129.52 160.72 129.54 159.86 Z M 129.56 158.91 L 129.63 157.91 C 129.70 157.05 129.05 156.30 128.19 156.24 C 127.33 156.18 126.58 156.82 126.52 157.68 L 126.45 158.67 C 126.38 159.53 127.03 160.28 127.89 160.35 C 128.75 160.41 129.50 159.77 129.56 158.91 Z M 129.62 158.01 L 129.75 157.08 C 129.87 156.23 129.27 155.44 128.42 155.32 C 127.56 155.20 126.77 155.80 126.66 156.66 L 126.53 157.58 C 126.41 158.44 127.01 159.22 127.86 159.34 C 128.72 159.46 129.50 158.86 129.62 158.01 Z M 129.72 157.22 L 129.96 156.19 C 130.16 155.35 129.63 154.51 128.79 154.32 C 127.95 154.13 127.11 154.65 126.92 155.49 L 126.68 156.52 C 126.49 157.36 127.01 158.20 127.85 158.39 C 128.69 158.58 129.53 158.06 129.72 157.22 Z M 129.92 156.35 L 130.24 155.41 C 130.52 154.60 130.09 153.71 129.27 153.43 C 128.46 153.15 127.57 153.58 127.29 154.39 L 126.96 155.33 C 126.68 156.15 127.12 157.04 127.93 157.32 C 128.75 157.60 129.64 157.17 129.92 156.35 Z M 130.19 155.54 L 130.58 154.66 C 130.93 153.88 130.58 152.95 129.79 152.60 C 129.01 152.25 128.08 152.60 127.73 153.39 L 127.34 154.27 C 126.99 155.05 127.34 155.98 128.13 156.33 C 128.91 156.68 129.84 156.33 130.19 155.54 Z M 130.54 154.74 L 130.98 153.89 C 131.38 153.12 131.07 152.18 130.31 151.79 C 129.54 151.39 128.60 151.69 128.21 152.46 L 127.77 153.31 C 127.37 154.08 127.68 155.02 128.44 155.42 C 129.21 155.81 130.15 155.51 130.54 154.74 Z M 130.96 153.92 L 131.43 153.07 C 131.84 152.32 131.57 151.37 130.81 150.95 C 130.06 150.54 129.11 150.82 128.69 151.57 L 128.23 152.42 C 127.81 153.18 128.09 154.13 128.84 154.54 C 129.60 154.96 130.55 154.68 130.96 153.92 Z M 131.42 153.09 L 131.91 152.22 C 132.34 151.47 132.08 150.52 131.33 150.09 C 130.58 149.67 129.63 149.93 129.20 150.68 L 128.70 151.55 C 128.28 152.30 128.54 153.25 129.29 153.68 C 130.04 154.11 130.99 153.84 131.42 153.09 Z M 131.91 152.23 L 132.43 151.34 C 132.86 150.60 132.61 149.64 131.86 149.21 C 131.11 148.77 130.16 149.03 129.73 149.77 L 129.21 150.67 C 128.77 151.41 129.03 152.37 129.77 152.80 C 130.52 153.23 131.47 152.98 131.91 152.23 Z M 132.42 151.34 L 132.92 150.50 C 133.35 149.75 133.10 148.80 132.36 148.36 C 131.61 147.93 130.66 148.18 130.22 148.92 L 129.73 149.77 C 129.29 150.52 129.54 151.47 130.29 151.91 C 131.03 152.34 131.99 152.09 132.42 151.34 Z M 132.92 150.50 L 133.41 149.66 C 133.84 148.92 133.60 147.96 132.85 147.53 C 132.11 147.09 131.15 147.34 130.71 148.08 L 130.22 148.92 C 129.79 149.67 130.04 150.62 130.78 151.06 C 131.52 151.49 132.48 151.25 132.92 150.50 Z M 133.41 149.67 L 133.92 148.81 C 134.35 148.06 134.11 147.11 133.37 146.67 C 132.63 146.23 131.67 146.47 131.23 147.21 L 130.72 148.08 C 130.28 148.82 130.52 149.78 131.27 150.22 C 132.01 150.66 132.97 150.41 133.41 149.67 Z M 133.91 148.81 L 134.44 147.93 C 134.89 147.19 134.65 146.23 133.91 145.78 C 133.17 145.34 132.21 145.58 131.77 146.32 L 131.23 147.21 C 130.79 147.95 131.03 148.90 131.77 149.35 C 132.51 149.79 133.47 149.55 133.91 148.81 Z M 134.44 147.94 L 134.97 147.06 C 135.42 146.33 135.19 145.37 134.46 144.92 C 133.72 144.47 132.76 144.70 132.31 145.43 L 131.77 146.31 C 131.32 147.04 131.56 148.00 132.29 148.45 C 133.03 148.90 133.99 148.67 134.44 147.94 Z M 134.97 147.07 L 135.51 146.21 C 135.96 145.47 135.74 144.51 135.01 144.06 C 134.27 143.60 133.31 143.82 132.86 144.56 L 132.32 145.42 C 131.86 146.15 132.08 147.12 132.82 147.57 C 133.55 148.03 134.51 147.80 134.97 147.07 Z M 135.50 146.22 L 136.04 145.36 C 136.51 144.63 136.29 143.66 135.56 143.20 C 134.83 142.74 133.87 142.96 133.41 143.69 L 132.86 144.55 C 132.40 145.27 132.62 146.24 133.34 146.70 C 134.07 147.16 135.04 146.95 135.50 146.22 Z M 136.04 145.37 L 136.58 144.53 C 137.04 143.81 136.83 142.84 136.11 142.38 C 135.39 141.91 134.42 142.12 133.95 142.84 L 133.41 143.67 C 132.95 144.40 133.15 145.37 133.88 145.83 C 134.60 146.30 135.57 146.09 136.04 145.37 Z M 136.57 144.55 L 137.11 143.72 C 137.59 143.00 137.39 142.03 136.67 141.56 C 135.95 141.08 134.98 141.28 134.51 142.00 L 133.96 142.83 C 133.49 143.55 133.68 144.52 134.40 144.99 C 135.12 145.47 136.09 145.27 136.57 144.55 Z M 137.10 143.74 L 137.68 142.88 C 138.17 142.17 137.98 141.20 137.27 140.71 C 136.56 140.23 135.58 140.41 135.10 141.13 L 134.52 141.98 C 134.03 142.70 134.22 143.67 134.93 144.15 C 135.65 144.64 136.62 144.45 137.10 143.74 Z M 137.66 142.91 L 138.23 142.11 C 138.73 141.40 138.57 140.43 137.86 139.93 C 137.16 139.43 136.19 139.60 135.69 140.30 L 135.12 141.10 C 134.62 141.80 134.78 142.78 135.49 143.28 C 136.19 143.78 137.16 143.61 137.66 142.91 Z M 138.21 142.14 L 138.79 141.36 C 139.31 140.67 139.17 139.69 138.47 139.18 C 137.78 138.66 136.81 138.80 136.29 139.49 L 135.71 140.27 C 135.19 140.96 135.33 141.94 136.03 142.45 C 136.72 142.97 137.69 142.83 138.21 142.14 Z M 138.76 141.40 L 139.38 140.62 C 139.91 139.95 139.80 138.97 139.12 138.43 C 138.44 137.90 137.46 138.01 136.93 138.69 L 136.32 139.46 C 135.78 140.14 135.90 141.12 136.57 141.65 C 137.25 142.19 138.23 142.07 138.76 141.40 Z M 139.35 140.65 L 140.00 139.88 C 140.55 139.22 140.46 138.23 139.80 137.68 C 139.14 137.13 138.15 137.22 137.60 137.88 L 136.95 138.65 C 136.40 139.32 136.49 140.30 137.15 140.85 C 137.81 141.41 138.80 141.32 139.35 140.65 Z M 139.97 139.91 L 140.64 139.15 C 141.20 138.50 141.14 137.52 140.49 136.95 C 139.84 136.38 138.86 136.45 138.29 137.09 L 137.62 137.85 C 137.06 138.50 137.12 139.49 137.77 140.05 C 138.42 140.62 139.40 140.56 139.97 139.91 Z M 140.61 139.18 L 141.28 138.46 C 141.87 137.82 141.83 136.83 141.19 136.25 C 140.56 135.66 139.57 135.70 138.99 136.34 L 138.32 137.06 C 137.73 137.70 137.77 138.68 138.40 139.27 C 139.04 139.85 140.02 139.82 140.61 139.18 Z M 141.25 138.49 L 141.92 137.81 C 142.52 137.19 142.51 136.20 141.89 135.60 C 141.27 135.00 140.29 135.01 139.68 135.62 L 139.02 136.30 C 138.41 136.92 138.43 137.91 139.04 138.51 C 139.66 139.12 140.65 139.10 141.25 138.49 Z M 141.87 137.85 L 142.57 137.19 C 143.19 136.60 143.22 135.61 142.63 134.99 C 142.04 134.36 141.05 134.33 140.42 134.92 L 139.73 135.58 C 139.10 136.17 139.07 137.16 139.66 137.79 C 140.26 138.41 141.25 138.44 141.87 137.85 Z M 142.51 137.24 L 143.28 136.58 C 143.93 136.02 144.01 135.03 143.45 134.38 C 142.88 133.73 141.90 133.65 141.24 134.22 L 140.48 134.87 C 139.82 135.44 139.75 136.42 140.31 137.08 C 140.87 137.73 141.86 137.80 142.51 137.24 Z M 143.22 136.63 L 144.06 135.98 C 144.74 135.44 144.85 134.46 144.32 133.78 C 143.79 133.11 142.81 132.99 142.13 133.52 L 141.30 134.17 C 140.62 134.70 140.50 135.68 141.03 136.36 C 141.56 137.04 142.55 137.16 143.22 136.63 Z M 144.01 136.01 L 144.78 135.45 C 145.48 134.95 145.64 133.97 145.13 133.27 C 144.63 132.57 143.65 132.42 142.95 132.92 L 142.18 133.48 C 141.48 133.99 141.32 134.96 141.83 135.66 C 142.33 136.36 143.31 136.52 144.01 136.01 Z M 144.73 135.49 L 145.57 134.93 C 146.29 134.45 146.48 133.48 146.01 132.76 C 145.53 132.05 144.56 131.85 143.84 132.33 L 143.00 132.89 C 142.29 133.37 142.09 134.33 142.57 135.05 C 143.05 135.77 144.02 135.96 144.73 135.49 Z M 145.51 134.97 L 146.39 134.44 C 147.13 133.99 147.37 133.03 146.93 132.29 C 146.48 131.55 145.52 131.32 144.78 131.76 L 143.90 132.29 C 143.16 132.74 142.92 133.70 143.37 134.44 C 143.81 135.17 144.77 135.41 145.51 134.97 Z M 146.32 134.48 L 147.22 134.00 C 147.99 133.60 148.28 132.65 147.87 131.89 C 147.47 131.13 146.53 130.84 145.76 131.24 L 144.86 131.72 C 144.10 132.12 143.81 133.07 144.21 133.83 C 144.61 134.59 145.56 134.88 146.32 134.48 Z M 147.13 134.05 L 148.07 133.63 C 148.85 133.28 149.21 132.36 148.86 131.57 C 148.51 130.78 147.59 130.43 146.80 130.78 L 145.86 131.19 C 145.07 131.54 144.72 132.46 145.07 133.25 C 145.42 134.04 146.34 134.40 147.13 134.05 Z M 147.95 133.68 L 148.91 133.34 C 149.73 133.06 150.16 132.17 149.87 131.36 C 149.59 130.54 148.70 130.11 147.89 130.39 L 146.92 130.73 C 146.11 131.01 145.68 131.90 145.96 132.72 C 146.24 133.53 147.13 133.96 147.95 133.68 Z M 148.79 133.38 L 149.75 133.13 C 150.59 132.92 151.09 132.07 150.88 131.23 C 150.66 130.40 149.81 129.89 148.97 130.11 L 148.01 130.36 C 147.18 130.57 146.67 131.42 146.89 132.26 C 147.10 133.09 147.95 133.59 148.79 133.38 Z M 149.63 133.16 L 150.60 132.99 C 151.45 132.84 152.02 132.03 151.87 131.18 C 151.72 130.33 150.91 129.76 150.06 129.91 L 149.09 130.08 C 148.24 130.23 147.68 131.04 147.83 131.89 C 147.98 132.74 148.79 133.31 149.63 133.16 Z M 150.49 133.00 L 151.46 132.90 C 152.32 132.81 152.94 132.04 152.85 131.19 C 152.76 130.33 151.99 129.71 151.13 129.80 L 150.17 129.90 C 149.31 129.99 148.69 130.76 148.78 131.61 C 148.87 132.47 149.63 133.09 150.49 133.00 Z M 151.35 132.91 L 152.31 132.87 C 153.17 132.84 153.84 132.12 153.81 131.26 C 153.78 130.40 153.06 129.72 152.19 129.75 L 151.24 129.79 C 150.38 129.82 149.70 130.54 149.74 131.40 C 149.77 132.27 150.49 132.94 151.35 132.91 Z M 152.16 132.87 L 153.13 132.93 C 153.99 132.97 154.73 132.31 154.77 131.45 C 154.82 130.59 154.16 129.86 153.30 129.81 L 152.34 129.76 C 151.48 129.71 150.74 130.37 150.69 131.23 C 150.64 132.09 151.30 132.83 152.16 132.87 Z M 152.95 132.91 L 153.92 133.08 C 154.77 133.22 155.58 132.66 155.73 131.81 C 155.88 130.96 155.31 130.15 154.46 130.00 L 153.48 129.83 C 152.63 129.68 151.82 130.25 151.68 131.10 C 151.53 131.95 152.10 132.76 152.95 132.91 Z M 153.72 133.03 L 154.71 133.34 C 155.53 133.60 156.41 133.15 156.67 132.33 C 156.93 131.51 156.48 130.63 155.66 130.37 L 154.66 130.05 C 153.84 129.79 152.96 130.24 152.70 131.06 C 152.44 131.89 152.90 132.76 153.72 133.03 Z M 154.51 133.26 L 155.43 133.70 C 156.21 134.07 157.14 133.74 157.51 132.96 C 157.88 132.18 157.55 131.25 156.77 130.88 L 155.85 130.44 C 155.08 130.07 154.14 130.40 153.77 131.18 C 153.40 131.96 153.73 132.89 154.51 133.26 Z M 155.29 133.62 L 156.14 134.14 C 156.87 134.59 157.83 134.36 158.28 133.63 C 158.73 132.89 158.50 131.93 157.77 131.48 L 156.92 130.96 C 156.18 130.51 155.22 130.74 154.77 131.48 C 154.32 132.21 154.55 133.17 155.29 133.62 Z M 156.04 134.08 L 156.87 134.68 C 157.57 135.18 158.55 135.02 159.05 134.32 C 159.56 133.62 159.40 132.65 158.70 132.14 L 157.86 131.54 C 157.16 131.04 156.19 131.20 155.68 131.90 C 155.18 132.60 155.34 133.57 156.04 134.08 Z M 156.81 134.63 L 157.61 135.28 C 158.28 135.82 159.26 135.71 159.80 135.04 C 160.35 134.37 160.24 133.39 159.57 132.85 L 158.77 132.20 C 158.10 131.66 157.11 131.76 156.57 132.43 C 156.03 133.10 156.13 134.08 156.81 134.63 Z M 157.56 135.23 L 158.31 135.90 C 158.96 136.47 159.94 136.41 160.52 135.76 C 161.09 135.11 161.02 134.13 160.38 133.56 L 159.62 132.89 C 158.98 132.32 157.99 132.38 157.42 133.03 C 156.85 133.67 156.91 134.66 157.56 135.23 Z M 158.27 135.86 L 158.99 136.54 C 159.61 137.13 160.60 137.10 161.19 136.47 C 161.79 135.85 161.76 134.86 161.13 134.27 L 160.42 133.59 C 159.79 133.00 158.80 133.03 158.21 133.65 C 157.62 134.28 157.65 135.27 158.27 135.86 Z M 158.95 136.50 L 159.73 137.29 C 160.34 137.91 161.33 137.91 161.94 137.31 C 162.55 136.70 162.56 135.71 161.95 135.10 L 161.17 134.30 C 160.56 133.69 159.57 133.69 158.96 134.29 C 158.35 134.90 158.34 135.89 158.95 136.50 Z M 159.69 137.25 L 160.37 137.99 C 160.95 138.63 161.94 138.67 162.58 138.09 C 163.21 137.51 163.26 136.52 162.67 135.88 L 161.99 135.14 C 161.41 134.51 160.43 134.46 159.79 135.04 C 159.15 135.62 159.11 136.61 159.69 137.25 Z M 160.33 137.95 L 160.94 138.66 C 161.50 139.32 162.48 139.40 163.14 138.85 C 163.80 138.29 163.88 137.30 163.32 136.65 L 162.71 135.93 C 162.16 135.27 161.17 135.19 160.51 135.75 C 159.85 136.30 159.77 137.29 160.33 137.95 Z M 160.91 138.63 L 161.48 139.34 C 162.01 140.02 163.00 140.13 163.67 139.59 C 164.35 139.05 164.46 138.07 163.92 137.40 L 163.35 136.68 C 162.81 136.01 161.83 135.90 161.16 136.43 C 160.48 136.97 160.37 137.95 160.91 138.63 Z M 161.46 139.31 L 162.05 140.10 C 162.58 140.79 163.55 140.92 164.24 140.40 C 164.93 139.87 165.06 138.90 164.54 138.21 L 163.94 137.42 C 163.42 136.74 162.44 136.61 161.75 137.13 C 161.07 137.65 160.93 138.63 161.46 139.31 Z M 162.04 140.08 L 162.62 140.88 C 163.13 141.58 164.11 141.73 164.81 141.22 C 165.50 140.71 165.65 139.73 165.14 139.04 L 164.56 138.23 C 164.05 137.54 163.07 137.39 162.37 137.89 C 161.68 138.40 161.53 139.38 162.04 140.08 Z M 162.61 140.86 L 163.19 141.68 C 163.69 142.39 164.66 142.55 165.37 142.06 C 166.07 141.56 166.24 140.59 165.74 139.88 L 165.16 139.06 C 164.66 138.35 163.69 138.19 162.98 138.68 C 162.28 139.18 162.11 140.16 162.61 140.86 Z M 163.18 141.66 L 163.75 142.50 C 164.23 143.21 165.20 143.39 165.92 142.90 C 166.63 142.42 166.81 141.45 166.32 140.73 L 165.75 139.90 C 165.27 139.19 164.30 139.01 163.58 139.49 C 162.87 139.98 162.69 140.95 163.18 141.66 Z M 163.73 142.48 L 164.29 143.31 C 164.77 144.03 165.73 144.23 166.45 143.75 C 167.17 143.28 167.37 142.31 166.89 141.59 L 166.34 140.75 C 165.86 140.03 164.89 139.84 164.17 140.31 C 163.45 140.79 163.26 141.76 163.73 142.48 Z M 164.28 143.30 L 164.82 144.14 C 165.29 144.86 166.25 145.07 166.98 144.61 C 167.70 144.14 167.91 143.17 167.45 142.45 L 166.90 141.61 C 166.44 140.88 165.47 140.67 164.74 141.14 C 164.02 141.61 163.81 142.57 164.28 143.30 Z M 164.81 144.12 L 165.34 144.97 C 165.79 145.70 166.76 145.92 167.49 145.47 C 168.22 145.01 168.44 144.05 167.99 143.31 L 167.46 142.47 C 167.00 141.74 166.04 141.51 165.31 141.97 C 164.57 142.43 164.35 143.39 164.81 144.12 Z M 165.33 144.95 L 165.85 145.81 C 166.29 146.55 167.25 146.78 167.99 146.34 C 168.73 145.89 168.96 144.93 168.52 144.19 L 168.00 143.33 C 167.55 142.60 166.59 142.36 165.85 142.81 C 165.12 143.25 164.88 144.21 165.33 144.95 Z M 165.83 145.79 L 166.36 146.68 C 166.79 147.42 167.75 147.67 168.49 147.24 C 169.24 146.80 169.49 145.85 169.05 145.10 L 168.53 144.21 C 168.09 143.47 167.14 143.22 166.39 143.65 C 165.65 144.09 165.40 145.05 165.83 145.79 Z M 166.35 146.66 L 166.84 147.54 C 167.27 148.29 168.22 148.55 168.97 148.12 C 169.72 147.70 169.98 146.74 169.56 145.99 L 169.06 145.12 C 168.63 144.37 167.68 144.11 166.93 144.53 C 166.18 144.96 165.92 145.91 166.35 146.66 Z M 166.84 147.52 L 167.31 148.38 C 167.73 149.13 168.68 149.40 169.43 148.99 C 170.19 148.57 170.46 147.62 170.04 146.86 L 169.57 146.01 C 169.15 145.26 168.20 144.98 167.44 145.40 C 166.69 145.82 166.42 146.77 166.84 147.52 Z M 167.30 148.36 L 167.77 149.23 C 168.18 149.99 169.13 150.27 169.89 149.86 C 170.65 149.45 170.93 148.50 170.52 147.74 L 170.05 146.88 C 169.64 146.12 168.69 145.84 167.93 146.25 C 167.17 146.66 166.89 147.61 167.30 148.36 Z M 167.76 149.22 L 168.23 150.09 C 168.63 150.86 169.57 151.15 170.34 150.74 C 171.10 150.34 171.39 149.40 170.99 148.63 L 170.52 147.76 C 170.12 147.00 169.18 146.70 168.41 147.11 C 167.65 147.51 167.36 148.45 167.76 149.22 Z M 168.22 150.08 L 168.67 150.96 C 169.06 151.72 170.00 152.03 170.77 151.63 C 171.54 151.24 171.84 150.30 171.45 149.53 L 171.00 148.65 C 170.60 147.88 169.66 147.58 168.90 147.97 C 168.13 148.37 167.83 149.31 168.22 150.08 Z M 168.66 150.94 L 169.10 151.82 C 169.48 152.60 170.42 152.91 171.19 152.53 C 171.96 152.14 172.28 151.21 171.90 150.44 L 171.46 149.55 C 171.07 148.78 170.14 148.46 169.36 148.84 C 168.59 149.23 168.28 150.16 168.66 150.94 Z M 169.09 151.80 L 169.48 152.63 C 169.85 153.40 170.79 153.73 171.56 153.36 C 172.34 152.99 172.67 152.06 172.30 151.28 L 171.91 150.46 C 171.54 149.68 170.60 149.35 169.83 149.72 C 169.05 150.09 168.72 151.02 169.09 151.80 Z M 169.47 152.59 L 169.86 153.48 C 170.22 154.26 171.14 154.62 171.93 154.26 C 172.71 153.91 173.07 152.99 172.71 152.20 L 172.32 151.31 C 171.96 150.53 171.04 150.18 170.25 150.53 C 169.47 150.88 169.11 151.81 169.47 152.59 Z M 169.84 153.43 L 170.24 154.40 C 170.57 155.20 171.48 155.58 172.28 155.25 C 173.08 154.92 173.46 154.01 173.13 153.21 L 172.73 152.25 C 172.41 151.45 171.49 151.07 170.70 151.39 C 169.90 151.72 169.52 152.63 169.84 153.43 Z M 170.22 154.34 L 170.59 155.34 C 170.88 156.15 171.78 156.56 172.59 156.26 C 173.40 155.96 173.81 155.06 173.52 154.26 L 173.15 153.26 C 172.85 152.46 171.95 152.04 171.14 152.34 C 170.34 152.64 169.92 153.54 170.22 154.34 Z M 170.57 155.28 L 170.84 156.12 C 171.11 156.94 172.00 157.38 172.82 157.11 C 173.63 156.84 174.08 155.96 173.81 155.14 L 173.53 154.31 C 173.26 153.49 172.38 153.04 171.56 153.31 C 170.74 153.58 170.30 154.47 170.57 155.28 Z M 170.83 156.07 L 171.09 156.97 C 171.33 157.80 172.20 158.27 173.02 158.03 C 173.85 157.79 174.33 156.92 174.09 156.10 L 173.83 155.20 C 173.58 154.37 172.72 153.89 171.89 154.13 C 171.06 154.37 170.59 155.24 170.83 156.07 Z M 171.07 156.91 L 171.31 157.87 C 171.52 158.71 172.37 159.22 173.20 159.01 C 174.04 158.81 174.55 157.96 174.34 157.12 L 174.10 156.16 C 173.90 155.32 173.05 154.81 172.21 155.02 C 171.38 155.22 170.86 156.07 171.07 156.91 Z M 171.30 157.81 L 171.51 158.85 C 171.68 159.69 172.50 160.24 173.35 160.07 C 174.19 159.90 174.74 159.07 174.57 158.23 L 174.36 157.19 C 174.19 156.34 173.36 155.80 172.52 155.97 C 171.67 156.14 171.13 156.96 171.30 157.81 Z M 171.50 158.78 L 171.67 159.89 C 171.80 160.74 172.60 161.33 173.45 161.19 C 174.30 161.06 174.89 160.26 174.75 159.41 L 174.58 158.30 C 174.45 157.45 173.65 156.86 172.80 157.00 C 171.95 157.13 171.36 157.93 171.50 158.78 Z M 171.66 159.83 L 171.77 160.83 C 171.87 161.68 172.64 162.30 173.50 162.20 C 174.36 162.11 174.97 161.33 174.88 160.48 L 174.76 159.48 C 174.67 158.62 173.89 158.00 173.04 158.10 C 172.18 158.20 171.56 158.97 171.66 159.83 Z M 171.77 160.77 L 171.84 161.76 C 171.90 162.62 172.65 163.26 173.51 163.20 C 174.37 163.14 175.02 162.39 174.95 161.53 L 174.88 160.54 C 174.82 159.68 174.07 159.03 173.21 159.09 C 172.35 159.16 171.70 159.91 171.77 160.77 Z M 171.84 161.70 L 171.87 162.71 C 171.90 163.58 172.62 164.25 173.49 164.22 C 174.35 164.19 175.02 163.47 174.99 162.61 L 174.96 161.59 C 174.93 160.73 174.21 160.06 173.34 160.08 C 172.48 160.11 171.81 160.84 171.84 161.70 Z M 171.87 162.65 L 171.86 163.67 C 171.85 164.53 172.55 165.24 173.41 165.25 C 174.27 165.25 174.98 164.56 174.98 163.70 L 174.99 162.68 C 175.00 161.81 174.31 161.11 173.45 161.10 C 172.58 161.09 171.88 161.79 171.87 162.65 Z M 171.86 163.60 L 171.81 164.61 C 171.76 165.48 172.42 166.21 173.28 166.26 C 174.14 166.31 174.88 165.65 174.92 164.79 L 174.98 163.77 C 175.03 162.91 174.37 162.18 173.51 162.13 C 172.65 162.08 171.91 162.74 171.86 163.60 Z M 171.81 164.53 L 171.70 165.52 C 171.61 166.38 172.23 167.15 173.08 167.25 C 173.94 167.34 174.71 166.73 174.81 165.87 L 174.92 164.88 C 175.01 164.02 174.40 163.25 173.54 163.15 C 172.68 163.06 171.91 163.67 171.81 164.53 Z M 171.72 165.42 L 171.55 166.39 C 171.40 167.23 171.96 168.04 172.81 168.20 C 173.66 168.35 174.47 167.78 174.62 166.93 L 174.79 165.97 C 174.94 165.12 174.38 164.31 173.53 164.16 C 172.68 164.01 171.87 164.57 171.72 165.42 Z M 171.57 166.26 L 171.28 167.36 C 171.06 168.19 171.56 169.05 172.40 169.27 C 173.23 169.49 174.08 168.99 174.30 168.16 L 174.59 167.06 C 174.81 166.22 174.32 165.37 173.48 165.15 C 172.65 164.93 171.79 165.43 171.57 166.26 Z M 171.32 167.23 L 170.96 168.25 C 170.67 169.06 171.09 169.95 171.91 170.24 C 172.72 170.53 173.61 170.11 173.90 169.30 L 174.26 168.28 C 174.55 167.47 174.13 166.58 173.32 166.29 C 172.51 166.00 171.61 166.42 171.32 167.23 Z M 171.00 168.14 L 170.59 169.07 C 170.24 169.86 170.60 170.78 171.39 171.13 C 172.18 171.48 173.10 171.12 173.45 170.34 L 173.86 169.41 C 174.21 168.62 173.85 167.69 173.06 167.35 C 172.28 167.00 171.35 167.35 171.00 168.14 Z M 170.63 168.98 L 170.19 169.83 C 169.80 170.59 170.09 171.54 170.86 171.93 C 171.62 172.33 172.57 172.03 172.96 171.27 L 173.40 170.42 C 173.80 169.66 173.50 168.72 172.74 168.32 C 171.98 167.92 171.03 168.22 170.63 168.98 Z M 170.23 169.76 L 169.79 170.52 C 169.35 171.26 169.60 172.22 170.34 172.65 C 171.09 173.09 172.04 172.84 172.48 172.10 L 172.93 171.34 C 173.36 170.60 173.11 169.64 172.37 169.20 C 171.63 168.77 170.67 169.02 170.23 169.76 Z M 169.82 170.46 L 169.31 171.26 C 168.84 171.99 169.05 172.95 169.77 173.42 C 170.50 173.89 171.46 173.68 171.93 172.95 L 172.45 172.15 C 172.91 171.43 172.70 170.46 171.98 170.00 C 171.25 169.53 170.29 169.74 169.82 170.46 Z M 169.35 171.20 L 168.78 171.99 C 168.28 172.70 168.44 173.67 169.14 174.17 C 169.84 174.67 170.82 174.51 171.32 173.81 L 171.89 173.02 C 172.39 172.32 172.23 171.34 171.53 170.84 C 170.83 170.34 169.85 170.50 169.35 171.20 Z M 168.84 171.92 L 168.24 172.65 C 167.70 173.32 167.80 174.31 168.47 174.85 C 169.14 175.39 170.12 175.29 170.67 174.62 L 171.26 173.89 C 171.80 173.22 171.70 172.23 171.03 171.69 C 170.36 171.15 169.38 171.25 168.84 171.92 Z M 168.30 172.59 L 167.62 173.33 C 167.04 173.97 167.09 174.96 167.73 175.54 C 168.37 176.12 169.36 176.07 169.94 175.43 L 170.61 174.69 C 171.19 174.05 171.14 173.06 170.50 172.48 C 169.86 171.90 168.88 171.95 168.30 172.59 Z M 167.66 173.29 L 166.98 173.99 C 166.38 174.60 166.39 175.59 167.01 176.19 C 167.63 176.80 168.62 176.78 169.22 176.17 L 169.90 175.47 C 170.50 174.85 170.49 173.87 169.87 173.26 C 169.25 172.66 168.26 172.67 167.66 173.29 Z M 167.01 173.96 L 166.34 174.61 C 165.72 175.22 165.71 176.20 166.31 176.82 C 166.91 177.44 167.90 177.45 168.52 176.85 L 169.19 176.19 C 169.81 175.59 169.82 174.60 169.22 173.99 C 168.62 173.37 167.63 173.36 167.01 173.96 Z M 166.37 174.59 L 165.63 175.27 C 165.00 175.85 164.96 176.84 165.55 177.47 C 166.14 178.11 167.12 178.14 167.76 177.56 L 168.49 176.88 C 169.12 176.29 169.16 175.30 168.57 174.67 C 167.99 174.04 167.00 174.00 166.37 174.59 Z M 165.67 175.24 L 164.89 175.92 C 164.24 176.49 164.17 177.47 164.74 178.12 C 165.30 178.77 166.29 178.84 166.94 178.27 L 167.72 177.59 C 168.37 177.02 168.44 176.04 167.87 175.39 C 167.30 174.74 166.32 174.67 165.67 175.24 Z M 164.93 175.88 L 164.11 176.55 C 163.44 177.09 163.34 178.07 163.88 178.74 C 164.42 179.41 165.41 179.51 166.08 178.97 L 166.90 178.31 C 167.56 177.76 167.67 176.78 167.12 176.11 C 166.58 175.44 165.60 175.34 164.93 175.88 Z M 164.16 176.50 L 163.32 177.13 C 162.63 177.64 162.48 178.62 163.00 179.31 C 163.51 180.01 164.49 180.15 165.18 179.64 L 166.02 179.01 C 166.72 178.50 166.86 177.52 166.35 176.83 C 165.83 176.14 164.86 175.99 164.16 176.50 Z M 163.39 177.08 L 162.52 177.66 C 161.80 178.14 161.60 179.10 162.08 179.82 C 162.55 180.54 163.52 180.74 164.24 180.26 L 165.11 179.68 C 165.83 179.21 166.03 178.24 165.55 177.52 C 165.08 176.80 164.11 176.61 163.39 177.08 Z M 162.59 177.61 L 161.71 178.13 C 160.97 178.56 160.72 179.52 161.15 180.26 C 161.59 181.01 162.54 181.26 163.29 180.82 L 164.17 180.31 C 164.91 179.87 165.16 178.92 164.73 178.17 C 164.29 177.43 163.34 177.18 162.59 177.61 Z M 161.79 178.08 L 160.90 178.54 C 160.14 178.93 159.83 179.87 160.22 180.64 C 160.61 181.40 161.55 181.71 162.32 181.32 L 163.21 180.87 C 163.98 180.48 164.28 179.54 163.89 178.77 C 163.50 178.00 162.56 177.69 161.79 178.08 Z M 160.99 178.50 L 160.10 178.89 C 159.31 179.23 158.94 180.15 159.29 180.94 C 159.63 181.73 160.55 182.09 161.34 181.75 L 162.24 181.36 C 163.03 181.01 163.39 180.09 163.04 179.30 C 162.70 178.51 161.78 178.15 160.99 178.50 Z M 160.19 178.85 L 159.29 179.18 C 158.48 179.47 158.06 180.37 158.35 181.18 C 158.65 181.99 159.54 182.40 160.35 182.11 L 161.25 181.78 C 162.06 181.49 162.48 180.59 162.19 179.78 C 161.89 178.97 161.00 178.56 160.19 178.85 Z M 159.39 179.14 L 158.40 179.43 C 157.58 179.67 157.10 180.53 157.34 181.36 C 157.58 182.19 158.45 182.67 159.27 182.43 L 160.26 182.14 C 161.08 181.90 161.56 181.04 161.32 180.21 C 161.08 179.38 160.21 178.90 159.39 179.14 Z M 158.50 179.40 L 157.51 179.62 C 156.67 179.81 156.14 180.65 156.33 181.49 C 156.52 182.33 157.35 182.86 158.19 182.67 L 159.18 182.45 C 160.02 182.26 160.55 181.43 160.36 180.59 C 160.18 179.75 159.34 179.22 158.50 179.40 Z M 157.60 179.61 L 156.61 179.77 C 155.76 179.91 155.19 180.72 155.33 181.57 C 155.47 182.42 156.27 182.99 157.12 182.85 L 158.11 182.69 C 158.96 182.55 159.53 181.74 159.39 180.89 C 159.25 180.04 158.45 179.47 157.60 179.61 Z M 156.69 179.76 L 155.71 179.88 C 154.85 179.98 154.24 180.75 154.34 181.61 C 154.44 182.47 155.22 183.08 156.07 182.98 L 157.05 182.86 C 157.91 182.76 158.52 181.98 158.42 181.13 C 158.32 180.27 157.54 179.66 156.69 179.76 Z M 155.76 179.87 L 154.79 179.95 C 153.93 180.02 153.29 180.77 153.36 181.63 C 153.43 182.49 154.18 183.13 155.04 183.06 L 156.02 182.98 C 156.88 182.91 157.52 182.16 157.45 181.30 C 157.38 180.44 156.62 179.80 155.76 179.87 Z M 154.84 179.95 L 153.85 179.99 C 152.99 180.03 152.32 180.76 152.36 181.62 C 152.40 182.48 153.13 183.15 153.99 183.11 L 154.98 183.07 C 155.85 183.03 156.51 182.30 156.47 181.44 C 156.43 180.57 155.70 179.91 154.84 179.95 Z M 153.93 179.99 L 152.94 179.98 C 152.08 179.98 151.37 180.67 151.37 181.54 C 151.36 182.40 152.06 183.10 152.92 183.11 L 153.91 183.11 C 154.77 183.12 155.47 182.42 155.48 181.56 C 155.49 180.70 154.79 180.00 153.93 179.99 Z M 153.05 179.99 L 152.06 179.91 C 151.20 179.85 150.45 180.49 150.38 181.35 C 150.32 182.21 150.96 182.96 151.82 183.03 L 152.81 183.10 C 153.67 183.17 154.42 182.52 154.49 181.66 C 154.55 180.80 153.91 180.05 153.05 179.99 Z M 152.19 179.93 L 151.20 179.77 C 150.34 179.63 149.54 180.21 149.40 181.06 C 149.27 181.91 149.84 182.71 150.69 182.85 L 151.69 183.01 C 152.54 183.15 153.34 182.57 153.48 181.72 C 153.62 180.87 153.04 180.07 152.19 179.93 Z M 151.34 179.80 L 150.35 179.54 C 149.52 179.32 148.67 179.82 148.45 180.65 C 148.23 181.49 148.73 182.34 149.56 182.56 L 150.55 182.82 C 151.38 183.04 152.24 182.54 152.46 181.70 C 152.67 180.87 152.18 180.02 151.34 179.80 Z M 150.48 179.58 L 149.51 179.23 C 148.69 178.94 147.80 179.37 147.51 180.18 C 147.22 180.99 147.65 181.88 148.46 182.17 L 149.43 182.52 C 150.25 182.81 151.14 182.38 151.43 181.57 C 151.72 180.76 151.29 179.87 150.48 179.58 Z M 149.60 179.27 L 148.65 178.86 C 147.86 178.52 146.94 178.89 146.60 179.68 C 146.26 180.47 146.63 181.39 147.42 181.73 L 148.37 182.14 C 149.16 182.48 150.08 182.11 150.42 181.32 C 150.76 180.53 150.39 179.61 149.60 179.27 Z M 148.72 178.89 L 147.82 178.45 C 147.05 178.07 146.11 178.39 145.73 179.17 C 145.35 179.94 145.67 180.88 146.45 181.26 L 147.35 181.70 C 148.12 182.08 149.06 181.76 149.44 180.98 C 149.82 180.21 149.49 179.27 148.72 178.89 Z M 147.87 178.48 L 147.04 178.03 C 146.28 177.63 145.34 177.91 144.93 178.67 C 144.52 179.43 144.81 180.38 145.57 180.78 L 146.39 181.23 C 147.15 181.64 148.10 181.35 148.51 180.59 C 148.92 179.83 148.63 178.89 147.87 178.48 Z M 147.09 178.06 L 146.15 177.51 C 145.40 177.08 144.45 177.33 144.01 178.07 C 143.58 178.82 143.83 179.78 144.58 180.21 L 145.52 180.76 C 146.26 181.19 147.22 180.94 147.65 180.19 C 148.09 179.45 147.84 178.49 147.09 178.06 Z M 146.20 177.54 L 145.34 177.00 C 144.61 176.53 143.65 176.75 143.19 177.48 C 142.72 178.21 142.94 179.17 143.67 179.63 L 144.52 180.18 C 145.25 180.64 146.22 180.42 146.68 179.70 C 147.14 178.97 146.93 178.00 146.20 177.54 Z M 145.39 177.03 L 144.62 176.50 C 143.91 176.01 142.94 176.19 142.45 176.90 C 141.96 177.61 142.14 178.58 142.85 179.07 L 143.62 179.60 C 144.33 180.09 145.30 179.91 145.79 179.20 C 146.28 178.49 146.10 177.52 145.39 177.03 Z M 144.66 176.53 L 143.91 175.98 C 143.21 175.47 142.24 175.62 141.73 176.31 C 141.22 177.01 141.37 177.98 142.06 178.49 L 142.81 179.04 C 143.51 179.55 144.49 179.40 145.00 178.71 C 145.51 178.01 145.36 177.04 144.66 176.53 Z M 143.93 175.99 L 143.14 175.39 C 142.46 174.87 141.48 175.00 140.96 175.68 C 140.43 176.37 140.56 177.35 141.25 177.87 L 142.04 178.47 C 142.72 179.00 143.70 178.87 144.23 178.18 C 144.75 177.50 144.62 176.52 143.93 175.99 Z M 143.16 175.41 L 142.38 174.78 C 141.70 174.25 140.72 174.37 140.18 175.04 C 139.65 175.72 139.77 176.70 140.44 177.24 L 141.23 177.86 C 141.91 178.39 142.89 178.28 143.42 177.60 C 143.96 176.92 143.84 175.94 143.16 175.41 Z M 142.39 174.80 L 141.61 174.16 C 140.94 173.62 139.95 173.72 139.41 174.39 C 138.87 175.06 138.97 176.05 139.64 176.59 L 140.43 177.22 C 141.10 177.77 142.08 177.66 142.62 176.99 C 143.17 176.32 143.06 175.34 142.39 174.80 Z M 141.62 174.17 L 140.85 173.54 C 140.18 172.99 139.20 173.08 138.65 173.75 C 138.10 174.42 138.20 175.40 138.86 175.95 L 139.63 176.58 C 140.30 177.13 141.28 177.03 141.83 176.37 C 142.38 175.70 142.28 174.72 141.62 174.17 Z M 140.86 173.54 L 140.09 172.90 C 139.42 172.35 138.44 172.44 137.89 173.10 C 137.34 173.76 137.42 174.75 138.09 175.30 L 138.86 175.94 C 139.52 176.49 140.50 176.40 141.05 175.74 C 141.61 175.08 141.52 174.10 140.86 173.54 Z M 140.09 172.91 L 139.32 172.26 C 138.66 171.71 137.68 171.79 137.12 172.45 C 136.57 173.11 136.65 174.10 137.31 174.65 L 138.08 175.30 C 138.74 175.85 139.73 175.77 140.28 175.10 C 140.84 174.44 140.75 173.46 140.09 172.91 Z M 139.32 172.26 L 138.65 171.69 C 137.99 171.14 137.00 171.22 136.45 171.88 C 135.89 172.54 135.98 173.52 136.64 174.08 L 137.31 174.65 C 137.97 175.21 138.96 175.12 139.51 174.46 C 140.07 173.80 139.98 172.82 139.32 172.26 Z M 138.66 171.70 L 137.97 171.10 C 137.31 170.54 136.33 170.61 135.76 171.27 C 135.20 171.92 135.27 172.91 135.93 173.47 L 136.62 174.07 C 137.28 174.63 138.26 174.56 138.82 173.91 C 139.39 173.25 139.31 172.27 138.66 171.70 Z M 137.99 171.12 L 137.22 170.44 C 136.58 169.86 135.60 169.92 135.02 170.56 C 134.44 171.20 134.50 172.19 135.14 172.76 L 135.90 173.45 C 136.54 174.02 137.53 173.97 138.11 173.33 C 138.68 172.69 138.63 171.70 137.99 171.12 Z M 137.25 170.46 L 136.40 169.67 C 135.77 169.08 134.79 169.11 134.20 169.73 C 133.61 170.36 133.64 171.35 134.26 171.94 L 135.11 172.74 C 135.74 173.33 136.73 173.30 137.32 172.67 C 137.91 172.04 137.88 171.05 137.25 170.46 Z M 136.42 169.69 L 135.74 169.01 C 135.12 168.41 134.13 168.42 133.53 169.04 C 132.93 169.66 132.94 170.65 133.56 171.25 L 134.24 171.92 C 134.86 172.52 135.85 172.51 136.45 171.89 C 137.05 171.28 137.04 170.29 136.42 169.69 Z M 135.75 169.03 L 135.02 168.30 C 134.41 167.69 133.42 167.69 132.82 168.30 C 132.21 168.91 132.21 169.90 132.82 170.51 L 133.54 171.24 C 134.15 171.85 135.14 171.85 135.75 171.24 C 136.36 170.63 136.36 169.64 135.75 169.03 Z M 135.03 168.31 L 134.30 167.56 C 133.70 166.95 132.71 166.94 132.09 167.54 C 131.48 168.15 131.47 169.13 132.07 169.75 L 132.80 170.50 C 133.41 171.12 134.40 171.12 135.01 170.52 C 135.63 169.92 135.64 168.93 135.03 168.31 Z M 134.31 167.58 L 133.60 166.83 C 133.00 166.21 132.01 166.19 131.39 166.79 C 130.77 167.39 130.75 168.38 131.35 169.00 L 132.06 169.74 C 132.66 170.36 133.65 170.38 134.27 169.78 C 134.89 169.18 134.91 168.20 134.31 167.58 Z M 133.61 166.84 L 132.94 166.14 C 132.35 165.51 131.37 165.48 130.74 166.07 C 130.11 166.67 130.08 167.65 130.67 168.28 L 131.33 168.99 C 131.93 169.61 132.91 169.64 133.54 169.05 C 134.17 168.46 134.20 167.47 133.61 166.84 Z M 132.96 166.16 L 132.20 165.32 C 131.62 164.69 130.63 164.64 129.99 165.22 C 129.36 165.81 129.31 166.79 129.89 167.43 L 130.66 168.26 C 131.24 168.90 132.22 168.94 132.86 168.36 C 133.50 167.78 133.54 166.79 132.96 166.16 Z M 132.22 165.35 L 131.52 164.55 C 130.95 163.91 129.97 163.84 129.32 164.41 C 128.67 164.98 128.61 165.97 129.18 166.61 L 129.87 167.41 C 130.44 168.06 131.43 168.12 132.08 167.55 C 132.72 166.98 132.79 165.99 132.22 165.35 Z M 131.54 164.58 L 130.95 163.87 C 130.39 163.21 129.40 163.13 128.75 163.69 C 128.09 164.24 128.00 165.23 128.56 165.89 L 129.16 166.59 C 129.71 167.25 130.70 167.33 131.36 166.78 C 132.01 166.22 132.10 165.23 131.54 164.58 Z M 130.96 163.88 L 130.43 163.25 C 129.89 162.59 128.90 162.49 128.24 163.04 C 127.57 163.59 127.48 164.57 128.03 165.24 L 128.55 165.87 C 129.10 166.54 130.08 166.63 130.75 166.08 C 131.41 165.53 131.51 164.55 130.96 163.88 Z"
      fill="black"
      fill-rule="nonzero" /></svg>