<svg xmlns="http://www.w3.org/2000/svg" width="300" height="300" viewBox="0 0 300 300">
<path d="M 131.26 174.67 L 130.31 174.37 C 129.48 174.11 128.61 174.57 128.35 175.39 C 128.09 176.21 128.55 177.09 129.37 177.35 L 130.33 177.65 C 131.15 177.90 132.03 177.45 132.29 176.62 C 132.54 175.80 132.09 174.92 131.26 174.67 Z M 130.39 174.40 L 129.46 174.04 C 128.65 173.74 127.75 174.15 127.44 174.95 C 127.14 175.76 127.55 176.66 128.36 176.97 L 129.29 177.32 C 130.10 177.62 131.00 177.21 131.30 176.41 C 131.60 175.60 131.20 174.70 130.39 174.40 Z M 129.62 174.12 L 128.74 173.66 C 127.97 173.27 127.03 173.57 126.63 174.34 C 126.24 175.10 126.54 176.04 127.31 176.44 L 128.19 176.89 C 128.96 177.29 129.90 176.99 130.29 176.22 C 130.69 175.45 130.39 174.51 129.62 174.12 Z M 128.95 173.79 L 128.22 173.25 C 127.52 172.74 126.55 172.89 126.04 173.58 C 125.52 174.28 125.67 175.25 126.36 175.77 L 127.09 176.31 C 127.79 176.82 128.76 176.67 129.28 175.98 C 129.79 175.28 129.64 174.31 128.95 173.79 Z M 128.44 173.46 L 127.81 172.77 C 127.23 172.13 126.25 172.08 125.61 172.66 C 124.97 173.24 124.93 174.23 125.51 174.87 L 126.14 175.56 C 126.72 176.20 127.70 176.24 128.34 175.66 C 128.98 175.08 129.03 174.10 128.44 173.46 Z M 128.01 173.04 L 127.50 172.14 C 127.07 171.40 126.11 171.14 125.36 171.57 C 124.62 172.00 124.36 172.96 124.79 173.70 L 125.31 174.60 C 125.74 175.34 126.69 175.60 127.44 175.17 C 128.19 174.74 128.44 173.78 128.01 173.04 Z M 127.62 172.43 L 127.28 171.42 C 127.01 170.60 126.12 170.16 125.31 170.44 C 124.49 170.71 124.05 171.60 124.32 172.41 L 124.67 173.42 C 124.94 174.24 125.83 174.68 126.64 174.40 C 127.46 174.13 127.90 173.24 127.62 172.43 Z M 127.34 171.62 L 127.17 170.76 C 127.01 169.91 126.20 169.36 125.35 169.52 C 124.50 169.68 123.95 170.49 124.11 171.34 L 124.27 172.21 C 124.43 173.05 125.25 173.61 126.09 173.45 C 126.94 173.29 127.50 172.47 127.34 171.62 Z M 127.19 170.91 L 127.11 169.95 C 127.03 169.09 126.27 168.46 125.41 168.54 C 124.55 168.62 123.92 169.38 124.00 170.24 L 124.09 171.19 C 124.17 172.05 124.93 172.68 125.78 172.60 C 126.64 172.52 127.27 171.76 127.19 170.91 Z M 127.11 170.08 L 127.10 169.06 C 127.09 168.20 126.39 167.50 125.53 167.51 C 124.66 167.52 123.97 168.23 123.98 169.09 L 123.99 170.11 C 124.00 170.97 124.71 171.67 125.57 171.66 C 126.43 171.65 127.12 170.94 127.11 170.08 Z M 127.10 169.18 L 127.17 168.11 C 127.23 167.25 126.57 166.51 125.71 166.45 C 124.85 166.39 124.11 167.04 124.05 167.90 L 123.98 168.97 C 123.93 169.83 124.58 170.58 125.44 170.63 C 126.30 170.69 127.04 170.04 127.10 169.18 Z M 127.16 168.22 L 127.31 167.13 C 127.43 166.28 126.84 165.49 125.98 165.37 C 125.13 165.25 124.34 165.84 124.22 166.70 L 124.07 167.79 C 123.95 168.64 124.54 169.43 125.39 169.55 C 126.25 169.67 127.04 169.08 127.16 168.22 Z M 127.29 167.24 L 127.51 166.23 C 127.69 165.39 127.15 164.56 126.31 164.37 C 125.47 164.19 124.64 164.73 124.46 165.57 L 124.24 166.59 C 124.06 167.43 124.60 168.26 125.44 168.44 C 126.28 168.62 127.11 168.09 127.29 167.24 Z M 127.49 166.32 L 127.76 165.33 C 127.99 164.50 127.51 163.64 126.68 163.40 C 125.84 163.17 124.98 163.66 124.75 164.49 L 124.48 165.48 C 124.25 166.31 124.73 167.17 125.57 167.41 C 126.40 167.64 127.26 167.15 127.49 166.32 Z M 127.74 165.40 L 128.06 164.43 C 128.33 163.61 127.89 162.72 127.07 162.45 C 126.25 162.18 125.37 162.63 125.10 163.44 L 124.78 164.42 C 124.50 165.24 124.95 166.12 125.77 166.39 C 126.59 166.66 127.47 166.22 127.74 165.40 Z M 128.04 164.49 L 128.40 163.54 C 128.70 162.73 128.29 161.83 127.49 161.53 C 126.68 161.23 125.78 161.63 125.48 162.44 L 125.12 163.39 C 124.82 164.19 125.22 165.09 126.03 165.40 C 126.84 165.70 127.74 165.29 128.04 164.49 Z M 128.38 163.59 L 128.75 162.68 C 129.08 161.89 128.71 160.97 127.91 160.64 C 127.11 160.31 126.20 160.69 125.87 161.49 L 125.49 162.39 C 125.16 163.19 125.54 164.10 126.34 164.43 C 127.13 164.76 128.05 164.39 128.38 163.59 Z M 128.74 162.72 L 129.12 161.86 C 129.47 161.08 129.12 160.15 128.33 159.80 C 127.54 159.45 126.62 159.80 126.27 160.59 L 125.89 161.45 C 125.53 162.24 125.89 163.16 126.68 163.51 C 127.46 163.86 128.39 163.51 128.74 162.72 Z M 129.10 161.90 L 129.57 160.91 C 129.94 160.13 129.61 159.20 128.83 158.83 C 128.05 158.47 127.12 158.80 126.75 159.58 L 126.28 160.56 C 125.91 161.34 126.25 162.27 127.03 162.64 C 127.80 163.01 128.74 162.68 129.10 161.90 Z M 129.55 160.95 L 130.02 160.03 C 130.41 159.26 130.10 158.32 129.33 157.93 C 128.56 157.54 127.62 157.85 127.23 158.62 L 126.77 159.54 C 126.38 160.31 126.69 161.25 127.46 161.64 C 128.23 162.03 129.17 161.72 129.55 160.95 Z M 130.00 160.06 L 130.46 159.19 C 130.87 158.43 130.58 157.49 129.82 157.08 C 129.06 156.67 128.12 156.96 127.71 157.72 L 127.25 158.59 C 126.84 159.35 127.13 160.29 127.89 160.70 C 128.65 161.11 129.59 160.82 130.00 160.06 Z M 130.45 159.22 L 130.91 158.40 C 131.33 157.65 131.07 156.70 130.32 156.27 C 129.57 155.85 128.61 156.12 128.19 156.87 L 127.73 157.69 C 127.30 158.44 127.57 159.40 128.32 159.82 C 129.07 160.24 130.02 159.98 130.45 159.22 Z M 130.90 158.42 L 131.38 157.61 C 131.81 156.87 131.56 155.91 130.82 155.47 C 130.08 155.04 129.12 155.29 128.68 156.03 L 128.20 156.84 C 127.77 157.59 128.02 158.54 128.76 158.98 C 129.50 159.42 130.46 159.17 130.90 158.42 Z M 131.36 157.63 L 131.88 156.78 C 132.32 156.04 132.09 155.08 131.35 154.64 C 130.61 154.19 129.65 154.42 129.21 155.16 L 128.69 156.01 C 128.25 156.75 128.48 157.71 129.22 158.15 C 129.96 158.60 130.92 158.37 131.36 157.63 Z M 131.87 156.79 L 132.39 155.95 C 132.85 155.22 132.62 154.25 131.89 153.80 C 131.16 153.34 130.20 153.57 129.74 154.30 L 129.22 155.15 C 128.76 155.88 128.99 156.84 129.72 157.30 C 130.45 157.75 131.41 157.53 131.87 156.79 Z M 132.39 155.96 L 132.92 155.11 C 133.38 154.39 133.17 153.42 132.44 152.96 C 131.71 152.50 130.75 152.72 130.29 153.44 L 129.75 154.29 C 129.29 155.02 129.50 155.98 130.23 156.44 C 130.96 156.91 131.93 156.69 132.39 155.96 Z M 132.92 155.12 L 133.46 154.27 C 133.93 153.55 133.72 152.58 132.99 152.12 C 132.27 151.65 131.30 151.86 130.84 152.59 L 130.29 153.44 C 129.82 154.16 130.04 155.13 130.76 155.59 C 131.49 156.06 132.45 155.85 132.92 155.12 Z M 133.46 154.28 L 134.00 153.44 C 134.47 152.72 134.26 151.75 133.54 151.28 C 132.81 150.81 131.85 151.02 131.38 151.75 L 130.84 152.58 C 130.37 153.31 130.58 154.27 131.30 154.74 C 132.03 155.21 132.99 155.00 133.46 154.28 Z M 134.00 153.45 L 134.54 152.61 C 135.01 151.89 134.81 150.92 134.09 150.45 C 133.37 149.98 132.40 150.18 131.93 150.91 L 131.38 151.74 C 130.91 152.46 131.12 153.43 131.84 153.90 C 132.56 154.37 133.53 154.17 134.00 153.45 Z M 134.54 152.62 L 135.09 151.78 C 135.57 151.06 135.37 150.09 134.65 149.62 C 133.93 149.14 132.96 149.34 132.48 150.06 L 131.93 150.90 C 131.46 151.62 131.66 152.59 132.38 153.06 C 133.10 153.54 134.06 153.34 134.54 152.62 Z M 135.08 151.79 L 135.64 150.96 C 136.12 150.24 135.93 149.27 135.22 148.79 C 134.50 148.31 133.53 148.50 133.05 149.22 L 132.49 150.05 C 132.01 150.77 132.20 151.74 132.92 152.22 C 133.63 152.70 134.60 152.51 135.08 151.79 Z M 135.64 150.97 L 136.21 150.13 C 136.69 149.42 136.51 148.45 135.80 147.96 C 135.08 147.48 134.11 147.66 133.63 148.37 L 133.06 149.21 C 132.57 149.92 132.75 150.89 133.47 151.38 C 134.18 151.86 135.15 151.68 135.64 150.97 Z M 136.20 150.15 L 136.78 149.30 C 137.28 148.60 137.10 147.62 136.40 147.13 C 135.69 146.64 134.72 146.81 134.22 147.52 L 133.64 148.36 C 133.14 149.07 133.32 150.04 134.02 150.53 C 134.73 151.03 135.70 150.85 136.20 150.15 Z M 136.78 149.32 L 137.37 148.49 C 137.87 147.79 137.70 146.81 137.00 146.31 C 136.30 145.81 135.32 145.98 134.82 146.68 L 134.23 147.50 C 133.73 148.21 133.90 149.18 134.60 149.68 C 135.30 150.18 136.27 150.02 136.78 149.32 Z M 137.35 148.51 L 137.94 147.70 C 138.45 147.01 138.30 146.03 137.60 145.52 C 136.91 145.01 135.93 145.16 135.42 145.86 L 134.83 146.66 C 134.33 147.36 134.48 148.34 135.17 148.84 C 135.87 149.35 136.85 149.20 137.35 148.51 Z M 137.93 147.72 L 138.51 146.94 C 139.03 146.25 138.89 145.28 138.20 144.76 C 137.51 144.24 136.53 144.38 136.01 145.07 L 135.43 145.84 C 134.92 146.53 135.06 147.51 135.75 148.03 C 136.43 148.55 137.41 148.41 137.93 147.72 Z M 138.50 146.96 L 139.12 146.15 C 139.65 145.47 139.53 144.49 138.84 143.96 C 138.16 143.44 137.18 143.56 136.65 144.24 L 136.03 145.05 C 135.50 145.73 135.62 146.71 136.31 147.24 C 136.99 147.77 137.97 147.64 138.50 146.96 Z M 139.10 146.18 L 139.74 145.39 C 140.28 144.72 140.17 143.73 139.50 143.19 C 138.83 142.65 137.85 142.76 137.31 143.43 L 136.67 144.22 C 136.13 144.89 136.24 145.87 136.91 146.41 C 137.58 146.95 138.56 146.85 139.10 146.18 Z M 139.71 145.42 L 140.35 144.67 C 140.91 144.01 140.82 143.02 140.17 142.47 C 139.51 141.91 138.52 141.99 137.97 142.65 L 137.33 143.40 C 136.77 144.06 136.86 145.05 137.51 145.60 C 138.17 146.16 139.16 146.08 139.71 145.42 Z M 140.32 144.70 L 140.97 143.97 C 141.54 143.33 141.49 142.34 140.85 141.77 C 140.20 141.19 139.22 141.25 138.64 141.89 L 137.99 142.62 C 137.42 143.26 137.47 144.25 138.12 144.82 C 138.76 145.40 139.75 145.34 140.32 144.70 Z M 140.94 144.01 L 141.59 143.32 C 142.19 142.70 142.16 141.71 141.54 141.11 C 140.91 140.52 139.92 140.54 139.33 141.17 L 138.67 141.86 C 138.08 142.48 138.10 143.47 138.73 144.06 C 139.35 144.66 140.34 144.63 140.94 144.01 Z M 141.55 143.37 L 142.24 142.69 C 142.86 142.09 142.87 141.10 142.27 140.49 C 141.67 139.87 140.68 139.85 140.06 140.45 L 139.37 141.12 C 138.75 141.73 138.74 142.71 139.34 143.33 C 139.94 143.95 140.93 143.97 141.55 143.37 Z M 142.18 142.75 L 142.94 142.08 C 143.58 141.51 143.65 140.53 143.08 139.88 C 142.51 139.23 141.52 139.17 140.87 139.74 L 140.12 140.40 C 139.47 140.97 139.41 141.96 139.98 142.60 C 140.55 143.25 141.54 143.32 142.18 142.75 Z M 142.87 142.14 L 143.70 141.48 C 144.38 140.95 144.50 139.96 143.96 139.29 C 143.43 138.61 142.45 138.49 141.77 139.03 L 140.94 139.69 C 140.26 140.22 140.14 141.20 140.68 141.88 C 141.21 142.55 142.19 142.67 142.87 142.14 Z M 143.64 141.53 L 144.44 140.96 C 145.15 140.46 145.32 139.49 144.82 138.78 C 144.32 138.08 143.35 137.91 142.64 138.41 L 141.84 138.98 C 141.13 139.48 140.97 140.45 141.46 141.15 C 141.96 141.86 142.93 142.03 143.64 141.53 Z M 144.38 141.01 L 145.22 140.47 C 145.95 140.01 146.17 139.05 145.71 138.32 C 145.25 137.59 144.28 137.37 143.55 137.83 L 142.71 138.36 C 141.98 138.82 141.76 139.79 142.22 140.52 C 142.68 141.25 143.65 141.47 144.38 141.01 Z M 145.14 140.52 L 146.03 140.03 C 146.79 139.61 147.06 138.67 146.65 137.91 C 146.23 137.15 145.28 136.88 144.53 137.29 L 143.63 137.78 C 142.88 138.20 142.60 139.15 143.02 139.90 C 143.44 140.66 144.38 140.94 145.14 140.52 Z M 145.93 140.08 L 146.85 139.66 C 147.64 139.29 147.98 138.37 147.62 137.58 C 147.26 136.80 146.33 136.46 145.55 136.82 L 144.63 137.24 C 143.84 137.60 143.50 138.53 143.86 139.32 C 144.22 140.10 145.15 140.44 145.93 140.08 Z M 146.73 139.71 L 147.67 139.37 C 148.48 139.08 148.90 138.19 148.61 137.37 C 148.32 136.56 147.43 136.14 146.62 136.43 L 145.67 136.77 C 144.86 137.06 144.44 137.95 144.73 138.76 C 145.02 139.58 145.92 140.00 146.73 139.71 Z M 147.51 139.42 L 148.48 139.18 C 149.32 138.98 149.84 138.14 149.63 137.30 C 149.43 136.46 148.59 135.95 147.75 136.15 L 146.78 136.38 C 145.94 136.58 145.42 137.43 145.62 138.26 C 145.82 139.10 146.67 139.62 147.51 139.42 Z M 148.29 139.22 L 149.27 139.11 C 150.13 139.01 150.74 138.24 150.65 137.38 C 150.55 136.52 149.78 135.91 148.92 136.00 L 147.94 136.12 C 147.08 136.21 146.47 136.98 146.56 137.84 C 146.66 138.70 147.43 139.31 148.29 139.22 Z M 149.07 139.12 L 150.05 139.14 C 150.91 139.15 151.62 138.47 151.64 137.60 C 151.66 136.74 150.97 136.03 150.11 136.01 L 149.12 136.00 C 148.26 135.98 147.55 136.66 147.53 137.53 C 147.52 138.39 148.20 139.10 149.07 139.12 Z M 149.84 139.12 L 150.84 139.27 C 151.69 139.40 152.48 138.82 152.62 137.97 C 152.75 137.11 152.16 136.32 151.31 136.18 L 150.32 136.03 C 149.46 135.90 148.67 136.49 148.54 137.34 C 148.41 138.19 148.99 138.99 149.84 139.12 Z M 150.64 139.23 L 151.61 139.51 C 152.44 139.75 153.31 139.27 153.55 138.44 C 153.79 137.62 153.31 136.75 152.48 136.51 L 151.51 136.23 C 150.68 135.99 149.81 136.47 149.57 137.29 C 149.33 138.12 149.81 138.99 150.64 139.23 Z M 151.46 139.45 L 152.40 139.84 C 153.19 140.17 154.11 139.78 154.43 138.98 C 154.76 138.19 154.38 137.28 153.58 136.95 L 152.64 136.56 C 151.84 136.24 150.93 136.62 150.60 137.42 C 150.28 138.22 150.66 139.13 151.46 139.45 Z M 152.28 139.79 L 153.20 140.25 C 153.97 140.64 154.91 140.33 155.30 139.56 C 155.69 138.79 155.38 137.85 154.61 137.46 L 153.69 137.00 C 152.92 136.61 151.98 136.92 151.59 137.69 C 151.20 138.46 151.51 139.40 152.28 139.79 Z M 153.12 140.21 L 154.00 140.72 C 154.74 141.16 155.70 140.90 156.13 140.16 C 156.57 139.42 156.32 138.46 155.57 138.02 L 154.69 137.51 C 153.95 137.08 152.99 137.33 152.56 138.07 C 152.12 138.81 152.37 139.77 153.12 140.21 Z M 153.93 140.68 L 154.75 141.21 C 155.47 141.68 156.44 141.48 156.91 140.76 C 157.38 140.04 157.18 139.07 156.46 138.60 L 155.64 138.06 C 154.91 137.59 153.95 137.80 153.48 138.52 C 153.01 139.24 153.21 140.21 153.93 140.68 Z M 154.70 141.18 L 155.55 141.78 C 156.25 142.28 157.23 142.12 157.73 141.41 C 158.23 140.71 158.06 139.74 157.36 139.24 L 156.51 138.63 C 155.81 138.13 154.83 138.30 154.33 139.00 C 153.83 139.70 154.00 140.68 154.70 141.18 Z M 155.50 141.74 L 156.34 142.40 C 157.02 142.93 158.00 142.80 158.53 142.12 C 159.06 141.44 158.94 140.46 158.25 139.93 L 157.41 139.28 C 156.73 138.75 155.75 138.87 155.22 139.55 C 154.69 140.23 154.82 141.22 155.50 141.74 Z M 156.30 142.36 L 157.04 142.98 C 157.70 143.54 158.68 143.45 159.24 142.79 C 159.79 142.13 159.70 141.14 159.04 140.59 L 158.30 139.97 C 157.64 139.41 156.66 139.50 156.10 140.16 C 155.55 140.82 155.64 141.81 156.30 142.36 Z M 157.01 142.96 L 157.69 143.56 C 158.34 144.13 159.32 144.06 159.89 143.42 C 160.46 142.77 160.40 141.78 159.75 141.21 L 159.07 140.61 C 158.42 140.04 157.44 140.11 156.87 140.75 C 156.30 141.40 156.36 142.39 157.01 142.96 Z M 157.68 143.55 L 158.41 144.20 C 159.05 144.77 160.04 144.71 160.61 144.07 C 161.18 143.43 161.13 142.44 160.48 141.87 L 159.76 141.22 C 159.12 140.65 158.13 140.70 157.56 141.34 C 156.98 141.99 157.04 142.98 157.68 143.55 Z M 158.40 144.19 L 159.14 144.85 C 159.78 145.43 160.76 145.38 161.34 144.74 C 161.92 144.10 161.87 143.11 161.23 142.53 L 160.49 141.87 C 159.85 141.29 158.86 141.35 158.29 141.99 C 157.71 142.63 157.76 143.61 158.40 144.19 Z M 159.12 144.84 L 159.86 145.52 C 160.50 146.11 161.48 146.06 162.07 145.43 C 162.65 144.80 162.61 143.81 161.98 143.22 L 161.24 142.55 C 160.60 141.96 159.62 142.00 159.03 142.64 C 158.45 143.27 158.49 144.26 159.12 144.84 Z M 159.84 145.51 L 160.57 146.19 C 161.19 146.79 162.18 146.76 162.78 146.13 C 163.37 145.51 163.34 144.52 162.72 143.93 L 161.99 143.24 C 161.37 142.65 160.38 142.67 159.79 143.30 C 159.19 143.92 159.22 144.91 159.84 145.51 Z M 160.55 146.17 L 161.26 146.87 C 161.87 147.47 162.86 147.46 163.47 146.85 C 164.07 146.23 164.06 145.25 163.45 144.64 L 162.74 143.95 C 162.12 143.34 161.13 143.35 160.53 143.97 C 159.92 144.58 159.93 145.57 160.55 146.17 Z M 161.24 146.85 L 161.94 147.57 C 162.55 148.18 163.54 148.19 164.15 147.59 C 164.77 146.99 164.78 146.00 164.17 145.38 L 163.47 144.66 C 162.86 144.05 161.87 144.04 161.26 144.64 C 160.64 145.25 160.63 146.23 161.24 146.85 Z M 161.92 147.55 L 162.61 148.28 C 163.21 148.91 164.19 148.94 164.82 148.34 C 165.45 147.75 165.48 146.77 164.89 146.14 L 164.19 145.40 C 163.60 144.78 162.61 144.75 161.99 145.34 C 161.36 145.93 161.33 146.92 161.92 147.55 Z M 162.59 148.26 L 163.20 148.93 C 163.78 149.57 164.77 149.62 165.41 149.04 C 166.05 148.46 166.10 147.47 165.52 146.83 L 164.91 146.16 C 164.33 145.52 163.34 145.47 162.70 146.05 C 162.06 146.63 162.01 147.62 162.59 148.26 Z M 163.19 148.92 L 163.82 149.63 C 164.39 150.27 165.37 150.34 166.02 149.77 C 166.67 149.20 166.73 148.21 166.16 147.56 L 165.53 146.85 C 164.96 146.20 163.97 146.14 163.33 146.71 C 162.68 147.28 162.62 148.27 163.19 148.92 Z M 163.81 149.62 L 164.48 150.39 C 165.05 151.04 166.04 151.11 166.69 150.55 C 167.34 149.98 167.41 148.99 166.84 148.34 L 166.17 147.57 C 165.60 146.92 164.61 146.85 163.96 147.42 C 163.31 147.98 163.24 148.97 163.81 149.62 Z M 164.48 150.39 L 165.21 151.23 C 165.78 151.88 166.76 151.95 167.41 151.38 C 168.06 150.82 168.13 149.83 167.57 149.18 L 166.84 148.34 C 166.27 147.69 165.29 147.63 164.64 148.19 C 163.99 148.76 163.92 149.74 164.48 150.39 Z M 165.21 151.23 L 165.86 151.97 C 166.42 152.62 167.41 152.69 168.06 152.12 C 168.71 151.55 168.78 150.57 168.21 149.92 L 167.57 149.18 C 167.00 148.53 166.01 148.46 165.36 149.03 C 164.71 149.60 164.65 150.58 165.21 151.23 Z M 165.85 151.97 L 166.53 152.74 C 167.09 153.39 168.08 153.46 168.73 152.90 C 169.38 152.33 169.45 151.35 168.88 150.69 L 168.21 149.92 C 167.65 149.27 166.66 149.20 166.01 149.76 C 165.36 150.33 165.29 151.32 165.85 151.97 Z M 166.52 152.73 L 167.20 153.52 C 167.76 154.18 168.74 154.25 169.40 153.69 C 170.05 153.13 170.13 152.14 169.57 151.49 L 168.89 150.70 C 168.33 150.05 167.34 149.97 166.69 150.53 C 166.04 151.09 165.96 152.08 166.52 152.73 Z M 167.19 153.51 L 167.84 154.28 C 168.39 154.94 169.37 155.03 170.03 154.48 C 170.70 153.92 170.78 152.94 170.23 152.28 L 169.58 151.50 C 169.02 150.84 168.04 150.76 167.38 151.31 C 166.72 151.86 166.63 152.85 167.19 153.51 Z M 167.82 154.26 L 168.43 155.02 C 168.97 155.69 169.95 155.79 170.62 155.25 C 171.29 154.71 171.40 153.72 170.86 153.05 L 170.25 152.30 C 169.70 151.63 168.72 151.52 168.05 152.07 C 167.38 152.61 167.28 153.59 167.82 154.26 Z M 168.40 154.98 L 169.03 155.82 C 169.55 156.50 170.53 156.64 171.22 156.12 C 171.91 155.60 172.04 154.62 171.52 153.93 L 170.89 153.09 C 170.37 152.41 169.39 152.27 168.70 152.79 C 168.01 153.31 167.88 154.29 168.40 154.98 Z M 168.98 155.75 L 169.52 156.55 C 170.01 157.27 170.98 157.46 171.69 156.97 C 172.41 156.49 172.59 155.52 172.11 154.81 L 171.57 154.00 C 171.09 153.29 170.12 153.10 169.40 153.58 C 168.69 154.06 168.50 155.03 168.98 155.75 Z M 169.47 156.46 L 169.95 157.29 C 170.38 158.04 171.34 158.29 172.08 157.86 C 172.83 157.42 173.08 156.47 172.65 155.72 L 172.17 154.89 C 171.73 154.15 170.78 153.90 170.03 154.33 C 169.29 154.76 169.04 155.72 169.47 156.46 Z M 169.90 157.20 L 170.34 158.09 C 170.73 158.86 171.66 159.18 172.44 158.80 C 173.21 158.41 173.52 157.48 173.14 156.70 L 172.70 155.81 C 172.31 155.04 171.38 154.72 170.60 155.11 C 169.83 155.49 169.52 156.43 169.90 157.20 Z M 170.31 158.02 L 170.68 158.87 C 171.02 159.66 171.94 160.03 172.73 159.69 C 173.52 159.34 173.89 158.42 173.54 157.63 L 173.17 156.78 C 172.83 155.99 171.91 155.62 171.12 155.96 C 170.33 156.31 169.97 157.23 170.31 158.02 Z M 170.65 158.81 L 171.01 159.74 C 171.31 160.54 172.22 160.95 173.02 160.64 C 173.83 160.33 174.23 159.43 173.92 158.62 L 173.57 157.70 C 173.26 156.89 172.36 156.49 171.56 156.79 C 170.75 157.10 170.35 158.00 170.65 158.81 Z M 170.98 159.67 L 171.30 160.64 C 171.58 161.46 172.46 161.91 173.28 161.64 C 174.10 161.37 174.54 160.48 174.27 159.66 L 173.95 158.69 C 173.68 157.87 172.79 157.43 171.97 157.70 C 171.16 157.97 170.71 158.85 170.98 159.67 Z M 171.28 160.57 L 171.56 161.57 C 171.79 162.40 172.65 162.89 173.48 162.66 C 174.31 162.43 174.80 161.57 174.57 160.74 L 174.29 159.74 C 174.06 158.91 173.20 158.42 172.37 158.65 C 171.54 158.88 171.05 159.74 171.28 160.57 Z M 171.54 161.49 L 171.76 162.52 C 171.95 163.36 172.78 163.89 173.62 163.71 C 174.47 163.52 175.00 162.69 174.81 161.85 L 174.59 160.82 C 174.41 159.98 173.57 159.44 172.73 159.63 C 171.89 159.81 171.36 160.65 171.54 161.49 Z M 171.75 162.43 L 171.91 163.48 C 172.05 164.33 172.85 164.91 173.70 164.78 C 174.55 164.64 175.13 163.84 175.00 162.99 L 174.83 161.94 C 174.70 161.09 173.90 160.50 173.05 160.64 C 172.19 160.77 171.61 161.57 171.75 162.43 Z M 171.90 163.40 L 172.02 164.43 C 172.11 165.28 172.88 165.90 173.74 165.81 C 174.59 165.72 175.21 164.95 175.12 164.09 L 175.01 163.07 C 174.92 162.21 174.15 161.59 173.29 161.68 C 172.43 161.78 171.81 162.55 171.90 163.40 Z M 172.01 164.37 L 172.08 165.34 C 172.14 166.20 172.88 166.85 173.74 166.79 C 174.60 166.73 175.25 165.98 175.19 165.12 L 175.12 164.15 C 175.06 163.29 174.32 162.64 173.46 162.70 C 172.60 162.76 171.95 163.51 172.01 164.37 Z M 172.08 165.30 L 172.12 166.21 C 172.15 167.07 172.88 167.74 173.74 167.70 C 174.60 167.66 175.27 166.94 175.23 166.07 L 175.20 165.16 C 175.16 164.30 174.43 163.64 173.57 163.67 C 172.71 163.71 172.04 164.44 172.08 165.30 Z M 172.11 166.18 L 172.14 167.16 C 172.16 168.02 172.87 168.70 173.73 168.69 C 174.59 168.67 175.28 167.95 175.26 167.09 L 175.24 166.11 C 175.22 165.25 174.50 164.56 173.64 164.58 C 172.78 164.60 172.10 165.31 172.11 166.18 Z M 172.14 167.07 L 172.10 168.02 C 172.07 168.88 172.75 169.60 173.61 169.63 C 174.47 169.67 175.19 168.99 175.22 168.13 L 175.26 167.18 C 175.29 166.32 174.61 165.59 173.75 165.56 C 172.89 165.53 172.17 166.21 172.14 167.07 Z M 172.12 167.87 L 171.98 168.84 C 171.87 169.69 172.47 170.48 173.32 170.59 C 174.18 170.71 174.96 170.11 175.08 169.26 L 175.21 168.28 C 175.33 167.43 174.73 166.64 173.87 166.53 C 173.02 166.41 172.23 167.01 172.12 167.87 Z M 172.02 168.67 L 171.77 169.67 C 171.56 170.51 172.06 171.36 172.90 171.57 C 173.74 171.78 174.58 171.27 174.79 170.43 L 175.05 169.43 C 175.26 168.59 174.75 167.74 173.91 167.53 C 173.08 167.32 172.23 167.83 172.02 168.67 Z M 171.80 169.54 L 171.51 170.39 C 171.23 171.20 171.67 172.09 172.48 172.37 C 173.30 172.65 174.19 172.22 174.47 171.40 L 174.76 170.56 C 175.04 169.74 174.60 168.85 173.79 168.58 C 172.97 168.30 172.08 168.73 171.80 169.54 Z M 171.55 170.30 L 171.18 171.19 C 170.85 171.99 171.23 172.90 172.02 173.23 C 172.82 173.56 173.73 173.19 174.06 172.39 L 174.43 171.49 C 174.76 170.70 174.38 169.78 173.59 169.45 C 172.79 169.12 171.88 169.50 171.55 170.30 Z M 171.21 171.11 L 170.77 172.04 C 170.39 172.82 170.72 173.75 171.50 174.12 C 172.27 174.50 173.21 174.17 173.58 173.39 L 174.03 172.47 C 174.40 171.69 174.07 170.76 173.30 170.39 C 172.52 170.01 171.59 170.34 171.21 171.11 Z M 170.81 171.96 L 170.29 172.89 C 169.88 173.65 170.15 174.60 170.90 175.01 C 171.66 175.43 172.61 175.16 173.02 174.40 L 173.54 173.47 C 173.96 172.72 173.68 171.77 172.93 171.35 C 172.17 170.93 171.22 171.21 170.81 171.96 Z M 170.34 172.81 L 169.76 173.73 C 169.30 174.46 169.52 175.42 170.25 175.88 C 170.98 176.34 171.94 176.12 172.40 175.39 L 172.98 174.48 C 173.44 173.75 173.22 172.79 172.49 172.33 C 171.76 171.87 170.80 172.08 170.34 172.81 Z M 169.81 173.65 L 169.19 174.51 C 168.69 175.21 168.85 176.19 169.55 176.69 C 170.25 177.20 171.22 177.04 171.73 176.34 L 172.35 175.47 C 172.85 174.77 172.69 173.80 171.99 173.29 C 171.29 172.79 170.32 172.95 169.81 173.65 Z M 169.24 174.45 L 168.58 175.27 C 168.04 175.94 168.15 176.92 168.82 177.46 C 169.49 178.00 170.48 177.90 171.02 177.22 L 171.67 176.41 C 172.21 175.73 172.11 174.75 171.44 174.21 C 170.76 173.67 169.78 173.78 169.24 174.45 Z M 168.63 175.21 L 167.95 175.98 C 167.38 176.62 167.44 177.61 168.09 178.18 C 168.74 178.75 169.72 178.69 170.29 178.04 L 170.97 177.28 C 171.54 176.63 171.48 175.65 170.83 175.08 C 170.19 174.51 169.20 174.57 168.63 175.21 Z M 168.00 175.93 L 167.32 176.64 C 166.73 177.26 166.75 178.25 167.37 178.84 C 168.00 179.44 168.98 179.42 169.58 178.79 L 170.25 178.09 C 170.85 177.47 170.83 176.48 170.20 175.88 C 169.58 175.29 168.59 175.31 168.00 175.93 Z M 167.36 176.60 L 166.71 177.23 C 166.09 177.83 166.08 178.82 166.68 179.44 C 167.29 180.06 168.27 180.07 168.89 179.47 L 169.54 178.83 C 170.16 178.23 170.17 177.24 169.57 176.62 C 168.97 176.01 167.98 175.99 167.36 176.60 Z M 166.75 177.19 L 166.00 177.88 C 165.36 178.45 165.31 179.44 165.89 180.08 C 166.47 180.72 167.45 180.77 168.09 180.19 L 168.85 179.51 C 169.49 178.93 169.54 177.94 168.96 177.30 C 168.38 176.66 167.39 176.61 166.75 177.19 Z M 166.06 177.83 L 165.30 178.45 C 164.63 178.99 164.53 179.97 165.08 180.64 C 165.62 181.31 166.61 181.41 167.28 180.86 L 168.03 180.24 C 168.70 179.70 168.80 178.71 168.25 178.05 C 167.71 177.38 166.72 177.28 166.06 177.83 Z M 165.37 178.39 L 164.59 178.95 C 163.90 179.46 163.74 180.44 164.25 181.14 C 164.76 181.83 165.73 181.99 166.43 181.48 L 167.20 180.92 C 167.90 180.41 168.06 179.43 167.55 178.74 C 167.04 178.04 166.07 177.88 165.37 178.39 Z M 164.66 178.91 L 163.82 179.46 C 163.10 179.93 162.89 180.89 163.36 181.62 C 163.83 182.34 164.80 182.54 165.52 182.07 L 166.36 181.53 C 167.09 181.06 167.29 180.09 166.82 179.37 C 166.35 178.64 165.38 178.44 164.66 178.91 Z M 163.87 179.42 L 163.06 179.91 C 162.32 180.35 162.07 181.31 162.52 182.05 C 162.96 182.79 163.92 183.03 164.66 182.59 L 165.47 182.11 C 166.21 181.66 166.45 180.70 166.01 179.96 C 165.57 179.22 164.61 178.98 163.87 179.42 Z M 163.11 179.88 L 162.25 180.35 C 161.50 180.76 161.22 181.71 161.63 182.47 C 162.05 183.22 163.00 183.50 163.75 183.09 L 164.61 182.62 C 165.36 182.20 165.64 181.25 165.23 180.50 C 164.81 179.74 163.86 179.47 163.11 179.88 Z M 162.31 180.32 L 161.40 180.77 C 160.63 181.15 160.31 182.08 160.69 182.86 C 161.07 183.63 162.01 183.95 162.78 183.57 L 163.69 183.12 C 164.46 182.74 164.78 181.80 164.40 181.03 C 164.02 180.26 163.09 179.94 162.31 180.32 Z M 161.48 180.73 L 160.53 181.13 C 159.73 181.47 159.36 182.39 159.70 183.18 C 160.04 183.97 160.95 184.34 161.75 184.01 L 162.70 183.60 C 163.49 183.27 163.86 182.35 163.53 181.56 C 163.19 180.76 162.27 180.39 161.48 180.73 Z M 160.63 181.09 L 159.65 181.43 C 158.83 181.71 158.40 182.60 158.68 183.42 C 158.96 184.23 159.85 184.66 160.67 184.38 L 161.64 184.05 C 162.46 183.77 162.89 182.88 162.61 182.06 C 162.33 181.25 161.44 180.81 160.63 181.09 Z M 159.78 181.39 L 158.79 181.64 C 157.96 181.85 157.45 182.70 157.66 183.54 C 157.87 184.38 158.72 184.88 159.56 184.67 L 160.54 184.42 C 161.38 184.21 161.88 183.36 161.67 182.52 C 161.46 181.69 160.61 181.18 159.78 181.39 Z M 158.91 181.62 L 157.93 181.79 C 157.08 181.93 156.50 182.74 156.65 183.59 C 156.80 184.44 157.60 185.01 158.45 184.86 L 159.44 184.70 C 160.29 184.55 160.86 183.74 160.71 182.89 C 160.57 182.04 159.76 181.47 158.91 181.62 Z M 158.03 181.77 L 157.03 181.88 C 156.18 181.97 155.55 182.73 155.64 183.59 C 155.73 184.45 156.50 185.07 157.36 184.98 L 158.35 184.88 C 159.21 184.79 159.83 184.02 159.74 183.16 C 159.65 182.31 158.88 181.68 158.03 181.77 Z M 157.12 181.87 L 156.12 181.92 C 155.26 181.97 154.60 182.70 154.64 183.56 C 154.69 184.42 155.42 185.09 156.29 185.04 L 157.28 184.99 C 158.14 184.94 158.80 184.21 158.76 183.35 C 158.71 182.49 157.98 181.82 157.12 181.87 Z M 156.18 181.92 L 155.19 181.93 C 154.32 181.95 153.64 182.66 153.65 183.52 C 153.66 184.38 154.37 185.07 155.23 185.06 L 156.23 185.04 C 157.09 185.03 157.78 184.32 157.76 183.46 C 157.75 182.60 157.04 181.91 156.18 181.92 Z M 155.23 181.93 L 154.25 181.92 C 153.39 181.91 152.68 182.60 152.67 183.46 C 152.65 184.32 153.34 185.03 154.21 185.04 L 155.19 185.06 C 156.05 185.07 156.76 184.38 156.77 183.52 C 156.78 182.65 156.09 181.95 155.23 181.93 Z M 154.31 181.92 L 153.33 181.87 C 152.47 181.82 151.73 182.48 151.69 183.34 C 151.64 184.20 152.30 184.94 153.16 184.99 L 154.14 185.04 C 155.00 185.09 155.74 184.43 155.79 183.57 C 155.83 182.71 155.17 181.97 154.31 181.92 Z M 153.42 181.88 L 152.44 181.76 C 151.58 181.66 150.81 182.28 150.71 183.13 C 150.61 183.99 151.22 184.77 152.08 184.86 L 153.06 184.98 C 153.92 185.08 154.70 184.46 154.80 183.61 C 154.89 182.75 154.28 181.98 153.42 181.88 Z M 152.56 181.78 L 151.57 181.59 C 150.73 181.42 149.91 181.98 149.74 182.82 C 149.58 183.67 150.13 184.49 150.97 184.65 L 151.96 184.85 C 152.81 185.01 153.63 184.46 153.79 183.61 C 153.96 182.77 153.41 181.95 152.56 181.78 Z M 151.71 181.62 L 150.72 181.33 C 149.89 181.09 149.03 181.56 148.78 182.39 C 148.54 183.22 149.02 184.09 149.84 184.33 L 150.84 184.62 C 151.66 184.86 152.53 184.39 152.77 183.56 C 153.01 182.73 152.54 181.87 151.71 181.62 Z M 150.86 181.38 L 149.93 181.01 C 149.12 180.69 148.22 181.08 147.90 181.88 C 147.58 182.68 147.97 183.59 148.77 183.91 L 149.71 184.28 C 150.51 184.60 151.41 184.21 151.73 183.41 C 152.05 182.61 151.66 181.70 150.86 181.38 Z M 150.03 181.05 L 149.11 180.60 C 148.33 180.23 147.40 180.55 147.02 181.32 C 146.64 182.10 146.96 183.03 147.74 183.41 L 148.66 183.86 C 149.44 184.24 150.37 183.92 150.75 183.14 C 151.13 182.37 150.81 181.43 150.03 181.05 Z M 149.19 180.65 L 148.29 180.14 C 147.54 179.72 146.58 179.99 146.16 180.74 C 145.74 181.50 146.01 182.45 146.76 182.87 L 147.66 183.37 C 148.41 183.79 149.36 183.52 149.79 182.77 C 150.21 182.02 149.94 181.07 149.19 180.65 Z M 148.35 180.18 L 147.49 179.65 C 146.76 179.20 145.79 179.42 145.34 180.16 C 144.89 180.89 145.12 181.85 145.85 182.31 L 146.71 182.83 C 147.44 183.29 148.40 183.06 148.85 182.33 C 149.31 181.59 149.08 180.63 148.35 180.18 Z M 147.53 179.68 L 146.74 179.15 C 146.02 178.67 145.05 178.87 144.57 179.59 C 144.10 180.30 144.29 181.27 145.01 181.75 L 145.81 182.28 C 146.53 182.76 147.49 182.56 147.97 181.84 C 148.45 181.12 148.25 180.15 147.53 179.68 Z M 146.77 179.17 L 145.89 178.55 C 145.18 178.06 144.21 178.23 143.71 178.94 C 143.22 179.64 143.39 180.62 144.09 181.11 L 144.98 181.73 C 145.68 182.22 146.66 182.05 147.15 181.34 C 147.65 180.64 147.47 179.66 146.77 179.17 Z M 145.92 178.58 L 145.07 177.95 C 144.38 177.44 143.40 177.58 142.89 178.28 C 142.38 178.97 142.52 179.95 143.22 180.46 L 144.06 181.09 C 144.76 181.60 145.73 181.45 146.25 180.76 C 146.76 180.07 146.61 179.09 145.92 178.58 Z M 145.10 177.97 L 144.34 177.38 C 143.66 176.85 142.68 176.98 142.15 177.66 C 141.62 178.34 141.75 179.32 142.43 179.85 L 143.19 180.44 C 143.87 180.97 144.85 180.85 145.38 180.16 C 145.91 179.48 145.78 178.50 145.10 177.97 Z M 144.37 177.40 L 143.66 176.83 C 142.99 176.29 142.01 176.39 141.47 177.06 C 140.92 177.73 141.03 178.71 141.69 179.25 L 142.40 179.83 C 143.07 180.37 144.05 180.27 144.60 179.60 C 145.14 178.93 145.04 177.95 144.37 177.40 Z M 143.68 176.84 L 142.92 176.21 C 142.26 175.66 141.27 175.75 140.72 176.41 C 140.17 177.07 140.26 178.06 140.92 178.61 L 141.68 179.24 C 142.34 179.79 143.33 179.70 143.88 179.04 C 144.43 178.38 144.34 177.39 143.68 176.84 Z M 142.93 176.22 L 142.16 175.56 C 141.50 175.01 140.51 175.09 139.96 175.75 C 139.40 176.40 139.48 177.39 140.14 177.95 L 140.91 178.60 C 141.57 179.16 142.55 179.08 143.11 178.42 C 143.67 177.76 143.59 176.77 142.93 176.22 Z M 142.16 175.57 L 141.40 174.92 C 140.75 174.36 139.76 174.44 139.20 175.10 C 138.64 175.76 138.72 176.74 139.38 177.30 L 140.14 177.94 C 140.79 178.50 141.78 178.42 142.34 177.77 C 142.90 177.11 142.82 176.13 142.16 175.57 Z M 141.40 174.92 L 140.66 174.29 C 140.00 173.73 139.01 173.81 138.46 174.47 C 137.90 175.13 137.98 176.12 138.64 176.67 L 139.38 177.30 C 140.04 177.86 141.03 177.78 141.58 177.12 C 142.14 176.46 142.06 175.48 141.40 174.92 Z M 140.65 174.29 L 139.90 173.66 C 139.25 173.10 138.26 173.18 137.70 173.84 C 137.15 174.50 137.23 175.49 137.89 176.04 L 138.64 176.67 C 139.30 177.23 140.28 177.15 140.84 176.49 C 141.40 175.83 141.31 174.84 140.65 174.29 Z M 139.92 173.66 L 139.16 173.02 C 138.51 172.46 137.52 172.53 136.96 173.19 C 136.40 173.84 136.48 174.83 137.13 175.39 L 137.88 176.03 C 138.53 176.59 139.52 176.52 140.08 175.87 C 140.64 175.21 140.57 174.23 139.92 173.66 Z M 139.19 173.04 L 138.42 172.35 C 137.78 171.78 136.79 171.83 136.22 172.47 C 135.64 173.12 135.70 174.10 136.34 174.68 L 137.11 175.37 C 137.75 175.94 138.73 175.89 139.31 175.24 C 139.89 174.60 139.83 173.62 139.19 173.04 Z M 138.45 172.38 L 137.74 171.71 C 137.11 171.12 136.12 171.15 135.53 171.78 C 134.94 172.41 134.97 173.39 135.60 173.98 L 136.31 174.65 C 136.94 175.24 137.93 175.21 138.52 174.59 C 139.11 173.96 139.08 172.97 138.45 172.38 Z M 137.75 171.73 L 137.03 171.02 C 136.41 170.42 135.42 170.44 134.82 171.06 C 134.22 171.67 134.24 172.66 134.86 173.26 L 135.58 173.97 C 136.20 174.57 137.19 174.55 137.79 173.93 C 138.39 173.32 138.37 172.33 137.75 171.73 Z M 137.04 171.03 L 136.32 170.32 C 135.71 169.71 134.72 169.72 134.11 170.33 C 133.51 170.94 133.51 171.93 134.12 172.54 L 134.85 173.25 C 135.46 173.86 136.45 173.85 137.05 173.24 C 137.66 172.63 137.65 171.64 137.04 171.03 Z M 136.32 170.32 L 135.63 169.63 C 135.01 169.02 134.03 169.03 133.42 169.64 C 132.81 170.25 132.81 171.24 133.42 171.84 L 134.12 172.54 C 134.73 173.14 135.72 173.14 136.33 172.53 C 136.94 171.92 136.93 170.93 136.32 170.32 Z M 135.62 169.63 L 134.96 168.97 C 134.35 168.36 133.36 168.37 132.75 168.98 C 132.15 169.59 132.15 170.58 132.76 171.19 L 133.43 171.85 C 134.04 172.45 135.03 172.45 135.63 171.84 C 136.24 171.22 136.24 170.24 135.62 169.63 Z M 134.96 168.97 L 134.28 168.29 C 133.67 167.68 132.68 167.69 132.07 168.30 C 131.46 168.91 131.47 169.90 132.08 170.51 L 132.76 171.19 C 133.37 171.79 134.36 171.79 134.97 171.18 C 135.58 170.57 135.57 169.58 134.96 168.97 Z M 134.29 168.30 L 133.55 167.56 C 132.94 166.95 131.95 166.95 131.34 167.55 C 130.73 168.16 130.73 169.15 131.34 169.76 L 132.07 170.50 C 132.68 171.11 133.67 171.11 134.28 170.51 C 134.89 169.90 134.89 168.91 134.29 168.30 Z M 133.56 167.57 L 132.84 166.84 C 132.24 166.22 131.25 166.22 130.63 166.82 C 130.02 167.42 130.01 168.41 130.62 169.03 L 131.33 169.76 C 131.94 170.37 132.92 170.38 133.54 169.77 C 134.15 169.17 134.16 168.18 133.56 167.57 Z M 132.85 166.84 L 132.20 166.18 C 131.60 165.56 130.61 165.55 129.99 166.15 C 129.38 166.76 129.36 167.74 129.97 168.36 L 130.61 169.02 C 131.21 169.64 132.20 169.65 132.82 169.05 C 133.44 168.45 133.45 167.46 132.85 166.84 Z M 132.20 166.18 L 131.52 165.48 C 130.92 164.86 129.93 164.85 129.31 165.45 C 128.69 166.05 128.68 167.03 129.28 167.65 L 129.96 168.36 C 130.56 168.98 131.55 168.99 132.17 168.39 C 132.79 167.79 132.80 166.80 132.20 166.18 Z M 131.52 165.48 L 130.81 164.74 C 130.21 164.12 129.22 164.11 128.60 164.70 C 127.98 165.30 127.96 166.29 128.56 166.91 L 129.28 167.65 C 129.88 168.27 130.86 168.29 131.48 167.69 C 132.10 167.09 132.12 166.10 131.52 165.48 Z M 130.81 164.74 L 130.07 163.98 C 129.48 163.36 128.49 163.34 127.87 163.94 C 127.25 164.54 127.23 165.53 127.83 166.15 L 128.56 166.91 C 129.16 167.53 130.15 167.55 130.77 166.95 C 131.39 166.35 131.41 165.36 130.81 164.74 Z M 130.07 163.98 L 129.41 163.29 C 128.81 162.67 127.82 162.65 127.20 163.25 C 126.58 163.85 126.56 164.84 127.16 165.46 L 127.83 166.15 C 128.42 166.77 129.41 166.79 130.03 166.19 C 130.65 165.59 130.67 164.60 130.07 163.98 Z"
      fill="black"
      fill-rule="nonzero" /></svg>