<svg xmlns="http://www.w3.org/2000/svg" width="300" height="300" viewBox="0 0 300 300">
<path d="M 137.87 171.61 L 137.17 170.91 C 136.56 170.30 135.57 170.31 134.96 170.92 C 134.35 171.53 134.35 172.52 134.97 173.13 L 135.67 173.83 C 136.28 174.44 137.27 174.43 137.88 173.82 C 138.49 173.21 138.49 172.22 137.87 171.61 Z M 137.17 170.91 L 136.46 170.21 C 135.84 169.60 134.86 169.60 134.25 170.22 C 133.64 170.83 133.65 171.82 134.26 172.42 L 134.97 173.13 C 135.58 173.73 136.57 173.73 137.17 173.12 C 137.78 172.51 137.78 171.52 137.17 170.91 Z M 136.45 170.20 L 135.74 169.50 C 135.13 168.90 134.14 168.90 133.53 169.52 C 132.93 170.13 132.93 171.12 133.55 171.72 L 134.26 172.43 C 134.88 173.03 135.86 173.03 136.47 172.41 C 137.07 171.80 137.07 170.81 136.45 170.20 Z M 135.74 169.50 L 135.02 168.79 C 134.40 168.19 133.41 168.20 132.81 168.82 C 132.20 169.43 132.22 170.42 132.83 171.02 L 133.55 171.73 C 134.17 172.33 135.16 172.32 135.76 171.70 C 136.36 171.09 136.35 170.10 135.74 169.50 Z M 135.01 168.79 L 134.28 168.08 C 133.66 167.48 132.67 167.49 132.07 168.11 C 131.47 168.73 131.49 169.72 132.11 170.32 L 132.84 171.03 C 133.46 171.63 134.44 171.61 135.04 170.99 C 135.64 170.38 135.63 169.39 135.01 168.79 Z M 134.28 168.08 L 133.56 167.38 C 132.94 166.78 131.95 166.79 131.35 167.41 C 130.75 168.03 130.76 169.02 131.38 169.62 L 132.11 170.32 C 132.72 170.92 133.71 170.91 134.31 170.29 C 134.91 169.67 134.90 168.68 134.28 168.08 Z M 133.56 167.38 L 132.86 166.69 C 132.24 166.09 131.26 166.10 130.65 166.71 C 130.05 167.33 130.06 168.31 130.67 168.92 L 131.38 169.61 C 131.99 170.21 132.98 170.21 133.58 169.59 C 134.19 168.97 134.18 167.99 133.56 167.38 Z M 132.87 166.70 L 132.17 166.00 C 131.57 165.39 130.58 165.39 129.97 166.00 C 129.36 166.61 129.35 167.60 129.96 168.21 L 130.66 168.91 C 131.27 169.52 132.26 169.52 132.87 168.91 C 133.48 168.30 133.48 167.31 132.87 166.70 Z M 132.20 166.03 L 131.52 165.31 C 130.92 164.69 129.94 164.66 129.31 165.26 C 128.69 165.85 128.66 166.84 129.26 167.47 L 129.94 168.18 C 130.53 168.81 131.52 168.83 132.15 168.24 C 132.77 167.64 132.79 166.65 132.20 166.03 Z M 131.56 165.36 L 130.91 164.62 C 130.34 163.97 129.35 163.91 128.70 164.48 C 128.05 165.05 127.99 166.03 128.56 166.68 L 129.22 167.42 C 129.79 168.07 130.77 168.13 131.42 167.56 C 132.07 166.99 132.13 166.00 131.56 165.36 Z M 130.96 164.68 L 130.32 163.88 C 129.79 163.20 128.81 163.09 128.13 163.63 C 127.46 164.16 127.34 165.15 127.88 165.82 L 128.51 166.62 C 129.05 167.29 130.03 167.41 130.70 166.87 C 131.38 166.33 131.49 165.35 130.96 164.68 Z M 130.38 163.95 L 129.81 163.14 C 129.31 162.44 128.34 162.27 127.63 162.76 C 126.93 163.26 126.76 164.23 127.25 164.94 L 127.83 165.75 C 128.32 166.45 129.30 166.62 130.00 166.13 C 130.71 165.63 130.87 164.66 130.38 163.95 Z M 129.86 163.23 L 129.33 162.36 C 128.88 161.63 127.92 161.39 127.19 161.84 C 126.45 162.29 126.22 163.25 126.67 163.99 L 127.20 164.85 C 127.65 165.59 128.61 165.82 129.34 165.37 C 130.08 164.92 130.31 163.96 129.86 163.23 Z M 129.40 162.47 L 128.94 161.57 C 128.56 160.80 127.62 160.49 126.85 160.88 C 126.08 161.27 125.77 162.21 126.15 162.98 L 126.61 163.88 C 127.00 164.65 127.93 164.96 128.70 164.57 C 129.47 164.18 129.78 163.24 129.40 162.47 Z M 129.01 161.73 L 128.66 160.79 C 128.35 159.98 127.45 159.57 126.65 159.88 C 125.84 160.18 125.43 161.08 125.74 161.89 L 126.09 162.83 C 126.39 163.63 127.29 164.04 128.10 163.74 C 128.91 163.43 129.31 162.53 129.01 161.73 Z M 128.72 160.99 L 128.49 159.99 C 128.29 159.15 127.45 158.62 126.61 158.82 C 125.77 159.01 125.25 159.85 125.44 160.69 L 125.68 161.69 C 125.87 162.53 126.71 163.05 127.55 162.86 C 128.39 162.67 128.91 161.83 128.72 160.99 Z M 128.52 160.19 L 128.42 159.20 C 128.34 158.34 127.58 157.71 126.72 157.79 C 125.86 157.88 125.23 158.64 125.32 159.50 L 125.41 160.49 C 125.49 161.34 126.26 161.97 127.11 161.89 C 127.97 161.81 128.60 161.05 128.52 160.19 Z M 128.43 159.39 L 128.46 158.42 C 128.48 157.56 127.80 156.84 126.94 156.82 C 126.08 156.80 125.36 157.48 125.34 158.34 L 125.31 159.31 C 125.29 160.17 125.97 160.89 126.83 160.91 C 127.69 160.93 128.41 160.25 128.43 159.39 Z M 128.44 158.60 L 128.57 157.66 C 128.69 156.81 128.10 156.02 127.24 155.90 C 126.39 155.78 125.60 156.37 125.48 157.23 L 125.35 158.16 C 125.23 159.02 125.83 159.81 126.68 159.93 C 127.53 160.05 128.32 159.45 128.44 158.60 Z M 128.54 157.85 L 128.78 156.92 C 129.00 156.08 128.51 155.23 127.67 155.01 C 126.84 154.79 125.99 155.28 125.76 156.12 L 125.52 157.04 C 125.30 157.88 125.79 158.73 126.63 158.95 C 127.46 159.17 128.31 158.68 128.54 157.85 Z M 128.72 157.10 L 129.10 156.15 C 129.43 155.35 129.04 154.44 128.24 154.12 C 127.44 153.80 126.53 154.18 126.21 154.98 L 125.83 155.93 C 125.50 156.73 125.89 157.64 126.69 157.96 C 127.49 158.29 128.40 157.90 128.72 157.10 Z M 129.03 156.31 L 129.53 155.39 C 129.93 154.63 129.65 153.68 128.89 153.27 C 128.13 152.86 127.18 153.15 126.77 153.91 L 126.28 154.83 C 125.87 155.59 126.16 156.54 126.92 156.94 C 127.68 157.35 128.62 157.07 129.03 156.31 Z M 129.47 155.49 L 130.00 154.64 C 130.47 153.92 130.25 152.95 129.53 152.49 C 128.80 152.03 127.83 152.24 127.37 152.97 L 126.83 153.81 C 126.37 154.54 126.58 155.50 127.31 155.96 C 128.04 156.43 129.00 156.21 129.47 155.49 Z M 129.96 154.71 L 130.56 153.86 C 131.06 153.16 130.89 152.19 130.18 151.69 C 129.48 151.19 128.51 151.36 128.01 152.06 L 127.41 152.90 C 126.91 153.61 127.08 154.58 127.79 155.08 C 128.49 155.58 129.46 155.41 129.96 154.71 Z M 130.53 153.91 L 131.14 153.10 C 131.66 152.41 131.53 151.43 130.84 150.91 C 130.15 150.39 129.17 150.52 128.65 151.21 L 128.04 152.02 C 127.52 152.71 127.65 153.69 128.34 154.21 C 129.03 154.73 130.01 154.59 130.53 153.91 Z M 131.12 153.13 L 131.74 152.35 C 132.28 151.67 132.17 150.69 131.49 150.15 C 130.82 149.62 129.84 149.73 129.30 150.40 L 128.68 151.18 C 128.14 151.85 128.25 152.83 128.92 153.37 C 129.60 153.91 130.58 153.80 131.12 153.13 Z M 131.72 152.37 L 132.40 151.55 C 132.95 150.89 132.87 149.91 132.20 149.35 C 131.54 148.80 130.56 148.89 130.00 149.55 L 129.32 150.37 C 128.77 151.04 128.86 152.02 129.52 152.57 C 130.18 153.13 131.17 153.04 131.72 152.37 Z M 132.38 151.57 L 133.02 150.84 C 133.59 150.19 133.52 149.20 132.86 148.64 C 132.21 148.07 131.23 148.14 130.66 148.79 L 130.02 149.53 C 129.46 150.18 129.53 151.17 130.18 151.73 C 130.83 152.30 131.82 152.23 132.38 151.57 Z M 133.01 150.85 L 133.63 150.15 C 134.21 149.50 134.15 148.51 133.50 147.94 C 132.85 147.37 131.87 147.43 131.30 148.08 L 130.67 148.78 C 130.10 149.43 130.16 150.41 130.81 150.98 C 131.45 151.56 132.44 151.50 133.01 150.85 Z M 133.63 150.15 L 134.27 149.43 C 134.84 148.79 134.78 147.80 134.14 147.23 C 133.49 146.66 132.50 146.72 131.93 147.36 L 131.30 148.07 C 130.72 148.72 130.78 149.71 131.43 150.28 C 132.07 150.85 133.06 150.79 133.63 150.15 Z M 134.26 149.44 L 134.92 148.70 C 135.50 148.06 135.44 147.07 134.80 146.50 C 134.16 145.92 133.17 145.98 132.59 146.62 L 131.94 147.36 C 131.36 148.00 131.42 148.99 132.06 149.56 C 132.70 150.14 133.69 150.08 134.26 149.44 Z M 134.91 148.71 L 135.60 147.96 C 136.18 147.32 136.14 146.34 135.50 145.76 C 134.86 145.17 133.87 145.22 133.29 145.85 L 132.61 146.61 C 132.02 147.24 132.07 148.23 132.70 148.81 C 133.34 149.40 134.33 149.35 134.91 148.71 Z M 135.58 147.98 L 136.27 147.24 C 136.87 146.62 136.84 145.63 136.21 145.04 C 135.58 144.45 134.59 144.48 134.00 145.10 L 133.31 145.84 C 132.72 146.46 132.75 147.45 133.38 148.04 C 134.00 148.64 134.99 148.61 135.58 147.98 Z M 136.26 147.26 L 136.94 146.56 C 137.54 145.94 137.53 144.96 136.91 144.35 C 136.30 143.75 135.31 143.76 134.71 144.38 L 134.02 145.08 C 133.42 145.70 133.43 146.69 134.05 147.29 C 134.67 147.89 135.65 147.88 136.26 147.26 Z M 136.92 146.58 L 137.64 145.87 C 138.25 145.26 138.25 144.27 137.64 143.66 C 137.03 143.05 136.04 143.05 135.43 143.66 L 134.72 144.36 C 134.11 144.97 134.11 145.96 134.72 146.57 C 135.32 147.18 136.31 147.19 136.92 146.58 Z M 137.62 145.88 L 138.36 145.17 C 138.97 144.57 138.99 143.58 138.39 142.97 C 137.79 142.35 136.80 142.33 136.18 142.93 L 135.45 143.64 C 134.83 144.24 134.81 145.23 135.41 145.85 C 136.01 146.47 137.00 146.48 137.62 145.88 Z M 138.34 145.19 L 139.07 144.49 C 139.70 143.90 139.73 142.91 139.14 142.29 C 138.55 141.66 137.56 141.63 136.93 142.22 L 136.20 142.92 C 135.57 143.51 135.54 144.50 136.13 145.12 C 136.73 145.75 137.71 145.78 138.34 145.19 Z M 139.06 144.51 L 139.80 143.83 C 140.43 143.24 140.47 142.26 139.89 141.62 C 139.31 140.99 138.32 140.95 137.69 141.53 L 136.95 142.21 C 136.31 142.79 136.27 143.78 136.85 144.42 C 137.44 145.05 138.42 145.09 139.06 144.51 Z M 139.78 143.84 L 140.53 143.18 C 141.17 142.60 141.23 141.62 140.66 140.97 C 140.08 140.33 139.10 140.27 138.45 140.85 L 137.70 141.51 C 137.06 142.09 137.00 143.07 137.58 143.72 C 138.15 144.36 139.14 144.42 139.78 143.84 Z M 140.51 143.20 L 141.26 142.55 C 141.92 141.98 141.99 141.00 141.43 140.35 C 140.87 139.69 139.88 139.62 139.23 140.18 L 138.47 140.83 C 137.82 141.39 137.75 142.38 138.31 143.03 C 138.87 143.68 139.86 143.76 140.51 143.20 Z M 141.24 142.57 L 142.03 141.92 C 142.69 141.37 142.79 140.39 142.24 139.72 C 141.69 139.05 140.71 138.96 140.04 139.51 L 139.25 140.16 C 138.59 140.71 138.49 141.69 139.04 142.36 C 139.59 143.02 140.57 143.12 141.24 142.57 Z M 142.00 141.94 L 142.79 141.32 C 143.47 140.79 143.59 139.81 143.06 139.13 C 142.53 138.45 141.55 138.33 140.87 138.86 L 140.07 139.48 C 139.39 140.02 139.27 141.00 139.81 141.68 C 140.34 142.35 141.32 142.47 142.00 141.94 Z M 142.76 141.34 L 143.55 140.76 C 144.25 140.24 144.39 139.27 143.88 138.57 C 143.37 137.88 142.39 137.73 141.70 138.25 L 140.90 138.84 C 140.21 139.35 140.06 140.33 140.57 141.02 C 141.09 141.71 142.07 141.86 142.76 141.34 Z M 143.52 140.78 L 144.31 140.23 C 145.02 139.74 145.19 138.77 144.70 138.06 C 144.21 137.35 143.23 137.18 142.53 137.67 L 141.73 138.22 C 141.03 138.71 140.85 139.68 141.34 140.39 C 141.83 141.10 142.81 141.28 143.52 140.78 Z M 144.26 140.26 L 145.05 139.75 C 145.78 139.29 145.99 138.32 145.52 137.60 C 145.06 136.87 144.09 136.66 143.37 137.13 L 142.57 137.64 C 141.85 138.10 141.64 139.07 142.10 139.79 C 142.57 140.52 143.54 140.73 144.26 140.26 Z M 144.99 139.79 L 145.83 139.31 C 146.58 138.87 146.83 137.92 146.40 137.17 C 145.97 136.43 145.02 136.17 144.27 136.60 L 143.43 137.09 C 142.68 137.52 142.43 138.47 142.86 139.22 C 143.29 139.97 144.25 140.22 144.99 139.79 Z M 145.76 139.35 L 146.68 138.88 C 147.45 138.48 147.76 137.54 147.37 136.78 C 146.97 136.01 146.03 135.70 145.27 136.09 L 144.34 136.56 C 143.57 136.95 143.27 137.89 143.66 138.66 C 144.05 139.43 144.99 139.74 145.76 139.35 Z M 146.61 138.91 L 147.54 138.50 C 148.32 138.14 148.67 137.22 148.32 136.43 C 147.97 135.65 147.05 135.29 146.26 135.65 L 145.34 136.06 C 144.55 136.41 144.20 137.34 144.55 138.12 C 144.90 138.91 145.83 139.26 146.61 138.91 Z M 147.47 138.52 L 148.35 138.17 C 149.16 137.85 149.55 136.94 149.23 136.14 C 148.91 135.34 148.00 134.95 147.20 135.27 L 146.32 135.62 C 145.52 135.94 145.13 136.85 145.45 137.65 C 145.77 138.45 146.67 138.84 147.47 138.52 Z M 148.29 138.19 L 149.23 137.86 C 150.05 137.58 150.48 136.69 150.19 135.88 C 149.91 135.06 149.02 134.63 148.20 134.92 L 147.26 135.25 C 146.45 135.53 146.02 136.42 146.30 137.24 C 146.59 138.05 147.48 138.48 148.29 138.19 Z M 149.16 137.89 L 150.15 137.59 C 150.98 137.35 151.45 136.48 151.20 135.65 C 150.96 134.83 150.09 134.35 149.26 134.60 L 148.27 134.89 C 147.45 135.14 146.98 136.01 147.22 136.84 C 147.47 137.66 148.34 138.13 149.16 137.89 Z M 150.07 137.62 L 151.09 137.37 C 151.93 137.17 152.45 136.33 152.25 135.49 C 152.05 134.65 151.20 134.13 150.37 134.33 L 149.34 134.58 C 148.51 134.78 147.99 135.62 148.19 136.46 C 148.39 137.30 149.23 137.82 150.07 137.62 Z M 151.00 137.39 L 152.00 137.21 C 152.85 137.06 153.42 136.25 153.27 135.40 C 153.12 134.55 152.31 133.99 151.46 134.14 L 150.46 134.31 C 149.61 134.46 149.04 135.27 149.19 136.12 C 149.34 136.97 150.15 137.54 151.00 137.39 Z M 151.90 137.23 L 152.89 137.12 C 153.75 137.03 154.37 136.26 154.28 135.40 C 154.19 134.54 153.42 133.92 152.56 134.02 L 151.57 134.12 C 150.71 134.22 150.09 134.99 150.18 135.84 C 150.27 136.70 151.04 137.32 151.90 137.23 Z M 152.78 137.13 L 153.78 137.09 C 154.64 137.06 155.31 136.34 155.28 135.48 C 155.25 134.62 154.53 133.94 153.67 133.97 L 152.67 134.01 C 151.81 134.04 151.14 134.76 151.17 135.62 C 151.20 136.48 151.92 137.16 152.78 137.13 Z M 153.65 137.09 L 154.65 137.14 C 155.51 137.18 156.24 136.51 156.28 135.65 C 156.32 134.79 155.65 134.06 154.79 134.02 L 153.79 133.97 C 152.93 133.94 152.20 134.60 152.16 135.46 C 152.12 136.32 152.79 137.05 153.65 137.09 Z M 154.52 137.13 L 155.51 137.26 C 156.36 137.37 157.15 136.77 157.26 135.91 C 157.37 135.06 156.77 134.27 155.92 134.16 L 154.92 134.03 C 154.07 133.92 153.28 134.52 153.17 135.37 C 153.06 136.23 153.66 137.01 154.52 137.13 Z M 155.37 137.23 L 156.33 137.45 C 157.18 137.64 158.01 137.11 158.20 136.27 C 158.39 135.43 157.86 134.59 157.02 134.40 L 156.06 134.19 C 155.22 134.00 154.38 134.52 154.19 135.36 C 154.00 136.21 154.53 137.04 155.37 137.23 Z M 156.20 137.41 L 157.14 137.71 C 157.96 137.97 158.84 137.52 159.10 136.70 C 159.36 135.88 158.91 135.00 158.09 134.74 L 157.15 134.44 C 156.33 134.18 155.45 134.63 155.19 135.45 C 154.93 136.27 155.38 137.15 156.20 137.41 Z M 157.02 137.67 L 157.94 138.05 C 158.73 138.37 159.65 137.99 159.97 137.20 C 160.30 136.40 159.92 135.49 159.13 135.16 L 158.21 134.78 C 157.41 134.45 156.50 134.83 156.17 135.63 C 155.84 136.43 156.22 137.34 157.02 137.67 Z M 157.83 138.00 L 158.73 138.45 C 159.50 138.84 160.44 138.53 160.82 137.75 C 161.21 136.98 160.90 136.05 160.13 135.66 L 159.23 135.21 C 158.46 134.82 157.52 135.13 157.14 135.90 C 156.75 136.67 157.06 137.61 157.83 138.00 Z M 158.63 138.40 L 159.51 138.91 C 160.25 139.35 161.21 139.11 161.64 138.37 C 162.08 137.63 161.84 136.67 161.10 136.23 L 160.23 135.71 C 159.48 135.27 158.53 135.52 158.09 136.26 C 157.65 137.00 157.89 137.96 158.63 138.40 Z M 159.42 138.86 L 160.26 139.43 C 160.97 139.92 161.94 139.74 162.43 139.03 C 162.91 138.32 162.73 137.34 162.02 136.86 L 161.18 136.28 C 160.47 135.80 159.50 135.98 159.01 136.69 C 158.53 137.40 158.71 138.37 159.42 138.86 Z M 160.18 139.38 L 160.95 139.98 C 161.63 140.51 162.61 140.38 163.14 139.70 C 163.67 139.02 163.55 138.04 162.87 137.51 L 162.10 136.91 C 161.42 136.38 160.43 136.51 159.91 137.19 C 159.38 137.87 159.50 138.85 160.18 139.38 Z M 160.88 139.92 L 161.63 140.57 C 162.28 141.13 163.26 141.07 163.83 140.42 C 164.39 139.77 164.33 138.78 163.68 138.21 L 162.93 137.57 C 162.28 137.00 161.30 137.07 160.73 137.72 C 160.16 138.37 160.23 139.35 160.88 139.92 Z M 161.57 140.51 L 162.28 141.20 C 162.90 141.80 163.89 141.79 164.49 141.17 C 165.09 140.55 165.07 139.56 164.45 138.96 L 163.74 138.27 C 163.12 137.67 162.13 137.69 161.53 138.31 C 160.93 138.93 160.95 139.91 161.57 140.51 Z M 162.23 141.15 L 162.92 141.89 C 163.51 142.51 164.50 142.54 165.13 141.95 C 165.76 141.36 165.79 140.38 165.19 139.75 L 164.50 139.01 C 163.91 138.38 162.92 138.35 162.30 138.94 C 161.67 139.54 161.64 140.52 162.23 141.15 Z M 162.87 141.84 L 163.54 142.61 C 164.11 143.26 165.09 143.34 165.74 142.78 C 166.40 142.21 166.47 141.23 165.91 140.57 L 165.24 139.80 C 164.68 139.14 163.69 139.07 163.04 139.63 C 162.39 140.20 162.31 141.18 162.87 141.84 Z M 163.50 142.56 L 164.13 143.36 C 164.67 144.03 165.65 144.14 166.33 143.61 C 167.00 143.07 167.11 142.09 166.58 141.41 L 165.95 140.62 C 165.41 139.95 164.43 139.83 163.75 140.37 C 163.08 140.91 162.97 141.89 163.50 142.56 Z M 164.10 143.31 L 164.69 144.12 C 165.21 144.81 166.18 144.96 166.88 144.45 C 167.57 143.94 167.72 142.96 167.21 142.26 L 166.61 141.46 C 166.10 140.76 165.12 140.62 164.43 141.13 C 163.73 141.64 163.59 142.62 164.10 143.31 Z M 164.66 144.07 L 165.23 144.91 C 165.72 145.62 166.69 145.80 167.40 145.31 C 168.11 144.82 168.30 143.85 167.81 143.14 L 167.24 142.31 C 166.75 141.60 165.78 141.42 165.07 141.90 C 164.36 142.39 164.17 143.36 164.66 144.07 Z M 165.20 144.86 L 165.74 145.71 C 166.21 146.44 167.17 146.65 167.90 146.19 C 168.63 145.73 168.84 144.76 168.38 144.04 L 167.84 143.18 C 167.37 142.46 166.41 142.24 165.68 142.71 C 164.95 143.17 164.74 144.13 165.20 144.86 Z M 165.72 145.66 L 166.22 146.53 C 166.66 147.27 167.62 147.52 168.36 147.08 C 169.10 146.64 169.35 145.69 168.91 144.94 L 168.41 144.08 C 167.97 143.34 167.01 143.09 166.27 143.53 C 165.53 143.96 165.28 144.92 165.72 145.66 Z M 166.20 146.48 L 166.67 147.35 C 167.08 148.11 168.03 148.39 168.78 147.98 C 169.54 147.57 169.82 146.62 169.41 145.86 L 168.94 144.99 C 168.53 144.23 167.58 143.95 166.83 144.36 C 166.07 144.77 165.79 145.72 166.20 146.48 Z M 166.64 147.30 L 167.09 148.21 C 167.47 148.98 168.41 149.30 169.18 148.92 C 169.95 148.54 170.27 147.60 169.89 146.83 L 169.44 145.92 C 169.06 145.14 168.12 144.83 167.35 145.21 C 166.58 145.59 166.26 146.53 166.64 147.30 Z M 167.06 148.15 L 167.47 149.08 C 167.82 149.87 168.74 150.23 169.53 149.88 C 170.32 149.53 170.68 148.61 170.33 147.82 L 169.92 146.89 C 169.57 146.10 168.65 145.74 167.86 146.09 C 167.07 146.44 166.71 147.36 167.06 148.15 Z M 167.44 149.01 L 167.80 149.95 C 168.12 150.75 169.02 151.15 169.82 150.84 C 170.63 150.53 171.03 149.63 170.72 148.82 L 170.36 147.89 C 170.05 147.08 169.14 146.68 168.34 146.99 C 167.53 147.30 167.13 148.21 167.44 149.01 Z M 167.78 149.87 L 168.09 150.81 C 168.36 151.63 169.24 152.08 170.06 151.81 C 170.88 151.54 171.32 150.66 171.05 149.84 L 170.75 148.90 C 170.48 148.08 169.59 147.63 168.78 147.90 C 167.96 148.17 167.51 149.05 167.78 149.87 Z M 168.06 150.73 L 168.32 151.68 C 168.54 152.51 169.40 153.01 170.23 152.78 C 171.06 152.56 171.56 151.70 171.33 150.87 L 171.08 149.92 C 170.85 149.09 170.00 148.59 169.17 148.82 C 168.33 149.04 167.84 149.90 168.06 150.73 Z M 168.30 151.59 L 168.50 152.56 C 168.67 153.41 169.50 153.95 170.34 153.77 C 171.19 153.60 171.73 152.77 171.55 151.93 L 171.35 150.96 C 171.18 150.11 170.35 149.57 169.51 149.75 C 168.66 149.92 168.12 150.75 168.30 151.59 Z M 168.48 152.47 L 168.64 153.53 C 168.76 154.38 169.55 154.97 170.41 154.85 C 171.26 154.72 171.85 153.93 171.72 153.07 L 171.57 152.02 C 171.45 151.17 170.65 150.58 169.80 150.70 C 168.95 150.83 168.36 151.62 168.48 152.47 Z M 168.63 153.45 L 168.73 154.50 C 168.81 155.35 169.57 155.98 170.43 155.90 C 171.29 155.82 171.92 155.06 171.83 154.20 L 171.73 153.15 C 171.65 152.29 170.89 151.66 170.03 151.75 C 169.17 151.83 168.54 152.59 168.63 153.45 Z M 168.72 154.43 L 168.78 155.45 C 168.83 156.31 169.56 156.97 170.42 156.92 C 171.29 156.87 171.94 156.14 171.90 155.28 L 171.84 154.26 C 171.79 153.40 171.05 152.74 170.19 152.79 C 169.33 152.84 168.67 153.57 168.72 154.43 Z M 168.78 155.41 L 168.80 156.37 C 168.83 157.23 169.54 157.91 170.40 157.89 C 171.27 157.87 171.95 157.15 171.92 156.29 L 171.90 155.32 C 171.87 154.46 171.16 153.78 170.30 153.80 C 169.43 153.83 168.75 154.54 168.78 155.41 Z M 168.80 156.34 L 168.81 157.23 C 168.81 158.09 169.52 158.79 170.38 158.78 C 171.24 158.78 171.94 158.07 171.93 157.21 L 171.92 156.32 C 171.92 155.45 171.21 154.76 170.35 154.77 C 169.49 154.77 168.80 155.48 168.80 156.34 Z M 168.81 157.20 L 168.79 158.35 C 168.78 159.21 169.47 159.92 170.34 159.93 C 171.20 159.94 171.91 159.25 171.92 158.39 L 171.93 157.24 C 171.94 156.38 171.25 155.67 170.39 155.66 C 169.53 155.65 168.82 156.34 168.81 157.20 Z M 168.80 158.28 L 168.74 159.27 C 168.69 160.13 169.35 160.87 170.21 160.92 C 171.07 160.97 171.81 160.31 171.86 159.45 L 171.91 158.46 C 171.96 157.59 171.30 156.86 170.44 156.81 C 169.58 156.76 168.85 157.42 168.80 158.28 Z M 168.75 159.15 L 168.63 160.05 C 168.51 160.90 169.11 161.69 169.96 161.81 C 170.82 161.92 171.60 161.33 171.72 160.47 L 171.85 159.57 C 171.96 158.72 171.37 157.93 170.51 157.81 C 169.66 157.70 168.87 158.29 168.75 159.15 Z M 168.66 159.88 L 168.43 160.78 C 168.22 161.62 168.73 162.47 169.57 162.68 C 170.40 162.89 171.25 162.38 171.46 161.55 L 171.69 160.64 C 171.90 159.81 171.39 158.96 170.56 158.75 C 169.72 158.54 168.87 159.04 168.66 159.88 Z M 168.48 160.62 L 168.14 161.54 C 167.84 162.35 168.25 163.25 169.06 163.55 C 169.86 163.85 170.76 163.44 171.06 162.64 L 171.41 161.71 C 171.71 160.90 171.30 160.00 170.49 159.70 C 169.69 159.40 168.79 159.81 168.48 160.62 Z M 168.19 161.42 L 167.76 162.33 C 167.39 163.11 167.72 164.04 168.50 164.41 C 169.28 164.78 170.21 164.45 170.58 163.67 L 171.01 162.76 C 171.38 161.98 171.05 161.05 170.27 160.68 C 169.49 160.31 168.56 160.64 168.19 161.42 Z M 167.80 162.24 L 167.31 163.12 C 166.90 163.88 167.17 164.83 167.92 165.25 C 168.68 165.66 169.63 165.39 170.04 164.64 L 170.53 163.76 C 170.95 163.00 170.68 162.05 169.93 161.64 C 169.17 161.22 168.22 161.49 167.80 162.24 Z M 167.35 163.06 L 166.83 163.90 C 166.38 164.63 166.60 165.59 167.34 166.05 C 168.07 166.50 169.03 166.28 169.49 165.54 L 170.01 164.70 C 170.46 163.97 170.23 163.01 169.50 162.55 C 168.77 162.10 167.81 162.33 167.35 163.06 Z M 166.87 163.84 L 166.30 164.67 C 165.82 165.38 166.00 166.35 166.71 166.84 C 167.43 167.32 168.40 167.14 168.88 166.43 L 169.45 165.60 C 169.93 164.89 169.75 163.92 169.04 163.43 C 168.33 162.94 167.36 163.13 166.87 163.84 Z M 166.34 164.61 L 165.73 165.43 C 165.22 166.12 165.36 167.10 166.05 167.61 C 166.74 168.13 167.72 167.99 168.23 167.30 L 168.84 166.48 C 169.36 165.79 169.22 164.81 168.53 164.30 C 167.84 163.78 166.86 163.92 166.34 164.61 Z M 165.77 165.38 L 165.16 166.14 C 164.61 166.81 164.71 167.79 165.38 168.33 C 166.05 168.88 167.04 168.78 167.58 168.11 L 168.20 167.35 C 168.74 166.68 168.64 165.69 167.97 165.15 C 167.30 164.61 166.32 164.71 165.77 165.38 Z M 165.19 166.10 L 164.54 166.85 C 163.97 167.50 164.04 168.49 164.69 169.05 C 165.34 169.62 166.33 169.55 166.89 168.90 L 167.55 168.15 C 168.11 167.49 168.04 166.51 167.39 165.94 C 166.74 165.38 165.75 165.45 165.19 166.10 Z M 164.56 166.82 L 163.88 167.57 C 163.30 168.21 163.34 169.20 163.98 169.78 C 164.62 170.36 165.60 170.31 166.18 169.68 L 166.87 168.93 C 167.45 168.29 167.40 167.30 166.77 166.72 C 166.13 166.14 165.14 166.19 164.56 166.82 Z M 163.90 167.55 L 163.21 168.28 C 162.61 168.91 162.64 169.89 163.26 170.49 C 163.89 171.08 164.88 171.05 165.47 170.43 L 166.16 169.70 C 166.76 169.07 166.73 168.08 166.11 167.49 C 165.48 166.90 164.49 166.92 163.90 167.55 Z M 163.22 168.26 L 162.52 168.97 C 161.92 169.59 161.93 170.58 162.55 171.18 C 163.16 171.79 164.15 171.78 164.75 171.16 L 165.45 170.45 C 166.06 169.83 166.05 168.84 165.43 168.24 C 164.82 167.64 163.83 167.65 163.22 168.26 Z M 162.54 168.96 L 161.83 169.66 C 161.22 170.27 161.21 171.25 161.81 171.87 C 162.42 172.48 163.41 172.49 164.02 171.88 L 164.74 171.18 C 165.35 170.57 165.36 169.58 164.75 168.97 C 164.15 168.36 163.16 168.35 162.54 168.96 Z M 161.85 169.64 L 161.12 170.33 C 160.50 170.93 160.47 171.92 161.07 172.54 C 161.66 173.17 162.65 173.19 163.28 172.59 L 164.00 171.90 C 164.63 171.31 164.65 170.32 164.06 169.69 C 163.46 169.07 162.47 169.05 161.85 169.64 Z M 161.14 170.31 L 160.40 171.00 C 159.76 171.58 159.72 172.57 160.30 173.20 C 160.89 173.84 161.87 173.88 162.51 173.30 L 163.25 172.61 C 163.89 172.03 163.93 171.04 163.35 170.41 C 162.77 169.77 161.78 169.73 161.14 170.31 Z M 160.42 170.98 L 159.67 171.64 C 159.02 172.22 158.96 173.20 159.53 173.85 C 160.10 174.49 161.09 174.56 161.73 173.98 L 162.49 173.32 C 163.13 172.75 163.19 171.76 162.62 171.11 C 162.05 170.47 161.07 170.41 160.42 170.98 Z M 159.69 171.63 L 158.93 172.27 C 158.27 172.83 158.20 173.82 158.75 174.47 C 159.31 175.13 160.30 175.21 160.96 174.65 L 161.71 174.00 C 162.37 173.44 162.45 172.46 161.89 171.80 C 161.33 171.15 160.34 171.07 159.69 171.63 Z M 158.95 172.26 L 158.20 172.88 C 157.53 173.42 157.44 174.41 157.98 175.07 C 158.53 175.74 159.52 175.83 160.18 175.29 L 160.93 174.67 C 161.60 174.12 161.70 173.13 161.15 172.47 C 160.60 171.80 159.62 171.71 158.95 172.26 Z M 158.22 172.86 L 157.50 173.43 C 156.83 173.96 156.71 174.94 157.25 175.62 C 157.78 176.29 158.76 176.41 159.44 175.87 L 160.16 175.30 C 160.83 174.77 160.95 173.79 160.41 173.11 C 159.88 172.44 158.90 172.32 158.22 172.86 Z M 157.54 173.40 L 156.77 173.97 C 156.08 174.48 155.94 175.46 156.45 176.15 C 156.97 176.84 157.94 176.99 158.64 176.47 L 159.40 175.90 C 160.09 175.39 160.24 174.41 159.72 173.72 C 159.21 173.03 158.23 172.88 157.54 173.40 Z M 156.82 173.93 L 155.97 174.52 C 155.26 175.00 155.08 175.98 155.56 176.69 C 156.05 177.40 157.02 177.58 157.73 177.09 L 158.59 176.51 C 159.30 176.02 159.48 175.05 158.99 174.34 C 158.50 173.63 157.53 173.44 156.82 173.93 Z M 156.02 174.48 L 155.10 175.07 C 154.37 175.52 154.15 176.49 154.61 177.22 C 155.07 177.95 156.03 178.17 156.76 177.71 L 157.68 177.12 C 158.41 176.66 158.63 175.70 158.17 174.97 C 157.71 174.24 156.75 174.02 156.02 174.48 Z M 155.14 175.04 L 154.28 175.54 C 153.54 175.98 153.29 176.93 153.73 177.68 C 154.16 178.42 155.12 178.67 155.86 178.23 L 156.72 177.73 C 157.46 177.30 157.71 176.34 157.27 175.60 C 156.84 174.85 155.88 174.60 155.14 175.04 Z M 154.32 175.52 L 153.41 176.02 C 152.66 176.44 152.39 177.39 152.80 178.15 C 153.22 178.90 154.17 179.17 154.93 178.75 L 155.83 178.25 C 156.59 177.83 156.86 176.88 156.44 176.13 C 156.02 175.38 155.07 175.10 154.32 175.52 Z M 153.45 176.01 L 152.53 176.49 C 151.76 176.89 151.47 177.83 151.87 178.59 C 152.27 179.36 153.21 179.65 153.97 179.25 L 154.89 178.77 C 155.66 178.37 155.95 177.43 155.55 176.67 C 155.15 175.90 154.21 175.61 153.45 176.01 Z M 152.56 176.47 L 151.66 176.91 C 150.89 177.29 150.57 178.22 150.95 179.00 C 151.33 179.77 152.26 180.09 153.04 179.71 L 153.94 179.27 C 154.71 178.89 155.03 177.96 154.65 177.18 C 154.27 176.41 153.34 176.09 152.56 176.47 Z M 151.71 176.88 L 150.82 177.28 C 150.03 177.63 149.68 178.56 150.03 179.35 C 150.38 180.13 151.31 180.49 152.10 180.13 L 152.99 179.74 C 153.77 179.38 154.13 178.46 153.78 177.67 C 153.42 176.89 152.50 176.53 151.71 176.88 Z M 150.90 177.25 L 149.94 177.62 C 149.13 177.93 148.73 178.83 149.04 179.63 C 149.35 180.44 150.25 180.84 151.05 180.53 L 152.02 180.17 C 152.82 179.86 153.22 178.96 152.92 178.15 C 152.61 177.35 151.71 176.94 150.90 177.25 Z M 150.05 177.58 L 149.14 177.85 C 148.31 178.09 147.84 178.96 148.08 179.79 C 148.33 180.62 149.20 181.09 150.02 180.84 L 150.94 180.57 C 151.77 180.33 152.24 179.46 151.99 178.63 C 151.75 177.81 150.88 177.33 150.05 177.58 Z M 149.26 177.82 L 148.32 178.02 C 147.47 178.19 146.93 179.02 147.11 179.86 C 147.28 180.71 148.11 181.25 148.95 181.07 L 149.90 180.88 C 150.74 180.70 151.28 179.87 151.11 179.03 C 150.93 178.18 150.11 177.64 149.26 177.82 Z M 148.42 178.00 L 147.42 178.14 C 146.57 178.26 145.98 179.04 146.09 179.90 C 146.21 180.75 147.00 181.35 147.86 181.23 L 148.85 181.09 C 149.71 180.97 150.30 180.18 150.18 179.33 C 150.06 178.47 149.27 177.88 148.42 178.00 Z M 147.49 178.13 L 146.51 178.22 C 145.66 178.30 145.03 179.07 145.11 179.93 C 145.19 180.78 145.95 181.41 146.81 181.33 L 147.79 181.24 C 148.65 181.15 149.28 180.39 149.20 179.53 C 149.11 178.68 148.35 178.05 147.49 178.13 Z M 146.56 178.22 L 145.54 178.28 C 144.67 178.34 144.02 179.08 144.08 179.94 C 144.13 180.80 144.87 181.45 145.73 181.40 L 146.76 181.33 C 147.62 181.28 148.28 180.54 148.22 179.68 C 148.17 178.82 147.42 178.16 146.56 178.22 Z M 145.58 178.28 L 144.55 178.32 C 143.69 178.34 143.01 179.07 143.04 179.93 C 143.07 180.79 143.79 181.47 144.65 181.44 L 145.69 181.40 C 146.55 181.37 147.22 180.65 147.19 179.79 C 147.17 178.93 146.44 178.25 145.58 178.28 Z M 144.60 178.32 L 143.60 178.32 C 142.74 178.32 142.04 179.02 142.05 179.88 C 142.05 180.74 142.75 181.44 143.61 181.44 L 144.60 181.44 C 145.46 181.44 146.16 180.74 146.16 179.87 C 146.16 179.01 145.46 178.31 144.60 178.32 Z M 143.67 178.32 L 142.60 178.27 C 141.73 178.24 141.01 178.91 140.97 179.77 C 140.93 180.63 141.60 181.36 142.47 181.39 L 143.54 181.44 C 144.40 181.47 145.13 180.80 145.17 179.94 C 145.20 179.08 144.53 178.35 143.67 178.32 Z M 142.71 178.28 L 141.66 178.16 C 140.81 178.07 140.03 178.68 139.94 179.54 C 139.84 180.40 140.46 181.17 141.31 181.27 L 142.36 181.38 C 143.21 181.48 143.99 180.86 144.08 180.01 C 144.18 179.15 143.56 178.38 142.71 178.28 Z M 141.82 178.19 L 140.89 177.99 C 140.05 177.81 139.22 178.34 139.04 179.19 C 138.86 180.03 139.39 180.86 140.23 181.04 L 141.16 181.24 C 142.00 181.42 142.83 180.89 143.01 180.05 C 143.20 179.20 142.66 178.37 141.82 178.19 Z M 141.08 178.04 L 140.22 177.74 C 139.41 177.46 138.52 177.89 138.24 178.71 C 137.95 179.52 138.38 180.41 139.20 180.69 L 140.05 180.99 C 140.87 181.27 141.76 180.84 142.04 180.03 C 142.32 179.21 141.89 178.32 141.08 178.04 Z M 140.41 177.82 L 139.53 177.38 C 138.76 177.00 137.82 177.31 137.44 178.08 C 137.05 178.85 137.36 179.79 138.14 180.18 L 139.01 180.62 C 139.78 181.00 140.72 180.69 141.11 179.92 C 141.49 179.15 141.18 178.21 140.41 177.82 Z M 139.69 177.47 L 138.85 176.93 C 138.13 176.46 137.16 176.66 136.69 177.38 C 136.22 178.11 136.42 179.07 137.15 179.54 L 137.98 180.09 C 138.70 180.56 139.67 180.36 140.14 179.63 C 140.61 178.91 140.41 177.94 139.69 177.47 Z M 138.96 177.01 L 138.17 176.38 C 137.49 175.85 136.51 175.96 135.97 176.64 C 135.44 177.32 135.56 178.30 136.23 178.83 L 137.03 179.46 C 137.71 180.00 138.69 179.88 139.23 179.20 C 139.76 178.52 139.64 177.54 138.96 177.01 Z M 138.24 176.45 L 137.51 175.79 C 136.87 175.22 135.89 175.27 135.31 175.91 C 134.73 176.55 134.79 177.54 135.43 178.11 L 136.16 178.77 C 136.80 179.34 137.78 179.29 138.36 178.65 C 138.94 178.01 138.88 177.02 138.24 176.45 Z M 137.57 175.84 L 136.87 175.15 C 136.26 174.54 135.27 174.54 134.66 175.16 C 134.05 175.77 134.06 176.76 134.67 177.36 L 135.37 178.06 C 135.98 178.67 136.97 178.66 137.58 178.05 C 138.19 177.44 138.18 176.45 137.57 175.84 Z M 136.91 175.19 L 136.22 174.45 C 135.63 173.82 134.64 173.79 134.01 174.37 C 133.38 174.96 133.35 175.95 133.94 176.58 L 134.63 177.32 C 135.22 177.95 136.21 177.99 136.84 177.40 C 137.47 176.81 137.50 175.82 136.91 175.19 Z M 136.25 174.48 L 135.57 173.72 C 135.00 173.08 134.02 173.02 133.37 173.59 C 132.73 174.16 132.67 175.15 133.24 175.79 L 133.91 176.55 C 134.48 177.20 135.47 177.26 136.11 176.68 C 136.76 176.11 136.82 175.13 136.25 174.48 Z M 135.60 173.75 L 134.96 173.00 C 134.40 172.34 133.42 172.26 132.76 172.81 C 132.10 173.37 132.02 174.36 132.58 175.01 L 133.21 175.77 C 133.77 176.43 134.76 176.51 135.42 175.95 C 136.07 175.39 136.15 174.41 135.60 173.75 Z M 134.99 173.03 L 134.36 172.25 C 133.82 171.57 132.84 171.47 132.16 172.00 C 131.49 172.54 131.38 173.53 131.92 174.20 L 132.55 174.98 C 133.09 175.65 134.07 175.76 134.75 175.22 C 135.42 174.68 135.53 173.70 134.99 173.03 Z M 134.39 172.29 L 133.78 171.47 C 133.26 170.78 132.29 170.64 131.60 171.16 C 130.91 171.68 130.77 172.66 131.28 173.35 L 131.89 174.16 C 132.41 174.85 133.39 174.99 134.08 174.47 C 134.77 173.95 134.91 172.98 134.39 172.29 Z M 133.82 171.52 L 133.25 170.70 C 132.75 169.99 131.78 169.81 131.07 170.30 C 130.36 170.80 130.19 171.77 130.68 172.48 L 131.25 173.30 C 131.74 174.01 132.71 174.19 133.42 173.69 C 134.13 173.20 134.31 172.23 133.82 171.52 Z M 133.28 170.75 L 132.74 169.91 C 132.28 169.18 131.31 168.97 130.59 169.43 C 129.86 169.90 129.65 170.86 130.11 171.59 L 130.65 172.43 C 131.11 173.15 132.08 173.37 132.80 172.90 C 133.53 172.44 133.74 171.47 133.28 170.75 Z M 132.77 169.95 L 132.26 169.09 C 131.82 168.35 130.87 168.10 130.12 168.54 C 129.38 168.98 129.13 169.94 129.57 170.68 L 130.08 171.54 C 130.52 172.28 131.48 172.53 132.22 172.09 C 132.96 171.65 133.21 170.70 132.77 169.95 Z M 132.29 169.14 L 131.81 168.25 C 131.39 167.50 130.44 167.22 129.69 167.63 C 128.93 168.05 128.65 169.00 129.07 169.75 L 129.55 170.63 C 129.96 171.39 130.91 171.67 131.67 171.26 C 132.42 170.84 132.70 169.89 132.29 169.14 Z M 131.83 168.30 L 131.38 167.41 C 130.98 166.64 130.04 166.33 129.28 166.72 C 128.51 167.11 128.20 168.05 128.59 168.82 L 129.04 169.71 C 129.43 170.48 130.37 170.79 131.14 170.39 C 131.91 170.00 132.22 169.06 131.83 168.30 Z M 131.39 167.45 L 130.97 166.54 C 130.60 165.76 129.67 165.43 128.89 165.80 C 128.11 166.17 127.78 167.10 128.15 167.88 L 128.57 168.78 C 128.94 169.56 129.87 169.89 130.65 169.52 C 131.43 169.16 131.76 168.22 131.39 167.45 Z M 130.98 166.58 L 130.58 165.66 C 130.23 164.88 129.31 164.52 128.52 164.87 C 127.73 165.22 127.37 166.14 127.72 166.93 L 128.13 167.85 C 128.48 168.63 129.40 168.99 130.19 168.64 C 130.98 168.29 131.33 167.37 130.98 166.58 Z M 130.59 165.70 L 130.21 164.77 C 129.88 163.97 128.96 163.60 128.17 163.93 C 127.37 164.26 126.99 165.17 127.32 165.97 L 127.71 166.90 C 128.04 167.69 128.95 168.07 129.75 167.74 C 130.55 167.41 130.92 166.49 130.59 165.70 Z M 130.22 164.80 L 129.85 163.87 C 129.54 163.07 128.64 162.67 127.83 162.99 C 127.03 163.30 126.63 164.21 126.95 165.01 L 127.31 165.94 C 127.62 166.74 128.53 167.14 129.33 166.82 C 130.14 166.51 130.53 165.60 130.22 164.80 Z M 129.86 163.89 L 129.52 162.96 C 129.21 162.15 128.32 161.74 127.51 162.04 C 126.70 162.34 126.29 163.24 126.59 164.05 L 126.94 164.98 C 127.24 165.79 128.14 166.20 128.95 165.90 C 129.75 165.60 130.16 164.70 129.86 163.89 Z M 129.52 162.97 L 129.18 162.03 C 128.89 161.22 128.00 160.80 127.18 161.09 C 126.37 161.38 125.95 162.28 126.24 163.09 L 126.58 164.03 C 126.88 164.84 127.77 165.26 128.58 164.97 C 129.39 164.68 129.81 163.79 129.52 162.97 Z M 129.18 162.04 L 128.85 161.10 C 128.56 160.28 127.67 159.86 126.86 160.15 C 126.04 160.43 125.62 161.33 125.91 162.14 L 126.24 163.08 C 126.53 163.90 127.42 164.32 128.23 164.03 C 129.05 163.75 129.47 162.85 129.18 162.04 Z"
      fill="black"
      fill-rule="nonzero" /></svg>