<svg xmlns="http://www.w3.org/2000/svg" width="300" height="300" viewBox="0 0 300 300">
<path d="M 124.96 162.76 L 124.07 162.26 C 123.32 161.84 122.37 162.10 121.95 162.86 C 121.53 163.61 121.79 164.56 122.55 164.98 L 123.44 165.48 C 124.19 165.90 125.14 165.63 125.56 164.88 C 125.99 164.13 125.72 163.18 124.96 162.76 Z M 124.20 162.34 L 123.38 161.77 C 122.68 161.28 121.70 161.45 121.21 162.16 C 120.72 162.87 120.89 163.84 121.60 164.33 L 122.42 164.90 C 123.13 165.39 124.10 165.22 124.59 164.51 C 125.08 163.80 124.91 162.83 124.20 162.34 Z M 123.63 161.98 L 122.96 161.27 C 122.37 160.65 121.38 160.62 120.75 161.21 C 120.13 161.81 120.10 162.80 120.69 163.42 L 121.36 164.12 C 121.95 164.75 122.94 164.78 123.57 164.18 C 124.19 163.59 124.22 162.60 123.63 161.98 Z M 123.22 161.65 L 122.80 160.81 C 122.41 160.04 121.48 159.73 120.71 160.12 C 119.94 160.51 119.63 161.45 120.01 162.22 L 120.43 163.05 C 120.82 163.82 121.76 164.13 122.53 163.74 C 123.30 163.36 123.61 162.42 123.22 161.65 Z M 122.94 161.20 L 122.75 160.28 C 122.57 159.44 121.74 158.90 120.90 159.07 C 120.06 159.25 119.51 160.08 119.69 160.92 L 119.88 161.83 C 120.05 162.68 120.88 163.22 121.73 163.04 C 122.57 162.87 123.11 162.04 122.94 161.20 Z M 122.78 160.57 L 122.76 159.57 C 122.74 158.71 122.03 158.02 121.17 158.04 C 120.31 158.05 119.62 158.76 119.64 159.62 L 119.66 160.63 C 119.67 161.49 120.38 162.18 121.25 162.16 C 122.11 162.15 122.79 161.44 122.78 160.57 Z M 122.75 159.80 L 122.89 158.76 C 123.00 157.90 122.40 157.12 121.55 157.00 C 120.69 156.89 119.91 157.49 119.79 158.34 L 119.65 159.39 C 119.54 160.24 120.14 161.03 120.99 161.14 C 121.85 161.26 122.63 160.66 122.75 159.80 Z M 122.85 158.96 L 123.12 157.96 C 123.34 157.13 122.85 156.27 122.02 156.05 C 121.19 155.82 120.33 156.31 120.10 157.14 L 119.83 158.14 C 119.61 158.97 120.10 159.83 120.93 160.06 C 121.76 160.28 122.62 159.79 122.85 158.96 Z M 123.06 158.14 L 123.40 157.28 C 123.73 156.48 123.34 155.57 122.54 155.25 C 121.74 154.92 120.83 155.31 120.51 156.11 L 120.16 156.97 C 119.84 157.77 120.23 158.68 121.03 159.00 C 121.83 159.32 122.74 158.94 123.06 158.14 Z M 123.34 157.41 L 123.78 156.57 C 124.18 155.80 123.88 154.86 123.12 154.46 C 122.35 154.07 121.41 154.36 121.01 155.13 L 120.57 155.97 C 120.17 156.74 120.47 157.68 121.24 158.08 C 122.00 158.48 122.94 158.18 123.34 157.41 Z M 123.72 156.67 L 124.25 155.82 C 124.70 155.09 124.48 154.13 123.74 153.67 C 123.01 153.22 122.05 153.44 121.59 154.18 L 121.07 155.03 C 120.61 155.76 120.84 156.72 121.57 157.18 C 122.31 157.63 123.27 157.40 123.72 156.67 Z M 124.20 155.89 L 124.81 155.02 C 125.30 154.31 125.13 153.33 124.42 152.84 C 123.71 152.35 122.74 152.53 122.24 153.24 L 121.64 154.11 C 121.15 154.82 121.32 155.79 122.03 156.28 C 122.74 156.77 123.71 156.60 124.20 155.89 Z M 124.78 155.06 L 125.41 154.20 C 125.93 153.51 125.78 152.53 125.09 152.02 C 124.40 151.50 123.42 151.65 122.91 152.34 L 122.27 153.20 C 121.76 153.89 121.90 154.87 122.60 155.38 C 123.29 155.89 124.27 155.75 124.78 155.06 Z M 125.40 154.22 L 126.00 153.44 C 126.53 152.76 126.40 151.78 125.72 151.25 C 125.04 150.72 124.06 150.85 123.53 151.53 L 122.92 152.32 C 122.40 153.00 122.53 153.98 123.21 154.51 C 123.89 155.04 124.87 154.91 125.40 154.22 Z M 125.99 153.46 L 126.63 152.66 C 127.16 151.98 127.05 151.00 126.37 150.46 C 125.70 149.93 124.71 150.04 124.18 150.71 L 123.54 151.52 C 123.01 152.19 123.12 153.17 123.80 153.71 C 124.47 154.24 125.45 154.13 125.99 153.46 Z M 126.61 152.67 L 127.26 151.87 C 127.81 151.20 127.71 150.22 127.04 149.68 C 126.37 149.13 125.39 149.23 124.84 149.90 L 124.19 150.70 C 123.65 151.37 123.75 152.35 124.42 152.90 C 125.08 153.44 126.07 153.34 126.61 152.67 Z M 127.25 151.89 L 127.90 151.11 C 128.46 150.45 128.37 149.46 127.71 148.91 C 127.05 148.36 126.06 148.44 125.51 149.10 L 124.86 149.88 C 124.30 150.55 124.39 151.53 125.05 152.08 C 125.71 152.64 126.70 152.55 127.25 151.89 Z M 127.89 151.12 L 128.53 150.38 C 129.09 149.73 129.02 148.74 128.37 148.18 C 127.71 147.61 126.73 147.69 126.16 148.34 L 125.52 149.09 C 124.96 149.74 125.03 150.73 125.69 151.29 C 126.34 151.85 127.33 151.78 127.89 151.12 Z M 128.51 150.40 L 129.20 149.63 C 129.77 148.98 129.72 147.99 129.07 147.42 C 128.43 146.85 127.44 146.91 126.87 147.55 L 126.18 148.32 C 125.61 148.97 125.67 149.95 126.31 150.53 C 126.95 151.10 127.94 151.04 128.51 150.40 Z M 129.18 149.65 L 129.91 148.86 C 130.50 148.23 130.46 147.24 129.83 146.65 C 129.19 146.07 128.20 146.11 127.62 146.74 L 126.89 147.53 C 126.30 148.16 126.34 149.15 126.97 149.73 C 127.61 150.32 128.60 150.28 129.18 149.65 Z M 129.89 148.88 L 130.59 148.16 C 131.18 147.53 131.16 146.55 130.54 145.95 C 129.92 145.35 128.93 145.37 128.33 145.99 L 127.64 146.72 C 127.04 147.34 127.06 148.33 127.68 148.92 C 128.31 149.52 129.29 149.50 129.89 148.88 Z M 130.57 148.17 L 131.24 147.49 C 131.84 146.88 131.84 145.89 131.22 145.29 C 130.61 144.68 129.62 144.69 129.02 145.30 L 128.35 145.98 C 127.74 146.59 127.75 147.58 128.36 148.19 C 128.98 148.79 129.96 148.79 130.57 148.17 Z M 131.23 147.50 L 131.89 146.85 C 132.50 146.24 132.50 145.25 131.89 144.64 C 131.28 144.03 130.29 144.03 129.68 144.64 L 129.03 145.29 C 128.42 145.90 128.41 146.89 129.02 147.50 C 129.63 148.11 130.62 148.11 131.23 147.50 Z M 131.88 146.85 L 132.57 146.17 C 133.19 145.56 133.19 144.57 132.58 143.96 C 131.97 143.35 130.98 143.34 130.37 143.95 L 129.68 144.64 C 129.07 145.24 129.07 146.23 129.68 146.84 C 130.28 147.46 131.27 147.46 131.88 146.85 Z M 132.57 146.17 L 133.28 145.47 C 133.89 144.86 133.90 143.87 133.29 143.26 C 132.68 142.65 131.69 142.64 131.08 143.25 L 130.37 143.95 C 129.76 144.56 129.76 145.55 130.37 146.16 C 130.97 146.77 131.96 146.77 132.57 146.17 Z M 133.28 145.47 L 133.99 144.77 C 134.60 144.16 134.61 143.17 134.00 142.56 C 133.40 141.95 132.41 141.94 131.80 142.54 L 131.08 143.25 C 130.47 143.85 130.46 144.84 131.07 145.45 C 131.67 146.07 132.66 146.07 133.28 145.47 Z M 133.98 144.77 L 134.70 144.07 C 135.32 143.47 135.33 142.48 134.73 141.86 C 134.13 141.25 133.14 141.23 132.52 141.84 L 131.80 142.54 C 131.18 143.14 131.17 144.13 131.77 144.75 C 132.37 145.36 133.36 145.38 133.98 144.77 Z M 134.69 144.08 L 135.42 143.39 C 136.04 142.79 136.06 141.80 135.46 141.18 C 134.86 140.56 133.88 140.54 133.25 141.13 L 132.53 141.83 C 131.91 142.43 131.89 143.41 132.48 144.04 C 133.08 144.66 134.07 144.68 134.69 144.08 Z M 135.40 143.40 L 136.13 142.72 C 136.76 142.13 136.79 141.14 136.19 140.51 C 135.60 139.88 134.62 139.85 133.99 140.44 L 133.26 141.12 C 132.64 141.71 132.61 142.70 133.20 143.33 C 133.79 143.96 134.78 143.99 135.40 143.40 Z M 136.11 142.73 L 136.85 142.05 C 137.49 141.47 137.53 140.48 136.94 139.85 C 136.36 139.21 135.37 139.17 134.74 139.75 L 134.00 140.43 C 133.37 141.01 133.32 142.00 133.91 142.64 C 134.49 143.27 135.48 143.31 136.11 142.73 Z M 136.83 142.07 L 137.58 141.40 C 138.23 140.82 138.28 139.84 137.71 139.19 C 137.13 138.55 136.15 138.50 135.50 139.07 L 134.75 139.74 C 134.11 140.31 134.06 141.30 134.63 141.94 C 135.20 142.59 136.19 142.64 136.83 142.07 Z M 137.56 141.42 L 138.33 140.76 C 138.98 140.19 139.05 139.21 138.49 138.56 C 137.92 137.90 136.94 137.83 136.28 138.40 L 135.52 139.05 C 134.87 139.62 134.80 140.60 135.36 141.26 C 135.93 141.91 136.91 141.98 137.56 141.42 Z M 138.30 140.78 L 139.10 140.12 C 139.76 139.57 139.85 138.58 139.30 137.92 C 138.74 137.26 137.76 137.17 137.10 137.72 L 136.31 138.38 C 135.64 138.93 135.55 139.91 136.11 140.58 C 136.66 141.24 137.64 141.33 138.30 140.78 Z M 139.07 140.13 L 139.87 139.49 C 140.54 138.95 140.65 137.97 140.11 137.30 C 139.57 136.63 138.59 136.52 137.92 137.06 L 137.12 137.70 C 136.45 138.24 136.34 139.22 136.88 139.89 C 137.42 140.57 138.40 140.67 139.07 140.13 Z M 139.85 139.51 L 140.64 138.90 C 141.32 138.37 141.45 137.39 140.92 136.71 C 140.39 136.03 139.41 135.90 138.73 136.43 L 137.94 137.04 C 137.26 137.57 137.13 138.55 137.66 139.23 C 138.19 139.91 139.17 140.04 139.85 139.51 Z M 140.62 138.91 L 141.40 138.33 C 142.09 137.82 142.23 136.84 141.72 136.15 C 141.20 135.46 140.22 135.32 139.53 135.83 L 138.75 136.41 C 138.06 136.93 137.92 137.91 138.44 138.60 C 138.95 139.29 139.93 139.43 140.62 138.91 Z M 141.38 138.35 L 142.14 137.80 C 142.84 137.30 143.00 136.32 142.50 135.62 C 141.99 134.92 141.02 134.76 140.32 135.26 L 139.55 135.81 C 138.85 136.32 138.69 137.29 139.20 137.99 C 139.70 138.69 140.68 138.85 141.38 138.35 Z M 142.11 137.82 L 142.88 137.30 C 143.59 136.81 143.78 135.84 143.29 135.13 C 142.81 134.42 141.84 134.23 141.12 134.72 L 140.35 135.24 C 139.64 135.73 139.45 136.70 139.94 137.41 C 140.42 138.12 141.39 138.31 142.11 137.82 Z M 142.83 137.33 L 143.64 136.82 C 144.37 136.36 144.59 135.40 144.14 134.67 C 143.68 133.94 142.71 133.72 141.98 134.18 L 141.17 134.69 C 140.44 135.14 140.22 136.11 140.68 136.84 C 141.14 137.57 142.10 137.79 142.83 137.33 Z M 143.59 136.85 L 144.49 136.34 C 145.24 135.91 145.50 134.96 145.07 134.21 C 144.64 133.46 143.69 133.20 142.94 133.63 L 142.04 134.14 C 141.29 134.57 141.03 135.52 141.46 136.27 C 141.88 137.02 142.84 137.28 143.59 136.85 Z M 144.44 136.37 L 145.39 135.87 C 146.16 135.47 146.46 134.53 146.06 133.77 C 145.66 133.00 144.72 132.70 143.96 133.10 L 143.00 133.60 C 142.23 134.00 141.93 134.94 142.33 135.70 C 142.73 136.47 143.67 136.77 144.44 136.37 Z M 145.35 135.89 L 146.24 135.46 C 147.02 135.09 147.34 134.16 146.97 133.38 C 146.59 132.60 145.66 132.28 144.88 132.65 L 144.00 133.08 C 143.22 133.45 142.89 134.39 143.27 135.16 C 143.64 135.94 144.58 136.27 145.35 135.89 Z M 146.21 135.48 L 147.15 135.05 C 147.93 134.69 148.28 133.77 147.92 132.98 C 147.56 132.20 146.64 131.85 145.85 132.21 L 144.91 132.64 C 144.13 132.99 143.78 133.92 144.14 134.70 C 144.50 135.49 145.42 135.84 146.21 135.48 Z M 147.12 135.07 L 148.08 134.65 C 148.87 134.31 149.24 133.40 148.90 132.60 C 148.56 131.81 147.64 131.44 146.85 131.78 L 145.89 132.20 C 145.09 132.54 144.73 133.45 145.07 134.25 C 145.41 135.04 146.32 135.40 147.12 135.07 Z M 148.04 134.67 L 148.99 134.29 C 149.79 133.97 150.18 133.06 149.86 132.26 C 149.54 131.46 148.63 131.07 147.83 131.39 L 146.88 131.77 C 146.08 132.09 145.69 133.00 146.01 133.80 C 146.33 134.60 147.24 134.99 148.04 134.67 Z M 148.95 134.30 L 149.85 133.97 C 150.66 133.67 151.07 132.77 150.78 131.96 C 150.48 131.16 149.58 130.74 148.77 131.04 L 147.87 131.37 C 147.06 131.67 146.65 132.57 146.95 133.38 C 147.24 134.19 148.14 134.60 148.95 134.30 Z M 149.79 133.99 L 150.79 133.67 C 151.61 133.41 152.06 132.53 151.79 131.71 C 151.53 130.88 150.65 130.43 149.83 130.70 L 148.83 131.02 C 148.01 131.28 147.56 132.16 147.83 132.98 C 148.09 133.80 148.97 134.26 149.79 133.99 Z M 150.69 133.70 L 151.66 133.45 C 152.49 133.24 153.00 132.39 152.79 131.56 C 152.58 130.72 151.73 130.21 150.89 130.43 L 149.93 130.67 C 149.09 130.88 148.58 131.73 148.80 132.57 C 149.01 133.40 149.86 133.91 150.69 133.70 Z M 151.54 133.48 L 152.47 133.32 C 153.32 133.17 153.89 132.36 153.74 131.51 C 153.60 130.66 152.79 130.09 151.94 130.24 L 151.01 130.40 C 150.16 130.55 149.59 131.36 149.74 132.21 C 149.88 133.06 150.69 133.62 151.54 133.48 Z M 152.36 133.33 L 153.32 133.24 C 154.18 133.15 154.81 132.39 154.72 131.53 C 154.64 130.67 153.87 130.04 153.01 130.13 L 152.05 130.23 C 151.19 130.31 150.57 131.08 150.65 131.93 C 150.74 132.79 151.50 133.42 152.36 133.33 Z M 153.24 133.24 L 154.24 133.19 C 155.10 133.15 155.76 132.42 155.72 131.56 C 155.68 130.70 154.95 130.03 154.09 130.08 L 153.09 130.12 C 152.23 130.16 151.57 130.90 151.61 131.76 C 151.65 132.62 152.38 133.28 153.24 133.24 Z M 154.18 133.20 L 155.18 133.18 C 156.05 133.18 156.74 132.47 156.73 131.61 C 156.72 130.74 156.01 130.05 155.15 130.06 L 154.15 130.07 C 153.28 130.08 152.59 130.79 152.60 131.65 C 152.61 132.51 153.32 133.21 154.18 133.20 Z M 155.12 133.18 L 156.16 133.21 C 157.02 133.24 157.74 132.56 157.77 131.70 C 157.79 130.83 157.11 130.12 156.25 130.09 L 155.21 130.06 C 154.35 130.04 153.63 130.72 153.61 131.58 C 153.58 132.44 154.26 133.16 155.12 133.18 Z M 156.09 133.21 L 157.12 133.29 C 157.98 133.35 158.73 132.71 158.79 131.85 C 158.86 130.99 158.21 130.24 157.35 130.17 L 156.32 130.10 C 155.46 130.03 154.71 130.67 154.65 131.53 C 154.58 132.39 155.23 133.14 156.09 133.21 Z M 157.02 133.28 L 157.99 133.41 C 158.85 133.53 159.63 132.94 159.75 132.08 C 159.87 131.23 159.28 130.44 158.42 130.32 L 157.45 130.19 C 156.60 130.07 155.81 130.66 155.69 131.51 C 155.57 132.37 156.16 133.16 157.02 133.28 Z M 157.84 133.38 L 158.85 133.63 C 159.69 133.83 160.53 133.32 160.74 132.48 C 160.94 131.64 160.42 130.80 159.59 130.59 L 158.57 130.35 C 157.74 130.15 156.89 130.66 156.69 131.50 C 156.49 132.34 157.00 133.18 157.84 133.38 Z M 158.65 133.56 L 159.62 133.95 C 160.42 134.26 161.33 133.87 161.64 133.07 C 161.96 132.26 161.56 131.36 160.76 131.04 L 159.79 130.66 C 158.99 130.34 158.08 130.74 157.77 131.54 C 157.45 132.34 157.84 133.25 158.65 133.56 Z M 159.42 133.85 L 160.26 134.33 C 161.01 134.75 161.96 134.49 162.38 133.74 C 162.81 132.98 162.54 132.03 161.79 131.61 L 160.96 131.14 C 160.21 130.71 159.25 130.98 158.83 131.73 C 158.41 132.48 158.67 133.43 159.42 133.85 Z M 160.12 134.24 L 160.87 134.78 C 161.58 135.28 162.55 135.11 163.05 134.41 C 163.55 133.71 163.39 132.74 162.69 132.23 L 161.93 131.70 C 161.23 131.19 160.25 131.36 159.75 132.06 C 159.25 132.76 159.42 133.74 160.12 134.24 Z M 160.80 134.72 L 161.54 135.32 C 162.21 135.86 163.19 135.75 163.73 135.08 C 164.27 134.41 164.17 133.42 163.50 132.88 L 162.76 132.29 C 162.09 131.75 161.11 131.86 160.56 132.53 C 160.02 133.20 160.13 134.18 160.80 134.72 Z M 161.49 135.27 L 162.22 135.91 C 162.87 136.48 163.85 136.42 164.42 135.77 C 164.99 135.12 164.93 134.14 164.28 133.57 L 163.55 132.93 C 162.90 132.36 161.91 132.42 161.35 133.07 C 160.78 133.72 160.84 134.70 161.49 135.27 Z M 162.17 135.87 L 162.90 136.57 C 163.52 137.17 164.51 137.15 165.11 136.52 C 165.70 135.90 165.68 134.91 165.06 134.32 L 164.33 133.62 C 163.71 133.02 162.72 133.04 162.12 133.66 C 161.53 134.28 161.55 135.27 162.17 135.87 Z M 162.85 136.52 L 163.58 137.28 C 164.18 137.90 165.16 137.92 165.79 137.33 C 166.41 136.73 166.43 135.74 165.83 135.12 L 165.11 134.36 C 164.51 133.74 163.52 133.72 162.90 134.32 C 162.28 134.91 162.26 135.90 162.85 136.52 Z M 163.54 137.24 L 164.20 137.98 C 164.78 138.62 165.76 138.68 166.41 138.10 C 167.05 137.53 167.11 136.54 166.53 135.90 L 165.87 135.16 C 165.30 134.52 164.31 134.46 163.67 135.04 C 163.02 135.61 162.97 136.60 163.54 137.24 Z M 164.17 137.95 L 164.83 138.72 C 165.38 139.38 166.37 139.46 167.03 138.91 C 167.69 138.35 167.77 137.37 167.21 136.71 L 166.56 135.93 C 166.00 135.27 165.02 135.19 164.36 135.75 C 163.70 136.30 163.62 137.29 164.17 137.95 Z M 164.80 138.69 L 165.44 139.48 C 165.98 140.15 166.96 140.26 167.63 139.72 C 168.30 139.18 168.41 138.20 167.87 137.53 L 167.24 136.74 C 166.70 136.07 165.72 135.96 165.04 136.50 C 164.37 137.04 164.26 138.02 164.80 138.69 Z M 165.42 139.46 L 166.02 140.24 C 166.54 140.92 167.52 141.05 168.21 140.53 C 168.89 140.00 169.02 139.02 168.49 138.34 L 167.89 137.56 C 167.37 136.87 166.39 136.74 165.70 137.27 C 165.02 137.79 164.89 138.77 165.42 139.46 Z M 165.99 140.21 L 166.60 141.04 C 167.11 141.74 168.09 141.89 168.78 141.38 C 169.48 140.87 169.63 139.90 169.12 139.20 L 168.52 138.37 C 168.01 137.67 167.03 137.52 166.34 138.03 C 165.64 138.53 165.49 139.51 165.99 140.21 Z M 166.58 141.00 L 167.14 141.82 C 167.62 142.53 168.60 142.71 169.31 142.23 C 170.02 141.74 170.20 140.77 169.71 140.05 L 169.15 139.24 C 168.66 138.53 167.69 138.35 166.98 138.83 C 166.27 139.32 166.09 140.29 166.58 141.00 Z M 167.11 141.78 L 167.64 142.61 C 168.11 143.33 169.07 143.54 169.80 143.08 C 170.52 142.61 170.73 141.65 170.27 140.92 L 169.74 140.10 C 169.27 139.37 168.31 139.16 167.58 139.62 C 166.86 140.09 166.64 141.06 167.11 141.78 Z M 167.61 142.57 L 168.12 143.41 C 168.57 144.15 169.52 144.39 170.26 143.95 C 171.00 143.51 171.24 142.55 170.80 141.81 L 170.29 140.96 C 169.85 140.22 168.89 139.98 168.15 140.43 C 167.41 140.87 167.17 141.83 167.61 142.57 Z M 168.10 143.38 L 168.59 144.24 C 169.01 144.99 169.96 145.26 170.71 144.83 C 171.46 144.41 171.73 143.46 171.31 142.71 L 170.82 141.85 C 170.40 141.09 169.45 140.83 168.70 141.25 C 167.94 141.67 167.68 142.63 168.10 143.38 Z M 168.57 144.21 L 169.04 145.09 C 169.45 145.86 170.40 146.14 171.16 145.73 C 171.92 145.33 172.20 144.38 171.80 143.62 L 171.32 142.74 C 170.92 141.97 169.97 141.69 169.21 142.10 C 168.45 142.50 168.16 143.45 168.57 144.21 Z M 169.03 145.07 L 169.49 145.97 C 169.89 146.74 170.83 147.04 171.60 146.65 C 172.36 146.25 172.66 145.31 172.27 144.54 L 171.81 143.65 C 171.42 142.88 170.47 142.58 169.71 142.97 C 168.94 143.36 168.64 144.30 169.03 145.07 Z M 169.48 145.95 L 169.94 146.87 C 170.32 147.64 171.26 147.95 172.03 147.57 C 172.80 147.19 173.12 146.25 172.73 145.48 L 172.28 144.56 C 171.90 143.79 170.96 143.48 170.19 143.86 C 169.42 144.24 169.10 145.18 169.48 145.95 Z M 169.93 146.85 L 170.38 147.78 C 170.75 148.56 171.68 148.88 172.46 148.51 C 173.24 148.14 173.56 147.20 173.19 146.43 L 172.74 145.50 C 172.37 144.72 171.44 144.39 170.66 144.77 C 169.88 145.14 169.56 146.07 169.93 146.85 Z M 170.37 147.76 L 170.79 148.67 C 171.15 149.45 172.08 149.79 172.86 149.43 C 173.64 149.07 173.98 148.14 173.62 147.36 L 173.20 146.45 C 172.84 145.67 171.91 145.32 171.13 145.69 C 170.35 146.05 170.00 146.98 170.37 147.76 Z M 170.78 148.64 L 171.17 149.53 C 171.51 150.32 172.43 150.68 173.22 150.33 C 174.01 149.98 174.37 149.06 174.02 148.27 L 173.63 147.39 C 173.29 146.60 172.37 146.24 171.58 146.59 C 170.79 146.93 170.43 147.85 170.78 148.64 Z M 171.15 149.49 L 171.53 150.41 C 171.86 151.21 172.77 151.59 173.57 151.26 C 174.36 150.93 174.74 150.02 174.41 149.22 L 174.04 148.30 C 173.71 147.51 172.80 147.13 172.00 147.46 C 171.20 147.78 170.82 148.70 171.15 149.49 Z M 171.51 150.36 L 171.86 151.29 C 172.16 152.10 173.06 152.51 173.87 152.20 C 174.67 151.90 175.08 151.00 174.78 150.19 L 174.43 149.27 C 174.13 148.46 173.23 148.05 172.42 148.35 C 171.62 148.66 171.21 149.56 171.51 150.36 Z M 171.84 151.23 L 172.15 152.17 C 172.42 152.99 173.30 153.43 174.12 153.16 C 174.94 152.89 175.38 152.01 175.11 151.19 L 174.80 150.25 C 174.53 149.43 173.65 148.99 172.83 149.26 C 172.01 149.53 171.57 150.41 171.84 151.23 Z M 172.13 152.11 L 172.39 153.02 C 172.62 153.85 173.49 154.33 174.31 154.09 C 175.14 153.86 175.62 152.99 175.39 152.16 L 175.13 151.25 C 174.89 150.42 174.03 149.94 173.20 150.18 C 172.37 150.42 171.89 151.28 172.13 152.11 Z M 172.37 152.96 L 172.57 153.78 C 172.77 154.61 173.61 155.13 174.45 154.93 C 175.29 154.73 175.80 153.88 175.60 153.05 L 175.41 152.23 C 175.20 151.39 174.36 150.87 173.52 151.07 C 172.68 151.27 172.17 152.12 172.37 152.96 Z M 172.55 153.71 L 172.73 154.62 C 172.89 155.47 173.71 156.02 174.56 155.86 C 175.40 155.70 175.96 154.88 175.79 154.03 L 175.62 153.12 C 175.45 152.27 174.64 151.71 173.79 151.88 C 172.94 152.04 172.39 152.86 172.55 153.71 Z M 172.72 154.55 L 172.87 155.60 C 172.99 156.45 173.78 157.05 174.63 156.92 C 175.49 156.80 176.08 156.01 175.96 155.16 L 175.81 154.11 C 175.68 153.25 174.89 152.66 174.04 152.78 C 173.19 152.90 172.59 153.69 172.72 154.55 Z M 172.86 155.53 L 172.98 156.75 C 173.06 157.60 173.83 158.23 174.68 158.15 C 175.54 158.06 176.17 157.30 176.08 156.44 L 175.96 155.23 C 175.88 154.37 175.12 153.74 174.26 153.83 C 173.40 153.91 172.77 154.67 172.86 155.53 Z M 172.97 156.70 L 173.03 157.61 C 173.09 158.47 173.83 159.12 174.70 159.07 C 175.56 159.01 176.21 158.27 176.15 157.41 L 176.09 156.49 C 176.03 155.63 175.29 154.98 174.43 155.04 C 173.57 155.09 172.92 155.84 172.97 156.70 Z M 173.03 157.57 L 173.07 158.55 C 173.11 159.42 173.83 160.09 174.69 160.05 C 175.55 160.02 176.23 159.29 176.19 158.43 L 176.15 157.45 C 176.12 156.59 175.39 155.91 174.53 155.95 C 173.67 155.98 173.00 156.71 173.03 157.57 Z M 173.07 158.51 L 173.08 159.53 C 173.09 160.40 173.80 161.09 174.66 161.08 C 175.52 161.07 176.21 160.36 176.20 159.50 L 176.19 158.48 C 176.18 157.61 175.48 156.92 174.61 156.93 C 173.75 156.94 173.06 157.65 173.07 158.51 Z M 173.08 159.48 L 173.06 160.52 C 173.04 161.39 173.72 162.10 174.58 162.12 C 175.44 162.14 176.16 161.46 176.18 160.60 L 176.20 159.55 C 176.22 158.69 175.54 157.98 174.68 157.96 C 173.82 157.94 173.10 158.62 173.08 159.48 Z M 173.06 160.46 L 172.99 161.50 C 172.94 162.36 173.59 163.10 174.45 163.15 C 175.31 163.21 176.05 162.56 176.11 161.70 L 176.18 160.66 C 176.23 159.80 175.58 159.06 174.72 159.00 C 173.86 158.95 173.11 159.60 173.06 160.46 Z M 173.00 161.42 L 172.89 162.42 C 172.79 163.27 173.40 164.05 174.26 164.15 C 175.11 164.25 175.89 163.63 175.99 162.77 L 176.10 161.77 C 176.20 160.92 175.59 160.14 174.73 160.04 C 173.87 159.95 173.10 160.56 173.00 161.42 Z M 172.90 162.31 L 172.71 163.37 C 172.55 164.22 173.11 165.03 173.96 165.19 C 174.80 165.35 175.62 164.79 175.78 163.94 L 175.97 162.88 C 176.13 162.03 175.57 161.22 174.72 161.06 C 173.87 160.90 173.06 161.46 172.90 162.31 Z M 172.74 163.24 L 172.44 164.31 C 172.21 165.15 172.70 166.01 173.53 166.24 C 174.36 166.47 175.22 165.98 175.45 165.15 L 175.74 164.07 C 175.97 163.24 175.49 162.38 174.66 162.15 C 173.83 161.92 172.97 162.41 172.74 163.24 Z M 172.48 164.18 L 172.12 165.15 C 171.81 165.96 172.22 166.86 173.03 167.16 C 173.84 167.47 174.74 167.06 175.04 166.25 L 175.40 165.28 C 175.71 164.47 175.30 163.57 174.49 163.27 C 173.68 162.97 172.78 163.38 172.48 164.18 Z M 172.17 165.03 L 171.75 165.91 C 171.39 166.69 171.72 167.62 172.50 167.99 C 173.28 168.35 174.21 168.02 174.58 167.24 L 174.99 166.37 C 175.36 165.59 175.03 164.66 174.25 164.29 C 173.47 163.92 172.54 164.25 172.17 165.03 Z M 171.81 165.80 L 171.36 166.58 C 170.94 167.33 171.20 168.28 171.95 168.71 C 172.70 169.14 173.65 168.88 174.08 168.13 L 174.52 167.35 C 174.95 166.60 174.69 165.65 173.94 165.22 C 173.19 164.79 172.24 165.05 171.81 165.80 Z M 171.42 166.49 L 170.90 167.26 C 170.43 167.98 170.62 168.95 171.34 169.43 C 172.05 169.91 173.02 169.71 173.50 169.00 L 174.02 168.22 C 174.50 167.50 174.30 166.53 173.59 166.06 C 172.87 165.58 171.90 165.77 171.42 166.49 Z M 170.97 167.17 L 170.31 168.01 C 169.78 168.69 169.91 169.67 170.59 170.20 C 171.26 170.73 172.25 170.61 172.78 169.93 L 173.43 169.09 C 173.96 168.41 173.84 167.43 173.16 166.90 C 172.48 166.37 171.50 166.49 170.97 167.17 Z M 170.39 167.92 L 169.73 168.65 C 169.15 169.28 169.20 170.27 169.83 170.85 C 170.47 171.43 171.46 171.39 172.04 170.75 L 172.70 170.02 C 173.28 169.39 173.23 168.40 172.60 167.82 C 171.96 167.24 170.97 167.28 170.39 167.92 Z M 169.79 168.58 L 169.13 169.23 C 168.51 169.83 168.50 170.82 169.10 171.44 C 169.70 172.06 170.69 172.07 171.31 171.47 L 171.97 170.82 C 172.59 170.21 172.60 169.23 172.00 168.61 C 171.40 167.99 170.41 167.98 169.79 168.58 Z M 169.17 169.19 L 168.45 169.85 C 167.81 170.43 167.76 171.41 168.34 172.05 C 168.92 172.69 169.91 172.74 170.55 172.16 L 171.27 171.51 C 171.90 170.93 171.95 169.94 171.37 169.30 C 170.79 168.66 169.80 168.61 169.17 169.19 Z M 168.48 169.82 L 167.72 170.47 C 167.07 171.04 167.00 172.02 167.56 172.68 C 168.12 173.33 169.11 173.40 169.76 172.84 L 170.52 172.19 C 171.17 171.62 171.24 170.64 170.68 169.98 C 170.11 169.33 169.13 169.26 168.48 169.82 Z M 167.75 170.45 L 166.98 171.08 C 166.31 171.63 166.22 172.61 166.76 173.28 C 167.31 173.95 168.29 174.04 168.96 173.50 L 169.73 172.86 C 170.40 172.32 170.49 171.33 169.95 170.66 C 169.40 170.00 168.42 169.90 167.75 170.45 Z M 167.01 171.06 L 166.22 171.67 C 165.54 172.20 165.42 173.19 165.95 173.87 C 166.48 174.54 167.46 174.66 168.14 174.13 L 168.93 173.52 C 169.61 172.99 169.73 172.01 169.20 171.33 C 168.67 170.65 167.69 170.53 167.01 171.06 Z M 166.25 171.65 L 165.45 172.25 C 164.76 172.76 164.62 173.74 165.14 174.43 C 165.65 175.12 166.63 175.27 167.32 174.75 L 168.12 174.15 C 168.81 173.64 168.95 172.66 168.43 171.97 C 167.92 171.28 166.94 171.14 166.25 171.65 Z M 165.48 172.23 L 164.66 172.81 C 163.96 173.31 163.80 174.29 164.30 174.99 C 164.81 175.69 165.78 175.85 166.48 175.35 L 167.30 174.77 C 168.00 174.27 168.16 173.29 167.66 172.59 C 167.15 171.89 166.18 171.73 165.48 172.23 Z M 164.69 172.80 L 163.86 173.37 C 163.15 173.86 162.97 174.83 163.46 175.54 C 163.95 176.25 164.92 176.43 165.63 175.94 L 166.46 175.37 C 167.17 174.88 167.35 173.91 166.86 173.20 C 166.37 172.49 165.40 172.31 164.69 172.80 Z M 163.88 173.35 L 163.13 173.85 C 162.41 174.33 162.21 175.30 162.69 176.02 C 163.17 176.74 164.14 176.93 164.86 176.45 L 165.61 175.95 C 166.32 175.48 166.52 174.51 166.04 173.79 C 165.56 173.07 164.59 172.88 163.88 173.35 Z M 163.15 173.84 L 162.36 174.34 C 161.63 174.81 161.42 175.77 161.88 176.50 C 162.35 177.23 163.31 177.44 164.04 176.98 L 164.83 176.47 C 165.56 176.01 165.77 175.04 165.31 174.31 C 164.84 173.59 163.88 173.37 163.15 173.84 Z M 162.39 174.32 L 161.51 174.86 C 160.78 175.30 160.54 176.26 160.99 177.00 C 161.44 177.74 162.40 177.97 163.13 177.52 L 164.01 176.99 C 164.75 176.55 164.98 175.59 164.53 174.85 C 164.09 174.11 163.13 173.88 162.39 174.32 Z M 161.54 174.84 L 160.57 175.40 C 159.82 175.83 159.57 176.78 160.00 177.53 C 160.43 178.28 161.38 178.53 162.13 178.10 L 163.10 177.54 C 163.85 177.11 164.11 176.16 163.68 175.41 C 163.25 174.66 162.29 174.41 161.54 174.84 Z M 160.59 175.39 L 159.80 175.82 C 159.05 176.24 158.77 177.19 159.19 177.95 C 159.61 178.70 160.56 178.97 161.31 178.56 L 162.11 178.12 C 162.86 177.70 163.13 176.75 162.72 176.00 C 162.30 175.24 161.35 174.97 160.59 175.39 Z M 159.82 175.81 L 158.97 176.27 C 158.21 176.67 157.92 177.62 158.33 178.38 C 158.73 179.14 159.68 179.43 160.44 179.02 L 161.29 178.57 C 162.05 178.16 162.34 177.22 161.94 176.46 C 161.53 175.69 160.58 175.41 159.82 175.81 Z M 158.99 176.26 L 158.09 176.72 C 157.32 177.11 157.02 178.05 157.41 178.82 C 157.80 179.58 158.74 179.89 159.51 179.50 L 160.41 179.04 C 161.18 178.64 161.49 177.70 161.09 176.94 C 160.70 176.17 159.76 175.86 158.99 176.26 Z M 158.12 176.70 L 157.18 177.16 C 156.40 177.53 156.08 178.47 156.45 179.24 C 156.83 180.02 157.76 180.34 158.54 179.97 L 159.48 179.51 C 160.26 179.14 160.58 178.20 160.20 177.43 C 159.83 176.65 158.89 176.33 158.12 176.70 Z M 157.21 177.14 L 156.25 177.58 C 155.47 177.94 155.12 178.86 155.48 179.65 C 155.83 180.43 156.76 180.78 157.54 180.42 L 158.51 179.98 C 159.29 179.63 159.64 178.70 159.28 177.92 C 158.92 177.13 158.00 176.78 157.21 177.14 Z M 156.29 177.56 L 155.38 177.95 C 154.58 178.28 154.21 179.20 154.54 179.99 C 154.88 180.79 155.80 181.16 156.59 180.82 L 157.50 180.44 C 158.30 180.10 158.67 179.19 158.34 178.39 C 158.00 177.60 157.09 177.23 156.29 177.56 Z M 155.43 177.93 L 154.54 178.27 C 153.73 178.57 153.33 179.48 153.64 180.28 C 153.95 181.09 154.85 181.49 155.65 181.18 L 156.54 180.84 C 157.35 180.54 157.75 179.63 157.44 178.83 C 157.13 178.02 156.23 177.62 155.43 177.93 Z M 154.60 178.24 L 153.69 178.55 C 152.87 178.83 152.43 179.71 152.71 180.53 C 152.98 181.35 153.87 181.79 154.68 181.51 L 155.59 181.20 C 156.41 180.93 156.85 180.04 156.58 179.23 C 156.30 178.41 155.42 177.97 154.60 178.24 Z M 153.76 178.53 L 152.81 178.80 C 151.98 179.03 151.50 179.90 151.74 180.73 C 151.98 181.56 152.84 182.04 153.67 181.80 L 154.61 181.53 C 155.44 181.30 155.92 180.43 155.69 179.60 C 155.45 178.77 154.59 178.29 153.76 178.53 Z M 152.89 178.78 L 151.90 179.01 C 151.06 179.20 150.53 180.04 150.73 180.88 C 150.92 181.72 151.76 182.24 152.60 182.05 L 153.59 181.82 C 154.43 181.63 154.96 180.79 154.76 179.95 C 154.57 179.11 153.73 178.58 152.89 178.78 Z M 151.98 178.99 L 150.93 179.18 C 150.08 179.33 149.51 180.14 149.66 180.99 C 149.81 181.84 150.62 182.40 151.47 182.25 L 152.52 182.07 C 153.37 181.92 153.94 181.11 153.79 180.26 C 153.64 179.41 152.83 178.84 151.98 178.99 Z M 151.00 179.17 L 149.98 179.29 C 149.13 179.40 148.52 180.18 148.63 181.04 C 148.74 181.90 149.52 182.50 150.38 182.39 L 151.39 182.26 C 152.25 182.16 152.85 181.37 152.75 180.52 C 152.64 179.66 151.86 179.06 151.00 179.17 Z M 150.05 179.29 L 149.07 179.37 C 148.21 179.44 147.57 180.20 147.64 181.06 C 147.71 181.91 148.47 182.55 149.33 182.48 L 150.31 182.40 C 151.17 182.33 151.81 181.57 151.74 180.71 C 151.67 179.85 150.91 179.22 150.05 179.29 Z M 149.13 179.37 L 148.12 179.41 C 147.26 179.45 146.59 180.17 146.62 181.04 C 146.66 181.90 147.39 182.57 148.25 182.53 L 149.26 182.49 C 150.13 182.45 150.79 181.72 150.76 180.86 C 150.72 180.00 149.99 179.33 149.13 179.37 Z M 148.18 179.41 L 147.15 179.41 C 146.29 179.41 145.59 180.11 145.59 180.97 C 145.60 181.83 146.30 182.53 147.16 182.53 L 148.19 182.53 C 149.05 182.53 149.75 181.83 149.74 180.97 C 149.74 180.10 149.04 179.41 148.18 179.41 Z M 147.22 179.41 L 146.20 179.37 C 145.34 179.33 144.61 180.00 144.57 180.86 C 144.53 181.72 145.20 182.45 146.06 182.49 L 147.09 182.53 C 147.95 182.57 148.68 181.90 148.72 181.04 C 148.75 180.18 148.08 179.45 147.22 179.41 Z M 146.27 179.37 L 145.27 179.28 C 144.41 179.20 143.65 179.83 143.57 180.69 C 143.49 181.55 144.12 182.31 144.98 182.39 L 145.99 182.48 C 146.84 182.56 147.60 181.93 147.68 181.07 C 147.76 180.21 147.13 179.45 146.27 179.37 Z M 145.35 179.29 L 144.38 179.14 C 143.53 179.02 142.73 179.60 142.60 180.46 C 142.48 181.31 143.06 182.10 143.92 182.23 L 144.89 182.38 C 145.74 182.50 146.54 181.92 146.67 181.06 C 146.79 180.21 146.21 179.42 145.35 179.29 Z M 144.49 179.16 L 143.48 178.94 C 142.64 178.75 141.81 179.28 141.62 180.13 C 141.43 180.97 141.96 181.80 142.81 181.99 L 143.81 182.21 C 144.65 182.40 145.49 181.87 145.67 181.03 C 145.86 180.18 145.33 179.35 144.49 179.16 Z M 143.61 178.97 L 142.53 178.64 C 141.71 178.38 140.83 178.84 140.58 179.66 C 140.32 180.48 140.78 181.36 141.60 181.62 L 142.68 181.95 C 143.50 182.21 144.38 181.75 144.63 180.93 C 144.89 180.11 144.43 179.23 143.61 178.97 Z M 142.66 178.68 L 141.67 178.28 C 140.87 177.95 139.96 178.33 139.63 179.13 C 139.31 179.93 139.69 180.84 140.49 181.17 L 141.47 181.57 C 142.27 181.90 143.18 181.51 143.51 180.72 C 143.84 179.92 143.45 179.01 142.66 178.68 Z M 141.78 178.33 L 140.88 177.88 C 140.11 177.50 139.17 177.81 138.78 178.58 C 138.40 179.35 138.72 180.29 139.49 180.67 L 140.38 181.12 C 141.16 181.50 142.09 181.19 142.48 180.42 C 142.86 179.65 142.55 178.71 141.78 178.33 Z M 140.96 177.92 L 140.15 177.46 C 139.41 177.03 138.45 177.28 138.02 178.03 C 137.59 178.77 137.84 179.73 138.59 180.16 L 139.40 180.63 C 140.15 181.06 141.10 180.80 141.53 180.06 C 141.97 179.31 141.71 178.36 140.96 177.92 Z M 140.22 177.50 L 139.49 177.03 C 138.76 176.56 137.80 176.77 137.33 177.50 C 136.86 178.22 137.07 179.19 137.80 179.65 L 138.53 180.12 C 139.25 180.59 140.22 180.38 140.68 179.65 C 141.15 178.93 140.94 177.96 140.22 177.50 Z M 139.53 177.06 L 138.68 176.46 C 137.97 175.97 137.00 176.15 136.51 176.85 C 136.01 177.56 136.19 178.53 136.90 179.03 L 137.75 179.62 C 138.46 180.11 139.43 179.94 139.92 179.23 C 140.42 178.52 140.24 177.55 139.53 177.06 Z M 138.73 176.50 L 137.89 175.87 C 137.20 175.35 136.22 175.48 135.70 176.17 C 135.18 176.86 135.32 177.84 136.01 178.36 L 136.85 178.99 C 137.54 179.51 138.52 179.37 139.03 178.69 C 139.55 178.00 139.42 177.02 138.73 176.50 Z M 137.94 175.91 L 137.21 175.30 C 136.54 174.76 135.56 174.85 135.01 175.52 C 134.46 176.18 134.56 177.17 135.22 177.72 L 135.96 178.32 C 136.62 178.87 137.61 178.77 138.16 178.10 C 138.70 177.44 138.61 176.46 137.94 175.91 Z M 137.25 175.34 L 136.58 174.74 C 135.93 174.17 134.94 174.23 134.37 174.88 C 133.80 175.52 133.86 176.51 134.51 177.08 L 135.18 177.68 C 135.83 178.25 136.81 178.19 137.38 177.54 C 137.96 176.90 137.90 175.91 137.25 175.34 Z M 136.61 174.77 L 135.89 174.10 C 135.26 173.51 134.27 173.54 133.68 174.17 C 133.09 174.80 133.12 175.79 133.75 176.38 L 134.47 177.05 C 135.10 177.64 136.09 177.61 136.68 176.98 C 137.27 176.35 137.24 175.36 136.61 174.77 Z M 135.91 174.12 L 135.20 173.42 C 134.58 172.82 133.60 172.83 132.99 173.44 C 132.39 174.06 132.40 175.04 133.01 175.65 L 133.72 176.35 C 134.34 176.95 135.33 176.95 135.93 176.33 C 136.54 175.72 136.53 174.73 135.91 174.12 Z M 135.23 173.45 L 134.53 172.73 C 133.93 172.11 132.94 172.09 132.32 172.69 C 131.70 173.29 131.69 174.28 132.29 174.90 L 132.98 175.62 C 133.58 176.24 134.57 176.26 135.19 175.66 C 135.81 175.06 135.83 174.07 135.23 173.45 Z M 134.56 172.76 L 133.88 172.02 C 133.30 171.39 132.31 171.34 131.68 171.93 C 131.04 172.51 131.00 173.50 131.58 174.13 L 132.26 174.87 C 132.84 175.51 133.83 175.55 134.46 174.97 C 135.10 174.38 135.14 173.40 134.56 172.76 Z M 133.91 172.05 L 133.25 171.30 C 132.68 170.65 131.70 170.58 131.05 171.14 C 130.40 171.71 130.33 172.70 130.90 173.35 L 131.55 174.10 C 132.12 174.75 133.11 174.82 133.76 174.25 C 134.41 173.69 134.47 172.70 133.91 172.05 Z M 133.27 171.32 L 132.64 170.56 C 132.09 169.89 131.10 169.80 130.44 170.35 C 129.77 170.90 129.68 171.89 130.24 172.55 L 130.87 173.32 C 131.42 173.98 132.41 174.07 133.07 173.52 C 133.73 172.97 133.82 171.99 133.27 171.32 Z M 132.66 170.58 L 132.05 169.82 C 131.51 169.14 130.53 169.03 129.85 169.57 C 129.18 170.11 129.07 171.09 129.61 171.77 L 130.22 172.53 C 130.75 173.20 131.74 173.31 132.41 172.77 C 133.08 172.24 133.19 171.25 132.66 170.58 Z M 132.07 169.84 L 131.51 169.11 C 130.99 168.43 130.01 168.30 129.32 168.82 C 128.64 169.35 128.51 170.33 129.03 171.01 L 129.59 171.74 C 130.11 172.43 131.09 172.56 131.78 172.03 C 132.46 171.51 132.59 170.53 132.07 169.84 Z M 131.53 169.15 L 130.96 168.36 C 130.46 167.66 129.48 167.50 128.79 168.01 C 128.09 168.51 127.93 169.49 128.43 170.19 L 129.00 170.98 C 129.51 171.67 130.48 171.83 131.18 171.33 C 131.88 170.82 132.04 169.85 131.53 169.15 Z M 130.99 168.40 L 130.40 167.51 C 129.91 166.80 128.94 166.61 128.23 167.09 C 127.51 167.58 127.32 168.55 127.81 169.26 L 128.41 170.15 C 128.89 170.86 129.86 171.05 130.57 170.57 C 131.29 170.08 131.48 169.11 130.99 168.40 Z M 130.42 167.55 L 129.88 166.69 C 129.41 165.97 128.45 165.75 127.72 166.21 C 126.99 166.67 126.78 167.64 127.24 168.36 L 127.78 169.22 C 128.24 169.95 129.21 170.17 129.94 169.71 C 130.67 169.24 130.88 168.28 130.42 167.55 Z M 129.90 166.73 L 129.39 165.89 C 128.95 165.15 127.99 164.91 127.25 165.35 C 126.51 165.79 126.27 166.75 126.71 167.49 L 127.22 168.33 C 127.66 169.07 128.62 169.31 129.36 168.87 C 130.10 168.42 130.34 167.47 129.90 166.73 Z M 129.41 165.92 L 128.91 165.03 C 128.48 164.28 127.53 164.02 126.78 164.44 C 126.03 164.86 125.77 165.82 126.19 166.57 L 126.69 167.46 C 127.12 168.21 128.07 168.47 128.82 168.05 C 129.57 167.62 129.84 166.67 129.41 165.92 Z M 128.93 165.07 L 128.45 164.16 C 128.05 163.40 127.10 163.10 126.34 163.51 C 125.58 163.91 125.29 164.85 125.69 165.62 L 126.17 166.53 C 126.57 167.29 127.52 167.58 128.28 167.18 C 129.04 166.78 129.33 165.83 128.93 165.07 Z M 128.47 164.21 L 128.03 163.30 C 127.66 162.52 126.72 162.19 125.95 162.57 C 125.17 162.95 124.85 163.88 125.22 164.65 L 125.66 165.57 C 126.04 166.34 126.97 166.67 127.75 166.29 C 128.52 165.92 128.85 164.98 128.47 164.21 Z M 128.06 163.36 L 127.66 162.41 C 127.32 161.62 126.40 161.25 125.61 161.59 C 124.81 161.93 124.45 162.84 124.79 163.64 L 125.19 164.59 C 125.53 165.38 126.45 165.75 127.24 165.41 C 128.03 165.07 128.40 164.15 128.06 163.36 Z M 127.69 162.49 L 127.35 161.55 C 127.05 160.74 126.16 160.32 125.35 160.61 C 124.54 160.90 124.12 161.80 124.41 162.61 L 124.75 163.55 C 125.05 164.37 125.94 164.78 126.75 164.49 C 127.56 164.20 127.98 163.30 127.69 162.49 Z M 127.38 161.64 L 127.10 160.70 C 126.86 159.87 125.99 159.40 125.16 159.64 C 124.34 159.88 123.86 160.75 124.10 161.57 L 124.38 162.52 C 124.62 163.34 125.49 163.82 126.32 163.58 C 127.14 163.33 127.62 162.47 127.38 161.64 Z M 127.13 160.79 L 126.91 159.84 C 126.72 159.00 125.89 158.47 125.05 158.66 C 124.20 158.85 123.68 159.68 123.86 160.52 L 124.08 161.48 C 124.27 162.32 125.10 162.85 125.94 162.66 C 126.79 162.47 127.31 161.64 127.13 160.79 Z M 126.93 159.93 L 126.77 158.97 C 126.64 158.12 125.84 157.54 124.99 157.67 C 124.13 157.81 123.55 158.61 123.69 159.46 L 123.85 160.43 C 123.98 161.28 124.78 161.86 125.63 161.72 C 126.49 161.58 127.07 160.78 126.93 159.93 Z M 126.78 159.05 L 126.68 158.08 C 126.59 157.22 125.82 156.60 124.96 156.69 C 124.10 156.79 123.48 157.56 123.58 158.41 L 123.68 159.38 C 123.77 160.24 124.54 160.86 125.40 160.77 C 126.26 160.67 126.88 159.90 126.78 159.05 Z M 126.68 158.13 L 126.61 157.14 C 126.55 156.28 125.81 155.63 124.95 155.69 C 124.09 155.75 123.44 156.50 123.50 157.36 L 123.57 158.36 C 123.63 159.22 124.38 159.86 125.24 159.80 C 126.10 159.74 126.75 158.99 126.68 158.13 Z M 126.62 157.18 L 126.57 156.16 C 126.53 155.30 125.80 154.64 124.94 154.68 C 124.07 154.72 123.41 155.45 123.45 156.31 L 123.50 157.32 C 123.54 158.18 124.27 158.85 125.13 158.81 C 125.99 158.77 126.66 158.04 126.62 157.18 Z M 126.57 156.18 L 126.53 155.16 C 126.51 154.30 125.78 153.62 124.92 153.65 C 124.06 153.68 123.38 154.40 123.41 155.27 L 123.45 156.29 C 123.48 157.15 124.20 157.83 125.06 157.80 C 125.92 157.77 126.60 157.04 126.57 156.18 Z M 126.53 155.17 L 126.53 154.93 C 126.50 154.07 125.78 153.39 124.92 153.42 C 124.06 153.45 123.38 154.17 123.41 155.03 L 123.41 155.26 C 123.44 156.12 124.16 156.80 125.02 156.77 C 125.88 156.75 126.56 156.03 126.53 155.17 Z"
      fill="black"
      fill-rule="nonzero" /></svg>