<svg xmlns="http://www.w3.org/2000/svg" width="300" height="300" viewBox="0 0 300 300">
<path d="M 129.19 170.95 L 128.30 170.45 C 127.55 170.03 126.60 170.30 126.18 171.05 C 125.75 171.80 126.02 172.76 126.77 173.18 L 127.67 173.68 C 128.42 174.10 129.37 173.83 129.79 173.08 C 130.21 172.32 129.94 171.37 129.19 170.95 Z M 128.35 170.48 L 127.48 169.96 C 126.75 169.51 125.79 169.74 125.34 170.48 C 124.89 171.22 125.13 172.18 125.86 172.63 L 126.73 173.15 C 127.46 173.60 128.42 173.36 128.87 172.62 C 129.32 171.89 129.08 170.93 128.35 170.48 Z M 127.58 170.02 L 126.77 169.45 C 126.07 168.95 125.10 169.11 124.60 169.82 C 124.10 170.52 124.26 171.49 124.97 171.99 L 125.77 172.56 C 126.47 173.06 127.45 172.90 127.95 172.19 C 128.45 171.49 128.28 170.52 127.58 170.02 Z M 126.91 169.56 L 126.18 168.90 C 125.54 168.32 124.55 168.37 123.97 169.01 C 123.40 169.66 123.45 170.64 124.09 171.22 L 124.83 171.88 C 125.47 172.46 126.45 172.40 127.03 171.76 C 127.61 171.12 127.55 170.13 126.91 169.56 Z M 126.33 169.06 L 125.68 168.27 C 125.13 167.61 124.14 167.52 123.48 168.07 C 122.82 168.62 122.73 169.61 123.28 170.27 L 123.93 171.06 C 124.49 171.72 125.47 171.81 126.13 171.26 C 126.80 170.71 126.89 169.72 126.33 169.06 Z M 125.81 168.45 L 125.28 167.60 C 124.83 166.87 123.87 166.64 123.13 167.09 C 122.40 167.55 122.17 168.51 122.63 169.24 L 123.15 170.09 C 123.60 170.83 124.57 171.05 125.30 170.60 C 126.03 170.15 126.26 169.18 125.81 168.45 Z M 125.38 167.79 L 124.99 166.90 C 124.64 166.11 123.71 165.76 122.93 166.11 C 122.14 166.46 121.78 167.38 122.13 168.17 L 122.53 169.05 C 122.88 169.84 123.80 170.20 124.59 169.85 C 125.37 169.50 125.73 168.58 125.38 167.79 Z M 125.06 167.11 L 124.79 166.16 C 124.55 165.33 123.69 164.85 122.86 165.09 C 122.03 165.32 121.55 166.19 121.79 167.02 L 122.06 167.96 C 122.30 168.79 123.16 169.27 123.99 169.04 C 124.82 168.80 125.30 167.93 125.06 167.11 Z M 124.83 166.36 L 124.69 165.39 C 124.56 164.54 123.77 163.95 122.92 164.07 C 122.07 164.20 121.48 164.99 121.60 165.84 L 121.74 166.82 C 121.87 167.67 122.66 168.26 123.52 168.13 C 124.37 168.01 124.96 167.21 124.83 166.36 Z M 124.71 165.55 L 124.66 164.54 C 124.63 163.68 123.90 163.01 123.04 163.05 C 122.18 163.08 121.51 163.81 121.55 164.67 L 121.59 165.68 C 121.62 166.54 122.35 167.21 123.21 167.18 C 124.07 167.14 124.74 166.41 124.71 165.55 Z M 124.67 164.65 L 124.69 163.72 C 124.72 162.86 124.04 162.14 123.18 162.11 C 122.32 162.09 121.60 162.76 121.57 163.62 L 121.54 164.56 C 121.52 165.42 122.20 166.14 123.06 166.17 C 123.92 166.19 124.64 165.52 124.67 164.65 Z M 124.69 163.83 L 124.78 162.90 C 124.87 162.05 124.24 161.28 123.39 161.19 C 122.53 161.11 121.76 161.73 121.67 162.59 L 121.58 163.51 C 121.49 164.37 122.12 165.14 122.97 165.22 C 123.83 165.31 124.60 164.69 124.69 163.83 Z M 124.76 163.05 L 124.95 162.06 C 125.12 161.22 124.57 160.40 123.72 160.23 C 122.88 160.06 122.06 160.61 121.89 161.46 L 121.70 162.44 C 121.53 163.29 122.08 164.11 122.93 164.28 C 123.77 164.44 124.59 163.89 124.76 163.05 Z M 124.91 162.22 L 125.24 161.17 C 125.50 160.35 125.04 159.47 124.21 159.22 C 123.39 158.96 122.51 159.42 122.26 160.24 L 121.93 161.30 C 121.67 162.12 122.13 163.00 122.96 163.25 C 123.78 163.51 124.66 163.05 124.91 162.22 Z M 125.19 161.31 L 125.58 160.39 C 125.91 159.60 125.54 158.68 124.75 158.35 C 123.95 158.01 123.04 158.38 122.70 159.18 L 122.31 160.10 C 121.98 160.89 122.35 161.81 123.14 162.15 C 123.94 162.48 124.85 162.11 125.19 161.31 Z M 125.53 160.49 L 125.99 159.59 C 126.38 158.82 126.07 157.88 125.30 157.49 C 124.53 157.10 123.59 157.41 123.20 158.18 L 122.75 159.08 C 122.36 159.85 122.67 160.79 123.44 161.18 C 124.21 161.57 125.15 161.26 125.53 160.49 Z M 125.95 159.65 L 126.46 158.75 C 126.88 158.00 126.62 157.05 125.87 156.62 C 125.12 156.20 124.17 156.47 123.74 157.22 L 123.23 158.12 C 122.81 158.87 123.07 159.82 123.83 160.24 C 124.58 160.67 125.53 160.40 125.95 159.65 Z M 126.43 158.80 L 126.97 157.92 C 127.42 157.19 127.19 156.23 126.45 155.78 C 125.72 155.33 124.76 155.56 124.30 156.29 L 123.77 157.17 C 123.32 157.90 123.55 158.87 124.29 159.32 C 125.02 159.77 125.98 159.53 126.43 158.80 Z M 126.95 157.96 L 127.48 157.14 C 127.95 156.42 127.74 155.45 127.02 154.98 C 126.30 154.51 125.33 154.71 124.86 155.44 L 124.33 156.26 C 123.86 156.98 124.06 157.95 124.79 158.42 C 125.51 158.89 126.48 158.68 126.95 157.96 Z M 127.46 157.17 L 128.06 156.29 C 128.55 155.58 128.37 154.61 127.65 154.12 C 126.94 153.63 125.97 153.81 125.48 154.53 L 124.88 155.41 C 124.40 156.12 124.58 157.09 125.29 157.58 C 126.00 158.06 126.97 157.88 127.46 157.17 Z M 128.04 156.32 L 128.63 155.50 C 129.14 154.80 128.98 153.82 128.28 153.32 C 127.58 152.81 126.60 152.97 126.10 153.67 L 125.51 154.50 C 125.00 155.20 125.16 156.17 125.86 156.67 C 126.56 157.18 127.54 157.02 128.04 156.32 Z M 128.62 155.52 L 129.19 154.75 C 129.71 154.06 129.57 153.08 128.88 152.57 C 128.19 152.05 127.21 152.19 126.69 152.88 L 126.12 153.65 C 125.60 154.34 125.74 155.32 126.43 155.83 C 127.12 156.35 128.10 156.21 128.62 155.52 Z M 129.18 154.77 L 129.76 154.01 C 130.28 153.32 130.15 152.34 129.47 151.82 C 128.78 151.30 127.80 151.43 127.28 152.11 L 126.70 152.87 C 126.18 153.55 126.31 154.53 126.99 155.06 C 127.68 155.58 128.66 155.45 129.18 154.77 Z M 129.76 154.01 L 130.35 153.24 C 130.87 152.56 130.75 151.58 130.06 151.05 C 129.38 150.53 128.40 150.65 127.87 151.34 L 127.28 152.11 C 126.76 152.79 126.88 153.77 127.57 154.30 C 128.25 154.82 129.23 154.69 129.76 154.01 Z M 130.35 153.24 L 130.96 152.44 C 131.48 151.76 131.35 150.78 130.67 150.25 C 129.98 149.73 129.00 149.86 128.48 150.55 L 127.87 151.34 C 127.35 152.03 127.48 153.01 128.16 153.53 C 128.85 154.05 129.83 153.92 130.35 153.24 Z M 130.96 152.44 L 131.58 151.63 C 132.10 150.95 131.96 149.97 131.28 149.45 C 130.59 148.92 129.61 149.06 129.09 149.74 L 128.48 150.55 C 127.95 151.24 128.09 152.22 128.77 152.74 C 129.46 153.26 130.44 153.13 130.96 152.44 Z M 131.58 151.63 L 132.19 150.83 C 132.71 150.14 132.57 149.16 131.88 148.64 C 131.20 148.12 130.22 148.25 129.70 148.94 L 129.09 149.75 C 128.57 150.43 128.70 151.41 129.39 151.93 C 130.08 152.45 131.06 152.32 131.58 151.63 Z M 132.19 150.82 L 132.78 150.03 C 133.30 149.34 133.16 148.36 132.47 147.85 C 131.78 147.33 130.81 147.47 130.29 148.16 L 129.69 148.95 C 129.18 149.63 129.31 150.61 130.00 151.13 C 130.69 151.65 131.67 151.51 132.19 150.82 Z M 132.79 150.03 L 133.37 149.25 C 133.89 148.56 133.74 147.58 133.05 147.06 C 132.36 146.55 131.39 146.69 130.87 147.38 L 130.28 148.16 C 129.77 148.85 129.91 149.83 130.60 150.34 C 131.29 150.86 132.27 150.72 132.79 150.03 Z M 133.37 149.25 L 133.96 148.46 C 134.48 147.77 134.34 146.79 133.64 146.27 C 132.95 145.76 131.98 145.90 131.46 146.59 L 130.87 147.38 C 130.35 148.07 130.49 149.05 131.18 149.56 C 131.87 150.08 132.85 149.94 133.37 149.25 Z M 133.96 148.46 L 134.57 147.64 C 135.09 146.95 134.95 145.98 134.26 145.46 C 133.57 144.94 132.59 145.08 132.08 145.77 L 131.46 146.59 C 130.94 147.27 131.08 148.25 131.77 148.77 C 132.46 149.29 133.44 149.15 133.96 148.46 Z M 134.57 147.65 L 135.17 146.85 C 135.69 146.17 135.56 145.19 134.87 144.67 C 134.18 144.15 133.20 144.28 132.68 144.97 L 132.08 145.76 C 131.56 146.45 131.69 147.43 132.38 147.95 C 133.07 148.47 134.05 148.34 134.57 147.65 Z M 135.17 146.86 L 135.76 146.08 C 136.29 145.39 136.15 144.41 135.47 143.89 C 134.78 143.36 133.80 143.50 133.28 144.18 L 132.68 144.96 C 132.16 145.65 132.29 146.63 132.98 147.15 C 133.67 147.68 134.65 147.54 135.17 146.86 Z M 135.76 146.08 L 136.38 145.27 C 136.90 144.59 136.77 143.61 136.08 143.08 C 135.40 142.56 134.42 142.69 133.90 143.38 L 133.28 144.18 C 132.76 144.87 132.89 145.85 133.58 146.37 C 134.26 146.89 135.24 146.76 135.76 146.08 Z M 136.38 145.27 L 137.00 144.46 C 137.52 143.77 137.39 142.79 136.70 142.27 C 136.02 141.75 135.04 141.88 134.51 142.57 L 133.89 143.38 C 133.37 144.06 133.50 145.04 134.19 145.57 C 134.88 146.09 135.85 145.96 136.38 145.27 Z M 137.00 144.46 L 137.61 143.65 C 138.13 142.96 138.00 141.98 137.31 141.46 C 136.62 140.94 135.64 141.08 135.12 141.76 L 134.51 142.57 C 133.99 143.26 134.12 144.24 134.81 144.76 C 135.50 145.28 136.48 145.14 137.00 144.46 Z M 137.62 143.64 L 138.25 142.80 C 138.77 142.11 138.63 141.13 137.94 140.61 C 137.25 140.09 136.27 140.23 135.76 140.92 L 135.12 141.77 C 134.60 142.46 134.74 143.44 135.43 143.95 C 136.12 144.47 137.10 144.33 137.62 143.64 Z M 138.25 142.80 L 138.87 141.97 C 139.39 141.28 139.25 140.30 138.56 139.78 C 137.87 139.27 136.89 139.41 136.37 140.10 L 135.75 140.92 C 135.24 141.61 135.38 142.59 136.07 143.11 C 136.76 143.63 137.74 143.49 138.25 142.80 Z M 138.87 141.97 L 139.47 141.18 C 139.99 140.49 139.85 139.51 139.16 138.99 C 138.47 138.47 137.49 138.61 136.98 139.30 L 136.38 140.09 C 135.86 140.78 136.00 141.76 136.68 142.28 C 137.37 142.80 138.35 142.66 138.87 141.97 Z M 139.46 141.19 L 140.04 140.43 C 140.57 139.74 140.43 138.76 139.75 138.24 C 139.06 137.72 138.08 137.85 137.56 138.53 L 136.98 139.29 C 136.46 139.97 136.59 140.95 137.28 141.48 C 137.96 142.00 138.94 141.87 139.46 141.19 Z M 140.03 140.44 L 140.61 139.70 C 141.14 139.03 141.02 138.04 140.34 137.51 C 139.67 136.98 138.68 137.10 138.15 137.78 L 137.57 138.52 C 137.04 139.20 137.16 140.18 137.84 140.71 C 138.52 141.24 139.50 141.12 140.03 140.44 Z M 140.59 139.73 L 141.19 139.00 C 141.73 138.34 141.63 137.35 140.97 136.80 C 140.30 136.26 139.32 136.36 138.77 137.02 L 138.17 137.75 C 137.63 138.42 137.72 139.40 138.39 139.95 C 139.06 140.50 140.04 140.40 140.59 139.73 Z M 141.15 139.04 L 141.79 138.31 C 142.35 137.66 142.29 136.68 141.64 136.11 C 140.99 135.54 140.00 135.61 139.43 136.26 L 138.80 136.99 C 138.23 137.64 138.30 138.62 138.95 139.19 C 139.60 139.76 140.59 139.69 141.15 139.04 Z M 141.75 138.35 L 142.46 137.59 C 143.05 136.96 143.02 135.97 142.39 135.39 C 141.76 134.80 140.77 134.83 140.18 135.46 L 139.47 136.22 C 138.88 136.85 138.92 137.84 139.55 138.43 C 140.18 139.02 141.16 138.98 141.75 138.35 Z M 142.43 137.63 L 143.16 136.89 C 143.77 136.28 143.76 135.29 143.15 134.68 C 142.54 134.07 141.55 134.08 140.95 134.69 L 140.21 135.43 C 139.60 136.04 139.61 137.03 140.22 137.63 C 140.83 138.24 141.82 138.24 142.43 137.63 Z M 143.13 136.92 L 143.83 136.25 C 144.45 135.65 144.47 134.66 143.88 134.04 C 143.28 133.42 142.29 133.40 141.67 133.99 L 140.97 134.66 C 140.35 135.26 140.33 136.25 140.93 136.87 C 141.52 137.49 142.51 137.51 143.13 136.92 Z M 143.80 136.27 L 144.55 135.59 C 145.19 135.01 145.23 134.02 144.65 133.38 C 144.07 132.75 143.08 132.70 142.45 133.28 L 141.70 133.97 C 141.06 134.55 141.02 135.54 141.60 136.17 C 142.18 136.81 143.17 136.85 143.80 136.27 Z M 144.52 135.61 L 145.31 134.94 C 145.96 134.37 146.03 133.38 145.46 132.73 C 144.89 132.08 143.91 132.01 143.26 132.58 L 142.48 133.26 C 141.83 133.82 141.76 134.81 142.32 135.46 C 142.89 136.11 143.87 136.18 144.52 135.61 Z M 145.27 134.97 L 146.06 134.32 C 146.73 133.77 146.83 132.79 146.29 132.12 C 145.74 131.45 144.76 131.35 144.09 131.90 L 143.29 132.55 C 142.63 133.09 142.53 134.08 143.07 134.74 C 143.62 135.41 144.60 135.51 145.27 134.97 Z M 146.02 134.35 L 146.81 133.75 C 147.50 133.23 147.64 132.25 147.12 131.56 C 146.60 130.87 145.62 130.74 144.93 131.26 L 144.13 131.86 C 143.45 132.38 143.31 133.36 143.83 134.05 C 144.35 134.74 145.33 134.87 146.02 134.35 Z M 146.75 133.80 L 147.62 133.21 C 148.33 132.72 148.52 131.75 148.03 131.04 C 147.55 130.33 146.58 130.14 145.86 130.62 L 145.00 131.21 C 144.28 131.70 144.10 132.67 144.58 133.38 C 145.06 134.09 146.04 134.28 146.75 133.80 Z M 147.52 133.27 L 148.38 132.77 C 149.13 132.34 149.39 131.38 148.95 130.64 C 148.52 129.89 147.57 129.63 146.82 130.07 L 145.96 130.56 C 145.21 131.00 144.96 131.95 145.39 132.70 C 145.82 133.44 146.78 133.70 147.52 133.27 Z M 148.26 132.83 L 149.14 132.42 C 149.92 132.05 150.26 131.12 149.90 130.34 C 149.53 129.56 148.60 129.23 147.82 129.59 L 146.94 130.00 C 146.16 130.37 145.82 131.30 146.19 132.08 C 146.55 132.86 147.48 133.20 148.26 132.83 Z M 149.01 132.48 L 149.93 132.15 C 150.74 131.86 151.16 130.96 150.87 130.15 C 150.58 129.34 149.69 128.92 148.87 129.21 L 147.96 129.54 C 147.14 129.83 146.72 130.72 147.01 131.53 C 147.30 132.34 148.19 132.77 149.01 132.48 Z M 149.78 132.19 L 150.75 131.95 C 151.58 131.73 152.09 130.88 151.87 130.05 C 151.66 129.21 150.81 128.71 149.98 128.92 L 149.01 129.16 C 148.18 129.38 147.67 130.23 147.89 131.06 C 148.10 131.90 148.95 132.40 149.78 132.19 Z M 150.61 131.97 L 151.60 131.81 C 152.45 131.68 153.03 130.87 152.89 130.02 C 152.75 129.17 151.95 128.59 151.10 128.73 L 150.11 128.89 C 149.26 129.03 148.68 129.83 148.82 130.68 C 148.96 131.53 149.76 132.11 150.61 131.97 Z M 151.46 131.83 L 152.47 131.76 C 153.33 131.70 153.98 130.95 153.92 130.09 C 153.86 129.23 153.11 128.58 152.25 128.64 L 151.24 128.72 C 150.38 128.78 149.73 129.52 149.79 130.38 C 149.85 131.24 150.60 131.89 151.46 131.83 Z M 152.31 131.76 L 153.32 131.79 C 154.19 131.82 154.91 131.14 154.93 130.28 C 154.96 129.42 154.28 128.70 153.42 128.67 L 152.41 128.64 C 151.55 128.61 150.83 129.29 150.80 130.15 C 150.77 131.02 151.45 131.74 152.31 131.76 Z M 153.14 131.78 L 154.12 131.93 C 154.98 132.06 155.77 131.47 155.90 130.62 C 156.03 129.76 155.44 128.97 154.59 128.84 L 153.61 128.69 C 152.76 128.56 151.96 129.15 151.83 130.00 C 151.70 130.85 152.29 131.65 153.14 131.78 Z M 153.90 131.88 L 154.85 132.17 C 155.68 132.42 156.55 131.96 156.81 131.13 C 157.06 130.31 156.60 129.44 155.77 129.18 L 154.82 128.89 C 153.99 128.64 153.12 129.10 152.86 129.92 C 152.61 130.75 153.08 131.62 153.90 131.88 Z M 154.62 132.07 L 155.55 132.54 C 156.32 132.92 157.25 132.61 157.64 131.84 C 158.02 131.07 157.71 130.13 156.94 129.74 L 156.01 129.28 C 155.24 128.89 154.30 129.21 153.92 129.98 C 153.53 130.75 153.84 131.69 154.62 132.07 Z M 155.35 132.42 L 156.19 133.00 C 156.90 133.49 157.87 133.32 158.36 132.61 C 158.85 131.90 158.68 130.93 157.97 130.44 L 157.13 129.86 C 156.42 129.37 155.45 129.54 154.96 130.25 C 154.47 130.96 154.64 131.93 155.35 132.42 Z M 156.05 132.90 L 156.80 133.55 C 157.45 134.11 158.43 134.05 159.00 133.40 C 159.57 132.75 159.50 131.76 158.85 131.19 L 158.10 130.54 C 157.45 129.98 156.47 130.04 155.90 130.69 C 155.34 131.34 155.40 132.33 156.05 132.90 Z M 156.71 133.46 L 157.36 134.13 C 157.97 134.75 158.95 134.77 159.57 134.17 C 160.19 133.56 160.20 132.58 159.60 131.96 L 158.94 131.28 C 158.34 130.66 157.35 130.65 156.74 131.25 C 156.12 131.85 156.10 132.84 156.71 133.46 Z M 157.30 134.06 L 157.99 134.87 C 158.55 135.52 159.54 135.60 160.19 135.04 C 160.85 134.48 160.92 133.49 160.36 132.84 L 159.67 132.03 C 159.11 131.38 158.12 131.30 157.47 131.86 C 156.81 132.42 156.74 133.41 157.30 134.06 Z M 157.93 134.80 L 158.55 135.61 C 159.07 136.30 160.05 136.43 160.73 135.91 C 161.42 135.39 161.56 134.41 161.03 133.72 L 160.42 132.91 C 159.90 132.22 158.92 132.09 158.23 132.61 C 157.54 133.13 157.41 134.11 157.93 134.80 Z M 158.50 135.54 L 159.04 136.33 C 159.52 137.05 160.49 137.23 161.21 136.75 C 161.92 136.26 162.10 135.29 161.62 134.58 L 161.08 133.79 C 160.60 133.07 159.63 132.89 158.91 133.37 C 158.20 133.86 158.02 134.83 158.50 135.54 Z M 159.01 136.28 L 159.51 137.08 C 159.96 137.81 160.93 138.03 161.66 137.58 C 162.39 137.12 162.61 136.16 162.15 135.42 L 161.65 134.63 C 161.19 133.90 160.23 133.67 159.50 134.13 C 158.77 134.59 158.55 135.55 159.01 136.28 Z M 159.49 137.05 L 159.99 137.90 C 160.43 138.65 161.39 138.89 162.13 138.45 C 162.87 138.01 163.12 137.05 162.68 136.31 L 162.17 135.46 C 161.73 134.72 160.77 134.47 160.03 134.91 C 159.29 135.35 159.05 136.31 159.49 137.05 Z M 159.97 137.87 L 160.46 138.74 C 160.88 139.49 161.83 139.76 162.58 139.34 C 163.33 138.92 163.60 137.97 163.18 137.22 L 162.70 136.35 C 162.28 135.59 161.33 135.33 160.57 135.75 C 159.82 136.17 159.55 137.12 159.97 137.87 Z M 160.44 138.70 L 160.91 139.60 C 161.31 140.36 162.25 140.66 163.02 140.26 C 163.78 139.85 164.07 138.91 163.67 138.15 L 163.20 137.25 C 162.80 136.49 161.86 136.19 161.10 136.60 C 160.33 137.00 160.04 137.94 160.44 138.70 Z M 160.89 139.56 L 161.33 140.45 C 161.71 141.23 162.65 141.55 163.42 141.16 C 164.19 140.78 164.51 139.85 164.13 139.07 L 163.69 138.18 C 163.31 137.41 162.37 137.09 161.60 137.47 C 160.83 137.85 160.51 138.79 160.89 139.56 Z M 161.31 140.42 L 161.74 141.33 C 162.10 142.12 163.03 142.46 163.81 142.09 C 164.59 141.73 164.93 140.80 164.57 140.02 L 164.15 139.11 C 163.78 138.33 162.86 137.99 162.07 138.35 C 161.29 138.71 160.95 139.64 161.31 140.42 Z M 161.72 141.30 L 162.12 142.22 C 162.46 143.01 163.38 143.37 164.17 143.03 C 164.96 142.69 165.33 141.77 164.98 140.98 L 164.59 140.06 C 164.24 139.27 163.32 138.90 162.53 139.24 C 161.74 139.59 161.38 140.51 161.72 141.30 Z M 162.10 142.18 L 162.48 143.11 C 162.80 143.91 163.70 144.30 164.50 143.98 C 165.31 143.66 165.69 142.75 165.37 141.95 L 165.00 141.02 C 164.68 140.22 163.77 139.83 162.97 140.15 C 162.17 140.47 161.78 141.38 162.10 142.18 Z M 162.46 143.07 L 162.80 144.01 C 163.10 144.82 164.00 145.24 164.81 144.94 C 165.62 144.64 166.03 143.75 165.74 142.94 L 165.39 142.00 C 165.09 141.19 164.20 140.77 163.39 141.07 C 162.58 141.36 162.16 142.26 162.46 143.07 Z M 162.79 143.97 L 163.10 144.91 C 163.38 145.73 164.26 146.17 165.08 145.90 C 165.90 145.62 166.34 144.74 166.07 143.92 L 165.75 142.98 C 165.48 142.16 164.59 141.72 163.78 142.00 C 162.96 142.27 162.52 143.15 162.79 143.97 Z M 163.09 144.87 L 163.37 145.78 C 163.62 146.61 164.49 147.07 165.32 146.82 C 166.14 146.57 166.61 145.70 166.36 144.87 L 166.08 143.96 C 165.83 143.14 164.96 142.67 164.13 142.92 C 163.31 143.17 162.84 144.05 163.09 144.87 Z M 163.36 145.74 L 163.59 146.60 C 163.81 147.43 164.67 147.92 165.50 147.69 C 166.34 147.47 166.83 146.61 166.60 145.78 L 166.37 144.92 C 166.14 144.09 165.28 143.60 164.45 143.82 C 163.62 144.05 163.13 144.91 163.36 145.74 Z M 163.57 146.54 L 163.79 147.47 C 163.98 148.31 164.82 148.84 165.66 148.65 C 166.50 148.45 167.02 147.62 166.83 146.78 L 166.62 145.84 C 166.42 145.00 165.59 144.47 164.75 144.66 C 163.91 144.86 163.38 145.69 163.57 146.54 Z M 163.77 147.41 L 163.97 148.48 C 164.13 149.33 164.94 149.89 165.79 149.73 C 166.64 149.58 167.20 148.76 167.04 147.92 L 166.85 146.84 C 166.69 146.00 165.88 145.43 165.03 145.59 C 164.18 145.74 163.62 146.56 163.77 147.41 Z M 163.96 148.42 L 164.11 149.47 C 164.24 150.33 165.03 150.92 165.88 150.79 C 166.74 150.67 167.33 149.88 167.20 149.03 L 167.05 147.97 C 166.93 147.12 166.14 146.53 165.28 146.65 C 164.43 146.78 163.84 147.57 163.96 148.42 Z M 164.11 149.43 L 164.23 150.42 C 164.33 151.28 165.11 151.89 165.96 151.79 C 166.82 151.69 167.43 150.91 167.33 150.05 L 167.21 149.06 C 167.11 148.21 166.33 147.60 165.47 147.70 C 164.62 147.80 164.01 148.58 164.11 149.43 Z M 164.22 150.40 L 164.33 151.43 C 164.42 152.29 165.18 152.91 166.04 152.83 C 166.90 152.74 167.52 151.97 167.44 151.12 L 167.33 150.08 C 167.24 149.22 166.48 148.60 165.62 148.69 C 164.76 148.77 164.14 149.54 164.22 150.40 Z M 164.33 151.41 L 164.42 152.45 C 164.49 153.31 165.25 153.94 166.11 153.87 C 166.97 153.79 167.60 153.03 167.53 152.18 L 167.44 151.14 C 167.36 150.28 166.60 149.64 165.75 149.72 C 164.89 149.79 164.25 150.55 164.33 151.41 Z M 164.42 152.43 L 164.49 153.43 C 164.55 154.29 165.30 154.93 166.16 154.87 C 167.02 154.80 167.67 154.05 167.60 153.19 L 167.53 152.20 C 167.47 151.34 166.72 150.69 165.86 150.76 C 165.00 150.82 164.35 151.57 164.42 152.43 Z M 164.49 153.40 L 164.55 154.44 C 164.60 155.30 165.34 155.95 166.20 155.90 C 167.06 155.85 167.72 155.11 167.67 154.25 L 167.61 153.22 C 167.55 152.36 166.81 151.70 165.95 151.75 C 165.09 151.80 164.44 152.54 164.49 153.40 Z M 164.55 154.40 L 164.59 155.52 C 164.63 156.38 165.35 157.05 166.21 157.02 C 167.07 156.99 167.75 156.26 167.71 155.40 L 167.67 154.28 C 167.64 153.42 166.91 152.75 166.05 152.78 C 165.19 152.82 164.52 153.54 164.55 154.40 Z M 164.59 155.48 L 164.60 156.45 C 164.61 157.31 165.32 158.00 166.18 157.99 C 167.04 157.98 167.73 157.28 167.72 156.41 L 167.71 155.44 C 167.70 154.58 167.00 153.89 166.14 153.90 C 165.27 153.91 164.58 154.62 164.59 155.48 Z M 164.60 156.40 L 164.59 157.28 C 164.57 158.15 165.26 158.86 166.12 158.87 C 166.98 158.89 167.69 158.20 167.71 157.34 L 167.72 156.46 C 167.74 155.60 167.05 154.89 166.19 154.87 C 165.33 154.85 164.62 155.54 164.60 156.40 Z M 164.59 157.24 L 164.54 158.19 C 164.50 159.06 165.17 159.79 166.03 159.83 C 166.89 159.87 167.62 159.20 167.66 158.34 L 167.71 157.39 C 167.75 156.53 167.08 155.79 166.22 155.75 C 165.36 155.71 164.63 156.38 164.59 157.24 Z M 164.55 158.13 L 164.46 159.13 C 164.38 159.98 165.01 160.74 165.87 160.82 C 166.73 160.90 167.49 160.26 167.57 159.40 L 167.66 158.41 C 167.73 157.55 167.10 156.79 166.24 156.71 C 165.38 156.64 164.62 157.27 164.55 158.13 Z M 164.47 159.02 L 164.31 160.00 C 164.18 160.85 164.76 161.65 165.61 161.79 C 166.46 161.92 167.26 161.34 167.40 160.49 L 167.55 159.51 C 167.69 158.66 167.11 157.86 166.26 157.72 C 165.41 157.59 164.61 158.17 164.47 159.02 Z M 164.34 159.87 L 164.10 160.83 C 163.89 161.66 164.40 162.51 165.23 162.72 C 166.07 162.93 166.92 162.43 167.13 161.59 L 167.37 160.63 C 167.58 159.79 167.07 158.94 166.24 158.73 C 165.40 158.52 164.55 159.03 164.34 159.87 Z M 164.14 160.70 L 163.81 161.65 C 163.53 162.46 163.97 163.35 164.78 163.63 C 165.60 163.91 166.49 163.48 166.77 162.66 L 167.09 161.72 C 167.37 160.90 166.94 160.01 166.12 159.73 C 165.31 159.45 164.42 159.89 164.14 160.70 Z M 163.84 161.57 L 163.47 162.50 C 163.14 163.29 163.53 164.20 164.32 164.53 C 165.12 164.85 166.03 164.47 166.36 163.67 L 166.74 162.74 C 167.06 161.94 166.68 161.03 165.88 160.71 C 165.08 160.38 164.17 160.77 163.84 161.57 Z M 163.48 162.45 L 163.10 163.32 C 162.75 164.11 163.11 165.03 163.90 165.38 C 164.68 165.73 165.61 165.37 165.96 164.59 L 166.34 163.71 C 166.69 162.93 166.33 162.00 165.54 161.66 C 164.75 161.31 163.83 161.66 163.48 162.45 Z M 163.12 163.29 L 162.72 164.12 C 162.35 164.89 162.68 165.83 163.46 166.20 C 164.24 166.57 165.17 166.23 165.54 165.45 L 165.94 164.62 C 166.31 163.85 165.98 162.91 165.20 162.54 C 164.42 162.17 163.49 162.51 163.12 163.29 Z M 162.75 164.05 L 162.29 164.94 C 161.88 165.70 162.17 166.64 162.94 167.05 C 163.70 167.45 164.64 167.16 165.05 166.40 L 165.51 165.52 C 165.92 164.75 165.63 163.81 164.86 163.41 C 164.10 163.00 163.16 163.29 162.75 164.05 Z M 162.33 164.87 L 161.75 165.84 C 161.30 166.58 161.55 167.53 162.29 167.98 C 163.03 168.42 163.98 168.18 164.43 167.44 L 165.01 166.47 C 165.45 165.73 165.21 164.77 164.47 164.33 C 163.73 163.88 162.77 164.13 162.33 164.87 Z M 161.78 165.78 L 161.29 166.53 C 160.81 167.25 161.02 168.22 161.74 168.69 C 162.46 169.17 163.42 168.97 163.90 168.24 L 164.39 167.49 C 164.86 166.77 164.66 165.80 163.94 165.33 C 163.22 164.86 162.25 165.06 161.78 165.78 Z M 161.31 166.49 L 160.76 167.29 C 160.26 168.00 160.43 168.97 161.14 169.46 C 161.85 169.96 162.82 169.79 163.31 169.08 L 163.87 168.28 C 164.37 167.58 164.19 166.60 163.49 166.11 C 162.78 165.61 161.81 165.79 161.31 166.49 Z M 160.78 167.26 L 160.17 168.08 C 159.66 168.77 159.80 169.75 160.50 170.26 C 161.19 170.78 162.17 170.63 162.68 169.94 L 163.29 169.12 C 163.80 168.42 163.66 167.44 162.96 166.93 C 162.27 166.42 161.29 166.56 160.78 167.26 Z M 160.20 168.04 L 159.55 168.87 C 159.02 169.55 159.13 170.53 159.81 171.06 C 160.49 171.60 161.47 171.48 162.00 170.80 L 162.65 169.97 C 163.19 169.29 163.07 168.31 162.39 167.78 C 161.71 167.25 160.73 167.37 160.20 168.04 Z M 159.58 168.84 L 158.90 169.65 C 158.35 170.31 158.44 171.30 159.10 171.85 C 159.77 172.40 160.75 172.31 161.30 171.65 L 161.98 170.83 C 162.53 170.17 162.44 169.19 161.77 168.63 C 161.11 168.08 160.13 168.17 159.58 168.84 Z M 158.93 169.61 L 158.23 170.40 C 157.66 171.05 157.72 172.03 158.37 172.61 C 159.01 173.18 160.00 173.12 160.57 172.47 L 161.27 171.68 C 161.84 171.04 161.78 170.05 161.14 169.48 C 160.49 168.91 159.50 168.97 158.93 169.61 Z M 158.27 170.36 L 157.56 171.11 C 156.97 171.73 156.99 172.72 157.62 173.32 C 158.24 173.91 159.23 173.89 159.82 173.26 L 160.53 172.51 C 161.13 171.89 161.10 170.90 160.48 170.31 C 159.85 169.71 158.86 169.74 158.27 170.36 Z M 157.60 171.06 L 156.89 171.76 C 156.27 172.36 156.25 173.35 156.85 173.97 C 157.45 174.59 158.44 174.60 159.06 174.00 L 159.78 173.31 C 160.40 172.71 160.41 171.72 159.81 171.10 C 159.21 170.48 158.22 170.46 157.60 171.06 Z M 156.94 171.71 L 156.21 172.35 C 155.57 172.92 155.51 173.91 156.08 174.56 C 156.65 175.20 157.63 175.26 158.28 174.69 L 159.01 174.05 C 159.65 173.48 159.71 172.49 159.14 171.85 C 158.57 171.20 157.58 171.14 156.94 171.71 Z M 156.28 172.30 L 155.53 172.89 C 154.85 173.43 154.74 174.41 155.27 175.08 C 155.81 175.76 156.79 175.88 157.47 175.34 L 158.22 174.75 C 158.89 174.21 159.01 173.23 158.47 172.55 C 157.94 171.88 156.96 171.76 156.28 172.30 Z M 155.62 172.83 L 154.74 173.42 C 154.03 173.91 153.85 174.88 154.33 175.59 C 154.82 176.31 155.79 176.49 156.50 176.00 L 157.38 175.41 C 158.09 174.92 158.27 173.95 157.79 173.24 C 157.30 172.52 156.33 172.34 155.62 172.83 Z M 154.85 173.36 L 153.97 173.85 C 153.22 174.28 152.96 175.23 153.38 175.98 C 153.81 176.73 154.76 176.99 155.51 176.57 L 156.39 176.07 C 157.14 175.65 157.40 174.69 156.98 173.94 C 156.55 173.19 155.60 172.93 154.85 173.36 Z M 154.10 173.79 L 153.22 174.19 C 152.43 174.54 152.08 175.47 152.44 176.25 C 152.79 177.04 153.72 177.39 154.50 177.03 L 155.39 176.63 C 156.17 176.28 156.52 175.35 156.17 174.57 C 155.81 173.78 154.89 173.43 154.10 173.79 Z M 153.36 174.13 L 152.46 174.44 C 151.65 174.71 151.21 175.60 151.49 176.42 C 151.76 177.23 152.65 177.67 153.47 177.39 L 154.36 177.09 C 155.18 176.81 155.62 175.92 155.34 175.11 C 155.06 174.29 154.17 173.86 153.36 174.13 Z M 152.61 174.39 L 151.64 174.62 C 150.80 174.81 150.28 175.65 150.47 176.49 C 150.66 177.33 151.50 177.85 152.34 177.66 L 153.31 177.44 C 154.15 177.24 154.68 176.41 154.49 175.56 C 154.29 174.72 153.45 174.20 152.61 174.39 Z M 151.78 174.59 L 150.80 174.72 C 149.95 174.84 149.35 175.63 149.46 176.48 C 149.58 177.34 150.36 177.93 151.22 177.82 L 152.20 177.69 C 153.06 177.57 153.66 176.78 153.54 175.93 C 153.42 175.07 152.64 174.48 151.78 174.59 Z M 150.91 174.71 L 149.91 174.77 C 149.05 174.83 148.40 175.57 148.45 176.43 C 148.51 177.29 149.25 177.94 150.11 177.89 L 151.11 177.83 C 151.97 177.78 152.62 177.04 152.57 176.18 C 152.51 175.31 151.77 174.66 150.91 174.71 Z M 150.00 174.77 L 149.00 174.78 C 148.14 174.79 147.45 175.49 147.46 176.36 C 147.46 177.22 148.17 177.91 149.03 177.90 L 150.03 177.89 C 150.89 177.89 151.58 177.18 151.57 176.32 C 151.56 175.46 150.86 174.76 150.00 174.77 Z M 149.07 174.78 L 148.11 174.75 C 147.25 174.71 146.53 175.39 146.49 176.25 C 146.46 177.11 147.14 177.83 148.00 177.87 L 148.96 177.90 C 149.82 177.93 150.55 177.26 150.58 176.40 C 150.61 175.54 149.94 174.81 149.07 174.78 Z M 148.21 174.75 L 147.23 174.65 C 146.37 174.57 145.61 175.19 145.52 176.05 C 145.43 176.91 146.06 177.67 146.92 177.76 L 147.90 177.86 C 148.75 177.95 149.52 177.32 149.61 176.46 C 149.69 175.61 149.07 174.84 148.21 174.75 Z M 147.36 174.67 L 146.36 174.49 C 145.51 174.33 144.70 174.89 144.54 175.73 C 144.38 176.58 144.94 177.40 145.79 177.56 L 146.79 177.74 C 147.64 177.90 148.45 177.34 148.61 176.49 C 148.77 175.65 148.21 174.83 147.36 174.67 Z M 146.50 174.52 L 145.54 174.24 C 144.71 174.01 143.84 174.49 143.61 175.31 C 143.37 176.14 143.85 177.01 144.68 177.25 L 145.64 177.52 C 146.47 177.76 147.34 177.28 147.57 176.45 C 147.81 175.62 147.33 174.76 146.50 174.52 Z M 145.66 174.29 L 144.85 173.98 C 144.05 173.67 143.15 174.08 142.84 174.88 C 142.53 175.69 142.94 176.59 143.74 176.90 L 144.55 177.20 C 145.36 177.51 146.26 177.11 146.57 176.30 C 146.87 175.49 146.47 174.59 145.66 174.29 Z M 144.94 174.01 L 144.10 173.63 C 143.32 173.28 142.39 173.62 142.04 174.41 C 141.68 175.19 142.03 176.12 142.81 176.48 L 143.65 176.86 C 144.44 177.21 145.36 176.87 145.72 176.08 C 146.08 175.30 145.73 174.37 144.94 174.01 Z M 144.17 173.67 L 143.29 173.21 C 142.52 172.82 141.58 173.12 141.19 173.89 C 140.79 174.66 141.09 175.60 141.86 175.99 L 142.75 176.44 C 143.51 176.84 144.45 176.53 144.85 175.77 C 145.24 175.00 144.94 174.06 144.17 173.67 Z M 143.33 173.24 L 142.39 172.71 C 141.64 172.29 140.69 172.56 140.27 173.32 C 139.85 174.07 140.12 175.02 140.87 175.44 L 141.82 175.97 C 142.57 176.38 143.52 176.11 143.94 175.36 C 144.36 174.61 144.09 173.66 143.33 173.24 Z M 142.42 172.73 L 141.40 172.14 C 140.66 171.70 139.70 171.95 139.27 172.69 C 138.83 173.44 139.08 174.39 139.83 174.83 L 140.84 175.42 C 141.59 175.86 142.54 175.61 142.98 174.87 C 143.41 174.12 143.16 173.16 142.42 172.73 Z M 141.42 172.14 L 140.61 171.66 C 139.87 171.21 138.91 171.45 138.47 172.19 C 138.02 172.93 138.26 173.89 139.00 174.33 L 139.81 174.82 C 140.55 175.27 141.51 175.03 141.95 174.29 C 142.40 173.55 142.16 172.59 141.42 172.14 Z M 140.62 171.66 L 139.78 171.15 C 139.04 170.70 138.08 170.93 137.63 171.67 C 137.18 172.40 137.41 173.36 138.15 173.81 L 138.99 174.33 C 139.73 174.78 140.69 174.55 141.14 173.81 C 141.59 173.07 141.36 172.11 140.62 171.66 Z M 139.79 171.15 L 138.92 170.62 C 138.19 170.16 137.23 170.39 136.77 171.12 C 136.32 171.85 136.54 172.82 137.27 173.27 L 138.14 173.81 C 138.87 174.26 139.83 174.04 140.29 173.30 C 140.74 172.57 140.52 171.61 139.79 171.15 Z M 138.93 170.62 L 138.06 170.07 C 137.33 169.61 136.36 169.83 135.90 170.56 C 135.44 171.29 135.66 172.26 136.39 172.72 L 137.27 173.27 C 138.00 173.72 138.96 173.50 139.42 172.77 C 139.88 172.05 139.66 171.08 138.93 170.62 Z M 138.06 170.08 L 137.20 169.52 C 136.47 169.06 135.50 169.28 135.04 170.00 C 134.58 170.73 134.79 171.69 135.52 172.16 L 136.39 172.71 C 137.11 173.17 138.08 172.96 138.54 172.23 C 139.00 171.51 138.79 170.54 138.06 170.08 Z M 137.20 169.53 L 136.35 168.98 C 135.63 168.51 134.66 168.72 134.19 169.45 C 133.73 170.17 133.93 171.14 134.66 171.60 L 135.51 172.15 C 136.23 172.62 137.20 172.41 137.67 171.69 C 138.14 170.96 137.93 170.00 137.20 169.53 Z M 136.36 168.99 L 135.54 168.45 C 134.82 167.98 133.85 168.18 133.38 168.90 C 132.91 169.62 133.11 170.59 133.83 171.06 L 134.65 171.60 C 135.37 172.07 136.34 171.87 136.81 171.15 C 137.28 170.43 137.08 169.46 136.36 168.99 Z M 135.55 168.46 L 134.67 167.87 C 133.95 167.39 132.98 167.59 132.50 168.30 C 132.03 169.02 132.22 169.99 132.94 170.47 L 133.82 171.05 C 134.54 171.53 135.51 171.34 135.99 170.62 C 136.46 169.90 136.27 168.93 135.55 168.46 Z M 134.69 167.88 L 133.84 167.30 C 133.13 166.82 132.16 167.00 131.67 167.71 C 131.19 168.42 131.37 169.39 132.08 169.88 L 132.92 170.46 C 133.63 170.94 134.61 170.76 135.09 170.05 C 135.58 169.34 135.40 168.37 134.69 167.88 Z M 133.87 167.32 L 133.06 166.75 C 132.36 166.25 131.39 166.41 130.89 167.12 C 130.39 167.82 130.55 168.79 131.25 169.29 L 132.06 169.86 C 132.76 170.36 133.74 170.20 134.24 169.50 C 134.73 168.79 134.57 167.82 133.87 167.32 Z M 133.09 166.77 L 132.31 166.19 C 131.62 165.67 130.64 165.82 130.13 166.51 C 129.61 167.20 129.76 168.18 130.45 168.69 L 131.23 169.27 C 131.92 169.79 132.90 169.64 133.41 168.95 C 133.93 168.26 133.78 167.28 133.09 166.77 Z M 132.35 166.21 L 131.58 165.61 C 130.91 165.08 129.92 165.20 129.39 165.88 C 128.86 166.55 128.97 167.53 129.65 168.07 L 130.42 168.67 C 131.09 169.20 132.07 169.08 132.61 168.41 C 133.14 167.73 133.02 166.75 132.35 166.21 Z M 131.62 165.64 L 130.86 165.01 C 130.20 164.46 129.21 164.55 128.66 165.21 C 128.11 165.87 128.20 166.85 128.86 167.41 L 129.62 168.04 C 130.28 168.59 131.26 168.50 131.82 167.84 C 132.37 167.18 132.28 166.19 131.62 165.64 Z M 130.89 165.04 L 130.18 164.41 C 129.53 163.84 128.54 163.90 127.97 164.54 C 127.40 165.19 127.46 166.18 128.11 166.75 L 128.82 167.38 C 129.47 167.95 130.46 167.89 131.03 167.24 C 131.60 166.59 131.54 165.61 130.89 165.04 Z M 130.20 164.43 L 129.50 163.78 C 128.87 163.19 127.88 163.23 127.29 163.86 C 126.71 164.49 126.74 165.48 127.38 166.07 L 128.08 166.72 C 128.72 167.31 129.70 167.27 130.29 166.64 C 130.88 166.00 130.84 165.02 130.20 164.43 Z M 129.52 163.80 L 128.81 163.11 C 128.18 162.52 127.20 162.54 126.60 163.16 C 126.00 163.78 126.02 164.77 126.64 165.37 L 127.36 166.05 C 127.98 166.65 128.97 166.63 129.56 166.00 C 130.16 165.38 130.14 164.39 129.52 163.80 Z M 128.82 163.13 L 128.10 162.42 C 127.49 161.81 126.50 161.82 125.90 162.44 C 125.29 163.05 125.30 164.04 125.91 164.64 L 126.63 165.35 C 127.24 165.96 128.23 165.95 128.84 165.34 C 129.44 164.72 129.44 163.73 128.82 163.13 Z M 128.12 162.43 L 127.40 161.71 C 126.79 161.09 125.80 161.09 125.19 161.70 C 124.58 162.31 124.57 163.30 125.18 163.91 L 125.90 164.63 C 126.51 165.24 127.50 165.25 128.11 164.64 C 128.72 164.03 128.72 163.04 128.12 162.43 Z M 127.40 161.71 L 126.68 160.98 C 126.08 160.36 125.09 160.35 124.47 160.96 C 123.86 161.56 123.85 162.55 124.45 163.16 L 125.17 163.90 C 125.78 164.52 126.77 164.52 127.38 163.92 C 128.00 163.32 128.01 162.33 127.40 161.71 Z M 126.68 160.98 L 125.98 160.25 C 125.37 159.64 124.39 159.62 123.77 160.23 C 123.15 160.83 123.14 161.82 123.74 162.43 L 124.45 163.16 C 125.05 163.78 126.04 163.79 126.65 163.19 C 127.27 162.59 127.28 161.60 126.68 160.98 Z"
      fill="black"
      fill-rule="nonzero" /></svg>