<svg xmlns="http://www.w3.org/2000/svg" width="300" height="300" viewBox="0 0 300 300">
<path d="M 130.64 165.92 L 130.71 164.87 C 130.76 164.01 130.10 163.27 129.24 163.22 C 128.38 163.17 127.64 163.82 127.59 164.68 L 127.53 165.73 C 127.47 166.59 128.13 167.33 128.99 167.38 C 129.85 167.43 130.59 166.78 130.64 165.92 Z M 130.71 164.87 L 130.77 163.84 C 130.82 162.97 130.17 162.23 129.31 162.18 C 128.45 162.13 127.71 162.78 127.65 163.64 L 127.59 164.68 C 127.54 165.54 128.19 166.28 129.05 166.33 C 129.91 166.39 130.65 165.74 130.71 164.87 Z M 130.77 163.84 L 130.84 162.82 C 130.90 161.96 130.25 161.21 129.39 161.16 C 128.53 161.10 127.78 161.75 127.72 162.61 L 127.65 163.63 C 127.60 164.49 128.25 165.24 129.11 165.30 C 129.97 165.35 130.71 164.70 130.77 163.84 Z M 130.84 162.83 L 130.92 161.83 C 130.98 160.97 130.34 160.22 129.48 160.15 C 128.62 160.09 127.87 160.73 127.80 161.59 L 127.73 162.59 C 127.66 163.45 128.30 164.20 129.16 164.27 C 130.02 164.34 130.77 163.69 130.84 162.83 Z M 130.91 161.85 L 131.00 160.88 C 131.08 160.02 130.45 159.26 129.59 159.18 C 128.73 159.11 127.97 159.74 127.89 160.60 L 127.81 161.57 C 127.73 162.43 128.36 163.19 129.22 163.27 C 130.08 163.34 130.84 162.71 130.91 161.85 Z M 131.00 160.90 L 131.10 159.97 C 131.19 159.11 130.57 158.34 129.71 158.25 C 128.85 158.16 128.09 158.78 127.99 159.64 L 127.89 160.57 C 127.80 161.43 128.42 162.20 129.28 162.29 C 130.14 162.38 130.91 161.76 131.00 160.90 Z M 131.10 160.00 L 131.22 159.02 C 131.33 158.16 130.73 157.38 129.88 157.27 C 129.02 157.16 128.24 157.76 128.13 158.62 L 128.00 159.60 C 127.89 160.46 128.49 161.24 129.35 161.35 C 130.20 161.46 130.98 160.86 131.10 160.00 Z M 131.22 159.06 L 131.38 158.05 C 131.51 157.20 130.93 156.40 130.08 156.27 C 129.23 156.13 128.43 156.71 128.29 157.56 L 128.13 158.57 C 128.00 159.42 128.58 160.22 129.43 160.36 C 130.28 160.49 131.08 159.91 131.22 159.06 Z M 131.37 158.10 L 131.55 157.13 C 131.71 156.28 131.15 155.46 130.31 155.30 C 129.46 155.14 128.64 155.70 128.48 156.55 L 128.30 157.52 C 128.14 158.37 128.70 159.18 129.55 159.34 C 130.39 159.50 131.21 158.94 131.37 158.10 Z M 131.54 157.17 L 131.75 156.21 C 131.93 155.37 131.39 154.54 130.55 154.36 C 129.71 154.18 128.88 154.71 128.70 155.56 L 128.49 156.51 C 128.31 157.35 128.85 158.18 129.69 158.36 C 130.53 158.55 131.36 158.01 131.54 157.17 Z M 131.74 156.25 L 131.97 155.29 C 132.17 154.46 131.65 153.61 130.81 153.41 C 129.97 153.21 129.13 153.73 128.93 154.57 L 128.70 155.52 C 128.50 156.36 129.02 157.20 129.86 157.40 C 130.70 157.60 131.54 157.09 131.74 156.25 Z M 131.96 155.32 L 132.21 154.35 C 132.42 153.52 131.92 152.67 131.09 152.45 C 130.25 152.24 129.40 152.74 129.19 153.58 L 128.94 154.54 C 128.72 155.38 129.23 156.23 130.06 156.44 C 130.90 156.66 131.75 156.15 131.96 155.32 Z M 132.20 154.37 L 132.46 153.42 C 132.69 152.59 132.20 151.73 131.36 151.51 C 130.53 151.28 129.67 151.77 129.45 152.60 L 129.19 153.56 C 128.97 154.39 129.46 155.25 130.29 155.47 C 131.12 155.70 131.98 155.21 132.20 154.37 Z M 132.46 153.44 L 132.73 152.47 C 132.97 151.64 132.49 150.78 131.66 150.54 C 130.83 150.30 129.97 150.78 129.73 151.61 L 129.45 152.58 C 129.22 153.41 129.70 154.28 130.53 154.51 C 131.36 154.75 132.22 154.27 132.46 153.44 Z M 132.73 152.50 L 133.02 151.52 C 133.27 150.70 132.81 149.82 131.98 149.57 C 131.16 149.32 130.28 149.79 130.03 150.62 L 129.74 151.59 C 129.49 152.41 129.95 153.29 130.78 153.54 C 131.61 153.79 132.48 153.32 132.73 152.50 Z M 133.01 151.55 L 133.32 150.59 C 133.59 149.77 133.14 148.89 132.32 148.62 C 131.50 148.36 130.62 148.81 130.35 149.63 L 130.04 150.59 C 129.78 151.41 130.23 152.29 131.05 152.55 C 131.87 152.82 132.75 152.37 133.01 151.55 Z M 133.31 150.62 L 133.64 149.68 C 133.92 148.87 133.49 147.98 132.68 147.69 C 131.87 147.41 130.98 147.84 130.69 148.65 L 130.37 149.59 C 130.08 150.41 130.51 151.30 131.33 151.58 C 132.14 151.86 133.03 151.43 133.31 150.62 Z M 133.63 149.72 L 133.99 148.75 C 134.30 147.95 133.90 147.04 133.09 146.74 C 132.29 146.43 131.38 146.84 131.08 147.64 L 130.71 148.61 C 130.40 149.42 130.80 150.32 131.61 150.63 C 132.42 150.93 133.32 150.53 133.63 149.72 Z M 133.97 148.80 L 134.39 147.82 C 134.72 147.03 134.35 146.11 133.55 145.78 C 132.76 145.44 131.84 145.82 131.51 146.61 L 131.10 147.59 C 130.76 148.39 131.14 149.30 131.93 149.64 C 132.73 149.97 133.64 149.60 133.97 148.80 Z M 134.36 147.88 L 134.79 146.95 C 135.16 146.17 134.82 145.24 134.04 144.88 C 133.26 144.51 132.33 144.85 131.96 145.63 L 131.53 146.56 C 131.17 147.34 131.51 148.27 132.29 148.63 C 133.07 149.00 134.00 148.66 134.36 147.88 Z M 134.77 147.01 L 135.21 146.15 C 135.61 145.38 135.31 144.44 134.54 144.04 C 133.78 143.65 132.84 143.95 132.44 144.71 L 131.99 145.58 C 131.60 146.34 131.90 147.28 132.66 147.68 C 133.43 148.08 134.37 147.78 134.77 147.01 Z M 135.18 146.21 L 135.64 145.40 C 136.07 144.65 135.81 143.70 135.07 143.27 C 134.32 142.84 133.36 143.10 132.93 143.85 L 132.47 144.65 C 132.04 145.40 132.30 146.36 133.05 146.78 C 133.80 147.21 134.75 146.96 135.18 146.21 Z M 135.60 145.47 L 136.15 144.62 C 136.61 143.90 136.40 142.93 135.68 142.47 C 134.95 142.00 133.98 142.21 133.52 142.94 L 132.98 143.78 C 132.51 144.51 132.72 145.47 133.44 145.94 C 134.17 146.40 135.14 146.19 135.60 145.47 Z M 136.09 144.70 L 136.70 143.87 C 137.21 143.17 137.05 142.19 136.35 141.69 C 135.66 141.18 134.68 141.33 134.17 142.03 L 133.57 142.86 C 133.06 143.56 133.22 144.53 133.91 145.04 C 134.61 145.55 135.59 145.40 136.09 144.70 Z M 136.64 143.94 L 137.27 143.18 C 137.82 142.52 137.73 141.53 137.06 140.98 C 136.40 140.44 135.41 140.53 134.86 141.19 L 134.23 141.95 C 133.68 142.62 133.78 143.60 134.44 144.15 C 135.11 144.70 136.09 144.61 136.64 143.94 Z M 137.21 143.26 L 137.86 142.55 C 138.45 141.92 138.42 140.94 137.79 140.35 C 137.16 139.76 136.18 139.79 135.59 140.42 L 134.93 141.12 C 134.34 141.75 134.37 142.74 135.00 143.33 C 135.63 143.92 136.62 143.88 137.21 143.26 Z M 137.80 142.62 L 138.52 141.94 C 139.15 141.34 139.18 140.36 138.59 139.73 C 138.00 139.10 137.01 139.07 136.38 139.66 L 135.65 140.35 C 135.03 140.94 135.00 141.93 135.59 142.56 C 136.18 143.18 137.17 143.21 137.80 142.62 Z M 138.45 142.00 L 139.23 141.35 C 139.90 140.80 139.99 139.81 139.44 139.15 C 138.89 138.49 137.90 138.40 137.24 138.95 L 136.45 139.60 C 135.79 140.15 135.70 141.13 136.25 141.80 C 136.80 142.46 137.79 142.55 138.45 142.00 Z M 139.15 141.41 L 139.96 140.82 C 140.66 140.32 140.81 139.34 140.31 138.64 C 139.80 137.95 138.82 137.79 138.13 138.30 L 137.32 138.88 C 136.62 139.39 136.47 140.37 136.97 141.07 C 137.48 141.76 138.46 141.92 139.15 141.41 Z M 139.87 140.88 L 140.69 140.37 C 141.42 139.91 141.64 138.95 141.19 138.22 C 140.73 137.49 139.76 137.27 139.03 137.72 L 138.21 138.24 C 137.48 138.70 137.26 139.66 137.72 140.39 C 138.18 141.12 139.14 141.34 139.87 140.88 Z M 140.59 140.43 L 141.43 139.99 C 142.19 139.59 142.49 138.64 142.09 137.88 C 141.69 137.12 140.74 136.82 139.98 137.22 L 139.14 137.67 C 138.37 138.07 138.08 139.01 138.48 139.77 C 138.88 140.54 139.83 140.83 140.59 140.43 Z M 141.28 140.05 L 142.17 139.70 C 142.97 139.38 143.36 138.47 143.04 137.67 C 142.72 136.87 141.81 136.48 141.01 136.80 L 140.13 137.16 C 139.33 137.48 138.94 138.38 139.26 139.18 C 139.58 139.98 140.48 140.37 141.28 140.05 Z M 141.99 139.76 L 142.97 139.50 C 143.80 139.28 144.30 138.43 144.08 137.59 C 143.86 136.76 143.00 136.26 142.17 136.48 L 141.19 136.74 C 140.36 136.96 139.86 137.81 140.08 138.65 C 140.30 139.48 141.16 139.98 141.99 139.76 Z M 142.79 139.54 L 143.83 139.39 C 144.68 139.27 145.28 138.48 145.16 137.63 C 145.04 136.78 144.25 136.18 143.39 136.30 L 142.35 136.45 C 141.50 136.57 140.90 137.36 141.02 138.21 C 141.14 139.06 141.93 139.66 142.79 139.54 Z M 143.68 139.41 L 144.63 139.36 C 145.49 139.33 146.16 138.60 146.12 137.74 C 146.09 136.88 145.36 136.21 144.50 136.24 L 143.54 136.29 C 142.68 136.32 142.01 137.05 142.05 137.91 C 142.09 138.78 142.82 139.44 143.68 139.41 Z M 144.49 139.36 L 145.50 139.41 C 146.36 139.45 147.09 138.78 147.13 137.92 C 147.17 137.06 146.50 136.33 145.64 136.29 L 144.63 136.24 C 143.77 136.21 143.04 136.87 143.00 137.74 C 142.97 138.60 143.63 139.33 144.49 139.36 Z M 145.35 139.39 L 146.37 139.54 C 147.22 139.66 148.01 139.07 148.13 138.22 C 148.25 137.36 147.66 136.57 146.81 136.45 L 145.79 136.30 C 144.94 136.18 144.15 136.77 144.02 137.63 C 143.90 138.48 144.49 139.27 145.35 139.39 Z M 146.19 139.50 L 147.18 139.77 C 148.01 139.99 148.87 139.49 149.09 138.66 C 149.31 137.82 148.81 136.97 147.98 136.75 L 146.99 136.49 C 146.15 136.27 145.30 136.76 145.08 137.60 C 144.86 138.43 145.35 139.28 146.19 139.50 Z M 146.98 139.70 L 147.84 140.06 C 148.63 140.39 149.55 140.01 149.88 139.22 C 150.21 138.42 149.84 137.51 149.04 137.18 L 148.18 136.82 C 147.38 136.48 146.47 136.86 146.14 137.66 C 145.80 138.45 146.18 139.37 146.98 139.70 Z M 147.64 139.96 L 148.41 140.41 C 149.15 140.85 150.10 140.60 150.54 139.86 C 150.98 139.12 150.74 138.16 150.00 137.72 L 149.23 137.27 C 148.49 136.83 147.54 137.08 147.10 137.82 C 146.66 138.56 146.90 139.52 147.64 139.96 Z M 148.25 140.30 L 148.98 140.87 C 149.67 141.39 150.65 141.26 151.17 140.58 C 151.70 139.90 151.57 138.92 150.88 138.39 L 150.15 137.83 C 149.47 137.30 148.49 137.43 147.96 138.11 C 147.44 138.80 147.57 139.78 148.25 140.30 Z M 148.87 140.77 L 149.59 141.45 C 150.22 142.04 151.21 142.01 151.80 141.38 C 152.39 140.75 152.36 139.76 151.73 139.17 L 151.00 138.49 C 150.37 137.90 149.38 137.93 148.79 138.56 C 148.20 139.19 148.24 140.18 148.87 140.77 Z M 149.51 141.37 L 150.26 142.18 C 150.85 142.81 151.83 142.85 152.47 142.26 C 153.10 141.68 153.14 140.69 152.55 140.06 L 151.81 139.25 C 151.22 138.62 150.23 138.58 149.60 139.17 C 148.97 139.75 148.93 140.74 149.51 141.37 Z M 150.21 142.12 L 150.95 143.00 C 151.51 143.66 152.49 143.75 153.15 143.19 C 153.81 142.64 153.90 141.65 153.34 140.99 L 152.60 140.11 C 152.04 139.45 151.06 139.37 150.40 139.92 C 149.74 140.48 149.66 141.46 150.21 142.12 Z M 150.93 142.97 L 151.54 143.74 C 152.07 144.41 153.06 144.52 153.73 143.98 C 154.40 143.44 154.51 142.46 153.98 141.79 L 153.37 141.02 C 152.83 140.35 151.85 140.24 151.17 140.78 C 150.50 141.32 150.39 142.30 150.93 142.97 Z M 151.52 143.71 L 152.15 144.53 C 152.67 145.21 153.65 145.34 154.34 144.81 C 155.02 144.28 155.15 143.30 154.62 142.62 L 153.99 141.81 C 153.47 141.13 152.49 141.00 151.80 141.53 C 151.12 142.05 150.99 143.03 151.52 143.71 Z M 152.13 144.51 L 152.76 145.35 C 153.28 146.04 154.26 146.18 154.95 145.66 C 155.64 145.14 155.78 144.16 155.26 143.47 L 154.63 142.64 C 154.11 141.95 153.13 141.81 152.45 142.32 C 151.76 142.84 151.62 143.82 152.13 144.51 Z M 152.75 145.34 L 153.37 146.18 C 153.88 146.88 154.86 147.03 155.56 146.52 C 156.25 146.01 156.40 145.03 155.89 144.34 L 155.27 143.49 C 154.76 142.79 153.78 142.64 153.09 143.15 C 152.39 143.66 152.24 144.64 152.75 145.34 Z M 153.37 146.17 L 153.97 147.01 C 154.47 147.71 155.45 147.86 156.15 147.36 C 156.85 146.86 157.01 145.88 156.50 145.18 L 155.90 144.35 C 155.40 143.65 154.42 143.49 153.72 143.99 C 153.02 144.50 152.86 145.47 153.37 146.17 Z M 153.96 147.00 L 154.53 147.80 C 155.03 148.50 156.00 148.67 156.70 148.17 C 157.41 147.67 157.57 146.70 157.08 145.99 L 156.51 145.19 C 156.01 144.49 155.04 144.32 154.33 144.82 C 153.63 145.32 153.46 146.29 153.96 147.00 Z M 154.52 147.79 L 155.04 148.54 C 155.54 149.24 156.51 149.42 157.22 148.92 C 157.92 148.43 158.10 147.46 157.60 146.75 L 157.08 146.00 C 156.59 145.29 155.62 145.12 154.91 145.61 C 154.20 146.11 154.03 147.08 154.52 147.79 Z M 155.04 148.52 L 155.74 149.56 C 156.23 150.27 157.20 150.45 157.91 149.97 C 158.62 149.48 158.81 148.51 158.32 147.80 L 157.61 146.76 C 157.13 146.05 156.15 145.87 155.44 146.35 C 154.73 146.84 154.55 147.81 155.04 148.52 Z M 155.73 149.54 L 156.34 150.45 C 156.82 151.17 157.79 151.37 158.51 150.89 C 159.22 150.41 159.42 149.44 158.94 148.72 L 158.33 147.81 C 157.85 147.09 156.88 146.90 156.17 147.38 C 155.45 147.86 155.25 148.83 155.73 149.54 Z M 156.33 150.44 L 156.84 151.23 C 157.31 151.95 158.28 152.15 159.00 151.68 C 159.73 151.21 159.93 150.24 159.46 149.52 L 158.95 148.74 C 158.48 148.01 157.51 147.81 156.79 148.28 C 156.06 148.75 155.86 149.72 156.33 150.44 Z M 156.84 151.22 L 157.28 151.92 C 157.75 152.64 158.71 152.85 159.44 152.39 C 160.17 151.92 160.38 150.96 159.91 150.23 L 159.47 149.53 C 159.00 148.81 158.03 148.59 157.31 149.06 C 156.58 149.52 156.37 150.49 156.84 151.22 Z M 157.28 151.91 L 157.74 152.63 C 158.20 153.36 159.17 153.57 159.90 153.11 C 160.62 152.64 160.84 151.68 160.37 150.95 L 159.92 150.23 C 159.45 149.51 158.49 149.29 157.76 149.76 C 157.03 150.22 156.82 151.19 157.28 151.91 Z M 157.74 152.64 L 158.25 153.43 C 158.72 154.16 159.69 154.37 160.41 153.90 C 161.14 153.43 161.35 152.47 160.88 151.74 L 160.37 150.95 C 159.90 150.22 158.94 150.01 158.21 150.48 C 157.49 150.95 157.28 151.91 157.74 152.64 Z M 158.26 153.44 L 158.79 154.26 C 159.26 154.98 160.23 155.19 160.95 154.72 C 161.67 154.25 161.88 153.28 161.41 152.56 L 160.88 151.74 C 160.41 151.01 159.44 150.81 158.72 151.28 C 157.99 151.75 157.79 152.71 158.26 153.44 Z M 158.80 154.26 L 159.38 155.16 C 159.86 155.88 160.82 156.08 161.55 155.61 C 162.27 155.13 162.47 154.17 161.99 153.44 L 161.41 152.55 C 160.93 151.83 159.96 151.63 159.24 152.10 C 158.52 152.57 158.32 153.54 158.80 154.26 Z M 159.39 155.16 L 159.92 155.97 C 160.39 156.68 161.36 156.88 162.08 156.41 C 162.80 155.93 163.00 154.96 162.52 154.24 L 161.99 153.44 C 161.51 152.72 160.55 152.52 159.83 153.00 C 159.11 153.48 158.91 154.44 159.39 155.16 Z M 159.92 155.96 L 160.46 156.78 C 160.93 157.50 161.90 157.70 162.62 157.23 C 163.34 156.75 163.54 155.78 163.06 155.06 L 162.52 154.24 C 162.05 153.52 161.08 153.33 160.36 153.80 C 159.64 154.28 159.44 155.24 159.92 155.96 Z M 160.45 156.78 L 161.01 157.63 C 161.48 158.36 162.45 158.56 163.17 158.09 C 163.89 157.62 164.10 156.65 163.63 155.93 L 163.07 155.07 C 162.60 154.35 161.63 154.15 160.91 154.62 C 160.19 155.09 159.98 156.05 160.45 156.78 Z M 161.00 157.62 L 161.56 158.49 C 162.02 159.22 162.98 159.44 163.71 158.98 C 164.44 158.51 164.65 157.55 164.19 156.82 L 163.64 155.95 C 163.17 155.22 162.21 155.00 161.48 155.46 C 160.75 155.93 160.54 156.89 161.00 157.62 Z M 161.54 158.47 L 162.08 159.35 C 162.53 160.09 163.49 160.32 164.23 159.87 C 164.96 159.42 165.19 158.46 164.74 157.72 L 164.21 156.84 C 163.76 156.11 162.80 155.88 162.06 156.33 C 161.32 156.78 161.09 157.74 161.54 158.47 Z M 162.06 159.32 L 162.61 160.26 C 163.04 161.01 163.99 161.26 164.74 160.83 C 165.49 160.40 165.74 159.44 165.31 158.69 L 164.76 157.75 C 164.33 157.01 163.38 156.75 162.63 157.19 C 161.88 157.62 161.63 158.57 162.06 159.32 Z M 162.58 160.22 L 163.07 161.13 C 163.48 161.88 164.42 162.17 165.18 161.76 C 165.94 161.35 166.23 160.41 165.82 159.65 L 165.33 158.74 C 164.92 157.98 163.98 157.69 163.22 158.10 C 162.46 158.51 162.17 159.46 162.58 160.22 Z M 163.04 161.07 L 163.47 161.95 C 163.85 162.72 164.78 163.05 165.56 162.67 C 166.33 162.29 166.65 161.36 166.28 160.58 L 165.85 159.70 C 165.47 158.93 164.54 158.61 163.76 158.98 C 162.99 159.36 162.66 160.29 163.04 161.07 Z M 163.44 161.88 L 163.80 162.72 C 164.14 163.52 165.05 163.88 165.85 163.55 C 166.64 163.21 167.01 162.29 166.67 161.50 L 166.31 160.65 C 165.97 159.86 165.05 159.49 164.26 159.83 C 163.47 160.17 163.10 161.09 163.44 161.88 Z M 163.76 162.63 L 164.10 163.60 C 164.39 164.42 165.28 164.84 166.09 164.56 C 166.90 164.27 167.33 163.38 167.05 162.57 L 166.71 161.59 C 166.42 160.78 165.53 160.35 164.72 160.64 C 163.90 160.92 163.47 161.81 163.76 162.63 Z M 164.06 163.48 L 164.32 164.46 C 164.54 165.29 165.39 165.79 166.23 165.57 C 167.06 165.35 167.56 164.50 167.34 163.67 L 167.08 162.69 C 166.87 161.86 166.01 161.36 165.18 161.58 C 164.34 161.79 163.85 162.65 164.06 163.48 Z M 164.29 164.34 L 164.46 165.29 C 164.62 166.14 165.43 166.70 166.28 166.55 C 167.13 166.40 167.69 165.58 167.54 164.74 L 167.37 163.79 C 167.21 162.94 166.40 162.37 165.55 162.53 C 164.71 162.68 164.14 163.49 164.29 164.34 Z M 164.45 165.18 L 164.55 166.15 C 164.65 167.01 165.42 167.63 166.27 167.53 C 167.13 167.44 167.75 166.67 167.66 165.81 L 167.55 164.84 C 167.46 163.99 166.69 163.37 165.83 163.46 C 164.98 163.55 164.36 164.32 164.45 165.18 Z M 164.55 166.03 L 164.58 167.04 C 164.60 167.90 165.32 168.58 166.18 168.55 C 167.04 168.52 167.72 167.80 167.70 166.94 L 167.67 165.93 C 167.64 165.07 166.92 164.39 166.06 164.42 C 165.20 164.45 164.52 165.17 164.55 166.03 Z M 164.58 166.86 L 164.50 167.85 C 164.43 168.71 165.07 169.47 165.93 169.54 C 166.79 169.60 167.54 168.96 167.61 168.10 L 167.69 167.11 C 167.76 166.25 167.12 165.50 166.26 165.43 C 165.40 165.36 164.65 166.00 164.58 166.86 Z M 164.53 167.63 L 164.32 168.58 C 164.13 169.42 164.65 170.26 165.49 170.45 C 166.33 170.64 167.17 170.12 167.36 169.28 L 167.58 168.33 C 167.77 167.49 167.25 166.65 166.40 166.46 C 165.56 166.27 164.73 166.79 164.53 167.63 Z M 164.39 168.34 L 164.03 169.22 C 163.71 170.02 164.09 170.93 164.89 171.26 C 165.68 171.58 166.60 171.20 166.92 170.40 L 167.28 169.52 C 167.61 168.72 167.23 167.81 166.43 167.48 C 165.63 167.16 164.72 167.54 164.39 168.34 Z M 164.14 169.00 L 163.63 169.85 C 163.18 170.59 163.41 171.55 164.15 172.00 C 164.89 172.44 165.85 172.21 166.30 171.47 L 166.81 170.62 C 167.26 169.88 167.02 168.92 166.29 168.48 C 165.55 168.03 164.59 168.26 164.14 169.00 Z M 163.75 169.67 L 163.08 170.49 C 162.53 171.16 162.63 172.15 163.30 172.69 C 163.97 173.24 164.95 173.14 165.50 172.47 L 166.17 171.65 C 166.72 170.98 166.62 170.00 165.95 169.45 C 165.28 168.91 164.30 169.01 163.75 169.67 Z M 163.20 170.37 L 162.52 171.03 C 161.91 171.63 161.90 172.62 162.50 173.24 C 163.11 173.85 164.10 173.86 164.71 173.26 L 165.38 172.60 C 166.00 171.99 166.01 171.01 165.40 170.39 C 164.80 169.77 163.81 169.77 163.20 170.37 Z M 162.61 170.95 L 161.86 171.58 C 161.20 172.14 161.11 173.12 161.67 173.78 C 162.22 174.44 163.21 174.53 163.87 173.97 L 164.62 173.34 C 165.28 172.78 165.37 171.80 164.81 171.14 C 164.26 170.48 163.27 170.39 162.61 170.95 Z M 161.93 171.53 L 161.11 172.14 C 160.41 172.65 160.27 173.63 160.78 174.32 C 161.30 175.01 162.28 175.16 162.97 174.64 L 163.79 174.03 C 164.48 173.52 164.63 172.54 164.11 171.85 C 163.60 171.16 162.62 171.01 161.93 171.53 Z M 161.17 172.10 L 160.30 172.68 C 159.58 173.16 159.39 174.13 159.88 174.84 C 160.36 175.56 161.33 175.75 162.04 175.27 L 162.91 174.69 C 163.62 174.21 163.81 173.24 163.33 172.52 C 162.85 171.81 161.88 171.61 161.17 172.10 Z M 160.35 172.64 L 159.50 173.17 C 158.77 173.62 158.54 174.58 158.99 175.32 C 159.45 176.05 160.41 176.28 161.14 175.83 L 161.99 175.30 C 162.72 174.85 162.95 173.89 162.50 173.15 C 162.05 172.42 161.09 172.19 160.35 172.64 Z M 159.55 173.14 L 158.68 173.64 C 157.93 174.06 157.67 175.02 158.10 175.77 C 158.52 176.52 159.48 176.78 160.23 176.35 L 161.09 175.85 C 161.84 175.43 162.10 174.47 161.68 173.72 C 161.25 172.97 160.30 172.71 159.55 173.14 Z M 158.72 173.61 L 157.84 174.08 C 157.08 174.48 156.79 175.43 157.19 176.19 C 157.59 176.95 158.54 177.24 159.30 176.84 L 160.18 176.37 C 160.95 175.97 161.24 175.02 160.83 174.26 C 160.43 173.50 159.48 173.21 158.72 173.61 Z M 157.88 174.06 L 156.98 174.50 C 156.21 174.89 155.89 175.82 156.27 176.59 C 156.65 177.37 157.59 177.69 158.36 177.30 L 159.26 176.86 C 160.03 176.48 160.35 175.54 159.97 174.77 C 159.59 174.00 158.65 173.68 157.88 174.06 Z M 157.02 174.49 L 156.09 174.91 C 155.31 175.27 154.96 176.20 155.32 176.98 C 155.68 177.77 156.61 178.11 157.40 177.75 L 158.32 177.32 C 159.11 176.96 159.45 176.03 159.09 175.25 C 158.73 174.47 157.80 174.13 157.02 174.49 Z M 156.14 174.89 L 155.20 175.29 C 154.41 175.62 154.03 176.54 154.37 177.33 C 154.70 178.13 155.62 178.50 156.41 178.16 L 157.35 177.77 C 158.14 177.43 158.52 176.52 158.18 175.72 C 157.85 174.93 156.93 174.56 156.14 174.89 Z M 155.25 175.27 L 154.32 175.62 C 153.51 175.92 153.11 176.83 153.41 177.63 C 153.72 178.44 154.62 178.84 155.43 178.54 L 156.36 178.19 C 157.17 177.88 157.57 176.98 157.27 176.17 C 156.96 175.37 156.06 174.96 155.25 175.27 Z M 154.39 175.60 L 153.46 175.90 C 152.64 176.16 152.20 177.04 152.46 177.86 C 152.73 178.68 153.61 179.13 154.43 178.87 L 155.36 178.56 C 156.18 178.30 156.62 177.42 156.36 176.60 C 156.09 175.78 155.21 175.33 154.39 175.60 Z M 153.55 175.87 L 152.57 176.13 C 151.74 176.35 151.24 177.20 151.46 178.04 C 151.68 178.87 152.53 179.37 153.36 179.15 L 154.35 178.89 C 155.18 178.67 155.68 177.82 155.46 176.98 C 155.24 176.15 154.39 175.65 153.55 175.87 Z M 152.67 176.11 L 151.68 176.30 C 150.84 176.47 150.29 177.29 150.45 178.13 C 150.62 178.98 151.44 179.53 152.28 179.36 L 153.27 179.17 C 154.11 179.00 154.67 178.18 154.50 177.34 C 154.33 176.49 153.51 175.94 152.67 176.11 Z M 151.78 176.28 L 150.80 176.41 C 149.94 176.53 149.34 177.31 149.46 178.17 C 149.57 179.02 150.36 179.62 151.21 179.51 L 152.19 179.38 C 153.04 179.27 153.64 178.48 153.53 177.63 C 153.42 176.77 152.63 176.17 151.78 176.28 Z M 150.88 176.41 L 149.90 176.48 C 149.04 176.55 148.40 177.30 148.47 178.16 C 148.53 179.02 149.28 179.66 150.14 179.59 L 151.12 179.52 C 151.98 179.45 152.63 178.70 152.56 177.84 C 152.50 176.98 151.74 176.34 150.88 176.41 Z M 149.99 176.48 L 149.01 176.50 C 148.15 176.52 147.46 177.23 147.48 178.09 C 147.50 178.96 148.22 179.64 149.08 179.62 L 150.06 179.60 C 150.92 179.58 151.60 178.86 151.58 178.00 C 151.57 177.14 150.85 176.46 149.99 176.48 Z M 149.11 176.50 L 148.12 176.45 C 147.26 176.42 146.53 177.08 146.49 177.94 C 146.45 178.80 147.12 179.53 147.98 179.57 L 148.97 179.62 C 149.83 179.66 150.56 178.99 150.60 178.13 C 150.64 177.27 149.97 176.54 149.11 176.50 Z M 148.25 176.47 L 147.25 176.34 C 146.40 176.22 145.61 176.83 145.50 177.68 C 145.39 178.54 145.99 179.32 146.85 179.43 L 147.85 179.56 C 148.70 179.67 149.49 179.07 149.60 178.22 C 149.71 177.36 149.11 176.58 148.25 176.47 Z M 147.40 176.36 L 146.43 176.14 C 145.59 175.95 144.75 176.47 144.56 177.31 C 144.36 178.15 144.89 178.99 145.73 179.18 L 146.70 179.40 C 147.54 179.60 148.38 179.07 148.57 178.23 C 148.77 177.39 148.24 176.56 147.40 176.36 Z M 146.56 176.18 L 145.65 175.88 C 144.83 175.61 143.95 176.06 143.68 176.87 C 143.41 177.69 143.86 178.58 144.68 178.84 L 145.59 179.14 C 146.41 179.41 147.29 178.96 147.56 178.15 C 147.83 177.33 147.38 176.44 146.56 176.18 Z M 145.75 175.91 L 144.83 175.54 C 144.03 175.21 143.12 175.60 142.79 176.40 C 142.47 177.20 142.85 178.11 143.65 178.43 L 144.57 178.81 C 145.37 179.13 146.28 178.75 146.61 177.95 C 146.93 177.15 146.55 176.24 145.75 175.91 Z M 144.91 175.57 L 143.98 175.14 C 143.20 174.77 142.27 175.10 141.90 175.88 C 141.53 176.66 141.87 177.59 142.65 177.96 L 143.57 178.40 C 144.35 178.76 145.28 178.43 145.65 177.65 C 146.02 176.87 145.68 175.94 144.91 175.57 Z M 144.03 175.16 L 143.12 174.69 C 142.36 174.29 141.41 174.59 141.02 175.35 C 140.62 176.12 140.91 177.06 141.68 177.46 L 142.59 177.93 C 143.36 178.33 144.30 178.03 144.70 177.27 C 145.10 176.50 144.80 175.56 144.03 175.16 Z M 143.16 174.71 L 142.30 174.23 C 141.55 173.81 140.59 174.08 140.18 174.83 C 139.76 175.59 140.03 176.54 140.78 176.96 L 141.64 177.44 C 142.39 177.86 143.35 177.59 143.76 176.83 C 144.18 176.08 143.91 175.13 143.16 174.71 Z M 142.33 174.24 L 141.46 173.74 C 140.72 173.31 139.76 173.56 139.33 174.31 C 138.89 175.05 139.15 176.01 139.89 176.44 L 140.75 176.94 C 141.50 177.38 142.45 177.12 142.89 176.38 C 143.32 175.63 143.07 174.68 142.33 174.24 Z M 141.48 173.75 L 140.62 173.23 C 139.88 172.79 138.92 173.03 138.48 173.77 C 138.03 174.51 138.27 175.47 139.01 175.91 L 139.87 176.43 C 140.61 176.87 141.57 176.63 142.02 175.89 C 142.46 175.16 142.22 174.20 141.48 173.75 Z M 140.63 173.24 L 139.76 172.71 C 139.03 172.26 138.07 172.50 137.62 173.23 C 137.17 173.97 137.40 174.93 138.14 175.38 L 139.00 175.91 C 139.74 176.35 140.70 176.12 141.15 175.39 C 141.60 174.65 141.36 173.69 140.63 173.24 Z M 139.77 172.71 L 139.56 172.59 C 138.82 172.14 137.86 172.37 137.41 173.10 C 136.96 173.84 137.19 174.80 137.92 175.25 L 138.13 175.38 C 138.87 175.83 139.83 175.60 140.28 174.86 C 140.73 174.13 140.50 173.17 139.77 172.71 Z"
      fill="black"
      fill-rule="nonzero" /></svg>