<svg xmlns="http://www.w3.org/2000/svg" width="300" height="300" viewBox="0 0 300 300">
<path d="M 129.68 168.77 L 128.59 168.73 C 127.73 168.70 127.00 169.38 126.98 170.24 C 126.95 171.10 127.62 171.82 128.48 171.85 L 129.58 171.89 C 130.44 171.92 131.16 171.24 131.19 170.38 C 131.22 169.52 130.54 168.80 129.68 168.77 Z M 128.65 168.73 L 127.59 168.66 C 126.73 168.60 125.99 169.25 125.92 170.11 C 125.86 170.97 126.51 171.71 127.37 171.77 L 128.43 171.85 C 129.29 171.91 130.03 171.26 130.09 170.40 C 130.15 169.54 129.51 168.80 128.65 168.73 Z M 127.72 168.67 L 126.75 168.52 C 125.90 168.39 125.10 168.97 124.97 169.83 C 124.83 170.68 125.42 171.48 126.27 171.61 L 127.24 171.76 C 128.09 171.89 128.89 171.31 129.02 170.46 C 129.16 169.61 128.57 168.81 127.72 168.67 Z M 126.98 168.58 L 126.13 168.31 C 125.30 168.05 124.43 168.51 124.17 169.33 C 123.91 170.16 124.37 171.03 125.19 171.29 L 126.04 171.56 C 126.87 171.81 127.74 171.36 128.00 170.53 C 128.26 169.71 127.80 168.83 126.98 168.58 Z M 126.48 168.47 L 125.73 168.01 C 125.00 167.55 124.04 167.78 123.58 168.51 C 123.13 169.24 123.35 170.21 124.09 170.66 L 124.84 171.13 C 125.57 171.58 126.53 171.36 126.99 170.62 C 127.44 169.89 127.22 168.93 126.48 168.47 Z M 126.11 168.34 L 125.54 167.65 C 124.99 166.98 124.00 166.89 123.34 167.44 C 122.68 167.99 122.58 168.98 123.14 169.64 L 123.71 170.33 C 124.26 171.00 125.24 171.09 125.91 170.53 C 126.57 169.98 126.66 169.00 126.11 168.34 Z M 125.77 168.02 L 125.37 167.10 C 125.02 166.31 124.10 165.95 123.31 166.30 C 122.52 166.64 122.16 167.57 122.51 168.36 L 122.91 169.27 C 123.25 170.06 124.17 170.42 124.96 170.07 C 125.75 169.73 126.11 168.81 125.77 168.02 Z M 125.46 167.39 L 125.21 166.25 C 125.02 165.41 124.19 164.88 123.35 165.06 C 122.51 165.25 121.97 166.08 122.16 166.92 L 122.41 168.07 C 122.60 168.91 123.43 169.44 124.27 169.25 C 125.11 169.07 125.65 168.24 125.46 167.39 Z M 125.24 166.41 L 125.14 165.54 C 125.05 164.69 124.27 164.07 123.42 164.16 C 122.56 164.26 121.94 165.03 122.04 165.89 L 122.13 166.76 C 122.23 167.61 123.00 168.23 123.86 168.14 C 124.71 168.04 125.33 167.27 125.24 166.41 Z M 125.15 165.65 L 125.11 164.70 C 125.07 163.84 124.34 163.17 123.48 163.21 C 122.62 163.24 121.95 163.97 121.99 164.83 L 122.03 165.78 C 122.07 166.64 122.79 167.31 123.66 167.27 C 124.52 167.24 125.19 166.51 125.15 165.65 Z M 125.11 164.79 L 125.12 163.78 C 125.14 162.92 124.45 162.21 123.59 162.20 C 122.73 162.18 122.02 162.87 122.00 163.73 L 121.99 164.74 C 121.97 165.60 122.66 166.31 123.52 166.33 C 124.38 166.34 125.09 165.65 125.11 164.79 Z M 125.12 163.87 L 125.20 162.83 C 125.26 161.97 124.62 161.22 123.76 161.16 C 122.90 161.09 122.15 161.74 122.08 162.60 L 122.01 163.64 C 121.94 164.50 122.59 165.25 123.45 165.31 C 124.31 165.38 125.06 164.73 125.12 163.87 Z M 125.19 162.92 L 125.33 161.87 C 125.44 161.01 124.84 160.22 123.99 160.11 C 123.14 160.00 122.35 160.60 122.24 161.45 L 122.09 162.51 C 121.98 163.36 122.58 164.15 123.43 164.26 C 124.29 164.38 125.07 163.78 125.19 162.92 Z M 125.31 161.96 L 125.52 160.91 C 125.69 160.07 125.15 159.25 124.30 159.08 C 123.45 158.91 122.63 159.45 122.46 160.30 L 122.25 161.35 C 122.08 162.20 122.63 163.02 123.48 163.19 C 124.32 163.36 125.14 162.81 125.31 161.96 Z M 125.50 161.02 L 125.78 159.98 C 126.01 159.14 125.52 158.29 124.68 158.06 C 123.85 157.83 122.99 158.33 122.77 159.16 L 122.49 160.20 C 122.26 161.03 122.75 161.89 123.58 162.11 C 124.42 162.34 125.27 161.85 125.50 161.02 Z M 125.75 160.06 L 126.09 159.07 C 126.37 158.25 125.93 157.36 125.11 157.09 C 124.29 156.81 123.41 157.25 123.13 158.07 L 122.80 159.07 C 122.52 159.89 122.96 160.77 123.78 161.05 C 124.59 161.32 125.48 160.88 125.75 160.06 Z M 126.06 159.14 L 126.44 158.19 C 126.75 157.39 126.36 156.48 125.56 156.17 C 124.76 155.85 123.85 156.24 123.53 157.05 L 123.16 157.99 C 122.84 158.80 123.24 159.70 124.04 160.02 C 124.84 160.34 125.75 159.94 126.06 159.14 Z M 126.41 158.25 L 126.81 157.36 C 127.16 156.58 126.81 155.65 126.02 155.30 C 125.23 154.95 124.31 155.30 123.96 156.09 L 123.56 156.98 C 123.21 157.77 123.56 158.69 124.35 159.04 C 125.14 159.39 126.06 159.04 126.41 158.25 Z M 126.78 157.42 L 127.19 156.59 C 127.57 155.82 127.25 154.88 126.47 154.50 C 125.70 154.12 124.76 154.44 124.38 155.22 L 123.98 156.04 C 123.60 156.81 123.92 157.75 124.70 158.13 C 125.47 158.51 126.40 158.19 126.78 157.42 Z M 127.16 156.64 L 127.65 155.73 C 128.05 154.97 127.77 154.03 127.01 153.62 C 126.25 153.21 125.30 153.50 124.89 154.26 L 124.41 155.17 C 124.00 155.93 124.29 156.88 125.05 157.28 C 125.81 157.69 126.76 157.40 127.16 156.64 Z M 127.62 155.79 L 128.16 154.87 C 128.59 154.12 128.34 153.17 127.60 152.73 C 126.86 152.30 125.90 152.54 125.46 153.29 L 124.92 154.21 C 124.49 154.95 124.74 155.91 125.48 156.34 C 126.23 156.78 127.18 156.53 127.62 155.79 Z M 128.12 154.93 L 128.65 154.11 C 129.12 153.39 128.91 152.42 128.18 151.95 C 127.46 151.49 126.49 151.69 126.02 152.42 L 125.50 153.23 C 125.03 153.95 125.24 154.92 125.96 155.39 C 126.69 155.86 127.65 155.65 128.12 154.93 Z M 128.61 154.16 L 129.14 153.42 C 129.63 152.71 129.46 151.74 128.76 151.24 C 128.05 150.74 127.08 150.91 126.58 151.62 L 126.06 152.37 C 125.56 153.07 125.73 154.05 126.44 154.54 C 127.14 155.04 128.12 154.87 128.61 154.16 Z M 129.11 153.45 L 129.68 152.69 C 130.20 152.00 130.05 151.02 129.36 150.50 C 128.67 149.99 127.69 150.13 127.18 150.82 L 126.61 151.59 C 126.09 152.28 126.24 153.25 126.93 153.77 C 127.62 154.28 128.60 154.14 129.11 153.45 Z M 129.66 152.71 L 130.27 151.93 C 130.80 151.25 130.68 150.27 130.00 149.74 C 129.32 149.21 128.34 149.33 127.81 150.01 L 127.20 150.80 C 126.67 151.48 126.79 152.46 127.47 152.99 C 128.15 153.52 129.13 153.39 129.66 152.71 Z M 130.25 151.96 L 130.88 151.18 C 131.43 150.51 131.32 149.52 130.66 148.98 C 129.99 148.44 129.00 148.54 128.46 149.21 L 127.83 149.99 C 127.28 150.66 127.39 151.64 128.06 152.18 C 128.73 152.73 129.71 152.62 130.25 151.96 Z M 130.87 151.20 L 131.52 150.42 C 132.07 149.76 131.99 148.78 131.33 148.22 C 130.67 147.67 129.68 147.75 129.13 148.41 L 128.48 149.19 C 127.92 149.85 128.01 150.83 128.67 151.39 C 129.33 151.94 130.31 151.86 130.87 151.20 Z M 131.50 150.44 L 132.16 149.69 C 132.72 149.04 132.65 148.05 132.00 147.49 C 131.35 146.92 130.37 146.99 129.80 147.64 L 129.15 148.39 C 128.58 149.05 128.65 150.03 129.30 150.60 C 129.95 151.16 130.94 151.09 131.50 150.44 Z M 132.14 149.71 L 132.81 148.96 C 133.39 148.32 133.33 147.33 132.69 146.75 C 132.05 146.18 131.06 146.23 130.49 146.88 L 129.82 147.62 C 129.24 148.27 129.30 149.25 129.94 149.83 C 130.58 150.40 131.57 150.35 132.14 149.71 Z M 132.80 148.97 L 133.48 148.24 C 134.06 147.60 134.02 146.62 133.38 146.03 C 132.75 145.45 131.76 145.49 131.18 146.12 L 130.50 146.86 C 129.92 147.49 129.96 148.48 130.59 149.07 C 131.23 149.65 132.21 149.61 132.80 148.97 Z M 133.46 148.25 L 134.15 147.53 C 134.74 146.90 134.71 145.91 134.08 145.32 C 133.46 144.73 132.47 144.76 131.88 145.38 L 131.19 146.11 C 130.60 146.73 130.63 147.72 131.25 148.31 C 131.88 148.91 132.87 148.88 133.46 148.25 Z M 134.13 147.54 L 134.83 146.82 C 135.43 146.21 135.42 145.22 134.80 144.62 C 134.18 144.02 133.19 144.03 132.59 144.65 L 131.89 145.37 C 131.29 145.99 131.31 146.97 131.92 147.57 C 132.54 148.18 133.53 148.16 134.13 147.54 Z M 134.81 146.84 L 135.52 146.14 C 136.13 145.53 136.13 144.54 135.52 143.93 C 134.91 143.32 133.92 143.32 133.31 143.93 L 132.60 144.63 C 132.00 145.24 132.00 146.23 132.61 146.84 C 133.22 147.45 134.20 147.45 134.81 146.84 Z M 135.50 146.15 L 136.22 145.45 C 136.84 144.85 136.85 143.87 136.25 143.25 C 135.65 142.63 134.66 142.62 134.04 143.22 L 133.32 143.91 C 132.71 144.51 132.69 145.50 133.29 146.12 C 133.89 146.74 134.88 146.75 135.50 146.15 Z M 136.20 145.47 L 136.94 144.78 C 137.56 144.18 137.59 143.20 137.00 142.57 C 136.41 141.94 135.42 141.91 134.79 142.51 L 134.06 143.20 C 133.43 143.79 133.40 144.78 133.99 145.41 C 134.59 146.03 135.57 146.06 136.20 145.47 Z M 136.92 144.79 L 137.67 144.10 C 138.30 143.52 138.35 142.53 137.76 141.90 C 137.18 141.26 136.19 141.22 135.56 141.80 L 134.81 142.49 C 134.17 143.07 134.13 144.06 134.72 144.70 C 135.30 145.33 136.29 145.37 136.92 144.79 Z M 137.66 144.12 L 138.40 143.45 C 139.04 142.87 139.10 141.89 138.52 141.24 C 137.95 140.60 136.96 140.55 136.32 141.12 L 135.57 141.79 C 134.93 142.37 134.88 143.35 135.45 144.00 C 136.03 144.64 137.01 144.69 137.66 144.12 Z M 138.39 143.46 L 139.11 142.83 C 139.76 142.26 139.83 141.27 139.26 140.62 C 138.69 139.97 137.71 139.91 137.06 140.48 L 136.33 141.11 C 135.68 141.68 135.62 142.66 136.18 143.31 C 136.75 143.96 137.74 144.03 138.39 143.46 Z M 139.10 142.84 L 139.79 142.25 C 140.45 141.69 140.53 140.71 139.97 140.05 C 139.41 139.39 138.43 139.31 137.77 139.87 L 137.07 140.46 C 136.42 141.02 136.34 142.00 136.90 142.66 C 137.46 143.32 138.44 143.40 139.10 142.84 Z M 139.77 142.27 L 140.50 141.68 C 141.16 141.13 141.27 140.15 140.72 139.48 C 140.18 138.81 139.19 138.71 138.52 139.26 L 137.79 139.85 C 137.13 140.39 137.02 141.38 137.57 142.05 C 138.11 142.72 139.10 142.82 139.77 142.27 Z M 140.47 141.70 L 141.29 141.06 C 141.97 140.53 142.10 139.55 141.57 138.87 C 141.04 138.19 140.06 138.06 139.38 138.59 L 138.55 139.23 C 137.87 139.76 137.75 140.74 138.28 141.42 C 138.80 142.10 139.78 142.23 140.47 141.70 Z M 141.26 141.08 L 142.12 140.45 C 142.81 139.94 142.96 138.96 142.45 138.27 C 141.94 137.57 140.96 137.43 140.26 137.94 L 139.41 138.57 C 138.71 139.08 138.57 140.06 139.08 140.75 C 139.59 141.45 140.57 141.60 141.26 141.08 Z M 142.10 140.47 L 142.86 139.92 C 143.56 139.42 143.73 138.45 143.23 137.74 C 142.73 137.04 141.75 136.88 141.05 137.38 L 140.29 137.92 C 139.58 138.42 139.42 139.40 139.92 140.10 C 140.42 140.80 141.40 140.97 142.10 140.47 Z M 142.84 139.94 L 143.67 139.37 C 144.38 138.88 144.56 137.91 144.07 137.20 C 143.58 136.49 142.61 136.31 141.90 136.80 L 141.07 137.36 C 140.36 137.85 140.18 138.83 140.67 139.54 C 141.16 140.25 142.13 140.43 142.84 139.94 Z M 143.64 139.39 L 144.51 138.81 C 145.23 138.34 145.42 137.37 144.95 136.65 C 144.47 135.93 143.51 135.73 142.79 136.21 L 141.92 136.78 C 141.20 137.26 141.00 138.22 141.48 138.94 C 141.95 139.66 142.92 139.86 143.64 139.39 Z M 144.48 138.83 L 145.36 138.28 C 146.09 137.82 146.31 136.86 145.85 136.13 C 145.40 135.40 144.43 135.18 143.70 135.63 L 142.82 136.19 C 142.09 136.65 141.87 137.61 142.32 138.34 C 142.78 139.07 143.75 139.29 144.48 138.83 Z M 145.32 138.30 L 146.21 137.78 C 146.95 137.34 147.20 136.39 146.76 135.64 C 146.32 134.90 145.37 134.65 144.62 135.09 L 143.74 135.61 C 143.00 136.05 142.75 137.00 143.19 137.75 C 143.62 138.49 144.58 138.74 145.32 138.30 Z M 146.15 137.81 L 147.06 137.32 C 147.82 136.91 148.11 135.97 147.70 135.21 C 147.29 134.45 146.34 134.16 145.58 134.57 L 144.68 135.06 C 143.92 135.47 143.63 136.42 144.04 137.18 C 144.45 137.94 145.40 138.22 146.15 137.81 Z M 146.99 137.36 L 147.89 136.93 C 148.67 136.56 149.00 135.63 148.63 134.85 C 148.26 134.07 147.33 133.74 146.55 134.11 L 145.65 134.54 C 144.88 134.91 144.54 135.84 144.91 136.62 C 145.28 137.40 146.21 137.73 146.99 137.36 Z M 147.81 136.97 L 148.72 136.60 C 149.52 136.28 149.90 135.37 149.58 134.57 C 149.26 133.77 148.35 133.38 147.55 133.71 L 146.64 134.07 C 145.84 134.39 145.45 135.30 145.78 136.10 C 146.10 136.90 147.01 137.29 147.81 136.97 Z M 148.62 136.64 L 149.55 136.33 C 150.37 136.06 150.82 135.18 150.55 134.36 C 150.28 133.54 149.40 133.10 148.58 133.36 L 147.65 133.67 C 146.83 133.94 146.38 134.82 146.65 135.64 C 146.92 136.46 147.80 136.91 148.62 136.64 Z M 149.45 136.36 L 150.42 136.12 C 151.26 135.91 151.77 135.06 151.56 134.23 C 151.35 133.39 150.50 132.88 149.66 133.09 L 148.69 133.33 C 147.85 133.54 147.34 134.39 147.55 135.23 C 147.76 136.06 148.61 136.57 149.45 136.36 Z M 150.32 136.14 L 151.29 135.97 C 152.14 135.81 152.71 135.00 152.55 134.15 C 152.40 133.30 151.59 132.74 150.74 132.89 L 149.77 133.07 C 148.92 133.22 148.35 134.03 148.51 134.88 C 148.66 135.73 149.47 136.29 150.32 136.14 Z M 151.21 135.98 L 152.21 135.85 C 153.07 135.75 153.68 134.97 153.57 134.11 C 153.46 133.26 152.68 132.65 151.83 132.76 L 150.82 132.88 C 149.97 132.99 149.36 133.77 149.47 134.62 C 149.57 135.48 150.35 136.08 151.21 135.98 Z M 152.15 135.86 L 153.16 135.78 C 154.02 135.71 154.66 134.96 154.60 134.10 C 154.53 133.24 153.77 132.60 152.91 132.67 L 151.90 132.75 C 151.04 132.82 150.40 133.57 150.46 134.43 C 150.53 135.29 151.29 135.93 152.15 135.86 Z M 153.11 135.78 L 154.12 135.74 C 154.98 135.70 155.65 134.97 155.61 134.11 C 155.57 133.25 154.85 132.58 153.98 132.62 L 152.97 132.66 C 152.11 132.70 151.44 133.43 151.48 134.29 C 151.52 135.15 152.25 135.82 153.11 135.78 Z M 154.07 135.74 L 155.06 135.73 C 155.92 135.72 156.61 135.01 156.60 134.15 C 156.59 133.28 155.88 132.59 155.02 132.61 L 154.03 132.62 C 153.17 132.63 152.48 133.34 152.49 134.20 C 152.50 135.06 153.21 135.75 154.07 135.74 Z M 155.02 135.73 L 156.03 135.74 C 156.89 135.76 157.60 135.07 157.61 134.20 C 157.63 133.34 156.94 132.63 156.08 132.62 L 155.06 132.61 C 154.20 132.59 153.49 133.28 153.48 134.14 C 153.47 135.00 154.15 135.71 155.02 135.73 Z M 155.98 135.74 L 157.01 135.79 C 157.87 135.83 158.60 135.17 158.64 134.30 C 158.68 133.44 158.02 132.71 157.16 132.67 L 156.13 132.62 C 155.26 132.58 154.53 133.25 154.49 134.11 C 154.45 134.97 155.12 135.70 155.98 135.74 Z M 156.94 135.79 L 157.93 135.87 C 158.79 135.95 159.55 135.32 159.62 134.46 C 159.70 133.60 159.07 132.84 158.21 132.76 L 157.22 132.68 C 156.36 132.60 155.61 133.23 155.53 134.09 C 155.45 134.95 156.08 135.71 156.94 135.79 Z M 157.85 135.87 L 158.81 136.00 C 159.67 136.12 160.45 135.52 160.57 134.67 C 160.69 133.82 160.10 133.03 159.24 132.91 L 158.28 132.77 C 157.43 132.65 156.64 133.25 156.52 134.10 C 156.40 134.96 157.00 135.75 157.85 135.87 Z M 158.73 135.99 L 159.69 136.17 C 160.53 136.34 161.35 135.79 161.52 134.94 C 161.68 134.09 161.13 133.27 160.28 133.11 L 159.33 132.92 C 158.48 132.76 157.66 133.31 157.50 134.15 C 157.33 135.00 157.88 135.82 158.73 135.99 Z M 159.61 136.16 L 160.53 136.39 C 161.37 136.60 162.22 136.09 162.43 135.25 C 162.64 134.42 162.13 133.57 161.29 133.36 L 160.36 133.13 C 159.53 132.92 158.68 133.43 158.47 134.26 C 158.26 135.10 158.77 135.95 159.61 136.16 Z M 160.47 136.37 L 161.40 136.65 C 162.23 136.89 163.10 136.42 163.34 135.60 C 163.59 134.77 163.12 133.90 162.29 133.66 L 161.36 133.38 C 160.53 133.13 159.66 133.60 159.42 134.43 C 159.17 135.25 159.64 136.12 160.47 136.37 Z M 161.35 136.63 L 162.30 136.95 C 163.11 137.23 164.00 136.79 164.27 135.97 C 164.55 135.16 164.11 134.27 163.30 133.99 L 162.35 133.67 C 161.53 133.40 160.65 133.83 160.37 134.65 C 160.09 135.47 160.53 136.35 161.35 136.63 Z M 162.25 136.93 L 163.21 137.29 C 164.02 137.59 164.91 137.18 165.22 136.37 C 165.52 135.57 165.11 134.67 164.30 134.37 L 163.34 134.01 C 162.53 133.71 161.63 134.12 161.33 134.93 C 161.03 135.73 161.44 136.63 162.25 136.93 Z M 163.17 137.28 L 164.13 137.66 C 164.93 137.99 165.84 137.60 166.16 136.80 C 166.49 136.00 166.10 135.09 165.30 134.77 L 164.33 134.38 C 163.53 134.06 162.63 134.45 162.30 135.25 C 161.98 136.05 162.37 136.96 163.17 137.28 Z M 164.10 137.65 L 165.02 138.04 C 165.81 138.38 166.73 138.01 167.07 137.22 C 167.40 136.42 167.03 135.51 166.24 135.17 L 165.33 134.78 C 164.53 134.44 163.62 134.81 163.28 135.60 C 162.94 136.40 163.31 137.31 164.10 137.65 Z M 164.99 138.03 L 165.89 138.44 C 166.68 138.79 167.60 138.44 167.96 137.66 C 168.31 136.87 167.96 135.95 167.18 135.59 L 166.27 135.18 C 165.49 134.83 164.56 135.18 164.21 135.96 C 163.85 136.75 164.20 137.67 164.99 138.03 Z M 165.86 138.42 L 166.76 138.85 C 167.53 139.23 168.47 138.90 168.84 138.12 C 169.21 137.35 168.89 136.41 168.11 136.04 L 167.21 135.61 C 166.43 135.23 165.50 135.56 165.13 136.34 C 164.75 137.11 165.08 138.05 165.86 138.42 Z M 166.72 138.83 L 167.61 139.30 C 168.38 139.69 169.32 139.39 169.71 138.62 C 170.11 137.86 169.81 136.92 169.04 136.52 L 168.15 136.06 C 167.38 135.66 166.44 135.96 166.05 136.73 C 165.65 137.50 165.95 138.44 166.72 138.83 Z M 167.57 139.27 L 168.45 139.76 C 169.20 140.18 170.16 139.91 170.57 139.16 C 170.99 138.40 170.72 137.45 169.97 137.03 L 169.09 136.54 C 168.33 136.12 167.38 136.40 166.96 137.15 C 166.54 137.90 166.82 138.85 167.57 139.27 Z M 168.41 139.74 L 169.27 140.25 C 170.01 140.70 170.96 140.46 171.41 139.72 C 171.85 138.98 171.61 138.02 170.88 137.58 L 170.01 137.06 C 169.28 136.62 168.32 136.86 167.87 137.59 C 167.43 138.33 167.67 139.29 168.41 139.74 Z M 169.22 140.22 L 170.06 140.77 C 170.78 141.24 171.75 141.04 172.22 140.32 C 172.69 139.59 172.49 138.63 171.76 138.16 L 170.92 137.61 C 170.20 137.14 169.23 137.34 168.76 138.06 C 168.29 138.79 168.50 139.75 169.22 140.22 Z M 170.01 140.74 L 170.83 141.32 C 171.53 141.82 172.50 141.65 173.00 140.95 C 173.50 140.24 173.33 139.27 172.63 138.77 L 171.81 138.19 C 171.11 137.69 170.13 137.86 169.64 138.56 C 169.14 139.26 169.30 140.24 170.01 140.74 Z M 170.77 141.28 L 171.57 141.89 C 172.25 142.42 173.23 142.29 173.76 141.61 C 174.28 140.93 174.16 139.95 173.47 139.42 L 172.68 138.81 C 172.00 138.28 171.02 138.41 170.49 139.09 C 169.97 139.77 170.09 140.75 170.77 141.28 Z M 171.51 141.85 L 172.28 142.49 C 172.93 143.05 173.92 142.96 174.48 142.31 C 175.03 141.65 174.95 140.66 174.29 140.11 L 173.53 139.46 C 172.87 138.91 171.88 138.99 171.33 139.65 C 170.77 140.31 170.85 141.29 171.51 141.85 Z M 172.22 142.44 L 172.95 143.12 C 173.58 143.71 174.57 143.67 175.16 143.04 C 175.74 142.41 175.71 141.42 175.07 140.83 L 174.35 140.15 C 173.71 139.57 172.73 139.60 172.14 140.24 C 171.55 140.87 171.59 141.86 172.22 142.44 Z M 172.89 143.07 L 173.59 143.77 C 174.19 144.39 175.18 144.40 175.79 143.80 C 176.41 143.20 176.42 142.21 175.82 141.59 L 175.13 140.88 C 174.53 140.27 173.54 140.26 172.92 140.86 C 172.30 141.46 172.29 142.45 172.89 143.07 Z M 173.53 143.72 L 174.19 144.46 C 174.76 145.11 175.75 145.17 176.40 144.59 C 177.04 144.02 177.10 143.04 176.53 142.39 L 175.87 141.65 C 175.30 141.00 174.31 140.94 173.67 141.51 C 173.02 142.09 172.96 143.07 173.53 143.72 Z M 174.14 144.40 L 174.77 145.18 C 175.31 145.85 176.29 145.96 176.96 145.42 C 177.63 144.88 177.74 143.90 177.20 143.23 L 176.58 142.45 C 176.04 141.78 175.06 141.67 174.38 142.21 C 173.71 142.75 173.60 143.73 174.14 144.40 Z M 174.72 145.12 L 175.31 145.93 C 175.82 146.63 176.80 146.78 177.50 146.28 C 178.19 145.77 178.35 144.79 177.84 144.10 L 177.25 143.28 C 176.74 142.59 175.76 142.43 175.06 142.94 C 174.37 143.45 174.21 144.43 174.72 145.12 Z M 175.27 145.88 L 175.84 146.73 C 176.31 147.44 177.28 147.64 178.00 147.17 C 178.72 146.69 178.92 145.72 178.44 145.00 L 177.88 144.15 C 177.40 143.43 176.43 143.24 175.71 143.71 C 175.00 144.19 174.80 145.16 175.27 145.88 Z M 175.80 146.67 L 176.31 147.50 C 176.75 148.24 177.71 148.48 178.45 148.04 C 179.19 147.59 179.42 146.63 178.98 145.89 L 178.48 145.06 C 178.03 144.32 177.07 144.08 176.33 144.53 C 175.59 144.97 175.36 145.93 175.80 146.67 Z M 176.27 147.45 L 176.75 148.31 C 177.16 149.07 178.11 149.35 178.87 148.93 C 179.62 148.52 179.90 147.57 179.48 146.81 L 179.01 145.95 C 178.60 145.19 177.65 144.91 176.89 145.33 C 176.14 145.74 175.86 146.69 176.27 147.45 Z M 176.71 148.25 L 177.15 149.15 C 177.54 149.92 178.47 150.24 179.24 149.86 C 180.02 149.48 180.34 148.54 179.96 147.77 L 179.52 146.87 C 179.14 146.10 178.20 145.78 177.43 146.16 C 176.65 146.54 176.33 147.48 176.71 148.25 Z M 177.12 149.08 L 177.53 150.01 C 177.87 150.80 178.79 151.16 179.58 150.81 C 180.37 150.47 180.73 149.55 180.39 148.76 L 179.99 147.83 C 179.64 147.04 178.72 146.68 177.93 147.03 C 177.14 147.37 176.78 148.29 177.12 149.08 Z M 177.50 149.94 L 177.86 150.89 C 178.17 151.69 179.07 152.10 179.87 151.79 C 180.68 151.49 181.08 150.58 180.78 149.78 L 180.42 148.83 C 180.11 148.02 179.21 147.62 178.40 147.92 C 177.60 148.23 177.19 149.13 177.50 149.94 Z M 177.83 150.81 L 178.15 151.80 C 178.42 152.62 179.30 153.07 180.12 152.81 C 180.94 152.54 181.39 151.66 181.12 150.84 L 180.80 149.85 C 180.54 149.03 179.66 148.58 178.84 148.85 C 178.02 149.11 177.57 149.99 177.83 150.81 Z M 178.13 151.72 L 178.41 152.75 C 178.63 153.59 179.48 154.08 180.32 153.86 C 181.15 153.63 181.64 152.78 181.42 151.94 L 181.15 150.92 C 180.92 150.08 180.07 149.59 179.23 149.81 C 178.40 150.03 177.91 150.89 178.13 151.72 Z M 178.39 152.69 L 178.62 153.72 C 178.80 154.56 179.64 155.09 180.48 154.90 C 181.32 154.71 181.85 153.88 181.67 153.04 L 181.44 152.01 C 181.25 151.17 180.42 150.64 179.57 150.83 C 178.73 151.01 178.20 151.85 178.39 152.69 Z M 178.61 153.66 L 178.79 154.66 C 178.95 155.51 179.76 156.07 180.61 155.92 C 181.46 155.76 182.02 154.95 181.86 154.10 L 181.68 153.09 C 181.52 152.25 180.71 151.68 179.86 151.84 C 179.01 152.00 178.45 152.81 178.61 153.66 Z M 178.78 154.61 L 178.93 155.57 C 179.06 156.42 179.85 157.01 180.70 156.88 C 181.56 156.75 182.14 155.96 182.01 155.11 L 181.87 154.15 C 181.74 153.29 180.95 152.71 180.09 152.84 C 179.24 152.97 178.65 153.76 178.78 154.61 Z M 178.92 155.53 L 179.03 156.42 C 179.14 157.28 179.91 157.88 180.77 157.78 C 181.63 157.67 182.23 156.90 182.13 156.04 L 182.02 155.15 C 181.92 154.29 181.14 153.68 180.28 153.79 C 179.43 153.89 178.82 154.67 178.92 155.53 Z M 179.03 156.37 L 179.13 157.48 C 179.20 158.34 179.96 158.97 180.82 158.89 C 181.68 158.82 182.31 158.06 182.24 157.20 L 182.14 156.09 C 182.06 155.23 181.30 154.60 180.44 154.67 C 179.58 154.75 178.95 155.51 179.03 156.37 Z M 179.12 157.42 L 179.17 158.45 C 179.22 159.31 179.95 159.97 180.81 159.92 C 181.68 159.88 182.34 159.15 182.29 158.28 L 182.24 157.26 C 182.19 156.40 181.46 155.74 180.60 155.78 C 179.74 155.83 179.08 156.56 179.12 157.42 Z M 179.17 158.40 L 179.19 159.32 C 179.21 160.18 179.92 160.87 180.78 160.85 C 181.64 160.84 182.33 160.12 182.31 159.26 L 182.29 158.33 C 182.28 157.47 181.57 156.79 180.70 156.80 C 179.84 156.82 179.16 157.53 179.17 158.40 Z M 179.19 159.30 L 179.19 160.20 C 179.19 161.06 179.89 161.76 180.76 161.75 C 181.62 161.75 182.32 161.05 182.31 160.19 L 182.31 159.29 C 182.31 158.43 181.61 157.73 180.75 157.73 C 179.89 157.73 179.19 158.43 179.19 159.30 Z M 179.19 160.19 L 179.19 161.18 C 179.19 162.04 179.89 162.74 180.75 162.74 C 181.61 162.74 182.31 162.05 182.31 161.19 L 182.31 160.20 C 182.32 159.33 181.62 158.63 180.76 158.63 C 179.89 158.63 179.19 159.33 179.19 160.19 Z M 179.19 161.16 L 179.18 162.16 C 179.17 163.03 179.86 163.73 180.72 163.74 C 181.58 163.75 182.29 163.06 182.30 162.20 L 182.31 161.20 C 182.32 160.34 181.63 159.63 180.77 159.62 C 179.91 159.61 179.20 160.30 179.19 161.16 Z M 179.18 162.14 L 179.15 163.15 C 179.13 164.01 179.81 164.73 180.67 164.75 C 181.53 164.78 182.25 164.10 182.27 163.24 L 182.30 162.23 C 182.33 161.36 181.65 160.65 180.78 160.62 C 179.92 160.60 179.20 161.28 179.18 162.14 Z M 179.15 163.11 L 179.10 164.10 C 179.05 164.96 179.71 165.70 180.57 165.75 C 181.44 165.79 182.17 165.13 182.22 164.27 L 182.27 163.28 C 182.32 162.42 181.66 161.68 180.80 161.63 C 179.93 161.59 179.20 162.25 179.15 163.11 Z M 179.10 164.04 L 179.01 165.03 C 178.93 165.89 179.56 166.65 180.42 166.73 C 181.28 166.81 182.04 166.18 182.12 165.33 L 182.21 164.33 C 182.29 163.47 181.66 162.71 180.80 162.63 C 179.95 162.55 179.18 163.18 179.10 164.04 Z M 179.02 164.94 L 178.87 165.94 C 178.74 166.79 179.33 167.59 180.18 167.72 C 181.03 167.85 181.83 167.26 181.96 166.41 L 182.11 165.42 C 182.24 164.56 181.65 163.77 180.80 163.64 C 179.95 163.51 179.15 164.09 179.02 164.94 Z M 178.89 165.82 L 178.67 166.80 C 178.47 167.64 179.00 168.47 179.84 168.67 C 180.68 168.86 181.52 168.34 181.71 167.50 L 181.93 166.52 C 182.13 165.68 181.60 164.84 180.76 164.65 C 179.92 164.46 179.09 164.98 178.89 165.82 Z M 178.70 166.68 L 178.40 167.63 C 178.15 168.45 178.60 169.32 179.43 169.58 C 180.25 169.84 181.13 169.38 181.38 168.56 L 181.68 167.61 C 181.94 166.79 181.48 165.91 180.66 165.66 C 179.83 165.40 178.96 165.86 178.70 166.68 Z M 178.44 167.53 L 178.08 168.47 C 177.77 169.28 178.17 170.18 178.98 170.49 C 179.78 170.79 180.69 170.39 180.99 169.59 L 181.35 168.65 C 181.66 167.84 181.26 166.94 180.45 166.63 C 179.65 166.33 178.74 166.73 178.44 167.53 Z M 178.11 168.40 L 177.70 169.33 C 177.35 170.12 177.71 171.04 178.50 171.38 C 179.29 171.73 180.21 171.37 180.56 170.58 L 180.97 169.65 C 181.31 168.86 180.95 167.94 180.16 167.60 C 179.37 167.25 178.45 167.61 178.11 168.40 Z M 177.72 169.28 L 177.29 170.18 C 176.91 170.96 177.24 171.89 178.02 172.26 C 178.79 172.64 179.73 172.31 180.10 171.54 L 180.54 170.63 C 180.91 169.85 180.58 168.92 179.81 168.55 C 179.03 168.17 178.10 168.50 177.72 169.28 Z M 177.31 170.13 L 176.85 171.02 C 176.44 171.78 176.74 172.73 177.50 173.13 C 178.26 173.53 179.21 173.24 179.61 172.47 L 180.08 171.58 C 180.48 170.82 180.18 169.88 179.42 169.48 C 178.66 169.07 177.71 169.37 177.31 170.13 Z M 176.87 170.97 L 176.38 171.83 C 175.95 172.58 176.20 173.54 176.95 173.97 C 177.70 174.40 178.65 174.14 179.08 173.39 L 179.58 172.52 C 180.01 171.78 179.75 170.82 179.01 170.39 C 178.26 169.96 177.30 170.22 176.87 170.97 Z M 176.41 171.78 L 175.88 172.62 C 175.42 173.35 175.63 174.31 176.36 174.78 C 177.09 175.24 178.06 175.02 178.52 174.29 L 179.05 173.45 C 179.51 172.72 179.29 171.75 178.56 171.29 C 177.83 170.83 176.87 171.05 176.41 171.78 Z M 175.92 172.56 L 175.34 173.38 C 174.85 174.09 175.02 175.06 175.73 175.56 C 176.44 176.05 177.41 175.88 177.90 175.17 L 178.48 174.35 C 178.97 173.64 178.80 172.67 178.09 172.17 C 177.38 171.68 176.41 171.86 175.92 172.56 Z M 175.39 173.32 L 174.78 174.11 C 174.25 174.79 174.38 175.77 175.06 176.30 C 175.74 176.83 176.72 176.70 177.25 176.02 L 177.86 175.23 C 178.39 174.55 178.26 173.57 177.58 173.04 C 176.90 172.51 175.92 172.64 175.39 173.32 Z M 174.83 174.05 L 174.18 174.81 C 173.62 175.46 173.69 176.45 174.35 177.01 C 175.00 177.57 175.99 177.49 176.55 176.84 L 177.20 176.08 C 177.76 175.43 177.68 174.44 177.03 173.88 C 176.38 173.32 175.39 173.40 174.83 174.05 Z M 174.23 174.75 L 173.53 175.48 C 172.94 176.10 172.96 177.09 173.59 177.69 C 174.21 178.28 175.20 178.26 175.79 177.64 L 176.49 176.90 C 177.09 176.28 177.07 175.29 176.44 174.69 C 175.82 174.10 174.83 174.12 174.23 174.75 Z M 173.59 175.43 L 172.85 176.12 C 172.23 176.72 172.20 177.71 172.80 178.33 C 173.39 178.96 174.38 178.98 175.00 178.39 L 175.74 177.69 C 176.36 177.09 176.39 176.11 175.79 175.48 C 175.20 174.86 174.21 174.83 173.59 175.43 Z M 172.90 176.08 L 172.15 176.73 C 171.50 177.30 171.44 178.28 172.00 178.93 C 172.57 179.58 173.55 179.65 174.20 179.09 L 174.95 178.43 C 175.60 177.87 175.67 176.88 175.11 176.23 C 174.54 175.58 173.55 175.51 172.90 176.08 Z M 172.20 176.69 L 171.44 177.30 C 170.76 177.84 170.66 178.83 171.20 179.50 C 171.74 180.17 172.72 180.28 173.39 179.74 L 174.16 179.13 C 174.83 178.59 174.94 177.60 174.40 176.93 C 173.86 176.26 172.88 176.15 172.20 176.69 Z M 171.49 177.26 L 170.69 177.85 C 170.00 178.36 169.85 179.34 170.36 180.03 C 170.87 180.73 171.85 180.88 172.54 180.36 L 173.34 179.78 C 174.03 179.27 174.18 178.29 173.67 177.60 C 173.16 176.90 172.18 176.75 171.49 177.26 Z M 170.74 177.81 L 169.93 178.37 C 169.21 178.85 169.02 179.82 169.51 180.53 C 169.99 181.25 170.96 181.44 171.67 180.95 L 172.49 180.40 C 173.21 179.92 173.39 178.95 172.91 178.23 C 172.43 177.52 171.46 177.33 170.74 177.81 Z M 169.97 178.34 L 169.11 178.88 C 168.38 179.34 168.16 180.30 168.62 181.03 C 169.07 181.76 170.04 181.98 170.77 181.52 L 171.63 180.98 C 172.36 180.52 172.58 179.56 172.12 178.83 C 171.66 178.10 170.70 177.88 169.97 178.34 Z M 169.14 178.86 L 168.30 179.36 C 167.55 179.80 167.31 180.75 167.75 181.50 C 168.18 182.24 169.14 182.48 169.88 182.05 L 170.73 181.55 C 171.47 181.11 171.72 180.15 171.28 179.41 C 170.84 178.66 169.89 178.42 169.14 178.86 Z M 168.33 179.34 L 167.45 179.83 C 166.69 180.24 166.42 181.20 166.84 181.95 C 167.26 182.70 168.21 182.98 168.96 182.56 L 169.85 182.07 C 170.60 181.65 170.87 180.70 170.46 179.95 C 170.04 179.19 169.09 178.92 168.33 179.34 Z M 167.49 179.80 L 166.59 180.26 C 165.83 180.65 165.52 181.59 165.91 182.36 C 166.31 183.13 167.25 183.43 168.01 183.04 L 168.91 182.58 C 169.68 182.19 169.99 181.25 169.59 180.48 C 169.20 179.72 168.26 179.41 167.49 179.80 Z M 166.66 180.23 L 165.73 180.65 C 164.95 181.01 164.60 181.94 164.96 182.72 C 165.32 183.51 166.24 183.85 167.03 183.49 L 167.95 183.07 C 168.74 182.71 169.08 181.79 168.72 181.00 C 168.37 180.22 167.44 179.87 166.66 180.23 Z M 165.81 180.62 L 164.87 180.99 C 164.07 181.31 163.67 182.22 163.99 183.02 C 164.31 183.82 165.22 184.21 166.02 183.90 L 166.96 183.53 C 167.76 183.21 168.15 182.30 167.83 181.50 C 167.51 180.70 166.61 180.30 165.81 180.62 Z M 164.94 180.97 L 164.01 181.28 C 163.19 181.56 162.75 182.45 163.03 183.26 C 163.31 184.08 164.19 184.52 165.01 184.24 L 165.94 183.92 C 166.76 183.65 167.20 182.76 166.92 181.94 C 166.64 181.13 165.76 180.69 164.94 180.97 Z M 164.08 181.26 L 163.13 181.53 C 162.30 181.77 161.82 182.64 162.06 183.47 C 162.30 184.29 163.16 184.77 163.99 184.53 L 164.94 184.26 C 165.77 184.02 166.25 183.16 166.01 182.33 C 165.77 181.50 164.91 181.02 164.08 181.26 Z M 163.19 181.52 L 162.21 181.76 C 161.38 181.96 160.86 182.80 161.07 183.64 C 161.27 184.48 162.11 184.99 162.95 184.79 L 163.93 184.55 C 164.77 184.35 165.28 183.50 165.08 182.66 C 164.87 181.83 164.03 181.31 163.19 181.52 Z M 162.27 181.74 L 161.29 181.94 C 160.44 182.11 159.90 182.94 160.07 183.78 C 160.24 184.63 161.07 185.17 161.91 185.00 L 162.89 184.80 C 163.74 184.63 164.28 183.81 164.11 182.96 C 163.94 182.12 163.12 181.57 162.27 181.74 Z M 161.34 181.93 L 160.37 182.09 C 159.52 182.24 158.94 183.04 159.08 183.89 C 159.22 184.74 160.03 185.32 160.88 185.17 L 161.86 185.01 C 162.71 184.87 163.28 184.07 163.14 183.22 C 163.00 182.37 162.19 181.79 161.34 181.93 Z M 160.42 182.09 L 159.52 182.20 C 158.67 182.32 158.07 183.10 158.18 183.95 C 158.29 184.81 159.07 185.41 159.93 185.30 L 160.82 185.18 C 161.68 185.07 162.28 184.29 162.17 183.43 C 162.06 182.58 161.28 181.98 160.42 182.09 Z M 159.58 182.20 L 158.65 182.28 C 157.79 182.36 157.16 183.13 157.24 183.98 C 157.32 184.84 158.08 185.47 158.94 185.39 L 159.87 185.31 C 160.73 185.23 161.36 184.47 161.28 183.61 C 161.20 182.75 160.44 182.12 159.58 182.20 Z M 158.70 182.28 L 157.66 182.34 C 156.80 182.39 156.15 183.13 156.20 183.99 C 156.25 184.85 156.99 185.51 157.85 185.46 L 158.89 185.40 C 159.75 185.35 160.40 184.61 160.35 183.75 C 160.30 182.89 159.56 182.23 158.70 182.28 Z M 157.70 182.34 L 156.61 182.38 C 155.75 182.40 155.08 183.13 155.11 183.99 C 155.13 184.85 155.86 185.53 156.72 185.50 L 157.81 185.46 C 158.67 185.43 159.35 184.71 159.32 183.85 C 159.29 182.99 158.57 182.31 157.70 182.34 Z M 156.64 182.38 L 155.66 182.39 C 154.80 182.41 154.12 183.12 154.13 183.98 C 154.14 184.84 154.86 185.53 155.72 185.51 L 156.69 185.50 C 157.55 185.48 158.24 184.77 158.23 183.91 C 158.21 183.05 157.50 182.36 156.64 182.38 Z M 155.68 182.39 L 154.65 182.40 C 153.79 182.40 153.10 183.10 153.10 183.97 C 153.10 184.83 153.81 185.52 154.67 185.52 L 155.70 185.51 C 156.56 185.51 157.26 184.81 157.25 183.95 C 157.25 183.08 156.55 182.39 155.68 182.39 Z M 154.67 182.40 L 153.63 182.39 C 152.77 182.38 152.06 183.08 152.06 183.94 C 152.05 184.80 152.75 185.50 153.61 185.51 L 154.65 185.52 C 155.51 185.53 156.22 184.83 156.22 183.97 C 156.23 183.11 155.53 182.40 154.67 182.40 Z M 153.65 182.39 L 152.64 182.37 C 151.78 182.35 151.07 183.03 151.05 183.89 C 151.03 184.76 151.71 185.47 152.58 185.49 L 153.59 185.51 C 154.45 185.53 155.16 184.85 155.18 183.98 C 155.20 183.12 154.52 182.41 153.65 182.39 Z M 152.67 182.37 L 151.63 182.33 C 150.77 182.29 150.04 182.96 150.01 183.82 C 149.97 184.68 150.64 185.41 151.50 185.45 L 152.55 185.49 C 153.41 185.52 154.13 184.85 154.17 183.99 C 154.20 183.13 153.53 182.40 152.67 182.37 Z M 151.68 182.33 L 150.60 182.25 C 149.74 182.19 148.99 182.83 148.93 183.69 C 148.87 184.55 149.51 185.30 150.37 185.36 L 151.45 185.44 C 152.31 185.51 153.06 184.86 153.12 184.00 C 153.19 183.14 152.54 182.39 151.68 182.33 Z M 150.68 182.26 L 149.72 182.14 C 148.86 182.03 148.08 182.63 147.97 183.49 C 147.87 184.35 148.47 185.13 149.33 185.23 L 150.29 185.35 C 151.15 185.46 151.93 184.86 152.04 184.00 C 152.14 183.15 151.54 182.36 150.68 182.26 Z M 149.82 182.15 L 148.93 181.98 C 148.08 181.81 147.26 182.37 147.10 183.21 C 146.93 184.06 147.48 184.88 148.33 185.04 L 149.22 185.22 C 150.07 185.38 150.89 184.83 151.05 183.98 C 151.22 183.14 150.67 182.32 149.82 182.15 Z M 149.04 182.01 L 148.13 181.75 C 147.30 181.52 146.44 182.01 146.21 182.84 C 145.98 183.68 146.47 184.53 147.30 184.76 L 148.21 185.02 C 149.05 185.24 149.90 184.76 150.13 183.93 C 150.36 183.09 149.87 182.23 149.04 182.01 Z M 148.23 181.79 L 147.30 181.46 C 146.49 181.17 145.60 181.59 145.31 182.41 C 145.02 183.22 145.45 184.11 146.26 184.40 L 147.19 184.73 C 148.01 185.02 148.90 184.59 149.19 183.78 C 149.47 182.97 149.05 182.07 148.23 181.79 Z M 147.38 181.49 L 146.46 181.10 C 145.66 180.77 144.75 181.14 144.41 181.94 C 144.08 182.73 144.45 183.65 145.25 183.98 L 146.18 184.37 C 146.97 184.70 147.89 184.33 148.22 183.53 C 148.55 182.74 148.18 181.82 147.38 181.49 Z M 146.52 181.13 L 145.60 180.70 C 144.82 180.33 143.89 180.67 143.52 181.45 C 143.16 182.23 143.49 183.16 144.27 183.52 L 145.19 183.95 C 145.97 184.32 146.90 183.98 147.27 183.20 C 147.63 182.42 147.30 181.49 146.52 181.13 Z M 145.64 180.72 L 144.75 180.27 C 143.98 179.88 143.04 180.18 142.65 180.95 C 142.26 181.72 142.57 182.66 143.34 183.05 L 144.23 183.50 C 145.00 183.89 145.94 183.58 146.33 182.81 C 146.72 182.04 146.41 181.11 145.64 180.72 Z M 144.78 180.28 L 143.90 179.81 C 143.14 179.40 142.19 179.68 141.79 180.44 C 141.38 181.20 141.66 182.15 142.42 182.56 L 143.30 183.03 C 144.06 183.44 145.01 183.16 145.42 182.40 C 145.83 181.64 145.54 180.69 144.78 180.28 Z M 143.93 179.82 L 143.06 179.33 C 142.31 178.91 141.36 179.17 140.93 179.92 C 140.51 180.67 140.77 181.62 141.52 182.05 L 142.39 182.54 C 143.14 182.97 144.09 182.70 144.52 181.95 C 144.94 181.20 144.68 180.25 143.93 179.82 Z M 143.09 179.35 L 142.29 178.87 C 141.55 178.43 140.59 178.68 140.15 179.42 C 139.71 180.16 139.96 181.12 140.70 181.56 L 141.49 182.03 C 142.23 182.47 143.19 182.23 143.63 181.49 C 144.07 180.74 143.83 179.79 143.09 179.35 Z M 142.32 178.89 L 141.55 178.41 C 140.82 177.95 139.86 178.17 139.40 178.90 C 138.94 179.64 139.16 180.60 139.89 181.06 L 140.67 181.54 C 141.40 182.00 142.36 181.78 142.82 181.05 C 143.27 180.31 143.05 179.35 142.32 178.89 Z M 141.59 178.44 L 140.77 177.89 C 140.05 177.41 139.09 177.60 138.61 178.32 C 138.13 179.04 138.32 180.01 139.04 180.48 L 139.85 181.03 C 140.57 181.51 141.54 181.32 142.02 180.60 C 142.50 179.88 142.31 178.91 141.59 178.44 Z M 140.81 177.92 L 139.91 177.27 C 139.21 176.77 138.23 176.93 137.73 177.64 C 137.23 178.34 137.39 179.31 138.10 179.81 L 139.00 180.46 C 139.70 180.96 140.67 180.80 141.17 180.09 C 141.68 179.39 141.51 178.42 140.81 177.92 Z M 139.94 177.30 L 139.12 176.68 C 138.43 176.16 137.46 176.30 136.94 176.99 C 136.42 177.68 136.56 178.66 137.24 179.17 L 138.06 179.79 C 138.75 180.31 139.73 180.17 140.25 179.48 C 140.77 178.79 140.63 177.81 139.94 177.30 Z M 139.15 176.70 L 138.36 176.09 C 137.68 175.56 136.70 175.68 136.17 176.35 C 135.64 177.03 135.76 178.02 136.44 178.55 L 137.22 179.16 C 137.90 179.69 138.88 179.57 139.41 178.89 C 139.94 178.21 139.82 177.23 139.15 176.70 Z M 138.38 176.10 L 137.58 175.45 C 136.91 174.91 135.92 175.02 135.38 175.69 C 134.84 176.36 134.95 177.34 135.62 177.88 L 136.42 178.53 C 137.09 179.07 138.08 178.97 138.62 178.30 C 139.16 177.62 139.05 176.64 138.38 176.10 Z M 137.60 175.47 L 136.80 174.80 C 136.13 174.25 135.15 174.34 134.60 175.00 C 134.05 175.67 134.14 176.65 134.80 177.20 L 135.60 177.87 C 136.26 178.42 137.25 178.33 137.80 177.67 C 138.35 177.00 138.26 176.02 137.60 175.47 Z M 136.82 174.82 L 136.05 174.16 C 135.39 173.59 134.41 173.67 133.84 174.32 C 133.28 174.98 133.36 175.96 134.01 176.52 L 134.78 177.19 C 135.43 177.75 136.42 177.67 136.98 177.02 C 137.54 176.37 137.47 175.38 136.82 174.82 Z M 136.07 174.18 L 135.33 173.51 C 134.68 172.93 133.70 172.99 133.12 173.63 C 132.55 174.27 132.60 175.26 133.24 175.83 L 133.99 176.50 C 134.63 177.08 135.61 177.02 136.19 176.38 C 136.77 175.74 136.71 174.75 136.07 174.18 Z M 135.36 173.54 L 134.53 172.75 C 133.91 172.16 132.92 172.18 132.33 172.80 C 131.73 173.43 131.75 174.42 132.38 175.01 L 133.21 175.80 C 133.83 176.40 134.82 176.37 135.41 175.75 C 136.01 175.13 135.98 174.14 135.36 173.54 Z M 134.58 172.79 L 133.87 172.06 C 133.27 171.44 132.28 171.43 131.66 172.03 C 131.04 172.63 131.02 173.62 131.63 174.24 L 132.33 174.97 C 132.94 175.59 133.92 175.60 134.54 175.00 C 135.16 174.40 135.18 173.41 134.58 172.79 Z M 133.91 172.11 L 133.29 171.42 C 132.71 170.78 131.73 170.72 131.09 171.30 C 130.44 171.87 130.39 172.86 130.96 173.50 L 131.58 174.19 C 132.16 174.83 133.15 174.89 133.79 174.31 C 134.43 173.74 134.48 172.75 133.91 172.11 Z M 133.33 171.46 L 132.77 170.79 C 132.22 170.13 131.23 170.03 130.57 170.59 C 129.91 171.14 129.82 172.12 130.37 172.78 L 130.93 173.46 C 131.48 174.12 132.46 174.21 133.13 173.66 C 133.79 173.11 133.88 172.13 133.33 171.46 Z M 132.80 170.83 L 132.17 170.02 C 131.64 169.34 130.66 169.21 129.98 169.74 C 129.30 170.27 129.17 171.25 129.70 171.93 L 130.33 172.74 C 130.86 173.42 131.84 173.55 132.52 173.02 C 133.21 172.49 133.33 171.51 132.80 170.83 Z M 132.20 170.05 L 131.61 169.25 C 131.10 168.55 130.12 168.40 129.42 168.91 C 128.73 169.42 128.58 170.40 129.09 171.09 L 129.68 171.90 C 130.19 172.59 131.16 172.74 131.86 172.23 C 132.56 171.72 132.71 170.75 132.20 170.05 Z M 131.62 169.27 L 131.05 168.47 C 130.56 167.77 129.58 167.60 128.88 168.10 C 128.18 168.60 128.01 169.57 128.51 170.27 L 129.07 171.07 C 129.57 171.78 130.55 171.94 131.25 171.44 C 131.95 170.95 132.12 169.97 131.62 169.27 Z M 131.06 168.47 L 130.91 168.26 C 130.41 167.56 129.44 167.38 128.73 167.88 C 128.03 168.38 127.86 169.35 128.35 170.06 L 128.50 170.27 C 129.00 170.97 129.97 171.14 130.68 170.65 C 131.38 170.15 131.55 169.18 131.06 168.47 Z"
      fill="black"
      fill-rule="nonzero" /></svg>