<svg xmlns="http://www.w3.org/2000/svg" width="300" height="300" viewBox="0 0 300 300">
<path d="M 133.73 172.44 L 132.85 171.93 C 132.10 171.50 131.15 171.75 130.71 172.50 C 130.28 173.24 130.54 174.20 131.28 174.63 L 132.17 175.14 C 132.91 175.57 133.87 175.32 134.30 174.57 C 134.73 173.83 134.48 172.87 133.73 172.44 Z M 132.86 171.94 L 131.99 171.42 C 131.25 170.98 130.29 171.23 129.85 171.97 C 129.41 172.71 129.66 173.67 130.40 174.11 L 131.27 174.62 C 132.01 175.06 132.97 174.82 133.41 174.08 C 133.85 173.33 133.60 172.38 132.86 171.94 Z M 132.02 171.44 L 131.17 170.91 C 130.43 170.45 129.47 170.68 129.02 171.41 C 128.56 172.14 128.79 173.11 129.52 173.56 L 130.37 174.09 C 131.10 174.55 132.07 174.32 132.52 173.59 C 132.98 172.85 132.75 171.89 132.02 171.44 Z M 131.21 170.94 L 130.38 170.39 C 129.67 169.91 128.70 170.10 128.22 170.82 C 127.74 171.54 127.94 172.51 128.65 172.99 L 129.48 173.53 C 130.19 174.01 131.16 173.82 131.64 173.10 C 132.12 172.38 131.93 171.41 131.21 170.94 Z M 130.44 170.43 L 129.65 169.85 C 128.96 169.34 127.98 169.49 127.47 170.19 C 126.96 170.88 127.11 171.86 127.81 172.37 L 128.60 172.95 C 129.29 173.45 130.27 173.30 130.78 172.61 C 131.29 171.91 131.14 170.94 130.44 170.43 Z M 129.73 169.91 L 128.94 169.25 C 128.27 168.70 127.29 168.79 126.74 169.45 C 126.19 170.12 126.28 171.10 126.94 171.65 L 127.73 172.31 C 128.40 172.86 129.38 172.77 129.93 172.11 C 130.48 171.44 130.39 170.46 129.73 169.91 Z M 129.04 169.34 L 128.33 168.64 C 127.71 168.03 126.73 168.03 126.12 168.65 C 125.51 169.26 125.51 170.25 126.13 170.85 L 126.84 171.56 C 127.45 172.17 128.44 172.16 129.05 171.55 C 129.66 170.94 129.65 169.95 129.04 169.34 Z M 128.45 168.77 L 127.83 168.00 C 127.29 167.33 126.31 167.22 125.64 167.76 C 124.96 168.29 124.85 169.28 125.39 169.95 L 126.01 170.72 C 126.54 171.39 127.53 171.50 128.20 170.96 C 128.87 170.43 128.98 169.44 128.45 168.77 Z M 127.96 168.18 L 127.46 167.34 C 127.03 166.60 126.07 166.35 125.33 166.78 C 124.58 167.22 124.33 168.18 124.77 168.92 L 125.26 169.76 C 125.70 170.51 126.66 170.76 127.40 170.32 C 128.15 169.89 128.39 168.93 127.96 168.18 Z M 127.57 167.57 L 127.23 166.68 C 126.92 165.87 126.01 165.47 125.21 165.78 C 124.41 166.09 124.01 167.00 124.32 167.80 L 124.66 168.69 C 124.97 169.50 125.87 169.90 126.68 169.59 C 127.48 169.28 127.88 168.37 127.57 167.57 Z M 127.30 166.91 L 127.10 166.00 C 126.92 165.16 126.09 164.62 125.25 164.80 C 124.40 164.98 123.87 165.81 124.05 166.66 L 124.25 167.57 C 124.43 168.41 125.26 168.95 126.10 168.77 C 126.94 168.59 127.48 167.76 127.30 166.91 Z M 127.13 166.22 L 127.06 165.25 C 127.00 164.39 126.26 163.74 125.40 163.80 C 124.54 163.86 123.89 164.61 123.95 165.47 L 124.02 166.44 C 124.08 167.30 124.83 167.95 125.69 167.89 C 126.55 167.82 127.19 167.08 127.13 166.22 Z M 127.07 165.45 L 127.12 164.44 C 127.18 163.58 126.52 162.84 125.66 162.79 C 124.80 162.74 124.06 163.39 124.01 164.26 L 123.95 165.27 C 123.90 166.13 124.55 166.87 125.42 166.92 C 126.28 166.97 127.01 166.31 127.07 165.45 Z M 127.10 164.63 L 127.29 163.59 C 127.45 162.74 126.89 161.93 126.04 161.77 C 125.19 161.62 124.38 162.18 124.22 163.03 L 124.03 164.07 C 123.88 164.91 124.44 165.73 125.29 165.88 C 126.13 166.04 126.95 165.48 127.10 164.63 Z M 127.25 163.76 L 127.56 162.75 C 127.81 161.93 127.34 161.06 126.51 160.81 C 125.69 160.56 124.82 161.02 124.57 161.85 L 124.26 162.85 C 124.01 163.68 124.48 164.55 125.30 164.80 C 126.13 165.05 127.00 164.58 127.25 163.76 Z M 127.51 162.89 L 127.88 161.97 C 128.21 161.17 127.83 160.26 127.03 159.94 C 126.23 159.61 125.32 159.99 124.99 160.79 L 124.62 161.71 C 124.29 162.51 124.67 163.42 125.47 163.75 C 126.27 164.07 127.18 163.69 127.51 162.89 Z M 127.84 162.07 L 128.29 161.16 C 128.67 160.39 128.35 159.45 127.58 159.07 C 126.80 158.69 125.87 159.01 125.49 159.78 L 125.04 160.69 C 124.66 161.46 124.97 162.40 125.75 162.78 C 126.52 163.16 127.46 162.85 127.84 162.07 Z M 128.25 161.24 L 128.75 160.35 C 129.17 159.59 128.91 158.64 128.15 158.22 C 127.40 157.80 126.45 158.06 126.03 158.81 L 125.53 159.70 C 125.10 160.46 125.37 161.41 126.12 161.83 C 126.87 162.25 127.82 161.99 128.25 161.24 Z M 128.72 160.40 L 129.25 159.54 C 129.70 158.81 129.48 157.85 128.74 157.39 C 128.01 156.94 127.05 157.16 126.59 157.90 L 126.06 158.76 C 125.61 159.49 125.83 160.45 126.57 160.91 C 127.30 161.36 128.26 161.13 128.72 160.40 Z M 129.22 159.58 L 129.77 158.76 C 130.24 158.04 130.05 157.07 129.33 156.60 C 128.61 156.12 127.64 156.32 127.16 157.04 L 126.62 157.86 C 126.14 158.58 126.34 159.55 127.06 160.02 C 127.78 160.50 128.75 160.30 129.22 159.58 Z M 129.75 158.79 L 130.34 157.93 C 130.83 157.23 130.65 156.25 129.95 155.76 C 129.24 155.27 128.26 155.45 127.77 156.16 L 127.18 157.01 C 126.69 157.72 126.87 158.69 127.58 159.18 C 128.28 159.67 129.26 159.50 129.75 158.79 Z M 130.32 157.96 L 130.94 157.10 C 131.45 156.40 131.29 155.42 130.59 154.92 C 129.89 154.41 128.91 154.57 128.41 155.27 L 127.79 156.13 C 127.29 156.83 127.44 157.81 128.14 158.31 C 128.84 158.82 129.82 158.66 130.32 157.96 Z M 130.93 157.12 L 131.53 156.32 C 132.04 155.63 131.90 154.65 131.21 154.13 C 130.52 153.62 129.54 153.76 129.02 154.45 L 128.42 155.25 C 127.91 155.94 128.05 156.92 128.74 157.44 C 129.43 157.95 130.41 157.81 130.93 157.12 Z M 131.51 156.34 L 132.10 155.57 C 132.62 154.89 132.50 153.91 131.81 153.38 C 131.13 152.86 130.15 152.99 129.62 153.67 L 129.04 154.43 C 128.51 155.11 128.64 156.09 129.32 156.62 C 130.01 157.15 130.99 157.02 131.51 156.34 Z M 132.09 155.59 L 132.67 154.85 C 133.20 154.17 133.08 153.19 132.41 152.66 C 131.73 152.13 130.75 152.24 130.21 152.92 L 129.63 153.66 C 129.10 154.33 129.22 155.31 129.90 155.85 C 130.57 156.38 131.55 156.26 132.09 155.59 Z M 132.66 154.86 L 133.28 154.09 C 133.82 153.41 133.71 152.43 133.03 151.89 C 132.36 151.36 131.38 151.47 130.84 152.14 L 130.22 152.91 C 129.68 153.59 129.79 154.57 130.47 155.11 C 131.14 155.64 132.12 155.53 132.66 154.86 Z M 133.27 154.09 L 133.91 153.31 C 134.45 152.64 134.34 151.66 133.67 151.11 C 133.00 150.57 132.02 150.68 131.48 151.35 L 130.84 152.13 C 130.30 152.80 130.41 153.79 131.08 154.33 C 131.75 154.87 132.73 154.76 133.27 154.09 Z M 133.90 153.32 L 134.53 152.54 C 135.08 151.87 134.98 150.89 134.31 150.35 C 133.65 149.80 132.66 149.90 132.12 150.57 L 131.48 151.34 C 130.94 152.01 131.04 152.99 131.70 153.54 C 132.37 154.08 133.35 153.98 133.90 153.32 Z M 134.53 152.55 L 135.16 151.79 C 135.71 151.12 135.62 150.14 134.95 149.59 C 134.29 149.04 133.31 149.13 132.76 149.79 L 132.12 150.56 C 131.57 151.22 131.66 152.21 132.33 152.76 C 132.99 153.31 133.98 153.21 134.53 152.55 Z M 135.15 151.79 L 135.78 151.05 C 136.34 150.39 136.25 149.40 135.59 148.85 C 134.93 148.29 133.95 148.38 133.39 149.04 L 132.76 149.79 C 132.21 150.45 132.29 151.43 132.95 151.98 C 133.61 152.54 134.60 152.45 135.15 151.79 Z M 135.78 151.05 L 136.40 150.32 C 136.96 149.66 136.88 148.68 136.22 148.12 C 135.57 147.56 134.58 147.64 134.02 148.30 L 133.40 149.03 C 132.84 149.69 132.92 150.67 133.57 151.23 C 134.23 151.79 135.22 151.71 135.78 151.05 Z M 136.39 150.33 L 137.03 149.59 C 137.59 148.94 137.52 147.95 136.86 147.39 C 136.21 146.83 135.22 146.90 134.66 147.55 L 134.03 148.29 C 133.46 148.94 133.54 149.93 134.19 150.49 C 134.85 151.05 135.83 150.98 136.39 150.33 Z M 137.02 149.59 L 137.68 148.83 C 138.25 148.18 138.18 147.20 137.53 146.63 C 136.88 146.07 135.89 146.14 135.32 146.79 L 134.67 147.55 C 134.10 148.20 134.17 149.19 134.82 149.75 C 135.47 150.32 136.46 150.25 137.02 149.59 Z M 137.68 148.84 L 138.37 148.04 C 138.94 147.39 138.87 146.41 138.22 145.84 C 137.57 145.27 136.59 145.34 136.02 145.99 L 135.33 146.79 C 134.76 147.44 134.83 148.42 135.48 148.99 C 136.13 149.56 137.11 149.49 137.68 148.84 Z M 138.37 148.04 L 139.02 147.30 C 139.59 146.65 139.52 145.67 138.87 145.10 C 138.22 144.53 137.23 144.60 136.67 145.25 L 136.02 145.99 C 135.45 146.64 135.52 147.63 136.17 148.19 C 136.82 148.76 137.81 148.69 138.37 148.04 Z M 139.02 147.30 L 139.67 146.56 C 140.24 145.91 140.17 144.92 139.53 144.35 C 138.88 143.79 137.89 143.85 137.32 144.50 L 136.67 145.25 C 136.10 145.90 136.17 146.88 136.82 147.45 C 137.46 148.02 138.45 147.95 139.02 147.30 Z M 139.67 146.56 L 140.34 145.80 C 140.91 145.15 140.85 144.16 140.20 143.59 C 139.55 143.02 138.56 143.09 137.99 143.74 L 137.32 144.50 C 136.76 145.15 136.82 146.13 137.47 146.70 C 138.12 147.27 139.10 147.21 139.67 146.56 Z M 140.34 145.80 L 141.01 145.03 C 141.58 144.39 141.52 143.40 140.88 142.83 C 140.23 142.26 139.24 142.32 138.67 142.97 L 138.00 143.73 C 137.43 144.38 137.49 145.37 138.13 145.94 C 138.78 146.51 139.77 146.44 140.34 145.80 Z M 141.01 145.04 L 141.68 144.28 C 142.25 143.64 142.19 142.65 141.55 142.08 C 140.91 141.51 139.92 141.56 139.35 142.21 L 138.68 142.96 C 138.10 143.61 138.16 144.59 138.81 145.17 C 139.45 145.74 140.44 145.68 141.01 145.04 Z M 141.67 144.29 L 142.38 143.51 C 142.95 142.87 142.90 141.88 142.26 141.30 C 141.61 140.73 140.63 140.78 140.05 141.42 L 139.35 142.20 C 138.77 142.85 138.83 143.83 139.47 144.41 C 140.11 144.98 141.10 144.93 141.67 144.29 Z M 142.37 143.51 L 143.08 142.73 C 143.66 142.09 143.61 141.10 142.97 140.53 C 142.33 139.95 141.35 139.99 140.77 140.63 L 140.06 141.42 C 139.48 142.06 139.53 143.04 140.16 143.62 C 140.80 144.20 141.79 144.15 142.37 143.51 Z M 143.07 142.74 L 143.76 141.99 C 144.34 141.35 144.30 140.37 143.66 139.78 C 143.03 139.20 142.04 139.24 141.46 139.88 L 140.77 140.63 C 140.19 141.26 140.23 142.25 140.87 142.83 C 141.51 143.42 142.49 143.37 143.07 142.74 Z M 143.75 141.99 L 144.41 141.28 C 144.99 140.65 144.96 139.66 144.32 139.08 C 143.69 138.49 142.70 138.53 142.12 139.17 L 141.46 139.88 C 140.88 140.51 140.91 141.50 141.55 142.08 C 142.18 142.67 143.17 142.63 143.75 141.99 Z M 144.41 141.29 L 145.03 140.61 C 145.62 139.98 145.58 139.00 144.95 138.41 C 144.32 137.82 143.33 137.86 142.75 138.49 L 142.12 139.16 C 141.53 139.79 141.57 140.78 142.20 141.37 C 142.83 141.95 143.82 141.92 144.41 141.29 Z M 145.03 140.62 L 145.74 139.86 C 146.33 139.24 146.30 138.25 145.67 137.66 C 145.04 137.07 144.05 137.10 143.46 137.73 L 142.75 138.48 C 142.16 139.11 142.19 140.10 142.82 140.69 C 143.45 141.28 144.44 141.25 145.03 140.62 Z M 145.73 139.87 L 146.42 139.15 C 147.02 138.52 147.00 137.54 146.37 136.94 C 145.75 136.34 144.76 136.37 144.17 136.99 L 143.47 137.72 C 142.88 138.34 142.90 139.33 143.52 139.92 C 144.14 140.52 145.13 140.50 145.73 139.87 Z M 146.41 139.16 L 147.09 138.47 C 147.70 137.85 147.69 136.87 147.08 136.26 C 146.46 135.66 145.47 135.66 144.87 136.28 L 144.18 136.97 C 143.58 137.59 143.58 138.58 144.20 139.18 C 144.81 139.79 145.80 139.78 146.41 139.16 Z M 147.07 138.49 L 147.76 137.81 C 148.38 137.21 148.40 136.23 147.79 135.61 C 147.19 134.99 146.21 134.98 145.59 135.58 L 144.89 136.25 C 144.27 136.85 144.26 137.84 144.86 138.46 C 145.46 139.08 146.45 139.09 147.07 138.49 Z M 147.73 137.84 L 148.48 137.16 C 149.11 136.57 149.15 135.58 148.57 134.95 C 147.98 134.32 147.00 134.28 146.36 134.86 L 145.62 135.55 C 144.98 136.13 144.94 137.12 145.53 137.75 C 146.11 138.39 147.10 138.43 147.73 137.84 Z M 148.44 137.19 L 149.21 136.53 C 149.86 135.97 149.93 134.98 149.37 134.33 C 148.80 133.67 147.82 133.60 147.17 134.17 L 146.40 134.83 C 145.75 135.39 145.68 136.38 146.24 137.03 C 146.80 137.68 147.79 137.75 148.44 137.19 Z M 149.16 136.57 L 149.94 135.95 C 150.61 135.41 150.72 134.43 150.19 133.76 C 149.65 133.08 148.67 132.97 147.99 133.51 L 147.21 134.13 C 146.54 134.66 146.43 135.65 146.96 136.32 C 147.50 136.99 148.48 137.11 149.16 136.57 Z M 149.87 136.00 L 150.65 135.44 C 151.35 134.94 151.51 133.96 151.01 133.26 C 150.51 132.56 149.53 132.40 148.83 132.90 L 148.05 133.46 C 147.35 133.96 147.19 134.94 147.70 135.64 C 148.20 136.34 149.17 136.50 149.87 136.00 Z M 150.56 135.50 L 151.34 135.02 C 152.07 134.57 152.30 133.61 151.85 132.87 C 151.40 132.14 150.44 131.91 149.70 132.36 L 148.92 132.84 C 148.19 133.29 147.96 134.26 148.41 134.99 C 148.86 135.72 149.82 135.95 150.56 135.50 Z M 151.20 135.10 L 152.06 134.68 C 152.84 134.30 153.16 133.37 152.79 132.59 C 152.41 131.82 151.48 131.49 150.70 131.87 L 149.84 132.29 C 149.07 132.66 148.74 133.60 149.12 134.37 C 149.49 135.15 150.43 135.47 151.20 135.10 Z M 151.91 134.74 L 152.90 134.39 C 153.72 134.10 154.14 133.21 153.85 132.39 C 153.56 131.58 152.67 131.16 151.86 131.45 L 150.86 131.80 C 150.05 132.09 149.62 132.98 149.91 133.80 C 150.20 134.61 151.09 135.03 151.91 134.74 Z M 152.76 134.43 L 153.78 134.17 C 154.62 133.96 155.12 133.12 154.91 132.28 C 154.70 131.44 153.85 130.94 153.02 131.15 L 152.00 131.40 C 151.16 131.62 150.66 132.46 150.87 133.30 C 151.08 134.14 151.93 134.64 152.76 134.43 Z M 153.69 134.20 L 154.65 134.02 C 155.50 133.86 156.06 133.04 155.90 132.19 C 155.74 131.35 154.93 130.79 154.08 130.95 L 153.11 131.13 C 152.26 131.29 151.71 132.10 151.86 132.95 C 152.02 133.80 152.84 134.35 153.69 134.20 Z M 154.59 134.03 L 155.61 133.88 C 156.46 133.75 157.06 132.96 156.93 132.11 C 156.81 131.25 156.02 130.66 155.16 130.79 L 154.14 130.94 C 153.29 131.06 152.70 131.85 152.82 132.71 C 152.94 133.56 153.74 134.15 154.59 134.03 Z M 155.56 133.88 L 156.60 133.77 C 157.46 133.67 158.07 132.90 157.98 132.04 C 157.88 131.18 157.10 130.57 156.25 130.66 L 155.21 130.78 C 154.35 130.88 153.74 131.65 153.84 132.51 C 153.93 133.36 154.71 133.98 155.56 133.88 Z M 156.56 133.77 L 157.57 133.68 C 158.43 133.61 159.06 132.85 158.99 131.99 C 158.92 131.13 158.16 130.50 157.30 130.57 L 156.29 130.66 C 155.43 130.73 154.79 131.49 154.87 132.35 C 154.94 133.21 155.70 133.84 156.56 133.77 Z M 157.53 133.68 L 158.54 133.62 C 159.40 133.57 160.05 132.83 160.00 131.97 C 159.95 131.11 159.21 130.45 158.35 130.51 L 157.34 130.57 C 156.48 130.62 155.82 131.36 155.88 132.22 C 155.93 133.08 156.67 133.74 157.53 133.68 Z M 158.48 133.63 L 159.58 133.60 C 160.44 133.58 161.12 132.87 161.10 132.00 C 161.08 131.14 160.37 130.46 159.51 130.48 L 158.41 130.50 C 157.54 130.52 156.86 131.24 156.88 132.10 C 156.90 132.96 157.62 133.65 158.48 133.63 Z M 159.47 133.60 L 160.45 133.64 C 161.32 133.68 162.05 133.02 162.09 132.16 C 162.13 131.30 161.46 130.56 160.60 130.53 L 159.61 130.48 C 158.75 130.44 158.02 131.11 157.98 131.97 C 157.94 132.83 158.61 133.56 159.47 133.60 Z M 160.30 133.63 L 161.22 133.76 C 162.07 133.89 162.86 133.30 162.99 132.44 C 163.11 131.59 162.52 130.80 161.67 130.67 L 160.75 130.54 C 159.90 130.42 159.11 131.01 158.98 131.86 C 158.86 132.71 159.45 133.51 160.30 133.63 Z M 161.04 133.73 L 161.94 133.96 C 162.77 134.18 163.62 133.69 163.84 132.85 C 164.07 132.02 163.57 131.17 162.74 130.95 L 161.84 130.71 C 161.01 130.49 160.15 130.98 159.93 131.82 C 159.71 132.65 160.21 133.51 161.04 133.73 Z M 161.78 133.91 L 162.67 134.25 C 163.48 134.56 164.38 134.15 164.69 133.35 C 164.99 132.54 164.59 131.64 163.78 131.33 L 162.89 131.00 C 162.08 130.69 161.18 131.09 160.88 131.90 C 160.57 132.71 160.97 133.61 161.78 133.91 Z M 162.56 134.21 L 163.47 134.63 C 164.25 135.00 165.18 134.66 165.54 133.88 C 165.91 133.10 165.58 132.17 164.80 131.81 L 163.89 131.38 C 163.11 131.01 162.18 131.35 161.82 132.13 C 161.45 132.91 161.78 133.84 162.56 134.21 Z M 163.39 134.59 L 164.29 135.08 C 165.05 135.49 166.00 135.21 166.41 134.45 C 166.82 133.69 166.54 132.74 165.78 132.33 L 164.87 131.85 C 164.11 131.44 163.17 131.72 162.76 132.48 C 162.35 133.24 162.63 134.18 163.39 134.59 Z M 164.24 135.05 L 165.13 135.58 C 165.88 136.02 166.83 135.77 167.27 135.03 C 167.71 134.28 167.46 133.33 166.72 132.89 L 165.83 132.36 C 165.08 131.92 164.13 132.17 163.69 132.92 C 163.25 133.66 163.50 134.62 164.24 135.05 Z M 165.10 135.56 L 165.95 136.08 C 166.68 136.54 167.64 136.32 168.10 135.59 C 168.55 134.85 168.33 133.89 167.60 133.43 L 166.75 132.91 C 166.02 132.45 165.06 132.68 164.60 133.41 C 164.15 134.14 164.37 135.10 165.10 135.56 Z M 165.91 136.06 L 166.75 136.61 C 167.47 137.09 168.44 136.89 168.91 136.16 C 169.39 135.44 169.18 134.48 168.46 134.00 L 167.63 133.45 C 166.91 132.98 165.94 133.18 165.47 133.90 C 164.99 134.62 165.19 135.59 165.91 136.06 Z M 166.72 136.59 L 167.54 137.16 C 168.25 137.65 169.22 137.47 169.72 136.77 C 170.21 136.06 170.03 135.08 169.32 134.59 L 168.49 134.02 C 167.79 133.53 166.81 133.71 166.32 134.42 C 165.83 135.13 166.01 136.10 166.72 136.59 Z M 167.51 137.14 L 168.32 137.73 C 169.02 138.24 170.00 138.08 170.51 137.39 C 171.01 136.69 170.86 135.71 170.16 135.21 L 169.35 134.62 C 168.65 134.11 167.68 134.26 167.17 134.96 C 166.66 135.66 166.82 136.63 167.51 137.14 Z M 168.29 137.71 L 169.11 138.33 C 169.79 138.86 170.77 138.73 171.30 138.04 C 171.82 137.36 171.69 136.38 171.01 135.86 L 170.19 135.23 C 169.51 134.71 168.53 134.83 168.00 135.52 C 167.48 136.20 167.61 137.18 168.29 137.71 Z M 169.08 138.31 L 169.87 138.95 C 170.54 139.49 171.52 139.39 172.06 138.72 C 172.61 138.05 172.50 137.06 171.83 136.52 L 171.04 135.88 C 170.37 135.34 169.39 135.44 168.84 136.11 C 168.30 136.78 168.41 137.76 169.08 138.31 Z M 169.84 138.92 L 170.60 139.57 C 171.25 140.13 172.24 140.05 172.80 139.40 C 173.36 138.74 173.28 137.76 172.62 137.20 L 171.86 136.55 C 171.21 135.99 170.22 136.07 169.66 136.72 C 169.10 137.38 169.18 138.36 169.84 138.92 Z M 170.56 139.54 L 171.28 140.19 C 171.92 140.77 172.90 140.72 173.48 140.09 C 174.06 139.45 174.01 138.46 173.38 137.88 L 172.66 137.23 C 172.02 136.65 171.03 136.70 170.45 137.34 C 169.87 137.97 169.92 138.96 170.56 139.54 Z M 171.24 140.16 L 171.96 140.86 C 172.58 141.46 173.57 141.45 174.17 140.83 C 174.77 140.21 174.76 139.22 174.14 138.62 L 173.42 137.92 C 172.80 137.32 171.81 137.33 171.21 137.95 C 170.61 138.57 170.62 139.55 171.24 140.16 Z M 171.92 140.82 L 172.61 141.54 C 173.21 142.17 174.19 142.19 174.82 141.60 C 175.44 141.00 175.47 140.01 174.87 139.39 L 174.18 138.66 C 173.59 138.04 172.60 138.02 171.98 138.61 C 171.35 139.20 171.33 140.19 171.92 140.82 Z M 172.57 141.50 L 173.22 142.24 C 173.79 142.88 174.78 142.95 175.43 142.38 C 176.07 141.81 176.13 140.82 175.56 140.17 L 174.91 139.43 C 174.34 138.79 173.36 138.72 172.71 139.29 C 172.06 139.86 172.00 140.85 172.57 141.50 Z M 173.19 142.19 L 173.81 142.96 C 174.36 143.63 175.34 143.72 176.01 143.18 C 176.68 142.63 176.77 141.65 176.23 140.98 L 175.60 140.22 C 175.05 139.55 174.07 139.45 173.40 140.00 C 172.74 140.54 172.64 141.53 173.19 142.19 Z M 173.78 142.92 L 174.39 143.71 C 174.91 144.39 175.89 144.52 176.58 143.99 C 177.26 143.47 177.39 142.49 176.86 141.80 L 176.26 141.02 C 175.73 140.33 174.75 140.21 174.07 140.73 C 173.38 141.26 173.26 142.24 173.78 142.92 Z M 174.36 143.67 L 174.95 144.49 C 175.46 145.18 176.43 145.34 177.13 144.83 C 177.83 144.33 177.98 143.35 177.48 142.65 L 176.89 141.84 C 176.38 141.14 175.41 140.99 174.71 141.49 C 174.01 142.00 173.86 142.97 174.36 143.67 Z M 174.92 144.45 L 175.49 145.28 C 175.98 145.99 176.95 146.18 177.66 145.69 C 178.37 145.21 178.56 144.23 178.07 143.52 L 177.51 142.69 C 177.02 141.98 176.05 141.79 175.34 142.28 C 174.62 142.76 174.44 143.74 174.92 144.45 Z M 175.46 145.24 L 176.00 146.09 C 176.47 146.82 177.43 147.03 178.16 146.57 C 178.89 146.10 179.10 145.14 178.64 144.41 L 178.10 143.56 C 177.63 142.83 176.67 142.62 175.94 143.08 C 175.22 143.55 175.00 144.51 175.46 145.24 Z M 175.98 146.04 L 176.50 146.93 C 176.94 147.67 177.89 147.92 178.64 147.48 C 179.38 147.04 179.63 146.09 179.19 145.34 L 178.67 144.46 C 178.23 143.71 177.27 143.47 176.53 143.90 C 175.79 144.34 175.54 145.30 175.98 146.04 Z M 176.47 146.88 L 176.95 147.76 C 177.36 148.52 178.31 148.80 179.06 148.39 C 179.82 147.98 180.10 147.03 179.69 146.28 L 179.22 145.39 C 178.81 144.64 177.86 144.35 177.10 144.76 C 176.34 145.17 176.06 146.12 176.47 146.88 Z M 176.92 147.71 L 177.35 148.58 C 177.73 149.36 178.66 149.67 179.44 149.30 C 180.21 148.92 180.53 147.98 180.15 147.21 L 179.72 146.33 C 179.34 145.56 178.41 145.24 177.63 145.62 C 176.86 146.00 176.54 146.93 176.92 147.71 Z M 177.32 148.52 L 177.72 149.44 C 178.07 150.23 178.99 150.59 179.78 150.25 C 180.57 149.90 180.93 148.98 180.58 148.19 L 180.18 147.27 C 179.84 146.48 178.92 146.12 178.13 146.46 C 177.34 146.81 176.97 147.73 177.32 148.52 Z M 177.69 149.37 L 178.05 150.31 C 178.36 151.12 179.26 151.52 180.07 151.22 C 180.87 150.91 181.28 150.01 180.97 149.20 L 180.61 148.26 C 180.31 147.45 179.40 147.05 178.60 147.36 C 177.79 147.66 177.39 148.56 177.69 149.37 Z M 178.03 150.24 L 178.33 151.18 C 178.60 152.00 179.48 152.45 180.30 152.18 C 181.12 151.92 181.57 151.03 181.30 150.21 L 181.00 149.28 C 180.73 148.46 179.85 148.01 179.03 148.27 C 178.21 148.54 177.76 149.42 178.03 150.24 Z M 178.31 151.10 L 178.55 152.01 C 178.78 152.84 179.64 153.34 180.47 153.11 C 181.30 152.89 181.79 152.03 181.57 151.20 L 181.32 150.29 C 181.10 149.46 180.24 148.96 179.41 149.19 C 178.58 149.41 178.08 150.27 178.31 151.10 Z M 178.53 151.93 L 178.73 152.82 C 178.91 153.67 179.74 154.20 180.58 154.02 C 181.42 153.84 181.96 153.01 181.78 152.17 L 181.59 151.28 C 181.41 150.44 180.58 149.90 179.73 150.08 C 178.89 150.26 178.35 151.09 178.53 151.93 Z M 178.71 152.73 L 178.86 153.71 C 178.99 154.56 179.78 155.14 180.64 155.01 C 181.49 154.88 182.07 154.09 181.94 153.23 L 181.80 152.26 C 181.67 151.41 180.87 150.82 180.02 150.95 C 179.16 151.08 178.58 151.88 178.71 152.73 Z M 178.85 153.62 L 178.95 154.73 C 179.03 155.59 179.80 156.22 180.65 156.14 C 181.51 156.05 182.14 155.29 182.06 154.43 L 181.96 153.32 C 181.87 152.47 181.11 151.84 180.25 151.92 C 179.40 152.00 178.77 152.76 178.85 153.62 Z M 178.95 154.66 L 179.00 155.65 C 179.04 156.51 179.78 157.17 180.64 157.13 C 181.50 157.08 182.16 156.35 182.12 155.49 L 182.07 154.50 C 182.02 153.64 181.29 152.98 180.43 153.02 C 179.57 153.07 178.90 153.80 178.95 154.66 Z M 179.00 155.60 L 179.02 156.62 C 179.03 157.48 179.74 158.16 180.61 158.15 C 181.47 158.13 182.15 157.42 182.14 156.56 L 182.12 155.54 C 182.10 154.68 181.39 153.99 180.53 154.01 C 179.67 154.02 178.98 154.74 179.00 155.60 Z M 179.02 156.56 L 179.00 157.60 C 178.99 158.47 179.68 159.18 180.54 159.19 C 181.40 159.20 182.11 158.51 182.12 157.65 L 182.14 156.61 C 182.15 155.74 181.46 155.04 180.60 155.02 C 179.74 155.01 179.03 155.70 179.02 156.56 Z M 179.00 157.55 L 178.95 158.56 C 178.91 159.42 179.57 160.16 180.43 160.20 C 181.29 160.25 182.02 159.58 182.07 158.72 L 182.12 157.71 C 182.17 156.85 181.50 156.11 180.64 156.07 C 179.78 156.02 179.05 156.68 179.00 157.55 Z M 178.96 158.48 L 178.86 159.47 C 178.77 160.33 179.39 161.09 180.25 161.18 C 181.11 161.27 181.87 160.65 181.96 159.79 L 182.06 158.80 C 182.15 157.94 181.53 157.18 180.67 157.09 C 179.81 157.00 179.05 157.62 178.96 158.48 Z M 178.87 159.35 L 178.67 160.44 C 178.52 161.28 179.08 162.10 179.93 162.25 C 180.78 162.41 181.59 161.85 181.75 161.00 L 181.94 159.91 C 182.10 159.06 181.54 158.25 180.69 158.09 C 179.84 157.94 179.03 158.50 178.87 159.35 Z M 178.71 160.29 L 178.44 161.24 C 178.20 162.06 178.68 162.93 179.51 163.17 C 180.34 163.40 181.20 162.92 181.44 162.09 L 181.71 161.15 C 181.95 160.32 181.47 159.45 180.64 159.22 C 179.81 158.98 178.95 159.46 178.71 160.29 Z M 178.48 161.10 L 178.15 161.95 C 177.84 162.76 178.23 163.66 179.04 163.98 C 179.84 164.29 180.74 163.89 181.06 163.09 L 181.39 162.23 C 181.71 161.43 181.31 160.52 180.51 160.21 C 179.70 159.90 178.80 160.29 178.48 161.10 Z M 178.20 161.84 L 177.79 162.70 C 177.41 163.47 177.74 164.41 178.52 164.78 C 179.29 165.16 180.23 164.83 180.60 164.05 L 181.01 163.20 C 181.38 162.42 181.06 161.49 180.28 161.12 C 179.50 160.74 178.57 161.07 178.20 161.84 Z M 177.83 162.61 L 177.35 163.47 C 176.92 164.22 177.19 165.17 177.94 165.59 C 178.69 166.02 179.64 165.75 180.07 165.00 L 180.55 164.14 C 180.98 163.39 180.71 162.44 179.96 162.02 C 179.21 161.59 178.26 161.86 177.83 162.61 Z M 177.40 163.38 L 176.85 164.22 C 176.38 164.95 176.58 165.91 177.31 166.39 C 178.03 166.86 179.00 166.65 179.47 165.93 L 180.01 165.09 C 180.49 164.37 180.28 163.40 179.56 162.93 C 178.84 162.46 177.87 162.66 177.40 163.38 Z M 176.90 164.15 L 176.31 164.95 C 175.80 165.65 175.94 166.62 176.64 167.14 C 177.33 167.65 178.31 167.50 178.82 166.81 L 179.41 166.00 C 179.93 165.31 179.78 164.33 179.09 163.82 C 178.39 163.31 177.41 163.46 176.90 164.15 Z M 176.36 164.89 L 175.75 165.63 C 175.21 166.29 175.30 167.28 175.97 167.82 C 176.64 168.37 177.62 168.28 178.17 167.61 L 178.77 166.87 C 179.32 166.21 179.22 165.22 178.56 164.67 C 177.89 164.13 176.91 164.22 176.36 164.89 Z M 175.80 165.58 L 175.14 166.31 C 174.56 166.96 174.61 167.94 175.25 168.52 C 175.90 169.09 176.88 169.04 177.46 168.40 L 178.12 167.66 C 178.70 167.02 178.64 166.03 178.00 165.46 C 177.36 164.88 176.37 164.93 175.80 165.58 Z M 175.18 166.27 L 174.45 167.02 C 173.85 167.64 173.87 168.63 174.49 169.23 C 175.10 169.83 176.09 169.81 176.69 169.19 L 177.42 168.44 C 178.02 167.82 178.00 166.84 177.38 166.24 C 176.76 165.64 175.78 165.65 175.18 166.27 Z M 174.49 166.98 L 173.77 167.68 C 173.15 168.28 173.13 169.27 173.73 169.89 C 174.33 170.51 175.32 170.52 175.94 169.92 L 176.66 169.22 C 177.28 168.62 177.29 167.64 176.69 167.02 C 176.09 166.40 175.10 166.38 174.49 166.98 Z M 173.79 167.65 L 173.07 168.32 C 172.44 168.91 172.40 169.89 172.98 170.53 C 173.57 171.16 174.56 171.20 175.19 170.62 L 175.91 169.95 C 176.55 169.36 176.58 168.38 176.00 167.74 C 175.42 167.11 174.43 167.07 173.79 167.65 Z M 173.10 168.30 L 172.34 168.97 C 171.69 169.54 171.63 170.52 172.20 171.17 C 172.77 171.82 173.76 171.88 174.41 171.31 L 175.16 170.64 C 175.81 170.07 175.87 169.08 175.30 168.44 C 174.73 167.79 173.74 167.73 173.10 168.30 Z M 172.36 168.95 L 171.58 169.61 C 170.93 170.16 170.85 171.15 171.40 171.81 C 171.96 172.46 172.95 172.55 173.60 171.99 L 174.38 171.33 C 175.04 170.77 175.12 169.79 174.56 169.13 C 174.01 168.47 173.02 168.39 172.36 168.95 Z M 171.61 169.59 L 170.81 170.23 C 170.14 170.78 170.04 171.76 170.59 172.43 C 171.13 173.10 172.11 173.20 172.78 172.66 L 173.58 172.01 C 174.25 171.47 174.35 170.48 173.81 169.81 C 173.26 169.14 172.28 169.04 171.61 169.59 Z M 170.84 170.21 L 170.03 170.84 C 169.35 171.37 169.23 172.35 169.76 173.03 C 170.29 173.71 171.27 173.83 171.95 173.30 L 172.76 172.68 C 173.44 172.15 173.56 171.17 173.03 170.49 C 172.50 169.80 171.52 169.68 170.84 170.21 Z M 170.06 170.82 L 169.25 171.43 C 168.56 171.94 168.42 172.92 168.93 173.61 C 169.45 174.30 170.43 174.44 171.12 173.93 L 171.93 173.32 C 172.62 172.81 172.76 171.83 172.24 171.14 C 171.72 170.45 170.75 170.31 170.06 170.82 Z M 169.27 171.41 L 168.47 171.98 C 167.77 172.49 167.61 173.46 168.11 174.16 C 168.62 174.86 169.59 175.02 170.29 174.52 L 171.09 173.94 C 171.79 173.44 171.95 172.47 171.45 171.77 C 170.95 171.06 169.97 170.91 169.27 171.41 Z M 168.49 171.97 L 167.69 172.52 C 166.98 173.01 166.81 173.98 167.30 174.69 C 167.79 175.40 168.76 175.58 169.47 175.09 L 170.27 174.54 C 170.98 174.05 171.16 173.07 170.67 172.36 C 170.18 171.66 169.20 171.48 168.49 171.97 Z M 167.72 172.51 L 166.88 173.06 C 166.16 173.54 165.97 174.51 166.45 175.22 C 166.92 175.94 167.89 176.14 168.61 175.66 L 169.45 175.11 C 170.16 174.63 170.36 173.66 169.88 172.94 C 169.40 172.22 168.44 172.03 167.72 172.51 Z M 166.91 173.05 L 166.07 173.58 C 165.34 174.04 165.13 175.01 165.60 175.73 C 166.06 176.46 167.03 176.67 167.75 176.21 L 168.59 175.68 C 169.31 175.21 169.53 174.25 169.06 173.52 C 168.60 172.79 167.63 172.58 166.91 173.05 Z M 166.09 173.56 L 165.25 174.09 C 164.51 174.54 164.28 175.50 164.74 176.24 C 165.19 176.97 166.15 177.20 166.88 176.74 L 167.73 176.22 C 168.47 175.77 168.69 174.81 168.24 174.07 C 167.79 173.34 166.83 173.11 166.09 173.56 Z M 165.26 174.08 L 164.40 174.59 C 163.66 175.03 163.42 175.99 163.87 176.73 C 164.31 177.47 165.27 177.71 166.01 177.27 L 166.87 176.76 C 167.61 176.31 167.85 175.35 167.40 174.61 C 166.96 173.87 166.00 173.63 165.26 174.08 Z M 164.42 174.58 L 163.57 175.08 C 162.82 175.51 162.57 176.47 163.00 177.21 C 163.44 177.96 164.39 178.21 165.14 177.78 L 165.99 177.28 C 166.74 176.85 166.99 175.89 166.55 175.14 C 166.12 174.40 165.16 174.15 164.42 174.58 Z M 163.59 175.07 L 162.71 175.56 C 161.96 175.98 161.69 176.93 162.12 177.69 C 162.54 178.44 163.49 178.70 164.24 178.28 L 165.12 177.79 C 165.87 177.36 166.14 176.41 165.71 175.66 C 165.29 174.91 164.34 174.64 163.59 175.07 Z M 162.74 175.55 L 161.85 176.02 C 161.09 176.43 160.80 177.38 161.21 178.14 C 161.62 178.90 162.57 179.18 163.33 178.77 L 164.22 178.29 C 164.98 177.89 165.26 176.94 164.85 176.18 C 164.44 175.42 163.50 175.14 162.74 175.55 Z M 161.88 176.01 L 160.98 176.47 C 160.21 176.86 159.90 177.80 160.30 178.57 C 160.69 179.33 161.63 179.64 162.39 179.25 L 163.30 178.79 C 164.06 178.40 164.37 177.46 163.98 176.69 C 163.59 175.92 162.65 175.62 161.88 176.01 Z M 161.02 176.45 L 160.09 176.89 C 159.31 177.26 158.98 178.19 159.35 178.97 C 159.72 179.75 160.65 180.08 161.43 179.71 L 162.36 179.27 C 163.14 178.90 163.47 177.97 163.10 177.19 C 162.73 176.41 161.80 176.08 161.02 176.45 Z M 160.12 176.87 L 159.20 177.28 C 158.41 177.64 158.06 178.56 158.41 179.35 C 158.76 180.13 159.68 180.49 160.47 180.14 L 161.39 179.73 C 162.18 179.37 162.53 178.45 162.18 177.66 C 161.83 176.88 160.91 176.52 160.12 176.87 Z M 159.23 177.27 L 158.32 177.65 C 157.52 177.99 157.15 178.90 157.48 179.70 C 157.82 180.49 158.73 180.87 159.53 180.53 L 160.44 180.15 C 161.23 179.82 161.61 178.90 161.27 178.11 C 160.94 177.31 160.02 176.94 159.23 177.27 Z M 158.34 177.64 L 157.44 178.01 C 156.64 178.33 156.25 179.24 156.57 180.04 C 156.89 180.84 157.80 181.23 158.60 180.91 L 159.50 180.54 C 160.30 180.22 160.69 179.31 160.37 178.51 C 160.05 177.71 159.14 177.32 158.34 177.64 Z M 157.46 178.00 L 156.49 178.37 C 155.68 178.68 155.28 179.58 155.58 180.39 C 155.89 181.19 156.79 181.59 157.60 181.29 L 158.57 180.92 C 159.38 180.61 159.78 179.71 159.48 178.90 C 159.17 178.09 158.27 177.69 157.46 178.00 Z M 156.52 178.36 L 155.57 178.70 C 154.76 178.99 154.34 179.88 154.63 180.69 C 154.92 181.50 155.81 181.93 156.62 181.64 L 157.57 181.30 C 158.38 181.01 158.80 180.12 158.51 179.30 C 158.22 178.49 157.33 178.07 156.52 178.36 Z M 155.61 178.68 L 154.69 178.98 C 153.87 179.25 153.43 180.13 153.69 180.95 C 153.96 181.77 154.84 182.22 155.66 181.95 L 156.58 181.65 C 157.40 181.38 157.85 180.50 157.58 179.68 C 157.31 178.86 156.43 178.41 155.61 178.68 Z M 154.75 178.97 L 153.90 179.21 C 153.07 179.45 152.60 180.31 152.84 181.14 C 153.07 181.97 153.94 182.45 154.77 182.21 L 155.61 181.97 C 156.44 181.73 156.92 180.86 156.68 180.03 C 156.44 179.20 155.57 178.73 154.75 178.97 Z M 153.98 179.19 L 153.14 179.38 C 152.30 179.58 151.78 180.42 151.98 181.26 C 152.17 182.10 153.01 182.62 153.85 182.43 L 154.69 182.23 C 155.53 182.03 156.05 181.20 155.86 180.36 C 155.66 179.52 154.82 178.99 153.98 179.19 Z M 153.25 179.36 L 152.29 179.52 C 151.44 179.65 150.86 180.46 151.00 181.31 C 151.14 182.16 151.94 182.74 152.79 182.60 L 153.74 182.45 C 154.60 182.31 155.17 181.51 155.04 180.66 C 154.90 179.80 154.10 179.23 153.25 179.36 Z M 152.39 179.50 L 151.24 179.61 C 150.38 179.69 149.75 180.45 149.83 181.31 C 149.91 182.17 150.67 182.80 151.53 182.72 L 152.69 182.61 C 153.55 182.53 154.18 181.77 154.09 180.91 C 154.01 180.05 153.25 179.42 152.39 179.50 Z M 151.31 179.61 L 150.29 179.66 C 149.43 179.70 148.77 180.43 148.81 181.29 C 148.85 182.15 149.58 182.82 150.44 182.77 L 151.46 182.73 C 152.32 182.69 152.99 181.95 152.95 181.09 C 152.90 180.23 152.17 179.57 151.31 179.61 Z M 150.34 179.65 L 149.40 179.67 C 148.54 179.68 147.85 180.39 147.86 181.25 C 147.87 182.11 148.58 182.80 149.44 182.79 L 150.39 182.78 C 151.25 182.76 151.94 182.06 151.93 181.19 C 151.91 180.33 151.21 179.64 150.34 179.65 Z M 149.45 179.67 L 148.45 179.65 C 147.58 179.63 146.87 180.32 146.86 181.18 C 146.84 182.04 147.52 182.75 148.39 182.77 L 149.39 182.79 C 150.25 182.81 150.97 182.12 150.98 181.26 C 151.00 180.40 150.32 179.68 149.45 179.67 Z M 148.51 179.65 L 147.47 179.59 C 146.61 179.54 145.87 180.19 145.82 181.05 C 145.77 181.92 146.42 182.65 147.28 182.71 L 148.32 182.77 C 149.18 182.82 149.92 182.16 149.97 181.30 C 150.03 180.44 149.37 179.70 148.51 179.65 Z M 147.54 179.59 L 146.49 179.48 C 145.64 179.39 144.87 180.01 144.78 180.87 C 144.68 181.73 145.31 182.50 146.16 182.59 L 147.21 182.70 C 148.07 182.79 148.84 182.17 148.93 181.31 C 149.02 180.45 148.40 179.69 147.54 179.59 Z M 146.58 179.50 L 145.56 179.32 C 144.71 179.18 143.91 179.76 143.77 180.61 C 143.62 181.46 144.20 182.26 145.05 182.40 L 146.07 182.58 C 146.92 182.72 147.73 182.14 147.87 181.29 C 148.01 180.44 147.44 179.64 146.58 179.50 Z M 145.68 179.35 L 144.70 179.11 C 143.86 178.90 143.02 179.41 142.81 180.25 C 142.61 181.09 143.12 181.93 143.96 182.14 L 144.93 182.38 C 145.77 182.59 146.62 182.07 146.82 181.24 C 147.03 180.40 146.52 179.55 145.68 179.35 Z M 144.85 179.15 L 143.90 178.82 C 143.09 178.53 142.20 178.96 141.91 179.77 C 141.62 180.58 142.05 181.48 142.86 181.76 L 143.81 182.10 C 144.62 182.38 145.51 181.96 145.80 181.14 C 146.09 180.33 145.66 179.44 144.85 179.15 Z M 144.06 178.88 L 143.19 178.46 C 142.41 178.09 141.48 178.41 141.10 179.19 C 140.73 179.96 141.05 180.90 141.83 181.27 L 142.70 181.70 C 143.48 182.07 144.41 181.75 144.79 180.97 C 145.16 180.19 144.84 179.26 144.06 178.88 Z M 143.34 178.55 L 142.53 178.03 C 141.80 177.57 140.83 177.79 140.37 178.52 C 139.91 179.25 140.13 180.22 140.86 180.68 L 141.67 181.19 C 142.40 181.65 143.37 181.43 143.83 180.70 C 144.29 179.97 144.07 179.01 143.34 178.55 Z M 142.66 178.13 L 141.90 177.53 C 141.22 176.99 140.24 177.10 139.70 177.78 C 139.17 178.45 139.28 179.44 139.96 179.97 L 140.72 180.58 C 141.40 181.11 142.38 181.00 142.92 180.32 C 143.45 179.65 143.34 178.67 142.66 178.13 Z M 142.01 177.62 L 141.28 176.92 C 140.66 176.32 139.67 176.34 139.07 176.96 C 138.48 177.58 138.49 178.57 139.12 179.17 L 139.85 179.87 C 140.47 180.47 141.45 180.45 142.05 179.83 C 142.65 179.21 142.63 178.22 142.01 177.62 Z M 141.37 177.01 L 140.66 176.21 C 140.09 175.57 139.11 175.50 138.46 176.07 C 137.81 176.65 137.75 177.63 138.32 178.28 L 139.03 179.08 C 139.60 179.73 140.59 179.79 141.23 179.22 C 141.88 178.65 141.94 177.66 141.37 177.01 Z M 140.72 176.28 L 140.17 175.58 C 139.64 174.90 138.66 174.78 137.98 175.31 C 137.30 175.84 137.18 176.82 137.71 177.50 L 138.26 178.21 C 138.79 178.89 139.77 179.01 140.45 178.48 C 141.13 177.94 141.25 176.96 140.72 176.28 Z M 140.21 175.63 L 139.66 174.87 C 139.16 174.17 138.18 174.01 137.48 174.51 C 136.78 175.01 136.62 175.99 137.13 176.69 L 137.67 177.45 C 138.17 178.15 139.15 178.31 139.85 177.81 C 140.55 177.31 140.71 176.33 140.21 175.63 Z M 139.69 174.91 L 139.15 174.10 C 138.67 173.38 137.70 173.19 136.98 173.67 C 136.27 174.15 136.07 175.12 136.55 175.84 L 137.10 176.65 C 137.58 177.36 138.55 177.55 139.26 177.07 C 139.98 176.59 140.17 175.63 139.69 174.91 Z M 139.17 174.13 L 138.63 173.28 C 138.17 172.56 137.20 172.34 136.48 172.80 C 135.75 173.26 135.53 174.23 135.99 174.96 L 136.53 175.81 C 137.00 176.53 137.96 176.75 138.69 176.29 C 139.42 175.82 139.63 174.86 139.17 174.13 Z M 138.65 173.31 L 138.11 172.43 C 137.66 171.69 136.70 171.46 135.96 171.91 C 135.23 172.36 135.00 173.32 135.44 174.05 L 135.98 174.93 C 136.43 175.67 137.39 175.90 138.12 175.45 C 138.86 175.01 139.09 174.04 138.65 173.31 Z M 138.12 172.45 L 137.59 171.54 C 137.15 170.80 136.19 170.56 135.45 171.00 C 134.71 171.43 134.46 172.39 134.90 173.13 L 135.43 174.04 C 135.87 174.78 136.83 175.02 137.57 174.59 C 138.31 174.15 138.56 173.19 138.12 172.45 Z M 137.59 171.56 L 137.06 170.64 C 136.63 169.89 135.67 169.64 134.93 170.07 C 134.18 170.51 133.93 171.46 134.36 172.21 L 134.89 173.12 C 135.33 173.87 136.28 174.12 137.03 173.69 C 137.77 173.26 138.03 172.30 137.59 171.56 Z M 137.06 170.64 L 136.67 169.96 C 136.24 169.21 135.28 168.95 134.54 169.38 C 133.79 169.81 133.53 170.77 133.96 171.52 L 134.36 172.20 C 134.79 172.95 135.74 173.21 136.49 172.78 C 137.24 172.35 137.49 171.39 137.06 170.64 Z"
      fill="black"
      fill-rule="nonzero" /></svg>