<svg xmlns="http://www.w3.org/2000/svg" width="300" height="300" viewBox="0 0 300 300">
<path d="M 143.11 182.22 L 142.22 181.73 C 141.47 181.31 140.52 181.58 140.10 182.34 C 139.68 183.09 139.95 184.04 140.70 184.46 L 141.59 184.95 C 142.34 185.37 143.29 185.10 143.71 184.35 C 144.13 183.59 143.86 182.64 143.11 182.22 Z M 142.24 181.74 L 141.36 181.24 C 140.62 180.81 139.66 181.07 139.23 181.82 C 138.80 182.56 139.06 183.52 139.81 183.95 L 140.68 184.45 C 141.43 184.88 142.39 184.62 142.82 183.87 C 143.24 183.13 142.99 182.17 142.24 181.74 Z M 141.40 181.26 L 140.55 180.74 C 139.81 180.29 138.85 180.52 138.40 181.26 C 137.95 181.99 138.18 182.95 138.92 183.40 L 139.77 183.92 C 140.51 184.37 141.47 184.14 141.92 183.41 C 142.37 182.67 142.14 181.71 141.40 181.26 Z M 140.60 180.78 L 139.79 180.23 C 139.07 179.75 138.10 179.94 137.62 180.65 C 137.14 181.37 137.33 182.34 138.05 182.82 L 138.86 183.37 C 139.58 183.85 140.55 183.66 141.03 182.94 C 141.51 182.23 141.32 181.26 140.60 180.78 Z M 139.86 180.28 L 139.07 179.68 C 138.39 179.16 137.41 179.29 136.89 179.98 C 136.37 180.67 136.50 181.65 137.19 182.17 L 137.97 182.77 C 138.66 183.29 139.64 183.15 140.16 182.47 C 140.68 181.78 140.55 180.80 139.86 180.28 Z M 139.15 179.74 L 138.41 179.10 C 137.75 178.53 136.77 178.60 136.20 179.25 C 135.64 179.91 135.71 180.89 136.36 181.46 L 137.11 182.10 C 137.76 182.67 138.74 182.60 139.31 181.95 C 139.87 181.30 139.80 180.31 139.15 179.74 Z M 138.48 179.16 L 137.77 178.47 C 137.15 177.86 136.16 177.87 135.56 178.49 C 134.96 179.11 134.97 180.09 135.58 180.70 L 136.29 181.39 C 136.91 182.00 137.89 181.99 138.50 181.37 C 139.10 180.75 139.09 179.77 138.48 179.16 Z M 137.83 178.53 L 137.15 177.79 C 136.57 177.15 135.58 177.10 134.94 177.69 C 134.31 178.27 134.26 179.25 134.84 179.89 L 135.52 180.63 C 136.10 181.27 137.09 181.32 137.73 180.74 C 138.36 180.15 138.41 179.17 137.83 178.53 Z M 137.20 177.84 L 136.57 177.08 C 136.02 176.42 135.03 176.32 134.37 176.87 C 133.70 177.42 133.61 178.41 134.16 179.07 L 134.79 179.83 C 135.34 180.50 136.33 180.59 136.99 180.04 C 137.65 179.49 137.75 178.51 137.20 177.84 Z M 136.60 177.13 L 136.02 176.36 C 135.50 175.68 134.52 175.55 133.83 176.07 C 133.15 176.59 133.01 177.57 133.54 178.26 L 134.12 179.02 C 134.64 179.71 135.62 179.84 136.31 179.32 C 137.00 178.79 137.13 177.81 136.60 177.13 Z M 136.05 176.41 L 135.48 175.60 C 134.98 174.90 134.01 174.73 133.31 175.23 C 132.60 175.73 132.44 176.70 132.93 177.40 L 133.50 178.21 C 134.00 178.91 134.98 179.08 135.68 178.58 C 136.38 178.09 136.55 177.11 136.05 176.41 Z M 135.51 175.64 L 134.95 174.79 C 134.48 174.07 133.51 173.88 132.79 174.35 C 132.07 174.83 131.87 175.80 132.35 176.51 L 132.90 177.36 C 133.38 178.08 134.35 178.28 135.07 177.80 C 135.79 177.33 135.99 176.36 135.51 175.64 Z M 134.97 174.83 L 134.43 173.95 C 133.97 173.21 133.01 172.99 132.28 173.44 C 131.54 173.89 131.32 174.86 131.77 175.59 L 132.32 176.48 C 132.77 177.21 133.74 177.44 134.47 176.98 C 135.20 176.53 135.43 175.56 134.97 174.83 Z M 134.45 173.98 L 133.95 173.13 C 133.51 172.38 132.56 172.13 131.81 172.57 C 131.07 173.00 130.82 173.96 131.25 174.70 L 131.75 175.56 C 132.19 176.30 133.14 176.55 133.89 176.12 C 134.63 175.68 134.88 174.72 134.45 173.98 Z M 133.97 173.16 L 133.49 172.30 C 133.08 171.54 132.13 171.27 131.37 171.68 C 130.62 172.10 130.34 173.05 130.76 173.80 L 131.23 174.67 C 131.65 175.42 132.60 175.70 133.35 175.28 C 134.11 174.87 134.38 173.92 133.97 173.16 Z M 133.52 172.34 L 133.06 171.45 C 132.67 170.68 131.73 170.38 130.96 170.77 C 130.19 171.16 129.89 172.10 130.28 172.87 L 130.73 173.76 C 131.13 174.53 132.07 174.83 132.83 174.44 C 133.60 174.05 133.91 173.11 133.52 172.34 Z M 133.09 171.50 L 132.66 170.58 C 132.29 169.80 131.36 169.46 130.58 169.83 C 129.80 170.19 129.46 171.12 129.83 171.90 L 130.26 172.82 C 130.62 173.60 131.55 173.94 132.33 173.57 C 133.11 173.21 133.45 172.28 133.09 171.50 Z M 132.68 170.64 L 132.29 169.70 C 131.95 168.90 131.04 168.53 130.24 168.87 C 129.45 169.20 129.07 170.11 129.41 170.91 L 129.80 171.85 C 130.14 172.64 131.05 173.02 131.85 172.68 C 132.64 172.35 133.02 171.43 132.68 170.64 Z M 132.31 169.76 L 131.96 168.82 C 131.66 168.01 130.76 167.60 129.95 167.90 C 129.15 168.20 128.73 169.09 129.03 169.90 L 129.38 170.85 C 129.68 171.66 130.58 172.07 131.39 171.77 C 132.20 171.47 132.61 170.57 132.31 169.76 Z M 131.98 168.88 L 131.67 167.92 C 131.41 167.10 130.53 166.65 129.71 166.92 C 128.89 167.19 128.44 168.07 128.70 168.89 L 129.01 169.84 C 129.28 170.66 130.16 171.11 130.98 170.84 C 131.80 170.58 132.25 169.70 131.98 168.88 Z M 131.69 167.98 L 131.42 167.02 C 131.19 166.19 130.32 165.70 129.49 165.94 C 128.66 166.17 128.18 167.03 128.41 167.86 L 128.69 168.83 C 128.92 169.66 129.78 170.14 130.61 169.91 C 131.44 169.67 131.92 168.81 131.69 167.98 Z M 131.43 167.07 L 131.20 166.10 C 131.00 165.26 130.15 164.75 129.32 164.95 C 128.48 165.15 127.96 165.99 128.16 166.83 L 128.40 167.80 C 128.60 168.64 129.44 169.16 130.28 168.96 C 131.12 168.75 131.64 167.91 131.43 167.07 Z M 131.21 166.15 L 131.01 165.18 C 130.84 164.33 130.01 163.79 129.17 163.96 C 128.32 164.13 127.78 164.96 127.95 165.80 L 128.15 166.78 C 128.33 167.62 129.15 168.17 129.99 167.99 C 130.84 167.82 131.38 167.00 131.21 166.15 Z M 131.02 165.23 L 130.85 164.25 C 130.71 163.40 129.90 162.82 129.05 162.97 C 128.20 163.11 127.63 163.92 127.78 164.77 L 127.94 165.75 C 128.09 166.60 128.89 167.17 129.74 167.03 C 130.59 166.88 131.17 166.08 131.02 165.23 Z M 130.86 164.29 L 130.72 163.31 C 130.61 162.45 129.82 161.86 128.97 161.97 C 128.11 162.09 127.51 162.88 127.63 163.73 L 127.77 164.72 C 127.89 165.58 128.67 166.17 129.53 166.05 C 130.38 165.94 130.98 165.15 130.86 164.29 Z M 130.73 163.35 L 130.62 162.36 C 130.53 161.51 129.76 160.89 128.90 160.98 C 128.05 161.07 127.43 161.84 127.52 162.70 L 127.63 163.69 C 127.72 164.55 128.49 165.16 129.35 165.07 C 130.20 164.98 130.82 164.21 130.73 163.35 Z M 130.63 162.40 L 130.55 161.41 C 130.47 160.55 129.72 159.91 128.86 159.98 C 128.00 160.05 127.36 160.81 127.43 161.67 L 127.52 162.66 C 127.59 163.52 128.34 164.16 129.20 164.09 C 130.06 164.02 130.70 163.26 130.63 162.40 Z M 130.55 161.44 L 130.49 160.44 C 130.44 159.58 129.70 158.93 128.83 158.98 C 127.97 159.03 127.32 159.77 127.37 160.63 L 127.43 161.63 C 127.48 162.49 128.22 163.15 129.08 163.10 C 129.94 163.04 130.60 162.31 130.55 161.44 Z M 130.49 160.47 L 130.45 159.47 C 130.41 158.61 129.68 157.94 128.82 157.98 C 127.96 158.02 127.29 158.74 127.33 159.61 L 127.37 160.60 C 127.41 161.46 128.13 162.13 128.99 162.10 C 129.86 162.06 130.52 161.33 130.49 160.47 Z M 130.45 159.50 L 130.43 158.53 C 130.41 157.67 129.69 156.99 128.83 157.01 C 127.97 157.03 127.28 157.74 127.30 158.60 L 127.33 159.58 C 127.35 160.44 128.06 161.12 128.92 161.10 C 129.78 161.08 130.47 160.37 130.45 159.50 Z M 130.43 158.58 L 130.43 157.59 C 130.44 156.73 129.75 156.03 128.88 156.02 C 128.02 156.01 127.32 156.71 127.31 157.57 L 127.30 158.56 C 127.30 159.42 127.99 160.12 128.85 160.13 C 129.72 160.13 130.42 159.44 130.43 158.58 Z M 130.43 157.66 L 130.48 156.66 C 130.52 155.80 129.86 155.07 129.00 155.03 C 128.14 154.98 127.40 155.65 127.36 156.51 L 127.31 157.51 C 127.27 158.37 127.93 159.10 128.80 159.14 C 129.66 159.18 130.39 158.52 130.43 157.66 Z M 130.47 156.74 L 130.58 155.74 C 130.66 154.88 130.04 154.11 129.18 154.02 C 128.32 153.94 127.56 154.56 127.47 155.42 L 127.37 156.43 C 127.28 157.29 127.90 158.05 128.76 158.14 C 129.62 158.23 130.39 157.60 130.47 156.74 Z M 130.56 155.83 L 130.73 154.82 C 130.87 153.96 130.30 153.16 129.45 153.02 C 128.60 152.88 127.79 153.45 127.65 154.31 L 127.48 155.32 C 127.34 156.17 127.92 156.98 128.77 157.12 C 129.62 157.26 130.42 156.68 130.56 155.83 Z M 130.71 154.92 L 130.95 153.91 C 131.15 153.08 130.63 152.23 129.79 152.04 C 128.95 151.84 128.11 152.35 127.91 153.19 L 127.67 154.20 C 127.47 155.04 127.99 155.88 128.83 156.08 C 129.67 156.28 130.51 155.76 130.71 154.92 Z M 130.92 154.00 L 131.22 153.01 C 131.47 152.18 131.01 151.31 130.18 151.06 C 129.36 150.81 128.48 151.28 128.24 152.11 L 127.93 153.10 C 127.69 153.93 128.15 154.80 128.98 155.05 C 129.80 155.30 130.68 154.83 130.92 154.00 Z M 131.20 153.08 L 131.55 152.11 C 131.84 151.29 131.41 150.40 130.60 150.11 C 129.79 149.82 128.89 150.25 128.61 151.06 L 128.26 152.03 C 127.97 152.85 128.40 153.74 129.21 154.03 C 130.02 154.32 130.91 153.89 131.20 153.08 Z M 131.53 152.16 L 131.90 151.23 C 132.22 150.43 131.83 149.52 131.03 149.20 C 130.23 148.88 129.32 149.27 129.00 150.07 L 128.63 151.00 C 128.31 151.80 128.69 152.71 129.49 153.03 C 130.29 153.35 131.20 152.96 131.53 152.16 Z M 131.88 151.28 L 132.27 150.40 C 132.62 149.61 132.26 148.69 131.47 148.34 C 130.68 147.99 129.76 148.35 129.41 149.14 L 129.02 150.02 C 128.68 150.81 129.03 151.73 129.82 152.08 C 130.61 152.42 131.53 152.07 131.88 151.28 Z M 132.25 150.44 L 132.67 149.56 C 133.04 148.78 132.71 147.85 131.94 147.48 C 131.16 147.10 130.23 147.43 129.85 148.21 L 129.43 149.10 C 129.06 149.87 129.39 150.81 130.17 151.18 C 130.94 151.55 131.88 151.22 132.25 150.44 Z M 132.65 149.61 L 133.15 148.64 C 133.55 147.87 133.25 146.93 132.49 146.53 C 131.72 146.13 130.78 146.43 130.38 147.20 L 129.88 148.16 C 129.48 148.93 129.78 149.87 130.54 150.27 C 131.31 150.67 132.25 150.37 132.65 149.61 Z M 133.13 148.69 L 133.61 147.83 C 134.04 147.08 133.78 146.12 133.03 145.70 C 132.28 145.27 131.32 145.54 130.90 146.29 L 130.41 147.15 C 129.98 147.90 130.25 148.85 131.00 149.27 C 131.75 149.70 132.70 149.44 133.13 148.69 Z M 133.59 147.87 L 134.07 147.07 C 134.52 146.34 134.29 145.38 133.55 144.93 C 132.81 144.48 131.85 144.71 131.40 145.45 L 130.92 146.24 C 130.47 146.98 130.71 147.94 131.44 148.39 C 132.18 148.84 133.14 148.60 133.59 147.87 Z M 134.06 147.10 L 134.56 146.31 C 135.02 145.58 134.80 144.62 134.08 144.16 C 133.35 143.69 132.38 143.91 131.92 144.64 L 131.42 145.42 C 130.96 146.15 131.17 147.12 131.90 147.58 C 132.63 148.04 133.59 147.83 134.06 147.10 Z M 134.55 146.33 L 135.09 145.49 C 135.56 144.77 135.36 143.80 134.64 143.33 C 133.91 142.86 132.95 143.07 132.47 143.79 L 131.93 144.62 C 131.46 145.34 131.66 146.31 132.38 146.78 C 133.11 147.25 134.07 147.05 134.55 146.33 Z M 135.07 145.52 L 135.64 144.69 C 136.12 143.97 135.94 143.00 135.22 142.52 C 134.51 142.03 133.54 142.22 133.05 142.93 L 132.49 143.76 C 132.01 144.48 132.19 145.45 132.91 145.93 C 133.62 146.42 134.59 146.23 135.07 145.52 Z M 135.62 144.72 L 136.20 143.90 C 136.70 143.20 136.54 142.22 135.83 141.72 C 135.13 141.22 134.16 141.38 133.66 142.09 L 133.07 142.90 C 132.57 143.61 132.74 144.58 133.44 145.08 C 134.14 145.58 135.12 145.42 135.62 144.72 Z M 136.17 143.94 L 136.78 143.14 C 137.30 142.45 137.17 141.47 136.48 140.95 C 135.79 140.43 134.81 140.56 134.29 141.25 L 133.69 142.05 C 133.16 142.73 133.30 143.71 133.98 144.24 C 134.67 144.76 135.65 144.62 136.17 143.94 Z M 136.75 143.18 L 137.38 142.40 C 137.92 141.73 137.82 140.75 137.15 140.20 C 136.48 139.66 135.50 139.76 134.95 140.43 L 134.32 141.21 C 133.78 141.88 133.88 142.86 134.55 143.40 C 135.22 143.95 136.20 143.85 136.75 143.18 Z M 137.35 142.43 L 138.00 141.68 C 138.56 141.02 138.49 140.04 137.84 139.48 C 137.18 138.91 136.20 138.99 135.63 139.64 L 134.98 140.40 C 134.42 141.05 134.50 142.04 135.15 142.60 C 135.80 143.16 136.79 143.09 137.35 142.43 Z M 137.98 141.70 L 138.64 140.96 C 139.22 140.32 139.17 139.34 138.53 138.76 C 137.89 138.18 136.90 138.23 136.33 138.87 L 135.66 139.61 C 135.08 140.25 135.13 141.24 135.77 141.82 C 136.41 142.40 137.40 142.34 137.98 141.70 Z M 138.62 140.99 L 139.32 140.25 C 139.91 139.62 139.88 138.63 139.25 138.04 C 138.62 137.45 137.63 137.48 137.04 138.11 L 136.35 138.85 C 135.76 139.48 135.79 140.47 136.42 141.06 C 137.05 141.65 138.03 141.62 138.62 140.99 Z M 139.29 140.27 L 140.00 139.55 C 140.60 138.94 140.60 137.95 139.98 137.35 C 139.36 136.74 138.38 136.75 137.77 137.37 L 137.06 138.09 C 136.46 138.70 136.47 139.69 137.08 140.29 C 137.70 140.90 138.69 140.89 139.29 140.27 Z M 139.97 139.58 L 140.69 138.89 C 141.31 138.29 141.33 137.31 140.73 136.68 C 140.13 136.06 139.14 136.05 138.52 136.64 L 137.80 137.34 C 137.18 137.93 137.16 138.92 137.76 139.54 C 138.36 140.16 139.35 140.18 139.97 139.58 Z M 140.65 138.93 L 141.38 138.27 C 142.02 137.69 142.08 136.71 141.50 136.06 C 140.92 135.42 139.94 135.37 139.29 135.95 L 138.56 136.61 C 137.92 137.18 137.87 138.17 138.44 138.81 C 139.02 139.45 140.01 139.51 140.65 138.93 Z M 141.33 138.31 L 142.12 137.66 C 142.79 137.11 142.88 136.13 142.33 135.46 C 141.78 134.80 140.80 134.70 140.13 135.25 L 139.34 135.90 C 138.68 136.45 138.59 137.44 139.13 138.10 C 139.68 138.77 140.67 138.86 141.33 138.31 Z M 142.07 137.70 L 142.86 137.10 C 143.55 136.58 143.69 135.60 143.17 134.91 C 142.65 134.22 141.67 134.09 140.98 134.61 L 140.18 135.21 C 139.50 135.73 139.36 136.71 139.88 137.40 C 140.40 138.09 141.38 138.22 142.07 137.70 Z M 142.82 137.13 L 143.62 136.57 C 144.32 136.08 144.50 135.11 144.00 134.40 C 143.51 133.69 142.54 133.52 141.83 134.01 L 141.03 134.57 C 140.32 135.07 140.15 136.04 140.64 136.75 C 141.13 137.45 142.11 137.63 142.82 137.13 Z M 143.57 136.61 L 144.36 136.10 C 145.08 135.63 145.29 134.67 144.83 133.94 C 144.36 133.22 143.40 133.01 142.67 133.47 L 141.88 133.98 C 141.15 134.45 140.94 135.41 141.41 136.14 C 141.88 136.86 142.84 137.07 143.57 136.61 Z M 144.29 136.14 L 145.12 135.67 C 145.87 135.24 146.13 134.29 145.70 133.54 C 145.28 132.79 144.32 132.53 143.57 132.96 L 142.74 133.43 C 141.99 133.86 141.73 134.81 142.16 135.56 C 142.58 136.31 143.54 136.57 144.29 136.14 Z M 145.02 135.72 L 145.94 135.28 C 146.72 134.91 147.05 133.98 146.68 133.20 C 146.30 132.42 145.37 132.09 144.59 132.46 L 143.67 132.90 C 142.90 133.28 142.57 134.21 142.94 134.99 C 143.31 135.76 144.24 136.09 145.02 135.72 Z M 145.84 135.33 L 146.80 134.95 C 147.60 134.64 148.00 133.73 147.68 132.93 C 147.37 132.13 146.46 131.73 145.66 132.04 L 144.70 132.42 C 143.90 132.73 143.50 133.63 143.81 134.44 C 144.13 135.24 145.03 135.64 145.84 135.33 Z M 146.70 134.98 L 147.58 134.70 C 148.40 134.44 148.85 133.56 148.59 132.74 C 148.32 131.92 147.44 131.47 146.62 131.73 L 145.75 132.01 C 144.93 132.27 144.48 133.15 144.74 133.97 C 145.00 134.79 145.88 135.25 146.70 134.98 Z M 147.50 134.73 L 148.45 134.48 C 149.28 134.26 149.78 133.40 149.56 132.57 C 149.34 131.73 148.48 131.24 147.65 131.46 L 146.70 131.71 C 145.87 131.93 145.37 132.78 145.59 133.62 C 145.81 134.45 146.67 134.95 147.50 134.73 Z M 148.37 134.49 L 149.38 134.28 C 150.23 134.10 150.76 133.27 150.58 132.43 C 150.41 131.58 149.58 131.05 148.73 131.22 L 147.72 131.44 C 146.88 131.62 146.34 132.45 146.52 133.29 C 146.70 134.13 147.53 134.67 148.37 134.49 Z M 149.31 134.29 L 150.37 134.12 C 151.22 133.98 151.80 133.18 151.66 132.33 C 151.52 131.48 150.72 130.90 149.87 131.04 L 148.81 131.21 C 147.96 131.35 147.38 132.15 147.52 133.00 C 147.65 133.85 148.45 134.43 149.31 134.29 Z M 150.29 134.13 L 151.36 134.02 C 152.21 133.92 152.83 133.15 152.74 132.29 C 152.64 131.44 151.87 130.82 151.01 130.91 L 149.95 131.03 C 149.09 131.12 148.47 131.89 148.57 132.75 C 148.66 133.61 149.43 134.23 150.29 134.13 Z M 151.28 134.02 L 152.34 133.96 C 153.20 133.91 153.85 133.17 153.80 132.31 C 153.75 131.44 153.01 130.79 152.15 130.84 L 151.09 130.91 C 150.23 130.96 149.57 131.70 149.63 132.56 C 149.68 133.42 150.42 134.07 151.28 134.02 Z M 152.26 133.96 L 153.30 133.95 C 154.16 133.94 154.85 133.24 154.84 132.37 C 154.83 131.51 154.13 130.82 153.27 130.83 L 152.23 130.84 C 151.36 130.85 150.67 131.55 150.68 132.41 C 150.69 133.28 151.39 133.97 152.26 133.96 Z M 153.21 133.95 L 154.20 134.00 C 155.06 134.04 155.79 133.37 155.83 132.51 C 155.87 131.65 155.21 130.92 154.35 130.88 L 153.35 130.83 C 152.49 130.79 151.76 131.45 151.72 132.32 C 151.68 133.18 152.35 133.91 153.21 133.95 Z M 154.09 133.99 L 155.01 134.09 C 155.87 134.19 156.64 133.58 156.74 132.73 C 156.84 131.87 156.23 131.09 155.37 130.99 L 154.46 130.89 C 153.60 130.79 152.82 131.40 152.72 132.25 C 152.62 133.11 153.24 133.89 154.09 133.99 Z M 154.85 134.07 L 155.87 134.30 C 156.71 134.48 157.54 133.96 157.73 133.11 C 157.92 132.27 157.39 131.44 156.55 131.25 L 155.53 131.02 C 154.69 130.83 153.86 131.36 153.67 132.20 C 153.48 133.04 154.01 133.88 154.85 134.07 Z M 155.65 134.23 L 156.61 134.60 C 157.41 134.90 158.31 134.50 158.62 133.69 C 158.93 132.89 158.53 131.98 157.72 131.68 L 156.76 131.31 C 155.96 131.01 155.06 131.41 154.75 132.22 C 154.44 133.02 154.85 133.92 155.65 134.23 Z M 156.41 134.50 L 157.24 134.96 C 157.99 135.37 158.94 135.10 159.36 134.34 C 159.77 133.59 159.50 132.64 158.74 132.22 L 157.91 131.77 C 157.16 131.35 156.21 131.63 155.79 132.39 C 155.38 133.14 155.66 134.09 156.41 134.50 Z M 157.12 134.88 L 157.89 135.41 C 158.60 135.89 159.57 135.70 160.06 134.99 C 160.54 134.27 160.35 133.30 159.64 132.82 L 158.86 132.30 C 158.15 131.81 157.18 132.00 156.70 132.72 C 156.21 133.43 156.40 134.40 157.12 134.88 Z M 157.83 135.36 L 158.62 135.95 C 159.31 136.46 160.29 136.32 160.80 135.63 C 161.32 134.94 161.17 133.96 160.48 133.44 L 159.69 132.86 C 159.00 132.34 158.02 132.49 157.51 133.18 C 157.00 133.87 157.14 134.85 157.83 135.36 Z M 158.57 135.91 L 159.35 136.54 C 160.02 137.08 161.01 136.97 161.55 136.30 C 162.09 135.63 161.98 134.64 161.31 134.10 L 160.53 133.48 C 159.85 132.94 158.87 133.05 158.33 133.72 C 157.79 134.39 157.90 135.37 158.57 135.91 Z M 159.31 136.50 L 160.08 137.17 C 160.74 137.73 161.72 137.66 162.28 137.01 C 162.85 136.35 162.77 135.37 162.12 134.81 L 161.35 134.14 C 160.69 133.58 159.71 133.65 159.15 134.30 C 158.58 134.96 158.66 135.94 159.31 136.50 Z M 160.05 137.14 L 160.78 137.81 C 161.41 138.39 162.40 138.35 162.98 137.71 C 163.57 137.08 163.52 136.09 162.89 135.51 L 162.16 134.84 C 161.52 134.25 160.53 134.30 159.95 134.93 C 159.37 135.57 159.41 136.55 160.05 137.14 Z M 160.75 137.78 L 161.46 138.47 C 162.08 139.07 163.07 139.05 163.67 138.43 C 164.27 137.81 164.25 136.83 163.63 136.23 L 162.92 135.54 C 162.30 134.94 161.31 134.95 160.71 135.57 C 160.11 136.19 160.13 137.18 160.75 137.78 Z M 161.44 138.45 L 162.16 139.17 C 162.77 139.78 163.75 139.78 164.36 139.17 C 164.97 138.56 164.97 137.57 164.36 136.96 L 163.65 136.25 C 163.04 135.64 162.05 135.64 161.44 136.25 C 160.83 136.86 160.83 137.84 161.44 138.45 Z M 162.14 139.15 L 162.85 139.87 C 163.45 140.49 164.44 140.50 165.06 139.90 C 165.67 139.30 165.68 138.31 165.08 137.69 L 164.38 136.97 C 163.77 136.35 162.79 136.34 162.17 136.95 C 161.55 137.55 161.54 138.54 162.14 139.15 Z M 162.84 139.86 L 163.53 140.58 C 164.13 141.21 165.11 141.23 165.74 140.63 C 166.36 140.03 166.38 139.04 165.78 138.42 L 165.09 137.70 C 164.50 137.08 163.51 137.06 162.88 137.66 C 162.26 138.25 162.24 139.24 162.84 139.86 Z M 163.51 140.57 L 164.20 141.30 C 164.78 141.93 165.77 141.96 166.40 141.38 C 167.03 140.79 167.07 139.80 166.48 139.17 L 165.80 138.44 C 165.21 137.81 164.22 137.77 163.59 138.36 C 162.96 138.95 162.93 139.94 163.51 140.57 Z M 164.18 141.28 L 164.85 142.02 C 165.42 142.67 166.41 142.72 167.05 142.14 C 167.69 141.57 167.75 140.58 167.17 139.94 L 166.50 139.19 C 165.92 138.55 164.94 138.50 164.29 139.07 C 163.65 139.65 163.60 140.63 164.18 141.28 Z M 164.82 141.99 L 165.47 142.76 C 166.03 143.41 167.02 143.49 167.67 142.93 C 168.33 142.37 168.41 141.39 167.85 140.73 L 167.20 139.97 C 166.64 139.31 165.65 139.23 164.99 139.79 C 164.34 140.35 164.26 141.34 164.82 141.99 Z M 165.44 142.73 L 166.07 143.51 C 166.62 144.18 167.60 144.28 168.27 143.74 C 168.94 143.20 169.05 142.21 168.50 141.54 L 167.87 140.76 C 167.33 140.09 166.35 139.99 165.68 140.53 C 165.01 141.07 164.90 142.05 165.44 142.73 Z M 166.05 143.47 L 166.65 144.27 C 167.18 144.95 168.15 145.08 168.84 144.56 C 169.53 144.04 169.66 143.06 169.14 142.37 L 168.53 141.58 C 168.01 140.89 167.03 140.76 166.34 141.28 C 165.66 141.80 165.52 142.78 166.05 143.47 Z M 166.63 144.23 L 167.20 145.04 C 167.71 145.74 168.68 145.90 169.38 145.40 C 170.08 144.90 170.25 143.92 169.74 143.22 L 169.17 142.41 C 168.66 141.71 167.69 141.55 166.99 142.05 C 166.29 142.55 166.12 143.53 166.63 144.23 Z M 167.18 145.00 L 167.74 145.85 C 168.22 146.56 169.19 146.75 169.91 146.28 C 170.63 145.80 170.82 144.83 170.34 144.11 L 169.77 143.26 C 169.29 142.55 168.32 142.35 167.61 142.83 C 166.89 143.31 166.70 144.28 167.18 145.00 Z M 167.72 145.81 L 168.25 146.66 C 168.71 147.39 169.67 147.61 170.40 147.15 C 171.14 146.70 171.36 145.73 170.90 145.00 L 170.36 144.15 C 169.91 143.42 168.94 143.20 168.21 143.65 C 167.48 144.11 167.26 145.08 167.72 145.81 Z M 168.23 146.62 L 168.73 147.48 C 169.17 148.22 170.13 148.46 170.87 148.03 C 171.61 147.59 171.86 146.63 171.42 145.89 L 170.92 145.04 C 170.48 144.29 169.52 144.05 168.78 144.49 C 168.04 144.92 167.79 145.88 168.23 146.62 Z M 168.71 147.44 L 169.20 148.31 C 169.62 149.07 170.57 149.34 171.32 148.92 C 172.08 148.50 172.35 147.55 171.93 146.79 L 171.44 145.92 C 171.02 145.17 170.07 144.90 169.32 145.32 C 168.57 145.74 168.30 146.69 168.71 147.44 Z M 169.18 148.28 L 169.65 149.17 C 170.05 149.94 170.99 150.23 171.76 149.83 C 172.52 149.43 172.82 148.49 172.42 147.72 L 171.95 146.83 C 171.55 146.07 170.60 145.77 169.84 146.17 C 169.08 146.57 168.78 147.51 169.18 148.28 Z M 169.63 149.13 L 170.06 150.02 C 170.43 150.80 171.37 151.12 172.14 150.75 C 172.92 150.37 173.24 149.44 172.87 148.66 L 172.44 147.77 C 172.06 146.99 171.13 146.67 170.35 147.04 C 169.58 147.42 169.25 148.35 169.63 149.13 Z M 170.03 149.97 L 170.42 150.85 C 170.77 151.64 171.69 152.00 172.48 151.66 C 173.27 151.31 173.63 150.39 173.28 149.60 L 172.89 148.71 C 172.55 147.92 171.63 147.56 170.84 147.91 C 170.05 148.26 169.69 149.18 170.03 149.97 Z M 170.39 150.79 L 170.72 151.62 C 171.03 152.42 171.93 152.82 172.73 152.51 C 173.54 152.20 173.94 151.30 173.63 150.49 L 173.31 149.66 C 173.00 148.86 172.09 148.46 171.29 148.77 C 170.48 149.08 170.08 149.98 170.39 150.79 Z M 170.68 151.53 L 170.97 152.43 C 171.23 153.26 172.11 153.71 172.93 153.45 C 173.75 153.19 174.21 152.31 173.95 151.49 L 173.66 150.58 C 173.40 149.76 172.52 149.30 171.70 149.57 C 170.88 149.83 170.42 150.71 170.68 151.53 Z M 170.94 152.33 L 171.20 153.37 C 171.40 154.21 172.25 154.72 173.08 154.52 C 173.92 154.31 174.44 153.47 174.23 152.63 L 173.98 151.59 C 173.77 150.75 172.93 150.24 172.09 150.44 C 171.25 150.65 170.74 151.49 170.94 152.33 Z M 171.18 153.28 L 171.37 154.34 C 171.52 155.19 172.34 155.75 173.18 155.59 C 174.03 155.44 174.60 154.63 174.44 153.78 L 174.25 152.72 C 174.10 151.87 173.28 151.31 172.44 151.47 C 171.59 151.62 171.02 152.43 171.18 153.28 Z M 171.36 154.28 L 171.50 155.26 C 171.62 156.11 172.41 156.71 173.26 156.59 C 174.11 156.47 174.71 155.68 174.59 154.82 L 174.45 153.84 C 174.33 152.99 173.54 152.39 172.69 152.51 C 171.84 152.63 171.24 153.42 171.36 154.28 Z M 171.49 155.22 L 171.61 156.25 C 171.71 157.10 172.48 157.72 173.34 157.62 C 174.19 157.52 174.81 156.75 174.71 155.89 L 174.59 154.86 C 174.50 154.01 173.72 153.39 172.87 153.49 C 172.01 153.59 171.39 154.36 171.49 155.22 Z M 171.61 156.22 L 171.70 157.25 C 171.78 158.11 172.55 158.74 173.40 158.66 C 174.26 158.58 174.89 157.82 174.81 156.96 L 174.72 155.92 C 174.63 155.07 173.87 154.44 173.01 154.52 C 172.16 154.60 171.53 155.36 171.61 156.22 Z M 171.70 157.23 L 171.78 158.23 C 171.85 159.09 172.60 159.73 173.46 159.66 C 174.32 159.60 174.96 158.85 174.89 157.99 L 174.81 156.99 C 174.75 156.13 174.00 155.49 173.14 155.55 C 172.28 155.62 171.64 156.37 171.70 157.23 Z M 171.78 158.20 L 171.84 159.24 C 171.89 160.10 172.63 160.75 173.49 160.70 C 174.35 160.65 175.01 159.91 174.96 159.05 L 174.89 158.01 C 174.84 157.15 174.10 156.50 173.24 156.55 C 172.38 156.60 171.73 157.34 171.78 158.20 Z M 171.84 159.20 L 171.88 160.30 C 171.91 161.16 172.64 161.83 173.50 161.80 C 174.36 161.77 175.03 161.05 175.00 160.18 L 174.96 159.08 C 174.93 158.22 174.20 157.55 173.34 157.58 C 172.48 157.61 171.81 158.34 171.84 159.20 Z M 171.88 160.25 L 171.88 161.22 C 171.89 162.08 172.59 162.78 173.45 162.77 C 174.31 162.77 175.01 162.06 175.01 161.20 L 175.00 160.23 C 175.00 159.37 174.29 158.68 173.43 158.68 C 172.57 158.69 171.87 159.39 171.88 160.25 Z M 171.88 161.16 L 171.86 162.06 C 171.83 162.92 172.51 163.64 173.37 163.67 C 174.23 163.69 174.95 163.02 174.98 162.16 L 175.00 161.26 C 175.03 160.40 174.36 159.68 173.49 159.65 C 172.63 159.62 171.91 160.30 171.88 161.16 Z M 171.86 162.00 L 171.79 162.95 C 171.73 163.81 172.38 164.56 173.24 164.62 C 174.10 164.68 174.85 164.03 174.91 163.17 L 174.97 162.21 C 175.03 161.35 174.38 160.61 173.52 160.55 C 172.66 160.49 171.92 161.14 171.86 162.00 Z M 171.80 162.88 L 171.69 163.88 C 171.59 164.73 172.21 165.51 173.06 165.60 C 173.92 165.70 174.69 165.08 174.79 164.23 L 174.90 163.23 C 175.00 162.38 174.38 161.60 173.53 161.51 C 172.67 161.41 171.90 162.03 171.80 162.88 Z M 171.70 163.79 L 171.53 164.78 C 171.39 165.63 171.96 166.44 172.81 166.58 C 173.66 166.72 174.47 166.15 174.61 165.30 L 174.78 164.31 C 174.92 163.46 174.35 162.66 173.50 162.51 C 172.65 162.37 171.84 162.94 171.70 163.79 Z M 171.55 164.67 L 171.32 165.64 C 171.12 166.48 171.63 167.32 172.47 167.53 C 173.31 167.73 174.15 167.21 174.35 166.37 L 174.59 165.41 C 174.79 164.57 174.28 163.73 173.44 163.52 C 172.60 163.32 171.76 163.84 171.55 164.67 Z M 171.35 165.53 L 171.05 166.47 C 170.79 167.29 171.24 168.17 172.06 168.43 C 172.88 168.70 173.76 168.24 174.02 167.42 L 174.32 166.48 C 174.59 165.66 174.13 164.78 173.31 164.52 C 172.49 164.26 171.61 164.71 171.35 165.53 Z M 171.08 166.38 L 170.72 167.31 C 170.41 168.12 170.81 169.02 171.61 169.33 C 172.41 169.65 173.32 169.25 173.63 168.44 L 173.99 167.51 C 174.30 166.71 173.91 165.80 173.10 165.49 C 172.30 165.18 171.39 165.58 171.08 166.38 Z M 170.75 167.24 L 170.33 168.17 C 169.98 168.96 170.34 169.88 171.13 170.24 C 171.91 170.59 172.84 170.23 173.19 169.44 L 173.60 168.51 C 173.95 167.73 173.60 166.80 172.81 166.45 C 172.02 166.10 171.10 166.46 170.75 167.24 Z M 170.36 168.12 L 169.92 169.01 C 169.55 169.79 169.87 170.72 170.64 171.10 C 171.42 171.48 172.35 171.16 172.73 170.38 L 173.16 169.49 C 173.54 168.72 173.22 167.79 172.45 167.41 C 171.67 167.03 170.74 167.35 170.36 168.12 Z M 169.94 168.97 L 169.48 169.86 C 169.08 170.62 169.37 171.57 170.13 171.97 C 170.90 172.37 171.84 172.07 172.24 171.31 L 172.71 170.42 C 173.11 169.66 172.82 168.72 172.05 168.31 C 171.29 167.91 170.34 168.21 169.94 168.97 Z M 169.50 169.83 L 169.01 170.71 C 168.59 171.46 168.86 172.41 169.61 172.83 C 170.36 173.25 171.31 172.98 171.73 172.23 L 172.22 171.35 C 172.64 170.59 172.37 169.64 171.62 169.22 C 170.87 168.80 169.92 169.07 169.50 169.83 Z M 169.02 170.67 L 168.51 171.54 C 168.08 172.28 168.33 173.24 169.07 173.68 C 169.81 174.11 170.77 173.87 171.21 173.12 L 171.72 172.26 C 172.15 171.51 171.90 170.56 171.16 170.12 C 170.42 169.68 169.46 169.93 169.02 170.67 Z M 168.53 171.51 L 168.01 172.36 C 167.55 173.09 167.78 174.05 168.51 174.51 C 169.24 174.96 170.21 174.74 170.66 174.00 L 171.19 173.15 C 171.64 172.42 171.42 171.46 170.68 171.01 C 169.95 170.55 168.99 170.78 168.53 171.51 Z M 168.03 172.32 L 167.48 173.16 C 167.01 173.88 167.21 174.84 167.93 175.32 C 168.65 175.79 169.62 175.59 170.09 174.87 L 170.64 174.04 C 171.11 173.32 170.91 172.35 170.19 171.88 C 169.47 171.40 168.50 171.60 168.03 172.32 Z M 167.51 173.12 L 166.93 173.93 C 166.44 174.64 166.61 175.61 167.31 176.11 C 168.02 176.60 168.99 176.43 169.49 175.73 L 170.06 174.91 C 170.56 174.21 170.39 173.23 169.68 172.74 C 168.98 172.24 168.00 172.41 167.51 173.12 Z M 166.96 173.89 L 166.42 174.61 C 165.90 175.30 166.04 176.28 166.73 176.80 C 167.42 177.32 168.40 177.18 168.92 176.49 L 169.46 175.77 C 169.98 175.08 169.84 174.10 169.15 173.58 C 168.46 173.06 167.48 173.20 166.96 173.89 Z M 166.46 174.57 L 165.86 175.30 C 165.32 175.97 165.42 176.95 166.09 177.50 C 166.76 178.04 167.74 177.94 168.29 177.27 L 168.88 176.53 C 169.43 175.86 169.32 174.88 168.65 174.34 C 167.98 173.80 167.00 173.90 166.46 174.57 Z M 165.90 175.25 L 165.22 176.03 C 164.65 176.67 164.72 177.66 165.36 178.23 C 166.01 178.80 167.00 178.74 167.57 178.09 L 168.25 177.32 C 168.82 176.67 168.75 175.68 168.11 175.11 C 167.46 174.54 166.47 174.61 165.90 175.25 Z M 165.26 175.98 L 164.49 176.79 C 163.90 177.42 163.93 178.40 164.55 179.00 C 165.18 179.59 166.16 179.57 166.76 178.94 L 167.53 178.13 C 168.12 177.51 168.10 176.52 167.47 175.93 C 166.85 175.33 165.86 175.36 165.26 175.98 Z M 164.53 176.76 L 163.87 177.41 C 163.25 178.02 163.25 179.01 163.86 179.62 C 164.46 180.23 165.45 180.24 166.06 179.63 L 166.72 178.98 C 167.34 178.37 167.34 177.38 166.74 176.77 C 166.13 176.16 165.14 176.15 164.53 176.76 Z M 163.90 177.38 L 163.18 178.06 C 162.55 178.65 162.52 179.63 163.11 180.26 C 163.70 180.89 164.68 180.92 165.31 180.33 L 166.03 179.66 C 166.66 179.07 166.69 178.08 166.10 177.45 C 165.51 176.82 164.53 176.79 163.90 177.38 Z M 163.21 178.03 L 162.45 178.70 C 161.80 179.27 161.74 180.26 162.31 180.91 C 162.88 181.55 163.87 181.61 164.51 181.04 L 165.28 180.37 C 165.93 179.79 165.99 178.81 165.42 178.16 C 164.84 177.52 163.86 177.45 163.21 178.03 Z M 162.49 178.67 L 161.69 179.33 C 161.02 179.88 160.93 180.86 161.48 181.53 C 162.02 182.19 163.01 182.29 163.67 181.74 L 164.47 181.08 C 165.14 180.53 165.23 179.54 164.68 178.88 C 164.14 178.21 163.15 178.12 162.49 178.67 Z M 161.74 179.29 L 160.92 179.91 C 160.23 180.43 160.10 181.41 160.62 182.10 C 161.14 182.79 162.12 182.92 162.80 182.40 L 163.62 181.78 C 164.31 181.25 164.44 180.27 163.92 179.59 C 163.40 178.90 162.42 178.77 161.74 179.29 Z M 160.98 179.87 L 160.10 180.47 C 159.39 180.95 159.21 181.92 159.70 182.64 C 160.18 183.35 161.15 183.53 161.87 183.04 L 162.74 182.44 C 163.45 181.96 163.64 180.99 163.15 180.27 C 162.66 179.56 161.69 179.38 160.98 179.87 Z M 160.18 180.42 L 159.28 180.96 C 158.55 181.41 158.31 182.37 158.76 183.10 C 159.20 183.84 160.16 184.08 160.90 183.63 L 161.79 183.09 C 162.53 182.64 162.77 181.68 162.32 180.95 C 161.87 180.21 160.91 179.97 160.18 180.42 Z M 159.36 180.91 L 158.47 181.39 C 157.71 181.79 157.42 182.74 157.82 183.50 C 158.23 184.26 159.17 184.55 159.93 184.15 L 160.82 183.67 C 161.58 183.27 161.88 182.33 161.47 181.56 C 161.07 180.80 160.12 180.51 159.36 180.91 Z M 158.55 181.35 L 157.67 181.75 C 156.88 182.11 156.54 183.04 156.90 183.82 C 157.26 184.60 158.18 184.95 158.97 184.59 L 159.85 184.19 C 160.63 183.83 160.98 182.90 160.62 182.12 C 160.26 181.33 159.34 180.99 158.55 181.35 Z M 157.75 181.72 L 156.88 182.05 C 156.07 182.37 155.67 183.27 155.99 184.07 C 156.30 184.88 157.20 185.28 158.01 184.97 L 158.88 184.63 C 159.68 184.31 160.08 183.41 159.77 182.61 C 159.46 181.80 158.56 181.40 157.75 181.72 Z M 156.97 182.02 L 155.99 182.33 C 155.17 182.59 154.72 183.47 154.97 184.29 C 155.23 185.11 156.11 185.57 156.93 185.31 L 157.91 185.00 C 158.73 184.74 159.19 183.86 158.93 183.04 C 158.67 182.22 157.79 181.76 156.97 182.02 Z M 156.10 182.30 L 155.10 182.54 C 154.27 182.74 153.75 183.58 153.95 184.42 C 154.15 185.26 155.00 185.78 155.83 185.58 L 156.83 185.34 C 157.67 185.14 158.18 184.29 157.98 183.45 C 157.78 182.62 156.94 182.10 156.10 182.30 Z M 155.21 182.52 L 154.23 182.68 C 153.38 182.83 152.81 183.64 152.95 184.49 C 153.10 185.34 153.90 185.91 154.75 185.76 L 155.73 185.60 C 156.58 185.45 157.15 184.65 157.01 183.80 C 156.86 182.95 156.06 182.37 155.21 182.52 Z M 154.33 182.67 L 153.37 182.77 C 152.51 182.86 151.89 183.63 151.98 184.49 C 152.07 185.35 152.84 185.97 153.70 185.88 L 154.66 185.78 C 155.51 185.69 156.14 184.92 156.04 184.06 C 155.95 183.20 155.19 182.58 154.33 182.67 Z M 153.46 182.77 L 152.49 182.81 C 151.63 182.85 150.96 183.58 151.00 184.44 C 151.05 185.31 151.78 185.97 152.64 185.93 L 153.61 185.88 C 154.47 185.84 155.13 185.11 155.09 184.25 C 155.05 183.39 154.32 182.73 153.46 182.77 Z M 152.61 182.81 L 151.63 182.78 C 150.77 182.75 150.05 183.43 150.03 184.29 C 150.00 185.15 150.68 185.87 151.54 185.90 L 152.52 185.93 C 153.38 185.96 154.10 185.28 154.12 184.42 C 154.15 183.56 153.47 182.84 152.61 182.81 Z M 151.81 182.80 L 150.84 182.65 C 149.99 182.53 149.20 183.12 149.07 183.97 C 148.94 184.82 149.53 185.61 150.39 185.74 L 151.36 185.88 C 152.21 186.01 153.00 185.42 153.13 184.57 C 153.26 183.72 152.67 182.92 151.81 182.80 Z M 151.07 182.70 L 150.10 182.41 C 149.27 182.16 148.40 182.63 148.15 183.45 C 147.90 184.28 148.37 185.15 149.19 185.40 L 150.16 185.69 C 150.99 185.94 151.86 185.47 152.11 184.65 C 152.36 183.82 151.89 182.95 151.07 182.70 Z M 150.31 182.49 L 149.46 182.09 C 148.68 181.72 147.75 182.05 147.38 182.83 C 147.01 183.60 147.34 184.54 148.12 184.91 L 148.97 185.31 C 149.75 185.68 150.68 185.35 151.05 184.57 C 151.42 183.80 151.09 182.86 150.31 182.49 Z M 149.62 182.18 L 148.86 181.69 C 148.13 181.23 147.16 181.45 146.70 182.18 C 146.24 182.91 146.46 183.87 147.19 184.33 L 147.95 184.82 C 148.68 185.28 149.65 185.06 150.11 184.33 C 150.57 183.60 150.35 182.64 149.62 182.18 Z M 148.97 181.77 L 148.20 181.18 C 147.51 180.66 146.53 180.79 146.01 181.47 C 145.49 182.16 145.62 183.14 146.30 183.66 L 147.07 184.25 C 147.76 184.78 148.74 184.65 149.26 183.96 C 149.78 183.28 149.65 182.30 148.97 181.77 Z M 148.28 181.25 L 147.51 180.57 C 146.87 180.00 145.88 180.06 145.31 180.70 C 144.74 181.35 144.80 182.34 145.44 182.91 L 146.22 183.59 C 146.86 184.16 147.85 184.10 148.42 183.46 C 148.99 182.81 148.93 181.82 148.28 181.25 Z M 147.57 180.63 L 146.80 179.86 C 146.19 179.25 145.20 179.26 144.59 179.87 C 143.99 180.49 143.99 181.47 144.60 182.08 L 145.38 182.85 C 145.99 183.45 146.98 183.45 147.59 182.83 C 148.19 182.22 148.19 181.23 147.57 180.63 Z M 146.85 179.91 L 146.13 179.14 C 145.55 178.51 144.56 178.47 143.93 179.06 C 143.29 179.65 143.26 180.63 143.84 181.27 L 144.56 182.03 C 145.14 182.66 146.13 182.70 146.76 182.11 C 147.40 181.53 147.43 180.54 146.85 179.91 Z M 146.16 179.18 L 145.53 178.45 C 144.97 177.80 143.98 177.74 143.33 178.31 C 142.68 178.87 142.62 179.86 143.18 180.51 L 143.81 181.23 C 144.38 181.88 145.37 181.95 146.02 181.38 C 146.67 180.81 146.73 179.83 146.16 179.18 Z M 145.56 178.48 L 144.93 177.73 C 144.37 177.06 143.39 176.97 142.73 177.53 C 142.06 178.08 141.98 179.06 142.53 179.73 L 143.16 180.48 C 143.71 181.14 144.70 181.23 145.36 180.68 C 146.02 180.13 146.11 179.14 145.56 178.48 Z M 144.94 177.75 L 144.31 176.96 C 143.77 176.29 142.79 176.19 142.12 176.73 C 141.45 177.27 141.34 178.25 141.88 178.92 L 142.51 179.71 C 143.05 180.38 144.04 180.48 144.71 179.94 C 145.38 179.40 145.48 178.42 144.94 177.75 Z M 144.32 176.98 L 143.69 176.18 C 143.16 175.50 142.18 175.38 141.50 175.92 C 140.82 176.45 140.71 177.43 141.24 178.11 L 141.87 178.91 C 142.40 179.59 143.38 179.70 144.06 179.17 C 144.74 178.64 144.86 177.66 144.32 176.98 Z M 143.70 176.19 L 143.07 175.37 C 142.54 174.69 141.56 174.57 140.88 175.10 C 140.20 175.62 140.07 176.60 140.60 177.29 L 141.23 178.10 C 141.76 178.78 142.74 178.91 143.42 178.38 C 144.10 177.85 144.23 176.87 143.70 176.19 Z M 143.07 175.38 L 142.53 174.67 C 142.00 173.99 141.02 173.86 140.34 174.39 C 139.66 174.91 139.53 175.89 140.05 176.57 L 140.60 177.28 C 141.12 177.96 142.10 178.09 142.79 177.57 C 143.47 177.04 143.60 176.06 143.07 175.38 Z"
      fill="black"
      fill-rule="nonzero" /></svg>