<svg xmlns="http://www.w3.org/2000/svg" width="300" height="300" viewBox="0 0 300 300">
<path d="M 126.30 174.62 L 125.54 173.92 C 124.89 173.35 123.91 173.40 123.33 174.04 C 122.75 174.68 122.81 175.67 123.45 176.24 L 124.21 176.94 C 124.85 177.51 125.84 177.46 126.42 176.82 C 127.00 176.18 126.94 175.19 126.30 174.62 Z M 125.55 173.94 L 124.80 173.24 C 124.17 172.66 123.18 172.69 122.60 173.33 C 122.01 173.96 122.05 174.95 122.68 175.53 L 123.43 176.23 C 124.06 176.81 125.05 176.78 125.64 176.15 C 126.22 175.51 126.18 174.53 125.55 173.94 Z M 124.84 173.28 L 124.12 172.57 C 123.51 171.96 122.52 171.97 121.91 172.58 C 121.31 173.20 121.31 174.19 121.93 174.79 L 122.64 175.50 C 123.26 176.10 124.25 176.10 124.85 175.48 C 125.46 174.87 125.45 173.88 124.84 173.28 Z M 124.17 172.62 L 123.51 171.90 C 122.92 171.27 121.93 171.23 121.30 171.81 C 120.67 172.40 120.63 173.38 121.21 174.02 L 121.88 174.74 C 122.46 175.37 123.45 175.41 124.08 174.83 C 124.72 174.24 124.76 173.26 124.17 172.62 Z M 123.57 171.98 L 122.98 171.24 C 122.44 170.57 121.45 170.46 120.78 171.00 C 120.11 171.54 120.00 172.52 120.54 173.20 L 121.14 173.94 C 121.68 174.61 122.67 174.72 123.34 174.18 C 124.01 173.63 124.11 172.65 123.57 171.98 Z M 123.06 171.35 L 122.49 170.49 C 122.01 169.77 121.04 169.58 120.32 170.05 C 119.61 170.53 119.41 171.50 119.89 172.22 L 120.46 173.08 C 120.94 173.80 121.91 173.99 122.62 173.52 C 123.34 173.04 123.54 172.07 123.06 171.35 Z M 122.57 170.63 L 122.10 169.73 C 121.70 168.97 120.75 168.68 119.99 169.08 C 119.23 169.48 118.93 170.43 119.34 171.19 L 119.81 172.08 C 120.21 172.84 121.15 173.14 121.92 172.73 C 122.68 172.33 122.97 171.39 122.57 170.63 Z M 122.16 169.87 L 121.79 168.96 C 121.47 168.16 120.56 167.77 119.76 168.10 C 118.96 168.42 118.57 169.33 118.90 170.13 L 119.27 171.05 C 119.59 171.85 120.51 172.23 121.30 171.91 C 122.10 171.58 122.49 170.67 122.16 169.87 Z M 121.84 169.10 L 121.56 168.16 C 121.32 167.34 120.45 166.87 119.62 167.11 C 118.80 167.36 118.33 168.23 118.57 169.05 L 118.85 169.99 C 119.09 170.82 119.96 171.29 120.79 171.04 C 121.62 170.80 122.09 169.93 121.84 169.10 Z M 121.60 168.30 L 121.41 167.36 C 121.24 166.51 120.42 165.96 119.57 166.13 C 118.73 166.30 118.18 167.12 118.35 167.97 L 118.54 168.91 C 118.70 169.76 119.53 170.31 120.37 170.14 C 121.22 169.97 121.77 169.15 121.60 168.30 Z M 121.43 167.48 L 121.32 166.52 C 121.22 165.67 120.45 165.05 119.59 165.15 C 118.73 165.25 118.12 166.02 118.22 166.88 L 118.33 167.84 C 118.43 168.70 119.20 169.31 120.06 169.21 C 120.91 169.11 121.53 168.34 121.43 167.48 Z M 121.33 166.63 L 121.28 165.65 C 121.24 164.78 120.51 164.12 119.65 164.16 C 118.79 164.20 118.12 164.93 118.16 165.79 L 118.21 166.77 C 118.25 167.63 118.98 168.30 119.84 168.26 C 120.70 168.22 121.37 167.49 121.33 166.63 Z M 121.28 165.73 L 121.29 164.71 C 121.30 163.85 120.60 163.15 119.74 163.14 C 118.88 163.13 118.18 163.83 118.17 164.69 L 118.16 165.71 C 118.16 166.57 118.85 167.27 119.71 167.28 C 120.58 167.28 121.28 166.59 121.28 165.73 Z M 121.29 164.77 L 121.34 163.72 C 121.37 162.86 120.71 162.13 119.85 162.09 C 118.98 162.05 118.25 162.72 118.22 163.58 L 118.17 164.63 C 118.13 165.49 118.80 166.22 119.66 166.26 C 120.52 166.30 121.25 165.63 121.29 164.77 Z M 121.33 163.76 L 121.40 162.72 C 121.46 161.86 120.81 161.12 119.95 161.06 C 119.09 161.00 118.35 161.65 118.29 162.51 L 118.22 163.54 C 118.16 164.40 118.81 165.15 119.67 165.21 C 120.53 165.27 121.28 164.62 121.33 163.76 Z M 121.40 162.76 L 121.50 161.72 C 121.58 160.86 120.94 160.10 120.09 160.02 C 119.23 159.94 118.47 160.58 118.39 161.44 L 118.29 162.48 C 118.21 163.33 118.85 164.09 119.70 164.17 C 120.56 164.25 121.32 163.62 121.40 162.76 Z M 121.49 161.76 L 121.61 160.75 C 121.72 159.89 121.10 159.11 120.25 159.01 C 119.39 158.91 118.62 159.52 118.51 160.38 L 118.39 161.39 C 118.29 162.25 118.90 163.03 119.76 163.13 C 120.61 163.23 121.39 162.62 121.49 161.76 Z M 121.61 160.80 L 121.75 159.84 C 121.88 158.99 121.30 158.19 120.45 158.06 C 119.59 157.93 118.80 158.52 118.67 159.37 L 118.52 160.33 C 118.39 161.18 118.97 161.98 119.83 162.11 C 120.68 162.24 121.48 161.65 121.61 160.80 Z M 121.74 159.91 L 121.93 158.96 C 122.10 158.12 121.56 157.29 120.71 157.12 C 119.87 156.95 119.04 157.50 118.87 158.34 L 118.68 159.29 C 118.51 160.14 119.06 160.96 119.90 161.13 C 120.75 161.31 121.57 160.76 121.74 159.91 Z M 121.91 159.07 L 122.19 158.05 C 122.42 157.22 121.94 156.36 121.11 156.13 C 120.27 155.89 119.41 156.38 119.18 157.21 L 118.90 158.23 C 118.67 159.06 119.15 159.92 119.99 160.16 C 120.82 160.39 121.68 159.90 121.91 159.07 Z M 122.15 158.16 L 122.48 157.26 C 122.78 156.45 122.36 155.55 121.55 155.26 C 120.74 154.96 119.84 155.38 119.55 156.19 L 119.22 157.10 C 118.93 157.91 119.34 158.80 120.15 159.10 C 120.96 159.39 121.86 158.97 122.15 158.16 Z M 122.45 157.34 L 122.82 156.48 C 123.16 155.68 122.80 154.77 122.00 154.43 C 121.21 154.09 120.29 154.45 119.95 155.24 L 119.58 156.11 C 119.24 156.90 119.61 157.82 120.40 158.16 C 121.19 158.50 122.11 158.13 122.45 157.34 Z M 122.81 156.51 L 123.20 155.67 C 123.56 154.88 123.21 153.96 122.43 153.60 C 121.65 153.23 120.72 153.58 120.36 154.36 L 119.97 155.21 C 119.61 155.99 119.95 156.92 120.73 157.28 C 121.52 157.64 122.44 157.30 122.81 156.51 Z M 123.18 155.69 L 123.61 154.82 C 123.98 154.04 123.66 153.11 122.88 152.73 C 122.11 152.36 121.17 152.68 120.80 153.46 L 120.37 154.33 C 120.00 155.11 120.32 156.04 121.10 156.42 C 121.87 156.79 122.81 156.47 123.18 155.69 Z M 123.59 154.85 L 124.06 153.94 C 124.45 153.18 124.15 152.24 123.38 151.84 C 122.62 151.45 121.67 151.75 121.28 152.52 L 120.81 153.43 C 120.42 154.19 120.72 155.13 121.49 155.53 C 122.25 155.92 123.20 155.62 123.59 154.85 Z M 124.04 153.98 L 124.55 153.05 C 124.96 152.30 124.69 151.35 123.93 150.93 C 123.18 150.52 122.23 150.79 121.81 151.55 L 121.30 152.48 C 120.89 153.23 121.16 154.18 121.92 154.60 C 122.67 155.01 123.62 154.74 124.04 153.98 Z M 124.53 153.09 L 125.02 152.26 C 125.45 151.51 125.20 150.55 124.46 150.12 C 123.71 149.68 122.76 149.93 122.32 150.68 L 121.83 151.51 C 121.40 152.26 121.65 153.21 122.39 153.65 C 123.13 154.09 124.09 153.84 124.53 153.09 Z M 125.00 152.28 L 125.52 151.43 C 125.97 150.70 125.74 149.74 125.00 149.29 C 124.27 148.83 123.31 149.07 122.86 149.80 L 122.34 150.65 C 121.89 151.39 122.12 152.35 122.85 152.80 C 123.59 153.25 124.55 153.02 125.00 152.28 Z M 125.51 151.45 L 126.05 150.59 C 126.51 149.87 126.30 148.90 125.57 148.44 C 124.84 147.98 123.88 148.20 123.41 148.92 L 122.87 149.78 C 122.41 150.51 122.63 151.47 123.35 151.94 C 124.08 152.40 125.05 152.18 125.51 151.45 Z M 126.04 150.61 L 126.60 149.75 C 127.07 149.03 126.86 148.06 126.14 147.59 C 125.41 147.12 124.45 147.33 123.98 148.05 L 123.42 148.91 C 122.95 149.63 123.16 150.60 123.88 151.07 C 124.61 151.54 125.57 151.33 126.04 150.61 Z M 126.59 149.76 L 127.14 148.93 C 127.61 148.21 127.42 147.24 126.70 146.77 C 125.98 146.29 125.01 146.49 124.53 147.21 L 123.98 148.04 C 123.51 148.76 123.71 149.73 124.43 150.21 C 125.15 150.68 126.12 150.48 126.59 149.76 Z M 127.13 148.94 L 127.68 148.12 C 128.16 147.40 127.97 146.43 127.26 145.95 C 126.54 145.47 125.57 145.66 125.09 146.38 L 124.54 147.20 C 124.06 147.92 124.25 148.89 124.97 149.37 C 125.68 149.85 126.65 149.66 127.13 148.94 Z M 127.67 148.13 L 128.24 147.31 C 128.73 146.60 128.55 145.63 127.84 145.14 C 127.13 144.65 126.15 144.83 125.67 145.54 L 125.10 146.36 C 124.61 147.07 124.79 148.05 125.50 148.53 C 126.21 149.02 127.19 148.84 127.67 148.13 Z M 128.23 147.33 L 128.81 146.50 C 129.31 145.80 129.14 144.83 128.44 144.33 C 127.73 143.83 126.76 144.00 126.26 144.70 L 125.68 145.53 C 125.18 146.23 125.35 147.20 126.05 147.70 C 126.76 148.20 127.73 148.03 128.23 147.33 Z M 128.80 146.52 L 129.38 145.72 C 129.89 145.02 129.74 144.04 129.04 143.53 C 128.35 143.03 127.37 143.18 126.86 143.88 L 126.27 144.68 C 125.77 145.38 125.92 146.36 126.61 146.86 C 127.31 147.37 128.29 147.22 128.80 146.52 Z M 129.37 145.74 L 129.96 144.95 C 130.48 144.26 130.34 143.28 129.66 142.76 C 128.97 142.24 127.99 142.38 127.47 143.07 L 126.88 143.86 C 126.36 144.55 126.50 145.52 127.18 146.04 C 127.87 146.56 128.85 146.42 129.37 145.74 Z M 129.95 144.97 L 130.56 144.18 C 131.09 143.50 130.97 142.51 130.29 141.99 C 129.60 141.46 128.62 141.58 128.09 142.26 L 127.48 143.05 C 126.95 143.73 127.08 144.71 127.76 145.24 C 128.44 145.77 129.42 145.65 129.95 144.97 Z M 130.55 144.19 L 131.18 143.40 C 131.72 142.73 131.61 141.75 130.93 141.21 C 130.26 140.67 129.28 140.78 128.74 141.46 L 128.11 142.25 C 127.57 142.92 127.68 143.90 128.35 144.44 C 129.03 144.98 130.01 144.87 130.55 144.19 Z M 131.17 143.42 L 131.81 142.64 C 132.36 141.97 132.26 140.99 131.59 140.44 C 130.93 139.89 129.94 139.99 129.40 140.66 L 128.75 141.44 C 128.20 142.11 128.30 143.09 128.97 143.64 C 129.63 144.18 130.62 144.09 131.17 143.42 Z M 131.80 142.65 L 132.46 141.87 C 133.01 141.21 132.93 140.23 132.27 139.67 C 131.61 139.11 130.62 139.20 130.07 139.86 L 129.41 140.64 C 128.85 141.30 128.94 142.28 129.60 142.84 C 130.26 143.39 131.24 143.31 131.80 142.65 Z M 132.44 141.89 L 133.11 141.12 C 133.67 140.46 133.60 139.48 132.95 138.91 C 132.30 138.35 131.31 138.42 130.75 139.07 L 130.08 139.84 C 129.52 140.49 129.59 141.48 130.24 142.04 C 130.89 142.61 131.88 142.54 132.44 141.89 Z M 133.09 141.13 L 133.76 140.38 C 134.34 139.74 134.28 138.75 133.64 138.18 C 132.99 137.60 132.01 137.66 131.43 138.30 L 130.76 139.05 C 130.19 139.70 130.25 140.68 130.89 141.26 C 131.53 141.83 132.52 141.78 133.09 141.13 Z M 133.75 140.40 L 134.42 139.67 C 135.00 139.04 134.96 138.05 134.32 137.47 C 133.69 136.88 132.70 136.92 132.12 137.56 L 131.45 138.29 C 130.87 138.92 130.91 139.91 131.54 140.49 C 132.18 141.07 133.17 141.03 133.75 140.40 Z M 134.40 139.69 L 135.07 138.98 C 135.66 138.36 135.64 137.37 135.01 136.78 C 134.39 136.18 133.40 136.21 132.81 136.83 L 132.13 137.54 C 131.54 138.17 131.57 139.15 132.19 139.75 C 132.82 140.34 133.80 140.31 134.40 139.69 Z M 135.05 139.00 L 135.77 138.28 C 136.37 137.66 136.37 136.67 135.75 136.07 C 135.14 135.46 134.15 135.47 133.55 136.08 L 132.83 136.81 C 132.22 137.42 132.23 138.41 132.84 139.02 C 133.45 139.62 134.44 139.62 135.05 139.00 Z M 135.74 138.30 L 136.46 137.61 C 137.08 137.01 137.09 136.02 136.49 135.40 C 135.89 134.78 134.91 134.76 134.29 135.36 L 133.57 136.06 C 132.95 136.66 132.94 137.65 133.54 138.27 C 134.13 138.89 135.12 138.90 135.74 138.30 Z M 136.43 137.63 L 137.16 136.97 C 137.79 136.38 137.83 135.39 137.24 134.76 C 136.66 134.13 135.67 134.09 135.04 134.67 L 134.31 135.34 C 133.68 135.92 133.64 136.91 134.23 137.54 C 134.81 138.18 135.80 138.22 136.43 137.63 Z M 137.13 136.99 L 137.87 136.34 C 138.52 135.77 138.58 134.78 138.01 134.14 C 137.44 133.49 136.46 133.42 135.81 133.99 L 135.07 134.64 C 134.42 135.21 134.35 136.20 134.92 136.85 C 135.49 137.50 136.48 137.56 137.13 136.99 Z M 137.84 136.36 L 138.61 135.72 C 139.27 135.17 139.36 134.18 138.81 133.52 C 138.26 132.86 137.27 132.77 136.61 133.32 L 135.84 133.97 C 135.18 134.52 135.09 135.51 135.64 136.17 C 136.19 136.83 137.18 136.92 137.84 136.36 Z M 138.58 135.74 L 139.37 135.11 C 140.05 134.58 140.16 133.59 139.62 132.92 C 139.08 132.25 138.10 132.13 137.43 132.67 L 136.64 133.30 C 135.96 133.84 135.85 134.82 136.39 135.50 C 136.93 136.17 137.91 136.28 138.58 135.74 Z M 139.34 135.14 L 140.14 134.53 C 140.83 134.01 140.96 133.03 140.44 132.34 C 139.92 131.65 138.94 131.52 138.26 132.04 L 137.46 132.65 C 136.77 133.17 136.64 134.15 137.16 134.84 C 137.68 135.52 138.66 135.66 139.34 135.14 Z M 140.12 134.55 L 140.91 133.97 C 141.61 133.47 141.77 132.49 141.26 131.79 C 140.76 131.09 139.78 130.94 139.08 131.44 L 138.28 132.02 C 137.59 132.53 137.43 133.50 137.94 134.20 C 138.44 134.90 139.42 135.06 140.12 134.55 Z M 140.88 133.99 L 141.74 133.41 C 142.45 132.92 142.63 131.95 142.14 131.24 C 141.65 130.53 140.68 130.34 139.97 130.83 L 139.12 131.42 C 138.40 131.91 138.22 132.88 138.71 133.59 C 139.20 134.30 140.17 134.48 140.88 133.99 Z M 141.70 133.43 L 142.56 132.88 C 143.28 132.41 143.49 131.45 143.03 130.72 C 142.56 130.00 141.59 129.79 140.87 130.25 L 140.01 130.81 C 139.28 131.27 139.08 132.24 139.54 132.97 C 140.01 133.69 140.98 133.90 141.70 133.43 Z M 142.52 132.91 L 143.36 132.40 C 144.10 131.96 144.34 131.00 143.90 130.26 C 143.45 129.52 142.49 129.28 141.75 129.72 L 140.91 130.23 C 140.17 130.67 139.93 131.63 140.37 132.37 C 140.82 133.11 141.78 133.35 142.52 132.91 Z M 143.31 132.43 L 144.14 131.97 C 144.90 131.55 145.17 130.60 144.75 129.84 C 144.33 129.09 143.38 128.82 142.63 129.23 L 141.80 129.69 C 141.05 130.11 140.77 131.06 141.19 131.82 C 141.61 132.57 142.56 132.84 143.31 132.43 Z M 144.08 132.00 L 144.85 131.62 C 145.62 131.23 145.94 130.29 145.55 129.52 C 145.17 128.75 144.23 128.44 143.46 128.82 L 142.69 129.20 C 141.92 129.59 141.60 130.52 141.99 131.30 C 142.37 132.07 143.31 132.38 144.08 132.00 Z M 144.74 131.66 L 145.57 131.33 C 146.37 131.00 146.76 130.09 146.43 129.29 C 146.11 128.50 145.20 128.11 144.40 128.43 L 143.57 128.77 C 142.77 129.10 142.38 130.01 142.71 130.80 C 143.03 131.60 143.94 131.99 144.74 131.66 Z M 145.43 131.38 L 146.40 131.09 C 147.23 130.85 147.70 129.98 147.45 129.15 C 147.21 128.32 146.34 127.85 145.51 128.10 L 144.54 128.38 C 143.72 128.63 143.24 129.50 143.49 130.32 C 143.73 131.15 144.60 131.62 145.43 131.38 Z M 146.26 131.13 L 147.44 130.90 C 148.28 130.73 148.84 129.91 148.67 129.06 C 148.51 128.22 147.69 127.67 146.84 127.83 L 145.66 128.06 C 144.81 128.23 144.26 129.05 144.42 129.89 C 144.59 130.74 145.41 131.29 146.26 131.13 Z M 147.34 130.91 L 148.29 130.79 C 149.14 130.68 149.75 129.90 149.64 129.05 C 149.53 128.19 148.75 127.59 147.89 127.69 L 146.94 127.81 C 146.09 127.92 145.48 128.71 145.59 129.56 C 145.70 130.42 146.48 131.02 147.34 130.91 Z M 148.22 130.80 L 149.22 130.71 C 150.08 130.64 150.72 129.89 150.65 129.03 C 150.57 128.17 149.82 127.53 148.96 127.60 L 147.96 127.69 C 147.10 127.76 146.46 128.52 146.53 129.37 C 146.61 130.23 147.36 130.87 148.22 130.80 Z M 149.16 130.72 L 150.21 130.67 C 151.07 130.63 151.74 129.90 151.70 129.03 C 151.66 128.17 150.93 127.51 150.06 127.55 L 149.02 127.60 C 148.15 127.64 147.49 128.37 147.53 129.23 C 147.57 130.09 148.30 130.76 149.16 130.72 Z M 150.15 130.67 L 151.21 130.66 C 152.07 130.65 152.77 129.95 152.76 129.09 C 152.75 128.22 152.04 127.53 151.18 127.54 L 150.12 127.55 C 149.26 127.55 148.57 128.26 148.58 129.12 C 148.58 129.98 149.29 130.68 150.15 130.67 Z M 151.14 130.66 L 152.17 130.69 C 153.03 130.72 153.76 130.05 153.79 129.19 C 153.82 128.33 153.14 127.60 152.28 127.57 L 151.25 127.54 C 150.39 127.51 149.67 128.18 149.64 129.05 C 149.61 129.91 150.28 130.63 151.14 130.66 Z M 152.09 130.69 L 153.05 130.77 C 153.91 130.85 154.67 130.22 154.74 129.36 C 154.82 128.50 154.19 127.74 153.33 127.66 L 152.36 127.58 C 151.51 127.50 150.75 128.14 150.67 129.00 C 150.60 129.86 151.23 130.61 152.09 130.69 Z M 152.92 130.76 L 154.01 130.95 C 154.86 131.10 155.67 130.53 155.82 129.68 C 155.97 128.83 155.40 128.02 154.55 127.87 L 153.46 127.68 C 152.61 127.53 151.80 128.10 151.65 128.95 C 151.50 129.80 152.07 130.61 152.92 130.76 Z M 153.81 130.90 L 154.86 131.23 C 155.68 131.49 156.56 131.03 156.81 130.20 C 157.07 129.38 156.61 128.51 155.79 128.25 L 154.75 127.92 C 153.92 127.66 153.05 128.12 152.79 128.94 C 152.53 129.77 152.99 130.64 153.81 130.90 Z M 154.64 131.14 L 155.50 131.56 C 156.28 131.94 157.21 131.61 157.59 130.84 C 157.97 130.06 157.64 129.13 156.87 128.75 L 156.01 128.33 C 155.23 127.96 154.30 128.28 153.92 129.06 C 153.54 129.83 153.87 130.77 154.64 131.14 Z M 155.33 131.46 L 156.06 131.94 C 156.78 132.42 157.75 132.22 158.23 131.50 C 158.70 130.78 158.50 129.81 157.78 129.34 L 157.05 128.85 C 156.33 128.38 155.36 128.58 154.88 129.30 C 154.41 130.02 154.61 130.98 155.33 131.46 Z M 155.95 131.86 L 156.66 132.43 C 157.33 132.97 158.32 132.85 158.85 132.18 C 159.39 131.51 159.28 130.52 158.60 129.99 L 157.90 129.42 C 157.22 128.88 156.24 128.99 155.70 129.67 C 155.16 130.34 155.28 131.33 155.95 131.86 Z M 156.59 132.37 L 157.33 133.03 C 157.97 133.61 158.96 133.55 159.53 132.91 C 160.11 132.26 160.05 131.28 159.41 130.70 L 158.67 130.04 C 158.03 129.47 157.04 129.52 156.47 130.17 C 155.89 130.81 155.95 131.80 156.59 132.37 Z M 157.27 132.98 L 157.98 133.68 C 158.59 134.28 159.58 134.28 160.19 133.67 C 160.80 133.05 160.79 132.06 160.18 131.46 L 159.47 130.76 C 158.86 130.15 157.87 130.16 157.26 130.77 C 156.65 131.38 156.66 132.37 157.27 132.98 Z M 157.93 133.63 L 158.62 134.37 C 159.21 135.00 160.19 135.04 160.83 134.45 C 161.46 133.87 161.50 132.88 160.91 132.25 L 160.22 131.51 C 159.64 130.87 158.65 130.84 158.02 131.42 C 157.39 132.01 157.35 133.00 157.93 133.63 Z M 158.58 134.33 L 159.23 135.07 C 159.79 135.73 160.77 135.80 161.43 135.24 C 162.08 134.68 162.15 133.69 161.59 133.04 L 160.95 132.29 C 160.39 131.64 159.40 131.56 158.75 132.13 C 158.09 132.69 158.02 133.67 158.58 134.33 Z M 159.19 135.04 L 159.82 135.81 C 160.36 136.48 161.34 136.58 162.01 136.04 C 162.68 135.50 162.79 134.51 162.24 133.84 L 161.62 133.07 C 161.08 132.40 160.10 132.30 159.43 132.84 C 158.76 133.38 158.65 134.37 159.19 135.04 Z M 159.79 135.77 L 160.40 136.57 C 160.92 137.26 161.90 137.39 162.59 136.87 C 163.27 136.35 163.41 135.37 162.88 134.68 L 162.27 133.88 C 161.75 133.19 160.77 133.06 160.08 133.58 C 159.40 134.11 159.27 135.08 159.79 135.77 Z M 160.37 136.54 L 160.97 137.37 C 161.47 138.07 162.45 138.23 163.15 137.72 C 163.85 137.22 164.01 136.24 163.50 135.54 L 162.91 134.71 C 162.40 134.01 161.43 133.85 160.73 134.36 C 160.03 134.86 159.87 135.84 160.37 136.54 Z M 160.95 137.33 L 161.51 138.16 C 161.99 138.87 162.96 139.06 163.68 138.57 C 164.39 138.09 164.57 137.11 164.09 136.40 L 163.53 135.58 C 163.04 134.86 162.07 134.68 161.36 135.17 C 160.65 135.65 160.46 136.62 160.95 137.33 Z M 161.49 138.13 L 162.03 138.97 C 162.50 139.69 163.47 139.90 164.19 139.43 C 164.92 138.96 165.12 138.00 164.65 137.27 L 164.11 136.43 C 163.64 135.71 162.67 135.50 161.95 135.97 C 161.23 136.44 161.02 137.41 161.49 138.13 Z M 162.02 138.94 L 162.54 139.80 C 163.00 140.53 163.96 140.76 164.69 140.30 C 165.43 139.85 165.65 138.89 165.20 138.15 L 164.67 137.30 C 164.22 136.57 163.26 136.34 162.52 136.79 C 161.79 137.25 161.56 138.21 162.02 138.94 Z M 162.53 139.77 L 163.04 140.63 C 163.48 141.37 164.43 141.62 165.18 141.18 C 165.92 140.74 166.16 139.78 165.72 139.04 L 165.21 138.18 C 164.78 137.44 163.82 137.19 163.08 137.63 C 162.33 138.07 162.09 139.03 162.53 139.77 Z M 163.02 140.60 L 163.53 141.51 C 163.96 142.26 164.91 142.52 165.66 142.09 C 166.41 141.67 166.67 140.72 166.25 139.97 L 165.74 139.06 C 165.31 138.31 164.36 138.05 163.61 138.48 C 162.86 138.90 162.60 139.85 163.02 140.60 Z M 163.52 141.48 L 164.00 142.38 C 164.41 143.13 165.36 143.42 166.12 143.01 C 166.88 142.59 167.16 141.65 166.75 140.89 L 166.26 139.99 C 165.85 139.24 164.91 138.95 164.15 139.36 C 163.39 139.77 163.11 140.72 163.52 141.48 Z M 163.99 142.35 L 164.44 143.23 C 164.84 143.99 165.78 144.29 166.54 143.90 C 167.31 143.50 167.61 142.56 167.22 141.80 L 166.76 140.92 C 166.37 140.15 165.43 139.85 164.66 140.24 C 163.90 140.64 163.59 141.58 163.99 142.35 Z M 164.42 143.19 L 164.84 144.06 C 165.22 144.83 166.16 145.16 166.93 144.78 C 167.71 144.40 168.03 143.47 167.65 142.69 L 167.23 141.83 C 166.86 141.05 165.92 140.73 165.15 141.11 C 164.37 141.48 164.05 142.42 164.42 143.19 Z M 164.82 144.02 L 165.24 144.93 C 165.59 145.72 166.52 146.07 167.30 145.71 C 168.09 145.36 168.44 144.43 168.08 143.65 L 167.67 142.73 C 167.32 141.95 166.39 141.60 165.61 141.95 C 164.82 142.31 164.47 143.23 164.82 144.02 Z M 165.21 144.88 L 165.58 145.79 C 165.91 146.59 166.82 146.97 167.62 146.65 C 168.41 146.32 168.80 145.41 168.48 144.61 L 168.11 143.70 C 167.78 142.90 166.87 142.52 166.07 142.84 C 165.28 143.17 164.89 144.08 165.21 144.88 Z M 165.56 145.72 L 165.89 146.67 C 166.18 147.48 167.08 147.90 167.89 147.61 C 168.70 147.33 169.12 146.43 168.84 145.62 L 168.50 144.68 C 168.21 143.87 167.32 143.44 166.51 143.73 C 165.69 144.02 165.27 144.91 165.56 145.72 Z M 165.87 146.61 L 166.17 147.55 C 166.42 148.38 167.30 148.84 168.12 148.59 C 168.94 148.33 169.40 147.46 169.15 146.63 L 168.86 145.68 C 168.60 144.86 167.73 144.40 166.90 144.65 C 166.08 144.91 165.62 145.78 165.87 146.61 Z M 166.15 147.50 L 166.42 148.48 C 166.64 149.31 167.50 149.80 168.33 149.57 C 169.16 149.35 169.65 148.49 169.43 147.66 L 169.16 146.68 C 168.94 145.85 168.08 145.36 167.25 145.59 C 166.42 145.81 165.93 146.67 166.15 147.50 Z M 166.40 148.43 L 166.64 149.42 C 166.84 150.25 167.68 150.77 168.52 150.57 C 169.36 150.37 169.88 149.53 169.68 148.69 L 169.44 147.71 C 169.24 146.87 168.40 146.35 167.56 146.55 C 166.72 146.75 166.20 147.59 166.40 148.43 Z M 166.63 149.37 L 166.83 150.34 C 167.00 151.18 167.83 151.72 168.67 151.55 C 169.52 151.37 170.06 150.55 169.89 149.70 L 169.69 148.74 C 169.51 147.89 168.69 147.35 167.84 147.53 C 167.00 147.70 166.45 148.53 166.63 149.37 Z M 166.82 150.29 L 166.98 151.20 C 167.12 152.05 167.93 152.62 168.78 152.47 C 169.63 152.33 170.20 151.52 170.05 150.67 L 169.90 149.76 C 169.75 148.91 168.94 148.34 168.09 148.48 C 167.24 148.63 166.67 149.44 166.82 150.29 Z M 166.97 151.14 L 167.09 152.07 C 167.20 152.93 167.98 153.53 168.84 153.42 C 169.69 153.31 170.30 152.52 170.19 151.67 L 170.06 150.73 C 169.95 149.88 169.17 149.28 168.31 149.39 C 167.46 149.50 166.86 150.28 166.97 151.14 Z M 167.08 152.01 L 167.17 153.03 C 167.25 153.89 168.00 154.52 168.86 154.45 C 169.72 154.37 170.36 153.62 170.28 152.76 L 170.19 151.74 C 170.12 150.88 169.36 150.24 168.50 150.32 C 167.64 150.39 167.01 151.15 167.08 152.01 Z M 167.17 152.97 L 167.22 154.04 C 167.27 154.90 168.00 155.56 168.86 155.52 C 169.72 155.47 170.39 154.74 170.34 153.88 L 170.29 152.81 C 170.24 151.95 169.51 151.29 168.65 151.33 C 167.78 151.38 167.12 152.11 167.17 152.97 Z M 167.22 154.00 L 167.24 154.92 C 167.26 155.78 167.98 156.46 168.84 156.44 C 169.70 156.42 170.38 155.71 170.36 154.85 L 170.34 153.93 C 170.32 153.06 169.61 152.38 168.75 152.40 C 167.88 152.42 167.20 153.13 167.22 154.00 Z M 167.24 154.86 L 167.23 155.85 C 167.21 156.71 167.90 157.42 168.76 157.43 C 169.63 157.44 170.34 156.76 170.35 155.89 L 170.36 154.91 C 170.38 154.04 169.69 153.33 168.83 153.32 C 167.96 153.31 167.25 154.00 167.24 154.86 Z M 167.23 155.77 L 167.16 156.79 C 167.11 157.65 167.76 158.40 168.62 158.45 C 169.48 158.51 170.22 157.86 170.28 157.00 L 170.35 155.97 C 170.40 155.11 169.75 154.37 168.89 154.31 C 168.03 154.26 167.29 154.91 167.23 155.77 Z M 167.17 156.69 L 167.04 157.73 C 166.93 158.59 167.53 159.37 168.39 159.48 C 169.24 159.59 170.02 158.99 170.14 158.13 L 170.27 157.10 C 170.38 156.24 169.78 155.46 168.92 155.35 C 168.07 155.24 167.28 155.84 167.17 156.69 Z M 167.06 157.60 L 166.84 158.63 C 166.66 159.47 167.20 160.30 168.04 160.48 C 168.88 160.66 169.71 160.13 169.89 159.28 L 170.11 158.26 C 170.29 157.42 169.76 156.59 168.91 156.41 C 168.07 156.23 167.24 156.76 167.06 157.60 Z M 166.88 158.48 L 166.56 159.49 C 166.29 160.31 166.75 161.19 167.57 161.45 C 168.39 161.71 169.27 161.26 169.53 160.44 L 169.85 159.43 C 170.12 158.61 169.67 157.73 168.84 157.47 C 168.02 157.21 167.14 157.66 166.88 158.48 Z M 166.61 159.35 L 166.20 160.31 C 165.86 161.10 166.23 162.02 167.02 162.36 C 167.81 162.70 168.73 162.33 169.07 161.54 L 169.48 160.58 C 169.82 159.78 169.45 158.87 168.66 158.53 C 167.86 158.19 166.95 158.56 166.61 159.35 Z M 166.25 160.20 L 165.78 161.10 C 165.38 161.86 165.67 162.80 166.43 163.20 C 167.20 163.61 168.14 163.31 168.54 162.55 L 169.02 161.65 C 169.42 160.88 169.12 159.94 168.36 159.54 C 167.60 159.14 166.65 159.43 166.25 160.20 Z M 165.83 161.00 L 165.32 161.84 C 164.86 162.57 165.09 163.53 165.83 163.99 C 166.56 164.44 167.52 164.21 167.98 163.48 L 168.49 162.64 C 168.94 161.91 168.71 160.95 167.98 160.49 C 167.25 160.04 166.28 160.27 165.83 161.00 Z M 165.37 161.76 L 164.83 162.52 C 164.34 163.23 164.51 164.20 165.22 164.70 C 165.92 165.19 166.90 165.02 167.39 164.31 L 167.92 163.55 C 168.42 162.85 168.25 161.87 167.54 161.38 C 166.84 160.88 165.86 161.06 165.37 161.76 Z M 164.89 162.45 L 164.23 163.28 C 163.70 163.96 163.81 164.94 164.49 165.48 C 165.16 166.01 166.15 165.89 166.68 165.22 L 167.34 164.39 C 167.87 163.71 167.76 162.73 167.08 162.19 C 166.40 161.66 165.42 161.77 164.89 162.45 Z M 164.30 163.21 L 163.60 163.98 C 163.02 164.62 163.08 165.60 163.72 166.18 C 164.36 166.76 165.34 166.71 165.92 166.07 L 166.62 165.30 C 167.19 164.65 167.14 163.67 166.50 163.09 C 165.86 162.51 164.87 162.56 164.30 163.21 Z M 163.67 163.90 L 162.98 164.58 C 162.36 165.18 162.35 166.17 162.95 166.78 C 163.55 167.40 164.54 167.42 165.16 166.81 L 165.85 166.14 C 166.47 165.54 166.48 164.55 165.88 163.93 C 165.28 163.31 164.29 163.30 163.67 163.90 Z M 163.05 164.51 L 162.35 165.12 C 161.70 165.68 161.63 166.67 162.19 167.32 C 162.75 167.97 163.74 168.04 164.39 167.48 L 165.09 166.88 C 165.74 166.31 165.81 165.32 165.25 164.67 C 164.68 164.02 163.70 163.95 163.05 164.51 Z M 162.40 165.07 L 161.62 165.69 C 160.95 166.22 160.83 167.20 161.36 167.88 C 161.90 168.56 162.88 168.67 163.56 168.14 L 164.34 167.53 C 165.01 166.99 165.13 166.01 164.60 165.33 C 164.06 164.66 163.08 164.54 162.40 165.07 Z M 161.67 165.65 L 160.86 166.24 C 160.16 166.75 160.01 167.72 160.51 168.42 C 161.02 169.12 161.99 169.27 162.69 168.77 L 163.51 168.18 C 164.20 167.67 164.36 166.70 163.85 166.00 C 163.35 165.30 162.37 165.14 161.67 165.65 Z M 160.90 166.21 L 160.08 166.77 C 159.36 167.25 159.18 168.22 159.66 168.93 C 160.14 169.65 161.11 169.84 161.83 169.35 L 162.65 168.80 C 163.37 168.31 163.55 167.34 163.07 166.63 C 162.59 165.91 161.62 165.73 160.90 166.21 Z M 160.11 166.75 L 159.28 167.28 C 158.55 167.74 158.34 168.71 158.80 169.44 C 159.27 170.16 160.23 170.37 160.96 169.91 L 161.79 169.38 C 162.52 168.91 162.73 167.95 162.27 167.22 C 161.80 166.49 160.84 166.28 160.11 166.75 Z M 159.30 167.26 L 158.44 167.79 C 157.71 168.24 157.48 169.20 157.93 169.93 C 158.38 170.67 159.34 170.90 160.07 170.45 L 160.93 169.93 C 161.67 169.48 161.90 168.52 161.45 167.78 C 161.00 167.05 160.04 166.81 159.30 167.26 Z M 158.47 167.77 L 157.61 168.27 C 156.87 168.70 156.61 169.66 157.04 170.40 C 157.48 171.15 158.43 171.40 159.18 170.97 L 160.04 170.47 C 160.79 170.04 161.04 169.08 160.61 168.34 C 160.18 167.59 159.22 167.34 158.47 167.77 Z M 157.64 168.25 L 156.77 168.73 C 156.02 169.14 155.74 170.09 156.16 170.85 C 156.57 171.60 157.52 171.88 158.27 171.47 L 159.15 170.99 C 159.90 170.57 160.18 169.63 159.76 168.87 C 159.35 168.11 158.40 167.84 157.64 168.25 Z M 156.81 168.71 L 155.91 169.17 C 155.15 169.57 154.85 170.51 155.24 171.28 C 155.64 172.04 156.58 172.34 157.34 171.95 L 158.24 171.49 C 159.01 171.09 159.31 170.15 158.91 169.38 C 158.52 168.62 157.58 168.32 156.81 168.71 Z M 155.95 169.15 L 155.05 169.59 C 154.27 169.96 153.94 170.89 154.31 171.67 C 154.69 172.45 155.62 172.77 156.40 172.40 L 157.30 171.97 C 158.08 171.60 158.41 170.66 158.04 169.89 C 157.66 169.11 156.73 168.78 155.95 169.15 Z M 155.10 169.56 L 154.18 169.96 C 153.39 170.31 153.03 171.23 153.38 172.02 C 153.73 172.81 154.65 173.17 155.44 172.82 L 156.35 172.42 C 157.14 172.08 157.50 171.16 157.15 170.37 C 156.81 169.58 155.88 169.22 155.10 169.56 Z M 154.24 169.94 L 153.38 170.28 C 152.58 170.59 152.18 171.50 152.50 172.30 C 152.81 173.10 153.72 173.50 154.52 173.18 L 155.38 172.85 C 156.18 172.53 156.58 171.62 156.26 170.82 C 155.95 170.02 155.04 169.62 154.24 169.94 Z M 153.46 170.25 L 152.61 170.53 C 151.80 170.81 151.36 171.69 151.63 172.51 C 151.90 173.33 152.79 173.77 153.61 173.49 L 154.45 173.21 C 155.27 172.93 155.71 172.05 155.43 171.23 C 155.16 170.42 154.27 169.97 153.46 170.25 Z M 152.70 170.50 L 151.76 170.76 C 150.93 170.98 150.43 171.84 150.66 172.67 C 150.88 173.50 151.74 174.00 152.57 173.77 L 153.51 173.52 C 154.35 173.30 154.84 172.44 154.62 171.61 C 154.39 170.77 153.54 170.28 152.70 170.50 Z M 151.85 170.74 L 150.74 170.97 C 149.89 171.14 149.35 171.96 149.52 172.81 C 149.70 173.65 150.52 174.20 151.37 174.02 L 152.48 173.80 C 153.32 173.62 153.87 172.80 153.69 171.95 C 153.52 171.11 152.70 170.56 151.85 170.74 Z M 150.80 170.95 L 149.81 171.11 C 148.96 171.25 148.38 172.05 148.52 172.90 C 148.65 173.75 149.45 174.33 150.31 174.20 L 151.30 174.04 C 152.15 173.90 152.73 173.10 152.59 172.25 C 152.46 171.40 151.66 170.82 150.80 170.95 Z M 149.85 171.11 L 148.87 171.24 C 148.01 171.35 147.41 172.14 147.53 172.99 C 147.64 173.85 148.43 174.45 149.28 174.33 L 150.26 174.20 C 151.12 174.09 151.72 173.30 151.61 172.45 C 151.49 171.59 150.71 170.99 149.85 171.11 Z M 148.90 171.23 L 147.87 171.35 C 147.01 171.45 146.39 172.22 146.49 173.08 C 146.59 173.94 147.36 174.55 148.22 174.45 L 149.25 174.34 C 150.11 174.24 150.72 173.46 150.63 172.61 C 150.53 171.75 149.75 171.14 148.90 171.23 Z M 147.89 171.35 L 146.85 171.45 C 145.99 171.54 145.36 172.30 145.45 173.16 C 145.53 174.02 146.30 174.64 147.15 174.56 L 148.20 174.46 C 149.05 174.37 149.68 173.61 149.60 172.75 C 149.51 171.89 148.75 171.26 147.89 171.35 Z M 146.87 171.45 L 145.86 171.54 C 145.00 171.61 144.36 172.36 144.43 173.22 C 144.50 174.08 145.26 174.72 146.12 174.65 L 147.13 174.56 C 147.99 174.49 148.63 173.73 148.56 172.87 C 148.48 172.02 147.73 171.38 146.87 171.45 Z M 145.88 171.53 L 144.87 171.60 C 144.01 171.66 143.36 172.41 143.42 173.27 C 143.48 174.13 144.23 174.78 145.09 174.72 L 146.10 174.65 C 146.96 174.59 147.60 173.84 147.55 172.98 C 147.49 172.12 146.74 171.47 145.88 171.53 Z M 144.90 171.60 L 143.77 171.66 C 142.91 171.70 142.24 172.43 142.29 173.29 C 142.33 174.15 143.06 174.82 143.92 174.78 L 145.06 174.72 C 145.92 174.68 146.58 173.94 146.54 173.08 C 146.49 172.22 145.76 171.56 144.90 171.60 Z M 143.80 171.66 L 142.80 171.68 C 141.94 171.71 141.26 172.43 141.28 173.29 C 141.30 174.15 142.02 174.83 142.88 174.81 L 143.89 174.78 C 144.75 174.75 145.43 174.04 145.41 173.17 C 145.38 172.31 144.66 171.63 143.80 171.66 Z M 142.82 171.68 L 141.91 171.69 C 141.04 171.70 140.35 172.41 140.36 173.27 C 140.37 174.13 141.08 174.82 141.94 174.82 L 142.86 174.81 C 143.72 174.80 144.41 174.09 144.40 173.23 C 144.39 172.37 143.69 171.67 142.82 171.68 Z M 141.92 171.69 L 141.03 171.69 C 140.16 171.70 139.47 172.40 139.47 173.26 C 139.47 174.12 140.17 174.82 141.03 174.82 L 141.92 174.82 C 142.79 174.81 143.48 174.11 143.48 173.25 C 143.48 172.39 142.78 171.69 141.92 171.69 Z M 141.03 171.69 L 140.03 171.69 C 139.17 171.69 138.47 172.39 138.47 173.25 C 138.46 174.11 139.16 174.81 140.02 174.81 L 141.02 174.82 C 141.89 174.82 142.59 174.12 142.59 173.26 C 142.59 172.40 141.89 171.70 141.03 171.69 Z M 140.05 171.69 L 139.05 171.68 C 138.19 171.66 137.48 172.35 137.47 173.21 C 137.45 174.07 138.14 174.78 139.00 174.80 L 140.00 174.81 C 140.87 174.83 141.58 174.14 141.59 173.28 C 141.60 172.42 140.91 171.71 140.05 171.69 Z M 139.09 171.68 L 138.09 171.64 C 137.23 171.60 136.50 172.27 136.47 173.13 C 136.43 173.99 137.10 174.72 137.97 174.76 L 138.97 174.80 C 139.83 174.83 140.55 174.16 140.59 173.30 C 140.62 172.44 139.95 171.71 139.09 171.68 Z M 138.15 171.64 L 137.16 171.56 C 136.30 171.50 135.55 172.14 135.48 173.00 C 135.42 173.86 136.06 174.61 136.92 174.68 L 137.91 174.75 C 138.77 174.82 139.52 174.18 139.59 173.32 C 139.65 172.46 139.01 171.71 138.15 171.64 Z M 137.23 171.57 L 136.25 171.45 C 135.39 171.34 134.61 171.95 134.51 172.81 C 134.40 173.66 135.01 174.44 135.86 174.55 L 136.85 174.67 C 137.70 174.78 138.48 174.17 138.59 173.31 C 138.69 172.46 138.09 171.68 137.23 171.57 Z M 136.34 171.46 L 135.35 171.28 C 134.50 171.13 133.69 171.69 133.54 172.54 C 133.38 173.39 133.94 174.20 134.79 174.35 L 135.78 174.53 C 136.62 174.69 137.44 174.13 137.59 173.28 C 137.75 172.43 137.18 171.62 136.34 171.46 Z M 135.45 171.30 L 134.47 171.06 C 133.63 170.85 132.78 171.36 132.57 172.19 C 132.36 173.03 132.87 173.88 133.71 174.09 L 134.69 174.33 C 135.53 174.54 136.38 174.03 136.59 173.20 C 136.80 172.36 136.29 171.51 135.45 171.30 Z M 134.57 171.09 L 133.64 170.78 C 132.82 170.52 131.94 170.96 131.67 171.78 C 131.40 172.60 131.85 173.48 132.67 173.75 L 133.60 174.06 C 134.42 174.32 135.31 173.88 135.57 173.06 C 135.84 172.24 135.39 171.36 134.57 171.09 Z M 133.73 170.82 L 132.80 170.45 C 132.00 170.13 131.10 170.52 130.78 171.33 C 130.46 172.13 130.85 173.04 131.65 173.35 L 132.58 173.72 C 133.38 174.04 134.29 173.64 134.61 172.84 C 134.92 172.04 134.53 171.13 133.73 170.82 Z M 132.88 170.48 L 131.96 170.06 C 131.18 169.70 130.25 170.05 129.89 170.83 C 129.53 171.61 129.88 172.54 130.66 172.90 L 131.58 173.32 C 132.36 173.68 133.29 173.34 133.65 172.55 C 134.01 171.77 133.66 170.84 132.88 170.48 Z M 132.03 170.09 L 131.13 169.63 C 130.36 169.23 129.42 169.53 129.02 170.30 C 128.63 171.06 128.93 172.01 129.69 172.40 L 130.60 172.87 C 131.36 173.26 132.30 172.96 132.70 172.20 C 133.10 171.43 132.80 170.49 132.03 170.09 Z M 131.18 169.66 L 130.31 169.16 C 129.56 168.74 128.61 169.00 128.18 169.75 C 127.76 170.49 128.02 171.45 128.77 171.87 L 129.64 172.37 C 130.39 172.80 131.34 172.54 131.77 171.79 C 132.19 171.04 131.93 170.09 131.18 169.66 Z M 130.37 169.20 L 129.52 168.66 C 128.79 168.21 127.83 168.43 127.37 169.16 C 126.91 169.89 127.13 170.85 127.86 171.31 L 128.71 171.84 C 129.44 172.30 130.41 172.08 130.86 171.35 C 131.32 170.62 131.10 169.65 130.37 169.20 Z M 129.58 168.70 L 128.75 168.13 C 128.04 167.65 127.07 167.82 126.58 168.54 C 126.09 169.25 126.27 170.22 126.98 170.71 L 127.81 171.27 C 128.52 171.76 129.49 171.58 129.98 170.87 C 130.47 170.16 130.29 169.19 129.58 168.70 Z M 128.81 168.18 L 128.01 167.57 C 127.33 167.05 126.35 167.19 125.83 167.88 C 125.31 168.56 125.44 169.54 126.13 170.06 L 126.93 170.66 C 127.61 171.19 128.59 171.05 129.11 170.36 C 129.63 169.67 129.50 168.70 128.81 168.18 Z M 128.07 167.62 L 127.30 166.98 C 126.64 166.42 125.66 166.51 125.10 167.17 C 124.55 167.84 124.64 168.82 125.30 169.37 L 126.07 170.02 C 126.73 170.57 127.72 170.48 128.27 169.82 C 128.82 169.16 128.73 168.17 128.07 167.62 Z M 127.36 167.03 L 126.63 166.35 C 125.99 165.77 125.00 165.80 124.42 166.44 C 123.84 167.07 123.87 168.06 124.51 168.64 L 125.24 169.32 C 125.88 169.91 126.86 169.87 127.45 169.23 C 128.03 168.60 127.99 167.61 127.36 167.03 Z M 126.68 166.41 L 125.99 165.69 C 125.38 165.08 124.39 165.07 123.78 165.67 C 123.16 166.27 123.15 167.26 123.75 167.88 L 124.45 168.59 C 125.05 169.21 126.04 169.22 126.66 168.61 C 127.28 168.01 127.29 167.02 126.68 166.41 Z M 126.04 165.75 L 125.38 165.00 C 124.81 164.36 123.83 164.29 123.18 164.86 C 122.53 165.43 122.47 166.42 123.04 167.07 L 123.70 167.82 C 124.27 168.46 125.25 168.53 125.90 167.96 C 126.55 167.39 126.61 166.40 126.04 165.75 Z M 125.43 165.06 L 124.81 164.28 C 124.27 163.61 123.29 163.49 122.62 164.03 C 121.94 164.57 121.83 165.55 122.37 166.22 L 122.99 167.01 C 123.52 167.68 124.51 167.79 125.18 167.26 C 125.86 166.72 125.97 165.74 125.43 165.06 Z M 124.85 164.33 L 124.26 163.52 C 123.76 162.83 122.78 162.67 122.08 163.18 C 121.38 163.69 121.23 164.66 121.74 165.36 L 122.32 166.17 C 122.83 166.87 123.81 167.02 124.50 166.52 C 125.20 166.01 125.36 165.03 124.85 164.33 Z M 124.29 163.57 L 123.74 162.74 C 123.26 162.03 122.29 161.84 121.57 162.32 C 120.85 162.80 120.66 163.77 121.15 164.48 L 121.70 165.31 C 122.18 166.03 123.15 166.22 123.87 165.74 C 124.59 165.26 124.78 164.29 124.29 163.57 Z M 123.76 162.78 L 123.23 161.93 C 122.77 161.20 121.80 160.99 121.07 161.45 C 120.35 161.91 120.13 162.87 120.59 163.60 L 121.12 164.45 C 121.58 165.17 122.54 165.39 123.27 164.93 C 124.00 164.47 124.22 163.51 123.76 162.78 Z M 123.25 161.96 L 122.73 161.10 C 122.29 160.36 121.33 160.12 120.59 160.57 C 119.85 161.01 119.61 161.97 120.05 162.71 L 120.57 163.57 C 121.01 164.31 121.97 164.55 122.71 164.11 C 123.45 163.66 123.69 162.70 123.25 161.96 Z M 122.74 161.13 L 122.24 160.26 C 121.81 159.51 120.86 159.26 120.11 159.69 C 119.36 160.12 119.11 161.08 119.54 161.82 L 120.04 162.69 C 120.47 163.43 121.43 163.69 122.17 163.26 C 122.92 162.83 123.18 161.87 122.74 161.13 Z M 122.25 160.27 L 121.76 159.40 C 121.34 158.65 120.38 158.39 119.63 158.81 C 118.88 159.24 118.62 160.19 119.04 160.94 L 119.53 161.81 C 119.96 162.56 120.91 162.82 121.66 162.40 C 122.41 161.98 122.68 161.02 122.25 160.27 Z M 121.76 159.41 L 121.59 159.10 C 121.17 158.35 120.22 158.08 119.47 158.51 C 118.71 158.93 118.45 159.88 118.87 160.63 L 119.04 160.94 C 119.46 161.69 120.41 161.96 121.17 161.53 C 121.92 161.11 122.19 160.16 121.76 159.41 Z"
      fill="black"
      fill-rule="nonzero" /></svg>