<svg xmlns="http://www.w3.org/2000/svg" width="300" height="300" viewBox="0 0 300 300">
<path d="M 128.34 151.84 L 128.13 150.97 C 127.93 150.13 127.08 149.62 126.24 149.82 C 125.41 150.03 124.89 150.87 125.10 151.71 L 125.31 152.58 C 125.51 153.41 126.36 153.93 127.20 153.72 C 128.03 153.52 128.55 152.67 128.34 151.84 Z M 128.16 151.13 L 128.04 150.22 C 127.92 149.37 127.14 148.77 126.28 148.88 C 125.43 149.00 124.83 149.78 124.94 150.64 L 125.07 151.55 C 125.18 152.40 125.97 153.00 126.82 152.89 C 127.68 152.77 128.28 151.99 128.16 151.13 Z M 128.05 150.52 L 128.11 149.52 C 128.15 148.66 127.49 147.93 126.63 147.88 C 125.77 147.83 125.04 148.49 124.99 149.35 L 124.93 150.34 C 124.88 151.20 125.54 151.94 126.40 151.99 C 127.27 152.04 128.00 151.38 128.05 150.52 Z M 128.05 149.87 L 128.37 148.75 C 128.61 147.92 128.13 147.05 127.30 146.82 C 126.47 146.58 125.61 147.06 125.37 147.89 L 125.05 149.01 C 124.81 149.83 125.29 150.70 126.12 150.94 C 126.94 151.18 127.81 150.70 128.05 149.87 Z M 128.28 148.98 L 128.65 148.21 C 129.02 147.43 128.68 146.50 127.90 146.13 C 127.12 145.76 126.19 146.09 125.83 146.87 L 125.46 147.65 C 125.09 148.43 125.42 149.36 126.20 149.73 C 126.98 150.10 127.91 149.76 128.28 148.98 Z M 128.59 148.32 L 129.06 147.51 C 129.49 146.76 129.24 145.81 128.49 145.38 C 127.75 144.94 126.79 145.19 126.36 145.94 L 125.89 146.75 C 125.45 147.50 125.71 148.46 126.45 148.89 C 127.20 149.32 128.15 149.07 128.59 148.32 Z M 129.01 147.58 L 129.57 146.74 C 130.04 146.02 129.85 145.05 129.13 144.58 C 128.41 144.10 127.44 144.30 126.96 145.02 L 126.41 145.87 C 125.93 146.59 126.13 147.55 126.85 148.03 C 127.57 148.50 128.54 148.30 129.01 147.58 Z M 129.54 146.79 L 130.15 145.93 C 130.65 145.23 130.49 144.26 129.79 143.76 C 129.09 143.25 128.11 143.41 127.61 144.12 L 127.00 144.97 C 126.49 145.67 126.66 146.65 127.36 147.15 C 128.06 147.65 129.03 147.49 129.54 146.79 Z M 130.12 145.97 L 130.77 145.12 C 131.29 144.43 131.15 143.45 130.47 142.93 C 129.78 142.41 128.80 142.54 128.28 143.23 L 127.64 144.08 C 127.11 144.77 127.25 145.75 127.94 146.27 C 128.63 146.79 129.60 146.65 130.12 145.97 Z M 130.75 145.14 L 131.40 144.31 C 131.93 143.63 131.81 142.65 131.14 142.11 C 130.46 141.58 129.48 141.70 128.94 142.38 L 128.30 143.21 C 127.76 143.89 127.88 144.87 128.56 145.40 C 129.24 145.93 130.22 145.81 130.75 145.14 Z M 131.40 144.32 L 132.07 143.47 C 132.60 142.80 132.49 141.82 131.81 141.28 C 131.14 140.74 130.16 140.86 129.62 141.53 L 128.95 142.37 C 128.42 143.05 128.53 144.03 129.20 144.57 C 129.88 145.10 130.86 144.99 131.40 144.32 Z M 132.06 143.48 L 132.75 142.62 C 133.28 141.95 133.18 140.97 132.50 140.43 C 131.83 139.89 130.85 140.00 130.31 140.67 L 129.62 141.53 C 129.09 142.20 129.19 143.18 129.87 143.72 C 130.54 144.26 131.52 144.15 132.06 143.48 Z M 132.74 142.63 L 133.39 141.83 C 133.93 141.16 133.83 140.18 133.16 139.64 C 132.49 139.09 131.51 139.20 130.96 139.86 L 130.32 140.66 C 129.77 141.33 129.87 142.32 130.54 142.86 C 131.21 143.40 132.20 143.30 132.74 142.63 Z M 133.38 141.85 L 134.00 141.09 C 134.55 140.43 134.46 139.44 133.80 138.89 C 133.13 138.34 132.15 138.44 131.60 139.10 L 130.98 139.85 C 130.42 140.52 130.52 141.50 131.18 142.05 C 131.84 142.60 132.83 142.51 133.38 141.85 Z M 133.99 141.11 L 134.60 140.39 C 135.16 139.74 135.08 138.75 134.43 138.19 C 133.77 137.63 132.78 137.71 132.22 138.37 L 131.61 139.08 C 131.05 139.74 131.13 140.72 131.79 141.28 C 132.44 141.84 133.43 141.76 133.99 141.11 Z M 134.58 140.41 L 135.19 139.73 C 135.76 139.08 135.70 138.10 135.05 137.53 C 134.41 136.95 133.42 137.01 132.85 137.66 L 132.24 138.35 C 131.67 138.99 131.73 139.98 132.38 140.55 C 133.02 141.12 134.01 141.06 134.58 140.41 Z M 135.16 139.76 L 135.86 139.01 C 136.44 138.38 136.40 137.39 135.77 136.80 C 135.14 136.22 134.15 136.25 133.56 136.89 L 132.87 137.63 C 132.29 138.27 132.32 139.25 132.96 139.84 C 133.59 140.43 134.58 140.39 135.16 139.76 Z M 135.82 139.05 L 136.55 138.31 C 137.15 137.70 137.15 136.71 136.53 136.10 C 135.92 135.50 134.93 135.50 134.33 136.11 L 133.60 136.85 C 132.99 137.46 133.00 138.45 133.61 139.06 C 134.23 139.66 135.21 139.66 135.82 139.05 Z M 136.50 138.36 L 137.24 137.67 C 137.87 137.09 137.91 136.10 137.32 135.47 C 136.74 134.83 135.75 134.80 135.12 135.38 L 134.38 136.07 C 133.74 136.65 133.71 137.64 134.29 138.27 C 134.88 138.91 135.86 138.94 136.50 138.36 Z M 137.17 137.73 L 137.92 137.11 C 138.59 136.56 138.69 135.58 138.14 134.91 C 137.59 134.25 136.61 134.15 135.94 134.70 L 135.19 135.32 C 134.52 135.87 134.42 136.85 134.97 137.52 C 135.52 138.18 136.50 138.28 137.17 137.73 Z M 137.83 137.18 L 138.60 136.64 C 139.31 136.14 139.48 135.17 138.98 134.46 C 138.48 133.76 137.51 133.59 136.80 134.09 L 136.03 134.63 C 135.33 135.13 135.16 136.10 135.66 136.81 C 136.15 137.51 137.13 137.68 137.83 137.18 Z M 138.48 136.72 L 139.38 136.21 C 140.13 135.78 140.39 134.83 139.96 134.08 C 139.54 133.33 138.58 133.07 137.83 133.49 L 136.93 134.01 C 136.18 134.43 135.92 135.39 136.35 136.14 C 136.77 136.88 137.73 137.15 138.48 136.72 Z M 139.23 136.28 L 140.16 135.88 C 140.95 135.54 141.31 134.62 140.97 133.83 C 140.63 133.03 139.71 132.67 138.92 133.01 L 137.99 133.42 C 137.20 133.76 136.83 134.68 137.17 135.47 C 137.52 136.26 138.44 136.62 139.23 136.28 Z M 140.00 135.94 L 140.94 135.65 C 141.76 135.39 142.22 134.52 141.97 133.69 C 141.71 132.87 140.84 132.41 140.02 132.66 L 139.08 132.95 C 138.25 133.21 137.79 134.08 138.04 134.91 C 138.30 135.73 139.17 136.19 140.00 135.94 Z M 140.78 135.69 L 141.72 135.50 C 142.57 135.34 143.12 134.52 142.96 133.67 C 142.79 132.83 141.97 132.27 141.13 132.44 L 140.18 132.62 C 139.33 132.79 138.78 133.61 138.94 134.45 C 139.11 135.30 139.93 135.85 140.78 135.69 Z M 141.56 135.53 L 142.51 135.44 C 143.37 135.37 144.01 134.61 143.94 133.75 C 143.86 132.89 143.10 132.26 142.25 132.33 L 141.29 132.42 C 140.43 132.49 139.80 133.25 139.87 134.11 C 139.94 134.96 140.70 135.60 141.56 135.53 Z M 142.32 135.45 L 143.29 135.48 C 144.15 135.51 144.87 134.84 144.90 133.98 C 144.93 133.12 144.26 132.39 143.40 132.36 L 142.44 132.33 C 141.57 132.30 140.85 132.97 140.82 133.83 C 140.79 134.69 141.46 135.42 142.32 135.45 Z M 143.07 135.46 L 144.04 135.63 C 144.89 135.78 145.70 135.22 145.85 134.37 C 146.00 133.52 145.43 132.71 144.59 132.56 L 143.62 132.39 C 142.77 132.23 141.96 132.80 141.80 133.65 C 141.65 134.50 142.22 135.31 143.07 135.46 Z M 143.81 135.57 L 144.80 135.91 C 145.61 136.18 146.50 135.75 146.78 134.93 C 147.05 134.11 146.62 133.23 145.80 132.95 L 144.81 132.62 C 144.00 132.34 143.11 132.78 142.83 133.59 C 142.56 134.41 142.99 135.30 143.81 135.57 Z M 144.60 135.82 L 145.51 136.28 C 146.28 136.67 147.22 136.36 147.60 135.59 C 147.99 134.82 147.68 133.88 146.91 133.49 L 146.00 133.03 C 145.23 132.65 144.29 132.96 143.90 133.73 C 143.52 134.50 143.83 135.44 144.60 135.82 Z M 145.37 136.20 L 146.22 136.75 C 146.95 137.22 147.92 137.00 148.38 136.28 C 148.84 135.55 148.63 134.58 147.91 134.12 L 147.05 133.57 C 146.32 133.11 145.36 133.32 144.89 134.05 C 144.43 134.77 144.64 135.74 145.37 136.20 Z M 146.13 136.69 L 146.97 137.31 C 147.66 137.82 148.64 137.68 149.15 136.99 C 149.67 136.29 149.52 135.32 148.83 134.80 L 148.00 134.18 C 147.30 133.67 146.33 133.81 145.81 134.50 C 145.30 135.20 145.44 136.17 146.13 136.69 Z M 146.91 137.26 L 147.69 137.91 C 148.36 138.46 149.34 138.36 149.89 137.70 C 150.44 137.03 150.35 136.05 149.68 135.50 L 148.89 134.85 C 148.23 134.30 147.24 134.40 146.69 135.06 C 146.15 135.73 146.24 136.71 146.91 137.26 Z M 147.65 137.87 L 148.37 138.51 C 149.01 139.09 150.00 139.03 150.57 138.39 C 151.15 137.74 151.09 136.76 150.45 136.18 L 149.73 135.54 C 149.08 134.97 148.10 135.02 147.52 135.67 C 146.95 136.31 147.01 137.30 147.65 137.87 Z M 148.33 138.48 L 149.13 139.24 C 149.75 139.83 150.74 139.80 151.34 139.18 C 151.93 138.55 151.90 137.57 151.28 136.97 L 150.48 136.22 C 149.86 135.62 148.87 135.65 148.28 136.27 C 147.68 136.90 147.71 137.89 148.33 138.48 Z M 149.09 139.19 L 149.81 139.93 C 150.41 140.55 151.40 140.56 152.02 139.96 C 152.63 139.36 152.65 138.37 152.04 137.75 L 151.32 137.01 C 150.72 136.40 149.73 136.38 149.11 136.99 C 148.50 137.59 148.48 138.58 149.09 139.19 Z M 149.77 139.89 L 150.39 140.58 C 150.96 141.22 151.95 141.27 152.59 140.69 C 153.23 140.11 153.28 139.13 152.71 138.49 L 152.09 137.80 C 151.51 137.16 150.52 137.11 149.88 137.68 C 149.24 138.26 149.19 139.25 149.77 139.89 Z M 150.36 140.54 L 150.93 141.22 C 151.48 141.87 152.47 141.96 153.13 141.40 C 153.79 140.84 153.87 139.86 153.31 139.20 L 152.74 138.52 C 152.18 137.87 151.20 137.78 150.54 138.34 C 149.88 138.90 149.80 139.88 150.36 140.54 Z M 150.91 141.19 L 151.47 141.89 C 152.02 142.56 153.00 142.66 153.67 142.11 C 154.34 141.57 154.44 140.59 153.90 139.92 L 153.33 139.22 C 152.79 138.55 151.80 138.45 151.13 139.00 C 150.46 139.54 150.36 140.53 150.91 141.19 Z M 151.46 141.87 L 152.07 142.63 C 152.60 143.31 153.59 143.42 154.26 142.88 C 154.94 142.35 155.05 141.36 154.51 140.69 L 153.91 139.93 C 153.37 139.26 152.39 139.14 151.71 139.68 C 151.04 140.22 150.93 141.20 151.46 141.87 Z M 152.06 142.63 L 152.74 143.49 C 153.27 144.16 154.25 144.28 154.93 143.75 C 155.61 143.21 155.73 142.23 155.19 141.55 L 154.52 140.70 C 153.98 140.02 153.00 139.90 152.32 140.44 C 151.65 140.97 151.53 141.95 152.06 142.63 Z M 152.74 143.49 L 153.35 144.26 C 153.88 144.94 154.86 145.06 155.54 144.52 C 156.22 143.99 156.34 143.01 155.80 142.33 L 155.19 141.55 C 154.66 140.88 153.68 140.76 153.00 141.29 C 152.32 141.83 152.21 142.81 152.74 143.49 Z M 153.35 144.26 L 153.93 145.00 C 154.46 145.68 155.44 145.79 156.12 145.26 C 156.80 144.73 156.92 143.75 156.38 143.07 L 155.80 142.33 C 155.27 141.65 154.29 141.54 153.61 142.07 C 152.93 142.60 152.82 143.58 153.35 144.26 Z M 153.92 144.99 L 154.53 145.78 C 155.06 146.46 156.04 146.58 156.73 146.06 C 157.41 145.53 157.53 144.55 157.00 143.87 L 156.39 143.08 C 155.86 142.40 154.88 142.27 154.20 142.80 C 153.52 143.33 153.39 144.31 153.92 144.99 Z M 154.53 145.77 L 155.16 146.60 C 155.68 147.28 156.66 147.41 157.35 146.89 C 158.03 146.37 158.16 145.39 157.64 144.70 L 157.01 143.88 C 156.48 143.19 155.50 143.06 154.82 143.58 C 154.13 144.11 154.00 145.09 154.53 145.77 Z M 155.15 146.58 L 155.79 147.44 C 156.30 148.13 157.28 148.27 157.97 147.75 C 158.66 147.24 158.80 146.26 158.29 145.57 L 157.65 144.72 C 157.13 144.03 156.16 143.88 155.47 144.40 C 154.77 144.91 154.63 145.89 155.15 146.58 Z M 155.77 147.42 L 156.39 148.27 C 156.89 148.96 157.87 149.12 158.57 148.61 C 159.26 148.11 159.42 147.13 158.91 146.43 L 158.30 145.59 C 157.80 144.89 156.82 144.73 156.12 145.24 C 155.42 145.75 155.27 146.72 155.77 147.42 Z M 156.37 148.24 L 156.95 149.08 C 157.44 149.78 158.42 149.95 159.12 149.46 C 159.83 148.97 160.00 147.99 159.51 147.29 L 158.93 146.46 C 158.44 145.75 157.46 145.58 156.76 146.07 C 156.05 146.56 155.88 147.54 156.37 148.24 Z M 156.93 149.05 L 157.49 149.89 C 157.97 150.60 158.94 150.80 159.66 150.32 C 160.38 149.84 160.57 148.87 160.09 148.15 L 159.53 147.31 C 159.05 146.60 158.08 146.40 157.36 146.88 C 156.65 147.36 156.45 148.33 156.93 149.05 Z M 157.47 149.86 L 158.01 150.70 C 158.47 151.43 159.44 151.64 160.17 151.18 C 160.89 150.72 161.11 149.75 160.65 149.03 L 160.11 148.18 C 159.65 147.45 158.68 147.24 157.95 147.70 C 157.23 148.16 157.01 149.13 157.47 149.86 Z M 157.99 150.67 L 158.50 151.52 C 158.94 152.26 159.90 152.50 160.64 152.05 C 161.38 151.61 161.62 150.65 161.18 149.91 L 160.67 149.06 C 160.23 148.32 159.27 148.08 158.53 148.52 C 157.79 148.97 157.55 149.93 157.99 150.67 Z M 158.47 151.47 L 158.95 152.33 C 159.37 153.08 160.32 153.35 161.07 152.93 C 161.83 152.51 162.10 151.56 161.68 150.81 L 161.20 149.95 C 160.78 149.20 159.83 148.93 159.08 149.35 C 158.32 149.77 158.05 150.72 158.47 151.47 Z M 158.92 152.28 L 159.39 153.19 C 159.78 153.96 160.72 154.26 161.49 153.87 C 162.26 153.47 162.56 152.53 162.17 151.77 L 161.70 150.86 C 161.31 150.09 160.37 149.79 159.60 150.18 C 158.84 150.57 158.53 151.51 158.92 152.28 Z M 159.36 153.13 L 159.78 154.04 C 160.14 154.83 161.07 155.17 161.85 154.81 C 162.64 154.45 162.98 153.52 162.62 152.74 L 162.19 151.82 C 161.83 151.04 160.91 150.70 160.12 151.06 C 159.34 151.42 159.00 152.35 159.36 153.13 Z M 159.75 153.98 L 160.13 154.91 C 160.46 155.70 161.37 156.09 162.17 155.76 C 162.97 155.43 163.35 154.52 163.02 153.72 L 162.64 152.80 C 162.32 152.00 161.41 151.62 160.61 151.95 C 159.81 152.27 159.43 153.18 159.75 153.98 Z M 160.11 154.84 L 160.44 155.77 C 160.73 156.58 161.62 157.01 162.43 156.72 C 163.25 156.43 163.67 155.54 163.38 154.72 L 163.05 153.79 C 162.76 152.98 161.86 152.55 161.05 152.84 C 160.24 153.13 159.82 154.03 160.11 154.84 Z M 160.41 155.70 L 160.70 156.64 C 160.95 157.47 161.82 157.94 162.65 157.69 C 163.47 157.44 163.94 156.57 163.69 155.74 L 163.40 154.80 C 163.15 153.97 162.28 153.50 161.46 153.75 C 160.63 154.00 160.17 154.87 160.41 155.70 Z M 160.68 156.57 L 160.91 157.52 C 161.12 158.35 161.97 158.86 162.81 158.66 C 163.64 158.45 164.15 157.60 163.95 156.77 L 163.71 155.82 C 163.50 154.98 162.66 154.47 161.82 154.68 C 160.98 154.89 160.47 155.73 160.68 156.57 Z M 160.90 157.45 L 161.09 158.41 C 161.26 159.25 162.08 159.80 162.92 159.63 C 163.77 159.47 164.32 158.65 164.15 157.80 L 163.96 156.84 C 163.79 155.99 162.97 155.44 162.13 155.61 C 161.28 155.78 160.73 156.60 160.90 157.45 Z M 161.08 158.34 L 161.23 159.32 C 161.36 160.17 162.16 160.76 163.01 160.63 C 163.86 160.49 164.45 159.70 164.32 158.84 L 164.16 157.86 C 164.03 157.01 163.23 156.43 162.38 156.56 C 161.53 156.69 160.95 157.49 161.08 158.34 Z M 161.22 159.27 L 161.34 160.26 C 161.44 161.12 162.22 161.73 163.07 161.63 C 163.93 161.53 164.54 160.76 164.44 159.90 L 164.32 158.90 C 164.22 158.04 163.45 157.43 162.59 157.53 C 161.73 157.63 161.12 158.41 161.22 159.27 Z M 161.33 160.22 L 161.42 161.24 C 161.49 162.09 162.25 162.73 163.11 162.66 C 163.97 162.58 164.61 161.83 164.53 160.97 L 164.45 159.95 C 164.37 159.09 163.62 158.45 162.76 158.53 C 161.90 158.60 161.26 159.36 161.33 160.22 Z M 161.42 161.19 L 161.48 162.20 C 161.53 163.06 162.27 163.71 163.13 163.66 C 163.99 163.61 164.65 162.87 164.59 162.01 L 164.54 161.01 C 164.48 160.15 163.75 159.49 162.88 159.54 C 162.02 159.60 161.37 160.33 161.42 161.19 Z M 161.48 162.16 L 161.51 163.14 C 161.54 164.00 162.26 164.67 163.12 164.65 C 163.98 164.62 164.66 163.89 164.63 163.03 L 164.60 162.05 C 164.57 161.19 163.85 160.51 162.98 160.54 C 162.12 160.57 161.45 161.29 161.48 162.16 Z M 161.51 163.09 L 161.51 164.09 C 161.52 164.95 162.22 165.65 163.08 165.64 C 163.94 165.64 164.64 164.94 164.64 164.07 L 164.63 163.08 C 164.63 162.22 163.92 161.52 163.06 161.52 C 162.20 161.53 161.50 162.23 161.51 163.09 Z M 161.51 164.03 L 161.48 165.04 C 161.46 165.90 162.13 166.62 163.00 166.65 C 163.86 166.67 164.58 165.99 164.60 165.13 L 164.63 164.13 C 164.66 163.27 163.98 162.55 163.12 162.52 C 162.26 162.49 161.54 163.17 161.51 164.03 Z M 161.49 164.98 L 161.42 165.99 C 161.36 166.85 162.00 167.59 162.86 167.65 C 163.72 167.71 164.47 167.06 164.53 166.20 L 164.60 165.19 C 164.66 164.33 164.01 163.59 163.15 163.53 C 162.29 163.47 161.55 164.12 161.49 164.98 Z M 161.42 165.92 L 161.31 166.93 C 161.21 167.78 161.82 168.56 162.68 168.66 C 163.53 168.75 164.31 168.14 164.41 167.28 L 164.52 166.27 C 164.62 165.42 164.01 164.64 163.15 164.54 C 162.30 164.45 161.52 165.06 161.42 165.92 Z M 161.32 166.85 L 161.14 167.90 C 161.00 168.75 161.57 169.55 162.42 169.70 C 163.28 169.84 164.08 169.26 164.22 168.41 L 164.40 167.36 C 164.54 166.51 163.96 165.71 163.11 165.56 C 162.26 165.42 161.46 166.00 161.32 166.85 Z M 161.16 167.83 L 160.93 168.87 C 160.75 169.71 161.29 170.54 162.13 170.72 C 162.97 170.90 163.80 170.37 163.98 169.53 L 164.21 168.48 C 164.39 167.64 163.85 166.81 163.01 166.63 C 162.17 166.45 161.34 166.98 161.16 167.83 Z M 160.95 168.81 L 160.69 169.81 C 160.47 170.65 160.98 171.50 161.81 171.71 C 162.65 171.93 163.50 171.43 163.71 170.59 L 163.97 169.59 C 164.18 168.75 163.68 167.90 162.85 167.69 C 162.01 167.47 161.16 167.97 160.95 168.81 Z M 160.70 169.76 L 160.42 170.71 C 160.18 171.54 160.65 172.41 161.48 172.65 C 162.31 172.89 163.18 172.42 163.42 171.59 L 163.70 170.64 C 163.94 169.81 163.47 168.95 162.64 168.70 C 161.81 168.46 160.94 168.93 160.70 169.76 Z M 160.44 170.67 L 160.15 171.55 C 159.88 172.37 160.33 173.25 161.15 173.52 C 161.97 173.78 162.85 173.33 163.12 172.51 L 163.40 171.64 C 163.67 170.82 163.22 169.93 162.40 169.67 C 161.58 169.40 160.70 169.85 160.44 170.67 Z M 160.16 171.51 L 159.84 172.41 C 159.55 173.22 159.98 174.12 160.79 174.41 C 161.60 174.69 162.49 174.27 162.78 173.46 L 163.10 172.56 C 163.39 171.74 162.97 170.85 162.16 170.56 C 161.35 170.27 160.45 170.69 160.16 171.51 Z M 159.86 172.36 L 159.49 173.29 C 159.17 174.09 159.56 175.00 160.36 175.32 C 161.16 175.64 162.07 175.25 162.39 174.45 L 162.76 173.51 C 163.08 172.71 162.69 171.80 161.89 171.49 C 161.09 171.17 160.18 171.56 159.86 172.36 Z M 159.52 173.22 L 159.12 174.08 C 158.76 174.86 159.11 175.79 159.89 176.15 C 160.67 176.51 161.60 176.16 161.96 175.38 L 162.36 174.52 C 162.72 173.74 162.37 172.81 161.59 172.45 C 160.81 172.09 159.88 172.43 159.52 173.22 Z M 159.16 174.00 L 158.71 174.87 C 158.31 175.63 158.60 176.58 159.37 176.98 C 160.13 177.38 161.07 177.08 161.47 176.32 L 161.93 175.45 C 162.33 174.69 162.03 173.75 161.27 173.35 C 160.50 172.95 159.56 173.24 159.16 174.00 Z M 158.74 174.82 L 158.25 175.66 C 157.82 176.41 158.08 177.36 158.83 177.79 C 159.57 178.22 160.53 177.96 160.96 177.22 L 161.44 176.37 C 161.87 175.62 161.61 174.67 160.87 174.24 C 160.12 173.81 159.17 174.07 158.74 174.82 Z M 158.27 175.63 L 157.78 176.43 C 157.33 177.16 157.57 178.12 158.30 178.57 C 159.04 179.02 160.00 178.79 160.45 178.05 L 160.94 177.25 C 161.39 176.52 161.15 175.56 160.42 175.11 C 159.68 174.66 158.72 174.89 158.27 175.63 Z M 157.81 176.39 L 157.26 177.23 C 156.79 177.95 157.00 178.92 157.73 179.39 C 158.45 179.86 159.42 179.65 159.88 178.93 L 160.43 178.09 C 160.90 177.36 160.69 176.40 159.96 175.93 C 159.24 175.46 158.27 175.67 157.81 176.39 Z M 157.29 177.19 L 156.70 178.04 C 156.21 178.75 156.39 179.72 157.10 180.21 C 157.81 180.70 158.78 180.53 159.27 179.82 L 159.86 178.96 C 160.35 178.26 160.17 177.28 159.46 176.79 C 158.75 176.30 157.78 176.48 157.29 177.19 Z M 156.73 178.00 L 156.10 178.84 C 155.59 179.53 155.73 180.51 156.42 181.03 C 157.11 181.54 158.09 181.40 158.61 180.71 L 159.24 179.86 C 159.75 179.17 159.61 178.19 158.92 177.68 C 158.23 177.16 157.25 177.31 156.73 178.00 Z M 156.15 178.79 L 155.48 179.61 C 154.93 180.27 155.04 181.26 155.70 181.80 C 156.37 182.35 157.36 182.25 157.90 181.58 L 158.57 180.76 C 159.11 180.09 159.01 179.11 158.34 178.56 C 157.67 178.02 156.69 178.12 156.15 178.79 Z M 155.53 179.54 L 154.83 180.32 C 154.25 180.96 154.30 181.95 154.94 182.53 C 155.57 183.11 156.56 183.06 157.14 182.42 L 157.85 181.64 C 158.43 181.00 158.38 180.01 157.74 179.43 C 157.10 178.86 156.11 178.90 155.53 179.54 Z M 154.89 180.26 L 154.16 180.97 C 153.54 181.58 153.53 182.56 154.14 183.18 C 154.74 183.80 155.73 183.81 156.35 183.20 L 157.08 182.49 C 157.69 181.88 157.70 180.89 157.10 180.28 C 156.49 179.66 155.51 179.65 154.89 180.26 Z M 154.24 180.90 L 153.49 181.55 C 152.83 182.11 152.76 183.09 153.32 183.75 C 153.88 184.40 154.86 184.48 155.52 183.92 L 156.27 183.27 C 156.92 182.71 157.00 181.73 156.44 181.07 C 155.88 180.42 154.89 180.34 154.24 180.90 Z M 153.58 181.47 L 152.81 182.04 C 152.11 182.55 151.96 183.52 152.47 184.22 C 152.98 184.91 153.96 185.06 154.65 184.55 L 155.42 183.99 C 156.12 183.48 156.27 182.50 155.76 181.81 C 155.25 181.11 154.27 180.96 153.58 181.47 Z M 152.92 181.96 L 152.10 182.46 C 151.36 182.91 151.12 183.87 151.57 184.60 C 152.01 185.34 152.97 185.58 153.71 185.13 L 154.54 184.63 C 155.28 184.19 155.51 183.23 155.07 182.49 C 154.62 181.75 153.66 181.51 152.92 181.96 Z M 152.24 182.38 L 151.33 182.81 C 150.55 183.18 150.21 184.10 150.58 184.89 C 150.94 185.67 151.87 186.00 152.65 185.64 L 153.57 185.21 C 154.35 184.84 154.68 183.92 154.32 183.13 C 153.95 182.35 153.02 182.02 152.24 182.38 Z M 151.50 182.74 L 150.56 183.06 C 149.74 183.33 149.30 184.22 149.57 185.03 C 149.85 185.85 150.73 186.29 151.55 186.02 L 152.49 185.70 C 153.30 185.43 153.75 184.55 153.47 183.73 C 153.20 182.91 152.31 182.47 151.50 182.74 Z M 150.73 183.01 L 149.77 183.21 C 148.92 183.39 148.38 184.22 148.56 185.06 C 148.74 185.91 149.57 186.45 150.41 186.27 L 151.38 186.07 C 152.22 185.89 152.76 185.06 152.58 184.22 C 152.40 183.37 151.58 182.83 150.73 183.01 Z M 149.94 183.19 L 148.94 183.28 C 148.08 183.37 147.45 184.13 147.54 184.99 C 147.62 185.85 148.38 186.47 149.24 186.39 L 150.24 186.30 C 151.10 186.21 151.72 185.45 151.64 184.59 C 151.56 183.73 150.80 183.10 149.94 183.19 Z M 149.10 183.28 L 148.08 183.27 C 147.22 183.26 146.51 183.96 146.51 184.82 C 146.50 185.68 147.20 186.39 148.06 186.39 L 149.08 186.40 C 149.94 186.40 150.64 185.71 150.65 184.85 C 150.66 183.99 149.96 183.28 149.10 183.28 Z M 148.22 183.28 L 147.20 183.18 C 146.34 183.09 145.58 183.72 145.49 184.57 C 145.41 185.43 146.03 186.20 146.89 186.28 L 147.91 186.38 C 148.77 186.47 149.54 185.84 149.62 184.99 C 149.71 184.13 149.08 183.36 148.22 183.28 Z M 147.34 183.20 L 146.34 183.01 C 145.50 182.85 144.68 183.40 144.52 184.25 C 144.36 185.09 144.91 185.91 145.76 186.07 L 146.75 186.26 C 147.60 186.42 148.42 185.87 148.58 185.02 C 148.74 184.17 148.18 183.36 147.34 183.20 Z M 146.49 183.04 L 145.56 182.77 C 144.73 182.53 143.86 183.01 143.63 183.84 C 143.39 184.67 143.86 185.53 144.69 185.77 L 145.62 186.04 C 146.45 186.28 147.31 185.80 147.55 184.97 C 147.79 184.15 147.31 183.28 146.49 183.04 Z M 145.73 182.83 L 144.80 182.45 C 144.00 182.11 143.09 182.49 142.76 183.29 C 142.43 184.08 142.80 185.00 143.60 185.33 L 144.52 185.71 C 145.32 186.04 146.23 185.67 146.57 184.87 C 146.90 184.08 146.52 183.16 145.73 182.83 Z M 144.98 182.54 L 144.12 182.04 C 143.38 181.60 142.42 181.86 141.99 182.60 C 141.56 183.35 141.81 184.30 142.56 184.74 L 143.42 185.24 C 144.16 185.67 145.12 185.42 145.55 184.67 C 145.98 183.93 145.73 182.97 144.98 182.54 Z M 144.28 182.14 L 143.51 181.55 C 142.82 181.03 141.84 181.17 141.32 181.86 C 140.80 182.55 140.93 183.52 141.62 184.04 L 142.40 184.63 C 143.09 185.15 144.07 185.02 144.59 184.33 C 145.11 183.64 144.97 182.66 144.28 182.14 Z M 143.61 181.64 L 142.88 180.97 C 142.24 180.39 141.25 180.44 140.67 181.08 C 140.09 181.72 140.14 182.70 140.78 183.28 L 141.51 183.95 C 142.15 184.53 143.14 184.49 143.72 183.85 C 144.30 183.21 144.25 182.22 143.61 181.64 Z M 142.94 181.03 L 142.26 180.35 C 141.66 179.74 140.67 179.73 140.06 180.34 C 139.44 180.95 139.44 181.93 140.04 182.55 L 140.72 183.23 C 141.32 183.84 142.31 183.84 142.92 183.24 C 143.54 182.63 143.54 181.64 142.94 181.03 Z M 142.30 180.39 L 141.63 179.66 C 141.04 179.03 140.06 178.99 139.42 179.58 C 138.79 180.16 138.75 181.15 139.34 181.78 L 140.01 182.51 C 140.59 183.14 141.58 183.18 142.21 182.60 C 142.85 182.01 142.89 181.02 142.30 180.39 Z M 141.65 179.69 L 140.98 178.93 C 140.41 178.28 139.43 178.22 138.78 178.79 C 138.13 179.36 138.07 180.34 138.64 180.99 L 139.31 181.75 C 139.88 182.40 140.87 182.46 141.51 181.89 C 142.16 181.33 142.22 180.34 141.65 179.69 Z M 141.00 178.95 L 140.33 178.16 C 139.77 177.50 138.79 177.42 138.13 177.98 C 137.47 178.54 137.39 179.52 137.95 180.18 L 138.62 180.97 C 139.18 181.63 140.16 181.71 140.82 181.15 C 141.48 180.59 141.56 179.60 141.00 178.95 Z M 140.34 178.17 L 139.70 177.40 C 139.15 176.74 138.17 176.65 137.50 177.20 C 136.84 177.75 136.75 178.73 137.30 179.40 L 137.94 180.17 C 138.49 180.83 139.48 180.92 140.14 180.37 C 140.80 179.82 140.89 178.84 140.34 178.17 Z M 139.71 177.41 L 139.08 176.64 C 138.54 175.97 137.55 175.87 136.88 176.41 C 136.21 176.96 136.11 177.94 136.66 178.61 L 137.29 179.39 C 137.83 180.05 138.82 180.15 139.49 179.61 C 140.15 179.07 140.26 178.08 139.71 177.41 Z M 139.09 176.65 L 138.47 175.87 C 137.93 175.20 136.95 175.08 136.27 175.62 C 135.60 176.16 135.49 177.14 136.03 177.82 L 136.65 178.60 C 137.19 179.27 138.17 179.38 138.84 178.85 C 139.52 178.31 139.63 177.33 139.09 176.65 Z M 138.48 175.88 L 137.86 175.09 C 137.33 174.41 136.35 174.29 135.67 174.82 C 134.99 175.35 134.87 176.33 135.40 177.01 L 136.01 177.80 C 136.55 178.48 137.53 178.60 138.21 178.07 C 138.89 177.54 139.01 176.56 138.48 175.88 Z M 137.87 175.11 L 137.25 174.30 C 136.73 173.61 135.75 173.48 135.07 174.00 C 134.38 174.53 134.25 175.51 134.77 176.19 L 135.39 177.00 C 135.91 177.69 136.89 177.82 137.58 177.29 C 138.26 176.77 138.39 175.79 137.87 175.11 Z M 137.26 174.31 L 136.65 173.49 C 136.14 172.80 135.16 172.66 134.47 173.18 C 133.78 173.69 133.64 174.67 134.15 175.36 L 134.76 176.18 C 135.28 176.87 136.26 177.01 136.95 176.50 C 137.64 175.98 137.78 175.00 137.26 174.31 Z M 136.66 173.50 L 136.06 172.69 C 135.55 172.00 134.58 171.85 133.88 172.36 C 133.19 172.87 133.04 173.85 133.55 174.54 L 134.15 175.35 C 134.66 176.05 135.63 176.20 136.33 175.68 C 137.02 175.17 137.17 174.20 136.66 173.50 Z M 136.07 172.70 L 135.49 171.90 C 134.98 171.21 134.00 171.05 133.31 171.56 C 132.61 172.07 132.46 173.05 132.97 173.74 L 133.55 174.54 C 134.05 175.23 135.03 175.39 135.73 174.88 C 136.42 174.37 136.58 173.39 136.07 172.70 Z M 135.49 171.91 L 134.91 171.10 C 134.40 170.41 133.42 170.25 132.73 170.76 C 132.03 171.27 131.88 172.24 132.38 172.94 L 132.97 173.74 C 133.47 174.44 134.45 174.59 135.15 174.09 C 135.84 173.58 136.00 172.60 135.49 171.91 Z M 134.91 171.11 L 134.32 170.29 C 133.82 169.59 132.84 169.44 132.14 169.94 C 131.44 170.45 131.29 171.42 131.79 172.12 L 132.38 172.94 C 132.89 173.64 133.86 173.79 134.56 173.29 C 135.26 172.78 135.42 171.81 134.91 171.11 Z M 134.33 170.30 L 133.76 169.50 C 133.26 168.80 132.28 168.63 131.58 169.13 C 130.88 169.63 130.71 170.60 131.21 171.31 L 131.78 172.11 C 132.28 172.81 133.26 172.98 133.96 172.48 C 134.66 171.98 134.83 171.01 134.33 170.30 Z M 133.77 169.52 L 133.21 168.70 C 132.72 167.99 131.75 167.81 131.04 168.30 C 130.33 168.79 130.15 169.76 130.64 170.47 L 131.20 171.29 C 131.69 172.00 132.66 172.18 133.37 171.69 C 134.08 171.20 134.26 170.23 133.77 169.52 Z M 133.22 168.72 L 132.67 167.89 C 132.20 167.17 131.23 166.98 130.51 167.45 C 129.79 167.93 129.59 168.90 130.07 169.62 L 130.62 170.45 C 131.10 171.17 132.06 171.36 132.78 170.89 C 133.50 170.41 133.70 169.44 133.22 168.72 Z M 132.69 167.92 L 132.15 167.07 C 131.68 166.34 130.72 166.12 129.99 166.58 C 129.26 167.05 129.05 168.01 129.51 168.74 L 130.05 169.59 C 130.51 170.32 131.48 170.53 132.21 170.07 C 132.94 169.61 133.15 168.64 132.69 167.92 Z M 132.16 167.09 L 131.64 166.23 C 131.19 165.49 130.22 165.26 129.49 165.71 C 128.75 166.16 128.52 167.12 128.97 167.86 L 129.50 168.72 C 129.95 169.45 130.91 169.68 131.64 169.23 C 132.38 168.78 132.61 167.82 132.16 167.09 Z M 131.65 166.25 L 131.15 165.40 C 130.71 164.65 129.75 164.41 129.01 164.84 C 128.27 165.28 128.02 166.24 128.46 166.98 L 128.96 167.83 C 129.39 168.58 130.35 168.82 131.09 168.39 C 131.84 167.95 132.09 166.99 131.65 166.25 Z M 131.16 165.42 L 130.68 164.57 C 130.26 163.82 129.31 163.56 128.56 163.98 C 127.81 164.40 127.54 165.36 127.96 166.11 L 128.44 166.95 C 128.86 167.71 129.82 167.97 130.57 167.55 C 131.32 167.12 131.58 166.17 131.16 165.42 Z M 130.70 164.61 L 130.25 163.75 C 129.84 162.99 128.90 162.70 128.14 163.11 C 127.38 163.51 127.09 164.46 127.49 165.22 L 127.94 166.07 C 128.35 166.83 129.29 167.12 130.06 166.72 C 130.82 166.31 131.11 165.37 130.70 164.61 Z M 130.27 163.80 L 129.83 162.90 C 129.45 162.13 128.52 161.81 127.74 162.19 C 126.97 162.57 126.65 163.51 127.03 164.28 L 127.47 165.17 C 127.85 165.95 128.78 166.27 129.56 165.89 C 130.33 165.51 130.65 164.57 130.27 163.80 Z M 129.85 162.95 L 129.42 161.99 C 129.07 161.20 128.14 160.85 127.36 161.20 C 126.57 161.56 126.22 162.48 126.57 163.27 L 127.01 164.23 C 127.36 165.02 128.28 165.37 129.07 165.02 C 129.86 164.66 130.21 163.74 129.85 162.95 Z M 129.44 162.03 L 129.05 161.09 C 128.72 160.29 127.80 159.91 127.01 160.24 C 126.21 160.57 125.83 161.49 126.16 162.28 L 126.55 163.23 C 126.88 164.02 127.80 164.40 128.59 164.07 C 129.39 163.74 129.77 162.83 129.44 162.03 Z M 129.06 161.12 L 128.68 160.14 C 128.37 159.34 127.46 158.94 126.66 159.25 C 125.86 159.57 125.46 160.47 125.77 161.27 L 126.15 162.25 C 126.46 163.05 127.37 163.45 128.17 163.14 C 128.97 162.83 129.37 161.92 129.06 161.12 Z M 128.69 160.17 L 128.34 159.21 C 128.04 158.40 127.15 157.99 126.34 158.28 C 125.53 158.58 125.11 159.48 125.41 160.29 L 125.76 161.25 C 126.06 162.06 126.95 162.47 127.76 162.17 C 128.57 161.88 128.99 160.98 128.69 160.17 Z M 128.35 159.24 L 128.04 158.35 C 127.76 157.54 126.87 157.10 126.06 157.39 C 125.24 157.67 124.81 158.56 125.09 159.37 L 125.40 160.26 C 125.68 161.08 126.57 161.51 127.38 161.23 C 128.20 160.94 128.63 160.06 128.35 159.24 Z M 128.06 158.39 L 127.72 157.32 C 127.46 156.50 126.58 156.04 125.76 156.30 C 124.94 156.56 124.48 157.44 124.74 158.26 L 125.08 159.33 C 125.34 160.15 126.22 160.61 127.04 160.35 C 127.86 160.09 128.32 159.21 128.06 158.39 Z M 127.73 157.37 L 127.47 156.43 C 127.24 155.60 126.38 155.11 125.55 155.34 C 124.72 155.57 124.23 156.43 124.46 157.26 L 124.72 158.21 C 124.95 159.04 125.81 159.52 126.64 159.29 C 127.48 159.06 127.96 158.20 127.73 157.37 Z M 127.48 156.47 L 127.28 155.67 C 127.08 154.84 126.23 154.33 125.39 154.54 C 124.55 154.74 124.05 155.59 124.25 156.43 L 124.45 157.22 C 124.66 158.06 125.51 158.57 126.34 158.36 C 127.18 158.15 127.69 157.30 127.48 156.47 Z"
      fill="black"
      fill-rule="nonzero" /></svg>