<svg xmlns="http://www.w3.org/2000/svg" width="300" height="300" viewBox="0 0 300 300">
<path d="M 142.43 178.30 L 141.62 177.75 C 140.90 177.26 139.93 177.45 139.45 178.16 C 138.96 178.87 139.14 179.84 139.86 180.33 L 140.67 180.88 C 141.38 181.37 142.35 181.19 142.84 180.47 C 143.32 179.76 143.14 178.79 142.43 178.30 Z M 141.61 177.75 L 140.79 177.19 C 140.08 176.71 139.11 176.90 138.63 177.61 C 138.14 178.33 138.33 179.30 139.04 179.78 L 139.86 180.33 C 140.58 180.82 141.55 180.63 142.03 179.91 C 142.51 179.20 142.33 178.23 141.61 177.75 Z M 140.78 177.19 L 139.95 176.63 C 139.23 176.16 138.26 176.35 137.79 177.07 C 137.31 177.79 137.50 178.76 138.22 179.23 L 139.05 179.79 C 139.77 180.26 140.74 180.07 141.22 179.35 C 141.70 178.63 141.50 177.66 140.78 177.19 Z M 139.93 176.62 L 139.08 176.07 C 138.35 175.60 137.39 175.81 136.92 176.53 C 136.45 177.25 136.66 178.22 137.38 178.69 L 138.24 179.24 C 138.96 179.71 139.93 179.51 140.40 178.78 C 140.86 178.06 140.66 177.09 139.93 176.62 Z M 139.06 176.06 L 138.21 175.52 C 137.48 175.07 136.52 175.29 136.06 176.02 C 135.60 176.75 135.82 177.71 136.55 178.17 L 137.40 178.70 C 138.13 179.16 139.09 178.94 139.55 178.21 C 140.01 177.48 139.79 176.51 139.06 176.06 Z M 138.20 175.52 L 137.35 174.99 C 136.62 174.54 135.66 174.76 135.20 175.50 C 134.75 176.23 134.98 177.19 135.71 177.65 L 136.56 178.17 C 137.29 178.63 138.25 178.40 138.71 177.67 C 139.16 176.94 138.94 175.97 138.20 175.52 Z M 137.36 175.00 L 136.51 174.46 C 135.78 174.00 134.82 174.22 134.36 174.95 C 133.90 175.68 134.12 176.64 134.85 177.10 L 135.70 177.64 C 136.43 178.10 137.39 177.88 137.85 177.15 C 138.31 176.42 138.09 175.46 137.36 175.00 Z M 136.53 174.48 L 135.69 173.93 C 134.97 173.45 134.01 173.65 133.53 174.37 C 133.06 175.09 133.26 176.06 133.98 176.54 L 134.82 177.09 C 135.54 177.56 136.51 177.36 136.98 176.64 C 137.46 175.92 137.26 174.95 136.53 174.48 Z M 135.74 173.95 L 134.92 173.38 C 134.21 172.88 133.24 173.05 132.74 173.75 C 132.25 174.46 132.42 175.43 133.12 175.93 L 133.94 176.51 C 134.64 177.00 135.62 176.83 136.11 176.13 C 136.61 175.43 136.44 174.45 135.74 173.95 Z M 134.97 173.42 L 134.17 172.79 C 133.48 172.26 132.50 172.39 131.97 173.07 C 131.45 173.75 131.57 174.73 132.25 175.26 L 133.06 175.89 C 133.75 176.42 134.73 176.29 135.25 175.61 C 135.78 174.93 135.66 173.95 134.97 173.42 Z M 134.22 172.84 L 133.45 172.19 C 132.79 171.63 131.81 171.71 131.25 172.37 C 130.69 173.02 130.77 174.01 131.43 174.57 L 132.20 175.22 C 132.86 175.78 133.84 175.69 134.40 175.04 C 134.96 174.38 134.88 173.39 134.22 172.84 Z M 133.50 172.23 L 132.77 171.56 C 132.14 170.97 131.15 171.01 130.57 171.65 C 129.98 172.28 130.02 173.27 130.66 173.85 L 131.38 174.52 C 132.02 175.11 133.01 175.07 133.59 174.43 C 134.17 173.80 134.13 172.81 133.50 172.23 Z M 132.81 171.60 L 132.12 170.91 C 131.51 170.30 130.52 170.30 129.91 170.91 C 129.30 171.53 129.31 172.51 129.92 173.12 L 130.61 173.81 C 131.22 174.42 132.21 174.42 132.82 173.81 C 133.43 173.19 133.43 172.21 132.81 171.60 Z M 132.16 170.95 L 131.46 170.20 C 130.87 169.57 129.88 169.54 129.25 170.13 C 128.62 170.72 128.59 171.71 129.18 172.33 L 129.88 173.08 C 130.47 173.71 131.46 173.74 132.09 173.16 C 132.72 172.57 132.75 171.58 132.16 170.95 Z M 131.50 170.25 L 130.84 169.48 C 130.27 168.82 129.29 168.75 128.64 169.31 C 127.98 169.88 127.91 170.86 128.47 171.52 L 129.14 172.29 C 129.70 172.94 130.69 173.01 131.34 172.45 C 131.99 171.89 132.07 170.90 131.50 170.25 Z M 130.89 169.53 L 130.27 168.75 C 129.74 168.07 128.76 167.95 128.08 168.48 C 127.40 169.01 127.28 170.00 127.81 170.67 L 128.43 171.46 C 128.96 172.14 129.94 172.26 130.62 171.73 C 131.30 171.20 131.42 170.21 130.89 169.53 Z M 130.32 168.82 L 129.77 168.03 C 129.28 167.32 128.30 167.14 127.60 167.64 C 126.89 168.13 126.71 169.10 127.21 169.81 L 127.76 170.60 C 128.25 171.31 129.23 171.49 129.93 170.99 C 130.64 170.50 130.82 169.53 130.32 168.82 Z M 129.83 168.11 L 129.31 167.25 C 128.87 166.51 127.91 166.27 127.17 166.72 C 126.43 167.16 126.19 168.12 126.63 168.86 L 127.15 169.72 C 127.59 170.46 128.55 170.70 129.29 170.26 C 130.03 169.81 130.27 168.85 129.83 168.11 Z M 129.37 167.36 L 128.93 166.46 C 128.54 165.69 127.61 165.38 126.83 165.76 C 126.06 166.14 125.74 167.08 126.13 167.85 L 126.57 168.75 C 126.95 169.52 127.89 169.84 128.66 169.45 C 129.44 169.07 129.75 168.13 129.37 167.36 Z M 128.98 166.59 L 128.62 165.67 C 128.31 164.87 127.40 164.47 126.60 164.78 C 125.80 165.09 125.40 166.00 125.71 166.80 L 126.07 167.72 C 126.38 168.53 127.29 168.92 128.09 168.61 C 128.90 168.30 129.29 167.39 128.98 166.59 Z M 128.67 165.81 L 128.39 164.86 C 128.16 164.03 127.29 163.55 126.46 163.79 C 125.63 164.02 125.16 164.89 125.39 165.72 L 125.67 166.67 C 125.90 167.50 126.77 167.97 127.60 167.74 C 128.43 167.50 128.91 166.63 128.67 165.81 Z M 128.43 164.99 L 128.24 164.03 C 128.08 163.18 127.26 162.63 126.41 162.79 C 125.56 162.96 125.01 163.78 125.18 164.62 L 125.36 165.58 C 125.53 166.43 126.35 166.98 127.19 166.82 C 128.04 166.65 128.59 165.84 128.43 164.99 Z M 128.26 164.14 L 128.14 163.15 C 128.04 162.30 127.26 161.69 126.41 161.79 C 125.55 161.89 124.94 162.67 125.04 163.52 L 125.16 164.51 C 125.26 165.37 126.04 165.98 126.89 165.88 C 127.75 165.78 128.36 165.00 128.26 164.14 Z M 128.15 163.25 L 128.09 162.24 C 128.04 161.38 127.30 160.72 126.44 160.77 C 125.58 160.82 124.93 161.56 124.97 162.42 L 125.03 163.43 C 125.08 164.29 125.82 164.95 126.68 164.90 C 127.54 164.85 128.20 164.11 128.15 163.25 Z M 128.09 162.31 L 128.08 161.31 C 128.08 160.45 127.37 159.75 126.51 159.76 C 125.64 159.77 124.95 160.48 124.96 161.34 L 124.97 162.34 C 124.98 163.21 125.69 163.90 126.55 163.89 C 127.41 163.88 128.10 163.17 128.09 162.31 Z M 128.08 161.38 L 128.12 160.42 C 128.15 159.56 127.47 158.84 126.61 158.81 C 125.75 158.78 125.03 159.45 125.00 160.31 L 124.96 161.27 C 124.93 162.13 125.61 162.85 126.47 162.88 C 127.33 162.92 128.05 162.24 128.08 161.38 Z M 128.11 160.52 L 128.21 159.55 C 128.30 158.69 127.67 157.93 126.81 157.84 C 125.95 157.75 125.19 158.38 125.10 159.24 L 125.00 160.21 C 124.92 161.07 125.54 161.83 126.40 161.92 C 127.26 162.01 128.02 161.38 128.11 160.52 Z M 128.19 159.68 L 128.38 158.68 C 128.53 157.83 127.97 157.02 127.13 156.86 C 126.28 156.70 125.46 157.26 125.31 158.11 L 125.12 159.11 C 124.96 159.96 125.52 160.77 126.37 160.93 C 127.22 161.09 128.03 160.53 128.19 159.68 Z M 128.34 158.82 L 128.63 157.81 C 128.87 156.98 128.39 156.12 127.56 155.88 C 126.73 155.64 125.87 156.12 125.63 156.95 L 125.34 157.96 C 125.10 158.79 125.58 159.66 126.41 159.90 C 127.24 160.13 128.10 159.65 128.34 158.82 Z M 128.59 157.94 L 128.95 157.01 C 129.26 156.21 128.85 155.30 128.05 154.99 C 127.24 154.68 126.34 155.09 126.03 155.89 L 125.67 156.82 C 125.37 157.63 125.77 158.53 126.57 158.84 C 127.38 159.15 128.28 158.75 128.59 157.94 Z M 128.91 157.10 L 129.34 156.17 C 129.69 155.38 129.35 154.46 128.57 154.10 C 127.78 153.74 126.86 154.08 126.50 154.87 L 126.07 155.80 C 125.71 156.59 126.06 157.51 126.84 157.87 C 127.62 158.23 128.55 157.88 128.91 157.10 Z M 129.31 156.23 L 129.77 155.32 C 130.17 154.55 129.86 153.61 129.10 153.22 C 128.33 152.82 127.39 153.13 127.00 153.89 L 126.53 154.80 C 126.13 155.57 126.44 156.51 127.20 156.91 C 127.97 157.30 128.91 157.00 129.31 156.23 Z M 129.75 155.37 L 130.23 154.50 C 130.65 153.75 130.38 152.80 129.63 152.38 C 128.87 151.96 127.92 152.23 127.50 152.98 L 127.02 153.85 C 126.60 154.60 126.87 155.55 127.62 155.97 C 128.38 156.39 129.33 156.12 129.75 155.37 Z M 130.21 154.54 L 130.74 153.65 C 131.17 152.90 130.93 151.95 130.19 151.51 C 129.44 151.07 128.49 151.32 128.05 152.06 L 127.52 152.95 C 127.08 153.69 127.33 154.65 128.07 155.09 C 128.81 155.53 129.77 155.28 130.21 154.54 Z M 130.72 153.68 L 131.28 152.78 C 131.73 152.04 131.51 151.08 130.78 150.63 C 130.04 150.17 129.08 150.40 128.63 151.13 L 128.07 152.03 C 127.61 152.76 127.84 153.72 128.57 154.18 C 129.30 154.63 130.26 154.41 130.72 153.68 Z M 131.26 152.80 L 131.79 151.99 C 132.26 151.27 132.06 150.30 131.34 149.83 C 130.61 149.36 129.65 149.56 129.17 150.29 L 128.64 151.10 C 128.17 151.82 128.38 152.79 129.10 153.26 C 129.82 153.73 130.79 153.53 131.26 152.80 Z M 131.78 152.01 L 132.29 151.25 C 132.77 150.54 132.58 149.57 131.87 149.08 C 131.16 148.60 130.19 148.79 129.70 149.50 L 129.19 150.26 C 128.71 150.98 128.89 151.95 129.61 152.43 C 130.32 152.92 131.29 152.73 131.78 152.01 Z M 132.28 151.26 L 132.84 150.46 C 133.33 149.75 133.15 148.77 132.44 148.28 C 131.73 147.79 130.76 147.97 130.27 148.68 L 129.71 149.49 C 129.22 150.20 129.40 151.17 130.11 151.66 C 130.82 152.15 131.79 151.97 132.28 151.26 Z M 132.83 150.47 L 133.40 149.65 C 133.90 148.95 133.73 147.97 133.03 147.48 C 132.32 146.98 131.35 147.15 130.85 147.86 L 130.28 148.67 C 129.78 149.38 129.95 150.35 130.66 150.85 C 131.36 151.34 132.33 151.17 132.83 150.47 Z M 133.39 149.67 L 133.98 148.86 C 134.48 148.16 134.33 147.19 133.63 146.68 C 132.93 146.17 131.96 146.33 131.45 147.03 L 130.86 147.84 C 130.36 148.54 130.51 149.51 131.21 150.02 C 131.91 150.52 132.89 150.37 133.39 149.67 Z M 133.96 148.88 L 134.56 148.09 C 135.08 147.40 134.94 146.42 134.25 145.90 C 133.56 145.38 132.58 145.52 132.06 146.21 L 131.47 147.01 C 130.95 147.70 131.09 148.68 131.78 149.19 C 132.47 149.71 133.45 149.57 133.96 148.88 Z M 134.55 148.10 L 135.15 147.32 C 135.68 146.64 135.55 145.66 134.87 145.13 C 134.19 144.60 133.21 144.73 132.68 145.41 L 132.08 146.20 C 131.55 146.88 131.67 147.86 132.36 148.39 C 133.04 148.91 134.02 148.79 134.55 148.10 Z M 135.15 147.33 L 135.77 146.54 C 136.30 145.86 136.18 144.87 135.50 144.34 C 134.82 143.81 133.84 143.93 133.31 144.61 L 132.69 145.40 C 132.16 146.08 132.28 147.06 132.96 147.59 C 133.64 148.13 134.62 148.01 135.15 147.33 Z M 135.77 146.53 L 136.39 145.73 C 136.92 145.05 136.80 144.07 136.12 143.54 C 135.44 143.01 134.46 143.14 133.93 143.82 L 133.31 144.61 C 132.78 145.29 132.90 146.27 133.58 146.80 C 134.26 147.33 135.24 147.21 135.77 146.53 Z M 136.39 145.73 L 137.01 144.94 C 137.53 144.26 137.41 143.28 136.73 142.75 C 136.05 142.22 135.06 142.35 134.54 143.03 L 133.92 143.82 C 133.40 144.50 133.52 145.48 134.20 146.01 C 134.89 146.54 135.87 146.41 136.39 145.73 Z M 137.00 144.95 L 137.62 144.16 C 138.15 143.48 138.03 142.50 137.36 141.97 C 136.68 141.43 135.70 141.55 135.16 142.23 L 134.54 143.02 C 134.01 143.70 134.13 144.68 134.81 145.21 C 135.49 145.74 136.47 145.63 137.00 144.95 Z M 137.60 144.18 L 138.23 143.41 C 138.78 142.75 138.68 141.76 138.02 141.22 C 137.35 140.67 136.37 140.77 135.82 141.43 L 135.19 142.20 C 134.64 142.87 134.73 143.85 135.40 144.40 C 136.07 144.95 137.05 144.85 137.60 144.18 Z M 138.20 143.45 L 138.82 142.75 C 139.39 142.10 139.33 141.11 138.68 140.54 C 138.03 139.97 137.05 140.04 136.48 140.68 L 135.85 141.39 C 135.28 142.04 135.35 143.02 135.99 143.59 C 136.64 144.16 137.63 144.10 138.20 143.45 Z M 138.78 142.79 L 139.43 142.11 C 140.02 141.49 140.00 140.50 139.37 139.90 C 138.75 139.31 137.76 139.33 137.17 139.96 L 136.52 140.64 C 135.92 141.26 135.95 142.25 136.57 142.85 C 137.20 143.44 138.18 143.42 138.78 142.79 Z M 139.39 142.15 L 140.11 141.45 C 140.72 140.85 140.73 139.86 140.13 139.24 C 139.53 138.62 138.54 138.61 137.92 139.22 L 137.21 139.92 C 136.59 140.52 136.58 141.51 137.18 142.12 C 137.78 142.74 138.77 142.75 139.39 142.15 Z M 140.07 141.48 L 140.89 140.73 C 141.52 140.15 141.56 139.16 140.98 138.52 C 140.40 137.89 139.41 137.85 138.77 138.43 L 137.96 139.18 C 137.32 139.77 137.28 140.76 137.87 141.39 C 138.45 142.02 139.44 142.06 140.07 141.48 Z M 140.86 140.75 L 141.56 140.14 C 142.21 139.56 142.27 138.58 141.70 137.93 C 141.13 137.29 140.14 137.22 139.49 137.80 L 138.80 138.41 C 138.15 138.98 138.09 139.97 138.66 140.61 C 139.23 141.26 140.22 141.32 140.86 140.75 Z M 141.54 140.15 L 142.29 139.51 C 142.95 138.95 143.03 137.97 142.47 137.31 C 141.91 136.66 140.93 136.58 140.27 137.14 L 139.52 137.78 C 138.86 138.34 138.78 139.32 139.34 139.98 C 139.90 140.63 140.88 140.71 141.54 140.15 Z M 142.27 139.53 L 143.06 138.89 C 143.73 138.34 143.83 137.36 143.29 136.69 C 142.74 136.02 141.76 135.92 141.09 136.47 L 140.30 137.11 C 139.63 137.66 139.53 138.64 140.07 139.31 C 140.62 139.98 141.60 140.08 142.27 139.53 Z M 143.03 138.91 L 143.85 138.28 C 144.53 137.75 144.66 136.77 144.13 136.09 C 143.60 135.41 142.62 135.28 141.94 135.81 L 141.12 136.44 C 140.44 136.97 140.31 137.95 140.84 138.63 C 141.37 139.31 142.35 139.44 143.03 138.91 Z M 143.81 138.31 L 144.65 137.70 C 145.34 137.19 145.50 136.22 144.99 135.52 C 144.49 134.82 143.51 134.67 142.81 135.17 L 141.98 135.78 C 141.28 136.29 141.12 137.26 141.63 137.96 C 142.14 138.66 143.11 138.81 143.81 138.31 Z M 144.60 137.74 L 145.49 137.14 C 146.21 136.66 146.40 135.69 145.92 134.98 C 145.44 134.26 144.47 134.07 143.76 134.54 L 142.86 135.14 C 142.15 135.62 141.95 136.59 142.43 137.30 C 142.91 138.02 143.88 138.21 144.60 137.74 Z M 145.43 137.18 L 146.31 136.65 C 147.05 136.20 147.29 135.25 146.84 134.51 C 146.40 133.77 145.44 133.53 144.70 133.97 L 143.82 134.50 C 143.08 134.95 142.84 135.91 143.28 136.65 C 143.73 137.39 144.69 137.62 145.43 137.18 Z M 146.24 136.69 L 147.11 136.23 C 147.87 135.82 148.16 134.88 147.75 134.12 C 147.35 133.35 146.40 133.07 145.64 133.47 L 144.77 133.93 C 144.01 134.34 143.72 135.28 144.13 136.04 C 144.53 136.81 145.48 137.09 146.24 136.69 Z M 147.02 136.27 L 147.88 135.88 C 148.66 135.52 149.01 134.59 148.65 133.81 C 148.29 133.02 147.36 132.68 146.58 133.04 L 145.72 133.43 C 144.94 133.79 144.60 134.71 144.95 135.50 C 145.31 136.28 146.24 136.63 147.02 136.27 Z M 147.77 135.92 L 148.70 135.58 C 149.50 135.28 149.92 134.38 149.61 133.57 C 149.31 132.76 148.42 132.35 147.61 132.65 L 146.68 133.00 C 145.88 133.30 145.46 134.19 145.76 135.00 C 146.07 135.81 146.96 136.22 147.77 135.92 Z M 148.57 135.62 L 149.54 135.35 C 150.37 135.12 150.85 134.26 150.62 133.43 C 150.39 132.60 149.53 132.11 148.70 132.34 L 147.73 132.61 C 146.90 132.84 146.42 133.70 146.65 134.53 C 146.88 135.36 147.74 135.85 148.57 135.62 Z M 149.40 135.38 L 150.37 135.20 C 151.22 135.04 151.78 134.23 151.62 133.38 C 151.46 132.53 150.65 131.97 149.80 132.13 L 148.83 132.31 C 147.99 132.47 147.43 133.28 147.58 134.13 C 147.74 134.98 148.56 135.54 149.40 135.38 Z M 150.25 135.22 L 151.23 135.12 C 152.09 135.03 152.71 134.26 152.62 133.40 C 152.53 132.55 151.76 131.92 150.91 132.01 L 149.92 132.11 C 149.07 132.20 148.44 132.97 148.53 133.83 C 148.62 134.69 149.39 135.31 150.25 135.22 Z M 151.12 135.12 L 152.07 135.09 C 152.93 135.06 153.60 134.34 153.57 133.48 C 153.54 132.62 152.82 131.94 151.96 131.97 L 151.01 132.00 C 150.15 132.03 149.48 132.76 149.51 133.62 C 149.54 134.48 150.26 135.15 151.12 135.12 Z M 151.93 135.09 L 152.89 135.14 C 153.75 135.19 154.48 134.53 154.53 133.67 C 154.57 132.80 153.91 132.07 153.05 132.02 L 152.10 131.97 C 151.24 131.93 150.50 132.59 150.46 133.45 C 150.41 134.31 151.07 135.05 151.93 135.09 Z M 152.70 135.12 L 153.68 135.29 C 154.53 135.44 155.34 134.87 155.49 134.02 C 155.63 133.17 155.07 132.36 154.22 132.22 L 153.24 132.04 C 152.39 131.90 151.58 132.46 151.43 133.31 C 151.28 134.16 151.85 134.97 152.70 135.12 Z M 153.46 135.24 L 154.46 135.57 C 155.28 135.83 156.16 135.39 156.43 134.57 C 156.70 133.75 156.25 132.87 155.44 132.60 L 154.44 132.27 C 153.62 132.00 152.73 132.45 152.47 133.27 C 152.20 134.08 152.64 134.97 153.46 135.24 Z M 154.24 135.48 L 155.15 135.93 C 155.92 136.32 156.86 136.01 157.25 135.24 C 157.64 134.47 157.33 133.54 156.56 133.15 L 155.65 132.69 C 154.88 132.30 153.94 132.61 153.55 133.38 C 153.17 134.15 153.47 135.09 154.24 135.48 Z M 155.00 135.84 L 155.83 136.39 C 156.55 136.87 157.52 136.67 157.99 135.95 C 158.47 135.23 158.27 134.26 157.55 133.78 L 156.71 133.24 C 155.99 132.76 155.03 132.96 154.55 133.68 C 154.08 134.40 154.28 135.37 155.00 135.84 Z M 155.73 136.32 L 156.54 136.95 C 157.22 137.48 158.20 137.36 158.73 136.68 C 159.26 136.00 159.14 135.02 158.46 134.49 L 157.65 133.86 C 156.97 133.33 155.99 133.45 155.46 134.13 C 154.93 134.81 155.05 135.79 155.73 136.32 Z M 156.47 136.89 L 157.24 137.57 C 157.89 138.14 158.88 138.08 159.45 137.43 C 160.02 136.79 159.95 135.80 159.31 135.23 L 158.53 134.55 C 157.89 133.98 156.90 134.04 156.33 134.69 C 155.76 135.34 155.82 136.32 156.47 136.89 Z M 157.19 137.52 L 157.90 138.22 C 158.52 138.81 159.51 138.80 160.11 138.18 C 160.71 137.56 160.69 136.57 160.07 135.97 L 159.36 135.28 C 158.74 134.68 157.75 134.70 157.15 135.32 C 156.55 135.94 156.57 136.93 157.19 137.52 Z M 157.86 138.17 L 158.58 138.93 C 159.18 139.55 160.17 139.58 160.79 138.98 C 161.42 138.39 161.44 137.40 160.84 136.78 L 160.12 136.02 C 159.52 135.39 158.54 135.37 157.91 135.96 C 157.29 136.56 157.26 137.55 157.86 138.17 Z M 158.54 138.88 L 159.24 139.68 C 159.81 140.33 160.79 140.39 161.44 139.83 C 162.09 139.26 162.16 138.27 161.59 137.62 L 160.89 136.82 C 160.32 136.18 159.33 136.11 158.69 136.68 C 158.04 137.25 157.97 138.23 158.54 138.88 Z M 159.20 139.63 L 159.81 140.39 C 160.35 141.06 161.33 141.17 162.00 140.63 C 162.67 140.09 162.78 139.10 162.24 138.43 L 161.63 137.67 C 161.09 137.00 160.11 136.89 159.44 137.43 C 158.76 137.97 158.66 138.96 159.20 139.63 Z M 159.77 140.35 L 160.33 141.09 C 160.85 141.77 161.83 141.91 162.52 141.40 C 163.20 140.88 163.34 139.90 162.83 139.21 L 162.27 138.47 C 161.75 137.78 160.77 137.64 160.08 138.16 C 159.39 138.68 159.26 139.66 159.77 140.35 Z M 160.31 141.06 L 160.87 141.83 C 161.38 142.53 162.35 142.69 163.05 142.18 C 163.75 141.68 163.91 140.70 163.40 140.00 L 162.84 139.23 C 162.34 138.53 161.36 138.38 160.66 138.88 C 159.96 139.39 159.81 140.36 160.31 141.06 Z M 160.86 141.82 L 161.43 142.62 C 161.92 143.33 162.90 143.50 163.60 143.00 C 164.31 142.51 164.48 141.53 163.98 140.83 L 163.41 140.02 C 162.92 139.31 161.94 139.14 161.24 139.64 C 160.53 140.14 160.36 141.11 160.86 141.82 Z M 161.41 142.60 L 161.97 143.43 C 162.45 144.15 163.42 144.33 164.14 143.85 C 164.85 143.37 165.04 142.40 164.56 141.69 L 164.00 140.85 C 163.52 140.14 162.55 139.95 161.83 140.43 C 161.12 140.91 160.93 141.88 161.41 142.60 Z M 161.95 143.40 L 162.49 144.26 C 162.96 144.98 163.92 145.20 164.65 144.73 C 165.38 144.27 165.59 143.30 165.13 142.58 L 164.58 141.72 C 164.12 140.99 163.15 140.78 162.42 141.24 C 161.70 141.71 161.48 142.67 161.95 143.40 Z M 162.47 144.22 L 162.98 145.07 C 163.42 145.81 164.38 146.06 165.12 145.61 C 165.86 145.17 166.10 144.21 165.66 143.47 L 165.15 142.62 C 164.71 141.88 163.75 141.63 163.01 142.08 C 162.27 142.52 162.03 143.48 162.47 144.22 Z M 162.96 145.04 L 163.45 145.91 C 163.87 146.66 164.82 146.93 165.57 146.51 C 166.33 146.09 166.60 145.14 166.17 144.39 L 165.69 143.51 C 165.26 142.76 164.31 142.49 163.56 142.91 C 162.81 143.33 162.54 144.28 162.96 145.04 Z M 163.43 145.88 L 163.90 146.76 C 164.30 147.53 165.24 147.82 166.01 147.42 C 166.77 147.02 167.06 146.07 166.66 145.31 L 166.19 144.42 C 165.79 143.66 164.85 143.37 164.09 143.77 C 163.32 144.17 163.03 145.11 163.43 145.88 Z M 163.88 146.73 L 164.32 147.63 C 164.71 148.40 165.64 148.71 166.41 148.33 C 167.19 147.95 167.50 147.01 167.12 146.24 L 166.68 145.35 C 166.30 144.57 165.36 144.26 164.59 144.64 C 163.81 145.02 163.50 145.96 163.88 146.73 Z M 164.31 147.59 L 164.74 148.51 C 165.10 149.29 166.03 149.63 166.81 149.27 C 167.59 148.90 167.93 147.98 167.57 147.19 L 167.14 146.27 C 166.77 145.49 165.85 145.15 165.06 145.52 C 164.28 145.88 163.94 146.81 164.31 147.59 Z M 164.72 148.48 L 165.12 149.40 C 165.47 150.19 166.39 150.55 167.18 150.20 C 167.97 149.85 168.33 148.93 167.98 148.14 L 167.58 147.23 C 167.23 146.44 166.31 146.08 165.52 146.42 C 164.73 146.77 164.37 147.69 164.72 148.48 Z M 165.11 149.37 L 165.49 150.28 C 165.82 151.08 166.73 151.46 167.53 151.13 C 168.33 150.80 168.70 149.89 168.37 149.09 L 168.00 148.17 C 167.67 147.38 166.75 147.00 165.96 147.33 C 165.16 147.66 164.78 148.57 165.11 149.37 Z M 165.48 150.26 L 165.84 151.18 C 166.16 151.99 167.06 152.38 167.86 152.07 C 168.67 151.75 169.06 150.85 168.75 150.05 L 168.39 149.12 C 168.07 148.32 167.17 147.92 166.36 148.23 C 165.56 148.55 165.16 149.45 165.48 150.26 Z M 165.83 151.15 L 166.18 152.10 C 166.48 152.91 167.37 153.33 168.18 153.03 C 168.99 152.73 169.41 151.83 169.11 151.02 L 168.76 150.08 C 168.46 149.27 167.57 148.85 166.76 149.15 C 165.95 149.45 165.53 150.34 165.83 151.15 Z M 166.16 152.06 L 166.48 153.01 C 166.75 153.83 167.64 154.27 168.46 153.99 C 169.27 153.72 169.72 152.84 169.44 152.02 L 169.12 151.07 C 168.85 150.25 167.97 149.81 167.15 150.08 C 166.33 150.36 165.89 151.24 166.16 152.06 Z M 166.46 152.95 L 166.74 153.90 C 166.98 154.73 167.85 155.20 168.68 154.96 C 169.50 154.72 169.98 153.85 169.74 153.02 L 169.46 152.08 C 169.22 151.25 168.35 150.77 167.52 151.01 C 166.70 151.26 166.22 152.12 166.46 152.95 Z M 166.72 153.83 L 166.96 154.80 C 167.16 155.64 168.00 156.16 168.84 155.96 C 169.68 155.76 170.19 154.91 169.99 154.08 L 169.76 153.10 C 169.56 152.26 168.71 151.74 167.87 151.94 C 167.04 152.15 166.52 152.99 166.72 153.83 Z M 166.94 154.73 L 167.12 155.72 C 167.28 156.56 168.10 157.12 168.95 156.96 C 169.79 156.80 170.35 155.99 170.19 155.14 L 170.01 154.15 C 169.85 153.30 169.03 152.75 168.19 152.91 C 167.34 153.06 166.78 153.88 166.94 154.73 Z M 167.11 155.65 L 167.26 156.64 C 167.38 157.49 168.17 158.08 169.02 157.96 C 169.88 157.84 170.47 157.05 170.35 156.19 L 170.20 155.21 C 170.08 154.35 169.29 153.76 168.44 153.88 C 167.58 154.01 166.99 154.80 167.11 155.65 Z M 167.25 156.58 L 167.35 157.54 C 167.44 158.40 168.21 159.02 169.07 158.93 C 169.93 158.83 170.55 158.06 170.46 157.21 L 170.35 156.25 C 170.26 155.39 169.49 154.77 168.63 154.86 C 167.78 154.95 167.16 155.72 167.25 156.58 Z M 167.35 157.49 L 167.42 158.39 C 167.48 159.25 168.23 159.90 169.09 159.83 C 169.95 159.77 170.60 159.01 170.53 158.15 L 170.46 157.25 C 170.39 156.39 169.64 155.75 168.78 155.82 C 167.92 155.88 167.28 156.63 167.35 157.49 Z M 167.41 158.35 L 167.46 159.30 C 167.50 160.16 168.23 160.83 169.09 160.79 C 169.95 160.75 170.62 160.02 170.58 159.15 L 170.53 158.20 C 170.49 157.34 169.76 156.67 168.90 156.72 C 168.04 156.76 167.37 157.49 167.41 158.35 Z M 167.46 159.26 L 167.48 160.32 C 167.50 161.18 168.21 161.87 169.08 161.85 C 169.94 161.83 170.62 161.12 170.60 160.25 L 170.58 159.19 C 170.56 158.33 169.85 157.65 168.98 157.67 C 168.12 157.69 167.44 158.40 167.46 159.26 Z M 167.48 160.29 L 167.48 161.37 C 167.48 162.23 168.19 162.93 169.05 162.93 C 169.91 162.93 170.61 162.23 170.61 161.36 L 170.60 160.28 C 170.60 159.42 169.90 158.72 169.04 158.73 C 168.18 158.73 167.48 159.43 167.48 160.29 Z M 167.48 161.35 L 167.47 162.34 C 167.46 163.21 168.15 163.91 169.01 163.93 C 169.87 163.94 170.58 163.25 170.59 162.39 L 170.60 161.39 C 170.62 160.53 169.93 159.82 169.07 159.81 C 168.20 159.79 167.49 160.48 167.48 161.35 Z M 167.47 162.31 L 167.44 163.35 C 167.41 164.21 168.08 164.94 168.94 164.96 C 169.80 164.99 170.53 164.32 170.56 163.46 L 170.59 162.42 C 170.62 161.56 169.94 160.83 169.08 160.80 C 168.22 160.78 167.50 161.45 167.47 162.31 Z M 167.44 163.31 L 167.37 164.35 C 167.32 165.21 167.98 165.95 168.84 166.00 C 169.70 166.05 170.44 165.40 170.49 164.53 L 170.55 163.50 C 170.61 162.64 169.95 161.90 169.09 161.85 C 168.23 161.79 167.49 162.45 167.44 163.31 Z M 167.38 164.29 L 167.28 165.27 C 167.20 166.13 167.82 166.90 168.68 166.98 C 169.54 167.07 170.30 166.44 170.39 165.58 L 170.49 164.59 C 170.57 163.74 169.94 162.97 169.09 162.89 C 168.23 162.80 167.46 163.43 167.38 164.29 Z M 167.29 165.18 L 167.13 166.20 C 166.99 167.05 167.57 167.85 168.42 167.99 C 169.27 168.13 170.07 167.55 170.21 166.70 L 170.38 165.68 C 170.51 164.83 169.93 164.02 169.08 163.89 C 168.23 163.75 167.43 164.33 167.29 165.18 Z M 167.16 166.05 L 166.88 167.11 C 166.67 167.94 167.17 168.79 168.00 169.01 C 168.83 169.23 169.69 168.73 169.91 167.90 L 170.18 166.84 C 170.40 166.01 169.90 165.16 169.07 164.94 C 168.23 164.72 167.38 165.22 167.16 166.05 Z M 166.94 166.94 L 166.59 167.84 C 166.29 168.65 166.69 169.55 167.50 169.86 C 168.30 170.16 169.20 169.76 169.51 168.96 L 169.85 168.06 C 170.16 167.25 169.76 166.35 168.95 166.04 C 168.15 165.74 167.24 166.14 166.94 166.94 Z M 166.65 167.71 L 166.26 168.52 C 165.88 169.29 166.20 170.23 166.97 170.60 C 167.75 170.98 168.68 170.66 169.06 169.89 L 169.45 169.09 C 169.83 168.31 169.51 167.38 168.74 167.00 C 167.96 166.62 167.03 166.94 166.65 167.71 Z M 166.30 168.44 L 165.83 169.28 C 165.40 170.03 165.67 170.98 166.42 171.40 C 167.17 171.83 168.12 171.56 168.55 170.81 L 169.02 169.97 C 169.44 169.22 169.18 168.27 168.42 167.84 C 167.67 167.42 166.72 167.69 166.30 168.44 Z M 165.86 169.22 L 165.34 170.06 C 164.88 170.79 165.10 171.76 165.84 172.21 C 166.57 172.67 167.53 172.44 167.99 171.71 L 168.51 170.87 C 168.97 170.14 168.74 169.17 168.01 168.72 C 167.28 168.26 166.32 168.49 165.86 169.22 Z M 165.37 170.01 L 164.80 170.84 C 164.32 171.55 164.50 172.53 165.22 173.01 C 165.93 173.50 166.90 173.31 167.39 172.60 L 167.95 171.77 C 168.44 171.05 168.25 170.08 167.54 169.60 C 166.83 169.11 165.85 169.30 165.37 170.01 Z M 164.84 170.80 L 164.24 171.60 C 163.73 172.30 163.88 173.28 164.58 173.79 C 165.27 174.30 166.25 174.15 166.76 173.45 L 167.35 172.64 C 167.86 171.95 167.71 170.97 167.02 170.46 C 166.32 169.95 165.35 170.10 164.84 170.80 Z M 164.27 171.57 L 163.66 172.35 C 163.13 173.03 163.25 174.02 163.93 174.55 C 164.61 175.08 165.59 174.96 166.12 174.28 L 166.73 173.49 C 167.26 172.81 167.14 171.83 166.46 171.30 C 165.78 170.77 164.80 170.89 164.27 171.57 Z M 163.68 172.32 L 163.04 173.10 C 162.50 173.77 162.59 174.75 163.26 175.30 C 163.93 175.85 164.91 175.75 165.46 175.08 L 166.09 174.31 C 166.64 173.64 166.55 172.66 165.88 172.11 C 165.21 171.56 164.23 171.66 163.68 172.32 Z M 163.06 173.08 L 162.43 173.81 C 161.87 174.47 161.95 175.45 162.60 176.01 C 163.25 176.58 164.24 176.50 164.80 175.85 L 165.43 175.11 C 166.00 174.45 165.92 173.47 165.27 172.91 C 164.61 172.35 163.63 172.42 163.06 173.08 Z M 162.46 173.78 L 161.86 174.44 C 161.28 175.08 161.33 176.07 161.97 176.65 C 162.61 177.23 163.60 177.18 164.18 176.54 L 164.77 175.88 C 165.35 175.24 165.30 174.25 164.66 173.67 C 164.02 173.09 163.04 173.14 162.46 173.78 Z M 161.91 174.39 L 161.24 175.07 C 160.63 175.69 160.64 176.68 161.25 177.28 C 161.87 177.89 162.86 177.88 163.46 177.26 L 164.13 176.59 C 164.74 175.97 164.73 174.98 164.12 174.38 C 163.50 173.77 162.51 173.78 161.91 174.39 Z M 161.30 175.02 L 160.50 175.74 C 159.87 176.32 159.82 177.31 160.41 177.95 C 160.99 178.58 161.98 178.63 162.61 178.05 L 163.40 177.32 C 164.04 176.74 164.08 175.75 163.50 175.12 C 162.92 174.48 161.93 174.43 161.30 175.02 Z M 160.56 175.69 L 159.75 176.37 C 159.08 176.92 158.99 177.90 159.54 178.57 C 160.10 179.23 161.08 179.32 161.74 178.77 L 162.56 178.09 C 163.22 177.54 163.31 176.56 162.76 175.90 C 162.21 175.23 161.22 175.14 160.56 175.69 Z M 159.79 176.33 L 159.05 176.91 C 158.36 177.44 158.24 178.42 158.77 179.10 C 159.30 179.78 160.28 179.91 160.96 179.38 L 161.70 178.80 C 162.38 178.28 162.51 177.29 161.98 176.61 C 161.45 175.93 160.47 175.81 159.79 176.33 Z M 159.08 176.88 L 158.27 177.48 C 157.58 177.98 157.43 178.96 157.93 179.66 C 158.44 180.35 159.42 180.50 160.12 180.00 L 160.92 179.40 C 161.62 178.90 161.77 177.92 161.26 177.22 C 160.75 176.53 159.78 176.38 159.08 176.88 Z M 158.31 177.45 L 157.45 178.04 C 156.74 178.53 156.57 179.50 157.06 180.21 C 157.54 180.92 158.52 181.10 159.23 180.61 L 160.08 180.02 C 160.79 179.53 160.97 178.56 160.48 177.85 C 159.99 177.14 159.02 176.96 158.31 177.45 Z M 157.49 178.01 L 156.61 178.58 C 155.89 179.05 155.68 180.01 156.15 180.74 C 156.62 181.46 157.59 181.67 158.31 181.20 L 159.19 180.63 C 159.91 180.17 160.12 179.20 159.65 178.48 C 159.18 177.75 158.22 177.54 157.49 178.01 Z M 156.66 178.55 L 155.78 179.08 C 155.04 179.52 154.80 180.48 155.24 181.22 C 155.68 181.96 156.64 182.20 157.38 181.76 L 158.26 181.23 C 159.00 180.79 159.24 179.83 158.80 179.09 C 158.36 178.35 157.40 178.11 156.66 178.55 Z M 155.83 179.05 L 154.91 179.55 C 154.15 179.96 153.87 180.91 154.28 181.67 C 154.69 182.43 155.64 182.71 156.40 182.29 L 157.32 181.79 C 158.08 181.38 158.36 180.43 157.95 179.68 C 157.54 178.92 156.59 178.64 155.83 179.05 Z M 154.98 179.52 L 154.06 179.96 C 153.28 180.33 152.96 181.26 153.33 182.04 C 153.70 182.82 154.64 183.15 155.41 182.77 L 156.33 182.33 C 157.11 181.96 157.44 181.02 157.06 180.25 C 156.69 179.47 155.76 179.14 154.98 179.52 Z M 154.14 179.92 L 153.22 180.31 C 152.42 180.64 152.05 181.55 152.38 182.35 C 152.71 183.14 153.63 183.52 154.42 183.19 L 155.34 182.81 C 156.13 182.47 156.51 181.56 156.18 180.76 C 155.85 179.97 154.93 179.59 154.14 179.92 Z M 153.30 180.27 L 152.38 180.60 C 151.57 180.89 151.14 181.78 151.43 182.59 C 151.72 183.40 152.61 183.83 153.42 183.54 L 154.34 183.22 C 155.15 182.93 155.58 182.04 155.29 181.23 C 155.01 180.41 154.11 179.99 153.30 180.27 Z M 152.47 180.57 L 151.53 180.84 C 150.70 181.08 150.23 181.95 150.47 182.78 C 150.71 183.61 151.58 184.08 152.40 183.84 L 153.34 183.57 C 154.17 183.33 154.64 182.46 154.40 181.63 C 154.16 180.81 153.29 180.33 152.47 180.57 Z M 151.61 180.82 L 150.67 181.04 C 149.83 181.24 149.31 182.08 149.51 182.92 C 149.70 183.76 150.54 184.28 151.38 184.08 L 152.32 183.86 C 153.16 183.67 153.68 182.83 153.49 181.99 C 153.29 181.15 152.45 180.63 151.61 180.82 Z M 150.75 181.03 L 149.79 181.20 C 148.95 181.35 148.38 182.17 148.54 183.01 C 148.69 183.86 149.50 184.43 150.35 184.27 L 151.31 184.10 C 152.16 183.94 152.72 183.13 152.56 182.28 C 152.41 181.43 151.60 180.87 150.75 181.03 Z M 149.86 181.19 L 148.88 181.32 C 148.03 181.44 147.43 182.23 147.55 183.08 C 147.66 183.94 148.45 184.53 149.31 184.42 L 150.28 184.28 C 151.14 184.16 151.74 183.38 151.62 182.52 C 151.50 181.67 150.71 181.07 149.86 181.19 Z M 148.94 181.32 L 147.94 181.42 C 147.08 181.50 146.45 182.27 146.54 183.12 C 146.62 183.98 147.39 184.61 148.25 184.52 L 149.25 184.42 C 150.11 184.34 150.73 183.57 150.65 182.71 C 150.56 181.86 149.80 181.23 148.94 181.32 Z M 147.99 181.41 L 146.96 181.48 C 146.10 181.54 145.45 182.28 145.51 183.14 C 145.57 184.00 146.31 184.65 147.17 184.60 L 148.20 184.53 C 149.06 184.47 149.71 183.72 149.65 182.86 C 149.59 182.00 148.85 181.35 147.99 181.41 Z M 147.00 181.48 L 145.98 181.52 C 145.12 181.56 144.45 182.28 144.48 183.15 C 144.52 184.01 145.25 184.68 146.11 184.64 L 147.13 184.60 C 147.99 184.56 148.66 183.84 148.63 182.97 C 148.59 182.11 147.86 181.44 147.00 181.48 Z M 146.02 181.52 L 145.04 181.54 C 144.18 181.55 143.49 182.26 143.50 183.13 C 143.52 183.99 144.23 184.67 145.09 184.66 L 146.07 184.64 C 146.93 184.63 147.62 183.92 147.61 183.05 C 147.59 182.19 146.88 181.50 146.02 181.52 Z M 145.08 181.54 L 144.09 181.53 C 143.23 181.52 142.52 182.21 142.51 183.07 C 142.50 183.93 143.19 184.64 144.05 184.65 L 145.05 184.66 C 145.91 184.67 146.62 183.98 146.63 183.12 C 146.64 182.25 145.94 181.55 145.08 181.54 Z M 144.14 181.53 L 143.14 181.48 C 142.28 181.44 141.55 182.11 141.51 182.97 C 141.47 183.83 142.14 184.56 143.00 184.60 L 144.00 184.65 C 144.86 184.69 145.59 184.02 145.63 183.16 C 145.67 182.30 145.00 181.57 144.14 181.53 Z M 143.21 181.49 L 142.20 181.40 C 141.34 181.32 140.59 181.96 140.51 182.82 C 140.44 183.68 141.07 184.43 141.93 184.51 L 142.94 184.60 C 143.79 184.67 144.55 184.04 144.63 183.18 C 144.70 182.32 144.07 181.56 143.21 181.49 Z M 142.27 181.41 L 141.27 181.27 C 140.41 181.16 139.63 181.75 139.51 182.61 C 139.40 183.46 140.00 184.25 140.85 184.37 L 141.86 184.50 C 142.71 184.62 143.50 184.02 143.61 183.16 C 143.73 182.31 143.13 181.52 142.27 181.41 Z M 141.35 181.28 L 140.36 181.10 C 139.51 180.93 138.70 181.49 138.53 182.34 C 138.37 183.19 138.93 184.00 139.78 184.16 L 140.77 184.35 C 141.62 184.51 142.43 183.96 142.59 183.11 C 142.76 182.26 142.20 181.45 141.35 181.28 Z M 140.44 181.11 L 139.47 180.87 C 138.63 180.67 137.78 181.18 137.58 182.02 C 137.37 182.86 137.89 183.70 138.72 183.91 L 139.70 184.15 C 140.53 184.35 141.38 183.84 141.58 183.00 C 141.79 182.16 141.28 181.32 140.44 181.11 Z M 139.53 180.89 L 138.57 180.61 C 137.74 180.37 136.87 180.84 136.63 181.67 C 136.39 182.50 136.86 183.36 137.69 183.61 L 138.66 183.89 C 139.48 184.13 140.35 183.66 140.59 182.83 C 140.84 182.00 140.36 181.14 139.53 180.89 Z M 138.63 180.63 L 137.67 180.31 C 136.86 180.03 135.97 180.48 135.70 181.29 C 135.42 182.11 135.86 183.00 136.68 183.27 L 137.63 183.59 C 138.45 183.86 139.34 183.42 139.61 182.60 C 139.88 181.79 139.44 180.90 138.63 180.63 Z M 137.72 180.32 L 136.78 179.98 C 135.97 179.68 135.07 180.09 134.77 180.90 C 134.48 181.71 134.89 182.61 135.70 182.91 L 136.64 183.25 C 137.44 183.55 138.34 183.14 138.64 182.33 C 138.94 181.52 138.53 180.62 137.72 180.32 Z M 136.82 179.99 L 135.89 179.62 C 135.09 179.31 134.18 179.70 133.87 180.50 C 133.55 181.30 133.94 182.21 134.74 182.52 L 135.66 182.89 C 136.46 183.21 137.37 182.82 137.69 182.02 C 138.01 181.22 137.62 180.31 136.82 179.99 Z M 135.92 179.63 L 134.99 179.24 C 134.19 178.91 133.28 179.28 132.94 180.08 C 132.61 180.87 132.98 181.79 133.78 182.12 L 134.71 182.51 C 135.51 182.85 136.42 182.47 136.76 181.68 C 137.09 180.88 136.72 179.97 135.92 179.63 Z M 135.01 179.25 L 134.07 178.84 C 133.28 178.49 132.36 178.85 132.01 179.64 C 131.67 180.43 132.03 181.35 132.81 181.70 L 133.75 182.11 C 134.54 182.46 135.46 182.10 135.81 181.31 C 136.16 180.52 135.80 179.60 135.01 179.25 Z M 134.10 178.85 L 133.18 178.43 C 132.39 178.07 131.47 178.41 131.11 179.19 C 130.75 179.98 131.09 180.90 131.87 181.26 L 132.79 181.69 C 133.57 182.05 134.50 181.71 134.86 180.92 C 135.22 180.14 134.88 179.21 134.10 178.85 Z M 133.20 178.44 L 132.31 178.01 C 131.53 177.63 130.60 177.96 130.22 178.73 C 129.85 179.51 130.17 180.44 130.95 180.82 L 131.85 181.25 C 132.62 181.63 133.55 181.30 133.93 180.53 C 134.31 179.75 133.98 178.82 133.20 178.44 Z M 132.34 178.02 L 131.46 177.58 C 130.69 177.19 129.75 177.49 129.36 178.26 C 128.97 179.03 129.28 179.97 130.05 180.36 L 130.92 180.81 C 131.69 181.20 132.63 180.89 133.02 180.12 C 133.41 179.35 133.10 178.41 132.34 178.02 Z M 131.49 177.59 L 130.64 177.14 C 129.87 176.73 128.93 177.02 128.52 177.78 C 128.12 178.54 128.40 179.48 129.16 179.89 L 130.02 180.35 C 130.78 180.75 131.72 180.47 132.13 179.70 C 132.54 178.94 132.25 178.00 131.49 177.59 Z M 130.67 177.15 L 129.77 176.65 C 129.02 176.22 128.06 176.49 127.64 177.24 C 127.22 177.99 127.49 178.95 128.24 179.37 L 129.13 179.87 C 129.89 180.30 130.84 180.03 131.26 179.28 C 131.68 178.53 131.42 177.58 130.67 177.15 Z M 129.80 176.66 L 128.92 176.15 C 128.18 175.71 127.22 175.95 126.78 176.70 C 126.34 177.44 126.59 178.40 127.33 178.83 L 128.21 179.35 C 128.95 179.79 129.91 179.54 130.35 178.80 C 130.78 178.06 130.54 177.10 129.80 176.66 Z M 128.94 176.16 L 128.09 175.63 C 127.35 175.18 126.39 175.41 125.94 176.15 C 125.49 176.88 125.72 177.84 126.45 178.29 L 127.31 178.82 C 128.04 179.27 129.00 179.04 129.45 178.31 C 129.91 177.57 129.68 176.61 128.94 176.16 Z M 128.11 175.65 L 127.27 175.12 C 126.55 174.66 125.58 174.87 125.12 175.60 C 124.66 176.33 124.87 177.29 125.60 177.75 L 126.43 178.28 C 127.16 178.74 128.12 178.53 128.59 177.80 C 129.05 177.07 128.83 176.11 128.11 175.65 Z M 127.29 175.13 L 126.48 174.60 C 125.76 174.13 124.79 174.33 124.32 175.05 C 123.85 175.78 124.05 176.74 124.77 177.21 L 125.58 177.74 C 126.31 178.21 127.27 178.01 127.75 177.29 C 128.22 176.57 128.01 175.60 127.29 175.13 Z M 126.49 174.61 L 125.65 174.05 C 124.93 173.57 123.96 173.76 123.48 174.48 C 123.01 175.20 123.20 176.17 123.92 176.65 L 124.76 177.21 C 125.48 177.68 126.45 177.49 126.93 176.77 C 127.40 176.05 127.21 175.08 126.49 174.61 Z M 125.66 174.05 L 124.82 173.49 C 124.10 173.00 123.13 173.19 122.65 173.91 C 122.17 174.62 122.36 175.59 123.07 176.07 L 123.91 176.64 C 124.62 177.12 125.59 176.93 126.08 176.22 C 126.56 175.51 126.37 174.53 125.66 174.05 Z M 124.83 173.49 L 124.00 172.93 C 123.29 172.44 122.32 172.63 121.83 173.34 C 121.35 174.05 121.53 175.02 122.24 175.51 L 123.06 176.07 C 123.78 176.56 124.75 176.37 125.23 175.66 C 125.72 174.95 125.54 173.98 124.83 173.49 Z M 124.01 172.93 L 123.19 172.37 C 122.48 171.88 121.51 172.06 121.02 172.77 C 120.53 173.48 120.71 174.46 121.42 174.94 L 122.24 175.50 C 122.95 175.99 123.92 175.81 124.41 175.10 C 124.90 174.39 124.72 173.42 124.01 172.93 Z M 123.20 172.37 L 122.43 171.84 C 121.72 171.35 120.75 171.53 120.26 172.24 C 119.77 172.95 119.94 173.92 120.65 174.41 L 121.42 174.94 C 122.13 175.43 123.10 175.26 123.59 174.55 C 124.08 173.84 123.91 172.86 123.20 172.37 Z"
      fill="black"
      fill-rule="nonzero" /></svg>