<svg xmlns="http://www.w3.org/2000/svg" width="300" height="300" viewBox="0 0 300 300">
<path d="M 133.87 173.45 L 133.04 172.84 C 132.35 172.33 131.37 172.49 130.86 173.18 C 130.35 173.88 130.51 174.86 131.20 175.36 L 132.03 175.97 C 132.72 176.48 133.70 176.32 134.21 175.63 C 134.72 174.93 134.56 173.95 133.87 173.45 Z M 133.07 172.87 L 132.27 172.25 C 131.59 171.73 130.61 171.85 130.08 172.54 C 129.56 173.22 129.69 174.20 130.37 174.73 L 131.17 175.34 C 131.86 175.87 132.84 175.74 133.36 175.05 C 133.89 174.37 133.76 173.39 133.07 172.87 Z M 132.33 172.30 L 131.58 171.66 C 130.93 171.10 129.94 171.18 129.38 171.84 C 128.82 172.50 128.90 173.48 129.56 174.04 L 130.31 174.68 C 130.97 175.24 131.95 175.16 132.51 174.50 C 133.07 173.84 132.99 172.86 132.33 172.30 Z M 131.67 171.74 L 130.98 171.06 C 130.37 170.45 129.38 170.45 128.78 171.06 C 128.17 171.67 128.17 172.66 128.78 173.27 L 129.47 173.96 C 130.08 174.56 131.07 174.56 131.68 173.95 C 132.29 173.34 132.28 172.35 131.67 171.74 Z M 131.09 171.17 L 130.47 170.42 C 129.92 169.75 128.94 169.66 128.27 170.20 C 127.61 170.75 127.51 171.73 128.06 172.40 L 128.67 173.15 C 129.22 173.82 130.21 173.92 130.87 173.37 C 131.54 172.82 131.64 171.84 131.09 171.17 Z M 130.57 170.55 L 130.02 169.72 C 129.54 169.00 128.58 168.80 127.86 169.28 C 127.14 169.75 126.94 170.72 127.41 171.44 L 127.96 172.27 C 128.44 172.99 129.40 173.19 130.12 172.71 C 130.84 172.24 131.04 171.27 130.57 170.55 Z M 130.09 169.85 L 129.61 168.94 C 129.21 168.18 128.26 167.89 127.50 168.30 C 126.74 168.70 126.45 169.65 126.86 170.41 L 127.34 171.31 C 127.74 172.08 128.69 172.36 129.45 171.96 C 130.21 171.55 130.50 170.61 130.09 169.85 Z M 129.66 169.05 L 129.33 168.28 C 128.98 167.49 128.06 167.13 127.27 167.48 C 126.48 167.82 126.12 168.74 126.47 169.53 L 126.80 170.30 C 127.15 171.09 128.07 171.45 128.86 171.11 C 129.65 170.76 130.01 169.84 129.66 169.05 Z M 129.37 168.39 L 129.07 167.53 C 128.79 166.72 127.90 166.29 127.08 166.57 C 126.27 166.86 125.84 167.75 126.12 168.56 L 126.42 169.42 C 126.71 170.23 127.60 170.66 128.41 170.38 C 129.23 170.10 129.66 169.21 129.37 168.39 Z M 129.11 167.65 L 128.85 166.68 C 128.64 165.84 127.78 165.34 126.95 165.56 C 126.12 165.78 125.62 166.63 125.83 167.46 L 126.09 168.44 C 126.30 169.27 127.16 169.77 127.99 169.56 C 128.83 169.34 129.33 168.49 129.11 167.65 Z M 128.88 166.80 L 128.68 165.68 C 128.53 164.83 127.72 164.27 126.87 164.42 C 126.03 164.57 125.46 165.38 125.61 166.22 L 125.81 167.34 C 125.96 168.19 126.77 168.76 127.61 168.61 C 128.46 168.46 129.03 167.65 128.88 166.80 Z M 128.70 165.79 L 128.58 164.73 C 128.49 163.87 127.72 163.25 126.87 163.34 C 126.01 163.44 125.39 164.21 125.48 165.06 L 125.59 166.12 C 125.69 166.98 126.46 167.60 127.31 167.50 C 128.17 167.41 128.79 166.64 128.70 165.79 Z M 128.59 164.81 L 128.54 163.87 C 128.49 163.01 127.75 162.35 126.89 162.40 C 126.03 162.45 125.37 163.19 125.42 164.05 L 125.47 164.99 C 125.52 165.85 126.26 166.50 127.12 166.46 C 127.98 166.41 128.64 165.67 128.59 164.81 Z M 128.54 163.93 L 128.52 162.94 C 128.51 162.08 127.80 161.39 126.94 161.40 C 126.08 161.42 125.39 162.13 125.40 162.99 L 125.42 163.98 C 125.43 164.84 126.14 165.53 127.00 165.52 C 127.87 165.50 128.55 164.79 128.54 163.93 Z M 128.52 163.00 L 128.55 161.98 C 128.57 161.12 127.89 160.40 127.03 160.38 C 126.17 160.36 125.45 161.04 125.43 161.90 L 125.40 162.93 C 125.38 163.79 126.06 164.50 126.92 164.53 C 127.79 164.55 128.50 163.87 128.52 163.00 Z M 128.55 162.05 L 128.62 161.01 C 128.68 160.15 128.03 159.40 127.17 159.35 C 126.31 159.29 125.56 159.94 125.50 160.80 L 125.43 161.83 C 125.37 162.69 126.02 163.44 126.88 163.50 C 127.74 163.56 128.49 162.91 128.55 162.05 Z M 128.61 161.08 L 128.73 160.05 C 128.83 159.19 128.21 158.42 127.36 158.32 C 126.50 158.22 125.73 158.84 125.63 159.69 L 125.51 160.72 C 125.41 161.58 126.02 162.36 126.88 162.45 C 127.74 162.55 128.51 161.94 128.61 161.08 Z M 128.72 160.13 L 128.89 159.13 C 129.03 158.28 128.46 157.47 127.61 157.33 C 126.76 157.18 125.95 157.76 125.81 158.61 L 125.64 159.61 C 125.49 160.46 126.07 161.27 126.92 161.41 C 127.77 161.56 128.57 160.98 128.72 160.13 Z M 128.87 159.23 L 129.12 158.15 C 129.32 157.31 128.81 156.47 127.97 156.27 C 127.13 156.07 126.29 156.59 126.09 157.43 L 125.83 158.51 C 125.63 159.35 126.15 160.19 126.99 160.39 C 127.83 160.59 128.67 160.07 128.87 159.23 Z M 129.10 158.25 L 129.42 157.21 C 129.68 156.38 129.22 155.51 128.39 155.25 C 127.57 155.00 126.70 155.46 126.44 156.28 L 126.11 157.32 C 125.86 158.15 126.32 159.02 127.14 159.28 C 127.96 159.53 128.84 159.07 129.10 158.25 Z M 129.39 157.30 L 129.76 156.33 C 130.06 155.52 129.66 154.62 128.85 154.31 C 128.05 154.01 127.15 154.41 126.84 155.22 L 126.47 156.19 C 126.16 157.00 126.57 157.90 127.38 158.20 C 128.18 158.51 129.08 158.10 129.39 157.30 Z M 129.73 156.40 L 130.12 155.50 C 130.47 154.71 130.11 153.79 129.32 153.44 C 128.54 153.10 127.61 153.45 127.27 154.24 L 126.87 155.14 C 126.52 155.93 126.88 156.85 127.67 157.20 C 128.46 157.55 129.38 157.19 129.73 156.40 Z M 130.10 155.56 L 130.50 154.74 C 130.88 153.96 130.57 153.03 129.79 152.65 C 129.02 152.27 128.08 152.58 127.70 153.36 L 127.30 154.18 C 126.91 154.96 127.23 155.89 128.01 156.27 C 128.78 156.65 129.71 156.34 130.10 155.56 Z M 130.48 154.78 L 130.88 154.03 C 131.29 153.27 131.00 152.32 130.24 151.92 C 129.48 151.51 128.53 151.80 128.13 152.56 L 127.72 153.31 C 127.32 154.07 127.61 155.02 128.37 155.42 C 129.13 155.83 130.07 155.54 130.48 154.78 Z M 130.86 154.07 L 131.42 153.08 C 131.85 152.33 131.59 151.37 130.84 150.95 C 130.09 150.52 129.14 150.78 128.71 151.53 L 128.15 152.52 C 127.72 153.27 127.98 154.22 128.73 154.65 C 129.48 155.08 130.43 154.82 130.86 154.07 Z M 131.40 153.12 L 131.93 152.26 C 132.38 151.52 132.15 150.56 131.41 150.11 C 130.67 149.66 129.71 149.89 129.26 150.63 L 128.74 151.49 C 128.29 152.22 128.52 153.19 129.25 153.64 C 129.99 154.09 130.95 153.85 131.40 153.12 Z M 131.91 152.29 L 132.41 151.51 C 132.88 150.79 132.67 149.82 131.95 149.35 C 131.23 148.88 130.26 149.09 129.79 149.81 L 129.29 150.59 C 128.82 151.32 129.02 152.28 129.75 152.75 C 130.47 153.22 131.44 153.01 131.91 152.29 Z M 132.40 151.53 L 132.91 150.77 C 133.38 150.05 133.19 149.08 132.47 148.61 C 131.76 148.13 130.79 148.32 130.31 149.04 L 129.80 149.80 C 129.32 150.51 129.52 151.48 130.23 151.96 C 130.95 152.44 131.92 152.25 132.40 151.53 Z M 132.90 150.77 L 133.45 149.96 C 133.93 149.24 133.74 148.27 133.03 147.79 C 132.31 147.31 131.34 147.50 130.86 148.22 L 130.31 149.03 C 129.83 149.75 130.02 150.72 130.74 151.20 C 131.45 151.68 132.42 151.49 132.90 150.77 Z M 133.45 149.96 L 134.01 149.13 C 134.49 148.41 134.30 147.44 133.58 146.96 C 132.86 146.48 131.89 146.67 131.41 147.39 L 130.86 148.22 C 130.38 148.93 130.57 149.90 131.29 150.38 C 132.00 150.86 132.97 150.67 133.45 149.96 Z M 134.01 149.12 L 134.57 148.28 C 135.05 147.56 134.85 146.59 134.13 146.11 C 133.42 145.64 132.45 145.83 131.97 146.55 L 131.41 147.40 C 130.93 148.12 131.13 149.08 131.85 149.56 C 132.57 150.04 133.54 149.84 134.01 149.12 Z M 134.58 148.27 L 135.12 147.43 C 135.59 146.71 135.39 145.74 134.67 145.27 C 133.94 144.80 132.98 145.01 132.51 145.73 L 131.96 146.56 C 131.49 147.28 131.70 148.25 132.42 148.72 C 133.14 149.19 134.11 148.99 134.58 148.27 Z M 135.13 147.43 L 135.66 146.59 C 136.13 145.87 135.92 144.90 135.20 144.43 C 134.47 143.97 133.51 144.18 133.04 144.90 L 132.50 145.73 C 132.04 146.46 132.24 147.42 132.97 147.89 C 133.69 148.36 134.66 148.15 135.13 147.43 Z M 135.66 146.59 L 136.21 145.75 C 136.68 145.02 136.47 144.06 135.74 143.59 C 135.02 143.12 134.05 143.33 133.59 144.06 L 133.04 144.90 C 132.57 145.62 132.78 146.59 133.50 147.06 C 134.23 147.53 135.20 147.32 135.66 146.59 Z M 136.20 145.76 L 136.76 144.91 C 137.23 144.19 137.03 143.22 136.31 142.75 C 135.59 142.27 134.62 142.47 134.15 143.20 L 133.59 144.05 C 133.12 144.77 133.32 145.74 134.04 146.21 C 134.76 146.68 135.73 146.48 136.20 145.76 Z M 136.75 144.92 L 137.30 144.10 C 137.79 143.38 137.59 142.41 136.88 141.93 C 136.16 141.45 135.19 141.64 134.71 142.36 L 134.16 143.18 C 133.68 143.90 133.87 144.87 134.58 145.35 C 135.30 145.83 136.27 145.64 136.75 144.92 Z M 137.30 144.11 L 137.86 143.29 C 138.35 142.57 138.17 141.60 137.46 141.12 C 136.74 140.63 135.77 140.81 135.29 141.52 L 134.72 142.34 C 134.23 143.05 134.41 144.03 135.13 144.51 C 135.84 145.00 136.81 144.82 137.30 144.11 Z M 137.85 143.29 L 138.43 142.47 C 138.92 141.76 138.75 140.79 138.04 140.30 C 137.33 139.81 136.36 139.98 135.86 140.69 L 135.29 141.51 C 134.80 142.22 134.97 143.19 135.68 143.68 C 136.39 144.18 137.36 144.00 137.85 143.29 Z M 138.42 142.48 L 139.00 141.65 C 139.50 140.95 139.33 139.97 138.62 139.48 C 137.92 138.98 136.94 139.15 136.45 139.86 L 135.87 140.68 C 135.37 141.39 135.54 142.36 136.25 142.86 C 136.95 143.35 137.93 143.18 138.42 142.48 Z M 139.00 141.66 L 139.58 140.84 C 140.08 140.13 139.91 139.16 139.21 138.66 C 138.50 138.16 137.53 138.33 137.03 139.03 L 136.45 139.85 C 135.95 140.56 136.12 141.53 136.82 142.03 C 137.53 142.53 138.50 142.36 139.00 141.66 Z M 139.57 140.85 L 140.16 140.03 C 140.66 139.33 140.50 138.36 139.80 137.85 C 139.10 137.35 138.12 137.51 137.62 138.21 L 137.04 139.03 C 136.53 139.73 136.69 140.70 137.39 141.20 C 138.10 141.71 139.07 141.55 139.57 140.85 Z M 140.15 140.04 L 140.74 139.24 C 141.25 138.54 141.10 137.57 140.40 137.06 C 139.71 136.55 138.73 136.70 138.22 137.39 L 137.63 138.20 C 137.12 138.89 137.27 139.87 137.97 140.38 C 138.66 140.89 139.64 140.74 140.15 140.04 Z M 140.72 139.26 L 141.33 138.46 C 141.85 137.78 141.71 136.80 141.02 136.28 C 140.34 135.76 139.36 135.89 138.84 136.58 L 138.24 137.37 C 137.71 138.06 137.85 139.04 138.54 139.56 C 139.22 140.08 140.20 139.95 140.72 139.26 Z M 141.31 138.49 L 141.93 137.69 C 142.47 137.02 142.35 136.03 141.67 135.50 C 140.99 134.97 140.01 135.08 139.48 135.76 L 138.85 136.56 C 138.32 137.23 138.44 138.22 139.12 138.75 C 139.79 139.28 140.78 139.16 141.31 138.49 Z M 141.92 137.71 L 142.55 136.93 C 143.09 136.26 142.99 135.28 142.32 134.74 C 141.65 134.19 140.67 134.30 140.12 134.97 L 139.49 135.74 C 138.95 136.41 139.05 137.40 139.72 137.94 C 140.39 138.48 141.38 138.38 141.92 137.71 Z M 142.54 136.95 L 143.17 136.18 C 143.72 135.52 143.63 134.53 142.97 133.98 C 142.30 133.43 141.32 133.53 140.77 134.19 L 140.14 134.95 C 139.59 135.62 139.68 136.60 140.34 137.15 C 141.00 137.70 141.99 137.61 142.54 136.95 Z M 143.17 136.19 L 143.81 135.42 C 144.37 134.76 144.28 133.78 143.62 133.22 C 142.96 132.67 141.98 132.75 141.42 133.41 L 140.78 134.18 C 140.22 134.84 140.31 135.83 140.97 136.38 C 141.63 136.94 142.61 136.85 143.17 136.19 Z M 143.81 135.43 L 144.47 134.65 C 145.03 133.99 144.95 133.01 144.29 132.45 C 143.63 131.89 142.65 131.97 142.09 132.63 L 141.43 133.40 C 140.87 134.06 140.95 135.05 141.61 135.61 C 142.26 136.16 143.25 136.08 143.81 135.43 Z M 144.46 134.66 L 145.11 133.91 C 145.68 133.26 145.61 132.27 144.96 131.70 C 144.31 131.14 143.32 131.21 142.76 131.86 L 142.10 132.62 C 141.53 133.27 141.60 134.25 142.25 134.82 C 142.91 135.38 143.89 135.31 144.46 134.66 Z M 145.10 133.92 L 145.75 133.20 C 146.32 132.56 146.27 131.57 145.62 130.99 C 144.98 130.42 144.00 130.47 143.42 131.12 L 142.77 131.84 C 142.20 132.49 142.25 133.47 142.89 134.05 C 143.54 134.62 144.52 134.57 145.10 133.92 Z M 145.72 133.22 L 146.37 132.53 C 146.96 131.90 146.92 130.91 146.29 130.33 C 145.66 129.74 144.68 129.77 144.09 130.40 L 143.44 131.09 C 142.85 131.72 142.89 132.71 143.52 133.30 C 144.15 133.89 145.14 133.85 145.72 133.22 Z M 146.33 132.57 L 147.01 131.90 C 147.61 131.29 147.61 130.30 147.00 129.69 C 146.39 129.08 145.41 129.08 144.80 129.69 L 144.12 130.36 C 143.51 130.97 143.52 131.96 144.13 132.57 C 144.74 133.18 145.72 133.18 146.33 132.57 Z M 146.96 131.94 L 147.70 131.26 C 148.34 130.68 148.38 129.69 147.80 129.05 C 147.21 128.42 146.23 128.38 145.59 128.96 L 144.85 129.64 C 144.21 130.23 144.17 131.21 144.75 131.85 C 145.33 132.48 146.32 132.53 146.96 131.94 Z M 147.65 131.31 L 148.46 130.63 C 149.12 130.07 149.21 129.09 148.66 128.43 C 148.10 127.77 147.12 127.68 146.46 128.23 L 145.64 128.91 C 144.98 129.47 144.90 130.45 145.45 131.11 C 146.00 131.77 146.99 131.86 147.65 131.31 Z M 148.41 130.66 L 149.16 130.09 C 149.84 129.56 149.96 128.58 149.43 127.90 C 148.91 127.22 147.93 127.09 147.24 127.62 L 146.50 128.20 C 145.82 128.72 145.70 129.70 146.22 130.39 C 146.75 131.07 147.73 131.19 148.41 130.66 Z M 149.11 130.13 L 149.92 129.55 C 150.62 129.05 150.78 128.07 150.28 127.37 C 149.78 126.67 148.81 126.51 148.10 127.01 L 147.29 127.58 C 146.59 128.09 146.43 129.06 146.93 129.76 C 147.43 130.46 148.40 130.63 149.11 130.13 Z M 149.86 129.59 L 150.72 129.03 C 151.45 128.56 151.65 127.60 151.19 126.87 C 150.72 126.15 149.75 125.94 149.03 126.41 L 148.16 126.97 C 147.44 127.43 147.23 128.40 147.70 129.12 C 148.17 129.85 149.13 130.06 149.86 129.59 Z M 150.65 129.08 L 151.55 128.56 C 152.30 128.14 152.56 127.18 152.14 126.43 C 151.71 125.68 150.76 125.42 150.01 125.85 L 149.10 126.36 C 148.35 126.79 148.09 127.74 148.52 128.49 C 148.94 129.24 149.90 129.50 150.65 129.08 Z M 151.46 128.61 L 152.38 128.17 C 153.16 127.80 153.49 126.86 153.11 126.09 C 152.74 125.31 151.81 124.98 151.03 125.35 L 150.11 125.80 C 149.33 126.17 149.00 127.10 149.37 127.88 C 149.75 128.66 150.68 128.98 151.46 128.61 Z M 152.27 128.22 L 153.21 127.85 C 154.01 127.54 154.41 126.64 154.10 125.83 C 153.78 125.03 152.88 124.63 152.07 124.94 L 151.14 125.31 C 150.34 125.62 149.94 126.52 150.25 127.33 C 150.56 128.13 151.47 128.53 152.27 128.22 Z M 153.09 127.89 L 154.05 127.60 C 154.87 127.35 155.34 126.48 155.09 125.65 C 154.84 124.83 153.96 124.36 153.14 124.61 L 152.19 124.90 C 151.36 125.15 150.90 126.03 151.15 126.85 C 151.40 127.68 152.27 128.14 153.09 127.89 Z M 153.94 127.63 L 154.91 127.41 C 155.75 127.22 156.27 126.39 156.08 125.54 C 155.89 124.70 155.06 124.18 154.22 124.37 L 153.25 124.59 C 152.41 124.78 151.88 125.61 152.07 126.45 C 152.26 127.29 153.10 127.82 153.94 127.63 Z M 154.80 127.43 L 155.79 127.28 C 156.64 127.15 157.22 126.35 157.09 125.50 C 156.96 124.65 156.16 124.06 155.31 124.19 L 154.32 124.35 C 153.47 124.48 152.89 125.27 153.02 126.13 C 153.15 126.98 153.95 127.56 154.80 127.43 Z M 155.69 127.29 L 156.66 127.21 C 157.52 127.13 158.15 126.37 158.08 125.51 C 158.00 124.66 157.25 124.02 156.39 124.10 L 155.41 124.18 C 154.55 124.26 153.92 125.02 153.99 125.87 C 154.07 126.73 154.83 127.37 155.69 127.29 Z M 156.55 127.21 L 157.53 127.19 C 158.39 127.18 159.07 126.47 159.06 125.60 C 159.04 124.74 158.33 124.06 157.47 124.07 L 156.50 124.09 C 155.63 124.11 154.95 124.82 154.96 125.68 C 154.98 126.54 155.69 127.23 156.55 127.21 Z M 157.40 127.19 L 158.38 127.25 C 159.25 127.31 159.99 126.65 160.04 125.79 C 160.09 124.93 159.44 124.19 158.58 124.14 L 157.60 124.07 C 156.73 124.02 155.99 124.67 155.94 125.54 C 155.89 126.40 156.54 127.14 157.40 127.19 Z M 158.24 127.24 L 159.23 127.39 C 160.09 127.53 160.88 126.94 161.02 126.09 C 161.15 125.24 160.57 124.44 159.72 124.31 L 158.72 124.15 C 157.87 124.02 157.07 124.60 156.94 125.45 C 156.81 126.31 157.39 127.10 158.24 127.24 Z M 159.08 127.36 L 160.08 127.62 C 160.91 127.84 161.76 127.34 161.98 126.51 C 162.20 125.67 161.70 124.82 160.87 124.60 L 159.87 124.34 C 159.04 124.12 158.18 124.62 157.96 125.45 C 157.75 126.29 158.24 127.14 159.08 127.36 Z M 159.92 127.57 L 160.88 127.94 C 161.69 128.24 162.59 127.83 162.89 127.03 C 163.20 126.22 162.79 125.32 161.99 125.02 L 161.03 124.65 C 160.22 124.35 159.32 124.75 159.01 125.56 C 158.71 126.37 159.11 127.27 159.92 127.57 Z M 160.75 127.88 L 161.68 128.33 C 162.45 128.71 163.39 128.38 163.76 127.61 C 164.14 126.83 163.82 125.90 163.04 125.52 L 162.12 125.07 C 161.34 124.69 160.41 125.02 160.03 125.79 C 159.65 126.57 159.98 127.50 160.75 127.88 Z M 161.58 128.28 L 162.47 128.80 C 163.22 129.23 164.17 128.97 164.61 128.23 C 165.04 127.48 164.78 126.52 164.04 126.09 L 163.14 125.57 C 162.39 125.14 161.44 125.40 161.01 126.14 C 160.58 126.89 160.83 127.84 161.58 128.28 Z M 162.39 128.75 L 163.24 129.31 C 163.96 129.78 164.93 129.59 165.41 128.87 C 165.88 128.15 165.69 127.18 164.97 126.70 L 164.12 126.14 C 163.40 125.67 162.43 125.86 161.95 126.58 C 161.48 127.30 161.67 128.27 162.39 128.75 Z M 163.18 129.26 L 163.96 129.84 C 164.66 130.35 165.63 130.21 166.15 129.51 C 166.66 128.82 166.51 127.84 165.82 127.33 L 165.03 126.75 C 164.34 126.24 163.36 126.38 162.85 127.08 C 162.34 127.77 162.48 128.75 163.18 129.26 Z M 163.90 129.79 L 164.66 130.41 C 165.32 130.96 166.31 130.86 166.85 130.19 C 167.40 129.52 167.30 128.54 166.63 128.00 L 165.88 127.38 C 165.21 126.83 164.23 126.93 163.68 127.60 C 163.14 128.26 163.23 129.25 163.90 129.79 Z M 164.59 130.35 L 165.40 131.10 C 166.03 131.69 167.02 131.65 167.61 131.01 C 168.19 130.38 168.15 129.39 167.52 128.81 L 166.70 128.06 C 166.07 127.47 165.08 127.51 164.50 128.14 C 163.91 128.78 163.95 129.77 164.59 130.35 Z M 165.32 131.02 L 166.00 131.75 C 166.59 132.37 167.58 132.40 168.21 131.81 C 168.84 131.22 168.87 130.23 168.27 129.60 L 167.59 128.88 C 167.00 128.25 166.01 128.23 165.39 128.82 C 164.76 129.41 164.73 130.40 165.32 131.02 Z M 165.94 131.67 L 166.53 132.38 C 167.08 133.05 168.06 133.14 168.73 132.59 C 169.39 132.04 169.48 131.05 168.93 130.39 L 168.34 129.68 C 167.79 129.01 166.80 128.92 166.14 129.47 C 165.48 130.02 165.39 131.01 165.94 131.67 Z M 166.48 132.33 L 167.04 133.07 C 167.56 133.75 168.54 133.89 169.23 133.37 C 169.92 132.85 170.05 131.87 169.53 131.18 L 168.98 130.44 C 168.46 129.76 167.48 129.62 166.79 130.14 C 166.10 130.66 165.96 131.64 166.48 132.33 Z M 167.01 133.03 L 167.58 133.83 C 168.08 134.53 169.05 134.70 169.76 134.21 C 170.46 133.71 170.63 132.73 170.13 132.03 L 169.56 131.23 C 169.07 130.52 168.09 130.35 167.39 130.85 C 166.68 131.35 166.52 132.32 167.01 133.03 Z M 167.55 133.79 L 168.10 134.62 C 168.57 135.34 169.54 135.54 170.26 135.07 C 170.98 134.60 171.18 133.63 170.71 132.91 L 170.16 132.07 C 169.69 131.35 168.72 131.15 168.00 131.63 C 167.28 132.10 167.08 133.07 167.55 133.79 Z M 168.07 134.58 L 168.60 135.44 C 169.05 136.18 170.01 136.41 170.75 135.96 C 171.48 135.51 171.72 134.55 171.27 133.82 L 170.74 132.95 C 170.29 132.22 169.33 131.98 168.59 132.43 C 167.85 132.88 167.62 133.84 168.07 134.58 Z M 168.57 135.40 L 169.06 136.27 C 169.49 137.02 170.44 137.28 171.19 136.86 C 171.94 136.43 172.21 135.48 171.78 134.73 L 171.29 133.86 C 170.87 133.11 169.92 132.85 169.16 133.27 C 168.41 133.70 168.15 134.65 168.57 135.40 Z M 169.04 136.22 L 169.50 137.10 C 169.90 137.86 170.85 138.16 171.61 137.76 C 172.37 137.36 172.67 136.41 172.27 135.65 L 171.81 134.77 C 171.40 134.01 170.46 133.71 169.70 134.12 C 168.93 134.52 168.64 135.46 169.04 136.22 Z M 169.48 137.06 L 169.93 137.96 C 170.31 138.74 171.24 139.06 172.02 138.68 C 172.79 138.30 173.11 137.36 172.73 136.59 L 172.29 135.69 C 171.91 134.91 170.97 134.59 170.20 134.97 C 169.42 135.35 169.10 136.29 169.48 137.06 Z M 169.91 137.93 L 170.34 138.85 C 170.70 139.63 171.62 139.98 172.41 139.61 C 173.19 139.25 173.53 138.33 173.17 137.54 L 172.75 136.62 C 172.38 135.84 171.46 135.50 170.67 135.86 C 169.89 136.22 169.55 137.15 169.91 137.93 Z M 170.32 138.82 L 170.72 139.73 C 171.06 140.52 171.98 140.89 172.77 140.54 C 173.56 140.20 173.93 139.28 173.58 138.49 L 173.18 137.57 C 172.84 136.78 171.92 136.42 171.13 136.77 C 170.34 137.11 169.98 138.03 170.32 138.82 Z M 170.71 139.70 L 171.08 140.63 C 171.41 141.42 172.32 141.81 173.12 141.48 C 173.92 141.16 174.30 140.24 173.97 139.45 L 173.60 138.52 C 173.27 137.72 172.36 137.34 171.56 137.67 C 170.76 137.99 170.38 138.90 170.71 139.70 Z M 171.07 140.59 L 171.43 141.53 C 171.73 142.33 172.63 142.74 173.44 142.43 C 174.25 142.12 174.65 141.22 174.34 140.42 L 173.99 139.48 C 173.68 138.67 172.78 138.27 171.97 138.58 C 171.17 138.88 170.76 139.79 171.07 140.59 Z M 171.41 141.49 L 171.75 142.44 C 172.03 143.25 172.92 143.68 173.74 143.39 C 174.55 143.11 174.98 142.22 174.69 141.40 L 174.36 140.45 C 174.07 139.64 173.18 139.21 172.37 139.50 C 171.55 139.79 171.13 140.68 171.41 141.49 Z M 171.73 142.40 L 172.04 143.36 C 172.30 144.18 173.18 144.63 174.01 144.37 C 174.83 144.10 175.28 143.22 175.01 142.40 L 174.70 141.44 C 174.44 140.62 173.56 140.17 172.74 140.43 C 171.92 140.70 171.47 141.58 171.73 142.40 Z M 172.03 143.32 L 172.31 144.28 C 172.55 145.11 173.42 145.59 174.25 145.34 C 175.07 145.10 175.55 144.24 175.31 143.41 L 175.03 142.44 C 174.78 141.61 173.92 141.14 173.09 141.38 C 172.26 141.62 171.79 142.49 172.03 143.32 Z M 172.30 144.24 L 172.55 145.21 C 172.77 146.04 173.62 146.54 174.45 146.32 C 175.29 146.10 175.79 145.25 175.57 144.42 L 175.32 143.45 C 175.10 142.62 174.25 142.12 173.41 142.33 C 172.58 142.55 172.08 143.41 172.30 144.24 Z M 172.54 145.16 L 172.76 146.12 C 172.95 146.97 173.79 147.49 174.63 147.30 C 175.47 147.10 176.00 146.27 175.80 145.43 L 175.58 144.46 C 175.39 143.62 174.55 143.10 173.71 143.29 C 172.87 143.48 172.35 144.32 172.54 145.16 Z M 172.75 146.08 L 172.95 147.07 C 173.11 147.92 173.93 148.47 174.78 148.30 C 175.63 148.13 176.18 147.31 176.01 146.47 L 175.81 145.47 C 175.65 144.63 174.83 144.08 173.98 144.24 C 173.13 144.41 172.58 145.23 172.75 146.08 Z M 172.94 147.03 L 173.10 148.02 C 173.24 148.87 174.05 149.44 174.90 149.30 C 175.75 149.16 176.32 148.35 176.18 147.50 L 176.02 146.51 C 175.88 145.66 175.07 145.09 174.22 145.23 C 173.37 145.37 172.80 146.18 172.94 147.03 Z M 173.10 147.97 L 173.23 148.96 C 173.35 149.81 174.14 150.41 174.99 150.29 C 175.85 150.17 176.44 149.38 176.33 148.53 L 176.19 147.54 C 176.07 146.69 175.28 146.09 174.43 146.21 C 173.57 146.33 172.98 147.12 173.10 147.97 Z M 173.23 148.92 L 173.34 149.91 C 173.44 150.76 174.22 151.38 175.07 151.28 C 175.93 151.18 176.54 150.41 176.44 149.55 L 176.33 148.56 C 176.23 147.71 175.46 147.09 174.60 147.19 C 173.74 147.29 173.13 148.06 173.23 148.92 Z M 173.34 149.87 L 173.43 150.88 C 173.51 151.74 174.28 152.37 175.13 152.29 C 175.99 152.21 176.62 151.45 176.54 150.59 L 176.45 149.58 C 176.37 148.72 175.61 148.09 174.75 148.17 C 173.89 148.25 173.26 149.02 173.34 149.87 Z M 173.43 150.85 L 173.51 151.85 C 173.57 152.71 174.32 153.36 175.18 153.29 C 176.04 153.23 176.68 152.48 176.62 151.62 L 176.55 150.62 C 176.48 149.76 175.73 149.12 174.87 149.18 C 174.01 149.24 173.37 149.99 173.43 150.85 Z M 173.50 151.82 L 173.56 152.81 C 173.60 153.67 174.34 154.33 175.20 154.29 C 176.06 154.24 176.72 153.50 176.68 152.64 L 176.62 151.65 C 176.57 150.79 175.84 150.13 174.98 150.18 C 174.12 150.22 173.46 150.96 173.50 151.82 Z M 173.56 152.78 L 173.59 153.78 C 173.62 154.65 174.35 155.32 175.21 155.29 C 176.07 155.26 176.74 154.54 176.71 153.67 L 176.68 152.67 C 176.65 151.81 175.92 151.14 175.06 151.17 C 174.20 151.20 173.53 151.92 173.56 152.78 Z M 173.59 153.76 L 173.61 154.77 C 173.63 155.63 174.34 156.32 175.20 156.30 C 176.06 156.28 176.75 155.57 176.73 154.71 L 176.71 153.70 C 176.70 152.84 175.99 152.15 175.12 152.17 C 174.26 152.18 173.58 152.90 173.59 153.76 Z M 173.61 154.75 L 173.62 155.75 C 173.62 156.61 174.33 157.30 175.19 157.30 C 176.05 157.29 176.74 156.59 176.74 155.72 L 176.73 154.73 C 176.73 153.87 176.02 153.17 175.16 153.18 C 174.30 153.18 173.60 153.89 173.61 154.75 Z M 173.62 155.74 L 173.62 156.72 C 173.62 157.58 174.32 158.28 175.18 158.28 C 176.04 158.28 176.74 157.58 176.74 156.72 L 176.74 155.73 C 176.74 154.87 176.04 154.17 175.18 154.17 C 174.31 154.17 173.62 154.87 173.62 155.74 Z M 173.62 156.71 L 173.61 157.72 C 173.61 158.59 174.31 159.29 175.17 159.29 C 176.03 159.30 176.73 158.60 176.74 157.74 L 176.74 156.72 C 176.74 155.86 176.05 155.16 175.18 155.16 C 174.32 155.15 173.62 155.85 173.62 156.71 Z M 173.61 157.69 L 173.59 158.69 C 173.56 159.55 174.24 160.27 175.11 160.29 C 175.97 160.31 176.69 159.63 176.71 158.77 L 176.74 157.77 C 176.76 156.91 176.08 156.19 175.22 156.17 C 174.35 156.15 173.64 156.83 173.61 157.69 Z M 173.59 158.62 L 173.52 159.60 C 173.46 160.46 174.10 161.21 174.96 161.27 C 175.82 161.34 176.57 160.69 176.63 159.83 L 176.71 158.84 C 176.77 157.98 176.12 157.24 175.26 157.17 C 174.40 157.11 173.65 157.76 173.59 158.62 Z M 173.53 159.50 L 173.41 160.40 C 173.29 161.25 173.88 162.04 174.74 162.16 C 175.59 162.28 176.38 161.68 176.50 160.83 L 176.62 159.93 C 176.74 159.08 176.14 158.29 175.29 158.17 C 174.44 158.05 173.65 158.65 173.53 159.50 Z M 173.43 160.28 L 173.23 161.17 C 173.05 162.02 173.59 162.85 174.43 163.03 C 175.27 163.21 176.10 162.67 176.29 161.83 L 176.48 160.94 C 176.66 160.10 176.12 159.27 175.28 159.09 C 174.44 158.90 173.61 159.44 173.43 160.28 Z M 173.26 161.06 L 172.98 162.03 C 172.74 162.86 173.21 163.72 174.04 163.97 C 174.86 164.21 175.73 163.74 175.97 162.91 L 176.26 161.94 C 176.50 161.11 176.03 160.25 175.20 160.00 C 174.37 159.76 173.51 160.24 173.26 161.06 Z M 173.01 161.94 L 172.61 163.03 C 172.32 163.85 172.74 164.74 173.55 165.03 C 174.36 165.33 175.26 164.91 175.55 164.09 L 175.95 163.00 C 176.24 162.19 175.82 161.29 175.01 161.00 C 174.20 160.71 173.30 161.13 173.01 161.94 Z M 172.64 162.98 L 172.28 163.85 C 171.95 164.65 172.34 165.56 173.14 165.89 C 173.94 166.21 174.85 165.83 175.17 165.03 L 175.53 164.15 C 175.85 163.35 175.47 162.44 174.67 162.12 C 173.87 161.79 172.96 162.18 172.64 162.98 Z M 172.29 163.82 L 171.89 164.74 C 171.55 165.53 171.91 166.45 172.70 166.79 C 173.49 167.14 174.41 166.78 174.75 165.99 L 175.16 165.07 C 175.50 164.27 175.14 163.35 174.35 163.01 C 173.56 162.67 172.64 163.03 172.29 163.82 Z M 171.91 164.71 L 171.47 165.65 C 171.11 166.44 171.45 167.36 172.23 167.72 C 173.01 168.09 173.94 167.75 174.30 166.96 L 174.74 166.02 C 175.10 165.24 174.76 164.31 173.98 163.95 C 173.19 163.58 172.27 163.93 171.91 164.71 Z M 171.48 165.62 L 171.03 166.56 C 170.65 167.33 170.97 168.27 171.75 168.64 C 172.52 169.02 173.46 168.70 173.84 167.92 L 174.29 166.99 C 174.67 166.22 174.35 165.28 173.57 164.90 C 172.80 164.53 171.86 164.85 171.48 165.62 Z M 171.04 166.52 L 170.59 167.41 C 170.19 168.18 170.49 169.12 171.26 169.51 C 172.03 169.91 172.97 169.61 173.36 168.84 L 173.82 167.96 C 174.22 167.19 173.91 166.25 173.15 165.85 C 172.38 165.46 171.44 165.76 171.04 166.52 Z M 170.61 167.37 L 170.08 168.32 C 169.66 169.08 169.94 170.03 170.69 170.45 C 171.44 170.86 172.39 170.59 172.81 169.84 L 173.34 168.88 C 173.76 168.13 173.49 167.18 172.73 166.76 C 171.98 166.34 171.03 166.62 170.61 167.37 Z M 170.11 168.27 L 169.56 169.19 C 169.11 169.93 169.35 170.89 170.09 171.33 C 170.82 171.78 171.78 171.54 172.23 170.80 L 172.78 169.89 C 173.23 169.15 172.99 168.19 172.25 167.74 C 171.52 167.30 170.56 167.54 170.11 168.27 Z M 169.59 169.14 L 169.06 169.95 C 168.58 170.67 168.78 171.64 169.50 172.11 C 170.22 172.59 171.19 172.39 171.66 171.67 L 172.20 170.86 C 172.67 170.14 172.47 169.17 171.75 168.69 C 171.03 168.22 170.06 168.42 169.59 169.14 Z M 169.08 169.91 L 168.56 170.64 C 168.06 171.35 168.23 172.32 168.94 172.82 C 169.64 173.32 170.61 173.15 171.11 172.45 L 171.63 171.71 C 172.13 171.01 171.96 170.03 171.26 169.53 C 170.56 169.04 169.58 169.20 169.08 169.91 Z M 168.58 170.61 L 168.01 171.39 C 167.50 172.08 167.64 173.05 168.33 173.57 C 169.02 174.08 170.00 173.94 170.52 173.25 L 171.09 172.48 C 171.60 171.79 171.46 170.81 170.77 170.29 C 170.08 169.78 169.10 169.92 168.58 170.61 Z M 168.03 171.36 L 167.41 172.16 C 166.88 172.85 167.01 173.83 167.69 174.35 C 168.38 174.88 169.36 174.75 169.88 174.07 L 170.50 173.27 C 171.03 172.59 170.90 171.61 170.22 171.08 C 169.54 170.55 168.56 170.68 168.03 171.36 Z M 167.43 172.15 L 166.81 172.92 C 166.27 173.60 166.38 174.58 167.06 175.11 C 167.73 175.65 168.72 175.54 169.25 174.86 L 169.87 174.09 C 170.41 173.41 170.29 172.43 169.62 171.89 C 168.94 171.36 167.96 171.47 167.43 172.15 Z M 166.82 172.91 L 166.20 173.67 C 165.65 174.34 165.76 175.32 166.42 175.87 C 167.09 176.41 168.08 176.31 168.62 175.64 L 169.24 174.88 C 169.79 174.21 169.68 173.23 169.01 172.68 C 168.35 172.14 167.36 172.24 166.82 172.91 Z M 166.21 173.66 L 165.56 174.44 C 165.01 175.10 165.10 176.09 165.77 176.64 C 166.43 177.19 167.41 177.10 167.96 176.43 L 168.61 175.65 C 169.16 174.99 169.07 174.01 168.41 173.45 C 167.74 172.90 166.76 173.00 166.21 173.66 Z M 165.58 174.42 L 164.93 175.18 C 164.36 175.83 164.44 176.82 165.09 177.38 C 165.75 177.94 166.73 177.87 167.29 177.21 L 167.95 176.45 C 168.51 175.80 168.43 174.81 167.78 174.25 C 167.12 173.69 166.14 173.77 165.58 174.42 Z M 164.95 175.15 L 164.29 175.88 C 163.71 176.52 163.76 177.51 164.40 178.09 C 165.04 178.66 166.03 178.61 166.61 177.98 L 167.27 177.24 C 167.85 176.60 167.80 175.62 167.16 175.04 C 166.52 174.46 165.53 174.51 164.95 175.15 Z M 164.33 175.84 L 163.68 176.51 C 163.08 177.13 163.10 178.11 163.72 178.71 C 164.34 179.31 165.33 179.30 165.93 178.68 L 166.57 178.01 C 167.17 177.40 167.15 176.41 166.54 175.81 C 165.92 175.21 164.93 175.22 164.33 175.84 Z M 163.73 176.46 L 163.04 177.11 C 162.42 177.71 162.39 178.69 162.98 179.32 C 163.58 179.94 164.57 179.97 165.19 179.38 L 165.88 178.73 C 166.50 178.13 166.53 177.14 165.94 176.52 C 165.34 175.89 164.36 175.87 163.73 176.46 Z M 163.09 177.07 L 162.31 177.74 C 161.66 178.31 161.59 179.30 162.16 179.95 C 162.72 180.60 163.71 180.67 164.36 180.10 L 165.14 179.42 C 165.79 178.86 165.86 177.87 165.30 177.22 C 164.73 176.57 163.74 176.50 163.09 177.07 Z M 162.36 177.71 L 161.54 178.36 C 160.87 178.90 160.77 179.89 161.31 180.56 C 161.85 181.23 162.83 181.34 163.50 180.79 L 164.32 180.14 C 164.99 179.60 165.09 178.61 164.55 177.94 C 164.01 177.27 163.03 177.17 162.36 177.71 Z M 161.58 178.34 L 160.83 178.91 C 160.14 179.43 160.01 180.41 160.53 181.09 C 161.05 181.78 162.03 181.91 162.72 181.39 L 163.47 180.82 C 164.15 180.30 164.29 179.32 163.76 178.63 C 163.24 177.95 162.26 177.81 161.58 178.34 Z M 160.86 178.88 L 160.05 179.47 C 159.35 179.97 159.19 180.94 159.69 181.64 C 160.19 182.34 161.17 182.50 161.87 182.00 L 162.68 181.42 C 163.38 180.91 163.54 179.94 163.04 179.24 C 162.54 178.54 161.56 178.38 160.86 178.88 Z M 160.09 179.44 L 159.23 180.02 C 158.51 180.50 158.32 181.47 158.80 182.18 C 159.28 182.90 160.25 183.09 160.97 182.61 L 161.83 182.03 C 162.54 181.55 162.74 180.58 162.25 179.86 C 161.77 179.15 160.80 178.96 160.09 179.44 Z M 159.28 179.98 L 158.39 180.54 C 157.65 180.99 157.43 181.95 157.88 182.69 C 158.34 183.42 159.30 183.64 160.03 183.19 L 160.92 182.64 C 161.65 182.18 161.88 181.22 161.43 180.49 C 160.97 179.76 160.01 179.53 159.28 179.98 Z M 158.45 180.50 L 157.54 181.01 C 156.78 181.43 156.52 182.38 156.94 183.14 C 157.36 183.89 158.31 184.16 159.06 183.73 L 159.97 183.23 C 160.72 182.80 160.99 181.85 160.57 181.10 C 160.15 180.35 159.20 180.08 158.45 180.50 Z M 157.60 180.98 L 156.69 181.43 C 155.92 181.82 155.60 182.76 155.99 183.53 C 156.37 184.30 157.31 184.61 158.08 184.23 L 159.00 183.77 C 159.77 183.38 160.08 182.45 159.70 181.68 C 159.31 180.90 158.37 180.59 157.60 180.98 Z M 156.75 181.40 L 155.83 181.81 C 155.05 182.16 154.69 183.08 155.04 183.87 C 155.39 184.66 156.31 185.01 157.10 184.66 L 158.01 184.26 C 158.80 183.91 159.16 182.99 158.81 182.20 C 158.46 181.41 157.54 181.05 156.75 181.40 Z M 155.90 181.78 L 154.98 182.14 C 154.18 182.45 153.78 183.35 154.09 184.16 C 154.40 184.96 155.31 185.36 156.11 185.05 L 157.03 184.69 C 157.83 184.38 158.23 183.48 157.92 182.67 C 157.61 181.87 156.70 181.47 155.90 181.78 Z M 155.05 182.11 L 154.13 182.42 C 153.32 182.70 152.88 183.58 153.15 184.40 C 153.43 185.22 154.31 185.66 155.13 185.38 L 156.05 185.07 C 156.86 184.80 157.30 183.91 157.03 183.09 C 156.75 182.28 155.87 181.84 155.05 182.11 Z M 154.20 182.40 L 153.24 182.68 C 152.41 182.91 151.93 183.78 152.17 184.61 C 152.40 185.44 153.27 185.92 154.10 185.68 L 155.06 185.40 C 155.89 185.16 156.37 184.30 156.13 183.47 C 155.90 182.64 155.03 182.16 154.20 182.40 Z M 153.31 182.66 L 152.34 182.89 C 151.50 183.09 150.98 183.93 151.18 184.77 C 151.38 185.60 152.22 186.12 153.06 185.93 L 154.03 185.70 C 154.86 185.50 155.38 184.66 155.19 183.82 C 154.99 182.98 154.15 182.46 153.31 182.66 Z M 152.41 182.87 L 151.44 183.05 C 150.59 183.21 150.03 184.03 150.19 184.87 C 150.34 185.72 151.16 186.28 152.01 186.12 L 152.98 185.94 C 153.83 185.78 154.39 184.97 154.23 184.12 C 154.07 183.27 153.26 182.71 152.41 182.87 Z M 151.51 183.04 L 150.52 183.18 C 149.67 183.29 149.07 184.08 149.19 184.94 C 149.30 185.79 150.09 186.39 150.95 186.27 L 151.93 186.13 C 152.79 186.02 153.38 185.23 153.27 184.38 C 153.15 183.52 152.36 182.92 151.51 183.04 Z M 150.59 183.17 L 149.61 183.26 C 148.75 183.34 148.12 184.10 148.20 184.96 C 148.28 185.82 149.04 186.45 149.90 186.37 L 150.88 186.28 C 151.74 186.20 152.37 185.44 152.29 184.58 C 152.21 183.72 151.45 183.09 150.59 183.17 Z M 149.68 183.26 L 148.71 183.30 C 147.85 183.34 147.18 184.07 147.22 184.93 C 147.26 185.79 147.99 186.46 148.85 186.42 L 149.83 186.37 C 150.69 186.33 151.35 185.60 151.31 184.74 C 151.27 183.88 150.54 183.21 149.68 183.26 Z M 148.79 183.30 L 147.80 183.29 C 146.94 183.29 146.23 183.98 146.23 184.85 C 146.23 185.71 146.92 186.41 147.78 186.42 L 148.77 186.42 C 149.64 186.43 150.34 185.73 150.34 184.87 C 150.35 184.01 149.65 183.30 148.79 183.30 Z M 147.89 183.30 L 146.88 183.23 C 146.02 183.18 145.28 183.83 145.22 184.69 C 145.17 185.55 145.82 186.29 146.68 186.35 L 147.69 186.41 C 148.55 186.47 149.29 185.82 149.35 184.96 C 149.40 184.09 148.75 183.35 147.89 183.30 Z M 146.98 183.24 L 145.96 183.11 C 145.10 183.00 144.32 183.60 144.21 184.45 C 144.10 185.31 144.70 186.09 145.55 186.20 L 146.58 186.34 C 147.44 186.45 148.22 185.85 148.33 184.99 C 148.44 184.14 147.84 183.35 146.98 183.24 Z M 146.06 183.13 L 145.11 182.94 C 144.26 182.77 143.44 183.32 143.27 184.16 C 143.10 185.01 143.65 185.83 144.50 186.00 L 145.45 186.19 C 146.30 186.36 147.12 185.81 147.29 184.96 C 147.46 184.12 146.91 183.29 146.06 183.13 Z M 145.21 182.96 L 144.26 182.71 C 143.43 182.48 142.58 182.98 142.35 183.81 C 142.13 184.65 142.63 185.50 143.46 185.72 L 144.40 185.98 C 145.23 186.20 146.09 185.70 146.31 184.87 C 146.53 184.04 146.04 183.18 145.21 182.96 Z M 144.36 182.74 L 143.42 182.42 C 142.60 182.14 141.72 182.58 141.44 183.40 C 141.16 184.21 141.60 185.10 142.42 185.38 L 143.36 185.69 C 144.18 185.97 145.07 185.53 145.34 184.71 C 145.62 183.90 145.18 183.01 144.36 182.74 Z M 143.51 182.45 L 142.58 182.07 C 141.78 181.74 140.87 182.12 140.54 182.91 C 140.21 183.71 140.59 184.62 141.39 184.95 L 142.32 185.34 C 143.12 185.67 144.03 185.29 144.36 184.49 C 144.69 183.70 144.31 182.78 143.51 182.45 Z M 142.67 182.11 L 141.74 181.65 C 140.97 181.27 140.04 181.59 139.65 182.36 C 139.27 183.13 139.59 184.07 140.36 184.45 L 141.29 184.91 C 142.06 185.29 143.00 184.97 143.38 184.20 C 143.76 183.43 143.44 182.49 142.67 182.11 Z M 141.84 181.70 L 140.93 181.18 C 140.19 180.74 139.23 181.00 138.80 181.74 C 138.37 182.49 138.62 183.44 139.36 183.88 L 140.27 184.40 C 141.01 184.84 141.97 184.58 142.40 183.84 C 142.84 183.09 142.58 182.14 141.84 181.70 Z M 141.01 181.23 L 140.14 180.64 C 139.42 180.17 138.45 180.36 137.97 181.08 C 137.50 181.79 137.69 182.76 138.41 183.24 L 139.28 183.83 C 140.00 184.30 140.97 184.11 141.45 183.39 C 141.93 182.67 141.73 181.70 141.01 181.23 Z M 140.20 180.69 L 139.37 180.07 C 138.67 179.56 137.69 179.70 137.18 180.40 C 136.67 181.09 136.82 182.07 137.51 182.58 L 138.34 183.20 C 139.04 183.71 140.01 183.56 140.53 182.87 C 141.04 182.18 140.89 181.20 140.20 180.69 Z M 139.42 180.11 L 138.63 179.48 C 137.96 178.94 136.98 179.04 136.44 179.72 C 135.90 180.39 136.00 181.37 136.67 181.91 L 137.46 182.54 C 138.13 183.08 139.11 182.98 139.65 182.30 C 140.19 181.63 140.09 180.65 139.42 180.11 Z M 138.67 179.51 L 137.96 178.89 C 137.30 178.33 136.32 178.40 135.75 179.06 C 135.19 179.71 135.26 180.69 135.92 181.26 L 136.63 181.88 C 137.29 182.44 138.27 182.37 138.84 181.71 C 139.40 181.06 139.33 180.08 138.67 179.51 Z M 137.99 178.92 L 137.28 178.27 C 136.65 177.69 135.66 177.73 135.08 178.37 C 134.49 179.01 134.54 179.99 135.17 180.58 L 135.88 181.23 C 136.52 181.81 137.50 181.77 138.09 181.13 C 138.67 180.49 138.63 179.51 137.99 178.92 Z M 137.32 178.31 L 136.60 177.60 C 135.99 176.99 135.00 177.00 134.39 177.61 C 133.79 178.23 133.79 179.21 134.41 179.82 L 135.13 180.54 C 135.74 181.14 136.73 181.14 137.34 180.52 C 137.94 179.91 137.94 178.92 137.32 178.31 Z M 136.65 177.65 L 136.01 176.95 C 135.42 176.32 134.43 176.27 133.80 176.86 C 133.17 177.44 133.12 178.43 133.71 179.06 L 134.35 179.77 C 134.94 180.40 135.92 180.44 136.56 179.86 C 137.19 179.28 137.24 178.29 136.65 177.65 Z M 136.06 177.01 L 135.43 176.26 C 134.88 175.60 133.90 175.51 133.24 176.06 C 132.57 176.62 132.48 177.60 133.04 178.26 L 133.66 179.01 C 134.21 179.67 135.19 179.76 135.86 179.21 C 136.52 178.65 136.61 177.67 136.06 177.01 Z M 135.47 176.31 L 134.87 175.53 C 134.34 174.85 133.36 174.73 132.68 175.25 C 132.00 175.78 131.87 176.76 132.40 177.44 L 133.00 178.22 C 133.53 178.90 134.51 179.02 135.19 178.50 C 135.87 177.97 136.00 176.99 135.47 176.31 Z M 134.89 175.56 L 134.34 174.80 C 133.83 174.11 132.85 173.96 132.15 174.47 C 131.46 174.98 131.31 175.96 131.82 176.65 L 132.38 177.41 C 132.89 178.11 133.87 178.26 134.56 177.75 C 135.26 177.24 135.41 176.26 134.89 175.56 Z M 134.36 174.83 L 133.79 174.01 C 133.29 173.31 132.32 173.13 131.61 173.63 C 130.90 174.12 130.73 175.09 131.22 175.80 L 131.80 176.62 C 132.29 177.33 133.26 177.50 133.97 177.01 C 134.68 176.51 134.85 175.54 134.36 174.83 Z M 133.81 174.05 L 133.24 173.18 C 132.77 172.46 131.80 172.26 131.08 172.74 C 130.36 173.21 130.16 174.18 130.63 174.90 L 131.20 175.76 C 131.67 176.48 132.64 176.68 133.36 176.21 C 134.08 175.74 134.28 174.77 133.81 174.05 Z M 133.27 173.23 L 132.72 172.34 C 132.27 171.60 131.31 171.37 130.58 171.82 C 129.84 172.27 129.61 173.23 130.06 173.97 L 130.60 174.86 C 131.06 175.59 132.02 175.82 132.75 175.37 C 133.49 174.92 133.72 173.96 133.27 173.23 Z M 132.75 172.39 L 132.25 171.50 C 131.83 170.74 130.88 170.48 130.13 170.90 C 129.38 171.32 129.11 172.27 129.53 173.02 L 130.03 173.91 C 130.45 174.67 131.40 174.94 132.15 174.51 C 132.91 174.09 133.17 173.14 132.75 172.39 Z M 132.29 171.56 L 131.84 170.67 C 131.45 169.90 130.52 169.59 129.75 169.97 C 128.97 170.36 128.66 171.29 129.05 172.07 L 129.49 172.96 C 129.88 173.73 130.82 174.04 131.59 173.66 C 132.36 173.27 132.67 172.33 132.29 171.56 Z M 131.88 170.74 L 131.48 169.84 C 131.14 169.05 130.22 168.68 129.43 169.03 C 128.64 169.37 128.27 170.29 128.62 171.08 L 129.01 171.99 C 129.36 172.78 130.28 173.14 131.07 172.80 C 131.86 172.46 132.22 171.54 131.88 170.74 Z M 131.52 169.93 L 131.18 168.99 C 130.88 168.18 129.99 167.77 129.18 168.06 C 128.37 168.36 127.95 169.25 128.24 170.06 L 128.58 170.99 C 128.88 171.80 129.77 172.22 130.58 171.93 C 131.39 171.63 131.81 170.74 131.52 169.93 Z M 131.21 169.09 L 130.93 168.12 C 130.68 167.30 129.82 166.82 128.99 167.06 C 128.16 167.31 127.69 168.17 127.93 169.00 L 128.21 169.97 C 128.45 170.79 129.32 171.27 130.15 171.03 C 130.98 170.79 131.45 169.92 131.21 169.09 Z M 130.95 168.22 L 130.74 167.26 C 130.55 166.42 129.71 165.89 128.87 166.08 C 128.03 166.27 127.50 167.11 127.69 167.95 L 127.90 168.90 C 128.09 169.75 128.93 170.28 129.77 170.09 C 130.61 169.90 131.14 169.06 130.95 168.22 Z M 130.75 167.35 L 130.59 166.39 C 130.45 165.54 129.64 164.97 128.79 165.11 C 127.94 165.25 127.37 166.06 127.51 166.91 L 127.67 167.86 C 127.82 168.71 128.62 169.29 129.47 169.15 C 130.32 169.00 130.90 168.20 130.75 167.35 Z M 130.60 166.45 L 130.48 165.46 C 130.37 164.61 129.59 164.00 128.73 164.11 C 127.87 164.22 127.27 165.00 127.38 165.86 L 127.50 166.84 C 127.61 167.70 128.39 168.31 129.25 168.20 C 130.11 168.09 130.71 167.31 130.60 166.45 Z M 130.48 165.51 L 130.38 164.50 C 130.30 163.64 129.53 163.02 128.67 163.10 C 127.82 163.18 127.19 163.95 127.27 164.81 L 127.37 165.81 C 127.46 166.67 128.22 167.30 129.08 167.21 C 129.94 167.13 130.57 166.37 130.48 165.51 Z M 130.38 164.53 L 130.30 163.51 C 130.23 162.65 129.48 162.01 128.62 162.08 C 127.76 162.15 127.12 162.90 127.19 163.76 L 127.27 164.78 C 127.34 165.64 128.09 166.28 128.95 166.21 C 129.81 166.14 130.45 165.39 130.38 164.53 Z M 130.30 163.52 L 130.24 162.68 C 130.18 161.82 129.43 161.17 128.57 161.24 C 127.71 161.30 127.06 162.05 127.13 162.91 L 127.19 163.75 C 127.25 164.61 128.00 165.25 128.86 165.19 C 129.72 165.13 130.37 164.38 130.30 163.52 Z"
      fill="black"
      fill-rule="nonzero" /></svg>