<svg xmlns="http://www.w3.org/2000/svg" width="300" height="300" viewBox="0 0 300 300">
<path d="M 135.76 163.84 L 135.12 162.99 C 134.60 162.30 133.62 162.16 132.93 162.68 C 132.24 163.20 132.11 164.18 132.62 164.87 L 133.27 165.72 C 133.79 166.41 134.77 166.55 135.45 166.03 C 136.14 165.51 136.28 164.53 135.76 163.84 Z M 135.13 163.00 L 134.50 162.16 C 133.99 161.46 133.02 161.31 132.32 161.83 C 131.63 162.34 131.48 163.31 131.99 164.01 L 132.61 164.85 C 133.13 165.55 134.10 165.70 134.80 165.19 C 135.49 164.67 135.64 163.70 135.13 163.00 Z M 134.53 162.19 L 133.94 161.35 C 133.45 160.65 132.48 160.47 131.77 160.97 C 131.06 161.46 130.89 162.44 131.39 163.14 L 131.97 163.98 C 132.46 164.68 133.44 164.86 134.14 164.36 C 134.85 163.87 135.02 162.89 134.53 162.19 Z M 133.98 161.40 L 133.45 160.59 C 132.99 159.86 132.02 159.65 131.29 160.12 C 130.57 160.59 130.36 161.55 130.83 162.28 L 131.35 163.09 C 131.82 163.82 132.78 164.03 133.51 163.56 C 134.23 163.09 134.44 162.13 133.98 161.40 Z M 133.50 160.67 L 133.05 159.87 C 132.63 159.12 131.68 158.86 130.93 159.28 C 130.18 159.70 129.91 160.66 130.33 161.41 L 130.78 162.20 C 131.20 162.95 132.15 163.22 132.91 162.79 C 133.66 162.37 133.92 161.42 133.50 160.67 Z M 133.12 160.00 L 132.70 159.07 C 132.35 158.28 131.42 157.93 130.64 158.28 C 129.85 158.63 129.50 159.56 129.85 160.34 L 130.27 161.28 C 130.62 162.07 131.54 162.42 132.33 162.07 C 133.12 161.71 133.47 160.79 133.12 160.00 Z M 132.76 159.24 L 132.47 158.30 C 132.21 157.48 131.33 157.02 130.51 157.28 C 129.69 157.54 129.23 158.41 129.49 159.24 L 129.79 160.17 C 130.04 161.00 130.92 161.45 131.74 161.20 C 132.57 160.94 133.02 160.06 132.76 159.24 Z M 132.51 158.47 L 132.33 157.52 C 132.16 156.67 131.34 156.12 130.49 156.29 C 129.65 156.45 129.10 157.27 129.26 158.12 L 129.45 159.07 C 129.61 159.91 130.43 160.47 131.28 160.30 C 132.13 160.13 132.68 159.31 132.51 158.47 Z M 132.35 157.65 L 132.24 156.66 C 132.15 155.80 131.38 155.18 130.53 155.27 C 129.67 155.36 129.05 156.13 129.14 156.99 L 129.24 157.98 C 129.33 158.84 130.10 159.46 130.96 159.37 C 131.82 159.28 132.44 158.51 132.35 157.65 Z M 132.25 156.75 L 132.20 155.76 C 132.16 154.90 131.43 154.23 130.57 154.27 C 129.71 154.31 129.04 155.04 129.08 155.91 L 129.13 156.90 C 129.17 157.76 129.90 158.42 130.76 158.38 C 131.62 158.34 132.29 157.61 132.25 156.75 Z M 132.20 155.84 L 132.21 154.82 C 132.21 153.96 131.52 153.26 130.66 153.26 C 129.79 153.25 129.09 153.95 129.09 154.81 L 129.08 155.83 C 129.08 156.69 129.77 157.39 130.64 157.39 C 131.50 157.40 132.20 156.70 132.20 155.84 Z M 132.21 154.92 L 132.27 153.90 C 132.33 153.04 131.67 152.29 130.81 152.24 C 129.95 152.18 129.21 152.84 129.15 153.70 L 129.09 154.72 C 129.04 155.58 129.69 156.32 130.55 156.38 C 131.41 156.43 132.15 155.78 132.21 154.92 Z M 132.26 154.01 L 132.39 153.02 C 132.51 152.16 131.91 151.38 131.06 151.26 C 130.20 151.14 129.42 151.74 129.30 152.60 L 129.17 153.59 C 129.05 154.44 129.65 155.23 130.50 155.34 C 131.36 155.46 132.14 154.86 132.26 154.01 Z M 132.37 153.17 L 132.60 152.20 C 132.79 151.36 132.27 150.52 131.43 150.32 C 130.60 150.12 129.75 150.64 129.56 151.48 L 129.33 152.45 C 129.13 153.29 129.65 154.13 130.49 154.33 C 131.33 154.52 132.17 154.00 132.37 153.17 Z M 132.54 152.38 L 132.89 151.43 C 133.19 150.62 132.78 149.72 131.97 149.43 C 131.16 149.13 130.26 149.54 129.96 150.35 L 129.61 151.30 C 129.31 152.11 129.73 153.00 130.53 153.30 C 131.34 153.60 132.24 153.19 132.54 152.38 Z M 132.81 151.61 L 133.26 150.73 C 133.66 149.97 133.36 149.03 132.59 148.63 C 131.83 148.24 130.89 148.54 130.49 149.30 L 130.04 150.17 C 129.64 150.94 129.94 151.88 130.71 152.28 C 131.48 152.67 132.42 152.37 132.81 151.61 Z M 133.18 150.88 L 133.72 150.06 C 134.20 149.34 134.00 148.37 133.28 147.89 C 132.56 147.42 131.59 147.62 131.11 148.34 L 130.57 149.16 C 130.10 149.88 130.30 150.85 131.02 151.32 C 131.74 151.80 132.71 151.60 133.18 150.88 Z M 133.65 150.16 L 134.25 149.39 C 134.78 148.71 134.66 147.73 133.98 147.20 C 133.30 146.67 132.32 146.79 131.79 147.47 L 131.19 148.24 C 130.66 148.92 130.78 149.90 131.46 150.43 C 132.14 150.96 133.12 150.84 133.65 150.16 Z M 134.19 149.46 L 134.83 148.74 C 135.40 148.09 135.33 147.11 134.69 146.54 C 134.04 145.96 133.05 146.03 132.48 146.67 L 131.85 147.40 C 131.28 148.04 131.34 149.03 131.98 149.60 C 132.63 150.17 133.62 150.11 134.19 149.46 Z M 134.77 148.80 L 135.47 148.09 C 136.07 147.48 136.06 146.49 135.45 145.88 C 134.83 145.28 133.84 145.29 133.24 145.90 L 132.54 146.61 C 131.94 147.23 131.95 148.21 132.56 148.82 C 133.17 149.42 134.16 149.42 134.77 148.80 Z M 135.41 148.15 L 136.17 147.45 C 136.80 146.87 136.84 145.88 136.26 145.25 C 135.68 144.61 134.69 144.57 134.05 145.15 L 133.30 145.85 C 132.66 146.43 132.62 147.42 133.20 148.05 C 133.79 148.69 134.77 148.73 135.41 148.15 Z M 136.11 147.50 L 136.90 146.84 C 137.57 146.29 137.66 145.30 137.10 144.64 C 136.55 143.98 135.57 143.89 134.91 144.44 L 134.11 145.10 C 133.45 145.65 133.36 146.64 133.91 147.30 C 134.46 147.96 135.45 148.05 136.11 147.50 Z M 136.85 146.88 L 137.64 146.28 C 138.32 145.76 138.45 144.78 137.93 144.10 C 137.41 143.41 136.43 143.28 135.75 143.80 L 134.96 144.40 C 134.27 144.92 134.14 145.90 134.66 146.58 C 135.18 147.27 136.16 147.40 136.85 146.88 Z M 137.58 146.32 L 138.40 145.75 C 139.11 145.26 139.29 144.29 138.79 143.58 C 138.30 142.87 137.33 142.70 136.62 143.19 L 135.80 143.76 C 135.09 144.25 134.92 145.23 135.41 145.93 C 135.90 146.64 136.87 146.82 137.58 146.32 Z M 138.35 145.79 L 139.20 145.25 C 139.93 144.79 140.14 143.82 139.68 143.09 C 139.22 142.37 138.26 142.15 137.53 142.61 L 136.68 143.15 C 135.95 143.61 135.73 144.58 136.19 145.30 C 136.65 146.03 137.62 146.25 138.35 145.79 Z M 139.14 145.29 L 140.01 144.79 C 140.76 144.36 141.02 143.40 140.59 142.66 C 140.17 141.91 139.21 141.65 138.46 142.07 L 137.59 142.57 C 136.84 143.00 136.58 143.96 137.01 144.70 C 137.44 145.45 138.39 145.71 139.14 145.29 Z M 139.95 144.82 L 140.85 144.36 C 141.62 143.97 141.93 143.03 141.53 142.26 C 141.14 141.49 140.20 141.19 139.43 141.58 L 138.53 142.04 C 137.76 142.43 137.46 143.37 137.85 144.14 C 138.24 144.91 139.18 145.21 139.95 144.82 Z M 140.78 144.39 L 141.71 143.98 C 142.49 143.63 142.85 142.70 142.49 141.92 C 142.14 141.13 141.22 140.78 140.43 141.13 L 139.51 141.54 C 138.72 141.90 138.37 142.82 138.72 143.61 C 139.07 144.39 139.99 144.75 140.78 144.39 Z M 141.63 144.01 L 142.57 143.65 C 143.37 143.34 143.77 142.43 143.46 141.63 C 143.15 140.83 142.24 140.43 141.44 140.74 L 140.51 141.10 C 139.70 141.41 139.30 142.31 139.61 143.12 C 139.93 143.92 140.83 144.32 141.63 144.01 Z M 142.49 143.68 L 143.43 143.37 C 144.25 143.10 144.70 142.21 144.43 141.40 C 144.16 140.58 143.28 140.13 142.46 140.40 L 141.52 140.71 C 140.70 140.98 140.25 141.86 140.52 142.68 C 140.79 143.50 141.67 143.95 142.49 143.68 Z M 143.35 143.39 L 144.30 143.13 C 145.13 142.91 145.63 142.05 145.40 141.22 C 145.17 140.38 144.32 139.89 143.48 140.12 L 142.53 140.38 C 141.70 140.60 141.21 141.46 141.44 142.29 C 141.66 143.13 142.52 143.62 143.35 143.39 Z M 144.22 143.15 L 145.23 142.93 C 146.08 142.75 146.61 141.92 146.43 141.08 C 146.25 140.24 145.42 139.70 144.58 139.88 L 143.56 140.10 C 142.72 140.28 142.19 141.11 142.37 141.95 C 142.55 142.80 143.38 143.33 144.22 143.15 Z M 145.16 142.95 L 146.16 142.79 C 147.01 142.65 147.59 141.84 147.45 140.99 C 147.31 140.14 146.51 139.57 145.66 139.70 L 144.66 139.87 C 143.80 140.01 143.23 140.81 143.37 141.66 C 143.50 142.51 144.31 143.09 145.16 142.95 Z M 146.09 142.79 L 147.08 142.68 C 147.93 142.57 148.54 141.80 148.44 140.94 C 148.34 140.09 147.56 139.47 146.71 139.58 L 145.72 139.69 C 144.87 139.80 144.26 140.57 144.36 141.43 C 144.46 142.29 145.24 142.90 146.09 142.79 Z M 147.02 142.68 L 147.98 142.60 C 148.84 142.53 149.47 141.78 149.40 140.92 C 149.33 140.06 148.58 139.42 147.72 139.49 L 146.76 139.57 C 145.90 139.64 145.26 140.40 145.34 141.26 C 145.41 142.12 146.16 142.75 147.02 142.68 Z M 147.92 142.61 L 148.97 142.56 C 149.83 142.51 150.49 141.78 150.45 140.92 C 150.41 140.06 149.67 139.39 148.81 139.44 L 147.77 139.49 C 146.91 139.53 146.24 140.26 146.29 141.12 C 146.33 141.99 147.06 142.65 147.92 142.61 Z M 148.89 142.56 L 149.90 142.56 C 150.76 142.56 151.46 141.86 151.46 140.99 C 151.46 140.13 150.76 139.43 149.90 139.43 L 148.89 139.43 C 148.03 139.44 147.33 140.13 147.33 141.00 C 147.33 141.86 148.03 142.56 148.89 142.56 Z M 149.80 142.55 L 150.77 142.62 C 151.63 142.67 152.37 142.02 152.43 141.16 C 152.49 140.30 151.84 139.56 150.98 139.50 L 150.00 139.44 C 149.14 139.38 148.40 140.03 148.34 140.89 C 148.29 141.75 148.94 142.50 149.80 142.55 Z M 150.64 142.60 L 151.56 142.75 C 152.42 142.88 153.21 142.29 153.34 141.44 C 153.47 140.59 152.89 139.79 152.04 139.66 L 151.11 139.52 C 150.26 139.39 149.46 139.97 149.33 140.82 C 149.20 141.68 149.78 142.47 150.64 142.60 Z M 151.41 142.71 L 152.30 142.94 C 153.14 143.15 153.99 142.65 154.20 141.81 C 154.41 140.98 153.91 140.13 153.07 139.92 L 152.19 139.69 C 151.35 139.48 150.50 139.98 150.29 140.82 C 150.07 141.65 150.58 142.50 151.41 142.71 Z M 152.16 142.90 L 153.07 143.23 C 153.88 143.52 154.78 143.10 155.07 142.29 C 155.36 141.47 154.94 140.58 154.13 140.29 L 153.22 139.96 C 152.41 139.67 151.51 140.09 151.22 140.90 C 150.93 141.71 151.35 142.61 152.16 142.90 Z M 152.95 143.18 L 153.92 143.62 C 154.71 143.98 155.63 143.63 155.99 142.85 C 156.35 142.06 156.00 141.14 155.22 140.78 L 154.25 140.34 C 153.46 139.98 152.54 140.32 152.18 141.11 C 151.82 141.89 152.17 142.82 152.95 143.18 Z M 153.84 143.58 L 154.75 144.06 C 155.51 144.46 156.45 144.17 156.86 143.41 C 157.26 142.65 156.97 141.70 156.21 141.30 L 155.30 140.82 C 154.54 140.42 153.59 140.71 153.19 141.47 C 152.79 142.23 153.08 143.17 153.84 143.58 Z M 154.69 144.03 L 155.53 144.52 C 156.28 144.95 157.23 144.70 157.67 143.95 C 158.10 143.21 157.85 142.25 157.10 141.82 L 156.26 141.33 C 155.52 140.90 154.56 141.15 154.13 141.90 C 153.69 142.64 153.95 143.60 154.69 144.03 Z M 155.49 144.49 L 156.35 145.03 C 157.08 145.49 158.04 145.27 158.50 144.54 C 158.96 143.81 158.74 142.84 158.01 142.38 L 157.14 141.85 C 156.41 141.39 155.45 141.61 154.99 142.34 C 154.54 143.07 154.76 144.03 155.49 144.49 Z M 156.31 145.00 L 157.17 145.58 C 157.88 146.06 158.85 145.87 159.33 145.15 C 159.82 144.44 159.62 143.47 158.91 142.99 L 158.05 142.41 C 157.33 141.93 156.36 142.12 155.88 142.84 C 155.40 143.55 155.59 144.52 156.31 145.00 Z M 157.13 145.55 L 157.96 146.15 C 158.66 146.65 159.63 146.49 160.14 145.80 C 160.64 145.10 160.48 144.12 159.78 143.62 L 158.95 143.02 C 158.25 142.51 157.28 142.67 156.77 143.37 C 156.27 144.07 156.43 145.05 157.13 145.55 Z M 157.91 146.11 L 158.73 146.75 C 159.41 147.29 160.39 147.17 160.92 146.49 C 161.45 145.81 161.33 144.83 160.65 144.29 L 159.83 143.65 C 159.15 143.12 158.17 143.24 157.64 143.92 C 157.11 144.60 157.23 145.58 157.91 146.11 Z M 158.67 146.71 L 159.46 147.39 C 160.12 147.95 161.10 147.87 161.66 147.22 C 162.23 146.57 162.15 145.58 161.50 145.02 L 160.71 144.34 C 160.05 143.78 159.07 143.85 158.51 144.51 C 157.94 145.16 158.02 146.15 158.67 146.71 Z M 159.41 147.34 L 160.13 148.02 C 160.76 148.61 161.75 148.59 162.34 147.96 C 162.93 147.33 162.90 146.35 162.28 145.75 L 161.55 145.07 C 160.92 144.48 159.94 144.50 159.34 145.13 C 158.75 145.76 158.78 146.75 159.41 147.34 Z M 160.08 147.97 L 160.76 148.67 C 161.35 149.29 162.34 149.30 162.96 148.71 C 163.58 148.11 163.60 147.12 163.00 146.50 L 162.33 145.80 C 161.73 145.18 160.74 145.17 160.12 145.77 C 159.50 146.37 159.48 147.35 160.08 147.97 Z M 160.71 148.62 L 161.35 149.33 C 161.92 149.98 162.91 150.03 163.55 149.46 C 164.19 148.88 164.25 147.90 163.68 147.25 L 163.04 146.54 C 162.47 145.90 161.48 145.84 160.84 146.42 C 160.19 146.99 160.14 147.98 160.71 148.62 Z M 161.31 149.29 L 161.94 150.06 C 162.49 150.72 163.48 150.82 164.14 150.27 C 164.81 149.72 164.90 148.73 164.35 148.07 L 163.71 147.30 C 163.16 146.63 162.18 146.54 161.52 147.09 C 160.85 147.64 160.76 148.62 161.31 149.29 Z M 161.90 150.00 L 162.50 150.80 C 163.02 151.49 164.00 151.63 164.69 151.11 C 165.37 150.59 165.51 149.61 164.99 148.92 L 164.39 148.12 C 163.87 147.44 162.90 147.30 162.21 147.82 C 161.52 148.34 161.38 149.31 161.90 150.00 Z M 162.45 150.73 L 163.01 151.56 C 163.49 152.27 164.46 152.46 165.18 151.98 C 165.89 151.50 166.08 150.53 165.60 149.82 L 165.04 148.99 C 164.56 148.27 163.59 148.08 162.87 148.56 C 162.16 149.05 161.97 150.02 162.45 150.73 Z M 162.96 151.48 L 163.47 152.34 C 163.90 153.09 164.86 153.33 165.60 152.90 C 166.35 152.46 166.59 151.50 166.16 150.76 L 165.65 149.90 C 165.21 149.15 164.26 148.90 163.51 149.34 C 162.77 149.78 162.52 150.73 162.96 151.48 Z M 163.42 152.25 L 163.86 153.13 C 164.24 153.91 165.18 154.22 165.95 153.83 C 166.72 153.45 167.04 152.51 166.65 151.74 L 166.21 150.85 C 165.82 150.08 164.88 149.77 164.11 150.16 C 163.34 150.54 163.03 151.48 163.42 152.25 Z M 163.81 153.04 L 164.20 153.95 C 164.53 154.75 165.44 155.12 166.24 154.79 C 167.03 154.46 167.41 153.54 167.08 152.75 L 166.69 151.83 C 166.36 151.04 165.45 150.66 164.65 151.00 C 163.86 151.33 163.48 152.24 163.81 153.04 Z M 164.16 153.86 L 164.49 154.80 C 164.77 155.62 165.65 156.05 166.47 155.77 C 167.28 155.49 167.72 154.60 167.44 153.79 L 167.11 152.84 C 166.83 152.03 165.94 151.59 165.13 151.87 C 164.31 152.15 163.88 153.04 164.16 153.86 Z M 164.46 154.71 L 164.72 155.68 C 164.95 156.51 165.81 157.00 166.64 156.77 C 167.47 156.55 167.96 155.69 167.73 154.86 L 167.47 153.88 C 167.24 153.05 166.38 152.56 165.55 152.79 C 164.72 153.02 164.23 153.88 164.46 154.71 Z M 164.70 155.59 L 164.90 156.57 C 165.08 157.41 165.90 157.96 166.75 157.78 C 167.59 157.61 168.14 156.78 167.96 155.94 L 167.76 154.95 C 167.58 154.11 166.76 153.57 165.91 153.74 C 165.07 153.92 164.52 154.74 164.70 155.59 Z M 164.89 156.48 L 165.03 157.45 C 165.15 158.30 165.95 158.89 166.80 158.77 C 167.65 158.64 168.24 157.85 168.12 157.00 L 167.98 156.03 C 167.85 155.17 167.06 154.58 166.21 154.71 C 165.35 154.83 164.76 155.63 164.89 156.48 Z M 165.02 157.37 L 165.11 158.36 C 165.19 159.22 165.96 159.85 166.81 159.77 C 167.67 159.69 168.30 158.92 168.22 158.07 L 168.13 157.08 C 168.05 156.22 167.29 155.59 166.43 155.67 C 165.57 155.75 164.94 156.51 165.02 157.37 Z M 165.11 158.29 L 165.16 159.29 C 165.20 160.15 165.93 160.82 166.79 160.78 C 167.66 160.73 168.32 160.00 168.28 159.14 L 168.23 158.13 C 168.18 157.27 167.45 156.61 166.59 156.65 C 165.73 156.70 165.07 157.43 165.11 158.29 Z M 165.16 159.23 L 165.17 160.25 C 165.18 161.12 165.88 161.81 166.75 161.80 C 167.61 161.79 168.30 161.08 168.29 160.22 L 168.28 159.20 C 168.27 158.34 167.56 157.65 166.70 157.66 C 165.84 157.67 165.15 158.37 165.16 159.23 Z M 165.17 160.20 L 165.15 161.19 C 165.13 162.05 165.81 162.76 166.68 162.78 C 167.54 162.80 168.25 162.12 168.27 161.25 L 168.29 160.27 C 168.31 159.40 167.62 158.69 166.76 158.67 C 165.90 158.66 165.19 159.34 165.17 160.20 Z M 165.15 161.13 L 165.09 162.10 C 165.04 162.97 165.70 163.70 166.56 163.75 C 167.42 163.80 168.16 163.15 168.21 162.29 L 168.27 161.31 C 168.32 160.45 167.66 159.71 166.80 159.66 C 165.94 159.61 165.20 160.27 165.15 161.13 Z M 165.10 162.02 L 164.99 163.01 C 164.90 163.86 165.51 164.64 166.37 164.73 C 167.23 164.83 168.00 164.21 168.09 163.35 L 168.20 162.37 C 168.30 161.51 167.68 160.74 166.82 160.64 C 165.97 160.55 165.19 161.17 165.10 162.02 Z M 165.01 162.91 L 164.83 163.90 C 164.68 164.75 165.24 165.56 166.09 165.71 C 166.94 165.86 167.75 165.29 167.90 164.44 L 168.08 163.45 C 168.23 162.60 167.66 161.79 166.82 161.64 C 165.97 161.49 165.16 162.06 165.01 162.91 Z M 164.86 163.78 L 164.60 164.78 C 164.38 165.61 164.88 166.47 165.72 166.68 C 166.55 166.90 167.40 166.40 167.62 165.56 L 167.88 164.56 C 168.09 163.73 167.59 162.88 166.76 162.66 C 165.92 162.44 165.07 162.95 164.86 163.78 Z M 164.63 164.65 L 164.31 165.59 C 164.02 166.40 164.45 167.29 165.26 167.58 C 166.08 167.86 166.97 167.43 167.25 166.62 L 167.58 165.69 C 167.87 164.87 167.44 163.98 166.62 163.70 C 165.81 163.41 164.92 163.84 164.63 164.65 Z M 164.35 165.48 L 163.96 166.39 C 163.61 167.18 163.97 168.10 164.76 168.44 C 165.55 168.78 166.47 168.42 166.82 167.63 L 167.21 166.73 C 167.56 165.94 167.19 165.02 166.40 164.67 C 165.61 164.33 164.69 164.69 164.35 165.48 Z M 164.00 166.30 L 163.54 167.19 C 163.15 167.96 163.45 168.90 164.22 169.29 C 164.99 169.69 165.93 169.38 166.32 168.61 L 166.78 167.72 C 167.17 166.95 166.87 166.01 166.10 165.62 C 165.33 165.23 164.39 165.53 164.00 166.30 Z M 163.58 167.12 L 163.07 167.99 C 162.64 168.74 162.89 169.69 163.63 170.13 C 164.38 170.56 165.33 170.31 165.77 169.57 L 166.28 168.69 C 166.71 167.94 166.46 166.99 165.72 166.55 C 164.97 166.12 164.01 166.37 163.58 167.12 Z M 163.11 167.93 L 162.56 168.78 C 162.09 169.50 162.29 170.47 163.02 170.94 C 163.74 171.41 164.71 171.20 165.18 170.48 L 165.73 169.63 C 166.20 168.91 165.99 167.94 165.27 167.47 C 164.55 167.00 163.58 167.21 163.11 167.93 Z M 162.60 168.72 L 162.01 169.55 C 161.51 170.25 161.67 171.23 162.37 171.73 C 163.07 172.23 164.05 172.06 164.55 171.36 L 165.14 170.54 C 165.64 169.84 165.48 168.86 164.77 168.36 C 164.07 167.86 163.10 168.02 162.60 168.72 Z M 162.05 169.49 L 161.41 170.31 C 160.88 170.99 161.00 171.97 161.68 172.50 C 162.36 173.03 163.34 172.91 163.87 172.23 L 164.51 171.42 C 165.04 170.74 164.92 169.76 164.24 169.23 C 163.56 168.69 162.58 168.81 162.05 169.49 Z M 161.46 170.25 L 160.80 171.02 C 160.23 171.68 160.31 172.66 160.96 173.22 C 161.62 173.79 162.60 173.71 163.16 173.06 L 163.83 172.29 C 164.39 171.63 164.31 170.65 163.66 170.09 C 163.00 169.52 162.02 169.60 161.46 170.25 Z M 160.85 170.97 L 160.16 171.69 C 159.57 172.32 159.60 173.30 160.22 173.90 C 160.85 174.49 161.84 174.46 162.43 173.84 L 163.11 173.11 C 163.71 172.49 163.68 171.50 163.05 170.91 C 162.43 170.31 161.44 170.34 160.85 170.97 Z M 160.22 171.63 L 159.51 172.31 C 158.88 172.91 158.86 173.89 159.46 174.52 C 160.05 175.14 161.04 175.16 161.67 174.57 L 162.37 173.89 C 163.00 173.30 163.02 172.31 162.42 171.68 C 161.83 171.06 160.84 171.04 160.22 171.63 Z M 159.57 172.26 L 158.84 172.89 C 158.18 173.45 158.11 174.43 158.67 175.09 C 159.23 175.74 160.22 175.82 160.87 175.25 L 161.60 174.62 C 162.26 174.06 162.33 173.08 161.77 172.42 C 161.21 171.77 160.22 171.69 159.57 172.26 Z M 158.90 172.83 L 158.14 173.42 C 157.45 173.94 157.32 174.92 157.85 175.61 C 158.37 176.29 159.35 176.42 160.04 175.90 L 160.80 175.31 C 161.49 174.78 161.62 173.80 161.09 173.12 C 160.57 172.44 159.59 172.31 158.90 172.83 Z M 158.22 173.36 L 157.42 173.89 C 156.70 174.37 156.50 175.34 156.98 176.06 C 157.46 176.77 158.42 176.97 159.14 176.49 L 159.95 175.96 C 160.67 175.48 160.86 174.51 160.39 173.80 C 159.91 173.08 158.94 172.88 158.22 173.36 Z M 157.53 173.83 L 156.67 174.30 C 155.91 174.72 155.64 175.67 156.06 176.42 C 156.47 177.18 157.42 177.45 158.18 177.03 L 159.04 176.56 C 159.79 176.14 160.06 175.19 159.65 174.44 C 159.23 173.68 158.28 173.41 157.53 173.83 Z M 156.79 174.24 L 155.87 174.65 C 155.08 175.00 154.72 175.92 155.07 176.71 C 155.42 177.49 156.34 177.85 157.13 177.50 L 158.05 177.09 C 158.84 176.75 159.20 175.82 158.85 175.04 C 158.50 174.25 157.58 173.89 156.79 174.24 Z M 156.00 174.59 L 155.00 174.93 C 154.18 175.20 153.74 176.09 154.02 176.91 C 154.29 177.72 155.18 178.17 156.00 177.89 L 157.00 177.55 C 157.81 177.28 158.25 176.40 157.98 175.58 C 157.71 174.76 156.82 174.32 156.00 174.59 Z M 155.13 174.89 L 154.18 175.12 C 153.35 175.33 152.83 176.17 153.03 177.01 C 153.24 177.85 154.08 178.36 154.92 178.16 L 155.87 177.93 C 156.70 177.72 157.22 176.88 157.02 176.04 C 156.81 175.20 155.97 174.69 155.13 174.89 Z M 154.30 175.10 L 153.33 175.26 C 152.48 175.40 151.90 176.20 152.04 177.05 C 152.18 177.91 152.99 178.48 153.84 178.34 L 154.81 178.18 C 155.66 178.04 156.23 177.24 156.09 176.39 C 155.95 175.54 155.15 174.96 154.30 175.10 Z M 153.44 175.25 L 152.43 175.34 C 151.58 175.42 150.95 176.18 151.02 177.04 C 151.10 177.90 151.87 178.53 152.72 178.45 L 153.73 178.35 C 154.59 178.27 155.22 177.51 155.14 176.66 C 155.06 175.80 154.30 175.17 153.44 175.25 Z M 152.55 175.33 L 151.53 175.35 C 150.67 175.37 149.98 176.08 150.00 176.95 C 150.02 177.81 150.73 178.49 151.59 178.48 L 152.61 178.45 C 153.47 178.44 154.16 177.72 154.14 176.86 C 154.12 176.00 153.41 175.32 152.55 175.33 Z M 151.65 175.36 L 150.63 175.30 C 149.77 175.25 149.03 175.91 148.98 176.77 C 148.93 177.63 149.59 178.37 150.45 178.42 L 151.47 178.47 C 152.33 178.52 153.07 177.86 153.12 177.00 C 153.17 176.14 152.51 175.40 151.65 175.36 Z M 150.76 175.31 L 149.76 175.17 C 148.91 175.05 148.12 175.64 147.99 176.50 C 147.87 177.35 148.47 178.14 149.32 178.26 L 150.32 178.40 C 151.17 178.52 151.96 177.93 152.09 177.08 C 152.21 176.22 151.61 175.43 150.76 175.31 Z M 149.91 175.20 L 148.88 174.95 C 148.04 174.74 147.19 175.26 146.99 176.10 C 146.79 176.93 147.30 177.78 148.14 177.98 L 149.17 178.23 C 150.01 178.44 150.85 177.92 151.06 177.08 C 151.26 176.25 150.75 175.40 149.91 175.20 Z M 149.02 174.99 L 148.01 174.64 C 147.20 174.35 146.31 174.78 146.02 175.60 C 145.74 176.41 146.17 177.30 146.98 177.59 L 147.99 177.94 C 148.81 178.22 149.70 177.79 149.98 176.98 C 150.27 176.17 149.84 175.28 149.02 174.99 Z M 148.13 174.69 L 147.19 174.26 C 146.40 173.91 145.48 174.27 145.12 175.05 C 144.77 175.84 145.13 176.76 145.91 177.11 L 146.86 177.54 C 147.65 177.89 148.57 177.54 148.92 176.75 C 149.27 175.96 148.92 175.04 148.13 174.69 Z M 147.28 174.31 L 146.40 173.84 C 145.64 173.44 144.70 173.73 144.29 174.49 C 143.89 175.25 144.18 176.20 144.94 176.60 L 145.82 177.07 C 146.58 177.47 147.52 177.18 147.93 176.42 C 148.33 175.66 148.04 174.71 147.28 174.31 Z M 146.48 173.89 L 145.67 173.40 C 144.94 172.96 143.98 173.19 143.53 173.93 C 143.09 174.67 143.32 175.63 144.06 176.08 L 144.87 176.56 C 145.60 177.00 146.56 176.77 147.01 176.03 C 147.45 175.29 147.22 174.33 146.48 173.89 Z M 145.73 173.44 L 144.96 172.93 C 144.24 172.45 143.27 172.65 142.79 173.37 C 142.32 174.09 142.52 175.06 143.24 175.53 L 144.01 176.04 C 144.73 176.52 145.70 176.32 146.17 175.60 C 146.65 174.88 146.45 173.91 145.73 173.44 Z M 145.00 172.96 L 144.08 172.30 C 143.38 171.80 142.40 171.96 141.90 172.66 C 141.40 173.36 141.56 174.34 142.26 174.84 L 143.19 175.50 C 143.89 176.00 144.87 175.84 145.37 175.14 C 145.87 174.44 145.71 173.46 145.00 172.96 Z M 144.13 172.34 L 143.35 171.72 C 142.67 171.19 141.69 171.31 141.16 171.99 C 140.62 172.67 140.74 173.65 141.42 174.18 L 142.21 174.80 C 142.89 175.33 143.87 175.21 144.40 174.53 C 144.93 173.85 144.81 172.87 144.13 172.34 Z M 143.40 171.76 L 142.71 171.18 C 142.05 170.62 141.07 170.70 140.51 171.36 C 139.95 172.01 140.03 173.00 140.69 173.56 L 141.37 174.14 C 142.03 174.70 143.02 174.62 143.57 173.96 C 144.13 173.31 144.05 172.32 143.40 171.76 Z M 142.75 171.21 L 142.07 170.60 C 141.43 170.02 140.44 170.07 139.86 170.70 C 139.28 171.34 139.33 172.33 139.97 172.91 L 140.65 173.53 C 141.29 174.10 142.28 174.06 142.85 173.42 C 143.43 172.78 143.38 171.79 142.75 171.21 Z M 142.10 170.63 L 141.39 169.95 C 140.77 169.35 139.78 169.37 139.19 170.00 C 138.59 170.62 138.61 171.61 139.23 172.20 L 139.94 172.88 C 140.56 173.48 141.55 173.46 142.14 172.83 C 142.74 172.21 142.72 171.22 142.10 170.63 Z M 141.43 169.99 L 140.74 169.27 C 140.14 168.65 139.15 168.64 138.53 169.24 C 137.91 169.84 137.90 170.83 138.50 171.44 L 139.19 172.16 C 139.79 172.78 140.78 172.80 141.40 172.20 C 142.02 171.60 142.03 170.61 141.43 169.99 Z M 140.78 169.32 L 140.10 168.55 C 139.53 167.91 138.54 167.86 137.90 168.43 C 137.25 169.00 137.20 169.99 137.77 170.63 L 138.45 171.40 C 139.03 172.04 140.01 172.10 140.66 171.52 C 141.30 170.95 141.36 169.96 140.78 169.32 Z M 140.14 168.60 L 139.50 167.83 C 138.95 167.17 137.96 167.08 137.30 167.63 C 136.64 168.18 136.55 169.16 137.10 169.83 L 137.74 170.59 C 138.29 171.26 139.27 171.35 139.93 170.79 C 140.60 170.24 140.69 169.26 140.14 168.60 Z M 139.52 167.86 L 138.89 167.06 C 138.36 166.38 137.38 166.27 136.70 166.80 C 136.02 167.34 135.91 168.32 136.44 169.00 L 137.07 169.79 C 137.61 170.47 138.59 170.59 139.27 170.05 C 139.94 169.52 140.06 168.54 139.52 167.86 Z M 138.91 167.09 L 138.31 166.29 C 137.79 165.60 136.81 165.46 136.12 165.98 C 135.44 166.50 135.30 167.48 135.82 168.17 L 136.42 168.97 C 136.94 169.66 137.92 169.79 138.61 169.27 C 139.30 168.75 139.43 167.78 138.91 167.09 Z M 138.33 166.31 L 137.76 165.53 C 137.26 164.84 136.28 164.68 135.58 165.19 C 134.89 165.69 134.73 166.67 135.24 167.37 L 135.80 168.15 C 136.31 168.84 137.28 169.00 137.98 168.49 C 138.68 167.99 138.83 167.01 138.33 166.31 Z M 137.79 165.57 L 137.26 164.79 C 136.78 164.08 135.81 163.89 135.09 164.38 C 134.38 164.86 134.19 165.83 134.68 166.54 L 135.21 167.33 C 135.69 168.04 136.66 168.23 137.38 167.74 C 138.09 167.26 138.28 166.29 137.79 165.57 Z M 137.30 164.86 L 136.78 164.01 C 136.33 163.27 135.37 163.04 134.64 163.49 C 133.90 163.94 133.67 164.90 134.12 165.63 L 134.64 166.48 C 135.09 167.22 136.05 167.45 136.78 167.00 C 137.52 166.55 137.75 165.59 137.30 164.86 Z M 136.82 164.08 L 136.31 163.13 C 135.90 162.38 134.96 162.09 134.20 162.50 C 133.44 162.91 133.16 163.86 133.57 164.62 L 134.08 165.56 C 134.49 166.32 135.44 166.60 136.19 166.19 C 136.95 165.78 137.23 164.83 136.82 164.08 Z M 136.34 163.19 L 135.95 162.38 C 135.57 161.60 134.63 161.28 133.86 161.66 C 133.08 162.04 132.76 162.97 133.14 163.75 L 133.54 164.56 C 133.92 165.34 134.85 165.66 135.63 165.28 C 136.40 164.90 136.72 163.97 136.34 163.19 Z M 135.97 162.42 L 135.57 161.53 C 135.21 160.74 134.29 160.39 133.50 160.74 C 132.72 161.10 132.37 162.02 132.72 162.81 L 133.12 163.70 C 133.47 164.49 134.39 164.84 135.18 164.49 C 135.97 164.13 136.32 163.21 135.97 162.42 Z M 135.59 161.58 L 135.20 160.63 C 134.87 159.83 133.96 159.45 133.16 159.77 C 132.37 160.10 131.98 161.01 132.31 161.81 L 132.70 162.76 C 133.02 163.56 133.93 163.94 134.73 163.61 C 135.53 163.29 135.91 162.38 135.59 161.58 Z M 135.22 160.68 L 134.86 159.69 C 134.56 158.88 133.66 158.46 132.85 158.76 C 132.04 159.06 131.63 159.95 131.93 160.76 L 132.29 161.75 C 132.58 162.56 133.48 162.98 134.29 162.68 C 135.10 162.39 135.52 161.49 135.22 160.68 Z M 134.88 159.75 L 134.56 158.75 C 134.29 157.93 133.41 157.48 132.59 157.74 C 131.77 158.00 131.32 158.88 131.58 159.70 L 131.90 160.70 C 132.17 161.52 133.05 161.97 133.87 161.71 C 134.69 161.45 135.14 160.57 134.88 159.75 Z M 134.57 158.81 L 134.31 157.84 C 134.08 157.01 133.22 156.52 132.39 156.75 C 131.56 156.98 131.07 157.84 131.30 158.67 L 131.57 159.64 C 131.79 160.47 132.65 160.96 133.49 160.73 C 134.32 160.50 134.80 159.64 134.57 158.81 Z M 134.32 157.89 L 134.09 156.92 C 133.88 156.08 133.04 155.56 132.20 155.77 C 131.37 155.97 130.85 156.81 131.05 157.65 L 131.28 158.62 C 131.49 159.46 132.33 159.98 133.17 159.77 C 134.01 159.57 134.52 158.73 134.32 157.89 Z M 134.10 156.96 L 133.89 155.98 C 133.71 155.14 132.88 154.60 132.03 154.78 C 131.19 154.96 130.65 155.79 130.83 156.64 L 131.04 157.61 C 131.22 158.45 132.05 158.99 132.90 158.81 C 133.74 158.63 134.28 157.80 134.10 156.96 Z M 133.89 156.01 L 133.70 155.03 C 133.53 154.18 132.71 153.63 131.86 153.80 C 131.02 153.97 130.47 154.79 130.64 155.63 L 130.83 156.61 C 130.99 157.46 131.82 158.01 132.66 157.84 C 133.51 157.67 134.06 156.85 133.89 156.01 Z M 133.70 155.04 L 133.53 154.16 C 133.37 153.31 132.56 152.75 131.71 152.91 C 130.86 153.07 130.31 153.89 130.47 154.74 L 130.63 155.62 C 130.79 156.47 131.61 157.02 132.46 156.86 C 133.30 156.70 133.86 155.89 133.70 155.04 Z"
      fill="black"
      fill-rule="nonzero" /></svg>