<svg xmlns="http://www.w3.org/2000/svg" width="300" height="300" viewBox="0 0 300 300">
<path d="M 96.68 93.28 L 97.37 94.03 C 97.96 94.66 98.94 94.69 99.58 94.11 C 100.21 93.52 100.24 92.53 99.66 91.90 L 98.96 91.16 C 98.38 90.52 97.39 90.49 96.76 91.07 C 96.13 91.66 96.09 92.65 96.68 93.28 Z M 97.48 94.14 L 98.23 94.79 C 98.88 95.36 99.86 95.30 100.43 94.65 C 101.00 94.00 100.94 93.01 100.29 92.45 L 99.54 91.79 C 98.90 91.22 97.91 91.28 97.34 91.93 C 96.77 92.58 96.83 93.57 97.48 94.14 Z M 98.50 94.98 L 99.35 95.46 C 100.11 95.88 101.06 95.61 101.48 94.85 C 101.90 94.10 101.63 93.15 100.87 92.73 L 100.02 92.25 C 99.27 91.83 98.32 92.10 97.90 92.86 C 97.48 93.61 97.75 94.56 98.50 94.98 Z M 99.75 95.61 L 100.59 95.82 C 101.43 96.02 102.27 95.50 102.47 94.66 C 102.68 93.82 102.16 92.98 101.32 92.78 L 100.48 92.58 C 99.64 92.37 98.80 92.89 98.59 93.73 C 98.39 94.57 98.91 95.41 99.75 95.61 Z M 100.92 95.86 L 101.85 95.88 C 102.71 95.90 103.43 95.22 103.45 94.36 C 103.47 93.50 102.79 92.78 101.93 92.76 L 101.00 92.74 C 100.13 92.71 99.42 93.40 99.40 94.26 C 99.37 95.12 100.06 95.84 100.92 95.86 Z M 102.07 95.87 L 103.10 95.75 C 103.96 95.65 104.57 94.87 104.47 94.01 C 104.37 93.16 103.59 92.55 102.74 92.65 L 101.70 92.77 C 100.85 92.87 100.23 93.65 100.34 94.51 C 100.44 95.36 101.21 95.97 102.07 95.87 Z M 103.25 95.72 L 104.38 95.48 C 105.22 95.30 105.75 94.47 105.57 93.62 C 105.39 92.78 104.56 92.25 103.71 92.43 L 102.59 92.67 C 101.75 92.86 101.21 93.69 101.39 94.53 C 101.58 95.37 102.41 95.91 103.25 95.72 Z M 104.46 95.46 L 105.42 95.20 C 106.25 94.97 106.74 94.11 106.51 93.28 C 106.28 92.45 105.42 91.96 104.59 92.19 L 103.63 92.45 C 102.80 92.68 102.31 93.54 102.54 94.37 C 102.77 95.20 103.63 95.69 104.46 95.46 Z M 105.47 95.18 L 106.45 94.88 C 107.27 94.62 107.73 93.75 107.48 92.92 C 107.22 92.10 106.35 91.64 105.52 91.89 L 104.54 92.20 C 103.72 92.46 103.26 93.33 103.51 94.15 C 103.77 94.98 104.64 95.44 105.47 95.18 Z M 106.48 94.87 L 107.46 94.54 C 108.28 94.27 108.72 93.38 108.44 92.56 C 108.17 91.75 107.29 91.30 106.47 91.58 L 105.49 91.90 C 104.67 92.18 104.23 93.06 104.51 93.88 C 104.78 94.70 105.66 95.14 106.48 94.87 Z M 107.48 94.53 L 108.42 94.20 C 109.23 93.92 109.66 93.03 109.38 92.22 C 109.10 91.40 108.21 90.97 107.39 91.26 L 106.45 91.58 C 105.64 91.87 105.21 92.76 105.49 93.57 C 105.77 94.39 106.66 94.82 107.48 94.53 Z M 108.43 94.20 L 109.34 93.88 C 110.16 93.59 110.58 92.70 110.30 91.89 C 110.01 91.07 109.12 90.65 108.30 90.93 L 107.38 91.26 C 106.57 91.55 106.15 92.44 106.43 93.25 C 106.72 94.06 107.61 94.49 108.43 94.20 Z M 109.34 93.88 L 110.33 93.53 C 111.14 93.25 111.57 92.36 111.29 91.55 C 111.00 90.73 110.11 90.30 109.30 90.59 L 108.31 90.93 C 107.50 91.22 107.07 92.11 107.35 92.92 C 107.63 93.73 108.52 94.16 109.34 93.88 Z M 110.31 93.54 L 111.23 93.23 C 112.04 92.96 112.49 92.08 112.21 91.26 C 111.94 90.44 111.06 90.00 110.24 90.27 L 109.32 90.58 C 108.50 90.85 108.06 91.74 108.33 92.56 C 108.60 93.37 109.49 93.81 110.31 93.54 Z M 111.20 93.24 L 112.11 92.96 C 112.93 92.70 113.39 91.83 113.14 91.01 C 112.88 90.18 112.01 89.72 111.19 89.98 L 110.27 90.26 C 109.45 90.52 108.99 91.39 109.24 92.22 C 109.50 93.04 110.37 93.50 111.20 93.24 Z M 112.07 92.97 L 113.00 92.71 C 113.82 92.47 114.31 91.61 114.07 90.78 C 113.84 89.95 112.97 89.47 112.14 89.71 L 111.22 89.97 C 110.39 90.20 109.91 91.07 110.15 91.90 C 110.38 92.72 111.25 93.21 112.07 92.97 Z M 112.96 92.72 L 113.87 92.48 C 114.70 92.26 115.20 91.41 114.98 90.58 C 114.77 89.74 113.91 89.24 113.08 89.46 L 112.17 89.70 C 111.34 89.91 110.84 90.77 111.06 91.60 C 111.28 92.44 112.13 92.94 112.96 92.72 Z M 113.84 92.49 L 114.80 92.26 C 115.64 92.05 116.16 91.21 115.95 90.37 C 115.75 89.54 114.91 89.02 114.07 89.22 L 113.11 89.45 C 112.27 89.66 111.75 90.50 111.96 91.34 C 112.16 92.18 113.00 92.69 113.84 92.49 Z M 114.78 92.26 L 115.79 92.04 C 116.63 91.85 117.16 91.02 116.97 90.17 C 116.78 89.33 115.95 88.80 115.11 88.99 L 114.10 89.22 C 113.26 89.40 112.73 90.24 112.91 91.08 C 113.10 91.92 113.93 92.45 114.78 92.26 Z M 115.76 92.04 L 116.81 91.83 C 117.66 91.65 118.20 90.83 118.03 89.98 C 117.85 89.14 117.03 88.60 116.18 88.77 L 115.13 88.98 C 114.29 89.16 113.75 89.98 113.92 90.83 C 114.09 91.67 114.92 92.22 115.76 92.04 Z M 116.79 91.83 L 117.72 91.66 C 118.56 91.50 119.12 90.68 118.96 89.83 C 118.80 88.99 117.99 88.43 117.14 88.59 L 116.21 88.76 C 115.36 88.92 114.80 89.74 114.96 90.59 C 115.12 91.43 115.94 91.99 116.79 91.83 Z M 117.69 91.66 L 118.63 91.50 C 119.48 91.35 120.05 90.55 119.91 89.70 C 119.76 88.85 118.95 88.28 118.10 88.42 L 117.16 88.58 C 116.31 88.73 115.74 89.54 115.89 90.39 C 116.04 91.24 116.84 91.81 117.69 91.66 Z M 118.61 91.50 L 119.58 91.35 C 120.43 91.22 121.01 90.43 120.88 89.57 C 120.75 88.72 119.95 88.14 119.10 88.27 L 118.13 88.42 C 117.28 88.55 116.69 89.35 116.82 90.20 C 116.96 91.05 117.75 91.64 118.61 91.50 Z M 119.55 91.36 L 120.56 91.22 C 121.42 91.10 122.01 90.32 121.90 89.46 C 121.78 88.61 120.99 88.01 120.14 88.13 L 119.13 88.27 C 118.27 88.38 117.68 89.17 117.79 90.02 C 117.91 90.88 118.70 91.48 119.55 91.36 Z M 120.53 91.22 L 121.59 91.10 C 122.45 91.00 123.06 90.22 122.96 89.37 C 122.86 88.51 122.08 87.90 121.23 88.00 L 120.17 88.12 C 119.31 88.22 118.70 89.00 118.80 89.86 C 118.90 90.71 119.68 91.33 120.53 91.22 Z M 121.57 91.10 L 122.56 91.00 C 123.42 90.92 124.04 90.15 123.96 89.29 C 123.87 88.43 123.10 87.81 122.25 87.90 L 121.25 88.00 C 120.40 88.08 119.77 88.85 119.86 89.71 C 119.94 90.56 120.71 91.19 121.57 91.10 Z M 122.54 91.00 L 123.50 90.92 C 124.36 90.84 124.99 90.09 124.92 89.23 C 124.84 88.37 124.09 87.73 123.23 87.81 L 122.27 87.89 C 121.41 87.97 120.77 88.73 120.85 89.58 C 120.92 90.44 121.68 91.08 122.54 91.00 Z M 123.48 90.92 L 124.47 90.85 C 125.33 90.78 125.98 90.03 125.91 89.17 C 125.84 88.31 125.09 87.67 124.24 87.73 L 123.25 87.81 C 122.39 87.87 121.74 88.62 121.81 89.48 C 121.87 90.34 122.62 90.99 123.48 90.92 Z M 124.46 90.85 L 125.47 90.78 C 126.33 90.72 126.98 89.98 126.92 89.12 C 126.86 88.26 126.12 87.61 125.26 87.67 L 124.25 87.73 C 123.39 87.79 122.74 88.53 122.80 89.39 C 122.85 90.25 123.60 90.90 124.46 90.85 Z M 125.45 90.78 L 126.47 90.72 C 127.33 90.67 127.99 89.94 127.94 89.08 C 127.89 88.21 127.16 87.56 126.30 87.61 L 125.27 87.66 C 124.41 87.71 123.75 88.45 123.80 89.31 C 123.85 90.17 124.59 90.83 125.45 90.78 Z M 126.46 90.72 L 127.49 90.67 C 128.35 90.63 129.01 89.90 128.97 89.04 C 128.93 88.18 128.20 87.51 127.34 87.55 L 126.31 87.61 C 125.45 87.65 124.78 88.38 124.83 89.24 C 124.87 90.10 125.60 90.77 126.46 90.72 Z M 127.48 90.67 L 128.50 90.63 C 129.36 90.59 130.03 89.87 129.99 89.00 C 129.96 88.14 129.23 87.47 128.37 87.51 L 127.35 87.55 C 126.48 87.59 125.82 88.32 125.85 89.18 C 125.89 90.04 126.62 90.71 127.48 90.67 Z M 128.49 90.63 L 129.50 90.59 C 130.36 90.56 131.03 89.84 131.00 88.98 C 130.97 88.12 130.24 87.44 129.38 87.47 L 128.38 87.51 C 127.52 87.54 126.84 88.27 126.87 89.13 C 126.90 89.99 127.63 90.66 128.49 90.63 Z M 129.49 90.59 L 130.49 90.56 C 131.35 90.54 132.03 89.82 132.00 88.95 C 131.97 88.09 131.25 87.42 130.39 87.44 L 129.39 87.47 C 128.53 87.50 127.85 88.22 127.88 89.08 C 127.91 89.94 128.63 90.62 129.49 90.59 Z M 130.48 90.56 L 131.48 90.54 C 132.34 90.51 133.02 89.80 133.00 88.93 C 132.98 88.07 132.26 87.39 131.40 87.42 L 130.40 87.44 C 129.54 87.47 128.86 88.18 128.88 89.04 C 128.90 89.91 129.62 90.59 130.48 90.56 Z M 131.47 90.54 L 132.47 90.51 C 133.33 90.49 134.02 89.78 133.99 88.92 C 133.97 88.05 133.26 87.37 132.40 87.39 L 131.40 87.42 C 130.54 87.44 129.86 88.15 129.88 89.01 C 129.90 89.87 130.61 90.56 131.47 90.54 Z M 132.47 90.51 L 133.46 90.49 C 134.33 90.47 135.01 89.76 134.99 88.90 C 134.97 88.04 134.26 87.35 133.40 87.37 L 132.40 87.39 C 131.54 87.41 130.85 88.12 130.87 88.99 C 130.89 89.85 131.61 90.53 132.47 90.51 Z M 133.46 90.49 L 134.46 90.47 C 135.32 90.45 136.01 89.74 135.99 88.88 C 135.97 88.02 135.26 87.33 134.40 87.35 L 133.40 87.37 C 132.54 87.39 131.85 88.10 131.87 88.96 C 131.89 89.82 132.60 90.51 133.46 90.49 Z M 134.46 90.47 L 135.48 90.45 C 136.35 90.43 137.03 89.72 137.01 88.86 C 137.00 88.00 136.28 87.31 135.42 87.33 L 134.40 87.35 C 133.54 87.37 132.85 88.08 132.87 88.94 C 132.88 89.80 133.60 90.49 134.46 90.47 Z M 135.48 90.45 L 136.51 90.43 C 137.37 90.42 138.06 89.70 138.04 88.84 C 138.02 87.98 137.31 87.29 136.45 87.31 L 135.42 87.33 C 134.56 87.35 133.88 88.06 133.89 88.92 C 133.91 89.78 134.62 90.47 135.48 90.45 Z M 136.51 90.43 L 137.53 90.41 C 138.39 90.40 139.07 89.69 139.06 88.82 C 139.04 87.96 138.33 87.28 137.47 87.29 L 136.45 87.31 C 135.59 87.33 134.90 88.04 134.92 88.90 C 134.93 89.76 135.65 90.45 136.51 90.43 Z M 137.52 90.41 L 138.53 90.40 C 139.39 90.38 140.08 89.67 140.06 88.81 C 140.05 87.95 139.34 87.26 138.48 87.27 L 137.47 87.29 C 136.61 87.31 135.92 88.02 135.94 88.88 C 135.95 89.74 136.66 90.43 137.52 90.41 Z M 138.53 90.40 L 139.51 90.38 C 140.37 90.37 141.06 89.66 141.05 88.80 C 141.04 87.93 140.33 87.24 139.46 87.26 L 138.48 87.27 C 137.62 87.29 136.93 88.00 136.94 88.86 C 136.96 89.72 137.67 90.41 138.53 90.40 Z M 139.51 90.38 L 140.47 90.37 C 141.33 90.36 142.02 89.65 142.01 88.79 C 142.00 87.92 141.29 87.23 140.43 87.25 L 139.47 87.26 C 138.61 87.27 137.92 87.98 137.93 88.84 C 137.94 89.70 138.65 90.39 139.51 90.38 Z M 140.46 90.37 L 141.47 90.36 C 142.34 90.35 143.03 89.64 143.02 88.78 C 143.01 87.92 142.30 87.23 141.44 87.23 L 140.43 87.25 C 139.57 87.25 138.88 87.96 138.89 88.82 C 138.90 89.68 139.60 90.38 140.46 90.37 Z M 141.47 90.36 L 142.49 90.35 C 143.35 90.34 144.04 89.64 144.04 88.78 C 144.03 87.92 143.33 87.22 142.46 87.23 L 141.45 87.23 C 140.58 87.24 139.89 87.95 139.90 88.81 C 139.90 89.67 140.61 90.36 141.47 90.36 Z M 142.48 90.35 L 143.48 90.35 C 144.34 90.34 145.03 89.64 145.03 88.78 C 145.03 87.92 144.32 87.22 143.46 87.22 L 142.47 87.23 C 141.61 87.23 140.91 87.93 140.91 88.80 C 140.92 89.66 141.62 90.35 142.48 90.35 Z M 143.47 90.35 L 144.46 90.34 C 145.32 90.34 146.01 89.64 146.01 88.78 C 146.01 87.92 145.31 87.22 144.45 87.22 L 143.47 87.22 C 142.60 87.23 141.91 87.93 141.91 88.79 C 141.91 89.65 142.61 90.35 143.47 90.35 Z M 144.45 90.34 L 145.43 90.34 C 146.30 90.34 147.00 89.64 146.99 88.78 C 146.99 87.92 146.29 87.22 145.43 87.22 L 144.45 87.22 C 143.59 87.22 142.89 87.92 142.89 88.78 C 142.89 89.65 143.59 90.34 144.45 90.34 Z M 145.43 90.34 L 146.42 90.34 C 147.28 90.34 147.98 89.64 147.98 88.78 C 147.98 87.92 147.28 87.22 146.42 87.22 L 145.43 87.22 C 144.57 87.22 143.87 87.92 143.87 88.78 C 143.87 89.64 144.57 90.34 145.43 90.34 Z M 146.42 90.34 L 147.37 90.34 C 148.23 90.34 148.93 89.64 148.93 88.78 C 148.93 87.92 148.23 87.22 147.37 87.22 L 146.42 87.22 C 145.56 87.22 144.86 87.92 144.86 88.78 C 144.86 89.64 145.56 90.34 146.42 90.34 Z M 147.37 90.34 L 148.34 90.34 C 149.20 90.34 149.90 89.64 149.90 88.78 C 149.90 87.92 149.20 87.22 148.34 87.22 L 147.37 87.22 C 146.51 87.22 145.81 87.92 145.81 88.78 C 145.81 89.64 146.51 90.34 147.37 90.34 Z M 148.34 90.34 L 149.33 90.34 C 150.19 90.34 150.89 89.64 150.89 88.78 C 150.89 87.92 150.19 87.22 149.33 87.22 L 148.34 87.22 C 147.48 87.22 146.78 87.92 146.78 88.78 C 146.78 89.64 147.48 90.34 148.34 90.34 Z M 149.33 90.34 L 150.34 90.34 C 151.21 90.34 151.90 89.64 151.90 88.78 C 151.90 87.92 151.21 87.22 150.34 87.22 L 149.33 87.22 C 148.47 87.22 147.77 87.92 147.77 88.78 C 147.77 89.64 148.47 90.34 149.33 90.34 Z M 150.34 90.34 L 151.38 90.34 C 152.24 90.34 152.94 89.64 152.94 88.78 C 152.94 87.92 152.24 87.22 151.38 87.22 L 150.34 87.22 C 149.48 87.22 148.78 87.92 148.78 88.78 C 148.78 89.64 149.48 90.34 150.34 90.34 Z M 151.38 90.34 L 152.41 90.34 C 153.28 90.34 153.98 89.64 153.98 88.78 C 153.98 87.92 153.28 87.22 152.41 87.22 L 151.38 87.22 C 150.52 87.22 149.82 87.92 149.82 88.78 C 149.82 89.64 150.52 90.34 151.38 90.34 Z M 152.41 90.34 L 153.38 90.34 C 154.24 90.34 154.94 89.64 154.94 88.78 C 154.94 87.92 154.24 87.22 153.38 87.22 L 152.41 87.22 C 151.55 87.22 150.85 87.92 150.85 88.78 C 150.85 89.64 151.55 90.34 152.41 90.34 Z M 153.38 90.34 L 154.36 90.34 C 155.23 90.34 155.92 89.64 155.92 88.78 C 155.92 87.92 155.23 87.22 154.36 87.22 L 153.38 87.22 C 152.52 87.22 151.82 87.92 151.82 88.78 C 151.82 89.64 152.52 90.34 153.38 90.34 Z M 154.36 90.34 L 155.36 90.34 C 156.22 90.34 156.92 89.64 156.92 88.78 C 156.92 87.92 156.22 87.22 155.36 87.22 L 154.36 87.22 C 153.50 87.22 152.80 87.92 152.80 88.78 C 152.80 89.64 153.50 90.34 154.36 90.34 Z M 155.36 90.34 L 156.37 90.34 C 157.23 90.34 157.93 89.64 157.93 88.78 C 157.93 87.92 157.23 87.22 156.37 87.22 L 155.36 87.22 C 154.50 87.22 153.80 87.92 153.80 88.78 C 153.80 89.64 154.50 90.34 155.36 90.34 Z M 156.37 90.34 L 157.39 90.34 C 158.25 90.34 158.95 89.64 158.95 88.78 C 158.95 87.92 158.25 87.22 157.39 87.22 L 156.37 87.22 C 155.51 87.22 154.81 87.92 154.81 88.78 C 154.81 89.64 155.51 90.34 156.37 90.34 Z M 157.39 90.34 L 158.42 90.34 C 159.28 90.34 159.98 89.64 159.98 88.78 C 159.98 87.92 159.28 87.22 158.42 87.22 L 157.39 87.22 C 156.53 87.22 155.83 87.92 155.83 88.78 C 155.83 89.64 156.53 90.34 157.39 90.34 Z M 158.42 90.34 L 159.42 90.34 C 160.28 90.34 160.98 89.64 160.98 88.78 C 160.98 87.92 160.28 87.22 159.42 87.22 L 158.42 87.22 C 157.55 87.22 156.86 87.92 156.86 88.78 C 156.86 89.64 157.55 90.34 158.42 90.34 Z M 159.41 90.34 L 160.40 90.34 C 161.26 90.34 161.96 89.65 161.97 88.78 C 161.97 87.92 161.27 87.22 160.41 87.22 L 159.42 87.22 C 158.56 87.22 157.86 87.92 157.86 88.78 C 157.85 89.64 158.55 90.34 159.41 90.34 Z M 160.40 90.34 L 161.39 90.35 C 162.25 90.35 162.95 89.65 162.96 88.79 C 162.96 87.93 162.26 87.23 161.40 87.23 L 160.41 87.22 C 159.55 87.22 158.85 87.91 158.84 88.78 C 158.84 89.64 159.54 90.34 160.40 90.34 Z M 161.38 90.35 L 162.38 90.36 C 163.24 90.36 163.95 89.67 163.95 88.81 C 163.96 87.95 163.27 87.24 162.40 87.23 L 161.41 87.23 C 160.55 87.22 159.84 87.91 159.83 88.77 C 159.83 89.64 160.52 90.34 161.38 90.35 Z M 162.37 90.36 L 163.37 90.37 C 164.23 90.38 164.94 89.69 164.96 88.83 C 164.97 87.97 164.28 87.26 163.42 87.25 L 162.41 87.23 C 161.55 87.22 160.84 87.91 160.83 88.77 C 160.82 89.63 161.51 90.34 162.37 90.36 Z M 163.36 90.37 L 164.37 90.39 C 165.23 90.41 165.95 89.73 165.96 88.86 C 165.98 88.00 165.30 87.29 164.44 87.27 L 163.43 87.25 C 162.57 87.23 161.85 87.91 161.83 88.78 C 161.82 89.64 162.50 90.35 163.36 90.37 Z M 164.36 90.39 L 165.37 90.42 C 166.23 90.45 166.95 89.77 166.98 88.91 C 167.01 88.05 166.33 87.33 165.47 87.30 L 164.45 87.27 C 163.59 87.24 162.87 87.92 162.84 88.78 C 162.82 89.64 163.49 90.36 164.36 90.39 Z M 165.36 90.42 L 166.36 90.46 C 167.23 90.49 167.95 89.82 167.99 88.96 C 168.02 88.10 167.35 87.38 166.49 87.34 L 165.48 87.30 C 164.62 87.27 163.89 87.94 163.86 88.80 C 163.83 89.66 164.50 90.39 165.36 90.42 Z M 166.35 90.46 L 167.35 90.51 C 168.22 90.55 168.95 89.89 168.99 89.03 C 169.03 88.17 168.37 87.43 167.51 87.39 L 166.50 87.34 C 165.64 87.30 164.91 87.96 164.87 88.82 C 164.82 89.69 165.49 90.42 166.35 90.46 Z M 167.34 90.51 L 168.35 90.57 C 169.21 90.62 169.95 89.96 170.00 89.10 C 170.05 88.24 169.39 87.50 168.53 87.45 L 167.52 87.39 C 166.66 87.34 165.92 88.00 165.87 88.86 C 165.82 89.72 166.48 90.46 167.34 90.51 Z M 168.34 90.57 L 169.35 90.63 C 170.21 90.68 170.95 90.03 171.00 89.17 C 171.06 88.31 170.40 87.57 169.54 87.51 L 168.54 87.45 C 167.68 87.39 166.94 88.05 166.88 88.91 C 166.83 89.77 167.48 90.51 168.34 90.57 Z M 169.34 90.63 L 170.34 90.70 C 171.20 90.76 171.94 90.11 172.00 89.25 C 172.06 88.39 171.41 87.64 170.55 87.58 L 169.55 87.51 C 168.69 87.45 167.95 88.10 167.89 88.96 C 167.83 89.82 168.48 90.57 169.34 90.63 Z M 170.33 90.70 L 171.33 90.77 C 172.19 90.83 172.93 90.19 173.00 89.33 C 173.06 88.47 172.41 87.72 171.55 87.66 L 170.56 87.58 C 169.70 87.52 168.95 88.17 168.89 89.03 C 168.83 89.89 169.47 90.63 170.33 90.70 Z M 171.32 90.77 L 172.30 90.84 C 173.16 90.91 173.91 90.27 173.98 89.41 C 174.04 88.55 173.40 87.80 172.54 87.73 L 171.56 87.66 C 170.70 87.59 169.95 88.24 169.88 89.09 C 169.82 89.95 170.46 90.70 171.32 90.77 Z M 172.30 90.84 L 173.33 90.92 C 174.19 90.99 174.94 90.35 175.01 89.49 C 175.08 88.63 174.43 87.88 173.57 87.81 L 172.54 87.73 C 171.68 87.66 170.93 88.31 170.87 89.17 C 170.80 90.03 171.44 90.78 172.30 90.84 Z M 173.33 90.92 L 174.38 91.01 C 175.24 91.08 175.99 90.43 176.06 89.57 C 176.13 88.71 175.48 87.96 174.63 87.89 L 173.58 87.81 C 172.72 87.74 171.96 88.39 171.90 89.25 C 171.83 90.10 172.47 90.86 173.33 90.92 Z M 174.38 91.01 L 175.40 91.09 C 176.26 91.16 177.02 90.52 177.09 89.66 C 177.15 88.80 176.51 88.05 175.65 87.98 L 174.63 87.89 C 173.77 87.83 173.01 88.47 172.95 89.33 C 172.88 90.19 173.52 90.94 174.38 91.01 Z M 175.40 91.09 L 176.41 91.17 C 177.27 91.24 178.02 90.60 178.09 89.74 C 178.16 88.88 177.52 88.13 176.66 88.06 L 175.65 87.98 C 174.79 87.91 174.04 88.55 173.97 89.41 C 173.90 90.27 174.54 91.02 175.40 91.09 Z M 176.41 91.17 L 177.38 91.25 C 178.24 91.32 178.99 90.68 179.06 89.82 C 179.13 88.96 178.49 88.20 177.63 88.14 L 176.66 88.06 C 175.80 87.99 175.04 88.63 174.97 89.49 C 174.91 90.35 175.55 91.10 176.41 91.17 Z M 177.38 91.25 L 178.33 91.32 C 179.19 91.39 179.94 90.75 180.01 89.89 C 180.08 89.03 179.44 88.28 178.58 88.21 L 177.63 88.14 C 176.77 88.07 176.02 88.71 175.95 89.57 C 175.88 90.43 176.52 91.18 177.38 91.25 Z M 178.33 91.32 L 179.28 91.40 C 180.14 91.47 180.90 90.82 180.96 89.97 C 181.03 89.11 180.39 88.35 179.53 88.29 L 178.58 88.21 C 177.72 88.14 176.97 88.78 176.90 89.64 C 176.83 90.50 177.47 91.26 178.33 91.32 Z M 179.29 91.40 L 180.34 91.48 C 181.20 91.55 181.95 90.90 182.02 90.04 C 182.08 89.18 181.44 88.43 180.58 88.37 L 179.53 88.29 C 178.67 88.22 177.92 88.86 177.85 89.72 C 177.78 90.58 178.43 91.33 179.29 91.40 Z M 180.35 91.48 L 181.36 91.56 C 182.22 91.62 182.97 90.97 183.04 90.11 C 183.10 89.25 182.45 88.51 181.59 88.44 L 180.58 88.37 C 179.72 88.30 178.97 88.95 178.90 89.81 C 178.84 90.67 179.49 91.42 180.35 91.48 Z M 181.37 91.56 L 182.36 91.62 C 183.22 91.68 183.96 91.04 184.02 90.18 C 184.08 89.31 183.43 88.57 182.57 88.51 L 181.59 88.44 C 180.73 88.38 179.98 89.03 179.92 89.89 C 179.86 90.75 180.51 91.50 181.37 91.56 Z M 182.37 91.63 L 183.34 91.69 C 184.20 91.74 184.94 91.09 184.99 90.23 C 185.05 89.37 184.39 88.62 183.53 88.57 L 182.57 88.51 C 181.70 88.45 180.96 89.11 180.91 89.97 C 180.85 90.83 181.51 91.57 182.37 91.63 Z M 183.35 91.69 L 184.30 91.74 C 185.16 91.79 185.90 91.13 185.95 90.27 C 185.99 89.41 185.34 88.67 184.47 88.62 L 183.52 88.57 C 182.66 88.52 181.92 89.18 181.88 90.04 C 181.83 90.90 182.49 91.64 183.35 91.69 Z M 184.31 91.74 L 185.35 91.79 C 186.22 91.83 186.95 91.16 186.99 90.30 C 187.03 89.44 186.36 88.71 185.50 88.67 L 184.46 88.62 C 183.60 88.58 182.87 89.25 182.83 90.11 C 182.79 90.97 183.45 91.70 184.31 91.74 Z M 185.37 91.79 L 186.41 91.83 C 187.27 91.86 188.00 91.19 188.03 90.33 C 188.07 89.47 187.39 88.74 186.53 88.71 L 185.49 88.67 C 184.63 88.64 183.90 89.31 183.87 90.17 C 183.83 91.03 184.51 91.76 185.37 91.79 Z M 186.42 91.83 L 187.43 91.87 C 188.29 91.89 189.02 91.22 189.05 90.36 C 189.07 89.50 188.40 88.77 187.54 88.74 L 186.52 88.71 C 185.66 88.68 184.94 89.36 184.91 90.22 C 184.88 91.08 185.56 91.80 186.42 91.83 Z M 187.44 91.87 L 188.41 91.90 C 189.27 91.92 189.99 91.25 190.02 90.38 C 190.04 89.52 189.37 88.80 188.51 88.78 L 187.53 88.74 C 186.67 88.72 185.95 89.39 185.92 90.26 C 185.90 91.12 186.57 91.84 187.44 91.87 Z M 188.41 91.90 L 189.33 91.93 C 190.19 91.95 190.91 91.28 190.94 90.41 C 190.97 89.55 190.29 88.83 189.43 88.80 L 188.51 88.78 C 187.64 88.75 186.92 89.42 186.90 90.29 C 186.87 91.15 187.55 91.87 188.41 91.90 Z M 189.32 91.92 L 190.40 91.96 C 191.26 91.99 191.98 91.32 192.02 90.46 C 192.05 89.60 191.37 88.87 190.51 88.84 L 189.43 88.80 C 188.57 88.77 187.85 89.45 187.82 90.31 C 187.79 91.17 188.46 91.89 189.32 91.92 Z M 190.39 91.96 L 191.39 92.00 C 192.26 92.04 192.98 91.36 193.01 90.50 C 193.05 89.64 192.38 88.92 191.52 88.88 L 190.52 88.84 C 189.65 88.81 188.93 89.48 188.89 90.34 C 188.86 91.20 189.53 91.93 190.39 91.96 Z M 191.39 92.00 L 192.35 92.04 C 193.21 92.07 193.94 91.40 193.97 90.54 C 194.01 89.68 193.34 88.96 192.47 88.92 L 191.52 88.88 C 190.66 88.85 189.93 89.52 189.89 90.38 C 189.86 91.24 190.53 91.97 191.39 92.00 Z M 192.35 92.04 L 193.31 92.08 C 194.17 92.11 194.90 91.44 194.93 90.58 C 194.97 89.72 194.30 88.99 193.44 88.96 L 192.47 88.92 C 191.61 88.89 190.89 89.56 190.85 90.42 C 190.82 91.28 191.49 92.01 192.35 92.04 Z M 193.31 92.08 L 194.32 92.12 C 195.19 92.15 195.91 91.48 195.94 90.61 C 195.97 89.75 195.30 89.03 194.44 89.00 L 193.43 88.96 C 192.57 88.93 191.85 89.60 191.81 90.46 C 191.78 91.32 192.45 92.05 193.31 92.08 Z M 194.33 92.12 L 195.33 92.15 C 196.19 92.18 196.92 91.51 196.95 90.65 C 196.98 89.79 196.31 89.06 195.45 89.03 L 194.44 89.00 C 193.58 88.96 192.85 89.64 192.82 90.50 C 192.79 91.36 193.46 92.09 194.33 92.12 Z M 195.33 92.15 L 196.32 92.19 C 197.18 92.22 197.91 91.55 197.94 90.69 C 197.97 89.82 197.30 89.10 196.44 89.07 L 195.45 89.03 C 194.58 89.00 193.86 89.67 193.83 90.54 C 193.80 91.40 194.47 92.12 195.33 92.15 Z M 196.32 92.19 L 197.23 92.22 C 198.09 92.25 198.82 91.58 198.85 90.72 C 198.88 89.86 198.21 89.13 197.35 89.10 L 196.44 89.07 C 195.57 89.04 194.85 89.71 194.82 90.57 C 194.79 91.43 195.46 92.16 196.32 92.19 Z M 197.23 92.22 L 198.14 92.25 C 199.00 92.28 199.72 91.61 199.75 90.75 C 199.78 89.89 199.11 89.16 198.24 89.13 L 197.34 89.10 C 196.48 89.07 195.76 89.75 195.73 90.61 C 195.70 91.47 196.37 92.19 197.23 92.22 Z M 198.15 92.25 L 199.14 92.28 C 200.00 92.31 200.72 91.63 200.74 90.76 C 200.76 89.90 200.08 89.18 199.22 89.16 L 198.23 89.13 C 197.37 89.11 196.65 89.79 196.63 90.65 C 196.61 91.51 197.29 92.23 198.15 92.25 Z M 199.15 92.28 L 200.29 92.30 C 201.15 92.32 201.87 91.63 201.88 90.77 C 201.90 89.91 201.21 89.20 200.35 89.18 L 199.21 89.16 C 198.35 89.14 197.63 89.83 197.62 90.69 C 197.60 91.55 198.29 92.27 199.15 92.28 Z M 200.30 92.30 L 201.30 92.31 C 202.16 92.32 202.87 91.63 202.88 90.77 C 202.89 89.91 202.20 89.20 201.33 89.19 L 200.34 89.18 C 199.48 89.17 198.77 89.86 198.76 90.73 C 198.75 91.59 199.44 92.29 200.30 92.30 Z M 201.31 92.31 L 202.32 92.32 C 203.18 92.33 203.88 91.63 203.89 90.77 C 203.89 89.91 203.20 89.20 202.34 89.20 L 201.33 89.19 C 200.47 89.19 199.76 89.88 199.76 90.74 C 199.75 91.61 200.44 92.31 201.31 92.31 Z M 202.32 92.32 L 203.37 92.33 C 204.23 92.33 204.93 91.63 204.93 90.77 C 204.94 89.91 204.24 89.21 203.38 89.20 L 202.33 89.20 C 201.47 89.20 200.77 89.89 200.76 90.75 C 200.76 91.62 201.46 92.32 202.32 92.32 Z M 203.37 92.33 L 204.42 92.33 C 205.28 92.33 205.98 91.63 205.98 90.77 C 205.98 89.91 205.28 89.21 204.42 89.20 L 203.38 89.20 C 202.51 89.20 201.81 89.90 201.81 90.76 C 201.81 91.62 202.51 92.32 203.37 92.33 Z M 204.42 92.33 L 205.42 92.33 C 206.28 92.33 206.98 91.63 206.98 90.77 C 206.98 89.91 206.28 89.21 205.42 89.21 L 204.42 89.20 C 203.56 89.20 202.86 89.90 202.86 90.77 C 202.86 91.63 203.55 92.33 204.42 92.33 Z M 205.42 92.33 L 206.56 92.33 C 207.43 92.33 208.13 91.63 208.12 90.77 C 208.12 89.90 207.43 89.21 206.56 89.21 L 205.42 89.21 C 204.56 89.21 203.86 89.90 203.86 90.77 C 203.86 91.63 204.56 92.33 205.42 92.33 Z M 206.59 92.33 L 207.96 92.31 C 208.82 92.30 209.51 91.59 209.50 90.73 C 209.49 89.86 208.78 89.17 207.92 89.19 L 206.54 89.21 C 205.68 89.22 204.99 89.93 205.00 90.79 C 205.01 91.65 205.72 92.34 206.59 92.33 Z M 208.15 92.29 L 208.82 92.20 C 209.67 92.08 210.27 91.30 210.15 90.44 C 210.03 89.59 209.24 88.99 208.39 89.11 L 207.73 89.20 C 206.87 89.32 206.27 90.11 206.39 90.96 C 206.51 91.82 207.30 92.41 208.15 92.29 Z M 209.77 89.62 L 209.60 89.43 C 209.03 88.78 208.04 88.72 207.40 89.29 C 206.75 89.86 206.69 90.85 207.26 91.49 L 207.43 91.69 C 208.00 92.34 208.99 92.40 209.64 91.83 C 210.28 91.26 210.34 90.27 209.77 89.62 Z M 208.95 88.99 L 208.18 88.71 C 207.37 88.42 206.48 88.85 206.19 89.66 C 205.90 90.47 206.32 91.37 207.13 91.66 L 207.91 91.93 C 208.72 92.22 209.61 91.80 209.90 90.98 C 210.19 90.17 209.77 89.28 208.95 88.99 Z M 208.10 88.69 L 206.95 88.35 C 206.12 88.11 205.25 88.59 205.01 89.41 C 204.77 90.24 205.25 91.11 206.07 91.35 L 207.22 91.68 C 208.05 91.93 208.92 91.45 209.16 90.62 C 209.40 89.79 208.92 88.93 208.10 88.69 Z M 206.92 88.34 L 205.91 88.07 C 205.08 87.84 204.22 88.32 203.99 89.16 C 203.76 89.99 204.25 90.85 205.08 91.08 L 206.10 91.36 C 206.93 91.58 207.79 91.10 208.02 90.26 C 208.24 89.43 207.76 88.57 206.92 88.34 Z"
      fill="black"
      fill-rule="nonzero" /><path d="M 154.04 96.38 L 153.21 96.94 C 152.50 97.43 152.32 98.40 152.81 99.12 C 153.29 99.83 154.27 100.01 154.98 99.52 L 155.80 98.95 C 156.51 98.46 156.69 97.49 156.21 96.78 C 155.72 96.07 154.75 95.89 154.04 96.38 Z M 153.18 96.97 L 152.37 97.55 C 151.67 98.06 151.51 99.03 152.02 99.73 C 152.52 100.43 153.50 100.59 154.20 100.08 L 155.01 99.50 C 155.71 98.99 155.86 98.02 155.36 97.32 C 154.85 96.62 153.88 96.46 153.18 96.97 Z M 152.31 97.60 L 151.53 98.22 C 150.85 98.75 150.74 99.74 151.28 100.41 C 151.82 101.09 152.80 101.20 153.47 100.66 L 154.25 100.04 C 154.93 99.50 155.04 98.52 154.50 97.84 C 153.97 97.17 152.98 97.06 152.31 97.60 Z M 151.45 98.29 L 150.75 98.92 C 150.12 99.50 150.07 100.49 150.65 101.13 C 151.24 101.76 152.22 101.81 152.86 101.23 L 153.55 100.59 C 154.19 100.01 154.24 99.02 153.65 98.39 C 153.07 97.75 152.09 97.70 151.45 98.29 Z M 150.68 98.99 L 150.05 99.64 C 149.46 100.27 149.48 101.25 150.10 101.85 C 150.72 102.45 151.71 102.43 152.31 101.81 L 152.93 101.15 C 153.53 100.53 153.51 99.54 152.89 98.95 C 152.27 98.35 151.28 98.37 150.68 98.99 Z M 150.01 99.69 L 149.37 100.42 C 148.80 101.07 148.86 102.05 149.50 102.62 C 150.15 103.19 151.14 103.13 151.71 102.49 L 152.35 101.76 C 152.92 101.11 152.86 100.12 152.21 99.55 C 151.57 98.98 150.58 99.05 150.01 99.69 Z M 149.35 100.44 L 148.65 101.27 C 148.09 101.93 148.17 102.91 148.83 103.47 C 149.48 104.03 150.47 103.95 151.03 103.29 L 151.73 102.46 C 152.29 101.81 152.20 100.82 151.55 100.26 C 150.89 99.71 149.90 99.79 149.35 100.44 Z M 148.65 101.27 L 147.97 102.07 C 147.41 102.73 147.49 103.71 148.15 104.27 C 148.81 104.83 149.79 104.75 150.35 104.09 L 151.03 103.29 C 151.59 102.63 151.50 101.64 150.85 101.09 C 150.19 100.53 149.20 100.61 148.65 101.27 Z M 147.97 102.07 L 147.36 102.79 C 146.80 103.44 146.88 104.43 147.53 104.99 C 148.19 105.55 149.17 105.47 149.73 104.81 L 150.35 104.09 C 150.91 103.44 150.83 102.45 150.17 101.89 C 149.52 101.33 148.53 101.41 147.97 102.07 Z M 147.36 102.78 L 146.71 103.54 C 146.15 104.20 146.22 105.18 146.88 105.75 C 147.53 106.31 148.52 106.23 149.08 105.58 L 149.73 104.82 C 150.29 104.16 150.22 103.18 149.56 102.62 C 148.91 102.05 147.92 102.13 147.36 102.78 Z M 146.71 103.54 L 146.04 104.32 C 145.47 104.98 145.55 105.96 146.20 106.53 C 146.86 107.09 147.84 107.01 148.40 106.36 L 149.08 105.58 C 149.64 104.92 149.56 103.94 148.91 103.38 C 148.26 102.81 147.27 102.89 146.71 103.54 Z M 146.04 104.32 L 145.36 105.11 C 144.80 105.77 144.87 106.75 145.52 107.31 C 146.18 107.88 147.16 107.80 147.72 107.15 L 148.40 106.36 C 148.97 105.71 148.89 104.72 148.24 104.16 C 147.59 103.60 146.60 103.67 146.04 104.32 Z M 145.36 105.11 L 144.69 105.89 C 144.13 106.54 144.20 107.53 144.85 108.09 C 145.51 108.65 146.49 108.58 147.05 107.93 L 147.72 107.15 C 148.29 106.50 148.21 105.51 147.56 104.95 C 146.91 104.39 145.92 104.46 145.36 105.11 Z M 144.69 105.89 L 144.02 106.67 C 143.46 107.32 143.53 108.31 144.18 108.87 C 144.84 109.43 145.82 109.36 146.39 108.71 L 147.06 107.93 C 147.62 107.27 147.54 106.29 146.89 105.73 C 146.23 105.16 145.25 105.24 144.69 105.89 Z M 144.02 106.67 L 143.36 107.43 C 142.80 108.08 142.88 109.07 143.53 109.63 C 144.18 110.20 145.17 110.12 145.73 109.47 L 146.39 108.71 C 146.95 108.05 146.87 107.07 146.22 106.51 C 145.57 105.94 144.58 106.02 144.02 106.67 Z M 143.37 107.43 L 142.72 108.17 C 142.16 108.83 142.23 109.81 142.88 110.38 C 143.53 110.94 144.52 110.87 145.08 110.22 L 145.73 109.47 C 146.29 108.82 146.22 107.83 145.57 107.27 C 144.92 106.70 143.93 106.78 143.37 107.43 Z M 142.73 108.17 L 142.08 108.91 C 141.51 109.56 141.58 110.55 142.23 111.11 C 142.88 111.68 143.86 111.61 144.43 110.96 L 145.08 110.22 C 145.65 109.57 145.58 108.59 144.93 108.02 C 144.28 107.45 143.29 107.52 142.73 108.17 Z M 142.09 108.90 L 141.43 109.65 C 140.86 110.29 140.92 111.28 141.56 111.85 C 142.21 112.42 143.20 112.36 143.77 111.72 L 144.43 110.97 C 145.00 110.32 144.94 109.34 144.29 108.77 C 143.64 108.20 142.66 108.26 142.09 108.90 Z M 141.44 109.64 L 140.76 110.39 C 140.18 111.03 140.23 112.02 140.88 112.60 C 141.52 113.17 142.50 113.12 143.08 112.48 L 143.76 111.72 C 144.33 111.08 144.28 110.10 143.64 109.52 C 143.00 108.94 142.01 109.00 141.44 109.64 Z M 140.77 110.38 L 140.07 111.14 C 139.49 111.78 139.53 112.77 140.17 113.35 C 140.81 113.93 141.80 113.89 142.38 113.25 L 143.07 112.49 C 143.65 111.85 143.61 110.86 142.97 110.28 C 142.34 109.70 141.35 109.75 140.77 110.38 Z M 140.08 111.14 L 139.38 111.89 C 138.79 112.53 138.83 113.52 139.46 114.10 C 140.09 114.69 141.08 114.65 141.67 114.02 L 142.37 113.26 C 142.96 112.62 142.92 111.64 142.29 111.05 C 141.65 110.46 140.66 110.50 140.08 111.14 Z M 139.38 111.89 L 138.69 112.63 C 138.10 113.26 138.13 114.25 138.76 114.84 C 139.39 115.43 140.37 115.40 140.96 114.77 L 141.66 114.02 C 142.25 113.39 142.22 112.41 141.59 111.82 C 140.96 111.23 139.97 111.26 139.38 111.89 Z M 138.69 112.62 L 138.01 113.34 C 137.42 113.96 137.45 114.95 138.07 115.55 C 138.70 116.14 139.69 116.11 140.28 115.49 L 140.96 114.77 C 141.55 114.15 141.52 113.16 140.90 112.57 C 140.27 111.97 139.28 112.00 138.69 112.62 Z M 138.02 113.33 L 137.38 114.00 C 136.78 114.63 136.80 115.61 137.42 116.21 C 138.05 116.81 139.03 116.79 139.63 116.16 L 140.27 115.49 C 140.87 114.87 140.85 113.88 140.23 113.29 C 139.61 112.69 138.62 112.71 138.02 113.33 Z M 137.38 114.00 L 136.63 114.77 C 136.03 115.39 136.04 116.38 136.66 116.98 C 137.28 117.58 138.27 117.57 138.87 116.95 L 139.62 116.17 C 140.22 115.55 140.21 114.56 139.59 113.96 C 138.97 113.36 137.98 113.38 137.38 114.00 Z M 136.64 114.76 L 135.93 115.48 C 135.33 116.09 135.33 117.08 135.95 117.69 C 136.56 118.29 137.55 118.29 138.15 117.67 L 138.86 116.96 C 139.47 116.34 139.46 115.35 138.85 114.75 C 138.23 114.14 137.25 114.15 136.64 114.76 Z M 135.94 115.47 L 135.26 116.15 C 134.65 116.76 134.65 117.75 135.26 118.36 C 135.86 118.97 136.85 118.97 137.46 118.36 L 138.14 117.68 C 138.75 117.07 138.76 116.09 138.15 115.47 C 137.54 114.86 136.55 114.86 135.94 115.47 Z M 135.27 116.14 L 134.59 116.81 C 133.97 117.41 133.96 118.40 134.57 119.02 C 135.17 119.63 136.16 119.64 136.77 119.04 L 137.45 118.37 C 138.07 117.77 138.08 116.78 137.48 116.16 C 136.87 115.55 135.88 115.54 135.27 116.14 Z M 134.59 116.80 L 133.91 117.46 C 133.29 118.06 133.28 119.05 133.88 119.67 C 134.48 120.29 135.47 120.30 136.09 119.70 L 136.77 119.04 C 137.39 118.44 137.40 117.46 136.80 116.84 C 136.20 116.22 135.21 116.20 134.59 116.80 Z M 133.92 117.46 L 133.22 118.13 C 132.60 118.73 132.58 119.72 133.18 120.34 C 133.77 120.96 134.76 120.98 135.38 120.38 L 136.08 119.71 C 136.70 119.11 136.72 118.12 136.12 117.50 C 135.53 116.88 134.54 116.86 133.92 117.46 Z M 133.22 118.13 L 132.50 118.82 C 131.88 119.42 131.85 120.41 132.45 121.03 C 133.05 121.65 134.04 121.67 134.66 121.07 L 135.38 120.38 C 136.00 119.78 136.02 118.80 135.43 118.17 C 134.83 117.55 133.84 117.53 133.22 118.13 Z M 132.50 118.82 L 131.75 119.53 C 131.13 120.13 131.11 121.12 131.71 121.74 C 132.30 122.36 133.29 122.38 133.91 121.79 L 134.66 121.08 C 135.28 120.48 135.30 119.49 134.71 118.87 C 134.11 118.25 133.12 118.22 132.50 118.82 Z M 131.75 119.53 L 131.01 120.25 C 130.38 120.85 130.36 121.84 130.96 122.46 C 131.56 123.08 132.55 123.10 133.17 122.50 L 133.92 121.79 C 134.54 121.19 134.56 120.20 133.96 119.58 C 133.36 118.96 132.38 118.94 131.75 119.53 Z M 131.00 120.25 L 130.30 120.93 C 129.68 121.53 129.66 122.52 130.26 123.14 C 130.86 123.76 131.85 123.78 132.47 123.18 L 133.17 122.50 C 133.79 121.90 133.81 120.91 133.21 120.29 C 132.61 119.67 131.62 119.66 131.00 120.25 Z M 130.30 120.94 L 129.59 121.63 C 128.97 122.23 128.96 123.21 129.56 123.83 C 130.16 124.45 131.15 124.46 131.76 123.86 L 132.47 123.17 C 133.09 122.57 133.11 121.58 132.50 120.97 C 131.90 120.35 130.92 120.33 130.30 120.94 Z M 129.58 121.63 L 128.87 122.34 C 128.25 122.94 128.24 123.93 128.85 124.54 C 129.45 125.16 130.44 125.17 131.05 124.56 L 131.77 123.86 C 132.39 123.25 132.39 122.26 131.79 121.65 C 131.18 121.04 130.20 121.03 129.58 121.63 Z M 128.86 122.34 L 128.14 123.06 C 127.53 123.67 127.53 124.66 128.14 125.27 C 128.75 125.88 129.73 125.88 130.34 125.27 L 131.06 124.55 C 131.67 123.94 131.67 122.96 131.06 122.35 C 130.46 121.74 129.47 121.73 128.86 122.34 Z M 128.13 123.07 L 127.42 123.80 C 126.81 124.41 126.82 125.40 127.43 126.00 C 128.05 126.61 129.04 126.60 129.64 125.99 L 130.35 125.26 C 130.96 124.65 130.95 123.66 130.34 123.05 C 129.72 122.45 128.73 122.46 128.13 123.07 Z M 127.40 123.81 L 126.72 124.51 C 126.13 125.13 126.14 126.12 126.77 126.72 C 127.39 127.32 128.37 127.30 128.97 126.68 L 129.65 125.97 C 130.25 125.35 130.23 124.36 129.61 123.77 C 128.99 123.17 128.00 123.19 127.40 123.81 Z M 126.71 124.52 L 126.03 125.24 C 125.44 125.87 125.47 126.86 126.10 127.45 C 126.72 128.04 127.71 128.02 128.30 127.39 L 128.98 126.67 C 129.58 126.04 129.55 125.05 128.92 124.46 C 128.29 123.87 127.31 123.90 126.71 124.52 Z M 126.02 125.26 L 125.34 125.99 C 124.76 126.62 124.79 127.61 125.43 128.20 C 126.06 128.78 127.05 128.74 127.63 128.11 L 128.31 127.38 C 128.90 126.75 128.86 125.76 128.23 125.17 C 127.60 124.59 126.61 124.62 126.02 125.26 Z M 125.33 126.00 L 124.65 126.75 C 124.07 127.39 124.12 128.37 124.76 128.95 C 125.39 129.53 126.38 129.49 126.96 128.85 L 127.64 128.10 C 128.22 127.46 128.18 126.48 127.54 125.90 C 126.90 125.32 125.91 125.36 125.33 126.00 Z M 124.64 126.76 L 123.96 127.52 C 123.39 128.16 123.44 129.15 124.09 129.72 C 124.73 130.30 125.72 130.24 126.29 129.60 L 126.97 128.84 C 127.55 128.20 127.49 127.21 126.85 126.63 C 126.20 126.06 125.22 126.12 124.64 126.76 Z M 123.95 127.53 L 123.31 128.27 C 122.74 128.92 122.80 129.90 123.45 130.47 C 124.10 131.04 125.08 130.98 125.65 130.33 L 126.30 129.59 C 126.87 128.94 126.80 127.96 126.16 127.39 C 125.51 126.82 124.52 126.88 123.95 127.53 Z M 123.30 128.28 L 122.65 129.03 C 122.09 129.68 122.16 130.67 122.81 131.23 C 123.47 131.79 124.45 131.72 125.02 131.07 L 125.66 130.32 C 126.22 129.66 126.15 128.68 125.50 128.11 C 124.85 127.55 123.86 127.62 123.30 128.28 Z M 122.64 129.04 L 122.00 129.80 C 121.44 130.46 121.52 131.44 122.18 132.00 C 122.84 132.56 123.82 132.47 124.38 131.82 L 125.03 131.05 C 125.58 130.40 125.50 129.41 124.84 128.85 C 124.18 128.30 123.20 128.38 122.64 129.04 Z M 121.99 129.81 L 121.34 130.59 C 120.79 131.25 120.89 132.23 121.55 132.78 C 122.21 133.33 123.20 133.24 123.75 132.58 L 124.39 131.80 C 124.94 131.14 124.85 130.16 124.19 129.61 C 123.52 129.06 122.54 129.15 121.99 129.81 Z M 121.33 130.60 L 120.69 131.39 C 120.15 132.06 120.25 133.04 120.92 133.58 C 121.59 134.13 122.57 134.02 123.12 133.35 L 123.76 132.57 C 124.30 131.90 124.20 130.91 123.53 130.37 C 122.86 129.83 121.88 129.93 121.33 130.60 Z M 120.68 131.40 L 120.06 132.19 C 119.52 132.86 119.63 133.85 120.31 134.38 C 120.98 134.92 121.97 134.81 122.50 134.13 L 123.13 133.34 C 123.67 132.67 123.55 131.69 122.88 131.15 C 122.20 130.61 121.22 130.72 120.68 131.40 Z M 120.05 132.20 L 119.44 132.99 C 118.91 133.67 119.03 134.65 119.71 135.18 C 120.39 135.71 121.37 135.59 121.90 134.90 L 122.51 134.12 C 123.04 133.44 122.92 132.46 122.24 131.93 C 121.56 131.40 120.58 131.52 120.05 132.20 Z M 119.43 133.00 L 118.82 133.79 C 118.30 134.48 118.43 135.46 119.11 135.98 C 119.80 136.51 120.78 136.37 121.30 135.69 L 121.91 134.89 C 122.43 134.21 122.30 133.23 121.61 132.71 C 120.93 132.18 119.95 132.31 119.43 133.00 Z M 118.81 133.81 L 118.21 134.61 C 117.69 135.30 117.83 136.28 118.52 136.79 C 119.21 137.31 120.19 137.17 120.71 136.48 L 121.31 135.68 C 121.83 134.99 121.69 134.01 121.00 133.49 C 120.31 132.98 119.33 133.12 118.81 133.81 Z M 118.20 134.62 L 117.61 135.43 C 117.10 136.12 117.24 137.10 117.94 137.61 C 118.63 138.12 119.61 137.97 120.12 137.28 L 120.72 136.47 C 121.23 135.78 121.08 134.80 120.38 134.29 C 119.69 133.78 118.71 133.92 118.20 134.62 Z M 117.60 135.44 L 117.01 136.25 C 116.51 136.94 116.66 137.92 117.36 138.43 C 118.06 138.93 119.04 138.78 119.54 138.08 L 120.13 137.27 C 120.63 136.57 120.48 135.59 119.78 135.09 C 119.08 134.58 118.11 134.74 117.60 135.44 Z M 117.01 136.26 L 116.42 137.08 C 115.92 137.78 116.08 138.76 116.78 139.26 C 117.48 139.76 118.46 139.60 118.96 138.89 L 119.55 138.07 C 120.05 137.37 119.89 136.39 119.18 135.89 C 118.48 135.39 117.51 135.55 117.01 136.26 Z M 116.41 137.09 L 115.83 137.92 C 115.33 138.62 115.50 139.60 116.21 140.09 C 116.91 140.59 117.89 140.42 118.38 139.71 L 118.97 138.89 C 119.46 138.18 119.29 137.21 118.59 136.71 C 117.88 136.21 116.91 136.38 116.41 137.09 Z M 115.82 137.93 L 115.25 138.75 C 114.76 139.46 114.93 140.43 115.64 140.92 C 116.35 141.42 117.32 141.24 117.81 140.53 L 118.39 139.71 C 118.88 139.00 118.70 138.03 118.00 137.53 C 117.29 137.04 116.32 137.22 115.82 137.93 Z M 115.25 138.76 L 114.68 139.58 C 114.19 140.29 114.37 141.26 115.08 141.75 C 115.79 142.24 116.77 142.06 117.25 141.35 L 117.82 140.53 C 118.31 139.82 118.13 138.84 117.42 138.36 C 116.71 137.87 115.73 138.05 115.25 138.76 Z M 114.68 139.59 L 114.12 140.40 C 113.64 141.11 113.82 142.09 114.53 142.57 C 115.25 143.06 116.22 142.87 116.70 142.16 L 117.26 141.34 C 117.74 140.63 117.56 139.66 116.85 139.17 C 116.13 138.69 115.16 138.87 114.68 139.59 Z M 114.12 140.41 L 113.56 141.22 C 113.08 141.94 113.27 142.91 113.98 143.39 C 114.70 143.88 115.67 143.69 116.15 142.97 L 116.70 142.16 C 117.19 141.44 117.00 140.47 116.29 139.99 C 115.57 139.50 114.60 139.69 114.12 140.41 Z M 113.56 141.23 L 112.99 142.08 C 112.51 142.79 112.70 143.76 113.41 144.25 C 114.13 144.73 115.10 144.54 115.58 143.82 L 116.15 142.97 C 116.63 142.26 116.44 141.29 115.73 140.80 C 115.01 140.32 114.04 140.51 113.56 141.23 Z M 112.99 142.08 L 112.42 142.92 C 111.94 143.64 112.14 144.61 112.85 145.09 C 113.57 145.57 114.54 145.38 115.02 144.66 L 115.58 143.82 C 116.06 143.10 115.87 142.13 115.15 141.65 C 114.44 141.17 113.47 141.37 112.99 142.08 Z M 112.42 142.93 L 111.87 143.76 C 111.39 144.48 111.59 145.45 112.30 145.92 C 113.02 146.40 113.99 146.21 114.47 145.49 L 115.02 144.66 C 115.50 143.94 115.30 142.97 114.59 142.49 C 113.87 142.02 112.90 142.21 112.42 142.93 Z M 111.87 143.76 L 111.32 144.59 C 110.85 145.31 111.04 146.27 111.76 146.75 C 112.48 147.23 113.45 147.03 113.93 146.31 L 114.47 145.49 C 114.95 144.77 114.75 143.80 114.03 143.32 C 113.31 142.85 112.34 143.04 111.87 143.76 Z M 111.32 144.59 L 110.79 145.40 C 110.31 146.12 110.51 147.09 111.23 147.57 C 111.95 148.04 112.92 147.84 113.40 147.12 L 113.93 146.30 C 114.40 145.58 114.20 144.62 113.48 144.14 C 112.76 143.67 111.79 143.87 111.32 144.59 Z M 110.78 145.41 L 110.22 146.27 C 109.75 146.99 109.96 147.96 110.68 148.43 C 111.40 148.90 112.37 148.69 112.84 147.97 L 113.40 147.11 C 113.87 146.39 113.67 145.42 112.94 144.95 C 112.22 144.48 111.25 144.69 110.78 145.41 Z M 110.22 146.27 L 109.67 147.12 C 109.20 147.84 109.40 148.81 110.13 149.28 C 110.85 149.75 111.82 149.54 112.29 148.82 L 112.84 147.97 C 113.31 147.25 113.11 146.28 112.38 145.81 C 111.66 145.34 110.69 145.54 110.22 146.27 Z M 109.67 147.12 L 109.12 147.95 C 108.65 148.68 108.86 149.64 109.58 150.11 C 110.30 150.58 111.27 150.38 111.74 149.66 L 112.29 148.82 C 112.76 148.10 112.55 147.13 111.83 146.66 C 111.11 146.19 110.14 146.39 109.67 147.12 Z M 109.13 147.95 L 108.59 148.77 C 108.11 149.49 108.31 150.46 109.03 150.93 C 109.75 151.41 110.72 151.21 111.19 150.49 L 111.74 149.66 C 112.21 148.94 112.01 147.98 111.29 147.50 C 110.57 147.03 109.60 147.23 109.13 147.95 Z M 108.59 148.76 L 108.05 149.57 C 107.57 150.29 107.76 151.26 108.48 151.74 C 109.20 152.22 110.17 152.02 110.64 151.31 L 111.19 150.50 C 111.67 149.78 111.48 148.81 110.76 148.33 C 110.04 147.85 109.07 148.04 108.59 148.76 Z M 108.06 149.56 L 107.47 150.42 C 106.98 151.13 107.17 152.10 107.88 152.59 C 108.59 153.07 109.56 152.89 110.05 152.18 L 110.64 151.32 C 111.12 150.61 110.94 149.64 110.23 149.15 C 109.52 148.66 108.55 148.85 108.06 149.56 Z M 107.48 150.40 L 106.89 151.24 C 106.40 151.95 106.57 152.92 107.28 153.42 C 107.99 153.91 108.96 153.74 109.45 153.03 L 110.04 152.19 C 110.53 151.49 110.36 150.51 109.65 150.02 C 108.95 149.53 107.97 149.70 107.48 150.40 Z M 106.90 151.23 L 106.32 152.04 C 105.82 152.75 105.99 153.72 106.69 154.22 C 107.39 154.72 108.37 154.56 108.87 153.85 L 109.45 153.04 C 109.95 152.34 109.78 151.36 109.08 150.86 C 108.38 150.36 107.40 150.53 106.90 151.23 Z M 106.33 152.03 L 105.76 152.82 C 105.26 153.52 105.42 154.49 106.12 155.00 C 106.82 155.50 107.79 155.34 108.30 154.64 L 108.86 153.86 C 109.37 153.16 109.21 152.19 108.51 151.68 C 107.81 151.18 106.83 151.34 106.33 152.03 Z M 105.77 152.81 L 105.18 153.61 C 104.68 154.31 104.83 155.29 105.52 155.79 C 106.22 156.30 107.20 156.15 107.71 155.45 L 108.29 154.65 C 108.80 153.96 108.65 152.98 107.95 152.47 C 107.25 151.96 106.28 152.11 105.77 152.81 Z M 105.19 153.61 L 104.59 154.42 C 104.08 155.11 104.22 156.09 104.92 156.60 C 105.61 157.11 106.59 156.97 107.10 156.27 L 107.70 155.46 C 108.21 154.77 108.07 153.79 107.37 153.28 C 106.68 152.77 105.70 152.91 105.19 153.61 Z M 104.60 154.41 L 104.00 155.19 C 103.48 155.88 103.62 156.86 104.31 157.38 C 105.00 157.90 105.98 157.76 106.50 157.07 L 107.09 156.28 C 107.61 155.60 107.47 154.62 106.78 154.10 C 106.10 153.58 105.12 153.72 104.60 154.41 Z M 104.01 155.18 L 103.41 155.96 C 102.89 156.64 103.01 157.62 103.69 158.15 C 104.38 158.68 105.36 158.55 105.88 157.87 L 106.49 157.09 C 107.01 156.41 106.89 155.43 106.20 154.90 C 105.52 154.37 104.54 154.50 104.01 155.18 Z M 103.43 155.94 L 102.81 156.72 C 102.27 157.39 102.39 158.38 103.06 158.91 C 103.74 159.45 104.72 159.33 105.26 158.66 L 105.87 157.88 C 106.41 157.21 106.29 156.23 105.62 155.69 C 104.94 155.15 103.96 155.27 103.43 155.94 Z M 102.82 156.70 L 102.19 157.48 C 101.65 158.15 101.75 159.13 102.42 159.68 C 103.09 160.22 104.07 160.12 104.61 159.45 L 105.24 158.67 C 105.79 158.00 105.69 157.02 105.02 156.48 C 104.35 155.93 103.37 156.03 102.82 156.70 Z M 102.20 157.47 L 101.56 158.24 C 101.01 158.91 101.10 159.89 101.76 160.44 C 102.43 160.99 103.41 160.90 103.96 160.23 L 104.60 159.46 C 105.15 158.80 105.06 157.81 104.40 157.26 C 103.73 156.71 102.75 156.80 102.20 157.47 Z M 101.56 158.24 L 100.92 159.00 C 100.36 159.66 100.45 160.65 101.11 161.20 C 101.77 161.76 102.76 161.67 103.31 161.01 L 103.96 160.24 C 104.51 159.58 104.42 158.60 103.76 158.04 C 103.10 157.49 102.12 157.57 101.56 158.24 Z M 100.92 159.00 L 100.31 159.73 C 99.75 160.38 99.83 161.37 100.49 161.93 C 101.15 162.48 102.13 162.40 102.69 161.74 L 103.31 161.02 C 103.86 160.36 103.78 159.37 103.12 158.82 C 102.47 158.26 101.48 158.34 100.92 159.00 Z M 100.32 159.72 L 99.71 160.42 C 99.15 161.07 99.22 162.06 99.88 162.62 C 100.53 163.18 101.52 163.11 102.08 162.45 L 102.68 161.75 C 103.24 161.10 103.17 160.11 102.52 159.55 C 101.86 158.99 100.88 159.06 100.32 159.72 Z M 99.73 160.40 L 99.09 161.12 C 98.51 161.77 98.57 162.75 99.22 163.33 C 99.86 163.90 100.85 163.84 101.42 163.19 L 102.06 162.47 C 102.64 161.83 102.58 160.84 101.93 160.27 C 101.29 159.70 100.30 159.76 99.73 160.40 Z M 99.11 161.10 L 98.40 161.86 C 97.82 162.50 97.86 163.49 98.49 164.07 C 99.13 164.66 100.11 164.62 100.70 163.98 L 101.40 163.22 C 101.99 162.58 101.95 161.59 101.31 161.01 C 100.68 160.43 99.69 160.47 99.11 161.10 Z M 98.42 161.84 L 97.66 162.63 C 97.06 163.25 97.08 164.24 97.71 164.84 C 98.33 165.44 99.32 165.42 99.91 164.80 L 100.67 164.01 C 101.27 163.38 101.25 162.40 100.63 161.80 C 100.01 161.20 99.02 161.22 98.42 161.84 Z M 97.68 162.61 L 97.00 163.30 C 96.39 163.91 96.39 164.90 97.00 165.50 C 97.62 166.11 98.60 166.11 99.21 165.50 L 99.89 164.82 C 100.50 164.21 100.50 163.22 99.89 162.61 C 99.28 162.00 98.29 162.00 97.68 162.61 Z M 97.02 163.28 L 96.29 163.99 C 95.67 164.59 95.66 165.58 96.26 166.20 C 96.87 166.82 97.86 166.83 98.47 166.22 L 99.20 165.52 C 99.81 164.91 99.83 163.92 99.22 163.31 C 98.62 162.69 97.63 162.68 97.02 163.28 Z M 96.30 163.98 L 95.55 164.69 C 94.93 165.29 94.91 166.28 95.50 166.90 C 96.10 167.52 97.09 167.55 97.71 166.95 L 98.46 166.24 C 99.08 165.64 99.11 164.65 98.51 164.03 C 97.92 163.41 96.93 163.38 96.30 163.98 Z M 95.57 164.68 L 94.81 165.38 C 94.18 165.97 94.15 166.96 94.74 167.59 C 95.32 168.22 96.31 168.25 96.94 167.67 L 97.70 166.96 C 98.33 166.38 98.36 165.39 97.77 164.76 C 97.19 164.13 96.20 164.09 95.57 164.68 Z M 94.83 165.37 L 94.09 166.04 C 93.45 166.62 93.41 167.60 93.99 168.24 C 94.57 168.88 95.55 168.93 96.19 168.35 L 96.93 167.68 C 97.57 167.10 97.61 166.11 97.03 165.47 C 96.46 164.84 95.47 164.79 94.83 165.37 Z M 94.11 166.02 L 93.31 166.73 C 92.66 167.29 92.60 168.28 93.16 168.93 C 93.73 169.58 94.72 169.64 95.37 169.07 L 96.17 168.37 C 96.82 167.80 96.88 166.81 96.32 166.16 C 95.75 165.51 94.76 165.45 94.11 166.02 Z M 93.34 166.70 L 92.50 167.40 C 91.83 167.95 91.74 168.94 92.30 169.60 C 92.85 170.26 93.83 170.35 94.49 169.80 L 95.34 169.10 C 96.00 168.55 96.09 167.56 95.54 166.90 C 94.99 166.24 94.00 166.15 93.34 166.70 Z M 92.55 167.36 L 91.76 167.96 C 91.07 168.49 90.94 169.47 91.46 170.15 C 91.99 170.84 92.97 170.97 93.65 170.45 L 94.44 169.84 C 95.13 169.32 95.26 168.34 94.74 167.65 C 94.21 166.97 93.23 166.84 92.55 167.36 Z M 91.83 167.91 L 91.07 168.43 C 90.35 168.92 90.17 169.89 90.65 170.60 C 91.14 171.31 92.11 171.50 92.82 171.01 L 93.58 170.50 C 94.29 170.01 94.48 169.04 93.99 168.33 C 93.51 167.61 92.54 167.43 91.83 167.91 Z M 91.16 168.37 L 90.35 168.84 C 89.61 169.27 89.35 170.22 89.78 170.97 C 90.21 171.72 91.17 171.97 91.91 171.54 L 92.72 171.07 C 93.47 170.64 93.73 169.69 93.29 168.94 C 92.86 168.20 91.91 167.94 91.16 168.37 Z M 90.49 168.77 L 89.40 169.26 C 88.62 169.61 88.27 170.54 88.62 171.32 C 88.98 172.11 89.90 172.46 90.69 172.10 L 91.77 171.61 C 92.56 171.26 92.91 170.33 92.56 169.55 C 92.20 168.76 91.28 168.41 90.49 168.77 Z M 89.58 169.19 L 88.64 169.48 C 87.82 169.73 87.36 170.61 87.62 171.43 C 87.87 172.26 88.74 172.72 89.57 172.46 L 90.51 172.17 C 91.33 171.92 91.79 171.04 91.54 170.22 C 91.28 169.39 90.41 168.93 89.58 169.19 Z M 89.06 169.41 L 88.24 169.43 C 87.38 169.46 86.70 170.18 86.72 171.04 C 86.75 171.90 87.47 172.58 88.33 172.55 L 89.15 172.53 C 90.01 172.51 90.69 171.79 90.67 170.93 C 90.64 170.06 89.92 169.39 89.06 169.41 Z M 89.73 170.42 L 89.47 169.75 C 89.15 168.95 88.24 168.56 87.44 168.88 C 86.64 169.20 86.25 170.10 86.57 170.90 L 86.83 171.57 C 87.15 172.37 88.06 172.76 88.86 172.45 C 89.66 172.13 90.05 171.22 89.73 170.42 Z"
      fill="black"
      fill-rule="nonzero" /><path d="M 144.49 109.66 L 144.85 110.50 C 145.19 111.29 146.11 111.65 146.90 111.31 C 147.69 110.97 148.06 110.05 147.71 109.26 L 147.35 108.42 C 147.01 107.63 146.09 107.27 145.30 107.61 C 144.51 107.95 144.14 108.87 144.49 109.66 Z M 144.83 110.45 L 145.17 111.32 C 145.48 112.12 146.39 112.52 147.19 112.21 C 147.99 111.89 148.39 110.99 148.08 110.18 L 147.73 109.31 C 147.42 108.51 146.52 108.11 145.71 108.42 C 144.91 108.74 144.51 109.64 144.83 110.45 Z M 145.13 111.22 L 145.44 112.18 C 145.70 113.00 146.58 113.45 147.40 113.19 C 148.22 112.93 148.67 112.05 148.41 111.23 L 148.11 110.28 C 147.85 109.46 146.97 109.00 146.15 109.26 C 145.33 109.52 144.87 110.40 145.13 111.22 Z M 145.40 112.05 L 145.65 113.12 C 145.84 113.96 146.67 114.49 147.51 114.29 C 148.35 114.10 148.88 113.27 148.69 112.43 L 148.45 111.36 C 148.26 110.52 147.42 109.99 146.58 110.18 C 145.74 110.37 145.21 111.21 145.40 112.05 Z M 145.62 112.99 L 145.76 113.97 C 145.89 114.82 146.68 115.42 147.53 115.29 C 148.38 115.17 148.98 114.38 148.85 113.52 L 148.71 112.55 C 148.59 111.70 147.80 111.10 146.94 111.23 C 146.09 111.35 145.50 112.14 145.62 112.99 Z M 145.75 113.88 L 145.84 114.84 C 145.91 115.70 146.67 116.34 147.53 116.26 C 148.39 116.19 149.02 115.43 148.95 114.57 L 148.86 113.61 C 148.79 112.75 148.03 112.12 147.17 112.19 C 146.31 112.27 145.68 113.03 145.75 113.88 Z M 145.83 114.79 L 145.89 115.80 C 145.93 116.66 146.66 117.32 147.53 117.27 C 148.39 117.23 149.05 116.49 149.00 115.63 L 148.95 114.63 C 148.91 113.76 148.17 113.10 147.31 113.15 C 146.45 113.19 145.79 113.93 145.83 114.79 Z M 145.88 115.76 L 145.91 116.79 C 145.94 117.65 146.65 118.33 147.51 118.31 C 148.38 118.29 149.06 117.57 149.03 116.71 L 149.01 115.67 C 148.98 114.81 148.27 114.13 147.40 114.15 C 146.54 114.18 145.86 114.89 145.88 115.76 Z M 145.91 116.77 L 145.92 117.80 C 145.93 118.67 146.64 119.36 147.50 119.35 C 148.36 119.34 149.05 118.63 149.04 117.77 L 149.03 116.73 C 149.02 115.87 148.32 115.18 147.46 115.19 C 146.59 115.20 145.90 115.90 145.91 116.77 Z M 145.92 117.79 L 145.92 118.81 C 145.93 119.67 146.63 120.37 147.49 120.37 C 148.35 120.37 149.05 119.67 149.05 118.80 L 149.04 117.78 C 149.04 116.92 148.34 116.22 147.48 116.23 C 146.62 116.23 145.92 116.93 145.92 117.79 Z M 145.92 118.81 L 145.92 119.93 C 145.92 120.79 146.62 121.49 147.49 121.49 C 148.35 121.49 149.05 120.79 149.05 119.93 L 149.05 118.81 C 149.05 117.94 148.35 117.25 147.49 117.25 C 146.62 117.25 145.92 117.94 145.92 118.81 Z M 145.92 119.92 L 145.92 121.00 C 145.92 121.87 146.62 122.57 147.48 122.57 C 148.35 122.57 149.05 121.87 149.05 121.01 L 149.05 119.93 C 149.05 119.06 148.35 118.36 147.49 118.36 C 146.62 118.36 145.93 119.06 145.92 119.92 Z M 145.92 121.00 L 145.92 122.01 C 145.92 122.88 146.62 123.58 147.48 123.58 C 148.34 123.58 149.04 122.88 149.04 122.02 L 149.05 121.01 C 149.05 120.15 148.35 119.45 147.49 119.44 C 146.63 119.44 145.93 120.14 145.92 121.00 Z M 145.92 122.01 L 145.92 122.95 C 145.91 123.81 146.61 124.52 147.47 124.52 C 148.33 124.53 149.03 123.83 149.04 122.97 L 149.04 122.03 C 149.05 121.16 148.35 120.46 147.49 120.46 C 146.63 120.45 145.93 121.15 145.92 122.01 Z M 145.92 122.95 L 145.91 123.82 C 145.90 124.68 146.59 125.38 147.45 125.39 C 148.32 125.40 149.02 124.71 149.03 123.85 L 149.04 122.98 C 149.05 122.11 148.35 121.41 147.49 121.40 C 146.63 121.39 145.92 122.08 145.92 122.95 Z M 145.91 123.80 L 145.89 124.83 C 145.88 125.69 146.56 126.40 147.42 126.42 C 148.29 126.43 149.00 125.75 149.01 124.89 L 149.03 123.86 C 149.04 123.00 148.36 122.29 147.50 122.27 C 146.63 122.26 145.92 122.94 145.91 123.80 Z M 145.89 124.81 L 145.86 125.79 C 145.83 126.66 146.51 127.38 147.37 127.41 C 148.23 127.43 148.95 126.76 148.98 125.90 L 149.01 124.91 C 149.04 124.05 148.36 123.33 147.50 123.30 C 146.64 123.27 145.92 123.95 145.89 124.81 Z M 145.86 125.76 L 145.81 126.72 C 145.76 127.58 146.42 128.32 147.28 128.37 C 148.14 128.41 148.88 127.75 148.93 126.89 L 148.98 125.93 C 149.02 125.07 148.36 124.33 147.50 124.29 C 146.64 124.24 145.91 124.90 145.86 125.76 Z M 145.81 126.69 L 145.73 127.66 C 145.67 128.52 146.31 129.27 147.17 129.34 C 148.03 129.41 148.78 128.76 148.85 127.90 L 148.92 126.93 C 148.99 126.07 148.35 125.32 147.49 125.25 C 146.63 125.18 145.88 125.83 145.81 126.69 Z M 145.74 127.63 L 145.65 128.55 C 145.56 129.41 146.19 130.17 147.05 130.25 C 147.91 130.34 148.67 129.71 148.75 128.85 L 148.84 127.94 C 148.93 127.08 148.30 126.31 147.44 126.23 C 146.59 126.14 145.82 126.77 145.74 127.63 Z M 145.65 128.53 L 145.54 129.50 C 145.45 130.36 146.07 131.13 146.92 131.23 C 147.78 131.32 148.55 130.70 148.65 129.84 L 148.75 128.87 C 148.85 128.01 148.23 127.24 147.37 127.15 C 146.51 127.05 145.74 127.67 145.65 128.53 Z M 145.54 129.50 L 145.43 130.52 C 145.33 131.38 145.94 132.15 146.80 132.25 C 147.66 132.35 148.43 131.73 148.53 130.88 L 148.65 129.85 C 148.74 129.00 148.13 128.22 147.27 128.12 C 146.42 128.02 145.64 128.64 145.54 129.50 Z M 145.43 130.52 L 145.30 131.58 C 145.21 132.44 145.82 133.22 146.68 133.31 C 147.53 133.41 148.31 132.80 148.41 131.94 L 148.53 130.88 C 148.63 130.02 148.01 129.24 147.15 129.15 C 146.30 129.05 145.52 129.66 145.43 130.52 Z M 145.30 131.59 L 145.20 132.56 C 145.10 133.41 145.72 134.19 146.57 134.28 C 147.43 134.38 148.20 133.76 148.30 132.90 L 148.41 131.94 C 148.50 131.08 147.88 130.31 147.03 130.21 C 146.17 130.12 145.40 130.73 145.30 131.59 Z M 145.19 132.56 L 145.09 133.53 C 145.00 134.39 145.62 135.16 146.48 135.25 C 147.33 135.34 148.10 134.72 148.20 133.86 L 148.30 132.90 C 148.39 132.04 147.77 131.27 146.91 131.18 C 146.06 131.08 145.29 131.71 145.19 132.56 Z M 145.09 133.53 L 144.99 134.53 C 144.90 135.38 145.52 136.15 146.38 136.24 C 147.24 136.33 148.00 135.71 148.09 134.85 L 148.20 133.86 C 148.29 133.00 147.66 132.23 146.81 132.14 C 145.95 132.05 145.18 132.68 145.09 133.53 Z M 144.99 134.53 L 144.88 135.54 C 144.80 136.40 145.42 137.17 146.28 137.26 C 147.14 137.34 147.90 136.72 147.99 135.86 L 148.09 134.85 C 148.18 133.99 147.56 133.22 146.70 133.13 C 145.84 133.05 145.07 133.67 144.99 134.53 Z M 144.88 135.55 L 144.78 136.58 C 144.69 137.44 145.32 138.21 146.18 138.29 C 147.03 138.38 147.80 137.75 147.89 136.90 L 147.99 135.86 C 148.08 135.00 147.45 134.23 146.59 134.15 C 145.73 134.06 144.97 134.69 144.88 135.55 Z M 144.78 136.58 L 144.68 137.54 C 144.60 138.40 145.22 139.17 146.08 139.25 C 146.94 139.34 147.70 138.71 147.79 137.85 L 147.89 136.89 C 147.97 136.04 147.35 135.27 146.49 135.19 C 145.63 135.10 144.86 135.73 144.78 136.58 Z M 144.68 137.54 L 144.59 138.50 C 144.50 139.36 145.13 140.12 145.99 140.21 C 146.85 140.29 147.61 139.67 147.70 138.81 L 147.79 137.85 C 147.88 136.99 147.25 136.23 146.39 136.15 C 145.53 136.06 144.77 136.69 144.68 137.54 Z M 144.59 138.50 L 144.49 139.48 C 144.41 140.34 145.03 141.10 145.89 141.19 C 146.75 141.27 147.51 140.65 147.60 139.79 L 147.70 138.81 C 147.78 137.95 147.15 137.19 146.30 137.10 C 145.44 137.02 144.67 137.64 144.59 138.50 Z M 144.49 139.48 L 144.39 140.49 C 144.31 141.34 144.94 142.11 145.79 142.19 C 146.65 142.28 147.42 141.65 147.50 140.79 L 147.60 139.79 C 147.68 138.93 147.06 138.17 146.20 138.08 C 145.34 138.00 144.58 138.62 144.49 139.48 Z M 144.39 140.49 L 144.29 141.52 C 144.21 142.38 144.83 143.14 145.69 143.22 C 146.55 143.31 147.31 142.68 147.40 141.82 L 147.50 140.79 C 147.58 139.93 146.96 139.17 146.10 139.09 C 145.24 139.00 144.48 139.63 144.39 140.49 Z M 144.29 141.52 L 144.19 142.56 C 144.10 143.42 144.73 144.18 145.59 144.27 C 146.45 144.35 147.21 143.72 147.30 142.87 L 147.40 141.82 C 147.48 140.97 146.86 140.20 146.00 140.12 C 145.14 140.03 144.38 140.66 144.29 141.52 Z M 144.19 142.56 L 144.09 143.52 C 144.01 144.38 144.64 145.14 145.49 145.23 C 146.35 145.31 147.12 144.68 147.20 143.83 L 147.30 142.87 C 147.38 142.01 146.75 141.24 145.90 141.16 C 145.04 141.08 144.27 141.70 144.19 142.56 Z M 144.09 143.52 L 144.00 144.50 C 143.91 145.35 144.54 146.12 145.39 146.21 C 146.25 146.29 147.02 145.66 147.10 144.81 L 147.20 143.83 C 147.29 142.97 146.66 142.20 145.80 142.12 C 144.94 142.03 144.18 142.66 144.09 143.52 Z M 144.00 144.49 L 143.90 145.49 C 143.81 146.35 144.43 147.11 145.29 147.20 C 146.15 147.29 146.92 146.66 147.00 145.80 L 147.10 144.81 C 147.19 143.95 146.56 143.19 145.71 143.10 C 144.85 143.01 144.08 143.64 144.00 144.49 Z M 143.90 145.49 L 143.79 146.49 C 143.70 147.35 144.33 148.12 145.19 148.21 C 146.04 148.29 146.81 147.67 146.90 146.81 L 147.00 145.81 C 147.09 144.95 146.47 144.18 145.61 144.09 C 144.75 144.01 143.98 144.63 143.90 145.49 Z M 143.79 146.49 L 143.69 147.50 C 143.60 148.36 144.22 149.13 145.08 149.22 C 145.93 149.31 146.70 148.69 146.79 147.83 L 146.90 146.82 C 146.99 145.96 146.37 145.19 145.51 145.10 C 144.65 145.01 143.88 145.63 143.79 146.49 Z M 143.69 147.50 L 143.58 148.51 C 143.48 149.37 144.10 150.14 144.96 150.23 C 145.82 150.33 146.59 149.71 146.68 148.85 L 146.79 147.83 C 146.88 146.98 146.26 146.21 145.41 146.11 C 144.55 146.02 143.78 146.64 143.69 147.50 Z M 143.58 148.51 L 143.47 149.51 C 143.37 150.37 143.99 151.14 144.84 151.24 C 145.70 151.33 146.47 150.71 146.57 149.86 L 146.68 148.86 C 146.78 148.00 146.16 147.23 145.30 147.13 C 144.45 147.03 143.67 147.65 143.58 148.51 Z M 143.47 149.51 L 143.35 150.50 C 143.25 151.36 143.87 152.13 144.72 152.23 C 145.58 152.33 146.35 151.71 146.45 150.86 L 146.57 149.86 C 146.67 149.01 146.05 148.23 145.20 148.13 C 144.34 148.03 143.56 148.65 143.47 149.51 Z M 143.35 150.49 L 143.23 151.49 C 143.13 152.34 143.75 153.12 144.60 153.22 C 145.46 153.32 146.23 152.71 146.34 151.85 L 146.45 150.86 C 146.55 150.00 145.94 149.23 145.08 149.13 C 144.23 149.03 143.45 149.64 143.35 150.49 Z M 143.24 151.48 L 143.12 152.47 C 143.01 153.33 143.62 154.11 144.48 154.21 C 145.34 154.31 146.11 153.70 146.22 152.85 L 146.34 151.86 C 146.44 151.00 145.83 150.22 144.97 150.12 C 144.12 150.02 143.34 150.63 143.24 151.48 Z M 143.12 152.47 L 143.00 153.46 C 142.89 154.32 143.50 155.10 144.36 155.20 C 145.21 155.31 145.99 154.70 146.10 153.84 L 146.22 152.85 C 146.32 151.99 145.71 151.21 144.85 151.11 C 144.00 151.01 143.22 151.62 143.12 152.47 Z M 143.00 153.46 L 142.88 154.46 C 142.77 155.31 143.38 156.09 144.24 156.20 C 145.09 156.30 145.87 155.69 145.97 154.83 L 146.10 153.84 C 146.20 152.99 145.59 152.21 144.74 152.10 C 143.88 152.00 143.10 152.61 143.00 153.46 Z M 142.88 154.46 L 142.75 155.45 C 142.65 156.31 143.26 157.08 144.11 157.19 C 144.97 157.29 145.75 156.68 145.85 155.83 L 145.97 154.84 C 146.08 153.98 145.47 153.20 144.61 153.10 C 143.76 152.99 142.98 153.60 142.88 154.46 Z M 142.75 155.45 L 142.63 156.43 C 142.53 157.29 143.14 158.07 143.99 158.17 C 144.85 158.27 145.63 157.67 145.73 156.81 L 145.85 155.83 C 145.96 154.97 145.35 154.19 144.49 154.09 C 143.64 153.98 142.86 154.59 142.75 155.45 Z M 142.63 156.43 L 142.51 157.42 C 142.41 158.27 143.02 159.05 143.87 159.15 C 144.73 159.26 145.51 158.65 145.61 157.79 L 145.73 156.81 C 145.84 155.95 145.23 155.18 144.37 155.07 C 143.52 154.97 142.74 155.58 142.63 156.43 Z M 142.51 157.42 L 142.39 158.40 C 142.29 159.26 142.90 160.04 143.75 160.14 C 144.61 160.25 145.39 159.64 145.49 158.78 L 145.61 157.80 C 145.72 156.94 145.11 156.16 144.25 156.06 C 143.40 155.95 142.62 156.56 142.51 157.42 Z M 142.39 158.40 L 142.27 159.40 C 142.16 160.25 142.77 161.03 143.63 161.14 C 144.48 161.24 145.26 160.63 145.37 159.78 L 145.49 158.78 C 145.60 157.93 144.99 157.15 144.13 157.04 C 143.28 156.94 142.50 157.55 142.39 158.40 Z M 142.27 159.39 L 142.15 160.39 C 142.04 161.25 142.65 162.03 143.50 162.13 C 144.36 162.24 145.14 161.63 145.25 160.78 L 145.37 159.78 C 145.48 158.92 144.87 158.14 144.01 158.04 C 143.16 157.93 142.38 158.54 142.27 159.39 Z M 142.15 160.39 L 142.02 161.39 C 141.91 162.25 142.52 163.03 143.38 163.14 C 144.23 163.24 145.01 162.64 145.12 161.78 L 145.24 160.78 C 145.35 159.92 144.75 159.14 143.89 159.04 C 143.03 158.93 142.25 159.53 142.15 160.39 Z M 142.02 161.39 L 141.90 162.38 C 141.79 163.24 142.39 164.02 143.25 164.13 C 144.10 164.23 144.89 163.63 144.99 162.77 L 145.12 161.78 C 145.23 160.93 144.62 160.15 143.77 160.04 C 142.91 159.93 142.13 160.53 142.02 161.39 Z M 141.90 162.38 L 141.77 163.35 C 141.66 164.20 142.27 164.99 143.12 165.10 C 143.98 165.21 144.76 164.60 144.87 163.75 L 144.99 162.78 C 145.10 161.92 144.50 161.14 143.64 161.03 C 142.79 160.92 142.01 161.52 141.90 162.38 Z M 141.77 163.35 L 141.65 164.33 C 141.53 165.18 142.14 165.96 142.99 166.07 C 143.85 166.19 144.63 165.58 144.74 164.73 L 144.87 163.75 C 144.98 162.89 144.38 162.11 143.52 162.00 C 142.67 161.89 141.88 162.49 141.77 163.35 Z M 141.65 164.32 L 141.52 165.31 C 141.41 166.16 142.01 166.95 142.86 167.06 C 143.72 167.17 144.50 166.57 144.61 165.71 L 144.74 164.73 C 144.85 163.87 144.25 163.09 143.40 162.98 C 142.54 162.87 141.76 163.47 141.65 164.32 Z M 141.52 165.31 L 141.39 166.30 C 141.28 167.16 141.88 167.94 142.73 168.05 C 143.59 168.16 144.37 167.56 144.48 166.71 L 144.61 165.71 C 144.73 164.86 144.12 164.08 143.27 163.96 C 142.41 163.85 141.63 164.45 141.52 165.31 Z M 141.39 166.30 L 141.26 167.31 C 141.14 168.16 141.75 168.94 142.60 169.06 C 143.46 169.17 144.24 168.56 144.35 167.71 L 144.48 166.71 C 144.60 165.85 143.99 165.07 143.14 164.96 C 142.28 164.85 141.50 165.45 141.39 166.30 Z M 141.26 167.31 L 141.12 168.32 C 141.01 169.17 141.62 169.96 142.47 170.07 C 143.33 170.18 144.11 169.58 144.22 168.72 L 144.35 167.71 C 144.46 166.85 143.86 166.07 143.01 165.96 C 142.15 165.85 141.37 166.45 141.26 167.31 Z M 141.12 168.32 L 140.99 169.33 C 140.88 170.18 141.49 170.97 142.34 171.08 C 143.20 171.19 143.98 170.58 144.09 169.73 L 144.22 168.72 C 144.33 167.87 143.73 167.08 142.87 166.97 C 142.02 166.86 141.24 167.46 141.12 168.32 Z M 140.99 169.33 L 140.86 170.32 C 140.75 171.18 141.36 171.96 142.21 172.07 C 143.07 172.18 143.85 171.58 143.96 170.72 L 144.09 169.73 C 144.20 168.87 143.60 168.09 142.74 167.98 C 141.89 167.87 141.10 168.47 140.99 169.33 Z M 140.86 170.33 L 140.74 171.33 C 140.63 172.18 141.23 172.96 142.09 173.07 C 142.94 173.18 143.72 172.58 143.83 171.72 L 143.96 170.72 C 144.07 169.87 143.47 169.09 142.61 168.98 C 141.76 168.87 140.97 169.47 140.86 170.33 Z M 140.74 171.33 L 140.61 172.33 C 140.50 173.18 141.10 173.97 141.96 174.08 C 142.81 174.19 143.60 173.58 143.70 172.72 L 143.83 171.72 C 143.94 170.87 143.34 170.09 142.48 169.98 C 141.63 169.87 140.84 170.47 140.74 171.33 Z M 140.61 172.33 L 140.48 173.33 C 140.37 174.19 140.98 174.97 141.83 175.08 C 142.69 175.18 143.47 174.58 143.58 173.72 L 143.70 172.72 C 143.81 171.87 143.21 171.09 142.35 170.98 C 141.50 170.87 140.72 171.48 140.61 172.33 Z M 140.48 173.33 L 140.36 174.32 C 140.25 175.18 140.85 175.96 141.71 176.07 C 142.57 176.18 143.35 175.57 143.45 174.71 L 143.58 173.72 C 143.69 172.87 143.08 172.09 142.22 171.98 C 141.37 171.87 140.59 172.48 140.48 173.33 Z M 140.36 174.33 L 140.23 175.31 C 140.13 176.16 140.73 176.94 141.59 177.05 C 142.44 177.16 143.22 176.55 143.33 175.69 L 143.45 174.71 C 143.56 173.86 142.95 173.08 142.10 172.97 C 141.24 172.86 140.46 173.47 140.36 174.33 Z M 140.23 175.31 L 140.11 176.29 C 140.01 177.15 140.61 177.93 141.47 178.03 C 142.33 178.14 143.10 177.53 143.21 176.67 L 143.33 175.69 C 143.44 174.84 142.83 174.06 141.97 173.95 C 141.12 173.85 140.34 174.45 140.23 175.31 Z M 140.11 176.29 L 139.99 177.32 C 139.88 178.18 140.49 178.96 141.35 179.06 C 142.20 179.17 142.98 178.56 143.09 177.70 L 143.21 176.67 C 143.32 175.82 142.71 175.04 141.85 174.93 C 140.99 174.83 140.22 175.44 140.11 176.29 Z M 139.99 177.33 L 139.86 178.34 C 139.76 179.19 140.37 179.97 141.23 180.07 C 142.08 180.18 142.86 179.57 142.96 178.71 L 143.09 177.70 C 143.19 176.84 142.58 176.07 141.72 175.96 C 140.87 175.86 140.09 176.47 139.99 177.33 Z M 139.86 178.34 L 139.74 179.34 C 139.64 180.19 140.25 180.97 141.11 181.07 C 141.97 181.17 142.74 180.56 142.84 179.71 L 142.96 178.71 C 143.07 177.85 142.45 177.08 141.60 176.97 C 140.74 176.87 139.97 177.48 139.86 178.34 Z M 139.74 179.34 L 139.63 180.32 C 139.53 181.18 140.14 181.96 141.00 182.06 C 141.85 182.16 142.63 181.54 142.73 180.69 L 142.85 179.70 C 142.95 178.85 142.33 178.07 141.48 177.97 C 140.62 177.87 139.84 178.48 139.74 179.34 Z M 139.63 180.33 L 139.51 181.30 C 139.42 182.16 140.03 182.93 140.89 183.03 C 141.74 183.13 142.52 182.52 142.62 181.66 L 142.73 180.69 C 142.83 179.83 142.22 179.05 141.36 178.95 C 140.50 178.86 139.73 179.47 139.63 180.33 Z M 139.51 181.30 L 139.40 182.27 C 139.31 183.12 139.92 183.90 140.78 184.00 C 141.63 184.10 142.41 183.48 142.51 182.62 L 142.62 181.66 C 142.72 180.80 142.10 180.03 141.24 179.93 C 140.39 179.83 139.61 180.44 139.51 181.30 Z M 139.40 182.27 L 139.29 183.26 C 139.19 184.12 139.81 184.89 140.67 184.99 C 141.52 185.09 142.30 184.47 142.39 183.62 L 142.51 182.62 C 142.60 181.77 141.99 180.99 141.13 180.90 C 140.27 180.80 139.50 181.41 139.40 182.27 Z M 139.29 183.27 L 139.18 184.28 C 139.08 185.14 139.70 185.91 140.55 186.01 C 141.41 186.10 142.18 185.49 142.28 184.63 L 142.39 183.61 C 142.49 182.76 141.87 181.98 141.02 181.89 C 140.16 181.79 139.39 182.41 139.29 183.27 Z M 139.18 184.28 L 139.06 185.29 C 138.97 186.15 139.58 186.92 140.44 187.02 C 141.30 187.11 142.07 186.50 142.17 185.64 L 142.28 184.63 C 142.37 183.77 141.76 183.00 140.90 182.90 C 140.04 182.81 139.27 183.43 139.18 184.28 Z M 139.06 185.29 L 138.95 186.29 C 138.86 187.15 139.47 187.92 140.33 188.02 C 141.19 188.11 141.96 187.49 142.06 186.64 L 142.17 185.64 C 142.26 184.78 141.64 184.01 140.79 183.91 C 139.93 183.82 139.16 184.44 139.06 185.29 Z M 138.95 186.29 L 138.84 187.28 C 138.75 188.14 139.36 188.91 140.22 189.00 C 141.08 189.10 141.85 188.48 141.95 187.62 L 142.06 186.64 C 142.15 185.78 141.53 185.01 140.68 184.91 C 139.82 184.82 139.05 185.43 138.95 186.29 Z M 138.84 187.28 L 138.73 188.25 C 138.64 189.11 139.25 189.88 140.11 189.97 C 140.97 190.07 141.74 189.45 141.84 188.60 L 141.95 187.62 C 142.04 186.77 141.42 186.00 140.57 185.90 C 139.71 185.80 138.94 186.42 138.84 187.28 Z M 138.73 188.25 L 138.62 189.24 C 138.53 190.09 139.14 190.87 140.00 190.96 C 140.85 191.06 141.63 190.44 141.72 189.59 L 141.84 188.60 C 141.93 187.74 141.32 186.97 140.46 186.87 C 139.60 186.77 138.83 187.39 138.73 188.25 Z M 138.62 189.23 L 138.50 190.30 C 138.40 191.16 139.02 191.93 139.87 192.03 C 140.73 192.13 141.50 191.51 141.60 190.66 L 141.72 189.59 C 141.82 188.73 141.21 187.96 140.35 187.86 C 139.49 187.76 138.72 188.38 138.62 189.23 Z M 138.50 190.30 L 138.38 191.34 C 138.28 192.19 138.90 192.97 139.75 193.07 C 140.61 193.16 141.38 192.55 141.48 191.69 L 141.60 190.66 C 141.70 189.80 141.09 189.03 140.23 188.93 C 139.37 188.83 138.60 189.44 138.50 190.30 Z M 138.38 191.34 L 138.27 192.34 C 138.17 193.19 138.78 193.97 139.64 194.07 C 140.50 194.16 141.27 193.55 141.37 192.69 L 141.48 191.69 C 141.58 190.84 140.97 190.06 140.11 189.96 C 139.25 189.87 138.48 190.48 138.38 191.34 Z M 138.27 192.34 L 138.16 193.29 C 138.06 194.15 138.67 194.92 139.53 195.02 C 140.39 195.12 141.16 194.51 141.26 193.65 L 141.37 192.69 C 141.47 191.83 140.85 191.06 139.99 190.96 C 139.14 190.87 138.36 191.48 138.27 192.34 Z M 138.16 193.30 L 138.05 194.21 C 137.96 195.06 138.57 195.84 139.43 195.93 C 140.29 196.03 141.06 195.41 141.16 194.56 L 141.26 193.65 C 141.36 192.79 140.74 192.02 139.88 191.92 C 139.03 191.82 138.25 192.44 138.16 193.30 Z M 138.05 194.21 L 137.94 195.26 C 137.85 196.11 138.46 196.89 139.32 196.98 C 140.18 197.07 140.95 196.45 141.04 195.60 L 141.16 194.55 C 141.25 193.69 140.63 192.92 139.78 192.83 C 138.92 192.74 138.15 193.35 138.05 194.21 Z M 137.94 195.26 L 137.83 196.29 C 137.74 197.15 138.36 197.92 139.22 198.01 C 140.08 198.10 140.85 197.48 140.94 196.62 L 141.04 195.59 C 141.13 194.73 140.51 193.96 139.65 193.87 C 138.80 193.78 138.03 194.41 137.94 195.26 Z M 137.83 196.30 L 137.73 197.28 C 137.65 198.13 138.28 198.90 139.13 198.98 C 139.99 199.07 140.76 198.44 140.84 197.58 L 140.94 196.61 C 141.02 195.75 140.40 194.99 139.54 194.90 C 138.68 194.82 137.91 195.44 137.83 196.30 Z M 137.73 197.29 L 137.65 198.23 C 137.57 199.08 138.20 199.84 139.06 199.92 C 139.92 200.00 140.68 199.37 140.76 198.51 L 140.84 197.57 C 140.92 196.71 140.29 195.95 139.43 195.87 C 138.57 195.80 137.81 196.43 137.73 197.29 Z M 137.65 198.24 L 137.57 199.18 C 137.50 200.04 138.13 200.79 138.99 200.86 C 139.85 200.93 140.61 200.29 140.68 199.44 L 140.76 198.50 C 140.83 197.64 140.19 196.88 139.33 196.81 C 138.47 196.74 137.72 197.38 137.65 198.24 Z M 137.57 199.19 L 137.50 200.15 C 137.43 201.01 138.08 201.75 138.94 201.82 C 139.80 201.88 140.55 201.23 140.61 200.37 L 140.68 199.42 C 140.74 198.56 140.10 197.81 139.24 197.75 C 138.38 197.69 137.63 198.33 137.57 199.19 Z M 137.50 200.17 L 137.44 201.15 C 137.39 202.01 138.04 202.75 138.90 202.80 C 139.76 202.85 140.50 202.20 140.55 201.34 L 140.61 200.35 C 140.66 199.49 140.01 198.75 139.15 198.70 C 138.29 198.65 137.55 199.31 137.50 200.17 Z M 137.44 201.17 L 137.39 202.21 C 137.35 203.07 138.02 203.80 138.88 203.84 C 139.74 203.87 140.47 203.21 140.51 202.35 L 140.55 201.31 C 140.59 200.45 139.93 199.72 139.06 199.68 C 138.20 199.65 137.47 200.31 137.44 201.17 Z M 137.39 202.23 L 137.36 203.26 C 137.33 204.12 138.01 204.84 138.87 204.86 C 139.73 204.89 140.45 204.21 140.48 203.35 L 140.51 202.32 C 140.53 201.46 139.86 200.74 138.99 200.72 C 138.13 200.69 137.41 201.37 137.39 202.23 Z M 137.36 203.28 L 137.34 204.26 C 137.33 205.12 138.01 205.83 138.87 205.85 C 139.74 205.86 140.45 205.18 140.46 204.32 L 140.48 203.33 C 140.49 202.47 139.81 201.76 138.95 201.74 C 138.08 201.73 137.37 202.42 137.36 203.28 Z M 137.34 204.27 L 137.33 205.29 C 137.32 206.15 138.01 206.85 138.88 206.86 C 139.74 206.87 140.44 206.18 140.45 205.32 L 140.46 204.30 C 140.47 203.44 139.78 202.74 138.92 202.73 C 138.05 202.72 137.35 203.41 137.34 204.27 Z M 137.33 205.30 L 137.33 206.32 C 137.32 207.18 138.02 207.88 138.88 207.88 C 139.74 207.89 140.45 207.19 140.45 206.33 L 140.45 205.31 C 140.46 204.45 139.76 203.74 138.90 203.74 C 138.04 203.74 137.33 204.43 137.33 205.30 Z M 137.33 206.32 L 137.33 207.33 C 137.32 208.19 138.02 208.89 138.88 208.89 C 139.75 208.89 140.45 208.20 140.45 207.33 L 140.45 206.33 C 140.45 205.46 139.75 204.76 138.89 204.76 C 138.03 204.76 137.33 205.46 137.33 206.32 Z M 137.33 207.33 L 137.33 208.38 C 137.33 209.24 138.02 209.94 138.89 209.94 C 139.75 209.94 140.45 209.24 140.45 208.38 L 140.45 207.33 C 140.45 206.47 139.75 205.77 138.89 205.77 C 138.02 205.77 137.33 206.47 137.33 207.33 Z M 137.33 208.38 L 137.33 209.43 C 137.33 210.30 138.02 211.00 138.89 211.00 C 139.75 211.00 140.45 210.30 140.45 209.43 L 140.45 208.38 C 140.45 207.52 139.75 206.82 138.89 206.82 C 138.02 206.82 137.33 207.52 137.33 208.38 Z M 137.33 209.43 L 137.33 210.44 C 137.33 211.30 138.02 212.00 138.89 212.00 C 139.75 212.00 140.45 211.30 140.45 210.44 L 140.45 209.43 C 140.45 208.57 139.75 207.87 138.89 207.87 C 138.02 207.87 137.33 208.57 137.33 209.43 Z M 137.33 210.44 L 137.33 211.39 C 137.33 212.25 138.02 212.95 138.89 212.95 C 139.75 212.95 140.45 212.25 140.45 211.39 L 140.45 210.44 C 140.45 209.57 139.75 208.88 138.89 208.88 C 138.02 208.88 137.33 209.57 137.33 210.44 Z M 137.33 211.39 L 137.33 212.33 C 137.33 213.19 138.02 213.89 138.89 213.89 C 139.75 213.89 140.45 213.19 140.45 212.33 L 140.45 211.39 C 140.45 210.53 139.75 209.83 138.89 209.83 C 138.02 209.83 137.33 210.53 137.33 211.39 Z M 137.33 212.32 L 137.32 213.31 C 137.32 214.18 138.01 214.88 138.88 214.88 C 139.74 214.88 140.44 214.19 140.44 213.33 L 140.45 212.34 C 140.45 211.47 139.76 210.77 138.89 210.77 C 138.03 210.76 137.33 211.46 137.33 212.32 Z M 137.32 213.29 L 137.30 214.27 C 137.28 215.13 137.97 215.84 138.83 215.86 C 139.69 215.88 140.40 215.19 140.42 214.33 L 140.44 213.35 C 140.46 212.49 139.78 211.78 138.91 211.76 C 138.05 211.74 137.34 212.43 137.32 213.29 Z M 137.30 214.22 L 137.25 215.23 C 137.21 216.09 137.88 216.82 138.74 216.86 C 139.60 216.90 140.33 216.24 140.37 215.38 L 140.42 214.38 C 140.46 213.51 139.80 212.78 138.94 212.74 C 138.08 212.70 137.34 213.36 137.30 214.22 Z M 137.26 215.17 L 137.17 216.18 C 137.10 217.04 137.74 217.80 138.60 217.87 C 139.46 217.94 140.21 217.30 140.28 216.44 L 140.37 215.43 C 140.44 214.57 139.80 213.82 138.94 213.75 C 138.08 213.68 137.33 214.31 137.26 215.17 Z M 137.18 216.12 L 137.05 217.14 C 136.95 217.99 137.56 218.77 138.41 218.88 C 139.27 218.98 140.05 218.37 140.15 217.52 L 140.28 216.51 C 140.38 215.65 139.77 214.87 138.92 214.77 C 138.06 214.66 137.28 215.27 137.18 216.12 Z M 137.07 217.06 L 136.89 218.07 C 136.75 218.92 137.32 219.73 138.17 219.88 C 139.02 220.02 139.83 219.45 139.97 218.60 L 140.14 217.59 C 140.29 216.74 139.72 215.93 138.87 215.79 C 138.02 215.64 137.21 216.21 137.07 217.06 Z M 136.91 217.98 L 136.69 218.95 C 136.49 219.79 137.01 220.63 137.85 220.82 C 138.69 221.02 139.53 220.50 139.73 219.66 L 139.95 218.69 C 140.15 217.85 139.63 217.01 138.79 216.82 C 137.95 216.62 137.11 217.14 136.91 217.98 Z M 136.72 218.81 L 136.41 219.77 C 136.13 220.59 136.58 221.48 137.40 221.75 C 138.22 222.02 139.10 221.57 139.37 220.75 L 139.69 219.79 C 139.96 218.97 139.51 218.09 138.70 217.82 C 137.88 217.55 136.99 217.99 136.72 218.81 Z M 136.47 219.61 L 136.04 220.55 C 135.68 221.33 136.02 222.26 136.81 222.62 C 137.59 222.98 138.52 222.63 138.88 221.85 L 139.31 220.91 C 139.67 220.13 139.32 219.20 138.54 218.84 C 137.75 218.48 136.83 218.83 136.47 219.61 Z M 136.10 220.42 L 135.62 221.26 C 135.19 222.01 135.45 222.97 136.20 223.40 C 136.95 223.83 137.90 223.57 138.33 222.82 L 138.81 221.98 C 139.24 221.23 138.98 220.27 138.23 219.85 C 137.49 219.42 136.53 219.67 136.10 220.42 Z M 135.66 221.20 L 135.20 221.92 C 134.74 222.65 134.95 223.61 135.68 224.08 C 136.41 224.54 137.37 224.32 137.83 223.60 L 138.29 222.88 C 138.75 222.15 138.54 221.19 137.81 220.72 C 137.09 220.26 136.12 220.48 135.66 221.20 Z"
      fill="black"
      fill-rule="nonzero" /><path d="M 153.71 132.88 L 153.63 131.83 C 153.57 130.97 152.83 130.32 151.97 130.38 C 151.11 130.44 150.46 131.19 150.52 132.05 L 150.59 133.10 C 150.65 133.96 151.40 134.61 152.26 134.55 C 153.12 134.49 153.77 133.74 153.71 132.88 Z M 153.63 132.06 L 153.71 131.07 C 153.77 130.21 153.12 129.46 152.26 129.40 C 151.40 129.34 150.66 129.98 150.59 130.84 L 150.52 131.83 C 150.46 132.69 151.10 133.44 151.96 133.50 C 152.82 133.56 153.57 132.92 153.63 132.06 Z M 153.59 131.57 L 153.95 130.71 C 154.29 129.92 153.92 129.00 153.12 128.66 C 152.33 128.33 151.41 128.70 151.08 129.49 L 150.71 130.35 C 150.38 131.14 150.75 132.06 151.54 132.39 C 152.33 132.73 153.25 132.36 153.59 131.57 Z M 153.59 131.23 L 154.23 130.63 C 154.85 130.03 154.88 129.05 154.29 128.42 C 153.70 127.79 152.71 127.77 152.08 128.36 L 151.44 128.97 C 150.81 129.56 150.79 130.55 151.38 131.17 C 151.97 131.80 152.96 131.83 153.59 131.23 Z M 153.88 130.87 L 154.76 130.41 C 155.53 130.01 155.82 129.07 155.42 128.30 C 155.02 127.54 154.08 127.25 153.31 127.65 L 152.43 128.11 C 151.67 128.51 151.37 129.45 151.77 130.22 C 152.17 130.98 153.12 131.28 153.88 130.87 Z M 154.50 130.52 L 155.53 130.20 C 156.35 129.95 156.81 129.07 156.55 128.25 C 156.30 127.42 155.42 126.96 154.60 127.22 L 153.57 127.54 C 152.75 127.79 152.29 128.67 152.55 129.49 C 152.80 130.32 153.68 130.78 154.50 130.52 Z M 155.32 130.25 L 156.29 130.09 C 157.14 129.94 157.71 129.14 157.57 128.29 C 157.43 127.44 156.62 126.86 155.77 127.01 L 154.80 127.17 C 153.95 127.32 153.38 128.12 153.52 128.97 C 153.67 129.82 154.47 130.39 155.32 130.25 Z M 156.09 130.11 L 157.02 130.07 C 157.88 130.04 158.55 129.32 158.52 128.46 C 158.49 127.59 157.76 126.92 156.90 126.95 L 155.97 126.99 C 155.11 127.02 154.44 127.74 154.47 128.61 C 154.50 129.47 155.23 130.14 156.09 130.11 Z M 156.79 130.07 L 157.77 130.17 C 158.63 130.26 159.39 129.64 159.49 128.78 C 159.58 127.92 158.96 127.16 158.10 127.06 L 157.12 126.96 C 156.27 126.87 155.50 127.49 155.41 128.35 C 155.32 129.20 155.94 129.97 156.79 130.07 Z M 157.55 130.13 L 158.59 130.39 C 159.43 130.61 160.27 130.10 160.49 129.27 C 160.70 128.43 160.20 127.58 159.36 127.37 L 158.32 127.10 C 157.48 126.89 156.63 127.40 156.42 128.23 C 156.21 129.07 156.71 129.92 157.55 130.13 Z M 158.41 130.34 L 159.37 130.71 C 160.17 131.02 161.08 130.62 161.39 129.81 C 161.70 129.01 161.30 128.11 160.49 127.79 L 159.54 127.43 C 158.73 127.11 157.83 127.51 157.52 128.32 C 157.21 129.12 157.61 130.03 158.41 130.34 Z M 159.25 130.66 L 160.14 131.09 C 160.92 131.46 161.85 131.13 162.23 130.35 C 162.60 129.58 162.27 128.64 161.50 128.27 L 160.61 127.84 C 159.83 127.47 158.90 127.80 158.52 128.57 C 158.15 129.35 158.48 130.28 159.25 130.66 Z M 160.07 131.05 L 160.97 131.54 C 161.73 131.96 162.68 131.68 163.09 130.92 C 163.50 130.17 163.23 129.22 162.47 128.80 L 161.57 128.31 C 160.81 127.89 159.86 128.17 159.45 128.93 C 159.04 129.68 159.31 130.63 160.07 131.05 Z M 160.92 131.51 L 161.81 132.05 C 162.55 132.49 163.51 132.25 163.95 131.51 C 164.39 130.77 164.15 129.81 163.42 129.37 L 162.53 128.83 C 161.79 128.39 160.83 128.63 160.38 129.37 C 159.94 130.11 160.18 131.07 160.92 131.51 Z M 161.77 132.02 L 162.62 132.57 C 163.34 133.04 164.31 132.83 164.78 132.10 C 165.24 131.38 165.03 130.41 164.31 129.94 L 163.46 129.40 C 162.73 128.93 161.77 129.14 161.30 129.86 C 160.83 130.59 161.04 131.55 161.77 132.02 Z M 162.59 132.55 L 163.42 133.11 C 164.13 133.60 165.10 133.42 165.59 132.70 C 166.07 131.99 165.89 131.02 165.18 130.53 L 164.34 129.97 C 163.63 129.48 162.66 129.67 162.17 130.38 C 161.69 131.09 161.87 132.06 162.59 132.55 Z M 163.38 133.09 L 164.25 133.72 C 164.95 134.22 165.93 134.06 166.43 133.36 C 166.94 132.66 166.78 131.69 166.08 131.18 L 165.21 130.56 C 164.51 130.05 163.53 130.21 163.03 130.91 C 162.53 131.61 162.68 132.59 163.38 133.09 Z M 164.22 133.69 L 165.00 134.29 C 165.69 134.81 166.67 134.68 167.19 133.99 C 167.72 133.31 167.58 132.33 166.90 131.81 L 166.11 131.21 C 165.43 130.68 164.45 130.82 163.92 131.50 C 163.40 132.19 163.53 133.17 164.22 133.69 Z M 164.98 134.27 L 165.72 134.86 C 166.39 135.40 167.37 135.29 167.91 134.62 C 168.45 133.95 168.34 132.96 167.67 132.42 L 166.93 131.83 C 166.25 131.29 165.27 131.40 164.73 132.07 C 164.19 132.75 164.30 133.73 164.98 134.27 Z M 165.70 134.85 L 166.44 135.46 C 167.10 136.01 168.09 135.91 168.63 135.25 C 169.18 134.58 169.09 133.60 168.43 133.05 L 167.69 132.44 C 167.02 131.89 166.04 131.98 165.49 132.65 C 164.94 133.31 165.03 134.30 165.70 134.85 Z M 166.43 135.45 L 167.16 136.07 C 167.82 136.62 168.81 136.54 169.36 135.87 C 169.92 135.21 169.83 134.23 169.17 133.68 L 168.44 133.06 C 167.77 132.50 166.79 132.59 166.24 133.25 C 165.68 133.91 165.77 134.89 166.43 135.45 Z M 167.16 136.06 L 167.92 136.70 C 168.57 137.26 169.56 137.18 170.12 136.52 C 170.67 135.86 170.59 134.88 169.93 134.32 L 169.18 133.68 C 168.52 133.12 167.53 133.20 166.98 133.86 C 166.42 134.52 166.50 135.50 167.16 136.06 Z M 167.91 136.70 L 168.68 137.36 C 169.34 137.92 170.32 137.84 170.88 137.19 C 171.44 136.53 171.37 135.54 170.71 134.98 L 169.94 134.33 C 169.28 133.77 168.30 133.84 167.74 134.50 C 167.18 135.15 167.26 136.14 167.91 136.70 Z M 168.68 137.36 L 169.45 138.02 C 170.11 138.58 171.09 138.51 171.65 137.85 C 172.22 137.20 172.14 136.21 171.49 135.65 L 170.71 134.99 C 170.06 134.43 169.07 134.50 168.51 135.15 C 167.95 135.81 168.02 136.79 168.68 137.36 Z M 169.45 138.02 L 170.23 138.69 C 170.88 139.25 171.87 139.18 172.43 138.53 C 172.99 137.88 172.92 136.89 172.27 136.33 L 171.49 135.66 C 170.84 135.09 169.85 135.16 169.29 135.82 C 168.72 136.47 168.80 137.45 169.45 138.02 Z M 170.22 138.69 L 171.00 139.36 C 171.66 139.93 172.64 139.86 173.21 139.21 C 173.77 138.56 173.70 137.57 173.05 137.01 L 172.27 136.33 C 171.62 135.76 170.63 135.83 170.07 136.49 C 169.50 137.14 169.57 138.12 170.22 138.69 Z M 171.00 139.36 L 171.77 140.03 C 172.42 140.59 173.40 140.52 173.97 139.87 C 174.53 139.22 174.46 138.23 173.81 137.67 L 173.05 137.01 C 172.40 136.44 171.41 136.51 170.85 137.16 C 170.28 137.81 170.35 138.80 171.00 139.36 Z M 171.77 140.03 L 172.51 140.67 C 173.16 141.23 174.15 141.16 174.71 140.51 C 175.28 139.86 175.21 138.87 174.55 138.31 L 173.81 137.67 C 173.16 137.10 172.17 137.17 171.61 137.83 C 171.04 138.48 171.12 139.46 171.77 140.03 Z M 172.52 140.67 L 173.25 141.30 C 173.90 141.86 174.89 141.79 175.45 141.13 C 176.01 140.48 175.93 139.49 175.28 138.93 L 174.55 138.30 C 173.90 137.74 172.91 137.82 172.35 138.47 C 171.79 139.13 171.86 140.11 172.52 140.67 Z M 173.25 141.31 L 174.03 141.97 C 174.69 142.53 175.68 142.45 176.23 141.79 C 176.79 141.13 176.71 140.15 176.05 139.59 L 175.27 138.93 C 174.61 138.37 173.63 138.45 173.07 139.11 C 172.51 139.76 172.59 140.75 173.25 141.31 Z M 174.04 141.97 L 174.80 142.62 C 175.46 143.17 176.45 143.08 177.00 142.42 C 177.56 141.76 177.47 140.78 176.81 140.22 L 176.05 139.58 C 175.39 139.03 174.40 139.11 173.85 139.78 C 173.29 140.44 173.38 141.42 174.04 141.97 Z M 174.81 142.62 L 175.57 143.25 C 176.23 143.80 177.21 143.71 177.76 143.05 C 178.32 142.39 178.23 141.40 177.56 140.85 L 176.81 140.22 C 176.14 139.67 175.16 139.76 174.61 140.42 C 174.06 141.08 174.15 142.07 174.81 142.62 Z M 175.57 143.25 L 176.33 143.88 C 176.99 144.43 177.98 144.34 178.53 143.67 C 179.08 143.01 178.98 142.03 178.32 141.48 L 177.56 140.85 C 176.90 140.30 175.91 140.39 175.36 141.05 C 174.81 141.72 174.90 142.70 175.57 143.25 Z M 176.33 143.88 L 177.10 144.51 C 177.76 145.06 178.74 144.97 179.29 144.30 C 179.84 143.64 179.75 142.65 179.08 142.10 L 178.32 141.47 C 177.65 140.93 176.67 141.02 176.12 141.69 C 175.57 142.35 175.67 143.33 176.33 143.88 Z M 177.10 144.52 L 177.88 145.15 C 178.54 145.70 179.53 145.60 180.07 144.93 C 180.62 144.26 180.52 143.28 179.85 142.73 L 179.08 142.10 C 178.41 141.55 177.42 141.65 176.88 142.32 C 176.33 142.99 176.43 143.97 177.10 144.52 Z M 177.88 145.16 L 178.67 145.79 C 179.34 146.33 180.32 146.22 180.86 145.55 C 181.40 144.88 181.30 143.90 180.63 143.36 L 179.84 142.72 C 179.17 142.18 178.19 142.29 177.65 142.96 C 177.11 143.63 177.21 144.62 177.88 145.16 Z M 178.68 145.80 L 179.47 146.42 C 180.15 146.96 181.13 146.84 181.67 146.16 C 182.20 145.49 182.08 144.51 181.41 143.97 L 180.61 143.35 C 179.94 142.81 178.95 142.93 178.42 143.61 C 177.89 144.28 178.00 145.26 178.68 145.80 Z M 179.49 146.43 L 180.29 147.05 C 180.97 147.58 181.95 147.45 182.48 146.77 C 183.00 146.09 182.88 145.11 182.20 144.58 L 181.39 143.96 C 180.71 143.44 179.73 143.56 179.20 144.24 C 178.68 144.93 178.80 145.91 179.49 146.43 Z M 180.29 147.06 L 181.09 147.67 C 181.78 148.19 182.76 148.06 183.28 147.37 C 183.81 146.69 183.67 145.71 182.99 145.19 L 182.19 144.58 C 181.50 144.05 180.52 144.18 180.00 144.87 C 179.48 145.55 179.61 146.53 180.29 147.06 Z M 181.09 147.67 L 181.88 148.27 C 182.57 148.79 183.55 148.66 184.07 147.98 C 184.59 147.29 184.46 146.31 183.78 145.79 L 182.99 145.19 C 182.30 144.66 181.32 144.79 180.80 145.48 C 180.28 146.16 180.41 147.14 181.09 147.67 Z M 181.87 148.26 L 182.67 148.88 C 183.35 149.40 184.33 149.28 184.86 148.60 C 185.38 147.92 185.26 146.93 184.58 146.41 L 183.78 145.79 C 183.10 145.27 182.12 145.39 181.59 146.07 C 181.07 146.76 181.19 147.74 181.87 148.26 Z M 182.66 148.87 L 183.46 149.50 C 184.14 150.03 185.12 149.92 185.65 149.24 C 186.19 148.56 186.07 147.58 185.39 147.05 L 184.59 146.41 C 183.91 145.88 182.93 146.00 182.39 146.68 C 181.86 147.35 181.98 148.34 182.66 148.87 Z M 183.46 149.50 L 184.24 150.12 C 184.91 150.65 185.90 150.54 186.43 149.86 C 186.97 149.19 186.85 148.21 186.18 147.67 L 185.40 147.05 C 184.72 146.52 183.74 146.63 183.20 147.31 C 182.67 147.98 182.78 148.96 183.46 149.50 Z M 184.24 150.12 L 185.00 150.72 C 185.68 151.26 186.66 151.14 187.20 150.47 C 187.73 149.79 187.62 148.81 186.94 148.27 L 186.18 147.67 C 185.50 147.14 184.52 147.25 183.98 147.93 C 183.45 148.60 183.56 149.59 184.24 150.12 Z M 185.01 150.73 L 185.81 151.35 C 186.49 151.88 187.47 151.76 188.00 151.08 C 188.53 150.40 188.41 149.42 187.73 148.89 L 186.93 148.27 C 186.25 147.74 185.27 147.86 184.74 148.54 C 184.21 149.22 184.33 150.20 185.01 150.73 Z M 185.81 151.36 L 186.61 151.97 C 187.29 152.49 188.27 152.37 188.80 151.68 C 189.33 151.00 189.20 150.02 188.52 149.49 L 187.72 148.88 C 187.04 148.36 186.06 148.48 185.53 149.17 C 185.00 149.85 185.13 150.83 185.81 151.36 Z M 186.61 151.97 L 187.40 152.57 C 188.08 153.10 189.06 152.97 189.59 152.28 C 190.11 151.60 189.98 150.62 189.30 150.09 L 188.51 149.49 C 187.83 148.97 186.85 149.10 186.32 149.78 C 185.80 150.47 185.93 151.45 186.61 151.97 Z M 187.39 152.57 L 188.11 153.12 C 188.79 153.65 189.77 153.52 190.30 152.84 C 190.83 152.16 190.70 151.18 190.02 150.65 L 189.30 150.10 C 188.62 149.57 187.64 149.70 187.11 150.38 C 186.58 151.06 186.71 152.04 187.39 152.57 Z M 188.10 153.11 L 188.76 153.63 C 189.44 154.16 190.42 154.04 190.95 153.37 C 191.48 152.69 191.37 151.71 190.69 151.17 L 190.03 150.66 C 189.35 150.13 188.37 150.24 187.83 150.92 C 187.30 151.60 187.42 152.58 188.10 153.11 Z M 188.75 153.62 L 189.48 154.21 C 190.16 154.75 191.14 154.64 191.68 153.97 C 192.22 153.29 192.11 152.31 191.43 151.77 L 190.70 151.18 C 190.02 150.65 189.04 150.76 188.50 151.43 C 187.97 152.10 188.08 153.08 188.75 153.62 Z M 189.47 154.20 L 190.34 154.91 C 191.01 155.45 191.99 155.35 192.54 154.68 C 193.08 154.01 192.98 153.03 192.31 152.49 L 191.44 151.78 C 190.78 151.24 189.79 151.34 189.25 152.00 C 188.70 152.67 188.80 153.66 189.47 154.20 Z M 190.33 154.90 L 191.20 155.62 C 191.86 156.17 192.85 156.07 193.40 155.41 C 193.95 154.74 193.85 153.76 193.19 153.21 L 192.32 152.49 C 191.66 151.94 190.67 152.04 190.12 152.70 C 189.57 153.37 189.67 154.35 190.33 154.90 Z M 191.19 155.61 L 191.90 156.20 C 192.56 156.75 193.55 156.67 194.10 156.00 C 194.65 155.34 194.56 154.36 193.90 153.80 L 193.19 153.21 C 192.53 152.66 191.55 152.75 190.99 153.41 C 190.44 154.08 190.53 155.06 191.19 155.61 Z M 191.90 156.20 L 192.66 156.84 C 193.32 157.39 194.30 157.30 194.86 156.64 C 195.41 155.98 195.32 155.00 194.66 154.44 L 193.90 153.81 C 193.24 153.25 192.26 153.34 191.71 154.00 C 191.15 154.66 191.24 155.64 191.90 156.20 Z M 192.65 156.83 L 193.44 157.50 C 194.10 158.06 195.09 157.98 195.64 157.32 C 196.20 156.66 196.12 155.67 195.46 155.12 L 194.67 154.45 C 194.01 153.89 193.02 153.97 192.47 154.63 C 191.91 155.29 191.99 156.28 192.65 156.83 Z M 193.44 157.50 L 194.24 158.18 C 194.90 158.74 195.88 158.66 196.44 158.01 C 197.00 157.35 196.92 156.36 196.27 155.81 L 195.46 155.12 C 194.81 154.56 193.82 154.64 193.26 155.30 C 192.70 155.95 192.78 156.94 193.44 157.50 Z M 194.24 158.18 L 195.03 158.86 C 195.68 159.42 196.67 159.35 197.23 158.69 C 197.79 158.04 197.72 157.05 197.07 156.49 L 196.27 155.81 C 195.62 155.25 194.63 155.32 194.07 155.98 C 193.51 156.63 193.58 157.62 194.24 158.18 Z M 195.02 158.85 L 195.79 159.52 C 196.44 160.09 197.43 160.02 197.99 159.37 C 198.56 158.71 198.49 157.73 197.84 157.16 L 197.07 156.50 C 196.42 155.93 195.43 156.00 194.87 156.65 C 194.30 157.30 194.37 158.29 195.02 158.85 Z M 195.78 159.51 L 196.61 160.25 C 197.26 160.82 198.25 160.75 198.82 160.11 C 199.39 159.46 199.32 158.47 198.68 157.90 L 197.85 157.17 C 197.20 156.60 196.21 156.66 195.64 157.31 C 195.07 157.96 195.13 158.94 195.78 159.51 Z M 196.60 160.24 L 197.41 160.96 C 198.05 161.54 199.04 161.48 199.62 160.84 C 200.19 160.20 200.14 159.21 199.50 158.64 L 198.69 157.91 C 198.05 157.34 197.06 157.39 196.48 158.03 C 195.91 158.67 195.96 159.66 196.60 160.24 Z M 197.40 160.95 L 198.15 161.64 C 198.78 162.22 199.77 162.17 200.35 161.54 C 200.93 160.90 200.89 159.92 200.26 159.33 L 199.51 158.65 C 198.87 158.07 197.88 158.11 197.30 158.75 C 196.72 159.38 196.76 160.37 197.40 160.95 Z M 198.13 161.62 L 198.83 162.28 C 199.46 162.87 200.45 162.83 201.04 162.20 C 201.63 161.57 201.60 160.59 200.97 160.00 L 200.27 159.34 C 199.64 158.76 198.65 158.79 198.06 159.42 C 197.47 160.05 197.50 161.04 198.13 161.62 Z M 198.82 162.27 L 199.48 162.90 C 200.10 163.49 201.09 163.47 201.69 162.85 C 202.28 162.22 202.26 161.24 201.64 160.64 L 200.98 160.01 C 200.35 159.41 199.37 159.44 198.77 160.06 C 198.17 160.68 198.20 161.67 198.82 162.27 Z M 199.47 162.89 L 200.14 163.54 C 200.76 164.14 201.74 164.13 202.35 163.51 C 202.95 162.89 202.94 161.91 202.32 161.30 L 201.65 160.65 C 201.03 160.05 200.04 160.06 199.44 160.68 C 198.84 161.30 198.85 162.28 199.47 162.89 Z M 200.13 163.53 L 200.88 164.28 C 201.49 164.88 202.48 164.88 203.09 164.27 C 203.70 163.66 203.69 162.67 203.08 162.06 L 202.33 161.31 C 201.72 160.71 200.73 160.71 200.12 161.32 C 199.51 161.93 199.52 162.92 200.13 163.53 Z M 200.87 164.27 L 201.60 165.00 C 202.21 165.61 203.20 165.61 203.81 165.00 C 204.42 164.39 204.42 163.40 203.81 162.79 L 203.09 162.07 C 202.48 161.45 201.49 161.45 200.88 162.06 C 200.27 162.67 200.27 163.66 200.87 164.27 Z M 201.60 165.00 L 202.30 165.69 C 202.90 166.30 203.89 166.31 204.50 165.70 C 205.11 165.09 205.12 164.10 204.51 163.49 L 203.81 162.79 C 203.20 162.18 202.21 162.18 201.60 162.79 C 200.99 163.40 200.99 164.39 201.60 165.00 Z M 202.30 165.70 L 202.97 166.36 C 203.58 166.97 204.57 166.96 205.17 166.35 C 205.78 165.74 205.78 164.75 205.16 164.14 L 204.50 163.48 C 203.89 162.88 202.90 162.88 202.29 163.49 C 201.68 164.11 201.69 165.09 202.30 165.70 Z M 202.98 166.37 L 203.73 167.09 C 204.35 167.69 205.34 167.67 205.94 167.05 C 206.53 166.43 206.52 165.44 205.90 164.85 L 205.15 164.13 C 204.53 163.53 203.54 163.55 202.94 164.17 C 202.34 164.79 202.36 165.77 202.98 166.37 Z M 203.75 167.11 L 204.49 167.80 C 205.12 168.39 206.11 168.36 206.69 167.73 C 207.28 167.10 207.25 166.11 206.62 165.52 L 205.88 164.83 C 205.25 164.24 204.26 164.27 203.67 164.90 C 203.08 165.53 203.12 166.52 203.75 167.11 Z M 204.50 167.82 L 205.22 168.47 C 205.85 169.05 206.84 169.00 207.42 168.37 C 208.00 167.73 207.96 166.74 207.32 166.16 L 206.61 165.51 C 205.97 164.93 204.98 164.97 204.40 165.61 C 203.82 166.25 203.86 167.24 204.50 167.82 Z M 205.22 168.47 L 205.80 168.99 C 206.44 169.57 207.42 169.52 208.00 168.88 C 208.58 168.24 208.53 167.25 207.89 166.68 L 207.31 166.16 C 206.67 165.58 205.69 165.63 205.11 166.27 C 204.53 166.91 204.58 167.90 205.22 168.47 Z"
      fill="black"
      fill-rule="nonzero" /></svg>