<svg xmlns="http://www.w3.org/2000/svg" width="300" height="300" viewBox="0 0 300 300">
<path d="M 68.80 91.56 L 69.74 91.92 C 70.54 92.24 71.45 91.84 71.76 91.03 C 72.07 90.23 71.67 89.32 70.87 89.01 L 69.93 88.65 C 69.12 88.34 68.22 88.74 67.91 89.54 C 67.60 90.35 68.00 91.25 68.80 91.56 Z M 69.77 91.94 L 70.72 92.28 C 71.53 92.57 72.42 92.15 72.71 91.34 C 73.01 90.53 72.59 89.63 71.77 89.34 L 70.83 89.00 C 70.02 88.71 69.13 89.13 68.83 89.94 C 68.54 90.75 68.96 91.64 69.77 91.94 Z M 70.79 92.30 L 71.73 92.59 C 72.56 92.85 73.43 92.38 73.69 91.56 C 73.94 90.74 73.48 89.86 72.65 89.61 L 71.70 89.32 C 70.88 89.06 70.01 89.52 69.75 90.35 C 69.50 91.17 69.96 92.05 70.79 92.30 Z M 71.84 92.62 L 72.74 92.83 C 73.58 93.03 74.42 92.51 74.62 91.67 C 74.82 90.83 74.30 89.99 73.46 89.79 L 72.55 89.58 C 71.71 89.38 70.87 89.90 70.67 90.74 C 70.48 91.58 71.00 92.42 71.84 92.62 Z M 72.84 92.85 L 73.77 93.01 C 74.62 93.15 75.43 92.57 75.57 91.72 C 75.71 90.87 75.13 90.07 74.28 89.93 L 73.35 89.77 C 72.50 89.63 71.70 90.21 71.56 91.06 C 71.42 91.91 71.99 92.71 72.84 92.85 Z M 73.86 93.02 L 74.87 93.13 C 75.73 93.22 76.50 92.60 76.59 91.75 C 76.69 90.89 76.07 90.12 75.21 90.03 L 74.20 89.91 C 73.34 89.82 72.57 90.44 72.47 91.30 C 72.38 92.15 73.00 92.92 73.86 93.02 Z M 74.93 93.13 L 76.02 93.21 C 76.88 93.28 77.62 92.63 77.69 91.77 C 77.75 90.91 77.10 90.16 76.24 90.10 L 75.15 90.02 C 74.29 89.96 73.54 90.60 73.48 91.46 C 73.42 92.32 74.07 93.07 74.93 93.13 Z M 76.05 93.22 L 77.02 93.27 C 77.88 93.31 78.61 92.65 78.66 91.79 C 78.70 90.93 78.04 90.19 77.18 90.15 L 76.21 90.10 C 75.35 90.05 74.61 90.71 74.57 91.57 C 74.53 92.44 75.19 93.17 76.05 93.22 Z M 77.04 93.27 L 78.06 93.31 C 78.92 93.34 79.65 92.67 79.68 91.81 C 79.71 90.95 79.04 90.22 78.18 90.19 L 77.16 90.15 C 76.30 90.11 75.57 90.78 75.54 91.64 C 75.51 92.51 76.18 93.23 77.04 93.27 Z M 78.07 93.31 L 79.11 93.34 C 79.97 93.37 80.69 92.69 80.71 91.83 C 80.74 90.97 80.06 90.24 79.20 90.22 L 78.17 90.19 C 77.31 90.16 76.59 90.84 76.56 91.70 C 76.53 92.56 77.21 93.28 78.07 93.31 Z M 79.12 93.34 L 80.12 93.36 C 80.98 93.38 81.70 92.70 81.72 91.84 C 81.74 90.98 81.06 90.26 80.19 90.24 L 79.19 90.22 C 78.33 90.20 77.61 90.88 77.59 91.74 C 77.57 92.60 78.25 93.32 79.12 93.34 Z M 80.13 93.36 L 81.16 93.38 C 82.02 93.40 82.73 92.71 82.75 91.85 C 82.76 90.98 82.07 90.27 81.21 90.26 L 80.18 90.24 C 79.32 90.23 78.61 90.91 78.60 91.78 C 78.58 92.64 79.27 93.35 80.13 93.36 Z M 81.17 93.38 L 82.19 93.39 C 83.05 93.40 83.75 92.70 83.76 91.84 C 83.77 90.98 83.08 90.27 82.21 90.27 L 81.20 90.26 C 80.34 90.25 79.63 90.94 79.63 91.81 C 79.62 92.67 80.31 93.37 81.17 93.38 Z M 82.20 93.39 L 83.17 93.39 C 84.03 93.39 84.73 92.69 84.73 91.83 C 84.73 90.96 84.03 90.27 83.17 90.27 L 82.20 90.27 C 81.34 90.27 80.64 90.97 80.64 91.83 C 80.64 92.69 81.34 93.39 82.20 93.39 Z M 83.19 93.39 L 84.16 93.38 C 85.02 93.37 85.71 92.66 85.70 91.80 C 85.69 90.94 84.99 90.25 84.12 90.26 L 83.15 90.27 C 82.29 90.28 81.60 90.98 81.61 91.84 C 81.62 92.71 82.33 93.40 83.19 93.39 Z M 84.17 93.38 L 85.13 93.36 C 86.00 93.34 86.68 92.63 86.66 91.77 C 86.65 90.90 85.93 90.22 85.07 90.24 L 84.11 90.26 C 83.25 90.27 82.56 90.99 82.58 91.85 C 82.60 92.71 83.31 93.40 84.17 93.38 Z M 85.15 93.36 L 86.13 93.33 C 86.99 93.30 87.67 92.58 87.64 91.72 C 87.61 90.86 86.89 90.18 86.03 90.21 L 85.05 90.24 C 84.19 90.26 83.52 90.98 83.54 91.85 C 83.57 92.71 84.29 93.38 85.15 93.36 Z M 86.15 93.33 L 87.16 93.28 C 88.02 93.24 88.69 92.51 88.65 91.65 C 88.61 90.79 87.88 90.12 87.02 90.16 L 86.01 90.21 C 85.15 90.25 84.48 90.98 84.52 91.84 C 84.56 92.70 85.29 93.37 86.15 93.33 Z M 87.19 93.28 L 88.21 93.21 C 89.07 93.16 89.73 92.42 89.67 91.56 C 89.62 90.70 88.87 90.04 88.01 90.10 L 86.99 90.16 C 86.13 90.22 85.47 90.96 85.53 91.82 C 85.59 92.68 86.33 93.33 87.19 93.28 Z M 88.25 93.21 L 89.27 93.12 C 90.13 93.05 90.76 92.29 90.69 91.43 C 90.61 90.57 89.85 89.94 88.99 90.01 L 87.98 90.10 C 87.12 90.18 86.48 90.93 86.56 91.79 C 86.63 92.65 87.39 93.29 88.25 93.21 Z M 89.30 93.12 L 90.29 93.01 C 91.15 92.91 91.76 92.14 91.67 91.28 C 91.57 90.43 90.80 89.81 89.94 89.90 L 88.96 90.02 C 88.10 90.11 87.48 90.88 87.58 91.74 C 87.68 92.60 88.45 93.21 89.30 93.12 Z M 90.32 93.00 L 91.31 92.87 C 92.16 92.76 92.76 91.98 92.65 91.12 C 92.54 90.27 91.75 89.67 90.90 89.78 L 89.91 89.91 C 89.06 90.02 88.46 90.81 88.57 91.66 C 88.68 92.52 89.47 93.12 90.32 93.00 Z M 91.33 92.87 L 92.32 92.72 C 93.17 92.60 93.76 91.81 93.64 90.95 C 93.51 90.10 92.72 89.51 91.87 89.64 L 90.88 89.78 C 90.02 89.91 89.43 90.70 89.56 91.55 C 89.68 92.41 90.48 93.00 91.33 92.87 Z M 92.34 92.72 L 93.34 92.57 C 94.19 92.43 94.77 91.63 94.63 90.78 C 94.50 89.93 93.70 89.35 92.85 89.48 L 91.85 89.64 C 91.00 89.77 90.42 90.57 90.55 91.42 C 90.69 92.27 91.48 92.86 92.34 92.72 Z M 93.34 92.56 L 94.32 92.41 C 95.17 92.27 95.75 91.46 95.61 90.61 C 95.47 89.76 94.67 89.18 93.82 89.32 L 92.84 89.48 C 91.99 89.62 91.41 90.42 91.55 91.27 C 91.69 92.12 92.49 92.70 93.34 92.56 Z M 94.33 92.40 L 95.31 92.24 C 96.16 92.10 96.73 91.29 96.59 90.44 C 96.45 89.59 95.64 89.02 94.79 89.16 L 93.81 89.32 C 92.96 89.47 92.39 90.27 92.53 91.12 C 92.67 91.97 93.48 92.55 94.33 92.40 Z M 95.31 92.24 L 96.30 92.07 C 97.15 91.92 97.72 91.12 97.57 90.27 C 97.43 89.42 96.62 88.85 95.77 88.99 L 94.78 89.16 C 93.93 89.31 93.36 90.11 93.51 90.96 C 93.66 91.81 94.46 92.39 95.31 92.24 Z M 96.31 92.07 L 97.30 91.89 C 98.15 91.74 98.72 90.93 98.57 90.08 C 98.42 89.24 97.61 88.67 96.76 88.82 L 95.76 88.99 C 94.92 89.14 94.35 89.95 94.50 90.80 C 94.65 91.65 95.46 92.22 96.31 92.07 Z M 97.31 91.89 L 98.30 91.71 C 99.15 91.56 99.71 90.74 99.56 89.90 C 99.41 89.05 98.59 88.48 97.74 88.64 L 96.75 88.82 C 95.90 88.97 95.34 89.79 95.49 90.64 C 95.65 91.48 96.46 92.05 97.31 91.89 Z M 98.31 91.71 L 99.30 91.53 C 100.15 91.37 100.70 90.55 100.55 89.70 C 100.39 88.86 99.57 88.30 98.73 88.46 L 97.74 88.64 C 96.89 88.80 96.33 89.61 96.49 90.46 C 96.65 91.31 97.46 91.87 98.31 91.71 Z M 99.30 91.52 L 100.29 91.34 C 101.13 91.18 101.69 90.36 101.53 89.52 C 101.37 88.67 100.56 88.11 99.71 88.27 L 98.72 88.46 C 97.88 88.62 97.32 89.43 97.48 90.28 C 97.64 91.13 98.45 91.68 99.30 91.52 Z M 100.28 91.34 L 101.27 91.16 C 102.12 91.00 102.67 90.18 102.52 89.34 C 102.36 88.49 101.54 87.93 100.70 88.09 L 99.71 88.27 C 98.86 88.43 98.31 89.24 98.46 90.09 C 98.62 90.94 99.44 91.50 100.28 91.34 Z M 101.26 91.16 L 102.24 90.98 C 103.09 90.83 103.65 90.02 103.50 89.17 C 103.34 88.32 102.53 87.75 101.68 87.91 L 100.70 88.09 C 99.86 88.24 99.29 89.05 99.45 89.90 C 99.60 90.75 100.41 91.31 101.26 91.16 Z M 102.23 90.98 L 103.21 90.81 C 104.06 90.67 104.63 89.86 104.49 89.01 C 104.34 88.16 103.53 87.59 102.68 87.74 L 101.70 87.91 C 100.85 88.05 100.28 88.86 100.42 89.71 C 100.57 90.56 101.38 91.13 102.23 90.98 Z M 103.20 90.82 L 104.19 90.66 C 105.04 90.52 105.62 89.72 105.48 88.86 C 105.35 88.01 104.54 87.44 103.69 87.57 L 102.70 87.73 C 101.85 87.87 101.27 88.67 101.41 89.52 C 101.54 90.37 102.35 90.95 103.20 90.82 Z M 104.17 90.66 L 105.16 90.51 C 106.01 90.38 106.60 89.59 106.47 88.73 C 106.35 87.88 105.55 87.29 104.70 87.42 L 103.71 87.57 C 102.86 87.70 102.27 88.49 102.40 89.35 C 102.53 90.20 103.32 90.79 104.17 90.66 Z M 105.14 90.51 L 106.13 90.38 C 106.98 90.26 107.58 89.47 107.46 88.62 C 107.34 87.76 106.56 87.16 105.70 87.28 L 104.72 87.42 C 103.86 87.54 103.27 88.33 103.38 89.18 C 103.50 90.03 104.29 90.63 105.14 90.51 Z M 106.11 90.38 L 107.10 90.25 C 107.95 90.15 108.56 89.37 108.45 88.51 C 108.34 87.65 107.56 87.05 106.71 87.16 L 105.72 87.28 C 104.87 87.39 104.26 88.17 104.37 89.02 C 104.47 89.88 105.26 90.49 106.11 90.38 Z M 107.08 90.26 L 108.00 90.15 C 108.86 90.05 109.47 89.28 109.37 88.42 C 109.28 87.57 108.50 86.95 107.65 87.05 L 106.72 87.15 C 105.87 87.25 105.25 88.03 105.35 88.88 C 105.45 89.74 106.22 90.35 107.08 90.26 Z M 107.98 90.15 L 108.92 90.06 C 109.77 89.97 110.40 89.20 110.31 88.35 C 110.22 87.49 109.46 86.86 108.60 86.95 L 107.66 87.05 C 106.81 87.13 106.18 87.90 106.27 88.76 C 106.36 89.62 107.12 90.24 107.98 90.15 Z M 108.90 90.06 L 109.87 89.97 C 110.73 89.89 111.37 89.13 111.29 88.27 C 111.21 87.42 110.45 86.78 109.59 86.86 L 108.62 86.95 C 107.76 87.03 107.13 87.79 107.20 88.65 C 107.28 89.51 108.04 90.14 108.90 90.06 Z M 109.86 89.97 L 110.89 89.89 C 111.75 89.82 112.39 89.07 112.32 88.21 C 112.25 87.35 111.50 86.71 110.64 86.78 L 109.61 86.86 C 108.75 86.93 108.11 87.68 108.18 88.54 C 108.25 89.40 109.00 90.04 109.86 89.97 Z M 110.88 89.89 L 111.99 89.81 C 112.85 89.75 113.50 89.00 113.44 88.14 C 113.37 87.28 112.63 86.63 111.77 86.69 L 110.65 86.78 C 109.79 86.84 109.15 87.59 109.21 88.45 C 109.27 89.31 110.02 89.95 110.88 89.89 Z M 111.98 89.81 L 112.88 89.75 C 113.74 89.69 114.39 88.95 114.33 88.09 C 114.28 87.23 113.53 86.58 112.67 86.63 L 111.77 86.69 C 110.91 86.75 110.26 87.49 110.32 88.36 C 110.38 89.22 111.12 89.87 111.98 89.81 Z M 112.87 89.75 L 113.82 89.69 C 114.68 89.64 115.33 88.90 115.28 88.04 C 115.23 87.18 114.49 86.52 113.63 86.58 L 112.68 86.63 C 111.82 86.69 111.17 87.43 111.22 88.29 C 111.27 89.15 112.01 89.80 112.87 89.75 Z M 113.81 89.69 L 114.79 89.64 C 115.66 89.59 116.31 88.85 116.27 87.99 C 116.22 87.13 115.48 86.47 114.62 86.52 L 113.64 86.57 C 112.77 86.62 112.12 87.36 112.16 88.22 C 112.21 89.08 112.95 89.74 113.81 89.69 Z M 114.79 89.64 L 115.80 89.59 C 116.67 89.55 117.33 88.81 117.29 87.95 C 117.24 87.09 116.51 86.43 115.65 86.47 L 114.63 86.52 C 113.77 86.56 113.11 87.29 113.15 88.16 C 113.19 89.02 113.92 89.68 114.79 89.64 Z M 115.79 89.59 L 116.84 89.54 C 117.70 89.51 118.37 88.78 118.33 87.92 C 118.29 87.06 117.57 86.39 116.70 86.42 L 115.66 86.47 C 114.80 86.51 114.13 87.23 114.17 88.10 C 114.20 88.96 114.93 89.63 115.79 89.59 Z M 116.83 89.54 L 117.89 89.51 C 118.75 89.48 119.42 88.75 119.39 87.89 C 119.36 87.03 118.64 86.36 117.78 86.39 L 116.72 86.42 C 115.85 86.45 115.18 87.18 115.21 88.04 C 115.24 88.90 115.96 89.57 116.83 89.54 Z M 117.88 89.51 L 118.91 89.48 C 119.77 89.45 120.45 88.74 120.42 87.87 C 120.40 87.01 119.68 86.33 118.82 86.36 L 117.79 86.39 C 116.93 86.41 116.25 87.13 116.27 87.99 C 116.30 88.85 117.01 89.53 117.88 89.51 Z M 118.89 89.48 L 119.88 89.46 C 120.74 89.44 121.43 88.73 121.41 87.87 C 121.39 87.00 120.68 86.32 119.82 86.34 L 118.83 86.36 C 117.97 86.37 117.28 87.09 117.30 87.95 C 117.32 88.81 118.03 89.50 118.89 89.48 Z M 119.87 89.46 L 120.86 89.45 C 121.73 89.43 122.42 88.72 122.40 87.86 C 122.39 87.00 121.68 86.31 120.82 86.32 L 119.83 86.33 C 118.96 86.35 118.27 87.06 118.28 87.92 C 118.30 88.78 119.01 89.47 119.87 89.46 Z M 120.85 89.45 L 121.85 89.44 C 122.71 89.43 123.41 88.72 123.40 87.86 C 123.39 87.00 122.69 86.30 121.82 86.31 L 120.82 86.32 C 119.96 86.33 119.27 87.03 119.27 87.90 C 119.28 88.76 119.99 89.46 120.85 89.45 Z M 121.84 89.44 L 122.85 89.44 C 123.71 89.43 124.41 88.73 124.40 87.86 C 124.40 87.00 123.69 86.30 122.83 86.30 L 121.83 86.31 C 120.96 86.31 120.26 87.02 120.27 87.88 C 120.27 88.75 120.98 89.45 121.84 89.44 Z M 122.84 89.44 L 123.85 89.43 C 124.71 89.43 125.41 88.73 125.41 87.86 C 125.41 87.00 124.71 86.30 123.84 86.30 L 122.83 86.30 C 121.97 86.30 121.27 87.01 121.27 87.87 C 121.27 88.74 121.98 89.44 122.84 89.44 Z M 123.85 89.44 L 124.86 89.43 C 125.73 89.43 126.43 88.73 126.43 87.86 C 126.43 87.00 125.72 86.30 124.86 86.30 L 123.84 86.30 C 122.98 86.30 122.27 87.00 122.28 87.87 C 122.28 88.73 122.98 89.44 123.85 89.44 Z M 124.86 89.44 L 125.87 89.44 C 126.73 89.44 127.44 88.73 127.44 87.87 C 127.44 87.00 126.73 86.29 125.87 86.29 L 124.86 86.29 C 123.99 86.29 123.29 87.00 123.29 87.87 C 123.29 88.73 123.99 89.44 124.86 89.44 Z M 125.86 89.44 L 126.86 89.44 C 127.72 89.44 128.43 88.73 128.43 87.87 C 128.43 87.00 127.73 86.30 126.86 86.30 L 125.87 86.29 C 125.00 86.29 124.30 87.00 124.30 87.86 C 124.29 88.73 125.00 89.44 125.86 89.44 Z M 126.85 89.44 L 127.85 89.44 C 128.72 89.44 129.42 88.74 129.42 87.87 C 129.43 87.01 128.73 86.30 127.86 86.30 L 126.86 86.30 C 125.99 86.29 125.29 86.99 125.29 87.86 C 125.28 88.73 125.98 89.43 126.85 89.44 Z M 127.84 89.44 L 128.84 89.45 C 129.71 89.45 130.42 88.76 130.42 87.89 C 130.43 87.02 129.73 86.31 128.86 86.31 L 127.87 86.30 C 127.00 86.29 126.29 86.99 126.28 87.86 C 126.28 88.72 126.97 89.43 127.84 89.44 Z M 128.83 89.45 L 129.83 89.46 C 130.70 89.47 131.41 88.78 131.42 87.91 C 131.44 87.05 130.74 86.33 129.88 86.32 L 128.87 86.31 C 128.01 86.29 127.29 86.99 127.28 87.85 C 127.27 88.72 127.96 89.44 128.83 89.45 Z M 129.82 89.46 L 130.82 89.48 C 131.69 89.50 132.41 88.82 132.43 87.95 C 132.45 87.08 131.76 86.36 130.89 86.34 L 129.89 86.32 C 129.02 86.30 128.30 86.99 128.28 87.86 C 128.26 88.72 128.95 89.44 129.82 89.46 Z M 130.81 89.48 L 131.81 89.52 C 132.68 89.55 133.40 88.87 133.43 88.00 C 133.46 87.13 132.78 86.41 131.91 86.38 L 130.91 86.34 C 130.04 86.32 129.32 87.00 129.29 87.86 C 129.26 88.73 129.94 89.46 130.81 89.48 Z M 131.79 89.52 L 132.80 89.56 C 133.66 89.60 134.40 88.93 134.44 88.06 C 134.48 87.20 133.80 86.46 132.94 86.42 L 131.93 86.38 C 131.07 86.34 130.33 87.01 130.29 87.88 C 130.25 88.74 130.92 89.48 131.79 89.52 Z M 132.77 89.56 L 133.79 89.62 C 134.66 89.67 135.40 89.01 135.45 88.15 C 135.50 87.28 134.84 86.54 133.98 86.48 L 132.96 86.42 C 132.09 86.37 131.35 87.03 131.30 87.90 C 131.25 88.77 131.91 89.51 132.77 89.56 Z M 133.77 89.62 L 134.78 89.69 C 135.65 89.76 136.40 89.11 136.46 88.24 C 136.53 87.38 135.88 86.62 135.01 86.56 L 134.00 86.49 C 133.13 86.42 132.38 87.07 132.32 87.94 C 132.25 88.80 132.90 89.56 133.77 89.62 Z M 134.76 89.69 L 135.77 89.78 C 136.63 89.86 137.39 89.22 137.47 88.35 C 137.55 87.49 136.91 86.73 136.04 86.65 L 135.03 86.56 C 134.17 86.49 133.41 87.13 133.33 87.99 C 133.25 88.86 133.89 89.62 134.76 89.69 Z M 135.75 89.78 L 136.75 89.88 C 137.61 89.97 138.38 89.34 138.47 88.47 C 138.56 87.61 137.93 86.84 137.06 86.75 L 136.06 86.65 C 135.20 86.57 134.43 87.19 134.34 88.06 C 134.25 88.92 134.88 89.69 135.75 89.78 Z M 136.73 89.88 L 137.72 89.99 C 138.58 90.09 139.36 89.47 139.46 88.61 C 139.56 87.75 138.94 86.97 138.08 86.87 L 137.08 86.76 C 136.22 86.66 135.44 87.28 135.34 88.14 C 135.25 89.00 135.86 89.78 136.73 89.88 Z M 137.70 89.99 L 138.68 90.11 C 139.54 90.22 140.33 89.62 140.44 88.75 C 140.55 87.89 139.94 87.11 139.08 87.00 L 138.10 86.87 C 137.23 86.76 136.45 87.37 136.34 88.23 C 136.23 89.09 136.84 89.88 137.70 89.99 Z M 138.66 90.11 L 139.62 90.25 C 140.48 90.37 141.28 89.77 141.40 88.91 C 141.52 88.05 140.92 87.26 140.06 87.13 L 139.10 87.00 C 138.24 86.88 137.44 87.48 137.32 88.34 C 137.20 89.20 137.80 89.99 138.66 90.11 Z M 139.60 90.24 L 140.62 90.40 C 141.48 90.53 142.28 89.95 142.42 89.09 C 142.55 88.23 141.96 87.43 141.10 87.29 L 140.08 87.14 C 139.22 87.00 138.42 87.59 138.29 88.45 C 138.16 89.31 138.74 90.11 139.60 90.24 Z M 140.60 90.40 L 141.64 90.57 C 142.49 90.72 143.31 90.14 143.45 89.28 C 143.59 88.43 143.02 87.62 142.16 87.47 L 141.12 87.30 C 140.27 87.15 139.45 87.73 139.31 88.59 C 139.17 89.44 139.74 90.26 140.60 90.40 Z M 141.62 90.57 L 142.63 90.75 C 143.49 90.91 144.31 90.34 144.46 89.48 C 144.61 88.63 144.05 87.81 143.19 87.66 L 142.18 87.47 C 141.32 87.32 140.50 87.89 140.35 88.74 C 140.20 89.60 140.76 90.42 141.62 90.57 Z M 142.62 90.75 L 143.60 90.94 C 144.46 91.10 145.28 90.54 145.45 89.69 C 145.61 88.84 145.05 88.01 144.20 87.85 L 143.21 87.66 C 142.35 87.50 141.53 88.06 141.37 88.91 C 141.20 89.76 141.76 90.59 142.62 90.75 Z M 143.59 90.94 L 144.55 91.13 C 145.40 91.30 146.23 90.75 146.40 89.90 C 146.58 89.05 146.02 88.22 145.17 88.05 L 144.21 87.85 C 143.36 87.68 142.53 88.23 142.36 89.08 C 142.19 89.94 142.74 90.77 143.59 90.94 Z M 144.54 91.13 L 145.47 91.32 C 146.33 91.50 147.16 90.95 147.34 90.10 C 147.51 89.25 146.97 88.42 146.12 88.24 L 145.18 88.05 C 144.33 87.87 143.50 88.42 143.32 89.27 C 143.14 90.12 143.69 90.95 144.54 91.13 Z M 145.47 91.32 L 146.38 91.52 C 147.23 91.70 148.07 91.16 148.25 90.31 C 148.43 89.46 147.89 88.62 147.04 88.44 L 146.13 88.24 C 145.28 88.06 144.44 88.60 144.26 89.45 C 144.08 90.30 144.62 91.14 145.47 91.32 Z M 146.37 91.52 L 147.36 91.73 C 148.20 91.92 149.04 91.38 149.23 90.53 C 149.42 89.68 148.88 88.84 148.03 88.66 L 147.05 88.44 C 146.20 88.25 145.36 88.79 145.17 89.64 C 144.99 90.49 145.53 91.33 146.37 91.52 Z M 147.35 91.73 L 148.31 91.94 C 149.16 92.13 150.00 91.60 150.19 90.75 C 150.38 89.90 149.84 89.06 148.99 88.87 L 148.04 88.66 C 147.19 88.47 146.35 89.00 146.16 89.85 C 145.97 90.70 146.50 91.54 147.35 91.73 Z M 148.30 91.94 L 149.25 92.16 C 150.10 92.35 150.95 91.82 151.14 90.98 C 151.33 90.13 150.80 89.28 149.95 89.09 L 149.00 88.87 C 148.15 88.68 147.31 89.21 147.12 90.06 C 146.92 90.90 147.45 91.75 148.30 91.94 Z M 149.25 92.16 L 150.21 92.38 C 151.06 92.58 151.90 92.05 152.10 91.21 C 152.30 90.36 151.77 89.51 150.92 89.31 L 149.96 89.09 C 149.11 88.89 148.27 89.42 148.07 90.27 C 147.87 91.12 148.40 91.96 149.25 92.16 Z M 150.20 92.38 L 151.19 92.62 C 152.03 92.82 152.88 92.29 153.08 91.44 C 153.28 90.60 152.76 89.75 151.91 89.55 L 150.93 89.31 C 150.08 89.11 149.23 89.64 149.03 90.49 C 148.83 91.33 149.36 92.18 150.20 92.38 Z M 151.18 92.61 L 152.17 92.85 C 153.02 93.05 153.87 92.53 154.07 91.69 C 154.27 90.84 153.75 89.99 152.90 89.79 L 151.92 89.55 C 151.07 89.35 150.22 89.87 150.02 90.71 C 149.81 91.56 150.34 92.41 151.18 92.61 Z M 152.17 92.85 L 153.09 93.07 C 153.94 93.28 154.79 92.76 154.99 91.91 C 155.20 91.07 154.68 90.21 153.83 90.01 L 152.91 89.79 C 152.06 89.58 151.21 90.10 151.01 90.95 C 150.80 91.79 151.32 92.65 152.17 92.85 Z M 153.09 93.07 L 154.05 93.30 C 154.89 93.51 155.74 92.99 155.95 92.14 C 156.15 91.30 155.63 90.45 154.79 90.24 L 153.83 90.01 C 152.99 89.81 152.14 90.33 151.93 91.17 C 151.73 92.02 152.25 92.87 153.09 93.07 Z M 154.05 93.30 L 155.03 93.54 C 155.87 93.74 156.72 93.22 156.92 92.37 C 157.13 91.53 156.61 90.68 155.76 90.48 L 154.78 90.24 C 153.94 90.04 153.09 90.56 152.89 91.41 C 152.68 92.25 153.20 93.10 154.05 93.30 Z M 155.03 93.54 L 156.02 93.77 C 156.87 93.97 157.72 93.45 157.92 92.60 C 158.12 91.76 157.59 90.91 156.75 90.71 L 155.76 90.48 C 154.91 90.28 154.06 90.80 153.86 91.65 C 153.66 92.49 154.19 93.34 155.03 93.54 Z M 156.03 93.77 L 157.03 94.01 C 157.88 94.20 158.72 93.67 158.92 92.83 C 159.11 91.98 158.59 91.14 157.74 90.94 L 156.74 90.71 C 155.89 90.51 155.05 91.04 154.85 91.89 C 154.66 92.73 155.18 93.58 156.03 93.77 Z M 157.04 94.01 L 158.04 94.23 C 158.89 94.42 159.73 93.89 159.92 93.04 C 160.11 92.20 159.58 91.36 158.73 91.17 L 157.73 90.94 C 156.88 90.75 156.04 91.28 155.85 92.13 C 155.66 92.98 156.19 93.82 157.04 94.01 Z M 158.05 94.23 L 159.05 94.45 C 159.90 94.63 160.73 94.09 160.91 93.25 C 161.10 92.40 160.56 91.56 159.71 91.38 L 158.72 91.16 C 157.87 90.98 157.03 91.52 156.85 92.37 C 156.67 93.21 157.21 94.05 158.05 94.23 Z M 159.06 94.45 L 160.05 94.65 C 160.89 94.83 161.72 94.29 161.90 93.44 C 162.08 92.59 161.53 91.76 160.68 91.58 L 159.70 91.38 C 158.85 91.20 158.02 91.75 157.84 92.59 C 157.67 93.44 158.21 94.27 159.06 94.45 Z M 160.06 94.66 L 161.04 94.85 C 161.89 95.02 162.71 94.47 162.88 93.62 C 163.05 92.77 162.50 91.94 161.65 91.77 L 160.67 91.58 C 159.82 91.41 158.99 91.96 158.83 92.81 C 158.66 93.66 159.21 94.49 160.06 94.66 Z M 161.05 94.85 L 162.03 95.04 C 162.88 95.20 163.70 94.64 163.86 93.79 C 164.02 92.94 163.47 92.12 162.62 91.96 L 161.64 91.77 C 160.79 91.61 159.97 92.17 159.80 93.02 C 159.64 93.87 160.20 94.69 161.05 94.85 Z M 162.04 95.04 L 163.02 95.22 C 163.87 95.38 164.68 94.81 164.84 93.96 C 165.00 93.11 164.43 92.29 163.58 92.14 L 162.61 91.96 C 161.75 91.80 160.94 92.36 160.78 93.22 C 160.62 94.07 161.19 94.88 162.04 95.04 Z M 163.02 95.22 L 164.01 95.40 C 164.86 95.55 165.67 94.98 165.82 94.13 C 165.97 93.28 165.41 92.46 164.55 92.31 L 163.57 92.14 C 162.72 91.99 161.91 92.55 161.76 93.41 C 161.61 94.26 162.17 95.07 163.02 95.22 Z M 164.01 95.40 L 165.00 95.57 C 165.85 95.71 166.66 95.14 166.81 94.29 C 166.96 93.44 166.39 92.63 165.53 92.48 L 164.55 92.31 C 163.69 92.16 162.88 92.74 162.74 93.59 C 162.59 94.44 163.16 95.25 164.01 95.40 Z M 165.01 95.57 L 166.00 95.73 C 166.85 95.88 167.66 95.30 167.80 94.45 C 167.94 93.60 167.37 92.79 166.52 92.65 L 165.53 92.48 C 164.67 92.34 163.87 92.91 163.72 93.77 C 163.58 94.62 164.16 95.42 165.01 95.57 Z M 166.00 95.73 L 167.00 95.90 C 167.85 96.04 168.65 95.46 168.79 94.61 C 168.93 93.75 168.35 92.95 167.50 92.81 L 166.51 92.65 C 165.66 92.51 164.85 93.08 164.71 93.94 C 164.57 94.79 165.15 95.59 166.00 95.73 Z M 167.00 95.90 L 168.00 96.06 C 168.85 96.19 169.65 95.61 169.79 94.76 C 169.92 93.91 169.34 93.10 168.49 92.97 L 167.50 92.81 C 166.64 92.67 165.84 93.25 165.70 94.11 C 165.57 94.96 166.15 95.76 167.00 95.90 Z M 168.00 96.06 L 169.00 96.21 C 169.85 96.34 170.65 95.76 170.78 94.91 C 170.92 94.05 170.33 93.26 169.48 93.12 L 168.48 92.97 C 167.63 92.83 166.83 93.42 166.70 94.27 C 166.57 95.12 167.15 95.92 168.00 96.06 Z M 169.00 96.21 L 169.99 96.36 C 170.85 96.49 171.64 95.90 171.77 95.05 C 171.90 94.20 171.32 93.40 170.46 93.27 L 169.47 93.12 C 168.62 92.99 167.82 93.58 167.69 94.43 C 167.56 95.29 168.15 96.08 169.00 96.21 Z M 170.00 96.36 L 170.98 96.51 C 171.84 96.63 172.63 96.04 172.76 95.19 C 172.88 94.34 172.29 93.54 171.44 93.42 L 170.46 93.27 C 169.60 93.15 168.81 93.74 168.68 94.59 C 168.56 95.44 169.15 96.24 170.00 96.36 Z M 170.99 96.51 L 171.96 96.65 C 172.82 96.77 173.61 96.18 173.73 95.32 C 173.85 94.47 173.26 93.68 172.41 93.56 L 171.43 93.42 C 170.58 93.29 169.79 93.89 169.67 94.74 C 169.54 95.59 170.14 96.39 170.99 96.51 Z M 171.97 96.65 L 173.02 96.79 C 173.87 96.91 174.66 96.32 174.78 95.46 C 174.90 94.61 174.30 93.82 173.45 93.70 L 172.40 93.56 C 171.55 93.44 170.76 94.03 170.64 94.89 C 170.52 95.74 171.12 96.53 171.97 96.65 Z M 173.02 96.80 L 174.05 96.93 C 174.91 97.05 175.69 96.45 175.81 95.60 C 175.92 94.74 175.32 93.95 174.47 93.84 L 173.44 93.70 C 172.59 93.59 171.80 94.18 171.69 95.04 C 171.57 95.89 172.17 96.68 173.02 96.80 Z M 174.06 96.93 L 175.06 97.07 C 175.92 97.18 176.70 96.58 176.82 95.72 C 176.93 94.87 176.32 94.08 175.47 93.97 L 174.46 93.84 C 173.61 93.73 172.82 94.33 172.71 95.18 C 172.60 96.04 173.20 96.82 174.06 96.93 Z M 175.07 97.07 L 176.06 97.19 C 176.91 97.30 177.69 96.69 177.80 95.84 C 177.91 94.98 177.30 94.20 176.45 94.09 L 175.46 93.97 C 174.61 93.86 173.83 94.47 173.72 95.32 C 173.61 96.18 174.22 96.96 175.07 97.07 Z M 176.06 97.19 L 177.02 97.31 C 177.88 97.41 178.66 96.81 178.76 95.95 C 178.87 95.09 178.26 94.32 177.40 94.21 L 176.44 94.09 C 175.59 93.99 174.81 94.60 174.70 95.45 C 174.60 96.31 175.21 97.09 176.06 97.19 Z M 177.03 97.31 L 177.96 97.42 C 178.82 97.52 179.60 96.91 179.70 96.06 C 179.80 95.20 179.19 94.42 178.33 94.32 L 177.40 94.21 C 176.54 94.11 175.76 94.72 175.66 95.58 C 175.56 96.43 176.17 97.21 177.03 97.31 Z M 177.97 97.42 L 179.02 97.54 C 179.88 97.64 180.65 97.03 180.75 96.17 C 180.85 95.31 180.23 94.54 179.37 94.44 L 178.33 94.32 C 177.47 94.22 176.70 94.84 176.60 95.69 C 176.50 96.55 177.11 97.32 177.97 97.42 Z M 179.02 97.54 L 180.07 97.66 C 180.92 97.75 181.70 97.13 181.79 96.28 C 181.88 95.42 181.27 94.65 180.41 94.55 L 179.37 94.44 C 178.51 94.34 177.74 94.96 177.64 95.82 C 177.55 96.68 178.17 97.45 179.02 97.54 Z M 180.07 97.66 L 181.08 97.77 C 181.93 97.86 182.70 97.24 182.79 96.38 C 182.89 95.52 182.27 94.75 181.41 94.66 L 180.40 94.55 C 179.55 94.46 178.78 95.08 178.69 95.94 C 178.59 96.80 179.22 97.57 180.07 97.66 Z M 181.08 97.77 L 182.05 97.87 C 182.91 97.95 183.68 97.33 183.76 96.47 C 183.85 95.62 183.23 94.85 182.37 94.76 L 181.40 94.66 C 180.54 94.57 179.78 95.20 179.69 96.05 C 179.60 96.91 180.22 97.68 181.08 97.77 Z M 182.06 97.87 L 182.99 97.96 C 183.85 98.05 184.61 97.42 184.70 96.56 C 184.78 95.70 184.16 94.94 183.30 94.85 L 182.37 94.76 C 181.51 94.67 180.74 95.30 180.66 96.16 C 180.57 97.02 181.20 97.78 182.06 97.87 Z M 182.99 97.96 L 183.99 98.06 C 184.84 98.14 185.61 97.51 185.69 96.65 C 185.77 95.80 185.15 95.03 184.29 94.95 L 183.29 94.85 C 182.44 94.77 181.67 95.40 181.59 96.26 C 181.51 97.11 182.13 97.88 182.99 97.96 Z M 183.99 98.06 L 185.01 98.15 C 185.87 98.23 186.63 97.60 186.71 96.74 C 186.79 95.89 186.16 95.12 185.30 95.04 L 184.28 94.95 C 183.42 94.87 182.66 95.50 182.58 96.36 C 182.50 97.22 183.13 97.98 183.99 98.06 Z M 185.02 98.15 L 186.01 98.24 C 186.87 98.32 187.63 97.69 187.70 96.83 C 187.78 95.97 187.15 95.21 186.29 95.13 L 185.30 95.04 C 184.44 94.97 183.68 95.60 183.60 96.46 C 183.53 97.32 184.16 98.08 185.02 98.15 Z M 186.02 98.24 L 186.99 98.33 C 187.85 98.40 188.60 97.76 188.67 96.90 C 188.75 96.04 188.11 95.29 187.25 95.21 L 186.28 95.13 C 185.42 95.06 184.67 95.70 184.59 96.56 C 184.52 97.41 185.16 98.17 186.02 98.24 Z M 186.99 98.33 L 187.97 98.40 C 188.82 98.47 189.58 97.83 189.65 96.97 C 189.71 96.11 189.07 95.36 188.21 95.29 L 187.24 95.21 C 186.38 95.15 185.63 95.79 185.56 96.65 C 185.49 97.51 186.13 98.26 186.99 98.33 Z M 187.97 98.40 L 188.98 98.48 C 189.84 98.54 190.59 97.90 190.66 97.04 C 190.72 96.18 190.08 95.43 189.22 95.37 L 188.21 95.29 C 187.35 95.23 186.60 95.87 186.53 96.73 C 186.47 97.59 187.11 98.34 187.97 98.40 Z M 188.99 98.48 L 190.00 98.55 C 190.86 98.61 191.60 97.96 191.66 97.10 C 191.72 96.24 191.08 95.50 190.21 95.44 L 189.21 95.37 C 188.35 95.31 187.60 95.95 187.54 96.81 C 187.48 97.67 188.13 98.42 188.99 98.48 Z M 190.00 98.55 L 190.99 98.62 C 191.85 98.68 192.60 98.03 192.66 97.17 C 192.71 96.31 192.06 95.56 191.20 95.50 L 190.21 95.44 C 189.35 95.38 188.61 96.03 188.55 96.89 C 188.49 97.75 189.14 98.49 190.00 98.55 Z M 191.00 98.62 L 191.97 98.68 C 192.83 98.74 193.58 98.09 193.64 97.23 C 193.69 96.37 193.04 95.63 192.18 95.57 L 191.20 95.50 C 190.34 95.45 189.60 96.10 189.54 96.96 C 189.48 97.82 190.14 98.56 191.00 98.62 Z M 191.97 98.68 L 193.01 98.75 C 193.87 98.81 194.61 98.16 194.67 97.30 C 194.73 96.44 194.08 95.69 193.22 95.64 L 192.18 95.57 C 191.32 95.51 190.58 96.16 190.52 97.02 C 190.46 97.88 191.11 98.63 191.97 98.68 Z M 193.01 98.75 L 194.02 98.82 C 194.88 98.88 195.62 98.23 195.68 97.37 C 195.74 96.51 195.09 95.76 194.23 95.71 L 193.22 95.64 C 192.36 95.58 191.61 96.23 191.56 97.09 C 191.50 97.95 192.15 98.69 193.01 98.75 Z M 194.02 98.82 L 195.00 98.89 C 195.86 98.95 196.60 98.30 196.66 97.44 C 196.72 96.58 196.07 95.83 195.21 95.77 L 194.23 95.71 C 193.37 95.65 192.62 96.30 192.57 97.16 C 192.51 98.02 193.15 98.76 194.02 98.82 Z M 194.99 98.89 L 195.96 98.96 C 196.82 99.02 197.57 98.37 197.63 97.51 C 197.69 96.65 197.05 95.91 196.19 95.84 L 195.22 95.77 C 194.36 95.71 193.61 96.36 193.55 97.22 C 193.49 98.08 194.13 98.83 194.99 98.89 Z M 195.96 98.96 L 196.98 99.03 C 197.84 99.10 198.59 98.45 198.65 97.59 C 198.72 96.73 198.07 95.99 197.21 95.92 L 196.19 95.84 C 195.33 95.78 194.58 96.42 194.52 97.28 C 194.45 98.14 195.10 98.89 195.96 98.96 Z M 196.98 99.03 L 197.98 99.11 C 198.84 99.17 199.59 98.53 199.65 97.67 C 199.71 96.81 199.07 96.06 198.21 95.99 L 197.21 95.92 C 196.35 95.86 195.60 96.50 195.54 97.36 C 195.48 98.22 196.12 98.97 196.98 99.03 Z M 197.99 99.11 L 198.96 99.18 C 199.82 99.24 200.57 98.59 200.63 97.73 C 200.69 96.87 200.04 96.12 199.18 96.06 L 198.20 95.99 C 197.34 95.93 196.59 96.58 196.54 97.44 C 196.48 98.30 197.13 99.05 197.99 99.11 Z M 198.98 99.18 L 199.98 99.24 C 200.84 99.29 201.58 98.63 201.63 97.77 C 201.68 96.91 201.02 96.17 200.16 96.12 L 199.16 96.06 C 198.30 96.01 197.56 96.67 197.51 97.53 C 197.46 98.39 198.12 99.13 198.98 99.18 Z M 199.99 99.24 L 200.99 99.29 C 201.85 99.33 202.59 98.67 202.63 97.81 C 202.68 96.95 202.01 96.21 201.15 96.17 L 200.15 96.12 C 199.29 96.07 198.55 96.74 198.51 97.60 C 198.47 98.46 199.13 99.19 199.99 99.24 Z M 200.99 99.29 L 201.99 99.34 C 202.85 99.38 203.58 98.72 203.62 97.86 C 203.67 96.99 203.00 96.26 202.14 96.22 L 201.15 96.17 C 200.29 96.13 199.56 96.79 199.51 97.65 C 199.47 98.51 200.13 99.24 200.99 99.29 Z M 201.98 99.34 L 202.97 99.39 C 203.83 99.44 204.57 98.78 204.62 97.92 C 204.67 97.06 204.01 96.33 203.15 96.28 L 202.16 96.22 C 201.29 96.17 200.56 96.83 200.51 97.69 C 200.46 98.55 201.12 99.29 201.98 99.34 Z M 202.95 99.39 L 203.95 99.46 C 204.81 99.53 205.56 98.88 205.62 98.02 C 205.68 97.16 205.04 96.41 204.18 96.35 L 203.17 96.28 C 202.31 96.22 201.56 96.86 201.50 97.72 C 201.44 98.58 202.09 99.33 202.95 99.39 Z M 203.92 99.46 L 204.91 99.55 C 205.77 99.63 206.53 99.00 206.61 98.14 C 206.69 97.28 206.06 96.52 205.20 96.44 L 204.21 96.35 C 203.35 96.27 202.59 96.91 202.51 97.76 C 202.43 98.62 203.06 99.38 203.92 99.46 Z M 204.88 99.55 L 205.84 99.66 C 206.70 99.76 207.47 99.15 207.57 98.29 C 207.67 97.44 207.06 96.66 206.20 96.56 L 205.24 96.45 C 204.38 96.35 203.61 96.96 203.51 97.82 C 203.41 98.67 204.02 99.45 204.88 99.55 Z M 205.80 99.66 L 206.69 99.78 C 207.54 99.90 208.33 99.31 208.45 98.46 C 208.57 97.60 207.98 96.81 207.13 96.69 L 206.24 96.57 C 205.39 96.44 204.60 97.04 204.48 97.89 C 204.35 98.74 204.95 99.54 205.80 99.66 Z M 206.66 99.78 L 207.61 99.93 C 208.46 100.07 209.26 99.48 209.40 98.63 C 209.53 97.78 208.95 96.98 208.10 96.85 L 207.15 96.70 C 206.30 96.56 205.50 97.14 205.36 97.99 C 205.23 98.84 205.81 99.64 206.66 99.78 Z M 207.60 99.93 L 208.67 100.11 C 209.52 100.25 210.32 99.67 210.46 98.82 C 210.60 97.97 210.03 97.17 209.18 97.03 L 208.11 96.85 C 207.26 96.71 206.45 97.28 206.31 98.13 C 206.17 98.98 206.75 99.79 207.60 99.93 Z M 208.67 100.11 L 209.65 100.27 C 210.50 100.41 211.30 99.83 211.44 98.98 C 211.58 98.13 211.01 97.33 210.16 97.19 L 209.18 97.03 C 208.33 96.88 207.52 97.46 207.38 98.31 C 207.24 99.16 207.82 99.96 208.67 100.11 Z M 209.65 100.27 L 210.55 100.42 C 211.40 100.56 212.21 99.99 212.35 99.14 C 212.49 98.28 211.92 97.48 211.07 97.34 L 210.16 97.19 C 209.31 97.05 208.50 97.62 208.36 98.47 C 208.22 99.32 208.80 100.13 209.65 100.27 Z M 210.55 100.42 L 211.52 100.58 C 212.37 100.73 213.18 100.16 213.32 99.31 C 213.47 98.46 212.90 97.65 212.05 97.51 L 211.07 97.34 C 210.22 97.20 209.42 97.77 209.27 98.62 C 209.13 99.47 209.70 100.27 210.55 100.42 Z M 211.51 100.58 L 212.53 100.76 C 213.38 100.92 214.19 100.35 214.34 99.50 C 214.49 98.65 213.93 97.84 213.08 97.69 L 212.06 97.51 C 211.21 97.36 210.40 97.92 210.25 98.77 C 210.09 99.62 210.66 100.43 211.51 100.58 Z M 212.51 100.76 L 213.57 100.96 C 214.42 101.12 215.23 100.57 215.39 99.72 C 215.55 98.87 215.00 98.05 214.15 97.89 L 213.09 97.69 C 212.25 97.53 211.43 98.09 211.27 98.94 C 211.11 99.78 211.67 100.60 212.51 100.76 Z M 213.55 100.96 L 214.61 101.17 C 215.46 101.35 216.28 100.80 216.45 99.96 C 216.62 99.11 216.08 98.29 215.23 98.11 L 214.17 97.90 C 213.33 97.73 212.50 98.27 212.33 99.12 C 212.16 99.96 212.70 100.79 213.55 100.96 Z M 214.59 101.17 L 215.63 101.39 C 216.47 101.57 217.30 101.04 217.48 100.20 C 217.66 99.35 217.13 98.52 216.28 98.34 L 215.25 98.12 C 214.41 97.94 213.58 98.47 213.40 99.31 C 213.21 100.16 213.75 100.99 214.59 101.17 Z M 215.63 101.39 L 216.65 101.61 C 217.49 101.79 218.32 101.26 218.50 100.42 C 218.68 99.57 218.15 98.74 217.31 98.56 L 216.28 98.34 C 215.44 98.16 214.61 98.69 214.43 99.54 C 214.25 100.38 214.78 101.21 215.63 101.39 Z M 216.67 101.62 L 217.67 101.82 C 218.51 101.99 219.34 101.44 219.51 100.60 C 219.68 99.75 219.13 98.93 218.28 98.76 L 217.29 98.56 C 216.44 98.39 215.62 98.93 215.45 99.78 C 215.28 100.62 215.82 101.45 216.67 101.62 Z M 217.71 101.83 L 218.67 101.99 C 219.52 102.14 220.33 101.57 220.48 100.72 C 220.62 99.87 220.05 99.06 219.20 98.92 L 218.24 98.75 C 217.39 98.60 216.58 99.17 216.44 100.02 C 216.29 100.87 216.86 101.68 217.71 101.83 Z M 218.75 102.00 L 219.66 102.12 C 220.52 102.22 221.30 101.62 221.40 100.76 C 221.51 99.91 220.90 99.13 220.05 99.02 L 219.13 98.91 C 218.28 98.80 217.50 99.41 217.39 100.26 C 217.28 101.12 217.89 101.90 218.75 102.00 Z M 219.78 102.13 L 220.82 102.18 C 221.68 102.22 222.41 101.55 222.45 100.69 C 222.49 99.83 221.82 99.10 220.96 99.06 L 219.93 99.01 C 219.07 98.97 218.33 99.63 218.30 100.50 C 218.26 101.36 218.92 102.09 219.78 102.13 Z M 220.97 102.18 L 222.00 102.12 C 222.87 102.08 223.53 101.35 223.49 100.49 C 223.44 99.63 222.71 98.96 221.85 99.01 L 220.81 99.06 C 219.95 99.10 219.29 99.83 219.33 100.69 C 219.37 101.55 220.11 102.22 220.97 102.18 Z M 222.13 102.11 L 223.10 101.98 C 223.96 101.87 224.56 101.08 224.44 100.23 C 224.33 99.37 223.54 98.77 222.69 98.89 L 221.72 99.02 C 220.86 99.13 220.26 99.92 220.38 100.77 C 220.49 101.63 221.28 102.23 222.13 102.11 Z M 223.19 101.97 L 224.11 101.79 C 224.96 101.63 225.51 100.81 225.35 99.97 C 225.19 99.12 224.37 98.56 223.53 98.73 L 222.60 98.90 C 221.75 99.06 221.20 99.88 221.36 100.73 C 221.52 101.57 222.34 102.13 223.19 101.97 Z M 224.14 101.79 L 224.62 101.69 C 225.46 101.51 226.00 100.68 225.82 99.84 C 225.65 98.99 224.82 98.45 223.97 98.63 L 223.50 98.73 C 222.65 98.91 222.11 99.74 222.29 100.58 C 222.47 101.43 223.30 101.96 224.14 101.79 Z"
      fill="black"
      fill-rule="nonzero" /><path d="M 93.50 165.13 L 94.45 165.27 C 95.30 165.40 96.10 164.82 96.23 163.97 C 96.36 163.11 95.77 162.32 94.92 162.19 L 93.98 162.04 C 93.12 161.91 92.33 162.49 92.20 163.35 C 92.07 164.20 92.65 165.00 93.50 165.13 Z M 94.47 165.28 L 95.44 165.41 C 96.29 165.53 97.08 164.93 97.20 164.08 C 97.32 163.22 96.72 162.43 95.87 162.32 L 94.90 162.18 C 94.05 162.06 93.26 162.66 93.14 163.52 C 93.02 164.37 93.62 165.16 94.47 165.28 Z M 95.48 165.41 L 96.50 165.53 C 97.35 165.62 98.13 165.00 98.22 164.15 C 98.31 163.29 97.70 162.52 96.84 162.42 L 95.82 162.31 C 94.97 162.22 94.20 162.83 94.10 163.69 C 94.01 164.55 94.63 165.32 95.48 165.41 Z M 96.55 165.53 L 97.58 165.61 C 98.44 165.67 99.19 165.03 99.26 164.17 C 99.32 163.31 98.67 162.56 97.81 162.49 L 96.78 162.42 C 95.92 162.35 95.17 163.00 95.11 163.86 C 95.05 164.72 95.69 165.47 96.55 165.53 Z M 97.63 165.61 L 98.63 165.65 C 99.49 165.69 100.22 165.02 100.26 164.15 C 100.29 163.29 99.62 162.57 98.76 162.53 L 97.76 162.49 C 96.90 162.46 96.17 163.13 96.14 163.99 C 96.10 164.85 96.77 165.58 97.63 165.61 Z M 98.67 165.65 L 99.69 165.67 C 100.55 165.69 101.26 165.00 101.28 164.14 C 101.29 163.28 100.61 162.57 99.75 162.55 L 98.73 162.53 C 97.86 162.51 97.15 163.20 97.14 164.06 C 97.12 164.92 97.80 165.64 98.67 165.65 Z M 99.71 165.67 L 100.72 165.68 C 101.58 165.68 102.28 164.99 102.29 164.13 C 102.29 163.27 101.60 162.56 100.74 162.56 L 99.73 162.55 C 98.86 162.54 98.16 163.24 98.15 164.10 C 98.15 164.96 98.84 165.67 99.71 165.67 Z M 100.73 165.68 L 101.73 165.68 C 102.59 165.68 103.29 164.98 103.29 164.12 C 103.29 163.26 102.59 162.56 101.73 162.56 L 100.73 162.56 C 99.87 162.56 99.17 163.25 99.17 164.12 C 99.16 164.98 99.86 165.68 100.73 165.68 Z M 101.73 165.68 L 102.77 165.68 C 103.63 165.68 104.33 164.98 104.33 164.12 C 104.33 163.26 103.63 162.56 102.77 162.56 L 101.73 162.56 C 100.86 162.56 100.17 163.26 100.17 164.12 C 100.17 164.98 100.86 165.68 101.73 165.68 Z M 102.77 165.68 L 103.76 165.68 C 104.62 165.68 105.32 164.98 105.32 164.12 C 105.32 163.26 104.62 162.56 103.76 162.56 L 102.77 162.56 C 101.91 162.56 101.21 163.26 101.21 164.12 C 101.21 164.98 101.91 165.68 102.77 165.68 Z M 103.76 165.68 L 104.73 165.68 C 105.59 165.68 106.29 164.98 106.29 164.12 C 106.29 163.26 105.59 162.56 104.73 162.56 L 103.76 162.56 C 102.90 162.56 102.20 163.26 102.20 164.12 C 102.20 164.98 102.90 165.68 103.76 165.68 Z M 104.73 165.68 L 105.67 165.68 C 106.53 165.68 107.23 164.98 107.23 164.12 C 107.23 163.26 106.53 162.56 105.67 162.56 L 104.72 162.56 C 103.86 162.56 103.16 163.26 103.16 164.12 C 103.16 164.98 103.86 165.68 104.73 165.68 Z M 105.67 165.68 L 106.62 165.67 C 107.48 165.67 108.18 164.97 108.17 164.11 C 108.17 163.24 107.47 162.55 106.61 162.55 L 105.66 162.56 C 104.80 162.56 104.10 163.26 104.10 164.13 C 104.11 164.99 104.81 165.68 105.67 165.68 Z M 106.64 165.67 L 107.64 165.66 C 108.50 165.64 109.18 164.93 109.17 164.07 C 109.16 163.21 108.45 162.52 107.58 162.54 L 106.59 162.55 C 105.73 162.57 105.04 163.28 105.05 164.14 C 105.07 165.00 105.78 165.69 106.64 165.67 Z M 107.66 165.66 L 108.73 165.62 C 109.59 165.59 110.27 164.87 110.24 164.01 C 110.21 163.15 109.49 162.47 108.63 162.50 L 107.56 162.54 C 106.70 162.57 106.02 163.29 106.05 164.15 C 106.08 165.01 106.80 165.69 107.66 165.66 Z M 108.76 165.62 L 109.70 165.57 C 110.56 165.53 111.22 164.80 111.18 163.93 C 111.13 163.07 110.40 162.41 109.54 162.45 L 108.60 162.50 C 107.74 162.55 107.08 163.28 107.12 164.14 C 107.16 165.00 107.90 165.66 108.76 165.62 Z M 109.72 165.57 L 110.65 165.51 C 111.51 165.46 112.16 164.71 112.11 163.85 C 112.05 162.99 111.31 162.34 110.45 162.40 L 109.52 162.46 C 108.66 162.51 108.00 163.25 108.06 164.11 C 108.11 164.98 108.86 165.63 109.72 165.57 Z M 110.67 165.51 L 111.66 165.44 C 112.51 165.37 113.16 164.62 113.09 163.76 C 113.03 162.90 112.28 162.26 111.42 162.32 L 110.43 162.40 C 109.57 162.46 108.93 163.21 108.99 164.07 C 109.06 164.93 109.81 165.58 110.67 165.51 Z M 111.67 165.44 L 112.71 165.35 C 113.57 165.28 114.20 164.52 114.13 163.66 C 114.06 162.80 113.31 162.16 112.45 162.24 L 111.41 162.32 C 110.55 162.40 109.91 163.15 109.98 164.01 C 110.05 164.87 110.81 165.51 111.67 165.44 Z M 112.72 165.35 L 113.81 165.25 C 114.66 165.17 115.30 164.41 115.22 163.55 C 115.14 162.69 114.38 162.06 113.52 162.14 L 112.44 162.24 C 111.58 162.32 110.94 163.07 111.02 163.93 C 111.10 164.79 111.86 165.43 112.72 165.35 Z M 113.81 165.25 L 114.78 165.16 C 115.64 165.07 116.27 164.31 116.18 163.45 C 116.10 162.59 115.34 161.97 114.48 162.05 L 113.52 162.14 C 112.66 162.22 112.03 162.98 112.11 163.84 C 112.19 164.70 112.96 165.33 113.81 165.25 Z M 114.78 165.16 L 115.72 165.06 C 116.58 164.98 117.21 164.21 117.12 163.35 C 117.04 162.50 116.27 161.87 115.42 161.95 L 114.48 162.05 C 113.62 162.13 112.99 162.90 113.08 163.76 C 113.16 164.61 113.92 165.24 114.78 165.16 Z M 115.73 165.06 L 116.70 164.96 C 117.56 164.88 118.18 164.11 118.09 163.25 C 118.01 162.40 117.24 161.77 116.38 161.86 L 115.41 161.95 C 114.56 162.04 113.93 162.81 114.02 163.67 C 114.10 164.52 114.87 165.15 115.73 165.06 Z M 116.70 164.96 L 117.70 164.86 C 118.56 164.77 119.18 164.01 119.09 163.15 C 119.01 162.29 118.24 161.67 117.38 161.76 L 116.38 161.86 C 115.53 161.94 114.90 162.71 114.99 163.57 C 115.08 164.43 115.84 165.05 116.70 164.96 Z M 117.70 164.86 L 118.73 164.76 C 119.58 164.67 120.21 163.90 120.12 163.05 C 120.04 162.19 119.27 161.56 118.41 161.65 L 117.38 161.76 C 116.53 161.84 115.90 162.61 115.99 163.47 C 116.08 164.32 116.84 164.95 117.70 164.86 Z M 118.73 164.76 L 119.78 164.65 C 120.64 164.57 121.27 163.80 121.18 162.94 C 121.09 162.08 120.33 161.46 119.47 161.54 L 118.41 161.65 C 117.56 161.74 116.93 162.50 117.02 163.36 C 117.10 164.22 117.87 164.84 118.73 164.76 Z M 119.78 164.65 L 120.80 164.55 C 121.66 164.47 122.28 163.70 122.20 162.85 C 122.11 161.99 121.35 161.36 120.49 161.44 L 119.47 161.54 C 118.62 161.63 117.99 162.39 118.07 163.25 C 118.16 164.11 118.92 164.74 119.78 164.65 Z M 120.79 164.55 L 121.78 164.46 C 122.63 164.38 123.26 163.61 123.18 162.75 C 123.10 161.90 122.34 161.27 121.48 161.35 L 120.50 161.44 C 119.64 161.53 119.01 162.29 119.09 163.15 C 119.17 164.01 119.94 164.63 120.79 164.55 Z M 121.77 164.46 L 122.77 164.36 C 123.63 164.28 124.26 163.52 124.18 162.66 C 124.10 161.80 123.33 161.17 122.48 161.26 L 121.48 161.35 C 120.62 161.43 119.99 162.19 120.07 163.05 C 120.15 163.91 120.92 164.54 121.77 164.46 Z M 122.77 164.36 L 123.77 164.27 C 124.63 164.19 125.26 163.43 125.18 162.57 C 125.10 161.71 124.34 161.08 123.48 161.16 L 122.48 161.26 C 121.62 161.34 120.99 162.10 121.07 162.96 C 121.15 163.81 121.91 164.44 122.77 164.36 Z M 123.77 164.27 L 124.78 164.17 C 125.64 164.09 126.27 163.33 126.19 162.47 C 126.11 161.62 125.35 160.99 124.49 161.07 L 123.48 161.16 C 122.62 161.24 121.99 162.00 122.07 162.86 C 122.15 163.72 122.92 164.35 123.77 164.27 Z M 124.78 164.17 L 125.79 164.08 C 126.64 164.00 127.28 163.24 127.19 162.38 C 127.11 161.52 126.35 160.89 125.49 160.97 L 124.49 161.07 C 123.63 161.15 123.00 161.91 123.08 162.77 C 123.16 163.62 123.92 164.26 124.78 164.17 Z M 125.79 164.08 L 126.78 163.99 C 127.64 163.90 128.27 163.14 128.19 162.28 C 128.11 161.43 127.35 160.80 126.49 160.88 L 125.49 160.97 C 124.63 161.05 124.00 161.81 124.09 162.67 C 124.17 163.53 124.93 164.16 125.79 164.08 Z M 126.79 163.99 L 127.78 163.89 C 128.64 163.81 129.27 163.04 129.18 162.19 C 129.10 161.33 128.34 160.70 127.48 160.78 L 126.49 160.88 C 125.63 160.96 125.00 161.72 125.08 162.58 C 125.16 163.44 125.93 164.07 126.79 163.99 Z M 127.78 163.89 L 128.77 163.79 C 129.63 163.71 130.25 162.95 130.17 162.09 C 130.09 161.23 129.32 160.60 128.46 160.69 L 127.48 160.78 C 126.62 160.87 125.99 161.63 126.07 162.49 C 126.16 163.35 126.92 163.97 127.78 163.89 Z M 128.77 163.79 L 129.75 163.70 C 130.61 163.61 131.24 162.85 131.15 161.99 C 131.07 161.13 130.30 160.50 129.44 160.59 L 128.46 160.69 C 127.60 160.77 126.98 161.54 127.06 162.39 C 127.15 163.25 127.91 163.88 128.77 163.79 Z M 129.75 163.70 L 130.73 163.60 C 131.59 163.51 132.22 162.75 132.13 161.89 C 132.05 161.03 131.28 160.41 130.42 160.49 L 129.44 160.59 C 128.58 160.67 127.96 161.44 128.04 162.30 C 128.13 163.16 128.89 163.78 129.75 163.70 Z M 130.73 163.60 L 131.72 163.50 C 132.58 163.41 133.20 162.65 133.12 161.79 C 133.03 160.93 132.27 160.31 131.41 160.39 L 130.42 160.49 C 129.56 160.58 128.94 161.34 129.02 162.20 C 129.11 163.06 129.88 163.68 130.73 163.60 Z M 131.72 163.50 L 132.72 163.40 C 133.58 163.31 134.20 162.54 134.12 161.69 C 134.03 160.83 133.27 160.20 132.41 160.29 L 131.41 160.39 C 130.55 160.48 129.92 161.24 130.01 162.10 C 130.10 162.96 130.86 163.59 131.72 163.50 Z M 132.72 163.40 L 133.74 163.29 C 134.60 163.21 135.22 162.44 135.14 161.58 C 135.05 160.73 134.28 160.10 133.43 160.19 L 132.41 160.29 C 131.55 160.38 130.92 161.14 131.01 162.00 C 131.10 162.86 131.86 163.48 132.72 163.40 Z M 133.74 163.29 L 134.75 163.19 C 135.61 163.10 136.23 162.34 136.15 161.48 C 136.06 160.62 135.29 160.00 134.44 160.09 L 133.43 160.19 C 132.57 160.27 131.94 161.04 132.03 161.90 C 132.12 162.76 132.88 163.38 133.74 163.29 Z M 134.75 163.19 L 135.76 163.09 C 136.62 163.00 137.24 162.24 137.16 161.38 C 137.07 160.52 136.30 159.90 135.45 159.98 L 134.44 160.09 C 133.58 160.17 132.95 160.94 133.04 161.80 C 133.13 162.65 133.89 163.28 134.75 163.19 Z M 135.76 163.09 L 136.78 162.99 C 137.64 162.90 138.26 162.13 138.18 161.27 C 138.09 160.42 137.32 159.79 136.47 159.88 L 135.45 159.98 C 134.59 160.07 133.96 160.84 134.05 161.69 C 134.14 162.55 134.90 163.18 135.76 163.09 Z M 136.78 162.99 L 137.80 162.88 C 138.66 162.79 139.28 162.03 139.20 161.17 C 139.11 160.31 138.34 159.69 137.48 159.77 L 136.47 159.88 C 135.61 159.97 134.98 160.73 135.07 161.59 C 135.16 162.45 135.93 163.07 136.78 162.99 Z M 137.80 162.88 L 138.81 162.78 C 139.67 162.69 140.29 161.92 140.21 161.06 C 140.12 160.21 139.35 159.58 138.49 159.67 L 137.48 159.77 C 136.63 159.86 136.00 160.63 136.09 161.49 C 136.18 162.35 136.95 162.97 137.80 162.88 Z M 138.82 162.78 L 139.80 162.67 C 140.66 162.58 141.28 161.81 141.19 160.96 C 141.10 160.10 140.34 159.48 139.48 159.57 L 138.49 159.67 C 137.63 159.76 137.01 160.53 137.10 161.39 C 137.19 162.24 137.96 162.87 138.82 162.78 Z M 139.81 162.67 L 140.77 162.57 C 141.62 162.48 142.24 161.71 142.15 160.85 C 142.06 159.99 141.29 159.37 140.43 159.47 L 139.48 159.57 C 138.62 159.66 138.00 160.43 138.09 161.29 C 138.18 162.14 138.95 162.76 139.81 162.67 Z M 140.77 162.57 L 141.77 162.46 C 142.63 162.37 143.24 161.60 143.15 160.74 C 143.06 159.88 142.29 159.26 141.43 159.36 L 140.43 159.47 C 139.57 159.56 138.95 160.33 139.05 161.19 C 139.14 162.04 139.91 162.66 140.77 162.57 Z M 141.77 162.46 L 142.83 162.34 C 143.69 162.24 144.30 161.47 144.21 160.62 C 144.11 159.76 143.34 159.14 142.48 159.24 L 141.42 159.36 C 140.57 159.45 139.95 160.23 140.05 161.08 C 140.14 161.94 140.92 162.56 141.77 162.46 Z M 142.84 162.34 L 143.85 162.22 C 144.70 162.13 145.32 161.35 145.22 160.50 C 145.12 159.64 144.35 159.02 143.49 159.12 L 142.48 159.24 C 141.62 159.34 141.01 160.11 141.11 160.97 C 141.20 161.82 141.98 162.44 142.84 162.34 Z M 143.85 162.22 L 144.82 162.11 C 145.68 162.01 146.29 161.23 146.19 160.38 C 146.09 159.52 145.32 158.91 144.46 159.01 L 143.49 159.12 C 142.63 159.22 142.02 160.00 142.12 160.85 C 142.22 161.71 142.99 162.32 143.85 162.22 Z M 144.82 162.11 L 145.78 162.00 C 146.64 161.90 147.25 161.12 147.15 160.26 C 147.05 159.41 146.27 158.80 145.41 158.90 L 144.46 159.01 C 143.60 159.11 142.99 159.89 143.09 160.74 C 143.19 161.60 143.97 162.21 144.82 162.11 Z M 145.78 162.00 L 146.73 161.89 C 147.58 161.79 148.20 161.01 148.10 160.15 C 147.99 159.30 147.22 158.68 146.36 158.79 L 145.41 158.90 C 144.56 159.00 143.95 159.77 144.05 160.63 C 144.15 161.49 144.92 162.10 145.78 162.00 Z M 146.73 161.89 L 147.68 161.78 C 148.53 161.68 149.15 160.90 149.05 160.04 C 148.95 159.19 148.17 158.57 147.31 158.67 L 146.36 158.78 C 145.51 158.88 144.89 159.66 144.99 160.52 C 145.09 161.37 145.87 161.99 146.73 161.89 Z M 147.67 161.78 L 148.63 161.67 C 149.49 161.57 150.10 160.79 150.01 159.94 C 149.91 159.08 149.13 158.46 148.28 158.56 L 147.32 158.67 C 146.46 158.77 145.85 159.55 145.94 160.40 C 146.04 161.26 146.82 161.87 147.67 161.78 Z M 148.63 161.67 L 149.61 161.55 C 150.46 161.46 151.08 160.68 150.98 159.83 C 150.88 158.97 150.11 158.35 149.25 158.45 L 148.28 158.56 C 147.42 158.66 146.81 159.43 146.90 160.29 C 147.00 161.15 147.78 161.76 148.63 161.67 Z M 149.61 161.55 L 150.60 161.44 C 151.46 161.34 152.07 160.57 151.97 159.71 C 151.88 158.86 151.10 158.24 150.25 158.34 L 149.25 158.45 C 148.40 158.55 147.78 159.32 147.88 160.18 C 147.98 161.04 148.75 161.65 149.61 161.55 Z M 150.60 161.44 L 151.61 161.33 C 152.46 161.23 153.08 160.46 152.98 159.60 C 152.88 158.74 152.11 158.13 151.25 158.22 L 150.25 158.34 C 149.39 158.44 148.77 159.21 148.87 160.07 C 148.97 160.92 149.74 161.54 150.60 161.44 Z M 151.61 161.33 L 152.63 161.21 C 153.49 161.11 154.11 160.34 154.01 159.48 C 153.91 158.62 153.14 158.01 152.28 158.11 L 151.25 158.22 C 150.40 158.32 149.78 159.10 149.88 159.95 C 149.98 160.81 150.75 161.42 151.61 161.33 Z M 152.64 161.21 L 153.64 161.09 C 154.50 160.99 155.11 160.22 155.02 159.36 C 154.92 158.51 154.14 157.89 153.29 157.99 L 152.28 158.11 C 151.42 158.21 150.81 158.98 150.91 159.84 C 151.00 160.69 151.78 161.31 152.64 161.21 Z M 153.65 161.09 L 154.62 160.98 C 155.48 160.88 156.09 160.10 155.99 159.25 C 155.89 158.39 155.12 157.78 154.26 157.88 L 153.28 157.99 C 152.43 158.09 151.81 158.87 151.91 159.72 C 152.01 160.58 152.79 161.19 153.65 161.09 Z M 154.63 160.98 L 155.61 160.86 C 156.47 160.76 157.08 159.98 156.98 159.13 C 156.88 158.27 156.10 157.66 155.25 157.76 L 154.26 157.88 C 153.40 157.98 152.79 158.76 152.89 159.61 C 152.99 160.47 153.77 161.08 154.63 160.98 Z M 155.62 160.86 L 156.62 160.74 C 157.47 160.64 158.08 159.86 157.98 159.00 C 157.87 158.15 157.10 157.54 156.24 157.64 L 155.24 157.76 C 154.39 157.86 153.78 158.64 153.88 159.50 C 153.98 160.35 154.76 160.96 155.62 160.86 Z M 156.62 160.74 L 157.62 160.62 C 158.48 160.51 159.08 159.73 158.98 158.88 C 158.87 158.02 158.09 157.41 157.24 157.52 L 156.24 157.64 C 155.38 157.75 154.77 158.53 154.88 159.38 C 154.98 160.24 155.76 160.85 156.62 160.74 Z M 157.63 160.62 L 158.63 160.49 C 159.48 160.38 160.09 159.60 159.98 158.74 C 159.87 157.89 159.09 157.28 158.23 157.39 L 157.23 157.52 C 156.38 157.63 155.77 158.41 155.88 159.26 C 155.99 160.12 156.77 160.72 157.63 160.62 Z M 158.63 160.49 L 159.63 160.36 C 160.49 160.25 161.09 159.46 160.98 158.61 C 160.87 157.75 160.08 157.15 159.23 157.26 L 158.23 157.39 C 157.37 157.50 156.77 158.29 156.88 159.14 C 156.99 160.00 157.78 160.60 158.63 160.49 Z M 159.64 160.36 L 160.65 160.22 C 161.51 160.10 162.11 159.32 161.99 158.46 C 161.88 157.61 161.09 157.01 160.24 157.12 L 159.22 157.26 C 158.37 157.38 157.77 158.16 157.88 159.02 C 158.00 159.87 158.79 160.47 159.64 160.36 Z M 160.66 160.22 L 161.67 160.08 C 162.52 159.96 163.12 159.17 163.00 158.32 C 162.88 157.47 162.10 156.87 161.24 156.99 L 160.23 157.13 C 159.38 157.24 158.78 158.03 158.90 158.89 C 159.02 159.74 159.81 160.34 160.66 160.22 Z M 161.67 160.08 L 162.67 159.94 C 163.53 159.82 164.12 159.03 164.00 158.18 C 163.88 157.32 163.09 156.73 162.24 156.85 L 161.24 156.99 C 160.38 157.11 159.79 157.89 159.91 158.75 C 160.03 159.60 160.82 160.20 161.67 160.08 Z M 162.67 159.94 L 163.66 159.80 C 164.52 159.68 165.11 158.89 164.99 158.04 C 164.87 157.18 164.08 156.59 163.23 156.71 L 162.24 156.85 C 161.38 156.97 160.79 157.76 160.91 158.61 C 161.03 159.46 161.82 160.06 162.67 159.94 Z M 163.66 159.80 L 164.64 159.66 C 165.49 159.55 166.09 158.76 165.97 157.90 C 165.85 157.05 165.06 156.45 164.21 156.57 L 163.23 156.71 C 162.38 156.83 161.78 157.61 161.90 158.47 C 162.02 159.32 162.81 159.92 163.66 159.80 Z M 164.63 159.67 L 165.60 159.53 C 166.46 159.42 167.05 158.63 166.94 157.78 C 166.82 156.92 166.04 156.32 165.18 156.44 L 164.21 156.57 C 163.36 156.69 162.76 157.47 162.88 158.33 C 162.99 159.18 163.78 159.78 164.63 159.67 Z M 165.59 159.54 L 166.59 159.40 C 167.44 159.29 168.04 158.51 167.93 157.65 C 167.82 156.80 167.04 156.20 166.18 156.31 L 165.19 156.44 C 164.33 156.55 163.73 157.34 163.84 158.19 C 163.96 159.05 164.74 159.65 165.59 159.54 Z M 166.58 159.41 L 167.59 159.28 C 168.45 159.17 169.05 158.39 168.94 157.53 C 168.84 156.68 168.06 156.07 167.20 156.18 L 166.19 156.31 C 165.33 156.42 164.73 157.20 164.84 158.05 C 164.94 158.91 165.72 159.51 166.58 159.41 Z M 167.58 159.28 L 168.58 159.16 C 169.44 159.05 170.05 158.27 169.94 157.42 C 169.84 156.56 169.06 155.95 168.21 156.06 L 167.21 156.18 C 166.35 156.28 165.74 157.06 165.85 157.92 C 165.95 158.77 166.73 159.38 167.58 159.28 Z M 168.58 159.16 L 169.57 159.04 C 170.42 158.94 171.04 158.16 170.93 157.31 C 170.83 156.45 170.06 155.84 169.20 155.94 L 168.21 156.06 C 167.35 156.16 166.74 156.93 166.84 157.79 C 166.95 158.65 167.72 159.26 168.58 159.16 Z M 169.56 159.04 L 170.54 158.93 C 171.40 158.83 172.01 158.05 171.91 157.19 C 171.81 156.34 171.04 155.72 170.18 155.82 L 169.20 155.94 C 168.35 156.04 167.73 156.81 167.83 157.67 C 167.93 158.53 168.71 159.14 169.56 159.04 Z M 170.54 158.93 L 171.52 158.81 C 172.37 158.72 172.99 157.94 172.89 157.08 C 172.79 156.23 172.02 155.61 171.16 155.71 L 170.19 155.82 C 169.33 155.92 168.71 156.70 168.81 157.55 C 168.91 158.41 169.69 159.02 170.54 158.93 Z M 171.52 158.81 L 172.52 158.70 C 173.37 158.60 173.99 157.83 173.89 156.97 C 173.79 156.11 173.02 155.50 172.16 155.60 L 171.16 155.71 C 170.30 155.81 169.69 156.58 169.79 157.44 C 169.89 158.30 170.66 158.91 171.52 158.81 Z M 172.52 158.70 L 173.53 158.58 C 174.39 158.48 175.00 157.71 174.90 156.85 C 174.80 156.00 174.03 155.38 173.17 155.48 L 172.16 155.60 C 171.30 155.70 170.69 156.47 170.79 157.33 C 170.89 158.18 171.66 158.80 172.52 158.70 Z M 173.53 158.58 L 174.54 158.46 C 175.39 158.37 176.01 157.59 175.91 156.73 C 175.81 155.88 175.03 155.26 174.18 155.36 L 173.17 155.48 C 172.32 155.58 171.70 156.36 171.80 157.21 C 171.90 158.07 172.68 158.68 173.53 158.58 Z M 174.54 158.46 L 175.53 158.35 C 176.39 158.25 177.00 157.47 176.90 156.61 C 176.80 155.76 176.03 155.15 175.17 155.25 L 174.17 155.36 C 173.32 155.46 172.71 156.24 172.81 157.10 C 172.91 157.95 173.68 158.57 174.54 158.46 Z M 175.54 158.35 L 176.52 158.23 C 177.37 158.13 177.98 157.35 177.88 156.49 C 177.78 155.64 177.00 155.03 176.15 155.13 L 175.17 155.25 C 174.31 155.35 173.70 156.13 173.80 156.98 C 173.90 157.84 174.68 158.45 175.54 158.35 Z M 176.52 158.23 L 177.48 158.11 C 178.34 158.01 178.95 157.23 178.84 156.37 C 178.74 155.52 177.96 154.91 177.10 155.01 L 176.14 155.13 C 175.29 155.23 174.68 156.01 174.78 156.87 C 174.88 157.72 175.66 158.33 176.52 158.23 Z M 177.48 158.11 L 178.55 157.98 C 179.40 157.87 180.01 157.09 179.91 156.24 C 179.80 155.38 179.02 154.77 178.16 154.88 L 177.10 155.01 C 176.24 155.12 175.64 155.90 175.74 156.76 C 175.85 157.61 176.63 158.22 177.48 158.11 Z M 178.55 157.98 L 179.59 157.85 C 180.44 157.74 181.05 156.96 180.94 156.10 C 180.83 155.25 180.05 154.64 179.20 154.75 L 178.16 154.88 C 177.31 154.99 176.70 155.77 176.81 156.63 C 176.92 157.48 177.70 158.09 178.55 157.98 Z M 179.59 157.85 L 180.59 157.72 C 181.44 157.61 182.05 156.83 181.94 155.98 C 181.83 155.12 181.05 154.52 180.19 154.62 L 179.20 154.75 C 178.34 154.86 177.73 155.64 177.84 156.50 C 177.95 157.35 178.73 157.96 179.59 157.85 Z M 180.58 157.72 L 181.54 157.60 C 182.39 157.50 183.00 156.72 182.89 155.86 C 182.79 155.00 182.01 154.40 181.15 154.51 L 180.20 154.62 C 179.34 154.73 178.73 155.51 178.84 156.37 C 178.95 157.22 179.73 157.83 180.58 157.72 Z M 181.53 157.60 L 182.44 157.49 C 183.30 157.39 183.91 156.61 183.80 155.75 C 183.70 154.90 182.92 154.29 182.06 154.39 L 181.16 154.50 C 180.30 154.61 179.69 155.39 179.79 156.24 C 179.90 157.10 180.68 157.71 181.53 157.60 Z M 182.43 157.49 L 183.53 157.37 C 184.38 157.27 185.00 156.49 184.90 155.64 C 184.80 154.78 184.02 154.17 183.17 154.27 L 182.07 154.39 C 181.22 154.49 180.60 155.27 180.70 156.12 C 180.80 156.98 181.58 157.59 182.43 157.49 Z M 183.52 157.37 L 184.53 157.26 C 185.39 157.16 186.01 156.39 185.92 155.54 C 185.82 154.68 185.05 154.06 184.20 154.15 L 183.18 154.26 C 182.32 154.36 181.70 155.13 181.80 155.99 C 181.89 156.84 182.66 157.46 183.52 157.37 Z M 184.53 157.26 L 185.48 157.16 C 186.33 157.07 186.96 156.30 186.87 155.45 C 186.78 154.59 186.01 153.97 185.15 154.05 L 184.20 154.15 C 183.35 154.24 182.72 155.01 182.81 155.87 C 182.90 156.72 183.67 157.35 184.53 157.26 Z M 185.47 157.16 L 186.38 157.07 C 187.23 156.99 187.86 156.22 187.78 155.36 C 187.69 154.51 186.93 153.88 186.07 153.96 L 185.16 154.05 C 184.30 154.14 183.68 154.90 183.76 155.76 C 183.85 156.62 184.61 157.25 185.47 157.16 Z M 186.37 157.07 L 187.31 156.98 C 188.17 156.90 188.80 156.14 188.72 155.28 C 188.64 154.42 187.87 153.79 187.01 153.87 L 186.07 153.96 C 185.22 154.04 184.59 154.81 184.67 155.67 C 184.75 156.52 185.51 157.15 186.37 157.07 Z M 187.30 156.98 L 188.26 156.90 C 189.12 156.83 189.75 156.07 189.68 155.21 C 189.60 154.35 188.85 153.72 187.99 153.79 L 187.03 153.87 C 186.17 153.95 185.53 154.70 185.61 155.56 C 185.68 156.42 186.44 157.06 187.30 156.98 Z M 188.24 156.90 L 189.29 156.82 C 190.15 156.76 190.79 156.01 190.73 155.15 C 190.66 154.29 189.91 153.65 189.05 153.71 L 188.01 153.79 C 187.15 153.85 186.50 154.60 186.57 155.46 C 186.63 156.32 187.38 156.97 188.24 156.90 Z M 189.27 156.82 L 190.27 156.76 C 191.13 156.70 191.78 155.96 191.73 155.10 C 191.67 154.24 190.93 153.59 190.07 153.64 L 189.07 153.71 C 188.21 153.76 187.56 154.51 187.61 155.37 C 187.67 156.23 188.41 156.88 189.27 156.82 Z M 190.26 156.76 L 191.24 156.71 C 192.10 156.66 192.76 155.92 192.71 155.06 C 192.67 154.20 191.93 153.54 191.07 153.59 L 190.08 153.64 C 189.22 153.69 188.56 154.43 188.61 155.29 C 188.66 156.15 189.40 156.81 190.26 156.76 Z M 191.23 156.71 L 192.26 156.66 C 193.12 156.61 193.78 155.88 193.74 155.02 C 193.70 154.16 192.97 153.50 192.11 153.54 L 191.08 153.59 C 190.22 153.63 189.55 154.36 189.60 155.22 C 189.64 156.08 190.37 156.75 191.23 156.71 Z M 192.25 156.66 L 193.28 156.61 C 194.14 156.58 194.81 155.85 194.77 154.99 C 194.74 154.13 194.01 153.46 193.15 153.49 L 192.12 153.54 C 191.26 153.57 190.59 154.30 190.62 155.16 C 190.66 156.02 191.39 156.69 192.25 156.66 Z M 193.26 156.61 L 194.27 156.58 C 195.13 156.55 195.81 155.83 195.78 154.97 C 195.75 154.11 195.03 153.43 194.17 153.46 L 193.16 153.49 C 192.30 153.52 191.63 154.24 191.65 155.11 C 191.68 155.97 192.40 156.64 193.26 156.61 Z M 194.25 156.58 L 195.35 156.56 C 196.21 156.55 196.89 155.83 196.88 154.97 C 196.86 154.11 196.15 153.42 195.29 153.44 L 194.19 153.46 C 193.33 153.48 192.65 154.19 192.66 155.05 C 192.68 155.91 193.39 156.60 194.25 156.58 Z M 195.30 156.56 L 196.31 156.57 C 197.17 156.58 197.88 155.89 197.89 155.03 C 197.90 154.17 197.21 153.46 196.35 153.45 L 195.33 153.44 C 194.47 153.43 193.77 154.12 193.76 154.98 C 193.75 155.85 194.44 156.55 195.30 156.56 Z M 196.24 156.57 L 197.19 156.63 C 198.05 156.68 198.79 156.03 198.84 155.16 C 198.89 154.30 198.24 153.56 197.37 153.51 L 196.43 153.45 C 195.56 153.40 194.82 154.06 194.77 154.92 C 194.72 155.78 195.38 156.52 196.24 156.57 Z M 197.08 156.62 L 198.01 156.74 C 198.86 156.85 199.64 156.25 199.76 155.40 C 199.87 154.54 199.27 153.76 198.41 153.65 L 197.48 153.52 C 196.63 153.41 195.84 154.01 195.73 154.87 C 195.62 155.72 196.22 156.51 197.08 156.62 Z M 197.85 156.71 L 198.85 156.95 C 199.69 157.15 200.53 156.63 200.73 155.79 C 200.92 154.95 200.41 154.11 199.57 153.91 L 198.57 153.67 C 197.73 153.48 196.89 153.99 196.69 154.83 C 196.49 155.67 197.01 156.51 197.85 156.71 Z M 198.64 156.88 L 199.56 157.24 C 200.36 157.56 201.27 157.16 201.58 156.36 C 201.90 155.56 201.50 154.65 200.70 154.34 L 199.78 153.98 C 198.97 153.66 198.07 154.06 197.75 154.86 C 197.44 155.66 197.83 156.57 198.64 156.88 Z M 199.31 157.12 L 200.13 157.63 C 200.87 158.08 201.83 157.86 202.28 157.13 C 202.74 156.39 202.51 155.43 201.78 154.98 L 200.95 154.46 C 200.22 154.01 199.26 154.24 198.80 154.97 C 198.35 155.70 198.57 156.66 199.31 157.12 Z M 199.86 157.42 L 200.62 158.16 C 201.24 158.76 202.23 158.75 202.83 158.14 C 203.43 157.52 203.42 156.53 202.81 155.93 L 202.05 155.19 C 201.43 154.58 200.44 154.60 199.84 155.21 C 199.24 155.83 199.25 156.82 199.86 157.42 Z M 200.38 157.86 L 200.92 158.73 C 201.37 159.47 202.33 159.70 203.06 159.25 C 203.80 158.80 204.03 157.84 203.58 157.10 L 203.05 156.23 C 202.60 155.50 201.64 155.26 200.90 155.71 C 200.17 156.16 199.93 157.12 200.38 157.86 Z M 200.72 158.25 L 200.92 159.15 C 201.11 159.99 201.94 160.52 202.78 160.33 C 203.62 160.15 204.16 159.32 203.97 158.47 L 203.77 157.58 C 203.59 156.74 202.75 156.21 201.91 156.39 C 201.07 156.58 200.54 157.41 200.72 158.25 Z M 200.94 158.39 L 200.70 159.26 C 200.47 160.09 200.96 160.95 201.79 161.18 C 202.62 161.40 203.48 160.92 203.71 160.09 L 203.95 159.22 C 204.18 158.39 203.69 157.53 202.86 157.30 C 202.03 157.08 201.17 157.56 200.94 158.39 Z M 200.96 158.73 L 200.37 159.52 C 199.85 160.21 199.99 161.19 200.68 161.71 C 201.37 162.23 202.35 162.09 202.86 161.40 L 203.46 160.61 C 203.97 159.92 203.83 158.94 203.15 158.42 C 202.46 157.90 201.48 158.04 200.96 158.73 Z M 200.52 159.34 L 199.78 160.08 C 199.16 160.68 199.15 161.67 199.75 162.28 C 200.35 162.90 201.34 162.91 201.96 162.31 L 202.71 161.58 C 203.32 160.97 203.33 159.98 202.73 159.37 C 202.13 158.75 201.14 158.74 200.52 159.34 Z"
      fill="black"
      fill-rule="nonzero" /><path d="M 62.64 244.37 L 61.42 244.91 C 60.63 245.26 60.28 246.18 60.63 246.97 C 60.98 247.76 61.90 248.11 62.69 247.76 L 63.91 247.22 C 64.70 246.87 65.05 245.95 64.70 245.16 C 64.35 244.37 63.43 244.02 62.64 244.37 Z M 61.10 245.10 L 60.67 245.44 C 59.99 245.97 59.87 246.95 60.40 247.63 C 60.93 248.31 61.91 248.43 62.59 247.90 L 63.02 247.57 C 63.70 247.04 63.82 246.05 63.29 245.37 C 62.76 244.69 61.78 244.57 61.10 245.10 Z M 61.57 248.23 L 62.05 248.25 C 62.91 248.28 63.63 247.60 63.66 246.74 C 63.69 245.88 63.02 245.15 62.15 245.12 L 61.68 245.11 C 60.82 245.08 60.10 245.75 60.07 246.61 C 60.04 247.48 60.71 248.20 61.57 248.23 Z M 62.32 248.23 L 63.27 248.10 C 64.12 247.98 64.72 247.19 64.60 246.34 C 64.48 245.48 63.69 244.89 62.83 245.01 L 61.88 245.14 C 61.03 245.26 60.43 246.05 60.55 246.90 C 60.67 247.76 61.46 248.35 62.32 248.23 Z M 63.36 248.08 L 64.64 247.83 C 65.48 247.66 66.03 246.84 65.86 245.99 C 65.69 245.15 64.87 244.60 64.03 244.77 L 62.74 245.02 C 61.90 245.19 61.35 246.01 61.52 246.86 C 61.69 247.70 62.51 248.25 63.36 248.08 Z M 64.70 247.81 L 65.84 247.54 C 66.68 247.34 67.20 246.50 67.00 245.66 C 66.80 244.82 65.95 244.30 65.11 244.50 L 63.97 244.78 C 63.13 244.98 62.61 245.82 62.81 246.66 C 63.01 247.50 63.86 248.02 64.70 247.81 Z M 65.88 247.53 L 66.84 247.28 C 67.67 247.05 68.17 246.20 67.95 245.37 C 67.73 244.53 66.87 244.04 66.04 244.26 L 65.08 244.51 C 64.24 244.73 63.75 245.59 63.97 246.42 C 64.19 247.25 65.05 247.75 65.88 247.53 Z M 66.86 247.27 L 67.84 247.00 C 68.67 246.77 69.15 245.91 68.92 245.08 C 68.69 244.24 67.83 243.76 67.00 243.99 L 66.02 244.26 C 65.19 244.49 64.70 245.35 64.93 246.19 C 65.16 247.02 66.03 247.50 66.86 247.27 Z M 67.84 247.00 L 68.82 246.72 C 69.65 246.48 70.14 245.62 69.90 244.79 C 69.67 243.96 68.80 243.48 67.97 243.71 L 66.99 243.99 C 66.16 244.23 65.68 245.09 65.91 245.92 C 66.15 246.75 67.01 247.23 67.84 247.00 Z M 68.82 246.72 L 69.79 246.45 C 70.62 246.21 71.10 245.35 70.87 244.52 C 70.64 243.69 69.78 243.21 68.95 243.44 L 67.98 243.71 C 67.15 243.95 66.66 244.81 66.90 245.64 C 67.13 246.47 67.99 246.95 68.82 246.72 Z M 69.78 246.45 L 70.74 246.19 C 71.57 245.97 72.06 245.11 71.83 244.28 C 71.61 243.44 70.75 242.95 69.92 243.18 L 68.96 243.44 C 68.13 243.66 67.64 244.52 67.86 245.35 C 68.09 246.18 68.94 246.68 69.78 246.45 Z M 70.71 246.20 L 71.69 245.95 C 72.53 245.74 73.03 244.89 72.82 244.05 C 72.61 243.22 71.76 242.71 70.93 242.92 L 69.95 243.17 C 69.11 243.38 68.60 244.23 68.81 245.07 C 69.03 245.90 69.87 246.41 70.71 246.20 Z M 71.66 245.96 L 72.62 245.73 C 73.46 245.54 73.98 244.70 73.79 243.86 C 73.59 243.02 72.75 242.50 71.91 242.69 L 70.95 242.92 C 70.11 243.11 69.59 243.95 69.79 244.79 C 69.98 245.63 70.82 246.15 71.66 245.96 Z M 72.59 245.74 L 73.55 245.53 C 74.40 245.35 74.93 244.52 74.75 243.68 C 74.57 242.83 73.74 242.30 72.89 242.48 L 71.94 242.69 C 71.09 242.87 70.56 243.70 70.74 244.54 C 70.92 245.38 71.75 245.92 72.59 245.74 Z M 73.53 245.54 L 74.51 245.34 C 75.35 245.17 75.90 244.35 75.73 243.51 C 75.56 242.66 74.74 242.11 73.90 242.28 L 72.92 242.47 C 72.07 242.64 71.52 243.46 71.69 244.31 C 71.86 245.16 72.68 245.70 73.53 245.54 Z M 74.49 245.35 L 75.46 245.16 C 76.31 245.01 76.87 244.19 76.71 243.34 C 76.55 242.50 75.73 241.94 74.89 242.09 L 73.92 242.28 C 73.07 242.43 72.51 243.25 72.67 244.10 C 72.82 244.94 73.64 245.50 74.49 245.35 Z M 75.44 245.17 L 76.36 245.00 C 77.21 244.86 77.78 244.05 77.63 243.20 C 77.48 242.35 76.67 241.78 75.82 241.93 L 74.90 242.09 C 74.05 242.24 73.49 243.05 73.64 243.90 C 73.78 244.75 74.59 245.32 75.44 245.17 Z M 76.35 245.01 L 77.31 244.85 C 78.16 244.71 78.73 243.90 78.59 243.05 C 78.45 242.20 77.64 241.63 76.79 241.77 L 75.84 241.93 C 74.99 242.07 74.41 242.87 74.55 243.72 C 74.69 244.57 75.50 245.15 76.35 245.01 Z M 77.29 244.85 L 78.28 244.69 C 79.14 244.56 79.72 243.76 79.58 242.91 C 79.45 242.06 78.65 241.48 77.80 241.61 L 76.81 241.77 C 75.96 241.90 75.37 242.70 75.51 243.55 C 75.64 244.40 76.44 244.98 77.29 244.85 Z M 78.27 244.70 L 79.29 244.55 C 80.15 244.42 80.74 243.63 80.61 242.77 C 80.48 241.92 79.69 241.33 78.84 241.46 L 77.81 241.61 C 76.96 241.73 76.37 242.53 76.50 243.38 C 76.62 244.23 77.42 244.82 78.27 244.70 Z M 79.28 244.55 L 80.33 244.40 C 81.18 244.28 81.78 243.50 81.66 242.64 C 81.54 241.79 80.76 241.19 79.90 241.31 L 78.85 241.45 C 78.00 241.57 77.40 242.36 77.52 243.21 C 77.64 244.07 78.42 244.67 79.28 244.55 Z M 80.31 244.40 L 81.31 244.28 C 82.16 244.17 82.77 243.39 82.66 242.53 C 82.55 241.67 81.77 241.07 80.91 241.18 L 79.92 241.31 C 79.06 241.42 78.46 242.20 78.57 243.05 C 78.68 243.91 79.46 244.51 80.31 244.40 Z M 81.30 244.28 L 82.26 244.16 C 83.12 244.06 83.73 243.28 83.63 242.43 C 83.53 241.57 82.75 240.96 81.89 241.06 L 80.92 241.18 C 80.07 241.28 79.46 242.06 79.56 242.91 C 79.66 243.77 80.44 244.38 81.30 244.28 Z M 82.25 244.16 L 83.24 244.05 C 84.09 243.96 84.71 243.18 84.61 242.33 C 84.52 241.47 83.74 240.85 82.89 240.95 L 81.90 241.06 C 81.05 241.16 80.43 241.93 80.53 242.79 C 80.62 243.64 81.40 244.26 82.25 244.16 Z M 83.23 244.05 L 84.22 243.95 C 85.08 243.86 85.70 243.09 85.61 242.23 C 85.52 241.37 84.75 240.75 83.89 240.84 L 82.90 240.95 C 82.04 241.04 81.42 241.81 81.51 242.67 C 81.60 243.52 82.37 244.15 83.23 244.05 Z M 84.21 243.95 L 85.22 243.85 C 86.08 243.76 86.71 243.00 86.62 242.14 C 86.53 241.28 85.77 240.66 84.91 240.74 L 83.90 240.84 C 83.04 240.93 82.42 241.69 82.50 242.55 C 82.59 243.41 83.36 244.04 84.21 243.95 Z M 85.21 243.85 L 86.23 243.75 C 87.09 243.67 87.72 242.91 87.64 242.05 C 87.56 241.19 86.79 240.56 85.94 240.64 L 84.92 240.74 C 84.06 240.82 83.43 241.59 83.51 242.44 C 83.59 243.30 84.36 243.93 85.21 243.85 Z M 86.23 243.75 L 87.24 243.66 C 88.10 243.58 88.73 242.82 88.65 241.96 C 88.58 241.10 87.82 240.47 86.96 240.55 L 85.94 240.64 C 85.08 240.72 84.45 241.48 84.53 242.34 C 84.61 243.20 85.37 243.83 86.23 243.75 Z M 87.24 243.66 L 88.22 243.57 C 89.08 243.50 89.72 242.74 89.64 241.88 C 89.57 241.02 88.81 240.39 87.95 240.46 L 86.96 240.55 C 86.10 240.62 85.47 241.38 85.54 242.24 C 85.62 243.10 86.38 243.74 87.24 243.66 Z M 88.22 243.58 L 89.21 243.49 C 90.07 243.42 90.71 242.66 90.64 241.80 C 90.56 240.94 89.81 240.30 88.95 240.37 L 87.95 240.46 C 87.09 240.53 86.46 241.29 86.53 242.15 C 86.60 243.01 87.36 243.65 88.22 243.58 Z M 89.21 243.49 L 90.21 243.41 C 91.07 243.34 91.71 242.58 91.64 241.72 C 91.56 240.86 90.81 240.22 89.95 240.29 L 88.95 240.37 C 88.09 240.44 87.45 241.20 87.52 242.06 C 87.59 242.92 88.35 243.57 89.21 243.49 Z M 90.20 243.41 L 91.20 243.33 C 92.07 243.26 92.71 242.50 92.64 241.64 C 92.57 240.78 91.81 240.14 90.95 240.21 L 89.95 240.29 C 89.09 240.36 88.44 241.11 88.51 241.98 C 88.58 242.84 89.34 243.48 90.20 243.41 Z M 91.20 243.33 L 92.20 243.25 C 93.07 243.18 93.71 242.43 93.64 241.56 C 93.57 240.70 92.81 240.06 91.95 240.12 L 90.95 240.20 C 90.09 240.27 89.44 241.03 89.51 241.89 C 89.58 242.76 90.34 243.40 91.20 243.33 Z M 92.20 243.25 L 93.20 243.17 C 94.07 243.11 94.71 242.35 94.64 241.48 C 94.58 240.62 93.82 239.97 92.95 240.04 L 91.95 240.12 C 91.09 240.19 90.44 240.95 90.51 241.81 C 90.58 242.68 91.34 243.32 92.20 243.25 Z M 93.20 243.18 L 94.22 243.10 C 95.08 243.03 95.73 242.27 95.66 241.40 C 95.59 240.54 94.83 239.89 93.97 239.96 L 92.95 240.04 C 92.09 240.11 91.44 240.87 91.51 241.73 C 91.58 242.60 92.34 243.24 93.20 243.18 Z M 94.22 243.10 L 95.24 243.02 C 96.10 242.95 96.75 242.19 96.68 241.32 C 96.61 240.46 95.85 239.81 94.99 239.88 L 93.97 239.96 C 93.10 240.03 92.45 240.79 92.52 241.65 C 92.59 242.52 93.35 243.17 94.22 243.10 Z M 95.24 243.02 L 96.25 242.94 C 97.12 242.87 97.77 242.11 97.70 241.24 C 97.63 240.37 96.87 239.73 96.00 239.80 L 94.99 239.88 C 94.12 239.95 93.47 240.71 93.54 241.57 C 93.61 242.44 94.37 243.09 95.24 243.02 Z M 96.25 242.94 L 97.26 242.86 C 98.13 242.79 98.78 242.03 98.71 241.16 C 98.64 240.29 97.87 239.64 97.01 239.71 L 96.00 239.79 C 95.13 239.86 94.49 240.62 94.56 241.49 C 94.63 242.36 95.39 243.01 96.25 242.94 Z M 97.26 242.86 L 98.26 242.78 C 99.12 242.71 99.77 241.94 99.70 241.08 C 99.63 240.21 98.87 239.56 98.00 239.63 L 97.01 239.71 C 96.14 239.78 95.49 240.54 95.56 241.41 C 95.63 242.28 96.39 242.93 97.26 242.86 Z M 98.26 242.78 L 99.24 242.70 C 100.11 242.63 100.75 241.86 100.68 240.99 C 100.61 240.12 99.84 239.48 98.98 239.55 L 98.00 239.63 C 97.13 239.70 96.48 240.47 96.55 241.33 C 96.63 242.20 97.39 242.85 98.26 242.78 Z M 99.24 242.70 L 100.20 242.62 C 101.07 242.54 101.71 241.78 101.64 240.91 C 101.57 240.04 100.80 239.39 99.93 239.47 L 98.97 239.55 C 98.10 239.62 97.46 240.39 97.53 241.26 C 97.60 242.13 98.37 242.77 99.24 242.70 Z M 100.20 242.62 L 101.18 242.53 C 102.06 242.46 102.70 241.69 102.62 240.82 C 102.55 239.95 101.78 239.30 100.91 239.38 L 99.93 239.46 C 99.06 239.54 98.41 240.31 98.49 241.18 C 98.56 242.05 99.33 242.69 100.20 242.62 Z M 101.19 242.54 L 102.16 242.45 C 103.03 242.37 103.68 241.60 103.60 240.73 C 103.52 239.86 102.75 239.21 101.88 239.29 L 100.91 239.38 C 100.04 239.46 99.39 240.22 99.47 241.10 C 99.55 241.97 100.32 242.61 101.19 242.54 Z M 102.16 242.45 L 103.13 242.36 C 104.01 242.29 104.65 241.51 104.57 240.64 C 104.49 239.77 103.72 239.12 102.85 239.20 L 101.88 239.29 C 101.01 239.37 100.36 240.14 100.44 241.01 C 100.52 241.89 101.29 242.53 102.16 242.45 Z M 103.14 242.37 L 104.12 242.28 C 104.99 242.20 105.63 241.43 105.56 240.55 C 105.48 239.68 104.70 239.03 103.83 239.11 L 102.85 239.20 C 101.98 239.28 101.33 240.05 101.41 240.93 C 101.49 241.80 102.26 242.44 103.14 242.37 Z M 104.12 242.28 L 105.12 242.19 C 105.99 242.11 106.64 241.34 106.56 240.46 C 106.48 239.59 105.71 238.94 104.83 239.02 L 103.83 239.11 C 102.95 239.19 102.31 239.96 102.39 240.84 C 102.47 241.71 103.24 242.36 104.12 242.28 Z M 105.12 242.19 L 106.15 242.10 C 107.03 242.02 107.68 241.24 107.60 240.37 C 107.52 239.49 106.74 238.85 105.87 238.93 L 104.83 239.02 C 103.96 239.10 103.31 239.87 103.39 240.75 C 103.47 241.62 104.24 242.27 105.12 242.19 Z M 106.15 242.10 L 107.11 242.01 C 107.98 241.94 108.63 241.16 108.55 240.28 C 108.47 239.41 107.70 238.76 106.82 238.84 L 105.87 238.92 C 104.99 239.00 104.35 239.78 104.42 240.65 C 104.50 241.53 105.28 242.18 106.15 242.10 Z M 107.10 242.01 L 108.02 241.93 C 108.90 241.86 109.55 241.08 109.47 240.21 C 109.39 239.33 108.62 238.68 107.74 238.76 L 106.82 238.84 C 105.95 238.91 105.30 239.69 105.37 240.57 C 105.45 241.44 106.23 242.09 107.10 242.01 Z M 108.02 241.93 L 108.97 241.85 C 109.85 241.78 110.50 241.00 110.42 240.12 C 110.35 239.25 109.57 238.60 108.70 238.67 L 107.75 238.76 C 106.87 238.83 106.22 239.61 106.29 240.48 C 106.37 241.36 107.14 242.01 108.02 241.93 Z M 108.97 241.85 L 109.95 241.77 C 110.83 241.69 111.48 240.92 111.41 240.04 C 111.33 239.16 110.56 238.51 109.68 238.59 L 108.70 238.67 C 107.82 238.75 107.17 239.52 107.24 240.40 C 107.32 241.28 108.09 241.93 108.97 241.85 Z M 109.95 241.77 L 110.96 241.68 C 111.84 241.61 112.49 240.84 112.42 239.96 C 112.34 239.08 111.57 238.43 110.69 238.50 L 109.68 238.59 C 108.80 238.66 108.15 239.43 108.22 240.31 C 108.30 241.19 109.07 241.84 109.95 241.77 Z M 110.96 241.69 L 111.99 241.60 C 112.87 241.53 113.53 240.75 113.46 239.87 C 113.38 238.99 112.61 238.34 111.73 238.41 L 110.69 238.50 C 109.81 238.57 109.16 239.35 109.23 240.23 C 109.31 241.11 110.08 241.76 110.96 241.69 Z M 111.99 241.60 L 113.05 241.51 C 113.93 241.44 114.59 240.67 114.52 239.79 C 114.45 238.91 113.67 238.25 112.79 238.33 L 111.73 238.41 C 110.85 238.48 110.20 239.26 110.27 240.14 C 110.34 241.02 111.11 241.67 111.99 241.60 Z M 113.05 241.52 L 114.13 241.43 C 115.01 241.36 115.67 240.59 115.60 239.71 C 115.53 238.83 114.76 238.17 113.88 238.24 L 112.80 238.33 C 111.92 238.40 111.26 239.17 111.33 240.05 C 111.40 240.93 112.17 241.59 113.05 241.52 Z M 114.13 241.43 L 115.08 241.36 C 115.96 241.29 116.62 240.52 116.55 239.63 C 116.48 238.75 115.71 238.09 114.83 238.16 L 113.88 238.24 C 113.00 238.31 112.34 239.08 112.41 239.96 C 112.48 240.84 113.25 241.50 114.13 241.43 Z M 115.08 241.36 L 116.05 241.28 C 116.93 241.21 117.59 240.44 117.52 239.56 C 117.45 238.68 116.68 238.02 115.80 238.09 L 114.83 238.16 C 113.95 238.23 113.29 239.00 113.36 239.88 C 113.43 240.76 114.20 241.42 115.08 241.36 Z M 116.04 241.28 L 117.03 241.21 C 117.91 241.14 118.57 240.37 118.50 239.49 C 118.43 238.60 117.66 237.94 116.78 238.01 L 115.80 238.09 C 114.92 238.15 114.26 238.92 114.32 239.81 C 114.39 240.69 115.16 241.35 116.04 241.28 Z M 117.02 241.21 L 118.02 241.13 C 118.90 241.07 119.56 240.30 119.50 239.41 C 119.43 238.53 118.66 237.87 117.78 237.94 L 116.78 238.01 C 115.90 238.08 115.24 238.85 115.30 239.73 C 115.37 240.61 116.14 241.28 117.02 241.21 Z M 118.02 241.14 L 119.02 241.06 C 119.90 240.99 120.57 240.22 120.50 239.34 C 120.43 238.46 119.66 237.79 118.78 237.86 L 117.78 237.93 C 116.89 238.00 116.23 238.77 116.30 239.65 C 116.36 240.54 117.13 241.20 118.02 241.14 Z M 119.02 241.06 L 120.03 240.99 C 120.91 240.92 121.58 240.15 121.51 239.27 C 121.45 238.38 120.68 237.72 119.79 237.78 L 118.78 237.86 C 117.90 237.92 117.23 238.69 117.30 239.58 C 117.36 240.46 118.13 241.13 119.02 241.06 Z M 120.03 240.99 L 121.05 240.91 C 121.93 240.85 122.60 240.08 122.53 239.19 C 122.47 238.31 121.70 237.64 120.81 237.71 L 119.79 237.78 C 118.91 237.85 118.24 238.62 118.31 239.50 C 118.37 240.39 119.14 241.05 120.03 240.99 Z M 121.05 240.91 L 122.07 240.84 C 122.96 240.77 123.63 240.00 123.56 239.12 C 123.50 238.23 122.73 237.57 121.84 237.63 L 120.81 237.71 C 119.93 237.77 119.26 238.54 119.33 239.43 C 119.39 240.31 120.16 240.98 121.05 240.91 Z M 122.07 240.84 L 123.10 240.77 C 123.99 240.70 124.65 239.93 124.59 239.04 C 124.52 238.16 123.75 237.49 122.87 237.56 L 121.84 237.63 C 120.95 237.70 120.29 238.47 120.35 239.35 C 120.42 240.24 121.19 240.90 122.07 240.84 Z M 123.10 240.77 L 124.12 240.69 C 125.00 240.63 125.67 239.86 125.61 238.97 C 125.54 238.08 124.77 237.42 123.88 237.48 L 122.87 237.56 C 121.98 237.62 121.31 238.39 121.38 239.28 C 121.44 240.16 122.21 240.83 123.10 240.77 Z M 124.12 240.69 L 125.13 240.62 C 126.02 240.56 126.69 239.78 126.62 238.90 C 126.56 238.01 125.79 237.34 124.90 237.41 L 123.88 237.48 C 123.00 237.55 122.33 238.32 122.39 239.20 C 122.46 240.09 123.23 240.76 124.12 240.69 Z M 125.13 240.62 L 126.15 240.55 C 127.03 240.48 127.70 239.71 127.64 238.82 C 127.57 237.94 126.80 237.27 125.91 237.33 L 124.90 237.41 C 124.01 237.47 123.35 238.24 123.41 239.13 C 123.47 240.02 124.25 240.69 125.13 240.62 Z M 126.15 240.55 L 127.16 240.47 C 128.05 240.41 128.71 239.64 128.65 238.75 C 128.58 237.86 127.81 237.19 126.92 237.26 L 125.91 237.33 C 125.03 237.40 124.36 238.17 124.42 239.06 C 124.49 239.95 125.26 240.61 126.15 240.55 Z M 127.16 240.48 L 128.16 240.40 C 129.05 240.34 129.72 239.56 129.65 238.68 C 129.59 237.79 128.81 237.12 127.93 237.19 L 126.92 237.26 C 126.03 237.32 125.37 238.10 125.43 238.98 C 125.50 239.87 126.27 240.54 127.16 240.48 Z M 128.16 240.40 L 129.16 240.33 C 130.05 240.26 130.71 239.49 130.65 238.60 C 130.58 237.71 129.81 237.05 128.92 237.11 L 127.93 237.18 C 127.04 237.25 126.37 238.02 126.44 238.91 C 126.50 239.80 127.27 240.47 128.16 240.40 Z M 129.16 240.33 L 130.14 240.26 C 131.03 240.19 131.70 239.41 131.63 238.53 C 131.57 237.64 130.79 236.97 129.90 237.04 L 128.92 237.11 C 128.03 237.18 127.36 237.95 127.43 238.84 C 127.50 239.73 128.27 240.40 129.16 240.33 Z M 130.14 240.26 L 131.11 240.18 C 132.00 240.12 132.67 239.34 132.60 238.45 C 132.54 237.56 131.76 236.90 130.87 236.96 L 129.90 237.04 C 129.01 237.10 128.34 237.88 128.41 238.77 C 128.48 239.66 129.26 240.32 130.14 240.26 Z M 131.12 240.18 L 132.09 240.11 C 132.98 240.04 133.65 239.26 133.58 238.37 C 133.51 237.48 132.73 236.82 131.85 236.89 L 130.87 236.96 C 129.98 237.03 129.31 237.81 129.38 238.70 C 129.45 239.59 130.23 240.25 131.12 240.18 Z M 132.10 240.11 L 133.14 240.03 C 134.03 239.96 134.70 239.18 134.63 238.29 C 134.56 237.40 133.78 236.73 132.89 236.80 L 131.84 236.89 C 130.95 236.96 130.29 237.73 130.36 238.62 C 130.43 239.51 131.21 240.18 132.10 240.11 Z M 133.14 240.03 L 134.17 239.95 C 135.06 239.88 135.73 239.10 135.66 238.21 C 135.59 237.32 134.81 236.65 133.92 236.72 L 132.89 236.80 C 132.00 236.87 131.33 237.65 131.40 238.54 C 131.48 239.43 132.25 240.10 133.14 240.03 Z M 134.17 239.95 L 135.18 239.87 C 136.07 239.80 136.74 239.02 136.67 238.13 C 136.60 237.24 135.82 236.57 134.93 236.64 L 133.92 236.72 C 133.03 236.79 132.36 237.57 132.43 238.46 C 132.50 239.35 133.28 240.02 134.17 239.95 Z M 135.18 239.87 L 136.18 239.79 C 137.07 239.72 137.73 238.94 137.66 238.05 C 137.59 237.16 136.81 236.49 135.92 236.56 L 134.93 236.64 C 134.04 236.71 133.37 237.49 133.44 238.38 C 133.51 239.27 134.29 239.94 135.18 239.87 Z M 136.18 239.79 L 137.16 239.71 C 138.05 239.64 138.72 238.87 138.65 237.97 C 138.58 237.08 137.80 236.42 136.91 236.48 L 135.93 236.56 C 135.03 236.63 134.37 237.41 134.44 238.30 C 134.51 239.19 135.28 239.86 136.18 239.79 Z M 137.16 239.71 L 138.13 239.64 C 139.02 239.57 139.69 238.80 139.62 237.90 C 139.55 237.01 138.78 236.34 137.88 236.41 L 136.91 236.48 C 136.02 236.55 135.35 237.33 135.42 238.22 C 135.49 239.11 136.26 239.78 137.16 239.71 Z M 138.12 239.64 L 139.09 239.57 C 139.98 239.51 140.65 238.73 140.59 237.84 C 140.52 236.95 139.74 236.27 138.85 236.34 L 137.89 236.41 C 137.00 236.47 136.33 237.25 136.39 238.14 C 136.46 239.04 137.23 239.71 138.12 239.64 Z M 139.08 239.57 L 140.05 239.51 C 140.95 239.44 141.62 238.67 141.56 237.78 C 141.50 236.88 140.72 236.21 139.83 236.27 L 138.86 236.34 C 137.96 236.40 137.29 237.17 137.35 238.07 C 137.41 238.96 138.19 239.63 139.08 239.57 Z M 140.05 239.51 L 141.09 239.44 C 141.98 239.38 142.66 238.61 142.60 237.72 C 142.54 236.82 141.77 236.14 140.88 236.20 L 139.84 236.27 C 138.94 236.33 138.26 237.10 138.32 237.99 C 138.38 238.89 139.15 239.56 140.05 239.51 Z M 141.08 239.44 L 142.11 239.38 C 143.01 239.32 143.69 238.55 143.63 237.66 C 143.58 236.76 142.81 236.08 141.91 236.14 L 140.88 236.20 C 139.99 236.26 139.31 237.03 139.36 237.92 C 139.42 238.81 140.19 239.49 141.08 239.44 Z M 142.11 239.38 L 143.13 239.32 C 144.02 239.26 144.70 238.50 144.65 237.60 C 144.60 236.71 143.83 236.03 142.94 236.08 L 141.92 236.14 C 141.02 236.19 140.34 236.96 140.39 237.85 C 140.45 238.75 141.21 239.43 142.11 239.38 Z M 143.12 239.32 L 144.13 239.26 C 145.02 239.21 145.71 238.44 145.66 237.55 C 145.61 236.65 144.84 235.97 143.95 236.02 L 142.94 236.08 C 142.05 236.13 141.36 236.89 141.41 237.79 C 141.46 238.68 142.23 239.37 143.12 239.32 Z M 144.13 239.26 L 145.12 239.20 C 146.01 239.15 146.69 238.39 146.64 237.49 C 146.59 236.60 145.83 235.92 144.93 235.97 L 143.95 236.02 C 143.05 236.07 142.37 236.84 142.42 237.73 C 142.47 238.62 143.23 239.31 144.13 239.26 Z M 145.12 239.20 L 146.08 239.15 C 146.98 239.10 147.66 238.33 147.61 237.44 C 147.56 236.55 146.80 235.86 145.90 235.91 L 144.93 235.97 C 144.04 236.02 143.36 236.78 143.41 237.67 C 143.46 238.57 144.22 239.25 145.12 239.20 Z M 146.08 239.15 L 147.03 239.10 C 147.92 239.05 148.61 238.28 148.56 237.39 C 148.51 236.49 147.74 235.81 146.84 235.86 L 145.90 235.91 C 145.01 235.96 144.32 236.73 144.37 237.62 C 144.42 238.52 145.19 239.20 146.08 239.15 Z M 147.03 239.10 L 148.02 239.04 C 148.92 238.99 149.60 238.22 149.55 237.32 C 149.49 236.43 148.73 235.75 147.83 235.80 L 146.84 235.86 C 145.95 235.91 145.26 236.68 145.32 237.57 C 145.37 238.47 146.14 239.15 147.03 239.10 Z M 148.02 239.04 L 149.01 238.98 C 149.90 238.93 150.59 238.16 150.53 237.26 C 150.48 236.37 149.71 235.69 148.82 235.74 L 147.83 235.80 C 146.94 235.85 146.25 236.62 146.31 237.52 C 146.36 238.41 147.13 239.09 148.02 239.04 Z M 149.01 238.98 L 149.98 238.92 C 150.88 238.87 151.56 238.10 151.51 237.21 C 151.46 236.31 150.69 235.63 149.79 235.68 L 148.82 235.74 C 147.92 235.79 147.24 236.56 147.29 237.46 C 147.35 238.35 148.11 239.03 149.01 238.98 Z M 149.98 238.92 L 150.96 238.87 C 151.85 238.82 152.54 238.05 152.49 237.16 C 152.44 236.26 151.67 235.58 150.77 235.63 L 149.80 235.68 C 148.90 235.73 148.22 236.50 148.27 237.39 C 148.32 238.29 149.09 238.97 149.98 238.92 Z M 150.95 238.87 L 151.94 238.82 C 152.83 238.77 153.52 238.01 153.48 237.11 C 153.43 236.22 152.66 235.53 151.77 235.58 L 150.78 235.63 C 149.89 235.67 149.20 236.44 149.24 237.33 C 149.29 238.23 150.06 238.92 150.95 238.87 Z M 151.93 238.82 L 152.94 238.77 C 153.84 238.73 154.53 237.97 154.49 237.07 C 154.45 236.18 153.69 235.48 152.79 235.53 L 151.78 235.57 C 150.88 235.62 150.19 236.38 150.23 237.27 C 150.28 238.17 151.04 238.86 151.93 238.82 Z M 152.93 238.77 L 153.97 238.73 C 154.86 238.69 155.56 237.94 155.52 237.04 C 155.49 236.15 154.73 235.45 153.84 235.48 L 152.80 235.53 C 151.91 235.56 151.21 236.32 151.25 237.21 C 151.28 238.11 152.04 238.81 152.93 238.77 Z M 153.96 238.73 L 154.89 238.70 C 155.78 238.67 156.48 237.92 156.45 237.02 C 156.42 236.12 155.67 235.42 154.78 235.45 L 153.85 235.48 C 152.95 235.51 152.25 236.27 152.28 237.16 C 152.31 238.06 153.06 238.76 153.96 238.73 Z M 154.88 238.70 L 155.84 238.67 C 156.73 238.64 157.44 237.90 157.41 237.00 C 157.39 236.11 156.64 235.40 155.74 235.43 L 154.79 235.45 C 153.89 235.48 153.18 236.23 153.21 237.12 C 153.24 238.02 153.98 238.72 154.88 238.70 Z M 155.83 238.67 L 156.81 238.65 C 157.71 238.62 158.42 237.88 158.39 236.99 C 158.37 236.09 157.63 235.38 156.74 235.40 L 155.75 235.43 C 154.86 235.45 154.15 236.19 154.17 237.09 C 154.19 237.98 154.93 238.69 155.83 238.67 Z M 156.81 238.65 L 157.81 238.63 C 158.71 238.61 159.42 237.87 159.40 236.97 C 159.38 236.08 158.64 235.37 157.75 235.38 L 156.74 235.40 C 155.85 235.42 155.14 236.16 155.15 237.06 C 155.17 237.95 155.91 238.66 156.81 238.65 Z M 157.80 238.62 L 158.83 238.61 C 159.72 238.59 160.43 237.86 160.42 236.96 C 160.41 236.07 159.67 235.35 158.77 235.37 L 157.75 235.38 C 156.86 235.40 156.14 236.14 156.16 237.03 C 156.17 237.93 156.91 238.64 157.80 238.62 Z M 158.82 238.61 L 159.85 238.59 C 160.75 238.58 161.46 237.85 161.45 236.95 C 161.44 236.06 160.71 235.34 159.81 235.35 L 158.78 235.37 C 157.88 235.38 157.17 236.11 157.18 237.01 C 157.19 237.90 157.93 238.62 158.82 238.61 Z M 159.85 238.59 L 160.89 238.58 C 161.79 238.57 162.50 237.84 162.49 236.95 C 162.48 236.05 161.75 235.34 160.86 235.34 L 159.82 235.36 C 158.92 235.36 158.20 236.10 158.21 236.99 C 158.22 237.89 158.96 238.60 159.85 238.59 Z M 160.89 238.58 L 161.93 238.57 C 162.83 238.57 163.54 237.84 163.54 236.94 C 163.53 236.05 162.80 235.33 161.90 235.34 L 160.86 235.35 C 159.97 235.35 159.25 236.08 159.26 236.98 C 159.26 237.87 159.99 238.59 160.89 238.58 Z M 161.93 238.57 L 162.96 238.57 C 163.86 238.56 164.58 237.83 164.57 236.94 C 164.56 236.04 163.84 235.32 162.94 235.33 L 161.91 235.34 C 161.01 235.34 160.29 236.07 160.30 236.97 C 160.31 237.86 161.03 238.58 161.93 238.57 Z M 162.96 238.57 L 163.99 238.56 C 164.88 238.56 165.60 237.83 165.60 236.94 C 165.60 236.04 164.87 235.32 163.98 235.33 L 162.94 235.33 C 162.05 235.34 161.33 236.06 161.34 236.96 C 161.34 237.85 162.07 238.57 162.96 238.57 Z M 163.99 238.56 L 165.01 238.56 C 165.90 238.55 166.63 237.83 166.62 236.93 C 166.62 236.04 165.89 235.32 165.00 235.32 L 163.98 235.33 C 163.08 235.33 162.36 236.06 162.37 236.95 C 162.37 237.84 163.10 238.56 163.99 238.56 Z M 165.01 238.56 L 166.02 238.55 C 166.91 238.55 167.64 237.83 167.63 236.93 C 167.63 236.04 166.91 235.32 166.01 235.32 L 165.00 235.32 C 164.11 235.33 163.39 236.05 163.39 236.94 C 163.39 237.84 164.12 238.56 165.01 238.56 Z M 166.02 238.55 L 167.02 238.55 C 167.91 238.55 168.63 237.83 168.63 236.93 C 168.63 236.04 167.91 235.32 167.01 235.32 L 166.02 235.32 C 165.12 235.32 164.40 236.05 164.40 236.94 C 164.40 237.83 165.13 238.55 166.02 238.55 Z M 167.02 238.55 L 168.00 238.55 C 168.89 238.55 169.61 237.83 169.61 236.93 C 169.61 236.04 168.89 235.32 167.99 235.32 L 167.02 235.32 C 166.12 235.32 165.40 236.05 165.40 236.94 C 165.40 237.83 166.13 238.55 167.02 238.55 Z M 168.00 238.55 L 168.95 238.55 C 169.85 238.55 170.57 237.83 170.57 236.94 C 170.57 236.04 169.84 235.32 168.95 235.32 L 168.00 235.32 C 167.10 235.32 166.38 236.04 166.38 236.94 C 166.38 237.83 167.10 238.55 168.00 238.55 Z M 168.95 238.55 L 169.93 238.55 C 170.82 238.55 171.55 237.83 171.55 236.94 C 171.55 236.04 170.82 235.32 169.93 235.32 L 168.95 235.32 C 168.06 235.32 167.34 236.04 167.34 236.94 C 167.34 237.83 168.06 238.55 168.95 238.55 Z M 169.93 238.55 L 170.99 238.55 C 171.88 238.55 172.60 237.83 172.60 236.94 C 172.60 236.04 171.88 235.32 170.99 235.32 L 169.93 235.32 C 169.04 235.32 168.32 236.04 168.32 236.94 C 168.32 237.83 169.04 238.55 169.93 238.55 Z M 170.99 238.55 L 172.01 238.55 C 172.90 238.55 173.62 237.83 173.62 236.94 C 173.62 236.05 172.90 235.32 172.01 235.32 L 170.99 235.32 C 170.10 235.32 169.38 236.05 169.38 236.94 C 169.38 237.83 170.10 238.55 170.99 238.55 Z M 172.01 238.54 L 173.01 238.54 C 173.90 238.54 174.62 237.82 174.62 236.94 C 174.62 236.05 173.90 235.33 173.01 235.33 L 172.01 235.33 C 171.12 235.33 170.40 236.05 170.40 236.94 C 170.40 237.82 171.12 238.54 172.01 238.54 Z M 173.01 238.54 L 173.99 238.54 C 174.88 238.54 175.60 237.82 175.60 236.94 C 175.60 236.05 174.88 235.33 173.99 235.33 L 173.01 235.33 C 172.13 235.33 171.41 236.05 171.41 236.94 C 171.41 237.82 172.13 238.54 173.01 238.54 Z M 173.99 238.54 L 174.96 238.54 C 175.85 238.54 176.57 237.82 176.57 236.94 C 176.57 236.05 175.85 235.33 174.96 235.33 L 173.99 235.33 C 173.11 235.33 172.39 236.05 172.39 236.94 C 172.39 237.82 173.11 238.54 173.99 238.54 Z M 174.96 238.54 L 175.93 238.54 C 176.81 238.54 177.53 237.82 177.53 236.94 C 177.53 236.05 176.81 235.33 175.93 235.33 L 174.96 235.33 C 174.08 235.33 173.36 236.05 173.36 236.94 C 173.36 237.82 174.08 238.54 174.96 238.54 Z M 175.93 238.54 L 176.93 238.54 C 177.82 238.54 178.53 237.82 178.53 236.94 C 178.53 236.05 177.82 235.33 176.93 235.33 L 175.93 235.33 C 175.04 235.33 174.33 236.05 174.33 236.94 C 174.33 237.82 175.04 238.54 175.93 238.54 Z M 176.93 238.53 L 177.97 238.54 C 178.85 238.54 179.57 237.82 179.57 236.94 C 179.57 236.05 178.86 235.34 177.97 235.34 L 176.93 235.34 C 176.05 235.34 175.33 236.05 175.33 236.93 C 175.33 237.82 176.05 238.53 176.93 238.53 Z M 177.97 238.53 L 179.00 238.54 C 179.88 238.54 180.60 237.82 180.60 236.94 C 180.60 236.06 179.89 235.34 179.01 235.34 L 177.98 235.34 C 177.09 235.34 176.38 236.05 176.37 236.93 C 176.37 237.82 177.09 238.53 177.97 238.53 Z M 179.00 238.53 L 180.01 238.54 C 180.89 238.54 181.61 237.83 181.62 236.95 C 181.62 236.07 180.91 235.35 180.03 235.35 L 179.01 235.34 C 178.13 235.34 177.41 236.05 177.41 236.93 C 177.40 237.81 178.12 238.53 179.00 238.53 Z M 180.01 238.54 L 181.00 238.55 C 181.88 238.55 182.60 237.85 182.61 236.96 C 182.61 236.08 181.90 235.36 181.02 235.36 L 180.03 235.35 C 179.15 235.34 178.43 236.05 178.42 236.93 C 178.42 237.81 179.13 238.53 180.01 238.54 Z M 180.99 238.54 L 181.95 238.56 C 182.83 238.57 183.55 237.87 183.56 236.99 C 183.57 236.11 182.87 235.38 181.99 235.37 L 181.03 235.36 C 180.15 235.35 179.43 236.05 179.42 236.93 C 179.40 237.81 180.11 238.53 180.99 238.54 Z M 181.94 238.56 L 182.91 238.58 C 183.79 238.59 184.51 237.90 184.53 237.02 C 184.55 236.14 183.85 235.41 182.97 235.39 L 182.00 235.37 C 181.12 235.35 180.39 236.05 180.38 236.93 C 180.36 237.81 181.06 238.54 181.94 238.56 Z M 182.89 238.57 L 183.98 238.61 C 184.86 238.63 185.60 237.94 185.62 237.07 C 185.65 236.19 184.96 235.45 184.08 235.43 L 182.99 235.39 C 182.11 235.37 181.38 236.06 181.35 236.94 C 181.32 237.81 182.01 238.55 182.89 238.57 Z M 183.97 238.60 L 185.00 238.65 C 185.87 238.68 186.61 238.00 186.65 237.12 C 186.68 236.25 186.00 235.51 185.13 235.47 L 184.10 235.43 C 183.22 235.39 182.48 236.08 182.45 236.95 C 182.41 237.83 183.09 238.57 183.97 238.60 Z M 184.98 238.64 L 185.96 238.69 C 186.83 238.74 187.58 238.07 187.62 237.19 C 187.67 236.32 187.00 235.57 186.12 235.53 L 185.14 235.48 C 184.27 235.43 183.52 236.10 183.48 236.98 C 183.43 237.85 184.11 238.60 184.98 238.64 Z M 185.94 238.69 L 186.87 238.75 C 187.75 238.80 188.50 238.14 188.55 237.27 C 188.61 236.39 187.94 235.64 187.07 235.59 L 186.14 235.53 C 185.26 235.47 184.51 236.14 184.46 237.01 C 184.40 237.88 185.07 238.64 185.94 238.69 Z M 186.86 238.75 L 187.80 238.81 C 188.67 238.88 189.43 238.22 189.49 237.35 C 189.55 236.48 188.90 235.72 188.03 235.66 L 187.09 235.59 C 186.22 235.53 185.46 236.18 185.40 237.05 C 185.33 237.93 185.99 238.68 186.86 238.75 Z M 187.78 238.81 L 188.80 238.90 C 189.67 238.97 190.44 238.32 190.51 237.45 C 190.58 236.58 189.93 235.82 189.06 235.74 L 188.04 235.66 C 187.17 235.59 186.41 236.23 186.34 237.11 C 186.26 237.98 186.91 238.74 187.78 238.81 Z M 188.78 238.90 L 189.77 238.99 C 190.65 239.07 191.42 238.44 191.50 237.56 C 191.58 236.69 190.95 235.92 190.07 235.84 L 189.08 235.74 C 188.21 235.66 187.44 236.30 187.35 237.17 C 187.27 238.04 187.91 238.82 188.78 238.90 Z M 189.75 238.99 L 190.73 239.10 C 191.61 239.19 192.39 238.56 192.48 237.69 C 192.58 236.82 191.95 236.04 191.07 235.94 L 190.09 235.84 C 189.22 235.74 188.44 236.37 188.35 237.24 C 188.25 238.12 188.88 238.90 189.75 238.99 Z M 190.71 239.10 L 191.69 239.22 C 192.56 239.32 193.35 238.70 193.46 237.83 C 193.56 236.96 192.94 236.17 192.07 236.06 L 191.10 235.94 C 190.23 235.84 189.43 236.46 189.33 237.33 C 189.22 238.20 189.84 238.99 190.71 239.10 Z M 191.67 239.21 L 192.66 239.34 C 193.53 239.46 194.33 238.85 194.44 237.98 C 194.56 237.11 193.95 236.32 193.08 236.20 L 192.09 236.07 C 191.22 235.95 190.42 236.56 190.31 237.43 C 190.19 238.30 190.80 239.10 191.67 239.21 Z M 192.65 239.34 L 193.64 239.48 C 194.50 239.60 195.30 239.00 195.43 238.14 C 195.55 237.27 194.95 236.47 194.08 236.35 L 193.09 236.20 C 192.23 236.08 191.43 236.68 191.30 237.55 C 191.18 238.41 191.78 239.22 192.65 239.34 Z M 193.63 239.48 L 194.62 239.62 C 195.49 239.75 196.29 239.15 196.42 238.29 C 196.54 237.43 195.95 236.62 195.08 236.50 L 194.09 236.35 C 193.23 236.22 192.42 236.82 192.30 237.68 C 192.17 238.55 192.77 239.35 193.63 239.48 Z M 194.62 239.62 L 195.61 239.76 C 196.47 239.89 197.28 239.29 197.40 238.43 C 197.53 237.57 196.93 236.77 196.07 236.64 L 195.08 236.50 C 194.22 236.37 193.42 236.97 193.29 237.83 C 193.17 238.69 193.76 239.49 194.62 239.62 Z M 195.62 239.76 L 196.62 239.90 C 197.48 240.03 198.28 239.43 198.40 238.57 C 198.52 237.71 197.93 236.91 197.07 236.79 L 196.06 236.65 C 195.20 236.52 194.41 237.12 194.28 237.98 C 194.16 238.84 194.76 239.64 195.62 239.76 Z M 196.63 239.90 L 197.63 240.04 C 198.49 240.16 199.28 239.56 199.40 238.70 C 199.52 237.84 198.92 237.05 198.06 236.93 L 197.06 236.79 C 196.20 236.67 195.41 237.27 195.29 238.13 C 195.17 238.99 195.77 239.78 196.63 239.90 Z M 197.63 240.04 L 198.62 240.18 C 199.48 240.30 200.27 239.70 200.39 238.84 C 200.51 237.98 199.91 237.19 199.05 237.07 L 198.06 236.93 C 197.20 236.81 196.41 237.41 196.29 238.27 C 196.17 239.13 196.77 239.92 197.63 240.04 Z M 198.61 240.18 L 199.59 240.32 C 200.45 240.44 201.24 239.84 201.37 238.99 C 201.49 238.13 200.89 237.33 200.03 237.21 L 199.06 237.07 C 198.20 236.94 197.40 237.54 197.28 238.40 C 197.16 239.26 197.75 240.05 198.61 240.18 Z M 199.57 240.31 L 200.57 240.46 C 201.43 240.60 202.23 240.01 202.36 239.15 C 202.49 238.29 201.90 237.49 201.04 237.36 L 200.05 237.21 C 199.19 237.08 198.39 237.67 198.26 238.53 C 198.13 239.38 198.72 240.18 199.57 240.31 Z M 200.55 240.46 L 201.55 240.62 C 202.41 240.76 203.21 240.18 203.35 239.32 C 203.49 238.47 202.91 237.67 202.05 237.53 L 201.05 237.37 C 200.20 237.23 199.40 237.81 199.26 238.66 C 199.12 239.52 199.70 240.32 200.55 240.46 Z M 201.54 240.62 L 202.52 240.78 C 203.37 240.93 204.18 240.35 204.33 239.50 C 204.47 238.65 203.90 237.84 203.04 237.70 L 202.06 237.53 C 201.21 237.39 200.40 237.96 200.26 238.81 C 200.11 239.67 200.69 240.47 201.54 240.62 Z M 202.52 240.78 L 203.49 240.95 C 204.34 241.10 205.15 240.53 205.29 239.68 C 205.44 238.83 204.87 238.02 204.02 237.87 L 203.05 237.70 C 202.20 237.55 201.39 238.12 201.24 238.97 C 201.10 239.82 201.67 240.63 202.52 240.78 Z M 203.48 240.95 L 204.47 241.12 C 205.32 241.27 206.13 240.70 206.28 239.85 C 206.43 239.00 205.86 238.19 205.01 238.04 L 204.02 237.87 C 203.18 237.72 202.37 238.29 202.22 239.14 C 202.07 239.99 202.63 240.80 203.48 240.95 Z M 204.47 241.12 L 205.46 241.30 C 206.31 241.45 207.12 240.88 207.27 240.03 C 207.42 239.18 206.86 238.37 206.01 238.22 L 205.02 238.05 C 204.17 237.90 203.36 238.46 203.21 239.31 C 203.06 240.16 203.62 240.97 204.47 241.12 Z M 205.46 241.30 L 206.44 241.47 C 207.29 241.62 208.10 241.06 208.25 240.21 C 208.40 239.36 207.84 238.55 206.99 238.40 L 206.01 238.22 C 205.16 238.07 204.35 238.63 204.20 239.48 C 204.05 240.33 204.61 241.14 205.46 241.30 Z M 206.44 241.47 L 207.41 241.65 C 208.26 241.80 209.07 241.24 209.22 240.39 C 209.38 239.54 208.81 238.73 207.97 238.57 L 206.99 238.40 C 206.14 238.24 205.33 238.81 205.18 239.66 C 205.03 240.50 205.59 241.32 206.44 241.47 Z M 207.41 241.65 L 208.42 241.83 C 209.27 241.99 210.08 241.42 210.24 240.57 C 210.39 239.73 209.83 238.91 208.98 238.76 L 207.97 238.57 C 207.12 238.42 206.31 238.98 206.15 239.83 C 206.00 240.68 206.56 241.49 207.41 241.65 Z M 208.41 241.83 L 209.41 242.01 C 210.26 242.17 211.07 241.61 211.23 240.77 C 211.39 239.92 210.83 239.10 209.98 238.94 L 208.99 238.76 C 208.14 238.60 207.32 239.16 207.16 240.01 C 207.01 240.86 207.57 241.67 208.41 241.83 Z M 209.40 242.01 L 210.37 242.20 C 211.21 242.36 212.03 241.81 212.19 240.96 C 212.36 240.11 211.80 239.29 210.96 239.13 L 209.99 238.95 C 209.14 238.78 208.32 239.34 208.16 240.19 C 208.00 241.03 208.55 241.85 209.40 242.01 Z M 210.36 242.20 L 211.28 242.38 C 212.13 242.55 212.95 242.00 213.12 241.15 C 213.29 240.31 212.74 239.49 211.89 239.32 L 210.97 239.13 C 210.12 238.97 209.30 239.51 209.13 240.36 C 208.96 241.21 209.51 242.03 210.36 242.20 Z M 211.27 242.38 L 212.17 242.57 C 213.01 242.74 213.84 242.20 214.02 241.36 C 214.19 240.52 213.65 239.69 212.81 239.51 L 211.91 239.32 C 211.06 239.14 210.24 239.68 210.06 240.53 C 209.88 241.37 210.42 242.20 211.27 242.38 Z M 212.14 242.56 L 213.09 242.78 C 213.93 242.97 214.77 242.44 214.96 241.60 C 215.15 240.76 214.62 239.92 213.78 239.73 L 212.83 239.52 C 211.99 239.32 211.16 239.85 210.97 240.69 C 210.77 241.53 211.30 242.37 212.14 242.56 Z M 213.06 242.77 L 214.12 243.03 C 214.95 243.24 215.80 242.72 216.01 241.89 C 216.21 241.05 215.70 240.20 214.86 240.00 L 213.81 239.74 C 212.97 239.53 212.13 240.04 211.92 240.88 C 211.71 241.72 212.22 242.56 213.06 242.77 Z M 214.09 243.02 L 215.06 243.28 C 215.89 243.50 216.74 243.00 216.96 242.16 C 217.18 241.33 216.68 240.48 215.85 240.26 L 214.89 240.00 C 214.05 239.78 213.20 240.28 212.98 241.12 C 212.76 241.95 213.26 242.80 214.09 243.02 Z M 215.04 243.27 L 215.99 243.53 C 216.83 243.76 217.69 243.27 217.91 242.44 C 218.14 241.61 217.65 240.75 216.82 240.52 L 215.87 240.26 C 215.04 240.03 214.18 240.52 213.95 241.35 C 213.72 242.19 214.21 243.04 215.04 243.27 Z M 215.98 243.53 L 216.97 243.81 C 217.80 244.05 218.67 243.57 218.90 242.74 C 219.14 241.91 218.66 241.04 217.83 240.81 L 216.83 240.53 C 216.01 240.29 215.14 240.77 214.91 241.60 C 214.67 242.43 215.15 243.29 215.98 243.53 Z M 216.96 243.81 L 217.95 244.10 C 218.78 244.34 219.65 243.87 219.89 243.05 C 220.14 242.22 219.66 241.35 218.84 241.11 L 217.84 240.81 C 217.01 240.57 216.15 241.04 215.90 241.87 C 215.66 242.70 216.13 243.56 216.96 243.81 Z M 217.94 244.10 L 218.90 244.39 C 219.72 244.64 220.60 244.18 220.85 243.36 C 221.10 242.53 220.64 241.66 219.81 241.41 L 218.85 241.11 C 218.03 240.86 217.15 241.32 216.90 242.15 C 216.65 242.97 217.11 243.84 217.94 244.10 Z M 218.88 244.38 L 219.90 244.71 C 220.72 244.98 221.60 244.53 221.87 243.71 C 222.13 242.89 221.68 242.01 220.86 241.74 L 219.83 241.41 C 219.01 241.15 218.13 241.60 217.87 242.42 C 217.61 243.24 218.06 244.12 218.88 244.38 Z M 219.88 244.71 L 220.86 245.04 C 221.68 245.32 222.57 244.88 222.84 244.06 C 223.12 243.25 222.68 242.36 221.87 242.08 L 220.88 241.75 C 220.07 241.47 219.18 241.91 218.90 242.73 C 218.63 243.54 219.06 244.43 219.88 244.71 Z M 220.84 245.03 L 221.76 245.36 C 222.57 245.65 223.47 245.22 223.75 244.41 C 224.04 243.59 223.62 242.70 222.80 242.41 L 221.88 242.09 C 221.07 241.80 220.18 242.23 219.89 243.04 C 219.60 243.85 220.03 244.75 220.84 245.03 Z M 221.75 245.35 L 222.63 245.67 C 223.44 245.97 224.33 245.55 224.63 244.74 C 224.92 243.93 224.51 243.03 223.70 242.74 L 222.82 242.42 C 222.00 242.12 221.11 242.54 220.81 243.35 C 220.52 244.16 220.94 245.06 221.75 245.35 Z M 222.62 245.67 L 222.99 245.81 C 223.80 246.10 224.70 245.69 225.00 244.88 C 225.29 244.07 224.88 243.17 224.07 242.88 L 223.70 242.74 C 222.89 242.44 221.99 242.86 221.70 243.67 C 221.40 244.48 221.81 245.38 222.62 245.67 Z"
      fill="black"
      fill-rule="nonzero" /></svg>